# 2-part smooth — best-fit FEM result (phase 2)
# interior RMSE     20.5126 mm  over 521 vertices
# max interior dev  53.6124 mm
# crown             0.229295 m (target 0.256782 m)
# max disp from rest 53.6124 mm (floor 5.0000 mm, at_floor=False)
# pressure 1000.0 Pa   motif 1   cable_ea 157000.0
# knit direction fixed from the directional field, not optimised
# params: /home/chaoyu/phd_simulation/FDM/optimisation/2part_Y_p2_result.json
v -0.00104550 0.07144401 0.15765891
v -0.00036725 -0.32677288 0.11294511
v -0.00015386 -0.47984940 0.05384868
v -0.00021188 -0.42912159 0.07688207
v 0.00000000 0.60000000 0.00000000
v -0.00045772 -0.27246086 0.12654246
v -0.00055041 -0.21708760 0.13763906
v -0.00078181 -0.08271712 0.15486610
v -0.03488929 -0.19167300 0.16146619
v -0.02362608 -0.35428465 0.11213239
v -0.04098763 -0.06593317 0.18036851
v -0.03815854 -0.12852130 0.17317035
v -0.05370516 -0.01112871 0.18783930
v -0.03081444 -0.24961715 0.14670764
v -0.04809672 -0.57213257 0.01562751
v -0.02776175 -0.30650629 0.12955871
v -0.05940900 -0.53201565 0.03991471
v -0.04755839 -0.42839955 0.08894008
v -0.07951743 -0.31237558 0.14211320
v -0.07220530 -0.48884899 0.06392824
v -0.09217508 -0.26328852 0.16129890
v -0.08434554 -0.44430664 0.08746345
v -0.10905857 -0.15362902 0.19248355
v -0.10248765 -0.20916901 0.17883683
v -0.11443715 -0.10302541 0.20151078
v -0.10028285 -0.38691776 0.11611635
v -0.14515314 -0.58217743 0.00000000
v -0.15184293 -0.50994251 0.04577592
v -0.16037126 -0.45595775 0.08058572
v -0.16723173 -0.40245545 0.11148230
v -0.17430839 -0.34836520 0.13883945
v -0.17946480 -0.29214430 0.16337620
v -0.38567258 0.45962668 0.00000000
v -0.41017347 0.30113484 0.10423823
v -0.44626713 0.22379011 0.12112195
v -0.57910190 -0.03259297 0.03926180
v -0.11543704 -0.33602570 0.13948931
v -0.02694625 0.12469800 0.16623140
v -0.32458079 -0.21700558 0.18410621
v -0.11600678 -0.55989838 0.01574211
v -0.00148718 0.28607784 0.12646138
v -0.42370923 0.07895420 0.17992109
v -0.38313246 -0.26785100 0.15004278
v -0.00128990 0.19694355 0.14518580
v -0.37471595 -0.42503395 0.04279272
v -0.13004829 0.05233975 0.20980846
v -0.16784915 -0.54935425 0.01272377
v -0.52943761 -0.20458727 0.06513243
v -0.00066054 -0.15282644 0.14750869
v -0.00028745 -0.37442928 0.09802356
v -0.03752251 0.22793918 0.15194256
v -0.09639370 0.10033736 0.19572123
v -0.52373698 0.05681749 0.10593437
v -0.54436361 -0.03346175 0.08859090
v -0.16555208 0.14507770 0.20540071
v -0.48713850 0.13927626 0.12116599
v -0.46375342 -0.03011174 0.16161059
v -0.34580724 -0.12669773 0.20225709
v -0.41697025 -0.14099535 0.17426023
v -0.36934344 0.36412453 0.08711511
v -0.37417986 -0.38867949 0.08192626
v -0.37469421 -0.35014351 0.11074123
v -0.45676566 -0.25091256 0.11870957
v -0.26476333 -0.20087910 0.19611006
v -0.00006847 -0.54722115 0.02339527
v -0.28333754 -0.06393279 0.22337998
v -0.37028074 -0.00917053 0.20859237
v -0.31729716 0.20041236 0.19216111
v -0.31728121 -0.26324473 0.16915878
v -0.27427834 -0.10296148 0.21863921
v -0.39022391 -0.22504671 0.16290344
v -0.57006049 -0.10831190 0.04132536
v -0.37955735 0.17505193 0.17964205
v -0.55567951 0.18956435 0.02005639
v -0.30933822 -0.33452573 0.13665631
v -0.31038090 0.04174650 0.22279153
v 0.00000000 -0.60000000 0.00000000
v -0.00223418 0.55559993 0.02694915
v -0.00150890 0.32757042 0.11508102
v -0.00138628 0.24599365 0.13607958
v -0.00127458 0.58261668 0.01171765
v -0.04185389 0.59853845 0.00000000
v -0.00186753 0.40104747 0.09131652
v -0.00226274 0.46431004 0.06798618
v -0.00118948 0.14399597 0.15234117
v -0.00251557 0.51680002 0.04575346
v -0.00088612 -0.01805098 0.15850103
v -0.01575471 -0.51133805 0.04583069
v -0.00763407 -0.56364634 0.01911403
v -0.02220291 -0.54977936 0.02865177
v -0.02477092 -0.45921504 0.07097868
v -0.03275503 -0.40190337 0.09676039
v -0.04065735 -0.50063994 0.05524742
v -0.03821344 0.34193824 0.11673846
v -0.03887293 0.41268387 0.08900380
v -0.04655178 -0.34634109 0.12229217
v -0.04068833 0.47481609 0.06102526
v -0.04187508 0.52629704 0.03593759
v -0.04249856 0.56671729 0.01591947
v -0.08350386 0.59416083 0.00000000
v -0.04215643 0.26783601 0.14253502
v -0.04614735 0.17968783 0.16585664
v -0.05581754 -0.28593140 0.14510651
v -0.02890947 0.03593307 0.17457676
v -0.05737202 0.08616858 0.18432494
v -0.05088071 0.13065211 0.17617600
v -0.05848867 -0.45376893 0.07978544
v -0.06411371 -0.22829452 0.16384880
v -0.07312160 -0.59552771 0.00000000
v -0.07209158 -0.17122595 0.17904855
v -0.08018272 0.44479231 0.08324657
v -0.08045495 0.37645722 0.11372616
v -0.08056000 0.50657420 0.05207522
v -0.08035817 0.55840095 0.02270747
v -0.12474702 0.58688855 0.00000000
v -0.08506846 0.30740705 0.14166634
v -0.07698425 -0.40478320 0.10530878
v -0.08096376 -0.11332759 0.19106808
v -0.08850300 -0.52007601 0.04612999
v -0.08075725 -0.55891055 0.02177135
v -0.09477629 0.23670722 0.16704438
v -0.09727833 -0.47463165 0.07247936
v -0.09801129 -0.35477442 0.12967677
v -0.09204782 -0.05512554 0.20002379
v -0.10573068 0.00450352 0.20537960
v -0.08084722 0.04641853 0.19622851
v -0.10690773 -0.42064729 0.10118653
v -0.10726295 0.16946129 0.18739868
v -0.11805119 -0.36784884 0.12664531
v -0.12161583 0.48714926 0.06621684
v -0.11894472 0.54837638 0.02906268
v -0.12364482 0.42059215 0.10121183
v -0.12858768 -0.31392973 0.15005663
v -0.12821678 0.35436139 0.13214071
v -0.13873367 -0.24867004 0.17452004
v -0.11741399 -0.30348900 0.15240355
v -0.13757338 0.29307735 0.15810182
v -0.14094971 0.10802055 0.20650138
v -0.14199486 -0.18938492 0.19174341
v -0.14560991 -0.12918787 0.20487436
v -0.15013530 -0.06795627 0.21379091
v -0.12654495 -0.03058468 0.21016447
v -0.15083068 0.24010634 0.17861858
v -0.16538242 0.57675702 0.00000000
v -0.16024659 0.52823966 0.03875360
v -0.16328904 0.46789591 0.07750010
v -0.16801890 0.40481039 0.11250406
v -0.17766644 -0.24273956 0.18119106
v -0.17853357 0.05411704 0.22014075
v -0.16458853 -0.00151384 0.21967336
v -0.17716801 0.19236060 0.19714038
v -0.17678925 0.34602355 0.14159937
v -0.19377580 -0.10008319 0.21729183
v -0.18615112 -0.16763295 0.20353205
v -0.19130059 0.29754978 0.16378129
v -0.20521208 0.56381555 0.00000000
v -0.20309227 0.50989499 0.04381652
v -0.20906738 0.14803927 0.21194039
v -0.19142214 0.09707423 0.21805268
v -0.20701355 0.45221028 0.08303625
v -0.21502077 -0.56014825 0.00000000
v -0.21143532 -0.52258634 0.02081232
v -0.21786281 0.01631184 0.22799146
v -0.20525590 -0.04037274 0.22496123
v -0.21261553 -0.47806496 0.05641071
v -0.21173155 0.25939612 0.18037697
v -0.24039587 0.21842351 0.19602682
v -0.21471934 -0.42959178 0.09112221
v -0.21716001 -0.37843249 0.12256104
v -0.21475421 0.39486765 0.11680306
v -0.22429594 -0.26654225 0.17514515
v -0.22022625 -0.32525512 0.15006528
v -0.22887823 -0.21703482 0.19237843
v -0.22752130 0.34756032 0.14151627
v -0.23881132 -0.12928455 0.21528516
v -0.23431616 -0.17279293 0.20497346
v -0.24404199 0.54812726 0.00000000
v -0.24497358 0.49259513 0.04497828
v -0.24614059 0.10815461 0.22189067
v -0.24587305 0.31149775 0.15833183
v -0.27219110 0.27449780 0.17278245
v -0.25136321 0.43543957 0.08508264
v -0.25966380 -0.01594361 0.22929485
v -0.24789545 -0.07679015 0.22377180
v -0.26166772 0.39027388 0.11277064
v -0.28168292 -0.52976855 0.00000000
v -0.28168295 0.52976855 0.00000000
v -0.27911298 -0.48983831 0.02551437
v -0.27682458 -0.44602261 0.06444373
v -0.27626442 -0.40030542 0.10087639
v -0.27621637 -0.35334801 0.13151659
v -0.27894777 -0.30073036 0.15876855
v -0.27664678 0.18451105 0.20372030
v -0.26239992 0.14978446 0.21400173
v -0.27803344 0.35496902 0.13080105
v -0.28639493 0.46139594 0.05285869
v -0.29040702 -0.19897884 0.19464892
v -0.28444897 -0.24087531 0.18206321
v -0.28921559 0.08142537 0.22410994
v -0.27652598 0.03774800 0.22794221
v -0.29517850 -0.15364074 0.20687106
v -0.29366302 0.42508995 0.07832475
v -0.30615730 0.39092154 0.09901544
v -0.30187132 0.32174468 0.14397279
v -0.31795157 0.50882886 0.00000000
v -0.30573533 0.49068562 0.01811458
v -0.30864720 0.23991462 0.18062219
v -0.31920816 -0.03970306 0.22111506
v -0.30916416 -0.08929856 0.21728891
v -0.32201186 0.46144541 0.03153520
v -0.32363941 0.15784777 0.20392768
v -0.36016860 0.21353576 0.17500107
v -0.33009061 0.42394639 0.06118234
v -0.32806101 0.35974909 0.11184732
v -0.34414587 -0.49149124 0.00000000
v -0.34030656 -0.41322447 0.07157863
v -0.34290798 -0.45439681 0.02982223
v -0.34111004 0.28736452 0.14961499
v -0.34030993 -0.36578800 0.11077454
v -0.35267114 0.48541019 0.00000000
v -0.34794729 0.45016377 0.02422449
v -0.34548242 -0.31172422 0.14241060
v -0.34701275 0.05097557 0.21442756
v -0.33351490 0.00182532 0.21966010
v -0.34851681 0.39266524 0.07731021
v -0.35472205 -0.24375463 0.16841540
v -0.36196864 -0.18115355 0.18633048
v -0.32845629 -0.16770950 0.19702634
v -0.36719317 0.33105131 0.11311736
v -0.39124616 0.13216989 0.18653571
v -0.36887738 0.08935233 0.20370077
v -0.40147836 -0.44588690 0.00000000
v -0.43084323 0.36874128 0.02691355
v -0.39173802 0.38162736 0.05265738
v -0.38111175 -0.11953930 0.19316469
v -0.39470049 -0.07233401 0.19577720
v -0.40131384 0.26293071 0.13347617
v -0.40921067 -0.35906828 0.09184188
v -0.40910238 -0.40823841 0.05244005
v -0.40846535 -0.30934023 0.12170561
v -0.52477185 0.29088577 0.00000000
v -0.48299966 0.28425198 0.05134540
v -0.44565760 0.27581946 0.09319492
v -0.43881223 0.40919901 0.00000000
v -0.39478717 0.40156429 0.02944306
v -0.43390897 -0.19002238 0.15433093
v -0.42440998 -0.23850292 0.14344908
v -0.39879147 0.03813211 0.19656653
v -0.44306858 0.02390703 0.17447252
v -0.42139965 -0.02314851 0.18690224
v -0.41865754 0.15932881 0.16428287
v -0.44528048 0.18794983 0.13806347
v -0.40796829 0.20181667 0.15614327
v -0.48541019 0.35267114 0.00000000
v -0.44597395 0.34775112 0.03326817
v -0.41307091 0.34405891 0.07095035
v -0.45282574 -0.39363541 0.00000000
v -0.47691842 -0.28502950 0.08819581
v -0.47190834 -0.35552241 0.04775044
v -0.49726751 0.20605913 0.08550168
v -0.46021648 -0.12808673 0.15393094
v -0.47582581 -0.08173063 0.14911115
v -0.43538260 -0.07623835 0.17600980
v -0.51581849 0.23923538 0.04514032
v -0.46763479 0.25249674 0.08877086
v -0.49742255 -0.33551575 0.00000000
v -0.50186083 0.10023557 0.11917738
v -0.47616538 0.06468730 0.14769242
v -0.45183963 0.11609612 0.15565802
v -0.50734976 -0.17745618 0.10287812
v -0.49433404 -0.22716410 0.09720991
v -0.46571823 -0.18529998 0.13531078
v -0.53978801 0.16835022 0.05418580
v -0.50069699 0.17826450 0.09418481
v -0.52431392 -0.24872890 0.04808263
v -0.51270184 -0.29941657 0.02652877
v -0.53254815 0.12053862 0.08080253
v -0.53151124 0.01161534 0.10284652
v -0.49281163 0.01768830 0.13921784
v -0.50656491 -0.03396027 0.12791103
v -0.55380230 0.09287053 0.06266036
v -0.53460394 -0.27239429 0.00000000
v -0.53109833 -0.12753669 0.09136305
v -0.55079203 -0.07691393 0.07666905
v -0.51278530 -0.07931568 0.11849929
v -0.56852696 0.05085456 0.05131819
v -0.59416083 0.08350386 0.00000000
v -0.55707160 -0.15529219 0.04623597
v -0.56381555 -0.20521208 0.00000000
v -0.55363110 -0.21479024 0.01700156
v -0.58462201 -0.13497063 0.00000000
v -0.55631030 0.22476396 0.00000000
v -0.52999858 0.21718863 0.04083847
v -0.57955548 0.15529143 0.00000000
v -0.55871273 0.13960228 0.03990639
v -0.59671313 -0.06271708 0.00000000
v -0.57722013 -0.06911594 0.03703080
v -0.59990863 0.01047144 0.00000000
v -0.56986406 0.01170453 0.05319229
v -0.48264756 0.30389082 0.03380185
v -0.44098715 0.31825504 0.06751097
v -0.40555576 0.32557091 0.09011589
v 0.03377302 -0.19161209 0.16132313
v 0.02300858 -0.35422861 0.11202891
v 0.03939995 -0.06587988 0.18030858
v 0.03681546 -0.12846739 0.17305648
v 0.05189018 -0.01105515 0.18783951
v 0.02988526 -0.24955258 0.14656429
v 0.04805048 -0.57207512 0.01559586
v 0.02700577 -0.30644238 0.12943036
v 0.05928068 -0.53190344 0.03981445
v 0.04715978 -0.42829035 0.08878581
v 0.07881121 -0.31221882 0.14186090
v 0.07198306 -0.48870279 0.06376394
v 0.09132175 -0.26311774 0.16101235
v 0.08401156 -0.44414326 0.08724509
v 0.10785624 -0.15345205 0.19217620
v 0.10146700 -0.20899046 0.17852954
v 0.11305728 -0.10285302 0.20121370
v 0.09980505 -0.38673173 0.11584374
v 0.14515314 -0.58217743 0.00000000
v 0.15173888 -0.50979525 0.04562423
v 0.16013200 -0.45574576 0.08032601
v 0.16684210 -0.40220698 0.11115222
v 0.17375651 -0.34809004 0.13845894
v 0.17874049 -0.29184972 0.16295095
v 0.38567258 0.45962668 0.00000000
v 0.40742144 0.30027298 0.10192070
v 0.44391018 0.22341106 0.11923467
v 0.57861124 -0.03249730 0.03902685
v 0.11481705 -0.33581482 0.13917216
v 0.02449076 0.12477889 0.16651965
v 0.32367423 -0.21654948 0.18348823
v 0.11599578 -0.55984196 0.01570413
v 0.42179824 0.07915573 0.17844267
v 0.38237617 -0.26739596 0.14954841
v 0.37452499 -0.42484967 0.04263278
v 0.12807696 0.05249985 0.20956661
v 0.16784479 -0.54932209 0.01270244
v 0.52886758 -0.20432257 0.06485720
v 0.03449654 0.22822251 0.15297106
v 0.09411531 0.10047787 0.19579223
v 0.52239189 0.05695217 0.10507071
v 0.54339833 -0.03325352 0.08805230
v 0.16324706 0.14520454 0.20485731
v 0.48528701 0.13923545 0.11982721
v 0.46233507 -0.02975454 0.16062724
v 0.34461263 -0.12624308 0.20142412
v 0.41583590 -0.14053147 0.17348639
v 0.36628185 0.36276072 0.08444042
v 0.37380555 -0.38837405 0.08167879
v 0.37418871 -0.34976766 0.11041270
v 0.45601502 -0.25048107 0.11827960
v 0.26379586 -0.20047164 0.19549495
v 0.28193119 -0.06355322 0.22243634
v 0.36869718 -0.00878241 0.20739028
v 0.31478946 0.20026517 0.19017308
v 0.31651444 -0.26281675 0.16863137
v 0.27300167 -0.10256528 0.21780422
v 0.38934058 -0.22457557 0.16231960
v 0.56959925 -0.10817488 0.04111682
v 0.37715126 0.17496676 0.17767600
v 0.55516557 0.18947697 0.01971566
v 0.30878356 -0.33414987 0.13623654
v 0.30859889 0.04203639 0.22148244
v 0.04185389 0.59853845 0.00000000
v 0.01554626 -0.51128224 0.04577345
v 0.00755509 -0.56361243 0.01909040
v 0.02209508 -0.54970621 0.02859191
v 0.02444290 -0.45914157 0.07089381
v 0.03227451 -0.40182201 0.09663837
v 0.04044448 -0.50052860 0.05513057
v 0.03499551 0.41418525 0.09301691
v 0.03473019 0.34287769 0.11908525
v 0.04592650 -0.34623364 0.12212093
v 0.03664473 0.47658958 0.06639694
v 0.03817531 0.52754595 0.04111186
v 0.03991275 0.56716458 0.01901559
v 0.08350386 0.59416083 0.00000000
v 0.03901247 0.26827861 0.14397071
v 0.04332657 0.17988381 0.16655871
v 0.05502025 -0.28581490 0.14490072
v 0.02687310 0.03598079 0.17466617
v 0.05508397 0.08626843 0.18459385
v 0.04832344 0.13080245 0.17659931
v 0.05816682 -0.45363503 0.07961277
v 0.06313835 -0.22817424 0.16362568
v 0.07312160 -0.59552771 0.00000000
v 0.07092965 -0.17110536 0.17882614
v 0.07751250 0.50646716 0.05378479
v 0.07707489 0.44523915 0.08499634
v 0.07735287 0.55816895 0.02388346
v 0.12474702 0.58688855 0.00000000
v 0.07734384 0.37709896 0.11513673
v 0.07654378 -0.40463180 0.10507947
v 0.08200845 0.30790976 0.14259861
v 0.07959844 -0.11320686 0.19086404
v 0.08836678 -0.51994636 0.04600101
v 0.08070997 -0.55883822 0.02171753
v 0.09195832 0.23705700 0.16753518
v 0.09703514 -0.47446299 0.07227612
v 0.09744221 -0.35458994 0.12939596
v 0.09045784 -0.05499700 0.19985516
v 0.10390299 0.00463841 0.20523947
v 0.07878996 0.04652587 0.19629079
v 0.10652950 -0.42045555 0.10092209
v 0.10466989 0.16966871 0.18754330
v 0.11752805 -0.36763666 0.12633741
v 0.11500915 0.54921950 0.02856115
v 0.11860812 0.48754355 0.06604491
v 0.12076349 0.42102874 0.10117806
v 0.12790104 -0.31369897 0.14971103
v 0.12530307 0.35479424 0.13205914
v 0.13784839 -0.24843038 0.17413329
v 0.11669595 -0.30327777 0.15207240
v 0.13470664 0.29341544 0.15786734
v 0.13874846 0.10817512 0.20621372
v 0.14092910 -0.18914623 0.19133647
v 0.14434795 -0.12895921 0.20445451
v 0.14867149 -0.06774495 0.21336064
v 0.12490428 -0.03041498 0.20987081
v 0.14810596 0.24029777 0.17822520
v 0.16538242 0.57675702 0.00000000
v 0.15642540 0.52902835 0.03690903
v 0.16008591 0.46819840 0.07592296
v 0.16499013 0.40497638 0.11122762
v 0.17679100 -0.24244079 0.18073461
v 0.17666624 0.05430415 0.21951989
v 0.16290586 -0.00130950 0.21916502
v 0.17467965 0.19245577 0.19644207
v 0.17382756 0.34613971 0.14044116
v 0.19245876 -0.09979293 0.21667305
v 0.18503958 -0.16732769 0.20299763
v 0.18843975 0.29757762 0.16259436
v 0.20521208 0.56381555 0.00000000
v 0.19967568 0.50990463 0.04175959
v 0.20682032 0.14813225 0.21096183
v 0.18938680 0.09722634 0.21728703
v 0.20366260 0.45201832 0.08077687
v 0.21502077 -0.56014825 0.00000000
v 0.21141099 -0.52253776 0.02076128
v 0.24409571 0.10828893 0.22067815
v 0.21618396 0.01657203 0.22713725
v 0.20375306 -0.04009643 0.22423500
v 0.21247542 -0.47788789 0.05620519
v 0.20900298 0.25930848 0.17905875
v 0.21443510 -0.42933957 0.09081004
v 0.21671777 -0.37813825 0.12218118
v 0.21155369 0.39463020 0.11471837
v 0.22350561 -0.26619457 0.17465305
v 0.21961875 -0.32493265 0.14963363
v 0.22794380 -0.21666710 0.19181839
v 0.22443594 0.34728287 0.13953490
v 0.23761133 -0.12891753 0.21456564
v 0.23324300 -0.17242181 0.20434052
v 0.24404199 0.54812726 0.00000000
v 0.23784943 0.21830304 0.19451996
v 0.24194972 0.49192513 0.04294761
v 0.24289640 0.31114317 0.15634161
v 0.24800427 0.43468846 0.08251093
v 0.25808973 -0.01562800 0.22828678
v 0.24653395 -0.07643647 0.22293292
v 0.25836136 0.38956765 0.11020569
v 0.27481260 0.35425258 0.12827676
v 0.28168292 -0.52976855 0.00000000
v 0.28168295 0.52976855 0.00000000
v 0.26935884 0.27413920 0.17071974
v 0.27906743 -0.48977000 0.02543057
v 0.27662868 -0.44580807 0.06419751
v 0.27591100 -0.40000487 0.10052778
v 0.27571361 -0.35300249 0.13110507
v 0.27828367 -0.30035354 0.15829467
v 0.27422594 0.18446189 0.20206608
v 0.26017196 0.14982570 0.21252033
v 0.29875717 0.32104707 0.14146152
v 0.28330673 0.46032721 0.05056862
v 0.28943659 -0.19854743 0.19400800
v 0.28360986 -0.24046046 0.18150584
v 0.28725661 0.08163039 0.22271299
v 0.27476910 0.03802055 0.22671480
v 0.29407561 -0.15320367 0.20612198
v 0.29047738 0.42393243 0.07565147
v 0.30282681 0.38979168 0.09625809
v 0.31795157 0.50882886 0.00000000
v 0.30488009 0.49041072 0.01765066
v 0.33816450 0.28673879 0.14711273
v 0.30596325 0.23962615 0.17849762
v 0.31771487 -0.03931024 0.22002337
v 0.30783473 -0.08887980 0.21635799
v 0.32032724 0.46086386 0.03069327
v 0.32714392 0.42260876 0.05883981
v 0.32131754 0.15785659 0.20212957
v 0.35758912 0.21331614 0.17284737
v 0.32479553 0.35867523 0.10910262
v 0.34414587 -0.49149124 0.00000000
v 0.34002686 -0.41295917 0.07131846
v 0.34281367 -0.45428528 0.02970339
v 0.33985589 -0.36543420 0.11042637
v 0.35267114 0.48541019 0.00000000
v 0.34685695 0.44980535 0.02379632
v 0.34486033 -0.31131130 0.14197645
v 0.34517758 0.05125779 0.21300868
v 0.33189996 0.00219731 0.21841845
v 0.34538297 0.39116861 0.07466460
v 0.39854161 0.26233753 0.13113680
v 0.35389333 -0.24329499 0.16785479
v 0.36093573 -0.18067965 0.18562154
v 0.32738945 -0.16725698 0.19630300
v 0.36405882 0.32997774 0.11041487
v 0.38903868 0.13223246 0.18476390
v 0.36687697 0.08956066 0.20210356
v 0.40147836 -0.44588690 0.00000000
v 0.48541019 0.35267114 0.00000000
v 0.43013946 0.36864761 0.02627734
v 0.38977418 0.38075757 0.05103135
v 0.39335514 -0.07188176 0.19477462
v 0.37988572 -0.11907818 0.19229707
v 0.40873807 -0.35871010 0.09159141
v 0.40879954 -0.40796561 0.05229043
v 0.40784037 -0.30891029 0.12132437
v 0.48142340 0.28373940 0.05004398
v 0.44326664 0.27514534 0.09121457
v 0.43881223 0.40919901 0.00000000
v 0.39383115 0.40133409 0.02875689
v 0.43294003 -0.18954910 0.15368897
v 0.42357826 -0.23803875 0.14292293
v 0.39702557 0.03843999 0.19520184
v 0.44140462 0.02420754 0.17325049
v 0.41988714 -0.02275789 0.18577662
v 0.41639157 0.15927149 0.16247031
v 0.44297906 0.18773113 0.13628961
v 0.40548835 0.20157914 0.15411363
v 0.44509476 0.34753484 0.03247594
v 0.41057609 0.34296215 0.06879858
v 0.45282574 -0.39363541 0.00000000
v 0.47631006 -0.28464700 0.08790145
v 0.47154806 -0.35523931 0.04765936
v 0.49544238 0.20577009 0.08415364
v 0.45907140 -0.12766044 0.15319611
v 0.47459985 -0.08134206 0.14830817
v 0.43406200 -0.07581487 0.17508677
v 0.55631030 0.22476396 0.00000000
v 0.51451826 0.23890218 0.04417300
v 0.46546007 0.25196573 0.08703547
v 0.49742255 -0.33551575 0.00000000
v 0.50021489 0.10029941 0.11804543
v 0.47446743 0.06487275 0.14647443
v 0.44985198 0.11616768 0.15414700
v 0.50651978 -0.17709637 0.10242002
v 0.49360251 -0.22678587 0.09681738
v 0.46477659 -0.18487058 0.13473877
v 0.57955548 0.15529143 0.00000000
v 0.53866537 0.16823095 0.05345184
v 0.49893018 0.17807960 0.09291739
v 0.52388675 -0.24849896 0.04790070
v 0.51244048 -0.29924744 0.02645611
v 0.52477185 0.29088577 0.00000000
v 0.53124878 0.12053206 0.07994296
v 0.53031971 0.01180311 0.10213200
v 0.49134486 0.01793935 0.13823041
v 0.50532055 -0.03366453 0.12712633
v 0.55281997 0.09289651 0.06206206
v 0.59416083 0.08350386 0.00000000
v 0.53460394 -0.27239429 0.00000000
v 0.53025298 -0.12724114 0.09090790
v 0.54998480 -0.07670022 0.07625173
v 0.51170384 -0.07899919 0.11785848
v 0.56779120 0.05091755 0.05091079
v 0.55660727 -0.15511264 0.04602200
v 0.58462201 -0.13497063 0.00000000
v 0.56381555 -0.20521208 0.00000000
v 0.55346411 -0.21470601 0.01692970
v 0.52891435 0.21695400 0.04008096
v 0.55794730 0.13955716 0.03943856
v 0.59671313 -0.06271708 0.00000000
v 0.57678449 -0.06900813 0.03682796
v 0.59990863 0.01047144 0.00000000
v 0.56917359 0.01180100 0.05282561
v 0.48165830 0.30361602 0.03293666
v 0.43872334 0.31733358 0.06559836
v 0.40284897 0.32455293 0.08782454
f 114 100 115
f 114 99 100
f 113 114 131
f 113 98 114
f 132 146 147
f 147 146 160
f 145 156 157
f 130 145 146
f 196 213 202
f 213 210 221
f 210 205 220
f 210 206 205
f 185 202 203
f 182 196 202
f 262 57 280
f 278 279 53
f 53 268 267
f 287 281 295
f 267 277 281
f 42 268 249
f 273 295 277
f 95 111 112
f 111 97 113
f 111 113 130
f 275 48 290
f 288 48 270
f 282 276 275
f 166 180 181
f 193 167 207
f 181 180 204
f 207 181 218
f 137 134 152
f 112 132 134
f 116 134 137
f 151 166 167
f 155 174 180
f 143 155 166
f 143 137 155
f 121 137 143
f 128 55 138
f 216 45 217
f 61 216 219
f 240 63 258
f 239 259 257
f 178 177 187
f 182 178 196
f 174 170 185
f 152 170 174
f 180 174 195
f 131 144 145
f 145 144 156
f 203 213 225
f 214 60 229
f 256 234 233
f 233 254 255
f 245 244 233
f 159 163 149
f 199 231 223
f 211 73 230
f 112 111 132
f 195 203 214
f 204 214 229
f 99 82 100
f 157 177 178
f 170 160 182
f 23 110 118
f 21 108 24
f 21 19 103
f 24 135 21
f 136 19 21
f 23 118 25
f 92 96 117
f 91 18 107
f 90 89 88
f 91 92 18
f 88 93 90
f 93 88 91
f 23 140 139
f 25 140 23
f 24 139 135
f 25 141 140
f 117 18 92
f 18 117 107
f 123 19 136
f 149 46 138
f 52 138 46
f 34 243 237
f 301 242 243
f 237 218 229
f 237 229 34
f 243 242 265
f 242 264 265
f 255 300 301
f 256 255 301
f 300 255 254
f 199 200 179
f 282 290 289
f 157 156 177
f 90 17 15
f 20 119 17
f 120 15 17
f 77 90 15
f 90 93 17
f 93 20 17
f 22 107 117
f 20 93 107
f 123 37 129
f 127 26 129
f 133 37 136
f 122 22 127
f 120 109 15
f 20 22 122
f 15 109 77
f 117 26 127
f 186 162 188
f 189 168 190
f 169 191 190
f 188 165 189
f 168 169 190
f 165 168 189
f 186 188 215
f 217 189 216
f 188 217 215
f 216 190 219
f 189 190 216
f 35 260 252
f 265 264 260
f 293 260 264
f 121 51 101
f 135 139 148
f 140 141 153
f 133 135 32
f 129 133 31
f 122 127 29
f 109 40 27
f 119 122 28
f 127 129 30
f 32 148 171
f 31 32 172
f 29 30 168
f 28 29 165
f 30 31 169
f 168 30 169
f 28 47 40
f 162 28 165
f 31 172 169
f 171 148 173
f 262 285 261
f 280 285 262
f 102 121 128
f 226 69 39
f 39 227 226
f 171 198 192
f 198 173 64
f 131 115 144
f 164 183 184
f 183 164 163
f 260 274 252
f 273 74 294
f 152 147 170
f 150 163 164
f 150 149 163
f 36 296 297
f 36 297 284
f 221 220 33
f 33 245 221
f 41 94 101
f 79 83 94
f 81 5 82
f 99 81 82
f 11 118 12
f 11 124 118
f 12 110 9
f 13 125 124
f 103 16 14
f 16 103 96
f 13 126 125
f 104 105 126
f 87 13 11
f 10 96 92
f 91 4 92
f 88 65 3
f 3 4 91
f 50 2 10
f 88 3 91
f 14 7 9
f 49 9 7
f 8 87 11
f 8 11 12
f 49 8 12
f 14 6 7
f 2 6 16
f 44 51 102
f 84 86 97
f 86 78 98
f 85 38 1
f 87 1 104
f 83 84 95
f 98 99 114
f 131 114 115
f 97 98 113
f 134 132 147
f 146 157 160
f 146 145 157
f 132 130 146
f 203 202 213
f 210 220 221
f 213 196 210
f 195 185 203
f 185 182 202
f 58 236 235
f 42 231 230
f 269 252 56
f 94 112 116
f 94 95 112
f 95 97 111
f 113 131 130
f 48 271 270
f 282 275 290
f 167 166 181
f 167 181 207
f 180 195 204
f 181 204 218
f 134 147 152
f 116 112 134
f 121 116 137
f 166 155 180
f 151 143 166
f 137 152 155
f 128 121 143
f 128 143 151
f 222 43 240
f 227 71 226
f 45 239 232
f 239 61 238
f 238 258 259
f 187 196 178
f 170 182 185
f 155 152 174
f 174 185 195
f 130 131 145
f 283 72 288
f 214 203 225
f 213 221 245
f 159 138 55
f 231 211 230
f 111 130 132
f 204 195 214
f 218 204 229
f 160 157 178
f 160 178 182
f 24 108 110
f 21 103 108
f 110 23 24
f 96 103 19
f 123 96 19
f 107 93 91
f 123 117 96
f 46 150 125
f 138 52 128
f 163 200 183
f 127 22 117
f 22 20 107
f 26 117 123
f 129 26 123
f 119 20 122
f 161 162 186
f 192 172 171
f 162 165 188
f 219 75 222
f 101 116 121
f 154 140 153
f 32 135 148
f 31 133 32
f 29 127 30
f 28 40 119
f 28 122 29
f 30 129 31
f 165 29 168
f 27 47 161
f 173 154 176
f 270 261 283
f 198 197 39
f 39 197 228
f 147 160 170
f 141 164 153
f 83 95 94
f 78 81 99
f 13 124 11
f 108 9 110
f 108 14 9
f 12 9 49
f 50 92 4
f 10 16 96
f 14 16 6
f 12 118 110
f 14 108 103
f 16 10 2
f 13 87 104
f 51 80 101
f 97 86 98
f 98 78 99
f 95 84 97
f 286 53 281
f 277 56 274
f 285 54 284
f 299 36 54
f 60 214 225
f 256 233 255
f 223 67 224
f 37 133 129
f 133 136 135
f 38 105 1
f 38 85 102
f 153 184 175
f 124 25 118
f 265 260 35
f 192 69 222
f 172 192 191
f 172 32 171
f 40 120 119
f 47 28 162
f 217 232 215
f 217 188 189
f 296 291 72
f 271 275 258
f 253 35 252
f 245 33 244
f 175 154 153
f 46 149 150
f 259 266 257
f 259 239 238
f 41 101 80
f 59 261 246
f 269 268 42
f 104 1 105
f 256 302 229
f 120 40 109
f 120 17 119
f 191 219 190
f 191 169 172
f 43 247 240
f 283 288 270
f 283 285 284
f 295 281 277
f 294 287 295
f 233 244 254
f 136 37 123
f 136 21 135
f 44 102 85
f 154 173 148
f 154 139 140
f 259 258 276
f 45 216 61
f 45 232 217
f 201 70 209
f 198 171 173
f 290 291 289
f 138 159 149
f 286 299 278
f 298 286 287
f 245 234 225
f 209 236 58
f 293 273 260
f 57 249 279
f 52 126 105
f 198 39 69
f 198 64 197
f 47 27 40
f 47 162 161
f 286 281 287
f 48 275 271
f 48 288 290
f 300 242 301
f 300 254 241
f 158 55 151
f 50 10 92
f 226 43 222
f 272 247 246
f 269 251 252
f 24 23 139
f 239 257 232
f 183 224 208
f 51 44 80
f 51 121 102
f 218 212 207
f 58 201 209
f 150 164 141
f 280 279 278
f 67 223 248
f 248 42 249
f 267 269 56
f 274 260 273
f 241 264 242
f 300 241 242
f 104 126 13
f 126 46 125
f 245 225 213
f 299 298 36
f 36 298 296
f 72 283 284
f 268 279 249
f 268 269 267
f 224 76 223
f 52 46 126
f 128 106 102
f 61 239 45
f 53 267 281
f 53 286 278
f 184 153 164
f 246 227 59
f 42 248 231
f 54 36 284
f 54 280 278
f 55 128 151
f 240 62 222
f 53 279 268
f 67 236 208
f 285 280 54
f 251 253 252
f 277 274 273
f 56 277 267
f 263 235 236
f 209 66 208
f 247 71 246
f 286 298 299
f 56 252 274
f 250 263 236
f 57 279 280
f 269 42 230
f 193 68 211
f 63 272 271
f 206 210 196
f 205 206 187
f 299 54 278
f 25 124 141
f 256 60 234
f 234 245 233
f 212 68 207
f 201 64 176
f 106 128 52
f 293 264 292
f 59 227 235
f 59 263 261
f 60 225 234
f 60 256 229
f 193 194 167
f 237 253 212
f 71 43 226
f 201 197 64
f 219 62 61
f 62 238 61
f 251 269 230
f 124 142 141
f 261 272 246
f 158 194 179
f 167 158 151
f 179 200 163
f 241 292 264
f 58 228 201
f 243 34 301
f 62 219 222
f 62 240 238
f 263 59 235
f 262 261 263
f 295 273 294
f 183 66 184
f 63 240 247
f 63 271 258
f 57 250 249
f 250 248 249
f 184 70 175
f 263 57 262
f 211 194 193
f 199 76 200
f 201 176 175
f 250 57 263
f 236 67 250
f 179 159 158
f 261 285 283
f 261 270 272
f 224 183 200
f 236 209 208
f 272 63 247
f 270 271 272
f 39 228 227
f 227 58 235
f 237 212 218
f 176 64 173
f 176 154 175
f 179 194 199
f 199 211 231
f 163 159 179
f 159 55 158
f 253 73 212
f 251 230 73
f 237 265 35
f 253 237 35
f 259 276 266
f 38 106 105
f 296 72 297
f 199 194 211
f 150 142 125
f 228 197 201
f 228 58 227
f 292 74 293
f 66 183 208
f 66 209 70
f 34 302 301
f 65 89 77
f 192 75 191
f 67 248 250
f 67 208 224
f 187 206 196
f 231 248 223
f 240 258 238
f 68 212 211
f 68 193 207
f 288 291 290
f 69 226 222
f 69 192 198
f 70 201 175
f 70 184 66
f 148 139 154
f 94 41 79
f 116 101 94
f 243 265 237
f 167 194 158
f 276 282 266
f 276 258 275
f 71 247 43
f 71 227 246
f 106 38 102
f 106 52 105
f 72 291 288
f 72 284 297
f 73 211 212
f 73 253 251
f 142 124 125
f 142 150 141
f 89 90 77
f 89 65 88
f 74 273 293
f 74 292 294
f 302 34 229
f 302 256 301
f 75 192 222
f 75 219 191
f 76 199 223
f 76 224 200
f 392 393 379
f 392 379 378
f 390 409 392
f 390 392 377
f 411 426 425
f 426 439 425
f 424 436 435
f 410 425 424
f 476 482 491
f 491 500 490
f 490 499 484
f 490 484 485
f 463 483 482
f 460 482 476
f 540 561 347
f 559 343 560
f 343 546 547
f 563 574 562
f 546 562 558
f 335 528 547
f 553 558 574
f 373 394 391
f 391 390 376
f 391 410 390
f 555 572 340
f 569 549 340
f 564 555 556
f 446 467 459
f 473 487 457
f 467 475 459
f 487 486 467
f 416 431 413
f 394 413 411
f 396 416 413
f 430 457 446
f 434 459 453
f 422 446 434
f 422 434 416
f 400 422 416
f 407 417 345
f 496 497 337
f 351 498 496
f 520 536 353
f 519 535 537
f 458 466 456
f 460 476 458
f 453 463 449
f 431 453 449
f 459 464 453
f 409 424 423
f 424 435 423
f 483 504 491
f 494 509 350
f 534 514 515
f 514 533 513
f 524 514 523
f 438 428 443
f 479 502 511
f 492 510 362
f 394 411 391
f 464 494 483
f 475 509 494
f 378 379 366
f 436 458 456
f 449 460 439
f 317 397 389
f 315 318 387
f 315 382 313
f 318 315 414
f 415 315 313
f 317 319 397
f 371 395 375
f 370 386 312
f 369 367 368
f 370 312 371
f 367 369 372
f 372 370 367
f 317 418 419
f 319 317 419
f 318 414 418
f 319 419 420
f 395 371 312
f 312 386 395
f 402 415 313
f 428 417 338
f 342 338 417
f 328 505 522
f 580 522 521
f 505 509 486
f 505 328 509
f 522 544 521
f 521 544 543
f 533 580 579
f 534 580 533
f 579 513 533
f 479 442 480
f 564 571 572
f 436 456 435
f 369 309 311
f 314 311 398
f 399 311 309
f 77 309 369
f 369 311 372
f 372 311 314
f 316 395 386
f 314 386 372
f 402 408 331
f 406 408 320
f 412 415 331
f 401 406 316
f 399 309 388
f 314 401 316
f 309 77 388
f 395 406 320
f 465 468 441
f 469 470 447
f 448 470 471
f 468 469 445
f 447 470 448
f 445 469 447
f 465 495 468
f 497 496 469
f 468 495 497
f 496 498 470
f 469 496 470
f 329 531 538
f 544 538 543
f 573 543 538
f 400 380 341
f 414 427 418
f 419 432 420
f 412 326 414
f 408 325 412
f 401 323 406
f 388 321 334
f 398 322 401
f 406 324 408
f 326 450 427
f 325 451 326
f 323 447 324
f 322 445 323
f 324 448 325
f 447 448 324
f 322 334 339
f 441 445 322
f 325 448 451
f 450 452 427
f 540 539 567
f 561 540 567
f 381 407 400
f 506 333 358
f 333 506 507
f 450 472 478
f 478 354 452
f 409 423 393
f 444 462 461
f 461 443 444
f 538 531 554
f 553 552 363
f 431 449 426
f 429 444 443
f 429 443 428
f 330 576 575
f 330 566 576
f 500 327 499
f 327 500 524
f 41 380 374
f 79 374 83
f 81 366 5
f 378 366 81
f 305 306 397
f 305 397 403
f 306 303 389
f 307 403 404
f 382 308 310
f 310 375 382
f 307 404 405
f 383 405 384
f 87 305 307
f 304 371 375
f 370 371 4
f 367 3 65
f 3 370 4
f 50 304 2
f 367 370 3
f 308 303 7
f 49 7 303
f 8 305 87
f 8 306 305
f 49 306 8
f 308 7 6
f 2 310 6
f 44 381 341
f 84 376 86
f 86 377 78
f 85 1 332
f 87 383 1
f 83 373 84
f 377 392 378
f 409 393 392
f 376 390 377
f 413 426 411
f 425 439 436
f 425 436 424
f 411 425 410
f 483 491 482
f 490 500 499
f 491 490 476
f 464 483 463
f 463 482 460
f 348 517 516
f 335 510 511
f 548 346 531
f 374 396 394
f 374 394 373
f 373 391 376
f 390 410 409
f 340 549 550
f 564 572 555
f 457 467 446
f 457 487 467
f 459 475 464
f 467 486 475
f 413 431 426
f 396 413 394
f 400 416 396
f 446 459 434
f 430 446 422
f 416 434 431
f 407 422 400
f 407 430 422
f 501 520 336
f 507 506 360
f 337 512 519
f 519 518 351
f 518 537 536
f 466 458 476
f 449 463 460
f 434 453 431
f 453 464 463
f 410 424 409
f 565 569 361
f 494 504 483
f 491 524 500
f 438 345 417
f 511 510 492
f 391 411 410
f 475 494 464
f 486 509 475
f 439 458 436
f 439 460 458
f 318 389 387
f 315 387 382
f 389 318 317
f 375 313 382
f 402 313 375
f 386 370 372
f 402 375 395
f 338 404 429
f 417 407 342
f 443 461 480
f 406 395 316
f 316 386 314
f 320 402 395
f 408 402 320
f 398 401 314
f 440 465 441
f 472 450 451
f 441 468 445
f 498 501 364
f 380 400 396
f 433 432 419
f 326 427 414
f 325 326 412
f 323 324 406
f 322 398 334
f 322 323 401
f 324 325 408
f 445 447 323
f 321 440 339
f 452 455 433
f 549 565 539
f 478 333 477
f 333 508 477
f 426 449 439
f 420 432 444
f 83 374 373
f 78 378 81
f 307 305 403
f 387 389 303
f 387 303 308
f 306 49 303
f 50 4 371
f 304 375 310
f 308 6 310
f 306 389 397
f 308 382 387
f 310 2 304
f 307 383 87
f 341 380 80
f 376 377 86
f 377 378 78
f 373 376 84
f 568 562 343
f 558 554 346
f 567 566 344
f 578 344 330
f 350 504 494
f 534 533 514
f 502 503 356
f 331 408 412
f 412 414 415
f 332 1 384
f 332 381 85
f 432 454 462
f 403 397 319
f 544 329 538
f 472 501 358
f 451 471 472
f 451 450 326
f 334 398 399
f 339 441 322
f 497 495 512
f 497 469 468
f 575 361 570
f 550 536 555
f 532 531 329
f 524 523 327
f 454 432 433
f 338 429 428
f 537 535 545
f 537 518 519
f 41 80 380
f 349 525 539
f 548 335 547
f 383 384 1
f 534 509 581
f 399 388 334
f 399 398 311
f 471 470 498
f 471 451 448
f 336 520 526
f 565 549 569
f 565 566 567
f 574 558 562
f 552 574 563
f 514 513 523
f 415 402 331
f 415 414 315
f 44 85 381
f 433 427 452
f 433 419 418
f 537 556 536
f 337 351 496
f 337 497 512
f 481 489 359
f 478 452 450
f 572 571 570
f 417 428 438
f 568 559 578
f 577 563 568
f 524 504 515
f 489 348 516
f 573 538 553
f 347 560 528
f 342 384 405
f 478 358 333
f 478 477 354
f 339 334 321
f 339 440 441
f 568 563 562
f 340 550 555
f 340 572 569
f 579 580 521
f 579 557 513
f 437 430 345
f 50 371 304
f 506 501 336
f 551 525 526
f 548 531 530
f 318 418 317
f 519 512 535
f 461 488 503
f 341 80 44
f 341 381 400
f 486 487 493
f 348 489 481
f 429 420 444
f 561 559 560
f 356 527 502
f 527 528 335
f 546 346 548
f 554 553 538
f 557 521 543
f 579 521 557
f 383 307 405
f 405 404 338
f 524 491 504
f 578 330 577
f 330 575 577
f 361 566 565
f 547 528 560
f 547 546 548
f 503 502 365
f 342 405 338
f 407 381 385
f 351 337 519
f 343 562 546
f 343 559 568
f 462 444 432
f 525 349 507
f 335 511 527
f 344 566 330
f 344 559 561
f 345 430 407
f 520 501 352
f 343 547 560
f 356 488 516
f 567 344 561
f 530 531 532
f 558 553 554
f 346 546 558
f 541 516 517
f 489 488 355
f 526 525 360
f 568 578 577
f 346 554 531
f 529 516 541
f 347 561 560
f 548 510 335
f 473 492 357
f 353 550 551
f 485 476 490
f 484 466 485
f 578 559 344
f 319 420 403
f 534 515 350
f 515 514 524
f 493 487 357
f 481 455 354
f 385 342 407
f 573 542 543
f 349 517 507
f 349 539 541
f 350 515 504
f 350 509 534
f 473 457 474
f 505 493 532
f 360 506 336
f 481 354 477
f 498 351 352
f 352 351 518
f 530 510 548
f 403 420 421
f 539 525 551
f 437 442 474
f 457 430 437
f 442 443 480
f 557 543 542
f 348 481 508
f 522 580 328
f 352 501 498
f 352 518 520
f 541 517 349
f 540 541 539
f 574 552 553
f 461 462 355
f 353 526 520
f 353 536 550
f 347 528 529
f 529 528 527
f 462 454 359
f 541 540 347
f 492 473 474
f 479 480 365
f 481 454 455
f 529 541 347
f 516 529 356
f 442 437 438
f 539 565 567
f 539 551 549
f 503 480 461
f 516 488 489
f 551 526 353
f 549 551 550
f 333 507 508
f 507 517 348
f 505 486 493
f 455 452 354
f 455 454 433
f 442 479 474
f 479 511 492
f 443 442 438
f 438 437 345
f 532 493 362
f 530 362 510
f 505 329 544
f 532 329 505
f 537 545 556
f 332 384 385
f 575 576 361
f 479 492 474
f 429 404 421
f 508 481 477
f 508 507 348
f 542 573 363
f 355 488 461
f 355 359 489
f 328 580 581
f 65 77 368
f 472 471 364
f 356 529 527
f 356 503 488
f 466 476 485
f 511 502 527
f 520 518 536
f 357 492 493
f 357 487 473
f 569 572 570
f 358 501 506
f 358 478 472
f 359 454 481
f 359 355 462
f 427 433 418
f 374 79 41
f 396 374 380
f 522 505 544
f 457 437 474
f 556 545 564
f 556 555 536
f 360 336 526
f 360 525 507
f 385 381 332
f 385 384 342
f 361 569 570
f 361 576 566
f 362 493 492
f 362 530 532
f 421 404 403
f 421 420 429
f 368 77 369
f 368 367 65
f 363 573 553
f 363 552 542
f 581 509 328
f 581 580 534
f 364 501 472
f 364 471 498
f 365 502 479
f 365 480 503
