# 2-part smooth — best-fit FEM result (phase 2)
# interior RMSE     12.9902 mm  over 521 vertices
# max interior dev  40.5613 mm
# crown             0.240526 m (target 0.256782 m)
# max disp from rest 40.5613 mm (floor 5.0000 mm, at_floor=False)
# pressure 1000.0 Pa   motif 1   cable_ea 157000.0
# knit direction fixed from the directional field, not optimised
# params: /home/chaoyu/phd_simulation/FDM/optimisation/2part_p2_result.json
v -0.00008878 0.06779958 0.14629085
v 0.00004013 -0.31348441 0.09863967
v -0.00134183 -0.46978808 0.05340990
v 0.00020053 -0.41761174 0.07075068
v 0.00000000 0.60000000 0.00000000
v -0.00015606 -0.25858797 0.11055399
v -0.00015248 -0.20102688 0.12110502
v -0.00010199 -0.06734099 0.13972017
v -0.03954660 -0.17311696 0.13568320
v -0.02667957 -0.34095203 0.09334434
v -0.04737201 -0.05030913 0.15536434
v -0.04395399 -0.10957271 0.14764926
v -0.05165311 -0.00382599 0.15967068
v -0.03489622 -0.23252768 0.12130895
v -0.04945299 -0.56571492 0.01512090
v -0.03443851 -0.29121705 0.10531692
v -0.06482090 -0.51579209 0.03416916
v -0.05186502 -0.41152424 0.07303179
v -0.08186619 -0.30015462 0.12615260
v -0.07828374 -0.47262826 0.05192885
v -0.09271239 -0.25029677 0.14993549
v -0.08969308 -0.42742161 0.06745814
v -0.10958967 -0.13689039 0.18184631
v -0.10253529 -0.19487072 0.16914834
v -0.11593053 -0.08273940 0.18856721
v -0.10281521 -0.37173178 0.09555915
v -0.14515314 -0.58217743 0.00000000
v -0.17634461 -0.49964202 0.03041980
v -0.16731223 -0.43666782 0.05774618
v -0.17023979 -0.39173548 0.09835319
v -0.17588747 -0.34300880 0.13282251
v -0.17965018 -0.28903565 0.16218893
v -0.38567258 0.45962668 0.00000000
v -0.42301731 0.29363226 0.11536955
v -0.45752756 0.21703761 0.12990515
v -0.57685516 -0.03520126 0.03803796
v -0.11702586 -0.32469601 0.12745396
v -0.02468122 0.11989516 0.15589397
v -0.33147422 -0.22889768 0.18824076
v -0.12463948 -0.55193395 0.02082438
v -0.00000220 0.27033905 0.12125755
v -0.43408540 0.07257458 0.19085753
v -0.39601252 -0.27000166 0.14876512
v -0.00001929 0.18514998 0.13540753
v -0.37851244 -0.42657065 0.04178031
v -0.12838285 0.05249831 0.20569058
v -0.17610212 -0.54780154 0.02134510
v -0.52909339 -0.20555365 0.06085722
v -0.00012549 -0.13534902 0.13142763
v 0.00062710 -0.36453568 0.08593671
v -0.04001986 0.20961357 0.14034951
v -0.09690001 0.09641793 0.17643505
v -0.52946086 0.05263354 0.10893291
v -0.54715233 -0.03741520 0.08904202
v -0.16492133 0.13909972 0.20533579
v -0.49582932 0.13526845 0.12694069
v -0.47258122 -0.03573647 0.16732029
v -0.35533821 -0.13159381 0.21053627
v -0.42776276 -0.14411261 0.17723019
v -0.38223158 0.35803280 0.10242039
v -0.38194122 -0.38876898 0.07802121
v -0.38554384 -0.35070097 0.10685408
v -0.46211089 -0.25245269 0.11335298
v -0.26728407 -0.20813041 0.20225055
v -0.00160907 -0.53758851 0.02727732
v -0.28775770 -0.06700208 0.23415883
v -0.38047654 -0.01456152 0.22021207
v -0.32569116 0.19408717 0.20643935
v -0.32467242 -0.27351408 0.17226385
v -0.27764269 -0.10678775 0.22783909
v -0.40303841 -0.22775309 0.16297853
v -0.56763045 -0.10901808 0.03856492
v -0.39036155 0.16694102 0.19362881
v -0.55400480 0.19195713 0.02004303
v -0.31704136 -0.34082096 0.13719412
v -0.31699739 0.03653258 0.23631160
v 0.00000000 -0.60000000 0.00000000
v -0.00010906 0.56153916 0.03021666
v -0.00001546 0.32436895 0.10947950
v -0.00000989 0.22764891 0.12929518
v -0.00016922 0.59083650 0.00887202
v -0.04185389 0.59853845 0.00000000
v -0.00004437 0.40067047 0.08928669
v -0.00005795 0.46244439 0.06796568
v -0.00002593 0.13677743 0.14046086
v -0.00007786 0.51718100 0.04861382
v -0.00009904 -0.01254654 0.14374132
v -0.01828599 -0.49648514 0.04337265
v -0.01057731 -0.55350444 0.01996130
v -0.02600613 -0.53763684 0.02637917
v -0.02576552 -0.44310021 0.06239304
v -0.03796900 -0.38388142 0.08085895
v -0.04516365 -0.48366380 0.04761411
v -0.03748290 0.34713181 0.10406817
v -0.03987397 0.40830016 0.08329251
v -0.05420727 -0.33404891 0.09526458
v -0.04076285 0.46953250 0.05921088
v -0.04089801 0.52249054 0.03612856
v -0.04118610 0.56594122 0.01580257
v -0.08350386 0.59416083 0.00000000
v -0.04249836 0.23965213 0.13492124
v -0.04636512 0.16849491 0.14890526
v -0.05944133 -0.27107512 0.12462723
v -0.03706493 0.03829338 0.15614141
v -0.05630186 0.08427764 0.16093281
v -0.05133670 0.12333563 0.15612257
v -0.06371179 -0.43714388 0.06524416
v -0.06542354 -0.21218439 0.14634945
v -0.07312160 -0.59552771 0.00000000
v -0.07389872 -0.15325761 0.16262168
v -0.08427063 0.43467102 0.07994727
v -0.08370829 0.36748758 0.10694409
v -0.08440213 0.49528463 0.05182289
v -0.08397480 0.54815024 0.02480633
v -0.12474702 0.58688855 0.00000000
v -0.08482143 0.29085003 0.13313276
v -0.08055367 -0.38657964 0.08012428
v -0.08488727 -0.09142191 0.17429650
v -0.09161581 -0.50663565 0.03626837
v -0.08460550 -0.55174627 0.02147316
v -0.09690114 0.22055871 0.15553637
v -0.10353853 -0.45874081 0.05556675
v -0.10129344 -0.34319622 0.11409160
v -0.09694862 -0.02295212 0.18174747
v -0.10198185 0.00954131 0.18474826
v -0.08997383 0.05046435 0.17639084
v -0.10876165 -0.40161923 0.07471661
v -0.10548090 0.15963196 0.17140525
v -0.11900888 -0.35434925 0.11095080
v -0.12728454 0.47649431 0.07444279
v -0.12736073 0.53536907 0.03811724
v -0.12758602 0.41054457 0.10642179
v -0.12846057 -0.30294474 0.14185077
v -0.12930515 0.34163934 0.13401674
v -0.13807714 -0.23877497 0.17052615
v -0.11911613 -0.29361244 0.14340751
v -0.13743842 0.27851085 0.15958626
v -0.13964108 0.10419890 0.20100216
v -0.14026733 -0.17824752 0.18757357
v -0.14403943 -0.11638751 0.19916317
v -0.14868682 -0.05836371 0.20997503
v -0.12539118 -0.01867974 0.20245031
v -0.15171875 0.22724846 0.18096086
v -0.16538242 0.57675702 0.00000000
v -0.16918274 0.52203192 0.04903075
v -0.17094327 0.45963790 0.08951161
v -0.17365457 0.39411042 0.12290815
v -0.17629765 -0.23959364 0.18146534
v -0.17771793 0.05311947 0.22421959
v -0.16400768 0.00232952 0.21538555
v -0.17765508 0.18243596 0.20056200
v -0.18041303 0.33346154 0.15072667
v -0.19240078 -0.09547857 0.22019460
v -0.18370521 -0.16216628 0.20511274
v -0.19446178 0.28509845 0.17344086
v -0.20521208 0.56381555 0.00000000
v -0.21119804 0.50780115 0.05473205
v -0.21054138 0.14181138 0.21939074
v -0.19173327 0.09395306 0.22325526
v -0.21576886 0.44589701 0.09739098
v -0.21502077 -0.56014825 0.00000000
v -0.21738402 -0.51478253 0.01872890
v -0.21869752 0.01399064 0.23583242
v -0.20553098 -0.03849220 0.22871510
v -0.21438374 -0.46065803 0.04207535
v -0.21548596 0.24909209 0.19121590
v -0.24492341 0.21078513 0.20750537
v -0.21775163 -0.42102480 0.08377215
v -0.21967408 -0.37550742 0.11934849
v -0.22245759 0.38529370 0.13093161
v -0.22441997 -0.26913860 0.17886083
v -0.22158039 -0.32600745 0.15063024
v -0.22908031 -0.22000220 0.19739579
v -0.23425770 0.33667225 0.15528136
v -0.23927755 -0.13073709 0.22232988
v -0.23402750 -0.17433431 0.21100865
v -0.24404199 0.54812726 0.00000000
v -0.25283183 0.49226106 0.05739349
v -0.24959067 0.10498530 0.23318579
v -0.25254217 0.30158486 0.17222130
v -0.27929968 0.26689520 0.18692218
v -0.26109287 0.43073833 0.10114692
v -0.26264025 -0.01742973 0.24034784
v -0.24992174 -0.07841997 0.23171927
v -0.27135729 0.38270872 0.12886301
v -0.28168292 -0.52976855 0.00000000
v -0.28168295 0.52976855 0.00000000
v -0.26747002 -0.48890906 0.02089565
v -0.27817384 -0.44548647 0.06200618
v -0.28138039 -0.40212837 0.09979788
v -0.28222885 -0.35833165 0.13209285
v -0.28309661 -0.30866636 0.16236235
v -0.28283466 0.17713153 0.21763739
v -0.26716949 0.14373474 0.22594493
v -0.28738148 0.34680032 0.14648426
v -0.29556371 0.46110540 0.06896375
v -0.29423286 -0.20827416 0.20086214
v -0.28928931 -0.25199281 0.18679786
v -0.29498521 0.07513420 0.23761251
v -0.28097473 0.03367837 0.24022730
v -0.29944133 -0.16193765 0.21492580
v -0.30406334 0.42291548 0.09460932
v -0.31709891 0.38575395 0.11565244
v -0.31129406 0.31436563 0.15928009
v -0.31795157 0.50882886 0.00000000
v -0.31052416 0.49243425 0.02677456
v -0.31700785 0.23490265 0.19485730
v -0.32595066 -0.04334257 0.23359645
v -0.31507075 -0.09341759 0.22767930
v -0.33063812 0.46222232 0.04817595
v -0.33210936 0.15135096 0.21861001
v -0.37077047 0.20699484 0.18948676
v -0.34131616 0.42255521 0.07853361
v -0.33907252 0.35375993 0.12775815
v -0.34414587 -0.49149124 0.00000000
v -0.34824919 -0.41563333 0.06982087
v -0.34373928 -0.45689664 0.02927046
v -0.35113254 0.28278170 0.16339275
v -0.35167800 -0.36987123 0.10805737
v -0.35267114 0.48541019 0.00000000
v -0.35681838 0.45160269 0.03958858
v -0.35422702 -0.31897197 0.14227847
v -0.35588760 0.04653751 0.22812001
v -0.34069835 -0.00362130 0.23278669
v -0.36049871 0.38881594 0.09382701
v -0.36501142 -0.25158777 0.17002971
v -0.37272487 -0.18728371 0.19082897
v -0.33623368 -0.17552316 0.20409528
v -0.37967327 0.32319704 0.12764717
v -0.40169268 0.12450031 0.19997094
v -0.37838353 0.08274770 0.21736573
v -0.40147836 -0.44588690 0.00000000
v -0.44420988 0.36983211 0.03964018
v -0.40507585 0.38067052 0.06770193
v -0.39339754 -0.12013002 0.19972308
v -0.40673680 -0.07535163 0.20407157
v -0.41329681 0.25600171 0.14508151
v -0.41565539 -0.35503567 0.08531566
v -0.40964227 -0.40306856 0.04526016
v -0.41779238 -0.30882105 0.11680668
v -0.52477185 0.29088577 0.00000000
v -0.49303860 0.27628423 0.05533119
v -0.45708379 0.26854009 0.10031046
v -0.43881223 0.40919901 0.00000000
v -0.40871774 0.40337391 0.04430569
v -0.44224547 -0.19417630 0.15352402
v -0.43346775 -0.24094944 0.14047986
v -0.40903942 0.03156794 0.20818751
v -0.45281887 0.01760981 0.18325735
v -0.43172812 -0.02868665 0.19545300
v -0.42977245 0.15246261 0.17634631
v -0.45643795 0.18094575 0.14838685
v -0.41965847 0.19392316 0.16892477
v -0.48541019 0.35267114 0.00000000
v -0.45838413 0.34635490 0.04436776
v -0.42666590 0.33800589 0.08378885
v -0.45282574 -0.39363541 0.00000000
v -0.47775378 -0.28497198 0.08066955
v -0.46681952 -0.35080828 0.03777410
v -0.50471148 0.20013010 0.08935464
v -0.46766181 -0.13207100 0.15512515
v -0.48303692 -0.08569667 0.15218565
v -0.44553633 -0.08111699 0.18132608
v -0.52465909 0.22468939 0.04381199
v -0.47795126 0.24447507 0.09287321
v -0.49742255 -0.33551575 0.00000000
v -0.50946996 0.09626228 0.12398192
v -0.48519824 0.05932466 0.15474237
v -0.46210454 0.11059469 0.16483502
v -0.50952338 -0.17958716 0.09945551
v -0.49619456 -0.22859545 0.09211877
v -0.47179019 -0.18921311 0.13274971
v -0.54071010 0.16916211 0.05213716
v -0.50761769 0.17546624 0.09763183
v -0.52308856 -0.24925904 0.04359833
v -0.51042097 -0.29859052 0.02111292
v -0.53647474 0.11862049 0.08235171
v -0.53606461 0.00653484 0.10496545
v -0.50060489 0.01175623 0.14427489
v -0.51274424 -0.03885642 0.13074038
v -0.55561808 0.09048363 0.06123657
v -0.53460394 -0.27239429 0.00000000
v -0.53266313 -0.13006588 0.08888633
v -0.55179176 -0.07960676 0.07597113
v -0.51747698 -0.08347211 0.11937517
v -0.56791573 0.04759810 0.05111864
v -0.59416083 0.08350386 0.00000000
v -0.55524204 -0.15598906 0.04138411
v -0.56381555 -0.20521208 0.00000000
v -0.55173539 -0.21497682 0.01436931
v -0.58462201 -0.13497063 0.00000000
v -0.55631030 0.22476396 0.00000000
v -0.52583509 0.22306451 0.04310610
v -0.57955548 0.15529143 0.00000000
v -0.55751969 0.13869000 0.04064198
v -0.59671313 -0.06271708 0.00000000
v -0.57493823 -0.07054146 0.03558273
v -0.59990863 0.01047144 0.00000000
v -0.56947095 0.00804792 0.05181897
v -0.49218921 0.30060886 0.03988637
v -0.45346633 0.31165554 0.07686718
v -0.41873428 0.31849330 0.10265681
v 0.03912059 -0.17296995 0.13630902
v 0.02709144 -0.34064030 0.09354774
v 0.04701433 -0.05019744 0.15598292
v 0.04354909 -0.10945777 0.14829295
v 0.05142666 -0.00368323 0.16031688
v 0.03448241 -0.23230144 0.12183603
v 0.04791627 -0.56584531 0.01590683
v 0.03411757 -0.29074906 0.10569542
v 0.06112402 -0.51687598 0.03609932
v 0.05145501 -0.41150536 0.07373898
v 0.08121845 -0.29954326 0.12726290
v 0.07472494 -0.47258377 0.05438810
v 0.09210574 -0.24976860 0.15100336
v 0.08718969 -0.42687766 0.06955155
v 0.10915409 -0.13650429 0.18267733
v 0.10202594 -0.19440981 0.17007614
v 0.11555174 -0.08241778 0.18931372
v 0.10171866 -0.37110297 0.09649531
v 0.14515314 -0.58217743 0.00000000
v 0.16524099 -0.49562449 0.03588560
v 0.16425799 -0.43325890 0.05890433
v 0.16874327 -0.38987387 0.09966904
v 0.17501226 -0.34171044 0.13398621
v 0.17907619 -0.28803833 0.16320404
v 0.38567258 0.45962668 0.00000000
v 0.42284227 0.29364050 0.11515358
v 0.45742306 0.21714399 0.12978376
v 0.57684084 -0.03513729 0.03802227
v 0.11610947 -0.32401986 0.12856735
v 0.02454666 0.11993571 0.15599143
v 0.33141922 -0.22795407 0.18853363
v 0.12243174 -0.55088087 0.02028106
v 0.43403442 0.07285708 0.19081196
v 0.39601254 -0.26917021 0.14889552
v 0.37903452 -0.42573799 0.04204944
v 0.12824493 0.05280847 0.20610575
v 0.17393369 -0.54461062 0.01825674
v 0.52904320 -0.20534748 0.06082456
v 0.03985697 0.20988363 0.14068352
v 0.09675451 0.09665606 0.17688882
v 0.52942832 0.05278860 0.10889598
v 0.54712404 -0.03725768 0.08901689
v 0.16482419 0.13939140 0.20555891
v 0.49577437 0.13540896 0.12688406
v 0.47254618 -0.03540842 0.16730153
v 0.35528909 -0.13094518 0.21066023
v 0.42771576 -0.14357437 0.17725526
v 0.38199855 0.35794221 0.10211302
v 0.38226062 -0.38775450 0.07821895
v 0.38568641 -0.34970494 0.10703576
v 0.46206243 -0.25192009 0.11334397
v 0.26713639 -0.20723399 0.20269724
v 0.28769751 -0.06643220 0.23433728
v 0.38044649 -0.01412626 0.22024754
v 0.32559046 0.19429404 0.20632214
v 0.32462443 -0.27247188 0.17267807
v 0.27756167 -0.10614124 0.22807903
v 0.40300967 -0.22702036 0.16307807
v 0.56761284 -0.10893457 0.03854861
v 0.39026884 0.16715585 0.19352108
v 0.55398950 0.19197122 0.02001692
v 0.31702025 -0.33950619 0.13766673
v 0.31695706 0.03694376 0.23637471
v 0.04185389 0.59853845 0.00000000
v 0.01528926 -0.49678687 0.04395229
v 0.00780172 -0.55387301 0.02028054
v 0.02288593 -0.53800336 0.02756417
v 0.02343675 -0.44214618 0.06341454
v 0.04065349 -0.38396743 0.08100507
v 0.04188589 -0.48393278 0.04924150
v 0.03983065 0.40845844 0.08346141
v 0.03734707 0.34722468 0.10424615
v 0.05398619 -0.33293360 0.09576487
v 0.04074293 0.46971172 0.05936921
v 0.04087401 0.52267234 0.03624088
v 0.04113441 0.56609212 0.01582444
v 0.08350386 0.59416083 0.00000000
v 0.04242266 0.24030590 0.13516135
v 0.04620847 0.16869323 0.14935598
v 0.05894430 -0.27055822 0.12542496
v 0.03667398 0.03836055 0.15652063
v 0.05619696 0.08442148 0.16149772
v 0.05117568 0.12350855 0.15663995
v 0.06135561 -0.43720511 0.06691343
v 0.06490661 -0.21182699 0.14714644
v 0.07312160 -0.59552771 0.00000000
v 0.07345944 -0.15295892 0.16333839
v 0.08438216 0.49555461 0.05193069
v 0.08423312 0.43491577 0.08008035
v 0.08395156 0.54840189 0.02485780
v 0.12474702 0.58688855 0.00000000
v 0.08363397 0.36774159 0.10710394
v 0.08008967 -0.38667056 0.08038970
v 0.08477888 0.29119864 0.13334188
v 0.08451120 -0.09116893 0.17493032
v 0.08819710 -0.50624889 0.03940853
v 0.08262233 -0.55133458 0.02222156
v 0.09676007 0.22084494 0.15581824
v 0.09949888 -0.45727816 0.05861532
v 0.10022619 -0.34273575 0.11529265
v 0.09663561 -0.02275851 0.18232798
v 0.10175370 0.00983130 0.18529372
v 0.08972695 0.05062519 0.17690092
v 0.10698826 -0.40036734 0.07538764
v 0.10533870 0.15990009 0.17175152
v 0.11794644 -0.35340299 0.11184006
v 0.12735116 0.53546132 0.03792046
v 0.12731631 0.47658085 0.07417527
v 0.12759158 0.41068981 0.10623532
v 0.12770754 -0.30219467 0.14291090
v 0.12927767 0.34186017 0.13396285
v 0.13756373 -0.23811750 0.17152742
v 0.11839004 -0.29295511 0.14456292
v 0.13737248 0.27876142 0.15963636
v 0.13952687 0.10449341 0.20134109
v 0.13985197 -0.17769408 0.18844379
v 0.14371785 -0.11592155 0.19987964
v 0.14849827 -0.05793048 0.21047428
v 0.12519768 -0.01831766 0.20295057
v 0.15161607 0.22749961 0.18105375
v 0.16538242 0.57675702 0.00000000
v 0.16915644 0.52192588 0.04863876
v 0.17091696 0.45961191 0.08906693
v 0.17360453 0.39417964 0.12256797
v 0.17588300 -0.23877504 0.18236327
v 0.17762869 0.05348327 0.22452480
v 0.16387584 0.00272382 0.21575438
v 0.17755684 0.18270223 0.20067892
v 0.18033857 0.33360311 0.15051947
v 0.19224219 -0.09491897 0.22063558
v 0.18344191 -0.16151034 0.20576440
v 0.19436690 0.28527225 0.17332564
v 0.20521208 0.56381555 0.00000000
v 0.21110642 0.50763384 0.05431248
v 0.21046488 0.14211005 0.21950575
v 0.19165491 0.09429131 0.22348325
v 0.21564797 0.44578188 0.09688737
v 0.21502077 -0.56014825 0.00000000
v 0.21617068 -0.51390026 0.02055862
v 0.24953563 0.10532295 0.23328230
v 0.21863078 0.01442609 0.23606815
v 0.20542577 -0.03800036 0.22903799
v 0.21368161 -0.45769155 0.04228890
v 0.21538147 0.24927507 0.19114089
v 0.21678407 -0.41862240 0.08405179
v 0.21894832 -0.37380396 0.12004372
v 0.22232654 0.38527553 0.13051017
v 0.22407383 -0.26809206 0.17961714
v 0.22106208 -0.32470739 0.15145722
v 0.22884282 -0.21910487 0.19800530
v 0.23412014 0.33671945 0.15496482
v 0.23915328 -0.13005494 0.22270067
v 0.23385746 -0.17355149 0.21148190
v 0.24404199 0.54812726 0.00000000
v 0.24482528 0.21099230 0.20745100
v 0.25265792 0.49202281 0.05695237
v 0.25240083 0.30166021 0.17197608
v 0.26088702 0.43056592 0.10064603
v 0.26258586 -0.01693817 0.24052613
v 0.24983687 -0.07783395 0.23198253
v 0.27115419 0.38261550 0.12842007
v 0.28718114 0.34675513 0.14611306
v 0.28168292 -0.52976855 0.00000000
v 0.28168295 0.52976855 0.00000000
v 0.27916459 0.26700635 0.18672788
v 0.27082820 -0.48327536 0.02107234
v 0.27888250 -0.44198155 0.06239381
v 0.28132154 -0.39982741 0.10029474
v 0.28201221 -0.35665572 0.13268477
v 0.28290484 -0.30739796 0.16298686
v 0.28274596 0.17737719 0.21758858
v 0.26710068 0.14402546 0.22595469
v 0.31110222 0.31436560 0.15897272
v 0.29529876 0.46086441 0.06853236
v 0.29412699 -0.20736035 0.20121168
v 0.28914804 -0.25093393 0.18728593
v 0.29493673 0.07550521 0.23766356
v 0.28093048 0.03410141 0.24033045
v 0.29936138 -0.16116012 0.21518067
v 0.30381746 0.42271164 0.09414522
v 0.31684458 0.38560957 0.11523644
v 0.31795157 0.50882886 0.00000000
v 0.31038212 0.49226355 0.02653545
v 0.35096016 0.28282982 0.16313720
v 0.31688589 0.23505219 0.19469222
v 0.32591218 -0.04282405 0.23370553
v 0.31501231 -0.09280448 0.22782301
v 0.33037155 0.46200024 0.04786700
v 0.34102851 0.42234649 0.07814279
v 0.33202962 0.15161440 0.21854443
v 0.37065970 0.20717097 0.18933787
v 0.33883413 0.35367349 0.12740216
v 0.34414587 -0.49149124 0.00000000
v 0.34879379 -0.41418995 0.07014533
v 0.34506458 -0.45608132 0.03006807
v 0.35187521 -0.36859862 0.10834982
v 0.35267114 0.48541019 0.00000000
v 0.35659447 0.45141520 0.03936798
v 0.35428030 -0.31787994 0.14259695
v 0.35584728 0.04691664 0.22813616
v 0.34066736 -0.00316464 0.23284291
v 0.36023184 0.38865758 0.09347647
v 0.41314003 0.25607295 0.14488139
v 0.36499141 -0.25068243 0.17024904
v 0.37267750 -0.18653898 0.19095547
v 0.33617267 -0.17474585 0.20429791
v 0.37945505 0.32315924 0.12735741
v 0.40161828 0.12475736 0.19989473
v 0.37833016 0.08307229 0.21732992
v 0.40147836 -0.44588690 0.00000000
v 0.48541019 0.35267114 0.00000000
v 0.44407849 0.36978358 0.03949395
v 0.40487133 0.38057739 0.06745238
v 0.40670599 -0.07486247 0.20410042
v 0.39334964 -0.11955468 0.19977834
v 0.41577534 -0.35427966 0.08540144
v 0.40990664 -0.40252191 0.04534354
v 0.41781101 -0.30803317 0.11687301
v 0.49295516 0.27630496 0.05523706
v 0.45695083 0.26857249 0.10014873
v 0.43881223 0.40919901 0.00000000
v 0.40853085 0.40327932 0.04408188
v 0.44218950 -0.19360432 0.15353126
v 0.43342736 -0.24029895 0.14051278
v 0.40900170 0.03192117 0.20817597
v 0.45278017 0.01792204 0.18323215
v 0.43169501 -0.02829457 0.19544863
v 0.42969090 0.15266472 0.17625301
v 0.45634659 0.18108795 0.14829217
v 0.41955451 0.19408588 0.16879919
v 0.45826981 0.34632412 0.04424451
v 0.42648368 0.33796837 0.08356960
v 0.45282574 -0.39363541 0.00000000
v 0.47769833 -0.28453653 0.08063793
v 0.46678320 -0.35047362 0.03773470
v 0.50465442 0.20022196 0.08930451
v 0.46760685 -0.13164732 0.15510861
v 0.48299305 -0.08534878 0.15216530
v 0.44550084 -0.08069578 0.18133101
v 0.55631030 0.22476396 0.00000000
v 0.52461909 0.22473181 0.04375607
v 0.47784012 0.24451923 0.09274075
v 0.49742255 -0.33551575 0.00000000
v 0.50942437 0.09641816 0.12393362
v 0.48515469 0.05955148 0.15469750
v 0.46204383 0.11080613 0.16477077
v 0.50946237 -0.17927511 0.09941967
v 0.49612714 -0.22822530 0.09208035
v 0.47173213 -0.18875791 0.13273648
v 0.57955548 0.15529143 0.00000000
v 0.54067722 0.16921329 0.05210040
v 0.50756570 0.17554706 0.09758130
v 0.52303581 -0.24907782 0.04356404
v 0.51036841 -0.29845892 0.02108304
v 0.52477185 0.29088577 0.00000000
v 0.53644345 0.11871663 0.08231052
v 0.53603343 0.00670099 0.10493624
v 0.50056985 0.01199342 0.14424260
v 0.51270909 -0.03861129 0.13071242
v 0.55559420 0.09056271 0.06120567
v 0.59416083 0.08350386 0.00000000
v 0.53460394 -0.27239429 0.00000000
v 0.53260943 -0.12984270 0.08885059
v 0.55175646 -0.07945504 0.07594562
v 0.51743745 -0.08321887 0.11934975
v 0.56789732 0.04766845 0.05109501
v 0.55521728 -0.15587427 0.04136310
v 0.58462201 -0.13497063 0.00000000
v 0.56381555 -0.20521208 0.00000000
v 0.55172644 -0.21492919 0.01435865
v 0.52580440 0.22309368 0.04304714
v 0.55749883 0.13873050 0.04061473
v 0.59671313 -0.06271708 0.00000000
v 0.57492268 -0.07047442 0.03556899
v 0.59990863 0.01047144 0.00000000
v 0.56945158 0.00812925 0.05179893
v 0.49211998 0.30061752 0.03981168
v 0.45332163 0.31164518 0.07670374
v 0.41854742 0.31846982 0.10243094
f 114 100 115
f 114 99 100
f 113 114 131
f 113 98 114
f 132 146 147
f 147 146 160
f 145 156 157
f 130 145 146
f 196 213 202
f 213 210 221
f 210 205 220
f 210 206 205
f 185 202 203
f 182 196 202
f 262 57 280
f 278 279 53
f 53 268 267
f 287 281 295
f 267 277 281
f 42 268 249
f 273 295 277
f 95 111 112
f 111 97 113
f 111 113 130
f 275 48 290
f 288 48 270
f 282 276 275
f 166 180 181
f 193 167 207
f 181 180 204
f 207 181 218
f 137 134 152
f 112 132 134
f 116 134 137
f 151 166 167
f 155 174 180
f 143 155 166
f 143 137 155
f 121 137 143
f 128 55 138
f 216 45 217
f 61 216 219
f 240 63 258
f 239 259 257
f 178 177 187
f 182 178 196
f 174 170 185
f 152 170 174
f 180 174 195
f 131 144 145
f 145 144 156
f 203 213 225
f 214 60 229
f 256 234 233
f 233 254 255
f 245 244 233
f 159 163 149
f 199 231 223
f 211 73 230
f 112 111 132
f 195 203 214
f 204 214 229
f 99 82 100
f 157 177 178
f 170 160 182
f 23 110 118
f 21 108 24
f 21 19 103
f 24 135 21
f 136 19 21
f 23 118 25
f 92 96 117
f 91 18 107
f 90 89 88
f 91 92 18
f 88 93 90
f 93 88 91
f 23 140 139
f 25 140 23
f 24 139 135
f 25 141 140
f 117 18 92
f 18 117 107
f 123 19 136
f 149 46 138
f 52 138 46
f 34 243 237
f 301 242 243
f 237 218 229
f 237 229 34
f 243 242 265
f 242 264 265
f 255 300 301
f 256 255 301
f 300 255 254
f 199 200 179
f 282 290 289
f 157 156 177
f 90 17 15
f 20 119 17
f 120 15 17
f 77 90 15
f 90 93 17
f 93 20 17
f 22 107 117
f 20 93 107
f 123 37 129
f 127 26 129
f 133 37 136
f 122 22 127
f 120 109 15
f 20 22 122
f 15 109 77
f 117 26 127
f 186 162 188
f 189 168 190
f 169 191 190
f 188 165 189
f 168 169 190
f 165 168 189
f 186 188 215
f 217 189 216
f 188 217 215
f 216 190 219
f 189 190 216
f 35 260 252
f 265 264 260
f 293 260 264
f 121 51 101
f 135 139 148
f 140 141 153
f 133 135 32
f 129 133 31
f 122 127 29
f 109 40 27
f 119 122 28
f 127 129 30
f 32 148 171
f 31 32 172
f 29 30 168
f 28 29 165
f 30 31 169
f 168 30 169
f 28 47 40
f 162 28 165
f 31 172 169
f 171 148 173
f 262 285 261
f 280 285 262
f 102 121 128
f 226 69 39
f 39 227 226
f 171 198 192
f 198 173 64
f 131 115 144
f 164 183 184
f 183 164 163
f 260 274 252
f 273 74 294
f 152 147 170
f 150 163 164
f 150 149 163
f 36 296 297
f 36 297 284
f 221 220 33
f 33 245 221
f 41 94 101
f 79 83 94
f 81 5 82
f 99 81 82
f 11 118 12
f 11 124 118
f 12 110 9
f 13 125 124
f 103 16 14
f 16 103 96
f 13 126 125
f 104 105 126
f 87 13 11
f 10 96 92
f 91 4 92
f 88 65 3
f 3 4 91
f 50 2 10
f 88 3 91
f 14 7 9
f 49 9 7
f 8 87 11
f 8 11 12
f 49 8 12
f 14 6 7
f 2 6 16
f 44 51 102
f 84 86 97
f 86 78 98
f 85 38 1
f 87 1 104
f 83 84 95
f 98 99 114
f 131 114 115
f 97 98 113
f 134 132 147
f 146 157 160
f 146 145 157
f 132 130 146
f 203 202 213
f 210 220 221
f 213 196 210
f 195 185 203
f 185 182 202
f 58 236 235
f 42 231 230
f 269 252 56
f 94 112 116
f 94 95 112
f 95 97 111
f 113 131 130
f 48 271 270
f 282 275 290
f 167 166 181
f 167 181 207
f 180 195 204
f 181 204 218
f 134 147 152
f 116 112 134
f 121 116 137
f 166 155 180
f 151 143 166
f 137 152 155
f 128 121 143
f 128 143 151
f 222 43 240
f 227 71 226
f 45 239 232
f 239 61 238
f 238 258 259
f 187 196 178
f 170 182 185
f 155 152 174
f 174 185 195
f 130 131 145
f 283 72 288
f 214 203 225
f 213 221 245
f 159 138 55
f 231 211 230
f 111 130 132
f 204 195 214
f 218 204 229
f 160 157 178
f 160 178 182
f 24 108 110
f 21 103 108
f 110 23 24
f 96 103 19
f 123 96 19
f 107 93 91
f 123 117 96
f 46 150 125
f 138 52 128
f 163 200 183
f 127 22 117
f 22 20 107
f 26 117 123
f 129 26 123
f 119 20 122
f 161 162 186
f 192 172 171
f 162 165 188
f 219 75 222
f 101 116 121
f 154 140 153
f 32 135 148
f 31 133 32
f 29 127 30
f 28 40 119
f 28 122 29
f 30 129 31
f 165 29 168
f 27 47 161
f 173 154 176
f 270 261 283
f 198 197 39
f 39 197 228
f 147 160 170
f 141 164 153
f 83 95 94
f 78 81 99
f 13 124 11
f 108 9 110
f 108 14 9
f 12 9 49
f 50 92 4
f 10 16 96
f 14 16 6
f 12 118 110
f 14 108 103
f 16 10 2
f 13 87 104
f 51 80 101
f 97 86 98
f 98 78 99
f 95 84 97
f 286 53 281
f 277 56 274
f 285 54 284
f 299 36 54
f 60 214 225
f 256 233 255
f 223 67 224
f 37 133 129
f 133 136 135
f 38 105 1
f 38 85 102
f 153 184 175
f 124 25 118
f 265 260 35
f 192 69 222
f 172 192 191
f 172 32 171
f 40 120 119
f 47 28 162
f 217 232 215
f 217 188 189
f 296 291 72
f 271 275 258
f 253 35 252
f 245 33 244
f 175 154 153
f 46 149 150
f 259 266 257
f 259 239 238
f 41 101 80
f 59 261 246
f 269 268 42
f 104 1 105
f 256 302 229
f 120 40 109
f 120 17 119
f 191 219 190
f 191 169 172
f 43 247 240
f 283 288 270
f 283 285 284
f 295 281 277
f 294 287 295
f 233 244 254
f 136 37 123
f 136 21 135
f 44 102 85
f 154 173 148
f 154 139 140
f 259 258 276
f 45 216 61
f 45 232 217
f 201 70 209
f 198 171 173
f 290 291 289
f 138 159 149
f 286 299 278
f 298 286 287
f 245 234 225
f 209 236 58
f 293 273 260
f 57 249 279
f 52 126 105
f 198 39 69
f 198 64 197
f 47 27 40
f 47 162 161
f 286 281 287
f 48 275 271
f 48 288 290
f 300 242 301
f 300 254 241
f 158 55 151
f 50 10 92
f 226 43 222
f 272 247 246
f 269 251 252
f 24 23 139
f 239 257 232
f 183 224 208
f 51 44 80
f 51 121 102
f 218 212 207
f 58 201 209
f 150 164 141
f 280 279 278
f 67 223 248
f 248 42 249
f 267 269 56
f 274 260 273
f 241 264 242
f 300 241 242
f 104 126 13
f 126 46 125
f 245 225 213
f 299 298 36
f 36 298 296
f 72 283 284
f 268 279 249
f 268 269 267
f 224 76 223
f 52 46 126
f 128 106 102
f 61 239 45
f 53 267 281
f 53 286 278
f 184 153 164
f 246 227 59
f 42 248 231
f 54 36 284
f 54 280 278
f 55 128 151
f 240 62 222
f 53 279 268
f 67 236 208
f 285 280 54
f 251 253 252
f 277 274 273
f 56 277 267
f 263 235 236
f 209 66 208
f 247 71 246
f 286 298 299
f 56 252 274
f 250 263 236
f 57 279 280
f 269 42 230
f 193 68 211
f 63 272 271
f 206 210 196
f 205 206 187
f 299 54 278
f 25 124 141
f 256 60 234
f 234 245 233
f 212 68 207
f 201 64 176
f 106 128 52
f 293 264 292
f 59 227 235
f 59 263 261
f 60 225 234
f 60 256 229
f 193 194 167
f 237 253 212
f 71 43 226
f 201 197 64
f 219 62 61
f 62 238 61
f 251 269 230
f 124 142 141
f 261 272 246
f 158 194 179
f 167 158 151
f 179 200 163
f 241 292 264
f 58 228 201
f 243 34 301
f 62 219 222
f 62 240 238
f 263 59 235
f 262 261 263
f 295 273 294
f 183 66 184
f 63 240 247
f 63 271 258
f 57 250 249
f 250 248 249
f 184 70 175
f 263 57 262
f 211 194 193
f 199 76 200
f 201 176 175
f 250 57 263
f 236 67 250
f 179 159 158
f 261 285 283
f 261 270 272
f 224 183 200
f 236 209 208
f 272 63 247
f 270 271 272
f 39 228 227
f 227 58 235
f 237 212 218
f 176 64 173
f 176 154 175
f 179 194 199
f 199 211 231
f 163 159 179
f 159 55 158
f 253 73 212
f 251 230 73
f 237 265 35
f 253 237 35
f 259 276 266
f 38 106 105
f 296 72 297
f 199 194 211
f 150 142 125
f 228 197 201
f 228 58 227
f 292 74 293
f 66 183 208
f 66 209 70
f 34 302 301
f 65 89 77
f 192 75 191
f 67 248 250
f 67 208 224
f 187 206 196
f 231 248 223
f 240 258 238
f 68 212 211
f 68 193 207
f 288 291 290
f 69 226 222
f 69 192 198
f 70 201 175
f 70 184 66
f 148 139 154
f 94 41 79
f 116 101 94
f 243 265 237
f 167 194 158
f 276 282 266
f 276 258 275
f 71 247 43
f 71 227 246
f 106 38 102
f 106 52 105
f 72 291 288
f 72 284 297
f 73 211 212
f 73 253 251
f 142 124 125
f 142 150 141
f 89 90 77
f 89 65 88
f 74 273 293
f 74 292 294
f 302 34 229
f 302 256 301
f 75 192 222
f 75 219 191
f 76 199 223
f 76 224 200
f 392 393 379
f 392 379 378
f 390 409 392
f 390 392 377
f 411 426 425
f 426 439 425
f 424 436 435
f 410 425 424
f 476 482 491
f 491 500 490
f 490 499 484
f 490 484 485
f 463 483 482
f 460 482 476
f 540 561 347
f 559 343 560
f 343 546 547
f 563 574 562
f 546 562 558
f 335 528 547
f 553 558 574
f 373 394 391
f 391 390 376
f 391 410 390
f 555 572 340
f 569 549 340
f 564 555 556
f 446 467 459
f 473 487 457
f 467 475 459
f 487 486 467
f 416 431 413
f 394 413 411
f 396 416 413
f 430 457 446
f 434 459 453
f 422 446 434
f 422 434 416
f 400 422 416
f 407 417 345
f 496 497 337
f 351 498 496
f 520 536 353
f 519 535 537
f 458 466 456
f 460 476 458
f 453 463 449
f 431 453 449
f 459 464 453
f 409 424 423
f 424 435 423
f 483 504 491
f 494 509 350
f 534 514 515
f 514 533 513
f 524 514 523
f 438 428 443
f 479 502 511
f 492 510 362
f 394 411 391
f 464 494 483
f 475 509 494
f 378 379 366
f 436 458 456
f 449 460 439
f 317 397 389
f 315 318 387
f 315 382 313
f 318 315 414
f 415 315 313
f 317 319 397
f 371 395 375
f 370 386 312
f 369 367 368
f 370 312 371
f 367 369 372
f 372 370 367
f 317 418 419
f 319 317 419
f 318 414 418
f 319 419 420
f 395 371 312
f 312 386 395
f 402 415 313
f 428 417 338
f 342 338 417
f 328 505 522
f 580 522 521
f 505 509 486
f 505 328 509
f 522 544 521
f 521 544 543
f 533 580 579
f 534 580 533
f 579 513 533
f 479 442 480
f 564 571 572
f 436 456 435
f 369 309 311
f 314 311 398
f 399 311 309
f 77 309 369
f 369 311 372
f 372 311 314
f 316 395 386
f 314 386 372
f 402 408 331
f 406 408 320
f 412 415 331
f 401 406 316
f 399 309 388
f 314 401 316
f 309 77 388
f 395 406 320
f 465 468 441
f 469 470 447
f 448 470 471
f 468 469 445
f 447 470 448
f 445 469 447
f 465 495 468
f 497 496 469
f 468 495 497
f 496 498 470
f 469 496 470
f 329 531 538
f 544 538 543
f 573 543 538
f 400 380 341
f 414 427 418
f 419 432 420
f 412 326 414
f 408 325 412
f 401 323 406
f 388 321 334
f 398 322 401
f 406 324 408
f 326 450 427
f 325 451 326
f 323 447 324
f 322 445 323
f 324 448 325
f 447 448 324
f 322 334 339
f 441 445 322
f 325 448 451
f 450 452 427
f 540 539 567
f 561 540 567
f 381 407 400
f 506 333 358
f 333 506 507
f 450 472 478
f 478 354 452
f 409 423 393
f 444 462 461
f 461 443 444
f 538 531 554
f 553 552 363
f 431 449 426
f 429 444 443
f 429 443 428
f 330 576 575
f 330 566 576
f 500 327 499
f 327 500 524
f 41 380 374
f 79 374 83
f 81 366 5
f 378 366 81
f 305 306 397
f 305 397 403
f 306 303 389
f 307 403 404
f 382 308 310
f 310 375 382
f 307 404 405
f 383 405 384
f 87 305 307
f 304 371 375
f 370 371 4
f 367 3 65
f 3 370 4
f 50 304 2
f 367 370 3
f 308 303 7
f 49 7 303
f 8 305 87
f 8 306 305
f 49 306 8
f 308 7 6
f 2 310 6
f 44 381 341
f 84 376 86
f 86 377 78
f 85 1 332
f 87 383 1
f 83 373 84
f 377 392 378
f 409 393 392
f 376 390 377
f 413 426 411
f 425 439 436
f 425 436 424
f 411 425 410
f 483 491 482
f 490 500 499
f 491 490 476
f 464 483 463
f 463 482 460
f 348 517 516
f 335 510 511
f 548 346 531
f 374 396 394
f 374 394 373
f 373 391 376
f 390 410 409
f 340 549 550
f 564 572 555
f 457 467 446
f 457 487 467
f 459 475 464
f 467 486 475
f 413 431 426
f 396 413 394
f 400 416 396
f 446 459 434
f 430 446 422
f 416 434 431
f 407 422 400
f 407 430 422
f 501 520 336
f 507 506 360
f 337 512 519
f 519 518 351
f 518 537 536
f 466 458 476
f 449 463 460
f 434 453 431
f 453 464 463
f 410 424 409
f 565 569 361
f 494 504 483
f 491 524 500
f 438 345 417
f 511 510 492
f 391 411 410
f 475 494 464
f 486 509 475
f 439 458 436
f 439 460 458
f 318 389 387
f 315 387 382
f 389 318 317
f 375 313 382
f 402 313 375
f 386 370 372
f 402 375 395
f 338 404 429
f 417 407 342
f 443 461 480
f 406 395 316
f 316 386 314
f 320 402 395
f 408 402 320
f 398 401 314
f 440 465 441
f 472 450 451
f 441 468 445
f 498 501 364
f 380 400 396
f 433 432 419
f 326 427 414
f 325 326 412
f 323 324 406
f 322 398 334
f 322 323 401
f 324 325 408
f 445 447 323
f 321 440 339
f 452 455 433
f 549 565 539
f 478 333 477
f 333 508 477
f 426 449 439
f 420 432 444
f 83 374 373
f 78 378 81
f 307 305 403
f 387 389 303
f 387 303 308
f 306 49 303
f 50 4 371
f 304 375 310
f 308 6 310
f 306 389 397
f 308 382 387
f 310 2 304
f 307 383 87
f 341 380 80
f 376 377 86
f 377 378 78
f 373 376 84
f 568 562 343
f 558 554 346
f 567 566 344
f 578 344 330
f 350 504 494
f 534 533 514
f 502 503 356
f 331 408 412
f 412 414 415
f 332 1 384
f 332 381 85
f 432 454 462
f 403 397 319
f 544 329 538
f 472 501 358
f 451 471 472
f 451 450 326
f 334 398 399
f 339 441 322
f 497 495 512
f 497 469 468
f 575 361 570
f 550 536 555
f 532 531 329
f 524 523 327
f 454 432 433
f 338 429 428
f 537 535 545
f 537 518 519
f 41 80 380
f 349 525 539
f 548 335 547
f 383 384 1
f 534 509 581
f 399 388 334
f 399 398 311
f 471 470 498
f 471 451 448
f 336 520 526
f 565 549 569
f 565 566 567
f 574 558 562
f 552 574 563
f 514 513 523
f 415 402 331
f 415 414 315
f 44 85 381
f 433 427 452
f 433 419 418
f 537 556 536
f 337 351 496
f 337 497 512
f 481 489 359
f 478 452 450
f 572 571 570
f 417 428 438
f 568 559 578
f 577 563 568
f 524 504 515
f 489 348 516
f 573 538 553
f 347 560 528
f 342 384 405
f 478 358 333
f 478 477 354
f 339 334 321
f 339 440 441
f 568 563 562
f 340 550 555
f 340 572 569
f 579 580 521
f 579 557 513
f 437 430 345
f 50 371 304
f 506 501 336
f 551 525 526
f 548 531 530
f 318 418 317
f 519 512 535
f 461 488 503
f 341 80 44
f 341 381 400
f 486 487 493
f 348 489 481
f 429 420 444
f 561 559 560
f 356 527 502
f 527 528 335
f 546 346 548
f 554 553 538
f 557 521 543
f 579 521 557
f 383 307 405
f 405 404 338
f 524 491 504
f 578 330 577
f 330 575 577
f 361 566 565
f 547 528 560
f 547 546 548
f 503 502 365
f 342 405 338
f 407 381 385
f 351 337 519
f 343 562 546
f 343 559 568
f 462 444 432
f 525 349 507
f 335 511 527
f 344 566 330
f 344 559 561
f 345 430 407
f 520 501 352
f 343 547 560
f 356 488 516
f 567 344 561
f 530 531 532
f 558 553 554
f 346 546 558
f 541 516 517
f 489 488 355
f 526 525 360
f 568 578 577
f 346 554 531
f 529 516 541
f 347 561 560
f 548 510 335
f 473 492 357
f 353 550 551
f 485 476 490
f 484 466 485
f 578 559 344
f 319 420 403
f 534 515 350
f 515 514 524
f 493 487 357
f 481 455 354
f 385 342 407
f 573 542 543
f 349 517 507
f 349 539 541
f 350 515 504
f 350 509 534
f 473 457 474
f 505 493 532
f 360 506 336
f 481 354 477
f 498 351 352
f 352 351 518
f 530 510 548
f 403 420 421
f 539 525 551
f 437 442 474
f 457 430 437
f 442 443 480
f 557 543 542
f 348 481 508
f 522 580 328
f 352 501 498
f 352 518 520
f 541 517 349
f 540 541 539
f 574 552 553
f 461 462 355
f 353 526 520
f 353 536 550
f 347 528 529
f 529 528 527
f 462 454 359
f 541 540 347
f 492 473 474
f 479 480 365
f 481 454 455
f 529 541 347
f 516 529 356
f 442 437 438
f 539 565 567
f 539 551 549
f 503 480 461
f 516 488 489
f 551 526 353
f 549 551 550
f 333 507 508
f 507 517 348
f 505 486 493
f 455 452 354
f 455 454 433
f 442 479 474
f 479 511 492
f 443 442 438
f 438 437 345
f 532 493 362
f 530 362 510
f 505 329 544
f 532 329 505
f 537 545 556
f 332 384 385
f 575 576 361
f 479 492 474
f 429 404 421
f 508 481 477
f 508 507 348
f 542 573 363
f 355 488 461
f 355 359 489
f 328 580 581
f 65 77 368
f 472 471 364
f 356 529 527
f 356 503 488
f 466 476 485
f 511 502 527
f 520 518 536
f 357 492 493
f 357 487 473
f 569 572 570
f 358 501 506
f 358 478 472
f 359 454 481
f 359 355 462
f 427 433 418
f 374 79 41
f 396 374 380
f 522 505 544
f 457 437 474
f 556 545 564
f 556 555 536
f 360 336 526
f 360 525 507
f 385 381 332
f 385 384 342
f 361 569 570
f 361 576 566
f 362 493 492
f 362 530 532
f 421 404 403
f 421 420 429
f 368 77 369
f 368 367 65
f 363 573 553
f 363 552 542
f 581 509 328
f 581 580 534
f 364 501 472
f 364 471 498
f 365 502 479
f 365 480 503
