# 4part FEM knit+cable best fit (4part_s_pw_crest15)
# interior RMSE  : 4.731 mm
# max deviation  : 15.764 mm
# crown          : 0.31877 m (target 0.32177 m)
# max disp/rest  : 15.764 mm (floor 5.0 mm)
# regions        : 16 (4 D4 slots), 9 parameters
v 0.000616 0.600859 0.000000
v -0.423648 0.425123 0.000000
v -0.187836 0.189850 0.181764
v 0.000831 0.000599 0.213273
v 0.001105 0.296044 0.318772
v -0.111519 0.589084 0.000000
v -0.154511 0.578763 0.000000
v -0.288752 0.525061 0.000000
v -0.218386 0.404717 0.200875
v -0.051844 0.596730 0.000000
v -0.056977 0.464312 0.237174
v -0.310542 0.312523 0.107915
v -0.237731 0.549565 0.000000
v 0.001071 0.441096 0.267444
v -0.097094 0.098743 0.206210
v -0.274190 0.420926 0.145671
v 0.002392 0.203207 0.315636
v -0.141080 0.508950 0.162728
v -0.044439 0.515943 0.181635
v -0.329212 0.500267 0.000000
v -0.110932 0.248724 0.285222
v -0.091588 0.500812 0.197952
v -0.280898 0.478050 0.098024
v -0.087112 0.348025 0.289019
v -0.270466 0.272588 0.137458
v 0.001115 0.055369 0.231495
v -0.327154 0.403293 0.097845
v -0.077191 0.551384 0.114253
v 0.001042 0.488320 0.220337
v -0.174585 0.432227 0.216704
v -0.137651 0.278180 0.284099
v 0.000920 0.391740 0.295450
v -0.250630 0.376552 0.182008
v -0.031111 0.564528 0.089334
v -0.374278 0.425021 0.047983
v -0.388428 0.390176 0.037198
v -0.134209 0.318692 0.278187
v 0.001425 0.249864 0.318079
v -0.154662 0.156580 0.193194
v -0.257379 0.331925 0.178023
v -0.124442 0.545371 0.110786
v -0.330911 0.454397 0.070467
v -0.044451 0.369640 0.301155
v -0.047748 0.181487 0.287856
v 0.000657 0.547850 0.127454
v -0.081100 0.214154 0.287696
v -0.212038 0.352281 0.216400
v -0.349874 0.351728 0.074462
v -0.225964 0.452368 0.168998
v -0.227552 0.229936 0.163576
v -0.178854 0.480297 0.175203
v -0.119517 0.453672 0.236993
v -0.092305 0.296862 0.295338
v -0.129721 0.204155 0.258095
v -0.223882 0.298367 0.202608
v -0.094616 0.163160 0.257622
v 0.002095 0.158283 0.288311
v -0.176810 0.384717 0.237690
v -0.055293 0.265490 0.307797
v -0.232534 0.504706 0.109539
v -0.125831 0.127687 0.200590
v -0.291448 0.369331 0.142428
v -0.162637 0.238180 0.246401
v -0.086488 0.404532 0.269943
v -0.049395 0.137021 0.272349
v -0.138588 0.412958 0.250267
v -0.038606 0.223467 0.304810
v -0.174494 0.333089 0.254080
v 0.000866 0.342166 0.311757
v -0.033536 0.034989 0.212650
v -0.049311 0.319367 0.309090
v -0.039823 0.415343 0.278102
v -0.128205 0.365795 0.280090
v -0.381698 0.460952 0.000000
v 0.001188 0.112468 0.274798
v -0.040925 0.091444 0.245480
v -0.067359 0.068834 0.209918
v -0.194710 0.567385 0.000000
v -0.184941 0.281138 0.237280
v -0.179707 0.532923 0.104232
v -0.599383 0.000859 0.000000
v -0.294143 0.000489 0.317516
v -0.587609 0.112995 0.000000
v -0.577288 0.155985 0.000000
v -0.523586 0.290227 0.000000
v -0.402583 0.219191 0.199791
v -0.595255 0.053319 0.000000
v -0.458894 0.058144 0.241613
v -0.548091 0.239205 0.000000
v -0.442300 0.000643 0.259978
v -0.418726 0.274948 0.144795
v -0.200708 0.000898 0.302725
v -0.499771 0.139700 0.169993
v -0.518575 0.046444 0.170812
v -0.498792 0.330686 0.000000
v -0.246140 0.114274 0.276753
v -0.504131 0.093759 0.179056
v -0.478256 0.284428 0.092303
v -0.346111 0.088400 0.293226
v -0.054149 0.000642 0.230935
v -0.401322 0.329578 0.098563
v -0.549199 0.079150 0.114185
v -0.490483 0.001147 0.212176
v -0.431255 0.176003 0.209907
v -0.278083 0.140908 0.301451
v -0.389151 0.000905 0.292978
v -0.374306 0.251040 0.180621
v -0.564098 0.033052 0.086995
v -0.422992 0.375026 0.047273
v -0.318544 0.135707 0.260935
v -0.246081 -0.000054 0.313317
v -0.329332 0.260139 0.173761
v -0.543189 0.126214 0.110217
v -0.447617 0.327021 0.081678
v -0.367848 0.046596 0.299865
v -0.178509 0.050787 0.288739
v -0.546400 0.000577 0.127880
v -0.212358 0.082739 0.286131
v -0.350631 0.214077 0.216565
v -0.451510 0.228261 0.165096
v -0.477428 0.179797 0.174377
v -0.458224 0.122456 0.217299
v -0.295329 0.094561 0.296420
v -0.201515 0.132994 0.251745
v -0.298019 0.220547 0.208740
v -0.161538 0.096408 0.256988
v -0.158297 0.000580 0.284638
v -0.382121 0.176821 0.234134
v -0.263256 0.057404 0.308507
v -0.502266 0.233877 0.109103
v -0.367265 0.292753 0.142135
v -0.235565 0.166440 0.240094
v -0.403624 0.088131 0.271236
v -0.133845 0.052740 0.264207
v -0.407646 0.135088 0.250088
v -0.219973 0.042671 0.317285
v -0.331553 0.176590 0.249042
v -0.340246 0.000749 0.310876
v -0.315824 0.047975 0.312616
v -0.412376 0.041340 0.283322
v -0.365500 0.129837 0.271821
v -0.459477 0.383172 0.000000
v -0.111467 0.000399 0.259807
v -0.089240 0.043136 0.239936
v -0.565910 0.196184 0.000000
v -0.281654 0.178293 0.246674
v -0.530115 0.180932 0.105564
v 0.424880 0.425123 0.000000
v 0.189122 0.189697 0.181899
v 0.112752 0.589084 0.000000
v 0.155743 0.578763 0.000000
v 0.289984 0.525061 0.000000
v 0.221684 0.405945 0.201359
v 0.053076 0.596730 0.000000
v 0.058652 0.460856 0.241925
v 0.311972 0.312238 0.107783
v 0.238963 0.549565 0.000000
v 0.098719 0.098370 0.206232
v 0.280660 0.423063 0.139761
v 0.139802 0.501329 0.170020
v 0.045996 0.515384 0.181114
v 0.330445 0.500267 0.000000
v 0.112052 0.249952 0.284160
v 0.093477 0.502716 0.186671
v 0.281733 0.475693 0.107901
v 0.088607 0.348254 0.294108
v 0.271802 0.272219 0.137365
v 0.331307 0.402964 0.100020
v 0.077830 0.549120 0.120670
v 0.175542 0.430970 0.215824
v 0.141463 0.277173 0.267171
v 0.253833 0.377190 0.183503
v 0.032364 0.564593 0.089162
v 0.375035 0.424315 0.047142
v 0.389801 0.389799 0.036896
v 0.134591 0.318852 0.276456
v 0.156082 0.156548 0.193459
v 0.257301 0.332150 0.181783
v 0.127396 0.551036 0.099242
v 0.325920 0.447652 0.091096
v 0.046505 0.369446 0.302425
v 0.052893 0.177958 0.293082
v 0.082521 0.215426 0.310218
v 0.218524 0.353861 0.198653
v 0.351546 0.351345 0.074402
v 0.228820 0.453149 0.165222
v 0.228913 0.229602 0.163462
v 0.180312 0.479337 0.174783
v 0.122628 0.458610 0.220736
v 0.094843 0.298039 0.298140
v 0.132705 0.203606 0.253964
v 0.219520 0.300246 0.208647
v 0.103416 0.156855 0.250467
v 0.181118 0.384498 0.234350
v 0.059182 0.266906 0.314009
v 0.235073 0.505244 0.110172
v 0.127416 0.127411 0.200680
v 0.292467 0.369153 0.142091
v 0.166663 0.237037 0.241156
v 0.088770 0.405670 0.271704
v 0.054380 0.133434 0.266552
v 0.135219 0.408294 0.249047
v 0.041824 0.224524 0.308058
v 0.177366 0.332335 0.259013
v 0.035332 0.034774 0.212552
v 0.048919 0.318897 0.312797
v 0.041601 0.414351 0.282765
v 0.129802 0.366290 0.271187
v 0.382930 0.460952 0.000000
v 0.044370 0.089182 0.241537
v 0.069080 0.068522 0.209896
v 0.195941 0.567385 0.000000
v 0.180210 0.283145 0.257758
v 0.181220 0.531687 0.110880
v 0.588842 0.112995 0.000000
v 0.578520 0.155985 0.000000
v 0.524819 0.290227 0.000000
v 0.402594 0.218117 0.198845
v 0.596487 0.053319 0.000000
v 0.460922 0.058376 0.242840
v 0.549323 0.239205 0.000000
v 0.419724 0.275620 0.145667
v 0.498825 0.139087 0.176277
v 0.515064 0.046169 0.181379
v 0.500025 0.330686 0.000000
v 0.247625 0.114068 0.286183
v 0.502211 0.093357 0.187473
v 0.476621 0.282495 0.097697
v 0.348211 0.089713 0.296143
v 0.403260 0.333871 0.091072
v 0.549382 0.078576 0.116817
v 0.431777 0.176523 0.217634
v 0.278347 0.139104 0.283208
v 0.374813 0.251126 0.180581
v 0.563934 0.032716 0.089221
v 0.424431 0.375567 0.047706
v 0.319647 0.136749 0.275472
v 0.329286 0.264137 0.170395
v 0.544601 0.126016 0.110353
v 0.447414 0.326135 0.080896
v 0.368446 0.046375 0.297763
v 0.181675 0.049923 0.287067
v 0.213698 0.083586 0.287770
v 0.351171 0.216020 0.218347
v 0.452141 0.228220 0.165050
v 0.478868 0.180307 0.176093
v 0.454114 0.121117 0.226824
v 0.296806 0.094450 0.307799
v 0.202724 0.133415 0.252546
v 0.298630 0.221633 0.209854
v 0.162724 0.096859 0.255885
v 0.381396 0.176846 0.259369
v 0.264964 0.057677 0.307344
v 0.503235 0.233946 0.109234
v 0.368310 0.293663 0.143139
v 0.236914 0.166351 0.240278
v 0.404476 0.088187 0.283265
v 0.135979 0.052327 0.264031
v 0.409888 0.137143 0.249264
v 0.221962 0.042345 0.301620
v 0.332207 0.177686 0.259771
v 0.317478 0.048613 0.308336
v 0.414540 0.041441 0.277720
v 0.367515 0.132264 0.265561
v 0.460709 0.383172 0.000000
v 0.091087 0.042821 0.240025
v 0.567143 0.196184 0.000000
v 0.281829 0.181034 0.243289
v 0.531202 0.180862 0.105759
v -0.423648 -0.423406 0.000000
v -0.187629 -0.188119 0.181698
v -0.111519 -0.587366 0.000000
v -0.154511 -0.577046 0.000000
v -0.288752 -0.523343 0.000000
v -0.218400 -0.402759 0.200833
v -0.051844 -0.595012 0.000000
v -0.057515 -0.462361 0.236487
v -0.310354 -0.310831 0.107608
v -0.237731 -0.547848 0.000000
v -0.097074 -0.097294 0.206598
v -0.274775 -0.419347 0.146195
v -0.138628 -0.500461 0.170893
v -0.044451 -0.513323 0.180407
v -0.329212 -0.498550 0.000000
v -0.112080 -0.248631 0.283725
v -0.091916 -0.501173 0.187115
v -0.281514 -0.475980 0.098040
v -0.087160 -0.346512 0.301354
v -0.270239 -0.270790 0.136960
v -0.333869 -0.402434 0.090689
v -0.078772 -0.559295 0.093231
v -0.174537 -0.430214 0.216697
v -0.138998 -0.277060 0.271337
v -0.250268 -0.374590 0.185708
v -0.030269 -0.563609 0.089540
v -0.374214 -0.423108 0.047723
v -0.388278 -0.388406 0.036919
v -0.133755 -0.317622 0.276431
v -0.154674 -0.154868 0.193433
v -0.257989 -0.329760 0.178492
v -0.125394 -0.544825 0.109735
v -0.324591 -0.446161 0.083416
v -0.045111 -0.368322 0.298549
v -0.048016 -0.181446 0.299142
v -0.084270 -0.212941 0.291082
v -0.214982 -0.350863 0.216271
v -0.349328 -0.350487 0.074266
v -0.227219 -0.451584 0.165564
v -0.227522 -0.228117 0.163058
v -0.178989 -0.478180 0.175263
v -0.120004 -0.453825 0.226786
v -0.094435 -0.296211 0.298548
v -0.132100 -0.201493 0.253076
v -0.219395 -0.298547 0.211754
v -0.092121 -0.164019 0.268337
v -0.173258 -0.380112 0.240730
v -0.056756 -0.265055 0.317217
v -0.232930 -0.502434 0.109532
v -0.125955 -0.125991 0.200912
v -0.291223 -0.367412 0.145014
v -0.173575 -0.231428 0.230187
v -0.088013 -0.405889 0.271181
v -0.050702 -0.133184 0.265943
v -0.135032 -0.408704 0.248842
v -0.043015 -0.221016 0.309376
v -0.175667 -0.330993 0.249651
v -0.033522 -0.033712 0.212716
v -0.047522 -0.317213 0.311327
v -0.041942 -0.420694 0.272323
v -0.127997 -0.364772 0.270293
v -0.381698 -0.459234 0.000000
v -0.041560 -0.088861 0.240791
v -0.067257 -0.067522 0.210176
v -0.194710 -0.565668 0.000000
v -0.180462 -0.281231 0.243647
v -0.180503 -0.531651 0.103231
v -0.587609 -0.111278 0.000000
v -0.577288 -0.154268 0.000000
v -0.523586 -0.288510 0.000000
v -0.402112 -0.217434 0.199513
v -0.595255 -0.051602 0.000000
v -0.463873 -0.057232 0.234461
v -0.548091 -0.237488 0.000000
v -0.418375 -0.274757 0.145780
v -0.499844 -0.137942 0.169937
v -0.513550 -0.044597 0.181043
v -0.498792 -0.328969 0.000000
v -0.248473 -0.111216 0.282667
v -0.500974 -0.091824 0.186816
v -0.473256 -0.278973 0.118894
v -0.346508 -0.087086 0.289735
v -0.401074 -0.328376 0.109272
v -0.549783 -0.076613 0.113692
v -0.429682 -0.173735 0.215576
v -0.276629 -0.138961 0.271234
v -0.374326 -0.250708 0.181848
v -0.560760 -0.030735 0.094506
v -0.423000 -0.373625 0.047216
v -0.317205 -0.134081 0.277390
v -0.329723 -0.256542 0.179656
v -0.544576 -0.123978 0.110702
v -0.448817 -0.327494 0.082680
v -0.367155 -0.044425 0.300703
v -0.175379 -0.052548 0.281439
v -0.213496 -0.082268 0.287691
v -0.350091 -0.212944 0.216890
v -0.450587 -0.226040 0.163935
v -0.481093 -0.180193 0.169407
v -0.453881 -0.119636 0.226521
v -0.295971 -0.092818 0.295753
v -0.202075 -0.131361 0.251638
v -0.297583 -0.219781 0.209011
v -0.159958 -0.097009 0.251071
v -0.379430 -0.172116 0.239262
v -0.264096 -0.056191 0.307617
v -0.504739 -0.233316 0.110659
v -0.366768 -0.293629 0.138026
v -0.235789 -0.164658 0.239511
v -0.403826 -0.086465 0.269635
v -0.131711 -0.053697 0.258874
v -0.408242 -0.134378 0.250866
v -0.221540 -0.040534 0.302184
v -0.330343 -0.174795 0.248491
v -0.316407 -0.046898 0.309953
v -0.413461 -0.039692 0.277566
v -0.364431 -0.128000 0.279758
v -0.459477 -0.381455 0.000000
v -0.088889 -0.042020 0.240507
v -0.565910 -0.194467 0.000000
v -0.280627 -0.179370 0.242388
v -0.529282 -0.178426 0.115747
v 0.000616 -0.599141 0.000000
v 0.424880 -0.423406 0.000000
v 0.189388 -0.188097 0.181360
v 0.000152 -0.294327 0.317957
v 0.112752 -0.587366 0.000000
v 0.155743 -0.577046 0.000000
v 0.289984 -0.523343 0.000000
v 0.219413 -0.402267 0.199912
v 0.053076 -0.595012 0.000000
v 0.058378 -0.458040 0.240530
v 0.312054 -0.310590 0.107638
v 0.238963 -0.547848 0.000000
v 0.000978 -0.440878 0.263680
v 0.098721 -0.097309 0.206230
v 0.275627 -0.418829 0.145408
v 0.000288 -0.201613 0.316790
v 0.139748 -0.500016 0.169629
v 0.046192 -0.516897 0.174352
v 0.330445 -0.498550 0.000000
v 0.112028 -0.248276 0.282497
v 0.094098 -0.506722 0.177255
v 0.282973 -0.476011 0.097974
v 0.091153 -0.349251 0.289160
v 0.272024 -0.270694 0.136999
v 0.000968 -0.054091 0.230747
v 0.329657 -0.401335 0.098580
v 0.077986 -0.550041 0.114168
v 0.001043 -0.486475 0.219689
v 0.175248 -0.429223 0.215394
v 0.138898 -0.277345 0.280466
v 0.000511 -0.389914 0.294384
v 0.252137 -0.374481 0.181654
v 0.032199 -0.562920 0.089413
v 0.374631 -0.422817 0.046963
v 0.389894 -0.388189 0.037139
v 0.134722 -0.317765 0.279124
v -0.000019 -0.248007 0.316335
v 0.156280 -0.154938 0.192987
v 0.259317 -0.329866 0.177886
v 0.126952 -0.549875 0.097869
v 0.326990 -0.447431 0.081548
v 0.045905 -0.368188 0.299397
v 0.049749 -0.180186 0.287285
v 0.000531 -0.546257 0.127622
v 0.083340 -0.212804 0.287384
v 0.214119 -0.349972 0.216123
v 0.351363 -0.349787 0.074331
v 0.228426 -0.451242 0.165085
v 0.229220 -0.227984 0.162997
v 0.180212 -0.477768 0.174878
v 0.120572 -0.452500 0.225031
v 0.093614 -0.296277 0.295049
v 0.131717 -0.202669 0.255437
v 0.226853 -0.295636 0.200835
v 0.096147 -0.162007 0.257075
v 0.001425 -0.153445 0.285583
v 0.175413 -0.380147 0.237355
v 0.056594 -0.264566 0.314873
v 0.234753 -0.502617 0.109595
v 0.127455 -0.126165 0.200496
v 0.293135 -0.367343 0.142332
v 0.166440 -0.235650 0.239919
v 0.088933 -0.404593 0.268024
v 0.052637 -0.134283 0.264431
v 0.135479 -0.407061 0.249445
v 0.041980 -0.221043 0.304123
v 0.176073 -0.330454 0.247925
v 0.000257 -0.340614 0.311435
v 0.035256 -0.033703 0.212652
v 0.047874 -0.316934 0.311531
v 0.041450 -0.413413 0.277715
v 0.130528 -0.365122 0.271488
v 0.382930 -0.459234 0.000000
v 0.001153 -0.109730 0.261813
v 0.043572 -0.089110 0.240513
v 0.068981 -0.067504 0.209967
v 0.195941 -0.565668 0.000000
v 0.180610 -0.280662 0.242466
v 0.180446 -0.527905 0.118708
v 0.600616 0.000859 0.000000
v 0.295001 0.001123 0.316875
v 0.588842 -0.111278 0.000000
v 0.578520 -0.154268 0.000000
v 0.524819 -0.288510 0.000000
v 0.403618 -0.218075 0.201070
v 0.596487 -0.051602 0.000000
v 0.459702 -0.056500 0.241501
v 0.549323 -0.237488 0.000000
v 0.444647 0.000817 0.259401
v 0.420027 -0.273988 0.145732
v 0.201909 0.000513 0.306034
v 0.501317 -0.137916 0.170477
v 0.517319 -0.044426 0.177254
v 0.500025 -0.328969 0.000000
v 0.249668 -0.111190 0.282924
v 0.500877 -0.091380 0.190519
v 0.477506 -0.281003 0.098216
v 0.347052 -0.086430 0.292849
v 0.055488 0.000643 0.231315
v 0.402780 -0.328916 0.099686
v 0.549941 -0.076858 0.115932
v 0.487893 0.000693 0.219948
v 0.430688 -0.173546 0.215927
v 0.277937 -0.138701 0.271099
v 0.390170 0.000916 0.292932
v 0.377059 -0.256602 0.175613
v 0.563913 -0.030880 0.089297
v 0.426949 -0.377983 0.038117
v 0.318443 -0.133332 0.276617
v 0.247856 0.001384 0.313411
v 0.331366 -0.256668 0.177439
v 0.545084 -0.124212 0.109849
v 0.448156 -0.324308 0.085152
v 0.368555 -0.044494 0.298223
v 0.182105 -0.048460 0.299836
v 0.547228 0.001186 0.127462
v 0.215060 -0.081144 0.301242
v 0.351551 -0.213468 0.218047
v 0.450929 -0.225200 0.170922
v 0.479365 -0.178196 0.175151
v 0.454651 -0.119496 0.226743
v 0.296929 -0.093606 0.295539
v 0.203160 -0.132067 0.252046
v 0.299148 -0.219842 0.209284
v 0.164451 -0.093809 0.263304
v 0.158759 0.000713 0.286787
v 0.380836 -0.172635 0.240502
v 0.265316 -0.056024 0.310296
v 0.502286 -0.231234 0.115207
v 0.368573 -0.292025 0.142852
v 0.237118 -0.164968 0.239758
v 0.404825 -0.086705 0.271679
v 0.134938 -0.051494 0.265251
v 0.408395 -0.133780 0.250284
v 0.222475 -0.040594 0.312651
v 0.331690 -0.174988 0.249242
v 0.341143 0.001001 0.310394
v 0.317450 -0.046553 0.310007
v 0.414172 -0.039740 0.277388
v 0.365581 -0.127900 0.270993
v 0.460709 -0.381455 0.000000
v 0.110658 0.000665 0.259016
v 0.091188 -0.041364 0.241502
v 0.567143 -0.194467 0.000000
v 0.282056 -0.179380 0.243101
v 0.531978 -0.179144 0.106032
f 45 34 19
f 49 51 60
f 37 79 31
f 15 65 56
f 18 52 22
f 9 49 16
f 23 20 42
f 48 12 62
f 10 6 28
f 53 59 71
f 22 11 19
f 7 80 41
f 73 24 64
f 46 44 67
f 33 62 40
f 41 22 28
f 11 52 64
f 28 34 10
f 14 29 11
f 8 20 23
f 37 31 53
f 46 59 21
f 18 51 52
f 45 19 29
f 70 26 76
f 23 16 49
f 2 35 74
f 42 35 27
f 63 21 31
f 30 52 51
f 13 8 60
f 25 50 55
f 27 62 16
f 27 35 36
f 1 10 34
f 41 80 18
f 40 47 33
f 53 71 24
f 21 54 46
f 44 57 17
f 36 48 27
f 16 33 9
f 1 34 45
f 34 28 19
f 23 42 16
f 2 36 35
f 47 55 68
f 37 24 73
f 17 67 44
f 39 56 54
f 58 9 47
f 25 40 12
f 41 6 7
f 51 18 80
f 42 74 35
f 14 11 72
f 44 56 65
f 44 65 57
f 43 64 24
f 73 66 58
f 53 21 59
f 46 54 56
f 33 47 9
f 55 47 40
f 33 16 62
f 9 30 49
f 49 60 23
f 29 19 11
f 16 42 27
f 6 41 28
f 14 72 32
f 51 49 30
f 22 52 11
f 30 58 66
f 37 53 24
f 38 5 59
f 39 54 3
f 54 21 63
f 55 79 68
f 56 44 46
f 15 56 61
f 9 58 30
f 68 37 73
f 59 67 38
f 5 69 71
f 13 60 80
f 23 60 8
f 39 61 56
f 40 62 12
f 48 62 27
f 54 63 3
f 53 31 21
f 64 43 72
f 64 52 66
f 32 43 69
f 19 28 22
f 22 41 18
f 57 65 75
f 30 66 52
f 66 73 64
f 67 17 38
f 46 67 59
f 3 63 50
f 68 79 37
f 47 68 58
f 71 69 43
f 70 76 77
f 24 71 43
f 64 72 11
f 32 72 43
f 68 73 58
f 42 20 74
f 75 65 76
f 75 76 26
f 15 76 65
f 4 26 70
f 71 59 5
f 15 77 76
f 78 80 7
f 31 79 63
f 55 40 25
f 63 79 50
f 13 80 78
f 51 80 60
f 79 55 50
f 94 108 117
f 130 121 120
f 105 146 110
f 126 134 15
f 97 122 93
f 91 120 86
f 114 95 98
f 131 12 48
f 102 83 87
f 139 129 123
f 94 88 97
f 113 147 84
f 133 99 141
f 136 116 118
f 112 131 107
f 102 97 113
f 133 122 88
f 87 108 102
f 88 103 90
f 98 95 85
f 123 105 110
f 96 129 118
f 122 121 93
f 103 94 117
f 144 100 70
f 120 91 98
f 142 109 2
f 101 109 114
f 105 96 132
f 121 122 104
f 130 85 89
f 125 50 25
f 91 131 101
f 36 109 101
f 108 87 81
f 93 147 113
f 107 119 112
f 99 139 123
f 118 124 96
f 92 127 116
f 101 48 36
f 86 107 91
f 117 108 81
f 94 102 108
f 91 114 98
f 109 36 2
f 137 125 119
f 141 99 110
f 116 136 92
f 124 126 39
f 119 86 128
f 12 112 25
f 84 83 113
f 147 93 121
f 109 142 114
f 140 88 90
f 134 126 116
f 127 134 116
f 99 133 115
f 128 135 141
f 129 96 123
f 126 124 118
f 86 119 107
f 112 119 125
f 131 91 107
f 120 104 86
f 98 130 120
f 88 94 103
f 101 114 91
f 102 113 83
f 106 140 90
f 104 120 121
f 88 122 97
f 135 128 104
f 99 123 110
f 129 82 111
f 3 124 39
f 132 96 124
f 137 146 125
f 118 116 126
f 61 126 15
f 104 128 86
f 141 110 137
f 111 136 129
f 139 138 82
f 147 130 89
f 85 130 98
f 126 61 39
f 12 131 112
f 101 131 48
f 3 132 124
f 96 105 123
f 140 115 133
f 135 122 133
f 138 115 106
f 97 102 94
f 93 113 97
f 143 134 127
f 122 135 104
f 133 141 135
f 111 92 136
f 129 136 118
f 50 132 3
f 110 146 137
f 128 137 119
f 115 138 139
f 77 144 70
f 115 139 99
f 88 140 133
f 115 140 106
f 128 141 137
f 142 95 114
f 144 134 143
f 100 144 143
f 134 144 15
f 70 100 4
f 82 129 139
f 144 77 15
f 84 147 145
f 132 146 105
f 25 112 125
f 50 146 132
f 145 147 89
f 130 147 121
f 50 125 146
f 161 173 45
f 196 188 186
f 171 213 176
f 193 201 158
f 164 189 160
f 159 186 153
f 180 162 165
f 198 156 185
f 169 150 154
f 206 195 190
f 161 155 164
f 179 214 151
f 200 166 208
f 203 182 183
f 178 198 172
f 169 164 179
f 200 189 155
f 154 173 169
f 155 29 14
f 165 162 152
f 190 171 176
f 163 195 183
f 189 188 160
f 29 161 45
f 210 26 205
f 186 159 165
f 209 174 148
f 168 174 180
f 171 163 199
f 188 189 170
f 196 152 157
f 192 187 167
f 159 198 168
f 175 174 168
f 173 154 1
f 160 214 179
f 172 184 178
f 166 206 190
f 183 191 163
f 17 57 182
f 168 185 175
f 153 172 159
f 45 173 1
f 161 169 173
f 159 180 165
f 174 175 148
f 204 192 184
f 208 166 176
f 182 203 17
f 191 193 177
f 184 153 194
f 156 178 167
f 151 150 179
f 214 160 188
f 174 209 180
f 207 155 14
f 201 193 182
f 57 201 182
f 166 200 181
f 194 202 208
f 195 163 190
f 193 191 183
f 153 184 172
f 178 184 192
f 198 159 172
f 186 170 153
f 165 196 186
f 155 161 29
f 168 180 159
f 169 179 150
f 32 207 14
f 170 186 188
f 155 189 164
f 202 194 170
f 166 190 176
f 195 5 38
f 149 191 177
f 199 163 191
f 204 213 192
f 183 182 193
f 197 193 158
f 170 194 153
f 208 176 204
f 38 203 195
f 206 69 5
f 214 196 157
f 152 196 165
f 193 197 177
f 156 198 178
f 168 198 185
f 149 199 191
f 163 171 190
f 207 181 200
f 202 189 200
f 69 181 32
f 164 169 161
f 160 179 164
f 75 201 57
f 189 202 170
f 200 208 202
f 38 17 203
f 195 203 183
f 187 199 149
f 176 213 204
f 194 204 184
f 181 69 206
f 211 210 205
f 181 206 166
f 155 207 200
f 181 207 32
f 194 208 204
f 209 162 180
f 210 201 75
f 26 210 75
f 201 210 158
f 205 26 4
f 5 195 206
f 210 211 158
f 151 214 212
f 199 213 171
f 167 178 192
f 187 213 199
f 212 214 157
f 196 214 188
f 187 192 213
f 507 235 224
f 245 246 254
f 237 268 233
f 158 258 251
f 223 247 227
f 218 245 222
f 228 225 240
f 185 156 255
f 219 215 231
f 248 253 262
f 227 220 224
f 216 269 239
f 264 229 257
f 243 242 260
f 234 255 238
f 239 227 231
f 220 247 257
f 231 235 219
f 480 493 220
f 217 225 228
f 237 233 248
f 243 253 226
f 223 246 247
f 507 224 493
f 205 490 266
f 228 222 245
f 148 236 265
f 240 236 230
f 256 226 233
f 232 247 246
f 221 217 254
f 167 187 250
f 230 255 222
f 230 236 175
f 471 219 235
f 239 269 223
f 238 244 234
f 248 262 229
f 226 249 243
f 242 517 482
f 175 185 230
f 222 234 218
f 471 235 507
f 235 231 224
f 228 240 222
f 148 175 236
f 244 250 261
f 237 229 264
f 482 260 242
f 177 251 249
f 252 218 244
f 167 238 156
f 239 215 216
f 246 223 269
f 240 265 236
f 480 220 263
f 242 251 258
f 242 258 517
f 241 257 229
f 264 259 252
f 248 226 253
f 243 249 251
f 234 244 218
f 250 244 238
f 234 222 255
f 218 232 245
f 245 254 228
f 493 224 220
f 222 240 230
f 215 239 231
f 480 263 496
f 246 245 232
f 227 247 220
f 232 252 259
f 237 248 229
f 501 472 253
f 177 249 149
f 249 226 256
f 250 268 261
f 251 242 243
f 158 251 197
f 218 252 232
f 261 237 264
f 253 260 501
f 472 528 262
f 221 254 269
f 228 254 217
f 177 197 251
f 238 255 156
f 185 255 230
f 249 256 149
f 248 233 226
f 257 241 263
f 257 247 259
f 496 241 528
f 224 231 227
f 227 239 223
f 517 258 533
f 232 259 247
f 259 264 257
f 260 482 501
f 243 260 253
f 149 256 187
f 261 268 237
f 244 261 252
f 262 528 241
f 205 266 211
f 229 262 241
f 257 263 220
f 496 263 241
f 261 264 252
f 240 225 265
f 533 258 266
f 533 266 490
f 158 266 258
f 4 490 205
f 262 253 472
f 158 211 266
f 267 269 216
f 233 268 256
f 250 238 167
f 256 268 187
f 221 269 267
f 246 269 254
f 268 250 187
f 283 295 435
f 318 310 308
f 293 335 298
f 315 323 280
f 286 311 282
f 281 308 275
f 302 284 287
f 320 278 307
f 291 272 276
f 328 317 312
f 283 277 286
f 301 336 273
f 322 288 330
f 325 304 305
f 300 320 294
f 291 286 301
f 322 311 277
f 276 295 291
f 277 419 404
f 287 284 274
f 312 293 298
f 285 317 305
f 311 310 282
f 419 283 435
f 332 416 327
f 308 281 287
f 331 296 270
f 290 296 302
f 293 285 321
f 310 311 292
f 318 274 279
f 314 309 289
f 281 320 290
f 297 296 290
f 295 276 392
f 282 336 301
f 294 306 300
f 288 328 312
f 305 313 285
f 407 447 304
f 290 307 297
f 275 294 281
f 435 295 392
f 283 291 295
f 281 302 287
f 296 297 270
f 326 314 306
f 330 288 298
f 304 325 407
f 313 315 299
f 306 275 316
f 278 300 289
f 273 272 301
f 336 282 310
f 296 331 302
f 329 277 404
f 323 315 304
f 447 323 304
f 288 322 303
f 316 324 330
f 317 285 312
f 315 313 305
f 275 306 294
f 300 306 314
f 320 281 294
f 308 292 275
f 287 318 308
f 277 283 419
f 290 302 281
f 291 301 272
f 422 329 404
f 292 308 310
f 277 311 286
f 324 316 292
f 288 312 298
f 317 395 428
f 271 313 299
f 321 285 313
f 326 335 314
f 305 304 315
f 319 315 280
f 292 316 275
f 330 298 326
f 428 325 317
f 328 459 395
f 336 318 279
f 274 318 287
f 315 319 299
f 278 320 300
f 290 320 307
f 271 321 313
f 285 293 312
f 329 303 322
f 324 311 322
f 459 303 422
f 286 291 283
f 282 301 286
f 465 323 447
f 311 324 292
f 322 330 324
f 428 407 325
f 317 325 305
f 309 321 271
f 298 335 326
f 316 326 306
f 303 459 328
f 333 332 327
f 303 328 288
f 277 329 322
f 303 329 422
f 316 330 326
f 331 284 302
f 332 323 465
f 416 332 465
f 323 332 280
f 327 416 4
f 395 317 328
f 332 333 280
f 273 336 334
f 321 335 293
f 289 300 314
f 309 335 321
f 334 336 279
f 318 336 310
f 309 314 335
f 117 357 346
f 367 368 376
f 359 390 355
f 280 380 373
f 345 369 349
f 340 367 344
f 350 347 362
f 307 278 377
f 341 337 353
f 370 375 384
f 349 342 346
f 338 391 361
f 386 351 379
f 365 364 382
f 356 377 360
f 361 349 353
f 342 369 379
f 353 357 341
f 90 103 342
f 339 347 350
f 359 355 370
f 365 375 348
f 345 368 369
f 117 346 103
f 327 100 388
f 350 344 367
f 270 358 387
f 362 358 352
f 378 348 355
f 354 369 368
f 343 339 376
f 289 309 372
f 352 377 344
f 352 358 297
f 81 341 357
f 361 391 345
f 360 366 356
f 370 384 351
f 348 371 365
f 364 127 92
f 297 307 352
f 344 356 340
f 81 357 117
f 357 353 346
f 350 362 344
f 270 297 358
f 366 372 383
f 359 351 386
f 92 382 364
f 299 373 371
f 374 340 366
f 289 360 278
f 361 337 338
f 368 345 391
f 362 387 358
f 90 342 385
f 364 373 380
f 364 380 127
f 363 379 351
f 386 381 374
f 370 348 375
f 365 371 373
f 356 366 340
f 372 366 360
f 356 344 377
f 340 354 367
f 367 376 350
f 103 346 342
f 344 362 352
f 337 361 353
f 90 385 106
f 368 367 354
f 349 369 342
f 354 374 381
f 359 370 351
f 111 82 375
f 299 371 271
f 371 348 378
f 372 390 383
f 373 364 365
f 280 373 319
f 340 374 354
f 383 359 386
f 375 382 111
f 82 138 384
f 343 376 391
f 350 376 339
f 299 319 373
f 360 377 278
f 307 377 352
f 371 378 271
f 370 355 348
f 379 363 385
f 379 369 381
f 106 363 138
f 346 353 349
f 349 361 345
f 127 380 143
f 354 381 369
f 381 386 379
f 382 92 111
f 365 382 375
f 271 378 309
f 383 390 359
f 366 383 374
f 384 138 363
f 327 388 333
f 351 384 363
f 379 385 342
f 106 385 363
f 383 386 374
f 362 347 387
f 143 380 388
f 143 388 100
f 280 388 380
f 4 100 327
f 384 375 82
f 280 333 388
f 389 391 338
f 355 390 378
f 372 360 289
f 378 390 309
f 343 391 389
f 368 391 376
f 390 372 309
f 435 424 409
f 439 441 450
f 427 469 421
f 405 455 446
f 408 442 412
f 399 439 406
f 413 410 432
f 438 402 452
f 400 396 418
f 443 449 461
f 412 401 409
f 397 470 431
f 463 414 454
f 436 434 457
f 423 452 430
f 431 412 418
f 401 442 454
f 418 424 400
f 404 419 401
f 398 410 413
f 427 421 443
f 436 449 411
f 408 441 442
f 435 409 419
f 460 416 466
f 413 406 439
f 393 425 464
f 432 425 417
f 453 411 421
f 420 442 441
f 403 398 450
f 415 440 445
f 417 452 406
f 417 425 426
f 392 400 424
f 431 470 408
f 430 437 423
f 443 461 414
f 411 444 436
f 434 447 407
f 426 438 417
f 406 423 399
f 392 424 435
f 424 418 409
f 413 432 406
f 393 426 425
f 437 445 458
f 427 414 463
f 407 457 434
f 429 446 444
f 448 399 437
f 415 430 402
f 431 396 397
f 441 408 470
f 432 464 425
f 404 401 462
f 434 446 455
f 434 455 447
f 433 454 414
f 463 456 448
f 443 411 449
f 436 444 446
f 423 437 399
f 445 437 430
f 423 406 452
f 399 420 439
f 439 450 413
f 419 409 401
f 406 432 417
f 396 431 418
f 404 462 422
f 441 439 420
f 412 442 401
f 420 448 456
f 427 443 414
f 428 395 449
f 429 444 394
f 444 411 453
f 445 469 458
f 446 434 436
f 405 446 451
f 399 448 420
f 458 427 463
f 449 457 428
f 395 459 461
f 403 450 470
f 413 450 398
f 429 451 446
f 430 452 402
f 438 452 417
f 444 453 394
f 443 421 411
f 454 433 462
f 454 442 456
f 422 433 459
f 409 418 412
f 412 431 408
f 447 455 465
f 420 456 442
f 456 463 454
f 457 407 428
f 436 457 449
f 394 453 440
f 458 469 427
f 437 458 448
f 461 459 433
f 460 466 467
f 414 461 433
f 454 462 401
f 422 462 433
f 458 463 448
f 432 410 464
f 465 455 466
f 465 466 416
f 405 466 455
f 4 416 460
f 461 449 395
f 405 467 466
f 468 470 397
f 421 469 453
f 445 430 415
f 453 469 440
f 403 470 468
f 441 470 450
f 469 445 440
f 484 498 507
f 520 511 510
f 495 536 500
f 516 524 405
f 487 512 483
f 481 510 476
f 504 485 488
f 521 402 438
f 492 473 477
f 529 519 513
f 484 478 487
f 503 537 474
f 523 489 531
f 526 506 508
f 502 521 497
f 492 487 503
f 523 512 478
f 477 498 492
f 478 493 480
f 488 485 475
f 513 495 500
f 486 519 508
f 512 511 483
f 493 484 507
f 534 490 460
f 510 481 488
f 532 499 393
f 491 499 504
f 495 486 522
f 511 512 494
f 520 475 479
f 515 440 415
f 481 521 491
f 426 499 491
f 498 477 471
f 483 537 503
f 497 509 502
f 489 529 513
f 508 514 486
f 482 517 506
f 491 438 426
f 476 497 481
f 507 498 471
f 484 492 498
f 481 504 488
f 499 426 393
f 527 515 509
f 531 489 500
f 506 526 482
f 514 516 429
f 509 476 518
f 402 502 415
f 474 473 503
f 537 483 511
f 499 532 504
f 530 478 480
f 524 516 506
f 517 524 506
f 489 523 505
f 518 525 531
f 519 486 513
f 516 514 508
f 476 509 497
f 502 509 515
f 521 481 497
f 510 494 476
f 488 520 510
f 478 484 493
f 491 504 481
f 492 503 473
f 496 530 480
f 494 510 511
f 478 512 487
f 525 518 494
f 489 513 500
f 519 472 501
f 394 514 429
f 522 486 514
f 527 536 515
f 508 506 516
f 451 516 405
f 494 518 476
f 531 500 527
f 501 526 519
f 529 528 472
f 537 520 479
f 475 520 488
f 516 451 429
f 402 521 502
f 491 521 438
f 394 522 514
f 486 495 513
f 530 505 523
f 525 512 523
f 528 505 496
f 487 492 484
f 483 503 487
f 533 524 517
f 512 525 494
f 523 531 525
f 501 482 526
f 519 526 508
f 440 522 394
f 500 536 527
f 518 527 509
f 505 528 529
f 467 534 460
f 505 529 489
f 478 530 523
f 505 530 496
f 518 531 527
f 532 485 504
f 534 524 533
f 490 534 533
f 524 534 405
f 460 490 4
f 472 519 529
f 534 467 405
f 474 537 535
f 522 536 495
f 415 502 515
f 440 536 522
f 535 537 479
f 520 537 511
f 440 515 536
