# 4part FEM knit+cable best fit (4part_s_pw_split90_x15)
# interior RMSE  : 3.414 mm
# max deviation  : 14.091 mm
# crown          : 0.32023 m (target 0.32177 m)
# max disp/rest  : 14.091 mm (floor 5.0 mm)
# regions        : 8 (2 D4 slots), 7 parameters
v 0.000616 0.600859 0.000000
v -0.423648 0.425123 0.000000
v -0.187607 0.189598 0.180712
v 0.001085 0.000591 0.211629
v 0.001402 0.294992 0.320229
v -0.111519 0.589084 0.000000
v -0.154511 0.578763 0.000000
v -0.288752 0.525061 0.000000
v -0.220191 0.403350 0.202731
v -0.051844 0.596730 0.000000
v -0.056981 0.464368 0.240023
v -0.310503 0.312453 0.106682
v -0.237731 0.549565 0.000000
v 0.001385 0.440509 0.270133
v -0.096779 0.098524 0.205013
v -0.275622 0.418824 0.146467
v 0.002286 0.201869 0.316762
v -0.143246 0.506226 0.162362
v -0.044815 0.514503 0.182959
v -0.329212 0.500267 0.000000
v -0.110861 0.247931 0.286920
v -0.092401 0.499926 0.200005
v -0.277574 0.471315 0.093385
v -0.086702 0.347605 0.292355
v -0.270385 0.272477 0.136167
v 0.001426 0.055413 0.230625
v -0.329587 0.402097 0.099912
v -0.078885 0.546039 0.112204
v 0.001146 0.487475 0.222260
v -0.176320 0.431101 0.218889
v -0.137766 0.277284 0.285963
v 0.001190 0.391152 0.298023
v -0.252499 0.375110 0.183632
v -0.032193 0.560461 0.090786
v -0.370231 0.422861 0.044599
v -0.389680 0.391328 0.037319
v -0.134274 0.317892 0.280135
v 0.001689 0.248691 0.319020
v -0.154352 0.156280 0.192142
v -0.259212 0.330640 0.179294
v -0.125362 0.538298 0.107541
v -0.327213 0.449386 0.066726
v -0.044023 0.369007 0.303732
v -0.047099 0.180811 0.288845
v 0.000620 0.544799 0.126898
v -0.080740 0.213346 0.289276
v -0.213906 0.351216 0.218611
v -0.350104 0.351921 0.073538
v -0.227342 0.450068 0.169522
v -0.227465 0.229810 0.162430
v -0.180705 0.478050 0.175882
v -0.120784 0.452901 0.239430
v -0.091776 0.296244 0.298119
v -0.129922 0.203251 0.258964
v -0.225387 0.297353 0.203803
v -0.094606 0.162320 0.258216
v 0.002351 0.157864 0.287996
v -0.178402 0.383827 0.240118
v -0.054591 0.264645 0.309945
v -0.229713 0.496373 0.104694
v -0.125522 0.127420 0.199460
v -0.293903 0.367892 0.144192
v -0.163087 0.237280 0.247360
v -0.086384 0.404232 0.273187
v -0.048917 0.136213 0.272976
v -0.139416 0.411942 0.252397
v -0.038122 0.222465 0.306520
v -0.175411 0.332188 0.256198
v 0.001168 0.341317 0.313831
v -0.033418 0.035063 0.211122
v -0.048725 0.318531 0.311350
v -0.039403 0.414863 0.280878
v -0.128419 0.365072 0.282579
v -0.381698 0.460952 0.000000
v 0.001550 0.111921 0.274630
v -0.040662 0.090920 0.245331
v -0.067096 0.068716 0.208572
v -0.194710 0.567385 0.000000
v -0.186053 0.280196 0.238776
v -0.178033 0.524253 0.100595
v -0.599383 0.000859 0.000000
v -0.293158 0.000235 0.319615
v -0.587609 0.112995 0.000000
v -0.577288 0.155985 0.000000
v -0.523586 0.290227 0.000000
v -0.401196 0.220893 0.201650
v -0.595255 0.053319 0.000000
v -0.458171 0.057934 0.244228
v -0.548091 0.239205 0.000000
v -0.441706 0.000415 0.262822
v -0.416797 0.276603 0.145931
v -0.199640 0.000576 0.303874
v -0.497251 0.141490 0.170153
v -0.516225 0.046830 0.171441
v -0.498792 0.330686 0.000000
v -0.245265 0.114259 0.278450
v -0.502166 0.094739 0.179857
v -0.471243 0.280682 0.087991
v -0.345430 0.087854 0.296026
v -0.053817 0.000542 0.230209
v -0.400145 0.331281 0.099827
v -0.543354 0.080263 0.111564
v -0.489171 0.000361 0.214085
v -0.430005 0.177759 0.211934
v -0.276889 0.141041 0.303632
v -0.388694 0.000588 0.296048
v -0.372889 0.253076 0.182378
v -0.559344 0.033635 0.087825
v -0.421116 0.371789 0.044780
v -0.317696 0.136229 0.263245
v -0.245065 -0.000328 0.314838
v -0.328128 0.262002 0.174978
v -0.535648 0.126502 0.106940
v -0.442912 0.323272 0.077212
v -0.367061 0.046145 0.302259
v -0.177889 0.049904 0.289412
v -0.542615 0.000934 0.126550
v -0.211338 0.082489 0.287994
v -0.349501 0.215780 0.218657
v -0.448924 0.229255 0.165317
v -0.474953 0.181339 0.174858
v -0.457167 0.124292 0.219332
v -0.294513 0.093973 0.298928
v -0.200633 0.133194 0.252543
v -0.296997 0.222010 0.210098
v -0.160704 0.096327 0.257499
v -0.157361 0.000342 0.285016
v -0.381240 0.178406 0.236668
v -0.262310 0.056512 0.310224
v -0.493858 0.230882 0.104154
v -0.365902 0.295078 0.143759
v -0.234805 0.166748 0.240885
v -0.403208 0.088042 0.274470
v -0.133194 0.052196 0.264545
v -0.406866 0.136131 0.252775
v -0.218875 0.041828 0.318627
v -0.330589 0.177537 0.251029
v -0.339477 0.000491 0.313496
v -0.314918 0.047453 0.314824
v -0.411832 0.040909 0.286062
v -0.364726 0.130252 0.274517
v -0.459477 0.383172 0.000000
v -0.110822 0.000251 0.259731
v -0.088691 0.042933 0.239659
v -0.565910 0.196184 0.000000
v -0.280692 0.179443 0.248534
v -0.521119 0.178949 0.101634
v 0.424880 0.425123 0.000000
v 0.189619 0.189987 0.180346
v 0.112752 0.589084 0.000000
v 0.155743 0.578763 0.000000
v 0.289984 0.525061 0.000000
v 0.224260 0.405076 0.203391
v 0.053076 0.596730 0.000000
v 0.059003 0.460366 0.244346
v 0.312810 0.312937 0.105826
v 0.238963 0.549565 0.000000
v 0.099010 0.098465 0.204702
v 0.282373 0.421505 0.140526
v 0.142004 0.499203 0.170660
v 0.046693 0.513827 0.182208
v 0.330445 0.500267 0.000000
v 0.112832 0.249224 0.285618
v 0.094766 0.501241 0.188126
v 0.277997 0.469858 0.103474
v 0.088635 0.347657 0.296758
v 0.272613 0.272817 0.135429
v 0.331539 0.402707 0.096379
v 0.079676 0.544069 0.118187
v 0.177696 0.429997 0.217887
v 0.143009 0.276476 0.269532
v 0.256604 0.376295 0.184840
v 0.033268 0.560819 0.090778
v 0.376395 0.425718 0.047694
v 0.391575 0.391476 0.038050
v 0.135886 0.318237 0.279436
v 0.156430 0.156687 0.191959
v 0.259924 0.331540 0.182212
v 0.128349 0.543759 0.096957
v 0.321719 0.444367 0.088139
v 0.046602 0.368653 0.304552
v 0.052538 0.178058 0.293451
v 0.082931 0.214443 0.311569
v 0.221706 0.353241 0.200700
v 0.352566 0.352245 0.072793
v 0.230285 0.451133 0.165896
v 0.229603 0.230115 0.161777
v 0.182158 0.477197 0.175492
v 0.124847 0.457792 0.222979
v 0.094884 0.297311 0.300360
v 0.133787 0.202997 0.254468
v 0.222423 0.299618 0.209914
v 0.103729 0.156670 0.250074
v 0.183215 0.383703 0.236399
v 0.058766 0.265753 0.314932
v 0.232159 0.497757 0.106049
v 0.127736 0.127520 0.199159
v 0.295793 0.368715 0.142548
v 0.167858 0.236587 0.241554
v 0.089130 0.405228 0.274636
v 0.054324 0.133281 0.266612
v 0.136802 0.407674 0.251732
v 0.042166 0.222523 0.314811
v 0.178854 0.331506 0.260840
v 0.035757 0.034978 0.210883
v 0.048881 0.317862 0.314314
v 0.041707 0.413784 0.285303
v 0.130832 0.365643 0.273860
v 0.382930 0.460952 0.000000
v 0.044680 0.089074 0.240991
v 0.069385 0.068637 0.208309
v 0.195941 0.567385 0.000000
v 0.181863 0.282367 0.259034
v 0.179454 0.522997 0.106573
v 0.588842 0.112995 0.000000
v 0.578520 0.155985 0.000000
v 0.524819 0.290227 0.000000
v 0.401944 0.220947 0.200956
v 0.596487 0.053319 0.000000
v 0.460820 0.058695 0.245292
v 0.549323 0.239205 0.000000
v 0.418735 0.277903 0.146814
v 0.497227 0.141290 0.176929
v 0.513812 0.046643 0.182630
v 0.500025 0.330686 0.000000
v 0.247574 0.114072 0.286980
v 0.501207 0.094564 0.188917
v 0.470796 0.278869 0.093693
v 0.347989 0.089135 0.298044
v 0.403262 0.334698 0.087997
v 0.544314 0.080224 0.114665
v 0.430637 0.178298 0.219129
v 0.278072 0.139601 0.284699
v 0.374297 0.254304 0.182379
v 0.560004 0.033636 0.090740
v 0.425910 0.376542 0.048070
v 0.319626 0.137799 0.277906
v 0.329063 0.266635 0.170609
v 0.537728 0.126764 0.107521
v 0.444188 0.322246 0.077984
v 0.368506 0.046228 0.300827
v 0.181552 0.049465 0.287839
v 0.213625 0.083291 0.288637
v 0.350746 0.218867 0.220397
v 0.450450 0.229894 0.165726
v 0.476871 0.182147 0.176638
v 0.453709 0.123213 0.229093
v 0.296628 0.093987 0.309731
v 0.202716 0.133744 0.252541
v 0.298441 0.223493 0.210451
v 0.162711 0.096969 0.255750
v 0.381006 0.178771 0.261632
v 0.264708 0.057175 0.309332
v 0.495763 0.231139 0.104835
v 0.368088 0.296028 0.142898
v 0.236932 0.167036 0.240388
v 0.404522 0.088164 0.286062
v 0.135977 0.052070 0.264038
v 0.410017 0.138893 0.252411
v 0.221657 0.041922 0.302922
v 0.331949 0.179050 0.261396
v 0.317304 0.048386 0.311139
v 0.414863 0.041342 0.281012
v 0.367830 0.133780 0.269224
v 0.460709 0.383172 0.000000
v 0.091203 0.042813 0.239348
v 0.567143 0.196184 0.000000
v 0.281703 0.182356 0.244216
v 0.523027 0.179214 0.102242
v -0.423648 -0.423406 0.000000
v -0.187591 -0.188261 0.180362
v -0.111519 -0.587366 0.000000
v -0.154511 -0.577046 0.000000
v -0.288752 -0.523343 0.000000
v -0.220192 -0.401697 0.202493
v -0.051844 -0.595012 0.000000
v -0.057763 -0.462180 0.239431
v -0.310743 -0.311197 0.106097
v -0.237731 -0.547848 0.000000
v -0.096832 -0.097291 0.205202
v -0.276373 -0.417811 0.147118
v -0.140373 -0.498124 0.170873
v -0.044980 -0.512189 0.182617
v -0.329212 -0.498550 0.000000
v -0.112277 -0.248054 0.285170
v -0.092933 -0.500150 0.189087
v -0.277514 -0.469721 0.093894
v -0.086743 -0.346075 0.303940
v -0.270472 -0.271111 0.135384
v -0.334075 -0.401926 0.087456
v -0.080116 -0.553708 0.092249
v -0.176175 -0.429259 0.218572
v -0.139648 -0.276525 0.273072
v -0.252477 -0.373556 0.187140
v -0.031630 -0.559424 0.090595
v -0.375005 -0.424414 0.048037
v -0.389527 -0.390102 0.037622
v -0.134398 -0.317173 0.278788
v -0.154502 -0.154912 0.192121
v -0.259783 -0.329082 0.178883
v -0.126015 -0.537505 0.105869
v -0.320157 -0.442333 0.080017
v -0.045127 -0.368015 0.301465
v -0.047440 -0.180783 0.300127
v -0.083950 -0.212389 0.292169
v -0.216874 -0.350086 0.217962
v -0.350163 -0.350977 0.073087
v -0.228209 -0.449398 0.165825
v -0.227622 -0.228369 0.161630
v -0.180458 -0.476031 0.175680
v -0.121707 -0.453228 0.229144
v -0.093987 -0.295751 0.300555
v -0.132482 -0.200931 0.253562
v -0.220890 -0.297935 0.212536
v -0.092169 -0.163402 0.268743
v -0.174702 -0.379467 0.242924
v -0.056155 -0.264355 0.318881
v -0.229847 -0.494734 0.104904
v -0.125739 -0.126017 0.199550
v -0.293442 -0.366730 0.145254
v -0.174249 -0.231021 0.230380
v -0.088074 -0.405477 0.274030
v -0.050293 -0.132867 0.266035
v -0.136227 -0.408234 0.251480
v -0.042363 -0.220341 0.310358
v -0.176906 -0.330418 0.251543
v -0.033433 -0.033882 0.211092
v -0.047268 -0.316615 0.313440
v -0.041928 -0.420319 0.275545
v -0.128791 -0.364441 0.273108
v -0.381698 -0.459234 0.000000
v -0.041347 -0.088652 0.240323
v -0.067051 -0.067557 0.208674
v -0.194710 -0.565668 0.000000
v -0.181596 -0.280689 0.244817
v -0.178541 -0.523276 0.099536
v -0.587609 -0.111278 0.000000
v -0.577288 -0.154268 0.000000
v -0.523586 -0.288510 0.000000
v -0.400681 -0.219681 0.201749
v -0.595255 -0.051602 0.000000
v -0.463385 -0.057871 0.237140
v -0.548091 -0.237488 0.000000
v -0.416180 -0.276706 0.146903
v -0.497368 -0.140155 0.170653
v -0.512312 -0.045166 0.182923
v -0.498792 -0.328969 0.000000
v -0.247642 -0.111527 0.284293
v -0.499787 -0.093072 0.188873
v -0.466238 -0.275147 0.112554
v -0.346045 -0.087235 0.293308
v -0.400170 -0.330458 0.110568
v -0.544361 -0.078372 0.112259
v -0.428373 -0.175802 0.217933
v -0.275773 -0.139610 0.273013
v -0.372795 -0.253229 0.183817
v -0.556260 -0.031701 0.095998
v -0.421150 -0.370603 0.045087
v -0.316394 -0.134648 0.279560
v -0.328419 -0.258973 0.181115
v -0.537150 -0.124881 0.108097
v -0.444384 -0.324348 0.079197
v -0.366509 -0.044572 0.303506
v -0.174734 -0.052243 0.282400
v -0.212688 -0.082163 0.289081
v -0.348915 -0.215145 0.219169
v -0.448133 -0.227733 0.164947
v -0.478248 -0.181992 0.170036
v -0.452838 -0.121659 0.229084
v -0.295257 -0.092725 0.298401
v -0.201287 -0.131888 0.252234
v -0.296531 -0.221620 0.210290
v -0.159295 -0.097216 0.251267
v -0.378497 -0.174111 0.242104
v -0.263209 -0.055882 0.309656
v -0.496951 -0.230525 0.106802
v -0.365556 -0.297027 0.140169
v -0.234992 -0.165529 0.240241
v -0.403451 -0.086973 0.273090
v -0.131129 -0.053524 0.259175
v -0.407231 -0.135727 0.253488
v -0.220572 -0.040355 0.303777
v -0.329399 -0.176426 0.250919
v -0.315559 -0.046897 0.312366
v -0.412919 -0.039859 0.280478
v -0.363650 -0.128825 0.282606
v -0.459477 -0.381455 0.000000
v -0.088324 -0.042104 0.240198
v -0.565910 -0.194467 0.000000
v -0.279674 -0.180746 0.243964
v -0.519965 -0.176691 0.111382
v 0.000616 -0.599141 0.000000
v 0.424880 -0.423406 0.000000
v 0.189473 -0.188373 0.180073
v 0.000125 -0.293681 0.320018
v 0.112752 -0.587366 0.000000
v 0.155743 -0.577046 0.000000
v 0.289984 -0.523343 0.000000
v 0.221357 -0.401299 0.201969
v 0.053076 -0.595012 0.000000
v 0.058218 -0.457856 0.243528
v 0.312149 -0.311365 0.106036
v 0.238963 -0.547848 0.000000
v 0.000905 -0.440479 0.266651
v 0.098783 -0.097360 0.204877
v 0.277479 -0.417429 0.146665
v 0.000357 -0.200772 0.317723
v 0.141874 -0.497930 0.170063
v 0.046777 -0.515270 0.175306
v 0.330445 -0.498550 0.000000
v 0.112262 -0.247764 0.284281
v 0.095340 -0.505147 0.178420
v 0.279835 -0.469945 0.093958
v 0.090967 -0.349035 0.292547
v 0.272178 -0.271288 0.135408
v 0.001149 -0.054081 0.229969
v 0.332017 -0.400966 0.100479
v 0.079786 -0.545075 0.111905
v 0.000692 -0.485633 0.222251
v 0.177031 -0.428373 0.217571
v 0.139343 -0.276743 0.282415
v 0.000365 -0.389653 0.297066
v 0.254332 -0.373497 0.183385
v 0.033335 -0.559153 0.090789
v 0.372026 -0.421752 0.045351
v 0.390768 -0.390050 0.037587
v 0.135081 -0.317231 0.281388
v 0.000015 -0.247264 0.317727
v 0.156317 -0.155083 0.191727
v 0.261385 -0.329091 0.179061
v 0.127675 -0.542625 0.095723
v 0.324056 -0.443739 0.078102
v 0.045652 -0.367798 0.302011
v 0.049344 -0.179769 0.288424
v 0.000786 -0.543190 0.126869
v 0.083119 -0.212366 0.288781
v 0.216118 -0.349277 0.218331
v 0.351472 -0.350921 0.072997
v 0.229818 -0.449239 0.165755
v 0.229400 -0.228454 0.161581
v 0.181935 -0.475612 0.175360
v 0.122271 -0.452007 0.227510
v 0.093405 -0.295903 0.297901
v 0.132149 -0.202192 0.256108
v 0.228577 -0.295077 0.201825
v 0.096333 -0.161591 0.257432
v 0.001415 -0.153139 0.285669
v 0.177046 -0.379590 0.239974
v 0.056037 -0.263939 0.316904
v 0.232152 -0.494982 0.105257
v 0.127505 -0.126259 0.199181
v 0.295863 -0.366564 0.144113
v 0.167124 -0.235251 0.240605
v 0.088967 -0.404455 0.271342
v 0.052432 -0.133920 0.264799
v 0.136584 -0.406623 0.252227
v 0.041548 -0.220425 0.305669
v 0.177464 -0.329895 0.250261
v 0.000169 -0.340141 0.313838
v 0.035596 -0.033872 0.211057
v 0.047536 -0.316363 0.313627
v 0.041140 -0.413131 0.280663
v 0.131033 -0.364663 0.274171
v 0.382930 -0.459234 0.000000
v 0.001253 -0.109475 0.261636
v 0.043674 -0.088872 0.240171
v 0.069130 -0.067572 0.208505
v 0.195941 -0.565668 0.000000
v 0.181952 -0.280080 0.244151
v 0.178483 -0.518321 0.113157
v 0.600616 0.000859 0.000000
v 0.294602 0.001091 0.318751
v 0.588842 -0.111278 0.000000
v 0.578520 -0.154268 0.000000
v 0.524819 -0.288510 0.000000
v 0.402550 -0.220279 0.202629
v 0.596487 -0.051602 0.000000
v 0.459889 -0.056729 0.244204
v 0.549323 -0.237488 0.000000
v 0.444790 0.000860 0.262181
v 0.418496 -0.276291 0.146812
v 0.201407 0.000625 0.307131
v 0.499307 -0.140036 0.170847
v 0.516070 -0.044955 0.178349
v 0.500025 -0.328969 0.000000
v 0.249260 -0.111567 0.284338
v 0.500113 -0.092502 0.192293
v 0.471131 -0.277226 0.094157
v 0.346940 -0.086235 0.295486
v 0.055766 0.000684 0.230315
v 0.401956 -0.330351 0.096623
v 0.545018 -0.078542 0.113873
v 0.487627 0.000901 0.222019
v 0.429899 -0.175621 0.217970
v 0.277521 -0.139431 0.272657
v 0.390289 0.000870 0.295779
v 0.376061 -0.259483 0.176914
v 0.560077 -0.031940 0.090797
v 0.422529 -0.371242 0.030022
v 0.318096 -0.133985 0.278664
v 0.247413 0.001416 0.314676
v 0.330649 -0.259027 0.177891
v 0.538439 -0.125105 0.107022
v 0.443348 -0.319087 0.080982
v 0.368438 -0.044461 0.300771
v 0.181717 -0.047877 0.300491
v 0.544292 0.000881 0.126865
v 0.214563 -0.080828 0.302370
v 0.350797 -0.215588 0.219663
v 0.448920 -0.226757 0.171286
v 0.477269 -0.180074 0.175680
v 0.454262 -0.121423 0.229091
v 0.296669 -0.093355 0.297604
v 0.202716 -0.132708 0.252533
v 0.298605 -0.221579 0.209889
v 0.164116 -0.093918 0.263451
v 0.158455 0.000752 0.287006
v 0.380309 -0.174421 0.242764
v 0.264888 -0.055358 0.311435
v 0.494378 -0.228324 0.110219
v 0.367867 -0.294593 0.142687
v 0.236718 -0.165886 0.240259
v 0.404858 -0.086913 0.274602
v 0.134949 -0.051091 0.265086
v 0.408090 -0.135138 0.252848
v 0.221952 -0.040036 0.313798
v 0.331193 -0.176479 0.251088
v 0.340948 0.000939 0.312776
v 0.317092 -0.046351 0.311953
v 0.414265 -0.039667 0.280189
v 0.365320 -0.128692 0.273453
v 0.460709 -0.381455 0.000000
v 0.110748 0.000728 0.258538
v 0.091211 -0.041250 0.240887
v 0.567143 -0.194467 0.000000
v 0.281567 -0.180761 0.244239
v 0.523743 -0.177449 0.102554
f 45 34 19
f 49 51 60
f 37 79 31
f 15 65 56
f 18 52 22
f 9 49 16
f 23 20 42
f 48 12 62
f 10 6 28
f 53 59 71
f 22 11 19
f 7 80 41
f 73 24 64
f 46 44 67
f 33 62 40
f 41 22 28
f 11 52 64
f 28 34 10
f 14 29 11
f 8 20 23
f 37 31 53
f 46 59 21
f 18 51 52
f 45 19 29
f 70 26 76
f 23 16 49
f 2 35 74
f 42 35 27
f 63 21 31
f 30 52 51
f 13 8 60
f 25 50 55
f 27 62 16
f 27 35 36
f 1 10 34
f 41 80 18
f 40 47 33
f 53 71 24
f 21 54 46
f 44 57 17
f 36 48 27
f 16 33 9
f 1 34 45
f 34 28 19
f 23 42 16
f 2 36 35
f 47 55 68
f 37 24 73
f 17 67 44
f 39 56 54
f 58 9 47
f 25 40 12
f 41 6 7
f 51 18 80
f 42 74 35
f 14 11 72
f 44 56 65
f 44 65 57
f 43 64 24
f 73 66 58
f 53 21 59
f 46 54 56
f 33 47 9
f 55 47 40
f 33 16 62
f 9 30 49
f 49 60 23
f 29 19 11
f 16 42 27
f 6 41 28
f 14 72 32
f 51 49 30
f 22 52 11
f 30 58 66
f 37 53 24
f 38 5 59
f 39 54 3
f 54 21 63
f 55 79 68
f 56 44 46
f 15 56 61
f 9 58 30
f 68 37 73
f 59 67 38
f 5 69 71
f 13 60 80
f 23 60 8
f 39 61 56
f 40 62 12
f 48 62 27
f 54 63 3
f 53 31 21
f 64 43 72
f 64 52 66
f 32 43 69
f 19 28 22
f 22 41 18
f 57 65 75
f 30 66 52
f 66 73 64
f 67 17 38
f 46 67 59
f 3 63 50
f 68 79 37
f 47 68 58
f 71 69 43
f 70 76 77
f 24 71 43
f 64 72 11
f 32 72 43
f 68 73 58
f 42 20 74
f 75 65 76
f 75 76 26
f 15 76 65
f 4 26 70
f 71 59 5
f 15 77 76
f 78 80 7
f 31 79 63
f 55 40 25
f 63 79 50
f 13 80 78
f 51 80 60
f 79 55 50
f 94 108 117
f 130 121 120
f 105 146 110
f 126 134 15
f 97 122 93
f 91 120 86
f 114 95 98
f 131 12 48
f 102 83 87
f 139 129 123
f 94 88 97
f 113 147 84
f 133 99 141
f 136 116 118
f 112 131 107
f 102 97 113
f 133 122 88
f 87 108 102
f 88 103 90
f 98 95 85
f 123 105 110
f 96 129 118
f 122 121 93
f 103 94 117
f 144 100 70
f 120 91 98
f 142 109 2
f 101 109 114
f 105 96 132
f 121 122 104
f 130 85 89
f 125 50 25
f 91 131 101
f 36 109 101
f 108 87 81
f 93 147 113
f 107 119 112
f 99 139 123
f 118 124 96
f 92 127 116
f 101 48 36
f 86 107 91
f 117 108 81
f 94 102 108
f 91 114 98
f 109 36 2
f 137 125 119
f 141 99 110
f 116 136 92
f 124 126 39
f 119 86 128
f 12 112 25
f 84 83 113
f 147 93 121
f 109 142 114
f 140 88 90
f 134 126 116
f 127 134 116
f 99 133 115
f 128 135 141
f 129 96 123
f 126 124 118
f 86 119 107
f 112 119 125
f 131 91 107
f 120 104 86
f 98 130 120
f 88 94 103
f 101 114 91
f 102 113 83
f 106 140 90
f 104 120 121
f 88 122 97
f 135 128 104
f 99 123 110
f 129 82 111
f 3 124 39
f 132 96 124
f 137 146 125
f 118 116 126
f 61 126 15
f 104 128 86
f 141 110 137
f 111 136 129
f 139 138 82
f 147 130 89
f 85 130 98
f 126 61 39
f 12 131 112
f 101 131 48
f 3 132 124
f 96 105 123
f 140 115 133
f 135 122 133
f 138 115 106
f 97 102 94
f 93 113 97
f 143 134 127
f 122 135 104
f 133 141 135
f 111 92 136
f 129 136 118
f 50 132 3
f 110 146 137
f 128 137 119
f 115 138 139
f 77 144 70
f 115 139 99
f 88 140 133
f 115 140 106
f 128 141 137
f 142 95 114
f 144 134 143
f 100 144 143
f 134 144 15
f 70 100 4
f 82 129 139
f 144 77 15
f 84 147 145
f 132 146 105
f 25 112 125
f 50 146 132
f 145 147 89
f 130 147 121
f 50 125 146
f 161 173 45
f 196 188 186
f 171 213 176
f 193 201 158
f 164 189 160
f 159 186 153
f 180 162 165
f 198 156 185
f 169 150 154
f 206 195 190
f 161 155 164
f 179 214 151
f 200 166 208
f 203 182 183
f 178 198 172
f 169 164 179
f 200 189 155
f 154 173 169
f 155 29 14
f 165 162 152
f 190 171 176
f 163 195 183
f 189 188 160
f 29 161 45
f 210 26 205
f 186 159 165
f 209 174 148
f 168 174 180
f 171 163 199
f 188 189 170
f 196 152 157
f 192 187 167
f 159 198 168
f 175 174 168
f 173 154 1
f 160 214 179
f 172 184 178
f 166 206 190
f 183 191 163
f 17 57 182
f 168 185 175
f 153 172 159
f 45 173 1
f 161 169 173
f 159 180 165
f 174 175 148
f 204 192 184
f 208 166 176
f 182 203 17
f 191 193 177
f 184 153 194
f 156 178 167
f 151 150 179
f 214 160 188
f 174 209 180
f 207 155 14
f 201 193 182
f 57 201 182
f 166 200 181
f 194 202 208
f 195 163 190
f 193 191 183
f 153 184 172
f 178 184 192
f 198 159 172
f 186 170 153
f 165 196 186
f 155 161 29
f 168 180 159
f 169 179 150
f 32 207 14
f 170 186 188
f 155 189 164
f 202 194 170
f 166 190 176
f 195 5 38
f 149 191 177
f 199 163 191
f 204 213 192
f 183 182 193
f 197 193 158
f 170 194 153
f 208 176 204
f 38 203 195
f 206 69 5
f 214 196 157
f 152 196 165
f 193 197 177
f 156 198 178
f 168 198 185
f 149 199 191
f 163 171 190
f 207 181 200
f 202 189 200
f 69 181 32
f 164 169 161
f 160 179 164
f 75 201 57
f 189 202 170
f 200 208 202
f 38 17 203
f 195 203 183
f 187 199 149
f 176 213 204
f 194 204 184
f 181 69 206
f 211 210 205
f 181 206 166
f 155 207 200
f 181 207 32
f 194 208 204
f 209 162 180
f 210 201 75
f 26 210 75
f 201 210 158
f 205 26 4
f 5 195 206
f 210 211 158
f 151 214 212
f 199 213 171
f 167 178 192
f 187 213 199
f 212 214 157
f 196 214 188
f 187 192 213
f 507 235 224
f 245 246 254
f 237 268 233
f 158 258 251
f 223 247 227
f 218 245 222
f 228 225 240
f 185 156 255
f 219 215 231
f 248 253 262
f 227 220 224
f 216 269 239
f 264 229 257
f 243 242 260
f 234 255 238
f 239 227 231
f 220 247 257
f 231 235 219
f 480 493 220
f 217 225 228
f 237 233 248
f 243 253 226
f 223 246 247
f 507 224 493
f 205 490 266
f 228 222 245
f 148 236 265
f 240 236 230
f 256 226 233
f 232 247 246
f 221 217 254
f 167 187 250
f 230 255 222
f 230 236 175
f 471 219 235
f 239 269 223
f 238 244 234
f 248 262 229
f 226 249 243
f 242 517 482
f 175 185 230
f 222 234 218
f 471 235 507
f 235 231 224
f 228 240 222
f 148 175 236
f 244 250 261
f 237 229 264
f 482 260 242
f 177 251 249
f 252 218 244
f 167 238 156
f 239 215 216
f 246 223 269
f 240 265 236
f 480 220 263
f 242 251 258
f 242 258 517
f 241 257 229
f 264 259 252
f 248 226 253
f 243 249 251
f 234 244 218
f 250 244 238
f 234 222 255
f 218 232 245
f 245 254 228
f 493 224 220
f 222 240 230
f 215 239 231
f 480 263 496
f 246 245 232
f 227 247 220
f 232 252 259
f 237 248 229
f 501 472 253
f 177 249 149
f 249 226 256
f 250 268 261
f 251 242 243
f 158 251 197
f 218 252 232
f 261 237 264
f 253 260 501
f 472 528 262
f 221 254 269
f 228 254 217
f 177 197 251
f 238 255 156
f 185 255 230
f 249 256 149
f 248 233 226
f 257 241 263
f 257 247 259
f 496 241 528
f 224 231 227
f 227 239 223
f 517 258 533
f 232 259 247
f 259 264 257
f 260 482 501
f 243 260 253
f 149 256 187
f 261 268 237
f 244 261 252
f 262 528 241
f 205 266 211
f 229 262 241
f 257 263 220
f 496 263 241
f 261 264 252
f 240 225 265
f 533 258 266
f 533 266 490
f 158 266 258
f 4 490 205
f 262 253 472
f 158 211 266
f 267 269 216
f 233 268 256
f 250 238 167
f 256 268 187
f 221 269 267
f 246 269 254
f 268 250 187
f 283 295 435
f 318 310 308
f 293 335 298
f 315 323 280
f 286 311 282
f 281 308 275
f 302 284 287
f 320 278 307
f 291 272 276
f 328 317 312
f 283 277 286
f 301 336 273
f 322 288 330
f 325 304 305
f 300 320 294
f 291 286 301
f 322 311 277
f 276 295 291
f 277 419 404
f 287 284 274
f 312 293 298
f 285 317 305
f 311 310 282
f 419 283 435
f 332 416 327
f 308 281 287
f 331 296 270
f 290 296 302
f 293 285 321
f 310 311 292
f 318 274 279
f 314 309 289
f 281 320 290
f 297 296 290
f 295 276 392
f 282 336 301
f 294 306 300
f 288 328 312
f 305 313 285
f 407 447 304
f 290 307 297
f 275 294 281
f 435 295 392
f 283 291 295
f 281 302 287
f 296 297 270
f 326 314 306
f 330 288 298
f 304 325 407
f 313 315 299
f 306 275 316
f 278 300 289
f 273 272 301
f 336 282 310
f 296 331 302
f 329 277 404
f 323 315 304
f 447 323 304
f 288 322 303
f 316 324 330
f 317 285 312
f 315 313 305
f 275 306 294
f 300 306 314
f 320 281 294
f 308 292 275
f 287 318 308
f 277 283 419
f 290 302 281
f 291 301 272
f 422 329 404
f 292 308 310
f 277 311 286
f 324 316 292
f 288 312 298
f 317 395 428
f 271 313 299
f 321 285 313
f 326 335 314
f 305 304 315
f 319 315 280
f 292 316 275
f 330 298 326
f 428 325 317
f 328 459 395
f 336 318 279
f 274 318 287
f 315 319 299
f 278 320 300
f 290 320 307
f 271 321 313
f 285 293 312
f 329 303 322
f 324 311 322
f 459 303 422
f 286 291 283
f 282 301 286
f 465 323 447
f 311 324 292
f 322 330 324
f 428 407 325
f 317 325 305
f 309 321 271
f 298 335 326
f 316 326 306
f 303 459 328
f 333 332 327
f 303 328 288
f 277 329 322
f 303 329 422
f 316 330 326
f 331 284 302
f 332 323 465
f 416 332 465
f 323 332 280
f 327 416 4
f 395 317 328
f 332 333 280
f 273 336 334
f 321 335 293
f 289 300 314
f 309 335 321
f 334 336 279
f 318 336 310
f 309 314 335
f 117 357 346
f 367 368 376
f 359 390 355
f 280 380 373
f 345 369 349
f 340 367 344
f 350 347 362
f 307 278 377
f 341 337 353
f 370 375 384
f 349 342 346
f 338 391 361
f 386 351 379
f 365 364 382
f 356 377 360
f 361 349 353
f 342 369 379
f 353 357 341
f 90 103 342
f 339 347 350
f 359 355 370
f 365 375 348
f 345 368 369
f 117 346 103
f 327 100 388
f 350 344 367
f 270 358 387
f 362 358 352
f 378 348 355
f 354 369 368
f 343 339 376
f 289 309 372
f 352 377 344
f 352 358 297
f 81 341 357
f 361 391 345
f 360 366 356
f 370 384 351
f 348 371 365
f 364 127 92
f 297 307 352
f 344 356 340
f 81 357 117
f 357 353 346
f 350 362 344
f 270 297 358
f 366 372 383
f 359 351 386
f 92 382 364
f 299 373 371
f 374 340 366
f 289 360 278
f 361 337 338
f 368 345 391
f 362 387 358
f 90 342 385
f 364 373 380
f 364 380 127
f 363 379 351
f 386 381 374
f 370 348 375
f 365 371 373
f 356 366 340
f 372 366 360
f 356 344 377
f 340 354 367
f 367 376 350
f 103 346 342
f 344 362 352
f 337 361 353
f 90 385 106
f 368 367 354
f 349 369 342
f 354 374 381
f 359 370 351
f 111 82 375
f 299 371 271
f 371 348 378
f 372 390 383
f 373 364 365
f 280 373 319
f 340 374 354
f 383 359 386
f 375 382 111
f 82 138 384
f 343 376 391
f 350 376 339
f 299 319 373
f 360 377 278
f 307 377 352
f 371 378 271
f 370 355 348
f 379 363 385
f 379 369 381
f 106 363 138
f 346 353 349
f 349 361 345
f 127 380 143
f 354 381 369
f 381 386 379
f 382 92 111
f 365 382 375
f 271 378 309
f 383 390 359
f 366 383 374
f 384 138 363
f 327 388 333
f 351 384 363
f 379 385 342
f 106 385 363
f 383 386 374
f 362 347 387
f 143 380 388
f 143 388 100
f 280 388 380
f 4 100 327
f 384 375 82
f 280 333 388
f 389 391 338
f 355 390 378
f 372 360 289
f 378 390 309
f 343 391 389
f 368 391 376
f 390 372 309
f 435 424 409
f 439 441 450
f 427 469 421
f 405 455 446
f 408 442 412
f 399 439 406
f 413 410 432
f 438 402 452
f 400 396 418
f 443 449 461
f 412 401 409
f 397 470 431
f 463 414 454
f 436 434 457
f 423 452 430
f 431 412 418
f 401 442 454
f 418 424 400
f 404 419 401
f 398 410 413
f 427 421 443
f 436 449 411
f 408 441 442
f 435 409 419
f 460 416 466
f 413 406 439
f 393 425 464
f 432 425 417
f 453 411 421
f 420 442 441
f 403 398 450
f 415 440 445
f 417 452 406
f 417 425 426
f 392 400 424
f 431 470 408
f 430 437 423
f 443 461 414
f 411 444 436
f 434 447 407
f 426 438 417
f 406 423 399
f 392 424 435
f 424 418 409
f 413 432 406
f 393 426 425
f 437 445 458
f 427 414 463
f 407 457 434
f 429 446 444
f 448 399 437
f 415 430 402
f 431 396 397
f 441 408 470
f 432 464 425
f 404 401 462
f 434 446 455
f 434 455 447
f 433 454 414
f 463 456 448
f 443 411 449
f 436 444 446
f 423 437 399
f 445 437 430
f 423 406 452
f 399 420 439
f 439 450 413
f 419 409 401
f 406 432 417
f 396 431 418
f 404 462 422
f 441 439 420
f 412 442 401
f 420 448 456
f 427 443 414
f 428 395 449
f 429 444 394
f 444 411 453
f 445 469 458
f 446 434 436
f 405 446 451
f 399 448 420
f 458 427 463
f 449 457 428
f 395 459 461
f 403 450 470
f 413 450 398
f 429 451 446
f 430 452 402
f 438 452 417
f 444 453 394
f 443 421 411
f 454 433 462
f 454 442 456
f 422 433 459
f 409 418 412
f 412 431 408
f 447 455 465
f 420 456 442
f 456 463 454
f 457 407 428
f 436 457 449
f 394 453 440
f 458 469 427
f 437 458 448
f 461 459 433
f 460 466 467
f 414 461 433
f 454 462 401
f 422 462 433
f 458 463 448
f 432 410 464
f 465 455 466
f 465 466 416
f 405 466 455
f 4 416 460
f 461 449 395
f 405 467 466
f 468 470 397
f 421 469 453
f 445 430 415
f 453 469 440
f 403 470 468
f 441 470 450
f 469 445 440
f 484 498 507
f 520 511 510
f 495 536 500
f 516 524 405
f 487 512 483
f 481 510 476
f 504 485 488
f 521 402 438
f 492 473 477
f 529 519 513
f 484 478 487
f 503 537 474
f 523 489 531
f 526 506 508
f 502 521 497
f 492 487 503
f 523 512 478
f 477 498 492
f 478 493 480
f 488 485 475
f 513 495 500
f 486 519 508
f 512 511 483
f 493 484 507
f 534 490 460
f 510 481 488
f 532 499 393
f 491 499 504
f 495 486 522
f 511 512 494
f 520 475 479
f 515 440 415
f 481 521 491
f 426 499 491
f 498 477 471
f 483 537 503
f 497 509 502
f 489 529 513
f 508 514 486
f 482 517 506
f 491 438 426
f 476 497 481
f 507 498 471
f 484 492 498
f 481 504 488
f 499 426 393
f 527 515 509
f 531 489 500
f 506 526 482
f 514 516 429
f 509 476 518
f 402 502 415
f 474 473 503
f 537 483 511
f 499 532 504
f 530 478 480
f 524 516 506
f 517 524 506
f 489 523 505
f 518 525 531
f 519 486 513
f 516 514 508
f 476 509 497
f 502 509 515
f 521 481 497
f 510 494 476
f 488 520 510
f 478 484 493
f 491 504 481
f 492 503 473
f 496 530 480
f 494 510 511
f 478 512 487
f 525 518 494
f 489 513 500
f 519 472 501
f 394 514 429
f 522 486 514
f 527 536 515
f 508 506 516
f 451 516 405
f 494 518 476
f 531 500 527
f 501 526 519
f 529 528 472
f 537 520 479
f 475 520 488
f 516 451 429
f 402 521 502
f 491 521 438
f 394 522 514
f 486 495 513
f 530 505 523
f 525 512 523
f 528 505 496
f 487 492 484
f 483 503 487
f 533 524 517
f 512 525 494
f 523 531 525
f 501 482 526
f 519 526 508
f 440 522 394
f 500 536 527
f 518 527 509
f 505 528 529
f 467 534 460
f 505 529 489
f 478 530 523
f 505 530 496
f 518 531 527
f 532 485 504
f 534 524 533
f 490 534 533
f 524 534 405
f 460 490 4
f 472 519 529
f 534 467 405
f 474 537 535
f 522 536 495
f 415 502 515
f 440 536 522
f 535 537 479
f 520 537 511
f 440 515 536
