# 4part FEM knit+cable best fit (4part_s_combo90)
# interior RMSE  : 3.459 mm
# max deviation  : 14.152 mm
# crown          : 0.32027 m (target 0.32177 m)
# max disp/rest  : 14.152 mm (floor 5.0 mm)
# regions        : 8 (2 D4 slots), 10 parameters
v 0.000616 0.600859 0.000000
v -0.423648 0.425123 0.000000
v -0.187042 0.189070 0.179585
v 0.001032 0.000625 0.209525
v 0.001282 0.294149 0.320269
v -0.111519 0.589084 0.000000
v -0.154511 0.578763 0.000000
v -0.288752 0.525061 0.000000
v -0.220111 0.402714 0.202780
v -0.051844 0.596730 0.000000
v -0.056970 0.463656 0.239808
v -0.309429 0.311410 0.106341
v -0.237731 0.549565 0.000000
v 0.001264 0.440082 0.269650
v -0.096423 0.098208 0.203467
v -0.275453 0.418216 0.146503
v 0.002189 0.200837 0.316674
v -0.142589 0.505751 0.162706
v -0.044763 0.514004 0.182744
v -0.329212 0.500267 0.000000
v -0.111006 0.247014 0.286792
v -0.092377 0.499465 0.199627
v -0.277179 0.470673 0.093197
v -0.086734 0.346845 0.292208
v -0.269552 0.271658 0.135512
v 0.001336 0.054844 0.229373
v -0.329012 0.401183 0.099868
v -0.078576 0.545734 0.112300
v 0.001112 0.486979 0.221889
v -0.176162 0.430505 0.218906
v -0.137927 0.276394 0.285917
v 0.001057 0.390544 0.297796
v -0.252392 0.374381 0.183677
v -0.032077 0.560216 0.090614
v -0.368509 0.420998 0.043588
v -0.387838 0.389482 0.038094
v -0.134403 0.317105 0.280223
v 0.001576 0.247755 0.319076
v -0.153868 0.155832 0.190869
v -0.259012 0.329797 0.179212
v -0.124814 0.538015 0.107901
v -0.326437 0.448322 0.066244
v -0.044134 0.368321 0.303615
v -0.047222 0.179792 0.288642
v 0.000591 0.544409 0.126715
v -0.080871 0.212386 0.289090
v -0.213737 0.350459 0.218497
v -0.348724 0.350591 0.073565
v -0.227172 0.449576 0.169606
v -0.226794 0.229160 0.161499
v -0.180244 0.477594 0.176082
v -0.120592 0.452374 0.239210
v -0.091878 0.295393 0.298032
v -0.130063 0.202313 0.258623
v -0.225135 0.296557 0.203525
v -0.094649 0.161453 0.257654
v 0.002247 0.156745 0.287860
v -0.178313 0.383145 0.240126
v -0.054714 0.263743 0.309890
v -0.229442 0.496000 0.104735
v -0.125102 0.127035 0.198044
v -0.293496 0.367070 0.144124
v -0.163212 0.236362 0.247100
v -0.086309 0.403588 0.273039
v -0.049071 0.135183 0.272555
v -0.139365 0.411389 0.252458
v -0.038228 0.221498 0.306395
v -0.175443 0.331419 0.256196
v 0.001040 0.340576 0.313774
v -0.033288 0.034945 0.209102
v -0.048840 0.317749 0.311326
v -0.039642 0.414324 0.280584
v -0.128441 0.364365 0.282616
v -0.381698 0.460952 0.000000
v 0.001435 0.110794 0.274194
v -0.040847 0.089976 0.244625
v -0.066827 0.068482 0.206812
v -0.194710 0.567385 0.000000
v -0.185913 0.279389 0.238481
v -0.177751 0.524024 0.100770
v -0.599383 0.000859 0.000000
v -0.292494 0.000321 0.320156
v -0.587609 0.112995 0.000000
v -0.577288 0.155985 0.000000
v -0.523586 0.290227 0.000000
v -0.400923 0.220977 0.202245
v -0.595255 0.053319 0.000000
v -0.458245 0.058049 0.244659
v -0.548091 0.239205 0.000000
v -0.441713 0.000507 0.263232
v -0.416469 0.276608 0.146337
v -0.198723 0.000682 0.304147
v -0.497416 0.141153 0.170979
v -0.516438 0.046833 0.172157
v -0.498792 0.330686 0.000000
v -0.244558 0.114329 0.278421
v -0.502320 0.094744 0.180542
v -0.470972 0.280554 0.088161
v -0.344993 0.087941 0.296607
v -0.053203 0.000590 0.229138
v -0.399372 0.330769 0.099872
v -0.543677 0.080201 0.112297
v -0.489329 0.000666 0.214561
v -0.429881 0.177705 0.212604
v -0.275986 0.141219 0.303971
v -0.388432 0.000675 0.296530
v -0.372403 0.253065 0.182755
v -0.559636 0.033594 0.088335
v -0.419499 0.370139 0.043850
v -0.317156 0.136347 0.263712
v -0.244236 -0.000242 0.315360
v -0.327426 0.261783 0.175058
v -0.535977 0.126246 0.107735
v -0.442164 0.322751 0.076988
v -0.366731 0.046238 0.302841
v -0.176888 0.050123 0.289610
v -0.542913 0.000810 0.127289
v -0.210472 0.082678 0.288147
v -0.348992 0.215835 0.219080
v -0.448861 0.229295 0.165923
v -0.475046 0.181088 0.175613
v -0.457199 0.124038 0.220072
v -0.293874 0.094108 0.299404
v -0.199750 0.133360 0.252380
v -0.296291 0.221926 0.210150
v -0.159762 0.096523 0.257266
v -0.156369 0.000435 0.285112
v -0.380889 0.178431 0.237223
v -0.261551 0.056671 0.310696
v -0.493926 0.230883 0.104615
v -0.365216 0.294809 0.143934
v -0.233926 0.166937 0.240844
v -0.403030 0.087996 0.275010
v -0.132232 0.052380 0.264327
v -0.406676 0.136099 0.253457
v -0.217954 0.042018 0.319008
v -0.330041 0.177676 0.251530
v -0.338999 0.000577 0.314040
v -0.314348 0.047564 0.315381
v -0.411715 0.041068 0.286496
v -0.364353 0.130311 0.275115
v -0.459477 0.383172 0.000000
v -0.109860 0.000323 0.259474
v -0.087870 0.043056 0.238969
v -0.565910 0.196184 0.000000
v -0.279959 0.179521 0.248684
v -0.521401 0.178929 0.102233
v 0.424880 0.425123 0.000000
v 0.188865 0.189276 0.179415
v 0.112752 0.589084 0.000000
v 0.155743 0.578763 0.000000
v 0.289984 0.525061 0.000000
v 0.223889 0.404350 0.203555
v 0.053076 0.596730 0.000000
v 0.058808 0.459819 0.244124
v 0.311390 0.311594 0.105767
v 0.238963 0.549565 0.000000
v 0.098510 0.098072 0.203297
v 0.281903 0.420769 0.140747
v 0.141360 0.498767 0.170917
v 0.046503 0.513360 0.181994
v 0.330445 0.500267 0.000000
v 0.112660 0.248319 0.285488
v 0.094536 0.500802 0.187940
v 0.277469 0.469073 0.103364
v 0.088433 0.346915 0.296764
v 0.271509 0.271752 0.135023
v 0.330560 0.401467 0.096488
v 0.079323 0.543734 0.118249
v 0.177291 0.429387 0.218089
v 0.142705 0.275647 0.269214
v 0.256163 0.375438 0.185074
v 0.033123 0.560557 0.090582
v 0.373291 0.423033 0.045840
v 0.389196 0.389148 0.039425
v 0.135654 0.317432 0.279348
v 0.155771 0.156089 0.190868
v 0.259340 0.330565 0.182277
v 0.127745 0.543493 0.097324
v 0.320744 0.443138 0.087650
v 0.046451 0.367984 0.304503
v 0.052475 0.177005 0.293283
v 0.082881 0.213426 0.311525
v 0.220816 0.352472 0.200281
v 0.350757 0.350535 0.073162
v 0.229891 0.450575 0.166104
v 0.228712 0.229240 0.161063
v 0.181551 0.476762 0.175760
v 0.124284 0.457255 0.223070
v 0.094738 0.296474 0.300372
v 0.133612 0.202057 0.254164
v 0.221658 0.298796 0.209589
v 0.103707 0.155614 0.249754
v 0.182894 0.383017 0.236603
v 0.058699 0.264863 0.315104
v 0.231801 0.497310 0.106140
v 0.127152 0.127027 0.197912
v 0.294898 0.367698 0.142601
v 0.167612 0.235659 0.241311
v 0.088812 0.404609 0.274581
v 0.054267 0.132245 0.266244
v 0.136446 0.407030 0.251861
v 0.042073 0.221568 0.314584
v 0.178690 0.330701 0.260971
v 0.035504 0.034831 0.208927
v 0.048756 0.317079 0.314397
v 0.041663 0.413248 0.285031
v 0.130588 0.364932 0.273952
v 0.382930 0.460952 0.000000
v 0.044664 0.088154 0.240309
v 0.068983 0.068348 0.206655
v 0.195941 0.567385 0.000000
v 0.181691 0.281447 0.259010
v 0.179107 0.522735 0.106781
v 0.588842 0.112995 0.000000
v 0.578520 0.155985 0.000000
v 0.524819 0.290227 0.000000
v 0.401487 0.220676 0.201435
v 0.596487 0.053319 0.000000
v 0.460792 0.058636 0.245832
v 0.549323 0.239205 0.000000
v 0.418227 0.277665 0.147230
v 0.497354 0.140869 0.177742
v 0.514025 0.046639 0.183265
v 0.500025 0.330686 0.000000
v 0.246586 0.114188 0.287481
v 0.501327 0.094547 0.189517
v 0.470393 0.278539 0.093849
v 0.347455 0.089134 0.298784
v 0.402031 0.333544 0.088083
v 0.544681 0.080152 0.115398
v 0.430538 0.178180 0.219947
v 0.277189 0.139664 0.285191
v 0.373618 0.253936 0.182733
v 0.560355 0.033651 0.091254
v 0.423550 0.374061 0.046600
v 0.318897 0.137732 0.278378
v 0.328130 0.266114 0.170831
v 0.538079 0.126459 0.108322
v 0.443174 0.321273 0.077623
v 0.368041 0.046196 0.301376
v 0.180458 0.049527 0.288117
v 0.212573 0.083389 0.289027
v 0.350054 0.218565 0.220767
v 0.450235 0.229717 0.166277
v 0.476914 0.181778 0.177414
v 0.453672 0.122852 0.229769
v 0.295838 0.094014 0.310347
v 0.201634 0.133828 0.252646
v 0.297520 0.223278 0.210728
v 0.161612 0.097051 0.255702
v 0.380493 0.178656 0.262292
v 0.263835 0.057204 0.309841
v 0.495775 0.231022 0.105290
v 0.367163 0.295478 0.143238
v 0.235915 0.167035 0.240542
v 0.404228 0.087982 0.286654
v 0.134877 0.052143 0.263967
v 0.409654 0.138643 0.252909
v 0.220658 0.041953 0.303356
v 0.331226 0.179054 0.262037
v 0.316624 0.048377 0.311663
v 0.414602 0.041362 0.281471
v 0.367264 0.133567 0.269568
v 0.460709 0.383172 0.000000
v 0.090252 0.042849 0.238772
v 0.567143 0.196184 0.000000
v 0.280819 0.182272 0.244528
v 0.523301 0.179130 0.102844
v -0.423648 -0.423406 0.000000
v -0.187015 -0.187572 0.179274
v -0.111519 -0.587366 0.000000
v -0.154511 -0.577046 0.000000
v -0.288752 -0.523343 0.000000
v -0.220004 -0.400882 0.202520
v -0.051844 -0.595012 0.000000
v -0.057651 -0.461521 0.239160
v -0.309673 -0.309914 0.105804
v -0.237731 -0.547848 0.000000
v -0.096466 -0.096847 0.203665
v -0.276098 -0.417013 0.147094
v -0.139785 -0.497607 0.171049
v -0.044821 -0.511679 0.182258
v -0.329212 -0.498550 0.000000
v -0.112289 -0.247042 0.285022
v -0.092844 -0.499631 0.188824
v -0.277064 -0.468983 0.093706
v -0.086686 -0.345236 0.303905
v -0.269630 -0.270083 0.134776
v -0.333008 -0.400621 0.087276
v -0.079754 -0.553355 0.092446
v -0.175931 -0.428545 0.218623
v -0.139595 -0.275560 0.272903
v -0.252328 -0.372637 0.187158
v -0.031477 -0.559115 0.090417
v -0.372921 -0.422208 0.046711
v -0.387728 -0.387970 0.038551
v -0.134326 -0.316268 0.278695
v -0.153999 -0.154318 0.190873
v -0.259486 -0.328056 0.178779
v -0.125457 -0.537205 0.106151
v -0.319242 -0.441128 0.079457
v -0.045077 -0.367232 0.301297
v -0.047523 -0.179627 0.299998
v -0.084027 -0.211289 0.292040
v -0.216698 -0.349184 0.217912
v -0.348794 -0.349363 0.073197
v -0.227932 -0.448735 0.165860
v -0.226937 -0.227528 0.160747
v -0.179950 -0.475483 0.175841
v -0.121344 -0.452608 0.229070
v -0.093988 -0.294812 0.300535
v -0.132435 -0.199928 0.253124
v -0.220726 -0.296952 0.212378
v -0.092352 -0.162229 0.268450
v -0.174565 -0.378643 0.242954
v -0.056189 -0.263341 0.318864
v -0.229540 -0.494276 0.104930
v -0.125298 -0.125500 0.198157
v -0.293019 -0.365690 0.145215
v -0.174146 -0.230031 0.229986
v -0.087871 -0.404802 0.273936
v -0.050321 -0.131906 0.265463
v -0.136013 -0.407488 0.251453
v -0.042413 -0.219252 0.310301
v -0.176833 -0.329523 0.251523
v -0.033295 -0.033678 0.209081
v -0.047257 -0.315724 0.313417
v -0.041947 -0.419706 0.275217
v -0.128646 -0.363610 0.273030
v -0.381698 -0.459234 0.000000
v -0.041388 -0.087785 0.239466
v -0.066776 -0.067212 0.206922
v -0.194710 -0.565668 0.000000
v -0.181518 -0.279725 0.244645
v -0.178250 -0.523001 0.099684
v -0.587609 -0.111278 0.000000
v -0.577288 -0.154268 0.000000
v -0.523586 -0.288510 0.000000
v -0.400385 -0.219575 0.202306
v -0.595255 -0.051602 0.000000
v -0.463374 -0.057648 0.237757
v -0.548091 -0.237488 0.000000
v -0.415828 -0.276473 0.147268
v -0.497577 -0.139682 0.171481
v -0.512551 -0.045126 0.183515
v -0.498792 -0.328969 0.000000
v -0.246812 -0.111580 0.284628
v -0.499972 -0.093023 0.189458
v -0.466162 -0.275136 0.112958
v -0.345565 -0.087114 0.293785
v -0.399451 -0.329871 0.110632
v -0.544729 -0.078312 0.112951
v -0.428260 -0.175609 0.218606
v -0.275026 -0.139634 0.273371
v -0.372301 -0.253100 0.184254
v -0.556607 -0.031722 0.096540
v -0.419710 -0.369027 0.044508
v -0.315792 -0.134654 0.280114
v -0.327695 -0.258691 0.181291
v -0.537522 -0.124569 0.108873
v -0.443753 -0.323857 0.079124
v -0.366143 -0.044485 0.304065
v -0.173789 -0.052252 0.282485
v -0.211770 -0.082222 0.289355
v -0.348390 -0.215024 0.219584
v -0.448070 -0.227600 0.165536
v -0.478417 -0.181625 0.170842
v -0.452902 -0.121296 0.229745
v -0.294588 -0.092700 0.298880
v -0.200380 -0.131925 0.252156
v -0.295803 -0.221412 0.210399
v -0.158413 -0.097198 0.250959
v -0.378139 -0.173969 0.242659
v -0.262440 -0.055870 0.310131
v -0.497110 -0.230511 0.107321
v -0.364859 -0.296420 0.140284
v -0.234151 -0.165502 0.240216
v -0.403251 -0.086717 0.273650
v -0.130218 -0.053526 0.258877
v -0.407074 -0.135558 0.254206
v -0.219693 -0.040332 0.304124
v -0.328842 -0.176356 0.251363
v -0.314981 -0.046837 0.312921
v -0.412800 -0.039870 0.280961
v -0.363236 -0.128717 0.283235
v -0.459477 -0.381455 0.000000
v -0.087472 -0.042132 0.239546
v -0.565910 -0.194467 0.000000
v -0.278939 -0.180687 0.244158
v -0.520314 -0.176639 0.112045
v 0.000616 -0.599141 0.000000
v 0.424880 -0.423406 0.000000
v 0.188848 -0.187707 0.179044
v 0.000129 -0.292745 0.319978
v 0.112752 -0.587366 0.000000
v 0.155743 -0.577046 0.000000
v 0.289984 -0.523343 0.000000
v 0.221175 -0.400500 0.202038
v 0.053076 -0.595012 0.000000
v 0.058291 -0.457237 0.243142
v 0.310984 -0.310070 0.105812
v 0.238963 -0.547848 0.000000
v 0.000960 -0.439979 0.266139
v 0.098352 -0.096937 0.203390
v 0.277187 -0.416607 0.146660
v 0.000344 -0.199649 0.317665
v 0.141248 -0.497342 0.170229
v 0.046613 -0.514676 0.175157
v 0.330445 -0.498550 0.000000
v 0.112291 -0.246771 0.284184
v 0.095143 -0.504540 0.178310
v 0.279280 -0.468990 0.093609
v 0.090888 -0.348214 0.292432
v 0.271261 -0.270268 0.134864
v 0.001112 -0.053434 0.228717
v 0.331295 -0.399792 0.100344
v 0.079450 -0.544644 0.111987
v 0.000884 -0.485171 0.221680
v 0.176791 -0.427656 0.217644
v 0.139385 -0.275779 0.282409
v 0.000404 -0.388971 0.296840
v 0.254152 -0.372589 0.183450
v 0.033156 -0.558814 0.090626
v 0.369839 -0.419371 0.043974
v 0.389001 -0.387744 0.038773
v 0.135089 -0.316353 0.281459
v 0.000010 -0.246230 0.317713
v 0.155766 -0.154512 0.190539
v 0.261129 -0.328084 0.179054
v 0.127134 -0.542278 0.096001
v 0.323068 -0.442275 0.077362
v 0.045655 -0.367045 0.301887
v 0.049382 -0.178676 0.288272
v 0.000627 -0.542727 0.126674
v 0.083191 -0.211297 0.288713
v 0.215932 -0.348399 0.218330
v 0.350026 -0.349260 0.073205
v 0.229521 -0.448550 0.165774
v 0.228661 -0.227646 0.160764
v 0.181400 -0.475019 0.175496
v 0.121937 -0.451355 0.227470
v 0.093380 -0.294977 0.297810
v 0.132215 -0.201149 0.255863
v 0.228270 -0.294135 0.201652
v 0.096358 -0.160571 0.257030
v 0.001399 -0.152024 0.285444
v 0.176893 -0.378785 0.240026
v 0.056070 -0.262948 0.316907
v 0.231774 -0.494369 0.105169
v 0.127015 -0.125760 0.197841
v 0.295359 -0.365546 0.144061
v 0.167109 -0.234255 0.240381
v 0.088805 -0.403754 0.271188
v 0.052442 -0.132890 0.264353
v 0.136417 -0.405893 0.252275
v 0.041576 -0.219366 0.305620
v 0.177360 -0.329028 0.250262
v 0.000187 -0.339313 0.313745
v 0.035373 -0.033674 0.209060
v 0.047549 -0.315489 0.313632
v 0.041273 -0.412523 0.280325
v 0.130961 -0.363877 0.274229
v 0.382930 -0.459234 0.000000
v 0.001228 -0.108413 0.261155
v 0.043666 -0.087978 0.239369
v 0.068781 -0.067241 0.206784
v 0.195941 -0.565668 0.000000
v 0.181825 -0.279150 0.243996
v 0.178150 -0.517920 0.113269
v 0.600616 0.000859 0.000000
v 0.293844 0.001074 0.319349
v 0.588842 -0.111278 0.000000
v 0.578520 -0.154268 0.000000
v 0.524819 -0.288510 0.000000
v 0.402254 -0.220114 0.203180
v 0.596487 -0.051602 0.000000
v 0.459854 -0.056680 0.244730
v 0.549323 -0.237488 0.000000
v 0.444674 0.000843 0.262675
v 0.418106 -0.275736 0.146985
v 0.200358 0.000586 0.307509
v 0.499559 -0.139583 0.171780
v 0.516287 -0.044893 0.179090
v 0.500025 -0.328969 0.000000
v 0.248395 -0.111595 0.284599
v 0.500347 -0.092479 0.192886
v 0.471610 -0.277358 0.094888
v 0.346420 -0.086187 0.296072
v 0.055020 0.000687 0.229338
v 0.401044 -0.328390 0.095870
v 0.545486 -0.078434 0.114677
v 0.487705 0.000844 0.222508
v 0.429763 -0.175405 0.218644
v 0.276740 -0.139440 0.272980
v 0.389929 0.000862 0.296327
v 0.375538 -0.259117 0.177232
v 0.560456 -0.031887 0.091351
v 0.425172 -0.375645 0.035779
v 0.317459 -0.133978 0.279168
v 0.246487 0.001388 0.315237
v 0.329920 -0.258565 0.178004
v 0.538949 -0.124780 0.107975
v 0.443722 -0.319097 0.081757
v 0.368006 -0.044439 0.301366
v 0.180618 -0.048009 0.300748
v 0.544639 0.000997 0.127567
v 0.213545 -0.080974 0.302694
v 0.350252 -0.215426 0.220075
v 0.448904 -0.226574 0.171931
v 0.477456 -0.179693 0.176538
v 0.454277 -0.121095 0.229775
v 0.295951 -0.093379 0.298122
v 0.201777 -0.132714 0.252418
v 0.297848 -0.221350 0.210027
v 0.162971 -0.094132 0.263448
v 0.157335 0.000724 0.287193
v 0.379928 -0.174299 0.243350
v 0.264034 -0.055456 0.312067
v 0.494966 -0.228430 0.111043
v 0.367147 -0.293745 0.142662
v 0.235842 -0.165849 0.240235
v 0.404627 -0.086723 0.275205
v 0.133896 -0.051201 0.264938
v 0.407853 -0.134959 0.253507
v 0.220946 -0.040140 0.314234
v 0.330604 -0.176425 0.251555
v 0.340379 0.000929 0.313379
v 0.316443 -0.046371 0.312577
v 0.414065 -0.039716 0.280708
v 0.364885 -0.128606 0.274064
v 0.460709 -0.381455 0.000000
v 0.109683 0.000707 0.258333
v 0.090249 -0.041326 0.240321
v 0.567143 -0.194467 0.000000
v 0.280796 -0.180702 0.244452
v 0.524330 -0.177435 0.103348
f 45 34 19
f 49 51 60
f 37 79 31
f 15 65 56
f 18 52 22
f 9 49 16
f 23 20 42
f 48 12 62
f 10 6 28
f 53 59 71
f 22 11 19
f 7 80 41
f 73 24 64
f 46 44 67
f 33 62 40
f 41 22 28
f 11 52 64
f 28 34 10
f 14 29 11
f 8 20 23
f 37 31 53
f 46 59 21
f 18 51 52
f 45 19 29
f 70 26 76
f 23 16 49
f 2 35 74
f 42 35 27
f 63 21 31
f 30 52 51
f 13 8 60
f 25 50 55
f 27 62 16
f 27 35 36
f 1 10 34
f 41 80 18
f 40 47 33
f 53 71 24
f 21 54 46
f 44 57 17
f 36 48 27
f 16 33 9
f 1 34 45
f 34 28 19
f 23 42 16
f 2 36 35
f 47 55 68
f 37 24 73
f 17 67 44
f 39 56 54
f 58 9 47
f 25 40 12
f 41 6 7
f 51 18 80
f 42 74 35
f 14 11 72
f 44 56 65
f 44 65 57
f 43 64 24
f 73 66 58
f 53 21 59
f 46 54 56
f 33 47 9
f 55 47 40
f 33 16 62
f 9 30 49
f 49 60 23
f 29 19 11
f 16 42 27
f 6 41 28
f 14 72 32
f 51 49 30
f 22 52 11
f 30 58 66
f 37 53 24
f 38 5 59
f 39 54 3
f 54 21 63
f 55 79 68
f 56 44 46
f 15 56 61
f 9 58 30
f 68 37 73
f 59 67 38
f 5 69 71
f 13 60 80
f 23 60 8
f 39 61 56
f 40 62 12
f 48 62 27
f 54 63 3
f 53 31 21
f 64 43 72
f 64 52 66
f 32 43 69
f 19 28 22
f 22 41 18
f 57 65 75
f 30 66 52
f 66 73 64
f 67 17 38
f 46 67 59
f 3 63 50
f 68 79 37
f 47 68 58
f 71 69 43
f 70 76 77
f 24 71 43
f 64 72 11
f 32 72 43
f 68 73 58
f 42 20 74
f 75 65 76
f 75 76 26
f 15 76 65
f 4 26 70
f 71 59 5
f 15 77 76
f 78 80 7
f 31 79 63
f 55 40 25
f 63 79 50
f 13 80 78
f 51 80 60
f 79 55 50
f 94 108 117
f 130 121 120
f 105 146 110
f 126 134 15
f 97 122 93
f 91 120 86
f 114 95 98
f 131 12 48
f 102 83 87
f 139 129 123
f 94 88 97
f 113 147 84
f 133 99 141
f 136 116 118
f 112 131 107
f 102 97 113
f 133 122 88
f 87 108 102
f 88 103 90
f 98 95 85
f 123 105 110
f 96 129 118
f 122 121 93
f 103 94 117
f 144 100 70
f 120 91 98
f 142 109 2
f 101 109 114
f 105 96 132
f 121 122 104
f 130 85 89
f 125 50 25
f 91 131 101
f 36 109 101
f 108 87 81
f 93 147 113
f 107 119 112
f 99 139 123
f 118 124 96
f 92 127 116
f 101 48 36
f 86 107 91
f 117 108 81
f 94 102 108
f 91 114 98
f 109 36 2
f 137 125 119
f 141 99 110
f 116 136 92
f 124 126 39
f 119 86 128
f 12 112 25
f 84 83 113
f 147 93 121
f 109 142 114
f 140 88 90
f 134 126 116
f 127 134 116
f 99 133 115
f 128 135 141
f 129 96 123
f 126 124 118
f 86 119 107
f 112 119 125
f 131 91 107
f 120 104 86
f 98 130 120
f 88 94 103
f 101 114 91
f 102 113 83
f 106 140 90
f 104 120 121
f 88 122 97
f 135 128 104
f 99 123 110
f 129 82 111
f 3 124 39
f 132 96 124
f 137 146 125
f 118 116 126
f 61 126 15
f 104 128 86
f 141 110 137
f 111 136 129
f 139 138 82
f 147 130 89
f 85 130 98
f 126 61 39
f 12 131 112
f 101 131 48
f 3 132 124
f 96 105 123
f 140 115 133
f 135 122 133
f 138 115 106
f 97 102 94
f 93 113 97
f 143 134 127
f 122 135 104
f 133 141 135
f 111 92 136
f 129 136 118
f 50 132 3
f 110 146 137
f 128 137 119
f 115 138 139
f 77 144 70
f 115 139 99
f 88 140 133
f 115 140 106
f 128 141 137
f 142 95 114
f 144 134 143
f 100 144 143
f 134 144 15
f 70 100 4
f 82 129 139
f 144 77 15
f 84 147 145
f 132 146 105
f 25 112 125
f 50 146 132
f 145 147 89
f 130 147 121
f 50 125 146
f 161 173 45
f 196 188 186
f 171 213 176
f 193 201 158
f 164 189 160
f 159 186 153
f 180 162 165
f 198 156 185
f 169 150 154
f 206 195 190
f 161 155 164
f 179 214 151
f 200 166 208
f 203 182 183
f 178 198 172
f 169 164 179
f 200 189 155
f 154 173 169
f 155 29 14
f 165 162 152
f 190 171 176
f 163 195 183
f 189 188 160
f 29 161 45
f 210 26 205
f 186 159 165
f 209 174 148
f 168 174 180
f 171 163 199
f 188 189 170
f 196 152 157
f 192 187 167
f 159 198 168
f 175 174 168
f 173 154 1
f 160 214 179
f 172 184 178
f 166 206 190
f 183 191 163
f 17 57 182
f 168 185 175
f 153 172 159
f 45 173 1
f 161 169 173
f 159 180 165
f 174 175 148
f 204 192 184
f 208 166 176
f 182 203 17
f 191 193 177
f 184 153 194
f 156 178 167
f 151 150 179
f 214 160 188
f 174 209 180
f 207 155 14
f 201 193 182
f 57 201 182
f 166 200 181
f 194 202 208
f 195 163 190
f 193 191 183
f 153 184 172
f 178 184 192
f 198 159 172
f 186 170 153
f 165 196 186
f 155 161 29
f 168 180 159
f 169 179 150
f 32 207 14
f 170 186 188
f 155 189 164
f 202 194 170
f 166 190 176
f 195 5 38
f 149 191 177
f 199 163 191
f 204 213 192
f 183 182 193
f 197 193 158
f 170 194 153
f 208 176 204
f 38 203 195
f 206 69 5
f 214 196 157
f 152 196 165
f 193 197 177
f 156 198 178
f 168 198 185
f 149 199 191
f 163 171 190
f 207 181 200
f 202 189 200
f 69 181 32
f 164 169 161
f 160 179 164
f 75 201 57
f 189 202 170
f 200 208 202
f 38 17 203
f 195 203 183
f 187 199 149
f 176 213 204
f 194 204 184
f 181 69 206
f 211 210 205
f 181 206 166
f 155 207 200
f 181 207 32
f 194 208 204
f 209 162 180
f 210 201 75
f 26 210 75
f 201 210 158
f 205 26 4
f 5 195 206
f 210 211 158
f 151 214 212
f 199 213 171
f 167 178 192
f 187 213 199
f 212 214 157
f 196 214 188
f 187 192 213
f 507 235 224
f 245 246 254
f 237 268 233
f 158 258 251
f 223 247 227
f 218 245 222
f 228 225 240
f 185 156 255
f 219 215 231
f 248 253 262
f 227 220 224
f 216 269 239
f 264 229 257
f 243 242 260
f 234 255 238
f 239 227 231
f 220 247 257
f 231 235 219
f 480 493 220
f 217 225 228
f 237 233 248
f 243 253 226
f 223 246 247
f 507 224 493
f 205 490 266
f 228 222 245
f 148 236 265
f 240 236 230
f 256 226 233
f 232 247 246
f 221 217 254
f 167 187 250
f 230 255 222
f 230 236 175
f 471 219 235
f 239 269 223
f 238 244 234
f 248 262 229
f 226 249 243
f 242 517 482
f 175 185 230
f 222 234 218
f 471 235 507
f 235 231 224
f 228 240 222
f 148 175 236
f 244 250 261
f 237 229 264
f 482 260 242
f 177 251 249
f 252 218 244
f 167 238 156
f 239 215 216
f 246 223 269
f 240 265 236
f 480 220 263
f 242 251 258
f 242 258 517
f 241 257 229
f 264 259 252
f 248 226 253
f 243 249 251
f 234 244 218
f 250 244 238
f 234 222 255
f 218 232 245
f 245 254 228
f 493 224 220
f 222 240 230
f 215 239 231
f 480 263 496
f 246 245 232
f 227 247 220
f 232 252 259
f 237 248 229
f 501 472 253
f 177 249 149
f 249 226 256
f 250 268 261
f 251 242 243
f 158 251 197
f 218 252 232
f 261 237 264
f 253 260 501
f 472 528 262
f 221 254 269
f 228 254 217
f 177 197 251
f 238 255 156
f 185 255 230
f 249 256 149
f 248 233 226
f 257 241 263
f 257 247 259
f 496 241 528
f 224 231 227
f 227 239 223
f 517 258 533
f 232 259 247
f 259 264 257
f 260 482 501
f 243 260 253
f 149 256 187
f 261 268 237
f 244 261 252
f 262 528 241
f 205 266 211
f 229 262 241
f 257 263 220
f 496 263 241
f 261 264 252
f 240 225 265
f 533 258 266
f 533 266 490
f 158 266 258
f 4 490 205
f 262 253 472
f 158 211 266
f 267 269 216
f 233 268 256
f 250 238 167
f 256 268 187
f 221 269 267
f 246 269 254
f 268 250 187
f 283 295 435
f 318 310 308
f 293 335 298
f 315 323 280
f 286 311 282
f 281 308 275
f 302 284 287
f 320 278 307
f 291 272 276
f 328 317 312
f 283 277 286
f 301 336 273
f 322 288 330
f 325 304 305
f 300 320 294
f 291 286 301
f 322 311 277
f 276 295 291
f 277 419 404
f 287 284 274
f 312 293 298
f 285 317 305
f 311 310 282
f 419 283 435
f 332 416 327
f 308 281 287
f 331 296 270
f 290 296 302
f 293 285 321
f 310 311 292
f 318 274 279
f 314 309 289
f 281 320 290
f 297 296 290
f 295 276 392
f 282 336 301
f 294 306 300
f 288 328 312
f 305 313 285
f 407 447 304
f 290 307 297
f 275 294 281
f 435 295 392
f 283 291 295
f 281 302 287
f 296 297 270
f 326 314 306
f 330 288 298
f 304 325 407
f 313 315 299
f 306 275 316
f 278 300 289
f 273 272 301
f 336 282 310
f 296 331 302
f 329 277 404
f 323 315 304
f 447 323 304
f 288 322 303
f 316 324 330
f 317 285 312
f 315 313 305
f 275 306 294
f 300 306 314
f 320 281 294
f 308 292 275
f 287 318 308
f 277 283 419
f 290 302 281
f 291 301 272
f 422 329 404
f 292 308 310
f 277 311 286
f 324 316 292
f 288 312 298
f 317 395 428
f 271 313 299
f 321 285 313
f 326 335 314
f 305 304 315
f 319 315 280
f 292 316 275
f 330 298 326
f 428 325 317
f 328 459 395
f 336 318 279
f 274 318 287
f 315 319 299
f 278 320 300
f 290 320 307
f 271 321 313
f 285 293 312
f 329 303 322
f 324 311 322
f 459 303 422
f 286 291 283
f 282 301 286
f 465 323 447
f 311 324 292
f 322 330 324
f 428 407 325
f 317 325 305
f 309 321 271
f 298 335 326
f 316 326 306
f 303 459 328
f 333 332 327
f 303 328 288
f 277 329 322
f 303 329 422
f 316 330 326
f 331 284 302
f 332 323 465
f 416 332 465
f 323 332 280
f 327 416 4
f 395 317 328
f 332 333 280
f 273 336 334
f 321 335 293
f 289 300 314
f 309 335 321
f 334 336 279
f 318 336 310
f 309 314 335
f 117 357 346
f 367 368 376
f 359 390 355
f 280 380 373
f 345 369 349
f 340 367 344
f 350 347 362
f 307 278 377
f 341 337 353
f 370 375 384
f 349 342 346
f 338 391 361
f 386 351 379
f 365 364 382
f 356 377 360
f 361 349 353
f 342 369 379
f 353 357 341
f 90 103 342
f 339 347 350
f 359 355 370
f 365 375 348
f 345 368 369
f 117 346 103
f 327 100 388
f 350 344 367
f 270 358 387
f 362 358 352
f 378 348 355
f 354 369 368
f 343 339 376
f 289 309 372
f 352 377 344
f 352 358 297
f 81 341 357
f 361 391 345
f 360 366 356
f 370 384 351
f 348 371 365
f 364 127 92
f 297 307 352
f 344 356 340
f 81 357 117
f 357 353 346
f 350 362 344
f 270 297 358
f 366 372 383
f 359 351 386
f 92 382 364
f 299 373 371
f 374 340 366
f 289 360 278
f 361 337 338
f 368 345 391
f 362 387 358
f 90 342 385
f 364 373 380
f 364 380 127
f 363 379 351
f 386 381 374
f 370 348 375
f 365 371 373
f 356 366 340
f 372 366 360
f 356 344 377
f 340 354 367
f 367 376 350
f 103 346 342
f 344 362 352
f 337 361 353
f 90 385 106
f 368 367 354
f 349 369 342
f 354 374 381
f 359 370 351
f 111 82 375
f 299 371 271
f 371 348 378
f 372 390 383
f 373 364 365
f 280 373 319
f 340 374 354
f 383 359 386
f 375 382 111
f 82 138 384
f 343 376 391
f 350 376 339
f 299 319 373
f 360 377 278
f 307 377 352
f 371 378 271
f 370 355 348
f 379 363 385
f 379 369 381
f 106 363 138
f 346 353 349
f 349 361 345
f 127 380 143
f 354 381 369
f 381 386 379
f 382 92 111
f 365 382 375
f 271 378 309
f 383 390 359
f 366 383 374
f 384 138 363
f 327 388 333
f 351 384 363
f 379 385 342
f 106 385 363
f 383 386 374
f 362 347 387
f 143 380 388
f 143 388 100
f 280 388 380
f 4 100 327
f 384 375 82
f 280 333 388
f 389 391 338
f 355 390 378
f 372 360 289
f 378 390 309
f 343 391 389
f 368 391 376
f 390 372 309
f 435 424 409
f 439 441 450
f 427 469 421
f 405 455 446
f 408 442 412
f 399 439 406
f 413 410 432
f 438 402 452
f 400 396 418
f 443 449 461
f 412 401 409
f 397 470 431
f 463 414 454
f 436 434 457
f 423 452 430
f 431 412 418
f 401 442 454
f 418 424 400
f 404 419 401
f 398 410 413
f 427 421 443
f 436 449 411
f 408 441 442
f 435 409 419
f 460 416 466
f 413 406 439
f 393 425 464
f 432 425 417
f 453 411 421
f 420 442 441
f 403 398 450
f 415 440 445
f 417 452 406
f 417 425 426
f 392 400 424
f 431 470 408
f 430 437 423
f 443 461 414
f 411 444 436
f 434 447 407
f 426 438 417
f 406 423 399
f 392 424 435
f 424 418 409
f 413 432 406
f 393 426 425
f 437 445 458
f 427 414 463
f 407 457 434
f 429 446 444
f 448 399 437
f 415 430 402
f 431 396 397
f 441 408 470
f 432 464 425
f 404 401 462
f 434 446 455
f 434 455 447
f 433 454 414
f 463 456 448
f 443 411 449
f 436 444 446
f 423 437 399
f 445 437 430
f 423 406 452
f 399 420 439
f 439 450 413
f 419 409 401
f 406 432 417
f 396 431 418
f 404 462 422
f 441 439 420
f 412 442 401
f 420 448 456
f 427 443 414
f 428 395 449
f 429 444 394
f 444 411 453
f 445 469 458
f 446 434 436
f 405 446 451
f 399 448 420
f 458 427 463
f 449 457 428
f 395 459 461
f 403 450 470
f 413 450 398
f 429 451 446
f 430 452 402
f 438 452 417
f 444 453 394
f 443 421 411
f 454 433 462
f 454 442 456
f 422 433 459
f 409 418 412
f 412 431 408
f 447 455 465
f 420 456 442
f 456 463 454
f 457 407 428
f 436 457 449
f 394 453 440
f 458 469 427
f 437 458 448
f 461 459 433
f 460 466 467
f 414 461 433
f 454 462 401
f 422 462 433
f 458 463 448
f 432 410 464
f 465 455 466
f 465 466 416
f 405 466 455
f 4 416 460
f 461 449 395
f 405 467 466
f 468 470 397
f 421 469 453
f 445 430 415
f 453 469 440
f 403 470 468
f 441 470 450
f 469 445 440
f 484 498 507
f 520 511 510
f 495 536 500
f 516 524 405
f 487 512 483
f 481 510 476
f 504 485 488
f 521 402 438
f 492 473 477
f 529 519 513
f 484 478 487
f 503 537 474
f 523 489 531
f 526 506 508
f 502 521 497
f 492 487 503
f 523 512 478
f 477 498 492
f 478 493 480
f 488 485 475
f 513 495 500
f 486 519 508
f 512 511 483
f 493 484 507
f 534 490 460
f 510 481 488
f 532 499 393
f 491 499 504
f 495 486 522
f 511 512 494
f 520 475 479
f 515 440 415
f 481 521 491
f 426 499 491
f 498 477 471
f 483 537 503
f 497 509 502
f 489 529 513
f 508 514 486
f 482 517 506
f 491 438 426
f 476 497 481
f 507 498 471
f 484 492 498
f 481 504 488
f 499 426 393
f 527 515 509
f 531 489 500
f 506 526 482
f 514 516 429
f 509 476 518
f 402 502 415
f 474 473 503
f 537 483 511
f 499 532 504
f 530 478 480
f 524 516 506
f 517 524 506
f 489 523 505
f 518 525 531
f 519 486 513
f 516 514 508
f 476 509 497
f 502 509 515
f 521 481 497
f 510 494 476
f 488 520 510
f 478 484 493
f 491 504 481
f 492 503 473
f 496 530 480
f 494 510 511
f 478 512 487
f 525 518 494
f 489 513 500
f 519 472 501
f 394 514 429
f 522 486 514
f 527 536 515
f 508 506 516
f 451 516 405
f 494 518 476
f 531 500 527
f 501 526 519
f 529 528 472
f 537 520 479
f 475 520 488
f 516 451 429
f 402 521 502
f 491 521 438
f 394 522 514
f 486 495 513
f 530 505 523
f 525 512 523
f 528 505 496
f 487 492 484
f 483 503 487
f 533 524 517
f 512 525 494
f 523 531 525
f 501 482 526
f 519 526 508
f 440 522 394
f 500 536 527
f 518 527 509
f 505 528 529
f 467 534 460
f 505 529 489
f 478 530 523
f 505 530 496
f 518 531 527
f 532 485 504
f 534 524 533
f 490 534 533
f 524 534 405
f 460 490 4
f 472 519 529
f 534 467 405
f 474 537 535
f 522 536 495
f 415 502 515
f 440 536 522
f 535 537 479
f 520 537 511
f 440 515 536
