# 4part FEM knit+cable best fit (4part_s_ring95)
# interior RMSE  : 4.434 mm
# max deviation  : 19.993 mm
# crown          : 0.32001 m (target 0.32177 m)
# max disp/rest  : 19.993 mm (floor 5.0 mm)
# regions        : 4 (1 D4 slots), 4 parameters
v 0.000616 0.600859 0.000000
v -0.423648 0.425123 0.000000
v -0.187543 0.189546 0.180282
v 0.001195 0.000349 0.211978
v 0.001027 0.296058 0.320009
v -0.111519 0.589084 0.000000
v -0.154511 0.578763 0.000000
v -0.288752 0.525061 0.000000
v -0.220036 0.404400 0.201273
v -0.051844 0.596730 0.000000
v -0.057333 0.466072 0.239537
v -0.309833 0.311972 0.105858
v -0.237731 0.549565 0.000000
v 0.001001 0.442355 0.269291
v -0.096705 0.098402 0.204989
v -0.275978 0.419998 0.145227
v 0.002025 0.202532 0.316836
v -0.143304 0.508587 0.162043
v -0.045103 0.516421 0.182576
v -0.329212 0.500267 0.000000
v -0.111066 0.248560 0.286513
v -0.092878 0.501931 0.199284
v -0.280678 0.474542 0.094637
v -0.086989 0.348722 0.291569
v -0.270053 0.272265 0.135429
v 0.001381 0.055119 0.231177
v -0.329161 0.401895 0.097852
v -0.078988 0.547771 0.111906
v 0.000866 0.489420 0.221721
v -0.176132 0.432272 0.217382
v -0.137997 0.278031 0.285377
v 0.000776 0.392659 0.297376
v -0.252184 0.375947 0.182069
v -0.032328 0.561536 0.090616
v -0.368340 0.420617 0.042089
v -0.387839 0.389528 0.037709
v -0.134584 0.318824 0.279567
v 0.001353 0.249557 0.319037
v -0.154309 0.156222 0.191859
v -0.258769 0.331223 0.177959
v -0.125383 0.540632 0.107412
v -0.328422 0.448407 0.062054
v -0.044437 0.370312 0.303072
v -0.047280 0.181174 0.288921
v 0.000413 0.546293 0.126327
v -0.080903 0.213873 0.289030
v -0.213662 0.352052 0.217241
v -0.348915 0.350922 0.072791
v -0.227467 0.451599 0.168536
v -0.227317 0.229721 0.161840
v -0.180270 0.479461 0.174405
v -0.120983 0.454491 0.238431
v -0.092001 0.297123 0.297374
v -0.130056 0.203614 0.258675
v -0.225069 0.297913 0.202728
v -0.094695 0.162550 0.258130
v 0.002123 0.157998 0.288574
v -0.178383 0.384901 0.238905
v -0.054859 0.265472 0.309511
v -0.232190 0.501339 0.106644
v -0.125464 0.127332 0.199306
v -0.293120 0.368348 0.142418
v -0.163180 0.237730 0.246844
v -0.086638 0.405656 0.272408
v -0.049052 0.136388 0.273118
v -0.139625 0.413316 0.251468
v -0.038324 0.223135 0.306278
v -0.175469 0.333078 0.255160
v 0.000768 0.342576 0.313386
v -0.033285 0.034832 0.211344
v -0.049076 0.319612 0.310814
v -0.039955 0.416468 0.280107
v -0.128715 0.366210 0.281747
v -0.381698 0.460952 0.000000
v 0.001339 0.111934 0.275099
v -0.040750 0.090831 0.245639
v -0.067003 0.068555 0.208667
v -0.194710 0.567385 0.000000
v -0.185959 0.280816 0.237928
v -0.178853 0.528032 0.099444
v -0.599383 0.000859 0.000000
v -0.294186 0.000177 0.318911
v -0.587609 0.112995 0.000000
v -0.577288 0.155985 0.000000
v -0.523586 0.290227 0.000000
v -0.402299 0.220820 0.199918
v -0.595255 0.053319 0.000000
v -0.459936 0.058125 0.243359
v -0.548091 0.239205 0.000000
v -0.443411 0.000422 0.261936
v -0.417641 0.276661 0.143375
v -0.200271 0.000480 0.303566
v -0.499363 0.141466 0.169497
v -0.518099 0.046917 0.171045
v -0.498792 0.330686 0.000000
v -0.245905 0.114255 0.277977
v -0.504210 0.094980 0.179428
v -0.474917 0.284267 0.088630
v -0.346610 0.087898 0.295160
v -0.053763 0.000330 0.230369
v -0.399746 0.331315 0.097647
v -0.545134 0.080335 0.111263
v -0.491045 0.000650 0.213391
v -0.431370 0.177654 0.210499
v -0.277899 0.141131 0.302846
v -0.390115 0.000549 0.295185
v -0.373685 0.252599 0.180201
v -0.560303 0.033623 0.087764
v -0.419040 0.370254 0.042616
v -0.318722 0.136150 0.262245
v -0.245915 -0.000399 0.314289
v -0.328652 0.261458 0.173356
v -0.538097 0.126530 0.106681
v -0.442149 0.325366 0.072752
v -0.368341 0.046158 0.301327
v -0.178339 0.049821 0.289247
v -0.544021 0.000809 0.125887
v -0.211954 0.082367 0.287518
v -0.350424 0.215567 0.217075
v -0.450474 0.229500 0.163978
v -0.476313 0.180838 0.173083
v -0.458950 0.124251 0.218612
v -0.295468 0.093952 0.298068
v -0.201068 0.133119 0.252108
v -0.297641 0.221674 0.208838
v -0.161020 0.096235 0.257290
v -0.157759 0.000215 0.284918
v -0.382407 0.178341 0.235288
v -0.263191 0.056498 0.309661
v -0.498905 0.233419 0.105938
v -0.366232 0.294450 0.141700
v -0.235320 0.166667 0.240233
v -0.404670 0.088062 0.273545
v -0.133447 0.052064 0.264486
v -0.408266 0.136179 0.251765
v -0.219647 0.041771 0.318245
v -0.331583 0.177464 0.249777
v -0.340672 0.000446 0.312673
v -0.316005 0.047449 0.314030
v -0.413337 0.041026 0.285044
v -0.365923 0.130276 0.273431
v -0.459477 0.383172 0.000000
v -0.110982 0.000086 0.259806
v -0.088757 0.042755 0.239732
v -0.565910 0.196184 0.000000
v -0.281460 0.179281 0.247511
v -0.524968 0.179752 0.100373
v 0.424880 0.425123 0.000000
v 0.189097 0.190019 0.180527
v 0.112752 0.589084 0.000000
v 0.155743 0.578763 0.000000
v 0.289984 0.525061 0.000000
v 0.223212 0.406325 0.202212
v 0.053076 0.596730 0.000000
v 0.058673 0.462269 0.243863
v 0.311303 0.312715 0.105806
v 0.238963 0.549565 0.000000
v 0.098806 0.098375 0.205126
v 0.282158 0.423111 0.139928
v 0.141662 0.501671 0.170465
v 0.046416 0.515863 0.181869
v 0.330445 0.500267 0.000000
v 0.112372 0.250014 0.285626
v 0.094603 0.503449 0.187704
v 0.281838 0.474663 0.106767
v 0.088153 0.348935 0.296276
v 0.271520 0.272782 0.135441
v 0.332169 0.402828 0.099212
v 0.079425 0.545884 0.117828
v 0.176836 0.431432 0.216775
v 0.142285 0.277375 0.269042
v 0.255306 0.377368 0.183873
v 0.033103 0.561875 0.090607
v 0.371925 0.421219 0.040427
v 0.389551 0.390060 0.036948
v 0.135194 0.319331 0.278730
v 0.156052 0.156697 0.192242
v 0.258706 0.332228 0.181910
v 0.127923 0.545857 0.097094
v 0.326433 0.446836 0.089782
v 0.046201 0.370068 0.304068
v 0.052300 0.178323 0.293922
v 0.082550 0.215179 0.311766
v 0.220231 0.354269 0.199674
v 0.350536 0.351696 0.072674
v 0.229768 0.452914 0.165060
v 0.228846 0.230124 0.161844
v 0.181133 0.478763 0.174062
v 0.124247 0.459670 0.222484
v 0.094435 0.298375 0.300117
v 0.133303 0.203476 0.254631
v 0.220995 0.300439 0.209256
v 0.103539 0.156771 0.250632
v 0.182591 0.385122 0.235888
v 0.058449 0.266751 0.315114
v 0.234342 0.502968 0.107924
v 0.127446 0.127484 0.199518
v 0.293927 0.369218 0.142120
v 0.167367 0.237104 0.241655
v 0.088621 0.406816 0.274069
v 0.054124 0.133328 0.267173
v 0.136240 0.409237 0.251154
v 0.041780 0.223402 0.314110
v 0.178266 0.332665 0.260449
v 0.035716 0.034750 0.211295
v 0.048496 0.319065 0.314116
v 0.041434 0.415448 0.284612
v 0.130232 0.366956 0.273199
v 0.382930 0.460952 0.000000
v 0.044584 0.088900 0.241630
v 0.069268 0.068492 0.208741
v 0.195941 0.567385 0.000000
v 0.181249 0.283256 0.258850
v 0.179575 0.526399 0.105246
v 0.588842 0.112995 0.000000
v 0.578520 0.155985 0.000000
v 0.524819 0.290227 0.000000
v 0.402723 0.220938 0.199270
v 0.596487 0.053319 0.000000
v 0.462512 0.059322 0.244635
v 0.549323 0.239205 0.000000
v 0.418790 0.277781 0.143945
v 0.499116 0.141619 0.176182
v 0.515676 0.047224 0.182154
v 0.500025 0.330686 0.000000
v 0.248062 0.114410 0.287135
v 0.503100 0.095251 0.188320
v 0.473661 0.282970 0.094097
v 0.349137 0.089660 0.297645
v 0.401605 0.335429 0.089498
v 0.545933 0.080592 0.114213
v 0.431840 0.178540 0.217751
v 0.278728 0.139851 0.284400
v 0.374504 0.253527 0.180279
v 0.561013 0.033957 0.090536
v 0.420774 0.371272 0.042961
v 0.320458 0.138162 0.277459
v 0.328789 0.266137 0.169838
v 0.539880 0.127023 0.107133
v 0.442960 0.325633 0.072727
v 0.369830 0.046798 0.300341
v 0.181979 0.049610 0.288209
v 0.214069 0.083533 0.288920
v 0.351272 0.218362 0.218780
v 0.451473 0.230259 0.164062
v 0.477940 0.181948 0.174756
v 0.455260 0.123525 0.228222
v 0.297534 0.094393 0.309438
v 0.202810 0.133954 0.252849
v 0.298563 0.223266 0.209804
v 0.162779 0.097095 0.256233
v 0.381961 0.179063 0.260388
v 0.265547 0.057531 0.309240
v 0.500175 0.234008 0.106168
v 0.367409 0.295917 0.142487
v 0.237036 0.167210 0.240442
v 0.405876 0.088665 0.285281
v 0.136136 0.052096 0.264573
v 0.411060 0.139131 0.251132
v 0.222333 0.042178 0.303100
v 0.332686 0.179327 0.260603
v 0.318391 0.048854 0.310702
v 0.416400 0.042015 0.280385
v 0.368770 0.134039 0.268194
v 0.460709 0.383172 0.000000
v 0.091208 0.042727 0.239932
v 0.567143 0.196184 0.000000
v 0.282052 0.182394 0.243827
v 0.526461 0.180246 0.100796
v -0.423648 -0.423406 0.000000
v -0.187152 -0.188911 0.180589
v -0.111519 -0.587366 0.000000
v -0.154511 -0.577046 0.000000
v -0.288752 -0.523343 0.000000
v -0.219076 -0.403758 0.202088
v -0.051844 -0.595012 0.000000
v -0.057210 -0.465299 0.240474
v -0.309626 -0.311664 0.106120
v -0.237731 -0.547848 0.000000
v -0.096550 -0.097740 0.205581
v -0.275753 -0.419962 0.146834
v -0.140009 -0.502627 0.172909
v -0.044706 -0.517186 0.185072
v -0.329212 -0.498550 0.000000
v -0.111547 -0.249344 0.285181
v -0.092693 -0.504358 0.190601
v -0.281915 -0.475882 0.097960
v -0.086016 -0.347804 0.303890
v -0.269666 -0.271757 0.135469
v -0.335262 -0.402735 0.090712
v -0.080336 -0.562761 0.095777
v -0.175208 -0.431632 0.218583
v -0.138736 -0.277954 0.272848
v -0.251009 -0.375274 0.186381
v -0.031002 -0.567661 0.093372
v -0.370407 -0.419397 0.040120
v -0.388043 -0.388604 0.037209
v -0.133441 -0.318781 0.278445
v -0.154142 -0.155505 0.192407
v -0.258487 -0.330427 0.178613
v -0.127005 -0.546964 0.111032
v -0.325009 -0.445678 0.082511
v -0.044431 -0.369882 0.301449
v -0.046899 -0.181757 0.300374
v -0.083369 -0.213486 0.292408
v -0.215579 -0.351807 0.217393
v -0.348662 -0.350994 0.073056
v -0.227986 -0.452468 0.166611
v -0.227048 -0.229048 0.161785
v -0.179903 -0.479610 0.176853
v -0.120824 -0.456024 0.229631
v -0.093283 -0.297245 0.300587
v -0.131845 -0.201958 0.253705
v -0.219748 -0.299353 0.212248
v -0.091697 -0.164244 0.269089
v -0.173638 -0.381391 0.242575
v -0.055528 -0.265708 0.318991
v -0.233361 -0.502694 0.109913
v -0.125419 -0.126537 0.199888
v -0.291997 -0.367934 0.145187
v -0.173541 -0.232115 0.230472
v -0.087262 -0.407751 0.274260
v -0.049872 -0.133496 0.266469
v -0.135283 -0.410418 0.251443
v -0.041808 -0.221461 0.310663
v -0.175845 -0.332087 0.251156
v -0.033210 -0.034161 0.211474
v -0.046599 -0.318211 0.313518
v -0.041354 -0.422746 0.275870
v -0.127853 -0.366290 0.272871
v -0.381698 -0.459234 0.000000
v -0.041036 -0.089076 0.240803
v -0.066802 -0.067936 0.209065
v -0.194710 -0.565668 0.000000
v -0.180614 -0.282109 0.244600
v -0.181271 -0.532517 0.103898
v -0.587609 -0.111278 0.000000
v -0.577288 -0.154268 0.000000
v -0.523586 -0.288510 0.000000
v -0.401667 -0.219445 0.199603
v -0.595255 -0.051602 0.000000
v -0.465067 -0.057861 0.236455
v -0.548091 -0.237488 0.000000
v -0.416507 -0.275790 0.143370
v -0.499618 -0.140123 0.169893
v -0.514256 -0.045254 0.182416
v -0.498792 -0.328969 0.000000
v -0.248376 -0.111679 0.283792
v -0.501840 -0.093335 0.188251
v -0.469897 -0.279453 0.114928
v -0.347222 -0.087355 0.292431
v -0.399824 -0.329962 0.107677
v -0.545916 -0.078295 0.111761
v -0.429576 -0.175589 0.216005
v -0.276570 -0.139735 0.272292
v -0.373474 -0.252752 0.181526
v -0.557317 -0.031716 0.095580
v -0.419384 -0.369114 0.042823
v -0.317379 -0.134764 0.278598
v -0.328882 -0.258709 0.179676
v -0.539150 -0.124627 0.107632
v -0.443481 -0.325726 0.073936
v -0.367783 -0.044666 0.302591
v -0.175172 -0.052402 0.282297
v -0.213307 -0.082321 0.288784
v -0.349763 -0.214890 0.217428
v -0.449494 -0.227718 0.162927
v -0.479745 -0.181548 0.168002
v -0.454472 -0.121601 0.227959
v -0.296228 -0.092840 0.297612
v -0.201636 -0.132158 0.252107
v -0.297075 -0.221568 0.209283
v -0.159482 -0.097498 0.251354
v -0.379601 -0.174049 0.240527
v -0.264099 -0.055996 0.309060
v -0.501431 -0.233070 0.107460
v -0.365616 -0.296440 0.138098
v -0.235402 -0.165769 0.239904
v -0.404865 -0.086982 0.272085
v -0.131319 -0.053724 0.259270
v -0.408600 -0.135799 0.252257
v -0.221285 -0.040471 0.303374
v -0.330332 -0.176338 0.249547
v -0.316647 -0.046990 0.311561
v -0.414416 -0.040043 0.279484
v -0.364816 -0.128949 0.281415
v -0.459477 -0.381455 0.000000
v -0.088332 -0.042326 0.240432
v -0.565910 -0.194467 0.000000
v -0.280362 -0.180795 0.243117
v -0.522964 -0.176981 0.109536
v 0.000616 -0.599141 0.000000
v 0.424880 -0.423406 0.000000
v 0.190209 -0.188257 0.180465
v 0.000773 -0.295119 0.319956
v 0.112752 -0.587366 0.000000
v 0.155743 -0.577046 0.000000
v 0.289984 -0.523343 0.000000
v 0.221434 -0.402741 0.200415
v 0.053076 -0.595012 0.000000
v 0.059036 -0.460819 0.244295
v 0.313087 -0.310296 0.106285
v 0.238963 -0.547848 0.000000
v 0.001601 -0.443266 0.267212
v 0.099199 -0.097452 0.205347
v 0.277746 -0.418438 0.144255
v 0.000907 -0.201815 0.317918
v 0.142270 -0.501881 0.171395
v 0.047486 -0.520633 0.178454
v 0.330445 -0.498550 0.000000
v 0.112707 -0.248831 0.284020
v 0.096158 -0.509670 0.180405
v 0.283834 -0.473871 0.095200
v 0.091470 -0.350619 0.291999
v 0.273093 -0.270675 0.135718
v 0.001394 -0.054330 0.230435
v 0.332086 -0.400264 0.097743
v 0.080302 -0.553850 0.117103
v 0.001422 -0.489658 0.224067
v 0.177278 -0.430269 0.216801
v 0.139771 -0.277957 0.281907
v 0.001072 -0.391711 0.297180
v 0.254094 -0.374539 0.181367
v 0.033356 -0.566946 0.093106
v 0.370913 -0.419601 0.042774
v 0.390561 -0.388217 0.036919
v 0.135541 -0.318622 0.280764
v 0.000609 -0.248485 0.317843
v 0.156947 -0.155065 0.192154
v 0.261211 -0.329869 0.177704
v 0.129262 -0.551411 0.098952
v 0.326147 -0.442835 0.073280
v 0.046344 -0.369595 0.301864
v 0.049778 -0.180581 0.288587
v 0.001103 -0.550806 0.132328
v 0.083583 -0.213295 0.288782
v 0.216004 -0.350486 0.216796
v 0.352306 -0.349258 0.073080
v 0.230443 -0.451380 0.165049
v 0.230232 -0.228161 0.161940
v 0.182325 -0.478620 0.175819
v 0.122643 -0.454552 0.227627
v 0.093875 -0.297229 0.297375
v 0.132601 -0.202898 0.256167
v 0.228585 -0.295893 0.200958
v 0.096779 -0.162138 0.257725
v 0.001866 -0.153764 0.286147
v 0.177231 -0.381114 0.238855
v 0.056625 -0.265198 0.316709
v 0.235912 -0.501713 0.108702
v 0.128028 -0.126299 0.199635
v 0.295395 -0.366935 0.141997
v 0.167543 -0.235992 0.240443
v 0.089478 -0.406507 0.271137
v 0.052816 -0.134441 0.265168
v 0.136952 -0.408471 0.251624
v 0.042061 -0.221470 0.305698
v 0.177639 -0.331210 0.249210
v 0.000855 -0.341819 0.313796
v 0.035766 -0.034042 0.211467
v 0.048191 -0.317871 0.313464
v 0.041972 -0.415394 0.280742
v 0.131479 -0.366264 0.273478
v 0.382930 -0.459234 0.000000
v 0.001617 -0.109921 0.262124
v 0.043992 -0.089177 0.240649
v 0.069437 -0.067710 0.208956
v 0.195941 -0.565668 0.000000
v 0.182099 -0.281140 0.243392
v 0.181906 -0.527894 0.118751
v 0.600616 0.000859 0.000000
v 0.295746 0.001575 0.318688
v 0.588842 -0.111278 0.000000
v 0.578520 -0.154268 0.000000
v 0.524819 -0.288510 0.000000
v 0.404454 -0.219286 0.202362
v 0.596487 -0.051602 0.000000
v 0.461920 -0.056144 0.243944
v 0.549323 -0.237488 0.000000
v 0.446571 0.001480 0.261720
v 0.420539 -0.275303 0.146458
v 0.202154 0.000848 0.307372
v 0.502035 -0.139398 0.170909
v 0.518149 -0.044474 0.178229
v 0.500025 -0.328969 0.000000
v 0.250380 -0.111109 0.284577
v 0.502523 -0.092120 0.192121
v 0.476856 -0.281106 0.097540
v 0.348448 -0.085577 0.295364
v 0.055827 0.000515 0.230813
v 0.403353 -0.330601 0.100337
v 0.546986 -0.078203 0.113744
v 0.489607 0.001421 0.221592
v 0.431784 -0.174557 0.217421
v 0.278790 -0.138871 0.272811
v 0.391823 0.001496 0.295383
v 0.377765 -0.258045 0.176570
v 0.561182 -0.031651 0.090722
v 0.423531 -0.373796 0.031212
v 0.319542 -0.133343 0.278673
v 0.248347 0.001774 0.314858
v 0.332033 -0.257939 0.178052
v 0.541082 -0.124705 0.107133
v 0.447729 -0.324808 0.084455
v 0.369981 -0.043825 0.300549
v 0.182449 -0.047684 0.300958
v 0.545777 0.001382 0.126329
v 0.215527 -0.080531 0.302743
v 0.352414 -0.214623 0.219497
v 0.451358 -0.226077 0.171417
v 0.479414 -0.178907 0.174992
v 0.456406 -0.120589 0.228886
v 0.297979 -0.092807 0.297696
v 0.203622 -0.132415 0.252908
v 0.299909 -0.220867 0.210120
v 0.164756 -0.093836 0.264011
v 0.158920 0.000852 0.287478
v 0.382018 -0.173512 0.242465
v 0.266018 -0.054966 0.311784
v 0.500730 -0.230699 0.113651
v 0.369152 -0.293488 0.143465
v 0.237766 -0.165513 0.240605
v 0.406669 -0.086127 0.274373
v 0.135359 -0.051067 0.265708
v 0.409939 -0.134330 0.252631
v 0.222882 -0.039726 0.314090
v 0.332717 -0.175717 0.251038
v 0.342279 0.001510 0.312533
v 0.318427 -0.045803 0.311952
v 0.416034 -0.039085 0.279818
v 0.366961 -0.127962 0.273319
v 0.460709 -0.381455 0.000000
v 0.110937 0.000695 0.259150
v 0.091471 -0.041335 0.241465
v 0.567143 -0.194467 0.000000
v 0.282856 -0.180130 0.244417
v 0.527817 -0.177875 0.101683
f 45 34 19
f 49 51 60
f 37 79 31
f 15 65 56
f 18 52 22
f 9 49 16
f 23 20 42
f 48 12 62
f 10 6 28
f 53 59 71
f 22 11 19
f 7 80 41
f 73 24 64
f 46 44 67
f 33 62 40
f 41 22 28
f 11 52 64
f 28 34 10
f 14 29 11
f 8 20 23
f 37 31 53
f 46 59 21
f 18 51 52
f 45 19 29
f 70 26 76
f 23 16 49
f 2 35 74
f 42 35 27
f 63 21 31
f 30 52 51
f 13 8 60
f 25 50 55
f 27 62 16
f 27 35 36
f 1 10 34
f 41 80 18
f 40 47 33
f 53 71 24
f 21 54 46
f 44 57 17
f 36 48 27
f 16 33 9
f 1 34 45
f 34 28 19
f 23 42 16
f 2 36 35
f 47 55 68
f 37 24 73
f 17 67 44
f 39 56 54
f 58 9 47
f 25 40 12
f 41 6 7
f 51 18 80
f 42 74 35
f 14 11 72
f 44 56 65
f 44 65 57
f 43 64 24
f 73 66 58
f 53 21 59
f 46 54 56
f 33 47 9
f 55 47 40
f 33 16 62
f 9 30 49
f 49 60 23
f 29 19 11
f 16 42 27
f 6 41 28
f 14 72 32
f 51 49 30
f 22 52 11
f 30 58 66
f 37 53 24
f 38 5 59
f 39 54 3
f 54 21 63
f 55 79 68
f 56 44 46
f 15 56 61
f 9 58 30
f 68 37 73
f 59 67 38
f 5 69 71
f 13 60 80
f 23 60 8
f 39 61 56
f 40 62 12
f 48 62 27
f 54 63 3
f 53 31 21
f 64 43 72
f 64 52 66
f 32 43 69
f 19 28 22
f 22 41 18
f 57 65 75
f 30 66 52
f 66 73 64
f 67 17 38
f 46 67 59
f 3 63 50
f 68 79 37
f 47 68 58
f 71 69 43
f 70 76 77
f 24 71 43
f 64 72 11
f 32 72 43
f 68 73 58
f 42 20 74
f 75 65 76
f 75 76 26
f 15 76 65
f 4 26 70
f 71 59 5
f 15 77 76
f 78 80 7
f 31 79 63
f 55 40 25
f 63 79 50
f 13 80 78
f 51 80 60
f 79 55 50
f 94 108 117
f 130 121 120
f 105 146 110
f 126 134 15
f 97 122 93
f 91 120 86
f 114 95 98
f 131 12 48
f 102 83 87
f 139 129 123
f 94 88 97
f 113 147 84
f 133 99 141
f 136 116 118
f 112 131 107
f 102 97 113
f 133 122 88
f 87 108 102
f 88 103 90
f 98 95 85
f 123 105 110
f 96 129 118
f 122 121 93
f 103 94 117
f 144 100 70
f 120 91 98
f 142 109 2
f 101 109 114
f 105 96 132
f 121 122 104
f 130 85 89
f 125 50 25
f 91 131 101
f 36 109 101
f 108 87 81
f 93 147 113
f 107 119 112
f 99 139 123
f 118 124 96
f 92 127 116
f 101 48 36
f 86 107 91
f 117 108 81
f 94 102 108
f 91 114 98
f 109 36 2
f 137 125 119
f 141 99 110
f 116 136 92
f 124 126 39
f 119 86 128
f 12 112 25
f 84 83 113
f 147 93 121
f 109 142 114
f 140 88 90
f 134 126 116
f 127 134 116
f 99 133 115
f 128 135 141
f 129 96 123
f 126 124 118
f 86 119 107
f 112 119 125
f 131 91 107
f 120 104 86
f 98 130 120
f 88 94 103
f 101 114 91
f 102 113 83
f 106 140 90
f 104 120 121
f 88 122 97
f 135 128 104
f 99 123 110
f 129 82 111
f 3 124 39
f 132 96 124
f 137 146 125
f 118 116 126
f 61 126 15
f 104 128 86
f 141 110 137
f 111 136 129
f 139 138 82
f 147 130 89
f 85 130 98
f 126 61 39
f 12 131 112
f 101 131 48
f 3 132 124
f 96 105 123
f 140 115 133
f 135 122 133
f 138 115 106
f 97 102 94
f 93 113 97
f 143 134 127
f 122 135 104
f 133 141 135
f 111 92 136
f 129 136 118
f 50 132 3
f 110 146 137
f 128 137 119
f 115 138 139
f 77 144 70
f 115 139 99
f 88 140 133
f 115 140 106
f 128 141 137
f 142 95 114
f 144 134 143
f 100 144 143
f 134 144 15
f 70 100 4
f 82 129 139
f 144 77 15
f 84 147 145
f 132 146 105
f 25 112 125
f 50 146 132
f 145 147 89
f 130 147 121
f 50 125 146
f 161 173 45
f 196 188 186
f 171 213 176
f 193 201 158
f 164 189 160
f 159 186 153
f 180 162 165
f 198 156 185
f 169 150 154
f 206 195 190
f 161 155 164
f 179 214 151
f 200 166 208
f 203 182 183
f 178 198 172
f 169 164 179
f 200 189 155
f 154 173 169
f 155 29 14
f 165 162 152
f 190 171 176
f 163 195 183
f 189 188 160
f 29 161 45
f 210 26 205
f 186 159 165
f 209 174 148
f 168 174 180
f 171 163 199
f 188 189 170
f 196 152 157
f 192 187 167
f 159 198 168
f 175 174 168
f 173 154 1
f 160 214 179
f 172 184 178
f 166 206 190
f 183 191 163
f 17 57 182
f 168 185 175
f 153 172 159
f 45 173 1
f 161 169 173
f 159 180 165
f 174 175 148
f 204 192 184
f 208 166 176
f 182 203 17
f 191 193 177
f 184 153 194
f 156 178 167
f 151 150 179
f 214 160 188
f 174 209 180
f 207 155 14
f 201 193 182
f 57 201 182
f 166 200 181
f 194 202 208
f 195 163 190
f 193 191 183
f 153 184 172
f 178 184 192
f 198 159 172
f 186 170 153
f 165 196 186
f 155 161 29
f 168 180 159
f 169 179 150
f 32 207 14
f 170 186 188
f 155 189 164
f 202 194 170
f 166 190 176
f 195 5 38
f 149 191 177
f 199 163 191
f 204 213 192
f 183 182 193
f 197 193 158
f 170 194 153
f 208 176 204
f 38 203 195
f 206 69 5
f 214 196 157
f 152 196 165
f 193 197 177
f 156 198 178
f 168 198 185
f 149 199 191
f 163 171 190
f 207 181 200
f 202 189 200
f 69 181 32
f 164 169 161
f 160 179 164
f 75 201 57
f 189 202 170
f 200 208 202
f 38 17 203
f 195 203 183
f 187 199 149
f 176 213 204
f 194 204 184
f 181 69 206
f 211 210 205
f 181 206 166
f 155 207 200
f 181 207 32
f 194 208 204
f 209 162 180
f 210 201 75
f 26 210 75
f 201 210 158
f 205 26 4
f 5 195 206
f 210 211 158
f 151 214 212
f 199 213 171
f 167 178 192
f 187 213 199
f 212 214 157
f 196 214 188
f 187 192 213
f 507 235 224
f 245 246 254
f 237 268 233
f 158 258 251
f 223 247 227
f 218 245 222
f 228 225 240
f 185 156 255
f 219 215 231
f 248 253 262
f 227 220 224
f 216 269 239
f 264 229 257
f 243 242 260
f 234 255 238
f 239 227 231
f 220 247 257
f 231 235 219
f 480 493 220
f 217 225 228
f 237 233 248
f 243 253 226
f 223 246 247
f 507 224 493
f 205 490 266
f 228 222 245
f 148 236 265
f 240 236 230
f 256 226 233
f 232 247 246
f 221 217 254
f 167 187 250
f 230 255 222
f 230 236 175
f 471 219 235
f 239 269 223
f 238 244 234
f 248 262 229
f 226 249 243
f 242 517 482
f 175 185 230
f 222 234 218
f 471 235 507
f 235 231 224
f 228 240 222
f 148 175 236
f 244 250 261
f 237 229 264
f 482 260 242
f 177 251 249
f 252 218 244
f 167 238 156
f 239 215 216
f 246 223 269
f 240 265 236
f 480 220 263
f 242 251 258
f 242 258 517
f 241 257 229
f 264 259 252
f 248 226 253
f 243 249 251
f 234 244 218
f 250 244 238
f 234 222 255
f 218 232 245
f 245 254 228
f 493 224 220
f 222 240 230
f 215 239 231
f 480 263 496
f 246 245 232
f 227 247 220
f 232 252 259
f 237 248 229
f 501 472 253
f 177 249 149
f 249 226 256
f 250 268 261
f 251 242 243
f 158 251 197
f 218 252 232
f 261 237 264
f 253 260 501
f 472 528 262
f 221 254 269
f 228 254 217
f 177 197 251
f 238 255 156
f 185 255 230
f 249 256 149
f 248 233 226
f 257 241 263
f 257 247 259
f 496 241 528
f 224 231 227
f 227 239 223
f 517 258 533
f 232 259 247
f 259 264 257
f 260 482 501
f 243 260 253
f 149 256 187
f 261 268 237
f 244 261 252
f 262 528 241
f 205 266 211
f 229 262 241
f 257 263 220
f 496 263 241
f 261 264 252
f 240 225 265
f 533 258 266
f 533 266 490
f 158 266 258
f 4 490 205
f 262 253 472
f 158 211 266
f 267 269 216
f 233 268 256
f 250 238 167
f 256 268 187
f 221 269 267
f 246 269 254
f 268 250 187
f 283 295 435
f 318 310 308
f 293 335 298
f 315 323 280
f 286 311 282
f 281 308 275
f 302 284 287
f 320 278 307
f 291 272 276
f 328 317 312
f 283 277 286
f 301 336 273
f 322 288 330
f 325 304 305
f 300 320 294
f 291 286 301
f 322 311 277
f 276 295 291
f 277 419 404
f 287 284 274
f 312 293 298
f 285 317 305
f 311 310 282
f 419 283 435
f 332 416 327
f 308 281 287
f 331 296 270
f 290 296 302
f 293 285 321
f 310 311 292
f 318 274 279
f 314 309 289
f 281 320 290
f 297 296 290
f 295 276 392
f 282 336 301
f 294 306 300
f 288 328 312
f 305 313 285
f 407 447 304
f 290 307 297
f 275 294 281
f 435 295 392
f 283 291 295
f 281 302 287
f 296 297 270
f 326 314 306
f 330 288 298
f 304 325 407
f 313 315 299
f 306 275 316
f 278 300 289
f 273 272 301
f 336 282 310
f 296 331 302
f 329 277 404
f 323 315 304
f 447 323 304
f 288 322 303
f 316 324 330
f 317 285 312
f 315 313 305
f 275 306 294
f 300 306 314
f 320 281 294
f 308 292 275
f 287 318 308
f 277 283 419
f 290 302 281
f 291 301 272
f 422 329 404
f 292 308 310
f 277 311 286
f 324 316 292
f 288 312 298
f 317 395 428
f 271 313 299
f 321 285 313
f 326 335 314
f 305 304 315
f 319 315 280
f 292 316 275
f 330 298 326
f 428 325 317
f 328 459 395
f 336 318 279
f 274 318 287
f 315 319 299
f 278 320 300
f 290 320 307
f 271 321 313
f 285 293 312
f 329 303 322
f 324 311 322
f 459 303 422
f 286 291 283
f 282 301 286
f 465 323 447
f 311 324 292
f 322 330 324
f 428 407 325
f 317 325 305
f 309 321 271
f 298 335 326
f 316 326 306
f 303 459 328
f 333 332 327
f 303 328 288
f 277 329 322
f 303 329 422
f 316 330 326
f 331 284 302
f 332 323 465
f 416 332 465
f 323 332 280
f 327 416 4
f 395 317 328
f 332 333 280
f 273 336 334
f 321 335 293
f 289 300 314
f 309 335 321
f 334 336 279
f 318 336 310
f 309 314 335
f 117 357 346
f 367 368 376
f 359 390 355
f 280 380 373
f 345 369 349
f 340 367 344
f 350 347 362
f 307 278 377
f 341 337 353
f 370 375 384
f 349 342 346
f 338 391 361
f 386 351 379
f 365 364 382
f 356 377 360
f 361 349 353
f 342 369 379
f 353 357 341
f 90 103 342
f 339 347 350
f 359 355 370
f 365 375 348
f 345 368 369
f 117 346 103
f 327 100 388
f 350 344 367
f 270 358 387
f 362 358 352
f 378 348 355
f 354 369 368
f 343 339 376
f 289 309 372
f 352 377 344
f 352 358 297
f 81 341 357
f 361 391 345
f 360 366 356
f 370 384 351
f 348 371 365
f 364 127 92
f 297 307 352
f 344 356 340
f 81 357 117
f 357 353 346
f 350 362 344
f 270 297 358
f 366 372 383
f 359 351 386
f 92 382 364
f 299 373 371
f 374 340 366
f 289 360 278
f 361 337 338
f 368 345 391
f 362 387 358
f 90 342 385
f 364 373 380
f 364 380 127
f 363 379 351
f 386 381 374
f 370 348 375
f 365 371 373
f 356 366 340
f 372 366 360
f 356 344 377
f 340 354 367
f 367 376 350
f 103 346 342
f 344 362 352
f 337 361 353
f 90 385 106
f 368 367 354
f 349 369 342
f 354 374 381
f 359 370 351
f 111 82 375
f 299 371 271
f 371 348 378
f 372 390 383
f 373 364 365
f 280 373 319
f 340 374 354
f 383 359 386
f 375 382 111
f 82 138 384
f 343 376 391
f 350 376 339
f 299 319 373
f 360 377 278
f 307 377 352
f 371 378 271
f 370 355 348
f 379 363 385
f 379 369 381
f 106 363 138
f 346 353 349
f 349 361 345
f 127 380 143
f 354 381 369
f 381 386 379
f 382 92 111
f 365 382 375
f 271 378 309
f 383 390 359
f 366 383 374
f 384 138 363
f 327 388 333
f 351 384 363
f 379 385 342
f 106 385 363
f 383 386 374
f 362 347 387
f 143 380 388
f 143 388 100
f 280 388 380
f 4 100 327
f 384 375 82
f 280 333 388
f 389 391 338
f 355 390 378
f 372 360 289
f 378 390 309
f 343 391 389
f 368 391 376
f 390 372 309
f 435 424 409
f 439 441 450
f 427 469 421
f 405 455 446
f 408 442 412
f 399 439 406
f 413 410 432
f 438 402 452
f 400 396 418
f 443 449 461
f 412 401 409
f 397 470 431
f 463 414 454
f 436 434 457
f 423 452 430
f 431 412 418
f 401 442 454
f 418 424 400
f 404 419 401
f 398 410 413
f 427 421 443
f 436 449 411
f 408 441 442
f 435 409 419
f 460 416 466
f 413 406 439
f 393 425 464
f 432 425 417
f 453 411 421
f 420 442 441
f 403 398 450
f 415 440 445
f 417 452 406
f 417 425 426
f 392 400 424
f 431 470 408
f 430 437 423
f 443 461 414
f 411 444 436
f 434 447 407
f 426 438 417
f 406 423 399
f 392 424 435
f 424 418 409
f 413 432 406
f 393 426 425
f 437 445 458
f 427 414 463
f 407 457 434
f 429 446 444
f 448 399 437
f 415 430 402
f 431 396 397
f 441 408 470
f 432 464 425
f 404 401 462
f 434 446 455
f 434 455 447
f 433 454 414
f 463 456 448
f 443 411 449
f 436 444 446
f 423 437 399
f 445 437 430
f 423 406 452
f 399 420 439
f 439 450 413
f 419 409 401
f 406 432 417
f 396 431 418
f 404 462 422
f 441 439 420
f 412 442 401
f 420 448 456
f 427 443 414
f 428 395 449
f 429 444 394
f 444 411 453
f 445 469 458
f 446 434 436
f 405 446 451
f 399 448 420
f 458 427 463
f 449 457 428
f 395 459 461
f 403 450 470
f 413 450 398
f 429 451 446
f 430 452 402
f 438 452 417
f 444 453 394
f 443 421 411
f 454 433 462
f 454 442 456
f 422 433 459
f 409 418 412
f 412 431 408
f 447 455 465
f 420 456 442
f 456 463 454
f 457 407 428
f 436 457 449
f 394 453 440
f 458 469 427
f 437 458 448
f 461 459 433
f 460 466 467
f 414 461 433
f 454 462 401
f 422 462 433
f 458 463 448
f 432 410 464
f 465 455 466
f 465 466 416
f 405 466 455
f 4 416 460
f 461 449 395
f 405 467 466
f 468 470 397
f 421 469 453
f 445 430 415
f 453 469 440
f 403 470 468
f 441 470 450
f 469 445 440
f 484 498 507
f 520 511 510
f 495 536 500
f 516 524 405
f 487 512 483
f 481 510 476
f 504 485 488
f 521 402 438
f 492 473 477
f 529 519 513
f 484 478 487
f 503 537 474
f 523 489 531
f 526 506 508
f 502 521 497
f 492 487 503
f 523 512 478
f 477 498 492
f 478 493 480
f 488 485 475
f 513 495 500
f 486 519 508
f 512 511 483
f 493 484 507
f 534 490 460
f 510 481 488
f 532 499 393
f 491 499 504
f 495 486 522
f 511 512 494
f 520 475 479
f 515 440 415
f 481 521 491
f 426 499 491
f 498 477 471
f 483 537 503
f 497 509 502
f 489 529 513
f 508 514 486
f 482 517 506
f 491 438 426
f 476 497 481
f 507 498 471
f 484 492 498
f 481 504 488
f 499 426 393
f 527 515 509
f 531 489 500
f 506 526 482
f 514 516 429
f 509 476 518
f 402 502 415
f 474 473 503
f 537 483 511
f 499 532 504
f 530 478 480
f 524 516 506
f 517 524 506
f 489 523 505
f 518 525 531
f 519 486 513
f 516 514 508
f 476 509 497
f 502 509 515
f 521 481 497
f 510 494 476
f 488 520 510
f 478 484 493
f 491 504 481
f 492 503 473
f 496 530 480
f 494 510 511
f 478 512 487
f 525 518 494
f 489 513 500
f 519 472 501
f 394 514 429
f 522 486 514
f 527 536 515
f 508 506 516
f 451 516 405
f 494 518 476
f 531 500 527
f 501 526 519
f 529 528 472
f 537 520 479
f 475 520 488
f 516 451 429
f 402 521 502
f 491 521 438
f 394 522 514
f 486 495 513
f 530 505 523
f 525 512 523
f 528 505 496
f 487 492 484
f 483 503 487
f 533 524 517
f 512 525 494
f 523 531 525
f 501 482 526
f 519 526 508
f 440 522 394
f 500 536 527
f 518 527 509
f 505 528 529
f 467 534 460
f 505 529 489
f 478 530 523
f 505 530 496
f 518 531 527
f 532 485 504
f 534 524 533
f 490 534 533
f 524 534 405
f 460 490 4
f 472 519 529
f 534 467 405
f 474 537 535
f 522 536 495
f 415 502 515
f 440 536 522
f 535 537 479
f 520 537 511
f 440 515 536
