# 4part FEM knit+cable best fit (4part_s_pw_crestd2_r90w)
# interior RMSE  : 3.208 mm
# max deviation  : 14.310 mm
# crown          : 0.32014 m (target 0.32177 m)
# max disp/rest  : 14.310 mm (floor 5.0 mm)
# regions        : 16 (4 D4 slots), 18 parameters
v 0.000616 0.600859 0.000000
v -0.423648 0.425123 0.000000
v -0.187681 0.189759 0.179919
v 0.001030 0.000581 0.210475
v 0.001201 0.295285 0.320136
v -0.111519 0.589084 0.000000
v -0.154511 0.578763 0.000000
v -0.288752 0.525061 0.000000
v -0.219912 0.403357 0.203005
v -0.051844 0.596730 0.000000
v -0.057037 0.462222 0.238162
v -0.310099 0.312051 0.106446
v -0.237731 0.549565 0.000000
v 0.001079 0.439085 0.268517
v -0.097152 0.098945 0.204154
v -0.276252 0.419260 0.147538
v 0.002177 0.202527 0.317126
v -0.141685 0.504903 0.161816
v -0.044619 0.512558 0.181034
v -0.329212 0.500267 0.000000
v -0.111577 0.248051 0.286813
v -0.091969 0.498061 0.198056
v -0.278280 0.471636 0.094167
v -0.086690 0.347337 0.291150
v -0.270104 0.272239 0.135815
v 0.001297 0.055744 0.230477
v -0.329939 0.402216 0.100521
v -0.077929 0.545005 0.111357
v 0.001004 0.485663 0.220346
v -0.175207 0.430456 0.218490
v -0.138407 0.277429 0.285873
v 0.000966 0.390428 0.296757
v -0.252694 0.375283 0.184275
v -0.031756 0.559486 0.089209
v -0.369555 0.421791 0.044065
v -0.388477 0.389992 0.037823
v -0.134794 0.317848 0.280026
v 0.001492 0.249192 0.319340
v -0.154584 0.156574 0.191295
v -0.259392 0.330671 0.179712
v -0.124181 0.537720 0.107381
v -0.327508 0.449215 0.066998
v -0.044149 0.368602 0.302692
v -0.047673 0.181150 0.289189
v 0.000559 0.543223 0.125217
v -0.081404 0.213590 0.289290
v -0.213715 0.351234 0.218540
v -0.349473 0.351264 0.073467
v -0.227039 0.450049 0.169996
v -0.227347 0.229764 0.161797
v -0.179217 0.477224 0.175704
v -0.120295 0.451528 0.238000
v -0.092149 0.296425 0.297508
v -0.130695 0.203295 0.258963
v -0.225529 0.297274 0.203812
v -0.095343 0.162461 0.258088
v 0.002194 0.158109 0.288872
v -0.177952 0.383574 0.239636
v -0.054960 0.265044 0.309758
v -0.229595 0.496714 0.105551
v -0.125854 0.127796 0.198583
v -0.294096 0.368069 0.144733
v -0.163791 0.237246 0.247364
v -0.086120 0.403165 0.271791
v -0.049589 0.136426 0.273230
v -0.139095 0.411381 0.251856
v -0.038455 0.222975 0.306587
v -0.175597 0.332191 0.256106
v 0.000938 0.341244 0.313149
v -0.033757 0.035394 0.210043
v -0.049022 0.318706 0.310812
v -0.039639 0.413804 0.279439
v -0.128380 0.364915 0.282036
v -0.381698 0.460952 0.000000
v 0.001379 0.112100 0.275197
v -0.041357 0.090881 0.245438
v -0.067470 0.069121 0.207634
v -0.194710 0.567385 0.000000
v -0.186273 0.280166 0.238549
v -0.177431 0.524296 0.100782
v -0.599383 0.000859 0.000000
v -0.293701 0.000463 0.319952
v -0.587609 0.112995 0.000000
v -0.577288 0.155985 0.000000
v -0.523586 0.290227 0.000000
v -0.401794 0.221001 0.202586
v -0.595255 0.053319 0.000000
v -0.457255 0.058133 0.243713
v -0.548091 0.239205 0.000000
v -0.440764 0.000591 0.262191
v -0.417568 0.277263 0.147103
v -0.200336 0.000800 0.304752
v -0.496814 0.140612 0.170463
v -0.515407 0.046625 0.170862
v -0.498792 0.330686 0.000000
v -0.245683 0.114945 0.278594
v -0.501386 0.094309 0.179599
v -0.472011 0.281552 0.089036
v -0.345748 0.088080 0.296077
v -0.054114 0.000679 0.230405
v -0.400422 0.331516 0.100309
v -0.543280 0.079700 0.111723
v -0.488229 0.000900 0.213214
v -0.430057 0.176941 0.212502
v -0.277293 0.141659 0.304134
v -0.388347 0.000897 0.295478
v -0.373544 0.253350 0.183283
v -0.559151 0.033356 0.087300
v -0.420217 0.370845 0.043959
v -0.318028 0.136743 0.263429
v -0.245705 -0.000115 0.315622
v -0.328435 0.262230 0.175486
v -0.536064 0.125800 0.107550
v -0.443078 0.323753 0.077700
v -0.367178 0.046392 0.302285
v -0.178252 0.050712 0.290446
v -0.541932 0.000682 0.126003
v -0.211936 0.083201 0.288414
v -0.349945 0.216028 0.219321
v -0.449664 0.229460 0.166676
v -0.475089 0.180434 0.175725
v -0.456528 0.123566 0.219362
v -0.295058 0.094460 0.299205
v -0.200778 0.134027 0.252851
v -0.297167 0.222380 0.210488
v -0.160844 0.097172 0.257939
v -0.157814 0.000473 0.286109
v -0.381526 0.178234 0.236881
v -0.262961 0.057058 0.310962
v -0.494923 0.231323 0.105711
v -0.366344 0.295314 0.144396
v -0.234815 0.167587 0.241217
v -0.402781 0.087866 0.274087
v -0.133285 0.052927 0.265245
v -0.406708 0.135836 0.252953
v -0.219602 0.042364 0.319468
v -0.330939 0.177945 0.251617
v -0.339729 0.000727 0.313380
v -0.315428 0.047777 0.315105
v -0.411350 0.041209 0.285655
v -0.365057 0.130348 0.274636
v -0.459477 0.383172 0.000000
v -0.111038 0.000347 0.260676
v -0.088737 0.043606 0.240006
v -0.565910 0.196184 0.000000
v -0.280918 0.179963 0.248872
v -0.522033 0.178741 0.102834
v 0.424880 0.425123 0.000000
v 0.189315 0.189907 0.179751
v 0.112752 0.589084 0.000000
v 0.155743 0.578763 0.000000
v 0.289984 0.525061 0.000000
v 0.223507 0.405145 0.203906
v 0.053076 0.596730 0.000000
v 0.058624 0.458688 0.242893
v 0.311907 0.312301 0.105918
v 0.238963 0.549565 0.000000
v 0.099103 0.098755 0.203981
v 0.282280 0.421713 0.141407
v 0.140588 0.498126 0.170292
v 0.046138 0.512036 0.180448
v 0.330445 0.500267 0.000000
v 0.112989 0.249434 0.285444
v 0.093879 0.499660 0.186661
v 0.279139 0.471026 0.104905
v 0.088264 0.347593 0.296093
v 0.271889 0.272350 0.135346
v 0.331375 0.402632 0.097535
v 0.078582 0.542936 0.117374
v 0.176269 0.429596 0.217935
v 0.142802 0.276636 0.268876
v 0.256184 0.376402 0.185802
v 0.032812 0.559778 0.089171
v 0.374570 0.424072 0.046693
v 0.389714 0.389890 0.039002
v 0.135711 0.318324 0.278833
v 0.156303 0.156773 0.191289
v 0.259480 0.331491 0.182860
v 0.127150 0.543530 0.096997
v 0.322809 0.445017 0.089377
v 0.046302 0.368367 0.303834
v 0.052864 0.178284 0.293927
v 0.083067 0.214894 0.311739
v 0.220415 0.353166 0.200025
v 0.351381 0.351354 0.073099
v 0.229709 0.451288 0.166530
v 0.229080 0.229803 0.161370
v 0.180629 0.476838 0.175729
v 0.123544 0.456547 0.222113
v 0.094907 0.297551 0.300052
v 0.133995 0.203057 0.254449
v 0.221659 0.299668 0.209719
v 0.104301 0.156457 0.250249
v 0.182387 0.383501 0.236186
v 0.058899 0.266245 0.315351
v 0.232232 0.498830 0.107367
v 0.127740 0.127737 0.198441
v 0.295407 0.368729 0.143401
v 0.167954 0.236538 0.241518
v 0.088423 0.404362 0.273560
v 0.054723 0.133341 0.266990
v 0.135889 0.406970 0.251142
v 0.042080 0.223272 0.314070
v 0.178683 0.331588 0.260917
v 0.035828 0.035167 0.209869
v 0.048759 0.318111 0.314167
v 0.041450 0.412838 0.284048
v 0.130424 0.365521 0.273402
v 0.382930 0.460952 0.000000
v 0.045065 0.088946 0.241161
v 0.069497 0.068911 0.207481
v 0.195941 0.567385 0.000000
v 0.181824 0.282417 0.259122
v 0.178879 0.523465 0.107453
v 0.588842 0.112995 0.000000
v 0.578520 0.155985 0.000000
v 0.524819 0.290227 0.000000
v 0.402107 0.220313 0.201461
v 0.596487 0.053319 0.000000
v 0.459670 0.058474 0.244878
v 0.549323 0.239205 0.000000
v 0.419075 0.278133 0.147830
v 0.496542 0.140198 0.177065
v 0.512675 0.046361 0.181802
v 0.500025 0.330686 0.000000
v 0.247517 0.114708 0.287763
v 0.500130 0.094006 0.188364
v 0.471333 0.279600 0.094695
v 0.348110 0.089233 0.298543
v 0.402778 0.334377 0.088668
v 0.544016 0.079446 0.114623
v 0.430763 0.177353 0.220058
v 0.278166 0.140010 0.285287
v 0.374518 0.254041 0.183053
v 0.559639 0.033304 0.089894
v 0.423750 0.374162 0.046023
v 0.319676 0.137807 0.277880
v 0.328903 0.266560 0.171257
v 0.537980 0.125841 0.108013
v 0.443993 0.322396 0.078204
v 0.368219 0.046166 0.300401
v 0.181815 0.049971 0.288747
v 0.213699 0.083898 0.289473
v 0.350866 0.218566 0.220942
v 0.450807 0.229661 0.166793
v 0.476871 0.180971 0.177498
v 0.452855 0.122343 0.228944
v 0.296934 0.094213 0.310209
v 0.202445 0.134439 0.253147
v 0.298211 0.223694 0.211103
v 0.162525 0.097698 0.256352
v 0.381154 0.178324 0.262188
v 0.265086 0.057408 0.309818
v 0.496659 0.231350 0.106278
v 0.368104 0.295986 0.143819
v 0.236612 0.167593 0.240915
v 0.403998 0.087810 0.285973
v 0.135864 0.052611 0.264810
v 0.409503 0.138067 0.252089
v 0.222034 0.042184 0.303698
v 0.332005 0.179171 0.262162
v 0.317506 0.048419 0.311068
v 0.413960 0.041324 0.280277
v 0.367594 0.133284 0.268478
v 0.460709 0.383172 0.000000
v 0.091056 0.043288 0.239812
v 0.567143 0.196184 0.000000
v 0.281547 0.182672 0.244751
v 0.523776 0.178810 0.103401
v -0.423648 -0.423406 0.000000
v -0.187490 -0.188203 0.179600
v -0.111519 -0.587366 0.000000
v -0.154511 -0.577046 0.000000
v -0.288752 -0.523343 0.000000
v -0.219880 -0.401603 0.202918
v -0.051844 -0.595012 0.000000
v -0.057485 -0.460323 0.237780
v -0.310229 -0.310591 0.105901
v -0.237731 -0.547848 0.000000
v -0.097053 -0.097551 0.204356
v -0.276671 -0.417990 0.147973
v -0.139089 -0.496943 0.170435
v -0.044454 -0.510245 0.180506
v -0.329212 -0.498550 0.000000
v -0.112646 -0.248015 0.285004
v -0.092283 -0.498436 0.187557
v -0.278462 -0.470400 0.094948
v -0.086507 -0.345917 0.303285
v -0.270039 -0.270656 0.135078
v -0.334139 -0.401566 0.088265
v -0.079054 -0.552847 0.091699
v -0.175075 -0.428682 0.218569
v -0.139839 -0.276446 0.272838
v -0.252490 -0.373644 0.187965
v -0.030972 -0.558331 0.089101
v -0.373837 -0.422927 0.047071
v -0.388394 -0.388556 0.038179
v -0.134431 -0.317059 0.278291
v -0.154538 -0.155007 0.191286
v -0.259810 -0.328916 0.179426
v -0.124743 -0.537104 0.105996
v -0.321030 -0.442618 0.080806
v -0.044793 -0.367417 0.300308
v -0.047678 -0.181091 0.300401
v -0.084436 -0.212426 0.292243
v -0.216686 -0.349980 0.218162
v -0.349459 -0.350092 0.073096
v -0.227945 -0.449432 0.166486
v -0.227324 -0.228087 0.161046
v -0.179109 -0.475418 0.175822
v -0.120872 -0.451875 0.228148
v -0.094194 -0.295784 0.300283
v -0.132863 -0.200840 0.253425
v -0.221047 -0.297722 0.212784
v -0.092802 -0.163257 0.268898
v -0.174299 -0.379168 0.242703
v -0.056242 -0.264616 0.318816
v -0.230003 -0.495401 0.106061
v -0.125875 -0.126220 0.198684
v -0.293677 -0.366702 0.146161
v -0.174582 -0.230758 0.230238
v -0.087608 -0.404577 0.273023
v -0.050723 -0.133018 0.266203
v -0.135544 -0.407384 0.250737
v -0.042589 -0.220611 0.310626
v -0.176878 -0.330277 0.251490
v -0.033601 -0.034043 0.210022
v -0.047184 -0.316605 0.312935
v -0.041733 -0.419212 0.273927
v -0.128419 -0.364072 0.272214
v -0.381698 -0.459234 0.000000
v -0.041748 -0.088627 0.240332
v -0.067283 -0.067802 0.207754
v -0.194710 -0.565668 0.000000
v -0.181799 -0.280519 0.244823
v -0.177905 -0.523595 0.100245
v -0.587609 -0.111278 0.000000
v -0.577288 -0.154268 0.000000
v -0.523586 -0.288510 0.000000
v -0.401085 -0.219300 0.202250
v -0.595255 -0.051602 0.000000
v -0.462269 -0.057470 0.236613
v -0.548091 -0.237488 0.000000
v -0.416759 -0.276900 0.147733
v -0.496863 -0.138870 0.170715
v -0.511252 -0.044864 0.181960
v -0.498792 -0.328969 0.000000
v -0.247872 -0.111979 0.284785
v -0.498808 -0.092468 0.188152
v -0.467796 -0.276745 0.114453
v -0.346179 -0.086874 0.292797
v -0.400510 -0.330500 0.111087
v -0.544086 -0.077561 0.111941
v -0.428348 -0.174644 0.218297
v -0.275996 -0.140020 0.273423
v -0.373296 -0.253183 0.184570
v -0.555979 -0.031403 0.094962
v -0.420435 -0.369804 0.044603
v -0.316577 -0.134847 0.279960
v -0.328642 -0.259001 0.181658
v -0.537346 -0.123934 0.108359
v -0.444815 -0.324982 0.079981
v -0.366524 -0.044265 0.303251
v -0.175122 -0.052665 0.283198
v -0.213006 -0.082559 0.289740
v -0.349225 -0.215008 0.219634
v -0.448508 -0.227324 0.165563
v -0.478348 -0.180484 0.170603
v -0.452244 -0.120754 0.228876
v -0.295739 -0.092803 0.298558
v -0.201252 -0.132469 0.252608
v -0.296553 -0.221757 0.210681
v -0.159255 -0.097811 0.251552
v -0.378681 -0.173552 0.242120
v -0.263822 -0.055941 0.310192
v -0.498405 -0.230593 0.108362
v -0.365806 -0.296845 0.140511
v -0.234929 -0.166011 0.240535
v -0.402980 -0.086288 0.272565
v -0.131265 -0.054077 0.259750
v -0.407077 -0.135112 0.253655
v -0.221221 -0.040384 0.304506
v -0.329597 -0.176358 0.251221
v -0.316029 -0.046763 0.312517
v -0.412419 -0.039634 0.279995
v -0.363879 -0.128494 0.282657
v -0.459477 -0.381455 0.000000
v -0.088299 -0.042581 0.240542
v -0.565910 -0.194467 0.000000
v -0.279718 -0.181027 0.244324
v -0.520759 -0.176371 0.112286
v 0.000616 -0.599141 0.000000
v 0.424880 -0.423406 0.000000
v 0.189429 -0.188356 0.179272
v 0.000268 -0.293761 0.319632
v 0.112752 -0.587366 0.000000
v 0.155743 -0.577046 0.000000
v 0.289984 -0.523343 0.000000
v 0.221147 -0.401123 0.202405
v 0.053076 -0.595012 0.000000
v 0.058415 -0.455942 0.241767
v 0.311622 -0.310671 0.105869
v 0.238963 -0.547848 0.000000
v 0.001025 -0.438956 0.265028
v 0.099074 -0.097683 0.204004
v 0.278013 -0.417642 0.147747
v 0.000457 -0.201150 0.318001
v 0.140596 -0.496514 0.169605
v 0.046416 -0.513308 0.173639
v 0.330445 -0.498550 0.000000
v 0.112852 -0.247716 0.284058
v 0.094633 -0.503329 0.177059
v 0.280430 -0.470083 0.094665
v 0.090916 -0.348670 0.291422
v 0.271752 -0.270800 0.135100
v 0.001261 -0.054346 0.229764
v 0.332507 -0.400745 0.101333
v 0.078830 -0.543722 0.111079
v 0.001066 -0.483876 0.220086
v 0.176025 -0.427670 0.217529
v 0.139835 -0.276693 0.282346
v 0.000587 -0.388725 0.295938
v 0.254440 -0.373488 0.184199
v 0.032867 -0.557932 0.089267
v 0.371048 -0.420140 0.044594
v 0.389718 -0.388231 0.038381
v 0.135508 -0.317113 0.281209
v 0.000134 -0.247530 0.317801
v 0.156435 -0.155230 0.190852
v 0.261538 -0.328878 0.179626
v 0.126701 -0.542021 0.095501
v 0.324370 -0.443285 0.078421
v 0.045770 -0.367259 0.301108
v 0.049969 -0.179953 0.288646
v 0.000631 -0.541488 0.125240
v 0.083813 -0.212387 0.288851
v 0.216102 -0.349132 0.218577
v 0.350789 -0.349894 0.073085
v 0.229579 -0.449167 0.166381
v 0.229146 -0.228203 0.160976
v 0.180633 -0.474899 0.175507
v 0.121576 -0.450472 0.226513
v 0.093714 -0.295890 0.297239
v 0.132861 -0.202039 0.256126
v 0.228698 -0.294766 0.201961
v 0.097080 -0.161539 0.257430
v 0.001654 -0.153314 0.286277
v 0.176739 -0.379176 0.239708
v 0.056371 -0.264192 0.316782
v 0.232038 -0.495214 0.106109
v 0.127733 -0.126513 0.198276
v 0.295989 -0.366473 0.144773
v 0.167700 -0.235011 0.240586
v 0.088685 -0.403358 0.270050
v 0.053070 -0.133924 0.264972
v 0.136179 -0.405726 0.251660
v 0.041968 -0.220692 0.305817
v 0.177544 -0.329685 0.250159
v 0.000352 -0.339852 0.313075
v 0.035812 -0.034154 0.209975
v 0.047764 -0.316346 0.313261
v 0.041374 -0.411988 0.279277
v 0.131089 -0.364326 0.273717
v 0.382930 -0.459234 0.000000
v 0.001378 -0.109534 0.262146
v 0.044245 -0.088845 0.240171
v 0.069421 -0.067904 0.207562
v 0.195941 -0.565668 0.000000
v 0.182238 -0.279886 0.244090
v 0.178015 -0.518174 0.113793
v 0.600616 0.000859 0.000000
v 0.294903 0.001043 0.319111
v 0.588842 -0.111278 0.000000
v 0.578520 -0.154268 0.000000
v 0.524819 -0.288510 0.000000
v 0.402845 -0.219961 0.203363
v 0.596487 -0.051602 0.000000
v 0.458503 -0.056666 0.243587
v 0.549323 -0.237488 0.000000
v 0.443510 0.000777 0.261565
v 0.418981 -0.276246 0.147623
v 0.201871 0.000527 0.307908
v 0.498635 -0.138912 0.170956
v 0.514852 -0.044712 0.177572
v 0.500025 -0.328969 0.000000
v 0.249454 -0.112151 0.284722
v 0.498983 -0.092030 0.191560
v 0.472531 -0.278460 0.095746
v 0.346993 -0.086186 0.295461
v 0.055917 0.000620 0.230628
v 0.402015 -0.329204 0.096733
v 0.544647 -0.077794 0.113763
v 0.486284 0.000720 0.221102
v 0.429650 -0.174533 0.218383
v 0.277665 -0.139950 0.273007
v 0.389693 0.000842 0.295293
v 0.376372 -0.259437 0.177637
v 0.559663 -0.031568 0.089966
v 0.425181 -0.375469 0.034876
v 0.318168 -0.134264 0.278958
v 0.247812 0.001349 0.315435
v 0.330785 -0.258979 0.178430
v 0.538589 -0.124186 0.107459
v 0.444657 -0.320434 0.082586
v 0.368228 -0.044420 0.300577
v 0.182158 -0.048414 0.301416
v 0.543442 0.001042 0.126140
v 0.214892 -0.081435 0.303035
v 0.351030 -0.215544 0.220291
v 0.449307 -0.226504 0.172416
v 0.477128 -0.178782 0.176359
v 0.453329 -0.120651 0.228841
v 0.297015 -0.093709 0.297934
v 0.202717 -0.133321 0.252766
v 0.298556 -0.221789 0.210355
v 0.163985 -0.094787 0.263996
v 0.158724 0.000720 0.288072
v 0.380377 -0.174086 0.243021
v 0.265308 -0.055781 0.312314
v 0.495653 -0.228773 0.112063
v 0.368076 -0.294275 0.143245
v 0.236637 -0.166446 0.240502
v 0.404221 -0.086553 0.274296
v 0.134996 -0.051878 0.265877
v 0.407612 -0.134588 0.252857
v 0.222431 -0.040424 0.314556
v 0.331282 -0.176593 0.251530
v 0.340955 0.000917 0.312724
v 0.317371 -0.046486 0.312243
v 0.413464 -0.039750 0.279701
v 0.365324 -0.128588 0.273505
v 0.460709 -0.381455 0.000000
v 0.110806 0.000629 0.259544
v 0.091134 -0.041917 0.241367
v 0.567143 -0.194467 0.000000
v 0.281538 -0.181162 0.244642
v 0.524553 -0.177197 0.103460
f 45 34 19
f 49 51 60
f 37 79 31
f 15 65 56
f 18 52 22
f 9 49 16
f 23 20 42
f 48 12 62
f 10 6 28
f 53 59 71
f 22 11 19
f 7 80 41
f 73 24 64
f 46 44 67
f 33 62 40
f 41 22 28
f 11 52 64
f 28 34 10
f 14 29 11
f 8 20 23
f 37 31 53
f 46 59 21
f 18 51 52
f 45 19 29
f 70 26 76
f 23 16 49
f 2 35 74
f 42 35 27
f 63 21 31
f 30 52 51
f 13 8 60
f 25 50 55
f 27 62 16
f 27 35 36
f 1 10 34
f 41 80 18
f 40 47 33
f 53 71 24
f 21 54 46
f 44 57 17
f 36 48 27
f 16 33 9
f 1 34 45
f 34 28 19
f 23 42 16
f 2 36 35
f 47 55 68
f 37 24 73
f 17 67 44
f 39 56 54
f 58 9 47
f 25 40 12
f 41 6 7
f 51 18 80
f 42 74 35
f 14 11 72
f 44 56 65
f 44 65 57
f 43 64 24
f 73 66 58
f 53 21 59
f 46 54 56
f 33 47 9
f 55 47 40
f 33 16 62
f 9 30 49
f 49 60 23
f 29 19 11
f 16 42 27
f 6 41 28
f 14 72 32
f 51 49 30
f 22 52 11
f 30 58 66
f 37 53 24
f 38 5 59
f 39 54 3
f 54 21 63
f 55 79 68
f 56 44 46
f 15 56 61
f 9 58 30
f 68 37 73
f 59 67 38
f 5 69 71
f 13 60 80
f 23 60 8
f 39 61 56
f 40 62 12
f 48 62 27
f 54 63 3
f 53 31 21
f 64 43 72
f 64 52 66
f 32 43 69
f 19 28 22
f 22 41 18
f 57 65 75
f 30 66 52
f 66 73 64
f 67 17 38
f 46 67 59
f 3 63 50
f 68 79 37
f 47 68 58
f 71 69 43
f 70 76 77
f 24 71 43
f 64 72 11
f 32 72 43
f 68 73 58
f 42 20 74
f 75 65 76
f 75 76 26
f 15 76 65
f 4 26 70
f 71 59 5
f 15 77 76
f 78 80 7
f 31 79 63
f 55 40 25
f 63 79 50
f 13 80 78
f 51 80 60
f 79 55 50
f 94 108 117
f 130 121 120
f 105 146 110
f 126 134 15
f 97 122 93
f 91 120 86
f 114 95 98
f 131 12 48
f 102 83 87
f 139 129 123
f 94 88 97
f 113 147 84
f 133 99 141
f 136 116 118
f 112 131 107
f 102 97 113
f 133 122 88
f 87 108 102
f 88 103 90
f 98 95 85
f 123 105 110
f 96 129 118
f 122 121 93
f 103 94 117
f 144 100 70
f 120 91 98
f 142 109 2
f 101 109 114
f 105 96 132
f 121 122 104
f 130 85 89
f 125 50 25
f 91 131 101
f 36 109 101
f 108 87 81
f 93 147 113
f 107 119 112
f 99 139 123
f 118 124 96
f 92 127 116
f 101 48 36
f 86 107 91
f 117 108 81
f 94 102 108
f 91 114 98
f 109 36 2
f 137 125 119
f 141 99 110
f 116 136 92
f 124 126 39
f 119 86 128
f 12 112 25
f 84 83 113
f 147 93 121
f 109 142 114
f 140 88 90
f 134 126 116
f 127 134 116
f 99 133 115
f 128 135 141
f 129 96 123
f 126 124 118
f 86 119 107
f 112 119 125
f 131 91 107
f 120 104 86
f 98 130 120
f 88 94 103
f 101 114 91
f 102 113 83
f 106 140 90
f 104 120 121
f 88 122 97
f 135 128 104
f 99 123 110
f 129 82 111
f 3 124 39
f 132 96 124
f 137 146 125
f 118 116 126
f 61 126 15
f 104 128 86
f 141 110 137
f 111 136 129
f 139 138 82
f 147 130 89
f 85 130 98
f 126 61 39
f 12 131 112
f 101 131 48
f 3 132 124
f 96 105 123
f 140 115 133
f 135 122 133
f 138 115 106
f 97 102 94
f 93 113 97
f 143 134 127
f 122 135 104
f 133 141 135
f 111 92 136
f 129 136 118
f 50 132 3
f 110 146 137
f 128 137 119
f 115 138 139
f 77 144 70
f 115 139 99
f 88 140 133
f 115 140 106
f 128 141 137
f 142 95 114
f 144 134 143
f 100 144 143
f 134 144 15
f 70 100 4
f 82 129 139
f 144 77 15
f 84 147 145
f 132 146 105
f 25 112 125
f 50 146 132
f 145 147 89
f 130 147 121
f 50 125 146
f 161 173 45
f 196 188 186
f 171 213 176
f 193 201 158
f 164 189 160
f 159 186 153
f 180 162 165
f 198 156 185
f 169 150 154
f 206 195 190
f 161 155 164
f 179 214 151
f 200 166 208
f 203 182 183
f 178 198 172
f 169 164 179
f 200 189 155
f 154 173 169
f 155 29 14
f 165 162 152
f 190 171 176
f 163 195 183
f 189 188 160
f 29 161 45
f 210 26 205
f 186 159 165
f 209 174 148
f 168 174 180
f 171 163 199
f 188 189 170
f 196 152 157
f 192 187 167
f 159 198 168
f 175 174 168
f 173 154 1
f 160 214 179
f 172 184 178
f 166 206 190
f 183 191 163
f 17 57 182
f 168 185 175
f 153 172 159
f 45 173 1
f 161 169 173
f 159 180 165
f 174 175 148
f 204 192 184
f 208 166 176
f 182 203 17
f 191 193 177
f 184 153 194
f 156 178 167
f 151 150 179
f 214 160 188
f 174 209 180
f 207 155 14
f 201 193 182
f 57 201 182
f 166 200 181
f 194 202 208
f 195 163 190
f 193 191 183
f 153 184 172
f 178 184 192
f 198 159 172
f 186 170 153
f 165 196 186
f 155 161 29
f 168 180 159
f 169 179 150
f 32 207 14
f 170 186 188
f 155 189 164
f 202 194 170
f 166 190 176
f 195 5 38
f 149 191 177
f 199 163 191
f 204 213 192
f 183 182 193
f 197 193 158
f 170 194 153
f 208 176 204
f 38 203 195
f 206 69 5
f 214 196 157
f 152 196 165
f 193 197 177
f 156 198 178
f 168 198 185
f 149 199 191
f 163 171 190
f 207 181 200
f 202 189 200
f 69 181 32
f 164 169 161
f 160 179 164
f 75 201 57
f 189 202 170
f 200 208 202
f 38 17 203
f 195 203 183
f 187 199 149
f 176 213 204
f 194 204 184
f 181 69 206
f 211 210 205
f 181 206 166
f 155 207 200
f 181 207 32
f 194 208 204
f 209 162 180
f 210 201 75
f 26 210 75
f 201 210 158
f 205 26 4
f 5 195 206
f 210 211 158
f 151 214 212
f 199 213 171
f 167 178 192
f 187 213 199
f 212 214 157
f 196 214 188
f 187 192 213
f 507 235 224
f 245 246 254
f 237 268 233
f 158 258 251
f 223 247 227
f 218 245 222
f 228 225 240
f 185 156 255
f 219 215 231
f 248 253 262
f 227 220 224
f 216 269 239
f 264 229 257
f 243 242 260
f 234 255 238
f 239 227 231
f 220 247 257
f 231 235 219
f 480 493 220
f 217 225 228
f 237 233 248
f 243 253 226
f 223 246 247
f 507 224 493
f 205 490 266
f 228 222 245
f 148 236 265
f 240 236 230
f 256 226 233
f 232 247 246
f 221 217 254
f 167 187 250
f 230 255 222
f 230 236 175
f 471 219 235
f 239 269 223
f 238 244 234
f 248 262 229
f 226 249 243
f 242 517 482
f 175 185 230
f 222 234 218
f 471 235 507
f 235 231 224
f 228 240 222
f 148 175 236
f 244 250 261
f 237 229 264
f 482 260 242
f 177 251 249
f 252 218 244
f 167 238 156
f 239 215 216
f 246 223 269
f 240 265 236
f 480 220 263
f 242 251 258
f 242 258 517
f 241 257 229
f 264 259 252
f 248 226 253
f 243 249 251
f 234 244 218
f 250 244 238
f 234 222 255
f 218 232 245
f 245 254 228
f 493 224 220
f 222 240 230
f 215 239 231
f 480 263 496
f 246 245 232
f 227 247 220
f 232 252 259
f 237 248 229
f 501 472 253
f 177 249 149
f 249 226 256
f 250 268 261
f 251 242 243
f 158 251 197
f 218 252 232
f 261 237 264
f 253 260 501
f 472 528 262
f 221 254 269
f 228 254 217
f 177 197 251
f 238 255 156
f 185 255 230
f 249 256 149
f 248 233 226
f 257 241 263
f 257 247 259
f 496 241 528
f 224 231 227
f 227 239 223
f 517 258 533
f 232 259 247
f 259 264 257
f 260 482 501
f 243 260 253
f 149 256 187
f 261 268 237
f 244 261 252
f 262 528 241
f 205 266 211
f 229 262 241
f 257 263 220
f 496 263 241
f 261 264 252
f 240 225 265
f 533 258 266
f 533 266 490
f 158 266 258
f 4 490 205
f 262 253 472
f 158 211 266
f 267 269 216
f 233 268 256
f 250 238 167
f 256 268 187
f 221 269 267
f 246 269 254
f 268 250 187
f 283 295 435
f 318 310 308
f 293 335 298
f 315 323 280
f 286 311 282
f 281 308 275
f 302 284 287
f 320 278 307
f 291 272 276
f 328 317 312
f 283 277 286
f 301 336 273
f 322 288 330
f 325 304 305
f 300 320 294
f 291 286 301
f 322 311 277
f 276 295 291
f 277 419 404
f 287 284 274
f 312 293 298
f 285 317 305
f 311 310 282
f 419 283 435
f 332 416 327
f 308 281 287
f 331 296 270
f 290 296 302
f 293 285 321
f 310 311 292
f 318 274 279
f 314 309 289
f 281 320 290
f 297 296 290
f 295 276 392
f 282 336 301
f 294 306 300
f 288 328 312
f 305 313 285
f 407 447 304
f 290 307 297
f 275 294 281
f 435 295 392
f 283 291 295
f 281 302 287
f 296 297 270
f 326 314 306
f 330 288 298
f 304 325 407
f 313 315 299
f 306 275 316
f 278 300 289
f 273 272 301
f 336 282 310
f 296 331 302
f 329 277 404
f 323 315 304
f 447 323 304
f 288 322 303
f 316 324 330
f 317 285 312
f 315 313 305
f 275 306 294
f 300 306 314
f 320 281 294
f 308 292 275
f 287 318 308
f 277 283 419
f 290 302 281
f 291 301 272
f 422 329 404
f 292 308 310
f 277 311 286
f 324 316 292
f 288 312 298
f 317 395 428
f 271 313 299
f 321 285 313
f 326 335 314
f 305 304 315
f 319 315 280
f 292 316 275
f 330 298 326
f 428 325 317
f 328 459 395
f 336 318 279
f 274 318 287
f 315 319 299
f 278 320 300
f 290 320 307
f 271 321 313
f 285 293 312
f 329 303 322
f 324 311 322
f 459 303 422
f 286 291 283
f 282 301 286
f 465 323 447
f 311 324 292
f 322 330 324
f 428 407 325
f 317 325 305
f 309 321 271
f 298 335 326
f 316 326 306
f 303 459 328
f 333 332 327
f 303 328 288
f 277 329 322
f 303 329 422
f 316 330 326
f 331 284 302
f 332 323 465
f 416 332 465
f 323 332 280
f 327 416 4
f 395 317 328
f 332 333 280
f 273 336 334
f 321 335 293
f 289 300 314
f 309 335 321
f 334 336 279
f 318 336 310
f 309 314 335
f 117 357 346
f 367 368 376
f 359 390 355
f 280 380 373
f 345 369 349
f 340 367 344
f 350 347 362
f 307 278 377
f 341 337 353
f 370 375 384
f 349 342 346
f 338 391 361
f 386 351 379
f 365 364 382
f 356 377 360
f 361 349 353
f 342 369 379
f 353 357 341
f 90 103 342
f 339 347 350
f 359 355 370
f 365 375 348
f 345 368 369
f 117 346 103
f 327 100 388
f 350 344 367
f 270 358 387
f 362 358 352
f 378 348 355
f 354 369 368
f 343 339 376
f 289 309 372
f 352 377 344
f 352 358 297
f 81 341 357
f 361 391 345
f 360 366 356
f 370 384 351
f 348 371 365
f 364 127 92
f 297 307 352
f 344 356 340
f 81 357 117
f 357 353 346
f 350 362 344
f 270 297 358
f 366 372 383
f 359 351 386
f 92 382 364
f 299 373 371
f 374 340 366
f 289 360 278
f 361 337 338
f 368 345 391
f 362 387 358
f 90 342 385
f 364 373 380
f 364 380 127
f 363 379 351
f 386 381 374
f 370 348 375
f 365 371 373
f 356 366 340
f 372 366 360
f 356 344 377
f 340 354 367
f 367 376 350
f 103 346 342
f 344 362 352
f 337 361 353
f 90 385 106
f 368 367 354
f 349 369 342
f 354 374 381
f 359 370 351
f 111 82 375
f 299 371 271
f 371 348 378
f 372 390 383
f 373 364 365
f 280 373 319
f 340 374 354
f 383 359 386
f 375 382 111
f 82 138 384
f 343 376 391
f 350 376 339
f 299 319 373
f 360 377 278
f 307 377 352
f 371 378 271
f 370 355 348
f 379 363 385
f 379 369 381
f 106 363 138
f 346 353 349
f 349 361 345
f 127 380 143
f 354 381 369
f 381 386 379
f 382 92 111
f 365 382 375
f 271 378 309
f 383 390 359
f 366 383 374
f 384 138 363
f 327 388 333
f 351 384 363
f 379 385 342
f 106 385 363
f 383 386 374
f 362 347 387
f 143 380 388
f 143 388 100
f 280 388 380
f 4 100 327
f 384 375 82
f 280 333 388
f 389 391 338
f 355 390 378
f 372 360 289
f 378 390 309
f 343 391 389
f 368 391 376
f 390 372 309
f 435 424 409
f 439 441 450
f 427 469 421
f 405 455 446
f 408 442 412
f 399 439 406
f 413 410 432
f 438 402 452
f 400 396 418
f 443 449 461
f 412 401 409
f 397 470 431
f 463 414 454
f 436 434 457
f 423 452 430
f 431 412 418
f 401 442 454
f 418 424 400
f 404 419 401
f 398 410 413
f 427 421 443
f 436 449 411
f 408 441 442
f 435 409 419
f 460 416 466
f 413 406 439
f 393 425 464
f 432 425 417
f 453 411 421
f 420 442 441
f 403 398 450
f 415 440 445
f 417 452 406
f 417 425 426
f 392 400 424
f 431 470 408
f 430 437 423
f 443 461 414
f 411 444 436
f 434 447 407
f 426 438 417
f 406 423 399
f 392 424 435
f 424 418 409
f 413 432 406
f 393 426 425
f 437 445 458
f 427 414 463
f 407 457 434
f 429 446 444
f 448 399 437
f 415 430 402
f 431 396 397
f 441 408 470
f 432 464 425
f 404 401 462
f 434 446 455
f 434 455 447
f 433 454 414
f 463 456 448
f 443 411 449
f 436 444 446
f 423 437 399
f 445 437 430
f 423 406 452
f 399 420 439
f 439 450 413
f 419 409 401
f 406 432 417
f 396 431 418
f 404 462 422
f 441 439 420
f 412 442 401
f 420 448 456
f 427 443 414
f 428 395 449
f 429 444 394
f 444 411 453
f 445 469 458
f 446 434 436
f 405 446 451
f 399 448 420
f 458 427 463
f 449 457 428
f 395 459 461
f 403 450 470
f 413 450 398
f 429 451 446
f 430 452 402
f 438 452 417
f 444 453 394
f 443 421 411
f 454 433 462
f 454 442 456
f 422 433 459
f 409 418 412
f 412 431 408
f 447 455 465
f 420 456 442
f 456 463 454
f 457 407 428
f 436 457 449
f 394 453 440
f 458 469 427
f 437 458 448
f 461 459 433
f 460 466 467
f 414 461 433
f 454 462 401
f 422 462 433
f 458 463 448
f 432 410 464
f 465 455 466
f 465 466 416
f 405 466 455
f 4 416 460
f 461 449 395
f 405 467 466
f 468 470 397
f 421 469 453
f 445 430 415
f 453 469 440
f 403 470 468
f 441 470 450
f 469 445 440
f 484 498 507
f 520 511 510
f 495 536 500
f 516 524 405
f 487 512 483
f 481 510 476
f 504 485 488
f 521 402 438
f 492 473 477
f 529 519 513
f 484 478 487
f 503 537 474
f 523 489 531
f 526 506 508
f 502 521 497
f 492 487 503
f 523 512 478
f 477 498 492
f 478 493 480
f 488 485 475
f 513 495 500
f 486 519 508
f 512 511 483
f 493 484 507
f 534 490 460
f 510 481 488
f 532 499 393
f 491 499 504
f 495 486 522
f 511 512 494
f 520 475 479
f 515 440 415
f 481 521 491
f 426 499 491
f 498 477 471
f 483 537 503
f 497 509 502
f 489 529 513
f 508 514 486
f 482 517 506
f 491 438 426
f 476 497 481
f 507 498 471
f 484 492 498
f 481 504 488
f 499 426 393
f 527 515 509
f 531 489 500
f 506 526 482
f 514 516 429
f 509 476 518
f 402 502 415
f 474 473 503
f 537 483 511
f 499 532 504
f 530 478 480
f 524 516 506
f 517 524 506
f 489 523 505
f 518 525 531
f 519 486 513
f 516 514 508
f 476 509 497
f 502 509 515
f 521 481 497
f 510 494 476
f 488 520 510
f 478 484 493
f 491 504 481
f 492 503 473
f 496 530 480
f 494 510 511
f 478 512 487
f 525 518 494
f 489 513 500
f 519 472 501
f 394 514 429
f 522 486 514
f 527 536 515
f 508 506 516
f 451 516 405
f 494 518 476
f 531 500 527
f 501 526 519
f 529 528 472
f 537 520 479
f 475 520 488
f 516 451 429
f 402 521 502
f 491 521 438
f 394 522 514
f 486 495 513
f 530 505 523
f 525 512 523
f 528 505 496
f 487 492 484
f 483 503 487
f 533 524 517
f 512 525 494
f 523 531 525
f 501 482 526
f 519 526 508
f 440 522 394
f 500 536 527
f 518 527 509
f 505 528 529
f 467 534 460
f 505 529 489
f 478 530 523
f 505 530 496
f 518 531 527
f 532 485 504
f 534 524 533
f 490 534 533
f 524 534 405
f 460 490 4
f 472 519 529
f 534 467 405
f 474 537 535
f 522 536 495
f 415 502 515
f 440 536 522
f 535 537 479
f 520 537 511
f 440 515 536
