# 4part FEM knit+cable best fit (4part_s_ring90)
# interior RMSE  : 3.468 mm
# max deviation  : 14.540 mm
# crown          : 0.32083 m (target 0.32177 m)
# max disp/rest  : 14.540 mm (floor 5.0 mm)
# regions        : 4 (1 D4 slots), 4 parameters
v 0.000616 0.600859 0.000000
v -0.423648 0.425123 0.000000
v -0.187063 0.189032 0.180698
v 0.001021 0.000626 0.211005
v 0.001275 0.294560 0.320832
v -0.111519 0.589084 0.000000
v -0.154511 0.578763 0.000000
v -0.288752 0.525061 0.000000
v -0.220009 0.403200 0.203111
v -0.051844 0.596730 0.000000
v -0.056947 0.464398 0.240294
v -0.309548 0.311451 0.107010
v -0.237731 0.549565 0.000000
v 0.001273 0.440792 0.270114
v -0.096401 0.098118 0.204765
v -0.275387 0.418654 0.146807
v 0.002182 0.201121 0.317377
v -0.142673 0.506575 0.163192
v -0.044784 0.514918 0.183362
v -0.329212 0.500267 0.000000
v -0.110891 0.247304 0.287437
v -0.092409 0.500247 0.200138
v -0.277617 0.471591 0.093917
v -0.086704 0.347305 0.292692
v -0.269627 0.271680 0.136372
v 0.001324 0.054817 0.230598
v -0.328824 0.401409 0.099954
v -0.078655 0.546893 0.112987
v 0.001116 0.487802 0.222462
v -0.176100 0.431083 0.219259
v -0.137826 0.276735 0.286495
v 0.001053 0.391132 0.298272
v -0.252256 0.374787 0.184002
v -0.032086 0.561210 0.091058
v -0.368916 0.421396 0.044038
v -0.387898 0.389470 0.038246
v -0.134322 0.317499 0.280739
v 0.001570 0.248096 0.319709
v -0.153874 0.155773 0.192052
v -0.258870 0.330120 0.179656
v -0.125004 0.539212 0.108546
v -0.326879 0.449005 0.066812
v -0.044132 0.368848 0.304090
v -0.047143 0.180011 0.289411
v 0.000598 0.545447 0.127478
v -0.080762 0.212638 0.289790
v -0.213620 0.350859 0.218911
v -0.348840 0.350602 0.074025
v -0.227161 0.450147 0.169985
v -0.226828 0.229146 0.162513
v -0.180267 0.478272 0.176480
v -0.120579 0.453039 0.239634
v -0.091812 0.295759 0.298563
v -0.129922 0.202524 0.259414
v -0.225004 0.296831 0.204117
v -0.094530 0.161605 0.258552
v 0.002238 0.156926 0.288703
v -0.178228 0.383633 0.240522
v -0.054662 0.264079 0.310474
v -0.229847 0.497104 0.105476
v -0.125086 0.126954 0.199291
v -0.293321 0.367367 0.144402
v -0.163073 0.236602 0.247823
v -0.086297 0.404181 0.273481
v -0.048975 0.135365 0.273428
v -0.139324 0.411959 0.252868
v -0.038176 0.221783 0.307046
v -0.175346 0.331811 0.256658
v 0.001036 0.341065 0.314289
v -0.033229 0.034843 0.210547
v -0.048811 0.318172 0.311849
v -0.039640 0.414953 0.281040
v -0.128417 0.364850 0.283056
v -0.381698 0.460952 0.000000
v 0.001419 0.110964 0.275127
v -0.040739 0.090110 0.245655
v -0.066800 0.068394 0.208178
v -0.194710 0.567385 0.000000
v -0.185785 0.279679 0.239116
v -0.178085 0.525209 0.101400
v -0.599383 0.000859 0.000000
v -0.292752 0.000321 0.320197
v -0.587609 0.112995 0.000000
v -0.577288 0.155985 0.000000
v -0.523586 0.290227 0.000000
v -0.401088 0.220690 0.202122
v -0.595255 0.053319 0.000000
v -0.458454 0.058002 0.244414
v -0.548091 0.239205 0.000000
v -0.441927 0.000519 0.262997
v -0.416635 0.276312 0.146286
v -0.198948 0.000688 0.304475
v -0.497626 0.141007 0.170828
v -0.516738 0.046800 0.172010
v -0.498792 0.330686 0.000000
v -0.244754 0.114130 0.278804
v -0.502559 0.094647 0.180392
v -0.471586 0.280764 0.088532
v -0.345218 0.087823 0.296555
v -0.053246 0.000596 0.230196
v -0.399500 0.330537 0.099920
v -0.544259 0.080133 0.112429
v -0.489576 0.000724 0.214357
v -0.430036 0.177469 0.212431
v -0.276318 0.141024 0.304148
v -0.388657 0.000664 0.296351
v -0.372590 0.252755 0.182755
v -0.560128 0.033557 0.088190
v -0.419757 0.370433 0.044223
v -0.317365 0.136105 0.263795
v -0.244495 -0.000234 0.315519
v -0.327639 0.261520 0.175320
v -0.536650 0.126257 0.107877
v -0.442626 0.323021 0.077457
v -0.366969 0.046177 0.302731
v -0.177078 0.049989 0.290103
v -0.543329 0.000788 0.127302
v -0.210699 0.082465 0.288493
v -0.349189 0.215548 0.219110
v -0.449051 0.229056 0.165827
v -0.475225 0.180882 0.175454
v -0.457369 0.123886 0.219864
v -0.294103 0.093962 0.299484
v -0.199956 0.133123 0.252982
v -0.296501 0.221663 0.210476
v -0.159956 0.096306 0.257957
v -0.156563 0.000444 0.285623
v -0.381062 0.178174 0.237130
v -0.261795 0.056570 0.310876
v -0.494626 0.231019 0.104954
v -0.365410 0.294506 0.144027
v -0.234136 0.166707 0.241379
v -0.403224 0.087895 0.274817
v -0.132404 0.052220 0.265032
v -0.406859 0.135935 0.253281
v -0.218226 0.041921 0.319278
v -0.330256 0.177435 0.251606
v -0.339242 0.000576 0.313966
v -0.314596 0.047497 0.315379
v -0.411946 0.041014 0.286282
v -0.364559 0.130153 0.275030
v -0.459477 0.383172 0.000000
v -0.110014 0.000331 0.260212
v -0.088003 0.042909 0.239914
v -0.565910 0.196184 0.000000
v -0.280183 0.179238 0.248956
v -0.522140 0.179041 0.102452
v 0.424880 0.425123 0.000000
v 0.188874 0.189235 0.180559
v 0.112752 0.589084 0.000000
v 0.155743 0.578763 0.000000
v 0.289984 0.525061 0.000000
v 0.223786 0.404825 0.203854
v 0.053076 0.596730 0.000000
v 0.058802 0.460557 0.244593
v 0.311516 0.311643 0.106474
v 0.238963 0.549565 0.000000
v 0.098470 0.097973 0.204619
v 0.281820 0.421153 0.140957
v 0.141412 0.499512 0.171313
v 0.046537 0.514283 0.182623
v 0.330445 0.500267 0.000000
v 0.112544 0.248598 0.286176
v 0.094584 0.501624 0.188459
v 0.277979 0.469979 0.104063
v 0.088398 0.347381 0.297245
v 0.271575 0.271772 0.135920
v 0.330609 0.401702 0.097018
v 0.079403 0.544902 0.119002
v 0.177237 0.429959 0.218411
v 0.142568 0.275950 0.269844
v 0.256038 0.375835 0.185410
v 0.033138 0.561539 0.091017
v 0.373481 0.423221 0.046076
v 0.389308 0.389170 0.039414
v 0.135550 0.317812 0.279840
v 0.155768 0.156031 0.192080
v 0.259227 0.330871 0.182792
v 0.127940 0.544605 0.097819
v 0.321352 0.443816 0.088262
v 0.046441 0.368519 0.304981
v 0.052388 0.177200 0.294110
v 0.082779 0.213711 0.312241
v 0.220731 0.352834 0.200815
v 0.350895 0.350570 0.073648
v 0.229900 0.451133 0.166419
v 0.228740 0.229225 0.162106
v 0.181581 0.477415 0.176115
v 0.124280 0.457926 0.223453
v 0.094663 0.296846 0.300931
v 0.133459 0.202240 0.254999
v 0.221531 0.299054 0.210215
v 0.103559 0.155757 0.250712
v 0.182817 0.383514 0.237018
v 0.058640 0.265216 0.315727
v 0.232216 0.498343 0.106780
v 0.127126 0.126942 0.199184
v 0.294779 0.367956 0.143010
v 0.167486 0.235862 0.242111
v 0.088801 0.405205 0.275008
v 0.054159 0.132387 0.267176
v 0.136405 0.407607 0.252233
v 0.042014 0.221877 0.315176
v 0.178600 0.331111 0.261460
v 0.035425 0.034724 0.210382
v 0.048727 0.317515 0.314937
v 0.041663 0.413878 0.285481
v 0.130534 0.365415 0.274369
v 0.382930 0.460952 0.000000
v 0.044542 0.088251 0.241384
v 0.068938 0.068253 0.208039
v 0.195941 0.567385 0.000000
v 0.181560 0.281768 0.259630
v 0.179438 0.523886 0.107425
v 0.588842 0.112995 0.000000
v 0.578520 0.155985 0.000000
v 0.524819 0.290227 0.000000
v 0.401639 0.220358 0.201342
v 0.596487 0.053319 0.000000
v 0.460974 0.058574 0.245605
v 0.549323 0.239205 0.000000
v 0.418345 0.277324 0.147153
v 0.497530 0.140704 0.177564
v 0.514268 0.046603 0.183079
v 0.500025 0.330686 0.000000
v 0.246795 0.113992 0.287853
v 0.501520 0.094439 0.189326
v 0.470954 0.278788 0.094208
v 0.347677 0.089037 0.298787
v 0.402146 0.333435 0.088482
v 0.545189 0.080027 0.115479
v 0.430716 0.177965 0.219796
v 0.277421 0.139455 0.285429
v 0.373778 0.253593 0.182762
v 0.560788 0.033569 0.091034
v 0.423643 0.374183 0.046861
v 0.319097 0.137506 0.278475
v 0.328318 0.265863 0.171200
v 0.538688 0.126432 0.108418
v 0.443559 0.321638 0.077994
v 0.368245 0.046142 0.301273
v 0.180650 0.049385 0.288613
v 0.212771 0.083207 0.289460
v 0.350246 0.218230 0.220813
v 0.450393 0.229459 0.166179
v 0.477093 0.181575 0.177269
v 0.453827 0.122694 0.229556
v 0.296067 0.093885 0.310451
v 0.201818 0.133607 0.253298
v 0.297716 0.223022 0.211101
v 0.161776 0.096843 0.256449
v 0.380701 0.178410 0.262181
v 0.264051 0.057093 0.310017
v 0.496424 0.231179 0.105605
v 0.367316 0.295251 0.143490
v 0.236100 0.166812 0.241123
v 0.404425 0.087894 0.286474
v 0.135031 0.051976 0.264699
v 0.409788 0.138450 0.252723
v 0.220871 0.041853 0.303682
v 0.331441 0.178815 0.262115
v 0.316837 0.048310 0.311665
v 0.414788 0.041308 0.281274
v 0.367413 0.133354 0.269461
v 0.460709 0.383172 0.000000
v 0.090355 0.042701 0.239746
v 0.567143 0.196184 0.000000
v 0.281018 0.182014 0.244888
v 0.523978 0.179225 0.103036
v -0.423648 -0.423406 0.000000
v -0.187013 -0.187531 0.180402
v -0.111519 -0.587366 0.000000
v -0.154511 -0.577046 0.000000
v -0.288752 -0.523343 0.000000
v -0.219909 -0.401376 0.202849
v -0.051844 -0.595012 0.000000
v -0.057633 -0.462235 0.239607
v -0.309744 -0.309984 0.106490
v -0.237731 -0.547848 0.000000
v -0.096443 -0.096756 0.204976
v -0.276002 -0.417423 0.147369
v -0.139850 -0.498377 0.171492
v -0.044855 -0.512539 0.182819
v -0.329212 -0.498550 0.000000
v -0.112172 -0.247328 0.285692
v -0.092872 -0.500403 0.189275
v -0.277563 -0.469888 0.094378
v -0.086666 -0.345699 0.304387
v -0.269671 -0.270121 0.135649
v -0.333106 -0.400874 0.087851
v -0.079869 -0.554476 0.092944
v -0.175871 -0.429119 0.218964
v -0.139466 -0.275869 0.273515
v -0.252166 -0.373057 0.187514
v -0.031489 -0.560146 0.090895
v -0.373048 -0.422360 0.046920
v -0.387771 -0.387975 0.038632
v -0.134230 -0.316644 0.279209
v -0.153995 -0.154257 0.192073
v -0.259364 -0.328363 0.179315
v -0.125667 -0.538382 0.106802
v -0.319796 -0.441796 0.080073
v -0.045076 -0.367754 0.301771
v -0.047447 -0.179867 0.300750
v -0.083918 -0.211546 0.292776
v -0.216566 -0.349577 0.218354
v -0.348851 -0.349435 0.073665
v -0.227942 -0.449312 0.166229
v -0.226954 -0.227526 0.161769
v -0.179978 -0.476149 0.176224
v -0.121319 -0.453259 0.229447
v -0.093921 -0.295175 0.301106
v -0.132305 -0.200113 0.253969
v -0.220586 -0.297229 0.212981
v -0.092204 -0.162422 0.269301
v -0.174479 -0.379131 0.243346
v -0.056141 -0.263688 0.319476
v -0.229958 -0.495340 0.105638
v -0.125282 -0.125414 0.199417
v -0.292889 -0.365974 0.145647
v -0.174011 -0.230225 0.230820
v -0.087849 -0.405386 0.274364
v -0.050239 -0.132011 0.266411
v -0.135965 -0.408050 0.251838
v -0.042359 -0.219535 0.311009
v -0.176716 -0.329903 0.252011
v -0.033235 -0.033570 0.210529
v -0.047235 -0.316150 0.313961
v -0.041934 -0.420315 0.275670
v -0.128590 -0.364077 0.273475
v -0.381698 -0.459234 0.000000
v -0.041303 -0.087854 0.240546
v -0.066746 -0.067122 0.208296
v -0.194710 -0.565668 0.000000
v -0.181373 -0.280008 0.245278
v -0.178593 -0.524151 0.100286
v -0.587609 -0.111278 0.000000
v -0.577288 -0.154268 0.000000
v -0.523586 -0.288510 0.000000
v -0.400555 -0.219263 0.202156
v -0.595255 -0.051602 0.000000
v -0.463545 -0.057548 0.237510
v -0.548091 -0.237488 0.000000
v -0.416012 -0.276142 0.147169
v -0.497792 -0.139516 0.171315
v -0.512765 -0.045071 0.183278
v -0.498792 -0.328969 0.000000
v -0.247038 -0.111368 0.284910
v -0.500142 -0.092900 0.189212
v -0.466794 -0.275368 0.113476
v -0.345762 -0.086985 0.293688
v -0.399571 -0.329635 0.110630
v -0.545250 -0.078164 0.112966
v -0.428413 -0.175360 0.218396
v -0.275254 -0.139403 0.273594
v -0.372508 -0.252757 0.184202
v -0.557087 -0.031628 0.096306
v -0.419906 -0.369237 0.044747
v -0.316010 -0.134457 0.280175
v -0.327929 -0.258399 0.181480
v -0.538143 -0.124529 0.108947
v -0.444165 -0.324050 0.079438
v -0.366367 -0.044434 0.303928
v -0.173987 -0.052095 0.282996
v -0.211992 -0.082035 0.289724
v -0.348590 -0.214714 0.219578
v -0.448264 -0.227324 0.165424
v -0.478630 -0.181423 0.170705
v -0.453055 -0.121128 0.229484
v -0.294806 -0.092548 0.298945
v -0.200584 -0.131689 0.252752
v -0.296023 -0.221141 0.210709
v -0.158581 -0.096994 0.251709
v -0.378312 -0.173708 0.242528
v -0.262672 -0.055757 0.310272
v -0.497738 -0.230675 0.107578
v -0.365052 -0.296046 0.140317
v -0.234356 -0.165257 0.240742
v -0.403423 -0.086603 0.273445
v -0.130383 -0.053358 0.259621
v -0.407257 -0.135381 0.254018
v -0.219918 -0.040237 0.304394
v -0.329048 -0.176083 0.251389
v -0.315213 -0.046768 0.312910
v -0.413008 -0.039818 0.280747
v -0.363443 -0.128556 0.283110
v -0.459477 -0.381455 0.000000
v -0.087620 -0.041968 0.240482
v -0.565910 -0.194467 0.000000
v -0.279166 -0.180412 0.244446
v -0.521027 -0.176723 0.112272
v 0.000616 -0.599141 0.000000
v 0.424880 -0.423406 0.000000
v 0.188864 -0.187632 0.180179
v 0.000129 -0.293142 0.320534
v 0.112752 -0.587366 0.000000
v 0.155743 -0.577046 0.000000
v 0.289984 -0.523343 0.000000
v 0.221090 -0.400978 0.202330
v 0.053076 -0.595012 0.000000
v 0.058276 -0.457955 0.243591
v 0.311140 -0.310066 0.106505
v 0.238963 -0.547848 0.000000
v 0.000972 -0.440674 0.266582
v 0.098316 -0.096831 0.204704
v 0.277121 -0.417011 0.146912
v 0.000346 -0.199930 0.318366
v 0.141311 -0.498104 0.170659
v 0.046656 -0.515596 0.175767
v 0.330445 -0.498550 0.000000
v 0.112171 -0.247043 0.284830
v 0.095200 -0.505368 0.178815
v 0.279705 -0.469853 0.094253
v 0.090847 -0.348659 0.292902
v 0.271357 -0.270250 0.135745
v 0.001100 -0.053413 0.229919
v 0.331168 -0.399992 0.100445
v 0.079539 -0.545798 0.112691
v 0.000880 -0.485963 0.222226
v 0.176744 -0.428222 0.217974
v 0.139270 -0.276100 0.282977
v 0.000401 -0.389558 0.297292
v 0.254014 -0.372991 0.183763
v 0.033175 -0.559812 0.091063
v 0.370153 -0.419684 0.044239
v 0.389158 -0.387713 0.038850
v 0.135003 -0.316736 0.281948
v 0.000008 -0.246555 0.318342
v 0.155762 -0.154423 0.191744
v 0.260994 -0.328388 0.179499
v 0.127344 -0.543414 0.096509
v 0.323468 -0.442900 0.077930
v 0.045644 -0.367566 0.302349
v 0.049282 -0.178887 0.289029
v 0.000643 -0.543770 0.127441
v 0.083069 -0.211538 0.289415
v 0.215808 -0.348774 0.218719
v 0.350209 -0.349227 0.073677
v 0.229530 -0.449106 0.166116
v 0.228704 -0.227592 0.161797
v 0.181443 -0.475690 0.175900
v 0.121927 -0.452012 0.227847
v 0.093309 -0.295328 0.298345
v 0.132061 -0.201335 0.256664
v 0.228142 -0.294385 0.202256
v 0.096214 -0.160713 0.257926
v 0.001378 -0.152184 0.286280
v 0.176812 -0.379260 0.240389
v 0.056017 -0.263284 0.317485
v 0.232167 -0.495416 0.105857
v 0.126988 -0.125657 0.199108
v 0.295203 -0.365820 0.144334
v 0.166971 -0.234453 0.241137
v 0.088788 -0.404330 0.271609
v 0.052329 -0.133022 0.265261
v 0.136378 -0.406452 0.252636
v 0.041509 -0.219640 0.306275
v 0.177246 -0.329402 0.250716
v 0.000185 -0.339796 0.314248
v 0.035294 -0.033563 0.210511
v 0.047526 -0.315913 0.314152
v 0.041265 -0.413138 0.280761
v 0.130911 -0.364345 0.274642
v 0.382930 -0.459234 0.000000
v 0.001214 -0.108531 0.262095
v 0.043553 -0.088056 0.240436
v 0.068735 -0.067140 0.208162
v 0.195941 -0.565668 0.000000
v 0.181681 -0.279429 0.244589
v 0.178509 -0.519192 0.114061
v 0.600616 0.000859 0.000000
v 0.294089 0.001085 0.319439
v 0.588842 -0.111278 0.000000
v 0.578520 -0.154268 0.000000
v 0.524819 -0.288510 0.000000
v 0.402425 -0.219805 0.203097
v 0.596487 -0.051602 0.000000
v 0.460025 -0.056608 0.244500
v 0.549323 -0.237488 0.000000
v 0.444862 0.000846 0.262469
v 0.418236 -0.275360 0.146886
v 0.200594 0.000590 0.307869
v 0.499759 -0.139425 0.171620
v 0.516531 -0.044846 0.178917
v 0.500025 -0.328969 0.000000
v 0.248607 -0.111363 0.284946
v 0.500513 -0.092358 0.192665
v 0.472166 -0.277572 0.095209
v 0.346620 -0.086063 0.296042
v 0.055038 0.000687 0.230417
v 0.401190 -0.328233 0.096264
v 0.545980 -0.078301 0.114747
v 0.487914 0.000834 0.222312
v 0.429907 -0.175153 0.218466
v 0.276956 -0.139186 0.273254
v 0.390141 0.000869 0.296188
v 0.375728 -0.258745 0.177300
v 0.560878 -0.031790 0.091132
v 0.425520 -0.376013 0.036395
v 0.317667 -0.133760 0.279265
v 0.246732 0.001394 0.315471
v 0.330119 -0.258301 0.178334
v 0.539537 -0.124736 0.108064
v 0.444178 -0.319504 0.082154
v 0.368217 -0.044373 0.301281
v 0.180834 -0.047870 0.301232
v 0.544996 0.001024 0.127524
v 0.213784 -0.080786 0.303084
v 0.350449 -0.215127 0.220146
v 0.449070 -0.226299 0.171824
v 0.477630 -0.179474 0.176392
v 0.454417 -0.120934 0.229542
v 0.296163 -0.093209 0.298259
v 0.201971 -0.132451 0.253053
v 0.298048 -0.221082 0.210419
v 0.163173 -0.093894 0.264137
v 0.157521 0.000717 0.287745
v 0.380100 -0.174043 0.243269
v 0.264269 -0.055339 0.312298
v 0.495617 -0.228557 0.111369
v 0.367320 -0.293502 0.142940
v 0.236036 -0.165581 0.240806
v 0.404805 -0.086610 0.275043
v 0.134026 -0.051038 0.265704
v 0.408015 -0.134776 0.253344
v 0.221191 -0.040031 0.314552
v 0.330804 -0.176154 0.251653
v 0.340610 0.000938 0.313349
v 0.316667 -0.046290 0.312628
v 0.414262 -0.039648 0.280530
v 0.365070 -0.128428 0.274004
v 0.460709 -0.381455 0.000000
v 0.109800 0.000708 0.259128
v 0.090355 -0.041170 0.241286
v 0.567143 -0.194467 0.000000
v 0.281010 -0.180411 0.244801
v 0.524994 -0.177526 0.103519
f 45 34 19
f 49 51 60
f 37 79 31
f 15 65 56
f 18 52 22
f 9 49 16
f 23 20 42
f 48 12 62
f 10 6 28
f 53 59 71
f 22 11 19
f 7 80 41
f 73 24 64
f 46 44 67
f 33 62 40
f 41 22 28
f 11 52 64
f 28 34 10
f 14 29 11
f 8 20 23
f 37 31 53
f 46 59 21
f 18 51 52
f 45 19 29
f 70 26 76
f 23 16 49
f 2 35 74
f 42 35 27
f 63 21 31
f 30 52 51
f 13 8 60
f 25 50 55
f 27 62 16
f 27 35 36
f 1 10 34
f 41 80 18
f 40 47 33
f 53 71 24
f 21 54 46
f 44 57 17
f 36 48 27
f 16 33 9
f 1 34 45
f 34 28 19
f 23 42 16
f 2 36 35
f 47 55 68
f 37 24 73
f 17 67 44
f 39 56 54
f 58 9 47
f 25 40 12
f 41 6 7
f 51 18 80
f 42 74 35
f 14 11 72
f 44 56 65
f 44 65 57
f 43 64 24
f 73 66 58
f 53 21 59
f 46 54 56
f 33 47 9
f 55 47 40
f 33 16 62
f 9 30 49
f 49 60 23
f 29 19 11
f 16 42 27
f 6 41 28
f 14 72 32
f 51 49 30
f 22 52 11
f 30 58 66
f 37 53 24
f 38 5 59
f 39 54 3
f 54 21 63
f 55 79 68
f 56 44 46
f 15 56 61
f 9 58 30
f 68 37 73
f 59 67 38
f 5 69 71
f 13 60 80
f 23 60 8
f 39 61 56
f 40 62 12
f 48 62 27
f 54 63 3
f 53 31 21
f 64 43 72
f 64 52 66
f 32 43 69
f 19 28 22
f 22 41 18
f 57 65 75
f 30 66 52
f 66 73 64
f 67 17 38
f 46 67 59
f 3 63 50
f 68 79 37
f 47 68 58
f 71 69 43
f 70 76 77
f 24 71 43
f 64 72 11
f 32 72 43
f 68 73 58
f 42 20 74
f 75 65 76
f 75 76 26
f 15 76 65
f 4 26 70
f 71 59 5
f 15 77 76
f 78 80 7
f 31 79 63
f 55 40 25
f 63 79 50
f 13 80 78
f 51 80 60
f 79 55 50
f 94 108 117
f 130 121 120
f 105 146 110
f 126 134 15
f 97 122 93
f 91 120 86
f 114 95 98
f 131 12 48
f 102 83 87
f 139 129 123
f 94 88 97
f 113 147 84
f 133 99 141
f 136 116 118
f 112 131 107
f 102 97 113
f 133 122 88
f 87 108 102
f 88 103 90
f 98 95 85
f 123 105 110
f 96 129 118
f 122 121 93
f 103 94 117
f 144 100 70
f 120 91 98
f 142 109 2
f 101 109 114
f 105 96 132
f 121 122 104
f 130 85 89
f 125 50 25
f 91 131 101
f 36 109 101
f 108 87 81
f 93 147 113
f 107 119 112
f 99 139 123
f 118 124 96
f 92 127 116
f 101 48 36
f 86 107 91
f 117 108 81
f 94 102 108
f 91 114 98
f 109 36 2
f 137 125 119
f 141 99 110
f 116 136 92
f 124 126 39
f 119 86 128
f 12 112 25
f 84 83 113
f 147 93 121
f 109 142 114
f 140 88 90
f 134 126 116
f 127 134 116
f 99 133 115
f 128 135 141
f 129 96 123
f 126 124 118
f 86 119 107
f 112 119 125
f 131 91 107
f 120 104 86
f 98 130 120
f 88 94 103
f 101 114 91
f 102 113 83
f 106 140 90
f 104 120 121
f 88 122 97
f 135 128 104
f 99 123 110
f 129 82 111
f 3 124 39
f 132 96 124
f 137 146 125
f 118 116 126
f 61 126 15
f 104 128 86
f 141 110 137
f 111 136 129
f 139 138 82
f 147 130 89
f 85 130 98
f 126 61 39
f 12 131 112
f 101 131 48
f 3 132 124
f 96 105 123
f 140 115 133
f 135 122 133
f 138 115 106
f 97 102 94
f 93 113 97
f 143 134 127
f 122 135 104
f 133 141 135
f 111 92 136
f 129 136 118
f 50 132 3
f 110 146 137
f 128 137 119
f 115 138 139
f 77 144 70
f 115 139 99
f 88 140 133
f 115 140 106
f 128 141 137
f 142 95 114
f 144 134 143
f 100 144 143
f 134 144 15
f 70 100 4
f 82 129 139
f 144 77 15
f 84 147 145
f 132 146 105
f 25 112 125
f 50 146 132
f 145 147 89
f 130 147 121
f 50 125 146
f 161 173 45
f 196 188 186
f 171 213 176
f 193 201 158
f 164 189 160
f 159 186 153
f 180 162 165
f 198 156 185
f 169 150 154
f 206 195 190
f 161 155 164
f 179 214 151
f 200 166 208
f 203 182 183
f 178 198 172
f 169 164 179
f 200 189 155
f 154 173 169
f 155 29 14
f 165 162 152
f 190 171 176
f 163 195 183
f 189 188 160
f 29 161 45
f 210 26 205
f 186 159 165
f 209 174 148
f 168 174 180
f 171 163 199
f 188 189 170
f 196 152 157
f 192 187 167
f 159 198 168
f 175 174 168
f 173 154 1
f 160 214 179
f 172 184 178
f 166 206 190
f 183 191 163
f 17 57 182
f 168 185 175
f 153 172 159
f 45 173 1
f 161 169 173
f 159 180 165
f 174 175 148
f 204 192 184
f 208 166 176
f 182 203 17
f 191 193 177
f 184 153 194
f 156 178 167
f 151 150 179
f 214 160 188
f 174 209 180
f 207 155 14
f 201 193 182
f 57 201 182
f 166 200 181
f 194 202 208
f 195 163 190
f 193 191 183
f 153 184 172
f 178 184 192
f 198 159 172
f 186 170 153
f 165 196 186
f 155 161 29
f 168 180 159
f 169 179 150
f 32 207 14
f 170 186 188
f 155 189 164
f 202 194 170
f 166 190 176
f 195 5 38
f 149 191 177
f 199 163 191
f 204 213 192
f 183 182 193
f 197 193 158
f 170 194 153
f 208 176 204
f 38 203 195
f 206 69 5
f 214 196 157
f 152 196 165
f 193 197 177
f 156 198 178
f 168 198 185
f 149 199 191
f 163 171 190
f 207 181 200
f 202 189 200
f 69 181 32
f 164 169 161
f 160 179 164
f 75 201 57
f 189 202 170
f 200 208 202
f 38 17 203
f 195 203 183
f 187 199 149
f 176 213 204
f 194 204 184
f 181 69 206
f 211 210 205
f 181 206 166
f 155 207 200
f 181 207 32
f 194 208 204
f 209 162 180
f 210 201 75
f 26 210 75
f 201 210 158
f 205 26 4
f 5 195 206
f 210 211 158
f 151 214 212
f 199 213 171
f 167 178 192
f 187 213 199
f 212 214 157
f 196 214 188
f 187 192 213
f 507 235 224
f 245 246 254
f 237 268 233
f 158 258 251
f 223 247 227
f 218 245 222
f 228 225 240
f 185 156 255
f 219 215 231
f 248 253 262
f 227 220 224
f 216 269 239
f 264 229 257
f 243 242 260
f 234 255 238
f 239 227 231
f 220 247 257
f 231 235 219
f 480 493 220
f 217 225 228
f 237 233 248
f 243 253 226
f 223 246 247
f 507 224 493
f 205 490 266
f 228 222 245
f 148 236 265
f 240 236 230
f 256 226 233
f 232 247 246
f 221 217 254
f 167 187 250
f 230 255 222
f 230 236 175
f 471 219 235
f 239 269 223
f 238 244 234
f 248 262 229
f 226 249 243
f 242 517 482
f 175 185 230
f 222 234 218
f 471 235 507
f 235 231 224
f 228 240 222
f 148 175 236
f 244 250 261
f 237 229 264
f 482 260 242
f 177 251 249
f 252 218 244
f 167 238 156
f 239 215 216
f 246 223 269
f 240 265 236
f 480 220 263
f 242 251 258
f 242 258 517
f 241 257 229
f 264 259 252
f 248 226 253
f 243 249 251
f 234 244 218
f 250 244 238
f 234 222 255
f 218 232 245
f 245 254 228
f 493 224 220
f 222 240 230
f 215 239 231
f 480 263 496
f 246 245 232
f 227 247 220
f 232 252 259
f 237 248 229
f 501 472 253
f 177 249 149
f 249 226 256
f 250 268 261
f 251 242 243
f 158 251 197
f 218 252 232
f 261 237 264
f 253 260 501
f 472 528 262
f 221 254 269
f 228 254 217
f 177 197 251
f 238 255 156
f 185 255 230
f 249 256 149
f 248 233 226
f 257 241 263
f 257 247 259
f 496 241 528
f 224 231 227
f 227 239 223
f 517 258 533
f 232 259 247
f 259 264 257
f 260 482 501
f 243 260 253
f 149 256 187
f 261 268 237
f 244 261 252
f 262 528 241
f 205 266 211
f 229 262 241
f 257 263 220
f 496 263 241
f 261 264 252
f 240 225 265
f 533 258 266
f 533 266 490
f 158 266 258
f 4 490 205
f 262 253 472
f 158 211 266
f 267 269 216
f 233 268 256
f 250 238 167
f 256 268 187
f 221 269 267
f 246 269 254
f 268 250 187
f 283 295 435
f 318 310 308
f 293 335 298
f 315 323 280
f 286 311 282
f 281 308 275
f 302 284 287
f 320 278 307
f 291 272 276
f 328 317 312
f 283 277 286
f 301 336 273
f 322 288 330
f 325 304 305
f 300 320 294
f 291 286 301
f 322 311 277
f 276 295 291
f 277 419 404
f 287 284 274
f 312 293 298
f 285 317 305
f 311 310 282
f 419 283 435
f 332 416 327
f 308 281 287
f 331 296 270
f 290 296 302
f 293 285 321
f 310 311 292
f 318 274 279
f 314 309 289
f 281 320 290
f 297 296 290
f 295 276 392
f 282 336 301
f 294 306 300
f 288 328 312
f 305 313 285
f 407 447 304
f 290 307 297
f 275 294 281
f 435 295 392
f 283 291 295
f 281 302 287
f 296 297 270
f 326 314 306
f 330 288 298
f 304 325 407
f 313 315 299
f 306 275 316
f 278 300 289
f 273 272 301
f 336 282 310
f 296 331 302
f 329 277 404
f 323 315 304
f 447 323 304
f 288 322 303
f 316 324 330
f 317 285 312
f 315 313 305
f 275 306 294
f 300 306 314
f 320 281 294
f 308 292 275
f 287 318 308
f 277 283 419
f 290 302 281
f 291 301 272
f 422 329 404
f 292 308 310
f 277 311 286
f 324 316 292
f 288 312 298
f 317 395 428
f 271 313 299
f 321 285 313
f 326 335 314
f 305 304 315
f 319 315 280
f 292 316 275
f 330 298 326
f 428 325 317
f 328 459 395
f 336 318 279
f 274 318 287
f 315 319 299
f 278 320 300
f 290 320 307
f 271 321 313
f 285 293 312
f 329 303 322
f 324 311 322
f 459 303 422
f 286 291 283
f 282 301 286
f 465 323 447
f 311 324 292
f 322 330 324
f 428 407 325
f 317 325 305
f 309 321 271
f 298 335 326
f 316 326 306
f 303 459 328
f 333 332 327
f 303 328 288
f 277 329 322
f 303 329 422
f 316 330 326
f 331 284 302
f 332 323 465
f 416 332 465
f 323 332 280
f 327 416 4
f 395 317 328
f 332 333 280
f 273 336 334
f 321 335 293
f 289 300 314
f 309 335 321
f 334 336 279
f 318 336 310
f 309 314 335
f 117 357 346
f 367 368 376
f 359 390 355
f 280 380 373
f 345 369 349
f 340 367 344
f 350 347 362
f 307 278 377
f 341 337 353
f 370 375 384
f 349 342 346
f 338 391 361
f 386 351 379
f 365 364 382
f 356 377 360
f 361 349 353
f 342 369 379
f 353 357 341
f 90 103 342
f 339 347 350
f 359 355 370
f 365 375 348
f 345 368 369
f 117 346 103
f 327 100 388
f 350 344 367
f 270 358 387
f 362 358 352
f 378 348 355
f 354 369 368
f 343 339 376
f 289 309 372
f 352 377 344
f 352 358 297
f 81 341 357
f 361 391 345
f 360 366 356
f 370 384 351
f 348 371 365
f 364 127 92
f 297 307 352
f 344 356 340
f 81 357 117
f 357 353 346
f 350 362 344
f 270 297 358
f 366 372 383
f 359 351 386
f 92 382 364
f 299 373 371
f 374 340 366
f 289 360 278
f 361 337 338
f 368 345 391
f 362 387 358
f 90 342 385
f 364 373 380
f 364 380 127
f 363 379 351
f 386 381 374
f 370 348 375
f 365 371 373
f 356 366 340
f 372 366 360
f 356 344 377
f 340 354 367
f 367 376 350
f 103 346 342
f 344 362 352
f 337 361 353
f 90 385 106
f 368 367 354
f 349 369 342
f 354 374 381
f 359 370 351
f 111 82 375
f 299 371 271
f 371 348 378
f 372 390 383
f 373 364 365
f 280 373 319
f 340 374 354
f 383 359 386
f 375 382 111
f 82 138 384
f 343 376 391
f 350 376 339
f 299 319 373
f 360 377 278
f 307 377 352
f 371 378 271
f 370 355 348
f 379 363 385
f 379 369 381
f 106 363 138
f 346 353 349
f 349 361 345
f 127 380 143
f 354 381 369
f 381 386 379
f 382 92 111
f 365 382 375
f 271 378 309
f 383 390 359
f 366 383 374
f 384 138 363
f 327 388 333
f 351 384 363
f 379 385 342
f 106 385 363
f 383 386 374
f 362 347 387
f 143 380 388
f 143 388 100
f 280 388 380
f 4 100 327
f 384 375 82
f 280 333 388
f 389 391 338
f 355 390 378
f 372 360 289
f 378 390 309
f 343 391 389
f 368 391 376
f 390 372 309
f 435 424 409
f 439 441 450
f 427 469 421
f 405 455 446
f 408 442 412
f 399 439 406
f 413 410 432
f 438 402 452
f 400 396 418
f 443 449 461
f 412 401 409
f 397 470 431
f 463 414 454
f 436 434 457
f 423 452 430
f 431 412 418
f 401 442 454
f 418 424 400
f 404 419 401
f 398 410 413
f 427 421 443
f 436 449 411
f 408 441 442
f 435 409 419
f 460 416 466
f 413 406 439
f 393 425 464
f 432 425 417
f 453 411 421
f 420 442 441
f 403 398 450
f 415 440 445
f 417 452 406
f 417 425 426
f 392 400 424
f 431 470 408
f 430 437 423
f 443 461 414
f 411 444 436
f 434 447 407
f 426 438 417
f 406 423 399
f 392 424 435
f 424 418 409
f 413 432 406
f 393 426 425
f 437 445 458
f 427 414 463
f 407 457 434
f 429 446 444
f 448 399 437
f 415 430 402
f 431 396 397
f 441 408 470
f 432 464 425
f 404 401 462
f 434 446 455
f 434 455 447
f 433 454 414
f 463 456 448
f 443 411 449
f 436 444 446
f 423 437 399
f 445 437 430
f 423 406 452
f 399 420 439
f 439 450 413
f 419 409 401
f 406 432 417
f 396 431 418
f 404 462 422
f 441 439 420
f 412 442 401
f 420 448 456
f 427 443 414
f 428 395 449
f 429 444 394
f 444 411 453
f 445 469 458
f 446 434 436
f 405 446 451
f 399 448 420
f 458 427 463
f 449 457 428
f 395 459 461
f 403 450 470
f 413 450 398
f 429 451 446
f 430 452 402
f 438 452 417
f 444 453 394
f 443 421 411
f 454 433 462
f 454 442 456
f 422 433 459
f 409 418 412
f 412 431 408
f 447 455 465
f 420 456 442
f 456 463 454
f 457 407 428
f 436 457 449
f 394 453 440
f 458 469 427
f 437 458 448
f 461 459 433
f 460 466 467
f 414 461 433
f 454 462 401
f 422 462 433
f 458 463 448
f 432 410 464
f 465 455 466
f 465 466 416
f 405 466 455
f 4 416 460
f 461 449 395
f 405 467 466
f 468 470 397
f 421 469 453
f 445 430 415
f 453 469 440
f 403 470 468
f 441 470 450
f 469 445 440
f 484 498 507
f 520 511 510
f 495 536 500
f 516 524 405
f 487 512 483
f 481 510 476
f 504 485 488
f 521 402 438
f 492 473 477
f 529 519 513
f 484 478 487
f 503 537 474
f 523 489 531
f 526 506 508
f 502 521 497
f 492 487 503
f 523 512 478
f 477 498 492
f 478 493 480
f 488 485 475
f 513 495 500
f 486 519 508
f 512 511 483
f 493 484 507
f 534 490 460
f 510 481 488
f 532 499 393
f 491 499 504
f 495 486 522
f 511 512 494
f 520 475 479
f 515 440 415
f 481 521 491
f 426 499 491
f 498 477 471
f 483 537 503
f 497 509 502
f 489 529 513
f 508 514 486
f 482 517 506
f 491 438 426
f 476 497 481
f 507 498 471
f 484 492 498
f 481 504 488
f 499 426 393
f 527 515 509
f 531 489 500
f 506 526 482
f 514 516 429
f 509 476 518
f 402 502 415
f 474 473 503
f 537 483 511
f 499 532 504
f 530 478 480
f 524 516 506
f 517 524 506
f 489 523 505
f 518 525 531
f 519 486 513
f 516 514 508
f 476 509 497
f 502 509 515
f 521 481 497
f 510 494 476
f 488 520 510
f 478 484 493
f 491 504 481
f 492 503 473
f 496 530 480
f 494 510 511
f 478 512 487
f 525 518 494
f 489 513 500
f 519 472 501
f 394 514 429
f 522 486 514
f 527 536 515
f 508 506 516
f 451 516 405
f 494 518 476
f 531 500 527
f 501 526 519
f 529 528 472
f 537 520 479
f 475 520 488
f 516 451 429
f 402 521 502
f 491 521 438
f 394 522 514
f 486 495 513
f 530 505 523
f 525 512 523
f 528 505 496
f 487 492 484
f 483 503 487
f 533 524 517
f 512 525 494
f 523 531 525
f 501 482 526
f 519 526 508
f 440 522 394
f 500 536 527
f 518 527 509
f 505 528 529
f 467 534 460
f 505 529 489
f 478 530 523
f 505 530 496
f 518 531 527
f 532 485 504
f 534 524 533
f 490 534 533
f 524 534 405
f 460 490 4
f 472 519 529
f 534 467 405
f 474 537 535
f 522 536 495
f 415 502 515
f 440 536 522
f 535 537 479
f 520 537 511
f 440 515 536
