# 4part FEM knit+cable best fit (4part_s_pw_crestd2_r90)
# interior RMSE  : 4.411 mm
# max deviation  : 15.895 mm
# crown          : 0.31847 m (target 0.32177 m)
# max disp/rest  : 15.895 mm (floor 5.0 mm)
# regions        : 16 (4 D4 slots), 18 parameters
v 0.000616 0.600859 0.000000
v -0.423648 0.425123 0.000000
v -0.188085 0.190146 0.180092
v 0.000762 0.000518 0.211421
v 0.001200 0.296033 0.318469
v -0.111519 0.589084 0.000000
v -0.154511 0.578763 0.000000
v -0.288752 0.525061 0.000000
v -0.218736 0.403697 0.200116
v -0.051844 0.596730 0.000000
v -0.057135 0.464971 0.238742
v -0.310080 0.312085 0.106844
v -0.237731 0.549565 0.000000
v 0.001189 0.441198 0.268574
v -0.097423 0.099130 0.204497
v -0.273838 0.419577 0.144674
v 0.002141 0.203334 0.315340
v -0.142312 0.508483 0.162616
v -0.044740 0.516808 0.183108
v -0.329212 0.500267 0.000000
v -0.111385 0.248690 0.284493
v -0.092160 0.501224 0.198996
v -0.279379 0.475851 0.096259
v -0.086720 0.348214 0.289566
v -0.270299 0.272464 0.135952
v 0.001117 0.056108 0.230037
v -0.326716 0.402060 0.097346
v -0.078211 0.551380 0.114561
v 0.001103 0.488974 0.221779
v -0.175314 0.431380 0.216495
v -0.138104 0.278031 0.283458
v 0.001032 0.391752 0.296052
v -0.250733 0.375537 0.181109
v -0.031619 0.565002 0.090768
v -0.372915 0.424023 0.047195
v -0.387902 0.389678 0.037308
v -0.134657 0.318404 0.277722
v 0.001467 0.249953 0.317543
v -0.154979 0.156930 0.191502
v -0.257542 0.331168 0.177059
v -0.125234 0.544322 0.110100
v -0.329513 0.452789 0.069267
v -0.044155 0.369665 0.301565
v -0.047623 0.181946 0.287267
v 0.000676 0.548725 0.128834
v -0.081318 0.214301 0.287084
v -0.212450 0.351565 0.215689
v -0.349213 0.351075 0.073909
v -0.225943 0.451055 0.168185
v -0.227667 0.230090 0.161933
v -0.179395 0.479376 0.174973
v -0.120324 0.453335 0.237404
v -0.092062 0.297028 0.295293
v -0.130164 0.204204 0.257079
v -0.224169 0.297980 0.201569
v -0.095182 0.163236 0.256421
v 0.002109 0.158862 0.287280
v -0.177717 0.384085 0.237177
v -0.054912 0.265738 0.307697
v -0.231351 0.502189 0.107828
v -0.126176 0.128058 0.198873
v -0.291365 0.368253 0.141672
v -0.163044 0.238138 0.245383
v -0.086164 0.404649 0.270870
v -0.049551 0.137344 0.271426
v -0.139193 0.412401 0.250193
v -0.038405 0.223744 0.304528
v -0.174895 0.332640 0.253477
v 0.000972 0.342131 0.311849
v -0.033814 0.035247 0.210846
v -0.049045 0.319443 0.309095
v -0.039637 0.415457 0.278949
v -0.128472 0.365492 0.280020
v -0.381698 0.460952 0.000000
v 0.001227 0.113057 0.273816
v -0.041246 0.091780 0.244174
v -0.067671 0.069193 0.208168
v -0.194710 0.567385 0.000000
v -0.185395 0.280925 0.236368
v -0.179298 0.530728 0.103026
v -0.599383 0.000859 0.000000
v -0.294333 0.000443 0.318334
v -0.587609 0.112995 0.000000
v -0.577288 0.155985 0.000000
v -0.523586 0.290227 0.000000
v -0.401867 0.219782 0.199486
v -0.595255 0.053319 0.000000
v -0.459999 0.058255 0.243479
v -0.548091 0.239205 0.000000
v -0.443469 0.000542 0.261973
v -0.417571 0.274890 0.144161
v -0.200810 0.000869 0.302794
v -0.499903 0.140929 0.170448
v -0.520031 0.046947 0.172797
v -0.498792 0.330686 0.000000
v -0.246056 0.114976 0.276521
v -0.505202 0.094740 0.180458
v -0.476141 0.283008 0.090770
v -0.346457 0.088157 0.294408
v -0.054391 0.000700 0.229713
v -0.400159 0.329132 0.097968
v -0.549919 0.080232 0.114879
v -0.491974 0.000829 0.214389
v -0.430992 0.177191 0.210248
v -0.277862 0.141461 0.301538
v -0.389909 0.000801 0.294742
v -0.373376 0.251508 0.180001
v -0.565101 0.033580 0.088635
v -0.421907 0.373603 0.046384
v -0.318504 0.136502 0.261001
v -0.246219 -0.000096 0.313707
v -0.328643 0.260494 0.172978
v -0.542591 0.127079 0.109976
v -0.445989 0.325550 0.080174
v -0.368250 0.046437 0.301037
v -0.178684 0.050859 0.288347
v -0.548055 0.000799 0.129821
v -0.212330 0.083169 0.286081
v -0.350089 0.214715 0.216283
v -0.450419 0.228369 0.164428
v -0.476861 0.180512 0.174334
v -0.458818 0.123912 0.218534
v -0.295420 0.094584 0.296985
v -0.201547 0.133524 0.251007
v -0.297677 0.221032 0.208099
v -0.161642 0.096833 0.256198
v -0.158397 0.000545 0.284197
v -0.381859 0.178033 0.234324
v -0.263430 0.057111 0.308985
v -0.499935 0.232828 0.107473
v -0.366247 0.292852 0.141499
v -0.235567 0.166918 0.239320
v -0.404364 0.088033 0.272952
v -0.134000 0.052976 0.263438
v -0.407845 0.135944 0.251152
v -0.220044 0.042487 0.317576
v -0.331305 0.177261 0.248909
v -0.340611 0.000683 0.312142
v -0.316026 0.047837 0.313521
v -0.413155 0.041249 0.284956
v -0.365522 0.130451 0.272494
v -0.459477 0.383172 0.000000
v -0.111707 0.000375 0.259050
v -0.089410 0.043510 0.238767
v -0.565910 0.196184 0.000000
v -0.281495 0.178978 0.246364
v -0.528207 0.180675 0.104532
v 0.424880 0.425123 0.000000
v 0.189441 0.190139 0.180119
v 0.112752 0.589084 0.000000
v 0.155743 0.578763 0.000000
v 0.289984 0.525061 0.000000
v 0.222293 0.404973 0.200665
v 0.053076 0.596730 0.000000
v 0.058915 0.461113 0.243137
v 0.311671 0.311946 0.106587
v 0.238963 0.549565 0.000000
v 0.099055 0.098867 0.204427
v 0.280339 0.421820 0.138837
v 0.140965 0.500846 0.170178
v 0.046489 0.516183 0.182514
v 0.330445 0.500267 0.000000
v 0.112771 0.249934 0.283421
v 0.094361 0.503032 0.187698
v 0.280100 0.473436 0.106116
v 0.088303 0.348271 0.294353
v 0.271794 0.272247 0.135749
v 0.330358 0.401937 0.098210
v 0.078981 0.549284 0.120971
v 0.176407 0.430065 0.215614
v 0.142135 0.277125 0.266671
v 0.254206 0.376267 0.182548
v 0.032842 0.565181 0.090665
v 0.374274 0.423638 0.046587
v 0.389366 0.389282 0.037230
v 0.135348 0.318646 0.276256
v 0.156429 0.157031 0.191642
v 0.257656 0.331515 0.180671
v 0.128424 0.549556 0.098662
v 0.324189 0.446049 0.089625
v 0.046407 0.369339 0.302628
v 0.052731 0.178847 0.292333
v 0.082906 0.215556 0.309756
v 0.219263 0.353298 0.197936
v 0.351021 0.350787 0.073725
v 0.228875 0.451865 0.164552
v 0.229129 0.229915 0.161720
v 0.180863 0.478283 0.174479
v 0.123935 0.458335 0.221405
v 0.094913 0.298026 0.297949
v 0.133313 0.203756 0.252876
v 0.220108 0.299934 0.207694
v 0.103876 0.157135 0.248839
v 0.182249 0.383861 0.233843
v 0.058882 0.266927 0.313493
v 0.233895 0.502664 0.108525
v 0.127771 0.127912 0.198839
v 0.292620 0.368264 0.141129
v 0.167233 0.237112 0.240048
v 0.088618 0.405642 0.272495
v 0.054536 0.134010 0.265477
v 0.135987 0.407894 0.249477
v 0.041946 0.224092 0.311583
v 0.177981 0.331877 0.258424
v 0.035556 0.035101 0.210707
v 0.048808 0.318812 0.312533
v 0.041614 0.414345 0.283474
v 0.130370 0.365974 0.271153
v 0.382930 0.460952 0.000000
v 0.044703 0.089663 0.240118
v 0.069377 0.068971 0.208087
v 0.195941 0.567385 0.000000
v 0.180835 0.282939 0.256949
v 0.180684 0.529094 0.109358
v 0.588842 0.112995 0.000000
v 0.578520 0.155985 0.000000
v 0.524819 0.290227 0.000000
v 0.401998 0.219101 0.198755
v 0.596487 0.053319 0.000000
v 0.462109 0.058667 0.244612
v 0.549323 0.239205 0.000000
v 0.418718 0.275623 0.144997
v 0.499167 0.140406 0.176872
v 0.516796 0.046611 0.183523
v 0.500025 0.330686 0.000000
v 0.247663 0.114682 0.285752
v 0.503460 0.094347 0.189056
v 0.474759 0.281103 0.096252
v 0.348544 0.089373 0.296916
v 0.402415 0.333134 0.089691
v 0.550234 0.079817 0.117695
v 0.431390 0.177600 0.217736
v 0.278345 0.139635 0.283059
v 0.374083 0.251799 0.180123
v 0.565128 0.033262 0.091272
v 0.423939 0.375018 0.047450
v 0.319771 0.137784 0.275820
v 0.328782 0.264636 0.169444
v 0.544088 0.127044 0.110197
v 0.446029 0.324596 0.079689
v 0.369105 0.046282 0.299381
v 0.181952 0.049973 0.286867
v 0.213872 0.083940 0.287503
v 0.350697 0.216936 0.218032
v 0.451256 0.228525 0.164612
v 0.478376 0.181118 0.176088
v 0.454731 0.122542 0.227972
v 0.296980 0.094433 0.308269
v 0.202869 0.133977 0.251618
v 0.298402 0.222210 0.209068
v 0.162862 0.097445 0.254844
v 0.380986 0.178288 0.259583
v 0.265279 0.057472 0.307994
v 0.501152 0.233027 0.107804
v 0.367494 0.293818 0.142183
v 0.237014 0.166915 0.239370
v 0.405132 0.088011 0.284782
v 0.136193 0.052633 0.263230
v 0.410319 0.138260 0.250187
v 0.222207 0.042229 0.301832
v 0.332006 0.178580 0.259643
v 0.317848 0.048524 0.309497
v 0.415617 0.041436 0.279695
v 0.367866 0.133483 0.266547
v 0.460709 0.383172 0.000000
v 0.091318 0.043218 0.238795
v 0.567143 0.196184 0.000000
v 0.281801 0.181737 0.242733
v 0.529487 0.180735 0.104838
v -0.423648 -0.423406 0.000000
v -0.187808 -0.188634 0.179952
v -0.111519 -0.587366 0.000000
v -0.154511 -0.577046 0.000000
v -0.288752 -0.523343 0.000000
v -0.218672 -0.401879 0.200022
v -0.051844 -0.595012 0.000000
v -0.057815 -0.462870 0.237811
v -0.309924 -0.310557 0.106509
v -0.237731 -0.547848 0.000000
v -0.097293 -0.097850 0.204799
v -0.274445 -0.418180 0.145263
v -0.139597 -0.500005 0.170641
v -0.044893 -0.514243 0.182010
v -0.329212 -0.498550 0.000000
v -0.112513 -0.248763 0.282817
v -0.092676 -0.501642 0.188024
v -0.279896 -0.473909 0.096414
v -0.086668 -0.346708 0.301576
v -0.270067 -0.270860 0.135416
v -0.332866 -0.401515 0.089175
v -0.079831 -0.559225 0.093692
v -0.175222 -0.429461 0.216331
v -0.139338 -0.277168 0.270568
v -0.250517 -0.373679 0.184717
v -0.030975 -0.564187 0.090906
v -0.373586 -0.422574 0.047410
v -0.387681 -0.388005 0.037132
v -0.134232 -0.317618 0.275863
v -0.154888 -0.155446 0.191643
v -0.258137 -0.329208 0.177338
v -0.126116 -0.543517 0.108674
v -0.322839 -0.444600 0.082013
v -0.045004 -0.368554 0.299048
v -0.047698 -0.182045 0.298541
v -0.084463 -0.213263 0.290216
v -0.215375 -0.350315 0.215418
v -0.348749 -0.349942 0.073676
v -0.227065 -0.450341 0.164653
v -0.227580 -0.228478 0.161371
v -0.179375 -0.477249 0.174775
v -0.121046 -0.453685 0.227212
v -0.094356 -0.296420 0.298230
v -0.132453 -0.201783 0.251867
v -0.219649 -0.298347 0.210667
v -0.092506 -0.164321 0.267064
v -0.174040 -0.379615 0.240164
v -0.056380 -0.265421 0.316985
v -0.231683 -0.500063 0.107830
v -0.126179 -0.126585 0.199089
v -0.291164 -0.366546 0.143952
v -0.173913 -0.231649 0.228866
v -0.087835 -0.405983 0.271848
v -0.050836 -0.133701 0.264792
v -0.135670 -0.408450 0.248986
v -0.042721 -0.221452 0.308843
v -0.176120 -0.330767 0.248930
v -0.033676 -0.034070 0.210853
v -0.047364 -0.317456 0.311343
v -0.042031 -0.420943 0.273327
v -0.128536 -0.364763 0.270208
v -0.381698 -0.459234 0.000000
v -0.041782 -0.089356 0.239378
v -0.067457 -0.068003 0.208356
v -0.194710 -0.565668 0.000000
v -0.180836 -0.281247 0.242657
v -0.180003 -0.529460 0.101912
v -0.587609 -0.111278 0.000000
v -0.577288 -0.154268 0.000000
v -0.523586 -0.288510 0.000000
v -0.401376 -0.218198 0.199425
v -0.595255 -0.051602 0.000000
v -0.465161 -0.057738 0.236419
v -0.548091 -0.237488 0.000000
v -0.417162 -0.274751 0.145175
v -0.500149 -0.139407 0.170754
v -0.515410 -0.045108 0.183384
v -0.498792 -0.328969 0.000000
v -0.248401 -0.111959 0.282482
v -0.502291 -0.092866 0.188657
v -0.471011 -0.277481 0.116881
v -0.347015 -0.087109 0.291262
v -0.399905 -0.328112 0.108643
v -0.550615 -0.078002 0.114866
v -0.429317 -0.174954 0.216001
v -0.276477 -0.139777 0.271068
v -0.373372 -0.251338 0.181334
v -0.561949 -0.031279 0.096852
v -0.421849 -0.372120 0.046305
v -0.317061 -0.134907 0.277567
v -0.328963 -0.257108 0.178976
v -0.543934 -0.125192 0.110631
v -0.447118 -0.326050 0.081210
v -0.367647 -0.044451 0.302109
v -0.175595 -0.052616 0.281240
v -0.213574 -0.082634 0.287565
v -0.349504 -0.213733 0.216673
v -0.449669 -0.226454 0.163855
v -0.480556 -0.181196 0.169656
v -0.454303 -0.121000 0.227742
v -0.296171 -0.092912 0.296492
v -0.202046 -0.132066 0.250858
v -0.297178 -0.220439 0.208376
v -0.159903 -0.097770 0.249980
v -0.379090 -0.173439 0.239624
v -0.264340 -0.056007 0.308226
v -0.502359 -0.232545 0.109278
v -0.365807 -0.293879 0.137537
v -0.235695 -0.165394 0.238745
v -0.404597 -0.086576 0.271351
v -0.131799 -0.054095 0.258075
v -0.408308 -0.135360 0.251797
v -0.221735 -0.040422 0.302498
v -0.330057 -0.175682 0.248537
v -0.316668 -0.046874 0.310901
v -0.414280 -0.039834 0.279229
v -0.364396 -0.128787 0.280579
v -0.459477 -0.381455 0.000000
v -0.088973 -0.042489 0.239331
v -0.565910 -0.194467 0.000000
v -0.280407 -0.180181 0.241973
v -0.527128 -0.178258 0.114612
v 0.000616 -0.599141 0.000000
v 0.424880 -0.423406 0.000000
v 0.189472 -0.188656 0.179685
v 0.000114 -0.294612 0.317870
v 0.112752 -0.587366 0.000000
v 0.155743 -0.577046 0.000000
v 0.289984 -0.523343 0.000000
v 0.219584 -0.401425 0.199236
v 0.053076 -0.595012 0.000000
v 0.058354 -0.458553 0.241880
v 0.311286 -0.310348 0.106536
v 0.238963 -0.547848 0.000000
v 0.000846 -0.441142 0.264838
v 0.098948 -0.097937 0.204511
v 0.275224 -0.417704 0.144567
v 0.000327 -0.202060 0.316172
v 0.140708 -0.499714 0.169773
v 0.046591 -0.517738 0.175661
v 0.330445 -0.498550 0.000000
v 0.112402 -0.248453 0.281751
v 0.094935 -0.507072 0.178136
v 0.281363 -0.473942 0.096314
v 0.090800 -0.349569 0.289565
v 0.271622 -0.270786 0.135488
v 0.001104 -0.054788 0.229263
v 0.328889 -0.400341 0.097930
v 0.079094 -0.550305 0.114447
v 0.000864 -0.487164 0.221209
v 0.175871 -0.428532 0.215234
v 0.139155 -0.277438 0.279877
v 0.000410 -0.390127 0.294980
v 0.252196 -0.373607 0.180747
v 0.032728 -0.563624 0.090815
v 0.372924 -0.421858 0.046125
v 0.388516 -0.387751 0.037274
v 0.135117 -0.317734 0.278746
v -0.000022 -0.248388 0.315964
v 0.156451 -0.155569 0.191280
v 0.259317 -0.329314 0.176904
v 0.127872 -0.548510 0.097323
v 0.325433 -0.445981 0.080149
v 0.045639 -0.368393 0.299758
v 0.049704 -0.180798 0.286653
v 0.000585 -0.547208 0.128902
v 0.083465 -0.213194 0.286667
v 0.214343 -0.349448 0.215414
v 0.350235 -0.349307 0.073706
v 0.228231 -0.450040 0.164279
v 0.229134 -0.228384 0.161359
v 0.180552 -0.476873 0.174524
v 0.121492 -0.452486 0.225703
v 0.093520 -0.296550 0.294950
v 0.132009 -0.203007 0.254381
v 0.226986 -0.295464 0.199787
v 0.096508 -0.162417 0.255903
v 0.001487 -0.154071 0.284634
v 0.176128 -0.379683 0.236986
v 0.056171 -0.264984 0.314726
v 0.233448 -0.500169 0.107859
v 0.127668 -0.126816 0.198758
v 0.292858 -0.366481 0.141534
v 0.166679 -0.235890 0.238839
v 0.088602 -0.404857 0.268863
v 0.052780 -0.134777 0.263397
v 0.135964 -0.406843 0.249829
v 0.041737 -0.221529 0.303762
v 0.176451 -0.330242 0.247420
v 0.000193 -0.340837 0.311634
v 0.035476 -0.034222 0.210848
v 0.047620 -0.317186 0.311476
v 0.041249 -0.413669 0.278525
v 0.130873 -0.365024 0.271483
v 0.382930 -0.459234 0.000000
v 0.001196 -0.110405 0.260745
v 0.043876 -0.089633 0.239202
v 0.069222 -0.068096 0.208221
v 0.195941 -0.565668 0.000000
v 0.180910 -0.280687 0.241669
v 0.179674 -0.525248 0.116909
v 0.600616 0.000859 0.000000
v 0.295268 0.001094 0.317643
v 0.588842 -0.111278 0.000000
v 0.578520 -0.154268 0.000000
v 0.524819 -0.288510 0.000000
v 0.402763 -0.218914 0.200664
v 0.596487 -0.051602 0.000000
v 0.461108 -0.056841 0.243459
v 0.549323 -0.237488 0.000000
v 0.445974 0.000794 0.261411
v 0.418650 -0.274080 0.144916
v 0.202070 0.000562 0.306163
v 0.501523 -0.139363 0.171000
v 0.519091 -0.044983 0.179401
v 0.500025 -0.328969 0.000000
v 0.249613 -0.112042 0.282731
v 0.502139 -0.092373 0.192187
v 0.475163 -0.279601 0.096521
v 0.347484 -0.086274 0.293936
v 0.055883 0.000586 0.230090
v 0.401438 -0.328911 0.098512
v 0.550809 -0.078182 0.116822
v 0.489687 0.000737 0.222217
v 0.430319 -0.174824 0.216183
v 0.277788 -0.139589 0.270907
v 0.390987 0.000860 0.294589
v 0.376087 -0.257194 0.174932
v 0.565127 -0.031533 0.091325
v 0.422844 -0.371880 0.032243
v 0.318327 -0.134212 0.276763
v 0.248064 0.001396 0.313763
v 0.330557 -0.257229 0.176583
v 0.544611 -0.125368 0.109672
v 0.446036 -0.322604 0.083349
v 0.369113 -0.044502 0.299521
v 0.182343 -0.048373 0.299815
v 0.548978 0.001021 0.129560
v 0.215101 -0.081496 0.301190
v 0.350887 -0.214290 0.217624
v 0.449771 -0.225561 0.170272
v 0.478774 -0.179148 0.175156
v 0.455179 -0.120894 0.227891
v 0.297134 -0.093727 0.296086
v 0.203122 -0.132851 0.251310
v 0.298699 -0.220503 0.208522
v 0.164405 -0.094562 0.262366
v 0.158930 0.000726 0.286399
v 0.380416 -0.173902 0.240588
v 0.265542 -0.055789 0.310670
v 0.499830 -0.230304 0.113480
v 0.367452 -0.292329 0.141929
v 0.237002 -0.165761 0.238991
v 0.405556 -0.086731 0.273162
v 0.135114 -0.051872 0.264403
v 0.408552 -0.134763 0.251138
v 0.222633 -0.040421 0.312902
v 0.331376 -0.175899 0.249127
v 0.341579 0.000949 0.311575
v 0.317747 -0.046514 0.310840
v 0.415114 -0.039826 0.279043
v 0.365617 -0.128736 0.271583
v 0.460709 -0.381455 0.000000
v 0.110991 0.000638 0.258165
v 0.091381 -0.041857 0.240319
v 0.567143 -0.194467 0.000000
v 0.281819 -0.180224 0.242608
v 0.530089 -0.179067 0.105081
f 45 34 19
f 49 51 60
f 37 79 31
f 15 65 56
f 18 52 22
f 9 49 16
f 23 20 42
f 48 12 62
f 10 6 28
f 53 59 71
f 22 11 19
f 7 80 41
f 73 24 64
f 46 44 67
f 33 62 40
f 41 22 28
f 11 52 64
f 28 34 10
f 14 29 11
f 8 20 23
f 37 31 53
f 46 59 21
f 18 51 52
f 45 19 29
f 70 26 76
f 23 16 49
f 2 35 74
f 42 35 27
f 63 21 31
f 30 52 51
f 13 8 60
f 25 50 55
f 27 62 16
f 27 35 36
f 1 10 34
f 41 80 18
f 40 47 33
f 53 71 24
f 21 54 46
f 44 57 17
f 36 48 27
f 16 33 9
f 1 34 45
f 34 28 19
f 23 42 16
f 2 36 35
f 47 55 68
f 37 24 73
f 17 67 44
f 39 56 54
f 58 9 47
f 25 40 12
f 41 6 7
f 51 18 80
f 42 74 35
f 14 11 72
f 44 56 65
f 44 65 57
f 43 64 24
f 73 66 58
f 53 21 59
f 46 54 56
f 33 47 9
f 55 47 40
f 33 16 62
f 9 30 49
f 49 60 23
f 29 19 11
f 16 42 27
f 6 41 28
f 14 72 32
f 51 49 30
f 22 52 11
f 30 58 66
f 37 53 24
f 38 5 59
f 39 54 3
f 54 21 63
f 55 79 68
f 56 44 46
f 15 56 61
f 9 58 30
f 68 37 73
f 59 67 38
f 5 69 71
f 13 60 80
f 23 60 8
f 39 61 56
f 40 62 12
f 48 62 27
f 54 63 3
f 53 31 21
f 64 43 72
f 64 52 66
f 32 43 69
f 19 28 22
f 22 41 18
f 57 65 75
f 30 66 52
f 66 73 64
f 67 17 38
f 46 67 59
f 3 63 50
f 68 79 37
f 47 68 58
f 71 69 43
f 70 76 77
f 24 71 43
f 64 72 11
f 32 72 43
f 68 73 58
f 42 20 74
f 75 65 76
f 75 76 26
f 15 76 65
f 4 26 70
f 71 59 5
f 15 77 76
f 78 80 7
f 31 79 63
f 55 40 25
f 63 79 50
f 13 80 78
f 51 80 60
f 79 55 50
f 94 108 117
f 130 121 120
f 105 146 110
f 126 134 15
f 97 122 93
f 91 120 86
f 114 95 98
f 131 12 48
f 102 83 87
f 139 129 123
f 94 88 97
f 113 147 84
f 133 99 141
f 136 116 118
f 112 131 107
f 102 97 113
f 133 122 88
f 87 108 102
f 88 103 90
f 98 95 85
f 123 105 110
f 96 129 118
f 122 121 93
f 103 94 117
f 144 100 70
f 120 91 98
f 142 109 2
f 101 109 114
f 105 96 132
f 121 122 104
f 130 85 89
f 125 50 25
f 91 131 101
f 36 109 101
f 108 87 81
f 93 147 113
f 107 119 112
f 99 139 123
f 118 124 96
f 92 127 116
f 101 48 36
f 86 107 91
f 117 108 81
f 94 102 108
f 91 114 98
f 109 36 2
f 137 125 119
f 141 99 110
f 116 136 92
f 124 126 39
f 119 86 128
f 12 112 25
f 84 83 113
f 147 93 121
f 109 142 114
f 140 88 90
f 134 126 116
f 127 134 116
f 99 133 115
f 128 135 141
f 129 96 123
f 126 124 118
f 86 119 107
f 112 119 125
f 131 91 107
f 120 104 86
f 98 130 120
f 88 94 103
f 101 114 91
f 102 113 83
f 106 140 90
f 104 120 121
f 88 122 97
f 135 128 104
f 99 123 110
f 129 82 111
f 3 124 39
f 132 96 124
f 137 146 125
f 118 116 126
f 61 126 15
f 104 128 86
f 141 110 137
f 111 136 129
f 139 138 82
f 147 130 89
f 85 130 98
f 126 61 39
f 12 131 112
f 101 131 48
f 3 132 124
f 96 105 123
f 140 115 133
f 135 122 133
f 138 115 106
f 97 102 94
f 93 113 97
f 143 134 127
f 122 135 104
f 133 141 135
f 111 92 136
f 129 136 118
f 50 132 3
f 110 146 137
f 128 137 119
f 115 138 139
f 77 144 70
f 115 139 99
f 88 140 133
f 115 140 106
f 128 141 137
f 142 95 114
f 144 134 143
f 100 144 143
f 134 144 15
f 70 100 4
f 82 129 139
f 144 77 15
f 84 147 145
f 132 146 105
f 25 112 125
f 50 146 132
f 145 147 89
f 130 147 121
f 50 125 146
f 161 173 45
f 196 188 186
f 171 213 176
f 193 201 158
f 164 189 160
f 159 186 153
f 180 162 165
f 198 156 185
f 169 150 154
f 206 195 190
f 161 155 164
f 179 214 151
f 200 166 208
f 203 182 183
f 178 198 172
f 169 164 179
f 200 189 155
f 154 173 169
f 155 29 14
f 165 162 152
f 190 171 176
f 163 195 183
f 189 188 160
f 29 161 45
f 210 26 205
f 186 159 165
f 209 174 148
f 168 174 180
f 171 163 199
f 188 189 170
f 196 152 157
f 192 187 167
f 159 198 168
f 175 174 168
f 173 154 1
f 160 214 179
f 172 184 178
f 166 206 190
f 183 191 163
f 17 57 182
f 168 185 175
f 153 172 159
f 45 173 1
f 161 169 173
f 159 180 165
f 174 175 148
f 204 192 184
f 208 166 176
f 182 203 17
f 191 193 177
f 184 153 194
f 156 178 167
f 151 150 179
f 214 160 188
f 174 209 180
f 207 155 14
f 201 193 182
f 57 201 182
f 166 200 181
f 194 202 208
f 195 163 190
f 193 191 183
f 153 184 172
f 178 184 192
f 198 159 172
f 186 170 153
f 165 196 186
f 155 161 29
f 168 180 159
f 169 179 150
f 32 207 14
f 170 186 188
f 155 189 164
f 202 194 170
f 166 190 176
f 195 5 38
f 149 191 177
f 199 163 191
f 204 213 192
f 183 182 193
f 197 193 158
f 170 194 153
f 208 176 204
f 38 203 195
f 206 69 5
f 214 196 157
f 152 196 165
f 193 197 177
f 156 198 178
f 168 198 185
f 149 199 191
f 163 171 190
f 207 181 200
f 202 189 200
f 69 181 32
f 164 169 161
f 160 179 164
f 75 201 57
f 189 202 170
f 200 208 202
f 38 17 203
f 195 203 183
f 187 199 149
f 176 213 204
f 194 204 184
f 181 69 206
f 211 210 205
f 181 206 166
f 155 207 200
f 181 207 32
f 194 208 204
f 209 162 180
f 210 201 75
f 26 210 75
f 201 210 158
f 205 26 4
f 5 195 206
f 210 211 158
f 151 214 212
f 199 213 171
f 167 178 192
f 187 213 199
f 212 214 157
f 196 214 188
f 187 192 213
f 507 235 224
f 245 246 254
f 237 268 233
f 158 258 251
f 223 247 227
f 218 245 222
f 228 225 240
f 185 156 255
f 219 215 231
f 248 253 262
f 227 220 224
f 216 269 239
f 264 229 257
f 243 242 260
f 234 255 238
f 239 227 231
f 220 247 257
f 231 235 219
f 480 493 220
f 217 225 228
f 237 233 248
f 243 253 226
f 223 246 247
f 507 224 493
f 205 490 266
f 228 222 245
f 148 236 265
f 240 236 230
f 256 226 233
f 232 247 246
f 221 217 254
f 167 187 250
f 230 255 222
f 230 236 175
f 471 219 235
f 239 269 223
f 238 244 234
f 248 262 229
f 226 249 243
f 242 517 482
f 175 185 230
f 222 234 218
f 471 235 507
f 235 231 224
f 228 240 222
f 148 175 236
f 244 250 261
f 237 229 264
f 482 260 242
f 177 251 249
f 252 218 244
f 167 238 156
f 239 215 216
f 246 223 269
f 240 265 236
f 480 220 263
f 242 251 258
f 242 258 517
f 241 257 229
f 264 259 252
f 248 226 253
f 243 249 251
f 234 244 218
f 250 244 238
f 234 222 255
f 218 232 245
f 245 254 228
f 493 224 220
f 222 240 230
f 215 239 231
f 480 263 496
f 246 245 232
f 227 247 220
f 232 252 259
f 237 248 229
f 501 472 253
f 177 249 149
f 249 226 256
f 250 268 261
f 251 242 243
f 158 251 197
f 218 252 232
f 261 237 264
f 253 260 501
f 472 528 262
f 221 254 269
f 228 254 217
f 177 197 251
f 238 255 156
f 185 255 230
f 249 256 149
f 248 233 226
f 257 241 263
f 257 247 259
f 496 241 528
f 224 231 227
f 227 239 223
f 517 258 533
f 232 259 247
f 259 264 257
f 260 482 501
f 243 260 253
f 149 256 187
f 261 268 237
f 244 261 252
f 262 528 241
f 205 266 211
f 229 262 241
f 257 263 220
f 496 263 241
f 261 264 252
f 240 225 265
f 533 258 266
f 533 266 490
f 158 266 258
f 4 490 205
f 262 253 472
f 158 211 266
f 267 269 216
f 233 268 256
f 250 238 167
f 256 268 187
f 221 269 267
f 246 269 254
f 268 250 187
f 283 295 435
f 318 310 308
f 293 335 298
f 315 323 280
f 286 311 282
f 281 308 275
f 302 284 287
f 320 278 307
f 291 272 276
f 328 317 312
f 283 277 286
f 301 336 273
f 322 288 330
f 325 304 305
f 300 320 294
f 291 286 301
f 322 311 277
f 276 295 291
f 277 419 404
f 287 284 274
f 312 293 298
f 285 317 305
f 311 310 282
f 419 283 435
f 332 416 327
f 308 281 287
f 331 296 270
f 290 296 302
f 293 285 321
f 310 311 292
f 318 274 279
f 314 309 289
f 281 320 290
f 297 296 290
f 295 276 392
f 282 336 301
f 294 306 300
f 288 328 312
f 305 313 285
f 407 447 304
f 290 307 297
f 275 294 281
f 435 295 392
f 283 291 295
f 281 302 287
f 296 297 270
f 326 314 306
f 330 288 298
f 304 325 407
f 313 315 299
f 306 275 316
f 278 300 289
f 273 272 301
f 336 282 310
f 296 331 302
f 329 277 404
f 323 315 304
f 447 323 304
f 288 322 303
f 316 324 330
f 317 285 312
f 315 313 305
f 275 306 294
f 300 306 314
f 320 281 294
f 308 292 275
f 287 318 308
f 277 283 419
f 290 302 281
f 291 301 272
f 422 329 404
f 292 308 310
f 277 311 286
f 324 316 292
f 288 312 298
f 317 395 428
f 271 313 299
f 321 285 313
f 326 335 314
f 305 304 315
f 319 315 280
f 292 316 275
f 330 298 326
f 428 325 317
f 328 459 395
f 336 318 279
f 274 318 287
f 315 319 299
f 278 320 300
f 290 320 307
f 271 321 313
f 285 293 312
f 329 303 322
f 324 311 322
f 459 303 422
f 286 291 283
f 282 301 286
f 465 323 447
f 311 324 292
f 322 330 324
f 428 407 325
f 317 325 305
f 309 321 271
f 298 335 326
f 316 326 306
f 303 459 328
f 333 332 327
f 303 328 288
f 277 329 322
f 303 329 422
f 316 330 326
f 331 284 302
f 332 323 465
f 416 332 465
f 323 332 280
f 327 416 4
f 395 317 328
f 332 333 280
f 273 336 334
f 321 335 293
f 289 300 314
f 309 335 321
f 334 336 279
f 318 336 310
f 309 314 335
f 117 357 346
f 367 368 376
f 359 390 355
f 280 380 373
f 345 369 349
f 340 367 344
f 350 347 362
f 307 278 377
f 341 337 353
f 370 375 384
f 349 342 346
f 338 391 361
f 386 351 379
f 365 364 382
f 356 377 360
f 361 349 353
f 342 369 379
f 353 357 341
f 90 103 342
f 339 347 350
f 359 355 370
f 365 375 348
f 345 368 369
f 117 346 103
f 327 100 388
f 350 344 367
f 270 358 387
f 362 358 352
f 378 348 355
f 354 369 368
f 343 339 376
f 289 309 372
f 352 377 344
f 352 358 297
f 81 341 357
f 361 391 345
f 360 366 356
f 370 384 351
f 348 371 365
f 364 127 92
f 297 307 352
f 344 356 340
f 81 357 117
f 357 353 346
f 350 362 344
f 270 297 358
f 366 372 383
f 359 351 386
f 92 382 364
f 299 373 371
f 374 340 366
f 289 360 278
f 361 337 338
f 368 345 391
f 362 387 358
f 90 342 385
f 364 373 380
f 364 380 127
f 363 379 351
f 386 381 374
f 370 348 375
f 365 371 373
f 356 366 340
f 372 366 360
f 356 344 377
f 340 354 367
f 367 376 350
f 103 346 342
f 344 362 352
f 337 361 353
f 90 385 106
f 368 367 354
f 349 369 342
f 354 374 381
f 359 370 351
f 111 82 375
f 299 371 271
f 371 348 378
f 372 390 383
f 373 364 365
f 280 373 319
f 340 374 354
f 383 359 386
f 375 382 111
f 82 138 384
f 343 376 391
f 350 376 339
f 299 319 373
f 360 377 278
f 307 377 352
f 371 378 271
f 370 355 348
f 379 363 385
f 379 369 381
f 106 363 138
f 346 353 349
f 349 361 345
f 127 380 143
f 354 381 369
f 381 386 379
f 382 92 111
f 365 382 375
f 271 378 309
f 383 390 359
f 366 383 374
f 384 138 363
f 327 388 333
f 351 384 363
f 379 385 342
f 106 385 363
f 383 386 374
f 362 347 387
f 143 380 388
f 143 388 100
f 280 388 380
f 4 100 327
f 384 375 82
f 280 333 388
f 389 391 338
f 355 390 378
f 372 360 289
f 378 390 309
f 343 391 389
f 368 391 376
f 390 372 309
f 435 424 409
f 439 441 450
f 427 469 421
f 405 455 446
f 408 442 412
f 399 439 406
f 413 410 432
f 438 402 452
f 400 396 418
f 443 449 461
f 412 401 409
f 397 470 431
f 463 414 454
f 436 434 457
f 423 452 430
f 431 412 418
f 401 442 454
f 418 424 400
f 404 419 401
f 398 410 413
f 427 421 443
f 436 449 411
f 408 441 442
f 435 409 419
f 460 416 466
f 413 406 439
f 393 425 464
f 432 425 417
f 453 411 421
f 420 442 441
f 403 398 450
f 415 440 445
f 417 452 406
f 417 425 426
f 392 400 424
f 431 470 408
f 430 437 423
f 443 461 414
f 411 444 436
f 434 447 407
f 426 438 417
f 406 423 399
f 392 424 435
f 424 418 409
f 413 432 406
f 393 426 425
f 437 445 458
f 427 414 463
f 407 457 434
f 429 446 444
f 448 399 437
f 415 430 402
f 431 396 397
f 441 408 470
f 432 464 425
f 404 401 462
f 434 446 455
f 434 455 447
f 433 454 414
f 463 456 448
f 443 411 449
f 436 444 446
f 423 437 399
f 445 437 430
f 423 406 452
f 399 420 439
f 439 450 413
f 419 409 401
f 406 432 417
f 396 431 418
f 404 462 422
f 441 439 420
f 412 442 401
f 420 448 456
f 427 443 414
f 428 395 449
f 429 444 394
f 444 411 453
f 445 469 458
f 446 434 436
f 405 446 451
f 399 448 420
f 458 427 463
f 449 457 428
f 395 459 461
f 403 450 470
f 413 450 398
f 429 451 446
f 430 452 402
f 438 452 417
f 444 453 394
f 443 421 411
f 454 433 462
f 454 442 456
f 422 433 459
f 409 418 412
f 412 431 408
f 447 455 465
f 420 456 442
f 456 463 454
f 457 407 428
f 436 457 449
f 394 453 440
f 458 469 427
f 437 458 448
f 461 459 433
f 460 466 467
f 414 461 433
f 454 462 401
f 422 462 433
f 458 463 448
f 432 410 464
f 465 455 466
f 465 466 416
f 405 466 455
f 4 416 460
f 461 449 395
f 405 467 466
f 468 470 397
f 421 469 453
f 445 430 415
f 453 469 440
f 403 470 468
f 441 470 450
f 469 445 440
f 484 498 507
f 520 511 510
f 495 536 500
f 516 524 405
f 487 512 483
f 481 510 476
f 504 485 488
f 521 402 438
f 492 473 477
f 529 519 513
f 484 478 487
f 503 537 474
f 523 489 531
f 526 506 508
f 502 521 497
f 492 487 503
f 523 512 478
f 477 498 492
f 478 493 480
f 488 485 475
f 513 495 500
f 486 519 508
f 512 511 483
f 493 484 507
f 534 490 460
f 510 481 488
f 532 499 393
f 491 499 504
f 495 486 522
f 511 512 494
f 520 475 479
f 515 440 415
f 481 521 491
f 426 499 491
f 498 477 471
f 483 537 503
f 497 509 502
f 489 529 513
f 508 514 486
f 482 517 506
f 491 438 426
f 476 497 481
f 507 498 471
f 484 492 498
f 481 504 488
f 499 426 393
f 527 515 509
f 531 489 500
f 506 526 482
f 514 516 429
f 509 476 518
f 402 502 415
f 474 473 503
f 537 483 511
f 499 532 504
f 530 478 480
f 524 516 506
f 517 524 506
f 489 523 505
f 518 525 531
f 519 486 513
f 516 514 508
f 476 509 497
f 502 509 515
f 521 481 497
f 510 494 476
f 488 520 510
f 478 484 493
f 491 504 481
f 492 503 473
f 496 530 480
f 494 510 511
f 478 512 487
f 525 518 494
f 489 513 500
f 519 472 501
f 394 514 429
f 522 486 514
f 527 536 515
f 508 506 516
f 451 516 405
f 494 518 476
f 531 500 527
f 501 526 519
f 529 528 472
f 537 520 479
f 475 520 488
f 516 451 429
f 402 521 502
f 491 521 438
f 394 522 514
f 486 495 513
f 530 505 523
f 525 512 523
f 528 505 496
f 487 492 484
f 483 503 487
f 533 524 517
f 512 525 494
f 523 531 525
f 501 482 526
f 519 526 508
f 440 522 394
f 500 536 527
f 518 527 509
f 505 528 529
f 467 534 460
f 505 529 489
f 478 530 523
f 505 530 496
f 518 531 527
f 532 485 504
f 534 524 533
f 490 534 533
f 524 534 405
f 460 490 4
f 472 519 529
f 534 467 405
f 474 537 535
f 522 536 495
f 415 502 515
f 440 536 522
f 535 537 479
f 520 537 511
f 440 515 536
