# 4part FEM knit+cable best fit (4part_s_pw_ring90)
# interior RMSE  : 3.424 mm
# max deviation  : 14.258 mm
# crown          : 0.32038 m (target 0.32177 m)
# max disp/rest  : 14.258 mm (floor 5.0 mm)
# regions        : 4 (1 D4 slots), 4 parameters
v 0.000616 0.600859 0.000000
v -0.423648 0.425123 0.000000
v -0.187261 0.189218 0.180607
v 0.001020 0.000627 0.211287
v 0.001249 0.294846 0.320378
v -0.111519 0.589084 0.000000
v -0.154511 0.578763 0.000000
v -0.288752 0.525061 0.000000
v -0.219891 0.403144 0.202703
v -0.051844 0.596730 0.000000
v -0.056922 0.464267 0.239831
v -0.309667 0.311566 0.106831
v -0.237731 0.549565 0.000000
v 0.001253 0.440695 0.269636
v -0.096606 0.098318 0.204830
v -0.275212 0.418491 0.146401
v 0.002150 0.201569 0.317030
v -0.142578 0.506180 0.162714
v -0.044762 0.514539 0.182915
v -0.329212 0.500267 0.000000
v -0.110892 0.247641 0.287073
v -0.092360 0.499955 0.199689
v -0.277211 0.470966 0.093262
v -0.086673 0.347482 0.292261
v -0.269772 0.271817 0.136203
v 0.001319 0.055123 0.230661
v -0.328654 0.401345 0.099603
v -0.078649 0.546242 0.112501
v 0.001095 0.487541 0.221979
v -0.176007 0.430990 0.218830
v -0.137774 0.277026 0.286093
v 0.001036 0.391193 0.297788
v -0.252134 0.374790 0.183621
v -0.032125 0.560671 0.090854
v -0.368586 0.421155 0.043581
v -0.388010 0.389573 0.038209
v -0.134271 0.317709 0.280286
v 0.001539 0.248465 0.319291
v -0.154079 0.155971 0.192009
v -0.258814 0.330227 0.179337
v -0.124887 0.538489 0.108030
v -0.326457 0.448546 0.066208
v -0.044112 0.368975 0.303607
v -0.047186 0.180442 0.289107
v 0.000583 0.544934 0.127055
v -0.080790 0.213029 0.289455
v -0.213578 0.350949 0.218565
v -0.348944 0.350702 0.073874
v -0.227012 0.449908 0.169532
v -0.227010 0.229317 0.162376
v -0.180163 0.477983 0.176023
v -0.120498 0.452910 0.239175
v -0.091789 0.296040 0.298134
v -0.129940 0.202878 0.259126
v -0.225033 0.296991 0.203824
v -0.094610 0.161967 0.258348
v 0.002213 0.157399 0.288420
v -0.178161 0.383677 0.240095
v -0.054670 0.264423 0.310058
v -0.229490 0.496361 0.104816
v -0.125300 0.127162 0.199299
v -0.293254 0.367389 0.144103
v -0.163052 0.236910 0.247499
v -0.086247 0.404212 0.273020
v -0.049015 0.135808 0.273207
v -0.139233 0.411929 0.252372
v -0.038205 0.222186 0.306688
v -0.175270 0.331975 0.256235
v 0.001013 0.341255 0.313811
v -0.033373 0.034987 0.210793
v -0.048808 0.318418 0.311381
v -0.039619 0.414947 0.280558
v -0.128334 0.364971 0.282587
v -0.381698 0.460952 0.000000
v 0.001403 0.111447 0.274937
v -0.040775 0.090510 0.245518
v -0.066979 0.068569 0.208325
v -0.194710 0.567385 0.000000
v -0.185829 0.279894 0.238803
v -0.177820 0.524436 0.100854
v -0.599383 0.000859 0.000000
v -0.293039 0.000342 0.319730
v -0.587609 0.112995 0.000000
v -0.577288 0.155985 0.000000
v -0.523586 0.290227 0.000000
v -0.401037 0.220570 0.201714
v -0.595255 0.053319 0.000000
v -0.458300 0.057958 0.243941
v -0.548091 0.239205 0.000000
v -0.441841 0.000528 0.262521
v -0.416483 0.276142 0.145876
v -0.199371 0.000693 0.304123
v -0.497277 0.140907 0.170373
v -0.516318 0.046762 0.171552
v -0.498792 0.330686 0.000000
v -0.245045 0.114181 0.278533
v -0.502213 0.094582 0.179926
v -0.470965 0.280335 0.087903
v -0.345383 0.087790 0.296073
v -0.053566 0.000604 0.230233
v -0.399438 0.330345 0.099567
v -0.543584 0.080080 0.111907
v -0.489300 0.000697 0.213890
v -0.429936 0.177376 0.212000
v -0.276675 0.140984 0.303749
v -0.388729 0.000689 0.295873
v -0.372599 0.252647 0.182389
v -0.559575 0.033554 0.087952
v -0.419563 0.370151 0.043833
v -0.317556 0.136091 0.263359
v -0.244865 -0.000218 0.315070
v -0.327740 0.261494 0.175020
v -0.535908 0.126097 0.107354
v -0.442167 0.322552 0.076807
v -0.367086 0.046164 0.302224
v -0.177525 0.049998 0.289761
v -0.542784 0.000811 0.126838
v -0.211082 0.082475 0.288152
v -0.349280 0.215475 0.218735
v -0.448802 0.228888 0.165372
v -0.474942 0.180762 0.175008
v -0.457209 0.123811 0.219406
v -0.294373 0.093937 0.299029
v -0.200302 0.133146 0.252701
v -0.296680 0.221658 0.210163
v -0.160349 0.096340 0.257703
v -0.157011 0.000446 0.285332
v -0.381114 0.178108 0.236714
v -0.262133 0.056570 0.310442
v -0.493892 0.230652 0.104297
v -0.365435 0.294425 0.143724
v -0.234453 0.166674 0.241049
v -0.403252 0.087847 0.274349
v -0.132825 0.052258 0.264807
v -0.406855 0.135855 0.252825
v -0.218643 0.041918 0.318879
v -0.330417 0.177362 0.251170
v -0.339435 0.000597 0.313483
v -0.314840 0.047490 0.314901
v -0.411945 0.041003 0.285790
v -0.364672 0.130083 0.274565
v -0.459477 0.383172 0.000000
v -0.110442 0.000337 0.260020
v -0.088361 0.042970 0.239811
v -0.565910 0.196184 0.000000
v -0.280434 0.179236 0.248613
v -0.521357 0.178756 0.101884
v 0.424880 0.425123 0.000000
v 0.189037 0.189423 0.180472
v 0.112752 0.589084 0.000000
v 0.155743 0.578763 0.000000
v 0.289984 0.525061 0.000000
v 0.223643 0.404761 0.203464
v 0.053076 0.596730 0.000000
v 0.058741 0.460398 0.244116
v 0.311597 0.311731 0.106296
v 0.238963 0.549565 0.000000
v 0.098654 0.098167 0.204691
v 0.281723 0.421002 0.140655
v 0.141297 0.499141 0.170870
v 0.046491 0.513883 0.182163
v 0.330445 0.500267 0.000000
v 0.112525 0.248917 0.285852
v 0.094508 0.501273 0.188004
v 0.277418 0.469282 0.103347
v 0.088317 0.347544 0.296796
v 0.271686 0.271897 0.135750
v 0.330460 0.401596 0.096622
v 0.079383 0.544249 0.118481
v 0.177107 0.429834 0.217976
v 0.142568 0.276190 0.269576
v 0.255903 0.375830 0.185040
v 0.033149 0.561014 0.090828
v 0.373013 0.422957 0.045547
v 0.389329 0.389196 0.039496
v 0.135479 0.318013 0.279473
v 0.155941 0.156226 0.192042
v 0.259160 0.330965 0.182488
v 0.127790 0.543903 0.097405
v 0.320653 0.443248 0.087587
v 0.046382 0.368636 0.304494
v 0.052375 0.177632 0.293822
v 0.082717 0.214129 0.311894
v 0.220773 0.352861 0.200585
v 0.350961 0.350620 0.073516
v 0.229718 0.450860 0.165973
v 0.228881 0.229394 0.161973
v 0.181426 0.477087 0.175658
v 0.124181 0.457754 0.223005
v 0.094602 0.297111 0.300524
v 0.133468 0.202572 0.254751
v 0.221590 0.299188 0.209988
v 0.103562 0.156145 0.250477
v 0.182720 0.383521 0.236598
v 0.058587 0.265552 0.315284
v 0.231786 0.497597 0.106147
v 0.127313 0.127143 0.199197
v 0.294706 0.367965 0.142698
v 0.167485 0.236132 0.241845
v 0.088713 0.405217 0.274544
v 0.054164 0.132814 0.266970
v 0.136301 0.407579 0.251792
v 0.041971 0.222284 0.314832
v 0.178469 0.331255 0.261075
v 0.035561 0.034864 0.210633
v 0.048671 0.317754 0.314464
v 0.041609 0.413869 0.284996
v 0.130422 0.365505 0.273931
v 0.382930 0.460952 0.000000
v 0.044563 0.088624 0.241275
v 0.069102 0.068423 0.208194
v 0.195941 0.567385 0.000000
v 0.181478 0.282008 0.259297
v 0.179135 0.523093 0.106831
v 0.588842 0.112995 0.000000
v 0.578520 0.155985 0.000000
v 0.524819 0.290227 0.000000
v 0.401604 0.220280 0.200973
v 0.596487 0.053319 0.000000
v 0.460823 0.058517 0.245118
v 0.549323 0.239205 0.000000
v 0.418211 0.277170 0.146775
v 0.497188 0.140600 0.177115
v 0.513878 0.046552 0.182624
v 0.500025 0.330686 0.000000
v 0.247139 0.113947 0.287435
v 0.501195 0.094365 0.188871
v 0.470283 0.278272 0.093530
v 0.347842 0.088953 0.298268
v 0.402057 0.333292 0.088036
v 0.544536 0.079998 0.114979
v 0.430581 0.177824 0.219325
v 0.277714 0.139371 0.285001
v 0.373795 0.253498 0.182408
v 0.560247 0.033583 0.090832
v 0.423405 0.373747 0.046331
v 0.319319 0.137468 0.278067
v 0.328419 0.265784 0.170843
v 0.537962 0.126284 0.107922
v 0.443051 0.321038 0.077343
v 0.368379 0.046098 0.300785
v 0.181081 0.049389 0.288274
v 0.213167 0.083192 0.289084
v 0.350341 0.218154 0.220437
v 0.450146 0.229290 0.165731
v 0.476784 0.181433 0.176806
v 0.453678 0.122603 0.229094
v 0.296360 0.093812 0.309978
v 0.202164 0.133595 0.252983
v 0.297902 0.222943 0.210735
v 0.162159 0.096866 0.256189
v 0.380770 0.178297 0.261735
v 0.264395 0.057066 0.309582
v 0.495672 0.230770 0.104945
v 0.367343 0.295050 0.143065
v 0.236391 0.166780 0.240785
v 0.404461 0.087810 0.285980
v 0.135447 0.052004 0.264468
v 0.409797 0.138359 0.252284
v 0.221272 0.041842 0.303282
v 0.331616 0.178707 0.261673
v 0.317087 0.048268 0.311191
v 0.414803 0.041271 0.280795
v 0.367546 0.133300 0.269068
v 0.460709 0.383172 0.000000
v 0.090705 0.042755 0.239654
v 0.567143 0.196184 0.000000
v 0.281248 0.181976 0.244520
v 0.523205 0.178935 0.102478
v -0.423648 -0.423406 0.000000
v -0.187207 -0.187694 0.180307
v -0.111519 -0.587366 0.000000
v -0.154511 -0.577046 0.000000
v -0.288752 -0.523343 0.000000
v -0.219777 -0.401305 0.202425
v -0.051844 -0.595012 0.000000
v -0.057612 -0.462081 0.239152
v -0.309881 -0.310044 0.106321
v -0.237731 -0.547848 0.000000
v -0.096634 -0.096943 0.205048
v -0.275864 -0.417263 0.146990
v -0.139742 -0.497984 0.171008
v -0.044842 -0.512172 0.182428
v -0.329212 -0.498550 0.000000
v -0.112170 -0.247656 0.285311
v -0.092825 -0.500080 0.188845
v -0.277041 -0.469175 0.093678
v -0.086611 -0.345875 0.303910
v -0.269821 -0.270214 0.135483
v -0.333007 -0.400746 0.087409
v -0.079837 -0.553818 0.092567
v -0.175756 -0.429002 0.218511
v -0.139459 -0.276136 0.273134
v -0.252028 -0.373049 0.187121
v -0.031549 -0.559580 0.090661
v -0.372651 -0.422118 0.046385
v -0.387913 -0.387976 0.038659
v -0.134187 -0.316853 0.278784
v -0.154192 -0.154435 0.192029
v -0.259293 -0.328449 0.178973
v -0.125533 -0.537631 0.106245
v -0.319179 -0.441228 0.079371
v -0.045053 -0.367877 0.301297
v -0.047449 -0.180329 0.300397
v -0.083922 -0.211947 0.292406
v -0.216489 -0.349648 0.217971
v -0.348982 -0.349466 0.073534
v -0.227766 -0.449036 0.165754
v -0.227128 -0.227660 0.161631
v -0.179841 -0.475825 0.175743
v -0.121246 -0.453108 0.228991
v -0.093893 -0.295451 0.300656
v -0.132346 -0.200438 0.253700
v -0.220548 -0.297394 0.212640
v -0.092192 -0.162855 0.269013
v -0.174380 -0.379166 0.242903
v -0.056132 -0.264040 0.319037
v -0.229546 -0.494557 0.104948
v -0.125484 -0.125605 0.199427
v -0.292747 -0.365978 0.145267
v -0.174047 -0.230483 0.230522
v -0.087799 -0.405395 0.273879
v -0.050284 -0.132407 0.266230
v -0.135883 -0.408034 0.251379
v -0.042369 -0.219948 0.310615
v -0.176642 -0.330052 0.251588
v -0.033375 -0.033706 0.210778
v -0.047222 -0.316394 0.313483
v -0.041929 -0.420298 0.275194
v -0.128527 -0.364190 0.273030
v -0.381698 -0.459234 0.000000
v -0.041357 -0.088202 0.240461
v -0.066915 -0.067287 0.208451
v -0.194710 -0.565668 0.000000
v -0.181354 -0.280233 0.244915
v -0.178296 -0.523354 0.099713
v -0.587609 -0.111278 0.000000
v -0.577288 -0.154268 0.000000
v -0.523586 -0.288510 0.000000
v -0.400492 -0.219130 0.201788
v -0.595255 -0.051602 0.000000
v -0.463397 -0.057509 0.237056
v -0.548091 -0.237488 0.000000
v -0.415814 -0.275958 0.146801
v -0.497437 -0.139412 0.170883
v -0.512412 -0.045030 0.182868
v -0.498792 -0.328969 0.000000
v -0.247374 -0.111322 0.284525
v -0.499843 -0.092832 0.188801
v -0.466098 -0.274822 0.112689
v -0.345942 -0.086923 0.293267
v -0.399551 -0.329382 0.110332
v -0.544617 -0.078148 0.112532
v -0.428308 -0.175242 0.217986
v -0.275526 -0.139340 0.273206
v -0.372493 -0.252634 0.183895
v -0.556518 -0.031642 0.096101
v -0.419791 -0.369023 0.044497
v -0.316221 -0.134365 0.279740
v -0.328019 -0.258332 0.181228
v -0.537439 -0.124390 0.108484
v -0.443761 -0.323606 0.078918
v -0.366498 -0.044379 0.303451
v -0.174404 -0.052106 0.282690
v -0.212388 -0.082007 0.289357
v -0.348667 -0.214613 0.219241
v -0.448002 -0.227166 0.165001
v -0.478300 -0.181277 0.170259
v -0.452913 -0.121037 0.229055
v -0.295083 -0.092487 0.298520
v -0.200924 -0.131677 0.252463
v -0.296183 -0.221098 0.210422
v -0.158938 -0.097030 0.251484
v -0.378358 -0.173610 0.242141
v -0.263014 -0.055719 0.309844
v -0.497053 -0.230273 0.106997
v -0.365051 -0.296094 0.140179
v -0.234639 -0.165231 0.240437
v -0.403457 -0.086530 0.272998
v -0.130775 -0.053391 0.259421
v -0.407239 -0.135271 0.253570
v -0.220319 -0.040215 0.304012
v -0.329197 -0.175991 0.251008
v -0.315460 -0.046719 0.312443
v -0.413009 -0.039772 0.280270
v -0.363565 -0.128450 0.282668
v -0.459477 -0.381455 0.000000
v -0.087979 -0.042003 0.240376
v -0.565910 -0.194467 0.000000
v -0.279386 -0.180364 0.244114
v -0.520249 -0.176432 0.111688
v 0.000616 -0.599141 0.000000
v 0.424880 -0.423406 0.000000
v 0.189032 -0.187836 0.180084
v 0.000110 -0.293432 0.320080
v 0.112752 -0.587366 0.000000
v 0.155743 -0.577046 0.000000
v 0.289984 -0.523343 0.000000
v 0.220944 -0.400934 0.201958
v 0.053076 -0.595012 0.000000
v 0.058194 -0.457811 0.243145
v 0.311204 -0.310208 0.106327
v 0.238963 -0.547848 0.000000
v 0.000935 -0.440573 0.266121
v 0.098506 -0.097035 0.204774
v 0.276928 -0.416870 0.146542
v 0.000330 -0.200376 0.317984
v 0.141207 -0.497759 0.170217
v 0.046601 -0.515196 0.175324
v 0.330445 -0.498550 0.000000
v 0.112135 -0.247379 0.284464
v 0.095118 -0.505024 0.178382
v 0.279287 -0.469278 0.093664
v 0.090776 -0.348830 0.292463
v 0.271457 -0.270409 0.135576
v 0.001101 -0.053727 0.229967
v 0.330956 -0.399953 0.100145
v 0.079516 -0.545164 0.112207
v 0.000837 -0.485696 0.221779
v 0.176611 -0.428129 0.217563
v 0.139190 -0.276390 0.282583
v 0.000379 -0.389607 0.296819
v 0.253863 -0.373006 0.183417
v 0.033197 -0.559284 0.090860
v 0.369903 -0.419539 0.043955
v 0.389147 -0.387846 0.038859
v 0.134909 -0.316949 0.281516
v -0.000008 -0.246928 0.317923
v 0.155945 -0.154633 0.191699
v 0.260898 -0.328505 0.179200
v 0.127180 -0.542723 0.096110
v 0.323029 -0.442500 0.077374
v 0.045586 -0.367686 0.301876
v 0.049282 -0.179321 0.288698
v 0.000640 -0.543249 0.127006
v 0.083045 -0.211939 0.289045
v 0.215710 -0.348869 0.218377
v 0.350240 -0.349356 0.073536
v 0.229357 -0.448876 0.165704
v 0.228846 -0.227782 0.161657
v 0.181302 -0.475398 0.175456
v 0.121820 -0.451882 0.227419
v 0.093254 -0.295609 0.297936
v 0.132041 -0.201696 0.256365
v 0.228128 -0.294554 0.201966
v 0.096239 -0.161100 0.257683
v 0.001382 -0.152641 0.285996
v 0.176700 -0.379308 0.239993
v 0.055973 -0.263635 0.317053
v 0.231807 -0.494728 0.105262
v 0.127183 -0.125871 0.199116
v 0.295113 -0.365856 0.144079
v 0.166939 -0.234754 0.240826
v 0.088698 -0.404356 0.271158
v 0.052361 -0.133439 0.265050
v 0.136262 -0.406449 0.252204
v 0.041494 -0.220043 0.305897
v 0.177165 -0.329558 0.250341
v 0.000166 -0.339983 0.313772
v 0.035433 -0.033706 0.210761
v 0.047472 -0.316156 0.313682
v 0.041205 -0.413130 0.280295
v 0.130802 -0.364457 0.274201
v 0.382930 -0.459234 0.000000
v 0.001214 -0.108967 0.261910
v 0.043602 -0.088419 0.240338
v 0.068905 -0.067318 0.208317
v 0.195941 -0.565668 0.000000
v 0.181652 -0.279661 0.244271
v 0.178207 -0.518360 0.113396
v 0.600616 0.000859 0.000000
v 0.294379 0.001071 0.318953
v 0.588842 -0.111278 0.000000
v 0.578520 -0.154268 0.000000
v 0.524819 -0.288510 0.000000
v 0.402352 -0.219692 0.202677
v 0.596487 -0.051602 0.000000
v 0.459887 -0.056574 0.244025
v 0.549323 -0.237488 0.000000
v 0.444778 0.000837 0.261972
v 0.418091 -0.275266 0.146542
v 0.201026 0.000582 0.307478
v 0.499394 -0.139329 0.171169
v 0.516135 -0.044815 0.178461
v 0.500025 -0.328969 0.000000
v 0.248937 -0.111385 0.284577
v 0.500201 -0.092304 0.192218
v 0.471486 -0.277085 0.094553
v 0.346792 -0.086022 0.295560
v 0.055357 0.000685 0.230453
v 0.401083 -0.328139 0.095823
v 0.545334 -0.078287 0.114255
v 0.487663 0.000833 0.221825
v 0.429799 -0.175059 0.218030
v 0.277224 -0.139178 0.272856
v 0.390214 0.000855 0.295686
v 0.375707 -0.258662 0.176900
v 0.560344 -0.031822 0.090930
v 0.424984 -0.375292 0.035429
v 0.317874 -0.133716 0.278818
v 0.247102 0.001384 0.315016
v 0.330207 -0.258248 0.177976
v 0.538823 -0.124608 0.107573
v 0.443579 -0.318849 0.081448
v 0.368344 -0.044355 0.300776
v 0.181292 -0.047875 0.300886
v 0.544476 0.001000 0.127094
v 0.214200 -0.080774 0.302699
v 0.350521 -0.215044 0.219751
v 0.448816 -0.226151 0.171373
v 0.477320 -0.179356 0.175931
v 0.454275 -0.120860 0.229090
v 0.296436 -0.093191 0.297806
v 0.202308 -0.132489 0.252764
v 0.298213 -0.221053 0.210062
v 0.163605 -0.093886 0.263831
v 0.157972 0.000717 0.287442
v 0.380135 -0.173956 0.242831
v 0.264613 -0.055330 0.311820
v 0.494841 -0.228164 0.110679
v 0.367329 -0.293378 0.142531
v 0.236315 -0.165599 0.240486
v 0.404829 -0.086558 0.274557
v 0.134438 -0.051079 0.265487
v 0.408004 -0.134696 0.252883
v 0.221608 -0.040031 0.314134
v 0.330950 -0.176090 0.251228
v 0.340804 0.000923 0.312846
v 0.316914 -0.046278 0.312131
v 0.414264 -0.039637 0.280031
v 0.365178 -0.128358 0.273535
v 0.460709 -0.381455 0.000000
v 0.110217 0.000705 0.258954
v 0.090720 -0.041224 0.241178
v 0.567143 -0.194467 0.000000
v 0.281231 -0.180399 0.244428
v 0.524223 -0.177246 0.102974
f 45 34 19
f 49 51 60
f 37 79 31
f 15 65 56
f 18 52 22
f 9 49 16
f 23 20 42
f 48 12 62
f 10 6 28
f 53 59 71
f 22 11 19
f 7 80 41
f 73 24 64
f 46 44 67
f 33 62 40
f 41 22 28
f 11 52 64
f 28 34 10
f 14 29 11
f 8 20 23
f 37 31 53
f 46 59 21
f 18 51 52
f 45 19 29
f 70 26 76
f 23 16 49
f 2 35 74
f 42 35 27
f 63 21 31
f 30 52 51
f 13 8 60
f 25 50 55
f 27 62 16
f 27 35 36
f 1 10 34
f 41 80 18
f 40 47 33
f 53 71 24
f 21 54 46
f 44 57 17
f 36 48 27
f 16 33 9
f 1 34 45
f 34 28 19
f 23 42 16
f 2 36 35
f 47 55 68
f 37 24 73
f 17 67 44
f 39 56 54
f 58 9 47
f 25 40 12
f 41 6 7
f 51 18 80
f 42 74 35
f 14 11 72
f 44 56 65
f 44 65 57
f 43 64 24
f 73 66 58
f 53 21 59
f 46 54 56
f 33 47 9
f 55 47 40
f 33 16 62
f 9 30 49
f 49 60 23
f 29 19 11
f 16 42 27
f 6 41 28
f 14 72 32
f 51 49 30
f 22 52 11
f 30 58 66
f 37 53 24
f 38 5 59
f 39 54 3
f 54 21 63
f 55 79 68
f 56 44 46
f 15 56 61
f 9 58 30
f 68 37 73
f 59 67 38
f 5 69 71
f 13 60 80
f 23 60 8
f 39 61 56
f 40 62 12
f 48 62 27
f 54 63 3
f 53 31 21
f 64 43 72
f 64 52 66
f 32 43 69
f 19 28 22
f 22 41 18
f 57 65 75
f 30 66 52
f 66 73 64
f 67 17 38
f 46 67 59
f 3 63 50
f 68 79 37
f 47 68 58
f 71 69 43
f 70 76 77
f 24 71 43
f 64 72 11
f 32 72 43
f 68 73 58
f 42 20 74
f 75 65 76
f 75 76 26
f 15 76 65
f 4 26 70
f 71 59 5
f 15 77 76
f 78 80 7
f 31 79 63
f 55 40 25
f 63 79 50
f 13 80 78
f 51 80 60
f 79 55 50
f 94 108 117
f 130 121 120
f 105 146 110
f 126 134 15
f 97 122 93
f 91 120 86
f 114 95 98
f 131 12 48
f 102 83 87
f 139 129 123
f 94 88 97
f 113 147 84
f 133 99 141
f 136 116 118
f 112 131 107
f 102 97 113
f 133 122 88
f 87 108 102
f 88 103 90
f 98 95 85
f 123 105 110
f 96 129 118
f 122 121 93
f 103 94 117
f 144 100 70
f 120 91 98
f 142 109 2
f 101 109 114
f 105 96 132
f 121 122 104
f 130 85 89
f 125 50 25
f 91 131 101
f 36 109 101
f 108 87 81
f 93 147 113
f 107 119 112
f 99 139 123
f 118 124 96
f 92 127 116
f 101 48 36
f 86 107 91
f 117 108 81
f 94 102 108
f 91 114 98
f 109 36 2
f 137 125 119
f 141 99 110
f 116 136 92
f 124 126 39
f 119 86 128
f 12 112 25
f 84 83 113
f 147 93 121
f 109 142 114
f 140 88 90
f 134 126 116
f 127 134 116
f 99 133 115
f 128 135 141
f 129 96 123
f 126 124 118
f 86 119 107
f 112 119 125
f 131 91 107
f 120 104 86
f 98 130 120
f 88 94 103
f 101 114 91
f 102 113 83
f 106 140 90
f 104 120 121
f 88 122 97
f 135 128 104
f 99 123 110
f 129 82 111
f 3 124 39
f 132 96 124
f 137 146 125
f 118 116 126
f 61 126 15
f 104 128 86
f 141 110 137
f 111 136 129
f 139 138 82
f 147 130 89
f 85 130 98
f 126 61 39
f 12 131 112
f 101 131 48
f 3 132 124
f 96 105 123
f 140 115 133
f 135 122 133
f 138 115 106
f 97 102 94
f 93 113 97
f 143 134 127
f 122 135 104
f 133 141 135
f 111 92 136
f 129 136 118
f 50 132 3
f 110 146 137
f 128 137 119
f 115 138 139
f 77 144 70
f 115 139 99
f 88 140 133
f 115 140 106
f 128 141 137
f 142 95 114
f 144 134 143
f 100 144 143
f 134 144 15
f 70 100 4
f 82 129 139
f 144 77 15
f 84 147 145
f 132 146 105
f 25 112 125
f 50 146 132
f 145 147 89
f 130 147 121
f 50 125 146
f 161 173 45
f 196 188 186
f 171 213 176
f 193 201 158
f 164 189 160
f 159 186 153
f 180 162 165
f 198 156 185
f 169 150 154
f 206 195 190
f 161 155 164
f 179 214 151
f 200 166 208
f 203 182 183
f 178 198 172
f 169 164 179
f 200 189 155
f 154 173 169
f 155 29 14
f 165 162 152
f 190 171 176
f 163 195 183
f 189 188 160
f 29 161 45
f 210 26 205
f 186 159 165
f 209 174 148
f 168 174 180
f 171 163 199
f 188 189 170
f 196 152 157
f 192 187 167
f 159 198 168
f 175 174 168
f 173 154 1
f 160 214 179
f 172 184 178
f 166 206 190
f 183 191 163
f 17 57 182
f 168 185 175
f 153 172 159
f 45 173 1
f 161 169 173
f 159 180 165
f 174 175 148
f 204 192 184
f 208 166 176
f 182 203 17
f 191 193 177
f 184 153 194
f 156 178 167
f 151 150 179
f 214 160 188
f 174 209 180
f 207 155 14
f 201 193 182
f 57 201 182
f 166 200 181
f 194 202 208
f 195 163 190
f 193 191 183
f 153 184 172
f 178 184 192
f 198 159 172
f 186 170 153
f 165 196 186
f 155 161 29
f 168 180 159
f 169 179 150
f 32 207 14
f 170 186 188
f 155 189 164
f 202 194 170
f 166 190 176
f 195 5 38
f 149 191 177
f 199 163 191
f 204 213 192
f 183 182 193
f 197 193 158
f 170 194 153
f 208 176 204
f 38 203 195
f 206 69 5
f 214 196 157
f 152 196 165
f 193 197 177
f 156 198 178
f 168 198 185
f 149 199 191
f 163 171 190
f 207 181 200
f 202 189 200
f 69 181 32
f 164 169 161
f 160 179 164
f 75 201 57
f 189 202 170
f 200 208 202
f 38 17 203
f 195 203 183
f 187 199 149
f 176 213 204
f 194 204 184
f 181 69 206
f 211 210 205
f 181 206 166
f 155 207 200
f 181 207 32
f 194 208 204
f 209 162 180
f 210 201 75
f 26 210 75
f 201 210 158
f 205 26 4
f 5 195 206
f 210 211 158
f 151 214 212
f 199 213 171
f 167 178 192
f 187 213 199
f 212 214 157
f 196 214 188
f 187 192 213
f 507 235 224
f 245 246 254
f 237 268 233
f 158 258 251
f 223 247 227
f 218 245 222
f 228 225 240
f 185 156 255
f 219 215 231
f 248 253 262
f 227 220 224
f 216 269 239
f 264 229 257
f 243 242 260
f 234 255 238
f 239 227 231
f 220 247 257
f 231 235 219
f 480 493 220
f 217 225 228
f 237 233 248
f 243 253 226
f 223 246 247
f 507 224 493
f 205 490 266
f 228 222 245
f 148 236 265
f 240 236 230
f 256 226 233
f 232 247 246
f 221 217 254
f 167 187 250
f 230 255 222
f 230 236 175
f 471 219 235
f 239 269 223
f 238 244 234
f 248 262 229
f 226 249 243
f 242 517 482
f 175 185 230
f 222 234 218
f 471 235 507
f 235 231 224
f 228 240 222
f 148 175 236
f 244 250 261
f 237 229 264
f 482 260 242
f 177 251 249
f 252 218 244
f 167 238 156
f 239 215 216
f 246 223 269
f 240 265 236
f 480 220 263
f 242 251 258
f 242 258 517
f 241 257 229
f 264 259 252
f 248 226 253
f 243 249 251
f 234 244 218
f 250 244 238
f 234 222 255
f 218 232 245
f 245 254 228
f 493 224 220
f 222 240 230
f 215 239 231
f 480 263 496
f 246 245 232
f 227 247 220
f 232 252 259
f 237 248 229
f 501 472 253
f 177 249 149
f 249 226 256
f 250 268 261
f 251 242 243
f 158 251 197
f 218 252 232
f 261 237 264
f 253 260 501
f 472 528 262
f 221 254 269
f 228 254 217
f 177 197 251
f 238 255 156
f 185 255 230
f 249 256 149
f 248 233 226
f 257 241 263
f 257 247 259
f 496 241 528
f 224 231 227
f 227 239 223
f 517 258 533
f 232 259 247
f 259 264 257
f 260 482 501
f 243 260 253
f 149 256 187
f 261 268 237
f 244 261 252
f 262 528 241
f 205 266 211
f 229 262 241
f 257 263 220
f 496 263 241
f 261 264 252
f 240 225 265
f 533 258 266
f 533 266 490
f 158 266 258
f 4 490 205
f 262 253 472
f 158 211 266
f 267 269 216
f 233 268 256
f 250 238 167
f 256 268 187
f 221 269 267
f 246 269 254
f 268 250 187
f 283 295 435
f 318 310 308
f 293 335 298
f 315 323 280
f 286 311 282
f 281 308 275
f 302 284 287
f 320 278 307
f 291 272 276
f 328 317 312
f 283 277 286
f 301 336 273
f 322 288 330
f 325 304 305
f 300 320 294
f 291 286 301
f 322 311 277
f 276 295 291
f 277 419 404
f 287 284 274
f 312 293 298
f 285 317 305
f 311 310 282
f 419 283 435
f 332 416 327
f 308 281 287
f 331 296 270
f 290 296 302
f 293 285 321
f 310 311 292
f 318 274 279
f 314 309 289
f 281 320 290
f 297 296 290
f 295 276 392
f 282 336 301
f 294 306 300
f 288 328 312
f 305 313 285
f 407 447 304
f 290 307 297
f 275 294 281
f 435 295 392
f 283 291 295
f 281 302 287
f 296 297 270
f 326 314 306
f 330 288 298
f 304 325 407
f 313 315 299
f 306 275 316
f 278 300 289
f 273 272 301
f 336 282 310
f 296 331 302
f 329 277 404
f 323 315 304
f 447 323 304
f 288 322 303
f 316 324 330
f 317 285 312
f 315 313 305
f 275 306 294
f 300 306 314
f 320 281 294
f 308 292 275
f 287 318 308
f 277 283 419
f 290 302 281
f 291 301 272
f 422 329 404
f 292 308 310
f 277 311 286
f 324 316 292
f 288 312 298
f 317 395 428
f 271 313 299
f 321 285 313
f 326 335 314
f 305 304 315
f 319 315 280
f 292 316 275
f 330 298 326
f 428 325 317
f 328 459 395
f 336 318 279
f 274 318 287
f 315 319 299
f 278 320 300
f 290 320 307
f 271 321 313
f 285 293 312
f 329 303 322
f 324 311 322
f 459 303 422
f 286 291 283
f 282 301 286
f 465 323 447
f 311 324 292
f 322 330 324
f 428 407 325
f 317 325 305
f 309 321 271
f 298 335 326
f 316 326 306
f 303 459 328
f 333 332 327
f 303 328 288
f 277 329 322
f 303 329 422
f 316 330 326
f 331 284 302
f 332 323 465
f 416 332 465
f 323 332 280
f 327 416 4
f 395 317 328
f 332 333 280
f 273 336 334
f 321 335 293
f 289 300 314
f 309 335 321
f 334 336 279
f 318 336 310
f 309 314 335
f 117 357 346
f 367 368 376
f 359 390 355
f 280 380 373
f 345 369 349
f 340 367 344
f 350 347 362
f 307 278 377
f 341 337 353
f 370 375 384
f 349 342 346
f 338 391 361
f 386 351 379
f 365 364 382
f 356 377 360
f 361 349 353
f 342 369 379
f 353 357 341
f 90 103 342
f 339 347 350
f 359 355 370
f 365 375 348
f 345 368 369
f 117 346 103
f 327 100 388
f 350 344 367
f 270 358 387
f 362 358 352
f 378 348 355
f 354 369 368
f 343 339 376
f 289 309 372
f 352 377 344
f 352 358 297
f 81 341 357
f 361 391 345
f 360 366 356
f 370 384 351
f 348 371 365
f 364 127 92
f 297 307 352
f 344 356 340
f 81 357 117
f 357 353 346
f 350 362 344
f 270 297 358
f 366 372 383
f 359 351 386
f 92 382 364
f 299 373 371
f 374 340 366
f 289 360 278
f 361 337 338
f 368 345 391
f 362 387 358
f 90 342 385
f 364 373 380
f 364 380 127
f 363 379 351
f 386 381 374
f 370 348 375
f 365 371 373
f 356 366 340
f 372 366 360
f 356 344 377
f 340 354 367
f 367 376 350
f 103 346 342
f 344 362 352
f 337 361 353
f 90 385 106
f 368 367 354
f 349 369 342
f 354 374 381
f 359 370 351
f 111 82 375
f 299 371 271
f 371 348 378
f 372 390 383
f 373 364 365
f 280 373 319
f 340 374 354
f 383 359 386
f 375 382 111
f 82 138 384
f 343 376 391
f 350 376 339
f 299 319 373
f 360 377 278
f 307 377 352
f 371 378 271
f 370 355 348
f 379 363 385
f 379 369 381
f 106 363 138
f 346 353 349
f 349 361 345
f 127 380 143
f 354 381 369
f 381 386 379
f 382 92 111
f 365 382 375
f 271 378 309
f 383 390 359
f 366 383 374
f 384 138 363
f 327 388 333
f 351 384 363
f 379 385 342
f 106 385 363
f 383 386 374
f 362 347 387
f 143 380 388
f 143 388 100
f 280 388 380
f 4 100 327
f 384 375 82
f 280 333 388
f 389 391 338
f 355 390 378
f 372 360 289
f 378 390 309
f 343 391 389
f 368 391 376
f 390 372 309
f 435 424 409
f 439 441 450
f 427 469 421
f 405 455 446
f 408 442 412
f 399 439 406
f 413 410 432
f 438 402 452
f 400 396 418
f 443 449 461
f 412 401 409
f 397 470 431
f 463 414 454
f 436 434 457
f 423 452 430
f 431 412 418
f 401 442 454
f 418 424 400
f 404 419 401
f 398 410 413
f 427 421 443
f 436 449 411
f 408 441 442
f 435 409 419
f 460 416 466
f 413 406 439
f 393 425 464
f 432 425 417
f 453 411 421
f 420 442 441
f 403 398 450
f 415 440 445
f 417 452 406
f 417 425 426
f 392 400 424
f 431 470 408
f 430 437 423
f 443 461 414
f 411 444 436
f 434 447 407
f 426 438 417
f 406 423 399
f 392 424 435
f 424 418 409
f 413 432 406
f 393 426 425
f 437 445 458
f 427 414 463
f 407 457 434
f 429 446 444
f 448 399 437
f 415 430 402
f 431 396 397
f 441 408 470
f 432 464 425
f 404 401 462
f 434 446 455
f 434 455 447
f 433 454 414
f 463 456 448
f 443 411 449
f 436 444 446
f 423 437 399
f 445 437 430
f 423 406 452
f 399 420 439
f 439 450 413
f 419 409 401
f 406 432 417
f 396 431 418
f 404 462 422
f 441 439 420
f 412 442 401
f 420 448 456
f 427 443 414
f 428 395 449
f 429 444 394
f 444 411 453
f 445 469 458
f 446 434 436
f 405 446 451
f 399 448 420
f 458 427 463
f 449 457 428
f 395 459 461
f 403 450 470
f 413 450 398
f 429 451 446
f 430 452 402
f 438 452 417
f 444 453 394
f 443 421 411
f 454 433 462
f 454 442 456
f 422 433 459
f 409 418 412
f 412 431 408
f 447 455 465
f 420 456 442
f 456 463 454
f 457 407 428
f 436 457 449
f 394 453 440
f 458 469 427
f 437 458 448
f 461 459 433
f 460 466 467
f 414 461 433
f 454 462 401
f 422 462 433
f 458 463 448
f 432 410 464
f 465 455 466
f 465 466 416
f 405 466 455
f 4 416 460
f 461 449 395
f 405 467 466
f 468 470 397
f 421 469 453
f 445 430 415
f 453 469 440
f 403 470 468
f 441 470 450
f 469 445 440
f 484 498 507
f 520 511 510
f 495 536 500
f 516 524 405
f 487 512 483
f 481 510 476
f 504 485 488
f 521 402 438
f 492 473 477
f 529 519 513
f 484 478 487
f 503 537 474
f 523 489 531
f 526 506 508
f 502 521 497
f 492 487 503
f 523 512 478
f 477 498 492
f 478 493 480
f 488 485 475
f 513 495 500
f 486 519 508
f 512 511 483
f 493 484 507
f 534 490 460
f 510 481 488
f 532 499 393
f 491 499 504
f 495 486 522
f 511 512 494
f 520 475 479
f 515 440 415
f 481 521 491
f 426 499 491
f 498 477 471
f 483 537 503
f 497 509 502
f 489 529 513
f 508 514 486
f 482 517 506
f 491 438 426
f 476 497 481
f 507 498 471
f 484 492 498
f 481 504 488
f 499 426 393
f 527 515 509
f 531 489 500
f 506 526 482
f 514 516 429
f 509 476 518
f 402 502 415
f 474 473 503
f 537 483 511
f 499 532 504
f 530 478 480
f 524 516 506
f 517 524 506
f 489 523 505
f 518 525 531
f 519 486 513
f 516 514 508
f 476 509 497
f 502 509 515
f 521 481 497
f 510 494 476
f 488 520 510
f 478 484 493
f 491 504 481
f 492 503 473
f 496 530 480
f 494 510 511
f 478 512 487
f 525 518 494
f 489 513 500
f 519 472 501
f 394 514 429
f 522 486 514
f 527 536 515
f 508 506 516
f 451 516 405
f 494 518 476
f 531 500 527
f 501 526 519
f 529 528 472
f 537 520 479
f 475 520 488
f 516 451 429
f 402 521 502
f 491 521 438
f 394 522 514
f 486 495 513
f 530 505 523
f 525 512 523
f 528 505 496
f 487 492 484
f 483 503 487
f 533 524 517
f 512 525 494
f 523 531 525
f 501 482 526
f 519 526 508
f 440 522 394
f 500 536 527
f 518 527 509
f 505 528 529
f 467 534 460
f 505 529 489
f 478 530 523
f 505 530 496
f 518 531 527
f 532 485 504
f 534 524 533
f 490 534 533
f 524 534 405
f 460 490 4
f 472 519 529
f 534 467 405
f 474 537 535
f 522 536 495
f 415 502 515
f 440 536 522
f 535 537 479
f 520 537 511
f 440 515 536
