# 4part FEM knit+cable best fit (4part_s_band75d2)
# interior RMSE  : 4.899 mm
# max deviation  : 17.380 mm
# crown          : 0.31779 m (target 0.32177 m)
# max disp/rest  : 17.380 mm (floor 5.0 mm)
# regions        : 8 (2 D4 slots), 9 parameters
v 0.000616 0.600859 0.000000
v -0.423648 0.425123 0.000000
v -0.187101 0.188978 0.181117
v 0.000705 0.000576 0.212347
v 0.001104 0.294988 0.317793
v -0.111519 0.589084 0.000000
v -0.154511 0.578763 0.000000
v -0.288752 0.525061 0.000000
v -0.217792 0.403765 0.200230
v -0.051844 0.596730 0.000000
v -0.056575 0.465217 0.238673
v -0.309842 0.311746 0.107630
v -0.237731 0.549565 0.000000
v 0.001231 0.441414 0.268074
v -0.096457 0.097971 0.205346
v -0.273336 0.419886 0.144860
v 0.002051 0.201835 0.314462
v -0.141970 0.509202 0.162842
v -0.044547 0.517485 0.183348
v -0.329212 0.500267 0.000000
v -0.109784 0.247873 0.284627
v -0.091807 0.501715 0.199084
v -0.279793 0.476940 0.097150
v -0.085931 0.347544 0.289360
v -0.269807 0.271823 0.136946
v 0.001002 0.055010 0.230343
v -0.326454 0.402374 0.097397
v -0.078035 0.552768 0.115234
v 0.001130 0.489413 0.221797
v -0.174350 0.431584 0.216493
v -0.136532 0.277318 0.283572
v 0.000943 0.391440 0.295523
v -0.249906 0.375528 0.181299
v -0.031455 0.566157 0.090927
v -0.373956 0.424610 0.048069
v -0.387907 0.389675 0.037224
v -0.133132 0.317931 0.277820
v 0.001382 0.248663 0.316839
v -0.153911 0.155692 0.192471
v -0.256665 0.330948 0.177391
v -0.125216 0.545837 0.110749
v -0.330147 0.453666 0.070070
v -0.043891 0.369085 0.301056
v -0.046671 0.180664 0.286943
v 0.000710 0.549816 0.129481
v -0.079901 0.213271 0.287049
v -0.211419 0.351367 0.215905
v -0.349191 0.351011 0.074379
v -0.225327 0.451430 0.168297
v -0.226874 0.229131 0.162993
v -0.178835 0.479848 0.175030
v -0.119689 0.453586 0.237336
v -0.090898 0.296123 0.295154
v -0.128741 0.203258 0.257373
v -0.223125 0.297525 0.202043
v -0.093733 0.162268 0.256826
v 0.002005 0.157424 0.286722
v -0.176369 0.383975 0.237442
v -0.054143 0.264530 0.307228
v -0.231658 0.503570 0.108730
v -0.125106 0.126825 0.199796
v -0.290722 0.368319 0.141834
v -0.161666 0.237320 0.245746
v -0.085615 0.404474 0.270668
v -0.048468 0.136212 0.271344
v -0.138154 0.412355 0.250215
v -0.037776 0.222391 0.303965
v -0.173651 0.332275 0.253587
v 0.000901 0.341374 0.311267
v -0.033278 0.034605 0.211715
v -0.048440 0.318468 0.308643
v -0.039415 0.415344 0.278508
v -0.127369 0.365129 0.279927
v -0.381698 0.460952 0.000000
v 0.001105 0.111747 0.273335
v -0.040357 0.090926 0.244416
v -0.066899 0.068243 0.209013
v -0.194710 0.567385 0.000000
v -0.184083 0.280321 0.236785
v -0.179544 0.532284 0.103679
v -0.599383 0.000859 0.000000
v -0.293282 0.000362 0.316896
v -0.587609 0.112995 0.000000
v -0.577288 0.155985 0.000000
v -0.523586 0.290227 0.000000
v -0.401825 0.218561 0.199184
v -0.595255 0.053319 0.000000
v -0.459612 0.057719 0.242564
v -0.548091 0.239205 0.000000
v -0.442872 0.000568 0.260925
v -0.417796 0.274109 0.144038
v -0.199677 0.000750 0.301545
v -0.499983 0.140296 0.170033
v -0.520108 0.046708 0.172378
v -0.498792 0.330686 0.000000
v -0.245322 0.113042 0.276356
v -0.505205 0.094223 0.179989
v -0.477267 0.283425 0.091533
v -0.345688 0.087033 0.293377
v -0.053785 0.000604 0.229767
v -0.400458 0.328836 0.098057
v -0.550768 0.079927 0.115102
v -0.491710 0.000919 0.213704
v -0.430895 0.175836 0.209811
v -0.277227 0.139756 0.301071
v -0.389160 0.000661 0.293413
v -0.373395 0.250361 0.179902
v -0.565826 0.033424 0.088320
v -0.422526 0.374561 0.047184
v -0.318004 0.134598 0.260772
v -0.245147 -0.000162 0.312284
v -0.328504 0.259384 0.173148
v -0.543600 0.126872 0.110203
v -0.446833 0.326151 0.081097
v -0.367452 0.045822 0.299739
v -0.177765 0.049421 0.287668
v -0.548525 0.000776 0.129861
v -0.211479 0.081393 0.285576
v -0.349879 0.213353 0.216049
v -0.450650 0.227552 0.164295
v -0.476960 0.179640 0.173963
v -0.458550 0.122959 0.217851
v -0.294636 0.093031 0.296237
v -0.200734 0.131853 0.251035
v -0.297285 0.219688 0.208184
v -0.160795 0.095284 0.256104
v -0.157358 0.000496 0.283190
v -0.381628 0.176336 0.233990
v -0.262393 0.056039 0.307836
v -0.501143 0.232951 0.108217
v -0.366342 0.291996 0.141515
v -0.234861 0.165302 0.239448
v -0.403754 0.087194 0.271919
v -0.133225 0.051579 0.263167
v -0.407455 0.134736 0.250325
v -0.218981 0.041498 0.316231
v -0.330904 0.175692 0.248596
v -0.339692 0.000601 0.310733
v -0.315082 0.047097 0.312144
v -0.412550 0.040731 0.283615
v -0.365057 0.128966 0.271827
v -0.459477 0.383172 0.000000
v -0.110859 0.000366 0.258471
v -0.088819 0.042398 0.238871
v -0.565910 0.196184 0.000000
v -0.280935 0.177309 0.246202
v -0.529439 0.180677 0.104967
v 0.424880 0.425123 0.000000
v 0.188305 0.188873 0.181191
v 0.112752 0.589084 0.000000
v 0.155743 0.578763 0.000000
v 0.289984 0.525061 0.000000
v 0.221232 0.404944 0.200720
v 0.053076 0.596730 0.000000
v 0.058405 0.461387 0.242934
v 0.311251 0.311441 0.107412
v 0.238963 0.549565 0.000000
v 0.097915 0.097640 0.205378
v 0.279926 0.422057 0.139110
v 0.140576 0.501401 0.170187
v 0.046336 0.516858 0.182741
v 0.330445 0.500267 0.000000
v 0.111019 0.249017 0.283596
v 0.094027 0.503595 0.187787
v 0.280610 0.474371 0.106954
v 0.087394 0.347592 0.294063
v 0.271109 0.271463 0.136769
v 0.330566 0.402000 0.099405
v 0.078827 0.550689 0.121760
v 0.175419 0.430245 0.215579
v 0.140529 0.276318 0.266870
v 0.253232 0.376141 0.182728
v 0.032735 0.566304 0.090803
v 0.374464 0.423730 0.046885
v 0.389310 0.389211 0.036848
v 0.133669 0.318053 0.276300
v 0.155223 0.155706 0.192700
v 0.256673 0.331138 0.181102
v 0.128454 0.551027 0.099083
v 0.324900 0.446608 0.090247
v 0.045957 0.368790 0.302075
v 0.051584 0.177487 0.292055
v 0.081512 0.214348 0.309540
v 0.218147 0.352981 0.198399
v 0.350849 0.350568 0.074239
v 0.228301 0.452183 0.164627
v 0.228171 0.228836 0.162801
v 0.180322 0.478702 0.174471
v 0.123223 0.458573 0.221242
v 0.093448 0.297177 0.297831
v 0.131748 0.202710 0.253222
v 0.218915 0.299340 0.208136
v 0.102255 0.156189 0.249493
v 0.180784 0.383726 0.234138
v 0.057872 0.265749 0.313040
v 0.234222 0.503859 0.109254
v 0.126558 0.126597 0.199874
v 0.291789 0.368117 0.141449
v 0.165759 0.236171 0.240524
v 0.087966 0.405445 0.272205
v 0.053216 0.132882 0.265577
v 0.134981 0.407833 0.249256
v 0.041202 0.222741 0.310625
v 0.176585 0.331447 0.258551
v 0.034849 0.034412 0.211630
v 0.048135 0.317870 0.312010
v 0.041292 0.414232 0.282942
v 0.129029 0.365593 0.271054
v 0.382930 0.460952 0.000000
v 0.043628 0.088777 0.240504
v 0.068422 0.067967 0.209008
v 0.195941 0.567385 0.000000
v 0.179368 0.282245 0.257193
v 0.180939 0.530605 0.110112
v 0.588842 0.112995 0.000000
v 0.578520 0.155985 0.000000
v 0.524819 0.290227 0.000000
v 0.401822 0.217720 0.198393
v 0.596487 0.053319 0.000000
v 0.461507 0.058122 0.243751
v 0.549323 0.239205 0.000000
v 0.418786 0.274814 0.144913
v 0.499049 0.139722 0.176403
v 0.516608 0.046351 0.183010
v 0.500025 0.330686 0.000000
v 0.246766 0.112768 0.285549
v 0.503240 0.093800 0.188520
v 0.475643 0.281521 0.096946
v 0.347602 0.088253 0.295978
v 0.402475 0.333111 0.090660
v 0.550873 0.079419 0.117846
v 0.431173 0.176297 0.217305
v 0.277483 0.137906 0.282707
v 0.373899 0.250499 0.179946
v 0.565600 0.033026 0.090832
v 0.424011 0.375179 0.047717
v 0.319009 0.135853 0.275474
v 0.328440 0.263388 0.169747
v 0.544958 0.126778 0.110374
v 0.446630 0.325291 0.080331
v 0.368085 0.045700 0.298217
v 0.180777 0.048667 0.286310
v 0.212811 0.082189 0.287127
v 0.350337 0.215370 0.217757
v 0.451306 0.227632 0.164395
v 0.478343 0.180222 0.175730
v 0.454298 0.121578 0.227309
v 0.295980 0.092903 0.307426
v 0.201875 0.132283 0.251777
v 0.297835 0.220770 0.209196
v 0.161879 0.095774 0.255029
v 0.380658 0.176478 0.259025
v 0.264003 0.056387 0.306969
v 0.502185 0.233143 0.108470
v 0.367349 0.292908 0.142462
v 0.236113 0.165279 0.239592
v 0.404305 0.087179 0.283600
v 0.135186 0.051220 0.263111
v 0.409643 0.136917 0.249586
v 0.220934 0.041276 0.300945
v 0.331440 0.176916 0.259293
v 0.316677 0.047783 0.308349
v 0.414751 0.040915 0.278579
v 0.367144 0.131703 0.266008
v 0.460709 0.383172 0.000000
v 0.090457 0.042114 0.238986
v 0.567143 0.196184 0.000000
v 0.281047 0.180072 0.242743
v 0.530575 0.180704 0.105242
v -0.423648 -0.423406 0.000000
v -0.186902 -0.187391 0.181043
v -0.111519 -0.587366 0.000000
v -0.154511 -0.577046 0.000000
v -0.288752 -0.523343 0.000000
v -0.217777 -0.401882 0.200145
v -0.051844 -0.595012 0.000000
v -0.057320 -0.463067 0.237665
v -0.309655 -0.310104 0.107323
v -0.237731 -0.547848 0.000000
v -0.096449 -0.096635 0.205745
v -0.273961 -0.418414 0.145433
v -0.139277 -0.500593 0.170760
v -0.044758 -0.514865 0.182134
v -0.329212 -0.498550 0.000000
v -0.111007 -0.247899 0.283122
v -0.092353 -0.502127 0.188036
v -0.280482 -0.474949 0.097230
v -0.086027 -0.345984 0.301241
v -0.269583 -0.270120 0.136434
v -0.333067 -0.401643 0.090263
v -0.079778 -0.560667 0.094103
v -0.174297 -0.429617 0.216324
v -0.137970 -0.276379 0.270823
v -0.249596 -0.373591 0.184890
v -0.030819 -0.565441 0.091157
v -0.373764 -0.422627 0.047667
v -0.387751 -0.387889 0.036928
v -0.132801 -0.317006 0.276093
v -0.153935 -0.154124 0.192711
v -0.257287 -0.328868 0.177806
v -0.126177 -0.545043 0.109406
v -0.323672 -0.445310 0.082777
v -0.044827 -0.368026 0.298666
v -0.046962 -0.180641 0.298223
v -0.083065 -0.212204 0.290406
v -0.214323 -0.350057 0.215654
v -0.348644 -0.349784 0.074173
v -0.226571 -0.450709 0.164820
v -0.226844 -0.227437 0.162463
v -0.178886 -0.477679 0.174830
v -0.120378 -0.453882 0.227078
v -0.093080 -0.295566 0.298215
v -0.131156 -0.200745 0.252359
v -0.218612 -0.297802 0.211101
v -0.091199 -0.163269 0.267447
v -0.172747 -0.379448 0.240350
v -0.055677 -0.264196 0.316528
v -0.232065 -0.501343 0.108687
v -0.125242 -0.125262 0.200125
v -0.290481 -0.366453 0.144315
v -0.172662 -0.230756 0.229563
v -0.087201 -0.405736 0.271609
v -0.049835 -0.132522 0.264966
v -0.134743 -0.408347 0.248929
v -0.042017 -0.220137 0.308460
v -0.174893 -0.330312 0.249142
v -0.033263 -0.033391 0.211782
v -0.046919 -0.316515 0.310935
v -0.041676 -0.420700 0.273078
v -0.127341 -0.364315 0.270300
v -0.381698 -0.459234 0.000000
v -0.041034 -0.088409 0.239768
v -0.066799 -0.067016 0.209276
v -0.194710 -0.565668 0.000000
v -0.179581 -0.280546 0.243053
v -0.180305 -0.530954 0.102562
v -0.587609 -0.111278 0.000000
v -0.577288 -0.154268 0.000000
v -0.523586 -0.288510 0.000000
v -0.401320 -0.216922 0.199042
v -0.595255 -0.051602 0.000000
v -0.464669 -0.057071 0.235623
v -0.548091 -0.237488 0.000000
v -0.417441 -0.274033 0.145167
v -0.500206 -0.138748 0.170303
v -0.515268 -0.044824 0.182777
v -0.498792 -0.328969 0.000000
v -0.247700 -0.110110 0.282126
v -0.502121 -0.092313 0.188029
v -0.472069 -0.277876 0.117960
v -0.346147 -0.086062 0.290245
v -0.400135 -0.327631 0.108644
v -0.551316 -0.077603 0.114888
v -0.429172 -0.173597 0.215448
v -0.275905 -0.137918 0.270796
v -0.373403 -0.250135 0.181207
v -0.562530 -0.031034 0.096405
v -0.422571 -0.373240 0.047184
v -0.316549 -0.133098 0.277115
v -0.328856 -0.255886 0.179044
v -0.544867 -0.124931 0.110742
v -0.447924 -0.326553 0.081961
v -0.366794 -0.044048 0.300753
v -0.174722 -0.051393 0.280647
v -0.212716 -0.081041 0.287042
v -0.349298 -0.212321 0.216399
v -0.449822 -0.225547 0.163554
v -0.480677 -0.180299 0.169297
v -0.453960 -0.120081 0.226975
v -0.295307 -0.091522 0.295653
v -0.201318 -0.130376 0.250931
v -0.296829 -0.219033 0.208452
v -0.159261 -0.096055 0.250268
v -0.378850 -0.171749 0.239157
v -0.263235 -0.055094 0.307076
v -0.503384 -0.232562 0.109785
v -0.365871 -0.292958 0.137556
v -0.235054 -0.163724 0.238898
v -0.403887 -0.085795 0.270391
v -0.131154 -0.052681 0.257994
v -0.407895 -0.134130 0.251036
v -0.220596 -0.039714 0.301377
v -0.329657 -0.174067 0.248128
v -0.315665 -0.046282 0.309612
v -0.413608 -0.039477 0.278019
v -0.363884 -0.127331 0.279757
v -0.459477 -0.381455 0.000000
v -0.088477 -0.041383 0.239471
v -0.565910 -0.194467 0.000000
v -0.279908 -0.178504 0.241885
v -0.528310 -0.178232 0.115059
v 0.000616 -0.599141 0.000000
v 0.424880 -0.423406 0.000000
v 0.188326 -0.187374 0.180780
v -0.000008 -0.293562 0.317328
v 0.112752 -0.587366 0.000000
v 0.155743 -0.577046 0.000000
v 0.289984 -0.523343 0.000000
v 0.218550 -0.401457 0.199324
v 0.053076 -0.595012 0.000000
v 0.057836 -0.458855 0.241706
v 0.310894 -0.309920 0.107373
v 0.238963 -0.547848 0.000000
v 0.000909 -0.441352 0.264371
v 0.097779 -0.096651 0.205436
v 0.274576 -0.417939 0.144696
v 0.000201 -0.200646 0.315545
v 0.140308 -0.500350 0.169892
v 0.046429 -0.518487 0.175931
v 0.330445 -0.498550 0.000000
v 0.110671 -0.247575 0.282051
v 0.094598 -0.507726 0.178297
v 0.281744 -0.474999 0.097154
v 0.089705 -0.348882 0.289503
v 0.270973 -0.270058 0.136523
v 0.000806 -0.053733 0.229637
v 0.328566 -0.400552 0.098062
v 0.078932 -0.551712 0.115173
v 0.000862 -0.487591 0.221190
v 0.174829 -0.428738 0.215216
v 0.137548 -0.276660 0.280021
v 0.000280 -0.389954 0.294387
v 0.251200 -0.373560 0.180945
v 0.032584 -0.564797 0.090986
v 0.373898 -0.422481 0.046955
v 0.388406 -0.387757 0.037064
v 0.133425 -0.317166 0.278859
v -0.000151 -0.247088 0.315391
v 0.155215 -0.154195 0.192340
v 0.258285 -0.329036 0.177260
v 0.127901 -0.549958 0.097731
v 0.325927 -0.446719 0.080992
v 0.045127 -0.367878 0.299268
v 0.048362 -0.179556 0.286558
v 0.000585 -0.548355 0.129603
v 0.081821 -0.212141 0.286803
v 0.213153 -0.349222 0.215589
v 0.350097 -0.349157 0.074235
v 0.227583 -0.450417 0.164412
v 0.228189 -0.227322 0.162468
v 0.179976 -0.477372 0.174627
v 0.120780 -0.452745 0.225566
v 0.092045 -0.295682 0.294967
v 0.130429 -0.201963 0.254782
v 0.225777 -0.294955 0.200300
v 0.094914 -0.161319 0.256331
v 0.001119 -0.152722 0.284275
v 0.174670 -0.379570 0.237154
v 0.055227 -0.263760 0.314246
v 0.233672 -0.501434 0.108668
v 0.126424 -0.125439 0.199777
v 0.292077 -0.366470 0.141727
v 0.165180 -0.234982 0.239335
v 0.087867 -0.404647 0.268714
v 0.051375 -0.133667 0.263569
v 0.134918 -0.406794 0.249663
v 0.040765 -0.220232 0.303351
v 0.175032 -0.329829 0.247566
v 0.000056 -0.340138 0.311096
v 0.034716 -0.033383 0.211745
v 0.046940 -0.316278 0.310993
v 0.040831 -0.413581 0.278088
v 0.129459 -0.364653 0.271453
v 0.382930 -0.459234 0.000000
v 0.000946 -0.109198 0.260525
v 0.042703 -0.088658 0.239557
v 0.068218 -0.066996 0.209113
v 0.195941 -0.565668 0.000000
v 0.179432 -0.280008 0.241986
v 0.179920 -0.526962 0.117930
v 0.600616 0.000859 0.000000
v 0.294038 0.001064 0.316383
v 0.588842 -0.111278 0.000000
v 0.578520 -0.154268 0.000000
v 0.524819 -0.288510 0.000000
v 0.402556 -0.217627 0.200405
v 0.596487 -0.051602 0.000000
v 0.460467 -0.056293 0.242578
v 0.549323 -0.237488 0.000000
v 0.445170 0.000777 0.260465
v 0.418724 -0.273365 0.144900
v 0.200786 0.000529 0.305113
v 0.501401 -0.138723 0.170524
v 0.518890 -0.044742 0.178898
v 0.500025 -0.328969 0.000000
v 0.248652 -0.110082 0.282473
v 0.501813 -0.091853 0.191554
v 0.475897 -0.279954 0.097073
v 0.346457 -0.085237 0.292976
v 0.054903 0.000619 0.230150
v 0.401537 -0.329021 0.099676
v 0.551366 -0.077811 0.116915
v 0.489201 0.000709 0.221509
v 0.429993 -0.173447 0.215658
v 0.276992 -0.137643 0.270708
v 0.390068 0.000833 0.293385
v 0.375890 -0.255987 0.174930
v 0.565569 -0.031304 0.090873
v 0.422769 -0.371724 0.032341
v 0.317603 -0.132330 0.276356
v 0.246788 0.001348 0.312605
v 0.330203 -0.256060 0.176829
v 0.545356 -0.125109 0.109774
v 0.446561 -0.323350 0.083950
v 0.368083 -0.044003 0.298350
v 0.181012 -0.047293 0.298913
v 0.549220 0.001040 0.129472
v 0.213954 -0.079857 0.300568
v 0.350500 -0.212871 0.217453
v 0.449764 -0.224686 0.170071
v 0.478659 -0.178243 0.174744
v 0.454656 -0.119973 0.227121
v 0.296083 -0.092201 0.295371
v 0.202112 -0.131091 0.251413
v 0.298117 -0.219111 0.208722
v 0.163443 -0.092797 0.262451
v 0.157689 0.000626 0.285569
v 0.380013 -0.172199 0.240189
v 0.264277 -0.054769 0.309641
v 0.500721 -0.230381 0.114130
v 0.367298 -0.291479 0.142254
v 0.236110 -0.164035 0.239207
v 0.404709 -0.085889 0.272213
v 0.134065 -0.050448 0.264281
v 0.407941 -0.133522 0.250403
v 0.221322 -0.039564 0.311817
v 0.330783 -0.174249 0.248827
v 0.340491 0.000913 0.310309
v 0.316561 -0.045849 0.309674
v 0.414274 -0.039344 0.277936
v 0.364928 -0.127170 0.270954
v 0.460709 -0.381455 0.000000
v 0.109890 0.000641 0.257748
v 0.090489 -0.040691 0.240460
v 0.567143 -0.194467 0.000000
v 0.281090 -0.178506 0.242613
v 0.531021 -0.179055 0.105341
f 45 34 19
f 49 51 60
f 37 79 31
f 15 65 56
f 18 52 22
f 9 49 16
f 23 20 42
f 48 12 62
f 10 6 28
f 53 59 71
f 22 11 19
f 7 80 41
f 73 24 64
f 46 44 67
f 33 62 40
f 41 22 28
f 11 52 64
f 28 34 10
f 14 29 11
f 8 20 23
f 37 31 53
f 46 59 21
f 18 51 52
f 45 19 29
f 70 26 76
f 23 16 49
f 2 35 74
f 42 35 27
f 63 21 31
f 30 52 51
f 13 8 60
f 25 50 55
f 27 62 16
f 27 35 36
f 1 10 34
f 41 80 18
f 40 47 33
f 53 71 24
f 21 54 46
f 44 57 17
f 36 48 27
f 16 33 9
f 1 34 45
f 34 28 19
f 23 42 16
f 2 36 35
f 47 55 68
f 37 24 73
f 17 67 44
f 39 56 54
f 58 9 47
f 25 40 12
f 41 6 7
f 51 18 80
f 42 74 35
f 14 11 72
f 44 56 65
f 44 65 57
f 43 64 24
f 73 66 58
f 53 21 59
f 46 54 56
f 33 47 9
f 55 47 40
f 33 16 62
f 9 30 49
f 49 60 23
f 29 19 11
f 16 42 27
f 6 41 28
f 14 72 32
f 51 49 30
f 22 52 11
f 30 58 66
f 37 53 24
f 38 5 59
f 39 54 3
f 54 21 63
f 55 79 68
f 56 44 46
f 15 56 61
f 9 58 30
f 68 37 73
f 59 67 38
f 5 69 71
f 13 60 80
f 23 60 8
f 39 61 56
f 40 62 12
f 48 62 27
f 54 63 3
f 53 31 21
f 64 43 72
f 64 52 66
f 32 43 69
f 19 28 22
f 22 41 18
f 57 65 75
f 30 66 52
f 66 73 64
f 67 17 38
f 46 67 59
f 3 63 50
f 68 79 37
f 47 68 58
f 71 69 43
f 70 76 77
f 24 71 43
f 64 72 11
f 32 72 43
f 68 73 58
f 42 20 74
f 75 65 76
f 75 76 26
f 15 76 65
f 4 26 70
f 71 59 5
f 15 77 76
f 78 80 7
f 31 79 63
f 55 40 25
f 63 79 50
f 13 80 78
f 51 80 60
f 79 55 50
f 94 108 117
f 130 121 120
f 105 146 110
f 126 134 15
f 97 122 93
f 91 120 86
f 114 95 98
f 131 12 48
f 102 83 87
f 139 129 123
f 94 88 97
f 113 147 84
f 133 99 141
f 136 116 118
f 112 131 107
f 102 97 113
f 133 122 88
f 87 108 102
f 88 103 90
f 98 95 85
f 123 105 110
f 96 129 118
f 122 121 93
f 103 94 117
f 144 100 70
f 120 91 98
f 142 109 2
f 101 109 114
f 105 96 132
f 121 122 104
f 130 85 89
f 125 50 25
f 91 131 101
f 36 109 101
f 108 87 81
f 93 147 113
f 107 119 112
f 99 139 123
f 118 124 96
f 92 127 116
f 101 48 36
f 86 107 91
f 117 108 81
f 94 102 108
f 91 114 98
f 109 36 2
f 137 125 119
f 141 99 110
f 116 136 92
f 124 126 39
f 119 86 128
f 12 112 25
f 84 83 113
f 147 93 121
f 109 142 114
f 140 88 90
f 134 126 116
f 127 134 116
f 99 133 115
f 128 135 141
f 129 96 123
f 126 124 118
f 86 119 107
f 112 119 125
f 131 91 107
f 120 104 86
f 98 130 120
f 88 94 103
f 101 114 91
f 102 113 83
f 106 140 90
f 104 120 121
f 88 122 97
f 135 128 104
f 99 123 110
f 129 82 111
f 3 124 39
f 132 96 124
f 137 146 125
f 118 116 126
f 61 126 15
f 104 128 86
f 141 110 137
f 111 136 129
f 139 138 82
f 147 130 89
f 85 130 98
f 126 61 39
f 12 131 112
f 101 131 48
f 3 132 124
f 96 105 123
f 140 115 133
f 135 122 133
f 138 115 106
f 97 102 94
f 93 113 97
f 143 134 127
f 122 135 104
f 133 141 135
f 111 92 136
f 129 136 118
f 50 132 3
f 110 146 137
f 128 137 119
f 115 138 139
f 77 144 70
f 115 139 99
f 88 140 133
f 115 140 106
f 128 141 137
f 142 95 114
f 144 134 143
f 100 144 143
f 134 144 15
f 70 100 4
f 82 129 139
f 144 77 15
f 84 147 145
f 132 146 105
f 25 112 125
f 50 146 132
f 145 147 89
f 130 147 121
f 50 125 146
f 161 173 45
f 196 188 186
f 171 213 176
f 193 201 158
f 164 189 160
f 159 186 153
f 180 162 165
f 198 156 185
f 169 150 154
f 206 195 190
f 161 155 164
f 179 214 151
f 200 166 208
f 203 182 183
f 178 198 172
f 169 164 179
f 200 189 155
f 154 173 169
f 155 29 14
f 165 162 152
f 190 171 176
f 163 195 183
f 189 188 160
f 29 161 45
f 210 26 205
f 186 159 165
f 209 174 148
f 168 174 180
f 171 163 199
f 188 189 170
f 196 152 157
f 192 187 167
f 159 198 168
f 175 174 168
f 173 154 1
f 160 214 179
f 172 184 178
f 166 206 190
f 183 191 163
f 17 57 182
f 168 185 175
f 153 172 159
f 45 173 1
f 161 169 173
f 159 180 165
f 174 175 148
f 204 192 184
f 208 166 176
f 182 203 17
f 191 193 177
f 184 153 194
f 156 178 167
f 151 150 179
f 214 160 188
f 174 209 180
f 207 155 14
f 201 193 182
f 57 201 182
f 166 200 181
f 194 202 208
f 195 163 190
f 193 191 183
f 153 184 172
f 178 184 192
f 198 159 172
f 186 170 153
f 165 196 186
f 155 161 29
f 168 180 159
f 169 179 150
f 32 207 14
f 170 186 188
f 155 189 164
f 202 194 170
f 166 190 176
f 195 5 38
f 149 191 177
f 199 163 191
f 204 213 192
f 183 182 193
f 197 193 158
f 170 194 153
f 208 176 204
f 38 203 195
f 206 69 5
f 214 196 157
f 152 196 165
f 193 197 177
f 156 198 178
f 168 198 185
f 149 199 191
f 163 171 190
f 207 181 200
f 202 189 200
f 69 181 32
f 164 169 161
f 160 179 164
f 75 201 57
f 189 202 170
f 200 208 202
f 38 17 203
f 195 203 183
f 187 199 149
f 176 213 204
f 194 204 184
f 181 69 206
f 211 210 205
f 181 206 166
f 155 207 200
f 181 207 32
f 194 208 204
f 209 162 180
f 210 201 75
f 26 210 75
f 201 210 158
f 205 26 4
f 5 195 206
f 210 211 158
f 151 214 212
f 199 213 171
f 167 178 192
f 187 213 199
f 212 214 157
f 196 214 188
f 187 192 213
f 507 235 224
f 245 246 254
f 237 268 233
f 158 258 251
f 223 247 227
f 218 245 222
f 228 225 240
f 185 156 255
f 219 215 231
f 248 253 262
f 227 220 224
f 216 269 239
f 264 229 257
f 243 242 260
f 234 255 238
f 239 227 231
f 220 247 257
f 231 235 219
f 480 493 220
f 217 225 228
f 237 233 248
f 243 253 226
f 223 246 247
f 507 224 493
f 205 490 266
f 228 222 245
f 148 236 265
f 240 236 230
f 256 226 233
f 232 247 246
f 221 217 254
f 167 187 250
f 230 255 222
f 230 236 175
f 471 219 235
f 239 269 223
f 238 244 234
f 248 262 229
f 226 249 243
f 242 517 482
f 175 185 230
f 222 234 218
f 471 235 507
f 235 231 224
f 228 240 222
f 148 175 236
f 244 250 261
f 237 229 264
f 482 260 242
f 177 251 249
f 252 218 244
f 167 238 156
f 239 215 216
f 246 223 269
f 240 265 236
f 480 220 263
f 242 251 258
f 242 258 517
f 241 257 229
f 264 259 252
f 248 226 253
f 243 249 251
f 234 244 218
f 250 244 238
f 234 222 255
f 218 232 245
f 245 254 228
f 493 224 220
f 222 240 230
f 215 239 231
f 480 263 496
f 246 245 232
f 227 247 220
f 232 252 259
f 237 248 229
f 501 472 253
f 177 249 149
f 249 226 256
f 250 268 261
f 251 242 243
f 158 251 197
f 218 252 232
f 261 237 264
f 253 260 501
f 472 528 262
f 221 254 269
f 228 254 217
f 177 197 251
f 238 255 156
f 185 255 230
f 249 256 149
f 248 233 226
f 257 241 263
f 257 247 259
f 496 241 528
f 224 231 227
f 227 239 223
f 517 258 533
f 232 259 247
f 259 264 257
f 260 482 501
f 243 260 253
f 149 256 187
f 261 268 237
f 244 261 252
f 262 528 241
f 205 266 211
f 229 262 241
f 257 263 220
f 496 263 241
f 261 264 252
f 240 225 265
f 533 258 266
f 533 266 490
f 158 266 258
f 4 490 205
f 262 253 472
f 158 211 266
f 267 269 216
f 233 268 256
f 250 238 167
f 256 268 187
f 221 269 267
f 246 269 254
f 268 250 187
f 283 295 435
f 318 310 308
f 293 335 298
f 315 323 280
f 286 311 282
f 281 308 275
f 302 284 287
f 320 278 307
f 291 272 276
f 328 317 312
f 283 277 286
f 301 336 273
f 322 288 330
f 325 304 305
f 300 320 294
f 291 286 301
f 322 311 277
f 276 295 291
f 277 419 404
f 287 284 274
f 312 293 298
f 285 317 305
f 311 310 282
f 419 283 435
f 332 416 327
f 308 281 287
f 331 296 270
f 290 296 302
f 293 285 321
f 310 311 292
f 318 274 279
f 314 309 289
f 281 320 290
f 297 296 290
f 295 276 392
f 282 336 301
f 294 306 300
f 288 328 312
f 305 313 285
f 407 447 304
f 290 307 297
f 275 294 281
f 435 295 392
f 283 291 295
f 281 302 287
f 296 297 270
f 326 314 306
f 330 288 298
f 304 325 407
f 313 315 299
f 306 275 316
f 278 300 289
f 273 272 301
f 336 282 310
f 296 331 302
f 329 277 404
f 323 315 304
f 447 323 304
f 288 322 303
f 316 324 330
f 317 285 312
f 315 313 305
f 275 306 294
f 300 306 314
f 320 281 294
f 308 292 275
f 287 318 308
f 277 283 419
f 290 302 281
f 291 301 272
f 422 329 404
f 292 308 310
f 277 311 286
f 324 316 292
f 288 312 298
f 317 395 428
f 271 313 299
f 321 285 313
f 326 335 314
f 305 304 315
f 319 315 280
f 292 316 275
f 330 298 326
f 428 325 317
f 328 459 395
f 336 318 279
f 274 318 287
f 315 319 299
f 278 320 300
f 290 320 307
f 271 321 313
f 285 293 312
f 329 303 322
f 324 311 322
f 459 303 422
f 286 291 283
f 282 301 286
f 465 323 447
f 311 324 292
f 322 330 324
f 428 407 325
f 317 325 305
f 309 321 271
f 298 335 326
f 316 326 306
f 303 459 328
f 333 332 327
f 303 328 288
f 277 329 322
f 303 329 422
f 316 330 326
f 331 284 302
f 332 323 465
f 416 332 465
f 323 332 280
f 327 416 4
f 395 317 328
f 332 333 280
f 273 336 334
f 321 335 293
f 289 300 314
f 309 335 321
f 334 336 279
f 318 336 310
f 309 314 335
f 117 357 346
f 367 368 376
f 359 390 355
f 280 380 373
f 345 369 349
f 340 367 344
f 350 347 362
f 307 278 377
f 341 337 353
f 370 375 384
f 349 342 346
f 338 391 361
f 386 351 379
f 365 364 382
f 356 377 360
f 361 349 353
f 342 369 379
f 353 357 341
f 90 103 342
f 339 347 350
f 359 355 370
f 365 375 348
f 345 368 369
f 117 346 103
f 327 100 388
f 350 344 367
f 270 358 387
f 362 358 352
f 378 348 355
f 354 369 368
f 343 339 376
f 289 309 372
f 352 377 344
f 352 358 297
f 81 341 357
f 361 391 345
f 360 366 356
f 370 384 351
f 348 371 365
f 364 127 92
f 297 307 352
f 344 356 340
f 81 357 117
f 357 353 346
f 350 362 344
f 270 297 358
f 366 372 383
f 359 351 386
f 92 382 364
f 299 373 371
f 374 340 366
f 289 360 278
f 361 337 338
f 368 345 391
f 362 387 358
f 90 342 385
f 364 373 380
f 364 380 127
f 363 379 351
f 386 381 374
f 370 348 375
f 365 371 373
f 356 366 340
f 372 366 360
f 356 344 377
f 340 354 367
f 367 376 350
f 103 346 342
f 344 362 352
f 337 361 353
f 90 385 106
f 368 367 354
f 349 369 342
f 354 374 381
f 359 370 351
f 111 82 375
f 299 371 271
f 371 348 378
f 372 390 383
f 373 364 365
f 280 373 319
f 340 374 354
f 383 359 386
f 375 382 111
f 82 138 384
f 343 376 391
f 350 376 339
f 299 319 373
f 360 377 278
f 307 377 352
f 371 378 271
f 370 355 348
f 379 363 385
f 379 369 381
f 106 363 138
f 346 353 349
f 349 361 345
f 127 380 143
f 354 381 369
f 381 386 379
f 382 92 111
f 365 382 375
f 271 378 309
f 383 390 359
f 366 383 374
f 384 138 363
f 327 388 333
f 351 384 363
f 379 385 342
f 106 385 363
f 383 386 374
f 362 347 387
f 143 380 388
f 143 388 100
f 280 388 380
f 4 100 327
f 384 375 82
f 280 333 388
f 389 391 338
f 355 390 378
f 372 360 289
f 378 390 309
f 343 391 389
f 368 391 376
f 390 372 309
f 435 424 409
f 439 441 450
f 427 469 421
f 405 455 446
f 408 442 412
f 399 439 406
f 413 410 432
f 438 402 452
f 400 396 418
f 443 449 461
f 412 401 409
f 397 470 431
f 463 414 454
f 436 434 457
f 423 452 430
f 431 412 418
f 401 442 454
f 418 424 400
f 404 419 401
f 398 410 413
f 427 421 443
f 436 449 411
f 408 441 442
f 435 409 419
f 460 416 466
f 413 406 439
f 393 425 464
f 432 425 417
f 453 411 421
f 420 442 441
f 403 398 450
f 415 440 445
f 417 452 406
f 417 425 426
f 392 400 424
f 431 470 408
f 430 437 423
f 443 461 414
f 411 444 436
f 434 447 407
f 426 438 417
f 406 423 399
f 392 424 435
f 424 418 409
f 413 432 406
f 393 426 425
f 437 445 458
f 427 414 463
f 407 457 434
f 429 446 444
f 448 399 437
f 415 430 402
f 431 396 397
f 441 408 470
f 432 464 425
f 404 401 462
f 434 446 455
f 434 455 447
f 433 454 414
f 463 456 448
f 443 411 449
f 436 444 446
f 423 437 399
f 445 437 430
f 423 406 452
f 399 420 439
f 439 450 413
f 419 409 401
f 406 432 417
f 396 431 418
f 404 462 422
f 441 439 420
f 412 442 401
f 420 448 456
f 427 443 414
f 428 395 449
f 429 444 394
f 444 411 453
f 445 469 458
f 446 434 436
f 405 446 451
f 399 448 420
f 458 427 463
f 449 457 428
f 395 459 461
f 403 450 470
f 413 450 398
f 429 451 446
f 430 452 402
f 438 452 417
f 444 453 394
f 443 421 411
f 454 433 462
f 454 442 456
f 422 433 459
f 409 418 412
f 412 431 408
f 447 455 465
f 420 456 442
f 456 463 454
f 457 407 428
f 436 457 449
f 394 453 440
f 458 469 427
f 437 458 448
f 461 459 433
f 460 466 467
f 414 461 433
f 454 462 401
f 422 462 433
f 458 463 448
f 432 410 464
f 465 455 466
f 465 466 416
f 405 466 455
f 4 416 460
f 461 449 395
f 405 467 466
f 468 470 397
f 421 469 453
f 445 430 415
f 453 469 440
f 403 470 468
f 441 470 450
f 469 445 440
f 484 498 507
f 520 511 510
f 495 536 500
f 516 524 405
f 487 512 483
f 481 510 476
f 504 485 488
f 521 402 438
f 492 473 477
f 529 519 513
f 484 478 487
f 503 537 474
f 523 489 531
f 526 506 508
f 502 521 497
f 492 487 503
f 523 512 478
f 477 498 492
f 478 493 480
f 488 485 475
f 513 495 500
f 486 519 508
f 512 511 483
f 493 484 507
f 534 490 460
f 510 481 488
f 532 499 393
f 491 499 504
f 495 486 522
f 511 512 494
f 520 475 479
f 515 440 415
f 481 521 491
f 426 499 491
f 498 477 471
f 483 537 503
f 497 509 502
f 489 529 513
f 508 514 486
f 482 517 506
f 491 438 426
f 476 497 481
f 507 498 471
f 484 492 498
f 481 504 488
f 499 426 393
f 527 515 509
f 531 489 500
f 506 526 482
f 514 516 429
f 509 476 518
f 402 502 415
f 474 473 503
f 537 483 511
f 499 532 504
f 530 478 480
f 524 516 506
f 517 524 506
f 489 523 505
f 518 525 531
f 519 486 513
f 516 514 508
f 476 509 497
f 502 509 515
f 521 481 497
f 510 494 476
f 488 520 510
f 478 484 493
f 491 504 481
f 492 503 473
f 496 530 480
f 494 510 511
f 478 512 487
f 525 518 494
f 489 513 500
f 519 472 501
f 394 514 429
f 522 486 514
f 527 536 515
f 508 506 516
f 451 516 405
f 494 518 476
f 531 500 527
f 501 526 519
f 529 528 472
f 537 520 479
f 475 520 488
f 516 451 429
f 402 521 502
f 491 521 438
f 394 522 514
f 486 495 513
f 530 505 523
f 525 512 523
f 528 505 496
f 487 492 484
f 483 503 487
f 533 524 517
f 512 525 494
f 523 531 525
f 501 482 526
f 519 526 508
f 440 522 394
f 500 536 527
f 518 527 509
f 505 528 529
f 467 534 460
f 505 529 489
f 478 530 523
f 505 530 496
f 518 531 527
f 532 485 504
f 534 524 533
f 490 534 533
f 524 534 405
f 460 490 4
f 472 519 529
f 534 467 405
f 474 537 535
f 522 536 495
f 415 502 515
f 440 536 522
f 535 537 479
f 520 537 511
f 440 515 536
