# 4part FEM knit+cable best fit (4part_s_pw_G)
# interior RMSE  : 4.920 mm
# max deviation  : 18.075 mm
# crown          : 0.31864 m (target 0.32177 m)
# max disp/rest  : 18.075 mm (floor 5.0 mm)
# regions        : 4 (1 D4 slots), 3 parameters
v 0.000616 0.600859 0.000000
v -0.423648 0.425123 0.000000
v -0.187378 0.189278 0.181340
v 0.000801 0.000610 0.212677
v 0.001120 0.295468 0.318644
v -0.111519 0.589084 0.000000
v -0.154511 0.578763 0.000000
v -0.288752 0.525061 0.000000
v -0.218161 0.404316 0.200767
v -0.051844 0.596730 0.000000
v -0.056679 0.465968 0.239431
v -0.310148 0.312076 0.107658
v -0.237731 0.549565 0.000000
v 0.001236 0.442109 0.268892
v -0.096618 0.098186 0.205662
v -0.273711 0.420320 0.145252
v 0.002062 0.202171 0.315312
v -0.142239 0.509842 0.163399
v -0.044639 0.518220 0.184106
v -0.329212 0.500267 0.000000
v -0.110037 0.248265 0.285345
v -0.091994 0.502415 0.199811
v -0.280136 0.477288 0.097451
v -0.086106 0.348110 0.290173
v -0.270122 0.272161 0.137046
v 0.001079 0.055135 0.230859
v -0.326733 0.402686 0.097567
v -0.078237 0.553448 0.115796
v 0.001126 0.490147 0.222587
v -0.174658 0.432203 0.217108
v -0.136828 0.277745 0.284282
v 0.000954 0.392061 0.296372
v -0.250296 0.376021 0.181729
v -0.031548 0.566764 0.091500
v -0.374035 0.424726 0.048002
v -0.388084 0.389844 0.037176
v -0.133401 0.318425 0.278522
v 0.001402 0.249074 0.317669
v -0.154153 0.155964 0.192735
v -0.257068 0.331399 0.177744
v -0.125465 0.546437 0.111218
v -0.330359 0.453870 0.070150
v -0.043970 0.369674 0.301899
v -0.046786 0.180965 0.287679
v 0.000708 0.550555 0.130216
v -0.080099 0.213617 0.287785
v -0.211810 0.351885 0.216452
v -0.349447 0.351277 0.074356
v -0.225690 0.451944 0.168797
v -0.227183 0.229461 0.163160
v -0.179152 0.480438 0.175577
v -0.119900 0.454253 0.238054
v -0.091097 0.296604 0.295955
v -0.129032 0.203568 0.257970
v -0.223529 0.297941 0.202467
v -0.093955 0.162527 0.257425
v 0.002043 0.157710 0.287449
v -0.176707 0.384563 0.238067
v -0.054269 0.264966 0.308054
v -0.231995 0.504007 0.109098
v -0.125314 0.127072 0.200085
v -0.291083 0.368724 0.142110
v -0.162001 0.237670 0.246299
v -0.085776 0.405130 0.271450
v -0.048589 0.136433 0.272026
v -0.138406 0.412990 0.250889
v -0.037871 0.222760 0.304781
v -0.173990 0.332778 0.254230
v 0.000913 0.341921 0.312124
v -0.033323 0.034738 0.212045
v -0.048542 0.318987 0.309481
v -0.039485 0.416002 0.279324
v -0.127613 0.365699 0.280682
v -0.381698 0.460952 0.000000
v 0.001156 0.111943 0.274028
v -0.040445 0.091078 0.244985
v -0.067003 0.068416 0.209339
v -0.194710 0.567385 0.000000
v -0.184465 0.280730 0.237323
v -0.179820 0.532777 0.104072
v -0.599383 0.000859 0.000000
v -0.293725 0.000370 0.317637
v -0.587609 0.112995 0.000000
v -0.577288 0.155985 0.000000
v -0.523586 0.290227 0.000000
v -0.402266 0.218899 0.199698
v -0.595255 0.053319 0.000000
v -0.460155 0.057805 0.243311
v -0.548091 0.239205 0.000000
v -0.443413 0.000559 0.261686
v -0.418162 0.274457 0.144398
v -0.200031 0.000763 0.302263
v -0.500522 0.140533 0.170618
v -0.520717 0.046792 0.173085
v -0.498792 0.330686 0.000000
v -0.245709 0.113313 0.276979
v -0.505789 0.094394 0.180632
v -0.477545 0.283707 0.091773
v -0.346167 0.087198 0.294078
v -0.053889 0.000633 0.230245
v -0.400739 0.329110 0.098228
v -0.551334 0.080085 0.115616
v -0.492299 0.000873 0.214459
v -0.431389 0.176125 0.210394
v -0.277648 0.140042 0.301737
v -0.389663 0.000669 0.294168
v -0.373796 0.250724 0.180316
v -0.566331 0.033498 0.088795
v -0.422649 0.374671 0.047162
v -0.318453 0.134882 0.261384
v -0.245547 -0.000154 0.313024
v -0.328876 0.259768 0.173469
v -0.544103 0.127075 0.110665
v -0.447035 0.326380 0.081242
v -0.367939 0.045909 0.300474
v -0.178087 0.049571 0.288335
v -0.549175 0.000808 0.130561
v -0.211834 0.081611 0.286248
v -0.350309 0.213711 0.216549
v -0.451076 0.227886 0.164775
v -0.477450 0.179925 0.174513
v -0.459093 0.123167 0.218504
v -0.295085 0.093223 0.296924
v -0.201044 0.132157 0.251565
v -0.297669 0.220070 0.208600
v -0.161053 0.095536 0.256666
v -0.157642 0.000509 0.283868
v -0.382109 0.176643 0.234572
v -0.262815 0.056173 0.308551
v -0.501524 0.233259 0.108583
v -0.366695 0.292354 0.141787
v -0.235206 0.165630 0.239928
v -0.404269 0.087339 0.272639
v -0.133452 0.051750 0.263770
v -0.407957 0.134958 0.250981
v -0.219357 0.041609 0.316965
v -0.331350 0.176009 0.249156
v -0.340168 0.000607 0.311478
v -0.315544 0.047195 0.312879
v -0.413053 0.040805 0.284374
v -0.365545 0.129186 0.272483
v -0.459477 0.383172 0.000000
v -0.111049 0.000386 0.259078
v -0.088946 0.042552 0.239387
v -0.565910 0.196184 0.000000
v -0.281339 0.177667 0.246734
v -0.529875 0.180929 0.105358
v 0.424880 0.425123 0.000000
v 0.188688 0.189209 0.181491
v 0.112752 0.589084 0.000000
v 0.155743 0.578763 0.000000
v 0.289984 0.525061 0.000000
v 0.221640 0.405555 0.201279
v 0.053076 0.596730 0.000000
v 0.058518 0.462119 0.243698
v 0.311618 0.311817 0.107504
v 0.238963 0.549565 0.000000
v 0.098221 0.097874 0.205751
v 0.280331 0.422525 0.139471
v 0.140830 0.502042 0.170760
v 0.046436 0.517604 0.183505
v 0.330445 0.500267 0.000000
v 0.111335 0.249439 0.284361
v 0.094223 0.504309 0.188491
v 0.280968 0.474786 0.107273
v 0.087590 0.348168 0.294883
v 0.271504 0.271845 0.136939
v 0.330890 0.402359 0.099632
v 0.079036 0.551404 0.122365
v 0.175747 0.430899 0.216193
v 0.140910 0.276778 0.267613
v 0.253671 0.376690 0.183200
v 0.032817 0.566915 0.091383
v 0.374638 0.423917 0.046934
v 0.389500 0.389425 0.036839
v 0.134000 0.318587 0.277094
v 0.155582 0.156007 0.193037
v 0.257136 0.331639 0.181528
v 0.128663 0.551555 0.099482
v 0.325225 0.446935 0.090505
v 0.046060 0.369380 0.302916
v 0.051760 0.177829 0.292800
v 0.081770 0.214715 0.310371
v 0.218587 0.353540 0.198914
v 0.351148 0.350883 0.074267
v 0.228674 0.452730 0.165099
v 0.228572 0.229206 0.163046
v 0.180631 0.479308 0.175016
v 0.123462 0.459281 0.221919
v 0.093686 0.297676 0.298650
v 0.132129 0.203053 0.253867
v 0.219381 0.299811 0.208656
v 0.102580 0.156465 0.250097
v 0.181153 0.384348 0.234759
v 0.058031 0.266187 0.313850
v 0.234533 0.504317 0.109602
v 0.126896 0.126868 0.200230
v 0.292208 0.368570 0.141782
v 0.166170 0.236563 0.241113
v 0.088144 0.406116 0.272989
v 0.053429 0.133128 0.266255
v 0.135253 0.408500 0.249966
v 0.041355 0.223076 0.311717
v 0.176968 0.331989 0.259244
v 0.035071 0.034551 0.211985
v 0.048254 0.318387 0.312845
v 0.041379 0.414888 0.283769
v 0.129304 0.366197 0.271821
v 0.382930 0.460952 0.000000
v 0.043846 0.088943 0.241085
v 0.068686 0.068154 0.209378
v 0.195941 0.567385 0.000000
v 0.179802 0.282706 0.257864
v 0.181210 0.531109 0.110500
v 0.588842 0.112995 0.000000
v 0.578520 0.155985 0.000000
v 0.524819 0.290227 0.000000
v 0.402362 0.218119 0.198932
v 0.596487 0.053319 0.000000
v 0.462221 0.058304 0.244538
v 0.549323 0.239205 0.000000
v 0.419220 0.275207 0.145290
v 0.499688 0.140026 0.177014
v 0.517374 0.046506 0.183785
v 0.500025 0.330686 0.000000
v 0.247301 0.113066 0.286239
v 0.503951 0.094041 0.189217
v 0.475981 0.281851 0.097216
v 0.348238 0.088476 0.296729
v 0.402789 0.333426 0.090816
v 0.551576 0.079653 0.118417
v 0.431759 0.176634 0.217913
v 0.278043 0.138224 0.283387
v 0.374393 0.250920 0.180399
v 0.566235 0.033147 0.091409
v 0.424153 0.375303 0.047690
v 0.319608 0.136184 0.276160
v 0.328891 0.263832 0.170103
v 0.545548 0.127042 0.110849
v 0.446884 0.325561 0.080501
v 0.368748 0.045857 0.299002
v 0.181254 0.048842 0.287026
v 0.213321 0.082435 0.287838
v 0.350873 0.215796 0.218309
v 0.451811 0.228015 0.164874
v 0.478918 0.180562 0.176279
v 0.454963 0.121858 0.228006
v 0.296588 0.093136 0.308183
v 0.202316 0.132620 0.252373
v 0.298324 0.221201 0.209676
v 0.162279 0.096051 0.255644
v 0.381255 0.176851 0.259697
v 0.264593 0.056567 0.307734
v 0.502612 0.233478 0.108819
v 0.367779 0.293314 0.142774
v 0.236577 0.165657 0.240144
v 0.404967 0.087401 0.284376
v 0.135572 0.051408 0.263761
v 0.410298 0.137217 0.250283
v 0.221474 0.041425 0.301694
v 0.332013 0.177293 0.259940
v 0.317312 0.047938 0.309130
v 0.415443 0.041075 0.279379
v 0.367790 0.132014 0.266721
v 0.460709 0.383172 0.000000
v 0.090752 0.042275 0.239545
v 0.567143 0.196184 0.000000
v 0.281562 0.180472 0.243315
v 0.531067 0.180997 0.105622
v -0.423648 -0.423406 0.000000
v -0.187156 -0.187659 0.181266
v -0.111519 -0.587366 0.000000
v -0.154511 -0.577046 0.000000
v -0.288752 -0.523343 0.000000
v -0.218093 -0.402411 0.200653
v -0.051844 -0.595012 0.000000
v -0.057367 -0.463734 0.238390
v -0.309941 -0.310427 0.107351
v -0.237731 -0.547848 0.000000
v -0.096594 -0.096796 0.206058
v -0.274295 -0.418818 0.145793
v -0.139480 -0.501166 0.171312
v -0.044811 -0.515527 0.182892
v -0.329212 -0.498550 0.000000
v -0.111196 -0.248248 0.283812
v -0.092485 -0.502758 0.188694
v -0.280778 -0.475275 0.097502
v -0.086116 -0.346486 0.302029
v -0.269871 -0.270439 0.136535
v -0.333355 -0.401931 0.090406
v -0.079941 -0.561236 0.094526
v -0.174541 -0.430192 0.216903
v -0.138212 -0.276770 0.271487
v -0.249942 -0.374065 0.185320
v -0.030904 -0.566031 0.091715
v -0.373876 -0.422768 0.047647
v -0.387917 -0.388069 0.036884
v -0.133014 -0.317465 0.276801
v -0.154153 -0.154355 0.192975
v -0.257651 -0.329288 0.178158
v -0.126395 -0.545579 0.109825
v -0.323922 -0.445556 0.082958
v -0.044832 -0.368557 0.299472
v -0.047000 -0.180891 0.298951
v -0.083195 -0.212502 0.291099
v -0.214656 -0.350528 0.216177
v -0.348886 -0.350052 0.074152
v -0.226879 -0.451189 0.165278
v -0.227122 -0.227737 0.162631
v -0.179137 -0.478217 0.175347
v -0.120535 -0.454504 0.227733
v -0.093204 -0.295995 0.298966
v -0.131396 -0.201011 0.252918
v -0.218961 -0.298191 0.211559
v -0.091366 -0.163483 0.268067
v -0.173004 -0.379992 0.240965
v -0.055720 -0.264578 0.317321
v -0.232356 -0.501750 0.109033
v -0.125428 -0.125463 0.200413
v -0.290820 -0.366842 0.144611
v -0.172967 -0.231059 0.230026
v -0.087296 -0.406334 0.272344
v -0.049889 -0.132713 0.265560
v -0.134927 -0.408944 0.249597
v -0.042034 -0.220451 0.309208
v -0.175173 -0.330777 0.249758
v -0.033303 -0.033459 0.212108
v -0.046932 -0.316971 0.311735
v -0.041690 -0.421316 0.273846
v -0.127525 -0.364852 0.271024
v -0.381698 -0.459234 0.000000
v -0.041073 -0.088526 0.240273
v -0.066893 -0.067129 0.209598
v -0.194710 -0.565668 0.000000
v -0.179893 -0.280929 0.243609
v -0.180541 -0.531405 0.102915
v -0.587609 -0.111278 0.000000
v -0.577288 -0.154268 0.000000
v -0.523586 -0.288510 0.000000
v -0.401741 -0.217252 0.199525
v -0.595255 -0.051602 0.000000
v -0.465241 -0.057197 0.236340
v -0.548091 -0.237488 0.000000
v -0.417781 -0.274382 0.145508
v -0.500732 -0.138998 0.170855
v -0.515889 -0.044913 0.183507
v -0.498792 -0.328969 0.000000
v -0.248088 -0.110340 0.282757
v -0.502708 -0.092492 0.188696
v -0.472373 -0.278213 0.118269
v -0.346638 -0.086220 0.290948
v -0.400410 -0.327917 0.108843
v -0.551910 -0.077804 0.115452
v -0.429645 -0.173882 0.216009
v -0.276305 -0.138188 0.271390
v -0.373777 -0.250488 0.181604
v -0.563087 -0.031108 0.097034
v -0.422664 -0.373319 0.047132
v -0.316993 -0.133343 0.277738
v -0.329209 -0.256255 0.179382
v -0.545371 -0.125161 0.111191
v -0.448123 -0.326796 0.082130
v -0.367285 -0.044122 0.301488
v -0.175023 -0.051527 0.281297
v -0.213071 -0.081219 0.287696
v -0.349710 -0.212664 0.216880
v -0.450224 -0.225884 0.163976
v -0.481152 -0.180591 0.169790
v -0.454488 -0.120295 0.227629
v -0.295758 -0.091697 0.296335
v -0.201614 -0.130645 0.251459
v -0.297188 -0.219395 0.208856
v -0.159501 -0.096268 0.250799
v -0.379313 -0.172041 0.239734
v -0.263661 -0.055207 0.307789
v -0.503748 -0.232839 0.110105
v -0.366193 -0.293327 0.137810
v -0.235380 -0.164038 0.239377
v -0.404408 -0.085946 0.271091
v -0.131363 -0.052818 0.258577
v -0.408389 -0.134358 0.251674
v -0.220975 -0.039795 0.302085
v -0.330088 -0.174376 0.248684
v -0.316132 -0.046366 0.310337
v -0.414124 -0.039549 0.278757
v -0.364364 -0.127549 0.280421
v -0.459477 -0.381455 0.000000
v -0.088591 -0.041488 0.239993
v -0.565910 -0.194467 0.000000
v -0.280281 -0.178839 0.242389
v -0.528759 -0.178500 0.115456
v 0.000616 -0.599141 0.000000
v 0.424880 -0.423406 0.000000
v 0.188858 -0.187598 0.181004
v 0.000090 -0.293982 0.318146
v 0.112752 -0.587366 0.000000
v 0.155743 -0.577046 0.000000
v 0.289984 -0.523343 0.000000
v 0.219063 -0.401929 0.199799
v 0.053076 -0.595012 0.000000
v 0.058001 -0.459483 0.242422
v 0.311605 -0.310160 0.107423
v 0.238963 -0.547848 0.000000
v 0.000978 -0.441974 0.265141
v 0.098158 -0.096790 0.205743
v 0.275096 -0.418258 0.144995
v 0.000306 -0.200926 0.316323
v 0.140641 -0.500877 0.170396
v 0.046584 -0.519136 0.176622
v 0.330445 -0.498550 0.000000
v 0.111066 -0.247912 0.282719
v 0.094853 -0.508337 0.178908
v 0.282140 -0.475219 0.097357
v 0.090010 -0.349386 0.290273
v 0.271616 -0.270305 0.136639
v 0.000914 -0.053802 0.230101
v 0.329123 -0.400749 0.098205
v 0.079179 -0.552333 0.115709
v 0.000901 -0.488224 0.221957
v 0.175244 -0.429265 0.215759
v 0.137991 -0.277025 0.280691
v 0.000365 -0.390498 0.295196
v 0.251776 -0.373967 0.181329
v 0.032710 -0.565376 0.091534
v 0.374182 -0.422467 0.046779
v 0.389515 -0.387831 0.037129
v 0.133825 -0.317592 0.279526
v -0.000048 -0.247444 0.316175
v 0.155698 -0.154392 0.192599
v 0.258920 -0.329395 0.177598
v 0.128143 -0.550417 0.098106
v 0.326276 -0.446815 0.081050
v 0.045312 -0.368394 0.300061
v 0.048627 -0.179800 0.287245
v 0.000644 -0.549035 0.130305
v 0.082164 -0.212431 0.287483
v 0.213711 -0.349644 0.216100
v 0.350887 -0.349336 0.074247
v 0.228048 -0.450823 0.164821
v 0.228778 -0.227568 0.162642
v 0.180373 -0.477852 0.175106
v 0.121084 -0.453335 0.226188
v 0.092376 -0.296102 0.295731
v 0.130890 -0.202217 0.255332
v 0.226396 -0.295283 0.200694
v 0.095303 -0.161528 0.256880
v 0.001236 -0.152944 0.284931
v 0.175128 -0.380071 0.237733
v 0.055475 -0.264135 0.315042
v 0.234061 -0.501769 0.108982
v 0.126860 -0.125611 0.200059
v 0.292705 -0.366775 0.141991
v 0.165699 -0.235268 0.239834
v 0.088128 -0.405228 0.269436
v 0.051657 -0.133846 0.264157
v 0.135267 -0.407346 0.250292
v 0.040992 -0.220542 0.304099
v 0.175528 -0.330251 0.248159
v 0.000149 -0.340618 0.311916
v 0.034963 -0.033444 0.212069
v 0.047143 -0.316723 0.311784
v 0.040993 -0.414157 0.278858
v 0.129822 -0.365150 0.272129
v 0.382930 -0.459234 0.000000
v 0.001060 -0.109345 0.261116
v 0.042965 -0.088769 0.240051
v 0.068533 -0.067097 0.209431
v 0.195941 -0.565668 0.000000
v 0.179980 -0.280350 0.242535
v 0.180271 -0.527391 0.118309
v 0.600616 0.000859 0.000000
v 0.294658 0.001124 0.317164
v 0.588842 -0.111278 0.000000
v 0.578520 -0.154268 0.000000
v 0.524819 -0.288510 0.000000
v 0.403271 -0.217845 0.200994
v 0.596487 -0.051602 0.000000
v 0.461238 -0.056299 0.243400
v 0.549323 -0.237488 0.000000
v 0.445903 0.000867 0.261280
v 0.419422 -0.273494 0.145320
v 0.201309 0.000568 0.305857
v 0.502222 -0.138889 0.171228
v 0.519726 -0.044750 0.179705
v 0.500025 -0.328969 0.000000
v 0.249258 -0.110272 0.283130
v 0.502645 -0.091945 0.192345
v 0.476762 -0.280279 0.097677
v 0.347149 -0.085311 0.293732
v 0.055192 0.000651 0.230647
v 0.402166 -0.328418 0.099307
v 0.552180 -0.077940 0.117544
v 0.489976 0.000807 0.222333
v 0.430743 -0.173629 0.216345
v 0.277623 -0.137855 0.271335
v 0.390750 0.000915 0.294187
v 0.376580 -0.256207 0.175350
v 0.566237 -0.031342 0.091462
v 0.426729 -0.377728 0.038199
v 0.318276 -0.132504 0.277035
v 0.247363 0.001399 0.313371
v 0.330872 -0.256312 0.177190
v 0.546125 -0.125286 0.110330
v 0.447558 -0.323670 0.084686
v 0.368772 -0.044003 0.299140
v 0.181528 -0.047380 0.299620
v 0.550015 0.001083 0.130223
v 0.214516 -0.079994 0.301267
v 0.351188 -0.213104 0.217995
v 0.450518 -0.224912 0.170692
v 0.479457 -0.178449 0.175420
v 0.455437 -0.120084 0.227893
v 0.296739 -0.092323 0.296093
v 0.202646 -0.131321 0.251940
v 0.298761 -0.219381 0.209152
v 0.163913 -0.092978 0.263030
v 0.158146 0.000669 0.286276
v 0.380728 -0.172387 0.240849
v 0.264892 -0.054839 0.310391
v 0.501566 -0.230677 0.114738
v 0.367984 -0.291634 0.142528
v 0.236688 -0.164293 0.239693
v 0.405438 -0.085946 0.272995
v 0.134489 -0.050564 0.264893
v 0.408680 -0.133651 0.251142
v 0.221885 -0.039619 0.312559
v 0.331462 -0.174470 0.249436
v 0.341145 0.000984 0.311099
v 0.317219 -0.045873 0.310448
v 0.414989 -0.039333 0.278745
v 0.365639 -0.127303 0.271674
v 0.460709 -0.381455 0.000000
v 0.110259 0.000674 0.258378
v 0.090813 -0.040784 0.240991
v 0.567143 -0.194467 0.000000
v 0.281718 -0.178767 0.243144
v 0.531784 -0.179274 0.105858
f 45 34 19
f 49 51 60
f 37 79 31
f 15 65 56
f 18 52 22
f 9 49 16
f 23 20 42
f 48 12 62
f 10 6 28
f 53 59 71
f 22 11 19
f 7 80 41
f 73 24 64
f 46 44 67
f 33 62 40
f 41 22 28
f 11 52 64
f 28 34 10
f 14 29 11
f 8 20 23
f 37 31 53
f 46 59 21
f 18 51 52
f 45 19 29
f 70 26 76
f 23 16 49
f 2 35 74
f 42 35 27
f 63 21 31
f 30 52 51
f 13 8 60
f 25 50 55
f 27 62 16
f 27 35 36
f 1 10 34
f 41 80 18
f 40 47 33
f 53 71 24
f 21 54 46
f 44 57 17
f 36 48 27
f 16 33 9
f 1 34 45
f 34 28 19
f 23 42 16
f 2 36 35
f 47 55 68
f 37 24 73
f 17 67 44
f 39 56 54
f 58 9 47
f 25 40 12
f 41 6 7
f 51 18 80
f 42 74 35
f 14 11 72
f 44 56 65
f 44 65 57
f 43 64 24
f 73 66 58
f 53 21 59
f 46 54 56
f 33 47 9
f 55 47 40
f 33 16 62
f 9 30 49
f 49 60 23
f 29 19 11
f 16 42 27
f 6 41 28
f 14 72 32
f 51 49 30
f 22 52 11
f 30 58 66
f 37 53 24
f 38 5 59
f 39 54 3
f 54 21 63
f 55 79 68
f 56 44 46
f 15 56 61
f 9 58 30
f 68 37 73
f 59 67 38
f 5 69 71
f 13 60 80
f 23 60 8
f 39 61 56
f 40 62 12
f 48 62 27
f 54 63 3
f 53 31 21
f 64 43 72
f 64 52 66
f 32 43 69
f 19 28 22
f 22 41 18
f 57 65 75
f 30 66 52
f 66 73 64
f 67 17 38
f 46 67 59
f 3 63 50
f 68 79 37
f 47 68 58
f 71 69 43
f 70 76 77
f 24 71 43
f 64 72 11
f 32 72 43
f 68 73 58
f 42 20 74
f 75 65 76
f 75 76 26
f 15 76 65
f 4 26 70
f 71 59 5
f 15 77 76
f 78 80 7
f 31 79 63
f 55 40 25
f 63 79 50
f 13 80 78
f 51 80 60
f 79 55 50
f 94 108 117
f 130 121 120
f 105 146 110
f 126 134 15
f 97 122 93
f 91 120 86
f 114 95 98
f 131 12 48
f 102 83 87
f 139 129 123
f 94 88 97
f 113 147 84
f 133 99 141
f 136 116 118
f 112 131 107
f 102 97 113
f 133 122 88
f 87 108 102
f 88 103 90
f 98 95 85
f 123 105 110
f 96 129 118
f 122 121 93
f 103 94 117
f 144 100 70
f 120 91 98
f 142 109 2
f 101 109 114
f 105 96 132
f 121 122 104
f 130 85 89
f 125 50 25
f 91 131 101
f 36 109 101
f 108 87 81
f 93 147 113
f 107 119 112
f 99 139 123
f 118 124 96
f 92 127 116
f 101 48 36
f 86 107 91
f 117 108 81
f 94 102 108
f 91 114 98
f 109 36 2
f 137 125 119
f 141 99 110
f 116 136 92
f 124 126 39
f 119 86 128
f 12 112 25
f 84 83 113
f 147 93 121
f 109 142 114
f 140 88 90
f 134 126 116
f 127 134 116
f 99 133 115
f 128 135 141
f 129 96 123
f 126 124 118
f 86 119 107
f 112 119 125
f 131 91 107
f 120 104 86
f 98 130 120
f 88 94 103
f 101 114 91
f 102 113 83
f 106 140 90
f 104 120 121
f 88 122 97
f 135 128 104
f 99 123 110
f 129 82 111
f 3 124 39
f 132 96 124
f 137 146 125
f 118 116 126
f 61 126 15
f 104 128 86
f 141 110 137
f 111 136 129
f 139 138 82
f 147 130 89
f 85 130 98
f 126 61 39
f 12 131 112
f 101 131 48
f 3 132 124
f 96 105 123
f 140 115 133
f 135 122 133
f 138 115 106
f 97 102 94
f 93 113 97
f 143 134 127
f 122 135 104
f 133 141 135
f 111 92 136
f 129 136 118
f 50 132 3
f 110 146 137
f 128 137 119
f 115 138 139
f 77 144 70
f 115 139 99
f 88 140 133
f 115 140 106
f 128 141 137
f 142 95 114
f 144 134 143
f 100 144 143
f 134 144 15
f 70 100 4
f 82 129 139
f 144 77 15
f 84 147 145
f 132 146 105
f 25 112 125
f 50 146 132
f 145 147 89
f 130 147 121
f 50 125 146
f 161 173 45
f 196 188 186
f 171 213 176
f 193 201 158
f 164 189 160
f 159 186 153
f 180 162 165
f 198 156 185
f 169 150 154
f 206 195 190
f 161 155 164
f 179 214 151
f 200 166 208
f 203 182 183
f 178 198 172
f 169 164 179
f 200 189 155
f 154 173 169
f 155 29 14
f 165 162 152
f 190 171 176
f 163 195 183
f 189 188 160
f 29 161 45
f 210 26 205
f 186 159 165
f 209 174 148
f 168 174 180
f 171 163 199
f 188 189 170
f 196 152 157
f 192 187 167
f 159 198 168
f 175 174 168
f 173 154 1
f 160 214 179
f 172 184 178
f 166 206 190
f 183 191 163
f 17 57 182
f 168 185 175
f 153 172 159
f 45 173 1
f 161 169 173
f 159 180 165
f 174 175 148
f 204 192 184
f 208 166 176
f 182 203 17
f 191 193 177
f 184 153 194
f 156 178 167
f 151 150 179
f 214 160 188
f 174 209 180
f 207 155 14
f 201 193 182
f 57 201 182
f 166 200 181
f 194 202 208
f 195 163 190
f 193 191 183
f 153 184 172
f 178 184 192
f 198 159 172
f 186 170 153
f 165 196 186
f 155 161 29
f 168 180 159
f 169 179 150
f 32 207 14
f 170 186 188
f 155 189 164
f 202 194 170
f 166 190 176
f 195 5 38
f 149 191 177
f 199 163 191
f 204 213 192
f 183 182 193
f 197 193 158
f 170 194 153
f 208 176 204
f 38 203 195
f 206 69 5
f 214 196 157
f 152 196 165
f 193 197 177
f 156 198 178
f 168 198 185
f 149 199 191
f 163 171 190
f 207 181 200
f 202 189 200
f 69 181 32
f 164 169 161
f 160 179 164
f 75 201 57
f 189 202 170
f 200 208 202
f 38 17 203
f 195 203 183
f 187 199 149
f 176 213 204
f 194 204 184
f 181 69 206
f 211 210 205
f 181 206 166
f 155 207 200
f 181 207 32
f 194 208 204
f 209 162 180
f 210 201 75
f 26 210 75
f 201 210 158
f 205 26 4
f 5 195 206
f 210 211 158
f 151 214 212
f 199 213 171
f 167 178 192
f 187 213 199
f 212 214 157
f 196 214 188
f 187 192 213
f 507 235 224
f 245 246 254
f 237 268 233
f 158 258 251
f 223 247 227
f 218 245 222
f 228 225 240
f 185 156 255
f 219 215 231
f 248 253 262
f 227 220 224
f 216 269 239
f 264 229 257
f 243 242 260
f 234 255 238
f 239 227 231
f 220 247 257
f 231 235 219
f 480 493 220
f 217 225 228
f 237 233 248
f 243 253 226
f 223 246 247
f 507 224 493
f 205 490 266
f 228 222 245
f 148 236 265
f 240 236 230
f 256 226 233
f 232 247 246
f 221 217 254
f 167 187 250
f 230 255 222
f 230 236 175
f 471 219 235
f 239 269 223
f 238 244 234
f 248 262 229
f 226 249 243
f 242 517 482
f 175 185 230
f 222 234 218
f 471 235 507
f 235 231 224
f 228 240 222
f 148 175 236
f 244 250 261
f 237 229 264
f 482 260 242
f 177 251 249
f 252 218 244
f 167 238 156
f 239 215 216
f 246 223 269
f 240 265 236
f 480 220 263
f 242 251 258
f 242 258 517
f 241 257 229
f 264 259 252
f 248 226 253
f 243 249 251
f 234 244 218
f 250 244 238
f 234 222 255
f 218 232 245
f 245 254 228
f 493 224 220
f 222 240 230
f 215 239 231
f 480 263 496
f 246 245 232
f 227 247 220
f 232 252 259
f 237 248 229
f 501 472 253
f 177 249 149
f 249 226 256
f 250 268 261
f 251 242 243
f 158 251 197
f 218 252 232
f 261 237 264
f 253 260 501
f 472 528 262
f 221 254 269
f 228 254 217
f 177 197 251
f 238 255 156
f 185 255 230
f 249 256 149
f 248 233 226
f 257 241 263
f 257 247 259
f 496 241 528
f 224 231 227
f 227 239 223
f 517 258 533
f 232 259 247
f 259 264 257
f 260 482 501
f 243 260 253
f 149 256 187
f 261 268 237
f 244 261 252
f 262 528 241
f 205 266 211
f 229 262 241
f 257 263 220
f 496 263 241
f 261 264 252
f 240 225 265
f 533 258 266
f 533 266 490
f 158 266 258
f 4 490 205
f 262 253 472
f 158 211 266
f 267 269 216
f 233 268 256
f 250 238 167
f 256 268 187
f 221 269 267
f 246 269 254
f 268 250 187
f 283 295 435
f 318 310 308
f 293 335 298
f 315 323 280
f 286 311 282
f 281 308 275
f 302 284 287
f 320 278 307
f 291 272 276
f 328 317 312
f 283 277 286
f 301 336 273
f 322 288 330
f 325 304 305
f 300 320 294
f 291 286 301
f 322 311 277
f 276 295 291
f 277 419 404
f 287 284 274
f 312 293 298
f 285 317 305
f 311 310 282
f 419 283 435
f 332 416 327
f 308 281 287
f 331 296 270
f 290 296 302
f 293 285 321
f 310 311 292
f 318 274 279
f 314 309 289
f 281 320 290
f 297 296 290
f 295 276 392
f 282 336 301
f 294 306 300
f 288 328 312
f 305 313 285
f 407 447 304
f 290 307 297
f 275 294 281
f 435 295 392
f 283 291 295
f 281 302 287
f 296 297 270
f 326 314 306
f 330 288 298
f 304 325 407
f 313 315 299
f 306 275 316
f 278 300 289
f 273 272 301
f 336 282 310
f 296 331 302
f 329 277 404
f 323 315 304
f 447 323 304
f 288 322 303
f 316 324 330
f 317 285 312
f 315 313 305
f 275 306 294
f 300 306 314
f 320 281 294
f 308 292 275
f 287 318 308
f 277 283 419
f 290 302 281
f 291 301 272
f 422 329 404
f 292 308 310
f 277 311 286
f 324 316 292
f 288 312 298
f 317 395 428
f 271 313 299
f 321 285 313
f 326 335 314
f 305 304 315
f 319 315 280
f 292 316 275
f 330 298 326
f 428 325 317
f 328 459 395
f 336 318 279
f 274 318 287
f 315 319 299
f 278 320 300
f 290 320 307
f 271 321 313
f 285 293 312
f 329 303 322
f 324 311 322
f 459 303 422
f 286 291 283
f 282 301 286
f 465 323 447
f 311 324 292
f 322 330 324
f 428 407 325
f 317 325 305
f 309 321 271
f 298 335 326
f 316 326 306
f 303 459 328
f 333 332 327
f 303 328 288
f 277 329 322
f 303 329 422
f 316 330 326
f 331 284 302
f 332 323 465
f 416 332 465
f 323 332 280
f 327 416 4
f 395 317 328
f 332 333 280
f 273 336 334
f 321 335 293
f 289 300 314
f 309 335 321
f 334 336 279
f 318 336 310
f 309 314 335
f 117 357 346
f 367 368 376
f 359 390 355
f 280 380 373
f 345 369 349
f 340 367 344
f 350 347 362
f 307 278 377
f 341 337 353
f 370 375 384
f 349 342 346
f 338 391 361
f 386 351 379
f 365 364 382
f 356 377 360
f 361 349 353
f 342 369 379
f 353 357 341
f 90 103 342
f 339 347 350
f 359 355 370
f 365 375 348
f 345 368 369
f 117 346 103
f 327 100 388
f 350 344 367
f 270 358 387
f 362 358 352
f 378 348 355
f 354 369 368
f 343 339 376
f 289 309 372
f 352 377 344
f 352 358 297
f 81 341 357
f 361 391 345
f 360 366 356
f 370 384 351
f 348 371 365
f 364 127 92
f 297 307 352
f 344 356 340
f 81 357 117
f 357 353 346
f 350 362 344
f 270 297 358
f 366 372 383
f 359 351 386
f 92 382 364
f 299 373 371
f 374 340 366
f 289 360 278
f 361 337 338
f 368 345 391
f 362 387 358
f 90 342 385
f 364 373 380
f 364 380 127
f 363 379 351
f 386 381 374
f 370 348 375
f 365 371 373
f 356 366 340
f 372 366 360
f 356 344 377
f 340 354 367
f 367 376 350
f 103 346 342
f 344 362 352
f 337 361 353
f 90 385 106
f 368 367 354
f 349 369 342
f 354 374 381
f 359 370 351
f 111 82 375
f 299 371 271
f 371 348 378
f 372 390 383
f 373 364 365
f 280 373 319
f 340 374 354
f 383 359 386
f 375 382 111
f 82 138 384
f 343 376 391
f 350 376 339
f 299 319 373
f 360 377 278
f 307 377 352
f 371 378 271
f 370 355 348
f 379 363 385
f 379 369 381
f 106 363 138
f 346 353 349
f 349 361 345
f 127 380 143
f 354 381 369
f 381 386 379
f 382 92 111
f 365 382 375
f 271 378 309
f 383 390 359
f 366 383 374
f 384 138 363
f 327 388 333
f 351 384 363
f 379 385 342
f 106 385 363
f 383 386 374
f 362 347 387
f 143 380 388
f 143 388 100
f 280 388 380
f 4 100 327
f 384 375 82
f 280 333 388
f 389 391 338
f 355 390 378
f 372 360 289
f 378 390 309
f 343 391 389
f 368 391 376
f 390 372 309
f 435 424 409
f 439 441 450
f 427 469 421
f 405 455 446
f 408 442 412
f 399 439 406
f 413 410 432
f 438 402 452
f 400 396 418
f 443 449 461
f 412 401 409
f 397 470 431
f 463 414 454
f 436 434 457
f 423 452 430
f 431 412 418
f 401 442 454
f 418 424 400
f 404 419 401
f 398 410 413
f 427 421 443
f 436 449 411
f 408 441 442
f 435 409 419
f 460 416 466
f 413 406 439
f 393 425 464
f 432 425 417
f 453 411 421
f 420 442 441
f 403 398 450
f 415 440 445
f 417 452 406
f 417 425 426
f 392 400 424
f 431 470 408
f 430 437 423
f 443 461 414
f 411 444 436
f 434 447 407
f 426 438 417
f 406 423 399
f 392 424 435
f 424 418 409
f 413 432 406
f 393 426 425
f 437 445 458
f 427 414 463
f 407 457 434
f 429 446 444
f 448 399 437
f 415 430 402
f 431 396 397
f 441 408 470
f 432 464 425
f 404 401 462
f 434 446 455
f 434 455 447
f 433 454 414
f 463 456 448
f 443 411 449
f 436 444 446
f 423 437 399
f 445 437 430
f 423 406 452
f 399 420 439
f 439 450 413
f 419 409 401
f 406 432 417
f 396 431 418
f 404 462 422
f 441 439 420
f 412 442 401
f 420 448 456
f 427 443 414
f 428 395 449
f 429 444 394
f 444 411 453
f 445 469 458
f 446 434 436
f 405 446 451
f 399 448 420
f 458 427 463
f 449 457 428
f 395 459 461
f 403 450 470
f 413 450 398
f 429 451 446
f 430 452 402
f 438 452 417
f 444 453 394
f 443 421 411
f 454 433 462
f 454 442 456
f 422 433 459
f 409 418 412
f 412 431 408
f 447 455 465
f 420 456 442
f 456 463 454
f 457 407 428
f 436 457 449
f 394 453 440
f 458 469 427
f 437 458 448
f 461 459 433
f 460 466 467
f 414 461 433
f 454 462 401
f 422 462 433
f 458 463 448
f 432 410 464
f 465 455 466
f 465 466 416
f 405 466 455
f 4 416 460
f 461 449 395
f 405 467 466
f 468 470 397
f 421 469 453
f 445 430 415
f 453 469 440
f 403 470 468
f 441 470 450
f 469 445 440
f 484 498 507
f 520 511 510
f 495 536 500
f 516 524 405
f 487 512 483
f 481 510 476
f 504 485 488
f 521 402 438
f 492 473 477
f 529 519 513
f 484 478 487
f 503 537 474
f 523 489 531
f 526 506 508
f 502 521 497
f 492 487 503
f 523 512 478
f 477 498 492
f 478 493 480
f 488 485 475
f 513 495 500
f 486 519 508
f 512 511 483
f 493 484 507
f 534 490 460
f 510 481 488
f 532 499 393
f 491 499 504
f 495 486 522
f 511 512 494
f 520 475 479
f 515 440 415
f 481 521 491
f 426 499 491
f 498 477 471
f 483 537 503
f 497 509 502
f 489 529 513
f 508 514 486
f 482 517 506
f 491 438 426
f 476 497 481
f 507 498 471
f 484 492 498
f 481 504 488
f 499 426 393
f 527 515 509
f 531 489 500
f 506 526 482
f 514 516 429
f 509 476 518
f 402 502 415
f 474 473 503
f 537 483 511
f 499 532 504
f 530 478 480
f 524 516 506
f 517 524 506
f 489 523 505
f 518 525 531
f 519 486 513
f 516 514 508
f 476 509 497
f 502 509 515
f 521 481 497
f 510 494 476
f 488 520 510
f 478 484 493
f 491 504 481
f 492 503 473
f 496 530 480
f 494 510 511
f 478 512 487
f 525 518 494
f 489 513 500
f 519 472 501
f 394 514 429
f 522 486 514
f 527 536 515
f 508 506 516
f 451 516 405
f 494 518 476
f 531 500 527
f 501 526 519
f 529 528 472
f 537 520 479
f 475 520 488
f 516 451 429
f 402 521 502
f 491 521 438
f 394 522 514
f 486 495 513
f 530 505 523
f 525 512 523
f 528 505 496
f 487 492 484
f 483 503 487
f 533 524 517
f 512 525 494
f 523 531 525
f 501 482 526
f 519 526 508
f 440 522 394
f 500 536 527
f 518 527 509
f 505 528 529
f 467 534 460
f 505 529 489
f 478 530 523
f 505 530 496
f 518 531 527
f 532 485 504
f 534 524 533
f 490 534 533
f 524 534 405
f 460 490 4
f 472 519 529
f 534 467 405
f 474 537 535
f 522 536 495
f 415 502 515
f 440 536 522
f 535 537 479
f 520 537 511
f 440 515 536
