# 4part FEM knit+cable best fit (4part_s_pw_crestd2)
# interior RMSE  : 4.648 mm
# max deviation  : 14.982 mm
# crown          : 0.31874 m (target 0.32177 m)
# max disp/rest  : 14.982 mm (floor 5.0 mm)
# regions        : 16 (4 D4 slots), 17 parameters
v 0.000616 0.600859 0.000000
v -0.423648 0.425123 0.000000
v -0.187871 0.189800 0.181792
v 0.000765 0.000428 0.213004
v 0.001080 0.296064 0.318737
v -0.111519 0.589084 0.000000
v -0.154511 0.578763 0.000000
v -0.288752 0.525061 0.000000
v -0.218261 0.404408 0.200816
v -0.051844 0.596730 0.000000
v -0.056966 0.463970 0.236557
v -0.310711 0.312529 0.107893
v -0.237731 0.549565 0.000000
v 0.001037 0.440850 0.266909
v -0.097197 0.098730 0.206159
v -0.274636 0.421072 0.146140
v 0.002398 0.203275 0.315819
v -0.141154 0.508036 0.161666
v -0.044475 0.515455 0.180939
v -0.329212 0.500267 0.000000
v -0.111615 0.248434 0.284803
v -0.091571 0.500001 0.197084
v -0.281700 0.478409 0.098567
v -0.086680 0.347905 0.288652
v -0.270527 0.272561 0.137579
v 0.001043 0.055571 0.231543
v -0.327735 0.403728 0.098203
v -0.077278 0.550629 0.113414
v 0.001008 0.487973 0.219762
v -0.173894 0.431629 0.216131
v -0.138257 0.277857 0.283642
v 0.000869 0.391537 0.295069
v -0.250799 0.376451 0.182287
v -0.031142 0.564102 0.088823
v -0.374650 0.425282 0.047946
v -0.388817 0.390410 0.037052
v -0.134914 0.318311 0.277766
v 0.001400 0.249956 0.318218
v -0.154727 0.156519 0.193184
v -0.257537 0.331815 0.178261
v -0.124373 0.544292 0.109586
v -0.331632 0.454811 0.070886
v -0.044303 0.369457 0.300848
v -0.047633 0.181537 0.288117
v 0.000655 0.547379 0.126866
v -0.081484 0.213999 0.287561
v -0.212085 0.352012 0.216160
v -0.350239 0.351904 0.074285
v -0.225714 0.451972 0.168951
v -0.227589 0.229899 0.163645
v -0.178018 0.479366 0.174652
v -0.119862 0.452840 0.235953
v -0.092205 0.296723 0.295049
v -0.130181 0.203953 0.257893
v -0.224068 0.298196 0.202568
v -0.095221 0.162884 0.257292
v 0.002062 0.158190 0.288545
v -0.176960 0.384123 0.237004
v -0.055014 0.265542 0.307849
v -0.232095 0.504344 0.109786
v -0.125949 0.127657 0.200546
v -0.291859 0.369508 0.142822
v -0.163075 0.237980 0.246204
v -0.085999 0.404198 0.269503
v -0.049642 0.136871 0.272350
v -0.138693 0.412537 0.249657
v -0.038402 0.223521 0.304986
v -0.174784 0.332796 0.253636
v 0.000834 0.342056 0.311552
v -0.033770 0.035060 0.212439
v -0.049175 0.319304 0.308925
v -0.039718 0.415074 0.277631
v -0.128504 0.365407 0.279673
v -0.381698 0.460952 0.000000
v 0.001123 0.112445 0.275102
v -0.041339 0.091275 0.245432
v -0.067505 0.068861 0.209798
v -0.194710 0.567385 0.000000
v -0.185204 0.280903 0.237003
v -0.179010 0.531698 0.103378
v -0.599383 0.000859 0.000000
v -0.294255 0.000501 0.318019
v -0.587609 0.112995 0.000000
v -0.577288 0.155985 0.000000
v -0.523586 0.290227 0.000000
v -0.402882 0.219406 0.200229
v -0.595255 0.053319 0.000000
v -0.459190 0.058087 0.241877
v -0.548091 0.239205 0.000000
v -0.442607 0.000633 0.260262
v -0.419251 0.275441 0.145406
v -0.200694 0.000970 0.303218
v -0.499466 0.140065 0.169694
v -0.518922 0.046569 0.171042
v -0.498792 0.330686 0.000000
v -0.246016 0.114693 0.276791
v -0.504310 0.094012 0.179129
v -0.478852 0.285085 0.092883
v -0.346344 0.087911 0.293797
v -0.054184 0.000721 0.231027
v -0.401965 0.330149 0.099060
v -0.549374 0.079426 0.114122
v -0.490841 0.001093 0.212468
v -0.431416 0.175710 0.210099
v -0.277993 0.141218 0.301645
v -0.389341 0.000857 0.293363
v -0.374739 0.251329 0.181246
v -0.564416 0.033183 0.087170
v -0.423414 0.375475 0.047405
v -0.318470 0.136150 0.261034
v -0.246157 -0.000014 0.313858
v -0.329576 0.260427 0.174251
v -0.542744 0.126350 0.109706
v -0.448249 0.327816 0.082231
v -0.368023 0.046351 0.300293
v -0.178439 0.050819 0.289140
v -0.546784 0.000623 0.128163
v -0.212248 0.082934 0.286427
v -0.350827 0.214375 0.216907
v -0.451775 0.228333 0.165533
v -0.477227 0.179392 0.174341
v -0.458337 0.122966 0.217387
v -0.295386 0.094459 0.296882
v -0.201421 0.133232 0.251936
v -0.298076 0.220853 0.209070
v -0.161458 0.096560 0.257226
v -0.158188 0.000635 0.285006
v -0.382168 0.177140 0.234159
v -0.263371 0.057059 0.309137
v -0.502450 0.233802 0.109615
v -0.367749 0.293194 0.142724
v -0.235472 0.166758 0.240312
v -0.403893 0.087632 0.271686
v -0.133757 0.052831 0.264481
v -0.407801 0.135245 0.250396
v -0.220023 0.042464 0.317896
v -0.331613 0.176952 0.249291
v -0.340372 0.000737 0.311325
v -0.315939 0.047789 0.313133
v -0.412607 0.041152 0.283659
v -0.365584 0.130082 0.272056
v -0.459477 0.383172 0.000000
v -0.111449 0.000436 0.260184
v -0.089206 0.043340 0.240067
v -0.565910 0.196184 0.000000
v -0.281622 0.178624 0.246895
v -0.529594 0.180444 0.105501
v 0.424880 0.425123 0.000000
v 0.189050 0.189689 0.181951
v 0.112752 0.589084 0.000000
v 0.155743 0.578763 0.000000
v 0.289984 0.525061 0.000000
v 0.221578 0.405857 0.201517
v 0.053076 0.596730 0.000000
v 0.058538 0.460547 0.241434
v 0.312087 0.312358 0.107792
v 0.238963 0.549565 0.000000
v 0.098720 0.098375 0.206164
v 0.281051 0.423334 0.140176
v 0.139989 0.500562 0.169464
v 0.045995 0.514978 0.180534
v 0.330445 0.500267 0.000000
v 0.112608 0.249782 0.283715
v 0.093507 0.502171 0.186135
v 0.282687 0.476460 0.108620
v 0.088119 0.348225 0.293977
v 0.271783 0.272287 0.137512
v 0.331992 0.403515 0.100607
v 0.077928 0.548393 0.119894
v 0.174959 0.430683 0.215628
v 0.141738 0.277030 0.266796
v 0.253922 0.377230 0.183949
v 0.032402 0.564192 0.088695
v 0.375726 0.424801 0.047478
v 0.390139 0.390161 0.036787
v 0.135102 0.318554 0.275947
v 0.156031 0.156522 0.193440
v 0.257339 0.332160 0.182039
v 0.127583 0.549879 0.098252
v 0.327037 0.448456 0.091931
v 0.046265 0.369315 0.302211
v 0.052768 0.178031 0.293394
v 0.082679 0.215466 0.310233
v 0.218362 0.353676 0.198385
v 0.351874 0.351664 0.074258
v 0.228664 0.453066 0.165290
v 0.228854 0.229619 0.163560
v 0.179669 0.478839 0.174577
v 0.122923 0.458088 0.220195
v 0.094899 0.297937 0.297916
v 0.132983 0.203505 0.253797
v 0.219492 0.300241 0.208425
v 0.103941 0.156511 0.250157
v 0.181327 0.384048 0.233882
v 0.058884 0.267004 0.314162
v 0.234775 0.505389 0.110653
v 0.127419 0.127418 0.200605
v 0.292806 0.369456 0.142520
v 0.166879 0.236971 0.240957
v 0.088203 0.405479 0.271456
v 0.054543 0.133275 0.266570
v 0.135221 0.407957 0.248767
v 0.041526 0.224720 0.307855
v 0.177662 0.332165 0.258633
v 0.035441 0.034859 0.212332
v 0.048759 0.318854 0.312740
v 0.041405 0.414131 0.282394
v 0.130115 0.365973 0.270854
v 0.382930 0.460952 0.000000
v 0.044662 0.089017 0.241494
v 0.069117 0.068554 0.209770
v 0.195941 0.567385 0.000000
v 0.180462 0.283049 0.257438
v 0.180470 0.530660 0.110628
v 0.588842 0.112995 0.000000
v 0.578520 0.155985 0.000000
v 0.524819 0.290227 0.000000
v 0.402768 0.218111 0.199082
v 0.596487 0.053319 0.000000
v 0.461161 0.058331 0.243074
v 0.549323 0.239205 0.000000
v 0.420166 0.276108 0.146254
v 0.498500 0.139436 0.175974
v 0.515350 0.046221 0.181619
v 0.500025 0.330686 0.000000
v 0.247431 0.114469 0.286384
v 0.502288 0.093559 0.187539
v 0.477162 0.283199 0.098270
v 0.348402 0.089201 0.296713
v 0.403741 0.334448 0.091410
v 0.549461 0.078831 0.116763
v 0.431962 0.176200 0.217907
v 0.278281 0.139348 0.283411
v 0.375117 0.251407 0.181052
v 0.564173 0.032795 0.089446
v 0.424752 0.375924 0.047692
v 0.319579 0.137079 0.275465
v 0.329435 0.264486 0.170862
v 0.544183 0.126179 0.109872
v 0.447978 0.326914 0.081397
v 0.368572 0.046108 0.298242
v 0.181673 0.049743 0.287623
v 0.213588 0.083703 0.288176
v 0.351289 0.216302 0.218698
v 0.452314 0.228204 0.165371
v 0.478691 0.179855 0.176134
v 0.454075 0.121617 0.226779
v 0.296861 0.094273 0.308262
v 0.202551 0.133670 0.252791
v 0.298595 0.222018 0.210229
v 0.162511 0.097112 0.256052
v 0.381435 0.177248 0.259599
v 0.265083 0.057277 0.307984
v 0.503438 0.233840 0.109761
v 0.368731 0.294134 0.143715
v 0.236771 0.166633 0.240515
v 0.404676 0.087667 0.283766
v 0.135857 0.052350 0.264344
v 0.410013 0.137179 0.249220
v 0.221991 0.042039 0.302228
v 0.332220 0.178035 0.259997
v 0.317565 0.048378 0.308897
v 0.414732 0.041229 0.278114
v 0.367517 0.132523 0.265474
v 0.460709 0.383172 0.000000
v 0.091016 0.042936 0.240174
v 0.567143 0.196184 0.000000
v 0.281763 0.181321 0.243503
v 0.530776 0.180392 0.105815
v -0.423648 -0.423406 0.000000
v -0.187458 -0.188221 0.181688
v -0.111519 -0.587366 0.000000
v -0.154511 -0.577046 0.000000
v -0.288752 -0.523343 0.000000
v -0.218341 -0.402620 0.200943
v -0.051844 -0.595012 0.000000
v -0.057360 -0.462059 0.235912
v -0.310372 -0.311002 0.107570
v -0.237731 -0.547848 0.000000
v -0.096970 -0.097405 0.206485
v -0.275177 -0.419663 0.146719
v -0.138686 -0.499709 0.170038
v -0.044330 -0.512895 0.179792
v -0.329212 -0.498550 0.000000
v -0.112577 -0.248439 0.283258
v -0.091870 -0.500643 0.186477
v -0.282361 -0.476633 0.098726
v -0.086611 -0.346514 0.301290
v -0.270124 -0.270919 0.137068
v -0.334548 -0.402915 0.091122
v -0.078817 -0.558672 0.092665
v -0.173966 -0.429928 0.216462
v -0.139226 -0.276913 0.270950
v -0.250290 -0.374731 0.186205
v -0.030227 -0.563171 0.089075
v -0.374793 -0.423573 0.047921
v -0.388604 -0.388753 0.036784
v -0.134156 -0.317336 0.275821
v -0.154521 -0.154976 0.193362
v -0.258007 -0.329819 0.178784
v -0.125100 -0.543672 0.108630
v -0.325606 -0.446909 0.084122
v -0.044829 -0.368185 0.298251
v -0.047646 -0.181577 0.299441
v -0.084544 -0.212846 0.290899
v -0.215027 -0.350801 0.216199
v -0.349585 -0.350817 0.074095
v -0.227081 -0.451540 0.165729
v -0.227353 -0.228226 0.163108
v -0.178265 -0.477622 0.174945
v -0.120309 -0.453286 0.226061
v -0.094462 -0.296108 0.298353
v -0.132303 -0.201451 0.252823
v -0.219523 -0.298540 0.211718
v -0.092528 -0.163864 0.268001
v -0.173489 -0.379735 0.240297
v -0.056363 -0.265174 0.317373
v -0.232765 -0.502568 0.110060
v -0.125849 -0.126130 0.200797
v -0.291556 -0.367761 0.145555
v -0.173677 -0.231383 0.230019
v -0.087469 -0.405722 0.270896
v -0.050814 -0.133097 0.265829
v -0.134990 -0.408358 0.248293
v -0.042654 -0.221072 0.309564
v -0.175880 -0.330842 0.249316
v -0.033564 -0.033914 0.212459
v -0.047278 -0.317181 0.311221
v -0.041667 -0.420496 0.271853
v -0.128190 -0.364452 0.269654
v -0.381698 -0.459234 0.000000
v -0.041733 -0.088800 0.240684
v -0.067204 -0.067654 0.210006
v -0.194710 -0.565668 0.000000
v -0.180633 -0.281145 0.243394
v -0.179676 -0.530878 0.103021
v -0.587609 -0.111278 0.000000
v -0.577288 -0.154268 0.000000
v -0.523586 -0.288510 0.000000
v -0.402150 -0.217480 0.199551
v -0.595255 -0.051602 0.000000
v -0.464142 -0.057234 0.234629
v -0.548091 -0.237488 0.000000
v -0.418699 -0.275209 0.146169
v -0.499542 -0.138278 0.169716
v -0.513899 -0.044690 0.181285
v -0.498792 -0.328969 0.000000
v -0.248235 -0.111698 0.282848
v -0.501060 -0.092044 0.186905
v -0.473813 -0.279884 0.119517
v -0.346695 -0.086636 0.290125
v -0.401619 -0.329067 0.109858
v -0.549731 -0.076958 0.113559
v -0.429628 -0.173383 0.215563
v -0.276387 -0.139480 0.271397
v -0.374551 -0.250938 0.182248
v -0.560986 -0.030836 0.094740
v -0.423272 -0.373987 0.047224
v -0.317021 -0.134625 0.277555
v -0.329811 -0.256867 0.180041
v -0.543762 -0.124270 0.109954
v -0.449357 -0.328363 0.083274
v -0.367287 -0.044248 0.301065
v -0.175379 -0.052338 0.282023
v -0.213370 -0.082390 0.288105
v -0.350111 -0.213214 0.217062
v -0.450475 -0.225893 0.163824
v -0.480816 -0.179552 0.169272
v -0.453758 -0.120116 0.226426
v -0.296027 -0.092624 0.296176
v -0.201821 -0.131732 0.251834
v -0.297482 -0.220147 0.209261
v -0.159619 -0.097432 0.251097
v -0.379314 -0.172430 0.239148
v -0.264215 -0.055799 0.308232
v -0.504767 -0.232764 0.110955
v -0.367059 -0.294015 0.138316
v -0.235554 -0.165062 0.239684
v -0.404003 -0.086009 0.269925
v -0.131533 -0.053813 0.259161
v -0.408255 -0.134558 0.251007
v -0.221597 -0.040228 0.302814
v -0.330250 -0.175134 0.248595
v -0.316505 -0.046703 0.310403
v -0.413650 -0.039577 0.277834
v -0.364389 -0.128302 0.279947
v -0.459477 -0.381455 0.000000
v -0.088734 -0.042253 0.240644
v -0.565910 -0.194467 0.000000
v -0.280446 -0.179784 0.242565
v -0.527985 -0.177840 0.115037
v 0.000616 -0.599141 0.000000
v 0.424880 -0.423406 0.000000
v 0.189279 -0.188223 0.181328
v 0.000284 -0.294369 0.317878
v 0.112752 -0.587366 0.000000
v 0.155743 -0.577046 0.000000
v 0.289984 -0.523343 0.000000
v 0.219487 -0.402071 0.200106
v 0.053076 -0.595012 0.000000
v 0.058434 -0.457689 0.239979
v 0.312123 -0.310737 0.107589
v 0.238963 -0.547848 0.000000
v 0.001112 -0.440672 0.263143
v 0.098686 -0.097515 0.206099
v 0.276094 -0.419121 0.145986
v 0.000504 -0.201694 0.316931
v 0.139954 -0.499162 0.169088
v 0.046369 -0.516430 0.173706
v 0.330445 -0.498550 0.000000
v 0.112726 -0.248078 0.282027
v 0.094325 -0.506059 0.176589
v 0.283735 -0.476559 0.098597
v 0.090810 -0.349188 0.288815
v 0.271964 -0.270811 0.137088
v 0.001157 -0.054239 0.230694
v 0.330362 -0.401890 0.099178
v 0.078257 -0.549169 0.113282
v 0.001182 -0.486126 0.219107
v 0.174832 -0.428888 0.215292
v 0.139356 -0.277195 0.280122
v 0.000608 -0.389781 0.294003
v 0.252273 -0.374547 0.182189
v 0.032350 -0.562462 0.088907
v 0.375351 -0.423274 0.047320
v 0.390253 -0.388539 0.036991
v 0.135408 -0.317452 0.278788
v 0.000138 -0.248093 0.316397
v 0.156181 -0.155080 0.192898
v 0.259486 -0.329866 0.178254
v 0.127287 -0.548311 0.096646
v 0.327968 -0.448113 0.082267
v 0.045823 -0.368076 0.299119
v 0.049890 -0.180220 0.287384
v 0.000656 -0.545767 0.127029
v 0.083808 -0.212711 0.287236
v 0.214359 -0.349875 0.216140
v 0.351661 -0.350093 0.074148
v 0.228340 -0.451118 0.165273
v 0.229120 -0.228105 0.163026
v 0.179638 -0.477222 0.174771
v 0.121052 -0.451924 0.224494
v 0.093804 -0.296143 0.294722
v 0.132117 -0.202589 0.255241
v 0.227040 -0.295582 0.200899
v 0.096595 -0.161881 0.256835
v 0.001587 -0.153427 0.285689
v 0.175792 -0.379696 0.237012
v 0.056467 -0.264675 0.315010
v 0.234320 -0.502342 0.109829
v 0.127402 -0.126357 0.200364
v 0.293559 -0.367636 0.142876
v 0.166795 -0.235569 0.239771
v 0.088524 -0.404388 0.267664
v 0.052978 -0.134258 0.264384
v 0.135681 -0.406714 0.249221
v 0.041948 -0.221107 0.304272
v 0.176440 -0.330249 0.247677
v 0.000368 -0.340547 0.311219
v 0.035293 -0.034023 0.212408
v 0.047886 -0.316909 0.311431
v 0.041403 -0.413208 0.277288
v 0.131017 -0.364790 0.271224
v 0.382930 -0.459234 0.000000
v 0.001287 -0.109779 0.261978
v 0.043932 -0.089093 0.240435
v 0.068982 -0.067751 0.209789
v 0.195941 -0.565668 0.000000
v 0.180941 -0.280545 0.242284
v 0.179653 -0.526299 0.118116
v 0.600616 0.000859 0.000000
v 0.295088 0.001082 0.317408
v 0.588842 -0.111278 0.000000
v 0.578520 -0.154268 0.000000
v 0.524819 -0.288510 0.000000
v 0.403649 -0.218221 0.201335
v 0.596487 -0.051602 0.000000
v 0.459906 -0.056527 0.241706
v 0.549323 -0.237488 0.000000
v 0.444921 0.000771 0.259689
v 0.420332 -0.274517 0.146266
v 0.201914 0.000493 0.306615
v 0.500839 -0.138328 0.169994
v 0.517560 -0.044611 0.177434
v 0.500025 -0.328969 0.000000
v 0.249449 -0.111740 0.283055
v 0.500817 -0.091619 0.190495
v 0.477858 -0.281683 0.098699
v 0.347201 -0.085973 0.293307
v 0.055605 0.000507 0.231493
v 0.403281 -0.329611 0.100213
v 0.549872 -0.077223 0.115734
v 0.488227 0.000653 0.220262
v 0.430528 -0.173206 0.215904
v 0.277690 -0.139260 0.271236
v 0.390315 0.000869 0.293327
v 0.377216 -0.257061 0.176095
v 0.564114 -0.031049 0.089476
v 0.427078 -0.378221 0.037914
v 0.318251 -0.133879 0.276734
v 0.247918 0.001350 0.313978
v 0.331432 -0.257064 0.177856
v 0.544418 -0.124477 0.109100
v 0.448630 -0.325145 0.085684
v 0.368651 -0.044322 0.298621
v 0.182147 -0.048283 0.300485
v 0.547534 0.001110 0.127757
v 0.214945 -0.081359 0.301643
v 0.351550 -0.213824 0.218348
v 0.450809 -0.225187 0.171150
v 0.478853 -0.177693 0.174941
v 0.454424 -0.119995 0.226568
v 0.296961 -0.093488 0.295995
v 0.202938 -0.132475 0.252208
v 0.299035 -0.220273 0.209576
v 0.164113 -0.094362 0.263355
v 0.158662 0.000638 0.287246
v 0.380674 -0.173009 0.240471
v 0.265388 -0.055702 0.310940
v 0.501975 -0.230993 0.115519
v 0.368864 -0.292553 0.143374
v 0.236904 -0.165415 0.239911
v 0.404950 -0.086271 0.271991
v 0.134768 -0.051748 0.265493
v 0.408304 -0.133915 0.250326
v 0.222495 -0.040351 0.313264
v 0.331572 -0.175410 0.249411
v 0.341235 0.000954 0.310863
v 0.317513 -0.046396 0.310507
v 0.414323 -0.039618 0.277690
v 0.365489 -0.128240 0.271092
v 0.460709 -0.381455 0.000000
v 0.110655 0.000552 0.259362
v 0.091070 -0.041729 0.241632
v 0.567143 -0.194467 0.000000
v 0.281869 -0.179853 0.243298
v 0.530954 -0.178719 0.105435
f 45 34 19
f 49 51 60
f 37 79 31
f 15 65 56
f 18 52 22
f 9 49 16
f 23 20 42
f 48 12 62
f 10 6 28
f 53 59 71
f 22 11 19
f 7 80 41
f 73 24 64
f 46 44 67
f 33 62 40
f 41 22 28
f 11 52 64
f 28 34 10
f 14 29 11
f 8 20 23
f 37 31 53
f 46 59 21
f 18 51 52
f 45 19 29
f 70 26 76
f 23 16 49
f 2 35 74
f 42 35 27
f 63 21 31
f 30 52 51
f 13 8 60
f 25 50 55
f 27 62 16
f 27 35 36
f 1 10 34
f 41 80 18
f 40 47 33
f 53 71 24
f 21 54 46
f 44 57 17
f 36 48 27
f 16 33 9
f 1 34 45
f 34 28 19
f 23 42 16
f 2 36 35
f 47 55 68
f 37 24 73
f 17 67 44
f 39 56 54
f 58 9 47
f 25 40 12
f 41 6 7
f 51 18 80
f 42 74 35
f 14 11 72
f 44 56 65
f 44 65 57
f 43 64 24
f 73 66 58
f 53 21 59
f 46 54 56
f 33 47 9
f 55 47 40
f 33 16 62
f 9 30 49
f 49 60 23
f 29 19 11
f 16 42 27
f 6 41 28
f 14 72 32
f 51 49 30
f 22 52 11
f 30 58 66
f 37 53 24
f 38 5 59
f 39 54 3
f 54 21 63
f 55 79 68
f 56 44 46
f 15 56 61
f 9 58 30
f 68 37 73
f 59 67 38
f 5 69 71
f 13 60 80
f 23 60 8
f 39 61 56
f 40 62 12
f 48 62 27
f 54 63 3
f 53 31 21
f 64 43 72
f 64 52 66
f 32 43 69
f 19 28 22
f 22 41 18
f 57 65 75
f 30 66 52
f 66 73 64
f 67 17 38
f 46 67 59
f 3 63 50
f 68 79 37
f 47 68 58
f 71 69 43
f 70 76 77
f 24 71 43
f 64 72 11
f 32 72 43
f 68 73 58
f 42 20 74
f 75 65 76
f 75 76 26
f 15 76 65
f 4 26 70
f 71 59 5
f 15 77 76
f 78 80 7
f 31 79 63
f 55 40 25
f 63 79 50
f 13 80 78
f 51 80 60
f 79 55 50
f 94 108 117
f 130 121 120
f 105 146 110
f 126 134 15
f 97 122 93
f 91 120 86
f 114 95 98
f 131 12 48
f 102 83 87
f 139 129 123
f 94 88 97
f 113 147 84
f 133 99 141
f 136 116 118
f 112 131 107
f 102 97 113
f 133 122 88
f 87 108 102
f 88 103 90
f 98 95 85
f 123 105 110
f 96 129 118
f 122 121 93
f 103 94 117
f 144 100 70
f 120 91 98
f 142 109 2
f 101 109 114
f 105 96 132
f 121 122 104
f 130 85 89
f 125 50 25
f 91 131 101
f 36 109 101
f 108 87 81
f 93 147 113
f 107 119 112
f 99 139 123
f 118 124 96
f 92 127 116
f 101 48 36
f 86 107 91
f 117 108 81
f 94 102 108
f 91 114 98
f 109 36 2
f 137 125 119
f 141 99 110
f 116 136 92
f 124 126 39
f 119 86 128
f 12 112 25
f 84 83 113
f 147 93 121
f 109 142 114
f 140 88 90
f 134 126 116
f 127 134 116
f 99 133 115
f 128 135 141
f 129 96 123
f 126 124 118
f 86 119 107
f 112 119 125
f 131 91 107
f 120 104 86
f 98 130 120
f 88 94 103
f 101 114 91
f 102 113 83
f 106 140 90
f 104 120 121
f 88 122 97
f 135 128 104
f 99 123 110
f 129 82 111
f 3 124 39
f 132 96 124
f 137 146 125
f 118 116 126
f 61 126 15
f 104 128 86
f 141 110 137
f 111 136 129
f 139 138 82
f 147 130 89
f 85 130 98
f 126 61 39
f 12 131 112
f 101 131 48
f 3 132 124
f 96 105 123
f 140 115 133
f 135 122 133
f 138 115 106
f 97 102 94
f 93 113 97
f 143 134 127
f 122 135 104
f 133 141 135
f 111 92 136
f 129 136 118
f 50 132 3
f 110 146 137
f 128 137 119
f 115 138 139
f 77 144 70
f 115 139 99
f 88 140 133
f 115 140 106
f 128 141 137
f 142 95 114
f 144 134 143
f 100 144 143
f 134 144 15
f 70 100 4
f 82 129 139
f 144 77 15
f 84 147 145
f 132 146 105
f 25 112 125
f 50 146 132
f 145 147 89
f 130 147 121
f 50 125 146
f 161 173 45
f 196 188 186
f 171 213 176
f 193 201 158
f 164 189 160
f 159 186 153
f 180 162 165
f 198 156 185
f 169 150 154
f 206 195 190
f 161 155 164
f 179 214 151
f 200 166 208
f 203 182 183
f 178 198 172
f 169 164 179
f 200 189 155
f 154 173 169
f 155 29 14
f 165 162 152
f 190 171 176
f 163 195 183
f 189 188 160
f 29 161 45
f 210 26 205
f 186 159 165
f 209 174 148
f 168 174 180
f 171 163 199
f 188 189 170
f 196 152 157
f 192 187 167
f 159 198 168
f 175 174 168
f 173 154 1
f 160 214 179
f 172 184 178
f 166 206 190
f 183 191 163
f 17 57 182
f 168 185 175
f 153 172 159
f 45 173 1
f 161 169 173
f 159 180 165
f 174 175 148
f 204 192 184
f 208 166 176
f 182 203 17
f 191 193 177
f 184 153 194
f 156 178 167
f 151 150 179
f 214 160 188
f 174 209 180
f 207 155 14
f 201 193 182
f 57 201 182
f 166 200 181
f 194 202 208
f 195 163 190
f 193 191 183
f 153 184 172
f 178 184 192
f 198 159 172
f 186 170 153
f 165 196 186
f 155 161 29
f 168 180 159
f 169 179 150
f 32 207 14
f 170 186 188
f 155 189 164
f 202 194 170
f 166 190 176
f 195 5 38
f 149 191 177
f 199 163 191
f 204 213 192
f 183 182 193
f 197 193 158
f 170 194 153
f 208 176 204
f 38 203 195
f 206 69 5
f 214 196 157
f 152 196 165
f 193 197 177
f 156 198 178
f 168 198 185
f 149 199 191
f 163 171 190
f 207 181 200
f 202 189 200
f 69 181 32
f 164 169 161
f 160 179 164
f 75 201 57
f 189 202 170
f 200 208 202
f 38 17 203
f 195 203 183
f 187 199 149
f 176 213 204
f 194 204 184
f 181 69 206
f 211 210 205
f 181 206 166
f 155 207 200
f 181 207 32
f 194 208 204
f 209 162 180
f 210 201 75
f 26 210 75
f 201 210 158
f 205 26 4
f 5 195 206
f 210 211 158
f 151 214 212
f 199 213 171
f 167 178 192
f 187 213 199
f 212 214 157
f 196 214 188
f 187 192 213
f 507 235 224
f 245 246 254
f 237 268 233
f 158 258 251
f 223 247 227
f 218 245 222
f 228 225 240
f 185 156 255
f 219 215 231
f 248 253 262
f 227 220 224
f 216 269 239
f 264 229 257
f 243 242 260
f 234 255 238
f 239 227 231
f 220 247 257
f 231 235 219
f 480 493 220
f 217 225 228
f 237 233 248
f 243 253 226
f 223 246 247
f 507 224 493
f 205 490 266
f 228 222 245
f 148 236 265
f 240 236 230
f 256 226 233
f 232 247 246
f 221 217 254
f 167 187 250
f 230 255 222
f 230 236 175
f 471 219 235
f 239 269 223
f 238 244 234
f 248 262 229
f 226 249 243
f 242 517 482
f 175 185 230
f 222 234 218
f 471 235 507
f 235 231 224
f 228 240 222
f 148 175 236
f 244 250 261
f 237 229 264
f 482 260 242
f 177 251 249
f 252 218 244
f 167 238 156
f 239 215 216
f 246 223 269
f 240 265 236
f 480 220 263
f 242 251 258
f 242 258 517
f 241 257 229
f 264 259 252
f 248 226 253
f 243 249 251
f 234 244 218
f 250 244 238
f 234 222 255
f 218 232 245
f 245 254 228
f 493 224 220
f 222 240 230
f 215 239 231
f 480 263 496
f 246 245 232
f 227 247 220
f 232 252 259
f 237 248 229
f 501 472 253
f 177 249 149
f 249 226 256
f 250 268 261
f 251 242 243
f 158 251 197
f 218 252 232
f 261 237 264
f 253 260 501
f 472 528 262
f 221 254 269
f 228 254 217
f 177 197 251
f 238 255 156
f 185 255 230
f 249 256 149
f 248 233 226
f 257 241 263
f 257 247 259
f 496 241 528
f 224 231 227
f 227 239 223
f 517 258 533
f 232 259 247
f 259 264 257
f 260 482 501
f 243 260 253
f 149 256 187
f 261 268 237
f 244 261 252
f 262 528 241
f 205 266 211
f 229 262 241
f 257 263 220
f 496 263 241
f 261 264 252
f 240 225 265
f 533 258 266
f 533 266 490
f 158 266 258
f 4 490 205
f 262 253 472
f 158 211 266
f 267 269 216
f 233 268 256
f 250 238 167
f 256 268 187
f 221 269 267
f 246 269 254
f 268 250 187
f 283 295 435
f 318 310 308
f 293 335 298
f 315 323 280
f 286 311 282
f 281 308 275
f 302 284 287
f 320 278 307
f 291 272 276
f 328 317 312
f 283 277 286
f 301 336 273
f 322 288 330
f 325 304 305
f 300 320 294
f 291 286 301
f 322 311 277
f 276 295 291
f 277 419 404
f 287 284 274
f 312 293 298
f 285 317 305
f 311 310 282
f 419 283 435
f 332 416 327
f 308 281 287
f 331 296 270
f 290 296 302
f 293 285 321
f 310 311 292
f 318 274 279
f 314 309 289
f 281 320 290
f 297 296 290
f 295 276 392
f 282 336 301
f 294 306 300
f 288 328 312
f 305 313 285
f 407 447 304
f 290 307 297
f 275 294 281
f 435 295 392
f 283 291 295
f 281 302 287
f 296 297 270
f 326 314 306
f 330 288 298
f 304 325 407
f 313 315 299
f 306 275 316
f 278 300 289
f 273 272 301
f 336 282 310
f 296 331 302
f 329 277 404
f 323 315 304
f 447 323 304
f 288 322 303
f 316 324 330
f 317 285 312
f 315 313 305
f 275 306 294
f 300 306 314
f 320 281 294
f 308 292 275
f 287 318 308
f 277 283 419
f 290 302 281
f 291 301 272
f 422 329 404
f 292 308 310
f 277 311 286
f 324 316 292
f 288 312 298
f 317 395 428
f 271 313 299
f 321 285 313
f 326 335 314
f 305 304 315
f 319 315 280
f 292 316 275
f 330 298 326
f 428 325 317
f 328 459 395
f 336 318 279
f 274 318 287
f 315 319 299
f 278 320 300
f 290 320 307
f 271 321 313
f 285 293 312
f 329 303 322
f 324 311 322
f 459 303 422
f 286 291 283
f 282 301 286
f 465 323 447
f 311 324 292
f 322 330 324
f 428 407 325
f 317 325 305
f 309 321 271
f 298 335 326
f 316 326 306
f 303 459 328
f 333 332 327
f 303 328 288
f 277 329 322
f 303 329 422
f 316 330 326
f 331 284 302
f 332 323 465
f 416 332 465
f 323 332 280
f 327 416 4
f 395 317 328
f 332 333 280
f 273 336 334
f 321 335 293
f 289 300 314
f 309 335 321
f 334 336 279
f 318 336 310
f 309 314 335
f 117 357 346
f 367 368 376
f 359 390 355
f 280 380 373
f 345 369 349
f 340 367 344
f 350 347 362
f 307 278 377
f 341 337 353
f 370 375 384
f 349 342 346
f 338 391 361
f 386 351 379
f 365 364 382
f 356 377 360
f 361 349 353
f 342 369 379
f 353 357 341
f 90 103 342
f 339 347 350
f 359 355 370
f 365 375 348
f 345 368 369
f 117 346 103
f 327 100 388
f 350 344 367
f 270 358 387
f 362 358 352
f 378 348 355
f 354 369 368
f 343 339 376
f 289 309 372
f 352 377 344
f 352 358 297
f 81 341 357
f 361 391 345
f 360 366 356
f 370 384 351
f 348 371 365
f 364 127 92
f 297 307 352
f 344 356 340
f 81 357 117
f 357 353 346
f 350 362 344
f 270 297 358
f 366 372 383
f 359 351 386
f 92 382 364
f 299 373 371
f 374 340 366
f 289 360 278
f 361 337 338
f 368 345 391
f 362 387 358
f 90 342 385
f 364 373 380
f 364 380 127
f 363 379 351
f 386 381 374
f 370 348 375
f 365 371 373
f 356 366 340
f 372 366 360
f 356 344 377
f 340 354 367
f 367 376 350
f 103 346 342
f 344 362 352
f 337 361 353
f 90 385 106
f 368 367 354
f 349 369 342
f 354 374 381
f 359 370 351
f 111 82 375
f 299 371 271
f 371 348 378
f 372 390 383
f 373 364 365
f 280 373 319
f 340 374 354
f 383 359 386
f 375 382 111
f 82 138 384
f 343 376 391
f 350 376 339
f 299 319 373
f 360 377 278
f 307 377 352
f 371 378 271
f 370 355 348
f 379 363 385
f 379 369 381
f 106 363 138
f 346 353 349
f 349 361 345
f 127 380 143
f 354 381 369
f 381 386 379
f 382 92 111
f 365 382 375
f 271 378 309
f 383 390 359
f 366 383 374
f 384 138 363
f 327 388 333
f 351 384 363
f 379 385 342
f 106 385 363
f 383 386 374
f 362 347 387
f 143 380 388
f 143 388 100
f 280 388 380
f 4 100 327
f 384 375 82
f 280 333 388
f 389 391 338
f 355 390 378
f 372 360 289
f 378 390 309
f 343 391 389
f 368 391 376
f 390 372 309
f 435 424 409
f 439 441 450
f 427 469 421
f 405 455 446
f 408 442 412
f 399 439 406
f 413 410 432
f 438 402 452
f 400 396 418
f 443 449 461
f 412 401 409
f 397 470 431
f 463 414 454
f 436 434 457
f 423 452 430
f 431 412 418
f 401 442 454
f 418 424 400
f 404 419 401
f 398 410 413
f 427 421 443
f 436 449 411
f 408 441 442
f 435 409 419
f 460 416 466
f 413 406 439
f 393 425 464
f 432 425 417
f 453 411 421
f 420 442 441
f 403 398 450
f 415 440 445
f 417 452 406
f 417 425 426
f 392 400 424
f 431 470 408
f 430 437 423
f 443 461 414
f 411 444 436
f 434 447 407
f 426 438 417
f 406 423 399
f 392 424 435
f 424 418 409
f 413 432 406
f 393 426 425
f 437 445 458
f 427 414 463
f 407 457 434
f 429 446 444
f 448 399 437
f 415 430 402
f 431 396 397
f 441 408 470
f 432 464 425
f 404 401 462
f 434 446 455
f 434 455 447
f 433 454 414
f 463 456 448
f 443 411 449
f 436 444 446
f 423 437 399
f 445 437 430
f 423 406 452
f 399 420 439
f 439 450 413
f 419 409 401
f 406 432 417
f 396 431 418
f 404 462 422
f 441 439 420
f 412 442 401
f 420 448 456
f 427 443 414
f 428 395 449
f 429 444 394
f 444 411 453
f 445 469 458
f 446 434 436
f 405 446 451
f 399 448 420
f 458 427 463
f 449 457 428
f 395 459 461
f 403 450 470
f 413 450 398
f 429 451 446
f 430 452 402
f 438 452 417
f 444 453 394
f 443 421 411
f 454 433 462
f 454 442 456
f 422 433 459
f 409 418 412
f 412 431 408
f 447 455 465
f 420 456 442
f 456 463 454
f 457 407 428
f 436 457 449
f 394 453 440
f 458 469 427
f 437 458 448
f 461 459 433
f 460 466 467
f 414 461 433
f 454 462 401
f 422 462 433
f 458 463 448
f 432 410 464
f 465 455 466
f 465 466 416
f 405 466 455
f 4 416 460
f 461 449 395
f 405 467 466
f 468 470 397
f 421 469 453
f 445 430 415
f 453 469 440
f 403 470 468
f 441 470 450
f 469 445 440
f 484 498 507
f 520 511 510
f 495 536 500
f 516 524 405
f 487 512 483
f 481 510 476
f 504 485 488
f 521 402 438
f 492 473 477
f 529 519 513
f 484 478 487
f 503 537 474
f 523 489 531
f 526 506 508
f 502 521 497
f 492 487 503
f 523 512 478
f 477 498 492
f 478 493 480
f 488 485 475
f 513 495 500
f 486 519 508
f 512 511 483
f 493 484 507
f 534 490 460
f 510 481 488
f 532 499 393
f 491 499 504
f 495 486 522
f 511 512 494
f 520 475 479
f 515 440 415
f 481 521 491
f 426 499 491
f 498 477 471
f 483 537 503
f 497 509 502
f 489 529 513
f 508 514 486
f 482 517 506
f 491 438 426
f 476 497 481
f 507 498 471
f 484 492 498
f 481 504 488
f 499 426 393
f 527 515 509
f 531 489 500
f 506 526 482
f 514 516 429
f 509 476 518
f 402 502 415
f 474 473 503
f 537 483 511
f 499 532 504
f 530 478 480
f 524 516 506
f 517 524 506
f 489 523 505
f 518 525 531
f 519 486 513
f 516 514 508
f 476 509 497
f 502 509 515
f 521 481 497
f 510 494 476
f 488 520 510
f 478 484 493
f 491 504 481
f 492 503 473
f 496 530 480
f 494 510 511
f 478 512 487
f 525 518 494
f 489 513 500
f 519 472 501
f 394 514 429
f 522 486 514
f 527 536 515
f 508 506 516
f 451 516 405
f 494 518 476
f 531 500 527
f 501 526 519
f 529 528 472
f 537 520 479
f 475 520 488
f 516 451 429
f 402 521 502
f 491 521 438
f 394 522 514
f 486 495 513
f 530 505 523
f 525 512 523
f 528 505 496
f 487 492 484
f 483 503 487
f 533 524 517
f 512 525 494
f 523 531 525
f 501 482 526
f 519 526 508
f 440 522 394
f 500 536 527
f 518 527 509
f 505 528 529
f 467 534 460
f 505 529 489
f 478 530 523
f 505 530 496
f 518 531 527
f 532 485 504
f 534 524 533
f 490 534 533
f 524 534 405
f 460 490 4
f 472 519 529
f 534 467 405
f 474 537 535
f 522 536 495
f 415 502 515
f 440 536 522
f 535 537 479
f 520 537 511
f 440 515 536
