# 4part FEM knit+cable best fit (4part_s_ring85)
# interior RMSE  : 4.406 mm
# max deviation  : 18.804 mm
# crown          : 0.32013 m (target 0.32177 m)
# max disp/rest  : 18.804 mm (floor 5.0 mm)
# regions        : 4 (1 D4 slots), 4 parameters
v 0.000616 0.600859 0.000000
v -0.423648 0.425123 0.000000
v -0.187295 0.189121 0.179063
v 0.000851 0.000629 0.208965
v 0.001109 0.294142 0.320131
v -0.111519 0.589084 0.000000
v -0.154511 0.578763 0.000000
v -0.288752 0.525061 0.000000
v -0.219271 0.402835 0.201055
v -0.051844 0.596730 0.000000
v -0.056888 0.463704 0.239477
v -0.310095 0.311934 0.106618
v -0.237731 0.549565 0.000000
v 0.001312 0.439701 0.267930
v -0.096596 0.098151 0.202853
v -0.271273 0.418029 0.141742
v 0.001941 0.200674 0.316500
v -0.140921 0.504344 0.161648
v -0.044601 0.513306 0.183101
v -0.329212 0.500267 0.000000
v -0.111286 0.246978 0.286523
v -0.091339 0.496742 0.195913
v -0.280699 0.477520 0.097821
v -0.086994 0.346979 0.292162
v -0.269980 0.271950 0.135288
v 0.001109 0.054692 0.228922
v -0.324029 0.401301 0.095657
v -0.078434 0.553413 0.116503
v 0.001232 0.486217 0.219330
v -0.175562 0.430341 0.217418
v -0.138237 0.276408 0.285669
v 0.000991 0.390633 0.297259
v -0.251054 0.374802 0.181605
v -0.031602 0.566993 0.092489
v -0.372985 0.424176 0.047201
v -0.388409 0.390049 0.037251
v -0.134686 0.317202 0.279996
v 0.001367 0.247665 0.318917
v -0.154086 0.155832 0.190301
v -0.258895 0.330266 0.178570
v -0.125580 0.545438 0.111670
v -0.329701 0.453149 0.069616
v -0.044267 0.368471 0.303434
v -0.047476 0.179651 0.288346
v 0.000841 0.549609 0.131000
v -0.081135 0.212293 0.288799
v -0.213777 0.350737 0.217883
v -0.349780 0.351516 0.075103
v -0.223111 0.447606 0.164427
v -0.227104 0.229287 0.161063
v -0.177945 0.475697 0.172391
v -0.120566 0.452462 0.238558
v -0.092165 0.295422 0.297925
v -0.130330 0.202246 0.258229
v -0.225395 0.296746 0.203170
v -0.094883 0.161357 0.257205
v 0.002000 0.156550 0.287614
v -0.178436 0.383381 0.239597
v -0.054961 0.263699 0.309726
v -0.232670 0.504383 0.109637
v -0.125293 0.127000 0.197452
v -0.292075 0.367871 0.142660
v -0.163511 0.236350 0.246747
v -0.086469 0.403789 0.272850
v -0.049330 0.135025 0.272161
v -0.139453 0.411573 0.251962
v -0.038478 0.221389 0.306177
v -0.175725 0.331586 0.255876
v 0.000913 0.340654 0.313566
v -0.033435 0.034877 0.208487
v -0.049044 0.317802 0.311210
v -0.039667 0.414432 0.280130
v -0.128723 0.364556 0.282399
v -0.381698 0.460952 0.000000
v 0.001165 0.110577 0.273882
v -0.041083 0.089836 0.244153
v -0.066987 0.068417 0.206193
v -0.194710 0.567385 0.000000
v -0.186208 0.279475 0.238173
v -0.180129 0.532718 0.104677
v -0.599383 0.000859 0.000000
v -0.292542 0.000275 0.319523
v -0.587609 0.112995 0.000000
v -0.577288 0.155985 0.000000
v -0.523586 0.290227 0.000000
v -0.400999 0.219912 0.200198
v -0.595255 0.053319 0.000000
v -0.458317 0.058033 0.244093
v -0.548091 0.239205 0.000000
v -0.441082 0.000509 0.260937
v -0.415891 0.271821 0.140684
v -0.198765 0.000679 0.303510
v -0.494749 0.138918 0.167749
v -0.515361 0.046855 0.171985
v -0.498792 0.330686 0.000000
v -0.244677 0.114283 0.277752
v -0.501089 0.094143 0.178466
v -0.478094 0.284201 0.092249
v -0.345076 0.087936 0.296045
v -0.053290 0.000612 0.228510
v -0.399450 0.325769 0.095869
v -0.550832 0.080210 0.116315
v -0.488184 0.000673 0.211211
v -0.429362 0.176612 0.210539
v -0.276063 0.141219 0.303330
v -0.388270 0.000613 0.295197
v -0.372713 0.251308 0.180259
v -0.566115 0.033593 0.089541
v -0.422288 0.373828 0.046593
v -0.317288 0.136300 0.263105
v -0.244275 -0.000270 0.314786
v -0.327889 0.261352 0.174217
v -0.543986 0.127299 0.111381
v -0.446448 0.325644 0.080919
v -0.366777 0.046168 0.302122
v -0.176952 0.050098 0.288951
v -0.547860 0.000988 0.131215
v -0.210540 0.082672 0.287522
v -0.349277 0.215517 0.218032
v -0.446691 0.224879 0.160376
v -0.472226 0.177900 0.170603
v -0.456873 0.123584 0.219029
v -0.293945 0.094099 0.298808
v -0.199891 0.133334 0.251750
v -0.296574 0.221838 0.209507
v -0.159880 0.096488 0.256617
v -0.156415 0.000447 0.284486
v -0.380965 0.178143 0.236199
v -0.261599 0.056635 0.310041
v -0.501921 0.233735 0.109191
v -0.365954 0.293147 0.142317
v -0.234089 0.166945 0.240249
v -0.403155 0.088001 0.274548
v -0.132328 0.052341 0.263662
v -0.406792 0.136052 0.252824
v -0.217988 0.042004 0.318367
v -0.330213 0.177630 0.250812
v -0.339032 0.000523 0.313280
v -0.314399 0.047528 0.314744
v -0.411721 0.040900 0.285601
v -0.364464 0.130326 0.274529
v -0.459477 0.383172 0.000000
v -0.109918 0.000344 0.258863
v -0.087994 0.043012 0.238312
v -0.565910 0.196184 0.000000
v -0.280131 0.179469 0.248041
v -0.530325 0.181333 0.106091
v 0.424880 0.425123 0.000000
v 0.188662 0.189091 0.179267
v 0.112752 0.589084 0.000000
v 0.155743 0.578763 0.000000
v 0.289984 0.525061 0.000000
v 0.222711 0.404481 0.201433
v 0.053076 0.596730 0.000000
v 0.058936 0.460076 0.244135
v 0.311635 0.311694 0.106440
v 0.238963 0.549565 0.000000
v 0.098269 0.097904 0.202965
v 0.277310 0.420274 0.135463
v 0.139674 0.496995 0.168562
v 0.046796 0.512282 0.182038
v 0.330445 0.500267 0.000000
v 0.112578 0.248195 0.285506
v 0.094000 0.499447 0.185905
v 0.281059 0.474876 0.107663
v 0.088444 0.347014 0.296781
v 0.271427 0.271699 0.135208
v 0.326705 0.401243 0.096435
v 0.079434 0.551321 0.123266
v 0.176480 0.429064 0.216279
v 0.142570 0.275596 0.269108
v 0.254500 0.375845 0.183104
v 0.033019 0.567218 0.092428
v 0.373978 0.423684 0.046502
v 0.389687 0.389783 0.036964
v 0.135622 0.317463 0.279264
v 0.155554 0.155905 0.190655
v 0.258732 0.330695 0.182215
v 0.128970 0.551655 0.100140
v 0.324590 0.446410 0.090503
v 0.046389 0.368124 0.304392
v 0.052259 0.176800 0.293150
v 0.082700 0.213240 0.311466
v 0.219866 0.352477 0.199397
v 0.351478 0.351258 0.074915
v 0.225945 0.448601 0.160691
v 0.228532 0.229060 0.161007
v 0.178779 0.474319 0.171204
v 0.124039 0.457092 0.222307
v 0.094688 0.296454 0.300383
v 0.133454 0.201863 0.254092
v 0.221188 0.298783 0.209368
v 0.103533 0.155374 0.249634
v 0.182916 0.383287 0.236232
v 0.058554 0.264783 0.315032
v 0.234869 0.504720 0.110128
v 0.126920 0.126847 0.197641
v 0.292777 0.367785 0.141921
v 0.167500 0.235495 0.241287
v 0.088932 0.404875 0.274666
v 0.054049 0.132008 0.266054
v 0.136495 0.407246 0.251607
v 0.041874 0.221419 0.314483
v 0.178662 0.330805 0.260809
v 0.035265 0.034726 0.208431
v 0.048654 0.317108 0.314319
v 0.041622 0.413450 0.284802
v 0.130624 0.365059 0.273800
v 0.382930 0.460952 0.000000
v 0.044446 0.087936 0.240028
v 0.068743 0.068208 0.206246
v 0.195941 0.567385 0.000000
v 0.181595 0.281378 0.258991
v 0.181440 0.531292 0.111139
v 0.588842 0.112995 0.000000
v 0.578520 0.155985 0.000000
v 0.524819 0.290227 0.000000
v 0.401039 0.219475 0.199679
v 0.596487 0.053319 0.000000
v 0.460255 0.058604 0.245115
v 0.549323 0.239205 0.000000
v 0.416860 0.272302 0.141299
v 0.493753 0.138492 0.173998
v 0.511779 0.046838 0.182172
v 0.500025 0.330686 0.000000
v 0.246164 0.114154 0.287348
v 0.498945 0.093804 0.186704
v 0.476293 0.282253 0.097561
v 0.347094 0.089145 0.298488
v 0.401530 0.330887 0.089357
v 0.551511 0.079986 0.119198
v 0.429857 0.177324 0.218217
v 0.276819 0.139616 0.285007
v 0.373284 0.251702 0.180439
v 0.566353 0.033286 0.092393
v 0.423513 0.374105 0.046862
v 0.318581 0.137806 0.278313
v 0.327894 0.265610 0.170848
v 0.545632 0.127416 0.111535
v 0.445931 0.324513 0.079876
v 0.367596 0.046168 0.300699
v 0.180002 0.049472 0.287885
v 0.212125 0.083340 0.288849
v 0.349802 0.217777 0.219718
v 0.447804 0.225463 0.161068
v 0.473689 0.178634 0.172709
v 0.452761 0.122395 0.228605
v 0.295444 0.093988 0.310070
v 0.201241 0.133765 0.252519
v 0.297183 0.223096 0.210643
v 0.161200 0.096976 0.255518
v 0.380302 0.178486 0.261335
v 0.263400 0.057175 0.309570
v 0.502823 0.233879 0.109293
v 0.367089 0.294180 0.143319
v 0.235566 0.166953 0.240437
v 0.403855 0.087942 0.286143
v 0.134441 0.052070 0.263715
v 0.409057 0.138368 0.251988
v 0.220209 0.041916 0.303108
v 0.331009 0.178966 0.261583
v 0.316207 0.048365 0.311226
v 0.414063 0.041276 0.280516
v 0.366882 0.133537 0.269225
v 0.460709 0.383172 0.000000
v 0.089871 0.042774 0.238455
v 0.567143 0.196184 0.000000
v 0.280512 0.182086 0.244348
v 0.531375 0.181421 0.106224
v -0.423648 -0.423406 0.000000
v -0.186963 -0.187616 0.179030
v -0.111519 -0.587366 0.000000
v -0.154511 -0.577046 0.000000
v -0.288752 -0.523343 0.000000
v -0.218844 -0.400905 0.200800
v -0.051844 -0.595012 0.000000
v -0.057611 -0.461202 0.238262
v -0.309472 -0.310395 0.106202
v -0.237731 -0.547848 0.000000
v -0.096498 -0.096785 0.203279
v -0.271322 -0.416358 0.141841
v -0.138126 -0.495692 0.168886
v -0.045028 -0.510131 0.181405
v -0.329212 -0.498550 0.000000
v -0.112337 -0.246969 0.285054
v -0.092324 -0.497752 0.186082
v -0.281149 -0.475600 0.097878
v -0.086745 -0.345363 0.303937
v -0.269470 -0.270330 0.134769
v -0.330474 -0.400617 0.088758
v -0.080298 -0.561691 0.095255
v -0.175295 -0.428445 0.217306
v -0.139626 -0.275558 0.272939
v -0.250608 -0.373002 0.185279
v -0.031106 -0.566176 0.092746
v -0.372603 -0.422069 0.046788
v -0.388377 -0.388210 0.037041
v -0.134404 -0.316354 0.278744
v -0.153983 -0.154317 0.190578
v -0.259261 -0.328230 0.178958
v -0.126685 -0.545349 0.110343
v -0.322844 -0.444591 0.082421
v -0.045091 -0.367339 0.301045
v -0.047565 -0.179427 0.299938
v -0.084078 -0.211141 0.292037
v -0.216404 -0.349408 0.217520
v -0.349074 -0.350280 0.074830
v -0.224247 -0.447083 0.161298
v -0.226835 -0.227643 0.160577
v -0.177327 -0.473110 0.171735
v -0.121215 -0.452610 0.228528
v -0.094055 -0.294826 0.300608
v -0.132486 -0.199814 0.253062
v -0.220744 -0.296996 0.212520
v -0.092439 -0.162023 0.268364
v -0.174534 -0.378889 0.242666
v -0.056213 -0.263278 0.318885
v -0.232735 -0.501997 0.109497
v -0.125305 -0.125463 0.197817
v -0.291667 -0.366048 0.145179
v -0.174205 -0.229984 0.229981
v -0.087950 -0.405018 0.273847
v -0.050378 -0.131712 0.265275
v -0.136072 -0.407730 0.251279
v -0.042442 -0.219106 0.310295
v -0.176864 -0.329673 0.251481
v -0.033389 -0.033604 0.208567
v -0.047280 -0.315766 0.313390
v -0.041894 -0.419676 0.274488
v -0.128788 -0.363815 0.273102
v -0.381698 -0.459234 0.000000
v -0.041477 -0.087607 0.239179
v -0.066838 -0.067142 0.206477
v -0.194710 -0.565668 0.000000
v -0.181543 -0.279739 0.244718
v -0.180878 -0.531680 0.103463
v -0.587609 -0.111278 0.000000
v -0.577288 -0.154268 0.000000
v -0.523586 -0.288510 0.000000
v -0.400486 -0.218054 0.199466
v -0.595255 -0.051602 0.000000
v -0.462830 -0.057526 0.236329
v -0.548091 -0.237488 0.000000
v -0.416253 -0.271667 0.141667
v -0.495559 -0.137747 0.168332
v -0.510159 -0.045211 0.181474
v -0.498792 -0.328969 0.000000
v -0.246914 -0.111579 0.284004
v -0.497557 -0.092142 0.185719
v -0.472513 -0.278308 0.118948
v -0.345675 -0.087228 0.293173
v -0.399277 -0.322577 0.104328
v -0.552020 -0.078158 0.116291
v -0.428190 -0.174833 0.216568
v -0.275178 -0.139601 0.272648
v -0.372834 -0.250783 0.180918
v -0.563216 -0.031173 0.098223
v -0.422744 -0.372996 0.046905
v -0.315953 -0.134672 0.279299
v -0.328209 -0.257569 0.179727
v -0.545211 -0.125428 0.111817
v -0.448965 -0.327313 0.082780
v -0.366199 -0.044529 0.303257
v -0.173828 -0.052218 0.281941
v -0.211833 -0.082211 0.288776
v -0.348742 -0.214278 0.217824
v -0.446850 -0.223751 0.160220
v -0.476253 -0.178662 0.166328
v -0.452681 -0.120975 0.228299
v -0.294683 -0.092766 0.298222
v -0.200457 -0.131898 0.251666
v -0.296105 -0.221009 0.209414
v -0.158448 -0.097166 0.250518
v -0.378379 -0.173751 0.241401
v -0.262500 -0.055903 0.309487
v -0.504120 -0.233109 0.110701
v -0.365207 -0.292141 0.136541
v -0.234276 -0.165441 0.239654
v -0.403270 -0.086762 0.272797
v -0.130252 -0.053473 0.258379
v -0.407252 -0.135527 0.253204
v -0.219737 -0.040338 0.303512
v -0.329087 -0.176123 0.250198
v -0.315045 -0.046898 0.312236
v -0.412701 -0.039832 0.279799
v -0.363388 -0.128797 0.282321
v -0.459477 -0.381455 0.000000
v -0.087507 -0.042076 0.239071
v -0.565910 -0.194467 0.000000
v -0.279161 -0.180499 0.243313
v -0.528592 -0.178619 0.116117
v 0.000616 -0.599141 0.000000
v 0.424880 -0.423406 0.000000
v 0.188789 -0.187506 0.178752
v 0.000137 -0.292734 0.319889
v 0.112752 -0.587366 0.000000
v 0.155743 -0.577046 0.000000
v 0.289984 -0.523343 0.000000
v 0.219998 -0.400494 0.200063
v 0.053076 -0.595012 0.000000
v 0.058318 -0.457398 0.242958
v 0.311563 -0.310044 0.106421
v 0.238963 -0.547848 0.000000
v 0.000956 -0.439297 0.263737
v 0.098182 -0.096765 0.202938
v 0.272295 -0.415853 0.141077
v 0.000339 -0.199468 0.317596
v 0.139400 -0.495618 0.167880
v 0.046733 -0.513695 0.175341
v 0.330445 -0.498550 0.000000
v 0.112333 -0.246649 0.284063
v 0.094583 -0.503359 0.176816
v 0.282678 -0.475626 0.097867
v 0.091005 -0.348314 0.292446
v 0.271469 -0.270127 0.134924
v 0.000986 -0.053245 0.228349
v 0.325783 -0.399359 0.095845
v 0.079472 -0.551841 0.116506
v 0.000861 -0.483543 0.217774
v 0.175986 -0.427473 0.216059
v 0.139451 -0.275715 0.282261
v 0.000398 -0.388998 0.296041
v 0.252348 -0.372770 0.181096
v 0.032880 -0.565275 0.092469
v 0.373475 -0.422041 0.046286
v 0.389919 -0.388117 0.037253
v 0.135192 -0.316385 0.281337
v 0.000010 -0.246126 0.317661
v 0.155658 -0.154315 0.190182
v 0.260667 -0.328295 0.178425
v 0.128386 -0.550415 0.098744
v 0.325662 -0.446204 0.080812
v 0.045666 -0.367172 0.301699
v 0.049361 -0.178472 0.288123
v 0.000728 -0.547584 0.130933
v 0.083199 -0.211125 0.288576
v 0.215578 -0.348551 0.217539
v 0.351187 -0.349604 0.075028
v 0.225346 -0.446620 0.160632
v 0.228682 -0.227447 0.160580
v 0.178375 -0.472600 0.171040
v 0.121835 -0.451507 0.227215
v 0.093453 -0.294953 0.297732
v 0.132212 -0.200950 0.255664
v 0.228194 -0.294131 0.201373
v 0.096315 -0.160344 0.256799
v 0.001355 -0.151795 0.285306
v 0.176745 -0.378941 0.239414
v 0.056104 -0.262866 0.316826
v 0.234564 -0.502074 0.109590
v 0.126872 -0.125570 0.197438
v 0.293596 -0.365945 0.142522
v 0.167122 -0.234105 0.240184
v 0.088909 -0.403971 0.271183
v 0.052382 -0.132655 0.264119
v 0.136522 -0.406171 0.252145
v 0.041582 -0.219213 0.305522
v 0.177347 -0.329106 0.249920
v 0.000190 -0.339388 0.313492
v 0.035161 -0.033566 0.208511
v 0.047585 -0.315519 0.313545
v 0.041217 -0.412606 0.279811
v 0.131104 -0.364032 0.274145
v 0.382930 -0.459234 0.000000
v 0.001154 -0.108177 0.260934
v 0.043560 -0.087760 0.239042
v 0.068591 -0.067097 0.206285
v 0.195941 -0.565668 0.000000
v 0.181806 -0.279106 0.243747
v 0.180442 -0.527198 0.118991
v 0.600616 0.000859 0.000000
v 0.293443 0.001082 0.318978
v 0.588842 -0.111278 0.000000
v 0.578520 -0.154268 0.000000
v 0.524819 -0.288510 0.000000
v 0.401776 -0.218587 0.201020
v 0.596487 -0.051602 0.000000
v 0.459296 -0.056649 0.243936
v 0.549323 -0.237488 0.000000
v 0.443409 0.000873 0.260063
v 0.417255 -0.271039 0.141905
v 0.199911 0.000574 0.307225
v 0.497094 -0.137643 0.169181
v 0.514243 -0.044808 0.178538
v 0.500025 -0.328969 0.000000
v 0.248023 -0.111485 0.284329
v 0.497360 -0.091559 0.189209
v 0.477210 -0.280755 0.098163
v 0.346065 -0.086146 0.295685
v 0.054672 0.000674 0.228887
v 0.400802 -0.324523 0.096608
v 0.552028 -0.078135 0.118344
v 0.485694 0.000881 0.218564
v 0.429031 -0.174430 0.216834
v 0.276408 -0.139312 0.272741
v 0.389337 0.000884 0.295094
v 0.375413 -0.256624 0.174950
v 0.566245 -0.031418 0.092423
v 0.426430 -0.377120 0.037427
v 0.317146 -0.133890 0.278858
v 0.246062 0.001384 0.314956
v 0.329822 -0.257953 0.177986
v 0.545789 -0.125508 0.110962
v 0.446933 -0.322920 0.084441
v 0.367601 -0.044375 0.300749
v 0.180166 -0.047978 0.300457
v 0.548690 0.001079 0.130904
v 0.213120 -0.080926 0.302419
v 0.350078 -0.214888 0.219384
v 0.445934 -0.221688 0.165638
v 0.474592 -0.176719 0.172086
v 0.453524 -0.120696 0.228620
v 0.295584 -0.093320 0.297828
v 0.201446 -0.132597 0.252159
v 0.297588 -0.221183 0.210041
v 0.162565 -0.094087 0.263183
v 0.156881 0.000706 0.286907
v 0.379624 -0.173954 0.242548
v 0.263628 -0.055430 0.311827
v 0.501994 -0.231192 0.115374
v 0.367222 -0.292572 0.143204
v 0.235539 -0.165735 0.240049
v 0.404265 -0.086673 0.274709
v 0.133487 -0.051146 0.264617
v 0.407482 -0.134791 0.252835
v 0.220510 -0.040115 0.313946
v 0.330350 -0.176213 0.251150
v 0.339970 0.000945 0.312783
v 0.316057 -0.046337 0.312198
v 0.413520 -0.039581 0.279700
v 0.364575 -0.128538 0.273645
v 0.460709 -0.381455 0.000000
v 0.109258 0.000693 0.258011
v 0.089900 -0.041269 0.239928
v 0.567143 -0.194467 0.000000
v 0.280510 -0.180497 0.244271
v 0.532051 -0.179604 0.106517
f 45 34 19
f 49 51 60
f 37 79 31
f 15 65 56
f 18 52 22
f 9 49 16
f 23 20 42
f 48 12 62
f 10 6 28
f 53 59 71
f 22 11 19
f 7 80 41
f 73 24 64
f 46 44 67
f 33 62 40
f 41 22 28
f 11 52 64
f 28 34 10
f 14 29 11
f 8 20 23
f 37 31 53
f 46 59 21
f 18 51 52
f 45 19 29
f 70 26 76
f 23 16 49
f 2 35 74
f 42 35 27
f 63 21 31
f 30 52 51
f 13 8 60
f 25 50 55
f 27 62 16
f 27 35 36
f 1 10 34
f 41 80 18
f 40 47 33
f 53 71 24
f 21 54 46
f 44 57 17
f 36 48 27
f 16 33 9
f 1 34 45
f 34 28 19
f 23 42 16
f 2 36 35
f 47 55 68
f 37 24 73
f 17 67 44
f 39 56 54
f 58 9 47
f 25 40 12
f 41 6 7
f 51 18 80
f 42 74 35
f 14 11 72
f 44 56 65
f 44 65 57
f 43 64 24
f 73 66 58
f 53 21 59
f 46 54 56
f 33 47 9
f 55 47 40
f 33 16 62
f 9 30 49
f 49 60 23
f 29 19 11
f 16 42 27
f 6 41 28
f 14 72 32
f 51 49 30
f 22 52 11
f 30 58 66
f 37 53 24
f 38 5 59
f 39 54 3
f 54 21 63
f 55 79 68
f 56 44 46
f 15 56 61
f 9 58 30
f 68 37 73
f 59 67 38
f 5 69 71
f 13 60 80
f 23 60 8
f 39 61 56
f 40 62 12
f 48 62 27
f 54 63 3
f 53 31 21
f 64 43 72
f 64 52 66
f 32 43 69
f 19 28 22
f 22 41 18
f 57 65 75
f 30 66 52
f 66 73 64
f 67 17 38
f 46 67 59
f 3 63 50
f 68 79 37
f 47 68 58
f 71 69 43
f 70 76 77
f 24 71 43
f 64 72 11
f 32 72 43
f 68 73 58
f 42 20 74
f 75 65 76
f 75 76 26
f 15 76 65
f 4 26 70
f 71 59 5
f 15 77 76
f 78 80 7
f 31 79 63
f 55 40 25
f 63 79 50
f 13 80 78
f 51 80 60
f 79 55 50
f 94 108 117
f 130 121 120
f 105 146 110
f 126 134 15
f 97 122 93
f 91 120 86
f 114 95 98
f 131 12 48
f 102 83 87
f 139 129 123
f 94 88 97
f 113 147 84
f 133 99 141
f 136 116 118
f 112 131 107
f 102 97 113
f 133 122 88
f 87 108 102
f 88 103 90
f 98 95 85
f 123 105 110
f 96 129 118
f 122 121 93
f 103 94 117
f 144 100 70
f 120 91 98
f 142 109 2
f 101 109 114
f 105 96 132
f 121 122 104
f 130 85 89
f 125 50 25
f 91 131 101
f 36 109 101
f 108 87 81
f 93 147 113
f 107 119 112
f 99 139 123
f 118 124 96
f 92 127 116
f 101 48 36
f 86 107 91
f 117 108 81
f 94 102 108
f 91 114 98
f 109 36 2
f 137 125 119
f 141 99 110
f 116 136 92
f 124 126 39
f 119 86 128
f 12 112 25
f 84 83 113
f 147 93 121
f 109 142 114
f 140 88 90
f 134 126 116
f 127 134 116
f 99 133 115
f 128 135 141
f 129 96 123
f 126 124 118
f 86 119 107
f 112 119 125
f 131 91 107
f 120 104 86
f 98 130 120
f 88 94 103
f 101 114 91
f 102 113 83
f 106 140 90
f 104 120 121
f 88 122 97
f 135 128 104
f 99 123 110
f 129 82 111
f 3 124 39
f 132 96 124
f 137 146 125
f 118 116 126
f 61 126 15
f 104 128 86
f 141 110 137
f 111 136 129
f 139 138 82
f 147 130 89
f 85 130 98
f 126 61 39
f 12 131 112
f 101 131 48
f 3 132 124
f 96 105 123
f 140 115 133
f 135 122 133
f 138 115 106
f 97 102 94
f 93 113 97
f 143 134 127
f 122 135 104
f 133 141 135
f 111 92 136
f 129 136 118
f 50 132 3
f 110 146 137
f 128 137 119
f 115 138 139
f 77 144 70
f 115 139 99
f 88 140 133
f 115 140 106
f 128 141 137
f 142 95 114
f 144 134 143
f 100 144 143
f 134 144 15
f 70 100 4
f 82 129 139
f 144 77 15
f 84 147 145
f 132 146 105
f 25 112 125
f 50 146 132
f 145 147 89
f 130 147 121
f 50 125 146
f 161 173 45
f 196 188 186
f 171 213 176
f 193 201 158
f 164 189 160
f 159 186 153
f 180 162 165
f 198 156 185
f 169 150 154
f 206 195 190
f 161 155 164
f 179 214 151
f 200 166 208
f 203 182 183
f 178 198 172
f 169 164 179
f 200 189 155
f 154 173 169
f 155 29 14
f 165 162 152
f 190 171 176
f 163 195 183
f 189 188 160
f 29 161 45
f 210 26 205
f 186 159 165
f 209 174 148
f 168 174 180
f 171 163 199
f 188 189 170
f 196 152 157
f 192 187 167
f 159 198 168
f 175 174 168
f 173 154 1
f 160 214 179
f 172 184 178
f 166 206 190
f 183 191 163
f 17 57 182
f 168 185 175
f 153 172 159
f 45 173 1
f 161 169 173
f 159 180 165
f 174 175 148
f 204 192 184
f 208 166 176
f 182 203 17
f 191 193 177
f 184 153 194
f 156 178 167
f 151 150 179
f 214 160 188
f 174 209 180
f 207 155 14
f 201 193 182
f 57 201 182
f 166 200 181
f 194 202 208
f 195 163 190
f 193 191 183
f 153 184 172
f 178 184 192
f 198 159 172
f 186 170 153
f 165 196 186
f 155 161 29
f 168 180 159
f 169 179 150
f 32 207 14
f 170 186 188
f 155 189 164
f 202 194 170
f 166 190 176
f 195 5 38
f 149 191 177
f 199 163 191
f 204 213 192
f 183 182 193
f 197 193 158
f 170 194 153
f 208 176 204
f 38 203 195
f 206 69 5
f 214 196 157
f 152 196 165
f 193 197 177
f 156 198 178
f 168 198 185
f 149 199 191
f 163 171 190
f 207 181 200
f 202 189 200
f 69 181 32
f 164 169 161
f 160 179 164
f 75 201 57
f 189 202 170
f 200 208 202
f 38 17 203
f 195 203 183
f 187 199 149
f 176 213 204
f 194 204 184
f 181 69 206
f 211 210 205
f 181 206 166
f 155 207 200
f 181 207 32
f 194 208 204
f 209 162 180
f 210 201 75
f 26 210 75
f 201 210 158
f 205 26 4
f 5 195 206
f 210 211 158
f 151 214 212
f 199 213 171
f 167 178 192
f 187 213 199
f 212 214 157
f 196 214 188
f 187 192 213
f 507 235 224
f 245 246 254
f 237 268 233
f 158 258 251
f 223 247 227
f 218 245 222
f 228 225 240
f 185 156 255
f 219 215 231
f 248 253 262
f 227 220 224
f 216 269 239
f 264 229 257
f 243 242 260
f 234 255 238
f 239 227 231
f 220 247 257
f 231 235 219
f 480 493 220
f 217 225 228
f 237 233 248
f 243 253 226
f 223 246 247
f 507 224 493
f 205 490 266
f 228 222 245
f 148 236 265
f 240 236 230
f 256 226 233
f 232 247 246
f 221 217 254
f 167 187 250
f 230 255 222
f 230 236 175
f 471 219 235
f 239 269 223
f 238 244 234
f 248 262 229
f 226 249 243
f 242 517 482
f 175 185 230
f 222 234 218
f 471 235 507
f 235 231 224
f 228 240 222
f 148 175 236
f 244 250 261
f 237 229 264
f 482 260 242
f 177 251 249
f 252 218 244
f 167 238 156
f 239 215 216
f 246 223 269
f 240 265 236
f 480 220 263
f 242 251 258
f 242 258 517
f 241 257 229
f 264 259 252
f 248 226 253
f 243 249 251
f 234 244 218
f 250 244 238
f 234 222 255
f 218 232 245
f 245 254 228
f 493 224 220
f 222 240 230
f 215 239 231
f 480 263 496
f 246 245 232
f 227 247 220
f 232 252 259
f 237 248 229
f 501 472 253
f 177 249 149
f 249 226 256
f 250 268 261
f 251 242 243
f 158 251 197
f 218 252 232
f 261 237 264
f 253 260 501
f 472 528 262
f 221 254 269
f 228 254 217
f 177 197 251
f 238 255 156
f 185 255 230
f 249 256 149
f 248 233 226
f 257 241 263
f 257 247 259
f 496 241 528
f 224 231 227
f 227 239 223
f 517 258 533
f 232 259 247
f 259 264 257
f 260 482 501
f 243 260 253
f 149 256 187
f 261 268 237
f 244 261 252
f 262 528 241
f 205 266 211
f 229 262 241
f 257 263 220
f 496 263 241
f 261 264 252
f 240 225 265
f 533 258 266
f 533 266 490
f 158 266 258
f 4 490 205
f 262 253 472
f 158 211 266
f 267 269 216
f 233 268 256
f 250 238 167
f 256 268 187
f 221 269 267
f 246 269 254
f 268 250 187
f 283 295 435
f 318 310 308
f 293 335 298
f 315 323 280
f 286 311 282
f 281 308 275
f 302 284 287
f 320 278 307
f 291 272 276
f 328 317 312
f 283 277 286
f 301 336 273
f 322 288 330
f 325 304 305
f 300 320 294
f 291 286 301
f 322 311 277
f 276 295 291
f 277 419 404
f 287 284 274
f 312 293 298
f 285 317 305
f 311 310 282
f 419 283 435
f 332 416 327
f 308 281 287
f 331 296 270
f 290 296 302
f 293 285 321
f 310 311 292
f 318 274 279
f 314 309 289
f 281 320 290
f 297 296 290
f 295 276 392
f 282 336 301
f 294 306 300
f 288 328 312
f 305 313 285
f 407 447 304
f 290 307 297
f 275 294 281
f 435 295 392
f 283 291 295
f 281 302 287
f 296 297 270
f 326 314 306
f 330 288 298
f 304 325 407
f 313 315 299
f 306 275 316
f 278 300 289
f 273 272 301
f 336 282 310
f 296 331 302
f 329 277 404
f 323 315 304
f 447 323 304
f 288 322 303
f 316 324 330
f 317 285 312
f 315 313 305
f 275 306 294
f 300 306 314
f 320 281 294
f 308 292 275
f 287 318 308
f 277 283 419
f 290 302 281
f 291 301 272
f 422 329 404
f 292 308 310
f 277 311 286
f 324 316 292
f 288 312 298
f 317 395 428
f 271 313 299
f 321 285 313
f 326 335 314
f 305 304 315
f 319 315 280
f 292 316 275
f 330 298 326
f 428 325 317
f 328 459 395
f 336 318 279
f 274 318 287
f 315 319 299
f 278 320 300
f 290 320 307
f 271 321 313
f 285 293 312
f 329 303 322
f 324 311 322
f 459 303 422
f 286 291 283
f 282 301 286
f 465 323 447
f 311 324 292
f 322 330 324
f 428 407 325
f 317 325 305
f 309 321 271
f 298 335 326
f 316 326 306
f 303 459 328
f 333 332 327
f 303 328 288
f 277 329 322
f 303 329 422
f 316 330 326
f 331 284 302
f 332 323 465
f 416 332 465
f 323 332 280
f 327 416 4
f 395 317 328
f 332 333 280
f 273 336 334
f 321 335 293
f 289 300 314
f 309 335 321
f 334 336 279
f 318 336 310
f 309 314 335
f 117 357 346
f 367 368 376
f 359 390 355
f 280 380 373
f 345 369 349
f 340 367 344
f 350 347 362
f 307 278 377
f 341 337 353
f 370 375 384
f 349 342 346
f 338 391 361
f 386 351 379
f 365 364 382
f 356 377 360
f 361 349 353
f 342 369 379
f 353 357 341
f 90 103 342
f 339 347 350
f 359 355 370
f 365 375 348
f 345 368 369
f 117 346 103
f 327 100 388
f 350 344 367
f 270 358 387
f 362 358 352
f 378 348 355
f 354 369 368
f 343 339 376
f 289 309 372
f 352 377 344
f 352 358 297
f 81 341 357
f 361 391 345
f 360 366 356
f 370 384 351
f 348 371 365
f 364 127 92
f 297 307 352
f 344 356 340
f 81 357 117
f 357 353 346
f 350 362 344
f 270 297 358
f 366 372 383
f 359 351 386
f 92 382 364
f 299 373 371
f 374 340 366
f 289 360 278
f 361 337 338
f 368 345 391
f 362 387 358
f 90 342 385
f 364 373 380
f 364 380 127
f 363 379 351
f 386 381 374
f 370 348 375
f 365 371 373
f 356 366 340
f 372 366 360
f 356 344 377
f 340 354 367
f 367 376 350
f 103 346 342
f 344 362 352
f 337 361 353
f 90 385 106
f 368 367 354
f 349 369 342
f 354 374 381
f 359 370 351
f 111 82 375
f 299 371 271
f 371 348 378
f 372 390 383
f 373 364 365
f 280 373 319
f 340 374 354
f 383 359 386
f 375 382 111
f 82 138 384
f 343 376 391
f 350 376 339
f 299 319 373
f 360 377 278
f 307 377 352
f 371 378 271
f 370 355 348
f 379 363 385
f 379 369 381
f 106 363 138
f 346 353 349
f 349 361 345
f 127 380 143
f 354 381 369
f 381 386 379
f 382 92 111
f 365 382 375
f 271 378 309
f 383 390 359
f 366 383 374
f 384 138 363
f 327 388 333
f 351 384 363
f 379 385 342
f 106 385 363
f 383 386 374
f 362 347 387
f 143 380 388
f 143 388 100
f 280 388 380
f 4 100 327
f 384 375 82
f 280 333 388
f 389 391 338
f 355 390 378
f 372 360 289
f 378 390 309
f 343 391 389
f 368 391 376
f 390 372 309
f 435 424 409
f 439 441 450
f 427 469 421
f 405 455 446
f 408 442 412
f 399 439 406
f 413 410 432
f 438 402 452
f 400 396 418
f 443 449 461
f 412 401 409
f 397 470 431
f 463 414 454
f 436 434 457
f 423 452 430
f 431 412 418
f 401 442 454
f 418 424 400
f 404 419 401
f 398 410 413
f 427 421 443
f 436 449 411
f 408 441 442
f 435 409 419
f 460 416 466
f 413 406 439
f 393 425 464
f 432 425 417
f 453 411 421
f 420 442 441
f 403 398 450
f 415 440 445
f 417 452 406
f 417 425 426
f 392 400 424
f 431 470 408
f 430 437 423
f 443 461 414
f 411 444 436
f 434 447 407
f 426 438 417
f 406 423 399
f 392 424 435
f 424 418 409
f 413 432 406
f 393 426 425
f 437 445 458
f 427 414 463
f 407 457 434
f 429 446 444
f 448 399 437
f 415 430 402
f 431 396 397
f 441 408 470
f 432 464 425
f 404 401 462
f 434 446 455
f 434 455 447
f 433 454 414
f 463 456 448
f 443 411 449
f 436 444 446
f 423 437 399
f 445 437 430
f 423 406 452
f 399 420 439
f 439 450 413
f 419 409 401
f 406 432 417
f 396 431 418
f 404 462 422
f 441 439 420
f 412 442 401
f 420 448 456
f 427 443 414
f 428 395 449
f 429 444 394
f 444 411 453
f 445 469 458
f 446 434 436
f 405 446 451
f 399 448 420
f 458 427 463
f 449 457 428
f 395 459 461
f 403 450 470
f 413 450 398
f 429 451 446
f 430 452 402
f 438 452 417
f 444 453 394
f 443 421 411
f 454 433 462
f 454 442 456
f 422 433 459
f 409 418 412
f 412 431 408
f 447 455 465
f 420 456 442
f 456 463 454
f 457 407 428
f 436 457 449
f 394 453 440
f 458 469 427
f 437 458 448
f 461 459 433
f 460 466 467
f 414 461 433
f 454 462 401
f 422 462 433
f 458 463 448
f 432 410 464
f 465 455 466
f 465 466 416
f 405 466 455
f 4 416 460
f 461 449 395
f 405 467 466
f 468 470 397
f 421 469 453
f 445 430 415
f 453 469 440
f 403 470 468
f 441 470 450
f 469 445 440
f 484 498 507
f 520 511 510
f 495 536 500
f 516 524 405
f 487 512 483
f 481 510 476
f 504 485 488
f 521 402 438
f 492 473 477
f 529 519 513
f 484 478 487
f 503 537 474
f 523 489 531
f 526 506 508
f 502 521 497
f 492 487 503
f 523 512 478
f 477 498 492
f 478 493 480
f 488 485 475
f 513 495 500
f 486 519 508
f 512 511 483
f 493 484 507
f 534 490 460
f 510 481 488
f 532 499 393
f 491 499 504
f 495 486 522
f 511 512 494
f 520 475 479
f 515 440 415
f 481 521 491
f 426 499 491
f 498 477 471
f 483 537 503
f 497 509 502
f 489 529 513
f 508 514 486
f 482 517 506
f 491 438 426
f 476 497 481
f 507 498 471
f 484 492 498
f 481 504 488
f 499 426 393
f 527 515 509
f 531 489 500
f 506 526 482
f 514 516 429
f 509 476 518
f 402 502 415
f 474 473 503
f 537 483 511
f 499 532 504
f 530 478 480
f 524 516 506
f 517 524 506
f 489 523 505
f 518 525 531
f 519 486 513
f 516 514 508
f 476 509 497
f 502 509 515
f 521 481 497
f 510 494 476
f 488 520 510
f 478 484 493
f 491 504 481
f 492 503 473
f 496 530 480
f 494 510 511
f 478 512 487
f 525 518 494
f 489 513 500
f 519 472 501
f 394 514 429
f 522 486 514
f 527 536 515
f 508 506 516
f 451 516 405
f 494 518 476
f 531 500 527
f 501 526 519
f 529 528 472
f 537 520 479
f 475 520 488
f 516 451 429
f 402 521 502
f 491 521 438
f 394 522 514
f 486 495 513
f 530 505 523
f 525 512 523
f 528 505 496
f 487 492 484
f 483 503 487
f 533 524 517
f 512 525 494
f 523 531 525
f 501 482 526
f 519 526 508
f 440 522 394
f 500 536 527
f 518 527 509
f 505 528 529
f 467 534 460
f 505 529 489
f 478 530 523
f 505 530 496
f 518 531 527
f 532 485 504
f 534 524 533
f 490 534 533
f 524 534 405
f 460 490 4
f 472 519 529
f 534 467 405
f 474 537 535
f 522 536 495
f 415 502 515
f 440 536 522
f 535 537 479
f 520 537 511
f 440 515 536
