# 4part FEM knit+cable best fit (4part_s_ring93)
# interior RMSE  : 3.555 mm
# max deviation  : 13.832 mm
# crown          : 0.32009 m (target 0.32177 m)
# max disp/rest  : 13.832 mm (floor 5.0 mm)
# regions        : 4 (1 D4 slots), 4 parameters
v 0.000616 0.600859 0.000000
v -0.423648 0.425123 0.000000
v -0.187613 0.189522 0.178503
v 0.000945 0.000666 0.208643
v 0.001028 0.294503 0.320090
v -0.111519 0.589084 0.000000
v -0.154511 0.578763 0.000000
v -0.288752 0.525061 0.000000
v -0.220391 0.403139 0.202609
v -0.051844 0.596730 0.000000
v -0.057107 0.464179 0.240206
v -0.310007 0.311875 0.105482
v -0.237731 0.549565 0.000000
v 0.001155 0.440380 0.269999
v -0.096928 0.098600 0.202406
v -0.275719 0.418548 0.146284
v 0.001872 0.201241 0.316317
v -0.142912 0.506215 0.163018
v -0.044887 0.514561 0.183520
v -0.329212 0.500267 0.000000
v -0.111472 0.247463 0.286256
v -0.092613 0.499952 0.200206
v -0.277433 0.470755 0.093087
v -0.087025 0.347282 0.292104
v -0.270129 0.272130 0.134558
v 0.001150 0.055172 0.228688
v -0.328989 0.401481 0.099155
v -0.078934 0.546306 0.112913
v 0.001041 0.487406 0.222483
v -0.176423 0.430951 0.218935
v -0.138348 0.276819 0.285414
v 0.000904 0.390861 0.297922
v -0.252665 0.374830 0.183256
v -0.032288 0.560738 0.091474
v -0.368596 0.421130 0.043091
v -0.388262 0.389818 0.037660
v -0.134766 0.317529 0.279808
v 0.001286 0.248132 0.318783
v -0.154420 0.156262 0.189781
v -0.259349 0.330310 0.178541
v -0.125164 0.538465 0.108298
v -0.326530 0.448405 0.065804
v -0.044343 0.368682 0.303599
v -0.047674 0.180229 0.288097
v 0.000577 0.545002 0.127704
v -0.081351 0.212838 0.288543
v -0.214132 0.350953 0.218125
v -0.349266 0.350999 0.072874
v -0.227487 0.449908 0.169616
v -0.227388 0.229641 0.160454
v -0.180576 0.477992 0.176235
v -0.120786 0.452795 0.239488
v -0.092248 0.295845 0.297731
v -0.130572 0.202755 0.257856
v -0.225629 0.297036 0.202826
v -0.095189 0.161868 0.256884
v 0.001953 0.157170 0.287371
v -0.178645 0.383608 0.239919
v -0.055090 0.264176 0.309555
v -0.229728 0.496141 0.104771
v -0.125648 0.127459 0.196962
v -0.293733 0.367511 0.143515
v -0.163680 0.236820 0.246337
v -0.086518 0.404031 0.273124
v -0.049540 0.135589 0.271896
v -0.139601 0.411794 0.252402
v -0.038624 0.221930 0.306003
v -0.175809 0.331875 0.255786
v 0.000827 0.340919 0.313719
v -0.033661 0.035234 0.208154
v -0.049144 0.318150 0.311137
v -0.039794 0.414683 0.280763
v -0.128715 0.364776 0.282457
v -0.381698 0.460952 0.000000
v 0.001145 0.111173 0.273637
v -0.041263 0.090341 0.243794
v -0.067262 0.068817 0.205796
v -0.194710 0.567385 0.000000
v -0.186458 0.279835 0.237841
v -0.178031 0.524282 0.100977
v -0.599383 0.000859 0.000000
v -0.292780 0.000434 0.319389
v -0.587609 0.112995 0.000000
v -0.577288 0.155985 0.000000
v -0.523586 0.290227 0.000000
v -0.401067 0.221045 0.201649
v -0.595255 0.053319 0.000000
v -0.458206 0.058077 0.244370
v -0.548091 0.239205 0.000000
v -0.441704 0.000548 0.262892
v -0.416575 0.276636 0.145769
v -0.199190 0.000803 0.303314
v -0.497368 0.141216 0.170765
v -0.516439 0.046872 0.172178
v -0.498792 0.330686 0.000000
v -0.244998 0.114642 0.277570
v -0.502319 0.094808 0.180394
v -0.470778 0.280496 0.087723
v -0.345204 0.088074 0.295889
v -0.053664 0.000692 0.228225
v -0.399604 0.330720 0.099213
v -0.543647 0.080281 0.112282
v -0.489302 0.000620 0.214463
v -0.429963 0.177776 0.212118
v -0.276397 0.141460 0.303103
v -0.388504 0.000762 0.295993
v -0.372678 0.253164 0.182061
v -0.559665 0.033663 0.088463
v -0.419586 0.370216 0.043429
v -0.317485 0.136570 0.262904
v -0.244625 -0.000122 0.314544
v -0.327859 0.262006 0.174223
v -0.535876 0.126298 0.107656
v -0.442024 0.322633 0.076452
v -0.366853 0.046337 0.302192
v -0.177432 0.050353 0.288653
v -0.542971 0.000876 0.127510
v -0.210955 0.082965 0.287262
v -0.349300 0.215993 0.218332
v -0.448847 0.229336 0.165499
v -0.475005 0.181141 0.175296
v -0.457225 0.124094 0.219706
v -0.294219 0.094298 0.298591
v -0.200276 0.133693 0.251378
v -0.296744 0.222213 0.209265
v -0.160306 0.096847 0.256249
v -0.156876 0.000556 0.284239
v -0.381107 0.178558 0.236580
v -0.261935 0.056857 0.309847
v -0.493704 0.230873 0.104297
v -0.365585 0.294903 0.143189
v -0.234451 0.167218 0.239833
v -0.403124 0.088072 0.274497
v -0.132765 0.052651 0.263356
v -0.406775 0.136168 0.252901
v -0.218395 0.042211 0.318131
v -0.330367 0.177840 0.250705
v -0.339181 0.000674 0.313359
v -0.314603 0.047702 0.314631
v -0.411722 0.041146 0.286018
v -0.364553 0.130417 0.274427
v -0.459477 0.383172 0.000000
v -0.110360 0.000444 0.258568
v -0.088353 0.043328 0.237974
v -0.565910 0.196184 0.000000
v -0.280407 0.179818 0.247796
v -0.521224 0.178943 0.102030
v 0.424880 0.425123 0.000000
v 0.188924 0.189451 0.178717
v 0.112752 0.589084 0.000000
v 0.155743 0.578763 0.000000
v 0.289984 0.525061 0.000000
v 0.223861 0.404488 0.203398
v 0.053076 0.596730 0.000000
v 0.058803 0.460188 0.244503
v 0.311333 0.311722 0.105351
v 0.238963 0.549565 0.000000
v 0.098653 0.098293 0.202560
v 0.282489 0.420791 0.140660
v 0.141573 0.498830 0.171030
v 0.046599 0.513797 0.182722
v 0.330445 0.500267 0.000000
v 0.112636 0.248624 0.285276
v 0.094736 0.501105 0.188419
v 0.277704 0.467994 0.102383
v 0.088308 0.347238 0.296726
v 0.271436 0.271881 0.134476
v 0.332948 0.401109 0.101096
v 0.079680 0.544070 0.118810
v 0.177360 0.429566 0.218040
v 0.142664 0.275924 0.268952
v 0.255963 0.375544 0.184915
v 0.033291 0.561006 0.091430
v 0.370888 0.421296 0.044210
v 0.389548 0.389745 0.037534
v 0.135572 0.317735 0.279218
v 0.155860 0.156275 0.190154
v 0.259318 0.330522 0.182473
v 0.127987 0.543442 0.097478
v 0.321516 0.442001 0.085886
v 0.046303 0.368289 0.304526
v 0.052349 0.177372 0.292905
v 0.082737 0.213762 0.311271
v 0.220811 0.352640 0.200160
v 0.350733 0.350824 0.072808
v 0.230190 0.450515 0.165893
v 0.228711 0.229386 0.160406
v 0.181757 0.476722 0.175699
v 0.124394 0.457551 0.223262
v 0.094635 0.296806 0.300251
v 0.133654 0.202298 0.253799
v 0.221518 0.298939 0.209337
v 0.103767 0.155851 0.249275
v 0.183018 0.383287 0.236627
v 0.058536 0.265211 0.314895
v 0.231928 0.496519 0.105603
v 0.127284 0.127242 0.197182
v 0.294887 0.367408 0.143370
v 0.167646 0.235853 0.240965
v 0.088746 0.404941 0.274700
v 0.054200 0.132559 0.265776
v 0.136473 0.407331 0.251922
v 0.041856 0.221942 0.314344
v 0.178614 0.330924 0.260899
v 0.035631 0.035047 0.208133
v 0.048582 0.317419 0.314287
v 0.041559 0.413534 0.285225
v 0.130500 0.365217 0.273898
v 0.382930 0.460952 0.000000
v 0.044664 0.088392 0.239724
v 0.069111 0.068555 0.205898
v 0.195941 0.567385 0.000000
v 0.181646 0.281629 0.258861
v 0.179291 0.522255 0.106591
v 0.588842 0.112995 0.000000
v 0.578520 0.155985 0.000000
v 0.524819 0.290227 0.000000
v 0.401193 0.220563 0.200803
v 0.596487 0.053319 0.000000
v 0.460503 0.058656 0.245414
v 0.549323 0.239205 0.000000
v 0.417461 0.277165 0.146089
v 0.496834 0.140926 0.177287
v 0.513690 0.046672 0.183119
v 0.500025 0.330686 0.000000
v 0.246717 0.114249 0.286896
v 0.500947 0.094607 0.189204
v 0.469301 0.278768 0.092789
v 0.347445 0.089117 0.298156
v 0.401448 0.334608 0.091220
v 0.544252 0.080283 0.115232
v 0.430211 0.178138 0.219347
v 0.277293 0.139647 0.284575
v 0.373271 0.253491 0.181973
v 0.560119 0.033736 0.091369
v 0.420792 0.370466 0.043415
v 0.318934 0.137755 0.277782
v 0.327806 0.266122 0.170610
v 0.537448 0.126537 0.107994
v 0.442551 0.322570 0.076393
v 0.367990 0.046193 0.300751
v 0.180695 0.049560 0.287489
v 0.212766 0.083450 0.288429
v 0.349905 0.218304 0.220042
v 0.449611 0.229638 0.165500
v 0.476339 0.181782 0.176795
v 0.453347 0.122864 0.229253
v 0.295951 0.093981 0.309699
v 0.201743 0.133965 0.252061
v 0.297419 0.223252 0.210237
v 0.161770 0.097193 0.255098
v 0.380334 0.178567 0.261645
v 0.264009 0.057197 0.309181
v 0.494663 0.231016 0.104445
v 0.366566 0.295774 0.143898
v 0.235966 0.167142 0.239963
v 0.404050 0.087970 0.286058
v 0.135085 0.052225 0.263341
v 0.409429 0.138583 0.252239
v 0.220883 0.041946 0.302706
v 0.331195 0.179007 0.261443
v 0.316700 0.048352 0.310969
v 0.414432 0.041385 0.280932
v 0.367187 0.133531 0.268910
v 0.460709 0.383172 0.000000
v 0.090413 0.042966 0.238110
v 0.567143 0.196184 0.000000
v 0.280829 0.182273 0.243946
v 0.522411 0.179131 0.102266
v -0.423648 -0.423406 0.000000
v -0.187358 -0.187801 0.178378
v -0.111519 -0.587366 0.000000
v -0.154511 -0.577046 0.000000
v -0.288752 -0.523343 0.000000
v -0.220011 -0.401058 0.202238
v -0.051844 -0.595012 0.000000
v -0.057702 -0.461842 0.239495
v -0.309889 -0.310152 0.105168
v -0.237731 -0.547848 0.000000
v -0.096815 -0.097051 0.202767
v -0.276115 -0.416933 0.146580
v -0.140009 -0.497718 0.171165
v -0.044959 -0.512052 0.183044
v -0.329212 -0.498550 0.000000
v -0.112420 -0.247329 0.284593
v -0.093030 -0.499895 0.189218
v -0.277581 -0.468441 0.093078
v -0.086658 -0.345506 0.303748
v -0.269877 -0.270297 0.134024
v -0.334996 -0.400580 0.091146
v -0.080093 -0.553646 0.092803
v -0.176004 -0.428756 0.218520
v -0.139711 -0.275847 0.272500
v -0.252107 -0.372789 0.186750
v -0.031760 -0.559539 0.091210
v -0.369087 -0.419412 0.043498
v -0.388196 -0.388135 0.037469
v -0.134384 -0.316573 0.278405
v -0.154347 -0.154543 0.189965
v -0.259664 -0.328107 0.178708
v -0.125803 -0.537229 0.106272
v -0.320659 -0.440893 0.078570
v -0.045021 -0.367476 0.301239
v -0.047574 -0.179951 0.299485
v -0.084152 -0.211592 0.291545
v -0.216731 -0.349407 0.217612
v -0.349002 -0.349619 0.072712
v -0.228153 -0.448768 0.165655
v -0.227236 -0.227747 0.159898
v -0.180161 -0.475555 0.175784
v -0.121435 -0.452866 0.229194
v -0.094028 -0.295117 0.300242
v -0.132674 -0.200175 0.252526
v -0.220877 -0.297124 0.212033
v -0.092553 -0.162501 0.267851
v -0.174606 -0.378921 0.242754
v -0.056186 -0.263638 0.318521
v -0.229820 -0.493765 0.104545
v -0.125659 -0.125730 0.197245
v -0.293312 -0.365535 0.145867
v -0.174414 -0.230259 0.229347
v -0.087892 -0.405084 0.273959
v -0.050462 -0.132229 0.264805
v -0.136059 -0.407777 0.251404
v -0.042428 -0.219568 0.309839
v -0.176894 -0.329803 0.251210
v -0.033603 -0.033836 0.208211
v -0.047221 -0.316004 0.313204
v -0.041957 -0.419961 0.275360
v -0.128686 -0.363926 0.272902
v -0.381698 -0.459234 0.000000
v -0.041572 -0.088036 0.238702
v -0.067100 -0.067383 0.206039
v -0.194710 -0.565668 0.000000
v -0.181658 -0.279975 0.244214
v -0.178479 -0.522711 0.099540
v -0.587609 -0.111278 0.000000
v -0.577288 -0.154268 0.000000
v -0.523586 -0.288510 0.000000
v -0.400355 -0.219472 0.201653
v -0.595255 -0.051602 0.000000
v -0.463356 -0.057649 0.237467
v -0.548091 -0.237488 0.000000
v -0.415633 -0.276272 0.146560
v -0.497429 -0.139697 0.171216
v -0.512525 -0.045123 0.183538
v -0.498792 -0.328969 0.000000
v -0.247196 -0.111610 0.283818
v -0.499904 -0.093036 0.189322
v -0.465734 -0.274943 0.112456
v -0.345767 -0.087075 0.293146
v -0.399366 -0.329445 0.109806
v -0.544738 -0.078441 0.113049
v -0.428189 -0.175546 0.218060
v -0.275349 -0.139660 0.272570
v -0.372342 -0.252964 0.183524
v -0.556649 -0.031772 0.096877
v -0.419852 -0.369135 0.044013
v -0.316038 -0.134630 0.279347
v -0.327895 -0.258635 0.180526
v -0.537433 -0.124638 0.108818
v -0.443511 -0.323635 0.078606
v -0.366256 -0.044409 0.303444
v -0.174259 -0.052264 0.281648
v -0.212205 -0.082239 0.288533
v -0.348537 -0.214965 0.218848
v -0.447842 -0.227505 0.164960
v -0.478217 -0.181582 0.170423
v -0.452828 -0.121266 0.229355
v -0.294897 -0.092672 0.298127
v -0.200783 -0.132033 0.251312
v -0.296066 -0.221440 0.209594
v -0.158831 -0.097316 0.250103
v -0.378225 -0.173926 0.242016
v -0.262806 -0.055821 0.309351
v -0.496823 -0.230393 0.106966
v -0.364918 -0.296365 0.139579
v -0.234511 -0.165601 0.239373
v -0.403313 -0.086669 0.273128
v -0.130671 -0.053571 0.258018
v -0.407081 -0.135498 0.253633
v -0.220128 -0.040271 0.303318
v -0.329050 -0.176340 0.250615
v -0.315229 -0.046765 0.312194
v -0.412812 -0.039814 0.280480
v -0.363364 -0.128665 0.282576
v -0.459477 -0.381455 0.000000
v -0.087872 -0.042189 0.238679
v -0.565910 -0.194467 0.000000
v -0.279237 -0.180741 0.243348
v -0.520092 -0.176622 0.111832
v 0.000616 -0.599141 0.000000
v 0.424880 -0.423406 0.000000
v 0.189370 -0.187908 0.178024
v 0.000230 -0.293008 0.319712
v 0.112752 -0.587366 0.000000
v 0.155743 -0.577046 0.000000
v 0.289984 -0.523343 0.000000
v 0.221472 -0.400668 0.201751
v 0.053076 -0.595012 0.000000
v 0.058325 -0.457510 0.243470
v 0.311862 -0.310150 0.105071
v 0.238963 -0.547848 0.000000
v 0.000965 -0.440177 0.266441
v 0.098747 -0.097149 0.202381
v 0.277460 -0.416578 0.146205
v 0.000445 -0.199956 0.317178
v 0.141568 -0.497577 0.170432
v 0.046739 -0.515090 0.175843
v 0.330445 -0.498550 0.000000
v 0.112630 -0.247065 0.283629
v 0.095383 -0.504900 0.178769
v 0.279488 -0.468800 0.093339
v 0.091105 -0.348488 0.292258
v 0.271935 -0.270383 0.134004
v 0.001119 -0.053716 0.227934
v 0.331409 -0.399682 0.099439
v 0.079816 -0.545113 0.112571
v 0.000814 -0.485429 0.222282
v 0.177036 -0.427861 0.217554
v 0.139710 -0.276035 0.281887
v 0.000473 -0.389149 0.296898
v 0.254430 -0.372748 0.182930
v 0.033368 -0.559304 0.091436
v 0.370413 -0.419641 0.043431
v 0.390160 -0.388242 0.037247
v 0.135361 -0.316597 0.281035
v 0.000115 -0.246528 0.317322
v 0.156245 -0.154720 0.189506
v 0.261475 -0.328287 0.178344
v 0.127373 -0.542514 0.096321
v 0.323208 -0.442115 0.076884
v 0.045775 -0.367265 0.301813
v 0.049652 -0.179003 0.287655
v 0.000679 -0.543244 0.127604
v 0.083506 -0.211617 0.288100
v 0.216286 -0.348620 0.217876
v 0.351181 -0.349329 0.072544
v 0.229844 -0.448594 0.165636
v 0.229242 -0.227825 0.159791
v 0.181722 -0.475155 0.175560
v 0.122118 -0.451634 0.227606
v 0.093644 -0.295280 0.297477
v 0.132596 -0.201422 0.255091
v 0.228733 -0.294338 0.200918
v 0.096729 -0.160854 0.256234
v 0.001514 -0.152392 0.284809
v 0.177178 -0.379028 0.239758
v 0.056283 -0.263242 0.316515
v 0.232025 -0.494259 0.105120
v 0.127468 -0.125981 0.196811
v 0.295702 -0.365629 0.143376
v 0.167507 -0.234511 0.239607
v 0.088945 -0.404028 0.271196
v 0.052739 -0.133197 0.263624
v 0.136608 -0.406137 0.252173
v 0.041803 -0.219681 0.305146
v 0.177710 -0.329265 0.249824
v 0.000278 -0.339544 0.313608
v 0.035599 -0.033845 0.208134
v 0.047702 -0.315745 0.313367
v 0.041355 -0.412727 0.280446
v 0.131179 -0.364117 0.273991
v 0.382930 -0.459234 0.000000
v 0.001298 -0.108740 0.260455
v 0.043921 -0.088238 0.238523
v 0.069094 -0.067426 0.205810
v 0.195941 -0.565668 0.000000
v 0.182264 -0.279380 0.243394
v 0.178433 -0.517928 0.113370
v 0.600616 0.000859 0.000000
v 0.293974 0.001038 0.318665
v 0.588842 -0.111278 0.000000
v 0.578520 -0.154268 0.000000
v 0.524819 -0.288510 0.000000
v 0.402263 -0.220034 0.202713
v 0.596487 -0.051602 0.000000
v 0.459666 -0.056652 0.244373
v 0.549323 -0.237488 0.000000
v 0.444475 0.000872 0.262236
v 0.417981 -0.275617 0.146386
v 0.200624 0.000512 0.306804
v 0.499237 -0.139633 0.171431
v 0.516026 -0.044898 0.178977
v 0.500025 -0.328969 0.000000
v 0.248684 -0.111729 0.283868
v 0.500086 -0.092513 0.192650
v 0.470869 -0.277762 0.094003
v 0.346510 -0.086180 0.295435
v 0.055252 0.000658 0.228590
v 0.401423 -0.330203 0.100196
v 0.545149 -0.078564 0.114560
v 0.487439 0.000891 0.222260
v 0.429681 -0.175383 0.218179
v 0.276992 -0.139525 0.272285
v 0.389832 0.000873 0.295744
v 0.375627 -0.258852 0.176765
v 0.560256 -0.031976 0.091473
v 0.424104 -0.373868 0.035094
v 0.317646 -0.134004 0.278515
v 0.246696 0.001332 0.314555
v 0.330085 -0.258631 0.177834
v 0.538466 -0.124878 0.107710
v 0.443329 -0.320558 0.080449
v 0.368002 -0.044429 0.300753
v 0.180936 -0.048158 0.300011
v 0.544402 0.000973 0.127659
v 0.213852 -0.081114 0.301938
v 0.350403 -0.215326 0.219547
v 0.448713 -0.226623 0.171490
v 0.477160 -0.179737 0.176076
v 0.454126 -0.121076 0.229379
v 0.296160 -0.093439 0.297444
v 0.202130 -0.132898 0.251571
v 0.298074 -0.221446 0.209524
v 0.163329 -0.094317 0.262588
v 0.157606 0.000664 0.286528
v 0.379983 -0.174234 0.242792
v 0.264262 -0.055550 0.311398
v 0.494099 -0.228532 0.110353
v 0.367115 -0.294328 0.143765
v 0.236171 -0.166006 0.239435
v 0.404575 -0.086689 0.274671
v 0.134197 -0.051399 0.264176
v 0.407822 -0.134915 0.252996
v 0.221219 -0.040251 0.313506
v 0.330779 -0.176406 0.250936
v 0.340407 0.000918 0.312722
v 0.316568 -0.046402 0.311914
v 0.413940 -0.039700 0.280192
v 0.364964 -0.128576 0.273467
v 0.460709 -0.381455 0.000000
v 0.109936 0.000648 0.257660
v 0.090522 -0.041514 0.239488
v 0.567143 -0.194467 0.000000
v 0.281049 -0.180766 0.243783
v 0.523641 -0.177477 0.102883
f 45 34 19
f 49 51 60
f 37 79 31
f 15 65 56
f 18 52 22
f 9 49 16
f 23 20 42
f 48 12 62
f 10 6 28
f 53 59 71
f 22 11 19
f 7 80 41
f 73 24 64
f 46 44 67
f 33 62 40
f 41 22 28
f 11 52 64
f 28 34 10
f 14 29 11
f 8 20 23
f 37 31 53
f 46 59 21
f 18 51 52
f 45 19 29
f 70 26 76
f 23 16 49
f 2 35 74
f 42 35 27
f 63 21 31
f 30 52 51
f 13 8 60
f 25 50 55
f 27 62 16
f 27 35 36
f 1 10 34
f 41 80 18
f 40 47 33
f 53 71 24
f 21 54 46
f 44 57 17
f 36 48 27
f 16 33 9
f 1 34 45
f 34 28 19
f 23 42 16
f 2 36 35
f 47 55 68
f 37 24 73
f 17 67 44
f 39 56 54
f 58 9 47
f 25 40 12
f 41 6 7
f 51 18 80
f 42 74 35
f 14 11 72
f 44 56 65
f 44 65 57
f 43 64 24
f 73 66 58
f 53 21 59
f 46 54 56
f 33 47 9
f 55 47 40
f 33 16 62
f 9 30 49
f 49 60 23
f 29 19 11
f 16 42 27
f 6 41 28
f 14 72 32
f 51 49 30
f 22 52 11
f 30 58 66
f 37 53 24
f 38 5 59
f 39 54 3
f 54 21 63
f 55 79 68
f 56 44 46
f 15 56 61
f 9 58 30
f 68 37 73
f 59 67 38
f 5 69 71
f 13 60 80
f 23 60 8
f 39 61 56
f 40 62 12
f 48 62 27
f 54 63 3
f 53 31 21
f 64 43 72
f 64 52 66
f 32 43 69
f 19 28 22
f 22 41 18
f 57 65 75
f 30 66 52
f 66 73 64
f 67 17 38
f 46 67 59
f 3 63 50
f 68 79 37
f 47 68 58
f 71 69 43
f 70 76 77
f 24 71 43
f 64 72 11
f 32 72 43
f 68 73 58
f 42 20 74
f 75 65 76
f 75 76 26
f 15 76 65
f 4 26 70
f 71 59 5
f 15 77 76
f 78 80 7
f 31 79 63
f 55 40 25
f 63 79 50
f 13 80 78
f 51 80 60
f 79 55 50
f 94 108 117
f 130 121 120
f 105 146 110
f 126 134 15
f 97 122 93
f 91 120 86
f 114 95 98
f 131 12 48
f 102 83 87
f 139 129 123
f 94 88 97
f 113 147 84
f 133 99 141
f 136 116 118
f 112 131 107
f 102 97 113
f 133 122 88
f 87 108 102
f 88 103 90
f 98 95 85
f 123 105 110
f 96 129 118
f 122 121 93
f 103 94 117
f 144 100 70
f 120 91 98
f 142 109 2
f 101 109 114
f 105 96 132
f 121 122 104
f 130 85 89
f 125 50 25
f 91 131 101
f 36 109 101
f 108 87 81
f 93 147 113
f 107 119 112
f 99 139 123
f 118 124 96
f 92 127 116
f 101 48 36
f 86 107 91
f 117 108 81
f 94 102 108
f 91 114 98
f 109 36 2
f 137 125 119
f 141 99 110
f 116 136 92
f 124 126 39
f 119 86 128
f 12 112 25
f 84 83 113
f 147 93 121
f 109 142 114
f 140 88 90
f 134 126 116
f 127 134 116
f 99 133 115
f 128 135 141
f 129 96 123
f 126 124 118
f 86 119 107
f 112 119 125
f 131 91 107
f 120 104 86
f 98 130 120
f 88 94 103
f 101 114 91
f 102 113 83
f 106 140 90
f 104 120 121
f 88 122 97
f 135 128 104
f 99 123 110
f 129 82 111
f 3 124 39
f 132 96 124
f 137 146 125
f 118 116 126
f 61 126 15
f 104 128 86
f 141 110 137
f 111 136 129
f 139 138 82
f 147 130 89
f 85 130 98
f 126 61 39
f 12 131 112
f 101 131 48
f 3 132 124
f 96 105 123
f 140 115 133
f 135 122 133
f 138 115 106
f 97 102 94
f 93 113 97
f 143 134 127
f 122 135 104
f 133 141 135
f 111 92 136
f 129 136 118
f 50 132 3
f 110 146 137
f 128 137 119
f 115 138 139
f 77 144 70
f 115 139 99
f 88 140 133
f 115 140 106
f 128 141 137
f 142 95 114
f 144 134 143
f 100 144 143
f 134 144 15
f 70 100 4
f 82 129 139
f 144 77 15
f 84 147 145
f 132 146 105
f 25 112 125
f 50 146 132
f 145 147 89
f 130 147 121
f 50 125 146
f 161 173 45
f 196 188 186
f 171 213 176
f 193 201 158
f 164 189 160
f 159 186 153
f 180 162 165
f 198 156 185
f 169 150 154
f 206 195 190
f 161 155 164
f 179 214 151
f 200 166 208
f 203 182 183
f 178 198 172
f 169 164 179
f 200 189 155
f 154 173 169
f 155 29 14
f 165 162 152
f 190 171 176
f 163 195 183
f 189 188 160
f 29 161 45
f 210 26 205
f 186 159 165
f 209 174 148
f 168 174 180
f 171 163 199
f 188 189 170
f 196 152 157
f 192 187 167
f 159 198 168
f 175 174 168
f 173 154 1
f 160 214 179
f 172 184 178
f 166 206 190
f 183 191 163
f 17 57 182
f 168 185 175
f 153 172 159
f 45 173 1
f 161 169 173
f 159 180 165
f 174 175 148
f 204 192 184
f 208 166 176
f 182 203 17
f 191 193 177
f 184 153 194
f 156 178 167
f 151 150 179
f 214 160 188
f 174 209 180
f 207 155 14
f 201 193 182
f 57 201 182
f 166 200 181
f 194 202 208
f 195 163 190
f 193 191 183
f 153 184 172
f 178 184 192
f 198 159 172
f 186 170 153
f 165 196 186
f 155 161 29
f 168 180 159
f 169 179 150
f 32 207 14
f 170 186 188
f 155 189 164
f 202 194 170
f 166 190 176
f 195 5 38
f 149 191 177
f 199 163 191
f 204 213 192
f 183 182 193
f 197 193 158
f 170 194 153
f 208 176 204
f 38 203 195
f 206 69 5
f 214 196 157
f 152 196 165
f 193 197 177
f 156 198 178
f 168 198 185
f 149 199 191
f 163 171 190
f 207 181 200
f 202 189 200
f 69 181 32
f 164 169 161
f 160 179 164
f 75 201 57
f 189 202 170
f 200 208 202
f 38 17 203
f 195 203 183
f 187 199 149
f 176 213 204
f 194 204 184
f 181 69 206
f 211 210 205
f 181 206 166
f 155 207 200
f 181 207 32
f 194 208 204
f 209 162 180
f 210 201 75
f 26 210 75
f 201 210 158
f 205 26 4
f 5 195 206
f 210 211 158
f 151 214 212
f 199 213 171
f 167 178 192
f 187 213 199
f 212 214 157
f 196 214 188
f 187 192 213
f 507 235 224
f 245 246 254
f 237 268 233
f 158 258 251
f 223 247 227
f 218 245 222
f 228 225 240
f 185 156 255
f 219 215 231
f 248 253 262
f 227 220 224
f 216 269 239
f 264 229 257
f 243 242 260
f 234 255 238
f 239 227 231
f 220 247 257
f 231 235 219
f 480 493 220
f 217 225 228
f 237 233 248
f 243 253 226
f 223 246 247
f 507 224 493
f 205 490 266
f 228 222 245
f 148 236 265
f 240 236 230
f 256 226 233
f 232 247 246
f 221 217 254
f 167 187 250
f 230 255 222
f 230 236 175
f 471 219 235
f 239 269 223
f 238 244 234
f 248 262 229
f 226 249 243
f 242 517 482
f 175 185 230
f 222 234 218
f 471 235 507
f 235 231 224
f 228 240 222
f 148 175 236
f 244 250 261
f 237 229 264
f 482 260 242
f 177 251 249
f 252 218 244
f 167 238 156
f 239 215 216
f 246 223 269
f 240 265 236
f 480 220 263
f 242 251 258
f 242 258 517
f 241 257 229
f 264 259 252
f 248 226 253
f 243 249 251
f 234 244 218
f 250 244 238
f 234 222 255
f 218 232 245
f 245 254 228
f 493 224 220
f 222 240 230
f 215 239 231
f 480 263 496
f 246 245 232
f 227 247 220
f 232 252 259
f 237 248 229
f 501 472 253
f 177 249 149
f 249 226 256
f 250 268 261
f 251 242 243
f 158 251 197
f 218 252 232
f 261 237 264
f 253 260 501
f 472 528 262
f 221 254 269
f 228 254 217
f 177 197 251
f 238 255 156
f 185 255 230
f 249 256 149
f 248 233 226
f 257 241 263
f 257 247 259
f 496 241 528
f 224 231 227
f 227 239 223
f 517 258 533
f 232 259 247
f 259 264 257
f 260 482 501
f 243 260 253
f 149 256 187
f 261 268 237
f 244 261 252
f 262 528 241
f 205 266 211
f 229 262 241
f 257 263 220
f 496 263 241
f 261 264 252
f 240 225 265
f 533 258 266
f 533 266 490
f 158 266 258
f 4 490 205
f 262 253 472
f 158 211 266
f 267 269 216
f 233 268 256
f 250 238 167
f 256 268 187
f 221 269 267
f 246 269 254
f 268 250 187
f 283 295 435
f 318 310 308
f 293 335 298
f 315 323 280
f 286 311 282
f 281 308 275
f 302 284 287
f 320 278 307
f 291 272 276
f 328 317 312
f 283 277 286
f 301 336 273
f 322 288 330
f 325 304 305
f 300 320 294
f 291 286 301
f 322 311 277
f 276 295 291
f 277 419 404
f 287 284 274
f 312 293 298
f 285 317 305
f 311 310 282
f 419 283 435
f 332 416 327
f 308 281 287
f 331 296 270
f 290 296 302
f 293 285 321
f 310 311 292
f 318 274 279
f 314 309 289
f 281 320 290
f 297 296 290
f 295 276 392
f 282 336 301
f 294 306 300
f 288 328 312
f 305 313 285
f 407 447 304
f 290 307 297
f 275 294 281
f 435 295 392
f 283 291 295
f 281 302 287
f 296 297 270
f 326 314 306
f 330 288 298
f 304 325 407
f 313 315 299
f 306 275 316
f 278 300 289
f 273 272 301
f 336 282 310
f 296 331 302
f 329 277 404
f 323 315 304
f 447 323 304
f 288 322 303
f 316 324 330
f 317 285 312
f 315 313 305
f 275 306 294
f 300 306 314
f 320 281 294
f 308 292 275
f 287 318 308
f 277 283 419
f 290 302 281
f 291 301 272
f 422 329 404
f 292 308 310
f 277 311 286
f 324 316 292
f 288 312 298
f 317 395 428
f 271 313 299
f 321 285 313
f 326 335 314
f 305 304 315
f 319 315 280
f 292 316 275
f 330 298 326
f 428 325 317
f 328 459 395
f 336 318 279
f 274 318 287
f 315 319 299
f 278 320 300
f 290 320 307
f 271 321 313
f 285 293 312
f 329 303 322
f 324 311 322
f 459 303 422
f 286 291 283
f 282 301 286
f 465 323 447
f 311 324 292
f 322 330 324
f 428 407 325
f 317 325 305
f 309 321 271
f 298 335 326
f 316 326 306
f 303 459 328
f 333 332 327
f 303 328 288
f 277 329 322
f 303 329 422
f 316 330 326
f 331 284 302
f 332 323 465
f 416 332 465
f 323 332 280
f 327 416 4
f 395 317 328
f 332 333 280
f 273 336 334
f 321 335 293
f 289 300 314
f 309 335 321
f 334 336 279
f 318 336 310
f 309 314 335
f 117 357 346
f 367 368 376
f 359 390 355
f 280 380 373
f 345 369 349
f 340 367 344
f 350 347 362
f 307 278 377
f 341 337 353
f 370 375 384
f 349 342 346
f 338 391 361
f 386 351 379
f 365 364 382
f 356 377 360
f 361 349 353
f 342 369 379
f 353 357 341
f 90 103 342
f 339 347 350
f 359 355 370
f 365 375 348
f 345 368 369
f 117 346 103
f 327 100 388
f 350 344 367
f 270 358 387
f 362 358 352
f 378 348 355
f 354 369 368
f 343 339 376
f 289 309 372
f 352 377 344
f 352 358 297
f 81 341 357
f 361 391 345
f 360 366 356
f 370 384 351
f 348 371 365
f 364 127 92
f 297 307 352
f 344 356 340
f 81 357 117
f 357 353 346
f 350 362 344
f 270 297 358
f 366 372 383
f 359 351 386
f 92 382 364
f 299 373 371
f 374 340 366
f 289 360 278
f 361 337 338
f 368 345 391
f 362 387 358
f 90 342 385
f 364 373 380
f 364 380 127
f 363 379 351
f 386 381 374
f 370 348 375
f 365 371 373
f 356 366 340
f 372 366 360
f 356 344 377
f 340 354 367
f 367 376 350
f 103 346 342
f 344 362 352
f 337 361 353
f 90 385 106
f 368 367 354
f 349 369 342
f 354 374 381
f 359 370 351
f 111 82 375
f 299 371 271
f 371 348 378
f 372 390 383
f 373 364 365
f 280 373 319
f 340 374 354
f 383 359 386
f 375 382 111
f 82 138 384
f 343 376 391
f 350 376 339
f 299 319 373
f 360 377 278
f 307 377 352
f 371 378 271
f 370 355 348
f 379 363 385
f 379 369 381
f 106 363 138
f 346 353 349
f 349 361 345
f 127 380 143
f 354 381 369
f 381 386 379
f 382 92 111
f 365 382 375
f 271 378 309
f 383 390 359
f 366 383 374
f 384 138 363
f 327 388 333
f 351 384 363
f 379 385 342
f 106 385 363
f 383 386 374
f 362 347 387
f 143 380 388
f 143 388 100
f 280 388 380
f 4 100 327
f 384 375 82
f 280 333 388
f 389 391 338
f 355 390 378
f 372 360 289
f 378 390 309
f 343 391 389
f 368 391 376
f 390 372 309
f 435 424 409
f 439 441 450
f 427 469 421
f 405 455 446
f 408 442 412
f 399 439 406
f 413 410 432
f 438 402 452
f 400 396 418
f 443 449 461
f 412 401 409
f 397 470 431
f 463 414 454
f 436 434 457
f 423 452 430
f 431 412 418
f 401 442 454
f 418 424 400
f 404 419 401
f 398 410 413
f 427 421 443
f 436 449 411
f 408 441 442
f 435 409 419
f 460 416 466
f 413 406 439
f 393 425 464
f 432 425 417
f 453 411 421
f 420 442 441
f 403 398 450
f 415 440 445
f 417 452 406
f 417 425 426
f 392 400 424
f 431 470 408
f 430 437 423
f 443 461 414
f 411 444 436
f 434 447 407
f 426 438 417
f 406 423 399
f 392 424 435
f 424 418 409
f 413 432 406
f 393 426 425
f 437 445 458
f 427 414 463
f 407 457 434
f 429 446 444
f 448 399 437
f 415 430 402
f 431 396 397
f 441 408 470
f 432 464 425
f 404 401 462
f 434 446 455
f 434 455 447
f 433 454 414
f 463 456 448
f 443 411 449
f 436 444 446
f 423 437 399
f 445 437 430
f 423 406 452
f 399 420 439
f 439 450 413
f 419 409 401
f 406 432 417
f 396 431 418
f 404 462 422
f 441 439 420
f 412 442 401
f 420 448 456
f 427 443 414
f 428 395 449
f 429 444 394
f 444 411 453
f 445 469 458
f 446 434 436
f 405 446 451
f 399 448 420
f 458 427 463
f 449 457 428
f 395 459 461
f 403 450 470
f 413 450 398
f 429 451 446
f 430 452 402
f 438 452 417
f 444 453 394
f 443 421 411
f 454 433 462
f 454 442 456
f 422 433 459
f 409 418 412
f 412 431 408
f 447 455 465
f 420 456 442
f 456 463 454
f 457 407 428
f 436 457 449
f 394 453 440
f 458 469 427
f 437 458 448
f 461 459 433
f 460 466 467
f 414 461 433
f 454 462 401
f 422 462 433
f 458 463 448
f 432 410 464
f 465 455 466
f 465 466 416
f 405 466 455
f 4 416 460
f 461 449 395
f 405 467 466
f 468 470 397
f 421 469 453
f 445 430 415
f 453 469 440
f 403 470 468
f 441 470 450
f 469 445 440
f 484 498 507
f 520 511 510
f 495 536 500
f 516 524 405
f 487 512 483
f 481 510 476
f 504 485 488
f 521 402 438
f 492 473 477
f 529 519 513
f 484 478 487
f 503 537 474
f 523 489 531
f 526 506 508
f 502 521 497
f 492 487 503
f 523 512 478
f 477 498 492
f 478 493 480
f 488 485 475
f 513 495 500
f 486 519 508
f 512 511 483
f 493 484 507
f 534 490 460
f 510 481 488
f 532 499 393
f 491 499 504
f 495 486 522
f 511 512 494
f 520 475 479
f 515 440 415
f 481 521 491
f 426 499 491
f 498 477 471
f 483 537 503
f 497 509 502
f 489 529 513
f 508 514 486
f 482 517 506
f 491 438 426
f 476 497 481
f 507 498 471
f 484 492 498
f 481 504 488
f 499 426 393
f 527 515 509
f 531 489 500
f 506 526 482
f 514 516 429
f 509 476 518
f 402 502 415
f 474 473 503
f 537 483 511
f 499 532 504
f 530 478 480
f 524 516 506
f 517 524 506
f 489 523 505
f 518 525 531
f 519 486 513
f 516 514 508
f 476 509 497
f 502 509 515
f 521 481 497
f 510 494 476
f 488 520 510
f 478 484 493
f 491 504 481
f 492 503 473
f 496 530 480
f 494 510 511
f 478 512 487
f 525 518 494
f 489 513 500
f 519 472 501
f 394 514 429
f 522 486 514
f 527 536 515
f 508 506 516
f 451 516 405
f 494 518 476
f 531 500 527
f 501 526 519
f 529 528 472
f 537 520 479
f 475 520 488
f 516 451 429
f 402 521 502
f 491 521 438
f 394 522 514
f 486 495 513
f 530 505 523
f 525 512 523
f 528 505 496
f 487 492 484
f 483 503 487
f 533 524 517
f 512 525 494
f 523 531 525
f 501 482 526
f 519 526 508
f 440 522 394
f 500 536 527
f 518 527 509
f 505 528 529
f 467 534 460
f 505 529 489
f 478 530 523
f 505 530 496
f 518 531 527
f 532 485 504
f 534 524 533
f 490 534 533
f 524 534 405
f 460 490 4
f 472 519 529
f 534 467 405
f 474 537 535
f 522 536 495
f 415 502 515
f 440 536 522
f 535 537 479
f 520 537 511
f 440 515 536
