# 4part FEM knit+cable best fit (4part_s_pw_split90)
# interior RMSE  : 3.437 mm
# max deviation  : 14.182 mm
# crown          : 0.32025 m (target 0.32177 m)
# max disp/rest  : 14.182 mm (floor 5.0 mm)
# regions        : 4 (1 D4 slots), 5 parameters
v 0.000616 0.600859 0.000000
v -0.423648 0.425123 0.000000
v -0.187526 0.189524 0.180771
v 0.001086 0.000587 0.211579
v 0.001408 0.295021 0.320254
v -0.111519 0.589084 0.000000
v -0.154511 0.578763 0.000000
v -0.288752 0.525061 0.000000
v -0.220173 0.403423 0.202896
v -0.051844 0.596730 0.000000
v -0.056868 0.464428 0.239842
v -0.310428 0.312383 0.106764
v -0.237731 0.549565 0.000000
v 0.001382 0.440857 0.269586
v -0.096699 0.098447 0.205039
v -0.275684 0.418874 0.146658
v 0.002295 0.201769 0.316868
v -0.142598 0.506188 0.162666
v -0.044705 0.514477 0.182733
v -0.329212 0.500267 0.000000
v -0.110852 0.247878 0.287031
v -0.092334 0.500006 0.199601
v -0.277525 0.471324 0.093453
v -0.086650 0.347697 0.292370
v -0.270296 0.272396 0.136252
v 0.001429 0.055288 0.230652
v -0.329772 0.402123 0.100184
v -0.078615 0.545865 0.112214
v 0.001196 0.487596 0.221850
v -0.176162 0.431225 0.218972
v -0.137766 0.277256 0.286080
v 0.001181 0.391379 0.297776
v -0.252557 0.375123 0.183835
v -0.032102 0.560314 0.090675
v -0.370291 0.422931 0.044752
v -0.389691 0.391345 0.037349
v -0.134243 0.317918 0.280224
v 0.001698 0.248651 0.319099
v -0.154274 0.156208 0.192191
v -0.259271 0.330586 0.179489
v -0.124834 0.538126 0.107801
v -0.327238 0.449406 0.066858
v -0.044006 0.369162 0.303617
v -0.047083 0.180698 0.288955
v 0.000635 0.544656 0.126706
v -0.080728 0.213260 0.289387
v -0.213903 0.351224 0.218771
v -0.350055 0.351880 0.073602
v -0.227252 0.450163 0.169683
v -0.227376 0.229729 0.162504
v -0.180288 0.478151 0.176107
v -0.120510 0.453079 0.239198
v -0.091761 0.296251 0.298199
v -0.129920 0.203153 0.259085
v -0.225388 0.297300 0.203967
v -0.094579 0.162210 0.258319
v 0.002359 0.157727 0.288100
v -0.178317 0.383908 0.240222
v -0.054580 0.264621 0.310021
v -0.229556 0.496354 0.104762
v -0.125439 0.127343 0.199498
v -0.294016 0.367863 0.144419
v -0.163096 0.237199 0.247491
v -0.086222 0.404420 0.273102
v -0.048901 0.136071 0.273089
v -0.139247 0.412093 0.252377
v -0.038111 0.222388 0.306618
v -0.175391 0.332204 0.256327
v 0.001169 0.341432 0.313755
v -0.033356 0.034999 0.211087
v -0.048701 0.318605 0.311362
v -0.039525 0.415126 0.280559
v -0.128345 0.365167 0.282626
v -0.381698 0.460952 0.000000
v 0.001558 0.111759 0.274733
v -0.040644 0.090777 0.245430
v -0.067024 0.068646 0.208572
v -0.194710 0.567385 0.000000
v -0.186037 0.280159 0.238912
v -0.177761 0.524165 0.100705
v -0.599383 0.000859 0.000000
v -0.293180 0.000250 0.319687
v -0.587609 0.112995 0.000000
v -0.577288 0.155985 0.000000
v -0.523586 0.290227 0.000000
v -0.401266 0.220859 0.201863
v -0.595255 0.053319 0.000000
v -0.458369 0.057944 0.243889
v -0.548091 0.239205 0.000000
v -0.441946 0.000462 0.262497
v -0.416847 0.276656 0.146145
v -0.199543 0.000584 0.303999
v -0.497291 0.140965 0.170330
v -0.516155 0.046733 0.171332
v -0.498792 0.330686 0.000000
v -0.245219 0.114237 0.278553
v -0.502164 0.094593 0.179821
v -0.471240 0.280624 0.088073
v -0.345520 0.087799 0.296083
v -0.053689 0.000539 0.230245
v -0.400163 0.331437 0.100065
v -0.543177 0.080060 0.111604
v -0.489271 0.000650 0.213745
v -0.430118 0.177559 0.212116
v -0.276844 0.141039 0.303781
v -0.388880 0.000610 0.295915
v -0.372901 0.253124 0.182604
v -0.559184 0.033531 0.087792
v -0.421170 0.371849 0.044929
v -0.317709 0.136191 0.263370
v -0.245023 -0.000318 0.314958
v -0.328075 0.262044 0.175182
v -0.535513 0.126050 0.107101
v -0.442938 0.323305 0.077323
v -0.367209 0.046122 0.302196
v -0.177771 0.049903 0.289547
v -0.542428 0.000771 0.126453
v -0.211247 0.082494 0.288130
v -0.349509 0.215783 0.218869
v -0.449012 0.229142 0.165493
v -0.475074 0.180909 0.175067
v -0.457309 0.123881 0.219429
v -0.294519 0.093959 0.299045
v -0.200532 0.133196 0.252675
v -0.296937 0.222025 0.210284
v -0.160580 0.096322 0.257626
v -0.157229 0.000348 0.285139
v -0.381312 0.178318 0.236850
v -0.262283 0.056512 0.310333
v -0.493837 0.230723 0.104209
v -0.365871 0.295181 0.143986
v -0.234720 0.166761 0.241031
v -0.403406 0.087887 0.274418
v -0.133058 0.052184 0.264663
v -0.407000 0.135949 0.252891
v -0.218800 0.041834 0.318762
v -0.330601 0.177517 0.251212
v -0.339575 0.000513 0.313491
v -0.314973 0.047443 0.314874
v -0.412070 0.040965 0.285782
v -0.364814 0.130165 0.274627
v -0.459477 0.383172 0.000000
v -0.110676 0.000252 0.259837
v -0.088561 0.042907 0.239747
v -0.565910 0.196184 0.000000
v -0.280638 0.179451 0.248702
v -0.521043 0.178702 0.101700
v 0.424880 0.425123 0.000000
v 0.189547 0.189893 0.180390
v 0.112752 0.589084 0.000000
v 0.155743 0.578763 0.000000
v 0.289984 0.525061 0.000000
v 0.224237 0.405156 0.203600
v 0.053076 0.596730 0.000000
v 0.058907 0.460531 0.244046
v 0.312748 0.312857 0.105887
v 0.238963 0.549565 0.000000
v 0.098936 0.098379 0.204713
v 0.282424 0.421569 0.140743
v 0.141505 0.499275 0.170854
v 0.046593 0.513819 0.181948
v 0.330445 0.500267 0.000000
v 0.112825 0.249162 0.285710
v 0.094663 0.501328 0.187890
v 0.277965 0.469899 0.103569
v 0.088584 0.347746 0.296774
v 0.272536 0.272719 0.135499
v 0.331613 0.402743 0.096449
v 0.079455 0.543917 0.118145
v 0.177501 0.430124 0.218053
v 0.142997 0.276442 0.269633
v 0.256663 0.376308 0.185052
v 0.033202 0.560680 0.090649
v 0.376611 0.425867 0.047935
v 0.391603 0.391494 0.038096
v 0.135869 0.318250 0.279545
v 0.156361 0.156598 0.191992
v 0.259976 0.331490 0.182374
v 0.127821 0.543611 0.097241
v 0.321764 0.444444 0.088275
v 0.046575 0.368810 0.304428
v 0.052537 0.177945 0.293551
v 0.082949 0.214347 0.311678
v 0.221666 0.353254 0.200852
v 0.352526 0.352198 0.072830
v 0.230188 0.451248 0.166101
v 0.229527 0.230013 0.161835
v 0.181743 0.477349 0.175723
v 0.124435 0.457950 0.223015
v 0.094869 0.297316 0.300432
v 0.133788 0.202888 0.254568
v 0.222429 0.299560 0.210060
v 0.103723 0.156542 0.250179
v 0.183123 0.383787 0.236563
v 0.058766 0.265729 0.315007
v 0.232015 0.497765 0.106137
v 0.127660 0.127430 0.199183
v 0.295887 0.368698 0.142717
v 0.167852 0.236504 0.241658
v 0.088964 0.405424 0.274552
v 0.054320 0.133141 0.266709
v 0.136618 0.407807 0.251808
v 0.042179 0.222441 0.314918
v 0.178844 0.331517 0.260988
v 0.035696 0.034910 0.210842
v 0.048865 0.317922 0.314315
v 0.041787 0.414045 0.284955
v 0.130752 0.365732 0.273939
v 0.382930 0.460952 0.000000
v 0.044667 0.088938 0.241069
v 0.069318 0.068561 0.208296
v 0.195941 0.567385 0.000000
v 0.181885 0.282311 0.259166
v 0.179209 0.522946 0.106667
v 0.588842 0.112995 0.000000
v 0.578520 0.155985 0.000000
v 0.524819 0.290227 0.000000
v 0.402018 0.220875 0.201148
v 0.596487 0.053319 0.000000
v 0.460977 0.058539 0.245060
v 0.549323 0.239205 0.000000
v 0.418810 0.277953 0.147035
v 0.497309 0.140730 0.177078
v 0.513797 0.046551 0.182401
v 0.500025 0.330686 0.000000
v 0.247523 0.114028 0.287108
v 0.501252 0.094429 0.188775
v 0.470841 0.278817 0.093798
v 0.348075 0.088996 0.298096
v 0.403301 0.334760 0.088098
v 0.544151 0.080011 0.114656
v 0.430777 0.178056 0.219292
v 0.278038 0.139563 0.284842
v 0.374318 0.254335 0.182592
v 0.559857 0.033586 0.090630
v 0.426062 0.376736 0.048313
v 0.319648 0.137705 0.278026
v 0.329022 0.266655 0.170794
v 0.537611 0.126280 0.107674
v 0.444267 0.322279 0.078143
v 0.368640 0.046113 0.300817
v 0.181442 0.049433 0.287964
v 0.213539 0.083256 0.288763
v 0.350761 0.218841 0.220597
v 0.450567 0.229765 0.165919
v 0.477024 0.181680 0.176864
v 0.453889 0.122751 0.229121
v 0.296633 0.093919 0.309846
v 0.202625 0.133716 0.252658
v 0.298388 0.223485 0.210622
v 0.162598 0.096936 0.255858
v 0.381098 0.178636 0.261796
v 0.264679 0.057127 0.309447
v 0.495778 0.230975 0.104916
v 0.368078 0.296121 0.143084
v 0.236860 0.167004 0.240513
v 0.404717 0.087876 0.286002
v 0.135850 0.052038 0.264142
v 0.410154 0.138635 0.252495
v 0.221582 0.041887 0.303049
v 0.331971 0.178977 0.261552
v 0.317352 0.048309 0.311216
v 0.415072 0.041273 0.280869
v 0.367921 0.133610 0.269323
v 0.460709 0.383172 0.000000
v 0.091082 0.042775 0.239416
v 0.567143 0.196184 0.000000
v 0.281664 0.182316 0.244362
v 0.522976 0.178952 0.102317
v -0.423648 -0.423406 0.000000
v -0.187499 -0.188178 0.180411
v -0.111519 -0.587366 0.000000
v -0.154511 -0.577046 0.000000
v -0.288752 -0.523343 0.000000
v -0.220152 -0.401772 0.202674
v -0.051844 -0.595012 0.000000
v -0.057629 -0.462347 0.239188
v -0.310664 -0.311124 0.106165
v -0.237731 -0.547848 0.000000
v -0.096752 -0.097213 0.205215
v -0.276424 -0.417879 0.147321
v -0.139833 -0.498199 0.171049
v -0.044833 -0.512251 0.182311
v -0.329212 -0.498550 0.000000
v -0.112250 -0.248005 0.285276
v -0.092867 -0.500268 0.188844
v -0.277469 -0.469766 0.093995
v -0.086655 -0.346177 0.303956
v -0.270379 -0.271023 0.135457
v -0.334125 -0.401965 0.087548
v -0.079814 -0.553499 0.092404
v -0.175979 -0.429393 0.218701
v -0.139616 -0.276495 0.273180
v -0.252528 -0.373575 0.187343
v -0.031550 -0.559276 0.090483
v -0.375206 -0.424579 0.048293
v -0.389514 -0.390150 0.037658
v -0.134345 -0.317197 0.278882
v -0.154417 -0.154833 0.192159
v -0.259816 -0.329037 0.179049
v -0.125515 -0.537390 0.106048
v -0.320192 -0.442414 0.080168
v -0.045060 -0.368192 0.301374
v -0.047427 -0.180669 0.300251
v -0.083930 -0.212307 0.292284
v -0.216862 -0.350096 0.218138
v -0.350117 -0.350934 0.073134
v -0.228101 -0.449505 0.166000
v -0.227527 -0.228280 0.161691
v -0.180033 -0.476175 0.175898
v -0.121350 -0.453425 0.229102
v -0.093937 -0.295768 0.300624
v -0.132458 -0.200835 0.253669
v -0.220894 -0.297877 0.212691
v -0.092165 -0.163268 0.268863
v -0.174605 -0.379546 0.243054
v -0.056126 -0.264340 0.318962
v -0.229697 -0.494750 0.104982
v -0.125654 -0.125935 0.199577
v -0.293539 -0.366715 0.145433
v -0.174219 -0.230945 0.230503
v -0.087850 -0.405691 0.273941
v -0.050266 -0.132744 0.266123
v -0.136028 -0.408381 0.251521
v -0.042340 -0.220276 0.310462
v -0.176865 -0.330433 0.251682
v -0.033369 -0.033823 0.211051
v -0.047216 -0.316688 0.313456
v -0.041930 -0.420596 0.275255
v -0.128677 -0.364534 0.273167
v -0.381698 -0.459234 0.000000
v -0.041318 -0.088530 0.240394
v -0.066979 -0.067489 0.208663
v -0.194710 -0.565668 0.000000
v -0.181578 -0.280642 0.244952
v -0.178288 -0.523228 0.099623
v -0.587609 -0.111278 0.000000
v -0.577288 -0.154268 0.000000
v -0.523586 -0.288510 0.000000
v -0.400742 -0.219623 0.201953
v -0.595255 -0.051602 0.000000
v -0.463463 -0.057615 0.237016
v -0.548091 -0.237488 0.000000
v -0.416235 -0.276768 0.147130
v -0.497423 -0.139560 0.170826
v -0.512306 -0.045096 0.182684
v -0.498792 -0.328969 0.000000
v -0.247573 -0.111510 0.284428
v -0.499827 -0.092943 0.188708
v -0.466232 -0.275084 0.112584
v -0.346117 -0.087129 0.293375
v -0.400176 -0.330633 0.110787
v -0.544188 -0.078175 0.112222
v -0.428491 -0.175567 0.218092
v -0.275728 -0.139583 0.273153
v -0.372802 -0.253265 0.184035
v -0.556106 -0.031681 0.095859
v -0.421172 -0.370633 0.045199
v -0.316403 -0.134584 0.279690
v -0.328356 -0.259016 0.181306
v -0.537013 -0.124386 0.108229
v -0.444388 -0.324370 0.079288
v -0.366641 -0.044501 0.303471
v -0.174618 -0.052226 0.282526
v -0.212590 -0.082155 0.289215
v -0.348912 -0.215127 0.219371
v -0.448224 -0.227604 0.165147
v -0.478370 -0.181513 0.170276
v -0.453018 -0.121223 0.229063
v -0.295250 -0.092681 0.298516
v -0.201178 -0.131879 0.252358
v -0.296463 -0.221618 0.210465
v -0.159178 -0.097192 0.251375
v -0.378558 -0.173989 0.242263
v -0.263174 -0.055862 0.309768
v -0.496914 -0.230349 0.106868
v -0.365525 -0.297098 0.140369
v -0.234900 -0.165516 0.240374
v -0.403621 -0.086712 0.273081
v -0.130999 -0.053503 0.259280
v -0.407358 -0.135486 0.253569
v -0.220489 -0.040346 0.303902
v -0.329400 -0.176374 0.251090
v -0.315605 -0.046850 0.312426
v -0.413135 -0.039881 0.280274
v -0.363729 -0.128689 0.282717
v -0.459477 -0.381455 0.000000
v -0.088192 -0.042084 0.240281
v -0.565910 -0.194467 0.000000
v -0.279616 -0.180729 0.244122
v -0.519880 -0.176422 0.111433
v 0.000616 -0.599141 0.000000
v 0.424880 -0.423406 0.000000
v 0.189398 -0.188309 0.180111
v 0.000155 -0.293725 0.320057
v 0.112752 -0.587366 0.000000
v 0.155743 -0.577046 0.000000
v 0.289984 -0.523343 0.000000
v 0.221353 -0.401372 0.202149
v 0.053076 -0.595012 0.000000
v 0.058285 -0.458077 0.243164
v 0.312077 -0.311308 0.106084
v 0.238963 -0.547848 0.000000
v 0.000975 -0.440847 0.266128
v 0.098707 -0.097295 0.204886
v 0.277554 -0.417485 0.146861
v 0.000377 -0.200688 0.317840
v 0.141351 -0.497974 0.170249
v 0.046638 -0.515220 0.175166
v 0.330445 -0.498550 0.000000
v 0.112278 -0.247719 0.284389
v 0.095201 -0.505157 0.178330
v 0.279788 -0.469944 0.094019
v 0.090938 -0.349150 0.292564
v 0.272096 -0.271220 0.135465
v 0.001152 -0.053961 0.229999
v 0.332202 -0.400997 0.100716
v 0.079544 -0.544897 0.111934
v 0.000876 -0.485875 0.221704
v 0.176884 -0.428500 0.217709
v 0.139367 -0.276721 0.282532
v 0.000420 -0.389906 0.296853
v 0.254406 -0.373514 0.183588
v 0.033223 -0.559002 0.090704
v 0.372078 -0.421800 0.045477
v 0.390786 -0.390048 0.037607
v 0.135079 -0.317266 0.281480
v 0.000039 -0.247233 0.317811
v 0.156242 -0.155021 0.191757
v 0.261461 -0.329043 0.179245
v 0.127173 -0.542473 0.095977
v 0.324093 -0.443762 0.078197
v 0.045671 -0.367979 0.301901
v 0.049352 -0.179666 0.288540
v 0.000650 -0.543056 0.126687
v 0.083136 -0.212288 0.288897
v 0.216147 -0.349290 0.218512
v 0.351421 -0.350890 0.073021
v 0.229732 -0.449329 0.165919
v 0.229318 -0.228383 0.161630
v 0.181534 -0.475728 0.175568
v 0.121986 -0.452188 0.227504
v 0.093415 -0.295921 0.297978
v 0.132166 -0.202102 0.256222
v 0.228595 -0.295028 0.201986
v 0.096330 -0.161485 0.257535
v 0.001421 -0.153018 0.285777
v 0.176999 -0.379674 0.240113
v 0.056060 -0.263926 0.316991
v 0.232002 -0.494959 0.105310
v 0.127427 -0.126193 0.199202
v 0.295984 -0.366542 0.144319
v 0.167140 -0.235181 0.240722
v 0.088842 -0.404672 0.271248
v 0.052424 -0.133797 0.264897
v 0.136459 -0.406772 0.252285
v 0.041565 -0.220362 0.305770
v 0.177465 -0.329919 0.250401
v 0.000209 -0.340276 0.313787
v 0.035536 -0.033818 0.211015
v 0.047553 -0.316441 0.313643
v 0.041284 -0.413421 0.280328
v 0.130985 -0.364771 0.274239
v 0.382930 -0.459234 0.000000
v 0.001259 -0.109335 0.261731
v 0.043654 -0.088751 0.240245
v 0.069061 -0.067512 0.208491
v 0.195941 -0.565668 0.000000
v 0.181973 -0.280043 0.244287
v 0.178239 -0.518245 0.113216
v 0.600616 0.000859 0.000000
v 0.294621 0.001047 0.318838
v 0.588842 -0.111278 0.000000
v 0.578520 -0.154268 0.000000
v 0.524819 -0.288510 0.000000
v 0.402618 -0.220279 0.202818
v 0.596487 -0.051602 0.000000
v 0.460042 -0.056703 0.243979
v 0.549323 -0.237488 0.000000
v 0.444976 0.000783 0.261950
v 0.418565 -0.276430 0.147049
v 0.201313 0.000597 0.307266
v 0.499339 -0.139513 0.171038
v 0.515999 -0.044886 0.178207
v 0.500025 -0.328969 0.000000
v 0.249200 -0.111585 0.284459
v 0.500185 -0.092444 0.192062
v 0.471067 -0.277145 0.094185
v 0.347017 -0.086203 0.295550
v 0.055644 0.000675 0.230343
v 0.401981 -0.330573 0.096750
v 0.544835 -0.078324 0.113871
v 0.487735 0.000783 0.221689
v 0.430017 -0.175461 0.218120
v 0.277484 -0.139450 0.272787
v 0.390454 0.000804 0.295700
v 0.376077 -0.259575 0.177134
v 0.559918 -0.031854 0.090710
v 0.422106 -0.370607 0.029388
v 0.318110 -0.133981 0.278789
v 0.247371 0.001381 0.314794
v 0.330603 -0.259103 0.178057
v 0.538276 -0.124602 0.107225
v 0.443257 -0.319027 0.080972
v 0.368566 -0.044464 0.300752
v 0.181601 -0.047900 0.300617
v 0.544134 0.000979 0.126707
v 0.214471 -0.080860 0.302501
v 0.350803 -0.215625 0.219851
v 0.449014 -0.226691 0.171463
v 0.477383 -0.179670 0.175896
v 0.454433 -0.121098 0.229085
v 0.296669 -0.093361 0.297711
v 0.202616 -0.132726 0.252649
v 0.298550 -0.221618 0.210045
v 0.163985 -0.093944 0.263574
v 0.158331 0.000728 0.287124
v 0.380379 -0.174369 0.242920
v 0.264857 -0.055384 0.311542
v 0.494320 -0.228162 0.110248
v 0.367850 -0.294733 0.142856
v 0.236639 -0.165906 0.240381
v 0.405044 -0.086747 0.274575
v 0.134823 -0.051092 0.265183
v 0.408218 -0.134985 0.252925
v 0.221876 -0.040066 0.313928
v 0.331202 -0.176484 0.251247
v 0.341039 0.000884 0.312802
v 0.317137 -0.046367 0.312018
v 0.414475 -0.039745 0.280020
v 0.365401 -0.128625 0.273552
v 0.460709 -0.381455 0.000000
v 0.110613 0.000713 0.258625
v 0.091084 -0.041239 0.240962
v 0.567143 -0.194467 0.000000
v 0.281520 -0.180789 0.244386
v 0.523642 -0.177193 0.102624
f 45 34 19
f 49 51 60
f 37 79 31
f 15 65 56
f 18 52 22
f 9 49 16
f 23 20 42
f 48 12 62
f 10 6 28
f 53 59 71
f 22 11 19
f 7 80 41
f 73 24 64
f 46 44 67
f 33 62 40
f 41 22 28
f 11 52 64
f 28 34 10
f 14 29 11
f 8 20 23
f 37 31 53
f 46 59 21
f 18 51 52
f 45 19 29
f 70 26 76
f 23 16 49
f 2 35 74
f 42 35 27
f 63 21 31
f 30 52 51
f 13 8 60
f 25 50 55
f 27 62 16
f 27 35 36
f 1 10 34
f 41 80 18
f 40 47 33
f 53 71 24
f 21 54 46
f 44 57 17
f 36 48 27
f 16 33 9
f 1 34 45
f 34 28 19
f 23 42 16
f 2 36 35
f 47 55 68
f 37 24 73
f 17 67 44
f 39 56 54
f 58 9 47
f 25 40 12
f 41 6 7
f 51 18 80
f 42 74 35
f 14 11 72
f 44 56 65
f 44 65 57
f 43 64 24
f 73 66 58
f 53 21 59
f 46 54 56
f 33 47 9
f 55 47 40
f 33 16 62
f 9 30 49
f 49 60 23
f 29 19 11
f 16 42 27
f 6 41 28
f 14 72 32
f 51 49 30
f 22 52 11
f 30 58 66
f 37 53 24
f 38 5 59
f 39 54 3
f 54 21 63
f 55 79 68
f 56 44 46
f 15 56 61
f 9 58 30
f 68 37 73
f 59 67 38
f 5 69 71
f 13 60 80
f 23 60 8
f 39 61 56
f 40 62 12
f 48 62 27
f 54 63 3
f 53 31 21
f 64 43 72
f 64 52 66
f 32 43 69
f 19 28 22
f 22 41 18
f 57 65 75
f 30 66 52
f 66 73 64
f 67 17 38
f 46 67 59
f 3 63 50
f 68 79 37
f 47 68 58
f 71 69 43
f 70 76 77
f 24 71 43
f 64 72 11
f 32 72 43
f 68 73 58
f 42 20 74
f 75 65 76
f 75 76 26
f 15 76 65
f 4 26 70
f 71 59 5
f 15 77 76
f 78 80 7
f 31 79 63
f 55 40 25
f 63 79 50
f 13 80 78
f 51 80 60
f 79 55 50
f 94 108 117
f 130 121 120
f 105 146 110
f 126 134 15
f 97 122 93
f 91 120 86
f 114 95 98
f 131 12 48
f 102 83 87
f 139 129 123
f 94 88 97
f 113 147 84
f 133 99 141
f 136 116 118
f 112 131 107
f 102 97 113
f 133 122 88
f 87 108 102
f 88 103 90
f 98 95 85
f 123 105 110
f 96 129 118
f 122 121 93
f 103 94 117
f 144 100 70
f 120 91 98
f 142 109 2
f 101 109 114
f 105 96 132
f 121 122 104
f 130 85 89
f 125 50 25
f 91 131 101
f 36 109 101
f 108 87 81
f 93 147 113
f 107 119 112
f 99 139 123
f 118 124 96
f 92 127 116
f 101 48 36
f 86 107 91
f 117 108 81
f 94 102 108
f 91 114 98
f 109 36 2
f 137 125 119
f 141 99 110
f 116 136 92
f 124 126 39
f 119 86 128
f 12 112 25
f 84 83 113
f 147 93 121
f 109 142 114
f 140 88 90
f 134 126 116
f 127 134 116
f 99 133 115
f 128 135 141
f 129 96 123
f 126 124 118
f 86 119 107
f 112 119 125
f 131 91 107
f 120 104 86
f 98 130 120
f 88 94 103
f 101 114 91
f 102 113 83
f 106 140 90
f 104 120 121
f 88 122 97
f 135 128 104
f 99 123 110
f 129 82 111
f 3 124 39
f 132 96 124
f 137 146 125
f 118 116 126
f 61 126 15
f 104 128 86
f 141 110 137
f 111 136 129
f 139 138 82
f 147 130 89
f 85 130 98
f 126 61 39
f 12 131 112
f 101 131 48
f 3 132 124
f 96 105 123
f 140 115 133
f 135 122 133
f 138 115 106
f 97 102 94
f 93 113 97
f 143 134 127
f 122 135 104
f 133 141 135
f 111 92 136
f 129 136 118
f 50 132 3
f 110 146 137
f 128 137 119
f 115 138 139
f 77 144 70
f 115 139 99
f 88 140 133
f 115 140 106
f 128 141 137
f 142 95 114
f 144 134 143
f 100 144 143
f 134 144 15
f 70 100 4
f 82 129 139
f 144 77 15
f 84 147 145
f 132 146 105
f 25 112 125
f 50 146 132
f 145 147 89
f 130 147 121
f 50 125 146
f 161 173 45
f 196 188 186
f 171 213 176
f 193 201 158
f 164 189 160
f 159 186 153
f 180 162 165
f 198 156 185
f 169 150 154
f 206 195 190
f 161 155 164
f 179 214 151
f 200 166 208
f 203 182 183
f 178 198 172
f 169 164 179
f 200 189 155
f 154 173 169
f 155 29 14
f 165 162 152
f 190 171 176
f 163 195 183
f 189 188 160
f 29 161 45
f 210 26 205
f 186 159 165
f 209 174 148
f 168 174 180
f 171 163 199
f 188 189 170
f 196 152 157
f 192 187 167
f 159 198 168
f 175 174 168
f 173 154 1
f 160 214 179
f 172 184 178
f 166 206 190
f 183 191 163
f 17 57 182
f 168 185 175
f 153 172 159
f 45 173 1
f 161 169 173
f 159 180 165
f 174 175 148
f 204 192 184
f 208 166 176
f 182 203 17
f 191 193 177
f 184 153 194
f 156 178 167
f 151 150 179
f 214 160 188
f 174 209 180
f 207 155 14
f 201 193 182
f 57 201 182
f 166 200 181
f 194 202 208
f 195 163 190
f 193 191 183
f 153 184 172
f 178 184 192
f 198 159 172
f 186 170 153
f 165 196 186
f 155 161 29
f 168 180 159
f 169 179 150
f 32 207 14
f 170 186 188
f 155 189 164
f 202 194 170
f 166 190 176
f 195 5 38
f 149 191 177
f 199 163 191
f 204 213 192
f 183 182 193
f 197 193 158
f 170 194 153
f 208 176 204
f 38 203 195
f 206 69 5
f 214 196 157
f 152 196 165
f 193 197 177
f 156 198 178
f 168 198 185
f 149 199 191
f 163 171 190
f 207 181 200
f 202 189 200
f 69 181 32
f 164 169 161
f 160 179 164
f 75 201 57
f 189 202 170
f 200 208 202
f 38 17 203
f 195 203 183
f 187 199 149
f 176 213 204
f 194 204 184
f 181 69 206
f 211 210 205
f 181 206 166
f 155 207 200
f 181 207 32
f 194 208 204
f 209 162 180
f 210 201 75
f 26 210 75
f 201 210 158
f 205 26 4
f 5 195 206
f 210 211 158
f 151 214 212
f 199 213 171
f 167 178 192
f 187 213 199
f 212 214 157
f 196 214 188
f 187 192 213
f 507 235 224
f 245 246 254
f 237 268 233
f 158 258 251
f 223 247 227
f 218 245 222
f 228 225 240
f 185 156 255
f 219 215 231
f 248 253 262
f 227 220 224
f 216 269 239
f 264 229 257
f 243 242 260
f 234 255 238
f 239 227 231
f 220 247 257
f 231 235 219
f 480 493 220
f 217 225 228
f 237 233 248
f 243 253 226
f 223 246 247
f 507 224 493
f 205 490 266
f 228 222 245
f 148 236 265
f 240 236 230
f 256 226 233
f 232 247 246
f 221 217 254
f 167 187 250
f 230 255 222
f 230 236 175
f 471 219 235
f 239 269 223
f 238 244 234
f 248 262 229
f 226 249 243
f 242 517 482
f 175 185 230
f 222 234 218
f 471 235 507
f 235 231 224
f 228 240 222
f 148 175 236
f 244 250 261
f 237 229 264
f 482 260 242
f 177 251 249
f 252 218 244
f 167 238 156
f 239 215 216
f 246 223 269
f 240 265 236
f 480 220 263
f 242 251 258
f 242 258 517
f 241 257 229
f 264 259 252
f 248 226 253
f 243 249 251
f 234 244 218
f 250 244 238
f 234 222 255
f 218 232 245
f 245 254 228
f 493 224 220
f 222 240 230
f 215 239 231
f 480 263 496
f 246 245 232
f 227 247 220
f 232 252 259
f 237 248 229
f 501 472 253
f 177 249 149
f 249 226 256
f 250 268 261
f 251 242 243
f 158 251 197
f 218 252 232
f 261 237 264
f 253 260 501
f 472 528 262
f 221 254 269
f 228 254 217
f 177 197 251
f 238 255 156
f 185 255 230
f 249 256 149
f 248 233 226
f 257 241 263
f 257 247 259
f 496 241 528
f 224 231 227
f 227 239 223
f 517 258 533
f 232 259 247
f 259 264 257
f 260 482 501
f 243 260 253
f 149 256 187
f 261 268 237
f 244 261 252
f 262 528 241
f 205 266 211
f 229 262 241
f 257 263 220
f 496 263 241
f 261 264 252
f 240 225 265
f 533 258 266
f 533 266 490
f 158 266 258
f 4 490 205
f 262 253 472
f 158 211 266
f 267 269 216
f 233 268 256
f 250 238 167
f 256 268 187
f 221 269 267
f 246 269 254
f 268 250 187
f 283 295 435
f 318 310 308
f 293 335 298
f 315 323 280
f 286 311 282
f 281 308 275
f 302 284 287
f 320 278 307
f 291 272 276
f 328 317 312
f 283 277 286
f 301 336 273
f 322 288 330
f 325 304 305
f 300 320 294
f 291 286 301
f 322 311 277
f 276 295 291
f 277 419 404
f 287 284 274
f 312 293 298
f 285 317 305
f 311 310 282
f 419 283 435
f 332 416 327
f 308 281 287
f 331 296 270
f 290 296 302
f 293 285 321
f 310 311 292
f 318 274 279
f 314 309 289
f 281 320 290
f 297 296 290
f 295 276 392
f 282 336 301
f 294 306 300
f 288 328 312
f 305 313 285
f 407 447 304
f 290 307 297
f 275 294 281
f 435 295 392
f 283 291 295
f 281 302 287
f 296 297 270
f 326 314 306
f 330 288 298
f 304 325 407
f 313 315 299
f 306 275 316
f 278 300 289
f 273 272 301
f 336 282 310
f 296 331 302
f 329 277 404
f 323 315 304
f 447 323 304
f 288 322 303
f 316 324 330
f 317 285 312
f 315 313 305
f 275 306 294
f 300 306 314
f 320 281 294
f 308 292 275
f 287 318 308
f 277 283 419
f 290 302 281
f 291 301 272
f 422 329 404
f 292 308 310
f 277 311 286
f 324 316 292
f 288 312 298
f 317 395 428
f 271 313 299
f 321 285 313
f 326 335 314
f 305 304 315
f 319 315 280
f 292 316 275
f 330 298 326
f 428 325 317
f 328 459 395
f 336 318 279
f 274 318 287
f 315 319 299
f 278 320 300
f 290 320 307
f 271 321 313
f 285 293 312
f 329 303 322
f 324 311 322
f 459 303 422
f 286 291 283
f 282 301 286
f 465 323 447
f 311 324 292
f 322 330 324
f 428 407 325
f 317 325 305
f 309 321 271
f 298 335 326
f 316 326 306
f 303 459 328
f 333 332 327
f 303 328 288
f 277 329 322
f 303 329 422
f 316 330 326
f 331 284 302
f 332 323 465
f 416 332 465
f 323 332 280
f 327 416 4
f 395 317 328
f 332 333 280
f 273 336 334
f 321 335 293
f 289 300 314
f 309 335 321
f 334 336 279
f 318 336 310
f 309 314 335
f 117 357 346
f 367 368 376
f 359 390 355
f 280 380 373
f 345 369 349
f 340 367 344
f 350 347 362
f 307 278 377
f 341 337 353
f 370 375 384
f 349 342 346
f 338 391 361
f 386 351 379
f 365 364 382
f 356 377 360
f 361 349 353
f 342 369 379
f 353 357 341
f 90 103 342
f 339 347 350
f 359 355 370
f 365 375 348
f 345 368 369
f 117 346 103
f 327 100 388
f 350 344 367
f 270 358 387
f 362 358 352
f 378 348 355
f 354 369 368
f 343 339 376
f 289 309 372
f 352 377 344
f 352 358 297
f 81 341 357
f 361 391 345
f 360 366 356
f 370 384 351
f 348 371 365
f 364 127 92
f 297 307 352
f 344 356 340
f 81 357 117
f 357 353 346
f 350 362 344
f 270 297 358
f 366 372 383
f 359 351 386
f 92 382 364
f 299 373 371
f 374 340 366
f 289 360 278
f 361 337 338
f 368 345 391
f 362 387 358
f 90 342 385
f 364 373 380
f 364 380 127
f 363 379 351
f 386 381 374
f 370 348 375
f 365 371 373
f 356 366 340
f 372 366 360
f 356 344 377
f 340 354 367
f 367 376 350
f 103 346 342
f 344 362 352
f 337 361 353
f 90 385 106
f 368 367 354
f 349 369 342
f 354 374 381
f 359 370 351
f 111 82 375
f 299 371 271
f 371 348 378
f 372 390 383
f 373 364 365
f 280 373 319
f 340 374 354
f 383 359 386
f 375 382 111
f 82 138 384
f 343 376 391
f 350 376 339
f 299 319 373
f 360 377 278
f 307 377 352
f 371 378 271
f 370 355 348
f 379 363 385
f 379 369 381
f 106 363 138
f 346 353 349
f 349 361 345
f 127 380 143
f 354 381 369
f 381 386 379
f 382 92 111
f 365 382 375
f 271 378 309
f 383 390 359
f 366 383 374
f 384 138 363
f 327 388 333
f 351 384 363
f 379 385 342
f 106 385 363
f 383 386 374
f 362 347 387
f 143 380 388
f 143 388 100
f 280 388 380
f 4 100 327
f 384 375 82
f 280 333 388
f 389 391 338
f 355 390 378
f 372 360 289
f 378 390 309
f 343 391 389
f 368 391 376
f 390 372 309
f 435 424 409
f 439 441 450
f 427 469 421
f 405 455 446
f 408 442 412
f 399 439 406
f 413 410 432
f 438 402 452
f 400 396 418
f 443 449 461
f 412 401 409
f 397 470 431
f 463 414 454
f 436 434 457
f 423 452 430
f 431 412 418
f 401 442 454
f 418 424 400
f 404 419 401
f 398 410 413
f 427 421 443
f 436 449 411
f 408 441 442
f 435 409 419
f 460 416 466
f 413 406 439
f 393 425 464
f 432 425 417
f 453 411 421
f 420 442 441
f 403 398 450
f 415 440 445
f 417 452 406
f 417 425 426
f 392 400 424
f 431 470 408
f 430 437 423
f 443 461 414
f 411 444 436
f 434 447 407
f 426 438 417
f 406 423 399
f 392 424 435
f 424 418 409
f 413 432 406
f 393 426 425
f 437 445 458
f 427 414 463
f 407 457 434
f 429 446 444
f 448 399 437
f 415 430 402
f 431 396 397
f 441 408 470
f 432 464 425
f 404 401 462
f 434 446 455
f 434 455 447
f 433 454 414
f 463 456 448
f 443 411 449
f 436 444 446
f 423 437 399
f 445 437 430
f 423 406 452
f 399 420 439
f 439 450 413
f 419 409 401
f 406 432 417
f 396 431 418
f 404 462 422
f 441 439 420
f 412 442 401
f 420 448 456
f 427 443 414
f 428 395 449
f 429 444 394
f 444 411 453
f 445 469 458
f 446 434 436
f 405 446 451
f 399 448 420
f 458 427 463
f 449 457 428
f 395 459 461
f 403 450 470
f 413 450 398
f 429 451 446
f 430 452 402
f 438 452 417
f 444 453 394
f 443 421 411
f 454 433 462
f 454 442 456
f 422 433 459
f 409 418 412
f 412 431 408
f 447 455 465
f 420 456 442
f 456 463 454
f 457 407 428
f 436 457 449
f 394 453 440
f 458 469 427
f 437 458 448
f 461 459 433
f 460 466 467
f 414 461 433
f 454 462 401
f 422 462 433
f 458 463 448
f 432 410 464
f 465 455 466
f 465 466 416
f 405 466 455
f 4 416 460
f 461 449 395
f 405 467 466
f 468 470 397
f 421 469 453
f 445 430 415
f 453 469 440
f 403 470 468
f 441 470 450
f 469 445 440
f 484 498 507
f 520 511 510
f 495 536 500
f 516 524 405
f 487 512 483
f 481 510 476
f 504 485 488
f 521 402 438
f 492 473 477
f 529 519 513
f 484 478 487
f 503 537 474
f 523 489 531
f 526 506 508
f 502 521 497
f 492 487 503
f 523 512 478
f 477 498 492
f 478 493 480
f 488 485 475
f 513 495 500
f 486 519 508
f 512 511 483
f 493 484 507
f 534 490 460
f 510 481 488
f 532 499 393
f 491 499 504
f 495 486 522
f 511 512 494
f 520 475 479
f 515 440 415
f 481 521 491
f 426 499 491
f 498 477 471
f 483 537 503
f 497 509 502
f 489 529 513
f 508 514 486
f 482 517 506
f 491 438 426
f 476 497 481
f 507 498 471
f 484 492 498
f 481 504 488
f 499 426 393
f 527 515 509
f 531 489 500
f 506 526 482
f 514 516 429
f 509 476 518
f 402 502 415
f 474 473 503
f 537 483 511
f 499 532 504
f 530 478 480
f 524 516 506
f 517 524 506
f 489 523 505
f 518 525 531
f 519 486 513
f 516 514 508
f 476 509 497
f 502 509 515
f 521 481 497
f 510 494 476
f 488 520 510
f 478 484 493
f 491 504 481
f 492 503 473
f 496 530 480
f 494 510 511
f 478 512 487
f 525 518 494
f 489 513 500
f 519 472 501
f 394 514 429
f 522 486 514
f 527 536 515
f 508 506 516
f 451 516 405
f 494 518 476
f 531 500 527
f 501 526 519
f 529 528 472
f 537 520 479
f 475 520 488
f 516 451 429
f 402 521 502
f 491 521 438
f 394 522 514
f 486 495 513
f 530 505 523
f 525 512 523
f 528 505 496
f 487 492 484
f 483 503 487
f 533 524 517
f 512 525 494
f 523 531 525
f 501 482 526
f 519 526 508
f 440 522 394
f 500 536 527
f 518 527 509
f 505 528 529
f 467 534 460
f 505 529 489
f 478 530 523
f 505 530 496
f 518 531 527
f 532 485 504
f 534 524 533
f 490 534 533
f 524 534 405
f 460 490 4
f 472 519 529
f 534 467 405
f 474 537 535
f 522 536 495
f 415 502 515
f 440 536 522
f 535 537 479
f 520 537 511
f 440 515 536
