# 4part FEM knit+cable best fit (4part_s_band80d2)
# interior RMSE  : 4.900 mm
# max deviation  : 17.394 mm
# crown          : 0.31785 m (target 0.32177 m)
# max disp/rest  : 17.394 mm (floor 5.0 mm)
# regions        : 8 (2 D4 slots), 9 parameters
v 0.000616 0.600859 0.000000
v -0.423648 0.425123 0.000000
v -0.187100 0.188949 0.181125
v 0.000701 0.000578 0.212331
v 0.001101 0.294940 0.317849
v -0.111519 0.589084 0.000000
v -0.154511 0.578763 0.000000
v -0.288752 0.525061 0.000000
v -0.217824 0.403828 0.200219
v -0.051844 0.596730 0.000000
v -0.056573 0.465303 0.238647
v -0.309871 0.311776 0.107613
v -0.237731 0.549565 0.000000
v 0.001234 0.441510 0.268055
v -0.096440 0.097925 0.205346
v -0.273355 0.419919 0.144851
v 0.002043 0.201725 0.314521
v -0.141976 0.509241 0.162829
v -0.044548 0.517528 0.183333
v -0.329212 0.500267 0.000000
v -0.109793 0.247803 0.284673
v -0.091810 0.501760 0.199071
v -0.279803 0.476959 0.097145
v -0.085952 0.347541 0.289407
v -0.269822 0.271832 0.136942
v 0.000997 0.054908 0.230347
v -0.326465 0.402392 0.097387
v -0.078036 0.552789 0.115227
v 0.001131 0.489476 0.221777
v -0.174373 0.431654 0.216480
v -0.136559 0.277272 0.283620
v 0.000940 0.391479 0.295554
v -0.249943 0.375584 0.181289
v -0.031455 0.566175 0.090920
v -0.373963 0.424619 0.048067
v -0.387915 0.389684 0.037218
v -0.133150 0.317914 0.277859
v 0.001381 0.248585 0.316893
v -0.153906 0.155656 0.192477
v -0.256706 0.330993 0.177386
v -0.125219 0.545858 0.110743
v -0.330156 0.453681 0.070065
v -0.043908 0.369099 0.301106
v -0.046666 0.180564 0.286976
v 0.000711 0.549844 0.129469
v -0.079903 0.213182 0.287090
v -0.211453 0.351404 0.215912
v -0.349207 0.351029 0.074368
v -0.225345 0.451471 0.168288
v -0.226875 0.229113 0.163000
v -0.178846 0.479891 0.175020
v -0.119701 0.453657 0.237323
v -0.090916 0.296074 0.295211
v -0.128747 0.203192 0.257405
v -0.223148 0.297530 0.202057
v -0.093726 0.162190 0.256852
v 0.002002 0.157317 0.286742
v -0.176399 0.384030 0.237450
v -0.054153 0.264457 0.307286
v -0.231666 0.503591 0.108725
v -0.125091 0.126780 0.199800
v -0.290744 0.368351 0.141822
v -0.161683 0.237271 0.245777
v -0.085635 0.404531 0.270683
v -0.048465 0.136114 0.271370
v -0.138175 0.412428 0.250214
v -0.037782 0.222297 0.304015
v -0.173686 0.332275 0.253623
v 0.000899 0.341359 0.311320
v -0.033256 0.034559 0.211700
v -0.048451 0.318434 0.308703
v -0.039429 0.415405 0.278521
v -0.127404 0.365146 0.279964
v -0.381698 0.460952 0.000000
v 0.001101 0.111639 0.273359
v -0.040347 0.090852 0.244433
v -0.066882 0.068199 0.209006
v -0.194710 0.567385 0.000000
v -0.184102 0.280302 0.236816
v -0.179549 0.532303 0.103674
v -0.599383 0.000859 0.000000
v -0.293269 0.000363 0.316898
v -0.587609 0.112995 0.000000
v -0.577288 0.155985 0.000000
v -0.523586 0.290227 0.000000
v -0.401824 0.218564 0.199183
v -0.595255 0.053319 0.000000
v -0.459603 0.057719 0.242566
v -0.548091 0.239205 0.000000
v -0.442863 0.000568 0.260928
v -0.417799 0.274116 0.144036
v -0.199666 0.000753 0.301542
v -0.499978 0.140296 0.170034
v -0.520102 0.046708 0.172380
v -0.498792 0.330686 0.000000
v -0.245317 0.113027 0.276351
v -0.505200 0.094223 0.179990
v -0.477269 0.283428 0.091534
v -0.345677 0.087029 0.293379
v -0.053784 0.000607 0.229728
v -0.400464 0.328847 0.098052
v -0.550763 0.079927 0.115103
v -0.491702 0.000920 0.213706
v -0.430890 0.175837 0.209811
v -0.277216 0.139743 0.301071
v -0.389149 0.000661 0.293416
v -0.373398 0.250368 0.179898
v -0.565823 0.033424 0.088320
v -0.422530 0.374568 0.047185
v -0.317998 0.134591 0.260773
v -0.245135 -0.000160 0.312286
v -0.328514 0.259393 0.173141
v -0.543596 0.126872 0.110204
v -0.446837 0.326157 0.081098
v -0.367440 0.045821 0.299741
v -0.177755 0.049410 0.287662
v -0.548520 0.000776 0.129862
v -0.211469 0.081381 0.285578
v -0.349878 0.213354 0.216044
v -0.450648 0.227555 0.164295
v -0.476955 0.179640 0.173964
v -0.458544 0.122959 0.217852
v -0.294627 0.093023 0.296239
v -0.200727 0.131829 0.251037
v -0.297286 0.219684 0.208181
v -0.160785 0.095256 0.256105
v -0.157348 0.000499 0.283181
v -0.381623 0.176335 0.233988
v -0.262382 0.056033 0.307836
v -0.501142 0.232953 0.108217
v -0.366352 0.292010 0.141508
v -0.234855 0.165285 0.239452
v -0.403745 0.087193 0.271921
v -0.133216 0.051560 0.263157
v -0.407447 0.134735 0.250326
v -0.218968 0.041493 0.316231
v -0.330899 0.175688 0.248595
v -0.339680 0.000602 0.310735
v -0.315069 0.047095 0.312146
v -0.412539 0.040731 0.283618
v -0.365049 0.128964 0.271827
v -0.459477 0.383172 0.000000
v -0.110852 0.000369 0.258451
v -0.088810 0.042371 0.238854
v -0.565910 0.196184 0.000000
v -0.280931 0.177296 0.246201
v -0.529436 0.180677 0.104968
v 0.424880 0.425123 0.000000
v 0.188301 0.188845 0.181201
v 0.112752 0.589084 0.000000
v 0.155743 0.578763 0.000000
v 0.289984 0.525061 0.000000
v 0.221265 0.405010 0.200711
v 0.053076 0.596730 0.000000
v 0.058406 0.461474 0.242907
v 0.311279 0.311472 0.107395
v 0.238963 0.549565 0.000000
v 0.097892 0.097594 0.205378
v 0.279942 0.422091 0.139096
v 0.140582 0.501442 0.170174
v 0.046337 0.516902 0.182726
v 0.330445 0.500267 0.000000
v 0.111020 0.248949 0.283639
v 0.094031 0.503643 0.187771
v 0.280620 0.474391 0.106950
v 0.087412 0.347588 0.294110
v 0.271123 0.271471 0.136766
v 0.330578 0.402018 0.099396
v 0.078829 0.550710 0.121752
v 0.175440 0.430317 0.215565
v 0.140534 0.276278 0.266906
v 0.253270 0.376197 0.182719
v 0.032736 0.566321 0.090796
v 0.374471 0.423738 0.046882
v 0.389318 0.389220 0.036842
v 0.133691 0.318030 0.276347
v 0.155216 0.155673 0.192707
v 0.256712 0.331185 0.181094
v 0.128456 0.551046 0.099073
v 0.324909 0.446621 0.090244
v 0.045967 0.368802 0.302118
v 0.051572 0.177392 0.292089
v 0.081530 0.214250 0.309600
v 0.218171 0.353030 0.198400
v 0.350865 0.350586 0.074228
v 0.228317 0.452225 0.164618
v 0.228174 0.228821 0.162808
v 0.180333 0.478747 0.174459
v 0.123234 0.458648 0.221219
v 0.093457 0.297130 0.297882
v 0.131748 0.202643 0.253251
v 0.218937 0.299339 0.208156
v 0.102243 0.156117 0.249518
v 0.180807 0.383788 0.234142
v 0.057874 0.265677 0.313090
v 0.234229 0.503881 0.109248
v 0.126540 0.126554 0.199879
v 0.291809 0.368150 0.141435
v 0.165764 0.236127 0.240552
v 0.087983 0.405506 0.272218
v 0.053203 0.132791 0.265598
v 0.135001 0.407902 0.249256
v 0.041214 0.222630 0.310759
v 0.176623 0.331452 0.258580
v 0.034820 0.034367 0.211616
v 0.048141 0.317832 0.312062
v 0.041302 0.414293 0.282956
v 0.129057 0.365617 0.271086
v 0.382930 0.460952 0.000000
v 0.043611 0.088705 0.240519
v 0.068399 0.067925 0.209002
v 0.195941 0.567385 0.000000
v 0.179398 0.282216 0.257229
v 0.180943 0.530624 0.110107
v 0.588842 0.112995 0.000000
v 0.578520 0.155985 0.000000
v 0.524819 0.290227 0.000000
v 0.401820 0.217722 0.198389
v 0.596487 0.053319 0.000000
v 0.461498 0.058122 0.243753
v 0.549323 0.239205 0.000000
v 0.418789 0.274821 0.144911
v 0.499044 0.139722 0.176403
v 0.516601 0.046351 0.183011
v 0.500025 0.330686 0.000000
v 0.246756 0.112756 0.285550
v 0.503234 0.093801 0.188521
v 0.475645 0.281525 0.096947
v 0.347591 0.088250 0.295980
v 0.402483 0.333120 0.090655
v 0.550869 0.079419 0.117846
v 0.431169 0.176299 0.217305
v 0.277475 0.137896 0.282709
v 0.373902 0.250505 0.179940
v 0.565597 0.033025 0.090833
v 0.424016 0.375187 0.047718
v 0.319001 0.135845 0.275471
v 0.328449 0.263397 0.169740
v 0.544955 0.126778 0.110375
v 0.446634 0.325298 0.080332
v 0.368073 0.045700 0.298220
v 0.180763 0.048657 0.286308
v 0.212800 0.082175 0.287127
v 0.350336 0.215370 0.217752
v 0.451304 0.227635 0.164395
v 0.478340 0.180223 0.175731
v 0.454291 0.121578 0.227310
v 0.295968 0.092897 0.307430
v 0.201866 0.132261 0.251782
v 0.297837 0.220767 0.209192
v 0.161865 0.095747 0.255030
v 0.380650 0.176478 0.259023
v 0.263991 0.056382 0.306971
v 0.502185 0.233145 0.108470
v 0.367359 0.292922 0.142455
v 0.236107 0.165263 0.239597
v 0.404295 0.087179 0.283602
v 0.135172 0.051201 0.263102
v 0.409636 0.136917 0.249586
v 0.220920 0.041272 0.300946
v 0.331434 0.176912 0.259291
v 0.316664 0.047782 0.308354
v 0.414740 0.040915 0.278582
v 0.367136 0.131700 0.266006
v 0.460709 0.383172 0.000000
v 0.090441 0.042087 0.238970
v 0.567143 0.196184 0.000000
v 0.281044 0.180061 0.242743
v 0.530574 0.180704 0.105243
v -0.423648 -0.423406 0.000000
v -0.186895 -0.187355 0.181055
v -0.111519 -0.587366 0.000000
v -0.154511 -0.577046 0.000000
v -0.288752 -0.523343 0.000000
v -0.217811 -0.401952 0.200132
v -0.051844 -0.595012 0.000000
v -0.057319 -0.463151 0.237641
v -0.309682 -0.310132 0.107307
v -0.237731 -0.547848 0.000000
v -0.096433 -0.096585 0.205746
v -0.273981 -0.418450 0.145422
v -0.139283 -0.500633 0.170750
v -0.044758 -0.514909 0.182121
v -0.329212 -0.498550 0.000000
v -0.111011 -0.247831 0.283174
v -0.092356 -0.502174 0.188023
v -0.280492 -0.474969 0.097225
v -0.086053 -0.345976 0.301302
v -0.269595 -0.270124 0.136433
v -0.333077 -0.401663 0.090251
v -0.079778 -0.560686 0.094092
v -0.174320 -0.429688 0.216310
v -0.137981 -0.276331 0.270872
v -0.249635 -0.373652 0.184878
v -0.030820 -0.565458 0.091150
v -0.373771 -0.422635 0.047664
v -0.387759 -0.387898 0.036922
v -0.132823 -0.316979 0.276143
v -0.153926 -0.154080 0.192722
v -0.257325 -0.328912 0.177803
v -0.126179 -0.545063 0.109399
v -0.323682 -0.445324 0.082773
v -0.044847 -0.368042 0.298718
v -0.046966 -0.180527 0.298282
v -0.083065 -0.212114 0.290458
v -0.214353 -0.350083 0.215667
v -0.348660 -0.349801 0.074162
v -0.226589 -0.450752 0.164810
v -0.226846 -0.227419 0.162471
v -0.178898 -0.477723 0.174819
v -0.120389 -0.453954 0.227062
v -0.093092 -0.295515 0.298274
v -0.131157 -0.200676 0.252394
v -0.218635 -0.297794 0.211121
v -0.091201 -0.163178 0.267483
v -0.172777 -0.379495 0.240360
v -0.055687 -0.264123 0.316601
v -0.232074 -0.501365 0.108681
v -0.125228 -0.125210 0.200133
v -0.290504 -0.366486 0.144303
v -0.172666 -0.230710 0.229598
v -0.087216 -0.405796 0.271624
v -0.049825 -0.132420 0.264986
v -0.134766 -0.408414 0.248932
v -0.042017 -0.220041 0.308518
v -0.174919 -0.330307 0.249176
v -0.033241 -0.033340 0.211767
v -0.046931 -0.316478 0.311000
v -0.041683 -0.420767 0.273090
v -0.127367 -0.364328 0.270338
v -0.381698 -0.459234 0.000000
v -0.041021 -0.088328 0.239779
v -0.066782 -0.066967 0.209269
v -0.194710 -0.565668 0.000000
v -0.179597 -0.280511 0.243090
v -0.180310 -0.530974 0.102556
v -0.587609 -0.111278 0.000000
v -0.577288 -0.154268 0.000000
v -0.523586 -0.288510 0.000000
v -0.401319 -0.216924 0.199041
v -0.595255 -0.051602 0.000000
v -0.464661 -0.057070 0.235624
v -0.548091 -0.237488 0.000000
v -0.417444 -0.274039 0.145165
v -0.500202 -0.138747 0.170305
v -0.515262 -0.044823 0.182778
v -0.498792 -0.328969 0.000000
v -0.247691 -0.110092 0.282128
v -0.502115 -0.092313 0.188031
v -0.472069 -0.277879 0.117960
v -0.346137 -0.086056 0.290246
v -0.400141 -0.327642 0.108641
v -0.551312 -0.077602 0.114888
v -0.429167 -0.173597 0.215448
v -0.275897 -0.137903 0.270798
v -0.373407 -0.250140 0.181203
v -0.562526 -0.031034 0.096406
v -0.422576 -0.373248 0.047185
v -0.316541 -0.133090 0.277116
v -0.328864 -0.255893 0.179038
v -0.544864 -0.124931 0.110742
v -0.447928 -0.326559 0.081961
v -0.366781 -0.044045 0.300755
v -0.174713 -0.051378 0.280641
v -0.212705 -0.081021 0.287044
v -0.349298 -0.212321 0.216395
v -0.449821 -0.225549 0.163554
v -0.480674 -0.180299 0.169298
v -0.453953 -0.120081 0.226977
v -0.295297 -0.091512 0.295655
v -0.201309 -0.130346 0.250936
v -0.296830 -0.219028 0.208450
v -0.159251 -0.096020 0.250268
v -0.378845 -0.171746 0.239156
v -0.263223 -0.055085 0.307078
v -0.503384 -0.232564 0.109785
v -0.365881 -0.292970 0.137548
v -0.235048 -0.163702 0.238902
v -0.403877 -0.085793 0.270394
v -0.131146 -0.052657 0.257982
v -0.407888 -0.134129 0.251036
v -0.220584 -0.039704 0.301378
v -0.329652 -0.174062 0.248127
v -0.315653 -0.046278 0.309614
v -0.413597 -0.039476 0.278022
v -0.363874 -0.127327 0.279758
v -0.459477 -0.381455 0.000000
v -0.088467 -0.041350 0.239455
v -0.565910 -0.194467 0.000000
v -0.279904 -0.178491 0.241885
v -0.528307 -0.178232 0.115059
v 0.000616 -0.599141 0.000000
v 0.424880 -0.423406 0.000000
v 0.188319 -0.187342 0.180793
v -0.000010 -0.293514 0.317397
v 0.112752 -0.587366 0.000000
v 0.155743 -0.577046 0.000000
v 0.289984 -0.523343 0.000000
v 0.218582 -0.401530 0.199310
v 0.053076 -0.595012 0.000000
v 0.057839 -0.458942 0.241683
v 0.310921 -0.309950 0.107358
v 0.238963 -0.547848 0.000000
v 0.000916 -0.441450 0.264352
v 0.097755 -0.096602 0.205437
v 0.274595 -0.417976 0.144685
v 0.000201 -0.200541 0.315612
v 0.140316 -0.500391 0.169881
v 0.046431 -0.518531 0.175917
v 0.330445 -0.498550 0.000000
v 0.110673 -0.247506 0.282103
v 0.094603 -0.507774 0.178281
v 0.281753 -0.475020 0.097149
v 0.089722 -0.348884 0.289558
v 0.270985 -0.270065 0.136522
v 0.000802 -0.053624 0.229643
v 0.328577 -0.400571 0.098052
v 0.078934 -0.551733 0.115166
v 0.000864 -0.487655 0.221172
v 0.174852 -0.428810 0.215201
v 0.137566 -0.276611 0.280073
v 0.000276 -0.390001 0.294418
v 0.251236 -0.373623 0.180934
v 0.032585 -0.564814 0.090979
v 0.373904 -0.422490 0.046952
v 0.388413 -0.387768 0.037058
v 0.133441 -0.317146 0.278904
v -0.000152 -0.247009 0.315455
v 0.155204 -0.154156 0.192350
v 0.258324 -0.329079 0.177257
v 0.127905 -0.549977 0.097721
v 0.325936 -0.446734 0.080988
v 0.045136 -0.367895 0.299315
v 0.048350 -0.179454 0.286601
v 0.000586 -0.548383 0.129591
v 0.081816 -0.212052 0.286853
v 0.213182 -0.349246 0.215604
v 0.350112 -0.349176 0.074224
v 0.227600 -0.450461 0.164401
v 0.228187 -0.227303 0.162478
v 0.179989 -0.477417 0.174615
v 0.120794 -0.452819 0.225549
v 0.092056 -0.295632 0.295029
v 0.130428 -0.201896 0.254817
v 0.225795 -0.294957 0.200321
v 0.094900 -0.161239 0.256361
v 0.001107 -0.152606 0.284303
v 0.174698 -0.379621 0.237162
v 0.055234 -0.263686 0.314317
v 0.233679 -0.501456 0.108662
v 0.126403 -0.125391 0.199784
v 0.292098 -0.366504 0.141714
v 0.165186 -0.234935 0.239370
v 0.087884 -0.404708 0.268730
v 0.051356 -0.133569 0.263593
v 0.134939 -0.406862 0.249663
v 0.040761 -0.220139 0.303404
v 0.175052 -0.329829 0.247598
v 0.000052 -0.340128 0.311157
v 0.034686 -0.033332 0.211730
v 0.046947 -0.316244 0.311057
v 0.040838 -0.413645 0.278102
v 0.129481 -0.364673 0.271484
v 0.382930 -0.459234 0.000000
v 0.000941 -0.109090 0.260540
v 0.042682 -0.088579 0.239570
v 0.068193 -0.066948 0.209107
v 0.195941 -0.565668 0.000000
v 0.179446 -0.279980 0.242020
v 0.179924 -0.526981 0.117925
v 0.600616 0.000859 0.000000
v 0.294024 0.001066 0.316386
v 0.588842 -0.111278 0.000000
v 0.578520 -0.154268 0.000000
v 0.524819 -0.288510 0.000000
v 0.402554 -0.217630 0.200404
v 0.596487 -0.051602 0.000000
v 0.460458 -0.056292 0.242580
v 0.549323 -0.237488 0.000000
v 0.445160 0.000777 0.260467
v 0.418726 -0.273373 0.144899
v 0.200770 0.000532 0.305114
v 0.501396 -0.138723 0.170525
v 0.518883 -0.044742 0.178900
v 0.500025 -0.328969 0.000000
v 0.248640 -0.110062 0.282473
v 0.501806 -0.091853 0.191555
v 0.475897 -0.279958 0.097074
v 0.346446 -0.085231 0.292978
v 0.054895 0.000622 0.230111
v 0.401543 -0.329034 0.099674
v 0.551362 -0.077811 0.116916
v 0.489193 0.000709 0.221511
v 0.429987 -0.173448 0.215659
v 0.276982 -0.137627 0.270709
v 0.390055 0.000834 0.293388
v 0.375894 -0.255994 0.174928
v 0.565565 -0.031304 0.090874
v 0.422766 -0.371717 0.032327
v 0.317593 -0.132321 0.276358
v 0.246773 0.001351 0.312608
v 0.330210 -0.256069 0.176824
v 0.545352 -0.125109 0.109774
v 0.446562 -0.323356 0.083949
v 0.368070 -0.044000 0.298353
v 0.180995 -0.047278 0.298911
v 0.549215 0.001041 0.129472
v 0.213938 -0.079838 0.300572
v 0.350498 -0.212871 0.217450
v 0.449762 -0.224689 0.170072
v 0.478654 -0.178244 0.174745
v 0.454648 -0.119973 0.227123
v 0.296071 -0.092190 0.295373
v 0.202100 -0.131063 0.251418
v 0.298117 -0.219106 0.208721
v 0.163426 -0.092767 0.262455
v 0.157675 0.000628 0.285561
v 0.380007 -0.172198 0.240189
v 0.264263 -0.054759 0.309644
v 0.500719 -0.230382 0.114130
v 0.367307 -0.291494 0.142249
v 0.236102 -0.164013 0.239211
v 0.404698 -0.085887 0.272215
v 0.134052 -0.050424 0.264270
v 0.407933 -0.133521 0.250405
v 0.221306 -0.039554 0.311820
v 0.330777 -0.174243 0.248826
v 0.340477 0.000914 0.310312
v 0.316547 -0.045844 0.309677
v 0.414263 -0.039342 0.277939
v 0.364919 -0.127166 0.270955
v 0.460709 -0.381455 0.000000
v 0.109878 0.000644 0.257727
v 0.090473 -0.040658 0.240444
v 0.567143 -0.194467 0.000000
v 0.281084 -0.178492 0.242614
v 0.531018 -0.179055 0.105341
f 45 34 19
f 49 51 60
f 37 79 31
f 15 65 56
f 18 52 22
f 9 49 16
f 23 20 42
f 48 12 62
f 10 6 28
f 53 59 71
f 22 11 19
f 7 80 41
f 73 24 64
f 46 44 67
f 33 62 40
f 41 22 28
f 11 52 64
f 28 34 10
f 14 29 11
f 8 20 23
f 37 31 53
f 46 59 21
f 18 51 52
f 45 19 29
f 70 26 76
f 23 16 49
f 2 35 74
f 42 35 27
f 63 21 31
f 30 52 51
f 13 8 60
f 25 50 55
f 27 62 16
f 27 35 36
f 1 10 34
f 41 80 18
f 40 47 33
f 53 71 24
f 21 54 46
f 44 57 17
f 36 48 27
f 16 33 9
f 1 34 45
f 34 28 19
f 23 42 16
f 2 36 35
f 47 55 68
f 37 24 73
f 17 67 44
f 39 56 54
f 58 9 47
f 25 40 12
f 41 6 7
f 51 18 80
f 42 74 35
f 14 11 72
f 44 56 65
f 44 65 57
f 43 64 24
f 73 66 58
f 53 21 59
f 46 54 56
f 33 47 9
f 55 47 40
f 33 16 62
f 9 30 49
f 49 60 23
f 29 19 11
f 16 42 27
f 6 41 28
f 14 72 32
f 51 49 30
f 22 52 11
f 30 58 66
f 37 53 24
f 38 5 59
f 39 54 3
f 54 21 63
f 55 79 68
f 56 44 46
f 15 56 61
f 9 58 30
f 68 37 73
f 59 67 38
f 5 69 71
f 13 60 80
f 23 60 8
f 39 61 56
f 40 62 12
f 48 62 27
f 54 63 3
f 53 31 21
f 64 43 72
f 64 52 66
f 32 43 69
f 19 28 22
f 22 41 18
f 57 65 75
f 30 66 52
f 66 73 64
f 67 17 38
f 46 67 59
f 3 63 50
f 68 79 37
f 47 68 58
f 71 69 43
f 70 76 77
f 24 71 43
f 64 72 11
f 32 72 43
f 68 73 58
f 42 20 74
f 75 65 76
f 75 76 26
f 15 76 65
f 4 26 70
f 71 59 5
f 15 77 76
f 78 80 7
f 31 79 63
f 55 40 25
f 63 79 50
f 13 80 78
f 51 80 60
f 79 55 50
f 94 108 117
f 130 121 120
f 105 146 110
f 126 134 15
f 97 122 93
f 91 120 86
f 114 95 98
f 131 12 48
f 102 83 87
f 139 129 123
f 94 88 97
f 113 147 84
f 133 99 141
f 136 116 118
f 112 131 107
f 102 97 113
f 133 122 88
f 87 108 102
f 88 103 90
f 98 95 85
f 123 105 110
f 96 129 118
f 122 121 93
f 103 94 117
f 144 100 70
f 120 91 98
f 142 109 2
f 101 109 114
f 105 96 132
f 121 122 104
f 130 85 89
f 125 50 25
f 91 131 101
f 36 109 101
f 108 87 81
f 93 147 113
f 107 119 112
f 99 139 123
f 118 124 96
f 92 127 116
f 101 48 36
f 86 107 91
f 117 108 81
f 94 102 108
f 91 114 98
f 109 36 2
f 137 125 119
f 141 99 110
f 116 136 92
f 124 126 39
f 119 86 128
f 12 112 25
f 84 83 113
f 147 93 121
f 109 142 114
f 140 88 90
f 134 126 116
f 127 134 116
f 99 133 115
f 128 135 141
f 129 96 123
f 126 124 118
f 86 119 107
f 112 119 125
f 131 91 107
f 120 104 86
f 98 130 120
f 88 94 103
f 101 114 91
f 102 113 83
f 106 140 90
f 104 120 121
f 88 122 97
f 135 128 104
f 99 123 110
f 129 82 111
f 3 124 39
f 132 96 124
f 137 146 125
f 118 116 126
f 61 126 15
f 104 128 86
f 141 110 137
f 111 136 129
f 139 138 82
f 147 130 89
f 85 130 98
f 126 61 39
f 12 131 112
f 101 131 48
f 3 132 124
f 96 105 123
f 140 115 133
f 135 122 133
f 138 115 106
f 97 102 94
f 93 113 97
f 143 134 127
f 122 135 104
f 133 141 135
f 111 92 136
f 129 136 118
f 50 132 3
f 110 146 137
f 128 137 119
f 115 138 139
f 77 144 70
f 115 139 99
f 88 140 133
f 115 140 106
f 128 141 137
f 142 95 114
f 144 134 143
f 100 144 143
f 134 144 15
f 70 100 4
f 82 129 139
f 144 77 15
f 84 147 145
f 132 146 105
f 25 112 125
f 50 146 132
f 145 147 89
f 130 147 121
f 50 125 146
f 161 173 45
f 196 188 186
f 171 213 176
f 193 201 158
f 164 189 160
f 159 186 153
f 180 162 165
f 198 156 185
f 169 150 154
f 206 195 190
f 161 155 164
f 179 214 151
f 200 166 208
f 203 182 183
f 178 198 172
f 169 164 179
f 200 189 155
f 154 173 169
f 155 29 14
f 165 162 152
f 190 171 176
f 163 195 183
f 189 188 160
f 29 161 45
f 210 26 205
f 186 159 165
f 209 174 148
f 168 174 180
f 171 163 199
f 188 189 170
f 196 152 157
f 192 187 167
f 159 198 168
f 175 174 168
f 173 154 1
f 160 214 179
f 172 184 178
f 166 206 190
f 183 191 163
f 17 57 182
f 168 185 175
f 153 172 159
f 45 173 1
f 161 169 173
f 159 180 165
f 174 175 148
f 204 192 184
f 208 166 176
f 182 203 17
f 191 193 177
f 184 153 194
f 156 178 167
f 151 150 179
f 214 160 188
f 174 209 180
f 207 155 14
f 201 193 182
f 57 201 182
f 166 200 181
f 194 202 208
f 195 163 190
f 193 191 183
f 153 184 172
f 178 184 192
f 198 159 172
f 186 170 153
f 165 196 186
f 155 161 29
f 168 180 159
f 169 179 150
f 32 207 14
f 170 186 188
f 155 189 164
f 202 194 170
f 166 190 176
f 195 5 38
f 149 191 177
f 199 163 191
f 204 213 192
f 183 182 193
f 197 193 158
f 170 194 153
f 208 176 204
f 38 203 195
f 206 69 5
f 214 196 157
f 152 196 165
f 193 197 177
f 156 198 178
f 168 198 185
f 149 199 191
f 163 171 190
f 207 181 200
f 202 189 200
f 69 181 32
f 164 169 161
f 160 179 164
f 75 201 57
f 189 202 170
f 200 208 202
f 38 17 203
f 195 203 183
f 187 199 149
f 176 213 204
f 194 204 184
f 181 69 206
f 211 210 205
f 181 206 166
f 155 207 200
f 181 207 32
f 194 208 204
f 209 162 180
f 210 201 75
f 26 210 75
f 201 210 158
f 205 26 4
f 5 195 206
f 210 211 158
f 151 214 212
f 199 213 171
f 167 178 192
f 187 213 199
f 212 214 157
f 196 214 188
f 187 192 213
f 507 235 224
f 245 246 254
f 237 268 233
f 158 258 251
f 223 247 227
f 218 245 222
f 228 225 240
f 185 156 255
f 219 215 231
f 248 253 262
f 227 220 224
f 216 269 239
f 264 229 257
f 243 242 260
f 234 255 238
f 239 227 231
f 220 247 257
f 231 235 219
f 480 493 220
f 217 225 228
f 237 233 248
f 243 253 226
f 223 246 247
f 507 224 493
f 205 490 266
f 228 222 245
f 148 236 265
f 240 236 230
f 256 226 233
f 232 247 246
f 221 217 254
f 167 187 250
f 230 255 222
f 230 236 175
f 471 219 235
f 239 269 223
f 238 244 234
f 248 262 229
f 226 249 243
f 242 517 482
f 175 185 230
f 222 234 218
f 471 235 507
f 235 231 224
f 228 240 222
f 148 175 236
f 244 250 261
f 237 229 264
f 482 260 242
f 177 251 249
f 252 218 244
f 167 238 156
f 239 215 216
f 246 223 269
f 240 265 236
f 480 220 263
f 242 251 258
f 242 258 517
f 241 257 229
f 264 259 252
f 248 226 253
f 243 249 251
f 234 244 218
f 250 244 238
f 234 222 255
f 218 232 245
f 245 254 228
f 493 224 220
f 222 240 230
f 215 239 231
f 480 263 496
f 246 245 232
f 227 247 220
f 232 252 259
f 237 248 229
f 501 472 253
f 177 249 149
f 249 226 256
f 250 268 261
f 251 242 243
f 158 251 197
f 218 252 232
f 261 237 264
f 253 260 501
f 472 528 262
f 221 254 269
f 228 254 217
f 177 197 251
f 238 255 156
f 185 255 230
f 249 256 149
f 248 233 226
f 257 241 263
f 257 247 259
f 496 241 528
f 224 231 227
f 227 239 223
f 517 258 533
f 232 259 247
f 259 264 257
f 260 482 501
f 243 260 253
f 149 256 187
f 261 268 237
f 244 261 252
f 262 528 241
f 205 266 211
f 229 262 241
f 257 263 220
f 496 263 241
f 261 264 252
f 240 225 265
f 533 258 266
f 533 266 490
f 158 266 258
f 4 490 205
f 262 253 472
f 158 211 266
f 267 269 216
f 233 268 256
f 250 238 167
f 256 268 187
f 221 269 267
f 246 269 254
f 268 250 187
f 283 295 435
f 318 310 308
f 293 335 298
f 315 323 280
f 286 311 282
f 281 308 275
f 302 284 287
f 320 278 307
f 291 272 276
f 328 317 312
f 283 277 286
f 301 336 273
f 322 288 330
f 325 304 305
f 300 320 294
f 291 286 301
f 322 311 277
f 276 295 291
f 277 419 404
f 287 284 274
f 312 293 298
f 285 317 305
f 311 310 282
f 419 283 435
f 332 416 327
f 308 281 287
f 331 296 270
f 290 296 302
f 293 285 321
f 310 311 292
f 318 274 279
f 314 309 289
f 281 320 290
f 297 296 290
f 295 276 392
f 282 336 301
f 294 306 300
f 288 328 312
f 305 313 285
f 407 447 304
f 290 307 297
f 275 294 281
f 435 295 392
f 283 291 295
f 281 302 287
f 296 297 270
f 326 314 306
f 330 288 298
f 304 325 407
f 313 315 299
f 306 275 316
f 278 300 289
f 273 272 301
f 336 282 310
f 296 331 302
f 329 277 404
f 323 315 304
f 447 323 304
f 288 322 303
f 316 324 330
f 317 285 312
f 315 313 305
f 275 306 294
f 300 306 314
f 320 281 294
f 308 292 275
f 287 318 308
f 277 283 419
f 290 302 281
f 291 301 272
f 422 329 404
f 292 308 310
f 277 311 286
f 324 316 292
f 288 312 298
f 317 395 428
f 271 313 299
f 321 285 313
f 326 335 314
f 305 304 315
f 319 315 280
f 292 316 275
f 330 298 326
f 428 325 317
f 328 459 395
f 336 318 279
f 274 318 287
f 315 319 299
f 278 320 300
f 290 320 307
f 271 321 313
f 285 293 312
f 329 303 322
f 324 311 322
f 459 303 422
f 286 291 283
f 282 301 286
f 465 323 447
f 311 324 292
f 322 330 324
f 428 407 325
f 317 325 305
f 309 321 271
f 298 335 326
f 316 326 306
f 303 459 328
f 333 332 327
f 303 328 288
f 277 329 322
f 303 329 422
f 316 330 326
f 331 284 302
f 332 323 465
f 416 332 465
f 323 332 280
f 327 416 4
f 395 317 328
f 332 333 280
f 273 336 334
f 321 335 293
f 289 300 314
f 309 335 321
f 334 336 279
f 318 336 310
f 309 314 335
f 117 357 346
f 367 368 376
f 359 390 355
f 280 380 373
f 345 369 349
f 340 367 344
f 350 347 362
f 307 278 377
f 341 337 353
f 370 375 384
f 349 342 346
f 338 391 361
f 386 351 379
f 365 364 382
f 356 377 360
f 361 349 353
f 342 369 379
f 353 357 341
f 90 103 342
f 339 347 350
f 359 355 370
f 365 375 348
f 345 368 369
f 117 346 103
f 327 100 388
f 350 344 367
f 270 358 387
f 362 358 352
f 378 348 355
f 354 369 368
f 343 339 376
f 289 309 372
f 352 377 344
f 352 358 297
f 81 341 357
f 361 391 345
f 360 366 356
f 370 384 351
f 348 371 365
f 364 127 92
f 297 307 352
f 344 356 340
f 81 357 117
f 357 353 346
f 350 362 344
f 270 297 358
f 366 372 383
f 359 351 386
f 92 382 364
f 299 373 371
f 374 340 366
f 289 360 278
f 361 337 338
f 368 345 391
f 362 387 358
f 90 342 385
f 364 373 380
f 364 380 127
f 363 379 351
f 386 381 374
f 370 348 375
f 365 371 373
f 356 366 340
f 372 366 360
f 356 344 377
f 340 354 367
f 367 376 350
f 103 346 342
f 344 362 352
f 337 361 353
f 90 385 106
f 368 367 354
f 349 369 342
f 354 374 381
f 359 370 351
f 111 82 375
f 299 371 271
f 371 348 378
f 372 390 383
f 373 364 365
f 280 373 319
f 340 374 354
f 383 359 386
f 375 382 111
f 82 138 384
f 343 376 391
f 350 376 339
f 299 319 373
f 360 377 278
f 307 377 352
f 371 378 271
f 370 355 348
f 379 363 385
f 379 369 381
f 106 363 138
f 346 353 349
f 349 361 345
f 127 380 143
f 354 381 369
f 381 386 379
f 382 92 111
f 365 382 375
f 271 378 309
f 383 390 359
f 366 383 374
f 384 138 363
f 327 388 333
f 351 384 363
f 379 385 342
f 106 385 363
f 383 386 374
f 362 347 387
f 143 380 388
f 143 388 100
f 280 388 380
f 4 100 327
f 384 375 82
f 280 333 388
f 389 391 338
f 355 390 378
f 372 360 289
f 378 390 309
f 343 391 389
f 368 391 376
f 390 372 309
f 435 424 409
f 439 441 450
f 427 469 421
f 405 455 446
f 408 442 412
f 399 439 406
f 413 410 432
f 438 402 452
f 400 396 418
f 443 449 461
f 412 401 409
f 397 470 431
f 463 414 454
f 436 434 457
f 423 452 430
f 431 412 418
f 401 442 454
f 418 424 400
f 404 419 401
f 398 410 413
f 427 421 443
f 436 449 411
f 408 441 442
f 435 409 419
f 460 416 466
f 413 406 439
f 393 425 464
f 432 425 417
f 453 411 421
f 420 442 441
f 403 398 450
f 415 440 445
f 417 452 406
f 417 425 426
f 392 400 424
f 431 470 408
f 430 437 423
f 443 461 414
f 411 444 436
f 434 447 407
f 426 438 417
f 406 423 399
f 392 424 435
f 424 418 409
f 413 432 406
f 393 426 425
f 437 445 458
f 427 414 463
f 407 457 434
f 429 446 444
f 448 399 437
f 415 430 402
f 431 396 397
f 441 408 470
f 432 464 425
f 404 401 462
f 434 446 455
f 434 455 447
f 433 454 414
f 463 456 448
f 443 411 449
f 436 444 446
f 423 437 399
f 445 437 430
f 423 406 452
f 399 420 439
f 439 450 413
f 419 409 401
f 406 432 417
f 396 431 418
f 404 462 422
f 441 439 420
f 412 442 401
f 420 448 456
f 427 443 414
f 428 395 449
f 429 444 394
f 444 411 453
f 445 469 458
f 446 434 436
f 405 446 451
f 399 448 420
f 458 427 463
f 449 457 428
f 395 459 461
f 403 450 470
f 413 450 398
f 429 451 446
f 430 452 402
f 438 452 417
f 444 453 394
f 443 421 411
f 454 433 462
f 454 442 456
f 422 433 459
f 409 418 412
f 412 431 408
f 447 455 465
f 420 456 442
f 456 463 454
f 457 407 428
f 436 457 449
f 394 453 440
f 458 469 427
f 437 458 448
f 461 459 433
f 460 466 467
f 414 461 433
f 454 462 401
f 422 462 433
f 458 463 448
f 432 410 464
f 465 455 466
f 465 466 416
f 405 466 455
f 4 416 460
f 461 449 395
f 405 467 466
f 468 470 397
f 421 469 453
f 445 430 415
f 453 469 440
f 403 470 468
f 441 470 450
f 469 445 440
f 484 498 507
f 520 511 510
f 495 536 500
f 516 524 405
f 487 512 483
f 481 510 476
f 504 485 488
f 521 402 438
f 492 473 477
f 529 519 513
f 484 478 487
f 503 537 474
f 523 489 531
f 526 506 508
f 502 521 497
f 492 487 503
f 523 512 478
f 477 498 492
f 478 493 480
f 488 485 475
f 513 495 500
f 486 519 508
f 512 511 483
f 493 484 507
f 534 490 460
f 510 481 488
f 532 499 393
f 491 499 504
f 495 486 522
f 511 512 494
f 520 475 479
f 515 440 415
f 481 521 491
f 426 499 491
f 498 477 471
f 483 537 503
f 497 509 502
f 489 529 513
f 508 514 486
f 482 517 506
f 491 438 426
f 476 497 481
f 507 498 471
f 484 492 498
f 481 504 488
f 499 426 393
f 527 515 509
f 531 489 500
f 506 526 482
f 514 516 429
f 509 476 518
f 402 502 415
f 474 473 503
f 537 483 511
f 499 532 504
f 530 478 480
f 524 516 506
f 517 524 506
f 489 523 505
f 518 525 531
f 519 486 513
f 516 514 508
f 476 509 497
f 502 509 515
f 521 481 497
f 510 494 476
f 488 520 510
f 478 484 493
f 491 504 481
f 492 503 473
f 496 530 480
f 494 510 511
f 478 512 487
f 525 518 494
f 489 513 500
f 519 472 501
f 394 514 429
f 522 486 514
f 527 536 515
f 508 506 516
f 451 516 405
f 494 518 476
f 531 500 527
f 501 526 519
f 529 528 472
f 537 520 479
f 475 520 488
f 516 451 429
f 402 521 502
f 491 521 438
f 394 522 514
f 486 495 513
f 530 505 523
f 525 512 523
f 528 505 496
f 487 492 484
f 483 503 487
f 533 524 517
f 512 525 494
f 523 531 525
f 501 482 526
f 519 526 508
f 440 522 394
f 500 536 527
f 518 527 509
f 505 528 529
f 467 534 460
f 505 529 489
f 478 530 523
f 505 530 496
f 518 531 527
f 532 485 504
f 534 524 533
f 490 534 533
f 524 534 405
f 460 490 4
f 472 519 529
f 534 467 405
f 474 537 535
f 522 536 495
f 415 502 515
f 440 536 522
f 535 537 479
f 520 537 511
f 440 515 536
