# 7.4.3 free-form shell (B5), 1.2 m, nine regions + 12 cables: best evaluation ms_863053_run_00821
# motif 5 (E_wale 12507, E_course 5000 N/m, nu 0.198), 1000 Pa, fixed solver; params optimisation/B5_1p2m_optimised_params.json
# interior RMSE 4.609 mm; distance to target surface mean 2.894 mm, max 10.643 mm (span 1200 mm)
v 0.51224181 0.20190818 0.03200656
v 0.54316174 0.25032328 0.00000000
v 0.48720962 0.25436521 0.03831902
v 0.37613240 0.32547586 0.07789217
v 0.34335063 0.37556202 0.07105172
v 0.31695803 0.32659085 0.09570210
v 0.30144693 0.46344004 0.03774814
v 0.35383442 0.48240423 0.00000000
v 0.30064778 0.51886291 0.00000000
v 0.25246449 0.48973852 0.03465014
v 0.31398408 -0.46607686 0.05180468
v 0.25526977 -0.45225358 0.07810800
v 0.25789644 -0.49592037 0.03848198
v 0.29997753 -0.42368956 0.10468451
v 0.24822604 -0.54417433 0.00000000
v 0.20137035 -0.52042235 0.02681038
v 0.20053590 -0.56720119 0.00000000
v 0.37100499 -0.43772137 0.04437597
v 0.34349980 -0.42354766 0.08196081
v 0.38442869 -0.39107740 0.08211277
v 0.42746489 -0.35250405 0.07314578
v 0.38636948 -0.34207952 0.11224968
v 0.51856199 -0.30127103 0.00000000
v 0.47327888 -0.31250204 0.04983696
v 0.48610788 -0.34918457 0.00000000
v 0.43196389 -0.30324000 0.09574979
v 0.41046780 -0.25026509 0.10088089
v 0.38580133 -0.29323298 0.12417027
v 0.41587360 -0.39982091 0.04199102
v -0.49184726 -0.26658992 0.03299278
v -0.54427772 -0.24801201 0.00000000
v -0.51484222 -0.30897487 0.00000000
v -0.43921087 -0.28439537 0.06140419
v -0.45968913 -0.23769134 0.05851244
v -0.46234428 -0.32413536 0.03250403
v -0.41956626 -0.38146538 0.03211951
v -0.44291485 -0.40341249 0.00000000
v -0.40630854 -0.44060814 0.00000000
v -0.47511853 -0.36298144 0.00000000
v -0.25957218 -0.48745972 0.03695234
v -0.24814629 -0.54421289 0.00000000
v -0.20090237 -0.52101850 0.02476509
v -0.53260913 0.16232808 0.03913740
v -0.48250633 0.19989363 0.04773647
v -0.52480339 0.20038899 0.02473762
v -0.56720119 0.20053590 0.00000000
v -0.60063100 0.01138557 0.00000000
v -0.56322394 0.04115334 0.03500198
v -0.59483533 0.07894536 0.00000000
v -0.50757748 -0.09723926 0.07234026
v -0.45309268 -0.10146022 0.10153524
v -0.47137216 -0.04804190 0.10014150
v -0.52771096 0.01715908 0.06557790
v -0.56273755 -0.01946522 0.03685803
v -0.52103824 -0.03997409 0.06968286
v -0.53873123 -0.15096914 0.03933358
v -0.50851029 -0.19968623 0.03672287
v -0.48350798 -0.15104909 0.07223450
v -0.20053590 -0.56720119 0.00000000
v -0.20146099 -0.47129754 0.04930403
v -0.31729008 -0.46869140 0.03070110
v -0.29724117 -0.43513382 0.05952464
v -0.36089251 -0.42335522 0.04150308
v 0.01295087 -0.60049674 0.00000000
v -0.02226752 -0.57585781 0.04358921
v -0.04707036 -0.59756976 0.00000000
v -0.02248421 -0.52043338 0.12461099
v 0.03063445 -0.52062982 0.12304236
v 0.00408310 -0.49097823 0.16951874
v -0.15300457 -0.54949474 0.03385235
v -0.08851657 -0.57010325 0.03826690
v -0.10878783 -0.53302483 0.07366437
v 0.09981572 -0.56421712 0.04168736
v 0.07461821 -0.59520654 0.00000000
v 0.14241788 -0.58238189 0.00000000
v 0.20173385 -0.46891727 0.05364883
v 0.17032194 -0.45235568 0.09881597
v 0.16435112 -0.50073898 0.06812689
v 0.06378108 -0.54338641 0.08169001
v 0.11757764 -0.52641314 0.07705005
v 0.59894467 0.03104293 0.00000000
v 0.56731454 0.04080317 0.06102122
v 0.57058646 -0.01808079 0.05955690
v 0.49816676 0.08925252 0.13479038
v 0.51183298 0.03732527 0.13863061
v 0.53664236 0.06640001 0.09814256
v 0.51080630 -0.01815792 0.14419353
v 0.46730344 -0.03684063 0.17838664
v 0.49338521 -0.07321608 0.14797785
v 0.56720119 -0.20053590 0.00000000
v 0.58084966 -0.14828385 0.00000000
v 0.55124658 -0.16405284 0.03327901
v 0.52489285 -0.20199144 0.02566725
v 0.54479655 -0.24693740 0.00000000
v 0.50078415 -0.25738029 0.03670415
v 0.47784353 -0.20270555 0.05212702
v 0.45897781 -0.25639997 0.07262862
v 0.00702341 0.56176173 0.03741077
v -0.05277868 0.55905567 0.03688499
v -0.02328948 0.52364656 0.06682635
v -0.12438617 0.51285240 0.05579503
v -0.07779496 0.51854854 0.06353842
v -0.10679105 0.55202977 0.03391776
v 0.00427863 0.48443387 0.09416599
v -0.05341816 0.47979924 0.09157393
v -0.02509716 0.43853416 0.11405050
v 0.03381746 0.52530049 0.06526466
v 0.06253238 0.48521005 0.08868279
v 0.09181170 0.52491430 0.05760793
v 0.12609731 0.55743815 0.02595124
v 0.20053590 0.56720119 0.00000000
v 0.11294199 0.59008111 0.00000000
v 0.15308664 0.52765214 0.03934839
v 0.20054106 0.51537406 0.02837876
v 0.24550543 0.54548796 0.00000000
v 0.20077728 0.46099022 0.05522831
v 0.25215614 0.43976779 0.06219019
v 0.30087410 0.41368662 0.06623962
v -0.54428168 0.24800380 0.00000000
v -0.49420511 0.25643028 0.02988480
v -0.46139036 0.30678165 0.03356321
v -0.47644493 0.36131619 0.00000000
v -0.51633543 0.30588230 0.00000000
v -0.36599945 0.34900351 0.06211484
v -0.40998701 0.30482123 0.05946373
v -0.35661738 0.29632164 0.08180085
v -0.32685279 0.43881260 0.03673091
v -0.38661390 0.45629508 0.00000000
v -0.37629341 0.39969701 0.03696899
v -0.42002084 0.35744708 0.03534707
v -0.43653331 0.41142442 0.00000000
v -0.28588431 0.47321523 0.03137593
v -0.29056591 0.52373085 0.00000000
v -0.33907023 0.49416402 0.00000000
v -0.26290889 0.42350103 0.06003956
v -0.23895308 0.46854566 0.04284705
v -0.20053590 0.56720119 0.00000000
v -0.16211692 0.53516436 0.03103726
v -0.14927722 0.58059016 0.00000000
v 0.47118480 0.13493967 0.12323661
v 0.43686718 0.17300411 0.10628645
v 0.41360370 0.13995485 0.14983104
v 0.52048619 0.11925930 0.08892795
v 0.46431926 0.30217915 0.03968280
v 0.43733766 0.25262151 0.06680953
v 0.45743411 0.20274061 0.05978636
v 0.29444134 0.36801100 0.08694147
v 0.33504342 0.27401539 0.10329965
v 0.38500468 0.25919288 0.08906026
v 0.24953249 0.38716086 0.08572407
v 0.20091001 0.40904882 0.07725932
v 0.16556721 0.48624408 0.05895588
v 0.25196761 0.13769118 0.15272007
v 0.20153149 0.15629281 0.14167890
v 0.19993896 0.10600328 0.14982546
v 0.24915768 0.19818685 0.12542068
v 0.20193784 0.24415272 0.12535231
v 0.20317551 0.19472005 0.13447566
v 0.29251319 0.23721604 0.11643100
v 0.29653125 0.20028155 0.11528138
v 0.34238098 0.20188415 0.10294001
v 0.40097408 0.20268583 0.08355411
v 0.25591286 0.33590667 0.10239350
v 0.27660517 0.28872431 0.11246141
v 0.37506785 0.17286309 0.12848435
v 0.35286061 0.13291461 0.16681317
v 0.20138638 0.29583401 0.11361568
v 0.20116245 0.34939537 0.09834191
v 0.15055631 0.24527120 0.14113712
v 0.11887063 0.29710442 0.14148055
v 0.09392907 0.24646334 0.15089757
v 0.16997519 0.29743018 0.12644592
v 0.16443723 0.38859496 0.10250213
v 0.14476934 0.34584077 0.12343590
v 0.11751344 0.39486421 0.11710045
v 0.09051443 0.34677290 0.13728932
v 0.29011560 -0.36477186 0.13099093
v 0.24743694 -0.39948923 0.10631056
v 0.20161833 -0.41676044 0.07679097
v 0.33271706 -0.31488964 0.13480806
v 0.34255321 -0.37915060 0.11878106
v 0.35619247 -0.25296486 0.12277946
v 0.30104330 -0.25710763 0.13333716
v 0.26921172 -0.30791903 0.13434853
v 0.24110672 -0.34865511 0.12059151
v 0.43251140 -0.20299050 0.07309150
v 0.38183126 -0.20331829 0.09379308
v 0.42539623 -0.16932979 0.11882776
v 0.48033780 -0.16214666 0.09485496
v 0.46350270 -0.12539527 0.13824173
v 0.36946064 -0.17145008 0.13591928
v 0.40934280 -0.13281508 0.15954828
v 0.35318700 -0.13373216 0.17125747
v 0.16807330 -0.34297942 0.14085908
v 0.13214237 -0.37947260 0.16466822
v 0.17099860 -0.39937448 0.12334573
v 0.12376509 -0.31964427 0.17477779
v 0.15686989 -0.23782915 0.14928612
v 0.15791868 -0.20269808 0.14519961
v 0.11891157 -0.20172119 0.15125655
v 0.10715719 -0.25538698 0.17120317
v 0.20249842 -0.25900790 0.12605723
v 0.16035453 -0.28832096 0.15090903
v 0.20227042 -0.30542453 0.11490506
v 0.24377059 -0.25761237 0.13145177
v 0.32681426 -0.20369499 0.11096490
v 0.27272553 -0.20395903 0.12434810
v 0.29653154 -0.12375430 0.17654847
v 0.33588259 -0.09273668 0.19626087
v 0.25501100 -0.15572107 0.15209542
v 0.31135171 -0.16822211 0.14711184
v 0.38744067 -0.09235220 0.19770232
v -0.42693813 -0.15079612 0.09894116
v -0.44643296 -0.19936448 0.06935412
v -0.39480212 -0.19917405 0.09087335
v -0.39661343 -0.10393755 0.12394694
v -0.40196940 -0.24210387 0.08644087
v -0.38799897 -0.30262183 0.08104651
v -0.41835854 -0.33320344 0.05568596
v -0.37679976 -0.36370883 0.06472488
v -0.34141678 -0.32926451 0.09041432
v -0.32625028 -0.38638304 0.07442074
v -0.29690953 -0.35125921 0.09434092
v -0.29810029 -0.30299587 0.10748768
v -0.26759216 -0.39069189 0.08466649
v -0.20170248 -0.37877342 0.08686477
v -0.24996922 -0.34026520 0.10261690
v -0.24002416 -0.43436676 0.06777828
v -0.20187079 -0.42490147 0.06922835
v -0.12476431 -0.39334668 0.16290656
v -0.13055738 -0.44600677 0.13715618
v -0.08131395 -0.43829805 0.17126132
v -0.16618779 -0.46159914 0.09346145
v -0.34357066 -0.19971308 0.10727033
v -0.33985901 -0.10706381 0.13814546
v -0.31471390 -0.15623867 0.13012738
v -0.28549060 -0.11162877 0.14526584
v -0.36992061 -0.15340920 0.11794074
v -0.28455856 -0.19953634 0.12068886
v -0.23632087 -0.11790690 0.14531323
v -0.19755945 -0.14947816 0.13914918
v -0.19728107 -0.09558759 0.14470912
v -0.25785678 -0.15548065 0.13763096
v -0.29721819 -0.24893183 0.11634185
v -0.24406712 -0.23589688 0.12440165
v -0.34723511 -0.26904879 0.10227679
v -0.20123356 -0.31932152 0.10505893
v -0.19997855 -0.26392136 0.11892788
v -0.24826173 -0.28685506 0.11605313
v -0.16888681 -0.35946550 0.13087337
v -0.13651635 -0.33941361 0.16116547
v -0.11750237 -0.29129615 0.17048789
v -0.16401465 -0.30097763 0.14100034
v -0.14498891 -0.24442630 0.14558877
v -0.39786275 0.25134641 0.07748193
v -0.34693818 0.24479903 0.09553000
v -0.44797609 0.25513580 0.05505551
v -0.38193948 0.19973590 0.08965921
v -0.32817881 0.19946199 0.10529828
v -0.30226085 0.28109008 0.09969949
v -0.30874386 0.33352739 0.08412934
v -0.25732187 0.36538576 0.08271061
v -0.31667950 0.38728602 0.06314310
v -0.29845215 0.23494123 0.10865964
v -0.36792886 0.15166568 0.11492184
v -0.40764409 0.10446188 0.11723248
v -0.35321994 0.10090097 0.13401950
v -0.47458949 0.15717786 0.07155214
v -0.43301253 0.20006340 0.07042683
v -0.45920138 0.10862813 0.09447452
v -0.50856566 0.11302105 0.06648703
v -0.42158697 0.15427375 0.09600940
v -0.25125904 0.25114634 0.11406986
v -0.25243595 0.30801118 0.10072507
v -0.19929681 0.33460561 0.09519152
v -0.19966359 0.39233167 0.07642315
v -0.19691906 0.19902767 0.12806563
v -0.19842154 0.27494309 0.11141359
v -0.25288743 0.14466915 0.13681138
v -0.29698705 0.09783876 0.14435805
v -0.24329011 0.08877795 0.14766471
v -0.31064853 0.14956432 0.12867842
v -0.27096244 0.19893456 0.11762866
v -0.19995437 0.44464741 0.05644182
v -0.20001568 0.50768999 0.02890652
v -0.14821120 0.42622936 0.08951693
v -0.15818857 0.30840511 0.12052700
v -0.12222612 0.34005292 0.12543521
v -0.15881006 0.36750011 0.10497241
v -0.14605387 0.24862803 0.13424965
v -0.08449573 0.24621801 0.14797064
v -0.11167001 0.19911856 0.14403115
v -0.23543518 0.03642372 0.15205781
v -0.28304295 0.04093280 0.15285085
v -0.25575788 -0.01563668 0.15527277
v -0.19715531 0.06440190 0.14526940
v -0.19703762 0.12324454 0.13958995
v -0.33821578 0.04670484 0.14601750
v -0.31957538 -0.00776901 0.15198439
v -0.15800352 0.15594040 0.14930604
v -0.15420298 0.19913778 0.13670693
v -0.15359624 0.03010633 0.17338857
v -0.19710790 0.00454104 0.14799185
v -0.10821688 -0.00584635 0.19617935
v -0.10741186 0.05106442 0.19117739
v -0.14960026 0.09404525 0.16735189
v -0.24796094 -0.07148538 0.15165015
v -0.30219002 -0.06009292 0.15094603
v -0.19736832 -0.04821235 0.14726150
v -0.36017480 -0.05549309 0.14166589
v -0.37818736 -0.00270939 0.14058765
v -0.15808745 -0.09333258 0.16581481
v -0.15461054 -0.03023838 0.17374232
v -0.13615010 -0.15067653 0.16156843
v -0.15537515 -0.20054380 0.14103981
v -0.10536498 -0.19998805 0.14977683
v -0.10781512 -0.11296269 0.18145622
v -0.10772409 -0.06357003 0.19109275
v -0.44574584 0.05579941 0.11097775
v -0.49261001 0.06158510 0.08551402
v -0.53067448 0.06799493 0.05864517
v -0.48373400 0.00694939 0.09589736
v -0.39357356 0.05137488 0.13180095
v -0.43310930 0.00149006 0.12092064
v -0.41711396 -0.05206328 0.12451968
v -0.05293389 -0.34366697 0.20391020
v -0.01635675 -0.31186582 0.20792812
v -0.06615207 -0.29290798 0.19403356
v -0.02098120 -0.25057840 0.18525661
v -0.09796812 -0.34374710 0.18775118
v -0.08409803 -0.24498925 0.17006327
v -0.04850011 -0.19974849 0.15573353
v 0.00793026 -0.20002392 0.15858150
v -0.02252213 -0.15456807 0.18188249
v 0.03620321 -0.15661372 0.18179521
v 0.00707928 -0.10920336 0.20214641
v -0.07507624 -0.51350155 0.11673163
v -0.04828442 -0.48371566 0.16221882
v -0.09679459 -0.48116423 0.14737813
v -0.01342928 -0.37466337 0.21304671
v -0.06740734 -0.39297171 0.19550916
v -0.01867638 -0.43498725 0.19233244
v 0.03380388 -0.33977931 0.20907908
v 0.04393336 -0.24555191 0.18108970
v 0.06782859 -0.20065575 0.15622709
v 0.09403497 -0.15525239 0.17652900
v 0.06498123 -0.10815020 0.19808775
v 0.12066089 -0.10449268 0.18712618
v 0.04232780 -0.45000465 0.18286281
v 0.03746405 -0.39900254 0.20433360
v 0.05189614 -0.49082604 0.15460970
v 0.20057270 -0.13022991 0.14927518
v 0.19945210 -0.07092523 0.15521649
v 0.16550857 -0.10191132 0.17047629
v 0.15254722 -0.04699686 0.18346935
v 0.15194053 -0.15524132 0.16363896
v 0.10437564 0.14591010 0.17205736
v 0.14392740 0.08789610 0.17886575
v 0.15939291 0.14703613 0.15736720
v 0.19924481 0.05001667 0.15526681
v 0.24406177 0.08100664 0.17415013
v 0.24132030 0.01983126 0.18386909
v 0.19908846 -0.01067888 0.15773175
v 0.24228146 -0.04090348 0.18362643
v 0.33777107 0.08216747 0.19684793
v 0.33617277 0.02173797 0.21360350
v 0.37572798 0.05386067 0.20624167
v 0.28828963 0.05194273 0.19851708
v 0.29568828 0.11286456 0.17759388
v 0.42262404 0.05539347 0.19549162
v 0.39330884 0.10136940 0.18869639
v 0.34918342 -0.04060994 0.21241312
v 0.39139869 0.00647726 0.21972460
v 0.28895532 -0.01076776 0.20947577
v 0.24563930 -0.10090385 0.17274165
v 0.29138652 -0.06863265 0.19807947
v 0.09380488 -0.05668624 0.20291610
v 0.11584117 -0.00928570 0.20004093
v 0.06404220 -0.00541789 0.21349611
v 0.15491182 0.02079648 0.18259346
v 0.44334732 0.00721823 0.19699817
v 0.47068706 0.05338228 0.17109703
v 0.48850416 0.00954460 0.17509066
v 0.44218969 -0.08689604 0.17590917
v 0.41370931 -0.04252734 0.20252280
v -0.09442713 0.10434344 0.18522457
v -0.06205036 0.06761131 0.20057070
v -0.01343626 0.05610441 0.21014467
v -0.03864377 0.10940963 0.19399540
v -0.07279248 0.15398612 0.17099739
v -0.01463957 0.15441636 0.17716208
v 0.00989966 0.19882549 0.15345832
v 0.04534971 0.15066535 0.17820994
v -0.05109129 0.19918991 0.15073140
v -0.02298503 0.24597646 0.15480811
v 0.00671328 0.29589351 0.15376484
v -0.05090463 0.29415876 0.14959602
v -0.02175567 0.34450819 0.14397367
v 0.01841776 0.10437817 0.19935870
v 0.04241284 0.04857972 0.21089288
v 0.10203223 0.04322954 0.20070064
v 0.07892990 0.09796995 0.19501143
v 0.06921999 0.19851985 0.15156715
v 0.12686416 0.19767641 0.14617386
v 0.03671180 0.24662749 0.15554014
v 0.06376752 0.29702717 0.15052411
v 0.03679592 -0.05718836 0.21201024
v -0.05722005 0.01896560 0.20938512
v 0.00078019 -0.00453649 0.22038588
v -0.05736164 -0.03691283 0.20849850
v -0.01407166 -0.06157554 0.21093329
v -0.10704278 0.29451792 0.13903633
v -0.05215172 0.39152934 0.12889196
v 0.00523287 0.39437214 0.13304134
v -0.07588110 0.34230494 0.13697458
v 0.03465271 0.34624319 0.14414277
v 0.06244023 0.39550321 0.12835159
v -0.08501775 0.43358367 0.10667388
v 0.03352872 0.44112186 0.11333811
v -0.10990899 0.47381041 0.08227550
v 0.09204942 0.44159866 0.10480273
v 0.15181314 0.43930631 0.08794131
v 0.53467319 -0.04664546 0.10851363
v 0.54324992 0.01018981 0.10193550
v -0.05200463 -0.54676658 0.08064025
v 0.51201821 -0.17328523 0.05823293
v 0.52956387 -0.13194030 0.07173477
v 0.55121514 -0.07691719 0.07467043
v 0.51183208 -0.10600271 0.11071465
v 0.15767779 -0.54624407 0.03491929
v 0.00628475 -0.54985306 0.08370007
v 0.30622678 -0.51616910 0.00000000
v 0.45257120 -0.36182171 0.03582129
v 0.06410583 0.56172339 0.03350058
v -0.55743878 -0.08570012 0.03619896
v -0.08456793 0.59435298 0.00000000
v -0.55287877 0.10514115 0.03566714
v -0.24617880 0.50312104 0.02442763
v -0.30509597 -0.51671513 0.00000000
v 0.30913473 0.16532099 0.14151096
v 0.20287365 -0.20419209 0.13676958
v -0.12007443 0.14158733 0.16501248
v -0.10859582 0.38698203 0.11788095
v 0.11943315 0.48521973 0.07613296
v -0.56720119 -0.20053590 0.00000000
v 0.35107493 0.42772120 0.04049417
v 0.09380373 -0.46728532 0.15614988
v 0.08373415 -0.50904455 0.11896433
v 0.44798853 0.10053601 0.16570979
v 0.35746575 -0.47951184 0.00000000
v -0.36086435 -0.47680483 0.00000000
v 0.39113183 0.38741005 0.04408655
v -0.16009039 -0.50690786 0.06394775
v 0.07414429 -0.29871562 0.19560495
v -0.07856340 -0.15437375 0.17458688
v -0.05502791 -0.10074360 0.19819264
v -0.15971042 0.48099585 0.06046848
v -0.19751782 -0.20117325 0.13179610
v 0.56631822 -0.11152059 0.03949803
v 0.57820635 -0.06135552 0.03740889
v 0.04126849 0.59806748 0.00000000
v -0.59753637 -0.04745932 0.00000000
v 0.54757857 0.15088285 0.04223520
v 0.57901169 0.15532026 0.00000000
v 0.56720119 0.20053590 0.00000000
v 0.20188091 -0.36368059 0.09705366
v 0.13461397 -0.43442972 0.14350906
v 0.13039177 -0.48449618 0.11356721
v -0.58042183 0.14992176 0.00000000
v 0.44855117 -0.39633623 0.00000000
v 0.09060275 -0.41645194 0.18097938
v -0.02453162 0.59950326 0.00000000
v 0.02308430 -0.28578322 0.20202284
v -0.23337804 -0.19994424 0.12830213
v 0.40116375 0.44470601 0.00000000
v -0.12521069 -0.49337446 0.10618778
v 0.51701880 0.30446698 0.00000000
v -0.16731473 -0.41068851 0.11771347
v 0.49439441 0.16555210 0.07722098
v 0.59883921 -0.03227238 0.00000000
v 0.08523165 -0.35951978 0.19499213
v 0.40537501 -0.44135168 0.00000000
v 0.24462469 0.25155223 0.12147625
v 0.03942884 -0.57438575 0.04359489
v 0.44392128 0.40214894 0.00000000
v -0.14503678 -0.58169782 0.00000000
v 0.42798130 0.34535248 0.04398961
v -0.58116746 -0.14706722 0.00000000
v 0.48390289 0.35195288 0.00000000
v 0.55945488 0.09522947 0.05532179
v 0.59409102 -0.08762157 0.00000000
v 0.59281761 0.10246549 0.00000000
v 0.41913984 0.29873731 0.06691059
v -0.23263474 0.55170252 0.00000000
v -0.59345709 -0.09501126 0.00000000
v 0.58103925 0.06930355 0.02962969
v -0.09404078 -0.59354034 0.00000000
f 1 2 3
f 4 5 6
f 7 8 9
f 10 7 9
f 11 12 13
f 14 12 11
f 15 16 17
f 11 18 19
f 20 21 22
f 23 24 25
f 26 27 28
f 29 20 18
f 30 31 32
f 30 33 34
f 33 30 35
f 36 37 38
f 32 39 35
f 40 41 42
f 43 44 45
f 43 45 46
f 47 48 49
f 50 51 52
f 53 54 55
f 56 57 58
f 42 41 59
f 60 40 42
f 61 62 63
f 64 65 66
f 67 68 69
f 70 71 72
f 73 74 75
f 76 77 78
f 79 73 80
f 81 82 83
f 84 85 86
f 87 88 89
f 90 91 92
f 92 93 90
f 93 94 90
f 95 96 97
f 98 99 100
f 101 102 103
f 104 105 106
f 107 108 109
f 108 107 104
f 110 111 112
f 111 113 114
f 114 115 111
f 10 114 116
f 116 117 10
f 118 7 117
f 119 45 120
f 121 122 123
f 124 125 126
f 127 128 129
f 130 129 131
f 132 133 134
f 132 135 136
f 137 138 139
f 140 141 142
f 143 140 84
f 144 145 3
f 145 146 3
f 147 6 5
f 148 149 4
f 147 118 150
f 118 117 150
f 117 151 150
f 114 152 116
f 153 154 155
f 156 157 158
f 159 156 160
f 149 161 162
f 6 163 164
f 164 148 6
f 142 141 165
f 165 166 142
f 163 147 150
f 167 163 168
f 169 170 171
f 170 169 172
f 172 157 167
f 173 168 151
f 174 175 176
f 174 173 175
f 168 172 167
f 177 178 14
f 76 12 179
f 22 180 181
f 180 182 183
f 177 184 185
f 26 97 27
f 27 186 187
f 188 189 190
f 191 192 193
f 96 189 186
f 194 195 196
f 195 194 197
f 198 199 200
f 200 201 198
f 202 203 204
f 205 204 184
f 183 206 207
f 180 183 184
f 208 193 209
f 210 207 211
f 187 191 206
f 209 193 212
f 213 214 215
f 213 216 51
f 58 214 213
f 217 34 33
f 34 214 57
f 218 219 220
f 221 222 223
f 224 221 223
f 225 226 227
f 226 228 229
f 228 225 62
f 230 231 232
f 60 233 229
f 217 234 215
f 214 217 215
f 235 236 237
f 238 235 216
f 238 215 234
f 236 234 239
f 240 241 242
f 243 240 237
f 239 244 245
f 221 224 246
f 223 225 227
f 247 248 249
f 226 250 247
f 230 251 250
f 252 253 251
f 248 253 254
f 126 255 256
f 121 257 125
f 255 258 256
f 256 258 259
f 260 126 256
f 126 260 261
f 261 262 263
f 261 124 126
f 264 256 259
f 265 266 267
f 259 258 265
f 268 269 44
f 270 268 271
f 272 265 258
f 261 263 124
f 127 263 135
f 260 273 274
f 275 276 262
f 261 274 262
f 273 277 278
f 275 274 278
f 279 280 281
f 280 279 282
f 282 283 259
f 136 284 285
f 276 286 284
f 275 278 287
f 287 288 289
f 290 278 277
f 291 290 292
f 293 294 295
f 281 296 297
f 296 281 293
f 280 267 298
f 294 299 295
f 298 294 280
f 300 301 277
f 302 296 303
f 302 304 305
f 296 306 297
f 307 308 237
f 295 309 303
f 295 303 293
f 310 299 311
f 299 310 308
f 308 235 237
f 312 313 309
f 303 313 302
f 314 315 316
f 312 317 318
f 266 270 319
f 320 271 321
f 322 319 320
f 298 323 311
f 311 324 325
f 325 52 51
f 216 325 51
f 326 327 328
f 328 327 329
f 328 330 326
f 331 332 316
f 332 331 329
f 332 333 334
f 335 336 334
f 314 317 312
f 337 338 339
f 340 341 342
f 340 343 327
f 344 345 333
f 329 344 333
f 345 346 335
f 347 346 348
f 342 349 350
f 349 69 351
f 352 353 354
f 354 353 355
f 200 356 346
f 357 358 359
f 360 361 155
f 362 360 363
f 364 363 353
f 365 366 367
f 361 368 369
f 370 371 367
f 372 373 366
f 372 366 374
f 362 374 368
f 353 375 364
f 374 364 376
f 377 378 379
f 380 378 355
f 355 363 380
f 373 367 366
f 373 381 370
f 382 383 85
f 381 382 370
f 384 385 212
f 386 305 387
f 388 389 387
f 390 389 391
f 392 391 393
f 292 390 394
f 389 390 386
f 395 394 392
f 395 396 397
f 398 397 396
f 397 291 395
f 389 388 399
f 400 401 402
f 402 393 399
f 357 403 393
f 171 403 404
f 171 405 403
f 176 406 170
f 396 405 406
f 407 336 347
f 388 408 409
f 410 411 409
f 291 397 412
f 413 398 414
f 398 413 415
f 415 288 412
f 406 176 416
f 416 417 414
f 416 398 396
f 418 413 106
f 414 419 106
f 420 418 105
f 421 417 175
f 175 422 421
f 423 83 424
f 424 87 423
f 425 71 65
f 426 427 189
f 428 429 427
f 80 430 78
f 431 67 425
f 165 141 162
f 192 384 212
f 196 77 179
f 322 53 55
f 11 13 432
f 19 14 11
f 29 433 21
f 434 109 110
f 435 56 50
f 103 99 436
f 437 48 321
f 122 130 131
f 438 136 285
f 439 40 61
f 153 369 440
f 440 160 156
f 376 208 209
f 210 441 207
f 203 201 197
f 389 399 391
f 357 359 404
f 306 305 386
f 306 442 300
f 289 288 443
f 272 266 265
f 346 345 200
f 238 213 215
f 422 173 151
f 412 290 291
f 287 289 275
f 282 279 283
f 282 265 267
f 236 238 234
f 172 169 157
f 172 174 170
f 16 13 76
f 16 430 17
f 93 95 94
f 93 426 96
f 114 10 115
f 152 113 444
f 31 57 445
f 154 156 158
f 316 254 331
f 241 314 312
f 162 145 149
f 352 210 375
f 352 354 356
f 44 43 268
f 120 45 44
f 135 284 136
f 446 118 5
f 218 220 221
f 125 124 130
f 299 308 295
f 299 298 311
f 398 415 397
f 398 416 414
f 340 326 341
f 373 372 385
f 366 368 374
f 261 260 274
f 163 6 147
f 246 218 221
f 184 177 180
f 88 383 381
f 447 351 448
f 424 85 87
f 370 382 449
f 338 67 69
f 128 127 134
f 18 11 450
f 451 63 38
f 5 452 446
f 115 10 9
f 31 30 57
f 94 95 23
f 419 108 104
f 270 320 319
f 189 96 426
f 231 339 232
f 453 60 42
f 21 26 22
f 208 210 211
f 369 166 440
f 369 365 166
f 344 454 201
f 386 442 306
f 113 152 114
f 455 314 316
f 317 456 318
f 457 420 101
f 284 457 285
f 57 56 445
f 305 306 302
f 305 304 408
f 331 328 329
f 254 315 458
f 377 379 407
f 348 377 347
f 378 401 379
f 201 200 345
f 459 460 428
f 67 431 68
f 267 280 282
f 267 266 323
f 176 170 174
f 176 175 417
f 461 434 112
f 54 462 435
f 310 216 235
f 310 311 325
f 413 414 106
f 413 443 415
f 290 412 287
f 291 292 394
f 281 280 294
f 307 242 309
f 243 237 236
f 171 170 406
f 463 464 465
f 138 103 139
f 360 362 361
f 360 358 380
f 179 178 466
f 77 467 468
f 269 272 258
f 269 257 44
f 168 163 150
f 168 174 172
f 234 244 239
f 187 182 27
f 211 207 206
f 275 262 274
f 440 161 160
f 161 148 159
f 247 253 248
f 283 279 277
f 264 283 273
f 202 205 441
f 202 198 203
f 46 469 43
f 62 40 228
f 219 218 33
f 357 402 358
f 347 377 407
f 374 376 372
f 433 470 25
f 13 16 15
f 192 191 188
f 253 252 254
f 471 349 447
f 425 65 431
f 79 448 68
f 268 272 269
f 43 271 268
f 389 386 387
f 7 10 117
f 7 446 8
f 35 219 33
f 35 30 32
f 92 91 459
f 92 426 93
f 456 336 411
f 456 317 455
f 375 376 364
f 353 352 375
f 429 423 89
f 87 383 88
f 418 443 413
f 325 216 310
f 1 463 465
f 3 146 1
f 358 155 359
f 366 365 368
f 99 98 472
f 49 437 469
f 473 344 329
f 343 454 473
f 352 356 441
f 306 300 297
f 279 281 297
f 457 138 285
f 409 400 388
f 409 407 379
f 241 312 242
f 241 243 474
f 359 158 404
f 404 169 171
f 323 319 324
f 323 298 267
f 294 293 281
f 294 298 299
f 177 14 181
f 19 181 14
f 406 416 396
f 406 405 171
f 332 329 333
f 334 455 332
f 394 395 291
f 69 342 338
f 27 97 186
f 186 188 187
f 4 452 5
f 116 422 151
f 34 217 214
f 214 58 57
f 121 130 122
f 185 204 466
f 194 204 203
f 259 265 282
f 308 307 295
f 452 475 446
f 219 36 220
f 476 337 339
f 337 72 425
f 129 124 263
f 16 76 78
f 55 52 322
f 55 54 435
f 244 246 224
f 11 432 450
f 477 3 2
f 61 451 439
f 250 251 253
f 478 231 230
f 109 444 113
f 367 373 370
f 12 178 179
f 12 76 13
f 302 313 304
f 427 426 92
f 463 479 143
f 101 420 102
f 161 440 165
f 460 480 83
f 227 226 247
f 364 374 362
f 342 232 338
f 339 231 476
f 270 272 268
f 266 319 323
f 385 88 381
f 212 372 209
f 350 481 343
f 384 88 385
f 330 328 252
f 327 326 340
f 97 24 95
f 388 387 408
f 400 399 388
f 361 153 155
f 351 68 448
f 80 78 468
f 104 106 419
f 100 102 105
f 336 407 411
f 417 416 176
f 417 419 414
f 296 302 306
f 296 293 303
f 363 364 362
f 345 344 201
f 345 335 333
f 393 403 392
f 403 405 392
f 63 62 222
f 479 141 140
f 145 162 146
f 135 263 262
f 84 449 382
f 420 457 286
f 284 135 276
f 18 450 482
f 18 20 19
f 235 238 236
f 235 308 310
f 288 415 443
f 288 287 412
f 393 402 357
f 278 290 287
f 34 57 30
f 483 164 167
f 157 169 158
f 245 474 239
f 239 243 236
f 430 73 75
f 74 73 484
f 86 424 82
f 257 121 120
f 257 269 255
f 218 217 33
f 54 53 48
f 54 47 462
f 461 472 98
f 107 98 100
f 125 130 121
f 466 178 185
f 371 449 142
f 258 255 269
f 434 461 98
f 452 485 475
f 437 321 271
f 318 456 410
f 166 371 142
f 365 369 368
f 165 162 161
f 211 206 191
f 204 194 466
f 454 344 473
f 13 15 432
f 402 401 358
f 103 436 139
f 313 318 304
f 309 242 312
f 253 247 250
f 467 195 471
f 330 341 326
f 65 64 484
f 411 410 456
f 411 407 409
f 397 415 412
f 309 295 307
f 419 417 421
f 324 311 323
f 52 324 322
f 329 327 473
f 229 478 226
f 229 228 60
f 230 250 478
f 24 433 25
f 29 18 482
f 481 350 471
f 156 153 440
f 59 486 70
f 233 453 476
f 423 428 83
f 190 429 89
f 452 4 487
f 208 375 210
f 209 372 376
f 264 260 256
f 264 259 283
f 204 205 202
f 151 168 150
f 105 104 100
f 20 22 181
f 48 47 54
f 371 370 449
f 182 187 206
f 118 446 7
f 435 50 55
f 56 488 445
f 63 451 61
f 220 36 63
f 444 421 422
f 401 400 379
f 140 449 84
f 143 479 140
f 477 489 144
f 143 86 490
f 369 153 361
f 221 220 222
f 130 124 129
f 234 246 244
f 382 381 383
f 95 24 23
f 141 146 162
f 274 273 278
f 205 183 207
f 460 491 480
f 408 387 305
f 408 410 409
f 181 19 20
f 405 395 392
f 330 230 341
f 195 481 471
f 448 468 447
f 223 222 225
f 193 211 191
f 104 107 100
f 422 116 152
f 483 159 164
f 58 213 51
f 262 276 135
f 99 102 100
f 102 420 105
f 71 425 72
f 71 70 486
f 437 49 48
f 469 437 43
f 481 197 454
f 391 392 394
f 391 399 393
f 334 336 456
f 334 333 335
f 381 373 385
f 129 128 131
f 427 92 459
f 371 166 365
f 138 101 103
f 138 137 285
f 97 96 186
f 118 147 5
f 255 126 125
f 490 492 463
f 86 82 490
f 188 186 189
f 191 187 188
f 112 434 110
f 484 79 431
f 430 80 73
f 193 208 211
f 233 231 478
f 233 60 453
f 179 466 196
f 467 196 195
f 108 419 421
f 403 357 404
f 245 249 248
f 254 252 331
f 40 62 61
f 53 320 321
f 335 346 347
f 123 120 121
f 431 79 68
f 102 99 103
f 99 472 436
f 349 351 447
f 58 50 56
f 273 260 264
f 355 353 363
f 135 132 127
f 127 132 134
f 348 346 356
f 340 342 350
f 148 4 6
f 149 148 161
f 190 189 429
f 384 192 190
f 383 87 85
f 382 85 84
f 232 342 341
f 107 434 98
f 96 95 93
f 29 21 20
f 141 479 146
f 140 142 449
f 180 177 181
f 180 22 28
f 53 322 320
f 423 87 89
f 423 429 428
f 430 16 78
f 424 86 85
f 165 440 166
f 208 376 375
f 67 337 425
f 45 119 46
f 354 355 348
f 252 251 330
f 69 68 351
f 448 79 80
f 286 443 418
f 217 218 246
f 442 386 390
f 317 314 455
f 367 371 365
f 227 249 224
f 182 180 28
f 69 349 342
f 149 493 4
f 341 230 232
f 343 481 454
f 478 229 233
f 478 250 226
f 444 422 152
f 380 363 360
f 380 358 401
f 244 224 249
f 246 234 217
f 50 52 55
f 304 410 408
f 427 459 428
f 379 400 409
f 481 195 197
f 145 493 149
f 399 400 402
f 384 190 89
f 88 384 89
f 266 272 270
f 40 60 228
f 72 476 453
f 72 453 70
f 251 230 330
f 178 177 185
f 143 490 463
f 26 28 22
f 24 26 21
f 36 38 63
f 35 36 219
f 50 58 51
f 318 410 304
f 421 444 108
f 184 204 185
f 189 427 429
f 63 222 220
f 276 289 286
f 483 157 156
f 483 167 157
f 224 223 227
f 377 348 355
f 358 360 155
f 77 468 78
f 77 76 179
f 12 14 178
f 338 232 339
f 319 322 324
f 320 270 271
f 231 233 476
f 313 312 318
f 313 303 309
f 437 271 43
f 183 182 206
f 183 205 184
f 28 27 182
f 257 120 44
f 257 255 125
f 201 203 198
f 197 201 454
f 73 79 484
f 97 26 24
f 225 228 226
f 225 222 62
f 109 108 444
f 109 434 107
f 116 151 117
f 390 391 394
f 390 292 442
f 455 334 456
f 455 316 332
f 145 144 493
f 35 39 36
f 418 106 105
f 418 420 286
f 216 213 238
f 48 53 321
f 192 212 193
f 192 188 190
f 289 443 286
f 289 276 275
f 40 439 41
f 378 380 401
f 378 377 355
f 337 67 338
f 337 476 72
f 368 361 362
f 343 473 327
f 343 340 350
f 161 159 160
f 129 263 127
f 493 487 4
f 487 493 144
f 143 84 86
f 113 110 109
f 328 331 252
f 335 347 336
f 457 101 138
f 457 284 286
f 468 467 447
f 468 448 80
f 356 354 348
f 372 212 385
f 471 447 467
f 471 350 349
f 120 123 119
f 479 1 146
f 65 71 66
f 65 484 431
f 315 241 458
f 430 75 17
f 248 254 458
f 446 475 8
f 395 405 396
f 300 442 292
f 154 153 156
f 154 359 155
f 479 463 1
f 438 494 133
f 491 459 91
f 307 240 242
f 74 484 64
f 56 435 488
f 77 196 467
f 441 205 207
f 441 210 352
f 37 36 39
f 133 132 438
f 324 52 325
f 194 196 466
f 194 203 197
f 458 245 248
f 438 132 136
f 273 283 277
f 435 495 488
f 42 70 453
f 173 174 168
f 173 422 175
f 249 245 244
f 249 227 247
f 460 459 491
f 83 428 460
f 159 483 156
f 159 148 164
f 144 489 487
f 1 465 2
f 59 70 42
f 452 487 485
f 297 300 277
f 490 496 492
f 315 254 316
f 315 314 241
f 441 198 202
f 464 463 492
f 82 424 83
f 240 307 237
f 240 243 241
f 495 435 462
f 3 477 144
f 487 489 485
f 470 29 482
f 81 496 82
f 433 29 470
f 433 24 21
f 71 497 66
f 164 163 167
f 494 285 137
f 290 301 292
f 241 474 458
f 356 199 441
f 81 83 480
f 111 110 113
f 279 297 277
f 497 71 486
f 158 359 154
f 158 169 404
f 496 81 492
f 496 490 82
f 494 438 285
f 301 300 292
f 301 290 277
f 474 245 458
f 474 243 239
f 199 198 441
f 199 356 200
