# 7.4.5 shell with opening (Shell with opening (7.4.5), symmetric, warm-started): best evaluation d5_sym_pfix_00117
# motif 5 (E_wale 12507, E_course 5000 N/m, nu 0.198), 1000 Pa, fixed solver
# distance to target surface mean 2.576 mm, max 9.310 mm (span 1200 mm); opening edge pinned
v 0.60763139 -0.01585658 0.00000000
v 0.56069916 -0.23469938 0.00000000
v 0.57034477 -0.11831549 0.02717770
v 0.54051358 0.07352612 0.06111953
v 0.52819291 -0.02926881 0.07675561
v 0.52262894 -0.24276659 0.03237357
v 0.51904791 -0.10855103 0.07509894
v 0.47492537 0.17401183 0.09170922
v 0.49397816 0.06364668 0.09947849
v 0.47614175 -0.02596490 0.11553650
v 0.48550911 -0.31943219 0.02697170
v 0.46384928 0.30431143 0.04888776
v 0.45687601 -0.24014214 0.08431717
v 0.42920539 0.14786747 0.12718803
v 0.44960040 -0.32010671 0.05321427
v 0.41720343 -0.44205052 0.00000000
v 0.43580967 0.42371842 0.00000000
v 0.42062270 -0.25080068 0.10249914
v 0.38388059 -0.35356199 0.07458140
v 0.38850515 -0.43935650 0.01994851
v 0.38485277 0.10881449 0.15709902
v 0.39103974 -0.00515558 0.16248170
v 0.36503182 0.35844421 0.08021070
v 0.37356058 -0.41798063 0.04254873
v 0.37393473 -0.11703561 0.15968097
v 0.34571308 0.21545413 0.14894979
v 0.34460710 -0.26488808 0.13080365
v 0.34347630 -0.34960142 0.09427275
v 0.33983188 0.28869279 0.12512369
v 0.31941913 -0.41018776 0.07089752
v 0.30588164 0.03681518 0.18978712
v 0.33623367 -0.19181343 0.15561497
v 0.31667551 -0.03122993 0.18615751
v 0.32331104 0.13212086 0.17631668
v 0.29130578 -0.50716115 0.01986583
v 0.30176926 0.46669907 0.04296167
v 0.29907646 -0.10780293 0.18108721
v 0.28634541 0.25329199 0.15769430
v 0.30182785 -0.34331530 0.10995630
v 0.27557064 -0.27512849 0.14146634
v 0.28445849 -0.40940505 0.08194879
v 0.25274447 0.01315710 0.19800339
v 0.28187325 -0.47557029 0.04410713
v 0.28059860 0.35550187 0.11667455
v 0.25857599 0.08637728 0.19661173
v 0.26202718 -0.20145165 0.16439755
v 0.28868361 -0.06472020 0.18830995
v 0.24502915 -0.47436678 0.05414485
v 0.25029970 0.32654266 0.13937376
v 0.24520016 -0.16571222 0.17331569
v 0.24556037 -0.41122364 0.08831542
v 0.22291421 -0.35459439 0.11463023
v 0.23261209 -0.56156832 0.00000000
v 0.21588987 0.56820679 0.00000000
v 0.22118725 -0.31834378 0.12810126
v 0.23378056 -0.02017273 0.19651265
v 0.21673892 0.16220290 0.19464826
v 0.24852945 0.25921333 0.16569113
v 0.20733733 -0.47621288 0.05887011
v 0.19890763 0.44667631 0.08897850
v 0.19669578 -0.12431612 0.17560769
v 0.19979247 -0.25114117 0.14627698
v 0.20266713 -0.41246094 0.09066718
v 0.18934157 -0.54518771 0.01996566
v 0.19612313 0.22988387 0.18400303
v 0.17466312 0.09231784 0.20193486
v 0.17552666 0.39591205 0.12304929
v 0.19316715 -0.01727565 0.19405100
v 0.16936364 -0.48280331 0.05805964
v 0.18180993 -0.37558696 0.10451531
v 0.16480723 -0.22356401 0.14286846
v 0.19108285 0.36280530 0.13664959
v 0.17656383 0.15793180 0.19893643
v 0.15565627 -0.51878004 0.04002289
v 0.14321383 0.29650482 0.17135138
v 0.13439722 0.02254817 0.18633749
v 0.13054083 0.09599915 0.19870565
v 0.13201159 0.25447749 0.18490735
v 0.13043062 -0.48943086 0.05472582
v 0.10409823 -0.45630160 0.06476003
v 0.11265572 0.17797248 0.19903233
v 0.11303086 0.53936711 0.04271571
v 0.08900630 0.46001746 0.09874011
v 0.08999541 0.10160331 0.19126756
v 0.08113221 0.39798962 0.13402837
v 0.03305614 0.29498804 0.17813814
v 0.05153672 0.23183183 0.19283076
v 0.07665309 0.16906575 0.19872866
v 0.00000000 -0.60700101 0.00426415
v 0.00000000 0.15232795 0.19078821
v -0.01738408 0.24849702 0.19003652
v -0.00557171 0.28550494 0.18115257
v 0.01403438 0.35787758 0.15544099
v 0.01771870 0.39287433 0.13940403
v -0.00483017 0.52107221 0.06325874
v -0.00369805 0.45599934 0.10530158
v -0.04148512 -0.61245286 0.00000000
v -0.04100388 0.16674008 0.19691052
v -0.05191500 0.24458282 0.19037083
v -0.07450262 -0.51411599 0.04097396
v -0.07692236 0.30621379 0.17298761
v -0.05731405 0.33530546 0.16321499
v -0.09099979 0.42484729 0.11872896
v -0.08999541 0.10160331 0.19126756
v -0.10876012 0.46067237 0.09570554
v -0.09062722 0.54682069 0.03996368
v -0.11856386 0.17269430 0.19970864
v -0.12592490 -0.50234118 0.04889201
v -0.11717812 0.25120260 0.18663161
v -0.15174480 0.05742763 0.19781304
v -0.16259890 -0.55181687 0.01974220
v -0.14624003 -0.01104966 0.18270238
v -0.17280809 0.35516861 0.14307780
v -0.16626510 -0.21439822 0.14557216
v -0.20108030 -0.54112996 0.02061333
v -0.16315151 0.41234122 0.11580101
v -0.19524367 0.22799956 0.18456616
v -0.20033605 -0.24187343 0.14880002
v -0.18826532 0.47394692 0.07339537
v -0.19943508 -0.47359160 0.06097163
v -0.18681320 0.26590640 0.17514221
v -0.22366034 0.15292772 0.19513510
v -0.22093577 -0.04611022 0.19323387
v -0.19708630 -0.28018536 0.13773522
v -0.24124672 0.55791342 0.00000000
v -0.23261209 -0.56156832 0.00000000
v -0.21677585 -0.34671501 0.11763901
v -0.23016720 -0.40873185 0.09114328
v -0.24245724 0.32667738 0.14087366
v -0.24875070 -0.49686345 0.03944040
v -0.24836488 0.18437563 0.18556333
v -0.26105779 -0.09859216 0.18623638
v -0.26540176 -0.19979320 0.16487617
v -0.27623486 0.11081671 0.19130357
v -0.26320491 0.38601254 0.10538797
v -0.28718085 -0.49271188 0.03088033
v -0.26734539 0.00804487 0.19660588
v -0.27020569 -0.39964943 0.08999439
v -0.28684370 -0.27894012 0.13926389
v -0.30386770 0.24089643 0.15572263
v -0.31704204 -0.13423196 0.17334430
v -0.28852067 0.46809478 0.04639588
v -0.32131580 -0.48457960 0.02330943
v -0.32210891 0.16654670 0.16974872
v -0.31976118 -0.05669092 0.18347731
v -0.33928398 -0.21354034 0.14880455
v -0.31620385 0.06081796 0.18639331
v -0.33014831 -0.41906656 0.06199548
v -0.32578715 0.30097633 0.12501824
v -0.34738875 -0.31838293 0.10753127
v -0.35240557 -0.25107131 0.13296667
v -0.34046092 0.19264687 0.15680625
v -0.37422885 -0.09119769 0.16355408
v -0.37630025 0.34810403 0.07903056
v -0.36669466 0.01433290 0.17186999
v -0.39346603 -0.15075214 0.14509281
v -0.39218688 0.09054607 0.15602831
v -0.38413939 -0.43705814 0.02421672
v -0.36993009 -0.34758156 0.08422079
v -0.40624568 -0.21797417 0.12108628
v -0.43295059 -0.05306701 0.14022178
v -0.42708814 0.43250787 0.00000000
v -0.42050749 -0.43890867 0.00000000
v -0.43330513 0.01973023 0.14113804
v -0.44314032 0.12952653 0.12247132
v -0.45946383 -0.16635107 0.10558869
v -0.46263486 -0.23602757 0.08159929
v -0.46688680 0.30329978 0.04646406
v -0.46551781 -0.35051791 0.02505784
v -0.46872336 -0.05354396 0.11899541
v -0.48149499 0.06003739 0.10838397
v -0.46569927 0.19990094 0.08943618
v -0.48587739 -0.13748646 0.09446762
v -0.53261413 -0.04189509 0.07185988
v -0.55351628 0.09941035 0.04541430
v -0.54510700 -0.10647017 0.05301696
v -0.56033170 -0.23557536 0.00000000
v -0.60783815 0.00039636 0.00000000
v -0.59632093 -0.11776543 0.00000000
v 0.59004068 -0.14601137 0.00000000
v -0.51481909 0.32315424 0.00000000
v 0.48898762 0.36105189 0.00000000
v -0.36590597 -0.48536602 0.00000000
v 0.35627878 -0.49247620 0.00000000
v -0.12082618 0.59570831 0.00000000
v -0.51017203 -0.15373062 0.07210379
v -0.43745814 0.26187376 0.08473563
v 0.47805125 -0.16124932 0.09452945
v 0.38371409 0.21668564 0.13182484
v -0.36970656 0.20063135 0.14262869
v -0.42836678 -0.15783251 0.12621728
v 0.32692456 0.17590292 0.16657847
v -0.09200386 0.38439452 0.13963964
v 0.37394807 -0.18845640 0.14409445
v -0.32966513 -0.17334206 0.16197648
v 0.08339195 0.33804839 0.16101523
v 0.29961906 -0.19890358 0.16158357
v -0.30245477 -0.20855384 0.15856195
v -0.25393828 0.07741138 0.19782990
v 0.06208598 0.26811087 0.18496030
v -0.22437932 -0.08945462 0.18676727
v 0.22503256 -0.09513940 0.18577669
v -0.13779458 -0.36111987 0.10012960
v 0.15527150 0.12561782 0.20152862
v -0.16611786 -0.17543660 0.15405481
v 0.16592947 -0.14503296 0.16063935
v -0.11026256 0.06551871 0.18901724
v 0.11130672 0.06365963 0.18890131
v 0.14046106 0.41042787 0.12107897
v -0.16839051 0.01857163 0.19540671
v -0.15522185 0.23865312 0.18670057
v -0.12137755 -0.53452955 0.03353364
v 0.08484328 0.60188782 0.00000000
v 0.59559309 0.12139286 0.00000000
v -0.50067735 -0.34465858 0.00000000
v 0.49678737 -0.35024232 0.00000000
v -0.35689431 0.49203029 0.00000000
v -0.11670338 -0.59242719 0.00000000
v 0.13167903 -0.58844018 0.00000000
v 0.33677568 0.47060845 0.02499473
v -0.06035551 -0.58138430 0.01310975
v 0.49528029 -0.08449095 0.09727971
v -0.18825028 -0.31978565 0.12436316
v 0.47134283 0.23858760 0.07228945
v -0.52120513 -0.18708874 0.05384177
v -0.19099554 -0.06862113 0.18519984
v -0.49515957 0.09758884 0.09360191
v 0.47349474 -0.29291891 0.04955403
v 0.41345622 0.28350072 0.09074863
v -0.40664673 0.28832135 0.09167416
v 0.22679903 -0.50171165 0.04105714
v 0.22989119 0.42131334 0.09621489
v -0.24195657 0.41812829 0.09378109
v 0.06242656 -0.53622925 0.03191833
v -0.44938751 -0.32695543 0.04963486
v 0.44179399 0.07968072 0.13177627
v 0.36671823 -0.28849834 0.11311903
v -0.12912577 0.35859504 0.14796962
v 0.40390084 -0.11978279 0.14643776
v -0.37789713 0.05220020 0.16596716
v 0.03256690 0.13397208 0.19096167
v 0.06515498 0.43136179 0.11735577
v -0.31043612 0.20400090 0.16447053
v 0.35854839 -0.45588098 0.02538185
v -0.35686086 -0.46913865 0.01720417
v -0.48604671 -0.09304067 0.10275032
v -0.28678832 -0.36216510 0.10467189
v -0.37453315 -0.21693581 0.13571734
v 0.12663433 0.33651811 0.15799966
v 0.29309730 0.00639685 0.19245650
v 0.26655654 0.28972095 0.15012633
v -0.26324531 -0.30313893 0.13259468
v 0.26026275 -0.33515360 0.12050488
v -0.25804950 -0.03071312 0.19489686
v -0.39117234 -0.11812113 0.15241101
v -0.19975641 -0.19993934 0.15939291
v -0.20598942 -0.50460656 0.04293424
v 0.26456491 -0.44307022 0.06816149
v 0.28910070 0.18726450 0.17532118
v -0.03388787 0.31169600 0.17263139
v -0.11945402 0.13049465 0.20109172
v -0.16201419 0.19520519 0.19518318
v 0.18794315 0.19350074 0.19285595
v 0.10245001 0.27881216 0.18026694
v 0.31218112 -0.15321306 0.17047087
v 0.11340884 -0.52727566 0.03715378
v -0.29304807 -0.16923863 0.16997829
v 0.08262274 0.20565669 0.19636682
v -0.47748304 0.32806227 0.02661307
v 0.16289572 -0.41317673 0.08829764
v -0.24518684 -0.37312186 0.10595451
v -0.08153576 0.22704632 0.19319622
v -0.21720367 0.29443753 0.15986220
v -0.03758416 0.20996347 0.19583314
v 0.33736593 0.50562000 0.00000000
v -0.32495086 0.44406637 0.04694811
v -0.56044925 0.02796445 0.04716259
v 0.55238869 0.17603434 0.02844123
v 0.57718179 -0.07540867 0.02756933
v 0.05746076 0.57339699 0.02363568
v 0.33760363 0.39703818 0.07138080
v 0.54605044 -0.20293853 0.02645398
v 0.48580156 0.26656889 0.05031480
v -0.16045915 -0.25090089 0.13480468
v -0.29495218 -0.53147960 0.00000000
v 0.26347902 -0.54776472 0.00000000
v -0.46915912 -0.29109398 0.05364858
v 0.38084808 -0.04557593 0.16529398
v 0.26725821 0.46275359 0.05864852
v -0.09443335 -0.47518173 0.05699234
v 0.40237517 -0.28682372 0.09748186
v 0.46350430 -0.09654478 0.11742144
v -0.15518892 -0.05110410 0.17723590
v -0.24453152 0.36094753 0.12401121
v -0.38988938 -0.31218308 0.09213904
v 0.42037223 0.21554658 0.11300950
v -0.51427817 -0.11762107 0.07703727
v 0.36203418 0.25231087 0.12968657
v -0.39102752 -0.37550951 0.05865298
v 0.35374578 -0.38903908 0.06948528
v -0.33811585 -0.01269249 0.18143235
v 0.23506207 0.35958991 0.12808956
v 0.33271433 -0.30862479 0.11699630
v -0.04730481 0.12566528 0.19104017
v -0.37356295 0.12618327 0.15868182
v -0.33939529 0.22608847 0.14757099
v 0.04231365 0.45968834 0.10213335
v 0.39726968 -0.22004192 0.12503441
v 0.05560560 0.36919786 0.14940861
v 0.32795558 0.09067295 0.18055597
v -0.30785825 -0.45592593 0.04772562
v -0.23429487 -0.13352178 0.17980139
v -0.22827649 -0.00576643 0.19810225
v -0.42340205 -0.12180723 0.13643213
v 0.22985093 0.23393059 0.17720786
v -0.23628334 0.22161481 0.17920464
v 0.19434506 -0.51114912 0.04057203
v 0.24296784 -0.26112463 0.14752307
v -0.27306614 -0.23995678 0.15322104
v -0.04453393 0.27822463 0.18263172
v 0.27235546 0.04570932 0.19605036
v 0.26603559 -0.37400715 0.10314230
v 0.19139743 -0.08526910 0.18193378
v -0.18061288 0.29851835 0.16498139
v -0.09122273 -0.56074391 0.02168215
v 0.22812685 0.29542334 0.15759832
v -0.35731848 -0.13559203 0.16232489
v 0.10164853 0.36705106 0.14722958
v -0.00036859 0.18383509 0.19644620
v -0.17546028 0.08755129 0.20222065
v -0.15248271 -0.42971643 0.08096795
v 0.27977402 -0.17055043 0.17093085
v 0.19969925 0.12620703 0.20033155
v 0.46625880 0.04868323 0.11999302
v -0.17722370 -0.35591137 0.11077344
v 0.20349327 -0.16515111 0.16852237
v -0.19942982 -0.15645982 0.16947639
v -0.08726700 0.51679639 0.06147778
v 0.11929929 -0.41867033 0.07921768
v -0.36803125 0.28321445 0.11415592
v 0.19454709 0.51328567 0.04577440
v -0.52057121 0.17371109 0.05643116
v 0.08348967 0.51670029 0.06216457
v -0.58049210 -0.05301605 0.02655475
v -0.28206220 0.50295576 0.02520159
v -0.44120017 0.33262072 0.04913237
v 0.55517682 0.03244188 0.05205454
v -0.41575551 -0.01788397 0.15068555
v 0.43360969 -0.21246441 0.10838945
v 0.04220190 0.60637146 0.00000000
v 0.57708573 -0.19089116 0.00000000
v 0.58584660 0.16202202 0.00000000
v -0.54225647 -0.27463669 0.00000000
v -0.39251760 -0.46410912 0.00000000
v 0.38650444 -0.46912864 0.00000000
v -0.32448312 0.40518612 0.07139638
v -0.04305362 0.47122926 0.09480860
v -0.09292410 0.57216107 0.02120350
v 0.18062642 -0.57540870 0.00000000
v 0.42576597 0.00276294 0.14589934
v 0.50662722 -0.28306589 0.02804035
v -0.40399327 0.20789493 0.12390575
v 0.39468193 0.14656853 0.14542480
v 0.39631838 -0.38457103 0.05059793
v -0.25602558 0.28830586 0.15304458
v -0.46089065 -0.20448050 0.09373795
v -0.53033331 0.02742336 0.07381288
v -0.35080091 -0.38311411 0.07386696
v -0.02452578 -0.57919663 0.01512876
v -0.32825941 -0.28547344 0.12765330
v 0.18856296 -0.29202378 0.13261042
v 0.46341829 0.00900827 0.12411469
v -0.05692216 0.36785482 0.14968934
v -0.31445758 0.10103270 0.18313380
v -0.39986809 -0.18590631 0.13360314
v 0.17035333 0.26247374 0.17872820
v -0.27060355 -0.46344646 0.05464351
v 0.30708327 0.21708997 0.16243112
v 0.21805783 0.09233651 0.20087876
v 0.36432796 0.41599811 0.04659718
v -0.18935428 0.38590696 0.12486227
v 0.39892640 0.25101218 0.11208708
v 0.35926288 -0.22577759 0.13887691
v 0.23472864 -0.22778715 0.15698387
v -0.23452941 -0.22407762 0.15813191
v -0.08058438 0.26593931 0.18474542
v -0.37144038 0.24046527 0.12901210
v -0.27499270 0.21393418 0.17229403
v 0.28842325 0.15104937 0.18300303
v -0.08320473 0.14522577 0.19869822
v 0.22519391 -0.44384988 0.07423547
v 0.27881292 -0.23842843 0.15320223
v 0.16697827 0.33265607 0.15439591
v 0.11067178 0.13506926 0.20017104
v -0.16739206 -0.48897370 0.05507921
v 0.29746161 0.07210918 0.19022277
v -0.34311415 0.03698392 0.17965580
v 0.21550781 0.39021455 0.11738881
v 0.02225005 0.25808054 0.18800504
v -0.55506825 -0.17176890 0.02816854
v -0.21438624 -0.44283653 0.07580654
v -0.20010703 0.11955712 0.20095697
v 0.22602199 0.20071799 0.18622040
v 0.43156055 -0.10696290 0.13476069
v -0.45680919 -0.12659739 0.11629591
v 0.23270881 -0.13211996 0.17970936
v 0.13197607 -0.37922490 0.09355084
v -0.24913171 -0.06547425 0.19117098
v 0.12137886 0.21597479 0.19388938
v -0.16586216 -0.13417043 0.16299185
v 0.18195653 -0.04733408 0.18637660
v 0.15229520 0.05861478 0.19775082
v -0.46275676 0.09503707 0.11638740
v -0.26209921 -0.52392147 0.01759037
v -0.11288223 -0.43863779 0.07196216
v 0.04852406 -0.61057889 0.00000000
v 0.48687695 0.13586494 0.09277700
v -0.44735503 0.36297216 0.02850819
v 0.53757777 0.21765799 0.02773294
v 0.02704002 0.54800987 0.04372983
v 0.16132224 0.49645096 0.06477234
v -0.51618809 -0.00977058 0.08639215
v 0.60516715 -0.05692155 0.00000000
v -0.58628982 0.16041063 0.00000000
v 0.52089852 -0.31326044 0.00000000
v 0.49942769 -0.18565861 0.07187782
v -0.25754611 0.44944537 0.06973713
v -0.53266489 -0.24602231 0.02179148
v -0.31332534 0.33946751 0.11196138
v -0.43636942 0.19363583 0.10996294
v 0.39881769 0.03564543 0.15813270
v -0.39527802 -0.05390577 0.15862337
v -0.13407818 0.43558121 0.10735692
v 0.26510031 0.42584189 0.08274388
v -0.04596462 0.43764570 0.11470776
v -0.39040717 0.16612971 0.14245947
v 0.40998640 -0.41226038 0.02513985
v -0.41182984 -0.40346656 0.02971366
v 0.42738205 0.31415110 0.06812970
v -0.42854727 0.09299316 0.13718687
v -0.35612227 0.45482246 0.02537656
v 0.30144408 0.49849995 0.02144809
v -0.26226010 0.14692486 0.18943365
v 0.04369134 0.33198768 0.16524387
v 0.41974306 0.11234664 0.13935752
v -0.52543288 0.09953238 0.06968432
v 0.35267874 -0.15361518 0.15996542
v 0.34810749 -0.04989853 0.17634154
v 0.52558860 -0.06918279 0.07562217
v 0.06107618 0.48896508 0.08265779
v 0.35211861 0.32467002 0.10362847
v 0.24676123 0.12926935 0.19482914
v -0.07933970 0.18876978 0.19806674
v -0.30763928 0.01844366 0.18971315
v 0.26143380 -0.09838994 0.18617832
v -0.19850797 0.32644932 0.15092147
v 0.21981874 -0.28367355 0.13921638
v 0.26427447 0.21798311 0.17431160
v -0.30138793 -0.32108588 0.11992030
v -0.13919865 -0.46580104 0.06535026
v 0.56017164 -0.16076306 0.02658565
v -0.23852657 0.11492817 0.19740283
v -0.53671548 -0.14545705 0.05208183
v -0.28245163 -0.06164619 0.18945918
v -0.16042435 0.12365861 0.20207780
v 0.30224869 -0.44301970 0.05773908
v 0.32095800 -0.23239806 0.14801022
v 0.14664167 0.37048604 0.14059968
v 0.41073802 -0.18327364 0.12918862
v -0.34541768 -0.44588598 0.03868086
v 0.22757553 -0.19361946 0.16514504
v -0.23961625 -0.26851374 0.14546665
v 0.47614044 0.33020380 0.02693399
v 0.15860219 -0.26257581 0.13136084
v 0.17145428 0.02046163 0.19581825
v -0.19712224 -0.11359039 0.17793001
v -0.20252872 0.01543411 0.19897617
v 0.45565480 -0.13496831 0.11545397
v -0.47005900 0.27113639 0.05907093
v -0.19651574 -0.57117844 0.00000000
v -0.21617327 0.08077290 0.20149977
v 0.58058854 0.00748741 0.02845424
v -0.38950108 0.39778227 0.04340744
v -0.03797936 0.60665059 0.00000000
v -0.60335088 0.07372291 0.00000000
v -0.53711790 0.28455535 0.00000000
v 0.53693402 0.28490213 0.00000000
v 0.37230456 0.48047546 0.00000000
v -0.13179313 0.52847765 0.04737902
v -0.55275312 -0.06945675 0.05156717
v 0.52669641 0.00990681 0.07804531
v 0.40526163 0.35243579 0.06153684
v 0.50727980 0.15982238 0.07151951
v 0.23175020 0.49193378 0.05054340
v -0.50733775 -0.27607148 0.03076916
v -0.20216883 0.41688212 0.10513920
v 0.04136504 0.51879985 0.06380094
v -0.56627922 0.13202393 0.02710454
v -0.41378878 0.05561386 0.14924454
v -0.43854358 0.29728241 0.06837064
v 0.14428052 0.55923698 0.02328349
v -0.12807768 0.56134719 0.02428557
v -0.01382978 0.41789112 0.12664076
v 0.54909959 -0.09275930 0.05193453
v 0.35842875 0.14428164 0.16175112
v 0.16401160 0.46407767 0.08555226
v -0.35687554 -0.05457030 0.17335431
v 0.38272415 -0.25596570 0.11936975
v 0.46063039 -0.35187182 0.02801564
v 0.43555859 0.24658719 0.09281506
v -0.48888530 -0.17797231 0.08204452
v 0.36853597 0.06996973 0.16866321
v -0.35034211 0.32525116 0.10329932
v -0.45669901 0.16419188 0.10589473
v -0.12533452 -0.39989093 0.08604149
v 0.40134463 -0.08146289 0.15362310
v 0.32467266 -0.07604250 0.18035239
v 0.21219486 0.01890584 0.19949168
v -0.14663235 0.28283253 0.17518557
v 0.49187293 -0.22473411 0.06466380
v 0.16617236 -0.18423098 0.15215020
v -0.28815294 0.07895061 0.19161925
v 0.20917302 0.26454552 0.17210582
v -0.43209122 -0.19528995 0.11426799
v 0.28340338 0.31845313 0.13301146
v -0.05419382 0.40341074 0.13279357
v -0.25808222 -0.33693798 0.12002541
v 0.25041315 -0.06058100 0.19182768
v 0.25500286 0.17375734 0.18640998
v -0.25924564 -0.16279547 0.17393372
v -0.20760834 0.19077219 0.19104567
v -0.51294822 0.06234896 0.08494153
v -0.39098238 -0.24921753 0.11802254
v 0.04218320 0.19610184 0.19685444
v 0.20944854 0.32965651 0.14786753
v 0.37369429 -0.31959249 0.09641600
v -0.30003835 -0.09693297 0.18262094
v 0.10674680 0.31059569 0.16961738
v -0.35728782 0.16265337 0.15779839
v -0.23474339 0.03900026 0.20039484
v -0.14931187 0.15718499 0.20039138
v -0.15632924 0.32406250 0.15903051
v 0.53062765 -0.17240527 0.05018017
v 0.29073401 -0.30768052 0.12737017
v 0.14043208 0.15584560 0.20031301
v 0.32691711 -0.51243782 0.00000000
v -0.19043717 -0.41825368 0.08815120
v 0.32483860 0.25231540 0.14499894
v -0.16429211 -0.52071497 0.03829566
v 0.14629804 -0.45267053 0.07118673
v -0.29586852 0.27764117 0.14530937
v 0.47022684 -0.05971195 0.11751157
v -0.16469385 -0.09364735 0.17142977
v 0.09085643 -0.59930855 0.00000000
v -0.44762475 -0.26764477 0.07910322
v -0.37042068 -0.41061874 0.04876053
v -0.20809600 0.50415695 0.04809563
v 0.60284495 0.07775159 0.00000000
v -0.48933694 0.36057833 0.00000000
v 0.46077695 0.39642397 0.00000000
v -0.57935182 -0.00966235 0.02983235
v -0.52463395 0.25269261 0.02483442
v -0.45119292 -0.01638942 0.13140491
v -0.33801843 0.12890254 0.17175983
v -0.33843926 0.36469998 0.08836958
v 0.51999503 0.25554033 0.02797718
v 0.51525455 0.08151434 0.08097093
v 0.32415759 0.36055380 0.09770604
v -0.01822996 0.58083661 0.01985080
v -0.35755690 0.41965464 0.04698555
v 0.09897354 0.56846721 0.02333755
v -0.57768524 0.09840378 0.02274302
v -0.21572407 0.44609190 0.08432684
v 0.48338213 -0.26070927 0.05691913
v -0.57464655 -0.09302535 0.02750773
v 0.49908201 -0.00836858 0.09982590
v 0.12784187 0.47765774 0.08290857
v 0.51887288 -0.20746396 0.04884086
v 0.43433003 0.04108904 0.13976370
v -0.50818813 0.13525733 0.07645016
v 0.45823783 0.15050807 0.10880541
v 0.33002117 0.01043962 0.18403456
v 0.58045156 -0.03265285 0.02793317
v 0.02020135 0.48930367 0.08428544
v 0.23329458 0.45589520 0.07405489
v 0.27367962 -0.02537408 0.19378782
v -0.43042553 -0.23687606 0.10186544
v 0.10330953 0.42543106 0.11745051
v -0.23264874 -0.47048719 0.05860601
v -0.28625292 0.17624602 0.17837241
v -0.27731251 -0.13226928 0.17954384
v -0.48720212 -0.31550471 0.02763135
v 0.18615921 -0.33252408 0.11974861
v -0.42277088 0.16539532 0.12592266
v -0.12543648 0.40033149 0.12803050
v -0.40981993 0.32566791 0.07209073
v -0.32798406 -0.35375021 0.09760261
v 0.22368649 -0.38514861 0.10194753
v -0.28150686 0.41261793 0.08402188
v 0.00509483 0.32172773 0.16959525
v -0.10885873 0.28546914 0.17756096
v 0.18650006 0.54718928 0.02326679
v -0.33533565 0.26326015 0.13635232
v 0.18507275 -0.44662030 0.07523530
v 0.21406335 -0.05564808 0.19095243
v 0.36803202 0.44579280 0.02582816
v 0.15000843 0.18823999 0.19674087
v -0.01962046 0.38196250 0.14453443
v 0.15949763 0.22446778 0.18958341
v 0.25242429 -0.29878832 0.13487278
v 0.41444628 -0.03820927 0.15091409
v 0.22753607 -0.53379446 0.02049009
v 0.10185594 -0.56179790 0.02030008
v -0.18453408 0.15785168 0.19865327
v 0.44539260 -0.17395657 0.11255747
v -0.41014149 -0.33870203 0.06815143
v -0.19892329 0.57436651 0.00000000
v -0.57496589 -0.19718409 0.00000000
v 0.44501001 -0.41404521 0.00000000
v -0.44730964 -0.41155976 0.00000000
v -0.31854054 0.51768649 0.00000000
v -0.19209219 0.05047431 0.20122655
v -0.33789822 -0.09578658 0.17463000
v 0.37653224 0.28760394 0.10878943
v -0.20442899 -0.38279011 0.10324460
v -0.44864676 -0.08910584 0.12753823
v 0.14785300 -0.01826917 0.18171708
v -0.22662443 0.25843895 0.17043149
v -0.39299428 0.46370557 0.00000000
v -0.14777552 0.46881125 0.08485715
v -0.54726192 -0.00581416 0.06014006
v -0.49799607 0.20637344 0.06388978
v -0.24409791 0.52239854 0.02462136
v 0.06994491 0.54504332 0.04339730
v -0.36545128 0.38347684 0.06481262
v 0.22836824 0.52880563 0.02552005
v 0.53798101 0.14650777 0.04951873
v 0.45670970 0.11610536 0.11724551
v 0.55388651 -0.05132808 0.05254127
v -0.46702011 0.02193659 0.12092530
v -0.40873696 0.12852359 0.14176474
v -0.15484479 0.38224290 0.13297178
v -0.53797155 0.13674431 0.05157608
v -0.54325495 -0.20974320 0.02653519
v -0.29712027 -0.02203692 0.19065169
v 0.12394469 0.50952440 0.06216204
v -0.30097313 0.37747566 0.09686649
v -0.01457179 0.48885665 0.08454474
v 0.49079764 0.20032922 0.07197627
v -0.31032834 -0.39085579 0.08451333
v 0.04859185 0.40352416 0.13309188
v 0.42348074 -0.35245444 0.05293205
v -0.52146827 -0.08009819 0.07737826
v 0.49533479 0.02731719 0.10157662
v 0.30379264 0.28732814 0.13940826
v -0.02371471 0.34679103 0.15981458
v 0.39018078 0.32111204 0.08635926
v -0.38208133 0.31383613 0.09314047
v 0.40776650 0.07440520 0.15080565
v 0.44998255 0.27613878 0.07135201
v 0.35318342 0.10852050 0.16973845
v 0.19839120 -0.20848341 0.15682136
v -0.47658731 0.13177700 0.10039775
v -0.49054655 -0.21448508 0.06924694
v 0.38916164 -0.15266431 0.14656925
v -0.11870972 0.31822691 0.16565502
v 0.00110758 0.60783726 0.00000000
v 0.13010299 0.59375125 0.00000000
v -0.15830503 0.58686191 0.00000000
v -0.58688796 -0.15820837 0.00000000
v 0.55528694 0.24723220 0.00000000
v 0.47138885 -0.38374460 0.00000000
v 0.19319701 0.05680313 0.20128466
v 0.03557301 0.16219227 0.19600548
v -0.43554105 0.22648994 0.09962660
v 0.16567706 -0.10429711 0.16946155
v 0.43774502 -0.06875194 0.13647862
v -0.23061512 -0.52815485 0.02330383
v -0.13203117 0.09433259 0.19923307
v -0.30045426 0.13873593 0.18164357
v 0.31216995 -0.37861062 0.09033948
v 0.33867957 -0.43286355 0.04997113
v -0.12016327 0.21180263 0.19469805
v 0.40605438 0.18216986 0.13099009
v -0.41031087 -0.27634769 0.09762979
v -0.17458984 0.52477700 0.04161675
v 0.39867511 0.41589148 0.02783436
v -0.39893296 0.01755513 0.15847593
v -0.16151270 0.49993469 0.06177089
v -0.32146122 0.47919947 0.02541939
v 0.15483183 0.52877265 0.04343411
v -0.55951063 -0.03523741 0.04802452
v 0.55466453 -0.00960162 0.05365747
v -0.49877212 0.28762172 0.03056986
v -0.04638281 0.50478454 0.07292636
v -0.22575519 0.38882794 0.11476215
v -0.55063916 0.17156132 0.03119435
v -0.20679807 0.53796294 0.02432917
v 0.52072321 0.11603605 0.07098386
v 0.54240674 -0.27433974 0.00000000
v 0.50057056 -0.04681148 0.09728743
v 0.45625252 0.21042439 0.09286993
v -0.28501260 0.31448773 0.13372315
v -0.41204015 -0.08706917 0.14760131
v 0.29530417 0.39303980 0.09126149
v 0.11570175 0.39369917 0.13291820
v -0.44839144 0.05770782 0.12994960
v 0.27240819 -0.13625551 0.17899801
v -0.13234565 0.02620089 0.18656528
v -0.31356145 -0.24767952 0.14480090
v -0.25248301 -0.43548807 0.07466831
v 0.46973311 0.08273519 0.11388783
v 0.00369471 -0.61840785 0.00000000
v -0.29109081 -0.42753168 0.07020769
v 0.41359452 -0.31927701 0.07625150
v 0.55283538 0.10548885 0.04520890
v 0.09668264 0.49023251 0.07859759
v 0.02456164 0.42869262 0.12062404
v 0.13095324 0.44593505 0.10221163
v 0.43496760 -0.38290908 0.02759181
v -0.57048532 0.06445024 0.03462139
v -0.51357995 -0.23133871 0.04461949
v -0.49930067 0.02475028 0.09843721
v 0.14399774 -0.34181795 0.10714328
v -0.14774682 -0.33015218 0.11138223
v 0.09222043 0.24248432 0.18996490
v -0.07434485 0.45515635 0.10249793
v -0.18689372 -0.02250881 0.19273848
v 0.54107512 -0.13338055 0.05125013
v 0.17722945 0.58142674 0.00000000
v -0.07761306 0.60286283 0.00000000
v -0.60680664 -0.03539819 0.00000000
v 0.59932864 -0.10135340 0.00000000
v 0.60727406 0.02618292 0.00000000
v -0.52306062 -0.30963674 0.00000000
v -0.45731241 0.40041569 0.00000000
v 0.29883647 0.52930534 0.00000000
v -0.27730468 0.54089689 0.00000000
v 0.51001120 -0.14732793 0.07408207
v 0.32226065 -0.47476181 0.02983916
v 0.23417387 0.05370383 0.20028799
v 0.49818764 0.29380171 0.02854008
v 0.08436613 -0.49484783 0.04890129
v -0.36983698 -0.28372247 0.11385148
v 0.46774220 -0.20062364 0.09050658
v 0.44751207 -0.02925150 0.13345479
v -0.26581061 0.25108446 0.16366839
v 0.30857819 -0.27197203 0.13761293
v 0.36223880 -0.08199853 0.16894762
v -0.56641035 -0.13233235 0.02782530
v -0.42842468 -0.36352993 0.04332846
v 0.00906024 0.22115268 0.19443952
v 0.18695663 0.29769364 0.16475278
v -0.25126606 0.48781829 0.04644167
v -0.40850878 0.36404034 0.05235663
v 0.30086188 0.43007409 0.06697620
v -0.46880400 0.23535010 0.07463592
v -0.09048369 0.34561712 0.15722627
v -0.53195053 0.21346103 0.03396096
v 0.42361806 -0.14631236 0.13150180
v 0.19827161 0.47935090 0.06821687
v -0.59611666 0.11879523 0.00000000
v 0.40566403 0.45266327 0.00000000
v -0.40341486 0.25184130 0.10866817
v -0.58623298 0.03025191 0.02202623
v 0.31474988 0.32450644 0.11935073
v -0.50151204 -0.04979937 0.09613932
v -0.54276803 0.06347291 0.06009673
v 0.44289394 -0.28199347 0.07623951
v -0.21258957 0.35658605 0.13436704
v -0.12002727 0.49471077 0.07235544
v 0.50577981 0.22816571 0.05043081
v -0.01457728 0.55416782 0.03954895
v 0.07101809 0.30379152 0.17417386
v 0.52315091 0.18831073 0.05019798
v 0.16691866 0.43115402 0.10502653
v -0.37833089 -0.01911412 0.16733109
v 0.49132805 0.10153679 0.09616020
v -0.35199576 0.08557679 0.17312944
v 0.52252013 0.04660431 0.07923767
v 0.38308833 0.38678890 0.05444746
v 0.33686818 -0.11603039 0.17181385
v 0.25554430 0.39041209 0.10627538
v -0.27607419 0.35039297 0.11982177
v -0.17609061 -0.45340093 0.07213555
v -0.15420762 -0.29020500 0.12321084
v 0.15234855 -0.30189320 0.11976308
v -0.36497939 -0.17903551 0.14982018
v -0.60300517 -0.07649910 0.00000000
v -0.47540072 -0.37876314 0.00000000
v 0.51377952 0.32480448 0.00000000
v -0.33776820 -0.50535136 0.00000000
v -0.55705661 0.24321865 0.00000000
v 0.25593263 0.55133098 0.00000000
v 0.36867726 0.18082930 0.14910825
v -0.48358523 -0.25428610 0.05933322
v 0.01589934 0.57686568 0.02287099
v -0.39096757 0.42722253 0.02459392
v -0.42031745 0.39666435 0.02608655
v 0.06861246 -0.57460859 0.01568047
v 0.56671515 0.13433797 0.02628448
v -0.08054602 0.48536000 0.08314311
v 0.14328716 -0.55334106 0.02118513
v 0.28917838 0.11143420 0.18852476
v -0.16616304 -0.39181693 0.09673960
v -0.22648361 -0.30895511 0.13165461
v 0.15785897 -0.06305498 0.17560489
v -0.29565489 0.43587170 0.06437572
v -0.08244728 -0.60154736 0.00000000
v 0.19765606 0.41730910 0.10657932
v -0.27753852 0.04558586 0.19536522
v -0.44487550 -0.38201430 0.02100869
v 0.44069839 0.18145982 0.11170215
v 0.48760926 -0.12254463 0.09650147
v -0.48891106 0.16893153 0.08259002
v -0.22475464 0.47315559 0.06438430
v -0.50010589 0.24429307 0.04811905
v -0.16478205 0.55175769 0.02443994
v -0.05330117 -0.54657453 0.02787590
v -0.48456245 -0.01408583 0.10986973
v 0.07317154 0.13548030 0.19609417
v -0.17492416 0.44326978 0.09561733
v -0.60688978 0.03394369 0.00000000
v -0.57195485 0.20575470 0.00000000
v 0.44142022 0.34263144 0.04438982
v 0.03320434 -0.56935787 0.01897325
v 0.33440628 0.05159096 0.18186203
v -0.23078471 -0.17996291 0.16912757
v 0.33421258 0.43742834 0.04791515
v 0.45561897 0.36237364 0.02362167
v -0.15553673 -0.58208841 0.00000000
v -0.04908229 0.53584734 0.05135069
v -0.42996933 -0.30293464 0.07433427
v -0.05446617 0.56845049 0.02747118
v 0.36432425 0.02566525 0.17280794
v 0.57107329 0.20818903 0.00000000
v 0.57927365 0.09281895 0.02229200
v 0.35587316 -0.01531133 0.17574620
v 0.26557291 0.49711106 0.03600403
v 0.25733368 -0.50834271 0.02990087
v 0.56497738 0.06748154 0.03956436
v 0.29640168 -0.53067261 0.00000000
v -0.12796458 -0.56433725 0.01612389
v 0.42394497 0.38380287 0.03215979
v 0.26904459 0.52148770 0.01753478
v 0.58184946 0.04871296 0.02512141
v 0.06820389 0.11388580 0.19115150
f 111 843 212
f 369 97 89
f 325 809 221
f 89 713 416
f 438 620 163
f 556 438 158
f 616 235 751
f 592 215 169
f 644 618 177
f 400 670 618
f 490 692 344
f 561 765 178
f 422 367 631
f 446 227 580
f 817 694 562
f 500 596 346
f 441 798 570
f 565 635 154
f 696 135 294
f 142 754 345
f 502 358 185
f 489 502 818
f 420 773 95
f 803 359 64
f 20 355 16
f 244 184 355
f 740 546 184
f 700 361 425
f 11 15 509
f 437 619 720
f 693 583 482
f 278 801 352
f 778 699 417
f 583 639 279
f 844 560 17
f 439 657 229
f 493 649 8
f 585 761 60
f 585 434 289
f 492 781 23
f 213 280 571
f 421 646 577
f 819 221 369
f 115 111 549
f 612 64 53
f 108 460 395
f 128 401 547
f 549 212 108
f 130 589 377
f 257 120 589
f 130 377 136
f 335 203 725
f 625 805 335
f 527 806 252
f 806 527 127
f 139 252 472
f 128 271 138
f 710 370 139
f 271 247 138
f 159 368 597
f 368 148 650
f 150 159 597
f 299 616 751
f 368 159 299
f 438 556 299
f 118 472 124
f 133 530 267
f 319 139 472
f 788 248 146
f 623 327 141
f 161 704 432
f 524 160 375
f 375 156 191
f 626 314 704
f 173 246 297
f 375 191 524
f 173 297 186
f 767 174 653
f 186 511 173
f 476 410 553
f 828 312 530
f 201 408 132
f 464 408 254
f 145 645 301
f 591 537 141
f 645 454 301
f 777 301 155
f 157 499 240
f 153 507 432
f 348 777 688
f 157 641 440
f 440 707 499
f 161 563 170
f 820 723 422
f 171 227 532
f 815 342 580
f 164 640 563
f 112 210 728
f 728 226 293
f 122 462 402
f 122 443 462
f 134 374 522
f 811 147 454
f 680 443 590
f 564 539 305
f 551 603 140
f 436 190 362
f 436 641 305
f 430 172 514
f 207 679 110
f 261 541 465
f 262 211 117
f 262 107 683
f 614 541 262
f 402 614 122
f 519 121 211
f 131 531 316
f 121 273 628
f 388 747 140
f 238 595 642
f 703 551 365
f 551 703 149
f 135 233 599
f 429 647 565
f 453 390 98
f 390 453 107
f 99 274 91
f 99 320 386
f 101 320 260
f 608 656 93
f 260 656 102
f 601 101 666
f 193 526 103
f 373 608 526
f 103 433 595
f 435 357 727
f 695 802 357
f 630 105 771
f 119 822 630
f 81 394 545
f 752 534 87
f 399 92 91
f 91 752 399
f 376 78 609
f 444 86 774
f 196 538 249
f 249 468 328
f 85 309 328
f 718 651 242
f 328 706 85
f 96 718 307
f 776 810 60
f 82 343 646
f 83 307 242
f 79 743 266
f 270 604 63
f 59 604 69
f 69 550 79
f 51 322 598
f 48 391 59
f 43 258 48
f 59 317 231
f 840 48 231
f 612 53 286
f 70 724 407
f 550 339 80
f 544 610 253
f 681 28 39
f 392 748 467
f 41 322 51
f 28 300 19
f 383 508 308
f 39 303 544
f 364 300 24
f 303 536 237
f 15 652 509
f 16 437 20
f 769 574 13
f 62 371 457
f 724 593 787
f 332 708 50
f 50 46 332
f 471 46 50
f 748 392 40
f 265 782 37
f 708 265 37
f 32 467 383
f 308 349 469
f 508 383 27
f 404 760 478
f 349 308 18
f 814 739 7
f 552 701 10
f 206 336 61
f 627 411 68
f 662 521 71
f 37 47 455
f 516 749 25
f 782 517 37
f 611 22 288
f 654 334 372
f 716 699 4
f 236 638 445
f 334 712 236
f 61 323 676
f 741 518 42
f 475 518 673
f 605 411 323
f 250 321 42
f 452 379 45
f 661 310 512
f 389 804 34
f 804 310 34
f 189 684 296
f 189 298 26
f 655 38 548
f 363 21 445
f 8 813 581
f 624 451 29
f 66 412 673
f 394 77 204
f 73 57 263
f 204 333 73
f 452 529 57
f 58 523 315
f 78 75 264
f 49 251 525
f 393 753 535
f 65 376 609
f 398 72 302
f 326 535 753
f 23 451 657
f 575 789 179
f 830 473 182
f 35 842 546
f 244 20 24
f 43 840 35
f 414 136 285
f 311 136 377
f 664 722 796
f 7 504 449
f 24 682 244
f 825 439 12
f 172 757 632
f 771 802 338
f 557 698 633
f 478 615 188
f 702 296 813
f 296 382 189
f 433 116 595
f 160 524 587
f 255 156 327
f 760 469 615
f 589 120 401
f 305 779 564
f 34 505 192
f 192 378 259
f 32 383 194
f 198 195 146
f 51 391 258
f 257 115 549
f 827 396 31
f 389 34 192
f 264 538 774
f 197 46 392
f 803 266 613
f 402 481 330
f 313 540 137
f 86 399 200
f 464 537 132
f 61 406 202
f 528 202 455
f 274 98 329
f 274 272 453
f 77 66 204
f 545 73 607
f 312 201 132
f 208 77 84
f 85 242 651
f 622 540 477
f 709 110 210
f 519 324 121
f 79 74 69
f 602 691 341
f 498 175 643
f 592 169 235
f 216 509 672
f 690 621 217
f 554 219 613
f 275 442 220
f 325 100 212
f 292 222 552
f 786 223 725
f 649 772 224
f 400 644 225
f 463 297 176
f 336 471 50
f 384 662 62
f 553 293 226
f 201 123 408
f 768 446 175
f 165 514 663
f 154 658 513
f 500 230 596
f 95 695 648
f 695 832 338
f 317 612 231
f 49 44 302
f 636 494 839
f 696 496 233
f 266 743 234
f 616 833 235
f 411 627 807
f 638 778 417
f 21 512 659
f 18 769 13
f 303 27 748
f 758 193 238
f 760 404 239
f 447 665 25
f 130 678 257
f 499 688 240
f 397 240 155
f 241 674 90
f 196 309 444
f 718 96 503
f 266 803 74
f 590 388 243
f 546 740 35
f 792 245 183
f 148 714 650
f 744 685 295
f 327 788 195
f 75 249 538
f 459 527 252
f 472 806 124
f 748 544 303
f 408 464 132
f 254 313 137
f 395 785 120
f 327 156 788
f 191 314 405
f 256 114 205
f 312 828 337
f 391 51 63
f 389 192 259
f 600 260 92
f 101 758 666
f 390 104 304
f 614 465 541
f 605 68 411
f 531 122 614
f 57 73 333
f 57 403 263
f 317 69 74
f 726 200 87
f 88 268 534
f 726 409 78
f 181 694 269
f 559 269 418
f 270 70 407
f 330 622 110
f 412 77 208
f 593 52 55
f 274 453 98
f 386 109 272
f 365 628 273
f 488 275 220
f 276 142 690
f 483 635 570
f 485 721 572
f 721 765 277
f 694 168 269
f 775 278 419
f 733 279 3
f 504 7 729
f 634 420 497
f 698 125 633
f 281 705 568
f 781 380 281
f 461 282 351
f 487 566 671
f 660 12 439
f 124 284 118
f 225 463 400
f 509 216 11
f 812 790 620
f 167 664 796
f 838 288 22
f 749 516 288
f 36 839 289
f 434 585 232
f 707 171 640
f 508 291 18
f 222 814 7
f 552 10 746
f 554 800 416
f 496 696 381
f 456 770 129
f 833 685 555
f 151 533 744
f 189 795 684
f 296 510 382
f 246 653 297
f 378 548 38
f 229 624 382
f 556 470 148
f 300 364 19
f 300 30 682
f 137 645 254
f 535 302 72
f 810 67 398
f 536 28 19
f 104 390 261
f 595 193 103
f 113 642 381
f 843 831 218
f 126 115 678
f 416 826 89
f 152 539 144
f 641 436 594
f 149 340 603
f 243 306 152
f 96 584 648
f 308 194 383
f 651 94 309
f 396 804 45
f 661 34 310
f 247 650 138
f 527 271 127
f 714 148 311
f 604 550 69
f 267 591 141
f 412 475 673
f 191 405 166
f 65 315 523
f 58 38 251
f 747 316 628
f 59 231 48
f 318 457 610
f 472 385 319
f 320 101 386
f 741 42 321
f 253 322 39
f 68 605 56
f 113 456 542
f 545 607 81
f 376 65 523
f 523 326 753
f 156 255 314
f 328 196 249
f 534 674 88
f 752 87 399
f 465 679 261
f 243 144 590
f 774 538 196
f 805 515 203
f 547 401 785
f 197 265 332
f 197 332 46
f 66 379 333
f 123 201 226
f 476 226 201
f 10 576 372
f 334 236 579
f 725 223 335
f 335 127 625
f 336 50 406
f 336 206 521
f 337 205 410
f 489 338 106
f 211 109 519
f 339 270 407
f 764 387 340
f 387 764 362
f 740 43 35
f 761 585 494
f 571 668 213
f 687 844 17
f 634 82 571
f 343 497 450
f 179 750 575
f 631 692 174
f 142 345 690
f 621 690 345
f 346 269 168
f 347 482 846
f 693 491 5
f 161 432 348
f 188 426 739
f 280 634 571
f 775 637 278
f 353 495 428
f 245 158 354
f 244 355 20
f 142 276 808
f 802 105 727
f 105 103 727
f 731 185 358
f 832 106 338
f 480 115 126
f 746 10 372
f 6 282 578
f 362 190 387
f 815 514 172
f 21 363 505
f 364 652 19
f 24 437 364
f 766 655 29
f 647 784 135
f 273 121 324
f 782 265 447
f 366 167 587
f 511 166 173
f 277 631 367
f 532 768 367
f 299 556 368
f 650 597 368
f 370 150 459
f 151 744 370
f 457 371 55
f 780 654 491
f 468 209 706
f 209 719 588
f 93 94 608
f 373 102 656
f 397 779 240
f 327 623 153
f 537 145 623
f 166 524 191
f 409 609 78
f 376 753 75
f 134 199 462
f 147 811 522
f 26 378 192
f 58 458 38
f 452 333 379
f 673 379 66
f 687 380 781
f 756 829 36
f 294 770 696
f 770 456 113
f 382 510 229
f 194 308 469
f 467 32 197
f 62 318 384
f 392 384 318
f 701 576 10
f 504 729 3
f 519 542 324
f 133 319 385
f 99 386 272
f 387 603 340
f 388 131 316
f 389 452 804
f 529 259 458
f 390 304 98
f 390 107 261
f 391 48 258
f 391 63 604
f 467 27 383
f 384 392 46
f 322 253 52
f 393 72 468
f 674 821 88
f 395 120 257
f 396 321 31
f 396 310 804
f 477 540 313
f 783 302 44
f 398 67 72
f 250 586 33
f 399 87 200
f 444 93 600
f 428 644 177
f 785 401 120
f 257 589 130
f 199 481 462
f 402 330 465
f 458 403 529
f 516 404 677
f 404 478 292
f 406 61 336
f 406 455 202
f 141 327 195
f 660 224 283
f 123 254 408
f 409 726 268
f 476 337 410
f 61 676 206
f 323 807 676
f 56 518 68
f 412 208 76
f 171 413 227
f 460 290 415
f 550 270 339
f 221 97 369
f 405 173 166
f 176 490 575
f 211 121 117
f 638 581 14
f 9 780 567
f 380 687 606
f 483 799 755
f 283 772 566
f 772 649 775
f 95 497 420
f 719 577 83
f 646 691 82
f 532 723 171
f 820 170 563
f 818 669 617
f 636 602 341
f 732 344 561
f 279 733 423
f 562 793 759
f 425 11 216
f 745 349 13
f 543 739 426
f 801 837 214
f 557 816 119
f 808 427 142
f 495 722 428
f 129 365 273
f 429 513 149
f 757 187 479
f 236 659 579
f 431 22 360
f 255 153 704
f 193 595 238
f 116 822 496
f 232 810 398
f 776 60 506
f 756 289 434
f 503 608 94
f 357 435 96
f 305 539 436
f 362 594 436
f 672 720 619
f 510 660 229
f 439 492 657
f 102 101 260
f 276 690 441
f 798 441 629
f 36 220 442
f 611 677 746
f 131 590 443
f 14 363 445
f 445 21 659
f 580 643 446
f 768 532 446
f 365 747 628
f 469 760 665
f 447 32 194
f 92 320 91
f 788 146 195
f 288 838 448
f 448 517 749
f 639 5 449
f 449 222 7
f 374 147 522
f 450 83 717
f 657 624 229
f 655 766 525
f 535 49 302
f 398 783 232
f 309 93 444
f 452 389 529
f 388 140 243
f 124 786 284
f 522 811 199
f 397 454 147
f 455 47 528
f 708 406 50
f 456 129 273
f 457 55 610
f 371 62 474
f 753 376 523
f 378 458 259
f 139 459 252
f 597 459 150
f 461 351 180
f 461 3 729
f 711 589 401
f 481 199 540
f 463 750 400
f 464 254 645
f 145 537 464
f 70 598 52
f 264 774 200
f 200 726 264
f 26 548 378
f 41 466 30
f 466 682 30
f 467 197 392
f 209 67 776
f 469 349 615
f 469 665 194
f 268 81 409
f 88 81 268
f 173 405 246
f 470 556 158
f 470 311 148
f 609 263 65
f 65 263 403
f 45 741 321
f 107 262 541
f 74 79 266
f 828 385 256
f 202 323 61
f 338 489 771
f 473 791 182
f 283 742 12
f 474 62 71
f 475 76 627
f 210 112 709
f 476 553 226
f 678 414 126
f 740 184 244
f 245 354 183
f 114 256 118
f 15 769 715
f 210 477 728
f 340 513 658
f 80 79 550
f 478 188 814
f 479 500 168
f 359 803 219
f 115 480 111
f 287 495 592
f 481 622 330
f 481 402 462
f 296 702 510
f 45 321 396
f 558 846 734
f 491 693 347
f 418 736 559
f 596 755 346
f 277 768 721
f 181 486 694
f 742 487 791
f 220 606 488
f 345 633 738
f 630 689 119
f 344 575 490
f 491 576 5
f 347 780 491
f 23 657 492
f 705 756 434
f 699 716 637
f 417 8 581
f 421 761 341
f 796 722 495
f 735 495 353
f 822 573 496
f 95 584 497
f 343 634 497
f 762 572 498
f 499 164 688
f 707 440 413
f 563 161 348
f 246 170 767
f 187 764 230
f 668 571 501
f 501 730 668
f 502 489 106
f 307 718 242
f 504 279 639
f 427 808 599
f 795 505 363
f 506 60 761
f 577 719 506
f 507 777 432
f 136 311 143
f 714 377 711
f 6 700 2
f 361 574 228
f 508 18 308
f 15 11 228
f 429 565 513
f 430 594 362
f 663 580 227
f 331 415 515
f 33 47 517
f 517 448 33
f 349 18 13
f 518 475 68
f 42 518 56
f 451 23 568
f 109 211 683
f 745 13 520
f 6 578 520
f 521 662 336
f 147 374 779
f 523 58 326
f 315 65 403
f 366 587 524
f 466 41 258
f 294 784 129
f 431 835 22
f 251 49 326
f 568 766 451
f 526 435 103
f 193 373 526
f 806 127 223
f 527 459 247
f 455 708 37
f 313 728 477
f 55 52 253
f 322 41 681
f 321 250 31
f 528 56 605
f 528 586 56
f 143 470 245
f 600 86 444
f 529 389 259
f 267 198 133
f 385 828 133
f 300 681 30
f 117 316 531
f 531 131 122
f 532 367 723
f 93 309 94
f 248 160 533
f 685 744 533
f 534 329 674
f 87 268 726
f 535 72 393
f 589 711 377
f 63 51 598
f 392 318 40
f 156 314 191
f 438 812 620
f 537 623 141
f 591 132 537
f 249 75 393
f 774 196 444
f 190 539 152
f 539 564 144
f 540 811 137
f 683 107 453
f 88 394 81
f 325 819 100
f 324 456 273
f 739 729 7
f 543 578 282
f 472 118 385
f 544 40 610
f 315 403 458
f 73 545 204
f 3 461 180
f 158 438 163
f 143 285 136
f 370 710 151
f 114 118 284
f 118 256 385
f 612 317 64
f 515 805 331
f 547 625 128
f 38 655 251
f 548 26 298
f 549 395 257
f 306 140 603
f 452 57 333
f 552 222 701
f 552 677 292
f 301 454 397
f 272 274 99
f 221 809 97
f 581 638 417
f 555 796 287
f 101 102 758
f 597 650 247
f 686 689 489
f 698 818 617
f 799 162 736
f 845 442 737
f 692 631 561
f 632 759 342
f 563 348 164
f 170 820 767
f 779 305 157
f 374 680 564
f 565 154 513
f 647 429 784
f 566 742 283
f 699 778 567
f 780 4 567
f 434 783 705
f 569 667 484
f 799 798 162
f 570 276 441
f 280 213 350
f 175 572 721
f 762 485 572
f 427 816 754
f 573 233 496
f 574 520 13
f 58 251 326
f 701 449 5
f 576 491 654
f 646 717 577
f 577 506 421
f 520 426 745
f 722 225 644
f 372 579 360
f 579 431 360
f 580 342 643
f 580 663 815
f 748 27 467
f 508 237 291
f 8 417 493
f 581 813 14
f 582 250 33
f 582 31 250
f 499 157 440
f 583 1 482
f 583 423 1
f 450 307 83
f 585 289 494
f 19 715 536
f 586 528 47
f 586 42 56
f 587 685 533
f 587 167 555
f 588 83 242
f 588 85 706
f 439 825 492
f 155 301 397
f 145 507 623
f 401 128 711
f 590 131 388
f 680 590 144
f 591 312 132
f 591 267 530
f 592 735 215
f 592 235 287
f 593 371 787
f 593 70 52
f 594 430 514
f 704 161 626
f 596 154 755
f 658 596 230
f 475 412 76
f 749 782 25
f 247 459 597
f 159 150 295
f 435 503 96
f 598 322 52
f 598 70 63
f 827 310 396
f 356 647 599
f 599 233 427
f 600 93 656
f 601 666 519
f 109 601 519
f 602 501 691
f 603 551 149
f 603 387 306
f 478 814 292
f 604 59 391
f 99 91 320
f 198 710 319
f 605 323 202
f 202 528 605
f 166 366 524
f 606 763 488
f 72 67 468
f 607 73 263
f 607 409 81
f 158 245 470
f 500 479 187
f 85 651 309
f 503 526 608
f 608 373 656
f 78 376 75
f 607 609 409
f 784 703 129
f 610 40 318
f 610 55 253
f 542 666 238
f 516 611 288
f 611 746 360
f 286 840 612
f 234 800 613
f 402 465 614
f 123 313 254
f 533 160 587
f 248 375 160
f 86 92 399
f 253 39 544
f 505 795 192
f 426 520 578
f 258 41 51
f 262 117 531
f 25 239 516
f 616 159 295
f 818 686 489
f 619 437 16
f 169 812 751
f 11 425 361
f 621 345 738
f 660 283 12
f 622 481 540
f 622 210 110
f 623 507 153
f 541 261 107
f 45 379 741
f 379 673 741
f 108 290 460
f 460 331 785
f 394 204 545
f 84 77 394
f 298 29 548
f 625 547 805
f 625 127 271
f 626 161 170
f 626 246 405
f 293 112 728
f 627 68 475
f 169 751 235
f 291 237 536
f 769 18 291
f 134 522 199
f 190 436 539
f 681 300 28
f 628 316 117
f 217 629 441
f 630 433 105
f 561 277 765
f 631 174 422
f 694 817 479
f 844 781 492
f 633 345 754
f 420 280 797
f 356 635 565
f 483 755 635
f 636 341 494
f 637 493 699
f 716 801 637
f 9 778 712
f 638 14 445
f 358 106 834
f 834 773 569
f 583 693 639
f 639 449 504
f 616 295 833
f 164 707 640
f 723 820 640
f 641 157 305
f 2 351 282
f 642 113 238
f 28 303 39
f 303 237 27
f 264 75 538
f 477 210 622
f 839 36 442
f 340 149 513
f 643 342 697
f 643 175 446
f 225 722 664
f 644 400 618
f 645 145 464
f 645 137 454
f 717 646 343
f 646 421 691
f 344 732 789
f 647 356 565
f 647 135 599
f 648 357 96
f 224 702 649
f 493 775 649
f 552 746 677
f 242 85 588
f 459 139 370
f 715 652 15
f 364 720 652
f 346 168 500
f 346 418 269
f 170 246 626
f 653 174 490
f 4 347 841
f 654 372 576
f 334 9 712
f 655 525 251
f 151 248 533
f 656 260 600
f 116 433 822
f 777 507 301
f 658 154 596
f 658 230 340
f 543 426 578
f 427 233 573
f 201 312 476
f 742 566 487
f 3 279 504
f 274 752 91
f 752 274 329
f 659 236 445
f 659 431 579
f 468 249 393
f 375 248 788
f 660 439 229
f 660 510 224
f 661 21 505
f 176 653 490
f 297 463 186
f 471 336 662
f 662 71 62
f 662 384 471
f 514 165 594
f 663 227 413
f 60 232 585
f 531 614 262
f 122 131 443
f 503 435 526
f 790 812 169
f 366 511 664
f 256 205 337
f 840 43 48
f 665 239 25
f 665 447 194
f 666 542 519
f 243 152 144
f 299 751 438
f 158 163 354
f 667 797 350
f 730 501 602
f 669 502 185
f 423 583 279
f 670 400 750
f 419 836 671
f 227 446 532
f 198 267 195
f 518 741 673
f 674 241 821
f 674 329 90
f 282 6 2
f 66 77 412
f 362 764 675
f 187 757 675
f 382 298 189
f 568 23 281
f 44 766 568
f 783 398 302
f 549 111 212
f 677 404 292
f 679 104 261
f 679 465 330
f 683 453 272
f 319 133 198
f 680 144 564
f 680 374 134
f 681 39 322
f 681 41 30
f 682 24 300
f 466 740 682
f 317 59 69
f 683 272 109
f 683 211 262
f 271 527 247
f 397 147 779
f 152 306 190
f 299 159 616
f 795 189 26
f 14 684 363
f 833 295 685
f 686 557 689
f 813 8 702
f 86 600 92
f 225 186 463
f 517 782 749
f 687 17 763
f 687 781 844
f 688 164 348
f 688 155 240
f 755 418 346
f 689 557 119
f 630 771 689
f 356 570 635
f 754 142 427
f 690 217 441
f 667 569 797
f 280 420 634
f 691 421 341
f 501 82 691
f 692 490 174
f 693 482 347
f 694 479 168
f 562 486 793
f 695 357 648
f 834 832 773
f 496 381 116
f 696 233 135
f 825 12 473
f 697 498 643
f 824 697 759
f 698 617 125
f 698 557 686
f 699 567 4
f 699 493 417
f 700 6 361
f 815 632 342
f 576 701 5
f 701 222 449
f 502 106 358
f 702 8 649
f 702 224 510
f 703 365 129
f 703 429 149
f 704 314 255
f 704 153 432
f 705 281 756
f 705 44 568
f 706 328 468
f 706 209 588
f 707 413 171
f 707 164 499
f 235 833 287
f 64 317 74
f 829 606 220
f 234 613 266
f 708 332 265
f 708 455 406
f 710 139 319
f 710 146 151
f 458 378 38
f 711 138 714
f 711 128 138
f 32 447 265
f 9 334 654
f 712 638 236
f 713 89 97
f 343 82 634
f 714 138 650
f 714 311 377
f 769 15 228
f 715 291 536
f 4 841 716
f 717 343 450
f 717 83 577
f 94 651 718
f 671 566 419
f 419 278 836
f 209 776 719
f 719 83 588
f 167 366 664
f 143 311 470
f 720 509 652
f 720 364 437
f 721 485 765
f 722 644 428
f 723 640 171
f 146 248 151
f 511 366 166
f 664 511 225
f 413 440 165
f 663 413 165
f 373 193 758
f 724 70 593
f 609 607 263
f 507 145 301
f 594 165 641
f 726 78 264
f 268 87 534
f 727 357 802
f 727 103 435
f 684 813 296
f 584 95 648
f 450 497 584
f 543 461 729
f 11 361 228
f 109 386 601
f 730 602 54
f 732 561 178
f 733 3 180
f 734 482 1
f 735 592 495
f 418 799 736
f 737 442 275
f 738 633 125
f 190 306 387
f 739 543 729
f 330 110 679
f 740 244 682
f 43 466 258
f 657 451 624
f 462 443 134
f 98 90 329
f 770 113 381
f 324 542 456
f 839 494 289
f 239 404 516
f 55 371 593
f 742 473 12
f 430 362 675
f 628 117 121
f 743 79 80
f 318 62 457
f 298 382 624
f 744 295 150
f 349 745 615
f 745 188 615
f 394 821 84
f 34 661 505
f 29 298 624
f 655 548 29
f 530 312 591
f 312 337 476
f 372 360 746
f 677 611 516
f 520 574 6
f 747 388 316
f 747 551 140
f 582 835 827
f 748 40 544
f 604 270 550
f 749 288 448
f 237 508 27
f 46 471 384
f 395 549 108
f 750 176 575
f 750 179 670
f 642 116 381
f 642 595 116
f 535 326 49
f 753 393 75
f 838 33 448
f 250 42 586
f 529 403 57
f 372 334 579
f 148 368 556
f 754 557 633
f 816 427 573
f 755 154 635
f 829 281 380
f 756 36 289
f 757 479 817
f 172 675 757
f 758 102 373
f 758 238 666
f 759 697 342
f 632 817 759
f 760 615 478
f 760 239 665
f 761 494 341
f 761 421 506
f 269 559 181
f 762 498 424
f 763 606 687
f 764 187 675
f 764 340 230
f 277 561 631
f 765 823 178
f 766 44 525
f 766 29 451
f 150 370 744
f 767 653 246
f 767 422 174
f 313 123 728
f 768 175 721
f 768 277 367
f 769 291 715
f 769 228 574
f 103 105 433
f 770 294 129
f 770 381 696
f 771 489 689
f 772 283 224
f 772 419 566
f 70 270 63
f 367 422 723
f 832 95 773
f 797 773 420
f 209 468 67
f 774 86 200
f 536 303 28
f 775 493 637
f 775 419 772
f 5 639 693
f 776 506 719
f 777 155 688
f 777 348 432
f 778 638 712
f 778 9 567
f 779 157 240
f 779 374 564
f 780 9 654
f 780 347 4
f 82 501 571
f 781 281 23
f 782 447 25
f 783 44 705
f 783 434 232
f 437 24 20
f 784 429 703
f 784 294 135
f 547 785 331
f 785 395 460
f 47 33 586
f 37 517 47
f 238 113 542
f 314 626 405
f 223 127 335
f 787 371 474
f 458 58 315
f 443 680 134
f 175 498 572
f 788 156 375
f 731 834 484
f 141 195 267
f 789 575 344
f 790 169 215
f 428 177 353
f 791 473 742
f 792 143 245
f 486 562 694
f 636 845 794
f 795 26 192
f 795 363 684
f 796 495 287
f 796 555 167
f 797 280 350
f 188 745 426
f 798 629 162
f 798 483 570
f 551 747 365
f 799 418 755
f 799 483 798
f 307 450 584
f 800 554 613
f 826 416 800
f 225 511 186
f 715 19 652
f 801 278 637
f 801 214 352
f 204 66 333
f 802 695 338
f 802 771 105
f 803 64 74
f 803 613 219
f 92 260 320
f 804 452 45
f 153 255 327
f 805 547 331
f 805 203 335
f 146 710 198
f 806 223 124
f 806 472 252
f 196 328 309
f 807 323 411
f 808 356 599
f 463 176 750
f 809 325 218
f 810 232 60
f 810 776 67
f 265 197 32
f 601 386 101
f 22 611 360
f 679 207 104
f 653 176 297
f 96 307 584
f 165 440 641
f 140 306 243
f 574 361 6
f 811 540 199
f 811 454 137
f 812 438 751
f 684 14 813
f 720 672 509
f 685 587 555
f 503 94 718
f 814 188 739
f 814 222 292
f 344 692 561
f 512 21 661
f 431 659 512
f 752 329 534
f 128 625 271
f 815 663 514
f 815 172 632
f 816 557 754
f 816 573 119
f 817 562 759
f 817 632 757
f 818 698 686
f 818 502 669
f 808 276 356
f 230 500 187
f 606 829 380
f 837 801 716
f 697 424 498
f 819 325 221
f 820 422 767
f 820 563 640
f 172 430 675
f 821 394 88
f 44 49 525
f 822 119 573
f 822 433 630
f 110 709 207
f 823 765 485
f 136 414 130
f 143 792 285
f 824 759 793
f 226 728 123
f 570 356 276
f 473 830 825
f 825 844 492
f 461 543 282
f 773 797 569
f 826 800 234
f 827 31 582
f 835 512 827
f 828 530 133
f 828 256 337
f 697 824 424
f 829 756 281
f 829 220 36
f 100 108 212
f 257 678 115
f 43 740 466
f 830 182 560
f 844 825 830
f 124 223 786
f 831 111 480
f 331 460 415
f 832 834 106
f 832 695 95
f 310 827 512
f 833 555 287
f 636 54 602
f 834 569 484
f 834 731 358
f 130 414 678
f 835 431 512
f 582 838 835
f 836 278 352
f 837 716 841
f 837 558 214
f 838 22 835
f 838 582 33
f 108 100 290
f 442 845 839
f 840 286 35
f 840 231 612
f 846 837 841
f 325 843 218
f 636 794 54
f 842 35 286
f 347 846 841
f 843 111 831
f 843 325 212
f 821 847 84
f 844 830 560
f 126 414 285
f 53 64 359
f 98 304 90
f 845 737 794
f 845 636 839
f 846 482 734
f 846 558 837
f 847 821 241
