# pattern_smooth best-fit FEM (phase 3), RMSE 6.852 mm
# params: /home/chaoyu/phd_simulation/FDM/optimisation/pattern_smooth_rm2_uniform_splineonly_e01_sI_fol_result.json
v -0.07938931 -1.09618321 0.00000000
v -0.06995171 -1.07638685 0.01381301
v -0.05834749 -1.05214264 0.03075602
v -0.04778817 -1.03023622 0.04611776
v -0.03789722 -1.01000787 0.06030489
v -0.02603193 -0.98956430 0.07284831
v -0.01343322 -0.96805860 0.08612275
v -0.00149032 -0.94787520 0.09865873
v 0.01149263 -0.92615054 0.11223886
v 0.02886943 -0.90567845 0.12225604
v 0.04837363 -0.88319758 0.13316453
v 0.06857079 -0.86008138 0.14444068
v 0.08813418 -0.83780664 0.15536077
v 0.10760534 -0.81809835 0.16251899
v 0.12880781 -0.79801255 0.16825895
v 0.15089769 -0.77709777 0.17428321
v 0.17042085 -0.75860470 0.17965037
v 0.19765390 -0.74759391 0.17239195
v 0.22501291 -0.73655551 0.16517977
v 0.25200090 -0.72568858 0.15813233
v 0.27746888 -0.71840086 0.14570388
v 0.30391853 -0.71169310 0.13123182
v 0.32959628 -0.70522426 0.11722003
v 0.35455370 -0.69897649 0.10362655
v 0.38358500 -0.69175495 0.08783435
v 0.41279357 -0.68453149 0.07195631
v 0.43740688 -0.68126857 0.05351589
v 0.45721551 -0.67946725 0.03725127
v 0.47878028 -0.67753504 0.01954813
v 0.50259542 -0.67541985 0.00000000
v 0.49039294 -0.64682028 0.00000000
v 0.47705156 -0.61803819 0.00000000
v 0.46219909 -0.58938171 0.00000000
v 0.44711907 -0.56028611 0.00000000
v 0.43466338 -0.53625399 0.00000000
v 0.42199442 -0.50695223 0.00000000
v 0.40936106 -0.47587015 0.00000000
v 0.39826563 -0.44857187 0.00000000
v 0.38812015 -0.41671655 0.00000000
v 0.38008588 -0.38478035 0.00000000
v 0.37192372 -0.35233574 0.00000000
v 0.36496608 -0.31949785 0.00000000
v 0.35986056 -0.29113373 0.00000000
v 0.35446270 -0.26114571 0.00000000
v 0.35120710 -0.23184222 0.00000000
v 0.35003794 -0.20144447 0.00000000
v 0.34889887 -0.17182895 0.00000000
v 0.34956442 -0.13632195 0.00000000
v 0.35236641 -0.10870229 0.00000000
v 0.32952501 -0.12181487 0.00741553
v 0.30072253 -0.13825202 0.01670007
v 0.27431984 -0.15308487 0.02501484
v 0.25055404 -0.16633031 0.03245757
v 0.22529288 -0.18029766 0.04032289
v 0.19818121 -0.19481303 0.04833715
v 0.17164691 -0.20877220 0.05597369
v 0.14316969 -0.22216454 0.06306056
v 0.11700595 -0.23311592 0.06861939
v 0.08997029 -0.24436083 0.07430411
v 0.05611337 -0.25678669 0.08005774
v 0.02254204 -0.26914334 0.08576077
v -0.00971839 -0.27936227 0.09015981
v -0.04165619 -0.28871761 0.09399410
v -0.07122427 -0.29414707 0.09604831
v -0.10452211 -0.29936946 0.09793219
v -0.13897552 -0.30271790 0.09893548
v -0.17026521 -0.30443563 0.09923455
v -0.20111645 -0.30616022 0.09952790
v -0.22982032 -0.30330442 0.09802629
v -0.26247783 -0.29878164 0.09580132
v -0.29634209 -0.29395754 0.09342123
v -0.32816862 -0.28618229 0.08961744
v -0.36431859 -0.27725837 0.08525435
v -0.39762202 -0.26709243 0.08035152
v -0.42696390 -0.25541372 0.07479580
v -0.45437524 -0.24444853 0.06958703
v -0.48257664 -0.23100417 0.06316327
v -0.51040953 -0.21677726 0.05635996
v -0.53348984 -0.20493871 0.05070849
v -0.55541325 -0.19367257 0.04533839
v -0.58530059 -0.17440856 0.03613097
v -0.61303196 -0.15649183 0.02757872
v -0.63925964 -0.13953630 0.01949307
v -0.66760213 -0.12009497 0.01017312
v -0.69740458 -0.09893130 0.00000000
v -0.68318393 -0.12367209 0.00914191
v -0.66735739 -0.15121451 0.01932149
v -0.65550902 -0.17184241 0.02694943
v -0.64367102 -0.19275418 0.03460686
v -0.63277089 -0.21672548 0.04211876
v -0.62059490 -0.24352210 0.05052503
v -0.60836072 -0.27048469 0.05899487
v -0.59647052 -0.29755722 0.06727215
v -0.58769360 -0.32687795 0.07358516
v -0.57892929 -0.35629553 0.07993115
v -0.56962983 -0.38770384 0.08672128
v -0.56071800 -0.41945109 0.09320428
v -0.55462343 -0.45460170 0.09688790
v -0.54887310 -0.48815289 0.10043162
v -0.54350417 -0.51979761 0.10380263
v -0.53835396 -0.55040433 0.10709557
v -0.53807244 -0.58403717 0.10592282
v -0.53808211 -0.61623851 0.10461538
v -0.53811360 -0.64852876 0.10334437
v -0.53815740 -0.68041630 0.10213004
v -0.54257423 -0.70974215 0.09793994
v -0.55167314 -0.73968024 0.09045268
v -0.56056347 -0.76890009 0.08318662
v -0.56885889 -0.79613124 0.07644482
v -0.57732791 -0.82390999 0.06959353
v -0.58643602 -0.85378848 0.06225325
v -0.59403928 -0.87645343 0.05622299
v -0.60602947 -0.89858295 0.04722454
v -0.61843250 -0.92149238 0.03794005
v -0.63074073 -0.94423940 0.02874545
v -0.64257470 -0.96611851 0.01991836
v -0.65584131 -0.99065368 0.01003290
v -0.66931298 -1.01557252 0.00000000
v -0.65379136 -1.00135959 0.00831720
v -0.63425783 -0.98348937 0.01878946
v -0.61535824 -0.96623373 0.02893580
v -0.59277383 -0.94567367 0.04109040
v -0.56943296 -0.92450462 0.05370702
v -0.54691193 -0.90455667 0.06570440
v -0.51841395 -0.88599172 0.07681348
v -0.49346318 -0.86980961 0.08664004
v -0.46769550 -0.85371747 0.09664196
v -0.43534026 -0.84924084 0.10190533
v -0.39785405 -0.84412094 0.10810849
v -0.36517726 -0.84847273 0.10865427
v -0.33147189 -0.85467689 0.10835977
v -0.30701640 -0.86866810 0.10325884
v -0.27999051 -0.88429741 0.09763036
v -0.25317692 -0.89981815 0.09213207
v -0.23253974 -0.91847492 0.08391663
v -0.21094902 -0.93859879 0.07505376
v -0.18862371 -0.95947938 0.06594097
v -0.16715714 -0.98094306 0.05634825
v -0.14834228 -1.00536525 0.04433073
v -0.12959227 -1.02985133 0.03234148
v -0.11174087 -1.05332255 0.02088478
v -0.09386091 -1.07697572 0.00935721
v -0.12267452 -0.82389533 0.11479749
v -0.32228481 -0.31528373 0.10194620
v -0.32063530 -0.34535298 0.11319403
v -0.32045468 -0.37588026 0.12318499
v -0.32038229 -0.40669584 0.13189364
v -0.32032637 -0.43776526 0.13929354
v -0.32028879 -0.46868445 0.14515158
v -0.32022876 -0.49980004 0.14982815
v -0.32013449 -0.53095214 0.15324621
v -0.31999168 -0.56188647 0.15528367
v -0.31985532 -0.59291552 0.15612858
v -0.31970008 -0.62389924 0.15570956
v -0.31954010 -0.65484486 0.15402315
v -0.31941540 -0.68575717 0.15114474
v -0.31931680 -0.71646719 0.14696887
v -0.31927798 -0.74735756 0.14138374
v -0.31931269 -0.77821627 0.13434686
v -0.31915937 -0.80886350 0.12592977
v -0.31676043 -0.83978203 0.11576571
v -0.13158577 -0.33119709 0.11091649
v -0.12962497 -0.36108607 0.12227699
v -0.12811258 -0.39139803 0.13197564
v -0.12543493 -0.42134656 0.13988012
v -0.12258673 -0.45145710 0.14626195
v -0.12028129 -0.48197686 0.15112392
v -0.11918155 -0.51281940 0.15444498
v -0.11957620 -0.54376276 0.15608677
v -0.12118552 -0.57484374 0.15630904
v -0.12374461 -0.60586626 0.15517381
v -0.12658229 -0.63690859 0.15274524
v -0.12831492 -0.66807296 0.14905430
v -0.12875656 -0.69940236 0.14418850
v -0.12790178 -0.73047277 0.13824212
v -0.12541420 -0.76140139 0.13143729
v -0.12314669 -0.79267721 0.12357229
v -0.11570460 -0.85425787 0.10553055
v -0.10929457 -0.88486781 0.09577513
v -0.10221151 -0.91461552 0.08683663
v -0.09524239 -0.94494642 0.07610731
v -0.08829164 -0.97518835 0.06453331
v -0.08406028 -1.00600395 0.05087893
v -0.08315345 -1.03595333 0.03546958
v -0.08227454 -1.06619105 0.01803015
v 0.33190153 -0.13157868 0.00869886
v 0.31207209 -0.15518615 0.01927468
v 0.29137926 -0.17784694 0.03238293
v 0.26934113 -0.19960269 0.04578749
v 0.24674982 -0.22130731 0.06030476
v 0.22476528 -0.24317092 0.07542016
v 0.20405190 -0.26538898 0.09078860
v 0.18463243 -0.28905509 0.10678011
v 0.16639720 -0.31334999 0.12240450
v 0.14900652 -0.33866235 0.13716076
v 0.13156073 -0.36397762 0.15032465
v 0.11352332 -0.38894102 0.16130404
v 0.09582249 -0.41435863 0.17046711
v 0.07887470 -0.44052140 0.17786399
v 0.06143606 -0.46626743 0.18296243
v 0.04335037 -0.49143240 0.18540289
v 0.02433327 -0.51566321 0.18529269
v 0.00547959 -0.53994551 0.18298019
v -0.01235532 -0.56510701 0.17941023
v -0.02882702 -0.59137104 0.17479665
v -0.04496939 -0.61812295 0.16950600
v -0.06036425 -0.64538115 0.16333774
v -0.07492670 -0.67353222 0.15646813
v -0.08713778 -0.70312656 0.14975031
v -0.09570210 -0.73377176 0.14227476
v -0.10287330 -0.76479571 0.13409934
v -0.11074066 -0.79508351 0.12486461
v -0.34404927 -0.82834914 0.11781174
v 0.44638984 -0.64272197 0.04848295
v 0.33624249 -0.15365282 0.00939287
v 0.46740793 -0.65584503 0.02743508
v -0.61161996 -0.93973739 0.03738433
v -0.59439855 -0.92175621 0.04800628
v -0.56035212 -0.87429035 0.07118561
v -0.63191456 -0.17010458 0.03347402
v -0.56536622 -0.23934681 0.06162024
v -0.06163917 -1.01233606 0.05321752
v -0.05046593 -0.96119130 0.08149312
v 0.32864691 -0.65640225 0.14648593
v 0.42403019 -0.65874256 0.06891238
v 0.32573849 -0.17539557 0.01852564
v 0.46660992 -0.63400543 0.02515609
v 0.45683751 -0.61074951 0.02767667
v -0.57780036 -0.89851727 0.05950912
v -0.61812328 -0.19322201 0.04295782
v -0.55401839 -0.21812051 0.05523689
v -0.06375497 -0.98587744 0.06639334
v -0.03336795 -0.97116501 0.08096330
v -0.02505745 -0.94773389 0.09470661
v 0.33801909 -0.68200314 0.12725041
v 0.42804060 -0.58535818 0.05506498
v -0.58512204 -0.20583252 0.04901563
v -0.53052983 -0.24420334 0.06627774
v -0.04555228 -0.99251916 0.06757332
v 0.36703319 -0.65958910 0.11405808
v 0.30101215 -0.67846519 0.15846560
v -0.52869473 -0.22445813 0.05890229
v 0.34831735 -0.66533591 0.12697153
v 0.34714619 -0.63653902 0.13749650
v 0.31843603 -0.69043476 0.13740752
v -0.52225938 -0.82398580 0.09253183
v -0.48449476 -0.70227122 0.12413170
v -0.27265223 -0.84188624 0.11565828
v -0.14510895 -0.93914011 0.07633743
v -0.17599089 -0.85265870 0.11087428
v -0.26053935 -0.73211226 0.14479835
v -0.26105938 -0.63912992 0.15602381
v -0.37772094 -0.76294481 0.13338682
v -0.09203013 -0.62432903 0.15757073
v -0.11037074 -0.71435087 0.14321187
v -0.10658060 -0.68370013 0.14885845
v -0.11365643 -0.74506639 0.13673929
v -0.11620891 -1.00155657 0.04744452
v -0.48377517 -0.52503625 0.12932224
v -0.26160859 -0.48392375 0.14916319
v -0.06775216 -0.39998379 0.13916181
v -0.26160284 -0.39094322 0.12917079
v -0.37897390 -0.39176885 0.12530538
v -0.08183434 -0.34253962 0.11854152
v -0.35255652 -0.30589434 0.09774585
v -0.28788710 -0.32869141 0.10787015
v -0.31459601 -0.29862723 0.09519467
v -0.30175337 -0.31403935 0.10178275
v -0.46112808 -0.30104057 0.09171146
v -0.18369137 -0.35583336 0.11890591
v -0.15390749 -0.32204793 0.10674724
v -0.18060215 -0.32914011 0.10924072
v -0.12089656 -0.31292212 0.10377719
v -0.10564591 -0.33248661 0.11288381
v -0.10330394 -0.35790024 0.12277098
v -0.08356186 -0.31690491 0.10731066
v -0.07632649 -0.37163722 0.12965751
v -0.09392512 -1.05100216 0.02496691
v -0.10601628 -1.02891054 0.03475794
v -0.05056702 -0.85190417 0.12450094
v -0.02096810 -0.70944871 0.17441415
v -0.07187850 -0.56095588 0.16243604
v 0.19303441 -0.69706287 0.22223857
v -0.03249177 -0.48945400 0.16356112
v 0.18761910 -0.38590011 0.16213192
v 0.07526212 -0.34114850 0.13282891
v 0.11201846 -0.29425083 0.10998728
v 0.16527173 -0.25357222 0.08595902
v 0.19807365 -0.22529184 0.06765040
v 0.25934461 -0.29159796 0.09088100
v 0.24407139 -0.19655983 0.04846573
v 0.22127087 -0.21144518 0.05842085
v 0.27054295 -0.17308261 0.03424457
v 0.29287793 -0.15888367 0.02516831
v 0.31011179 -0.21760283 0.03671094
v -0.35121918 -0.79389279 0.12792537
v -0.55876250 -0.84525239 0.07665766
v -0.59350300 -0.24510164 0.06034177
v -0.05669891 -0.91626353 0.09924039
v -0.07347523 -0.95443339 0.07868210
v -0.05472884 -0.93905767 0.09034508
v -0.07588618 -0.93174078 0.08796369
v -0.03330176 -0.92388050 0.10375368
v -0.01113523 -0.92779821 0.10879015
v -0.03203737 -0.88475573 0.12127102
v 0.00059960 -0.90051779 0.12752835
v -0.03920197 -0.90439569 0.11039365
v -0.01862940 -0.90759391 0.11652084
v -0.06225107 -0.88592348 0.10896180
v -0.56008683 -0.89254150 0.06640166
v -0.53929269 -0.88441831 0.07362103
v -0.52564806 -0.85546591 0.08454867
v 0.41817767 -0.55470704 0.05829367
v 0.41073563 -0.62022020 0.08174503
v -0.60803847 -0.21775767 0.05119760
v -0.54324818 -0.29701134 0.08033246
v 0.36642197 -0.68099419 0.10568422
v 0.39382126 -0.66613495 0.09208398
v 0.25148916 -0.68065205 0.19664160
v 0.28746890 -0.69834738 0.15608420
v 0.27675985 -0.67663449 0.18087209
v 0.26361125 -0.70350456 0.17223527
v 0.28887982 -0.63526593 0.19419497
v 0.22788661 -0.70587402 0.19424907
v 0.28931340 -0.65881958 0.18150341
v 0.30757775 -0.64896422 0.17071783
v 0.25249380 -0.64207935 0.21914521
v 0.32326401 -0.63195257 0.16436161
v 0.25940906 -0.66260781 0.20223544
v 0.23092788 -0.65858682 0.22605870
v 0.33861978 -0.58815384 0.16233847
v 0.33642310 -0.61236311 0.15815139
v 0.36941392 -0.61349064 0.12175372
v 0.29534995 -0.59154238 0.20291090
v 0.31467137 -0.60934917 0.18183265
v 0.29318343 -0.61368296 0.19945546
v 0.25380372 -0.59143871 0.23619598
v 0.26650911 -0.61644393 0.21863150
v -0.54998848 -0.81653064 0.08452749
v -0.49477303 -0.83875926 0.09593443
v -0.50298997 -0.76949792 0.10888126
v -0.37769342 -0.67047210 0.14857724
v -0.51371540 -0.69819661 0.11370827
v -0.29392368 -0.82293618 0.12231309
v -0.29492899 -0.84902168 0.11321696
v -0.27812106 -0.86323153 0.10755096
v -0.25680535 -0.87559430 0.10277227
v -0.21856193 -0.88353314 0.09957560
v -0.23885984 -0.88569984 0.09848840
v -0.23326075 -0.85487037 0.11065581
v -0.16321778 -0.95623626 0.06884773
v -0.13599743 -0.97594414 0.05956012
v -0.17912417 -0.92252047 0.08410458
v -0.14411588 -0.95807700 0.06771505
v -0.11821727 -0.95751601 0.06798506
v -0.17882048 -0.94262567 0.07496140
v -0.13531534 -0.90646433 0.08941099
v -0.14567016 -0.84571688 0.11149001
v -0.18259036 -0.77986780 0.13208800
v -0.28405588 -0.70133792 0.14988469
v -0.29192778 -0.73206969 0.14494693
v -0.18348904 -0.61583824 0.15548281
v -0.26134033 -0.57711993 0.15711349
v -0.28448622 -0.60826953 0.15705173
v -0.29237500 -0.63928062 0.15587375
v -0.35453443 -0.73206283 0.14193829
v -0.11229018 -0.62249148 0.15507643
v -0.10445040 -0.64492842 0.15395287
v -0.10014363 -0.60186227 0.15749922
v -0.08261606 -0.64356809 0.15781404
v -0.07093606 -0.60451374 0.16242904
v -0.13049427 -1.01167402 0.04179282
v -0.09909572 -0.99309685 0.05425995
v -0.37816704 -0.57787042 0.15185150
v -0.37858389 -0.48493721 0.14414314
v -0.51425423 -0.53051147 0.11814733
v -0.28484917 -0.51511582 0.15277591
v -0.17804177 -0.52870539 0.15425577
v -0.18243629 -0.44260584 0.14246455
v -0.28494915 -0.45335088 0.14351248
v -0.29300416 -0.48410644 0.14864632
v -0.09932872 -0.40347585 0.13730048
v 0.02147179 -0.41869393 0.15700216
v -0.29311166 -0.39125330 0.12855807
v -0.35552313 -0.42229864 0.13413939
v -0.34759778 -0.39131889 0.12674012
v -0.33459368 -0.30239104 0.09641374
v -0.34419466 -0.33133475 0.10764468
v -0.45017656 -0.27358714 0.08221542
v -0.21978488 -0.34033086 0.11305542
v -0.15875122 -0.37767749 0.12645593
v -0.04461905 -0.32647074 0.11400968
v -0.10090317 -1.01234198 0.04435879
v -0.08505249 -0.86243121 0.11157519
v 0.01872965 -0.83585180 0.16130417
v -0.04651353 -0.79305850 0.14480613
v -0.05258682 -0.69802624 0.16052845
v 0.08501412 -0.77380153 0.19984932
v 0.01521652 -0.63596851 0.19970468
v -0.09884348 -0.55983859 0.15823239
v -0.10079585 -0.58078820 0.15798631
v -0.08356079 -0.52513086 0.15889675
v -0.09934038 -0.53912513 0.15753720
v -0.04221610 -0.56470403 0.16929882
v 0.08033370 -0.54176910 0.21262747
v 0.17598820 -0.73048388 0.20888542
v -0.00696594 -0.50985839 0.17336271
v -0.07450768 -0.46244756 0.15241593
v 0.18662251 -0.34666584 0.13986703
v 0.16228888 -0.36717601 0.15307660
v 0.15166844 -0.43704338 0.18919061
v 0.10077115 -0.35995801 0.14537184
v 0.13659876 -0.31101450 0.12110552
v 0.11504900 -0.26293148 0.09000558
v 0.13929469 -0.24690645 0.08068040
v 0.18238334 -0.26747803 0.09401041
v 0.19092113 -0.24663602 0.08095220
v 0.15747938 -0.28017745 0.10268109
v 0.18954691 -0.20976373 0.05777655
v 0.31223139 -0.31249439 0.06976847
v 0.26082415 -0.25526982 0.07255731
v 0.22133743 -0.29789107 0.10607709
v 0.33486706 -0.21631361 0.01947232
v 0.33105417 -0.19571868 0.01906047
v 0.32562588 -0.24809555 0.03526008
v 0.29320160 -0.20095175 0.03949483
v 0.27908558 -0.22941465 0.05516743
v -0.33152352 -0.79366134 0.12954168
v -0.34140345 -0.77349675 0.13413653
v -0.36188664 -0.77620659 0.13173215
v -0.35415775 -0.75485897 0.13747779
v -0.39505885 -0.80000946 0.12210411
v -0.37333627 -0.79535458 0.12554030
v -0.37883057 -0.82292792 0.11666623
v -0.57160584 -0.27363352 0.07029881
v -0.58326019 -0.22677346 0.05625560
v -0.04603296 -0.87156823 0.11995335
v -0.01845595 -0.85279442 0.14217831
v -0.08776348 -0.89509106 0.09932249
v -0.51206015 -0.86800152 0.08386894
v -0.54551306 -0.85989060 0.07837108
v 0.43567506 -0.56711154 0.03625486
v 0.42490368 -0.63746296 0.06891916
v 0.39852030 -0.64175325 0.09214262
v -0.57036257 -0.30471943 0.07670221
v 0.23534904 -0.72232236 0.17543839
v 0.21259382 -0.72298243 0.18985343
v 0.22927113 -0.68304683 0.21126449
v 0.20412845 -0.66794430 0.23570654
v 0.21253168 -0.69419140 0.21444034
v 0.37014675 -0.63704956 0.11732683
v 0.38629171 -0.58128716 0.10600535
v 0.35053788 -0.47703313 0.12147470
v 0.21611542 -0.61260657 0.25560713
v 0.27354029 -0.59602361 0.21773187
v 0.27527541 -0.55341937 0.22143342
v 0.26843270 -0.57546692 0.22836136
v 0.23336228 -0.55574261 0.24505244
v 0.24961434 -0.57011113 0.24183161
v 0.22238799 -0.58389142 0.25445363
v -0.54058717 -0.83471292 0.08487680
v -0.48551084 -0.85366136 0.09336811
v -0.53157545 -0.76121397 0.09917986
v -0.34659399 -0.67032637 0.15124206
v -0.50459735 -0.73326610 0.11340244
v -0.49318551 -0.65720582 0.12492590
v -0.24751204 -0.79220292 0.13097904
v -0.14908994 -0.98761776 0.05345835
v -0.20541197 -0.91166481 0.08789805
v -0.11676284 -0.90276793 0.09017486
v -0.13034721 -0.88572056 0.09691270
v -0.12159525 -0.92356802 0.08223108
v -0.16545763 -0.88676593 0.09836091
v -0.12820121 -0.84150831 0.11066238
v -0.15677479 -0.80790846 0.12341695
v -0.16102383 -0.74874517 0.13768506
v -0.30514291 -0.70133089 0.14962178
v -0.29468744 -0.67706943 0.15276468
v -0.31000714 -0.73202156 0.14461982
v -0.29232583 -0.76297386 0.13872739
v -0.18714945 -0.68304897 0.15000655
v -0.16380220 -0.65050975 0.15242003
v -0.15230853 -0.61886841 0.15446581
v -0.29270612 -0.57730619 0.15679094
v -0.30550881 -0.60838385 0.15663624
v -0.31034268 -0.63936384 0.15535808
v -0.33357349 -0.73194955 0.14351100
v -0.34412521 -0.70771789 0.14683019
v -0.10934100 -0.66415023 0.15118949
v -0.06988546 -0.62585266 0.16188950
v -0.05024722 -0.59689931 0.16807797
v -0.06788333 -0.58277268 0.16350833
v -0.11528841 -0.97928440 0.05812039
v -0.34702507 -0.57750300 0.15441131
v -0.35536845 -0.51568655 0.14976498
v -0.34744341 -0.48447731 0.14635632
v -0.53196342 -0.53361586 0.11008302
v -0.30589080 -0.51523076 0.15223157
v -0.29528993 -0.53958463 0.15478804
v -0.14676402 -0.52854466 0.15444005
v -0.15632418 -0.46996841 0.14783091
v -0.30598356 -0.45327048 0.14292375
v -0.29547278 -0.42897072 0.13813368
v -0.31098246 -0.48418219 0.14798605
v -0.11735245 -0.40538631 0.13655750
v -0.09760445 -0.43318993 0.14455828
v -0.08471664 -0.38965955 0.13460515
v -0.10662078 -0.38197041 0.13061984
v 0.02436503 -0.45717541 0.16959344
v 0.05852818 -0.40722039 0.16015152
v -0.31117930 -0.39123775 0.12804789
v -0.29371482 -0.36050816 0.11913370
v -0.33461755 -0.42223227 0.13517413
v -0.34506375 -0.44646640 0.13989896
v -0.32968287 -0.39122453 0.12738907
v -0.39826803 -0.33459663 0.10709420
v -0.34596504 -0.36064873 0.11766932
v -0.48019805 -0.26240745 0.07638771
v -0.19845400 -0.34088965 0.11352612
v -0.21039278 -0.36670424 0.12233881
v -0.21725856 -0.31978651 0.10511649
v -0.24585448 -0.32730462 0.10800555
v -0.13990154 -0.37695498 0.12693265
v -0.15011542 -0.35916099 0.12059544
v -0.14851022 -0.39539006 0.13197024
v -0.18563056 -0.40470200 0.13357998
v -0.14844943 -0.34013026 0.11385626
v -0.05342261 -0.30687534 0.10372439
v -0.02822262 -0.30826772 0.10597474
v 0.00008065 -0.34693982 0.12662849
v -0.01934223 -0.33097665 0.11766542
v -0.03903540 -0.36246455 0.12931880
v 0.01580782 -0.30995749 0.11004952
v -0.02081408 -0.35147557 0.12659710
v -0.00896825 -0.39022444 0.14229501
v -0.00634700 -0.36808399 0.13458166
v -0.00609593 -0.31345543 0.11014626
v 0.02680807 -0.38284500 0.14477639
v -0.06605650 -0.32830486 0.11346139
v -0.05928882 -0.35001792 0.12302506
v -0.10388692 -0.86793412 0.10389749
v -0.08334710 -0.82302334 0.12428346
v 0.04049824 -0.85833762 0.15527368
v -0.07963663 -0.78634130 0.13477035
v -0.07138976 -0.69162543 0.15535958
v -0.06575979 -0.72376109 0.15201993
v -0.04382967 -0.67037832 0.16675192
v 0.07741622 -0.81022703 0.18218987
v 0.10511745 -0.79774107 0.18902961
v -0.01176707 -0.61936929 0.18357375
v 0.04136488 -0.58601962 0.20677092
v -0.09303135 -0.49598738 0.15496508
v -0.05406809 -0.53560489 0.16462273
v 0.05557189 -0.52135427 0.19840736
v 0.18076794 -0.74407163 0.18942019
v 0.15875062 -0.74863365 0.20420780
v 0.13238119 -0.70427048 0.22840069
v 0.15159250 -0.72500696 0.22165343
v 0.16925716 -0.70587730 0.22739829
v 0.11348978 -0.74299260 0.21445179
v 0.17179089 -0.67011374 0.24162800
v 0.12915091 -0.72771774 0.22079312
v 0.09581343 -0.70535134 0.22267475
v 0.00740339 -0.52163703 0.18047717
v 0.01262972 -0.48604684 0.17421551
v -0.10063530 -0.46461205 0.15013417
v 0.16929750 -0.33419491 0.13417926
v 0.19197552 -0.32023177 0.12417380
v 0.14775769 -0.35671595 0.14709260
v 0.14422110 -0.39291862 0.16619982
v 0.11586542 -0.44767240 0.18891083
v 0.11512517 -0.37082999 0.15254645
v 0.11875424 -0.33570819 0.13430196
v 0.08304996 -0.38564001 0.15540334
v 0.10769286 -0.24751574 0.07845099
v 0.09492776 -0.26222015 0.08775658
v 0.17235980 -0.23147524 0.07173164
v 0.13734916 -0.26872378 0.09515749
v 0.13847228 -0.28979329 0.10846573
v 0.34366399 -0.30743690 0.03768322
v 0.24572530 -0.24117178 0.07030754
v 0.23681561 -0.26427456 0.08415628
v 0.25433624 -0.27332989 0.08367806
v 0.29040594 -0.27479129 0.06855126
v 0.20499688 -0.28553554 0.10218698
v 0.34366578 -0.24712674 0.01511415
v 0.33768329 -0.26706961 0.02942531
v 0.31301675 -0.26734637 0.05133137
v 0.29898707 -0.24576348 0.05228569
v 0.30872911 -0.28967965 0.06324278
v 0.28433021 -0.29914020 0.08268845
v 0.25756818 -0.34089028 0.11786757
v 0.26522743 -0.31657387 0.10098818
v 0.24247743 -0.30851613 0.10564960
v 0.29111805 -0.33818668 0.09783185
v 0.21957983 -0.32577399 0.12214808
v 0.28548783 -0.31903627 0.09153921
v 0.26510813 -0.21740190 0.05434829
v -0.36206705 -0.83050650 0.11545342
v -0.57638012 -0.25456670 0.06500266
v -0.55328585 -0.25981452 0.06896318
v -0.59075624 -0.27767685 0.06676071
v -0.55943005 -0.33380201 0.08416508
v -0.56040894 -0.28904397 0.07555896
v 0.40831095 -0.57409454 0.07868989
v 0.38975886 -0.55752945 0.10000501
v 0.40688493 -0.59718777 0.08437912
v 0.40113296 -0.52756623 0.06909988
v 0.35534234 -0.56777419 0.14422129
v 0.38309303 -0.46622884 0.06262196
v 0.21172756 -0.64027595 0.24639975
v 0.24081936 -0.61640230 0.23975002
v 0.17718591 -0.55250722 0.24215012
v -0.54057796 -0.78885780 0.09196802
v -0.32871053 -0.67028645 0.15231947
v -0.34622439 -0.63954876 0.15363015
v -0.50130033 -0.71336395 0.11693779
v -0.52239356 -0.71874129 0.10786157
v -0.48136749 -0.72625581 0.12200467
v -0.52517585 -0.74041932 0.10439511
v -0.48741165 -0.75024494 0.11657843
v -0.43739429 -0.70708499 0.13526721
v -0.45855999 -0.78841659 0.11593808
v -0.46162435 -0.71087974 0.12949723
v -0.47820230 -0.77320258 0.11498518
v -0.45039560 -0.74602376 0.12631807
v -0.45472162 -0.67073898 0.13565744
v -0.49589314 -0.80232642 0.10462814
v -0.44729220 -0.72549184 0.13054817
v -0.41079701 -0.74097825 0.13409580
v -0.46949726 -0.74167265 0.12286106
v -0.45699514 -0.76676202 0.12094557
v -0.42407755 -0.77978436 0.12377694
v -0.46627261 -0.68949646 0.13079057
v -0.47639020 -0.67064501 0.12968153
v -0.46562122 -0.64010899 0.13509098
v -0.49795060 -0.68043267 0.12140605
v -0.47819738 -0.79288691 0.11099442
v -0.47514648 -0.81964137 0.10519413
v -0.51753474 -0.66420070 0.11407499
v -0.51226274 -0.63600856 0.11791944
v -0.26649561 -0.81376082 0.12499810
v -0.22286304 -0.90231386 0.09150876
v -0.12694723 -0.94104449 0.07478234
v -0.18540989 -0.89959712 0.09371639
v -0.13622562 -0.80835480 0.12106407
v -0.14661212 -0.78539654 0.12816022
v -0.16552405 -0.79003881 0.12868690
v -0.16081632 -0.76975901 0.13322138
v -0.18954755 -0.81220369 0.12393325
v -0.14032913 -0.74725255 0.13608739
v -0.15262533 -0.72437669 0.14167296
v -0.19347635 -0.72350725 0.14431443
v -0.17316255 -0.73069477 0.14194800
v -0.17032760 -0.70399964 0.14629132
v -0.19185423 -0.75244776 0.13876215
v -0.25853001 -0.67556171 0.15303103
v -0.29276687 -0.79306151 0.13124687
v -0.27607225 -0.74789218 0.14188401
v -0.26736551 -0.77367478 0.13607978
v -0.14237439 -0.65164465 0.15161701
v -0.15435901 -0.67691061 0.14919542
v -0.13444817 -0.62055197 0.15419507
v -0.14838103 -0.58833157 0.15563511
v -0.31066789 -0.57739466 0.15621724
v -0.37982581 -0.70647422 0.14389781
v -0.08998291 -0.66118445 0.15483059
v -0.32915594 -0.57740423 0.15546262
v -0.34661008 -0.54655595 0.15307258
v -0.34633621 -0.60857263 0.15468509
v -0.33445856 -0.51550266 0.15104248
v -0.32952253 -0.48429400 0.14723424
v -0.25914982 -0.54065835 0.15542569
v -0.12879599 -0.52835901 0.15513366
v -0.14517928 -0.49877980 0.15201084
v -0.13555271 -0.46799848 0.14837431
v -0.14767941 -0.44560044 0.14393812
v -0.16596086 -0.45298801 0.14479264
v -0.16385048 -0.43170945 0.14055462
v -0.19441271 -0.47963605 0.14877236
v -0.25923381 -0.42719491 0.13848095
v -0.08224585 -0.41690738 0.14219809
v -0.07436350 -0.43885886 0.14804813
v -0.03706229 -0.45119439 0.15536032
v -0.05766016 -0.45089239 0.15232130
v -0.05282167 -0.47491305 0.15735307
v -0.04738697 -0.42223514 0.14712755
v -0.07335767 -0.48470754 0.15603658
v 0.04102824 -0.46998722 0.17841760
v 0.04648036 -0.44472947 0.17162990
v 0.02815022 -0.43766436 0.16457849
v 0.04408658 -0.42317858 0.16323995
v -0.00562290 -0.43865216 0.15771318
v 0.03713247 -0.40217830 0.15403780
v 0.05267670 -0.38148499 0.14843566
v 0.03755286 -0.34742135 0.13118303
v 0.03878067 -0.36696695 0.14003477
v 0.06103375 -0.35952318 0.13985093
v 0.01854376 -0.35839540 0.13374954
v 0.07592381 -0.41940430 0.16883057
v -0.31159942 -0.36058590 0.11860113
v -0.27743223 -0.37541901 0.12427173
v -0.24679696 -0.36066664 0.12002153
v -0.27025111 -0.35161934 0.11662612
v -0.30132053 -0.34271984 0.11279152
v -0.38101222 -0.44837503 0.13792644
v -0.37164093 -0.32588782 0.10501859
v -0.42048505 -0.30100763 0.09406619
v -0.36338155 -0.37511161 0.12145233
v -0.36906767 -0.35063962 0.11368019
v -0.38752160 -0.36803106 0.11818025
v -0.42832241 -0.39692606 0.12255989
v -0.40429427 -0.38786084 0.12254876
v -0.41757032 -0.35949059 0.11384869
v -0.40512175 -0.42306239 0.13073069
v -0.39421775 -0.40559886 0.12777151
v -0.38244362 -0.42527491 0.13317847
v -0.47012865 -0.28149744 0.08413794
v -0.50691647 -0.28832589 0.08328776
v -0.48549074 -0.30038350 0.08919527
v -0.51532953 -0.32937874 0.09311778
v -0.50483137 -0.31038105 0.08988210
v -0.52621239 -0.31059187 0.08652521
v -0.47863356 -0.33744018 0.10106436
v -0.54575761 -0.31807517 0.08446546
v -0.53634946 -0.34078592 0.09113953
v -0.47372730 -0.31733571 0.09580333
v -0.44343312 -0.33550970 0.10447681
v -0.55380006 -0.36020019 0.08960658
v -0.50484606 -0.37278576 0.10458527
v -0.51620990 -0.35241551 0.09796535
v -0.53120718 -0.37406750 0.09828289
v -0.49395159 -0.35350142 0.10265428
v -0.46585163 -0.38274583 0.11417822
v -0.48390862 -0.37223579 0.10878069
v -0.49266926 -0.40940718 0.11427345
v -0.46383228 -0.35760021 0.10843064
v -0.44126987 -0.37208114 0.11496726
v -0.46232278 -0.26016724 0.07622562
v -0.24750849 -0.30941065 0.10057110
v -0.26734666 -0.31992360 0.10478342
v -0.18928521 -0.38006215 0.12660015
v -0.21516592 -0.39671276 0.13124093
v -0.16798799 -0.34385550 0.11492630
v -0.05419589 -0.38062217 0.13440527
v -0.03111149 -0.38332983 0.13751113
v -0.02683446 -0.40761122 0.14558729
v -0.04641243 -0.39968121 0.14104640
v -0.02604137 -0.42961478 0.15181044
v -0.00279215 -0.41374248 0.15092406
v 0.01275835 -0.39900140 0.14865346
v -0.10376518 -0.81571871 0.12066383
v -0.10245784 -0.83791687 0.11427115
v 0.00938653 -0.86860250 0.14549009
v -0.06775109 -0.80470824 0.13372722
v -0.05505331 -0.82685363 0.13093923
v -0.07420828 -0.84183707 0.12114082
v -0.03333342 -0.83568757 0.13922292
v -0.00839654 -0.82482154 0.15882770
v -0.04220566 -0.71803422 0.16228095
v -0.04426483 -0.75567168 0.15498827
v -0.02064185 -0.73779202 0.17017053
v -0.03084104 -0.68929852 0.17137756
v 0.01099388 -0.68282317 0.19818983
v -0.01283878 -0.66541282 0.18289091
v -0.00824328 -0.69162910 0.18450471
v 0.01534874 -0.72422394 0.19615916
v 0.00814383 -0.70400311 0.19525966
v 0.05043552 -0.70118221 0.21332256
v 0.02985753 -0.70804237 0.20414337
v 0.05247207 -0.74420689 0.20553280
v 0.03732966 -0.72860304 0.20363063
v 0.01726550 -0.76655869 0.18695766
v 0.03217398 -0.75033266 0.19704673
v 0.04934910 -0.78456096 0.19217568
v 0.09059845 -0.82335022 0.17145195
v 0.06649706 -0.83383660 0.16839632
v 0.08581444 -0.79338854 0.19086433
v -0.02819796 -0.60972993 0.17564957
v 0.00186414 -0.59271219 0.18875079
v -0.09968371 -0.51435018 0.15597803
v -0.07311253 -0.54150265 0.16159381
v -0.02375458 -0.53745617 0.17238788
v 0.04116482 -0.50961786 0.18978206
v 0.03625010 -0.54530748 0.19666492
v 0.07474063 -0.49630358 0.19728984
v 0.11215269 -0.77187376 0.20308700
v 0.18884842 -0.67807969 0.23616672
v 0.18682539 -0.65575120 0.24600310
v 0.15519825 -0.62847096 0.24403195
v -0.00977213 -0.48726720 0.16851571
v -0.00037073 -0.46371880 0.16555034
v -0.02341005 -0.46913965 0.16158765
v 0.12993489 -0.38192853 0.15963868
v 0.12598169 -0.41763450 0.17689461
v 0.09881959 -0.43555422 0.18035863
v 0.09445162 -0.46147934 0.19012580
v 0.13113134 -0.49751128 0.21223913
v 0.11717293 -0.47454129 0.20044755
v 0.11598930 -0.31476584 0.12229634
v 0.08385666 -0.31005837 0.11701932
v 0.09768505 -0.32762490 0.12807223
v 0.09747953 -0.39635186 0.16251154
v 0.33514519 -0.34706360 0.06360998
v 0.34396223 -0.28718707 0.02920479
v 0.28158211 -0.25669193 0.06500418
v 0.24048415 -0.32893523 0.11775605
v 0.22264406 -0.36485123 0.14409286
v 0.41918854 -0.53814981 0.04345764
v 0.36393176 -0.53589345 0.12907623
v 0.36976937 -0.43666015 0.06506649
v 0.39251347 -0.49544680 0.06593529
v 0.23672737 -0.59658836 0.25179735
v 0.23110357 -0.63548216 0.23828821
v 0.20373556 -0.56181436 0.25110501
v -0.53208587 -0.80682462 0.09262856
v -0.51700480 -0.78828447 0.10085485
v -0.36217920 -0.65458775 0.15138185
v -0.37535603 -0.62416363 0.15187831
v -0.38568949 -0.64682694 0.14958293
v -0.42333552 -0.61562316 0.14557563
v -0.41628950 -0.67066110 0.14342401
v -0.40044940 -0.62625446 0.14873209
v -0.39701134 -0.66396043 0.14680292
v -0.41386148 -0.64647016 0.14576457
v -0.39904809 -0.68960563 0.14387228
v -0.38969778 -0.60183736 0.15082539
v -0.43563596 -0.65633982 0.14111998
v -0.42082565 -0.69231845 0.14031138
v -0.40438283 -0.71543244 0.13951508
v -0.43552278 -0.67784939 0.13917294
v -0.42429263 -0.72419040 0.13504365
v -0.48869871 -0.63377603 0.12777717
v -0.46480657 -0.59310349 0.13661251
v -0.50352193 -0.59879670 0.12308458
v -0.47152527 -0.61647964 0.13425612
v -0.50211100 -0.61880881 0.12338468
v -0.44716315 -0.62290042 0.14036688
v -0.48353058 -0.60052910 0.13053266
v -0.48720303 -0.56288519 0.12938593
v -0.43149573 -0.63617229 0.14321655
v -0.44122996 -0.59915498 0.14226332
v -0.41474052 -0.58794468 0.14720774
v -0.44288042 -0.55711160 0.14136316
v -0.44838984 -0.57843005 0.14062857
v -0.46466547 -0.56285279 0.13631276
v -0.45988199 -0.53660827 0.13649774
v -0.24802939 -0.83265322 0.11864106
v -0.14920066 -0.70344229 0.14496163
v -0.22546265 -0.73970388 0.14257612
v -0.21686270 -0.77653104 0.13422745
v -0.27630204 -0.68342430 0.15219811
v -0.25742798 -0.70237194 0.14964509
v -0.27652864 -0.65852834 0.15471446
v -0.17298511 -0.66864675 0.15103114
v -0.19532980 -0.64569528 0.15411734
v -0.16635022 -0.60162024 0.15553874
v -0.17824939 -0.56609051 0.15599424
v -0.19003186 -0.59006726 0.15630122
v -0.36224868 -0.71422973 0.14435299
v -0.36055208 -0.69012945 0.14794630
v -0.38090840 -0.73312088 0.13937599
v -0.36267478 -0.56180892 0.15265523
v -0.37060420 -0.53692369 0.15048339
v -0.38227713 -0.51226967 0.14716110
v -0.36254817 -0.59356685 0.15349620
v -0.27699169 -0.53298886 0.15463209
v -0.27875250 -0.55737435 0.15628874
v -0.25822285 -0.51374858 0.15303527
v -0.16229686 -0.51314462 0.15305159
v -0.18652165 -0.50431299 0.15202172
v -0.16760116 -0.49051345 0.15054074
v -0.22313246 -0.50283651 0.15182271
v -0.20449872 -0.49665862 0.15106327
v -0.22174555 -0.47500486 0.14802782
v -0.20584356 -0.52446821 0.15397076
v -0.27708507 -0.43525004 0.13996242
v -0.25819148 -0.45423080 0.14419867
v -0.27721410 -0.41034799 0.13409429
v -0.06100723 -0.50920509 0.16079476
v -0.22749796 -0.35783300 0.11923927
v -0.23408269 -0.38127456 0.12665945
v -0.24008106 -0.40759295 0.13394486
v -0.36332480 -0.44028805 0.13755710
v -0.36314380 -0.46529221 0.14227906
v -0.44083231 -0.29315378 0.09019294
v -0.44412771 -0.31416865 0.09755474
v -0.42300434 -0.27803500 0.08480621
v -0.42291125 -0.32415096 0.10234041
v -0.39258546 -0.30698994 0.09736595
v -0.37041921 -0.40950915 0.13030580
v -0.52793283 -0.27101594 0.07541258
v -0.55044094 -0.38129997 0.09327974
v -0.52912920 -0.40861043 0.10384590
v -0.43585704 -0.35342596 0.11046243
v -0.20748686 -0.42576559 0.13864960
v 0.02261665 -0.85439061 0.15339858
v 0.01994809 -0.88780892 0.13518969
v -0.00016328 -0.84391782 0.15373817
v -0.02764970 -0.81023870 0.15005463
v -0.00335266 -0.79216488 0.17266232
v -0.07278085 -0.74998095 0.14482214
v -0.05784744 -0.77412197 0.14503594
v 0.00898773 -0.65894381 0.19712480
v 0.04160118 -0.66871952 0.21240876
v -0.00781988 -0.64272402 0.18621757
v -0.00576785 -0.72399255 0.18411045
v 0.00041936 -0.74828745 0.18502161
v 0.05080592 -0.81238945 0.18059906
v 0.05802903 -0.84989715 0.15742210
v 0.04403615 -0.83415513 0.16920697
v 0.00929845 -0.61413246 0.19494048
v 0.04115323 -0.61812432 0.21076418
v 0.02314019 -0.59770826 0.19996266
v 0.01781735 -0.56964264 0.19326130
v 0.02201679 -0.53364861 0.18835843
v 0.05846315 -0.54406917 0.20536692
v 0.04924935 -0.56473757 0.20637272
v 0.08571359 -0.59223902 0.22494776
v 0.06452685 -0.58344533 0.21592155
v 0.06689890 -0.61050140 0.22084432
v 0.08242208 -0.56708691 0.21942825
v 0.13052150 -0.57537084 0.23204496
v 0.10854048 -0.55312050 0.22421245
v 0.05997895 -0.48494867 0.18883922
v 0.13157829 -0.78143669 0.18918264
v 0.14600997 -0.76568083 0.19624302
v 0.13474372 -0.74987291 0.21154109
v 0.18468380 -0.61870900 0.25503127
v 0.14723606 -0.41526964 0.17780327
v 0.18059115 -0.41960213 0.18131191
v 0.09643198 -0.48638049 0.20007362
v 0.09695674 -0.51698708 0.21059104
v 0.14844490 -0.47018570 0.20448309
v 0.35077392 -0.32927646 0.03621792
v 0.32829580 -0.32740413 0.06206119
v 0.31665126 -0.54937067 0.18600402
v 0.36150487 -0.45689473 0.09291462
v 0.31901161 -0.43722052 0.13279703
v 0.34459894 -0.44176317 0.10587197
v 0.34768735 -0.40184667 0.07614689
v 0.32060517 -0.46532141 0.14983367
v 0.33958163 -0.42115036 0.09922209
v 0.30072113 -0.39916775 0.12526560
v 0.31568028 -0.41547326 0.12252790
v 0.27618332 -0.43609203 0.16620229
v 0.29779247 -0.43067294 0.14751651
v 0.29285723 -0.46016338 0.16983728
v 0.38387528 -0.44921213 0.04351265
v 0.37127468 -0.48604042 0.09627132
v 0.34121008 -0.51126593 0.15210225
v 0.36908584 -0.50871857 0.11331255
v 0.21139018 -0.50206096 0.22747640
v -0.35680331 -0.62407116 0.15348454
v -0.44787745 -0.69181369 0.13508853
v -0.47824412 -0.54466387 0.13190104
v -0.45018463 -0.48511415 0.13434748
v -0.21682812 -0.82774517 0.11983958
v -0.20602581 -0.73873757 0.14211350
v -0.21687929 -0.71659793 0.14645060
v -0.19990288 -0.70173965 0.14804438
v -0.24001756 -0.72086541 0.14642425
v -0.22211500 -0.67255166 0.15254197
v -0.23263088 -0.69627108 0.14999862
v -0.21482159 -0.69005834 0.15023232
v -0.19898432 -0.77029712 0.13506901
v -0.20131839 -0.79276401 0.12966582
v -0.22439126 -0.79962670 0.12829914
v -0.24102573 -0.81258193 0.12494619
v -0.24184799 -0.76563736 0.13748341
v -0.22628109 -0.61347375 0.15663498
v -0.39274432 -0.74965472 0.13465656
v -0.41024510 -0.76271626 0.12963073
v -0.42956510 -0.75253445 0.12899101
v -0.42210558 -0.52172441 0.14294021
v -0.24412074 -0.49690522 0.15110727
v -0.23476536 -0.52771869 0.15438713
v -0.20425923 -0.45608269 0.14484245
v -0.23086644 -0.44873493 0.14333278
v -0.19523905 -0.54743815 0.15545588
v -0.24354396 -0.47086573 0.14725265
v -0.40290376 -0.28781764 0.08935089
v -0.38146380 -0.28927209 0.09037333
v -0.50458318 -0.26413132 0.07527235
v -0.51673925 -0.39093033 0.10474291
v -0.18799241 -0.42400229 0.13831234
v 0.03406855 -0.87514791 0.14269093
v 0.01266629 -0.81098254 0.17023952
v 0.03176898 -0.81678083 0.17328423
v 0.02760291 -0.79226976 0.18179613
v -0.08206502 -0.76748068 0.13849411
v -0.03379761 -0.64182951 0.17280806
v 0.06389743 -0.64402233 0.22183522
v 0.10590560 -0.57840431 0.22843490
v 0.11822674 -0.61911827 0.23390539
v 0.12122014 -0.59621688 0.23346384
v 0.10245995 -0.60492123 0.23110720
v 0.09157621 -0.63344921 0.23065935
v 0.14183379 -0.61143714 0.23099177
v 0.16376783 -0.60126860 0.24687360
v 0.14552598 -0.53806174 0.22698303
v 0.19373017 -0.63691616 0.25207742
v 0.17376480 -0.63678848 0.24993946
v 0.19556610 -0.59203467 0.25665164
v 0.07613154 -0.51777404 0.20448298
v 0.09818734 -0.53642400 0.21671467
v 0.12152795 -0.53318820 0.22218063
v 0.13128355 -0.55368153 0.22897842
v 0.15796275 -0.56758421 0.22877009
v 0.13567816 -0.51872289 0.22060556
v 0.17443720 -0.51207431 0.21994445
v 0.15261965 -0.50456189 0.21877119
v 0.16815897 -0.48565396 0.21253349
v 0.19038896 -0.49309476 0.22083727
v 0.17302979 -0.45652019 0.20028543
v 0.22219379 -0.45226580 0.19812168
v 0.21052058 -0.47662973 0.21449591
v 0.25392659 -0.48415990 0.20665363
v 0.19733809 -0.45663833 0.20203602
v 0.23439758 -0.47198394 0.20660513
v 0.20789955 -0.42793944 0.18463127
v 0.18581729 -0.44001846 0.19241251
v 0.18459885 -0.47326196 0.20976250
v 0.23350614 -0.49524389 0.21975266
v 0.25761996 -0.45684419 0.18925747
v 0.22790720 -0.52611716 0.23555084
v 0.25471479 -0.51295829 0.22095792
v 0.11107482 -0.50176497 0.20931530
v 0.13131160 -0.46064200 0.19716041
v 0.33284977 -0.56533440 0.17511635
v 0.33903355 -0.54331163 0.16590142
v 0.30984102 -0.57275034 0.19298366
v 0.29496781 -0.55587267 0.20325785
v 0.29874626 -0.51162015 0.19156226
v 0.28890905 -0.53386308 0.20636528
v 0.27651742 -0.51557405 0.20943740
v 0.28574340 -0.48766344 0.19031182
v 0.26231878 -0.53482956 0.22550286
v 0.30891467 -0.45257712 0.15225721
v 0.32088125 -0.49319921 0.16493011
v -0.46182572 -0.50953564 0.13424687
v -0.24498133 -0.74546605 0.14196221
v -0.20453485 -0.60767407 0.15636031
v -0.22420830 -0.57639714 0.15688088
v -0.21053645 -0.62929889 0.15563960
v -0.23495874 -0.63817023 0.15573913
v -0.24754026 -0.65641982 0.15468091
v -0.43865148 -0.76860272 0.12402481
v -0.43847663 -0.53574275 0.14114998
v -0.41002367 -0.55302018 0.14699754
v -0.40703619 -0.49525839 0.14247408
v -0.23800969 -0.42873723 0.13903498
v -0.37249405 -0.30654394 0.09760600
v 0.05810688 -0.62636597 0.21887201
v 0.04081689 -0.64129017 0.21210708
v 0.08579035 -0.61456405 0.22748639
v 0.08910124 -0.66943183 0.22905335
v 0.15013752 -0.58997982 0.23040906
v 0.18503588 -0.57332455 0.24949540
v 0.16441518 -0.54863684 0.22638023
v 0.24386289 -0.42266579 0.17291854
v 0.20028390 -0.40581364 0.17231727
v 0.22450124 -0.40859945 0.17002931
v 0.21035377 -0.38445371 0.15835844
v 0.25858740 -0.38394911 0.14264521
v 0.19951332 -0.36494309 0.14886150
v 0.23451981 -0.38470208 0.15258161
v 0.21190165 -0.34677125 0.13603794
v 0.24650698 -0.40162514 0.15875788
v 0.26725189 -0.41410706 0.15724728
v 0.19796332 -0.53086088 0.23964960
v 0.19073027 -0.51306389 0.23106047
v 0.17825915 -0.53073766 0.23341424
v 0.21638578 -0.54470545 0.24460816
v 0.30373060 -0.47732731 0.17136944
v 0.27363837 -0.47053159 0.18873023
v 0.26782037 -0.49727847 0.20642880
v 0.24318283 -0.53748475 0.23572401
v -0.43893662 -0.50558435 0.13866749
v -0.49988932 -0.47592240 0.12046989
v -0.23689295 -0.55374502 0.15615807
v -0.25506421 -0.55917348 0.15650228
v -0.21526536 -0.55623934 0.15609013
v -0.39483905 -0.53363296 0.14775760
v -0.38686934 -0.55589884 0.15010217
v -0.40056440 -0.57215536 0.14907457
v -0.40016427 -0.46842966 0.13958467
v 0.02766975 -0.65506914 0.20643910
v 0.08215577 -0.65069136 0.22830487
v 0.06634626 -0.66725063 0.22260655
v 0.10504780 -0.65287457 0.23183941
v 0.05524197 -0.68263441 0.21722603
v 0.07317770 -0.69807595 0.22212736
v 0.11475023 -0.67891711 0.22778769
v 0.06486216 -0.72195896 0.21516246
v 0.07813483 -0.74611867 0.21019493
v 0.22656351 -0.43292521 0.18470319
v 0.25676434 -0.43699322 0.17705974
v -0.48585326 -0.49841739 0.12685013
v -0.19935654 -0.57060857 0.15628783
v -0.21907000 -0.53784886 0.15509867
v -0.40303254 -0.51514189 0.14504421
v -0.40327445 -0.44576460 0.13541511
v -0.44650937 -0.43852013 0.12843021
v -0.42815184 -0.46119047 0.13488669
v -0.42394369 -0.43635902 0.13120893
v -0.43697223 -0.41784941 0.12600557
v -0.45071264 -0.39969078 0.12022221
v -0.47185027 -0.40394863 0.11761720
v -0.47499651 -0.43344102 0.12215081
v -0.45803142 -0.42036174 0.12316227
v 0.09786911 -0.68608764 0.22671380
v 0.11359868 -0.69979752 0.22531967
v 0.14280728 -0.67444804 0.23619441
v 0.09752333 -0.75431101 0.20870986
v 0.08610888 -0.72522663 0.21693970
v -0.47396957 -0.47518653 0.12802191
v -0.51479587 -0.50114216 0.11692194
v -0.45103793 -0.46179453 0.13119063
v -0.50911935 -0.44123742 0.11391238
v 0.15017286 -0.69612148 0.23217255
v 0.15339025 -0.65377074 0.24189839
v 0.13513535 -0.63852918 0.23195048
v 0.11636597 -0.63793570 0.23317865
v 0.12544638 -0.65651032 0.22986467
v -0.48731081 -0.45469462 0.12209358
v -0.46797644 -0.45243261 0.12649625
v -0.50111568 -0.51567492 0.12264559
v -0.52556129 -0.47746626 0.11114573
v -0.51351089 -0.46112254 0.11445971
v -0.53209635 -0.44641012 0.10647797
v -0.54304523 -0.46994844 0.10274881
v -0.52442159 -0.42822282 0.10768670
v -0.52576492 -0.51587824 0.11265857
v -0.49389609 -0.42935575 0.11690373
v -0.60680719 -0.17611755 0.03656525
v 0.43117210 -0.60897350 0.05874518
v -0.51371837 -0.84062631 0.09122359
v -0.25498246 -0.85420836 0.11105103
v -0.20431295 -0.85836943 0.10936451
v -0.18648417 -0.87502093 0.10329631
v -0.19395616 -0.83613274 0.11676665
v -0.21741475 -0.84609718 0.11375644
v -0.15621379 -0.91723151 0.08603986
v -0.27636407 -0.71982539 0.14705708
v -0.27681917 -0.62684381 0.15659402
v -0.25342616 -0.61289975 0.15711000
v -0.23940954 -0.59421096 0.15717556
v -0.27728962 -0.49644730 0.15067234
v -0.27732198 -0.47172544 0.14697798
v -0.06575553 -0.86743634 0.11475239
v 0.19414758 -0.71951461 0.20674904
v 0.36171092 -0.59151083 0.13472420
v -0.13429859 -0.86449179 0.10437890
v -0.16578634 -0.83032060 0.11750941
v -0.14607891 -0.82568057 0.11752984
v -0.29997360 -0.65776198 0.15446395
v -0.16920668 -0.63052526 0.15417144
v -0.27695750 -0.58962099 0.15721988
v -0.33894336 -0.68864978 0.14977462
v -0.36298878 -0.49717132 0.14701960
v -0.30044117 -0.55888745 0.15588263
v -0.30071051 -0.40959018 0.13331339
v -0.33990194 -0.46583032 0.14379012
v 0.01151849 -0.28811187 0.09719605
v 0.04776733 -0.29329272 0.10356549
v 0.16603583 -0.38969236 0.16509502
v -0.50266543 -0.82095697 0.09876453
v -0.43392602 -0.81396782 0.11324309
v -0.45367845 -0.83255857 0.10507309
v -0.27206079 -0.79376110 0.13080999
v -0.14570949 -0.55835957 0.15574021
v -0.16252675 -0.54421634 0.15512090
v -0.15976903 -0.57231055 0.15581245
v -0.14719717 -0.41713119 0.13773730
v -0.16519045 -0.40730736 0.13472216
v -0.17309375 -0.39017913 0.12986469
v 0.08091081 -0.36490422 0.14535288
v -0.39955602 -0.35352852 0.11311548
v -0.01202329 -0.87550404 0.13492129
v -0.03134472 -0.51374925 0.16754068
v 0.13230374 -0.43692831 0.18667138
v 0.08815330 -0.28560320 0.10266917
v 0.07378549 -0.26924668 0.09066233
v 0.06941533 -0.29496181 0.10670717
v 0.05692929 -0.31973377 0.11951136
v 0.03709092 -0.31093510 0.11275177
v 0.05556324 -0.33913519 0.12939527
v 0.38432898 -0.54003249 0.10316952
v 0.40762461 -0.50931596 0.04657259
v -0.52446928 -0.60004736 0.11266842
v -0.51455695 -0.57748008 0.11850817
v -0.54930163 -0.40243190 0.09594265
v 0.03204908 -0.68718032 0.20723846
v 0.36985259 -0.41416560 0.04852791
v 0.36861599 -0.39407617 0.03816894
v 0.36442118 -0.37016624 0.03314846
v 0.35701882 -0.35096574 0.03613198
v -0.20136570 -0.66668387 0.15244104
v -0.21683051 -0.65084945 0.15438549
v -0.39430517 -0.77801515 0.12800416
v -0.50463270 -0.24007971 0.06629516
v 0.32090863 -0.59097142 0.18160984
v 0.28578927 -0.57359507 0.21014443
v -0.42486258 -0.56885038 0.14512284
v 0.16626840 -0.58045566 0.24427102
v 0.27677443 -0.36170495 0.11989964
v 0.28236828 -0.38430135 0.12970085
v 0.31073099 -0.36895078 0.09857945
v 0.32580895 -0.38838464 0.09490377
v 0.34683958 -0.38227881 0.06576384
v 0.31053259 -0.34816837 0.08776478
v 0.33340627 -0.36684081 0.07542803
v 0.28747710 -0.41365873 0.14450316
v -0.42729993 -0.48455397 0.13821562
v -0.15724746 -0.86562387 0.10561764
v 0.04365677 -0.27320117 0.09050118
v 0.16494781 -0.40908488 0.17553709
v -0.43882569 -0.79417480 0.11795969
v -0.45522794 -0.80970739 0.11129532
v -0.41831559 -0.83195488 0.10978559
v -0.41271809 -0.81162687 0.11671464
v -0.39842398 -0.82476299 0.11431905
v -0.50927201 -0.55400661 0.12085350
v 0.01897478 -0.33281577 0.12202394
v 0.06280288 -0.76581787 0.20158380
v -0.02332664 -0.77520956 0.16065928
v -0.00442551 -0.76954294 0.17801642
v -0.01970536 -0.79338366 0.15886470
v 0.31756567 -0.52423577 0.18011707
v 0.24736283 -0.36294925 0.13498250
v 0.23453611 -0.34818063 0.13086838
f 118 119 117
f 371 490 206
f 117 119 120
f 276 264 539
f 115 116 121
f 120 116 117
f 121 116 120
f 146 145 517
f 268 267 144
f 347 1139 346
f 442 33 34
f 222 239 232
f 123 218 122
f 218 217 122
f 234 7 8
f 218 114 217
f 310 229 123
f 224 241 245
f 229 113 218
f 112 219 111
f 1138 340 1168
f 217 121 122
f 521 68 69
f 225 214 443
f 219 112 229
f 113 229 112
f 111 297 110
f 1136 237 81
f 225 444 318
f 339 614 109
f 614 463 108
f 244 243 240
f 297 111 219
f 310 123 124
f 445 93 94
f 228 236 1137
f 463 107 108
f 341 621 465
f 426 424 226
f 232 223 300
f 640 343 637
f 7 234 233
f 253 430 431
f 105 343 640
f 434 433 432
f 109 110 339
f 441 297 219
f 47 226 424
f 274 273 162
f 318 25 26
f 243 224 235
f 184 222 183
f 345 132 346
f 131 132 161
f 434 599 433
f 239 5 6
f 213 131 161
f 213 161 160
f 345 161 132
f 80 81 237
f 138 351 137
f 619 247 617
f 177 646 143
f 468 354 351
f 349 347 134
f 231 221 238
f 143 474 178
f 317 24 25
f 317 235 24
f 136 137 356
f 356 137 351
f 181 355 182
f 147 146 515
f 469 353 645
f 658 480 159
f 487 488 366
f 130 131 213
f 476 654 656
f 663 172 171
f 152 668 153
f 624 247 619
f 360 477 361
f 155 615 156
f 156 157 477
f 161 344 160
f 429 296 428
f 958 968 969
f 648 647 649
f 177 211 176
f 173 256 489
f 661 483 482
f 175 257 255
f 174 255 256
f 367 368 254
f 173 172 661
f 652 476 651
f 255 257 210
f 161 345 344
f 475 646 647
f 657 854 852
f 140 141 279
f 433 599 296
f 505 508 164
f 641 104 640
f 672 150 149
f 264 274 275
f 601 221 600
f 389 718 269
f 100 101 497
f 210 209 255
f 80 231 79
f 91 92 298
f 984 1202 238
f 705 144 145
f 33 236 228
f 313 34 35
f 102 1192 101
f 1134 1128 1118
f 711 714 713
f 157 158 479
f 715 717 716
f 1041 1099 259
f 371 206 491
f 269 718 720
f 104 641 103
f 105 106 343
f 272 271 67
f 78 79 242
f 71 72 267
f 678 679 379
f 83 87 88
f 84 87 83
f 85 86 84
f 278 184 279
f 84 86 87
f 256 255 209
f 88 89 220
f 15 549 14
f 237 231 80
f 231 238 242
f 445 603 725
f 231 237 436
f 620 107 463
f 88 220 83
f 9 304 8
f 298 436 315
f 220 230 1136
f 324 319 448
f 277 745 540
f 230 220 89
f 65 66 273
f 266 741 268
f 315 237 230
f 222 5 239
f 150 151 498
f 671 496 495
f 362 859 1043
f 671 151 150
f 381 380 502
f 677 501 676
f 956 846 847
f 513 386 385
f 154 485 153
f 513 148 147
f 163 523 164
f 148 149 502
f 169 168 674
f 506 382 505
f 146 147 511
f 1109 1111 1108
f 382 507 508
f 270 272 519
f 391 523 524
f 527 162 271
f 163 275 274
f 499 377 498
f 636 466 635
f 389 886 888
f 387 144 72
f 265 72 73
f 144 705 268
f 72 144 267
f 89 90 230
f 739 389 76
f 113 114 218
f 269 886 389
f 76 389 75
f 228 32 33
f 181 182 300
f 387 388 144
f 527 744 524
f 268 741 71
f 271 66 67
f 428 213 160
f 114 115 217
f 267 268 71
f 27 214 225
f 226 215 187
f 701 145 146
f 227 31 32
f 162 273 66
f 521 522 390
f 271 162 66
f 1032 1203 1030
f 168 552 167
f 668 669 494
f 365 364 485
f 29 31 216
f 177 143 212
f 20 446 19
f 142 185 278
f 185 184 278
f 142 1 185
f 393 279 184
f 354 355 644
f 140 372 139
f 222 232 183
f 232 182 183
f 142 278 141
f 472 644 181
f 2 3 185
f 264 275 277
f 68 521 519
f 185 3 184
f 4 5 222
f 4 184 3
f 233 223 239
f 512 384 702
f 709 263 386
f 184 4 222
f 543 11 12
f 185 1 2
f 753 752 143
f 302 300 301
f 178 179 541
f 471 473 357
f 471 357 470
f 180 181 302
f 210 257 211
f 177 212 211
f 439 299 309
f 255 174 175
f 212 143 752
f 394 757 753
f 397 545 546
f 903 902 991
f 207 490 370
f 173 174 256
f 367 369 171
f 211 212 544
f 171 369 401
f 547 208 545
f 547 207 208
f 371 369 254
f 992 765 906
f 171 172 367
f 563 1093 1116
f 170 400 169
f 233 6 7
f 141 278 279
f 1202 242 238
f 127 462 126
f 303 301 234
f 233 234 223
f 470 180 179
f 233 239 6
f 438 280 437
f 1180 754 438
f 245 241 320
f 308 304 306
f 455 336 334
f 214 216 227
f 545 208 209
f 14 776 13
f 206 779 205
f 121 217 115
f 19 446 447
f 311 310 124
f 83 220 82
f 1152 555 18
f 303 307 299
f 555 17 18
f 477 478 156
f 548 776 549
f 600 298 602
f 231 242 79
f 245 22 23
f 22 245 320
f 317 243 235
f 372 258 468
f 317 318 240
f 211 257 176
f 487 158 157
f 235 23 24
f 82 1136 81
f 26 27 225
f 216 28 29
f 183 182 373
f 870 378 1173
f 28 216 214
f 274 264 276
f 228 227 32
f 372 279 258
f 31 227 216
f 29 30 31
f 534 536 530
f 148 502 503
f 214 27 28
f 511 512 701
f 320 322 21
f 164 508 163
f 779 780 205
f 783 204 203
f 1137 443 214
f 169 400 403
f 782 553 402
f 780 204 205
f 203 202 564
f 403 168 169
f 166 165 677
f 690 200 199
f 200 689 201
f 780 915 204
f 675 500 674
f 505 164 165
f 195 196 569
f 796 198 199
f 509 689 690
f 412 572 573
f 610 938 453
f 413 195 194
f 195 567 194
f 567 410 409
f 572 197 196
f 319 329 330
f 408 685 683
f 784 201 202
f 193 416 418
f 186 187 215
f 274 65 273
f 276 65 274
f 159 428 160
f 440 340 1138
f 528 529 63
f 1166 1217 1165
f 218 123 229
f 64 528 63
f 239 223 232
f 1184 59 60
f 802 573 800
f 194 567 568
f 289 417 191
f 90 315 230
f 575 58 59
f 784 554 925
f 55 56 419
f 57 415 577
f 605 442 313
f 292 191 190
f 436 600 221
f 287 413 579
f 479 480 361
f 320 21 22
f 168 781 552
f 209 208 256
f 581 582 421
f 44 45 586
f 358 1155 250
f 191 192 582
f 586 423 425
f 224 245 235
f 423 45 46
f 149 150 504
f 586 587 44
f 207 370 208
f 321 329 319
f 23 235 245
f 690 692 691
f 539 528 276
f 580 42 43
f 175 176 257
f 943 939 940
f 591 597 420
f 144 388 145
f 890 708 889
f 325 327 329
f 243 244 224
f 733 721 731
f 292 54 55
f 55 419 292
f 190 191 581
f 291 53 54
f 270 391 524
f 53 293 52
f 294 51 52
f 187 294 188
f 188 294 293
f 65 276 64
f 188 189 426
f 163 274 162
f 226 187 188
f 226 47 215
f 347 346 133
f 47 48 215
f 186 48 49
f 50 51 186
f 49 50 186
f 328 244 332
f 215 48 186
f 393 184 183
f 154 155 486
f 186 51 187
f 424 295 423
f 166 676 167
f 67 68 272
f 191 292 289
f 36 1190 809
f 214 227 228
f 205 204 404
f 665 152 153
f 322 324 446
f 762 281 760
f 565 407 564
f 167 566 166
f 794 410 569
f 794 795 570
f 529 531 537
f 803 572 574
f 575 576 414
f 412 573 802
f 415 57 58
f 193 192 416
f 417 289 577
f 288 416 417
f 585 192 193
f 935 41 42
f 190 189 291
f 291 189 293
f 190 291 292
f 292 291 54
f 291 293 53
f 189 188 293
f 51 294 187
f 293 294 52
f 581 427 598
f 580 805 590
f 429 159 158
f 430 433 296
f 311 312 441
f 297 461 339
f 602 92 93
f 298 600 436
f 299 301 303
f 307 309 299
f 232 300 182
f 301 300 223
f 234 301 223
f 302 301 299
f 302 299 439
f 181 300 302
f 304 234 8
f 305 437 309
f 306 9 10
f 234 304 303
f 9 306 304
f 754 987 897
f 306 898 754
f 305 307 308
f 308 307 303
f 309 307 305
f 304 308 303
f 308 306 1180
f 439 1151 394
f 180 439 179
f 311 124 125
f 219 229 310
f 125 440 311
f 219 310 311
f 126 440 125
f 461 246 339
f 36 37 812
f 605 236 442
f 333 314 607
f 318 444 451
f 90 91 315
f 298 315 91
f 94 603 445
f 718 719 720
f 318 317 25
f 243 317 240
f 26 225 318
f 225 443 444
f 319 322 321
f 321 241 325
f 321 320 241
f 320 321 322
f 325 241 326
f 328 326 224
f 322 319 324
f 20 21 322
f 328 323 326
f 336 338 323
f 448 319 330
f 19 447 18
f 326 241 224
f 325 323 327
f 328 224 244
f 323 325 326
f 335 336 328
f 1167 410 570
f 244 333 332
f 313 809 606
f 325 329 321
f 330 329 327
f 338 612 327
f 611 449 330
f 37 38 610
f 332 335 328
f 240 451 244
f 335 332 1203
f 236 605 607
f 332 333 1153
f 606 609 452
f 1182 930 795
f 1203 332 331
f 336 335 334
f 455 338 336
f 328 336 323
f 1030 609 1031
f 1029 411 1182
f 337 813 612
f 327 323 338
f 297 339 110
f 463 614 817
f 127 1170 639
f 973 1201 972
f 341 628 638
f 639 1220 638
f 615 616 464
f 670 153 668
f 341 620 463
f 635 637 247
f 344 248 642
f 160 344 658
f 346 132 133
f 344 345 248
f 347 133 134
f 248 345 346
f 643 349 134
f 349 350 347
f 469 136 353
f 1139 248 346
f 643 134 135
f 350 349 348
f 348 1140 350
f 650 1142 1155
f 138 139 468
f 1144 356 249
f 355 352 493
f 249 351 354
f 180 470 472
f 136 469 135
f 468 351 138
f 355 354 352
f 258 373 493
f 181 180 472
f 249 356 351
f 136 356 353
f 474 1154 178
f 356 1144 353
f 176 647 177
f 1154 1216 471
f 651 176 175
f 361 480 659
f 852 853 657
f 852 854 478
f 480 158 159
f 361 659 1145
f 663 664 483
f 1172 169 674
f 664 857 483
f 1149 381 377
f 1146 252 1147
f 484 364 1159
f 156 478 1157
f 365 854 1146
f 156 615 1160
f 630 862 830
f 368 367 172
f 369 367 254
f 489 172 173
f 667 208 370
f 254 490 371
f 401 282 400
f 254 368 370
f 368 489 667
f 491 206 205
f 492 401 369
f 279 372 140
f 468 258 352
f 493 182 355
f 393 373 258
f 103 641 837
f 818 464 616
f 148 513 514
f 706 885 884
f 102 1191 1192
f 1118 1128 1099
f 152 665 1162
f 377 499 867
f 377 867 869
f 859 362 857
f 523 525 164
f 877 681 879
f 981 976 875
f 877 879 503
f 504 498 381
f 381 1149 1150
f 506 165 166
f 277 507 261
f 700 199 198
f 62 63 529
f 148 503 1163
f 741 704 522
f 717 891 716
f 884 885 514
f 517 145 388
f 386 263 891
f 72 265 387
f 388 387 265
f 707 388 265
f 517 386 515
f 739 77 518
f 727 728 887
f 69 740 522
f 270 519 520
f 742 270 520
f 525 1175 164
f 531 534 530
f 531 529 392
f 373 393 183
f 258 279 393
f 541 439 394
f 542 756 755
f 13 776 777
f 546 760 397
f 756 280 758
f 909 777 548
f 546 209 210
f 763 397 760
f 927 787 926
f 555 556 17
f 928 558 562
f 1114 1121 561
f 401 400 170
f 403 400 782
f 171 401 170
f 369 371 492
f 282 404 553
f 880 402 553
f 782 400 282
f 403 402 781
f 404 783 553
f 404 492 491
f 554 784 785
f 450 449 788
f 764 766 768
f 556 927 17
f 565 202 201
f 783 407 1181
f 687 261 682
f 682 382 506
f 1232 596 1068
f 582 422 583
f 794 196 197
f 410 285 1066
f 813 454 612
f 337 455 457
f 196 195 573
f 695 538 694
f 194 193 418
f 800 801 802
f 413 194 579
f 415 288 577
f 575 415 58
f 578 415 414
f 417 416 192
f 418 416 288
f 191 417 192
f 419 577 289
f 288 415 578
f 418 579 194
f 577 419 56
f 292 419 289
f 290 593 591
f 580 935 42
f 589 584 588
f 426 189 598
f 568 193 194
f 596 594 422
f 424 423 46
f 425 423 295
f 47 424 46
f 226 188 426
f 589 295 427
f 584 806 583
f 189 190 598
f 424 426 295
f 583 806 421
f 295 426 427
f 429 428 159
f 213 428 296
f 158 487 431
f 430 429 431
f 433 430 1201
f 296 429 430
f 158 431 429
f 431 366 862
f 629 624 631
f 129 1223 1221
f 1201 430 253
f 1222 1223 432
f 129 130 434
f 599 434 130
f 435 602 445
f 719 892 316
f 231 436 221
f 315 436 237
f 438 437 305
f 1151 437 280
f 1180 306 754
f 438 759 758
f 439 180 302
f 439 309 1151
f 440 126 462
f 311 440 312
f 311 441 219
f 461 441 312
f 33 442 236
f 34 313 442
f 1137 214 228
f 443 314 444
f 314 333 444
f 451 333 244
f 603 94 95
f 604 445 316
f 322 446 20
f 447 446 324
f 450 447 324
f 447 450 1152
f 449 448 330
f 450 283 1152
f 611 330 814
f 1094 1114 1125
f 324 448 450
f 449 450 448
f 318 451 240
f 444 333 451
f 452 605 606
f 332 1153 331
f 38 949 610
f 285 410 1167
f 457 459 337
f 921 919 920
f 1033 1204 1032
f 337 338 455
f 1076 946 1025
f 813 459 460
f 1204 455 334
f 456 1038 459
f 942 453 938
f 1029 571 799
f 456 459 457
f 459 458 460
f 458 815 460
f 929 454 1004
f 441 461 297
f 1138 461 312
f 639 462 127
f 440 462 340
f 108 109 614
f 341 465 620
f 616 155 154
f 861 860 488
f 247 343 617
f 343 618 617
f 624 634 247
f 1191 102 103
f 642 248 848
f 649 656 359
f 372 468 139
f 354 468 352
f 1144 645 353
f 348 643 469
f 471 470 179
f 472 470 357
f 1154 179 178
f 250 1141 1216
f 357 249 472
f 644 472 249
f 645 473 1141
f 473 645 1144
f 1156 474 143
f 1154 474 358
f 648 650 475
f 646 1156 143
f 849 175 174
f 173 661 662
f 477 157 479
f 478 477 360
f 478 360 852
f 1157 365 486
f 480 479 158
f 477 479 361
f 159 160 658
f 659 251 1145
f 855 856 1199
f 476 652 654
f 482 856 855
f 855 655 662
f 664 171 170
f 483 857 1158
f 665 485 484
f 868 867 499
f 485 154 486
f 484 485 364
f 1157 486 155
f 485 486 365
f 488 487 157
f 431 487 366
f 1160 157 156
f 861 666 860
f 667 256 208
f 172 489 368
f 370 490 254
f 206 490 207
f 205 404 491
f 492 404 282
f 401 492 282
f 371 491 492
f 258 493 352
f 182 493 373
f 669 152 151
f 866 670 494
f 495 865 864
f 863 494 669
f 148 514 1164
f 496 885 1161
f 1224 497 101
f 1134 497 376
f 499 498 151
f 381 498 377
f 1162 151 152
f 868 673 867
f 675 168 167
f 1172 500 1173
f 501 678 680
f 870 500 675
f 502 149 504
f 503 502 380
f 503 380 877
f 1163 384 511
f 498 504 150
f 502 504 381
f 506 505 165
f 508 505 382
f 566 506 166
f 682 261 507
f 508 277 275
f 682 507 382
f 277 508 507
f 163 508 275
f 691 693 509
f 791 407 565
f 803 198 197
f 697 538 695
f 1163 511 147
f 512 511 384
f 702 384 262
f 705 512 704
f 513 147 515
f 514 513 385
f 514 385 884
f 1164 496 672
f 517 515 146
f 513 515 386
f 890 983 982
f 709 711 263
f 388 707 710
f 386 517 709
f 1202 77 78
f 238 601 892
f 68 519 272
f 520 519 390
f 881 520 390
f 978 875 680
f 522 521 69
f 519 521 390
f 741 740 70
f 704 702 703
f 524 523 163
f 525 523 391
f 527 163 162
f 272 270 744
f 1177 1176 525
f 1175 1176 679
f 742 391 270
f 526 742 743
f 744 271 272
f 163 527 524
f 276 528 64
f 529 528 392
f 532 534 392
f 537 62 529
f 536 535 751
f 62 1165 61
f 540 392 539
f 1225 537 530
f 277 261 745
f 692 694 383
f 533 537 1225
f 286 801 1186
f 392 534 531
f 746 536 532
f 535 536 746
f 685 687 683
f 532 536 534
f 751 535 750
f 530 537 531
f 537 533 1165
f 510 574 695
f 536 538 699
f 540 539 264
f 528 539 392
f 277 540 264
f 392 540 532
f 439 541 179
f 753 541 394
f 757 280 756
f 752 755 544
f 910 13 777
f 543 911 897
f 544 212 752
f 396 903 544
f 546 545 209
f 547 545 397
f 902 761 546
f 763 760 281
f 763 547 397
f 207 992 206
f 775 1226 774
f 777 911 910
f 926 15 16
f 778 549 398
f 992 547 765
f 912 780 550
f 913 551 914
f 554 785 917
f 552 880 688
f 552 688 566
f 404 204 783
f 880 686 688
f 202 203 916
f 1005 405 1006
f 1152 18 447
f 556 555 406
f 556 406 558
f 787 560 1115
f 559 558 406
f 559 283 788
f 406 1152 559
f 562 558 557
f 283 450 788
f 558 559 1121
f 560 562 563
f 398 549 787
f 449 611 1002
f 1002 789 449
f 562 557 1113
f 562 560 928
f 1123 1125 1122
f 547 763 765
f 565 564 202
f 783 564 407
f 689 565 201
f 693 792 509
f 552 566 167
f 566 408 683
f 567 195 569
f 568 567 409
f 1066 285 1064
f 568 422 585
f 569 196 794
f 567 569 410
f 795 197 198
f 1167 570 1218
f 932 200 786
f 200 201 925
f 573 572 196
f 574 572 412
f 195 413 573
f 287 800 413
f 1178 286 698
f 700 574 510
f 576 575 59
f 415 575 414
f 1184 1217 1185
f 414 576 1183
f 57 577 56
f 288 417 577
f 287 578 414
f 288 578 418
f 418 578 579
f 287 579 578
f 44 587 805
f 936 935 580
f 582 581 191
f 427 581 421
f 585 582 192
f 583 422 290
f 584 583 290
f 421 582 583
f 590 584 591
f 805 588 590
f 568 585 193
f 582 585 422
f 423 586 45
f 587 586 425
f 588 587 425
f 43 805 580
f 589 588 425
f 590 588 584
f 295 589 425
f 427 421 806
f 591 584 290
f 580 590 420
f 593 290 594
f 420 590 591
f 1231 592 1232
f 593 597 591
f 594 290 422
f 593 592 595
f 596 422 568
f 593 594 807
f 285 931 1062
f 1212 936 595
f 1068 568 409
f 593 807 592
f 593 595 597
f 420 597 595
f 581 598 190
f 426 598 427
f 130 213 599
f 296 599 213
f 602 298 92
f 601 600 435
f 601 435 604
f 238 221 601
f 445 602 93
f 600 602 435
f 726 603 729
f 732 731 726
f 604 316 892
f 435 445 604
f 606 605 313
f 607 605 452
f 313 35 809
f 609 331 1153
f 333 607 452
f 607 314 1137
f 812 37 610
f 1189 609 606
f 609 1189 810
f 1030 331 609
f 949 39 811
f 950 951 952
f 814 327 612
f 789 561 788
f 337 612 338
f 814 454 611
f 798 1010 1012
f 561 789 1003
f 339 246 816
f 463 817 341
f 616 615 155
f 1160 615 464
f 670 154 153
f 342 464 818
f 618 343 106
f 619 617 465
f 107 618 106
f 465 617 618
f 619 465 621
f 634 635 247
f 465 618 620
f 107 620 618
f 625 621 341
f 832 629 974
f 631 625 632
f 366 488 860
f 625 638 623
f 1222 633 1219
f 631 619 621
f 627 955 831
f 817 614 816
f 629 622 624
f 625 623 632
f 623 1219 1048
f 342 820 824
f 828 627 831
f 1138 1168 246
f 639 638 628
f 631 624 619
f 1048 974 626
f 366 860 862
f 832 630 830
f 625 631 621
f 629 631 626
f 633 1048 1219
f 631 632 626
f 633 1201 973
f 973 974 633
f 955 624 622
f 635 634 627
f 636 635 627
f 635 466 637
f 820 342 818
f 836 833 636
f 637 466 640
f 247 637 343
f 341 638 625
f 628 1168 639
f 462 639 340
f 127 128 1170
f 641 640 466
f 104 105 640
f 636 833 466
f 641 466 833
f 248 1139 848
f 660 658 1171
f 349 643 348
f 135 469 643
f 354 644 249
f 181 644 355
f 1141 250 1140
f 348 469 645
f 647 646 177
f 475 1155 1156
f 649 176 651
f 649 359 648
f 650 648 359
f 475 647 648
f 176 649 647
f 649 476 656
f 966 967 359
f 1143 1142 958
f 652 651 175
f 649 651 476
f 174 173 662
f 655 653 654
f 853 962 964
f 660 467 970
f 655 654 652
f 654 653 656
f 849 655 652
f 655 481 961
f 959 656 653
f 968 967 851
f 360 1145 853
f 657 853 964
f 344 642 658
f 1171 467 660
f 480 660 659
f 660 970 1042
f 658 660 480
f 851 970 467
f 661 172 663
f 662 661 482
f 855 662 482
f 662 655 849
f 664 663 171
f 661 663 483
f 170 169 1172
f 1158 857 362
f 485 665 153
f 1162 665 484
f 824 826 342
f 862 253 431
f 368 667 370
f 256 667 489
f 669 668 152
f 670 668 494
f 671 669 151
f 494 863 374
f 866 494 374
f 616 154 670
f 671 150 672
f 669 671 495
f 1164 672 149
f 671 672 496
f 1100 980 1083
f 870 871 378
f 675 674 168
f 1172 674 500
f 676 675 167
f 871 872 680
f 677 676 166
f 675 676 501
f 165 164 1175
f 678 677 679
f 680 678 379
f 501 677 678
f 677 165 1175
f 679 1176 986
f 896 379 986
f 260 1149 869
f 380 1150 878
f 896 526 743
f 683 506 566
f 683 682 506
f 684 685 686
f 682 683 687
f 284 407 791
f 535 746 747
f 686 685 408
f 685 684 687
f 688 686 408
f 686 284 793
f 684 693 749
f 748 746 745
f 566 688 408
f 880 552 402
f 690 689 200
f 565 689 509
f 692 199 700
f 692 383 691
f 693 691 383
f 509 690 691
f 199 692 690
f 692 510 694
f 535 747 750
f 684 686 793
f 695 694 510
f 694 538 751
f 1178 574 412
f 696 699 697
f 696 697 698
f 1185 1186 801
f 698 697 695
f 696 1225 699
f 1178 695 574
f 698 286 1188
f 536 699 530
f 538 697 699
f 700 198 803
f 692 700 510
f 511 701 146
f 705 701 512
f 703 702 262
f 704 512 702
f 743 520 882
f 703 881 522
f 522 704 703
f 705 704 266
f 268 705 266
f 701 705 145
f 716 263 713
f 1087 1105 1215
f 73 983 1053
f 710 709 517
f 890 516 707
f 888 75 389
f 517 388 710
f 709 710 711
f 707 516 710
f 516 1179 710
f 712 713 714
f 727 269 720
f 736 1109 735
f 263 711 713
f 714 711 1179
f 712 715 716
f 889 708 887
f 722 724 727
f 1105 1087 1103
f 844 1049 847
f 712 716 713
f 1103 717 715
f 884 717 706
f 891 717 385
f 739 718 389
f 719 718 518
f 719 984 892
f 725 726 723
f 719 723 722
f 719 722 720
f 723 726 721
f 738 895 737
f 723 719 316
f 724 722 721
f 725 723 316
f 721 722 723
f 726 731 721
f 724 728 727
f 445 725 316
f 725 603 726
f 729 603 95
f 731 732 730
f 722 727 720
f 733 735 737
f 889 714 516
f 708 886 887
f 95 96 729
f 732 893 1193
f 1129 1130 1131
f 733 737 724
f 732 726 729
f 733 731 730
f 96 893 729
f 732 729 893
f 735 733 730
f 721 733 724
f 985 732 894
f 714 895 738
f 736 735 730
f 735 734 737
f 1129 99 1118
f 100 1134 99
f 737 734 738
f 728 724 737
f 1108 738 734
f 712 714 738
f 77 739 76
f 718 739 518
f 69 70 740
f 71 741 70
f 704 741 266
f 522 740 741
f 743 742 520
f 526 1176 1177
f 520 881 882
f 882 262 883
f 524 744 270
f 271 744 527
f 747 748 687
f 540 745 532
f 532 745 746
f 745 261 748
f 687 749 747
f 750 383 751
f 687 748 261
f 746 748 747
f 684 749 687
f 750 749 693
f 749 750 747
f 693 383 750
f 694 751 383
f 751 538 536
f 753 143 178
f 752 542 755
f 753 178 541
f 542 752 753
f 897 899 754
f 306 10 898
f 542 757 756
f 396 544 755
f 758 280 438
f 396 755 756
f 753 757 542
f 757 394 1151
f 759 438 899
f 756 758 900
f 778 1226 775
f 756 900 396
f 902 546 210
f 761 760 546
f 900 759 1229
f 760 761 762
f 1227 761 903
f 770 768 767
f 766 763 281
f 766 765 763
f 768 281 907
f 764 1194 1088
f 764 904 765
f 904 399 906
f 907 281 762
f 765 766 764
f 774 771 772
f 1093 769 1095
f 281 768 766
f 770 772 769
f 1088 904 764
f 770 1194 768
f 772 770 767
f 1092 1194 769
f 907 908 767
f 1095 771 1096
f 767 908 774
f 772 771 1095
f 762 1227 1228
f 988 901 759
f 767 774 772
f 774 773 775
f 901 988 990
f 775 548 778
f 549 776 14
f 777 776 548
f 548 775 909
f 12 910 543
f 778 398 1226
f 548 549 778
f 992 779 206
f 780 779 550
f 912 550 399
f 780 914 915
f 403 781 168
f 402 552 781
f 403 782 402
f 282 553 782
f 564 783 203
f 1181 407 284
f 784 202 916
f 925 554 786
f 785 916 915
f 554 917 405
f 922 924 405
f 797 571 796
f 926 549 15
f 787 927 928
f 789 788 449
f 559 788 561
f 929 1002 454
f 1003 789 1002
f 919 994 922
f 922 917 918
f 792 791 565
f 284 791 793
f 509 792 565
f 793 693 684
f 791 792 793
f 693 793 792
f 795 794 197
f 794 570 410
f 796 795 198
f 1182 795 571
f 797 796 199
f 795 796 571
f 200 797 199
f 932 786 933
f 571 797 799
f 799 797 932
f 797 200 932
f 799 798 934
f 800 287 801
f 573 413 800
f 287 414 1183
f 60 61 1217
f 801 286 802
f 412 802 286
f 572 803 197
f 700 803 574
f 945 939 943
f 1196 1197 1211
f 44 805 43
f 805 587 588
f 584 589 806
f 427 806 589
f 594 596 807
f 1066 1068 409
f 1022 1021 931
f 938 811 940
f 36 809 35
f 809 608 1189
f 1190 952 608
f 948 1037 1075
f 39 1196 1195
f 1212 1213 804
f 950 610 453
f 809 1190 608
f 459 813 337
f 454 813 460
f 327 814 330
f 454 814 612
f 815 458 1074
f 1058 999 1000
f 816 246 1168
f 614 339 816
f 816 628 817
f 628 341 817
f 954 616 670
f 616 954 818
f 822 825 828
f 818 819 820
f 820 819 823
f 820 825 824
f 827 823 819
f 845 834 842
f 831 955 829
f 826 666 342
f 866 819 954
f 824 825 822
f 825 820 823
f 824 822 826
f 823 821 825
f 841 828 825
f 822 829 826
f 832 829 622
f 374 1086 827
f 821 823 827
f 841 821 838
f 636 627 828
f 831 829 822
f 832 830 829
f 666 826 830
f 829 830 826
f 828 831 822
f 627 634 955
f 622 629 832
f 974 629 626
f 641 833 837
f 834 836 838
f 834 838 842
f 1224 101 1192
f 837 836 839
f 834 840 839
f 838 836 636
f 839 836 834
f 836 837 833
f 837 835 1191
f 841 636 828
f 838 821 842
f 842 1205 845
f 837 839 835
f 259 1224 956
f 835 839 840
f 821 841 825
f 636 841 838
f 843 821 827
f 821 843 842
f 1085 863 864
f 834 845 846
f 864 865 1084
f 956 847 259
f 1205 842 843
f 846 845 844
f 846 844 847
f 834 846 840
f 1050 844 1205
f 1051 375 1087
f 848 350 1143
f 642 848 969
f 175 849 652
f 662 849 174
f 964 960 965
f 1042 659 660
f 359 656 966
f 966 959 851
f 853 852 360
f 1047 854 657
f 960 962 850
f 960 850 959
f 1146 854 252
f 854 365 1157
f 482 1158 856
f 655 855 481
f 362 1043 1045
f 963 1200 1047
f 1172 1173 1174
f 857 664 1174
f 876 980 378
f 1174 859 857
f 980 858 1173
f 1045 971 1046
f 488 1160 861
f 862 860 666
f 464 342 861
f 666 861 342
f 830 862 666
f 630 972 862
f 495 864 669
f 863 669 864
f 495 1161 865
f 975 1049 1050
f 975 1102 1051
f 975 1050 1084
f 374 827 866
f 819 866 827
f 499 1162 868
f 869 867 673
f 1159 868 484
f 868 363 1082
f 871 874 876
f 260 869 976
f 872 675 501
f 870 872 871
f 680 874 871
f 876 378 871
f 675 872 870
f 680 872 501
f 874 875 873
f 977 869 673
f 875 874 680
f 876 874 873
f 978 680 379
f 878 681 877
f 977 873 976
f 971 1148 1147
f 878 877 380
f 681 262 879
f 260 981 878
f 978 979 875
f 262 384 879
f 879 384 1163
f 1181 553 783
f 686 880 284
f 522 881 390
f 881 703 882
f 703 262 882
f 883 262 681
f 979 1052 878
f 743 882 883
f 717 884 385
f 706 375 885
f 1161 885 375
f 885 496 1164
f 887 886 269
f 886 708 888
f 727 887 269
f 887 728 889
f 982 888 708
f 74 75 888
f 889 728 895
f 890 889 516
f 1053 707 265
f 983 74 982
f 386 891 385
f 716 891 263
f 892 601 604
f 984 719 518
f 97 1193 96
f 732 1193 894
f 1131 97 98
f 732 985 730
f 889 895 714
f 737 895 728
f 743 883 896
f 681 1052 883
f 899 897 395
f 987 754 898
f 10 11 898
f 987 898 11
f 754 899 438
f 395 759 899
f 758 759 900
f 1229 759 901
f 988 759 395
f 1228 773 908
f 210 211 902
f 991 902 211
f 1227 903 396
f 902 903 761
f 768 1194 764
f 906 399 550
f 1092 1093 1090
f 1056 998 997
f 550 779 992
f 765 904 906
f 908 907 762
f 768 907 767
f 762 761 1227
f 908 773 774
f 990 988 989
f 911 543 910
f 13 910 12
f 911 777 909
f 989 911 909
f 911 395 897
f 913 912 399
f 915 914 551
f 1054 1055 993
f 995 999 996
f 780 912 914
f 913 914 912
f 915 551 918
f 204 915 203
f 915 916 203
f 784 916 785
f 785 918 917
f 918 920 922
f 915 918 785
f 918 551 920
f 551 921 920
f 1008 923 1009
f 921 551 913
f 922 920 919
f 913 399 1055
f 921 913 1054
f 994 924 922
f 917 922 405
f 923 994 996
f 790 1000 999
f 1009 1001 1008
f 798 799 1028
f 784 925 201
f 786 200 925
f 927 926 16
f 549 926 787
f 17 927 16
f 558 928 556
f 787 928 560
f 556 928 927
f 1004 454 460
f 815 1059 1004
f 411 931 1218
f 570 795 930
f 934 1013 1015
f 942 939 1039
f 786 1005 933
f 799 932 1028
f 1006 933 1005
f 924 1007 1006
f 1011 1012 1001
f 815 1074 1071
f 936 580 420
f 935 804 1198
f 595 936 420
f 804 935 936
f 812 950 952
f 1204 457 455
f 949 938 610
f 811 1195 943
f 1232 592 807
f 940 942 938
f 811 39 1195
f 940 939 942
f 40 1197 1196
f 1207 1209 1212
f 945 947 939
f 1036 1038 1035
f 811 943 940
f 941 1210 945
f 1207 592 1231
f 1067 808 1064
f 941 945 943
f 1214 947 945
f 1015 411 934
f 948 1039 947
f 1214 945 944
f 947 946 948
f 1025 1016 1020
f 937 1230 1035
f 39 949 38
f 938 949 811
f 950 453 951
f 812 610 950
f 1040 453 942
f 951 1230 1031
f 951 810 952
f 952 810 1189
f 1024 1026 1027
f 1022 931 411
f 866 954 670
f 818 954 819
f 624 955 634
f 829 955 622
f 1224 259 376
f 846 956 840
f 1106 1103 715
f 259 847 1041
f 848 1143 958
f 650 967 958
f 960 959 653
f 851 959 850
f 961 960 653
f 962 251 1042
f 655 961 653
f 1199 965 481
f 964 962 960
f 853 251 962
f 1199 963 965
f 1046 1200 1045
f 965 960 961
f 657 964 963
f 481 965 961
f 963 964 965
f 959 966 656
f 967 966 851
f 851 467 968
f 359 967 650
f 969 968 467
f 958 967 968
f 642 969 467
f 958 969 848
f 851 850 970
f 1042 970 850
f 971 1043 1044
f 363 1159 1147
f 973 972 630
f 253 862 972
f 974 973 630
f 633 432 1201
f 832 974 630
f 626 632 1048
f 1051 865 375
f 1049 1079 1041
f 977 976 869
f 875 976 873
f 1082 1044 1081
f 876 873 977
f 379 896 978
f 979 878 981
f 978 896 979
f 896 883 1052
f 1083 1101 1081
f 673 1081 977
f 976 981 260
f 979 981 875
f 888 982 74
f 708 890 982
f 890 707 1053
f 74 983 73
f 1202 518 77
f 238 892 984
f 894 736 985
f 736 730 985
f 679 986 379
f 526 896 986
f 11 543 987
f 897 987 543
f 989 395 911
f 909 990 989
f 990 909 775
f 395 989 988
f 775 773 990
f 901 990 773
f 211 544 991
f 903 991 544
f 547 992 207
f 550 992 906
f 1093 1057 1090
f 1089 1091 998
f 997 996 994
f 923 924 994
f 998 1056 1054
f 997 998 995
f 997 994 919
f 995 1123 999
f 1056 919 921
f 995 996 997
f 993 1089 998
f 1124 998 1091
f 1000 790 929
f 996 999 1058
f 1000 929 1004
f 613 1060 1009
f 1071 1072 1073
f 1028 1007 1010
f 454 1002 611
f 1003 1002 929
f 929 790 1003
f 1003 790 1122
f 460 815 1004
f 815 613 1059
f 786 554 1005
f 405 1005 554
f 405 924 1006
f 923 1008 924
f 1010 1007 1001
f 933 1006 1007
f 1001 1007 1008
f 924 1008 1007
f 1058 923 996
f 613 1206 1059
f 1011 1001 1060
f 1010 798 1028
f 934 1012 1013
f 1012 934 798
f 1001 1012 1010
f 1012 1011 1013
f 1014 1011 1072
f 1013 1011 1014
f 1023 1017 1019
f 1017 1014 953
f 1023 1013 1014
f 411 1015 1022
f 1017 1020 1016
f 1097 1021 1016
f 1020 1017 1024
f 1019 1017 1016
f 1018 1020 1024
f 1037 1077 1036
f 1019 1016 1021
f 1023 1019 1015
f 1024 1017 953
f 1025 1020 1018
f 1016 1098 1097
f 931 1021 1062
f 1015 1019 1022
f 1021 1022 1019
f 1013 1023 1015
f 1017 1023 1014
f 953 1026 1024
f 1027 1018 1024
f 1077 1076 1018
f 1025 946 1098
f 1026 953 1071
f 456 1035 1038
f 1026 1074 1078
f 1035 456 1033
f 932 933 1028
f 1028 933 1007
f 799 934 1029
f 411 1029 934
f 1031 609 810
f 1032 1030 937
f 951 1031 810
f 937 1030 1031
f 1033 1032 937
f 334 335 1203
f 1031 1230 937
f 1204 456 457
f 1040 951 453
f 1018 1027 1077
f 937 1035 1033
f 1036 1035 1034
f 1036 1034 1037
f 1036 1027 1038
f 1034 1040 1075
f 1037 948 1076
f 1078 1027 1026
f 1038 1078 459
f 947 1039 939
f 1075 1039 948
f 942 1039 1075
f 1230 1040 1034
f 1041 847 1049
f 1099 1041 1117
f 962 1042 850
f 659 1042 251
f 1044 1043 859
f 1045 1043 971
f 1100 859 858
f 977 1101 876
f 1147 1046 971
f 362 1045 856
f 1047 1046 252
f 963 1199 1200
f 854 1047 252
f 963 1047 657
f 623 1048 632
f 633 974 1048
f 1050 1049 844
f 1049 975 1079
f 1085 1050 1086
f 1085 864 1084
f 1087 375 706
f 1051 1215 1079
f 878 1052 681
f 896 1052 979
f 73 1053 265
f 890 1053 983
f 1055 1054 913
f 998 1054 993
f 1088 399 904
f 905 993 1055
f 919 1056 997
f 1054 1056 921
f 1057 1089 1090
f 1112 1113 1094
f 1206 1058 1000
f 1009 923 1058
f 1206 613 1009
f 1004 1059 1206
f 1060 613 1073
f 1001 1009 1060
f 1070 1065 1069
f 1021 1063 1062
f 1021 1097 1063
f 1066 1064 808
f 1063 1069 1067
f 1231 1067 1065
f 285 1062 1064
f 1063 1064 1062
f 1061 1070 1069
f 592 1207 595
f 1068 1066 808
f 1066 409 410
f 1064 1063 1067
f 1069 1063 1061
f 1068 808 1232
f 1068 596 568
f 1061 1098 1070
f 1065 1067 1069
f 1214 946 947
f 1214 1208 1070
f 953 1014 1072
f 815 1071 613
f 1073 1072 1011
f 953 1072 1071
f 1060 1073 1011
f 613 1071 1073
f 1078 1074 458
f 1071 1074 1026
f 1034 1075 1037
f 1040 942 1075
f 946 1076 948
f 1018 1076 1025
f 1036 1077 1027
f 1076 1077 1037
f 459 1078 458
f 1027 1078 1038
f 1051 1079 975
f 957 1041 1079
f 1127 1119 1104
f 1126 1080 1117
f 1082 1081 673
f 1083 1081 1044
f 868 1082 673
f 1044 1082 363
f 1100 1044 859
f 1101 980 876
f 865 1051 1102
f 1085 1084 1050
f 1050 1205 1086
f 1085 374 863
f 827 1086 843
f 374 1085 1086
f 1103 706 717
f 1087 706 1103
f 905 1055 1088
f 399 1088 1055
f 1090 1089 993
f 1091 1089 1057
f 993 905 1090
f 1092 1090 905
f 1057 1094 1091
f 1114 1094 557
f 1194 1092 905
f 1093 1092 769
f 769 772 1095
f 1093 563 1112
f 1112 1094 1057
f 557 1121 1114
f 1226 1096 771
f 1093 1095 1116
f 1115 398 787
f 1116 560 563
f 1098 1016 1025
f 1063 1097 1061
f 1070 1098 946
f 1097 1098 1061
f 1117 1041 957
f 1099 1080 1118
f 980 1100 858
f 1044 1100 1083
f 1081 1101 977
f 980 1101 1083
f 975 1084 1102
f 865 1102 1084
f 715 1107 1106
f 1106 1105 1103
f 1107 1111 1104
f 1111 1110 1104
f 1119 1105 1104
f 1215 1105 957
f 1107 715 712
f 1105 1106 1104
f 1108 1107 712
f 1104 1106 1107
f 738 1108 712
f 1109 1108 734
f 735 1109 734
f 1109 736 1110
f 1135 1110 736
f 1117 1080 1099
f 1108 1111 1107
f 1110 1111 1109
f 1093 1112 1057
f 1113 1112 563
f 562 1113 563
f 557 1094 1113
f 561 1122 1114
f 1123 1122 790
f 1116 1115 560
f 398 1115 1096
f 1095 1096 1116
f 1116 1096 1115
f 1119 957 1105
f 1119 1127 1117
f 1118 1080 1129
f 497 1134 100
f 1127 1104 1110
f 1117 957 1119
f 894 1133 736
f 98 1132 1131
f 558 1121 557
f 561 1121 559
f 1003 1122 561
f 790 999 1123
f 995 1124 1123
f 1123 1124 1125
f 998 1124 995
f 1125 1124 1091
f 1094 1125 1091
f 1122 1125 1114
f 1135 1126 1110
f 1130 1126 1120
f 1110 1126 1127
f 1117 1127 1126
f 376 259 1128
f 1099 1128 259
f 1130 1129 1080
f 98 99 1132
f 1126 1130 1080
f 1130 1120 1131
f 1120 1133 1131
f 1131 1133 97
f 99 1129 1132
f 1131 1132 1129
f 1133 1120 1135
f 97 1133 894
f 99 1134 1118
f 1128 1134 376
f 1133 1135 736
f 1126 1135 1120
f 237 1136 230
f 220 1136 82
f 607 1137 236
f 443 1137 314
f 461 1138 246
f 440 1138 312
f 347 350 1139
f 848 1139 350
f 1141 348 645
f 1140 250 1142
f 1141 473 1216
f 348 1141 1140
f 1155 1142 250
f 958 1142 650
f 350 1140 1143
f 1142 1143 1140
f 249 357 1144
f 473 1144 357
f 853 1145 251
f 360 361 1145
f 252 1046 1147
f 364 365 1146
f 971 1044 1148
f 364 1146 1147
f 1044 363 1148
f 363 1147 1148
f 869 1149 377
f 1150 1149 260
f 878 1150 260
f 380 381 1150
f 437 1151 309
f 757 1151 280
f 559 1152 283
f 555 1152 406
f 333 452 1153
f 609 1153 452
f 358 250 1216
f 179 1154 471
f 1156 1155 358
f 650 1155 475
f 1156 358 474
f 475 1156 646
f 156 1157 155
f 854 1157 478
f 856 1158 362
f 482 483 1158
f 1147 1159 364
f 868 1159 363
f 861 1160 464
f 157 1160 488
f 865 1161 375
f 495 496 1161
f 868 1162 484
f 151 1162 499
f 148 1163 147
f 879 1163 503
f 148 1164 149
f 885 1164 514
f 537 1165 62
f 1165 533 1187
f 696 1188 1187
f 801 287 1183
f 1218 570 930
f 285 1167 1218
f 639 1168 340
f 816 1168 628
f 1220 623 638
f 1170 1221 1169
f 1221 1170 128
f 1220 1170 1169
f 658 642 1171
f 467 1171 642
f 870 1173 500
f 170 1172 664
f 980 1173 378
f 1174 1173 858
f 1174 858 859
f 664 1172 1174
f 1176 1175 525
f 677 1175 679
f 1177 525 391
f 1176 526 986
f 391 742 1177
f 526 1177 742
f 286 1178 412
f 695 1178 698
f 710 1179 711
f 516 714 1179
f 438 305 1180
f 1180 305 308
f 284 880 1181
f 553 1181 880
f 1029 1182 571
f 930 1182 411
f 1184 1183 576
f 1185 1166 1186
f 59 1184 576
f 1184 60 1217
f 801 1183 1185
f 1184 1185 1183
f 1187 1186 1166
f 1188 1186 1187
f 1165 1187 1166
f 1187 533 1225
f 698 1188 696
f 286 1186 1188
f 809 1189 606
f 952 1189 608
f 952 1190 812
f 36 812 1190
f 837 1191 103
f 1192 1191 835
f 835 840 1192
f 1192 840 1224
f 96 1193 893
f 97 894 1193
f 769 1194 770
f 1088 1194 905
f 1196 39 40
f 943 1195 941
f 1197 40 41
f 941 1195 1196
f 41 1198 1197
f 1210 1211 1213
f 935 1198 41
f 1198 804 1213
f 855 1199 481
f 1200 1199 856
f 1045 1200 856
f 1200 1046 1047
f 433 1201 432
f 972 1201 253
f 1202 78 242
f 518 1202 984
f 1030 1203 331
f 334 1203 1032
f 1032 1204 334
f 456 1204 1033
f 845 1205 844
f 1086 1205 843
f 1058 1206 1009
f 1004 1206 1000
f 1065 1208 1207
f 1208 1209 1207
f 1070 1208 1065
f 1209 1208 944
f 1210 1209 944
f 1213 1212 1209
f 945 1210 944
f 1211 1210 941
f 1196 1211 941
f 1197 1198 1213
f 936 1212 804
f 1207 1212 595
f 1210 1213 1209
f 1213 1211 1197
f 1208 1214 944
f 946 1214 1070
f 1079 1215 957
f 1087 1215 1051
f 471 1216 473
f 358 1216 1154
f 1165 1217 61
f 1217 1166 1185
f 411 1218 930
f 285 1218 931
f 1220 1219 623
f 1222 1219 1169
f 1170 1220 639
f 1219 1220 1169
f 128 129 1221
f 129 434 1223
f 633 1222 432
f 1169 1221 1222
f 432 1223 434
f 1221 1223 1222
f 956 1224 840
f 1224 376 497
f 699 1225 530
f 1187 1225 696
f 1096 1226 398
f 774 1226 771
f 1229 396 900
f 901 773 1228
f 762 1228 908
f 901 1228 1227
f 901 1227 1229
f 396 1229 1227
f 1040 1230 951
f 1035 1230 1034
f 1067 1231 808
f 1207 1231 1065
f 1232 807 596
f 808 1231 1232
