# pattern_smooth best-fit FEM (phase 3), RMSE 32.289 mm
# params: /home/chaoyu/phd_simulation/FDM/optimisation/pattern_smooth_rm2_10strip_lap_p3_result.json
v -0.07938931 -1.09618321 0.00000000
v -0.07704053 -1.08512421 -0.00908995
v -0.06837068 -1.06480419 -0.01694050
v -0.05541703 -1.04284225 -0.01851757
v -0.04162465 -1.02108683 -0.01684976
v -0.02532128 -0.99955019 -0.01176065
v -0.00650780 -0.97173604 -0.00025411
v 0.01106086 -0.93957758 0.01712435
v 0.02714828 -0.91446281 0.02925294
v 0.04504710 -0.89075553 0.04005604
v 0.06471048 -0.86535302 0.05299541
v 0.08413753 -0.83970876 0.06686526
v 0.09750501 -0.82245598 0.07560980
v 0.10909755 -0.80713457 0.08326362
v 0.12481311 -0.78370020 0.09421626
v 0.13850173 -0.76034383 0.10339127
v 0.14830302 -0.74055394 0.10735971
v 0.18865462 -0.71049120 0.10041355
v 0.20712291 -0.70449242 0.09361962
v 0.22986862 -0.69633097 0.08460359
v 0.25383611 -0.68895118 0.07041439
v 0.26833517 -0.68658775 0.05543456
v 0.28803196 -0.68241266 0.04133773
v 0.31463113 -0.67648315 0.02785243
v 0.34658959 -0.67063592 0.01365470
v 0.38065145 -0.66655928 0.00235730
v 0.41287394 -0.66721696 -0.00593203
v 0.43951552 -0.66982363 -0.00920613
v 0.47004771 -0.67441382 -0.00948672
v 0.50259542 -0.67541985 0.00000000
v 0.49039294 -0.64682028 0.00000000
v 0.47705156 -0.61803819 0.00000000
v 0.46219909 -0.58938171 0.00000000
v 0.44711907 -0.56028611 0.00000000
v 0.43466338 -0.53625399 0.00000000
v 0.42199442 -0.50695223 0.00000000
v 0.40936106 -0.47587015 0.00000000
v 0.39826563 -0.44857187 0.00000000
v 0.38812015 -0.41671655 0.00000000
v 0.38008588 -0.38478035 0.00000000
v 0.37192372 -0.35233574 0.00000000
v 0.36496608 -0.31949785 0.00000000
v 0.35986056 -0.29113373 0.00000000
v 0.35446270 -0.26114571 0.00000000
v 0.35120710 -0.23184222 0.00000000
v 0.35003794 -0.20144447 0.00000000
v 0.34889887 -0.17182895 0.00000000
v 0.34956442 -0.13632195 0.00000000
v 0.35236641 -0.10870229 0.00000000
v 0.33121275 -0.11974095 0.00820326
v 0.30427757 -0.13372198 0.01843684
v 0.27797880 -0.14733097 0.02820295
v 0.25387530 -0.15912950 0.03671209
v 0.22922601 -0.17094372 0.04508916
v 0.20319071 -0.18305095 0.05348118
v 0.17431975 -0.19577861 0.06197489
v 0.14309661 -0.20929473 0.07059540
v 0.11598246 -0.22079335 0.07754511
v 0.08871801 -0.23210721 0.08400032
v 0.05773384 -0.24447208 0.09046012
v 0.02245981 -0.25791158 0.09667496
v -0.01157336 -0.27036864 0.10166905
v -0.04707491 -0.28299528 0.10603814
v -0.07781100 -0.29317165 0.10879654
v -0.11176922 -0.30391441 0.11112107
v -0.12492792 -0.30799717 0.11196915
v -0.16290905 -0.30337959 0.11020431
v -0.19170274 -0.29976329 0.10849506
v -0.22275293 -0.29616445 0.10649905
v -0.25675551 -0.29235709 0.10406558
v -0.28873535 -0.28886819 0.10148053
v -0.30866355 -0.28661022 0.09964357
v -0.35691818 -0.26635403 0.09113438
v -0.39765882 -0.24904087 0.08314926
v -0.43291587 -0.23406767 0.07562776
v -0.46546105 -0.22018295 0.06815914
v -0.49183370 -0.20818088 0.06170151
v -0.50115355 -0.20338643 0.05933168
v -0.52612153 -0.19145341 0.05277551
v -0.54968316 -0.18007037 0.04629722
v -0.58283121 -0.16310064 0.03674190
v -0.61229986 -0.14736639 0.02782978
v -0.63930160 -0.13235984 0.01935049
v -0.66844857 -0.11568219 0.00984567
v -0.69740458 -0.09893130 0.00000000
v -0.68129700 -0.12150641 0.00159627
v -0.66202259 -0.14904577 0.00420613
v -0.64781650 -0.16993281 0.00657102
v -0.63347901 -0.19192139 0.00927475
v -0.61851292 -0.21667307 0.01234025
v -0.60287843 -0.24442626 0.01595235
v -0.58844088 -0.27244757 0.01969637
v -0.57560509 -0.30042211 0.02340374
v -0.56493416 -0.32912242 0.02670217
v -0.55592865 -0.35782204 0.02985179
v -0.54763946 -0.38921098 0.03318983
v -0.54058110 -0.42205835 0.03649935
v -0.53483756 -0.45725486 0.03960444
v -0.53025883 -0.49202042 0.04264337
v -0.52683322 -0.52521234 0.04548264
v -0.52433585 -0.55818279 0.04823986
v -0.52342631 -0.59398175 0.05038403
v -0.52355095 -0.62850377 0.05227448
v -0.52458307 -0.66298676 0.05401178
v -0.52642592 -0.69718610 0.05567579
v -0.52985952 -0.72968655 0.05646319
v -0.53502321 -0.76160813 0.05640640
v -0.54105403 -0.78932294 0.05563957
v -0.54683078 -0.80789661 0.05430283
v -0.55430748 -0.82490863 0.05199875
v -0.56745769 -0.84882732 0.04726473
v -0.57999388 -0.86962779 0.04228582
v -0.59512035 -0.89339850 0.03560781
v -0.61054363 -0.91795251 0.02855282
v -0.62528190 -0.94186731 0.02163463
v -0.63904754 -0.96458845 0.01502051
v -0.65417450 -0.98992301 0.00759109
v -0.66931298 -1.01557252 0.00000000
v -0.65378832 -1.00172904 0.00891059
v -0.63425662 -0.98431246 0.02012103
v -0.61537016 -0.96747122 0.03096116
v -0.59281951 -0.94736254 0.04390440
v -0.56953364 -0.92659828 0.05726962
v -0.54707639 -0.90697251 0.06989819
v -0.51863661 -0.88868641 0.08159919
v -0.49374150 -0.87267951 0.09184179
v -0.46802902 -0.85669937 0.10215723
v -0.43570257 -0.85229164 0.10764478
v -0.39824196 -0.84718392 0.11400388
v -0.36556294 -0.85150689 0.11458723
v -0.33184902 -0.85765610 0.11423383
v -0.30740070 -0.87160693 0.10899450
v -0.28040147 -0.88718839 0.10311665
v -0.25362141 -0.90264343 0.09728650
v -0.23304652 -0.92119894 0.08869808
v -0.21151341 -0.94117143 0.07936965
v -0.18922525 -0.96184436 0.06971414
v -0.16777454 -0.98304747 0.05953036
v -0.14895863 -1.00713241 0.04685723
v -0.13014273 -1.03121727 0.03418410
v -0.11215323 -1.05424439 0.02206758
v -0.09406323 -1.07740018 0.00988337
v -0.11843407 -0.81587016 0.10313223
v -0.31401694 -0.31209653 0.10560444
v -0.31696878 -0.34142492 0.11247560
v -0.31939832 -0.37208319 0.11942087
v -0.32149779 -0.40365430 0.12556295
v -0.32314113 -0.43606097 0.13090988
v -0.32443780 -0.46829230 0.13518186
v -0.32539238 -0.50047197 0.13846782
v -0.32599955 -0.53263588 0.14082345
v -0.32596076 -0.56427495 0.14229057
v -0.32578298 -0.59583201 0.14281770
v -0.32537363 -0.62715026 0.14245912
v -0.32480691 -0.65830543 0.14121520
v -0.32401731 -0.68930386 0.13914804
v -0.32259614 -0.71960633 0.13638156
v -0.32132470 -0.75017983 0.13263414
v -0.32006144 -0.78107840 0.12782574
v -0.31812388 -0.81156494 0.12214369
v -0.31451435 -0.84240194 0.11560833
v -0.12689986 -0.33472368 0.11762247
v -0.12763033 -0.36407090 0.12327107
v -0.12761432 -0.39283260 0.12909251
v -0.12707551 -0.42300092 0.13452915
v -0.12602413 -0.45356209 0.13926120
v -0.12508635 -0.48437652 0.14296254
v -0.12465677 -0.51561096 0.14534674
v -0.12489755 -0.54704168 0.14623447
v -0.12575166 -0.57853809 0.14563178
v -0.12699211 -0.60996463 0.14362274
v -0.12808848 -0.64101546 0.14047513
v -0.12835605 -0.67196635 0.13623966
v -0.12772610 -0.70295227 0.13094212
v -0.12618734 -0.73325824 0.12483973
v -0.12381182 -0.76329406 0.11791254
v -0.12107791 -0.79304851 0.10994154
v -0.11161309 -0.85272939 0.09019440
v -0.10520858 -0.88598877 0.07846382
v -0.09870298 -0.91897824 0.06650395
v -0.09224955 -0.95153810 0.05404263
v -0.08607567 -0.98514037 0.04064323
v -0.08230523 -1.01823187 0.02793983
v -0.08007449 -1.04936109 0.01648894
v -0.07960158 -1.07633315 0.00734635
v 0.33412036 -0.13018848 0.01091981
v 0.31448712 -0.15200688 0.02162472
v 0.29295295 -0.17239840 0.03417185
v 0.27264072 -0.19100027 0.05044826
v 0.25199177 -0.20996833 0.06843929
v 0.23134952 -0.22918817 0.08738419
v 0.21127583 -0.24935624 0.10714615
v 0.19192916 -0.27136064 0.12712003
v 0.17163675 -0.29596256 0.14808072
v 0.15246713 -0.32155218 0.16814285
v 0.13275949 -0.34741640 0.18654522
v 0.11214772 -0.37326821 0.20232739
v 0.09146047 -0.40035678 0.21557275
v 0.07138870 -0.42880210 0.22611564
v 0.05127311 -0.45629662 0.23260688
v 0.03013708 -0.48412503 0.23517971
v 0.00827920 -0.51133593 0.23393213
v -0.01277408 -0.53865531 0.22950809
v -0.03165644 -0.56677370 0.22266805
v -0.04812770 -0.59589034 0.21383616
v -0.06313749 -0.62529643 0.20302743
v -0.07663527 -0.65464448 0.19068884
v -0.08835203 -0.68410809 0.17726696
v -0.09707657 -0.71414223 0.16297599
v -0.10244479 -0.74457841 0.14874524
v -0.10594477 -0.77346711 0.13355489
v -0.10965107 -0.79904523 0.11618389
v -0.34299510 -0.83187696 0.12059020
v 0.43348646 -0.65136690 0.02924578
v 0.33802774 -0.15273350 0.01116879
v 0.45907839 -0.65980655 0.01068811
v -0.60880101 -0.93835295 0.03465320
v -0.59147553 -0.91985019 0.04576442
v -0.55210805 -0.87342156 0.06737784
v -0.62663262 -0.16691098 0.01849712
v -0.55451330 -0.23402082 0.04130487
v -0.06433532 -1.02143086 0.00312082
v -0.04043884 -0.97047794 0.03141492
v 0.30807471 -0.65189260 0.09332357
v 0.40134064 -0.64795180 0.01643537
v 0.32745953 -0.17343858 0.02061921
v 0.45984267 -0.63734222 0.01841703
v 0.44552093 -0.61462405 0.01532809
v -0.57333011 -0.89554208 0.05637430
v -0.60956286 -0.19050453 0.02241205
v -0.54639334 -0.20861281 0.04676289
v -0.05725200 -0.99749092 0.02667636
v -0.02499329 -0.97936011 0.01258525
v -0.01206535 -0.94984795 0.02760990
v 0.30712502 -0.66994768 0.06182876
v 0.43828969 -0.59038650 0.05516787
v -0.57677994 -0.19924615 0.03587122
v -0.52150479 -0.23434151 0.05316695
v -0.04100328 -1.00395442 0.00689745
v 0.34362478 -0.65433088 0.05949913
v 0.27776330 -0.66993645 0.09787849
v -0.52157917 -0.21262009 0.05452974
v 0.32407725 -0.66034451 0.07032912
v 0.33376502 -0.64151990 0.09764003
v 0.28807308 -0.67532113 0.06956660
v -0.50079483 -0.83686548 0.08118604
v -0.48130147 -0.71441299 0.08986658
v -0.27288061 -0.84929020 0.12761264
v -0.13980837 -0.94745601 0.08871569
v -0.17329622 -0.85753025 0.11391118
v -0.26481708 -0.73727853 0.15299672
v -0.26876382 -0.64320747 0.16042064
v -0.37986784 -0.76779168 0.12740473
v -0.10460412 -0.63132918 0.17054683
v -0.11580771 -0.72217180 0.14388087
v -0.11411770 -0.69177506 0.15303893
v -0.11672760 -0.75172277 0.13271428
v -0.11987408 -1.00531540 0.03201755
v -0.47961028 -0.53008245 0.08538575
v -0.26973123 -0.48257697 0.15797292
v -0.07787022 -0.39483043 0.16336507
v -0.26368303 -0.38439556 0.14205069
v -0.37945786 -0.38743068 0.11460554
v -0.08547543 -0.33669986 0.13962866
v -0.34270546 -0.29845142 0.09811993
v -0.28197684 -0.32670966 0.10861599
v -0.30352138 -0.29494667 0.10852954
v -0.29412025 -0.31185786 0.10205509
v -0.45683220 -0.28964585 0.07369904
v -0.18015832 -0.34797832 0.14095421
v -0.14376874 -0.31919043 0.12241536
v -0.17322232 -0.32353466 0.12401500
v -0.11827072 -0.31502364 0.12465428
v -0.09961946 -0.33715183 0.11606292
v -0.10681872 -0.35466887 0.13811837
v -0.08807744 -0.31257789 0.12497963
v -0.07926256 -0.36929518 0.14267127
v -0.09011982 -1.06102376 0.02405765
v -0.10804073 -1.03334567 0.01547872
v -0.04386562 -0.86583810 0.10895208
v -0.03047011 -0.72483504 0.19638937
v -0.08848298 -0.56479585 0.18581312
v 0.18267276 -0.67388782 0.16319132
v -0.05037528 -0.48641674 0.20414967
v 0.19546881 -0.37129895 0.19218596
v 0.07082932 -0.32414009 0.16994806
v 0.11202819 -0.27710615 0.13494048
v 0.16982409 -0.23689540 0.10227102
v 0.20316690 -0.21076914 0.07793237
v 0.26707965 -0.27972745 0.10563318
v 0.24834391 -0.18672437 0.05428170
v 0.22614587 -0.19943106 0.06578940
v 0.27347248 -0.16573899 0.03754784
v 0.29513031 -0.15429164 0.02701104
v 0.30914878 -0.21399521 0.03556162
v -0.35201948 -0.79725384 0.12650530
v -0.53954134 -0.84755034 0.06400119
v -0.57796794 -0.24410162 0.02952015
v -0.04576366 -0.92425117 0.06491898
v -0.06649378 -0.96364718 0.04489813
v -0.04397168 -0.94644851 0.04755715
v -0.06816865 -0.93964535 0.05913944
v -0.01933090 -0.92731068 0.05079828
v 0.00436116 -0.92413669 0.03854176
v -0.01835417 -0.89240001 0.08270807
v 0.01845053 -0.89566514 0.05996911
v -0.02646938 -0.90887782 0.06609279
v -0.00271950 -0.90822864 0.05955108
v -0.05405449 -0.89403311 0.08142603
v -0.55947494 -0.89159582 0.07006842
v -0.54166221 -0.88577843 0.08390867
v -0.51382928 -0.86221902 0.08512583
v 0.43144251 -0.55699278 0.06167868
v 0.40029546 -0.61846442 0.05064431
v -0.59563312 -0.21607447 0.02502567
v -0.52989443 -0.29328747 0.04650043
v 0.33450707 -0.66684939 0.03874212
v 0.36703857 -0.65668521 0.03255334
v 0.23958473 -0.67731586 0.14497743
v 0.26127779 -0.68126124 0.08799838
v 0.26065259 -0.67128755 0.12523019
v 0.24430724 -0.68716084 0.10649571
v 0.28015741 -0.64135760 0.15410460
v 0.21278877 -0.69251359 0.13599677
v 0.27513877 -0.65909781 0.13154463
v 0.29129376 -0.64787277 0.12168378
v 0.24814909 -0.65056027 0.18382782
v 0.30652424 -0.63092611 0.11886709
v 0.24999277 -0.66492500 0.15702590
v 0.22466673 -0.66341375 0.18746395
v 0.33491325 -0.60062488 0.14333999
v 0.32702238 -0.62153877 0.12773251
v 0.36256590 -0.62062945 0.09397181
v 0.29147451 -0.60062774 0.17667025
v 0.29991951 -0.61172646 0.14360225
v 0.28759606 -0.62235977 0.16661251
v 0.25231733 -0.60337644 0.21399136
v 0.26401539 -0.62699975 0.18944045
v -0.52682319 -0.82581240 0.06618633
v -0.47785029 -0.85332211 0.09409174
v -0.49285187 -0.78525724 0.08726044
v -0.38288935 -0.67524312 0.13310088
v -0.50561025 -0.71326108 0.07334400
v -0.29478374 -0.82836895 0.12999019
v -0.29483577 -0.85451957 0.12088723
v -0.27812640 -0.86919731 0.11633550
v -0.25679100 -0.88208001 0.11231138
v -0.21773912 -0.89273063 0.10930995
v -0.23858245 -0.89223733 0.10688900
v -0.23261727 -0.86319535 0.12457270
v -0.16293649 -0.96817738 0.08574627
v -0.13226296 -0.99192229 0.06666526
v -0.17840231 -0.92232960 0.08244734
v -0.13988903 -0.97231586 0.08039786
v -0.11121559 -0.97087367 0.06900755
v -0.17899360 -0.94739452 0.08816261
v -0.12968894 -0.90966808 0.08965364
v -0.14248460 -0.84330605 0.10352800
v -0.18115605 -0.78588224 0.14247496
v -0.29007196 -0.70566333 0.15039253
v -0.29657942 -0.73644444 0.14494528
v -0.18770645 -0.62004840 0.16342955
v -0.27057132 -0.57995715 0.16285841
v -0.29297487 -0.61160401 0.15577232
v -0.29994639 -0.64295315 0.15223141
v -0.35765623 -0.73620175 0.13330305
v -0.11954922 -0.62788021 0.15374318
v -0.11352937 -0.65191783 0.15936342
v -0.11108775 -0.60752000 0.16443432
v -0.09651195 -0.65196227 0.17622784
v -0.08755881 -0.61074645 0.18670689
v -0.12725095 -1.01892982 0.04472085
v -0.09904014 -1.00431879 0.03936844
v -0.38372449 -0.58140349 0.13327315
v -0.38218448 -0.48555493 0.12794128
v -0.50475687 -0.53639566 0.06589761
v -0.29331438 -0.51541273 0.15393713
v -0.18357926 -0.52980583 0.16685118
v -0.18598389 -0.43992581 0.15761252
v -0.29130232 -0.45101909 0.14708520
v -0.30034817 -0.48334832 0.14814499
v -0.10209546 -0.40374664 0.14352230
v 0.00920489 -0.40619736 0.20549469
v -0.29486390 -0.38663407 0.13130049
v -0.35707858 -0.41976030 0.12480926
v -0.34714252 -0.38761210 0.12032655
v -0.32178893 -0.29891157 0.10126190
v -0.33975315 -0.32531154 0.10689956
v -0.45069929 -0.25736726 0.07376572
v -0.21445494 -0.33283875 0.12759228
v -0.15631952 -0.37485086 0.13971326
v -0.05094534 -0.31621226 0.13344491
v -0.10126041 -1.01850289 0.02020470
v -0.08066543 -0.87010193 0.09862273
v 0.03385474 -0.83855161 0.11526364
v -0.04696164 -0.80921789 0.14675592
v -0.06623161 -0.71203411 0.18590861
v 0.09346108 -0.77274809 0.15652030
v 0.00293744 -0.64399863 0.23249278
v -0.10979453 -0.56389418 0.16482400
v -0.11153976 -0.58560013 0.16371428
v -0.09737186 -0.52772441 0.17476219
v -0.10986718 -0.54248082 0.16331774
v -0.06193586 -0.56774215 0.20609818
v 0.06989603 -0.53847857 0.25783398
v 0.16015290 -0.70833227 0.14380838
v -0.02551453 -0.50679433 0.22053840
v -0.08738165 -0.46144164 0.17422278
v 0.19442737 -0.32997262 0.16695835
v 0.16760551 -0.35063214 0.18569473
v 0.15438193 -0.42473275 0.22819658
v 0.09802050 -0.34335122 0.18476334
v 0.13916783 -0.29329232 0.14887049
v 0.11569061 -0.24750353 0.10718027
v 0.14069550 -0.23172528 0.09524110
v 0.18882751 -0.25004858 0.11171784
v 0.19719635 -0.23008609 0.09516937
v 0.16194908 -0.26265492 0.12385046
v 0.19402272 -0.19593054 0.06512490
v 0.31794196 -0.30543823 0.07832977
v 0.26707868 -0.24387906 0.08317583
v 0.22974574 -0.28272382 0.12506667
v 0.33568541 -0.21451824 0.02051819
v 0.33233500 -0.19384632 0.02063680
v 0.32394951 -0.24537657 0.03450008
v 0.29354421 -0.19559989 0.04002296
v 0.28322717 -0.22034065 0.06192232
v -0.33165971 -0.79652589 0.12602251
v -0.34284311 -0.77691487 0.12940897
v -0.36331815 -0.78011955 0.12814496
v -0.35637642 -0.75898197 0.13128445
v -0.39572452 -0.80472327 0.12175413
v -0.37455778 -0.79930762 0.12521913
v -0.37913704 -0.82663751 0.12089558
v -0.55614489 -0.27217925 0.03617210
v -0.57220362 -0.22259218 0.03525470
v -0.03620523 -0.88270449 0.09416986
v -0.00422987 -0.86093400 0.10756406
v -0.08256905 -0.90401154 0.08196245
v -0.51008162 -0.87282222 0.09618664
v -0.53333787 -0.86277498 0.07425371
v 0.44482740 -0.56837772 0.03791058
v 0.41104268 -0.63246016 0.03105403
v 0.38096613 -0.63892285 0.04810696
v -0.55234420 -0.30457369 0.03513183
v 0.21576937 -0.69662287 0.10736286
v 0.19869237 -0.70641089 0.12786974
v 0.21807141 -0.68039363 0.16272709
v 0.19617158 -0.67018042 0.19695965
v 0.20001096 -0.69003638 0.16439337
v 0.35489524 -0.63871540 0.07618605
v 0.38901837 -0.58828744 0.09490617
v 0.36390408 -0.47734860 0.13170277
v 0.21609486 -0.62391311 0.23298150
v 0.27428086 -0.60869691 0.19594791
v 0.27779327 -0.56515908 0.21123167
v 0.26926084 -0.58830693 0.21171665
v 0.23709679 -0.56801439 0.23956362
v 0.24946105 -0.58276328 0.22562167
v 0.22647194 -0.59787648 0.24413154
v -0.51978910 -0.84208155 0.07191148
v -0.47631344 -0.86440774 0.09965374
v -0.51564265 -0.77982175 0.07103070
v -0.35121870 -0.67426696 0.13849326
v -0.49683939 -0.74762923 0.08140032
v -0.48921351 -0.66856552 0.08434191
v -0.24882474 -0.79957998 0.14619402
v -0.15002969 -1.00112305 0.06430327
v -0.20521247 -0.91578660 0.09157135
v -0.11069131 -0.90568586 0.08118274
v -0.12469525 -0.88639976 0.09227667
v -0.11480710 -0.93046962 0.08025705
v -0.16405827 -0.88897750 0.09260849
v -0.12373262 -0.83629517 0.09993024
v -0.15281060 -0.81170237 0.12629980
v -0.15931949 -0.75294419 0.13928461
v -0.31054897 -0.70506688 0.14340162
v -0.30128193 -0.68098515 0.14921660
v -0.31387202 -0.73561585 0.13829082
v -0.29531211 -0.76743634 0.14155551
v -0.18921865 -0.68765227 0.15609655
v -0.16561289 -0.65497987 0.15347581
v -0.15468227 -0.62311569 0.15446483
v -0.30114916 -0.57993464 0.15353433
v -0.31293800 -0.61156341 0.14849689
v -0.31693901 -0.64287050 0.14558466
v -0.33623067 -0.73529281 0.13472862
v -0.34823658 -0.71138254 0.13645366
v -0.11661828 -0.67101282 0.15359180
v -0.08607543 -0.63355235 0.18643028
v -0.06894256 -0.60266328 0.20082175
v -0.08513077 -0.58767658 0.18922866
v -0.11626418 -0.98628770 0.04772346
v -0.35229179 -0.58046293 0.13983574
v -0.36027606 -0.51709029 0.13537449
v -0.35176367 -0.48478308 0.13412471
v -0.51907890 -0.53994602 0.05325374
v -0.31312787 -0.51593376 0.14592672
v -0.30354354 -0.54102604 0.15165150
v -0.15093911 -0.53050333 0.15867240
v -0.15968072 -0.46959535 0.15638426
v -0.31107552 -0.45176530 0.13926729
v -0.29974520 -0.42588781 0.13952936
v -0.31692973 -0.48400193 0.14087785
v -0.12027610 -0.40634314 0.13818599
v -0.10437785 -0.43297188 0.15429287
v -0.08738406 -0.38838789 0.14552034
v -0.11025264 -0.38073879 0.14284711
v 0.01028224 -0.44744383 0.22051866
v 0.04952079 -0.39318970 0.20825124
v -0.31236590 -0.38719697 0.12560921
v -0.29304527 -0.35465826 0.12616876
v -0.33634317 -0.41956463 0.12738088
v -0.34808335 -0.44493499 0.12991666
v -0.32936539 -0.38769435 0.12206471
v -0.39456699 -0.32607637 0.09647448
v -0.34436375 -0.35579458 0.11394212
v -0.47665177 -0.24759838 0.06666992
v -0.19200602 -0.33286130 0.12915483
v -0.20862642 -0.35788065 0.14297433
v -0.21017635 -0.31253031 0.11741584
v -0.24077595 -0.31963092 0.12067867
v -0.13854864 -0.37726172 0.13027774
v -0.14603889 -0.35714482 0.13292440
v -0.14897798 -0.39489617 0.13537917
v -0.18691834 -0.40046536 0.15091198
v -0.14264991 -0.33873878 0.12818302
v -0.05856250 -0.30072688 0.11595913
v -0.03456934 -0.29701284 0.12453781
v -0.00869603 -0.33272723 0.16083976
v -0.02711025 -0.31807360 0.14468036
v -0.04878642 -0.35154403 0.15980262
v 0.01069469 -0.29533252 0.13485402
v -0.03004968 -0.33889682 0.15859445
v -0.02030624 -0.37763629 0.18323957
v -0.01640967 -0.35431014 0.17249606
v -0.01243268 -0.29985457 0.13347158
v 0.01665384 -0.36824700 0.18922143
v -0.07030767 -0.32448205 0.12670024
v -0.06217987 -0.34547010 0.13888657
v -0.10136767 -0.87223759 0.09093378
v -0.07841762 -0.82873775 0.11306381
v 0.05669632 -0.84856878 0.08662230
v -0.08429412 -0.80078748 0.14122680
v -0.08457156 -0.70391634 0.17618687
v -0.07686067 -0.73863463 0.17153039
v -0.05971861 -0.68216095 0.19749280
v 0.08689793 -0.80235494 0.12056304
v 0.10984409 -0.78659009 0.12356290
v -0.02959936 -0.62617287 0.22259462
v 0.02723498 -0.58816670 0.24885272
v -0.10396436 -0.49749501 0.16543106
v -0.07251338 -0.53737729 0.19672829
v 0.04220570 -0.51591121 0.24797581
v 0.16506339 -0.72022564 0.12137834
v 0.13468039 -0.72181159 0.13114771
v 0.11696893 -0.68486747 0.17710599
v 0.13261824 -0.69616088 0.15288358
v 0.15852319 -0.68767549 0.17184140
v 0.11659967 -0.73436916 0.17092321
v 0.16465980 -0.65415968 0.19253749
v 0.12960155 -0.71107499 0.17285936
v 0.10048591 -0.70369561 0.20398810
v -0.01047237 -0.51880765 0.22851294
v -0.00394197 -0.47943404 0.22444810
v -0.10916316 -0.46582995 0.15684198
v 0.17551027 -0.31687387 0.16218668
v 0.20003912 -0.30299223 0.14793384
v 0.15123978 -0.33978298 0.18051383
v 0.14706939 -0.37723701 0.20380484
v 0.11301821 -0.43570724 0.23398305
v 0.11417319 -0.35454095 0.19176212
v 0.11932515 -0.31802390 0.16777430
v 0.07765166 -0.37021123 0.19983974
v 0.10753075 -0.23381826 0.09095928
v 0.09401480 -0.24780710 0.10348728
v 0.17643489 -0.21591090 0.08348993
v 0.13983452 -0.25214527 0.11446430
v 0.14132563 -0.27228302 0.13205513
v 0.34418422 -0.30454495 0.03996269
v 0.25187940 -0.22874949 0.08059928
v 0.24412083 -0.25057535 0.09818383
v 0.26164171 -0.26093576 0.09699129
v 0.29598473 -0.26622914 0.07791185
v 0.21282602 -0.26923842 0.12110943
v 0.34415561 -0.24589463 0.01582625
v 0.33691213 -0.26470156 0.02987102
v 0.31585260 -0.26121854 0.05599534
v 0.30206596 -0.23888777 0.05744094
v 0.31351154 -0.28247451 0.07063512
v 0.29123689 -0.28974030 0.09461005
v 0.26680249 -0.32984119 0.13648853
v 0.27364107 -0.30548083 0.11698900
v 0.25095069 -0.29542379 0.12368383
v 0.29933280 -0.32964508 0.11170205
v 0.22843057 -0.31098186 0.14399513
v 0.29334830 -0.30959677 0.10475968
v 0.26942033 -0.20730837 0.06121501
v -0.36103971 -0.83444542 0.12023863
v -0.56208041 -0.25230829 0.03590823
v -0.54083622 -0.25478464 0.04461264
v -0.57260465 -0.27885983 0.02737915
v -0.54020564 -0.33353979 0.04037390
v -0.54555100 -0.28691348 0.03985281
v 0.41763834 -0.57990040 0.07665167
v 0.39988269 -0.56440904 0.09951712
v 0.40447331 -0.59913700 0.06651584
v 0.41413596 -0.52893090 0.07327351
v 0.35702055 -0.57852596 0.13387212
v 0.39417441 -0.46430678 0.06929511
v 0.20807745 -0.64760004 0.21615717
v 0.24131177 -0.62964831 0.21539651
v 0.18218619 -0.55765592 0.25928657
v -0.51911744 -0.80582508 0.06863027
v -0.33324790 -0.67388927 0.14001375
v -0.35240425 -0.64338551 0.13983230
v -0.49491035 -0.72715561 0.08142890
v -0.51211735 -0.73512797 0.07015259
v -0.47755042 -0.73840839 0.09256599
v -0.51323085 -0.75739571 0.07170081
v -0.48165649 -0.76346293 0.09156824
v -0.43898937 -0.71492079 0.11251599
v -0.45446670 -0.79943443 0.10709034
v -0.46104548 -0.72061931 0.10156472
v -0.47263508 -0.78634980 0.09797399
v -0.45011600 -0.75465359 0.10668928
v -0.45568875 -0.67946682 0.10519921
v -0.47811812 -0.82038800 0.09150499
v -0.44813140 -0.73379253 0.10801586
v -0.41352972 -0.74711661 0.12097469
v -0.46715373 -0.75226980 0.09855506
v -0.45421276 -0.77707143 0.10575519
v -0.42474979 -0.78639921 0.11608201
v -0.46582120 -0.69944903 0.09932337
v -0.47505726 -0.68103758 0.09386931
v -0.46544770 -0.64880484 0.09969667
v -0.49294769 -0.69316605 0.08203551
v -0.47037538 -0.80736975 0.10079543
v -0.45875068 -0.83691954 0.10268530
v -0.50908805 -0.67797078 0.06929102
v -0.50392221 -0.64766825 0.07220317
v -0.26771709 -0.82124050 0.13864093
v -0.22266465 -0.90792001 0.09930508
v -0.12046468 -0.95178716 0.07876800
v -0.18547128 -0.90256799 0.09157552
v -0.13235934 -0.80831796 0.11541756
v -0.14367349 -0.78858176 0.12655412
v -0.16270192 -0.79487987 0.13434589
v -0.15851292 -0.77431576 0.13647475
v -0.18735753 -0.82024221 0.13589234
v -0.13805430 -0.75011989 0.12954699
v -0.15141627 -0.72816614 0.13892937
v -0.19482712 -0.72890219 0.15304539
v -0.17298280 -0.73553781 0.14644996
v -0.17071967 -0.70851763 0.14900292
v -0.19234687 -0.75880553 0.14940068
v -0.26519635 -0.68021855 0.15845355
v -0.29486604 -0.79812581 0.13668300
v -0.28016921 -0.75304968 0.14797670
v -0.27023374 -0.77968165 0.14691857
v -0.14323244 -0.65593092 0.14530390
v -0.15488680 -0.68141474 0.14674037
v -0.13641358 -0.62469602 0.14678199
v -0.15196611 -0.59246860 0.15748729
v -0.31790673 -0.58005920 0.14648991
v -0.38399589 -0.71149943 0.13098857
v -0.10150159 -0.66998660 0.16897781
v -0.33458482 -0.58010561 0.14205099
v -0.35254144 -0.54876216 0.13883214
v -0.35268132 -0.61204725 0.14030077
v -0.33962470 -0.51667489 0.13851962
v -0.33382391 -0.48446047 0.13623420
v -0.26835756 -0.54199537 0.16300794
v -0.13325597 -0.53088917 0.15091626
v -0.14926654 -0.49992116 0.15682045
v -0.13874334 -0.46888742 0.14851383
v -0.15024792 -0.44531476 0.14903032
v -0.16906885 -0.45159328 0.15591077
v -0.16558037 -0.42952811 0.15245281
v -0.20076157 -0.47857357 0.16471827
v -0.26442970 -0.42243478 0.15026063
v -0.09151080 -0.41426778 0.16061195
v -0.08568419 -0.43634633 0.17037670
v -0.05272754 -0.44611860 0.19372784
v -0.07176915 -0.44769690 0.18250196
v -0.06893661 -0.47294422 0.18990138
v -0.06041066 -0.41567524 0.18092679
v -0.08737838 -0.48498364 0.17812000
v 0.02823398 -0.46086268 0.22913171
v 0.03528299 -0.43310345 0.22212759
v 0.01533094 -0.42616928 0.21488643
v 0.03317136 -0.41004518 0.21303394
v -0.02037730 -0.42909501 0.20427718
v 0.02667393 -0.38809429 0.20170916
v 0.04444280 -0.36590488 0.19349669
v 0.03011495 -0.33121929 0.16891407
v 0.03027924 -0.35125764 0.18216219
v 0.05451974 -0.34324470 0.18103330
v 0.00961611 -0.34315524 0.17259360
v 0.06834138 -0.40634835 0.21667664
v -0.31020938 -0.35615510 0.11945411
v -0.27777049 -0.36947253 0.13133185
v -0.24457042 -0.35331247 0.13350061
v -0.26852366 -0.34355951 0.12914786
v -0.29735435 -0.33973875 0.11344315
v -0.38343429 -0.44746143 0.12354274
v -0.36680077 -0.31717506 0.09989100
v -0.41564677 -0.28873655 0.08401422
v -0.36270108 -0.37014661 0.11443945
v -0.36678193 -0.34398276 0.10765544
v -0.38651462 -0.36219355 0.10766955
v -0.42790212 -0.39318737 0.10100344
v -0.40443331 -0.38312370 0.10701611
v -0.41532706 -0.35303470 0.09723242
v -0.40573947 -0.42079388 0.11338632
v -0.39499890 -0.40211202 0.11349378
v -0.38406207 -0.42306714 0.11993041
v -0.46619714 -0.26838768 0.07003429
v -0.49892077 -0.27987262 0.05956739
v -0.47972668 -0.29097882 0.06644619
v -0.50445203 -0.32518761 0.05820401
v -0.49681595 -0.30379062 0.06040961
v -0.51434013 -0.30606967 0.05324266
v -0.47121010 -0.33137783 0.07270749
v -0.53010709 -0.31578370 0.04589906
v -0.52126468 -0.33893429 0.05055158
v -0.46775638 -0.30881152 0.07173451
v -0.43709812 -0.32754338 0.08446849
v -0.53487786 -0.36047003 0.04298435
v -0.49399822 -0.37101901 0.06608801
v -0.50399478 -0.34997527 0.05977478
v -0.51602704 -0.37369404 0.05392748
v -0.48513061 -0.34979025 0.06879315
v -0.46125145 -0.37945465 0.08404357
v -0.47661898 -0.36951166 0.07513944
v -0.48463343 -0.40907630 0.07549402
v -0.45790997 -0.35249298 0.08134103
v -0.43774078 -0.36726551 0.09207921
v -0.46376048 -0.24206372 0.06982783
v -0.24051174 -0.30454153 0.10639424
v -0.26051364 -0.31680969 0.10832616
v -0.18862195 -0.37387197 0.14645612
v -0.21705930 -0.39024316 0.15048987
v -0.16254995 -0.33784810 0.13544746
v -0.06408057 -0.37276714 0.16220672
v -0.04218236 -0.37240442 0.17284772
v -0.03960480 -0.39799241 0.18472706
v -0.05814307 -0.39176293 0.17352740
v -0.04040795 -0.42167065 0.19277081
v -0.01575689 -0.40238489 0.19593375
v 0.00109534 -0.38589265 0.19415418
v -0.09932839 -0.81706167 0.10771894
v -0.10084542 -0.84145469 0.10629572
v 0.02694105 -0.86626637 0.08716775
v -0.06961227 -0.82055181 0.13675073
v -0.05254812 -0.84333355 0.12647369
v -0.06852669 -0.84908649 0.10581354
v -0.02507048 -0.84897137 0.12137701
v 0.00424717 -0.83302410 0.12834071
v -0.05337768 -0.73417072 0.18511150
v -0.04999000 -0.77294463 0.16852885
v -0.02606670 -0.75493792 0.18480935
v -0.04408095 -0.70311203 0.19932524
v 0.00519033 -0.69464288 0.21777969
v -0.02633013 -0.67689554 0.21420258
v -0.01731881 -0.70510962 0.20785762
v 0.01628507 -0.73793189 0.19917192
v 0.00509238 -0.71730204 0.20815969
v 0.05245443 -0.71047025 0.21454389
v 0.03026137 -0.71975780 0.20927555
v 0.05923880 -0.75154668 0.18607524
v 0.04115914 -0.73940644 0.19769313
v 0.02419506 -0.77646239 0.16876226
v 0.03844271 -0.76200646 0.18372062
v 0.06000498 -0.78886927 0.15444078
v 0.09706919 -0.80985304 0.09763156
v 0.07746778 -0.82339642 0.09881823
v 0.09485769 -0.78682276 0.13606459
v -0.04726309 -0.61588620 0.21385296
v -0.01612073 -0.59650474 0.23167482
v -0.10971978 -0.51664732 0.16154359
v -0.08886739 -0.54420912 0.18388628
v -0.04370608 -0.53760284 0.21527845
v 0.02680782 -0.50356751 0.23971675
v 0.02010914 -0.54297169 0.24500247
v 0.06493871 -0.48844884 0.24658402
v 0.10699684 -0.75426357 0.14177129
v 0.18329352 -0.66110463 0.18537721
v 0.18103982 -0.65400860 0.20989809
v 0.15055491 -0.62791992 0.22895059
v -0.02744838 -0.48241334 0.21511425
v -0.01635288 -0.45594835 0.21358316
v -0.04037021 -0.46389770 0.20481716
v 0.13089133 -0.36571301 0.19802572
v 0.12541060 -0.40357068 0.21928505
v 0.09411772 -0.42276329 0.22671862
v 0.08820038 -0.45071892 0.23790642
v 0.12854106 -0.49084144 0.25366993
v 0.11371002 -0.46484058 0.24553724
v 0.11637908 -0.29716208 0.15197282
v 0.08147397 -0.29299560 0.14620159
v 0.09621375 -0.31002168 0.16117900
v 0.09361453 -0.38131092 0.20638878
v 0.34000445 -0.34203336 0.07063191
v 0.34353444 -0.28494597 0.03024609
v 0.28700483 -0.24728769 0.07391519
v 0.24955184 -0.31600982 0.13756861
v 0.23187884 -0.35216800 0.16844349
v 0.43123577 -0.53839154 0.04639234
v 0.37308538 -0.54310824 0.12988147
v 0.37803950 -0.43420728 0.07225538
v 0.40591329 -0.49459834 0.07226129
v 0.23845109 -0.61074262 0.23241380
v 0.22853626 -0.64542612 0.20815854
v 0.20967020 -0.57275383 0.25438504
v -0.51158004 -0.81996650 0.07386961
v -0.49806328 -0.80603304 0.08014098
v -0.36722303 -0.65898574 0.13694215
v -0.38079246 -0.62848698 0.13470996
v -0.39071461 -0.65176310 0.13171918
v -0.42714940 -0.62137694 0.11897043
v -0.41994254 -0.67709686 0.12162208
v -0.40547433 -0.63135490 0.12737098
v -0.40158280 -0.66947942 0.12813533
v -0.41795967 -0.65247943 0.12279950
v -0.40315991 -0.69533305 0.12675719
v -0.39470253 -0.60624504 0.13082286
v -0.43816760 -0.66366287 0.11420443
v -0.42393216 -0.69906122 0.11937664
v -0.40795947 -0.72136517 0.12407553
v -0.43794300 -0.68541614 0.11384969
v -0.42650734 -0.73113400 0.11710847
v -0.48497948 -0.64384311 0.08660831
v -0.46431530 -0.59984488 0.09874666
v -0.49653524 -0.60778796 0.07596883
v -0.46985690 -0.62473228 0.09612060
v -0.49539959 -0.62884746 0.07822128
v -0.44845589 -0.62996980 0.10883171
v -0.48020994 -0.60873320 0.08841980
v -0.48338264 -0.56954256 0.08393545
v -0.43395623 -0.64295203 0.11603861
v -0.44355808 -0.60501537 0.11065399
v -0.41867438 -0.59280622 0.12172942
v -0.44441306 -0.56182335 0.10807221
v -0.44966636 -0.58396790 0.10642755
v -0.46389543 -0.56854445 0.09701119
v -0.45903570 -0.54133289 0.09877801
v -0.24821845 -0.84162823 0.13414740
v -0.14852939 -0.70756656 0.14063892
v -0.22771946 -0.74516956 0.15512781
v -0.21697052 -0.78313733 0.14954725
v -0.28297903 -0.68781756 0.15404849
v -0.26271230 -0.70704076 0.15638561
v -0.28396051 -0.66264547 0.15589851
v -0.17469630 -0.67297421 0.15404804
v -0.19969075 -0.65039540 0.16174092
v -0.16995988 -0.60568998 0.16135152
v -0.18349968 -0.56890095 0.16673509
v -0.19564123 -0.59364677 0.16730228
v -0.36621529 -0.71853416 0.13378429
v -0.36546004 -0.69436203 0.13563423
v -0.38456062 -0.73799437 0.12924917
v -0.36799960 -0.56465699 0.13650735
v -0.37576360 -0.53922485 0.13350878
v -0.38683935 -0.51394276 0.12881748
v -0.36812809 -0.59709101 0.13746914
v -0.28597955 -0.53404907 0.15762810
v -0.28794946 -0.55944815 0.15809434
v -0.26678769 -0.51368739 0.16181417
v -0.16678962 -0.51396612 0.16298032
v -0.19264349 -0.50425709 0.16654953
v -0.17228214 -0.49034352 0.16217319
v -0.23083235 -0.50238210 0.16659000
v -0.21124318 -0.49603596 0.16678868
v -0.22863328 -0.47326281 0.16372583
v -0.21298457 -0.52506936 0.16895277
v -0.28264361 -0.43164180 0.14677329
v -0.26489269 -0.45122129 0.15494003
v -0.28065343 -0.40542649 0.14227894
v -0.07797210 -0.51015461 0.18949147
v -0.22446621 -0.34993347 0.13490701
v -0.23469348 -0.37332350 0.14498291
v -0.24360979 -0.40160670 0.15050671
v -0.36569672 -0.43871215 0.12621197
v -0.36696260 -0.46484103 0.12939294
v -0.43776609 -0.27994893 0.07815732
v -0.43906788 -0.30377871 0.08015183
v -0.42168960 -0.26212270 0.08038180
v -0.41767722 -0.31477758 0.08776804
v -0.38595484 -0.29610419 0.09098487
v -0.37142528 -0.40625850 0.11987903
v -0.51694803 -0.26356752 0.05325781
v -0.53182932 -0.38201118 0.04395790
v -0.51495612 -0.40966248 0.05575216
v -0.43166409 -0.34671410 0.09043975
v -0.21117382 -0.42156217 0.15580977
v 0.03893783 -0.85189155 0.09619663
v 0.03727793 -0.87900516 0.06423993
v 0.01486048 -0.84830239 0.11101007
v -0.02183103 -0.82376905 0.13846421
v 0.00618165 -0.80554769 0.15566866
v -0.08094837 -0.76488131 0.15860896
v -0.06222459 -0.79051914 0.15418763
v -0.00090214 -0.66917538 0.22458368
v 0.03776569 -0.67699131 0.22780449
v -0.02307015 -0.65196925 0.22121132
v -0.00864464 -0.73864820 0.19411715
v 0.00312512 -0.76161056 0.18133053
v 0.06279996 -0.80971979 0.12723940
v 0.07151482 -0.83798627 0.08547715
v 0.05863883 -0.82917679 0.10940151
v -0.00630020 -0.62010707 0.23360492
v 0.03021306 -0.62362333 0.24473263
v 0.00782952 -0.60164013 0.24100753
v 0.00004622 -0.57056779 0.23929546
v 0.00492431 -0.53078442 0.23669501
v 0.04512172 -0.54099507 0.25275159
v 0.03502915 -0.56422088 0.25168002
v 0.07781801 -0.59332368 0.25557369
v 0.05321053 -0.58471915 0.25508314
v 0.05867190 -0.61419456 0.25133864
v 0.07246858 -0.56639103 0.25949719
v 0.12406965 -0.57579426 0.25659416
v 0.10161989 -0.55100739 0.26054566
v 0.04909850 -0.47618218 0.23875138
v 0.11982783 -0.75937268 0.11697007
v 0.14073616 -0.75160056 0.13337426
v 0.13521638 -0.73376802 0.15612413
v 0.18411696 -0.62783839 0.23986312
v 0.14994534 -0.40118616 0.21666472
v 0.18727452 -0.40703646 0.21387432
v 0.08973828 -0.47753735 0.24770060
v 0.08903783 -0.51129451 0.25611620
v 0.14977018 -0.46119977 0.24389326
v 0.35210748 -0.32658999 0.03906928
v 0.33304767 -0.32181598 0.06892496
v 0.31609162 -0.55985750 0.17661591
v 0.37389769 -0.45481112 0.10263653
v 0.33092886 -0.43398377 0.14632310
v 0.35673229 -0.43859731 0.11734679
v 0.35548720 -0.39764890 0.08499178
v 0.33276470 -0.46543675 0.16190716
v 0.35011594 -0.41685894 0.11059793
v 0.31137831 -0.39313059 0.14096003
v 0.32685837 -0.41044604 0.13662436
v 0.28659675 -0.43317253 0.18363084
v 0.30930694 -0.42740653 0.16349355
v 0.30349699 -0.46049176 0.18372224
v 0.39061679 -0.44768366 0.04832407
v 0.38557730 -0.48567149 0.10512894
v 0.35128769 -0.51764126 0.15749153
v 0.38281249 -0.51196719 0.12032571
v 0.21765562 -0.50550787 0.24361060
v -0.36253087 -0.62794437 0.13852911
v -0.44921692 -0.70029011 0.10815514
v -0.47522095 -0.55043424 0.08863976
v -0.45031085 -0.48704060 0.10182358
v -0.21530419 -0.83682490 0.13506863
v -0.20742203 -0.74434898 0.15370058
v -0.21969431 -0.72191472 0.15703655
v -0.20228667 -0.70695299 0.15641670
v -0.24385615 -0.72601614 0.15668117
v -0.22648660 -0.67710739 0.16126189
v -0.23695479 -0.70113943 0.15924871
v -0.21852444 -0.69512469 0.15930025
v -0.19860972 -0.77668229 0.14809016
v -0.20005886 -0.79977024 0.14387808
v -0.22413331 -0.80747406 0.14442405
v -0.24130620 -0.82104755 0.14113043
v -0.24396727 -0.77197244 0.15136600
v -0.23293380 -0.61719613 0.16634215
v -0.39568739 -0.75470884 0.12528733
v -0.41193177 -0.76877152 0.12034383
v -0.43054064 -0.75976619 0.11469033
v -0.42548821 -0.52458160 0.11546640
v -0.25248838 -0.49612326 0.16326039
v -0.24321292 -0.52833088 0.16712598
v -0.20942666 -0.45344696 0.16129472
v -0.23676676 -0.44556068 0.15877528
v -0.20193110 -0.54930769 0.16922270
v -0.25087203 -0.46876563 0.16027061
v -0.39839108 -0.27393666 0.08589249
v -0.37465618 -0.27685028 0.09017394
v -0.49645580 -0.25276572 0.06061820
v -0.50452644 -0.39061588 0.06169884
v -0.19150927 -0.42104759 0.15292474
v 0.05081376 -0.86382875 0.07100455
v 0.02547064 -0.81972577 0.13872920
v 0.04510575 -0.81919995 0.12880557
v 0.03782015 -0.79807832 0.14852143
v -0.08789188 -0.78097271 0.14607907
v -0.05158566 -0.65125282 0.20768145
v 0.05930912 -0.64996891 0.24149738
v 0.09813728 -0.57650138 0.25193305
v 0.10893275 -0.61367407 0.23018260
v 0.11380314 -0.59352689 0.24365656
v 0.09369207 -0.60296635 0.24245953
v 0.08818328 -0.63508118 0.24284160
v 0.13394247 -0.61028952 0.23922647
v 0.16309141 -0.60797157 0.24907108
v 0.14233992 -0.53640092 0.26136423
v 0.19077063 -0.64429355 0.22657854
v 0.17027764 -0.63860002 0.22576042
v 0.19863912 -0.60358758 0.24879122
v 0.06571124 -0.51192365 0.25255385
v 0.08995810 -0.53273526 0.25935420
v 0.11636227 -0.53000679 0.26070311
v 0.12616168 -0.55279718 0.26078835
v 0.15360663 -0.56900745 0.25981523
v 0.13271205 -0.51475086 0.25869546
v 0.17658917 -0.50841844 0.25512813
v 0.15264458 -0.49988887 0.25528034
v 0.17131020 -0.47940796 0.24777193
v 0.19590219 -0.49138885 0.24671519
v 0.17817688 -0.44702477 0.23456648
v 0.23008817 -0.44858269 0.22040481
v 0.21724489 -0.47590625 0.23561930
v 0.26101617 -0.48721960 0.21889065
v 0.20420229 -0.45047148 0.22996851
v 0.24183801 -0.47218036 0.22420077
v 0.21587207 -0.41942136 0.21201445
v 0.19240238 -0.43012540 0.22397958
v 0.19037346 -0.46722449 0.23994774
v 0.24021551 -0.49913903 0.23293731
v 0.26630087 -0.45618142 0.20581250
v 0.23356646 -0.53432818 0.24118252
v 0.26046966 -0.52052780 0.22629640
v 0.10576313 -0.49458808 0.25396879
v 0.12995861 -0.45016635 0.24023386
v 0.33073671 -0.57797713 0.16248295
v 0.34267296 -0.55443932 0.16177385
v 0.30033957 -0.57843452 0.16636690
v 0.28876275 -0.56419841 0.18539068
v 0.30405129 -0.51926636 0.19390101
v 0.28670570 -0.54258024 0.19655164
v 0.27940468 -0.52335440 0.20912838
v 0.29355180 -0.49218332 0.19932392
v 0.26679174 -0.54536864 0.22329574
v 0.32078474 -0.45138016 0.16599043
v 0.33115416 -0.49750899 0.17306965
v -0.46066568 -0.51306042 0.09709621
v -0.24784526 -0.75083450 0.15375583
v -0.21015753 -0.61147371 0.16679906
v -0.23180642 -0.57926127 0.16891236
v -0.21592774 -0.63353199 0.16509950
v -0.24137116 -0.64233659 0.16406052
v -0.25419054 -0.66088219 0.16147874
v -0.43776320 -0.77659767 0.11183810
v -0.44015978 -0.53950058 0.10926479
v -0.41362506 -0.55666594 0.12223446
v -0.41030048 -0.49688882 0.12006550
v -0.24279485 -0.42429764 0.15429100
v -0.36539081 -0.29677970 0.09459345
v 0.05035996 -0.63162881 0.24663529
v 0.03283718 -0.64863003 0.23839323
v 0.08015052 -0.61689809 0.25026857
v 0.09087612 -0.67090486 0.22801578
v 0.14366138 -0.59209338 0.25343787
v 0.18904485 -0.58200087 0.25541033
v 0.16197799 -0.54836062 0.26090500
v 0.25352208 -0.41641683 0.19440293
v 0.20841436 -0.39411086 0.20117338
v 0.23361331 -0.39952771 0.19494494
v 0.21913184 -0.37201748 0.18523159
v 0.26868515 -0.37520174 0.16315814
v 0.20780527 -0.35034223 0.17616972
v 0.24412599 -0.37433771 0.17606556
v 0.22081205 -0.33213619 0.16044611
v 0.25640554 -0.39353657 0.18072644
v 0.27773761 -0.40827320 0.17647677
v 0.20448766 -0.53669365 0.25444470
v 0.19681308 -0.51519271 0.25250549
v 0.18337512 -0.53246841 0.25767016
v 0.22211926 -0.55450356 0.24832423
v 0.31403464 -0.47979463 0.18237624
v 0.28236829 -0.47215336 0.20188951
v 0.27388730 -0.50253072 0.21351755
v 0.24713768 -0.54805650 0.23373576
v -0.44063525 -0.50819574 0.10757457
v -0.49232991 -0.47880133 0.07552143
v -0.24554666 -0.55563039 0.16741669
v -0.26426587 -0.56135917 0.16430286
v -0.22278965 -0.55836037 0.16933198
v -0.39936136 -0.53627103 0.12642277
v -0.39190540 -0.55910089 0.13000492
v -0.40510373 -0.57618118 0.12634692
v -0.40253072 -0.46872335 0.12046168
v 0.01993409 -0.66424062 0.23080557
v 0.08064323 -0.65453352 0.23870947
v 0.06560992 -0.67297327 0.23044155
v 0.09720816 -0.64682430 0.22240187
v 0.05521322 -0.68982661 0.22203731
v 0.07689527 -0.70148429 0.21250438
v 0.10278309 -0.66849851 0.20178719
v 0.07080106 -0.72874965 0.20191169
v 0.08588074 -0.74873630 0.18176813
v 0.23529417 -0.42683042 0.20792167
v 0.26635298 -0.43341404 0.19596576
v -0.48088692 -0.50215337 0.08404699
v -0.20576681 -0.57335059 0.16886530
v -0.22691725 -0.53915426 0.16898319
v -0.40704885 -0.51737307 0.12227361
v -0.40496488 -0.44479031 0.11701708
v -0.44518116 -0.43810740 0.10028329
v -0.42907336 -0.46149952 0.10997346
v -0.42428478 -0.43524895 0.10883342
v -0.43611701 -0.41587649 0.10126736
v -0.44818774 -0.39688596 0.09301468
v -0.46710381 -0.40225104 0.08437344
v -0.47080060 -0.43341480 0.08639470
v -0.45549815 -0.41902362 0.09270251
v 0.10127238 -0.68394120 0.21529224
v 0.11446432 -0.68947036 0.19768457
v 0.13540757 -0.66584398 0.20246197
v 0.09786557 -0.74556631 0.16381554
v 0.09086666 -0.72506395 0.19222212
v -0.47085796 -0.47742585 0.08971671
v -0.50425551 -0.50548255 0.06668254
v -0.44994952 -0.46275455 0.10030271
v -0.49922893 -0.44270528 0.06898432
v 0.13887818 -0.68210333 0.18428996
v 0.14654911 -0.64183961 0.20551624
v 0.12539847 -0.63017577 0.21709963
v 0.11143183 -0.63416354 0.23046044
v 0.11835661 -0.65213778 0.21907416
v -0.48166725 -0.45613906 0.08181968
v -0.46503447 -0.45326918 0.09154859
v -0.49345283 -0.52069042 0.07517524
v -0.51248567 -0.48075679 0.05949060
v -0.50322703 -0.46345970 0.06692132
v -0.51760814 -0.44860359 0.05516174
v -0.52623522 -0.47305262 0.04737177
v -0.51189358 -0.42970032 0.05925643
v -0.51317517 -0.52109437 0.05885260
v -0.48631248 -0.43002461 0.07663541
v -0.60275227 -0.16909521 0.02871831
v 0.43301697 -0.61630256 0.05200098
v -0.49564009 -0.85281933 0.08600594
v -0.25476481 -0.86212911 0.12406148
v -0.20230896 -0.86691605 0.12012408
v -0.18522115 -0.88054714 0.10555248
v -0.19139217 -0.84383943 0.12770900
v -0.21577565 -0.85503438 0.12746342
v -0.15281743 -0.91903790 0.08602288
v -0.28170203 -0.72452146 0.15073209
v -0.28510803 -0.63059593 0.15734762
v -0.26130509 -0.61642828 0.16349938
v -0.24719931 -0.59744436 0.16642397
v -0.28565544 -0.49585229 0.15477095
v -0.28483066 -0.47011398 0.15197728
v -0.05872062 -0.87553080 0.09312018
v 0.17896690 -0.68717917 0.13857430
v 0.35942062 -0.60111109 0.11588289
v -0.12973713 -0.86401774 0.09747605
v -0.16222349 -0.83410656 0.12030664
v -0.14269526 -0.82528746 0.11207048
v -0.30663077 -0.66143934 0.14877812
v -0.17203907 -0.63492546 0.15819104
v -0.28595588 -0.59260276 0.15849096
v -0.34359160 -0.69240833 0.13828208
v -0.36732269 -0.49797567 0.13243273
v -0.30825436 -0.56098849 0.15054819
v -0.30322820 -0.40576515 0.13383534
v -0.34404044 -0.46521763 0.13314237
v 0.00884932 -0.27526566 0.11393374
v 0.04514602 -0.27817301 0.12603391
v 0.17141177 -0.37461168 0.19904597
v -0.48248906 -0.83659390 0.09037099
v -0.43149720 -0.82124959 0.11288944
v -0.44985081 -0.84227485 0.11438290
v -0.27422146 -0.80040776 0.14190409
v -0.14986844 -0.56163447 0.15872449
v -0.16693424 -0.54629652 0.16401702
v -0.16361840 -0.57553288 0.16243657
v -0.14768448 -0.41603695 0.14432699
v -0.16663537 -0.40539347 0.14326700
v -0.17235751 -0.38643318 0.14627039
v 0.07609286 -0.34870320 0.18690273
v -0.39777368 -0.34648800 0.10074032
v 0.00476369 -0.87904174 0.08661101
v -0.05022625 -0.51250500 0.20838770
v 0.13208534 -0.42425989 0.22905253
v 0.08638900 -0.26966426 0.12491722
v 0.07271407 -0.25511371 0.10705956
v 0.06673221 -0.27913809 0.13133472
v 0.05223476 -0.30303928 0.15067018
v 0.03259195 -0.29506820 0.14017730
v 0.04969652 -0.32251642 0.16577422
v 0.39692310 -0.54552610 0.10610448
v 0.41858479 -0.50824188 0.05017965
v -0.51339003 -0.61010343 0.06133422
v -0.50517559 -0.58582817 0.06746846
v -0.53149798 -0.40380136 0.04431792
v 0.02963020 -0.69803658 0.22019245
v 0.37477550 -0.41215118 0.05365958
v 0.37154443 -0.39230514 0.04210583
v 0.36634380 -0.36827755 0.03630192
v 0.35909786 -0.34846573 0.03937135
v -0.20490291 -0.67135158 0.16014531
v -0.22180632 -0.65531034 0.16313833
v -0.39603390 -0.78326657 0.12348309
v -0.49953719 -0.22486314 0.06000356
v 0.30962806 -0.59491915 0.14860521
v 0.28674300 -0.58446109 0.19297152
v -0.42795145 -0.57350185 0.11693443
v 0.16767286 -0.58686413 0.25621182
v 0.28631406 -0.35289195 0.13711637
v 0.29265415 -0.37703284 0.14759293
v 0.31924842 -0.36231357 0.11118173
v 0.33437368 -0.38279688 0.10627177
v 0.35293892 -0.37804961 0.07335893
v 0.31821064 -0.34098775 0.09927239
v 0.33980080 -0.36149217 0.08424107
v 0.29844687 -0.40867326 0.16171877
v -0.42927028 -0.48596623 0.11167686
v -0.15517299 -0.86585787 0.09888060
v 0.04293065 -0.26000426 0.10538017
v 0.16984275 -0.39519828 0.21102331
v -0.43681598 -0.80219595 0.11165430
v -0.45047119 -0.82031118 0.11279998
v -0.41638960 -0.83722730 0.11240723
v -0.41118324 -0.81762835 0.11708249
v -0.39765736 -0.82946090 0.11776595
v -0.50123561 -0.56103706 0.06927842
v 0.01177388 -0.31739002 0.15443744
v 0.07163781 -0.76908888 0.16764049
v -0.02300866 -0.79224922 0.16393107
v 0.00139370 -0.78372923 0.17037680
v -0.01516442 -0.80853996 0.15202764
v 0.32296910 -0.53321960 0.18053805
v 0.25703948 -0.35214889 0.15609914
v 0.24399361 -0.33544806 0.15269797
f 118 119 117
f 371 490 206
f 117 119 120
f 276 264 539
f 115 116 121
f 120 116 117
f 121 116 120
f 146 145 517
f 268 267 144
f 347 1139 346
f 442 33 34
f 222 239 232
f 123 218 122
f 218 217 122
f 234 7 8
f 218 114 217
f 310 229 123
f 224 241 245
f 229 113 218
f 112 219 111
f 1138 340 1168
f 217 121 122
f 521 68 69
f 225 214 443
f 219 112 229
f 113 229 112
f 111 297 110
f 1136 237 81
f 225 444 318
f 339 614 109
f 614 463 108
f 244 243 240
f 297 111 219
f 310 123 124
f 445 93 94
f 228 236 1137
f 463 107 108
f 341 621 465
f 426 424 226
f 232 223 300
f 640 343 637
f 7 234 233
f 253 430 431
f 105 343 640
f 434 433 432
f 109 110 339
f 441 297 219
f 47 226 424
f 274 273 162
f 318 25 26
f 243 224 235
f 184 222 183
f 345 132 346
f 131 132 161
f 434 599 433
f 239 5 6
f 213 131 161
f 213 161 160
f 345 161 132
f 80 81 237
f 138 351 137
f 619 247 617
f 177 646 143
f 468 354 351
f 349 347 134
f 231 221 238
f 143 474 178
f 317 24 25
f 317 235 24
f 136 137 356
f 356 137 351
f 181 355 182
f 147 146 515
f 469 353 645
f 658 480 159
f 487 488 366
f 130 131 213
f 476 654 656
f 663 172 171
f 152 668 153
f 624 247 619
f 360 477 361
f 155 615 156
f 156 157 477
f 161 344 160
f 429 296 428
f 958 968 969
f 648 647 649
f 177 211 176
f 173 256 489
f 661 483 482
f 175 257 255
f 174 255 256
f 367 368 254
f 173 172 661
f 652 476 651
f 255 257 210
f 161 345 344
f 475 646 647
f 657 854 852
f 140 141 279
f 433 599 296
f 505 508 164
f 641 104 640
f 672 150 149
f 264 274 275
f 601 221 600
f 389 718 269
f 100 101 497
f 210 209 255
f 80 231 79
f 91 92 298
f 984 1202 238
f 705 144 145
f 33 236 228
f 313 34 35
f 102 1192 101
f 1134 1128 1118
f 711 714 713
f 157 158 479
f 715 717 716
f 1041 1099 259
f 371 206 491
f 269 718 720
f 104 641 103
f 105 106 343
f 272 271 67
f 78 79 242
f 71 72 267
f 678 679 379
f 83 87 88
f 84 87 83
f 85 86 84
f 278 184 279
f 84 86 87
f 256 255 209
f 88 89 220
f 15 549 14
f 237 231 80
f 231 238 242
f 445 603 725
f 231 237 436
f 620 107 463
f 88 220 83
f 9 304 8
f 298 436 315
f 220 230 1136
f 324 319 448
f 277 745 540
f 230 220 89
f 65 66 273
f 266 741 268
f 315 237 230
f 222 5 239
f 150 151 498
f 671 496 495
f 362 859 1043
f 671 151 150
f 381 380 502
f 677 501 676
f 956 846 847
f 513 386 385
f 154 485 153
f 513 148 147
f 163 523 164
f 148 149 502
f 169 168 674
f 506 382 505
f 146 147 511
f 1109 1111 1108
f 382 507 508
f 270 272 519
f 391 523 524
f 527 162 271
f 163 275 274
f 499 377 498
f 636 466 635
f 389 886 888
f 387 144 72
f 265 72 73
f 144 705 268
f 72 144 267
f 89 90 230
f 739 389 76
f 113 114 218
f 269 886 389
f 76 389 75
f 228 32 33
f 181 182 300
f 387 388 144
f 527 744 524
f 268 741 71
f 271 66 67
f 428 213 160
f 114 115 217
f 267 268 71
f 27 214 225
f 226 215 187
f 701 145 146
f 227 31 32
f 162 273 66
f 521 522 390
f 271 162 66
f 1032 1203 1030
f 168 552 167
f 668 669 494
f 365 364 485
f 29 31 216
f 177 143 212
f 20 446 19
f 142 185 278
f 185 184 278
f 142 1 185
f 393 279 184
f 354 355 644
f 140 372 139
f 222 232 183
f 232 182 183
f 142 278 141
f 472 644 181
f 2 3 185
f 264 275 277
f 68 521 519
f 185 3 184
f 4 5 222
f 4 184 3
f 233 223 239
f 512 384 702
f 709 263 386
f 184 4 222
f 543 11 12
f 185 1 2
f 753 752 143
f 302 300 301
f 178 179 541
f 471 473 357
f 471 357 470
f 180 181 302
f 210 257 211
f 177 212 211
f 439 299 309
f 255 174 175
f 212 143 752
f 394 757 753
f 397 545 546
f 903 902 991
f 207 490 370
f 173 174 256
f 367 369 171
f 211 212 544
f 171 369 401
f 547 208 545
f 547 207 208
f 371 369 254
f 992 765 906
f 171 172 367
f 563 1093 1116
f 170 400 169
f 233 6 7
f 141 278 279
f 1202 242 238
f 127 462 126
f 303 301 234
f 233 234 223
f 470 180 179
f 233 239 6
f 438 280 437
f 1180 754 438
f 245 241 320
f 308 304 306
f 455 336 334
f 214 216 227
f 545 208 209
f 14 776 13
f 206 779 205
f 121 217 115
f 19 446 447
f 311 310 124
f 83 220 82
f 1152 555 18
f 303 307 299
f 555 17 18
f 477 478 156
f 548 776 549
f 600 298 602
f 231 242 79
f 245 22 23
f 22 245 320
f 317 243 235
f 372 258 468
f 317 318 240
f 211 257 176
f 487 158 157
f 235 23 24
f 82 1136 81
f 26 27 225
f 216 28 29
f 183 182 373
f 870 378 1173
f 28 216 214
f 274 264 276
f 228 227 32
f 372 279 258
f 31 227 216
f 29 30 31
f 534 536 530
f 148 502 503
f 214 27 28
f 511 512 701
f 320 322 21
f 164 508 163
f 779 780 205
f 783 204 203
f 1137 443 214
f 169 400 403
f 782 553 402
f 780 204 205
f 203 202 564
f 403 168 169
f 166 165 677
f 690 200 199
f 200 689 201
f 780 915 204
f 675 500 674
f 505 164 165
f 195 196 569
f 796 198 199
f 509 689 690
f 412 572 573
f 610 938 453
f 413 195 194
f 195 567 194
f 567 410 409
f 572 197 196
f 319 329 330
f 408 685 683
f 784 201 202
f 193 416 418
f 186 187 215
f 274 65 273
f 276 65 274
f 159 428 160
f 440 340 1138
f 528 529 63
f 1166 1217 1165
f 218 123 229
f 64 528 63
f 239 223 232
f 1184 59 60
f 802 573 800
f 194 567 568
f 289 417 191
f 90 315 230
f 575 58 59
f 784 554 925
f 55 56 419
f 57 415 577
f 605 442 313
f 292 191 190
f 436 600 221
f 287 413 579
f 479 480 361
f 320 21 22
f 168 781 552
f 209 208 256
f 581 582 421
f 44 45 586
f 358 1155 250
f 191 192 582
f 586 423 425
f 224 245 235
f 423 45 46
f 149 150 504
f 586 587 44
f 207 370 208
f 321 329 319
f 23 235 245
f 690 692 691
f 539 528 276
f 580 42 43
f 175 176 257
f 943 939 940
f 591 597 420
f 144 388 145
f 890 708 889
f 325 327 329
f 243 244 224
f 733 721 731
f 292 54 55
f 55 419 292
f 190 191 581
f 291 53 54
f 270 391 524
f 53 293 52
f 294 51 52
f 187 294 188
f 188 294 293
f 65 276 64
f 188 189 426
f 163 274 162
f 226 187 188
f 226 47 215
f 347 346 133
f 47 48 215
f 186 48 49
f 50 51 186
f 49 50 186
f 328 244 332
f 215 48 186
f 393 184 183
f 154 155 486
f 186 51 187
f 424 295 423
f 166 676 167
f 67 68 272
f 191 292 289
f 36 1190 809
f 214 227 228
f 205 204 404
f 665 152 153
f 322 324 446
f 762 281 760
f 565 407 564
f 167 566 166
f 794 410 569
f 794 795 570
f 529 531 537
f 803 572 574
f 575 576 414
f 412 573 802
f 415 57 58
f 193 192 416
f 417 289 577
f 288 416 417
f 585 192 193
f 935 41 42
f 190 189 291
f 291 189 293
f 190 291 292
f 292 291 54
f 291 293 53
f 189 188 293
f 51 294 187
f 293 294 52
f 581 427 598
f 580 805 590
f 429 159 158
f 430 433 296
f 311 312 441
f 297 461 339
f 602 92 93
f 298 600 436
f 299 301 303
f 307 309 299
f 232 300 182
f 301 300 223
f 234 301 223
f 302 301 299
f 302 299 439
f 181 300 302
f 304 234 8
f 305 437 309
f 306 9 10
f 234 304 303
f 9 306 304
f 754 987 897
f 306 898 754
f 305 307 308
f 308 307 303
f 309 307 305
f 304 308 303
f 308 306 1180
f 439 1151 394
f 180 439 179
f 311 124 125
f 219 229 310
f 125 440 311
f 219 310 311
f 126 440 125
f 461 246 339
f 36 37 812
f 605 236 442
f 333 314 607
f 318 444 451
f 90 91 315
f 298 315 91
f 94 603 445
f 718 719 720
f 318 317 25
f 243 317 240
f 26 225 318
f 225 443 444
f 319 322 321
f 321 241 325
f 321 320 241
f 320 321 322
f 325 241 326
f 328 326 224
f 322 319 324
f 20 21 322
f 328 323 326
f 336 338 323
f 448 319 330
f 19 447 18
f 326 241 224
f 325 323 327
f 328 224 244
f 323 325 326
f 335 336 328
f 1167 410 570
f 244 333 332
f 313 809 606
f 325 329 321
f 330 329 327
f 338 612 327
f 611 449 330
f 37 38 610
f 332 335 328
f 240 451 244
f 335 332 1203
f 236 605 607
f 332 333 1153
f 606 609 452
f 1182 930 795
f 1203 332 331
f 336 335 334
f 455 338 336
f 328 336 323
f 1030 609 1031
f 1029 411 1182
f 337 813 612
f 327 323 338
f 297 339 110
f 463 614 817
f 127 1170 639
f 973 1201 972
f 341 628 638
f 639 1220 638
f 615 616 464
f 670 153 668
f 341 620 463
f 635 637 247
f 344 248 642
f 160 344 658
f 346 132 133
f 344 345 248
f 347 133 134
f 248 345 346
f 643 349 134
f 349 350 347
f 469 136 353
f 1139 248 346
f 643 134 135
f 350 349 348
f 348 1140 350
f 650 1142 1155
f 138 139 468
f 1144 356 249
f 355 352 493
f 249 351 354
f 180 470 472
f 136 469 135
f 468 351 138
f 355 354 352
f 258 373 493
f 181 180 472
f 249 356 351
f 136 356 353
f 474 1154 178
f 356 1144 353
f 176 647 177
f 1154 1216 471
f 651 176 175
f 361 480 659
f 852 853 657
f 852 854 478
f 480 158 159
f 361 659 1145
f 663 664 483
f 1172 169 674
f 664 857 483
f 1149 381 377
f 1146 252 1147
f 484 364 1159
f 156 478 1157
f 365 854 1146
f 156 615 1160
f 630 862 830
f 368 367 172
f 369 367 254
f 489 172 173
f 667 208 370
f 254 490 371
f 401 282 400
f 254 368 370
f 368 489 667
f 491 206 205
f 492 401 369
f 279 372 140
f 468 258 352
f 493 182 355
f 393 373 258
f 103 641 837
f 818 464 616
f 148 513 514
f 706 885 884
f 102 1191 1192
f 1118 1128 1099
f 152 665 1162
f 377 499 867
f 377 867 869
f 859 362 857
f 523 525 164
f 877 681 879
f 981 976 875
f 877 879 503
f 504 498 381
f 381 1149 1150
f 506 165 166
f 277 507 261
f 700 199 198
f 62 63 529
f 148 503 1163
f 741 704 522
f 717 891 716
f 884 885 514
f 517 145 388
f 386 263 891
f 72 265 387
f 388 387 265
f 707 388 265
f 517 386 515
f 739 77 518
f 727 728 887
f 69 740 522
f 270 519 520
f 742 270 520
f 525 1175 164
f 531 534 530
f 531 529 392
f 373 393 183
f 258 279 393
f 541 439 394
f 542 756 755
f 13 776 777
f 546 760 397
f 756 280 758
f 909 777 548
f 546 209 210
f 763 397 760
f 927 787 926
f 555 556 17
f 928 558 562
f 1114 1121 561
f 401 400 170
f 403 400 782
f 171 401 170
f 369 371 492
f 282 404 553
f 880 402 553
f 782 400 282
f 403 402 781
f 404 783 553
f 404 492 491
f 554 784 785
f 450 449 788
f 764 766 768
f 556 927 17
f 565 202 201
f 783 407 1181
f 687 261 682
f 682 382 506
f 1232 596 1068
f 582 422 583
f 794 196 197
f 410 285 1066
f 813 454 612
f 337 455 457
f 196 195 573
f 695 538 694
f 194 193 418
f 800 801 802
f 413 194 579
f 415 288 577
f 575 415 58
f 578 415 414
f 417 416 192
f 418 416 288
f 191 417 192
f 419 577 289
f 288 415 578
f 418 579 194
f 577 419 56
f 292 419 289
f 290 593 591
f 580 935 42
f 589 584 588
f 426 189 598
f 568 193 194
f 596 594 422
f 424 423 46
f 425 423 295
f 47 424 46
f 226 188 426
f 589 295 427
f 584 806 583
f 189 190 598
f 424 426 295
f 583 806 421
f 295 426 427
f 429 428 159
f 213 428 296
f 158 487 431
f 430 429 431
f 433 430 1201
f 296 429 430
f 158 431 429
f 431 366 862
f 629 624 631
f 129 1223 1221
f 1201 430 253
f 1222 1223 432
f 129 130 434
f 599 434 130
f 435 602 445
f 719 892 316
f 231 436 221
f 315 436 237
f 438 437 305
f 1151 437 280
f 1180 306 754
f 438 759 758
f 439 180 302
f 439 309 1151
f 440 126 462
f 311 440 312
f 311 441 219
f 461 441 312
f 33 442 236
f 34 313 442
f 1137 214 228
f 443 314 444
f 314 333 444
f 451 333 244
f 603 94 95
f 604 445 316
f 322 446 20
f 447 446 324
f 450 447 324
f 447 450 1152
f 449 448 330
f 450 283 1152
f 611 330 814
f 1094 1114 1125
f 324 448 450
f 449 450 448
f 318 451 240
f 444 333 451
f 452 605 606
f 332 1153 331
f 38 949 610
f 285 410 1167
f 457 459 337
f 921 919 920
f 1033 1204 1032
f 337 338 455
f 1076 946 1025
f 813 459 460
f 1204 455 334
f 456 1038 459
f 942 453 938
f 1029 571 799
f 456 459 457
f 459 458 460
f 458 815 460
f 929 454 1004
f 441 461 297
f 1138 461 312
f 639 462 127
f 440 462 340
f 108 109 614
f 341 465 620
f 616 155 154
f 861 860 488
f 247 343 617
f 343 618 617
f 624 634 247
f 1191 102 103
f 642 248 848
f 649 656 359
f 372 468 139
f 354 468 352
f 1144 645 353
f 348 643 469
f 471 470 179
f 472 470 357
f 1154 179 178
f 250 1141 1216
f 357 249 472
f 644 472 249
f 645 473 1141
f 473 645 1144
f 1156 474 143
f 1154 474 358
f 648 650 475
f 646 1156 143
f 849 175 174
f 173 661 662
f 477 157 479
f 478 477 360
f 478 360 852
f 1157 365 486
f 480 479 158
f 477 479 361
f 159 160 658
f 659 251 1145
f 855 856 1199
f 476 652 654
f 482 856 855
f 855 655 662
f 664 171 170
f 483 857 1158
f 665 485 484
f 868 867 499
f 485 154 486
f 484 485 364
f 1157 486 155
f 485 486 365
f 488 487 157
f 431 487 366
f 1160 157 156
f 861 666 860
f 667 256 208
f 172 489 368
f 370 490 254
f 206 490 207
f 205 404 491
f 492 404 282
f 401 492 282
f 371 491 492
f 258 493 352
f 182 493 373
f 669 152 151
f 866 670 494
f 495 865 864
f 863 494 669
f 148 514 1164
f 496 885 1161
f 1224 497 101
f 1134 497 376
f 499 498 151
f 381 498 377
f 1162 151 152
f 868 673 867
f 675 168 167
f 1172 500 1173
f 501 678 680
f 870 500 675
f 502 149 504
f 503 502 380
f 503 380 877
f 1163 384 511
f 498 504 150
f 502 504 381
f 506 505 165
f 508 505 382
f 566 506 166
f 682 261 507
f 508 277 275
f 682 507 382
f 277 508 507
f 163 508 275
f 691 693 509
f 791 407 565
f 803 198 197
f 697 538 695
f 1163 511 147
f 512 511 384
f 702 384 262
f 705 512 704
f 513 147 515
f 514 513 385
f 514 385 884
f 1164 496 672
f 517 515 146
f 513 515 386
f 890 983 982
f 709 711 263
f 388 707 710
f 386 517 709
f 1202 77 78
f 238 601 892
f 68 519 272
f 520 519 390
f 881 520 390
f 978 875 680
f 522 521 69
f 519 521 390
f 741 740 70
f 704 702 703
f 524 523 163
f 525 523 391
f 527 163 162
f 272 270 744
f 1177 1176 525
f 1175 1176 679
f 742 391 270
f 526 742 743
f 744 271 272
f 163 527 524
f 276 528 64
f 529 528 392
f 532 534 392
f 537 62 529
f 536 535 751
f 62 1165 61
f 540 392 539
f 1225 537 530
f 277 261 745
f 692 694 383
f 533 537 1225
f 286 801 1186
f 392 534 531
f 746 536 532
f 535 536 746
f 685 687 683
f 532 536 534
f 751 535 750
f 530 537 531
f 537 533 1165
f 510 574 695
f 536 538 699
f 540 539 264
f 528 539 392
f 277 540 264
f 392 540 532
f 439 541 179
f 753 541 394
f 757 280 756
f 752 755 544
f 910 13 777
f 543 911 897
f 544 212 752
f 396 903 544
f 546 545 209
f 547 545 397
f 902 761 546
f 763 760 281
f 763 547 397
f 207 992 206
f 775 1226 774
f 777 911 910
f 926 15 16
f 778 549 398
f 992 547 765
f 912 780 550
f 913 551 914
f 554 785 917
f 552 880 688
f 552 688 566
f 404 204 783
f 880 686 688
f 202 203 916
f 1005 405 1006
f 1152 18 447
f 556 555 406
f 556 406 558
f 787 560 1115
f 559 558 406
f 559 283 788
f 406 1152 559
f 562 558 557
f 283 450 788
f 558 559 1121
f 560 562 563
f 398 549 787
f 449 611 1002
f 1002 789 449
f 562 557 1113
f 562 560 928
f 1123 1125 1122
f 547 763 765
f 565 564 202
f 783 564 407
f 689 565 201
f 693 792 509
f 552 566 167
f 566 408 683
f 567 195 569
f 568 567 409
f 1066 285 1064
f 568 422 585
f 569 196 794
f 567 569 410
f 795 197 198
f 1167 570 1218
f 932 200 786
f 200 201 925
f 573 572 196
f 574 572 412
f 195 413 573
f 287 800 413
f 1178 286 698
f 700 574 510
f 576 575 59
f 415 575 414
f 1184 1217 1185
f 414 576 1183
f 57 577 56
f 288 417 577
f 287 578 414
f 288 578 418
f 418 578 579
f 287 579 578
f 44 587 805
f 936 935 580
f 582 581 191
f 427 581 421
f 585 582 192
f 583 422 290
f 584 583 290
f 421 582 583
f 590 584 591
f 805 588 590
f 568 585 193
f 582 585 422
f 423 586 45
f 587 586 425
f 588 587 425
f 43 805 580
f 589 588 425
f 590 588 584
f 295 589 425
f 427 421 806
f 591 584 290
f 580 590 420
f 593 290 594
f 420 590 591
f 1231 592 1232
f 593 597 591
f 594 290 422
f 593 592 595
f 596 422 568
f 593 594 807
f 285 931 1062
f 1212 936 595
f 1068 568 409
f 593 807 592
f 593 595 597
f 420 597 595
f 581 598 190
f 426 598 427
f 130 213 599
f 296 599 213
f 602 298 92
f 601 600 435
f 601 435 604
f 238 221 601
f 445 602 93
f 600 602 435
f 726 603 729
f 732 731 726
f 604 316 892
f 435 445 604
f 606 605 313
f 607 605 452
f 313 35 809
f 609 331 1153
f 333 607 452
f 607 314 1137
f 812 37 610
f 1189 609 606
f 609 1189 810
f 1030 331 609
f 949 39 811
f 950 951 952
f 814 327 612
f 789 561 788
f 337 612 338
f 814 454 611
f 798 1010 1012
f 561 789 1003
f 339 246 816
f 463 817 341
f 616 615 155
f 1160 615 464
f 670 154 153
f 342 464 818
f 618 343 106
f 619 617 465
f 107 618 106
f 465 617 618
f 619 465 621
f 634 635 247
f 465 618 620
f 107 620 618
f 625 621 341
f 832 629 974
f 631 625 632
f 366 488 860
f 625 638 623
f 1222 633 1219
f 631 619 621
f 627 955 831
f 817 614 816
f 629 622 624
f 625 623 632
f 623 1219 1048
f 342 820 824
f 828 627 831
f 1138 1168 246
f 639 638 628
f 631 624 619
f 1048 974 626
f 366 860 862
f 832 630 830
f 625 631 621
f 629 631 626
f 633 1048 1219
f 631 632 626
f 633 1201 973
f 973 974 633
f 955 624 622
f 635 634 627
f 636 635 627
f 635 466 637
f 820 342 818
f 836 833 636
f 637 466 640
f 247 637 343
f 341 638 625
f 628 1168 639
f 462 639 340
f 127 128 1170
f 641 640 466
f 104 105 640
f 636 833 466
f 641 466 833
f 248 1139 848
f 660 658 1171
f 349 643 348
f 135 469 643
f 354 644 249
f 181 644 355
f 1141 250 1140
f 348 469 645
f 647 646 177
f 475 1155 1156
f 649 176 651
f 649 359 648
f 650 648 359
f 475 647 648
f 176 649 647
f 649 476 656
f 966 967 359
f 1143 1142 958
f 652 651 175
f 649 651 476
f 174 173 662
f 655 653 654
f 853 962 964
f 660 467 970
f 655 654 652
f 654 653 656
f 849 655 652
f 655 481 961
f 959 656 653
f 968 967 851
f 360 1145 853
f 657 853 964
f 344 642 658
f 1171 467 660
f 480 660 659
f 660 970 1042
f 658 660 480
f 851 970 467
f 661 172 663
f 662 661 482
f 855 662 482
f 662 655 849
f 664 663 171
f 661 663 483
f 170 169 1172
f 1158 857 362
f 485 665 153
f 1162 665 484
f 824 826 342
f 862 253 431
f 368 667 370
f 256 667 489
f 669 668 152
f 670 668 494
f 671 669 151
f 494 863 374
f 866 494 374
f 616 154 670
f 671 150 672
f 669 671 495
f 1164 672 149
f 671 672 496
f 1100 980 1083
f 870 871 378
f 675 674 168
f 1172 674 500
f 676 675 167
f 871 872 680
f 677 676 166
f 675 676 501
f 165 164 1175
f 678 677 679
f 680 678 379
f 501 677 678
f 677 165 1175
f 679 1176 986
f 896 379 986
f 260 1149 869
f 380 1150 878
f 896 526 743
f 683 506 566
f 683 682 506
f 684 685 686
f 682 683 687
f 284 407 791
f 535 746 747
f 686 685 408
f 685 684 687
f 688 686 408
f 686 284 793
f 684 693 749
f 748 746 745
f 566 688 408
f 880 552 402
f 690 689 200
f 565 689 509
f 692 199 700
f 692 383 691
f 693 691 383
f 509 690 691
f 199 692 690
f 692 510 694
f 535 747 750
f 684 686 793
f 695 694 510
f 694 538 751
f 1178 574 412
f 696 699 697
f 696 697 698
f 1185 1186 801
f 698 697 695
f 696 1225 699
f 1178 695 574
f 698 286 1188
f 536 699 530
f 538 697 699
f 700 198 803
f 692 700 510
f 511 701 146
f 705 701 512
f 703 702 262
f 704 512 702
f 743 520 882
f 703 881 522
f 522 704 703
f 705 704 266
f 268 705 266
f 701 705 145
f 716 263 713
f 1087 1105 1215
f 73 983 1053
f 710 709 517
f 890 516 707
f 888 75 389
f 517 388 710
f 709 710 711
f 707 516 710
f 516 1179 710
f 712 713 714
f 727 269 720
f 736 1109 735
f 263 711 713
f 714 711 1179
f 712 715 716
f 889 708 887
f 722 724 727
f 1105 1087 1103
f 844 1049 847
f 712 716 713
f 1103 717 715
f 884 717 706
f 891 717 385
f 739 718 389
f 719 718 518
f 719 984 892
f 725 726 723
f 719 723 722
f 719 722 720
f 723 726 721
f 738 895 737
f 723 719 316
f 724 722 721
f 725 723 316
f 721 722 723
f 726 731 721
f 724 728 727
f 445 725 316
f 725 603 726
f 729 603 95
f 731 732 730
f 722 727 720
f 733 735 737
f 889 714 516
f 708 886 887
f 95 96 729
f 732 893 1193
f 1129 1130 1131
f 733 737 724
f 732 726 729
f 733 731 730
f 96 893 729
f 732 729 893
f 735 733 730
f 721 733 724
f 985 732 894
f 714 895 738
f 736 735 730
f 735 734 737
f 1129 99 1118
f 100 1134 99
f 737 734 738
f 728 724 737
f 1108 738 734
f 712 714 738
f 77 739 76
f 718 739 518
f 69 70 740
f 71 741 70
f 704 741 266
f 522 740 741
f 743 742 520
f 526 1176 1177
f 520 881 882
f 882 262 883
f 524 744 270
f 271 744 527
f 747 748 687
f 540 745 532
f 532 745 746
f 745 261 748
f 687 749 747
f 750 383 751
f 687 748 261
f 746 748 747
f 684 749 687
f 750 749 693
f 749 750 747
f 693 383 750
f 694 751 383
f 751 538 536
f 753 143 178
f 752 542 755
f 753 178 541
f 542 752 753
f 897 899 754
f 306 10 898
f 542 757 756
f 396 544 755
f 758 280 438
f 396 755 756
f 753 757 542
f 757 394 1151
f 759 438 899
f 756 758 900
f 778 1226 775
f 756 900 396
f 902 546 210
f 761 760 546
f 900 759 1229
f 760 761 762
f 1227 761 903
f 770 768 767
f 766 763 281
f 766 765 763
f 768 281 907
f 764 1194 1088
f 764 904 765
f 904 399 906
f 907 281 762
f 765 766 764
f 774 771 772
f 1093 769 1095
f 281 768 766
f 770 772 769
f 1088 904 764
f 770 1194 768
f 772 770 767
f 1092 1194 769
f 907 908 767
f 1095 771 1096
f 767 908 774
f 772 771 1095
f 762 1227 1228
f 988 901 759
f 767 774 772
f 774 773 775
f 901 988 990
f 775 548 778
f 549 776 14
f 777 776 548
f 548 775 909
f 12 910 543
f 778 398 1226
f 548 549 778
f 992 779 206
f 780 779 550
f 912 550 399
f 780 914 915
f 403 781 168
f 402 552 781
f 403 782 402
f 282 553 782
f 564 783 203
f 1181 407 284
f 784 202 916
f 925 554 786
f 785 916 915
f 554 917 405
f 922 924 405
f 797 571 796
f 926 549 15
f 787 927 928
f 789 788 449
f 559 788 561
f 929 1002 454
f 1003 789 1002
f 919 994 922
f 922 917 918
f 792 791 565
f 284 791 793
f 509 792 565
f 793 693 684
f 791 792 793
f 693 793 792
f 795 794 197
f 794 570 410
f 796 795 198
f 1182 795 571
f 797 796 199
f 795 796 571
f 200 797 199
f 932 786 933
f 571 797 799
f 799 797 932
f 797 200 932
f 799 798 934
f 800 287 801
f 573 413 800
f 287 414 1183
f 60 61 1217
f 801 286 802
f 412 802 286
f 572 803 197
f 700 803 574
f 945 939 943
f 1196 1197 1211
f 44 805 43
f 805 587 588
f 584 589 806
f 427 806 589
f 594 596 807
f 1066 1068 409
f 1022 1021 931
f 938 811 940
f 36 809 35
f 809 608 1189
f 1190 952 608
f 948 1037 1075
f 39 1196 1195
f 1212 1213 804
f 950 610 453
f 809 1190 608
f 459 813 337
f 454 813 460
f 327 814 330
f 454 814 612
f 815 458 1074
f 1058 999 1000
f 816 246 1168
f 614 339 816
f 816 628 817
f 628 341 817
f 954 616 670
f 616 954 818
f 822 825 828
f 818 819 820
f 820 819 823
f 820 825 824
f 827 823 819
f 845 834 842
f 831 955 829
f 826 666 342
f 866 819 954
f 824 825 822
f 825 820 823
f 824 822 826
f 823 821 825
f 841 828 825
f 822 829 826
f 832 829 622
f 374 1086 827
f 821 823 827
f 841 821 838
f 636 627 828
f 831 829 822
f 832 830 829
f 666 826 830
f 829 830 826
f 828 831 822
f 627 634 955
f 622 629 832
f 974 629 626
f 641 833 837
f 834 836 838
f 834 838 842
f 1224 101 1192
f 837 836 839
f 834 840 839
f 838 836 636
f 839 836 834
f 836 837 833
f 837 835 1191
f 841 636 828
f 838 821 842
f 842 1205 845
f 837 839 835
f 259 1224 956
f 835 839 840
f 821 841 825
f 636 841 838
f 843 821 827
f 821 843 842
f 1085 863 864
f 834 845 846
f 864 865 1084
f 956 847 259
f 1205 842 843
f 846 845 844
f 846 844 847
f 834 846 840
f 1050 844 1205
f 1051 375 1087
f 848 350 1143
f 642 848 969
f 175 849 652
f 662 849 174
f 964 960 965
f 1042 659 660
f 359 656 966
f 966 959 851
f 853 852 360
f 1047 854 657
f 960 962 850
f 960 850 959
f 1146 854 252
f 854 365 1157
f 482 1158 856
f 655 855 481
f 362 1043 1045
f 963 1200 1047
f 1172 1173 1174
f 857 664 1174
f 876 980 378
f 1174 859 857
f 980 858 1173
f 1045 971 1046
f 488 1160 861
f 862 860 666
f 464 342 861
f 666 861 342
f 830 862 666
f 630 972 862
f 495 864 669
f 863 669 864
f 495 1161 865
f 975 1049 1050
f 975 1102 1051
f 975 1050 1084
f 374 827 866
f 819 866 827
f 499 1162 868
f 869 867 673
f 1159 868 484
f 868 363 1082
f 871 874 876
f 260 869 976
f 872 675 501
f 870 872 871
f 680 874 871
f 876 378 871
f 675 872 870
f 680 872 501
f 874 875 873
f 977 869 673
f 875 874 680
f 876 874 873
f 978 680 379
f 878 681 877
f 977 873 976
f 971 1148 1147
f 878 877 380
f 681 262 879
f 260 981 878
f 978 979 875
f 262 384 879
f 879 384 1163
f 1181 553 783
f 686 880 284
f 522 881 390
f 881 703 882
f 703 262 882
f 883 262 681
f 979 1052 878
f 743 882 883
f 717 884 385
f 706 375 885
f 1161 885 375
f 885 496 1164
f 887 886 269
f 886 708 888
f 727 887 269
f 887 728 889
f 982 888 708
f 74 75 888
f 889 728 895
f 890 889 516
f 1053 707 265
f 983 74 982
f 386 891 385
f 716 891 263
f 892 601 604
f 984 719 518
f 97 1193 96
f 732 1193 894
f 1131 97 98
f 732 985 730
f 889 895 714
f 737 895 728
f 743 883 896
f 681 1052 883
f 899 897 395
f 987 754 898
f 10 11 898
f 987 898 11
f 754 899 438
f 395 759 899
f 758 759 900
f 1229 759 901
f 988 759 395
f 1228 773 908
f 210 211 902
f 991 902 211
f 1227 903 396
f 902 903 761
f 768 1194 764
f 906 399 550
f 1092 1093 1090
f 1056 998 997
f 550 779 992
f 765 904 906
f 908 907 762
f 768 907 767
f 762 761 1227
f 908 773 774
f 990 988 989
f 911 543 910
f 13 910 12
f 911 777 909
f 989 911 909
f 911 395 897
f 913 912 399
f 915 914 551
f 1054 1055 993
f 995 999 996
f 780 912 914
f 913 914 912
f 915 551 918
f 204 915 203
f 915 916 203
f 784 916 785
f 785 918 917
f 918 920 922
f 915 918 785
f 918 551 920
f 551 921 920
f 1008 923 1009
f 921 551 913
f 922 920 919
f 913 399 1055
f 921 913 1054
f 994 924 922
f 917 922 405
f 923 994 996
f 790 1000 999
f 1009 1001 1008
f 798 799 1028
f 784 925 201
f 786 200 925
f 927 926 16
f 549 926 787
f 17 927 16
f 558 928 556
f 787 928 560
f 556 928 927
f 1004 454 460
f 815 1059 1004
f 411 931 1218
f 570 795 930
f 934 1013 1015
f 942 939 1039
f 786 1005 933
f 799 932 1028
f 1006 933 1005
f 924 1007 1006
f 1011 1012 1001
f 815 1074 1071
f 936 580 420
f 935 804 1198
f 595 936 420
f 804 935 936
f 812 950 952
f 1204 457 455
f 949 938 610
f 811 1195 943
f 1232 592 807
f 940 942 938
f 811 39 1195
f 940 939 942
f 40 1197 1196
f 1207 1209 1212
f 945 947 939
f 1036 1038 1035
f 811 943 940
f 941 1210 945
f 1207 592 1231
f 1067 808 1064
f 941 945 943
f 1214 947 945
f 1015 411 934
f 948 1039 947
f 1214 945 944
f 947 946 948
f 1025 1016 1020
f 937 1230 1035
f 39 949 38
f 938 949 811
f 950 453 951
f 812 610 950
f 1040 453 942
f 951 1230 1031
f 951 810 952
f 952 810 1189
f 1024 1026 1027
f 1022 931 411
f 866 954 670
f 818 954 819
f 624 955 634
f 829 955 622
f 1224 259 376
f 846 956 840
f 1106 1103 715
f 259 847 1041
f 848 1143 958
f 650 967 958
f 960 959 653
f 851 959 850
f 961 960 653
f 962 251 1042
f 655 961 653
f 1199 965 481
f 964 962 960
f 853 251 962
f 1199 963 965
f 1046 1200 1045
f 965 960 961
f 657 964 963
f 481 965 961
f 963 964 965
f 959 966 656
f 967 966 851
f 851 467 968
f 359 967 650
f 969 968 467
f 958 967 968
f 642 969 467
f 958 969 848
f 851 850 970
f 1042 970 850
f 971 1043 1044
f 363 1159 1147
f 973 972 630
f 253 862 972
f 974 973 630
f 633 432 1201
f 832 974 630
f 626 632 1048
f 1051 865 375
f 1049 1079 1041
f 977 976 869
f 875 976 873
f 1082 1044 1081
f 876 873 977
f 379 896 978
f 979 878 981
f 978 896 979
f 896 883 1052
f 1083 1101 1081
f 673 1081 977
f 976 981 260
f 979 981 875
f 888 982 74
f 708 890 982
f 890 707 1053
f 74 983 73
f 1202 518 77
f 238 892 984
f 894 736 985
f 736 730 985
f 679 986 379
f 526 896 986
f 11 543 987
f 897 987 543
f 989 395 911
f 909 990 989
f 990 909 775
f 395 989 988
f 775 773 990
f 901 990 773
f 211 544 991
f 903 991 544
f 547 992 207
f 550 992 906
f 1093 1057 1090
f 1089 1091 998
f 997 996 994
f 923 924 994
f 998 1056 1054
f 997 998 995
f 997 994 919
f 995 1123 999
f 1056 919 921
f 995 996 997
f 993 1089 998
f 1124 998 1091
f 1000 790 929
f 996 999 1058
f 1000 929 1004
f 613 1060 1009
f 1071 1072 1073
f 1028 1007 1010
f 454 1002 611
f 1003 1002 929
f 929 790 1003
f 1003 790 1122
f 460 815 1004
f 815 613 1059
f 786 554 1005
f 405 1005 554
f 405 924 1006
f 923 1008 924
f 1010 1007 1001
f 933 1006 1007
f 1001 1007 1008
f 924 1008 1007
f 1058 923 996
f 613 1206 1059
f 1011 1001 1060
f 1010 798 1028
f 934 1012 1013
f 1012 934 798
f 1001 1012 1010
f 1012 1011 1013
f 1014 1011 1072
f 1013 1011 1014
f 1023 1017 1019
f 1017 1014 953
f 1023 1013 1014
f 411 1015 1022
f 1017 1020 1016
f 1097 1021 1016
f 1020 1017 1024
f 1019 1017 1016
f 1018 1020 1024
f 1037 1077 1036
f 1019 1016 1021
f 1023 1019 1015
f 1024 1017 953
f 1025 1020 1018
f 1016 1098 1097
f 931 1021 1062
f 1015 1019 1022
f 1021 1022 1019
f 1013 1023 1015
f 1017 1023 1014
f 953 1026 1024
f 1027 1018 1024
f 1077 1076 1018
f 1025 946 1098
f 1026 953 1071
f 456 1035 1038
f 1026 1074 1078
f 1035 456 1033
f 932 933 1028
f 1028 933 1007
f 799 934 1029
f 411 1029 934
f 1031 609 810
f 1032 1030 937
f 951 1031 810
f 937 1030 1031
f 1033 1032 937
f 334 335 1203
f 1031 1230 937
f 1204 456 457
f 1040 951 453
f 1018 1027 1077
f 937 1035 1033
f 1036 1035 1034
f 1036 1034 1037
f 1036 1027 1038
f 1034 1040 1075
f 1037 948 1076
f 1078 1027 1026
f 1038 1078 459
f 947 1039 939
f 1075 1039 948
f 942 1039 1075
f 1230 1040 1034
f 1041 847 1049
f 1099 1041 1117
f 962 1042 850
f 659 1042 251
f 1044 1043 859
f 1045 1043 971
f 1100 859 858
f 977 1101 876
f 1147 1046 971
f 362 1045 856
f 1047 1046 252
f 963 1199 1200
f 854 1047 252
f 963 1047 657
f 623 1048 632
f 633 974 1048
f 1050 1049 844
f 1049 975 1079
f 1085 1050 1086
f 1085 864 1084
f 1087 375 706
f 1051 1215 1079
f 878 1052 681
f 896 1052 979
f 73 1053 265
f 890 1053 983
f 1055 1054 913
f 998 1054 993
f 1088 399 904
f 905 993 1055
f 919 1056 997
f 1054 1056 921
f 1057 1089 1090
f 1112 1113 1094
f 1206 1058 1000
f 1009 923 1058
f 1206 613 1009
f 1004 1059 1206
f 1060 613 1073
f 1001 1009 1060
f 1070 1065 1069
f 1021 1063 1062
f 1021 1097 1063
f 1066 1064 808
f 1063 1069 1067
f 1231 1067 1065
f 285 1062 1064
f 1063 1064 1062
f 1061 1070 1069
f 592 1207 595
f 1068 1066 808
f 1066 409 410
f 1064 1063 1067
f 1069 1063 1061
f 1068 808 1232
f 1068 596 568
f 1061 1098 1070
f 1065 1067 1069
f 1214 946 947
f 1214 1208 1070
f 953 1014 1072
f 815 1071 613
f 1073 1072 1011
f 953 1072 1071
f 1060 1073 1011
f 613 1071 1073
f 1078 1074 458
f 1071 1074 1026
f 1034 1075 1037
f 1040 942 1075
f 946 1076 948
f 1018 1076 1025
f 1036 1077 1027
f 1076 1077 1037
f 459 1078 458
f 1027 1078 1038
f 1051 1079 975
f 957 1041 1079
f 1127 1119 1104
f 1126 1080 1117
f 1082 1081 673
f 1083 1081 1044
f 868 1082 673
f 1044 1082 363
f 1100 1044 859
f 1101 980 876
f 865 1051 1102
f 1085 1084 1050
f 1050 1205 1086
f 1085 374 863
f 827 1086 843
f 374 1085 1086
f 1103 706 717
f 1087 706 1103
f 905 1055 1088
f 399 1088 1055
f 1090 1089 993
f 1091 1089 1057
f 993 905 1090
f 1092 1090 905
f 1057 1094 1091
f 1114 1094 557
f 1194 1092 905
f 1093 1092 769
f 769 772 1095
f 1093 563 1112
f 1112 1094 1057
f 557 1121 1114
f 1226 1096 771
f 1093 1095 1116
f 1115 398 787
f 1116 560 563
f 1098 1016 1025
f 1063 1097 1061
f 1070 1098 946
f 1097 1098 1061
f 1117 1041 957
f 1099 1080 1118
f 980 1100 858
f 1044 1100 1083
f 1081 1101 977
f 980 1101 1083
f 975 1084 1102
f 865 1102 1084
f 715 1107 1106
f 1106 1105 1103
f 1107 1111 1104
f 1111 1110 1104
f 1119 1105 1104
f 1215 1105 957
f 1107 715 712
f 1105 1106 1104
f 1108 1107 712
f 1104 1106 1107
f 738 1108 712
f 1109 1108 734
f 735 1109 734
f 1109 736 1110
f 1135 1110 736
f 1117 1080 1099
f 1108 1111 1107
f 1110 1111 1109
f 1093 1112 1057
f 1113 1112 563
f 562 1113 563
f 557 1094 1113
f 561 1122 1114
f 1123 1122 790
f 1116 1115 560
f 398 1115 1096
f 1095 1096 1116
f 1116 1096 1115
f 1119 957 1105
f 1119 1127 1117
f 1118 1080 1129
f 497 1134 100
f 1127 1104 1110
f 1117 957 1119
f 894 1133 736
f 98 1132 1131
f 558 1121 557
f 561 1121 559
f 1003 1122 561
f 790 999 1123
f 995 1124 1123
f 1123 1124 1125
f 998 1124 995
f 1125 1124 1091
f 1094 1125 1091
f 1122 1125 1114
f 1135 1126 1110
f 1130 1126 1120
f 1110 1126 1127
f 1117 1127 1126
f 376 259 1128
f 1099 1128 259
f 1130 1129 1080
f 98 99 1132
f 1126 1130 1080
f 1130 1120 1131
f 1120 1133 1131
f 1131 1133 97
f 99 1129 1132
f 1131 1132 1129
f 1133 1120 1135
f 97 1133 894
f 99 1134 1118
f 1128 1134 376
f 1133 1135 736
f 1126 1135 1120
f 237 1136 230
f 220 1136 82
f 607 1137 236
f 443 1137 314
f 461 1138 246
f 440 1138 312
f 347 350 1139
f 848 1139 350
f 1141 348 645
f 1140 250 1142
f 1141 473 1216
f 348 1141 1140
f 1155 1142 250
f 958 1142 650
f 350 1140 1143
f 1142 1143 1140
f 249 357 1144
f 473 1144 357
f 853 1145 251
f 360 361 1145
f 252 1046 1147
f 364 365 1146
f 971 1044 1148
f 364 1146 1147
f 1044 363 1148
f 363 1147 1148
f 869 1149 377
f 1150 1149 260
f 878 1150 260
f 380 381 1150
f 437 1151 309
f 757 1151 280
f 559 1152 283
f 555 1152 406
f 333 452 1153
f 609 1153 452
f 358 250 1216
f 179 1154 471
f 1156 1155 358
f 650 1155 475
f 1156 358 474
f 475 1156 646
f 156 1157 155
f 854 1157 478
f 856 1158 362
f 482 483 1158
f 1147 1159 364
f 868 1159 363
f 861 1160 464
f 157 1160 488
f 865 1161 375
f 495 496 1161
f 868 1162 484
f 151 1162 499
f 148 1163 147
f 879 1163 503
f 148 1164 149
f 885 1164 514
f 537 1165 62
f 1165 533 1187
f 696 1188 1187
f 801 287 1183
f 1218 570 930
f 285 1167 1218
f 639 1168 340
f 816 1168 628
f 1220 623 638
f 1170 1221 1169
f 1221 1170 128
f 1220 1170 1169
f 658 642 1171
f 467 1171 642
f 870 1173 500
f 170 1172 664
f 980 1173 378
f 1174 1173 858
f 1174 858 859
f 664 1172 1174
f 1176 1175 525
f 677 1175 679
f 1177 525 391
f 1176 526 986
f 391 742 1177
f 526 1177 742
f 286 1178 412
f 695 1178 698
f 710 1179 711
f 516 714 1179
f 438 305 1180
f 1180 305 308
f 284 880 1181
f 553 1181 880
f 1029 1182 571
f 930 1182 411
f 1184 1183 576
f 1185 1166 1186
f 59 1184 576
f 1184 60 1217
f 801 1183 1185
f 1184 1185 1183
f 1187 1186 1166
f 1188 1186 1187
f 1165 1187 1166
f 1187 533 1225
f 698 1188 696
f 286 1186 1188
f 809 1189 606
f 952 1189 608
f 952 1190 812
f 36 812 1190
f 837 1191 103
f 1192 1191 835
f 835 840 1192
f 1192 840 1224
f 96 1193 893
f 97 894 1193
f 769 1194 770
f 1088 1194 905
f 1196 39 40
f 943 1195 941
f 1197 40 41
f 941 1195 1196
f 41 1198 1197
f 1210 1211 1213
f 935 1198 41
f 1198 804 1213
f 855 1199 481
f 1200 1199 856
f 1045 1200 856
f 1200 1046 1047
f 433 1201 432
f 972 1201 253
f 1202 78 242
f 518 1202 984
f 1030 1203 331
f 334 1203 1032
f 1032 1204 334
f 456 1204 1033
f 845 1205 844
f 1086 1205 843
f 1058 1206 1009
f 1004 1206 1000
f 1065 1208 1207
f 1208 1209 1207
f 1070 1208 1065
f 1209 1208 944
f 1210 1209 944
f 1213 1212 1209
f 945 1210 944
f 1211 1210 941
f 1196 1211 941
f 1197 1198 1213
f 936 1212 804
f 1207 1212 595
f 1210 1213 1209
f 1213 1211 1197
f 1208 1214 944
f 946 1214 1070
f 1079 1215 957
f 1087 1215 1051
f 471 1216 473
f 358 1216 1154
f 1165 1217 61
f 1217 1166 1185
f 411 1218 930
f 285 1218 931
f 1220 1219 623
f 1222 1219 1169
f 1170 1220 639
f 1219 1220 1169
f 128 129 1221
f 129 434 1223
f 633 1222 432
f 1169 1221 1222
f 432 1223 434
f 1221 1223 1222
f 956 1224 840
f 1224 376 497
f 699 1225 530
f 1187 1225 696
f 1096 1226 398
f 774 1226 771
f 1229 396 900
f 901 773 1228
f 762 1228 908
f 901 1228 1227
f 901 1227 1229
f 396 1229 1227
f 1040 1230 951
f 1035 1230 1034
f 1067 1231 808
f 1207 1231 1065
f 1232 807 596
f 808 1231 1232
