# pattern_smooth best-fit FEM (phase 3), RMSE 4.531 mm
# params: /home/chaoyu/phd_simulation/FDM/optimisation/pattern_smooth_rm2_10strip_splineonly_sI_fol_result.json
v -0.07938931 -1.09618321 0.00000000
v -0.06963892 -1.07676146 0.01412048
v -0.05769041 -1.05295598 0.03143837
v -0.04687035 -1.03141859 0.04713407
v -0.03677054 -1.01149922 0.06160620
v -0.02471749 -0.99132382 0.07440037
v -0.01195078 -0.97005559 0.08789363
v 0.00012223 -0.95005207 0.10059138
v 0.01322173 -0.92847970 0.11430072
v 0.03068924 -0.90812701 0.12440197
v 0.05026622 -0.88573796 0.13536767
v 0.07050712 -0.86267553 0.14667440
v 0.09008252 -0.84041722 0.15760479
v 0.10953902 -0.82069523 0.16476361
v 0.13070727 -0.80057078 0.17049422
v 0.15275244 -0.77960034 0.17648916
v 0.17223679 -0.76105215 0.18180787
v 0.19941735 -0.74996639 0.17446603
v 0.22670328 -0.73882803 0.16713125
v 0.25360241 -0.72783712 0.15993754
v 0.27895358 -0.72040416 0.14735716
v 0.30526165 -0.71350728 0.13271727
v 0.33079177 -0.70682405 0.11853745
v 0.35559846 -0.70035009 0.10477483
v 0.38444851 -0.69285717 0.08877799
v 0.41347271 -0.68536815 0.07268608
v 0.43790823 -0.68187337 0.05405254
v 0.45756519 -0.67988348 0.03762653
v 0.47896395 -0.67775086 0.01974569
v 0.50259542 -0.67541985 0.00000000
v 0.49039294 -0.64682028 0.00000000
v 0.47705156 -0.61803819 0.00000000
v 0.46219909 -0.58938171 0.00000000
v 0.44711907 -0.56028611 0.00000000
v 0.43466338 -0.53625399 0.00000000
v 0.42199442 -0.50695223 0.00000000
v 0.40936106 -0.47587015 0.00000000
v 0.39826563 -0.44857187 0.00000000
v 0.38812015 -0.41671655 0.00000000
v 0.38008588 -0.38478035 0.00000000
v 0.37192372 -0.35233574 0.00000000
v 0.36496608 -0.31949785 0.00000000
v 0.35986056 -0.29113373 0.00000000
v 0.35446270 -0.26114571 0.00000000
v 0.35120710 -0.23184222 0.00000000
v 0.35003794 -0.20144447 0.00000000
v 0.34889887 -0.17182895 0.00000000
v 0.34956442 -0.13632195 0.00000000
v 0.35236641 -0.10870229 0.00000000
v 0.32939996 -0.12174966 0.00713978
v 0.30045036 -0.13811801 0.01608296
v 0.27392941 -0.15290559 0.02409769
v 0.25006562 -0.16611841 0.03128170
v 0.22470952 -0.18005989 0.03888460
v 0.19751104 -0.19455784 0.04663372
v 0.17090641 -0.20851457 0.05402796
v 0.14238780 -0.22193564 0.06089241
v 0.11621629 -0.23295067 0.06628806
v 0.08919638 -0.24429891 0.07184221
v 0.05538336 -0.25689447 0.07748538
v 0.02187069 -0.26944120 0.08312022
v -0.01033722 -0.27983989 0.08748535
v -0.04223271 -0.28934605 0.09130406
v -0.07178436 -0.29486875 0.09335038
v -0.10507532 -0.30013830 0.09522876
v -0.13952553 -0.30351728 0.09624536
v -0.17081207 -0.30528531 0.09658661
v -0.20165808 -0.30708898 0.09695149
v -0.23037605 -0.30432951 0.09554130
v -0.26306050 -0.29994004 0.09344882
v -0.29695857 -0.29527831 0.09123592
v -0.32884813 -0.28767523 0.08761745
v -0.36507431 -0.27895157 0.08348764
v -0.39845831 -0.26894456 0.07880969
v -0.42787596 -0.25736317 0.07345342
v -0.45533819 -0.24644152 0.06842320
v -0.48357258 -0.23298257 0.06217572
v -0.51140232 -0.21867310 0.05553244
v -0.53444995 -0.20671449 0.05000011
v -0.55632028 -0.19529672 0.04473346
v -0.58607947 -0.17576764 0.03566876
v -0.61365786 -0.15755845 0.02723866
v -0.63971726 -0.14029452 0.01926057
v -0.66784732 -0.12049274 0.01005464
v -0.69740458 -0.09893130 0.00000000
v -0.68350208 -0.12378065 0.00933301
v -0.66802540 -0.15144255 0.01972245
v -0.65643249 -0.17215780 0.02750335
v -0.64484424 -0.19315376 0.03530961
v -0.63421039 -0.21719676 0.04297092
v -0.62230909 -0.24406565 0.05153655
v -0.61031962 -0.27108979 0.06015703
v -0.59863697 -0.29820955 0.06857240
v -0.59003431 -0.32755424 0.07501055
v -0.58139531 -0.35698294 0.08147378
v -0.57217166 -0.38838783 0.08838018
v -0.56327676 -0.42011753 0.09496960
v -0.55713895 -0.45524946 0.09875513
v -0.55129153 -0.48877421 0.10238597
v -0.54578617 -0.52038733 0.10582982
v -0.54047033 -0.55095896 0.10918256
v -0.53997671 -0.58459083 0.10805994
v -0.53975515 -0.61679247 0.10678541
v -0.53953247 -0.64908246 0.10553299
v -0.53931266 -0.68096917 0.10432066
v -0.54348055 -0.71032835 0.10011019
v -0.55231853 -0.74033096 0.09256944
v -0.56095897 -0.76960592 0.08522501
v -0.56903472 -0.79687886 0.07838689
v -0.57730419 -0.82468689 0.07141269
v -0.58624071 -0.85457646 0.06390956
v -0.59375442 -0.87723082 0.05772997
v -0.60568890 -0.89931397 0.04854632
v -0.61808068 -0.92213903 0.03904266
v -0.63042262 -0.94476798 0.02960625
v -0.64232640 -0.96650548 0.02052796
v -0.65570566 -0.99085639 0.01034473
v -0.66931298 -1.01557252 0.00000000
v -0.65378832 -1.00172904 0.00891059
v -0.63425662 -0.98431246 0.02012103
v -0.61537016 -0.96747122 0.03096116
v -0.59281951 -0.94736254 0.04390440
v -0.56953364 -0.92659828 0.05726962
v -0.54707639 -0.90697251 0.06989819
v -0.51863661 -0.88868641 0.08159919
v -0.49374150 -0.87267951 0.09184179
v -0.46802902 -0.85669937 0.10215723
v -0.43570257 -0.85229164 0.10764478
v -0.39824196 -0.84718392 0.11400388
v -0.36556294 -0.85150689 0.11458723
v -0.33184902 -0.85765610 0.11423383
v -0.30740070 -0.87160693 0.10899450
v -0.28040147 -0.88718839 0.10311665
v -0.25362141 -0.90264343 0.09728650
v -0.23304652 -0.92119894 0.08869808
v -0.21151341 -0.94117143 0.07936965
v -0.18922525 -0.96184436 0.06971414
v -0.16777454 -0.98304747 0.05953036
v -0.14895863 -1.00713241 0.04685723
v -0.13014273 -1.03121727 0.03418410
v -0.11215323 -1.05424439 0.02206758
v -0.09406323 -1.07740018 0.00988337
v -0.12204381 -0.82733664 0.10672570
v -0.32289503 -0.31671134 0.09948338
v -0.32115205 -0.34681383 0.11035132
v -0.32097797 -0.37745888 0.12001366
v -0.32092104 -0.40843019 0.12847691
v -0.32097564 -0.43966824 0.13572586
v -0.32093523 -0.47072435 0.14154353
v -0.32078041 -0.50192400 0.14623513
v -0.32058888 -0.53318437 0.14972661
v -0.32033742 -0.56402925 0.15190322
v -0.32007953 -0.59504979 0.15296558
v -0.31980376 -0.62605242 0.15284551
v -0.31953138 -0.65711581 0.15153592
v -0.31928174 -0.68821207 0.14909370
v -0.31903299 -0.71879061 0.14553293
v -0.31885317 -0.74981471 0.14067700
v -0.31886689 -0.78101351 0.13455177
v -0.31884140 -0.81182093 0.12732981
v -0.31667854 -0.84278056 0.11898837
v -0.13182550 -0.33157386 0.11070798
v -0.12964135 -0.36289202 0.11919043
v -0.12808796 -0.39370176 0.12756418
v -0.12544390 -0.42412770 0.13434312
v -0.12264195 -0.45458915 0.14018231
v -0.12034968 -0.48531978 0.14466804
v -0.11924197 -0.51633626 0.14783459
v -0.11960434 -0.54729003 0.14938092
v -0.12119334 -0.57842457 0.14955682
v -0.12374065 -0.60965063 0.14837372
v -0.12651070 -0.64066979 0.14596887
v -0.12811839 -0.67160618 0.14228016
v -0.12845600 -0.70277543 0.13735381
v -0.12746835 -0.73357836 0.13128181
v -0.12493183 -0.76445417 0.12409939
v -0.12264901 -0.79595495 0.11598145
v -0.11554165 -0.85814255 0.09910394
v -0.10949706 -0.88899033 0.09015341
v -0.10413145 -0.92062091 0.08472971
v -0.09772701 -0.95192748 0.07627502
v -0.09080700 -0.98445966 0.06608887
v -0.08347403 -1.01405620 0.04692442
v -0.08809178 -1.04804708 0.04537401
v -0.08329527 -1.06519446 0.01527221
v 0.33169338 -0.13202906 0.00770189
v 0.31079266 -0.15569799 0.01683639
v 0.28948315 -0.17827418 0.02936267
v 0.26786075 -0.19955398 0.04378810
v 0.24571560 -0.22082933 0.05949487
v 0.22398299 -0.24221961 0.07591704
v 0.20321460 -0.26447861 0.09231781
v 0.18355269 -0.28843231 0.10864271
v 0.16500956 -0.31310427 0.12418441
v 0.14755551 -0.33894907 0.13879217
v 0.13005888 -0.36479499 0.15176698
v 0.11203242 -0.39030399 0.16253507
v 0.09432553 -0.41613488 0.17141155
v 0.07742297 -0.44260957 0.17843932
v 0.06017369 -0.46878498 0.18319444
v 0.04212902 -0.49387256 0.18508800
v 0.02324858 -0.51832616 0.18442157
v 0.00455521 -0.54293293 0.18174186
v -0.01307764 -0.56834816 0.17795072
v -0.02951503 -0.59482249 0.17323102
v -0.04544159 -0.62184058 0.16719365
v -0.06065337 -0.64935232 0.16026439
v -0.07492712 -0.67745988 0.15238863
v -0.08691484 -0.70699381 0.14446089
v -0.09534171 -0.73771292 0.13622181
v -0.10242633 -0.76849052 0.12750343
v -0.11032392 -0.79900225 0.11751683
v -0.34410893 -0.83122167 0.12159884
v 0.44516500 -0.64333953 0.04696515
v 0.33532205 -0.15406629 0.00763779
v 0.46695809 -0.65600087 0.02696310
v -0.61124394 -0.94064277 0.03847588
v -0.59395825 -0.92285492 0.04923372
v -0.55983639 -0.87585080 0.07306774
v -0.63279008 -0.17032334 0.03457498
v -0.56649162 -0.24105039 0.06104227
v -0.06458984 -1.02276476 0.06515995
v -0.05056266 -0.96389634 0.07895662
v 0.33171535 -0.65964815 0.14907237
v 0.42370996 -0.65970546 0.06801213
v 0.32400535 -0.17599220 0.01561735
v 0.46466479 -0.63447741 0.02335678
v 0.45476156 -0.61153256 0.02576875
v -0.57727176 -0.89979368 0.06086397
v -0.61928874 -0.19365161 0.04442169
v -0.55498319 -0.21996005 0.05436208
v -0.06220054 -0.99085982 0.06383273
v -0.03432805 -0.97543684 0.08852636
v -0.02444951 -0.94683571 0.09288026
v 0.34029576 -0.68485996 0.12981635
v 0.42757321 -0.58738118 0.05417546
v -0.58627018 -0.20736783 0.04836839
v -0.53156529 -0.24650571 0.06453043
v -0.04679235 -0.99970956 0.07790813
v 0.36900044 -0.66213722 0.11537705
v 0.30396952 -0.68188426 0.16099320
v -0.52951382 -0.22655555 0.05747326
v 0.35072881 -0.66825437 0.12906862
v 0.35005087 -0.63976777 0.13977394
v 0.32108749 -0.69364530 0.13984207
v -0.52302057 -0.82572152 0.09665472
v -0.48537943 -0.70299142 0.12858243
v -0.27265329 -0.84527265 0.11710876
v -0.14600187 -0.94325378 0.06935779
v -0.17541992 -0.85633026 0.10569767
v -0.26052712 -0.73529340 0.14177568
v -0.26144354 -0.64216830 0.15194504
v -0.37727283 -0.76490029 0.13589637
v -0.09174566 -0.62828548 0.15095223
v -0.10987815 -0.71779622 0.13597426
v -0.10615563 -0.68733897 0.14172491
v -0.11314796 -0.74838501 0.12951263
v -0.11723985 -1.00876084 0.04337691
v -0.48459720 -0.52588199 0.13008320
v -0.26262789 -0.48649802 0.14514351
v -0.06775831 -0.40290472 0.13147234
v -0.26283025 -0.39273404 0.12571944
v -0.37914529 -0.39355257 0.12293304
v -0.08186336 -0.34421992 0.11160220
v -0.35291176 -0.30760258 0.09559675
v -0.28869516 -0.32983661 0.10498452
v -0.31567936 -0.30001396 0.09294306
v -0.30265617 -0.31531457 0.09927682
v -0.46168564 -0.30319873 0.09047473
v -0.18455376 -0.35754909 0.11676573
v -0.15449171 -0.32347136 0.10465436
v -0.18145406 -0.33046941 0.10700600
v -0.12108288 -0.31316054 0.10300333
v -0.10557130 -0.33436220 0.10702135
v -0.10314367 -0.36027239 0.11637692
v -0.08367169 -0.31794930 0.10186170
v -0.07629652 -0.37397971 0.12178823
v -0.09793155 -1.05925412 0.03173327
v -0.10690843 -1.03491431 0.03017467
v -0.05573064 -0.85951280 0.13527954
v -0.02448560 -0.71403315 0.18035322
v -0.07156506 -0.56457514 0.15592448
v 0.19547397 -0.69874278 0.22570984
v -0.03250500 -0.49262814 0.15822343
v 0.18685347 -0.38701450 0.16411404
v 0.07367889 -0.34223907 0.13257849
v 0.11037576 -0.29434017 0.11053020
v 0.16424155 -0.25251080 0.08736357
v 0.19718045 -0.22407548 0.06778073
v 0.25845550 -0.29182804 0.09210429
v 0.24321060 -0.19630095 0.04697922
v 0.22046696 -0.21077263 0.05739999
v 0.26939235 -0.17294586 0.03226832
v 0.29161557 -0.15926686 0.02270326
v 0.30781897 -0.21820425 0.03437004
v -0.35050981 -0.79632857 0.13035938
v -0.55860391 -0.84670373 0.07888506
v -0.59525166 -0.24583174 0.06214878
v -0.06096208 -0.92483363 0.10854008
v -0.07654120 -0.96407074 0.08368214
v -0.05748419 -0.94764944 0.09758755
v -0.07962362 -0.93994836 0.09292140
v -0.03545321 -0.93063289 0.11238628
v -0.01063450 -0.93158410 0.11318928
v -0.03549162 -0.89196514 0.13213354
v 0.00132391 -0.90395734 0.13158545
v -0.04275031 -0.91208543 0.12087914
v -0.01984131 -0.91298838 0.12415501
v -0.06684269 -0.89420526 0.11756898
v -0.55978882 -0.89438311 0.06891051
v -0.53868559 -0.88676529 0.07715939
v -0.52570850 -0.85759441 0.08818002
v 0.41813102 -0.55806037 0.05715814
v 0.41086281 -0.62230552 0.08085760
v -0.60950215 -0.21828819 0.05289462
v -0.54439861 -0.29905087 0.07925770
v 0.36820749 -0.68315182 0.10696073
v 0.39432552 -0.66773715 0.09174416
v 0.25528258 -0.68340458 0.20004929
v 0.29006472 -0.70165220 0.15879224
v 0.28019635 -0.67959409 0.18367991
v 0.26683688 -0.70656219 0.17503484
v 0.29308078 -0.63852284 0.19752857
v 0.23097480 -0.70837274 0.19746437
v 0.29293084 -0.66189579 0.18421911
v 0.31101469 -0.65212298 0.17327055
v 0.25719086 -0.64520957 0.22403930
v 0.32671975 -0.63518124 0.16673753
v 0.26344390 -0.66553038 0.20606522
v 0.23498960 -0.66123945 0.23052639
v 0.34282094 -0.59183394 0.16457976
v 0.33996367 -0.61588314 0.16034965
v 0.37192522 -0.61667217 0.12307635
v 0.30038785 -0.59496041 0.20682208
v 0.31877725 -0.61276648 0.18467052
v 0.29776066 -0.61704481 0.20305135
v 0.25848746 -0.59420311 0.24098990
v 0.27191096 -0.61979285 0.22393036
v -0.55039809 -0.81800587 0.08757510
v -0.49604531 -0.84085792 0.10179793
v -0.50420112 -0.77080956 0.11441399
v -0.37721988 -0.67199881 0.14858972
v -0.51510627 -0.69880727 0.11774391
v -0.29386090 -0.82617428 0.12330161
v -0.29495417 -0.85216652 0.11572157
v -0.27822458 -0.86640959 0.11063841
v -0.25691854 -0.87870281 0.10586658
v -0.21823423 -0.88708977 0.10050634
v -0.23891983 -0.88881938 0.10120255
v -0.23314631 -0.85823165 0.11102393
v -0.16367327 -0.96032695 0.06762926
v -0.13667725 -0.98293949 0.05449167
v -0.17897635 -0.92676248 0.08311714
v -0.14503713 -0.96331316 0.06133156
v -0.11917381 -0.96352895 0.06138407
v -0.17888260 -0.94743060 0.07519991
v -0.13600738 -0.90922645 0.08029753
v -0.14542687 -0.84845143 0.10258854
v -0.18212669 -0.78321908 0.12629646
v -0.28423796 -0.70430805 0.14698945
v -0.29203995 -0.73503782 0.14285528
v -0.18357636 -0.61880291 0.15016098
v -0.26200406 -0.58014241 0.15286976
v -0.28509437 -0.61105481 0.15322636
v -0.29281337 -0.64198409 0.15245124
v -0.35408093 -0.73404381 0.14244062
v -0.11215012 -0.62640955 0.14809275
v -0.10414745 -0.64872022 0.14694972
v -0.09996480 -0.60597282 0.15047058
v -0.08235600 -0.64740484 0.15213371
v -0.07064960 -0.60831130 0.15670832
v -0.13130008 -1.01665718 0.04078971
v -0.10057390 -1.00181879 0.05130573
v -0.37800903 -0.57933989 0.15031193
v -0.37868993 -0.48648495 0.14178705
v -0.51566379 -0.53133603 0.11946908
v -0.28584096 -0.51763746 0.14875895
v -0.17838391 -0.53154404 0.14946497
v -0.18299599 -0.44501961 0.13906960
v -0.28617033 -0.45564080 0.13963772
v -0.29406734 -0.48649325 0.14473655
v -0.09916799 -0.40639630 0.13008754
v 0.02042826 -0.42090164 0.15451268
v -0.29428237 -0.39303184 0.12503942
v -0.35585744 -0.42397014 0.13119930
v -0.34805035 -0.39293723 0.12379591
v -0.33552899 -0.30396451 0.09426677
v -0.34453314 -0.33298615 0.10521787
v -0.45092458 -0.27559780 0.08084209
v -0.22059350 -0.34178329 0.11044332
v -0.15915314 -0.37927969 0.12440691
v -0.04555874 -0.32749332 0.10810160
v -0.10141813 -1.02067659 0.03713609
v -0.08779999 -0.86841900 0.11290227
v 0.01889648 -0.83966551 0.16686995
v -0.05099589 -0.79891525 0.15314753
v -0.05467282 -0.70257766 0.16221968
v 0.08487655 -0.77619031 0.20294060
v 0.01378200 -0.63902550 0.20148590
v -0.09865985 -0.56355278 0.15104257
v -0.10061752 -0.58474294 0.15083392
v -0.08333612 -0.52878810 0.15175424
v -0.09918692 -0.54269747 0.15027037
v -0.04219303 -0.56815782 0.16504104
v 0.07871316 -0.54406310 0.21467292
v 0.17705541 -0.73137884 0.21113125
v -0.00731927 -0.51275374 0.17029206
v -0.07436530 -0.46589462 0.14496719
v 0.18559726 -0.34714515 0.14188170
v 0.16117511 -0.36816232 0.15503899
v 0.15070540 -0.43893756 0.19132473
v 0.09901238 -0.36083780 0.14602810
v 0.13516886 -0.31106392 0.12247631
v 0.11375730 -0.26271409 0.08994385
v 0.13796734 -0.24616723 0.08097956
v 0.18131044 -0.26644474 0.09557609
v 0.19000144 -0.24534851 0.08206213
v 0.15627551 -0.27968209 0.10430774
v 0.18874679 -0.20851141 0.05722006
v 0.31089850 -0.31314387 0.06980308
v 0.25963587 -0.25505049 0.07262522
v 0.22055337 -0.29788282 0.10810087
v 0.33268100 -0.21690180 0.01751646
v 0.32902749 -0.19625857 0.01660767
v 0.32311812 -0.24863715 0.03335415
v 0.29101099 -0.20135596 0.03680494
v 0.27733187 -0.22955631 0.05380888
v -0.33082678 -0.79631521 0.13092714
v -0.34077939 -0.77594547 0.13525267
v -0.36135335 -0.77835998 0.13404410
v -0.35369748 -0.75701152 0.13863222
v -0.39489353 -0.80206904 0.12655196
v -0.37278734 -0.79754431 0.12913949
v -0.37886275 -0.82535341 0.12161489
v -0.57313530 -0.27492817 0.07089285
v -0.58452370 -0.22824068 0.05599934
v -0.05064625 -0.87922669 0.13065844
v -0.02042574 -0.85818906 0.15104597
v -0.09090421 -0.90207477 0.10073970
v -0.51171512 -0.87075327 0.08836986
v -0.54522346 -0.86178757 0.08103335
v 0.43416838 -0.56916673 0.03502503
v 0.42439245 -0.63887493 0.06756856
v 0.39907927 -0.64387889 0.09174271
v -0.57231370 -0.30577384 0.07830770
v 0.23780779 -0.72499489 0.17809570
v 0.21534555 -0.72534930 0.19268798
v 0.23315883 -0.68572031 0.21533620
v 0.20703070 -0.66974694 0.23934621
v 0.21608706 -0.69661851 0.21853773
v 0.37212432 -0.63975211 0.11873588
v 0.38814313 -0.58447921 0.10619024
v 0.35353118 -0.47988440 0.12324251
v 0.21992727 -0.61483395 0.26046129
v 0.27954814 -0.59951202 0.22338826
v 0.27981670 -0.55627712 0.22543956
v 0.27329755 -0.57828061 0.23302714
v 0.23694921 -0.55768496 0.24945842
v 0.25375991 -0.57255999 0.24623072
v 0.22633656 -0.58599016 0.25955929
v -0.54076392 -0.83657052 0.08794421
v -0.48653502 -0.85628520 0.09928654
v -0.53294959 -0.76232054 0.10345884
v -0.34630448 -0.67211322 0.14997297
v -0.50578988 -0.73432132 0.11834603
v -0.49412942 -0.65780591 0.12819331
v -0.24719112 -0.79565131 0.12908424
v -0.14968483 -0.99322812 0.05166701
v -0.20526480 -0.91485074 0.08948372
v -0.11719940 -0.90608536 0.08208817
v -0.13065772 -0.88821683 0.08694769
v -0.12229648 -0.92746859 0.07349257
v -0.16531485 -0.89053008 0.09251842
v -0.12792462 -0.84425813 0.10155497
v -0.15634788 -0.81107621 0.11569791
v -0.16067500 -0.75183586 0.13075221
v -0.30504256 -0.70403277 0.14737158
v -0.29484691 -0.67986232 0.14981961
v -0.30982064 -0.73473475 0.14315063
v -0.29232073 -0.76592992 0.13742078
v -0.18698754 -0.68621890 0.14446172
v -0.16374925 -0.65375968 0.14647377
v -0.15230847 -0.62220536 0.14847102
v -0.29334211 -0.57992659 0.15297955
v -0.30584080 -0.61086325 0.15326196
v -0.31050523 -0.64183607 0.15239557
v -0.33314662 -0.73409731 0.14305647
v -0.34363259 -0.70972044 0.14623581
v -0.10898974 -0.66766098 0.14414294
v -0.06973814 -0.62970060 0.15696431
v -0.05034928 -0.60058995 0.16428441
v -0.06758400 -0.58642205 0.15758115
v -0.11618966 -0.98684423 0.05245081
v -0.34709494 -0.57912355 0.15186110
v -0.35553938 -0.51740308 0.14697113
v -0.34777209 -0.48629440 0.14326556
v -0.53381263 -0.53440687 0.11188201
v -0.30658644 -0.51758802 0.14845460
v -0.29606321 -0.54209775 0.15090390
v -0.14694047 -0.53164771 0.14882626
v -0.15663336 -0.47282910 0.14337270
v -0.30691407 -0.45545006 0.13918995
v -0.29661168 -0.43102371 0.13439932
v -0.31172778 -0.48642728 0.14426065
v -0.11727194 -0.40827824 0.13058311
v -0.09745453 -0.43620637 0.13700060
v -0.08456965 -0.39228430 0.12676240
v -0.10644422 -0.38464565 0.12396824
v 0.02341021 -0.45958077 0.16770840
v 0.05700136 -0.40911661 0.15958609
v -0.31186420 -0.39295940 0.12465138
v -0.29480103 -0.36198013 0.11589947
v -0.33498756 -0.42392066 0.13186916
v -0.34540198 -0.44821768 0.13672368
v -0.33014038 -0.39282428 0.12418330
v -0.39863948 -0.33657850 0.10520667
v -0.34643516 -0.36234861 0.11497327
v -0.48158068 -0.26459354 0.07508242
v -0.19931189 -0.34222357 0.11106923
v -0.21139221 -0.36836719 0.11970129
v -0.21782095 -0.32105528 0.10260874
v -0.24660083 -0.32864783 0.10534997
v -0.14000826 -0.37869116 0.12402162
v -0.15046743 -0.36056676 0.11906729
v -0.14873306 -0.39730679 0.12900788
v -0.18631459 -0.40674903 0.13091627
v -0.14888423 -0.34136447 0.11307903
v -0.05431749 -0.30717336 0.09883257
v -0.02934484 -0.30908532 0.10199725
v -0.00103974 -0.34868692 0.12293170
v -0.02037695 -0.33245041 0.11331265
v -0.03965353 -0.36464167 0.12297277
v 0.01468987 -0.31096349 0.10749759
v -0.02170314 -0.35340826 0.12167177
v -0.00967659 -0.39239343 0.13771322
v -0.00725545 -0.37008471 0.13028358
v -0.00720996 -0.31454741 0.10677604
v 0.02553837 -0.38476373 0.14242173
v -0.06645482 -0.32959625 0.10695201
v -0.05965407 -0.35187203 0.11571400
v -0.10404738 -0.87253826 0.09875323
v -0.08540650 -0.82840830 0.12468717
v 0.04220799 -0.86066658 0.15759878
v -0.08148057 -0.79124877 0.13509842
v -0.07211692 -0.69594226 0.15306767
v -0.06754772 -0.72846433 0.15272057
v -0.04576935 -0.67445695 0.16832669
v 0.07838979 -0.81244435 0.18432614
v 0.10496448 -0.79795954 0.18893613
v -0.01343500 -0.62288863 0.18483344
v 0.03981147 -0.58867266 0.20822939
v -0.09287855 -0.49946106 0.14755013
v -0.05380444 -0.53907757 0.15862232
v 0.05417686 -0.52408273 0.19906531
v 0.18331997 -0.74764625 0.19368940
v 0.15847852 -0.74829614 0.20450148
v 0.13259665 -0.70563543 0.23281013
v 0.15183928 -0.72533855 0.22321443
v 0.17036641 -0.70660049 0.22952744
v 0.11326435 -0.74432948 0.21761068
v 0.17342404 -0.67128930 0.24532782
v 0.12915029 -0.72868563 0.22394254
v 0.09516263 -0.70792146 0.22895378
v 0.00656920 -0.52437787 0.17880221
v 0.01185968 -0.48876468 0.17207466
v -0.10055759 -0.46812556 0.14281454
v 0.16818464 -0.33451519 0.13610828
v 0.19090431 -0.32027658 0.12624012
v 0.14644798 -0.35747979 0.14883289
v 0.14308838 -0.39437585 0.16807177
v 0.11447452 -0.44958801 0.19051693
v 0.11352052 -0.37172605 0.15362334
v 0.11727386 -0.33628006 0.13542572
v 0.08139697 -0.38714317 0.15573092
v 0.10682429 -0.24747259 0.07707963
v 0.09348291 -0.26213097 0.08656503
v 0.17137603 -0.22997411 0.07255722
v 0.13611140 -0.26832553 0.09620487
v 0.13716537 -0.28966611 0.10983683
v 0.34136859 -0.30809815 0.03684960
v 0.24466054 -0.24066880 0.07036991
v 0.23596322 -0.26367910 0.08515005
v 0.25332782 -0.27323170 0.08457325
v 0.28890895 -0.27523291 0.06830013
v 0.20413633 -0.28507230 0.10408792
v 0.34211238 -0.24740579 0.01404230
v 0.33517693 -0.26756999 0.02792783
v 0.31080538 -0.26799622 0.05024757
v 0.29697143 -0.24632415 0.05086051
v 0.30693900 -0.29041912 0.06287315
v 0.28326014 -0.29976940 0.08337162
v 0.25723973 -0.34179252 0.11980249
v 0.26459155 -0.31716362 0.10254127
v 0.24179673 -0.30882574 0.10747934
v 0.29067623 -0.33905951 0.09919035
v 0.21885366 -0.32622124 0.12430507
v 0.28472173 -0.31979679 0.09258783
v 0.26356172 -0.21722008 0.05301256
v -0.36262450 -0.83328227 0.12012118
v -0.57783504 -0.25591443 0.06521910
v -0.55455553 -0.26170316 0.06803228
v -0.59277898 -0.27838105 0.06884653
v -0.56159010 -0.33487504 0.08560354
v -0.56179125 -0.29064594 0.07555356
v 0.40897208 -0.57727076 0.07797419
v 0.39166258 -0.56131410 0.09982661
v 0.40740701 -0.59982187 0.08373396
v 0.40227473 -0.53011250 0.06905224
v 0.35947832 -0.57157886 0.14586777
v 0.38458866 -0.46829815 0.06356635
v 0.21508545 -0.64235130 0.25051733
v 0.24510426 -0.61903802 0.24445413
v 0.17940812 -0.55411058 0.24887833
v -0.54161957 -0.79010291 0.09578365
v -0.32855706 -0.67234839 0.15038715
v -0.34599245 -0.64152051 0.15182380
v -0.50247875 -0.71418238 0.12149147
v -0.52378744 -0.71960988 0.11200597
v -0.48226862 -0.72715344 0.12706436
v -0.52653299 -0.74154423 0.10885936
v -0.48839197 -0.75143681 0.12218990
v -0.43751700 -0.70812876 0.13861632
v -0.45929135 -0.79002277 0.12184540
v -0.46212692 -0.71184366 0.13378323
v -0.47913801 -0.77467662 0.12120870
v -0.45065495 -0.74739496 0.13111582
v -0.45506388 -0.67158387 0.13863428
v -0.49724153 -0.80388196 0.11068289
v -0.44746686 -0.72671438 0.13473865
v -0.41052513 -0.74255655 0.13729009
v -0.47012343 -0.74293257 0.12817427
v -0.45761843 -0.76815167 0.12640985
v -0.42399382 -0.78159629 0.12840357
v -0.46679932 -0.69034557 0.13458237
v -0.47703796 -0.67135254 0.13320713
v -0.46613775 -0.64085327 0.13763098
v -0.49903146 -0.68106938 0.12522036
v -0.47925278 -0.79453979 0.11760552
v -0.47632348 -0.82161894 0.11212287
v -0.51879679 -0.66479852 0.11709604
v -0.51355917 -0.63654616 0.12048123
v -0.26643063 -0.81722497 0.12473754
v -0.22297385 -0.90531973 0.09413730
v -0.12780592 -0.94560276 0.06611080
v -0.18491115 -0.90374755 0.09213156
v -0.13578016 -0.81143191 0.11291245
v -0.14625703 -0.78863138 0.12046523
v -0.16509348 -0.79325688 0.12163637
v -0.16046757 -0.77298061 0.12604185
v -0.18893329 -0.81590816 0.11907070
v -0.13989732 -0.75019906 0.12904663
v -0.15231175 -0.72754283 0.13487387
v -0.19323552 -0.72689941 0.13891949
v -0.17287623 -0.73395976 0.13569678
v -0.17009419 -0.70720345 0.14014443
v -0.19157783 -0.75611042 0.13335254
v -0.25873143 -0.67877146 0.14914643
v -0.29279007 -0.79630035 0.13089552
v -0.27619302 -0.75109182 0.13968950
v -0.26731040 -0.77697332 0.13430809
v -0.14226185 -0.65500740 0.14525121
v -0.15423204 -0.68035518 0.14288239
v -0.13439359 -0.62401871 0.14773693
v -0.14851481 -0.59188288 0.14972462
v -0.31105613 -0.57978988 0.15275421
v -0.37933518 -0.70806649 0.14485420
v -0.08968027 -0.66487404 0.14887020
v -0.32936261 -0.57926389 0.15241994
v -0.34674588 -0.54843314 0.15025658
v -0.34624559 -0.61048072 0.15246738
v -0.33479396 -0.51742494 0.14776114
v -0.33002256 -0.48622198 0.14377373
v -0.25995619 -0.54350136 0.15120397
v -0.12885950 -0.53158163 0.14883812
v -0.14542030 -0.50197405 0.14662951
v -0.13570449 -0.47103740 0.14285798
v -0.14793780 -0.44836369 0.13952214
v -0.16635892 -0.45558496 0.14090330
v -0.16424351 -0.43410379 0.13709343
v -0.19507749 -0.48242500 0.14492243
v -0.26040020 -0.42928071 0.13477505
v -0.08210479 -0.42002184 0.13433044
v -0.07423417 -0.44197767 0.14042212
v -0.03714843 -0.45435870 0.14919930
v -0.05756582 -0.45416015 0.14510548
v -0.05266578 -0.47835091 0.15049481
v -0.04747091 -0.42505279 0.14006138
v -0.07316424 -0.48822491 0.14874488
v 0.03987007 -0.47235451 0.17763861
v 0.04525774 -0.44700071 0.17084586
v 0.02708640 -0.43996211 0.16270766
v 0.04276034 -0.42537969 0.16216823
v -0.00611733 -0.44131941 0.15361188
v 0.03581586 -0.40416516 0.15236814
v 0.05116179 -0.38316633 0.14744376
v 0.03614989 -0.34886596 0.12928598
v 0.03736222 -0.36862097 0.13825851
v 0.05947033 -0.36086620 0.13908125
v 0.01729317 -0.36012227 0.13093367
v 0.07432874 -0.42135670 0.16910042
v -0.31230764 -0.36211242 0.11549860
v -0.27867010 -0.37696658 0.12084071
v -0.24778481 -0.36214398 0.11698202
v -0.27117607 -0.35281764 0.11339969
v -0.30188546 -0.34401305 0.10980023
v -0.38125029 -0.45000001 0.13551334
v -0.37187855 -0.32776896 0.10295697
v -0.42120951 -0.30299679 0.09235633
v -0.36367617 -0.37684323 0.11889863
v -0.36939893 -0.35245270 0.11139288
v -0.38778139 -0.36989664 0.11603727
v -0.42855511 -0.39879717 0.12114512
v -0.40444796 -0.38974521 0.12066007
v -0.41790372 -0.36145341 0.11214815
v -0.40543294 -0.42469377 0.12882667
v -0.39441591 -0.40735915 0.12565537
v -0.38267646 -0.42695445 0.13078868
v -0.47112989 -0.28366729 0.08290270
v -0.50783819 -0.29044047 0.08295436
v -0.48608748 -0.30255564 0.08841559
v -0.51631772 -0.33124753 0.09295812
v -0.50548473 -0.31242094 0.08966469
v -0.52727785 -0.31257889 0.08586356
v -0.47933811 -0.33935534 0.10032818
v -0.54724344 -0.31981232 0.08400550
v -0.53771687 -0.34248375 0.09060333
v -0.47425922 -0.31944991 0.09485981
v -0.44425565 -0.33739386 0.10308652
v -0.55598529 -0.36122385 0.09101111
v -0.50603001 -0.37429545 0.10450559
v -0.51744523 -0.35405087 0.09785018
v -0.53274867 -0.37546429 0.09818491
v -0.49480365 -0.35524233 0.10228689
v -0.46639286 -0.38450621 0.11346956
v -0.48467912 -0.37388292 0.10832528
v -0.49369868 -0.41072296 0.11416058
v -0.46449606 -0.35943830 0.10752047
v -0.44180707 -0.37391490 0.11369392
v -0.46358252 -0.26216447 0.07507956
v -0.24777844 -0.31062359 0.09810489
v -0.26754112 -0.32085664 0.10195191
v -0.19009822 -0.38200550 0.12422051
v -0.21621345 -0.39870816 0.12830946
v -0.16877102 -0.34533543 0.11303277
v -0.05444461 -0.38319595 0.12704831
v -0.03162637 -0.38565445 0.13144813
v -0.02721974 -0.41017620 0.13979927
v -0.04663924 -0.40239507 0.13403428
v -0.02631063 -0.43246457 0.14619953
v -0.00346139 -0.41610805 0.14679611
v 0.01174549 -0.40115275 0.14548893
v -0.10373431 -0.82025421 0.11493627
v -0.10236011 -0.84226134 0.10891139
v 0.01002883 -0.87196270 0.15008353
v -0.07101151 -0.81024604 0.13808512
v -0.05994320 -0.83373008 0.14011899
v -0.07772318 -0.84810325 0.12532463
v -0.03739160 -0.84208058 0.14937894
v -0.00938231 -0.82905024 0.16538840
v -0.04540236 -0.72292670 0.16679241
v -0.04808416 -0.76098208 0.16119254
v -0.02477505 -0.74272248 0.17779942
v -0.03377315 -0.69360067 0.17549029
v 0.00977054 -0.68599698 0.20088735
v -0.01533573 -0.66906411 0.18658054
v -0.01080760 -0.69547799 0.18905628
v 0.01421341 -0.72775923 0.19983742
v 0.00690516 -0.70743249 0.19843164
v 0.04927672 -0.70402001 0.21763979
v 0.02852788 -0.71123630 0.20834592
v 0.05200223 -0.74714455 0.20924107
v 0.03619521 -0.73197007 0.20834646
v 0.01634705 -0.77039766 0.19221017
v 0.03126042 -0.75386830 0.20173795
v 0.04956407 -0.78746881 0.19542904
v 0.09153109 -0.82412484 0.17169574
v 0.06784173 -0.83648455 0.17000579
v 0.08650965 -0.79504795 0.19308367
v -0.02931887 -0.61338365 0.17521263
v 0.00048956 -0.59570184 0.18922846
v -0.09956291 -0.51787561 0.14870598
v -0.07283173 -0.54488286 0.15491319
v -0.02389376 -0.54079483 0.16885344
v 0.03990530 -0.51223740 0.18967826
v 0.03486552 -0.54820204 0.19706292
v 0.07337311 -0.49877052 0.19826029
v 0.11188218 -0.77211336 0.20337734
v 0.19101684 -0.67935786 0.23930845
v 0.18927407 -0.65724026 0.24980538
v 0.15680252 -0.63007810 0.25163006
v -0.01009020 -0.49019776 0.16481721
v -0.00090953 -0.46643949 0.16211709
v -0.02353563 -0.47220316 0.15658519
v 0.12856564 -0.38327769 0.16125236
v 0.12457820 -0.41920265 0.17846438
v 0.09737006 -0.43753288 0.18148953
v 0.09297347 -0.46357467 0.19130198
v 0.12963588 -0.49927056 0.21489431
v 0.11578158 -0.47650251 0.20236829
v 0.11443961 -0.31503362 0.12314926
v 0.08227922 -0.31069794 0.11677409
v 0.09616564 -0.32830228 0.12850503
v 0.09587450 -0.39781836 0.16332103
v 0.33408351 -0.34792134 0.06409154
v 0.34157384 -0.28763546 0.02804451
v 0.28009483 -0.25682606 0.06444977
v 0.23992803 -0.32958428 0.11980520
v 0.22220946 -0.36589966 0.14619457
v 0.41938448 -0.54018506 0.04292533
v 0.36752975 -0.53940415 0.13036336
v 0.37073764 -0.43804243 0.06641269
v 0.39414279 -0.49814209 0.06636311
v 0.24101272 -0.59904733 0.25668839
v 0.23511481 -0.63798781 0.24281265
v 0.20702181 -0.56352591 0.25679176
v -0.53261911 -0.80858783 0.09654451
v -0.51823793 -0.78959180 0.10570439
v -0.36191001 -0.65617607 0.15044478
v -0.37508427 -0.62557936 0.15091814
v -0.38533967 -0.64815203 0.14944199
v -0.42334169 -0.61670489 0.14623950
v -0.41614448 -0.67174915 0.14503830
v -0.40020995 -0.62751240 0.14876949
v -0.39667439 -0.66520871 0.14747737
v -0.41373504 -0.64757333 0.14671934
v -0.39869896 -0.69092208 0.14522776
v -0.38950944 -0.60308715 0.15002666
v -0.43575797 -0.65725038 0.14312109
v -0.42069442 -0.69341986 0.14264588
v -0.40405389 -0.71686695 0.14175230
v -0.43561255 -0.67883087 0.14169435
v -0.42423051 -0.72547036 0.13832280
v -0.48959005 -0.63433637 0.13046382
v -0.46536682 -0.59391523 0.13809775
v -0.50472197 -0.59940541 0.12515025
v -0.47223062 -0.61708014 0.13636902
v -0.50332306 -0.61934858 0.12574963
v -0.44753593 -0.62370352 0.14193354
v -0.48436157 -0.60112096 0.13244188
v -0.48801150 -0.56360219 0.13074407
v -0.43165722 -0.63701281 0.14459416
v -0.44145985 -0.60017083 0.14317374
v -0.41475149 -0.58906664 0.14706499
v -0.44318788 -0.55817983 0.14160967
v -0.44874080 -0.57940654 0.14138555
v -0.46520701 -0.56374594 0.13726221
v -0.46042205 -0.53757517 0.13691250
v -0.24786292 -0.83623082 0.11855822
v -0.14896744 -0.70682780 0.13832294
v -0.22513856 -0.74292060 0.13856511
v -0.21633749 -0.77982990 0.13050913
v -0.27656715 -0.68646090 0.14883733
v -0.25743814 -0.70544791 0.14604882
v -0.27692011 -0.66148188 0.15108069
v -0.17284825 -0.67180973 0.14518252
v -0.19542558 -0.64898345 0.14886570
v -0.16644778 -0.60478985 0.14995298
v -0.17849204 -0.56899604 0.15086719
v -0.19027996 -0.59309409 0.15124255
v -0.36174050 -0.71604032 0.14472801
v -0.36004891 -0.69193797 0.14765920
v -0.38033428 -0.73487064 0.14110801
v -0.36269225 -0.56336556 0.15043348
v -0.37063828 -0.53851118 0.14826501
v -0.38228036 -0.51383452 0.14509036
v -0.36242736 -0.59509371 0.15162406
v -0.27791551 -0.53567441 0.15054924
v -0.27958581 -0.56015131 0.15222441
v -0.25909231 -0.51636034 0.14887543
v -0.16258495 -0.51613231 0.14809609
v -0.18701935 -0.50721797 0.14768481
v -0.16798702 -0.49346633 0.14602837
v -0.22388718 -0.50563156 0.14771622
v -0.20514608 -0.49943987 0.14699918
v -0.22259585 -0.47769688 0.14419680
v -0.20640576 -0.52731379 0.14961567
v -0.27833951 -0.43741716 0.13616827
v -0.25929218 -0.45657692 0.14032748
v -0.27848658 -0.41225891 0.13043523
v -0.06075187 -0.51281958 0.15400481
v -0.22842231 -0.35934288 0.11641748
v -0.23519229 -0.38302181 0.12358613
v -0.24126146 -0.40967108 0.13059801
v -0.36363018 -0.44196451 0.13474967
v -0.36336681 -0.46704916 0.13949750
v -0.44150622 -0.29515777 0.08875300
v -0.44472499 -0.31618712 0.09616317
v -0.42383334 -0.27999460 0.08321141
v -0.42355795 -0.32612343 0.10063119
v -0.39328649 -0.30893747 0.09553123
v -0.37067746 -0.41120068 0.12769844
v -0.52914007 -0.27331453 0.07380758
v -0.55263152 -0.38228783 0.09462745
v -0.53075138 -0.40971770 0.10432096
v -0.43640635 -0.35532216 0.10902716
v -0.20833775 -0.42799377 0.13548624
v 0.02332572 -0.85801336 0.15831959
v 0.02122177 -0.89083276 0.13870550
v -0.00048824 -0.84801964 0.15954078
v -0.03160599 -0.81578830 0.15978266
v -0.00410688 -0.79613167 0.17786002
v -0.07456162 -0.75469150 0.14536968
v -0.06135241 -0.77958574 0.15015641
v 0.00759261 -0.66206007 0.19936648
v 0.04010333 -0.67167370 0.21616500
v -0.00984438 -0.64623593 0.18873954
v -0.00778447 -0.72811718 0.18871527
v -0.00068626 -0.75224706 0.18911490
v 0.05186136 -0.81485293 0.18284455
v 0.05954333 -0.85278392 0.15913150
v 0.04557096 -0.83650380 0.17135714
v 0.00786965 -0.61730053 0.19607250
v 0.03958114 -0.62063532 0.21306262
v 0.02168121 -0.60054668 0.20107825
v 0.01644839 -0.57263601 0.19358263
v 0.02084806 -0.53655988 0.18787272
v 0.05694852 -0.54667202 0.20656641
v 0.04771722 -0.56734641 0.20763171
v 0.08395715 -0.59418535 0.22833781
v 0.06283396 -0.58571882 0.21828157
v 0.06521158 -0.61261631 0.22398968
v 0.08067432 -0.56914487 0.22211554
v 0.12802449 -0.57624549 0.23851887
v 0.10663689 -0.55472280 0.22741088
v 0.05870077 -0.48735274 0.18915004
v 0.13136977 -0.78148680 0.18947154
v 0.14549345 -0.76525465 0.19632331
v 0.13446180 -0.74987266 0.21215030
v 0.18768322 -0.62058428 0.26111310
v 0.14614669 -0.41682431 0.17968485
v 0.17983154 -0.42122094 0.18338987
v 0.09494385 -0.48843473 0.20155363
v 0.09525477 -0.51902278 0.21260216
v 0.14748212 -0.47204146 0.20686942
v 0.34883255 -0.33005147 0.03578839
v 0.32694400 -0.32811381 0.06210292
v 0.32167416 -0.55251820 0.18932289
v 0.36354740 -0.45909109 0.09449563
v 0.32135125 -0.43949555 0.13499582
v 0.34662518 -0.44379515 0.10773701
v 0.34832902 -0.40292316 0.07755285
v 0.32391676 -0.46828243 0.15225047
v 0.34106041 -0.42294281 0.10104958
v 0.30183329 -0.40093342 0.12733935
v 0.31722563 -0.41736991 0.12459163
v 0.27784783 -0.43821680 0.16850606
v 0.29990069 -0.43295846 0.14979749
v 0.29558805 -0.46261834 0.17237938
v 0.38479516 -0.45031602 0.04453040
v 0.37374824 -0.48876481 0.09745662
v 0.34539625 -0.51482784 0.15411979
v 0.37217588 -0.51236246 0.11436423
v 0.21279228 -0.50427951 0.23021965
v -0.35660746 -0.62573199 0.15183449
v -0.44812066 -0.69278663 0.13841684
v -0.47895747 -0.54545256 0.13285161
v -0.45057812 -0.48649173 0.13393693
v -0.21612643 -0.83143721 0.11760908
v -0.20569361 -0.74207870 0.13728348
v -0.21670039 -0.71993572 0.14185241
v -0.19976263 -0.70514027 0.14283273
v -0.23987347 -0.72406832 0.14261329
v -0.22211632 -0.67563917 0.14786017
v -0.23257670 -0.69944996 0.14570663
v -0.21477191 -0.69341238 0.14541350
v -0.19852869 -0.77369424 0.13026838
v -0.20069885 -0.79613725 0.12534147
v -0.22386344 -0.80311515 0.12558693
v -0.24064881 -0.81612146 0.12355067
v -0.24153781 -0.76895335 0.13460356
v -0.22659893 -0.61640360 0.15195702
v -0.39220189 -0.75138956 0.13739329
v -0.41004562 -0.76440915 0.13339097
v -0.42959373 -0.75400881 0.13319605
v -0.42220860 -0.52317276 0.14211601
v -0.24502533 -0.49963198 0.14703305
v -0.23548827 -0.53052141 0.15010135
v -0.20499449 -0.45854713 0.14128602
v -0.23185770 -0.45120201 0.13970638
v -0.19565531 -0.55036962 0.15077110
v -0.24453186 -0.47343833 0.14336183
v -0.40373318 -0.28975356 0.08762498
v -0.38236037 -0.29118519 0.08863845
v -0.50607448 -0.26607145 0.07506757
v -0.51809160 -0.39228057 0.10485402
v -0.18869865 -0.42636118 0.13531248
v 0.03555647 -0.87782303 0.14593640
v 0.01231167 -0.81500478 0.17606190
v 0.03225489 -0.82011835 0.17772257
v 0.02734316 -0.79597276 0.18701604
v -0.08337464 -0.77217917 0.13739832
v -0.03548886 -0.64582314 0.17376281
v 0.06243577 -0.64647208 0.22539834
v 0.10397684 -0.57997326 0.23232297
v 0.11640115 -0.62052277 0.24074733
v 0.11909835 -0.59752015 0.23943865
v 0.10069377 -0.60658338 0.23544174
v 0.09027549 -0.63549858 0.23469754
v 0.13951844 -0.61197413 0.24620663
v 0.16604986 -0.60283260 0.25446659
v 0.14310796 -0.53882352 0.23305364
v 0.19676140 -0.63884335 0.25660862
v 0.17614250 -0.63854857 0.25577963
v 0.19896176 -0.59380171 0.26276703
v 0.07467713 -0.52031272 0.20592490
v 0.09636971 -0.53833334 0.21918307
v 0.11960966 -0.53466633 0.22530641
v 0.12902879 -0.55480093 0.23375407
v 0.15471523 -0.56683413 0.24404454
v 0.13385568 -0.52008039 0.22405433
v 0.17267147 -0.51186353 0.22994425
v 0.15119649 -0.50594511 0.22247947
v 0.16736852 -0.48712090 0.21691700
v 0.19048526 -0.49493389 0.22462130
v 0.17241009 -0.45831392 0.20296487
v 0.22262708 -0.45482993 0.20003699
v 0.21104860 -0.47929059 0.21640934
v 0.25605135 -0.48646025 0.20935599
v 0.19722683 -0.45886504 0.20433393
v 0.23560440 -0.47438012 0.20892542
v 0.20773075 -0.42991592 0.18664349
v 0.18524888 -0.44177522 0.19464428
v 0.18429456 -0.47523093 0.21295468
v 0.23537639 -0.49738213 0.22267958
v 0.25914225 -0.45899980 0.19154289
v 0.23068990 -0.52801566 0.23958445
v 0.25766909 -0.51523597 0.22421245
v 0.10953500 -0.50376765 0.21147801
v 0.12999331 -0.46256944 0.19919667
v 0.33738500 -0.56875784 0.17742617
v 0.34352601 -0.54680627 0.16802902
v 0.31474910 -0.57603572 0.19632443
v 0.30036891 -0.55895860 0.20764420
v 0.30293831 -0.51465086 0.19476756
v 0.29351330 -0.53692397 0.21003935
v 0.28025216 -0.51830658 0.21275140
v 0.28900587 -0.49034041 0.19322313
v 0.26606612 -0.53742470 0.22917371
v 0.31169189 -0.45504133 0.15462546
v 0.32486944 -0.49632868 0.16742973
v -0.46237420 -0.51067682 0.13437259
v -0.24469638 -0.74857290 0.13875397
v -0.20476415 -0.61061840 0.15141321
v -0.22466747 -0.57937480 0.15229178
v -0.21072385 -0.63235071 0.15071210
v -0.23522528 -0.64117415 0.15120846
v -0.24778654 -0.65955311 0.15043854
v -0.43895256 -0.77007900 0.12892325
v -0.43876553 -0.53693018 0.14096903
v -0.41010635 -0.55421630 0.14614794
v -0.40717634 -0.49675568 0.14096345
v -0.23908424 -0.43097962 0.13551568
v -0.37263392 -0.30843628 0.09568453
v 0.05646747 -0.62887837 0.22207149
v 0.03919516 -0.64400160 0.21512754
v 0.08419670 -0.61649735 0.23119801
v 0.08832356 -0.67164678 0.23319641
v 0.14720341 -0.58980019 0.24612894
v 0.18775580 -0.57485436 0.25648485
v 0.16138830 -0.54798606 0.24047501
v 0.24438340 -0.42466790 0.17499682
v 0.19982578 -0.40743487 0.17436646
v 0.22447727 -0.41041944 0.17205378
v 0.20990981 -0.38579058 0.16042632
v 0.25889136 -0.38546128 0.14473223
v 0.19873139 -0.36577721 0.15089799
v 0.23444881 -0.38616075 0.15468528
v 0.21118584 -0.34736541 0.13812107
v 0.24683487 -0.40332829 0.16084340
v 0.26817477 -0.41592427 0.15940024
v 0.20026801 -0.53276086 0.24435803
v 0.19203698 -0.51505130 0.23521439
v 0.17940322 -0.53205164 0.24069954
v 0.21952500 -0.54658902 0.24954046
v 0.30714679 -0.48012032 0.17407038
v 0.27603266 -0.47287516 0.19136076
v 0.27077214 -0.49977759 0.20945900
v 0.24651688 -0.53960874 0.23959347
v -0.43919033 -0.50698421 0.13816236
v -0.50100802 -0.47697980 0.12096474
v -0.23753637 -0.55668948 0.15175692
v -0.25577796 -0.56214892 0.15222003
v -0.21576893 -0.55919660 0.15153230
v -0.39480721 -0.53507075 0.14624532
v -0.38677916 -0.55732201 0.14858089
v -0.40051752 -0.57341123 0.14820261
v -0.40037333 -0.46992519 0.13771068
v 0.02613586 -0.65792100 0.20924413
v 0.08108499 -0.65299059 0.23203880
v 0.06519839 -0.66978937 0.22635110
v 0.10388720 -0.65470590 0.23778895
v 0.05402144 -0.68531200 0.22128987
v 0.07274016 -0.70054282 0.22552694
v 0.11403302 -0.68113525 0.23695489
v 0.06446649 -0.72446053 0.21854145
v 0.07790117 -0.74866336 0.21424276
v 0.22684069 -0.43519573 0.18670400
v 0.25781322 -0.43896814 0.17917170
v -0.48674724 -0.49939195 0.12733885
v -0.19970984 -0.57353194 0.15146634
v -0.21967114 -0.54078922 0.15069888
v -0.40307621 -0.51664593 0.14359640
v -0.40352757 -0.44734599 0.13352823
v -0.44704325 -0.43999880 0.12754747
v -0.42849491 -0.46266665 0.13368016
v -0.42431587 -0.43793589 0.12977081
v -0.43737699 -0.41952620 0.12481659
v -0.45117093 -0.40142647 0.11925353
v -0.47250630 -0.40553149 0.11714051
v -0.47570474 -0.43483550 0.12190178
v -0.45855021 -0.42195531 0.12246094
v 0.09715528 -0.68838887 0.23297634
v 0.11314877 -0.70189198 0.23200918
v 0.14341539 -0.67589157 0.24202252
v 0.09727004 -0.75627878 0.21225726
v 0.08567341 -0.72782831 0.22203013
v -0.47464719 -0.47640263 0.12809096
v -0.51631819 -0.50203259 0.11791516
v -0.45156342 -0.46315176 0.13058301
v -0.51041681 -0.44235352 0.11428288
v 0.15089442 -0.69722752 0.23571586
v 0.15458373 -0.65518934 0.24799699
v 0.13358494 -0.63984158 0.24500909
v 0.11487521 -0.63947751 0.24070935
v 0.12429501 -0.65837627 0.24178824
v -0.48820321 -0.45589252 0.12220943
v -0.46862798 -0.45377304 0.12623067
v -0.50234333 -0.51648547 0.12353135
v -0.52727980 -0.47835333 0.11226255
v -0.51486891 -0.46218451 0.11511791
v -0.53386176 -0.44734180 0.10746875
v -0.54520778 -0.47073404 0.10431210
v -0.52590628 -0.42929402 0.10825116
v -0.52755855 -0.51666137 0.11406680
v -0.49495571 -0.43056611 0.11693973
v -0.60768189 -0.17727370 0.03636945
v 0.43014588 -0.61026582 0.05736498
v -0.51439641 -0.84268664 0.09564699
v -0.25476121 -0.85747287 0.11256572
v -0.20365980 -0.86212369 0.10751763
v -0.18589257 -0.87915251 0.10026917
v -0.19324760 -0.83978763 0.11297335
v -0.21672507 -0.84972209 0.11240450
v -0.15664204 -0.92049772 0.08018823
v -0.27644683 -0.72293603 0.14426295
v -0.27729163 -0.62977132 0.15273321
v -0.25386267 -0.61577748 0.15281248
v -0.23986425 -0.59713563 0.15270412
v -0.27830738 -0.49898769 0.14665081
v -0.27844790 -0.47419140 0.14303626
v -0.07031670 -0.87477814 0.12235877
v 0.19713817 -0.72188574 0.21073286
v 0.36488703 -0.59484415 0.13600263
v -0.13437086 -0.86727088 0.09403257
v -0.16524940 -0.83363609 0.11079680
v -0.14573993 -0.82881883 0.10881497
v -0.30015108 -0.66034766 0.15142557
v -0.16920914 -0.63360976 0.14847776
v -0.27765450 -0.59247460 0.15320194
v -0.33858301 -0.69073854 0.14854839
v -0.36313888 -0.49882099 0.14432663
v -0.30103343 -0.56130583 0.15212876
v -0.30165089 -0.41140517 0.12968487
v -0.34030281 -0.46772710 0.14052252
v 0.01057091 -0.28871145 0.09470409
v 0.04664153 -0.29396145 0.10181901
v 0.16502407 -0.39092847 0.16703868
v -0.50390512 -0.82280103 0.10432067
v -0.43441129 -0.81603652 0.11870622
v -0.45419218 -0.83498731 0.11088867
v -0.27206786 -0.79719497 0.12989271
v -0.14587795 -0.56168255 0.14989689
v -0.16274161 -0.54717780 0.14986717
v -0.15990704 -0.57538547 0.15028023
v -0.14743055 -0.41949292 0.13401841
v -0.16561118 -0.40946996 0.13187641
v -0.17368072 -0.39220327 0.12755709
v 0.07927915 -0.36613125 0.14542170
v -0.39975344 -0.35550372 0.11118945
v -0.01289871 -0.88042168 0.14217428
v -0.03134234 -0.51689435 0.16273846
v 0.13103845 -0.43875185 0.18851869
v 0.08645776 -0.28575031 0.10196590
v 0.07243833 -0.26925614 0.08887244
v 0.06799044 -0.29543793 0.10554279
v 0.05545043 -0.32066036 0.11827227
v 0.03589370 -0.31191438 0.11079883
v 0.05406870 -0.34032116 0.12824216
v 0.38662304 -0.54366872 0.10329543
v 0.40799420 -0.51122570 0.04647959
v -0.52596061 -0.60072765 0.11471131
v -0.51593414 -0.57808400 0.12027379
v -0.55149861 -0.40340508 0.09721950
v 0.03057505 -0.69019639 0.21119294
v 0.37011031 -0.41502886 0.04942954
v 0.36819841 -0.39482078 0.03879412
v 0.36330193 -0.37078497 0.03329896
v 0.35541821 -0.35160103 0.03588762
v -0.20134142 -0.66989115 0.14727376
v -0.21694391 -0.65395850 0.14954456
v -0.39394360 -0.77994933 0.13170500
v -0.50586382 -0.24207055 0.06602426
v 0.32521451 -0.59446216 0.18431002
v 0.29170195 -0.57684609 0.21528685
v -0.42500264 -0.56994350 0.14497258
v 0.16837222 -0.58193251 0.25252655
v 0.27690086 -0.36297590 0.12180652
v 0.28306855 -0.38591159 0.13169737
v 0.31105437 -0.37004875 0.09997777
v 0.32641674 -0.38963537 0.09651925
v 0.34677482 -0.38323574 0.06683059
v 0.31024135 -0.34914592 0.08889475
v 0.33306408 -0.36784459 0.07651368
v 0.28890822 -0.41571649 0.14673144
v -0.42753562 -0.48602904 0.13718129
v -0.15703549 -0.86897481 0.09825622
v 0.04273006 -0.27358405 0.08832013
v 0.16396777 -0.41053117 0.17752118
v -0.43918589 -0.79597102 0.12330200
v -0.45598882 -0.81156195 0.11731625
v -0.41885039 -0.83440444 0.11529237
v -0.41313534 -0.81365977 0.12176428
v -0.39882153 -0.82722065 0.11962470
v -0.51053475 -0.55471820 0.12230018
v 0.01773510 -0.33421376 0.11936484
v 0.06266683 -0.76856637 0.20499342
v -0.02782146 -0.78051437 0.17008051
v -0.00542073 -0.77344551 0.18283115
v -0.02353034 -0.79854822 0.16816820
v 0.32224483 -0.52743715 0.18310101
v 0.24723263 -0.36411256 0.13706284
v 0.23407807 -0.34900220 0.13295422
f 118 119 117
f 371 490 206
f 117 119 120
f 276 264 539
f 115 116 121
f 120 116 117
f 121 116 120
f 146 145 517
f 268 267 144
f 347 1139 346
f 442 33 34
f 222 239 232
f 123 218 122
f 218 217 122
f 234 7 8
f 218 114 217
f 310 229 123
f 224 241 245
f 229 113 218
f 112 219 111
f 1138 340 1168
f 217 121 122
f 521 68 69
f 225 214 443
f 219 112 229
f 113 229 112
f 111 297 110
f 1136 237 81
f 225 444 318
f 339 614 109
f 614 463 108
f 244 243 240
f 297 111 219
f 310 123 124
f 445 93 94
f 228 236 1137
f 463 107 108
f 341 621 465
f 426 424 226
f 232 223 300
f 640 343 637
f 7 234 233
f 253 430 431
f 105 343 640
f 434 433 432
f 109 110 339
f 441 297 219
f 47 226 424
f 274 273 162
f 318 25 26
f 243 224 235
f 184 222 183
f 345 132 346
f 131 132 161
f 434 599 433
f 239 5 6
f 213 131 161
f 213 161 160
f 345 161 132
f 80 81 237
f 138 351 137
f 619 247 617
f 177 646 143
f 468 354 351
f 349 347 134
f 231 221 238
f 143 474 178
f 317 24 25
f 317 235 24
f 136 137 356
f 356 137 351
f 181 355 182
f 147 146 515
f 469 353 645
f 658 480 159
f 487 488 366
f 130 131 213
f 476 654 656
f 663 172 171
f 152 668 153
f 624 247 619
f 360 477 361
f 155 615 156
f 156 157 477
f 161 344 160
f 429 296 428
f 958 968 969
f 648 647 649
f 177 211 176
f 173 256 489
f 661 483 482
f 175 257 255
f 174 255 256
f 367 368 254
f 173 172 661
f 652 476 651
f 255 257 210
f 161 345 344
f 475 646 647
f 657 854 852
f 140 141 279
f 433 599 296
f 505 508 164
f 641 104 640
f 672 150 149
f 264 274 275
f 601 221 600
f 389 718 269
f 100 101 497
f 210 209 255
f 80 231 79
f 91 92 298
f 984 1202 238
f 705 144 145
f 33 236 228
f 313 34 35
f 102 1192 101
f 1134 1128 1118
f 711 714 713
f 157 158 479
f 715 717 716
f 1041 1099 259
f 371 206 491
f 269 718 720
f 104 641 103
f 105 106 343
f 272 271 67
f 78 79 242
f 71 72 267
f 678 679 379
f 83 87 88
f 84 87 83
f 85 86 84
f 278 184 279
f 84 86 87
f 256 255 209
f 88 89 220
f 15 549 14
f 237 231 80
f 231 238 242
f 445 603 725
f 231 237 436
f 620 107 463
f 88 220 83
f 9 304 8
f 298 436 315
f 220 230 1136
f 324 319 448
f 277 745 540
f 230 220 89
f 65 66 273
f 266 741 268
f 315 237 230
f 222 5 239
f 150 151 498
f 671 496 495
f 362 859 1043
f 671 151 150
f 381 380 502
f 677 501 676
f 956 846 847
f 513 386 385
f 154 485 153
f 513 148 147
f 163 523 164
f 148 149 502
f 169 168 674
f 506 382 505
f 146 147 511
f 1109 1111 1108
f 382 507 508
f 270 272 519
f 391 523 524
f 527 162 271
f 163 275 274
f 499 377 498
f 636 466 635
f 389 886 888
f 387 144 72
f 265 72 73
f 144 705 268
f 72 144 267
f 89 90 230
f 739 389 76
f 113 114 218
f 269 886 389
f 76 389 75
f 228 32 33
f 181 182 300
f 387 388 144
f 527 744 524
f 268 741 71
f 271 66 67
f 428 213 160
f 114 115 217
f 267 268 71
f 27 214 225
f 226 215 187
f 701 145 146
f 227 31 32
f 162 273 66
f 521 522 390
f 271 162 66
f 1032 1203 1030
f 168 552 167
f 668 669 494
f 365 364 485
f 29 31 216
f 177 143 212
f 20 446 19
f 142 185 278
f 185 184 278
f 142 1 185
f 393 279 184
f 354 355 644
f 140 372 139
f 222 232 183
f 232 182 183
f 142 278 141
f 472 644 181
f 2 3 185
f 264 275 277
f 68 521 519
f 185 3 184
f 4 5 222
f 4 184 3
f 233 223 239
f 512 384 702
f 709 263 386
f 184 4 222
f 543 11 12
f 185 1 2
f 753 752 143
f 302 300 301
f 178 179 541
f 471 473 357
f 471 357 470
f 180 181 302
f 210 257 211
f 177 212 211
f 439 299 309
f 255 174 175
f 212 143 752
f 394 757 753
f 397 545 546
f 903 902 991
f 207 490 370
f 173 174 256
f 367 369 171
f 211 212 544
f 171 369 401
f 547 208 545
f 547 207 208
f 371 369 254
f 992 765 906
f 171 172 367
f 563 1093 1116
f 170 400 169
f 233 6 7
f 141 278 279
f 1202 242 238
f 127 462 126
f 303 301 234
f 233 234 223
f 470 180 179
f 233 239 6
f 438 280 437
f 1180 754 438
f 245 241 320
f 308 304 306
f 455 336 334
f 214 216 227
f 545 208 209
f 14 776 13
f 206 779 205
f 121 217 115
f 19 446 447
f 311 310 124
f 83 220 82
f 1152 555 18
f 303 307 299
f 555 17 18
f 477 478 156
f 548 776 549
f 600 298 602
f 231 242 79
f 245 22 23
f 22 245 320
f 317 243 235
f 372 258 468
f 317 318 240
f 211 257 176
f 487 158 157
f 235 23 24
f 82 1136 81
f 26 27 225
f 216 28 29
f 183 182 373
f 870 378 1173
f 28 216 214
f 274 264 276
f 228 227 32
f 372 279 258
f 31 227 216
f 29 30 31
f 534 536 530
f 148 502 503
f 214 27 28
f 511 512 701
f 320 322 21
f 164 508 163
f 779 780 205
f 783 204 203
f 1137 443 214
f 169 400 403
f 782 553 402
f 780 204 205
f 203 202 564
f 403 168 169
f 166 165 677
f 690 200 199
f 200 689 201
f 780 915 204
f 675 500 674
f 505 164 165
f 195 196 569
f 796 198 199
f 509 689 690
f 412 572 573
f 610 938 453
f 413 195 194
f 195 567 194
f 567 410 409
f 572 197 196
f 319 329 330
f 408 685 683
f 784 201 202
f 193 416 418
f 186 187 215
f 274 65 273
f 276 65 274
f 159 428 160
f 440 340 1138
f 528 529 63
f 1166 1217 1165
f 218 123 229
f 64 528 63
f 239 223 232
f 1184 59 60
f 802 573 800
f 194 567 568
f 289 417 191
f 90 315 230
f 575 58 59
f 784 554 925
f 55 56 419
f 57 415 577
f 605 442 313
f 292 191 190
f 436 600 221
f 287 413 579
f 479 480 361
f 320 21 22
f 168 781 552
f 209 208 256
f 581 582 421
f 44 45 586
f 358 1155 250
f 191 192 582
f 586 423 425
f 224 245 235
f 423 45 46
f 149 150 504
f 586 587 44
f 207 370 208
f 321 329 319
f 23 235 245
f 690 692 691
f 539 528 276
f 580 42 43
f 175 176 257
f 943 939 940
f 591 597 420
f 144 388 145
f 890 708 889
f 325 327 329
f 243 244 224
f 733 721 731
f 292 54 55
f 55 419 292
f 190 191 581
f 291 53 54
f 270 391 524
f 53 293 52
f 294 51 52
f 187 294 188
f 188 294 293
f 65 276 64
f 188 189 426
f 163 274 162
f 226 187 188
f 226 47 215
f 347 346 133
f 47 48 215
f 186 48 49
f 50 51 186
f 49 50 186
f 328 244 332
f 215 48 186
f 393 184 183
f 154 155 486
f 186 51 187
f 424 295 423
f 166 676 167
f 67 68 272
f 191 292 289
f 36 1190 809
f 214 227 228
f 205 204 404
f 665 152 153
f 322 324 446
f 762 281 760
f 565 407 564
f 167 566 166
f 794 410 569
f 794 795 570
f 529 531 537
f 803 572 574
f 575 576 414
f 412 573 802
f 415 57 58
f 193 192 416
f 417 289 577
f 288 416 417
f 585 192 193
f 935 41 42
f 190 189 291
f 291 189 293
f 190 291 292
f 292 291 54
f 291 293 53
f 189 188 293
f 51 294 187
f 293 294 52
f 581 427 598
f 580 805 590
f 429 159 158
f 430 433 296
f 311 312 441
f 297 461 339
f 602 92 93
f 298 600 436
f 299 301 303
f 307 309 299
f 232 300 182
f 301 300 223
f 234 301 223
f 302 301 299
f 302 299 439
f 181 300 302
f 304 234 8
f 305 437 309
f 306 9 10
f 234 304 303
f 9 306 304
f 754 987 897
f 306 898 754
f 305 307 308
f 308 307 303
f 309 307 305
f 304 308 303
f 308 306 1180
f 439 1151 394
f 180 439 179
f 311 124 125
f 219 229 310
f 125 440 311
f 219 310 311
f 126 440 125
f 461 246 339
f 36 37 812
f 605 236 442
f 333 314 607
f 318 444 451
f 90 91 315
f 298 315 91
f 94 603 445
f 718 719 720
f 318 317 25
f 243 317 240
f 26 225 318
f 225 443 444
f 319 322 321
f 321 241 325
f 321 320 241
f 320 321 322
f 325 241 326
f 328 326 224
f 322 319 324
f 20 21 322
f 328 323 326
f 336 338 323
f 448 319 330
f 19 447 18
f 326 241 224
f 325 323 327
f 328 224 244
f 323 325 326
f 335 336 328
f 1167 410 570
f 244 333 332
f 313 809 606
f 325 329 321
f 330 329 327
f 338 612 327
f 611 449 330
f 37 38 610
f 332 335 328
f 240 451 244
f 335 332 1203
f 236 605 607
f 332 333 1153
f 606 609 452
f 1182 930 795
f 1203 332 331
f 336 335 334
f 455 338 336
f 328 336 323
f 1030 609 1031
f 1029 411 1182
f 337 813 612
f 327 323 338
f 297 339 110
f 463 614 817
f 127 1170 639
f 973 1201 972
f 341 628 638
f 639 1220 638
f 615 616 464
f 670 153 668
f 341 620 463
f 635 637 247
f 344 248 642
f 160 344 658
f 346 132 133
f 344 345 248
f 347 133 134
f 248 345 346
f 643 349 134
f 349 350 347
f 469 136 353
f 1139 248 346
f 643 134 135
f 350 349 348
f 348 1140 350
f 650 1142 1155
f 138 139 468
f 1144 356 249
f 355 352 493
f 249 351 354
f 180 470 472
f 136 469 135
f 468 351 138
f 355 354 352
f 258 373 493
f 181 180 472
f 249 356 351
f 136 356 353
f 474 1154 178
f 356 1144 353
f 176 647 177
f 1154 1216 471
f 651 176 175
f 361 480 659
f 852 853 657
f 852 854 478
f 480 158 159
f 361 659 1145
f 663 664 483
f 1172 169 674
f 664 857 483
f 1149 381 377
f 1146 252 1147
f 484 364 1159
f 156 478 1157
f 365 854 1146
f 156 615 1160
f 630 862 830
f 368 367 172
f 369 367 254
f 489 172 173
f 667 208 370
f 254 490 371
f 401 282 400
f 254 368 370
f 368 489 667
f 491 206 205
f 492 401 369
f 279 372 140
f 468 258 352
f 493 182 355
f 393 373 258
f 103 641 837
f 818 464 616
f 148 513 514
f 706 885 884
f 102 1191 1192
f 1118 1128 1099
f 152 665 1162
f 377 499 867
f 377 867 869
f 859 362 857
f 523 525 164
f 877 681 879
f 981 976 875
f 877 879 503
f 504 498 381
f 381 1149 1150
f 506 165 166
f 277 507 261
f 700 199 198
f 62 63 529
f 148 503 1163
f 741 704 522
f 717 891 716
f 884 885 514
f 517 145 388
f 386 263 891
f 72 265 387
f 388 387 265
f 707 388 265
f 517 386 515
f 739 77 518
f 727 728 887
f 69 740 522
f 270 519 520
f 742 270 520
f 525 1175 164
f 531 534 530
f 531 529 392
f 373 393 183
f 258 279 393
f 541 439 394
f 542 756 755
f 13 776 777
f 546 760 397
f 756 280 758
f 909 777 548
f 546 209 210
f 763 397 760
f 927 787 926
f 555 556 17
f 928 558 562
f 1114 1121 561
f 401 400 170
f 403 400 782
f 171 401 170
f 369 371 492
f 282 404 553
f 880 402 553
f 782 400 282
f 403 402 781
f 404 783 553
f 404 492 491
f 554 784 785
f 450 449 788
f 764 766 768
f 556 927 17
f 565 202 201
f 783 407 1181
f 687 261 682
f 682 382 506
f 1232 596 1068
f 582 422 583
f 794 196 197
f 410 285 1066
f 813 454 612
f 337 455 457
f 196 195 573
f 695 538 694
f 194 193 418
f 800 801 802
f 413 194 579
f 415 288 577
f 575 415 58
f 578 415 414
f 417 416 192
f 418 416 288
f 191 417 192
f 419 577 289
f 288 415 578
f 418 579 194
f 577 419 56
f 292 419 289
f 290 593 591
f 580 935 42
f 589 584 588
f 426 189 598
f 568 193 194
f 596 594 422
f 424 423 46
f 425 423 295
f 47 424 46
f 226 188 426
f 589 295 427
f 584 806 583
f 189 190 598
f 424 426 295
f 583 806 421
f 295 426 427
f 429 428 159
f 213 428 296
f 158 487 431
f 430 429 431
f 433 430 1201
f 296 429 430
f 158 431 429
f 431 366 862
f 629 624 631
f 129 1223 1221
f 1201 430 253
f 1222 1223 432
f 129 130 434
f 599 434 130
f 435 602 445
f 719 892 316
f 231 436 221
f 315 436 237
f 438 437 305
f 1151 437 280
f 1180 306 754
f 438 759 758
f 439 180 302
f 439 309 1151
f 440 126 462
f 311 440 312
f 311 441 219
f 461 441 312
f 33 442 236
f 34 313 442
f 1137 214 228
f 443 314 444
f 314 333 444
f 451 333 244
f 603 94 95
f 604 445 316
f 322 446 20
f 447 446 324
f 450 447 324
f 447 450 1152
f 449 448 330
f 450 283 1152
f 611 330 814
f 1094 1114 1125
f 324 448 450
f 449 450 448
f 318 451 240
f 444 333 451
f 452 605 606
f 332 1153 331
f 38 949 610
f 285 410 1167
f 457 459 337
f 921 919 920
f 1033 1204 1032
f 337 338 455
f 1076 946 1025
f 813 459 460
f 1204 455 334
f 456 1038 459
f 942 453 938
f 1029 571 799
f 456 459 457
f 459 458 460
f 458 815 460
f 929 454 1004
f 441 461 297
f 1138 461 312
f 639 462 127
f 440 462 340
f 108 109 614
f 341 465 620
f 616 155 154
f 861 860 488
f 247 343 617
f 343 618 617
f 624 634 247
f 1191 102 103
f 642 248 848
f 649 656 359
f 372 468 139
f 354 468 352
f 1144 645 353
f 348 643 469
f 471 470 179
f 472 470 357
f 1154 179 178
f 250 1141 1216
f 357 249 472
f 644 472 249
f 645 473 1141
f 473 645 1144
f 1156 474 143
f 1154 474 358
f 648 650 475
f 646 1156 143
f 849 175 174
f 173 661 662
f 477 157 479
f 478 477 360
f 478 360 852
f 1157 365 486
f 480 479 158
f 477 479 361
f 159 160 658
f 659 251 1145
f 855 856 1199
f 476 652 654
f 482 856 855
f 855 655 662
f 664 171 170
f 483 857 1158
f 665 485 484
f 868 867 499
f 485 154 486
f 484 485 364
f 1157 486 155
f 485 486 365
f 488 487 157
f 431 487 366
f 1160 157 156
f 861 666 860
f 667 256 208
f 172 489 368
f 370 490 254
f 206 490 207
f 205 404 491
f 492 404 282
f 401 492 282
f 371 491 492
f 258 493 352
f 182 493 373
f 669 152 151
f 866 670 494
f 495 865 864
f 863 494 669
f 148 514 1164
f 496 885 1161
f 1224 497 101
f 1134 497 376
f 499 498 151
f 381 498 377
f 1162 151 152
f 868 673 867
f 675 168 167
f 1172 500 1173
f 501 678 680
f 870 500 675
f 502 149 504
f 503 502 380
f 503 380 877
f 1163 384 511
f 498 504 150
f 502 504 381
f 506 505 165
f 508 505 382
f 566 506 166
f 682 261 507
f 508 277 275
f 682 507 382
f 277 508 507
f 163 508 275
f 691 693 509
f 791 407 565
f 803 198 197
f 697 538 695
f 1163 511 147
f 512 511 384
f 702 384 262
f 705 512 704
f 513 147 515
f 514 513 385
f 514 385 884
f 1164 496 672
f 517 515 146
f 513 515 386
f 890 983 982
f 709 711 263
f 388 707 710
f 386 517 709
f 1202 77 78
f 238 601 892
f 68 519 272
f 520 519 390
f 881 520 390
f 978 875 680
f 522 521 69
f 519 521 390
f 741 740 70
f 704 702 703
f 524 523 163
f 525 523 391
f 527 163 162
f 272 270 744
f 1177 1176 525
f 1175 1176 679
f 742 391 270
f 526 742 743
f 744 271 272
f 163 527 524
f 276 528 64
f 529 528 392
f 532 534 392
f 537 62 529
f 536 535 751
f 62 1165 61
f 540 392 539
f 1225 537 530
f 277 261 745
f 692 694 383
f 533 537 1225
f 286 801 1186
f 392 534 531
f 746 536 532
f 535 536 746
f 685 687 683
f 532 536 534
f 751 535 750
f 530 537 531
f 537 533 1165
f 510 574 695
f 536 538 699
f 540 539 264
f 528 539 392
f 277 540 264
f 392 540 532
f 439 541 179
f 753 541 394
f 757 280 756
f 752 755 544
f 910 13 777
f 543 911 897
f 544 212 752
f 396 903 544
f 546 545 209
f 547 545 397
f 902 761 546
f 763 760 281
f 763 547 397
f 207 992 206
f 775 1226 774
f 777 911 910
f 926 15 16
f 778 549 398
f 992 547 765
f 912 780 550
f 913 551 914
f 554 785 917
f 552 880 688
f 552 688 566
f 404 204 783
f 880 686 688
f 202 203 916
f 1005 405 1006
f 1152 18 447
f 556 555 406
f 556 406 558
f 787 560 1115
f 559 558 406
f 559 283 788
f 406 1152 559
f 562 558 557
f 283 450 788
f 558 559 1121
f 560 562 563
f 398 549 787
f 449 611 1002
f 1002 789 449
f 562 557 1113
f 562 560 928
f 1123 1125 1122
f 547 763 765
f 565 564 202
f 783 564 407
f 689 565 201
f 693 792 509
f 552 566 167
f 566 408 683
f 567 195 569
f 568 567 409
f 1066 285 1064
f 568 422 585
f 569 196 794
f 567 569 410
f 795 197 198
f 1167 570 1218
f 932 200 786
f 200 201 925
f 573 572 196
f 574 572 412
f 195 413 573
f 287 800 413
f 1178 286 698
f 700 574 510
f 576 575 59
f 415 575 414
f 1184 1217 1185
f 414 576 1183
f 57 577 56
f 288 417 577
f 287 578 414
f 288 578 418
f 418 578 579
f 287 579 578
f 44 587 805
f 936 935 580
f 582 581 191
f 427 581 421
f 585 582 192
f 583 422 290
f 584 583 290
f 421 582 583
f 590 584 591
f 805 588 590
f 568 585 193
f 582 585 422
f 423 586 45
f 587 586 425
f 588 587 425
f 43 805 580
f 589 588 425
f 590 588 584
f 295 589 425
f 427 421 806
f 591 584 290
f 580 590 420
f 593 290 594
f 420 590 591
f 1231 592 1232
f 593 597 591
f 594 290 422
f 593 592 595
f 596 422 568
f 593 594 807
f 285 931 1062
f 1212 936 595
f 1068 568 409
f 593 807 592
f 593 595 597
f 420 597 595
f 581 598 190
f 426 598 427
f 130 213 599
f 296 599 213
f 602 298 92
f 601 600 435
f 601 435 604
f 238 221 601
f 445 602 93
f 600 602 435
f 726 603 729
f 732 731 726
f 604 316 892
f 435 445 604
f 606 605 313
f 607 605 452
f 313 35 809
f 609 331 1153
f 333 607 452
f 607 314 1137
f 812 37 610
f 1189 609 606
f 609 1189 810
f 1030 331 609
f 949 39 811
f 950 951 952
f 814 327 612
f 789 561 788
f 337 612 338
f 814 454 611
f 798 1010 1012
f 561 789 1003
f 339 246 816
f 463 817 341
f 616 615 155
f 1160 615 464
f 670 154 153
f 342 464 818
f 618 343 106
f 619 617 465
f 107 618 106
f 465 617 618
f 619 465 621
f 634 635 247
f 465 618 620
f 107 620 618
f 625 621 341
f 832 629 974
f 631 625 632
f 366 488 860
f 625 638 623
f 1222 633 1219
f 631 619 621
f 627 955 831
f 817 614 816
f 629 622 624
f 625 623 632
f 623 1219 1048
f 342 820 824
f 828 627 831
f 1138 1168 246
f 639 638 628
f 631 624 619
f 1048 974 626
f 366 860 862
f 832 630 830
f 625 631 621
f 629 631 626
f 633 1048 1219
f 631 632 626
f 633 1201 973
f 973 974 633
f 955 624 622
f 635 634 627
f 636 635 627
f 635 466 637
f 820 342 818
f 836 833 636
f 637 466 640
f 247 637 343
f 341 638 625
f 628 1168 639
f 462 639 340
f 127 128 1170
f 641 640 466
f 104 105 640
f 636 833 466
f 641 466 833
f 248 1139 848
f 660 658 1171
f 349 643 348
f 135 469 643
f 354 644 249
f 181 644 355
f 1141 250 1140
f 348 469 645
f 647 646 177
f 475 1155 1156
f 649 176 651
f 649 359 648
f 650 648 359
f 475 647 648
f 176 649 647
f 649 476 656
f 966 967 359
f 1143 1142 958
f 652 651 175
f 649 651 476
f 174 173 662
f 655 653 654
f 853 962 964
f 660 467 970
f 655 654 652
f 654 653 656
f 849 655 652
f 655 481 961
f 959 656 653
f 968 967 851
f 360 1145 853
f 657 853 964
f 344 642 658
f 1171 467 660
f 480 660 659
f 660 970 1042
f 658 660 480
f 851 970 467
f 661 172 663
f 662 661 482
f 855 662 482
f 662 655 849
f 664 663 171
f 661 663 483
f 170 169 1172
f 1158 857 362
f 485 665 153
f 1162 665 484
f 824 826 342
f 862 253 431
f 368 667 370
f 256 667 489
f 669 668 152
f 670 668 494
f 671 669 151
f 494 863 374
f 866 494 374
f 616 154 670
f 671 150 672
f 669 671 495
f 1164 672 149
f 671 672 496
f 1100 980 1083
f 870 871 378
f 675 674 168
f 1172 674 500
f 676 675 167
f 871 872 680
f 677 676 166
f 675 676 501
f 165 164 1175
f 678 677 679
f 680 678 379
f 501 677 678
f 677 165 1175
f 679 1176 986
f 896 379 986
f 260 1149 869
f 380 1150 878
f 896 526 743
f 683 506 566
f 683 682 506
f 684 685 686
f 682 683 687
f 284 407 791
f 535 746 747
f 686 685 408
f 685 684 687
f 688 686 408
f 686 284 793
f 684 693 749
f 748 746 745
f 566 688 408
f 880 552 402
f 690 689 200
f 565 689 509
f 692 199 700
f 692 383 691
f 693 691 383
f 509 690 691
f 199 692 690
f 692 510 694
f 535 747 750
f 684 686 793
f 695 694 510
f 694 538 751
f 1178 574 412
f 696 699 697
f 696 697 698
f 1185 1186 801
f 698 697 695
f 696 1225 699
f 1178 695 574
f 698 286 1188
f 536 699 530
f 538 697 699
f 700 198 803
f 692 700 510
f 511 701 146
f 705 701 512
f 703 702 262
f 704 512 702
f 743 520 882
f 703 881 522
f 522 704 703
f 705 704 266
f 268 705 266
f 701 705 145
f 716 263 713
f 1087 1105 1215
f 73 983 1053
f 710 709 517
f 890 516 707
f 888 75 389
f 517 388 710
f 709 710 711
f 707 516 710
f 516 1179 710
f 712 713 714
f 727 269 720
f 736 1109 735
f 263 711 713
f 714 711 1179
f 712 715 716
f 889 708 887
f 722 724 727
f 1105 1087 1103
f 844 1049 847
f 712 716 713
f 1103 717 715
f 884 717 706
f 891 717 385
f 739 718 389
f 719 718 518
f 719 984 892
f 725 726 723
f 719 723 722
f 719 722 720
f 723 726 721
f 738 895 737
f 723 719 316
f 724 722 721
f 725 723 316
f 721 722 723
f 726 731 721
f 724 728 727
f 445 725 316
f 725 603 726
f 729 603 95
f 731 732 730
f 722 727 720
f 733 735 737
f 889 714 516
f 708 886 887
f 95 96 729
f 732 893 1193
f 1129 1130 1131
f 733 737 724
f 732 726 729
f 733 731 730
f 96 893 729
f 732 729 893
f 735 733 730
f 721 733 724
f 985 732 894
f 714 895 738
f 736 735 730
f 735 734 737
f 1129 99 1118
f 100 1134 99
f 737 734 738
f 728 724 737
f 1108 738 734
f 712 714 738
f 77 739 76
f 718 739 518
f 69 70 740
f 71 741 70
f 704 741 266
f 522 740 741
f 743 742 520
f 526 1176 1177
f 520 881 882
f 882 262 883
f 524 744 270
f 271 744 527
f 747 748 687
f 540 745 532
f 532 745 746
f 745 261 748
f 687 749 747
f 750 383 751
f 687 748 261
f 746 748 747
f 684 749 687
f 750 749 693
f 749 750 747
f 693 383 750
f 694 751 383
f 751 538 536
f 753 143 178
f 752 542 755
f 753 178 541
f 542 752 753
f 897 899 754
f 306 10 898
f 542 757 756
f 396 544 755
f 758 280 438
f 396 755 756
f 753 757 542
f 757 394 1151
f 759 438 899
f 756 758 900
f 778 1226 775
f 756 900 396
f 902 546 210
f 761 760 546
f 900 759 1229
f 760 761 762
f 1227 761 903
f 770 768 767
f 766 763 281
f 766 765 763
f 768 281 907
f 764 1194 1088
f 764 904 765
f 904 399 906
f 907 281 762
f 765 766 764
f 774 771 772
f 1093 769 1095
f 281 768 766
f 770 772 769
f 1088 904 764
f 770 1194 768
f 772 770 767
f 1092 1194 769
f 907 908 767
f 1095 771 1096
f 767 908 774
f 772 771 1095
f 762 1227 1228
f 988 901 759
f 767 774 772
f 774 773 775
f 901 988 990
f 775 548 778
f 549 776 14
f 777 776 548
f 548 775 909
f 12 910 543
f 778 398 1226
f 548 549 778
f 992 779 206
f 780 779 550
f 912 550 399
f 780 914 915
f 403 781 168
f 402 552 781
f 403 782 402
f 282 553 782
f 564 783 203
f 1181 407 284
f 784 202 916
f 925 554 786
f 785 916 915
f 554 917 405
f 922 924 405
f 797 571 796
f 926 549 15
f 787 927 928
f 789 788 449
f 559 788 561
f 929 1002 454
f 1003 789 1002
f 919 994 922
f 922 917 918
f 792 791 565
f 284 791 793
f 509 792 565
f 793 693 684
f 791 792 793
f 693 793 792
f 795 794 197
f 794 570 410
f 796 795 198
f 1182 795 571
f 797 796 199
f 795 796 571
f 200 797 199
f 932 786 933
f 571 797 799
f 799 797 932
f 797 200 932
f 799 798 934
f 800 287 801
f 573 413 800
f 287 414 1183
f 60 61 1217
f 801 286 802
f 412 802 286
f 572 803 197
f 700 803 574
f 945 939 943
f 1196 1197 1211
f 44 805 43
f 805 587 588
f 584 589 806
f 427 806 589
f 594 596 807
f 1066 1068 409
f 1022 1021 931
f 938 811 940
f 36 809 35
f 809 608 1189
f 1190 952 608
f 948 1037 1075
f 39 1196 1195
f 1212 1213 804
f 950 610 453
f 809 1190 608
f 459 813 337
f 454 813 460
f 327 814 330
f 454 814 612
f 815 458 1074
f 1058 999 1000
f 816 246 1168
f 614 339 816
f 816 628 817
f 628 341 817
f 954 616 670
f 616 954 818
f 822 825 828
f 818 819 820
f 820 819 823
f 820 825 824
f 827 823 819
f 845 834 842
f 831 955 829
f 826 666 342
f 866 819 954
f 824 825 822
f 825 820 823
f 824 822 826
f 823 821 825
f 841 828 825
f 822 829 826
f 832 829 622
f 374 1086 827
f 821 823 827
f 841 821 838
f 636 627 828
f 831 829 822
f 832 830 829
f 666 826 830
f 829 830 826
f 828 831 822
f 627 634 955
f 622 629 832
f 974 629 626
f 641 833 837
f 834 836 838
f 834 838 842
f 1224 101 1192
f 837 836 839
f 834 840 839
f 838 836 636
f 839 836 834
f 836 837 833
f 837 835 1191
f 841 636 828
f 838 821 842
f 842 1205 845
f 837 839 835
f 259 1224 956
f 835 839 840
f 821 841 825
f 636 841 838
f 843 821 827
f 821 843 842
f 1085 863 864
f 834 845 846
f 864 865 1084
f 956 847 259
f 1205 842 843
f 846 845 844
f 846 844 847
f 834 846 840
f 1050 844 1205
f 1051 375 1087
f 848 350 1143
f 642 848 969
f 175 849 652
f 662 849 174
f 964 960 965
f 1042 659 660
f 359 656 966
f 966 959 851
f 853 852 360
f 1047 854 657
f 960 962 850
f 960 850 959
f 1146 854 252
f 854 365 1157
f 482 1158 856
f 655 855 481
f 362 1043 1045
f 963 1200 1047
f 1172 1173 1174
f 857 664 1174
f 876 980 378
f 1174 859 857
f 980 858 1173
f 1045 971 1046
f 488 1160 861
f 862 860 666
f 464 342 861
f 666 861 342
f 830 862 666
f 630 972 862
f 495 864 669
f 863 669 864
f 495 1161 865
f 975 1049 1050
f 975 1102 1051
f 975 1050 1084
f 374 827 866
f 819 866 827
f 499 1162 868
f 869 867 673
f 1159 868 484
f 868 363 1082
f 871 874 876
f 260 869 976
f 872 675 501
f 870 872 871
f 680 874 871
f 876 378 871
f 675 872 870
f 680 872 501
f 874 875 873
f 977 869 673
f 875 874 680
f 876 874 873
f 978 680 379
f 878 681 877
f 977 873 976
f 971 1148 1147
f 878 877 380
f 681 262 879
f 260 981 878
f 978 979 875
f 262 384 879
f 879 384 1163
f 1181 553 783
f 686 880 284
f 522 881 390
f 881 703 882
f 703 262 882
f 883 262 681
f 979 1052 878
f 743 882 883
f 717 884 385
f 706 375 885
f 1161 885 375
f 885 496 1164
f 887 886 269
f 886 708 888
f 727 887 269
f 887 728 889
f 982 888 708
f 74 75 888
f 889 728 895
f 890 889 516
f 1053 707 265
f 983 74 982
f 386 891 385
f 716 891 263
f 892 601 604
f 984 719 518
f 97 1193 96
f 732 1193 894
f 1131 97 98
f 732 985 730
f 889 895 714
f 737 895 728
f 743 883 896
f 681 1052 883
f 899 897 395
f 987 754 898
f 10 11 898
f 987 898 11
f 754 899 438
f 395 759 899
f 758 759 900
f 1229 759 901
f 988 759 395
f 1228 773 908
f 210 211 902
f 991 902 211
f 1227 903 396
f 902 903 761
f 768 1194 764
f 906 399 550
f 1092 1093 1090
f 1056 998 997
f 550 779 992
f 765 904 906
f 908 907 762
f 768 907 767
f 762 761 1227
f 908 773 774
f 990 988 989
f 911 543 910
f 13 910 12
f 911 777 909
f 989 911 909
f 911 395 897
f 913 912 399
f 915 914 551
f 1054 1055 993
f 995 999 996
f 780 912 914
f 913 914 912
f 915 551 918
f 204 915 203
f 915 916 203
f 784 916 785
f 785 918 917
f 918 920 922
f 915 918 785
f 918 551 920
f 551 921 920
f 1008 923 1009
f 921 551 913
f 922 920 919
f 913 399 1055
f 921 913 1054
f 994 924 922
f 917 922 405
f 923 994 996
f 790 1000 999
f 1009 1001 1008
f 798 799 1028
f 784 925 201
f 786 200 925
f 927 926 16
f 549 926 787
f 17 927 16
f 558 928 556
f 787 928 560
f 556 928 927
f 1004 454 460
f 815 1059 1004
f 411 931 1218
f 570 795 930
f 934 1013 1015
f 942 939 1039
f 786 1005 933
f 799 932 1028
f 1006 933 1005
f 924 1007 1006
f 1011 1012 1001
f 815 1074 1071
f 936 580 420
f 935 804 1198
f 595 936 420
f 804 935 936
f 812 950 952
f 1204 457 455
f 949 938 610
f 811 1195 943
f 1232 592 807
f 940 942 938
f 811 39 1195
f 940 939 942
f 40 1197 1196
f 1207 1209 1212
f 945 947 939
f 1036 1038 1035
f 811 943 940
f 941 1210 945
f 1207 592 1231
f 1067 808 1064
f 941 945 943
f 1214 947 945
f 1015 411 934
f 948 1039 947
f 1214 945 944
f 947 946 948
f 1025 1016 1020
f 937 1230 1035
f 39 949 38
f 938 949 811
f 950 453 951
f 812 610 950
f 1040 453 942
f 951 1230 1031
f 951 810 952
f 952 810 1189
f 1024 1026 1027
f 1022 931 411
f 866 954 670
f 818 954 819
f 624 955 634
f 829 955 622
f 1224 259 376
f 846 956 840
f 1106 1103 715
f 259 847 1041
f 848 1143 958
f 650 967 958
f 960 959 653
f 851 959 850
f 961 960 653
f 962 251 1042
f 655 961 653
f 1199 965 481
f 964 962 960
f 853 251 962
f 1199 963 965
f 1046 1200 1045
f 965 960 961
f 657 964 963
f 481 965 961
f 963 964 965
f 959 966 656
f 967 966 851
f 851 467 968
f 359 967 650
f 969 968 467
f 958 967 968
f 642 969 467
f 958 969 848
f 851 850 970
f 1042 970 850
f 971 1043 1044
f 363 1159 1147
f 973 972 630
f 253 862 972
f 974 973 630
f 633 432 1201
f 832 974 630
f 626 632 1048
f 1051 865 375
f 1049 1079 1041
f 977 976 869
f 875 976 873
f 1082 1044 1081
f 876 873 977
f 379 896 978
f 979 878 981
f 978 896 979
f 896 883 1052
f 1083 1101 1081
f 673 1081 977
f 976 981 260
f 979 981 875
f 888 982 74
f 708 890 982
f 890 707 1053
f 74 983 73
f 1202 518 77
f 238 892 984
f 894 736 985
f 736 730 985
f 679 986 379
f 526 896 986
f 11 543 987
f 897 987 543
f 989 395 911
f 909 990 989
f 990 909 775
f 395 989 988
f 775 773 990
f 901 990 773
f 211 544 991
f 903 991 544
f 547 992 207
f 550 992 906
f 1093 1057 1090
f 1089 1091 998
f 997 996 994
f 923 924 994
f 998 1056 1054
f 997 998 995
f 997 994 919
f 995 1123 999
f 1056 919 921
f 995 996 997
f 993 1089 998
f 1124 998 1091
f 1000 790 929
f 996 999 1058
f 1000 929 1004
f 613 1060 1009
f 1071 1072 1073
f 1028 1007 1010
f 454 1002 611
f 1003 1002 929
f 929 790 1003
f 1003 790 1122
f 460 815 1004
f 815 613 1059
f 786 554 1005
f 405 1005 554
f 405 924 1006
f 923 1008 924
f 1010 1007 1001
f 933 1006 1007
f 1001 1007 1008
f 924 1008 1007
f 1058 923 996
f 613 1206 1059
f 1011 1001 1060
f 1010 798 1028
f 934 1012 1013
f 1012 934 798
f 1001 1012 1010
f 1012 1011 1013
f 1014 1011 1072
f 1013 1011 1014
f 1023 1017 1019
f 1017 1014 953
f 1023 1013 1014
f 411 1015 1022
f 1017 1020 1016
f 1097 1021 1016
f 1020 1017 1024
f 1019 1017 1016
f 1018 1020 1024
f 1037 1077 1036
f 1019 1016 1021
f 1023 1019 1015
f 1024 1017 953
f 1025 1020 1018
f 1016 1098 1097
f 931 1021 1062
f 1015 1019 1022
f 1021 1022 1019
f 1013 1023 1015
f 1017 1023 1014
f 953 1026 1024
f 1027 1018 1024
f 1077 1076 1018
f 1025 946 1098
f 1026 953 1071
f 456 1035 1038
f 1026 1074 1078
f 1035 456 1033
f 932 933 1028
f 1028 933 1007
f 799 934 1029
f 411 1029 934
f 1031 609 810
f 1032 1030 937
f 951 1031 810
f 937 1030 1031
f 1033 1032 937
f 334 335 1203
f 1031 1230 937
f 1204 456 457
f 1040 951 453
f 1018 1027 1077
f 937 1035 1033
f 1036 1035 1034
f 1036 1034 1037
f 1036 1027 1038
f 1034 1040 1075
f 1037 948 1076
f 1078 1027 1026
f 1038 1078 459
f 947 1039 939
f 1075 1039 948
f 942 1039 1075
f 1230 1040 1034
f 1041 847 1049
f 1099 1041 1117
f 962 1042 850
f 659 1042 251
f 1044 1043 859
f 1045 1043 971
f 1100 859 858
f 977 1101 876
f 1147 1046 971
f 362 1045 856
f 1047 1046 252
f 963 1199 1200
f 854 1047 252
f 963 1047 657
f 623 1048 632
f 633 974 1048
f 1050 1049 844
f 1049 975 1079
f 1085 1050 1086
f 1085 864 1084
f 1087 375 706
f 1051 1215 1079
f 878 1052 681
f 896 1052 979
f 73 1053 265
f 890 1053 983
f 1055 1054 913
f 998 1054 993
f 1088 399 904
f 905 993 1055
f 919 1056 997
f 1054 1056 921
f 1057 1089 1090
f 1112 1113 1094
f 1206 1058 1000
f 1009 923 1058
f 1206 613 1009
f 1004 1059 1206
f 1060 613 1073
f 1001 1009 1060
f 1070 1065 1069
f 1021 1063 1062
f 1021 1097 1063
f 1066 1064 808
f 1063 1069 1067
f 1231 1067 1065
f 285 1062 1064
f 1063 1064 1062
f 1061 1070 1069
f 592 1207 595
f 1068 1066 808
f 1066 409 410
f 1064 1063 1067
f 1069 1063 1061
f 1068 808 1232
f 1068 596 568
f 1061 1098 1070
f 1065 1067 1069
f 1214 946 947
f 1214 1208 1070
f 953 1014 1072
f 815 1071 613
f 1073 1072 1011
f 953 1072 1071
f 1060 1073 1011
f 613 1071 1073
f 1078 1074 458
f 1071 1074 1026
f 1034 1075 1037
f 1040 942 1075
f 946 1076 948
f 1018 1076 1025
f 1036 1077 1027
f 1076 1077 1037
f 459 1078 458
f 1027 1078 1038
f 1051 1079 975
f 957 1041 1079
f 1127 1119 1104
f 1126 1080 1117
f 1082 1081 673
f 1083 1081 1044
f 868 1082 673
f 1044 1082 363
f 1100 1044 859
f 1101 980 876
f 865 1051 1102
f 1085 1084 1050
f 1050 1205 1086
f 1085 374 863
f 827 1086 843
f 374 1085 1086
f 1103 706 717
f 1087 706 1103
f 905 1055 1088
f 399 1088 1055
f 1090 1089 993
f 1091 1089 1057
f 993 905 1090
f 1092 1090 905
f 1057 1094 1091
f 1114 1094 557
f 1194 1092 905
f 1093 1092 769
f 769 772 1095
f 1093 563 1112
f 1112 1094 1057
f 557 1121 1114
f 1226 1096 771
f 1093 1095 1116
f 1115 398 787
f 1116 560 563
f 1098 1016 1025
f 1063 1097 1061
f 1070 1098 946
f 1097 1098 1061
f 1117 1041 957
f 1099 1080 1118
f 980 1100 858
f 1044 1100 1083
f 1081 1101 977
f 980 1101 1083
f 975 1084 1102
f 865 1102 1084
f 715 1107 1106
f 1106 1105 1103
f 1107 1111 1104
f 1111 1110 1104
f 1119 1105 1104
f 1215 1105 957
f 1107 715 712
f 1105 1106 1104
f 1108 1107 712
f 1104 1106 1107
f 738 1108 712
f 1109 1108 734
f 735 1109 734
f 1109 736 1110
f 1135 1110 736
f 1117 1080 1099
f 1108 1111 1107
f 1110 1111 1109
f 1093 1112 1057
f 1113 1112 563
f 562 1113 563
f 557 1094 1113
f 561 1122 1114
f 1123 1122 790
f 1116 1115 560
f 398 1115 1096
f 1095 1096 1116
f 1116 1096 1115
f 1119 957 1105
f 1119 1127 1117
f 1118 1080 1129
f 497 1134 100
f 1127 1104 1110
f 1117 957 1119
f 894 1133 736
f 98 1132 1131
f 558 1121 557
f 561 1121 559
f 1003 1122 561
f 790 999 1123
f 995 1124 1123
f 1123 1124 1125
f 998 1124 995
f 1125 1124 1091
f 1094 1125 1091
f 1122 1125 1114
f 1135 1126 1110
f 1130 1126 1120
f 1110 1126 1127
f 1117 1127 1126
f 376 259 1128
f 1099 1128 259
f 1130 1129 1080
f 98 99 1132
f 1126 1130 1080
f 1130 1120 1131
f 1120 1133 1131
f 1131 1133 97
f 99 1129 1132
f 1131 1132 1129
f 1133 1120 1135
f 97 1133 894
f 99 1134 1118
f 1128 1134 376
f 1133 1135 736
f 1126 1135 1120
f 237 1136 230
f 220 1136 82
f 607 1137 236
f 443 1137 314
f 461 1138 246
f 440 1138 312
f 347 350 1139
f 848 1139 350
f 1141 348 645
f 1140 250 1142
f 1141 473 1216
f 348 1141 1140
f 1155 1142 250
f 958 1142 650
f 350 1140 1143
f 1142 1143 1140
f 249 357 1144
f 473 1144 357
f 853 1145 251
f 360 361 1145
f 252 1046 1147
f 364 365 1146
f 971 1044 1148
f 364 1146 1147
f 1044 363 1148
f 363 1147 1148
f 869 1149 377
f 1150 1149 260
f 878 1150 260
f 380 381 1150
f 437 1151 309
f 757 1151 280
f 559 1152 283
f 555 1152 406
f 333 452 1153
f 609 1153 452
f 358 250 1216
f 179 1154 471
f 1156 1155 358
f 650 1155 475
f 1156 358 474
f 475 1156 646
f 156 1157 155
f 854 1157 478
f 856 1158 362
f 482 483 1158
f 1147 1159 364
f 868 1159 363
f 861 1160 464
f 157 1160 488
f 865 1161 375
f 495 496 1161
f 868 1162 484
f 151 1162 499
f 148 1163 147
f 879 1163 503
f 148 1164 149
f 885 1164 514
f 537 1165 62
f 1165 533 1187
f 696 1188 1187
f 801 287 1183
f 1218 570 930
f 285 1167 1218
f 639 1168 340
f 816 1168 628
f 1220 623 638
f 1170 1221 1169
f 1221 1170 128
f 1220 1170 1169
f 658 642 1171
f 467 1171 642
f 870 1173 500
f 170 1172 664
f 980 1173 378
f 1174 1173 858
f 1174 858 859
f 664 1172 1174
f 1176 1175 525
f 677 1175 679
f 1177 525 391
f 1176 526 986
f 391 742 1177
f 526 1177 742
f 286 1178 412
f 695 1178 698
f 710 1179 711
f 516 714 1179
f 438 305 1180
f 1180 305 308
f 284 880 1181
f 553 1181 880
f 1029 1182 571
f 930 1182 411
f 1184 1183 576
f 1185 1166 1186
f 59 1184 576
f 1184 60 1217
f 801 1183 1185
f 1184 1185 1183
f 1187 1186 1166
f 1188 1186 1187
f 1165 1187 1166
f 1187 533 1225
f 698 1188 696
f 286 1186 1188
f 809 1189 606
f 952 1189 608
f 952 1190 812
f 36 812 1190
f 837 1191 103
f 1192 1191 835
f 835 840 1192
f 1192 840 1224
f 96 1193 893
f 97 894 1193
f 769 1194 770
f 1088 1194 905
f 1196 39 40
f 943 1195 941
f 1197 40 41
f 941 1195 1196
f 41 1198 1197
f 1210 1211 1213
f 935 1198 41
f 1198 804 1213
f 855 1199 481
f 1200 1199 856
f 1045 1200 856
f 1200 1046 1047
f 433 1201 432
f 972 1201 253
f 1202 78 242
f 518 1202 984
f 1030 1203 331
f 334 1203 1032
f 1032 1204 334
f 456 1204 1033
f 845 1205 844
f 1086 1205 843
f 1058 1206 1009
f 1004 1206 1000
f 1065 1208 1207
f 1208 1209 1207
f 1070 1208 1065
f 1209 1208 944
f 1210 1209 944
f 1213 1212 1209
f 945 1210 944
f 1211 1210 941
f 1196 1211 941
f 1197 1198 1213
f 936 1212 804
f 1207 1212 595
f 1210 1213 1209
f 1213 1211 1197
f 1208 1214 944
f 946 1214 1070
f 1079 1215 957
f 1087 1215 1051
f 471 1216 473
f 358 1216 1154
f 1165 1217 61
f 1217 1166 1185
f 411 1218 930
f 285 1218 931
f 1220 1219 623
f 1222 1219 1169
f 1170 1220 639
f 1219 1220 1169
f 128 129 1221
f 129 434 1223
f 633 1222 432
f 1169 1221 1222
f 432 1223 434
f 1221 1223 1222
f 956 1224 840
f 1224 376 497
f 699 1225 530
f 1187 1225 696
f 1096 1226 398
f 774 1226 771
f 1229 396 900
f 901 773 1228
f 762 1228 908
f 901 1228 1227
f 901 1227 1229
f 396 1229 1227
f 1040 1230 951
f 1035 1230 1034
f 1067 1231 808
f 1207 1231 1065
f 1232 807 596
f 808 1231 1232
