# pattern_smooth best-fit FEM (phase 3), RMSE 4.554 mm
# params: /home/chaoyu/phd_simulation/FDM/optimisation/pattern_smooth_rm2_10strip_splineonly_e01_sI_fol_result.json
v -0.07938931 -1.09618321 0.00000000
v -0.06955517 -1.07680370 0.01412047
v -0.05751188 -1.05304675 0.03143939
v -0.04661977 -1.03154882 0.04713936
v -0.03646605 -1.01166190 0.06161839
v -0.02437168 -0.99151652 0.07442082
v -0.01157393 -0.97027431 0.08792564
v 0.00051652 -0.95028960 0.10063632
v 0.01362396 -0.92873185 0.11436106
v 0.03109198 -0.90838798 0.12447914
v 0.05066200 -0.88600275 0.13546501
v 0.07088736 -0.86293789 0.14679447
v 0.09043934 -0.84067115 0.15774937
v 0.10987158 -0.82093438 0.16493306
v 0.13101329 -0.80078962 0.17069008
v 0.15302932 -0.77979615 0.17671137
v 0.17248823 -0.76122741 0.18205139
v 0.19965956 -0.75010672 0.17472826
v 0.22693454 -0.73893423 0.16740470
v 0.25382167 -0.72791173 0.16021457
v 0.27916201 -0.72044931 0.14762982
v 0.30545615 -0.71352418 0.13297831
v 0.33097029 -0.70681766 0.11878075
v 0.35575951 -0.70032609 0.10499501
v 0.38458741 -0.69281985 0.08896452
v 0.41358802 -0.68532622 0.07283230
v 0.43799556 -0.68183569 0.05416134
v 0.45762664 -0.67985404 0.03770341
v 0.47899642 -0.67773410 0.01978645
v 0.50259542 -0.67541985 0.00000000
v 0.49039294 -0.64682028 0.00000000
v 0.47705156 -0.61803819 0.00000000
v 0.46219909 -0.58938171 0.00000000
v 0.44711907 -0.56028611 0.00000000
v 0.43466338 -0.53625399 0.00000000
v 0.42199442 -0.50695223 0.00000000
v 0.40936106 -0.47587015 0.00000000
v 0.39826563 -0.44857187 0.00000000
v 0.38812015 -0.41671655 0.00000000
v 0.38008588 -0.38478035 0.00000000
v 0.37192372 -0.35233574 0.00000000
v 0.36496608 -0.31949785 0.00000000
v 0.35986056 -0.29113373 0.00000000
v 0.35446270 -0.26114571 0.00000000
v 0.35120710 -0.23184222 0.00000000
v 0.35003794 -0.20144447 0.00000000
v 0.34889887 -0.17182895 0.00000000
v 0.34956442 -0.13632195 0.00000000
v 0.35236641 -0.10870229 0.00000000
v 0.32938292 -0.12171373 0.00715031
v 0.30041233 -0.13803718 0.01610733
v 0.27387321 -0.15278448 0.02413589
v 0.24999397 -0.16596172 0.03133376
v 0.22462275 -0.17986660 0.03895304
v 0.19741012 -0.19432753 0.04672142
v 0.17079364 -0.20825071 0.05413610
v 0.14226495 -0.22163896 0.06102257
v 0.11608597 -0.23262653 0.06643783
v 0.08905917 -0.24394864 0.07201150
v 0.05523832 -0.25651379 0.07767521
v 0.02171572 -0.26902857 0.08332202
v -0.01050138 -0.27939735 0.08769055
v -0.04240392 -0.28888046 0.09150772
v -0.07195736 -0.29439452 0.09355139
v -0.10524691 -0.29967370 0.09542757
v -0.13969332 -0.30309047 0.09644562
v -0.17097630 -0.30491894 0.09679342
v -0.20181730 -0.30680408 0.09716956
v -0.23054432 -0.30413403 0.09577200
v -0.26324489 -0.29985858 0.09369584
v -0.29716096 -0.29532157 0.09150105
v -0.32907627 -0.28782218 0.08789348
v -0.36532359 -0.27918576 0.08376557
v -0.39871981 -0.26922413 0.07907773
v -0.42814378 -0.25766519 0.07370765
v -0.45560693 -0.24675281 0.06866217
v -0.48383532 -0.23329013 0.06239542
v -0.51164987 -0.21896158 0.05572925
v -0.53467940 -0.20697797 0.05017551
v -0.55652943 -0.19553103 0.04488775
v -0.58624946 -0.17595628 0.03579291
v -0.61378824 -0.15770065 0.02733364
v -0.63980887 -0.14039143 0.01932692
v -0.66789464 -0.12054164 0.01008896
v -0.69740458 -0.09893130 0.00000000
v -0.68348985 -0.12369243 0.00954570
v -0.66800026 -0.15125854 0.02016668
v -0.65639978 -0.17190613 0.02811341
v -0.64480705 -0.19283967 0.03607811
v -0.63417167 -0.21682951 0.04390104
v -0.62227798 -0.24364896 0.05262933
v -0.61030695 -0.27063541 0.06139106
v -0.59865461 -0.29773178 0.06992166
v -0.59009654 -0.32706946 0.07644878
v -0.58151513 -0.35650138 0.08297203
v -0.57236377 -0.38791995 0.08991058
v -0.56355091 -0.41967235 0.09649902
v -0.55751307 -0.45482539 0.10024582
v -0.55176634 -0.48837429 0.10381054
v -0.54635843 -0.52001300 0.10717003
v -0.54113891 -0.55061169 0.11042333
v -0.54075396 -0.58424031 0.10917470
v -0.54063182 -0.61643683 0.10776905
v -0.54049943 -0.64872158 0.10638098
v -0.54035606 -0.68060325 0.10503540
v -0.54457940 -0.70993703 0.10070531
v -0.55345176 -0.73989930 0.09304560
v -0.56210051 -0.76914465 0.08559380
v -0.57015957 -0.79639994 0.07866618
v -0.57838677 -0.82420067 0.07161327
v -0.58724861 -0.85409528 0.06404181
v -0.59468433 -0.87676444 0.05782221
v -0.60651852 -0.89888656 0.04860252
v -0.61878446 -0.92176820 0.03907158
v -0.63098050 -0.94446887 0.02961759
v -0.64272644 -0.96628831 0.02053016
v -0.65591236 -0.99074319 0.01034370
v -0.66931298 -1.01557252 0.00000000
v -0.65378048 -1.00138767 0.00834649
v -0.63422555 -0.98356138 0.01885568
v -0.61528969 -0.96636566 0.02903792
v -0.59263678 -0.94590562 0.04123589
v -0.56919586 -0.92487356 0.05389811
v -0.54655851 -0.90508332 0.06593961
v -0.51794064 -0.88672725 0.07709002
v -0.49287646 -0.87074053 0.08694981
v -0.46700847 -0.85482641 0.09697917
v -0.43464013 -0.85047922 0.10227296
v -0.39716221 -0.84538594 0.10854978
v -0.36447428 -0.84964083 0.10919465
v -0.33072534 -0.85560842 0.10904474
v -0.30610567 -0.86935666 0.10407643
v -0.27885124 -0.88464245 0.09861537
v -0.25177852 -0.89976767 0.09329152
v -0.23081210 -0.91810679 0.08519722
v -0.20888550 -0.93790705 0.07643245
v -0.18626879 -0.95849511 0.06737600
v -0.16463076 -0.97977646 0.05776415
v -0.14584139 -1.00416198 0.04563332
v -0.12739054 -1.02877172 0.03343466
v -0.11010840 -1.05251902 0.02167677
v -0.09307249 -1.07658865 0.00973660
v -0.12082979 -0.82673710 0.10467462
v -0.32321176 -0.31634121 0.09927369
v -0.32152882 -0.34625412 0.10995765
v -0.32136044 -0.37684540 0.11961882
v -0.32129924 -0.40778492 0.12818225
v -0.32135890 -0.43884979 0.13556359
v -0.32128582 -0.46979936 0.14158136
v -0.32106824 -0.50101320 0.14651074
v -0.32080217 -0.53224417 0.15023074
v -0.32046133 -0.56303757 0.15260892
v -0.32009296 -0.59409371 0.15384531
v -0.31968052 -0.62514883 0.15385094
v -0.31924437 -0.65629747 0.15260199
v -0.31879404 -0.68750454 0.15013917
v -0.31830899 -0.71813717 0.14646809
v -0.31782825 -0.74929929 0.14144411
v -0.31752401 -0.78070969 0.13498414
v -0.31722566 -0.81174719 0.12737658
v -0.31496644 -0.84284234 0.11856729
v -0.13199903 -0.33070022 0.11218354
v -0.12999259 -0.36240686 0.11969818
v -0.12839923 -0.39316251 0.12851384
v -0.12572687 -0.42352785 0.13550124
v -0.12288954 -0.45396475 0.14136752
v -0.12054570 -0.48470278 0.14577331
v -0.11937407 -0.51574495 0.14877445
v -0.11965222 -0.54672380 0.15010318
v -0.12114606 -0.57787853 0.15001647
v -0.12359295 -0.60912823 0.14853164
v -0.12623279 -0.64017461 0.14578393
v -0.12768940 -0.67112992 0.14173981
v -0.12787533 -0.70230615 0.13644686
v -0.12671681 -0.73313204 0.13001634
v -0.12402001 -0.76401485 0.12253153
v -0.12161088 -0.79541460 0.11412666
v -0.11406295 -0.85726396 0.09634642
v -0.10779810 -0.88784967 0.08686066
v -0.10228356 -0.91925462 0.08120659
v -0.09592883 -0.95037945 0.07294923
v -0.08947762 -0.98314789 0.06377600
v -0.08217050 -1.01390052 0.04655903
v -0.08761228 -1.04768505 0.04531702
v -0.08255933 -1.06436436 0.01467218
v 0.33165410 -0.13203383 0.00759549
v 0.31066913 -0.15569085 0.01661577
v 0.28932487 -0.17825806 0.02910053
v 0.26771860 -0.19953120 0.04355792
v 0.24558672 -0.22079874 0.05930258
v 0.22386567 -0.24218334 0.07576255
v 0.20310005 -0.26443361 0.09218374
v 0.18345319 -0.28834576 0.10854753
v 0.16495929 -0.31296265 0.12418349
v 0.14757164 -0.33873679 0.13893101
v 0.13012579 -0.36451077 0.15206306
v 0.11213082 -0.38997183 0.16296898
v 0.09445908 -0.41578814 0.17195031
v 0.07759298 -0.44227126 0.17905677
v 0.06028986 -0.46843664 0.18380720
v 0.04222042 -0.49352141 0.18565919
v 0.02331249 -0.51797256 0.18492496
v 0.00459179 -0.54257192 0.18213341
v -0.01307322 -0.56797629 0.17820035
v -0.02946278 -0.59446797 0.17333909
v -0.04532341 -0.62148430 0.16714972
v -0.06045442 -0.64898040 0.16001695
v -0.07461150 -0.67706780 0.15188899
v -0.08646879 -0.70657031 0.14365706
v -0.09473672 -0.73724826 0.13505226
v -0.10163809 -0.76796818 0.12593981
v -0.10932612 -0.79839201 0.11555352
v -0.34287618 -0.83086784 0.12186783
v 0.44504824 -0.64333007 0.04683857
v 0.33523177 -0.15407993 0.00745978
v 0.46688109 -0.65598469 0.02689173
v -0.61150537 -0.93984809 0.03740507
v -0.59413928 -0.92184799 0.04772360
v -0.55972366 -0.87485459 0.07126646
v -0.63284586 -0.17001683 0.03536445
v -0.56644624 -0.24121688 0.06154059
v -0.06417345 -1.02293375 0.06542237
v -0.04970217 -0.96430828 0.07905279
v 0.33196303 -0.65969775 0.14925214
v 0.42367680 -0.65968939 0.06795466
v 0.32384326 -0.17602014 0.01531661
v 0.46453358 -0.63448128 0.02323528
v 0.45464098 -0.61154571 0.02565570
v -0.57738463 -0.89874207 0.05918999
v -0.61936320 -0.19329667 0.04551612
v -0.55504501 -0.22026944 0.05444279
v -0.06126864 -0.99108242 0.06400334
v -0.03375385 -0.97589228 0.08882457
v -0.02405493 -0.94747343 0.09334051
v 0.34041737 -0.68482902 0.12993084
v 0.42745931 -0.58747070 0.05405218
v -0.58641668 -0.20742536 0.04883111
v -0.53134851 -0.24753757 0.06254355
v -0.04623975 -1.00010864 0.07827562
v 0.36909274 -0.66214217 0.11540784
v 0.30423123 -0.68193777 0.16118846
v -0.52946228 -0.22733052 0.05620020
v 0.35086222 -0.66825901 0.12915079
v 0.35026977 -0.63982579 0.13991285
v 0.32126526 -0.69364372 0.13998767
v -0.52232630 -0.82452051 0.09340421
v -0.48562032 -0.70219427 0.12846756
v -0.27089557 -0.84555834 0.11572082
v -0.14359210 -0.94232878 0.06796513
v -0.17366760 -0.85593135 0.10401141
v -0.25941868 -0.73503367 0.14191884
v -0.26104089 -0.64153640 0.15259204
v -0.37698029 -0.76393328 0.13500616
v -0.09157881 -0.62782749 0.15092354
v -0.10929958 -0.71733274 0.13498206
v -0.10572901 -0.68687779 0.14108015
v -0.11241093 -0.74788916 0.12817020
v -0.11490308 -1.00695450 0.04080430
v -0.48462028 -0.52524138 0.12971738
v -0.26300392 -0.48566989 0.14565161
v -0.06796458 -0.40228112 0.13239647
v -0.26342864 -0.39206354 0.12599040
v -0.37931680 -0.39308525 0.12237518
v -0.08212291 -0.34357832 0.11247375
v -0.35313745 -0.30758978 0.09539791
v -0.28926259 -0.32943129 0.10498464
v -0.31605584 -0.29976092 0.09297578
v -0.30308702 -0.31486488 0.09918808
v -0.46181232 -0.30366093 0.09017888
v -0.18498274 -0.35698733 0.11770639
v -0.15471497 -0.32304464 0.10539877
v -0.18181444 -0.33002258 0.10764479
v -0.12119579 -0.31232798 0.10408960
v -0.10589520 -0.33406644 0.10685317
v -0.10342699 -0.35971972 0.11712839
v -0.08386276 -0.31749038 0.10216021
v -0.07653624 -0.37332544 0.12281721
v -0.09707421 -1.05846507 0.03157251
v -0.10484730 -1.03381643 0.02901947
v -0.05512686 -0.85905230 0.13350387
v -0.02432554 -0.71385094 0.17970942
v -0.07156711 -0.56409379 0.15636884
v 0.19564346 -0.69866293 0.22575498
v -0.03258576 -0.49211549 0.15878394
v 0.18691891 -0.38688256 0.16421625
v 0.07378432 -0.34185920 0.13292326
v 0.11024227 -0.29401438 0.11065091
v 0.16413680 -0.25234285 0.08741010
v 0.19709147 -0.22393985 0.06780754
v 0.25824875 -0.29191306 0.09178368
v 0.24310871 -0.19620834 0.04688585
v 0.22037853 -0.21065858 0.05736827
v 0.26929116 -0.17286765 0.03215831
v 0.29150271 -0.15921470 0.02254505
v 0.30758323 -0.21826809 0.03402156
v -0.34952415 -0.79584165 0.13021824
v -0.55890283 -0.84609188 0.07812217
v -0.59534441 -0.24545748 0.06367893
v -0.06040711 -0.92422025 0.10683834
v -0.07579105 -0.96312495 0.08183642
v -0.05707540 -0.94718461 0.09646955
v -0.07859878 -0.93893723 0.09047582
v -0.03523145 -0.93046093 0.11178277
v -0.01039154 -0.93164598 0.11301681
v -0.03525137 -0.89170328 0.13111067
v 0.00153406 -0.90408402 0.13145134
v -0.04245077 -0.91173307 0.11974543
v -0.01967313 -0.91293673 0.12369189
v -0.06609677 -0.89354598 0.11548731
v -0.55951805 -0.89307852 0.06633360
v -0.53794369 -0.88551489 0.07403608
v -0.52487267 -0.85614914 0.08430004
v 0.41804766 -0.55823083 0.05701511
v 0.41082240 -0.62236054 0.08075383
v -0.60959236 -0.21790325 0.05423648
v -0.54412608 -0.29994631 0.07716608
v 0.36832336 -0.68313734 0.10705309
v 0.39434612 -0.66772014 0.09172049
v 0.25550233 -0.68340415 0.20020151
v 0.29030871 -0.70168580 0.15902281
v 0.28041303 -0.67960045 0.18382739
v 0.26704778 -0.70657587 0.17521456
v 0.29327856 -0.63852078 0.19760794
v 0.23119798 -0.70840177 0.19766581
v 0.29314636 -0.66190888 0.18433238
v 0.31122996 -0.65214582 0.17339184
v 0.25738229 -0.64516876 0.22413861
v 0.32691913 -0.63521695 0.16682600
v 0.26365090 -0.66551415 0.20619213
v 0.23515539 -0.66116388 0.23059707
v 0.34297996 -0.59189370 0.16456743
v 0.34014474 -0.61593705 0.16040138
v 0.37207697 -0.61674135 0.12312419
v 0.30055060 -0.59495378 0.20682360
v 0.31893838 -0.61278181 0.18469288
v 0.29793693 -0.61703623 0.20308914
v 0.25869354 -0.59417265 0.24104935
v 0.27211981 -0.61976988 0.22401622
v -0.55099383 -0.81765301 0.08757724
v -0.49522996 -0.83961331 0.09839855
v -0.50365741 -0.76992821 0.11203939
v -0.37725832 -0.67100784 0.14941191
v -0.51589146 -0.69818848 0.11841364
v -0.29203098 -0.82643132 0.12264188
v -0.29303527 -0.85256141 0.11482724
v -0.27650763 -0.86652658 0.10838551
v -0.25528283 -0.87797974 0.10368497
v -0.21622868 -0.88598213 0.09961035
v -0.23717486 -0.88748482 0.09952741
v -0.23146163 -0.85786111 0.11005742
v -0.16100757 -0.95844123 0.06613983
v -0.13399500 -0.98123978 0.05253229
v -0.17636516 -0.92617994 0.08158507
v -0.14244036 -0.96193849 0.06009179
v -0.11698866 -0.96159060 0.05789304
v -0.17621683 -0.94604609 0.07332475
v -0.13409860 -0.90841309 0.07837027
v -0.14387845 -0.84803328 0.10066345
v -0.18084941 -0.78303030 0.12498898
v -0.28343104 -0.70387344 0.14767955
v -0.29103915 -0.73461837 0.14347154
v -0.18326588 -0.61826984 0.15032920
v -0.26196908 -0.57938923 0.15357151
v -0.28495401 -0.61031946 0.15407636
v -0.29252270 -0.64126636 0.15336973
v -0.35366162 -0.73313897 0.14301144
v -0.11196144 -0.62591274 0.14807678
v -0.10388769 -0.64823479 0.14671765
v -0.09986343 -0.60549741 0.15065511
v -0.08213105 -0.64698146 0.15191809
v -0.07055211 -0.60789019 0.15681907
v -0.12856829 -1.01448609 0.03929601
v -0.09881133 -1.00048059 0.04906419
v -0.37826063 -0.57825963 0.15083670
v -0.37896417 -0.48562472 0.14162096
v -0.51581228 -0.53093650 0.11952858
v -0.28613328 -0.51676826 0.14928800
v -0.17848197 -0.53090294 0.15020882
v -0.18336255 -0.44435920 0.14007204
v -0.28665141 -0.45479435 0.13984974
v -0.29445500 -0.48563006 0.14505977
v -0.09942268 -0.40576699 0.13126262
v 0.02043615 -0.42039895 0.15499552
v -0.29484972 -0.39235852 0.12494096
v -0.35613073 -0.42322719 0.13073865
v -0.34834729 -0.39220572 0.12321404
v -0.33587719 -0.30366759 0.09411940
v -0.34476005 -0.33267596 0.10477119
v -0.45123054 -0.27580937 0.08119784
v -0.22096663 -0.34139640 0.11092748
v -0.15952726 -0.37866985 0.12562743
v -0.04573277 -0.32704118 0.10854198
v -0.09945829 -1.02001470 0.03580896
v -0.08657011 -0.86755391 0.11014365
v 0.01912207 -0.83980924 0.16674069
v -0.05044526 -0.79860189 0.15167170
v -0.05430394 -0.70226440 0.16142997
v 0.08515318 -0.77635931 0.20295050
v 0.01389432 -0.63890336 0.20151366
v -0.09867103 -0.56301158 0.15160141
v -0.10057437 -0.58424143 0.15121792
v -0.08342323 -0.52822500 0.15248388
v -0.09925201 -0.54211514 0.15099001
v -0.04217866 -0.56773772 0.16534019
v 0.07895606 -0.54394859 0.21517971
v 0.17725922 -0.73137708 0.21125069
v -0.00735384 -0.51228872 0.17073937
v -0.07453768 -0.46529280 0.14590765
v 0.18557865 -0.34703454 0.14187496
v 0.16120757 -0.36796121 0.15520499
v 0.15083383 -0.43869874 0.19170973
v 0.09913052 -0.36049665 0.14641450
v 0.13513196 -0.31083038 0.12258737
v 0.11358260 -0.26238941 0.09010727
v 0.13781879 -0.24587783 0.08115726
v 0.18120946 -0.26634389 0.09552180
v 0.18990401 -0.24524082 0.08203732
v 0.15615202 -0.27950985 0.10431005
v 0.18866124 -0.20831418 0.05732401
v 0.31063280 -0.31325139 0.06947991
v 0.25944514 -0.25510405 0.07231380
v 0.22039102 -0.29789056 0.10787363
v 0.33246687 -0.21694822 0.01726284
v 0.32882912 -0.19629799 0.01631634
v 0.32284646 -0.24869896 0.03303545
v 0.29081219 -0.20138237 0.03647725
v 0.27713287 -0.22961228 0.05348070
v -0.32942561 -0.79614254 0.13113503
v -0.33979514 -0.77543352 0.13560440
v -0.36079315 -0.77754332 0.13384451
v -0.35316229 -0.75615234 0.13890629
v -0.39445322 -0.80076201 0.12286963
v -0.37238961 -0.79684335 0.12807423
v -0.37859204 -0.82461589 0.12028302
v -0.57306809 -0.27473799 0.07238906
v -0.58459018 -0.22820036 0.05683708
v -0.05014790 -0.87878914 0.12907553
v -0.02029867 -0.85806942 0.15028866
v -0.08949956 -0.90103022 0.09764894
v -0.51035269 -0.86898819 0.08262575
v -0.54494839 -0.86092522 0.07912334
v 0.43402340 -0.56927369 0.03490595
v 0.42431649 -0.63889849 0.06744696
v 0.39908044 -0.64390769 0.09168159
v -0.57233827 -0.30546994 0.08021285
v 0.23799701 -0.72500762 0.17829122
v 0.21556327 -0.72538978 0.19290159
v 0.23334531 -0.68566979 0.21543709
v 0.20717961 -0.66963341 0.23934483
v 0.21626603 -0.69655154 0.21862585
v 0.37222868 -0.63977883 0.11878061
v 0.38820041 -0.58458658 0.10612439
v 0.35349333 -0.48001879 0.12305921
v 0.22010414 -0.61476115 0.26046455
v 0.27977173 -0.59950059 0.22346463
v 0.27994181 -0.55628018 0.22534156
v 0.27348095 -0.57825428 0.23303701
v 0.23715603 -0.55765231 0.24949014
v 0.25389958 -0.57254054 0.24615627
v 0.22655353 -0.58593228 0.25967196
v -0.54066854 -0.83592311 0.08654086
v -0.48616551 -0.85576431 0.09732273
v -0.53388256 -0.76195193 0.10417547
v -0.34612282 -0.67114267 0.15097682
v -0.50596056 -0.73372882 0.11777787
v -0.49456259 -0.65709014 0.12851033
v -0.24565569 -0.79574027 0.12847357
v -0.14660596 -0.99120000 0.05047945
v -0.20279206 -0.91331398 0.08834112
v -0.11544004 -0.90485454 0.07889355
v -0.12895468 -0.88752916 0.08481997
v -0.12041888 -0.92603405 0.07026788
v -0.16334170 -0.88984773 0.09086890
v -0.12652643 -0.84374461 0.09959992
v -0.15501094 -0.81075195 0.11396725
v -0.15967679 -0.75153534 0.12951796
v -0.30430320 -0.70345635 0.14828532
v -0.29426427 -0.67923180 0.15071658
v -0.30888245 -0.73422096 0.14395248
v -0.29102856 -0.76568768 0.13776567
v -0.18626963 -0.68590647 0.14405548
v -0.16330010 -0.65330897 0.14623534
v -0.15203025 -0.62174158 0.14850995
v -0.29336440 -0.57903379 0.15377176
v -0.30573840 -0.61002099 0.15419133
v -0.31025865 -0.64105391 0.15340508
v -0.33245158 -0.73337713 0.14384635
v -0.34317654 -0.70889271 0.14712676
v -0.10863257 -0.66716958 0.14369850
v -0.06958165 -0.62929550 0.15689445
v -0.05027345 -0.60019079 0.16440269
v -0.06753516 -0.58598783 0.15785821
v -0.11392209 -0.98499515 0.04919521
v -0.34726347 -0.57800001 0.15256112
v -0.35579949 -0.51641490 0.14716394
v -0.34806285 -0.48531200 0.14325043
v -0.53424483 -0.53413794 0.11274302
v -0.30685222 -0.51676883 0.14891335
v -0.29625816 -0.54127674 0.15153614
v -0.14702327 -0.53105545 0.14962868
v -0.15689142 -0.47220906 0.14440423
v -0.30733860 -0.45451346 0.13922134
v -0.29712272 -0.43012643 0.13437855
v -0.31206673 -0.48554218 0.14447765
v -0.11755695 -0.40767111 0.13171436
v -0.09768606 -0.43554769 0.13820651
v -0.08481109 -0.39164927 0.12788125
v -0.10671775 -0.38405676 0.12499665
v 0.02343622 -0.45911707 0.16823797
v 0.05713192 -0.40869628 0.16012429
v -0.31230119 -0.39239744 0.12439944
v -0.29539146 -0.36129262 0.11572212
v -0.33529995 -0.42326106 0.13154853
v -0.34569781 -0.44745419 0.13647217
v -0.33048418 -0.39215909 0.12374624
v -0.39876462 -0.33657561 0.10493405
v -0.34671843 -0.36175720 0.11436957
v -0.48216799 -0.26519554 0.07428873
v -0.19969087 -0.34180836 0.11168087
v -0.21186625 -0.36783455 0.12039383
v -0.21803694 -0.32077799 0.10296070
v -0.24699831 -0.32839703 0.10574191
v -0.14034873 -0.37817772 0.12485387
v -0.15080842 -0.35991681 0.12039748
v -0.14908249 -0.39673928 0.13002887
v -0.18674684 -0.40611151 0.13195164
v -0.14918512 -0.34059507 0.11462477
v -0.05451277 -0.30668455 0.09923436
v -0.02946995 -0.30869715 0.10223130
v -0.00108737 -0.34820711 0.12320599
v -0.02052491 -0.33198858 0.11358557
v -0.03981711 -0.36411198 0.12350076
v 0.01457894 -0.31050907 0.10761666
v -0.02185527 -0.35289690 0.12203584
v -0.00980160 -0.39185234 0.13812762
v -0.00737867 -0.36955856 0.13062324
v -0.00732018 -0.31413495 0.10693955
v 0.02558049 -0.38426979 0.14281793
v -0.06666237 -0.32905187 0.10758844
v -0.05986023 -0.35131351 0.11640870
v -0.10252358 -0.87150385 0.09568430
v -0.08436733 -0.82774317 0.12239639
v 0.04264432 -0.86104655 0.15792831
v -0.08061454 -0.79074627 0.13323309
v -0.07173782 -0.69555943 0.15234899
v -0.06702871 -0.72809883 0.15161795
v -0.04550200 -0.67417314 0.16782044
v 0.07878913 -0.81268596 0.18441377
v 0.10522371 -0.79810133 0.18894055
v -0.01338075 -0.62262606 0.18479120
v 0.03995475 -0.58853213 0.20855320
v -0.09302699 -0.49887105 0.14851349
v -0.05384550 -0.53858519 0.15912902
v 0.05430072 -0.52382338 0.19959628
v 0.18362196 -0.74782525 0.19401808
v 0.15866109 -0.74832011 0.20462640
v 0.13279391 -0.70562699 0.23282431
v 0.15201484 -0.72530097 0.22322955
v 0.17051988 -0.70650526 0.22952038
v 0.11348599 -0.74440039 0.21762687
v 0.17361409 -0.67119732 0.24527044
v 0.12935713 -0.72870604 0.22396051
v 0.09537522 -0.70799396 0.22899900
v 0.00661467 -0.52399315 0.17925673
v 0.01186143 -0.48831299 0.17257788
v -0.10076781 -0.46749097 0.14395735
v 0.16816903 -0.33436552 0.13614576
v 0.19082080 -0.32019818 0.12614305
v 0.14647781 -0.35724042 0.14903686
v 0.14316079 -0.39411215 0.16839129
v 0.11461699 -0.44930033 0.19103104
v 0.11363512 -0.37140822 0.15400190
v 0.11729793 -0.33597612 0.13566665
v 0.08155074 -0.38677310 0.15622988
v 0.10665812 -0.24712830 0.07726280
v 0.09324777 -0.26174516 0.08673124
v 0.17126981 -0.22975752 0.07266935
v 0.13597138 -0.26808090 0.09629452
v 0.13705584 -0.28943750 0.10990157
v 0.34111428 -0.30817426 0.03663431
v 0.24449809 -0.24067513 0.07013195
v 0.23581335 -0.26371132 0.08489591
v 0.25312973 -0.27329435 0.08426524
v 0.28865502 -0.27533340 0.06793039
v 0.20400849 -0.28504123 0.10392206
v 0.34196064 -0.24743528 0.01388945
v 0.33492544 -0.26762077 0.02768764
v 0.31051214 -0.26807906 0.04990358
v 0.29671629 -0.24640948 0.05049016
v 0.30664768 -0.29051633 0.06253237
v 0.28300743 -0.29987604 0.08301983
v 0.25707233 -0.34187285 0.11952035
v 0.26438162 -0.31725662 0.10222109
v 0.24162399 -0.30888266 0.10720410
v 0.29044676 -0.33916833 0.09886871
v 0.21872684 -0.32621904 0.12411153
v 0.28447860 -0.31990228 0.09225350
v 0.26340081 -0.21722555 0.05275883
v -0.36193467 -0.83210300 0.11930861
v -0.57783148 -0.25571635 0.06662307
v -0.55445637 -0.26218064 0.06753494
v -0.59282309 -0.27799776 0.07051706
v -0.56161725 -0.33463736 0.08700582
v -0.56167280 -0.29095327 0.07552504
v 0.40894367 -0.57740507 0.07785680
v 0.39168335 -0.56146818 0.09969911
v 0.40738727 -0.59991296 0.08363756
v 0.40222280 -0.53025028 0.06893479
v 0.35960552 -0.57167544 0.14580000
v 0.38456126 -0.46841817 0.06348651
v 0.21524255 -0.64225826 0.25053099
v 0.24532335 -0.61900467 0.24456411
v 0.17965378 -0.55404166 0.24912223
v -0.54243408 -0.78971456 0.09616348
v -0.32824359 -0.67149362 0.15144705
v -0.34591668 -0.64058678 0.15281949
v -0.50285009 -0.71352905 0.12141949
v -0.52476365 -0.71917421 0.11297108
v -0.48239876 -0.72639427 0.12675035
v -0.52744951 -0.74124762 0.10974481
v -0.48827800 -0.75078727 0.12128719
v -0.43780571 -0.70736050 0.13933204
v -0.45937126 -0.78965083 0.12185170
v -0.46243690 -0.71117101 0.13432784
v -0.47929888 -0.77433721 0.12127267
v -0.45080185 -0.74699777 0.13158148
v -0.45538694 -0.67075335 0.13911062
v -0.49613673 -0.80260734 0.10705847
v -0.44768874 -0.72621040 0.13540334
v -0.41052663 -0.74183504 0.13706209
v -0.47034478 -0.74252106 0.12861849
v -0.45780222 -0.76770588 0.12671970
v -0.42377790 -0.78102481 0.12683253
v -0.46710194 -0.68960042 0.13494672
v -0.47733613 -0.67056776 0.13341487
v -0.46643809 -0.64001930 0.13784165
v -0.49957029 -0.68039216 0.12566234
v -0.47934960 -0.79420316 0.11760367
v -0.47650849 -0.82159024 0.11317562
v -0.51947629 -0.66428650 0.11754692
v -0.51410348 -0.63595907 0.12074972
v -0.26477088 -0.81742114 0.12400399
v -0.22081480 -0.90349493 0.09251899
v -0.12579191 -0.94398094 0.06309579
v -0.18257302 -0.90302791 0.09073178
v -0.13455481 -0.81098558 0.11106885
v -0.14512566 -0.78826060 0.11884245
v -0.16382613 -0.79298807 0.12008852
v -0.15935677 -0.77267413 0.12462224
v -0.18743658 -0.81566213 0.11766583
v -0.13897875 -0.74983923 0.12768928
v -0.15148262 -0.72722115 0.13381736
v -0.19227346 -0.72665312 0.13820281
v -0.17194134 -0.73367358 0.13471959
v -0.16931870 -0.70688347 0.13939412
v -0.19047425 -0.75586563 0.13237310
v -0.25804876 -0.67829741 0.14962765
v -0.29122058 -0.79625750 0.13083436
v -0.27500740 -0.75082355 0.13993728
v -0.26587774 -0.77693468 0.13415277
v -0.14186656 -0.65451797 0.14492968
v -0.15367766 -0.67994143 0.14232405
v -0.13414857 -0.62353113 0.14773537
v -0.14839059 -0.59137155 0.15004388
v -0.31110153 -0.57886074 0.15356133
v -0.37929716 -0.70713346 0.14534878
v -0.08937501 -0.66445230 0.14849052
v -0.32946980 -0.57822348 0.15318657
v -0.34695048 -0.54743105 0.15074974
v -0.34629112 -0.60951152 0.15335323
v -0.33504527 -0.51649289 0.14807873
v -0.33033368 -0.48525566 0.14386522
v -0.26010471 -0.54269808 0.15186166
v -0.12893886 -0.53100227 0.14966408
v -0.14559807 -0.50136313 0.14760575
v -0.13593734 -0.47042570 0.14397147
v -0.14823764 -0.44773750 0.14061564
v -0.16667300 -0.45494217 0.14193603
v -0.16459243 -0.43347546 0.13815685
v -0.19538951 -0.48169734 0.14578964
v -0.26093085 -0.42851990 0.13513846
v -0.08232826 -0.41938076 0.13542503
v -0.07442096 -0.44137023 0.14142001
v -0.03727462 -0.45379205 0.14983681
v -0.05772014 -0.45357407 0.14590873
v -0.05279247 -0.47778369 0.15120874
v -0.04762835 -0.42447599 0.14078719
v -0.07330289 -0.48763435 0.14960324
v 0.03994759 -0.47195479 0.17821180
v 0.04532177 -0.44656822 0.17140767
v 0.02711458 -0.43948591 0.16322633
v 0.04282200 -0.42492060 0.16269836
v -0.00622102 -0.44078401 0.15410001
v 0.03587811 -0.40368521 0.15284147
v 0.05125934 -0.38271582 0.14788954
v 0.03620652 -0.34841239 0.12957653
v 0.03743346 -0.36815452 0.13862593
v 0.05960215 -0.36044802 0.13947530
v 0.01729755 -0.35963872 0.13124202
v 0.07450448 -0.42100042 0.16968726
v -0.31276278 -0.36149495 0.11516094
v -0.27929436 -0.37636598 0.12091439
v -0.24831645 -0.36168655 0.11740855
v -0.27175463 -0.35245622 0.11361293
v -0.30235114 -0.34354919 0.10961790
v -0.38151855 -0.44911529 0.13509249
v -0.37195139 -0.32775121 0.10253392
v -0.42144582 -0.30320054 0.09252400
v -0.36387307 -0.37637232 0.11830120
v -0.36955504 -0.35213814 0.11080804
v -0.38792465 -0.36959612 0.11552550
v -0.42856520 -0.39860377 0.12076548
v -0.40450868 -0.38948619 0.12021513
v -0.41797556 -0.36138260 0.11187087
v -0.40558375 -0.42411047 0.12832391
v -0.39457095 -0.40685859 0.12513231
v -0.38291127 -0.42625543 0.13028549
v -0.47147458 -0.28427168 0.08216042
v -0.50822569 -0.29032086 0.08470371
v -0.48627790 -0.30291719 0.08866336
v -0.51662059 -0.33133505 0.09380009
v -0.50574686 -0.31245761 0.09108018
v -0.52728023 -0.31299687 0.08541996
v -0.47946939 -0.33951412 0.10040467
v -0.54709597 -0.32045076 0.08239852
v -0.53737662 -0.34305039 0.08877416
v -0.47437559 -0.31985320 0.09472078
v -0.44445791 -0.33744044 0.10292614
v -0.55603854 -0.36098523 0.09223384
v -0.50622639 -0.37415331 0.10500092
v -0.51768089 -0.35406653 0.09825021
v -0.53245277 -0.37568905 0.09692844
v -0.49495522 -0.35525388 0.10263822
v -0.46639460 -0.38447960 0.11326690
v -0.48475720 -0.37380052 0.10841792
v -0.49375640 -0.41043497 0.11429257
v -0.46459326 -0.35948883 0.10737289
v -0.44188910 -0.37381814 0.11341094
v -0.46408762 -0.26243313 0.07523850
v -0.24796348 -0.31057921 0.09846162
v -0.26799974 -0.32085121 0.10230993
v -0.19054962 -0.38141122 0.12520093
v -0.21672823 -0.39806250 0.12904875
v -0.16915457 -0.34469858 0.11407012
v -0.05463289 -0.38261350 0.12777089
v -0.03179657 -0.38510569 0.13197957
v -0.02737088 -0.40961545 0.14034312
v -0.04681289 -0.40181578 0.13472936
v -0.02645119 -0.43189923 0.14676327
v -0.00354553 -0.41556757 0.14725365
v 0.01173356 -0.40063341 0.14592086
v -0.10255073 -0.81951980 0.11254759
v -0.10101780 -0.84138339 0.10619063
v 0.01023709 -0.87210058 0.14999053
v -0.07019503 -0.80976351 0.13618947
v -0.05925779 -0.83328192 0.13828274
v -0.07673386 -0.84742596 0.12297572
v -0.03702072 -0.84181823 0.14811654
v -0.00926567 -0.82901484 0.16478187
v -0.04505569 -0.72266095 0.16590328
v -0.04764101 -0.76070464 0.15999659
v -0.02457622 -0.74256195 0.17699719
v -0.03354583 -0.69337698 0.17490964
v 0.00990900 -0.68593949 0.20068830
v -0.01523325 -0.66887557 0.18626447
v -0.01069550 -0.69533587 0.18862953
v 0.01433307 -0.72774745 0.19952846
v 0.00703293 -0.70738282 0.19812654
v 0.04947043 -0.70408161 0.21758510
v 0.02867757 -0.71125656 0.20818034
v 0.05218640 -0.74724450 0.20915780
v 0.03634156 -0.73202220 0.20818942
v 0.01648723 -0.77043703 0.19188616
v 0.03139990 -0.75393273 0.20153974
v 0.04978630 -0.78763615 0.19542002
v 0.09191731 -0.82428906 0.17171397
v 0.06825530 -0.83677573 0.17018054
v 0.08689434 -0.79524192 0.19310523
v -0.02924646 -0.61305893 0.17519433
v 0.00055640 -0.59545169 0.18940061
v -0.09968392 -0.51729752 0.14959411
v -0.07286593 -0.54437558 0.15549319
v -0.02393424 -0.54033983 0.16922283
v 0.03997581 -0.51190794 0.19020726
v 0.03496736 -0.54794296 0.19750657
v 0.07353869 -0.49851937 0.19884804
v 0.11209031 -0.77219265 0.20336634
v 0.19117042 -0.67923876 0.23927473
v 0.18944375 -0.65712751 0.24974642
v 0.15700752 -0.63003707 0.25177344
v -0.01015701 -0.48969981 0.16531066
v -0.00097026 -0.46593432 0.16262422
v -0.02365014 -0.47166523 0.15712616
v 0.12862574 -0.38297756 0.16159877
v 0.12470320 -0.41890827 0.17891524
v 0.09750863 -0.43720693 0.18204510
v 0.09312373 -0.46327308 0.19187547
v 0.12981849 -0.49907627 0.21535650
v 0.11594280 -0.47625241 0.20288305
v 0.11442697 -0.31473784 0.12333077
v 0.08223934 -0.31031005 0.11697338
v 0.09618978 -0.32794861 0.12875934
v 0.09600988 -0.39746814 0.16382005
v 0.33384603 -0.34801860 0.06386514
v 0.34133194 -0.28768997 0.02783486
v 0.27987316 -0.25690592 0.06409606
v 0.23976987 -0.32962998 0.11955303
v 0.22216540 -0.36588748 0.14607172
v 0.41933074 -0.54030505 0.04283806
v 0.36755314 -0.53953716 0.13021694
v 0.37067090 -0.43813377 0.06632995
v 0.39412831 -0.49828203 0.06626075
v 0.24118836 -0.59898659 0.25671691
v 0.23530908 -0.63793646 0.24290724
v 0.20726005 -0.56347737 0.25692185
v -0.53242578 -0.80807720 0.09501518
v -0.51801015 -0.78872707 0.10388035
v -0.36193570 -0.65516394 0.15138103
v -0.37525768 -0.62445558 0.15171407
v -0.38552069 -0.64706220 0.15024020
v -0.42363070 -0.61571720 0.14671165
v -0.41641056 -0.67078515 0.14577409
v -0.40046239 -0.62645663 0.14945293
v -0.39686945 -0.66419022 0.14823789
v -0.41401687 -0.64655420 0.14740859
v -0.39885333 -0.68995915 0.14586591
v -0.38979065 -0.60194632 0.15062941
v -0.43609095 -0.65630241 0.14374964
v -0.42093166 -0.69254218 0.14334317
v -0.40413436 -0.71603993 0.14208463
v -0.43593066 -0.67796160 0.14240264
v -0.42439754 -0.72472916 0.13868253
v -0.48994395 -0.63355362 0.13064123
v -0.46561046 -0.59309029 0.13810980
v -0.50501107 -0.59876529 0.12514848
v -0.47254123 -0.61616823 0.13646782
v -0.50369296 -0.61865526 0.12579358
v -0.44786979 -0.62272652 0.14221937
v -0.48461462 -0.60029506 0.13242782
v -0.48812195 -0.56289180 0.13055267
v -0.43200517 -0.63594545 0.14512343
v -0.44172019 -0.59927988 0.14335641
v -0.41502949 -0.58803173 0.14741297
v -0.44338187 -0.55733292 0.14153414
v -0.44897042 -0.57854601 0.14140303
v -0.46535770 -0.56296732 0.13710231
v -0.46054292 -0.53680765 0.13664601
v -0.24623263 -0.83625083 0.11756876
v -0.14828286 -0.70645532 0.13746014
v -0.22393669 -0.74285647 0.13810650
v -0.21492412 -0.77984768 0.12965533
v -0.27588196 -0.68593716 0.14951646
v -0.25652890 -0.70511925 0.14635646
v -0.27643237 -0.66086023 0.15184874
v -0.17225798 -0.67145205 0.14480989
v -0.19495435 -0.64851000 0.14886326
v -0.16623119 -0.60427348 0.15018773
v -0.17843435 -0.56838207 0.15139892
v -0.19011256 -0.59249706 0.15162373
v -0.36148422 -0.71512266 0.14534601
v -0.35985825 -0.69103704 0.14849990
v -0.38017398 -0.73395736 0.14102295
v -0.36292896 -0.56230713 0.15094061
v -0.37089519 -0.53749365 0.14853338
v -0.38254815 -0.51289896 0.14509728
v -0.36259181 -0.59391752 0.15234398
v -0.27812948 -0.53485227 0.15117539
v -0.27969437 -0.55932254 0.15293606
v -0.25935049 -0.51553476 0.14948067
v -0.16272473 -0.51552590 0.14895201
v -0.18722452 -0.50655282 0.14850957
v -0.16820985 -0.49283617 0.14696101
v -0.22414723 -0.50487474 0.14842603
v -0.20540392 -0.49871863 0.14778543
v -0.22295671 -0.47693385 0.14491892
v -0.20655700 -0.52660590 0.15032627
v -0.27886607 -0.43658586 0.13637092
v -0.25975888 -0.45576201 0.14076879
v -0.27906301 -0.41149173 0.13055204
v -0.06084143 -0.51226601 0.15466669
v -0.22887896 -0.35890110 0.11695395
v -0.23572884 -0.38243760 0.12412371
v -0.24181748 -0.40897050 0.13111378
v -0.36390487 -0.44113565 0.13434884
v -0.36363481 -0.46618911 0.13926383
v -0.44176287 -0.29538913 0.08901669
v -0.44489687 -0.31642749 0.09616175
v -0.42414072 -0.28030279 0.08347602
v -0.42376044 -0.32620936 0.10061912
v -0.39343663 -0.30896582 0.09539411
v -0.37089676 -0.41058240 0.12716953
v -0.52881809 -0.27426992 0.07187845
v -0.55269510 -0.38204741 0.09568511
v -0.53055591 -0.40964502 0.10384655
v -0.43651575 -0.35531502 0.10881200
v -0.20879339 -0.42730519 0.13632904
v 0.02361076 -0.85822256 0.15834093
v 0.02156975 -0.89111368 0.13880506
v -0.00031049 -0.84805779 0.15914562
v -0.03128160 -0.81559396 0.15867419
v -0.00398014 -0.79610515 0.17728479
v -0.07389980 -0.75429119 0.14395906
v -0.06073336 -0.77922984 0.14865484
v 0.00771528 -0.66195934 0.19925941
v 0.04026660 -0.67166891 0.21616056
v -0.00977707 -0.64602271 0.18858300
v -0.00766685 -0.72801508 0.18817180
v -0.00057465 -0.75219769 0.18860959
v 0.05217359 -0.81509155 0.18297284
v 0.05992668 -0.85311300 0.15936524
v 0.04591417 -0.83680280 0.17161966
v 0.00795807 -0.61711087 0.19617451
v 0.03976114 -0.62057566 0.21327276
v 0.02180051 -0.60037846 0.20130993
v 0.01653283 -0.57238041 0.19390552
v 0.02089914 -0.53622950 0.18831501
v 0.05710232 -0.54647964 0.20704455
v 0.04786899 -0.56718033 0.20804503
v 0.08425632 -0.59420018 0.22868952
v 0.06305910 -0.58565266 0.21864984
v 0.06548191 -0.61262570 0.22427008
v 0.08095156 -0.56910269 0.22255334
v 0.12826326 -0.57619508 0.23886002
v 0.10688353 -0.55464523 0.22782426
v 0.05879184 -0.48702172 0.18972888
v 0.13160277 -0.78162921 0.18958600
v 0.14569632 -0.76534064 0.19645423
v 0.13464659 -0.74989673 0.21218701
v 0.18789939 -0.62053652 0.26118690
v 0.14626318 -0.41657284 0.18004878
v 0.17994361 -0.42104898 0.18361252
v 0.09510960 -0.48817940 0.20211102
v 0.09544911 -0.51883952 0.21311499
v 0.14765322 -0.47182945 0.20729492
v 0.34861952 -0.33012494 0.03562620
v 0.32669001 -0.32821912 0.06183349
v 0.32181464 -0.55254728 0.18925878
v 0.36349317 -0.45921369 0.09436112
v 0.32128107 -0.43960820 0.13476781
v 0.34655124 -0.44391057 0.10756563
v 0.34819824 -0.40301775 0.07739791
v 0.32389845 -0.46838928 0.15203276
v 0.34095008 -0.42305636 0.10086670
v 0.30170533 -0.40104231 0.12708329
v 0.31711075 -0.41748584 0.12435213
v 0.27784053 -0.43829498 0.16829785
v 0.29985268 -0.43306196 0.14956247
v 0.29560255 -0.46270216 0.17217015
v 0.38477360 -0.45038464 0.04449462
v 0.37370845 -0.48891000 0.09731050
v 0.34541704 -0.51494006 0.15392649
v 0.37214963 -0.51252560 0.11418910
v 0.21299551 -0.50422701 0.23032611
v -0.35667026 -0.62467587 0.15273722
v -0.44844268 -0.69203013 0.13909713
v -0.47903130 -0.54471587 0.13256286
v -0.45060563 -0.48595398 0.13353760
v -0.21442198 -0.83137452 0.11649985
v -0.20456466 -0.74195251 0.13658039
v -0.21571018 -0.71971705 0.14148234
v -0.19891898 -0.70484990 0.14238555
v -0.23880905 -0.72387097 0.14252330
v -0.22141964 -0.67525058 0.14789671
v -0.23170414 -0.69914025 0.14570734
v -0.21397768 -0.69308377 0.14523255
v -0.19724316 -0.77357868 0.12921734
v -0.19923547 -0.79608536 0.12416336
v -0.22232128 -0.80315498 0.12467481
v -0.23904222 -0.81620982 0.12268472
v -0.24016314 -0.76895173 0.13415811
v -0.22631056 -0.61577572 0.15239669
v -0.39202387 -0.75057145 0.13668491
v -0.40996005 -0.76363074 0.13233398
v -0.42965461 -0.75343476 0.13308862
v -0.42236171 -0.52242051 0.14196990
v -0.24533841 -0.49883220 0.14765124
v -0.23566165 -0.52975114 0.15076407
v -0.20537431 -0.45783143 0.14213106
v -0.23230904 -0.45043554 0.14035398
v -0.19569362 -0.54970473 0.15140372
v -0.24493410 -0.47263891 0.14394779
v -0.40395921 -0.28998106 0.08779113
v -0.38244926 -0.29124591 0.08858053
v -0.50669666 -0.26561020 0.07742361
v -0.51805435 -0.39221594 0.10469342
v -0.18912306 -0.42568602 0.13630529
v 0.03592194 -0.87815640 0.14616816
v 0.01248668 -0.81507326 0.17575503
v 0.03250730 -0.82029039 0.17769303
v 0.02753768 -0.79608359 0.18685223
v -0.08259852 -0.77170435 0.13575360
v -0.03532650 -0.64552172 0.17350107
v 0.06265120 -0.64649096 0.22553437
v 0.10424491 -0.57994779 0.23267765
v 0.11664945 -0.62052962 0.24099405
v 0.11934271 -0.59749787 0.23972784
v 0.10097460 -0.60660150 0.23572593
v 0.09056727 -0.63555799 0.23490416
v 0.13971538 -0.61193354 0.24654394
v 0.16627835 -0.60278847 0.25466531
v 0.14331585 -0.53870628 0.23344178
v 0.19693283 -0.63874896 0.25657789
v 0.17634643 -0.63848327 0.25580692
v 0.19919860 -0.59376204 0.26289074
v 0.07487072 -0.52011902 0.20647701
v 0.09659214 -0.53820437 0.21965802
v 0.11982973 -0.53454279 0.22573463
v 0.12926015 -0.55471870 0.23411095
v 0.15487822 -0.56671055 0.24458182
v 0.13406092 -0.51993161 0.22448218
v 0.17286984 -0.51170143 0.23036882
v 0.15139493 -0.50578275 0.22289374
v 0.16755001 -0.48694435 0.21729821
v 0.19068631 -0.49481150 0.22489539
v 0.17257291 -0.45812885 0.20329199
v 0.22274061 -0.45478655 0.20005869
v 0.21121986 -0.47922310 0.21651814
v 0.25615721 -0.48648736 0.20924021
v 0.19737903 -0.45874084 0.20452940
v 0.23573173 -0.47436615 0.20889934
v 0.20783347 -0.42982731 0.18673298
v 0.18539347 -0.44161909 0.19488284
v 0.18446897 -0.47507635 0.21324519
v 0.23553760 -0.49736995 0.22266180
v 0.25920534 -0.45904665 0.19139391
v 0.23088868 -0.52799020 0.23960585
v 0.25780487 -0.51525283 0.22411041
v 0.10971504 -0.50356157 0.21198114
v 0.13014164 -0.46231783 0.19967245
v 0.33747700 -0.56879475 0.17732700
v 0.34358428 -0.54687828 0.16787768
v 0.31488602 -0.57604948 0.19627583
v 0.30052810 -0.55897158 0.20760037
v 0.30301926 -0.51470667 0.19460733
v 0.29362240 -0.53695539 0.20990992
v 0.28035370 -0.51834529 0.21260178
v 0.28906679 -0.49040319 0.19303926
v 0.26619199 -0.53743395 0.22906033
v 0.31167156 -0.45513985 0.15440537
v 0.32490725 -0.49641544 0.16723856
v -0.46242322 -0.51005857 0.13400311
v -0.24343156 -0.74852186 0.13852560
v -0.20449853 -0.61002685 0.15174359
v -0.22457907 -0.57869140 0.15286464
v -0.21033386 -0.63180474 0.15093495
v -0.23479240 -0.64058648 0.15160657
v -0.24723595 -0.65901031 0.15088099
v -0.43898203 -0.76947220 0.12864170
v -0.43892847 -0.53614276 0.14080188
v -0.41037930 -0.55320491 0.14625520
v -0.40736891 -0.49594659 0.14073115
v -0.23958994 -0.43023068 0.13608039
v -0.37269995 -0.30865079 0.09547112
v 0.05667049 -0.62886007 0.22225896
v 0.03936056 -0.64396707 0.21522623
v 0.08450555 -0.61654804 0.23147755
v 0.08858840 -0.67172067 0.23330437
v 0.14738421 -0.58972488 0.24657177
v 0.18799204 -0.57479670 0.25669937
v 0.16152833 -0.54781112 0.24105345
v 0.24440638 -0.42468182 0.17488475
v 0.19989720 -0.40732701 0.17445314
v 0.22451422 -0.41038828 0.17201241
v 0.20992943 -0.38572882 0.16040918
v 0.25880987 -0.38552841 0.14451301
v 0.19873794 -0.36569994 0.15088075
v 0.23441756 -0.38617179 0.15454986
v 0.21112754 -0.34733233 0.13800007
v 0.24681557 -0.40335989 0.16069101
v 0.26813723 -0.41599508 0.15919327
v 0.20049798 -0.53268861 0.24454121
v 0.19225787 -0.51495617 0.23545970
v 0.17962543 -0.53193997 0.24102803
v 0.21974286 -0.54654541 0.24961602
v 0.30717368 -0.48020137 0.17386981
v 0.27608728 -0.47293389 0.19118450
v 0.27086659 -0.49981739 0.20931143
v 0.24669204 -0.53959486 0.23955809
v -0.43927211 -0.50634731 0.13786612
v -0.50099971 -0.47658947 0.12076423
v -0.23759243 -0.55594131 0.15240283
v -0.25582860 -0.56137458 0.15290032
v -0.21578110 -0.55850144 0.15214442
v -0.39507325 -0.53410614 0.14633008
v -0.38705926 -0.55630400 0.14888815
v -0.40079333 -0.57235548 0.14853192
v -0.40059570 -0.46911146 0.13734597
v 0.02628076 -0.65787575 0.20923910
v 0.08135497 -0.65305309 0.23218255
v 0.06541801 -0.66983701 0.22642177
v 0.10413660 -0.65475181 0.23795120
v 0.05422954 -0.68536463 0.22129340
v 0.07298983 -0.70063659 0.22555838
v 0.11424541 -0.68117130 0.23706346
v 0.06468709 -0.72456303 0.21851817
v 0.07817285 -0.74880875 0.21424198
v 0.22690983 -0.43516736 0.18667771
v 0.25784556 -0.43901556 0.17901642
v -0.48674548 -0.49885219 0.12697709
v -0.19964209 -0.57288469 0.15198386
v -0.21977617 -0.54006793 0.15136392
v -0.40329062 -0.51579220 0.14351272
v -0.40370172 -0.44664980 0.13307556
v -0.44709403 -0.43953811 0.12710546
v -0.42859858 -0.46204793 0.13324181
v -0.42441833 -0.43739155 0.12930336
v -0.43741819 -0.41917771 0.12439708
v -0.45117489 -0.40126058 0.11891974
v -0.47248835 -0.40537506 0.11691160
v -0.47566164 -0.43454002 0.12158652
v -0.45853385 -0.42170090 0.12210261
v 0.09738264 -0.68845218 0.23305608
v 0.11335633 -0.70193259 0.23206979
v 0.14362114 -0.67586417 0.24206240
v 0.09751586 -0.75640005 0.21227286
v 0.08593127 -0.72794515 0.22204470
v -0.47461452 -0.47593716 0.12770609
v -0.51642269 -0.50165506 0.11790411
v -0.45160763 -0.46261713 0.13015160
v -0.51037474 -0.44207573 0.11411376
v 0.15107332 -0.69716807 0.23570315
v 0.15479983 -0.65515018 0.24804789
v 0.13379717 -0.63983282 0.24521193
v 0.11511861 -0.63950028 0.24091261
v 0.12450363 -0.65838595 0.24194903
v -0.48817983 -0.45551338 0.12199997
v -0.46860947 -0.45336517 0.12583957
v -0.50242479 -0.51596016 0.12331441
v -0.52733529 -0.47802544 0.11245572
v -0.51483977 -0.46189715 0.11504670
v -0.53380452 -0.44709486 0.10745968
v -0.54544996 -0.47041738 0.10521041
v -0.52571192 -0.42916889 0.10782516
v -0.52784510 -0.51630106 0.11452185
v -0.49499365 -0.43021290 0.11696302
v -0.60781112 -0.17732242 0.03670589
v 0.43002405 -0.61030134 0.05723196
v -0.51308049 -0.84090812 0.09027855
v -0.25302033 -0.85748858 0.11097113
v -0.20175103 -0.86166837 0.10627730
v -0.18388669 -0.87858743 0.09878357
v -0.19153652 -0.83953860 0.11153853
v -0.21490537 -0.84953419 0.11126229
v -0.15438019 -0.91980406 0.07854183
v -0.27546085 -0.72260416 0.14472473
v -0.27700777 -0.62910063 0.15353351
v -0.25360938 -0.61509067 0.15345279
v -0.23969232 -0.59645188 0.15329172
v -0.27865086 -0.49813975 0.14712517
v -0.27887644 -0.47334575 0.14339172
v -0.06946499 -0.87409127 0.12010624
v 0.19734205 -0.72185891 0.21090230
v 0.36502140 -0.59492252 0.13598552
v -0.13278561 -0.86673145 0.09212019
v -0.16370832 -0.83331128 0.10903418
v -0.14435538 -0.82839689 0.10696929
v -0.29973925 -0.65962843 0.15239390
v -0.16884672 -0.63311419 0.14845395
v -0.27759720 -0.59168088 0.15398690
v -0.33821408 -0.68991124 0.14955363
v -0.36341263 -0.49791591 0.14433466
v -0.30115034 -0.56040520 0.15284878
v -0.30214291 -0.41064342 0.12955453
v -0.34060676 -0.46686301 0.14042525
v 0.01035191 -0.28825861 0.09479428
v 0.04650360 -0.29348555 0.10189379
v 0.16509861 -0.39073061 0.16725144
v -0.50252082 -0.82124440 0.09953790
v -0.43390528 -0.81470486 0.11528901
v -0.45350995 -0.83356986 0.10688446
v -0.27054696 -0.79720292 0.12954446
v -0.14587287 -0.56109446 0.15048174
v -0.16276968 -0.54658237 0.15054284
v -0.15982180 -0.57483890 0.15074658
v -0.14776703 -0.41889145 0.13507569
v -0.16598990 -0.40887333 0.13296189
v -0.17409449 -0.39159316 0.12868363
v 0.07944021 -0.36576209 0.14585675
v -0.39985277 -0.35541428 0.11083701
v -0.01278113 -0.88037618 0.14165861
v -0.03139328 -0.51641096 0.16323180
v 0.13116931 -0.43847931 0.18897235
v 0.08627822 -0.28534148 0.10209368
v 0.07219616 -0.26879651 0.08897878
v 0.06794002 -0.29502786 0.10570681
v 0.05545598 -0.32023397 0.11848396
v 0.03581126 -0.31143781 0.11092398
v 0.05415102 -0.33989747 0.12853820
v 0.38661624 -0.54383091 0.10314337
v 0.40792731 -0.51134444 0.04639350
v -0.52648776 -0.60034116 0.11519402
v -0.51619176 -0.57753081 0.12026565
v -0.55159361 -0.40316620 0.09810455
v 0.03073319 -0.69020288 0.21109819
v 0.37003038 -0.41510290 0.04935521
v 0.36809606 -0.39488332 0.03872447
v 0.36316696 -0.37084473 0.03320888
v 0.35524357 -0.35166914 0.03575288
v -0.20071130 -0.66950816 0.14714346
v -0.21641068 -0.65348204 0.14967812
v -0.39366022 -0.77887372 0.12933747
v -0.50630554 -0.24169087 0.06809510
v 0.32534317 -0.59448140 0.18427769
v 0.29190072 -0.57684674 0.21530349
v -0.42525269 -0.56896775 0.14508626
v 0.16860614 -0.58187582 0.25276981
v 0.27673427 -0.36308137 0.12151626
v 0.28294869 -0.38601882 0.13143142
v 0.31087195 -0.37017241 0.09969891
v 0.32624732 -0.38974648 0.09629063
v 0.34661335 -0.38332483 0.06667115
v 0.31001833 -0.34926161 0.08860736
v 0.33285157 -0.36794677 0.07629438
v 0.28883293 -0.41581710 0.14648793
v -0.42764295 -0.48537375 0.13683528
v -0.15529703 -0.86844401 0.09644374
v 0.04245771 -0.27308770 0.08837045
v 0.16407133 -0.41032105 0.17779646
v -0.43896449 -0.79525321 0.12172584
v -0.45584918 -0.81102450 0.11652608
v -0.41816003 -0.83274443 0.11038529
v -0.41267957 -0.81212845 0.11781136
v -0.39813397 -0.82558306 0.11501590
v -0.51066750 -0.55421071 0.12216694
v 0.01771351 -0.33374767 0.11957638
v 0.06289097 -0.76871742 0.20498247
v -0.02755944 -0.78035699 0.16909784
v -0.00529287 -0.77339610 0.18222822
v -0.02329313 -0.79841630 0.16724144
v 0.32234685 -0.52748872 0.18297541
v 0.24712974 -0.36416765 0.13683946
v 0.23397117 -0.34902625 0.13275053
f 118 119 117
f 371 490 206
f 117 119 120
f 276 264 539
f 115 116 121
f 120 116 117
f 121 116 120
f 146 145 517
f 268 267 144
f 347 1139 346
f 442 33 34
f 222 239 232
f 123 218 122
f 218 217 122
f 234 7 8
f 218 114 217
f 310 229 123
f 224 241 245
f 229 113 218
f 112 219 111
f 1138 340 1168
f 217 121 122
f 521 68 69
f 225 214 443
f 219 112 229
f 113 229 112
f 111 297 110
f 1136 237 81
f 225 444 318
f 339 614 109
f 614 463 108
f 244 243 240
f 297 111 219
f 310 123 124
f 445 93 94
f 228 236 1137
f 463 107 108
f 341 621 465
f 426 424 226
f 232 223 300
f 640 343 637
f 7 234 233
f 253 430 431
f 105 343 640
f 434 433 432
f 109 110 339
f 441 297 219
f 47 226 424
f 274 273 162
f 318 25 26
f 243 224 235
f 184 222 183
f 345 132 346
f 131 132 161
f 434 599 433
f 239 5 6
f 213 131 161
f 213 161 160
f 345 161 132
f 80 81 237
f 138 351 137
f 619 247 617
f 177 646 143
f 468 354 351
f 349 347 134
f 231 221 238
f 143 474 178
f 317 24 25
f 317 235 24
f 136 137 356
f 356 137 351
f 181 355 182
f 147 146 515
f 469 353 645
f 658 480 159
f 487 488 366
f 130 131 213
f 476 654 656
f 663 172 171
f 152 668 153
f 624 247 619
f 360 477 361
f 155 615 156
f 156 157 477
f 161 344 160
f 429 296 428
f 958 968 969
f 648 647 649
f 177 211 176
f 173 256 489
f 661 483 482
f 175 257 255
f 174 255 256
f 367 368 254
f 173 172 661
f 652 476 651
f 255 257 210
f 161 345 344
f 475 646 647
f 657 854 852
f 140 141 279
f 433 599 296
f 505 508 164
f 641 104 640
f 672 150 149
f 264 274 275
f 601 221 600
f 389 718 269
f 100 101 497
f 210 209 255
f 80 231 79
f 91 92 298
f 984 1202 238
f 705 144 145
f 33 236 228
f 313 34 35
f 102 1192 101
f 1134 1128 1118
f 711 714 713
f 157 158 479
f 715 717 716
f 1041 1099 259
f 371 206 491
f 269 718 720
f 104 641 103
f 105 106 343
f 272 271 67
f 78 79 242
f 71 72 267
f 678 679 379
f 83 87 88
f 84 87 83
f 85 86 84
f 278 184 279
f 84 86 87
f 256 255 209
f 88 89 220
f 15 549 14
f 237 231 80
f 231 238 242
f 445 603 725
f 231 237 436
f 620 107 463
f 88 220 83
f 9 304 8
f 298 436 315
f 220 230 1136
f 324 319 448
f 277 745 540
f 230 220 89
f 65 66 273
f 266 741 268
f 315 237 230
f 222 5 239
f 150 151 498
f 671 496 495
f 362 859 1043
f 671 151 150
f 381 380 502
f 677 501 676
f 956 846 847
f 513 386 385
f 154 485 153
f 513 148 147
f 163 523 164
f 148 149 502
f 169 168 674
f 506 382 505
f 146 147 511
f 1109 1111 1108
f 382 507 508
f 270 272 519
f 391 523 524
f 527 162 271
f 163 275 274
f 499 377 498
f 636 466 635
f 389 886 888
f 387 144 72
f 265 72 73
f 144 705 268
f 72 144 267
f 89 90 230
f 739 389 76
f 113 114 218
f 269 886 389
f 76 389 75
f 228 32 33
f 181 182 300
f 387 388 144
f 527 744 524
f 268 741 71
f 271 66 67
f 428 213 160
f 114 115 217
f 267 268 71
f 27 214 225
f 226 215 187
f 701 145 146
f 227 31 32
f 162 273 66
f 521 522 390
f 271 162 66
f 1032 1203 1030
f 168 552 167
f 668 669 494
f 365 364 485
f 29 31 216
f 177 143 212
f 20 446 19
f 142 185 278
f 185 184 278
f 142 1 185
f 393 279 184
f 354 355 644
f 140 372 139
f 222 232 183
f 232 182 183
f 142 278 141
f 472 644 181
f 2 3 185
f 264 275 277
f 68 521 519
f 185 3 184
f 4 5 222
f 4 184 3
f 233 223 239
f 512 384 702
f 709 263 386
f 184 4 222
f 543 11 12
f 185 1 2
f 753 752 143
f 302 300 301
f 178 179 541
f 471 473 357
f 471 357 470
f 180 181 302
f 210 257 211
f 177 212 211
f 439 299 309
f 255 174 175
f 212 143 752
f 394 757 753
f 397 545 546
f 903 902 991
f 207 490 370
f 173 174 256
f 367 369 171
f 211 212 544
f 171 369 401
f 547 208 545
f 547 207 208
f 371 369 254
f 992 765 906
f 171 172 367
f 563 1093 1116
f 170 400 169
f 233 6 7
f 141 278 279
f 1202 242 238
f 127 462 126
f 303 301 234
f 233 234 223
f 470 180 179
f 233 239 6
f 438 280 437
f 1180 754 438
f 245 241 320
f 308 304 306
f 455 336 334
f 214 216 227
f 545 208 209
f 14 776 13
f 206 779 205
f 121 217 115
f 19 446 447
f 311 310 124
f 83 220 82
f 1152 555 18
f 303 307 299
f 555 17 18
f 477 478 156
f 548 776 549
f 600 298 602
f 231 242 79
f 245 22 23
f 22 245 320
f 317 243 235
f 372 258 468
f 317 318 240
f 211 257 176
f 487 158 157
f 235 23 24
f 82 1136 81
f 26 27 225
f 216 28 29
f 183 182 373
f 870 378 1173
f 28 216 214
f 274 264 276
f 228 227 32
f 372 279 258
f 31 227 216
f 29 30 31
f 534 536 530
f 148 502 503
f 214 27 28
f 511 512 701
f 320 322 21
f 164 508 163
f 779 780 205
f 783 204 203
f 1137 443 214
f 169 400 403
f 782 553 402
f 780 204 205
f 203 202 564
f 403 168 169
f 166 165 677
f 690 200 199
f 200 689 201
f 780 915 204
f 675 500 674
f 505 164 165
f 195 196 569
f 796 198 199
f 509 689 690
f 412 572 573
f 610 938 453
f 413 195 194
f 195 567 194
f 567 410 409
f 572 197 196
f 319 329 330
f 408 685 683
f 784 201 202
f 193 416 418
f 186 187 215
f 274 65 273
f 276 65 274
f 159 428 160
f 440 340 1138
f 528 529 63
f 1166 1217 1165
f 218 123 229
f 64 528 63
f 239 223 232
f 1184 59 60
f 802 573 800
f 194 567 568
f 289 417 191
f 90 315 230
f 575 58 59
f 784 554 925
f 55 56 419
f 57 415 577
f 605 442 313
f 292 191 190
f 436 600 221
f 287 413 579
f 479 480 361
f 320 21 22
f 168 781 552
f 209 208 256
f 581 582 421
f 44 45 586
f 358 1155 250
f 191 192 582
f 586 423 425
f 224 245 235
f 423 45 46
f 149 150 504
f 586 587 44
f 207 370 208
f 321 329 319
f 23 235 245
f 690 692 691
f 539 528 276
f 580 42 43
f 175 176 257
f 943 939 940
f 591 597 420
f 144 388 145
f 890 708 889
f 325 327 329
f 243 244 224
f 733 721 731
f 292 54 55
f 55 419 292
f 190 191 581
f 291 53 54
f 270 391 524
f 53 293 52
f 294 51 52
f 187 294 188
f 188 294 293
f 65 276 64
f 188 189 426
f 163 274 162
f 226 187 188
f 226 47 215
f 347 346 133
f 47 48 215
f 186 48 49
f 50 51 186
f 49 50 186
f 328 244 332
f 215 48 186
f 393 184 183
f 154 155 486
f 186 51 187
f 424 295 423
f 166 676 167
f 67 68 272
f 191 292 289
f 36 1190 809
f 214 227 228
f 205 204 404
f 665 152 153
f 322 324 446
f 762 281 760
f 565 407 564
f 167 566 166
f 794 410 569
f 794 795 570
f 529 531 537
f 803 572 574
f 575 576 414
f 412 573 802
f 415 57 58
f 193 192 416
f 417 289 577
f 288 416 417
f 585 192 193
f 935 41 42
f 190 189 291
f 291 189 293
f 190 291 292
f 292 291 54
f 291 293 53
f 189 188 293
f 51 294 187
f 293 294 52
f 581 427 598
f 580 805 590
f 429 159 158
f 430 433 296
f 311 312 441
f 297 461 339
f 602 92 93
f 298 600 436
f 299 301 303
f 307 309 299
f 232 300 182
f 301 300 223
f 234 301 223
f 302 301 299
f 302 299 439
f 181 300 302
f 304 234 8
f 305 437 309
f 306 9 10
f 234 304 303
f 9 306 304
f 754 987 897
f 306 898 754
f 305 307 308
f 308 307 303
f 309 307 305
f 304 308 303
f 308 306 1180
f 439 1151 394
f 180 439 179
f 311 124 125
f 219 229 310
f 125 440 311
f 219 310 311
f 126 440 125
f 461 246 339
f 36 37 812
f 605 236 442
f 333 314 607
f 318 444 451
f 90 91 315
f 298 315 91
f 94 603 445
f 718 719 720
f 318 317 25
f 243 317 240
f 26 225 318
f 225 443 444
f 319 322 321
f 321 241 325
f 321 320 241
f 320 321 322
f 325 241 326
f 328 326 224
f 322 319 324
f 20 21 322
f 328 323 326
f 336 338 323
f 448 319 330
f 19 447 18
f 326 241 224
f 325 323 327
f 328 224 244
f 323 325 326
f 335 336 328
f 1167 410 570
f 244 333 332
f 313 809 606
f 325 329 321
f 330 329 327
f 338 612 327
f 611 449 330
f 37 38 610
f 332 335 328
f 240 451 244
f 335 332 1203
f 236 605 607
f 332 333 1153
f 606 609 452
f 1182 930 795
f 1203 332 331
f 336 335 334
f 455 338 336
f 328 336 323
f 1030 609 1031
f 1029 411 1182
f 337 813 612
f 327 323 338
f 297 339 110
f 463 614 817
f 127 1170 639
f 973 1201 972
f 341 628 638
f 639 1220 638
f 615 616 464
f 670 153 668
f 341 620 463
f 635 637 247
f 344 248 642
f 160 344 658
f 346 132 133
f 344 345 248
f 347 133 134
f 248 345 346
f 643 349 134
f 349 350 347
f 469 136 353
f 1139 248 346
f 643 134 135
f 350 349 348
f 348 1140 350
f 650 1142 1155
f 138 139 468
f 1144 356 249
f 355 352 493
f 249 351 354
f 180 470 472
f 136 469 135
f 468 351 138
f 355 354 352
f 258 373 493
f 181 180 472
f 249 356 351
f 136 356 353
f 474 1154 178
f 356 1144 353
f 176 647 177
f 1154 1216 471
f 651 176 175
f 361 480 659
f 852 853 657
f 852 854 478
f 480 158 159
f 361 659 1145
f 663 664 483
f 1172 169 674
f 664 857 483
f 1149 381 377
f 1146 252 1147
f 484 364 1159
f 156 478 1157
f 365 854 1146
f 156 615 1160
f 630 862 830
f 368 367 172
f 369 367 254
f 489 172 173
f 667 208 370
f 254 490 371
f 401 282 400
f 254 368 370
f 368 489 667
f 491 206 205
f 492 401 369
f 279 372 140
f 468 258 352
f 493 182 355
f 393 373 258
f 103 641 837
f 818 464 616
f 148 513 514
f 706 885 884
f 102 1191 1192
f 1118 1128 1099
f 152 665 1162
f 377 499 867
f 377 867 869
f 859 362 857
f 523 525 164
f 877 681 879
f 981 976 875
f 877 879 503
f 504 498 381
f 381 1149 1150
f 506 165 166
f 277 507 261
f 700 199 198
f 62 63 529
f 148 503 1163
f 741 704 522
f 717 891 716
f 884 885 514
f 517 145 388
f 386 263 891
f 72 265 387
f 388 387 265
f 707 388 265
f 517 386 515
f 739 77 518
f 727 728 887
f 69 740 522
f 270 519 520
f 742 270 520
f 525 1175 164
f 531 534 530
f 531 529 392
f 373 393 183
f 258 279 393
f 541 439 394
f 542 756 755
f 13 776 777
f 546 760 397
f 756 280 758
f 909 777 548
f 546 209 210
f 763 397 760
f 927 787 926
f 555 556 17
f 928 558 562
f 1114 1121 561
f 401 400 170
f 403 400 782
f 171 401 170
f 369 371 492
f 282 404 553
f 880 402 553
f 782 400 282
f 403 402 781
f 404 783 553
f 404 492 491
f 554 784 785
f 450 449 788
f 764 766 768
f 556 927 17
f 565 202 201
f 783 407 1181
f 687 261 682
f 682 382 506
f 1232 596 1068
f 582 422 583
f 794 196 197
f 410 285 1066
f 813 454 612
f 337 455 457
f 196 195 573
f 695 538 694
f 194 193 418
f 800 801 802
f 413 194 579
f 415 288 577
f 575 415 58
f 578 415 414
f 417 416 192
f 418 416 288
f 191 417 192
f 419 577 289
f 288 415 578
f 418 579 194
f 577 419 56
f 292 419 289
f 290 593 591
f 580 935 42
f 589 584 588
f 426 189 598
f 568 193 194
f 596 594 422
f 424 423 46
f 425 423 295
f 47 424 46
f 226 188 426
f 589 295 427
f 584 806 583
f 189 190 598
f 424 426 295
f 583 806 421
f 295 426 427
f 429 428 159
f 213 428 296
f 158 487 431
f 430 429 431
f 433 430 1201
f 296 429 430
f 158 431 429
f 431 366 862
f 629 624 631
f 129 1223 1221
f 1201 430 253
f 1222 1223 432
f 129 130 434
f 599 434 130
f 435 602 445
f 719 892 316
f 231 436 221
f 315 436 237
f 438 437 305
f 1151 437 280
f 1180 306 754
f 438 759 758
f 439 180 302
f 439 309 1151
f 440 126 462
f 311 440 312
f 311 441 219
f 461 441 312
f 33 442 236
f 34 313 442
f 1137 214 228
f 443 314 444
f 314 333 444
f 451 333 244
f 603 94 95
f 604 445 316
f 322 446 20
f 447 446 324
f 450 447 324
f 447 450 1152
f 449 448 330
f 450 283 1152
f 611 330 814
f 1094 1114 1125
f 324 448 450
f 449 450 448
f 318 451 240
f 444 333 451
f 452 605 606
f 332 1153 331
f 38 949 610
f 285 410 1167
f 457 459 337
f 921 919 920
f 1033 1204 1032
f 337 338 455
f 1076 946 1025
f 813 459 460
f 1204 455 334
f 456 1038 459
f 942 453 938
f 1029 571 799
f 456 459 457
f 459 458 460
f 458 815 460
f 929 454 1004
f 441 461 297
f 1138 461 312
f 639 462 127
f 440 462 340
f 108 109 614
f 341 465 620
f 616 155 154
f 861 860 488
f 247 343 617
f 343 618 617
f 624 634 247
f 1191 102 103
f 642 248 848
f 649 656 359
f 372 468 139
f 354 468 352
f 1144 645 353
f 348 643 469
f 471 470 179
f 472 470 357
f 1154 179 178
f 250 1141 1216
f 357 249 472
f 644 472 249
f 645 473 1141
f 473 645 1144
f 1156 474 143
f 1154 474 358
f 648 650 475
f 646 1156 143
f 849 175 174
f 173 661 662
f 477 157 479
f 478 477 360
f 478 360 852
f 1157 365 486
f 480 479 158
f 477 479 361
f 159 160 658
f 659 251 1145
f 855 856 1199
f 476 652 654
f 482 856 855
f 855 655 662
f 664 171 170
f 483 857 1158
f 665 485 484
f 868 867 499
f 485 154 486
f 484 485 364
f 1157 486 155
f 485 486 365
f 488 487 157
f 431 487 366
f 1160 157 156
f 861 666 860
f 667 256 208
f 172 489 368
f 370 490 254
f 206 490 207
f 205 404 491
f 492 404 282
f 401 492 282
f 371 491 492
f 258 493 352
f 182 493 373
f 669 152 151
f 866 670 494
f 495 865 864
f 863 494 669
f 148 514 1164
f 496 885 1161
f 1224 497 101
f 1134 497 376
f 499 498 151
f 381 498 377
f 1162 151 152
f 868 673 867
f 675 168 167
f 1172 500 1173
f 501 678 680
f 870 500 675
f 502 149 504
f 503 502 380
f 503 380 877
f 1163 384 511
f 498 504 150
f 502 504 381
f 506 505 165
f 508 505 382
f 566 506 166
f 682 261 507
f 508 277 275
f 682 507 382
f 277 508 507
f 163 508 275
f 691 693 509
f 791 407 565
f 803 198 197
f 697 538 695
f 1163 511 147
f 512 511 384
f 702 384 262
f 705 512 704
f 513 147 515
f 514 513 385
f 514 385 884
f 1164 496 672
f 517 515 146
f 513 515 386
f 890 983 982
f 709 711 263
f 388 707 710
f 386 517 709
f 1202 77 78
f 238 601 892
f 68 519 272
f 520 519 390
f 881 520 390
f 978 875 680
f 522 521 69
f 519 521 390
f 741 740 70
f 704 702 703
f 524 523 163
f 525 523 391
f 527 163 162
f 272 270 744
f 1177 1176 525
f 1175 1176 679
f 742 391 270
f 526 742 743
f 744 271 272
f 163 527 524
f 276 528 64
f 529 528 392
f 532 534 392
f 537 62 529
f 536 535 751
f 62 1165 61
f 540 392 539
f 1225 537 530
f 277 261 745
f 692 694 383
f 533 537 1225
f 286 801 1186
f 392 534 531
f 746 536 532
f 535 536 746
f 685 687 683
f 532 536 534
f 751 535 750
f 530 537 531
f 537 533 1165
f 510 574 695
f 536 538 699
f 540 539 264
f 528 539 392
f 277 540 264
f 392 540 532
f 439 541 179
f 753 541 394
f 757 280 756
f 752 755 544
f 910 13 777
f 543 911 897
f 544 212 752
f 396 903 544
f 546 545 209
f 547 545 397
f 902 761 546
f 763 760 281
f 763 547 397
f 207 992 206
f 775 1226 774
f 777 911 910
f 926 15 16
f 778 549 398
f 992 547 765
f 912 780 550
f 913 551 914
f 554 785 917
f 552 880 688
f 552 688 566
f 404 204 783
f 880 686 688
f 202 203 916
f 1005 405 1006
f 1152 18 447
f 556 555 406
f 556 406 558
f 787 560 1115
f 559 558 406
f 559 283 788
f 406 1152 559
f 562 558 557
f 283 450 788
f 558 559 1121
f 560 562 563
f 398 549 787
f 449 611 1002
f 1002 789 449
f 562 557 1113
f 562 560 928
f 1123 1125 1122
f 547 763 765
f 565 564 202
f 783 564 407
f 689 565 201
f 693 792 509
f 552 566 167
f 566 408 683
f 567 195 569
f 568 567 409
f 1066 285 1064
f 568 422 585
f 569 196 794
f 567 569 410
f 795 197 198
f 1167 570 1218
f 932 200 786
f 200 201 925
f 573 572 196
f 574 572 412
f 195 413 573
f 287 800 413
f 1178 286 698
f 700 574 510
f 576 575 59
f 415 575 414
f 1184 1217 1185
f 414 576 1183
f 57 577 56
f 288 417 577
f 287 578 414
f 288 578 418
f 418 578 579
f 287 579 578
f 44 587 805
f 936 935 580
f 582 581 191
f 427 581 421
f 585 582 192
f 583 422 290
f 584 583 290
f 421 582 583
f 590 584 591
f 805 588 590
f 568 585 193
f 582 585 422
f 423 586 45
f 587 586 425
f 588 587 425
f 43 805 580
f 589 588 425
f 590 588 584
f 295 589 425
f 427 421 806
f 591 584 290
f 580 590 420
f 593 290 594
f 420 590 591
f 1231 592 1232
f 593 597 591
f 594 290 422
f 593 592 595
f 596 422 568
f 593 594 807
f 285 931 1062
f 1212 936 595
f 1068 568 409
f 593 807 592
f 593 595 597
f 420 597 595
f 581 598 190
f 426 598 427
f 130 213 599
f 296 599 213
f 602 298 92
f 601 600 435
f 601 435 604
f 238 221 601
f 445 602 93
f 600 602 435
f 726 603 729
f 732 731 726
f 604 316 892
f 435 445 604
f 606 605 313
f 607 605 452
f 313 35 809
f 609 331 1153
f 333 607 452
f 607 314 1137
f 812 37 610
f 1189 609 606
f 609 1189 810
f 1030 331 609
f 949 39 811
f 950 951 952
f 814 327 612
f 789 561 788
f 337 612 338
f 814 454 611
f 798 1010 1012
f 561 789 1003
f 339 246 816
f 463 817 341
f 616 615 155
f 1160 615 464
f 670 154 153
f 342 464 818
f 618 343 106
f 619 617 465
f 107 618 106
f 465 617 618
f 619 465 621
f 634 635 247
f 465 618 620
f 107 620 618
f 625 621 341
f 832 629 974
f 631 625 632
f 366 488 860
f 625 638 623
f 1222 633 1219
f 631 619 621
f 627 955 831
f 817 614 816
f 629 622 624
f 625 623 632
f 623 1219 1048
f 342 820 824
f 828 627 831
f 1138 1168 246
f 639 638 628
f 631 624 619
f 1048 974 626
f 366 860 862
f 832 630 830
f 625 631 621
f 629 631 626
f 633 1048 1219
f 631 632 626
f 633 1201 973
f 973 974 633
f 955 624 622
f 635 634 627
f 636 635 627
f 635 466 637
f 820 342 818
f 836 833 636
f 637 466 640
f 247 637 343
f 341 638 625
f 628 1168 639
f 462 639 340
f 127 128 1170
f 641 640 466
f 104 105 640
f 636 833 466
f 641 466 833
f 248 1139 848
f 660 658 1171
f 349 643 348
f 135 469 643
f 354 644 249
f 181 644 355
f 1141 250 1140
f 348 469 645
f 647 646 177
f 475 1155 1156
f 649 176 651
f 649 359 648
f 650 648 359
f 475 647 648
f 176 649 647
f 649 476 656
f 966 967 359
f 1143 1142 958
f 652 651 175
f 649 651 476
f 174 173 662
f 655 653 654
f 853 962 964
f 660 467 970
f 655 654 652
f 654 653 656
f 849 655 652
f 655 481 961
f 959 656 653
f 968 967 851
f 360 1145 853
f 657 853 964
f 344 642 658
f 1171 467 660
f 480 660 659
f 660 970 1042
f 658 660 480
f 851 970 467
f 661 172 663
f 662 661 482
f 855 662 482
f 662 655 849
f 664 663 171
f 661 663 483
f 170 169 1172
f 1158 857 362
f 485 665 153
f 1162 665 484
f 824 826 342
f 862 253 431
f 368 667 370
f 256 667 489
f 669 668 152
f 670 668 494
f 671 669 151
f 494 863 374
f 866 494 374
f 616 154 670
f 671 150 672
f 669 671 495
f 1164 672 149
f 671 672 496
f 1100 980 1083
f 870 871 378
f 675 674 168
f 1172 674 500
f 676 675 167
f 871 872 680
f 677 676 166
f 675 676 501
f 165 164 1175
f 678 677 679
f 680 678 379
f 501 677 678
f 677 165 1175
f 679 1176 986
f 896 379 986
f 260 1149 869
f 380 1150 878
f 896 526 743
f 683 506 566
f 683 682 506
f 684 685 686
f 682 683 687
f 284 407 791
f 535 746 747
f 686 685 408
f 685 684 687
f 688 686 408
f 686 284 793
f 684 693 749
f 748 746 745
f 566 688 408
f 880 552 402
f 690 689 200
f 565 689 509
f 692 199 700
f 692 383 691
f 693 691 383
f 509 690 691
f 199 692 690
f 692 510 694
f 535 747 750
f 684 686 793
f 695 694 510
f 694 538 751
f 1178 574 412
f 696 699 697
f 696 697 698
f 1185 1186 801
f 698 697 695
f 696 1225 699
f 1178 695 574
f 698 286 1188
f 536 699 530
f 538 697 699
f 700 198 803
f 692 700 510
f 511 701 146
f 705 701 512
f 703 702 262
f 704 512 702
f 743 520 882
f 703 881 522
f 522 704 703
f 705 704 266
f 268 705 266
f 701 705 145
f 716 263 713
f 1087 1105 1215
f 73 983 1053
f 710 709 517
f 890 516 707
f 888 75 389
f 517 388 710
f 709 710 711
f 707 516 710
f 516 1179 710
f 712 713 714
f 727 269 720
f 736 1109 735
f 263 711 713
f 714 711 1179
f 712 715 716
f 889 708 887
f 722 724 727
f 1105 1087 1103
f 844 1049 847
f 712 716 713
f 1103 717 715
f 884 717 706
f 891 717 385
f 739 718 389
f 719 718 518
f 719 984 892
f 725 726 723
f 719 723 722
f 719 722 720
f 723 726 721
f 738 895 737
f 723 719 316
f 724 722 721
f 725 723 316
f 721 722 723
f 726 731 721
f 724 728 727
f 445 725 316
f 725 603 726
f 729 603 95
f 731 732 730
f 722 727 720
f 733 735 737
f 889 714 516
f 708 886 887
f 95 96 729
f 732 893 1193
f 1129 1130 1131
f 733 737 724
f 732 726 729
f 733 731 730
f 96 893 729
f 732 729 893
f 735 733 730
f 721 733 724
f 985 732 894
f 714 895 738
f 736 735 730
f 735 734 737
f 1129 99 1118
f 100 1134 99
f 737 734 738
f 728 724 737
f 1108 738 734
f 712 714 738
f 77 739 76
f 718 739 518
f 69 70 740
f 71 741 70
f 704 741 266
f 522 740 741
f 743 742 520
f 526 1176 1177
f 520 881 882
f 882 262 883
f 524 744 270
f 271 744 527
f 747 748 687
f 540 745 532
f 532 745 746
f 745 261 748
f 687 749 747
f 750 383 751
f 687 748 261
f 746 748 747
f 684 749 687
f 750 749 693
f 749 750 747
f 693 383 750
f 694 751 383
f 751 538 536
f 753 143 178
f 752 542 755
f 753 178 541
f 542 752 753
f 897 899 754
f 306 10 898
f 542 757 756
f 396 544 755
f 758 280 438
f 396 755 756
f 753 757 542
f 757 394 1151
f 759 438 899
f 756 758 900
f 778 1226 775
f 756 900 396
f 902 546 210
f 761 760 546
f 900 759 1229
f 760 761 762
f 1227 761 903
f 770 768 767
f 766 763 281
f 766 765 763
f 768 281 907
f 764 1194 1088
f 764 904 765
f 904 399 906
f 907 281 762
f 765 766 764
f 774 771 772
f 1093 769 1095
f 281 768 766
f 770 772 769
f 1088 904 764
f 770 1194 768
f 772 770 767
f 1092 1194 769
f 907 908 767
f 1095 771 1096
f 767 908 774
f 772 771 1095
f 762 1227 1228
f 988 901 759
f 767 774 772
f 774 773 775
f 901 988 990
f 775 548 778
f 549 776 14
f 777 776 548
f 548 775 909
f 12 910 543
f 778 398 1226
f 548 549 778
f 992 779 206
f 780 779 550
f 912 550 399
f 780 914 915
f 403 781 168
f 402 552 781
f 403 782 402
f 282 553 782
f 564 783 203
f 1181 407 284
f 784 202 916
f 925 554 786
f 785 916 915
f 554 917 405
f 922 924 405
f 797 571 796
f 926 549 15
f 787 927 928
f 789 788 449
f 559 788 561
f 929 1002 454
f 1003 789 1002
f 919 994 922
f 922 917 918
f 792 791 565
f 284 791 793
f 509 792 565
f 793 693 684
f 791 792 793
f 693 793 792
f 795 794 197
f 794 570 410
f 796 795 198
f 1182 795 571
f 797 796 199
f 795 796 571
f 200 797 199
f 932 786 933
f 571 797 799
f 799 797 932
f 797 200 932
f 799 798 934
f 800 287 801
f 573 413 800
f 287 414 1183
f 60 61 1217
f 801 286 802
f 412 802 286
f 572 803 197
f 700 803 574
f 945 939 943
f 1196 1197 1211
f 44 805 43
f 805 587 588
f 584 589 806
f 427 806 589
f 594 596 807
f 1066 1068 409
f 1022 1021 931
f 938 811 940
f 36 809 35
f 809 608 1189
f 1190 952 608
f 948 1037 1075
f 39 1196 1195
f 1212 1213 804
f 950 610 453
f 809 1190 608
f 459 813 337
f 454 813 460
f 327 814 330
f 454 814 612
f 815 458 1074
f 1058 999 1000
f 816 246 1168
f 614 339 816
f 816 628 817
f 628 341 817
f 954 616 670
f 616 954 818
f 822 825 828
f 818 819 820
f 820 819 823
f 820 825 824
f 827 823 819
f 845 834 842
f 831 955 829
f 826 666 342
f 866 819 954
f 824 825 822
f 825 820 823
f 824 822 826
f 823 821 825
f 841 828 825
f 822 829 826
f 832 829 622
f 374 1086 827
f 821 823 827
f 841 821 838
f 636 627 828
f 831 829 822
f 832 830 829
f 666 826 830
f 829 830 826
f 828 831 822
f 627 634 955
f 622 629 832
f 974 629 626
f 641 833 837
f 834 836 838
f 834 838 842
f 1224 101 1192
f 837 836 839
f 834 840 839
f 838 836 636
f 839 836 834
f 836 837 833
f 837 835 1191
f 841 636 828
f 838 821 842
f 842 1205 845
f 837 839 835
f 259 1224 956
f 835 839 840
f 821 841 825
f 636 841 838
f 843 821 827
f 821 843 842
f 1085 863 864
f 834 845 846
f 864 865 1084
f 956 847 259
f 1205 842 843
f 846 845 844
f 846 844 847
f 834 846 840
f 1050 844 1205
f 1051 375 1087
f 848 350 1143
f 642 848 969
f 175 849 652
f 662 849 174
f 964 960 965
f 1042 659 660
f 359 656 966
f 966 959 851
f 853 852 360
f 1047 854 657
f 960 962 850
f 960 850 959
f 1146 854 252
f 854 365 1157
f 482 1158 856
f 655 855 481
f 362 1043 1045
f 963 1200 1047
f 1172 1173 1174
f 857 664 1174
f 876 980 378
f 1174 859 857
f 980 858 1173
f 1045 971 1046
f 488 1160 861
f 862 860 666
f 464 342 861
f 666 861 342
f 830 862 666
f 630 972 862
f 495 864 669
f 863 669 864
f 495 1161 865
f 975 1049 1050
f 975 1102 1051
f 975 1050 1084
f 374 827 866
f 819 866 827
f 499 1162 868
f 869 867 673
f 1159 868 484
f 868 363 1082
f 871 874 876
f 260 869 976
f 872 675 501
f 870 872 871
f 680 874 871
f 876 378 871
f 675 872 870
f 680 872 501
f 874 875 873
f 977 869 673
f 875 874 680
f 876 874 873
f 978 680 379
f 878 681 877
f 977 873 976
f 971 1148 1147
f 878 877 380
f 681 262 879
f 260 981 878
f 978 979 875
f 262 384 879
f 879 384 1163
f 1181 553 783
f 686 880 284
f 522 881 390
f 881 703 882
f 703 262 882
f 883 262 681
f 979 1052 878
f 743 882 883
f 717 884 385
f 706 375 885
f 1161 885 375
f 885 496 1164
f 887 886 269
f 886 708 888
f 727 887 269
f 887 728 889
f 982 888 708
f 74 75 888
f 889 728 895
f 890 889 516
f 1053 707 265
f 983 74 982
f 386 891 385
f 716 891 263
f 892 601 604
f 984 719 518
f 97 1193 96
f 732 1193 894
f 1131 97 98
f 732 985 730
f 889 895 714
f 737 895 728
f 743 883 896
f 681 1052 883
f 899 897 395
f 987 754 898
f 10 11 898
f 987 898 11
f 754 899 438
f 395 759 899
f 758 759 900
f 1229 759 901
f 988 759 395
f 1228 773 908
f 210 211 902
f 991 902 211
f 1227 903 396
f 902 903 761
f 768 1194 764
f 906 399 550
f 1092 1093 1090
f 1056 998 997
f 550 779 992
f 765 904 906
f 908 907 762
f 768 907 767
f 762 761 1227
f 908 773 774
f 990 988 989
f 911 543 910
f 13 910 12
f 911 777 909
f 989 911 909
f 911 395 897
f 913 912 399
f 915 914 551
f 1054 1055 993
f 995 999 996
f 780 912 914
f 913 914 912
f 915 551 918
f 204 915 203
f 915 916 203
f 784 916 785
f 785 918 917
f 918 920 922
f 915 918 785
f 918 551 920
f 551 921 920
f 1008 923 1009
f 921 551 913
f 922 920 919
f 913 399 1055
f 921 913 1054
f 994 924 922
f 917 922 405
f 923 994 996
f 790 1000 999
f 1009 1001 1008
f 798 799 1028
f 784 925 201
f 786 200 925
f 927 926 16
f 549 926 787
f 17 927 16
f 558 928 556
f 787 928 560
f 556 928 927
f 1004 454 460
f 815 1059 1004
f 411 931 1218
f 570 795 930
f 934 1013 1015
f 942 939 1039
f 786 1005 933
f 799 932 1028
f 1006 933 1005
f 924 1007 1006
f 1011 1012 1001
f 815 1074 1071
f 936 580 420
f 935 804 1198
f 595 936 420
f 804 935 936
f 812 950 952
f 1204 457 455
f 949 938 610
f 811 1195 943
f 1232 592 807
f 940 942 938
f 811 39 1195
f 940 939 942
f 40 1197 1196
f 1207 1209 1212
f 945 947 939
f 1036 1038 1035
f 811 943 940
f 941 1210 945
f 1207 592 1231
f 1067 808 1064
f 941 945 943
f 1214 947 945
f 1015 411 934
f 948 1039 947
f 1214 945 944
f 947 946 948
f 1025 1016 1020
f 937 1230 1035
f 39 949 38
f 938 949 811
f 950 453 951
f 812 610 950
f 1040 453 942
f 951 1230 1031
f 951 810 952
f 952 810 1189
f 1024 1026 1027
f 1022 931 411
f 866 954 670
f 818 954 819
f 624 955 634
f 829 955 622
f 1224 259 376
f 846 956 840
f 1106 1103 715
f 259 847 1041
f 848 1143 958
f 650 967 958
f 960 959 653
f 851 959 850
f 961 960 653
f 962 251 1042
f 655 961 653
f 1199 965 481
f 964 962 960
f 853 251 962
f 1199 963 965
f 1046 1200 1045
f 965 960 961
f 657 964 963
f 481 965 961
f 963 964 965
f 959 966 656
f 967 966 851
f 851 467 968
f 359 967 650
f 969 968 467
f 958 967 968
f 642 969 467
f 958 969 848
f 851 850 970
f 1042 970 850
f 971 1043 1044
f 363 1159 1147
f 973 972 630
f 253 862 972
f 974 973 630
f 633 432 1201
f 832 974 630
f 626 632 1048
f 1051 865 375
f 1049 1079 1041
f 977 976 869
f 875 976 873
f 1082 1044 1081
f 876 873 977
f 379 896 978
f 979 878 981
f 978 896 979
f 896 883 1052
f 1083 1101 1081
f 673 1081 977
f 976 981 260
f 979 981 875
f 888 982 74
f 708 890 982
f 890 707 1053
f 74 983 73
f 1202 518 77
f 238 892 984
f 894 736 985
f 736 730 985
f 679 986 379
f 526 896 986
f 11 543 987
f 897 987 543
f 989 395 911
f 909 990 989
f 990 909 775
f 395 989 988
f 775 773 990
f 901 990 773
f 211 544 991
f 903 991 544
f 547 992 207
f 550 992 906
f 1093 1057 1090
f 1089 1091 998
f 997 996 994
f 923 924 994
f 998 1056 1054
f 997 998 995
f 997 994 919
f 995 1123 999
f 1056 919 921
f 995 996 997
f 993 1089 998
f 1124 998 1091
f 1000 790 929
f 996 999 1058
f 1000 929 1004
f 613 1060 1009
f 1071 1072 1073
f 1028 1007 1010
f 454 1002 611
f 1003 1002 929
f 929 790 1003
f 1003 790 1122
f 460 815 1004
f 815 613 1059
f 786 554 1005
f 405 1005 554
f 405 924 1006
f 923 1008 924
f 1010 1007 1001
f 933 1006 1007
f 1001 1007 1008
f 924 1008 1007
f 1058 923 996
f 613 1206 1059
f 1011 1001 1060
f 1010 798 1028
f 934 1012 1013
f 1012 934 798
f 1001 1012 1010
f 1012 1011 1013
f 1014 1011 1072
f 1013 1011 1014
f 1023 1017 1019
f 1017 1014 953
f 1023 1013 1014
f 411 1015 1022
f 1017 1020 1016
f 1097 1021 1016
f 1020 1017 1024
f 1019 1017 1016
f 1018 1020 1024
f 1037 1077 1036
f 1019 1016 1021
f 1023 1019 1015
f 1024 1017 953
f 1025 1020 1018
f 1016 1098 1097
f 931 1021 1062
f 1015 1019 1022
f 1021 1022 1019
f 1013 1023 1015
f 1017 1023 1014
f 953 1026 1024
f 1027 1018 1024
f 1077 1076 1018
f 1025 946 1098
f 1026 953 1071
f 456 1035 1038
f 1026 1074 1078
f 1035 456 1033
f 932 933 1028
f 1028 933 1007
f 799 934 1029
f 411 1029 934
f 1031 609 810
f 1032 1030 937
f 951 1031 810
f 937 1030 1031
f 1033 1032 937
f 334 335 1203
f 1031 1230 937
f 1204 456 457
f 1040 951 453
f 1018 1027 1077
f 937 1035 1033
f 1036 1035 1034
f 1036 1034 1037
f 1036 1027 1038
f 1034 1040 1075
f 1037 948 1076
f 1078 1027 1026
f 1038 1078 459
f 947 1039 939
f 1075 1039 948
f 942 1039 1075
f 1230 1040 1034
f 1041 847 1049
f 1099 1041 1117
f 962 1042 850
f 659 1042 251
f 1044 1043 859
f 1045 1043 971
f 1100 859 858
f 977 1101 876
f 1147 1046 971
f 362 1045 856
f 1047 1046 252
f 963 1199 1200
f 854 1047 252
f 963 1047 657
f 623 1048 632
f 633 974 1048
f 1050 1049 844
f 1049 975 1079
f 1085 1050 1086
f 1085 864 1084
f 1087 375 706
f 1051 1215 1079
f 878 1052 681
f 896 1052 979
f 73 1053 265
f 890 1053 983
f 1055 1054 913
f 998 1054 993
f 1088 399 904
f 905 993 1055
f 919 1056 997
f 1054 1056 921
f 1057 1089 1090
f 1112 1113 1094
f 1206 1058 1000
f 1009 923 1058
f 1206 613 1009
f 1004 1059 1206
f 1060 613 1073
f 1001 1009 1060
f 1070 1065 1069
f 1021 1063 1062
f 1021 1097 1063
f 1066 1064 808
f 1063 1069 1067
f 1231 1067 1065
f 285 1062 1064
f 1063 1064 1062
f 1061 1070 1069
f 592 1207 595
f 1068 1066 808
f 1066 409 410
f 1064 1063 1067
f 1069 1063 1061
f 1068 808 1232
f 1068 596 568
f 1061 1098 1070
f 1065 1067 1069
f 1214 946 947
f 1214 1208 1070
f 953 1014 1072
f 815 1071 613
f 1073 1072 1011
f 953 1072 1071
f 1060 1073 1011
f 613 1071 1073
f 1078 1074 458
f 1071 1074 1026
f 1034 1075 1037
f 1040 942 1075
f 946 1076 948
f 1018 1076 1025
f 1036 1077 1027
f 1076 1077 1037
f 459 1078 458
f 1027 1078 1038
f 1051 1079 975
f 957 1041 1079
f 1127 1119 1104
f 1126 1080 1117
f 1082 1081 673
f 1083 1081 1044
f 868 1082 673
f 1044 1082 363
f 1100 1044 859
f 1101 980 876
f 865 1051 1102
f 1085 1084 1050
f 1050 1205 1086
f 1085 374 863
f 827 1086 843
f 374 1085 1086
f 1103 706 717
f 1087 706 1103
f 905 1055 1088
f 399 1088 1055
f 1090 1089 993
f 1091 1089 1057
f 993 905 1090
f 1092 1090 905
f 1057 1094 1091
f 1114 1094 557
f 1194 1092 905
f 1093 1092 769
f 769 772 1095
f 1093 563 1112
f 1112 1094 1057
f 557 1121 1114
f 1226 1096 771
f 1093 1095 1116
f 1115 398 787
f 1116 560 563
f 1098 1016 1025
f 1063 1097 1061
f 1070 1098 946
f 1097 1098 1061
f 1117 1041 957
f 1099 1080 1118
f 980 1100 858
f 1044 1100 1083
f 1081 1101 977
f 980 1101 1083
f 975 1084 1102
f 865 1102 1084
f 715 1107 1106
f 1106 1105 1103
f 1107 1111 1104
f 1111 1110 1104
f 1119 1105 1104
f 1215 1105 957
f 1107 715 712
f 1105 1106 1104
f 1108 1107 712
f 1104 1106 1107
f 738 1108 712
f 1109 1108 734
f 735 1109 734
f 1109 736 1110
f 1135 1110 736
f 1117 1080 1099
f 1108 1111 1107
f 1110 1111 1109
f 1093 1112 1057
f 1113 1112 563
f 562 1113 563
f 557 1094 1113
f 561 1122 1114
f 1123 1122 790
f 1116 1115 560
f 398 1115 1096
f 1095 1096 1116
f 1116 1096 1115
f 1119 957 1105
f 1119 1127 1117
f 1118 1080 1129
f 497 1134 100
f 1127 1104 1110
f 1117 957 1119
f 894 1133 736
f 98 1132 1131
f 558 1121 557
f 561 1121 559
f 1003 1122 561
f 790 999 1123
f 995 1124 1123
f 1123 1124 1125
f 998 1124 995
f 1125 1124 1091
f 1094 1125 1091
f 1122 1125 1114
f 1135 1126 1110
f 1130 1126 1120
f 1110 1126 1127
f 1117 1127 1126
f 376 259 1128
f 1099 1128 259
f 1130 1129 1080
f 98 99 1132
f 1126 1130 1080
f 1130 1120 1131
f 1120 1133 1131
f 1131 1133 97
f 99 1129 1132
f 1131 1132 1129
f 1133 1120 1135
f 97 1133 894
f 99 1134 1118
f 1128 1134 376
f 1133 1135 736
f 1126 1135 1120
f 237 1136 230
f 220 1136 82
f 607 1137 236
f 443 1137 314
f 461 1138 246
f 440 1138 312
f 347 350 1139
f 848 1139 350
f 1141 348 645
f 1140 250 1142
f 1141 473 1216
f 348 1141 1140
f 1155 1142 250
f 958 1142 650
f 350 1140 1143
f 1142 1143 1140
f 249 357 1144
f 473 1144 357
f 853 1145 251
f 360 361 1145
f 252 1046 1147
f 364 365 1146
f 971 1044 1148
f 364 1146 1147
f 1044 363 1148
f 363 1147 1148
f 869 1149 377
f 1150 1149 260
f 878 1150 260
f 380 381 1150
f 437 1151 309
f 757 1151 280
f 559 1152 283
f 555 1152 406
f 333 452 1153
f 609 1153 452
f 358 250 1216
f 179 1154 471
f 1156 1155 358
f 650 1155 475
f 1156 358 474
f 475 1156 646
f 156 1157 155
f 854 1157 478
f 856 1158 362
f 482 483 1158
f 1147 1159 364
f 868 1159 363
f 861 1160 464
f 157 1160 488
f 865 1161 375
f 495 496 1161
f 868 1162 484
f 151 1162 499
f 148 1163 147
f 879 1163 503
f 148 1164 149
f 885 1164 514
f 537 1165 62
f 1165 533 1187
f 696 1188 1187
f 801 287 1183
f 1218 570 930
f 285 1167 1218
f 639 1168 340
f 816 1168 628
f 1220 623 638
f 1170 1221 1169
f 1221 1170 128
f 1220 1170 1169
f 658 642 1171
f 467 1171 642
f 870 1173 500
f 170 1172 664
f 980 1173 378
f 1174 1173 858
f 1174 858 859
f 664 1172 1174
f 1176 1175 525
f 677 1175 679
f 1177 525 391
f 1176 526 986
f 391 742 1177
f 526 1177 742
f 286 1178 412
f 695 1178 698
f 710 1179 711
f 516 714 1179
f 438 305 1180
f 1180 305 308
f 284 880 1181
f 553 1181 880
f 1029 1182 571
f 930 1182 411
f 1184 1183 576
f 1185 1166 1186
f 59 1184 576
f 1184 60 1217
f 801 1183 1185
f 1184 1185 1183
f 1187 1186 1166
f 1188 1186 1187
f 1165 1187 1166
f 1187 533 1225
f 698 1188 696
f 286 1186 1188
f 809 1189 606
f 952 1189 608
f 952 1190 812
f 36 812 1190
f 837 1191 103
f 1192 1191 835
f 835 840 1192
f 1192 840 1224
f 96 1193 893
f 97 894 1193
f 769 1194 770
f 1088 1194 905
f 1196 39 40
f 943 1195 941
f 1197 40 41
f 941 1195 1196
f 41 1198 1197
f 1210 1211 1213
f 935 1198 41
f 1198 804 1213
f 855 1199 481
f 1200 1199 856
f 1045 1200 856
f 1200 1046 1047
f 433 1201 432
f 972 1201 253
f 1202 78 242
f 518 1202 984
f 1030 1203 331
f 334 1203 1032
f 1032 1204 334
f 456 1204 1033
f 845 1205 844
f 1086 1205 843
f 1058 1206 1009
f 1004 1206 1000
f 1065 1208 1207
f 1208 1209 1207
f 1070 1208 1065
f 1209 1208 944
f 1210 1209 944
f 1213 1212 1209
f 945 1210 944
f 1211 1210 941
f 1196 1211 941
f 1197 1198 1213
f 936 1212 804
f 1207 1212 595
f 1210 1213 1209
f 1213 1211 1197
f 1208 1214 944
f 946 1214 1070
f 1079 1215 957
f 1087 1215 1051
f 471 1216 473
f 358 1216 1154
f 1165 1217 61
f 1217 1166 1185
f 411 1218 930
f 285 1218 931
f 1220 1219 623
f 1222 1219 1169
f 1170 1220 639
f 1219 1220 1169
f 128 129 1221
f 129 434 1223
f 633 1222 432
f 1169 1221 1222
f 432 1223 434
f 1221 1223 1222
f 956 1224 840
f 1224 376 497
f 699 1225 530
f 1187 1225 696
f 1096 1226 398
f 774 1226 771
f 1229 396 900
f 901 773 1228
f 762 1228 908
f 901 1228 1227
f 901 1227 1229
f 396 1229 1227
f 1040 1230 951
f 1035 1230 1034
f 1067 1231 808
f 1207 1231 1065
f 1232 807 596
f 808 1231 1232
