# pattern_smooth best-fit FEM (phase 3), RMSE 3.347 mm
# params: /home/chaoyu/phd_simulation/FDM/optimisation/pattern_smooth_rm2_10strip_spline10e01_sI_fol_result.json
v -0.07938931 -1.09618321 0.00000000
v -0.06969151 -1.07660748 0.01394453
v -0.05778809 -1.05262098 0.03104373
v -0.04697783 -1.03093028 0.04653458
v -0.03686665 -1.01088528 0.06082462
v -0.02479126 -0.99061479 0.07344629
v -0.01198685 -0.96927048 0.08678209
v 0.00011933 -0.94921139 0.09935864
v 0.01322806 -0.92758285 0.11296925
v 0.03067687 -0.90717903 0.12299815
v 0.05020505 -0.88472695 0.13392074
v 0.07036804 -0.86159452 0.14522265
v 0.08984714 -0.83926713 0.15618284
v 0.10920763 -0.81947258 0.16340018
v 0.13027097 -0.79926446 0.16922146
v 0.15220145 -0.77820898 0.17533744
v 0.17158534 -0.75959202 0.18078151
v 0.19875459 -0.74838158 0.17358835
v 0.22603968 -0.73714551 0.16640011
v 0.25294959 -0.72609580 0.15933718
v 0.27834503 -0.71863691 0.14686142
v 0.30471003 -0.71175986 0.13231406
v 0.33029876 -0.70514841 0.11820571
v 0.35516611 -0.69879159 0.10449759
v 0.38409232 -0.69148908 0.08854969
v 0.41320016 -0.68424567 0.07249593
v 0.43770571 -0.68101517 0.05390632
v 0.45742149 -0.67926923 0.03752279
v 0.47888752 -0.67742170 0.01969055
v 0.50259542 -0.67541985 0.00000000
v 0.49039294 -0.64682028 0.00000000
v 0.47705156 -0.61803819 0.00000000
v 0.46219909 -0.58938171 0.00000000
v 0.44711907 -0.56028611 0.00000000
v 0.43466338 -0.53625399 0.00000000
v 0.42199442 -0.50695223 0.00000000
v 0.40936106 -0.47587015 0.00000000
v 0.39826563 -0.44857187 0.00000000
v 0.38812015 -0.41671655 0.00000000
v 0.38008588 -0.38478035 0.00000000
v 0.37192372 -0.35233574 0.00000000
v 0.36496608 -0.31949785 0.00000000
v 0.35986056 -0.29113373 0.00000000
v 0.35446270 -0.26114571 0.00000000
v 0.35120710 -0.23184222 0.00000000
v 0.35003794 -0.20144447 0.00000000
v 0.34889887 -0.17182895 0.00000000
v 0.34956442 -0.13632195 0.00000000
v 0.35236641 -0.10870229 0.00000000
v 0.32921689 -0.12159894 0.00681394
v 0.30005100 -0.13779696 0.01535429
v 0.27336484 -0.15247223 0.02301834
v 0.24939037 -0.16563996 0.02990975
v 0.22396076 -0.17959771 0.03723124
v 0.19673683 -0.19418518 0.04471784
v 0.17015492 -0.20829741 0.05189499
v 0.14169552 -0.22193914 0.05856723
v 0.11559549 -0.23319244 0.06381531
v 0.08866703 -0.24481765 0.06923909
v 0.05497663 -0.25779188 0.07475574
v 0.02160567 -0.27074744 0.08030500
v -0.01047167 -0.28155727 0.08463106
v -0.04223816 -0.29148295 0.08845504
v -0.07170980 -0.29739927 0.09055150
v -0.10492729 -0.30308078 0.09252437
v -0.13934549 -0.30673874 0.09364886
v -0.17063137 -0.30850496 0.09405454
v -0.20148669 -0.31013137 0.09446356
v -0.23017822 -0.30709377 0.09308640
v -0.26280703 -0.30229234 0.09103022
v -0.29663603 -0.29713713 0.08885832
v -0.32840743 -0.28903268 0.08528980
v -0.36449118 -0.27971008 0.08122103
v -0.39772124 -0.26917028 0.07661702
v -0.42699000 -0.25717533 0.07135579
v -0.45434573 -0.24593984 0.06643752
v -0.48249571 -0.23223915 0.06033628
v -0.51028925 -0.21778171 0.05386423
v -0.53334742 -0.20577111 0.04849102
v -0.55525954 -0.19435926 0.04338814
v -0.58514850 -0.17491308 0.03457631
v -0.61289901 -0.15685168 0.02639766
v -0.63915695 -0.13977626 0.01866965
v -0.66754511 -0.12021490 0.00974755
v -0.69740458 -0.09893130 0.00000000
v -0.68322463 -0.12364088 0.00928800
v -0.66744693 -0.15115143 0.01962784
v -0.65563960 -0.17175929 0.02737227
v -0.64384809 -0.19265540 0.03514292
v -0.63300519 -0.21661562 0.04277165
v -0.62090079 -0.24340594 0.05130005
v -0.60874437 -0.27036797 0.05988238
v -0.59693467 -0.29744472 0.06826001
v -0.58824153 -0.32677100 0.07466189
v -0.57955833 -0.35619582 0.08108475
v -0.57033863 -0.38761279 0.08794250
v -0.56149816 -0.41936932 0.09447672
v -0.55547088 -0.45452771 0.09819477
v -0.54977631 -0.48808673 0.10175283
v -0.54445251 -0.51973925 0.10512084
v -0.53933880 -0.55035387 0.10839584
v -0.53908949 -0.58398558 0.10718725
v -0.53911899 -0.61618489 0.10583263
v -0.53915604 -0.64847279 0.10450467
v -0.53918689 -0.68035788 0.10322786
v -0.54357111 -0.70967968 0.09897550
v -0.55261036 -0.73961808 0.09141726
v -0.56141946 -0.76884426 0.08407764
v -0.56962327 -0.79608536 0.07726384
v -0.57798844 -0.82387664 0.07033577
v -0.58698018 -0.85376916 0.06290920
v -0.59449609 -0.87644478 0.05680979
v -0.60639757 -0.89858918 0.04773036
v -0.61871404 -0.92150883 0.03835611
v -0.63094359 -0.94425993 0.02906686
v -0.64270918 -0.96613728 0.02014431
v -0.65590659 -0.99066493 0.01014790
v -0.66931298 -1.01557252 0.00000000
v -0.65381575 -1.00142540 0.00847390
v -0.63431010 -0.98364020 0.01914166
v -0.61543136 -0.96647138 0.02947301
v -0.59286100 -0.94602262 0.04184038
v -0.56951974 -0.92497757 0.05466289
v -0.54698358 -0.90515471 0.06683870
v -0.51845770 -0.88673559 0.07811874
v -0.49347040 -0.87068357 0.08806595
v -0.46766721 -0.85470497 0.09815851
v -0.43531261 -0.85030535 0.10349087
v -0.39783400 -0.84520856 0.10975865
v -0.36515369 -0.84952777 0.11034266
v -0.33143284 -0.85564658 0.11007307
v -0.30694320 -0.86957320 0.10496246
v -0.27989203 -0.88513890 0.09928692
v -0.25304339 -0.90057309 0.09372262
v -0.23235631 -0.91913604 0.08542352
v -0.21069686 -0.93913605 0.07645191
v -0.18828872 -0.95986743 0.06720753
v -0.16675937 -0.98119349 0.05745361
v -0.14793220 -1.00550401 0.04523318
v -0.12922835 -1.02991092 0.03301479
v -0.11147232 -1.05333846 0.02132473
v -0.09373195 -1.07697682 0.00955491
v -0.11824023 -0.82406437 0.10319806
v -0.32265168 -0.31769303 0.09678358
v -0.32092165 -0.34747471 0.10761305
v -0.32084816 -0.37793214 0.11734761
v -0.32096476 -0.40876339 0.12591458
v -0.32116584 -0.43969901 0.13326466
v -0.32122704 -0.47050086 0.13930309
v -0.32114036 -0.50160370 0.14423010
v -0.32098972 -0.53266709 0.14797573
v -0.32069349 -0.56338689 0.15046119
v -0.32042301 -0.59431067 0.15179218
v -0.32012500 -0.62522349 0.15192255
v -0.31982935 -0.65618075 0.15083045
v -0.31952584 -0.68711937 0.14850456
v -0.31907302 -0.71762745 0.14493856
v -0.31864181 -0.74856453 0.14003210
v -0.31836540 -0.77966492 0.13370347
v -0.31789192 -0.81044929 0.12604120
v -0.31545570 -0.84118027 0.11633020
v -0.13374312 -0.33652149 0.10141271
v -0.13100473 -0.36706184 0.10940145
v -0.12886410 -0.39759629 0.11655209
v -0.12626363 -0.42747675 0.12264575
v -0.12360251 -0.45740670 0.12776943
v -0.12142102 -0.48753243 0.13186240
v -0.12021838 -0.51793830 0.13483597
v -0.12022082 -0.54824850 0.13651616
v -0.12131130 -0.57880101 0.13693996
v -0.12323840 -0.60944435 0.13621068
v -0.12525424 -0.63993124 0.13448535
v -0.12632850 -0.67046357 0.13167981
v -0.12629680 -0.70127664 0.12776495
v -0.12507096 -0.73185141 0.12300077
v -0.12269259 -0.76244391 0.11746168
v -0.12029109 -0.79347550 0.11076065
v -0.11242112 -0.85445447 0.09483115
v -0.10629658 -0.88477295 0.08593997
v -0.09981318 -0.91395631 0.07704624
v -0.09343547 -0.94354932 0.06707793
v -0.08742374 -0.97333885 0.05633879
v -0.08344926 -1.00398805 0.04370872
v -0.08213421 -1.03388797 0.03020489
v -0.08132899 -1.06498352 0.01535383
v 0.33166745 -0.13166487 0.00796797
v 0.31126536 -0.15509430 0.01793006
v 0.29000762 -0.17776037 0.03023145
v 0.26799070 -0.19915617 0.04411910
v 0.24550843 -0.22054550 0.05933683
v 0.22356954 -0.24238974 0.07527234
v 0.20278495 -0.26530589 0.09132562
v 0.18304477 -0.28959586 0.10739856
v 0.16436141 -0.31445660 0.12278521
v 0.14686018 -0.34048343 0.13734015
v 0.12930179 -0.36648877 0.15032336
v 0.11127079 -0.39211615 0.16123037
v 0.09348270 -0.41792484 0.17039797
v 0.07640416 -0.44420763 0.17797231
v 0.05905223 -0.47030761 0.18344785
v 0.04079272 -0.49511520 0.18607694
v 0.02148773 -0.51933173 0.18629948
v 0.00224754 -0.54368272 0.18463479
v -0.01587728 -0.56896485 0.18160957
v -0.03259696 -0.59527194 0.17732882
v -0.04854084 -0.62205298 0.17147888
v -0.06343560 -0.64944615 0.16412142
v -0.07698645 -0.67748123 0.15556010
v -0.08803093 -0.70680526 0.14640401
v -0.09580342 -0.73710541 0.13726192
v -0.10217612 -0.76747276 0.12746182
v -0.10894322 -0.79682375 0.11601171
v -0.34320092 -0.83008453 0.12207064
v 0.44469622 -0.64281637 0.04601318
v 0.33535356 -0.15380115 0.00763542
v 0.46656954 -0.65548073 0.02645543
v -0.61167125 -0.93980668 0.03757367
v -0.59439582 -0.92183999 0.04810158
v -0.56036605 -0.87471342 0.07128193
v -0.63174030 -0.17041906 0.03243993
v -0.56528741 -0.23949648 0.06136894
v -0.06113222 -1.01214628 0.05105901
v -0.05011270 -0.96343452 0.08149926
v 0.33416747 -0.65931521 0.15050749
v 0.42326672 -0.65906310 0.06704782
v 0.32418358 -0.17566480 0.01552537
v 0.46418999 -0.63408143 0.02267261
v 0.45440857 -0.61123735 0.02505873
v -0.57776332 -0.89865770 0.05949340
v -0.61795253 -0.19340389 0.04197073
v -0.55384354 -0.21849628 0.05402951
v -0.06342207 -0.98610007 0.06356816
v -0.03257378 -0.97377015 0.08239742
v -0.02487698 -0.95225446 0.09869819
v 0.34044856 -0.68340707 0.12914455
v 0.42776971 -0.58794639 0.05341525
v -0.58503716 -0.20589912 0.04834093
v -0.53057690 -0.24472298 0.06544809
v -0.04482519 -0.99362601 0.06718166
v 0.36974302 -0.66159681 0.11500479
v 0.30541246 -0.68101293 0.16183408
v -0.52850159 -0.22516067 0.05717880
v 0.35174177 -0.66754172 0.12902162
v 0.35307794 -0.63990266 0.14125381
v 0.32110864 -0.69194451 0.13940740
v -0.52360990 -0.82505773 0.09545849
v -0.48636447 -0.70255847 0.12911385
v -0.27278856 -0.84470343 0.11658350
v -0.14404982 -0.94062079 0.07267406
v -0.17370608 -0.85474774 0.10697097
v -0.25993599 -0.73462077 0.14355216
v -0.26129542 -0.64152206 0.15377797
v -0.37806705 -0.76398750 0.13640830
v -0.09378890 -0.62823552 0.15104177
v -0.10962634 -0.71721422 0.13425838
v -0.10649880 -0.68695869 0.14033431
v -0.11234504 -0.74734489 0.12685156
v -0.11594633 -1.00097331 0.04270804
v -0.48442665 -0.52492689 0.13104402
v -0.26318898 -0.48603855 0.14598783
v -0.06931498 -0.40435639 0.13196917
v -0.26331938 -0.39285224 0.12537938
v -0.37883803 -0.39278373 0.12350600
v -0.08291477 -0.34620137 0.11298464
v -0.35248636 -0.30813874 0.09358849
v -0.28858482 -0.33075308 0.10292758
v -0.31552604 -0.30126588 0.09055000
v -0.30248606 -0.31636247 0.09701902
v -0.46072987 -0.30189362 0.09140274
v -0.18499853 -0.35889840 0.11613828
v -0.15470599 -0.32507858 0.10451087
v -0.18172522 -0.33251032 0.10586565
v -0.12155111 -0.31829642 0.09471143
v -0.10707038 -0.33613544 0.10775662
v -0.10462064 -0.36247086 0.11473350
v -0.08437048 -0.32016073 0.10273469
v -0.07754036 -0.37578299 0.12273885
v -0.09337878 -1.05002780 0.02313416
v -0.10599913 -1.02845968 0.03229612
v -0.05325522 -0.85718001 0.13059151
v -0.02614595 -0.71411011 0.18282409
v -0.07481576 -0.56491632 0.15816207
v 0.19433636 -0.69598206 0.22323202
v -0.03570787 -0.49329280 0.16245873
v 0.18701145 -0.38834049 0.16398837
v 0.07220427 -0.34273357 0.13302115
v 0.10934721 -0.29484494 0.10992064
v 0.16362384 -0.25300574 0.08625771
v 0.19673693 -0.22437513 0.06687678
v 0.25837681 -0.29303660 0.09134508
v 0.24276861 -0.19583066 0.04639624
v 0.22000750 -0.21052454 0.05667853
v 0.26931265 -0.17268047 0.03202900
v 0.29185635 -0.15860343 0.02304515
v 0.30795357 -0.21849258 0.03403120
v -0.35026245 -0.79529270 0.13031555
v -0.55924698 -0.84582990 0.07752312
v -0.59361160 -0.24501388 0.06035121
v -0.05733715 -0.92010614 0.10069689
v -0.07295418 -0.95509564 0.07456819
v -0.05478187 -0.94218511 0.09076356
v -0.07532123 -0.93317582 0.08406762
v -0.03370424 -0.92839215 0.10753394
v -0.01115886 -0.93277732 0.11494806
v -0.03347322 -0.88956212 0.12680593
v 0.00139832 -0.90426485 0.13212715
v -0.04018751 -0.90900495 0.11447264
v -0.01911814 -0.91197732 0.12179688
v -0.06340077 -0.89033400 0.11104861
v -0.56001216 -0.89294552 0.06674226
v -0.53894069 -0.88543444 0.07427702
v -0.52610771 -0.85655665 0.08607989
v 0.41899125 -0.55962016 0.05627025
v 0.41136070 -0.62246264 0.08006235
v -0.60794410 -0.21780951 0.05062575
v -0.54337590 -0.29720467 0.08152763
v 0.36799452 -0.68204165 0.10618856
v 0.39386727 -0.66699225 0.09048995
v 0.25597156 -0.68253102 0.20042386
v 0.29025510 -0.69993164 0.15865517
v 0.28106229 -0.67876373 0.18428481
v 0.26593232 -0.70461711 0.17402295
v 0.29538374 -0.63835741 0.19903487
v 0.23073822 -0.70684710 0.19682326
v 0.29470778 -0.66146698 0.18544162
v 0.31339605 -0.65184179 0.17482397
v 0.25885212 -0.64487209 0.22498830
v 0.32976147 -0.63526157 0.16839534
v 0.26474082 -0.66498498 0.20687743
v 0.23546247 -0.66004063 0.23020553
v 0.34672476 -0.59252994 0.16588416
v 0.34359092 -0.61637217 0.16187456
v 0.37498853 -0.61711619 0.12398489
v 0.30338355 -0.59515634 0.20827217
v 0.32184727 -0.61300434 0.18609315
v 0.30045317 -0.61706270 0.20456373
v 0.26095370 -0.59432873 0.24257375
v 0.27438931 -0.61981294 0.22555433
v -0.55107062 -0.81729835 0.08653137
v -0.49643645 -0.84007380 0.10031829
v -0.50506459 -0.77046949 0.11422633
v -0.37808184 -0.67116275 0.15079095
v -0.51568278 -0.69827352 0.11732364
v -0.29329180 -0.82535026 0.12253883
v -0.29470429 -0.85126970 0.11361916
v -0.27895522 -0.86575090 0.10902730
v -0.25737303 -0.87791866 0.10552258
v -0.21782427 -0.88593741 0.10225102
v -0.23904538 -0.88803238 0.10232268
v -0.23305788 -0.85753378 0.11222225
v -0.16275467 -0.95766516 0.06835192
v -0.13521167 -0.97671637 0.05647720
v -0.17753655 -0.92613416 0.08373856
v -0.14334238 -0.95924869 0.06511095
v -0.11742639 -0.95669282 0.06105796
v -0.17804932 -0.94550609 0.07488665
v -0.13352528 -0.90705834 0.08274905
v -0.14248248 -0.84670296 0.10329781
v -0.18026346 -0.78222814 0.12670415
v -0.28408143 -0.70345556 0.14841346
v -0.29193487 -0.73407090 0.14381560
v -0.18244529 -0.61882092 0.14854257
v -0.26222091 -0.57946957 0.15448170
v -0.28541331 -0.61033137 0.15444629
v -0.29310584 -0.64121856 0.15341293
v -0.35457623 -0.73304697 0.14355849
v -0.11260897 -0.62609149 0.14170667
v -0.10505978 -0.64849002 0.14456384
v -0.10168005 -0.60585976 0.14757845
v -0.08469642 -0.64747332 0.15447026
v -0.07396231 -0.60849104 0.16033406
v -0.13008765 -1.01190381 0.04049729
v -0.09874200 -0.99215109 0.04891805
v -0.37864585 -0.57839487 0.15211138
v -0.37888718 -0.48560786 0.14311390
v -0.51504865 -0.53053531 0.11974390
v -0.28646381 -0.51710990 0.14924930
v -0.17824001 -0.53204383 0.14717506
v -0.18329193 -0.44590072 0.13703725
v -0.28680108 -0.45520466 0.13946803
v -0.29470323 -0.48602699 0.14449153
v -0.10058888 -0.40866963 0.12645538
v 0.01847103 -0.42158879 0.15743239
v -0.29474227 -0.39314735 0.12375817
v -0.35571885 -0.42342319 0.13113262
v -0.34775881 -0.39259564 0.12298309
v -0.33525712 -0.30477142 0.09194255
v -0.34411439 -0.33331316 0.10347970
v -0.44997764 -0.27467241 0.08045203
v -0.22074320 -0.34327176 0.10934654
v -0.15953246 -0.38175231 0.12035597
v -0.04553326 -0.32957988 0.10911933
v -0.10069589 -1.01209685 0.04055530
v -0.08459708 -0.86508023 0.10847376
v 0.01911819 -0.83893462 0.16508917
v -0.05018972 -0.79810099 0.15200257
v -0.05692437 -0.70257294 0.16585378
v 0.08380111 -0.77475299 0.20089782
v 0.01133471 -0.63913300 0.20581701
v -0.10056480 -0.56394347 0.14677986
v -0.10238363 -0.58482850 0.14686404
v -0.08596532 -0.52947532 0.15021970
v -0.10108235 -0.54342241 0.14512084
v -0.04596014 -0.56851043 0.17019769
v 0.07694381 -0.54382850 0.21871393
v 0.17587421 -0.72873486 0.20884410
v -0.01043855 -0.51333422 0.17492832
v -0.07672414 -0.46711191 0.14430041
v 0.18544013 -0.34857447 0.14121702
v 0.16091769 -0.36966056 0.15457299
v 0.15038464 -0.43966907 0.19264513
v 0.09772718 -0.36166723 0.14600684
v 0.13437920 -0.31192809 0.12181059
v 0.11299648 -0.26313673 0.08848362
v 0.13720219 -0.24643647 0.07929268
v 0.18079309 -0.26717614 0.09463343
v 0.18951843 -0.24584106 0.08119253
v 0.15557103 -0.28037234 0.10345692
v 0.18822201 -0.20889538 0.05566174
v 0.31044530 -0.31376368 0.06883409
v 0.25950392 -0.25556727 0.07208052
v 0.22027722 -0.29917765 0.10734768
v 0.33230181 -0.21718151 0.01684076
v 0.32890846 -0.19628249 0.01605030
v 0.32257653 -0.24891099 0.03236448
v 0.29142147 -0.20136238 0.03698414
v 0.27753968 -0.22996790 0.05357502
v -0.33012964 -0.79520265 0.13035007
v -0.34062997 -0.77482413 0.13535277
v -0.36167429 -0.77727677 0.13428325
v -0.35409843 -0.75592322 0.13927052
v -0.39550898 -0.80087444 0.12440300
v -0.37325378 -0.79658954 0.12858889
v -0.37948582 -0.82470566 0.12188243
v -0.57182954 -0.27359428 0.07118667
v -0.58319605 -0.22675915 0.05604322
v -0.04806313 -0.87653803 0.12523195
v -0.01908402 -0.85671171 0.14735413
v -0.08670351 -0.89685266 0.09398345
v -0.51191426 -0.86960475 0.08522083
v -0.54570604 -0.86075047 0.07914020
v 0.43392223 -0.56991286 0.03428110
v 0.42422906 -0.63866676 0.06648264
v 0.39940919 -0.64377753 0.09086798
v -0.57078234 -0.30464333 0.07817296
v 0.23663442 -0.72260995 0.17647221
v 0.21458993 -0.72324701 0.19168633
v 0.23291216 -0.68392903 0.21432228
v 0.20652040 -0.66752982 0.23727089
v 0.21506245 -0.69402039 0.21648919
v 0.37396630 -0.63966995 0.11914164
v 0.39078240 -0.58528217 0.10642642
v 0.35617574 -0.48098416 0.12358718
v 0.22086692 -0.61430158 0.26032182
v 0.28254199 -0.59966479 0.22532132
v 0.28187988 -0.55650126 0.22606529
v 0.27578869 -0.57832667 0.23439516
v 0.23838390 -0.55771128 0.24998902
v 0.25520472 -0.57275532 0.24643902
v 0.22796011 -0.58571925 0.26117556
v -0.54130182 -0.83569299 0.08665512
v -0.48662449 -0.85513273 0.09677010
v -0.53355713 -0.76173497 0.10283345
v -0.34677554 -0.67121521 0.15109392
v -0.50658776 -0.73386572 0.11825947
v -0.49464642 -0.65724378 0.12840450
v -0.24656459 -0.79507760 0.13054505
v -0.14830867 -0.98909758 0.05330383
v -0.20421895 -0.91426633 0.09089406
v -0.11449498 -0.90255261 0.08121814
v -0.12786814 -0.88612627 0.08861637
v -0.12006147 -0.92339426 0.07439422
v -0.16357570 -0.88860727 0.09460962
v -0.12451618 -0.84174060 0.10036806
v -0.15384169 -0.80958737 0.11545214
v -0.15842018 -0.75075844 0.12879573
v -0.30502332 -0.70296035 0.14778947
v -0.29489292 -0.67891248 0.15080466
v -0.30975754 -0.73356076 0.14317454
v -0.29200324 -0.76504118 0.13812210
v -0.18521959 -0.68576231 0.14350265
v -0.16208273 -0.65345118 0.14264081
v -0.15103263 -0.62215871 0.14259166
v -0.29375698 -0.57914437 0.15356688
v -0.30621029 -0.61007296 0.15332794
v -0.31084494 -0.64098261 0.15228459
v -0.33326005 -0.73301247 0.14326629
v -0.34396127 -0.70870883 0.14717488
v -0.10923068 -0.66733368 0.14100950
v -0.07279457 -0.62984492 0.16067235
v -0.05381796 -0.60076282 0.16887380
v -0.07100812 -0.58667381 0.16111565
v -0.11478806 -0.97848938 0.05171546
v -0.34748793 -0.57831880 0.15252467
v -0.35584144 -0.51662473 0.14760521
v -0.34798433 -0.48556836 0.14318491
v -0.53282548 -0.53371248 0.11154045
v -0.30712082 -0.51718819 0.14772845
v -0.29662106 -0.54156668 0.15108270
v -0.14698439 -0.53256622 0.14223388
v -0.15690062 -0.47407837 0.13825559
v -0.30736893 -0.45504745 0.13785132
v -0.29710103 -0.43069681 0.13342878
v -0.31219580 -0.48605610 0.14289112
v -0.11843048 -0.41124910 0.12228606
v -0.09896461 -0.43830909 0.13266658
v -0.08603356 -0.39429618 0.12624747
v -0.10783245 -0.38710157 0.12031888
v 0.02119946 -0.46034805 0.17104601
v 0.05525071 -0.40982200 0.16111362
v -0.31203960 -0.39332930 0.12258520
v -0.29500112 -0.36228567 0.11416084
v -0.33491529 -0.42390078 0.13051521
v -0.34543873 -0.44782625 0.13625867
v -0.32995122 -0.39297069 0.12224427
v -0.39803894 -0.33585472 0.10549900
v -0.34613987 -0.36220289 0.11372017
v -0.48045469 -0.26331389 0.07491665
v -0.19959065 -0.34407537 0.11018743
v -0.21181385 -0.36942975 0.11931114
v -0.21770352 -0.32323234 0.10073372
v -0.24655055 -0.33013270 0.10372541
v -0.14069065 -0.38220345 0.11631277
v -0.15096578 -0.36342788 0.11455932
v -0.14912160 -0.40010633 0.12255414
v -0.18668880 -0.40786718 0.12940394
v -0.14954799 -0.34411292 0.10927257
v -0.05422946 -0.30950506 0.09935038
v -0.02901261 -0.31083873 0.10101894
v -0.00188785 -0.34952092 0.12345142
v -0.02058911 -0.33374711 0.11321980
v -0.04046743 -0.36593991 0.12445835
v 0.01412130 -0.31206091 0.10639253
v -0.02229889 -0.35452365 0.12241774
v -0.01109371 -0.39337799 0.14002597
v -0.00830229 -0.37104411 0.13177900
v -0.00753061 -0.31594701 0.10572302
v 0.02388608 -0.38527118 0.14432681
v -0.06696563 -0.33147469 0.10889355
v -0.06034688 -0.35362749 0.11747591
v -0.10157550 -0.86889687 0.09571746
v -0.08366305 -0.82637865 0.12287083
v 0.04210011 -0.85940748 0.15566965
v -0.08111401 -0.79020885 0.13532368
v -0.07409467 -0.69586831 0.15612352
v -0.06909095 -0.72824789 0.15554203
v -0.04850643 -0.67463278 0.17269274
v 0.07779972 -0.81109517 0.18190002
v 0.10390978 -0.79623109 0.18655342
v -0.01657642 -0.62320429 0.18954285
v 0.03747049 -0.58858567 0.21275631
v -0.09496518 -0.50078259 0.14338159
v -0.05739977 -0.53948869 0.16260505
v 0.05221318 -0.52435525 0.20233744
v 0.18287111 -0.74589935 0.19282021
v 0.15732729 -0.74613005 0.20298123
v 0.13165632 -0.70363467 0.23117703
v 0.15060672 -0.72257417 0.22044017
v 0.16900335 -0.70350470 0.22649151
v 0.11224083 -0.74255485 0.21581679
v 0.17287957 -0.66895311 0.24258962
v 0.12815664 -0.72656867 0.22189937
v 0.09405237 -0.70697940 0.22925775
v 0.00411897 -0.52511886 0.18209664
v 0.00929456 -0.48951219 0.17588400
v -0.10226710 -0.46991539 0.13669046
v 0.16782626 -0.33600820 0.13510616
v 0.19054917 -0.32162607 0.12536393
v 0.14588767 -0.35904084 0.14781070
v 0.14267040 -0.39571258 0.16804079
v 0.11354088 -0.45028331 0.19186964
v 0.11257794 -0.37308151 0.15279452
v 0.11635640 -0.33723023 0.13505312
v 0.07996465 -0.38805314 0.15623948
v 0.10621397 -0.24787184 0.07497195
v 0.09271811 -0.26266842 0.08473208
v 0.17067858 -0.23031039 0.07093975
v 0.13534391 -0.26875804 0.09516282
v 0.13638816 -0.29031501 0.10915762
v 0.34055103 -0.30847859 0.03599844
v 0.24447911 -0.24103647 0.07004105
v 0.23574973 -0.26437515 0.08447901
v 0.25319802 -0.27415951 0.08394603
v 0.28861286 -0.27591216 0.06735906
v 0.20379128 -0.28618965 0.10318438
v 0.34167368 -0.24748782 0.01344278
v 0.33429157 -0.26785365 0.02689547
v 0.31029427 -0.26857389 0.04931733
v 0.29683411 -0.24683619 0.05010692
v 0.30639244 -0.29115658 0.06190820
v 0.28299435 -0.30078425 0.08246620
v 0.25720790 -0.34320394 0.11893283
v 0.26445744 -0.31841628 0.10168859
v 0.24173285 -0.31014674 0.10675371
v 0.29046189 -0.33994621 0.09834832
v 0.21866855 -0.32765507 0.12354351
v 0.28438243 -0.32083193 0.09165405
v 0.26373048 -0.21731234 0.05309664
v -0.36262761 -0.83219545 0.12115590
v -0.57650802 -0.25451108 0.06539359
v -0.55341966 -0.25998626 0.06909590
v -0.59102224 -0.27760729 0.06761435
v -0.56009603 -0.33372451 0.08593588
v -0.56056421 -0.28911012 0.07667586
v 0.41047785 -0.57840194 0.07743245
v 0.39428570 -0.56273098 0.09961891
v 0.40866760 -0.60041900 0.08328933
v 0.40379530 -0.53112165 0.06880687
v 0.36363296 -0.57259321 0.14678064
v 0.38655165 -0.46917450 0.06391097
v 0.21541343 -0.64117868 0.24967653
v 0.24718381 -0.61908716 0.24596548
v 0.18004308 -0.55360748 0.25232522
v -0.54229508 -0.78950086 0.09492624
v -0.32886223 -0.67141546 0.15040975
v -0.34651228 -0.64060387 0.15282651
v -0.50326967 -0.71370119 0.12151760
v -0.52432498 -0.71895563 0.11142081
v -0.48331774 -0.72679505 0.12765242
v -0.52711819 -0.74092005 0.10827479
v -0.48940596 -0.75116834 0.12250749
v -0.43873012 -0.70767811 0.14057592
v -0.46025705 -0.78988878 0.12222678
v -0.46328743 -0.71146212 0.13510274
v -0.48013826 -0.77453086 0.12136166
v -0.45178666 -0.74720156 0.13242738
v -0.45610308 -0.67098983 0.14013294
v -0.49792668 -0.80347579 0.10994515
v -0.44865581 -0.72642837 0.13639101
v -0.41168421 -0.74213263 0.13907053
v -0.47123269 -0.74271892 0.12905550
v -0.45872368 -0.76799247 0.12726307
v -0.42495671 -0.78138463 0.12889038
v -0.46786508 -0.68986005 0.13574572
v -0.47790059 -0.67079991 0.13400428
v -0.46684891 -0.64017197 0.13869439
v -0.49971839 -0.68055255 0.12534781
v -0.48009548 -0.79430702 0.11748294
v -0.47685173 -0.82117998 0.11175016
v -0.51894589 -0.66422464 0.11650098
v -0.51351172 -0.63592295 0.12014411
v -0.26618303 -0.81663635 0.12536046
v -0.22234803 -0.90456469 0.09509362
v -0.12598035 -0.94095096 0.06829727
v -0.18368782 -0.90235821 0.09317975
v -0.13286897 -0.80941111 0.11052732
v -0.14384770 -0.78697716 0.11830000
v -0.16286647 -0.79202248 0.12139502
v -0.15823751 -0.77174233 0.12487541
v -0.18747861 -0.81464129 0.12022195
v -0.13749395 -0.74871409 0.12389817
v -0.14996442 -0.72641154 0.13085590
v -0.19153166 -0.72616656 0.13904161
v -0.17083561 -0.73305973 0.13433964
v -0.16803827 -0.70649041 0.13790309
v -0.19001663 -0.75513197 0.13384130
v -0.25831896 -0.67804779 0.15113280
v -0.29234964 -0.79535057 0.13110004
v -0.27588372 -0.75027156 0.14110970
v -0.26683740 -0.77630448 0.13566819
v -0.14060417 -0.65444680 0.13745745
v -0.15230267 -0.67960618 0.13782157
v -0.13326639 -0.62380616 0.13807457
v -0.14787536 -0.59208720 0.14339409
v -0.31146655 -0.57902330 0.15219398
v -0.38029566 -0.70733972 0.14691481
v -0.09119644 -0.66482798 0.15007676
v -0.32968856 -0.57857481 0.15185148
v -0.34714556 -0.54765138 0.15067432
v -0.34675869 -0.60964346 0.15330061
v -0.33510228 -0.51691048 0.14708821
v -0.33026577 -0.48578401 0.14244209
v -0.26032973 -0.54295679 0.15257652
v -0.12928335 -0.53280535 0.13826791
v -0.14578096 -0.50314933 0.13979342
v -0.13630140 -0.47298750 0.13373985
v -0.14837664 -0.45017801 0.13278129
v -0.16663138 -0.45679031 0.13696705
v -0.16455080 -0.43563616 0.13287235
v -0.19539873 -0.48269005 0.14411844
v -0.26096470 -0.42916895 0.13503222
v -0.08381954 -0.42170970 0.13315167
v -0.07620423 -0.44353986 0.13983565
v -0.03973856 -0.45509971 0.15238119
v -0.05998863 -0.45517142 0.14672164
v -0.05558746 -0.47905699 0.15315283
v -0.04940869 -0.42623835 0.14228500
v -0.07574616 -0.48916239 0.14843337
v 0.03820898 -0.47346494 0.17946000
v 0.04361124 -0.44806099 0.17275148
v 0.02501530 -0.44068715 0.16577226
v 0.04088805 -0.42612326 0.16449771
v -0.00851389 -0.44214512 0.15739942
v 0.03400457 -0.40474147 0.15462098
v 0.04948903 -0.38368711 0.14898439
v 0.03477829 -0.34939035 0.12998378
v 0.03580843 -0.36910443 0.13958730
v 0.05789031 -0.36128411 0.14002534
v 0.01602676 -0.36077960 0.13198799
v 0.07290233 -0.42255658 0.16936026
v -0.31229535 -0.36255704 0.11313743
v -0.27911502 -0.37731753 0.11983014
v -0.24803202 -0.36289284 0.11629849
v -0.27132793 -0.35364392 0.11215858
v -0.30172139 -0.34469127 0.10770138
v -0.38128728 -0.44892472 0.13664770
v -0.37124136 -0.32764313 0.10206383
v -0.42038676 -0.30226376 0.09247213
v -0.36328608 -0.37640433 0.11861137
v -0.36890732 -0.35204324 0.11093296
v -0.38735619 -0.36909834 0.11657308
v -0.42814403 -0.39755030 0.12298165
v -0.40404145 -0.38871468 0.12193845
v -0.41733768 -0.36033221 0.11347031
v -0.40517769 -0.42356639 0.13040764
v -0.39415116 -0.40633974 0.12685140
v -0.38257020 -0.42598935 0.13180963
v -0.47009310 -0.28234468 0.08330728
v -0.50678074 -0.28881030 0.08413455
v -0.48513002 -0.30104739 0.08965561
v -0.51545202 -0.32968834 0.09489634
v -0.50458870 -0.31084607 0.09122934
v -0.52634174 -0.31086491 0.08799624
v -0.47851264 -0.33785687 0.10218186
v -0.54614496 -0.31814963 0.08605791
v -0.53679563 -0.34088776 0.09302657
v -0.47338896 -0.31799478 0.09637701
v -0.44341487 -0.33611637 0.10450556
v -0.55454833 -0.36015810 0.09146944
v -0.50525180 -0.37291548 0.10648398
v -0.51658274 -0.35257707 0.09989466
v -0.53184480 -0.37410891 0.10031100
v -0.49404325 -0.35376000 0.10430430
v -0.46581912 -0.38313014 0.11551137
v -0.48405490 -0.37245044 0.11038403
v -0.49306212 -0.40946572 0.11610177
v -0.46380130 -0.35802046 0.10945821
v -0.44122615 -0.37259403 0.11552371
v -0.46251963 -0.26120228 0.07431197
v -0.24736205 -0.31280653 0.09590169
v -0.26712542 -0.32234956 0.09996378
v -0.19052631 -0.38310970 0.12330540
v -0.21671892 -0.39926206 0.12816243
v -0.16920771 -0.34702085 0.11199240
v -0.05567295 -0.38451572 0.12863213
v -0.03288007 -0.38687377 0.13351040
v -0.02896659 -0.41119605 0.14241616
v -0.04822909 -0.40357506 0.13604337
v -0.02853208 -0.43330388 0.14933679
v -0.00539976 -0.41691135 0.14989363
v 0.00998604 -0.40179654 0.14801598
v -0.10194108 -0.81777395 0.11382616
v -0.10036049 -0.83969784 0.10733457
v 0.01037613 -0.87146214 0.14921946
v -0.06990156 -0.80906661 0.13697775
v -0.05801804 -0.83202025 0.13703312
v -0.07516293 -0.84566834 0.12177692
v -0.03576076 -0.84048429 0.14579770
v -0.00853693 -0.82805522 0.16262180
v -0.04707963 -0.72283168 0.16951075
v -0.04851553 -0.76051930 0.16222575
v -0.02560711 -0.74260623 0.17894278
v -0.03601578 -0.69375379 0.17906944
v 0.00805220 -0.68612422 0.20386290
v -0.01778208 -0.66933324 0.19061476
v -0.01266385 -0.69565260 0.19206165
v 0.01316718 -0.72764609 0.20094139
v 0.00550936 -0.70748439 0.20056326
v 0.04810199 -0.70381753 0.21922205
v 0.02732196 -0.71115121 0.20997566
v 0.05111640 -0.74663820 0.20905322
v 0.03521323 -0.73169492 0.20898142
v 0.01607233 -0.76998722 0.19149196
v 0.03056835 -0.75352512 0.20155029
v 0.04913709 -0.78670082 0.19375297
v 0.09104453 -0.82253553 0.16934833
v 0.06736018 -0.83524686 0.16740234
v 0.08580902 -0.79347505 0.19065500
v -0.03255098 -0.61373880 0.17969086
v -0.00244101 -0.59602156 0.19390255
v -0.10146657 -0.51905869 0.14281945
v -0.07582723 -0.54547577 0.15603427
v -0.02752210 -0.54125507 0.17394146
v 0.03816763 -0.51304267 0.19195230
v 0.03249662 -0.54839112 0.20089561
v 0.07182512 -0.49920726 0.20082984
v 0.11049302 -0.76971006 0.20052656
v 0.19012501 -0.67661705 0.23637957
v 0.18895454 -0.65513631 0.24735694
v 0.15650548 -0.62916544 0.25371271
v -0.01312564 -0.49087234 0.16920886
v -0.00351712 -0.46720644 0.16612941
v -0.02648480 -0.47290113 0.16073437
v 0.12791300 -0.38492157 0.16041279
v 0.12382930 -0.42025607 0.17882247
v 0.09639646 -0.43878534 0.18172267
v 0.09179734 -0.46435372 0.19267630
v 0.12877671 -0.49903138 0.21831207
v 0.11475591 -0.47668337 0.20493093
v 0.11344787 -0.31569135 0.12275796
v 0.08106355 -0.31125745 0.11647437
v 0.09502885 -0.32894789 0.12848229
v 0.09481012 -0.39923154 0.16284371
v 0.33384776 -0.34850724 0.06358928
v 0.34065246 -0.28784876 0.02707971
v 0.27997879 -0.25730687 0.06374992
v 0.23981734 -0.33101511 0.11903021
v 0.22228285 -0.36735410 0.14553282
v 0.42012684 -0.54104701 0.04248711
v 0.37091873 -0.54053899 0.13078148
v 0.37238253 -0.43848956 0.06699953
v 0.39616843 -0.49938697 0.06634042
v 0.24259031 -0.59889384 0.25754051
v 0.23638332 -0.63756009 0.24347480
v 0.20833138 -0.56340212 0.25822315
v -0.53331186 -0.80805541 0.09573565
v -0.51906610 -0.78915732 0.10528066
v -0.36262278 -0.65538552 0.15218074
v -0.37583053 -0.62466648 0.15287856
v -0.38624315 -0.64730074 0.15168251
v -0.42416703 -0.61584640 0.14830656
v -0.41725080 -0.67107335 0.14734866
v -0.40110622 -0.62662736 0.15102168
v -0.39769395 -0.66445244 0.14985324
v -0.41473387 -0.64679850 0.14900353
v -0.39982122 -0.69024282 0.14759894
v -0.39028272 -0.60215276 0.15212791
v -0.43680132 -0.65656573 0.14512208
v -0.42186072 -0.69285173 0.14491458
v -0.40520432 -0.71632574 0.14394870
v -0.43676353 -0.67824222 0.14373162
v -0.42544883 -0.72506657 0.14031460
v -0.48993373 -0.63368142 0.13079178
v -0.46575034 -0.59307462 0.13914950
v -0.50452697 -0.59865588 0.12509246
v -0.47267986 -0.61632622 0.13720051
v -0.50326419 -0.61865145 0.12571503
v -0.44828686 -0.62292998 0.14353329
v -0.48454497 -0.60033107 0.13299397
v -0.48800974 -0.56271038 0.13134176
v -0.43258241 -0.63623765 0.14658521
v -0.44210585 -0.59930702 0.14487411
v -0.41543668 -0.58811539 0.14912449
v -0.44357676 -0.55719118 0.14327920
v -0.44920610 -0.57848801 0.14289730
v -0.46543592 -0.56281559 0.13839193
v -0.46054822 -0.53656502 0.13827419
v -0.24784927 -0.83554065 0.11945312
v -0.14675111 -0.70571941 0.13303229
v -0.22378675 -0.74242883 0.14014546
v -0.21500150 -0.77928600 0.13198673
v -0.27641334 -0.68563557 0.15051569
v -0.25676620 -0.70482305 0.14799867
v -0.27691911 -0.66071182 0.15278850
v -0.17099890 -0.67143337 0.14265088
v -0.19422893 -0.64869773 0.14847355
v -0.16544787 -0.60494179 0.14634428
v -0.17797504 -0.56933187 0.14861339
v -0.18957433 -0.59316746 0.15031104
v -0.36239166 -0.71515105 0.14630855
v -0.36068535 -0.69104345 0.14933689
v -0.38125887 -0.73411722 0.14279200
v -0.36316487 -0.56254598 0.15166059
v -0.37106054 -0.53760921 0.14963187
v -0.38264760 -0.51286671 0.14664011
v -0.36295193 -0.59410169 0.15306153
v -0.27846409 -0.53510288 0.15146696
v -0.28006483 -0.55946529 0.15331737
v -0.25950257 -0.51592664 0.15006490
v -0.16259965 -0.51691133 0.14394565
v -0.18713055 -0.50758362 0.14618365
v -0.16817427 -0.49426259 0.14244591
v -0.22415223 -0.50545721 0.14840572
v -0.20533874 -0.49953914 0.14682546
v -0.22297857 -0.47754881 0.14467129
v -0.20642439 -0.52738262 0.14968217
v -0.27895188 -0.43710101 0.13603912
v -0.25984632 -0.45623824 0.14094302
v -0.27898709 -0.41213068 0.12995351
v -0.06397599 -0.51328042 0.15646209
v -0.22870289 -0.36044042 0.11583076
v -0.23564114 -0.38358146 0.12339737
v -0.24181722 -0.40976241 0.13075227
v -0.36360056 -0.44119413 0.13518349
v -0.36350536 -0.46622317 0.14012546
v -0.44062822 -0.29420371 0.08898224
v -0.44385536 -0.31502455 0.09713985
v -0.42300433 -0.27954731 0.08240846
v -0.42282587 -0.32512299 0.10147666
v -0.39251122 -0.30851526 0.09487488
v -0.37044046 -0.41049700 0.12813481
v -0.52814738 -0.27135831 0.07568175
v -0.55118642 -0.38126345 0.09510175
v -0.52982066 -0.40866143 0.10584567
v -0.43569887 -0.35407533 0.11060911
v -0.20874020 -0.42842628 0.13521334
v 0.02340156 -0.85741789 0.15717284
v 0.02118312 -0.89033493 0.13809282
v 0.00009861 -0.84698188 0.15722224
v -0.03046543 -0.81486889 0.15740050
v -0.00374250 -0.79545222 0.17609693
v -0.07533216 -0.75430065 0.14714242
v -0.06125749 -0.77890534 0.15048801
v 0.00541318 -0.66222571 0.20322555
v 0.03845524 -0.67154277 0.21905662
v -0.01260679 -0.64648249 0.19316694
v -0.00892395 -0.72807941 0.19017140
v -0.00127435 -0.75200385 0.18925675
v 0.05168690 -0.81385797 0.18066382
v 0.05922952 -0.85176124 0.15685736
v 0.04564952 -0.83543184 0.16913757
v 0.00509320 -0.61744816 0.20068444
v 0.03744676 -0.62054834 0.21738873
v 0.01907359 -0.60060533 0.20569881
v 0.01372177 -0.57281540 0.19792110
v 0.01865280 -0.53719360 0.19083919
v 0.05490269 -0.54666105 0.21052049
v 0.04550365 -0.56727945 0.21192034
v 0.08237495 -0.59374711 0.23265058
v 0.06090459 -0.58544972 0.22266081
v 0.06349851 -0.61232295 0.22810197
v 0.07896406 -0.56876085 0.22648128
v 0.12695915 -0.57535592 0.24380812
v 0.10531387 -0.55410237 0.23200765
v 0.05741454 -0.48843314 0.19060803
v 0.13050875 -0.77989546 0.18786880
v 0.14411174 -0.76268969 0.19396780
v 0.13315775 -0.74740137 0.20978390
v 0.18837906 -0.62002518 0.26155969
v 0.14576210 -0.41780747 0.18029316
v 0.17995176 -0.42229966 0.18391074
v 0.09362099 -0.48864425 0.20426226
v 0.09377073 -0.51883038 0.21630531
v 0.14708905 -0.47220620 0.20923295
v 0.34821449 -0.33051684 0.03521293
v 0.32654708 -0.32867659 0.06130456
v 0.32521582 -0.55293111 0.19065036
v 0.36582491 -0.45992503 0.09500492
v 0.32311324 -0.44049452 0.13498142
v 0.34864577 -0.44457971 0.10812287
v 0.34949195 -0.40331959 0.07782310
v 0.32638249 -0.46944236 0.15243924
v 0.34261565 -0.42374823 0.10130256
v 0.30261173 -0.40192898 0.12691483
v 0.31841597 -0.41834287 0.12441182
v 0.27884780 -0.43927261 0.16794196
v 0.30120994 -0.43397889 0.14948132
v 0.29714637 -0.46340345 0.17227322
v 0.38632978 -0.45063720 0.04508061
v 0.37623264 -0.48985637 0.09771863
v 0.34872755 -0.51603979 0.15448533
v 0.37512234 -0.51388424 0.11446588
v 0.21375596 -0.50473865 0.23081999
v -0.35718595 -0.62484945 0.15324802
v -0.44929925 -0.69229449 0.14017514
v -0.47895818 -0.54450681 0.13374810
v -0.45052325 -0.48534477 0.13571786
v -0.21532580 -0.83052921 0.11913004
v -0.20408089 -0.74142809 0.13824994
v -0.21534406 -0.71936083 0.14315933
v -0.19820773 -0.70451883 0.14312542
v -0.23885529 -0.72352641 0.14443588
v -0.22095755 -0.67524622 0.14921364
v -0.23151000 -0.69893573 0.14738496
v -0.21349986 -0.69286980 0.14654374
v -0.19693955 -0.77291609 0.13117961
v -0.19917917 -0.79535822 0.12651277
v -0.22289924 -0.80245773 0.12708620
v -0.24015533 -0.81548160 0.12484140
v -0.24062000 -0.76841413 0.13628358
v -0.22602289 -0.61614919 0.15327873
v -0.39316053 -0.75080022 0.13871436
v -0.41114026 -0.76397582 0.13445511
v -0.43078052 -0.75378200 0.13473288
v -0.42252361 -0.52209488 0.14403249
v -0.24546956 -0.49925430 0.14808205
v -0.23569288 -0.53024495 0.15131434
v -0.20531811 -0.45886169 0.14090867
v -0.23233506 -0.45105636 0.14018660
v -0.19542847 -0.55051221 0.15016777
v -0.24502270 -0.47310497 0.14415972
v -0.40292759 -0.28950098 0.08668171
v -0.38149708 -0.29122126 0.08695303
v -0.50492840 -0.26463250 0.07521030
v -0.51727794 -0.39102345 0.10673667
v -0.18912705 -0.42716033 0.13381433
v 0.03561821 -0.87701517 0.14465543
v 0.01258739 -0.81423386 0.17411838
v 0.03234299 -0.81931115 0.17584966
v 0.02728139 -0.79534831 0.18552841
v -0.08361946 -0.77135881 0.13826609
v -0.03864246 -0.64594306 0.17846397
v 0.06082712 -0.64621103 0.22881574
v 0.10261859 -0.57931420 0.23701065
v 0.11527113 -0.61978307 0.24476874
v 0.11791570 -0.59672061 0.24426609
v 0.09934953 -0.60598058 0.23976109
v 0.08891744 -0.63502234 0.23815989
v 0.13866355 -0.61107576 0.25068392
v 0.16607794 -0.60214342 0.25812861
v 0.14238991 -0.53797885 0.23796078
v 0.19697147 -0.63755569 0.25525463
v 0.17630369 -0.63729669 0.25505904
v 0.20012977 -0.59352006 0.26428328
v 0.07295395 -0.52040191 0.20929373
v 0.09486392 -0.53794164 0.22337631
v 0.11849119 -0.53404948 0.22973932
v 0.12801016 -0.55394391 0.23885683
v 0.15412024 -0.56575876 0.24979182
v 0.13303356 -0.51951647 0.22816094
v 0.17288098 -0.51143151 0.23331688
v 0.15076908 -0.50546495 0.22618307
v 0.16737733 -0.48708093 0.21960833
v 0.19111675 -0.49518193 0.22633073
v 0.17255531 -0.45885241 0.20453789
v 0.22321660 -0.45602681 0.19980781
v 0.21178345 -0.48008924 0.21673066
v 0.25717789 -0.48725304 0.20902189
v 0.19764097 -0.45967362 0.20503258
v 0.23647954 -0.47530800 0.20871779
v 0.20811862 -0.43109705 0.18667349
v 0.18551088 -0.44264901 0.19544649
v 0.18467590 -0.47567997 0.21455326
v 0.23640677 -0.49803751 0.22262359
v 0.26004195 -0.45999512 0.19093947
v 0.23190222 -0.52833831 0.23991628
v 0.25902061 -0.51576018 0.22410873
v 0.10832362 -0.50361130 0.21492147
v 0.12918329 -0.46288690 0.20133803
v 0.34089579 -0.56929422 0.17836997
v 0.34705519 -0.54762429 0.16868313
v 0.31799955 -0.57635938 0.19760374
v 0.30347491 -0.55923957 0.20905188
v 0.30545082 -0.51529003 0.19533372
v 0.29597673 -0.53737079 0.21076258
v 0.28212614 -0.51883482 0.21300058
v 0.29077654 -0.49100740 0.19327589
v 0.26776082 -0.53783870 0.22935206
v 0.31358054 -0.45594747 0.15462767
v 0.32773211 -0.49730869 0.16778926
v -0.46233445 -0.50961375 0.13584636
v -0.24367973 -0.74811900 0.14053513
v -0.20396634 -0.61054859 0.15153575
v -0.22437952 -0.57909882 0.15349355
v -0.20980966 -0.63214096 0.15134014
v -0.23462792 -0.64079892 0.15283318
v -0.24729644 -0.65896998 0.15233962
v -0.44002148 -0.76984986 0.13002510
v -0.43904043 -0.53590712 0.14273697
v -0.41061161 -0.55322416 0.14816186
v -0.40739148 -0.49564630 0.14283385
v -0.23957984 -0.43090212 0.13587759
v -0.37198027 -0.30865480 0.09433682
v 0.05467560 -0.62864587 0.22593497
v 0.03727660 -0.64391869 0.21889946
v 0.08270105 -0.61608052 0.23523384
v 0.08708154 -0.67108647 0.23534200
v 0.14643158 -0.58882357 0.25160795
v 0.18861387 -0.57439769 0.25955559
v 0.16097847 -0.54693433 0.24592992
v 0.24480499 -0.42590138 0.17443166
v 0.20006302 -0.40871359 0.17432678
v 0.22478847 -0.41178477 0.17160633
v 0.21011428 -0.38722187 0.16002619
v 0.25920360 -0.38686254 0.14392135
v 0.19879450 -0.36721856 0.15039188
v 0.23466515 -0.38762569 0.15400223
v 0.21105550 -0.34870773 0.13740697
v 0.24720423 -0.40467383 0.16015662
v 0.26871301 -0.41709731 0.15869808
v 0.20133127 -0.53275977 0.24604156
v 0.19281645 -0.51512688 0.23701189
v 0.17998813 -0.53174087 0.24371585
v 0.22087547 -0.54667484 0.25047094
v 0.30933811 -0.48097410 0.17426225
v 0.27732883 -0.47367854 0.19106657
v 0.27224572 -0.50046166 0.20936554
v 0.24790864 -0.53987101 0.23976119
v -0.43932362 -0.50587318 0.13998909
v -0.50051182 -0.47591302 0.12220351
v -0.23762847 -0.55633513 0.15310840
v -0.25602375 -0.56155915 0.15374324
v -0.21559688 -0.55905828 0.15215676
v -0.39527803 -0.53406134 0.14810268
v -0.38735315 -0.55637996 0.15042085
v -0.40114089 -0.57242977 0.15023445
v -0.40044624 -0.46881787 0.13939706
v 0.02419598 -0.65796185 0.21289105
v 0.07969244 -0.65256223 0.23497267
v 0.06377079 -0.66948458 0.22896388
v 0.10273713 -0.65403653 0.24046522
v 0.05269898 -0.68510485 0.22348008
v 0.07151423 -0.70007841 0.22691290
v 0.11304821 -0.68013495 0.23796673
v 0.06348365 -0.72401688 0.21908284
v 0.07703772 -0.74774559 0.21327725
v 0.22724768 -0.43650081 0.18630011
v 0.25844498 -0.44005615 0.17850242
v -0.48644023 -0.49835800 0.12851866
v -0.19926764 -0.57359461 0.15117994
v -0.21968678 -0.54061217 0.15140718
v -0.40342054 -0.51558416 0.14544315
v -0.40343601 -0.44621149 0.13517894
v -0.44676068 -0.43872194 0.12953260
v -0.42840724 -0.46146461 0.13563267
v -0.42410355 -0.43670497 0.13166750
v -0.43703497 -0.41823616 0.12679876
v -0.45069613 -0.40009737 0.12129451
v -0.47197510 -0.40420212 0.11916271
v -0.47525482 -0.43359299 0.12377930
v -0.45813609 -0.42065905 0.12447925
v 0.09606603 -0.68760177 0.23412962
v 0.11213758 -0.70062412 0.23193768
v 0.14275471 -0.67420929 0.24120914
v 0.09625928 -0.75483510 0.21063924
v 0.08468471 -0.72692015 0.22168084
v -0.47438527 -0.47525823 0.12962607
v -0.51557963 -0.50111101 0.11856873
v -0.45138174 -0.46193324 0.13246287
v -0.50982505 -0.44127101 0.11572775
v 0.14990037 -0.69477841 0.23337484
v 0.15426662 -0.65371784 0.24754201
v 0.13282987 -0.63891736 0.24747622
v 0.11379506 -0.63872729 0.24390288
v 0.12339249 -0.65741019 0.24364057
v -0.48777897 -0.45474128 0.12381808
v -0.46832256 -0.45255344 0.12802286
v -0.50187975 -0.51557191 0.12428391
v -0.52634095 -0.47746473 0.11277069
v -0.51420505 -0.46117392 0.11621852
v -0.53297904 -0.44642210 0.10814479
v -0.54385594 -0.46996569 0.10423056
v -0.52514784 -0.42832283 0.10960801
v -0.52663115 -0.51586586 0.11417867
v -0.49442616 -0.42936778 0.11869594
v -0.60663473 -0.17632630 0.03557996
v 0.43004028 -0.61014334 0.05650261
v -0.51480016 -0.84185082 0.09380613
v -0.25490159 -0.85691321 0.11262058
v -0.20277326 -0.86087606 0.10898054
v -0.18472449 -0.87749652 0.10163729
v -0.19190828 -0.83856988 0.11431969
v -0.21603712 -0.84877986 0.11382597
v -0.15466686 -0.91917020 0.08247735
v -0.27611402 -0.72211842 0.14581693
v -0.27742585 -0.62903121 0.15425395
v -0.25368951 -0.61528154 0.15461631
v -0.23961618 -0.59674288 0.15419365
v -0.27892164 -0.49849453 0.14720913
v -0.27908651 -0.47369452 0.14332280
v -0.06702804 -0.87167448 0.11686037
v 0.19543347 -0.71846927 0.20810343
v 0.36849969 -0.59548138 0.13698842
v -0.13147429 -0.86509851 0.09555030
v -0.16301369 -0.83212286 0.11146133
v -0.14285174 -0.82688881 0.10864737
v -0.30031745 -0.65948560 0.15208974
v -0.16782102 -0.63353997 0.14524934
v -0.27799738 -0.59177323 0.15452754
v -0.33894918 -0.68974483 0.14927423
v -0.36337795 -0.49806384 0.14515631
v -0.30147621 -0.56065813 0.15216121
v -0.30195600 -0.41139079 0.12829842
v -0.34049421 -0.46723497 0.13984801
v 0.01032613 -0.29017939 0.09240865
v 0.04593375 -0.29485468 0.10055550
v 0.16485956 -0.39221396 0.16699817
v -0.50442019 -0.82219356 0.10311162
v -0.43480818 -0.81512921 0.11707207
v -0.45423586 -0.83390058 0.10837906
v -0.27173389 -0.79643440 0.13077919
v -0.14570654 -0.56226322 0.14318495
v -0.16243786 -0.54779047 0.14586915
v -0.15927995 -0.57582995 0.14584557
v -0.14785640 -0.42187819 0.12708140
v -0.16594234 -0.41124531 0.12794362
v -0.17407332 -0.39380036 0.12489866
v 0.07781353 -0.36679177 0.14593461
v -0.39926406 -0.35463156 0.11187468
v -0.01187930 -0.87918439 0.13961104
v -0.03478766 -0.51743865 0.16745858
v 0.13034681 -0.43948427 0.18973828
v 0.08540549 -0.28631258 0.10090700
v 0.07173839 -0.27001223 0.08698416
v 0.06686201 -0.29608214 0.10458024
v 0.05415931 -0.32125212 0.11808124
v 0.03510010 -0.31277498 0.11012144
v 0.05262899 -0.34078741 0.12867011
v 0.38929658 -0.54505828 0.10312895
v 0.40886084 -0.51203084 0.04627507
v -0.52541434 -0.60006205 0.11421784
v -0.51552292 -0.57732068 0.12004994
v -0.54997129 -0.40241824 0.09766342
v 0.02910540 -0.69016316 0.21364872
v 0.37117071 -0.41525674 0.04980646
v 0.36877611 -0.39505752 0.03903076
v 0.36322837 -0.37104858 0.03317970
v 0.35495045 -0.35194969 0.03540819
v -0.19992920 -0.66951585 0.14741737
v -0.21590938 -0.65362921 0.15059683
v -0.39481464 -0.77906757 0.13129516
v -0.50477273 -0.24091545 0.06520294
v 0.32844415 -0.59485220 0.18550018
v 0.29483952 -0.57702319 0.21705497
v -0.42555214 -0.56895004 0.14691286
v 0.16853528 -0.58123321 0.25681200
v 0.27702134 -0.36427838 0.12093951
v 0.28357873 -0.38716702 0.13091960
v 0.31141620 -0.37082614 0.09938610
v 0.32717206 -0.39032114 0.09637831
v 0.34739919 -0.38368344 0.06688447
v 0.31029206 -0.34991871 0.08828245
v 0.33327733 -0.36846732 0.07626359
v 0.28972763 -0.41685804 0.14617507
v -0.42760636 -0.48487568 0.13909982
v -0.15480635 -0.86707906 0.09985791
v 0.04236066 -0.27470251 0.08619471
v 0.16380536 -0.41155893 0.17800917
v -0.43999210 -0.79566990 0.12336562
v -0.45663982 -0.81120574 0.11699265
v -0.41894816 -0.83293495 0.11185099
v -0.41362863 -0.81244631 0.11948772
v -0.39902220 -0.82574367 0.11673308
v -0.51011924 -0.55395392 0.12248440
v 0.01681763 -0.33500182 0.11930718
v 0.06191896 -0.76775580 0.20368078
v -0.02754222 -0.78003856 0.16942754
v -0.00543411 -0.77303548 0.18211406
v -0.02286661 -0.79791090 0.16655245
v 0.32554903 -0.52810733 0.18398601
v 0.24733665 -0.36558813 0.13622049
v 0.23398018 -0.35037773 0.13217968
f 118 119 117
f 371 490 206
f 117 119 120
f 276 264 539
f 115 116 121
f 120 116 117
f 121 116 120
f 146 145 517
f 268 267 144
f 347 1139 346
f 442 33 34
f 222 239 232
f 123 218 122
f 218 217 122
f 234 7 8
f 218 114 217
f 310 229 123
f 224 241 245
f 229 113 218
f 112 219 111
f 1138 340 1168
f 217 121 122
f 521 68 69
f 225 214 443
f 219 112 229
f 113 229 112
f 111 297 110
f 1136 237 81
f 225 444 318
f 339 614 109
f 614 463 108
f 244 243 240
f 297 111 219
f 310 123 124
f 445 93 94
f 228 236 1137
f 463 107 108
f 341 621 465
f 426 424 226
f 232 223 300
f 640 343 637
f 7 234 233
f 253 430 431
f 105 343 640
f 434 433 432
f 109 110 339
f 441 297 219
f 47 226 424
f 274 273 162
f 318 25 26
f 243 224 235
f 184 222 183
f 345 132 346
f 131 132 161
f 434 599 433
f 239 5 6
f 213 131 161
f 213 161 160
f 345 161 132
f 80 81 237
f 138 351 137
f 619 247 617
f 177 646 143
f 468 354 351
f 349 347 134
f 231 221 238
f 143 474 178
f 317 24 25
f 317 235 24
f 136 137 356
f 356 137 351
f 181 355 182
f 147 146 515
f 469 353 645
f 658 480 159
f 487 488 366
f 130 131 213
f 476 654 656
f 663 172 171
f 152 668 153
f 624 247 619
f 360 477 361
f 155 615 156
f 156 157 477
f 161 344 160
f 429 296 428
f 958 968 969
f 648 647 649
f 177 211 176
f 173 256 489
f 661 483 482
f 175 257 255
f 174 255 256
f 367 368 254
f 173 172 661
f 652 476 651
f 255 257 210
f 161 345 344
f 475 646 647
f 657 854 852
f 140 141 279
f 433 599 296
f 505 508 164
f 641 104 640
f 672 150 149
f 264 274 275
f 601 221 600
f 389 718 269
f 100 101 497
f 210 209 255
f 80 231 79
f 91 92 298
f 984 1202 238
f 705 144 145
f 33 236 228
f 313 34 35
f 102 1192 101
f 1134 1128 1118
f 711 714 713
f 157 158 479
f 715 717 716
f 1041 1099 259
f 371 206 491
f 269 718 720
f 104 641 103
f 105 106 343
f 272 271 67
f 78 79 242
f 71 72 267
f 678 679 379
f 83 87 88
f 84 87 83
f 85 86 84
f 278 184 279
f 84 86 87
f 256 255 209
f 88 89 220
f 15 549 14
f 237 231 80
f 231 238 242
f 445 603 725
f 231 237 436
f 620 107 463
f 88 220 83
f 9 304 8
f 298 436 315
f 220 230 1136
f 324 319 448
f 277 745 540
f 230 220 89
f 65 66 273
f 266 741 268
f 315 237 230
f 222 5 239
f 150 151 498
f 671 496 495
f 362 859 1043
f 671 151 150
f 381 380 502
f 677 501 676
f 956 846 847
f 513 386 385
f 154 485 153
f 513 148 147
f 163 523 164
f 148 149 502
f 169 168 674
f 506 382 505
f 146 147 511
f 1109 1111 1108
f 382 507 508
f 270 272 519
f 391 523 524
f 527 162 271
f 163 275 274
f 499 377 498
f 636 466 635
f 389 886 888
f 387 144 72
f 265 72 73
f 144 705 268
f 72 144 267
f 89 90 230
f 739 389 76
f 113 114 218
f 269 886 389
f 76 389 75
f 228 32 33
f 181 182 300
f 387 388 144
f 527 744 524
f 268 741 71
f 271 66 67
f 428 213 160
f 114 115 217
f 267 268 71
f 27 214 225
f 226 215 187
f 701 145 146
f 227 31 32
f 162 273 66
f 521 522 390
f 271 162 66
f 1032 1203 1030
f 168 552 167
f 668 669 494
f 365 364 485
f 29 31 216
f 177 143 212
f 20 446 19
f 142 185 278
f 185 184 278
f 142 1 185
f 393 279 184
f 354 355 644
f 140 372 139
f 222 232 183
f 232 182 183
f 142 278 141
f 472 644 181
f 2 3 185
f 264 275 277
f 68 521 519
f 185 3 184
f 4 5 222
f 4 184 3
f 233 223 239
f 512 384 702
f 709 263 386
f 184 4 222
f 543 11 12
f 185 1 2
f 753 752 143
f 302 300 301
f 178 179 541
f 471 473 357
f 471 357 470
f 180 181 302
f 210 257 211
f 177 212 211
f 439 299 309
f 255 174 175
f 212 143 752
f 394 757 753
f 397 545 546
f 903 902 991
f 207 490 370
f 173 174 256
f 367 369 171
f 211 212 544
f 171 369 401
f 547 208 545
f 547 207 208
f 371 369 254
f 992 765 906
f 171 172 367
f 563 1093 1116
f 170 400 169
f 233 6 7
f 141 278 279
f 1202 242 238
f 127 462 126
f 303 301 234
f 233 234 223
f 470 180 179
f 233 239 6
f 438 280 437
f 1180 754 438
f 245 241 320
f 308 304 306
f 455 336 334
f 214 216 227
f 545 208 209
f 14 776 13
f 206 779 205
f 121 217 115
f 19 446 447
f 311 310 124
f 83 220 82
f 1152 555 18
f 303 307 299
f 555 17 18
f 477 478 156
f 548 776 549
f 600 298 602
f 231 242 79
f 245 22 23
f 22 245 320
f 317 243 235
f 372 258 468
f 317 318 240
f 211 257 176
f 487 158 157
f 235 23 24
f 82 1136 81
f 26 27 225
f 216 28 29
f 183 182 373
f 870 378 1173
f 28 216 214
f 274 264 276
f 228 227 32
f 372 279 258
f 31 227 216
f 29 30 31
f 534 536 530
f 148 502 503
f 214 27 28
f 511 512 701
f 320 322 21
f 164 508 163
f 779 780 205
f 783 204 203
f 1137 443 214
f 169 400 403
f 782 553 402
f 780 204 205
f 203 202 564
f 403 168 169
f 166 165 677
f 690 200 199
f 200 689 201
f 780 915 204
f 675 500 674
f 505 164 165
f 195 196 569
f 796 198 199
f 509 689 690
f 412 572 573
f 610 938 453
f 413 195 194
f 195 567 194
f 567 410 409
f 572 197 196
f 319 329 330
f 408 685 683
f 784 201 202
f 193 416 418
f 186 187 215
f 274 65 273
f 276 65 274
f 159 428 160
f 440 340 1138
f 528 529 63
f 1166 1217 1165
f 218 123 229
f 64 528 63
f 239 223 232
f 1184 59 60
f 802 573 800
f 194 567 568
f 289 417 191
f 90 315 230
f 575 58 59
f 784 554 925
f 55 56 419
f 57 415 577
f 605 442 313
f 292 191 190
f 436 600 221
f 287 413 579
f 479 480 361
f 320 21 22
f 168 781 552
f 209 208 256
f 581 582 421
f 44 45 586
f 358 1155 250
f 191 192 582
f 586 423 425
f 224 245 235
f 423 45 46
f 149 150 504
f 586 587 44
f 207 370 208
f 321 329 319
f 23 235 245
f 690 692 691
f 539 528 276
f 580 42 43
f 175 176 257
f 943 939 940
f 591 597 420
f 144 388 145
f 890 708 889
f 325 327 329
f 243 244 224
f 733 721 731
f 292 54 55
f 55 419 292
f 190 191 581
f 291 53 54
f 270 391 524
f 53 293 52
f 294 51 52
f 187 294 188
f 188 294 293
f 65 276 64
f 188 189 426
f 163 274 162
f 226 187 188
f 226 47 215
f 347 346 133
f 47 48 215
f 186 48 49
f 50 51 186
f 49 50 186
f 328 244 332
f 215 48 186
f 393 184 183
f 154 155 486
f 186 51 187
f 424 295 423
f 166 676 167
f 67 68 272
f 191 292 289
f 36 1190 809
f 214 227 228
f 205 204 404
f 665 152 153
f 322 324 446
f 762 281 760
f 565 407 564
f 167 566 166
f 794 410 569
f 794 795 570
f 529 531 537
f 803 572 574
f 575 576 414
f 412 573 802
f 415 57 58
f 193 192 416
f 417 289 577
f 288 416 417
f 585 192 193
f 935 41 42
f 190 189 291
f 291 189 293
f 190 291 292
f 292 291 54
f 291 293 53
f 189 188 293
f 51 294 187
f 293 294 52
f 581 427 598
f 580 805 590
f 429 159 158
f 430 433 296
f 311 312 441
f 297 461 339
f 602 92 93
f 298 600 436
f 299 301 303
f 307 309 299
f 232 300 182
f 301 300 223
f 234 301 223
f 302 301 299
f 302 299 439
f 181 300 302
f 304 234 8
f 305 437 309
f 306 9 10
f 234 304 303
f 9 306 304
f 754 987 897
f 306 898 754
f 305 307 308
f 308 307 303
f 309 307 305
f 304 308 303
f 308 306 1180
f 439 1151 394
f 180 439 179
f 311 124 125
f 219 229 310
f 125 440 311
f 219 310 311
f 126 440 125
f 461 246 339
f 36 37 812
f 605 236 442
f 333 314 607
f 318 444 451
f 90 91 315
f 298 315 91
f 94 603 445
f 718 719 720
f 318 317 25
f 243 317 240
f 26 225 318
f 225 443 444
f 319 322 321
f 321 241 325
f 321 320 241
f 320 321 322
f 325 241 326
f 328 326 224
f 322 319 324
f 20 21 322
f 328 323 326
f 336 338 323
f 448 319 330
f 19 447 18
f 326 241 224
f 325 323 327
f 328 224 244
f 323 325 326
f 335 336 328
f 1167 410 570
f 244 333 332
f 313 809 606
f 325 329 321
f 330 329 327
f 338 612 327
f 611 449 330
f 37 38 610
f 332 335 328
f 240 451 244
f 335 332 1203
f 236 605 607
f 332 333 1153
f 606 609 452
f 1182 930 795
f 1203 332 331
f 336 335 334
f 455 338 336
f 328 336 323
f 1030 609 1031
f 1029 411 1182
f 337 813 612
f 327 323 338
f 297 339 110
f 463 614 817
f 127 1170 639
f 973 1201 972
f 341 628 638
f 639 1220 638
f 615 616 464
f 670 153 668
f 341 620 463
f 635 637 247
f 344 248 642
f 160 344 658
f 346 132 133
f 344 345 248
f 347 133 134
f 248 345 346
f 643 349 134
f 349 350 347
f 469 136 353
f 1139 248 346
f 643 134 135
f 350 349 348
f 348 1140 350
f 650 1142 1155
f 138 139 468
f 1144 356 249
f 355 352 493
f 249 351 354
f 180 470 472
f 136 469 135
f 468 351 138
f 355 354 352
f 258 373 493
f 181 180 472
f 249 356 351
f 136 356 353
f 474 1154 178
f 356 1144 353
f 176 647 177
f 1154 1216 471
f 651 176 175
f 361 480 659
f 852 853 657
f 852 854 478
f 480 158 159
f 361 659 1145
f 663 664 483
f 1172 169 674
f 664 857 483
f 1149 381 377
f 1146 252 1147
f 484 364 1159
f 156 478 1157
f 365 854 1146
f 156 615 1160
f 630 862 830
f 368 367 172
f 369 367 254
f 489 172 173
f 667 208 370
f 254 490 371
f 401 282 400
f 254 368 370
f 368 489 667
f 491 206 205
f 492 401 369
f 279 372 140
f 468 258 352
f 493 182 355
f 393 373 258
f 103 641 837
f 818 464 616
f 148 513 514
f 706 885 884
f 102 1191 1192
f 1118 1128 1099
f 152 665 1162
f 377 499 867
f 377 867 869
f 859 362 857
f 523 525 164
f 877 681 879
f 981 976 875
f 877 879 503
f 504 498 381
f 381 1149 1150
f 506 165 166
f 277 507 261
f 700 199 198
f 62 63 529
f 148 503 1163
f 741 704 522
f 717 891 716
f 884 885 514
f 517 145 388
f 386 263 891
f 72 265 387
f 388 387 265
f 707 388 265
f 517 386 515
f 739 77 518
f 727 728 887
f 69 740 522
f 270 519 520
f 742 270 520
f 525 1175 164
f 531 534 530
f 531 529 392
f 373 393 183
f 258 279 393
f 541 439 394
f 542 756 755
f 13 776 777
f 546 760 397
f 756 280 758
f 909 777 548
f 546 209 210
f 763 397 760
f 927 787 926
f 555 556 17
f 928 558 562
f 1114 1121 561
f 401 400 170
f 403 400 782
f 171 401 170
f 369 371 492
f 282 404 553
f 880 402 553
f 782 400 282
f 403 402 781
f 404 783 553
f 404 492 491
f 554 784 785
f 450 449 788
f 764 766 768
f 556 927 17
f 565 202 201
f 783 407 1181
f 687 261 682
f 682 382 506
f 1232 596 1068
f 582 422 583
f 794 196 197
f 410 285 1066
f 813 454 612
f 337 455 457
f 196 195 573
f 695 538 694
f 194 193 418
f 800 801 802
f 413 194 579
f 415 288 577
f 575 415 58
f 578 415 414
f 417 416 192
f 418 416 288
f 191 417 192
f 419 577 289
f 288 415 578
f 418 579 194
f 577 419 56
f 292 419 289
f 290 593 591
f 580 935 42
f 589 584 588
f 426 189 598
f 568 193 194
f 596 594 422
f 424 423 46
f 425 423 295
f 47 424 46
f 226 188 426
f 589 295 427
f 584 806 583
f 189 190 598
f 424 426 295
f 583 806 421
f 295 426 427
f 429 428 159
f 213 428 296
f 158 487 431
f 430 429 431
f 433 430 1201
f 296 429 430
f 158 431 429
f 431 366 862
f 629 624 631
f 129 1223 1221
f 1201 430 253
f 1222 1223 432
f 129 130 434
f 599 434 130
f 435 602 445
f 719 892 316
f 231 436 221
f 315 436 237
f 438 437 305
f 1151 437 280
f 1180 306 754
f 438 759 758
f 439 180 302
f 439 309 1151
f 440 126 462
f 311 440 312
f 311 441 219
f 461 441 312
f 33 442 236
f 34 313 442
f 1137 214 228
f 443 314 444
f 314 333 444
f 451 333 244
f 603 94 95
f 604 445 316
f 322 446 20
f 447 446 324
f 450 447 324
f 447 450 1152
f 449 448 330
f 450 283 1152
f 611 330 814
f 1094 1114 1125
f 324 448 450
f 449 450 448
f 318 451 240
f 444 333 451
f 452 605 606
f 332 1153 331
f 38 949 610
f 285 410 1167
f 457 459 337
f 921 919 920
f 1033 1204 1032
f 337 338 455
f 1076 946 1025
f 813 459 460
f 1204 455 334
f 456 1038 459
f 942 453 938
f 1029 571 799
f 456 459 457
f 459 458 460
f 458 815 460
f 929 454 1004
f 441 461 297
f 1138 461 312
f 639 462 127
f 440 462 340
f 108 109 614
f 341 465 620
f 616 155 154
f 861 860 488
f 247 343 617
f 343 618 617
f 624 634 247
f 1191 102 103
f 642 248 848
f 649 656 359
f 372 468 139
f 354 468 352
f 1144 645 353
f 348 643 469
f 471 470 179
f 472 470 357
f 1154 179 178
f 250 1141 1216
f 357 249 472
f 644 472 249
f 645 473 1141
f 473 645 1144
f 1156 474 143
f 1154 474 358
f 648 650 475
f 646 1156 143
f 849 175 174
f 173 661 662
f 477 157 479
f 478 477 360
f 478 360 852
f 1157 365 486
f 480 479 158
f 477 479 361
f 159 160 658
f 659 251 1145
f 855 856 1199
f 476 652 654
f 482 856 855
f 855 655 662
f 664 171 170
f 483 857 1158
f 665 485 484
f 868 867 499
f 485 154 486
f 484 485 364
f 1157 486 155
f 485 486 365
f 488 487 157
f 431 487 366
f 1160 157 156
f 861 666 860
f 667 256 208
f 172 489 368
f 370 490 254
f 206 490 207
f 205 404 491
f 492 404 282
f 401 492 282
f 371 491 492
f 258 493 352
f 182 493 373
f 669 152 151
f 866 670 494
f 495 865 864
f 863 494 669
f 148 514 1164
f 496 885 1161
f 1224 497 101
f 1134 497 376
f 499 498 151
f 381 498 377
f 1162 151 152
f 868 673 867
f 675 168 167
f 1172 500 1173
f 501 678 680
f 870 500 675
f 502 149 504
f 503 502 380
f 503 380 877
f 1163 384 511
f 498 504 150
f 502 504 381
f 506 505 165
f 508 505 382
f 566 506 166
f 682 261 507
f 508 277 275
f 682 507 382
f 277 508 507
f 163 508 275
f 691 693 509
f 791 407 565
f 803 198 197
f 697 538 695
f 1163 511 147
f 512 511 384
f 702 384 262
f 705 512 704
f 513 147 515
f 514 513 385
f 514 385 884
f 1164 496 672
f 517 515 146
f 513 515 386
f 890 983 982
f 709 711 263
f 388 707 710
f 386 517 709
f 1202 77 78
f 238 601 892
f 68 519 272
f 520 519 390
f 881 520 390
f 978 875 680
f 522 521 69
f 519 521 390
f 741 740 70
f 704 702 703
f 524 523 163
f 525 523 391
f 527 163 162
f 272 270 744
f 1177 1176 525
f 1175 1176 679
f 742 391 270
f 526 742 743
f 744 271 272
f 163 527 524
f 276 528 64
f 529 528 392
f 532 534 392
f 537 62 529
f 536 535 751
f 62 1165 61
f 540 392 539
f 1225 537 530
f 277 261 745
f 692 694 383
f 533 537 1225
f 286 801 1186
f 392 534 531
f 746 536 532
f 535 536 746
f 685 687 683
f 532 536 534
f 751 535 750
f 530 537 531
f 537 533 1165
f 510 574 695
f 536 538 699
f 540 539 264
f 528 539 392
f 277 540 264
f 392 540 532
f 439 541 179
f 753 541 394
f 757 280 756
f 752 755 544
f 910 13 777
f 543 911 897
f 544 212 752
f 396 903 544
f 546 545 209
f 547 545 397
f 902 761 546
f 763 760 281
f 763 547 397
f 207 992 206
f 775 1226 774
f 777 911 910
f 926 15 16
f 778 549 398
f 992 547 765
f 912 780 550
f 913 551 914
f 554 785 917
f 552 880 688
f 552 688 566
f 404 204 783
f 880 686 688
f 202 203 916
f 1005 405 1006
f 1152 18 447
f 556 555 406
f 556 406 558
f 787 560 1115
f 559 558 406
f 559 283 788
f 406 1152 559
f 562 558 557
f 283 450 788
f 558 559 1121
f 560 562 563
f 398 549 787
f 449 611 1002
f 1002 789 449
f 562 557 1113
f 562 560 928
f 1123 1125 1122
f 547 763 765
f 565 564 202
f 783 564 407
f 689 565 201
f 693 792 509
f 552 566 167
f 566 408 683
f 567 195 569
f 568 567 409
f 1066 285 1064
f 568 422 585
f 569 196 794
f 567 569 410
f 795 197 198
f 1167 570 1218
f 932 200 786
f 200 201 925
f 573 572 196
f 574 572 412
f 195 413 573
f 287 800 413
f 1178 286 698
f 700 574 510
f 576 575 59
f 415 575 414
f 1184 1217 1185
f 414 576 1183
f 57 577 56
f 288 417 577
f 287 578 414
f 288 578 418
f 418 578 579
f 287 579 578
f 44 587 805
f 936 935 580
f 582 581 191
f 427 581 421
f 585 582 192
f 583 422 290
f 584 583 290
f 421 582 583
f 590 584 591
f 805 588 590
f 568 585 193
f 582 585 422
f 423 586 45
f 587 586 425
f 588 587 425
f 43 805 580
f 589 588 425
f 590 588 584
f 295 589 425
f 427 421 806
f 591 584 290
f 580 590 420
f 593 290 594
f 420 590 591
f 1231 592 1232
f 593 597 591
f 594 290 422
f 593 592 595
f 596 422 568
f 593 594 807
f 285 931 1062
f 1212 936 595
f 1068 568 409
f 593 807 592
f 593 595 597
f 420 597 595
f 581 598 190
f 426 598 427
f 130 213 599
f 296 599 213
f 602 298 92
f 601 600 435
f 601 435 604
f 238 221 601
f 445 602 93
f 600 602 435
f 726 603 729
f 732 731 726
f 604 316 892
f 435 445 604
f 606 605 313
f 607 605 452
f 313 35 809
f 609 331 1153
f 333 607 452
f 607 314 1137
f 812 37 610
f 1189 609 606
f 609 1189 810
f 1030 331 609
f 949 39 811
f 950 951 952
f 814 327 612
f 789 561 788
f 337 612 338
f 814 454 611
f 798 1010 1012
f 561 789 1003
f 339 246 816
f 463 817 341
f 616 615 155
f 1160 615 464
f 670 154 153
f 342 464 818
f 618 343 106
f 619 617 465
f 107 618 106
f 465 617 618
f 619 465 621
f 634 635 247
f 465 618 620
f 107 620 618
f 625 621 341
f 832 629 974
f 631 625 632
f 366 488 860
f 625 638 623
f 1222 633 1219
f 631 619 621
f 627 955 831
f 817 614 816
f 629 622 624
f 625 623 632
f 623 1219 1048
f 342 820 824
f 828 627 831
f 1138 1168 246
f 639 638 628
f 631 624 619
f 1048 974 626
f 366 860 862
f 832 630 830
f 625 631 621
f 629 631 626
f 633 1048 1219
f 631 632 626
f 633 1201 973
f 973 974 633
f 955 624 622
f 635 634 627
f 636 635 627
f 635 466 637
f 820 342 818
f 836 833 636
f 637 466 640
f 247 637 343
f 341 638 625
f 628 1168 639
f 462 639 340
f 127 128 1170
f 641 640 466
f 104 105 640
f 636 833 466
f 641 466 833
f 248 1139 848
f 660 658 1171
f 349 643 348
f 135 469 643
f 354 644 249
f 181 644 355
f 1141 250 1140
f 348 469 645
f 647 646 177
f 475 1155 1156
f 649 176 651
f 649 359 648
f 650 648 359
f 475 647 648
f 176 649 647
f 649 476 656
f 966 967 359
f 1143 1142 958
f 652 651 175
f 649 651 476
f 174 173 662
f 655 653 654
f 853 962 964
f 660 467 970
f 655 654 652
f 654 653 656
f 849 655 652
f 655 481 961
f 959 656 653
f 968 967 851
f 360 1145 853
f 657 853 964
f 344 642 658
f 1171 467 660
f 480 660 659
f 660 970 1042
f 658 660 480
f 851 970 467
f 661 172 663
f 662 661 482
f 855 662 482
f 662 655 849
f 664 663 171
f 661 663 483
f 170 169 1172
f 1158 857 362
f 485 665 153
f 1162 665 484
f 824 826 342
f 862 253 431
f 368 667 370
f 256 667 489
f 669 668 152
f 670 668 494
f 671 669 151
f 494 863 374
f 866 494 374
f 616 154 670
f 671 150 672
f 669 671 495
f 1164 672 149
f 671 672 496
f 1100 980 1083
f 870 871 378
f 675 674 168
f 1172 674 500
f 676 675 167
f 871 872 680
f 677 676 166
f 675 676 501
f 165 164 1175
f 678 677 679
f 680 678 379
f 501 677 678
f 677 165 1175
f 679 1176 986
f 896 379 986
f 260 1149 869
f 380 1150 878
f 896 526 743
f 683 506 566
f 683 682 506
f 684 685 686
f 682 683 687
f 284 407 791
f 535 746 747
f 686 685 408
f 685 684 687
f 688 686 408
f 686 284 793
f 684 693 749
f 748 746 745
f 566 688 408
f 880 552 402
f 690 689 200
f 565 689 509
f 692 199 700
f 692 383 691
f 693 691 383
f 509 690 691
f 199 692 690
f 692 510 694
f 535 747 750
f 684 686 793
f 695 694 510
f 694 538 751
f 1178 574 412
f 696 699 697
f 696 697 698
f 1185 1186 801
f 698 697 695
f 696 1225 699
f 1178 695 574
f 698 286 1188
f 536 699 530
f 538 697 699
f 700 198 803
f 692 700 510
f 511 701 146
f 705 701 512
f 703 702 262
f 704 512 702
f 743 520 882
f 703 881 522
f 522 704 703
f 705 704 266
f 268 705 266
f 701 705 145
f 716 263 713
f 1087 1105 1215
f 73 983 1053
f 710 709 517
f 890 516 707
f 888 75 389
f 517 388 710
f 709 710 711
f 707 516 710
f 516 1179 710
f 712 713 714
f 727 269 720
f 736 1109 735
f 263 711 713
f 714 711 1179
f 712 715 716
f 889 708 887
f 722 724 727
f 1105 1087 1103
f 844 1049 847
f 712 716 713
f 1103 717 715
f 884 717 706
f 891 717 385
f 739 718 389
f 719 718 518
f 719 984 892
f 725 726 723
f 719 723 722
f 719 722 720
f 723 726 721
f 738 895 737
f 723 719 316
f 724 722 721
f 725 723 316
f 721 722 723
f 726 731 721
f 724 728 727
f 445 725 316
f 725 603 726
f 729 603 95
f 731 732 730
f 722 727 720
f 733 735 737
f 889 714 516
f 708 886 887
f 95 96 729
f 732 893 1193
f 1129 1130 1131
f 733 737 724
f 732 726 729
f 733 731 730
f 96 893 729
f 732 729 893
f 735 733 730
f 721 733 724
f 985 732 894
f 714 895 738
f 736 735 730
f 735 734 737
f 1129 99 1118
f 100 1134 99
f 737 734 738
f 728 724 737
f 1108 738 734
f 712 714 738
f 77 739 76
f 718 739 518
f 69 70 740
f 71 741 70
f 704 741 266
f 522 740 741
f 743 742 520
f 526 1176 1177
f 520 881 882
f 882 262 883
f 524 744 270
f 271 744 527
f 747 748 687
f 540 745 532
f 532 745 746
f 745 261 748
f 687 749 747
f 750 383 751
f 687 748 261
f 746 748 747
f 684 749 687
f 750 749 693
f 749 750 747
f 693 383 750
f 694 751 383
f 751 538 536
f 753 143 178
f 752 542 755
f 753 178 541
f 542 752 753
f 897 899 754
f 306 10 898
f 542 757 756
f 396 544 755
f 758 280 438
f 396 755 756
f 753 757 542
f 757 394 1151
f 759 438 899
f 756 758 900
f 778 1226 775
f 756 900 396
f 902 546 210
f 761 760 546
f 900 759 1229
f 760 761 762
f 1227 761 903
f 770 768 767
f 766 763 281
f 766 765 763
f 768 281 907
f 764 1194 1088
f 764 904 765
f 904 399 906
f 907 281 762
f 765 766 764
f 774 771 772
f 1093 769 1095
f 281 768 766
f 770 772 769
f 1088 904 764
f 770 1194 768
f 772 770 767
f 1092 1194 769
f 907 908 767
f 1095 771 1096
f 767 908 774
f 772 771 1095
f 762 1227 1228
f 988 901 759
f 767 774 772
f 774 773 775
f 901 988 990
f 775 548 778
f 549 776 14
f 777 776 548
f 548 775 909
f 12 910 543
f 778 398 1226
f 548 549 778
f 992 779 206
f 780 779 550
f 912 550 399
f 780 914 915
f 403 781 168
f 402 552 781
f 403 782 402
f 282 553 782
f 564 783 203
f 1181 407 284
f 784 202 916
f 925 554 786
f 785 916 915
f 554 917 405
f 922 924 405
f 797 571 796
f 926 549 15
f 787 927 928
f 789 788 449
f 559 788 561
f 929 1002 454
f 1003 789 1002
f 919 994 922
f 922 917 918
f 792 791 565
f 284 791 793
f 509 792 565
f 793 693 684
f 791 792 793
f 693 793 792
f 795 794 197
f 794 570 410
f 796 795 198
f 1182 795 571
f 797 796 199
f 795 796 571
f 200 797 199
f 932 786 933
f 571 797 799
f 799 797 932
f 797 200 932
f 799 798 934
f 800 287 801
f 573 413 800
f 287 414 1183
f 60 61 1217
f 801 286 802
f 412 802 286
f 572 803 197
f 700 803 574
f 945 939 943
f 1196 1197 1211
f 44 805 43
f 805 587 588
f 584 589 806
f 427 806 589
f 594 596 807
f 1066 1068 409
f 1022 1021 931
f 938 811 940
f 36 809 35
f 809 608 1189
f 1190 952 608
f 948 1037 1075
f 39 1196 1195
f 1212 1213 804
f 950 610 453
f 809 1190 608
f 459 813 337
f 454 813 460
f 327 814 330
f 454 814 612
f 815 458 1074
f 1058 999 1000
f 816 246 1168
f 614 339 816
f 816 628 817
f 628 341 817
f 954 616 670
f 616 954 818
f 822 825 828
f 818 819 820
f 820 819 823
f 820 825 824
f 827 823 819
f 845 834 842
f 831 955 829
f 826 666 342
f 866 819 954
f 824 825 822
f 825 820 823
f 824 822 826
f 823 821 825
f 841 828 825
f 822 829 826
f 832 829 622
f 374 1086 827
f 821 823 827
f 841 821 838
f 636 627 828
f 831 829 822
f 832 830 829
f 666 826 830
f 829 830 826
f 828 831 822
f 627 634 955
f 622 629 832
f 974 629 626
f 641 833 837
f 834 836 838
f 834 838 842
f 1224 101 1192
f 837 836 839
f 834 840 839
f 838 836 636
f 839 836 834
f 836 837 833
f 837 835 1191
f 841 636 828
f 838 821 842
f 842 1205 845
f 837 839 835
f 259 1224 956
f 835 839 840
f 821 841 825
f 636 841 838
f 843 821 827
f 821 843 842
f 1085 863 864
f 834 845 846
f 864 865 1084
f 956 847 259
f 1205 842 843
f 846 845 844
f 846 844 847
f 834 846 840
f 1050 844 1205
f 1051 375 1087
f 848 350 1143
f 642 848 969
f 175 849 652
f 662 849 174
f 964 960 965
f 1042 659 660
f 359 656 966
f 966 959 851
f 853 852 360
f 1047 854 657
f 960 962 850
f 960 850 959
f 1146 854 252
f 854 365 1157
f 482 1158 856
f 655 855 481
f 362 1043 1045
f 963 1200 1047
f 1172 1173 1174
f 857 664 1174
f 876 980 378
f 1174 859 857
f 980 858 1173
f 1045 971 1046
f 488 1160 861
f 862 860 666
f 464 342 861
f 666 861 342
f 830 862 666
f 630 972 862
f 495 864 669
f 863 669 864
f 495 1161 865
f 975 1049 1050
f 975 1102 1051
f 975 1050 1084
f 374 827 866
f 819 866 827
f 499 1162 868
f 869 867 673
f 1159 868 484
f 868 363 1082
f 871 874 876
f 260 869 976
f 872 675 501
f 870 872 871
f 680 874 871
f 876 378 871
f 675 872 870
f 680 872 501
f 874 875 873
f 977 869 673
f 875 874 680
f 876 874 873
f 978 680 379
f 878 681 877
f 977 873 976
f 971 1148 1147
f 878 877 380
f 681 262 879
f 260 981 878
f 978 979 875
f 262 384 879
f 879 384 1163
f 1181 553 783
f 686 880 284
f 522 881 390
f 881 703 882
f 703 262 882
f 883 262 681
f 979 1052 878
f 743 882 883
f 717 884 385
f 706 375 885
f 1161 885 375
f 885 496 1164
f 887 886 269
f 886 708 888
f 727 887 269
f 887 728 889
f 982 888 708
f 74 75 888
f 889 728 895
f 890 889 516
f 1053 707 265
f 983 74 982
f 386 891 385
f 716 891 263
f 892 601 604
f 984 719 518
f 97 1193 96
f 732 1193 894
f 1131 97 98
f 732 985 730
f 889 895 714
f 737 895 728
f 743 883 896
f 681 1052 883
f 899 897 395
f 987 754 898
f 10 11 898
f 987 898 11
f 754 899 438
f 395 759 899
f 758 759 900
f 1229 759 901
f 988 759 395
f 1228 773 908
f 210 211 902
f 991 902 211
f 1227 903 396
f 902 903 761
f 768 1194 764
f 906 399 550
f 1092 1093 1090
f 1056 998 997
f 550 779 992
f 765 904 906
f 908 907 762
f 768 907 767
f 762 761 1227
f 908 773 774
f 990 988 989
f 911 543 910
f 13 910 12
f 911 777 909
f 989 911 909
f 911 395 897
f 913 912 399
f 915 914 551
f 1054 1055 993
f 995 999 996
f 780 912 914
f 913 914 912
f 915 551 918
f 204 915 203
f 915 916 203
f 784 916 785
f 785 918 917
f 918 920 922
f 915 918 785
f 918 551 920
f 551 921 920
f 1008 923 1009
f 921 551 913
f 922 920 919
f 913 399 1055
f 921 913 1054
f 994 924 922
f 917 922 405
f 923 994 996
f 790 1000 999
f 1009 1001 1008
f 798 799 1028
f 784 925 201
f 786 200 925
f 927 926 16
f 549 926 787
f 17 927 16
f 558 928 556
f 787 928 560
f 556 928 927
f 1004 454 460
f 815 1059 1004
f 411 931 1218
f 570 795 930
f 934 1013 1015
f 942 939 1039
f 786 1005 933
f 799 932 1028
f 1006 933 1005
f 924 1007 1006
f 1011 1012 1001
f 815 1074 1071
f 936 580 420
f 935 804 1198
f 595 936 420
f 804 935 936
f 812 950 952
f 1204 457 455
f 949 938 610
f 811 1195 943
f 1232 592 807
f 940 942 938
f 811 39 1195
f 940 939 942
f 40 1197 1196
f 1207 1209 1212
f 945 947 939
f 1036 1038 1035
f 811 943 940
f 941 1210 945
f 1207 592 1231
f 1067 808 1064
f 941 945 943
f 1214 947 945
f 1015 411 934
f 948 1039 947
f 1214 945 944
f 947 946 948
f 1025 1016 1020
f 937 1230 1035
f 39 949 38
f 938 949 811
f 950 453 951
f 812 610 950
f 1040 453 942
f 951 1230 1031
f 951 810 952
f 952 810 1189
f 1024 1026 1027
f 1022 931 411
f 866 954 670
f 818 954 819
f 624 955 634
f 829 955 622
f 1224 259 376
f 846 956 840
f 1106 1103 715
f 259 847 1041
f 848 1143 958
f 650 967 958
f 960 959 653
f 851 959 850
f 961 960 653
f 962 251 1042
f 655 961 653
f 1199 965 481
f 964 962 960
f 853 251 962
f 1199 963 965
f 1046 1200 1045
f 965 960 961
f 657 964 963
f 481 965 961
f 963 964 965
f 959 966 656
f 967 966 851
f 851 467 968
f 359 967 650
f 969 968 467
f 958 967 968
f 642 969 467
f 958 969 848
f 851 850 970
f 1042 970 850
f 971 1043 1044
f 363 1159 1147
f 973 972 630
f 253 862 972
f 974 973 630
f 633 432 1201
f 832 974 630
f 626 632 1048
f 1051 865 375
f 1049 1079 1041
f 977 976 869
f 875 976 873
f 1082 1044 1081
f 876 873 977
f 379 896 978
f 979 878 981
f 978 896 979
f 896 883 1052
f 1083 1101 1081
f 673 1081 977
f 976 981 260
f 979 981 875
f 888 982 74
f 708 890 982
f 890 707 1053
f 74 983 73
f 1202 518 77
f 238 892 984
f 894 736 985
f 736 730 985
f 679 986 379
f 526 896 986
f 11 543 987
f 897 987 543
f 989 395 911
f 909 990 989
f 990 909 775
f 395 989 988
f 775 773 990
f 901 990 773
f 211 544 991
f 903 991 544
f 547 992 207
f 550 992 906
f 1093 1057 1090
f 1089 1091 998
f 997 996 994
f 923 924 994
f 998 1056 1054
f 997 998 995
f 997 994 919
f 995 1123 999
f 1056 919 921
f 995 996 997
f 993 1089 998
f 1124 998 1091
f 1000 790 929
f 996 999 1058
f 1000 929 1004
f 613 1060 1009
f 1071 1072 1073
f 1028 1007 1010
f 454 1002 611
f 1003 1002 929
f 929 790 1003
f 1003 790 1122
f 460 815 1004
f 815 613 1059
f 786 554 1005
f 405 1005 554
f 405 924 1006
f 923 1008 924
f 1010 1007 1001
f 933 1006 1007
f 1001 1007 1008
f 924 1008 1007
f 1058 923 996
f 613 1206 1059
f 1011 1001 1060
f 1010 798 1028
f 934 1012 1013
f 1012 934 798
f 1001 1012 1010
f 1012 1011 1013
f 1014 1011 1072
f 1013 1011 1014
f 1023 1017 1019
f 1017 1014 953
f 1023 1013 1014
f 411 1015 1022
f 1017 1020 1016
f 1097 1021 1016
f 1020 1017 1024
f 1019 1017 1016
f 1018 1020 1024
f 1037 1077 1036
f 1019 1016 1021
f 1023 1019 1015
f 1024 1017 953
f 1025 1020 1018
f 1016 1098 1097
f 931 1021 1062
f 1015 1019 1022
f 1021 1022 1019
f 1013 1023 1015
f 1017 1023 1014
f 953 1026 1024
f 1027 1018 1024
f 1077 1076 1018
f 1025 946 1098
f 1026 953 1071
f 456 1035 1038
f 1026 1074 1078
f 1035 456 1033
f 932 933 1028
f 1028 933 1007
f 799 934 1029
f 411 1029 934
f 1031 609 810
f 1032 1030 937
f 951 1031 810
f 937 1030 1031
f 1033 1032 937
f 334 335 1203
f 1031 1230 937
f 1204 456 457
f 1040 951 453
f 1018 1027 1077
f 937 1035 1033
f 1036 1035 1034
f 1036 1034 1037
f 1036 1027 1038
f 1034 1040 1075
f 1037 948 1076
f 1078 1027 1026
f 1038 1078 459
f 947 1039 939
f 1075 1039 948
f 942 1039 1075
f 1230 1040 1034
f 1041 847 1049
f 1099 1041 1117
f 962 1042 850
f 659 1042 251
f 1044 1043 859
f 1045 1043 971
f 1100 859 858
f 977 1101 876
f 1147 1046 971
f 362 1045 856
f 1047 1046 252
f 963 1199 1200
f 854 1047 252
f 963 1047 657
f 623 1048 632
f 633 974 1048
f 1050 1049 844
f 1049 975 1079
f 1085 1050 1086
f 1085 864 1084
f 1087 375 706
f 1051 1215 1079
f 878 1052 681
f 896 1052 979
f 73 1053 265
f 890 1053 983
f 1055 1054 913
f 998 1054 993
f 1088 399 904
f 905 993 1055
f 919 1056 997
f 1054 1056 921
f 1057 1089 1090
f 1112 1113 1094
f 1206 1058 1000
f 1009 923 1058
f 1206 613 1009
f 1004 1059 1206
f 1060 613 1073
f 1001 1009 1060
f 1070 1065 1069
f 1021 1063 1062
f 1021 1097 1063
f 1066 1064 808
f 1063 1069 1067
f 1231 1067 1065
f 285 1062 1064
f 1063 1064 1062
f 1061 1070 1069
f 592 1207 595
f 1068 1066 808
f 1066 409 410
f 1064 1063 1067
f 1069 1063 1061
f 1068 808 1232
f 1068 596 568
f 1061 1098 1070
f 1065 1067 1069
f 1214 946 947
f 1214 1208 1070
f 953 1014 1072
f 815 1071 613
f 1073 1072 1011
f 953 1072 1071
f 1060 1073 1011
f 613 1071 1073
f 1078 1074 458
f 1071 1074 1026
f 1034 1075 1037
f 1040 942 1075
f 946 1076 948
f 1018 1076 1025
f 1036 1077 1027
f 1076 1077 1037
f 459 1078 458
f 1027 1078 1038
f 1051 1079 975
f 957 1041 1079
f 1127 1119 1104
f 1126 1080 1117
f 1082 1081 673
f 1083 1081 1044
f 868 1082 673
f 1044 1082 363
f 1100 1044 859
f 1101 980 876
f 865 1051 1102
f 1085 1084 1050
f 1050 1205 1086
f 1085 374 863
f 827 1086 843
f 374 1085 1086
f 1103 706 717
f 1087 706 1103
f 905 1055 1088
f 399 1088 1055
f 1090 1089 993
f 1091 1089 1057
f 993 905 1090
f 1092 1090 905
f 1057 1094 1091
f 1114 1094 557
f 1194 1092 905
f 1093 1092 769
f 769 772 1095
f 1093 563 1112
f 1112 1094 1057
f 557 1121 1114
f 1226 1096 771
f 1093 1095 1116
f 1115 398 787
f 1116 560 563
f 1098 1016 1025
f 1063 1097 1061
f 1070 1098 946
f 1097 1098 1061
f 1117 1041 957
f 1099 1080 1118
f 980 1100 858
f 1044 1100 1083
f 1081 1101 977
f 980 1101 1083
f 975 1084 1102
f 865 1102 1084
f 715 1107 1106
f 1106 1105 1103
f 1107 1111 1104
f 1111 1110 1104
f 1119 1105 1104
f 1215 1105 957
f 1107 715 712
f 1105 1106 1104
f 1108 1107 712
f 1104 1106 1107
f 738 1108 712
f 1109 1108 734
f 735 1109 734
f 1109 736 1110
f 1135 1110 736
f 1117 1080 1099
f 1108 1111 1107
f 1110 1111 1109
f 1093 1112 1057
f 1113 1112 563
f 562 1113 563
f 557 1094 1113
f 561 1122 1114
f 1123 1122 790
f 1116 1115 560
f 398 1115 1096
f 1095 1096 1116
f 1116 1096 1115
f 1119 957 1105
f 1119 1127 1117
f 1118 1080 1129
f 497 1134 100
f 1127 1104 1110
f 1117 957 1119
f 894 1133 736
f 98 1132 1131
f 558 1121 557
f 561 1121 559
f 1003 1122 561
f 790 999 1123
f 995 1124 1123
f 1123 1124 1125
f 998 1124 995
f 1125 1124 1091
f 1094 1125 1091
f 1122 1125 1114
f 1135 1126 1110
f 1130 1126 1120
f 1110 1126 1127
f 1117 1127 1126
f 376 259 1128
f 1099 1128 259
f 1130 1129 1080
f 98 99 1132
f 1126 1130 1080
f 1130 1120 1131
f 1120 1133 1131
f 1131 1133 97
f 99 1129 1132
f 1131 1132 1129
f 1133 1120 1135
f 97 1133 894
f 99 1134 1118
f 1128 1134 376
f 1133 1135 736
f 1126 1135 1120
f 237 1136 230
f 220 1136 82
f 607 1137 236
f 443 1137 314
f 461 1138 246
f 440 1138 312
f 347 350 1139
f 848 1139 350
f 1141 348 645
f 1140 250 1142
f 1141 473 1216
f 348 1141 1140
f 1155 1142 250
f 958 1142 650
f 350 1140 1143
f 1142 1143 1140
f 249 357 1144
f 473 1144 357
f 853 1145 251
f 360 361 1145
f 252 1046 1147
f 364 365 1146
f 971 1044 1148
f 364 1146 1147
f 1044 363 1148
f 363 1147 1148
f 869 1149 377
f 1150 1149 260
f 878 1150 260
f 380 381 1150
f 437 1151 309
f 757 1151 280
f 559 1152 283
f 555 1152 406
f 333 452 1153
f 609 1153 452
f 358 250 1216
f 179 1154 471
f 1156 1155 358
f 650 1155 475
f 1156 358 474
f 475 1156 646
f 156 1157 155
f 854 1157 478
f 856 1158 362
f 482 483 1158
f 1147 1159 364
f 868 1159 363
f 861 1160 464
f 157 1160 488
f 865 1161 375
f 495 496 1161
f 868 1162 484
f 151 1162 499
f 148 1163 147
f 879 1163 503
f 148 1164 149
f 885 1164 514
f 537 1165 62
f 1165 533 1187
f 696 1188 1187
f 801 287 1183
f 1218 570 930
f 285 1167 1218
f 639 1168 340
f 816 1168 628
f 1220 623 638
f 1170 1221 1169
f 1221 1170 128
f 1220 1170 1169
f 658 642 1171
f 467 1171 642
f 870 1173 500
f 170 1172 664
f 980 1173 378
f 1174 1173 858
f 1174 858 859
f 664 1172 1174
f 1176 1175 525
f 677 1175 679
f 1177 525 391
f 1176 526 986
f 391 742 1177
f 526 1177 742
f 286 1178 412
f 695 1178 698
f 710 1179 711
f 516 714 1179
f 438 305 1180
f 1180 305 308
f 284 880 1181
f 553 1181 880
f 1029 1182 571
f 930 1182 411
f 1184 1183 576
f 1185 1166 1186
f 59 1184 576
f 1184 60 1217
f 801 1183 1185
f 1184 1185 1183
f 1187 1186 1166
f 1188 1186 1187
f 1165 1187 1166
f 1187 533 1225
f 698 1188 696
f 286 1186 1188
f 809 1189 606
f 952 1189 608
f 952 1190 812
f 36 812 1190
f 837 1191 103
f 1192 1191 835
f 835 840 1192
f 1192 840 1224
f 96 1193 893
f 97 894 1193
f 769 1194 770
f 1088 1194 905
f 1196 39 40
f 943 1195 941
f 1197 40 41
f 941 1195 1196
f 41 1198 1197
f 1210 1211 1213
f 935 1198 41
f 1198 804 1213
f 855 1199 481
f 1200 1199 856
f 1045 1200 856
f 1200 1046 1047
f 433 1201 432
f 972 1201 253
f 1202 78 242
f 518 1202 984
f 1030 1203 331
f 334 1203 1032
f 1032 1204 334
f 456 1204 1033
f 845 1205 844
f 1086 1205 843
f 1058 1206 1009
f 1004 1206 1000
f 1065 1208 1207
f 1208 1209 1207
f 1070 1208 1065
f 1209 1208 944
f 1210 1209 944
f 1213 1212 1209
f 945 1210 944
f 1211 1210 941
f 1196 1211 941
f 1197 1198 1213
f 936 1212 804
f 1207 1212 595
f 1210 1213 1209
f 1213 1211 1197
f 1208 1214 944
f 946 1214 1070
f 1079 1215 957
f 1087 1215 1051
f 471 1216 473
f 358 1216 1154
f 1165 1217 61
f 1217 1166 1185
f 411 1218 930
f 285 1218 931
f 1220 1219 623
f 1222 1219 1169
f 1170 1220 639
f 1219 1220 1169
f 128 129 1221
f 129 434 1223
f 633 1222 432
f 1169 1221 1222
f 432 1223 434
f 1221 1223 1222
f 956 1224 840
f 1224 376 497
f 699 1225 530
f 1187 1225 696
f 1096 1226 398
f 774 1226 771
f 1229 396 900
f 901 773 1228
f 762 1228 908
f 901 1228 1227
f 901 1227 1229
f 396 1229 1227
f 1040 1230 951
f 1035 1230 1034
f 1067 1231 808
f 1207 1231 1065
f 1232 807 596
f 808 1231 1232
