# pattern_smooth best-fit FEM (phase 3), RMSE 3.330 mm
# params: /home/chaoyu/phd_simulation/FDM/optimisation/pattern_smooth_rm2_10strip_spline10_sI_fol_result.json
v -0.07938931 -1.09618321 0.00000000
v -0.06967785 -1.07662058 0.01395342
v -0.05775864 -1.05264946 0.03106320
v -0.04693560 -1.03097149 0.04656294
v -0.03681422 -1.01093687 0.06086035
v -0.02473043 -0.99067535 0.07348839
v -0.01191911 -0.96933880 0.08682994
v 0.00019143 -0.94928536 0.09941121
v 0.01330210 -0.92766094 0.11302648
v 0.03075072 -0.90725916 0.12305983
v 0.05027679 -0.88480752 0.13398707
v 0.07043665 -0.86167433 0.14529301
v 0.08991288 -0.83934569 0.15625577
v 0.10927097 -0.81954929 0.16347451
v 0.13033162 -0.79933862 0.16929667
v 0.15225930 -0.77828029 0.17541286
v 0.17164114 -0.75966101 0.18085637
v 0.19880882 -0.74844788 0.17366144
v 0.22609205 -0.73720979 0.16646924
v 0.25299985 -0.72615858 0.15940066
v 0.27839185 -0.71869874 0.14691846
v 0.30475233 -0.71182054 0.13236347
v 0.33033638 -0.70520663 0.11824781
v 0.35519902 -0.69884569 0.10453307
v 0.38411958 -0.69153638 0.08857806
v 0.41322157 -0.68428425 0.07251765
v 0.43772150 -0.68104455 0.05392223
v 0.45743251 -0.67929017 0.03753388
v 0.47889331 -0.67743287 0.01969637
v 0.50259542 -0.67541985 0.00000000
v 0.49039294 -0.64682028 0.00000000
v 0.47705156 -0.61803819 0.00000000
v 0.46219909 -0.58938171 0.00000000
v 0.44711907 -0.56028611 0.00000000
v 0.43466338 -0.53625399 0.00000000
v 0.42199442 -0.50695223 0.00000000
v 0.40936106 -0.47587015 0.00000000
v 0.39826563 -0.44857187 0.00000000
v 0.38812015 -0.41671655 0.00000000
v 0.38008588 -0.38478035 0.00000000
v 0.37192372 -0.35233574 0.00000000
v 0.36496608 -0.31949785 0.00000000
v 0.35986056 -0.29113373 0.00000000
v 0.35446270 -0.26114571 0.00000000
v 0.35120710 -0.23184222 0.00000000
v 0.35003794 -0.20144447 0.00000000
v 0.34889887 -0.17182895 0.00000000
v 0.34956442 -0.13632195 0.00000000
v 0.35236641 -0.10870229 0.00000000
v 0.32921747 -0.12161241 0.00679055
v 0.30005237 -0.13782743 0.01530150
v 0.27336701 -0.15251821 0.02293877
v 0.24939328 -0.16569991 0.02980620
v 0.22396450 -0.17967251 0.03710239
v 0.19674164 -0.19427568 0.04456239
v 0.17016084 -0.20840303 0.05171407
v 0.14170293 -0.22206050 0.05836061
v 0.11560449 -0.23332783 0.06358668
v 0.08867781 -0.24496728 0.06898891
v 0.05499015 -0.25795886 0.07448171
v 0.02162305 -0.27093260 0.08001185
v -0.01045027 -0.28175983 0.08432435
v -0.04221298 -0.29170131 0.08813892
v -0.07168265 -0.29762942 0.09022982
v -0.10489916 -0.30331834 0.09219855
v -0.13931776 -0.30697374 0.09331984
v -0.17060450 -0.30872585 0.09372287
v -0.20146100 -0.31033069 0.09413007
v -0.23015008 -0.30726974 0.09275296
v -0.26277480 -0.30243925 0.09069902
v -0.29659940 -0.29725258 0.08853175
v -0.32836480 -0.28912086 0.08497126
v -0.36444328 -0.27977182 0.08091579
v -0.39767072 -0.26921592 0.07632926
v -0.42693853 -0.25721047 0.07108633
v -0.45429476 -0.24596790 0.06618672
v -0.48244782 -0.23226363 0.06010761
v -0.51024728 -0.21780651 0.05366024
v -0.53331115 -0.20579712 0.04830871
v -0.55522880 -0.19438631 0.04322715
v -0.58512701 -0.17493984 0.03444719
v -0.61288503 -0.15687605 0.02629920
v -0.63914870 -0.13979596 0.01860087
v -0.66754162 -0.12022633 0.00971197
v -0.69740458 -0.09893130 0.00000000
v -0.68327729 -0.12371896 0.00915999
v -0.66755721 -0.15131470 0.01936046
v -0.65579090 -0.17198344 0.02700505
v -0.64403782 -0.19293664 0.03468020
v -0.63323439 -0.21694602 0.04221051
v -0.62116576 -0.24378404 0.05063987
v -0.60903523 -0.27078521 0.05913619
v -0.59723984 -0.29789011 0.06744351
v -0.58854854 -0.32722915 0.07379037
v -0.57985226 -0.35665837 0.08017643
v -0.57060234 -0.38807083 0.08701539
v -0.56171387 -0.41981356 0.09355278
v -0.55561284 -0.45495636 0.09730022
v -0.54982992 -0.48849526 0.10090739
v -0.54440877 -0.52012469 0.10433840
v -0.53918929 -0.55071353 0.10768829
v -0.53881173 -0.58434751 0.10657525
v -0.53871289 -0.61655086 0.10532052
v -0.53862150 -0.64884289 0.10409673
v -0.53853122 -0.68073191 0.10292293
v -0.54281372 -0.71008191 0.09876212
v -0.55176597 -0.74006844 0.09129166
v -0.56051352 -0.76933217 0.08402859
v -0.56868518 -0.79659793 0.07727524
v -0.57704617 -0.82440247 0.07039577
v -0.58606914 -0.85429420 0.06300431
v -0.59363612 -0.87695644 0.05691858
v -0.60561541 -0.89906124 0.04784527
v -0.61804041 -0.92192010 0.03846607
v -0.63040378 -0.94459234 0.02916152
v -0.64231932 -0.96637880 0.02021591
v -0.65570423 -0.99079081 0.01018622
v -0.66931298 -1.01557252 0.00000000
v -0.65378832 -1.00172904 0.00891059
v -0.63425662 -0.98431246 0.02012103
v -0.61537016 -0.96747122 0.03096116
v -0.59281951 -0.94736254 0.04390440
v -0.56953364 -0.92659828 0.05726962
v -0.54707639 -0.90697251 0.06989819
v -0.51863661 -0.88868641 0.08159919
v -0.49374150 -0.87267951 0.09184179
v -0.46802902 -0.85669937 0.10215723
v -0.43570257 -0.85229164 0.10764478
v -0.39824196 -0.84718392 0.11400388
v -0.36556294 -0.85150689 0.11458723
v -0.33184902 -0.85765610 0.11423383
v -0.30740070 -0.87160693 0.10899450
v -0.28040147 -0.88718839 0.10311665
v -0.25362141 -0.90264343 0.09728650
v -0.23304652 -0.92119894 0.08869808
v -0.21151341 -0.94117143 0.07936965
v -0.18922525 -0.96184436 0.06971414
v -0.16777454 -0.98304747 0.05953036
v -0.14895863 -1.00713241 0.04685723
v -0.13014273 -1.03121727 0.03418410
v -0.11215323 -1.05424439 0.02206758
v -0.09406323 -1.07740018 0.00988337
v -0.11890024 -0.82251272 0.10438642
v -0.32262207 -0.31806934 0.09651222
v -0.32086678 -0.34799187 0.10733464
v -0.32075036 -0.37850101 0.11702426
v -0.32082786 -0.40935234 0.12551849
v -0.32099712 -0.44036844 0.13279706
v -0.32104313 -0.47121359 0.13874327
v -0.32095355 -0.50229951 0.14356176
v -0.32080633 -0.53336819 0.14720679
v -0.32053940 -0.56411401 0.14961042
v -0.32029539 -0.59502039 0.15088251
v -0.32003392 -0.62591444 0.15099443
v -0.31978002 -0.65684366 0.14994448
v -0.31952918 -0.68775203 0.14773978
v -0.31917655 -0.71828343 0.14439296
v -0.31884471 -0.74922560 0.13982858
v -0.31864673 -0.78034194 0.13395242
v -0.31827252 -0.81123172 0.12684153
v -0.31598844 -0.84240812 0.11842630
v -0.13368448 -0.33678008 0.10098446
v -0.13088257 -0.36733306 0.10889197
v -0.12870936 -0.39787671 0.11599642
v -0.12609198 -0.42777777 0.12207348
v -0.12342595 -0.45771695 0.12720580
v -0.12125515 -0.48783790 0.13133384
v -0.12006999 -0.51822862 0.13437072
v -0.12010043 -0.54850881 0.13614042
v -0.12122056 -0.57902928 0.13667916
v -0.12317611 -0.60963758 0.13608678
v -0.12523839 -0.64006536 0.13451476
v -0.12638118 -0.67051350 0.13187909
v -0.12642698 -0.70122653 0.12815265
v -0.12529909 -0.73165367 0.12359009
v -0.12303017 -0.76202993 0.11825333
v -0.12073046 -0.79281108 0.11173895
v -0.11293221 -0.85378264 0.09583983
v -0.10676440 -0.88452905 0.08696658
v -0.10022572 -0.91402358 0.07814202
v -0.09379281 -0.94381790 0.06817562
v -0.08765546 -0.97373321 0.05736680
v -0.08361011 -1.00443670 0.04460647
v -0.08234906 -1.03431441 0.03090273
v -0.08153709 -1.06526523 0.01573393
v 0.33166072 -0.13167528 0.00795201
v 0.31126778 -0.15511466 0.01791780
v 0.29000676 -0.17778620 0.03023635
v 0.26798309 -0.19916806 0.04411841
v 0.24549688 -0.22054100 0.05933335
v 0.22355374 -0.24236352 0.07527502
v 0.20276407 -0.26526378 0.09133499
v 0.18301448 -0.28954549 0.10740484
v 0.16429407 -0.31440881 0.12278067
v 0.14675758 -0.34044165 0.13731406
v 0.12916896 -0.36645528 0.15027650
v 0.11111223 -0.39208729 0.16116800
v 0.09329508 -0.41789210 0.17032647
v 0.07618568 -0.44416562 0.17789342
v 0.05884620 -0.47026800 0.18338446
v 0.04058093 -0.49507015 0.18602286
v 0.02127968 -0.51928937 0.18626171
v 0.00205024 -0.54364826 0.18462380
v -0.01606660 -0.56892854 0.18163666
v -0.03276250 -0.59523507 0.17742096
v -0.04868520 -0.62201247 0.17165968
v -0.06355945 -0.64940330 0.16441856
v -0.07712138 -0.67740533 0.15598854
v -0.08817138 -0.70669158 0.14699698
v -0.09596500 -0.73691772 0.13801689
v -0.10237210 -0.76714527 0.12836720
v -0.10921570 -0.79625558 0.11704792
v -0.34351488 -0.83067790 0.12203419
v 0.44468844 -0.64283159 0.04600905
v 0.33536345 -0.15380658 0.00765614
v 0.46656721 -0.65549344 0.02645397
v -0.61127063 -0.94053633 0.03831060
v -0.59399207 -0.92275587 0.04909471
v -0.56002415 -0.87569869 0.07244746
v -0.63181272 -0.17063996 0.03202240
v -0.56539773 -0.23964825 0.06085408
v -0.06119355 -1.01239407 0.05155520
v -0.05012600 -0.96348237 0.08184230
v 0.33399765 -0.65927068 0.15038840
v 0.42327164 -0.65908104 0.06705799
v 0.32420266 -0.17567040 0.01557423
v 0.46418159 -0.63409153 0.02266669
v 0.45439268 -0.61124523 0.02504845
v -0.57734793 -0.89964081 0.06057910
v -0.61804446 -0.19369366 0.04138431
v -0.55387852 -0.21857965 0.05371291
v -0.06352745 -0.98631100 0.06417356
v -0.03252609 -0.97382558 0.08255085
v -0.02483868 -0.95223466 0.09870792
v 0.34046541 -0.68346568 0.12921857
v 0.42773991 -0.58795923 0.05339811
v -0.58509161 -0.20607876 0.04795020
v -0.53061975 -0.24473223 0.06515354
v -0.04483890 -0.99374295 0.06748453
v 0.36973530 -0.66161730 0.11503417
v 0.30520029 -0.68094229 0.16166449
v -0.52851286 -0.22516281 0.05694628
v 0.35171121 -0.66756115 0.12904067
v 0.35293610 -0.63988341 0.14115743
v 0.32107698 -0.69196694 0.13942894
v -0.52317373 -0.82589849 0.09632343
v -0.48584174 -0.70331817 0.12867754
v -0.27309227 -0.84524133 0.11801509
v -0.14465066 -0.94086301 0.07314698
v -0.17407661 -0.85466097 0.10749858
v -0.26022827 -0.73500336 0.14359036
v -0.26133790 -0.64199399 0.15349880
v -0.37797933 -0.76496035 0.13728738
v -0.09376854 -0.62830761 0.15117468
v -0.10978680 -0.71708024 0.13489086
v -0.10658853 -0.68691731 0.14078747
v -0.11257873 -0.74709197 0.12763830
v -0.11650349 -1.00192670 0.04411748
v -0.48466280 -0.52549510 0.13153571
v -0.26295485 -0.48656257 0.14574519
v -0.06921573 -0.40462038 0.13141746
v -0.26306773 -0.39329347 0.12520971
v -0.37882758 -0.39321225 0.12383070
v -0.08280732 -0.34647736 0.11247658
v -0.35245559 -0.30834142 0.09344277
v -0.28844433 -0.33110623 0.10271349
v -0.31543093 -0.30152015 0.09029913
v -0.30238939 -0.31670254 0.09680886
v -0.46096085 -0.30185810 0.09148853
v -0.18481516 -0.35913790 0.11583751
v -0.15461464 -0.32529895 0.10409928
v -0.18159394 -0.33273319 0.10548803
v -0.12151782 -0.31852019 0.09440094
v -0.10691904 -0.33643444 0.10725342
v -0.10444490 -0.36275226 0.11422449
v -0.08430114 -0.32041105 0.10233623
v -0.07743545 -0.37604967 0.12219940
v -0.09371287 -1.05056449 0.02376020
v -0.10649343 -1.02918993 0.03314401
v -0.05337293 -0.85692289 0.13074305
v -0.02622397 -0.71398936 0.18297587
v -0.07480476 -0.56502794 0.15798533
v 0.19432453 -0.69590378 0.22324035
v -0.03575704 -0.49342674 0.16211720
v 0.18692321 -0.38829689 0.16393974
v 0.07204829 -0.34282569 0.13275932
v 0.10929469 -0.29492641 0.10975073
v 0.16359592 -0.25302629 0.08615084
v 0.19672008 -0.22439727 0.06678167
v 0.25837908 -0.29299489 0.09143129
v 0.24276043 -0.19585505 0.04634742
v 0.21999199 -0.21054978 0.05659915
v 0.26930936 -0.17270700 0.03200062
v 0.29185618 -0.15863433 0.02303294
v 0.30797773 -0.21848651 0.03410686
v -0.35041443 -0.79610150 0.13147065
v -0.55860958 -0.84651555 0.07799328
v -0.59374372 -0.24537739 0.05951800
v -0.05743811 -0.91996395 0.10097951
v -0.07309375 -0.95522481 0.07527269
v -0.05483343 -0.94214832 0.09109341
v -0.07551701 -0.93316029 0.08472387
v -0.03372189 -0.92827636 0.10755896
v -0.01117821 -0.93270762 0.11489168
v -0.03352915 -0.88935290 0.12677442
v 0.00138839 -0.90415251 0.13199881
v -0.04024542 -0.90882730 0.11452381
v -0.01915696 -0.91181269 0.12169391
v -0.06353244 -0.89011872 0.11132977
v -0.55985268 -0.89421208 0.06858237
v -0.53910890 -0.88680751 0.07691183
v -0.52602920 -0.85770268 0.08802055
v 0.41896223 -0.55963209 0.05625634
v 0.41133803 -0.62246956 0.08005468
v -0.60806237 -0.21814504 0.04990397
v -0.54361515 -0.29730414 0.08103252
v 0.36804215 -0.68208939 0.10626169
v 0.39388647 -0.66701750 0.09052512
v 0.25588016 -0.68244042 0.20029287
v 0.29008060 -0.69987133 0.15850643
v 0.28090562 -0.67867431 0.18411062
v 0.26581956 -0.70451029 0.17388690
v 0.29523664 -0.63831487 0.19887739
v 0.23068815 -0.70676656 0.19673921
v 0.29453301 -0.66139911 0.18527014
v 0.31320873 -0.65178514 0.17465444
v 0.25878228 -0.64482011 0.22487250
v 0.32958832 -0.63522402 0.16825165
v 0.26464061 -0.66491393 0.20674148
v 0.23544477 -0.65998647 0.23015196
v 0.34661997 -0.59253515 0.16579876
v 0.34344251 -0.61635978 0.16175725
v 0.37489775 -0.61711999 0.12392532
v 0.30328632 -0.59515337 0.20816014
v 0.32171697 -0.61299276 0.18597181
v 0.30032629 -0.61704440 0.20442594
v 0.26089295 -0.59429371 0.24246384
v 0.27429989 -0.61977750 0.22542597
v -0.55023853 -0.81780673 0.08652191
v -0.49606931 -0.84115914 0.10144548
v -0.50437312 -0.77109984 0.11391359
v -0.37786674 -0.67198016 0.15030418
v -0.51503426 -0.69889905 0.11692277
v -0.29374726 -0.82602461 0.12370341
v -0.29515352 -0.85222888 0.11571035
v -0.27906091 -0.86648534 0.11114245
v -0.25745651 -0.87852964 0.10683574
v -0.21809210 -0.88635211 0.10268710
v -0.23918711 -0.88848627 0.10277651
v -0.23322032 -0.85785895 0.11304173
v -0.16346132 -0.95855270 0.06934175
v -0.13584550 -0.97750071 0.05738488
v -0.17817758 -0.92624423 0.08425207
v -0.14399354 -0.95978933 0.06563986
v -0.11781984 -0.95732015 0.06229633
v -0.17870892 -0.94625845 0.07610666
v -0.13399481 -0.90691171 0.08322230
v -0.14290412 -0.84618198 0.10384874
v -0.18074365 -0.78212019 0.12729775
v -0.28422815 -0.70394322 0.14810960
v -0.29212283 -0.73461595 0.14363070
v -0.18250484 -0.61906925 0.14863242
v -0.26212029 -0.57998430 0.15416086
v -0.28533448 -0.61088976 0.15393194
v -0.29307079 -0.64178949 0.15283470
v -0.35453686 -0.73387623 0.14348789
v -0.11257259 -0.62621891 0.14174346
v -0.10506075 -0.64854955 0.14478031
v -0.10160635 -0.60599377 0.14755584
v -0.08475235 -0.64747608 0.15472984
v -0.07399683 -0.60853345 0.16039432
v -0.13089486 -1.01307166 0.04170926
v -0.09899480 -0.99263835 0.04970690
v -0.37844002 -0.57920325 0.15190287
v -0.37877886 -0.48627202 0.14328181
v -0.51521056 -0.53096062 0.11978990
v -0.28624327 -0.51769668 0.14883903
v -0.17812319 -0.53236693 0.14702758
v -0.18308898 -0.44623045 0.13681225
v -0.28654543 -0.45578903 0.13919301
v -0.29446183 -0.48663145 0.14409817
v -0.10038718 -0.40895142 0.12589693
v 0.01833202 -0.42170495 0.15709243
v -0.29449698 -0.39364631 0.12354391
v -0.35564442 -0.42401929 0.13121750
v -0.34770483 -0.39318614 0.12304001
v -0.33519966 -0.30508200 0.09175267
v -0.34409851 -0.33366776 0.10342314
v -0.45005452 -0.27470058 0.08035298
v -0.22061136 -0.34352617 0.10908329
v -0.15934853 -0.38197587 0.12004752
v -0.04552022 -0.32980406 0.10869506
v -0.10096041 -1.01260264 0.04123553
v -0.08492188 -0.86471959 0.10904979
v 0.01905427 -0.83876478 0.16491178
v -0.05027417 -0.79786782 0.15225471
v -0.05702058 -0.70245170 0.16620984
v 0.08367610 -0.77468823 0.20088063
v 0.01121191 -0.63902519 0.20580468
v -0.10044712 -0.56413103 0.14653870
v -0.10228450 -0.58499369 0.14672149
v -0.08585953 -0.52967543 0.14987165
v -0.10093787 -0.54363960 0.14479373
v -0.04605384 -0.56854325 0.17011691
v 0.07677616 -0.54375425 0.21854836
v 0.17585679 -0.72868447 0.20887906
v -0.01060358 -0.51336353 0.17472028
v -0.07660439 -0.46735819 0.14380077
v 0.18537671 -0.34852451 0.14121154
v 0.16082656 -0.36962817 0.15453225
v 0.15027464 -0.43965454 0.19252257
v 0.09755630 -0.36169017 0.14583530
v 0.13429224 -0.31193108 0.12171660
v 0.11298045 -0.26324479 0.08826214
v 0.13718878 -0.24653241 0.07909257
v 0.18076530 -0.26715019 0.09459469
v 0.18949863 -0.24583351 0.08112933
v 0.15553668 -0.28037657 0.10338705
v 0.18821448 -0.20895228 0.05551941
v 0.31046216 -0.31373679 0.06891160
v 0.25950598 -0.25553147 0.07215359
v 0.22027109 -0.29912987 0.10740715
v 0.33232990 -0.21717975 0.01689031
v 0.32893612 -0.19628271 0.01610702
v 0.32260524 -0.24890317 0.03243230
v 0.29143018 -0.20136890 0.03703970
v 0.27754492 -0.22995165 0.05364524
v -0.33042471 -0.79592726 0.13111748
v -0.34077872 -0.77558889 0.13590351
v -0.36171790 -0.77821829 0.13536559
v -0.35410030 -0.75680552 0.13971884
v -0.39563081 -0.80235341 0.12737350
v -0.37330063 -0.79759536 0.13051952
v -0.37940139 -0.82541247 0.12280563
v -0.57200827 -0.27386714 0.07038205
v -0.58330357 -0.22698745 0.05548197
v -0.04816930 -0.87629862 0.12533633
v -0.01914355 -0.85650186 0.14725267
v -0.08700689 -0.89666551 0.09468415
v -0.51217390 -0.87095148 0.08836964
v -0.54546954 -0.86169632 0.08054226
v 0.43390039 -0.56992019 0.03426939
v 0.42421945 -0.63867717 0.06648218
v 0.39939669 -0.64379060 0.09087336
v -0.57100020 -0.30496510 0.07726548
v 0.23660407 -0.72256346 0.17643156
v 0.21456955 -0.72317846 0.19163031
v 0.23287718 -0.68385557 0.21425427
v 0.20652106 -0.66746849 0.23727930
v 0.21504658 -0.69393580 0.21644994
v 0.37390694 -0.63967939 0.11911579
v 0.39072199 -0.58528669 0.10638661
v 0.35618668 -0.48097651 0.12361375
v 0.22084366 -0.61422977 0.26026553
v 0.28245436 -0.59964784 0.22520233
v 0.28184435 -0.55648628 0.22603164
v 0.27573554 -0.57831102 0.23431328
v 0.23833507 -0.55764702 0.24993689
v 0.25517113 -0.57271182 0.24638472
v 0.22791710 -0.58565522 0.26108245
v -0.54082261 -0.83638357 0.08737828
v -0.48651743 -0.85646425 0.09892230
v -0.53258684 -0.76224046 0.10228247
v -0.34667806 -0.67200031 0.15047703
v -0.50589325 -0.73444598 0.11776485
v -0.49431910 -0.65791773 0.12828540
v -0.24695060 -0.79534493 0.13104656
v -0.14917238 -0.99015390 0.05425236
v -0.20478896 -0.91463000 0.09110002
v -0.11494050 -0.90243616 0.08205831
v -0.12832941 -0.88572372 0.08908045
v -0.12048953 -0.92354824 0.07526705
v -0.16394661 -0.88857890 0.09504593
v -0.12497298 -0.84071025 0.10110324
v -0.15439566 -0.80925259 0.11615462
v -0.15882656 -0.75057827 0.12941264
v -0.30512809 -0.70353361 0.14728324
v -0.29495590 -0.67947012 0.15029516
v -0.30991421 -0.73417084 0.14286323
v -0.29229632 -0.76560097 0.13821881
v -0.18546875 -0.68586339 0.14380096
v -0.16218052 -0.65358265 0.14285500
v -0.15104455 -0.62232647 0.14266708
v -0.29362798 -0.57977334 0.15298956
v -0.30611515 -0.61070786 0.15258656
v -0.31078585 -0.64160826 0.15149744
v -0.33334530 -0.73374627 0.14301638
v -0.34395026 -0.70945224 0.14674235
v -0.10928932 -0.66734886 0.14131521
v -0.07286125 -0.62985079 0.16085242
v -0.05392533 -0.60076468 0.16893035
v -0.07103860 -0.58673643 0.16105768
v -0.11519989 -0.97929946 0.05312592
v -0.34732407 -0.57913691 0.15199963
v -0.35568344 -0.51735594 0.14739916
v -0.34783120 -0.48629110 0.14299184
v -0.53282029 -0.53404418 0.11107067
v -0.30691625 -0.51779978 0.14714815
v -0.29643272 -0.54216200 0.15054074
v -0.14685442 -0.53284671 0.14198607
v -0.15671127 -0.47438838 0.13794560
v -0.30715272 -0.45572354 0.13746169
v -0.29686717 -0.43132470 0.13316546
v -0.31198748 -0.48671547 0.14236161
v -0.11824060 -0.41154515 0.12172327
v -0.09876278 -0.43858649 0.13210022
v -0.08589419 -0.39457005 0.12568791
v -0.10764075 -0.38738258 0.11977225
v 0.02104090 -0.46040494 0.17079005
v 0.05506630 -0.40988019 0.16086448
v -0.31186608 -0.39383159 0.12228098
v -0.29480649 -0.36278697 0.11398135
v -0.33480932 -0.42447954 0.13030938
v -0.34531636 -0.44844258 0.13614370
v -0.32986796 -0.39355591 0.12204214
v -0.39807364 -0.33607005 0.10575619
v -0.34608444 -0.36270497 0.11376407
v -0.48048156 -0.26331537 0.07495939
v -0.19942879 -0.34428031 0.10988544
v -0.21160419 -0.36970509 0.11906254
v -0.21766066 -0.32344972 0.10043948
v -0.24644631 -0.33038065 0.10345225
v -0.14053458 -0.38244678 0.11588521
v -0.15080264 -0.36363302 0.11423332
v -0.14893520 -0.40035968 0.12217941
v -0.18647894 -0.40816015 0.12917973
v -0.14941693 -0.34432767 0.10893321
v -0.05421415 -0.30974589 0.09892829
v -0.02903116 -0.31104065 0.10065744
v -0.00197934 -0.34971535 0.12304851
v -0.02064672 -0.33395080 0.11281521
v -0.04046338 -0.36617321 0.12397776
v 0.01406617 -0.31225748 0.10606625
v -0.02235560 -0.35473379 0.12197533
v -0.01117832 -0.39356384 0.13959054
v -0.00838592 -0.37124056 0.13134995
v -0.00758815 -0.31614903 0.10536741
v 0.02374780 -0.38541483 0.14396840
v -0.06690748 -0.33174062 0.10840118
v -0.06029507 -0.35387389 0.11698968
v -0.10203948 -0.86853119 0.09665343
v -0.08391946 -0.82600665 0.12349518
v 0.04205216 -0.85929436 0.15547950
v -0.08125242 -0.78989950 0.13598634
v -0.07420524 -0.69577583 0.15658836
v -0.06919686 -0.72808670 0.15602828
v -0.04862029 -0.67452144 0.17294900
v 0.07767133 -0.81100127 0.18180546
v 0.10381557 -0.79616149 0.18648842
v -0.01670584 -0.62313422 0.18960367
v 0.03732850 -0.58850038 0.21266211
v -0.09479162 -0.50103027 0.14292768
v -0.05742377 -0.53959907 0.16236172
v 0.05205322 -0.52431816 0.20221795
v 0.18296656 -0.74601756 0.19302131
v 0.15730018 -0.74609542 0.20302284
v 0.13157606 -0.70356563 0.23123012
v 0.15055355 -0.72251662 0.22049170
v 0.16898261 -0.70343581 0.22653275
v 0.11213394 -0.74249941 0.21586571
v 0.17283690 -0.66887806 0.24263067
v 0.12806546 -0.72650732 0.22195906
v 0.09394455 -0.70690813 0.22928847
v 0.00392363 -0.52509967 0.18200079
v 0.00913978 -0.48955080 0.17567298
v -0.10205194 -0.47019999 0.13616270
v 0.16775111 -0.33595796 0.13509738
v 0.19051240 -0.32157203 0.12538665
v 0.14578365 -0.35900855 0.14777268
v 0.14255808 -0.39569457 0.16796447
v 0.11339384 -0.45027018 0.19173492
v 0.11241159 -0.37306282 0.15269179
v 0.11623533 -0.33724527 0.13492621
v 0.07977125 -0.38808239 0.15603863
v 0.10622022 -0.24800734 0.07472484
v 0.09272689 -0.26281742 0.08448140
v 0.17066681 -0.23036082 0.07080246
v 0.13531294 -0.26881271 0.09501483
v 0.13633743 -0.29034084 0.10905081
v 0.34057455 -0.30846296 0.03604425
v 0.24447796 -0.24101058 0.07007846
v 0.23573881 -0.26432695 0.08453684
v 0.25320108 -0.27411865 0.08402473
v 0.28862557 -0.27588534 0.06745606
v 0.20377248 -0.28613938 0.10321810
v 0.34168924 -0.24748416 0.01347286
v 0.33431352 -0.26784826 0.02694020
v 0.31032368 -0.26856107 0.04939840
v 0.29685284 -0.24682140 0.05019679
v 0.30641731 -0.29113950 0.06199095
v 0.28300799 -0.30075389 0.08255959
v 0.25719783 -0.34316429 0.11900186
v 0.26445899 -0.31837752 0.10177249
v 0.24172479 -0.31010104 0.10682721
v 0.29046834 -0.33991767 0.09843253
v 0.21864838 -0.32760771 0.12359242
v 0.28439290 -0.32080112 0.09173829
v 0.26372704 -0.21730664 0.05312385
v -0.36266731 -0.83280253 0.12138396
v -0.57665052 -0.25478506 0.06465537
v -0.55353842 -0.26012003 0.06859699
v -0.59123871 -0.27798105 0.06670125
v -0.56032603 -0.33406116 0.08512456
v -0.56078997 -0.28930462 0.07598295
v 0.41043956 -0.57841351 0.07741073
v 0.39424568 -0.56274155 0.09959683
v 0.40862875 -0.60042713 0.08326722
v 0.40377695 -0.53111897 0.06879807
v 0.36356175 -0.57260556 0.14672894
v 0.38655140 -0.46916942 0.06391905
v 0.21540865 -0.64111480 0.24965276
v 0.24714374 -0.61903650 0.24587173
v 0.17996632 -0.55353041 0.25219420
v -0.54133296 -0.79002170 0.09459529
v -0.32882179 -0.67212320 0.14965120
v -0.34636688 -0.64133997 0.15216977
v -0.50263403 -0.71434837 0.12105341
v -0.52352102 -0.71947863 0.11087370
v -0.48273381 -0.72755173 0.12711245
v -0.52622678 -0.74137524 0.10767434
v -0.48875698 -0.75182764 0.12196403
v -0.43834458 -0.70849353 0.14006110
v -0.45979735 -0.79073352 0.12204532
v -0.46281228 -0.71222375 0.13456139
v -0.47953161 -0.77521052 0.12091794
v -0.45136448 -0.74790286 0.13195341
v -0.45576145 -0.67178478 0.13983303
v -0.49739662 -0.80433572 0.11025431
v -0.44823101 -0.72713818 0.13584079
v -0.41141348 -0.74291646 0.13891334
v -0.47068276 -0.74337973 0.12846513
v -0.45823749 -0.76879183 0.12685982
v -0.42476986 -0.78222950 0.12940847
v -0.46744122 -0.69061990 0.13534464
v -0.47753734 -0.67154559 0.13373978
v -0.46662230 -0.64093432 0.13866311
v -0.49922326 -0.68121880 0.12502349
v -0.47952296 -0.79503857 0.11717728
v -0.47634963 -0.82197163 0.11152507
v -0.51851410 -0.66474091 0.11635271
v -0.51324622 -0.63647850 0.12011037
v -0.26654652 -0.81704435 0.12615826
v -0.22275516 -0.90512077 0.09560458
v -0.12641362 -0.94135325 0.06922665
v -0.18415017 -0.90253111 0.09367977
v -0.13355801 -0.80866336 0.11148687
v -0.14438751 -0.78654574 0.11909840
v -0.16338418 -0.79177408 0.12206990
v -0.15872450 -0.77150094 0.12555499
v -0.18790025 -0.81463126 0.12079654
v -0.13786168 -0.74843563 0.12456803
v -0.15026702 -0.72627049 0.13139051
v -0.19188012 -0.72622165 0.13944605
v -0.17119459 -0.73299901 0.13484932
v -0.16831664 -0.70648713 0.13832966
v -0.19041328 -0.75515396 0.13432762
v -0.25846479 -0.67846449 0.15095455
v -0.29270977 -0.79593857 0.13159483
v -0.27615303 -0.75074494 0.14115413
v -0.26719521 -0.77670055 0.13595989
v -0.14065636 -0.65455382 0.13763259
v -0.15244287 -0.67965325 0.13813778
v -0.13325340 -0.62396238 0.13808099
v -0.14780879 -0.59230847 0.14334400
v -0.31132602 -0.57969929 0.15142310
v -0.38008195 -0.70815910 0.14655623
v -0.09126286 -0.66480319 0.15042641
v -0.32954705 -0.57933775 0.15109493
v -0.34696728 -0.54839101 0.15024285
v -0.34659131 -0.61038650 0.15268255
v -0.33493149 -0.51761497 0.14659203
v -0.33009695 -0.48650845 0.14198637
v -0.26016627 -0.54347664 0.15228491
v -0.12915963 -0.53307539 0.13791187
v -0.14560975 -0.50345051 0.13946409
v -0.13612466 -0.47329049 0.13329286
v -0.14817281 -0.45048260 0.13239315
v -0.16643140 -0.45710633 0.13668122
v -0.16434506 -0.43593612 0.13257172
v -0.19518635 -0.48306201 0.14394740
v -0.26070482 -0.42964019 0.13485251
v -0.08366585 -0.42198389 0.13258578
v -0.07608708 -0.44379507 0.13929323
v -0.03975445 -0.45529052 0.15193527
v -0.05993185 -0.45539761 0.14622966
v -0.05555596 -0.47925493 0.15271856
v -0.04938783 -0.42646481 0.14177323
v -0.07564775 -0.48938536 0.14797830
v 0.03801729 -0.47346239 0.17931026
v 0.04343719 -0.44809319 0.17254968
v 0.02486228 -0.44076702 0.16548579
v 0.04072838 -0.42619838 0.16423424
v -0.00861052 -0.44228985 0.15701631
v 0.03384991 -0.40484929 0.15430315
v 0.04932587 -0.38378835 0.14868816
v 0.03464743 -0.34954484 0.12964783
v 0.03566425 -0.36924214 0.13925180
v 0.05771995 -0.36138414 0.13973243
v 0.01591095 -0.36095194 0.13161338
v 0.07269245 -0.42255692 0.16920351
v -0.31216612 -0.36307662 0.11288776
v -0.27886081 -0.37774187 0.11964394
v -0.24784375 -0.36322449 0.11608246
v -0.27113654 -0.35396377 0.11193760
v -0.30161460 -0.34509686 0.10748338
v -0.38121631 -0.44957905 0.13695249
v -0.37126584 -0.32786541 0.10219003
v -0.42045837 -0.30236561 0.09250402
v -0.36327196 -0.37684847 0.11881210
v -0.36890774 -0.35240443 0.11115462
v -0.38737212 -0.36944573 0.11692073
v -0.42832514 -0.39781639 0.12351170
v -0.40412845 -0.38902083 0.12238132
v -0.41746505 -0.36055403 0.11387820
v -0.40524601 -0.42404979 0.13090683
v -0.39417372 -0.40677758 0.12728591
v -0.38252831 -0.42654563 0.13216033
v -0.47021725 -0.28232974 0.08336055
v -0.50701047 -0.28878180 0.08387384
v -0.48539605 -0.30099606 0.08963108
v -0.51575178 -0.32974010 0.09471595
v -0.50488517 -0.31082069 0.09106210
v -0.52660340 -0.31092791 0.08766131
v -0.47881867 -0.33792770 0.10238616
v -0.54639749 -0.31833782 0.08551115
v -0.53709477 -0.34107464 0.09262953
v -0.47366047 -0.31797051 0.09650182
v -0.44361019 -0.33627464 0.10481735
v -0.55480531 -0.36050476 0.09074015
v -0.50560590 -0.37312575 0.10659099
v -0.51690645 -0.35273463 0.09978826
v -0.53217810 -0.37437328 0.10003930
v -0.49438249 -0.35389022 0.10445536
v -0.46613313 -0.38331134 0.11595523
v -0.48439890 -0.37265269 0.11070003
v -0.49345546 -0.40977316 0.11647336
v -0.46408164 -0.35816699 0.10982312
v -0.44144089 -0.37282254 0.11599779
v -0.46250414 -0.26126756 0.07417234
v -0.24736398 -0.31296766 0.09557833
v -0.26705971 -0.32254495 0.09966424
v -0.19032146 -0.38338050 0.12306000
v -0.21647297 -0.39959710 0.12796660
v -0.16904999 -0.34725984 0.11164009
v -0.05562349 -0.38476607 0.12810754
v -0.03290524 -0.38709583 0.13302522
v -0.02901116 -0.41139970 0.14194332
v -0.04820508 -0.40381206 0.13552737
v -0.02858127 -0.43349215 0.14888537
v -0.00550347 -0.41707181 0.14948231
v 0.00986180 -0.40194725 0.14763124
v -0.10227657 -0.81725243 0.11481741
v -0.10094423 -0.83919932 0.10830134
v 0.01035759 -0.87128310 0.14900483
v -0.07003612 -0.80877561 0.13743354
v -0.05813177 -0.83175613 0.13727139
v -0.07538528 -0.84532887 0.12218832
v -0.03584384 -0.84025582 0.14584842
v -0.00861248 -0.82786399 0.16253844
v -0.04715579 -0.72269398 0.16980360
v -0.04859712 -0.76032433 0.16252516
v -0.02568109 -0.74246077 0.17908165
v -0.03610850 -0.69363209 0.17927358
v 0.00793768 -0.68598973 0.20388058
v -0.01790597 -0.66920726 0.19070267
v -0.01277268 -0.69551997 0.19214559
v 0.01308647 -0.72753729 0.20096614
v 0.00541613 -0.70735886 0.20059729
v 0.04798281 -0.70370991 0.21922004
v 0.02721991 -0.71103767 0.20998271
v 0.05101132 -0.74655574 0.20905001
v 0.03512038 -0.73160076 0.20898635
v 0.01598921 -0.76986850 0.19147674
v 0.03048224 -0.75343176 0.20154261
v 0.04903220 -0.78660826 0.19368380
v 0.09099393 -0.82252957 0.16933905
v 0.06727885 -0.83517596 0.16727243
v 0.08566032 -0.79337709 0.19061187
v -0.03268908 -0.61369444 0.17980579
v -0.00259726 -0.59594424 0.19389099
v -0.10129786 -0.51930317 0.14241240
v -0.07579822 -0.54561435 0.15576412
v -0.02765365 -0.54128997 0.17379405
v 0.03798734 -0.51300616 0.19187763
v 0.03233907 -0.54834724 0.20080664
v 0.07164963 -0.49916849 0.20068675
v 0.11039925 -0.76964259 0.20050294
v 0.19011917 -0.67654612 0.23641169
v 0.18893836 -0.65506088 0.24738076
v 0.15643993 -0.62906867 0.25367086
v -0.01325226 -0.49095286 0.16892426
v -0.00363415 -0.46730505 0.16581462
v -0.02655824 -0.47304093 0.16036105
v 0.12778970 -0.38490325 0.16035418
v 0.12368205 -0.42023959 0.17871285
v 0.09622333 -0.43876417 0.18161829
v 0.09162808 -0.46433304 0.19254471
v 0.12865468 -0.49900121 0.21814532
v 0.11461927 -0.47666507 0.20477083
v 0.11334359 -0.31573025 0.12260411
v 0.08097108 -0.31137404 0.11624105
v 0.09490555 -0.32901286 0.12828465
v 0.09462494 -0.39922032 0.16272399
v 0.33386892 -0.34848739 0.06364420
v 0.34067390 -0.28783862 0.02712125
v 0.27998602 -0.25727779 0.06383698
v 0.23980645 -0.33097218 0.11909392
v 0.22223411 -0.36730925 0.14554985
v 0.42010541 -0.54104466 0.04247603
v 0.37089454 -0.54054072 0.13076810
v 0.37239019 -0.43847707 0.06701874
v 0.39615647 -0.49939186 0.06634124
v 0.24256148 -0.59884228 0.25745386
v 0.23636097 -0.63750274 0.24340961
v 0.20827080 -0.56332840 0.25813278
v -0.53266938 -0.80851064 0.09591023
v -0.51829057 -0.78982071 0.10510618
v -0.36244021 -0.65619762 0.15161384
v -0.37561311 -0.62552003 0.15246422
v -0.38599749 -0.64816441 0.15126445
v -0.42396490 -0.61665930 0.14824135
v -0.41695339 -0.67192803 0.14694779
v -0.40086339 -0.62746612 0.15074802
v -0.39742490 -0.66530749 0.14942245
v -0.41446767 -0.64765213 0.14870872
v -0.39953855 -0.69108712 0.14715434
v -0.39005762 -0.60301707 0.15191677
v -0.43650597 -0.65740918 0.14483247
v -0.42154280 -0.69369199 0.14445629
v -0.40492453 -0.71712798 0.14357658
v -0.43642120 -0.67906620 0.14331860
v -0.42510767 -0.72587271 0.13990340
v -0.48974347 -0.63438663 0.13083496
v -0.46570427 -0.59378215 0.13942249
v -0.50449749 -0.59924548 0.12525512
v -0.47255733 -0.61710538 0.13734932
v -0.50314071 -0.61928077 0.12583731
v -0.44809024 -0.62374511 0.14353781
v -0.48450832 -0.60104234 0.13322186
v -0.48813545 -0.56333975 0.13171012
v -0.43233886 -0.63712367 0.14643143
v -0.44198165 -0.60005136 0.14501489
v -0.41528104 -0.58893332 0.14915479
v -0.44358002 -0.55788292 0.14365597
v -0.44916268 -0.57920254 0.14319352
v -0.46550429 -0.56347945 0.13881166
v -0.46067252 -0.53720825 0.13878383
v -0.24809580 -0.83587873 0.12034575
v -0.14696067 -0.70566147 0.13346465
v -0.22418705 -0.74257761 0.14044781
v -0.21545299 -0.77936791 0.13245978
v -0.27653066 -0.68612097 0.15020722
v -0.25701079 -0.70519441 0.14792156
v -0.27696958 -0.66122348 0.15240215
v -0.17118187 -0.67152497 0.14293283
v -0.19434706 -0.64893133 0.14862143
v -0.16544452 -0.60516774 0.14638858
v -0.17792075 -0.56963293 0.14855399
v -0.18956545 -0.59347060 0.15032136
v -0.36228801 -0.71595468 0.14600589
v -0.36055939 -0.69181182 0.14884709
v -0.38108600 -0.73494311 0.14275502
v -0.36298486 -0.56333342 0.15135374
v -0.37089708 -0.53836328 0.14951533
v -0.38250925 -0.51356661 0.14674613
v -0.36277465 -0.59495525 0.15263984
v -0.27826871 -0.53566290 0.15107453
v -0.27990283 -0.56003925 0.15288049
v -0.25931435 -0.51644887 0.14980257
v -0.16245605 -0.51721688 0.14372719
v -0.18696628 -0.50793339 0.14601372
v -0.16800004 -0.49458637 0.14220534
v -0.22396376 -0.50589146 0.14824286
v -0.20515487 -0.49993044 0.14667320
v -0.22275917 -0.47798436 0.14451101
v -0.20627859 -0.52776667 0.14955389
v -0.27868970 -0.43765059 0.13582067
v -0.25959878 -0.45674615 0.14074829
v -0.27873875 -0.41265752 0.12976683
v -0.06394345 -0.51345124 0.15610467
v -0.22852334 -0.36071840 0.11558918
v -0.23540891 -0.38392708 0.12320054
v -0.24155699 -0.41017568 0.13058645
v -0.36351478 -0.44183005 0.13531957
v -0.36338603 -0.46687519 0.14018917
v -0.44073458 -0.29424355 0.08899013
v -0.44403466 -0.31507555 0.09730313
v -0.42300217 -0.27960747 0.08226814
v -0.42292059 -0.32528703 0.10169931
v -0.39254310 -0.30872511 0.09496171
v -0.37040826 -0.41101543 0.12838547
v -0.52826598 -0.27139924 0.07534643
v -0.55146542 -0.38162449 0.09442659
v -0.53018012 -0.40898072 0.10563966
v -0.43589587 -0.35425551 0.11100258
v -0.20851263 -0.42878725 0.13503599
v 0.02335760 -0.85726158 0.15696620
v 0.02117200 -0.89027122 0.13801303
v 0.00005655 -0.84680317 0.15706401
v -0.03055214 -0.81464730 0.15746985
v -0.00382007 -0.79529465 0.17607713
v -0.07544583 -0.75408015 0.14771800
v -0.06134543 -0.77867205 0.15089782
v 0.00528942 -0.66209825 0.20323778
v 0.03834607 -0.67143584 0.21903835
v -0.01273539 -0.64637966 0.19322424
v -0.00900177 -0.72795777 0.19024945
v -0.00133951 -0.75188686 0.18929575
v 0.05158722 -0.81374387 0.18052227
v 0.05921014 -0.85172554 0.15674442
v 0.04557918 -0.83530381 0.16894110
v 0.00496303 -0.61736416 0.20067439
v 0.03730357 -0.62043236 0.21731296
v 0.01892919 -0.60051746 0.20564236
v 0.01356563 -0.57275833 0.19786617
v 0.01847575 -0.53715852 0.19079216
v 0.05474950 -0.54660382 0.21039076
v 0.04535323 -0.56720744 0.21180500
v 0.08220756 -0.59362517 0.23251549
v 0.06074814 -0.58534882 0.22253442
v 0.06333459 -0.61219529 0.22799348
v 0.07879444 -0.56865838 0.22632221
v 0.12684295 -0.57526455 0.24366125
v 0.10517362 -0.55401968 0.23184033
v 0.05722980 -0.48839414 0.19051801
v 0.13045974 -0.77985963 0.18785673
v 0.14402899 -0.76258968 0.19390853
v 0.13308695 -0.74735652 0.20983363
v 0.18833606 -0.61992382 0.26151255
v 0.14563906 -0.41778749 0.18018626
v 0.17985929 -0.42226790 0.18382373
v 0.09346510 -0.48861652 0.20409940
v 0.09362227 -0.51878623 0.21613572
v 0.14697249 -0.47217862 0.20908230
v 0.34823195 -0.33050414 0.03524662
v 0.32656679 -0.32865048 0.06136746
v 0.32516031 -0.55293684 0.19059936
v 0.36583402 -0.45991475 0.09502861
v 0.32312433 -0.44047767 0.13503344
v 0.34865800 -0.44456487 0.10815953
v 0.34950656 -0.40329874 0.07786246
v 0.32639253 -0.46943869 0.15248125
v 0.34263265 -0.42373218 0.10134722
v 0.30261327 -0.40190740 0.12698056
v 0.31842579 -0.41832143 0.12447056
v 0.27881983 -0.43923605 0.16797929
v 0.30120311 -0.43395626 0.14953522
v 0.29712831 -0.46337738 0.17231024
v 0.38633158 -0.45063035 0.04508843
v 0.37623728 -0.48984933 0.09773187
v 0.34872571 -0.51604797 0.15449774
v 0.37512192 -0.51389054 0.11447337
v 0.21367760 -0.50467924 0.23074739
v -0.35701239 -0.62565497 0.15269014
v -0.44890515 -0.69308086 0.13970747
v -0.47912990 -0.54514227 0.13422330
v -0.45071526 -0.48582289 0.13632934
v -0.21568239 -0.83067527 0.11975430
v -0.20448265 -0.74148738 0.13863961
v -0.21567590 -0.71953019 0.14342242
v -0.19849200 -0.70464738 0.14342751
v -0.23918233 -0.72379238 0.14456850
v -0.22117630 -0.67551817 0.14931043
v -0.23178187 -0.69921000 0.14747744
v -0.21374992 -0.69308464 0.14673398
v -0.19738681 -0.77292511 0.13170361
v -0.19963765 -0.79535309 0.12706632
v -0.22330126 -0.80259738 0.12764707
v -0.24050193 -0.81572750 0.12551118
v -0.24101716 -0.76864873 0.13663053
v -0.22606307 -0.61653457 0.15320624
v -0.39299891 -0.75162406 0.13896323
v -0.41092682 -0.76483423 0.13475479
v -0.43044564 -0.75455897 0.13446721
v -0.42251973 -0.52270508 0.14442564
v -0.24525555 -0.49973648 0.14788044
v -0.23553344 -0.53070086 0.15113036
v -0.20510328 -0.45923934 0.14073716
v -0.23209555 -0.45150262 0.14002707
v -0.19533225 -0.55086503 0.15007376
v -0.24478920 -0.47358732 0.14397547
v -0.40294932 -0.28961064 0.08657205
v -0.38157009 -0.29140311 0.08687082
v -0.50497009 -0.26469480 0.07485578
v -0.51764048 -0.39128398 0.10671477
v -0.18890035 -0.42748788 0.13359947
v 0.03560082 -0.87693266 0.14456337
v 0.01251391 -0.81408109 0.17401632
v 0.03226419 -0.81917271 0.17570196
v 0.02719374 -0.79522481 0.18544661
v -0.08375680 -0.77109118 0.13895213
v -0.03876212 -0.64587004 0.17863843
v 0.06069832 -0.64609698 0.22876144
v 0.10247732 -0.57921006 0.23686427
v 0.11515211 -0.61967198 0.24468959
v 0.11780080 -0.59662001 0.24414909
v 0.09920585 -0.60586198 0.23964929
v 0.08876761 -0.63489748 0.23808960
v 0.13857230 -0.61097454 0.25059539
v 0.16600889 -0.60204324 0.25803188
v 0.14228426 -0.53792197 0.23779616
v 0.19695571 -0.63747638 0.25524547
v 0.17626377 -0.63720430 0.25505564
v 0.20007439 -0.59342677 0.26419498
v 0.07278898 -0.52035388 0.20914042
v 0.09471556 -0.53787830 0.22320599
v 0.11836083 -0.53398914 0.22956585
v 0.12789417 -0.55387114 0.23869355
v 0.15402365 -0.56567658 0.24964374
v 0.13291221 -0.51946835 0.22799055
v 0.17278319 -0.51137349 0.23317285
v 0.15065784 -0.50542115 0.22602130
v 0.16727843 -0.48704285 0.21946857
v 0.19102655 -0.49512808 0.22622075
v 0.17245673 -0.45881708 0.20441531
v 0.22315296 -0.45598429 0.19976948
v 0.21170681 -0.48003912 0.21666426
v 0.25713249 -0.48720597 0.20901804
v 0.19755732 -0.45963262 0.20494729
v 0.23641984 -0.47526091 0.20868984
v 0.20803891 -0.43105639 0.18661975
v 0.18541552 -0.44261009 0.19534981
v 0.18458942 -0.47563804 0.21444090
v 0.23634594 -0.49798273 0.22258934
v 0.25999516 -0.45994525 0.19094992
v 0.23184464 -0.52827705 0.23986681
v 0.25897845 -0.51571213 0.22409612
v 0.10819027 -0.50358049 0.21475290
v 0.12905643 -0.46287563 0.20118998
v 0.34083691 -0.56930648 0.17831630
v 0.34702583 -0.54763566 0.16866338
v 0.31792506 -0.57636177 0.19752671
v 0.30341780 -0.55923699 0.20899390
v 0.30542696 -0.51528403 0.19533765
v 0.29594345 -0.53736479 0.21074501
v 0.28209561 -0.51880898 0.21299798
v 0.29075206 -0.49098524 0.19329837
v 0.26772766 -0.53780807 0.22933157
v 0.31357805 -0.45592879 0.15467103
v 0.32772725 -0.49730719 0.16780995
v -0.46252917 -0.51015359 0.13643040
v -0.24406889 -0.74836938 0.14075594
v -0.20400368 -0.61087147 0.15155158
v -0.22433325 -0.57951362 0.15338030
v -0.20989733 -0.63245149 0.15138696
v -0.23471944 -0.64118773 0.15275115
v -0.24741460 -0.65937882 0.15220297
v -0.43968298 -0.77069878 0.12985147
v -0.43907852 -0.53654463 0.14317579
v -0.41050601 -0.55399347 0.14834988
v -0.40737122 -0.49628077 0.14322044
v -0.23933513 -0.43134796 0.13571649
v -0.37199012 -0.30877143 0.09432449
v 0.05454560 -0.62853694 0.22586248
v 0.03715389 -0.64380529 0.21885286
v 0.08253299 -0.61594710 0.23512738
v 0.08694747 -0.67097859 0.23532884
v 0.14633903 -0.58872868 0.25148201
v 0.18854775 -0.57431343 0.25944157
v 0.16089055 -0.54687232 0.24578052
v 0.24475723 -0.42585863 0.17443295
v 0.19998480 -0.40867778 0.17427701
v 0.22472694 -0.41174439 0.17158953
v 0.21004708 -0.38718116 0.16000928
v 0.25917462 -0.38682368 0.14396395
v 0.19872354 -0.36716971 0.15038237
v 0.23461839 -0.38758372 0.15401760
v 0.21100881 -0.34865750 0.13742822
v 0.24716009 -0.40463185 0.16017423
v 0.26868200 -0.41705546 0.15873339
v 0.20125837 -0.53269767 0.24594313
v 0.19273039 -0.51506638 0.23690126
v 0.17990543 -0.53167412 0.24358691
v 0.22082019 -0.54661401 0.25040157
v 0.30932906 -0.48096123 0.17429317
v 0.27729645 -0.47364072 0.19108668
v 0.27221292 -0.50042436 0.20937002
v 0.24786383 -0.53981735 0.23972797
v -0.43942635 -0.50641332 0.14052672
v -0.50084149 -0.47633652 0.12253167
v -0.23750834 -0.55679011 0.15291716
v -0.25589657 -0.56206739 0.15346255
v -0.21550744 -0.55945796 0.15204717
v -0.39514354 -0.53478749 0.14824499
v -0.38717319 -0.55715206 0.15039300
v -0.40098069 -0.57323919 0.15025176
v -0.40042888 -0.46944415 0.13981397
v 0.02407560 -0.65783934 0.21287043
v 0.07955232 -0.65244529 0.23492793
v 0.06364605 -0.66937594 0.22893766
v 0.10261229 -0.65392518 0.24043715
v 0.05257279 -0.68499153 0.22346638
v 0.07138060 -0.69998024 0.22691825
v 0.11294526 -0.68004529 0.23798612
v 0.06335898 -0.72392646 0.21909115
v 0.07689873 -0.74767018 0.21329290
v 0.22719028 -0.43645888 0.18627743
v 0.25839771 -0.44000543 0.17851541
v -0.48673167 -0.49886008 0.12901582
v -0.19921604 -0.57393939 0.15112422
v -0.21955746 -0.54103035 0.15126817
v -0.40334984 -0.51624476 0.14572640
v -0.40346856 -0.44675997 0.13565255
v -0.44699011 -0.43914859 0.13015927
v -0.42853285 -0.46197755 0.13621508
v -0.42423712 -0.43717227 0.13224014
v -0.43723869 -0.41859283 0.12738659
v -0.45096390 -0.40035253 0.12183612
v -0.47231839 -0.40445355 0.11964972
v -0.47560946 -0.43392825 0.12432847
v -0.45842926 -0.42096353 0.12505589
v 0.09595071 -0.68751178 0.23414518
v 0.11203779 -0.70054816 0.23197450
v 0.14267812 -0.67412647 0.24124223
v 0.09613856 -0.75477572 0.21066503
v 0.08455327 -0.72684546 0.22170939
v -0.47469028 -0.47570714 0.13021750
v -0.51581376 -0.50153539 0.11862069
v -0.45160768 -0.46240800 0.13309084
v -0.51018935 -0.44163514 0.11590819
v 0.14984650 -0.69471030 0.23342438
v 0.15419279 -0.65362802 0.24755499
v 0.13273513 -0.63881683 0.24744513
v 0.11367750 -0.63861575 0.24385625
v 0.12329675 -0.65731339 0.24363549
v -0.48814421 -0.45513140 0.12430093
v -0.46863026 -0.45295871 0.12862221
v -0.50211169 -0.51607451 0.12456688
v -0.52661055 -0.47786450 0.11261166
v -0.51454409 -0.46154598 0.11632597
v -0.53328529 -0.44680256 0.10789047
v -0.54403147 -0.47034838 0.10362233
v -0.52551117 -0.42864801 0.10951735
v -0.52675145 -0.51626660 0.11393973
v -0.49480791 -0.42973310 0.11907836
v -0.60666906 -0.17645044 0.03531007
v 0.43001631 -0.61015342 0.05648895
v -0.51465132 -0.84294219 0.09558748
v -0.25509710 -0.85732152 0.11388998
v -0.20307435 -0.86105233 0.10958327
v -0.18506285 -0.87760598 0.10216410
v -0.19228366 -0.83858639 0.11490005
v -0.21634080 -0.84896374 0.11450893
v -0.15520764 -0.91920338 0.08295371
v -0.27632980 -0.72256563 0.14567731
v -0.27740335 -0.62955040 0.15381714
v -0.25369557 -0.61575576 0.15436555
v -0.23960003 -0.59718536 0.15401903
v -0.27869016 -0.49905432 0.14687757
v -0.27883565 -0.47425927 0.14304075
v -0.06721656 -0.87137677 0.11715409
v 0.19542157 -0.71836044 0.20807115
v 0.36840376 -0.59548087 0.13691935
v -0.13189549 -0.86451261 0.09596960
v -0.16347611 -0.83187892 0.11206121
v -0.14335363 -0.82641034 0.10933074
v -0.30032992 -0.66008090 0.15145892
v -0.16789030 -0.63372499 0.14539053
v -0.27789285 -0.59233023 0.15408270
v -0.33890437 -0.69046129 0.14867562
v -0.36323846 -0.49875113 0.14510665
v -0.30132437 -0.56130532 0.15153346
v -0.30175706 -0.41196767 0.12803885
v -0.34033635 -0.46789992 0.13960668
v 0.01033763 -0.29039080 0.09210362
v 0.04589277 -0.29504262 0.10028431
v 0.16475778 -0.39218339 0.16693253
v -0.50402610 -0.82312032 0.10402164
v -0.43482884 -0.81660153 0.11909019
v -0.45434696 -0.83552032 0.11092453
v -0.27207709 -0.79688978 0.13129834
v -0.14559396 -0.56252576 0.14302043
v -0.16233785 -0.54807606 0.14572796
v -0.15922220 -0.57607970 0.14578348
v -0.14765555 -0.42216367 0.12668193
v -0.16574170 -0.41152329 0.12764575
v -0.17386878 -0.39406552 0.12463626
v 0.07762270 -0.36684244 0.14569863
v -0.39930705 -0.35487238 0.11220519
v -0.01190023 -0.87899374 0.13945041
v -0.03487243 -0.51752510 0.16719520
v 0.13021612 -0.43947354 0.18961043
v 0.08537575 -0.28645685 0.10067812
v 0.07174718 -0.27019064 0.08673464
v 0.06678835 -0.29623734 0.10431089
v 0.05405647 -0.32140555 0.11779412
v 0.03502892 -0.31296208 0.10981567
v 0.05248827 -0.34091947 0.12836786
v 0.38926986 -0.54506200 0.10311542
v 0.40884779 -0.51202563 0.04627060
v -0.52524059 -0.60047105 0.11402205
v -0.51555604 -0.57784106 0.12014287
v -0.55025262 -0.40278202 0.09701128
v 0.02899419 -0.69004331 0.21364451
v 0.37117782 -0.41523992 0.04982497
v 0.36878665 -0.39504462 0.03904969
v 0.36323808 -0.37103505 0.03320046
v 0.35495839 -0.35193491 0.03543431
v -0.20012568 -0.66971556 0.14760829
v -0.21605758 -0.65392431 0.15066597
v -0.39474806 -0.78019408 0.13290907
v -0.50476930 -0.24093143 0.06481192
v 0.32834589 -0.59485637 0.18540949
v 0.29476283 -0.57701701 0.21696566
v -0.42546596 -0.56972624 0.14711888
v 0.16846222 -0.58114595 0.25668835
v 0.27701509 -0.36424411 0.12101089
v 0.28356476 -0.38713645 0.13098346
v 0.31142337 -0.37079304 0.09945777
v 0.32718830 -0.39029654 0.09643779
v 0.34741537 -0.38366564 0.06692496
v 0.31030540 -0.34989227 0.08835588
v 0.33329730 -0.36844712 0.07631965
v 0.28971686 -0.41683071 0.14623230
v -0.42769226 -0.48541598 0.13963010
v -0.15516246 -0.86681640 0.10030722
v 0.04238263 -0.27490546 0.08594499
v 0.16369778 -0.41153394 0.17791786
v -0.43979023 -0.79666328 0.12392138
v -0.45634551 -0.81225245 0.11742322
v -0.41914626 -0.83482460 0.11541976
v -0.41370991 -0.81412296 0.12228112
v -0.39923737 -0.82744758 0.11996837
v -0.51025249 -0.55444611 0.12265885
v 0.01672232 -0.33518894 0.11894762
v 0.06180051 -0.76768092 0.20365882
v -0.02762636 -0.77984424 0.16953227
v -0.00552142 -0.77287932 0.18213633
v -0.02295264 -0.79771437 0.16660488
v 0.32551993 -0.52811354 0.18397192
v 0.24730856 -0.36554553 0.13626710
v 0.23395200 -0.35033283 0.13222236
f 118 119 117
f 371 490 206
f 117 119 120
f 276 264 539
f 115 116 121
f 120 116 117
f 121 116 120
f 146 145 517
f 268 267 144
f 347 1139 346
f 442 33 34
f 222 239 232
f 123 218 122
f 218 217 122
f 234 7 8
f 218 114 217
f 310 229 123
f 224 241 245
f 229 113 218
f 112 219 111
f 1138 340 1168
f 217 121 122
f 521 68 69
f 225 214 443
f 219 112 229
f 113 229 112
f 111 297 110
f 1136 237 81
f 225 444 318
f 339 614 109
f 614 463 108
f 244 243 240
f 297 111 219
f 310 123 124
f 445 93 94
f 228 236 1137
f 463 107 108
f 341 621 465
f 426 424 226
f 232 223 300
f 640 343 637
f 7 234 233
f 253 430 431
f 105 343 640
f 434 433 432
f 109 110 339
f 441 297 219
f 47 226 424
f 274 273 162
f 318 25 26
f 243 224 235
f 184 222 183
f 345 132 346
f 131 132 161
f 434 599 433
f 239 5 6
f 213 131 161
f 213 161 160
f 345 161 132
f 80 81 237
f 138 351 137
f 619 247 617
f 177 646 143
f 468 354 351
f 349 347 134
f 231 221 238
f 143 474 178
f 317 24 25
f 317 235 24
f 136 137 356
f 356 137 351
f 181 355 182
f 147 146 515
f 469 353 645
f 658 480 159
f 487 488 366
f 130 131 213
f 476 654 656
f 663 172 171
f 152 668 153
f 624 247 619
f 360 477 361
f 155 615 156
f 156 157 477
f 161 344 160
f 429 296 428
f 958 968 969
f 648 647 649
f 177 211 176
f 173 256 489
f 661 483 482
f 175 257 255
f 174 255 256
f 367 368 254
f 173 172 661
f 652 476 651
f 255 257 210
f 161 345 344
f 475 646 647
f 657 854 852
f 140 141 279
f 433 599 296
f 505 508 164
f 641 104 640
f 672 150 149
f 264 274 275
f 601 221 600
f 389 718 269
f 100 101 497
f 210 209 255
f 80 231 79
f 91 92 298
f 984 1202 238
f 705 144 145
f 33 236 228
f 313 34 35
f 102 1192 101
f 1134 1128 1118
f 711 714 713
f 157 158 479
f 715 717 716
f 1041 1099 259
f 371 206 491
f 269 718 720
f 104 641 103
f 105 106 343
f 272 271 67
f 78 79 242
f 71 72 267
f 678 679 379
f 83 87 88
f 84 87 83
f 85 86 84
f 278 184 279
f 84 86 87
f 256 255 209
f 88 89 220
f 15 549 14
f 237 231 80
f 231 238 242
f 445 603 725
f 231 237 436
f 620 107 463
f 88 220 83
f 9 304 8
f 298 436 315
f 220 230 1136
f 324 319 448
f 277 745 540
f 230 220 89
f 65 66 273
f 266 741 268
f 315 237 230
f 222 5 239
f 150 151 498
f 671 496 495
f 362 859 1043
f 671 151 150
f 381 380 502
f 677 501 676
f 956 846 847
f 513 386 385
f 154 485 153
f 513 148 147
f 163 523 164
f 148 149 502
f 169 168 674
f 506 382 505
f 146 147 511
f 1109 1111 1108
f 382 507 508
f 270 272 519
f 391 523 524
f 527 162 271
f 163 275 274
f 499 377 498
f 636 466 635
f 389 886 888
f 387 144 72
f 265 72 73
f 144 705 268
f 72 144 267
f 89 90 230
f 739 389 76
f 113 114 218
f 269 886 389
f 76 389 75
f 228 32 33
f 181 182 300
f 387 388 144
f 527 744 524
f 268 741 71
f 271 66 67
f 428 213 160
f 114 115 217
f 267 268 71
f 27 214 225
f 226 215 187
f 701 145 146
f 227 31 32
f 162 273 66
f 521 522 390
f 271 162 66
f 1032 1203 1030
f 168 552 167
f 668 669 494
f 365 364 485
f 29 31 216
f 177 143 212
f 20 446 19
f 142 185 278
f 185 184 278
f 142 1 185
f 393 279 184
f 354 355 644
f 140 372 139
f 222 232 183
f 232 182 183
f 142 278 141
f 472 644 181
f 2 3 185
f 264 275 277
f 68 521 519
f 185 3 184
f 4 5 222
f 4 184 3
f 233 223 239
f 512 384 702
f 709 263 386
f 184 4 222
f 543 11 12
f 185 1 2
f 753 752 143
f 302 300 301
f 178 179 541
f 471 473 357
f 471 357 470
f 180 181 302
f 210 257 211
f 177 212 211
f 439 299 309
f 255 174 175
f 212 143 752
f 394 757 753
f 397 545 546
f 903 902 991
f 207 490 370
f 173 174 256
f 367 369 171
f 211 212 544
f 171 369 401
f 547 208 545
f 547 207 208
f 371 369 254
f 992 765 906
f 171 172 367
f 563 1093 1116
f 170 400 169
f 233 6 7
f 141 278 279
f 1202 242 238
f 127 462 126
f 303 301 234
f 233 234 223
f 470 180 179
f 233 239 6
f 438 280 437
f 1180 754 438
f 245 241 320
f 308 304 306
f 455 336 334
f 214 216 227
f 545 208 209
f 14 776 13
f 206 779 205
f 121 217 115
f 19 446 447
f 311 310 124
f 83 220 82
f 1152 555 18
f 303 307 299
f 555 17 18
f 477 478 156
f 548 776 549
f 600 298 602
f 231 242 79
f 245 22 23
f 22 245 320
f 317 243 235
f 372 258 468
f 317 318 240
f 211 257 176
f 487 158 157
f 235 23 24
f 82 1136 81
f 26 27 225
f 216 28 29
f 183 182 373
f 870 378 1173
f 28 216 214
f 274 264 276
f 228 227 32
f 372 279 258
f 31 227 216
f 29 30 31
f 534 536 530
f 148 502 503
f 214 27 28
f 511 512 701
f 320 322 21
f 164 508 163
f 779 780 205
f 783 204 203
f 1137 443 214
f 169 400 403
f 782 553 402
f 780 204 205
f 203 202 564
f 403 168 169
f 166 165 677
f 690 200 199
f 200 689 201
f 780 915 204
f 675 500 674
f 505 164 165
f 195 196 569
f 796 198 199
f 509 689 690
f 412 572 573
f 610 938 453
f 413 195 194
f 195 567 194
f 567 410 409
f 572 197 196
f 319 329 330
f 408 685 683
f 784 201 202
f 193 416 418
f 186 187 215
f 274 65 273
f 276 65 274
f 159 428 160
f 440 340 1138
f 528 529 63
f 1166 1217 1165
f 218 123 229
f 64 528 63
f 239 223 232
f 1184 59 60
f 802 573 800
f 194 567 568
f 289 417 191
f 90 315 230
f 575 58 59
f 784 554 925
f 55 56 419
f 57 415 577
f 605 442 313
f 292 191 190
f 436 600 221
f 287 413 579
f 479 480 361
f 320 21 22
f 168 781 552
f 209 208 256
f 581 582 421
f 44 45 586
f 358 1155 250
f 191 192 582
f 586 423 425
f 224 245 235
f 423 45 46
f 149 150 504
f 586 587 44
f 207 370 208
f 321 329 319
f 23 235 245
f 690 692 691
f 539 528 276
f 580 42 43
f 175 176 257
f 943 939 940
f 591 597 420
f 144 388 145
f 890 708 889
f 325 327 329
f 243 244 224
f 733 721 731
f 292 54 55
f 55 419 292
f 190 191 581
f 291 53 54
f 270 391 524
f 53 293 52
f 294 51 52
f 187 294 188
f 188 294 293
f 65 276 64
f 188 189 426
f 163 274 162
f 226 187 188
f 226 47 215
f 347 346 133
f 47 48 215
f 186 48 49
f 50 51 186
f 49 50 186
f 328 244 332
f 215 48 186
f 393 184 183
f 154 155 486
f 186 51 187
f 424 295 423
f 166 676 167
f 67 68 272
f 191 292 289
f 36 1190 809
f 214 227 228
f 205 204 404
f 665 152 153
f 322 324 446
f 762 281 760
f 565 407 564
f 167 566 166
f 794 410 569
f 794 795 570
f 529 531 537
f 803 572 574
f 575 576 414
f 412 573 802
f 415 57 58
f 193 192 416
f 417 289 577
f 288 416 417
f 585 192 193
f 935 41 42
f 190 189 291
f 291 189 293
f 190 291 292
f 292 291 54
f 291 293 53
f 189 188 293
f 51 294 187
f 293 294 52
f 581 427 598
f 580 805 590
f 429 159 158
f 430 433 296
f 311 312 441
f 297 461 339
f 602 92 93
f 298 600 436
f 299 301 303
f 307 309 299
f 232 300 182
f 301 300 223
f 234 301 223
f 302 301 299
f 302 299 439
f 181 300 302
f 304 234 8
f 305 437 309
f 306 9 10
f 234 304 303
f 9 306 304
f 754 987 897
f 306 898 754
f 305 307 308
f 308 307 303
f 309 307 305
f 304 308 303
f 308 306 1180
f 439 1151 394
f 180 439 179
f 311 124 125
f 219 229 310
f 125 440 311
f 219 310 311
f 126 440 125
f 461 246 339
f 36 37 812
f 605 236 442
f 333 314 607
f 318 444 451
f 90 91 315
f 298 315 91
f 94 603 445
f 718 719 720
f 318 317 25
f 243 317 240
f 26 225 318
f 225 443 444
f 319 322 321
f 321 241 325
f 321 320 241
f 320 321 322
f 325 241 326
f 328 326 224
f 322 319 324
f 20 21 322
f 328 323 326
f 336 338 323
f 448 319 330
f 19 447 18
f 326 241 224
f 325 323 327
f 328 224 244
f 323 325 326
f 335 336 328
f 1167 410 570
f 244 333 332
f 313 809 606
f 325 329 321
f 330 329 327
f 338 612 327
f 611 449 330
f 37 38 610
f 332 335 328
f 240 451 244
f 335 332 1203
f 236 605 607
f 332 333 1153
f 606 609 452
f 1182 930 795
f 1203 332 331
f 336 335 334
f 455 338 336
f 328 336 323
f 1030 609 1031
f 1029 411 1182
f 337 813 612
f 327 323 338
f 297 339 110
f 463 614 817
f 127 1170 639
f 973 1201 972
f 341 628 638
f 639 1220 638
f 615 616 464
f 670 153 668
f 341 620 463
f 635 637 247
f 344 248 642
f 160 344 658
f 346 132 133
f 344 345 248
f 347 133 134
f 248 345 346
f 643 349 134
f 349 350 347
f 469 136 353
f 1139 248 346
f 643 134 135
f 350 349 348
f 348 1140 350
f 650 1142 1155
f 138 139 468
f 1144 356 249
f 355 352 493
f 249 351 354
f 180 470 472
f 136 469 135
f 468 351 138
f 355 354 352
f 258 373 493
f 181 180 472
f 249 356 351
f 136 356 353
f 474 1154 178
f 356 1144 353
f 176 647 177
f 1154 1216 471
f 651 176 175
f 361 480 659
f 852 853 657
f 852 854 478
f 480 158 159
f 361 659 1145
f 663 664 483
f 1172 169 674
f 664 857 483
f 1149 381 377
f 1146 252 1147
f 484 364 1159
f 156 478 1157
f 365 854 1146
f 156 615 1160
f 630 862 830
f 368 367 172
f 369 367 254
f 489 172 173
f 667 208 370
f 254 490 371
f 401 282 400
f 254 368 370
f 368 489 667
f 491 206 205
f 492 401 369
f 279 372 140
f 468 258 352
f 493 182 355
f 393 373 258
f 103 641 837
f 818 464 616
f 148 513 514
f 706 885 884
f 102 1191 1192
f 1118 1128 1099
f 152 665 1162
f 377 499 867
f 377 867 869
f 859 362 857
f 523 525 164
f 877 681 879
f 981 976 875
f 877 879 503
f 504 498 381
f 381 1149 1150
f 506 165 166
f 277 507 261
f 700 199 198
f 62 63 529
f 148 503 1163
f 741 704 522
f 717 891 716
f 884 885 514
f 517 145 388
f 386 263 891
f 72 265 387
f 388 387 265
f 707 388 265
f 517 386 515
f 739 77 518
f 727 728 887
f 69 740 522
f 270 519 520
f 742 270 520
f 525 1175 164
f 531 534 530
f 531 529 392
f 373 393 183
f 258 279 393
f 541 439 394
f 542 756 755
f 13 776 777
f 546 760 397
f 756 280 758
f 909 777 548
f 546 209 210
f 763 397 760
f 927 787 926
f 555 556 17
f 928 558 562
f 1114 1121 561
f 401 400 170
f 403 400 782
f 171 401 170
f 369 371 492
f 282 404 553
f 880 402 553
f 782 400 282
f 403 402 781
f 404 783 553
f 404 492 491
f 554 784 785
f 450 449 788
f 764 766 768
f 556 927 17
f 565 202 201
f 783 407 1181
f 687 261 682
f 682 382 506
f 1232 596 1068
f 582 422 583
f 794 196 197
f 410 285 1066
f 813 454 612
f 337 455 457
f 196 195 573
f 695 538 694
f 194 193 418
f 800 801 802
f 413 194 579
f 415 288 577
f 575 415 58
f 578 415 414
f 417 416 192
f 418 416 288
f 191 417 192
f 419 577 289
f 288 415 578
f 418 579 194
f 577 419 56
f 292 419 289
f 290 593 591
f 580 935 42
f 589 584 588
f 426 189 598
f 568 193 194
f 596 594 422
f 424 423 46
f 425 423 295
f 47 424 46
f 226 188 426
f 589 295 427
f 584 806 583
f 189 190 598
f 424 426 295
f 583 806 421
f 295 426 427
f 429 428 159
f 213 428 296
f 158 487 431
f 430 429 431
f 433 430 1201
f 296 429 430
f 158 431 429
f 431 366 862
f 629 624 631
f 129 1223 1221
f 1201 430 253
f 1222 1223 432
f 129 130 434
f 599 434 130
f 435 602 445
f 719 892 316
f 231 436 221
f 315 436 237
f 438 437 305
f 1151 437 280
f 1180 306 754
f 438 759 758
f 439 180 302
f 439 309 1151
f 440 126 462
f 311 440 312
f 311 441 219
f 461 441 312
f 33 442 236
f 34 313 442
f 1137 214 228
f 443 314 444
f 314 333 444
f 451 333 244
f 603 94 95
f 604 445 316
f 322 446 20
f 447 446 324
f 450 447 324
f 447 450 1152
f 449 448 330
f 450 283 1152
f 611 330 814
f 1094 1114 1125
f 324 448 450
f 449 450 448
f 318 451 240
f 444 333 451
f 452 605 606
f 332 1153 331
f 38 949 610
f 285 410 1167
f 457 459 337
f 921 919 920
f 1033 1204 1032
f 337 338 455
f 1076 946 1025
f 813 459 460
f 1204 455 334
f 456 1038 459
f 942 453 938
f 1029 571 799
f 456 459 457
f 459 458 460
f 458 815 460
f 929 454 1004
f 441 461 297
f 1138 461 312
f 639 462 127
f 440 462 340
f 108 109 614
f 341 465 620
f 616 155 154
f 861 860 488
f 247 343 617
f 343 618 617
f 624 634 247
f 1191 102 103
f 642 248 848
f 649 656 359
f 372 468 139
f 354 468 352
f 1144 645 353
f 348 643 469
f 471 470 179
f 472 470 357
f 1154 179 178
f 250 1141 1216
f 357 249 472
f 644 472 249
f 645 473 1141
f 473 645 1144
f 1156 474 143
f 1154 474 358
f 648 650 475
f 646 1156 143
f 849 175 174
f 173 661 662
f 477 157 479
f 478 477 360
f 478 360 852
f 1157 365 486
f 480 479 158
f 477 479 361
f 159 160 658
f 659 251 1145
f 855 856 1199
f 476 652 654
f 482 856 855
f 855 655 662
f 664 171 170
f 483 857 1158
f 665 485 484
f 868 867 499
f 485 154 486
f 484 485 364
f 1157 486 155
f 485 486 365
f 488 487 157
f 431 487 366
f 1160 157 156
f 861 666 860
f 667 256 208
f 172 489 368
f 370 490 254
f 206 490 207
f 205 404 491
f 492 404 282
f 401 492 282
f 371 491 492
f 258 493 352
f 182 493 373
f 669 152 151
f 866 670 494
f 495 865 864
f 863 494 669
f 148 514 1164
f 496 885 1161
f 1224 497 101
f 1134 497 376
f 499 498 151
f 381 498 377
f 1162 151 152
f 868 673 867
f 675 168 167
f 1172 500 1173
f 501 678 680
f 870 500 675
f 502 149 504
f 503 502 380
f 503 380 877
f 1163 384 511
f 498 504 150
f 502 504 381
f 506 505 165
f 508 505 382
f 566 506 166
f 682 261 507
f 508 277 275
f 682 507 382
f 277 508 507
f 163 508 275
f 691 693 509
f 791 407 565
f 803 198 197
f 697 538 695
f 1163 511 147
f 512 511 384
f 702 384 262
f 705 512 704
f 513 147 515
f 514 513 385
f 514 385 884
f 1164 496 672
f 517 515 146
f 513 515 386
f 890 983 982
f 709 711 263
f 388 707 710
f 386 517 709
f 1202 77 78
f 238 601 892
f 68 519 272
f 520 519 390
f 881 520 390
f 978 875 680
f 522 521 69
f 519 521 390
f 741 740 70
f 704 702 703
f 524 523 163
f 525 523 391
f 527 163 162
f 272 270 744
f 1177 1176 525
f 1175 1176 679
f 742 391 270
f 526 742 743
f 744 271 272
f 163 527 524
f 276 528 64
f 529 528 392
f 532 534 392
f 537 62 529
f 536 535 751
f 62 1165 61
f 540 392 539
f 1225 537 530
f 277 261 745
f 692 694 383
f 533 537 1225
f 286 801 1186
f 392 534 531
f 746 536 532
f 535 536 746
f 685 687 683
f 532 536 534
f 751 535 750
f 530 537 531
f 537 533 1165
f 510 574 695
f 536 538 699
f 540 539 264
f 528 539 392
f 277 540 264
f 392 540 532
f 439 541 179
f 753 541 394
f 757 280 756
f 752 755 544
f 910 13 777
f 543 911 897
f 544 212 752
f 396 903 544
f 546 545 209
f 547 545 397
f 902 761 546
f 763 760 281
f 763 547 397
f 207 992 206
f 775 1226 774
f 777 911 910
f 926 15 16
f 778 549 398
f 992 547 765
f 912 780 550
f 913 551 914
f 554 785 917
f 552 880 688
f 552 688 566
f 404 204 783
f 880 686 688
f 202 203 916
f 1005 405 1006
f 1152 18 447
f 556 555 406
f 556 406 558
f 787 560 1115
f 559 558 406
f 559 283 788
f 406 1152 559
f 562 558 557
f 283 450 788
f 558 559 1121
f 560 562 563
f 398 549 787
f 449 611 1002
f 1002 789 449
f 562 557 1113
f 562 560 928
f 1123 1125 1122
f 547 763 765
f 565 564 202
f 783 564 407
f 689 565 201
f 693 792 509
f 552 566 167
f 566 408 683
f 567 195 569
f 568 567 409
f 1066 285 1064
f 568 422 585
f 569 196 794
f 567 569 410
f 795 197 198
f 1167 570 1218
f 932 200 786
f 200 201 925
f 573 572 196
f 574 572 412
f 195 413 573
f 287 800 413
f 1178 286 698
f 700 574 510
f 576 575 59
f 415 575 414
f 1184 1217 1185
f 414 576 1183
f 57 577 56
f 288 417 577
f 287 578 414
f 288 578 418
f 418 578 579
f 287 579 578
f 44 587 805
f 936 935 580
f 582 581 191
f 427 581 421
f 585 582 192
f 583 422 290
f 584 583 290
f 421 582 583
f 590 584 591
f 805 588 590
f 568 585 193
f 582 585 422
f 423 586 45
f 587 586 425
f 588 587 425
f 43 805 580
f 589 588 425
f 590 588 584
f 295 589 425
f 427 421 806
f 591 584 290
f 580 590 420
f 593 290 594
f 420 590 591
f 1231 592 1232
f 593 597 591
f 594 290 422
f 593 592 595
f 596 422 568
f 593 594 807
f 285 931 1062
f 1212 936 595
f 1068 568 409
f 593 807 592
f 593 595 597
f 420 597 595
f 581 598 190
f 426 598 427
f 130 213 599
f 296 599 213
f 602 298 92
f 601 600 435
f 601 435 604
f 238 221 601
f 445 602 93
f 600 602 435
f 726 603 729
f 732 731 726
f 604 316 892
f 435 445 604
f 606 605 313
f 607 605 452
f 313 35 809
f 609 331 1153
f 333 607 452
f 607 314 1137
f 812 37 610
f 1189 609 606
f 609 1189 810
f 1030 331 609
f 949 39 811
f 950 951 952
f 814 327 612
f 789 561 788
f 337 612 338
f 814 454 611
f 798 1010 1012
f 561 789 1003
f 339 246 816
f 463 817 341
f 616 615 155
f 1160 615 464
f 670 154 153
f 342 464 818
f 618 343 106
f 619 617 465
f 107 618 106
f 465 617 618
f 619 465 621
f 634 635 247
f 465 618 620
f 107 620 618
f 625 621 341
f 832 629 974
f 631 625 632
f 366 488 860
f 625 638 623
f 1222 633 1219
f 631 619 621
f 627 955 831
f 817 614 816
f 629 622 624
f 625 623 632
f 623 1219 1048
f 342 820 824
f 828 627 831
f 1138 1168 246
f 639 638 628
f 631 624 619
f 1048 974 626
f 366 860 862
f 832 630 830
f 625 631 621
f 629 631 626
f 633 1048 1219
f 631 632 626
f 633 1201 973
f 973 974 633
f 955 624 622
f 635 634 627
f 636 635 627
f 635 466 637
f 820 342 818
f 836 833 636
f 637 466 640
f 247 637 343
f 341 638 625
f 628 1168 639
f 462 639 340
f 127 128 1170
f 641 640 466
f 104 105 640
f 636 833 466
f 641 466 833
f 248 1139 848
f 660 658 1171
f 349 643 348
f 135 469 643
f 354 644 249
f 181 644 355
f 1141 250 1140
f 348 469 645
f 647 646 177
f 475 1155 1156
f 649 176 651
f 649 359 648
f 650 648 359
f 475 647 648
f 176 649 647
f 649 476 656
f 966 967 359
f 1143 1142 958
f 652 651 175
f 649 651 476
f 174 173 662
f 655 653 654
f 853 962 964
f 660 467 970
f 655 654 652
f 654 653 656
f 849 655 652
f 655 481 961
f 959 656 653
f 968 967 851
f 360 1145 853
f 657 853 964
f 344 642 658
f 1171 467 660
f 480 660 659
f 660 970 1042
f 658 660 480
f 851 970 467
f 661 172 663
f 662 661 482
f 855 662 482
f 662 655 849
f 664 663 171
f 661 663 483
f 170 169 1172
f 1158 857 362
f 485 665 153
f 1162 665 484
f 824 826 342
f 862 253 431
f 368 667 370
f 256 667 489
f 669 668 152
f 670 668 494
f 671 669 151
f 494 863 374
f 866 494 374
f 616 154 670
f 671 150 672
f 669 671 495
f 1164 672 149
f 671 672 496
f 1100 980 1083
f 870 871 378
f 675 674 168
f 1172 674 500
f 676 675 167
f 871 872 680
f 677 676 166
f 675 676 501
f 165 164 1175
f 678 677 679
f 680 678 379
f 501 677 678
f 677 165 1175
f 679 1176 986
f 896 379 986
f 260 1149 869
f 380 1150 878
f 896 526 743
f 683 506 566
f 683 682 506
f 684 685 686
f 682 683 687
f 284 407 791
f 535 746 747
f 686 685 408
f 685 684 687
f 688 686 408
f 686 284 793
f 684 693 749
f 748 746 745
f 566 688 408
f 880 552 402
f 690 689 200
f 565 689 509
f 692 199 700
f 692 383 691
f 693 691 383
f 509 690 691
f 199 692 690
f 692 510 694
f 535 747 750
f 684 686 793
f 695 694 510
f 694 538 751
f 1178 574 412
f 696 699 697
f 696 697 698
f 1185 1186 801
f 698 697 695
f 696 1225 699
f 1178 695 574
f 698 286 1188
f 536 699 530
f 538 697 699
f 700 198 803
f 692 700 510
f 511 701 146
f 705 701 512
f 703 702 262
f 704 512 702
f 743 520 882
f 703 881 522
f 522 704 703
f 705 704 266
f 268 705 266
f 701 705 145
f 716 263 713
f 1087 1105 1215
f 73 983 1053
f 710 709 517
f 890 516 707
f 888 75 389
f 517 388 710
f 709 710 711
f 707 516 710
f 516 1179 710
f 712 713 714
f 727 269 720
f 736 1109 735
f 263 711 713
f 714 711 1179
f 712 715 716
f 889 708 887
f 722 724 727
f 1105 1087 1103
f 844 1049 847
f 712 716 713
f 1103 717 715
f 884 717 706
f 891 717 385
f 739 718 389
f 719 718 518
f 719 984 892
f 725 726 723
f 719 723 722
f 719 722 720
f 723 726 721
f 738 895 737
f 723 719 316
f 724 722 721
f 725 723 316
f 721 722 723
f 726 731 721
f 724 728 727
f 445 725 316
f 725 603 726
f 729 603 95
f 731 732 730
f 722 727 720
f 733 735 737
f 889 714 516
f 708 886 887
f 95 96 729
f 732 893 1193
f 1129 1130 1131
f 733 737 724
f 732 726 729
f 733 731 730
f 96 893 729
f 732 729 893
f 735 733 730
f 721 733 724
f 985 732 894
f 714 895 738
f 736 735 730
f 735 734 737
f 1129 99 1118
f 100 1134 99
f 737 734 738
f 728 724 737
f 1108 738 734
f 712 714 738
f 77 739 76
f 718 739 518
f 69 70 740
f 71 741 70
f 704 741 266
f 522 740 741
f 743 742 520
f 526 1176 1177
f 520 881 882
f 882 262 883
f 524 744 270
f 271 744 527
f 747 748 687
f 540 745 532
f 532 745 746
f 745 261 748
f 687 749 747
f 750 383 751
f 687 748 261
f 746 748 747
f 684 749 687
f 750 749 693
f 749 750 747
f 693 383 750
f 694 751 383
f 751 538 536
f 753 143 178
f 752 542 755
f 753 178 541
f 542 752 753
f 897 899 754
f 306 10 898
f 542 757 756
f 396 544 755
f 758 280 438
f 396 755 756
f 753 757 542
f 757 394 1151
f 759 438 899
f 756 758 900
f 778 1226 775
f 756 900 396
f 902 546 210
f 761 760 546
f 900 759 1229
f 760 761 762
f 1227 761 903
f 770 768 767
f 766 763 281
f 766 765 763
f 768 281 907
f 764 1194 1088
f 764 904 765
f 904 399 906
f 907 281 762
f 765 766 764
f 774 771 772
f 1093 769 1095
f 281 768 766
f 770 772 769
f 1088 904 764
f 770 1194 768
f 772 770 767
f 1092 1194 769
f 907 908 767
f 1095 771 1096
f 767 908 774
f 772 771 1095
f 762 1227 1228
f 988 901 759
f 767 774 772
f 774 773 775
f 901 988 990
f 775 548 778
f 549 776 14
f 777 776 548
f 548 775 909
f 12 910 543
f 778 398 1226
f 548 549 778
f 992 779 206
f 780 779 550
f 912 550 399
f 780 914 915
f 403 781 168
f 402 552 781
f 403 782 402
f 282 553 782
f 564 783 203
f 1181 407 284
f 784 202 916
f 925 554 786
f 785 916 915
f 554 917 405
f 922 924 405
f 797 571 796
f 926 549 15
f 787 927 928
f 789 788 449
f 559 788 561
f 929 1002 454
f 1003 789 1002
f 919 994 922
f 922 917 918
f 792 791 565
f 284 791 793
f 509 792 565
f 793 693 684
f 791 792 793
f 693 793 792
f 795 794 197
f 794 570 410
f 796 795 198
f 1182 795 571
f 797 796 199
f 795 796 571
f 200 797 199
f 932 786 933
f 571 797 799
f 799 797 932
f 797 200 932
f 799 798 934
f 800 287 801
f 573 413 800
f 287 414 1183
f 60 61 1217
f 801 286 802
f 412 802 286
f 572 803 197
f 700 803 574
f 945 939 943
f 1196 1197 1211
f 44 805 43
f 805 587 588
f 584 589 806
f 427 806 589
f 594 596 807
f 1066 1068 409
f 1022 1021 931
f 938 811 940
f 36 809 35
f 809 608 1189
f 1190 952 608
f 948 1037 1075
f 39 1196 1195
f 1212 1213 804
f 950 610 453
f 809 1190 608
f 459 813 337
f 454 813 460
f 327 814 330
f 454 814 612
f 815 458 1074
f 1058 999 1000
f 816 246 1168
f 614 339 816
f 816 628 817
f 628 341 817
f 954 616 670
f 616 954 818
f 822 825 828
f 818 819 820
f 820 819 823
f 820 825 824
f 827 823 819
f 845 834 842
f 831 955 829
f 826 666 342
f 866 819 954
f 824 825 822
f 825 820 823
f 824 822 826
f 823 821 825
f 841 828 825
f 822 829 826
f 832 829 622
f 374 1086 827
f 821 823 827
f 841 821 838
f 636 627 828
f 831 829 822
f 832 830 829
f 666 826 830
f 829 830 826
f 828 831 822
f 627 634 955
f 622 629 832
f 974 629 626
f 641 833 837
f 834 836 838
f 834 838 842
f 1224 101 1192
f 837 836 839
f 834 840 839
f 838 836 636
f 839 836 834
f 836 837 833
f 837 835 1191
f 841 636 828
f 838 821 842
f 842 1205 845
f 837 839 835
f 259 1224 956
f 835 839 840
f 821 841 825
f 636 841 838
f 843 821 827
f 821 843 842
f 1085 863 864
f 834 845 846
f 864 865 1084
f 956 847 259
f 1205 842 843
f 846 845 844
f 846 844 847
f 834 846 840
f 1050 844 1205
f 1051 375 1087
f 848 350 1143
f 642 848 969
f 175 849 652
f 662 849 174
f 964 960 965
f 1042 659 660
f 359 656 966
f 966 959 851
f 853 852 360
f 1047 854 657
f 960 962 850
f 960 850 959
f 1146 854 252
f 854 365 1157
f 482 1158 856
f 655 855 481
f 362 1043 1045
f 963 1200 1047
f 1172 1173 1174
f 857 664 1174
f 876 980 378
f 1174 859 857
f 980 858 1173
f 1045 971 1046
f 488 1160 861
f 862 860 666
f 464 342 861
f 666 861 342
f 830 862 666
f 630 972 862
f 495 864 669
f 863 669 864
f 495 1161 865
f 975 1049 1050
f 975 1102 1051
f 975 1050 1084
f 374 827 866
f 819 866 827
f 499 1162 868
f 869 867 673
f 1159 868 484
f 868 363 1082
f 871 874 876
f 260 869 976
f 872 675 501
f 870 872 871
f 680 874 871
f 876 378 871
f 675 872 870
f 680 872 501
f 874 875 873
f 977 869 673
f 875 874 680
f 876 874 873
f 978 680 379
f 878 681 877
f 977 873 976
f 971 1148 1147
f 878 877 380
f 681 262 879
f 260 981 878
f 978 979 875
f 262 384 879
f 879 384 1163
f 1181 553 783
f 686 880 284
f 522 881 390
f 881 703 882
f 703 262 882
f 883 262 681
f 979 1052 878
f 743 882 883
f 717 884 385
f 706 375 885
f 1161 885 375
f 885 496 1164
f 887 886 269
f 886 708 888
f 727 887 269
f 887 728 889
f 982 888 708
f 74 75 888
f 889 728 895
f 890 889 516
f 1053 707 265
f 983 74 982
f 386 891 385
f 716 891 263
f 892 601 604
f 984 719 518
f 97 1193 96
f 732 1193 894
f 1131 97 98
f 732 985 730
f 889 895 714
f 737 895 728
f 743 883 896
f 681 1052 883
f 899 897 395
f 987 754 898
f 10 11 898
f 987 898 11
f 754 899 438
f 395 759 899
f 758 759 900
f 1229 759 901
f 988 759 395
f 1228 773 908
f 210 211 902
f 991 902 211
f 1227 903 396
f 902 903 761
f 768 1194 764
f 906 399 550
f 1092 1093 1090
f 1056 998 997
f 550 779 992
f 765 904 906
f 908 907 762
f 768 907 767
f 762 761 1227
f 908 773 774
f 990 988 989
f 911 543 910
f 13 910 12
f 911 777 909
f 989 911 909
f 911 395 897
f 913 912 399
f 915 914 551
f 1054 1055 993
f 995 999 996
f 780 912 914
f 913 914 912
f 915 551 918
f 204 915 203
f 915 916 203
f 784 916 785
f 785 918 917
f 918 920 922
f 915 918 785
f 918 551 920
f 551 921 920
f 1008 923 1009
f 921 551 913
f 922 920 919
f 913 399 1055
f 921 913 1054
f 994 924 922
f 917 922 405
f 923 994 996
f 790 1000 999
f 1009 1001 1008
f 798 799 1028
f 784 925 201
f 786 200 925
f 927 926 16
f 549 926 787
f 17 927 16
f 558 928 556
f 787 928 560
f 556 928 927
f 1004 454 460
f 815 1059 1004
f 411 931 1218
f 570 795 930
f 934 1013 1015
f 942 939 1039
f 786 1005 933
f 799 932 1028
f 1006 933 1005
f 924 1007 1006
f 1011 1012 1001
f 815 1074 1071
f 936 580 420
f 935 804 1198
f 595 936 420
f 804 935 936
f 812 950 952
f 1204 457 455
f 949 938 610
f 811 1195 943
f 1232 592 807
f 940 942 938
f 811 39 1195
f 940 939 942
f 40 1197 1196
f 1207 1209 1212
f 945 947 939
f 1036 1038 1035
f 811 943 940
f 941 1210 945
f 1207 592 1231
f 1067 808 1064
f 941 945 943
f 1214 947 945
f 1015 411 934
f 948 1039 947
f 1214 945 944
f 947 946 948
f 1025 1016 1020
f 937 1230 1035
f 39 949 38
f 938 949 811
f 950 453 951
f 812 610 950
f 1040 453 942
f 951 1230 1031
f 951 810 952
f 952 810 1189
f 1024 1026 1027
f 1022 931 411
f 866 954 670
f 818 954 819
f 624 955 634
f 829 955 622
f 1224 259 376
f 846 956 840
f 1106 1103 715
f 259 847 1041
f 848 1143 958
f 650 967 958
f 960 959 653
f 851 959 850
f 961 960 653
f 962 251 1042
f 655 961 653
f 1199 965 481
f 964 962 960
f 853 251 962
f 1199 963 965
f 1046 1200 1045
f 965 960 961
f 657 964 963
f 481 965 961
f 963 964 965
f 959 966 656
f 967 966 851
f 851 467 968
f 359 967 650
f 969 968 467
f 958 967 968
f 642 969 467
f 958 969 848
f 851 850 970
f 1042 970 850
f 971 1043 1044
f 363 1159 1147
f 973 972 630
f 253 862 972
f 974 973 630
f 633 432 1201
f 832 974 630
f 626 632 1048
f 1051 865 375
f 1049 1079 1041
f 977 976 869
f 875 976 873
f 1082 1044 1081
f 876 873 977
f 379 896 978
f 979 878 981
f 978 896 979
f 896 883 1052
f 1083 1101 1081
f 673 1081 977
f 976 981 260
f 979 981 875
f 888 982 74
f 708 890 982
f 890 707 1053
f 74 983 73
f 1202 518 77
f 238 892 984
f 894 736 985
f 736 730 985
f 679 986 379
f 526 896 986
f 11 543 987
f 897 987 543
f 989 395 911
f 909 990 989
f 990 909 775
f 395 989 988
f 775 773 990
f 901 990 773
f 211 544 991
f 903 991 544
f 547 992 207
f 550 992 906
f 1093 1057 1090
f 1089 1091 998
f 997 996 994
f 923 924 994
f 998 1056 1054
f 997 998 995
f 997 994 919
f 995 1123 999
f 1056 919 921
f 995 996 997
f 993 1089 998
f 1124 998 1091
f 1000 790 929
f 996 999 1058
f 1000 929 1004
f 613 1060 1009
f 1071 1072 1073
f 1028 1007 1010
f 454 1002 611
f 1003 1002 929
f 929 790 1003
f 1003 790 1122
f 460 815 1004
f 815 613 1059
f 786 554 1005
f 405 1005 554
f 405 924 1006
f 923 1008 924
f 1010 1007 1001
f 933 1006 1007
f 1001 1007 1008
f 924 1008 1007
f 1058 923 996
f 613 1206 1059
f 1011 1001 1060
f 1010 798 1028
f 934 1012 1013
f 1012 934 798
f 1001 1012 1010
f 1012 1011 1013
f 1014 1011 1072
f 1013 1011 1014
f 1023 1017 1019
f 1017 1014 953
f 1023 1013 1014
f 411 1015 1022
f 1017 1020 1016
f 1097 1021 1016
f 1020 1017 1024
f 1019 1017 1016
f 1018 1020 1024
f 1037 1077 1036
f 1019 1016 1021
f 1023 1019 1015
f 1024 1017 953
f 1025 1020 1018
f 1016 1098 1097
f 931 1021 1062
f 1015 1019 1022
f 1021 1022 1019
f 1013 1023 1015
f 1017 1023 1014
f 953 1026 1024
f 1027 1018 1024
f 1077 1076 1018
f 1025 946 1098
f 1026 953 1071
f 456 1035 1038
f 1026 1074 1078
f 1035 456 1033
f 932 933 1028
f 1028 933 1007
f 799 934 1029
f 411 1029 934
f 1031 609 810
f 1032 1030 937
f 951 1031 810
f 937 1030 1031
f 1033 1032 937
f 334 335 1203
f 1031 1230 937
f 1204 456 457
f 1040 951 453
f 1018 1027 1077
f 937 1035 1033
f 1036 1035 1034
f 1036 1034 1037
f 1036 1027 1038
f 1034 1040 1075
f 1037 948 1076
f 1078 1027 1026
f 1038 1078 459
f 947 1039 939
f 1075 1039 948
f 942 1039 1075
f 1230 1040 1034
f 1041 847 1049
f 1099 1041 1117
f 962 1042 850
f 659 1042 251
f 1044 1043 859
f 1045 1043 971
f 1100 859 858
f 977 1101 876
f 1147 1046 971
f 362 1045 856
f 1047 1046 252
f 963 1199 1200
f 854 1047 252
f 963 1047 657
f 623 1048 632
f 633 974 1048
f 1050 1049 844
f 1049 975 1079
f 1085 1050 1086
f 1085 864 1084
f 1087 375 706
f 1051 1215 1079
f 878 1052 681
f 896 1052 979
f 73 1053 265
f 890 1053 983
f 1055 1054 913
f 998 1054 993
f 1088 399 904
f 905 993 1055
f 919 1056 997
f 1054 1056 921
f 1057 1089 1090
f 1112 1113 1094
f 1206 1058 1000
f 1009 923 1058
f 1206 613 1009
f 1004 1059 1206
f 1060 613 1073
f 1001 1009 1060
f 1070 1065 1069
f 1021 1063 1062
f 1021 1097 1063
f 1066 1064 808
f 1063 1069 1067
f 1231 1067 1065
f 285 1062 1064
f 1063 1064 1062
f 1061 1070 1069
f 592 1207 595
f 1068 1066 808
f 1066 409 410
f 1064 1063 1067
f 1069 1063 1061
f 1068 808 1232
f 1068 596 568
f 1061 1098 1070
f 1065 1067 1069
f 1214 946 947
f 1214 1208 1070
f 953 1014 1072
f 815 1071 613
f 1073 1072 1011
f 953 1072 1071
f 1060 1073 1011
f 613 1071 1073
f 1078 1074 458
f 1071 1074 1026
f 1034 1075 1037
f 1040 942 1075
f 946 1076 948
f 1018 1076 1025
f 1036 1077 1027
f 1076 1077 1037
f 459 1078 458
f 1027 1078 1038
f 1051 1079 975
f 957 1041 1079
f 1127 1119 1104
f 1126 1080 1117
f 1082 1081 673
f 1083 1081 1044
f 868 1082 673
f 1044 1082 363
f 1100 1044 859
f 1101 980 876
f 865 1051 1102
f 1085 1084 1050
f 1050 1205 1086
f 1085 374 863
f 827 1086 843
f 374 1085 1086
f 1103 706 717
f 1087 706 1103
f 905 1055 1088
f 399 1088 1055
f 1090 1089 993
f 1091 1089 1057
f 993 905 1090
f 1092 1090 905
f 1057 1094 1091
f 1114 1094 557
f 1194 1092 905
f 1093 1092 769
f 769 772 1095
f 1093 563 1112
f 1112 1094 1057
f 557 1121 1114
f 1226 1096 771
f 1093 1095 1116
f 1115 398 787
f 1116 560 563
f 1098 1016 1025
f 1063 1097 1061
f 1070 1098 946
f 1097 1098 1061
f 1117 1041 957
f 1099 1080 1118
f 980 1100 858
f 1044 1100 1083
f 1081 1101 977
f 980 1101 1083
f 975 1084 1102
f 865 1102 1084
f 715 1107 1106
f 1106 1105 1103
f 1107 1111 1104
f 1111 1110 1104
f 1119 1105 1104
f 1215 1105 957
f 1107 715 712
f 1105 1106 1104
f 1108 1107 712
f 1104 1106 1107
f 738 1108 712
f 1109 1108 734
f 735 1109 734
f 1109 736 1110
f 1135 1110 736
f 1117 1080 1099
f 1108 1111 1107
f 1110 1111 1109
f 1093 1112 1057
f 1113 1112 563
f 562 1113 563
f 557 1094 1113
f 561 1122 1114
f 1123 1122 790
f 1116 1115 560
f 398 1115 1096
f 1095 1096 1116
f 1116 1096 1115
f 1119 957 1105
f 1119 1127 1117
f 1118 1080 1129
f 497 1134 100
f 1127 1104 1110
f 1117 957 1119
f 894 1133 736
f 98 1132 1131
f 558 1121 557
f 561 1121 559
f 1003 1122 561
f 790 999 1123
f 995 1124 1123
f 1123 1124 1125
f 998 1124 995
f 1125 1124 1091
f 1094 1125 1091
f 1122 1125 1114
f 1135 1126 1110
f 1130 1126 1120
f 1110 1126 1127
f 1117 1127 1126
f 376 259 1128
f 1099 1128 259
f 1130 1129 1080
f 98 99 1132
f 1126 1130 1080
f 1130 1120 1131
f 1120 1133 1131
f 1131 1133 97
f 99 1129 1132
f 1131 1132 1129
f 1133 1120 1135
f 97 1133 894
f 99 1134 1118
f 1128 1134 376
f 1133 1135 736
f 1126 1135 1120
f 237 1136 230
f 220 1136 82
f 607 1137 236
f 443 1137 314
f 461 1138 246
f 440 1138 312
f 347 350 1139
f 848 1139 350
f 1141 348 645
f 1140 250 1142
f 1141 473 1216
f 348 1141 1140
f 1155 1142 250
f 958 1142 650
f 350 1140 1143
f 1142 1143 1140
f 249 357 1144
f 473 1144 357
f 853 1145 251
f 360 361 1145
f 252 1046 1147
f 364 365 1146
f 971 1044 1148
f 364 1146 1147
f 1044 363 1148
f 363 1147 1148
f 869 1149 377
f 1150 1149 260
f 878 1150 260
f 380 381 1150
f 437 1151 309
f 757 1151 280
f 559 1152 283
f 555 1152 406
f 333 452 1153
f 609 1153 452
f 358 250 1216
f 179 1154 471
f 1156 1155 358
f 650 1155 475
f 1156 358 474
f 475 1156 646
f 156 1157 155
f 854 1157 478
f 856 1158 362
f 482 483 1158
f 1147 1159 364
f 868 1159 363
f 861 1160 464
f 157 1160 488
f 865 1161 375
f 495 496 1161
f 868 1162 484
f 151 1162 499
f 148 1163 147
f 879 1163 503
f 148 1164 149
f 885 1164 514
f 537 1165 62
f 1165 533 1187
f 696 1188 1187
f 801 287 1183
f 1218 570 930
f 285 1167 1218
f 639 1168 340
f 816 1168 628
f 1220 623 638
f 1170 1221 1169
f 1221 1170 128
f 1220 1170 1169
f 658 642 1171
f 467 1171 642
f 870 1173 500
f 170 1172 664
f 980 1173 378
f 1174 1173 858
f 1174 858 859
f 664 1172 1174
f 1176 1175 525
f 677 1175 679
f 1177 525 391
f 1176 526 986
f 391 742 1177
f 526 1177 742
f 286 1178 412
f 695 1178 698
f 710 1179 711
f 516 714 1179
f 438 305 1180
f 1180 305 308
f 284 880 1181
f 553 1181 880
f 1029 1182 571
f 930 1182 411
f 1184 1183 576
f 1185 1166 1186
f 59 1184 576
f 1184 60 1217
f 801 1183 1185
f 1184 1185 1183
f 1187 1186 1166
f 1188 1186 1187
f 1165 1187 1166
f 1187 533 1225
f 698 1188 696
f 286 1186 1188
f 809 1189 606
f 952 1189 608
f 952 1190 812
f 36 812 1190
f 837 1191 103
f 1192 1191 835
f 835 840 1192
f 1192 840 1224
f 96 1193 893
f 97 894 1193
f 769 1194 770
f 1088 1194 905
f 1196 39 40
f 943 1195 941
f 1197 40 41
f 941 1195 1196
f 41 1198 1197
f 1210 1211 1213
f 935 1198 41
f 1198 804 1213
f 855 1199 481
f 1200 1199 856
f 1045 1200 856
f 1200 1046 1047
f 433 1201 432
f 972 1201 253
f 1202 78 242
f 518 1202 984
f 1030 1203 331
f 334 1203 1032
f 1032 1204 334
f 456 1204 1033
f 845 1205 844
f 1086 1205 843
f 1058 1206 1009
f 1004 1206 1000
f 1065 1208 1207
f 1208 1209 1207
f 1070 1208 1065
f 1209 1208 944
f 1210 1209 944
f 1213 1212 1209
f 945 1210 944
f 1211 1210 941
f 1196 1211 941
f 1197 1198 1213
f 936 1212 804
f 1207 1212 595
f 1210 1213 1209
f 1213 1211 1197
f 1208 1214 944
f 946 1214 1070
f 1079 1215 957
f 1087 1215 1051
f 471 1216 473
f 358 1216 1154
f 1165 1217 61
f 1217 1166 1185
f 411 1218 930
f 285 1218 931
f 1220 1219 623
f 1222 1219 1169
f 1170 1220 639
f 1219 1220 1169
f 128 129 1221
f 129 434 1223
f 633 1222 432
f 1169 1221 1222
f 432 1223 434
f 1221 1223 1222
f 956 1224 840
f 1224 376 497
f 699 1225 530
f 1187 1225 696
f 1096 1226 398
f 774 1226 771
f 1229 396 900
f 901 773 1228
f 762 1228 908
f 901 1228 1227
f 901 1227 1229
f 396 1229 1227
f 1040 1230 951
f 1035 1230 1034
f 1067 1231 808
f 1207 1231 1065
f 1232 807 596
f 808 1231 1232
