# pattern_smooth best-fit FEM (phase 3), RMSE 33.567 mm
# params: /home/chaoyu/phd_simulation/FDM/optimisation/pattern_smooth_rm2_fixSW_split2_p3_result.json
v -0.07938931 -1.09618321 0.00000000
v -0.07517379 -1.08646822 -0.01288342
v -0.06385434 -1.06910505 -0.01960197
v -0.04962245 -1.04550887 -0.01795730
v -0.03490437 -1.02222503 -0.01296906
v -0.01915627 -0.99828606 -0.00601259
v -0.00289454 -0.97303168 0.00379060
v 0.01144157 -0.94964828 0.01452184
v 0.02565195 -0.92470488 0.02716273
v 0.04131607 -0.90054128 0.03798539
v 0.05861848 -0.87401365 0.05072567
v 0.07592902 -0.84683733 0.06407080
v 0.09230804 -0.82056948 0.07655342
v 0.10768154 -0.79709869 0.08579790
v 0.12334010 -0.77320519 0.09247708
v 0.13904147 -0.75038904 0.09769520
v 0.14754632 -0.73740684 0.09823658
v 0.16451702 -0.72703854 0.09425852
v 0.18919434 -0.71606586 0.08800713
v 0.21389429 -0.70593448 0.08044808
v 0.23773474 -0.69717888 0.06730361
v 0.26359647 -0.68804418 0.05249428
v 0.29029907 -0.67929299 0.03858890
v 0.31773125 -0.67163541 0.02755509
v 0.35040128 -0.66428551 0.01713775
v 0.38349206 -0.66063803 0.00696607
v 0.41472515 -0.66234141 -0.00131162
v 0.44114578 -0.66646767 -0.00478810
v 0.47033812 -0.67342591 -0.00462154
v 0.50259542 -0.67541985 0.00000000
v 0.49039294 -0.64682028 0.00000000
v 0.47705156 -0.61803819 0.00000000
v 0.46219909 -0.58938171 0.00000000
v 0.44711907 -0.56028611 0.00000000
v 0.43466338 -0.53625399 0.00000000
v 0.42199442 -0.50695223 0.00000000
v 0.40936106 -0.47587015 0.00000000
v 0.39826563 -0.44857187 0.00000000
v 0.38812015 -0.41671655 0.00000000
v 0.38008588 -0.38478035 0.00000000
v 0.37192372 -0.35233574 0.00000000
v 0.36496608 -0.31949785 0.00000000
v 0.35986056 -0.29113373 0.00000000
v 0.35446270 -0.26114571 0.00000000
v 0.35120710 -0.23184222 0.00000000
v 0.35003794 -0.20144447 0.00000000
v 0.34889887 -0.17182895 0.00000000
v 0.34956442 -0.13632195 0.00000000
v 0.35236641 -0.10870229 0.00000000
v 0.33828251 -0.12834036 0.00512839
v 0.32910092 -0.13620320 0.00858609
v 0.30217250 -0.14982557 0.01883801
v 0.27673255 -0.16171677 0.02820313
v 0.24919755 -0.17422857 0.03799036
v 0.21947205 -0.18745879 0.04811750
v 0.18977530 -0.20037048 0.05771169
v 0.15793772 -0.21370419 0.06720838
v 0.12901099 -0.22532377 0.07503112
v 0.09889166 -0.23700356 0.08240866
v 0.06123381 -0.25088880 0.09034891
v 0.02338962 -0.26418999 0.09705676
v -0.01339131 -0.27633948 0.10218190
v -0.05022707 -0.28792648 0.10619781
v -0.08361898 -0.29792855 0.10896857
v -0.11875216 -0.30829395 0.11119281
v -0.12287969 -0.30942835 0.11141172
v -0.15705344 -0.30354498 0.10939502
v -0.19068760 -0.29835037 0.10773521
v -0.22147907 -0.29366907 0.10588083
v -0.25593108 -0.28865875 0.10362712
v -0.29170235 -0.28367039 0.10095887
v -0.30432523 -0.28194049 0.09990683
v -0.33544809 -0.26806278 0.09442030
v -0.37499877 -0.25079576 0.08694168
v -0.40927305 -0.23581096 0.07989651
v -0.44028424 -0.22227308 0.07307162
v -0.47234458 -0.20801028 0.06551802
v -0.50367557 -0.19388521 0.05766487
v -0.52912186 -0.18230278 0.05095844
v -0.55306803 -0.17123582 0.04437957
v -0.58656849 -0.15505323 0.03479092
v -0.61626160 -0.14033132 0.02592899
v -0.64318515 -0.12665759 0.01763003
v -0.67160172 -0.11201476 0.00858659
v -0.69740458 -0.09893130 0.00000000
v -0.68453494 -0.11710566 -0.00035599
v -0.66592186 -0.14283811 0.00046822
v -0.65167549 -0.16291398 0.00182620
v -0.63723279 -0.18418835 0.00368732
v -0.62233656 -0.20808306 0.00593309
v -0.60678639 -0.23510491 0.00885066
v -0.59229150 -0.26280508 0.01215565
v -0.57917155 -0.29092739 0.01570784
v -0.56814253 -0.31992385 0.01894656
v -0.55870096 -0.34885558 0.02225770
v -0.55000851 -0.38018304 0.02591939
v -0.54271631 -0.41254702 0.02961948
v -0.53706686 -0.44722504 0.03298533
v -0.53287514 -0.48076494 0.03621030
v -0.52999045 -0.51269569 0.03920337
v -0.52823721 -0.54427316 0.04204710
v -0.52857844 -0.57849410 0.04392423
v -0.53008598 -0.61090118 0.04540829
v -0.53266119 -0.64325851 0.04663734
v -0.53625101 -0.67553290 0.04764581
v -0.54167828 -0.70638132 0.04747386
v -0.54916504 -0.73787767 0.04619825
v -0.55729864 -0.76804761 0.04449454
v -0.56538692 -0.79542229 0.04257318
v -0.57416636 -0.82289629 0.04029524
v -0.58427138 -0.85191447 0.03743893
v -0.59275548 -0.87361859 0.03475729
v -0.60356882 -0.89654650 0.03062831
v -0.61556269 -0.91981569 0.02560867
v -0.62808159 -0.94277371 0.02001613
v -0.64056567 -0.96504085 0.01417984
v -0.65477717 -0.99006798 0.00728302
v -0.66931298 -1.01557252 0.00000000
v -0.65378832 -1.00172904 0.00891059
v -0.63425662 -0.98431246 0.02012103
v -0.61537016 -0.96747122 0.03096116
v -0.59281951 -0.94736254 0.04390440
v -0.56953364 -0.92659828 0.05726962
v -0.54707639 -0.90697251 0.06989819
v -0.51863661 -0.88868641 0.08159919
v -0.49374150 -0.87267951 0.09184179
v -0.46802902 -0.85669937 0.10215723
v -0.43570257 -0.85229164 0.10764478
v -0.39824196 -0.84718392 0.11400388
v -0.36556294 -0.85150689 0.11458723
v -0.33184902 -0.85765610 0.11423383
v -0.30740070 -0.87160693 0.10899450
v -0.28040147 -0.88718839 0.10311665
v -0.25362141 -0.90264343 0.09728650
v -0.23304652 -0.92119894 0.08869808
v -0.21151341 -0.94117143 0.07936965
v -0.18922525 -0.96184436 0.06971414
v -0.16777454 -0.98304747 0.05953036
v -0.14895863 -1.00713241 0.04685723
v -0.13014273 -1.03121727 0.03418410
v -0.11215323 -1.05424439 0.02206758
v -0.09406323 -1.07740018 0.00988337
v -0.11865269 -0.81730500 0.09969916
v -0.31027282 -0.30813109 0.10679515
v -0.31381772 -0.33739009 0.11441274
v -0.31682697 -0.36774568 0.12160334
v -0.31953095 -0.39922875 0.12774980
v -0.32185269 -0.43168242 0.13298342
v -0.32368523 -0.46390683 0.13712908
v -0.32509835 -0.49608165 0.14029103
v -0.32619686 -0.52828305 0.14251379
v -0.32679015 -0.56002735 0.14382203
v -0.32728244 -0.59162751 0.14419965
v -0.32758307 -0.62304136 0.14371483
v -0.32776389 -0.65433266 0.14238643
v -0.32777018 -0.68563620 0.14028588
v -0.32725364 -0.71683839 0.13749519
v -0.32696608 -0.74812413 0.13389342
v -0.32728463 -0.77895969 0.12950080
v -0.32783101 -0.80933050 0.12440654
v -0.32930774 -0.83630346 0.11898880
v -0.12585322 -0.33517110 0.11593460
v -0.12682067 -0.36460039 0.12085776
v -0.12694749 -0.39275604 0.12646994
v -0.12657968 -0.42360185 0.13184810
v -0.12555310 -0.45518838 0.13632423
v -0.12456413 -0.48650077 0.13973729
v -0.12405086 -0.51786259 0.14190923
v -0.12423659 -0.54930218 0.14265568
v -0.12507971 -0.58099838 0.14196377
v -0.12633199 -0.61235204 0.13992659
v -0.12748269 -0.64292463 0.13683566
v -0.12789559 -0.67372688 0.13264561
v -0.12743448 -0.70472801 0.12738042
v -0.12603836 -0.73504227 0.12130342
v -0.12374656 -0.76507461 0.11441170
v -0.12104117 -0.79497687 0.10647205
v -0.11176986 -0.85426329 0.08647646
v -0.10500580 -0.88796949 0.07460827
v -0.09804930 -0.92065157 0.06315950
v -0.09131232 -0.95248641 0.05165908
v -0.08484254 -0.98559194 0.03957328
v -0.08015264 -1.01992145 0.02659391
v -0.07797535 -1.05198366 0.01517562
v -0.07795480 -1.07759218 0.00640126
v 0.34007071 -0.13518495 0.00413977
v 0.32973318 -0.15072361 0.00812189
v 0.30844281 -0.17447642 0.02137441
v 0.28744729 -0.19564859 0.03950784
v 0.26566490 -0.21560133 0.06042075
v 0.24316152 -0.23572355 0.08150938
v 0.22067213 -0.25631827 0.10282923
v 0.20004460 -0.27914696 0.12583270
v 0.18076079 -0.30333282 0.14862615
v 0.16173753 -0.32869438 0.17026189
v 0.14201178 -0.35452027 0.18996212
v 0.12104207 -0.38050116 0.20676976
v 0.10015060 -0.40785765 0.22073437
v 0.07989571 -0.43616267 0.23169724
v 0.05848971 -0.46339005 0.23818744
v 0.03671043 -0.49130352 0.24070852
v 0.01394453 -0.51845664 0.23911087
v -0.00802243 -0.54557290 0.23385441
v -0.02759557 -0.57321066 0.22574536
v -0.04434060 -0.60162983 0.21556503
v -0.05961993 -0.63015930 0.20361741
v -0.07364063 -0.65869338 0.19035610
v -0.08620412 -0.68755403 0.17645883
v -0.09560409 -0.71677297 0.16174199
v -0.10151612 -0.74677923 0.14740555
v -0.10510430 -0.77525762 0.13154928
v -0.11009831 -0.80127818 0.11501638
v -0.34878271 -0.82865016 0.12395957
v 0.43759497 -0.64114369 0.02794960
v 0.34069015 -0.15302927 0.00369653
v 0.46172421 -0.65653191 0.01454916
v -0.61015569 -0.93925568 0.03251032
v -0.59297375 -0.92131852 0.04203591
v -0.55969566 -0.87403280 0.05738510
v -0.63061095 -0.15988794 0.01532054
v -0.55619897 -0.22576000 0.04027872
v -0.05513699 -1.02739240 0.00914021
v -0.03906192 -0.97404241 0.03490146
v 0.30449142 -0.64674156 0.08677970
v 0.40406335 -0.64401610 0.02039623
v 0.33368931 -0.17152190 0.00627542
v 0.46779987 -0.63559564 0.02364180
v 0.46441321 -0.61015734 0.02835536
v -0.57691256 -0.89760052 0.05015596
v -0.61323217 -0.18261869 0.01855209
v -0.54808290 -0.20011788 0.04564163
v -0.05581128 -0.99888846 0.02711767
v -0.02214000 -0.98119284 0.01625758
v -0.01146654 -0.95568762 0.03136578
v 0.30676452 -0.66610498 0.05829338
v 0.44106298 -0.58714343 0.05723519
v -0.57996300 -0.19083671 0.03320759
v -0.52126185 -0.22738766 0.05453834
v -0.03700662 -1.00478228 0.00932454
v 0.34422842 -0.65117443 0.05844172
v 0.27697401 -0.67280253 0.09424939
v -0.52175721 -0.20460023 0.05428674
v 0.32350971 -0.65766272 0.06760703
v 0.33231029 -0.64016814 0.09479447
v 0.28567465 -0.67439122 0.06538980
v -0.52454445 -0.82334671 0.07905470
v -0.48806053 -0.69783524 0.08827888
v -0.28347325 -0.84529173 0.12051745
v -0.13722200 -0.94973251 0.08409798
v -0.17377691 -0.85735308 0.11697371
v -0.26758278 -0.73620583 0.14999244
v -0.26857218 -0.64161660 0.16196439
v -0.38452446 -0.76234419 0.12970748
v -0.10357442 -0.63431341 0.16859701
v -0.11530437 -0.72427970 0.14126574
v -0.11356893 -0.69418146 0.15053140
v -0.11601997 -0.75398697 0.12965234
v -0.11575719 -1.00814864 0.02964830
v -0.48138463 -0.51928861 0.08601975
v -0.26758870 -0.47965602 0.16233260
v -0.07824281 -0.39853247 0.16516212
v -0.26176637 -0.38011550 0.14697768
v -0.37535813 -0.38236395 0.12058412
v -0.09378230 -0.33431355 0.14744539
v -0.33359237 -0.29599921 0.10272187
v -0.28061469 -0.32275823 0.11089755
v -0.30226398 -0.29093075 0.10710007
v -0.29309844 -0.30746256 0.10442144
v -0.44677567 -0.28601084 0.08184663
v -0.17633030 -0.34593927 0.14438581
v -0.13922069 -0.31721444 0.12502178
v -0.16960023 -0.31820084 0.13136639
v -0.12340181 -0.31535466 0.12252415
v -0.10101644 -0.33613121 0.11911559
v -0.11212222 -0.35389328 0.13984604
v -0.09586508 -0.31143586 0.13010643
v -0.08793132 -0.36620813 0.15896609
v -0.09283652 -1.05835564 0.01266577
v -0.10551816 -1.03553328 0.02221890
v -0.04655537 -0.86753548 0.10871179
v -0.02856814 -0.72494268 0.19178925
v -0.08706132 -0.56864226 0.18556165
v 0.17222659 -0.69212490 0.16185759
v -0.04790259 -0.49145444 0.20649185
v 0.20028857 -0.37763055 0.19455423
v 0.07766078 -0.32993867 0.17183990
v 0.12002812 -0.28272239 0.13465679
v 0.17971382 -0.24331126 0.09811065
v 0.21579443 -0.21677241 0.07227982
v 0.27081942 -0.28128452 0.10002143
v 0.26570157 -0.19146585 0.04595491
v 0.24182587 -0.20449445 0.06026386
v 0.29303507 -0.16943927 0.02665050
v 0.31576823 -0.15631629 0.01480061
v 0.31516310 -0.21200922 0.02774602
v -0.35597709 -0.79469570 0.12902242
v -0.55813941 -0.84448201 0.05695721
v -0.58154047 -0.23528131 0.02542149
v -0.04721922 -0.93017917 0.06792084
v -0.06548551 -0.96774647 0.04835632
v -0.04361756 -0.95261675 0.05222261
v -0.06875104 -0.94478056 0.06197498
v -0.02031210 -0.93417526 0.05465322
v 0.00339520 -0.93249914 0.04036977
v -0.02135816 -0.89655768 0.08424239
v 0.01553584 -0.90306873 0.06013309
v -0.02804402 -0.91634913 0.07122565
v -0.00505942 -0.91510798 0.06216260
v -0.05604860 -0.90107085 0.08674011
v -0.55982628 -0.89291298 0.06068327
v -0.53965402 -0.88599987 0.07052985
v -0.52681556 -0.85611939 0.07702609
v 0.43580648 -0.55776924 0.06192863
v 0.40201449 -0.61531841 0.05169927
v -0.59906733 -0.20750322 0.02062627
v -0.52915437 -0.28588094 0.04751037
v 0.33624348 -0.66261243 0.03823564
v 0.36893174 -0.65160998 0.03395001
v 0.23390256 -0.68345040 0.13898441
v 0.25649628 -0.68648385 0.08509206
v 0.25713925 -0.67673176 0.12101757
v 0.23412256 -0.69388788 0.10188120
v 0.28139499 -0.64396275 0.14922560
v 0.20341501 -0.70115678 0.12917066
v 0.27482291 -0.66240928 0.12726786
v 0.29073982 -0.64828097 0.11681182
v 0.24750060 -0.65650254 0.17756945
v 0.30315196 -0.62719199 0.11181565
v 0.24736331 -0.67065222 0.15138906
v 0.22171974 -0.67043416 0.18022999
v 0.33411343 -0.60196550 0.13962647
v 0.32511222 -0.62135925 0.12322520
v 0.36350670 -0.61990444 0.09287806
v 0.29281926 -0.60128113 0.17013847
v 0.29702858 -0.60968072 0.13638249
v 0.28918199 -0.62349806 0.16074157
v 0.25516718 -0.60865540 0.20889635
v 0.26564579 -0.63140496 0.18383772
v -0.54943150 -0.81530097 0.06064345
v -0.49721336 -0.83958990 0.09258110
v -0.50711428 -0.76619496 0.08669713
v -0.38576326 -0.66823001 0.13558150
v -0.51478858 -0.69363877 0.06840076
v -0.30495154 -0.82534224 0.12472718
v -0.30815082 -0.84819509 0.11474412
v -0.28742526 -0.86382158 0.10893640
v -0.26284948 -0.87577038 0.10495534
v -0.22080033 -0.89041645 0.11262517
v -0.24148793 -0.88746270 0.10318789
v -0.24041140 -0.85988443 0.12325975
v -0.15951346 -0.96339822 0.07464677
v -0.13110305 -0.98824923 0.05602612
v -0.17663786 -0.92810334 0.09463411
v -0.13696268 -0.97121889 0.07323903
v -0.11821287 -0.96390411 0.05001689
v -0.17621924 -0.94916249 0.08177740
v -0.12734938 -0.91193195 0.08986818
v -0.14075742 -0.84611512 0.10714468
v -0.18361790 -0.78509010 0.13564263
v -0.29224392 -0.70370272 0.15034051
v -0.30050804 -0.73434085 0.14395456
v -0.18482451 -0.62075949 0.16308016
v -0.26915386 -0.57789154 0.16599496
v -0.29298017 -0.60883613 0.15816333
v -0.30109639 -0.64000761 0.15397582
v -0.36207904 -0.73168074 0.13514057
v -0.11886268 -0.63039199 0.15074191
v -0.11288062 -0.65477937 0.15667522
v -0.11035790 -0.61013255 0.16207829
v -0.09491525 -0.65512832 0.17491265
v -0.08570822 -0.61432431 0.18628418
v -0.12886489 -1.01757894 0.03892120
v -0.09709458 -1.00469561 0.03959986
v -0.38509784 -0.57445741 0.13646357
v -0.38168920 -0.47929424 0.13226286
v -0.50740130 -0.52437910 0.06335817
v -0.29206043 -0.51199038 0.15757765
v -0.17961607 -0.53001217 0.16799418
v -0.18184640 -0.43854703 0.15979252
v -0.28966733 -0.44731159 0.15115566
v -0.29905820 -0.47958677 0.15175939
v -0.10933776 -0.40281772 0.15200992
v 0.01418708 -0.41201286 0.20924592
v -0.29327128 -0.38173090 0.13561192
v -0.35473758 -0.41470183 0.12914788
v -0.34394645 -0.38292287 0.12439490
v -0.31661943 -0.29521566 0.10314683
v -0.33328220 -0.32158698 0.11046463
v -0.43453018 -0.25572037 0.08074224
v -0.21304804 -0.32650874 0.13612182
v -0.15376412 -0.37419408 0.13845101
v -0.05322810 -0.32114361 0.13568617
v -0.09913486 -1.02659458 0.03200511
v -0.08391938 -0.87418939 0.09853300
v 0.02977005 -0.83920092 0.11352720
v -0.04781176 -0.80955289 0.14516380
v -0.06382323 -0.71363712 0.18270516
v 0.09095325 -0.76718775 0.15069874
v 0.00677840 -0.64695625 0.22785218
v -0.10926299 -0.56707722 0.16247334
v -0.11091297 -0.58839090 0.16127953
v -0.09660579 -0.53151871 0.17372857
v -0.10944674 -0.54592094 0.16093353
v -0.05923996 -0.57265541 0.20765243
v 0.07537199 -0.54604015 0.25533024
v 0.15164949 -0.71924042 0.13835368
v -0.02156594 -0.51294937 0.22415110
v -0.08697202 -0.46517145 0.17451741
v 0.20002260 -0.33638486 0.16822597
v 0.17397161 -0.35740879 0.18813162
v 0.15971342 -0.43271106 0.23065966
v 0.10684792 -0.34980010 0.18774418
v 0.14763761 -0.29942328 0.14913117
v 0.12460963 -0.25259988 0.10496124
v 0.15208390 -0.23718120 0.09170386
v 0.19785649 -0.25750140 0.10857113
v 0.20734584 -0.23726660 0.09036546
v 0.17042017 -0.26915289 0.12184780
v 0.20796524 -0.20137593 0.05969390
v 0.31801406 -0.30460234 0.07287048
v 0.27367893 -0.24688767 0.07523259
v 0.23465281 -0.28691007 0.12138569
v 0.33199081 -0.21229876 0.00813727
v 0.33263077 -0.19069397 0.00719845
v 0.32810002 -0.24299624 0.02981716
v 0.30410765 -0.19556038 0.02975341
v 0.29023171 -0.22259918 0.05121667
v -0.33749140 -0.79466055 0.12772775
v -0.34784145 -0.77402613 0.13084839
v -0.36760053 -0.77648588 0.12990872
v -0.36128396 -0.75491588 0.13305655
v -0.39996031 -0.80074137 0.12716907
v -0.37786943 -0.79611448 0.12907984
v -0.38172838 -0.82550772 0.12597216
v -0.55801435 -0.26379324 0.03383755
v -0.57492146 -0.21407180 0.03271528
v -0.03912423 -0.88580374 0.09527432
v -0.00772142 -0.86324451 0.10720685
v -0.08426602 -0.90784010 0.08094722
v -0.51314977 -0.87009120 0.08382101
v -0.54579337 -0.85995494 0.06602651
v 0.44730510 -0.56705671 0.03849385
v 0.41281230 -0.62847777 0.03327657
v 0.38240107 -0.63529349 0.04875727
v -0.55408475 -0.29605193 0.03180924
v 0.20282996 -0.70792284 0.10162175
v 0.18411241 -0.71232861 0.12006650
v 0.21248719 -0.68709183 0.15545891
v 0.19180380 -0.67594879 0.18769112
v 0.19295214 -0.69522396 0.15596104
v 0.35534708 -0.63652496 0.07563991
v 0.39087004 -0.58793147 0.09424197
v 0.36861836 -0.47783974 0.13276466
v 0.21731517 -0.63199045 0.22657714
v 0.27678330 -0.61169370 0.19011023
v 0.28062797 -0.56693237 0.20572792
v 0.27231384 -0.59152343 0.20621160
v 0.24026540 -0.57391415 0.23503686
v 0.25273523 -0.58828475 0.22098127
v 0.22913695 -0.60558655 0.23869733
v -0.54113139 -0.83393783 0.06824641
v -0.48682618 -0.85587218 0.09549577
v -0.53242268 -0.75827844 0.06663998
v -0.35435121 -0.66928675 0.14029305
v -0.50733601 -0.72887620 0.07946254
v -0.49558526 -0.65250309 0.08316172
v -0.25452793 -0.79784284 0.13875999
v -0.14699256 -0.99820597 0.05721635
v -0.20529584 -0.91696279 0.09876672
v -0.11321420 -0.90628648 0.07451783
v -0.12297410 -0.88868995 0.09188077
v -0.11937447 -0.92911133 0.06915213
v -0.16036599 -0.89231625 0.10614937
v -0.12278343 -0.83830838 0.09925527
v -0.15494892 -0.81125558 0.12135574
v -0.16031382 -0.75356955 0.13406925
v -0.31365322 -0.70237314 0.14419919
v -0.30319390 -0.67844915 0.15026095
v -0.31864708 -0.73301281 0.13872240
v -0.30040981 -0.76579682 0.13897890
v -0.18797107 -0.68849678 0.15347359
v -0.16396052 -0.65628161 0.15138510
v -0.15272242 -0.62475700 0.15239351
v -0.30094256 -0.57677915 0.15626176
v -0.31396990 -0.60794836 0.15043545
v -0.31897935 -0.63913838 0.14704892
v -0.34092241 -0.73227043 0.13619505
v -0.35176315 -0.70704240 0.13816962
v -0.11606515 -0.67391971 0.15073787
v -0.08392322 -0.63722169 0.18584347
v -0.06610126 -0.60753370 0.20149583
v -0.08331673 -0.59142137 0.18915790
v -0.11548527 -0.98647170 0.03678805
v -0.35368653 -0.57505146 0.14226599
v -0.36022482 -0.51147670 0.13858888
v -0.35108886 -0.47943060 0.13740765
v -0.52218254 -0.52724438 0.04864142
v -0.31260031 -0.51181340 0.14863943
v -0.30297844 -0.53736082 0.15465256
v -0.14828292 -0.53176000 0.15764589
v -0.15659580 -0.46986464 0.15642731
v -0.30992165 -0.44773699 0.14234369
v -0.29825503 -0.42183680 0.14324370
v -0.31612890 -0.47981675 0.14344966
v -0.12333767 -0.40660716 0.13855309
v -0.10691048 -0.43500143 0.15578931
v -0.09608870 -0.38611267 0.15888715
v -0.11639528 -0.37962798 0.14532184
v 0.01575271 -0.45342526 0.22478079
v 0.05667559 -0.40017251 0.21272344
v -0.31036870 -0.38246053 0.12840380
v -0.29177084 -0.34956328 0.13043891
v -0.33410789 -0.41507513 0.13050904
v -0.34642887 -0.44003007 0.13345793
v -0.32657891 -0.38328992 0.12490933
v -0.38712071 -0.32178749 0.10461105
v -0.34006612 -0.35121304 0.11821920
v -0.46723643 -0.24413983 0.07182018
v -0.18990508 -0.32663204 0.13817423
v -0.20587893 -0.35413376 0.14888488
v -0.20871193 -0.30916736 0.12015158
v -0.23982296 -0.31474317 0.12407507
v -0.13782919 -0.37698802 0.12665217
v -0.14385821 -0.35657860 0.13180151
v -0.14802011 -0.39478986 0.13145936
v -0.18320528 -0.39949514 0.15119884
v -0.14076207 -0.33857902 0.12726898
v -0.06267902 -0.30494554 0.11903166
v -0.03563672 -0.30288770 0.12605348
v -0.00640848 -0.33848326 0.16320661
v -0.02680424 -0.32369917 0.14650195
v -0.04853635 -0.35684983 0.16129255
v 0.01266366 -0.30087235 0.13527667
v -0.02911586 -0.34433603 0.16074636
v -0.01773797 -0.38239284 0.18599194
v -0.01417107 -0.35936015 0.17505395
v -0.01175026 -0.30582864 0.13483400
v 0.02151968 -0.37435864 0.19254232
v -0.07681009 -0.32352897 0.13561679
v -0.06951032 -0.34520857 0.14811085
v -0.10267196 -0.87506642 0.08793897
v -0.08353897 -0.83389593 0.11642907
v 0.05122455 -0.85252552 0.08507917
v -0.08298423 -0.80024064 0.13702307
v -0.08237256 -0.70637514 0.17438093
v -0.07497239 -0.73995101 0.16840064
v -0.05685651 -0.68473962 0.19474736
v 0.08269436 -0.79784836 0.11753395
v 0.10678423 -0.77944299 0.11975855
v -0.02582047 -0.63060951 0.22084005
v 0.03138479 -0.59351421 0.24660697
v -0.10368501 -0.50063252 0.16383322
v -0.07061664 -0.54191400 0.19777657
v 0.04808291 -0.52336428 0.24970112
v 0.15637549 -0.73161237 0.11566129
v 0.13262955 -0.72126537 0.12124404
v 0.11531205 -0.68472325 0.16410412
v 0.13262330 -0.69798250 0.14320727
v 0.14792544 -0.70128160 0.16694798
v 0.11444769 -0.72978809 0.16100574
v 0.15890110 -0.67491829 0.19654290
v 0.12619380 -0.70919506 0.16116830
v 0.09916724 -0.69985844 0.19261447
v -0.00560871 -0.52557737 0.23294132
v 0.00094963 -0.48556433 0.22865656
v -0.10932800 -0.46874949 0.15514853
v 0.18259962 -0.32375649 0.16344640
v 0.20589671 -0.30946817 0.14773115
v 0.15925819 -0.34671738 0.18312332
v 0.15362858 -0.38434714 0.20698244
v 0.12008773 -0.44376864 0.23689179
v 0.12343402 -0.36125035 0.19525105
v 0.12745446 -0.32403678 0.16938837
v 0.08587661 -0.37663479 0.20363358
v 0.11752755 -0.23861363 0.08847371
v 0.10272660 -0.25295612 0.10214869
v 0.18844822 -0.22236158 0.07844487
v 0.14874409 -0.25768636 0.11189818
v 0.14942854 -0.27819529 0.13090814
v 0.33938657 -0.30516782 0.03406063
v 0.26115022 -0.23303068 0.07314407
v 0.25189006 -0.25527775 0.09185939
v 0.26657730 -0.26344110 0.09040947
v 0.29805767 -0.26683155 0.06940700
v 0.21990956 -0.27520408 0.11769855
v 0.33968630 -0.24586315 0.00834429
v 0.33818468 -0.26299405 0.02630203
v 0.31444311 -0.26148378 0.04684944
v 0.30485420 -0.23953645 0.04711511
v 0.31222376 -0.28224000 0.06321761
v 0.29301184 -0.28970580 0.08867822
v 0.26993666 -0.33077118 0.13399147
v 0.27641999 -0.30617808 0.11275765
v 0.25491491 -0.29783895 0.11963567
v 0.30110188 -0.32839838 0.10813441
v 0.23284354 -0.31492226 0.14230258
v 0.29490317 -0.30920224 0.10028069
v 0.28031913 -0.21114936 0.05106014
v -0.36599812 -0.83267131 0.12373106
v -0.56461757 -0.24382433 0.03353275
v -0.54202763 -0.24707108 0.04453135
v -0.57538877 -0.26979023 0.02222226
v -0.54248565 -0.32526277 0.03756813
v -0.54608242 -0.27893461 0.03881649
v 0.42020085 -0.57942682 0.07679139
v 0.40295251 -0.56566637 0.09884334
v 0.40640649 -0.59704968 0.06681692
v 0.41837703 -0.52909278 0.07369721
v 0.35924215 -0.58064653 0.13217246
v 0.39897564 -0.46372909 0.07055728
v 0.20659711 -0.65517972 0.20821885
v 0.24240031 -0.63635734 0.20902743
v 0.18489002 -0.56785892 0.25501508
v -0.54089402 -0.78700787 0.06429117
v -0.33655554 -0.66980308 0.14139450
v -0.35453448 -0.63796485 0.14191064
v -0.50391350 -0.70878634 0.07881642
v -0.52337638 -0.71426089 0.06496989
v -0.48565831 -0.72199056 0.09243149
v -0.52597829 -0.73661087 0.06701420
v -0.49202170 -0.74637016 0.09219263
v -0.44388610 -0.70339534 0.11403894
v -0.46502083 -0.78668388 0.11009000
v -0.46679393 -0.70665242 0.10184967
v -0.48406105 -0.77022989 0.10017435
v -0.45624233 -0.74261069 0.10908907
v -0.46090424 -0.66644557 0.10665531
v -0.50059904 -0.80087393 0.09364291
v -0.45337759 -0.72163780 0.10990569
v -0.41799915 -0.73852822 0.12349171
v -0.47477738 -0.73770278 0.10018131
v -0.46342317 -0.76398282 0.10908825
v -0.43067211 -0.77829220 0.12140405
v -0.47153783 -0.68511789 0.09966176
v -0.48089249 -0.66609349 0.09414091
v -0.47013672 -0.63542500 0.10064163
v -0.50047797 -0.67583474 0.07975843
v -0.48389660 -0.79100107 0.10205843
v -0.47948202 -0.81964283 0.10294737
v -0.51716433 -0.65943296 0.06490139
v -0.51076364 -0.63083112 0.06889458
v -0.27594503 -0.81864144 0.13145682
v -0.22353193 -0.90482199 0.09827329
v -0.12575927 -0.94831985 0.06476353
v -0.18287677 -0.90576424 0.10496407
v -0.13327848 -0.80920761 0.11182843
v -0.14509136 -0.78895467 0.12137779
v -0.16494907 -0.79440545 0.12845197
v -0.16017878 -0.77447972 0.13064456
v -0.19066975 -0.81819870 0.13017069
v -0.13856998 -0.75146001 0.12514976
v -0.15142467 -0.72938707 0.13469110
v -0.19519869 -0.72908823 0.14852170
v -0.17328826 -0.73606259 0.14157504
v -0.17009180 -0.70950264 0.14517337
v -0.19389998 -0.75839687 0.14328177
v -0.26573147 -0.67893955 0.15865907
v -0.30194955 -0.79591264 0.13266760
v -0.28419769 -0.75144407 0.14487414
v -0.27517425 -0.77820515 0.14132664
v -0.14224000 -0.65752394 0.14234946
v -0.15389865 -0.68282679 0.14362262
v -0.13527318 -0.62662689 0.14370359
v -0.14968206 -0.59431317 0.15575508
v -0.31853111 -0.57617043 0.14850674
v -0.38774010 -0.70466647 0.13323963
v -0.10029837 -0.67284717 0.16717045
v -0.33588672 -0.57551758 0.14388742
v -0.35294264 -0.54338441 0.14158500
v -0.35432937 -0.60664767 0.14260953
v -0.33954055 -0.51187206 0.14096432
v -0.33327171 -0.47974647 0.13863451
v -0.26649443 -0.53966918 0.16675865
v -0.13180838 -0.53268189 0.14826269
v -0.14659582 -0.50111170 0.15593795
v -0.13692352 -0.47001995 0.14677603
v -0.14789057 -0.44542613 0.14833561
v -0.16567602 -0.45102648 0.15672255
v -0.16218201 -0.42838913 0.15341315
v -0.19661136 -0.47750757 0.16745145
v -0.26230521 -0.41882288 0.15477387
v -0.09290348 -0.41709448 0.16253357
v -0.08566303 -0.43959799 0.17111518
v -0.05081879 -0.45101796 0.19614363
v -0.07083269 -0.45180873 0.18394882
v -0.06752821 -0.47749822 0.19135983
v -0.05934076 -0.41968628 0.18310197
v -0.08663168 -0.48892490 0.17818711
v 0.03468300 -0.46745805 0.23413540
v 0.04181745 -0.43937277 0.22676436
v 0.02084195 -0.43224851 0.21905998
v 0.03942586 -0.41662638 0.21741284
v -0.01700346 -0.43442526 0.20758036
v 0.03243632 -0.39433544 0.20554321
v 0.05084801 -0.37223603 0.19698694
v 0.03494532 -0.33726010 0.17120890
v 0.03560658 -0.35742596 0.18514096
v 0.06114141 -0.34939742 0.18381029
v 0.01343751 -0.34904089 0.17519008
v 0.07667613 -0.41376433 0.22180149
v -0.30829559 -0.35147069 0.12240307
v -0.27665073 -0.36382221 0.13773227
v -0.24343490 -0.34712204 0.14227414
v -0.26754131 -0.33755854 0.13433383
v -0.29531809 -0.33495416 0.11699461
v -0.38215384 -0.44131717 0.12855716
v -0.35802717 -0.31406333 0.10650278
v -0.40404109 -0.28606069 0.09185781
v -0.35807856 -0.36548852 0.11994287
v -0.36054869 -0.33973477 0.11373748
v -0.38134486 -0.35719106 0.11472346
v -0.42440760 -0.38706533 0.10818268
v -0.40004303 -0.37770411 0.11418715
v -0.40998216 -0.34767854 0.10566232
v -0.40371873 -0.41467274 0.11950312
v -0.39175483 -0.39650077 0.11982688
v -0.38185142 -0.41724635 0.12542902
v -0.45589640 -0.26487904 0.07662900
v -0.49384850 -0.27412815 0.06459356
v -0.47204921 -0.28602445 0.07352692
v -0.50233513 -0.31827483 0.06244580
v -0.49173677 -0.29758636 0.06623859
v -0.51256013 -0.29910379 0.05639830
v -0.46694170 -0.32538769 0.08012938
v -0.53070046 -0.30808130 0.04601047
v -0.52182513 -0.33130526 0.05157342
v -0.46085538 -0.30377087 0.07970579
v -0.43179052 -0.32265849 0.09305884
v -0.53713420 -0.35214631 0.04009763
v -0.49357347 -0.36349819 0.06961549
v -0.50360710 -0.34259656 0.06305933
v -0.51719313 -0.36569963 0.05403520
v -0.48285371 -0.34284728 0.07466777
v -0.45851249 -0.37270610 0.09070635
v -0.47462132 -0.36223351 0.08095899
v -0.48426618 -0.40117704 0.07853755
v -0.45450629 -0.34624850 0.08907768
v -0.43419624 -0.36114152 0.09983246
v -0.44818145 -0.24074242 0.07552257
v -0.23915160 -0.30210560 0.10635733
v -0.25963773 -0.31333090 0.10950579
v -0.18509162 -0.37238241 0.14812695
v -0.21401193 -0.38768569 0.15378820
v -0.15851092 -0.33618056 0.13798024
v -0.06397289 -0.37742272 0.16356125
v -0.04110301 -0.37701808 0.17533654
v -0.03774555 -0.40267396 0.18752999
v -0.05748857 -0.39601611 0.17592807
v -0.03818924 -0.42668503 0.19560563
v -0.01235716 -0.40757597 0.19916094
v 0.00531635 -0.39159287 0.19754612
v -0.10375429 -0.82195335 0.11147530
v -0.10390408 -0.84460011 0.10423945
v 0.02307296 -0.87095594 0.08685551
v -0.06979758 -0.81982564 0.13344472
v -0.05414166 -0.84324429 0.12423403
v -0.07323521 -0.85449170 0.10995777
v -0.02772295 -0.84991486 0.12016871
v 0.00139281 -0.83465127 0.12800274
v -0.05136168 -0.73458196 0.18093919
v -0.04910512 -0.77288827 0.16461669
v -0.02514954 -0.75378756 0.17993816
v -0.04157332 -0.70434271 0.19529843
v 0.00794269 -0.69500465 0.21136331
v -0.02332975 -0.67880182 0.20986984
v -0.01493158 -0.70558712 0.20252585
v 0.01726972 -0.73511824 0.19262907
v 0.00699983 -0.71626521 0.20184289
v 0.05376318 -0.70766757 0.20611114
v 0.03172022 -0.71767622 0.20236376
v 0.05884140 -0.74760868 0.17974234
v 0.04175554 -0.73637007 0.19112652
v 0.02336051 -0.77505232 0.16672382
v 0.03795909 -0.75743431 0.17734738
v 0.05751464 -0.78426208 0.14994082
v 0.09311535 -0.80471790 0.09673298
v 0.07314885 -0.82207311 0.09843149
v 0.09117152 -0.78200132 0.13127835
v -0.04354974 -0.62091096 0.21397299
v -0.01204889 -0.60180486 0.23115988
v -0.10933370 -0.51959694 0.15929140
v -0.08760113 -0.54793884 0.18361169
v -0.04055259 -0.54362578 0.21800539
v 0.03267318 -0.51060253 0.24371550
v 0.02537661 -0.54996785 0.24642238
v 0.07132645 -0.49602792 0.24865761
v 0.10706740 -0.75081796 0.13643803
v 0.17337827 -0.67992618 0.18405423
v 0.17747334 -0.66427405 0.20376701
v 0.15070581 -0.63984696 0.22652644
v -0.02385576 -0.48838712 0.21850700
v -0.01238001 -0.46139820 0.21714746
v -0.03766284 -0.46928159 0.20764010
v 0.13888019 -0.37278397 0.20162956
v 0.13296827 -0.41112180 0.22273129
v 0.10204006 -0.43045472 0.23100332
v 0.09566215 -0.45871190 0.24119776
v 0.13416139 -0.50001592 0.25299668
v 0.12004535 -0.47347027 0.24684364
v 0.12452464 -0.30292669 0.15251801
v 0.08811159 -0.29841876 0.14665612
v 0.10351824 -0.31561684 0.16228129
v 0.10243133 -0.38839508 0.21089615
v 0.34026603 -0.34040669 0.06821271
v 0.34178073 -0.28449681 0.02564541
v 0.29159773 -0.24903095 0.06470846
v 0.25309364 -0.31829327 0.13509638
v 0.23635485 -0.35571285 0.16852405
v 0.43568241 -0.53805585 0.04680475
v 0.37646370 -0.54487393 0.12952673
v 0.38112830 -0.43276127 0.07343174
v 0.41139924 -0.49505926 0.07312171
v 0.24082207 -0.61785514 0.22656396
v 0.22800249 -0.65259041 0.20118055
v 0.21261628 -0.58129178 0.24984742
v -0.53362036 -0.80516892 0.07219366
v -0.52015207 -0.78599089 0.08022023
v -0.37026633 -0.65295040 0.13914939
v -0.38314154 -0.62156953 0.13744611
v -0.39358733 -0.64418736 0.13426225
v -0.43015486 -0.61152225 0.12169410
v -0.42396792 -0.66728616 0.12413072
v -0.40813021 -0.62288288 0.13024508
v -0.40494725 -0.66111349 0.13075157
v -0.42141079 -0.64297964 0.12522017
v -0.40697559 -0.68692453 0.12912222
v -0.39697574 -0.59853718 0.13389297
v -0.44258249 -0.65237451 0.11629531
v -0.42808755 -0.68892952 0.12144610
v -0.41201591 -0.71279456 0.12637903
v -0.44265567 -0.67401125 0.11589076
v -0.43123545 -0.72108206 0.11918125
v -0.49039800 -0.62880050 0.08598843
v -0.46788489 -0.58785595 0.10021840
v -0.50150011 -0.59314048 0.07412528
v -0.47431358 -0.61154730 0.09659420
v -0.50086179 -0.61349106 0.07600753
v -0.45263406 -0.61849958 0.11054012
v -0.48452621 -0.59517222 0.08854923
v -0.48595099 -0.55705185 0.08377586
v -0.43801885 -0.63223288 0.11797668
v -0.44664043 -0.59444611 0.11308525
v -0.42104644 -0.58370660 0.12479514
v -0.44619136 -0.55200449 0.11025799
v -0.45237844 -0.57335586 0.10865709
v -0.46612000 -0.55742559 0.09822159
v -0.46051763 -0.53111886 0.10021674
v -0.25683302 -0.83805003 0.12807301
v -0.14811596 -0.70897234 0.13679110
v -0.22971550 -0.74485153 0.15016247
v -0.22065281 -0.78234310 0.14232303
v -0.28435898 -0.68596461 0.15441982
v -0.26400780 -0.70613263 0.15516648
v -0.28473563 -0.66060610 0.15714130
v -0.17301296 -0.67421030 0.15159566
v -0.19759658 -0.65103835 0.16106293
v -0.16727260 -0.60693532 0.16043969
v -0.17990835 -0.56943000 0.16724620
v -0.19230845 -0.59412359 0.16799492
v -0.36993332 -0.71316638 0.13583199
v -0.36850433 -0.68862959 0.13776808
v -0.38840224 -0.73160766 0.13153426
v -0.36908682 -0.55858553 0.13952601
v -0.37624008 -0.53289820 0.13693000
v -0.38676744 -0.50736825 0.13266185
v -0.36971637 -0.59079867 0.14031621
v -0.28463725 -0.53101993 0.16127702
v -0.28690140 -0.55658127 0.16145252
v -0.26470822 -0.51110382 0.16592984
v -0.16329248 -0.51464631 0.16327736
v -0.18847074 -0.50401707 0.16852964
v -0.16848073 -0.49057235 0.16296693
v -0.22754670 -0.50083625 0.17034369
v -0.20740255 -0.49496695 0.16987821
v -0.22521574 -0.47140920 0.16775961
v -0.20936342 -0.52435032 0.17179381
v -0.28083584 -0.42787446 0.15111313
v -0.26263670 -0.44810863 0.15938937
v -0.27882871 -0.40130989 0.14679208
v -0.07658530 -0.51475324 0.19022820
v -0.22298237 -0.34380054 0.14389908
v -0.23237357 -0.36934743 0.15026888
v -0.24115035 -0.39832595 0.15509095
v -0.36398848 -0.43322816 0.13069729
v -0.36577167 -0.45915725 0.13360565
v -0.42510518 -0.27722906 0.08593380
v -0.43028762 -0.29987781 0.08883754
v -0.40474140 -0.26106058 0.08661099
v -0.41018286 -0.31042484 0.09647199
v -0.37536226 -0.29356551 0.09829543
v -0.36841173 -0.40106175 0.12519475
v -0.51593655 -0.25688816 0.05550218
v -0.53370363 -0.37349294 0.04049337
v -0.51576133 -0.40107428 0.05410350
v -0.42672241 -0.34140893 0.09904609
v -0.20783718 -0.41984971 0.15742850
v 0.03445809 -0.85499677 0.09526978
v 0.03309210 -0.88628947 0.06334061
v 0.01149931 -0.85108173 0.11099124
v -0.02393621 -0.82468174 0.13770343
v 0.00413808 -0.80319536 0.15149223
v -0.07980056 -0.76577165 0.15563357
v -0.06198048 -0.79094177 0.15160681
v 0.00244866 -0.67089735 0.21916762
v 0.04072357 -0.67762378 0.22088544
v -0.01954272 -0.65503978 0.21768512
v -0.00753586 -0.73773669 0.18950590
v 0.00331825 -0.76059119 0.17812679
v 0.05966822 -0.80817079 0.12551220
v 0.06604020 -0.83989779 0.08495893
v 0.05419233 -0.82932473 0.10755523
v -0.00215619 -0.62461047 0.23086025
v 0.03410302 -0.62741468 0.24026015
v 0.01208153 -0.60673738 0.23883309
v 0.00471681 -0.57692058 0.23987503
v 0.01009506 -0.53770578 0.24029017
v 0.05040906 -0.54801895 0.25227002
v 0.03974715 -0.57048849 0.25050777
v 0.08011740 -0.59601322 0.24168626
v 0.05734796 -0.59008937 0.25058929
v 0.06240932 -0.61734230 0.24265351
v 0.07708284 -0.57289441 0.25380886
v 0.12769890 -0.58496717 0.25122635
v 0.10620285 -0.55991678 0.25625502
v 0.05548329 -0.48314928 0.24291533
v 0.12062697 -0.75322854 0.11306265
v 0.13871040 -0.74389753 0.12426172
v 0.13104167 -0.72975639 0.14518215
v 0.18460869 -0.63577630 0.23101166
v 0.15606721 -0.40865303 0.21958333
v 0.19163238 -0.41439992 0.21667887
v 0.09637823 -0.48584836 0.24909551
v 0.09522736 -0.51992253 0.25496419
v 0.15478275 -0.46992347 0.24487715
v 0.34780946 -0.32719708 0.03504240
v 0.33240044 -0.32089233 0.06458132
v 0.31552722 -0.56143950 0.17253680
v 0.37845268 -0.45410073 0.10405611
v 0.33510726 -0.43315072 0.14687270
v 0.36088006 -0.43749317 0.11848391
v 0.35736723 -0.39595444 0.08477219
v 0.33727994 -0.46611710 0.16247574
v 0.35349539 -0.41543596 0.11125641
v 0.31463850 -0.39154362 0.14040711
v 0.33037344 -0.40900917 0.13678842
v 0.29070001 -0.43347661 0.18376747
v 0.31339368 -0.42654388 0.16358600
v 0.30727223 -0.46081448 0.18390427
v 0.39373609 -0.44659586 0.04959558
v 0.39068070 -0.48584217 0.10641558
v 0.35502968 -0.51999466 0.15717822
v 0.38773602 -0.51370863 0.12080798
v 0.22123909 -0.51239158 0.24215328
v -0.36466994 -0.62204515 0.14094164
v -0.45425012 -0.68771622 0.10941658
v -0.47683450 -0.53908011 0.08881785
v -0.45070965 -0.47861092 0.10595425
v -0.22063300 -0.83446288 0.12975351
v -0.20883243 -0.74410205 0.14844390
v -0.22049117 -0.72186496 0.15344098
v -0.20210259 -0.70728391 0.15329072
v -0.24541318 -0.72555219 0.15353326
v -0.22583980 -0.67722467 0.16042712
v -0.23735450 -0.70092243 0.15744509
v -0.21828112 -0.69524887 0.15729504
v -0.20137329 -0.77597958 0.14118468
v -0.20385868 -0.79843037 0.13674803
v -0.22936378 -0.80568524 0.13699159
v -0.24811185 -0.81846673 0.13371542
v -0.24780593 -0.77096235 0.14511853
v -0.23110961 -0.61674924 0.16790425
v -0.39946190 -0.74809667 0.12781851
v -0.41699257 -0.76097506 0.12347064
v -0.43615870 -0.74989230 0.11745923
v -0.42584012 -0.51633640 0.11907797
v -0.24984255 -0.49384807 0.16752123
v -0.24046375 -0.52667998 0.17086574
v -0.20559966 -0.45167207 0.16466511
v -0.23373258 -0.44326706 0.16264005
v -0.19810781 -0.54920070 0.17113042
v -0.24816002 -0.46626285 0.16464806
v -0.38316633 -0.27284258 0.09209833
v -0.35892956 -0.27665711 0.09545031
v -0.49265886 -0.24747351 0.06424380
v -0.50488424 -0.38261969 0.06289874
v -0.18818660 -0.42044288 0.15245627
v 0.04574025 -0.86987493 0.06992755
v 0.02218254 -0.81787940 0.13527774
v 0.04163095 -0.81812237 0.12641830
v 0.03602572 -0.79699229 0.14708431
v -0.08677191 -0.78157914 0.14310299
v -0.04802584 -0.65504886 0.20593953
v 0.06261121 -0.65035549 0.23293108
v 0.10162931 -0.58655853 0.25238301
v 0.10996678 -0.62763513 0.23492776
v 0.11582500 -0.60578374 0.24537212
v 0.09556941 -0.61197142 0.24061363
v 0.08337768 -0.63066236 0.21765348
v 0.13530374 -0.62135826 0.23708123
v 0.16491133 -0.61668845 0.24146682
v 0.14684862 -0.54608674 0.25734882
v 0.18940308 -0.65141621 0.21730981
v 0.16890782 -0.64874748 0.22009026
v 0.20073572 -0.61224073 0.24246302
v 0.07159680 -0.51971548 0.25267220
v 0.09564570 -0.54136482 0.25634941
v 0.12157100 -0.53923712 0.25712286
v 0.13047728 -0.56216870 0.25570658
v 0.15717628 -0.57833162 0.25379055
v 0.13795906 -0.52410522 0.25626041
v 0.18012028 -0.51801309 0.25369910
v 0.15731780 -0.50923392 0.25393788
v 0.17536816 -0.48844042 0.24793055
v 0.19947790 -0.49989463 0.24637426
v 0.18202479 -0.45554454 0.23645554
v 0.23382412 -0.45356960 0.22174300
v 0.22088229 -0.48240431 0.23597783
v 0.26435294 -0.49023638 0.21869202
v 0.20790039 -0.45753848 0.23154298
v 0.24544951 -0.47645770 0.22471334
v 0.22013965 -0.42479697 0.21380678
v 0.19648191 -0.43760671 0.22623914
v 0.19371851 -0.47587631 0.24106092
v 0.24375259 -0.50423172 0.23210867
v 0.27019086 -0.45821495 0.20610613
v 0.23680218 -0.54080622 0.23806338
v 0.26407506 -0.52430425 0.22440350
v 0.11168090 -0.50357031 0.25349447
v 0.13634769 -0.45862963 0.24197350
v 0.33022689 -0.57973879 0.15912337
v 0.34449817 -0.55689452 0.16020764
v 0.29862329 -0.57742556 0.15839755
v 0.28634854 -0.56486927 0.17785148
v 0.30511231 -0.52160962 0.19136686
v 0.28453307 -0.54333090 0.18868368
v 0.27756978 -0.52528250 0.20230674
v 0.29631228 -0.49368377 0.19830457
v 0.27037113 -0.54879685 0.21937423
v 0.32495146 -0.45121670 0.16642774
v 0.33485863 -0.49917826 0.17300314
v -0.46183522 -0.50361418 0.09969374
v -0.25055880 -0.75032803 0.14903631
v -0.20757803 -0.61163852 0.16770467
v -0.22916862 -0.57853424 0.17144473
v -0.21394194 -0.63370253 0.16561255
v -0.24036263 -0.64178555 0.16505236
v -0.25393232 -0.65996049 0.16215775
v -0.44515653 -0.76637225 0.11630909
v -0.44128672 -0.53047773 0.11188437
v -0.41509971 -0.54852648 0.12532402
v -0.41029188 -0.48945649 0.12445314
v -0.24011379 -0.42155615 0.15818494
v -0.35287621 -0.29496271 0.10110289
v 0.05399770 -0.63451476 0.24014602
v 0.03645325 -0.65066525 0.23219062
v 0.07845577 -0.61502511 0.22946515
v 0.09029248 -0.66707677 0.21290721
v 0.14648783 -0.60087226 0.24644089
v 0.19163587 -0.59153810 0.24999956
v 0.16576637 -0.55837203 0.25652395
v 0.25733196 -0.41920037 0.19549327
v 0.21284230 -0.39972997 0.20323095
v 0.23780467 -0.40338022 0.19626750
v 0.22376142 -0.37655482 0.18647834
v 0.27250512 -0.37601980 0.16270116
v 0.21304428 -0.35565866 0.17725302
v 0.24830262 -0.37704510 0.17648103
v 0.22570890 -0.33669629 0.16027462
v 0.26047444 -0.39552660 0.18121355
v 0.28163155 -0.40893070 0.17681486
v 0.20779757 -0.54534627 0.25172074
v 0.20027398 -0.52387677 0.25088781
v 0.18633662 -0.54261924 0.25494922
v 0.22526431 -0.56217586 0.24443767
v 0.31768347 -0.48089856 0.18234256
v 0.28587310 -0.47367911 0.20182107
v 0.27500245 -0.50525611 0.21025703
v 0.25055482 -0.55302345 0.23001257
v -0.44100384 -0.49968018 0.11126407
v -0.49407514 -0.46901717 0.07638142
v -0.24309268 -0.55420234 0.17071541
v -0.26242392 -0.55936210 0.16773956
v -0.21965140 -0.55771483 0.17195942
v -0.39993763 -0.52900498 0.13007848
v -0.39292248 -0.55188986 0.13337671
v -0.40682827 -0.56806138 0.12965387
v -0.40207697 -0.46188113 0.12549597
v 0.02315971 -0.66523961 0.22473274
v 0.08071599 -0.65075318 0.22191580
v 0.06793656 -0.67221999 0.22198555
v 0.09633165 -0.64503990 0.20425812
v 0.05729125 -0.68870669 0.21463465
v 0.07790580 -0.69950434 0.20456491
v 0.10007534 -0.66744868 0.18622389
v 0.07087992 -0.72439607 0.19308595
v 0.08463518 -0.74384640 0.17416398
v 0.23909760 -0.43122932 0.20946047
v 0.27029326 -0.43529406 0.19657745
v -0.48258129 -0.49215713 0.08549853
v -0.20245633 -0.57335356 0.17048723
v -0.22369537 -0.53818748 0.17210844
v -0.40718204 -0.50992754 0.12612491
v -0.40376836 -0.43830033 0.12264480
v -0.44478550 -0.43054462 0.10579514
v -0.42882122 -0.45409730 0.11525083
v -0.42319633 -0.42833404 0.11478422
v -0.43429723 -0.40903532 0.10754695
v -0.44569901 -0.39018815 0.09949203
v -0.46539242 -0.39497868 0.08953966
v -0.47058829 -0.42541276 0.09092141
v -0.45417805 -0.41174046 0.09839461
v 0.09961196 -0.68017155 0.20099802
v 0.11135413 -0.68712361 0.18370674
v 0.12824334 -0.67532905 0.19552487
v 0.09791412 -0.74232380 0.15738394
v 0.09081441 -0.72144839 0.18428150
v -0.47167044 -0.46833718 0.09293178
v -0.50693461 -0.49457247 0.06495018
v -0.45027080 -0.45463689 0.10493162
v -0.50096984 -0.43368264 0.06967424
v 0.13139740 -0.68975418 0.17582730
v 0.14373786 -0.66091207 0.21055330
v 0.12497062 -0.64621084 0.22203119
v 0.10576198 -0.64247696 0.22192980
v 0.11202333 -0.65910107 0.20891897
v -0.48268390 -0.44735339 0.08474200
v -0.46542956 -0.44492947 0.09587988
v -0.49612829 -0.50963525 0.07452500
v -0.51489117 -0.47040059 0.05696390
v -0.50520623 -0.45387492 0.06666354
v -0.51996932 -0.43901928 0.05248944
v -0.52861759 -0.46263950 0.04253702
v -0.51347642 -0.42070509 0.05847298
v -0.51630706 -0.50931454 0.05535121
v -0.48707574 -0.42148879 0.07930191
v -0.60649400 -0.16151625 0.02625458
v 0.43401422 -0.60953764 0.05120737
v -0.51574024 -0.84097920 0.08343844
v -0.26346739 -0.85750893 0.11802010
v -0.20606286 -0.86450715 0.12087032
v -0.18458258 -0.88114427 0.11381495
v -0.19494339 -0.84172806 0.12502215
v -0.22114118 -0.85240587 0.12505033
v -0.15026217 -0.92362706 0.09474301
v -0.28438148 -0.72286411 0.14941473
v -0.28515872 -0.62827233 0.15941777
v -0.26032374 -0.61498909 0.16571080
v -0.24538191 -0.59635955 0.16883461
v -0.28404090 -0.49255346 0.15878579
v -0.28310370 -0.46671270 0.15617317
v -0.06204532 -0.88145797 0.09767360
v 0.16614930 -0.70354007 0.13595509
v 0.36075918 -0.60184377 0.11454480
v -0.12746292 -0.86627806 0.09832669
v -0.16365192 -0.83378256 0.11867071
v -0.14264051 -0.82671953 0.11105447
v -0.30849961 -0.65849303 0.15013663
v -0.16977032 -0.63605931 0.15674779
v -0.28535324 -0.59000255 0.16129196
v -0.34688991 -0.68788149 0.13988629
v -0.36692027 -0.49221868 0.13613737
v -0.30822864 -0.55735399 0.15318927
v -0.30161681 -0.40132457 0.13742941
v -0.34291210 -0.46025828 0.13628698
v 0.00927615 -0.28073708 0.11353723
v 0.04887646 -0.28345170 0.12563244
v 0.17725122 -0.38143573 0.20167880
v -0.50600054 -0.82045952 0.08968812
v -0.43899955 -0.81479913 0.11806508
v -0.45683955 -0.83377815 0.10834101
v -0.28096204 -0.79811228 0.13572873
v -0.14745105 -0.56321214 0.15732239
v -0.16365890 -0.54719017 0.16399207
v -0.16071374 -0.57681791 0.16173026
v -0.14531498 -0.41519122 0.14377628
v -0.16473687 -0.40543629 0.14046020
v -0.16914521 -0.38608534 0.14600879
v 0.08398315 -0.35467940 0.18977357
v -0.39153311 -0.34160696 0.10862825
v 0.00137038 -0.88330328 0.08696498
v -0.04747991 -0.51764710 0.21078868
v 0.13867466 -0.43221037 0.23179287
v 0.09386871 -0.27512533 0.12480016
v 0.07921037 -0.26052051 0.10657189
v 0.07262498 -0.28463679 0.13145077
v 0.05751587 -0.30892911 0.15182336
v 0.03603604 -0.30027926 0.14029896
v 0.05543772 -0.32849226 0.16772247
v 0.40079156 -0.54696185 0.10593912
v 0.42247075 -0.50759756 0.05083513
v -0.51891241 -0.59433541 0.05702246
v -0.50969267 -0.57152946 0.06422146
v -0.53316054 -0.39502167 0.04031647
v 0.03199966 -0.69707502 0.21267313
v 0.37543572 -0.41126285 0.05361751
v 0.37270342 -0.39101021 0.04210943
v 0.36433091 -0.36798229 0.03465454
v 0.35854123 -0.34750095 0.03744865
v -0.20355418 -0.67191881 0.15886831
v -0.22045455 -0.65545185 0.16310100
v -0.40060754 -0.77728960 0.12684960
v -0.49496397 -0.22033881 0.06247170
v 0.30832146 -0.59318202 0.14060316
v 0.28871735 -0.58542010 0.18673731
v -0.43005799 -0.56412858 0.11992209
v 0.17030353 -0.59641067 0.24963364
v 0.28916287 -0.35240057 0.13516462
v 0.29622497 -0.37600982 0.14631255
v 0.32136168 -0.36054423 0.10893861
v 0.33654906 -0.38092415 0.10544983
v 0.35423186 -0.37624169 0.07262611
v 0.31951178 -0.33918666 0.09633348
v 0.34015051 -0.35989217 0.08238437
v 0.30223998 -0.40791604 0.16161166
v -0.42929491 -0.47820272 0.11635132
v -0.15215480 -0.86890617 0.10816990
v 0.04583343 -0.26549023 0.10468384
v 0.17538602 -0.40231741 0.21373543
v -0.44499490 -0.79331351 0.11726426
v -0.46089681 -0.80951437 0.11155084
v -0.42136977 -0.83457187 0.11754619
v -0.41776731 -0.81291988 0.12335908
v -0.40183655 -0.82741010 0.12321669
v -0.50404395 -0.54812276 0.06657057
v 0.01491194 -0.32314102 0.15609979
v 0.06997823 -0.76440106 0.16202855
v -0.02368048 -0.79112246 0.16010445
v 0.00054791 -0.78185668 0.16594239
v -0.01690696 -0.80800490 0.14966170
v 0.32459367 -0.53567566 0.17881546
v 0.26083488 -0.35375948 0.15512703
v 0.24792484 -0.33820361 0.15161732
f 118 119 117
f 371 490 206
f 117 119 120
f 276 264 539
f 115 116 121
f 120 116 117
f 121 116 120
f 146 145 517
f 268 267 144
f 347 1139 346
f 442 33 34
f 222 239 232
f 123 218 122
f 218 217 122
f 234 7 8
f 218 114 217
f 310 229 123
f 224 241 245
f 229 113 218
f 112 219 111
f 1138 340 1168
f 217 121 122
f 521 68 69
f 225 214 443
f 219 112 229
f 113 229 112
f 111 297 110
f 1136 237 81
f 225 444 318
f 339 614 109
f 614 463 108
f 244 243 240
f 297 111 219
f 310 123 124
f 445 93 94
f 228 236 1137
f 463 107 108
f 341 621 465
f 426 424 226
f 232 223 300
f 640 343 637
f 7 234 233
f 253 430 431
f 105 343 640
f 434 433 432
f 109 110 339
f 441 297 219
f 47 226 424
f 274 273 162
f 318 25 26
f 243 224 235
f 184 222 183
f 345 132 346
f 131 132 161
f 434 599 433
f 239 5 6
f 213 131 161
f 213 161 160
f 345 161 132
f 80 81 237
f 138 351 137
f 619 247 617
f 177 646 143
f 468 354 351
f 349 347 134
f 231 221 238
f 143 474 178
f 317 24 25
f 317 235 24
f 136 137 356
f 356 137 351
f 181 355 182
f 147 146 515
f 469 353 645
f 658 480 159
f 487 488 366
f 130 131 213
f 476 654 656
f 663 172 171
f 152 668 153
f 624 247 619
f 360 477 361
f 155 615 156
f 156 157 477
f 161 344 160
f 429 296 428
f 958 968 969
f 648 647 649
f 177 211 176
f 173 256 489
f 661 483 482
f 175 257 255
f 174 255 256
f 367 368 254
f 173 172 661
f 652 476 651
f 255 257 210
f 161 345 344
f 475 646 647
f 657 854 852
f 140 141 279
f 433 599 296
f 505 508 164
f 641 104 640
f 672 150 149
f 264 274 275
f 601 221 600
f 389 718 269
f 100 101 497
f 210 209 255
f 80 231 79
f 91 92 298
f 984 1202 238
f 705 144 145
f 33 236 228
f 313 34 35
f 102 1192 101
f 1134 1128 1118
f 711 714 713
f 157 158 479
f 715 717 716
f 1041 1099 259
f 371 206 491
f 269 718 720
f 104 641 103
f 105 106 343
f 272 271 67
f 78 79 242
f 71 72 267
f 678 679 379
f 83 87 88
f 84 87 83
f 85 86 84
f 278 184 279
f 84 86 87
f 256 255 209
f 88 89 220
f 15 549 14
f 237 231 80
f 231 238 242
f 445 603 725
f 231 237 436
f 620 107 463
f 88 220 83
f 9 304 8
f 298 436 315
f 220 230 1136
f 324 319 448
f 277 745 540
f 230 220 89
f 65 66 273
f 266 741 268
f 315 237 230
f 222 5 239
f 150 151 498
f 671 496 495
f 362 859 1043
f 671 151 150
f 381 380 502
f 677 501 676
f 956 846 847
f 513 386 385
f 154 485 153
f 513 148 147
f 163 523 164
f 148 149 502
f 169 168 674
f 506 382 505
f 146 147 511
f 1109 1111 1108
f 382 507 508
f 270 272 519
f 391 523 524
f 527 162 271
f 163 275 274
f 499 377 498
f 636 466 635
f 389 886 888
f 387 144 72
f 265 72 73
f 144 705 268
f 72 144 267
f 89 90 230
f 739 389 76
f 113 114 218
f 269 886 389
f 76 389 75
f 228 32 33
f 181 182 300
f 387 388 144
f 527 744 524
f 268 741 71
f 271 66 67
f 428 213 160
f 114 115 217
f 267 268 71
f 27 214 225
f 226 215 187
f 701 145 146
f 227 31 32
f 162 273 66
f 521 522 390
f 271 162 66
f 1032 1203 1030
f 168 552 167
f 668 669 494
f 365 364 485
f 29 31 216
f 177 143 212
f 20 446 19
f 142 185 278
f 185 184 278
f 142 1 185
f 393 279 184
f 354 355 644
f 140 372 139
f 222 232 183
f 232 182 183
f 142 278 141
f 472 644 181
f 2 3 185
f 264 275 277
f 68 521 519
f 185 3 184
f 4 5 222
f 4 184 3
f 233 223 239
f 512 384 702
f 709 263 386
f 184 4 222
f 543 11 12
f 185 1 2
f 753 752 143
f 302 300 301
f 178 179 541
f 471 473 357
f 471 357 470
f 180 181 302
f 210 257 211
f 177 212 211
f 439 299 309
f 255 174 175
f 212 143 752
f 394 757 753
f 397 545 546
f 903 902 991
f 207 490 370
f 173 174 256
f 367 369 171
f 211 212 544
f 171 369 401
f 547 208 545
f 547 207 208
f 371 369 254
f 992 765 906
f 171 172 367
f 563 1093 1116
f 170 400 169
f 233 6 7
f 141 278 279
f 1202 242 238
f 127 462 126
f 303 301 234
f 233 234 223
f 470 180 179
f 233 239 6
f 438 280 437
f 1180 754 438
f 245 241 320
f 308 304 306
f 455 336 334
f 214 216 227
f 545 208 209
f 14 776 13
f 206 779 205
f 121 217 115
f 19 446 447
f 311 310 124
f 83 220 82
f 1152 555 18
f 303 307 299
f 555 17 18
f 477 478 156
f 548 776 549
f 600 298 602
f 231 242 79
f 245 22 23
f 22 245 320
f 317 243 235
f 372 258 468
f 317 318 240
f 211 257 176
f 487 158 157
f 235 23 24
f 82 1136 81
f 26 27 225
f 216 28 29
f 183 182 373
f 870 378 1173
f 28 216 214
f 274 264 276
f 228 227 32
f 372 279 258
f 31 227 216
f 29 30 31
f 534 536 530
f 148 502 503
f 214 27 28
f 511 512 701
f 320 322 21
f 164 508 163
f 779 780 205
f 783 204 203
f 1137 443 214
f 169 400 403
f 782 553 402
f 780 204 205
f 203 202 564
f 403 168 169
f 166 165 677
f 690 200 199
f 200 689 201
f 780 915 204
f 675 500 674
f 505 164 165
f 195 196 569
f 796 198 199
f 509 689 690
f 412 572 573
f 610 938 453
f 413 195 194
f 195 567 194
f 567 410 409
f 572 197 196
f 319 329 330
f 408 685 683
f 784 201 202
f 193 416 418
f 186 187 215
f 274 65 273
f 276 65 274
f 159 428 160
f 440 340 1138
f 528 529 63
f 1166 1217 1165
f 218 123 229
f 64 528 63
f 239 223 232
f 1184 59 60
f 802 573 800
f 194 567 568
f 289 417 191
f 90 315 230
f 575 58 59
f 784 554 925
f 55 56 419
f 57 415 577
f 605 442 313
f 292 191 190
f 436 600 221
f 287 413 579
f 479 480 361
f 320 21 22
f 168 781 552
f 209 208 256
f 581 582 421
f 44 45 586
f 358 1155 250
f 191 192 582
f 586 423 425
f 224 245 235
f 423 45 46
f 149 150 504
f 586 587 44
f 207 370 208
f 321 329 319
f 23 235 245
f 690 692 691
f 539 528 276
f 580 42 43
f 175 176 257
f 943 939 940
f 591 597 420
f 144 388 145
f 890 708 889
f 325 327 329
f 243 244 224
f 733 721 731
f 292 54 55
f 55 419 292
f 190 191 581
f 291 53 54
f 270 391 524
f 53 293 52
f 294 51 52
f 187 294 188
f 188 294 293
f 65 276 64
f 188 189 426
f 163 274 162
f 226 187 188
f 226 47 215
f 347 346 133
f 47 48 215
f 186 48 49
f 50 51 186
f 49 50 186
f 328 244 332
f 215 48 186
f 393 184 183
f 154 155 486
f 186 51 187
f 424 295 423
f 166 676 167
f 67 68 272
f 191 292 289
f 36 1190 809
f 214 227 228
f 205 204 404
f 665 152 153
f 322 324 446
f 762 281 760
f 565 407 564
f 167 566 166
f 794 410 569
f 794 795 570
f 529 531 537
f 803 572 574
f 575 576 414
f 412 573 802
f 415 57 58
f 193 192 416
f 417 289 577
f 288 416 417
f 585 192 193
f 935 41 42
f 190 189 291
f 291 189 293
f 190 291 292
f 292 291 54
f 291 293 53
f 189 188 293
f 51 294 187
f 293 294 52
f 581 427 598
f 580 805 590
f 429 159 158
f 430 433 296
f 311 312 441
f 297 461 339
f 602 92 93
f 298 600 436
f 299 301 303
f 307 309 299
f 232 300 182
f 301 300 223
f 234 301 223
f 302 301 299
f 302 299 439
f 181 300 302
f 304 234 8
f 305 437 309
f 306 9 10
f 234 304 303
f 9 306 304
f 754 987 897
f 306 898 754
f 305 307 308
f 308 307 303
f 309 307 305
f 304 308 303
f 308 306 1180
f 439 1151 394
f 180 439 179
f 311 124 125
f 219 229 310
f 125 440 311
f 219 310 311
f 126 440 125
f 461 246 339
f 36 37 812
f 605 236 442
f 333 314 607
f 318 444 451
f 90 91 315
f 298 315 91
f 94 603 445
f 718 719 720
f 318 317 25
f 243 317 240
f 26 225 318
f 225 443 444
f 319 322 321
f 321 241 325
f 321 320 241
f 320 321 322
f 325 241 326
f 328 326 224
f 322 319 324
f 20 21 322
f 328 323 326
f 336 338 323
f 448 319 330
f 19 447 18
f 326 241 224
f 325 323 327
f 328 224 244
f 323 325 326
f 335 336 328
f 1167 410 570
f 244 333 332
f 313 809 606
f 325 329 321
f 330 329 327
f 338 612 327
f 611 449 330
f 37 38 610
f 332 335 328
f 240 451 244
f 335 332 1203
f 236 605 607
f 332 333 1153
f 606 609 452
f 1182 930 795
f 1203 332 331
f 336 335 334
f 455 338 336
f 328 336 323
f 1030 609 1031
f 1029 411 1182
f 337 813 612
f 327 323 338
f 297 339 110
f 463 614 817
f 127 1170 639
f 973 1201 972
f 341 628 638
f 639 1220 638
f 615 616 464
f 670 153 668
f 341 620 463
f 635 637 247
f 344 248 642
f 160 344 658
f 346 132 133
f 344 345 248
f 347 133 134
f 248 345 346
f 643 349 134
f 349 350 347
f 469 136 353
f 1139 248 346
f 643 134 135
f 350 349 348
f 348 1140 350
f 650 1142 1155
f 138 139 468
f 1144 356 249
f 355 352 493
f 249 351 354
f 180 470 472
f 136 469 135
f 468 351 138
f 355 354 352
f 258 373 493
f 181 180 472
f 249 356 351
f 136 356 353
f 474 1154 178
f 356 1144 353
f 176 647 177
f 1154 1216 471
f 651 176 175
f 361 480 659
f 852 853 657
f 852 854 478
f 480 158 159
f 361 659 1145
f 663 664 483
f 1172 169 674
f 664 857 483
f 1149 381 377
f 1146 252 1147
f 484 364 1159
f 156 478 1157
f 365 854 1146
f 156 615 1160
f 630 862 830
f 368 367 172
f 369 367 254
f 489 172 173
f 667 208 370
f 254 490 371
f 401 282 400
f 254 368 370
f 368 489 667
f 491 206 205
f 492 401 369
f 279 372 140
f 468 258 352
f 493 182 355
f 393 373 258
f 103 641 837
f 818 464 616
f 148 513 514
f 706 885 884
f 102 1191 1192
f 1118 1128 1099
f 152 665 1162
f 377 499 867
f 377 867 869
f 859 362 857
f 523 525 164
f 877 681 879
f 981 976 875
f 877 879 503
f 504 498 381
f 381 1149 1150
f 506 165 166
f 277 507 261
f 700 199 198
f 62 63 529
f 148 503 1163
f 741 704 522
f 717 891 716
f 884 885 514
f 517 145 388
f 386 263 891
f 72 265 387
f 388 387 265
f 707 388 265
f 517 386 515
f 739 77 518
f 727 728 887
f 69 740 522
f 270 519 520
f 742 270 520
f 525 1175 164
f 531 534 530
f 531 529 392
f 373 393 183
f 258 279 393
f 541 439 394
f 542 756 755
f 13 776 777
f 546 760 397
f 756 280 758
f 909 777 548
f 546 209 210
f 763 397 760
f 927 787 926
f 555 556 17
f 928 558 562
f 1114 1121 561
f 401 400 170
f 403 400 782
f 171 401 170
f 369 371 492
f 282 404 553
f 880 402 553
f 782 400 282
f 403 402 781
f 404 783 553
f 404 492 491
f 554 784 785
f 450 449 788
f 764 766 768
f 556 927 17
f 565 202 201
f 783 407 1181
f 687 261 682
f 682 382 506
f 1232 596 1068
f 582 422 583
f 794 196 197
f 410 285 1066
f 813 454 612
f 337 455 457
f 196 195 573
f 695 538 694
f 194 193 418
f 800 801 802
f 413 194 579
f 415 288 577
f 575 415 58
f 578 415 414
f 417 416 192
f 418 416 288
f 191 417 192
f 419 577 289
f 288 415 578
f 418 579 194
f 577 419 56
f 292 419 289
f 290 593 591
f 580 935 42
f 589 584 588
f 426 189 598
f 568 193 194
f 596 594 422
f 424 423 46
f 425 423 295
f 47 424 46
f 226 188 426
f 589 295 427
f 584 806 583
f 189 190 598
f 424 426 295
f 583 806 421
f 295 426 427
f 429 428 159
f 213 428 296
f 158 487 431
f 430 429 431
f 433 430 1201
f 296 429 430
f 158 431 429
f 431 366 862
f 629 624 631
f 129 1223 1221
f 1201 430 253
f 1222 1223 432
f 129 130 434
f 599 434 130
f 435 602 445
f 719 892 316
f 231 436 221
f 315 436 237
f 438 437 305
f 1151 437 280
f 1180 306 754
f 438 759 758
f 439 180 302
f 439 309 1151
f 440 126 462
f 311 440 312
f 311 441 219
f 461 441 312
f 33 442 236
f 34 313 442
f 1137 214 228
f 443 314 444
f 314 333 444
f 451 333 244
f 603 94 95
f 604 445 316
f 322 446 20
f 447 446 324
f 450 447 324
f 447 450 1152
f 449 448 330
f 450 283 1152
f 611 330 814
f 1094 1114 1125
f 324 448 450
f 449 450 448
f 318 451 240
f 444 333 451
f 452 605 606
f 332 1153 331
f 38 949 610
f 285 410 1167
f 457 459 337
f 921 919 920
f 1033 1204 1032
f 337 338 455
f 1076 946 1025
f 813 459 460
f 1204 455 334
f 456 1038 459
f 942 453 938
f 1029 571 799
f 456 459 457
f 459 458 460
f 458 815 460
f 929 454 1004
f 441 461 297
f 1138 461 312
f 639 462 127
f 440 462 340
f 108 109 614
f 341 465 620
f 616 155 154
f 861 860 488
f 247 343 617
f 343 618 617
f 624 634 247
f 1191 102 103
f 642 248 848
f 649 656 359
f 372 468 139
f 354 468 352
f 1144 645 353
f 348 643 469
f 471 470 179
f 472 470 357
f 1154 179 178
f 250 1141 1216
f 357 249 472
f 644 472 249
f 645 473 1141
f 473 645 1144
f 1156 474 143
f 1154 474 358
f 648 650 475
f 646 1156 143
f 849 175 174
f 173 661 662
f 477 157 479
f 478 477 360
f 478 360 852
f 1157 365 486
f 480 479 158
f 477 479 361
f 159 160 658
f 659 251 1145
f 855 856 1199
f 476 652 654
f 482 856 855
f 855 655 662
f 664 171 170
f 483 857 1158
f 665 485 484
f 868 867 499
f 485 154 486
f 484 485 364
f 1157 486 155
f 485 486 365
f 488 487 157
f 431 487 366
f 1160 157 156
f 861 666 860
f 667 256 208
f 172 489 368
f 370 490 254
f 206 490 207
f 205 404 491
f 492 404 282
f 401 492 282
f 371 491 492
f 258 493 352
f 182 493 373
f 669 152 151
f 866 670 494
f 495 865 864
f 863 494 669
f 148 514 1164
f 496 885 1161
f 1224 497 101
f 1134 497 376
f 499 498 151
f 381 498 377
f 1162 151 152
f 868 673 867
f 675 168 167
f 1172 500 1173
f 501 678 680
f 870 500 675
f 502 149 504
f 503 502 380
f 503 380 877
f 1163 384 511
f 498 504 150
f 502 504 381
f 506 505 165
f 508 505 382
f 566 506 166
f 682 261 507
f 508 277 275
f 682 507 382
f 277 508 507
f 163 508 275
f 691 693 509
f 791 407 565
f 803 198 197
f 697 538 695
f 1163 511 147
f 512 511 384
f 702 384 262
f 705 512 704
f 513 147 515
f 514 513 385
f 514 385 884
f 1164 496 672
f 517 515 146
f 513 515 386
f 890 983 982
f 709 711 263
f 388 707 710
f 386 517 709
f 1202 77 78
f 238 601 892
f 68 519 272
f 520 519 390
f 881 520 390
f 978 875 680
f 522 521 69
f 519 521 390
f 741 740 70
f 704 702 703
f 524 523 163
f 525 523 391
f 527 163 162
f 272 270 744
f 1177 1176 525
f 1175 1176 679
f 742 391 270
f 526 742 743
f 744 271 272
f 163 527 524
f 276 528 64
f 529 528 392
f 532 534 392
f 537 62 529
f 536 535 751
f 62 1165 61
f 540 392 539
f 1225 537 530
f 277 261 745
f 692 694 383
f 533 537 1225
f 286 801 1186
f 392 534 531
f 746 536 532
f 535 536 746
f 685 687 683
f 532 536 534
f 751 535 750
f 530 537 531
f 537 533 1165
f 510 574 695
f 536 538 699
f 540 539 264
f 528 539 392
f 277 540 264
f 392 540 532
f 439 541 179
f 753 541 394
f 757 280 756
f 752 755 544
f 910 13 777
f 543 911 897
f 544 212 752
f 396 903 544
f 546 545 209
f 547 545 397
f 902 761 546
f 763 760 281
f 763 547 397
f 207 992 206
f 775 1226 774
f 777 911 910
f 926 15 16
f 778 549 398
f 992 547 765
f 912 780 550
f 913 551 914
f 554 785 917
f 552 880 688
f 552 688 566
f 404 204 783
f 880 686 688
f 202 203 916
f 1005 405 1006
f 1152 18 447
f 556 555 406
f 556 406 558
f 787 560 1115
f 559 558 406
f 559 283 788
f 406 1152 559
f 562 558 557
f 283 450 788
f 558 559 1121
f 560 562 563
f 398 549 787
f 449 611 1002
f 1002 789 449
f 562 557 1113
f 562 560 928
f 1123 1125 1122
f 547 763 765
f 565 564 202
f 783 564 407
f 689 565 201
f 693 792 509
f 552 566 167
f 566 408 683
f 567 195 569
f 568 567 409
f 1066 285 1064
f 568 422 585
f 569 196 794
f 567 569 410
f 795 197 198
f 1167 570 1218
f 932 200 786
f 200 201 925
f 573 572 196
f 574 572 412
f 195 413 573
f 287 800 413
f 1178 286 698
f 700 574 510
f 576 575 59
f 415 575 414
f 1184 1217 1185
f 414 576 1183
f 57 577 56
f 288 417 577
f 287 578 414
f 288 578 418
f 418 578 579
f 287 579 578
f 44 587 805
f 936 935 580
f 582 581 191
f 427 581 421
f 585 582 192
f 583 422 290
f 584 583 290
f 421 582 583
f 590 584 591
f 805 588 590
f 568 585 193
f 582 585 422
f 423 586 45
f 587 586 425
f 588 587 425
f 43 805 580
f 589 588 425
f 590 588 584
f 295 589 425
f 427 421 806
f 591 584 290
f 580 590 420
f 593 290 594
f 420 590 591
f 1231 592 1232
f 593 597 591
f 594 290 422
f 593 592 595
f 596 422 568
f 593 594 807
f 285 931 1062
f 1212 936 595
f 1068 568 409
f 593 807 592
f 593 595 597
f 420 597 595
f 581 598 190
f 426 598 427
f 130 213 599
f 296 599 213
f 602 298 92
f 601 600 435
f 601 435 604
f 238 221 601
f 445 602 93
f 600 602 435
f 726 603 729
f 732 731 726
f 604 316 892
f 435 445 604
f 606 605 313
f 607 605 452
f 313 35 809
f 609 331 1153
f 333 607 452
f 607 314 1137
f 812 37 610
f 1189 609 606
f 609 1189 810
f 1030 331 609
f 949 39 811
f 950 951 952
f 814 327 612
f 789 561 788
f 337 612 338
f 814 454 611
f 798 1010 1012
f 561 789 1003
f 339 246 816
f 463 817 341
f 616 615 155
f 1160 615 464
f 670 154 153
f 342 464 818
f 618 343 106
f 619 617 465
f 107 618 106
f 465 617 618
f 619 465 621
f 634 635 247
f 465 618 620
f 107 620 618
f 625 621 341
f 832 629 974
f 631 625 632
f 366 488 860
f 625 638 623
f 1222 633 1219
f 631 619 621
f 627 955 831
f 817 614 816
f 629 622 624
f 625 623 632
f 623 1219 1048
f 342 820 824
f 828 627 831
f 1138 1168 246
f 639 638 628
f 631 624 619
f 1048 974 626
f 366 860 862
f 832 630 830
f 625 631 621
f 629 631 626
f 633 1048 1219
f 631 632 626
f 633 1201 973
f 973 974 633
f 955 624 622
f 635 634 627
f 636 635 627
f 635 466 637
f 820 342 818
f 836 833 636
f 637 466 640
f 247 637 343
f 341 638 625
f 628 1168 639
f 462 639 340
f 127 128 1170
f 641 640 466
f 104 105 640
f 636 833 466
f 641 466 833
f 248 1139 848
f 660 658 1171
f 349 643 348
f 135 469 643
f 354 644 249
f 181 644 355
f 1141 250 1140
f 348 469 645
f 647 646 177
f 475 1155 1156
f 649 176 651
f 649 359 648
f 650 648 359
f 475 647 648
f 176 649 647
f 649 476 656
f 966 967 359
f 1143 1142 958
f 652 651 175
f 649 651 476
f 174 173 662
f 655 653 654
f 853 962 964
f 660 467 970
f 655 654 652
f 654 653 656
f 849 655 652
f 655 481 961
f 959 656 653
f 968 967 851
f 360 1145 853
f 657 853 964
f 344 642 658
f 1171 467 660
f 480 660 659
f 660 970 1042
f 658 660 480
f 851 970 467
f 661 172 663
f 662 661 482
f 855 662 482
f 662 655 849
f 664 663 171
f 661 663 483
f 170 169 1172
f 1158 857 362
f 485 665 153
f 1162 665 484
f 824 826 342
f 862 253 431
f 368 667 370
f 256 667 489
f 669 668 152
f 670 668 494
f 671 669 151
f 494 863 374
f 866 494 374
f 616 154 670
f 671 150 672
f 669 671 495
f 1164 672 149
f 671 672 496
f 1100 980 1083
f 870 871 378
f 675 674 168
f 1172 674 500
f 676 675 167
f 871 872 680
f 677 676 166
f 675 676 501
f 165 164 1175
f 678 677 679
f 680 678 379
f 501 677 678
f 677 165 1175
f 679 1176 986
f 896 379 986
f 260 1149 869
f 380 1150 878
f 896 526 743
f 683 506 566
f 683 682 506
f 684 685 686
f 682 683 687
f 284 407 791
f 535 746 747
f 686 685 408
f 685 684 687
f 688 686 408
f 686 284 793
f 684 693 749
f 748 746 745
f 566 688 408
f 880 552 402
f 690 689 200
f 565 689 509
f 692 199 700
f 692 383 691
f 693 691 383
f 509 690 691
f 199 692 690
f 692 510 694
f 535 747 750
f 684 686 793
f 695 694 510
f 694 538 751
f 1178 574 412
f 696 699 697
f 696 697 698
f 1185 1186 801
f 698 697 695
f 696 1225 699
f 1178 695 574
f 698 286 1188
f 536 699 530
f 538 697 699
f 700 198 803
f 692 700 510
f 511 701 146
f 705 701 512
f 703 702 262
f 704 512 702
f 743 520 882
f 703 881 522
f 522 704 703
f 705 704 266
f 268 705 266
f 701 705 145
f 716 263 713
f 1087 1105 1215
f 73 983 1053
f 710 709 517
f 890 516 707
f 888 75 389
f 517 388 710
f 709 710 711
f 707 516 710
f 516 1179 710
f 712 713 714
f 727 269 720
f 736 1109 735
f 263 711 713
f 714 711 1179
f 712 715 716
f 889 708 887
f 722 724 727
f 1105 1087 1103
f 844 1049 847
f 712 716 713
f 1103 717 715
f 884 717 706
f 891 717 385
f 739 718 389
f 719 718 518
f 719 984 892
f 725 726 723
f 719 723 722
f 719 722 720
f 723 726 721
f 738 895 737
f 723 719 316
f 724 722 721
f 725 723 316
f 721 722 723
f 726 731 721
f 724 728 727
f 445 725 316
f 725 603 726
f 729 603 95
f 731 732 730
f 722 727 720
f 733 735 737
f 889 714 516
f 708 886 887
f 95 96 729
f 732 893 1193
f 1129 1130 1131
f 733 737 724
f 732 726 729
f 733 731 730
f 96 893 729
f 732 729 893
f 735 733 730
f 721 733 724
f 985 732 894
f 714 895 738
f 736 735 730
f 735 734 737
f 1129 99 1118
f 100 1134 99
f 737 734 738
f 728 724 737
f 1108 738 734
f 712 714 738
f 77 739 76
f 718 739 518
f 69 70 740
f 71 741 70
f 704 741 266
f 522 740 741
f 743 742 520
f 526 1176 1177
f 520 881 882
f 882 262 883
f 524 744 270
f 271 744 527
f 747 748 687
f 540 745 532
f 532 745 746
f 745 261 748
f 687 749 747
f 750 383 751
f 687 748 261
f 746 748 747
f 684 749 687
f 750 749 693
f 749 750 747
f 693 383 750
f 694 751 383
f 751 538 536
f 753 143 178
f 752 542 755
f 753 178 541
f 542 752 753
f 897 899 754
f 306 10 898
f 542 757 756
f 396 544 755
f 758 280 438
f 396 755 756
f 753 757 542
f 757 394 1151
f 759 438 899
f 756 758 900
f 778 1226 775
f 756 900 396
f 902 546 210
f 761 760 546
f 900 759 1229
f 760 761 762
f 1227 761 903
f 770 768 767
f 766 763 281
f 766 765 763
f 768 281 907
f 764 1194 1088
f 764 904 765
f 904 399 906
f 907 281 762
f 765 766 764
f 774 771 772
f 1093 769 1095
f 281 768 766
f 770 772 769
f 1088 904 764
f 770 1194 768
f 772 770 767
f 1092 1194 769
f 907 908 767
f 1095 771 1096
f 767 908 774
f 772 771 1095
f 762 1227 1228
f 988 901 759
f 767 774 772
f 774 773 775
f 901 988 990
f 775 548 778
f 549 776 14
f 777 776 548
f 548 775 909
f 12 910 543
f 778 398 1226
f 548 549 778
f 992 779 206
f 780 779 550
f 912 550 399
f 780 914 915
f 403 781 168
f 402 552 781
f 403 782 402
f 282 553 782
f 564 783 203
f 1181 407 284
f 784 202 916
f 925 554 786
f 785 916 915
f 554 917 405
f 922 924 405
f 797 571 796
f 926 549 15
f 787 927 928
f 789 788 449
f 559 788 561
f 929 1002 454
f 1003 789 1002
f 919 994 922
f 922 917 918
f 792 791 565
f 284 791 793
f 509 792 565
f 793 693 684
f 791 792 793
f 693 793 792
f 795 794 197
f 794 570 410
f 796 795 198
f 1182 795 571
f 797 796 199
f 795 796 571
f 200 797 199
f 932 786 933
f 571 797 799
f 799 797 932
f 797 200 932
f 799 798 934
f 800 287 801
f 573 413 800
f 287 414 1183
f 60 61 1217
f 801 286 802
f 412 802 286
f 572 803 197
f 700 803 574
f 945 939 943
f 1196 1197 1211
f 44 805 43
f 805 587 588
f 584 589 806
f 427 806 589
f 594 596 807
f 1066 1068 409
f 1022 1021 931
f 938 811 940
f 36 809 35
f 809 608 1189
f 1190 952 608
f 948 1037 1075
f 39 1196 1195
f 1212 1213 804
f 950 610 453
f 809 1190 608
f 459 813 337
f 454 813 460
f 327 814 330
f 454 814 612
f 815 458 1074
f 1058 999 1000
f 816 246 1168
f 614 339 816
f 816 628 817
f 628 341 817
f 954 616 670
f 616 954 818
f 822 825 828
f 818 819 820
f 820 819 823
f 820 825 824
f 827 823 819
f 845 834 842
f 831 955 829
f 826 666 342
f 866 819 954
f 824 825 822
f 825 820 823
f 824 822 826
f 823 821 825
f 841 828 825
f 822 829 826
f 832 829 622
f 374 1086 827
f 821 823 827
f 841 821 838
f 636 627 828
f 831 829 822
f 832 830 829
f 666 826 830
f 829 830 826
f 828 831 822
f 627 634 955
f 622 629 832
f 974 629 626
f 641 833 837
f 834 836 838
f 834 838 842
f 1224 101 1192
f 837 836 839
f 834 840 839
f 838 836 636
f 839 836 834
f 836 837 833
f 837 835 1191
f 841 636 828
f 838 821 842
f 842 1205 845
f 837 839 835
f 259 1224 956
f 835 839 840
f 821 841 825
f 636 841 838
f 843 821 827
f 821 843 842
f 1085 863 864
f 834 845 846
f 864 865 1084
f 956 847 259
f 1205 842 843
f 846 845 844
f 846 844 847
f 834 846 840
f 1050 844 1205
f 1051 375 1087
f 848 350 1143
f 642 848 969
f 175 849 652
f 662 849 174
f 964 960 965
f 1042 659 660
f 359 656 966
f 966 959 851
f 853 852 360
f 1047 854 657
f 960 962 850
f 960 850 959
f 1146 854 252
f 854 365 1157
f 482 1158 856
f 655 855 481
f 362 1043 1045
f 963 1200 1047
f 1172 1173 1174
f 857 664 1174
f 876 980 378
f 1174 859 857
f 980 858 1173
f 1045 971 1046
f 488 1160 861
f 862 860 666
f 464 342 861
f 666 861 342
f 830 862 666
f 630 972 862
f 495 864 669
f 863 669 864
f 495 1161 865
f 975 1049 1050
f 975 1102 1051
f 975 1050 1084
f 374 827 866
f 819 866 827
f 499 1162 868
f 869 867 673
f 1159 868 484
f 868 363 1082
f 871 874 876
f 260 869 976
f 872 675 501
f 870 872 871
f 680 874 871
f 876 378 871
f 675 872 870
f 680 872 501
f 874 875 873
f 977 869 673
f 875 874 680
f 876 874 873
f 978 680 379
f 878 681 877
f 977 873 976
f 971 1148 1147
f 878 877 380
f 681 262 879
f 260 981 878
f 978 979 875
f 262 384 879
f 879 384 1163
f 1181 553 783
f 686 880 284
f 522 881 390
f 881 703 882
f 703 262 882
f 883 262 681
f 979 1052 878
f 743 882 883
f 717 884 385
f 706 375 885
f 1161 885 375
f 885 496 1164
f 887 886 269
f 886 708 888
f 727 887 269
f 887 728 889
f 982 888 708
f 74 75 888
f 889 728 895
f 890 889 516
f 1053 707 265
f 983 74 982
f 386 891 385
f 716 891 263
f 892 601 604
f 984 719 518
f 97 1193 96
f 732 1193 894
f 1131 97 98
f 732 985 730
f 889 895 714
f 737 895 728
f 743 883 896
f 681 1052 883
f 899 897 395
f 987 754 898
f 10 11 898
f 987 898 11
f 754 899 438
f 395 759 899
f 758 759 900
f 1229 759 901
f 988 759 395
f 1228 773 908
f 210 211 902
f 991 902 211
f 1227 903 396
f 902 903 761
f 768 1194 764
f 906 399 550
f 1092 1093 1090
f 1056 998 997
f 550 779 992
f 765 904 906
f 908 907 762
f 768 907 767
f 762 761 1227
f 908 773 774
f 990 988 989
f 911 543 910
f 13 910 12
f 911 777 909
f 989 911 909
f 911 395 897
f 913 912 399
f 915 914 551
f 1054 1055 993
f 995 999 996
f 780 912 914
f 913 914 912
f 915 551 918
f 204 915 203
f 915 916 203
f 784 916 785
f 785 918 917
f 918 920 922
f 915 918 785
f 918 551 920
f 551 921 920
f 1008 923 1009
f 921 551 913
f 922 920 919
f 913 399 1055
f 921 913 1054
f 994 924 922
f 917 922 405
f 923 994 996
f 790 1000 999
f 1009 1001 1008
f 798 799 1028
f 784 925 201
f 786 200 925
f 927 926 16
f 549 926 787
f 17 927 16
f 558 928 556
f 787 928 560
f 556 928 927
f 1004 454 460
f 815 1059 1004
f 411 931 1218
f 570 795 930
f 934 1013 1015
f 942 939 1039
f 786 1005 933
f 799 932 1028
f 1006 933 1005
f 924 1007 1006
f 1011 1012 1001
f 815 1074 1071
f 936 580 420
f 935 804 1198
f 595 936 420
f 804 935 936
f 812 950 952
f 1204 457 455
f 949 938 610
f 811 1195 943
f 1232 592 807
f 940 942 938
f 811 39 1195
f 940 939 942
f 40 1197 1196
f 1207 1209 1212
f 945 947 939
f 1036 1038 1035
f 811 943 940
f 941 1210 945
f 1207 592 1231
f 1067 808 1064
f 941 945 943
f 1214 947 945
f 1015 411 934
f 948 1039 947
f 1214 945 944
f 947 946 948
f 1025 1016 1020
f 937 1230 1035
f 39 949 38
f 938 949 811
f 950 453 951
f 812 610 950
f 1040 453 942
f 951 1230 1031
f 951 810 952
f 952 810 1189
f 1024 1026 1027
f 1022 931 411
f 866 954 670
f 818 954 819
f 624 955 634
f 829 955 622
f 1224 259 376
f 846 956 840
f 1106 1103 715
f 259 847 1041
f 848 1143 958
f 650 967 958
f 960 959 653
f 851 959 850
f 961 960 653
f 962 251 1042
f 655 961 653
f 1199 965 481
f 964 962 960
f 853 251 962
f 1199 963 965
f 1046 1200 1045
f 965 960 961
f 657 964 963
f 481 965 961
f 963 964 965
f 959 966 656
f 967 966 851
f 851 467 968
f 359 967 650
f 969 968 467
f 958 967 968
f 642 969 467
f 958 969 848
f 851 850 970
f 1042 970 850
f 971 1043 1044
f 363 1159 1147
f 973 972 630
f 253 862 972
f 974 973 630
f 633 432 1201
f 832 974 630
f 626 632 1048
f 1051 865 375
f 1049 1079 1041
f 977 976 869
f 875 976 873
f 1082 1044 1081
f 876 873 977
f 379 896 978
f 979 878 981
f 978 896 979
f 896 883 1052
f 1083 1101 1081
f 673 1081 977
f 976 981 260
f 979 981 875
f 888 982 74
f 708 890 982
f 890 707 1053
f 74 983 73
f 1202 518 77
f 238 892 984
f 894 736 985
f 736 730 985
f 679 986 379
f 526 896 986
f 11 543 987
f 897 987 543
f 989 395 911
f 909 990 989
f 990 909 775
f 395 989 988
f 775 773 990
f 901 990 773
f 211 544 991
f 903 991 544
f 547 992 207
f 550 992 906
f 1093 1057 1090
f 1089 1091 998
f 997 996 994
f 923 924 994
f 998 1056 1054
f 997 998 995
f 997 994 919
f 995 1123 999
f 1056 919 921
f 995 996 997
f 993 1089 998
f 1124 998 1091
f 1000 790 929
f 996 999 1058
f 1000 929 1004
f 613 1060 1009
f 1071 1072 1073
f 1028 1007 1010
f 454 1002 611
f 1003 1002 929
f 929 790 1003
f 1003 790 1122
f 460 815 1004
f 815 613 1059
f 786 554 1005
f 405 1005 554
f 405 924 1006
f 923 1008 924
f 1010 1007 1001
f 933 1006 1007
f 1001 1007 1008
f 924 1008 1007
f 1058 923 996
f 613 1206 1059
f 1011 1001 1060
f 1010 798 1028
f 934 1012 1013
f 1012 934 798
f 1001 1012 1010
f 1012 1011 1013
f 1014 1011 1072
f 1013 1011 1014
f 1023 1017 1019
f 1017 1014 953
f 1023 1013 1014
f 411 1015 1022
f 1017 1020 1016
f 1097 1021 1016
f 1020 1017 1024
f 1019 1017 1016
f 1018 1020 1024
f 1037 1077 1036
f 1019 1016 1021
f 1023 1019 1015
f 1024 1017 953
f 1025 1020 1018
f 1016 1098 1097
f 931 1021 1062
f 1015 1019 1022
f 1021 1022 1019
f 1013 1023 1015
f 1017 1023 1014
f 953 1026 1024
f 1027 1018 1024
f 1077 1076 1018
f 1025 946 1098
f 1026 953 1071
f 456 1035 1038
f 1026 1074 1078
f 1035 456 1033
f 932 933 1028
f 1028 933 1007
f 799 934 1029
f 411 1029 934
f 1031 609 810
f 1032 1030 937
f 951 1031 810
f 937 1030 1031
f 1033 1032 937
f 334 335 1203
f 1031 1230 937
f 1204 456 457
f 1040 951 453
f 1018 1027 1077
f 937 1035 1033
f 1036 1035 1034
f 1036 1034 1037
f 1036 1027 1038
f 1034 1040 1075
f 1037 948 1076
f 1078 1027 1026
f 1038 1078 459
f 947 1039 939
f 1075 1039 948
f 942 1039 1075
f 1230 1040 1034
f 1041 847 1049
f 1099 1041 1117
f 962 1042 850
f 659 1042 251
f 1044 1043 859
f 1045 1043 971
f 1100 859 858
f 977 1101 876
f 1147 1046 971
f 362 1045 856
f 1047 1046 252
f 963 1199 1200
f 854 1047 252
f 963 1047 657
f 623 1048 632
f 633 974 1048
f 1050 1049 844
f 1049 975 1079
f 1085 1050 1086
f 1085 864 1084
f 1087 375 706
f 1051 1215 1079
f 878 1052 681
f 896 1052 979
f 73 1053 265
f 890 1053 983
f 1055 1054 913
f 998 1054 993
f 1088 399 904
f 905 993 1055
f 919 1056 997
f 1054 1056 921
f 1057 1089 1090
f 1112 1113 1094
f 1206 1058 1000
f 1009 923 1058
f 1206 613 1009
f 1004 1059 1206
f 1060 613 1073
f 1001 1009 1060
f 1070 1065 1069
f 1021 1063 1062
f 1021 1097 1063
f 1066 1064 808
f 1063 1069 1067
f 1231 1067 1065
f 285 1062 1064
f 1063 1064 1062
f 1061 1070 1069
f 592 1207 595
f 1068 1066 808
f 1066 409 410
f 1064 1063 1067
f 1069 1063 1061
f 1068 808 1232
f 1068 596 568
f 1061 1098 1070
f 1065 1067 1069
f 1214 946 947
f 1214 1208 1070
f 953 1014 1072
f 815 1071 613
f 1073 1072 1011
f 953 1072 1071
f 1060 1073 1011
f 613 1071 1073
f 1078 1074 458
f 1071 1074 1026
f 1034 1075 1037
f 1040 942 1075
f 946 1076 948
f 1018 1076 1025
f 1036 1077 1027
f 1076 1077 1037
f 459 1078 458
f 1027 1078 1038
f 1051 1079 975
f 957 1041 1079
f 1127 1119 1104
f 1126 1080 1117
f 1082 1081 673
f 1083 1081 1044
f 868 1082 673
f 1044 1082 363
f 1100 1044 859
f 1101 980 876
f 865 1051 1102
f 1085 1084 1050
f 1050 1205 1086
f 1085 374 863
f 827 1086 843
f 374 1085 1086
f 1103 706 717
f 1087 706 1103
f 905 1055 1088
f 399 1088 1055
f 1090 1089 993
f 1091 1089 1057
f 993 905 1090
f 1092 1090 905
f 1057 1094 1091
f 1114 1094 557
f 1194 1092 905
f 1093 1092 769
f 769 772 1095
f 1093 563 1112
f 1112 1094 1057
f 557 1121 1114
f 1226 1096 771
f 1093 1095 1116
f 1115 398 787
f 1116 560 563
f 1098 1016 1025
f 1063 1097 1061
f 1070 1098 946
f 1097 1098 1061
f 1117 1041 957
f 1099 1080 1118
f 980 1100 858
f 1044 1100 1083
f 1081 1101 977
f 980 1101 1083
f 975 1084 1102
f 865 1102 1084
f 715 1107 1106
f 1106 1105 1103
f 1107 1111 1104
f 1111 1110 1104
f 1119 1105 1104
f 1215 1105 957
f 1107 715 712
f 1105 1106 1104
f 1108 1107 712
f 1104 1106 1107
f 738 1108 712
f 1109 1108 734
f 735 1109 734
f 1109 736 1110
f 1135 1110 736
f 1117 1080 1099
f 1108 1111 1107
f 1110 1111 1109
f 1093 1112 1057
f 1113 1112 563
f 562 1113 563
f 557 1094 1113
f 561 1122 1114
f 1123 1122 790
f 1116 1115 560
f 398 1115 1096
f 1095 1096 1116
f 1116 1096 1115
f 1119 957 1105
f 1119 1127 1117
f 1118 1080 1129
f 497 1134 100
f 1127 1104 1110
f 1117 957 1119
f 894 1133 736
f 98 1132 1131
f 558 1121 557
f 561 1121 559
f 1003 1122 561
f 790 999 1123
f 995 1124 1123
f 1123 1124 1125
f 998 1124 995
f 1125 1124 1091
f 1094 1125 1091
f 1122 1125 1114
f 1135 1126 1110
f 1130 1126 1120
f 1110 1126 1127
f 1117 1127 1126
f 376 259 1128
f 1099 1128 259
f 1130 1129 1080
f 98 99 1132
f 1126 1130 1080
f 1130 1120 1131
f 1120 1133 1131
f 1131 1133 97
f 99 1129 1132
f 1131 1132 1129
f 1133 1120 1135
f 97 1133 894
f 99 1134 1118
f 1128 1134 376
f 1133 1135 736
f 1126 1135 1120
f 237 1136 230
f 220 1136 82
f 607 1137 236
f 443 1137 314
f 461 1138 246
f 440 1138 312
f 347 350 1139
f 848 1139 350
f 1141 348 645
f 1140 250 1142
f 1141 473 1216
f 348 1141 1140
f 1155 1142 250
f 958 1142 650
f 350 1140 1143
f 1142 1143 1140
f 249 357 1144
f 473 1144 357
f 853 1145 251
f 360 361 1145
f 252 1046 1147
f 364 365 1146
f 971 1044 1148
f 364 1146 1147
f 1044 363 1148
f 363 1147 1148
f 869 1149 377
f 1150 1149 260
f 878 1150 260
f 380 381 1150
f 437 1151 309
f 757 1151 280
f 559 1152 283
f 555 1152 406
f 333 452 1153
f 609 1153 452
f 358 250 1216
f 179 1154 471
f 1156 1155 358
f 650 1155 475
f 1156 358 474
f 475 1156 646
f 156 1157 155
f 854 1157 478
f 856 1158 362
f 482 483 1158
f 1147 1159 364
f 868 1159 363
f 861 1160 464
f 157 1160 488
f 865 1161 375
f 495 496 1161
f 868 1162 484
f 151 1162 499
f 148 1163 147
f 879 1163 503
f 148 1164 149
f 885 1164 514
f 537 1165 62
f 1165 533 1187
f 696 1188 1187
f 801 287 1183
f 1218 570 930
f 285 1167 1218
f 639 1168 340
f 816 1168 628
f 1220 623 638
f 1170 1221 1169
f 1221 1170 128
f 1220 1170 1169
f 658 642 1171
f 467 1171 642
f 870 1173 500
f 170 1172 664
f 980 1173 378
f 1174 1173 858
f 1174 858 859
f 664 1172 1174
f 1176 1175 525
f 677 1175 679
f 1177 525 391
f 1176 526 986
f 391 742 1177
f 526 1177 742
f 286 1178 412
f 695 1178 698
f 710 1179 711
f 516 714 1179
f 438 305 1180
f 1180 305 308
f 284 880 1181
f 553 1181 880
f 1029 1182 571
f 930 1182 411
f 1184 1183 576
f 1185 1166 1186
f 59 1184 576
f 1184 60 1217
f 801 1183 1185
f 1184 1185 1183
f 1187 1186 1166
f 1188 1186 1187
f 1165 1187 1166
f 1187 533 1225
f 698 1188 696
f 286 1186 1188
f 809 1189 606
f 952 1189 608
f 952 1190 812
f 36 812 1190
f 837 1191 103
f 1192 1191 835
f 835 840 1192
f 1192 840 1224
f 96 1193 893
f 97 894 1193
f 769 1194 770
f 1088 1194 905
f 1196 39 40
f 943 1195 941
f 1197 40 41
f 941 1195 1196
f 41 1198 1197
f 1210 1211 1213
f 935 1198 41
f 1198 804 1213
f 855 1199 481
f 1200 1199 856
f 1045 1200 856
f 1200 1046 1047
f 433 1201 432
f 972 1201 253
f 1202 78 242
f 518 1202 984
f 1030 1203 331
f 334 1203 1032
f 1032 1204 334
f 456 1204 1033
f 845 1205 844
f 1086 1205 843
f 1058 1206 1009
f 1004 1206 1000
f 1065 1208 1207
f 1208 1209 1207
f 1070 1208 1065
f 1209 1208 944
f 1210 1209 944
f 1213 1212 1209
f 945 1210 944
f 1211 1210 941
f 1196 1211 941
f 1197 1198 1213
f 936 1212 804
f 1207 1212 595
f 1210 1213 1209
f 1213 1211 1197
f 1208 1214 944
f 946 1214 1070
f 1079 1215 957
f 1087 1215 1051
f 471 1216 473
f 358 1216 1154
f 1165 1217 61
f 1217 1166 1185
f 411 1218 930
f 285 1218 931
f 1220 1219 623
f 1222 1219 1169
f 1170 1220 639
f 1219 1220 1169
f 128 129 1221
f 129 434 1223
f 633 1222 432
f 1169 1221 1222
f 432 1223 434
f 1221 1223 1222
f 956 1224 840
f 1224 376 497
f 699 1225 530
f 1187 1225 696
f 1096 1226 398
f 774 1226 771
f 1229 396 900
f 901 773 1228
f 762 1228 908
f 901 1228 1227
f 901 1227 1229
f 396 1229 1227
f 1040 1230 951
f 1035 1230 1034
f 1067 1231 808
f 1207 1231 1065
f 1232 807 596
f 808 1231 1232
