# pattern_smooth best-fit FEM (phase 3), RMSE 6.713 mm
# params: /home/chaoyu/phd_simulation/FDM/optimisation/pattern_smooth_rm2_uniform_splineonly_sI_fol_result.json
v -0.07938931 -1.09618321 0.00000000
v -0.06994725 -1.07639693 0.01382433
v -0.05833693 -1.05216477 0.03078032
v -0.04777166 -1.03026862 0.04615255
v -0.03787511 -1.01004895 0.06034811
v -0.02600422 -0.98961304 0.07289867
v -0.01339999 -0.96811433 0.08617915
v -0.00145241 -0.94793643 0.09871951
v 0.01153498 -0.92621655 0.11230302
v 0.02891534 -0.90574848 0.12232223
v 0.04842272 -0.88327096 0.13323195
v 0.06862234 -0.86015709 0.14450843
v 0.08818739 -0.83788362 0.15542815
v 0.10765941 -0.81817587 0.16258554
v 0.12886218 -0.79809005 0.16832428
v 0.15095185 -0.77717463 0.17434707
v 0.17047445 -0.75868056 0.17971284
v 0.19770632 -0.74766810 0.17245254
v 0.22506359 -0.73662700 0.16523791
v 0.25204939 -0.72575655 0.15818751
v 0.27751454 -0.71846471 0.14575566
v 0.30396058 -0.71175192 0.13127934
v 0.32963436 -0.70527759 0.11726280
v 0.35458751 -0.69902398 0.10366419
v 0.38361345 -0.69179505 0.08786552
v 0.41281631 -0.68456352 0.07198064
v 0.43742386 -0.68129271 0.05353392
v 0.45722744 -0.67948439 0.03726393
v 0.47878658 -0.67754418 0.01955482
v 0.50259542 -0.67541985 0.00000000
v 0.49039294 -0.64682028 0.00000000
v 0.47705156 -0.61803819 0.00000000
v 0.46219909 -0.58938171 0.00000000
v 0.44711907 -0.56028611 0.00000000
v 0.43466338 -0.53625399 0.00000000
v 0.42199442 -0.50695223 0.00000000
v 0.40936106 -0.47587015 0.00000000
v 0.39826563 -0.44857187 0.00000000
v 0.38812015 -0.41671655 0.00000000
v 0.38008588 -0.38478035 0.00000000
v 0.37192372 -0.35233574 0.00000000
v 0.36496608 -0.31949785 0.00000000
v 0.35986056 -0.29113373 0.00000000
v 0.35446270 -0.26114571 0.00000000
v 0.35120710 -0.23184222 0.00000000
v 0.35003794 -0.20144447 0.00000000
v 0.34889887 -0.17182895 0.00000000
v 0.34956442 -0.13632195 0.00000000
v 0.35236641 -0.10870229 0.00000000
v 0.32951129 -0.12181867 0.00736666
v 0.30069182 -0.13826073 0.01658998
v 0.27427434 -0.15309828 0.02484954
v 0.25049583 -0.16634837 0.03224358
v 0.22522204 -0.18032131 0.04005856
v 0.19809871 -0.19484348 0.04802125
v 0.17155487 -0.20881068 0.05561014
v 0.14307073 -0.22221305 0.06265048
v 0.11690331 -0.23317528 0.06817085
v 0.08986555 -0.24443354 0.07381950
v 0.05600902 -0.25687864 0.07953437
v 0.02244038 -0.26925762 0.08520531
v -0.00981571 -0.27950076 0.08958047
v -0.04174786 -0.28888275 0.09339754
v -0.07131178 -0.29433896 0.09544173
v -0.10460505 -0.29959296 0.09731999
v -0.13905532 -0.30297432 0.09832327
v -0.17034346 -0.30472071 0.09862684
v -0.20119321 -0.30647146 0.09892846
v -0.22989991 -0.30363787 0.09743782
v -0.26256154 -0.29913655 0.09522882
v -0.29642963 -0.29432908 0.09286873
v -0.32826124 -0.28656353 0.08908717
v -0.36441552 -0.27764276 0.08475278
v -0.39772210 -0.26747238 0.07988014
v -0.42706582 -0.25578369 0.07435481
v -0.45447733 -0.24480415 0.06917691
v -0.48267717 -0.23133945 0.06278867
v -0.51050637 -0.21708694 0.05602366
v -0.53358201 -0.20522317 0.05040581
v -0.55549968 -0.19392992 0.04506910
v -0.58537491 -0.17462234 0.03591345
v -0.61309233 -0.15665986 0.02741182
v -0.63930444 -0.13965663 0.01937575
v -0.66762652 -0.12015858 0.01011213
v -0.69740458 -0.09893130 0.00000000
v -0.68323419 -0.12375813 0.00898597
v -0.66746231 -0.15139446 0.01899513
v -0.65565233 -0.17208956 0.02650009
v -0.64384967 -0.19306453 0.03403881
v -0.63298524 -0.21709061 0.04142707
v -0.62083962 -0.24394067 0.04970655
v -0.60862443 -0.27094737 0.05806322
v -0.59674029 -0.29805206 0.06624415
v -0.58795566 -0.32738792 0.07247663
v -0.57916705 -0.35681153 0.07876186
v -0.56982394 -0.38821617 0.08551000
v -0.56084966 -0.41994955 0.09197585
v -0.55466537 -0.45508351 0.09567097
v -0.54881081 -0.48861301 0.09925124
v -0.54332902 -0.52023257 0.10267813
v -0.53805763 -0.55081090 0.10604399
v -0.53763009 -0.58444570 0.10497053
v -0.53749328 -0.61665115 0.10377217
v -0.53737713 -0.64894582 0.10262003
v -0.53727997 -0.68083782 0.10152838
v -0.54157606 -0.71019775 0.09745230
v -0.55056922 -0.74019631 0.09007987
v -0.55938324 -0.76946520 0.08291876
v -0.56763829 -0.79673009 0.07626418
v -0.57610211 -0.82452885 0.06948803
v -0.58525038 -0.85441025 0.06220980
v -0.59291922 -0.87706184 0.05621254
v -0.60500997 -0.89914743 0.04724087
v -0.61755365 -0.92198655 0.03797230
v -0.63003591 -0.94464035 0.02878231
v -0.64206539 -0.96641058 0.01995053
v -0.65557687 -0.99080618 0.01005160
v -0.66931298 -1.01557252 0.00000000
v -0.65378832 -1.00172904 0.00891059
v -0.63425662 -0.98431246 0.02012103
v -0.61537016 -0.96747122 0.03096116
v -0.59281951 -0.94736254 0.04390440
v -0.56953364 -0.92659828 0.05726962
v -0.54707639 -0.90697251 0.06989819
v -0.51863661 -0.88868641 0.08159919
v -0.49374150 -0.87267951 0.09184179
v -0.46802902 -0.85669937 0.10215723
v -0.43570257 -0.85229164 0.10764478
v -0.39824196 -0.84718392 0.11400388
v -0.36556294 -0.85150689 0.11458723
v -0.33184902 -0.85765610 0.11423383
v -0.30740070 -0.87160693 0.10899450
v -0.28040147 -0.88718839 0.10311665
v -0.25362141 -0.90264343 0.09728650
v -0.23304652 -0.92119894 0.08869808
v -0.21151341 -0.94117143 0.07936965
v -0.18922525 -0.96184436 0.06971414
v -0.16777454 -0.98304747 0.05953036
v -0.14895863 -1.00713241 0.04685723
v -0.13014273 -1.03121727 0.03418410
v -0.11215323 -1.05424439 0.02206758
v -0.09406323 -1.07740018 0.00988337
v -0.12297304 -0.82465728 0.11534716
v -0.32237522 -0.31572283 0.10133761
v -0.32072303 -0.34584478 0.11252860
v -0.32054027 -0.37641654 0.12249055
v -0.32046553 -0.40727004 0.13119924
v -0.32040732 -0.43837326 0.13863001
v -0.32036839 -0.46932408 0.14455504
v -0.32030904 -0.50047240 0.14933288
v -0.32021665 -0.53166242 0.15288961
v -0.32007802 -0.56264138 0.15510886
v -0.31994835 -0.59372531 0.15618202
v -0.31980342 -0.62477953 0.15604348
v -0.31965755 -0.65581638 0.15469844
v -0.31954901 -0.68684020 0.15221610
v -0.31947113 -0.71769460 0.14851841
v -0.31945627 -0.74877128 0.14350590
v -0.31951928 -0.77986759 0.13713948
v -0.31939589 -0.81080976 0.12950520
v -0.31704072 -0.84211824 0.12027712
v -0.13168855 -0.33151328 0.11021446
v -0.12973817 -0.36145193 0.12150824
v -0.12823387 -0.39179794 0.13117612
v -0.12556257 -0.42176851 0.13907773
v -0.12271980 -0.45189344 0.14547847
v -0.12041890 -0.48242388 0.15037955
v -0.11932315 -0.51327715 0.15375805
v -0.11972272 -0.54423315 0.15547191
v -0.12133780 -0.57533087 0.15578645
v -0.12390349 -0.60637509 0.15475981
v -0.12675159 -0.63744592 0.15245822
v -0.12849837 -0.66864327 0.14890694
v -0.12895789 -0.70001010 0.14419168
v -0.12812579 -0.73111957 0.13839156
v -0.12566393 -0.76207812 0.13168857
v -0.12341949 -0.79338747 0.12394723
v -0.11604931 -0.85504448 0.10618749
v -0.10967470 -0.88564802 0.09645912
v -0.10258385 -0.91536378 0.08752736
v -0.09559929 -0.94564978 0.07679212
v -0.08860487 -0.97581642 0.06516798
v -0.08432199 -1.00654361 0.05144762
v -0.08336345 -1.03640305 0.03596497
v -0.08240726 -1.06648704 0.01836687
v 0.33188943 -0.13157667 0.00867314
v 0.31204424 -0.15518486 0.01921369
v 0.29133096 -0.17784719 0.03228111
v 0.26927124 -0.19960974 0.04563737
v 0.24665799 -0.22132284 0.06010730
v 0.22465209 -0.24319517 0.07517617
v 0.20391893 -0.26542016 0.09049860
v 0.18448200 -0.28910140 0.10644643
v 0.16623255 -0.31341809 0.12202710
v 0.14882857 -0.33875269 0.13673813
v 0.13137400 -0.36409251 0.14985510
v 0.11333291 -0.38908092 0.16078607
v 0.09563369 -0.41452284 0.16990582
v 0.07869062 -0.44070858 0.17726570
v 0.06125708 -0.46647431 0.18233245
v 0.04318488 -0.49166288 0.18474772
v 0.02418529 -0.51591898 0.18461648
v 0.00534977 -0.54022726 0.18229648
v -0.01247433 -0.56541348 0.17874461
v -0.02894266 -0.59170222 0.17417330
v -0.04508173 -0.61848019 0.16892248
v -0.06047836 -0.64576628 0.16280878
v -0.07504662 -0.67394617 0.15599593
v -0.08727212 -0.70357488 0.14937408
v -0.09585374 -0.73425289 0.14200076
v -0.10304920 -0.76531581 0.13395105
v -0.11096134 -0.79567348 0.12492833
v -0.34435754 -0.83080253 0.12252743
v 0.44643658 -0.64273055 0.04853881
v 0.33623853 -0.15364935 0.00939037
v 0.46739392 -0.65585624 0.02742217
v -0.61106325 -0.94057224 0.03811117
v -0.59378613 -0.92278893 0.04891907
v -0.55963175 -0.87554612 0.07212127
v -0.63200417 -0.17042788 0.03293779
v -0.56551709 -0.23976609 0.06093867
v -0.06173694 -1.01259010 0.05345949
v -0.05055439 -0.96146835 0.08169559
v 0.32863956 -0.65642197 0.14654380
v 0.42407782 -0.65876240 0.06897913
v 0.32572703 -0.17538919 0.01851739
v 0.46668231 -0.63399737 0.02522001
v 0.45688900 -0.61073878 0.02772842
v -0.57707390 -0.89964774 0.06037029
v -0.61823385 -0.19362149 0.04223736
v -0.55414012 -0.21846788 0.05477080
v -0.06387891 -0.98619604 0.06664982
v -0.03338629 -0.97132023 0.08108724
v -0.02507916 -0.94791508 0.09485728
v 0.33804198 -0.68203954 0.12730430
v 0.42802442 -0.58534436 0.05508883
v -0.58524221 -0.20617587 0.04850369
v -0.53066810 -0.24459766 0.06573441
v -0.04558909 -0.99268318 0.06770719
v 0.36705119 -0.65960861 0.11412268
v 0.30101583 -0.67849844 0.15852718
v -0.52881001 -0.22480014 0.05848231
v 0.34832889 -0.66535826 0.12703027
v 0.34712910 -0.63654234 0.13755257
v 0.31845643 -0.69047425 0.13745987
v -0.52176721 -0.82548307 0.09411598
v -0.48414100 -0.70324375 0.12459964
v -0.27290601 -0.84392672 0.11935513
v -0.14557770 -0.94027348 0.07759682
v -0.17630750 -0.85381064 0.11221278
v -0.26071501 -0.73323493 0.14610281
v -0.26120695 -0.63995659 0.15630838
v -0.37791168 -0.76468019 0.13622553
v -0.09216493 -0.62477566 0.15704679
v -0.11054722 -0.71488246 0.14300648
v -0.10673953 -0.68420194 0.14853791
v -0.11385397 -0.74563738 0.13668500
v -0.11668477 -1.00254092 0.04859308
v -0.48371243 -0.52559822 0.12876671
v -0.26172264 -0.48453883 0.14856838
v -0.06787094 -0.40034534 0.13832336
v -0.26170313 -0.39146437 0.12844679
v -0.37904704 -0.39233144 0.12463672
v -0.08194131 -0.34285589 0.11777957
v -0.35264636 -0.30633406 0.09716348
v -0.28797781 -0.32913377 0.10722498
v -0.31468574 -0.29902459 0.09462806
v -0.30184337 -0.31446134 0.10117456
v -0.46125054 -0.30150050 0.09110880
v -0.18379342 -0.35623038 0.11818380
v -0.15399571 -0.32235739 0.10608302
v -0.18069257 -0.32948698 0.10856964
v -0.12098635 -0.31319360 0.10312108
v -0.10574994 -0.33279494 0.11215870
v -0.10341523 -0.35824718 0.12199314
v -0.08365720 -0.31717215 0.10661951
v -0.07644173 -0.37198530 0.12884469
v -0.09418858 -1.05158113 0.02565828
v -0.10641715 -1.02974615 0.03575825
v -0.05072312 -0.85230777 0.12468606
v -0.02115981 -0.70976544 0.17429038
v -0.07200083 -0.56135638 0.16173532
v 0.19296580 -0.69709791 0.22225974
v -0.03261095 -0.48980108 0.16274324
v 0.18740732 -0.38594334 0.16183508
v 0.07511968 -0.34133665 0.13219117
v 0.11187837 -0.29436895 0.10946730
v 0.16514343 -0.25362658 0.08557225
v 0.19796503 -0.22532441 0.06733476
v 0.25922990 -0.29158990 0.09072857
v 0.24399142 -0.19657879 0.04825053
v 0.22117488 -0.21147156 0.05815751
v 0.27048462 -0.17309227 0.03408183
v 0.29283548 -0.15888953 0.02505717
v 0.31008131 -0.21758920 0.03667077
v -0.35147349 -0.79589771 0.13154553
v -0.55779150 -0.84628708 0.07703110
v -0.59366006 -0.24558900 0.05936400
v -0.05683262 -0.91664051 0.09946722
v -0.07364938 -0.95485547 0.07896696
v -0.05484734 -0.93939815 0.09057373
v -0.07605651 -0.93217603 0.08819206
v -0.03338049 -0.92416164 0.10397811
v -0.01113509 -0.92795758 0.10891983
v -0.03216663 -0.88509692 0.12153801
v 0.00061140 -0.90066047 0.12760998
v -0.03931845 -0.90473385 0.11064529
v -0.01868829 -0.90784237 0.11672938
v -0.06239928 -0.88633561 0.10914677
v -0.55970559 -0.89414959 0.06842671
v -0.53921670 -0.88648894 0.07684474
v -0.52538025 -0.85730653 0.08706526
v 0.41816539 -0.55466044 0.05833760
v 0.41075526 -0.62021473 0.08181213
v -0.60816936 -0.21820472 0.05033077
v -0.54342835 -0.29749978 0.07946860
v 0.36645949 -0.68103305 0.10575086
v 0.39387510 -0.66616507 0.09217408
v 0.25145729 -0.68068500 0.19669700
v 0.28749106 -0.69839535 0.15614101
v 0.27674642 -0.67666660 0.18093481
v 0.26363965 -0.70356439 0.17231224
v 0.28880067 -0.63525897 0.19423061
v 0.22788302 -0.70592936 0.19431279
v 0.28927676 -0.65883449 0.18155779
v 0.30754074 -0.64897354 0.17076962
v 0.25239355 -0.64207582 0.21917143
v 0.32321478 -0.63194849 0.16441011
v 0.25935059 -0.66262317 0.20227927
v 0.23082355 -0.65858978 0.22607196
v 0.33852567 -0.58811790 0.16237502
v 0.33635981 -0.61234268 0.15819720
v 0.36938875 -0.61347729 0.12180995
v 0.29521917 -0.59150951 0.20292669
v 0.31457842 -0.60932457 0.18186494
v 0.29307611 -0.61366079 0.19947993
v 0.25360975 -0.59140021 0.23616142
v 0.26639382 -0.61642850 0.21865975
v -0.54897896 -0.81750043 0.08472098
v -0.49475889 -0.84094541 0.09939868
v -0.50252856 -0.77073459 0.10987828
v -0.37775685 -0.67155510 0.14953514
v -0.51306803 -0.69893511 0.11358242
v -0.29415186 -0.82486226 0.12582955
v -0.29519407 -0.85126442 0.11747943
v -0.27842755 -0.86560539 0.11198922
v -0.25714551 -0.87798616 0.10711490
v -0.21893261 -0.88549323 0.10277011
v -0.23924273 -0.88801322 0.10252851
v -0.23356297 -0.85670138 0.11366278
v -0.16372230 -0.95789851 0.07119722
v -0.13650642 -0.97715863 0.06103640
v -0.17955183 -0.92418698 0.08653505
v -0.14461749 -0.95929663 0.06915634
v -0.11866316 -0.95844295 0.06895983
v -0.17930228 -0.94450537 0.07779663
v -0.13573456 -0.90739122 0.09026137
v -0.14601522 -0.84655738 0.11209848
v -0.18283534 -0.78079779 0.13287902
v -0.28421392 -0.70240577 0.15097528
v -0.29209557 -0.73329830 0.14654879
v -0.18365828 -0.61647144 0.15531011
v -0.26147255 -0.57783771 0.15693962
v -0.28461188 -0.60907185 0.15715846
v -0.29250479 -0.64016325 0.15628363
v -0.35469099 -0.73348388 0.14398469
v -0.11244331 -0.62298333 0.15464820
v -0.10459889 -0.64540938 0.15353060
v -0.10028438 -0.60232015 0.15695827
v -0.08274350 -0.64399787 0.15730020
v -0.07105430 -0.60491771 0.16180628
v -0.13103784 -1.01297838 0.04349498
v -0.09946369 -0.99384808 0.05508012
v -0.37819197 -0.57866201 0.15181836
v -0.37862505 -0.48558994 0.14362786
v -0.51412145 -0.53100738 0.11736858
v -0.28495512 -0.51578312 0.15231399
v -0.17819196 -0.52925332 0.15371146
v -0.18256595 -0.44310084 0.14172538
v -0.28504773 -0.45395709 0.14285878
v -0.29310135 -0.48474757 0.14807539
v -0.09945037 -0.40386370 0.13647761
v 0.02133647 -0.41897296 0.15621581
v -0.29320433 -0.39179675 0.12784893
v -0.35559185 -0.42289406 0.13347830
v -0.34767405 -0.39188075 0.12605587
v -0.33468295 -0.30280995 0.09583872
v -0.34428147 -0.33181451 0.10700817
v -0.45028853 -0.27400365 0.08170199
v -0.21987753 -0.34073581 0.11237296
v -0.15886609 -0.37808445 0.12569160
v -0.04472208 -0.32674324 0.11327357
v -0.10127778 -1.01311370 0.04523999
v -0.08522107 -0.86291110 0.11167011
v 0.01871172 -0.83601694 0.16134390
v -0.04667713 -0.79344378 0.14483625
v -0.05271762 -0.69840172 0.16019260
v 0.08498638 -0.77391777 0.19988289
v 0.01507339 -0.63618960 0.19930647
v -0.09898195 -0.56028159 0.15759504
v -0.10093605 -0.58124085 0.15739967
v -0.08368972 -0.52554266 0.15816005
v -0.09947768 -0.53956297 0.15685812
v -0.04232781 -0.56506038 0.16858831
v 0.08011621 -0.54190514 0.21220557
v 0.17596686 -0.73054277 0.20893406
v -0.00708656 -0.51016997 0.17259191
v -0.07463216 -0.46283673 0.15159421
v 0.18643627 -0.34671007 0.13955425
v 0.16208805 -0.36724551 0.15270182
v 0.15143675 -0.43712180 0.18882422
v 0.10060583 -0.36011849 0.14480479
v 0.13643902 -0.31111314 0.12064258
v 0.11492499 -0.26302091 0.08951661
v 0.13917761 -0.24697405 0.08024522
v 0.18224617 -0.26752464 0.09366657
v 0.19079756 -0.24667441 0.08062511
v 0.15733443 -0.28024550 0.10227472
v 0.18945068 -0.20979470 0.05744209
v 0.31217451 -0.31248046 0.06972057
v 0.26072844 -0.25527111 0.07240418
v 0.22119338 -0.29790346 0.10583797
v 0.33487614 -0.21629996 0.01948146
v 0.33105437 -0.19570847 0.01906583
v 0.32562103 -0.24808263 0.03525705
v 0.29315157 -0.20094543 0.03940923
v 0.27901398 -0.22940788 0.05505317
v -0.33175822 -0.79553149 0.13288622
v -0.34161871 -0.77521669 0.13705692
v -0.36211232 -0.77805177 0.13491233
v -0.35434827 -0.75646219 0.14004321
v -0.39532561 -0.80224747 0.12613305
v -0.37360084 -0.79747782 0.12937093
v -0.37915992 -0.82550366 0.12154909
v -0.57178747 -0.27412837 0.06934432
v -0.58340467 -0.22718470 0.05556174
v -0.04618182 -0.87195492 0.12018264
v -0.01857819 -0.85310161 0.14240406
v -0.08795008 -0.89559527 0.09951722
v -0.51212935 -0.87040651 0.08790323
v -0.54495098 -0.86135296 0.07985518
v 0.43569822 -0.56708293 0.03629097
v 0.42494375 -0.63746754 0.06899002
v 0.39855075 -0.64175956 0.09221934
v -0.57055916 -0.30524049 0.07561501
v 0.23539278 -0.72240256 0.17552005
v 0.21261089 -0.72305485 0.18992271
v 0.22921422 -0.68307397 0.21130388
v 0.20401343 -0.66795286 0.23570252
v 0.21247772 -0.69422649 0.21447711
v 0.37014718 -0.63705485 0.11738558
v 0.38625470 -0.58125728 0.10605654
v 0.35041521 -0.47699010 0.12146371
v 0.21592203 -0.61258190 0.25556762
v 0.27341687 -0.59600045 0.21776496
v 0.27507405 -0.55337651 0.22139779
v 0.26824011 -0.57542499 0.22833804
v 0.23313080 -0.55571013 0.24497584
v 0.24940109 -0.57006799 0.24178645
v 0.22216766 -0.58385922 0.25439110
v -0.53986811 -0.83599759 0.08586188
v -0.48570673 -0.85631657 0.09805501
v -0.53069932 -0.76207428 0.09923586
v -0.34669611 -0.67138829 0.15218535
v -0.50405504 -0.73424736 0.11381883
v -0.49279396 -0.65795044 0.12486754
v -0.24771924 -0.79360006 0.13304434
v -0.14967037 -0.98917762 0.05556553
v -0.20585473 -0.91373470 0.09123997
v -0.11716022 -0.90357323 0.09085797
v -0.13074561 -0.88654130 0.09753036
v -0.12201656 -0.92444303 0.08304664
v -0.16583087 -0.88794598 0.09974017
v -0.12854085 -0.84228652 0.11120818
v -0.15706381 -0.80874704 0.12399523
v -0.16125934 -0.74950068 0.13802393
v -0.30529470 -0.70245197 0.15084655
v -0.29483135 -0.67807193 0.15360623
v -0.31017435 -0.73330840 0.14637122
v -0.29250878 -0.76438335 0.14087661
v -0.18734078 -0.68378516 0.15020963
v -0.16398278 -0.65114097 0.15233705
v -0.15247869 -0.61944390 0.15420845
v -0.29281866 -0.57806274 0.15668158
v -0.30561934 -0.60921234 0.15679421
v -0.31046015 -0.64027458 0.15582795
v -0.33373719 -0.73330721 0.14542813
v -0.34426249 -0.70895808 0.14835613
v -0.10950015 -0.66465259 0.15084657
v -0.07000346 -0.62625563 0.16131552
v -0.05035969 -0.59726640 0.16743880
v -0.06800190 -0.58316919 0.16283937
v -0.11574268 -0.98021679 0.05914753
v -0.34708638 -0.57829658 0.15437448
v -0.35542030 -0.51638254 0.14935942
v -0.34750436 -0.48513680 0.14582438
v -0.53175520 -0.53405799 0.10909273
v -0.30598262 -0.51591292 0.15178823
v -0.29539294 -0.54028906 0.15445365
v -0.14691418 -0.52904836 0.15384524
v -0.15646303 -0.47045244 0.14711077
v -0.30607128 -0.45388892 0.14228167
v -0.29556464 -0.42955872 0.13744682
v -0.31106839 -0.48483419 0.14742934
v -0.11747557 -0.40578991 0.13574734
v -0.09773199 -0.43359242 0.14373622
v -0.08483525 -0.39002808 0.13378000
v -0.10673885 -0.38234659 0.12981349
v 0.02422417 -0.45744938 0.16883071
v 0.05837447 -0.40744640 0.15946254
v -0.31126728 -0.39179016 0.12734583
v -0.29380617 -0.36100972 0.11844036
v -0.33469389 -0.42282592 0.13450008
v -0.34513188 -0.44708607 0.13926795
v -0.32976410 -0.39178270 0.12669559
v -0.39835909 -0.33509625 0.10646226
v -0.34604718 -0.36117273 0.11699557
v -0.48031908 -0.26281270 0.07587707
v -0.19854892 -0.34127465 0.11283493
v -0.21049596 -0.36714372 0.12161293
v -0.21734244 -0.32014693 0.10448054
v -0.24594323 -0.32771142 0.10735242
v -0.14001916 -0.37734740 0.12615412
v -0.15022462 -0.35953478 0.11984875
v -0.14863190 -0.39580948 0.13118665
v -0.18574915 -0.40516504 0.13282180
v -0.14855005 -0.34047199 0.11314419
v -0.05352002 -0.30710614 0.10305516
v -0.02832162 -0.30849247 0.10529222
v -0.00003075 -0.34720920 0.12585539
v -0.01944708 -0.33123883 0.11691830
v -0.03914606 -0.36277856 0.12850921
v 0.01569685 -0.31016329 0.10936834
v -0.02092387 -0.35176489 0.12580827
v -0.00908961 -0.39053163 0.14146788
v -0.00646411 -0.36837715 0.13377330
v -0.00619840 -0.31368300 0.10944286
v 0.02667915 -0.38311010 0.14400538
v -0.06615818 -0.32859016 0.11272688
v -0.05939770 -0.35033270 0.12223917
v -0.10413893 -0.86855852 0.10420683
v -0.08351755 -0.82349880 0.12430169
v 0.04052424 -0.85846099 0.15534658
v -0.07979293 -0.78679353 0.13465595
v -0.07151436 -0.69203565 0.15495387
v -0.06588884 -0.72416321 0.15171450
v -0.04396083 -0.67073565 0.16635777
v 0.07742575 -0.81034522 0.18225544
v 0.10513500 -0.79783515 0.18908970
v -0.01190673 -0.61965977 0.18309373
v 0.04117973 -0.58620382 0.20633763
v -0.09316315 -0.49640553 0.15419961
v -0.05418542 -0.53597866 0.16386393
v 0.05538353 -0.52154460 0.19785802
v 0.18079233 -0.74414313 0.18948128
v 0.15874446 -0.74870103 0.20425663
v 0.13228187 -0.70433737 0.22840112
v 0.15153335 -0.72506051 0.22166906
v 0.16918023 -0.70591659 0.22740460
v 0.11343459 -0.74308103 0.21447485
v 0.17166147 -0.67013843 0.24160889
v 0.12908188 -0.72779053 0.22081137
v 0.09569986 -0.70545153 0.22264594
v 0.00727175 -0.52192091 0.17976286
v 0.01249643 -0.48633311 0.17345250
v -0.10076546 -0.46502963 0.14933905
v 0.16911652 -0.33425721 0.13381370
v 0.19180767 -0.32027062 0.12386772
v 0.14756781 -0.35680685 0.14666986
v 0.14401150 -0.39301128 0.16578167
v 0.11564835 -0.44779625 0.18844966
v 0.11494351 -0.37096915 0.15202797
v 0.11858661 -0.33583497 0.13378726
v 0.08288376 -0.38582771 0.15478538
v 0.10758062 -0.24759101 0.07797170
v 0.09481242 -0.26231942 0.08724229
v 0.17224838 -0.23152170 0.07136271
v 0.13721485 -0.26880279 0.09470596
v 0.13832398 -0.28988139 0.10800945
v 0.34367207 -0.30742221 0.03769011
v 0.24562431 -0.24118088 0.07011295
v 0.23669711 -0.26428556 0.08394799
v 0.25422643 -0.27332816 0.08351163
v 0.29033490 -0.27477927 0.06846830
v 0.20485223 -0.28556295 0.10190399
v 0.34367788 -0.24712014 0.01512413
v 0.33769766 -0.26705728 0.02943663
v 0.31298444 -0.26733095 0.05129564
v 0.29893697 -0.24574994 0.05222256
v 0.30868052 -0.28966285 0.06319365
v 0.28424031 -0.29912555 0.08258937
v 0.25742484 -0.34088024 0.11771860
v 0.26510616 -0.31656333 0.10085050
v 0.24233983 -0.30851557 0.10546160
v 0.29101425 -0.33817281 0.09774136
v 0.21941911 -0.32578666 0.12191345
v 0.28539005 -0.31902161 0.09144147
v 0.26502901 -0.21740500 0.05419361
v -0.36240283 -0.83314572 0.12053073
v -0.57654932 -0.25503952 0.06412718
v -0.55344990 -0.26026225 0.06821980
v -0.59095509 -0.27818075 0.06569964
v -0.55961991 -0.33432544 0.08305548
v -0.56059513 -0.28954189 0.07461630
v 0.40828962 -0.57405874 0.07873706
v 0.38970581 -0.55748159 0.10005039
v 0.40688012 -0.59716747 0.08443499
v 0.40109076 -0.52753199 0.06912626
v 0.35525026 -0.56772958 0.14426145
v 0.38303476 -0.46619826 0.06262119
v 0.21157165 -0.64026514 0.24637577
v 0.24064666 -0.61637268 0.23972578
v 0.17695270 -0.55252594 0.24197454
v -0.53962098 -0.78977953 0.09210665
v -0.32882903 -0.67132382 0.15321369
v -0.34630884 -0.64049805 0.15417696
v -0.50078042 -0.71426788 0.11719636
v -0.52162408 -0.71947391 0.10771383
v -0.48105934 -0.72738213 0.12285474
v -0.52436798 -0.74123142 0.10437632
v -0.48708179 -0.75148566 0.11767148
v -0.43733694 -0.70829751 0.13649398
v -0.45859342 -0.79026942 0.11873250
v -0.46144739 -0.71202334 0.13046481
v -0.47803548 -0.77472937 0.11685103
v -0.45034920 -0.74747987 0.12813742
v -0.45455649 -0.67170510 0.13619009
v -0.49565029 -0.80397195 0.10669343
v -0.44721804 -0.72679579 0.13198273
v -0.41089223 -0.74250977 0.13627110
v -0.46931449 -0.74298384 0.12422260
v -0.45696440 -0.76837885 0.12315028
v -0.42422947 -0.78169704 0.12687872
v -0.46604755 -0.69050275 0.13139918
v -0.47610265 -0.67152297 0.12995065
v -0.46542169 -0.64092669 0.13523473
v -0.49747877 -0.68122210 0.12142173
v -0.47810655 -0.79462722 0.11339815
v -0.47521499 -0.82180510 0.10868431
v -0.51691484 -0.66480165 0.11370132
v -0.51177792 -0.63658940 0.11748861
v -0.26671271 -0.81545070 0.12785027
v -0.22329586 -0.90459359 0.09536599
v -0.12739925 -0.94201387 0.07577709
v -0.18579191 -0.90117802 0.09599691
v -0.13651875 -0.80911843 0.12153199
v -0.14688211 -0.78616296 0.12858486
v -0.16579021 -0.79089081 0.12928544
v -0.16106807 -0.77054922 0.13365957
v -0.18980844 -0.81329646 0.12514327
v -0.14056767 -0.74795053 0.13634084
v -0.15284659 -0.72507292 0.14186559
v -0.19368187 -0.72434424 0.14482570
v -0.17338121 -0.73146827 0.14231128
v -0.17053248 -0.70471852 0.14649326
v -0.19207364 -0.75335005 0.13946897
v -0.25868951 -0.67647547 0.15364563
v -0.29296761 -0.79469677 0.13402053
v -0.27624875 -0.74915156 0.14359260
v -0.26755492 -0.77504919 0.13811655
v -0.14255297 -0.65223026 0.15146367
v -0.15454995 -0.67755129 0.14919739
v -0.13461548 -0.62109277 0.15388141
v -0.14854232 -0.58887440 0.15524744
v -0.31076573 -0.57816895 0.15613980
v -0.37992332 -0.70775169 0.14545418
v -0.09011891 -0.66163475 0.15438380
v -0.32923620 -0.57818903 0.15540522
v -0.34666957 -0.54729584 0.15282349
v -0.34640770 -0.60943464 0.15490932
v -0.33452822 -0.51619696 0.15062251
v -0.32959601 -0.48495175 0.14669116
v -0.25927541 -0.54132716 0.15504802
v -0.12894369 -0.52883637 0.15450386
v -0.14532379 -0.49926598 0.15133559
v -0.13569059 -0.46845763 0.14762689
v -0.14781305 -0.44606028 0.14317221
v -0.16609534 -0.45347184 0.14405459
v -0.16397993 -0.43217570 0.13979158
v -0.19454897 -0.48017191 0.14810730
v -0.25934026 -0.42775408 0.13777290
v -0.08236816 -0.41728893 0.14136291
v -0.07448779 -0.43924166 0.14721240
v -0.03718233 -0.45154469 0.15451359
v -0.05778184 -0.45126297 0.15147903
v -0.05294205 -0.47528264 0.15652152
v -0.04750781 -0.42258957 0.14627550
v -0.07348341 -0.48509985 0.15523352
v 0.04086811 -0.47022819 0.17772532
v 0.04632050 -0.44496770 0.17092683
v 0.02800889 -0.43793423 0.16381340
v 0.04393724 -0.42342502 0.16251206
v -0.00574827 -0.43896716 0.15688190
v 0.03699304 -0.40243481 0.15328570
v 0.05253391 -0.38171700 0.14772449
v 0.03742825 -0.34765561 0.13045985
v 0.03865019 -0.36721123 0.13929749
v 0.06089418 -0.35973785 0.13916780
v 0.01842305 -0.35865627 0.13298511
v 0.07575163 -0.41960083 0.16820722
v -0.31168784 -0.36109693 0.11791558
v -0.27752807 -0.37593098 0.12356056
v -0.24689407 -0.36113292 0.11931221
v -0.27034583 -0.35209050 0.11593525
v -0.30141154 -0.34319720 0.11212433
v -0.38106497 -0.44899071 0.13731785
v -0.37172929 -0.32637032 0.10439771
v -0.42058790 -0.30146248 0.09349401
v -0.36345950 -0.37565609 0.12077788
v -0.36915068 -0.35115580 0.11302418
v -0.38760212 -0.36856857 0.11751652
v -0.42840189 -0.39747704 0.12189136
v -0.40437089 -0.38841499 0.12188368
v -0.41766109 -0.36001663 0.11318993
v -0.40518198 -0.42364366 0.13008828
v -0.39428585 -0.40617103 0.12711359
v -0.38250437 -0.42586853 0.13253423
v -0.47025229 -0.28193141 0.08357832
v -0.50706813 -0.28878156 0.08262634
v -0.48562944 -0.30084787 0.08854685
v -0.51549283 -0.32987586 0.09229890
v -0.50498687 -0.31086115 0.08915273
v -0.52638310 -0.31108101 0.08570155
v -0.47876641 -0.33793642 0.10035701
v -0.54594235 -0.31858160 0.08350599
v -0.53652627 -0.34129580 0.09017884
v -0.47385882 -0.31781513 0.09514321
v -0.44354148 -0.33600671 0.10382951
v -0.55397620 -0.36072060 0.08847980
v -0.50498583 -0.37329680 0.10374164
v -0.51636796 -0.35292211 0.09709513
v -0.53136563 -0.37457989 0.09729519
v -0.49409178 -0.35400729 0.10187522
v -0.46595773 -0.38327007 0.11346111
v -0.48403253 -0.37275020 0.10801817
v -0.49277402 -0.40992490 0.11347881
v -0.46394830 -0.35811137 0.10773007
v -0.44136545 -0.37260878 0.11428976
v -0.46243445 -0.26056142 0.07574612
v -0.24759229 -0.30977800 0.09996595
v -0.26743600 -0.32033411 0.10415185
v -0.18939499 -0.38049934 0.12585318
v -0.21527693 -0.39719632 0.13049925
v -0.16808774 -0.34421933 0.11421746
v -0.05431049 -0.38096174 0.13357553
v -0.03122787 -0.38365313 0.13667903
v -0.02695404 -0.40794221 0.14474086
v -0.04652996 -0.40002552 0.14020219
v -0.02616175 -0.42995070 0.15096213
v -0.00291715 -0.41405079 0.15009487
v 0.01263074 -0.39928814 0.14785128
v -0.10396138 -0.81626505 0.12068387
v -0.10265430 -0.83846265 0.11433441
v 0.00938575 -0.86875211 0.14554032
v -0.06790836 -0.80513643 0.13370489
v -0.05520826 -0.82726270 0.13103469
v -0.07436883 -0.84228413 0.12120701
v -0.03349231 -0.83604953 0.13942163
v -0.00848891 -0.82508748 0.15896240
v -0.04236524 -0.71839547 0.16208461
v -0.04443576 -0.75604452 0.15491560
v -0.02084781 -0.73811647 0.17015843
v -0.03100800 -0.68963258 0.17113123
v 0.01086786 -0.68303832 0.19791552
v -0.01300822 -0.66570080 0.18259672
v -0.00841291 -0.69190331 0.18430165
v 0.01523071 -0.72442908 0.19604106
v 0.00802447 -0.70422122 0.19505164
v 0.05029156 -0.70133036 0.21322470
v 0.02971079 -0.70822716 0.20405037
v 0.05238545 -0.74435216 0.20549767
v 0.03720524 -0.72877818 0.20359157
v 0.01717479 -0.76676561 0.18695645
v 0.03207663 -0.75051406 0.19702813
v 0.04930714 -0.78470684 0.19219310
v 0.09063585 -0.82344440 0.17151679
v 0.06652815 -0.83395434 0.16846763
v 0.08580780 -0.79350097 0.19091788
v -0.02831999 -0.61005677 0.17509024
v 0.00172710 -0.59298057 0.18820116
v -0.09981819 -0.51478230 0.15525293
v -0.07323819 -0.54190250 0.16086690
v -0.02386704 -0.53778753 0.17163838
v 0.04099755 -0.50984407 0.18915198
v 0.03608306 -0.54552433 0.19609757
v 0.07453816 -0.49647334 0.19675734
v 0.11214050 -0.77196509 0.20312738
v 0.18873908 -0.67809838 0.23616041
v 0.18668189 -0.65576106 0.24597809
v 0.15501798 -0.62850228 0.24395884
v -0.00989520 -0.48758414 0.16771857
v -0.00050004 -0.46402520 0.16474621
v -0.02353038 -0.46947614 0.16075577
v 0.12973763 -0.38204204 0.15917086
v 0.12577103 -0.41775182 0.17643845
v 0.09861902 -0.43570765 0.17982757
v 0.09424440 -0.46163094 0.18961033
v 0.13089002 -0.49759628 0.21188789
v 0.11694467 -0.47465310 0.20002365
v 0.11583560 -0.31488970 0.12177774
v 0.08372096 -0.31021524 0.11642554
v 0.09753271 -0.32777614 0.12750039
v 0.09729822 -0.39651713 0.16194508
v 0.33510410 -0.34704733 0.06358336
v 0.34397895 -0.28717674 0.02921719
v 0.28150627 -0.25668552 0.06490095
v 0.24033478 -0.32893414 0.11756900
v 0.22245915 -0.36486189 0.14387678
v 0.41917055 -0.53812388 0.04348285
v 0.36383260 -0.53584606 0.12910322
v 0.36971338 -0.43663956 0.06505260
v 0.39245534 -0.49540692 0.06594799
v 0.23652356 -0.59654975 0.25176039
v 0.23095352 -0.63546488 0.23827422
v 0.20349711 -0.56179756 0.25099388
v -0.53133215 -0.80799853 0.09334889
v -0.51639300 -0.78950113 0.10173627
v -0.36225164 -0.65559623 0.15211959
v -0.37539403 -0.62507190 0.15225882
v -0.38572214 -0.64781100 0.15021229
v -0.42328167 -0.61646757 0.14576934
v -0.41627060 -0.67172008 0.14426234
v -0.40044537 -0.62715727 0.14909222
v -0.39703287 -0.66500835 0.14762452
v -0.41383439 -0.64743051 0.14630908
v -0.39909009 -0.69077991 0.14507718
v -0.38970661 -0.60267846 0.15097952
v -0.43554671 -0.65729793 0.14164451
v -0.42081450 -0.69348387 0.14144913
v -0.40444782 -0.71676525 0.14116606
v -0.43544236 -0.67890278 0.13996557
v -0.42431563 -0.72555934 0.13673718
v -0.48838604 -0.63447846 0.12763441
v -0.46466109 -0.59380036 0.13643921
v -0.50323343 -0.59937100 0.12263417
v -0.47132892 -0.61721024 0.13418259
v -0.50176338 -0.61941769 0.12302063
v -0.44703941 -0.62371399 0.14049495
v -0.48331062 -0.60118143 0.13026154
v -0.48705353 -0.56347244 0.12892578
v -0.43141949 -0.63706594 0.14356395
v -0.44114062 -0.59992235 0.14225226
v -0.41470859 -0.58872857 0.14719880
v -0.44282376 -0.55779328 0.14109604
v -0.44830092 -0.57913819 0.14045763
v -0.46456966 -0.56350091 0.13599845
v -0.45982836 -0.53723011 0.13608680
v -0.24827945 -0.83440317 0.12155105
v -0.14940715 -0.70410304 0.14505505
v -0.22566003 -0.74072082 0.14358141
v -0.21708133 -0.77765543 0.13553494
v -0.27645644 -0.68440662 0.15301213
v -0.25759629 -0.70336720 0.15054373
v -0.27667422 -0.65943420 0.15525302
v -0.17317319 -0.66932297 0.15107502
v -0.19550423 -0.64639190 0.15414716
v -0.16651646 -0.60220695 0.15525094
v -0.17840697 -0.56666662 0.15558863
v -0.19019338 -0.59068496 0.15602553
v -0.36237724 -0.71554002 0.14604885
v -0.36065742 -0.69129775 0.14920655
v -0.38104584 -0.73459116 0.14148349
v -0.36271707 -0.56257211 0.15250762
v -0.37063988 -0.53764513 0.15018692
v -0.38230745 -0.51295236 0.14674731
v -0.36259460 -0.59439542 0.15358872
v -0.27710545 -0.53366861 0.15424170
v -0.27887009 -0.55808651 0.15602889
v -0.25834388 -0.51438810 0.15253941
v -0.16244481 -0.51366163 0.15243763
v -0.18666511 -0.50485610 0.15141226
v -0.16774354 -0.49102400 0.14987471
v -0.22326595 -0.50342531 0.15125019
v -0.20463653 -0.49721951 0.15045192
v -0.22187339 -0.47556952 0.14737760
v -0.20598722 -0.52505176 0.15345039
v -0.27718558 -0.43583208 0.13927390
v -0.25830238 -0.45481558 0.14352935
v -0.27731206 -0.41090350 0.13338214
v -0.06112802 -0.50958624 0.16000432
v -0.22759621 -0.35827556 0.11852955
v -0.23418639 -0.38175755 0.12593084
v -0.24018920 -0.40811369 0.13321583
v -0.36338647 -0.44090042 0.13692536
v -0.36319946 -0.46593001 0.14170000
v -0.44094333 -0.29360037 0.08963060
v -0.44424014 -0.31464405 0.09694313
v -0.42310808 -0.27845113 0.08429349
v -0.42301179 -0.32463865 0.10172141
v -0.39267932 -0.30744836 0.09678298
v -0.37048748 -0.41008994 0.12964092
v -0.52809055 -0.27145961 0.07474024
v -0.55060315 -0.38181579 0.09214585
v -0.52925373 -0.40911864 0.10284136
v -0.43595733 -0.35394067 0.10980144
v -0.20760710 -0.42627222 0.13791249
v 0.02262197 -0.85453318 0.15344616
v 0.01997580 -0.88792565 0.13525803
v -0.00020858 -0.84413128 0.15382784
v -0.02782396 -0.81058574 0.15021120
v -0.00344290 -0.79241264 0.17271204
v -0.07292023 -0.75040493 0.14458990
v -0.05800496 -0.77452541 0.14495839
v 0.00885500 -0.65917148 0.19677669
v 0.04142525 -0.66888170 0.21223476
v -0.00797538 -0.64300058 0.18583670
v -0.00590305 -0.72425290 0.18398439
v 0.00031252 -0.74852445 0.18495377
v 0.05079420 -0.81252690 0.18064474
v 0.05806851 -0.85000725 0.15749226
v 0.04403960 -0.83429120 0.16926877
v 0.00915777 -0.61437473 0.19446557
v 0.04096687 -0.61829575 0.21042569
v 0.02298150 -0.59792697 0.19948950
v 0.01767040 -0.56988638 0.19268965
v 0.02186940 -0.53390035 0.18771292
v 0.05826562 -0.54424167 0.20488073
v 0.04905804 -0.56491632 0.20590765
v 0.08549464 -0.59234587 0.22465328
v 0.06432079 -0.58358888 0.21554972
v 0.06669392 -0.61063012 0.22055037
v 0.08220086 -0.56720788 0.21906873
v 0.13027981 -0.57542701 0.23184591
v 0.10830092 -0.55320866 0.22390138
v 0.05979347 -0.48515044 0.18823429
v 0.13160163 -0.78151784 0.18924232
v 0.14602146 -0.76575450 0.19629776
v 0.13471314 -0.74994447 0.21157343
v 0.18449141 -0.61870748 0.25497153
v 0.14701562 -0.41535819 0.17740860
v 0.18036240 -0.41965209 0.18100994
v 0.09621343 -0.48651842 0.19960114
v 0.09673089 -0.51710941 0.21017260
v 0.14820286 -0.47026160 0.20413997
v 0.35078144 -0.32925984 0.03622250
v 0.32825597 -0.32738904 0.06203428
v 0.31649753 -0.54932584 0.18600955
v 0.36141412 -0.45686142 0.09290157
v 0.31886447 -0.43718737 0.13274707
v 0.34448982 -0.44173213 0.10584351
v 0.34761745 -0.40182908 0.07611850
v 0.32044044 -0.46527710 0.14979445
v 0.33947939 -0.42112247 0.09918615
v 0.30058133 -0.39914394 0.12518840
v 0.31554670 -0.41544566 0.12246985
v 0.27599090 -0.43606986 0.16610241
v 0.29762368 -0.43064355 0.14744225
v 0.29266912 -0.46013207 0.16976669
v 0.38383643 -0.44919654 0.04350466
v 0.37118384 -0.48600096 0.09627453
v 0.34106221 -0.51121221 0.15210210
v 0.36898471 -0.50866541 0.11332941
v 0.21113686 -0.50205582 0.22731414
v -0.35686702 -0.62497818 0.15386689
v -0.44775619 -0.69290433 0.13595826
v -0.47815216 -0.54525637 0.13144127
v -0.45019852 -0.48570272 0.13379325
v -0.21708820 -0.82916137 0.12186578
v -0.20623365 -0.73966515 0.14287429
v -0.21707111 -0.71750447 0.14713216
v -0.20009603 -0.70255108 0.14845961
v -0.24019935 -0.72187089 0.14738430
v -0.22228962 -0.67336406 0.15289860
v -0.23280863 -0.69717323 0.15063822
v -0.21500439 -0.69088963 0.15067295
v -0.19921025 -0.77129519 0.13603644
v -0.20155785 -0.79386075 0.13089281
v -0.22462088 -0.80092652 0.13006467
v -0.24125485 -0.81409351 0.12727529
v -0.24204438 -0.76684862 0.13904765
v -0.22643798 -0.61418611 0.15659240
v -0.39289418 -0.75127440 0.13712988
v -0.41038743 -0.76445833 0.13236027
v -0.42962774 -0.75412921 0.13126094
v -0.42210012 -0.52238550 0.14254577
v -0.24424510 -0.49751337 0.15053676
v -0.23489975 -0.52834332 0.15391657
v -0.20438774 -0.45661171 0.14414186
v -0.23098545 -0.44928725 0.14263848
v -0.19539004 -0.54802525 0.15500599
v -0.24366332 -0.47145086 0.14661025
v -0.40300258 -0.28824491 0.08881464
v -0.38155878 -0.28969222 0.08983522
v -0.50472082 -0.26454748 0.07471041
v -0.51687237 -0.39144200 0.10382292
v -0.18811564 -0.42448691 0.13756180
v 0.03410087 -0.87526279 0.14276412
v 0.01261226 -0.81118356 0.17028520
v 0.03174442 -0.81694070 0.17332254
v 0.02754793 -0.79244864 0.18181946
v -0.08221556 -0.76793462 0.13831674
v -0.03392404 -0.64216537 0.17234137
v 0.06371222 -0.64414912 0.22161014
v 0.10567197 -0.57848765 0.22816739
v 0.11801309 -0.61918230 0.23376274
v 0.12098900 -0.59627800 0.23328195
v 0.10223876 -0.60500226 0.23088518
v 0.09137728 -0.63353833 0.23046428
v 0.14162714 -0.61149075 0.23090441
v 0.16356494 -0.60129001 0.24676566
v 0.14527342 -0.53811300 0.22674888
v 0.19356208 -0.63691398 0.25204236
v 0.17359286 -0.63680291 0.24989346
v 0.19534826 -0.59202097 0.25656892
v 0.07592246 -0.51792928 0.20399656
v 0.09795708 -0.53653514 0.21633760
v 0.12128269 -0.53326787 0.22186846
v 0.13103437 -0.55374131 0.22873680
v 0.15772739 -0.56762780 0.22862205
v 0.13542922 -0.51879216 0.22030722
v 0.17418426 -0.51212043 0.21971486
v 0.15236602 -0.50461647 0.21849992
v 0.16790816 -0.48569857 0.21227768
v 0.19014516 -0.49314540 0.22056211
v 0.17278606 -0.45657366 0.19999056
v 0.22195359 -0.45226961 0.19793209
v 0.21026716 -0.47663931 0.21429567
v 0.25369791 -0.48413566 0.20654494
v 0.19709215 -0.45667117 0.20178783
v 0.23415837 -0.47197355 0.20645440
v 0.20766799 -0.42796270 0.18439833
v 0.18557877 -0.44006277 0.19213464
v 0.18435020 -0.47330542 0.20949590
v 0.23326295 -0.49522652 0.21962109
v 0.25740257 -0.45682632 0.18913978
v 0.22766299 -0.52609401 0.23543573
v 0.25448488 -0.51292584 0.22087035
v 0.11084244 -0.50187343 0.20891296
v 0.13108252 -0.46074116 0.19676021
v 0.33271745 -0.56528979 0.17513732
v 0.33889129 -0.54326176 0.16591490
v 0.30969902 -0.57271054 0.19299415
v 0.29480782 -0.55583228 0.20326010
v 0.29855375 -0.51157534 0.19152255
v 0.28871338 -0.53381872 0.20633076
v 0.27630493 -0.51553400 0.20937629
v 0.28553998 -0.48762742 0.19024480
v 0.26209823 -0.53478800 0.22544104
v 0.30874594 -0.45254253 0.15220240
v 0.32070969 -0.49315232 0.16490447
v -0.46180516 -0.51012635 0.13373373
v -0.24516854 -0.74659104 0.14328207
v -0.20469734 -0.60833807 0.15621466
v -0.22435775 -0.57705851 0.15662047
v -0.21070271 -0.63000383 0.15563637
v -0.23511811 -0.63894124 0.15590137
v -0.24769906 -0.65725765 0.15505235
v -0.43871795 -0.77032974 0.12659529
v -0.43844526 -0.53639931 0.14078976
v -0.41001080 -0.55374004 0.14677273
v -0.40705737 -0.49590450 0.14199370
v -0.23812233 -0.42927796 0.13831913
v -0.37258604 -0.30699422 0.09702388
v 0.05791224 -0.62650419 0.21859792
v 0.04063005 -0.64145557 0.21184860
v 0.08558143 -0.61466524 0.22723831
v 0.08893774 -0.66952404 0.22892316
v 0.14991476 -0.59002701 0.23029257
v 0.18480962 -0.57332652 0.24936904
v 0.16417209 -0.54867884 0.22620304
v 0.24365487 -0.42266109 0.17276037
v 0.20006374 -0.40584370 0.17205906
v 0.22428848 -0.40860812 0.16982830
v 0.21014940 -0.38447388 0.15811862
v 0.25841472 -0.38393743 0.14250510
v 0.19931775 -0.36497374 0.14858986
v 0.23432880 -0.38470357 0.15239582
v 0.21172417 -0.34679251 0.13579222
v 0.24631293 -0.40161997 0.15859920
v 0.26706727 -0.41409210 0.15712754
v 0.19771243 -0.53085905 0.23948824
v 0.19048204 -0.51309229 0.23083065
v 0.17802200 -0.53077027 0.23320169
v 0.21614210 -0.54468295 0.24449470
v 0.30354544 -0.47728742 0.17131786
v 0.27342919 -0.47050402 0.18864066
v 0.26760070 -0.49724492 0.20634592
v 0.24294984 -0.53745084 0.23564220
v -0.43893458 -0.50620736 0.13819512
v -0.49990099 -0.47643807 0.11969643
v -0.23703169 -0.55439870 0.15580681
v -0.25519557 -0.55985930 0.15621331
v -0.21541302 -0.55686470 0.15571349
v -0.39485202 -0.53433728 0.14744392
v -0.38688439 -0.55664405 0.14991603
v -0.40055827 -0.57292081 0.14898243
v -0.40020216 -0.46905306 0.13902629
v 0.02750466 -0.65525834 0.20616723
v 0.08197393 -0.65079132 0.22812356
v 0.06618069 -0.66737120 0.22243331
v 0.10486636 -0.65295262 0.23172726
v 0.05508330 -0.68277332 0.21708797
v 0.07304852 -0.69818559 0.22201311
v 0.11460867 -0.67900015 0.22777164
v 0.06475748 -0.72208092 0.21508551
v 0.07806419 -0.74623360 0.21018317
v 0.22633778 -0.43292931 0.18451428
v 0.25655736 -0.43698092 0.17693126
v -0.48583458 -0.49895969 0.12620874
v -0.19951156 -0.57122222 0.15594280
v -0.21921234 -0.53846235 0.15464841
v -0.40304564 -0.51581471 0.14464236
v -0.40332349 -0.44636584 0.13480677
v -0.44656555 -0.43908250 0.12778470
v -0.42818859 -0.46178445 0.13430018
v -0.42399801 -0.43693843 0.13057876
v -0.43704186 -0.41840790 0.12534570
v -0.45079986 -0.40023025 0.11953375
v -0.47194628 -0.40447814 0.11688754
v -0.47506784 -0.43397522 0.12143598
v -0.45810663 -0.42090614 0.12247454
v 0.09772986 -0.68618003 0.22665004
v 0.11348392 -0.69988318 0.22531455
v 0.14267307 -0.67449990 0.23617298
v 0.09747509 -0.75441473 0.20873360
v 0.08601650 -0.72533507 0.21691566
v -0.47399101 -0.47573724 0.12738006
v -0.51473742 -0.50163466 0.11607386
v -0.45107455 -0.46236616 0.13057876
v -0.50919007 -0.44174700 0.11304350
v 0.15007165 -0.69617129 0.23216860
v 0.15323462 -0.65380730 0.24185743
v 0.13494980 -0.63858760 0.23190328
v 0.11617065 -0.63800354 0.23307177
v 0.12528102 -0.65658149 0.22983346
v -0.48735908 -0.45522179 0.12135933
v -0.46802456 -0.45298098 0.12582672
v -0.50104309 -0.51619448 0.12193933
v -0.52556025 -0.47795644 0.11018547
v -0.51354858 -0.46162687 0.11357980
v -0.53216156 -0.44690523 0.10545505
v -0.54304723 -0.47042503 0.10163113
v -0.52451715 -0.42872665 0.10671466
v -0.52564160 -0.51634761 0.11172558
v -0.49397955 -0.42987454 0.11611064
v -0.60689548 -0.17638169 0.03620314
v 0.43119902 -0.60897108 0.05879969
v -0.51349259 -0.84248742 0.09380253
v -0.25526934 -0.85627956 0.11471107
v -0.20462519 -0.85988539 0.11157055
v -0.18682179 -0.87641854 0.10519595
v -0.19424108 -0.83738524 0.11836009
v -0.21770248 -0.84766316 0.11612033
v -0.15664181 -0.91843354 0.08745392
v -0.27653126 -0.72094790 0.14833961
v -0.27695479 -0.62767224 0.15683129
v -0.25357105 -0.61366051 0.15715719
v -0.23955710 -0.59491888 0.15705593
v -0.27739776 -0.49708853 0.15013179
v -0.27742619 -0.47234306 0.14636226
v -0.06590876 -0.86786170 0.11489532
v 0.19412909 -0.71957309 0.20680247
v 0.36165111 -0.59148367 0.13477260
v -0.13467472 -0.86529588 0.10493487
v -0.16608907 -0.83129249 0.11841973
v -0.14639675 -0.82648847 0.11805705
v -0.30010571 -0.65870987 0.15509928
v -0.16938086 -0.63114542 0.15401751
v -0.27708361 -0.59037879 0.15716559
v -0.33906756 -0.68978298 0.15096826
v -0.36303661 -0.49784261 0.14654057
v -0.30054348 -0.55962270 0.15566542
v -0.30080070 -0.41015958 0.13261148
v -0.33997050 -0.46647013 0.14319908
v 0.01141163 -0.28827698 0.09657417
v 0.04764978 -0.29345474 0.10294368
v 0.16582347 -0.38975881 0.16474091
v -0.50243863 -0.82272750 0.10111944
v -0.43415531 -0.81633184 0.11740631
v -0.45393741 -0.83515923 0.10972495
v -0.27226152 -0.79530961 0.13331830
v -0.14586438 -0.55887794 0.15523874
v -0.16268103 -0.54475214 0.15460342
v -0.15992899 -0.57286104 0.15538983
v -0.14732418 -0.41756999 0.13695100
v -0.16531273 -0.40775364 0.13394968
v -0.17320930 -0.39061440 0.12910148
v 0.08075450 -0.36509217 0.14472739
v -0.39964373 -0.35405080 0.11246299
v -0.01209446 -0.87575491 0.13510489
v -0.03146182 -0.51409343 0.16675277
v 0.13208177 -0.43703231 0.18624949
v 0.08802914 -0.28573477 0.10211203
v 0.07367240 -0.26936205 0.09011613
v 0.06929488 -0.29511727 0.10610671
v 0.05680447 -0.31992538 0.11885652
v 0.03697212 -0.31113173 0.11208020
v 0.05543284 -0.33934429 0.12871533
v 0.38426154 -0.53998357 0.10320746
v 0.40759867 -0.50928994 0.04658889
v -0.52404680 -0.60052292 0.11195933
v -0.51428801 -0.57798916 0.11787826
v -0.54944377 -0.40294008 0.09480215
v 0.03188445 -0.68736036 0.20710066
v 0.36981803 -0.41415218 0.04851771
v 0.36860041 -0.39406344 0.03816199
v 0.36442145 -0.37015438 0.03314851
v 0.35702296 -0.35095253 0.03613563
v -0.20154612 -0.66742968 0.15262821
v -0.21700062 -0.65160438 0.15455033
v -0.39451574 -0.77995425 0.13129979
v -0.50475135 -0.24044745 0.06584392
v 0.32079626 -0.59093550 0.18163570
v 0.28564736 -0.57356151 0.21016347
v -0.42482127 -0.56957948 0.14495974
v 0.16605163 -0.58047777 0.24413353
v 0.27663529 -0.36168770 0.11978694
v 0.28221680 -0.38428051 0.12959956
v 0.31062700 -0.36893320 0.09851634
v 0.32571307 -0.38836485 0.09485461
v 0.34678730 -0.38226216 0.06573799
v 0.31044582 -0.34815108 0.08770266
v 0.33334299 -0.36682337 0.07539084
v 0.28731042 -0.41363419 0.14441181
v -0.42731987 -0.48516931 0.13768795
v -0.15760106 -0.86663214 0.10661484
v 0.04354513 -0.27332692 0.08992814
v 0.16472623 -0.40915304 0.17518925
v -0.43897511 -0.79621761 0.12132074
v -0.45537039 -0.81188649 0.11492063
v -0.41864017 -0.83470873 0.11492127
v -0.41298629 -0.81402758 0.12105653
v -0.39875297 -0.82742599 0.11932025
v -0.50909270 -0.55452255 0.12019444
v 0.01886001 -0.33305331 0.12129410
v 0.06274875 -0.76594943 0.20158519
v -0.02352867 -0.77554868 0.16075656
v -0.00452915 -0.76979357 0.17801109
v -0.01989390 -0.79371003 0.15900346
v 0.31739595 -0.52418706 0.18010600
v 0.24719580 -0.36294324 0.13481818
v 0.23437098 -0.34818439 0.13067441
f 118 119 117
f 371 490 206
f 117 119 120
f 276 264 539
f 115 116 121
f 120 116 117
f 121 116 120
f 146 145 517
f 268 267 144
f 347 1139 346
f 442 33 34
f 222 239 232
f 123 218 122
f 218 217 122
f 234 7 8
f 218 114 217
f 310 229 123
f 224 241 245
f 229 113 218
f 112 219 111
f 1138 340 1168
f 217 121 122
f 521 68 69
f 225 214 443
f 219 112 229
f 113 229 112
f 111 297 110
f 1136 237 81
f 225 444 318
f 339 614 109
f 614 463 108
f 244 243 240
f 297 111 219
f 310 123 124
f 445 93 94
f 228 236 1137
f 463 107 108
f 341 621 465
f 426 424 226
f 232 223 300
f 640 343 637
f 7 234 233
f 253 430 431
f 105 343 640
f 434 433 432
f 109 110 339
f 441 297 219
f 47 226 424
f 274 273 162
f 318 25 26
f 243 224 235
f 184 222 183
f 345 132 346
f 131 132 161
f 434 599 433
f 239 5 6
f 213 131 161
f 213 161 160
f 345 161 132
f 80 81 237
f 138 351 137
f 619 247 617
f 177 646 143
f 468 354 351
f 349 347 134
f 231 221 238
f 143 474 178
f 317 24 25
f 317 235 24
f 136 137 356
f 356 137 351
f 181 355 182
f 147 146 515
f 469 353 645
f 658 480 159
f 487 488 366
f 130 131 213
f 476 654 656
f 663 172 171
f 152 668 153
f 624 247 619
f 360 477 361
f 155 615 156
f 156 157 477
f 161 344 160
f 429 296 428
f 958 968 969
f 648 647 649
f 177 211 176
f 173 256 489
f 661 483 482
f 175 257 255
f 174 255 256
f 367 368 254
f 173 172 661
f 652 476 651
f 255 257 210
f 161 345 344
f 475 646 647
f 657 854 852
f 140 141 279
f 433 599 296
f 505 508 164
f 641 104 640
f 672 150 149
f 264 274 275
f 601 221 600
f 389 718 269
f 100 101 497
f 210 209 255
f 80 231 79
f 91 92 298
f 984 1202 238
f 705 144 145
f 33 236 228
f 313 34 35
f 102 1192 101
f 1134 1128 1118
f 711 714 713
f 157 158 479
f 715 717 716
f 1041 1099 259
f 371 206 491
f 269 718 720
f 104 641 103
f 105 106 343
f 272 271 67
f 78 79 242
f 71 72 267
f 678 679 379
f 83 87 88
f 84 87 83
f 85 86 84
f 278 184 279
f 84 86 87
f 256 255 209
f 88 89 220
f 15 549 14
f 237 231 80
f 231 238 242
f 445 603 725
f 231 237 436
f 620 107 463
f 88 220 83
f 9 304 8
f 298 436 315
f 220 230 1136
f 324 319 448
f 277 745 540
f 230 220 89
f 65 66 273
f 266 741 268
f 315 237 230
f 222 5 239
f 150 151 498
f 671 496 495
f 362 859 1043
f 671 151 150
f 381 380 502
f 677 501 676
f 956 846 847
f 513 386 385
f 154 485 153
f 513 148 147
f 163 523 164
f 148 149 502
f 169 168 674
f 506 382 505
f 146 147 511
f 1109 1111 1108
f 382 507 508
f 270 272 519
f 391 523 524
f 527 162 271
f 163 275 274
f 499 377 498
f 636 466 635
f 389 886 888
f 387 144 72
f 265 72 73
f 144 705 268
f 72 144 267
f 89 90 230
f 739 389 76
f 113 114 218
f 269 886 389
f 76 389 75
f 228 32 33
f 181 182 300
f 387 388 144
f 527 744 524
f 268 741 71
f 271 66 67
f 428 213 160
f 114 115 217
f 267 268 71
f 27 214 225
f 226 215 187
f 701 145 146
f 227 31 32
f 162 273 66
f 521 522 390
f 271 162 66
f 1032 1203 1030
f 168 552 167
f 668 669 494
f 365 364 485
f 29 31 216
f 177 143 212
f 20 446 19
f 142 185 278
f 185 184 278
f 142 1 185
f 393 279 184
f 354 355 644
f 140 372 139
f 222 232 183
f 232 182 183
f 142 278 141
f 472 644 181
f 2 3 185
f 264 275 277
f 68 521 519
f 185 3 184
f 4 5 222
f 4 184 3
f 233 223 239
f 512 384 702
f 709 263 386
f 184 4 222
f 543 11 12
f 185 1 2
f 753 752 143
f 302 300 301
f 178 179 541
f 471 473 357
f 471 357 470
f 180 181 302
f 210 257 211
f 177 212 211
f 439 299 309
f 255 174 175
f 212 143 752
f 394 757 753
f 397 545 546
f 903 902 991
f 207 490 370
f 173 174 256
f 367 369 171
f 211 212 544
f 171 369 401
f 547 208 545
f 547 207 208
f 371 369 254
f 992 765 906
f 171 172 367
f 563 1093 1116
f 170 400 169
f 233 6 7
f 141 278 279
f 1202 242 238
f 127 462 126
f 303 301 234
f 233 234 223
f 470 180 179
f 233 239 6
f 438 280 437
f 1180 754 438
f 245 241 320
f 308 304 306
f 455 336 334
f 214 216 227
f 545 208 209
f 14 776 13
f 206 779 205
f 121 217 115
f 19 446 447
f 311 310 124
f 83 220 82
f 1152 555 18
f 303 307 299
f 555 17 18
f 477 478 156
f 548 776 549
f 600 298 602
f 231 242 79
f 245 22 23
f 22 245 320
f 317 243 235
f 372 258 468
f 317 318 240
f 211 257 176
f 487 158 157
f 235 23 24
f 82 1136 81
f 26 27 225
f 216 28 29
f 183 182 373
f 870 378 1173
f 28 216 214
f 274 264 276
f 228 227 32
f 372 279 258
f 31 227 216
f 29 30 31
f 534 536 530
f 148 502 503
f 214 27 28
f 511 512 701
f 320 322 21
f 164 508 163
f 779 780 205
f 783 204 203
f 1137 443 214
f 169 400 403
f 782 553 402
f 780 204 205
f 203 202 564
f 403 168 169
f 166 165 677
f 690 200 199
f 200 689 201
f 780 915 204
f 675 500 674
f 505 164 165
f 195 196 569
f 796 198 199
f 509 689 690
f 412 572 573
f 610 938 453
f 413 195 194
f 195 567 194
f 567 410 409
f 572 197 196
f 319 329 330
f 408 685 683
f 784 201 202
f 193 416 418
f 186 187 215
f 274 65 273
f 276 65 274
f 159 428 160
f 440 340 1138
f 528 529 63
f 1166 1217 1165
f 218 123 229
f 64 528 63
f 239 223 232
f 1184 59 60
f 802 573 800
f 194 567 568
f 289 417 191
f 90 315 230
f 575 58 59
f 784 554 925
f 55 56 419
f 57 415 577
f 605 442 313
f 292 191 190
f 436 600 221
f 287 413 579
f 479 480 361
f 320 21 22
f 168 781 552
f 209 208 256
f 581 582 421
f 44 45 586
f 358 1155 250
f 191 192 582
f 586 423 425
f 224 245 235
f 423 45 46
f 149 150 504
f 586 587 44
f 207 370 208
f 321 329 319
f 23 235 245
f 690 692 691
f 539 528 276
f 580 42 43
f 175 176 257
f 943 939 940
f 591 597 420
f 144 388 145
f 890 708 889
f 325 327 329
f 243 244 224
f 733 721 731
f 292 54 55
f 55 419 292
f 190 191 581
f 291 53 54
f 270 391 524
f 53 293 52
f 294 51 52
f 187 294 188
f 188 294 293
f 65 276 64
f 188 189 426
f 163 274 162
f 226 187 188
f 226 47 215
f 347 346 133
f 47 48 215
f 186 48 49
f 50 51 186
f 49 50 186
f 328 244 332
f 215 48 186
f 393 184 183
f 154 155 486
f 186 51 187
f 424 295 423
f 166 676 167
f 67 68 272
f 191 292 289
f 36 1190 809
f 214 227 228
f 205 204 404
f 665 152 153
f 322 324 446
f 762 281 760
f 565 407 564
f 167 566 166
f 794 410 569
f 794 795 570
f 529 531 537
f 803 572 574
f 575 576 414
f 412 573 802
f 415 57 58
f 193 192 416
f 417 289 577
f 288 416 417
f 585 192 193
f 935 41 42
f 190 189 291
f 291 189 293
f 190 291 292
f 292 291 54
f 291 293 53
f 189 188 293
f 51 294 187
f 293 294 52
f 581 427 598
f 580 805 590
f 429 159 158
f 430 433 296
f 311 312 441
f 297 461 339
f 602 92 93
f 298 600 436
f 299 301 303
f 307 309 299
f 232 300 182
f 301 300 223
f 234 301 223
f 302 301 299
f 302 299 439
f 181 300 302
f 304 234 8
f 305 437 309
f 306 9 10
f 234 304 303
f 9 306 304
f 754 987 897
f 306 898 754
f 305 307 308
f 308 307 303
f 309 307 305
f 304 308 303
f 308 306 1180
f 439 1151 394
f 180 439 179
f 311 124 125
f 219 229 310
f 125 440 311
f 219 310 311
f 126 440 125
f 461 246 339
f 36 37 812
f 605 236 442
f 333 314 607
f 318 444 451
f 90 91 315
f 298 315 91
f 94 603 445
f 718 719 720
f 318 317 25
f 243 317 240
f 26 225 318
f 225 443 444
f 319 322 321
f 321 241 325
f 321 320 241
f 320 321 322
f 325 241 326
f 328 326 224
f 322 319 324
f 20 21 322
f 328 323 326
f 336 338 323
f 448 319 330
f 19 447 18
f 326 241 224
f 325 323 327
f 328 224 244
f 323 325 326
f 335 336 328
f 1167 410 570
f 244 333 332
f 313 809 606
f 325 329 321
f 330 329 327
f 338 612 327
f 611 449 330
f 37 38 610
f 332 335 328
f 240 451 244
f 335 332 1203
f 236 605 607
f 332 333 1153
f 606 609 452
f 1182 930 795
f 1203 332 331
f 336 335 334
f 455 338 336
f 328 336 323
f 1030 609 1031
f 1029 411 1182
f 337 813 612
f 327 323 338
f 297 339 110
f 463 614 817
f 127 1170 639
f 973 1201 972
f 341 628 638
f 639 1220 638
f 615 616 464
f 670 153 668
f 341 620 463
f 635 637 247
f 344 248 642
f 160 344 658
f 346 132 133
f 344 345 248
f 347 133 134
f 248 345 346
f 643 349 134
f 349 350 347
f 469 136 353
f 1139 248 346
f 643 134 135
f 350 349 348
f 348 1140 350
f 650 1142 1155
f 138 139 468
f 1144 356 249
f 355 352 493
f 249 351 354
f 180 470 472
f 136 469 135
f 468 351 138
f 355 354 352
f 258 373 493
f 181 180 472
f 249 356 351
f 136 356 353
f 474 1154 178
f 356 1144 353
f 176 647 177
f 1154 1216 471
f 651 176 175
f 361 480 659
f 852 853 657
f 852 854 478
f 480 158 159
f 361 659 1145
f 663 664 483
f 1172 169 674
f 664 857 483
f 1149 381 377
f 1146 252 1147
f 484 364 1159
f 156 478 1157
f 365 854 1146
f 156 615 1160
f 630 862 830
f 368 367 172
f 369 367 254
f 489 172 173
f 667 208 370
f 254 490 371
f 401 282 400
f 254 368 370
f 368 489 667
f 491 206 205
f 492 401 369
f 279 372 140
f 468 258 352
f 493 182 355
f 393 373 258
f 103 641 837
f 818 464 616
f 148 513 514
f 706 885 884
f 102 1191 1192
f 1118 1128 1099
f 152 665 1162
f 377 499 867
f 377 867 869
f 859 362 857
f 523 525 164
f 877 681 879
f 981 976 875
f 877 879 503
f 504 498 381
f 381 1149 1150
f 506 165 166
f 277 507 261
f 700 199 198
f 62 63 529
f 148 503 1163
f 741 704 522
f 717 891 716
f 884 885 514
f 517 145 388
f 386 263 891
f 72 265 387
f 388 387 265
f 707 388 265
f 517 386 515
f 739 77 518
f 727 728 887
f 69 740 522
f 270 519 520
f 742 270 520
f 525 1175 164
f 531 534 530
f 531 529 392
f 373 393 183
f 258 279 393
f 541 439 394
f 542 756 755
f 13 776 777
f 546 760 397
f 756 280 758
f 909 777 548
f 546 209 210
f 763 397 760
f 927 787 926
f 555 556 17
f 928 558 562
f 1114 1121 561
f 401 400 170
f 403 400 782
f 171 401 170
f 369 371 492
f 282 404 553
f 880 402 553
f 782 400 282
f 403 402 781
f 404 783 553
f 404 492 491
f 554 784 785
f 450 449 788
f 764 766 768
f 556 927 17
f 565 202 201
f 783 407 1181
f 687 261 682
f 682 382 506
f 1232 596 1068
f 582 422 583
f 794 196 197
f 410 285 1066
f 813 454 612
f 337 455 457
f 196 195 573
f 695 538 694
f 194 193 418
f 800 801 802
f 413 194 579
f 415 288 577
f 575 415 58
f 578 415 414
f 417 416 192
f 418 416 288
f 191 417 192
f 419 577 289
f 288 415 578
f 418 579 194
f 577 419 56
f 292 419 289
f 290 593 591
f 580 935 42
f 589 584 588
f 426 189 598
f 568 193 194
f 596 594 422
f 424 423 46
f 425 423 295
f 47 424 46
f 226 188 426
f 589 295 427
f 584 806 583
f 189 190 598
f 424 426 295
f 583 806 421
f 295 426 427
f 429 428 159
f 213 428 296
f 158 487 431
f 430 429 431
f 433 430 1201
f 296 429 430
f 158 431 429
f 431 366 862
f 629 624 631
f 129 1223 1221
f 1201 430 253
f 1222 1223 432
f 129 130 434
f 599 434 130
f 435 602 445
f 719 892 316
f 231 436 221
f 315 436 237
f 438 437 305
f 1151 437 280
f 1180 306 754
f 438 759 758
f 439 180 302
f 439 309 1151
f 440 126 462
f 311 440 312
f 311 441 219
f 461 441 312
f 33 442 236
f 34 313 442
f 1137 214 228
f 443 314 444
f 314 333 444
f 451 333 244
f 603 94 95
f 604 445 316
f 322 446 20
f 447 446 324
f 450 447 324
f 447 450 1152
f 449 448 330
f 450 283 1152
f 611 330 814
f 1094 1114 1125
f 324 448 450
f 449 450 448
f 318 451 240
f 444 333 451
f 452 605 606
f 332 1153 331
f 38 949 610
f 285 410 1167
f 457 459 337
f 921 919 920
f 1033 1204 1032
f 337 338 455
f 1076 946 1025
f 813 459 460
f 1204 455 334
f 456 1038 459
f 942 453 938
f 1029 571 799
f 456 459 457
f 459 458 460
f 458 815 460
f 929 454 1004
f 441 461 297
f 1138 461 312
f 639 462 127
f 440 462 340
f 108 109 614
f 341 465 620
f 616 155 154
f 861 860 488
f 247 343 617
f 343 618 617
f 624 634 247
f 1191 102 103
f 642 248 848
f 649 656 359
f 372 468 139
f 354 468 352
f 1144 645 353
f 348 643 469
f 471 470 179
f 472 470 357
f 1154 179 178
f 250 1141 1216
f 357 249 472
f 644 472 249
f 645 473 1141
f 473 645 1144
f 1156 474 143
f 1154 474 358
f 648 650 475
f 646 1156 143
f 849 175 174
f 173 661 662
f 477 157 479
f 478 477 360
f 478 360 852
f 1157 365 486
f 480 479 158
f 477 479 361
f 159 160 658
f 659 251 1145
f 855 856 1199
f 476 652 654
f 482 856 855
f 855 655 662
f 664 171 170
f 483 857 1158
f 665 485 484
f 868 867 499
f 485 154 486
f 484 485 364
f 1157 486 155
f 485 486 365
f 488 487 157
f 431 487 366
f 1160 157 156
f 861 666 860
f 667 256 208
f 172 489 368
f 370 490 254
f 206 490 207
f 205 404 491
f 492 404 282
f 401 492 282
f 371 491 492
f 258 493 352
f 182 493 373
f 669 152 151
f 866 670 494
f 495 865 864
f 863 494 669
f 148 514 1164
f 496 885 1161
f 1224 497 101
f 1134 497 376
f 499 498 151
f 381 498 377
f 1162 151 152
f 868 673 867
f 675 168 167
f 1172 500 1173
f 501 678 680
f 870 500 675
f 502 149 504
f 503 502 380
f 503 380 877
f 1163 384 511
f 498 504 150
f 502 504 381
f 506 505 165
f 508 505 382
f 566 506 166
f 682 261 507
f 508 277 275
f 682 507 382
f 277 508 507
f 163 508 275
f 691 693 509
f 791 407 565
f 803 198 197
f 697 538 695
f 1163 511 147
f 512 511 384
f 702 384 262
f 705 512 704
f 513 147 515
f 514 513 385
f 514 385 884
f 1164 496 672
f 517 515 146
f 513 515 386
f 890 983 982
f 709 711 263
f 388 707 710
f 386 517 709
f 1202 77 78
f 238 601 892
f 68 519 272
f 520 519 390
f 881 520 390
f 978 875 680
f 522 521 69
f 519 521 390
f 741 740 70
f 704 702 703
f 524 523 163
f 525 523 391
f 527 163 162
f 272 270 744
f 1177 1176 525
f 1175 1176 679
f 742 391 270
f 526 742 743
f 744 271 272
f 163 527 524
f 276 528 64
f 529 528 392
f 532 534 392
f 537 62 529
f 536 535 751
f 62 1165 61
f 540 392 539
f 1225 537 530
f 277 261 745
f 692 694 383
f 533 537 1225
f 286 801 1186
f 392 534 531
f 746 536 532
f 535 536 746
f 685 687 683
f 532 536 534
f 751 535 750
f 530 537 531
f 537 533 1165
f 510 574 695
f 536 538 699
f 540 539 264
f 528 539 392
f 277 540 264
f 392 540 532
f 439 541 179
f 753 541 394
f 757 280 756
f 752 755 544
f 910 13 777
f 543 911 897
f 544 212 752
f 396 903 544
f 546 545 209
f 547 545 397
f 902 761 546
f 763 760 281
f 763 547 397
f 207 992 206
f 775 1226 774
f 777 911 910
f 926 15 16
f 778 549 398
f 992 547 765
f 912 780 550
f 913 551 914
f 554 785 917
f 552 880 688
f 552 688 566
f 404 204 783
f 880 686 688
f 202 203 916
f 1005 405 1006
f 1152 18 447
f 556 555 406
f 556 406 558
f 787 560 1115
f 559 558 406
f 559 283 788
f 406 1152 559
f 562 558 557
f 283 450 788
f 558 559 1121
f 560 562 563
f 398 549 787
f 449 611 1002
f 1002 789 449
f 562 557 1113
f 562 560 928
f 1123 1125 1122
f 547 763 765
f 565 564 202
f 783 564 407
f 689 565 201
f 693 792 509
f 552 566 167
f 566 408 683
f 567 195 569
f 568 567 409
f 1066 285 1064
f 568 422 585
f 569 196 794
f 567 569 410
f 795 197 198
f 1167 570 1218
f 932 200 786
f 200 201 925
f 573 572 196
f 574 572 412
f 195 413 573
f 287 800 413
f 1178 286 698
f 700 574 510
f 576 575 59
f 415 575 414
f 1184 1217 1185
f 414 576 1183
f 57 577 56
f 288 417 577
f 287 578 414
f 288 578 418
f 418 578 579
f 287 579 578
f 44 587 805
f 936 935 580
f 582 581 191
f 427 581 421
f 585 582 192
f 583 422 290
f 584 583 290
f 421 582 583
f 590 584 591
f 805 588 590
f 568 585 193
f 582 585 422
f 423 586 45
f 587 586 425
f 588 587 425
f 43 805 580
f 589 588 425
f 590 588 584
f 295 589 425
f 427 421 806
f 591 584 290
f 580 590 420
f 593 290 594
f 420 590 591
f 1231 592 1232
f 593 597 591
f 594 290 422
f 593 592 595
f 596 422 568
f 593 594 807
f 285 931 1062
f 1212 936 595
f 1068 568 409
f 593 807 592
f 593 595 597
f 420 597 595
f 581 598 190
f 426 598 427
f 130 213 599
f 296 599 213
f 602 298 92
f 601 600 435
f 601 435 604
f 238 221 601
f 445 602 93
f 600 602 435
f 726 603 729
f 732 731 726
f 604 316 892
f 435 445 604
f 606 605 313
f 607 605 452
f 313 35 809
f 609 331 1153
f 333 607 452
f 607 314 1137
f 812 37 610
f 1189 609 606
f 609 1189 810
f 1030 331 609
f 949 39 811
f 950 951 952
f 814 327 612
f 789 561 788
f 337 612 338
f 814 454 611
f 798 1010 1012
f 561 789 1003
f 339 246 816
f 463 817 341
f 616 615 155
f 1160 615 464
f 670 154 153
f 342 464 818
f 618 343 106
f 619 617 465
f 107 618 106
f 465 617 618
f 619 465 621
f 634 635 247
f 465 618 620
f 107 620 618
f 625 621 341
f 832 629 974
f 631 625 632
f 366 488 860
f 625 638 623
f 1222 633 1219
f 631 619 621
f 627 955 831
f 817 614 816
f 629 622 624
f 625 623 632
f 623 1219 1048
f 342 820 824
f 828 627 831
f 1138 1168 246
f 639 638 628
f 631 624 619
f 1048 974 626
f 366 860 862
f 832 630 830
f 625 631 621
f 629 631 626
f 633 1048 1219
f 631 632 626
f 633 1201 973
f 973 974 633
f 955 624 622
f 635 634 627
f 636 635 627
f 635 466 637
f 820 342 818
f 836 833 636
f 637 466 640
f 247 637 343
f 341 638 625
f 628 1168 639
f 462 639 340
f 127 128 1170
f 641 640 466
f 104 105 640
f 636 833 466
f 641 466 833
f 248 1139 848
f 660 658 1171
f 349 643 348
f 135 469 643
f 354 644 249
f 181 644 355
f 1141 250 1140
f 348 469 645
f 647 646 177
f 475 1155 1156
f 649 176 651
f 649 359 648
f 650 648 359
f 475 647 648
f 176 649 647
f 649 476 656
f 966 967 359
f 1143 1142 958
f 652 651 175
f 649 651 476
f 174 173 662
f 655 653 654
f 853 962 964
f 660 467 970
f 655 654 652
f 654 653 656
f 849 655 652
f 655 481 961
f 959 656 653
f 968 967 851
f 360 1145 853
f 657 853 964
f 344 642 658
f 1171 467 660
f 480 660 659
f 660 970 1042
f 658 660 480
f 851 970 467
f 661 172 663
f 662 661 482
f 855 662 482
f 662 655 849
f 664 663 171
f 661 663 483
f 170 169 1172
f 1158 857 362
f 485 665 153
f 1162 665 484
f 824 826 342
f 862 253 431
f 368 667 370
f 256 667 489
f 669 668 152
f 670 668 494
f 671 669 151
f 494 863 374
f 866 494 374
f 616 154 670
f 671 150 672
f 669 671 495
f 1164 672 149
f 671 672 496
f 1100 980 1083
f 870 871 378
f 675 674 168
f 1172 674 500
f 676 675 167
f 871 872 680
f 677 676 166
f 675 676 501
f 165 164 1175
f 678 677 679
f 680 678 379
f 501 677 678
f 677 165 1175
f 679 1176 986
f 896 379 986
f 260 1149 869
f 380 1150 878
f 896 526 743
f 683 506 566
f 683 682 506
f 684 685 686
f 682 683 687
f 284 407 791
f 535 746 747
f 686 685 408
f 685 684 687
f 688 686 408
f 686 284 793
f 684 693 749
f 748 746 745
f 566 688 408
f 880 552 402
f 690 689 200
f 565 689 509
f 692 199 700
f 692 383 691
f 693 691 383
f 509 690 691
f 199 692 690
f 692 510 694
f 535 747 750
f 684 686 793
f 695 694 510
f 694 538 751
f 1178 574 412
f 696 699 697
f 696 697 698
f 1185 1186 801
f 698 697 695
f 696 1225 699
f 1178 695 574
f 698 286 1188
f 536 699 530
f 538 697 699
f 700 198 803
f 692 700 510
f 511 701 146
f 705 701 512
f 703 702 262
f 704 512 702
f 743 520 882
f 703 881 522
f 522 704 703
f 705 704 266
f 268 705 266
f 701 705 145
f 716 263 713
f 1087 1105 1215
f 73 983 1053
f 710 709 517
f 890 516 707
f 888 75 389
f 517 388 710
f 709 710 711
f 707 516 710
f 516 1179 710
f 712 713 714
f 727 269 720
f 736 1109 735
f 263 711 713
f 714 711 1179
f 712 715 716
f 889 708 887
f 722 724 727
f 1105 1087 1103
f 844 1049 847
f 712 716 713
f 1103 717 715
f 884 717 706
f 891 717 385
f 739 718 389
f 719 718 518
f 719 984 892
f 725 726 723
f 719 723 722
f 719 722 720
f 723 726 721
f 738 895 737
f 723 719 316
f 724 722 721
f 725 723 316
f 721 722 723
f 726 731 721
f 724 728 727
f 445 725 316
f 725 603 726
f 729 603 95
f 731 732 730
f 722 727 720
f 733 735 737
f 889 714 516
f 708 886 887
f 95 96 729
f 732 893 1193
f 1129 1130 1131
f 733 737 724
f 732 726 729
f 733 731 730
f 96 893 729
f 732 729 893
f 735 733 730
f 721 733 724
f 985 732 894
f 714 895 738
f 736 735 730
f 735 734 737
f 1129 99 1118
f 100 1134 99
f 737 734 738
f 728 724 737
f 1108 738 734
f 712 714 738
f 77 739 76
f 718 739 518
f 69 70 740
f 71 741 70
f 704 741 266
f 522 740 741
f 743 742 520
f 526 1176 1177
f 520 881 882
f 882 262 883
f 524 744 270
f 271 744 527
f 747 748 687
f 540 745 532
f 532 745 746
f 745 261 748
f 687 749 747
f 750 383 751
f 687 748 261
f 746 748 747
f 684 749 687
f 750 749 693
f 749 750 747
f 693 383 750
f 694 751 383
f 751 538 536
f 753 143 178
f 752 542 755
f 753 178 541
f 542 752 753
f 897 899 754
f 306 10 898
f 542 757 756
f 396 544 755
f 758 280 438
f 396 755 756
f 753 757 542
f 757 394 1151
f 759 438 899
f 756 758 900
f 778 1226 775
f 756 900 396
f 902 546 210
f 761 760 546
f 900 759 1229
f 760 761 762
f 1227 761 903
f 770 768 767
f 766 763 281
f 766 765 763
f 768 281 907
f 764 1194 1088
f 764 904 765
f 904 399 906
f 907 281 762
f 765 766 764
f 774 771 772
f 1093 769 1095
f 281 768 766
f 770 772 769
f 1088 904 764
f 770 1194 768
f 772 770 767
f 1092 1194 769
f 907 908 767
f 1095 771 1096
f 767 908 774
f 772 771 1095
f 762 1227 1228
f 988 901 759
f 767 774 772
f 774 773 775
f 901 988 990
f 775 548 778
f 549 776 14
f 777 776 548
f 548 775 909
f 12 910 543
f 778 398 1226
f 548 549 778
f 992 779 206
f 780 779 550
f 912 550 399
f 780 914 915
f 403 781 168
f 402 552 781
f 403 782 402
f 282 553 782
f 564 783 203
f 1181 407 284
f 784 202 916
f 925 554 786
f 785 916 915
f 554 917 405
f 922 924 405
f 797 571 796
f 926 549 15
f 787 927 928
f 789 788 449
f 559 788 561
f 929 1002 454
f 1003 789 1002
f 919 994 922
f 922 917 918
f 792 791 565
f 284 791 793
f 509 792 565
f 793 693 684
f 791 792 793
f 693 793 792
f 795 794 197
f 794 570 410
f 796 795 198
f 1182 795 571
f 797 796 199
f 795 796 571
f 200 797 199
f 932 786 933
f 571 797 799
f 799 797 932
f 797 200 932
f 799 798 934
f 800 287 801
f 573 413 800
f 287 414 1183
f 60 61 1217
f 801 286 802
f 412 802 286
f 572 803 197
f 700 803 574
f 945 939 943
f 1196 1197 1211
f 44 805 43
f 805 587 588
f 584 589 806
f 427 806 589
f 594 596 807
f 1066 1068 409
f 1022 1021 931
f 938 811 940
f 36 809 35
f 809 608 1189
f 1190 952 608
f 948 1037 1075
f 39 1196 1195
f 1212 1213 804
f 950 610 453
f 809 1190 608
f 459 813 337
f 454 813 460
f 327 814 330
f 454 814 612
f 815 458 1074
f 1058 999 1000
f 816 246 1168
f 614 339 816
f 816 628 817
f 628 341 817
f 954 616 670
f 616 954 818
f 822 825 828
f 818 819 820
f 820 819 823
f 820 825 824
f 827 823 819
f 845 834 842
f 831 955 829
f 826 666 342
f 866 819 954
f 824 825 822
f 825 820 823
f 824 822 826
f 823 821 825
f 841 828 825
f 822 829 826
f 832 829 622
f 374 1086 827
f 821 823 827
f 841 821 838
f 636 627 828
f 831 829 822
f 832 830 829
f 666 826 830
f 829 830 826
f 828 831 822
f 627 634 955
f 622 629 832
f 974 629 626
f 641 833 837
f 834 836 838
f 834 838 842
f 1224 101 1192
f 837 836 839
f 834 840 839
f 838 836 636
f 839 836 834
f 836 837 833
f 837 835 1191
f 841 636 828
f 838 821 842
f 842 1205 845
f 837 839 835
f 259 1224 956
f 835 839 840
f 821 841 825
f 636 841 838
f 843 821 827
f 821 843 842
f 1085 863 864
f 834 845 846
f 864 865 1084
f 956 847 259
f 1205 842 843
f 846 845 844
f 846 844 847
f 834 846 840
f 1050 844 1205
f 1051 375 1087
f 848 350 1143
f 642 848 969
f 175 849 652
f 662 849 174
f 964 960 965
f 1042 659 660
f 359 656 966
f 966 959 851
f 853 852 360
f 1047 854 657
f 960 962 850
f 960 850 959
f 1146 854 252
f 854 365 1157
f 482 1158 856
f 655 855 481
f 362 1043 1045
f 963 1200 1047
f 1172 1173 1174
f 857 664 1174
f 876 980 378
f 1174 859 857
f 980 858 1173
f 1045 971 1046
f 488 1160 861
f 862 860 666
f 464 342 861
f 666 861 342
f 830 862 666
f 630 972 862
f 495 864 669
f 863 669 864
f 495 1161 865
f 975 1049 1050
f 975 1102 1051
f 975 1050 1084
f 374 827 866
f 819 866 827
f 499 1162 868
f 869 867 673
f 1159 868 484
f 868 363 1082
f 871 874 876
f 260 869 976
f 872 675 501
f 870 872 871
f 680 874 871
f 876 378 871
f 675 872 870
f 680 872 501
f 874 875 873
f 977 869 673
f 875 874 680
f 876 874 873
f 978 680 379
f 878 681 877
f 977 873 976
f 971 1148 1147
f 878 877 380
f 681 262 879
f 260 981 878
f 978 979 875
f 262 384 879
f 879 384 1163
f 1181 553 783
f 686 880 284
f 522 881 390
f 881 703 882
f 703 262 882
f 883 262 681
f 979 1052 878
f 743 882 883
f 717 884 385
f 706 375 885
f 1161 885 375
f 885 496 1164
f 887 886 269
f 886 708 888
f 727 887 269
f 887 728 889
f 982 888 708
f 74 75 888
f 889 728 895
f 890 889 516
f 1053 707 265
f 983 74 982
f 386 891 385
f 716 891 263
f 892 601 604
f 984 719 518
f 97 1193 96
f 732 1193 894
f 1131 97 98
f 732 985 730
f 889 895 714
f 737 895 728
f 743 883 896
f 681 1052 883
f 899 897 395
f 987 754 898
f 10 11 898
f 987 898 11
f 754 899 438
f 395 759 899
f 758 759 900
f 1229 759 901
f 988 759 395
f 1228 773 908
f 210 211 902
f 991 902 211
f 1227 903 396
f 902 903 761
f 768 1194 764
f 906 399 550
f 1092 1093 1090
f 1056 998 997
f 550 779 992
f 765 904 906
f 908 907 762
f 768 907 767
f 762 761 1227
f 908 773 774
f 990 988 989
f 911 543 910
f 13 910 12
f 911 777 909
f 989 911 909
f 911 395 897
f 913 912 399
f 915 914 551
f 1054 1055 993
f 995 999 996
f 780 912 914
f 913 914 912
f 915 551 918
f 204 915 203
f 915 916 203
f 784 916 785
f 785 918 917
f 918 920 922
f 915 918 785
f 918 551 920
f 551 921 920
f 1008 923 1009
f 921 551 913
f 922 920 919
f 913 399 1055
f 921 913 1054
f 994 924 922
f 917 922 405
f 923 994 996
f 790 1000 999
f 1009 1001 1008
f 798 799 1028
f 784 925 201
f 786 200 925
f 927 926 16
f 549 926 787
f 17 927 16
f 558 928 556
f 787 928 560
f 556 928 927
f 1004 454 460
f 815 1059 1004
f 411 931 1218
f 570 795 930
f 934 1013 1015
f 942 939 1039
f 786 1005 933
f 799 932 1028
f 1006 933 1005
f 924 1007 1006
f 1011 1012 1001
f 815 1074 1071
f 936 580 420
f 935 804 1198
f 595 936 420
f 804 935 936
f 812 950 952
f 1204 457 455
f 949 938 610
f 811 1195 943
f 1232 592 807
f 940 942 938
f 811 39 1195
f 940 939 942
f 40 1197 1196
f 1207 1209 1212
f 945 947 939
f 1036 1038 1035
f 811 943 940
f 941 1210 945
f 1207 592 1231
f 1067 808 1064
f 941 945 943
f 1214 947 945
f 1015 411 934
f 948 1039 947
f 1214 945 944
f 947 946 948
f 1025 1016 1020
f 937 1230 1035
f 39 949 38
f 938 949 811
f 950 453 951
f 812 610 950
f 1040 453 942
f 951 1230 1031
f 951 810 952
f 952 810 1189
f 1024 1026 1027
f 1022 931 411
f 866 954 670
f 818 954 819
f 624 955 634
f 829 955 622
f 1224 259 376
f 846 956 840
f 1106 1103 715
f 259 847 1041
f 848 1143 958
f 650 967 958
f 960 959 653
f 851 959 850
f 961 960 653
f 962 251 1042
f 655 961 653
f 1199 965 481
f 964 962 960
f 853 251 962
f 1199 963 965
f 1046 1200 1045
f 965 960 961
f 657 964 963
f 481 965 961
f 963 964 965
f 959 966 656
f 967 966 851
f 851 467 968
f 359 967 650
f 969 968 467
f 958 967 968
f 642 969 467
f 958 969 848
f 851 850 970
f 1042 970 850
f 971 1043 1044
f 363 1159 1147
f 973 972 630
f 253 862 972
f 974 973 630
f 633 432 1201
f 832 974 630
f 626 632 1048
f 1051 865 375
f 1049 1079 1041
f 977 976 869
f 875 976 873
f 1082 1044 1081
f 876 873 977
f 379 896 978
f 979 878 981
f 978 896 979
f 896 883 1052
f 1083 1101 1081
f 673 1081 977
f 976 981 260
f 979 981 875
f 888 982 74
f 708 890 982
f 890 707 1053
f 74 983 73
f 1202 518 77
f 238 892 984
f 894 736 985
f 736 730 985
f 679 986 379
f 526 896 986
f 11 543 987
f 897 987 543
f 989 395 911
f 909 990 989
f 990 909 775
f 395 989 988
f 775 773 990
f 901 990 773
f 211 544 991
f 903 991 544
f 547 992 207
f 550 992 906
f 1093 1057 1090
f 1089 1091 998
f 997 996 994
f 923 924 994
f 998 1056 1054
f 997 998 995
f 997 994 919
f 995 1123 999
f 1056 919 921
f 995 996 997
f 993 1089 998
f 1124 998 1091
f 1000 790 929
f 996 999 1058
f 1000 929 1004
f 613 1060 1009
f 1071 1072 1073
f 1028 1007 1010
f 454 1002 611
f 1003 1002 929
f 929 790 1003
f 1003 790 1122
f 460 815 1004
f 815 613 1059
f 786 554 1005
f 405 1005 554
f 405 924 1006
f 923 1008 924
f 1010 1007 1001
f 933 1006 1007
f 1001 1007 1008
f 924 1008 1007
f 1058 923 996
f 613 1206 1059
f 1011 1001 1060
f 1010 798 1028
f 934 1012 1013
f 1012 934 798
f 1001 1012 1010
f 1012 1011 1013
f 1014 1011 1072
f 1013 1011 1014
f 1023 1017 1019
f 1017 1014 953
f 1023 1013 1014
f 411 1015 1022
f 1017 1020 1016
f 1097 1021 1016
f 1020 1017 1024
f 1019 1017 1016
f 1018 1020 1024
f 1037 1077 1036
f 1019 1016 1021
f 1023 1019 1015
f 1024 1017 953
f 1025 1020 1018
f 1016 1098 1097
f 931 1021 1062
f 1015 1019 1022
f 1021 1022 1019
f 1013 1023 1015
f 1017 1023 1014
f 953 1026 1024
f 1027 1018 1024
f 1077 1076 1018
f 1025 946 1098
f 1026 953 1071
f 456 1035 1038
f 1026 1074 1078
f 1035 456 1033
f 932 933 1028
f 1028 933 1007
f 799 934 1029
f 411 1029 934
f 1031 609 810
f 1032 1030 937
f 951 1031 810
f 937 1030 1031
f 1033 1032 937
f 334 335 1203
f 1031 1230 937
f 1204 456 457
f 1040 951 453
f 1018 1027 1077
f 937 1035 1033
f 1036 1035 1034
f 1036 1034 1037
f 1036 1027 1038
f 1034 1040 1075
f 1037 948 1076
f 1078 1027 1026
f 1038 1078 459
f 947 1039 939
f 1075 1039 948
f 942 1039 1075
f 1230 1040 1034
f 1041 847 1049
f 1099 1041 1117
f 962 1042 850
f 659 1042 251
f 1044 1043 859
f 1045 1043 971
f 1100 859 858
f 977 1101 876
f 1147 1046 971
f 362 1045 856
f 1047 1046 252
f 963 1199 1200
f 854 1047 252
f 963 1047 657
f 623 1048 632
f 633 974 1048
f 1050 1049 844
f 1049 975 1079
f 1085 1050 1086
f 1085 864 1084
f 1087 375 706
f 1051 1215 1079
f 878 1052 681
f 896 1052 979
f 73 1053 265
f 890 1053 983
f 1055 1054 913
f 998 1054 993
f 1088 399 904
f 905 993 1055
f 919 1056 997
f 1054 1056 921
f 1057 1089 1090
f 1112 1113 1094
f 1206 1058 1000
f 1009 923 1058
f 1206 613 1009
f 1004 1059 1206
f 1060 613 1073
f 1001 1009 1060
f 1070 1065 1069
f 1021 1063 1062
f 1021 1097 1063
f 1066 1064 808
f 1063 1069 1067
f 1231 1067 1065
f 285 1062 1064
f 1063 1064 1062
f 1061 1070 1069
f 592 1207 595
f 1068 1066 808
f 1066 409 410
f 1064 1063 1067
f 1069 1063 1061
f 1068 808 1232
f 1068 596 568
f 1061 1098 1070
f 1065 1067 1069
f 1214 946 947
f 1214 1208 1070
f 953 1014 1072
f 815 1071 613
f 1073 1072 1011
f 953 1072 1071
f 1060 1073 1011
f 613 1071 1073
f 1078 1074 458
f 1071 1074 1026
f 1034 1075 1037
f 1040 942 1075
f 946 1076 948
f 1018 1076 1025
f 1036 1077 1027
f 1076 1077 1037
f 459 1078 458
f 1027 1078 1038
f 1051 1079 975
f 957 1041 1079
f 1127 1119 1104
f 1126 1080 1117
f 1082 1081 673
f 1083 1081 1044
f 868 1082 673
f 1044 1082 363
f 1100 1044 859
f 1101 980 876
f 865 1051 1102
f 1085 1084 1050
f 1050 1205 1086
f 1085 374 863
f 827 1086 843
f 374 1085 1086
f 1103 706 717
f 1087 706 1103
f 905 1055 1088
f 399 1088 1055
f 1090 1089 993
f 1091 1089 1057
f 993 905 1090
f 1092 1090 905
f 1057 1094 1091
f 1114 1094 557
f 1194 1092 905
f 1093 1092 769
f 769 772 1095
f 1093 563 1112
f 1112 1094 1057
f 557 1121 1114
f 1226 1096 771
f 1093 1095 1116
f 1115 398 787
f 1116 560 563
f 1098 1016 1025
f 1063 1097 1061
f 1070 1098 946
f 1097 1098 1061
f 1117 1041 957
f 1099 1080 1118
f 980 1100 858
f 1044 1100 1083
f 1081 1101 977
f 980 1101 1083
f 975 1084 1102
f 865 1102 1084
f 715 1107 1106
f 1106 1105 1103
f 1107 1111 1104
f 1111 1110 1104
f 1119 1105 1104
f 1215 1105 957
f 1107 715 712
f 1105 1106 1104
f 1108 1107 712
f 1104 1106 1107
f 738 1108 712
f 1109 1108 734
f 735 1109 734
f 1109 736 1110
f 1135 1110 736
f 1117 1080 1099
f 1108 1111 1107
f 1110 1111 1109
f 1093 1112 1057
f 1113 1112 563
f 562 1113 563
f 557 1094 1113
f 561 1122 1114
f 1123 1122 790
f 1116 1115 560
f 398 1115 1096
f 1095 1096 1116
f 1116 1096 1115
f 1119 957 1105
f 1119 1127 1117
f 1118 1080 1129
f 497 1134 100
f 1127 1104 1110
f 1117 957 1119
f 894 1133 736
f 98 1132 1131
f 558 1121 557
f 561 1121 559
f 1003 1122 561
f 790 999 1123
f 995 1124 1123
f 1123 1124 1125
f 998 1124 995
f 1125 1124 1091
f 1094 1125 1091
f 1122 1125 1114
f 1135 1126 1110
f 1130 1126 1120
f 1110 1126 1127
f 1117 1127 1126
f 376 259 1128
f 1099 1128 259
f 1130 1129 1080
f 98 99 1132
f 1126 1130 1080
f 1130 1120 1131
f 1120 1133 1131
f 1131 1133 97
f 99 1129 1132
f 1131 1132 1129
f 1133 1120 1135
f 97 1133 894
f 99 1134 1118
f 1128 1134 376
f 1133 1135 736
f 1126 1135 1120
f 237 1136 230
f 220 1136 82
f 607 1137 236
f 443 1137 314
f 461 1138 246
f 440 1138 312
f 347 350 1139
f 848 1139 350
f 1141 348 645
f 1140 250 1142
f 1141 473 1216
f 348 1141 1140
f 1155 1142 250
f 958 1142 650
f 350 1140 1143
f 1142 1143 1140
f 249 357 1144
f 473 1144 357
f 853 1145 251
f 360 361 1145
f 252 1046 1147
f 364 365 1146
f 971 1044 1148
f 364 1146 1147
f 1044 363 1148
f 363 1147 1148
f 869 1149 377
f 1150 1149 260
f 878 1150 260
f 380 381 1150
f 437 1151 309
f 757 1151 280
f 559 1152 283
f 555 1152 406
f 333 452 1153
f 609 1153 452
f 358 250 1216
f 179 1154 471
f 1156 1155 358
f 650 1155 475
f 1156 358 474
f 475 1156 646
f 156 1157 155
f 854 1157 478
f 856 1158 362
f 482 483 1158
f 1147 1159 364
f 868 1159 363
f 861 1160 464
f 157 1160 488
f 865 1161 375
f 495 496 1161
f 868 1162 484
f 151 1162 499
f 148 1163 147
f 879 1163 503
f 148 1164 149
f 885 1164 514
f 537 1165 62
f 1165 533 1187
f 696 1188 1187
f 801 287 1183
f 1218 570 930
f 285 1167 1218
f 639 1168 340
f 816 1168 628
f 1220 623 638
f 1170 1221 1169
f 1221 1170 128
f 1220 1170 1169
f 658 642 1171
f 467 1171 642
f 870 1173 500
f 170 1172 664
f 980 1173 378
f 1174 1173 858
f 1174 858 859
f 664 1172 1174
f 1176 1175 525
f 677 1175 679
f 1177 525 391
f 1176 526 986
f 391 742 1177
f 526 1177 742
f 286 1178 412
f 695 1178 698
f 710 1179 711
f 516 714 1179
f 438 305 1180
f 1180 305 308
f 284 880 1181
f 553 1181 880
f 1029 1182 571
f 930 1182 411
f 1184 1183 576
f 1185 1166 1186
f 59 1184 576
f 1184 60 1217
f 801 1183 1185
f 1184 1185 1183
f 1187 1186 1166
f 1188 1186 1187
f 1165 1187 1166
f 1187 533 1225
f 698 1188 696
f 286 1186 1188
f 809 1189 606
f 952 1189 608
f 952 1190 812
f 36 812 1190
f 837 1191 103
f 1192 1191 835
f 835 840 1192
f 1192 840 1224
f 96 1193 893
f 97 894 1193
f 769 1194 770
f 1088 1194 905
f 1196 39 40
f 943 1195 941
f 1197 40 41
f 941 1195 1196
f 41 1198 1197
f 1210 1211 1213
f 935 1198 41
f 1198 804 1213
f 855 1199 481
f 1200 1199 856
f 1045 1200 856
f 1200 1046 1047
f 433 1201 432
f 972 1201 253
f 1202 78 242
f 518 1202 984
f 1030 1203 331
f 334 1203 1032
f 1032 1204 334
f 456 1204 1033
f 845 1205 844
f 1086 1205 843
f 1058 1206 1009
f 1004 1206 1000
f 1065 1208 1207
f 1208 1209 1207
f 1070 1208 1065
f 1209 1208 944
f 1210 1209 944
f 1213 1212 1209
f 945 1210 944
f 1211 1210 941
f 1196 1211 941
f 1197 1198 1213
f 936 1212 804
f 1207 1212 595
f 1210 1213 1209
f 1213 1211 1197
f 1208 1214 944
f 946 1214 1070
f 1079 1215 957
f 1087 1215 1051
f 471 1216 473
f 358 1216 1154
f 1165 1217 61
f 1217 1166 1185
f 411 1218 930
f 285 1218 931
f 1220 1219 623
f 1222 1219 1169
f 1170 1220 639
f 1219 1220 1169
f 128 129 1221
f 129 434 1223
f 633 1222 432
f 1169 1221 1222
f 432 1223 434
f 1221 1223 1222
f 956 1224 840
f 1224 376 497
f 699 1225 530
f 1187 1225 696
f 1096 1226 398
f 774 1226 771
f 1229 396 900
f 901 773 1228
f 762 1228 908
f 901 1228 1227
f 901 1227 1229
f 396 1229 1227
f 1040 1230 951
f 1035 1230 1034
f 1067 1231 808
f 1207 1231 1065
f 1232 807 596
f 808 1231 1232
