# pattern_smooth best-fit FEM (phase 3), RMSE 34.179 mm
# params: /home/chaoyu/phd_simulation/FDM/optimisation/pattern_smooth_rm2_fixSW_split_p3_result.json
v -0.07938931 -1.09618321 0.00000000
v -0.07364899 -1.08305818 -0.00977076
v -0.06314596 -1.06020847 -0.01312570
v -0.05129594 -1.03622971 -0.01134413
v -0.03884679 -1.01321280 -0.00779498
v -0.02442839 -0.98998801 -0.00251740
v -0.00860677 -0.96547308 0.00534974
v 0.00599671 -0.94266772 0.01445443
v 0.02102198 -0.91821522 0.02559356
v 0.03756563 -0.89451543 0.03508767
v 0.05597426 -0.86858213 0.04644706
v 0.07445744 -0.84208475 0.05864472
v 0.09199276 -0.81657844 0.07030018
v 0.10839713 -0.79394256 0.07911348
v 0.12500014 -0.77113294 0.08572332
v 0.14156315 -0.74971646 0.09119586
v 0.15094293 -0.73758767 0.09214029
v 0.16806386 -0.72789744 0.08887290
v 0.19267854 -0.71742651 0.08344699
v 0.21738913 -0.70749631 0.07655081
v 0.24152517 -0.69877247 0.06420551
v 0.26747945 -0.68971025 0.04998174
v 0.29417551 -0.68105844 0.03668235
v 0.32138133 -0.67349541 0.02598628
v 0.35340026 -0.66609301 0.01545286
v 0.38586361 -0.66181376 0.00525234
v 0.41653646 -0.66295007 -0.00222082
v 0.44250264 -0.66672592 -0.00500798
v 0.47094584 -0.67339328 -0.00474483
v 0.50259542 -0.67541985 0.00000000
v 0.49039294 -0.64682028 0.00000000
v 0.47705156 -0.61803819 0.00000000
v 0.46219909 -0.58938171 0.00000000
v 0.44711907 -0.56028611 0.00000000
v 0.43466338 -0.53625399 0.00000000
v 0.42199442 -0.50695223 0.00000000
v 0.40936106 -0.47587015 0.00000000
v 0.39826563 -0.44857187 0.00000000
v 0.38812015 -0.41671655 0.00000000
v 0.38008588 -0.38478035 0.00000000
v 0.37192372 -0.35233574 0.00000000
v 0.36496608 -0.31949785 0.00000000
v 0.35986056 -0.29113373 0.00000000
v 0.35446270 -0.26114571 0.00000000
v 0.35120710 -0.23184222 0.00000000
v 0.35003794 -0.20144447 0.00000000
v 0.34889887 -0.17182895 0.00000000
v 0.34956442 -0.13632195 0.00000000
v 0.35236641 -0.10870229 0.00000000
v 0.33993784 -0.12528322 0.00438296
v 0.32085010 -0.13657985 0.01150589
v 0.29351274 -0.14923390 0.02160248
v 0.26919943 -0.16027958 0.03032185
v 0.24282687 -0.17208377 0.03947295
v 0.21407487 -0.18471795 0.04903422
v 0.18531778 -0.19708021 0.05810412
v 0.15448943 -0.20985880 0.06708542
v 0.12647185 -0.22100754 0.07449737
v 0.09730318 -0.23222202 0.08150648
v 0.06082694 -0.24558215 0.08910225
v 0.02416070 -0.25841350 0.09558369
v -0.01149466 -0.27018698 0.10062344
v -0.04721660 -0.28147332 0.10466122
v -0.07971749 -0.29131986 0.10752592
v -0.11430763 -0.30170718 0.11000073
v -0.12045714 -0.30348148 0.11039300
v -0.15806671 -0.29911316 0.10878790
v -0.19366417 -0.29549834 0.10726839
v -0.22637813 -0.29209832 0.10542365
v -0.26253982 -0.28844733 0.10306123
v -0.29897318 -0.28502791 0.10036901
v -0.31210846 -0.28379440 0.09927591
v -0.34306775 -0.26934544 0.09361707
v -0.38127027 -0.25210585 0.08621241
v -0.41463253 -0.23707899 0.07921808
v -0.44493887 -0.22345555 0.07243200
v -0.47633065 -0.20908000 0.06491756
v -0.50705077 -0.19481926 0.05710751
v -0.53203911 -0.18310440 0.05043695
v -0.55558986 -0.17189441 0.04389199
v -0.58857430 -0.15550187 0.03436180
v -0.61780279 -0.14060056 0.02557281
v -0.64428103 -0.12678648 0.01736231
v -0.67219875 -0.11203220 0.00843139
v -0.69740458 -0.09893130 0.00000000
v -0.68497826 -0.11682244 -0.00061782
v -0.66673200 -0.14246864 -0.00012845
v -0.65276277 -0.16244889 0.00099473
v -0.63857670 -0.18366692 0.00261768
v -0.62390214 -0.20760416 0.00460363
v -0.60853286 -0.23476814 0.00725780
v -0.59413282 -0.26271062 0.01034089
v -0.58101913 -0.29114607 0.01372238
v -0.56988924 -0.32053404 0.01680195
v -0.56030041 -0.34980398 0.01998260
v -0.55143162 -0.38138300 0.02352565
v -0.54395275 -0.41388944 0.02711988
v -0.53810032 -0.44853667 0.03041251
v -0.53369859 -0.48207255 0.03363412
v -0.53062916 -0.51392330 0.03666638
v -0.52869790 -0.54536557 0.03959695
v -0.52885919 -0.57942758 0.04162098
v -0.53020934 -0.61181020 0.04329210
v -0.53264167 -0.64415254 0.04474012
v -0.53607717 -0.67636571 0.04601577
v -0.54135818 -0.70714715 0.04610819
v -0.54868736 -0.73850815 0.04509021
v -0.55672541 -0.76864063 0.04361997
v -0.56474093 -0.79594001 0.04191416
v -0.57346764 -0.82329533 0.03984830
v -0.58355189 -0.85215300 0.03719691
v -0.59204083 -0.87370840 0.03464492
v -0.60291765 -0.89653552 0.03060383
v -0.61502273 -0.91976396 0.02563361
v -0.62766740 -0.94270398 0.02006279
v -0.64028054 -0.96497763 0.01422757
v -0.65463630 -0.99002931 0.00731448
v -0.66931298 -1.01557252 0.00000000
v -0.65378832 -1.00172904 0.00891059
v -0.63425662 -0.98431246 0.02012103
v -0.61537016 -0.96747122 0.03096116
v -0.59281951 -0.94736254 0.04390440
v -0.56953364 -0.92659828 0.05726962
v -0.54707639 -0.90697251 0.06989819
v -0.51863661 -0.88868641 0.08159919
v -0.49374150 -0.87267951 0.09184179
v -0.46802902 -0.85669937 0.10215723
v -0.43570257 -0.85229164 0.10764478
v -0.39824196 -0.84718392 0.11400388
v -0.36556294 -0.85150689 0.11458723
v -0.33184902 -0.85765610 0.11423383
v -0.30740070 -0.87160693 0.10899450
v -0.28040147 -0.88718839 0.10311665
v -0.25362141 -0.90264343 0.09728650
v -0.23304652 -0.92119894 0.08869808
v -0.21151341 -0.94117143 0.07936965
v -0.18922525 -0.96184436 0.06971414
v -0.16777454 -0.98304747 0.05953036
v -0.14895863 -1.00713241 0.04685723
v -0.13014273 -1.03121727 0.03418410
v -0.11215323 -1.05424439 0.02206758
v -0.09406323 -1.07740018 0.00988337
v -0.11832518 -0.82788360 0.09997402
v -0.31568676 -0.30825341 0.10500461
v -0.31768537 -0.33757442 0.11171947
v -0.31966308 -0.36839650 0.11809941
v -0.32155577 -0.39999482 0.12370909
v -0.32321704 -0.43223235 0.12853262
v -0.32459721 -0.46425773 0.13243341
v -0.32571895 -0.49636990 0.13548865
v -0.32661868 -0.52843537 0.13771311
v -0.32714953 -0.56010806 0.13912922
v -0.32761109 -0.59170334 0.13972627
v -0.32792099 -0.62312745 0.13955635
v -0.32813129 -0.65444346 0.13863811
v -0.32820229 -0.68572191 0.13703600
v -0.32786779 -0.71681661 0.13482342
v -0.32770747 -0.74814833 0.13188989
v -0.32802200 -0.77934079 0.12822202
v -0.32845815 -0.81026855 0.12387631
v -0.32948972 -0.83981430 0.11892936
v -0.12359762 -0.33129044 0.11628299
v -0.12502084 -0.36155994 0.12246681
v -0.12541635 -0.39096740 0.12898821
v -0.12512759 -0.42182853 0.13488013
v -0.12428019 -0.45307707 0.13980600
v -0.12350836 -0.48446457 0.14354257
v -0.12325441 -0.51609054 0.14588832
v -0.12371009 -0.54783902 0.14668438
v -0.12481962 -0.57971813 0.14596159
v -0.12633440 -0.61136845 0.14383164
v -0.12773185 -0.64253398 0.14056623
v -0.12831124 -0.67382191 0.13616058
v -0.12795225 -0.70527040 0.13063856
v -0.12658146 -0.73625963 0.12424513
v -0.12422085 -0.76727250 0.11699409
v -0.12135764 -0.79881061 0.10862907
v -0.11267774 -0.85995776 0.08914350
v -0.10674279 -0.89144117 0.07791796
v -0.10042417 -0.92209417 0.06649619
v -0.09409686 -0.95284659 0.05445572
v -0.08806056 -0.98412055 0.04178625
v -0.08334582 -1.01604481 0.02903526
v -0.08023709 -1.04582031 0.01787443
v -0.07901269 -1.07246254 0.00856774
v 0.33820704 -0.13152119 0.00483964
v 0.32334341 -0.15328455 0.01108718
v 0.30472686 -0.17341555 0.02808280
v 0.28405940 -0.19322997 0.04526090
v 0.26164319 -0.21276556 0.06406552
v 0.23914960 -0.23273690 0.08390762
v 0.21727952 -0.25363165 0.10442115
v 0.19695006 -0.27663686 0.12632216
v 0.17782092 -0.30087703 0.14799478
v 0.15911596 -0.32654788 0.16880380
v 0.13979565 -0.35268916 0.18768728
v 0.11935499 -0.37897177 0.20374486
v 0.09891792 -0.40633202 0.21696062
v 0.07896834 -0.43467589 0.22720633
v 0.05814014 -0.46249601 0.23341993
v 0.03679323 -0.49009912 0.23560636
v 0.01454901 -0.51700152 0.23398149
v -0.00693913 -0.54396133 0.22907679
v -0.02620276 -0.57159494 0.22158805
v -0.04283234 -0.60006372 0.21214319
v -0.05804999 -0.62868434 0.20090864
v -0.07201199 -0.65736205 0.18834460
v -0.08444225 -0.68639200 0.17488108
v -0.09404958 -0.71605240 0.16069161
v -0.10033227 -0.74645857 0.14673138
v -0.10510024 -0.77614554 0.13192442
v -0.11104770 -0.80438184 0.11677088
v -0.34938044 -0.82987880 0.12455124
v 0.43793376 -0.64146060 0.02810085
v 0.33947077 -0.15212741 0.00429807
v 0.46235142 -0.65698429 0.01507040
v -0.60988859 -0.93922471 0.03251619
v -0.59270504 -0.92130896 0.04204727
v -0.55937756 -0.87413355 0.05733241
v -0.63200687 -0.15979121 0.01458870
v -0.55897862 -0.22625370 0.03924477
v -0.06102674 -1.01875114 0.01013221
v -0.04349680 -0.96810966 0.03473745
v 0.30776810 -0.64877815 0.08600249
v 0.40516557 -0.64267748 0.01753874
v 0.32830916 -0.17405373 0.00652924
v 0.46829425 -0.63580391 0.02414420
v 0.46480574 -0.61013236 0.02857361
v -0.57654123 -0.89764381 0.05006698
v -0.61493603 -0.18253423 0.01757086
v -0.55088294 -0.20072188 0.04486266
v -0.06033179 -0.99327326 0.02756960
v -0.02743110 -0.97387954 0.01728294
v -0.01596881 -0.94947916 0.03074765
v 0.31031665 -0.66816357 0.05712307
v 0.44146690 -0.58657969 0.05696627
v -0.58219178 -0.19113893 0.03229229
v -0.52468729 -0.22818503 0.05379107
v -0.04241419 -0.99700978 0.01111228
v 0.34756642 -0.65324322 0.05783480
v 0.27994047 -0.67463195 0.09256709
v -0.52499787 -0.20540648 0.05363067
v 0.32693543 -0.65986220 0.06690713
v 0.33555731 -0.64222780 0.09441267
v 0.28894998 -0.67586579 0.06361757
v -0.52406320 -0.82357926 0.07825859
v -0.48838395 -0.69821584 0.08706569
v -0.28389440 -0.84761237 0.12458020
v -0.13920332 -0.95182630 0.08969754
v -0.17512041 -0.86059123 0.11957511
v -0.26834934 -0.73646837 0.14817612
v -0.26945067 -0.64152520 0.15938506
v -0.38530433 -0.76232604 0.12953709
v -0.10235312 -0.63330218 0.16954156
v -0.11451087 -0.72444161 0.14246658
v -0.11251124 -0.69379229 0.15171294
v -0.11589698 -0.75469132 0.13125338
v -0.11106915 -1.01545490 0.05399527
v -0.48200055 -0.52019325 0.08296818
v -0.26862546 -0.47934436 0.15852609
v -0.07648443 -0.39449329 0.16736665
v -0.26347847 -0.38080801 0.14183758
v -0.37774596 -0.38355468 0.11713871
v -0.09087266 -0.33023684 0.14812336
v -0.33985560 -0.29693687 0.10213229
v -0.28537772 -0.32083130 0.11139093
v -0.30911895 -0.29191358 0.10566068
v -0.29846553 -0.30713696 0.10387410
v -0.45172144 -0.28720069 0.08192120
v -0.17841585 -0.34507121 0.13979119
v -0.14067948 -0.31489175 0.12222420
v -0.17198686 -0.31845313 0.12582238
v -0.11862964 -0.31065414 0.12452191
v -0.09759335 -0.33285813 0.12063542
v -0.10986437 -0.35045560 0.14151059
v -0.09216542 -0.30620324 0.13014878
v -0.08539316 -0.36280587 0.15908335
v -0.09457372 -1.05274767 0.01171563
v -0.10280267 -1.04056429 0.03803002
v -0.04570574 -0.86638836 0.10793224
v -0.02644641 -0.72414200 0.18908964
v -0.08580419 -0.56711121 0.18600050
v 0.17417908 -0.69390845 0.15777144
v -0.04680728 -0.48930910 0.20573364
v 0.19930815 -0.37739380 0.19426271
v 0.07707908 -0.32626672 0.17013169
v 0.11837812 -0.27940214 0.13390057
v 0.17650155 -0.24035513 0.09872035
v 0.21163727 -0.21396267 0.07385246
v 0.27035482 -0.28097140 0.10275443
v 0.26044911 -0.18885286 0.04926535
v 0.23679499 -0.20154219 0.06250449
v 0.28720173 -0.16773697 0.03177701
v 0.30908847 -0.15590163 0.02008472
v 0.31745559 -0.21166006 0.03442857
v -0.35679732 -0.79471344 0.12867032
v -0.55754462 -0.84471305 0.05652364
v -0.58382845 -0.23542557 0.02405735
v -0.04878716 -0.92692984 0.06695007
v -0.06868303 -0.96410185 0.04830671
v -0.04667739 -0.94802952 0.05136827
v -0.07068342 -0.94210338 0.06134889
v -0.02304539 -0.92946120 0.05325380
v -0.00042010 -0.92663643 0.03884455
v -0.02196462 -0.89355316 0.08261145
v 0.01300044 -0.89785666 0.05754792
v -0.02944083 -0.91287081 0.06993652
v -0.00724939 -0.91056444 0.06010557
v -0.05615496 -0.89976686 0.08722025
v -0.55958217 -0.89295507 0.06061355
v -0.53956947 -0.88604334 0.07054189
v -0.52650149 -0.85624449 0.07667758
v 0.43683652 -0.55697940 0.06189057
v 0.40189348 -0.61368968 0.04879526
v -0.60102728 -0.20746179 0.01940723
v -0.53251802 -0.28678106 0.04665402
v 0.33961357 -0.66458384 0.03721151
v 0.37168897 -0.65310957 0.03283033
v 0.23613427 -0.68567758 0.13636558
v 0.25983443 -0.68840012 0.08272189
v 0.25971873 -0.67891717 0.11894664
v 0.23713892 -0.69579280 0.09893184
v 0.28340316 -0.64642145 0.14826068
v 0.20588791 -0.70297069 0.12554457
v 0.27724095 -0.66464274 0.12582853
v 0.29336902 -0.65048215 0.11584853
v 0.24890198 -0.65901753 0.17571985
v 0.30627969 -0.62953670 0.11162501
v 0.24930899 -0.67299934 0.14927346
v 0.22313344 -0.67296721 0.17768054
v 0.33688021 -0.60372524 0.13971163
v 0.32814222 -0.62326428 0.12308151
v 0.36692056 -0.62204647 0.09298284
v 0.29472246 -0.60401583 0.17031361
v 0.29991862 -0.61216756 0.13649797
v 0.29105915 -0.62611589 0.16035857
v 0.25607227 -0.61140284 0.20801711
v 0.26700714 -0.63406994 0.18282519
v -0.54880993 -0.81565274 0.05994515
v -0.49697353 -0.83972234 0.09205559
v -0.50689937 -0.76654798 0.08561692
v -0.38615223 -0.66819859 0.13288092
v -0.51486830 -0.69422505 0.06706367
v -0.30564549 -0.82666333 0.12483698
v -0.30822712 -0.85267395 0.12255320
v -0.28815989 -0.86971830 0.12185890
v -0.26455528 -0.88502469 0.12046433
v -0.22159360 -0.89386449 0.11680272
v -0.24410303 -0.89691248 0.11700759
v -0.24049486 -0.86247819 0.12463178
v -0.16141590 -0.96622762 0.07990303
v -0.13084177 -0.98909657 0.06722753
v -0.17774643 -0.93350933 0.10113851
v -0.13896207 -0.97141045 0.07915240
v -0.10944503 -0.97084889 0.07272915
v -0.17811538 -0.95262847 0.08721023
v -0.12909684 -0.91573966 0.09430692
v -0.14237659 -0.85161476 0.10875920
v -0.18432073 -0.78682253 0.13504153
v -0.29289283 -0.70377549 0.14780292
v -0.30118195 -0.73451830 0.14181257
v -0.18606059 -0.62047741 0.16343110
v -0.27010590 -0.57748753 0.16292414
v -0.29366756 -0.60872156 0.15468413
v -0.30170177 -0.64005527 0.15060265
v -0.36274993 -0.73155210 0.13351321
v -0.11830541 -0.62953582 0.15343624
v -0.11190790 -0.65387030 0.15834395
v -0.10944216 -0.60908373 0.16408347
v -0.09341434 -0.65420828 0.17466302
v -0.08426411 -0.61329013 0.18585139
v -0.12892485 -1.01904243 0.04589806
v -0.09178232 -1.00573867 0.04894698
v -0.38543739 -0.57469167 0.13268036
v -0.38251355 -0.47996409 0.12806260
v -0.50796570 -0.52543039 0.06064175
v -0.29287901 -0.51197784 0.15341361
v -0.18088461 -0.52919834 0.16800136
v -0.18300280 -0.43775752 0.15852123
v -0.29064941 -0.44732101 0.14662216
v -0.29988396 -0.47963448 0.14728690
v -0.10632698 -0.40031484 0.15279352
v 0.01468705 -0.40924413 0.20765767
v -0.29529641 -0.38263234 0.13125868
v -0.35645801 -0.41557037 0.12507630
v -0.34639289 -0.38376015 0.12070162
v -0.32308394 -0.29612213 0.10217424
v -0.33787378 -0.32228042 0.10859119
v -0.43971560 -0.25684500 0.08059301
v -0.21544795 -0.32799954 0.12917428
v -0.15446718 -0.37216401 0.13837559
v -0.05066999 -0.31549407 0.13757412
v -0.09377979 -1.02725625 0.04373793
v -0.08320163 -0.87627802 0.10054956
v 0.03032209 -0.83595363 0.10898374
v -0.04612188 -0.80861088 0.14257694
v -0.06199821 -0.71284986 0.18091526
v 0.09296540 -0.76553226 0.14458477
v 0.00871055 -0.64640228 0.22449420
v -0.10837800 -0.56538144 0.16493299
v -0.11004758 -0.58707385 0.16362766
v -0.09547799 -0.52931822 0.17546476
v -0.10854297 -0.54386566 0.16363924
v -0.05784374 -0.57121090 0.20585952
v 0.07554274 -0.54574166 0.25283874
v 0.15385291 -0.72017584 0.13313956
v -0.02067815 -0.51096754 0.22140046
v -0.08546873 -0.46236221 0.17599431
v 0.19834456 -0.33539369 0.16831317
v 0.17242045 -0.35655751 0.18729590
v 0.15910239 -0.43274856 0.22918362
v 0.10539465 -0.34685507 0.18536338
v 0.14532604 -0.29687536 0.14837536
v 0.12261636 -0.24897475 0.10469596
v 0.14919308 -0.23356766 0.09160129
v 0.19455215 -0.25472855 0.10938437
v 0.20367481 -0.23440564 0.09165211
v 0.16773303 -0.26642401 0.12196341
v 0.20351162 -0.19859521 0.06089362
v 0.31907352 -0.30509442 0.07537349
v 0.27229145 -0.24563946 0.07880149
v 0.23309512 -0.28586906 0.12338398
v 0.32984247 -0.21503725 0.00990492
v 0.32864188 -0.19396803 0.00743357
v 0.33119582 -0.24273405 0.03469781
v 0.30394343 -0.19470879 0.03725700
v 0.28946744 -0.22185818 0.05588097
v -0.33834924 -0.79479902 0.12717718
v -0.34865965 -0.77408882 0.13027626
v -0.36845677 -0.77644288 0.12988404
v -0.36204949 -0.75485241 0.13219317
v -0.40048847 -0.80065444 0.12648842
v -0.37858708 -0.79603980 0.12865460
v -0.38232841 -0.82548174 0.12553536
v -0.56071257 -0.26429368 0.03251450
v -0.57733178 -0.21436525 0.03161617
v -0.03887652 -0.88414497 0.09461136
v -0.00740333 -0.86023186 0.10382520
v -0.08436881 -0.90744356 0.08180607
v -0.51301942 -0.87015805 0.08367265
v -0.54539324 -0.86009056 0.06573291
v 0.44844666 -0.56644944 0.03842328
v 0.41362059 -0.62678017 0.03059082
v 0.38432854 -0.63556762 0.04720887
v -0.55668763 -0.29672986 0.03035314
v 0.20588945 -0.70942016 0.09767441
v 0.18704193 -0.71446925 0.11589883
v 0.21440164 -0.68931782 0.15240065
v 0.19311210 -0.67834013 0.18453080
v 0.19495201 -0.69747382 0.15243755
v 0.35882649 -0.63881102 0.07538224
v 0.39188872 -0.58825049 0.09323414
v 0.36940281 -0.47889490 0.13294462
v 0.21788537 -0.63477626 0.22470670
v 0.27807069 -0.61445760 0.18969807
v 0.28183079 -0.56972477 0.20628698
v 0.27337584 -0.59436708 0.20609339
v 0.24082472 -0.57639260 0.23461273
v 0.25349111 -0.59090559 0.22052363
v 0.22943736 -0.60822684 0.23739651
v -0.54058369 -0.83416706 0.06766537
v -0.48673353 -0.85594124 0.09534159
v -0.53202492 -0.75875845 0.06555338
v -0.35479229 -0.66923712 0.13717598
v -0.50742953 -0.72929749 0.07854319
v -0.49575962 -0.65300518 0.08117811
v -0.25526651 -0.79838762 0.13793815
v -0.14755061 -0.99600259 0.05901859
v -0.20646837 -0.92211524 0.10441838
v -0.11197596 -0.91054852 0.08172209
v -0.12508799 -0.89314867 0.09464484
v -0.11446944 -0.93386484 0.08214248
v -0.16179842 -0.89660030 0.11159999
v -0.12421878 -0.84625115 0.10013376
v -0.15589406 -0.81436866 0.12034697
v -0.16102520 -0.75519334 0.13509638
v -0.31420183 -0.70241110 0.14140718
v -0.30377899 -0.67844284 0.14728092
v -0.31928276 -0.73316475 0.13645770
v -0.30120375 -0.76598321 0.13750109
v -0.18903429 -0.68887912 0.15388782
v -0.16490330 -0.65626109 0.15298263
v -0.15356766 -0.62431237 0.15451657
v -0.30158696 -0.57659615 0.15231964
v -0.31443262 -0.60795345 0.14644059
v -0.31939274 -0.63923493 0.14328628
v -0.34162943 -0.73213786 0.13416232
v -0.35231831 -0.70697610 0.13573214
v -0.11521472 -0.67321992 0.15255215
v -0.08238830 -0.63613688 0.18493573
v -0.06457544 -0.60596565 0.19965187
v -0.08194309 -0.59024360 0.18888722
v -0.10716426 -0.99459886 0.06449022
v -0.35407606 -0.57521002 0.13804919
v -0.36078266 -0.51188604 0.13416366
v -0.35187734 -0.47992956 0.13291006
v -0.52272255 -0.52838330 0.04610537
v -0.31322034 -0.51205876 0.14406498
v -0.30364431 -0.53742024 0.15039674
v -0.14893551 -0.53058653 0.15954096
v -0.15716046 -0.46854183 0.15753952
v -0.31090136 -0.44788401 0.13766844
v -0.29944062 -0.42212786 0.13842728
v -0.31688107 -0.48004393 0.13877692
v -0.12107699 -0.40435502 0.14080805
v -0.10447973 -0.43234749 0.15726701
v -0.09324690 -0.38345095 0.15901084
v -0.11396746 -0.37717785 0.14696533
v 0.01601116 -0.45163433 0.22217847
v 0.05647486 -0.39708908 0.20990007
v -0.31264629 -0.38344817 0.12447258
v -0.29360985 -0.35115511 0.12429857
v -0.33583897 -0.41583141 0.12631311
v -0.34770582 -0.44073967 0.12910708
v -0.32902601 -0.38400081 0.12113166
v -0.39166268 -0.32315468 0.10365925
v -0.34335149 -0.35208888 0.11525079
v -0.47173952 -0.24520003 0.07144159
v -0.19257646 -0.32825478 0.13151099
v -0.20804283 -0.35456122 0.14310973
v -0.21165470 -0.30832608 0.11636468
v -0.24251929 -0.31605377 0.11938263
v -0.13585656 -0.37474686 0.13059802
v -0.14420279 -0.35450796 0.13095068
v -0.14601204 -0.39226090 0.13735236
v -0.18438422 -0.39754366 0.15094844
v -0.14031251 -0.33572520 0.12628645
v -0.05965006 -0.29850826 0.12004127
v -0.03310966 -0.29713887 0.12568387
v -0.00485720 -0.33340931 0.16264557
v -0.02463028 -0.31834815 0.14641903
v -0.04644451 -0.35185835 0.16266590
v 0.01383850 -0.29600757 0.13476293
v -0.02712810 -0.33919871 0.16095239
v -0.01644169 -0.37902741 0.18591349
v -0.01265006 -0.35525704 0.17497302
v -0.00987326 -0.30042850 0.13439446
v 0.02218195 -0.37037671 0.19114028
v -0.07365399 -0.31776894 0.13750196
v -0.06696009 -0.33988811 0.15077482
v -0.10229183 -0.87776877 0.08993274
v -0.08374305 -0.83665799 0.11888875
v 0.05049906 -0.84815704 0.08040855
v -0.08152762 -0.79999208 0.13488858
v -0.08066910 -0.70547658 0.17292986
v -0.07333748 -0.73930246 0.16695062
v -0.05497249 -0.68384729 0.19264464
v 0.08351840 -0.79474669 0.11107764
v 0.10841691 -0.77743461 0.11332047
v -0.02411290 -0.62965995 0.21777397
v 0.03246116 -0.59308253 0.24354629
v -0.10253785 -0.49848314 0.16627310
v -0.06936121 -0.54006463 0.19741694
v 0.04826115 -0.52259165 0.24623146
v 0.15915509 -0.73247338 0.11022833
v 0.13573057 -0.72099620 0.11521278
v 0.11759937 -0.68463733 0.15857667
v 0.13550433 -0.69801010 0.13779840
v 0.14957655 -0.70247757 0.16203500
v 0.11649443 -0.72928720 0.15507989
v 0.16000833 -0.67683800 0.19270516
v 0.12863392 -0.70909272 0.15562969
v 0.10172460 -0.69958920 0.18736346
v -0.00477036 -0.52379860 0.22875855
v 0.00148244 -0.48395448 0.22568054
v -0.10789496 -0.46608213 0.15785574
v 0.18040973 -0.32214865 0.16300549
v 0.20378849 -0.30802965 0.14833542
v 0.15719384 -0.34522464 0.18168999
v 0.15238096 -0.38371451 0.20539192
v 0.11931660 -0.44310443 0.23427763
v 0.12152449 -0.35913723 0.19269963
v 0.12561134 -0.32167771 0.16802032
v 0.08499009 -0.37389585 0.20088749
v 0.11556644 -0.23452652 0.08810455
v 0.10121840 -0.24868957 0.10145073
v 0.18461267 -0.21912816 0.07912308
v 0.14631498 -0.25460282 0.11188295
v 0.14718377 -0.27546905 0.13065078
v 0.34253932 -0.30487807 0.03696242
v 0.25854002 -0.23118026 0.07656336
v 0.24956345 -0.25338683 0.09457505
v 0.26555311 -0.26263224 0.09346614
v 0.29862523 -0.26662648 0.07299462
v 0.21738198 -0.27326379 0.11922967
v 0.33997174 -0.24674132 0.01065581
v 0.34130517 -0.26298104 0.02975572
v 0.31669265 -0.26156040 0.05087851
v 0.30605709 -0.23924833 0.05178174
v 0.31415188 -0.28249270 0.06672135
v 0.29341617 -0.28999753 0.09144426
v 0.26974483 -0.33104898 0.13573048
v 0.27627735 -0.30630785 0.11502360
v 0.25413635 -0.29739127 0.12181755
v 0.30140297 -0.32911716 0.10999030
v 0.23164466 -0.31431258 0.14372060
v 0.29525743 -0.30970289 0.10257607
v 0.27790542 -0.20953074 0.05568361
v -0.36650681 -0.83320747 0.12375909
v -0.56723789 -0.24421012 0.03226490
v -0.54512989 -0.24771042 0.04351403
v -0.57759306 -0.27002982 0.02054376
v -0.54503695 -0.32623893 0.03596377
v -0.54902222 -0.27963466 0.03763317
v 0.41971465 -0.57840243 0.07501691
v 0.40341406 -0.56557098 0.09791793
v 0.40559636 -0.59513416 0.06392142
v 0.41924719 -0.52898272 0.07350383
v 0.36207231 -0.58238515 0.13290272
v 0.39916922 -0.46420751 0.07047248
v 0.20750897 -0.65782050 0.20569746
v 0.24318189 -0.63906178 0.20741770
v 0.18497732 -0.56965601 0.25346118
v -0.54034690 -0.78743959 0.06334541
v -0.33699797 -0.66981338 0.13802873
v -0.35482493 -0.63803946 0.13835517
v -0.50410329 -0.70923954 0.07773812
v -0.52329399 -0.71483668 0.06380478
v -0.48605114 -0.72228701 0.09165165
v -0.52577621 -0.73711710 0.06595688
v -0.49217265 -0.74667941 0.09139235
v -0.44441437 -0.70348234 0.11276871
v -0.46504457 -0.78686018 0.10907148
v -0.46727255 -0.70688300 0.10081576
v -0.48403827 -0.77051371 0.09919278
v -0.45685253 -0.74273179 0.10883785
v -0.46120067 -0.66667065 0.10464890
v -0.50023626 -0.80110613 0.09248569
v -0.45392688 -0.72177889 0.10913654
v -0.41868654 -0.73857248 0.12303502
v -0.47522075 -0.73793076 0.09969241
v -0.46370503 -0.76416436 0.10836705
v -0.43109237 -0.77838437 0.12085622
v -0.47186190 -0.68539537 0.09809534
v -0.48112065 -0.66644922 0.09224274
v -0.47043660 -0.63579119 0.09836112
v -0.50063293 -0.67633634 0.07812278
v -0.48370001 -0.79120745 0.10088257
v -0.47919386 -0.81972458 0.10183668
v -0.51718854 -0.66011854 0.06307157
v -0.51096308 -0.63150625 0.06682329
v -0.27665768 -0.81942094 0.13117401
v -0.22598144 -0.91312828 0.10818287
v -0.11891504 -0.95368986 0.08189984
v -0.18407150 -0.91065232 0.11191063
v -0.13386680 -0.81419540 0.11137308
v -0.14554403 -0.79201297 0.12225479
v -0.16565965 -0.79686388 0.12806342
v -0.16078352 -0.77655197 0.13121212
v -0.19167120 -0.81965419 0.12939218
v -0.13918870 -0.75324073 0.12714620
v -0.15217168 -0.73054292 0.13651740
v -0.19610129 -0.72986711 0.14843328
v -0.17410772 -0.73716487 0.14231356
v -0.17100816 -0.71021789 0.14630785
v -0.19469118 -0.75941069 0.14294265
v -0.26656461 -0.67895589 0.15641274
v -0.30270385 -0.79654322 0.13205297
v -0.28492956 -0.75167171 0.14312197
v -0.27593954 -0.77852940 0.14014608
v -0.14286513 -0.65746566 0.14513628
v -0.15472098 -0.68306662 0.14568864
v -0.13570763 -0.62611240 0.14693263
v -0.15046973 -0.59333349 0.15786913
v -0.31895309 -0.57614064 0.14413750
v -0.38827263 -0.70456500 0.13131542
v -0.09884620 -0.67206302 0.16716443
v -0.33627234 -0.57563621 0.13942612
v -0.35332007 -0.54363020 0.13718606
v -0.35460195 -0.60673810 0.13868193
v -0.34008920 -0.51218326 0.13630879
v -0.33406721 -0.48013759 0.13396406
v -0.26751141 -0.53930029 0.16345345
v -0.13171920 -0.53134624 0.15154867
v -0.14705571 -0.49960289 0.15775516
v -0.13670656 -0.46836151 0.14927760
v -0.14775012 -0.44398032 0.15008026
v -0.16637653 -0.44995155 0.15707922
v -0.16303231 -0.42773949 0.15277935
v -0.19779602 -0.47647347 0.16620666
v -0.26346541 -0.41906540 0.15025511
v -0.09080977 -0.41383044 0.16423842
v -0.08409609 -0.43681440 0.17276015
v -0.04947074 -0.44800151 0.19606019
v -0.06935269 -0.44886633 0.18474899
v -0.06619231 -0.47473263 0.19176111
v -0.05782013 -0.41662012 0.18387581
v -0.08533137 -0.48622098 0.17957406
v 0.03465521 -0.46608974 0.23021352
v 0.04167997 -0.43785018 0.22363513
v 0.02112607 -0.43003013 0.21681264
v 0.03952317 -0.41413925 0.21491550
v -0.01608464 -0.43198919 0.20664259
v 0.03273236 -0.39111375 0.20363949
v 0.05086060 -0.36871829 0.19496814
v 0.03546467 -0.33279621 0.16988632
v 0.03603841 -0.35329841 0.18359578
v 0.06091567 -0.34546964 0.18185121
v 0.01444020 -0.34454057 0.17426706
v 0.07599180 -0.41124359 0.21804388
v -0.31092428 -0.35236348 0.11807170
v -0.27853880 -0.36541821 0.13220130
v -0.24534786 -0.34889337 0.13520036
v -0.26947145 -0.34026111 0.12763964
v -0.29933039 -0.33449430 0.11510086
v -0.38339930 -0.44220419 0.12449214
v -0.36305510 -0.31514960 0.10544143
v -0.40965005 -0.28724709 0.09200226
v -0.36096714 -0.36654301 0.11676884
v -0.36432126 -0.34089686 0.11145127
v -0.38449116 -0.35852445 0.11213287
v -0.42663945 -0.38853414 0.10520633
v -0.40254244 -0.37910107 0.11117402
v -0.41346064 -0.34919170 0.10382344
v -0.40540822 -0.41584985 0.11584410
v -0.39380051 -0.39773615 0.11631130
v -0.38348339 -0.41828694 0.12154956
v -0.46073071 -0.26601155 0.07652460
v -0.49801248 -0.27519412 0.06426955
v -0.47656819 -0.28720287 0.07342506
v -0.50591207 -0.31952586 0.06163081
v -0.49582083 -0.29878270 0.06589634
v -0.51621348 -0.30019510 0.05571669
v -0.47093891 -0.32675461 0.07949901
v -0.53381571 -0.30907963 0.04489013
v -0.52480208 -0.33248839 0.05023166
v -0.46534686 -0.30505277 0.07956118
v -0.43618507 -0.32402953 0.09249511
v -0.53937211 -0.35330279 0.03817433
v -0.49641495 -0.36489392 0.06796596
v -0.50672025 -0.34391997 0.06173866
v -0.51965058 -0.36700791 0.05219351
v -0.48625906 -0.34425636 0.07351596
v -0.46121718 -0.37419793 0.08860088
v -0.47759928 -0.36369346 0.07928049
v -0.48622245 -0.40256835 0.07591083
v -0.45801293 -0.34773693 0.08777130
v -0.43727239 -0.36264741 0.09783582
v -0.45296152 -0.24185352 0.07514467
v -0.24456277 -0.29940139 0.10754330
v -0.26477821 -0.31097964 0.11064990
v -0.18665159 -0.37102036 0.14540762
v -0.21559913 -0.38714482 0.15023867
v -0.16030583 -0.33460508 0.13402594
v -0.06240182 -0.37249499 0.16623482
v -0.03931001 -0.37310230 0.17605453
v -0.03627512 -0.39926552 0.18769691
v -0.05575403 -0.39216773 0.17709090
v -0.03688207 -0.42351065 0.19543243
v -0.01137169 -0.40452620 0.19848523
v 0.00614708 -0.38805074 0.19647358
v -0.10513574 -0.82668744 0.11543338
v -0.10358662 -0.84989337 0.10721843
v 0.02223074 -0.86682245 0.08306613
v -0.06818558 -0.81938368 0.13121348
v -0.05279954 -0.84204677 0.12220607
v -0.07270703 -0.85646698 0.11233622
v -0.02668596 -0.84775166 0.11732307
v 0.00256803 -0.83223002 0.12423009
v -0.04946871 -0.73383557 0.17890096
v -0.04739446 -0.77204899 0.16242136
v -0.02305798 -0.75291495 0.17706820
v -0.03952862 -0.70359758 0.19291535
v 0.01021353 -0.69435997 0.20783372
v -0.02123045 -0.67808616 0.20697262
v -0.01272639 -0.70483995 0.19944878
v 0.01964061 -0.73408764 0.18834243
v 0.00936277 -0.71550731 0.19810437
v 0.05629924 -0.70726690 0.20161378
v 0.03418210 -0.71708253 0.19820342
v 0.06118543 -0.74661863 0.17472047
v 0.04415406 -0.73553470 0.18657556
v 0.02534378 -0.77335938 0.16200367
v 0.04012328 -0.75582859 0.17214840
v 0.05903640 -0.78175063 0.14396735
v 0.09356027 -0.80134367 0.09020551
v 0.07334078 -0.81838704 0.09248499
v 0.09269437 -0.77984868 0.12497482
v -0.04193665 -0.61962933 0.21092274
v -0.01063109 -0.60082990 0.22780052
v -0.10831836 -0.51770833 0.16206665
v -0.08645711 -0.54630150 0.18442373
v -0.03928698 -0.54171597 0.21558644
v 0.03300977 -0.50964534 0.23927496
v 0.02589869 -0.54896098 0.24289634
v 0.07118629 -0.49541623 0.24527170
v 0.10839392 -0.74889685 0.12963918
v 0.17481023 -0.68204287 0.18035520
v 0.17849774 -0.66664999 0.20057702
v 0.15125558 -0.64180028 0.22346640
v -0.02297164 -0.48619158 0.21656912
v -0.01166491 -0.45948355 0.21543599
v -0.03658501 -0.46677690 0.20676861
v 0.13723653 -0.37165033 0.19947411
v 0.13182051 -0.41017253 0.22031715
v 0.10108871 -0.42937327 0.22759370
v 0.09499538 -0.45781066 0.23789075
v 0.13388062 -0.50011501 0.25108491
v 0.11957030 -0.47313456 0.24452253
v 0.12269536 -0.30001991 0.15146142
v 0.08728465 -0.29474613 0.14555732
v 0.10226562 -0.31263426 0.16102556
v 0.10112970 -0.38634165 0.20765779
v 0.34040376 -0.34167246 0.06920003
v 0.34470693 -0.28429504 0.02854381
v 0.29137505 -0.24830784 0.06867518
v 0.25247961 -0.31815912 0.13686848
v 0.23559815 -0.35564439 0.16931405
v 0.43654112 -0.53756834 0.04659427
v 0.37805718 -0.54582866 0.12971304
v 0.38151412 -0.43353029 0.07351465
v 0.41172381 -0.49521798 0.07301395
v 0.24132763 -0.62065898 0.22525461
v 0.22899469 -0.65528277 0.19908620
v 0.21275600 -0.58356593 0.24857411
v -0.53306183 -0.80550887 0.07131218
v -0.51972281 -0.78633795 0.07912633
v -0.37065395 -0.65290307 0.13603635
v -0.38347765 -0.62163838 0.13408175
v -0.39395622 -0.64420549 0.13133071
v -0.43047270 -0.61176766 0.11879862
v -0.42435676 -0.66732319 0.12186311
v -0.40845163 -0.62301441 0.12722986
v -0.40533623 -0.66110981 0.12818266
v -0.42175750 -0.64308100 0.12259074
v -0.40743295 -0.68687832 0.12703868
v -0.39732256 -0.59869791 0.13046031
v -0.44293451 -0.65252754 0.11399181
v -0.42854642 -0.68894962 0.11961783
v -0.41257995 -0.71277699 0.12502703
v -0.44302061 -0.67412233 0.11389215
v -0.43184980 -0.72112024 0.11828160
v -0.49068219 -0.62931649 0.08378795
v -0.46825510 -0.58837374 0.09748724
v -0.50182251 -0.59385810 0.07171634
v -0.47467222 -0.61199900 0.09410758
v -0.50114555 -0.61413108 0.07374244
v -0.45298454 -0.61880178 0.10793930
v -0.48488989 -0.59575094 0.08600552
v -0.48640395 -0.55781284 0.08096453
v -0.43838849 -0.63241308 0.11537406
v -0.44697621 -0.59483194 0.11021503
v -0.42140843 -0.58401780 0.12153645
v -0.44660578 -0.55258235 0.10700302
v -0.45276611 -0.57385671 0.10566752
v -0.46654794 -0.55807833 0.09522409
v -0.46101868 -0.53186796 0.09695096
v -0.25730843 -0.83956640 0.12930141
v -0.14887894 -0.70963943 0.13900485
v -0.23052678 -0.74550189 0.14896297
v -0.22139137 -0.78319072 0.14118325
v -0.28506419 -0.68600983 0.15184763
v -0.26482472 -0.70629031 0.15312738
v -0.28546372 -0.66059077 0.15430994
v -0.17404070 -0.67446166 0.15273287
v -0.19874129 -0.65092003 0.16100504
v -0.16837602 -0.60638410 0.16158769
v -0.18119058 -0.56878231 0.16748616
v -0.19362085 -0.59360986 0.16778099
v -0.37051575 -0.71304766 0.13385562
v -0.36896234 -0.68858395 0.13524234
v -0.38906960 -0.73154441 0.13043007
v -0.36947791 -0.55882648 0.13542111
v -0.37668748 -0.53327216 0.13276941
v -0.38733480 -0.50791305 0.12852191
v -0.37006003 -0.59095513 0.13645411
v -0.28549542 -0.53084333 0.15741877
v -0.28770861 -0.55632851 0.15771646
v -0.26580208 -0.51083056 0.16243429
v -0.16430735 -0.51353539 0.16407165
v -0.18971934 -0.50302524 0.16793867
v -0.16945602 -0.48936525 0.16337034
v -0.22882552 -0.50013106 0.16797145
v -0.20871368 -0.49412318 0.16828725
v -0.22647772 -0.47059270 0.16512181
v -0.21071165 -0.52364954 0.17036215
v -0.28191002 -0.42805186 0.14641035
v -0.26375254 -0.44785147 0.15554721
v -0.28023286 -0.40179017 0.14178148
v -0.07531022 -0.51217892 0.19070256
v -0.22510066 -0.34541270 0.13682889
v -0.23424175 -0.36995656 0.14484045
v -0.24253950 -0.39828380 0.15044915
v -0.36537138 -0.43405879 0.12652999
v -0.36675940 -0.45986818 0.12930253
v -0.43044557 -0.27840957 0.08602754
v -0.43526236 -0.30113255 0.08887005
v -0.41049283 -0.26223407 0.08645368
v -0.41507812 -0.31176182 0.09623816
v -0.38121678 -0.29469185 0.09829109
v -0.37039940 -0.40209411 0.12141431
v -0.51960516 -0.25776710 0.05481242
v -0.53567879 -0.37474038 0.03839876
v -0.51757516 -0.40240981 0.05176675
v -0.43044862 -0.34288808 0.09765219
v -0.20887950 -0.41857215 0.15698755
v 0.03416060 -0.85105513 0.09092042
v 0.03092331 -0.88115598 0.05994157
v 0.01193323 -0.84789417 0.10726567
v -0.02236659 -0.82305199 0.13441384
v 0.00587994 -0.80134384 0.14753851
v -0.07824717 -0.76542227 0.15409951
v -0.06044658 -0.79032978 0.14957545
v 0.00457111 -0.67031234 0.21583610
v 0.04302861 -0.67720730 0.21688178
v -0.01762113 -0.65426473 0.21469114
v -0.00530411 -0.73681085 0.18610641
v 0.00545029 -0.75930076 0.17428855
v 0.06059957 -0.80513694 0.11974934
v 0.06554738 -0.83567588 0.07952747
v 0.05449537 -0.82577949 0.10224916
v -0.00056267 -0.62383599 0.22764583
v 0.03575595 -0.62706544 0.23693823
v 0.01339960 -0.60603145 0.23560858
v 0.00567518 -0.57581036 0.23638539
v 0.01083356 -0.53645850 0.23588913
v 0.05076209 -0.54747928 0.24936503
v 0.04039881 -0.56995898 0.24755620
v 0.08099450 -0.59543929 0.23742144
v 0.05830692 -0.58988081 0.24745182
v 0.06388151 -0.61693640 0.23880860
v 0.07754603 -0.57284143 0.25114434
v 0.12789328 -0.58597292 0.24884032
v 0.10638189 -0.56032677 0.25408694
v 0.05546064 -0.48251222 0.23864261
v 0.12244771 -0.75142995 0.10632753
v 0.14075227 -0.74373710 0.11805051
v 0.13330542 -0.72958487 0.13924566
v 0.18509717 -0.63820804 0.22848937
v 0.15511286 -0.40821269 0.21797015
v 0.19101452 -0.41459948 0.21595277
v 0.09599510 -0.48527628 0.24629412
v 0.09508209 -0.51958199 0.25252243
v 0.15442497 -0.47017161 0.24329262
v 0.35141368 -0.32669303 0.03746771
v 0.33371838 -0.32146080 0.06666147
v 0.31790301 -0.56328499 0.17288011
v 0.37892493 -0.45500954 0.10413946
v 0.33578603 -0.43454755 0.14744880
v 0.36143578 -0.43864896 0.11878124
v 0.35808251 -0.39687178 0.08540168
v 0.33818796 -0.46755628 0.16294573
v 0.35408390 -0.41664133 0.11174610
v 0.31517262 -0.39277199 0.14134892
v 0.33096718 -0.41033231 0.13750072
v 0.29119813 -0.43477768 0.18437530
v 0.31401046 -0.42793302 0.16428274
v 0.30808965 -0.46228273 0.18442715
v 0.39392339 -0.44704586 0.04951207
v 0.39127048 -0.48651154 0.10639823
v 0.35649444 -0.52124695 0.15749300
v 0.38864878 -0.51437511 0.12082749
v 0.22147720 -0.51400051 0.24175621
v -0.36499357 -0.62210529 0.13732910
v -0.45463458 -0.68788724 0.10779449
v -0.47731957 -0.53987497 0.08575512
v -0.45154471 -0.47962080 0.10254832
v -0.22151848 -0.83547022 0.13022976
v -0.20965489 -0.74500907 0.14775169
v -0.22141116 -0.72237484 0.15251471
v -0.20309941 -0.70773600 0.15307251
v -0.24626060 -0.72591038 0.15197533
v -0.22692568 -0.67735418 0.15932198
v -0.23830949 -0.70117484 0.15604306
v -0.21930099 -0.69550642 0.15650131
v -0.20211999 -0.77714662 0.14035842
v -0.20463689 -0.79970388 0.13569051
v -0.23012599 -0.80652838 0.13622486
v -0.24883346 -0.81926700 0.13341652
v -0.24853667 -0.77145689 0.14377596
v -0.23231819 -0.61655324 0.16630587
v -0.40023677 -0.74805326 0.12749180
v -0.41770240 -0.76101509 0.12345074
v -0.43686486 -0.74995587 0.11738282
v -0.42632776 -0.51702201 0.11541691
v -0.25099159 -0.49333196 0.16431881
v -0.24170069 -0.52619878 0.16827157
v -0.20689800 -0.45094014 0.16256015
v -0.23494154 -0.44243300 0.15992349
v -0.19946181 -0.54848389 0.17036265
v -0.24932417 -0.46569193 0.16130848
v -0.38932910 -0.27400060 0.09199739
v -0.36562578 -0.27782848 0.09511946
v -0.49673148 -0.24845620 0.06374435
v -0.50718592 -0.38399010 0.06085677
v -0.18841439 -0.41813202 0.15468581
v 0.04411850 -0.86513162 0.06556672
v 0.02347703 -0.81537409 0.13079865
v 0.04259941 -0.81520074 0.12131383
v 0.03757586 -0.79469059 0.14200575
v -0.08570617 -0.78160981 0.14200630
v -0.04628457 -0.65387860 0.20336978
v 0.06485161 -0.65019639 0.22876277
v 0.10194176 -0.58732332 0.24993608
v 0.11037411 -0.62851794 0.23103819
v 0.11612259 -0.60692020 0.24255574
v 0.09600069 -0.61233455 0.23673911
v 0.08456800 -0.63027547 0.21263074
v 0.13570872 -0.62296638 0.23418736
v 0.16524323 -0.61871811 0.23899692
v 0.14681139 -0.54688520 0.25555336
v 0.19015285 -0.65392573 0.21453327
v 0.16963244 -0.65109574 0.21708734
v 0.20100687 -0.61466903 0.24067017
v 0.07162606 -0.51926366 0.24975737
v 0.09567242 -0.54126610 0.25405922
v 0.12152286 -0.53950905 0.25511015
v 0.13056240 -0.56292770 0.25361325
v 0.15726312 -0.57968872 0.25182726
v 0.13779434 -0.52443884 0.25443111
v 0.18008853 -0.51918110 0.25245303
v 0.15714941 -0.50981333 0.25240549
v 0.17522072 -0.48923211 0.24670609
v 0.19949797 -0.50113277 0.24555288
v 0.18174504 -0.45613392 0.23541475
v 0.23392570 -0.45477506 0.22156917
v 0.22101876 -0.48372305 0.23555613
v 0.26506302 -0.49202047 0.21889174
v 0.20777833 -0.45842808 0.23094199
v 0.24581426 -0.47800549 0.22460766
v 0.21987031 -0.42546109 0.21358330
v 0.19610190 -0.43809556 0.22549952
v 0.19362901 -0.47684097 0.24019025
v 0.24416887 -0.50594441 0.23206044
v 0.27065754 -0.45961987 0.20639952
v 0.23720964 -0.54279599 0.23789823
v 0.26476988 -0.52640470 0.22483655
v 0.11144413 -0.50343103 0.25123475
v 0.13575326 -0.45834284 0.23991085
v 0.33274926 -0.58150909 0.15931469
v 0.34674676 -0.55845541 0.16065007
v 0.30123136 -0.57999877 0.15931225
v 0.28904302 -0.56729796 0.17887479
v 0.30699391 -0.52329882 0.19197696
v 0.28711487 -0.54574912 0.19018459
v 0.28010233 -0.52750832 0.20403812
v 0.29757207 -0.49533868 0.19883229
v 0.27120874 -0.55132410 0.21985721
v 0.32573880 -0.45265049 0.16697198
v 0.33616842 -0.50064102 0.17340822
v -0.46249885 -0.50451798 0.09640896
v -0.25134384 -0.75071926 0.14749781
v -0.20887619 -0.61135058 0.16696516
v -0.23046907 -0.57803367 0.16963278
v -0.21516389 -0.63353559 0.16476399
v -0.24146046 -0.64171954 0.16329835
v -0.25489399 -0.65991814 0.16010463
v -0.44560968 -0.76645393 0.11575908
v -0.44175487 -0.53114486 0.10843010
v -0.41552585 -0.54896911 0.12168957
v -0.41099248 -0.49020918 0.12056415
v -0.24131991 -0.42099928 0.15496475
v -0.35898922 -0.29581591 0.10076451
v 0.05588312 -0.63428152 0.23633166
v 0.03852432 -0.65036871 0.22851496
v 0.07942071 -0.61446644 0.22476760
v 0.09258988 -0.66682732 0.20786038
v 0.14674219 -0.60241010 0.24401758
v 0.19178785 -0.59364450 0.24832278
v 0.16577617 -0.55964967 0.25483900
v 0.25736981 -0.42008367 0.19588051
v 0.21226451 -0.40000954 0.20306850
v 0.23752204 -0.40395497 0.19652924
v 0.22306453 -0.37664316 0.18676189
v 0.27250890 -0.37672260 0.16372209
v 0.21187788 -0.35519009 0.17749318
v 0.24794782 -0.37744308 0.17719767
v 0.22443584 -0.33606516 0.16107030
v 0.26039739 -0.39623002 0.18187319
v 0.28185871 -0.40991023 0.17752620
v 0.20791578 -0.54722550 0.25078873
v 0.20033067 -0.52538443 0.24995258
v 0.18637078 -0.54414890 0.25365464
v 0.22557531 -0.56438072 0.24379681
v 0.31878016 -0.48243195 0.18283947
v 0.28664869 -0.47526693 0.20221042
v 0.27694469 -0.50717406 0.21175001
v 0.25117311 -0.55536994 0.23000896
v -0.44162539 -0.50052879 0.10774617
v -0.49506197 -0.47021637 0.07341351
v -0.24428012 -0.55373746 0.16826603
v -0.26345641 -0.55891240 0.16471315
v -0.22097703 -0.55710834 0.17035929
v -0.40040055 -0.52949226 0.12617615
v -0.39331241 -0.55223867 0.12952529
v -0.40720324 -0.56838602 0.12609430
v -0.40309023 -0.46274929 0.12156221
v 0.02541286 -0.66492114 0.22104939
v 0.08280217 -0.65048023 0.21716205
v 0.07037083 -0.67200214 0.21750172
v 0.09799193 -0.64483778 0.19907250
v 0.05976642 -0.68838319 0.21017362
v 0.08041153 -0.69912952 0.19963588
v 0.10181306 -0.66743590 0.18078994
v 0.07334400 -0.72382978 0.18805028
v 0.08687566 -0.74273775 0.16838213
v 0.23906307 -0.43215061 0.20951188
v 0.27055259 -0.43637386 0.19699023
v -0.48339336 -0.49319772 0.08242382
v -0.20380182 -0.57280821 0.16971650
v -0.22500969 -0.53750918 0.17020373
v -0.40771983 -0.51055607 0.12222394
v -0.40506358 -0.43933766 0.11881616
v -0.44620611 -0.43180713 0.10244014
v -0.42991749 -0.45515184 0.11162982
v -0.42464108 -0.42952792 0.11122324
v -0.43607077 -0.41040131 0.10429919
v -0.44789088 -0.39165801 0.09670011
v -0.46748394 -0.39642142 0.08686881
v -0.47206015 -0.42677086 0.08782935
v -0.45590460 -0.41313463 0.09532775
v 0.10201370 -0.67991721 0.19572719
v 0.11366784 -0.68688615 0.17823879
v 0.12943925 -0.67616909 0.19063599
v 0.09934263 -0.74063838 0.15088019
v 0.09300199 -0.72066234 0.17860146
v -0.47264347 -0.46947296 0.08974112
v -0.50771648 -0.49571772 0.06215222
v -0.45138564 -0.45576964 0.10153794
v -0.50234340 -0.43502764 0.06686207
v 0.13306872 -0.69038033 0.17063205
v 0.14455596 -0.66252269 0.20670871
v 0.12558632 -0.64738140 0.21806796
v 0.10652867 -0.64302169 0.21728138
v 0.11301842 -0.65964431 0.20397639
v -0.48392819 -0.44861715 0.08171791
v -0.46667901 -0.44617020 0.09269711
v -0.49683132 -0.51066092 0.07163594
v -0.51583891 -0.47166407 0.05421229
v -0.50634057 -0.45516996 0.06385101
v -0.52121387 -0.44036930 0.04981771
v -0.52958014 -0.46395805 0.03991916
v -0.51486449 -0.42208919 0.05576223
v -0.51698890 -0.51046298 0.05269232
v -0.48860079 -0.42286165 0.07637406
v -0.60823610 -0.16170035 0.02560274
v 0.43413346 -0.60925885 0.05097156
v -0.51539642 -0.84113688 0.08289959
v -0.26391876 -0.86136156 0.12379392
v -0.20686661 -0.86727051 0.12471305
v -0.18570121 -0.88480838 0.11934425
v -0.19596802 -0.84379843 0.12590158
v -0.22183915 -0.85434126 0.12775576
v -0.15149115 -0.92810407 0.10084924
v -0.28507801 -0.72303336 0.14724637
v -0.28591004 -0.62814631 0.15631932
v -0.26135163 -0.61482414 0.16315545
v -0.24655247 -0.59603261 0.16660276
v -0.28494219 -0.49245809 0.15468376
v -0.28403740 -0.46653841 0.15190961
v -0.06140376 -0.88189295 0.09897921
v 0.16885674 -0.70501445 0.13139685
v 0.36390685 -0.60383419 0.11497362
v -0.12976207 -0.87132176 0.10025165
v -0.16484296 -0.83704364 0.11893511
v -0.14362491 -0.83153722 0.11158521
v -0.30904514 -0.65850878 0.14679075
v -0.17082573 -0.63587097 0.15796302
v -0.28613326 -0.58982077 0.15786344
v -0.34734750 -0.68788746 0.13701240
v -0.36762413 -0.49275168 0.13178210
v -0.30882796 -0.55733360 0.14891066
v -0.30328280 -0.40199139 0.13288402
v -0.34387327 -0.46082601 0.13177033
v 0.01053688 -0.27573233 0.11307468
v 0.04899691 -0.27897681 0.12492760
v 0.17607702 -0.38093644 0.20075682
v -0.50561523 -0.82064861 0.08878513
v -0.43900347 -0.81475800 0.11679476
v -0.45668136 -0.83381790 0.10748306
v -0.28167338 -0.79868655 0.13503285
v -0.14816101 -0.56206157 0.15935422
v -0.16476159 -0.54629759 0.16497083
v -0.16179085 -0.57603789 0.16304330
v -0.14539547 -0.41437521 0.14432609
v -0.16357068 -0.40269288 0.14560225
v -0.17023311 -0.38365389 0.14550217
v 0.08310524 -0.35143770 0.18749624
v -0.39521689 -0.34306669 0.10676542
v 0.00052077 -0.87948811 0.08405438
v -0.04637634 -0.51576472 0.20941747
v 0.13786544 -0.43175019 0.22970672
v 0.09276165 -0.27102257 0.12382309
v 0.07835900 -0.25589459 0.10561993
v 0.07208300 -0.28021921 0.13027740
v 0.05750607 -0.30457664 0.15053465
v 0.03655464 -0.29592446 0.13968438
v 0.05542716 -0.32422886 0.16615629
v 0.40158641 -0.54713218 0.10552766
v 0.42294870 -0.50749547 0.05064999
v -0.51915900 -0.59519201 0.05475913
v -0.51007282 -0.57238357 0.06172410
v -0.53478516 -0.39632756 0.03797857
v 0.03442103 -0.69663212 0.20871980
v 0.37598461 -0.41177450 0.05389597
v 0.37323647 -0.39155718 0.04243774
v 0.36485530 -0.36856839 0.03518397
v 0.35858590 -0.34838142 0.03805865
v -0.20467500 -0.67203840 0.15861707
v -0.22160355 -0.65542131 0.16211822
v -0.40129578 -0.77733624 0.12685178
v -0.49876033 -0.22129123 0.06186913
v 0.31098620 -0.59561108 0.14127910
v 0.29027946 -0.58821833 0.18712768
v -0.43046071 -0.56456046 0.11660933
v 0.17048393 -0.59827166 0.24758536
v 0.28938724 -0.35315872 0.13665235
v 0.29654712 -0.37701072 0.14746165
v 0.32190024 -0.36150829 0.11026172
v 0.33726457 -0.38202343 0.10642881
v 0.35493067 -0.37719071 0.07338247
v 0.32003559 -0.34024049 0.09789551
v 0.34091419 -0.36097250 0.08350293
v 0.30271467 -0.40915473 0.16243072
v -0.43011122 -0.47912011 0.11270435
v -0.15388550 -0.87344492 0.11159206
v 0.04598385 -0.26066025 0.10399235
v 0.17446927 -0.40207322 0.21265168
v -0.44515886 -0.79338234 0.11632924
v -0.46074553 -0.80958534 0.11027781
v -0.42136835 -0.83440582 0.11649581
v -0.41802573 -0.81284963 0.12234339
v -0.40215671 -0.82728562 0.12235634
v -0.50447921 -0.54905670 0.06388991
v 0.01598243 -0.31830269 0.15527606
v 0.07208999 -0.76290622 0.15645691
v -0.02179904 -0.78996700 0.15703484
v 0.00252714 -0.78041762 0.16214433
v -0.01511829 -0.80660967 0.14635297
v 0.32651803 -0.53729834 0.17918020
v 0.26053685 -0.35408289 0.15635175
v 0.24720593 -0.33807181 0.15289991
f 118 119 117
f 371 490 206
f 117 119 120
f 276 264 539
f 115 116 121
f 120 116 117
f 121 116 120
f 146 145 517
f 268 267 144
f 347 1139 346
f 442 33 34
f 222 239 232
f 123 218 122
f 218 217 122
f 234 7 8
f 218 114 217
f 310 229 123
f 224 241 245
f 229 113 218
f 112 219 111
f 1138 340 1168
f 217 121 122
f 521 68 69
f 225 214 443
f 219 112 229
f 113 229 112
f 111 297 110
f 1136 237 81
f 225 444 318
f 339 614 109
f 614 463 108
f 244 243 240
f 297 111 219
f 310 123 124
f 445 93 94
f 228 236 1137
f 463 107 108
f 341 621 465
f 426 424 226
f 232 223 300
f 640 343 637
f 7 234 233
f 253 430 431
f 105 343 640
f 434 433 432
f 109 110 339
f 441 297 219
f 47 226 424
f 274 273 162
f 318 25 26
f 243 224 235
f 184 222 183
f 345 132 346
f 131 132 161
f 434 599 433
f 239 5 6
f 213 131 161
f 213 161 160
f 345 161 132
f 80 81 237
f 138 351 137
f 619 247 617
f 177 646 143
f 468 354 351
f 349 347 134
f 231 221 238
f 143 474 178
f 317 24 25
f 317 235 24
f 136 137 356
f 356 137 351
f 181 355 182
f 147 146 515
f 469 353 645
f 658 480 159
f 487 488 366
f 130 131 213
f 476 654 656
f 663 172 171
f 152 668 153
f 624 247 619
f 360 477 361
f 155 615 156
f 156 157 477
f 161 344 160
f 429 296 428
f 958 968 969
f 648 647 649
f 177 211 176
f 173 256 489
f 661 483 482
f 175 257 255
f 174 255 256
f 367 368 254
f 173 172 661
f 652 476 651
f 255 257 210
f 161 345 344
f 475 646 647
f 657 854 852
f 140 141 279
f 433 599 296
f 505 508 164
f 641 104 640
f 672 150 149
f 264 274 275
f 601 221 600
f 389 718 269
f 100 101 497
f 210 209 255
f 80 231 79
f 91 92 298
f 984 1202 238
f 705 144 145
f 33 236 228
f 313 34 35
f 102 1192 101
f 1134 1128 1118
f 711 714 713
f 157 158 479
f 715 717 716
f 1041 1099 259
f 371 206 491
f 269 718 720
f 104 641 103
f 105 106 343
f 272 271 67
f 78 79 242
f 71 72 267
f 678 679 379
f 83 87 88
f 84 87 83
f 85 86 84
f 278 184 279
f 84 86 87
f 256 255 209
f 88 89 220
f 15 549 14
f 237 231 80
f 231 238 242
f 445 603 725
f 231 237 436
f 620 107 463
f 88 220 83
f 9 304 8
f 298 436 315
f 220 230 1136
f 324 319 448
f 277 745 540
f 230 220 89
f 65 66 273
f 266 741 268
f 315 237 230
f 222 5 239
f 150 151 498
f 671 496 495
f 362 859 1043
f 671 151 150
f 381 380 502
f 677 501 676
f 956 846 847
f 513 386 385
f 154 485 153
f 513 148 147
f 163 523 164
f 148 149 502
f 169 168 674
f 506 382 505
f 146 147 511
f 1109 1111 1108
f 382 507 508
f 270 272 519
f 391 523 524
f 527 162 271
f 163 275 274
f 499 377 498
f 636 466 635
f 389 886 888
f 387 144 72
f 265 72 73
f 144 705 268
f 72 144 267
f 89 90 230
f 739 389 76
f 113 114 218
f 269 886 389
f 76 389 75
f 228 32 33
f 181 182 300
f 387 388 144
f 527 744 524
f 268 741 71
f 271 66 67
f 428 213 160
f 114 115 217
f 267 268 71
f 27 214 225
f 226 215 187
f 701 145 146
f 227 31 32
f 162 273 66
f 521 522 390
f 271 162 66
f 1032 1203 1030
f 168 552 167
f 668 669 494
f 365 364 485
f 29 31 216
f 177 143 212
f 20 446 19
f 142 185 278
f 185 184 278
f 142 1 185
f 393 279 184
f 354 355 644
f 140 372 139
f 222 232 183
f 232 182 183
f 142 278 141
f 472 644 181
f 2 3 185
f 264 275 277
f 68 521 519
f 185 3 184
f 4 5 222
f 4 184 3
f 233 223 239
f 512 384 702
f 709 263 386
f 184 4 222
f 543 11 12
f 185 1 2
f 753 752 143
f 302 300 301
f 178 179 541
f 471 473 357
f 471 357 470
f 180 181 302
f 210 257 211
f 177 212 211
f 439 299 309
f 255 174 175
f 212 143 752
f 394 757 753
f 397 545 546
f 903 902 991
f 207 490 370
f 173 174 256
f 367 369 171
f 211 212 544
f 171 369 401
f 547 208 545
f 547 207 208
f 371 369 254
f 992 765 906
f 171 172 367
f 563 1093 1116
f 170 400 169
f 233 6 7
f 141 278 279
f 1202 242 238
f 127 462 126
f 303 301 234
f 233 234 223
f 470 180 179
f 233 239 6
f 438 280 437
f 1180 754 438
f 245 241 320
f 308 304 306
f 455 336 334
f 214 216 227
f 545 208 209
f 14 776 13
f 206 779 205
f 121 217 115
f 19 446 447
f 311 310 124
f 83 220 82
f 1152 555 18
f 303 307 299
f 555 17 18
f 477 478 156
f 548 776 549
f 600 298 602
f 231 242 79
f 245 22 23
f 22 245 320
f 317 243 235
f 372 258 468
f 317 318 240
f 211 257 176
f 487 158 157
f 235 23 24
f 82 1136 81
f 26 27 225
f 216 28 29
f 183 182 373
f 870 378 1173
f 28 216 214
f 274 264 276
f 228 227 32
f 372 279 258
f 31 227 216
f 29 30 31
f 534 536 530
f 148 502 503
f 214 27 28
f 511 512 701
f 320 322 21
f 164 508 163
f 779 780 205
f 783 204 203
f 1137 443 214
f 169 400 403
f 782 553 402
f 780 204 205
f 203 202 564
f 403 168 169
f 166 165 677
f 690 200 199
f 200 689 201
f 780 915 204
f 675 500 674
f 505 164 165
f 195 196 569
f 796 198 199
f 509 689 690
f 412 572 573
f 610 938 453
f 413 195 194
f 195 567 194
f 567 410 409
f 572 197 196
f 319 329 330
f 408 685 683
f 784 201 202
f 193 416 418
f 186 187 215
f 274 65 273
f 276 65 274
f 159 428 160
f 440 340 1138
f 528 529 63
f 1166 1217 1165
f 218 123 229
f 64 528 63
f 239 223 232
f 1184 59 60
f 802 573 800
f 194 567 568
f 289 417 191
f 90 315 230
f 575 58 59
f 784 554 925
f 55 56 419
f 57 415 577
f 605 442 313
f 292 191 190
f 436 600 221
f 287 413 579
f 479 480 361
f 320 21 22
f 168 781 552
f 209 208 256
f 581 582 421
f 44 45 586
f 358 1155 250
f 191 192 582
f 586 423 425
f 224 245 235
f 423 45 46
f 149 150 504
f 586 587 44
f 207 370 208
f 321 329 319
f 23 235 245
f 690 692 691
f 539 528 276
f 580 42 43
f 175 176 257
f 943 939 940
f 591 597 420
f 144 388 145
f 890 708 889
f 325 327 329
f 243 244 224
f 733 721 731
f 292 54 55
f 55 419 292
f 190 191 581
f 291 53 54
f 270 391 524
f 53 293 52
f 294 51 52
f 187 294 188
f 188 294 293
f 65 276 64
f 188 189 426
f 163 274 162
f 226 187 188
f 226 47 215
f 347 346 133
f 47 48 215
f 186 48 49
f 50 51 186
f 49 50 186
f 328 244 332
f 215 48 186
f 393 184 183
f 154 155 486
f 186 51 187
f 424 295 423
f 166 676 167
f 67 68 272
f 191 292 289
f 36 1190 809
f 214 227 228
f 205 204 404
f 665 152 153
f 322 324 446
f 762 281 760
f 565 407 564
f 167 566 166
f 794 410 569
f 794 795 570
f 529 531 537
f 803 572 574
f 575 576 414
f 412 573 802
f 415 57 58
f 193 192 416
f 417 289 577
f 288 416 417
f 585 192 193
f 935 41 42
f 190 189 291
f 291 189 293
f 190 291 292
f 292 291 54
f 291 293 53
f 189 188 293
f 51 294 187
f 293 294 52
f 581 427 598
f 580 805 590
f 429 159 158
f 430 433 296
f 311 312 441
f 297 461 339
f 602 92 93
f 298 600 436
f 299 301 303
f 307 309 299
f 232 300 182
f 301 300 223
f 234 301 223
f 302 301 299
f 302 299 439
f 181 300 302
f 304 234 8
f 305 437 309
f 306 9 10
f 234 304 303
f 9 306 304
f 754 987 897
f 306 898 754
f 305 307 308
f 308 307 303
f 309 307 305
f 304 308 303
f 308 306 1180
f 439 1151 394
f 180 439 179
f 311 124 125
f 219 229 310
f 125 440 311
f 219 310 311
f 126 440 125
f 461 246 339
f 36 37 812
f 605 236 442
f 333 314 607
f 318 444 451
f 90 91 315
f 298 315 91
f 94 603 445
f 718 719 720
f 318 317 25
f 243 317 240
f 26 225 318
f 225 443 444
f 319 322 321
f 321 241 325
f 321 320 241
f 320 321 322
f 325 241 326
f 328 326 224
f 322 319 324
f 20 21 322
f 328 323 326
f 336 338 323
f 448 319 330
f 19 447 18
f 326 241 224
f 325 323 327
f 328 224 244
f 323 325 326
f 335 336 328
f 1167 410 570
f 244 333 332
f 313 809 606
f 325 329 321
f 330 329 327
f 338 612 327
f 611 449 330
f 37 38 610
f 332 335 328
f 240 451 244
f 335 332 1203
f 236 605 607
f 332 333 1153
f 606 609 452
f 1182 930 795
f 1203 332 331
f 336 335 334
f 455 338 336
f 328 336 323
f 1030 609 1031
f 1029 411 1182
f 337 813 612
f 327 323 338
f 297 339 110
f 463 614 817
f 127 1170 639
f 973 1201 972
f 341 628 638
f 639 1220 638
f 615 616 464
f 670 153 668
f 341 620 463
f 635 637 247
f 344 248 642
f 160 344 658
f 346 132 133
f 344 345 248
f 347 133 134
f 248 345 346
f 643 349 134
f 349 350 347
f 469 136 353
f 1139 248 346
f 643 134 135
f 350 349 348
f 348 1140 350
f 650 1142 1155
f 138 139 468
f 1144 356 249
f 355 352 493
f 249 351 354
f 180 470 472
f 136 469 135
f 468 351 138
f 355 354 352
f 258 373 493
f 181 180 472
f 249 356 351
f 136 356 353
f 474 1154 178
f 356 1144 353
f 176 647 177
f 1154 1216 471
f 651 176 175
f 361 480 659
f 852 853 657
f 852 854 478
f 480 158 159
f 361 659 1145
f 663 664 483
f 1172 169 674
f 664 857 483
f 1149 381 377
f 1146 252 1147
f 484 364 1159
f 156 478 1157
f 365 854 1146
f 156 615 1160
f 630 862 830
f 368 367 172
f 369 367 254
f 489 172 173
f 667 208 370
f 254 490 371
f 401 282 400
f 254 368 370
f 368 489 667
f 491 206 205
f 492 401 369
f 279 372 140
f 468 258 352
f 493 182 355
f 393 373 258
f 103 641 837
f 818 464 616
f 148 513 514
f 706 885 884
f 102 1191 1192
f 1118 1128 1099
f 152 665 1162
f 377 499 867
f 377 867 869
f 859 362 857
f 523 525 164
f 877 681 879
f 981 976 875
f 877 879 503
f 504 498 381
f 381 1149 1150
f 506 165 166
f 277 507 261
f 700 199 198
f 62 63 529
f 148 503 1163
f 741 704 522
f 717 891 716
f 884 885 514
f 517 145 388
f 386 263 891
f 72 265 387
f 388 387 265
f 707 388 265
f 517 386 515
f 739 77 518
f 727 728 887
f 69 740 522
f 270 519 520
f 742 270 520
f 525 1175 164
f 531 534 530
f 531 529 392
f 373 393 183
f 258 279 393
f 541 439 394
f 542 756 755
f 13 776 777
f 546 760 397
f 756 280 758
f 909 777 548
f 546 209 210
f 763 397 760
f 927 787 926
f 555 556 17
f 928 558 562
f 1114 1121 561
f 401 400 170
f 403 400 782
f 171 401 170
f 369 371 492
f 282 404 553
f 880 402 553
f 782 400 282
f 403 402 781
f 404 783 553
f 404 492 491
f 554 784 785
f 450 449 788
f 764 766 768
f 556 927 17
f 565 202 201
f 783 407 1181
f 687 261 682
f 682 382 506
f 1232 596 1068
f 582 422 583
f 794 196 197
f 410 285 1066
f 813 454 612
f 337 455 457
f 196 195 573
f 695 538 694
f 194 193 418
f 800 801 802
f 413 194 579
f 415 288 577
f 575 415 58
f 578 415 414
f 417 416 192
f 418 416 288
f 191 417 192
f 419 577 289
f 288 415 578
f 418 579 194
f 577 419 56
f 292 419 289
f 290 593 591
f 580 935 42
f 589 584 588
f 426 189 598
f 568 193 194
f 596 594 422
f 424 423 46
f 425 423 295
f 47 424 46
f 226 188 426
f 589 295 427
f 584 806 583
f 189 190 598
f 424 426 295
f 583 806 421
f 295 426 427
f 429 428 159
f 213 428 296
f 158 487 431
f 430 429 431
f 433 430 1201
f 296 429 430
f 158 431 429
f 431 366 862
f 629 624 631
f 129 1223 1221
f 1201 430 253
f 1222 1223 432
f 129 130 434
f 599 434 130
f 435 602 445
f 719 892 316
f 231 436 221
f 315 436 237
f 438 437 305
f 1151 437 280
f 1180 306 754
f 438 759 758
f 439 180 302
f 439 309 1151
f 440 126 462
f 311 440 312
f 311 441 219
f 461 441 312
f 33 442 236
f 34 313 442
f 1137 214 228
f 443 314 444
f 314 333 444
f 451 333 244
f 603 94 95
f 604 445 316
f 322 446 20
f 447 446 324
f 450 447 324
f 447 450 1152
f 449 448 330
f 450 283 1152
f 611 330 814
f 1094 1114 1125
f 324 448 450
f 449 450 448
f 318 451 240
f 444 333 451
f 452 605 606
f 332 1153 331
f 38 949 610
f 285 410 1167
f 457 459 337
f 921 919 920
f 1033 1204 1032
f 337 338 455
f 1076 946 1025
f 813 459 460
f 1204 455 334
f 456 1038 459
f 942 453 938
f 1029 571 799
f 456 459 457
f 459 458 460
f 458 815 460
f 929 454 1004
f 441 461 297
f 1138 461 312
f 639 462 127
f 440 462 340
f 108 109 614
f 341 465 620
f 616 155 154
f 861 860 488
f 247 343 617
f 343 618 617
f 624 634 247
f 1191 102 103
f 642 248 848
f 649 656 359
f 372 468 139
f 354 468 352
f 1144 645 353
f 348 643 469
f 471 470 179
f 472 470 357
f 1154 179 178
f 250 1141 1216
f 357 249 472
f 644 472 249
f 645 473 1141
f 473 645 1144
f 1156 474 143
f 1154 474 358
f 648 650 475
f 646 1156 143
f 849 175 174
f 173 661 662
f 477 157 479
f 478 477 360
f 478 360 852
f 1157 365 486
f 480 479 158
f 477 479 361
f 159 160 658
f 659 251 1145
f 855 856 1199
f 476 652 654
f 482 856 855
f 855 655 662
f 664 171 170
f 483 857 1158
f 665 485 484
f 868 867 499
f 485 154 486
f 484 485 364
f 1157 486 155
f 485 486 365
f 488 487 157
f 431 487 366
f 1160 157 156
f 861 666 860
f 667 256 208
f 172 489 368
f 370 490 254
f 206 490 207
f 205 404 491
f 492 404 282
f 401 492 282
f 371 491 492
f 258 493 352
f 182 493 373
f 669 152 151
f 866 670 494
f 495 865 864
f 863 494 669
f 148 514 1164
f 496 885 1161
f 1224 497 101
f 1134 497 376
f 499 498 151
f 381 498 377
f 1162 151 152
f 868 673 867
f 675 168 167
f 1172 500 1173
f 501 678 680
f 870 500 675
f 502 149 504
f 503 502 380
f 503 380 877
f 1163 384 511
f 498 504 150
f 502 504 381
f 506 505 165
f 508 505 382
f 566 506 166
f 682 261 507
f 508 277 275
f 682 507 382
f 277 508 507
f 163 508 275
f 691 693 509
f 791 407 565
f 803 198 197
f 697 538 695
f 1163 511 147
f 512 511 384
f 702 384 262
f 705 512 704
f 513 147 515
f 514 513 385
f 514 385 884
f 1164 496 672
f 517 515 146
f 513 515 386
f 890 983 982
f 709 711 263
f 388 707 710
f 386 517 709
f 1202 77 78
f 238 601 892
f 68 519 272
f 520 519 390
f 881 520 390
f 978 875 680
f 522 521 69
f 519 521 390
f 741 740 70
f 704 702 703
f 524 523 163
f 525 523 391
f 527 163 162
f 272 270 744
f 1177 1176 525
f 1175 1176 679
f 742 391 270
f 526 742 743
f 744 271 272
f 163 527 524
f 276 528 64
f 529 528 392
f 532 534 392
f 537 62 529
f 536 535 751
f 62 1165 61
f 540 392 539
f 1225 537 530
f 277 261 745
f 692 694 383
f 533 537 1225
f 286 801 1186
f 392 534 531
f 746 536 532
f 535 536 746
f 685 687 683
f 532 536 534
f 751 535 750
f 530 537 531
f 537 533 1165
f 510 574 695
f 536 538 699
f 540 539 264
f 528 539 392
f 277 540 264
f 392 540 532
f 439 541 179
f 753 541 394
f 757 280 756
f 752 755 544
f 910 13 777
f 543 911 897
f 544 212 752
f 396 903 544
f 546 545 209
f 547 545 397
f 902 761 546
f 763 760 281
f 763 547 397
f 207 992 206
f 775 1226 774
f 777 911 910
f 926 15 16
f 778 549 398
f 992 547 765
f 912 780 550
f 913 551 914
f 554 785 917
f 552 880 688
f 552 688 566
f 404 204 783
f 880 686 688
f 202 203 916
f 1005 405 1006
f 1152 18 447
f 556 555 406
f 556 406 558
f 787 560 1115
f 559 558 406
f 559 283 788
f 406 1152 559
f 562 558 557
f 283 450 788
f 558 559 1121
f 560 562 563
f 398 549 787
f 449 611 1002
f 1002 789 449
f 562 557 1113
f 562 560 928
f 1123 1125 1122
f 547 763 765
f 565 564 202
f 783 564 407
f 689 565 201
f 693 792 509
f 552 566 167
f 566 408 683
f 567 195 569
f 568 567 409
f 1066 285 1064
f 568 422 585
f 569 196 794
f 567 569 410
f 795 197 198
f 1167 570 1218
f 932 200 786
f 200 201 925
f 573 572 196
f 574 572 412
f 195 413 573
f 287 800 413
f 1178 286 698
f 700 574 510
f 576 575 59
f 415 575 414
f 1184 1217 1185
f 414 576 1183
f 57 577 56
f 288 417 577
f 287 578 414
f 288 578 418
f 418 578 579
f 287 579 578
f 44 587 805
f 936 935 580
f 582 581 191
f 427 581 421
f 585 582 192
f 583 422 290
f 584 583 290
f 421 582 583
f 590 584 591
f 805 588 590
f 568 585 193
f 582 585 422
f 423 586 45
f 587 586 425
f 588 587 425
f 43 805 580
f 589 588 425
f 590 588 584
f 295 589 425
f 427 421 806
f 591 584 290
f 580 590 420
f 593 290 594
f 420 590 591
f 1231 592 1232
f 593 597 591
f 594 290 422
f 593 592 595
f 596 422 568
f 593 594 807
f 285 931 1062
f 1212 936 595
f 1068 568 409
f 593 807 592
f 593 595 597
f 420 597 595
f 581 598 190
f 426 598 427
f 130 213 599
f 296 599 213
f 602 298 92
f 601 600 435
f 601 435 604
f 238 221 601
f 445 602 93
f 600 602 435
f 726 603 729
f 732 731 726
f 604 316 892
f 435 445 604
f 606 605 313
f 607 605 452
f 313 35 809
f 609 331 1153
f 333 607 452
f 607 314 1137
f 812 37 610
f 1189 609 606
f 609 1189 810
f 1030 331 609
f 949 39 811
f 950 951 952
f 814 327 612
f 789 561 788
f 337 612 338
f 814 454 611
f 798 1010 1012
f 561 789 1003
f 339 246 816
f 463 817 341
f 616 615 155
f 1160 615 464
f 670 154 153
f 342 464 818
f 618 343 106
f 619 617 465
f 107 618 106
f 465 617 618
f 619 465 621
f 634 635 247
f 465 618 620
f 107 620 618
f 625 621 341
f 832 629 974
f 631 625 632
f 366 488 860
f 625 638 623
f 1222 633 1219
f 631 619 621
f 627 955 831
f 817 614 816
f 629 622 624
f 625 623 632
f 623 1219 1048
f 342 820 824
f 828 627 831
f 1138 1168 246
f 639 638 628
f 631 624 619
f 1048 974 626
f 366 860 862
f 832 630 830
f 625 631 621
f 629 631 626
f 633 1048 1219
f 631 632 626
f 633 1201 973
f 973 974 633
f 955 624 622
f 635 634 627
f 636 635 627
f 635 466 637
f 820 342 818
f 836 833 636
f 637 466 640
f 247 637 343
f 341 638 625
f 628 1168 639
f 462 639 340
f 127 128 1170
f 641 640 466
f 104 105 640
f 636 833 466
f 641 466 833
f 248 1139 848
f 660 658 1171
f 349 643 348
f 135 469 643
f 354 644 249
f 181 644 355
f 1141 250 1140
f 348 469 645
f 647 646 177
f 475 1155 1156
f 649 176 651
f 649 359 648
f 650 648 359
f 475 647 648
f 176 649 647
f 649 476 656
f 966 967 359
f 1143 1142 958
f 652 651 175
f 649 651 476
f 174 173 662
f 655 653 654
f 853 962 964
f 660 467 970
f 655 654 652
f 654 653 656
f 849 655 652
f 655 481 961
f 959 656 653
f 968 967 851
f 360 1145 853
f 657 853 964
f 344 642 658
f 1171 467 660
f 480 660 659
f 660 970 1042
f 658 660 480
f 851 970 467
f 661 172 663
f 662 661 482
f 855 662 482
f 662 655 849
f 664 663 171
f 661 663 483
f 170 169 1172
f 1158 857 362
f 485 665 153
f 1162 665 484
f 824 826 342
f 862 253 431
f 368 667 370
f 256 667 489
f 669 668 152
f 670 668 494
f 671 669 151
f 494 863 374
f 866 494 374
f 616 154 670
f 671 150 672
f 669 671 495
f 1164 672 149
f 671 672 496
f 1100 980 1083
f 870 871 378
f 675 674 168
f 1172 674 500
f 676 675 167
f 871 872 680
f 677 676 166
f 675 676 501
f 165 164 1175
f 678 677 679
f 680 678 379
f 501 677 678
f 677 165 1175
f 679 1176 986
f 896 379 986
f 260 1149 869
f 380 1150 878
f 896 526 743
f 683 506 566
f 683 682 506
f 684 685 686
f 682 683 687
f 284 407 791
f 535 746 747
f 686 685 408
f 685 684 687
f 688 686 408
f 686 284 793
f 684 693 749
f 748 746 745
f 566 688 408
f 880 552 402
f 690 689 200
f 565 689 509
f 692 199 700
f 692 383 691
f 693 691 383
f 509 690 691
f 199 692 690
f 692 510 694
f 535 747 750
f 684 686 793
f 695 694 510
f 694 538 751
f 1178 574 412
f 696 699 697
f 696 697 698
f 1185 1186 801
f 698 697 695
f 696 1225 699
f 1178 695 574
f 698 286 1188
f 536 699 530
f 538 697 699
f 700 198 803
f 692 700 510
f 511 701 146
f 705 701 512
f 703 702 262
f 704 512 702
f 743 520 882
f 703 881 522
f 522 704 703
f 705 704 266
f 268 705 266
f 701 705 145
f 716 263 713
f 1087 1105 1215
f 73 983 1053
f 710 709 517
f 890 516 707
f 888 75 389
f 517 388 710
f 709 710 711
f 707 516 710
f 516 1179 710
f 712 713 714
f 727 269 720
f 736 1109 735
f 263 711 713
f 714 711 1179
f 712 715 716
f 889 708 887
f 722 724 727
f 1105 1087 1103
f 844 1049 847
f 712 716 713
f 1103 717 715
f 884 717 706
f 891 717 385
f 739 718 389
f 719 718 518
f 719 984 892
f 725 726 723
f 719 723 722
f 719 722 720
f 723 726 721
f 738 895 737
f 723 719 316
f 724 722 721
f 725 723 316
f 721 722 723
f 726 731 721
f 724 728 727
f 445 725 316
f 725 603 726
f 729 603 95
f 731 732 730
f 722 727 720
f 733 735 737
f 889 714 516
f 708 886 887
f 95 96 729
f 732 893 1193
f 1129 1130 1131
f 733 737 724
f 732 726 729
f 733 731 730
f 96 893 729
f 732 729 893
f 735 733 730
f 721 733 724
f 985 732 894
f 714 895 738
f 736 735 730
f 735 734 737
f 1129 99 1118
f 100 1134 99
f 737 734 738
f 728 724 737
f 1108 738 734
f 712 714 738
f 77 739 76
f 718 739 518
f 69 70 740
f 71 741 70
f 704 741 266
f 522 740 741
f 743 742 520
f 526 1176 1177
f 520 881 882
f 882 262 883
f 524 744 270
f 271 744 527
f 747 748 687
f 540 745 532
f 532 745 746
f 745 261 748
f 687 749 747
f 750 383 751
f 687 748 261
f 746 748 747
f 684 749 687
f 750 749 693
f 749 750 747
f 693 383 750
f 694 751 383
f 751 538 536
f 753 143 178
f 752 542 755
f 753 178 541
f 542 752 753
f 897 899 754
f 306 10 898
f 542 757 756
f 396 544 755
f 758 280 438
f 396 755 756
f 753 757 542
f 757 394 1151
f 759 438 899
f 756 758 900
f 778 1226 775
f 756 900 396
f 902 546 210
f 761 760 546
f 900 759 1229
f 760 761 762
f 1227 761 903
f 770 768 767
f 766 763 281
f 766 765 763
f 768 281 907
f 764 1194 1088
f 764 904 765
f 904 399 906
f 907 281 762
f 765 766 764
f 774 771 772
f 1093 769 1095
f 281 768 766
f 770 772 769
f 1088 904 764
f 770 1194 768
f 772 770 767
f 1092 1194 769
f 907 908 767
f 1095 771 1096
f 767 908 774
f 772 771 1095
f 762 1227 1228
f 988 901 759
f 767 774 772
f 774 773 775
f 901 988 990
f 775 548 778
f 549 776 14
f 777 776 548
f 548 775 909
f 12 910 543
f 778 398 1226
f 548 549 778
f 992 779 206
f 780 779 550
f 912 550 399
f 780 914 915
f 403 781 168
f 402 552 781
f 403 782 402
f 282 553 782
f 564 783 203
f 1181 407 284
f 784 202 916
f 925 554 786
f 785 916 915
f 554 917 405
f 922 924 405
f 797 571 796
f 926 549 15
f 787 927 928
f 789 788 449
f 559 788 561
f 929 1002 454
f 1003 789 1002
f 919 994 922
f 922 917 918
f 792 791 565
f 284 791 793
f 509 792 565
f 793 693 684
f 791 792 793
f 693 793 792
f 795 794 197
f 794 570 410
f 796 795 198
f 1182 795 571
f 797 796 199
f 795 796 571
f 200 797 199
f 932 786 933
f 571 797 799
f 799 797 932
f 797 200 932
f 799 798 934
f 800 287 801
f 573 413 800
f 287 414 1183
f 60 61 1217
f 801 286 802
f 412 802 286
f 572 803 197
f 700 803 574
f 945 939 943
f 1196 1197 1211
f 44 805 43
f 805 587 588
f 584 589 806
f 427 806 589
f 594 596 807
f 1066 1068 409
f 1022 1021 931
f 938 811 940
f 36 809 35
f 809 608 1189
f 1190 952 608
f 948 1037 1075
f 39 1196 1195
f 1212 1213 804
f 950 610 453
f 809 1190 608
f 459 813 337
f 454 813 460
f 327 814 330
f 454 814 612
f 815 458 1074
f 1058 999 1000
f 816 246 1168
f 614 339 816
f 816 628 817
f 628 341 817
f 954 616 670
f 616 954 818
f 822 825 828
f 818 819 820
f 820 819 823
f 820 825 824
f 827 823 819
f 845 834 842
f 831 955 829
f 826 666 342
f 866 819 954
f 824 825 822
f 825 820 823
f 824 822 826
f 823 821 825
f 841 828 825
f 822 829 826
f 832 829 622
f 374 1086 827
f 821 823 827
f 841 821 838
f 636 627 828
f 831 829 822
f 832 830 829
f 666 826 830
f 829 830 826
f 828 831 822
f 627 634 955
f 622 629 832
f 974 629 626
f 641 833 837
f 834 836 838
f 834 838 842
f 1224 101 1192
f 837 836 839
f 834 840 839
f 838 836 636
f 839 836 834
f 836 837 833
f 837 835 1191
f 841 636 828
f 838 821 842
f 842 1205 845
f 837 839 835
f 259 1224 956
f 835 839 840
f 821 841 825
f 636 841 838
f 843 821 827
f 821 843 842
f 1085 863 864
f 834 845 846
f 864 865 1084
f 956 847 259
f 1205 842 843
f 846 845 844
f 846 844 847
f 834 846 840
f 1050 844 1205
f 1051 375 1087
f 848 350 1143
f 642 848 969
f 175 849 652
f 662 849 174
f 964 960 965
f 1042 659 660
f 359 656 966
f 966 959 851
f 853 852 360
f 1047 854 657
f 960 962 850
f 960 850 959
f 1146 854 252
f 854 365 1157
f 482 1158 856
f 655 855 481
f 362 1043 1045
f 963 1200 1047
f 1172 1173 1174
f 857 664 1174
f 876 980 378
f 1174 859 857
f 980 858 1173
f 1045 971 1046
f 488 1160 861
f 862 860 666
f 464 342 861
f 666 861 342
f 830 862 666
f 630 972 862
f 495 864 669
f 863 669 864
f 495 1161 865
f 975 1049 1050
f 975 1102 1051
f 975 1050 1084
f 374 827 866
f 819 866 827
f 499 1162 868
f 869 867 673
f 1159 868 484
f 868 363 1082
f 871 874 876
f 260 869 976
f 872 675 501
f 870 872 871
f 680 874 871
f 876 378 871
f 675 872 870
f 680 872 501
f 874 875 873
f 977 869 673
f 875 874 680
f 876 874 873
f 978 680 379
f 878 681 877
f 977 873 976
f 971 1148 1147
f 878 877 380
f 681 262 879
f 260 981 878
f 978 979 875
f 262 384 879
f 879 384 1163
f 1181 553 783
f 686 880 284
f 522 881 390
f 881 703 882
f 703 262 882
f 883 262 681
f 979 1052 878
f 743 882 883
f 717 884 385
f 706 375 885
f 1161 885 375
f 885 496 1164
f 887 886 269
f 886 708 888
f 727 887 269
f 887 728 889
f 982 888 708
f 74 75 888
f 889 728 895
f 890 889 516
f 1053 707 265
f 983 74 982
f 386 891 385
f 716 891 263
f 892 601 604
f 984 719 518
f 97 1193 96
f 732 1193 894
f 1131 97 98
f 732 985 730
f 889 895 714
f 737 895 728
f 743 883 896
f 681 1052 883
f 899 897 395
f 987 754 898
f 10 11 898
f 987 898 11
f 754 899 438
f 395 759 899
f 758 759 900
f 1229 759 901
f 988 759 395
f 1228 773 908
f 210 211 902
f 991 902 211
f 1227 903 396
f 902 903 761
f 768 1194 764
f 906 399 550
f 1092 1093 1090
f 1056 998 997
f 550 779 992
f 765 904 906
f 908 907 762
f 768 907 767
f 762 761 1227
f 908 773 774
f 990 988 989
f 911 543 910
f 13 910 12
f 911 777 909
f 989 911 909
f 911 395 897
f 913 912 399
f 915 914 551
f 1054 1055 993
f 995 999 996
f 780 912 914
f 913 914 912
f 915 551 918
f 204 915 203
f 915 916 203
f 784 916 785
f 785 918 917
f 918 920 922
f 915 918 785
f 918 551 920
f 551 921 920
f 1008 923 1009
f 921 551 913
f 922 920 919
f 913 399 1055
f 921 913 1054
f 994 924 922
f 917 922 405
f 923 994 996
f 790 1000 999
f 1009 1001 1008
f 798 799 1028
f 784 925 201
f 786 200 925
f 927 926 16
f 549 926 787
f 17 927 16
f 558 928 556
f 787 928 560
f 556 928 927
f 1004 454 460
f 815 1059 1004
f 411 931 1218
f 570 795 930
f 934 1013 1015
f 942 939 1039
f 786 1005 933
f 799 932 1028
f 1006 933 1005
f 924 1007 1006
f 1011 1012 1001
f 815 1074 1071
f 936 580 420
f 935 804 1198
f 595 936 420
f 804 935 936
f 812 950 952
f 1204 457 455
f 949 938 610
f 811 1195 943
f 1232 592 807
f 940 942 938
f 811 39 1195
f 940 939 942
f 40 1197 1196
f 1207 1209 1212
f 945 947 939
f 1036 1038 1035
f 811 943 940
f 941 1210 945
f 1207 592 1231
f 1067 808 1064
f 941 945 943
f 1214 947 945
f 1015 411 934
f 948 1039 947
f 1214 945 944
f 947 946 948
f 1025 1016 1020
f 937 1230 1035
f 39 949 38
f 938 949 811
f 950 453 951
f 812 610 950
f 1040 453 942
f 951 1230 1031
f 951 810 952
f 952 810 1189
f 1024 1026 1027
f 1022 931 411
f 866 954 670
f 818 954 819
f 624 955 634
f 829 955 622
f 1224 259 376
f 846 956 840
f 1106 1103 715
f 259 847 1041
f 848 1143 958
f 650 967 958
f 960 959 653
f 851 959 850
f 961 960 653
f 962 251 1042
f 655 961 653
f 1199 965 481
f 964 962 960
f 853 251 962
f 1199 963 965
f 1046 1200 1045
f 965 960 961
f 657 964 963
f 481 965 961
f 963 964 965
f 959 966 656
f 967 966 851
f 851 467 968
f 359 967 650
f 969 968 467
f 958 967 968
f 642 969 467
f 958 969 848
f 851 850 970
f 1042 970 850
f 971 1043 1044
f 363 1159 1147
f 973 972 630
f 253 862 972
f 974 973 630
f 633 432 1201
f 832 974 630
f 626 632 1048
f 1051 865 375
f 1049 1079 1041
f 977 976 869
f 875 976 873
f 1082 1044 1081
f 876 873 977
f 379 896 978
f 979 878 981
f 978 896 979
f 896 883 1052
f 1083 1101 1081
f 673 1081 977
f 976 981 260
f 979 981 875
f 888 982 74
f 708 890 982
f 890 707 1053
f 74 983 73
f 1202 518 77
f 238 892 984
f 894 736 985
f 736 730 985
f 679 986 379
f 526 896 986
f 11 543 987
f 897 987 543
f 989 395 911
f 909 990 989
f 990 909 775
f 395 989 988
f 775 773 990
f 901 990 773
f 211 544 991
f 903 991 544
f 547 992 207
f 550 992 906
f 1093 1057 1090
f 1089 1091 998
f 997 996 994
f 923 924 994
f 998 1056 1054
f 997 998 995
f 997 994 919
f 995 1123 999
f 1056 919 921
f 995 996 997
f 993 1089 998
f 1124 998 1091
f 1000 790 929
f 996 999 1058
f 1000 929 1004
f 613 1060 1009
f 1071 1072 1073
f 1028 1007 1010
f 454 1002 611
f 1003 1002 929
f 929 790 1003
f 1003 790 1122
f 460 815 1004
f 815 613 1059
f 786 554 1005
f 405 1005 554
f 405 924 1006
f 923 1008 924
f 1010 1007 1001
f 933 1006 1007
f 1001 1007 1008
f 924 1008 1007
f 1058 923 996
f 613 1206 1059
f 1011 1001 1060
f 1010 798 1028
f 934 1012 1013
f 1012 934 798
f 1001 1012 1010
f 1012 1011 1013
f 1014 1011 1072
f 1013 1011 1014
f 1023 1017 1019
f 1017 1014 953
f 1023 1013 1014
f 411 1015 1022
f 1017 1020 1016
f 1097 1021 1016
f 1020 1017 1024
f 1019 1017 1016
f 1018 1020 1024
f 1037 1077 1036
f 1019 1016 1021
f 1023 1019 1015
f 1024 1017 953
f 1025 1020 1018
f 1016 1098 1097
f 931 1021 1062
f 1015 1019 1022
f 1021 1022 1019
f 1013 1023 1015
f 1017 1023 1014
f 953 1026 1024
f 1027 1018 1024
f 1077 1076 1018
f 1025 946 1098
f 1026 953 1071
f 456 1035 1038
f 1026 1074 1078
f 1035 456 1033
f 932 933 1028
f 1028 933 1007
f 799 934 1029
f 411 1029 934
f 1031 609 810
f 1032 1030 937
f 951 1031 810
f 937 1030 1031
f 1033 1032 937
f 334 335 1203
f 1031 1230 937
f 1204 456 457
f 1040 951 453
f 1018 1027 1077
f 937 1035 1033
f 1036 1035 1034
f 1036 1034 1037
f 1036 1027 1038
f 1034 1040 1075
f 1037 948 1076
f 1078 1027 1026
f 1038 1078 459
f 947 1039 939
f 1075 1039 948
f 942 1039 1075
f 1230 1040 1034
f 1041 847 1049
f 1099 1041 1117
f 962 1042 850
f 659 1042 251
f 1044 1043 859
f 1045 1043 971
f 1100 859 858
f 977 1101 876
f 1147 1046 971
f 362 1045 856
f 1047 1046 252
f 963 1199 1200
f 854 1047 252
f 963 1047 657
f 623 1048 632
f 633 974 1048
f 1050 1049 844
f 1049 975 1079
f 1085 1050 1086
f 1085 864 1084
f 1087 375 706
f 1051 1215 1079
f 878 1052 681
f 896 1052 979
f 73 1053 265
f 890 1053 983
f 1055 1054 913
f 998 1054 993
f 1088 399 904
f 905 993 1055
f 919 1056 997
f 1054 1056 921
f 1057 1089 1090
f 1112 1113 1094
f 1206 1058 1000
f 1009 923 1058
f 1206 613 1009
f 1004 1059 1206
f 1060 613 1073
f 1001 1009 1060
f 1070 1065 1069
f 1021 1063 1062
f 1021 1097 1063
f 1066 1064 808
f 1063 1069 1067
f 1231 1067 1065
f 285 1062 1064
f 1063 1064 1062
f 1061 1070 1069
f 592 1207 595
f 1068 1066 808
f 1066 409 410
f 1064 1063 1067
f 1069 1063 1061
f 1068 808 1232
f 1068 596 568
f 1061 1098 1070
f 1065 1067 1069
f 1214 946 947
f 1214 1208 1070
f 953 1014 1072
f 815 1071 613
f 1073 1072 1011
f 953 1072 1071
f 1060 1073 1011
f 613 1071 1073
f 1078 1074 458
f 1071 1074 1026
f 1034 1075 1037
f 1040 942 1075
f 946 1076 948
f 1018 1076 1025
f 1036 1077 1027
f 1076 1077 1037
f 459 1078 458
f 1027 1078 1038
f 1051 1079 975
f 957 1041 1079
f 1127 1119 1104
f 1126 1080 1117
f 1082 1081 673
f 1083 1081 1044
f 868 1082 673
f 1044 1082 363
f 1100 1044 859
f 1101 980 876
f 865 1051 1102
f 1085 1084 1050
f 1050 1205 1086
f 1085 374 863
f 827 1086 843
f 374 1085 1086
f 1103 706 717
f 1087 706 1103
f 905 1055 1088
f 399 1088 1055
f 1090 1089 993
f 1091 1089 1057
f 993 905 1090
f 1092 1090 905
f 1057 1094 1091
f 1114 1094 557
f 1194 1092 905
f 1093 1092 769
f 769 772 1095
f 1093 563 1112
f 1112 1094 1057
f 557 1121 1114
f 1226 1096 771
f 1093 1095 1116
f 1115 398 787
f 1116 560 563
f 1098 1016 1025
f 1063 1097 1061
f 1070 1098 946
f 1097 1098 1061
f 1117 1041 957
f 1099 1080 1118
f 980 1100 858
f 1044 1100 1083
f 1081 1101 977
f 980 1101 1083
f 975 1084 1102
f 865 1102 1084
f 715 1107 1106
f 1106 1105 1103
f 1107 1111 1104
f 1111 1110 1104
f 1119 1105 1104
f 1215 1105 957
f 1107 715 712
f 1105 1106 1104
f 1108 1107 712
f 1104 1106 1107
f 738 1108 712
f 1109 1108 734
f 735 1109 734
f 1109 736 1110
f 1135 1110 736
f 1117 1080 1099
f 1108 1111 1107
f 1110 1111 1109
f 1093 1112 1057
f 1113 1112 563
f 562 1113 563
f 557 1094 1113
f 561 1122 1114
f 1123 1122 790
f 1116 1115 560
f 398 1115 1096
f 1095 1096 1116
f 1116 1096 1115
f 1119 957 1105
f 1119 1127 1117
f 1118 1080 1129
f 497 1134 100
f 1127 1104 1110
f 1117 957 1119
f 894 1133 736
f 98 1132 1131
f 558 1121 557
f 561 1121 559
f 1003 1122 561
f 790 999 1123
f 995 1124 1123
f 1123 1124 1125
f 998 1124 995
f 1125 1124 1091
f 1094 1125 1091
f 1122 1125 1114
f 1135 1126 1110
f 1130 1126 1120
f 1110 1126 1127
f 1117 1127 1126
f 376 259 1128
f 1099 1128 259
f 1130 1129 1080
f 98 99 1132
f 1126 1130 1080
f 1130 1120 1131
f 1120 1133 1131
f 1131 1133 97
f 99 1129 1132
f 1131 1132 1129
f 1133 1120 1135
f 97 1133 894
f 99 1134 1118
f 1128 1134 376
f 1133 1135 736
f 1126 1135 1120
f 237 1136 230
f 220 1136 82
f 607 1137 236
f 443 1137 314
f 461 1138 246
f 440 1138 312
f 347 350 1139
f 848 1139 350
f 1141 348 645
f 1140 250 1142
f 1141 473 1216
f 348 1141 1140
f 1155 1142 250
f 958 1142 650
f 350 1140 1143
f 1142 1143 1140
f 249 357 1144
f 473 1144 357
f 853 1145 251
f 360 361 1145
f 252 1046 1147
f 364 365 1146
f 971 1044 1148
f 364 1146 1147
f 1044 363 1148
f 363 1147 1148
f 869 1149 377
f 1150 1149 260
f 878 1150 260
f 380 381 1150
f 437 1151 309
f 757 1151 280
f 559 1152 283
f 555 1152 406
f 333 452 1153
f 609 1153 452
f 358 250 1216
f 179 1154 471
f 1156 1155 358
f 650 1155 475
f 1156 358 474
f 475 1156 646
f 156 1157 155
f 854 1157 478
f 856 1158 362
f 482 483 1158
f 1147 1159 364
f 868 1159 363
f 861 1160 464
f 157 1160 488
f 865 1161 375
f 495 496 1161
f 868 1162 484
f 151 1162 499
f 148 1163 147
f 879 1163 503
f 148 1164 149
f 885 1164 514
f 537 1165 62
f 1165 533 1187
f 696 1188 1187
f 801 287 1183
f 1218 570 930
f 285 1167 1218
f 639 1168 340
f 816 1168 628
f 1220 623 638
f 1170 1221 1169
f 1221 1170 128
f 1220 1170 1169
f 658 642 1171
f 467 1171 642
f 870 1173 500
f 170 1172 664
f 980 1173 378
f 1174 1173 858
f 1174 858 859
f 664 1172 1174
f 1176 1175 525
f 677 1175 679
f 1177 525 391
f 1176 526 986
f 391 742 1177
f 526 1177 742
f 286 1178 412
f 695 1178 698
f 710 1179 711
f 516 714 1179
f 438 305 1180
f 1180 305 308
f 284 880 1181
f 553 1181 880
f 1029 1182 571
f 930 1182 411
f 1184 1183 576
f 1185 1166 1186
f 59 1184 576
f 1184 60 1217
f 801 1183 1185
f 1184 1185 1183
f 1187 1186 1166
f 1188 1186 1187
f 1165 1187 1166
f 1187 533 1225
f 698 1188 696
f 286 1186 1188
f 809 1189 606
f 952 1189 608
f 952 1190 812
f 36 812 1190
f 837 1191 103
f 1192 1191 835
f 835 840 1192
f 1192 840 1224
f 96 1193 893
f 97 894 1193
f 769 1194 770
f 1088 1194 905
f 1196 39 40
f 943 1195 941
f 1197 40 41
f 941 1195 1196
f 41 1198 1197
f 1210 1211 1213
f 935 1198 41
f 1198 804 1213
f 855 1199 481
f 1200 1199 856
f 1045 1200 856
f 1200 1046 1047
f 433 1201 432
f 972 1201 253
f 1202 78 242
f 518 1202 984
f 1030 1203 331
f 334 1203 1032
f 1032 1204 334
f 456 1204 1033
f 845 1205 844
f 1086 1205 843
f 1058 1206 1009
f 1004 1206 1000
f 1065 1208 1207
f 1208 1209 1207
f 1070 1208 1065
f 1209 1208 944
f 1210 1209 944
f 1213 1212 1209
f 945 1210 944
f 1211 1210 941
f 1196 1211 941
f 1197 1198 1213
f 936 1212 804
f 1207 1212 595
f 1210 1213 1209
f 1213 1211 1197
f 1208 1214 944
f 946 1214 1070
f 1079 1215 957
f 1087 1215 1051
f 471 1216 473
f 358 1216 1154
f 1165 1217 61
f 1217 1166 1185
f 411 1218 930
f 285 1218 931
f 1220 1219 623
f 1222 1219 1169
f 1170 1220 639
f 1219 1220 1169
f 128 129 1221
f 129 434 1223
f 633 1222 432
f 1169 1221 1222
f 432 1223 434
f 1221 1223 1222
f 956 1224 840
f 1224 376 497
f 699 1225 530
f 1187 1225 696
f 1096 1226 398
f 774 1226 771
f 1229 396 900
f 901 773 1228
f 762 1228 908
f 901 1228 1227
f 901 1227 1229
f 396 1229 1227
f 1040 1230 951
f 1035 1230 1034
f 1067 1231 808
f 1207 1231 1065
f 1232 807 596
f 808 1231 1232
