# pattern_smooth best-fit FEM (phase 3), RMSE 40.336 mm
# params: /home/chaoyu/phd_simulation/FDM/optimisation/pattern_smooth_rm_fixSW_p3_result.json
v -0.07938931 -1.09618321 0.00000000
v -0.07629015 -1.07762089 -0.01384211
v -0.07003913 -1.06709620 -0.01619758
v -0.05772495 -1.03986668 -0.01567917
v -0.04606631 -1.01421777 -0.01413496
v -0.03108176 -0.98919211 -0.01302211
v -0.01591937 -0.96386765 -0.00698673
v -0.00148546 -0.94035069 0.00055865
v 0.01416314 -0.91610986 0.00964070
v 0.03168600 -0.89339911 0.01734282
v 0.05095684 -0.86821251 0.02852760
v 0.07024065 -0.84261129 0.04119520
v 0.08788849 -0.81871751 0.05298336
v 0.10442342 -0.79749758 0.06189946
v 0.12090822 -0.77598140 0.06944784
v 0.13760868 -0.75406089 0.07639093
v 0.14453709 -0.74351617 0.07768187
v 0.16294604 -0.73304776 0.07330288
v 0.18753742 -0.72166603 0.06811914
v 0.21279008 -0.71201115 0.06240615
v 0.23791720 -0.70281611 0.05086502
v 0.26472480 -0.69355744 0.03730920
v 0.29225003 -0.68452393 0.02470787
v 0.31957134 -0.67664595 0.01354986
v 0.35225233 -0.66908425 0.00257459
v 0.38525530 -0.66477309 -0.00552457
v 0.41466455 -0.66535342 -0.01213693
v 0.44048309 -0.66822496 -0.01473212
v 0.46977052 -0.67415989 -0.01267113
v 0.50259542 -0.67541985 0.00000000
v 0.49039294 -0.64682028 0.00000000
v 0.47705156 -0.61803819 0.00000000
v 0.46219909 -0.58938171 0.00000000
v 0.44711907 -0.56028611 0.00000000
v 0.43466338 -0.53625399 0.00000000
v 0.42199442 -0.50695223 0.00000000
v 0.40936106 -0.47587015 0.00000000
v 0.39826563 -0.44857187 0.00000000
v 0.38812015 -0.41671655 0.00000000
v 0.38008588 -0.38478035 0.00000000
v 0.37192372 -0.35233574 0.00000000
v 0.36496608 -0.31949785 0.00000000
v 0.35986056 -0.29113373 0.00000000
v 0.35446270 -0.26114571 0.00000000
v 0.35120710 -0.23184222 0.00000000
v 0.35003794 -0.20144447 0.00000000
v 0.34889887 -0.17182895 0.00000000
v 0.34956442 -0.13632195 0.00000000
v 0.35236641 -0.10870229 0.00000000
v 0.32357020 -0.12520511 0.01248358
v 0.29559934 -0.13964551 0.02426659
v 0.26983883 -0.15252645 0.03474626
v 0.24500305 -0.16463858 0.04446056
v 0.21774946 -0.17767030 0.05465786
v 0.18994665 -0.19068171 0.06452921
v 0.16252048 -0.20316220 0.07365845
v 0.13190886 -0.21644969 0.08290719
v 0.10501135 -0.22761329 0.09021847
v 0.07691429 -0.23887300 0.09712307
v 0.04269005 -0.25186822 0.10434356
v 0.00719210 -0.26473897 0.11068029
v -0.02644620 -0.27618122 0.11546629
v -0.06224334 -0.28775071 0.11949645
v -0.09819963 -0.29872528 0.12252603
v -0.13183822 -0.30794749 0.12428109
v -0.15959456 -0.30099593 0.12292442
v -0.16360140 -0.30003592 0.12279673
v -0.19430187 -0.29270587 0.12133817
v -0.22426548 -0.28529770 0.11921530
v -0.25568273 -0.27707392 0.11623331
v -0.28933419 -0.26782867 0.11226582
v -0.32137567 -0.25815501 0.10748380
v -0.35672175 -0.24675832 0.10126147
v -0.39103783 -0.23489592 0.09426235
v -0.42079840 -0.22375150 0.08737480
v -0.44814967 -0.21312523 0.08053456
v -0.47848765 -0.20084150 0.07237798
v -0.50511114 -0.18949713 0.06472769
v -0.52998653 -0.17882626 0.05726296
v -0.55162644 -0.16933763 0.05050839
v -0.58196799 -0.15512282 0.04070015
v -0.60776507 -0.14258987 0.03208303
v -0.63119073 -0.13104337 0.02402412
v -0.65640052 -0.11853586 0.01508669
v -0.69740458 -0.09893130 0.00000000
v -0.68844673 -0.11159914 -0.00559430
v -0.67549947 -0.12902561 -0.00913190
v -0.66209657 -0.14720143 -0.01133494
v -0.64796198 -0.16668146 -0.01226401
v -0.63298825 -0.18929750 -0.01280132
v -0.61675682 -0.21537704 -0.01190223
v -0.60103421 -0.24267317 -0.00955270
v -0.58603187 -0.27144903 -0.00590221
v -0.57259553 -0.30221606 -0.00234830
v -0.56058448 -0.33316003 0.00221380
v -0.54914734 -0.36676577 0.00812991
v -0.53923443 -0.40153357 0.01474583
v -0.53114561 -0.43935131 0.02078246
v -0.52507667 -0.47507166 0.02707402
v -0.52072020 -0.50883412 0.03340266
v -0.51798092 -0.54229948 0.03963850
v -0.51779610 -0.57871687 0.04356682
v -0.51906556 -0.61254677 0.04696834
v -0.52160970 -0.64626612 0.05012805
v -0.52559100 -0.67991029 0.05300196
v -0.53199991 -0.71155117 0.05331776
v -0.54105075 -0.74350619 0.05149066
v -0.55034497 -0.77354230 0.04950188
v -0.55930562 -0.80070977 0.04757355
v -0.56880385 -0.82772930 0.04548401
v -0.57968841 -0.85623217 0.04288397
v -0.58916027 -0.87779786 0.04018603
v -0.60145232 -0.89980142 0.03548053
v -0.61457257 -0.92223557 0.02977967
v -0.62792589 -0.94440682 0.02329245
v -0.64072368 -0.96618547 0.01656543
v -0.65485326 -0.99065616 0.00861965
v -0.66931298 -1.01557252 0.00000000
v -0.65378832 -1.00172904 0.00891059
v -0.63425662 -0.98431246 0.02012103
v -0.61537016 -0.96747122 0.03096116
v -0.59281951 -0.94736254 0.04390440
v -0.56953364 -0.92659828 0.05726962
v -0.54707639 -0.90697251 0.06989819
v -0.51863661 -0.88868641 0.08159919
v -0.49374150 -0.87267951 0.09184179
v -0.46802902 -0.85669937 0.10215723
v -0.43570257 -0.85229164 0.10764478
v -0.39824196 -0.84718392 0.11400388
v -0.36556294 -0.85150689 0.11458723
v -0.33184902 -0.85765610 0.11423383
v -0.30740070 -0.87160693 0.10899450
v -0.28040147 -0.88718839 0.10311665
v -0.25362141 -0.90264343 0.09728650
v -0.23304652 -0.92119894 0.08869808
v -0.21151341 -0.94117143 0.07936965
v -0.18922525 -0.96184436 0.06971414
v -0.16777454 -0.98304747 0.05953036
v -0.14895863 -1.00713241 0.04685723
v -0.13014273 -1.03121727 0.03418410
v -0.11215323 -1.05424439 0.02206758
v -0.09406323 -1.07740018 0.00988337
v -0.68133011 -0.11478171 0.00852993
v -0.65777517 -0.13109566 0.01391972
v -0.63478434 -0.14548480 0.01967665
v -0.60719251 -0.16240617 0.02886020
v -0.58213243 -0.17946976 0.03809103
v -0.55874734 -0.19798896 0.04780130
v -0.53795513 -0.21828810 0.05752843
v -0.51661117 -0.23951909 0.06808162
v -0.49587624 -0.26128158 0.07928965
v -0.47715642 -0.28357533 0.09038651
v -0.45855736 -0.30646382 0.10212431
v -0.43954168 -0.33007544 0.11438239
v -0.42128243 -0.35415347 0.12633975
v -0.40336995 -0.37909669 0.13782462
v -0.38572089 -0.40499277 0.14856658
v -0.36818064 -0.43156009 0.15822187
v -0.35051815 -0.45885505 0.16667030
v -0.33289463 -0.48676335 0.17351879
v -0.31511736 -0.51447092 0.17866791
v -0.29687352 -0.54219053 0.18204224
v -0.27937977 -0.57089464 0.18357870
v -0.26424096 -0.60129876 0.18328320
v -0.25227237 -0.63285647 0.18135762
v -0.24094076 -0.66463709 0.17787241
v -0.22681169 -0.69511602 0.17258126
v -0.20976746 -0.72360233 0.16516646
v -0.19204947 -0.75081649 0.15610904
v -0.17538211 -0.77929050 0.14544580
v -0.16100993 -0.80841242 0.13388861
v -0.14911627 -0.83834165 0.12196309
v -0.13951075 -0.86894904 0.10992641
v -0.13108644 -0.90015947 0.09707857
v -0.12299368 -0.93096651 0.08369988
v -0.11469649 -0.96114822 0.06968144
v -0.10659402 -0.98985738 0.05562438
v -0.09906489 -1.01888406 0.04187398
v -0.09142356 -1.04793907 0.02778901
v -0.08564921 -1.07740607 0.01088605
v -0.13216212 -0.32769576 0.12794728
v -0.13200512 -0.35226899 0.13221936
v -0.13134353 -0.38218907 0.13676680
v -0.12994502 -0.41214012 0.14089493
v -0.12812267 -0.44286172 0.14413731
v -0.12619676 -0.47394490 0.14629527
v -0.12427165 -0.50531950 0.14728614
v -0.12237628 -0.53716207 0.14700269
v -0.12074898 -0.56922899 0.14537059
v -0.11945574 -0.60153622 0.14242229
v -0.11808478 -0.63327070 0.13840963
v -0.11642751 -0.66518898 0.13330094
v -0.11453423 -0.69815851 0.12683276
v -0.11247992 -0.73086846 0.11944281
v -0.10998605 -0.76314760 0.11133670
v -0.10701851 -0.79488158 0.10256771
v -0.10388263 -0.82636625 0.09318933
v -0.10058554 -0.85771024 0.08327997
v -0.09706356 -0.88947472 0.07285447
v -0.09345434 -0.92162440 0.06191119
v -0.09030690 -0.95280070 0.05110390
v -0.08768209 -0.98451080 0.04008050
v -0.08540029 -1.01604075 0.02905420
v -0.08324750 -1.04484120 0.01876164
v -0.08107666 -1.07358106 0.00826010
v 0.32415669 -0.12565035 0.01226354
v 0.29950990 -0.14531413 0.02476308
v 0.27679646 -0.16559116 0.03947665
v 0.25413289 -0.18552960 0.05611469
v 0.23006018 -0.20529315 0.07309818
v 0.20520403 -0.22495580 0.09048716
v 0.18100093 -0.24525477 0.10829950
v 0.15834462 -0.26567498 0.12633149
v 0.13643286 -0.28844058 0.14467832
v 0.11499084 -0.31209977 0.16228203
v 0.09410652 -0.33668471 0.17788194
v 0.07393002 -0.36244872 0.19179366
v 0.05393500 -0.38917656 0.20281007
v 0.03436768 -0.41676924 0.21103485
v 0.01669413 -0.44623383 0.21669430
v 0.00107115 -0.47724218 0.21993851
v -0.01320080 -0.50931107 0.22024931
v -0.02556215 -0.54122594 0.21786807
v -0.03614770 -0.57335686 0.21248781
v -0.04476995 -0.60565139 0.20516991
v -0.05128545 -0.63829201 0.19642337
v -0.05466077 -0.67076550 0.18624284
v -0.05693572 -0.70297382 0.17538729
v -0.05777004 -0.73477711 0.16302539
v -0.05772531 -0.76596451 0.14885410
v -0.05654157 -0.79709239 0.13240132
v -0.05527622 -0.82712392 0.11412463
v -0.05526347 -0.85679339 0.09685248
v -0.05804384 -0.88602519 0.07680872
v -0.06171609 -0.91610106 0.05918589
v -0.06445801 -0.94689804 0.04350875
v -0.06695425 -0.98049059 0.02965050
v -0.06885054 -1.01525900 0.01945922
v -0.07070952 -1.04912798 0.01243003
v -0.07219157 -1.08134143 0.00550442
v 0.43586555 -0.64390046 0.01863321
v 0.45951407 -0.65755240 0.00562958
v -0.61002044 -0.94050904 0.03477171
v -0.59274163 -0.92289624 0.04477263
v -0.55751196 -0.87670188 0.06129564
v -0.52757827 -0.19874798 0.06068147
v -0.51262778 -0.21604645 0.06759210
v -0.62436656 -0.17508060 0.00891231
v -0.03908994 -0.97134860 0.01380318
v -0.02098087 -0.92150904 0.03771418
v 0.30644109 -0.66114466 0.08132917
v 0.32686441 -0.15178531 0.01321185
v 0.40435095 -0.65069159 0.01303104
v 0.46454583 -0.63819141 0.01790338
v 0.46199746 -0.61368007 0.02528472
v -0.57546645 -0.89979441 0.05302866
v -0.49051959 -0.22716033 0.07540432
v -0.60822866 -0.19591715 0.01237484
v -0.00489274 -0.92590150 0.02016652
v 0.00511992 -0.89745640 0.04210912
v -0.02612127 -0.94595721 0.02158604
v 0.30755519 -0.67363189 0.04699787
v 0.43769324 -0.59288234 0.05462879
v -0.04174206 -0.93506889 0.04002471
v -0.04634950 -0.95495547 0.02974704
v 0.34313344 -0.65593391 0.04727714
v 0.27409013 -0.68072827 0.08259191
v 0.32322942 -0.66352634 0.05669167
v 0.33126423 -0.64658421 0.08545515
v 0.28617368 -0.68199891 0.05338443
v -0.52201884 -0.82670285 0.08313091
v -0.48795200 -0.70016410 0.10325723
v -0.48650695 -0.51254945 0.09460905
v -0.16982472 -0.93102663 0.09837152
v -0.29678852 -0.82436029 0.14412098
v -0.13682585 -0.99019108 0.06656458
v -0.12397033 -1.01708619 0.05022922
v -0.11595896 -0.87996683 0.09558113
v -0.11071033 -0.90988697 0.08193659
v -0.10490961 -0.94050681 0.07010015
v -0.20236221 -0.59618765 0.18000222
v -0.25705586 -0.49246093 0.18469991
v -0.14935253 -0.74272501 0.14356182
v -0.13099666 -0.81176493 0.11881428
v -0.16923571 -0.67774679 0.16299424
v -0.12333491 -0.84560896 0.10658458
v -0.20712593 -0.84496090 0.14092484
v -0.09957327 -0.97093302 0.05578964
v -0.53356932 -0.30356869 0.05090181
v -0.56795476 -0.24416570 0.02987521
v -0.32664548 -0.38010344 0.15946931
v -0.40867009 -0.28406209 0.11172365
v -0.49175431 -0.36222296 0.08622253
v -0.07576998 -0.41854493 0.17524213
v -0.18452331 -0.36042596 0.15582442
v -0.10026587 -0.32502781 0.13469144
v -0.15573003 -0.32543819 0.14934749
v -0.45956822 -0.24925354 0.08928680
v -0.07335478 -0.48616636 0.18707928
v -0.10932500 -1.03410354 0.03992740
v -0.08151882 -0.84362191 0.09837714
v -0.08409499 -0.81304244 0.11264820
v -0.09136060 -0.71943422 0.14766222
v -0.08948359 -0.75103029 0.13793596
v -0.08696365 -0.78222470 0.12624324
v -0.07993681 -0.87347280 0.08267317
v -0.07595198 -0.90061930 0.06928382
v 0.02337838 -0.83855264 0.09241313
v 0.10230125 -0.74814083 0.13898345
v -0.09125645 -0.65469930 0.16472316
v -0.08707201 -0.58912073 0.17818322
v 0.10644850 -0.26142084 0.12315340
v 0.18566322 -0.21079404 0.08110383
v 0.20686674 -0.20440966 0.07546832
v 0.29820905 -0.24751067 0.06367160
v -0.55521483 -0.84804935 0.06216299
v -0.05213874 -0.99528760 0.01010899
v 0.30699426 -0.17387968 0.02968927
v -0.55880559 -0.89447194 0.06279617
v -0.53863980 -0.88710425 0.07241571
v -0.52546950 -0.85827506 0.08055475
v -0.58368726 -0.20123297 0.03040852
v -0.56829486 -0.22007144 0.03680699
v -0.59243775 -0.22358979 0.01348863
v -0.60455272 -0.17916798 0.02372261
v 0.02701137 -0.87499147 0.04874475
v 0.43398881 -0.56159191 0.06239893
v 0.40239170 -0.62426887 0.04914387
v 0.33677151 -0.66742416 0.02578914
v 0.36894616 -0.65633359 0.02305390
v 0.22782304 -0.69233025 0.12499669
v 0.25454989 -0.69326385 0.07066933
v 0.25184972 -0.68528224 0.10812849
v 0.23110184 -0.70107182 0.08627523
v 0.27265594 -0.65451422 0.14064700
v 0.19921090 -0.70954235 0.11258218
v 0.26844373 -0.67160363 0.11671399
v 0.28746695 -0.66049422 0.10956063
v 0.23751910 -0.66700590 0.16648292
v 0.30506153 -0.64360776 0.11003506
v 0.23972430 -0.68022032 0.13902361
v 0.21261804 -0.68099128 0.16740784
v 0.33192207 -0.60908169 0.13379297
v 0.32484978 -0.63008466 0.11730318
v 0.35813512 -0.62286010 0.08295027
v 0.28354454 -0.61436109 0.16653360
v 0.29777562 -0.62525399 0.13544379
v 0.28008823 -0.63581940 0.15508523
v 0.24173010 -0.61997999 0.20047841
v 0.25433948 -0.64253973 0.17521442
v -0.54574159 -0.81949979 0.06574322
v -0.49572788 -0.84166720 0.09468270
v -0.50368485 -0.77053861 0.09264490
v -0.51013314 -0.69689169 0.07870657
v -0.30401438 -0.66695862 0.18369013
v -0.42544867 -0.45714985 0.14168404
v -0.50581270 -0.51957454 0.06613528
v -0.18739061 -0.94423580 0.08734561
v -0.15919425 -0.96320922 0.08042335
v -0.20300525 -0.91436741 0.10510728
v -0.20248830 -0.93076762 0.09283646
v -0.14603594 -0.92068477 0.09929734
v -0.27958750 -0.85624943 0.12774301
v -0.24805064 -0.77161538 0.16683514
v -0.30922641 -0.84641359 0.12818473
v -0.12230593 -0.97846523 0.06814185
v -0.13634328 -0.96033650 0.08023841
v -0.11988952 -1.00197817 0.05809740
v -0.23226388 -0.60680983 0.18319116
v -0.15873638 -0.62061449 0.16468294
v -0.16743205 -0.55507332 0.17118637
v -0.28319872 -0.51169747 0.18398512
v -0.18056227 -0.45910231 0.17074352
v -0.29252325 -0.43702409 0.17663747
v -0.12786094 -0.75059409 0.12881529
v -0.14538579 -0.77533438 0.13463937
v -0.13413021 -0.71790718 0.13920476
v -0.17554882 -0.72040834 0.15851658
v -0.16872751 -0.75530215 0.14903013
v -0.14614820 -0.81998422 0.12511380
v -0.11492355 -0.81311478 0.10659980
v -0.20426070 -0.66579503 0.17407711
v -0.17385626 -0.86354078 0.12843443
v -0.19609682 -0.80890422 0.14948444
v -0.52725349 -0.27121340 0.05988065
v -0.55374667 -0.31177308 0.02509640
v -0.58320354 -0.25214691 0.00942401
v -0.56209846 -0.27598084 0.02574995
v -0.54353606 -0.24480042 0.05076520
v -0.36139160 -0.32599185 0.13599962
v -0.36365595 -0.36760251 0.14819795
v -0.35363178 -0.39990225 0.15791063
v -0.43099206 -0.30278891 0.11145174
v -0.40535050 -0.32139742 0.12427642
v -0.43800090 -0.27135693 0.10069010
v -0.47073497 -0.33861649 0.10005541
v -0.10543690 -0.42383822 0.15918178
v -0.15616558 -0.36422251 0.14421929
v -0.22328988 -0.33051181 0.14864434
v -0.12002967 -0.31790149 0.13760932
v -0.11845613 -0.33873199 0.14128920
v -0.10504294 -0.36584591 0.13849491
v -0.07056488 -0.31310083 0.13690326
v -0.13838787 -0.33350878 0.14162670
v -0.18332587 -0.31260902 0.14327865
v -0.47593538 -0.26359436 0.08731155
v -0.44267302 -0.23283741 0.08805038
v -0.42491154 -0.24809889 0.09639916
v -0.10237925 -0.48845379 0.16679664
v -0.07109828 -0.71557574 0.16238014
v -0.08697063 -0.68651382 0.16036659
v -0.06950505 -0.74775923 0.15095076
v 0.05804514 -0.82296663 0.08366324
v 0.09710362 -0.77973707 0.10730073
v 0.13468967 -0.73934082 0.12093620
v -0.10799100 -0.65164614 0.14764590
v -0.10141771 -0.63065081 0.15951081
v -0.07811555 -0.63395998 0.17977549
v -0.07217934 -0.65534836 0.17938053
v -0.09100084 -0.61204199 0.17255671
v -0.06826580 -0.61191354 0.19025179
v -0.10696718 -0.58683745 0.15927091
v -0.09813950 -0.55655617 0.17020235
v 0.13054786 -0.24363362 0.10888824
v 0.09727776 -0.24437758 0.10626787
v 0.07765234 -0.26217986 0.12118484
v 0.32810998 -0.24614031 0.03406337
v 0.31103751 -0.30927814 0.08232537
v 0.32902994 -0.18587645 0.01710950
v 0.30209005 -0.21040557 0.04576047
v 0.32650479 -0.21043710 0.02404741
v 0.31067168 -0.19349933 0.03303984
v 0.28833859 -0.18531070 0.04392795
v 0.31680034 -0.22710890 0.03964540
v -0.51236772 -0.87098969 0.08571581
v -0.54399769 -0.86252656 0.07025036
v -0.00667432 -0.86701619 0.07866747
v 0.44630319 -0.57056720 0.03906636
v 0.41217357 -0.63597677 0.02867014
v 0.38141762 -0.64117751 0.04112792
v 0.17118819 -0.71506529 0.10592795
v 0.20085553 -0.71556820 0.08384542
v 0.20581254 -0.69634325 0.14074718
v 0.16779787 -0.68153347 0.18077981
v 0.17638943 -0.70131778 0.14636785
v 0.19001850 -0.68604699 0.16839812
v 0.19152700 -0.64814064 0.21495300
v 0.18492008 -0.66864184 0.19467300
v 0.14601537 -0.64710012 0.21770019
v 0.16233446 -0.66220371 0.20426498
v 0.12906973 -0.66312149 0.17325723
v 0.14447228 -0.67516299 0.18771834
v 0.14279114 -0.69506922 0.14722759
v 0.15149261 -0.69036027 0.16870973
v 0.35203835 -0.64044636 0.06477746
v 0.38800571 -0.59377606 0.09066582
v 0.36175507 -0.48296599 0.13315462
v 0.26504188 -0.62392713 0.18406552
v 0.26711337 -0.57990081 0.20143199
v 0.25947215 -0.60417436 0.20109509
v 0.22553573 -0.58543588 0.22802332
v 0.23852153 -0.59966535 0.21376018
v 0.21071437 -0.62123213 0.22943827
v 0.22726903 -0.64600183 0.20209711
v -0.53873262 -0.83729460 0.07290404
v -0.48602830 -0.85673217 0.09665095
v -0.52743052 -0.76306842 0.07251754
v -0.50402889 -0.73282183 0.08899692
v -0.49406852 -0.65309549 0.09495013
v -0.27341580 -0.65723596 0.18349029
v -0.31770819 -0.60986989 0.18500049
v -0.40038782 -0.43613835 0.14978521
v -0.45718569 -0.40725444 0.11688412
v -0.39138329 -0.50883145 0.16297844
v -0.51516834 -0.52369729 0.04704874
v -0.17206100 -0.97057518 0.07132470
v -0.22847536 -0.90026225 0.10865998
v -0.28843203 -0.87083995 0.11487209
v -0.26553265 -0.87449535 0.11786197
v -0.24425105 -0.84968643 0.13788104
v -0.26009487 -0.85859151 0.13016396
v -0.23896160 -0.87685836 0.12264078
v -0.26846027 -0.83189466 0.14440525
v -0.22231901 -0.75332868 0.16603692
v -0.29223167 -0.84212487 0.13456048
v -0.34667677 -0.80987128 0.14227461
v -0.13964528 -0.94069878 0.08882530
v -0.24928422 -0.61394759 0.18280102
v -0.24326738 -0.57145935 0.18524959
v -0.13598446 -0.61791496 0.15289433
v -0.14422359 -0.58591119 0.15978049
v -0.14532172 -0.65416476 0.15454533
v -0.13391420 -0.63881321 0.14931532
v -0.14160169 -0.55465876 0.15956583
v -0.29817727 -0.52263332 0.18200655
v -0.30202289 -0.48455434 0.18024313
v -0.15628535 -0.49029429 0.16430265
v -0.15115817 -0.45883643 0.15893430
v -0.15823643 -0.78998638 0.13713778
v -0.12448012 -0.78312623 0.11982365
v -0.19124461 -0.73118029 0.16056131
v -0.19450184 -0.70838594 0.16593937
v -0.15408596 -0.71938997 0.15010330
v -0.14630533 -0.69180170 0.15041832
v -0.16536981 -0.70004290 0.15840208
v -0.22225551 -0.67444717 0.17542248
v -0.22297457 -0.64909436 0.17885602
v -0.19394680 -0.63303856 0.17545902
v -0.15548128 -0.85747225 0.12236972
v -0.17154748 -0.83857860 0.13461807
v -0.15746706 -0.88247469 0.11695575
v -0.18768239 -0.84859961 0.13662201
v -0.20157804 -0.87602640 0.12748974
v -0.17891788 -0.79965386 0.14472249
v -0.19777733 -0.78349401 0.15489317
v -0.22580722 -0.79679132 0.15829324
v -0.50558859 -0.29225968 0.07480512
v -0.51483486 -0.25772725 0.06893087
v -0.54082615 -0.34337520 0.03311013
v -0.57236612 -0.28479818 0.00835382
v -0.54959497 -0.29195287 0.03622306
v -0.55467355 -0.25967559 0.03823406
v -0.38858915 -0.34721130 0.13609479
v -0.38196245 -0.38197489 0.14608728
v -0.36880249 -0.41216387 0.15552897
v -0.33663784 -0.42720080 0.16693522
v -0.42132119 -0.33509998 0.12251491
v -0.45590753 -0.28515137 0.09883805
v -0.45729289 -0.32507628 0.10558629
v -0.45129729 -0.36125672 0.11444876
v -0.12131451 -0.42652975 0.14856799
v -0.14017088 -0.36591195 0.13663027
v -0.21644458 -0.30659258 0.13460860
v -0.24906743 -0.30596352 0.13514448
v -0.20389932 -0.32060057 0.14457946
v -0.20446332 -0.34569264 0.15480273
v -0.18319685 -0.33607371 0.15072785
v -0.24311914 -0.37665070 0.16622283
v -0.21073516 -0.37862281 0.16484860
v -0.22762808 -0.35568828 0.15914462
v -0.25629103 -0.33890815 0.15247661
v -0.07641493 -0.29866998 0.12638503
v -0.09102921 -0.30832903 0.12923777
v -0.05435203 -0.30185674 0.13285982
v -0.03724039 -0.33374970 0.15721933
v -0.16427373 -0.30681683 0.14099501
v -0.11777139 -0.48938822 0.15387788
v -0.10138083 -0.52009650 0.16824043
v -0.10398875 -0.45539732 0.16363492
v -0.06810997 -0.68326483 0.17480424
v -0.10549827 -0.68449730 0.14278169
v 0.07098077 -0.82813179 0.06264384
v 0.07927605 -0.80712249 0.08356581
v 0.04981043 -0.84541802 0.06344400
v 0.10743820 -0.78496797 0.08367169
v 0.11427600 -0.76266824 0.10038236
v 0.14315559 -0.74670033 0.09782205
v 0.13719432 -0.71909192 0.10432440
v -0.11358141 -0.55381833 0.15519317
v 0.13146426 -0.26549448 0.12737055
v 0.15541629 -0.23140707 0.09864085
v 0.09278069 -0.28814839 0.14452597
v 0.34081542 -0.30595045 0.04224572
v 0.31744727 -0.27691930 0.05849861
v 0.00704536 -0.87872474 0.06044578
v 0.02042496 -0.85936817 0.07266639
v -0.02102756 -0.89363253 0.06245943
v 0.15931288 -0.71247278 0.13426601
v 0.41778665 -0.58525631 0.07526088
v 0.40009840 -0.57078401 0.09788093
v 0.40645816 -0.60620937 0.06613667
v 0.41635506 -0.53172728 0.07436541
v 0.35186154 -0.58413733 0.12464739
v 0.39680143 -0.46499946 0.07222774
v 0.22641217 -0.62733113 0.21746543
v -0.53646850 -0.79165526 0.06947774
v -0.50110783 -0.71210361 0.09020672
v -0.51748087 -0.71861053 0.07317403
v -0.48505654 -0.72523450 0.10552534
v -0.52089124 -0.74114842 0.07437576
v -0.48974906 -0.75033074 0.10141013
v -0.44806422 -0.70529923 0.13473630
v -0.46293205 -0.79029938 0.11381428
v -0.46900265 -0.70895356 0.11941655
v -0.48141634 -0.77441991 0.10621413
v -0.45749556 -0.74625771 0.12376022
v -0.46391960 -0.66658330 0.12491036
v -0.49758217 -0.80461982 0.09641328
v -0.45589774 -0.72452594 0.12752201
v -0.42046632 -0.74269131 0.14396910
v -0.43621253 -0.72524072 0.13941358
v -0.47445912 -0.74133088 0.11294711
v -0.46236577 -0.76807569 0.11756808
v -0.42594222 -0.78271383 0.13141476
v -0.44178331 -0.76431363 0.12946246
v -0.47336989 -0.68640160 0.11687808
v -0.48155710 -0.66672947 0.10902140
v -0.47297663 -0.63414513 0.11680106
v -0.49804844 -0.67767758 0.09169388
v -0.48120953 -0.79471943 0.10486890
v -0.47749085 -0.82211085 0.10347114
v -0.40143479 -0.70335906 0.15881700
v -0.51106054 -0.66162484 0.07282059
v -0.41601706 -0.71973135 0.15012843
v -0.50617670 -0.63153019 0.07620749
v -0.37681339 -0.74559733 0.15932039
v -0.42659411 -0.69135544 0.14861716
v -0.39425474 -0.72738626 0.15763828
v -0.35636112 -0.70507198 0.17253168
v -0.37880268 -0.71064944 0.16577643
v -0.38137431 -0.66113593 0.17036099
v -0.38617754 -0.68564101 0.16658746
v -0.41083262 -0.66478616 0.15851050
v -0.25576858 -0.65166121 0.18134639
v -0.28298523 -0.62589137 0.18528841
v -0.26198481 -0.69274477 0.17971815
v -0.31394524 -0.57345370 0.18425569
v -0.38537418 -0.42427074 0.15256012
v -0.41652743 -0.40967108 0.13927943
v -0.38191362 -0.46172285 0.16024146
v -0.35423051 -0.52209706 0.17478899
v -0.25115214 -0.88731133 0.11158955
v -0.27720670 -0.79481134 0.15986855
v -0.20810626 -0.74254834 0.16306456
v -0.33362160 -0.83331251 0.13109387
v -0.15748190 -0.94655233 0.08994294
v -0.26098210 -0.58069783 0.18466387
v -0.26170813 -0.55666530 0.18553931
v -0.22710441 -0.52862819 0.18475113
v -0.24066704 -0.54751860 0.18569881
v -0.21194115 -0.56346582 0.18283329
v -0.25380625 -0.52179234 0.18597416
v -0.12839722 -0.58542782 0.15011002
v -0.14563167 -0.52229540 0.16116216
v -0.15347069 -0.56843721 0.16524288
v -0.17666539 -0.58372558 0.17394988
v -0.27950564 -0.48746947 0.18317907
v -0.26252465 -0.45583328 0.18148739
v -0.28794192 -0.46255794 0.18031190
v -0.31760184 -0.45523631 0.17475235
v -0.13739061 -0.48927487 0.15459552
v -0.13509668 -0.45821076 0.15025256
v -0.15208693 -0.42826025 0.15570545
v -0.12858736 -0.68360159 0.14022509
v -0.15211449 -0.67248295 0.15592294
v -0.16639987 -0.65407059 0.16454326
v -0.16841347 -0.90592489 0.11069887
v -0.18356879 -0.91626274 0.10653160
v -0.18911242 -0.89551131 0.11797995
v -0.21072462 -0.89329114 0.11745896
v -0.14867873 -0.90096664 0.10703306
v -0.22248260 -0.86244924 0.13339537
v -0.24206543 -0.82102901 0.15144153
v -0.52335989 -0.28958474 0.06170763
v -0.51684621 -0.30885926 0.06583289
v -0.52848474 -0.32893418 0.05225861
v -0.49138690 -0.31740996 0.08493523
v -0.51943731 -0.36522473 0.05754628
v -0.40405755 -0.36001302 0.13393245
v -0.35159001 -0.43891527 0.16432773
v -0.33152861 -0.40377954 0.16404116
v -0.31254789 -0.42055299 0.17099022
v -0.27899979 -0.39589511 0.17004925
v -0.29213547 -0.41418686 0.17266868
v -0.26624677 -0.42563394 0.17695397
v -0.30396103 -0.39030424 0.16581194
v -0.28304788 -0.36090122 0.15947066
v -0.47246904 -0.36237922 0.10149333
v -0.48318527 -0.39559880 0.09566495
v -0.46255158 -0.38367693 0.11047257
v -0.43517421 -0.38563770 0.12653568
v -0.16647249 -0.34626832 0.14712142
v -0.08767127 -0.50440920 0.17869994
v -0.07417952 -0.53598198 0.18962267
v -0.06479870 -0.51132517 0.19450596
v -0.05000062 -0.53280028 0.20458342
v -0.04037473 -0.48626606 0.20485732
v -0.05891063 -0.55789696 0.20005709
v -0.08855967 -0.47031627 0.17544245
v -0.05815149 -0.45042400 0.19018670
v -0.08241254 -0.44430414 0.17611710
v 0.04846352 -0.78294512 0.13500974
v 0.04176951 -0.83416391 0.08422850
v 0.03854815 -0.80938385 0.11263245
v 0.04225026 -0.86180129 0.04969527
v 0.10290685 -0.76319770 0.12010784
v 0.07531974 -0.76522887 0.14191161
v 0.15694726 -0.72914116 0.10289024
v 0.13079871 -0.70801655 0.14312727
v 0.15062260 -0.24838492 0.11309059
v 0.17578135 -0.22654885 0.09422377
v 0.11482269 -0.29159474 0.14761645
v 0.04095762 -0.29516592 0.14481418
v 0.08821065 -0.31216702 0.16199251
v 0.06767664 -0.29639916 0.14906590
v 0.05810728 -0.33049668 0.17168886
v 0.05553003 -0.27555354 0.13013928
v 0.05317786 -0.31075730 0.15805532
v 0.01364422 -0.32454607 0.16196925
v 0.02879772 -0.27507972 0.12535031
v -0.00094457 -0.29364223 0.13608749
v 0.02003731 -0.29178169 0.13866694
v 0.33530573 -0.34576538 0.07479520
v 0.31471402 -0.25825074 0.05296454
v 0.29630979 -0.26875946 0.07449329
v 0.33565095 -0.26712954 0.03244789
v 0.25402761 -0.25289042 0.09327783
v 0.27757766 -0.25538648 0.08185194
v 0.27467372 -0.22455395 0.06853614
v 0.26268867 -0.29542653 0.11314139
v 0.27583161 -0.27732419 0.09466645
v 0.28798214 -0.29903192 0.09806362
v 0.26965620 -0.34379671 0.13684681
v 0.29014503 -0.32618691 0.11180798
v 0.32333646 -0.29546104 0.06090086
v -0.03241704 -0.87476761 0.08188659
v -0.02453194 -0.84837019 0.09831671
v 0.43436236 -0.53997702 0.04729180
v 0.37052681 -0.54928026 0.12653217
v 0.37833191 -0.43557769 0.07508521
v 0.40973529 -0.49589478 0.07470727
v -0.53020841 -0.80920606 0.07688159
v -0.51629988 -0.79035402 0.08468314
v -0.49020943 -0.62812412 0.09766159
v -0.47221062 -0.58413246 0.11511867
v -0.49932434 -0.59156087 0.08171862
v -0.47747672 -0.60923959 0.11104797
v -0.49913022 -0.61273006 0.08498001
v -0.43766760 -0.60958450 0.14445129
v -0.48602850 -0.59263383 0.09993572
v -0.48873423 -0.55267875 0.09386812
v -0.45831468 -0.60248573 0.12873051
v -0.45282348 -0.62822428 0.13367811
v -0.43719017 -0.55739287 0.14299612
v -0.42846989 -0.63925304 0.15013959
v -0.45261457 -0.57651543 0.13252527
v -0.43110930 -0.58365851 0.14805524
v -0.46402639 -0.54320542 0.12063408
v -0.39669279 -0.61058770 0.16618932
v -0.39444126 -0.55840288 0.16573492
v -0.46593196 -0.56439106 0.12010665
v -0.41761602 -0.60286919 0.15611893
v -0.41631208 -0.56495442 0.15568744
v -0.41222817 -0.62575270 0.15905929
v -0.39024944 -0.63616483 0.16836909
v -0.40002972 -0.58416282 0.16451508
v -0.41284510 -0.53200772 0.15574920
v -0.34965697 -0.63601452 0.17996979
v -0.35692296 -0.58318331 0.17851807
v -0.37143262 -0.61786563 0.17503742
v -0.36976573 -0.64298997 0.17484245
v -0.34971632 -0.67202692 0.17785760
v -0.37905179 -0.57661492 0.17207020
v -0.34791454 -0.60902298 0.18097061
v -0.38091031 -0.59825847 0.17212953
v -0.36181995 -0.55204805 0.17597114
v -0.44638268 -0.67994729 0.13759232
v -0.44616529 -0.65390274 0.13868641
v -0.43055938 -0.66803225 0.14800502
v -0.41010206 -0.68489526 0.15715941
v -0.29247989 -0.59675845 0.18561232
v -0.29430228 -0.64584532 0.18493303
v -0.32243431 -0.64332097 0.18392041
v -0.24423051 -0.68458270 0.17751998
v -0.24429483 -0.70738220 0.17576335
v -0.27785310 -0.73332309 0.17605989
v -0.26458868 -0.71566900 0.17765561
v -0.29286776 -0.69868921 0.18107784
v -0.24981610 -0.74214865 0.17259565
v -0.29771904 -0.56272252 0.18384047
v -0.31625749 -0.55088159 0.18256788
v -0.33844671 -0.56404770 0.18122906
v -0.33718687 -0.53937356 0.17956237
v -0.42207401 -0.43330504 0.14040257
v -0.43852446 -0.41787428 0.12964888
v -0.46564913 -0.45541151 0.11454262
v -0.45645574 -0.43257605 0.11987840
v -0.47658532 -0.42222629 0.10294442
v -0.44585214 -0.45299812 0.12924772
v -0.51002092 -0.42394241 0.06544141
v -0.45356506 -0.49873787 0.12697690
v -0.49461246 -0.41575852 0.08490581
v -0.45507657 -0.47480049 0.12437989
v -0.50517219 -0.38891554 0.07326174
v -0.49417123 -0.45489878 0.08534728
v -0.47831555 -0.48267162 0.10352528
v -0.43310989 -0.48453781 0.14025252
v -0.48900372 -0.43546868 0.09158248
v -0.40421768 -0.46006798 0.15202240
v -0.39558945 -0.48365473 0.15859786
v -0.36535122 -0.49034370 0.16871302
v -0.41460320 -0.47890470 0.14965792
v -0.41865008 -0.50572748 0.15051108
v -0.43884285 -0.52624971 0.13990162
v -0.33632238 -0.50924353 0.17630102
v -0.28037755 -0.81459082 0.15135871
v -0.30346233 -0.79847574 0.15585802
v -0.32132235 -0.81415111 0.14523609
v -0.33271529 -0.78532488 0.15651154
v -0.35885532 -0.82941891 0.12903137
v -0.34775147 -0.84584428 0.12046597
v -0.38679828 -0.79755288 0.13896215
v -0.36792371 -0.80991808 0.13763921
v -0.36075930 -0.78457928 0.15086861
v -0.38920202 -0.82360067 0.12663069
v -0.27348607 -0.53461810 0.18514143
v -0.15502892 -0.53995778 0.16615688
v -0.17229716 -0.51521480 0.17232139
v -0.18869098 -0.56195971 0.17802703
v -0.18453708 -0.53699859 0.17683762
v -0.20217564 -0.50961064 0.18050369
v -0.18047456 -0.60957812 0.17378657
v -0.33481063 -0.44755756 0.17003507
v -0.31836329 -0.47451638 0.17640494
v -0.16658150 -0.44280327 0.16386134
v -0.18307270 -0.40654339 0.16441225
v -0.19110705 -0.43314068 0.17066650
v -0.22782486 -0.83823977 0.14423049
v -0.25086204 -0.79674941 0.15998119
v -0.26091499 -0.81305554 0.15361921
v -0.49000279 -0.33974786 0.08707483
v -0.50863810 -0.33106278 0.07153065
v -0.51916726 -0.34517090 0.06028258
v -0.47410547 -0.31966835 0.09577589
v -0.49116249 -0.29812177 0.08416667
v -0.25370736 -0.40135778 0.17240763
v -0.22851085 -0.43204359 0.17701379
v -0.24629491 -0.42153753 0.17629228
v -0.22527222 -0.40300773 0.17172408
v -0.42062952 -0.37298103 0.13057639
v 0.06262049 -0.79879141 0.11006739
v -0.00084744 -0.78766055 0.14332825
v 0.34907101 -0.32873697 0.04078080
v 0.32775193 -0.32506593 0.07176665
v 0.30960867 -0.34174761 0.10324927
v 0.31528979 -0.38951954 0.12846333
v 0.31987735 -0.36471728 0.10650145
v 0.29121892 -0.36159174 0.13147794
v 0.35348274 -0.38194309 0.07356914
v 0.34133351 -0.36504250 0.07966156
v 0.36267242 -0.36497183 0.03784342
v 0.34183382 -0.28687022 0.03079618
v 0.28028981 -0.20466766 0.05633473
v 0.25555693 -0.20843167 0.06828847
v 0.24047014 -0.22936585 0.08550922
v 0.26607685 -0.31944098 0.12512986
v 0.21541655 -0.31262127 0.14509973
v 0.24164419 -0.30997509 0.13254613
v 0.23217484 -0.27739675 0.11735445
v 0.23275299 -0.34385817 0.15668418
v 0.00083035 -0.84686984 0.09554105
v 0.00512256 -0.81652348 0.11983397
v 0.31126226 -0.57115829 0.17056118
v 0.37308594 -0.45796756 0.10507708
v 0.32690153 -0.44012242 0.14879436
v 0.33997826 -0.46470665 0.14786270
v 0.35412745 -0.44075496 0.11795008
v 0.36082861 -0.41025105 0.08653029
v 0.28002358 -0.48303752 0.19511024
v 0.30994812 -0.51145030 0.18084284
v 0.30778870 -0.46709333 0.17368757
v 0.33100888 -0.49170334 0.16300448
v 0.34191191 -0.52586474 0.15912047
v 0.39273225 -0.44753302 0.05074841
v 0.38623544 -0.48933309 0.10769282
v 0.38144693 -0.51927899 0.12231440
v -0.39044490 -0.53381881 0.16549781
v -0.37460393 -0.52078295 0.16957071
v -0.33883292 -0.65486141 0.18109365
v -0.32554539 -0.67737108 0.18134304
v -0.30795290 -0.62926384 0.18534521
v -0.33240914 -0.62395465 0.18319424
v -0.28146343 -0.67886925 0.18239035
v -0.23044898 -0.73084019 0.17061656
v -0.33337865 -0.58935442 0.18294191
v -0.50506110 -0.36927500 0.07366290
v -0.52457187 -0.39467037 0.04607228
v -0.47123505 -0.50396037 0.11163509
v -0.47444194 -0.52610068 0.10915752
v -0.48046550 -0.46210533 0.10077752
v -0.50071625 -0.48668837 0.07569939
v -0.35016995 -0.47845513 0.16996391
v -0.45724581 -0.52164749 0.12544708
v -0.44865267 -0.54267638 0.13379606
v -0.29842564 -0.76307848 0.16888421
v -0.34912224 -0.75939485 0.16240566
v -0.38613486 -0.77054491 0.14928989
v -0.41055224 -0.80588513 0.12894699
v -0.38137102 -0.84074569 0.11884193
v -0.18196388 -0.48795058 0.17379516
v -0.20553272 -0.53274880 0.18166187
v -0.22876069 -0.49812140 0.18385847
v -0.20939765 -0.45594484 0.17744697
v -0.20968039 -0.42017101 0.17275758
v 0.08105216 -0.79198390 0.10400136
v 0.06805707 -0.78177597 0.12678765
v 0.02465013 -0.79272348 0.13382766
v 0.02354179 -0.75808810 0.16213714
v 0.01710705 -0.77602491 0.14904425
v -0.01300929 -0.75979528 0.16082216
v 0.25034470 -0.38831234 0.17289971
v 0.32669108 -0.58768340 0.15468736
v 0.33711460 -0.56301539 0.15496344
v 0.29689673 -0.59188703 0.16065961
v 0.28434067 -0.57768300 0.17942219
v 0.29744932 -0.54650532 0.18650179
v 0.37901181 -0.41710357 0.04875880
v 0.37255127 -0.39643572 0.04240046
v 0.33805696 -0.39984524 0.10914120
v 0.31352943 -0.41720044 0.14702235
v 0.28262493 -0.40228349 0.16228734
v 0.29975769 -0.49183916 0.18515048
v 0.26892370 -0.52701557 0.20615593
v -0.53512654 -0.37094180 0.03399459
v -0.52782191 -0.41767785 0.03556673
v -0.51360827 -0.40399470 0.06172976
v -0.48929300 -0.49375244 0.09128911
v -0.29371055 -0.78276194 0.16296651
v -0.27316950 -0.77025954 0.16777983
v -0.31488646 -0.77561083 0.16310094
v -0.32455432 -0.74684581 0.17014370
v -0.35567610 -0.73250535 0.16766861
v -0.40431243 -0.78128073 0.13996405
v -0.40557557 -0.75998803 0.14616157
v -0.43877041 -0.80681948 0.11926902
v -0.23939701 -0.47130203 0.18267087
v -0.20828726 -0.48268103 0.18002565
v -0.20279557 -0.39935547 0.16782410
v -0.18726507 -0.38363436 0.16138204
v -0.15995674 -0.39100972 0.15359004
v 0.26722007 -0.36801525 0.15229254
v 0.24275781 -0.36543426 0.16423364
v 0.19462053 -0.37438918 0.18658295
v 0.22117931 -0.38599805 0.18418467
v 0.31925877 -0.54744862 0.17195741
v 0.28111488 -0.44235533 0.18147762
v 0.30412546 -0.43844102 0.16510056
v 0.29018342 -0.52733242 0.19351360
v 0.27277564 -0.55127958 0.20108196
v 0.24402259 -0.55342515 0.22106462
v -0.26708410 -0.75133619 0.17225345
v -0.30238546 -0.73718768 0.17460737
v -0.32668686 -0.71529177 0.17627352
v -0.44430679 -0.78714889 0.12247476
v -0.45905154 -0.81177161 0.11158142
v -0.45723816 -0.83542301 0.10675158
v -0.42120119 -0.82972642 0.11674063
v -0.22910198 -0.45345249 0.17987290
v -0.16975797 -0.37321094 0.15328612
v -0.16426825 -0.41179804 0.15880115
v -0.14155318 -0.39565361 0.14576630
v 0.21627498 -0.36241942 0.17342648
v 0.20579819 -0.33759642 0.16299084
v 0.17290386 -0.31093127 0.15519479
v 0.19401780 -0.31884438 0.15544573
v 0.19452063 -0.28590449 0.13455441
v 0.17185666 -0.34496823 0.17594247
v 0.28891276 -0.46130355 0.18372935
v 0.26115799 -0.46547218 0.20050531
v 0.24465110 -0.42928765 0.19459110
v 0.24717577 -0.50303362 0.21614533
v 0.25987446 -0.44308982 0.19308895
v 0.23190958 -0.46047083 0.21170584
v -0.33716187 -0.73050170 0.17181362
v -0.30524252 -0.71547163 0.17840262
v -0.33791384 -0.69497261 0.17763687
v -0.44107864 -0.82616581 0.11393316
v 0.23312630 -0.40719445 0.18973452
v 0.18934813 -0.42052114 0.20986777
v 0.21510420 -0.43372059 0.20799375
v 0.20979803 -0.40750549 0.19814726
v 0.24766536 -0.52832686 0.21857362
v 0.20581697 -0.52431952 0.23641270
v 0.22432573 -0.54087504 0.23087333
v 0.22680960 -0.51556303 0.22724858
v 0.22948023 -0.48759786 0.22068176
v 0.19041346 -0.56985158 0.24459055
v 0.18970879 -0.47439778 0.22954703
v 0.20382984 -0.55000157 0.23995424
v 0.16998860 -0.53281334 0.24610074
v 0.21045024 -0.57248216 0.23734367
v 0.19665494 -0.59860692 0.24016230
v 0.21177167 -0.47481634 0.22356033
v 0.19887786 -0.49937299 0.23414097
v 0.16955633 -0.49860632 0.23991347
v 0.19279439 -0.44697403 0.21955974
v 0.14524119 -0.43939348 0.22515681
v 0.16771951 -0.45669237 0.22838244
v 0.16732986 -0.43038512 0.21861569
v 0.13860145 -0.47725239 0.23775108
v 0.16524790 -0.39329765 0.20271839
v 0.14323608 -0.59356986 0.24316411
v 0.18317418 -0.62387184 0.23208301
v 0.14102250 -0.51296892 0.24582778
v 0.17058778 -0.58911188 0.24426265
v 0.16925867 -0.64130300 0.22122031
v 0.15672357 -0.61864763 0.23406904
v 0.15034921 -0.49513976 0.24138708
v 0.07617805 -0.49529726 0.24028125
v 0.14076254 -0.55410675 0.24889435
v 0.17195947 -0.60879977 0.23868885
v 0.11901287 -0.61924687 0.22980919
v 0.11041946 -0.49503444 0.24239650
v 0.15326441 -0.57461934 0.24691857
v 0.14991134 -0.53489384 0.24796139
v 0.12611799 -0.53173135 0.24834998
v 0.09778821 -0.56791120 0.24652882
v 0.11683957 -0.55471134 0.24862001
v 0.09242384 -0.52727467 0.24686882
v 0.12037117 -0.58124697 0.24644056
v 0.09963527 -0.59574851 0.23463145
v 0.12495061 -0.60238182 0.24060636
v 0.12982177 -0.49492177 0.24259330
v 0.10969329 -0.51681762 0.24651881
v 0.03798721 -0.53554609 0.23907314
v 0.07895722 -0.64462189 0.22235454
v 0.06336560 -0.52202352 0.24285709
v 0.05574921 -0.58147327 0.24244912
v 0.09194341 -0.61912551 0.21831814
v 0.03749402 -0.49037012 0.23260502
v 0.07598770 -0.54833536 0.24614784
v 0.07572533 -0.57221592 0.24498519
v 0.07465324 -0.60465434 0.23669019
v 0.10497401 -0.64494295 0.19630377
v 0.05639688 -0.50115160 0.23840781
v 0.05835428 -0.47194160 0.23257622
v 0.09116281 -0.46438448 0.23392654
v 0.03450698 -0.46398806 0.22591903
v 0.05398651 -0.44055718 0.22262511
v 0.02561891 -0.62375508 0.22724341
v 0.09051354 -0.63685483 0.20852999
v 0.09319096 -0.66087910 0.20860805
v 0.11081710 -0.63386870 0.21486078
v 0.12578037 -0.65175244 0.20574226
v 0.04905778 -0.67756019 0.20884959
v 0.11191665 -0.67013856 0.19109491
v 0.06955314 -0.66510900 0.21363174
v 0.12255203 -0.68934815 0.16828611
v 0.05003832 -0.64432793 0.22424324
v 0.08396065 -0.70091367 0.18986734
v 0.13054858 -0.67841259 0.15456858
v 0.10422470 -0.69243154 0.18382394
v 0.08417179 -0.68064569 0.20189101
v 0.10134165 -0.72279745 0.16640191
v 0.11688441 -0.71026669 0.16153237
v 0.11796937 -0.73288946 0.14568689
v 0.09255491 -0.48496689 0.23951070
v 0.11499659 -0.47005482 0.23645007
v 0.10850582 -0.43115404 0.22351356
v 0.03444664 -0.43738858 0.21793588
v 0.07125345 -0.45442177 0.22920339
v 0.07911175 -0.42393853 0.21967308
v 0.04709905 -0.60817320 0.23648075
v 0.00885265 -0.57510209 0.23102754
v 0.06577486 -0.62588345 0.23259895
v 0.02180838 -0.59872774 0.23211486
v -0.01211704 -0.59898188 0.22107713
v 0.01509412 -0.65626511 0.21490934
v 0.06390238 -0.73258727 0.17372549
v 0.09101405 -0.44237049 0.22714255
v 0.10037324 -0.39163407 0.20710953
v -0.01369710 -0.57533314 0.22265694
v -0.03142860 -0.59357377 0.21321809
v -0.02433797 -0.61483667 0.21357088
v 0.00008963 -0.62146559 0.22132467
v -0.01440558 -0.64335578 0.21117023
v 0.02875690 -0.64329116 0.22185836
v 0.08488357 -0.73897140 0.15954812
v 0.08121073 -0.71982591 0.17749980
v 0.05776818 -0.70901708 0.19092498
v 0.09648366 -0.41249450 0.21609553
v 0.12309224 -0.40800986 0.21396476
v 0.07686359 -0.39714279 0.20858319
v 0.13251554 -0.36834309 0.19444078
v 0.12080966 -0.38590763 0.20397127
v 0.14237970 -0.39558543 0.20711485
v 0.10519131 -0.36192417 0.19229796
v -0.01177190 -0.68192268 0.19924452
v 0.06618271 -0.69113304 0.20006640
v 0.02899059 -0.72799882 0.18164201
v -0.00498580 -0.66364078 0.20760850
v -0.03224990 -0.65896766 0.19994530
v 0.01959467 -0.68379760 0.20464929
v 0.00608655 -0.70760958 0.19165884
v 0.04029095 -0.69589185 0.19957793
v -0.02553053 -0.70441564 0.18674282
v -0.00349185 -0.73391663 0.17746800
v 0.02812850 -0.71031526 0.19205247
v -0.03442291 -0.68409252 0.19117165
v 0.00447674 -0.75093788 0.16822022
v -0.02936392 -0.74050309 0.16925653
v -0.03743483 -0.75794606 0.15887734
v -0.03112429 -0.78293397 0.14644175
v -0.03877441 -0.72023477 0.17587662
v -0.02487134 -0.80941049 0.12958815
v -0.01615312 -0.82927185 0.11496864
v 0.23382765 -0.18900663 0.06194876
v -0.38465084 -0.26281270 0.10754827
v -0.40437129 -0.25431179 0.10124472
v -0.37748283 -0.29617149 0.12219312
v -0.41890590 -0.26896429 0.10434537
v -0.38920039 -0.28216585 0.11480156
v -0.36631243 -0.27505713 0.11495603
v -0.34483258 -0.29651117 0.12674034
v -0.34441002 -0.26438365 0.11096680
v -0.02195676 -0.40085819 0.19121103
v -0.46815351 -0.22907108 0.08205616
v 0.43124437 -0.61449239 0.04460730
v -0.51408692 -0.84344811 0.08683816
v -0.34695713 -0.37909361 0.15499826
v -0.33296227 -0.34388224 0.14757995
v -0.10826374 -0.39290508 0.15432459
v -0.09141694 -0.40498761 0.16423231
v -0.05661371 -0.37664597 0.17149935
v -0.07141036 -0.39546330 0.17167141
v -0.04898426 -0.41014419 0.18476067
v -0.08399727 -0.36965984 0.15948269
v -0.03974182 -0.38891201 0.18154115
v -0.00937483 -0.36137238 0.17810247
v -0.03470117 -0.36347502 0.17290812
v -0.05955563 -0.42916152 0.18506434
v -0.02788536 -0.43562907 0.19990009
v -0.06299576 -0.34779428 0.15855355
v -0.08628896 -0.34757582 0.14169317
v -0.08061880 -0.32898786 0.14020269
v -0.05769461 -0.32830931 0.14935404
v 0.35430357 -0.60500294 0.10546582
v 0.20928683 -0.64009910 0.21821501
v 0.20945772 -0.66077752 0.19908371
v -0.22332620 -0.58472800 0.18338598
v -0.16474505 -0.47119529 0.16617861
v -0.18963325 -0.68483614 0.16871420
v -0.23216184 -0.62873656 0.18132134
v -0.21154867 -0.61758230 0.18013275
v -0.20540427 -0.76409814 0.15984503
v -0.22254590 -0.77554102 0.16226614
v -0.55057054 -0.34816795 0.01493154
v -0.54385117 -0.27485987 0.04574097
v -0.36764724 -0.34684314 0.14144069
v -0.38334282 -0.32384567 0.13065356
v -0.24311793 -0.28924540 0.12385779
v -0.28243594 -0.29949458 0.13151130
v -0.24166405 -0.32339182 0.14503274
v 0.11814227 -0.74975000 0.12138608
v -0.04365191 -0.90122106 0.06400822
v -0.50360714 -0.82357632 0.09239929
v -0.16018810 -0.59747424 0.16704830
v -0.17376219 -0.63332676 0.16944225
v -0.18681480 -0.65500549 0.17139508
v -0.26577404 -0.37595033 0.16538942
v -0.09183552 -0.53768970 0.17626490
v -0.03730557 -0.51167807 0.20969664
v -0.01876288 -0.48671273 0.21443674
v -0.01869919 -0.46013885 0.20909707
v -0.00578342 -0.44006488 0.20855184
v -0.04077234 -0.46314708 0.20075993
v -0.07883177 -0.56719186 0.18603896
v -0.06414013 -0.58789219 0.19545964
v 0.13780454 -0.70155780 0.12373207
v 0.07471329 -0.34263620 0.18052121
v 0.05473400 -0.35140522 0.18378366
v 0.03402463 -0.33694202 0.17290138
v 0.01146280 -0.34786373 0.17552299
v -0.01102864 -0.33482852 0.16373620
v 0.01889859 -0.38240249 0.19408151
v -0.00645382 -0.31409538 0.15103799
v -0.02694477 -0.30007870 0.13663803
v -0.04058553 -0.31458732 0.14469886
v -0.00693537 -0.27722252 0.12043881
v 0.29514060 -0.22830631 0.05779645
v 0.39735478 -0.55117411 0.10539703
v 0.42250208 -0.50875626 0.05257410
v -0.51152028 -0.59425892 0.06042921
v -0.50598817 -0.56948677 0.06861013
v -0.49455602 -0.53199900 0.08411050
v -0.36588291 -0.68462516 0.17282256
v -0.51724077 -0.45233677 0.05103567
v -0.51973564 -0.43236213 0.04875024
v -0.51405043 -0.47806678 0.05341475
v -0.50622290 -0.46335746 0.06831050
v -0.21639610 -0.81864538 0.15061929
v 0.25380330 -0.27336276 0.10516159
v 0.21991079 -0.25072124 0.10448958
v 0.20120342 -0.24256658 0.10334267
v 0.19498450 -0.26316284 0.11913501
v 0.23671221 -0.26032618 0.10484798
v 0.02318793 -0.82140531 0.10876806
v 0.05074057 -0.75972568 0.15588830
v 0.03900470 -0.74469628 0.16973481
v 0.30675771 -0.60803982 0.14238531
v 0.27740466 -0.59851609 0.18322367
v 0.29372947 -0.38323672 0.14301215
v 0.24777608 -0.57689641 0.21630367
v -0.24662601 -0.44295469 0.17971594
v 0.16134428 -0.28897066 0.14260157
v 0.14421434 -0.31563438 0.16266127
v 0.12726687 -0.33878998 0.17842488
v 0.16167052 -0.32677314 0.16710302
v 0.14921471 -0.34500409 0.17983757
v 0.16150153 -0.36766892 0.19051212
v 0.21606400 -0.29159510 0.13179311
v 0.19162700 -0.35334260 0.17610520
v 0.25944950 -0.40928221 0.17871280
v 0.26736592 -0.50433283 0.20595450
v 0.18744410 -0.39711532 0.19969135
v 0.13866292 -0.62893089 0.22970500
v 0.16967248 -0.55876121 0.24775574
v 0.00545350 -0.53664921 0.22970523
v -0.00730397 -0.55456390 0.22561813
v 0.02359790 -0.55576843 0.23607334
v 0.01952161 -0.51216431 0.23164404
v 0.04047858 -0.51437091 0.23727374
v 0.01690345 -0.49069599 0.22733258
v 0.05353343 -0.55648134 0.24319687
v 0.12507877 -0.44904300 0.22961527
v 0.05757594 -0.41318753 0.21322074
v -0.36236308 -0.30664983 0.12879418
v -0.31545576 -0.28556624 0.12334513
v -0.33394479 -0.27945535 0.11928545
v -0.32317371 -0.31446497 0.13693829
v -0.29543189 -0.28628307 0.12372300
v -0.30276593 -0.30615043 0.13441646
v -0.30428899 -0.33505928 0.14764425
v -0.34326686 -0.31609090 0.13529212
v -0.31404268 -0.35827961 0.15500084
v -0.30026601 -0.37060197 0.16077731
v -0.26315946 -0.29397317 0.12821492
v -0.27033791 -0.31955958 0.14270920
v -0.29009281 -0.32011657 0.14196752
v -0.28113189 -0.33885001 0.15097733
v 0.03906335 -0.36944487 0.19147896
v -0.00452145 -0.38400714 0.18953235
v 0.00463196 -0.41190893 0.20270920
v -0.01434897 -0.42010757 0.19981962
v 0.03466945 -0.39579948 0.20274108
v -0.50620881 -0.54520415 0.06531717
v -0.51251360 -0.50041816 0.05468757
f 118 119 117
f 185 642 186
f 117 119 120
f 304 230 412
f 115 116 121
f 120 116 117
f 279 175 280
f 244 243 122
f 121 116 120
f 527 393 154
f 533 68 69
f 269 268 266
f 244 122 123
f 319 123 124
f 256 123 319
f 253 440 330
f 448 450 444
f 114 243 244
f 264 261 250
f 256 113 244
f 112 245 111
f 255 263 1108
f 113 256 112
f 316 245 436
f 173 511 651
f 243 121 122
f 152 153 528
f 241 242 254
f 237 265 236
f 316 110 111
f 576 109 351
f 1109 352 1146
f 265 264 236
f 576 467 108
f 255 32 33
f 150 151 257
f 108 467 107
f 329 262 24
f 316 111 245
f 406 1107 151
f 589 584 592
f 353 581 468
f 107 467 580
f 237 249 265
f 9 10 260
f 354 599 603
f 103 104 605
f 245 112 256
f 354 603 105
f 10 11 326
f 565 567 260
f 104 603 605
f 101 475 100
f 1190 902 904
f 109 110 351
f 354 105 106
f 410 303 229
f 264 250 1145
f 278 174 279
f 327 34 35
f 359 476 276
f 361 136 358
f 478 132 133
f 127 466 126
f 360 477 135
f 260 259 9
f 261 259 250
f 363 478 479
f 136 361 135
f 268 251 262
f 277 276 139
f 494 189 188
f 277 140 300
f 286 173 278
f 526 392 525
f 368 177 366
f 174 278 173
f 136 137 358
f 175 279 174
f 362 626 487
f 139 276 138
f 176 280 175
f 141 179 300
f 358 137 476
f 264 235 236
f 509 173 172
f 165 614 166
f 941 885 919
f 166 167 506
f 770 163 162
f 627 628 163
f 615 762 470
f 627 369 489
f 272 596 597
f 617 471 761
f 627 163 164
f 634 494 188
f 800 130 801
f 376 499 284
f 512 510 384
f 500 196 195
f 515 384 514
f 485 483 275
f 283 376 375
f 168 501 502
f 625 131 365
f 501 168 169
f 379 378 501
f 616 764 470
f 502 167 168
f 286 197 381
f 383 509 510
f 171 514 510
f 636 1147 635
f 176 288 201
f 232 301 233
f 307 306 199
f 882 620 791
f 485 365 363
f 629 891 811
f 94 95 386
f 152 151 517
f 90 258 248
f 661 392 526
f 92 93 387
f 514 171 170
f 539 928 929
f 290 323 324
f 290 387 388
f 75 76 407
f 386 519 656
f 286 278 198
f 778 788 776
f 776 777 778
f 377 194 193
f 389 149 323
f 149 246 148
f 148 147 322
f 253 241 439
f 78 79 246
f 247 246 149
f 147 325 322
f 77 78 247
f 822 876 821
f 197 198 301
f 80 148 79
f 87 88 144
f 397 549 681
f 144 88 145
f 144 84 143
f 85 86 143
f 233 306 234
f 143 84 85
f 143 86 87
f 144 143 87
f 169 170 379
f 144 83 84
f 557 16 17
f 248 145 89
f 89 90 248
f 146 147 81
f 80 147 148
f 248 258 325
f 81 147 80
f 83 145 82
f 83 144 145
f 329 24 25
f 82 145 146
f 146 81 82
f 131 132 365
f 73 74 1098
f 145 88 89
f 182 402 401
f 64 542 63
f 340 269 344
f 166 764 167
f 1179 1237 881
f 619 774 472
f 160 496 814
f 157 158 525
f 153 154 393
f 824 153 825
f 157 524 156
f 154 153 529
f 774 775 779
f 155 156 659
f 524 392 391
f 530 671 830
f 398 930 951
f 161 495 496
f 186 549 185
f 161 162 495
f 187 186 641
f 531 1112 184
f 181 404 182
f 65 181 400
f 181 401 400
f 534 1143 533
f 532 183 182
f 402 1124 401
f 187 547 186
f 161 496 160
f 822 821 657
f 404 66 297
f 151 152 406
f 151 150 518
f 407 408 75
f 298 408 407
f 318 207 208
f 257 1107 77
f 247 149 150
f 528 393 395
f 407 1107 298
f 438 33 34
f 90 91 258
f 77 247 257
f 27 241 253
f 1220 1218 1104
f 241 254 255
f 546 66 67
f 405 297 546
f 114 115 243
f 113 114 244
f 73 1098 1103
f 320 319 124
f 244 123 256
f 394 292 393
f 348 350 335
f 66 181 65
f 1105 1103 1219
f 537 405 535
f 92 324 91
f 548 409 547
f 618 158 157
f 159 158 620
f 254 31 32
f 188 189 559
f 1158 224 678
f 180 179 141
f 142 1 180
f 179 180 204
f 179 178 300
f 201 288 202
f 202 178 203
f 203 204 239
f 203 178 179
f 179 204 203
f 202 203 238
f 180 205 204
f 141 142 180
f 1 205 180
f 2 240 1
f 240 2 3
f 240 205 1
f 552 12 13
f 240 239 204
f 237 202 238
f 4 238 239
f 317 237 238
f 249 237 317
f 239 240 3
f 203 239 238
f 305 231 230
f 205 240 204
f 717 851 1096
f 202 237 201
f 199 198 278
f 196 381 197
f 301 198 306
f 302 197 301
f 194 303 193
f 644 193 192
f 195 305 304
f 198 197 286
f 195 194 375
f 195 196 305
f 198 199 306
f 376 500 375
f 200 201 236
f 279 200 199
f 236 235 200
f 264 265 261
f 201 237 236
f 235 234 307
f 301 232 302
f 567 1145 250
f 231 305 302
f 326 565 260
f 250 260 567
f 301 306 233
f 717 233 716
f 307 200 235
f 200 280 201
f 304 305 230
f 4 239 3
f 377 283 375
f 217 216 1160
f 279 280 200
f 249 6 7
f 317 5 6
f 8 9 259
f 261 8 259
f 259 260 250
f 175 174 362
f 270 267 332
f 10 326 260
f 1133 507 1134
f 5 238 4
f 552 554 12
f 158 618 620
f 851 852 1096
f 251 267 270
f 139 140 277
f 14 15 555
f 413 684 683
f 33 263 255
f 556 414 555
f 247 150 257
f 335 338 340
f 557 556 16
f 435 352 1109
f 683 566 554
f 672 398 404
f 1092 1093 900
f 261 7 8
f 145 248 146
f 19 442 441
f 20 442 19
f 228 411 410
f 900 832 899
f 332 22 270
f 47 48 252
f 332 334 21
f 270 22 23
f 146 325 147
f 19 441 18
f 268 262 329
f 178 177 368
f 329 330 266
f 491 1147 490
f 520 386 521
f 23 24 262
f 242 28 29
f 172 173 286
f 28 242 241
f 323 149 148
f 1233 1232 1106
f 28 241 27
f 251 270 262
f 27 253 26
f 141 300 140
f 31 29 30
f 303 194 304
f 304 412 303
f 419 226 418
f 551 303 411
f 191 192 416
f 191 190 490
f 550 419 310
f 310 418 417
f 189 190 422
f 164 165 488
f 421 311 420
f 445 568 441
f 417 191 416
f 678 223 676
f 1037 1032 1016
f 190 633 490
f 299 409 673
f 332 21 22
f 299 677 1156
f 446 448 444
f 342 443 331
f 675 676 1152
f 531 184 185
f 331 333 341
f 63 544 62
f 992 1004 1010
f 993 463 982
f 543 403 542
f 442 334 336
f 680 1121 681
f 458 460 349
f 1168 1166 1167
f 400 543 65
f 694 216 215
f 542 544 63
f 29 31 242
f 78 246 247
f 1164 699 1166
f 261 249 7
f 695 426 697
f 425 426 312
f 148 246 79
f 692 562 215
f 330 25 26
f 213 690 560
f 846 850 713
f 561 424 690
f 563 833 42
f 938 939 906
f 58 424 57
f 249 261 265
f 424 58 425
f 569 438 327
f 314 211 210
f 561 56 57
f 625 800 801
f 211 313 691
f 692 312 562
f 952 932 850
f 278 279 199
f 1044 1068 309
f 423 559 422
f 517 151 518
f 42 43 563
f 833 41 42
f 530 154 529
f 1174 101 102
f 429 431 46
f 191 490 493
f 711 705 708
f 45 427 44
f 359 276 367
f 1137 386 95
f 842 563 43
f 405 67 68
f 718 36 1172
f 196 197 302
f 241 1108 439
f 269 251 268
f 277 300 178
f 202 288 177
f 997 996 993
f 171 172 380
f 267 337 333
f 458 348 346
f 670 669 473
f 380 286 284
f 23 262 270
f 841 703 840
f 302 305 196
f 314 54 55
f 707 709 845
f 707 708 709
f 314 1097 54
f 299 675 677
f 1097 53 54
f 52 208 207
f 208 52 53
f 209 208 53
f 231 302 232
f 427 434 315
f 210 1097 314
f 206 51 207
f 207 51 52
f 177 176 366
f 318 252 207
f 252 318 429
f 206 252 48
f 206 50 51
f 206 48 49
f 49 50 206
f 761 615 164
f 207 252 206
f 306 307 234
f 201 280 176
f 194 195 304
f 434 45 431
f 176 177 288
f 200 307 199
f 32 255 254
f 242 31 254
f 121 243 115
f 193 551 192
f 202 177 178
f 190 191 417
f 1090 1189 1080
f 58 59 425
f 59 60 426
f 55 56 313
f 56 561 691
f 55 313 314
f 211 314 313
f 315 708 705
f 706 427 704
f 320 321 436
f 316 465 351
f 5 317 238
f 6 249 317
f 433 430 432
f 47 429 46
f 320 124 125
f 245 256 319
f 125 435 320
f 245 319 320
f 126 435 125
f 465 271 351
f 258 91 324
f 323 322 324
f 323 290 389
f 148 322 323
f 324 322 258
f 324 92 387
f 248 325 146
f 322 325 258
f 685 12 554
f 566 437 565
f 36 37 721
f 569 263 438
f 345 328 571
f 330 440 455
f 330 329 25
f 268 329 266
f 26 253 330
f 253 439 440
f 333 331 334
f 444 454 445
f 333 332 267
f 332 333 334
f 337 267 338
f 340 338 251
f 334 331 336
f 20 21 334
f 834 428 835
f 339 341 337
f 342 331 341
f 556 1144 686
f 338 267 251
f 337 335 339
f 340 251 269
f 335 337 338
f 348 340 347
f 996 1206 449
f 269 345 344
f 327 718 570
f 337 341 333
f 342 341 339
f 464 339 350
f 450 452 444
f 37 38 574
f 344 347 340
f 266 455 269
f 347 344 1190
f 263 569 571
f 344 345 1127
f 573 456 570
f 975 972 961
f 1190 344 343
f 348 347 346
f 458 350 348
f 340 348 335
f 902 573 903
f 940 972 974
f 464 350 349
f 339 335 350
f 316 351 110
f 467 576 723
f 945 946 967
f 589 591 582
f 353 588 600
f 600 601 945
f 353 580 467
f 597 599 272
f 615 470 614
f 272 577 579
f 619 472 618
f 740 753 756
f 102 1173 1174
f 917 273 878
f 137 138 476
f 361 358 648
f 276 366 367
f 358 359 626
f 647 362 651
f 135 477 134
f 648 358 274
f 135 361 360
f 173 509 511
f 626 367 487
f 133 134 622
f 481 363 479
f 169 168 624
f 167 764 765
f 365 132 478
f 625 365 798
f 366 176 367
f 368 366 276
f 175 487 176
f 362 487 175
f 276 277 368
f 178 368 277
f 166 506 507
f 369 281 1130
f 281 369 1134
f 492 493 370
f 498 497 641
f 630 629 632
f 806 163 628
f 637 496 372
f 643 498 642
f 540 539 536
f 373 815 817
f 537 536 295
f 377 375 194
f 379 376 283
f 171 499 170
f 381 500 284
f 492 645 644
f 1132 505 285
f 377 503 283
f 1149 1132 285
f 376 379 170
f 378 379 283
f 286 380 172
f 499 380 284
f 500 381 196
f 286 381 284
f 646 285 645
f 166 507 165
f 652 513 287
f 274 362 647
f 515 170 169
f 515 516 384
f 149 389 150
f 1138 389 522
f 386 1137 519
f 388 1138 522
f 387 93 520
f 324 387 290
f 94 520 93
f 521 386 289
f 522 389 290
f 518 389 385
f 1111 390 1139
f 1098 1102 1103
f 391 1110 1111
f 523 391 1139
f 158 159 660
f 392 661 1110
f 527 154 155
f 393 292 1101
f 394 527 523
f 394 1140 1100
f 1099 292 1098
f 406 528 298
f 825 152 517
f 668 530 396
f 547 549 186
f 1113 1112 397
f 532 404 398
f 949 929 930
f 1141 533 69
f 662 374 664
f 401 181 182
f 400 296 543
f 402 182 183
f 296 400 401
f 183 184 1112
f 1112 1113 1117
f 402 1117 1124
f 1116 1106 1118
f 66 404 181
f 404 297 672
f 535 68 533
f 536 537 535
f 406 152 528
f 406 298 1107
f 1107 407 76
f 408 298 395
f 395 393 1101
f 74 75 408
f 548 187 188
f 679 549 409
f 229 228 410
f 228 550 411
f 310 416 551
f 303 410 411
f 230 229 412
f 303 412 229
f 14 555 553
f 684 413 831
f 1188 896 687
f 553 413 552
f 688 18 441
f 445 336 443
f 416 192 551
f 417 416 310
f 310 419 418
f 190 417 420
f 421 226 225
f 420 418 421
f 550 310 411
f 226 419 227
f 420 311 422
f 417 418 420
f 226 421 418
f 421 225 1158
f 420 422 190
f 423 422 311
f 224 223 678
f 673 409 548
f 560 424 312
f 690 212 561
f 426 425 59
f 424 425 312
f 700 697 60
f 312 426 562
f 429 432 431
f 427 315 704
f 564 705 712
f 712 705 711
f 252 429 47
f 318 432 429
f 318 433 432
f 845 844 210
f 434 431 430
f 45 46 431
f 433 318 208
f 431 432 430
f 208 209 433
f 843 709 1170
f 434 430 1170
f 45 434 427
f 435 126 466
f 320 435 321
f 320 436 245
f 465 436 321
f 233 717 232
f 716 234 1145
f 33 438 263
f 34 327 438
f 1108 241 255
f 439 328 440
f 328 345 440
f 455 345 269
f 443 336 331
f 568 1159 688
f 334 442 20
f 441 442 336
f 446 443 342
f 446 445 443
f 1129 339 464
f 1011 1019 1002
f 452 454 444
f 441 336 445
f 342 1129 448
f 445 446 444
f 349 460 462
f 979 1207 977
f 342 448 446
f 447 996 450
f 463 575 462
f 1206 1033 1034
f 447 450 448
f 449 1034 452
f 1019 1031 1033
f 1046 689 1045
f 449 452 450
f 454 452 1041
f 415 558 689
f 558 415 557
f 1041 452 451
f 454 453 568
f 330 455 266
f 440 345 455
f 456 569 570
f 344 1127 343
f 574 38 864
f 840 703 837
f 905 1191 904
f 349 350 458
f 908 907 39
f 901 932 934
f 1191 458 346
f 1193 462 460
f 720 857 854
f 976 984 975
f 1193 460 459
f 463 462 461
f 981 974 979
f 464 1128 1129
f 349 575 464
f 464 575 1128
f 436 465 316
f 1109 465 321
f 601 466 127
f 435 466 352
f 108 109 576
f 353 468 580
f 272 354 577
f 354 578 577
f 732 725 727
f 605 728 103
f 615 165 164
f 768 873 355
f 795 791 621
f 272 584 596
f 619 157 156
f 620 472 789
f 530 155 154
f 784 293 876
f 783 779 776
f 598 469 597
f 1236 475 101
f 1237 475 357
f 276 476 138
f 358 476 359
f 360 648 649
f 479 482 481
f 479 478 133
f 365 478 363
f 482 622 477
f 482 650 652
f 653 818 1181
f 481 483 363
f 479 622 482
f 481 480 483
f 383 512 513
f 480 481 482
f 1181 384 516
f 820 819 623
f 874 167 765
f 1135 1136 515
f 483 485 363
f 275 365 485
f 796 275 483
f 733 598 758
f 626 362 274
f 176 487 367
f 1133 488 165
f 369 164 488
f 630 631 629
f 628 630 632
f 633 190 189
f 646 370 1148
f 491 633 494
f 636 635 371
f 285 505 504
f 493 192 191
f 370 493 490
f 192 493 492
f 634 188 187
f 494 807 635
f 806 495 162
f 496 495 372
f 637 372 282
f 640 814 639
f 892 629 811
f 371 635 807
f 643 185 184
f 498 815 1131
f 499 171 380
f 376 170 499
f 375 500 195
f 284 500 376
f 379 501 169
f 502 501 378
f 502 378 505
f 506 167 1132
f 503 377 504
f 378 283 503
f 644 377 193
f 646 645 492
f 378 503 505
f 504 505 503
f 1132 167 502
f 507 506 382
f 507 382 508
f 488 1133 369
f 1149 285 646
f 812 370 1147
f 510 509 172
f 511 509 383
f 171 510 172
f 512 384 287
f 649 383 513
f 362 174 651
f 513 512 287
f 383 510 512
f 477 650 482
f 650 360 649
f 515 514 170
f 510 514 384
f 624 1135 169
f 1136 364 516
f 516 819 653
f 480 653 483
f 385 654 517
f 654 655 517
f 389 518 150
f 517 518 385
f 97 877 914
f 289 656 655
f 386 520 94
f 387 520 388
f 289 654 1138
f 520 521 388
f 290 388 522
f 388 521 1138
f 659 524 523
f 523 1139 1140
f 524 157 525
f 523 524 391
f 525 158 660
f 524 525 392
f 813 159 814
f 661 291 1110
f 527 155 659
f 393 527 394
f 393 528 153
f 528 395 298
f 824 529 153
f 530 529 396
f 396 821 668
f 473 671 670
f 549 531 185
f 1112 531 397
f 404 532 182
f 951 532 398
f 533 1141 534
f 535 533 399
f 71 1221 1227
f 540 541 538
f 535 399 536
f 68 535 405
f 541 540 399
f 539 295 536
f 295 949 672
f 297 405 537
f 639 638 374
f 536 399 540
f 1150 826 538
f 815 498 643
f 541 399 1143
f 539 540 538
f 534 1141 1227
f 1226 663 667
f 543 542 64
f 544 542 403
f 543 64 65
f 543 296 1125
f 403 1126 1168
f 1161 1231 217
f 401 1124 296
f 1231 1162 1163
f 66 546 297
f 67 405 546
f 548 547 187
f 549 547 409
f 559 548 188
f 673 548 1151
f 679 409 299
f 531 549 397
f 228 227 550
f 419 550 227
f 303 551 193
f 551 411 310
f 553 552 13
f 554 552 413
f 14 553 13
f 895 414 896
f 683 554 413
f 11 685 326
f 556 555 15
f 555 414 895
f 16 556 15
f 556 557 1144
f 558 557 17
f 557 415 1144
f 17 18 688
f 689 558 1159
f 422 559 189
f 559 423 1151
f 692 560 312
f 213 560 214
f 561 212 691
f 57 424 561
f 215 562 694
f 697 693 695
f 706 842 44
f 834 833 563
f 564 704 705
f 563 715 428
f 566 565 326
f 567 565 437
f 566 326 685
f 566 308 851
f 716 567 437
f 235 1145 234
f 454 568 445
f 568 453 1159
f 570 569 327
f 571 569 456
f 327 35 718
f 573 343 1127
f 345 571 456
f 571 328 1108
f 721 37 574
f 1171 573 570
f 573 1171 719
f 902 343 573
f 39 907 864
f 1171 866 719
f 462 575 349
f 1128 575 463
f 351 271 722
f 467 723 353
f 578 354 106
f 579 577 468
f 107 578 106
f 468 577 578
f 468 581 579
f 604 591 590
f 468 578 580
f 107 580 578
f 600 583 585
f 581 353 585
f 272 579 584
f 585 593 592
f 947 805 888
f 804 887 802
f 592 579 581
f 757 596 582
f 723 576 722
f 589 582 584
f 585 583 593
f 586 593 595
f 591 607 582
f 1174 1236 101
f 1109 1146 271
f 601 600 588
f 592 584 579
f 586 595 591
f 944 593 583
f 608 602 604
f 586 591 589
f 888 923 594
f 585 592 581
f 589 592 586
f 595 593 944
f 592 593 586
f 594 925 888
f 803 805 800
f 924 595 594
f 591 595 590
f 582 596 584
f 597 596 587
f 598 597 587
f 597 469 599
f 607 602 760
f 103 1173 102
f 599 469 603
f 272 599 354
f 353 600 585
f 588 1146 601
f 466 601 352
f 946 945 601
f 752 869 751
f 604 607 591
f 605 603 469
f 104 105 603
f 924 608 590
f 604 602 607
f 598 724 469
f 605 469 724
f 625 798 486
f 602 608 610
f 610 612 602
f 596 757 587
f 590 608 604
f 606 922 610
f 610 922 609
f 749 755 754
f 606 610 608
f 1176 612 610
f 867 474 747
f 613 760 612
f 1176 610 609
f 612 611 613
f 737 729 742
f 758 759 735
f 615 614 165
f 764 614 470
f 761 164 163
f 470 762 355
f 767 768 766
f 765 767 769
f 161 771 162
f 795 161 160
f 619 618 157
f 620 618 472
f 156 155 830
f 774 356 789
f 472 774 789
f 790 791 620
f 743 734 737
f 771 617 770
f 133 622 479
f 477 622 134
f 767 766 769
f 796 797 275
f 874 624 168
f 1135 624 484
f 798 365 275
f 625 486 800
f 358 626 274
f 367 626 359
f 369 627 164
f 628 627 489
f 628 489 630
f 628 632 806
f 489 631 630
f 807 808 810
f 489 1130 631
f 892 632 629
f 809 281 636
f 371 810 809
f 282 372 632
f 632 372 806
f 494 633 189
f 490 633 491
f 641 634 187
f 808 807 634
f 371 809 636
f 491 494 635
f 812 636 281
f 1147 370 490
f 638 637 282
f 640 639 374
f 892 282 632
f 664 665 663
f 496 637 639
f 638 639 637
f 662 640 374
f 813 526 660
f 641 186 642
f 634 641 497
f 643 642 185
f 641 642 498
f 183 951 184
f 1131 815 373
f 492 644 192
f 377 644 504
f 285 504 645
f 644 645 504
f 370 646 492
f 646 1148 1149
f 511 383 649
f 361 648 360
f 274 647 648
f 649 648 647
f 649 647 511
f 649 513 650
f 650 513 652
f 360 650 477
f 173 651 174
f 647 651 511
f 818 652 287
f 482 652 480
f 818 653 480
f 516 364 819
f 654 385 1138
f 655 654 289
f 289 386 656
f 293 668 821
f 823 519 658
f 876 822 823
f 657 821 824
f 655 657 825
f 519 1137 914
f 97 915 877
f 524 659 156
f 527 659 523
f 813 660 159
f 525 660 526
f 526 662 661
f 661 662 666
f 662 526 813
f 374 665 664
f 1150 541 667
f 664 666 662
f 665 374 638
f 666 664 663
f 894 893 817
f 663 665 826
f 663 1150 667
f 666 291 661
f 534 1227 1228
f 1226 1225 291
f 669 668 293
f 473 775 671
f 780 782 916
f 778 782 788
f 530 668 670
f 669 670 668
f 830 619 156
f 530 670 671
f 297 537 672
f 295 672 537
f 673 1151 674
f 673 674 675
f 423 311 1157
f 673 675 299
f 674 676 675
f 223 1152 676
f 676 674 678
f 1152 223 222
f 222 221 1153
f 221 1155 1154
f 674 1151 1157
f 1157 1158 678
f 680 679 299
f 397 681 294
f 1154 1156 1153
f 1116 1122 1106
f 549 679 681
f 680 681 679
f 414 686 687
f 1095 852 832
f 553 831 413
f 566 683 308
f 684 682 897
f 683 684 1187
f 12 685 11
f 566 685 554
f 686 309 687
f 414 556 686
f 1024 1036 451
f 1087 1091 1090
f 568 688 441
f 17 688 558
f 1041 453 454
f 1032 1036 1024
f 560 690 424
f 212 690 213
f 211 691 212
f 56 691 313
f 215 214 692
f 692 214 560
f 1169 702 700
f 696 1160 694
f 562 695 694
f 698 694 695
f 426 695 562
f 695 693 698
f 698 693 699
f 1160 1161 217
f 426 60 697
f 700 60 61
f 693 700 702
f 694 698 696
f 1120 1114 1118
f 698 699 1162
f 61 62 1169
f 693 697 700
f 1167 62 544
f 702 699 693
f 1169 700 61
f 702 701 1166
f 428 712 714
f 854 457 574
f 705 704 315
f 706 704 564
f 315 709 708
f 1201 848 849
f 715 842 564
f 44 427 706
f 1185 1183 1184
f 956 954 955
f 709 315 1170
f 1182 711 708
f 430 433 843
f 709 844 845
f 213 214 1195
f 1073 217 218
f 1182 708 707
f 712 711 710
f 714 712 846
f 428 715 712
f 846 713 714
f 906 905 853
f 846 712 710
f 834 835 703
f 715 563 842
f 712 715 564
f 717 716 437
f 233 234 716
f 437 851 717
f 852 1187 897
f 36 718 35
f 718 572 1171
f 1172 866 572
f 861 912 862
f 907 908 858
f 703 835 837
f 865 574 457
f 718 1172 572
f 722 271 1146
f 576 351 722
f 722 588 723
f 588 353 723
f 605 724 728
f 724 598 727
f 733 729 732
f 731 725 741
f 728 727 730
f 725 731 730
f 598 733 732
f 730 727 725
f 727 728 724
f 728 726 1173
f 742 744 739
f 725 732 736
f 741 725 736
f 728 730 726
f 357 1175 273
f 726 730 731
f 598 732 727
f 729 737 736
f 587 758 598
f 759 758 757
f 734 736 737
f 779 783 787
f 613 745 744
f 729 733 735
f 729 736 732
f 741 736 884
f 729 744 742
f 747 743 740
f 794 747 793
f 731 738 879
f 751 750 745
f 740 746 753
f 742 739 746
f 772 771 773
f 884 736 734
f 731 741 738
f 744 729 735
f 746 743 737
f 746 737 742
f 740 867 747
f 735 613 744
f 745 613 611
f 745 611 751
f 739 744 745
f 745 750 739
f 740 743 746
f 779 787 356
f 734 743 747
f 611 752 751
f 748 869 763
f 739 750 755
f 772 875 617
f 754 750 748
f 749 753 755
f 612 1176 611
f 750 751 748
f 609 922 964
f 870 763 869
f 746 739 755
f 756 753 749
f 872 748 763
f 875 754 471
f 755 750 754
f 746 755 753
f 771 772 617
f 868 867 756
f 582 607 757
f 760 759 607
f 733 758 735
f 587 757 758
f 607 759 757
f 735 759 613
f 612 760 602
f 759 760 613
f 761 163 770
f 871 761 471
f 871 615 761
f 471 754 872
f 355 762 763
f 871 763 762
f 764 166 614
f 765 764 616
f 765 616 767
f 769 484 874
f 616 768 767
f 804 886 606
f 616 873 768
f 941 769 766
f 355 763 870
f 921 942 943
f 364 484 769
f 624 874 484
f 771 770 162
f 761 770 617
f 773 161 795
f 773 756 772
f 756 749 772
f 749 754 875
f 161 773 771
f 756 773 621
f 619 775 774
f 775 777 779
f 671 775 619
f 775 473 777
f 473 778 777
f 883 878 879
f 778 473 669
f 779 777 776
f 669 782 778
f 357 273 917
f 783 786 878
f 774 779 356
f 784 916 782
f 1177 98 99
f 883 884 794
f 793 474 790
f 784 782 669
f 780 785 788
f 783 776 786
f 783 781 787
f 293 784 669
f 784 658 877
f 780 1178 1177
f 917 878 786
f 776 880 786
f 785 917 880
f 734 747 794
f 474 791 790
f 780 788 782
f 788 785 880
f 787 792 356
f 793 790 792
f 620 789 790
f 792 790 789
f 791 474 868
f 882 160 159
f 356 792 789
f 792 787 793
f 794 787 781
f 474 793 747
f 787 794 793
f 883 794 781
f 795 160 882
f 773 795 621
f 820 483 653
f 797 796 623
f 919 918 623
f 486 798 799
f 275 797 798
f 799 798 797
f 797 623 918
f 803 804 802
f 803 800 486
f 800 805 889
f 130 131 801
f 625 801 131
f 804 803 486
f 888 805 802
f 804 486 799
f 805 803 802
f 886 804 799
f 887 804 606
f 802 923 888
f 805 129 889
f 495 806 372
f 163 806 162
f 494 634 807
f 808 634 497
f 497 1131 890
f 809 810 891
f 371 807 810
f 281 809 631
f 811 810 808
f 891 631 809
f 497 890 808
f 893 927 373
f 1134 812 281
f 1148 812 508
f 814 159 160
f 662 813 640
f 639 814 496
f 813 814 640
f 950 815 643
f 950 817 815
f 398 949 930
f 826 828 829
f 829 894 928
f 928 894 816
f 652 818 480
f 1181 287 384
f 919 819 364
f 820 623 796
f 483 820 796
f 653 819 820
f 824 821 396
f 657 655 822
f 655 656 822
f 823 822 656
f 519 823 656
f 823 658 876
f 529 824 396
f 825 153 152
f 655 825 517
f 824 825 657
f 826 665 828
f 538 826 829
f 827 1194 948
f 892 926 282
f 1194 665 638
f 829 828 827
f 829 827 894
f 829 539 538
f 530 830 155
f 619 830 671
f 895 831 553
f 682 684 831
f 897 899 832
f 832 900 1093
f 834 563 428
f 833 703 841
f 835 428 714
f 703 833 834
f 713 838 714
f 838 837 835
f 931 838 713
f 854 857 856
f 835 714 838
f 840 836 839
f 932 931 713
f 837 838 1192
f 855 858 909
f 40 41 841
f 836 840 837
f 841 840 839
f 841 839 908
f 841 41 833
f 44 842 43
f 842 706 564
f 433 209 843
f 844 209 210
f 709 843 844
f 209 844 843
f 210 211 845
f 1183 845 211
f 710 849 848
f 846 710 848
f 955 957 1202
f 848 850 846
f 711 1182 710
f 848 847 850
f 845 1183 1186
f 1185 213 956
f 952 953 1202
f 913 972 940
f 566 851 437
f 851 308 1187
f 852 851 1187
f 1095 832 1093
f 863 457 862
f 1191 460 458
f 864 854 574
f 855 857 858
f 931 911 1192
f 457 854 856
f 861 856 855
f 862 457 856
f 858 857 720
f 855 856 857
f 907 858 720
f 858 839 909
f 937 855 910
f 994 985 998
f 906 860 938
f 903 863 935
f 855 909 910
f 912 861 859
f 861 862 856
f 863 862 860
f 860 906 935
f 866 721 865
f 39 864 38
f 854 864 720
f 863 865 457
f 721 574 865
f 865 863 866
f 863 719 866
f 740 756 867
f 868 756 621
f 791 868 621
f 474 867 868
f 751 869 748
f 869 752 870
f 752 1176 966
f 768 355 870
f 615 871 762
f 872 871 471
f 748 872 754
f 871 872 763
f 616 470 873
f 355 873 470
f 167 874 168
f 765 769 874
f 617 875 471
f 749 875 772
f 293 821 876
f 658 784 876
f 914 877 658
f 97 98 915
f 879 878 273
f 783 878 781
f 879 273 1175
f 879 738 883
f 788 880 776
f 917 785 881
f 785 780 1180
f 100 475 1237
f 620 882 159
f 795 882 791
f 883 781 878
f 884 883 738
f 741 884 738
f 734 794 884
f 942 921 885
f 918 920 797
f 920 886 799
f 886 920 921
f 924 606 608
f 924 594 923
f 925 594 944
f 888 925 947
f 129 130 889
f 800 889 130
f 373 817 893
f 811 808 890
f 631 891 629
f 810 811 891
f 890 373 927
f 926 638 282
f 1194 926 948
f 927 892 811
f 893 894 827
f 816 894 817
f 555 895 553
f 896 414 687
f 682 831 896
f 895 896 831
f 682 1188 899
f 852 897 832
f 1188 682 896
f 1042 1038 1036
f 682 899 897
f 899 898 1090
f 1087 1090 1080
f 1092 1091 229
f 932 952 934
f 911 936 937
f 903 573 719
f 904 902 853
f 863 903 719
f 853 902 903
f 905 904 853
f 346 347 1190
f 853 935 906
f 1191 459 460
f 1204 938 912
f 905 906 939
f 864 907 720
f 908 39 40
f 841 908 40
f 839 858 908
f 839 836 909
f 909 836 910
f 911 836 1192
f 836 911 910
f 859 861 958
f 855 937 861
f 859 1204 912
f 862 912 860
f 461 462 1193
f 940 1193 939
f 519 914 658
f 97 914 96
f 1178 98 1177
f 915 1178 916
f 784 877 916
f 915 916 877
f 880 917 786
f 357 917 881
f 623 819 919
f 920 918 885
f 364 769 941
f 885 918 919
f 920 885 921
f 797 920 799
f 885 766 942
f 964 922 886
f 606 886 922
f 964 886 921
f 802 887 923
f 924 923 887
f 924 887 606
f 924 590 595
f 945 925 583
f 925 967 947
f 927 926 892
f 827 948 893
f 890 927 811
f 927 893 948
f 929 928 816
f 829 928 539
f 929 816 930
f 539 929 295
f 816 950 930
f 951 950 643
f 932 713 850
f 911 931 901
f 850 953 952
f 901 931 932
f 217 1061 1077
f 1052 1071 1073
f 983 976 963
f 936 1203 962
f 903 935 853
f 860 935 863
f 901 1203 911
f 936 962 959
f 911 937 910
f 937 936 958
f 912 938 860
f 939 938 913
f 939 913 940
f 905 939 459
f 959 961 859
f 859 958 959
f 885 941 766
f 364 941 919
f 768 965 766
f 966 965 870
f 965 943 942
f 966 943 965
f 595 944 594
f 583 925 944
f 600 945 583
f 601 127 946
f 127 128 946
f 128 947 967
f 128 129 947
f 805 947 129
f 827 828 1194
f 927 948 926
f 672 949 398
f 929 949 295
f 950 816 817
f 951 643 184
f 951 183 532
f 950 951 930
f 953 850 847
f 933 934 952
f 847 955 953
f 1200 1202 957
f 847 1201 956
f 1196 214 215
f 956 955 847
f 955 954 1198
f 849 1183 1185
f 1195 956 213
f 1196 954 1195
f 216 1077 1197
f 937 958 861
f 959 958 936
f 1207 979 980
f 972 1204 961
f 934 968 901
f 971 968 934
f 963 959 962
f 976 959 963
f 1203 936 911
f 963 962 960
f 960 1203 968
f 970 960 968
f 921 943 964
f 609 964 943
f 766 965 942
f 870 965 768
f 752 966 870
f 609 943 966
f 945 967 925
f 128 967 946
f 1205 971 934
f 971 970 968
f 989 969 991
f 1028 220 221
f 970 969 986
f 963 960 970
f 1205 934 933
f 970 971 969
f 1204 972 913
f 975 974 972
f 976 983 984
f 982 461 981
f 979 974 973
f 940 974 981
f 976 975 961
f 973 974 975
f 959 976 961
f 986 983 970
f 980 973 984
f 461 982 463
f 985 978 988
f 998 1013 994
f 980 979 973
f 981 979 977
f 984 985 980
f 1004 992 995
f 981 977 982
f 981 461 940
f 995 982 977
f 993 447 1128
f 970 983 963
f 984 983 978
f 984 978 985
f 984 973 975
f 986 988 978
f 990 998 988
f 989 988 986
f 983 986 978
f 1202 1200 933
f 1050 1029 219
f 989 986 969
f 988 987 990
f 991 969 1205
f 987 988 989
f 1029 1052 1216
f 1028 221 1213
f 1075 1061 1072
f 991 1076 989
f 980 985 994
f 1039 1016 1055
f 982 995 1001
f 1001 997 993
f 1047 1026 999
f 980 994 1005
f 1000 1207 1005
f 992 997 1001
f 450 996 449
f 447 993 996
f 997 992 1012
f 996 997 1206
f 988 998 985
f 1013 998 990
f 1211 1208 1015
f 1009 999 1017
f 1013 1014 994
f 1006 1008 1000
f 982 1001 993
f 992 1001 995
f 1010 1000 1008
f 1002 1012 1011
f 1048 1027 1047
f 1006 1000 1005
f 1207 995 977
f 1010 1004 1000
f 1006 1005 994
f 1207 1000 1004
f 1009 1014 999
f 1009 1008 1006
f 222 223 1208
f 1057 1065 1056
f 1006 1014 1009
f 1008 1007 1010
f 1025 1212 1017
f 1007 1008 1009
f 1011 1010 1007
f 1012 1002 1206
f 1007 1009 1021
f 1086 1089 228
f 992 1010 1012
f 1011 1012 1010
f 1048 1013 990
f 1013 1003 1014
f 1014 1006 994
f 1014 1003 1047
f 1057 1056 1054
f 1017 1021 1009
f 1022 1011 1007
f 1081 1058 1066
f 1025 1017 999
f 1214 1021 1017
f 1210 1208 1209
f 1011 1023 1019
f 1011 1022 1023
f 1031 1019 1016
f 1025 1026 1020
f 222 1211 1213
f 1214 1017 1015
f 1022 1021 1214
f 1022 1018 1023
f 1007 1021 1022
f 1053 1023 1018
f 1019 1023 1055
f 1031 1032 1024
f 1034 449 1206
f 1026 1025 999
f 1020 1211 1212
f 1047 1027 1026
f 1050 1028 1029
f 1003 1013 1048
f 1215 1060 1048
f 1020 1026 1028
f 1028 1026 1029
f 1026 1051 1029
f 1051 1027 1060
f 1053 1056 1030
f 1064 1057 1063
f 1032 1031 1016
f 1033 1031 1024
f 1035 1037 1039
f 1044 1045 1042
f 1033 1024 1034
f 1019 1033 1002
f 1024 451 1034
f 452 1034 451
f 1067 1035 1039
f 309 1068 687
f 1037 1043 1032
f 689 1159 1041
f 1039 1037 1016
f 1043 1037 1079
f 451 1036 1038
f 1043 1042 1036
f 1016 1019 1055
f 1039 1030 1067
f 1059 1069 1070
f 689 1038 1045
f 451 1038 1041
f 689 1041 1038
f 1043 1036 1032
f 1042 1040 1044
f 1079 1037 1035
f 1042 1043 1040
f 1044 1040 1069
f 1046 1045 1044
f 1042 1045 1038
f 1044 309 1046
f 1144 1046 309
f 689 1046 415
f 1014 1047 999
f 1048 1047 1003
f 987 1215 990
f 1060 1215 1049
f 1061 1071 1072
f 1051 1052 1029
f 219 220 1050
f 1028 1050 220
f 1026 1027 1051
f 1027 1048 1060
f 1060 1071 1052
f 219 1216 218
f 1018 1054 1056
f 1039 1053 1030
f 1208 1210 1015
f 224 1062 223
f 1023 1053 1055
f 1039 1055 1053
f 1018 1056 1053
f 1054 1062 1057
f 1063 1057 1062
f 225 226 1064
f 1065 1057 1064
f 1078 1081 1082
f 1070 1040 1079
f 1188 898 899
f 1071 1060 1049
f 1051 1060 1052
f 1072 1049 987
f 1200 991 933
f 1210 1209 1054
f 1063 1062 224
f 224 225 1063
f 1064 1063 225
f 1058 1065 1066
f 1065 1030 1056
f 1066 1065 1064
f 1067 1065 1058
f 1064 226 1066
f 1066 1082 1081
f 1065 1067 1030
f 1035 1067 1058
f 1069 1068 1044
f 687 1068 1059
f 1070 1069 1040
f 1068 1069 1059
f 1081 1083 1058
f 1059 1070 1080
f 1072 1071 1049
f 1073 1071 1061
f 1076 987 989
f 1076 1074 1075
f 217 1073 1061
f 1073 218 1216
f 1199 1198 1196
f 1075 1074 1077
f 1076 1075 1072
f 1074 1197 1077
f 1076 1072 987
f 1076 991 1200
f 217 1077 216
f 1061 1075 1077
f 1080 1084 1087
f 1035 1058 1083
f 1043 1079 1040
f 1085 1079 1035
f 1070 1079 1085
f 1070 1085 1088
f 1066 226 1082
f 1081 1078 1083
f 226 227 1082
f 1082 227 1089
f 1084 1083 1078
f 1080 1088 1084
f 1078 1086 1084
f 229 230 1092
f 1035 1083 1085
f 1088 1083 1084
f 1089 1086 1078
f 1094 229 1091
f 1084 1086 1087
f 1086 228 1094
f 1070 1088 1080
f 1083 1088 1085
f 1082 1089 1078
f 228 1089 227
f 899 1090 900
f 1090 898 1189
f 1090 1091 900
f 1094 1087 1086
f 1092 230 1093
f 900 1091 1092
f 230 231 1093
f 1093 231 1095
f 229 1094 228
f 1087 1094 1091
f 231 232 1095
f 1096 232 717
f 852 1095 1096
f 232 1096 1095
f 210 209 1097
f 53 1097 209
f 1099 1098 74
f 1102 1098 292
f 74 408 1099
f 408 395 1101
f 1100 1102 394
f 1103 1100 1217
f 292 1099 1101
f 408 1101 1099
f 394 1102 292
f 1103 1102 1100
f 1103 1217 1104
f 72 73 1105
f 1111 1220 1224
f 1219 72 1105
f 73 1103 1105
f 1219 1103 1104
f 1165 1235 1231
f 294 1115 1113
f 77 1107 76
f 1107 257 151
f 571 1108 263
f 439 1108 328
f 465 1109 271
f 435 1109 321
f 1110 291 1111
f 391 392 1110
f 1223 1111 1225
f 1229 1222 1223
f 1113 397 294
f 183 1112 402
f 1115 1116 1118
f 1115 1117 1113
f 1232 1120 1118
f 1123 1117 1114
f 1115 294 1116
f 1115 1114 1117
f 294 1121 1116
f 1116 1121 1122
f 1123 1114 1120
f 1112 1117 402
f 1106 1232 1118
f 1115 1118 1114
f 1165 1232 1233
f 1119 1163 1164
f 1164 1120 1119
f 1123 1120 545
f 681 1121 294
f 1122 1121 680
f 299 1156 680
f 1155 1122 1154
f 545 1126 1123
f 403 543 1125
f 1117 1123 1124
f 1123 1126 1125
f 296 1124 1125
f 1123 1125 1124
f 1126 545 1168
f 1125 1126 403
f 345 456 1127
f 573 1127 456
f 993 1128 463
f 1129 1128 447
f 448 1129 447
f 339 1129 342
f 631 1130 281
f 489 369 1130
f 890 1131 373
f 497 498 1131
f 506 1132 382
f 505 1132 502
f 165 507 1133
f 1134 507 508
f 1133 1134 369
f 812 1134 508
f 1136 1135 484
f 515 169 1135
f 364 1136 484
f 515 1136 516
f 95 96 1137
f 914 1137 96
f 1138 521 289
f 389 1138 385
f 1111 1139 391
f 1140 1139 390
f 1140 390 1217
f 394 523 1140
f 69 70 1141
f 1227 1141 70
f 1218 71 72
f 1143 1228 541
f 533 1143 399
f 1228 1143 534
f 1046 1144 415
f 686 1144 309
f 1145 235 264
f 716 1145 567
f 601 1146 352
f 722 1146 588
f 635 1147 491
f 812 1147 636
f 812 1148 370
f 1149 1148 508
f 508 382 1149
f 1149 382 1132
f 826 1150 663
f 541 1150 538
f 559 1151 548
f 1157 1151 423
f 1153 1152 222
f 675 1152 677
f 1154 1153 221
f 1152 1153 677
f 1155 221 220
f 1122 680 1156
f 1233 220 219
f 1155 1233 1234
f 1153 1156 677
f 1122 1156 1154
f 311 421 1158
f 674 1157 678
f 1158 225 224
f 311 1158 1157
f 1159 558 688
f 1041 1159 453
f 694 1160 216
f 1161 1160 696
f 696 1162 1161
f 1163 1165 1231
f 698 1162 696
f 1163 1162 699
f 1164 1163 699
f 1163 1119 1165
f 699 702 1166
f 1164 545 1120
f 1232 1165 1119
f 219 218 1235
f 1167 1166 701
f 1164 1166 1168
f 1167 701 1169
f 1168 1167 544
f 1168 544 403
f 1168 545 1164
f 1167 1169 62
f 702 1169 701
f 434 1170 315
f 843 1170 430
f 718 1171 570
f 866 1171 572
f 866 1172 721
f 36 721 1172
f 728 1173 103
f 1174 1173 726
f 726 731 1174
f 1175 1236 731
f 475 1236 357
f 879 1175 731
f 966 1176 609
f 611 1176 752
f 1179 1177 99
f 780 1177 1180
f 916 1178 780
f 98 1178 915
f 1180 881 785
f 1237 99 100
f 1177 1179 1180
f 881 1180 1179
f 653 1181 516
f 287 1181 818
f 1186 1182 707
f 710 1182 849
f 1184 1183 211
f 1186 1183 849
f 211 212 1184
f 1185 1184 212
f 213 1185 212
f 956 1201 1185
f 1182 1186 849
f 845 1186 707
f 683 1187 308
f 897 1187 684
f 687 1059 1188
f 1189 1059 1080
f 898 1188 1189
f 1059 1189 1188
f 902 1190 343
f 346 1190 904
f 904 1191 346
f 459 1191 905
f 837 1192 836
f 931 1192 838
f 939 1193 459
f 461 1193 940
f 665 1194 828
f 926 1194 638
f 1196 1195 214
f 956 1195 954
f 1197 1196 215
f 955 1198 957
f 216 1197 215
f 1198 1199 957
f 954 1196 1198
f 1199 1196 1197
f 1197 1074 1199
f 1074 1076 1200
f 957 1199 1200
f 1074 1200 1199
f 848 1201 847
f 1185 1201 849
f 952 1202 933
f 955 1202 953
f 968 1203 901
f 962 1203 960
f 1204 913 938
f 859 961 1204
f 971 1205 969
f 933 991 1205
f 1012 1206 997
f 1033 1206 1002
f 1005 1207 980
f 995 1207 1004
f 1208 223 1209
f 1015 1212 1211
f 223 1062 1209
f 1054 1209 1062
f 1054 1018 1210
f 1214 1210 1018
f 1213 1211 1020
f 222 1208 1211
f 1017 1212 1015
f 1020 1212 1025
f 1028 1213 1020
f 222 1213 221
f 1210 1214 1015
f 1022 1214 1018
f 990 1215 1048
f 987 1049 1215
f 1029 1216 219
f 1073 1216 1052
f 1140 1217 1100
f 1224 1217 390
f 1104 1224 1220
f 1221 1142 1227
f 1104 1218 1219
f 72 1219 1218
f 1220 1223 1222
f 1218 1222 1221
f 71 1218 1221
f 1222 1218 1220
f 1220 1111 1223
f 1142 1221 1222
f 1225 1111 291
f 1230 541 1228
f 1217 1224 1104
f 1111 1224 390
f 1226 291 666
f 667 1223 1225
f 663 1226 666
f 667 1225 1226
f 1227 70 71
f 1228 1227 1142
f 1229 1142 1222
f 1229 1223 1230
f 1230 1223 667
f 1142 1229 1228
f 541 1230 667
f 1228 1229 1230
f 217 1231 218
f 1231 1161 1162
f 1232 1119 1120
f 1234 1233 1106
f 220 1233 1155
f 1233 219 1235
f 1106 1122 1234
f 1155 1234 1122
f 1231 1235 218
f 1233 1235 1165
f 731 1236 1174
f 357 1236 1175
f 881 1237 357
f 99 1237 1179
