# D5 FEM result, run d5_3r_run2 call 220 (best valid D5 geometry)
# interior RMSE 6.1237 mm over 716 verts, max deviation 14.7036 mm
# crown 0.194466 m (target 0.197803 m)
v 0.60763139 -0.01585658 0.00000000
v 0.56069916 -0.23469938 0.00000000
v 0.57081350 -0.11803543 0.02796408
v 0.54276892 0.07277273 0.06478845
v 0.52813443 -0.03019701 0.07932971
v 0.52226718 -0.24394826 0.03357274
v 0.51861875 -0.10872108 0.07733338
v 0.47933227 0.17328788 0.09643424
v 0.49534137 0.06233069 0.10321208
v 0.47468028 -0.02731078 0.11765219
v 0.48627140 -0.31954916 0.02709701
v 0.47192906 0.30487269 0.05034416
v 0.45552562 -0.24022421 0.08632959
v 0.43201374 0.14654182 0.12986164
v 0.45018010 -0.32005154 0.05487130
v 0.41720343 -0.44205052 0.00000000
v 0.43580967 0.42371842 0.00000000
v 0.41865220 -0.24997035 0.10445532
v 0.38373277 -0.35333927 0.07793488
v 0.38890994 -0.44021821 0.02108042
v 0.38546607 0.10702790 0.15669126
v 0.38820062 -0.00651735 0.16091848
v 0.37320906 0.36105887 0.08198043
v 0.37399931 -0.41905643 0.04489239
v 0.36914708 -0.11669770 0.15782563
v 0.35229074 0.21504770 0.14806822
v 0.34137218 -0.26278904 0.13196046
v 0.34258569 -0.34898840 0.09773205
v 0.34974359 0.28980512 0.12550412
v 0.31936106 -0.41080298 0.07407843
v 0.30385813 0.03543428 0.18373059
v 0.33199623 -0.19010220 0.15430177
v 0.31307948 -0.03164863 0.18061774
v 0.32512197 0.13035622 0.17275058
v 0.29228652 -0.50902894 0.01916458
v 0.30547209 0.46954105 0.04572604
v 0.29462564 -0.10684377 0.17606586
v 0.29510618 0.25362838 0.15538847
v 0.30034504 -0.34211139 0.11313573
v 0.27286080 -0.27275337 0.14218055
v 0.28410803 -0.40973052 0.08519778
v 0.25102742 0.01240200 0.18985315
v 0.28255604 -0.47685459 0.04576079
v 0.28806559 0.35785218 0.11836664
v 0.25889841 0.08478491 0.18882802
v 0.25884864 -0.19904035 0.16220313
v 0.28500880 -0.06445926 0.18206952
v 0.24538473 -0.47508774 0.05712418
v 0.25721788 0.32807659 0.13936125
v 0.24203348 -0.16383947 0.16960527
v 0.24506297 -0.41140308 0.09173254
v 0.22164727 -0.35367771 0.11734233
v 0.23261209 -0.56156832 0.00000000
v 0.21588987 0.56820679 0.00000000
v 0.21951681 -0.31690097 0.12983715
v 0.23219256 -0.02026319 0.18866920
v 0.22067862 0.16172150 0.18648506
v 0.25584099 0.25945178 0.16234928
v 0.20726086 -0.47691445 0.06214038
v 0.20299045 0.44981343 0.09273255
v 0.19546592 -0.12325031 0.17249435
v 0.19862904 -0.24996857 0.14640211
v 0.20209683 -0.41273418 0.09381311
v 0.18920264 -0.54503382 0.02177243
v 0.20170672 0.22982264 0.17750647
v 0.17619258 0.09195353 0.19288088
v 0.17944077 0.39817997 0.12457691
v 0.19280288 -0.01712902 0.18753621
v 0.16899916 -0.48365080 0.06075300
v 0.18109368 -0.37534657 0.10697312
v 0.16480723 -0.22356401 0.14286846
v 0.19558579 0.36476596 0.13694593
v 0.18053096 0.15785075 0.18972563
v 0.15516432 -0.51966324 0.04178549
v 0.14646170 0.29651464 0.16660132
v 0.13439722 0.02254817 0.18633749
v 0.13187025 0.09633382 0.19221038
v 0.13510958 0.25409771 0.17772173
v 0.13004654 -0.49010775 0.05597314
v 0.10409823 -0.45630160 0.06476003
v 0.11591239 0.17795454 0.18977470
v 0.11429427 0.54143286 0.04631095
v 0.09092516 0.46132330 0.10129663
v 0.08999541 0.10160331 0.19126756
v 0.08286230 0.39790577 0.13319690
v 0.03349195 0.29190338 0.16954210
v 0.05204397 0.22976681 0.18271301
v 0.07830851 0.17015179 0.19056493
v 0.00000000 -0.60700101 0.00426415
v 0.00000000 0.15232795 0.19078821
v -0.01724871 0.24439844 0.17905857
v -0.00540439 0.28170974 0.17157831
v 0.01449746 0.35557102 0.15068211
v 0.01835777 0.39157714 0.13719688
v -0.00461224 0.52325049 0.06751104
v -0.00338819 0.45666283 0.10729979
v -0.04148512 -0.61245286 0.00000000
v -0.04116194 0.16429357 0.18883860
v -0.05167292 0.24087931 0.17969250
v -0.07450262 -0.51411599 0.04097396
v -0.07725770 0.30378610 0.16634071
v -0.05753641 0.33297347 0.15784654
v -0.09220180 0.42559376 0.12044143
v -0.08999541 0.10160331 0.19126756
v -0.11030722 0.46268566 0.09953609
v -0.09125597 0.54924016 0.04376027
v -0.12107443 0.17205847 0.19069797
v -0.12536530 -0.50301184 0.04897090
v -0.11819472 0.24987560 0.17938042
v -0.15255573 0.05694859 0.19224647
v -0.16195252 -0.55231734 0.02031913
v -0.14624003 -0.01104966 0.18270238
v -0.17588614 0.35631265 0.14443286
v -0.16626510 -0.21439822 0.14557216
v -0.20090368 -0.54082049 0.02243007
v -0.16607078 0.41447511 0.11953871
v -0.19936574 0.22705822 0.18014410
v -0.19899448 -0.24031627 0.14916443
v -0.19126259 0.47744952 0.07905959
v -0.19888273 -0.47379174 0.06375910
v -0.19030348 0.26553199 0.17229773
v -0.22608386 0.15127926 0.18920949
v -0.21832131 -0.04616941 0.18715723
v -0.19592991 -0.27883328 0.13869813
v -0.24124672 0.55791342 0.00000000
v -0.23261209 -0.56156832 0.00000000
v -0.21532923 -0.34558625 0.11993138
v -0.22930531 -0.40844430 0.09412480
v -0.24808191 0.32832230 0.14361883
v -0.24885231 -0.49723571 0.04189642
v -0.25197115 0.18236033 0.18214489
v -0.25665649 -0.09775466 0.18100574
v -0.26113126 -0.19740720 0.16277754
v -0.27655699 0.10835986 0.18700357
v -0.26923597 0.38908843 0.11088300
v -0.28757115 -0.49313036 0.03222239
v -0.26441824 0.00662862 0.19017264
v -0.26938399 -0.39934080 0.09279239
v -0.28331485 -0.27631180 0.13979052
v -0.31089001 0.23931765 0.15755040
v -0.31132065 -0.13307452 0.16991887
v -0.29275795 0.47091128 0.05160573
v -0.32188280 -0.48559253 0.02334400
v -0.32482874 0.16401609 0.16979255
v -0.31477702 -0.05723289 0.17909263
v -0.33431305 -0.21158618 0.14807319
v -0.31423513 0.05841548 0.18292352
v -0.33001649 -0.41998209 0.06335455
v -0.33455101 0.30138899 0.12880173
v -0.34515134 -0.31708207 0.10954162
v -0.34814674 -0.24897873 0.13342061
v -0.34469096 0.19026994 0.15848343
v -0.36834185 -0.09162424 0.16165086
v -0.38544186 0.34952710 0.08362206
v -0.36315935 0.01212260 0.17027892
v -0.38833984 -0.15040239 0.14461941
v -0.39149752 0.08750772 0.15745592
v -0.38393742 -0.43920680 0.02439022
v -0.36872607 -0.34718773 0.08659135
v -0.40238001 -0.21702419 0.12194049
v -0.42893589 -0.05449561 0.14087039
v -0.42708814 0.43250787 0.00000000
v -0.42050749 -0.43890867 0.00000000
v -0.43114858 0.01729067 0.14271992
v -0.44497027 0.12679240 0.12709894
v -0.45648993 -0.16667947 0.10708612
v -0.46074295 -0.23625991 0.08309445
v -0.47479527 0.30259302 0.05189940
v -0.46614383 -0.35051607 0.02505954
v -0.46573646 -0.05499779 0.12067293
v -0.48180081 0.05748173 0.11212318
v -0.47085806 0.19800849 0.09585536
v -0.48361242 -0.13824353 0.09624820
v -0.53191888 -0.04341111 0.07380866
v -0.55546394 0.09796803 0.04815542
v -0.54489810 -0.10648644 0.05419987
v -0.56033170 -0.23557536 0.00000000
v -0.60783815 0.00039636 0.00000000
v -0.59632093 -0.11776543 0.00000000
v 0.59004068 -0.14601137 0.00000000
v -0.51481909 0.32315424 0.00000000
v 0.48898762 0.36105189 0.00000000
v -0.36590597 -0.48536602 0.00000000
v 0.35627878 -0.49247620 0.00000000
v -0.12082618 0.59570831 0.00000000
v -0.50879548 -0.15408472 0.07404735
v -0.44520568 0.26077878 0.09129935
v 0.47635362 -0.16141140 0.09676685
v 0.39005678 0.21632123 0.13275084
v -0.37448925 0.19834104 0.14587264
v -0.42429741 -0.15780446 0.12696637
v 0.33115054 0.17468175 0.16415309
v -0.09310413 0.38400355 0.13894147
v 0.36988335 -0.18725649 0.14384287
v -0.32421996 -0.17172497 0.15991386
v 0.08498358 0.33687129 0.15650278
v 0.29572589 -0.19661075 0.15969493
v -0.29760566 -0.20616351 0.15705188
v -0.25309942 0.07548656 0.19165655
v 0.06290289 0.26600632 0.17602423
v -0.22127852 -0.08880730 0.18180430
v 0.22290730 -0.09397830 0.18024522
v -0.13779458 -0.36111987 0.10012960
v 0.15777838 0.12583157 0.19232767
v -0.16611786 -0.17543660 0.15405481
v 0.16592947 -0.14503296 0.16063935
v -0.11026256 0.06551871 0.18901724
v 0.11130672 0.06365963 0.18890131
v 0.14352571 0.41205449 0.12240908
v -0.16837982 0.01825694 0.19013303
v -0.15761400 0.23822596 0.18110709
v -0.12060267 -0.53559179 0.03301603
v 0.08484328 0.60188782 0.00000000
v 0.59559309 0.12139286 0.00000000
v -0.50067735 -0.34465858 0.00000000
v 0.49678737 -0.35024232 0.00000000
v -0.35689431 0.49203029 0.00000000
v -0.11670338 -0.59242719 0.00000000
v 0.13167903 -0.58844018 0.00000000
v 0.33886596 0.47260317 0.02673154
v -0.06091733 -0.58181520 0.01227441
v 0.49407808 -0.08498675 0.09948795
v -0.18729843 -0.31876936 0.12575340
v 0.47810017 0.23884545 0.07648124
v -0.52025186 -0.18744370 0.05572947
v -0.18975074 -0.06832271 0.18147469
v -0.49691513 0.09517342 0.09818195
v 0.47390289 -0.29337992 0.05051874
v 0.42316041 0.28403882 0.09195641
v -0.41559631 0.28766319 0.09733246
v 0.22713063 -0.50215077 0.04403446
v 0.23481171 0.42456050 0.09949450
v -0.24686411 0.42155141 0.09964270
v 0.06242656 -0.53622925 0.03191833
v -0.44963234 -0.32707013 0.05065926
v 0.44235197 0.07793624 0.13405937
v 0.36461560 -0.28696460 0.11534280
v -0.13099036 0.35866514 0.14745201
v 0.39976462 -0.11976112 0.14596289
v -0.37576958 0.04933265 0.16569026
v 0.03256690 0.13397208 0.19096167
v 0.06666632 0.43164919 0.11821112
v -0.31531149 0.20164757 0.16529782
v 0.35901865 -0.45700942 0.02660132
v -0.35720302 -0.47196844 0.01547497
v -0.48368607 -0.09408003 0.10451471
v -0.28533202 -0.36121780 0.10722254
v -0.36996972 -0.21556417 0.13581310
v 0.12932220 0.33659815 0.15494361
v 0.29046016 0.00557430 0.18570600
v 0.27425850 0.29070285 0.14884059
v -0.26063480 -0.30100946 0.13394030
v 0.25856926 -0.33358092 0.12318105
v -0.25473455 -0.03135531 0.18845091
v -0.38573422 -0.11822969 0.15144384
v -0.19809714 -0.19855845 0.15859024
v -0.20562830 -0.50471416 0.04557777
v 0.26467655 -0.44378126 0.07121304
v 0.29411212 0.18636514 0.17120808
v -0.03383162 0.30836989 0.16486565
v -0.12154854 0.13099758 0.19289331
v -0.16539406 0.19472312 0.18824072
v 0.19334633 0.19347096 0.18466039
v 0.10442147 0.27793006 0.17327735
v 0.30769655 -0.15162944 0.16717230
v 0.11288190 -0.52805306 0.03734892
v -0.28788048 -0.16724678 0.16700054
v 0.08428581 0.20535946 0.18705478
v -0.48385003 0.32720201 0.03043078
v 0.16253315 -0.41339661 0.09057990
v -0.24388702 -0.37221017 0.10872232
v -0.08166471 0.22470004 0.18328058
v -0.22191198 0.29496970 0.15992211
v -0.03728024 0.20594531 0.18463719
v 0.33736593 0.50562000 0.00000000
v -0.32967772 0.44697029 0.05176076
v -0.56106267 0.02645113 0.04946561
v 0.55545429 0.17616702 0.03125655
v 0.57800520 -0.07529046 0.02784148
v 0.05818525 0.57485963 0.02632865
v 0.34414734 0.40031245 0.07402145
v 0.54594027 -0.20322356 0.02804551
v 0.49278297 0.26723747 0.05385093
v -0.16045915 -0.25090089 0.13480468
v -0.29495218 -0.53147960 0.00000000
v 0.26347902 -0.54776472 0.00000000
v -0.46900914 -0.29150435 0.05434704
v 0.37701687 -0.04627231 0.16302465
v 0.27160585 0.46581468 0.06240762
v -0.09443335 -0.47518173 0.05699234
v 0.40102105 -0.28571391 0.09996814
v 0.46111026 -0.09702310 0.11900801
v -0.15518892 -0.05110410 0.17723590
v -0.25007741 0.36349365 0.12819373
v -0.38822621 -0.31136640 0.09425630
v 0.42664765 0.21512722 0.11558286
v -0.51301937 -0.11828068 0.07882281
v 0.37091115 0.25285925 0.12955593
v -0.39062848 -0.37585311 0.06089843
v 0.35371919 -0.38956330 0.07288557
v -0.33371158 -0.01425134 0.17804615
v 0.24105946 0.36183909 0.12919929
v 0.33063388 -0.30689232 0.11957026
v -0.04730481 0.12566528 0.19104017
v -0.37427507 0.12332618 0.16012194
v -0.34558194 0.22422161 0.15000694
v 0.04342809 0.46045319 0.10428721
v 0.39411421 -0.21891689 0.12613463
v 0.05672474 0.36786591 0.14605539
v 0.32773704 0.08882468 0.17644554
v -0.30812127 -0.45685294 0.04909480
v -0.23058621 -0.13224576 0.17567728
v -0.22618127 -0.00651192 0.19110991
v -0.41889034 -0.12207202 0.13672698
v 0.23652497 0.23383970 0.17210052
v -0.24200694 0.22044838 0.17647944
v 0.19421796 -0.51152299 0.04333834
v 0.24066419 -0.25907413 0.14763615
v -0.26915667 -0.23729218 0.15253986
v -0.04441818 0.27457703 0.17311305
v 0.27100335 0.04433338 0.18849579
v 0.26501775 -0.37343827 0.10653636
v 0.19065255 -0.08452293 0.17822981
v -0.18389336 0.29861567 0.16363232
v -0.09049316 -0.56088871 0.02032959
v 0.23448558 0.29620029 0.15541703
v -0.35137815 -0.13496164 0.16031239
v 0.10369445 0.36691230 0.14505848
v -0.00019851 0.18070001 0.18823639
v -0.17663364 0.08665909 0.19446602
v -0.15211249 -0.42977261 0.08252173
v 0.27605204 -0.16851314 0.16758156
v 0.20226413 0.12557250 0.19113272
v 0.46641175 0.04716467 0.12279367
v -0.17651281 -0.35538112 0.11248296
v 0.20190598 -0.16383079 0.16610523
v -0.19767864 -0.15533160 0.16750258
v -0.08814341 0.51926001 0.06599184
v 0.11929929 -0.41867033 0.07921768
v -0.37732841 0.28258562 0.11840257
v 0.19702782 0.51591804 0.04985656
v -0.52435429 0.17225738 0.06114602
v 0.08500013 0.51866040 0.06607574
v -0.58131793 -0.05294224 0.02600923
v -0.28484098 0.50450555 0.02882075
v -0.45027149 0.33201794 0.05427645
v 0.55673133 0.03182435 0.05488817
v -0.41206919 -0.01979270 0.15098536
v 0.43122475 -0.21199456 0.11010332
v 0.04220190 0.60637146 0.00000000
v 0.57708573 -0.19089116 0.00000000
v 0.58584660 0.16202202 0.00000000
v -0.54225647 -0.27463669 0.00000000
v -0.39251760 -0.46410912 0.00000000
v 0.38650444 -0.46912864 0.00000000
v -0.33118381 0.40827083 0.07684696
v -0.04344303 0.47249538 0.09791307
v -0.09330752 0.57393898 0.02348105
v 0.18062642 -0.57540870 0.00000000
v 0.42368908 0.00118190 0.14627828
v 0.50719363 -0.28393686 0.02790453
v -0.40919879 0.20561427 0.12898675
v 0.39729108 0.14508033 0.14624101
v 0.39677667 -0.38490734 0.05347334
v -0.26251875 0.28879489 0.15466853
v -0.45838930 -0.20468909 0.09531180
v -0.53067543 0.02539652 0.07690096
v -0.35006315 -0.38342382 0.07593204
v -0.02452578 -0.57919663 0.01512876
v -0.32484479 -0.28327314 0.12877420
v 0.18754196 -0.29115757 0.13331248
v 0.46241636 0.00738184 0.12623101
v -0.05729782 0.36622663 0.14665357
v -0.31418151 0.09837662 0.18062072
v -0.39533067 -0.18526225 0.13382842
v 0.17472274 0.26253658 0.17306104
v -0.27062645 -0.46391625 0.05707613
v 0.31397880 0.21653647 0.16000583
v 0.21928346 0.09119918 0.19181379
v 0.36892445 0.41885008 0.04888604
v -0.19297338 0.38806857 0.12837371
v 0.40733829 0.25113132 0.11349706
v 0.35554392 -0.22408732 0.13916958
v 0.23231573 -0.22558120 0.15595572
v -0.23144918 -0.22179917 0.15724196
v -0.08079478 0.26331482 0.17605523
v -0.37826185 0.23882921 0.13316971
v -0.28032431 0.21199692 0.17170646
v 0.29129145 0.14966978 0.17791812
v -0.08420278 0.14519861 0.19138590
v 0.22502213 -0.44443309 0.07762587
v 0.27567051 -0.23585934 0.15256771
v 0.17092214 0.33355333 0.15245038
v 0.11336680 0.13600301 0.19211029
v -0.16673497 -0.48946890 0.05702885
v 0.29672866 0.07031388 0.18408762
v -0.34013673 0.03456445 0.17719644
v 0.22041861 0.39298749 0.11942975
v 0.02239532 0.25452095 0.17766071
v -0.55495954 -0.17163465 0.02942400
v -0.21378399 -0.44296560 0.07879051
v -0.20177118 0.11821893 0.19344049
v 0.23215784 0.20030126 0.17952299
v 0.42807341 -0.10728063 0.13530425
v -0.45349309 -0.12720710 0.11755819
v 0.22993719 -0.13060854 0.17504095
v 0.13197607 -0.37922490 0.09355084
v -0.24544429 -0.06529666 0.18525963
v 0.12444911 0.21562441 0.18509380
v -0.16586216 -0.13417043 0.16299185
v 0.18175633 -0.04698249 0.18247789
v 0.15316725 0.05850923 0.19136321
v -0.46377155 0.09232252 0.12062537
v -0.26237028 -0.52403260 0.01867613
v -0.11288223 -0.43863779 0.07196216
v 0.04852406 -0.61057889 0.00000000
v 0.49025305 0.13486058 0.09742502
v -0.45420437 0.36248113 0.03245181
v 0.54119348 0.21803111 0.03136303
v 0.02776050 0.55008164 0.04771946
v 0.16391079 0.49920332 0.06895006
v -0.51544966 -0.01175742 0.08902980
v 0.60516715 -0.05692155 0.00000000
v -0.58628982 0.16041063 0.00000000
v 0.52089852 -0.31326044 0.00000000
v 0.49846673 -0.18605779 0.07427452
v -0.26216630 0.45296147 0.07592541
v -0.53237514 -0.24699686 0.02220280
v -0.32158924 0.34127331 0.11667568
v -0.44113682 0.19135137 0.11582139
v 0.39710756 0.03388175 0.15745919
v -0.39041465 -0.05518336 0.15766969
v -0.13627193 0.43755685 0.11101854
v 0.27063334 0.42918327 0.08618359
v -0.04635700 0.43797912 0.11608605
v -0.39339744 0.16342498 0.14586927
v 0.41055670 -0.41268892 0.02688425
v -0.41191242 -0.40408903 0.03149602
v 0.43686249 0.31484097 0.06926859
v -0.42872120 0.09006707 0.14033339
v -0.35885256 0.45673252 0.02843923
v 0.30329608 0.50020711 0.02293289
v -0.26415190 0.14458056 0.18549516
v 0.04446149 0.32964035 0.15911903
v 0.42108069 0.11068233 0.14105395
v -0.52753627 0.09755266 0.07371195
v 0.34792883 -0.15252048 0.15807133
v 0.34392433 -0.05029781 0.17244336
v 0.52542242 -0.06963443 0.07779706
v 0.06249011 0.49055517 0.08604313
v 0.36151071 0.32660584 0.10496988
v 0.24894693 0.12801510 0.18714404
v -0.07973222 0.18709609 0.18817784
v -0.30435814 0.01665032 0.18510176
v 0.25812512 -0.09735543 0.18024173
v -0.20242611 0.32754385 0.15182180
v 0.21802089 -0.28220916 0.13994856
v 0.27148022 0.21778060 0.16967060
v -0.29896403 -0.31924336 0.12185538
v -0.13887335 -0.46628842 0.06631137
v 0.56040268 -0.16069084 0.02790130
v -0.23934816 0.11296382 0.19127977
v -0.53617587 -0.14541241 0.05374168
v -0.27803398 -0.06172655 0.18388528
v -0.16268328 0.12305594 0.19398793
v 0.30255251 -0.44402494 0.06030060
v 0.31732228 -0.23017760 0.14768147
v 0.14983560 0.37165853 0.14009941
v 0.40727924 -0.18255190 0.13003211
v -0.34579581 -0.44801210 0.03844689
v 0.22511578 -0.19178034 0.16290180
v -0.23695344 -0.26627830 0.14596720
v 0.48215015 0.33042669 0.02812299
v 0.15860219 -0.26257581 0.13136084
v 0.17173527 0.02041718 0.18956573
v -0.19555041 -0.11286938 0.17506494
v -0.20164885 0.01480858 0.19198750
v 0.45311499 -0.13507686 0.11704986
v -0.47772311 0.27031541 0.06522956
v -0.19651574 -0.57117844 0.00000000
v -0.21633582 0.07929162 0.19404965
v 0.58143706 0.00694767 0.03012768
v -0.39540474 0.39988582 0.04704856
v -0.03797936 0.60665059 0.00000000
v -0.60335088 0.07372291 0.00000000
v -0.53711790 0.28455535 0.00000000
v 0.53693402 0.28490213 0.00000000
v 0.37230456 0.48047546 0.00000000
v -0.13281932 0.53141441 0.05188180
v -0.55283525 -0.06991413 0.05241389
v 0.52734257 0.00878715 0.08117269
v 0.41285525 0.35413724 0.06307468
v 0.51143079 0.15928137 0.07661540
v 0.23534253 0.49459389 0.05462086
v -0.50735977 -0.27727240 0.03054497
v -0.20606537 0.41983950 0.11022449
v 0.04240235 0.52073374 0.06786258
v -0.56803048 0.13106337 0.02871327
v -0.41231300 0.05277055 0.15080585
v -0.44730537 0.29672948 0.07450942
v 0.14497000 0.56091565 0.02578246
v -0.12836264 0.56351664 0.02709973
v -0.01365219 0.41728434 0.12636263
v 0.54952701 -0.09277476 0.05346516
v 0.36075717 0.14253091 0.16043804
v 0.16724373 0.46681489 0.08932566
v -0.35151698 -0.05556759 0.17062081
v 0.38003826 -0.25446336 0.12095347
v 0.46158746 -0.35155132 0.02880323
v 0.44302930 0.24677229 0.09568343
v -0.48697086 -0.17841025 0.08391513
v 0.36763962 0.06819893 0.16666915
v -0.35955721 0.32603331 0.10786485
v -0.46022274 0.16189078 0.11165542
v -0.12533452 -0.39989093 0.08604149
v 0.39707497 -0.08191744 0.15258755
v 0.32020627 -0.07581563 0.17563248
v 0.21166794 0.01846008 0.19108240
v -0.14864636 0.28231218 0.17128227
v 0.49106273 -0.22543581 0.06671500
v 0.16617236 -0.18423098 0.15215020
v -0.28710732 0.07666124 0.18711758
v 0.21497143 0.26474471 0.16776192
v -0.42862670 -0.19500647 0.11542380
v 0.29149700 0.32003602 0.13338625
v -0.05463653 0.40275713 0.13219815
v -0.25615999 -0.33526817 0.12222636
v 0.24783684 -0.06001759 0.18490016
v 0.25930803 0.17293895 0.18012109
v -0.25474783 -0.16100658 0.17048338
v -0.21169329 0.18969019 0.18542783
v -0.51390612 0.06009844 0.08879664
v -0.38742484 -0.24783694 0.11907443
v 0.04250024 0.19463217 0.18727403
v 0.21484740 0.33108819 0.14690687
v 0.37256918 -0.31858851 0.09948434
v -0.29472013 -0.09638796 0.17798152
v 0.10886244 0.30990000 0.16437222
v -0.35984446 0.16007896 0.15944932
v -0.23345014 0.03761574 0.19316303
v -0.15236301 0.15662789 0.19226091
v -0.15885948 0.32417992 0.15795080
v 0.53039545 -0.17260407 0.05239004
v 0.28851052 -0.30554715 0.12949662
v 0.14407380 0.15652839 0.19091220
v 0.32691711 -0.51243782 0.00000000
v -0.18967455 -0.41819142 0.09076771
v 0.33390329 0.25251510 0.14397578
v -0.16356487 -0.52130549 0.03956955
v 0.14603658 -0.45320410 0.07318129
v -0.30418530 0.27779316 0.14815853
v 0.46811925 -0.06059377 0.11930785
v -0.16469385 -0.09364735 0.17142977
v 0.09085643 -0.59930855 0.00000000
v -0.44621041 -0.26759976 0.08053711
v -0.37019428 -0.41200409 0.04998542
v -0.21063919 0.50743932 0.05347837
v 0.60284495 0.07775159 0.00000000
v -0.48933694 0.36057833 0.00000000
v 0.46077695 0.39642397 0.00000000
v -0.57942429 -0.01099483 0.03108876
v -0.52883934 0.25231576 0.02655567
v -0.44849956 -0.01837881 0.13299218
v -0.33888002 0.12625015 0.17138802
v -0.34674696 0.36683471 0.09338212
v 0.52531010 0.25618100 0.03064020
v 0.51750249 0.08035671 0.08513398
v 0.33229224 0.36324250 0.09977861
v -0.01830170 0.58237842 0.02230801
v -0.36290469 0.42234652 0.05137353
v 0.09973678 0.56993601 0.02577247
v -0.57890153 0.09731530 0.02389265
v -0.21966812 0.44965447 0.09020652
v 0.48309580 -0.26164119 0.05822219
v -0.57499286 -0.09247235 0.02748311
v 0.49876750 -0.00969895 0.10257257
v 0.13028297 0.47993475 0.08650583
v 0.51846777 -0.20789461 0.05089610
v 0.43349172 0.03938861 0.14106080
v -0.51115343 0.13319880 0.08141430
v 0.46167258 0.14943408 0.11278469
v 0.32723346 0.00940013 0.17912647
v 0.58132661 -0.03316485 0.02864652
v 0.02092871 0.49085263 0.08774352
v 0.23765172 0.45914591 0.07806656
v 0.27094340 -0.02566095 0.18654406
v -0.42766784 -0.23642630 0.10325565
v 0.10556663 0.42633736 0.11865930
v -0.23236112 -0.47074723 0.06161914
v -0.28948273 0.17378317 0.17690364
v -0.27230137 -0.13095358 0.17521070
v -0.48763984 -0.31605829 0.02721073
v 0.18527802 -0.33178665 0.12145405
v -0.42591085 0.16274518 0.13078328
v -0.12742808 0.40123823 0.12974413
v -0.41976458 0.32572592 0.07675064
v -0.32650663 -0.35306512 0.09990723
v 0.22280794 -0.38489660 0.10512135
v -0.28757886 0.41605767 0.08997727
v 0.00538021 0.31855371 0.16223782
v -0.10978192 0.28390681 0.17153576
v 0.18744860 0.54882224 0.02616117
v -0.34362342 0.26246968 0.13928350
v 0.18472595 -0.44729394 0.07832207
v 0.21275950 -0.05502644 0.18466681
v 0.37031242 0.44786502 0.02747200
v 0.15468671 0.18810305 0.18771086
v -0.01951489 0.38025542 0.14171349
v 0.16380021 0.22443880 0.18187078
v 0.25026164 -0.29678936 0.13632806
v 0.41108633 -0.03929385 0.15044367
v 0.22790153 -0.53366382 0.02280869
v 0.10123982 -0.56237379 0.02005923
v -0.18767831 0.15690216 0.19125624
v 0.44282834 -0.17375800 0.11420940
v -0.40964764 -0.33852684 0.07033818
v -0.19892329 0.57436651 0.00000000
v -0.57496589 -0.19718409 0.00000000
v 0.44501001 -0.41404521 0.00000000
v -0.44730964 -0.41155976 0.00000000
v -0.31854054 0.51768649 0.00000000
v -0.19218602 0.04944832 0.19375773
v -0.33206256 -0.09565392 0.17125618
v 0.38677978 0.28813089 0.10947392
v -0.20337881 -0.38223002 0.10587657
v -0.44495987 -0.09003969 0.12854763
v 0.14785300 -0.01826917 0.18171708
v -0.23192182 0.25793656 0.16910256
v -0.39299428 0.46370557 0.00000000
v -0.15007422 0.47168565 0.08981196
v -0.54722830 -0.00762162 0.06241237
v -0.50300708 0.20521528 0.06969706
v -0.24633209 0.52400897 0.02855734
v 0.07109041 0.54694657 0.04712857
v -0.37290841 0.38595156 0.06944308
v 0.23074663 0.53013502 0.02861953
v 0.54157274 0.14617137 0.05372038
v 0.45888511 0.11461507 0.12072908
v 0.55451485 -0.05182084 0.05412502
v -0.46574970 0.01952304 0.12364364
v -0.40994099 0.12561293 0.14505600
v -0.15748976 0.38350736 0.13498719
v -0.54077747 0.13521107 0.05515916
v -0.54276692 -0.21052515 0.02782101
v -0.29311117 -0.02310584 0.18530386
v 0.12582682 0.51183908 0.06614221
v -0.30829999 0.38029823 0.10235559
v -0.01450600 0.49046330 0.08812229
v 0.49613230 0.20020809 0.07703885
v -0.30958428 -0.39082091 0.08680678
v 0.04974989 0.40292230 0.13196170
v 0.42409294 -0.35225249 0.05542872
v -0.52047698 -0.08103823 0.07911702
v 0.49573241 0.02598062 0.10476589
v 0.31280993 0.28843889 0.13898946
v -0.02365909 0.34415245 0.15440109
v 0.39962156 0.32250268 0.08746715
v -0.39217322 0.31399787 0.09782484
v 0.40742347 0.07260173 0.15121151
v 0.45833606 0.27669368 0.07383143
v 0.35375872 0.10673453 0.16743995
v 0.19714525 -0.20730592 0.15591625
v -0.47919761 0.12935824 0.10565438
v -0.48905010 -0.21505894 0.07091682
v 0.38492464 -0.15200586 0.14607177
v -0.12006327 0.31727893 0.16213615
v 0.00110758 0.60783726 0.00000000
v 0.13010299 0.59375125 0.00000000
v -0.15830503 0.58686191 0.00000000
v -0.58688796 -0.15820837 0.00000000
v 0.55528694 0.24723220 0.00000000
v 0.47138885 -0.38374460 0.00000000
v 0.19374272 0.05619606 0.19246991
v 0.03590695 0.16191318 0.18994711
v -0.44187328 0.22462520 0.10599390
v 0.16567706 -0.10429711 0.16946155
v 0.43442915 -0.06958613 0.13708430
v -0.23081611 -0.52818855 0.02531503
v -0.13353231 0.09454406 0.19314727
v -0.30184048 0.13610659 0.17957522
v 0.31147059 -0.37852922 0.09382142
v 0.33899681 -0.43408401 0.05256293
v -0.12161535 0.21075272 0.18622480
v 0.41046960 0.18115849 0.13284653
v -0.40813850 -0.27545769 0.09928639
v -0.17594090 0.52778033 0.04626600
v 0.40175522 0.41777945 0.02943484
v -0.39595079 0.01516927 0.15854857
v -0.16348176 0.50318169 0.06706148
v -0.32412216 0.48112019 0.02866037
v 0.15639485 0.53113833 0.04729335
v -0.55959111 -0.03644791 0.04926121
v 0.55546309 -0.01052256 0.05603472
v -0.50503313 0.28644953 0.03387409
v -0.04684101 0.50678091 0.07709639
v -0.23043591 0.39163112 0.11950066
v -0.55314686 0.17082132 0.03350395
v -0.20784635 0.54022386 0.02792800
v 0.52390541 0.11512447 0.07557416
v 0.54240674 -0.27433974 0.00000000
v 0.49968615 -0.04770420 0.09972383
v 0.46208323 0.21009005 0.09696951
v -0.29256550 0.31612343 0.13745594
v -0.40715798 -0.08789202 0.14731085
v 0.30207476 0.39621987 0.09401934
v 0.11814949 0.39440256 0.13270152
v -0.44777714 0.05496681 0.13291782
v 0.26861718 -0.13474109 0.17428882
v -0.13234565 0.02620089 0.18656528
v -0.30925566 -0.24517359 0.14464620
v -0.25203164 -0.43563004 0.07760371
v 0.47108653 0.08114016 0.11730673
v 0.00369471 -0.61840785 0.00000000
v -0.29084958 -0.42790859 0.07250753
v 0.41336930 -0.31880503 0.07898878
v 0.55552350 0.10492576 0.04866252
v 0.09856326 0.49218160 0.08212730
v 0.02538815 0.42845325 0.12094755
v 0.13371306 0.44780446 0.10489563
v 0.43586102 -0.38268540 0.02913643
v -0.57166253 0.06344481 0.03652364
v -0.51274356 -0.23234541 0.04582127
v -0.49899934 0.02245398 0.10162929
v 0.14399774 -0.34181795 0.10714328
v -0.14774682 -0.33015218 0.11138223
v 0.09398026 0.24162539 0.18129285
v -0.07523251 0.45646141 0.10536184
v -0.18600678 -0.02245605 0.18749883
v 0.54117986 -0.13332526 0.05319212
v 0.17722945 0.58142674 0.00000000
v -0.07761306 0.60286283 0.00000000
v -0.60680664 -0.03539819 0.00000000
v 0.59932864 -0.10135340 0.00000000
v 0.60727406 0.02618292 0.00000000
v -0.52306062 -0.30963674 0.00000000
v -0.45731241 0.40041569 0.00000000
v 0.29883647 0.52930534 0.00000000
v -0.27730468 0.54089689 0.00000000
v 0.50925955 -0.14750849 0.07650235
v 0.32274493 -0.47635156 0.03087694
v 0.23392465 0.05260045 0.19154721
v 0.50451996 0.29421459 0.03115780
v 0.08436613 -0.49484783 0.04890129
v -0.36692958 -0.28211043 0.11536036
v 0.46606095 -0.20075740 0.09267626
v 0.44517998 -0.03061528 0.13455385
v -0.27306373 0.25035209 0.16399737
v 0.30560188 -0.26950723 0.13853737
v 0.35750719 -0.08194469 0.16600387
v -0.56653748 -0.13178260 0.02846415
v -0.42879350 -0.36351816 0.04508651
v 0.00909110 0.21733373 0.18376231
v 0.19167426 0.29825884 0.16147381
v -0.25486769 0.49065674 0.05191718
v -0.41645417 0.36515293 0.05631972
v 0.30627332 0.43340216 0.07017585
v -0.47542875 0.23409485 0.08121285
v -0.09131206 0.34428794 0.15386728
v -0.53505257 0.21313779 0.03776194
v 0.42010424 -0.14602591 0.13223019
v 0.20178188 0.48253010 0.07242487
v -0.59611666 0.11879523 0.00000000
v 0.40566403 0.45266327 0.00000000
v -0.41080616 0.25037263 0.11431219
v -0.58660931 0.02913186 0.02327539
v 0.32359281 0.32638755 0.12039470
v -0.49981325 -0.05134285 0.09830324
v -0.54408536 0.06173644 0.06324195
v 0.44243132 -0.28185570 0.07823873
v -0.21687957 0.35858080 0.13733242
v -0.12154732 0.49743424 0.07712064
v 0.51151432 0.22866175 0.05496730
v -0.01455805 0.55639431 0.04343168
v 0.07219792 0.30195363 0.16722300
v 0.52767038 0.18826625 0.05502408
v 0.17049879 0.43365818 0.10788852
v -0.37399449 -0.02082170 0.16587882
v 0.49380335 0.10012827 0.10042382
v -0.35090467 0.08272631 0.17226608
v 0.52396731 0.04559260 0.08290470
v 0.38909349 0.38947721 0.05647233
v 0.33189290 -0.11524631 0.16832670
v 0.26161247 0.39337195 0.10885409
v -0.28296060 0.35298038 0.12449978
v -0.17551610 -0.45378285 0.07451953
v -0.15420762 -0.29020500 0.12321084
v 0.15234855 -0.30189320 0.11976308
v -0.35966119 -0.17794639 0.14893122
v -0.60300517 -0.07649910 0.00000000
v -0.47540072 -0.37876314 0.00000000
v 0.51377952 0.32480448 0.00000000
v -0.33776820 -0.50535136 0.00000000
v -0.55705661 0.24321865 0.00000000
v 0.25593263 0.55133098 0.00000000
v 0.37304698 0.17973502 0.14897588
v -0.48269099 -0.25491555 0.06044918
v 0.01626197 0.57847357 0.02569221
v -0.39412481 0.42894956 0.02720870
v -0.42467170 0.39787168 0.02867945
v 0.06813912 -0.57437966 0.01515637
v 0.56897302 0.13414292 0.02871473
v -0.08152705 0.48737003 0.08723703
v 0.14269950 -0.55417123 0.02176247
v 0.29008287 0.10967775 0.18262708
v -0.16559109 -0.39148439 0.09851546
v -0.22450887 -0.30731133 0.13314667
v 0.15785897 -0.06305498 0.17560489
v -0.30106350 0.43916747 0.07012267
v -0.08244728 -0.60154736 0.00000000
v 0.20198060 0.42018260 0.10943897
v -0.27534573 0.04370828 0.18971387
v -0.44531243 -0.38172906 0.02185187
v 0.44533660 0.18057897 0.11517212
v 0.48611476 -0.12279834 0.09870633
v -0.49279037 0.16696932 0.08845785
v -0.22838693 0.47667718 0.07032052
v -0.50607356 0.24359124 0.05290065
v -0.16524274 0.55409241 0.02757538
v -0.05330117 -0.54657453 0.02787590
v -0.48287673 -0.01608388 0.11230429
v 0.07441545 0.13736979 0.19181957
v -0.17799682 0.44624679 0.10072034
v -0.60688978 0.03394369 0.00000000
v -0.57195485 0.20575470 0.00000000
v 0.44847667 0.34340472 0.04539412
v 0.03320434 -0.56935787 0.01897325
v 0.33273975 0.04989376 0.17746108
v -0.22734417 -0.17817864 0.16665072
v 0.33854994 0.44050095 0.05062290
v 0.45961915 0.36286081 0.02471329
v -0.15553673 -0.58208841 0.00000000
v -0.04953238 0.53809593 0.05562570
v -0.42915360 -0.30266476 0.07604490
v -0.05490826 0.57032543 0.03055095
v 0.36206168 0.02411351 0.16994774
v 0.57107329 0.20818903 0.00000000
v 0.58082896 0.09239132 0.02414228
v 0.35247806 -0.01630721 0.17217714
v 0.26883451 0.49931896 0.03901518
v 0.25816328 -0.50880158 0.03158334
v 0.56702039 0.06696812 0.04209789
v 0.29640168 -0.53067261 0.00000000
v -0.12733764 -0.56498815 0.01570390
v 0.42836924 0.38492781 0.03382390
v 0.27102342 0.52245446 0.01914960
v 0.58346122 0.04818938 0.02648476
v 0.06820389 0.11388580 0.19115150
f 111 843 212
f 369 97 89
f 325 809 221
f 89 713 416
f 438 620 163
f 556 438 158
f 616 235 751
f 592 215 169
f 644 618 177
f 400 670 618
f 490 692 344
f 561 765 178
f 422 367 631
f 446 227 580
f 817 694 562
f 500 596 346
f 441 798 570
f 565 635 154
f 696 135 294
f 142 754 345
f 502 358 185
f 489 502 818
f 420 773 95
f 803 359 64
f 20 355 16
f 244 184 355
f 740 546 184
f 700 361 425
f 11 15 509
f 437 619 720
f 693 583 482
f 278 801 352
f 778 699 417
f 583 639 279
f 844 560 17
f 439 657 229
f 493 649 8
f 585 761 60
f 585 434 289
f 492 781 23
f 213 280 571
f 421 646 577
f 819 221 369
f 115 111 549
f 612 64 53
f 108 460 395
f 128 401 547
f 549 212 108
f 130 589 377
f 257 120 589
f 130 377 136
f 335 203 725
f 625 805 335
f 527 806 252
f 806 527 127
f 139 252 472
f 128 271 138
f 710 370 139
f 271 247 138
f 159 368 597
f 368 148 650
f 150 159 597
f 299 616 751
f 368 159 299
f 438 556 299
f 118 472 124
f 133 530 267
f 319 139 472
f 788 248 146
f 623 327 141
f 161 704 432
f 524 160 375
f 375 156 191
f 626 314 704
f 173 246 297
f 375 191 524
f 173 297 186
f 767 174 653
f 186 511 173
f 476 410 553
f 828 312 530
f 201 408 132
f 464 408 254
f 145 645 301
f 591 537 141
f 645 454 301
f 777 301 155
f 157 499 240
f 153 507 432
f 348 777 688
f 157 641 440
f 440 707 499
f 161 563 170
f 820 723 422
f 171 227 532
f 815 342 580
f 164 640 563
f 112 210 728
f 728 226 293
f 122 462 402
f 122 443 462
f 134 374 522
f 811 147 454
f 680 443 590
f 564 539 305
f 551 603 140
f 436 190 362
f 436 641 305
f 430 172 514
f 207 679 110
f 261 541 465
f 262 211 117
f 262 107 683
f 614 541 262
f 402 614 122
f 519 121 211
f 131 531 316
f 121 273 628
f 388 747 140
f 238 595 642
f 703 551 365
f 551 703 149
f 135 233 599
f 429 647 565
f 453 390 98
f 390 453 107
f 99 274 91
f 99 320 386
f 101 320 260
f 608 656 93
f 260 656 102
f 601 101 666
f 193 526 103
f 373 608 526
f 103 433 595
f 435 357 727
f 695 802 357
f 630 105 771
f 119 822 630
f 81 394 545
f 752 534 87
f 399 92 91
f 91 752 399
f 376 78 609
f 444 86 774
f 196 538 249
f 249 468 328
f 85 309 328
f 718 651 242
f 328 706 85
f 96 718 307
f 776 810 60
f 82 343 646
f 83 307 242
f 79 743 266
f 270 604 63
f 59 604 69
f 69 550 79
f 51 322 598
f 48 391 59
f 43 258 48
f 59 317 231
f 840 48 231
f 612 53 286
f 70 724 407
f 550 339 80
f 544 610 253
f 681 28 39
f 392 748 467
f 41 322 51
f 28 300 19
f 383 508 308
f 39 303 544
f 364 300 24
f 303 536 237
f 15 652 509
f 16 437 20
f 769 574 13
f 62 371 457
f 724 593 787
f 332 708 50
f 50 46 332
f 471 46 50
f 748 392 40
f 265 782 37
f 708 265 37
f 32 467 383
f 308 349 469
f 508 383 27
f 404 760 478
f 349 308 18
f 814 739 7
f 552 701 10
f 206 336 61
f 627 411 68
f 662 521 71
f 37 47 455
f 516 749 25
f 782 517 37
f 611 22 288
f 654 334 372
f 716 699 4
f 236 638 445
f 334 712 236
f 61 323 676
f 741 518 42
f 475 518 673
f 605 411 323
f 250 321 42
f 452 379 45
f 661 310 512
f 389 804 34
f 804 310 34
f 189 684 296
f 189 298 26
f 655 38 548
f 363 21 445
f 8 813 581
f 624 451 29
f 66 412 673
f 394 77 204
f 73 57 263
f 204 333 73
f 452 529 57
f 58 523 315
f 78 75 264
f 49 251 525
f 393 753 535
f 65 376 609
f 398 72 302
f 326 535 753
f 23 451 657
f 575 789 179
f 830 473 182
f 35 842 546
f 244 20 24
f 43 840 35
f 414 136 285
f 311 136 377
f 664 722 796
f 7 504 449
f 24 682 244
f 825 439 12
f 172 757 632
f 771 802 338
f 557 698 633
f 478 615 188
f 702 296 813
f 296 382 189
f 433 116 595
f 160 524 587
f 255 156 327
f 760 469 615
f 589 120 401
f 305 779 564
f 34 505 192
f 192 378 259
f 32 383 194
f 198 195 146
f 51 391 258
f 257 115 549
f 827 396 31
f 389 34 192
f 264 538 774
f 197 46 392
f 803 266 613
f 402 481 330
f 313 540 137
f 86 399 200
f 464 537 132
f 61 406 202
f 528 202 455
f 274 98 329
f 274 272 453
f 77 66 204
f 545 73 607
f 312 201 132
f 208 77 84
f 85 242 651
f 622 540 477
f 709 110 210
f 519 324 121
f 79 74 69
f 602 691 341
f 498 175 643
f 592 169 235
f 216 509 672
f 690 621 217
f 554 219 613
f 275 442 220
f 325 100 212
f 292 222 552
f 786 223 725
f 649 772 224
f 400 644 225
f 463 297 176
f 336 471 50
f 384 662 62
f 553 293 226
f 201 123 408
f 768 446 175
f 165 514 663
f 154 658 513
f 500 230 596
f 95 695 648
f 695 832 338
f 317 612 231
f 49 44 302
f 636 494 839
f 696 496 233
f 266 743 234
f 616 833 235
f 411 627 807
f 638 778 417
f 21 512 659
f 18 769 13
f 303 27 748
f 758 193 238
f 760 404 239
f 447 665 25
f 130 678 257
f 499 688 240
f 397 240 155
f 241 674 90
f 196 309 444
f 718 96 503
f 266 803 74
f 590 388 243
f 546 740 35
f 792 245 183
f 148 714 650
f 744 685 295
f 327 788 195
f 75 249 538
f 459 527 252
f 472 806 124
f 748 544 303
f 408 464 132
f 254 313 137
f 395 785 120
f 327 156 788
f 191 314 405
f 256 114 205
f 312 828 337
f 391 51 63
f 389 192 259
f 600 260 92
f 101 758 666
f 390 104 304
f 614 465 541
f 605 68 411
f 531 122 614
f 57 73 333
f 57 403 263
f 317 69 74
f 726 200 87
f 88 268 534
f 726 409 78
f 181 694 269
f 559 269 418
f 270 70 407
f 330 622 110
f 412 77 208
f 593 52 55
f 274 453 98
f 386 109 272
f 365 628 273
f 488 275 220
f 276 142 690
f 483 635 570
f 485 721 572
f 721 765 277
f 694 168 269
f 775 278 419
f 733 279 3
f 504 7 729
f 634 420 497
f 698 125 633
f 281 705 568
f 781 380 281
f 461 282 351
f 487 566 671
f 660 12 439
f 124 284 118
f 225 463 400
f 509 216 11
f 812 790 620
f 167 664 796
f 838 288 22
f 749 516 288
f 36 839 289
f 434 585 232
f 707 171 640
f 508 291 18
f 222 814 7
f 552 10 746
f 554 800 416
f 496 696 381
f 456 770 129
f 833 685 555
f 151 533 744
f 189 795 684
f 296 510 382
f 246 653 297
f 378 548 38
f 229 624 382
f 556 470 148
f 300 364 19
f 300 30 682
f 137 645 254
f 535 302 72
f 810 67 398
f 536 28 19
f 104 390 261
f 595 193 103
f 113 642 381
f 843 831 218
f 126 115 678
f 416 826 89
f 152 539 144
f 641 436 594
f 149 340 603
f 243 306 152
f 96 584 648
f 308 194 383
f 651 94 309
f 396 804 45
f 661 34 310
f 247 650 138
f 527 271 127
f 714 148 311
f 604 550 69
f 267 591 141
f 412 475 673
f 191 405 166
f 65 315 523
f 58 38 251
f 747 316 628
f 59 231 48
f 318 457 610
f 472 385 319
f 320 101 386
f 741 42 321
f 253 322 39
f 68 605 56
f 113 456 542
f 545 607 81
f 376 65 523
f 523 326 753
f 156 255 314
f 328 196 249
f 534 674 88
f 752 87 399
f 465 679 261
f 243 144 590
f 774 538 196
f 805 515 203
f 547 401 785
f 197 265 332
f 197 332 46
f 66 379 333
f 123 201 226
f 476 226 201
f 10 576 372
f 334 236 579
f 725 223 335
f 335 127 625
f 336 50 406
f 336 206 521
f 337 205 410
f 489 338 106
f 211 109 519
f 339 270 407
f 764 387 340
f 387 764 362
f 740 43 35
f 761 585 494
f 571 668 213
f 687 844 17
f 634 82 571
f 343 497 450
f 179 750 575
f 631 692 174
f 142 345 690
f 621 690 345
f 346 269 168
f 347 482 846
f 693 491 5
f 161 432 348
f 188 426 739
f 280 634 571
f 775 637 278
f 353 495 428
f 245 158 354
f 244 355 20
f 142 276 808
f 802 105 727
f 105 103 727
f 731 185 358
f 832 106 338
f 480 115 126
f 746 10 372
f 6 282 578
f 362 190 387
f 815 514 172
f 21 363 505
f 364 652 19
f 24 437 364
f 766 655 29
f 647 784 135
f 273 121 324
f 782 265 447
f 366 167 587
f 511 166 173
f 277 631 367
f 532 768 367
f 299 556 368
f 650 597 368
f 370 150 459
f 151 744 370
f 457 371 55
f 780 654 491
f 468 209 706
f 209 719 588
f 93 94 608
f 373 102 656
f 397 779 240
f 327 623 153
f 537 145 623
f 166 524 191
f 409 609 78
f 376 753 75
f 134 199 462
f 147 811 522
f 26 378 192
f 58 458 38
f 452 333 379
f 673 379 66
f 687 380 781
f 756 829 36
f 294 770 696
f 770 456 113
f 382 510 229
f 194 308 469
f 467 32 197
f 62 318 384
f 392 384 318
f 701 576 10
f 504 729 3
f 519 542 324
f 133 319 385
f 99 386 272
f 387 603 340
f 388 131 316
f 389 452 804
f 529 259 458
f 390 304 98
f 390 107 261
f 391 48 258
f 391 63 604
f 467 27 383
f 384 392 46
f 322 253 52
f 393 72 468
f 674 821 88
f 395 120 257
f 396 321 31
f 396 310 804
f 477 540 313
f 783 302 44
f 398 67 72
f 250 586 33
f 399 87 200
f 444 93 600
f 428 644 177
f 785 401 120
f 257 589 130
f 199 481 462
f 402 330 465
f 458 403 529
f 516 404 677
f 404 478 292
f 406 61 336
f 406 455 202
f 141 327 195
f 660 224 283
f 123 254 408
f 409 726 268
f 476 337 410
f 61 676 206
f 323 807 676
f 56 518 68
f 412 208 76
f 171 413 227
f 460 290 415
f 550 270 339
f 221 97 369
f 405 173 166
f 176 490 575
f 211 121 117
f 638 581 14
f 9 780 567
f 380 687 606
f 483 799 755
f 283 772 566
f 772 649 775
f 95 497 420
f 719 577 83
f 646 691 82
f 532 723 171
f 820 170 563
f 818 669 617
f 636 602 341
f 732 344 561
f 279 733 423
f 562 793 759
f 425 11 216
f 745 349 13
f 543 739 426
f 801 837 214
f 557 816 119
f 808 427 142
f 495 722 428
f 129 365 273
f 429 513 149
f 757 187 479
f 236 659 579
f 431 22 360
f 255 153 704
f 193 595 238
f 116 822 496
f 232 810 398
f 776 60 506
f 756 289 434
f 503 608 94
f 357 435 96
f 305 539 436
f 362 594 436
f 672 720 619
f 510 660 229
f 439 492 657
f 102 101 260
f 276 690 441
f 798 441 629
f 36 220 442
f 611 677 746
f 131 590 443
f 14 363 445
f 445 21 659
f 580 643 446
f 768 532 446
f 365 747 628
f 469 760 665
f 447 32 194
f 92 320 91
f 788 146 195
f 288 838 448
f 448 517 749
f 639 5 449
f 449 222 7
f 374 147 522
f 450 83 717
f 657 624 229
f 655 766 525
f 535 49 302
f 398 783 232
f 309 93 444
f 452 389 529
f 388 140 243
f 124 786 284
f 522 811 199
f 397 454 147
f 455 47 528
f 708 406 50
f 456 129 273
f 457 55 610
f 371 62 474
f 753 376 523
f 378 458 259
f 139 459 252
f 597 459 150
f 461 351 180
f 461 3 729
f 711 589 401
f 481 199 540
f 463 750 400
f 464 254 645
f 145 537 464
f 70 598 52
f 264 774 200
f 200 726 264
f 26 548 378
f 41 466 30
f 466 682 30
f 467 197 392
f 209 67 776
f 469 349 615
f 469 665 194
f 268 81 409
f 88 81 268
f 173 405 246
f 470 556 158
f 470 311 148
f 609 263 65
f 65 263 403
f 45 741 321
f 107 262 541
f 74 79 266
f 828 385 256
f 202 323 61
f 338 489 771
f 473 791 182
f 283 742 12
f 474 62 71
f 475 76 627
f 210 112 709
f 476 553 226
f 678 414 126
f 740 184 244
f 245 354 183
f 114 256 118
f 15 769 715
f 210 477 728
f 340 513 658
f 80 79 550
f 478 188 814
f 479 500 168
f 359 803 219
f 115 480 111
f 287 495 592
f 481 622 330
f 481 402 462
f 296 702 510
f 45 321 396
f 558 846 734
f 491 693 347
f 418 736 559
f 596 755 346
f 277 768 721
f 181 486 694
f 742 487 791
f 220 606 488
f 345 633 738
f 630 689 119
f 344 575 490
f 491 576 5
f 347 780 491
f 23 657 492
f 705 756 434
f 699 716 637
f 417 8 581
f 421 761 341
f 796 722 495
f 735 495 353
f 822 573 496
f 95 584 497
f 343 634 497
f 762 572 498
f 499 164 688
f 707 440 413
f 563 161 348
f 246 170 767
f 187 764 230
f 668 571 501
f 501 730 668
f 502 489 106
f 307 718 242
f 504 279 639
f 427 808 599
f 795 505 363
f 506 60 761
f 577 719 506
f 507 777 432
f 136 311 143
f 714 377 711
f 6 700 2
f 361 574 228
f 508 18 308
f 15 11 228
f 429 565 513
f 430 594 362
f 663 580 227
f 331 415 515
f 33 47 517
f 517 448 33
f 349 18 13
f 518 475 68
f 42 518 56
f 451 23 568
f 109 211 683
f 745 13 520
f 6 578 520
f 521 662 336
f 147 374 779
f 523 58 326
f 315 65 403
f 366 587 524
f 466 41 258
f 294 784 129
f 431 835 22
f 251 49 326
f 568 766 451
f 526 435 103
f 193 373 526
f 806 127 223
f 527 459 247
f 455 708 37
f 313 728 477
f 55 52 253
f 322 41 681
f 321 250 31
f 528 56 605
f 528 586 56
f 143 470 245
f 600 86 444
f 529 389 259
f 267 198 133
f 385 828 133
f 300 681 30
f 117 316 531
f 531 131 122
f 532 367 723
f 93 309 94
f 248 160 533
f 685 744 533
f 534 329 674
f 87 268 726
f 535 72 393
f 589 711 377
f 63 51 598
f 392 318 40
f 156 314 191
f 438 812 620
f 537 623 141
f 591 132 537
f 249 75 393
f 774 196 444
f 190 539 152
f 539 564 144
f 540 811 137
f 683 107 453
f 88 394 81
f 325 819 100
f 324 456 273
f 739 729 7
f 543 578 282
f 472 118 385
f 544 40 610
f 315 403 458
f 73 545 204
f 3 461 180
f 158 438 163
f 143 285 136
f 370 710 151
f 114 118 284
f 118 256 385
f 612 317 64
f 515 805 331
f 547 625 128
f 38 655 251
f 548 26 298
f 549 395 257
f 306 140 603
f 452 57 333
f 552 222 701
f 552 677 292
f 301 454 397
f 272 274 99
f 221 809 97
f 581 638 417
f 555 796 287
f 101 102 758
f 597 650 247
f 686 689 489
f 698 818 617
f 799 162 736
f 845 442 737
f 692 631 561
f 632 759 342
f 563 348 164
f 170 820 767
f 779 305 157
f 374 680 564
f 565 154 513
f 647 429 784
f 566 742 283
f 699 778 567
f 780 4 567
f 434 783 705
f 569 667 484
f 799 798 162
f 570 276 441
f 280 213 350
f 175 572 721
f 762 485 572
f 427 816 754
f 573 233 496
f 574 520 13
f 58 251 326
f 701 449 5
f 576 491 654
f 646 717 577
f 577 506 421
f 520 426 745
f 722 225 644
f 372 579 360
f 579 431 360
f 580 342 643
f 580 663 815
f 748 27 467
f 508 237 291
f 8 417 493
f 581 813 14
f 582 250 33
f 582 31 250
f 499 157 440
f 583 1 482
f 583 423 1
f 450 307 83
f 585 289 494
f 19 715 536
f 586 528 47
f 586 42 56
f 587 685 533
f 587 167 555
f 588 83 242
f 588 85 706
f 439 825 492
f 155 301 397
f 145 507 623
f 401 128 711
f 590 131 388
f 680 590 144
f 591 312 132
f 591 267 530
f 592 735 215
f 592 235 287
f 593 371 787
f 593 70 52
f 594 430 514
f 704 161 626
f 596 154 755
f 658 596 230
f 475 412 76
f 749 782 25
f 247 459 597
f 159 150 295
f 435 503 96
f 598 322 52
f 598 70 63
f 827 310 396
f 356 647 599
f 599 233 427
f 600 93 656
f 601 666 519
f 109 601 519
f 602 501 691
f 603 551 149
f 603 387 306
f 478 814 292
f 604 59 391
f 99 91 320
f 198 710 319
f 605 323 202
f 202 528 605
f 166 366 524
f 606 763 488
f 72 67 468
f 607 73 263
f 607 409 81
f 158 245 470
f 500 479 187
f 85 651 309
f 503 526 608
f 608 373 656
f 78 376 75
f 607 609 409
f 784 703 129
f 610 40 318
f 610 55 253
f 542 666 238
f 516 611 288
f 611 746 360
f 286 840 612
f 234 800 613
f 402 465 614
f 123 313 254
f 533 160 587
f 248 375 160
f 86 92 399
f 253 39 544
f 505 795 192
f 426 520 578
f 258 41 51
f 262 117 531
f 25 239 516
f 616 159 295
f 818 686 489
f 619 437 16
f 169 812 751
f 11 425 361
f 621 345 738
f 660 283 12
f 622 481 540
f 622 210 110
f 623 507 153
f 541 261 107
f 45 379 741
f 379 673 741
f 108 290 460
f 460 331 785
f 394 204 545
f 84 77 394
f 298 29 548
f 625 547 805
f 625 127 271
f 626 161 170
f 626 246 405
f 293 112 728
f 627 68 475
f 169 751 235
f 291 237 536
f 769 18 291
f 134 522 199
f 190 436 539
f 681 300 28
f 628 316 117
f 217 629 441
f 630 433 105
f 561 277 765
f 631 174 422
f 694 817 479
f 844 781 492
f 633 345 754
f 420 280 797
f 356 635 565
f 483 755 635
f 636 341 494
f 637 493 699
f 716 801 637
f 9 778 712
f 638 14 445
f 358 106 834
f 834 773 569
f 583 693 639
f 639 449 504
f 616 295 833
f 164 707 640
f 723 820 640
f 641 157 305
f 2 351 282
f 642 113 238
f 28 303 39
f 303 237 27
f 264 75 538
f 477 210 622
f 839 36 442
f 340 149 513
f 643 342 697
f 643 175 446
f 225 722 664
f 644 400 618
f 645 145 464
f 645 137 454
f 717 646 343
f 646 421 691
f 344 732 789
f 647 356 565
f 647 135 599
f 648 357 96
f 224 702 649
f 493 775 649
f 552 746 677
f 242 85 588
f 459 139 370
f 715 652 15
f 364 720 652
f 346 168 500
f 346 418 269
f 170 246 626
f 653 174 490
f 4 347 841
f 654 372 576
f 334 9 712
f 655 525 251
f 151 248 533
f 656 260 600
f 116 433 822
f 777 507 301
f 658 154 596
f 658 230 340
f 543 426 578
f 427 233 573
f 201 312 476
f 742 566 487
f 3 279 504
f 274 752 91
f 752 274 329
f 659 236 445
f 659 431 579
f 468 249 393
f 375 248 788
f 660 439 229
f 660 510 224
f 661 21 505
f 176 653 490
f 297 463 186
f 471 336 662
f 662 71 62
f 662 384 471
f 514 165 594
f 663 227 413
f 60 232 585
f 531 614 262
f 122 131 443
f 503 435 526
f 790 812 169
f 366 511 664
f 256 205 337
f 840 43 48
f 665 239 25
f 665 447 194
f 666 542 519
f 243 152 144
f 299 751 438
f 158 163 354
f 667 797 350
f 730 501 602
f 669 502 185
f 423 583 279
f 670 400 750
f 419 836 671
f 227 446 532
f 198 267 195
f 518 741 673
f 674 241 821
f 674 329 90
f 282 6 2
f 66 77 412
f 362 764 675
f 187 757 675
f 382 298 189
f 568 23 281
f 44 766 568
f 783 398 302
f 549 111 212
f 677 404 292
f 679 104 261
f 679 465 330
f 683 453 272
f 319 133 198
f 680 144 564
f 680 374 134
f 681 39 322
f 681 41 30
f 682 24 300
f 466 740 682
f 317 59 69
f 683 272 109
f 683 211 262
f 271 527 247
f 397 147 779
f 152 306 190
f 299 159 616
f 795 189 26
f 14 684 363
f 833 295 685
f 686 557 689
f 813 8 702
f 86 600 92
f 225 186 463
f 517 782 749
f 687 17 763
f 687 781 844
f 688 164 348
f 688 155 240
f 755 418 346
f 689 557 119
f 630 771 689
f 356 570 635
f 754 142 427
f 690 217 441
f 667 569 797
f 280 420 634
f 691 421 341
f 501 82 691
f 692 490 174
f 693 482 347
f 694 479 168
f 562 486 793
f 695 357 648
f 834 832 773
f 496 381 116
f 696 233 135
f 825 12 473
f 697 498 643
f 824 697 759
f 698 617 125
f 698 557 686
f 699 567 4
f 699 493 417
f 700 6 361
f 815 632 342
f 576 701 5
f 701 222 449
f 502 106 358
f 702 8 649
f 702 224 510
f 703 365 129
f 703 429 149
f 704 314 255
f 704 153 432
f 705 281 756
f 705 44 568
f 706 328 468
f 706 209 588
f 707 413 171
f 707 164 499
f 235 833 287
f 64 317 74
f 829 606 220
f 234 613 266
f 708 332 265
f 708 455 406
f 710 139 319
f 710 146 151
f 458 378 38
f 711 138 714
f 711 128 138
f 32 447 265
f 9 334 654
f 712 638 236
f 713 89 97
f 343 82 634
f 714 138 650
f 714 311 377
f 769 15 228
f 715 291 536
f 4 841 716
f 717 343 450
f 717 83 577
f 94 651 718
f 671 566 419
f 419 278 836
f 209 776 719
f 719 83 588
f 167 366 664
f 143 311 470
f 720 509 652
f 720 364 437
f 721 485 765
f 722 644 428
f 723 640 171
f 146 248 151
f 511 366 166
f 664 511 225
f 413 440 165
f 663 413 165
f 373 193 758
f 724 70 593
f 609 607 263
f 507 145 301
f 594 165 641
f 726 78 264
f 268 87 534
f 727 357 802
f 727 103 435
f 684 813 296
f 584 95 648
f 450 497 584
f 543 461 729
f 11 361 228
f 109 386 601
f 730 602 54
f 732 561 178
f 733 3 180
f 734 482 1
f 735 592 495
f 418 799 736
f 737 442 275
f 738 633 125
f 190 306 387
f 739 543 729
f 330 110 679
f 740 244 682
f 43 466 258
f 657 451 624
f 462 443 134
f 98 90 329
f 770 113 381
f 324 542 456
f 839 494 289
f 239 404 516
f 55 371 593
f 742 473 12
f 430 362 675
f 628 117 121
f 743 79 80
f 318 62 457
f 298 382 624
f 744 295 150
f 349 745 615
f 745 188 615
f 394 821 84
f 34 661 505
f 29 298 624
f 655 548 29
f 530 312 591
f 312 337 476
f 372 360 746
f 677 611 516
f 520 574 6
f 747 388 316
f 747 551 140
f 582 835 827
f 748 40 544
f 604 270 550
f 749 288 448
f 237 508 27
f 46 471 384
f 395 549 108
f 750 176 575
f 750 179 670
f 642 116 381
f 642 595 116
f 535 326 49
f 753 393 75
f 838 33 448
f 250 42 586
f 529 403 57
f 372 334 579
f 148 368 556
f 754 557 633
f 816 427 573
f 755 154 635
f 829 281 380
f 756 36 289
f 757 479 817
f 172 675 757
f 758 102 373
f 758 238 666
f 759 697 342
f 632 817 759
f 760 615 478
f 760 239 665
f 761 494 341
f 761 421 506
f 269 559 181
f 762 498 424
f 763 606 687
f 764 187 675
f 764 340 230
f 277 561 631
f 765 823 178
f 766 44 525
f 766 29 451
f 150 370 744
f 767 653 246
f 767 422 174
f 313 123 728
f 768 175 721
f 768 277 367
f 769 291 715
f 769 228 574
f 103 105 433
f 770 294 129
f 770 381 696
f 771 489 689
f 772 283 224
f 772 419 566
f 70 270 63
f 367 422 723
f 832 95 773
f 797 773 420
f 209 468 67
f 774 86 200
f 536 303 28
f 775 493 637
f 775 419 772
f 5 639 693
f 776 506 719
f 777 155 688
f 777 348 432
f 778 638 712
f 778 9 567
f 779 157 240
f 779 374 564
f 780 9 654
f 780 347 4
f 82 501 571
f 781 281 23
f 782 447 25
f 783 44 705
f 783 434 232
f 437 24 20
f 784 429 703
f 784 294 135
f 547 785 331
f 785 395 460
f 47 33 586
f 37 517 47
f 238 113 542
f 314 626 405
f 223 127 335
f 787 371 474
f 458 58 315
f 443 680 134
f 175 498 572
f 788 156 375
f 731 834 484
f 141 195 267
f 789 575 344
f 790 169 215
f 428 177 353
f 791 473 742
f 792 143 245
f 486 562 694
f 636 845 794
f 795 26 192
f 795 363 684
f 796 495 287
f 796 555 167
f 797 280 350
f 188 745 426
f 798 629 162
f 798 483 570
f 551 747 365
f 799 418 755
f 799 483 798
f 307 450 584
f 800 554 613
f 826 416 800
f 225 511 186
f 715 19 652
f 801 278 637
f 801 214 352
f 204 66 333
f 802 695 338
f 802 771 105
f 803 64 74
f 803 613 219
f 92 260 320
f 804 452 45
f 153 255 327
f 805 547 331
f 805 203 335
f 146 710 198
f 806 223 124
f 806 472 252
f 196 328 309
f 807 323 411
f 808 356 599
f 463 176 750
f 809 325 218
f 810 232 60
f 810 776 67
f 265 197 32
f 601 386 101
f 22 611 360
f 679 207 104
f 653 176 297
f 96 307 584
f 165 440 641
f 140 306 243
f 574 361 6
f 811 540 199
f 811 454 137
f 812 438 751
f 684 14 813
f 720 672 509
f 685 587 555
f 503 94 718
f 814 188 739
f 814 222 292
f 344 692 561
f 512 21 661
f 431 659 512
f 752 329 534
f 128 625 271
f 815 663 514
f 815 172 632
f 816 557 754
f 816 573 119
f 817 562 759
f 817 632 757
f 818 698 686
f 818 502 669
f 808 276 356
f 230 500 187
f 606 829 380
f 837 801 716
f 697 424 498
f 819 325 221
f 820 422 767
f 820 563 640
f 172 430 675
f 821 394 88
f 44 49 525
f 822 119 573
f 822 433 630
f 110 709 207
f 823 765 485
f 136 414 130
f 143 792 285
f 824 759 793
f 226 728 123
f 570 356 276
f 473 830 825
f 825 844 492
f 461 543 282
f 773 797 569
f 826 800 234
f 827 31 582
f 835 512 827
f 828 530 133
f 828 256 337
f 697 824 424
f 829 756 281
f 829 220 36
f 100 108 212
f 257 678 115
f 43 740 466
f 830 182 560
f 844 825 830
f 124 223 786
f 831 111 480
f 331 460 415
f 832 834 106
f 832 695 95
f 310 827 512
f 833 555 287
f 636 54 602
f 834 569 484
f 834 731 358
f 130 414 678
f 835 431 512
f 582 838 835
f 836 278 352
f 837 716 841
f 837 558 214
f 838 22 835
f 838 582 33
f 108 100 290
f 442 845 839
f 840 286 35
f 840 231 612
f 846 837 841
f 325 843 218
f 636 794 54
f 842 35 286
f 347 846 841
f 843 111 831
f 843 325 212
f 821 847 84
f 844 830 560
f 126 414 285
f 53 64 359
f 98 304 90
f 845 737 794
f 845 636 839
f 846 482 734
f 846 558 837
f 847 821 241
