# D5 best under the 5 mm max-deviation floor -- d5_4ra call 2513
# interior RMSE 5.5391 mm over 716 verts
# max deviation from rest 12.0928 mm   crown 0.194812 m (target 0.197803 m)
v 0.60763139 -0.01585658 0.00000000
v 0.56069916 -0.23469938 0.00000000
v 0.57093944 -0.11805478 0.02789034
v 0.54153679 0.07321489 0.06309670
v 0.52825445 -0.02937932 0.07794714
v 0.52311929 -0.24317845 0.03360388
v 0.51938796 -0.10826714 0.07642369
v 0.47643012 0.17354101 0.09533488
v 0.49432233 0.06309707 0.10140237
v 0.47543729 -0.02627870 0.11608578
v 0.48671336 -0.31939694 0.02765917
v 0.46733382 0.30464412 0.05318646
v 0.45717842 -0.23996945 0.08600621
v 0.42959371 0.14695172 0.12977213
v 0.45104140 -0.32020772 0.05513880
v 0.41720343 -0.44205052 0.00000000
v 0.43580967 0.42371842 0.00000000
v 0.42085337 -0.25003289 0.10390094
v 0.38481331 -0.35399751 0.07791503
v 0.38913715 -0.44044212 0.02127544
v 0.38416874 0.10772682 0.15706954
v 0.38941973 -0.00547177 0.16039262
v 0.36928677 0.35966974 0.08697862
v 0.37449529 -0.41951494 0.04521493
v 0.37096686 -0.11654520 0.15741125
v 0.34664958 0.21469932 0.15143829
v 0.34293446 -0.26347194 0.13150962
v 0.34391590 -0.34978652 0.09757606
v 0.34248309 0.28872299 0.13005523
v 0.32009332 -0.41150994 0.07448392
v 0.30340452 0.03610487 0.18517569
v 0.33347107 -0.19051785 0.15390524
v 0.31361382 -0.03134812 0.18135810
v 0.32233619 0.13101038 0.17482087
v 0.29217564 -0.50891313 0.02010588
v 0.30536133 0.46978085 0.04693998
v 0.29538748 -0.10705664 0.17631479
v 0.28748951 0.25249635 0.15953953
v 0.30147497 -0.34298151 0.11285315
v 0.27348544 -0.27353581 0.14155619
v 0.28478061 -0.41050152 0.08560188
v 0.24990752 0.01275604 0.19155714
v 0.28270985 -0.47734554 0.04667376
v 0.28416551 0.35636675 0.12214677
v 0.25650356 0.08558042 0.19128356
v 0.25923574 -0.19969723 0.16163959
v 0.28535951 -0.06444574 0.18275765
v 0.24542106 -0.47582543 0.05773215
v 0.25299737 0.32658344 0.14323579
v 0.24206539 -0.16432543 0.16922034
v 0.24527917 -0.41211138 0.09190811
v 0.22136879 -0.35425451 0.11677295
v 0.23261209 -0.56156832 0.00000000
v 0.21588987 0.56820679 0.00000000
v 0.21917042 -0.31751670 0.12895949
v 0.23148971 -0.02015977 0.18990147
v 0.21570719 0.16115406 0.18963162
v 0.24948309 0.25820019 0.16637901
v 0.20724320 -0.47757315 0.06273462
v 0.20201567 0.45010105 0.09618403
v 0.19555875 -0.12348387 0.17226110
v 0.19850416 -0.25030056 0.14532226
v 0.20161654 -0.41322736 0.09379604
v 0.18924032 -0.54575386 0.02219634
v 0.19593265 0.22831693 0.18087045
v 0.17401458 0.09219954 0.19476027
v 0.17825764 0.39666257 0.12841582
v 0.19239687 -0.01698777 0.18843992
v 0.16899538 -0.48412365 0.06162256
v 0.18075034 -0.37563972 0.10639241
v 0.16480723 -0.22356401 0.14286846
v 0.19374357 0.36292662 0.14079168
v 0.17556554 0.15711973 0.19219703
v 0.15526351 -0.52021129 0.04292924
v 0.14432597 0.29407661 0.16937282
v 0.13439722 0.02254817 0.18633749
v 0.13052448 0.09636829 0.19299630
v 0.13199441 0.25204517 0.17970388
v 0.13004041 -0.49043028 0.05715340
v 0.10409823 -0.45630160 0.06476003
v 0.11180487 0.17688996 0.19059794
v 0.11327934 0.54325917 0.04466603
v 0.09060172 0.46001934 0.10160140
v 0.08999541 0.10160331 0.19126756
v 0.08357631 0.39552570 0.13409421
v 0.03399824 0.29066228 0.16921263
v 0.05109898 0.22933365 0.18269127
v 0.07610146 0.16825886 0.19031076
v 0.00000000 -0.60700101 0.00426415
v 0.00000000 0.15232795 0.19078821
v -0.01700382 0.24561037 0.17932524
v -0.00581610 0.28152752 0.17138714
v 0.01507604 0.35297100 0.15011494
v 0.01879486 0.38837610 0.13666667
v -0.00493503 0.52263020 0.06574700
v -0.00332042 0.45411436 0.10638834
v -0.04148512 -0.61245286 0.00000000
v -0.04065392 0.16638966 0.18971827
v -0.05136355 0.24191759 0.18075787
v -0.07450262 -0.51411599 0.04097396
v -0.07733827 0.30319529 0.16721509
v -0.05805358 0.33198809 0.15832504
v -0.09274711 0.42390963 0.12042507
v -0.08999541 0.10160331 0.19126756
v -0.10996794 0.46207635 0.09927254
v -0.09087981 0.54960072 0.04252303
v -0.11787722 0.17280746 0.19095969
v -0.12539918 -0.50353861 0.05124510
v -0.11658256 0.24961537 0.17991933
v -0.15169919 0.05806143 0.19227151
v -0.16220387 -0.55303775 0.02156364
v -0.14624003 -0.01104966 0.18270238
v -0.17542849 0.35482027 0.14631988
v -0.16626510 -0.21439822 0.14557216
v -0.20099511 -0.54187610 0.02308404
v -0.16585556 0.41393769 0.12089663
v -0.19495212 0.22761731 0.18119760
v -0.19891253 -0.24080334 0.14757872
v -0.19082070 0.47848589 0.07951914
v -0.19888826 -0.47488327 0.06503980
v -0.18685591 0.26513635 0.17347876
v -0.22261301 0.15329411 0.19009864
v -0.21749722 -0.04575798 0.18685895
v -0.19577953 -0.27937721 0.13719626
v -0.24124672 0.55791342 0.00000000
v -0.23261209 -0.56156832 0.00000000
v -0.21452418 -0.34651505 0.11909217
v -0.22943519 -0.40959822 0.09453856
v -0.24508331 0.32721165 0.14529234
v -0.24905638 -0.49832621 0.04283125
v -0.24830662 0.18442705 0.18277846
v -0.25678854 -0.09793352 0.18052534
v -0.26112072 -0.19851150 0.16176144
v -0.27598229 0.11180493 0.18706678
v -0.26727033 0.38786247 0.11257742
v -0.28786195 -0.49412274 0.03325653
v -0.26455998 0.00850534 0.19036408
v -0.27022723 -0.40061493 0.09356250
v -0.28399470 -0.27762854 0.13927429
v -0.30567696 0.24080232 0.15808602
v -0.31347797 -0.13293962 0.16944668
v -0.29281648 0.47161871 0.05260780
v -0.32213059 -0.48601955 0.02451442
v -0.32284265 0.16680298 0.16933867
v -0.31695569 -0.05581867 0.17870785
v -0.33674612 -0.21211854 0.14769958
v -0.31556492 0.06177666 0.18237547
v -0.33091474 -0.42104901 0.06505517
v -0.32910620 0.30159308 0.13080258
v -0.34788907 -0.31821377 0.10982750
v -0.35078456 -0.24980126 0.13329479
v -0.34191384 0.19266189 0.15820192
v -0.37193021 -0.09019532 0.16074217
v -0.38083173 0.34948878 0.08632254
v -0.36613038 0.01530816 0.16882841
v -0.39277522 -0.14941927 0.14361350
v -0.39328907 0.09122751 0.15503164
v -0.38457352 -0.43912701 0.02542537
v -0.37091078 -0.34835060 0.08740249
v -0.40691023 -0.21652989 0.12137154
v -0.43299373 -0.05189303 0.13887845
v -0.42708814 0.43250787 0.00000000
v -0.42050749 -0.43890867 0.00000000
v -0.43398525 0.02067202 0.14014652
v -0.44447596 0.12962060 0.12447189
v -0.46024130 -0.16563638 0.10628028
v -0.46389052 -0.23565740 0.08322237
v -0.47059490 0.30360690 0.05070612
v -0.46683692 -0.35073530 0.02609922
v -0.46969724 -0.05238576 0.11835368
v -0.48255646 0.06025325 0.10955044
v -0.46826096 0.20007429 0.09334699
v -0.48676406 -0.13700195 0.09538371
v -0.53342016 -0.04149895 0.07275196
v -0.55489731 0.09927142 0.04711302
v -0.54628435 -0.10588145 0.05401511
v -0.56033170 -0.23557536 0.00000000
v -0.60783815 0.00039636 0.00000000
v -0.59632093 -0.11776543 0.00000000
v 0.59004068 -0.14601137 0.00000000
v -0.51481909 0.32315424 0.00000000
v 0.48898762 0.36105189 0.00000000
v -0.36590597 -0.48536602 0.00000000
v 0.35627878 -0.49247620 0.00000000
v -0.12082618 0.59570831 0.00000000
v -0.51128244 -0.15331719 0.07354156
v -0.44104924 0.26238130 0.09007803
v 0.47790367 -0.16102358 0.09589293
v 0.38512498 0.21609247 0.13548931
v -0.37173679 0.20063938 0.14526035
v -0.42891044 -0.15664593 0.12578004
v 0.32678768 0.17482366 0.16684844
v -0.09337292 0.38297870 0.13911019
v 0.37185370 -0.18744668 0.14327180
v -0.32660909 -0.17189962 0.15941495
v 0.08500624 0.33511131 0.15746679
v 0.29671618 -0.19723638 0.15927671
v -0.29891891 -0.20704693 0.15645248
v -0.25164683 0.07778444 0.19220173
v 0.06262818 0.26449117 0.17644365
v -0.22068794 -0.08912135 0.18101318
v 0.22282240 -0.09424936 0.18048301
v -0.13779458 -0.36111987 0.10012960
v 0.15452364 0.12546212 0.19406353
v -0.16611786 -0.17543660 0.15405481
v 0.16592947 -0.14503296 0.16063935
v -0.11026256 0.06551871 0.18901724
v 0.11130672 0.06365963 0.18890131
v 0.14321679 0.41079185 0.12509161
v -0.16794720 0.01909605 0.19012805
v -0.15455488 0.23786587 0.18157872
v -0.12081630 -0.53609519 0.03540863
v 0.08484328 0.60188782 0.00000000
v 0.59559309 0.12139286 0.00000000
v -0.50067735 -0.34465858 0.00000000
v 0.49678737 -0.35024232 0.00000000
v -0.35689431 0.49203029 0.00000000
v -0.11670338 -0.59242719 0.00000000
v 0.13167903 -0.58844018 0.00000000
v 0.33969055 0.47267631 0.02758013
v -0.06003257 -0.58141936 0.01321886
v 0.49515923 -0.08429240 0.09819821
v -0.18701229 -0.31924342 0.12461873
v 0.47412868 0.23871559 0.07648181
v -0.52239904 -0.18692445 0.05544441
v -0.18957323 -0.06821047 0.18095327
v -0.49656595 0.09763225 0.09573646
v 0.47483220 -0.29308435 0.05086497
v 0.41672952 0.28370646 0.09655625
v -0.41047891 0.28906741 0.09789393
v 0.22710900 -0.50287157 0.04446593
v 0.23283187 0.42354293 0.10287980
v -0.24569567 0.42023008 0.10182490
v 0.06242656 -0.53622925 0.03191833
v -0.45119300 -0.32729537 0.05162609
v 0.44145501 0.07880478 0.13298668
v 0.36630534 -0.28769334 0.11492967
v -0.13135016 0.35691141 0.14847800
v 0.40186426 -0.11942504 0.14514928
v -0.37864573 0.05319755 0.16359435
v 0.03256690 0.13397208 0.19096167
v 0.06659448 0.42945384 0.11821161
v -0.31164697 0.20395770 0.16529312
v 0.35931142 -0.45726757 0.02694183
v -0.35739319 -0.47131159 0.01701285
v -0.48693730 -0.09229012 0.10309122
v -0.28622062 -0.36283106 0.10752728
v -0.37345622 -0.21564374 0.13546273
v 0.12850479 0.33462607 0.15742659
v 0.29021789 0.00597604 0.18706121
v 0.26844662 0.28928933 0.15288762
v -0.26076720 -0.30229292 0.13330806
v 0.25895926 -0.33440828 0.12265791
v -0.25492375 -0.03016318 0.18844206
v -0.38974969 -0.11703625 0.15039155
v -0.19805214 -0.19898287 0.15715122
v -0.20578977 -0.50590122 0.04676670
v 0.26492503 -0.44451651 0.07183833
v 0.28884391 0.18612459 0.17449387
v -0.03438480 0.30797748 0.16517557
v -0.11908569 0.13118040 0.19295342
v -0.16119148 0.19521879 0.18849957
v 0.18715284 0.19218330 0.18770271
v 0.10297618 0.27565628 0.17461897
v 0.30880765 -0.15202223 0.16702501
v 0.11297281 -0.52840570 0.03879444
v -0.28915981 -0.16779896 0.16636272
v 0.08191319 0.20383523 0.18714460
v -0.48025470 0.32812301 0.02959277
v 0.16232610 -0.41360243 0.09059844
v -0.24427687 -0.37332887 0.10870590
v -0.08073684 0.22525387 0.18410183
v -0.21857640 0.29419105 0.16151472
v -0.03681997 0.20815759 0.18564927
v 0.33736593 0.50562000 0.00000000
v -0.32963458 0.44698933 0.05287363
v -0.56146092 0.02792935 0.04828357
v 0.55347427 0.17650322 0.03020038
v 0.57796827 -0.07509562 0.02785105
v 0.05777027 0.57484368 0.02549316
v 0.34297015 0.39848404 0.07785239
v 0.54652975 -0.20308147 0.02757336
v 0.48883736 0.26690399 0.05363544
v -0.16045915 -0.25090089 0.13480468
v -0.29495218 -0.53147960 0.00000000
v 0.26347902 -0.54776472 0.00000000
v -0.47102503 -0.29108208 0.05524892
v 0.37849411 -0.04565680 0.16267481
v 0.27071065 0.46598454 0.06420309
v -0.09443335 -0.47518173 0.05699234
v 0.40284808 -0.28623425 0.09956997
v 0.46291592 -0.09634831 0.11763648
v -0.15518892 -0.05110410 0.17723590
v -0.24793768 0.36217196 0.12998415
v -0.39096479 -0.31219897 0.09472173
v 0.42230582 0.21511801 0.11723653
v -0.51535750 -0.11716354 0.07815066
v 0.36404773 0.25198956 0.13399929
v -0.39220332 -0.37679707 0.06185955
v 0.35458997 -0.39021170 0.07307392
v -0.33618490 -0.01186412 0.17734120
v 0.23826943 0.36019852 0.13293886
v 0.33222129 -0.30771408 0.11912324
v -0.04730481 0.12566528 0.19104017
v -0.37442303 0.12676578 0.15838640
v -0.34151466 0.22604456 0.15043767
v 0.04322454 0.45822907 0.10360201
v 0.39648663 -0.21904027 0.12543505
v 0.05769529 0.36511624 0.14614842
v 0.32621861 0.08969513 0.17798640
v -0.30868827 -0.45783411 0.05059570
v -0.23018595 -0.13264849 0.17466307
v -0.22510867 -0.00535661 0.19125292
v -0.42359323 -0.12076790 0.13520567
v 0.23003678 0.23260633 0.17585731
v -0.23656291 0.22137086 0.17765919
v 0.19426254 -0.51230414 0.04401722
v 0.24067817 -0.25971139 0.14676551
v -0.26944647 -0.23847639 0.15164622
v -0.04461575 0.27507562 0.17391313
v 0.26980130 0.04499665 0.19044403
v 0.26561334 -0.37420569 0.10641046
v 0.19064884 -0.08464643 0.17837332
v -0.18152622 0.29762756 0.16502174
v -0.09072476 -0.56131421 0.02217330
v 0.22981303 0.29463110 0.15930417
v -0.35465053 -0.13434733 0.15966699
v 0.10360367 0.36469217 0.14681815
v -0.00016233 0.18247965 0.18822990
v -0.17463201 0.08821620 0.19481153
v -0.15174668 -0.43021318 0.08330281
v 0.27666619 -0.16905392 0.16731711
v 0.19862827 0.12559808 0.19374049
v 0.46593084 0.04806704 0.12123013
v -0.17614920 -0.35577013 0.11178681
v 0.20199579 -0.16411992 0.16553450
v -0.19765736 -0.15568577 0.16627036
v -0.08778545 0.51967340 0.06455325
v 0.11929929 -0.41867033 0.07921768
v -0.37148489 0.28385596 0.12004428
v 0.19618441 0.51802553 0.05048382
v -0.52258159 0.17403705 0.05931434
v 0.08433768 0.51891478 0.06505968
v -0.58163163 -0.05237852 0.02638458
v -0.28574277 0.50494839 0.02917820
v -0.44532450 0.33312441 0.05486233
v 0.55608101 0.03231266 0.05342995
v -0.41592270 -0.01635374 0.14884402
v 0.43328382 -0.21189699 0.10941815
v 0.04220190 0.60637146 0.00000000
v 0.57708573 -0.19089116 0.00000000
v 0.58584660 0.16202202 0.00000000
v -0.54225647 -0.27463669 0.00000000
v -0.39251760 -0.46410912 0.00000000
v 0.38650444 -0.46912864 0.00000000
v -0.32983089 0.40700194 0.07938966
v -0.04344821 0.47074439 0.09716110
v -0.09345343 0.57392373 0.02279888
v 0.18062642 -0.57540870 0.00000000
v 0.42464701 0.00231064 0.14511795
v 0.50780564 -0.28322937 0.02839656
v -0.40642312 0.20799107 0.12765626
v 0.39473388 0.14551320 0.14703929
v 0.39743726 -0.38548814 0.05362156
v -0.25798230 0.28838099 0.15603055
v -0.46188801 -0.20392394 0.09500426
v -0.53136176 0.02748719 0.07515166
v -0.35158850 -0.38465796 0.07722721
v -0.02452578 -0.57919663 0.01512876
v -0.32677231 -0.28452316 0.12875444
v 0.18745424 -0.29138894 0.13234780
v 0.46271660 0.00845014 0.12467509
v -0.05729902 0.36521746 0.14666899
v -0.31476546 0.10209389 0.17990831
v -0.39995814 -0.18457265 0.13294389
v 0.17065195 0.26060923 0.17606561
v -0.27102248 -0.46514585 0.05833755
v 0.30759281 0.21613600 0.16356218
v 0.21668723 0.09173729 0.19429560
v 0.36906602 0.41776011 0.05205991
v -0.19249417 0.38704019 0.13021193
v 0.40142682 0.25085887 0.11702414
v 0.35730766 -0.22452353 0.13868605
v 0.23224011 -0.22618691 0.15509920
v -0.23091298 -0.22269828 0.15576479
v -0.08033879 0.26344986 0.17695329
v -0.37419993 0.24059117 0.13336894
v -0.27582093 0.21379463 0.17214222
v 0.28744718 0.14992621 0.18073295
v -0.08297461 0.14549708 0.19158126
v 0.22495237 -0.44512256 0.07803944
v 0.27634234 -0.23658532 0.15197685
v 0.16902413 0.33153179 0.15582592
v 0.11009414 0.13495222 0.19270776
v -0.16678185 -0.49029755 0.05878190
v 0.29542978 0.07122753 0.18597022
v -0.34225198 0.03781416 0.17617643
v 0.21859548 0.39144087 0.12334424
v 0.02254644 0.25487587 0.17724488
v -0.55597268 -0.17165107 0.02919219
v -0.21360233 -0.44418104 0.07965861
v -0.19880624 0.12000649 0.19413677
v 0.22549847 0.19939713 0.18314037
v 0.43026949 -0.10679411 0.13410605
v -0.45750533 -0.12579412 0.11625061
v 0.22985545 -0.13112819 0.17487931
v 0.13197607 -0.37922490 0.09355084
v -0.24546972 -0.06491579 0.18494953
v 0.12070922 0.21404757 0.18643013
v -0.16586216 -0.13417043 0.16299185
v 0.18161536 -0.04696731 0.18289059
v 0.15229164 0.05874561 0.19235589
v -0.46394571 0.09520367 0.11790975
v -0.26251413 -0.52473228 0.01927580
v -0.11288223 -0.43863779 0.07196216
v 0.04852406 -0.61057889 0.00000000
v 0.48798105 0.13534641 0.09583546
v -0.45070864 0.36373083 0.03299801
v 0.53873735 0.21822895 0.02957098
v 0.02710941 0.54979352 0.04623433
v 0.16287433 0.50090150 0.06977078
v -0.51696483 -0.00942542 0.08727957
v 0.60516715 -0.05692155 0.00000000
v -0.58628982 0.16041063 0.00000000
v 0.52089852 -0.31326044 0.00000000
v 0.49972328 -0.18564514 0.07369729
v -0.26147358 0.45286510 0.07750521
v -0.53342192 -0.24632972 0.02242121
v -0.31730333 0.34065597 0.11890564
v -0.43873980 0.19374926 0.11368013
v 0.39754400 0.03488654 0.15693032
v -0.39422948 -0.05283725 0.15625704
v -0.13619083 0.43674033 0.11189444
v 0.26890654 0.42814996 0.08925634
v -0.04627621 0.43583080 0.11567486
v -0.39199931 0.16622204 0.14428003
v 0.41083823 -0.41308895 0.02701554
v -0.41267762 -0.40474036 0.03201655
v 0.43124518 0.31467210 0.07413130
v -0.42956493 0.09333954 0.13768069
v -0.35954618 0.45705281 0.02871928
v 0.30394126 0.50052460 0.02307358
v -0.26230399 0.14767655 0.18569788
v 0.04490208 0.32818544 0.15869255
v 0.41954868 0.11134769 0.14072006
v -0.52693150 0.09948310 0.07189790
v 0.34958644 -0.15269289 0.15772565
v 0.34506916 -0.04993582 0.17262383
v 0.52587555 -0.06897963 0.07671276
v 0.06203646 0.48933857 0.08535342
v 0.35568258 0.32531218 0.10979276
v 0.24540803 0.12831689 0.19005522
v -0.07859085 0.18808370 0.18881368
v -0.30573264 0.01912178 0.18484366
v 0.25820721 -0.09758835 0.18060997
v -0.20047831 0.32622471 0.15365043
v 0.21774540 -0.28271270 0.13895431
v 0.26442514 0.21679812 0.17373133
v -0.30019554 -0.32062939 0.12187477
v -0.13867896 -0.46668918 0.06798524
v 0.56070362 -0.16071984 0.02760156
v -0.23671548 0.11533589 0.19197171
v -0.53789745 -0.14505640 0.05343501
v -0.27911440 -0.06088471 0.18368129
v -0.15973610 0.12434849 0.19419391
v 0.30303350 -0.44464851 0.06102417
v 0.31858399 -0.23081897 0.14721714
v 0.14887170 0.36978484 0.14320583
v 0.40973559 -0.18252225 0.12911550
v -0.34635985 -0.44826466 0.04032019
v 0.22500607 -0.19227602 0.16220234
v -0.23622478 -0.26737618 0.14464267
v 0.47881117 0.33033349 0.02972506
v 0.15860219 -0.26257581 0.13136084
v 0.17120992 0.02062203 0.19054608
v -0.19550342 -0.11300238 0.17413369
v -0.20078534 0.01604598 0.19222181
v 0.45501067 -0.13464612 0.11593056
v -0.47370252 0.27156735 0.06340616
v -0.19651574 -0.57117844 0.00000000
v -0.21407064 0.08109488 0.19467152
v 0.58118628 0.00747101 0.02931335
v -0.39416015 0.39945961 0.04957482
v -0.03797936 0.60665059 0.00000000
v -0.60335088 0.07372291 0.00000000
v -0.53711790 0.28455535 0.00000000
v 0.53693402 0.28490213 0.00000000
v 0.37230456 0.48047546 0.00000000
v -0.13251826 0.53273397 0.05030733
v -0.55391094 -0.06883888 0.05219514
v 0.52698878 0.00958668 0.07951667
v 0.40950395 0.35355727 0.06815583
v 0.50880886 0.15966557 0.07479175
v 0.23460184 0.49550293 0.05598454
v -0.50876368 -0.27623908 0.03143589
v -0.20550909 0.41889364 0.11211847
v 0.04184757 0.52010165 0.06653544
v -0.56733875 0.13193787 0.02844418
v -0.41456921 0.05631150 0.14826100
v -0.44260283 0.29787309 0.07413522
v 0.14436400 0.56238588 0.02478286
v -0.12835478 0.56382852 0.02621656
v -0.01335217 0.41474833 0.12567807
v 0.54978299 -0.09245734 0.05295508
v 0.35797605 0.14306071 0.16203012
v 0.16655005 0.46729782 0.09160780
v -0.35464345 -0.05366614 0.16979389
v 0.38196577 -0.25489950 0.12050683
v 0.46194131 -0.35183529 0.02924127
v 0.43828578 0.24651669 0.09778135
v -0.48997748 -0.17754573 0.08347780
v 0.36748880 0.06904603 0.16697488
v -0.35444065 0.32638069 0.11025078
v -0.45861247 0.16430173 0.10907341
v -0.12533452 -0.39989093 0.08604149
v 0.39896474 -0.08138126 0.15186307
v 0.32118929 -0.07574384 0.17595351
v 0.21069344 0.01880423 0.19268898
v -0.14658693 0.28141090 0.17201214
v 0.49236999 -0.22490701 0.06647584
v 0.16617236 -0.18423098 0.15215020
v -0.28715710 0.07971385 0.18710424
v 0.20991430 0.26315391 0.17140197
v -0.43279419 -0.19426919 0.11474004
v 0.28619114 0.31865402 0.13739429
v -0.05460037 0.40118248 0.13192185
v -0.25635424 -0.33659867 0.12186028
v 0.24746741 -0.06014871 0.18568357
v 0.25419276 0.17257221 0.18351327
v -0.25498905 -0.16163381 0.16956427
v -0.20706535 0.19078148 0.18659895
v -0.51414261 0.06237637 0.08664829
v -0.39123486 -0.24812073 0.11886516
v 0.04176896 0.19468556 0.18721038
v 0.21178415 0.32933224 0.15069686
v 0.37404791 -0.31929626 0.09923276
v -0.29637036 -0.09595243 0.17762414
v 0.10822147 0.30737068 0.16617223
v -0.35839633 0.16286327 0.15847801
v -0.23191494 0.03945245 0.19366460
v -0.14853541 0.15761692 0.19236742
v -0.15778080 0.32276667 0.15931077
v 0.53119969 -0.17239539 0.05183823
v 0.28943104 -0.30644259 0.12899444
v 0.13940938 0.15525730 0.19254465
v 0.32691711 -0.51243782 0.00000000
v -0.18876420 -0.41917996 0.09108527
v 0.32643895 0.25181082 0.14819155
v -0.16379168 -0.52221611 0.04143145
v 0.14592104 -0.45340970 0.07381702
v -0.29829219 0.27783882 0.14922517
v 0.46955645 -0.05969034 0.11777590
v -0.16469385 -0.09364735 0.17142977
v 0.09085643 -0.59930855 0.00000000
v -0.44919456 -0.26729442 0.08095446
v -0.37128540 -0.41266092 0.05144972
v -0.21027622 0.50883282 0.05339140
v 0.60284495 0.07775159 0.00000000
v -0.48933694 0.36057833 0.00000000
v 0.46077695 0.39642397 0.00000000
v -0.57993204 -0.00966484 0.03060507
v -0.52670515 0.25318347 0.02581130
v -0.45206643 -0.01501940 0.13039142
v -0.33845982 0.12950889 0.17043357
v -0.34319191 0.36627832 0.09604059
v 0.52200614 0.25607169 0.02923420
v 0.51608559 0.08096184 0.08326554
v 0.32832325 0.36165116 0.10404268
v -0.01843582 0.58171875 0.02186912
v -0.36256683 0.42150583 0.05323433
v 0.09924289 0.57081054 0.02464868
v -0.57857994 0.09812951 0.02348843
v -0.21894699 0.44956385 0.09164701
v 0.48424525 -0.26108426 0.05838906
v -0.57556305 -0.09238501 0.02789537
v 0.49889912 -0.00872330 0.10092869
v 0.12954714 0.48018571 0.08722644
v 0.51946441 -0.20748409 0.05052905
v 0.43350200 0.04037746 0.13992796
v -0.50990480 0.13532466 0.07923527
v 0.45919922 0.14983320 0.11193913
v 0.32757978 0.00998396 0.17994448
v 0.58118602 -0.03266999 0.02838666
v 0.02063728 0.48920163 0.08656283
v 0.23626385 0.45915390 0.08052187
v 0.27059292 -0.02551739 0.18773918
v -0.43165705 -0.23597386 0.10305542
v 0.10576866 0.42467612 0.11991748
v -0.23251129 -0.47198655 0.06272514
v -0.28669086 0.17640704 0.17691259
v -0.27318263 -0.13114368 0.17463102
v -0.48866805 -0.31558487 0.02836959
v 0.18516881 -0.33202000 0.12056538
v -0.42447933 0.16543607 0.12859430
v -0.12809720 0.40011593 0.13052766
v -0.41416585 0.32655221 0.07890880
v -0.32841114 -0.35455623 0.10060124
v 0.22255460 -0.38549666 0.10486157
v -0.28641592 0.41432657 0.09249553
v 0.00555820 0.31689052 0.16178440
v -0.10892727 0.28349008 0.17209534
v 0.18700056 0.55075602 0.02556892
v -0.33810091 0.26346207 0.14080356
v 0.18457261 -0.44769321 0.07876805
v 0.21254232 -0.05510464 0.18530441
v 0.37111316 0.44808289 0.02902437
v 0.14907239 0.18705557 0.18973827
v -0.01916215 0.37810952 0.14125174
v 0.15895251 0.22275936 0.18435881
v 0.25049196 -0.29754860 0.13557865
v 0.41274228 -0.03835188 0.14946326
v 0.22785058 -0.53427945 0.02291301
v 0.10142866 -0.56271769 0.02118258
v -0.18361392 0.15814431 0.19195284
v 0.44484130 -0.17350662 0.11329905
v -0.41165346 -0.33929139 0.07106612
v -0.19892329 0.57436651 0.00000000
v -0.57496589 -0.19718409 0.00000000
v 0.44501001 -0.41404521 0.00000000
v -0.44730964 -0.41155976 0.00000000
v -0.31854054 0.51768649 0.00000000
v -0.19084682 0.05102767 0.19412597
v -0.33480764 -0.09473308 0.17073101
v 0.37956371 0.28778738 0.11444240
v -0.20253145 -0.38311300 0.10556618
v -0.44946769 -0.08813150 0.12660541
v 0.14785300 -0.01826917 0.18171708
v -0.22737846 0.25808211 0.17043635
v -0.39299428 0.46370557 0.00000000
v -0.14966367 0.47236749 0.08989532
v -0.54814117 -0.00571090 0.06122010
v -0.50052795 0.20688497 0.06734610
v -0.24656995 0.52488020 0.02854798
v 0.07016563 0.54762895 0.04567177
v -0.37045749 0.38515280 0.07206583
v 0.23029364 0.53155761 0.02884748
v 0.53932778 0.14656858 0.05212076
v 0.45709752 0.11528086 0.11961614
v 0.55454499 -0.05123238 0.05341871
v -0.46778422 0.02253421 0.12105058
v -0.40986714 0.12872975 0.14276970
v -0.15800476 0.38259123 0.13651118
v -0.53961057 0.13677597 0.05392867
v -0.54398345 -0.21005305 0.02759909
v -0.29448075 -0.02134550 0.18515467
v 0.12481065 0.51313857 0.06556887
v -0.30559311 0.37897946 0.10477049
v -0.01461746 0.48885005 0.08686398
v 0.49288112 0.20034492 0.07567311
v -0.31067334 -0.39223000 0.08796601
v 0.05018941 0.39981227 0.13189649
v 0.42484158 -0.35277164 0.05557258
v -0.52249945 -0.07948688 0.07823310
v 0.49533223 0.02687964 0.10300334
v 0.30603274 0.28717188 0.14326218
v -0.02350607 0.34261105 0.15424529
v 0.39390049 0.32177644 0.09287650
v -0.38614385 0.31486201 0.09993122
v 0.40691648 0.07347986 0.15075416
v 0.45339979 0.27640348 0.07633484
v 0.35207113 0.10751519 0.16862434
v 0.19718398 -0.20755970 0.15510815
v -0.47823015 0.13187571 0.10301208
v -0.49181380 -0.21430644 0.07089343
v 0.38699766 -0.15195864 0.14539668
v -0.11941436 0.31637660 0.16265950
v 0.00110758 0.60783726 0.00000000
v 0.13010299 0.59375125 0.00000000
v -0.15830503 0.58686191 0.00000000
v -0.58688796 -0.15820837 0.00000000
v 0.55528694 0.24723220 0.00000000
v 0.47138885 -0.38374460 0.00000000
v 0.19225848 0.05661415 0.19430262
v 0.03546770 0.16181507 0.18995770
v -0.43853305 0.22673880 0.10421682
v 0.16567706 -0.10429711 0.16946155
v 0.43632429 -0.06877762 0.13579621
v -0.23088084 -0.52906226 0.02585144
v -0.13210092 0.09532732 0.19299059
v -0.30068810 0.13931660 0.17923983
v 0.31251236 -0.37932846 0.09391075
v 0.33956092 -0.43454654 0.05300054
v -0.11927062 0.21101300 0.18663099
v 0.40693852 0.18133032 0.13406956
v -0.41168098 -0.27569894 0.09941990
v -0.17571509 0.52936847 0.04524587
v 0.40252387 0.41793583 0.03237149
v -0.39962242 0.01874501 0.15624088
v -0.16308655 0.50470185 0.06636147
v -0.32483633 0.48167073 0.02850938
v 0.15545559 0.53330849 0.04672192
v -0.56047248 -0.03497539 0.04874137
v 0.55524522 -0.00976199 0.05487457
v -0.50164667 0.28763618 0.03274597
v -0.04675421 0.50594931 0.07590941
v -0.22912020 0.39033111 0.12156910
v -0.55196017 0.17194982 0.03298590
v -0.20780464 0.54133964 0.02743742
v 0.52191680 0.11562366 0.07373654
v 0.54240674 -0.27433974 0.00000000
v 0.50035148 -0.04683848 0.09824906
v 0.45837645 0.21011510 0.09710237
v -0.28801029 0.31522104 0.13894496
v -0.41136966 -0.08604726 0.14583487
v 0.30020355 0.39391036 0.09784748
v 0.11810532 0.39236128 0.13484011
v -0.44924989 0.05814888 0.13020981
v 0.26892529 -0.13519638 0.17431387
v -0.13234565 0.02620089 0.18656528
v -0.31075325 -0.24625593 0.14429604
v -0.25236577 -0.43691218 0.07862580
v 0.46988820 0.08196004 0.11579962
v 0.00369471 -0.61840785 0.00000000
v -0.29152081 -0.42918521 0.07385603
v 0.41462593 -0.31927601 0.07891914
v 0.55394972 0.10527670 0.04727174
v 0.09795610 0.49191268 0.08193344
v 0.02559266 0.42559540 0.12023788
v 0.13348870 0.44694049 0.10670170
v 0.43615703 -0.38318090 0.02935260
v -0.57155464 0.06438681 0.03562479
v -0.51474489 -0.23149771 0.04602892
v -0.50023432 0.02503325 0.09936805
v 0.14399774 -0.34181795 0.10714328
v -0.14774682 -0.33015218 0.11138223
v 0.09195275 0.23971851 0.18198731
v -0.07523969 0.45477757 0.10498401
v -0.18570863 -0.02188247 0.18730190
v 0.54170091 -0.13316555 0.05266335
v 0.17722945 0.58142674 0.00000000
v -0.07761306 0.60286283 0.00000000
v -0.60680664 -0.03539819 0.00000000
v 0.59932864 -0.10135340 0.00000000
v 0.60727406 0.02618292 0.00000000
v -0.52306062 -0.30963674 0.00000000
v -0.45731241 0.40041569 0.00000000
v 0.29883647 0.52930534 0.00000000
v -0.27730468 0.54089689 0.00000000
v 0.51031129 -0.14715328 0.07571959
v 0.32304029 -0.47653991 0.03151712
v 0.23202126 0.05316692 0.19371455
v 0.50059926 0.29398853 0.03049038
v 0.08436613 -0.49484783 0.04890129
v -0.37000277 -0.28305963 0.11538878
v 0.46771582 -0.20043647 0.09205935
v 0.44647047 -0.02945305 0.13312135
v -0.26715746 0.25091639 0.16505780
v 0.30674273 -0.27031900 0.13807044
v 0.35905323 -0.08172673 0.16585319
v -0.56732505 -0.13191483 0.02859056
v -0.42993873 -0.36425930 0.04581638
v 0.00916935 0.21909388 0.18351819
v 0.18827636 0.29634976 0.16495259
v -0.25487225 0.49140833 0.05249418
v -0.41296693 0.36534770 0.05917100
v 0.30525589 0.43260923 0.07292002
v -0.47199830 0.23577008 0.07894375
v -0.09145475 0.34293844 0.15459074
v -0.53345137 0.21435300 0.03617055
v 0.42252534 -0.14578954 0.13113167
v 0.20099954 0.48369081 0.07474637
v -0.59611666 0.11879523 0.00000000
v 0.40566403 0.45266327 0.00000000
v -0.40666271 0.25226977 0.11386035
v -0.58681106 0.03000678 0.02255458
v 0.31797528 0.32496419 0.12474189
v -0.50229629 -0.04908900 0.09665769
v -0.54406569 0.06341611 0.06171658
v 0.44387093 -0.28184421 0.07816543
v -0.21541656 0.35728924 0.13925603
v -0.12109630 0.49805445 0.07614610
v 0.50811319 0.22862361 0.05337013
v -0.01489254 0.55578646 0.04222965
v 0.07220608 0.29979407 0.16802740
v 0.52484990 0.18858409 0.05309698
v 0.16993414 0.43326471 0.11104109
v -0.37766540 -0.01787629 0.16441483
v 0.49208518 0.10081829 0.09869212
v -0.35190382 0.08651153 0.17094000
v 0.52310588 0.04623952 0.08107430
v 0.38784067 0.38839531 0.06087749
v 0.33326349 -0.11535063 0.16829019
v 0.25948926 0.39134209 0.11248353
v -0.27963273 0.35172290 0.12623402
v -0.17523348 -0.45450093 0.07569212
v -0.15420762 -0.29020500 0.12321084
v 0.15234855 -0.30189320 0.11976308
v -0.36309123 -0.17768805 0.14836190
v -0.60300517 -0.07649910 0.00000000
v -0.47540072 -0.37876314 0.00000000
v 0.51377952 0.32480448 0.00000000
v -0.33776820 -0.50535136 0.00000000
v -0.55705661 0.24321865 0.00000000
v 0.25593263 0.55133098 0.00000000
v 0.36909981 0.17989129 0.15108771
v -0.48511908 -0.25421917 0.06094969
v 0.01606851 0.57767147 0.02519930
v -0.39455614 0.42907816 0.02865974
v -0.42383547 0.39818742 0.03076185
v 0.06825955 -0.57463694 0.01574004
v 0.56756041 0.13441541 0.02789547
v -0.08124382 0.48669497 0.08636222
v 0.14286437 -0.55458227 0.02273104
v 0.28763589 0.11046960 0.18497640
v -0.16519151 -0.39196316 0.09844158
v -0.22370081 -0.30829970 0.13199360
v 0.15785897 -0.06305498 0.17560489
v -0.30051851 0.43873571 0.07208539
v -0.08244728 -0.60154736 0.00000000
v 0.20061319 0.41942590 0.11338816
v -0.27536391 0.04611437 0.18992295
v -0.44580700 -0.38239959 0.02241644
v 0.44207283 0.18081905 0.11533061
v 0.48747909 -0.12229052 0.09761366
v -0.49093307 0.16909276 0.08591260
v -0.22786173 0.47740149 0.07111588
v -0.50304898 0.24485763 0.05100911
v -0.16522973 0.55519999 0.02638712
v -0.05330117 -0.54657453 0.02787590
v -0.48529388 -0.01335811 0.11004896
v 0.07297750 0.13546922 0.19140824
v -0.17761602 0.44623602 0.10208328
v -0.60688978 0.03394369 0.00000000
v -0.57195485 0.20575470 0.00000000
v 0.44521592 0.34328485 0.04971238
v 0.03320434 -0.56935787 0.01897325
v 0.33247730 0.05073279 0.17847628
v -0.22680078 -0.17908816 0.16520080
v 0.33852276 0.44014569 0.05281282
v 0.45825695 0.36302844 0.02699901
v -0.15553673 -0.58208841 0.00000000
v -0.04968112 0.53787368 0.05426302
v -0.43166666 -0.30293273 0.07665816
v -0.05504455 0.56983747 0.02990989
v 0.36282705 0.02506692 0.17005821
v 0.57107329 0.20818903 0.00000000
v 0.57993902 0.09261751 0.02339208
v 0.35344472 -0.01564670 0.17237290
v 0.26860838 0.50019781 0.03949662
v 0.25809067 -0.50945550 0.03215993
v 0.56606339 0.06721870 0.04082556
v 0.29640168 -0.53067261 0.00000000
v -0.12756798 -0.56538290 0.01708379
v 0.42775831 0.38527320 0.03747141
v 0.27115904 0.52309612 0.01902432
v 0.58283109 0.04841472 0.02565405
v 0.06820389 0.11388580 0.19115150
f 111 843 212
f 369 97 89
f 325 809 221
f 89 713 416
f 438 620 163
f 556 438 158
f 616 235 751
f 592 215 169
f 644 618 177
f 400 670 618
f 490 692 344
f 561 765 178
f 422 367 631
f 446 227 580
f 817 694 562
f 500 596 346
f 441 798 570
f 565 635 154
f 696 135 294
f 142 754 345
f 502 358 185
f 489 502 818
f 420 773 95
f 803 359 64
f 20 355 16
f 244 184 355
f 740 546 184
f 700 361 425
f 11 15 509
f 437 619 720
f 693 583 482
f 278 801 352
f 778 699 417
f 583 639 279
f 844 560 17
f 439 657 229
f 493 649 8
f 585 761 60
f 585 434 289
f 492 781 23
f 213 280 571
f 421 646 577
f 819 221 369
f 115 111 549
f 612 64 53
f 108 460 395
f 128 401 547
f 549 212 108
f 130 589 377
f 257 120 589
f 130 377 136
f 335 203 725
f 625 805 335
f 527 806 252
f 806 527 127
f 139 252 472
f 128 271 138
f 710 370 139
f 271 247 138
f 159 368 597
f 368 148 650
f 150 159 597
f 299 616 751
f 368 159 299
f 438 556 299
f 118 472 124
f 133 530 267
f 319 139 472
f 788 248 146
f 623 327 141
f 161 704 432
f 524 160 375
f 375 156 191
f 626 314 704
f 173 246 297
f 375 191 524
f 173 297 186
f 767 174 653
f 186 511 173
f 476 410 553
f 828 312 530
f 201 408 132
f 464 408 254
f 145 645 301
f 591 537 141
f 645 454 301
f 777 301 155
f 157 499 240
f 153 507 432
f 348 777 688
f 157 641 440
f 440 707 499
f 161 563 170
f 820 723 422
f 171 227 532
f 815 342 580
f 164 640 563
f 112 210 728
f 728 226 293
f 122 462 402
f 122 443 462
f 134 374 522
f 811 147 454
f 680 443 590
f 564 539 305
f 551 603 140
f 436 190 362
f 436 641 305
f 430 172 514
f 207 679 110
f 261 541 465
f 262 211 117
f 262 107 683
f 614 541 262
f 402 614 122
f 519 121 211
f 131 531 316
f 121 273 628
f 388 747 140
f 238 595 642
f 703 551 365
f 551 703 149
f 135 233 599
f 429 647 565
f 453 390 98
f 390 453 107
f 99 274 91
f 99 320 386
f 101 320 260
f 608 656 93
f 260 656 102
f 601 101 666
f 193 526 103
f 373 608 526
f 103 433 595
f 435 357 727
f 695 802 357
f 630 105 771
f 119 822 630
f 81 394 545
f 752 534 87
f 399 92 91
f 91 752 399
f 376 78 609
f 444 86 774
f 196 538 249
f 249 468 328
f 85 309 328
f 718 651 242
f 328 706 85
f 96 718 307
f 776 810 60
f 82 343 646
f 83 307 242
f 79 743 266
f 270 604 63
f 59 604 69
f 69 550 79
f 51 322 598
f 48 391 59
f 43 258 48
f 59 317 231
f 840 48 231
f 612 53 286
f 70 724 407
f 550 339 80
f 544 610 253
f 681 28 39
f 392 748 467
f 41 322 51
f 28 300 19
f 383 508 308
f 39 303 544
f 364 300 24
f 303 536 237
f 15 652 509
f 16 437 20
f 769 574 13
f 62 371 457
f 724 593 787
f 332 708 50
f 50 46 332
f 471 46 50
f 748 392 40
f 265 782 37
f 708 265 37
f 32 467 383
f 308 349 469
f 508 383 27
f 404 760 478
f 349 308 18
f 814 739 7
f 552 701 10
f 206 336 61
f 627 411 68
f 662 521 71
f 37 47 455
f 516 749 25
f 782 517 37
f 611 22 288
f 654 334 372
f 716 699 4
f 236 638 445
f 334 712 236
f 61 323 676
f 741 518 42
f 475 518 673
f 605 411 323
f 250 321 42
f 452 379 45
f 661 310 512
f 389 804 34
f 804 310 34
f 189 684 296
f 189 298 26
f 655 38 548
f 363 21 445
f 8 813 581
f 624 451 29
f 66 412 673
f 394 77 204
f 73 57 263
f 204 333 73
f 452 529 57
f 58 523 315
f 78 75 264
f 49 251 525
f 393 753 535
f 65 376 609
f 398 72 302
f 326 535 753
f 23 451 657
f 575 789 179
f 830 473 182
f 35 842 546
f 244 20 24
f 43 840 35
f 414 136 285
f 311 136 377
f 664 722 796
f 7 504 449
f 24 682 244
f 825 439 12
f 172 757 632
f 771 802 338
f 557 698 633
f 478 615 188
f 702 296 813
f 296 382 189
f 433 116 595
f 160 524 587
f 255 156 327
f 760 469 615
f 589 120 401
f 305 779 564
f 34 505 192
f 192 378 259
f 32 383 194
f 198 195 146
f 51 391 258
f 257 115 549
f 827 396 31
f 389 34 192
f 264 538 774
f 197 46 392
f 803 266 613
f 402 481 330
f 313 540 137
f 86 399 200
f 464 537 132
f 61 406 202
f 528 202 455
f 274 98 329
f 274 272 453
f 77 66 204
f 545 73 607
f 312 201 132
f 208 77 84
f 85 242 651
f 622 540 477
f 709 110 210
f 519 324 121
f 79 74 69
f 602 691 341
f 498 175 643
f 592 169 235
f 216 509 672
f 690 621 217
f 554 219 613
f 275 442 220
f 325 100 212
f 292 222 552
f 786 223 725
f 649 772 224
f 400 644 225
f 463 297 176
f 336 471 50
f 384 662 62
f 553 293 226
f 201 123 408
f 768 446 175
f 165 514 663
f 154 658 513
f 500 230 596
f 95 695 648
f 695 832 338
f 317 612 231
f 49 44 302
f 636 494 839
f 696 496 233
f 266 743 234
f 616 833 235
f 411 627 807
f 638 778 417
f 21 512 659
f 18 769 13
f 303 27 748
f 758 193 238
f 760 404 239
f 447 665 25
f 130 678 257
f 499 688 240
f 397 240 155
f 241 674 90
f 196 309 444
f 718 96 503
f 266 803 74
f 590 388 243
f 546 740 35
f 792 245 183
f 148 714 650
f 744 685 295
f 327 788 195
f 75 249 538
f 459 527 252
f 472 806 124
f 748 544 303
f 408 464 132
f 254 313 137
f 395 785 120
f 327 156 788
f 191 314 405
f 256 114 205
f 312 828 337
f 391 51 63
f 389 192 259
f 600 260 92
f 101 758 666
f 390 104 304
f 614 465 541
f 605 68 411
f 531 122 614
f 57 73 333
f 57 403 263
f 317 69 74
f 726 200 87
f 88 268 534
f 726 409 78
f 181 694 269
f 559 269 418
f 270 70 407
f 330 622 110
f 412 77 208
f 593 52 55
f 274 453 98
f 386 109 272
f 365 628 273
f 488 275 220
f 276 142 690
f 483 635 570
f 485 721 572
f 721 765 277
f 694 168 269
f 775 278 419
f 733 279 3
f 504 7 729
f 634 420 497
f 698 125 633
f 281 705 568
f 781 380 281
f 461 282 351
f 487 566 671
f 660 12 439
f 124 284 118
f 225 463 400
f 509 216 11
f 812 790 620
f 167 664 796
f 838 288 22
f 749 516 288
f 36 839 289
f 434 585 232
f 707 171 640
f 508 291 18
f 222 814 7
f 552 10 746
f 554 800 416
f 496 696 381
f 456 770 129
f 833 685 555
f 151 533 744
f 189 795 684
f 296 510 382
f 246 653 297
f 378 548 38
f 229 624 382
f 556 470 148
f 300 364 19
f 300 30 682
f 137 645 254
f 535 302 72
f 810 67 398
f 536 28 19
f 104 390 261
f 595 193 103
f 113 642 381
f 843 831 218
f 126 115 678
f 416 826 89
f 152 539 144
f 641 436 594
f 149 340 603
f 243 306 152
f 96 584 648
f 308 194 383
f 651 94 309
f 396 804 45
f 661 34 310
f 247 650 138
f 527 271 127
f 714 148 311
f 604 550 69
f 267 591 141
f 412 475 673
f 191 405 166
f 65 315 523
f 58 38 251
f 747 316 628
f 59 231 48
f 318 457 610
f 472 385 319
f 320 101 386
f 741 42 321
f 253 322 39
f 68 605 56
f 113 456 542
f 545 607 81
f 376 65 523
f 523 326 753
f 156 255 314
f 328 196 249
f 534 674 88
f 752 87 399
f 465 679 261
f 243 144 590
f 774 538 196
f 805 515 203
f 547 401 785
f 197 265 332
f 197 332 46
f 66 379 333
f 123 201 226
f 476 226 201
f 10 576 372
f 334 236 579
f 725 223 335
f 335 127 625
f 336 50 406
f 336 206 521
f 337 205 410
f 489 338 106
f 211 109 519
f 339 270 407
f 764 387 340
f 387 764 362
f 740 43 35
f 761 585 494
f 571 668 213
f 687 844 17
f 634 82 571
f 343 497 450
f 179 750 575
f 631 692 174
f 142 345 690
f 621 690 345
f 346 269 168
f 347 482 846
f 693 491 5
f 161 432 348
f 188 426 739
f 280 634 571
f 775 637 278
f 353 495 428
f 245 158 354
f 244 355 20
f 142 276 808
f 802 105 727
f 105 103 727
f 731 185 358
f 832 106 338
f 480 115 126
f 746 10 372
f 6 282 578
f 362 190 387
f 815 514 172
f 21 363 505
f 364 652 19
f 24 437 364
f 766 655 29
f 647 784 135
f 273 121 324
f 782 265 447
f 366 167 587
f 511 166 173
f 277 631 367
f 532 768 367
f 299 556 368
f 650 597 368
f 370 150 459
f 151 744 370
f 457 371 55
f 780 654 491
f 468 209 706
f 209 719 588
f 93 94 608
f 373 102 656
f 397 779 240
f 327 623 153
f 537 145 623
f 166 524 191
f 409 609 78
f 376 753 75
f 134 199 462
f 147 811 522
f 26 378 192
f 58 458 38
f 452 333 379
f 673 379 66
f 687 380 781
f 756 829 36
f 294 770 696
f 770 456 113
f 382 510 229
f 194 308 469
f 467 32 197
f 62 318 384
f 392 384 318
f 701 576 10
f 504 729 3
f 519 542 324
f 133 319 385
f 99 386 272
f 387 603 340
f 388 131 316
f 389 452 804
f 529 259 458
f 390 304 98
f 390 107 261
f 391 48 258
f 391 63 604
f 467 27 383
f 384 392 46
f 322 253 52
f 393 72 468
f 674 821 88
f 395 120 257
f 396 321 31
f 396 310 804
f 477 540 313
f 783 302 44
f 398 67 72
f 250 586 33
f 399 87 200
f 444 93 600
f 428 644 177
f 785 401 120
f 257 589 130
f 199 481 462
f 402 330 465
f 458 403 529
f 516 404 677
f 404 478 292
f 406 61 336
f 406 455 202
f 141 327 195
f 660 224 283
f 123 254 408
f 409 726 268
f 476 337 410
f 61 676 206
f 323 807 676
f 56 518 68
f 412 208 76
f 171 413 227
f 460 290 415
f 550 270 339
f 221 97 369
f 405 173 166
f 176 490 575
f 211 121 117
f 638 581 14
f 9 780 567
f 380 687 606
f 483 799 755
f 283 772 566
f 772 649 775
f 95 497 420
f 719 577 83
f 646 691 82
f 532 723 171
f 820 170 563
f 818 669 617
f 636 602 341
f 732 344 561
f 279 733 423
f 562 793 759
f 425 11 216
f 745 349 13
f 543 739 426
f 801 837 214
f 557 816 119
f 808 427 142
f 495 722 428
f 129 365 273
f 429 513 149
f 757 187 479
f 236 659 579
f 431 22 360
f 255 153 704
f 193 595 238
f 116 822 496
f 232 810 398
f 776 60 506
f 756 289 434
f 503 608 94
f 357 435 96
f 305 539 436
f 362 594 436
f 672 720 619
f 510 660 229
f 439 492 657
f 102 101 260
f 276 690 441
f 798 441 629
f 36 220 442
f 611 677 746
f 131 590 443
f 14 363 445
f 445 21 659
f 580 643 446
f 768 532 446
f 365 747 628
f 469 760 665
f 447 32 194
f 92 320 91
f 788 146 195
f 288 838 448
f 448 517 749
f 639 5 449
f 449 222 7
f 374 147 522
f 450 83 717
f 657 624 229
f 655 766 525
f 535 49 302
f 398 783 232
f 309 93 444
f 452 389 529
f 388 140 243
f 124 786 284
f 522 811 199
f 397 454 147
f 455 47 528
f 708 406 50
f 456 129 273
f 457 55 610
f 371 62 474
f 753 376 523
f 378 458 259
f 139 459 252
f 597 459 150
f 461 351 180
f 461 3 729
f 711 589 401
f 481 199 540
f 463 750 400
f 464 254 645
f 145 537 464
f 70 598 52
f 264 774 200
f 200 726 264
f 26 548 378
f 41 466 30
f 466 682 30
f 467 197 392
f 209 67 776
f 469 349 615
f 469 665 194
f 268 81 409
f 88 81 268
f 173 405 246
f 470 556 158
f 470 311 148
f 609 263 65
f 65 263 403
f 45 741 321
f 107 262 541
f 74 79 266
f 828 385 256
f 202 323 61
f 338 489 771
f 473 791 182
f 283 742 12
f 474 62 71
f 475 76 627
f 210 112 709
f 476 553 226
f 678 414 126
f 740 184 244
f 245 354 183
f 114 256 118
f 15 769 715
f 210 477 728
f 340 513 658
f 80 79 550
f 478 188 814
f 479 500 168
f 359 803 219
f 115 480 111
f 287 495 592
f 481 622 330
f 481 402 462
f 296 702 510
f 45 321 396
f 558 846 734
f 491 693 347
f 418 736 559
f 596 755 346
f 277 768 721
f 181 486 694
f 742 487 791
f 220 606 488
f 345 633 738
f 630 689 119
f 344 575 490
f 491 576 5
f 347 780 491
f 23 657 492
f 705 756 434
f 699 716 637
f 417 8 581
f 421 761 341
f 796 722 495
f 735 495 353
f 822 573 496
f 95 584 497
f 343 634 497
f 762 572 498
f 499 164 688
f 707 440 413
f 563 161 348
f 246 170 767
f 187 764 230
f 668 571 501
f 501 730 668
f 502 489 106
f 307 718 242
f 504 279 639
f 427 808 599
f 795 505 363
f 506 60 761
f 577 719 506
f 507 777 432
f 136 311 143
f 714 377 711
f 6 700 2
f 361 574 228
f 508 18 308
f 15 11 228
f 429 565 513
f 430 594 362
f 663 580 227
f 331 415 515
f 33 47 517
f 517 448 33
f 349 18 13
f 518 475 68
f 42 518 56
f 451 23 568
f 109 211 683
f 745 13 520
f 6 578 520
f 521 662 336
f 147 374 779
f 523 58 326
f 315 65 403
f 366 587 524
f 466 41 258
f 294 784 129
f 431 835 22
f 251 49 326
f 568 766 451
f 526 435 103
f 193 373 526
f 806 127 223
f 527 459 247
f 455 708 37
f 313 728 477
f 55 52 253
f 322 41 681
f 321 250 31
f 528 56 605
f 528 586 56
f 143 470 245
f 600 86 444
f 529 389 259
f 267 198 133
f 385 828 133
f 300 681 30
f 117 316 531
f 531 131 122
f 532 367 723
f 93 309 94
f 248 160 533
f 685 744 533
f 534 329 674
f 87 268 726
f 535 72 393
f 589 711 377
f 63 51 598
f 392 318 40
f 156 314 191
f 438 812 620
f 537 623 141
f 591 132 537
f 249 75 393
f 774 196 444
f 190 539 152
f 539 564 144
f 540 811 137
f 683 107 453
f 88 394 81
f 325 819 100
f 324 456 273
f 739 729 7
f 543 578 282
f 472 118 385
f 544 40 610
f 315 403 458
f 73 545 204
f 3 461 180
f 158 438 163
f 143 285 136
f 370 710 151
f 114 118 284
f 118 256 385
f 612 317 64
f 515 805 331
f 547 625 128
f 38 655 251
f 548 26 298
f 549 395 257
f 306 140 603
f 452 57 333
f 552 222 701
f 552 677 292
f 301 454 397
f 272 274 99
f 221 809 97
f 581 638 417
f 555 796 287
f 101 102 758
f 597 650 247
f 686 689 489
f 698 818 617
f 799 162 736
f 845 442 737
f 692 631 561
f 632 759 342
f 563 348 164
f 170 820 767
f 779 305 157
f 374 680 564
f 565 154 513
f 647 429 784
f 566 742 283
f 699 778 567
f 780 4 567
f 434 783 705
f 569 667 484
f 799 798 162
f 570 276 441
f 280 213 350
f 175 572 721
f 762 485 572
f 427 816 754
f 573 233 496
f 574 520 13
f 58 251 326
f 701 449 5
f 576 491 654
f 646 717 577
f 577 506 421
f 520 426 745
f 722 225 644
f 372 579 360
f 579 431 360
f 580 342 643
f 580 663 815
f 748 27 467
f 508 237 291
f 8 417 493
f 581 813 14
f 582 250 33
f 582 31 250
f 499 157 440
f 583 1 482
f 583 423 1
f 450 307 83
f 585 289 494
f 19 715 536
f 586 528 47
f 586 42 56
f 587 685 533
f 587 167 555
f 588 83 242
f 588 85 706
f 439 825 492
f 155 301 397
f 145 507 623
f 401 128 711
f 590 131 388
f 680 590 144
f 591 312 132
f 591 267 530
f 592 735 215
f 592 235 287
f 593 371 787
f 593 70 52
f 594 430 514
f 704 161 626
f 596 154 755
f 658 596 230
f 475 412 76
f 749 782 25
f 247 459 597
f 159 150 295
f 435 503 96
f 598 322 52
f 598 70 63
f 827 310 396
f 356 647 599
f 599 233 427
f 600 93 656
f 601 666 519
f 109 601 519
f 602 501 691
f 603 551 149
f 603 387 306
f 478 814 292
f 604 59 391
f 99 91 320
f 198 710 319
f 605 323 202
f 202 528 605
f 166 366 524
f 606 763 488
f 72 67 468
f 607 73 263
f 607 409 81
f 158 245 470
f 500 479 187
f 85 651 309
f 503 526 608
f 608 373 656
f 78 376 75
f 607 609 409
f 784 703 129
f 610 40 318
f 610 55 253
f 542 666 238
f 516 611 288
f 611 746 360
f 286 840 612
f 234 800 613
f 402 465 614
f 123 313 254
f 533 160 587
f 248 375 160
f 86 92 399
f 253 39 544
f 505 795 192
f 426 520 578
f 258 41 51
f 262 117 531
f 25 239 516
f 616 159 295
f 818 686 489
f 619 437 16
f 169 812 751
f 11 425 361
f 621 345 738
f 660 283 12
f 622 481 540
f 622 210 110
f 623 507 153
f 541 261 107
f 45 379 741
f 379 673 741
f 108 290 460
f 460 331 785
f 394 204 545
f 84 77 394
f 298 29 548
f 625 547 805
f 625 127 271
f 626 161 170
f 626 246 405
f 293 112 728
f 627 68 475
f 169 751 235
f 291 237 536
f 769 18 291
f 134 522 199
f 190 436 539
f 681 300 28
f 628 316 117
f 217 629 441
f 630 433 105
f 561 277 765
f 631 174 422
f 694 817 479
f 844 781 492
f 633 345 754
f 420 280 797
f 356 635 565
f 483 755 635
f 636 341 494
f 637 493 699
f 716 801 637
f 9 778 712
f 638 14 445
f 358 106 834
f 834 773 569
f 583 693 639
f 639 449 504
f 616 295 833
f 164 707 640
f 723 820 640
f 641 157 305
f 2 351 282
f 642 113 238
f 28 303 39
f 303 237 27
f 264 75 538
f 477 210 622
f 839 36 442
f 340 149 513
f 643 342 697
f 643 175 446
f 225 722 664
f 644 400 618
f 645 145 464
f 645 137 454
f 717 646 343
f 646 421 691
f 344 732 789
f 647 356 565
f 647 135 599
f 648 357 96
f 224 702 649
f 493 775 649
f 552 746 677
f 242 85 588
f 459 139 370
f 715 652 15
f 364 720 652
f 346 168 500
f 346 418 269
f 170 246 626
f 653 174 490
f 4 347 841
f 654 372 576
f 334 9 712
f 655 525 251
f 151 248 533
f 656 260 600
f 116 433 822
f 777 507 301
f 658 154 596
f 658 230 340
f 543 426 578
f 427 233 573
f 201 312 476
f 742 566 487
f 3 279 504
f 274 752 91
f 752 274 329
f 659 236 445
f 659 431 579
f 468 249 393
f 375 248 788
f 660 439 229
f 660 510 224
f 661 21 505
f 176 653 490
f 297 463 186
f 471 336 662
f 662 71 62
f 662 384 471
f 514 165 594
f 663 227 413
f 60 232 585
f 531 614 262
f 122 131 443
f 503 435 526
f 790 812 169
f 366 511 664
f 256 205 337
f 840 43 48
f 665 239 25
f 665 447 194
f 666 542 519
f 243 152 144
f 299 751 438
f 158 163 354
f 667 797 350
f 730 501 602
f 669 502 185
f 423 583 279
f 670 400 750
f 419 836 671
f 227 446 532
f 198 267 195
f 518 741 673
f 674 241 821
f 674 329 90
f 282 6 2
f 66 77 412
f 362 764 675
f 187 757 675
f 382 298 189
f 568 23 281
f 44 766 568
f 783 398 302
f 549 111 212
f 677 404 292
f 679 104 261
f 679 465 330
f 683 453 272
f 319 133 198
f 680 144 564
f 680 374 134
f 681 39 322
f 681 41 30
f 682 24 300
f 466 740 682
f 317 59 69
f 683 272 109
f 683 211 262
f 271 527 247
f 397 147 779
f 152 306 190
f 299 159 616
f 795 189 26
f 14 684 363
f 833 295 685
f 686 557 689
f 813 8 702
f 86 600 92
f 225 186 463
f 517 782 749
f 687 17 763
f 687 781 844
f 688 164 348
f 688 155 240
f 755 418 346
f 689 557 119
f 630 771 689
f 356 570 635
f 754 142 427
f 690 217 441
f 667 569 797
f 280 420 634
f 691 421 341
f 501 82 691
f 692 490 174
f 693 482 347
f 694 479 168
f 562 486 793
f 695 357 648
f 834 832 773
f 496 381 116
f 696 233 135
f 825 12 473
f 697 498 643
f 824 697 759
f 698 617 125
f 698 557 686
f 699 567 4
f 699 493 417
f 700 6 361
f 815 632 342
f 576 701 5
f 701 222 449
f 502 106 358
f 702 8 649
f 702 224 510
f 703 365 129
f 703 429 149
f 704 314 255
f 704 153 432
f 705 281 756
f 705 44 568
f 706 328 468
f 706 209 588
f 707 413 171
f 707 164 499
f 235 833 287
f 64 317 74
f 829 606 220
f 234 613 266
f 708 332 265
f 708 455 406
f 710 139 319
f 710 146 151
f 458 378 38
f 711 138 714
f 711 128 138
f 32 447 265
f 9 334 654
f 712 638 236
f 713 89 97
f 343 82 634
f 714 138 650
f 714 311 377
f 769 15 228
f 715 291 536
f 4 841 716
f 717 343 450
f 717 83 577
f 94 651 718
f 671 566 419
f 419 278 836
f 209 776 719
f 719 83 588
f 167 366 664
f 143 311 470
f 720 509 652
f 720 364 437
f 721 485 765
f 722 644 428
f 723 640 171
f 146 248 151
f 511 366 166
f 664 511 225
f 413 440 165
f 663 413 165
f 373 193 758
f 724 70 593
f 609 607 263
f 507 145 301
f 594 165 641
f 726 78 264
f 268 87 534
f 727 357 802
f 727 103 435
f 684 813 296
f 584 95 648
f 450 497 584
f 543 461 729
f 11 361 228
f 109 386 601
f 730 602 54
f 732 561 178
f 733 3 180
f 734 482 1
f 735 592 495
f 418 799 736
f 737 442 275
f 738 633 125
f 190 306 387
f 739 543 729
f 330 110 679
f 740 244 682
f 43 466 258
f 657 451 624
f 462 443 134
f 98 90 329
f 770 113 381
f 324 542 456
f 839 494 289
f 239 404 516
f 55 371 593
f 742 473 12
f 430 362 675
f 628 117 121
f 743 79 80
f 318 62 457
f 298 382 624
f 744 295 150
f 349 745 615
f 745 188 615
f 394 821 84
f 34 661 505
f 29 298 624
f 655 548 29
f 530 312 591
f 312 337 476
f 372 360 746
f 677 611 516
f 520 574 6
f 747 388 316
f 747 551 140
f 582 835 827
f 748 40 544
f 604 270 550
f 749 288 448
f 237 508 27
f 46 471 384
f 395 549 108
f 750 176 575
f 750 179 670
f 642 116 381
f 642 595 116
f 535 326 49
f 753 393 75
f 838 33 448
f 250 42 586
f 529 403 57
f 372 334 579
f 148 368 556
f 754 557 633
f 816 427 573
f 755 154 635
f 829 281 380
f 756 36 289
f 757 479 817
f 172 675 757
f 758 102 373
f 758 238 666
f 759 697 342
f 632 817 759
f 760 615 478
f 760 239 665
f 761 494 341
f 761 421 506
f 269 559 181
f 762 498 424
f 763 606 687
f 764 187 675
f 764 340 230
f 277 561 631
f 765 823 178
f 766 44 525
f 766 29 451
f 150 370 744
f 767 653 246
f 767 422 174
f 313 123 728
f 768 175 721
f 768 277 367
f 769 291 715
f 769 228 574
f 103 105 433
f 770 294 129
f 770 381 696
f 771 489 689
f 772 283 224
f 772 419 566
f 70 270 63
f 367 422 723
f 832 95 773
f 797 773 420
f 209 468 67
f 774 86 200
f 536 303 28
f 775 493 637
f 775 419 772
f 5 639 693
f 776 506 719
f 777 155 688
f 777 348 432
f 778 638 712
f 778 9 567
f 779 157 240
f 779 374 564
f 780 9 654
f 780 347 4
f 82 501 571
f 781 281 23
f 782 447 25
f 783 44 705
f 783 434 232
f 437 24 20
f 784 429 703
f 784 294 135
f 547 785 331
f 785 395 460
f 47 33 586
f 37 517 47
f 238 113 542
f 314 626 405
f 223 127 335
f 787 371 474
f 458 58 315
f 443 680 134
f 175 498 572
f 788 156 375
f 731 834 484
f 141 195 267
f 789 575 344
f 790 169 215
f 428 177 353
f 791 473 742
f 792 143 245
f 486 562 694
f 636 845 794
f 795 26 192
f 795 363 684
f 796 495 287
f 796 555 167
f 797 280 350
f 188 745 426
f 798 629 162
f 798 483 570
f 551 747 365
f 799 418 755
f 799 483 798
f 307 450 584
f 800 554 613
f 826 416 800
f 225 511 186
f 715 19 652
f 801 278 637
f 801 214 352
f 204 66 333
f 802 695 338
f 802 771 105
f 803 64 74
f 803 613 219
f 92 260 320
f 804 452 45
f 153 255 327
f 805 547 331
f 805 203 335
f 146 710 198
f 806 223 124
f 806 472 252
f 196 328 309
f 807 323 411
f 808 356 599
f 463 176 750
f 809 325 218
f 810 232 60
f 810 776 67
f 265 197 32
f 601 386 101
f 22 611 360
f 679 207 104
f 653 176 297
f 96 307 584
f 165 440 641
f 140 306 243
f 574 361 6
f 811 540 199
f 811 454 137
f 812 438 751
f 684 14 813
f 720 672 509
f 685 587 555
f 503 94 718
f 814 188 739
f 814 222 292
f 344 692 561
f 512 21 661
f 431 659 512
f 752 329 534
f 128 625 271
f 815 663 514
f 815 172 632
f 816 557 754
f 816 573 119
f 817 562 759
f 817 632 757
f 818 698 686
f 818 502 669
f 808 276 356
f 230 500 187
f 606 829 380
f 837 801 716
f 697 424 498
f 819 325 221
f 820 422 767
f 820 563 640
f 172 430 675
f 821 394 88
f 44 49 525
f 822 119 573
f 822 433 630
f 110 709 207
f 823 765 485
f 136 414 130
f 143 792 285
f 824 759 793
f 226 728 123
f 570 356 276
f 473 830 825
f 825 844 492
f 461 543 282
f 773 797 569
f 826 800 234
f 827 31 582
f 835 512 827
f 828 530 133
f 828 256 337
f 697 824 424
f 829 756 281
f 829 220 36
f 100 108 212
f 257 678 115
f 43 740 466
f 830 182 560
f 844 825 830
f 124 223 786
f 831 111 480
f 331 460 415
f 832 834 106
f 832 695 95
f 310 827 512
f 833 555 287
f 636 54 602
f 834 569 484
f 834 731 358
f 130 414 678
f 835 431 512
f 582 838 835
f 836 278 352
f 837 716 841
f 837 558 214
f 838 22 835
f 838 582 33
f 108 100 290
f 442 845 839
f 840 286 35
f 840 231 612
f 846 837 841
f 325 843 218
f 636 794 54
f 842 35 286
f 347 846 841
f 843 111 831
f 843 325 212
f 821 847 84
f 844 830 560
f 126 414 285
f 53 64 359
f 98 304 90
f 845 737 794
f 845 636 839
f 846 482 734
f 846 558 837
f 847 821 241
