# D5 FDM result, topology from D5_remeshed_fem.off
v 0.60763139 -0.01585658 0.00000000
v 0.56069916 -0.23469938 0.00000000
v 0.56660736 -0.11797825 0.02386025
v 0.53246558 0.07607955 0.05862951
v 0.52309388 -0.02948233 0.07249301
v 0.51860616 -0.23900786 0.02947729
v 0.51383010 -0.10746664 0.07035000
v 0.47107661 0.17069851 0.08903671
v 0.49085894 0.06419867 0.09481358
v 0.47536714 -0.02815534 0.11064436
v 0.48273747 -0.31738350 0.02287697
v 0.46311801 0.30169210 0.04307766
v 0.45386016 -0.23536298 0.07859182
v 0.43017245 0.14593034 0.12288186
v 0.44717374 -0.31731727 0.04593613
v 0.41720343 -0.44205052 0.00000000
v 0.43580967 0.42371842 0.00000000
v 0.41689127 -0.24679616 0.09741714
v 0.38140243 -0.34989938 0.06666233
v 0.38914357 -0.43901340 0.01458753
v 0.38468185 0.10751675 0.15298029
v 0.38916461 -0.00784912 0.15853151
v 0.36580631 0.35386697 0.07572424
v 0.37321862 -0.41779196 0.03351918
v 0.37513338 -0.11806591 0.15407221
v 0.34624914 0.21388231 0.14466010
v 0.34404515 -0.26158392 0.12532452
v 0.34040490 -0.34592751 0.08711949
v 0.33911975 0.28521121 0.12279568
v 0.31567837 -0.40902505 0.06303457
v 0.30558223 0.03584251 0.18428194
v 0.33655261 -0.19158009 0.14959427
v 0.31554322 -0.03125290 0.18002211
v 0.32555051 0.12793396 0.17132644
v 0.29020290 -0.50693955 0.01525864
v 0.30066441 0.46381336 0.03944089
v 0.29951979 -0.10844087 0.17395170
v 0.28574578 0.25288645 0.15378104
v 0.29801969 -0.33924218 0.10394988
v 0.27298735 -0.27339566 0.13609456
v 0.28211980 -0.40894907 0.07355842
v 0.25401590 0.01134318 0.18939756
v 0.27831332 -0.47314749 0.03833259
v 0.27909818 0.34979052 0.11514016
v 0.26187143 0.08080780 0.18850159
v 0.26114560 -0.19837650 0.15883863
v 0.28741569 -0.06694296 0.18073196
v 0.24178211 -0.47263068 0.04757323
v 0.25096955 0.32133396 0.13711219
v 0.24714369 -0.16577965 0.16622459
v 0.24279104 -0.41087853 0.08024714
v 0.22193443 -0.35082507 0.10800545
v 0.23261209 -0.56156832 0.00000000
v 0.21588987 0.56820679 0.00000000
v 0.22141143 -0.31343904 0.12298822
v 0.23256972 -0.02140418 0.18717810
v 0.21481382 0.16400542 0.18621293
v 0.24806103 0.25760279 0.16173784
v 0.20686763 -0.47451632 0.05192580
v 0.19727388 0.44087259 0.08910688
v 0.19782597 -0.11886794 0.17077436
v 0.20227277 -0.25056280 0.14105084
v 0.20288221 -0.41214467 0.08252487
v 0.18971658 -0.53951127 0.01843839
v 0.19763049 0.22855018 0.17726701
v 0.17598121 0.09220623 0.19174686
v 0.17626677 0.39551353 0.11898443
v 0.19348887 -0.01708758 0.18569430
v 0.16968470 -0.48025015 0.05212050
v 0.18150096 -0.37338370 0.09860872
v 0.16480723 -0.22356401 0.14286846
v 0.19134717 0.36173928 0.13232028
v 0.17468083 0.15966369 0.18939039
v 0.15706912 -0.51505675 0.03504228
v 0.14149629 0.29317746 0.16455583
v 0.13439722 0.02254817 0.18633749
v 0.13308058 0.09705903 0.19139325
v 0.13151655 0.25083501 0.17649395
v 0.12881825 -0.48711259 0.05050849
v 0.10409823 -0.45630160 0.06476003
v 0.11416147 0.17827772 0.18856183
v 0.11260616 0.53404848 0.04087458
v 0.09133200 0.45522581 0.09532257
v 0.08999541 0.10160331 0.19126756
v 0.08244107 0.39480900 0.12907915
v 0.03312127 0.29162106 0.16818381
v 0.05237823 0.23037228 0.18211952
v 0.07657683 0.16879263 0.18948575
v 0.00000000 -0.60700101 0.00426415
v 0.00000000 0.15232795 0.19078821
v -0.01752361 0.24863287 0.17887286
v -0.00586463 0.28298232 0.17101212
v 0.01346630 0.35320284 0.14849804
v 0.01918683 0.38868438 0.13355649
v -0.00465655 0.51703008 0.05932433
v -0.00392809 0.45188071 0.10068803
v -0.04148512 -0.61245286 0.00000000
v -0.04099114 0.16862116 0.18960339
v -0.05165769 0.24549517 0.17894396
v -0.07450262 -0.51411599 0.04097396
v -0.07493423 0.30251504 0.16489004
v -0.05525358 0.33136068 0.15623827
v -0.09117049 0.42159260 0.11398019
v -0.08999541 0.10160331 0.19126756
v -0.10834362 0.45688097 0.09257131
v -0.09066785 0.54734350 0.03453899
v -0.11969402 0.17155983 0.18858611
v -0.12733382 -0.49810486 0.04563001
v -0.11419971 0.25109529 0.17699015
v -0.15277768 0.05741823 0.19023984
v -0.16137181 -0.55146456 0.01554265
v -0.14624003 -0.01104966 0.18270238
v -0.17432979 0.35360423 0.13923134
v -0.16626510 -0.21439822 0.14557216
v -0.19775894 -0.53750656 0.01853727
v -0.16515882 0.40716504 0.11448445
v -0.19621240 0.22666029 0.17669047
v -0.19953254 -0.23766981 0.14355971
v -0.18893720 0.46852227 0.07278193
v -0.19815672 -0.46864940 0.05691443
v -0.18657416 0.26562629 0.16830272
v -0.22484493 0.15040215 0.18729580
v -0.22454309 -0.04676951 0.18452018
v -0.19423906 -0.27863621 0.13150445
v -0.24124672 0.55791342 0.00000000
v -0.23261209 -0.56156832 0.00000000
v -0.21451128 -0.34508359 0.11083806
v -0.22695394 -0.40789815 0.08450195
v -0.24042082 0.32586656 0.13783468
v -0.24446772 -0.49374508 0.03492250
v -0.25014439 0.18106986 0.17952926
v -0.26233553 -0.09547025 0.17895065
v -0.26684891 -0.19389694 0.15937904
v -0.27649303 0.10888599 0.18512613
v -0.26035553 0.38198693 0.10536404
v -0.28130175 -0.49071615 0.02698318
v -0.26718432 0.00727045 0.18780523
v -0.26589550 -0.39899103 0.08291504
v -0.28621651 -0.27387719 0.13252188
v -0.30424971 0.23499543 0.15399163
v -0.31645835 -0.13266357 0.16734761
v -0.28853033 0.46388797 0.04430974
v -0.31975320 -0.48283811 0.01877199
v -0.32212197 0.16534158 0.16666083
v -0.31869060 -0.05714778 0.17700336
v -0.34083028 -0.20992287 0.14351729
v -0.31298486 0.06104985 0.18107303
v -0.32569742 -0.41774965 0.05408407
v -0.32468716 0.29755726 0.12312797
v -0.34624746 -0.31378424 0.10094704
v -0.35351641 -0.24539080 0.12801678
v -0.33936865 0.18888971 0.15585822
v -0.37604648 -0.09065634 0.15771894
v -0.37573046 0.34351401 0.07716457
v -0.36780039 0.01413732 0.16693043
v -0.39458006 -0.14931514 0.13987736
v -0.39237293 0.08866749 0.15155571
v -0.38152544 -0.43814708 0.01810304
v -0.36690345 -0.34401220 0.07698034
v -0.40514475 -0.21422793 0.11724574
v -0.43057741 -0.05333605 0.13618384
v -0.42708814 0.43250787 0.00000000
v -0.42050749 -0.43890867 0.00000000
v -0.43175121 0.01878698 0.13720218
v -0.44241979 0.12819208 0.11866286
v -0.45576769 -0.16683914 0.10026526
v -0.45915004 -0.23282333 0.07690635
v -0.46330483 0.30120986 0.04349725
v -0.46254008 -0.35081974 0.02001984
v -0.46551761 -0.05288763 0.11401486
v -0.47926489 0.05855573 0.10333143
v -0.46248619 0.19659391 0.08716719
v -0.48237200 -0.13989466 0.08755595
v -0.53097099 -0.04179398 0.06458496
v -0.55195889 0.09730269 0.03899688
v -0.54159090 -0.10590228 0.04705996
v -0.56033170 -0.23557536 0.00000000
v -0.60783815 0.00039636 0.00000000
v -0.59632093 -0.11776543 0.00000000
v 0.59004068 -0.14601137 0.00000000
v -0.51481909 0.32315424 0.00000000
v 0.48898762 0.36105189 0.00000000
v -0.36590597 -0.48536602 0.00000000
v 0.35627878 -0.49247620 0.00000000
v -0.12082618 0.59570831 0.00000000
v -0.50541093 -0.15332284 0.06659115
v -0.43619468 0.25931495 0.08063406
v 0.47473095 -0.15899833 0.08886364
v 0.38469043 0.21345737 0.12769980
v -0.36659394 0.19574995 0.14229065
v -0.42594689 -0.15785118 0.12169420
v 0.32709946 0.17339590 0.16199144
v -0.09111920 0.37939343 0.13506384
v 0.37468461 -0.18694473 0.13862948
v -0.32998254 -0.17140135 0.15626291
v 0.08380256 0.33354974 0.15467311
v 0.29763728 -0.19757787 0.15608187
v -0.30326365 -0.20379256 0.15338611
v -0.25571148 0.07831431 0.18984023
v 0.06215896 0.26597810 0.17500663
v -0.22760002 -0.08663554 0.17932156
v 0.22423829 -0.09006547 0.17824212
v -0.13779458 -0.36111987 0.10012960
v 0.15585605 0.12850651 0.19161476
v -0.16611786 -0.17543660 0.15405481
v 0.16592947 -0.14503296 0.16063935
v -0.11026256 0.06551871 0.18901724
v 0.11130672 0.06365963 0.18890131
v 0.14071712 0.40765170 0.11762654
v -0.16919059 0.01961878 0.18794852
v -0.15405894 0.23818668 0.17744110
v -0.12470970 -0.53485927 0.02783268
v 0.08484328 0.60188782 0.00000000
v 0.59559309 0.12139286 0.00000000
v -0.50067735 -0.34465858 0.00000000
v 0.49678737 -0.35024232 0.00000000
v -0.35689431 0.49203029 0.00000000
v -0.11670338 -0.59242719 0.00000000
v 0.13167903 -0.58844018 0.00000000
v 0.33586500 0.47159998 0.02040874
v -0.05864688 -0.58044852 0.01230441
v 0.49148037 -0.08335461 0.09279875
v -0.18544639 -0.31801400 0.11872495
v 0.46887216 0.23508858 0.06810378
v -0.51587288 -0.18580555 0.04911166
v -0.19304762 -0.06859193 0.17877131
v -0.49255247 0.09553353 0.08858845
v 0.47043282 -0.29092392 0.04321398
v 0.41288391 0.27906609 0.08660907
v -0.40636934 0.28637310 0.08752771
v 0.22514257 -0.49695578 0.03684789
v 0.22547396 0.41844536 0.09529890
v -0.23995021 0.41296648 0.09400171
v 0.06242656 -0.53622925 0.03191833
v -0.44507770 -0.32488461 0.04341795
v 0.44294615 0.07828063 0.12631142
v 0.36531401 -0.28389862 0.10827896
v -0.13082995 0.35543669 0.14288623
v 0.40410355 -0.12153947 0.14165122
v -0.37791558 0.04886435 0.16162340
v 0.03256690 0.13397208 0.19096167
v 0.06661557 0.42478555 0.11454313
v -0.31183829 0.19921633 0.16209993
v 0.36049084 -0.45345624 0.01945887
v -0.35673214 -0.47012468 0.01158705
v -0.48282026 -0.09421268 0.09614117
v -0.28235280 -0.36129409 0.09751400
v -0.37632474 -0.21343717 0.13055685
v 0.12422622 0.33342173 0.15238857
v 0.29196496 0.00729495 0.18590690
v 0.26724718 0.28748551 0.14709045
v -0.26107201 -0.30037125 0.12581344
v 0.25720884 -0.32961949 0.11568392
v -0.25814575 -0.03259076 0.18623873
v -0.39261897 -0.11707894 0.14751819
v -0.20016701 -0.19638864 0.15413272
v -0.20435905 -0.49907609 0.03914595
v 0.26158628 -0.44166834 0.06057378
v 0.28856283 0.18647844 0.17036922
v -0.03345906 0.30863098 0.16379531
v -0.12353826 0.13260509 0.19100980
v -0.16195432 0.19229847 0.18496325
v 0.18725448 0.19389242 0.18466803
v 0.10069127 0.27648281 0.17152404
v 0.31119460 -0.15394146 0.16395177
v 0.11332548 -0.52471702 0.03365549
v -0.29271656 -0.16622992 0.16431652
v 0.08347524 0.20430540 0.18573875
v -0.47549480 0.32700194 0.02349603
v 0.16091842 -0.41366569 0.08246549
v -0.24157746 -0.37196344 0.09901800
v -0.08022890 0.22880621 0.18195295
v -0.21476811 0.29278018 0.15608818
v -0.03692334 0.21208146 0.18475118
v 0.33736593 0.50562000 0.00000000
v -0.32400865 0.44149301 0.04408541
v -0.55758624 0.02795486 0.04163481
v 0.55203170 0.17549993 0.02264484
v 0.57362007 -0.07562668 0.02412386
v 0.05702976 0.57366034 0.01990262
v 0.33787055 0.39547187 0.06533442
v 0.54220566 -0.19987743 0.02417595
v 0.48364102 0.26416994 0.04523732
v -0.16045915 -0.25090089 0.13480468
v -0.29495218 -0.53147960 0.00000000
v 0.26347902 -0.54776472 0.00000000
v -0.46403333 -0.28774905 0.04899308
v 0.37825819 -0.04692880 0.16169024
v 0.26504288 0.45710561 0.05722891
v -0.09443335 -0.47518173 0.05699234
v 0.39765690 -0.28281637 0.09255823
v 0.46148731 -0.09622168 0.11247060
v -0.15518892 -0.05110410 0.17723590
v -0.24274723 0.35982186 0.12229108
v -0.38763192 -0.30739999 0.08577630
v 0.42051275 0.21132281 0.10917029
v -0.51100699 -0.11953435 0.06969601
v 0.36203194 0.24951106 0.12624438
v -0.38733080 -0.37214025 0.05156625
v 0.35029413 -0.38797835 0.06062017
v -0.33874758 -0.01208966 0.17506904
v 0.23318119 0.35667861 0.12526879
v 0.33066051 -0.30312709 0.11164470
v -0.04730481 0.12566528 0.19104017
v -0.37251893 0.12595323 0.15499645
v -0.33824733 0.21928494 0.14732106
v 0.04428034 0.45444770 0.09848777
v 0.39576878 -0.21752389 0.11993772
v 0.05634355 0.36633805 0.14276863
v 0.32877043 0.08835862 0.17544683
v -0.30407874 -0.45405500 0.04098313
v -0.23723473 -0.13126143 0.17211400
v -0.22945432 -0.00633532 0.18847411
v -0.42063823 -0.12202899 0.13267564
v 0.22922627 0.23345890 0.17221337
v -0.23778344 0.21849785 0.17360352
v 0.19584553 -0.50581942 0.03619246
v 0.24364850 -0.26109787 0.14131746
v -0.27446735 -0.23375068 0.14747399
v -0.04385582 0.27518418 0.17285346
v 0.27516141 0.04232635 0.18864663
v 0.26223169 -0.37222333 0.09538448
v 0.18974271 -0.07936189 0.17690272
v -0.18065890 0.29741858 0.15986086
v -0.09143450 -0.56215468 0.01752939
v 0.22978784 0.29161257 0.15380166
v -0.35946348 -0.13379634 0.15612277
v 0.10137196 0.36516211 0.14143467
v 0.00223573 0.18530983 0.18793715
v -0.17672692 0.08784239 0.19221947
v -0.15102516 -0.42681141 0.07778515
v 0.27797324 -0.17106815 0.16462061
v 0.19813912 0.12675222 0.19035985
v 0.46620233 0.04978788 0.11412883
v -0.17552237 -0.35468940 0.10590807
v 0.20612028 -0.16338755 0.16281682
v -0.20010164 -0.15453977 0.16363458
v -0.08647499 0.51279728 0.05827060
v 0.11929929 -0.41867033 0.07921768
v -0.36793841 0.28039755 0.11093698
v 0.19301043 0.50670833 0.04521446
v -0.51697865 0.16951937 0.05247446
v 0.08546401 0.51087501 0.05964815
v -0.57732180 -0.05308173 0.02315479
v -0.28354520 0.50090817 0.02262647
v -0.43994938 0.32819306 0.04589427
v 0.54830725 0.03678905 0.04874406
v -0.41454829 -0.01790906 0.14656850
v 0.43121339 -0.20866066 0.10321571
v 0.04220190 0.60637146 0.00000000
v 0.57708573 -0.19089116 0.00000000
v 0.58584660 0.16202202 0.00000000
v -0.54225647 -0.27463669 0.00000000
v -0.39251760 -0.46410912 0.00000000
v 0.38650444 -0.46912864 0.00000000
v -0.32289688 0.40249789 0.06864403
v -0.04453817 0.46736130 0.09070222
v -0.09411099 0.57619531 0.01521456
v 0.18062642 -0.57540870 0.00000000
v 0.42501752 0.00019699 0.14107640
v 0.50244276 -0.28223979 0.02459729
v -0.40412352 0.20287557 0.12095315
v 0.39596134 0.14370733 0.14131735
v 0.39454936 -0.38352049 0.04168061
v -0.25510511 0.28492192 0.15038301
v -0.45740244 -0.20305422 0.08855786
v -0.52752450 0.02614963 0.06786004
v -0.34651320 -0.38109088 0.06616003
v -0.02452578 -0.57919663 0.01512876
v -0.32822446 -0.27934840 0.12202652
v 0.19031821 -0.29032655 0.12797436
v 0.46324737 0.00694115 0.11819659
v -0.05511062 0.36166467 0.14463806
v -0.31095379 0.09998264 0.17911498
v -0.39998950 -0.18494168 0.12855528
v 0.17195943 0.25844570 0.17223126
v -0.26616323 -0.46123391 0.04864809
v 0.30626800 0.21615288 0.15830296
v 0.21930939 0.08870663 0.19099872
v 0.36416070 0.41623075 0.04054168
v -0.18951935 0.38264093 0.12338638
v 0.39886779 0.24706366 0.10835159
v 0.35899820 -0.22437246 0.13325086
v 0.23592549 -0.22467791 0.15105221
v -0.23568927 -0.21787021 0.15200039
v -0.07880139 0.26399738 0.17470425
v -0.36968221 0.23469589 0.12785582
v -0.27667323 0.20958172 0.16846148
v 0.28959061 0.14976251 0.17643610
v -0.08360884 0.14817200 0.19074441
v 0.22363538 -0.44327294 0.06618260
v 0.27701140 -0.23696528 0.14691354
v 0.16729301 0.33005305 0.14924216
v 0.11146334 0.13816729 0.19102953
v -0.16814526 -0.48317492 0.05124671
v 0.29957575 0.06765038 0.18403554
v -0.34283624 0.03587780 0.17418509
v 0.21290608 0.38972646 0.11430884
v 0.02251245 0.25666036 0.17667502
v -0.55253324 -0.17135723 0.02383708
v -0.21167734 -0.44127750 0.06981725
v -0.20085989 0.11889339 0.19144684
v 0.22477227 0.20204535 0.17942168
v 0.43033861 -0.10859026 0.12987738
v -0.45254431 -0.12852335 0.11139845
v 0.23495344 -0.12951636 0.17237211
v 0.13197607 -0.37922490 0.09355084
v -0.25072532 -0.06476095 0.18347742
v 0.12193264 0.21379624 0.18405587
v -0.16586216 -0.13417043 0.16299185
v 0.18020816 -0.04621853 0.18103989
v 0.15383285 0.05819583 0.19019960
v -0.46112351 0.09352202 0.11196780
v -0.25638513 -0.52025614 0.01706620
v -0.11288223 -0.43863779 0.07196216
v 0.04852406 -0.61057889 0.00000000
v 0.48199718 0.13417784 0.09017630
v -0.44816626 0.36252375 0.02370008
v 0.53662469 0.21650676 0.02296360
v 0.02827697 0.54665825 0.03903205
v 0.15988212 0.49014575 0.06402032
v -0.51417128 -0.01042784 0.08001215
v 0.60516715 -0.05692155 0.00000000
v -0.58628982 0.16041063 0.00000000
v 0.52089852 -0.31326044 0.00000000
v 0.49575346 -0.18288877 0.06601107
v -0.25621019 0.44504115 0.06853158
v -0.53173548 -0.24484700 0.01778861
v -0.31227035 0.33633951 0.11036030
v -0.43662131 0.18980754 0.10670514
v 0.39829649 0.03315805 0.15344433
v -0.39532748 -0.05399347 0.15371409
v -0.13638132 0.43113915 0.10463365
v 0.26115905 0.42267053 0.08078293
v -0.04657825 0.43427011 0.10963344
v -0.38905967 0.16310362 0.14012024
v 0.40858187 -0.41305180 0.01886847
v -0.41044644 -0.40158559 0.02359281
v 0.42732044 0.30977549 0.06290949
v -0.42812995 0.09138152 0.13313206
v -0.35744504 0.45329588 0.02205494
v 0.30181445 0.49684208 0.01841002
v -0.26339533 0.14438373 0.18331788
v 0.04382612 0.32725098 0.15740090
v 0.42027339 0.11071109 0.13503706
v -0.52281493 0.09699465 0.06371652
v 0.35459681 -0.15318220 0.15384081
v 0.34735117 -0.05064508 0.17179469
v 0.52019841 -0.06856778 0.07152587
v 0.06398683 0.48470330 0.07879417
v 0.35206935 0.31948478 0.10100954
v 0.24749410 0.12759989 0.18618247
v -0.08011206 0.18996483 0.18739993
v -0.30623650 0.01931734 0.18304639
v 0.26137767 -0.09901882 0.17805441
v -0.19695209 0.32474302 0.14754040
v 0.22177240 -0.28248411 0.13365941
v 0.26293579 0.21772739 0.16917847
v -0.29806734 -0.31732496 0.11361438
v -0.13839545 -0.46231287 0.06211128
v 0.55633098 -0.15981734 0.02362068
v -0.23983967 0.11384954 0.18932342
v -0.53192168 -0.14454841 0.04710732
v -0.28092266 -0.06164283 0.18237809
v -0.16196815 0.12408731 0.19185838
v 0.29948716 -0.43939777 0.05119555
v 0.32036069 -0.23079062 0.14229026
v 0.14546105 0.36959034 0.13532773
v 0.40993556 -0.18058764 0.12431506
v -0.34257006 -0.44532512 0.03126982
v 0.23024676 -0.19207478 0.15918641
v -0.23971493 -0.26507397 0.13832710
v 0.47777059 0.33037771 0.02050890
v 0.15860219 -0.26257581 0.13136084
v 0.17330341 0.01934726 0.18800928
v -0.19800478 -0.11160994 0.17192534
v -0.20290352 0.01631507 0.18937965
v 0.45306775 -0.13379535 0.11057027
v -0.46616963 0.26966241 0.05552991
v -0.19651574 -0.57117844 0.00000000
v -0.21676411 0.08144035 0.19184120
v 0.57846037 0.00916648 0.02402635
v -0.38816937 0.39662649 0.03977328
v -0.03797936 0.60665059 0.00000000
v -0.60335088 0.07372291 0.00000000
v -0.53711790 0.28455535 0.00000000
v 0.53693402 0.28490213 0.00000000
v 0.37230456 0.48047546 0.00000000
v -0.13241063 0.52615436 0.04353383
v -0.54982477 -0.06810992 0.04577065
v 0.52205988 0.01056212 0.07337899
v 0.40588547 0.34797935 0.05638706
v 0.50180174 0.15829033 0.06824537
v 0.23064926 0.48408701 0.05058026
v -0.50472080 -0.27322602 0.02659351
v -0.20198394 0.41190825 0.10498899
v 0.04412154 0.51442486 0.06011172
v -0.56644492 0.12920614 0.02160829
v -0.41307208 0.05348825 0.14518100
v -0.43707060 0.29464824 0.06435255
v 0.14314188 0.55735934 0.02105750
v -0.12707506 0.56387519 0.01923307
v -0.01272910 0.41234528 0.12212269
v 0.54341343 -0.09233555 0.04770403
v 0.35994527 0.13982738 0.15771140
v 0.16420153 0.45815250 0.08494153
v -0.35805123 -0.05464971 0.16720132
v 0.38026969 -0.25359826 0.11424273
v 0.45860230 -0.35012279 0.02280337
v 0.43436997 0.24231735 0.08880645
v -0.48411872 -0.17715106 0.07693163
v 0.36740864 0.06904854 0.16435560
v -0.35080407 0.32230174 0.10084030
v -0.45472248 0.16264686 0.10279150
v -0.12533452 -0.39989093 0.08604149
v 0.40059045 -0.08396950 0.14855724
v 0.32528006 -0.07584965 0.17422355
v 0.21435639 0.01613262 0.18962554
v -0.14562039 0.28161014 0.16763790
v 0.48812420 -0.21958629 0.05977260
v 0.16617236 -0.18423098 0.15215020
v -0.28722388 0.07908563 0.18597258
v 0.21113931 0.26078992 0.16716595
v -0.42920223 -0.19364921 0.11001294
v 0.28337820 0.31316813 0.13200314
v -0.05268646 0.39796062 0.12814043
v -0.25430428 -0.33453107 0.11341372
v 0.24852736 -0.05959745 0.18341970
v 0.25502806 0.17464687 0.17937037
v -0.26163275 -0.16035377 0.16740727
v -0.20940322 0.18766452 0.18325531
v -0.51019053 0.06067052 0.07915088
v -0.39040054 -0.24326493 0.11362574
v 0.04380783 0.19483659 0.18717792
v 0.21061240 0.32632541 0.14399396
v 0.37127036 -0.31419566 0.09034983
v -0.29929463 -0.09571477 0.17602230
v 0.10454388 0.30755031 0.16261325
v -0.35492932 0.16181419 0.15575421
v -0.23474713 0.03917669 0.19073128
v -0.15042980 0.15505038 0.18967804
v -0.15785213 0.32138549 0.15383016
v 0.52526492 -0.17093404 0.04611928
v 0.28637429 -0.30233596 0.12338290
v 0.14125501 0.15812176 0.19016170
v 0.32691711 -0.51243782 0.00000000
v -0.18894347 -0.41678171 0.08234118
v 0.32422915 0.25094478 0.14174151
v -0.16397523 -0.51766878 0.03332069
v 0.14463949 -0.45060544 0.06684527
v -0.29532498 0.27294081 0.14356723
v 0.46915908 -0.05942518 0.11263847
v -0.16469385 -0.09364735 0.17142977
v 0.09085643 -0.59930855 0.00000000
v -0.44456726 -0.26274460 0.07414100
v -0.36591150 -0.40935947 0.04138702
v -0.20715132 0.49955080 0.04648561
v 0.60284495 0.07775159 0.00000000
v -0.48933694 0.36057833 0.00000000
v 0.46077695 0.39642397 0.00000000
v -0.57665743 -0.01027417 0.02572593
v -0.52368617 0.25399655 0.02032519
v -0.44900366 -0.01647718 0.12707775
v -0.33570389 0.12935655 0.16836712
v -0.33810905 0.36042052 0.08660594
v 0.51905167 0.25540658 0.02290427
v 0.50894632 0.08006164 0.07824551
v 0.32409951 0.35527066 0.09487672
v -0.01777985 0.58392479 0.01487125
v -0.35823720 0.41703851 0.04323465
v 0.09980406 0.56709008 0.02051979
v -0.57749752 0.09692631 0.01806719
v -0.21474787 0.44145057 0.08372490
v 0.47919749 -0.25802458 0.05135625
v -0.57197213 -0.09212553 0.02342665
v 0.49633858 -0.00985739 0.09501036
v 0.12843110 0.47291564 0.08064099
v 0.51432568 -0.20281283 0.04541207
v 0.43444715 0.04033986 0.13425912
v -0.50506777 0.13211096 0.07192004
v 0.45674312 0.14880361 0.10563062
v 0.32734790 0.01134830 0.17927536
v 0.57743501 -0.03353821 0.02425857
v 0.02120909 0.48488681 0.08051406
v 0.22981931 0.45002455 0.07404189
v 0.27200492 -0.02677410 0.18588830
v -0.42815276 -0.23219770 0.09712371
v 0.10487979 0.41947179 0.11483324
v -0.22925587 -0.46686346 0.05376304
v -0.28768250 0.17324676 0.17404074
v -0.27827531 -0.13079686 0.17242635
v -0.48344711 -0.31518528 0.02328164
v 0.18533724 -0.32897733 0.11475920
v -0.42329898 0.16268650 0.12229542
v -0.12876159 0.39616469 0.12427928
v -0.40836837 0.32137580 0.06972121
v -0.32484195 -0.35183538 0.09008012
v 0.22254040 -0.38435454 0.09425268
v -0.27914616 0.40865079 0.08296623
v 0.00446072 0.31766043 0.16099953
v -0.10648367 0.28268957 0.16963161
v 0.18570012 0.54367531 0.02208666
v -0.33392652 0.25743223 0.13545703
v 0.18485624 -0.44608937 0.06802910
v 0.21173429 -0.05239100 0.18269133
v 0.36828668 0.44583971 0.02128525
v 0.15005625 0.18748126 0.18739124
v -0.01882143 0.37626254 0.13900919
v 0.16013931 0.22222894 0.18146698
v 0.25086771 -0.29446451 0.13024308
v 0.41372037 -0.04001409 0.14622860
v 0.22689477 -0.52635337 0.02014356
v 0.10186959 -0.56273340 0.01636926
v -0.18490015 0.15491164 0.18912350
v 0.44308184 -0.17109790 0.10751436
v -0.40683388 -0.33501011 0.06113848
v -0.19892329 0.57436651 0.00000000
v -0.57496589 -0.19718409 0.00000000
v 0.44501001 -0.41404521 0.00000000
v -0.44730964 -0.41155976 0.00000000
v -0.31854054 0.51768649 0.00000000
v -0.19221054 0.05031646 0.19113229
v -0.33820944 -0.09448284 0.16848692
v 0.37628559 0.28339442 0.10556979
v -0.20226263 -0.38151316 0.09688104
v -0.44441031 -0.08993223 0.12359196
v 0.14785300 -0.01826917 0.18171708
v -0.22647787 0.25628116 0.16561278
v -0.39299428 0.46370557 0.00000000
v -0.14865063 0.46385785 0.08324381
v -0.54409687 -0.00744590 0.05460248
v -0.49308462 0.20366449 0.06102292
v -0.24427908 0.52023487 0.02282892
v 0.07113972 0.54120052 0.04030751
v -0.36516944 0.38049642 0.06114028
v 0.23137222 0.52372465 0.02393432
v 0.53350910 0.14569411 0.04494471
v 0.45614479 0.11402661 0.11267123
v 0.54833103 -0.05162629 0.04830849
v -0.46498945 0.02109455 0.11622186
v -0.40867059 0.12696347 0.13802284
v -0.15778532 0.37950132 0.12987599
v -0.53581414 0.13250919 0.04592384
v -0.54100258 -0.21078437 0.02189555
v -0.29529533 -0.02291676 0.18332978
v 0.12301143 0.50325261 0.06065489
v -0.29832565 0.37363160 0.09608987
v -0.01579251 0.48433153 0.08086288
v 0.48688062 0.19740955 0.06829804
v -0.30592889 -0.38990535 0.07693241
v 0.05025680 0.39964436 0.12788945
v 0.42081661 -0.34990101 0.04517597
v -0.51977331 -0.07973360 0.06964840
v 0.49324922 0.02827848 0.09601391
v 0.30283703 0.28531352 0.13710724
v -0.02420368 0.34165838 0.15280886
v 0.39035532 0.31624706 0.08242962
v -0.38235029 0.31140113 0.09016024
v 0.40843692 0.07332925 0.14563533
v 0.44850273 0.27234931 0.06641874
v 0.35364967 0.10683701 0.16578304
v 0.20085918 -0.20663295 0.15218703
v -0.47413846 0.13001614 0.09653803
v -0.48463616 -0.21342709 0.06518973
v 0.39039953 -0.15120363 0.14146002
v -0.11746397 0.31435517 0.15963874
v 0.00110758 0.60783726 0.00000000
v 0.13010299 0.59375125 0.00000000
v -0.15830503 0.58686191 0.00000000
v -0.58688796 -0.15820837 0.00000000
v 0.55528694 0.24723220 0.00000000
v 0.47138885 -0.38374460 0.00000000
v 0.19554119 0.05419203 0.19113388
v 0.03738526 0.16172401 0.19025390
v -0.43537917 0.22206125 0.09610828
v 0.16567706 -0.10429711 0.16946155
v 0.43781761 -0.07004757 0.13104980
v -0.22732980 -0.52265862 0.02201358
v -0.13575484 0.09475314 0.19137555
v -0.29984583 0.13711574 0.17731076
v 0.30852175 -0.37771436 0.08198380
v 0.33677685 -0.43007358 0.04263511
v -0.11857024 0.21186437 0.18383667
v 0.40759391 0.17868995 0.12687608
v -0.40809167 -0.27108757 0.09228858
v -0.17465032 0.52218002 0.03869539
v 0.39712940 0.41759125 0.02315042
v -0.39790572 0.01649827 0.15464682
v -0.16198240 0.49529824 0.05967499
v -0.32156508 0.47835766 0.02237888
v 0.15301288 0.52291764 0.04231722
v -0.55598169 -0.03613078 0.04331305
v 0.55004467 -0.00989809 0.04871934
v -0.49686744 0.28614373 0.02688618
v -0.04682278 0.49940186 0.07006874
v -0.22483538 0.38477578 0.11448928
v -0.55132009 0.16851278 0.02504346
v -0.20544266 0.53776410 0.02163998
v 0.51404321 0.11398943 0.06831416
v 0.54240674 -0.27433974 0.00000000
v 0.49662992 -0.04655697 0.09342098
v 0.45436141 0.20616092 0.08948064
v -0.28419103 0.31162578 0.13156998
v -0.41047293 -0.08805395 0.14343624
v 0.29263944 0.39046337 0.08787379
v 0.11506693 0.39148133 0.12819142
v -0.44702908 0.05622872 0.12567899
v 0.27218980 -0.13815258 0.17118870
v -0.13234565 0.02620089 0.18656528
v -0.31455284 -0.24209413 0.13947352
v -0.24832064 -0.43424411 0.06832728
v 0.46931269 0.08088223 0.10906906
v 0.00369471 -0.61840785 0.00000000
v -0.28659695 -0.42626029 0.06296122
v 0.40992207 -0.31585997 0.06919313
v 0.54643999 0.10579432 0.04210727
v 0.09838641 0.48577820 0.07524841
v 0.02715607 0.42235176 0.11687059
v 0.13311811 0.44064271 0.10017918
v 0.43310272 -0.38234151 0.02166747
v -0.56952460 0.06507040 0.02843504
v -0.50957643 -0.22980922 0.03957353
v -0.49689296 0.02367839 0.09280065
v 0.14399774 -0.34181795 0.10714328
v -0.14774682 -0.33015218 0.11138223
v 0.09207585 0.24018417 0.17978783
v -0.07414117 0.45239062 0.09819693
v -0.18861076 -0.02114012 0.18490722
v 0.53552708 -0.13255298 0.04698115
v 0.17722945 0.58142674 0.00000000
v -0.07761306 0.60286283 0.00000000
v -0.60680664 -0.03539819 0.00000000
v 0.59932864 -0.10135340 0.00000000
v 0.60727406 0.02618292 0.00000000
v -0.52306062 -0.30963674 0.00000000
v -0.45731241 0.40041569 0.00000000
v 0.29883647 0.52930534 0.00000000
v -0.27730468 0.54089689 0.00000000
v 0.50526857 -0.14595213 0.06874298
v 0.32128635 -0.47263240 0.02422048
v 0.23675714 0.04923166 0.19104041
v 0.49903464 0.29359993 0.02225747
v 0.08436613 -0.49484783 0.04890129
v -0.36932429 -0.27765270 0.10845878
v 0.46491630 -0.19665802 0.08479808
v 0.44801781 -0.03174536 0.12801919
v -0.26634585 0.24683492 0.16049018
v 0.30571492 -0.26888296 0.13260894
v 0.36121772 -0.08193992 0.16425086
v -0.56361720 -0.13162098 0.02376397
v -0.42620947 -0.36092100 0.03634218
v 0.01098473 0.22080794 0.18332428
v 0.18894048 0.29378583 0.15965952
v -0.25065036 0.48321443 0.04489511
v -0.40657301 0.36152570 0.04891077
v 0.29900793 0.42806534 0.06264620
v -0.46553300 0.23274312 0.07147229
v -0.08764322 0.34108712 0.15147587
v -0.53018677 0.21264881 0.02919439
v 0.42220443 -0.14480954 0.12717511
v 0.19622860 0.47248654 0.06839154
v -0.59611666 0.11879523 0.00000000
v 0.40566403 0.45266327 0.00000000
v -0.40377484 0.24816133 0.10479470
v -0.58707408 0.03177214 0.01626153
v 0.31402525 0.31875258 0.11823777
v -0.49990865 -0.04891785 0.08934556
v -0.54006473 0.06244716 0.05388961
v 0.43969397 -0.27865221 0.06919876
v -0.21186293 0.35568533 0.13182595
v -0.11966587 0.48956969 0.07040424
v 0.50263823 0.22600206 0.04592150
v -0.01365717 0.55522276 0.03371476
v 0.07146066 0.30054163 0.16590052
v 0.51927163 0.18666655 0.04577597
v 0.16838220 0.42692683 0.10347585
v -0.37917252 -0.01814821 0.16210327
v 0.48757006 0.09792761 0.09285073
v -0.34999848 0.08434976 0.16867793
v 0.51680423 0.04905921 0.07552231
v 0.38284073 0.38556465 0.04851367
v 0.33811994 -0.11540959 0.16565216
v 0.25134204 0.38846687 0.10385045
v -0.27364627 0.34867844 0.11800253
v -0.17623200 -0.45039998 0.06752909
v -0.15420762 -0.29020500 0.12321084
v 0.15234855 -0.30189320 0.11976308
v -0.36700351 -0.17777803 0.14398579
v -0.60300517 -0.07649910 0.00000000
v -0.47540072 -0.37876314 0.00000000
v 0.51377952 0.32480448 0.00000000
v -0.33776820 -0.50535136 0.00000000
v -0.55705661 0.24321865 0.00000000
v 0.25593263 0.55133098 0.00000000
v 0.37062026 0.17754302 0.14466464
v -0.47815145 -0.25023907 0.05566291
v 0.01615392 0.57881622 0.01820247
v -0.39067225 0.42672047 0.02147702
v -0.41970873 0.39678637 0.02253306
v 0.06739202 -0.57572765 0.01366760
v 0.56484473 0.13393836 0.02173725
v -0.07998545 0.48004585 0.08072166
v 0.14566820 -0.55118367 0.01750810
v 0.29232782 0.10733850 0.18173030
v -0.16364064 -0.39045342 0.09232410
v -0.22525108 -0.30749265 0.12427625
v 0.15785897 -0.06305498 0.17560489
v -0.29444218 0.43268721 0.06207530
v -0.08244728 -0.60154736 0.00000000
v 0.19656858 0.41485164 0.10500083
v -0.27772793 0.04728435 0.18767522
v -0.44441304 -0.38072238 0.01613585
v 0.44074058 0.17739344 0.10828173
v 0.48379853 -0.12119648 0.09136118
v -0.48506200 0.16613170 0.07944046
v -0.22372949 0.46812498 0.06374969
v -0.49615107 0.24319541 0.04428848
v -0.16615346 0.55185026 0.02075345
v -0.05330117 -0.54657453 0.02787590
v -0.48236295 -0.01406230 0.10444981
v 0.06931480 0.13623756 0.19109323
v -0.17611035 0.43806563 0.09477401
v -0.60688978 0.03394369 0.00000000
v -0.57195485 0.20575470 0.00000000
v 0.44305743 0.33901375 0.03825087
v 0.03320434 -0.56935787 0.01897325
v 0.33225923 0.04946719 0.17762313
v -0.23354751 -0.17629217 0.16250610
v 0.33445963 0.43688028 0.04206167
v 0.45924992 0.36178582 0.01741446
v -0.15553673 -0.58208841 0.00000000
v -0.04944864 0.53390833 0.04668551
v -0.42639378 -0.29865988 0.06840122
v -0.05444805 0.57201858 0.02108689
v 0.36197360 0.02314282 0.16885236
v 0.57107329 0.20818903 0.00000000
v 0.57440048 0.09380373 0.02071319
v 0.35383946 -0.01701268 0.17131911
v 0.26688349 0.49110768 0.03428877
v 0.25436400 -0.50419830 0.02671439
v 0.55646687 0.07263912 0.03838343
v 0.29640168 -0.53067261 0.00000000
v -0.12992068 -0.56465604 0.01236823
v 0.42626135 0.38178047 0.02658866
v 0.27099766 0.51870079 0.01542737
v 0.57828774 0.05246226 0.02200817
v 0.06820389 0.11388580 0.19115150
f 111 843 212
f 369 97 89
f 325 809 221
f 89 713 416
f 438 620 163
f 556 438 158
f 616 235 751
f 592 215 169
f 644 618 177
f 400 670 618
f 490 692 344
f 561 765 178
f 422 367 631
f 446 227 580
f 817 694 562
f 500 596 346
f 441 798 570
f 565 635 154
f 696 135 294
f 142 754 345
f 502 358 185
f 489 502 818
f 420 773 95
f 803 359 64
f 20 355 16
f 244 184 355
f 740 546 184
f 700 361 425
f 11 15 509
f 437 619 720
f 693 583 482
f 278 801 352
f 778 699 417
f 583 639 279
f 844 560 17
f 439 657 229
f 493 649 8
f 585 761 60
f 585 434 289
f 492 781 23
f 213 280 571
f 421 646 577
f 819 221 369
f 115 111 549
f 612 64 53
f 108 460 395
f 128 401 547
f 549 212 108
f 130 589 377
f 257 120 589
f 130 377 136
f 335 203 725
f 625 805 335
f 527 806 252
f 806 527 127
f 139 252 472
f 128 271 138
f 710 370 139
f 271 247 138
f 159 368 597
f 368 148 650
f 150 159 597
f 299 616 751
f 368 159 299
f 438 556 299
f 118 472 124
f 133 530 267
f 319 139 472
f 788 248 146
f 623 327 141
f 161 704 432
f 524 160 375
f 375 156 191
f 626 314 704
f 173 246 297
f 375 191 524
f 173 297 186
f 767 174 653
f 186 511 173
f 476 410 553
f 828 312 530
f 201 408 132
f 464 408 254
f 145 645 301
f 591 537 141
f 645 454 301
f 777 301 155
f 157 499 240
f 153 507 432
f 348 777 688
f 157 641 440
f 440 707 499
f 161 563 170
f 820 723 422
f 171 227 532
f 815 342 580
f 164 640 563
f 112 210 728
f 728 226 293
f 122 462 402
f 122 443 462
f 134 374 522
f 811 147 454
f 680 443 590
f 564 539 305
f 551 603 140
f 436 190 362
f 436 641 305
f 430 172 514
f 207 679 110
f 261 541 465
f 262 211 117
f 262 107 683
f 614 541 262
f 402 614 122
f 519 121 211
f 131 531 316
f 121 273 628
f 388 747 140
f 238 595 642
f 703 551 365
f 551 703 149
f 135 233 599
f 429 647 565
f 453 390 98
f 390 453 107
f 99 274 91
f 99 320 386
f 101 320 260
f 608 656 93
f 260 656 102
f 601 101 666
f 193 526 103
f 373 608 526
f 103 433 595
f 435 357 727
f 695 802 357
f 630 105 771
f 119 822 630
f 81 394 545
f 752 534 87
f 399 92 91
f 91 752 399
f 376 78 609
f 444 86 774
f 196 538 249
f 249 468 328
f 85 309 328
f 718 651 242
f 328 706 85
f 96 718 307
f 776 810 60
f 82 343 646
f 83 307 242
f 79 743 266
f 270 604 63
f 59 604 69
f 69 550 79
f 51 322 598
f 48 391 59
f 43 258 48
f 59 317 231
f 840 48 231
f 612 53 286
f 70 724 407
f 550 339 80
f 544 610 253
f 681 28 39
f 392 748 467
f 41 322 51
f 28 300 19
f 383 508 308
f 39 303 544
f 364 300 24
f 303 536 237
f 15 652 509
f 16 437 20
f 769 574 13
f 62 371 457
f 724 593 787
f 332 708 50
f 50 46 332
f 471 46 50
f 748 392 40
f 265 782 37
f 708 265 37
f 32 467 383
f 308 349 469
f 508 383 27
f 404 760 478
f 349 308 18
f 814 739 7
f 552 701 10
f 206 336 61
f 627 411 68
f 662 521 71
f 37 47 455
f 516 749 25
f 782 517 37
f 611 22 288
f 654 334 372
f 716 699 4
f 236 638 445
f 334 712 236
f 61 323 676
f 741 518 42
f 475 518 673
f 605 411 323
f 250 321 42
f 452 379 45
f 661 310 512
f 389 804 34
f 804 310 34
f 189 684 296
f 189 298 26
f 655 38 548
f 363 21 445
f 8 813 581
f 624 451 29
f 66 412 673
f 394 77 204
f 73 57 263
f 204 333 73
f 452 529 57
f 58 523 315
f 78 75 264
f 49 251 525
f 393 753 535
f 65 376 609
f 398 72 302
f 326 535 753
f 23 451 657
f 575 789 179
f 830 473 182
f 35 842 546
f 244 20 24
f 43 840 35
f 414 136 285
f 311 136 377
f 664 722 796
f 7 504 449
f 24 682 244
f 825 439 12
f 172 757 632
f 771 802 338
f 557 698 633
f 478 615 188
f 702 296 813
f 296 382 189
f 433 116 595
f 160 524 587
f 255 156 327
f 760 469 615
f 589 120 401
f 305 779 564
f 34 505 192
f 192 378 259
f 32 383 194
f 198 195 146
f 51 391 258
f 257 115 549
f 827 396 31
f 389 34 192
f 264 538 774
f 197 46 392
f 803 266 613
f 402 481 330
f 313 540 137
f 86 399 200
f 464 537 132
f 61 406 202
f 528 202 455
f 274 98 329
f 274 272 453
f 77 66 204
f 545 73 607
f 312 201 132
f 208 77 84
f 85 242 651
f 622 540 477
f 709 110 210
f 519 324 121
f 79 74 69
f 602 691 341
f 498 175 643
f 592 169 235
f 216 509 672
f 690 621 217
f 554 219 613
f 275 442 220
f 325 100 212
f 292 222 552
f 786 223 725
f 649 772 224
f 400 644 225
f 463 297 176
f 336 471 50
f 384 662 62
f 553 293 226
f 201 123 408
f 768 446 175
f 165 514 663
f 154 658 513
f 500 230 596
f 95 695 648
f 695 832 338
f 317 612 231
f 49 44 302
f 636 494 839
f 696 496 233
f 266 743 234
f 616 833 235
f 411 627 807
f 638 778 417
f 21 512 659
f 18 769 13
f 303 27 748
f 758 193 238
f 760 404 239
f 447 665 25
f 130 678 257
f 499 688 240
f 397 240 155
f 241 674 90
f 196 309 444
f 718 96 503
f 266 803 74
f 590 388 243
f 546 740 35
f 792 245 183
f 148 714 650
f 744 685 295
f 327 788 195
f 75 249 538
f 459 527 252
f 472 806 124
f 748 544 303
f 408 464 132
f 254 313 137
f 395 785 120
f 327 156 788
f 191 314 405
f 256 114 205
f 312 828 337
f 391 51 63
f 389 192 259
f 600 260 92
f 101 758 666
f 390 104 304
f 614 465 541
f 605 68 411
f 531 122 614
f 57 73 333
f 57 403 263
f 317 69 74
f 726 200 87
f 88 268 534
f 726 409 78
f 181 694 269
f 559 269 418
f 270 70 407
f 330 622 110
f 412 77 208
f 593 52 55
f 274 453 98
f 386 109 272
f 365 628 273
f 488 275 220
f 276 142 690
f 483 635 570
f 485 721 572
f 721 765 277
f 694 168 269
f 775 278 419
f 733 279 3
f 504 7 729
f 634 420 497
f 698 125 633
f 281 705 568
f 781 380 281
f 461 282 351
f 487 566 671
f 660 12 439
f 124 284 118
f 225 463 400
f 509 216 11
f 812 790 620
f 167 664 796
f 838 288 22
f 749 516 288
f 36 839 289
f 434 585 232
f 707 171 640
f 508 291 18
f 222 814 7
f 552 10 746
f 554 800 416
f 496 696 381
f 456 770 129
f 833 685 555
f 151 533 744
f 189 795 684
f 296 510 382
f 246 653 297
f 378 548 38
f 229 624 382
f 556 470 148
f 300 364 19
f 300 30 682
f 137 645 254
f 535 302 72
f 810 67 398
f 536 28 19
f 104 390 261
f 595 193 103
f 113 642 381
f 843 831 218
f 126 115 678
f 416 826 89
f 152 539 144
f 641 436 594
f 149 340 603
f 243 306 152
f 96 584 648
f 308 194 383
f 651 94 309
f 396 804 45
f 661 34 310
f 247 650 138
f 527 271 127
f 714 148 311
f 604 550 69
f 267 591 141
f 412 475 673
f 191 405 166
f 65 315 523
f 58 38 251
f 747 316 628
f 59 231 48
f 318 457 610
f 472 385 319
f 320 101 386
f 741 42 321
f 253 322 39
f 68 605 56
f 113 456 542
f 545 607 81
f 376 65 523
f 523 326 753
f 156 255 314
f 328 196 249
f 534 674 88
f 752 87 399
f 465 679 261
f 243 144 590
f 774 538 196
f 805 515 203
f 547 401 785
f 197 265 332
f 197 332 46
f 66 379 333
f 123 201 226
f 476 226 201
f 10 576 372
f 334 236 579
f 725 223 335
f 335 127 625
f 336 50 406
f 336 206 521
f 337 205 410
f 489 338 106
f 211 109 519
f 339 270 407
f 764 387 340
f 387 764 362
f 740 43 35
f 761 585 494
f 571 668 213
f 687 844 17
f 634 82 571
f 343 497 450
f 179 750 575
f 631 692 174
f 142 345 690
f 621 690 345
f 346 269 168
f 347 482 846
f 693 491 5
f 161 432 348
f 188 426 739
f 280 634 571
f 775 637 278
f 353 495 428
f 245 158 354
f 244 355 20
f 142 276 808
f 802 105 727
f 105 103 727
f 731 185 358
f 832 106 338
f 480 115 126
f 746 10 372
f 6 282 578
f 362 190 387
f 815 514 172
f 21 363 505
f 364 652 19
f 24 437 364
f 766 655 29
f 647 784 135
f 273 121 324
f 782 265 447
f 366 167 587
f 511 166 173
f 277 631 367
f 532 768 367
f 299 556 368
f 650 597 368
f 370 150 459
f 151 744 370
f 457 371 55
f 780 654 491
f 468 209 706
f 209 719 588
f 93 94 608
f 373 102 656
f 397 779 240
f 327 623 153
f 537 145 623
f 166 524 191
f 409 609 78
f 376 753 75
f 134 199 462
f 147 811 522
f 26 378 192
f 58 458 38
f 452 333 379
f 673 379 66
f 687 380 781
f 756 829 36
f 294 770 696
f 770 456 113
f 382 510 229
f 194 308 469
f 467 32 197
f 62 318 384
f 392 384 318
f 701 576 10
f 504 729 3
f 519 542 324
f 133 319 385
f 99 386 272
f 387 603 340
f 388 131 316
f 389 452 804
f 529 259 458
f 390 304 98
f 390 107 261
f 391 48 258
f 391 63 604
f 467 27 383
f 384 392 46
f 322 253 52
f 393 72 468
f 674 821 88
f 395 120 257
f 396 321 31
f 396 310 804
f 477 540 313
f 783 302 44
f 398 67 72
f 250 586 33
f 399 87 200
f 444 93 600
f 428 644 177
f 785 401 120
f 257 589 130
f 199 481 462
f 402 330 465
f 458 403 529
f 516 404 677
f 404 478 292
f 406 61 336
f 406 455 202
f 141 327 195
f 660 224 283
f 123 254 408
f 409 726 268
f 476 337 410
f 61 676 206
f 323 807 676
f 56 518 68
f 412 208 76
f 171 413 227
f 460 290 415
f 550 270 339
f 221 97 369
f 405 173 166
f 176 490 575
f 211 121 117
f 638 581 14
f 9 780 567
f 380 687 606
f 483 799 755
f 283 772 566
f 772 649 775
f 95 497 420
f 719 577 83
f 646 691 82
f 532 723 171
f 820 170 563
f 818 669 617
f 636 602 341
f 732 344 561
f 279 733 423
f 562 793 759
f 425 11 216
f 745 349 13
f 543 739 426
f 801 837 214
f 557 816 119
f 808 427 142
f 495 722 428
f 129 365 273
f 429 513 149
f 757 187 479
f 236 659 579
f 431 22 360
f 255 153 704
f 193 595 238
f 116 822 496
f 232 810 398
f 776 60 506
f 756 289 434
f 503 608 94
f 357 435 96
f 305 539 436
f 362 594 436
f 672 720 619
f 510 660 229
f 439 492 657
f 102 101 260
f 276 690 441
f 798 441 629
f 36 220 442
f 611 677 746
f 131 590 443
f 14 363 445
f 445 21 659
f 580 643 446
f 768 532 446
f 365 747 628
f 469 760 665
f 447 32 194
f 92 320 91
f 788 146 195
f 288 838 448
f 448 517 749
f 639 5 449
f 449 222 7
f 374 147 522
f 450 83 717
f 657 624 229
f 655 766 525
f 535 49 302
f 398 783 232
f 309 93 444
f 452 389 529
f 388 140 243
f 124 786 284
f 522 811 199
f 397 454 147
f 455 47 528
f 708 406 50
f 456 129 273
f 457 55 610
f 371 62 474
f 753 376 523
f 378 458 259
f 139 459 252
f 597 459 150
f 461 351 180
f 461 3 729
f 711 589 401
f 481 199 540
f 463 750 400
f 464 254 645
f 145 537 464
f 70 598 52
f 264 774 200
f 200 726 264
f 26 548 378
f 41 466 30
f 466 682 30
f 467 197 392
f 209 67 776
f 469 349 615
f 469 665 194
f 268 81 409
f 88 81 268
f 173 405 246
f 470 556 158
f 470 311 148
f 609 263 65
f 65 263 403
f 45 741 321
f 107 262 541
f 74 79 266
f 828 385 256
f 202 323 61
f 338 489 771
f 473 791 182
f 283 742 12
f 474 62 71
f 475 76 627
f 210 112 709
f 476 553 226
f 678 414 126
f 740 184 244
f 245 354 183
f 114 256 118
f 15 769 715
f 210 477 728
f 340 513 658
f 80 79 550
f 478 188 814
f 479 500 168
f 359 803 219
f 115 480 111
f 287 495 592
f 481 622 330
f 481 402 462
f 296 702 510
f 45 321 396
f 558 846 734
f 491 693 347
f 418 736 559
f 596 755 346
f 277 768 721
f 181 486 694
f 742 487 791
f 220 606 488
f 345 633 738
f 630 689 119
f 344 575 490
f 491 576 5
f 347 780 491
f 23 657 492
f 705 756 434
f 699 716 637
f 417 8 581
f 421 761 341
f 796 722 495
f 735 495 353
f 822 573 496
f 95 584 497
f 343 634 497
f 762 572 498
f 499 164 688
f 707 440 413
f 563 161 348
f 246 170 767
f 187 764 230
f 668 571 501
f 501 730 668
f 502 489 106
f 307 718 242
f 504 279 639
f 427 808 599
f 795 505 363
f 506 60 761
f 577 719 506
f 507 777 432
f 136 311 143
f 714 377 711
f 6 700 2
f 361 574 228
f 508 18 308
f 15 11 228
f 429 565 513
f 430 594 362
f 663 580 227
f 331 415 515
f 33 47 517
f 517 448 33
f 349 18 13
f 518 475 68
f 42 518 56
f 451 23 568
f 109 211 683
f 745 13 520
f 6 578 520
f 521 662 336
f 147 374 779
f 523 58 326
f 315 65 403
f 366 587 524
f 466 41 258
f 294 784 129
f 431 835 22
f 251 49 326
f 568 766 451
f 526 435 103
f 193 373 526
f 806 127 223
f 527 459 247
f 455 708 37
f 313 728 477
f 55 52 253
f 322 41 681
f 321 250 31
f 528 56 605
f 528 586 56
f 143 470 245
f 600 86 444
f 529 389 259
f 267 198 133
f 385 828 133
f 300 681 30
f 117 316 531
f 531 131 122
f 532 367 723
f 93 309 94
f 248 160 533
f 685 744 533
f 534 329 674
f 87 268 726
f 535 72 393
f 589 711 377
f 63 51 598
f 392 318 40
f 156 314 191
f 438 812 620
f 537 623 141
f 591 132 537
f 249 75 393
f 774 196 444
f 190 539 152
f 539 564 144
f 540 811 137
f 683 107 453
f 88 394 81
f 325 819 100
f 324 456 273
f 739 729 7
f 543 578 282
f 472 118 385
f 544 40 610
f 315 403 458
f 73 545 204
f 3 461 180
f 158 438 163
f 143 285 136
f 370 710 151
f 114 118 284
f 118 256 385
f 612 317 64
f 515 805 331
f 547 625 128
f 38 655 251
f 548 26 298
f 549 395 257
f 306 140 603
f 452 57 333
f 552 222 701
f 552 677 292
f 301 454 397
f 272 274 99
f 221 809 97
f 581 638 417
f 555 796 287
f 101 102 758
f 597 650 247
f 686 689 489
f 698 818 617
f 799 162 736
f 845 442 737
f 692 631 561
f 632 759 342
f 563 348 164
f 170 820 767
f 779 305 157
f 374 680 564
f 565 154 513
f 647 429 784
f 566 742 283
f 699 778 567
f 780 4 567
f 434 783 705
f 569 667 484
f 799 798 162
f 570 276 441
f 280 213 350
f 175 572 721
f 762 485 572
f 427 816 754
f 573 233 496
f 574 520 13
f 58 251 326
f 701 449 5
f 576 491 654
f 646 717 577
f 577 506 421
f 520 426 745
f 722 225 644
f 372 579 360
f 579 431 360
f 580 342 643
f 580 663 815
f 748 27 467
f 508 237 291
f 8 417 493
f 581 813 14
f 582 250 33
f 582 31 250
f 499 157 440
f 583 1 482
f 583 423 1
f 450 307 83
f 585 289 494
f 19 715 536
f 586 528 47
f 586 42 56
f 587 685 533
f 587 167 555
f 588 83 242
f 588 85 706
f 439 825 492
f 155 301 397
f 145 507 623
f 401 128 711
f 590 131 388
f 680 590 144
f 591 312 132
f 591 267 530
f 592 735 215
f 592 235 287
f 593 371 787
f 593 70 52
f 594 430 514
f 704 161 626
f 596 154 755
f 658 596 230
f 475 412 76
f 749 782 25
f 247 459 597
f 159 150 295
f 435 503 96
f 598 322 52
f 598 70 63
f 827 310 396
f 356 647 599
f 599 233 427
f 600 93 656
f 601 666 519
f 109 601 519
f 602 501 691
f 603 551 149
f 603 387 306
f 478 814 292
f 604 59 391
f 99 91 320
f 198 710 319
f 605 323 202
f 202 528 605
f 166 366 524
f 606 763 488
f 72 67 468
f 607 73 263
f 607 409 81
f 158 245 470
f 500 479 187
f 85 651 309
f 503 526 608
f 608 373 656
f 78 376 75
f 607 609 409
f 784 703 129
f 610 40 318
f 610 55 253
f 542 666 238
f 516 611 288
f 611 746 360
f 286 840 612
f 234 800 613
f 402 465 614
f 123 313 254
f 533 160 587
f 248 375 160
f 86 92 399
f 253 39 544
f 505 795 192
f 426 520 578
f 258 41 51
f 262 117 531
f 25 239 516
f 616 159 295
f 818 686 489
f 619 437 16
f 169 812 751
f 11 425 361
f 621 345 738
f 660 283 12
f 622 481 540
f 622 210 110
f 623 507 153
f 541 261 107
f 45 379 741
f 379 673 741
f 108 290 460
f 460 331 785
f 394 204 545
f 84 77 394
f 298 29 548
f 625 547 805
f 625 127 271
f 626 161 170
f 626 246 405
f 293 112 728
f 627 68 475
f 169 751 235
f 291 237 536
f 769 18 291
f 134 522 199
f 190 436 539
f 681 300 28
f 628 316 117
f 217 629 441
f 630 433 105
f 561 277 765
f 631 174 422
f 694 817 479
f 844 781 492
f 633 345 754
f 420 280 797
f 356 635 565
f 483 755 635
f 636 341 494
f 637 493 699
f 716 801 637
f 9 778 712
f 638 14 445
f 358 106 834
f 834 773 569
f 583 693 639
f 639 449 504
f 616 295 833
f 164 707 640
f 723 820 640
f 641 157 305
f 2 351 282
f 642 113 238
f 28 303 39
f 303 237 27
f 264 75 538
f 477 210 622
f 839 36 442
f 340 149 513
f 643 342 697
f 643 175 446
f 225 722 664
f 644 400 618
f 645 145 464
f 645 137 454
f 717 646 343
f 646 421 691
f 344 732 789
f 647 356 565
f 647 135 599
f 648 357 96
f 224 702 649
f 493 775 649
f 552 746 677
f 242 85 588
f 459 139 370
f 715 652 15
f 364 720 652
f 346 168 500
f 346 418 269
f 170 246 626
f 653 174 490
f 4 347 841
f 654 372 576
f 334 9 712
f 655 525 251
f 151 248 533
f 656 260 600
f 116 433 822
f 777 507 301
f 658 154 596
f 658 230 340
f 543 426 578
f 427 233 573
f 201 312 476
f 742 566 487
f 3 279 504
f 274 752 91
f 752 274 329
f 659 236 445
f 659 431 579
f 468 249 393
f 375 248 788
f 660 439 229
f 660 510 224
f 661 21 505
f 176 653 490
f 297 463 186
f 471 336 662
f 662 71 62
f 662 384 471
f 514 165 594
f 663 227 413
f 60 232 585
f 531 614 262
f 122 131 443
f 503 435 526
f 790 812 169
f 366 511 664
f 256 205 337
f 840 43 48
f 665 239 25
f 665 447 194
f 666 542 519
f 243 152 144
f 299 751 438
f 158 163 354
f 667 797 350
f 730 501 602
f 669 502 185
f 423 583 279
f 670 400 750
f 419 836 671
f 227 446 532
f 198 267 195
f 518 741 673
f 674 241 821
f 674 329 90
f 282 6 2
f 66 77 412
f 362 764 675
f 187 757 675
f 382 298 189
f 568 23 281
f 44 766 568
f 783 398 302
f 549 111 212
f 677 404 292
f 679 104 261
f 679 465 330
f 683 453 272
f 319 133 198
f 680 144 564
f 680 374 134
f 681 39 322
f 681 41 30
f 682 24 300
f 466 740 682
f 317 59 69
f 683 272 109
f 683 211 262
f 271 527 247
f 397 147 779
f 152 306 190
f 299 159 616
f 795 189 26
f 14 684 363
f 833 295 685
f 686 557 689
f 813 8 702
f 86 600 92
f 225 186 463
f 517 782 749
f 687 17 763
f 687 781 844
f 688 164 348
f 688 155 240
f 755 418 346
f 689 557 119
f 630 771 689
f 356 570 635
f 754 142 427
f 690 217 441
f 667 569 797
f 280 420 634
f 691 421 341
f 501 82 691
f 692 490 174
f 693 482 347
f 694 479 168
f 562 486 793
f 695 357 648
f 834 832 773
f 496 381 116
f 696 233 135
f 825 12 473
f 697 498 643
f 824 697 759
f 698 617 125
f 698 557 686
f 699 567 4
f 699 493 417
f 700 6 361
f 815 632 342
f 576 701 5
f 701 222 449
f 502 106 358
f 702 8 649
f 702 224 510
f 703 365 129
f 703 429 149
f 704 314 255
f 704 153 432
f 705 281 756
f 705 44 568
f 706 328 468
f 706 209 588
f 707 413 171
f 707 164 499
f 235 833 287
f 64 317 74
f 829 606 220
f 234 613 266
f 708 332 265
f 708 455 406
f 710 139 319
f 710 146 151
f 458 378 38
f 711 138 714
f 711 128 138
f 32 447 265
f 9 334 654
f 712 638 236
f 713 89 97
f 343 82 634
f 714 138 650
f 714 311 377
f 769 15 228
f 715 291 536
f 4 841 716
f 717 343 450
f 717 83 577
f 94 651 718
f 671 566 419
f 419 278 836
f 209 776 719
f 719 83 588
f 167 366 664
f 143 311 470
f 720 509 652
f 720 364 437
f 721 485 765
f 722 644 428
f 723 640 171
f 146 248 151
f 511 366 166
f 664 511 225
f 413 440 165
f 663 413 165
f 373 193 758
f 724 70 593
f 609 607 263
f 507 145 301
f 594 165 641
f 726 78 264
f 268 87 534
f 727 357 802
f 727 103 435
f 684 813 296
f 584 95 648
f 450 497 584
f 543 461 729
f 11 361 228
f 109 386 601
f 730 602 54
f 732 561 178
f 733 3 180
f 734 482 1
f 735 592 495
f 418 799 736
f 737 442 275
f 738 633 125
f 190 306 387
f 739 543 729
f 330 110 679
f 740 244 682
f 43 466 258
f 657 451 624
f 462 443 134
f 98 90 329
f 770 113 381
f 324 542 456
f 839 494 289
f 239 404 516
f 55 371 593
f 742 473 12
f 430 362 675
f 628 117 121
f 743 79 80
f 318 62 457
f 298 382 624
f 744 295 150
f 349 745 615
f 745 188 615
f 394 821 84
f 34 661 505
f 29 298 624
f 655 548 29
f 530 312 591
f 312 337 476
f 372 360 746
f 677 611 516
f 520 574 6
f 747 388 316
f 747 551 140
f 582 835 827
f 748 40 544
f 604 270 550
f 749 288 448
f 237 508 27
f 46 471 384
f 395 549 108
f 750 176 575
f 750 179 670
f 642 116 381
f 642 595 116
f 535 326 49
f 753 393 75
f 838 33 448
f 250 42 586
f 529 403 57
f 372 334 579
f 148 368 556
f 754 557 633
f 816 427 573
f 755 154 635
f 829 281 380
f 756 36 289
f 757 479 817
f 172 675 757
f 758 102 373
f 758 238 666
f 759 697 342
f 632 817 759
f 760 615 478
f 760 239 665
f 761 494 341
f 761 421 506
f 269 559 181
f 762 498 424
f 763 606 687
f 764 187 675
f 764 340 230
f 277 561 631
f 765 823 178
f 766 44 525
f 766 29 451
f 150 370 744
f 767 653 246
f 767 422 174
f 313 123 728
f 768 175 721
f 768 277 367
f 769 291 715
f 769 228 574
f 103 105 433
f 770 294 129
f 770 381 696
f 771 489 689
f 772 283 224
f 772 419 566
f 70 270 63
f 367 422 723
f 832 95 773
f 797 773 420
f 209 468 67
f 774 86 200
f 536 303 28
f 775 493 637
f 775 419 772
f 5 639 693
f 776 506 719
f 777 155 688
f 777 348 432
f 778 638 712
f 778 9 567
f 779 157 240
f 779 374 564
f 780 9 654
f 780 347 4
f 82 501 571
f 781 281 23
f 782 447 25
f 783 44 705
f 783 434 232
f 437 24 20
f 784 429 703
f 784 294 135
f 547 785 331
f 785 395 460
f 47 33 586
f 37 517 47
f 238 113 542
f 314 626 405
f 223 127 335
f 787 371 474
f 458 58 315
f 443 680 134
f 175 498 572
f 788 156 375
f 731 834 484
f 141 195 267
f 789 575 344
f 790 169 215
f 428 177 353
f 791 473 742
f 792 143 245
f 486 562 694
f 636 845 794
f 795 26 192
f 795 363 684
f 796 495 287
f 796 555 167
f 797 280 350
f 188 745 426
f 798 629 162
f 798 483 570
f 551 747 365
f 799 418 755
f 799 483 798
f 307 450 584
f 800 554 613
f 826 416 800
f 225 511 186
f 715 19 652
f 801 278 637
f 801 214 352
f 204 66 333
f 802 695 338
f 802 771 105
f 803 64 74
f 803 613 219
f 92 260 320
f 804 452 45
f 153 255 327
f 805 547 331
f 805 203 335
f 146 710 198
f 806 223 124
f 806 472 252
f 196 328 309
f 807 323 411
f 808 356 599
f 463 176 750
f 809 325 218
f 810 232 60
f 810 776 67
f 265 197 32
f 601 386 101
f 22 611 360
f 679 207 104
f 653 176 297
f 96 307 584
f 165 440 641
f 140 306 243
f 574 361 6
f 811 540 199
f 811 454 137
f 812 438 751
f 684 14 813
f 720 672 509
f 685 587 555
f 503 94 718
f 814 188 739
f 814 222 292
f 344 692 561
f 512 21 661
f 431 659 512
f 752 329 534
f 128 625 271
f 815 663 514
f 815 172 632
f 816 557 754
f 816 573 119
f 817 562 759
f 817 632 757
f 818 698 686
f 818 502 669
f 808 276 356
f 230 500 187
f 606 829 380
f 837 801 716
f 697 424 498
f 819 325 221
f 820 422 767
f 820 563 640
f 172 430 675
f 821 394 88
f 44 49 525
f 822 119 573
f 822 433 630
f 110 709 207
f 823 765 485
f 136 414 130
f 143 792 285
f 824 759 793
f 226 728 123
f 570 356 276
f 473 830 825
f 825 844 492
f 461 543 282
f 773 797 569
f 826 800 234
f 827 31 582
f 835 512 827
f 828 530 133
f 828 256 337
f 697 824 424
f 829 756 281
f 829 220 36
f 100 108 212
f 257 678 115
f 43 740 466
f 830 182 560
f 844 825 830
f 124 223 786
f 831 111 480
f 331 460 415
f 832 834 106
f 832 695 95
f 310 827 512
f 833 555 287
f 636 54 602
f 834 569 484
f 834 731 358
f 130 414 678
f 835 431 512
f 582 838 835
f 836 278 352
f 837 716 841
f 837 558 214
f 838 22 835
f 838 582 33
f 108 100 290
f 442 845 839
f 840 286 35
f 840 231 612
f 846 837 841
f 325 843 218
f 636 794 54
f 842 35 286
f 347 846 841
f 843 111 831
f 843 325 212
f 821 847 84
f 844 830 560
f 126 414 285
f 53 64 359
f 98 304 90
f 845 737 794
f 845 636 839
f 846 482 734
f 846 558 837
f 847 821 241
