# D5 FDM result, topology from D5_remeshed_fem.off
v 0.60763139 -0.01585658 0.00000000
v 0.56069916 -0.23469938 0.00000000
v 0.56592009 -0.11720422 0.02237186
v 0.53824139 0.07263318 0.05769020
v 0.53101174 -0.03000499 0.07887970
v 0.51895505 -0.24072354 0.02749626
v 0.51722631 -0.10826358 0.07231337
v 0.47845135 0.17410760 0.09485287
v 0.49364483 0.06262223 0.09796988
v 0.47877879 -0.02713125 0.11815139
v 0.48183660 -0.31645108 0.02155049
v 0.46185856 0.30168914 0.04484866
v 0.45760715 -0.24071035 0.08529052
v 0.43312204 0.14764449 0.13151460
v 0.44678297 -0.31768360 0.04893839
v 0.41720343 -0.44205052 0.00000000
v 0.43580967 0.42371842 0.00000000
v 0.42145320 -0.25156071 0.10407642
v 0.38202691 -0.35234569 0.07207464
v 0.38604860 -0.43666917 0.01550531
v 0.38872246 0.10832634 0.16242161
v 0.39276096 -0.00650056 0.16393254
v 0.36825477 0.35962241 0.08417227
v 0.37159715 -0.41625169 0.03911459
v 0.37579447 -0.11848523 0.16343958
v 0.34794585 0.21466570 0.15074857
v 0.34629919 -0.26709135 0.13631544
v 0.34245897 -0.34932797 0.09332949
v 0.34285386 0.28889415 0.12881161
v 0.31847990 -0.40995517 0.06922370
v 0.30791258 0.03591624 0.19210265
v 0.33703069 -0.19292125 0.15750381
v 0.31801479 -0.03215987 0.18647273
v 0.32556962 0.13116581 0.17760111
v 0.28942226 -0.50450940 0.01650801
v 0.30143169 0.46447872 0.03991275
v 0.30034207 -0.10888674 0.18353016
v 0.28938474 0.25368466 0.16270431
v 0.30149305 -0.34394722 0.11069075
v 0.27621615 -0.27691855 0.14593517
v 0.28433132 -0.41068370 0.08304417
v 0.25398404 0.01268311 0.19631760
v 0.28031946 -0.47368239 0.03982398
v 0.28251765 0.35470097 0.11809064
v 0.26007768 0.08556746 0.19484343
v 0.26257177 -0.20195896 0.16559161
v 0.28984368 -0.06549452 0.18797032
v 0.24385874 -0.47308187 0.05139192
v 0.25213829 0.32566620 0.14073802
v 0.24572843 -0.16636761 0.17500568
v 0.24540362 -0.41274329 0.09022089
v 0.22283639 -0.35541735 0.11563418
v 0.23261209 -0.56156832 0.00000000
v 0.21588987 0.56820679 0.00000000
v 0.22111448 -0.31961527 0.13084068
v 0.23487827 -0.02033049 0.19413040
v 0.21789174 0.16151807 0.19344490
v 0.25053593 0.25862612 0.16760346
v 0.20649319 -0.47554554 0.05724805
v 0.20074657 0.44753142 0.09306946
v 0.19746641 -0.12387123 0.17330157
v 0.20053402 -0.25108506 0.14555033
v 0.20239020 -0.41360439 0.09232613
v 0.18866053 -0.54381654 0.01780364
v 0.19713256 0.22864115 0.18218079
v 0.17559386 0.09209772 0.19723741
v 0.17723753 0.39629642 0.12726541
v 0.19427448 -0.01689902 0.18973553
v 0.16884239 -0.48263499 0.05735016
v 0.18177365 -0.37588441 0.10451953
v 0.16480723 -0.22356401 0.14286846
v 0.19244259 0.36231154 0.13864108
v 0.17724622 0.15713115 0.19421667
v 0.15512984 -0.51823744 0.03861339
v 0.14402110 0.29525882 0.17155990
v 0.13439722 0.02254817 0.18633749
v 0.13132910 0.09621483 0.19330569
v 0.13255609 0.25284194 0.18229687
v 0.13014216 -0.48929202 0.05415393
v 0.10409823 -0.45630160 0.06476003
v 0.11297910 0.17683499 0.19296148
v 0.11313212 0.53618589 0.04031389
v 0.08988050 0.45738398 0.09832768
v 0.08999541 0.10160331 0.19126756
v 0.08191925 0.39524928 0.13278607
v 0.03332226 0.29150030 0.17125711
v 0.05177044 0.22935587 0.18498276
v 0.07701771 0.16807290 0.19143882
v 0.00000000 -0.60700101 0.00426415
v 0.00000000 0.15232795 0.19078821
v -0.01728821 0.24562201 0.18192331
v -0.00542953 0.28221495 0.17435001
v 0.01432359 0.35458051 0.15199397
v 0.01811670 0.38985949 0.13758296
v -0.00461285 0.52024536 0.06494116
v -0.00341317 0.45400627 0.10606135
v -0.04148512 -0.61245286 0.00000000
v -0.04131075 0.16617630 0.19102308
v -0.05189770 0.24191475 0.18270541
v -0.07450262 -0.51411599 0.04097396
v -0.07700023 0.30328193 0.16844588
v -0.05730218 0.33218735 0.15940885
v -0.09137744 0.42227603 0.11839528
v -0.08999541 0.10160331 0.19126756
v -0.10923828 0.45858551 0.09619453
v -0.09036476 0.54416275 0.03779613
v -0.11911996 0.17198232 0.19295123
v -0.12558057 -0.50208859 0.04802452
v -0.11732640 0.24943088 0.18288178
v -0.15279721 0.05785386 0.19285266
v -0.16203972 -0.55079339 0.01757483
v -0.14624003 -0.01104966 0.18270238
v -0.17393845 0.35465083 0.14588360
v -0.16626510 -0.21439822 0.14557216
v -0.20011360 -0.53917167 0.01813946
v -0.16447542 0.41204796 0.11936115
v -0.19617792 0.22698289 0.18287115
v -0.20106832 -0.24157463 0.14825788
v -0.18970102 0.47446348 0.07743056
v -0.19881780 -0.47373314 0.06090978
v -0.18747708 0.26480676 0.17452433
v -0.22500090 0.15248215 0.19457991
v -0.22181329 -0.04595388 0.19111839
v -0.19768261 -0.28031211 0.13740931
v -0.24124672 0.55791342 0.00000000
v -0.23261209 -0.56156832 0.00000000
v -0.21681618 -0.34749113 0.11876898
v -0.22995988 -0.41004818 0.09309129
v -0.24387154 0.32595176 0.14256759
v -0.24712396 -0.49446620 0.03477682
v -0.25032943 0.18414195 0.18818173
v -0.26186568 -0.09865502 0.18529595
v -0.26591439 -0.20009875 0.16607896
v -0.27780253 0.11025904 0.19078616
v -0.26452877 0.38531475 0.10734057
v -0.28538926 -0.49028968 0.02588000
v -0.26865591 0.00767419 0.19675961
v -0.26998851 -0.40060223 0.09084862
v -0.28773453 -0.28080181 0.14454720
v -0.30689147 0.24111877 0.16045623
v -0.31834136 -0.13527815 0.17661918
v -0.28877342 0.46615751 0.04509843
v -0.31943437 -0.48163364 0.01896066
v -0.32421268 0.16595636 0.17139944
v -0.32117540 -0.05749407 0.18460452
v -0.34016995 -0.21455127 0.15139191
v -0.31843981 0.06029348 0.18942046
v -0.32963741 -0.41934731 0.06114819
v -0.32942130 0.30213407 0.13108155
v -0.34719372 -0.31857483 0.10812872
v -0.35401988 -0.25272259 0.13768874
v -0.34275924 0.19206489 0.15896842
v -0.37660682 -0.09258338 0.16830755
v -0.37980346 0.34953447 0.08361548
v -0.36851024 0.01340109 0.17366018
v -0.39421724 -0.15152301 0.14666983
v -0.39545411 0.09002085 0.16031269
v -0.38109153 -0.43400695 0.01960321
v -0.36871126 -0.34682268 0.08258356
v -0.40733762 -0.21902901 0.12342632
v -0.43525864 -0.05417389 0.14307766
v -0.42708814 0.43250787 0.00000000
v -0.42050749 -0.43890867 0.00000000
v -0.43466959 0.01866729 0.14210946
v -0.44624752 0.12917956 0.12586472
v -0.45880866 -0.16644672 0.10465853
v -0.46339239 -0.23645345 0.08252473
v -0.46540849 0.30114608 0.04333540
v -0.46188404 -0.34756648 0.01968812
v -0.47208710 -0.05464997 0.12310451
v -0.48162198 0.05901457 0.10760455
v -0.46844194 0.19970952 0.09169032
v -0.48454509 -0.13745337 0.09275239
v -0.53434363 -0.04253340 0.07283038
v -0.55087581 0.09847196 0.04168016
v -0.54245040 -0.10607517 0.04918164
v -0.56033170 -0.23557536 0.00000000
v -0.60783815 0.00039636 0.00000000
v -0.59632093 -0.11776543 0.00000000
v 0.59004068 -0.14601137 0.00000000
v -0.51481909 0.32315424 0.00000000
v 0.48898762 0.36105189 0.00000000
v -0.36590597 -0.48536602 0.00000000
v 0.35627878 -0.49247620 0.00000000
v -0.12082618 0.59570831 0.00000000
v -0.50815994 -0.15320797 0.06938420
v -0.43791803 0.26054138 0.08403804
v 0.47677573 -0.16112233 0.09285495
v 0.38555524 0.21556866 0.13269062
v -0.37188593 0.19992255 0.14437824
v -0.42837287 -0.15824830 0.12636120
v 0.32895914 0.17494641 0.16760015
v -0.09234716 0.38183112 0.13857083
v 0.37458851 -0.18943218 0.14554007
v -0.33055436 -0.17414821 0.16405990
v 0.08399109 0.33511400 0.15792227
v 0.30037424 -0.19985191 0.16364223
v -0.30312271 -0.20917354 0.16043207
v -0.25518607 0.07703371 0.19584087
v 0.06235354 0.26523199 0.17858342
v -0.22532056 -0.08908725 0.18365553
v 0.22595745 -0.09494598 0.18316119
v -0.13779458 -0.36111987 0.10012960
v 0.15594609 0.12526655 0.19553522
v -0.16611786 -0.17543660 0.15405481
v 0.16592947 -0.14503296 0.16063935
v -0.11026256 0.06551871 0.18901724
v 0.11130672 0.06365963 0.18890131
v 0.14180756 0.40948469 0.12308333
v -0.16943528 0.01903389 0.19078340
v -0.15559853 0.23740267 0.18373239
v -0.12113330 -0.53383570 0.03171496
v 0.08484328 0.60188782 0.00000000
v 0.59559309 0.12139286 0.00000000
v -0.50067735 -0.34465858 0.00000000
v 0.49678737 -0.35024232 0.00000000
v -0.35689431 0.49203029 0.00000000
v -0.11670338 -0.59242719 0.00000000
v 0.13167903 -0.58844018 0.00000000
v 0.33543019 0.46777049 0.02070472
v -0.06016452 -0.58091162 0.01219705
v 0.49539921 -0.08473250 0.09687823
v -0.18850962 -0.32001115 0.12430884
v 0.47130026 0.23697643 0.07063168
v -0.51860794 -0.18632579 0.05052953
v -0.19200633 -0.06811855 0.18193121
v -0.49523780 0.09672563 0.09272414
v 0.47084725 -0.29085634 0.04513758
v 0.41440626 0.28224985 0.09058946
v -0.40783938 0.28750218 0.09232240
v 0.22563475 -0.50030027 0.03830358
v 0.23122394 0.42135428 0.09847862
v -0.24307027 0.41769587 0.09622124
v 0.06242656 -0.53622925 0.03191833
v -0.44601205 -0.32409564 0.04484249
v 0.44331840 0.07866685 0.13267061
v 0.36731252 -0.28936542 0.11540785
v -0.12989861 0.35699391 0.14870268
v 0.40554740 -0.12105536 0.14933289
v -0.38019866 0.05139205 0.16850671
v 0.03256690 0.13397208 0.19096167
v 0.06587044 0.42856348 0.11651922
v -0.31289108 0.20366432 0.16742669
v 0.35579718 -0.45218458 0.02069290
v -0.35505745 -0.46668060 0.01325638
v -0.48667391 -0.09343097 0.10307754
v -0.28656994 -0.36288381 0.10544835
v -0.37569078 -0.21805816 0.13860181
v 0.12745368 0.33473862 0.15752975
v 0.29466017 0.00559436 0.19335270
v 0.26890154 0.28933717 0.15278582
v -0.26366287 -0.30433367 0.13553719
v 0.26023250 -0.33637008 0.12264361
v -0.25910598 -0.03083610 0.19322809
v -0.39305543 -0.11932085 0.15611968
v -0.20038075 -0.19953896 0.15830491
v -0.20472865 -0.50240914 0.03928257
v 0.26397145 -0.44349161 0.06792361
v 0.29128601 0.18670356 0.17743791
v -0.03381240 0.30831073 0.16707764
v -0.12016635 0.13050791 0.19379475
v -0.16266389 0.19444778 0.19083849
v 0.18876743 0.19244005 0.18979170
v 0.10287067 0.27645328 0.17634932
v 0.31320934 -0.15429245 0.17274750
v 0.11309036 -0.52661975 0.03565733
v -0.29383375 -0.16991503 0.17218645
v 0.08291530 0.20384101 0.18908517
v -0.47487710 0.32539837 0.02291357
v 0.16270307 -0.41346064 0.08853218
v -0.24505041 -0.37417606 0.10745018
v -0.08156294 0.22499501 0.18654301
v -0.21830816 0.29365479 0.16065799
v -0.03757517 0.20793947 0.18762573
v 0.33736593 0.50562000 0.00000000
v -0.32491460 0.44205302 0.04523464
v -0.55775420 0.02738143 0.04335382
v 0.54887387 0.17500276 0.02380502
v 0.57309642 -0.07433299 0.02300934
v 0.05737518 0.57042335 0.02046380
v 0.33869470 0.39587808 0.07114475
v 0.54235678 -0.20158595 0.02174249
v 0.48383422 0.26432964 0.04617443
v -0.16045915 -0.25090089 0.13480468
v -0.29495218 -0.53147960 0.00000000
v 0.26347902 -0.54776472 0.00000000
v -0.46633948 -0.28863837 0.04868905
v 0.38296056 -0.04698077 0.16811556
v 0.26775148 0.46149695 0.05788059
v -0.09443335 -0.47518173 0.05699234
v 0.40248125 -0.28696625 0.09818394
v 0.46484038 -0.09734574 0.11905361
v -0.15518892 -0.05110410 0.17723590
v -0.24593023 0.36041764 0.12625566
v -0.38912691 -0.31156211 0.09135761
v 0.42218999 0.21444031 0.11375193
v -0.51258091 -0.11734057 0.07451657
v 0.36458010 0.25190610 0.13225281
v -0.38903465 -0.37395300 0.05548771
v 0.35219494 -0.38814796 0.06700772
v -0.33955624 -0.01349082 0.18219119
v 0.23656402 0.35881678 0.12945918
v 0.33298163 -0.30969317 0.11928217
v -0.04730481 0.12566528 0.19104017
v -0.37691866 0.12586636 0.16320105
v -0.34201187 0.22576238 0.15067132
v 0.04288496 0.45707217 0.10179569
v 0.39818776 -0.22124088 0.12719876
v 0.05615419 0.36599499 0.14667854
v 0.33033238 0.08974523 0.18275275
v -0.30634219 -0.45440580 0.04426314
v -0.23490776 -0.13358326 0.17952270
v -0.22934495 -0.00566169 0.19471678
v -0.42477486 -0.12274753 0.13875652
v 0.23144810 0.23314221 0.17788390
v -0.23800881 0.22108933 0.18055101
v 0.19348026 -0.51003278 0.03871580
v 0.24350685 -0.26173514 0.14881609
v -0.27368759 -0.24058406 0.15538250
v -0.04447032 0.27512120 0.17580786
v 0.27390915 0.04498416 0.19577048
v 0.26571525 -0.37482625 0.10373349
v 0.19222006 -0.08487042 0.17934313
v -0.18147529 0.29756325 0.16570814
v -0.09084298 -0.55985265 0.01967731
v 0.22979488 0.29449820 0.15868711
v -0.35873127 -0.13662510 0.16544601
v 0.10242267 0.36455217 0.14591705
v -0.00023371 0.18260743 0.18961690
v -0.17644996 0.08765564 0.19743146
v -0.15233439 -0.42989644 0.08105101
v 0.28056611 -0.17144050 0.17305452
v 0.20065153 0.12565390 0.19725452
v 0.46689715 0.04755305 0.11966449
v -0.17734384 -0.35611619 0.11066074
v 0.20419527 -0.16482809 0.16699388
v -0.20015068 -0.15600850 0.16759368
v -0.08725933 0.51402658 0.06037634
v 0.11929929 -0.41867033 0.07921768
v -0.37053941 0.28327322 0.11724496
v 0.19499243 0.51094712 0.04483286
v -0.51920368 0.17253760 0.05358633
v 0.08407296 0.51400023 0.06129597
v -0.57676510 -0.05219515 0.02207235
v -0.28137849 0.49979074 0.02211444
v -0.44019908 0.33054048 0.04654372
v 0.55265122 0.03187586 0.04837908
v -0.41801389 -0.01901511 0.15341611
v 0.43409126 -0.21325530 0.10946476
v 0.04220190 0.60637146 0.00000000
v 0.57708573 -0.19089116 0.00000000
v 0.58584660 0.16202202 0.00000000
v -0.54225647 -0.27463669 0.00000000
v -0.39251760 -0.46410912 0.00000000
v 0.38650444 -0.46912864 0.00000000
v -0.32545861 0.40403741 0.07168037
v -0.04306497 0.46892863 0.09495256
v -0.09262027 0.56945629 0.01873054
v 0.18062642 -0.57540870 0.00000000
v 0.42737407 0.00147078 0.14719641
v 0.50326251 -0.28028523 0.02320563
v -0.40596514 0.20701405 0.12523037
v 0.39771516 0.14576809 0.14840450
v 0.39418966 -0.38285183 0.04694891
v -0.25798145 0.28793125 0.15560783
v -0.46112235 -0.20488480 0.09400993
v -0.52954900 0.02653093 0.07215340
v -0.34983586 -0.38285759 0.07262158
v -0.02452578 -0.57919663 0.01512876
v -0.32909023 -0.28668702 0.13109702
v 0.18889434 -0.29202991 0.13201578
v 0.46491266 0.00779425 0.12501096
v -0.05696241 0.36475889 0.14702311
v -0.31652714 0.10046917 0.18464097
v -0.40040689 -0.18663433 0.13484543
v 0.17115633 0.26118152 0.17747007
v -0.26925809 -0.46212737 0.05175597
v 0.30976915 0.21688024 0.16595771
v 0.21925144 0.09176949 0.19742161
v 0.36392898 0.41415117 0.04400492
v -0.19066148 0.38570968 0.12837501
v 0.40046888 0.24990638 0.11261370
v 0.36048631 -0.22731303 0.14224546
v 0.23522755 -0.22822179 0.15825334
v -0.23505499 -0.22416894 0.15889440
v -0.08064059 0.26336030 0.17892456
v -0.37361409 0.23990761 0.13105231
v -0.27741575 0.21379470 0.17571951
v 0.29034354 0.15021231 0.18382799
v -0.08372768 0.14500309 0.19269064
v 0.22470591 -0.44450963 0.07471403
v 0.27944099 -0.23936928 0.15544978
v 0.16819367 0.33175665 0.15589672
v 0.11105198 0.13479816 0.19334871
v -0.16686446 -0.48876823 0.05434134
v 0.29944259 0.07119470 0.19124290
v -0.34528047 0.03624842 0.18229271
v 0.21693925 0.39016512 0.12000386
v 0.02244734 0.25491370 0.17956216
v -0.55072415 -0.17045404 0.02283775
v -0.21393844 -0.44361058 0.07673184
v -0.20115210 0.11926800 0.19771436
v 0.22746100 0.20005693 0.18670952
v 0.43325211 -0.10806054 0.13740291
v -0.45677118 -0.12699378 0.11626110
v 0.23337452 -0.13228805 0.17938486
v 0.13197607 -0.37922490 0.09355084
v -0.25001241 -0.06546922 0.18922317
v 0.12175242 0.21440722 0.18911716
v -0.16586216 -0.13417043 0.16299185
v 0.18287310 -0.04700364 0.18374384
v 0.15322246 0.05877648 0.19291740
v -0.46438070 0.09432638 0.11755089
v -0.26083686 -0.52200473 0.01478169
v -0.11288223 -0.43863779 0.07196216
v 0.04852406 -0.61057889 0.00000000
v 0.48830964 0.13535545 0.09339736
v -0.44523558 0.36091094 0.02531865
v 0.53488222 0.21614515 0.02339223
v 0.02718557 0.54499103 0.04174745
v 0.16230075 0.49480025 0.06519484
v -0.51736942 -0.01058948 0.08695268
v 0.60516715 -0.05692155 0.00000000
v -0.58628982 0.16041063 0.00000000
v 0.52089852 -0.31326044 0.00000000
v 0.49757387 -0.18518965 0.06942768
v -0.25824286 0.44839910 0.07085849
v -0.52946925 -0.24400030 0.01770082
v -0.31616343 0.33981570 0.11594005
v -0.43876531 0.19288985 0.11183789
v 0.40069524 0.03443124 0.15970240
v -0.39765969 -0.05517408 0.16218173
v -0.13501811 0.43437325 0.10941090
v 0.26611420 0.42495034 0.08310053
v -0.04597940 0.43489066 0.11403767
v -0.39317838 0.16550786 0.14511627
v 0.40689086 -0.40928928 0.01932410
v -0.40929556 -0.40135103 0.02349840
v 0.42745361 0.31250790 0.06684543
v -0.43110887 0.09242883 0.13980754
v -0.35519271 0.45229433 0.02211914
v 0.30028181 0.49575656 0.01731724
v -0.26387848 0.14638689 0.18961513
v 0.04406210 0.32856030 0.16053561
v 0.42253007 0.11158782 0.14211075
v -0.52389976 0.09857058 0.06701265
v 0.35382442 -0.15486002 0.16260105
v 0.34991496 -0.05117846 0.17869691
v 0.52542347 -0.06933854 0.07469649
v 0.06174543 0.48644871 0.08239389
v 0.35521485 0.32513954 0.10730567
v 0.24821099 0.12852362 0.19382378
v -0.07963825 0.18754109 0.19095826
v -0.30927368 0.01785077 0.19071592
v 0.26236621 -0.09879428 0.18542559
v -0.19954872 0.32590493 0.15276365
v 0.21999044 -0.28458505 0.14129662
v 0.26640050 0.21755238 0.17665452
v -0.30152814 -0.32193565 0.12179613
v -0.13895397 -0.46580701 0.06513186
v 0.55598344 -0.15963246 0.02153068
v -0.23978263 0.11446655 0.19550063
v -0.53396428 -0.14479879 0.04826548
v -0.28349864 -0.06200563 0.18906243
v -0.16133951 0.12357936 0.19578185
v 0.30097636 -0.44209904 0.05539367
v 0.32190064 -0.23381780 0.15122117
v 0.14779408 0.36932220 0.14185514
v 0.41096308 -0.18400924 0.12979529
v -0.34352504 -0.44381474 0.03466057
v 0.22818738 -0.19368393 0.16502310
v -0.24018942 -0.26894497 0.14684079
v 0.47328052 0.32722903 0.02235852
v 0.15860219 -0.26257581 0.13136084
v 0.17250667 0.02076049 0.19135723
v -0.19804632 -0.11309131 0.17521335
v -0.20364052 0.01579917 0.19448463
v 0.45535156 -0.13533240 0.11507322
v -0.46896229 0.26910620 0.05641092
v -0.19651574 -0.57117844 0.00000000
v -0.21723205 0.08060678 0.19780010
v 0.57687998 0.00710596 0.02408109
v -0.38900490 0.39607639 0.04191665
v -0.03797936 0.60665059 0.00000000
v -0.60335088 0.07372291 0.00000000
v -0.53711790 0.28455535 0.00000000
v 0.53693402 0.28490213 0.00000000
v 0.37230456 0.48047546 0.00000000
v -0.13172944 0.52546454 0.04568134
v -0.55087684 -0.06938148 0.04844357
v 0.52754115 0.00917476 0.07803864
v 0.40619739 0.35166403 0.06172469
v 0.50804461 0.15931080 0.07113881
v 0.23240617 0.49034814 0.05017152
v -0.50418421 -0.27353741 0.02486145
v -0.20355717 0.41683643 0.10872975
v 0.04185852 0.51650880 0.06342940
v -0.56261205 0.13099512 0.02301370
v -0.41567550 0.05471456 0.15101531
v -0.43814981 0.29560772 0.06682041
v 0.14417313 0.55607797 0.02031649
v -0.12766887 0.55849789 0.02132653
v -0.01359622 0.41499829 0.12541945
v 0.54635755 -0.09257297 0.04773428
v 0.36122707 0.14343946 0.16446805
v 0.16550108 0.46372442 0.08815790
v -0.35875493 -0.05568598 0.17603833
v 0.38365735 -0.25705185 0.12200118
v 0.45648421 -0.34845133 0.02186951
v 0.43635825 0.24520291 0.09226251
v -0.48733720 -0.17768147 0.07987750
v 0.37101950 0.06901601 0.17130796
v -0.35330814 0.32581819 0.10730589
v -0.45927779 0.16380895 0.10801214
v -0.12533452 -0.39989093 0.08604149
v 0.40395483 -0.08302358 0.15803114
v 0.32622921 -0.07721556 0.18265948
v 0.21345465 0.01887957 0.19477980
v -0.14714377 0.28156859 0.17479591
v 0.48986003 -0.22389579 0.06233652
v 0.16617236 -0.18423098 0.15215020
v -0.28983557 0.07847655 0.19180145
v 0.21050134 0.26338136 0.17194728
v -0.43231221 -0.19583387 0.11490591
v 0.28590052 0.31819242 0.13578727
v -0.05419667 0.40042123 0.13118556
v -0.25813884 -0.33797726 0.12190796
v 0.25145033 -0.06079834 0.18995492
v 0.25685167 0.17325825 0.18821849
v -0.25980849 -0.16332174 0.17578525
v -0.20879724 0.18998813 0.18925085
v -0.51200731 0.06136450 0.08295164
v -0.39209409 -0.25022961 0.12074491
v 0.04245010 0.19445247 0.18903821
v 0.21084078 0.32878059 0.14884342
v 0.37301329 -0.31939753 0.09612928
v -0.30120295 -0.09766047 0.18428214
v 0.10732421 0.30825809 0.16713428
v -0.35966440 0.16202994 0.15996032
v -0.23587566 0.03893236 0.19708645
v -0.15002146 0.15678807 0.19392748
v -0.15718517 0.32304161 0.16039505
v 0.52756432 -0.17158281 0.04637621
v 0.29106366 -0.30907500 0.13038604
v 0.14077554 0.15511214 0.19379053
v 0.32691711 -0.51243782 0.00000000
v -0.19011178 -0.41941106 0.09007550
v 0.32765587 0.25227061 0.14851354
v -0.16348754 -0.51928165 0.03553852
v 0.14601973 -0.45288872 0.07143388
v -0.29859732 0.27780148 0.14928234
v 0.47264767 -0.06081235 0.12029625
v -0.16469385 -0.09364735 0.17142977
v 0.09085643 -0.59930855 0.00000000
v -0.44771436 -0.26747532 0.07907859
v -0.36915968 -0.40975086 0.04644147
v -0.20865357 0.50281790 0.04900604
v 0.60284495 0.07775159 0.00000000
v -0.48933694 0.36057833 0.00000000
v 0.46077695 0.39642397 0.00000000
v -0.57580047 -0.00979234 0.02557959
v -0.52230494 0.25076227 0.02106619
v -0.45339436 -0.01751035 0.13377795
v -0.34039747 0.12838073 0.17408792
v -0.34130481 0.36541861 0.09222408
v 0.51739111 0.25320521 0.02360935
v 0.51403852 0.08057723 0.07850816
v 0.32663473 0.36046045 0.10006878
v -0.01802191 0.57843754 0.01771533
v -0.35753272 0.41778664 0.04524006
v 0.09880800 0.56503831 0.02004942
v -0.57486090 0.09806715 0.01916152
v -0.21711826 0.44632675 0.08806227
v 0.48105663 -0.25919193 0.05354873
v -0.57029083 -0.09192814 0.02266348
v 0.49991767 -0.00947270 0.09974197
v 0.12889092 0.47575754 0.08339640
v 0.51577235 -0.20626446 0.04517390
v 0.43562041 0.03992580 0.14036643
v -0.50845668 0.13461681 0.07572098
v 0.46066175 0.14995553 0.11060883
v 0.33176738 0.00949059 0.18547412
v 0.57685413 -0.03245854 0.02317637
v 0.02061026 0.48734262 0.08485423
v 0.23461901 0.45604227 0.07624118
v 0.27487776 -0.02598683 0.19308838
v -0.43100645 -0.23730251 0.10281826
v 0.10431836 0.42315509 0.11741935
v -0.23175997 -0.46994450 0.05724381
v -0.28831207 0.17578472 0.18034280
v -0.27815111 -0.13283389 0.18116846
v -0.48327472 -0.31215899 0.02237815
v 0.18629039 -0.33267373 0.11952740
v -0.42607272 0.16506562 0.12943452
v -0.12632812 0.39878929 0.12944524
v -0.41069584 0.32494837 0.07253029
v -0.32735939 -0.35374793 0.09710893
v 0.22349593 -0.38597841 0.10269491
v -0.28260665 0.41171067 0.08525652
v 0.00531332 0.31824144 0.16423988
v -0.10907737 0.28338159 0.17453981
v 0.18654347 0.54423207 0.02091738
v -0.33812377 0.26332664 0.14026896
v 0.18466174 -0.44729015 0.07599587
v 0.21509157 -0.05542203 0.18790732
v 0.36690274 0.44325475 0.02210560
v 0.15043301 0.18713087 0.19146138
v -0.01946208 0.37876363 0.14206804
v 0.16004196 0.22310893 0.18601770
v 0.25265870 -0.30004782 0.13766506
v 0.41697167 -0.03968318 0.15415110
v 0.22643962 -0.53204330 0.01775636
v 0.10151122 -0.56078656 0.01821315
v -0.18547324 0.15727857 0.19412452
v 0.44491539 -0.17425482 0.11208182
v -0.40828762 -0.33718895 0.06531441
v -0.19892329 0.57436651 0.00000000
v -0.57496589 -0.19718409 0.00000000
v 0.44501001 -0.41404521 0.00000000
v -0.44730964 -0.41155976 0.00000000
v -0.31854054 0.51768649 0.00000000
v -0.19316355 0.05068129 0.19653413
v -0.33967274 -0.09694517 0.17835690
v 0.37897903 0.28740123 0.11124156
v -0.20432655 -0.38353984 0.10411510
v -0.45029336 -0.08990065 0.12975619
v 0.14785300 -0.01826917 0.18171708
v -0.22801135 0.25762693 0.17102702
v -0.39299428 0.46370557 0.00000000
v -0.14871923 0.46761622 0.08674202
v -0.54721669 -0.00640292 0.05929387
v -0.49752659 0.20505013 0.06254836
v -0.24362375 0.51949445 0.02234190
v 0.07007837 0.54175359 0.04118345
v -0.36717470 0.38342332 0.06653961
v 0.22849232 0.52580953 0.02304730
v 0.53528811 0.14538944 0.04530480
v 0.45901917 0.11548584 0.11909619
v 0.55234977 -0.05136833 0.04992887
v -0.46826650 0.02087849 0.12171393
v -0.41180134 0.12800408 0.14543055
v -0.15597914 0.38150369 0.13558628
v -0.53574001 0.13555546 0.04772102
v -0.53948808 -0.20830085 0.02178388
v -0.29842198 -0.02260392 0.19077562
v 0.12454250 0.50659307 0.06093287
v -0.30269545 0.37691125 0.09879876
v -0.01442323 0.48710855 0.08532602
v 0.49257398 0.19995995 0.07270554
v -0.30975268 -0.39110727 0.08385463
v 0.04920306 0.40055941 0.13154370
v 0.42084970 -0.35023283 0.04883905
v -0.52082317 -0.08012063 0.07591610
v 0.49568936 0.02625798 0.10090231
v 0.30655283 0.28730628 0.14288204
v -0.02364005 0.34338988 0.15572213
v 0.39262994 0.32120169 0.08877645
v -0.38460189 0.31417667 0.09626355
v 0.41019273 0.07347326 0.15333057
v 0.44952202 0.27417540 0.06916176
v 0.35604786 0.10774041 0.17290968
v 0.19907405 -0.20825568 0.15585473
v -0.47834287 0.13134622 0.10167842
v -0.48842751 -0.21372643 0.06645384
v 0.38996842 -0.15366016 0.14817847
v -0.11915345 0.31633139 0.16457330
v 0.00110758 0.60783726 0.00000000
v 0.13010299 0.59375125 0.00000000
v -0.15830503 0.58686191 0.00000000
v -0.58688796 -0.15820837 0.00000000
v 0.55528694 0.24723220 0.00000000
v 0.47138885 -0.38374460 0.00000000
v 0.19429863 0.05664654 0.19694594
v 0.03592822 0.16164541 0.19105383
v -0.43720162 0.22559809 0.10056051
v 0.16567706 -0.10429711 0.16946155
v 0.44005710 -0.07000922 0.13932578
v -0.22944095 -0.52647047 0.01964724
v -0.13303474 0.09485870 0.19356301
v -0.30229981 0.13811459 0.18238731
v 0.31147214 -0.37891474 0.08985075
v 0.33695531 -0.43138431 0.04662167
v -0.12042111 0.21045343 0.18932542
v 0.40888231 0.18143941 0.13351485
v -0.41048646 -0.27624995 0.09814528
v -0.17449921 0.52238210 0.04005572
v 0.39724979 0.41360771 0.02462160
v -0.40048397 0.01653180 0.15972952
v -0.16204456 0.49830897 0.06249297
v -0.32034710 0.47628566 0.02177336
v 0.15490175 0.52588402 0.04132859
v -0.55820951 -0.03545912 0.04580411
v 0.55386602 -0.01008778 0.05215174
v -0.49643421 0.28514453 0.02594433
v -0.04633917 0.50281586 0.07328442
v -0.22699499 0.38852240 0.11762969
v -0.54715675 0.17054449 0.02695942
v -0.20647483 0.53525985 0.02208662
v 0.51920799 0.11507699 0.06809904
v 0.54240674 -0.27433974 0.00000000
v 0.50123982 -0.04749206 0.09730058
v 0.45823607 0.20966230 0.09387327
v -0.28748163 0.31456994 0.13751614
v -0.41457806 -0.08838434 0.15180454
v 0.29661958 0.39199638 0.09158314
v 0.11666916 0.39172417 0.13301559
v -0.44941722 0.05669722 0.13037049
v 0.27325553 -0.13701739 0.18036373
v -0.13234565 0.02620089 0.18656528
v -0.31445591 -0.24876891 0.14807269
v -0.25197021 -0.43599287 0.07484369
v 0.47041976 0.08170076 0.11365041
v 0.00369471 -0.61840785 0.00000000
v -0.29037996 -0.42747374 0.06907857
v 0.41194848 -0.31804073 0.07391822
v 0.54969781 0.10454554 0.04088801
v 0.09743194 0.48750262 0.07783818
v 0.02506871 0.42582751 0.11967915
v 0.13223277 0.44439626 0.10342504
v 0.43089963 -0.37942058 0.02156585
v -0.56799317 0.06369837 0.03022778
v -0.51305747 -0.23096774 0.04367679
v -0.49982043 0.02381068 0.09822601
v 0.14399774 -0.34181795 0.10714328
v -0.14774682 -0.33015218 0.11138223
v 0.09254388 0.24023178 0.18424715
v -0.07453796 0.45262538 0.10228592
v -0.18800609 -0.02185740 0.18837200
v 0.53806047 -0.13273983 0.04719150
v 0.17722945 0.58142674 0.00000000
v -0.07761306 0.60286283 0.00000000
v -0.60680664 -0.03539819 0.00000000
v 0.59932864 -0.10135340 0.00000000
v 0.60727406 0.02618292 0.00000000
v -0.52306062 -0.30963674 0.00000000
v -0.45731241 0.40041569 0.00000000
v 0.29883647 0.52930534 0.00000000
v -0.27730468 0.54089689 0.00000000
v 0.50785383 -0.14685724 0.07125545
v 0.32092394 -0.47273981 0.02369946
v 0.23545107 0.05320575 0.19682815
v 0.49526468 0.29097674 0.02343820
v 0.08436613 -0.49484783 0.04890129
v -0.37070803 -0.28450902 0.11634821
v 0.46752788 -0.20091406 0.09028183
v 0.44986639 -0.03062998 0.13609687
v -0.26820034 0.25100596 0.16718286
v 0.30960441 -0.27373804 0.14208020
v 0.36453949 -0.08354144 0.17335358
v -0.56178289 -0.13109923 0.02259563
v -0.42537814 -0.36079727 0.03829339
v 0.00919929 0.21876768 0.18564837
v 0.18804035 0.29656566 0.16495368
v -0.25172948 0.48600545 0.04592676
v -0.40835428 0.36267934 0.05120289
v 0.30133240 0.42845178 0.06558496
v -0.46932129 0.23407390 0.07395446
v -0.09070500 0.34295362 0.15493223
v -0.52911307 0.21195670 0.02964184
v 0.42386616 -0.14695266 0.13203313
v 0.19996752 0.48019928 0.07178275
v -0.59611666 0.11879523 0.00000000
v 0.40566403 0.45266327 0.00000000
v -0.40487870 0.25091649 0.10941436
v -0.58308802 0.02943617 0.01909536
v 0.31780935 0.32485662 0.12317751
v -0.50195770 -0.05045977 0.09611068
v -0.54047515 0.06247944 0.05685989
v 0.44213539 -0.28116692 0.07488282
v -0.21379531 0.35625092 0.13709198
v -0.12035900 0.49266223 0.07267496
v 0.50396563 0.22633116 0.04693683
v -0.01442395 0.55136620 0.03739510
v 0.07143066 0.30073344 0.16932223
v 0.52113082 0.18689005 0.04697917
v 0.16847496 0.43048123 0.10747131
v -0.37997755 -0.02017703 0.16897418
v 0.49154890 0.10063722 0.09528493
v -0.35464067 0.08496901 0.17645582
v 0.52149475 0.04570334 0.07704987
v 0.38403762 0.38622918 0.05465981
v 0.33857480 -0.11748398 0.17574717
v 0.25691539 0.38971311 0.10738984
v -0.27786087 0.34987785 0.12213331
v -0.17567802 -0.45393537 0.07282703
v -0.15420762 -0.29020500 0.12321084
v 0.15234855 -0.30189320 0.11976308
v -0.36571278 -0.17984935 0.15153644
v -0.60300517 -0.07649910 0.00000000
v -0.47540072 -0.37876314 0.00000000
v 0.51377952 0.32480448 0.00000000
v -0.33776820 -0.50535136 0.00000000
v -0.55705661 0.24321865 0.00000000
v 0.25593263 0.55133098 0.00000000
v 0.37092990 0.17979419 0.15057469
v -0.48088058 -0.25252831 0.05596245
v 0.01600205 0.57439773 0.02024520
v -0.39008000 0.42520688 0.02192543
v -0.41901056 0.39488241 0.02323670
v 0.06842847 -0.57401022 0.01451913
v 0.56266757 0.13335822 0.02134502
v -0.08058264 0.48284338 0.08288007
v 0.14279436 -0.55229161 0.01910094
v 0.29099107 0.11050948 0.18864762
v -0.16614604 -0.39202266 0.09669457
v -0.22666873 -0.31018171 0.13443715
v 0.15785897 -0.06305498 0.17560489
v -0.29630167 0.43448837 0.06435738
v -0.08244728 -0.60154736 0.00000000
v 0.19915845 0.41720625 0.10918670
v -0.27897464 0.04515784 0.19508895
v -0.44163709 -0.37898793 0.01695608
v 0.44332744 0.18064544 0.11361423
v 0.48656723 -0.12251239 0.09492779
v -0.49218439 0.16903388 0.08538556
v -0.22597238 0.47313933 0.06717072
v -0.49819475 0.24216312 0.04463907
v -0.16458676 0.54889636 0.02176430
v -0.05330117 -0.54657453 0.02787590
v -0.48586451 -0.01508608 0.11043331
v 0.07335497 0.13533012 0.19195830
v -0.17625260 0.44300810 0.09905162
v -0.60688978 0.03394369 0.00000000
v -0.57195485 0.20575470 0.00000000
v 0.43933802 0.33997330 0.04091163
v 0.03320434 -0.56935787 0.01897325
v 0.33717406 0.05067988 0.18600770
v -0.23126463 -0.17999787 0.16944317
v 0.33382261 0.43509554 0.04504623
v 0.45348761 0.35998812 0.02008371
v -0.15553673 -0.58208841 0.00000000
v -0.04888556 0.53323222 0.05011089
v -0.42835356 -0.30145327 0.07169270
v -0.05418136 0.56612080 0.02447523
v 0.36631478 0.02454064 0.17470491
v 0.57107329 0.20818903 0.00000000
v 0.57537731 0.09197443 0.01784565
v 0.35751512 -0.01651022 0.17705450
v 0.26541942 0.49477607 0.03305380
v 0.25593770 -0.50648501 0.02614630
v 0.56189315 0.06688531 0.03510105
v 0.29640168 -0.53067261 0.00000000
v -0.12755738 -0.56344615 0.01455676
v 0.42232649 0.38132399 0.02834260
v 0.26864846 0.51932433 0.01432482
v 0.57813975 0.04792122 0.02072263
v 0.06820389 0.11388580 0.19115150
f 111 843 212
f 369 97 89
f 325 809 221
f 89 713 416
f 438 620 163
f 556 438 158
f 616 235 751
f 592 215 169
f 644 618 177
f 400 670 618
f 490 692 344
f 561 765 178
f 422 367 631
f 446 227 580
f 817 694 562
f 500 596 346
f 441 798 570
f 565 635 154
f 696 135 294
f 142 754 345
f 502 358 185
f 489 502 818
f 420 773 95
f 803 359 64
f 20 355 16
f 244 184 355
f 740 546 184
f 700 361 425
f 11 15 509
f 437 619 720
f 693 583 482
f 278 801 352
f 778 699 417
f 583 639 279
f 844 560 17
f 439 657 229
f 493 649 8
f 585 761 60
f 585 434 289
f 492 781 23
f 213 280 571
f 421 646 577
f 819 221 369
f 115 111 549
f 612 64 53
f 108 460 395
f 128 401 547
f 549 212 108
f 130 589 377
f 257 120 589
f 130 377 136
f 335 203 725
f 625 805 335
f 527 806 252
f 806 527 127
f 139 252 472
f 128 271 138
f 710 370 139
f 271 247 138
f 159 368 597
f 368 148 650
f 150 159 597
f 299 616 751
f 368 159 299
f 438 556 299
f 118 472 124
f 133 530 267
f 319 139 472
f 788 248 146
f 623 327 141
f 161 704 432
f 524 160 375
f 375 156 191
f 626 314 704
f 173 246 297
f 375 191 524
f 173 297 186
f 767 174 653
f 186 511 173
f 476 410 553
f 828 312 530
f 201 408 132
f 464 408 254
f 145 645 301
f 591 537 141
f 645 454 301
f 777 301 155
f 157 499 240
f 153 507 432
f 348 777 688
f 157 641 440
f 440 707 499
f 161 563 170
f 820 723 422
f 171 227 532
f 815 342 580
f 164 640 563
f 112 210 728
f 728 226 293
f 122 462 402
f 122 443 462
f 134 374 522
f 811 147 454
f 680 443 590
f 564 539 305
f 551 603 140
f 436 190 362
f 436 641 305
f 430 172 514
f 207 679 110
f 261 541 465
f 262 211 117
f 262 107 683
f 614 541 262
f 402 614 122
f 519 121 211
f 131 531 316
f 121 273 628
f 388 747 140
f 238 595 642
f 703 551 365
f 551 703 149
f 135 233 599
f 429 647 565
f 453 390 98
f 390 453 107
f 99 274 91
f 99 320 386
f 101 320 260
f 608 656 93
f 260 656 102
f 601 101 666
f 193 526 103
f 373 608 526
f 103 433 595
f 435 357 727
f 695 802 357
f 630 105 771
f 119 822 630
f 81 394 545
f 752 534 87
f 399 92 91
f 91 752 399
f 376 78 609
f 444 86 774
f 196 538 249
f 249 468 328
f 85 309 328
f 718 651 242
f 328 706 85
f 96 718 307
f 776 810 60
f 82 343 646
f 83 307 242
f 79 743 266
f 270 604 63
f 59 604 69
f 69 550 79
f 51 322 598
f 48 391 59
f 43 258 48
f 59 317 231
f 840 48 231
f 612 53 286
f 70 724 407
f 550 339 80
f 544 610 253
f 681 28 39
f 392 748 467
f 41 322 51
f 28 300 19
f 383 508 308
f 39 303 544
f 364 300 24
f 303 536 237
f 15 652 509
f 16 437 20
f 769 574 13
f 62 371 457
f 724 593 787
f 332 708 50
f 50 46 332
f 471 46 50
f 748 392 40
f 265 782 37
f 708 265 37
f 32 467 383
f 308 349 469
f 508 383 27
f 404 760 478
f 349 308 18
f 814 739 7
f 552 701 10
f 206 336 61
f 627 411 68
f 662 521 71
f 37 47 455
f 516 749 25
f 782 517 37
f 611 22 288
f 654 334 372
f 716 699 4
f 236 638 445
f 334 712 236
f 61 323 676
f 741 518 42
f 475 518 673
f 605 411 323
f 250 321 42
f 452 379 45
f 661 310 512
f 389 804 34
f 804 310 34
f 189 684 296
f 189 298 26
f 655 38 548
f 363 21 445
f 8 813 581
f 624 451 29
f 66 412 673
f 394 77 204
f 73 57 263
f 204 333 73
f 452 529 57
f 58 523 315
f 78 75 264
f 49 251 525
f 393 753 535
f 65 376 609
f 398 72 302
f 326 535 753
f 23 451 657
f 575 789 179
f 830 473 182
f 35 842 546
f 244 20 24
f 43 840 35
f 414 136 285
f 311 136 377
f 664 722 796
f 7 504 449
f 24 682 244
f 825 439 12
f 172 757 632
f 771 802 338
f 557 698 633
f 478 615 188
f 702 296 813
f 296 382 189
f 433 116 595
f 160 524 587
f 255 156 327
f 760 469 615
f 589 120 401
f 305 779 564
f 34 505 192
f 192 378 259
f 32 383 194
f 198 195 146
f 51 391 258
f 257 115 549
f 827 396 31
f 389 34 192
f 264 538 774
f 197 46 392
f 803 266 613
f 402 481 330
f 313 540 137
f 86 399 200
f 464 537 132
f 61 406 202
f 528 202 455
f 274 98 329
f 274 272 453
f 77 66 204
f 545 73 607
f 312 201 132
f 208 77 84
f 85 242 651
f 622 540 477
f 709 110 210
f 519 324 121
f 79 74 69
f 602 691 341
f 498 175 643
f 592 169 235
f 216 509 672
f 690 621 217
f 554 219 613
f 275 442 220
f 325 100 212
f 292 222 552
f 786 223 725
f 649 772 224
f 400 644 225
f 463 297 176
f 336 471 50
f 384 662 62
f 553 293 226
f 201 123 408
f 768 446 175
f 165 514 663
f 154 658 513
f 500 230 596
f 95 695 648
f 695 832 338
f 317 612 231
f 49 44 302
f 636 494 839
f 696 496 233
f 266 743 234
f 616 833 235
f 411 627 807
f 638 778 417
f 21 512 659
f 18 769 13
f 303 27 748
f 758 193 238
f 760 404 239
f 447 665 25
f 130 678 257
f 499 688 240
f 397 240 155
f 241 674 90
f 196 309 444
f 718 96 503
f 266 803 74
f 590 388 243
f 546 740 35
f 792 245 183
f 148 714 650
f 744 685 295
f 327 788 195
f 75 249 538
f 459 527 252
f 472 806 124
f 748 544 303
f 408 464 132
f 254 313 137
f 395 785 120
f 327 156 788
f 191 314 405
f 256 114 205
f 312 828 337
f 391 51 63
f 389 192 259
f 600 260 92
f 101 758 666
f 390 104 304
f 614 465 541
f 605 68 411
f 531 122 614
f 57 73 333
f 57 403 263
f 317 69 74
f 726 200 87
f 88 268 534
f 726 409 78
f 181 694 269
f 559 269 418
f 270 70 407
f 330 622 110
f 412 77 208
f 593 52 55
f 274 453 98
f 386 109 272
f 365 628 273
f 488 275 220
f 276 142 690
f 483 635 570
f 485 721 572
f 721 765 277
f 694 168 269
f 775 278 419
f 733 279 3
f 504 7 729
f 634 420 497
f 698 125 633
f 281 705 568
f 781 380 281
f 461 282 351
f 487 566 671
f 660 12 439
f 124 284 118
f 225 463 400
f 509 216 11
f 812 790 620
f 167 664 796
f 838 288 22
f 749 516 288
f 36 839 289
f 434 585 232
f 707 171 640
f 508 291 18
f 222 814 7
f 552 10 746
f 554 800 416
f 496 696 381
f 456 770 129
f 833 685 555
f 151 533 744
f 189 795 684
f 296 510 382
f 246 653 297
f 378 548 38
f 229 624 382
f 556 470 148
f 300 364 19
f 300 30 682
f 137 645 254
f 535 302 72
f 810 67 398
f 536 28 19
f 104 390 261
f 595 193 103
f 113 642 381
f 843 831 218
f 126 115 678
f 416 826 89
f 152 539 144
f 641 436 594
f 149 340 603
f 243 306 152
f 96 584 648
f 308 194 383
f 651 94 309
f 396 804 45
f 661 34 310
f 247 650 138
f 527 271 127
f 714 148 311
f 604 550 69
f 267 591 141
f 412 475 673
f 191 405 166
f 65 315 523
f 58 38 251
f 747 316 628
f 59 231 48
f 318 457 610
f 472 385 319
f 320 101 386
f 741 42 321
f 253 322 39
f 68 605 56
f 113 456 542
f 545 607 81
f 376 65 523
f 523 326 753
f 156 255 314
f 328 196 249
f 534 674 88
f 752 87 399
f 465 679 261
f 243 144 590
f 774 538 196
f 805 515 203
f 547 401 785
f 197 265 332
f 197 332 46
f 66 379 333
f 123 201 226
f 476 226 201
f 10 576 372
f 334 236 579
f 725 223 335
f 335 127 625
f 336 50 406
f 336 206 521
f 337 205 410
f 489 338 106
f 211 109 519
f 339 270 407
f 764 387 340
f 387 764 362
f 740 43 35
f 761 585 494
f 571 668 213
f 687 844 17
f 634 82 571
f 343 497 450
f 179 750 575
f 631 692 174
f 142 345 690
f 621 690 345
f 346 269 168
f 347 482 846
f 693 491 5
f 161 432 348
f 188 426 739
f 280 634 571
f 775 637 278
f 353 495 428
f 245 158 354
f 244 355 20
f 142 276 808
f 802 105 727
f 105 103 727
f 731 185 358
f 832 106 338
f 480 115 126
f 746 10 372
f 6 282 578
f 362 190 387
f 815 514 172
f 21 363 505
f 364 652 19
f 24 437 364
f 766 655 29
f 647 784 135
f 273 121 324
f 782 265 447
f 366 167 587
f 511 166 173
f 277 631 367
f 532 768 367
f 299 556 368
f 650 597 368
f 370 150 459
f 151 744 370
f 457 371 55
f 780 654 491
f 468 209 706
f 209 719 588
f 93 94 608
f 373 102 656
f 397 779 240
f 327 623 153
f 537 145 623
f 166 524 191
f 409 609 78
f 376 753 75
f 134 199 462
f 147 811 522
f 26 378 192
f 58 458 38
f 452 333 379
f 673 379 66
f 687 380 781
f 756 829 36
f 294 770 696
f 770 456 113
f 382 510 229
f 194 308 469
f 467 32 197
f 62 318 384
f 392 384 318
f 701 576 10
f 504 729 3
f 519 542 324
f 133 319 385
f 99 386 272
f 387 603 340
f 388 131 316
f 389 452 804
f 529 259 458
f 390 304 98
f 390 107 261
f 391 48 258
f 391 63 604
f 467 27 383
f 384 392 46
f 322 253 52
f 393 72 468
f 674 821 88
f 395 120 257
f 396 321 31
f 396 310 804
f 477 540 313
f 783 302 44
f 398 67 72
f 250 586 33
f 399 87 200
f 444 93 600
f 428 644 177
f 785 401 120
f 257 589 130
f 199 481 462
f 402 330 465
f 458 403 529
f 516 404 677
f 404 478 292
f 406 61 336
f 406 455 202
f 141 327 195
f 660 224 283
f 123 254 408
f 409 726 268
f 476 337 410
f 61 676 206
f 323 807 676
f 56 518 68
f 412 208 76
f 171 413 227
f 460 290 415
f 550 270 339
f 221 97 369
f 405 173 166
f 176 490 575
f 211 121 117
f 638 581 14
f 9 780 567
f 380 687 606
f 483 799 755
f 283 772 566
f 772 649 775
f 95 497 420
f 719 577 83
f 646 691 82
f 532 723 171
f 820 170 563
f 818 669 617
f 636 602 341
f 732 344 561
f 279 733 423
f 562 793 759
f 425 11 216
f 745 349 13
f 543 739 426
f 801 837 214
f 557 816 119
f 808 427 142
f 495 722 428
f 129 365 273
f 429 513 149
f 757 187 479
f 236 659 579
f 431 22 360
f 255 153 704
f 193 595 238
f 116 822 496
f 232 810 398
f 776 60 506
f 756 289 434
f 503 608 94
f 357 435 96
f 305 539 436
f 362 594 436
f 672 720 619
f 510 660 229
f 439 492 657
f 102 101 260
f 276 690 441
f 798 441 629
f 36 220 442
f 611 677 746
f 131 590 443
f 14 363 445
f 445 21 659
f 580 643 446
f 768 532 446
f 365 747 628
f 469 760 665
f 447 32 194
f 92 320 91
f 788 146 195
f 288 838 448
f 448 517 749
f 639 5 449
f 449 222 7
f 374 147 522
f 450 83 717
f 657 624 229
f 655 766 525
f 535 49 302
f 398 783 232
f 309 93 444
f 452 389 529
f 388 140 243
f 124 786 284
f 522 811 199
f 397 454 147
f 455 47 528
f 708 406 50
f 456 129 273
f 457 55 610
f 371 62 474
f 753 376 523
f 378 458 259
f 139 459 252
f 597 459 150
f 461 351 180
f 461 3 729
f 711 589 401
f 481 199 540
f 463 750 400
f 464 254 645
f 145 537 464
f 70 598 52
f 264 774 200
f 200 726 264
f 26 548 378
f 41 466 30
f 466 682 30
f 467 197 392
f 209 67 776
f 469 349 615
f 469 665 194
f 268 81 409
f 88 81 268
f 173 405 246
f 470 556 158
f 470 311 148
f 609 263 65
f 65 263 403
f 45 741 321
f 107 262 541
f 74 79 266
f 828 385 256
f 202 323 61
f 338 489 771
f 473 791 182
f 283 742 12
f 474 62 71
f 475 76 627
f 210 112 709
f 476 553 226
f 678 414 126
f 740 184 244
f 245 354 183
f 114 256 118
f 15 769 715
f 210 477 728
f 340 513 658
f 80 79 550
f 478 188 814
f 479 500 168
f 359 803 219
f 115 480 111
f 287 495 592
f 481 622 330
f 481 402 462
f 296 702 510
f 45 321 396
f 558 846 734
f 491 693 347
f 418 736 559
f 596 755 346
f 277 768 721
f 181 486 694
f 742 487 791
f 220 606 488
f 345 633 738
f 630 689 119
f 344 575 490
f 491 576 5
f 347 780 491
f 23 657 492
f 705 756 434
f 699 716 637
f 417 8 581
f 421 761 341
f 796 722 495
f 735 495 353
f 822 573 496
f 95 584 497
f 343 634 497
f 762 572 498
f 499 164 688
f 707 440 413
f 563 161 348
f 246 170 767
f 187 764 230
f 668 571 501
f 501 730 668
f 502 489 106
f 307 718 242
f 504 279 639
f 427 808 599
f 795 505 363
f 506 60 761
f 577 719 506
f 507 777 432
f 136 311 143
f 714 377 711
f 6 700 2
f 361 574 228
f 508 18 308
f 15 11 228
f 429 565 513
f 430 594 362
f 663 580 227
f 331 415 515
f 33 47 517
f 517 448 33
f 349 18 13
f 518 475 68
f 42 518 56
f 451 23 568
f 109 211 683
f 745 13 520
f 6 578 520
f 521 662 336
f 147 374 779
f 523 58 326
f 315 65 403
f 366 587 524
f 466 41 258
f 294 784 129
f 431 835 22
f 251 49 326
f 568 766 451
f 526 435 103
f 193 373 526
f 806 127 223
f 527 459 247
f 455 708 37
f 313 728 477
f 55 52 253
f 322 41 681
f 321 250 31
f 528 56 605
f 528 586 56
f 143 470 245
f 600 86 444
f 529 389 259
f 267 198 133
f 385 828 133
f 300 681 30
f 117 316 531
f 531 131 122
f 532 367 723
f 93 309 94
f 248 160 533
f 685 744 533
f 534 329 674
f 87 268 726
f 535 72 393
f 589 711 377
f 63 51 598
f 392 318 40
f 156 314 191
f 438 812 620
f 537 623 141
f 591 132 537
f 249 75 393
f 774 196 444
f 190 539 152
f 539 564 144
f 540 811 137
f 683 107 453
f 88 394 81
f 325 819 100
f 324 456 273
f 739 729 7
f 543 578 282
f 472 118 385
f 544 40 610
f 315 403 458
f 73 545 204
f 3 461 180
f 158 438 163
f 143 285 136
f 370 710 151
f 114 118 284
f 118 256 385
f 612 317 64
f 515 805 331
f 547 625 128
f 38 655 251
f 548 26 298
f 549 395 257
f 306 140 603
f 452 57 333
f 552 222 701
f 552 677 292
f 301 454 397
f 272 274 99
f 221 809 97
f 581 638 417
f 555 796 287
f 101 102 758
f 597 650 247
f 686 689 489
f 698 818 617
f 799 162 736
f 845 442 737
f 692 631 561
f 632 759 342
f 563 348 164
f 170 820 767
f 779 305 157
f 374 680 564
f 565 154 513
f 647 429 784
f 566 742 283
f 699 778 567
f 780 4 567
f 434 783 705
f 569 667 484
f 799 798 162
f 570 276 441
f 280 213 350
f 175 572 721
f 762 485 572
f 427 816 754
f 573 233 496
f 574 520 13
f 58 251 326
f 701 449 5
f 576 491 654
f 646 717 577
f 577 506 421
f 520 426 745
f 722 225 644
f 372 579 360
f 579 431 360
f 580 342 643
f 580 663 815
f 748 27 467
f 508 237 291
f 8 417 493
f 581 813 14
f 582 250 33
f 582 31 250
f 499 157 440
f 583 1 482
f 583 423 1
f 450 307 83
f 585 289 494
f 19 715 536
f 586 528 47
f 586 42 56
f 587 685 533
f 587 167 555
f 588 83 242
f 588 85 706
f 439 825 492
f 155 301 397
f 145 507 623
f 401 128 711
f 590 131 388
f 680 590 144
f 591 312 132
f 591 267 530
f 592 735 215
f 592 235 287
f 593 371 787
f 593 70 52
f 594 430 514
f 704 161 626
f 596 154 755
f 658 596 230
f 475 412 76
f 749 782 25
f 247 459 597
f 159 150 295
f 435 503 96
f 598 322 52
f 598 70 63
f 827 310 396
f 356 647 599
f 599 233 427
f 600 93 656
f 601 666 519
f 109 601 519
f 602 501 691
f 603 551 149
f 603 387 306
f 478 814 292
f 604 59 391
f 99 91 320
f 198 710 319
f 605 323 202
f 202 528 605
f 166 366 524
f 606 763 488
f 72 67 468
f 607 73 263
f 607 409 81
f 158 245 470
f 500 479 187
f 85 651 309
f 503 526 608
f 608 373 656
f 78 376 75
f 607 609 409
f 784 703 129
f 610 40 318
f 610 55 253
f 542 666 238
f 516 611 288
f 611 746 360
f 286 840 612
f 234 800 613
f 402 465 614
f 123 313 254
f 533 160 587
f 248 375 160
f 86 92 399
f 253 39 544
f 505 795 192
f 426 520 578
f 258 41 51
f 262 117 531
f 25 239 516
f 616 159 295
f 818 686 489
f 619 437 16
f 169 812 751
f 11 425 361
f 621 345 738
f 660 283 12
f 622 481 540
f 622 210 110
f 623 507 153
f 541 261 107
f 45 379 741
f 379 673 741
f 108 290 460
f 460 331 785
f 394 204 545
f 84 77 394
f 298 29 548
f 625 547 805
f 625 127 271
f 626 161 170
f 626 246 405
f 293 112 728
f 627 68 475
f 169 751 235
f 291 237 536
f 769 18 291
f 134 522 199
f 190 436 539
f 681 300 28
f 628 316 117
f 217 629 441
f 630 433 105
f 561 277 765
f 631 174 422
f 694 817 479
f 844 781 492
f 633 345 754
f 420 280 797
f 356 635 565
f 483 755 635
f 636 341 494
f 637 493 699
f 716 801 637
f 9 778 712
f 638 14 445
f 358 106 834
f 834 773 569
f 583 693 639
f 639 449 504
f 616 295 833
f 164 707 640
f 723 820 640
f 641 157 305
f 2 351 282
f 642 113 238
f 28 303 39
f 303 237 27
f 264 75 538
f 477 210 622
f 839 36 442
f 340 149 513
f 643 342 697
f 643 175 446
f 225 722 664
f 644 400 618
f 645 145 464
f 645 137 454
f 717 646 343
f 646 421 691
f 344 732 789
f 647 356 565
f 647 135 599
f 648 357 96
f 224 702 649
f 493 775 649
f 552 746 677
f 242 85 588
f 459 139 370
f 715 652 15
f 364 720 652
f 346 168 500
f 346 418 269
f 170 246 626
f 653 174 490
f 4 347 841
f 654 372 576
f 334 9 712
f 655 525 251
f 151 248 533
f 656 260 600
f 116 433 822
f 777 507 301
f 658 154 596
f 658 230 340
f 543 426 578
f 427 233 573
f 201 312 476
f 742 566 487
f 3 279 504
f 274 752 91
f 752 274 329
f 659 236 445
f 659 431 579
f 468 249 393
f 375 248 788
f 660 439 229
f 660 510 224
f 661 21 505
f 176 653 490
f 297 463 186
f 471 336 662
f 662 71 62
f 662 384 471
f 514 165 594
f 663 227 413
f 60 232 585
f 531 614 262
f 122 131 443
f 503 435 526
f 790 812 169
f 366 511 664
f 256 205 337
f 840 43 48
f 665 239 25
f 665 447 194
f 666 542 519
f 243 152 144
f 299 751 438
f 158 163 354
f 667 797 350
f 730 501 602
f 669 502 185
f 423 583 279
f 670 400 750
f 419 836 671
f 227 446 532
f 198 267 195
f 518 741 673
f 674 241 821
f 674 329 90
f 282 6 2
f 66 77 412
f 362 764 675
f 187 757 675
f 382 298 189
f 568 23 281
f 44 766 568
f 783 398 302
f 549 111 212
f 677 404 292
f 679 104 261
f 679 465 330
f 683 453 272
f 319 133 198
f 680 144 564
f 680 374 134
f 681 39 322
f 681 41 30
f 682 24 300
f 466 740 682
f 317 59 69
f 683 272 109
f 683 211 262
f 271 527 247
f 397 147 779
f 152 306 190
f 299 159 616
f 795 189 26
f 14 684 363
f 833 295 685
f 686 557 689
f 813 8 702
f 86 600 92
f 225 186 463
f 517 782 749
f 687 17 763
f 687 781 844
f 688 164 348
f 688 155 240
f 755 418 346
f 689 557 119
f 630 771 689
f 356 570 635
f 754 142 427
f 690 217 441
f 667 569 797
f 280 420 634
f 691 421 341
f 501 82 691
f 692 490 174
f 693 482 347
f 694 479 168
f 562 486 793
f 695 357 648
f 834 832 773
f 496 381 116
f 696 233 135
f 825 12 473
f 697 498 643
f 824 697 759
f 698 617 125
f 698 557 686
f 699 567 4
f 699 493 417
f 700 6 361
f 815 632 342
f 576 701 5
f 701 222 449
f 502 106 358
f 702 8 649
f 702 224 510
f 703 365 129
f 703 429 149
f 704 314 255
f 704 153 432
f 705 281 756
f 705 44 568
f 706 328 468
f 706 209 588
f 707 413 171
f 707 164 499
f 235 833 287
f 64 317 74
f 829 606 220
f 234 613 266
f 708 332 265
f 708 455 406
f 710 139 319
f 710 146 151
f 458 378 38
f 711 138 714
f 711 128 138
f 32 447 265
f 9 334 654
f 712 638 236
f 713 89 97
f 343 82 634
f 714 138 650
f 714 311 377
f 769 15 228
f 715 291 536
f 4 841 716
f 717 343 450
f 717 83 577
f 94 651 718
f 671 566 419
f 419 278 836
f 209 776 719
f 719 83 588
f 167 366 664
f 143 311 470
f 720 509 652
f 720 364 437
f 721 485 765
f 722 644 428
f 723 640 171
f 146 248 151
f 511 366 166
f 664 511 225
f 413 440 165
f 663 413 165
f 373 193 758
f 724 70 593
f 609 607 263
f 507 145 301
f 594 165 641
f 726 78 264
f 268 87 534
f 727 357 802
f 727 103 435
f 684 813 296
f 584 95 648
f 450 497 584
f 543 461 729
f 11 361 228
f 109 386 601
f 730 602 54
f 732 561 178
f 733 3 180
f 734 482 1
f 735 592 495
f 418 799 736
f 737 442 275
f 738 633 125
f 190 306 387
f 739 543 729
f 330 110 679
f 740 244 682
f 43 466 258
f 657 451 624
f 462 443 134
f 98 90 329
f 770 113 381
f 324 542 456
f 839 494 289
f 239 404 516
f 55 371 593
f 742 473 12
f 430 362 675
f 628 117 121
f 743 79 80
f 318 62 457
f 298 382 624
f 744 295 150
f 349 745 615
f 745 188 615
f 394 821 84
f 34 661 505
f 29 298 624
f 655 548 29
f 530 312 591
f 312 337 476
f 372 360 746
f 677 611 516
f 520 574 6
f 747 388 316
f 747 551 140
f 582 835 827
f 748 40 544
f 604 270 550
f 749 288 448
f 237 508 27
f 46 471 384
f 395 549 108
f 750 176 575
f 750 179 670
f 642 116 381
f 642 595 116
f 535 326 49
f 753 393 75
f 838 33 448
f 250 42 586
f 529 403 57
f 372 334 579
f 148 368 556
f 754 557 633
f 816 427 573
f 755 154 635
f 829 281 380
f 756 36 289
f 757 479 817
f 172 675 757
f 758 102 373
f 758 238 666
f 759 697 342
f 632 817 759
f 760 615 478
f 760 239 665
f 761 494 341
f 761 421 506
f 269 559 181
f 762 498 424
f 763 606 687
f 764 187 675
f 764 340 230
f 277 561 631
f 765 823 178
f 766 44 525
f 766 29 451
f 150 370 744
f 767 653 246
f 767 422 174
f 313 123 728
f 768 175 721
f 768 277 367
f 769 291 715
f 769 228 574
f 103 105 433
f 770 294 129
f 770 381 696
f 771 489 689
f 772 283 224
f 772 419 566
f 70 270 63
f 367 422 723
f 832 95 773
f 797 773 420
f 209 468 67
f 774 86 200
f 536 303 28
f 775 493 637
f 775 419 772
f 5 639 693
f 776 506 719
f 777 155 688
f 777 348 432
f 778 638 712
f 778 9 567
f 779 157 240
f 779 374 564
f 780 9 654
f 780 347 4
f 82 501 571
f 781 281 23
f 782 447 25
f 783 44 705
f 783 434 232
f 437 24 20
f 784 429 703
f 784 294 135
f 547 785 331
f 785 395 460
f 47 33 586
f 37 517 47
f 238 113 542
f 314 626 405
f 223 127 335
f 787 371 474
f 458 58 315
f 443 680 134
f 175 498 572
f 788 156 375
f 731 834 484
f 141 195 267
f 789 575 344
f 790 169 215
f 428 177 353
f 791 473 742
f 792 143 245
f 486 562 694
f 636 845 794
f 795 26 192
f 795 363 684
f 796 495 287
f 796 555 167
f 797 280 350
f 188 745 426
f 798 629 162
f 798 483 570
f 551 747 365
f 799 418 755
f 799 483 798
f 307 450 584
f 800 554 613
f 826 416 800
f 225 511 186
f 715 19 652
f 801 278 637
f 801 214 352
f 204 66 333
f 802 695 338
f 802 771 105
f 803 64 74
f 803 613 219
f 92 260 320
f 804 452 45
f 153 255 327
f 805 547 331
f 805 203 335
f 146 710 198
f 806 223 124
f 806 472 252
f 196 328 309
f 807 323 411
f 808 356 599
f 463 176 750
f 809 325 218
f 810 232 60
f 810 776 67
f 265 197 32
f 601 386 101
f 22 611 360
f 679 207 104
f 653 176 297
f 96 307 584
f 165 440 641
f 140 306 243
f 574 361 6
f 811 540 199
f 811 454 137
f 812 438 751
f 684 14 813
f 720 672 509
f 685 587 555
f 503 94 718
f 814 188 739
f 814 222 292
f 344 692 561
f 512 21 661
f 431 659 512
f 752 329 534
f 128 625 271
f 815 663 514
f 815 172 632
f 816 557 754
f 816 573 119
f 817 562 759
f 817 632 757
f 818 698 686
f 818 502 669
f 808 276 356
f 230 500 187
f 606 829 380
f 837 801 716
f 697 424 498
f 819 325 221
f 820 422 767
f 820 563 640
f 172 430 675
f 821 394 88
f 44 49 525
f 822 119 573
f 822 433 630
f 110 709 207
f 823 765 485
f 136 414 130
f 143 792 285
f 824 759 793
f 226 728 123
f 570 356 276
f 473 830 825
f 825 844 492
f 461 543 282
f 773 797 569
f 826 800 234
f 827 31 582
f 835 512 827
f 828 530 133
f 828 256 337
f 697 824 424
f 829 756 281
f 829 220 36
f 100 108 212
f 257 678 115
f 43 740 466
f 830 182 560
f 844 825 830
f 124 223 786
f 831 111 480
f 331 460 415
f 832 834 106
f 832 695 95
f 310 827 512
f 833 555 287
f 636 54 602
f 834 569 484
f 834 731 358
f 130 414 678
f 835 431 512
f 582 838 835
f 836 278 352
f 837 716 841
f 837 558 214
f 838 22 835
f 838 582 33
f 108 100 290
f 442 845 839
f 840 286 35
f 840 231 612
f 846 837 841
f 325 843 218
f 636 794 54
f 842 35 286
f 347 846 841
f 843 111 831
f 843 325 212
f 821 847 84
f 844 830 560
f 126 414 285
f 53 64 359
f 98 304 90
f 845 737 794
f 845 636 839
f 846 482 734
f 846 558 837
f 847 821 241
