# Cross vault with cable crease lines
# source      data/crossvault/mesh_out_cross_20240404130204.json
# generated   FDM/export_crossvault_obj.py
# plan        1.200 x 1.200 m, rise 0.400 m (rise/span 1:3.00)
# surface     169 vertices, 168 faces
# creases     6 cables, 2 diagonal + 4 arch
# extraction  lambda=15  mu=5  q>=2  theta=hybrid  ties_outward=True
# units are metres

v 1.040238 0.296426 0.206991
v 1.139524 0.303364 0.113807
v 1.151940 0.398609 0.132163
v 1.050051 0.398645 0.252152
v 1.024074 0.176774 0.165594
v 1.137229 0.201801 0.086050
v 0.947296 0.386871 0.309431
v 0.926063 0.277817 0.256081
v 1.200000 0.200000 0.000000
v 1.200000 0.300000 0.000000
v 1.111771 0.083235 0.069700
v 1.200000 0.100000 0.000000
v 0.387527 0.824746 0.325354
v 0.388243 0.944298 0.301091
v 0.273945 0.922344 0.256285
v 0.495811 0.850343 0.374627
v 0.491770 0.950944 0.350029
v 0.487780 0.728673 0.361868
v 0.348595 0.703968 0.378558
v 0.302184 1.142686 0.113902
v 0.300000 1.200000 0.000000
v 0.200000 1.200000 0.000000
v 0.201564 1.137250 0.086999
v 0.399586 1.149995 0.133659
v 0.400000 1.200000 0.000000
v 0.295258 1.043285 0.209461
v 0.400818 1.045145 0.250583
v 0.000000 0.700000 0.000000
v 0.000000 0.600000 0.000000
v 0.036873 0.599970 0.143338
v 0.038630 0.701199 0.139743
v 0.000000 0.500000 0.000000
v 0.038345 0.498684 0.139671
v 0.300000 0.000000 0.000000
v 0.400000 0.000000 0.000000
v 0.399512 0.049856 0.133675
v 0.302141 0.057289 0.113937
v 0.201538 0.062793 0.087007
v 0.200000 0.000000 0.000000
v 1.116941 1.111612 0.069743
v 1.200000 1.200000 0.000000
v 1.100000 1.200000 0.000000
v 1.200000 1.100000 0.000000
v 1.000000 1.200000 0.000000
v 0.998414 1.137200 0.086957
v 1.137768 0.998387 0.086467
v 1.200000 1.000000 0.000000
v 1.161353 0.498821 0.139761
v 1.200000 0.500000 0.000000
v 1.200000 0.600000 0.000000
v 1.163124 0.600077 0.143366
v 1.200000 0.400000 0.000000
v 1.059586 0.601568 0.281992
v 1.060014 0.497288 0.274255
v 0.951724 0.491413 0.350240
v 0.950086 0.603469 0.357626
v 0.847928 0.601670 0.390358
v 0.851472 0.495670 0.378462
v 1.060095 0.703207 0.274140
v 0.951536 0.707910 0.349814
v 1.161668 0.701343 0.139696
v 0.498461 0.037988 0.140251
v 0.496531 0.140251 0.274475
v 0.400381 0.154620 0.250521
v 0.500000 0.000000 0.000000
v 0.295210 0.156757 0.209454
v 0.754848 0.600110 0.399836
v 0.851373 0.703551 0.378664
v 0.712570 0.729229 0.361582
v 0.711919 0.470673 0.361170
v 0.600143 0.592924 0.371071
v 0.140380 0.598629 0.282051
v 0.139983 0.702826 0.274298
v 0.249922 0.596670 0.357633
v 0.248358 0.708608 0.350179
v 0.139821 0.496909 0.274236
v 0.248369 0.492085 0.349969
v 1.050142 0.801912 0.251913
v 0.947334 0.811961 0.309994
v 1.152126 0.801485 0.132227
v 1.040292 0.903582 0.207272
v 1.139752 0.896823 0.113980
v 1.024052 1.023188 0.165553
v 0.926052 0.922417 0.256225
v 0.800000 1.200000 0.000000
v 0.700000 1.200000 0.000000
v 0.701558 1.161989 0.140427
v 0.800416 1.149943 0.133760
v 0.000000 0.400000 0.000000
v 0.000000 0.300000 0.000000
v 0.060351 0.303231 0.113935
v 0.047979 0.398555 0.132231
v 0.000000 0.200000 0.000000
v 0.062253 0.201638 0.086433
v 0.387412 0.374896 0.324865
v 0.348569 0.496025 0.378576
v 0.252739 0.387804 0.309649
v 0.487754 0.470386 0.360983
v 0.496322 0.349572 0.374816
v 0.388918 0.255656 0.301475
v 0.492012 0.248954 0.350025
v 0.596327 0.246003 0.365570
v 0.598042 0.350710 0.391146
v 0.708364 0.248896 0.350206
v 0.704047 0.349568 0.374658
v 0.598656 0.134895 0.283591
v 0.703111 0.140440 0.274528
v 1.200000 0.000000 0.000000
v 0.600005 0.033314 0.141954
v 0.701422 0.038229 0.140358
v 0.083030 0.088427 0.069714
v 0.100000 0.000000 0.000000
v 0.175935 1.023285 0.165647
v 0.352103 0.598202 0.390260
v 0.252662 0.813005 0.309705
v 0.445134 0.599012 0.399559
v 0.904820 0.156590 0.209647
v 0.811714 0.255638 0.301233
v 0.799302 0.154537 0.250691
v 0.897952 0.056980 0.114088
v 0.998634 0.062221 0.087476
v 0.599784 0.444906 0.388762
v 0.062259 0.998373 0.086497
v 0.083046 1.111570 0.069697
v 0.060201 0.896781 0.113956
v 0.159603 0.903663 0.207230
v 0.000000 1.100000 0.000000
v 0.000000 1.000000 0.000000
v 0.812199 0.375249 0.325013
v 0.149960 0.398256 0.251956
v 0.159774 0.296502 0.207088
v 0.800514 0.049694 0.133586
v 0.100000 1.200000 0.000000
v 0.000000 1.200000 0.000000
v 0.498573 1.161690 0.140549
v 0.500000 1.200000 0.000000
v 0.496898 1.059347 0.274505
v 0.900000 1.200000 0.000000
v 0.897801 1.142610 0.113881
v 0.000000 0.900000 0.000000
v 0.047920 0.801409 0.132134
v 0.149798 0.801508 0.252192
v 0.800000 0.000000 0.000000
v 0.900000 0.000000 0.000000
v 1.000000 0.000000 0.000000
v 1.100000 0.000000 0.000000
v 0.000000 0.000000 0.000000
v 0.703416 1.059576 0.274470
v 0.599991 1.167179 0.141742
v 0.601304 1.065804 0.283647
v 0.799454 1.045090 0.250436
v 0.707855 0.950893 0.349894
v 0.811111 0.944260 0.301285
v 0.175888 0.176860 0.165545
v 0.603691 0.954408 0.366660
v 0.703820 0.850348 0.374727
v 0.812773 0.825257 0.325134
v 0.700000 0.000000 0.000000
v 1.200000 0.700000 0.000000
v 1.200000 0.800000 0.000000
v 0.600000 1.200000 0.000000
v 0.600000 0.000000 0.000000
v 0.904708 1.043177 0.209365
v 0.000000 0.800000 0.000000
v 0.000000 0.100000 0.000000
v 1.200000 0.900000 0.000000
v 0.601973 0.849374 0.390484
v 0.600181 0.755418 0.384676
v 0.273883 0.277793 0.256070

o crossvault_surface
g crossvault_surface
f 1 2 3 4
f 2 1 5 6
f 1 4 7 8
f 2 6 9 10
f 9 6 11 12
f 13 14 15
f 14 13 16 17
f 16 13 18
f 18 13 19
f 20 21 22 23
f 21 20 24 25
f 24 20 26 27
f 28 29 30 31
f 30 29 32 33
f 34 35 36 37
f 34 37 38 39
f 40 41 42
f 41 40 43
f 40 42 44 45
f 43 40 46 47
f 48 49 50 51
f 49 48 3 52
f 48 51 53 54
f 55 56 57 58
f 56 55 54 53
f 54 55 7 4
f 53 59 60 56
f 59 53 51 61
f 36 62 63 64
f 62 36 35 65
f 36 64 66 37
f 67 57 68 69
f 57 67 70 58
f 67 69 71
f 72 73 31 30
f 73 72 74 75
f 74 72 76 77
f 59 78 79 60
f 78 59 61 80
f 81 82 46 83
f 82 81 78 80
f 81 83 84
f 85 86 87 88
f 89 90 91 92
f 91 90 93 94
f 95 96 77 97
f 96 95 98
f 98 95 99
f 99 95 100 101
f 102 103 99 101
f 103 102 104 105
f 104 102 106 107
f 108 12 11
f 107 106 109 110
f 106 102 101 63
f 39 38 111 112
f 27 26 15 14
f 26 20 23 113
f 74 114 19 75
f 114 74 77 96
f 13 15 115
f 15 26 113
f 57 56 60 68
f 114 96 98 116
f 117 8 118 119
f 8 117 5
f 5 117 120 121
f 99 103 122 98
f 72 30 33 76
f 123 113 124
f 113 123 125 126
f 123 124 127 128
f 129 8 7
f 8 129 118
f 129 58 70
f 58 129 7 55
f 92 33 32 89
f 33 92 130 76
f 130 92 91 131
f 117 119 132 120
f 119 118 104 107
f 133 134 124
f 124 134 127
f 24 135 136 25
f 135 24 27 137
f 44 138 139 45
f 125 123 128 140
f 126 125 141 142
f 120 132 143 144
f 132 119 107 110
f 5 121 11
f 11 121 145 146
f 113 126 15
f 15 126 142 115
f 112 111 147
f 103 105 70 122
f 148 87 149 150
f 87 148 151 88
f 151 148 152 153
f 116 71 18
f 71 116 98
f 116 18 19 114
f 115 142 73 75
f 131 91 94 154
f 3 48 54 4
f 52 3 2 10
f 106 63 62 109
f 63 101 100 64
f 152 148 150 155
f 153 152 156 157
f 19 13 115 75
f 143 132 110 158
f 159 160 80 61
f 135 149 161 136
f 149 135 137 150
f 109 62 65 162
f 153 84 163 151
f 84 153 157
f 133 124 23 22
f 124 113 23
f 5 1 8
f 6 5 11
f 125 140 164 141
f 79 84 157
f 84 79 78 81
f 73 142 141 31
f 94 93 165 111
f 86 161 149 87
f 147 111 165
f 82 80 160 166
f 152 155 167 156
f 155 150 137 17
f 163 83 45 139
f 83 163 84
f 163 139 88 151
f 47 46 82 166
f 46 40 83
f 69 68 157
f 69 157 156
f 69 156 167 168
f 159 61 51 50
f 158 110 109 162
f 164 28 31 141
f 37 66 154 38
f 16 167 155 17
f 167 16 18 168
f 169 97 130 131
f 97 169 95
f 95 169 100
f 100 169 66 64
f 139 138 85 88
f 18 71 168
f 94 111 154
f 111 38 154
f 118 129 105 104
f 169 131 154
f 137 27 14 17
f 40 45 83
f 145 121 120 144
f 129 70 105
f 70 67 71
f 66 169 154
f 108 11 146
f 69 168 71
f 97 77 76 130
f 79 157 68 60
f 122 71 98
f 71 122 70

o crease_01_diagonal
g crease_01_diagonal
# 12 segments, 1.8936 m, q 0.78-4.89
l 134 124 113 15 13 18 71 70 129 8 5 11 108

o crease_02_diagonal
g crease_02_diagonal
# 12 segments, 1.8936 m, q 0.78-4.88
l 147 111 154 169 95 98 71 69 157 84 83 40 41

o crease_03_arch
g crease_03_arch
# 10 segments, 1.0498 m, q 1.30-2.29
l 111 38 37 36 62 109 110 132 120 121 11

o crease_04_arch
g crease_04_arch
# 10 segments, 1.0559 m, q 1.30-2.29
l 124 23 20 24 135 149 87 88 139 45 40

o crease_05_arch
g crease_05_arch
# 10 segments, 1.0433 m, q 1.34-2.28
l 111 94 91 92 33 30 31 141 125 123 124

o crease_06_arch
g crease_06_arch
# 10 segments, 1.0494 m, q 1.26-2.28
l 11 6 2 3 48 51 61 80 82 46 40
