OFF
269 504 0
0.56720119 0.20053590 0.00000000
0.50977313 0.31947332 0.00000000
0.49843458 0.25403291 0.03240739
0.42921254 0.28978599 0.06129749
0.47542045 0.20062327 0.04926882
0.42540090 0.42540090 0.00000000
0.43306564 0.35012323 0.03747073
0.36025015 0.36045734 0.07334896
0.31947332 0.50977313 0.00000000
0.35039479 0.43362406 0.03777304
0.29019720 0.42976413 0.06262582
0.20053590 -0.56720119 0.00000000
0.31947332 -0.50977313 0.00000000
0.25263613 -0.49700962 0.04049305
0.29064287 -0.42733147 0.10473966
0.20225367 -0.47496451 0.05066937
0.42540090 -0.42540090 0.00000000
0.35340031 -0.43813511 0.06524219
0.35805866 -0.35803471 0.12107623
0.50977313 -0.31947332 0.00000000
0.43815475 -0.35333127 0.06524122
0.42725020 -0.29068259 0.10475345
-0.56720119 -0.20053590 0.00000000
-0.50977313 -0.31947332 0.00000000
-0.49605788 -0.25308304 0.02843095
-0.42976108 -0.29022993 0.06262330
-0.47601356 -0.20074330 0.04772404
-0.42540090 -0.42540090 0.00000000
-0.43356460 -0.35040599 0.03780846
-0.36054602 -0.36032356 0.07325438
-0.31947332 -0.50977313 0.00000000
-0.35016529 -0.43308032 0.03742472
-0.28980664 -0.42919865 0.06128424
-0.56720119 0.20053590 0.00000000
-0.59281761 0.10246549 0.00000000
-0.52998976 0.15098824 0.03050524
-0.48537779 0.09972048 0.08127863
-0.47587692 0.20049917 0.04503178
-0.60160773 0.00000000 0.00000000
-0.54494914 0.05084361 0.04774436
-0.49000850 -0.00013029 0.09505967
-0.59281761 -0.10246549 0.00000000
-0.54510346 -0.05103602 0.04803727
-0.48546513 -0.09956953 0.08296523
-0.52985059 -0.15085776 0.03169501
-0.20053590 -0.56720119 0.00000000
-0.25402720 -0.49843152 0.03240320
-0.20060238 -0.47542531 0.04924975
-0.10246549 -0.59281761 0.00000000
-0.15374710 -0.53264529 0.04962299
-0.09582401 -0.48106469 0.14209773
0.00000000 -0.60160773 0.00000000
-0.05237973 -0.55024195 0.08796646
0.00017611 -0.49072751 0.17917685
0.10246549 -0.59281761 0.00000000
0.05249657 -0.55010295 0.08809850
0.09591805 -0.48050286 0.14271735
0.15345517 -0.53248444 0.05027999
0.59281761 0.10246549 0.00000000
0.53269271 0.15371951 0.04968447
0.48096307 0.09593983 0.14215009
0.60160773 0.00000000 0.00000000
0.55034357 0.05243767 0.08786832
0.49065307 -0.00013624 0.17932746
0.59281761 -0.10246549 0.00000000
0.55011591 -0.05248075 0.08809259
0.48061936 -0.09583718 0.14271357
0.56720119 -0.20053590 0.00000000
0.53247489 -0.15351340 0.05024084
0.47496183 -0.20225960 0.05065103
0.49711358 -0.25273747 0.04038250
0.00000000 0.60160773 0.00000000
-0.10246549 0.59281761 0.00000000
-0.05083492 0.54491800 0.04779563
-0.09961131 0.48540524 0.08129288
0.00014443 0.49002113 0.09509887
0.10246549 0.59281761 0.00000000
0.05110497 0.54512218 0.04806011
0.09965617 0.48551391 0.08297315
0.20053590 0.56720119 0.00000000
0.15085376 0.52985575 0.03170310
0.20074005 0.47602156 0.04774270
0.25305932 0.49609990 0.02841362
-0.50977313 0.31947332 0.00000000
-0.49722726 0.25343433 0.02537915
-0.43069456 0.29060894 0.04792692
-0.42540090 0.42540090 0.00000000
-0.43309650 0.35015920 0.02798828
-0.36076112 0.36073847 0.05325442
-0.31947332 0.50977313 0.00000000
-0.35013432 0.43312204 0.02798678
-0.29055291 0.43071337 0.04792701
-0.20053590 0.56720119 0.00000000
-0.25340073 0.49724635 0.02537220
-0.20054219 0.47587916 0.04503049
-0.15096649 0.53000653 0.03051389
0.38391884 0.20030731 0.08989460
0.43618824 0.15322255 0.12287960
0.38865808 0.09902268 0.19444163
0.41522408 0.24423510 0.07695255
0.36378260 0.28248133 0.08999165
0.38560767 0.31177040 0.07794049
0.28311789 0.36438317 0.09182687
0.32396464 0.32349995 0.09441092
0.28433003 0.28416129 0.10987810
0.31196306 0.38616921 0.07864122
0.24389549 0.41444799 0.07415349
0.20005713 0.38428470 0.08680182
0.15135754 0.43509698 0.08902295
0.09957217 0.38830034 0.12737406
0.29223267 0.20330178 0.11487908
0.20156568 0.19655181 0.13334223
0.24650376 0.15020852 0.14922809
0.19947762 0.09965137 0.15109209
0.29548177 0.09675268 0.18882073
0.24412266 0.24476329 0.11990956
0.20029794 0.29237674 0.11415057
0.33250054 0.24297194 0.10585516
0.33982090 0.15454178 0.15352365
0.24251014 0.33207957 0.10325987
0.09989719 0.29388131 0.14784517
0.15062510 0.24682808 0.13792704
0.09986043 0.20114597 0.14765682
0.15121543 0.34032263 0.12226497
0.20086249 -0.38409526 0.09220141
0.15308091 -0.43605515 0.12421173
0.09918439 -0.38879498 0.19605404
0.24288295 -0.41550585 0.09946360
0.28366408 -0.36434299 0.13450468
0.31159938 -0.38585552 0.12557742
0.36440364 -0.28373433 0.13447872
0.32369027 -0.32370425 0.13780134
0.28536304 -0.28541844 0.14079768
0.38577754 -0.31171470 0.12555866
0.41556992 -0.24281740 0.09937809
0.38406661 -0.20087359 0.09218455
0.43600078 -0.15306890 0.12426060
0.38866019 -0.09915171 0.19614549
0.20155411 -0.29198802 0.11777782
0.09703314 -0.29550642 0.18973107
0.15423580 -0.33995562 0.15535844
0.20055200 -0.20057806 0.13568550
0.15024292 -0.24653741 0.15130834
0.09985372 -0.19860368 0.15297102
0.24443196 -0.24451297 0.13213733
0.29195473 -0.20157823 0.11775876
0.24053471 -0.33213806 0.12639868
0.33222508 -0.24051439 0.12634589
0.29536309 -0.09697800 0.18973811
0.24662336 -0.15032721 0.15131410
0.19860720 -0.09984806 0.15300535
0.33993930 -0.15420307 0.15539920
-0.38428027 -0.20006307 0.08676675
-0.43503701 -0.15135753 0.08900825
-0.38829745 -0.09955438 0.12728971
-0.41445463 -0.24392091 0.07413193
-0.36440524 -0.28318332 0.09178454
-0.38605793 -0.31205582 0.07863935
-0.31177101 -0.38560901 0.07791592
-0.28246313 -0.36380521 0.08997974
-0.32355241 -0.32397986 0.09437058
-0.28416588 -0.28435608 0.10985377
-0.24419088 -0.41526318 0.07692106
-0.20028239 -0.38390141 0.08986748
-0.15323614 -0.43620875 0.12281789
-0.09903129 -0.38880552 0.19434976
-0.29233984 -0.20030038 0.11412102
-0.33205887 -0.24251543 0.10324240
-0.29396186 -0.09982792 0.14783500
-0.34045586 -0.15114578 0.12222223
-0.19650214 -0.20158290 0.13330999
-0.24676540 -0.15068308 0.13786956
-0.20116130 -0.09987372 0.14762922
-0.24472920 -0.24408602 0.11988304
-0.20326224 -0.29221850 0.11485039
-0.24294812 -0.33249165 0.10584595
-0.15439174 -0.33981405 0.15352618
-0.09676967 -0.29551627 0.18868013
-0.15015503 -0.24659718 0.14918922
-0.09961176 -0.19947414 0.15104925
-0.36411939 0.28292347 0.07358826
-0.41431660 0.24441215 0.06376111
-0.38454272 0.20083711 0.08274371
-0.38562646 0.31165383 0.05946172
-0.28455148 0.28455881 0.09490166
-0.32375710 0.32374998 0.07649820
-0.28292625 0.36411024 0.07358816
-0.33189547 0.24250266 0.09180444
-0.29231995 0.20080388 0.11048746
-0.38827544 0.09947850 0.12551413
-0.34050332 0.15139124 0.11926635
-0.29390093 0.09964303 0.14565153
-0.43486108 0.15136214 0.08665905
-0.31165279 0.38558281 0.05946926
-0.20081937 0.29230243 0.11049648
-0.24252287 0.33189853 0.09180595
-0.20083236 0.38452876 0.08276596
-0.24482882 0.24483354 0.11272497
-0.20013480 0.20008731 0.12960317
-0.24675587 0.15040721 0.13335299
-0.20021539 0.10011604 0.14660735
-0.24442422 0.41428752 0.06377194
-0.09940067 0.38834330 0.12552193
-0.15134284 0.43482267 0.08668736
-0.15143360 0.34053158 0.11924092
-0.09967686 0.29381430 0.14565415
-0.15042824 0.24675583 0.13335233
-0.10012859 0.20025130 0.14661982
-0.29480930 0.00003516 0.15778250
-0.24750500 0.05008819 0.15408800
-0.20049765 0.00000983 0.15377864
-0.34242311 0.05043106 0.14602348
-0.38994983 -0.00004757 0.13970425
-0.09950054 0.09945499 0.19411419
-0.14920278 0.14920425 0.15174260
-0.15152993 0.05046374 0.18101906
-0.09963723 -0.00007482 0.21119770
-0.24736909 -0.05024426 0.15527936
-0.34237826 -0.05052990 0.14685842
-0.15177241 -0.05051686 0.18202962
-0.09956352 -0.09954053 0.19742890
-0.15022798 -0.15034459 0.15937991
-0.44020216 0.05021812 0.11432397
-0.44046205 -0.05035442 0.11529012
-0.05092532 -0.34195046 0.21220930
-0.00007488 -0.38978700 0.21810190
-0.00017444 -0.29535046 0.21777274
-0.05115136 -0.24655941 0.18454739
0.00000490 -0.19946394 0.16025523
-0.05037063 -0.15126971 0.18489399
0.00002625 -0.09983587 0.21402340
-0.05201089 -0.44163813 0.19176554
0.05064965 -0.24669699 0.18541564
0.05094662 -0.34186471 0.21312395
0.05037680 -0.15159968 0.18608372
0.09967413 -0.09968602 0.20029326
0.05166815 -0.44167692 0.19233077
0.15078066 -0.15073108 0.16377697
0.15037611 0.15021792 0.15949222
0.09946502 0.09944868 0.19758784
0.24651887 0.05106603 0.18463320
0.19946614 0.00000839 0.16031471
0.29519400 0.00015587 0.21768564
0.34201921 0.05082493 0.21231400
0.38978148 -0.00003497 0.21818167
0.15130772 0.05030138 0.18493523
0.09974638 0.00001674 0.21409421
0.34173811 -0.05090392 0.21316823
0.24677659 -0.05067231 0.18547346
0.15160862 -0.05037039 0.18612576
0.44156987 0.05195698 0.19192352
0.44163284 -0.05167479 0.19239071
-0.05059831 0.05067056 0.21647636
-0.00007726 0.00016761 0.23006544
0.00004074 0.09964716 0.21119118
-0.05057652 0.15152875 0.18101614
-0.00001605 0.20050209 0.15378768
-0.05007147 0.24754449 0.15413482
-0.00001132 0.29478735 0.15784217
0.05056135 0.05057417 0.21824930
0.05050849 0.15167934 0.18213279
0.05011392 0.24730344 0.15533933
-0.05062405 -0.05064539 0.21820123
0.05062569 -0.05059196 0.21975860
-0.05052223 0.34241213 0.14604551
-0.00008259 0.38996345 0.13972406
0.05045439 0.34240376 0.14693594
-0.05029361 0.44021586 0.11433691
0.05045626 0.44053778 0.11528900
3 1 2 0
3 3 2 1
3 4 2 3
3 0 2 4
3 5 6 1
3 7 6 5
3 3 6 7
3 1 6 3
3 8 9 5
3 10 9 8
3 7 9 10
3 5 9 7
3 12 13 11
3 14 13 12
3 15 13 14
3 11 13 15
3 16 17 12
3 18 17 16
3 14 17 18
3 12 17 14
3 19 20 16
3 21 20 19
3 18 20 21
3 16 20 18
3 23 24 22
3 25 24 23
3 26 24 25
3 22 24 26
3 27 28 23
3 29 28 27
3 25 28 29
3 23 28 25
3 30 31 27
3 32 31 30
3 29 31 32
3 27 31 29
3 34 35 33
3 36 35 34
3 37 35 36
3 33 35 37
3 38 39 34
3 40 39 38
3 36 39 40
3 34 39 36
3 41 42 38
3 43 42 41
3 40 42 43
3 38 42 40
3 22 44 41
3 26 44 22
3 43 44 26
3 41 44 43
3 45 46 30
3 47 46 45
3 32 46 47
3 30 46 32
3 48 49 45
3 50 49 48
3 47 49 50
3 45 49 47
3 51 52 48
3 53 52 51
3 50 52 53
3 48 52 50
3 54 55 51
3 56 55 54
3 53 55 56
3 51 55 53
3 11 57 54
3 15 57 11
3 56 57 15
3 54 57 56
3 0 59 58
3 4 59 0
3 60 59 4
3 58 59 60
3 58 62 61
3 60 62 58
3 63 62 60
3 61 62 63
3 61 65 64
3 63 65 61
3 66 65 63
3 64 65 66
3 64 68 67
3 66 68 64
3 69 68 66
3 67 68 69
3 67 70 19
3 69 70 67
3 21 70 69
3 19 70 21
3 72 73 71
3 74 73 72
3 75 73 74
3 71 73 75
3 71 77 76
3 75 77 71
3 78 77 75
3 76 77 78
3 76 80 79
3 78 80 76
3 81 80 78
3 79 80 81
3 79 82 8
3 81 82 79
3 10 82 81
3 8 82 10
3 33 84 83
3 37 84 33
3 85 84 37
3 83 84 85
3 83 87 86
3 85 87 83
3 88 87 85
3 86 87 88
3 86 90 89
3 88 90 86
3 91 90 88
3 89 90 91
3 89 93 92
3 91 93 89
3 94 93 91
3 92 93 94
3 92 95 72
3 94 95 92
3 74 95 94
3 72 95 74
3 96 97 4
3 98 97 96
3 60 97 98
3 4 97 60
3 3 99 4
3 100 99 3
3 96 99 100
3 4 99 96
3 7 101 3
3 100 101 7
3 3 101 100
3 102 103 7
3 104 103 102
3 100 103 104
3 7 103 100
3 10 105 7
3 102 105 10
3 7 105 102
3 81 106 10
3 107 106 81
3 102 106 107
3 10 106 102
3 78 108 81
3 109 108 78
3 107 108 109
3 81 108 107
3 111 112 110
3 113 112 111
3 114 112 113
3 110 112 114
3 104 115 110
3 116 115 104
3 111 115 116
3 110 115 111
3 96 117 110
3 100 117 96
3 104 117 100
3 110 117 104
3 114 118 110
3 98 118 114
3 96 118 98
3 110 118 96
3 102 119 104
3 107 119 102
3 116 119 107
3 104 119 116
3 120 121 116
3 122 121 120
3 111 121 122
3 116 121 111
3 107 123 116
3 109 123 107
3 120 123 109
3 116 123 120
3 124 125 15
3 126 125 124
3 56 125 126
3 15 125 56
3 14 127 15
3 128 127 14
3 124 127 128
3 15 127 124
3 18 129 14
3 128 129 18
3 14 129 128
3 130 131 18
3 132 131 130
3 128 131 132
3 18 131 128
3 21 133 18
3 130 133 21
3 18 133 130
3 69 134 21
3 135 134 69
3 130 134 135
3 21 134 130
3 66 136 69
3 137 136 66
3 135 136 137
3 69 136 135
3 139 140 138
3 126 140 139
3 124 140 126
3 138 140 124
3 141 142 138
3 143 142 141
3 139 142 143
3 138 142 139
3 132 144 138
3 145 144 132
3 141 144 145
3 138 144 141
3 124 146 138
3 128 146 124
3 132 146 128
3 138 146 132
3 130 147 132
3 135 147 130
3 145 147 135
3 132 147 145
3 148 149 145
3 150 149 148
3 141 149 150
3 145 149 141
3 135 151 145
3 137 151 135
3 148 151 137
3 145 151 148
3 152 153 26
3 154 153 152
3 43 153 154
3 26 153 43
3 25 155 26
3 156 155 25
3 152 155 156
3 26 155 152
3 29 157 25
3 156 157 29
3 25 157 156
3 32 158 29
3 159 158 32
3 29 158 159
3 159 160 29
3 161 160 159
3 156 160 161
3 29 160 156
3 47 162 32
3 163 162 47
3 159 162 163
3 32 162 159
3 50 164 47
3 165 164 50
3 163 164 165
3 47 164 163
3 152 167 166
3 156 167 152
3 161 167 156
3 166 167 161
3 168 169 166
3 154 169 168
3 152 169 154
3 166 169 152
3 170 171 166
3 172 171 170
3 168 171 172
3 166 171 168
3 161 173 166
3 174 173 161
3 170 173 174
3 166 173 170
3 159 175 161
3 163 175 159
3 174 175 163
3 161 175 174
3 163 176 174
3 165 176 163
3 177 176 165
3 174 176 177
3 177 178 174
3 179 178 177
3 170 178 179
3 174 178 170
3 85 181 180
3 37 181 85
3 182 181 37
3 180 181 182
3 88 183 180
3 85 183 88
3 180 183 85
3 184 185 180
3 186 185 184
3 88 185 186
3 180 185 88
3 182 187 180
3 188 187 182
3 184 187 188
3 180 187 184
3 189 190 182
3 191 190 189
3 188 190 191
3 182 190 188
3 37 192 182
3 36 192 37
3 189 192 36
3 182 192 189
3 186 193 88
3 91 193 186
3 88 193 91
3 194 195 184
3 196 195 194
3 186 195 196
3 184 195 186
3 188 197 184
3 198 197 188
3 194 197 198
3 184 197 194
3 191 199 188
3 200 199 191
3 198 199 200
3 188 199 198
3 196 201 186
3 94 201 196
3 91 201 94
3 186 201 91
3 202 203 196
3 74 203 202
3 94 203 74
3 196 203 94
3 194 204 196
3 205 204 194
3 202 204 205
3 196 204 202
3 198 206 194
3 207 206 198
3 205 206 207
3 194 206 205
3 208 209 191
3 210 209 208
3 200 209 210
3 191 209 200
3 189 211 191
3 212 211 189
3 208 211 212
3 191 211 208
3 213 214 200
3 207 214 213
3 198 214 207
3 200 214 198
3 210 215 200
3 216 215 210
3 213 215 216
3 200 215 213
3 168 217 208
3 172 217 168
3 210 217 172
3 208 217 210
3 212 218 208
3 154 218 212
3 168 218 154
3 208 218 168
3 172 219 210
3 220 219 172
3 216 219 220
3 210 219 216
3 170 221 172
3 179 221 170
3 220 221 179
3 172 221 220
3 36 222 189
3 40 222 36
3 212 222 40
3 189 222 212
3 40 223 212
3 43 223 40
3 154 223 43
3 212 223 154
3 165 224 177
3 225 224 165
3 226 224 225
3 177 224 226
3 226 227 177
3 228 227 226
3 179 227 228
3 177 227 179
3 228 229 179
3 230 229 228
3 220 229 230
3 179 229 220
3 50 231 165
3 53 231 50
3 225 231 53
3 165 231 225
3 139 232 226
3 143 232 139
3 228 232 143
3 226 232 228
3 225 233 226
3 126 233 225
3 139 233 126
3 226 233 139
3 143 234 228
3 235 234 143
3 230 234 235
3 228 234 230
3 53 236 225
3 56 236 53
3 126 236 56
3 225 236 126
3 141 237 143
3 150 237 141
3 235 237 150
3 143 237 235
3 122 238 111
3 239 238 122
3 113 238 239
3 111 238 113
3 113 240 114
3 241 240 113
3 242 240 241
3 114 240 242
3 242 243 114
3 244 243 242
3 98 243 244
3 114 243 98
3 239 245 113
3 246 245 239
3 241 245 246
3 113 245 241
3 148 247 242
3 137 247 148
3 244 247 137
3 242 247 244
3 241 248 242
3 150 248 241
3 148 248 150
3 242 248 148
3 246 249 241
3 235 249 246
3 150 249 235
3 241 249 150
3 244 250 98
3 63 250 244
3 60 250 63
3 98 250 60
3 137 251 244
3 66 251 137
3 63 251 66
3 244 251 63
3 216 252 213
3 253 252 216
3 254 252 253
3 213 252 254
3 254 255 213
3 256 255 254
3 207 255 256
3 213 255 207
3 256 257 207
3 258 257 256
3 205 257 258
3 207 257 205
3 253 259 254
3 246 259 253
3 239 259 246
3 254 259 239
3 239 260 254
3 122 260 239
3 256 260 122
3 254 260 256
3 122 261 256
3 120 261 122
3 258 261 120
3 256 261 258
3 220 262 216
3 230 262 220
3 253 262 230
3 216 262 253
3 230 263 253
3 235 263 230
3 246 263 235
3 253 263 246
3 258 264 205
3 265 264 258
3 202 264 265
3 205 264 202
3 120 266 258
3 109 266 120
3 265 266 109
3 258 266 265
3 265 267 202
3 75 267 265
3 74 267 75
3 202 267 74
3 109 268 265
3 78 268 109
3 75 268 78
3 265 268 75
