v 0.56720119 0.20053590 0.00000000
v 0.50977313 0.31947332 0.00000000
v 0.49843458 0.25403291 0.03240739
v 0.42921254 0.28978599 0.06129749
v 0.47542045 0.20062327 0.04926882
v 0.42540090 0.42540090 0.00000000
v 0.43306564 0.35012323 0.03747073
v 0.36025015 0.36045734 0.07334896
v 0.31947332 0.50977313 0.00000000
v 0.35039479 0.43362406 0.03777304
v 0.29019720 0.42976413 0.06262582
v 0.20053590 -0.56720119 0.00000000
v 0.31947332 -0.50977313 0.00000000
v 0.25263613 -0.49700962 0.04049305
v 0.29064287 -0.42733147 0.10473966
v 0.20225367 -0.47496451 0.05066937
v 0.42540090 -0.42540090 0.00000000
v 0.35340031 -0.43813511 0.06524219
v 0.35805866 -0.35803471 0.12107623
v 0.50977313 -0.31947332 0.00000000
v 0.43815475 -0.35333127 0.06524122
v 0.42725020 -0.29068259 0.10475345
v -0.56720119 -0.20053590 0.00000000
v -0.50977313 -0.31947332 0.00000000
v -0.49605788 -0.25308304 0.02843095
v -0.42976108 -0.29022993 0.06262330
v -0.47601356 -0.20074330 0.04772404
v -0.42540090 -0.42540090 0.00000000
v -0.43356460 -0.35040599 0.03780846
v -0.36054602 -0.36032356 0.07325438
v -0.31947332 -0.50977313 0.00000000
v -0.35016529 -0.43308032 0.03742472
v -0.28980664 -0.42919865 0.06128424
v -0.56720119 0.20053590 0.00000000
v -0.59281761 0.10246549 0.00000000
v -0.52998976 0.15098824 0.03050524
v -0.48537779 0.09972048 0.08127863
v -0.47587692 0.20049917 0.04503178
v -0.60160773 0.00000000 0.00000000
v -0.54494914 0.05084361 0.04774436
v -0.49000850 -0.00013029 0.09505967
v -0.59281761 -0.10246549 0.00000000
v -0.54510346 -0.05103602 0.04803727
v -0.48546513 -0.09956953 0.08296523
v -0.52985059 -0.15085776 0.03169501
v -0.20053590 -0.56720119 0.00000000
v -0.25402720 -0.49843152 0.03240320
v -0.20060238 -0.47542531 0.04924975
v -0.10246549 -0.59281761 0.00000000
v -0.15374710 -0.53264529 0.04962299
v -0.09582401 -0.48106469 0.14209773
v 0.00000000 -0.60160773 0.00000000
v -0.05237973 -0.55024195 0.08796646
v 0.00017611 -0.49072751 0.17917685
v 0.10246549 -0.59281761 0.00000000
v 0.05249657 -0.55010295 0.08809850
v 0.09591805 -0.48050286 0.14271735
v 0.15345517 -0.53248444 0.05027999
v 0.59281761 0.10246549 0.00000000
v 0.53269271 0.15371951 0.04968447
v 0.48096307 0.09593983 0.14215009
v 0.60160773 0.00000000 0.00000000
v 0.55034357 0.05243767 0.08786832
v 0.49065307 -0.00013624 0.17932746
v 0.59281761 -0.10246549 0.00000000
v 0.55011591 -0.05248075 0.08809259
v 0.48061936 -0.09583718 0.14271357
v 0.56720119 -0.20053590 0.00000000
v 0.53247489 -0.15351340 0.05024084
v 0.47496183 -0.20225960 0.05065103
v 0.49711358 -0.25273747 0.04038250
v 0.00000000 0.60160773 0.00000000
v -0.10246549 0.59281761 0.00000000
v -0.05083492 0.54491800 0.04779563
v -0.09961131 0.48540524 0.08129288
v 0.00014443 0.49002113 0.09509887
v 0.10246549 0.59281761 0.00000000
v 0.05110497 0.54512218 0.04806011
v 0.09965617 0.48551391 0.08297315
v 0.20053590 0.56720119 0.00000000
v 0.15085376 0.52985575 0.03170310
v 0.20074005 0.47602156 0.04774270
v 0.25305932 0.49609990 0.02841362
v -0.50977313 0.31947332 0.00000000
v -0.49722726 0.25343433 0.02537915
v -0.43069456 0.29060894 0.04792692
v -0.42540090 0.42540090 0.00000000
v -0.43309650 0.35015920 0.02798828
v -0.36076112 0.36073847 0.05325442
v -0.31947332 0.50977313 0.00000000
v -0.35013432 0.43312204 0.02798678
v -0.29055291 0.43071337 0.04792701
v -0.20053590 0.56720119 0.00000000
v -0.25340073 0.49724635 0.02537220
v -0.20054219 0.47587916 0.04503049
v -0.15096649 0.53000653 0.03051389
v 0.38391884 0.20030731 0.08989460
v 0.43618824 0.15322255 0.12287960
v 0.38865808 0.09902268 0.19444163
v 0.41522408 0.24423510 0.07695255
v 0.36378260 0.28248133 0.08999165
v 0.38560767 0.31177040 0.07794049
v 0.28311789 0.36438317 0.09182687
v 0.32396464 0.32349995 0.09441092
v 0.28433003 0.28416129 0.10987810
v 0.31196306 0.38616921 0.07864122
v 0.24389549 0.41444799 0.07415349
v 0.20005713 0.38428470 0.08680182
v 0.15135754 0.43509698 0.08902295
v 0.09957217 0.38830034 0.12737406
v 0.29223267 0.20330178 0.11487908
v 0.20156568 0.19655181 0.13334223
v 0.24650376 0.15020852 0.14922809
v 0.19947762 0.09965137 0.15109209
v 0.29548177 0.09675268 0.18882073
v 0.24412266 0.24476329 0.11990956
v 0.20029794 0.29237674 0.11415057
v 0.33250054 0.24297194 0.10585516
v 0.33982090 0.15454178 0.15352365
v 0.24251014 0.33207957 0.10325987
v 0.09989719 0.29388131 0.14784517
v 0.15062510 0.24682808 0.13792704
v 0.09986043 0.20114597 0.14765682
v 0.15121543 0.34032263 0.12226497
v 0.20086249 -0.38409526 0.09220141
v 0.15308091 -0.43605515 0.12421173
v 0.09918439 -0.38879498 0.19605404
v 0.24288295 -0.41550585 0.09946360
v 0.28366408 -0.36434299 0.13450468
v 0.31159938 -0.38585552 0.12557742
v 0.36440364 -0.28373433 0.13447872
v 0.32369027 -0.32370425 0.13780134
v 0.28536304 -0.28541844 0.14079768
v 0.38577754 -0.31171470 0.12555866
v 0.41556992 -0.24281740 0.09937809
v 0.38406661 -0.20087359 0.09218455
v 0.43600078 -0.15306890 0.12426060
v 0.38866019 -0.09915171 0.19614549
v 0.20155411 -0.29198802 0.11777782
v 0.09703314 -0.29550642 0.18973107
v 0.15423580 -0.33995562 0.15535844
v 0.20055200 -0.20057806 0.13568550
v 0.15024292 -0.24653741 0.15130834
v 0.09985372 -0.19860368 0.15297102
v 0.24443196 -0.24451297 0.13213733
v 0.29195473 -0.20157823 0.11775876
v 0.24053471 -0.33213806 0.12639868
v 0.33222508 -0.24051439 0.12634589
v 0.29536309 -0.09697800 0.18973811
v 0.24662336 -0.15032721 0.15131410
v 0.19860720 -0.09984806 0.15300535
v 0.33993930 -0.15420307 0.15539920
v -0.38428027 -0.20006307 0.08676675
v -0.43503701 -0.15135753 0.08900825
v -0.38829745 -0.09955438 0.12728971
v -0.41445463 -0.24392091 0.07413193
v -0.36440524 -0.28318332 0.09178454
v -0.38605793 -0.31205582 0.07863935
v -0.31177101 -0.38560901 0.07791592
v -0.28246313 -0.36380521 0.08997974
v -0.32355241 -0.32397986 0.09437058
v -0.28416588 -0.28435608 0.10985377
v -0.24419088 -0.41526318 0.07692106
v -0.20028239 -0.38390141 0.08986748
v -0.15323614 -0.43620875 0.12281789
v -0.09903129 -0.38880552 0.19434976
v -0.29233984 -0.20030038 0.11412102
v -0.33205887 -0.24251543 0.10324240
v -0.29396186 -0.09982792 0.14783500
v -0.34045586 -0.15114578 0.12222223
v -0.19650214 -0.20158290 0.13330999
v -0.24676540 -0.15068308 0.13786956
v -0.20116130 -0.09987372 0.14762922
v -0.24472920 -0.24408602 0.11988304
v -0.20326224 -0.29221850 0.11485039
v -0.24294812 -0.33249165 0.10584595
v -0.15439174 -0.33981405 0.15352618
v -0.09676967 -0.29551627 0.18868013
v -0.15015503 -0.24659718 0.14918922
v -0.09961176 -0.19947414 0.15104925
v -0.36411939 0.28292347 0.07358826
v -0.41431660 0.24441215 0.06376111
v -0.38454272 0.20083711 0.08274371
v -0.38562646 0.31165383 0.05946172
v -0.28455148 0.28455881 0.09490166
v -0.32375710 0.32374998 0.07649820
v -0.28292625 0.36411024 0.07358816
v -0.33189547 0.24250266 0.09180444
v -0.29231995 0.20080388 0.11048746
v -0.38827544 0.09947850 0.12551413
v -0.34050332 0.15139124 0.11926635
v -0.29390093 0.09964303 0.14565153
v -0.43486108 0.15136214 0.08665905
v -0.31165279 0.38558281 0.05946926
v -0.20081937 0.29230243 0.11049648
v -0.24252287 0.33189853 0.09180595
v -0.20083236 0.38452876 0.08276596
v -0.24482882 0.24483354 0.11272497
v -0.20013480 0.20008731 0.12960317
v -0.24675587 0.15040721 0.13335299
v -0.20021539 0.10011604 0.14660735
v -0.24442422 0.41428752 0.06377194
v -0.09940067 0.38834330 0.12552193
v -0.15134284 0.43482267 0.08668736
v -0.15143360 0.34053158 0.11924092
v -0.09967686 0.29381430 0.14565415
v -0.15042824 0.24675583 0.13335233
v -0.10012859 0.20025130 0.14661982
v -0.29480930 0.00003516 0.15778250
v -0.24750500 0.05008819 0.15408800
v -0.20049765 0.00000983 0.15377864
v -0.34242311 0.05043106 0.14602348
v -0.38994983 -0.00004757 0.13970425
v -0.09950054 0.09945499 0.19411419
v -0.14920278 0.14920425 0.15174260
v -0.15152993 0.05046374 0.18101906
v -0.09963723 -0.00007482 0.21119770
v -0.24736909 -0.05024426 0.15527936
v -0.34237826 -0.05052990 0.14685842
v -0.15177241 -0.05051686 0.18202962
v -0.09956352 -0.09954053 0.19742890
v -0.15022798 -0.15034459 0.15937991
v -0.44020216 0.05021812 0.11432397
v -0.44046205 -0.05035442 0.11529012
v -0.05092532 -0.34195046 0.21220930
v -0.00007488 -0.38978700 0.21810190
v -0.00017444 -0.29535046 0.21777274
v -0.05115136 -0.24655941 0.18454739
v 0.00000490 -0.19946394 0.16025523
v -0.05037063 -0.15126971 0.18489399
v 0.00002625 -0.09983587 0.21402340
v -0.05201089 -0.44163813 0.19176554
v 0.05064965 -0.24669699 0.18541564
v 0.05094662 -0.34186471 0.21312395
v 0.05037680 -0.15159968 0.18608372
v 0.09967413 -0.09968602 0.20029326
v 0.05166815 -0.44167692 0.19233077
v 0.15078066 -0.15073108 0.16377697
v 0.15037611 0.15021792 0.15949222
v 0.09946502 0.09944868 0.19758784
v 0.24651887 0.05106603 0.18463320
v 0.19946614 0.00000839 0.16031471
v 0.29519400 0.00015587 0.21768564
v 0.34201921 0.05082493 0.21231400
v 0.38978148 -0.00003497 0.21818167
v 0.15130772 0.05030138 0.18493523
v 0.09974638 0.00001674 0.21409421
v 0.34173811 -0.05090392 0.21316823
v 0.24677659 -0.05067231 0.18547346
v 0.15160862 -0.05037039 0.18612576
v 0.44156987 0.05195698 0.19192352
v 0.44163284 -0.05167479 0.19239071
v -0.05059831 0.05067056 0.21647636
v -0.00007726 0.00016761 0.23006544
v 0.00004074 0.09964716 0.21119118
v -0.05057652 0.15152875 0.18101614
v -0.00001605 0.20050209 0.15378768
v -0.05007147 0.24754449 0.15413482
v -0.00001132 0.29478735 0.15784217
v 0.05056135 0.05057417 0.21824930
v 0.05050849 0.15167934 0.18213279
v 0.05011392 0.24730344 0.15533933
v -0.05062405 -0.05064539 0.21820123
v 0.05062569 -0.05059196 0.21975860
v -0.05052223 0.34241213 0.14604551
v -0.00008259 0.38996345 0.13972406
v 0.05045439 0.34240376 0.14693594
v -0.05029361 0.44021586 0.11433691
v 0.05045626 0.44053778 0.11528900
f 2 3 1
f 4 3 2
f 5 3 4
f 1 3 5
f 6 7 2
f 8 7 6
f 4 7 8
f 2 7 4
f 9 10 6
f 11 10 9
f 8 10 11
f 6 10 8
f 13 14 12
f 15 14 13
f 16 14 15
f 12 14 16
f 17 18 13
f 19 18 17
f 15 18 19
f 13 18 15
f 20 21 17
f 22 21 20
f 19 21 22
f 17 21 19
f 24 25 23
f 26 25 24
f 27 25 26
f 23 25 27
f 28 29 24
f 30 29 28
f 26 29 30
f 24 29 26
f 31 32 28
f 33 32 31
f 30 32 33
f 28 32 30
f 35 36 34
f 37 36 35
f 38 36 37
f 34 36 38
f 39 40 35
f 41 40 39
f 37 40 41
f 35 40 37
f 42 43 39
f 44 43 42
f 41 43 44
f 39 43 41
f 23 45 42
f 27 45 23
f 44 45 27
f 42 45 44
f 46 47 31
f 48 47 46
f 33 47 48
f 31 47 33
f 49 50 46
f 51 50 49
f 48 50 51
f 46 50 48
f 52 53 49
f 54 53 52
f 51 53 54
f 49 53 51
f 55 56 52
f 57 56 55
f 54 56 57
f 52 56 54
f 12 58 55
f 16 58 12
f 57 58 16
f 55 58 57
f 1 60 59
f 5 60 1
f 61 60 5
f 59 60 61
f 59 63 62
f 61 63 59
f 64 63 61
f 62 63 64
f 62 66 65
f 64 66 62
f 67 66 64
f 65 66 67
f 65 69 68
f 67 69 65
f 70 69 67
f 68 69 70
f 68 71 20
f 70 71 68
f 22 71 70
f 20 71 22
f 73 74 72
f 75 74 73
f 76 74 75
f 72 74 76
f 72 78 77
f 76 78 72
f 79 78 76
f 77 78 79
f 77 81 80
f 79 81 77
f 82 81 79
f 80 81 82
f 80 83 9
f 82 83 80
f 11 83 82
f 9 83 11
f 34 85 84
f 38 85 34
f 86 85 38
f 84 85 86
f 84 88 87
f 86 88 84
f 89 88 86
f 87 88 89
f 87 91 90
f 89 91 87
f 92 91 89
f 90 91 92
f 90 94 93
f 92 94 90
f 95 94 92
f 93 94 95
f 93 96 73
f 95 96 93
f 75 96 95
f 73 96 75
f 97 98 5
f 99 98 97
f 61 98 99
f 5 98 61
f 4 100 5
f 101 100 4
f 97 100 101
f 5 100 97
f 8 102 4
f 101 102 8
f 4 102 101
f 103 104 8
f 105 104 103
f 101 104 105
f 8 104 101
f 11 106 8
f 103 106 11
f 8 106 103
f 82 107 11
f 108 107 82
f 103 107 108
f 11 107 103
f 79 109 82
f 110 109 79
f 108 109 110
f 82 109 108
f 112 113 111
f 114 113 112
f 115 113 114
f 111 113 115
f 105 116 111
f 117 116 105
f 112 116 117
f 111 116 112
f 97 118 111
f 101 118 97
f 105 118 101
f 111 118 105
f 115 119 111
f 99 119 115
f 97 119 99
f 111 119 97
f 103 120 105
f 108 120 103
f 117 120 108
f 105 120 117
f 121 122 117
f 123 122 121
f 112 122 123
f 117 122 112
f 108 124 117
f 110 124 108
f 121 124 110
f 117 124 121
f 125 126 16
f 127 126 125
f 57 126 127
f 16 126 57
f 15 128 16
f 129 128 15
f 125 128 129
f 16 128 125
f 19 130 15
f 129 130 19
f 15 130 129
f 131 132 19
f 133 132 131
f 129 132 133
f 19 132 129
f 22 134 19
f 131 134 22
f 19 134 131
f 70 135 22
f 136 135 70
f 131 135 136
f 22 135 131
f 67 137 70
f 138 137 67
f 136 137 138
f 70 137 136
f 140 141 139
f 127 141 140
f 125 141 127
f 139 141 125
f 142 143 139
f 144 143 142
f 140 143 144
f 139 143 140
f 133 145 139
f 146 145 133
f 142 145 146
f 139 145 142
f 125 147 139
f 129 147 125
f 133 147 129
f 139 147 133
f 131 148 133
f 136 148 131
f 146 148 136
f 133 148 146
f 149 150 146
f 151 150 149
f 142 150 151
f 146 150 142
f 136 152 146
f 138 152 136
f 149 152 138
f 146 152 149
f 153 154 27
f 155 154 153
f 44 154 155
f 27 154 44
f 26 156 27
f 157 156 26
f 153 156 157
f 27 156 153
f 30 158 26
f 157 158 30
f 26 158 157
f 33 159 30
f 160 159 33
f 30 159 160
f 160 161 30
f 162 161 160
f 157 161 162
f 30 161 157
f 48 163 33
f 164 163 48
f 160 163 164
f 33 163 160
f 51 165 48
f 166 165 51
f 164 165 166
f 48 165 164
f 153 168 167
f 157 168 153
f 162 168 157
f 167 168 162
f 169 170 167
f 155 170 169
f 153 170 155
f 167 170 153
f 171 172 167
f 173 172 171
f 169 172 173
f 167 172 169
f 162 174 167
f 175 174 162
f 171 174 175
f 167 174 171
f 160 176 162
f 164 176 160
f 175 176 164
f 162 176 175
f 164 177 175
f 166 177 164
f 178 177 166
f 175 177 178
f 178 179 175
f 180 179 178
f 171 179 180
f 175 179 171
f 86 182 181
f 38 182 86
f 183 182 38
f 181 182 183
f 89 184 181
f 86 184 89
f 181 184 86
f 185 186 181
f 187 186 185
f 89 186 187
f 181 186 89
f 183 188 181
f 189 188 183
f 185 188 189
f 181 188 185
f 190 191 183
f 192 191 190
f 189 191 192
f 183 191 189
f 38 193 183
f 37 193 38
f 190 193 37
f 183 193 190
f 187 194 89
f 92 194 187
f 89 194 92
f 195 196 185
f 197 196 195
f 187 196 197
f 185 196 187
f 189 198 185
f 199 198 189
f 195 198 199
f 185 198 195
f 192 200 189
f 201 200 192
f 199 200 201
f 189 200 199
f 197 202 187
f 95 202 197
f 92 202 95
f 187 202 92
f 203 204 197
f 75 204 203
f 95 204 75
f 197 204 95
f 195 205 197
f 206 205 195
f 203 205 206
f 197 205 203
f 199 207 195
f 208 207 199
f 206 207 208
f 195 207 206
f 209 210 192
f 211 210 209
f 201 210 211
f 192 210 201
f 190 212 192
f 213 212 190
f 209 212 213
f 192 212 209
f 214 215 201
f 208 215 214
f 199 215 208
f 201 215 199
f 211 216 201
f 217 216 211
f 214 216 217
f 201 216 214
f 169 218 209
f 173 218 169
f 211 218 173
f 209 218 211
f 213 219 209
f 155 219 213
f 169 219 155
f 209 219 169
f 173 220 211
f 221 220 173
f 217 220 221
f 211 220 217
f 171 222 173
f 180 222 171
f 221 222 180
f 173 222 221
f 37 223 190
f 41 223 37
f 213 223 41
f 190 223 213
f 41 224 213
f 44 224 41
f 155 224 44
f 213 224 155
f 166 225 178
f 226 225 166
f 227 225 226
f 178 225 227
f 227 228 178
f 229 228 227
f 180 228 229
f 178 228 180
f 229 230 180
f 231 230 229
f 221 230 231
f 180 230 221
f 51 232 166
f 54 232 51
f 226 232 54
f 166 232 226
f 140 233 227
f 144 233 140
f 229 233 144
f 227 233 229
f 226 234 227
f 127 234 226
f 140 234 127
f 227 234 140
f 144 235 229
f 236 235 144
f 231 235 236
f 229 235 231
f 54 237 226
f 57 237 54
f 127 237 57
f 226 237 127
f 142 238 144
f 151 238 142
f 236 238 151
f 144 238 236
f 123 239 112
f 240 239 123
f 114 239 240
f 112 239 114
f 114 241 115
f 242 241 114
f 243 241 242
f 115 241 243
f 243 244 115
f 245 244 243
f 99 244 245
f 115 244 99
f 240 246 114
f 247 246 240
f 242 246 247
f 114 246 242
f 149 248 243
f 138 248 149
f 245 248 138
f 243 248 245
f 242 249 243
f 151 249 242
f 149 249 151
f 243 249 149
f 247 250 242
f 236 250 247
f 151 250 236
f 242 250 151
f 245 251 99
f 64 251 245
f 61 251 64
f 99 251 61
f 138 252 245
f 67 252 138
f 64 252 67
f 245 252 64
f 217 253 214
f 254 253 217
f 255 253 254
f 214 253 255
f 255 256 214
f 257 256 255
f 208 256 257
f 214 256 208
f 257 258 208
f 259 258 257
f 206 258 259
f 208 258 206
f 254 260 255
f 247 260 254
f 240 260 247
f 255 260 240
f 240 261 255
f 123 261 240
f 257 261 123
f 255 261 257
f 123 262 257
f 121 262 123
f 259 262 121
f 257 262 259
f 221 263 217
f 231 263 221
f 254 263 231
f 217 263 254
f 231 264 254
f 236 264 231
f 247 264 236
f 254 264 247
f 259 265 206
f 266 265 259
f 203 265 266
f 206 265 203
f 121 267 259
f 110 267 121
f 266 267 110
f 259 267 266
f 266 268 203
f 76 268 266
f 75 268 76
f 203 268 75
f 110 269 266
f 79 269 110
f 76 269 79
f 266 269 76
