# C5 c5_1032w_1042c call 23 -- kept
# max displacement from rest 30.2084 mm
# interior RMSE vs target 10.8803 mm   crown 0.308403 m (target 0.312266 m)
v 0.59792328 0.02113320 0.00000000
v 0.58847582 0.11705511 0.00000000
v 0.56667261 -0.08587564 0.02671922
v 0.55479520 0.07185188 0.05009966
v 0.54842591 -0.24066152 0.00000000
v 0.53199101 0.00069650 0.08187181
v 0.54121789 0.17952683 0.03442030
v 0.54045955 -0.07258874 0.05692164
v 0.50667395 0.05479086 0.10955571
v 0.49975804 -0.17512355 0.08346776
v 0.48791221 0.23753448 0.06600603
v 0.51045434 0.25159864 0.03388729
v 0.50631553 -0.21337012 0.06812446
v 0.50340755 -0.28311240 0.02895481
v 0.48685615 -0.02082732 0.12292357
v 0.48878829 0.15973045 0.10475884
v 0.46008835 0.10186899 0.14557843
v 0.47875641 -0.05822575 0.11635374
v 0.45630259 0.06507451 0.15733661
v 0.45781532 0.26223279 0.07568445
v 0.45413908 -0.20221976 0.13040060
v 0.45817207 -0.23900691 0.11349837
v 0.43087018 -0.03390604 0.15815231
v 0.43168896 0.12591160 0.15997457
v 0.43871420 0.37089874 0.02834989
v 0.43910156 -0.35723637 0.04792620
v 0.42783591 0.08839916 0.17184448
v 0.43837841 0.21768655 0.11716038
v 0.41597638 0.43107167 0.00000000
v 0.43242484 -0.41432756 0.00000000
v 0.42027909 0.05186427 0.17872877
v 0.43033336 0.16449651 0.14981150
v 0.41182456 -0.15755387 0.16419753
v 0.39990246 -0.23047378 0.16822160
v 0.39863231 -0.11751134 0.16717176
v 0.41029956 -0.27014749 0.15659697
v 0.39898197 0.10982409 0.18204853
v 0.40453023 -0.01956946 0.17760921
v 0.41531155 -0.32677780 0.10364401
v 0.38102303 -0.39180206 0.06855754
v 0.38602443 0.37940628 0.08142636
v 0.40801871 -0.05440872 0.16484764
v 0.37478084 0.29079475 0.12746251
v 0.35231584 0.06378070 0.20930819
v 0.40095539 0.14595879 0.17225659
v 0.35875160 -0.17074383 0.19638652
v 0.34389464 -0.25941500 0.18769756
v 0.36398187 -0.10922763 0.18720252
v 0.37373650 -0.44049617 0.02310998
v 0.34369206 -0.28919843 0.17079854
v 0.35916923 0.42909356 0.05444868
v 0.37149838 -0.00144634 0.19641052
v 0.35022785 0.34998472 0.13631968
v 0.37789862 -0.33463871 0.12263858
v 0.31489684 0.04705724 0.22194616
v 0.32939201 0.16670238 0.19200646
v 0.34568564 -0.40210151 0.07915249
v 0.32816367 0.28726639 0.16583694
v 0.31509134 0.50864238 0.00000000
v 0.34214153 -0.03257067 0.20449467
v 0.32644783 -0.23612681 0.20405094
v 0.32517188 -0.17141158 0.20841510
v 0.32887165 0.37783843 0.13292777
v 0.34174813 0.12937900 0.20093404
v 0.30648025 -0.27167246 0.18948482
v 0.30906910 -0.13811828 0.21555314
v 0.35029114 0.03051472 0.20709533
v 0.31457037 0.31665522 0.17423451
v 0.31245013 -0.30909660 0.16887144
v 0.32755465 -0.10401301 0.20538611
v 0.32133901 0.09189800 0.21454469
v 0.29639205 -0.37647943 0.11982296
v 0.27356102 0.43344528 0.12690676
v 0.28944962 0.34512454 0.17545677
v 0.29279638 0.24515844 0.19301720
v 0.28506378 -0.23793424 0.20560308
v 0.28843445 -0.17261619 0.21912355
v 0.27230243 0.27934036 0.20278768
v 0.26142256 -0.26792943 0.19606248
v 0.26558408 0.00937800 0.25083055
v 0.27236745 0.40598414 0.15389240
v 0.28437640 -0.32593122 0.16059326
v 0.25906485 -0.49238568 0.04981086
v 0.27959222 0.31194688 0.19078449
v 0.25567390 0.08244233 0.24915521
v 0.27066361 0.21468733 0.20786097
v 0.24204692 0.01807068 0.27936354
v 0.24020038 -0.47640985 0.07719696
v 0.26532296 -0.20496859 0.21753396
v 0.24129573 0.24031089 0.22129436
v 0.24678974 0.11988898 0.24388745
v 0.24218569 -0.23644480 0.20947916
v 0.23096361 0.36727601 0.19218114
v 0.23429540 0.45467620 0.12262371
v 0.23535693 -0.29630257 0.18424237
v 0.23842339 0.27318684 0.21438544
v 0.21937437 0.09806307 0.26632613
v 0.22549868 -0.11178157 0.26596736
v 0.20302137 -0.42715113 0.13810592
v 0.20587103 -0.00776736 0.28219706
v 0.21691112 0.33084747 0.21015443
v 0.20460988 0.17349949 0.24933245
v 0.22858969 0.05553106 0.26923303
v 0.21580038 -0.18020925 0.24111101
v 0.20902503 0.50758827 0.07267777
v 0.21756401 -0.26658186 0.20097658
v 0.21466762 -0.14348560 0.25126506
v 0.20915075 0.26416175 0.22622693
v 0.18647533 -0.39935311 0.16160807
v 0.17207407 0.39079511 0.18674448
v 0.20702626 0.03927577 0.28178919
v 0.16832642 0.27041287 0.22932200
v 0.19392177 0.45624710 0.13880566
v 0.18735777 -0.45674102 0.13459105
v 0.15698615 -0.06579300 0.29922829
v 0.17683045 -0.33310179 0.18557819
v 0.16111091 -0.00775042 0.28785067
v 0.18049147 0.15164388 0.27387787
v 0.17011937 0.18767301 0.26345967
v 0.18436540 -0.17159092 0.25443133
v 0.13666791 0.02596937 0.29449644
v 0.14940071 0.22096959 0.24854042
v 0.16863606 -0.13616715 0.26635093
v 0.15690706 -0.40355138 0.17755807
v 0.14553355 0.41309109 0.16894111
v 0.17976306 0.54720808 0.02718366
v 0.17238030 0.04693237 0.29584654
v 0.14994763 -0.30691256 0.20258190
v 0.13150967 -0.38297497 0.19255926
v 0.13760921 0.37901417 0.18997766
v 0.11855029 -0.00482188 0.30248135
v 0.14770797 -0.49959456 0.11340391
v 0.15255680 0.12767928 0.29366948
v 0.14649099 0.16499908 0.28327074
v 0.12788605 -0.13728732 0.27409888
v 0.10967451 0.03176765 0.29373403
v 0.16448554 0.47539505 0.11814199
v 0.11271669 -0.06731424 0.28585692
v 0.13577709 0.20433133 0.26674568
v 0.12636936 -0.45585861 0.16361844
v 0.13949475 -0.34429374 0.19866953
v 0.14535156 0.31047403 0.22265708
v 0.12205794 -0.25669065 0.23594969
v 0.11837706 0.43205119 0.14818307
v 0.12891115 -0.42174313 0.18148155
v 0.10768788 -0.06429305 0.28879838
v 0.11343117 0.13970330 0.29413369
v 0.11808021 0.17831951 0.28778022
v 0.08085011 -0.08553012 0.30257177
v 0.09581538 -0.20828206 0.27382742
v 0.10234234 -0.36060819 0.20563428
v 0.11393704 -0.51726180 0.11430608
v 0.12199051 0.10244569 0.30840335
v 0.10500035 -0.10636714 0.28338006
v 0.09096406 -0.47659502 0.16651511
v 0.08810261 -0.24314076 0.26367300
v 0.10222532 0.32256760 0.21262910
v 0.10012642 0.20768347 0.27800863
v 0.10705088 -0.31997684 0.21029276
v 0.09493999 -0.44097937 0.18747450
v 0.07316901 -0.17874089 0.29108481
v 0.08234509 0.09293033 0.29665846
v 0.08936345 0.12375491 0.29796623
v 0.08609319 0.26247229 0.24377795
v 0.08434018 -0.27178063 0.24193160
v 0.08861074 0.16915265 0.29824911
v 0.07087206 -0.05269271 0.29096081
v 0.07112567 -0.33887714 0.21538848
v 0.06534330 0.19780016 0.28196867
v 0.05563341 -0.21590660 0.26765249
v 0.06494428 -0.14106669 0.29603309
v 0.06038623 -0.57233163 0.03055183
v 0.05320583 0.51680633 0.08877269
v 0.05077920 -0.50975825 0.11964184
v 0.06069100 0.15498454 0.28593733
v 0.03949451 0.48579016 0.12208812
v 0.03949170 0.04871604 0.29371627
v 0.06171175 -0.41663746 0.19310215
v 0.03923030 0.37879469 0.18879848
v 0.03538020 -0.19184030 0.27766195
v 0.03716179 -0.11731102 0.28502440
v 0.04662429 0.08073444 0.29773385
v 0.03444615 -0.35798951 0.20825321
v 0.05235419 0.11841476 0.29634685
v 0.00462783 -0.12678683 0.28160412
v 0.04010008 -0.32514386 0.21596728
v 0.07972041 0.01397958 0.29452873
v 0.01566582 0.25206326 0.26308376
v 0.02021533 -0.22802901 0.26716424
v 0.01695567 -0.08465134 0.28789347
v 0.00484008 0.17366299 0.29708547
v 0.00166524 -0.16557111 0.27535360
v -0.00833826 0.59918350 0.00000000
v -0.00076876 -0.59992903 0.00000000
v 0.00243476 -0.53786511 0.08117271
v 0.01781147 0.53292838 0.08250491
v -0.00582073 -0.48897436 0.13153871
v 0.00967169 0.40604238 0.18858425
v -0.00612330 0.33647532 0.21750390
v 0.01858897 -0.46317249 0.15770059
v 0.02562828 -0.42840333 0.17998943
v -0.00381661 -0.36993933 0.19700845
v -0.01560522 -0.23323886 0.25429951
v -0.01642698 0.06267785 0.29232319
v -0.00570005 -0.20083113 0.26963518
v -0.05492407 0.25120207 0.25560516
v -0.05426731 -0.06921178 0.28608222
v -0.03209598 0.15904517 0.29419620
v -0.04491617 0.33308265 0.22468321
v -0.03513233 -0.34372732 0.19921710
v -0.03301202 0.36213339 0.21492638
v -0.08367274 -0.01590592 0.28866275
v -0.04127833 -0.38048289 0.18116240
v -0.02794065 0.39756014 0.20081353
v -0.04782553 0.18759402 0.28931186
v -0.05246108 -0.11307811 0.29060605
v -0.02393174 0.09595579 0.29447485
v -0.04838588 0.45798972 0.16707824
v -0.03640246 -0.48075168 0.12441147
v -0.05130017 0.51118646 0.11430929
v -0.06898537 0.04394973 0.28919765
v -0.06975026 0.16120233 0.29678430
v -0.04579684 0.55782151 0.05294014
v -0.07012102 -0.19627042 0.26005943
v -0.04372322 -0.56583449 0.03592608
v -0.05199277 0.12705863 0.29999665
v -0.07823286 0.19964860 0.28419599
v -0.09083883 -0.25620509 0.22979413
v -0.06868254 0.34259828 0.22083463
v -0.10662133 -0.04472877 0.29136022
v -0.09118010 0.07070905 0.28701225
v -0.09215224 0.26294784 0.24049920
v -0.07726783 -0.08985664 0.28243618
v -0.10428606 0.10967941 0.30118817
v -0.07298517 -0.15006948 0.27153157
v -0.08401295 -0.10815254 0.28009324
v -0.05958574 0.42628765 0.19386654
v -0.09707730 0.17336514 0.28287803
v -0.11098726 0.48365450 0.14203601
v -0.12271850 0.31069972 0.21994226
v -0.10944256 -0.32671719 0.19827493
v -0.08764363 0.23451508 0.26768751
v -0.11985803 -0.01576255 0.28658658
v -0.11612731 -0.10687286 0.29474444
v -0.10325383 0.33239729 0.21134409
v -0.10980212 -0.36502440 0.17995804
v -0.11123765 0.20628277 0.26926102
v -0.11302023 -0.14035315 0.27199164
v -0.11059941 0.04361944 0.29207425
v -0.14120274 -0.05487754 0.29433439
v -0.11822700 0.39596644 0.19311042
v -0.11405773 -0.40236124 0.15874783
v -0.11898866 0.08104621 0.28571596
v -0.12821827 -0.24291949 0.22596667
v -0.12379759 0.23840652 0.24828139
v -0.12564885 0.45209716 0.16251802
v -0.13987473 0.10789014 0.27974277
v -0.16604070 -0.45929784 0.12023848
v -0.13634881 -0.20880170 0.24551462
v -0.14956177 -0.13485370 0.28604139
v -0.14400119 -0.17065721 0.25693396
v -0.12776416 0.14157397 0.28831207
v -0.14699390 0.17222148 0.27096056
v -0.17254520 -0.02707956 0.28009627
v -0.13548409 0.50585810 0.10898709
v -0.13457731 -0.50451548 0.07851011
v -0.14933808 -0.30626400 0.20564899
v -0.17977893 -0.36448385 0.18469350
v -0.12968825 0.36142085 0.19912744
v -0.16069537 0.29783754 0.20775238
v -0.17501799 -0.07270501 0.26992983
v -0.17056667 -0.43116172 0.14441143
v -0.17854907 0.40979378 0.16513283
v -0.18791496 0.06136277 0.27327229
v -0.18465379 -0.32915011 0.19904900
v -0.16321124 0.14707305 0.27802549
v -0.16844110 -0.22609044 0.22342322
v -0.18748028 0.20689745 0.23757178
v -0.19841858 0.15419973 0.26345092
v -0.18303118 -0.16048677 0.26954758
v -0.17412820 -0.19572635 0.25100682
v -0.19816370 0.00382845 0.28941281
v -0.18225122 0.32451526 0.18915137
v -0.20518582 -0.44671604 0.13027338
v -0.20114692 0.09605284 0.26754008
v -0.18574691 0.46235144 0.13136156
v -0.19067412 -0.29317321 0.21070170
v -0.21089144 -0.38466381 0.17482100
v -0.22858041 -0.11846209 0.23805404
v -0.20156883 -0.25902011 0.21250966
v -0.21120876 0.50597717 0.07121891
v -0.21167078 0.12998790 0.25604186
v -0.21103553 -0.05731671 0.26330356
v -0.20589435 -0.41688810 0.15371282
v -0.22554073 -0.31663758 0.20276998
v -0.22654781 0.07136749 0.25747049
v -0.21274510 0.55944854 0.00000000
v -0.24113308 -0.54817384 0.00000000
v -0.23571840 0.41394393 0.12476146
v -0.26978383 0.01033050 0.25681141
v -0.23376061 0.10805646 0.25107585
v -0.23158065 -0.27953956 0.20313445
v -0.24247582 0.29296303 0.18741595
v -0.24259617 -0.45639625 0.10916303
v -0.25393923 -0.05136183 0.24822723
v -0.25071122 -0.37625212 0.18004241
v -0.24917643 0.23194942 0.21183938
v -0.25780246 -0.10924713 0.22646181
v -0.23799405 -0.24127745 0.20465080
v -0.26762128 0.46213917 0.07247757
v -0.26944253 -0.22123792 0.19589302
v -0.27568252 -0.05795681 0.23134545
v -0.27898335 -0.50025416 0.03513552
v -0.25781445 -0.33917808 0.18394390
v -0.26326579 0.51082897 0.02819231
v -0.26175577 0.08713358 0.23727587
v -0.26974237 -0.40393110 0.15704230
v -0.25983170 0.32279791 0.16796651
v -0.29026187 -0.01940542 0.23878404
v -0.28462319 0.02227819 0.23003207
v -0.26785932 0.26402206 0.20011704
v -0.26757817 -0.26163543 0.19226498
v -0.28874491 0.16262657 0.21768304
v -0.30426104 0.19434285 0.21516683
v -0.30492296 -0.16454974 0.19863318
v -0.28832745 -0.36423424 0.16105270
v -0.30537359 -0.42499000 0.10723111
v -0.32842213 0.37540595 0.11461912
v -0.32134537 -0.09932633 0.21142603
v -0.30078971 0.32540105 0.16212603
v -0.29229284 -0.32205739 0.17154731
v -0.33104009 0.09806144 0.20030125
v -0.33777672 -0.03354149 0.20966950
v -0.30906723 0.26766404 0.19329203
v -0.30613510 -0.12979576 0.20986430
v -0.31130371 0.13009558 0.20930668
v -0.33058200 -0.39566890 0.10972425
v -0.32680021 0.16670454 0.20677881
v -0.33460810 0.20470025 0.20820351
v -0.33847969 0.03072914 0.20148644
v -0.35713823 -0.28329586 0.13568569
v -0.34245379 -0.07277837 0.21295295
v -0.35391796 0.35132433 0.12932656
v -0.35309127 0.00269917 0.20130776
v -0.35838642 -0.11081872 0.20202708
v -0.36585808 0.29925956 0.15989228
v -0.35108197 0.46205305 0.02023063
v -0.36632113 0.10353714 0.18302732
v -0.37037005 0.24890041 0.18974884
v -0.36913210 -0.14693302 0.18792924
v -0.36733235 -0.05394496 0.20559887
v -0.38213655 0.13900422 0.17928832
v -0.36469275 0.17556184 0.19222896
v -0.37668932 -0.17537779 0.17126595
v -0.39356050 0.00912853 0.18575564
v -0.38062716 0.38041169 0.08308375
v -0.38402748 -0.37049846 0.08025148
v -0.38036609 0.32352564 0.13322219
v -0.38818718 0.27172543 0.16918046
v -0.40604324 -0.34512139 0.07386893
v -0.42570607 0.21874250 0.15041738
v -0.40128852 0.10912681 0.16285456
v -0.39828109 0.16779822 0.17424469
v -0.43425863 -0.05442849 0.18150643
v -0.42976737 0.41756567 0.00000000
v -0.39668038 -0.22407605 0.13518825
v -0.41298348 0.04241931 0.16464952
v -0.42269680 -0.08912277 0.19216246
v -0.42870418 0.36202294 0.05378700
v -0.43994055 -0.36892513 0.02658984
v -0.43871526 -0.12265864 0.16879619
v -0.45334490 0.30106494 0.08815379
v -0.44193246 -0.02381956 0.17200020
v -0.47262375 0.22556289 0.10192948
v -0.46475046 -0.18010158 0.12344707
v -0.45602099 0.19709761 0.12870973
v -0.44781282 0.15467661 0.13465941
v -0.46497067 -0.04456929 0.15977254
v -0.45597558 -0.25454736 0.07967286
v -0.47705566 -0.10543668 0.15031259
v -0.49171916 -0.15389707 0.11108863
v -0.50187206 0.32775772 0.00000000
v -0.51082121 0.25827190 0.03576679
v -0.49056207 -0.22270246 0.07174364
v -0.50792832 -0.26740666 0.02715686
v -0.49889478 0.20870109 0.07846312
v -0.53152177 0.01822015 0.08232519
v -0.54164243 -0.12519592 0.07085035
v -0.54015937 -0.15993539 0.05124671
v -0.55562288 0.00213409 0.05647318
v -0.54529329 0.17735600 0.02901565
v -0.56989622 -0.05709582 0.03360321
v -0.57096510 0.05422355 0.02780720
v -0.58888495 -0.11290137 0.00000000
v -0.59994477 0.00060879 0.00000000
v 0.33003585 0.45491770 0.05333240
v 0.41416184 0.36667837 0.05898067
v 0.13884106 0.52066310 0.06879928
v -0.11347938 0.55253347 0.05272965
v 0.22981179 -0.50703533 0.05391639
v -0.28202280 0.48222880 0.04607416
v 0.25485853 -0.44440845 0.09165739
v -0.03653146 -0.53987378 0.06821710
v -0.52876771 0.14577682 0.05573477
v 0.12047637 -0.55136222 0.05927320
v 0.51800363 -0.14147534 0.06767571
v -0.50526434 0.03448559 0.10489942
v -0.46102324 -0.21670379 0.10219156
v -0.47107984 0.31669474 0.05511318
v 0.46122481 -0.32807423 0.05575213
v -0.38209277 -0.45887926 0.00000000
v 0.36474848 -0.47311336 0.00000000
v 0.44204363 0.40260705 0.00000000
v 0.57521123 -0.16078255 0.00000000
v 0.16177262 0.57491088 0.00000000
v 0.57476550 0.16225195 0.00000000
v -0.16671224 -0.57341248 0.00000000
v -0.51834917 -0.29693121 0.00000000
v -0.02303394 -0.45658531 0.14780738
v 0.53241691 0.06687546 0.08136905
v -0.26281384 -0.47881282 0.07328476
v 0.43107812 -0.12456557 0.14487431
v 0.37757688 -0.29916511 0.15089994
v 0.48055553 0.04072731 0.13665010
v 0.30192776 0.28185096 0.18436958
v 0.10995527 0.39869953 0.17103133
v -0.57464488 0.01915440 0.02800074
v -0.18423213 0.37955919 0.17080387
v -0.23599437 -0.40246943 0.16209053
v -0.02133070 0.43252380 0.18500525
v -0.34542971 0.39540100 0.08776226
v -0.38202162 -0.33703538 0.10078749
v 0.46343288 0.22482798 0.09550967
v 0.38341382 0.03845085 0.19551954
v -0.26295639 -0.30075566 0.19013074
v -0.40051588 -0.05535586 0.19609875
v -0.06289015 0.38268073 0.20795526
v -0.22902886 0.14571778 0.24139857
v 0.25933146 0.04450029 0.24971690
v -0.35197990 -0.32770463 0.12975121
v 0.41979976 0.19872320 0.13882200
v 0.11421238 0.24070012 0.25202483
v 0.25014870 -0.11273435 0.23636009
v 0.08519639 -0.50131321 0.13346341
v -0.49295653 -0.12330288 0.12644615
v -0.14450591 -0.38058324 0.17500303
v 0.39284342 0.18047493 0.16224044
v 0.23991509 0.40069646 0.17024599
v 0.45993149 -0.38081059 0.00000000
v -0.47198784 -0.36611992 0.00000000
v -0.48209521 0.35380405 0.00000000
v -0.57878697 -0.14899495 0.00000000
v -0.17589951 0.57062554 0.00000000
v 0.59327775 0.06830031 0.00000000
v -0.59646612 0.03592828 0.00000000
v -0.04460660 -0.59561139 0.00000000
v -0.27564669 -0.52972597 0.00000000
v 0.52317095 0.28791025 0.00000000
v 0.20313971 0.48196144 0.10692466
v -0.02830777 -0.51194911 0.10081927
v 0.53142029 -0.21611642 0.03258297
v -0.48156742 0.19264439 0.10138607
v 0.50354148 0.01200116 0.11330883
v 0.43560851 -0.26975372 0.12717495
v 0.30310485 0.40716252 0.13195003
v 0.12030347 -0.48731235 0.13984308
v -0.07551696 0.52851930 0.09460817
v -0.44030724 0.33352969 0.07097167
v 0.47246195 0.00506794 0.14232688
v -0.51337579 -0.00640294 0.10962606
v 0.37970462 -0.14765108 0.18346804
v 0.39592905 -0.35787997 0.08945076
v 0.51621396 0.17141168 0.07122433
v 0.01637833 0.51042450 0.10831869
v -0.24640177 0.49589326 0.05733250
v -0.33909532 0.44187680 0.04664253
v -0.16695268 -0.48795192 0.09273798
v -0.33598694 0.24037569 0.19838938
v -0.54703629 0.07570138 0.05046613
v 0.24439140 0.50423776 0.05404579
v -0.55433128 -0.09102396 0.05503296
v -0.46421439 -0.34245616 0.02250805
v 0.48048715 0.27583919 0.04913455
v 0.34433045 -0.13877823 0.20013986
v -0.14536783 -0.34485910 0.19219288
v -0.31543659 0.35118290 0.13880793
v -0.45163766 0.02787066 0.14891287
v 0.05856727 0.45196638 0.13932031
v -0.17652725 -0.39908172 0.16725567
v -0.12816088 -0.43882952 0.13479080
v 0.38230171 0.21431474 0.14898593
v -0.38659798 -0.39992250 0.05423842
v 0.00339701 -0.33582357 0.21089733
v 0.33516541 0.00636280 0.21701382
v -0.04493205 -0.41965300 0.16011191
v -0.20172228 0.42783510 0.14225016
v 0.37340303 0.33085913 0.12028481
v 0.44334468 -0.16352347 0.13931697
v 0.54179943 -0.14509448 0.04200935
v -0.29976465 -0.24194549 0.17843214
v 0.24570826 -0.01982253 0.26575145
v 0.26651816 -0.08303314 0.23459885
v 0.11894930 -0.23179427 0.25428504
v -0.02496237 -0.25983954 0.23956009
v -0.36201090 0.47536004 0.00000000
v -0.59620458 -0.03858358 0.00000000
v 0.52908826 -0.27683973 0.00000000
v 0.27970111 0.52755880 0.00000000
v 0.30030006 -0.51654845 0.00000000
v -0.29189527 0.52104092 0.00000000
v -0.52032018 0.29324374 0.00000000
v -0.31922739 -0.48131621 0.02940650
v 0.57430506 0.08221147 0.02151244
v 0.27051308 0.46047159 0.10112383
v -0.49187927 -0.02745845 0.13515786
v 0.36040240 0.40420207 0.08295866
v 0.04284071 -0.53462017 0.08883626
v 0.13779779 -0.52581047 0.08580086
v 0.21667867 0.42887323 0.15452030
v -0.52170105 -0.22990542 0.03500763
v 0.53434113 0.21765625 0.02653875
v 0.05514325 -0.48350298 0.15103641
v 0.49014837 0.19863272 0.08784692
v -0.22010618 0.45074652 0.11638755
v 0.36328279 -0.37085066 0.10007777
v -0.30799540 0.40089789 0.09791273
v -0.42714568 0.18102754 0.15450463
v -0.30026304 -0.39810536 0.13561856
v -0.04446703 0.53835175 0.08137228
v -0.41182130 -0.31414279 0.08314325
v -0.54474002 -0.05709688 0.07260604
v 0.43335080 0.24959172 0.10090722
v 0.56745079 -0.04293736 0.03265906
v -0.38624404 0.34872262 0.10707337
v -0.16422158 0.44232183 0.15470590
v 0.15482234 -0.47030069 0.13886375
v -0.46597829 -0.14236795 0.14076767
v -0.28434701 0.29611190 0.18272136
v -0.44255506 0.05827881 0.14109629
v 0.44255550 -0.06050596 0.14146460
v -0.29750835 -0.28228221 0.17570557
v -0.55765154 0.14106469 0.02505662
v 0.30786990 0.13261792 0.21047782
v -0.15297929 0.38847365 0.18450945
v 0.44329336 0.33810494 0.04784798
v 0.17606068 0.52805317 0.05494167
v -0.47433362 -0.27891781 0.04929704
v -0.33940903 -0.18032865 0.18067109
v 0.52521311 -0.17973971 0.05404741
v -0.39697248 0.23552081 0.17139835
v 0.27590175 -0.29817914 0.17933846
v 0.16611035 -0.36996264 0.18181246
v -0.40437721 -0.18889654 0.15363267
v -0.22381421 0.26220555 0.20399756
v 0.44989642 -0.31086340 0.08383187
v 0.19559166 -0.52252311 0.05627205
v 0.36250191 0.37215757 0.10916451
v 0.57853676 -0.00274502 0.02347067
v -0.33414432 -0.42407384 0.08258175
v -0.51765238 -0.15808704 0.08180138
v -0.53231228 0.22074126 0.02908961
v -0.47649774 0.16156948 0.10932768
v -0.22231572 0.52696343 0.03545469
v 0.38800865 0.40154710 0.05534329
v -0.00633786 -0.55924117 0.05028408
v 0.28375137 0.49897422 0.03266662
v -0.41044592 0.35455163 0.08162666
v 0.27224840 0.48169177 0.06803192
v -0.49370057 0.29307058 0.03642829
v 0.03655237 0.54939110 0.05921165
v -0.43251490 -0.20346380 0.12976474
v -0.57229241 -0.09215804 0.02504719
v -0.01667943 0.50546595 0.12030656
v 0.15531673 0.44521814 0.14486969
v 0.56033728 0.11016940 0.03501026
v -0.20577218 -0.52141111 0.04608886
v 0.51194941 0.09542018 0.09986723
v 0.02648436 0.45714723 0.15094920
v -0.43915919 0.28366627 0.12186908
v -0.32579197 -0.36575123 0.13499057
v 0.33819006 -0.35599521 0.12588341
v 0.46018406 -0.02996162 0.14100456
v 0.35002129 0.27054508 0.15051528
v 0.52327946 -0.25208874 0.02360114
v -0.54225151 -0.19491841 0.02947460
v -0.39430445 0.44885737 0.00000000
v 0.42222879 -0.19663536 0.15671177
v -0.46379427 -0.00679232 0.15459098
v -0.27613065 0.35052865 0.14595568
v 0.07819850 -0.52691601 0.10121197
v -0.25310480 0.43903468 0.09922016
v 0.47345122 -0.16936253 0.11275452
v 0.26574039 0.37403582 0.17668983
v 0.15897248 -0.53740131 0.05716832
v 0.36248263 -0.42239954 0.04997914
v 0.56437696 -0.14210413 0.01787103
v -0.29710050 0.49721982 0.02143280
v -0.32563004 0.42170340 0.07197410
v 0.29221545 -0.49221567 0.02816942
v 0.10095412 -0.56846170 0.03068335
v 0.40790798 0.23340814 0.12547747
v -0.49329682 -0.29937135 0.02148298
v -0.27275448 0.20108872 0.21930368
v -0.07583487 0.29928266 0.22877245
v 0.23670099 -0.41951946 0.11817030
v -0.07385070 -0.54643583 0.05137435
v 0.06612693 -0.37955303 0.21034912
v -0.34891308 0.27284299 0.18280121
v 0.32237316 0.34740680 0.15573808
v 0.52478960 0.03309621 0.09055249
v 0.20682719 0.56124371 0.00000000
v -0.44435945 -0.39978519 0.00000000
v -0.59269834 0.07418330 0.00000000
v 0.08388902 0.59174240 0.00000000
v 0.54562628 0.24589933 0.00000000
v -0.25828441 -0.02156785 0.25324500
v 0.17132082 0.50192131 0.08722574
v -0.48852010 -0.06661164 0.14187342
v 0.43984073 -0.00514393 0.16435279
v -0.17771326 0.18203657 0.26129331
v -0.10581682 -0.18093418 0.25839642
v -0.15447513 -0.01506692 0.28309626
v -0.41687257 0.14382626 0.15785501
v 0.20235284 -0.07472540 0.28181594
v 0.17510297 0.31997025 0.21393712
v 0.14662087 -0.16872898 0.26095777
v 0.43268084 -0.38386137 0.02671318
v 0.36730979 -0.23029041 0.19147763
v 0.43784083 -0.29997496 0.11209770
v 0.07599013 0.53958546 0.05833869
v -0.15079493 0.55274524 0.03395602
v -0.13865134 -0.53369676 0.04977516
v 0.48084465 -0.20806934 0.09962686
v 0.53795449 0.10392508 0.06903785
v 0.14231322 -0.56031505 0.02886730
v -0.07821043 0.54768918 0.06538375
v 0.48415273 -0.31734246 0.02959530
v -0.56057420 -0.12675288 0.03275627
v 0.21809197 -0.45809402 0.10902921
v -0.49081130 -0.25006714 0.05408202
v -0.02757176 0.57533737 0.02927845
v 0.13714254 0.34400981 0.21023873
v 0.02057109 -0.57661731 0.02739483
v -0.35686212 -0.36599192 0.10924136
v -0.09711238 -0.22247509 0.24618317
v -0.57587610 -0.01773585 0.02821085
v -0.51170394 0.22602010 0.05288518
v 0.40064421 -0.44365448 0.00000000
v -0.24287263 -0.52329969 0.02687250
v -0.14727152 0.47307511 0.13638113
v 0.27143701 -0.35303137 0.14306112
v -0.09862673 0.42741695 0.18278596
v 0.48798825 0.07998954 0.13140662
v -0.40382366 0.29448595 0.14007568
v -0.43681061 -0.16505446 0.15041230
v 0.46438610 0.34421777 0.02291504
v -0.18028846 0.12044195 0.27542751
v 0.14133137 0.55057850 0.03458254
v -0.49155557 -0.18862730 0.09274739
v 0.54897900 -0.17736715 0.02530055
v 0.46160831 0.14394108 0.13523385
v -0.08007231 -0.57385348 0.02043905
v -0.22268663 -0.02682389 0.27499740
v -0.53668984 -0.02122522 0.08360610
v 0.22051893 -0.53350842 0.02781463
v 0.42185660 0.32532217 0.07448380
v 0.00379624 0.37184118 0.20548274
v -0.06725089 -0.51748107 0.08101894
v 0.24346351 0.30499722 0.20638261
v -0.52490861 0.05815879 0.07709964
v 0.49167803 -0.13597331 0.09443821
v 0.09764282 -0.40072841 0.19726216
v 0.29789324 0.37748677 0.15585290
v 0.34497454 -0.32325623 0.14826641
v -0.39971400 0.41337505 0.03042904
v -0.42929056 0.00696263 0.17009338
v 0.14200572 -0.09765239 0.27983231
v -0.38306071 -0.08533544 0.20534287
v -0.56063014 0.20884998 0.00000000
v 0.24307497 0.54713589 0.00000000
v -0.50997161 -0.09152027 0.12358866
v -0.09583675 0.36929693 0.21015605
v 0.32245838 0.25112680 0.17350665
v 0.55750791 -0.00206204 0.05020248
v -0.02018633 0.20203939 0.29328548
v 0.21915974 -0.39119547 0.14295031
v -0.41422914 -0.40003828 0.02680452
v 0.29661138 0.16843214 0.20374137
v -0.23038226 -0.48144737 0.08473830
v 0.00505980 0.48647640 0.13742488
v -0.14422992 0.33054079 0.20251504
v -0.48520952 0.01251102 0.13080340
v -0.08696645 0.40333549 0.20265642
v 0.33190834 0.43192729 0.08127582
v 0.48296503 -0.24635813 0.08214559
v 0.46098780 -0.35178946 0.02589535
v -0.18894276 0.54715802 0.02560694
v -0.10926582 0.53139905 0.08672885
v -0.01569749 -0.57929043 0.02252907
v -0.51794942 -0.19367716 0.06066498
v -0.42873173 0.38623906 0.02942900
v -0.23902518 -0.50157154 0.05587250
v -0.35933035 -0.39752315 0.08273004
v 0.03944946 0.59611928 0.00000000
v 0.17280866 -0.51130330 0.08544288
v -0.29825493 -0.47407376 0.06194538
v 0.10471938 -0.53641415 0.08470325
v -0.38532394 -0.42876178 0.02712121
v -0.27474238 -0.43195600 0.12754322
v -0.00808960 0.55312031 0.06118207
v 0.39394789 0.34732617 0.09150492
v 0.51485009 0.21011244 0.05431706
v -0.32561613 0.29957823 0.17501932
v 0.27470782 -0.46672728 0.06177954
v 0.25900171 -0.51586900 0.02439159
v 0.13367860 0.49310299 0.09756325
v -0.52221335 0.18962677 0.05420402
v -0.38392082 -0.30004316 0.11079256
v -0.23738021 0.01025240 0.27275263
v -0.46459629 0.26356576 0.09685313
v 0.18174053 0.42475974 0.16554977
v 0.01342177 -0.51466103 0.10937325
v -0.49911520 0.13335946 0.08655547
v -0.00874745 -0.40463951 0.18199932
v 0.56218070 -0.20373854 0.00000000
v -0.56714153 -0.18738475 0.00000000
v 0.35187578 0.48367769 0.00000000
v -0.54189104 0.25288740 0.00000000
v 0.12668239 -0.58555543 0.00000000
v 0.59307426 -0.07036635 0.00000000
v -0.01026027 0.46210259 0.16236997
v -0.50300775 0.16991737 0.08011226
v -0.03360119 0.48579234 0.14252659
v -0.41256404 -0.37054574 0.05233367
v -0.05893182 -0.45312827 0.13441113
v -0.01896708 0.24084441 0.27621503
v -0.20190197 -0.49820764 0.07535550
v -0.21212432 -0.18500091 0.24141554
v -0.36738708 0.41160344 0.05916734
v 0.57191017 0.03845061 0.02988065
v 0.21530591 0.53023551 0.03557894
v -0.17332999 0.50913269 0.08724397
v -0.00836924 0.13307221 0.30329927
v 0.07177695 0.48430724 0.10959094
v 0.30865977 -0.40706262 0.09102747
v -0.09428052 0.50817710 0.11617555
v 0.23883921 0.48312778 0.08949812
v 0.46911511 0.36962032 0.00000000
v 0.37394335 0.12878164 0.18975796
v 0.53883963 0.14155759 0.05448938
v -0.14448873 0.53069039 0.07095128
v -0.31055237 -0.44741561 0.08129347
v 0.50406229 -0.24955368 0.05043649
v -0.55690435 -0.03075007 0.05481541
v -0.34763971 0.13600223 0.19607600
v -0.40244278 0.38657101 0.05611688
v 0.30460200 0.43604929 0.10698211
v -0.41966210 0.25856414 0.14807743
v 0.24710508 0.42717567 0.14566665
v -0.42574240 -0.24011576 0.10948008
v 0.33293977 0.40510349 0.10810144
v -0.29162467 0.37659347 0.12271150
v -0.13946195 0.42073781 0.17525950
v -0.39760461 0.19945888 0.17443440
v -0.06427383 -0.48690863 0.10779488
v 0.39968976 0.30830896 0.10185557
v 0.45994076 0.18694206 0.12199437
v 0.03718384 -0.15159219 0.28357149
v -0.35385777 -0.45595098 0.02731508
v 0.01502964 0.57300510 0.03151341
v 0.16408416 0.35791114 0.20250889
v -0.20514613 -0.54427573 0.01893377
v 0.02905337 -0.39336067 0.19680006
v 0.38677619 0.42833225 0.02789185
v -0.41779945 0.32009869 0.10737006
v -0.51645456 -0.12342013 0.10071513
v -0.23975379 -0.42895921 0.14011853
v -0.31841632 -0.33763215 0.15201101
v 0.56184721 0.20483784 0.00000000
v 0.20816483 -0.56083798 0.00000000
v 0.08397210 -0.59173423 0.00000000
v -0.55592757 -0.22435221 0.00000000
v -0.31076312 -0.51095587 0.00000000
v -0.46722188 0.12517766 0.11483160
v 0.25493889 0.33953354 0.19430868
v -0.07345686 0.57021883 0.03171423
v -0.13070645 -0.47329504 0.10671487
v 0.20616157 0.39577574 0.17911988
v 0.53779792 -0.03612594 0.06764064
v -0.23392651 0.47384821 0.08730964
v 0.20441912 0.29318168 0.22013973
v -0.53285215 -0.08876342 0.09038586
v 0.20783245 -0.49379317 0.08425225
v -0.55139020 0.03870576 0.05496662
v 0.18277996 -0.48256653 0.11117476
v 0.18937960 -0.20790937 0.23722121
v 0.18880117 0.08037628 0.29249659
v 0.54750079 0.03453309 0.06290622
v 0.14367141 0.06383465 0.30030940
v 0.34682978 -0.20165966 0.20110518
v -0.29570403 0.23102252 0.20788724
v -0.13596790 0.58273870 0.00000000
v 0.37634750 -0.26464975 0.17335653
v 0.50993885 -0.02921338 0.09903463
v 0.43139716 -0.23466667 0.14394287
v -0.43599715 -0.33531729 0.05224049
v 0.37488224 -0.04251617 0.18534907
v -0.44684673 0.24104546 0.12530248
v 0.18220212 -0.54795278 0.02840506
v 0.03381296 -0.55536080 0.05737729
v 0.30659027 -0.20517060 0.21351074
v 0.51592740 0.13346085 0.08831211
v -0.28069079 -0.45304569 0.09435931
v 0.38636409 -0.19143736 0.18133166
v 0.46019495 -0.27539247 0.09655549
v -0.35984618 0.37099783 0.10489510
v 0.01438357 -0.25593549 0.24347267
v 0.07582453 0.23539364 0.26512851
v 0.39957026 -0.41042433 0.03215502
v 0.38623139 0.45548278 0.00000000
v -0.41514957 -0.43175024 0.00000000
v 0.48766616 -0.34701583 0.00000000
v 0.24448305 -0.54638326 0.00000000
v -0.04987665 0.59509230 0.00000000
v 0.23687358 -0.07995850 0.25716727
v -0.18195706 0.52879386 0.05382886
v -0.16625253 0.35600088 0.18777829
v 0.16424957 -0.43517961 0.15871058
v -0.48135553 0.27948363 0.06418591
v -0.33042275 -0.45307937 0.05521092
v -0.49037166 0.24528820 0.07166305
v 0.32257396 0.48078948 0.02794169
v -0.17189209 -0.54184033 0.03317674
v -0.21291744 0.17724810 0.23955041
v -0.33459935 -0.14030296 0.19887238
v -0.07139311 0.48492816 0.14285204
v 0.03107702 0.34230715 0.20681298
v 0.01226058 0.21507437 0.28361279
v 0.10406001 0.36288974 0.19299914
v -0.25217047 0.54227424 0.00000000
v -0.34819371 -0.48669949 0.00000000
v 0.35370156 0.19393561 0.17199753
v -0.01996987 0.26923435 0.24692580
v -0.11193997 0.56951141 0.02547254
v -0.20386376 -0.09646766 0.25342547
v 0.05760192 -0.45213440 0.17410211
v -0.40649185 -0.15228241 0.17211987
v -0.37329625 0.03796631 0.18522359
v -0.00771439 -0.43543858 0.16739627
v 0.30180538 0.47622723 0.05123001
v -0.20092324 0.48381812 0.10274017
v -0.36703700 -0.20610279 0.15809574
v -0.05106457 0.22238838 0.27582261
v 0.51039135 -0.31181920 0.00000000
v 0.40823211 -0.30196388 0.13071313
v -0.36723914 0.21580599 0.19117042
v 0.41140964 -0.37603072 0.05645067
v 0.32983504 -0.38304452 0.10473890
v -0.55710652 -0.16257824 0.02352069
v 0.23255260 -0.14876691 0.23949948
v 0.36558084 0.15971498 0.18362371
v -0.16307624 0.08600255 0.28325521
v 0.41096736 0.01543826 0.18161526
v 0.35636162 0.45406709 0.02806320
v 0.34646854 0.31358181 0.14748914
v 0.01187848 0.43611396 0.17312453
v -0.20217775 -0.47241511 0.10432734
v 0.44744890 0.02913613 0.16145857
v -0.01534440 0.52763428 0.09497280
v -0.20210366 0.35344171 0.17019607
v 0.19487824 0.35948804 0.19821517
v 0.41432560 0.39952605 0.02909733
v 0.36150458 0.09841978 0.20060756
v 0.04303190 -0.59576648 0.00000000
v 0.47906468 -0.28713136 0.06124926
v 0.18490036 -0.10716624 0.27965412
v -0.16759812 0.48755085 0.11351126
v 0.01821193 0.28150576 0.23776711
v -0.14715859 0.05418098 0.28110314
v -0.14570785 -0.41173618 0.15600673
v 0.19961666 -0.36222754 0.16558838
v -0.37045895 0.43452139 0.03276703
v -0.34157784 0.32655488 0.15246346
v 0.30913832 -0.34255651 0.14456535
v 0.17863751 0.01793872 0.29116572
v -0.16992515 -0.51520077 0.06324327
v -0.45846258 -0.08232169 0.17211254
v -0.39805982 -0.11839807 0.18902972
v -0.32656726 -0.30264341 0.15507730
v 0.39111336 0.07501024 0.19337445
v 0.51081236 -0.06632220 0.08701068
v -0.45712209 0.38423386 0.00000000
v -0.08969717 0.59117037 0.00000000
v -0.59264344 -0.07474077 0.00000000
v 0.18854528 0.20603626 0.23956231
v 0.27996400 -0.02119144 0.23850394
v -0.20453438 -0.56193924 0.00000000
v -0.23840942 -0.08055188 0.23941406
v -0.21852366 -0.35155995 0.19001225
v -0.32912369 -0.26240782 0.15838948
v 0.12725649 0.46303742 0.12412367
v 0.48926892 0.12023501 0.11967632
v 0.07649016 -0.55083050 0.06387479
v -0.37697709 -0.02407261 0.19834310
v -0.19567630 -0.21693876 0.23810866
v 0.16057151 -0.19899686 0.24820474
v 0.02612247 -0.49299516 0.13611370
v -0.35902748 -0.42679878 0.05453306
v -0.47358152 0.04954873 0.12389456
v 0.26409803 0.24971435 0.20720388
v -0.21459809 0.38786977 0.14973424
v -0.51779130 -0.05116796 0.10925527
v 0.04451559 0.41833838 0.16676823
v 0.46223860 -0.13034154 0.12006827
v 0.34217998 -0.45792782 0.02871846
v -0.25280570 0.12619520 0.23370028
v -0.43577460 0.11659149 0.13940827
v 0.42841085 -0.34307781 0.07398497
v -0.08714614 0.45587646 0.16717766
v 0.30219745 0.45964936 0.07903276
v -0.41224117 -0.02279872 0.18575330
v 0.59738815 -0.02656682 0.00000000
v 0.32591991 -0.43182746 0.06176039
v 0.16753040 -0.57316428 0.00000000
v -0.45650802 0.35049009 0.03431755
v -0.08339666 -0.59179091 0.00000000
v -0.14042716 -0.56055530 0.02155598
v -0.53842467 -0.25937259 0.00000000
v 0.05036164 -0.25367261 0.26094804
v 0.56071734 0.14109447 0.02441909
v -0.49517166 0.07192759 0.09837021
v -0.48569917 0.32374082 0.02279303
v 0.06010799 0.56806345 0.03124384
v 0.04886448 -0.27588406 0.23170556
v 0.25147127 0.52114886 0.02640303
v 0.25140375 -0.32573771 0.16513017
v -0.00396850 -0.28082786 0.22658989
v -0.56891002 0.08936006 0.02416102
v -0.57406944 0.16454650 0.00000000
v 0.49646860 0.29196844 0.02419465
v 0.27274251 -0.53127831 0.00000000
v 0.58847582 -0.11705511 0.00000000
v 0.58847582 -0.11705511 0.00000000
v 0.56322896 -0.11288636 0.02635324
v 0.56322896 -0.11288636 0.02635324
v 0.51234609 -0.10341142 0.07501521
v 0.51234609 -0.10341142 0.07501521
v 0.53926277 -0.10845562 0.04946584
v 0.53926277 -0.10845562 0.04946584
v 0.49888572 0.33334476 0.00000000
v 0.49888572 0.33334476 0.00000000
v 0.47158200 0.31512281 0.03387354
v 0.47158200 0.31512281 0.03387354
v 0.45139414 -0.09188716 0.12557302
v 0.45139414 -0.09188716 0.12557302
v 0.48209921 -0.09768614 0.10059649
v 0.48209921 -0.09768614 0.10059649
v 0.44916999 0.29990831 0.05959119
v 0.44916999 0.29990831 0.05959119
v 0.42646837 0.28449175 0.08446784
v 0.42646837 0.28449175 0.08446784
v 0.41805664 -0.08562508 0.15009546
v 0.41805664 -0.08562508 0.15009546
v 0.37553370 0.24989195 0.13410352
v 0.37553370 0.24989195 0.13410352
v 0.40166181 0.26763627 0.10960796
v 0.40166181 0.26763627 0.10960796
v 0.34930420 -0.07263953 0.19365320
v 0.34930420 -0.07263953 0.19365320
v 0.38373014 -0.07914122 0.17267308
v 0.38373014 -0.07914122 0.17267308
v 0.34684095 0.23041433 0.15914837
v 0.34684095 0.23041433 0.15914837
v 0.33334476 -0.49888572 0.00000000
v 0.33334476 -0.49888572 0.00000000
v 0.30910447 -0.06507857 0.21548191
v 0.30910447 -0.06507857 0.21548191
v 0.30910447 -0.06507857 0.21548191
v 0.30910447 -0.06507857 0.21548191
v 0.31281817 0.20733176 0.18487439
v 0.31281817 0.20733176 0.18487439
v 0.29212159 0.06503782 0.22500455
v 0.29212159 0.06503782 0.22500455
v 0.28920069 -0.43587607 0.07355588
v 0.28920069 -0.43587607 0.07355588
v 0.30953640 -0.46558926 0.04047088
v 0.30953640 -0.46558926 0.04047088
v 0.28280562 0.10431235 0.22402436
v 0.28280562 0.10431235 0.22402436
v 0.26787859 -0.13830665 0.22097942
v 0.26787859 -0.13830665 0.22097942
v 0.28722978 -0.10546511 0.21927273
v 0.28722978 -0.10546511 0.21927273
v 0.27199954 0.14090239 0.22141024
v 0.27199954 0.14090239 0.22141024
v 0.26185542 0.17278443 0.21854991
v 0.26185542 0.17278443 0.21854991
v 0.26185542 0.17278443 0.21854991
v 0.26185542 0.17278443 0.21854991
v 0.28769961 0.19030121 0.20196329
v 0.28769961 0.19030121 0.20196329
v 0.25638902 -0.05524255 0.24583898
v 0.25638902 -0.05524255 0.24583898
v 0.24719223 -0.17133203 0.22160828
v 0.24719223 -0.17133203 0.22160828
v 0.23386067 -0.35480043 0.14939366
v 0.23386067 -0.35480043 0.14939366
v 0.20938723 0.13732691 0.25295132
v 0.20938723 0.13732691 0.25295132
v 0.23772183 0.15646650 0.23515160
v 0.23772183 0.15646650 0.23515160
v 0.23072481 0.19764674 0.22293524
v 0.23072481 0.19764674 0.22293524
v 0.20279977 0.21900170 0.22587331
v 0.20279977 0.21900170 0.22587331
v 0.17946132 -0.04093135 0.27369395
v 0.17946132 -0.04093135 0.27369395
v 0.21726750 -0.04798113 0.26212621
v 0.21726750 -0.04798113 0.26212621
v 0.19466677 -0.29738322 0.19165827
v 0.19466677 -0.29738322 0.19165827
v 0.21426953 -0.32609633 0.17133759
v 0.21426953 -0.32609633 0.17133759
v 0.17859456 0.11657529 0.26796058
v 0.17859456 0.11657529 0.26796058
v 0.17415600 -0.26735654 0.21100891
v 0.17415600 -0.26735654 0.21100891
v 0.17415600 -0.26735654 0.21100891
v 0.17415600 -0.26735654 0.21100891
v 0.13844995 -0.03331121 0.28234830
v 0.13844995 -0.03331121 0.28234830
v 0.11705511 0.58847582 0.00000000
v 0.11705511 0.58847582 0.00000000
v 0.10889823 -0.17224340 0.26555544
v 0.10889823 -0.17224340 0.26555544
v 0.11483874 -0.28332332 0.21654756
v 0.11483874 -0.28332332 0.21654756
v 0.11223466 0.27901456 0.22507951
v 0.11223466 0.27901456 0.22507951
v 0.11122047 0.56099516 0.02946597
v 0.11122047 0.56099516 0.02946597
v 0.10612373 0.53627408 0.05344394
v 0.10612373 0.53627408 0.05344394
v 0.10028554 0.50793988 0.08029734
v 0.10028554 0.50793988 0.08029734
v 0.08888341 0.45249325 0.12689592
v 0.08888341 0.45249325 0.12689592
v 0.09457993 0.48018870 0.10406030
v 0.09457993 0.48018870 0.10406030
v 0.08944770 -0.14397828 0.27484345
v 0.08944770 -0.14397828 0.27484345
v 0.07652583 0.04796923 0.28911063
v 0.07652583 0.04796923 0.28911063
v 0.08214827 0.41978380 0.15112376
v 0.08214827 0.41978380 0.15112376
v 0.06769414 0.34941980 0.19609252
v 0.06769414 0.34941980 0.19609252
v 0.07509685 0.38547015 0.17400806
v 0.07509685 0.38547015 0.17400806
v 0.05924906 0.30829886 0.21831481
v 0.05924906 0.30829886 0.21831481
v 0.05924906 0.30829886 0.21831481
v 0.05924906 0.30829886 0.21831481
v 0.08479892 0.29417783 0.22157677
v 0.08479892 0.29417783 0.22157677
v 0.09432865 -0.02520372 0.28723413
v 0.09432865 -0.02520372 0.28723413
v 0.05369503 -0.01778476 0.28883323
v 0.05369503 -0.01778476 0.28883323
v 0.03396152 0.18503265 0.27501392
v 0.03396152 0.18503265 0.27501392
v 0.01818895 0.10809048 0.28794089
v 0.01818895 0.10809048 0.28794089
v 0.02603714 0.14631972 0.28384486
v 0.02603714 0.14631972 0.28384486
v 0.01127403 0.07444169 0.28939939
v 0.01127403 0.07444169 0.28939939
v -0.01560295 0.29919043 0.22441114
v -0.01560295 0.29919043 0.22441114
v 0.01905397 0.30384290 0.22209346
v 0.01905397 0.30384290 0.22209346
v -0.02541005 -0.30985597 0.21249540
v -0.02541005 -0.30985597 0.21249540
v 0.03738611 0.02170912 0.28996867
v 0.03738611 0.02170912 0.28996867
v -0.00539751 -0.00689718 0.28887069
v 0.00399475 0.03899893 0.28984153
v 0.00399475 0.03899893 0.28984153
v -0.00539751 -0.00689718 0.28887069
v -0.00539751 -0.00689718 0.28887069
v -0.00539751 -0.00689718 0.28887069
v -0.00539751 -0.00689718 0.28887069
v -0.00539751 -0.00689718 0.28887069
v -0.00539751 -0.00689718 0.28887069
v -0.00539751 -0.00689718 0.28887069
v 0.02587868 -0.01266507 0.28897578
v 0.02587868 -0.01266507 0.28897578
v -0.02351216 -0.09999827 0.28330162
v -0.02351216 -0.09999827 0.28330162
v -0.01542005 -0.05804632 0.28669527
v -0.01542005 -0.05804632 0.28669527
v -0.07977096 -0.05618788 0.28387296
v -0.07977096 -0.05618788 0.28387296
v -0.04727518 -0.03466696 0.28682449
v -0.04727518 -0.03466696 0.28682449
v -0.06504017 -0.31508327 0.20779173
v -0.05853635 -0.28122762 0.22743459
v -0.05853635 -0.28122762 0.22743459
v -0.09650546 0.01251042 0.28510022
v -0.09650546 0.01251042 0.28510022
v -0.05633154 0.00391440 0.28763634
v -0.05633154 0.00391440 0.28763634
v -0.07427936 0.09918582 0.28452879
v -0.07427936 0.09918582 0.28452879
v -0.06504017 -0.31508327 0.20779173
v -0.06504017 -0.31508327 0.20779173
v -0.06504017 -0.31508327 0.20779173
v -0.08586590 -0.42444792 0.14213422
v -0.08586590 -0.42444792 0.14213422
v -0.09688760 0.13400617 0.27853915
v -0.09688760 0.13400617 0.27853915
v -0.11180378 -0.07740760 0.27914011
v -0.11180378 -0.07740760 0.27914011
v -0.10463807 -0.52348787 0.06311897
v -0.10463807 -0.52348787 0.06311897
v -0.11071783 -0.55556482 0.03321328
v -0.11071783 -0.55556482 0.03321328
v -0.11705511 -0.58847582 0.00000000
v -0.11705511 -0.58847582 0.00000000
v -0.13541389 0.27360669 0.22051904
v -0.13541389 0.27360669 0.22051904
v -0.14164908 -0.09718620 0.27284104
v -0.14164908 -0.09718620 0.27284104
v -0.17206669 0.02859430 0.27366787
v -0.17206669 0.02859430 0.27366787
v -0.13505171 0.02073493 0.28052920
v -0.13505171 0.02073493 0.28052920
v -0.17938893 0.26086593 0.21494071
v -0.17938893 0.26086593 0.21494071
v -0.17938893 0.26086593 0.21494071
v -0.17938893 0.26086593 0.21494071
v -0.20606209 -0.13979143 0.24663757
v -0.20606209 -0.13979143 0.24663757
v -0.17384247 -0.11853852 0.26203120
v -0.17384247 -0.11853852 0.26203120
v -0.20018071 0.29287609 0.19462915
v -0.20018071 0.29287609 0.19462915
v -0.21105097 0.03680719 0.26286608
v -0.21105097 0.03680719 0.26286608
v -0.22720678 0.19970039 0.22037382
v -0.22720678 0.19970039 0.22037382
v -0.20308162 0.23130098 0.21810444
v -0.20308162 0.23130098 0.21810444
v -0.21178795 -0.22383581 0.21377303
v -0.21178795 -0.22383581 0.21377303
v -0.23797490 -0.16081470 0.22778681
v -0.23797490 -0.16081470 0.22778681
v -0.23752075 0.35035113 0.15266126
v -0.23752075 0.35035113 0.15266126
v -0.21907087 0.32195038 0.17416961
v -0.21907087 0.32195038 0.17416961
v -0.25261679 0.16396831 0.22120583
v -0.25261679 0.16396831 0.22120583
v -0.25467902 0.37682933 0.12985034
v -0.25467902 0.37682933 0.12985034
v -0.28249323 0.05182253 0.22936705
v -0.28249323 0.05182253 0.22936705
v -0.24984126 0.04496212 0.24640957
v -0.24984126 0.04496212 0.24640957
v -0.26772919 -0.18041420 0.20732893
v -0.26772919 -0.18041420 0.20732893
v -0.26772919 -0.18041420 0.20732893
v -0.26772919 -0.18041420 0.20732893
v -0.23969364 -0.20249549 0.21087562
v -0.23969364 -0.20249549 0.21087562
v -0.28953433 -0.09901408 0.21536714
v -0.28953433 -0.09901408 0.21536714
v -0.27847791 -0.14256364 0.21172932
v -0.27847791 -0.14256364 0.21172932
v -0.27139866 0.40260822 0.10597790
v -0.27139866 0.40260822 0.10597790
v -0.28748956 0.42739570 0.08139905
v -0.28748956 0.42739570 0.08139905
v -0.29888567 -0.05512273 0.21699084
v -0.29888567 -0.05512273 0.21699084
v -0.30780816 -0.00187812 0.21572518
v -0.30780816 -0.00187812 0.21572518
v -0.31480426 0.05860887 0.21043049
v -0.30139762 -0.20269953 0.18564856
v -0.30139762 -0.20269953 0.18564856
v -0.31480426 0.05860887 0.21043049
v -0.31480426 0.05860887 0.21043049
v -0.31480426 0.05860887 0.21043049
v -0.33334476 0.49888572 0.00000000
v -0.33334476 0.49888572 0.00000000
v -0.31668523 0.47246897 0.03198845
v -0.31668523 0.47246897 0.03198845
v -0.30221054 0.45011234 0.05698010
v -0.30221054 0.45011234 0.05698010
v -0.38593897 0.07362247 0.16956212
v -0.38593897 0.07362247 0.16956212
v -0.35135713 0.06632444 0.19043817
v -0.35135713 0.06632444 0.19043817
v -0.38819063 -0.26017752 0.11751010
v -0.38819063 -0.26017752 0.11751010
v -0.42016077 0.08085062 0.14718984
v -0.42016077 0.08085062 0.14718984
v -0.41517809 -0.27804640 0.09166843
v -0.41517809 -0.27804640 0.09166843
v -0.44186240 -0.29571265 0.06500182
v -0.44186240 -0.29571265 0.06500182
v -0.49888572 -0.33334476 0.00000000
v -0.49888572 -0.33334476 0.00000000
v -0.46920216 -0.31380126 0.03500068
v -0.46920216 -0.31380126 0.03500068
v -0.51767302 0.10150043 0.06955557
v -0.51767302 0.10150043 0.06955557
v -0.58847582 0.11705511 0.00000000
v -0.58847582 0.11705511 0.00000000
v 0.05017767 0.26411894 0.24413139
v 0.05017767 0.26411894 0.24413139
v 0.04183414 0.22345904 0.26233873
v 0.04183414 0.22345904 0.26233873
v -0.16290924 0.23549636 0.23225233
v -0.16290924 0.23549636 0.23225233
v 0.15129252 -0.23395772 0.23404068
v 0.15129252 -0.23395772 0.23404068
v 0.12936091 -0.20200637 0.25207701
v 0.12936091 -0.20200637 0.25207701
v 0.14723188 0.09547733 0.27801105
v 0.14723188 0.09547733 0.27801105
v 0.11310738 0.07253937 0.28532237
v 0.11310738 0.07253937 0.28532237
v -0.12095267 0.17093843 0.26726121
v -0.12095267 0.17093843 0.26726121
v -0.14310533 0.20501624 0.25086018
v -0.14310533 0.20501624 0.25086018
v -0.05089436 -0.24160089 0.24717057
v -0.05089436 -0.24160089 0.24717057
v -0.04469470 -0.20956315 0.26051766
v -0.04469470 -0.20956315 0.26051766
v -0.05390479 0.06775816 0.28754905
v -0.05390479 0.06775816 0.28754905
v -0.03261882 0.03491528 0.28892836
v -0.03261882 0.03491528 0.28892836
v 0.06880937 -0.11406496 0.28095227
v 0.06880937 -0.11406496 0.28095227
v 0.04724394 -0.08285870 0.28523302
v 0.04724394 -0.08285870 0.28523302
v 0.02305381 -0.04791768 0.28775337
v 0.02305381 -0.04791768 0.28775337
v 0.25285009 -0.38259935 0.12522694
v 0.25285009 -0.38259935 0.12522694
v 0.27058932 -0.40859038 0.10072485
v 0.27058932 -0.40859038 0.10072485
v -0.45698717 0.08866553 0.12010714
v -0.45698717 0.08866553 0.12010714
v -0.48760098 0.09514164 0.09504683
v -0.48760098 0.09514164 0.09504683
v -0.07211883 -0.35219949 0.18762544
v -0.07211883 -0.35219949 0.18762544
v -0.07911734 -0.38894081 0.16551030
v -0.07911734 -0.38894081 0.16551030
v -0.29601455 0.09263597 0.21514452
v -0.29601455 0.09263597 0.21514452
v -0.27643245 0.12616682 0.21877407
v -0.27643245 0.12616682 0.21877407
v -0.09242262 -0.45908681 0.11691491
v -0.09242262 -0.45908681 0.11691491
v -0.09864695 -0.49190375 0.09012882
v -0.09864695 -0.49190375 0.09012882
v -0.18329881 -0.24391161 0.21503596
v -0.18329881 -0.24391161 0.21503596
v 0.29999116 0.02056522 0.22349592
v 0.29999116 0.02056522 0.22349592
v 0.30519721 -0.01871463 0.22064812
v 0.30519721 -0.01871463 0.22064812
v 0.22402528 -0.20385766 0.21939029
v 0.22402528 -0.20385766 0.21939029
v 0.19939350 -0.23620650 0.21579577
v 0.19939350 -0.23620650 0.21579577
v -0.05742440 0.29209468 0.22548915
v -0.05742440 0.29209468 0.22548915
v -0.09594586 0.28353983 0.22373997
v -0.09594586 0.28353983 0.22373997
v -0.11069092 -0.28986064 0.21278314
v -0.11069092 -0.28986064 0.21278314
v -0.15438260 -0.26307651 0.21503316
v -0.15438260 -0.26307651 0.21503316
v 0.01978297 -0.30282918 0.21620500
v 0.01978297 -0.30282918 0.21620500
v 0.06679513 -0.29400417 0.21768798
v 0.06679513 -0.29400417 0.21768798
v -0.33077210 -0.22215468 0.16451284
v -0.33077210 -0.22215468 0.16451284
v -0.36006826 -0.24155881 0.14167948
v -0.36006826 -0.24155881 0.14167948
v 0.14311634 0.25964552 0.22665344
v 0.14311634 0.25964552 0.22665344
v 0.17420749 0.23927803 0.22721149
v 0.17420749 0.23927803 0.22721149
v -0.54703337 0.10774694 0.04181641
v -0.54703337 0.10774694 0.04181641
v -0.56785458 0.11227905 0.02159024
v -0.56785458 0.11227905 0.02159024
v -0.03843864 -0.17732275 0.26976067
v -0.03843864 -0.17732275 0.26976067
v -0.03155136 -0.14169581 0.27741703
v -0.03155136 -0.14169581 0.27741703
f 658 1032 1040
f 480 747 568
f 546 741 126
f 566 59 508
f 611 741 680
f 459 747 105
f 51 396 694
f 757 465 761
f 872 413 29
f 545 656 25
f 952 940 950
f 523 712 11
f 521 615 12
f 750 575 930
f 798 740 4
f 420 4 634
f 730 533 3
f 944 596 942
f 753 584 461
f 695 633 22
f 875 555 410
f 696 627 449
f 30 449 627
f 648 819 49
f 627 857 819
f 412 915 975
f 599 974 986
f 793 556 400
f 665 400 556
f 405 707 903
f 699 456 194
f 662 606 1126
f 632 1127 1124
f 702 421 313
f 649 772 576
f 813 706 421
f 830 752 559
f 830 769 512
f 327 559 752
f 357 492 703
f 450 482 1213
f 520 384 700
f 585 726 782
f 389 700 560
f 792 776 681
f 455 395 427
f 794 387 670
f 794 390 387
f 393 938 613
f 561 391 717
f 932 511 569
f 383 831 829
f 569 829 409
f 372 409 829
f 775 534 567
f 739 756 356
f 365 675 586
f 882 476 347
f 840 315 563
f 1196 597 1194
f 315 401 475
f 291 475 790
f 697 297 563
f 877 851 286
f 698 467 636
f 641 770 193
f 193 770 704
f 173 570 196
f 630 1041 933
f 173 196 474
f 173 176 744
f 1041 630 1043
f 239 836 746
f 1048 901 716
f 125 574 144
f 901 574 137
f 901 1047 144
f 744 1045 173
f 744 488 1046
f 919 237 218
f 198 430 214
f 218 731 733
f 144 426 125
f 144 1054 426
f 488 744 176
f 237 437 214
f 214 211 667
f 157 642 839
f 1057 839 1058
f 667 837 179
f 437 229 211
f 229 437 682
f 211 209 199
f 211 214 437
f 157 1039 142
f 157 1065 1039
f 1061 1056 837
f 209 229 604
f 1284 604 240
f 209 1283 1078
f 1078 199 209
f 1060 878 1221
f 843 878 1079
f 1282 843 1079
f 1223 1070 169
f 169 158 818
f 1222 188 838
f 685 736 853
f 1071 838 191
f 188 1222 1221
f 843 736 188
f 184 175 1074
f 163 166 175
f 166 169 175
f 184 1073 182
f 1073 184 1074
f 162 184 182
f 184 163 175
f 1073 1076 182
f 182 1076 177
f 1077 1072 217
f 1085 1087 1086
f 1087 1085 177
f 1088 1077 204
f 1250 1096 1095
f 167 1250 1249
f 1100 190 1251
f 1104 1101 1093
f 207 1104 1103
f 1111 1105 1090
f 212 1111 1110
f 1112 1244 221
f 1244 1112 1091
f 1245 1088 204
f 1088 1245 1089
f 1085 1052 177
f 187 1084 1069
f 514 747 94
f 110 788 721
f 759 448 81
f 771 110 130
f 771 642 625
f 625 871 771
f 112 1298 1301
f 1299 122 1300
f 442 139 122
f 166 148 158
f 147 166 163
f 163 184 162
f 557 711 41
f 448 593 81
f 74 785 84
f 609 63 673
f 93 101 785
f 791 101 625
f 84 68 74
f 101 791 669
f 96 910 78
f 669 78 84
f 112 142 1298
f 108 1015 90
f 1015 108 1301
f 108 90 96
f 148 139 158
f 134 147 133
f 118 134 133
f 134 119 139
f 147 148 166
f 147 134 148
f 182 1052 162
f 153 163 162
f 766 497 43
f 766 666 711
f 961 766 967
f 683 425 75
f 964 43 583
f 84 425 68
f 75 78 910
f 86 1013 998
f 86 981 75
f 119 895 122
f 895 1012 1014
f 118 119 134
f 1008 118 1025
f 1232 153 162
f 1025 133 1231
f 153 1232 1231
f 153 1231 133
f 182 177 1052
f 958 20 483
f 523 767 16
f 601 966 965
f 491 842 447
f 532 433 20
f 965 972 491
f 441 447 32
f 842 980 56
f 56 688 543
f 861 749 45
f 995 543 688
f 543 995 989
f 91 1010 1009
f 91 85 988
f 1009 1024 97
f 1024 797 97
f 97 91 1009
f 799 1233 136
f 1053 136 1233
f 1230 799 797
f 767 433 28
f 634 812 577
f 45 24 32
f 24 45 37
f 64 873 749
f 71 64 543
f 44 873 71
f 103 85 97
f 85 983 988
f 103 797 111
f 87 111 100
f 136 131 121
f 797 799 127
f 127 799 121
f 902 812 16
f 420 634 577
f 863 868 31
f 653 19 424
f 52 863 434
f 863 619 868
f 44 55 67
f 890 44 434
f 982 55 71
f 494 1274 1277
f 55 494 67
f 439 103 87
f 439 1275 983
f 885 100 111
f 885 127 121
f 117 131 1031
f 117 885 121
f 131 136 187
f 804 6 463
f 8 533 789
f 891 957 946
f 38 23 619
f 954 18 540
f 42 540 23
f 42 963 540
f 494 60 52
f 60 1277 979
f 807 968 971
f 501 80 87
f 501 1019 1003
f 131 1067 1031
f 406 10 549
f 671 406 947
f 422 33 498
f 21 592 498
f 955 914 956
f 35 422 962
f 48 970 969
f 70 484 48
f 969 976 70
f 66 992 991
f 992 66 70
f 443 990 993
f 624 1018 1017
f 98 624 876
f 1017 1030 115
f 115 146 138
f 115 138 677
f 624 1017 115
f 167 146 1066
f 146 115 1030
f 1066 1068 167
f 146 167 149
f 21 587 805
f 464 629 815
f 14 875 637
f 34 814 628
f 46 814 471
f 22 805 464
f 800 814 46
f 800 811 61
f 46 62 800
f 77 1004 89
f 811 77 89
f 98 860 443
f 98 825 624
f 107 876 123
f 149 138 146
f 855 54 39
f 26 857 627
f 92 76 89
f 76 61 811
f 1004 77 991
f 89 1278 92
f 107 104 860
f 104 107 120
f 104 796 1279
f 104 1279 1005
f 626 123 135
f 154 138 149
f 154 677 138
f 149 1247 154
f 677 154 135
f 525 54 581
f 915 923 987
f 72 581 884
f 674 884 581
f 525 858 57
f 984 923 745
f 551 82 69
f 1252 72 651
f 72 1252 1255
f 651 936 1007
f 106 1281 1029
f 796 1227 1280
f 120 906 796
f 906 1227 796
f 1034 626 135
f 154 1247 1051
f 149 1249 1247
f 795 793 639
f 88 639 793
f 714 986 985
f 639 605 99
f 109 99 686
f 881 686 1006
f 686 605 1253
f 686 881 109
f 116 1022 1021
f 1026 128 1021
f 1026 1036 128
f 1226 503 143
f 156 143 503
f 150 1229 1035
f 150 156 503
f 143 156 165
f 1035 1050 161
f 181 171 1246
f 190 181 1248
f 181 1246 1248
f 402 639 88
f 536 114 828
f 466 152 132
f 635 405 600
f 145 828 124
f 124 129 145
f 522 846 200
f 178 672 607
f 129 672 145
f 151 159 168
f 168 186 183
f 165 1293 1037
f 180 192 205
f 181 768 171
f 174 590 444
f 160 155 140
f 444 522 174
f 201 846 178
f 607 168 183
f 1292 168 159
f 493 1291 1083
f 1291 493 186
f 189 170 180
f 937 1082 1290
f 929 170 189
f 189 180 205
f 606 668 1125
f 200 419 197
f 765 668 460
f 419 495 735
f 201 724 849
f 495 213 1263
f 724 213 495
f 210 202 493
f 210 1083 1115
f 504 1239 1108
f 1239 504 203
f 1308 192 185
f 203 1241 1239
f 1307 205 192
f 1100 1099 190
f 632 1124 266
f 1269 787 1270
f 477 787 258
f 284 258 272
f 490 1118 252
f 252 246 446
f 446 880 252
f 246 1262 1261
f 241 485 246
f 446 246 485
f 241 1261 1116
f 1238 645 228
f 224 1238 1240
f 224 1240 1306
f 1306 235 224
f 235 1306 1309
f 216 1309 1098
f 1098 1101 207
f 489 294 272
f 306 288 899
f 268 489 446
f 268 288 489
f 306 899 314
f 294 489 288
f 275 268 485
f 899 275 295
f 275 267 287
f 287 1289 290
f 645 254 228
f 277 1288 254
f 254 1287 228
f 645 259 254
f 224 235 621
f 235 236 248
f 621 235 248
f 207 216 1098
f 326 580 528
f 432 644 440
f 492 908 703
f 317 326 528
f 306 314 326
f 440 580 778
f 287 295 275
f 302 322 435
f 1289 287 267
f 290 1273 1154
f 1154 309 290
f 302 287 290
f 281 905 277
f 905 1155 1272
f 277 1272 1288
f 259 621 261
f 261 248 260
f 261 260 280
f 244 236 233
f 233 236 216
f 216 207 233
f 1210 806 530
f 806 370 734
f 440 778 889
f 541 889 331
f 806 734 360
f 541 331 435
f 1205 718 341
f 311 322 309
f 900 1294 1297
f 311 1174 1173
f 1173 1189 311
f 311 500 322
f 738 1175 1155
f 280 281 261
f 1143 738 280
f 280 1144 1143
f 280 260 1144
f 233 1122 244
f 244 1122 1132
f 1132 260 244
f 1103 1122 233
f 571 760 366
f 547 1211 379
f 553 655 571
f 553 571 366
f 1204 760 1209
f 847 553 354
f 1204 366 760
f 835 325 335
f 350 548 835
f 548 1295 1190
f 335 1178 1177
f 1178 335 325
f 308 289 898
f 308 312 1176
f 1157 1179 1171
f 1142 845 289
f 293 845 271
f 271 1145 1133
f 250 271 1133
f 250 1133 1123
f 1102 230 1123
f 243 212 1110
f 381 537 445
f 681 380 618
f 388 389 560
f 537 380 445
f 888 678 368
f 329 835 335
f 678 345 342
f 1177 1184 329
f 345 329 342
f 312 1185 1176
f 898 289 845
f 312 898 305
f 250 230 243
f 212 230 1102
f 445 776 381
f 912 618 515
f 887 618 380
f 378 373 588
f 912 470 664
f 436 921 364
f 436 678 351
f 1184 342 329
f 1184 1186 333
f 1186 344 333
f 319 1185 312
f 293 663 305
f 250 622 264
f 250 264 271
f 664 387 390
f 670 479 794
f 479 670 1216
f 1302 938 479
f 676 588 373
f 470 407 387
f 373 921 676
f 909 539 1256
f 355 344 848
f 848 367 355
f 848 1202 1201
f 1202 848 340
f 320 300 1168
f 320 1188 1187
f 616 719 300
f 1148 719 282
f 1168 1167 320
f 1135 1148 282
f 1110 1136 243
f 622 1136 1135
f 1136 622 243
f 212 243 230
f 732 723 562
f 1258 723 1217
f 1257 784 1258
f 527 764 361
f 623 377 917
f 462 376 374
f 352 363 623
f 917 1207 362
f 332 755 348
f 336 1264 1267
f 1264 336 332
f 296 1169 1149
f 285 301 296
f 301 316 296
f 879 1134 1137
f 274 862 285
f 249 1137 1109
f 221 249 1109
f 579 808 758
f 831 720 829
f 829 720 372
f 764 363 353
f 361 376 527
f 764 527 363
f 352 755 353
f 856 339 478
f 353 856 764
f 353 755 338
f 339 338 324
f 338 336 323
f 323 1163 603
f 1266 916 1162
f 657 257 276
f 279 657 276
f 292 301 285
f 257 862 253
f 534 775 358
f 359 654 758
f 356 756 567
f 358 343 534
f 321 538 334
f 339 801 478
f 801 324 603
f 1163 323 1267
f 1150 307 603
f 279 438 292
f 834 1162 438
f 657 292 285
f 257 657 862
f 257 234 262
f 231 253 249
f 253 231 234
f 534 816 356
f 739 598 476
f 476 1197 347
f 330 318 589
f 526 328 762
f 1182 598 526
f 318 330 538
f 303 318 538
f 318 1159 589
f 589 486 330
f 307 321 801
f 1160 303 1146
f 554 1153 1141
f 554 1141 1146
f 834 620 278
f 278 620 1237
f 1152 1225 1140
f 278 1152 1151
f 262 263 276
f 276 620 279
f 231 1114 234
f 1114 1120 234
f 231 1243 1114
f 1243 231 221
f 524 591 299
f 310 1199 1183
f 911 496 299
f 273 911 428
f 496 524 299
f 827 544 428
f 1161 283 870
f 269 827 691
f 283 1147 270
f 255 1224 1236
f 1224 1131 1139
f 247 227 242
f 227 238 222
f 247 242 255
f 238 1235 1121
f 1113 217 226
f 743 226 217
f 1121 222 238
f 204 1242 1245
f 1242 217 1113
f 650 265 877
f 251 763 544
f 919 652 237
f 535 763 256
f 245 682 269
f 270 240 691
f 682 693 251
f 604 1284 1283
f 604 245 240
f 232 255 242
f 232 1282 1285
f 232 1131 255
f 242 206 232
f 217 204 1077
f 208 222 226
f 864 832 396
f 514 920 568
f 397 711 666
f 802 844 893
f 475 291 563
f 88 714 402
f 460 668 403
f 462 386 732
f 391 542 404
f 172 600 903
f 547 379 640
f 387 407 670
f 571 408 760
f 637 696 822
f 638 388 481
f 411 708 821
f 25 748 413
f 660 725 414
f 415 126 611
f 385 928 418
f 583 683 973
f 53 865 497
f 901 144 574
f 1253 605 1254
f 219 419 735
f 419 849 495
f 852 553 366
f 737 702 576
f 752 813 327
f 498 914 422
f 69 50 65
f 376 808 374
f 19 653 17
f 284 304 867
f 777 294 429
f 746 467 698
f 1058 426 1054
f 531 754 392
f 427 395 646
f 881 552 109
f 827 283 691
f 430 866 731
f 218 237 430
f 608 334 713
f 378 364 373
f 328 431 816
f 816 534 343
f 492 357 734
f 11 20 433
f 433 532 28
f 44 890 873
f 61 65 47
f 79 76 92
f 921 904 355
f 801 603 307
f 608 478 334
f 853 242 227
f 325 548 1190
f 210 213 202
f 1057 157 839
f 916 301 438
f 1162 834 1151
f 270 691 283
f 128 141 116
f 165 156 929
f 70 48 969
f 860 104 1005
f 439 80 1275
f 341 718 440
f 767 28 441
f 441 491 447
f 1012 895 102
f 1151 834 278
f 319 320 1187
f 312 308 898
f 156 150 170
f 444 152 466
f 904 333 344
f 209 211 229
f 94 519 759
f 281 277 259
f 817 203 504
f 375 655 537
f 558 922 1
f 533 730 922
f 880 490 252
f 1220 164 1064
f 308 1179 1157
f 994 91 988
f 102 1008 1011
f 1225 278 1237
f 1224 255 1131
f 1003 896 501
f 1226 143 1027
f 160 846 155
f 595 40 57
f 191 1075 1071
f 262 1120 1234
f 1084 187 1053
f 1135 282 622
f 1149 274 296
f 135 1051 1034
f 1241 205 1307
f 1243 221 1244
f 1242 204 217
f 167 1249 149
f 1069 1067 187
f 701 925 369
f 820 864 774
f 809 924 780
f 631 802 453
f 513 740 454
f 393 455 427
f 662 926 456
f 313 783 457
f 480 105 747
f 617 137 459
f 197 460 722
f 660 549 461
f 13 753 461
f 376 462 562
f 239 265 650
f 73 465 757
f 673 593 74
f 132 536 466
f 444 155 522
f 381 375 537
f 384 408 659
f 775 579 654
f 463 469 15
f 709 813 304
f 387 664 470
f 429 317 777
f 349 359 550
f 359 758 550
f 378 887 364
f 69 65 551
f 95 551 79
f 54 472 39
f 812 750 473
f 51 564 774
f 176 474 690
f 529 220 869
f 310 475 401
f 476 1198 1197
f 886 477 737
f 856 349 550
f 693 652 251
f 871 788 110
f 105 480 741
f 792 388 776
f 141 129 552
f 159 128 1036
f 386 831 647
f 350 835 345
f 79 106 95
f 333 904 351
f 66 62 484
f 267 485 241
f 485 268 446
f 861 45 447
f 1164 762 589
f 692 588 487
f 367 539 487
f 578 176 690
f 767 441 32
f 19 31 868
f 489 272 880
f 294 288 429
f 490 258 787
f 956 671 947
f 957 18 954
f 601 441 28
f 703 337 644
f 90 1015 1013
f 493 183 186
f 1267 323 336
f 1042 658 1040
f 630 1045 1043
f 335 1177 329
f 309 1154 1174
f 159 1036 1292
f 1281 92 1278
f 66 991 77
f 52 67 494
f 837 1081 1061
f 307 1150 1153
f 1286 267 241
f 839 130 426
f 125 130 110
f 50 47 65
f 208 215 222
f 163 153 147
f 668 606 403
f 201 849 200
f 496 273 535
f 557 53 497
f 587 498 33
f 114 639 99
f 80 501 896
f 301 292 438
f 299 1181 1165
f 120 107 123
f 281 259 261
f 170 929 156
f 318 1160 1159
f 499 660 596
f 499 948 406
f 936 651 82
f 1206 539 367
f 970 35 962
f 971 42 807
f 900 541 500
f 818 442 164
f 1220 1223 818
f 1012 1011 997
f 895 119 102
f 206 853 736
f 100 501 87
f 281 280 738
f 1169 316 1166
f 1002 825 502
f 825 443 502
f 277 254 259
f 626 120 123
f 503 1226 1229
f 228 1107 1238
f 504 1108 937
f 642 157 142
f 106 1029 1020
f 348 1203 332
f 865 68 58
f 425 683 58
f 1260 210 1115
f 635 600 729
f 1024 1230 797
f 191 743 1075
f 1234 263 262
f 226 1121 1113
f 719 1148 1168
f 1246 171 1050
f 3 943 730
f 824 786 641
f 172 643 874
f 506 392 646
f 854 14 637
f 680 935 508
f 315 510 597
f 512 313 706
f 513 454 2
f 575 750 634
f 826 697 563
f 694 920 757
f 648 30 819
f 555 918 410
f 588 515 378
f 701 756 675
f 41 564 516
f 903 590 517
f 810 903 517
f 152 518 132
f 113 721 519
f 708 687 821
f 7 521 712
f 174 907 722
f 409 372 468
f 576 702 649
f 833 772 417
f 160 145 672
f 145 140 828
f 591 790 310
f 744 1049 1045
f 525 40 472
f 565 195 403
f 787 477 266
f 526 1180 1182
f 623 363 527
f 529 636 467
f 869 474 196
f 432 530 360
f 530 1208 1210
f 792 912 531
f 392 481 531
f 20 958 960
f 966 601 532
f 3 8 949
f 872 774 564
f 775 567 468
f 376 361 808
f 805 36 464
f 673 63 465
f 535 273 763
f 535 286 496
f 536 140 466
f 536 132 795
f 241 246 1261
f 538 713 334
f 62 66 77
f 108 96 791
f 1220 818 164
f 825 1002 1018
f 17 24 27
f 18 582 540
f 1229 150 503
f 368 887 371
f 1241 203 205
f 745 72 1255
f 1216 931 1259
f 404 723 732
f 595 915 49
f 113 459 137
f 1232 162 1052
f 322 500 541
f 543 64 56
f 543 989 71
f 273 428 544
f 846 201 200
f 353 338 339
f 948 499 944
f 8 891 946
f 545 959 953
f 397 545 25
f 105 617 459
f 314 295 435
f 401 1199 310
f 401 597 1196
f 226 743 208
f 913 1059 1055
f 578 731 866
f 1178 325 1170
f 1179 308 1176
f 345 888 350
f 45 749 37
f 385 547 640
f 1211 547 1215
f 1012 102 1011
f 1013 86 90
f 354 852 548
f 1083 210 493
f 1108 1082 937
f 992 70 976
f 443 993 502
f 1201 1206 367
f 980 842 972
f 683 981 973
f 270 1138 1130
f 1038 164 442
f 1265 316 1266
f 1264 332 1193
f 1268 735 1119
f 216 236 235
f 921 436 904
f 1160 318 303
f 870 1158 1161
f 1273 290 1289
f 1184 333 342
f 319 1187 1185
f 423 36 803
f 275 899 268
f 80 896 1275
f 1274 55 982
f 499 549 660
f 549 13 461
f 1150 603 1163
f 279 292 657
f 91 97 85
f 1283 209 604
f 432 440 718
f 776 388 560
f 213 210 1260
f 606 662 225
f 656 545 953
f 349 856 478
f 52 38 863
f 320 319 300
f 65 79 551
f 135 154 1051
f 1234 1237 263
f 1236 247 255
f 685 215 208
f 215 853 227
f 471 484 46
f 285 296 274
f 124 552 129
f 1087 177 1076
f 469 463 424
f 424 868 469
f 554 1146 303
f 429 306 317
f 430 198 866
f 753 875 14
f 705 594 556
f 400 715 83
f 516 557 41
f 105 741 546
f 658 546 126
f 109 828 99
f 789 684 6
f 706 830 512
f 700 659 560
f 265 698 751
f 650 535 256
f 483 11 12
f 200 907 522
f 24 37 27
f 949 945 3
f 561 383 728
f 377 376 562
f 742 751 826
f 41 397 564
f 566 850 832
f 566 480 568
f 984 745 1255
f 786 636 223
f 857 918 472
f 567 534 356
f 747 514 568
f 689 304 421
f 925 932 409
f 569 511 383
f 710 770 641
f 408 375 659
f 371 847 888
f 481 572 638
f 431 739 356
f 321 554 303
f 573 220 733
f 113 574 721
f 575 513 2
f 886 833 632
f 313 457 649
f 17 902 661
f 653 9 577
f 789 804 891
f 913 578 866
f 579 775 372
f 445 681 776
f 580 326 778
f 116 881 1022
f 1023 95 1020
f 884 674 69
f 651 884 82
f 18 15 582
f 23 540 582
f 389 859 585
f 585 782 520
f 586 347 505
f 498 587 21
f 34 805 587
f 588 676 487
f 1159 1164 589
f 762 486 589
f 174 517 590
f 370 806 482
f 734 370 687
f 1181 299 591
f 341 1297 1205
f 273 496 911
f 633 10 592
f 306 326 317
f 407 692 909
f 593 673 81
f 593 93 785
f 707 152 590
f 819 595 49
f 595 57 923
f 668 765 1271
f 1270 266 1124
f 596 944 499
f 597 401 315
f 284 294 777
f 598 1182 1198
f 526 431 328
f 599 715 509
f 600 781 729
f 600 405 903
f 601 965 491
f 1212 1215 602
f 958 483 952
f 55 1274 494
f 323 324 338
f 89 1004 1278
f 604 229 245
f 404 1303 1217
f 842 56 861
f 328 343 486
f 35 48 471
f 402 605 639
f 272 258 490
f 258 284 867
f 606 225 403
f 606 1125 1126
f 309 302 290
f 540 963 954
f 295 314 899
f 426 1058 839
f 1059 913 179
f 199 1078 1081
f 1174 311 309
f 1175 1156 1172
f 1152 278 1225
f 1153 554 307
f 1118 490 1269
f 1262 246 252
f 1280 1227 1028
f 1186 340 344
f 183 773 607
f 607 151 168
f 1116 1286 241
f 346 608 713
f 608 349 478
f 68 865 609
f 74 68 609
f 552 124 109
f 362 1207 1200
f 1292 186 168
f 1293 934 1290
f 179 913 198
f 1001 981 86
f 6 610 463
f 9 610 420
f 269 251 544
f 94 73 514
f 413 872 25
f 450 612 370
f 614 933 1041
f 616 312 305
f 616 300 319
f 836 218 733
f 239 919 836
f 617 546 398
f 137 617 716
f 227 222 215
f 238 247 1235
f 618 378 515
f 289 308 1157
f 582 619 23
f 403 195 460
f 620 263 1237
f 968 807 60
f 862 879 253
f 118 102 119
f 1168 300 719
f 316 301 916
f 621 248 261
f 622 250 243
f 161 170 150
f 352 623 362
f 623 527 377
f 1016 1019 100
f 1016 100 117
f 624 115 876
f 108 791 112
f 1103 233 207
f 626 1034 1228
f 27 890 31
f 890 37 873
f 627 819 30
f 40 857 472
f 61 628 800
f 814 34 587
f 423 855 36
f 629 39 555
f 832 727 59
f 570 933 770
f 630 173 1045
f 399 786 844
f 631 453 697
f 920 850 568
f 266 886 632
f 633 21 22
f 4 420 798
f 924 809 635
f 405 635 594
f 925 468 369
f 451 382 932
f 399 698 636
f 14 854 507
f 452 859 638
f 790 851 291
f 512 841 783
f 769 830 908
f 408 384 379
f 223 710 641
f 130 839 642
f 315 475 563
f 714 599 986
f 643 172 810
f 172 874 781
f 644 432 357
f 644 580 440
f 645 621 259
f 94 113 519
f 646 392 754
f 647 717 386
f 383 561 647
f 648 49 412
f 145 160 140
f 1195 347 1197
f 649 298 772
f 265 239 746
f 324 323 603
f 651 1007 1252
f 73 94 759
f 966 532 960
f 497 766 711
f 652 919 256
f 652 256 763
f 1180 526 762
f 1181 591 1183
f 424 9 653
f 653 577 902
f 346 654 359
f 654 579 758
f 371 537 655
f 748 25 656
f 656 953 951
f 847 371 655
f 553 847 655
f 546 658 398
f 560 381 776
f 1208 530 718
f 1209 379 1211
f 5 461 584
f 596 660 414
f 812 902 577
f 661 24 17
f 378 618 887
f 928 385 520
f 1144 260 1132
f 1145 271 845
f 722 517 174
f 565 810 195
f 662 1126 1129
f 562 784 377
f 719 663 282
f 515 470 912
f 664 390 754
f 665 780 823
f 83 714 88
f 666 961 959
f 545 666 959
f 559 337 703
f 901 137 716
f 398 1042 1044
f 667 179 198
f 667 211 199
f 619 582 469
f 668 1271 1125
f 849 419 200
f 669 84 785
f 96 669 791
f 931 1216 670
f 671 956 914
f 402 985 1254
f 1276 896 978
f 1277 60 494
f 79 92 106
f 811 800 62
f 151 607 672
f 672 178 160
f 442 158 139
f 442 1299 1038
f 500 311 1189
f 53 609 865
f 673 465 81
f 63 609 53
f 423 674 54
f 1289 267 1286
f 983 85 439
f 71 989 982
f 713 883 346
f 486 343 883
f 1284 240 1130
f 882 586 675
f 365 701 675
f 990 860 1005
f 946 949 8
f 143 165 1037
f 128 159 141
f 761 465 63
f 761 694 757
f 1263 213 1260
f 1262 252 1118
f 1294 500 1189
f 676 367 487
f 889 541 900
f 758 361 550
f 677 135 123
f 876 115 677
f 499 406 549
f 502 977 1002
f 342 351 678
f 678 436 368
f 679 561 728
f 510 1194 597
f 380 681 445
f 682 251 269
f 682 245 229
f 683 583 58
f 683 75 981
f 684 798 6
f 533 558 684
f 574 125 721
f 319 312 616
f 838 736 685
f 523 433 767
f 11 483 20
f 593 448 93
f 686 1253 1006
f 303 538 321
f 33 422 35
f 109 124 828
f 843 1282 206
f 687 612 821
f 708 492 687
f 276 263 620
f 688 1000 999
f 421 702 689
f 689 867 304
f 784 917 377
f 690 474 573
f 755 332 336
f 955 422 914
f 331 326 314
f 169 1070 175
f 141 552 116
f 691 245 269
f 487 909 692
f 1149 1134 274
f 237 214 430
f 22 815 695
f 875 753 695
f 4 740 513
f 183 493 202
f 637 822 854
f 346 358 654
f 425 78 75
f 68 425 58
f 697 826 631
f 297 697 453
f 698 399 751
f 565 225 699
f 700 384 659
f 700 585 520
f 925 892 451
f 701 369 756
f 702 313 649
f 337 559 327
f 703 644 357
f 704 933 614
f 793 795 705
f 706 313 421
f 813 752 706
f 788 871 93
f 9 420 577
f 518 405 594
f 708 411 769
f 304 777 709
f 709 327 813
f 570 710 196
f 529 223 636
f 564 51 516
f 774 872 29
f 711 557 497
f 938 1219 613
f 7 473 750
f 608 346 359
f 714 985 402
f 83 88 400
f 715 665 823
f 526 598 431
f 940 12 458
f 518 152 707
f 249 879 1137
f 310 1183 591
f 239 256 919
f 716 1044 1048
f 404 717 391
f 717 647 561
f 521 779 615
f 28 532 601
f 658 1042 398
f 1214 482 806
f 1215 547 602
f 718 1205 1208
f 873 64 71
f 581 54 674
f 72 858 581
f 720 579 372
f 574 113 137
f 721 125 110
f 488 1055 1046
f 583 973 964
f 264 663 293
f 331 314 435
f 459 94 747
f 537 371 380
f 192 180 768
f 936 551 95
f 1010 994 996
f 995 688 999
f 460 197 219
f 852 1296 1295
f 354 553 852
f 3 533 8
f 39 629 855
f 472 918 39
f 1166 1265 1191
f 155 444 466
f 723 404 1217
f 723 1258 784
f 1298 142 1039
f 792 681 912
f 566 935 480
f 1268 1271 765
f 765 460 219
f 284 272 294
f 153 133 147
f 724 201 773
f 724 202 213
f 725 660 461
f 726 585 859
f 894 572 392
f 832 864 727
f 728 383 511
f 649 457 298
f 385 418 602
f 351 342 333
f 36 34 803
f 14 507 584
f 32 447 45
f 33 35 471
f 422 955 962
f 289 1157 1142
f 528 709 317
f 731 218 430
f 731 690 733
f 732 562 462
f 732 386 717
f 733 690 573
f 733 220 836
f 734 687 492
f 360 734 357
f 495 1119 735
f 1268 765 735
f 736 838 188
f 225 565 403
f 248 244 260
f 231 249 221
f 576 886 737
f 867 689 737
f 1155 905 738
f 739 431 598
f 476 882 739
f 794 427 390
f 511 932 382
f 740 1 454
f 740 798 684
f 139 148 134
f 571 655 375
f 741 480 935
f 826 291 742
f 877 286 650
f 398 716 617
f 817 189 203
f 743 1072 1075
f 743 191 208
f 117 1031 1016
f 363 352 353
f 159 151 141
f 315 840 510
f 517 722 195
f 833 927 632
f 798 610 6
f 355 367 676
f 32 661 767
f 176 173 474
f 746 698 265
f 1131 232 1285
f 516 51 694
f 94 459 113
f 484 70 66
f 748 656 951
f 873 37 749
f 64 861 56
f 400 665 715
f 473 7 712
f 575 634 4
f 631 399 844
f 751 742 265
f 830 706 752
f 753 14 584
f 390 646 754
f 754 531 664
f 369 567 756
f 605 686 99
f 920 694 396
f 757 514 73
f 803 34 628
f 519 448 759
f 366 1204 1296
f 379 760 408
f 608 359 349
f 1198 476 598
f 1199 401 1196
f 761 516 694
f 557 63 53
f 762 1164 1180
f 762 328 486
f 599 714 83
f 987 923 984
f 117 121 131
f 618 912 681
f 515 692 470
f 763 273 544
f 763 251 652
f 1302 479 1216
f 570 173 630
f 764 550 361
f 699 643 565
f 219 735 765
f 609 673 74
f 205 203 189
f 766 961 666
f 766 43 967
f 661 32 24
f 767 661 16
f 768 185 192
f 161 180 170
f 530 432 718
f 769 908 708
f 769 411 841
f 770 933 704
f 871 625 101
f 771 130 642
f 868 424 19
f 520 640 384
f 772 833 576
f 772 897 417
f 578 488 176
f 374 386 462
f 720 831 374
f 545 397 666
f 547 385 602
f 50 69 674
f 423 50 674
f 178 607 773
f 85 103 439
f 10 671 592
f 775 468 372
f 775 654 358
f 625 642 142
f 1300 122 895
f 1301 108 112
f 627 696 26
f 381 560 659
f 258 867 477
f 10 633 13
f 592 21 633
f 777 304 284
f 777 317 709
f 433 523 11
f 67 434 44
f 38 52 807
f 1054 144 1047
f 779 7 416
f 665 809 780
f 781 600 172
f 596 414 942
f 569 383 829
f 584 507 5
f 638 394 452
f 1 740 558
f 783 313 512
f 59 566 832
f 646 395 506
f 151 129 141
f 784 1257 917
f 784 562 723
f 669 785 101
f 785 74 593
f 492 708 908
f 270 1147 1138
f 786 223 641
f 787 1269 490
f 787 266 1270
f 629 555 815
f 519 788 448
f 788 93 448
f 789 533 684
f 6 804 789
f 437 693 682
f 435 322 541
f 322 302 309
f 790 524 851
f 360 357 432
f 76 79 65
f 702 737 689
f 791 625 112
f 669 96 78
f 792 531 481
f 792 481 388
f 594 635 809
f 528 337 327
f 652 693 237
f 793 400 88
f 794 479 393
f 427 794 393
f 795 639 114
f 795 132 705
f 645 224 621
f 161 150 1035
f 180 161 768
f 796 1280 1279
f 104 120 796
f 610 9 463
f 187 136 1053
f 376 377 527
f 797 127 111
f 797 103 97
f 719 616 663
f 152 444 590
f 84 78 425
f 398 1044 716
f 798 420 610
f 267 275 485
f 362 348 352
f 1066 146 1030
f 1067 131 187
f 227 247 238
f 799 136 121
f 217 1072 743
f 62 46 484
f 61 47 628
f 397 41 711
f 1294 900 500
f 366 1296 852
f 1158 911 1165
f 321 307 554
f 410 26 696
f 802 631 844
f 122 139 119
f 688 56 980
f 132 518 705
f 803 628 47
f 803 50 423
f 804 463 15
f 18 891 804
f 20 960 532
f 186 1292 1291
f 67 52 434
f 390 427 646
f 805 34 36
f 805 22 21
f 1001 86 998
f 806 1210 1214
f 806 360 530
f 42 38 807
f 807 52 60
f 19 27 31
f 19 17 27
f 808 579 720
f 808 361 758
f 296 316 1169
f 133 1025 118
f 1228 906 626
f 809 665 556
f 810 517 195
f 810 565 643
f 408 571 375
f 222 1121 226
f 738 1156 1175
f 171 161 1050
f 171 768 161
f 61 76 65
f 811 62 77
f 178 773 201
f 813 421 304
f 557 761 63
f 814 800 628
f 814 33 471
f 815 555 875
f 815 22 464
f 1055 488 913
f 816 343 328
f 816 431 356
f 189 817 929
f 933 570 630
f 456 699 225
f 456 225 662
f 818 158 442
f 818 1223 169
f 724 773 202
f 915 595 923
f 888 368 371
f 659 375 381
f 638 572 394
f 820 774 29
f 822 696 449
f 542 939 1218
f 824 641 193
f 825 1018 624
f 825 98 443
f 580 337 528
f 81 73 759
f 223 529 710
f 352 348 755
f 826 563 291
f 826 751 631
f 60 979 968
f 827 269 544
f 827 870 283
f 391 561 679
f 404 732 717
f 542 1303 404
f 96 90 910
f 332 1203 1193
f 638 389 388
f 640 379 384
f 828 114 99
f 347 1195 505
f 830 559 908
f 831 383 647
f 831 386 374
f 200 197 907
f 858 745 57
f 927 1128 1127
f 712 12 11
f 288 306 429
f 247 1236 1235
f 1023 936 95
f 439 87 80
f 87 103 111
f 834 279 620
f 406 671 10
f 406 948 947
f 613 455 393
f 105 546 617
f 835 329 345
f 195 722 460
f 801 339 324
f 836 220 746
f 1056 179 837
f 837 667 199
f 838 685 191
f 838 1071 1222
f 264 293 271
f 264 282 663
f 1020 95 106
f 691 240 245
f 713 538 330
f 909 487 539
f 407 470 692
f 232 206 1282
f 1010 91 994
f 840 563 297
f 769 841 512
f 842 491 972
f 287 302 295
f 181 185 768
f 473 523 16
f 473 16 812
f 582 15 469
f 15 18 804
f 705 556 793
f 368 436 364
f 843 188 878
f 843 206 736
f 40 595 819
f 525 57 40
f 893 844 786
f 882 675 739
f 756 739 675
f 845 293 898
f 846 160 178
f 846 522 155
f 100 1019 501
f 847 354 350
f 848 344 340
f 848 1201 367
f 592 914 498
f 850 396 832
f 850 566 568
f 158 169 166
f 47 50 803
f 276 257 262
f 851 742 291
f 699 194 643
f 567 369 468
f 605 402 1254
f 524 286 851
f 286 535 650
f 157 1057 1062
f 13 695 753
f 539 1206 1256
f 852 1295 548
f 744 1046 1049
f 336 338 755
f 853 215 685
f 853 206 242
f 557 516 761
f 405 518 707
f 855 464 36
f 855 423 54
f 856 353 339
f 856 550 764
f 316 1265 1166
f 916 1266 316
f 214 667 198
f 92 1281 106
f 40 819 857
f 857 26 918
f 305 663 616
f 858 72 745
f 525 581 858
f 572 894 394
f 859 389 638
f 859 452 726
f 788 519 721
f 709 528 327
f 860 990 443
f 861 447 842
f 861 64 749
f 862 274 879
f 862 657 285
f 362 1200 348
f 575 4 513
f 634 750 812
f 863 31 434
f 863 38 619
f 346 883 358
f 864 51 774
f 820 727 864
f 482 450 370
f 12 712 521
f 240 270 1130
f 865 58 583
f 865 43 497
f 591 524 790
f 76 811 89
f 578 913 488
f 379 1209 760
f 9 424 463
f 114 536 795
f 588 692 515
f 687 370 612
f 867 737 477
f 868 619 469
f 869 710 529
f 869 573 474
f 799 1230 1233
f 465 73 81
f 870 827 428
f 428 911 870
f 871 110 771
f 872 564 397
f 872 397 25
f 44 71 55
f 140 536 828
f 140 155 466
f 256 239 650
f 746 220 467
f 118 1008 102
f 963 42 971
f 874 643 194
f 410 637 875
f 875 695 815
f 876 677 123
f 876 107 98
f 471 48 484
f 773 183 202
f 925 409 468
f 396 51 864
f 877 742 851
f 877 265 742
f 878 188 1221
f 878 1080 1079
f 879 249 253
f 879 274 1134
f 219 197 419
f 880 446 489
f 272 490 880
f 881 116 552
f 881 1006 1022
f 882 347 586
f 1082 1108 1106
f 594 705 518
f 809 556 594
f 883 330 486
f 883 343 358
f 884 69 82
f 884 651 72
f 125 426 130
f 13 549 10
f 220 529 467
f 573 869 220
f 885 111 127
f 885 117 100
f 886 266 477
f 886 576 833
f 887 368 364
f 887 380 371
f 834 438 279
f 142 112 625
f 888 847 350
f 888 345 678
f 814 587 33
f 889 778 331
f 889 341 440
f 890 434 31
f 890 27 37
f 644 337 580
f 629 464 855
f 475 310 790
f 891 8 789
f 891 18 957
f 892 701 365
f 893 786 824
f 894 392 506
f 524 496 286
f 895 1014 1300
f 896 1276 1275
f 897 772 298
f 898 293 305
f 234 257 253
f 1120 262 234
f 196 710 869
f 710 570 770
f 374 808 720
f 899 288 268
f 900 341 889
f 900 1297 341
f 731 578 690
f 901 1048 1047
f 461 5 725
f 902 17 653
f 902 16 661
f 295 302 435
f 903 707 590
f 903 810 172
f 244 248 236
f 542 391 939
f 1202 340 1192
f 1203 348 1200
f 282 264 622
f 715 599 83
f 904 344 355
f 904 436 351
f 905 1272 277
f 905 281 738
f 906 1228 1227
f 906 120 626
f 693 437 237
f 98 107 860
f 631 751 399
f 845 1142 1145
f 786 399 636
f 907 174 522
f 907 197 722
f 572 481 392
f 585 700 389
f 908 559 703
f 931 1256 1259
f 909 931 407
f 254 1288 1287
f 325 1190 1170
f 230 250 1123
f 910 90 86
f 75 910 86
f 299 1165 911
f 911 1158 870
f 548 350 354
f 325 835 548
f 685 208 191
f 334 801 321
f 334 478 801
f 495 1263 1119
f 645 1238 224
f 912 664 531
f 441 601 491
f 866 198 913
f 914 592 671
f 915 412 49
f 1074 175 1070
f 916 438 1162
f 116 1021 128
f 712 523 473
f 917 1257 1207
f 917 362 623
f 179 1056 1059
f 385 640 520
f 38 42 23
f 918 26 410
f 918 555 39
f 190 185 181
f 190 1099 185
f 919 218 836
f 101 93 871
f 740 684 558
f 54 525 472
f 129 151 672
f 920 396 850
f 920 514 757
f 724 495 849
f 921 355 676
f 921 373 364
f 1104 207 1101
f 1105 212 1102
f 1000 688 980
f 1080 878 1060
f 1081 837 199
f 533 922 558
f 738 1143 1156
f 923 57 745
f 122 1299 442
f 924 635 729
f 925 701 892
f 43 964 967
f 865 583 43
f 326 331 778
f 48 35 970
f 695 13 633
f 1111 212 1105
f 1112 221 1109
f 926 662 1129
f 927 1127 632
f 927 833 417
f 943 3 945
f 928 520 782
f 192 1308 1307
f 883 713 330
f 817 934 929
f 934 165 929
f 126 415 658
f 126 741 611
f 283 1161 1147
f 1251 190 1248
f 1250 167 1068
f 637 410 696
f 930 2 416
f 930 7 750
f 931 670 407
f 931 909 1256
f 932 925 451
f 932 569 409
f 614 1041 1033
f 817 937 934
f 934 1293 165
f 935 566 508
f 935 680 741
f 936 82 551
f 936 1023 1007
f 937 1290 934
f 937 817 504
f 938 1305 1219
f 938 393 479
f 939 391 679
f 12 940 483
f 2 930 575
f 1212 602 418
f 1308 185 1099
f 1309 216 235
f 940 952 483
f 940 458 950
f 482 1214 1213
f 7 779 521
f 930 416 7
f 12 615 458
f 715 941 509
f 1107 228 1287
f 927 417 1128
f 1220 1064 1063
f 1107 1287 1117
f 1084 1097 1069
f 542 1304 1303
f 1027 143 1037
f 977 502 993
f 978 896 1003
f 340 1186 1192
f 1188 320 1167
f 658 415 1032
f 974 599 509
f 975 915 987
f 1100 1251 1092
f 1064 164 1038
f 1065 157 1062
f 1096 1250 1068
f 1097 1084 1094
f 1305 938 1302
f 1304 542 1218
f 941 715 823
