# C5 c5_16r call 1 -- kept
# max displacement from rest 84.5656 mm
# interior RMSE vs target 40.9332 mm   crown 0.289969 m (target 0.312266 m)
v 0.59792328 0.02113320 0.00000000
v 0.58847582 0.11705511 0.00000000
v 0.56435333 -0.08595308 0.02381534
v 0.54322196 0.07012504 0.03015102
v 0.54842591 -0.24066152 0.00000000
v 0.51707270 0.00069580 0.05648369
v 0.53405223 0.17655405 0.02108175
v 0.53532442 -0.07246344 0.04900702
v 0.48646751 0.05214098 0.07365204
v 0.48581442 -0.16860721 0.06362058
v 0.47839128 0.23306434 0.04913975
v 0.50504742 0.24885292 0.02453472
v 0.49091966 -0.20634409 0.04458917
v 0.49640695 -0.27879109 0.01618866
v 0.47198149 -0.02005869 0.09557895
v 0.47054495 0.15378648 0.07041160
v 0.43959399 0.10103571 0.10279384
v 0.47123497 -0.05799608 0.10242899
v 0.43520255 0.06423819 0.11173499
v 0.45208269 0.25979816 0.06558683
v 0.43146846 -0.19136207 0.09094079
v 0.43543756 -0.22590316 0.07315247
v 0.42198401 -0.03349782 0.13732763
v 0.41395806 0.12290708 0.11959890
v 0.43486469 0.36725624 0.02060563
v 0.42845192 -0.34825874 0.02727160
v 0.41088067 0.08663498 0.12731486
v 0.42742751 0.21341388 0.09512059
v 0.41597638 0.43107167 0.00000000
v 0.43242484 -0.41432756 0.00000000
v 0.40511031 0.05116729 0.13701771
v 0.41428012 0.15968592 0.11396597
v 0.39587607 -0.15051642 0.13311472
v 0.37575357 -0.21563784 0.11665128
v 0.39131557 -0.11427761 0.15270422
v 0.38106541 -0.25022307 0.09786137
v 0.38584827 0.10755460 0.14367774
v 0.39621398 -0.01906157 0.15442237
v 0.39444090 -0.31009472 0.06304402
v 0.37082463 -0.38074855 0.04540548
v 0.37280469 0.36662748 0.05271886
v 0.40402764 -0.05437818 0.15440645
v 0.36850681 0.28469658 0.11170805
v 0.34880273 0.06401867 0.17835887
v 0.38750495 0.14242393 0.13751234
v 0.34342899 -0.16324804 0.16055957
v 0.32448455 -0.24442708 0.13691205
v 0.35856102 -0.10695129 0.17533234
v 0.37093177 -0.43732411 0.01697164
v 0.32503605 -0.27353151 0.12382119
v 0.35089904 0.41860289 0.03172783
v 0.36561623 -0.00155157 0.17453428
v 0.33256415 0.33331768 0.09396235
v 0.35925293 -0.31805404 0.08178154
v 0.32101601 0.04715522 0.20269363
v 0.32597889 0.16553775 0.18066816
v 0.33745598 -0.39333612 0.06051415
v 0.31840430 0.27788383 0.13812940
v 0.31509134 0.50864238 0.00000000
v 0.33974174 -0.03255711 0.19648010
v 0.30953118 -0.22338070 0.15566491
v 0.31314139 -0.16474914 0.17901602
v 0.31179582 0.35788812 0.08690539
v 0.33590366 0.12732672 0.17887600
v 0.29279796 -0.26003867 0.15032653
v 0.30109644 -0.13429199 0.19949933
v 0.34807480 0.02996263 0.18363658
v 0.29913491 0.30200576 0.13009685
v 0.29898886 -0.29575307 0.13098843
v 0.32397606 -0.10231077 0.19723496
v 0.31906839 0.09065949 0.19746871
v 0.29018148 -0.37012452 0.10424392
v 0.25819998 0.40932035 0.07693190
v 0.27429348 0.32646224 0.12457941
v 0.28662297 0.23949281 0.17573523
v 0.27485209 -0.22998511 0.17462174
v 0.27995058 -0.16770085 0.19946658
v 0.26177623 0.26869904 0.16764948
v 0.25431655 -0.26164291 0.17345502
v 0.26358052 0.01000501 0.23728530
v 0.25724373 0.37965664 0.09685114
v 0.27588387 -0.31759327 0.13664655
v 0.25557475 -0.48506158 0.03759806
v 0.26738504 0.29789484 0.14643604
v 0.25421709 0.08191966 0.23641987
v 0.26762284 0.21132303 0.19927631
v 0.23338675 0.02081368 0.24901304
v 0.23519567 -0.46527001 0.05817224
v 0.25944142 -0.20071512 0.19777716
v 0.23223283 0.22993138 0.20432619
v 0.24530225 0.11920966 0.23636246
v 0.23790943 -0.23310682 0.19583375
v 0.21871263 0.34772255 0.13490822
v 0.22311728 0.43095687 0.07783084
v 0.23186922 -0.29331970 0.17355937
v 0.23062608 0.26313841 0.18445008
v 0.21644249 0.09832458 0.25134079
v 0.21378776 -0.10857629 0.24551626
v 0.19641539 -0.41210027 0.10796415
v 0.20417615 -0.00766722 0.26227941
v 0.20891401 0.31781432 0.15864301
v 0.20207155 0.17213848 0.24026599
v 0.22617037 0.06053686 0.24938423
v 0.21112415 -0.17173899 0.23089462
v 0.20375830 0.49070432 0.04571281
v 0.21542616 -0.26488277 0.19414490
v 0.19631188 -0.13957844 0.24352755
v 0.20170420 0.25349193 0.20368744
v 0.18038329 -0.38552970 0.13102130
v 0.16534653 0.37267367 0.14222816
v 0.20273747 0.03545930 0.25969570
v 0.17126958 0.27575093 0.20256992
v 0.18571694 0.43162584 0.09392772
v 0.17731364 -0.43473307 0.09279565
v 0.15453834 -0.07195021 0.27128764
v 0.17523774 -0.32849404 0.17377918
v 0.16273410 -0.00912670 0.27499162
v 0.17528124 0.15061052 0.25516890
v 0.16591009 0.18610809 0.24445301
v 0.17754480 -0.17035315 0.24212766
v 0.14768041 0.02393650 0.27691549
v 0.15213977 0.22264254 0.23579045
v 0.16152385 -0.13959100 0.25467929
v 0.14926972 -0.38521054 0.13529029
v 0.14087842 0.39829251 0.13674575
v 0.17829135 0.54199237 0.01939000
v 0.17316235 0.04413857 0.26926995
v 0.14896431 -0.30396575 0.19427862
v 0.12581867 -0.36686176 0.15227432
v 0.13367599 0.36643893 0.16013670
v 0.12175231 -0.00008415 0.28299536
v 0.13997620 -0.47336024 0.06900261
v 0.14656122 0.12973606 0.26768515
v 0.14320663 0.16492728 0.25669283
v 0.12590750 -0.14193301 0.26495254
v 0.11288776 0.03595310 0.28403267
v 0.15916426 0.45788945 0.08793393
v 0.12172430 -0.08634053 0.27494093
v 0.13227462 0.20112098 0.24699857
v 0.11852799 -0.42698884 0.10758649
v 0.13614446 -0.33534701 0.17411380
v 0.13859515 0.29687074 0.20214931
v 0.11795009 -0.25311067 0.22828089
v 0.11566332 0.42416907 0.13188179
v 0.12136020 -0.39795657 0.12938305
v 0.11132179 -0.05719933 0.28136031
v 0.11544832 0.14612200 0.26767837
v 0.11560237 0.17753224 0.25825994
v 0.08622455 -0.08309461 0.28112950
v 0.08995748 -0.20178121 0.25311734
v 0.09883440 -0.34771420 0.17027378
v 0.10670201 -0.48610588 0.06461952
v 0.11453597 0.11054556 0.27706757
v 0.10613540 -0.11374419 0.27415873
v 0.08431565 -0.44110420 0.10180728
v 0.08081777 -0.23290234 0.24021992
v 0.10019159 0.31821012 0.20258226
v 0.09805045 0.20424823 0.25367191
v 0.10547497 -0.31435384 0.19431849
v 0.08800422 -0.41133007 0.12393537
v 0.06607337 -0.17425670 0.26425833
v 0.08124346 0.09299833 0.28366063
v 0.08446275 0.13196025 0.27613224
v 0.08621042 0.26013703 0.23651165
v 0.07653575 -0.26408730 0.22752909
v 0.08823761 0.16897500 0.26645483
v 0.06762759 -0.05139990 0.28595861
v 0.06917777 -0.33017858 0.18773955
v 0.06526621 0.19596330 0.26409546
v 0.05294790 -0.20920410 0.25168060
v 0.05912726 -0.14222682 0.27415841
v 0.05958145 -0.56448983 0.01686370
v 0.05457211 0.50531019 0.07436278
v 0.04780428 -0.48352199 0.07482020
v 0.05767173 0.15786838 0.27533035
v 0.04139861 0.47116532 0.10116045
v 0.03670148 0.05205202 0.28922382
v 0.05812278 -0.39417955 0.14116798
v 0.03961944 0.37119893 0.17741314
v 0.02623343 -0.18789789 0.26094531
v 0.03591306 -0.11796887 0.27941499
v 0.04692373 0.08211750 0.28718587
v 0.03314058 -0.34748782 0.17951587
v 0.05216887 0.11940459 0.28288624
v 0.00305848 -0.12862738 0.27787985
v 0.03950380 -0.31983111 0.20006046
v 0.08123313 0.01111606 0.28773338
v 0.01433211 0.24714081 0.24768315
v 0.01715356 -0.22103495 0.24927498
v 0.01135094 -0.08763496 0.28407476
v 0.00142002 0.17280933 0.27365229
v -0.00313157 -0.16536363 0.26969036
v -0.00833826 0.59918350 0.00000000
v -0.00076876 -0.59992903 0.00000000
v 0.00248640 -0.52026028 0.05251281
v 0.01963865 0.51716729 0.05954681
v -0.00567798 -0.46804618 0.09429917
v 0.00948377 0.39151969 0.15766440
v -0.00608801 0.32934563 0.20113111
v 0.01709558 -0.43986965 0.11264998
v 0.02380160 -0.40796310 0.13580737
v -0.00431654 -0.36100865 0.17427764
v -0.01814858 -0.23101163 0.24819412
v -0.01999339 0.06326792 0.28844961
v -0.00962691 -0.19888141 0.25988556
v -0.05323900 0.25238163 0.23893018
v -0.04900008 -0.07515166 0.28348928
v -0.03225922 0.16285192 0.27293343
v -0.04310376 0.31998537 0.20367826
v -0.03530962 -0.34079925 0.19159019
v -0.03247597 0.35080795 0.18133146
v -0.08353820 -0.02126622 0.28442233
v -0.04168079 -0.37541609 0.16897050
v -0.02648423 0.38216759 0.15870034
v -0.04929345 0.18807473 0.26373122
v -0.05579626 -0.11730055 0.27748939
v -0.02623115 0.09772964 0.28566411
v -0.04479207 0.43417220 0.11585143
v -0.03637913 -0.46712102 0.09978541
v -0.04605169 0.48816020 0.07359705
v -0.07334028 0.03874419 0.28596604
v -0.06703970 0.16189773 0.27109330
v -0.04286853 0.54492366 0.03208410
v -0.06702211 -0.19942751 0.25711416
v -0.04344025 -0.55944722 0.02593802
v -0.05101453 0.13011807 0.27964664
v -0.07635706 0.19707967 0.25860976
v -0.08812175 -0.25816671 0.22992536
v -0.06811462 0.34068620 0.18348992
v -0.10944150 -0.04454615 0.28005915
v -0.09202319 0.07263554 0.28231777
v -0.09100679 0.26166415 0.23186587
v -0.08203581 -0.09391566 0.27835694
v -0.11012750 0.10604102 0.27658537
v -0.06945291 -0.15848640 0.26731347
v -0.08529969 -0.12793004 0.27137543
v -0.05810190 0.40434641 0.13668213
v -0.09451475 0.17267372 0.26672861
v -0.10241770 0.45717004 0.08878352
v -0.12095616 0.30294830 0.20267964
v -0.10808623 -0.32437200 0.19117178
v -0.08366768 0.22987035 0.24494123
v -0.12231200 -0.01582436 0.27937765
v -0.11323461 -0.11362051 0.27117847
v -0.10533634 0.33174151 0.18407648
v -0.10771273 -0.36121929 0.16961122
v -0.10845173 0.20386497 0.25369709
v -0.10801059 -0.15038111 0.26209638
v -0.11272315 0.04566733 0.28094881
v -0.14341887 -0.05192298 0.27292606
v -0.11459290 0.38034624 0.14601070
v -0.11151183 -0.39731515 0.14667780
v -0.12940206 0.07852947 0.27468465
v -0.12220624 -0.24632508 0.22666720
v -0.12162228 0.23599219 0.23825973
v -0.11762247 0.42881978 0.10827540
v -0.14514088 0.11077727 0.26648181
v -0.15987985 -0.44550809 0.09337809
v -0.12753221 -0.20876996 0.23891456
v -0.14194537 -0.13518038 0.26100188
v -0.13597494 -0.17201367 0.24979625
v -0.12855428 0.13829870 0.26803935
v -0.14546323 0.16822951 0.25730040
v -0.18027812 -0.03970409 0.26319665
v -0.12616280 0.48225705 0.06581075
v -0.13208921 -0.49886770 0.06854083
v -0.14645514 -0.30164905 0.19116385
v -0.17226111 -0.35091881 0.14914138
v -0.12789025 0.35292605 0.16459985
v -0.16009936 0.29523587 0.19997335
v -0.17297376 -0.07865289 0.26322238
v -0.16338452 -0.41558071 0.11169616
v -0.17168901 0.39472636 0.12635183
v -0.18786757 0.05925360 0.26364582
v -0.17799429 -0.31861980 0.16712987
v -0.16074485 0.14266563 0.25613028
v -0.15372203 -0.22847592 0.22596934
v -0.18620285 0.20422546 0.23213947
v -0.19201343 0.14624373 0.24402980
v -0.17195474 -0.15712594 0.24738786
v -0.16318117 -0.19250608 0.23623386
v -0.19386851 -0.00147849 0.26271133
v -0.18161107 0.32137147 0.17912262
v -0.19517422 -0.42652720 0.09045563
v -0.19843880 0.09052099 0.25351644
v -0.17505894 0.44197884 0.08865415
v -0.18571019 -0.28600760 0.18482720
v -0.19933948 -0.36537285 0.12831491
v -0.22616042 -0.12166212 0.23856102
v -0.19878844 -0.25558154 0.19927860
v -0.20280505 0.49169565 0.04491416
v -0.20467610 0.11971267 0.24507585
v -0.20461249 -0.06558316 0.25245449
v -0.19477351 -0.39678541 0.11008021
v -0.21581577 -0.30368650 0.16054862
v -0.22473454 0.06890421 0.24955445
v -0.21274510 0.55944854 0.00000000
v -0.24113308 -0.54817384 0.00000000
v -0.23193576 0.40652171 0.10817305
v -0.25747034 0.00412704 0.23750906
v -0.22860578 0.10372183 0.23993420
v -0.22520508 -0.27182272 0.17673593
v -0.23782946 0.28863931 0.17493795
v -0.23056521 -0.43574727 0.06939022
v -0.23389293 -0.05601122 0.24151528
v -0.23465830 -0.35270231 0.12122673
v -0.24344710 0.22744659 0.19654047
v -0.25600544 -0.11291317 0.22622212
v -0.23516582 -0.23806691 0.19326426
v -0.26376825 0.45559503 0.06066390
v -0.26785821 -0.21942197 0.18956609
v -0.26470378 -0.06661593 0.22793772
v -0.27389875 -0.49205926 0.01945905
v -0.24474418 -0.32201165 0.13658671
v -0.26040505 0.50620336 0.02031531
v -0.25929853 0.08633666 0.23185605
v -0.25110384 -0.37675000 0.09867517
v -0.25305869 0.31684168 0.15458450
v -0.27839933 -0.02417774 0.22612719
v -0.28234528 0.02045418 0.22717883
v -0.25920450 0.25591909 0.17473068
v -0.26179369 -0.25546798 0.17124392
v -0.28351568 0.15929891 0.20010341
v -0.29240849 0.18723712 0.18229395
v -0.30026891 -0.16298860 0.19244289
v -0.27230784 -0.34344262 0.11100789
v -0.29008944 -0.40464718 0.06435971
v -0.31614332 0.36368039 0.09115613
v -0.31527611 -0.09742877 0.19488029
v -0.28821228 0.31335196 0.13250680
v -0.27946571 -0.30767381 0.13104352
v -0.32866554 0.09673223 0.19352219
v -0.33150804 -0.03257707 0.19310546
v -0.29394053 0.25487878 0.15294845
v -0.30171604 -0.12787467 0.19880794
v -0.30694095 0.12759053 0.19659882
v -0.31544374 -0.37800014 0.07010116
v -0.31619822 0.16087716 0.17757144
v -0.31772392 0.19489471 0.16255293
v -0.33647607 0.03095405 0.19632711
v -0.35157406 -0.27774466 0.12042162
v -0.33317811 -0.07072284 0.18567100
v -0.33610869 0.33381483 0.09103644
v -0.34699493 0.00317369 0.18590609
v -0.34533968 -0.10728062 0.17042937
v -0.34293705 0.28133172 0.10951816
v -0.34785639 0.45923409 0.01847345
v -0.36215752 0.10144926 0.17224108
v -0.34491917 0.23231817 0.12913215
v -0.35506801 -0.14223358 0.15777816
v -0.35448738 -0.05176025 0.17252949
v -0.37133119 0.13430921 0.15352355
v -0.34909554 0.16775537 0.15366048
v -0.36370021 -0.17100802 0.14728712
v -0.38278574 0.00944974 0.16097996
v -0.36638666 0.36700991 0.05575170
v -0.37288708 -0.36023753 0.05527247
v -0.35854207 0.30591897 0.08848233
v -0.36074829 0.25277387 0.11002877
v -0.39833029 -0.33817272 0.05715813
v -0.40179332 0.20650324 0.10287452
v -0.39584626 0.10664441 0.15019074
v -0.38112701 0.16063135 0.13615556
v -0.40965934 -0.05120924 0.13116188
v -0.42976737 0.41756567 0.00000000
v -0.38705848 -0.22103273 0.12303070
v -0.40601579 0.04270752 0.14981873
v -0.39662619 -0.08356115 0.13586859
v -0.41683908 0.35291824 0.03204680
v -0.43655023 -0.36603065 0.01982324
v -0.41264674 -0.11614512 0.11872157
v -0.43210490 0.28764985 0.04955853
v -0.41988866 -0.02267600 0.12803110
v -0.45194845 0.21585038 0.06574609
v -0.44246476 -0.17228104 0.08710520
v -0.43437563 0.18821553 0.08909875
v -0.43342066 0.14909688 0.10701549
v -0.43839657 -0.04195881 0.11081957
v -0.44598458 -0.25125733 0.07022911
v -0.44602195 -0.09883996 0.09610922
v -0.46726693 -0.14736166 0.07239962
v -0.50187206 0.32775772 0.00000000
v -0.50204356 0.25416932 0.02057379
v -0.47649341 -0.21786839 0.05263119
v -0.50197188 -0.26601370 0.02178705
v -0.48240446 0.20240799 0.05094575
v -0.51649876 0.01749725 0.05852509
v -0.51943185 -0.12063927 0.03929738
v -0.52551938 -0.15635395 0.02987212
v -0.54304529 0.00140565 0.03643678
v -0.54002028 0.17550990 0.02097868
v -0.56137236 -0.05666271 0.01935919
v -0.56643227 0.05379534 0.02115450
v -0.58888495 -0.11290137 0.00000000
v -0.59994477 0.00060879 0.00000000
v 0.32269840 0.44362846 0.02922124
v 0.40563577 0.35857948 0.04138966
v 0.13665850 0.51324100 0.05750773
v -0.10810494 0.53887366 0.02859403
v 0.22500623 -0.49668567 0.03591540
v -0.27915613 0.47736615 0.03810471
v 0.25147783 -0.43717366 0.07876688
v -0.03628870 -0.52841848 0.05015286
v -0.52240725 0.14348615 0.04582358
v 0.11629484 -0.53269780 0.03070730
v 0.50981451 -0.13739850 0.05982956
v -0.49098273 0.03374332 0.08142538
v -0.44472016 -0.21069036 0.07879861
v -0.45544680 0.30676093 0.02869491
v 0.44652915 -0.31710705 0.02966073
v -0.38209277 -0.45887926 0.00000000
v 0.36474848 -0.47311336 0.00000000
v 0.44204363 0.40260705 0.00000000
v 0.57521123 -0.16078255 0.00000000
v 0.16177262 0.57491088 0.00000000
v 0.57476550 0.16225195 0.00000000
v -0.16671224 -0.57341248 0.00000000
v -0.51834917 -0.29693121 0.00000000
v -0.02310646 -0.44129712 0.11785491
v 0.51467078 0.06381279 0.05085358
v -0.25307739 -0.46284134 0.04343985
v 0.42185847 -0.11990548 0.13079843
v 0.35501355 -0.28122263 0.10099905
v 0.45956977 0.03985002 0.09637001
v 0.29175276 0.27202147 0.15312071
v 0.10771527 0.39198062 0.15588145
v -0.56891457 0.01854610 0.01862087
v -0.18065930 0.36991832 0.14416742
v -0.22127063 -0.37920805 0.10994493
v -0.02121071 0.41123482 0.13750738
v -0.33427262 0.38497004 0.06834923
v -0.37169773 -0.32766148 0.07714183
v 0.45182577 0.21975035 0.07366728
v 0.37487468 0.03814951 0.16205806
v -0.25298732 -0.28920657 0.15396294
v -0.38145684 -0.05242704 0.15216052
v -0.05871771 0.37108483 0.16189033
v -0.22423191 0.14079991 0.23369782
v 0.26239526 0.04424961 0.23600402
v -0.34001457 -0.31619868 0.09933715
v 0.40834431 0.19469653 0.11365211
v 0.11441379 0.23733103 0.23876479
v 0.24958668 -0.10958087 0.23259423
v 0.07988518 -0.47051978 0.08012406
v -0.46414700 -0.11675404 0.07964499
v -0.13979474 -0.37079498 0.15056498
v 0.38257609 0.17701675 0.13673724
v 0.22672164 0.37603214 0.11274868
v 0.45993149 -0.38081059 0.00000000
v -0.47198784 -0.36611992 0.00000000
v -0.48209521 0.35380405 0.00000000
v -0.57878697 -0.14899495 0.00000000
v -0.17589951 0.57062554 0.00000000
v 0.59327775 0.06830031 0.00000000
v -0.59646612 0.03592828 0.00000000
v -0.04460660 -0.59561139 0.00000000
v -0.27564669 -0.52972597 0.00000000
v 0.52317095 0.28791025 0.00000000
v 0.19572935 0.46028382 0.06986473
v -0.02791860 -0.49649921 0.07490949
v 0.52383483 -0.21285543 0.02083597
v -0.46367454 0.18578491 0.07033626
v 0.48509072 0.01176189 0.08038423
v 0.40967346 -0.25274976 0.07827266
v 0.28614825 0.38384216 0.08130956
v 0.11262398 -0.45686313 0.08564785
v -0.06961850 0.50612342 0.05666088
v -0.42342099 0.32185394 0.04093926
v 0.45400763 0.00583943 0.10588980
v -0.49207486 -0.00665791 0.07466204
v 0.36666234 -0.14199568 0.15540681
v 0.38030330 -0.34358224 0.05689760
v 0.50141418 0.16570534 0.04519212
v 0.01809314 0.49183727 0.08010254
v -0.24072113 0.48633372 0.04053208
v -0.33350006 0.43712476 0.04139517
v -0.16188469 -0.47622557 0.07135505
v -0.31723270 0.22717692 0.14936080
v -0.54201088 0.07534729 0.04313482
v 0.23964893 0.49152559 0.03193109
v -0.53884452 -0.08902485 0.03061090
v -0.46266097 -0.34109155 0.01976783
v 0.47579155 0.27370206 0.04143462
v 0.33465330 -0.13445385 0.17831074
v -0.14129722 -0.33722714 0.17063620
v -0.30256888 0.33901400 0.11171398
v -0.43802455 0.02762481 0.12279908
v 0.05947374 0.44189812 0.12875085
v -0.16862773 -0.38312211 0.13031382
v -0.12467877 -0.43145740 0.11913226
v 0.37708271 0.21275561 0.13674871
v -0.37790853 -0.39172726 0.03418239
v 0.00329302 -0.33034204 0.19577492
v 0.32951469 0.00608202 0.20059896
v -0.04532808 -0.41202651 0.14365243
v -0.19393355 0.41324927 0.10842741
v 0.36057635 0.31902319 0.09082315
v 0.42669790 -0.15580729 0.11044278
v 0.53569529 -0.14202979 0.03743317
v -0.29663364 -0.23848935 0.16740029
v 0.24118463 -0.01747772 0.24884641
v 0.26594042 -0.08188495 0.23296508
v 0.11379812 -0.22646398 0.24084011
v -0.02737758 -0.25867715 0.23655760
v -0.36201090 0.47536004 0.00000000
v -0.59620458 -0.03858358 0.00000000
v 0.52908826 -0.27683973 0.00000000
v 0.27970111 0.52755880 0.00000000
v 0.30030006 -0.51654845 0.00000000
v -0.29189527 0.52104092 0.00000000
v -0.52032018 0.29324374 0.00000000
v -0.31482393 -0.47505665 0.01525308
v 0.56963531 0.08141336 0.01260976
v 0.25836257 0.43745544 0.05863391
v -0.46648851 -0.02638380 0.09164917
v 0.34734875 0.38882585 0.05072205
v 0.04085989 -0.51300414 0.05365235
v 0.13181017 -0.50287489 0.04871683
v 0.20587940 0.40395839 0.10349194
v -0.51341754 -0.22721226 0.02377531
v 0.52937346 0.21490572 0.01668598
v 0.05141718 -0.45357897 0.09709399
v 0.47528340 0.19205805 0.05997371
v -0.21190059 0.43645041 0.08676327
v 0.35014583 -0.35727657 0.06966518
v -0.30059335 0.39439196 0.08776739
v -0.40701236 0.17284403 0.11401878
v -0.28274357 -0.37537944 0.08593659
v -0.04035331 0.51940752 0.05062797
v -0.40698327 -0.30980421 0.07249979
v -0.52575648 -0.05561159 0.04327570
v 0.42749324 0.24728770 0.08961143
v 0.56211804 -0.04274853 0.02433074
v -0.36773649 0.33301759 0.07045916
v -0.15512331 0.42206334 0.10755968
v 0.14594950 -0.44398103 0.09043640
v -0.43948610 -0.13517464 0.09536316
v -0.27339326 0.28559337 0.15370018
v -0.43665380 0.05847481 0.12975301
v 0.43741258 -0.06046328 0.13031643
v -0.28912563 -0.27369739 0.14874771
v -0.55503790 0.14005890 0.02159562
v 0.30568094 0.13130523 0.20043183
v -0.14827291 0.37511671 0.14485970
v 0.43898649 0.33405481 0.03952345
v 0.17288989 0.51740252 0.03892747
v -0.46781528 -0.27655246 0.04630368
v -0.33158413 -0.17796285 0.16923091
v 0.51468161 -0.17484084 0.04027211
v -0.37171761 0.22068688 0.11654883
v 0.26736950 -0.29009190 0.15354467
v 0.16133445 -0.35864405 0.15377114
v -0.38894424 -0.18335157 0.12665707
v -0.22101149 0.25978491 0.19592397
v 0.43019731 -0.29645355 0.04712839
v 0.19053360 -0.50957118 0.03394643
v 0.34667536 0.35615899 0.07197570
v 0.57392554 -0.00238311 0.01500007
v -0.32116613 -0.40835771 0.04909255
v -0.49646454 -0.15262151 0.05020659
v -0.52572337 0.21850123 0.01764446
v -0.46218437 0.15632604 0.08415359
v -0.21771000 0.51999101 0.02159648
v 0.37904525 0.39254023 0.03408583
v -0.00602807 -0.54837924 0.03226710
v 0.28039465 0.49170355 0.01805623
v -0.39375013 0.34122315 0.05048296
v 0.26473439 0.46537323 0.03866141
v -0.48422704 0.28773172 0.01973516
v 0.03816666 0.53809294 0.04429974
v -0.41602156 -0.19753255 0.10360972
v -0.56596928 -0.09142135 0.01367237
v -0.01382461 0.48313296 0.08231738
v 0.15002294 0.42851655 0.11249370
v 0.55289028 0.10835523 0.01959509
v -0.20202858 -0.51283234 0.03051011
v 0.49246576 0.08984899 0.06377707
v 0.02713269 0.44044534 0.12343178
v -0.41097643 0.26632138 0.07150929
v -0.30960493 -0.34795993 0.09189108
v 0.32504585 -0.34216350 0.09322979
v 0.44798621 -0.02918245 0.11627838
v 0.34476592 0.26521986 0.13581105
v 0.51759955 -0.24913027 0.01392095
v -0.53449549 -0.19263277 0.01792056
v -0.39430445 0.44885737 0.00000000
v 0.40043374 -0.18555130 0.11411679
v -0.44198021 -0.00680737 0.11375955
v -0.26859467 0.34408209 0.13324735
v 0.07404822 -0.50072677 0.05844685
v -0.24885048 0.43159566 0.08435446
v 0.45685885 -0.16182646 0.08707520
v 0.25027778 0.35132609 0.11866247
v 0.15440689 -0.52197068 0.03202801
v 0.35643570 -0.41570974 0.03675280
v 0.56148533 -0.14071563 0.01694344
v -0.29574179 0.49499236 0.01819677
v -0.31862521 0.41563147 0.06373860
v 0.29098294 -0.48943051 0.02418937
v 0.09951886 -0.56033373 0.01564393
v 0.40229789 0.23147903 0.11364620
v -0.48927335 -0.29928050 0.02180187
v -0.26264658 0.19399378 0.19920441
v -0.08048590 0.31177423 0.20399780
v 0.23330818 -0.41169985 0.10310685
v -0.07363515 -0.54101680 0.04316389
v 0.06337610 -0.36283913 0.16389971
v -0.32709371 0.25650375 0.13057890
v 0.30563872 0.32927629 0.10886011
v 0.50717735 0.03151045 0.06049066
v 0.20682719 0.56124371 0.00000000
v -0.44435945 -0.39978519 0.00000000
v -0.59269834 0.07418330 0.00000000
v 0.08388902 0.59174240 0.00000000
v 0.54562628 0.24589933 0.00000000
v -0.24713811 -0.02849403 0.23873929
v 0.16671714 0.48723310 0.06351563
v -0.45907310 -0.06277281 0.09179236
v 0.42500203 -0.00383844 0.13013600
v -0.17378071 0.17526752 0.24450747
v -0.10006342 -0.18602538 0.25315732
v -0.15774403 -0.01079943 0.27226076
v -0.40418991 0.13874204 0.13087332
v 0.19534033 -0.07536156 0.26022457
v 0.17152552 0.31272277 0.17803087
v 0.14339145 -0.17058984 0.25376083
v 0.42761742 -0.37897392 0.01544221
v 0.34469711 -0.21588974 0.13653888
v 0.41172482 -0.28117173 0.06476842
v 0.07795700 0.53267251 0.05331092
v -0.14702554 0.54483363 0.01916410
v -0.13688101 -0.52957646 0.04293118
v 0.46126367 -0.19876440 0.06763062
v 0.52182024 0.10007576 0.04105835
v 0.14029097 -0.55263432 0.01513292
v -0.07339215 0.53128939 0.03809324
v 0.47712460 -0.31248703 0.01526775
v -0.55204711 -0.12514914 0.01780346
v 0.21103178 -0.44269507 0.08101265
v -0.48094925 -0.24666084 0.04293889
v -0.02642764 0.56836645 0.01763146
v 0.13381231 0.33145776 0.18181298
v 0.02056755 -0.57025934 0.01599695
v -0.34245184 -0.35188073 0.07468928
v -0.09237111 -0.22411219 0.24196794
v -0.56942526 -0.01808122 0.01699323
v -0.49986101 0.22129175 0.03276985
v 0.40064421 -0.44365448 0.00000000
v -0.24005071 -0.51766746 0.01587070
v -0.13796053 0.45002311 0.08853439
v 0.26653795 -0.34837367 0.13000647
v -0.09736631 0.40681037 0.12847731
v 0.46409373 0.07722181 0.08730724
v -0.37801501 0.27642984 0.08854134
v -0.41476622 -0.15771234 0.11070615
v 0.46247875 0.34239349 0.01959483
v -0.17724585 0.11567907 0.25544746
v 0.13999321 0.54657800 0.02935338
v -0.47194582 -0.18226639 0.06289988
v 0.54373106 -0.17475571 0.01935357
v 0.44187558 0.13937750 0.09515380
v -0.08002884 -0.57125482 0.01695573
v -0.21417139 -0.03003504 0.25202782
v -0.51760311 -0.02111022 0.05323711
v 0.21762998 -0.52767050 0.01659622
v 0.41607264 0.31990014 0.06248854
v 0.00320684 0.36062093 0.17935518
v -0.06709197 -0.51011891 0.06915744
v 0.23521766 0.29326134 0.16319324
v -0.51629765 0.05767447 0.06374836
v 0.48211704 -0.13124705 0.08357789
v 0.09232418 -0.38017956 0.14686917
v 0.28122190 0.35481346 0.10266056
v 0.32807816 -0.30751527 0.10683657
v -0.39409901 0.40805916 0.01995176
v -0.41369401 0.00704100 0.13772298
v 0.14304685 -0.10974510 0.26610404
v -0.36517595 -0.08119368 0.15980682
v -0.56063014 0.20884998 0.00000000
v 0.24307497 0.54713589 0.00000000
v -0.47790565 -0.08632137 0.07401973
v -0.09280587 0.35958683 0.16515074
v 0.31752464 0.24653360 0.15942158
v 0.54762014 -0.00179173 0.03330937
v -0.02186668 0.19875469 0.26263369
v 0.21625385 -0.38402136 0.12791514
v -0.40996011 -0.39653400 0.01711917
v 0.29596322 0.16808442 0.20045794
v -0.22164604 -0.46513264 0.05415611
v 0.00631090 0.46438698 0.10054422
v -0.14327491 0.32494719 0.18261242
v -0.46630890 0.01195839 0.09782139
v -0.08326822 0.38537687 0.14710924
v 0.31991407 0.41453288 0.04715733
v 0.46404413 -0.23575228 0.05057945
v 0.45523868 -0.34717040 0.01409646
v -0.18578297 0.54163853 0.01481541
v -0.10223317 0.50983594 0.04929152
v -0.01540212 -0.57466528 0.01448375
v -0.50312103 -0.18909537 0.03900327
v -0.42249947 0.38106190 0.01742125
v -0.23282182 -0.48998803 0.03435825
v -0.34681161 -0.38428538 0.05240560
v 0.03944946 0.59611928 0.00000000
v 0.16592876 -0.49116665 0.05152469
v -0.28773313 -0.45829929 0.03339317
v 0.10004461 -0.51284691 0.04633920
v -0.38089241 -0.42440535 0.01595689
v -0.25788003 -0.40602865 0.07701005
v -0.00620145 0.53905959 0.03958735
v 0.38298969 0.33692910 0.06749769
v 0.50454438 0.20498778 0.03540298
v -0.30807069 0.28393098 0.13156214
v 0.27231492 -0.46164339 0.05330037
v 0.25699395 -0.51157720 0.01733435
v 0.13098437 0.48403349 0.08256315
v -0.51166582 0.18599282 0.03722434
v -0.37828560 -0.29465619 0.09689277
v -0.22859955 0.00541473 0.25038416
v -0.44225725 0.25123853 0.05777062
v 0.17416537 0.40244878 0.11878801
v 0.01277483 -0.49287440 0.07236251
v -0.49201892 0.13075287 0.07461430
v -0.00914352 -0.39190569 0.15258443
v 0.56218070 -0.20373854 0.00000000
v -0.56714153 -0.18738475 0.00000000
v 0.35187578 0.48367769 0.00000000
v -0.54189104 0.25288740 0.00000000
v 0.12668239 -0.58555543 0.00000000
v 0.59307426 -0.07036635 0.00000000
v -0.00936610 0.43884906 0.11813724
v -0.49086516 0.16537687 0.05996356
v -0.03004148 0.46139525 0.09695758
v -0.40534928 -0.36432991 0.03705114
v -0.05909630 -0.44597293 0.12053441
v -0.01969454 0.23407205 0.24945355
v -0.19591893 -0.48491426 0.05122342
v -0.20328448 -0.18231219 0.22961465
v -0.35797344 0.40281225 0.04357743
v 0.56548666 0.03811516 0.01834333
v 0.21324336 0.52200788 0.02167007
v -0.16434429 0.49049299 0.05321655
v -0.01095800 0.13488682 0.28133657
v 0.07402369 0.47656624 0.10290879
v 0.30384938 -0.40187613 0.07966887
v -0.08637052 0.48371969 0.07098112
v 0.23010752 0.46243542 0.05404451
v 0.46911511 0.36962032 0.00000000
v 0.36390571 0.12619442 0.15792479
v 0.52630881 0.13757142 0.03265457
v -0.13750084 0.51379668 0.04105102
v -0.29768418 -0.42995553 0.04598992
v 0.49215356 -0.24303623 0.03043940
v -0.54347342 -0.03052030 0.03354372
v -0.33938676 0.13202179 0.17427297
v -0.39177049 0.37695387 0.03571698
v 0.28902144 0.41272543 0.06145167
v -0.39223783 0.24237027 0.09381209
v 0.23380120 0.40128942 0.09289691
v -0.41555688 -0.23684243 0.09790092
v 0.31740384 0.38523852 0.06650143
v -0.28407137 0.37000428 0.11115128
v -0.13412997 0.40184815 0.12653244
v -0.37610401 0.18877973 0.12734485
v -0.06425315 -0.47937719 0.09451662
v 0.39317551 0.30225433 0.08729842
v 0.44291274 0.18026586 0.08780406
v 0.03138789 -0.15447811 0.27103000
v -0.34945968 -0.45066204 0.01518005
v 0.01575555 0.56593639 0.02119448
v 0.15850823 0.34442860 0.16328299
v -0.20369941 -0.54075200 0.01248572
v 0.02743480 -0.37756296 0.15792145
v 0.38240904 0.42365090 0.01608628
v -0.39541102 0.30407462 0.06544544
v -0.49014797 -0.11782040 0.06028574
v -0.22546278 -0.40503313 0.09144405
v -0.30392850 -0.32216343 0.11117524
v 0.56184721 0.20483784 0.00000000
v 0.20816483 -0.56083798 0.00000000
v 0.08397210 -0.59173423 0.00000000
v -0.55592757 -0.22435221 0.00000000
v -0.31076312 -0.51095587 0.00000000
v -0.45999847 0.12231858 0.10134394
v 0.24241748 0.32247336 0.14109175
v -0.07111889 0.56222153 0.01790956
v -0.12767922 -0.46661126 0.09385642
v 0.19610813 0.37457693 0.12729937
v 0.52794044 -0.03598799 0.05168100
v -0.22664945 0.46131967 0.06370400
v 0.20218361 0.28686739 0.18160500
v -0.50792760 -0.08531334 0.05220376
v 0.20065593 -0.47730117 0.05550373
v -0.54171431 0.03800031 0.04025906
v 0.17434225 -0.46112605 0.07268871
v 0.18793495 -0.20415302 0.22969276
v 0.18592759 0.07507452 0.26455833
v 0.53400479 0.03342024 0.04023063
v 0.14665490 0.05969571 0.27702084
v 0.32951774 -0.19133540 0.15703263
v -0.28312398 0.22140864 0.17386781
v -0.13596790 0.58273870 0.00000000
v 0.35243939 -0.24718056 0.11772708
v 0.49687862 -0.02873353 0.07653364
v 0.40579458 -0.21961089 0.09531916
v -0.43187666 -0.33168188 0.04389739
v 0.37183987 -0.04260915 0.17541945
v -0.42232811 0.22787819 0.08024168
v 0.17971890 -0.54091514 0.01586948
v 0.03289472 -0.54133907 0.03417430
v 0.29428379 -0.19671778 0.17707896
v 0.49673937 0.12740655 0.05499067
v -0.26784310 -0.43353060 0.05565149
v 0.36669468 -0.18099405 0.13797619
v 0.43772234 -0.26096487 0.05696536
v -0.34481899 0.35648144 0.07481781
v 0.00851535 -0.25251713 0.23679681
v 0.07555352 0.23151934 0.24985141
v 0.39481966 -0.40494735 0.02031707
v 0.38623139 0.45548278 0.00000000
v -0.41514957 -0.43175024 0.00000000
v 0.48766616 -0.34701583 0.00000000
v 0.24448305 -0.54638326 0.00000000
v -0.04987665 0.59509230 0.00000000
v 0.23206302 -0.07879593 0.24737012
v -0.17592246 0.51714623 0.03215892
v -0.16362932 0.34813523 0.16276333
v 0.15550871 -0.41295048 0.11306046
v -0.46513961 0.27048597 0.03643089
v -0.32116879 -0.44118107 0.03047068
v -0.47368572 0.23719582 0.04338528
v 0.31917589 0.47500728 0.01417636
v -0.16979931 -0.53694081 0.02489321
v -0.21027833 0.17301870 0.23155674
v -0.32579892 -0.13735522 0.17965168
v -0.06528295 0.45980326 0.09262894
v 0.03127992 0.33709593 0.19946475
v 0.00922338 0.21094274 0.26201443
v 0.10240328 0.35681936 0.17904239
v -0.25217047 0.54227424 0.00000000
v -0.34819371 -0.48669949 0.00000000
v 0.34950201 0.19269684 0.16048522
v -0.01940569 0.26801743 0.23571346
v -0.10977931 0.56338586 0.01334915
v -0.20038471 -0.10153587 0.25158250
v 0.05337524 -0.42466059 0.11883478
v -0.38706433 -0.14599165 0.13349905
v -0.36904036 0.03831948 0.17519807
v -0.00789803 -0.41880480 0.13247326
v 0.29570890 0.46475766 0.02766372
v -0.19067799 0.46554466 0.06733200
v -0.35863947 -0.20353933 0.14675120
v -0.05036485 0.21890818 0.25236692
v 0.51039135 -0.31181920 0.00000000
v 0.38394624 -0.28329660 0.08143259
v -0.34618359 0.20359768 0.14046549
v 0.40096085 -0.36621537 0.03456917
v 0.32041811 -0.37289456 0.08207946
v -0.55080200 -0.16113344 0.01349046
v 0.23094855 -0.14026312 0.23200981
v 0.35716753 0.15677690 0.15895909
v -0.16491452 0.08423759 0.26503190
v 0.39876036 0.01569367 0.14721564
v 0.35240260 0.44854273 0.01543391
v 0.33398395 0.30168358 0.11506788
v 0.01124116 0.41783654 0.13807033
v -0.19412893 -0.45512958 0.07193346
v 0.42972876 0.02926213 0.12129016
v -0.01255557 0.50779020 0.06299235
v -0.20068510 0.34889767 0.15739100
v 0.18688242 0.34413962 0.15117116
v 0.40961399 0.39531350 0.01827472
v 0.35423006 0.09713496 0.16939511
v 0.04303190 -0.59576648 0.00000000
v 0.46416388 -0.27754368 0.03450313
v 0.17795811 -0.10680463 0.25727783
v -0.15784137 0.46653112 0.07244978
v 0.01832728 0.28013437 0.23289516
v -0.15069170 0.05230704 0.27364337
v -0.14058575 -0.40084210 0.13141941
v 0.19726898 -0.35617367 0.15149655
v -0.36507686 0.42965027 0.02527888
v -0.32328548 0.30949334 0.11045270
v 0.29835982 -0.33141273 0.11588660
v 0.17964531 0.01564179 0.26845230
v -0.16607275 -0.50648217 0.04812009
v -0.42730795 -0.07714533 0.11369928
v -0.37789497 -0.11319343 0.14531581
v -0.31613199 -0.29240467 0.12552457
v 0.38038445 0.07384390 0.15270468
v 0.50413994 -0.06612805 0.07593528
v -0.45712209 0.38423386 0.00000000
v -0.08969717 0.59117037 0.00000000
v -0.59264344 -0.07474077 0.00000000
v 0.18844570 0.20548594 0.23286413
v 0.27830832 -0.02091694 0.23231080
v -0.20453438 -0.56193924 0.00000000
v -0.23244630 -0.08752361 0.23913338
v -0.20785489 -0.33493343 0.14407725
v -0.32469912 -0.25774365 0.14462063
v 0.12431020 0.45402202 0.10741771
v 0.46778754 0.11511880 0.07873904
v 0.07398254 -0.53343182 0.03536372
v -0.36488720 -0.02274757 0.16914018
v -0.18346028 -0.21190100 0.22462891
v 0.15822714 -0.19842202 0.24164594
v 0.02461871 -0.46715595 0.09057701
v -0.35005935 -0.41679568 0.03229860
v -0.46371059 0.04937588 0.10638066
v 0.25644615 0.24182030 0.18653396
v -0.21177402 0.38066813 0.13181144
v -0.49218404 -0.04882295 0.06872657
v 0.04505331 0.40807135 0.15188352
v 0.45257603 -0.12538685 0.10746542
v 0.34007645 -0.45565855 0.02474141
v -0.24946889 0.12436265 0.22843009
v -0.42929573 0.11383845 0.12597359
v 0.41264268 -0.33013810 0.04349809
v -0.08057045 0.43241199 0.11142243
v 0.29175801 0.44013708 0.04339433
v -0.39464689 -0.02145956 0.14722937
v 0.59738815 -0.02656682 0.00000000
v 0.32201885 -0.42760819 0.05322271
v 0.16753040 -0.57316428 0.00000000
v -0.44787578 0.34448651 0.01881158
v -0.08339666 -0.59179091 0.00000000
v -0.13949128 -0.55859169 0.01868550
v -0.53842467 -0.25937259 0.00000000
v 0.04481297 -0.24253495 0.23857363
v 0.55545964 0.13946663 0.01421993
v -0.48952385 0.07174558 0.08895784
v -0.48016600 0.32029276 0.01153214
v 0.06098638 0.56274053 0.02514506
v 0.03666116 -0.27362807 0.22641892
v 0.24938476 0.51504543 0.01513642
v 0.24727158 -0.32197444 0.15319550
v -0.00808013 -0.28124642 0.22524678
v -0.56681752 0.08924822 0.02163269
v -0.57406944 0.16454650 0.00000000
v 0.49407951 0.29091608 0.02077156
v 0.27274251 -0.53127831 0.00000000
v 0.58847582 -0.11705511 0.00000000
v 0.58847582 -0.11705511 0.00000000
v 0.56322896 -0.11288636 0.02635324
v 0.56322896 -0.11288636 0.02635324
v 0.51234609 -0.10341142 0.07501521
v 0.51234609 -0.10341142 0.07501521
v 0.53926277 -0.10845562 0.04946584
v 0.53926277 -0.10845562 0.04946584
v 0.49888572 0.33334476 0.00000000
v 0.49888572 0.33334476 0.00000000
v 0.47158200 0.31512281 0.03387354
v 0.47158200 0.31512281 0.03387354
v 0.45139414 -0.09188716 0.12557302
v 0.45139414 -0.09188716 0.12557302
v 0.48209921 -0.09768614 0.10059649
v 0.48209921 -0.09768614 0.10059649
v 0.44916999 0.29990831 0.05959119
v 0.44916999 0.29990831 0.05959119
v 0.42646837 0.28449175 0.08446784
v 0.42646837 0.28449175 0.08446784
v 0.41805664 -0.08562508 0.15009546
v 0.41805664 -0.08562508 0.15009546
v 0.37553370 0.24989195 0.13410352
v 0.37553370 0.24989195 0.13410352
v 0.40166181 0.26763627 0.10960796
v 0.40166181 0.26763627 0.10960796
v 0.34930420 -0.07263953 0.19365320
v 0.34930420 -0.07263953 0.19365320
v 0.38373014 -0.07914122 0.17267308
v 0.38373014 -0.07914122 0.17267308
v 0.34684095 0.23041433 0.15914837
v 0.34684095 0.23041433 0.15914837
v 0.33334476 -0.49888572 0.00000000
v 0.33334476 -0.49888572 0.00000000
v 0.30910447 -0.06507857 0.21548191
v 0.30910447 -0.06507857 0.21548191
v 0.30910447 -0.06507857 0.21548191
v 0.30910447 -0.06507857 0.21548191
v 0.31281817 0.20733176 0.18487439
v 0.31281817 0.20733176 0.18487439
v 0.29212159 0.06503782 0.22500455
v 0.29212159 0.06503782 0.22500455
v 0.28920069 -0.43587607 0.07355588
v 0.28920069 -0.43587607 0.07355588
v 0.30953640 -0.46558926 0.04047088
v 0.30953640 -0.46558926 0.04047088
v 0.28280562 0.10431235 0.22402436
v 0.28280562 0.10431235 0.22402436
v 0.26787859 -0.13830665 0.22097942
v 0.26787859 -0.13830665 0.22097942
v 0.28722978 -0.10546511 0.21927273
v 0.28722978 -0.10546511 0.21927273
v 0.27199954 0.14090239 0.22141024
v 0.27199954 0.14090239 0.22141024
v 0.26185542 0.17278443 0.21854991
v 0.26185542 0.17278443 0.21854991
v 0.26185542 0.17278443 0.21854991
v 0.26185542 0.17278443 0.21854991
v 0.28769961 0.19030121 0.20196329
v 0.28769961 0.19030121 0.20196329
v 0.25638902 -0.05524255 0.24583898
v 0.25638902 -0.05524255 0.24583898
v 0.24719223 -0.17133203 0.22160828
v 0.24719223 -0.17133203 0.22160828
v 0.23386067 -0.35480043 0.14939366
v 0.23386067 -0.35480043 0.14939366
v 0.20938723 0.13732691 0.25295132
v 0.20938723 0.13732691 0.25295132
v 0.23772183 0.15646650 0.23515160
v 0.23772183 0.15646650 0.23515160
v 0.23072481 0.19764674 0.22293524
v 0.23072481 0.19764674 0.22293524
v 0.20279977 0.21900170 0.22587331
v 0.20279977 0.21900170 0.22587331
v 0.17946132 -0.04093135 0.27369395
v 0.17946132 -0.04093135 0.27369395
v 0.21726750 -0.04798113 0.26212621
v 0.21726750 -0.04798113 0.26212621
v 0.19466677 -0.29738322 0.19165827
v 0.19466677 -0.29738322 0.19165827
v 0.21426953 -0.32609633 0.17133759
v 0.21426953 -0.32609633 0.17133759
v 0.17859456 0.11657529 0.26796058
v 0.17859456 0.11657529 0.26796058
v 0.17415600 -0.26735654 0.21100891
v 0.17415600 -0.26735654 0.21100891
v 0.17415600 -0.26735654 0.21100891
v 0.17415600 -0.26735654 0.21100891
v 0.13844995 -0.03331121 0.28234830
v 0.13844995 -0.03331121 0.28234830
v 0.11705511 0.58847582 0.00000000
v 0.11705511 0.58847582 0.00000000
v 0.10889823 -0.17224340 0.26555544
v 0.10889823 -0.17224340 0.26555544
v 0.11483874 -0.28332332 0.21654756
v 0.11483874 -0.28332332 0.21654756
v 0.11223466 0.27901456 0.22507951
v 0.11223466 0.27901456 0.22507951
v 0.11122047 0.56099516 0.02946597
v 0.11122047 0.56099516 0.02946597
v 0.10612373 0.53627408 0.05344394
v 0.10612373 0.53627408 0.05344394
v 0.10028554 0.50793988 0.08029734
v 0.10028554 0.50793988 0.08029734
v 0.08888341 0.45249325 0.12689592
v 0.08888341 0.45249325 0.12689592
v 0.09457993 0.48018870 0.10406030
v 0.09457993 0.48018870 0.10406030
v 0.08944770 -0.14397828 0.27484345
v 0.08944770 -0.14397828 0.27484345
v 0.07652583 0.04796923 0.28911063
v 0.07652583 0.04796923 0.28911063
v 0.08214827 0.41978380 0.15112376
v 0.08214827 0.41978380 0.15112376
v 0.06769414 0.34941980 0.19609252
v 0.06769414 0.34941980 0.19609252
v 0.07509685 0.38547015 0.17400806
v 0.07509685 0.38547015 0.17400806
v 0.05924906 0.30829886 0.21831481
v 0.05924906 0.30829886 0.21831481
v 0.05924906 0.30829886 0.21831481
v 0.05924906 0.30829886 0.21831481
v 0.08479892 0.29417783 0.22157677
v 0.08479892 0.29417783 0.22157677
v 0.09432865 -0.02520372 0.28723413
v 0.09432865 -0.02520372 0.28723413
v 0.05369503 -0.01778476 0.28883323
v 0.05369503 -0.01778476 0.28883323
v 0.03396152 0.18503265 0.27501392
v 0.03396152 0.18503265 0.27501392
v 0.01818895 0.10809048 0.28794089
v 0.01818895 0.10809048 0.28794089
v 0.02603714 0.14631972 0.28384486
v 0.02603714 0.14631972 0.28384486
v 0.01127403 0.07444169 0.28939939
v 0.01127403 0.07444169 0.28939939
v -0.01560295 0.29919043 0.22441114
v -0.01560295 0.29919043 0.22441114
v 0.01905397 0.30384290 0.22209346
v 0.01905397 0.30384290 0.22209346
v -0.02541005 -0.30985597 0.21249540
v -0.02541005 -0.30985597 0.21249540
v 0.03738611 0.02170912 0.28996867
v 0.03738611 0.02170912 0.28996867
v -0.00539751 -0.00689718 0.28887069
v 0.00399475 0.03899893 0.28984153
v 0.00399475 0.03899893 0.28984153
v -0.00539751 -0.00689718 0.28887069
v -0.00539751 -0.00689718 0.28887069
v -0.00539751 -0.00689718 0.28887069
v -0.00539751 -0.00689718 0.28887069
v -0.00539751 -0.00689718 0.28887069
v -0.00539751 -0.00689718 0.28887069
v -0.00539751 -0.00689718 0.28887069
v 0.02587868 -0.01266507 0.28897578
v 0.02587868 -0.01266507 0.28897578
v -0.02351216 -0.09999827 0.28330162
v -0.02351216 -0.09999827 0.28330162
v -0.01542005 -0.05804632 0.28669527
v -0.01542005 -0.05804632 0.28669527
v -0.07977096 -0.05618788 0.28387296
v -0.07977096 -0.05618788 0.28387296
v -0.04727518 -0.03466696 0.28682449
v -0.04727518 -0.03466696 0.28682449
v -0.06504017 -0.31508327 0.20779173
v -0.05853635 -0.28122762 0.22743459
v -0.05853635 -0.28122762 0.22743459
v -0.09650546 0.01251042 0.28510022
v -0.09650546 0.01251042 0.28510022
v -0.05633154 0.00391440 0.28763634
v -0.05633154 0.00391440 0.28763634
v -0.07427936 0.09918582 0.28452879
v -0.07427936 0.09918582 0.28452879
v -0.06504017 -0.31508327 0.20779173
v -0.06504017 -0.31508327 0.20779173
v -0.06504017 -0.31508327 0.20779173
v -0.08586590 -0.42444792 0.14213422
v -0.08586590 -0.42444792 0.14213422
v -0.09688760 0.13400617 0.27853915
v -0.09688760 0.13400617 0.27853915
v -0.11180378 -0.07740760 0.27914011
v -0.11180378 -0.07740760 0.27914011
v -0.10463807 -0.52348787 0.06311897
v -0.10463807 -0.52348787 0.06311897
v -0.11071783 -0.55556482 0.03321328
v -0.11071783 -0.55556482 0.03321328
v -0.11705511 -0.58847582 0.00000000
v -0.11705511 -0.58847582 0.00000000
v -0.13541389 0.27360669 0.22051904
v -0.13541389 0.27360669 0.22051904
v -0.14164908 -0.09718620 0.27284104
v -0.14164908 -0.09718620 0.27284104
v -0.17206669 0.02859430 0.27366787
v -0.17206669 0.02859430 0.27366787
v -0.13505171 0.02073493 0.28052920
v -0.13505171 0.02073493 0.28052920
v -0.17938893 0.26086593 0.21494071
v -0.17938893 0.26086593 0.21494071
v -0.17938893 0.26086593 0.21494071
v -0.17938893 0.26086593 0.21494071
v -0.20606209 -0.13979143 0.24663757
v -0.20606209 -0.13979143 0.24663757
v -0.17384247 -0.11853852 0.26203120
v -0.17384247 -0.11853852 0.26203120
v -0.20018071 0.29287609 0.19462915
v -0.20018071 0.29287609 0.19462915
v -0.21105097 0.03680719 0.26286608
v -0.21105097 0.03680719 0.26286608
v -0.22720678 0.19970039 0.22037382
v -0.22720678 0.19970039 0.22037382
v -0.20308162 0.23130098 0.21810444
v -0.20308162 0.23130098 0.21810444
v -0.21178795 -0.22383581 0.21377303
v -0.21178795 -0.22383581 0.21377303
v -0.23797490 -0.16081470 0.22778681
v -0.23797490 -0.16081470 0.22778681
v -0.23752075 0.35035113 0.15266126
v -0.23752075 0.35035113 0.15266126
v -0.21907087 0.32195038 0.17416961
v -0.21907087 0.32195038 0.17416961
v -0.25261679 0.16396831 0.22120583
v -0.25261679 0.16396831 0.22120583
v -0.25467902 0.37682933 0.12985034
v -0.25467902 0.37682933 0.12985034
v -0.28249323 0.05182253 0.22936705
v -0.28249323 0.05182253 0.22936705
v -0.24984126 0.04496212 0.24640957
v -0.24984126 0.04496212 0.24640957
v -0.26772919 -0.18041420 0.20732893
v -0.26772919 -0.18041420 0.20732893
v -0.26772919 -0.18041420 0.20732893
v -0.26772919 -0.18041420 0.20732893
v -0.23969364 -0.20249549 0.21087562
v -0.23969364 -0.20249549 0.21087562
v -0.28953433 -0.09901408 0.21536714
v -0.28953433 -0.09901408 0.21536714
v -0.27847791 -0.14256364 0.21172932
v -0.27847791 -0.14256364 0.21172932
v -0.27139866 0.40260822 0.10597790
v -0.27139866 0.40260822 0.10597790
v -0.28748956 0.42739570 0.08139905
v -0.28748956 0.42739570 0.08139905
v -0.29888567 -0.05512273 0.21699084
v -0.29888567 -0.05512273 0.21699084
v -0.30780816 -0.00187812 0.21572518
v -0.30780816 -0.00187812 0.21572518
v -0.31480426 0.05860887 0.21043049
v -0.30139762 -0.20269953 0.18564856
v -0.30139762 -0.20269953 0.18564856
v -0.31480426 0.05860887 0.21043049
v -0.31480426 0.05860887 0.21043049
v -0.31480426 0.05860887 0.21043049
v -0.33334476 0.49888572 0.00000000
v -0.33334476 0.49888572 0.00000000
v -0.31668523 0.47246897 0.03198845
v -0.31668523 0.47246897 0.03198845
v -0.30221054 0.45011234 0.05698010
v -0.30221054 0.45011234 0.05698010
v -0.38593897 0.07362247 0.16956212
v -0.38593897 0.07362247 0.16956212
v -0.35135713 0.06632444 0.19043817
v -0.35135713 0.06632444 0.19043817
v -0.38819063 -0.26017752 0.11751010
v -0.38819063 -0.26017752 0.11751010
v -0.42016077 0.08085062 0.14718984
v -0.42016077 0.08085062 0.14718984
v -0.41517809 -0.27804640 0.09166843
v -0.41517809 -0.27804640 0.09166843
v -0.44186240 -0.29571265 0.06500182
v -0.44186240 -0.29571265 0.06500182
v -0.49888572 -0.33334476 0.00000000
v -0.49888572 -0.33334476 0.00000000
v -0.46920216 -0.31380126 0.03500068
v -0.46920216 -0.31380126 0.03500068
v -0.51767302 0.10150043 0.06955557
v -0.51767302 0.10150043 0.06955557
v -0.58847582 0.11705511 0.00000000
v -0.58847582 0.11705511 0.00000000
v 0.05017767 0.26411894 0.24413139
v 0.05017767 0.26411894 0.24413139
v 0.04183414 0.22345904 0.26233873
v 0.04183414 0.22345904 0.26233873
v -0.16290924 0.23549636 0.23225233
v -0.16290924 0.23549636 0.23225233
v 0.15129252 -0.23395772 0.23404068
v 0.15129252 -0.23395772 0.23404068
v 0.12936091 -0.20200637 0.25207701
v 0.12936091 -0.20200637 0.25207701
v 0.14723188 0.09547733 0.27801105
v 0.14723188 0.09547733 0.27801105
v 0.11310738 0.07253937 0.28532237
v 0.11310738 0.07253937 0.28532237
v -0.12095267 0.17093843 0.26726121
v -0.12095267 0.17093843 0.26726121
v -0.14310533 0.20501624 0.25086018
v -0.14310533 0.20501624 0.25086018
v -0.05089436 -0.24160089 0.24717057
v -0.05089436 -0.24160089 0.24717057
v -0.04469470 -0.20956315 0.26051766
v -0.04469470 -0.20956315 0.26051766
v -0.05390479 0.06775816 0.28754905
v -0.05390479 0.06775816 0.28754905
v -0.03261882 0.03491528 0.28892836
v -0.03261882 0.03491528 0.28892836
v 0.06880937 -0.11406496 0.28095227
v 0.06880937 -0.11406496 0.28095227
v 0.04724394 -0.08285870 0.28523302
v 0.04724394 -0.08285870 0.28523302
v 0.02305381 -0.04791768 0.28775337
v 0.02305381 -0.04791768 0.28775337
v 0.25285009 -0.38259935 0.12522694
v 0.25285009 -0.38259935 0.12522694
v 0.27058932 -0.40859038 0.10072485
v 0.27058932 -0.40859038 0.10072485
v -0.45698717 0.08866553 0.12010714
v -0.45698717 0.08866553 0.12010714
v -0.48760098 0.09514164 0.09504683
v -0.48760098 0.09514164 0.09504683
v -0.07211883 -0.35219949 0.18762544
v -0.07211883 -0.35219949 0.18762544
v -0.07911734 -0.38894081 0.16551030
v -0.07911734 -0.38894081 0.16551030
v -0.29601455 0.09263597 0.21514452
v -0.29601455 0.09263597 0.21514452
v -0.27643245 0.12616682 0.21877407
v -0.27643245 0.12616682 0.21877407
v -0.09242262 -0.45908681 0.11691491
v -0.09242262 -0.45908681 0.11691491
v -0.09864695 -0.49190375 0.09012882
v -0.09864695 -0.49190375 0.09012882
v -0.18329881 -0.24391161 0.21503596
v -0.18329881 -0.24391161 0.21503596
v 0.29999116 0.02056522 0.22349592
v 0.29999116 0.02056522 0.22349592
v 0.30519721 -0.01871463 0.22064812
v 0.30519721 -0.01871463 0.22064812
v 0.22402528 -0.20385766 0.21939029
v 0.22402528 -0.20385766 0.21939029
v 0.19939350 -0.23620650 0.21579577
v 0.19939350 -0.23620650 0.21579577
v -0.05742440 0.29209468 0.22548915
v -0.05742440 0.29209468 0.22548915
v -0.09594586 0.28353983 0.22373997
v -0.09594586 0.28353983 0.22373997
v -0.11069092 -0.28986064 0.21278314
v -0.11069092 -0.28986064 0.21278314
v -0.15438260 -0.26307651 0.21503316
v -0.15438260 -0.26307651 0.21503316
v 0.01978297 -0.30282918 0.21620500
v 0.01978297 -0.30282918 0.21620500
v 0.06679513 -0.29400417 0.21768798
v 0.06679513 -0.29400417 0.21768798
v -0.33077210 -0.22215468 0.16451284
v -0.33077210 -0.22215468 0.16451284
v -0.36006826 -0.24155881 0.14167948
v -0.36006826 -0.24155881 0.14167948
v 0.14311634 0.25964552 0.22665344
v 0.14311634 0.25964552 0.22665344
v 0.17420749 0.23927803 0.22721149
v 0.17420749 0.23927803 0.22721149
v -0.54703337 0.10774694 0.04181641
v -0.54703337 0.10774694 0.04181641
v -0.56785458 0.11227905 0.02159024
v -0.56785458 0.11227905 0.02159024
v -0.03843864 -0.17732275 0.26976067
v -0.03843864 -0.17732275 0.26976067
v -0.03155136 -0.14169581 0.27741703
v -0.03155136 -0.14169581 0.27741703
f 658 1032 1040
f 480 747 568
f 546 741 126
f 566 59 508
f 611 741 680
f 459 747 105
f 51 396 694
f 757 465 761
f 872 413 29
f 545 656 25
f 952 940 950
f 523 712 11
f 521 615 12
f 750 575 930
f 798 740 4
f 420 4 634
f 730 533 3
f 944 596 942
f 753 584 461
f 695 633 22
f 875 555 410
f 696 627 449
f 30 449 627
f 648 819 49
f 627 857 819
f 412 915 975
f 599 974 986
f 793 556 400
f 665 400 556
f 405 707 903
f 699 456 194
f 662 606 1126
f 632 1127 1124
f 702 421 313
f 649 772 576
f 813 706 421
f 830 752 559
f 830 769 512
f 327 559 752
f 357 492 703
f 450 482 1213
f 520 384 700
f 585 726 782
f 389 700 560
f 792 776 681
f 455 395 427
f 794 387 670
f 794 390 387
f 393 938 613
f 561 391 717
f 932 511 569
f 383 831 829
f 569 829 409
f 372 409 829
f 775 534 567
f 739 756 356
f 365 675 586
f 882 476 347
f 840 315 563
f 1196 597 1194
f 315 401 475
f 291 475 790
f 697 297 563
f 877 851 286
f 698 467 636
f 641 770 193
f 193 770 704
f 173 570 196
f 630 1041 933
f 173 196 474
f 173 176 744
f 1041 630 1043
f 239 836 746
f 1048 901 716
f 125 574 144
f 901 574 137
f 901 1047 144
f 744 1045 173
f 744 488 1046
f 919 237 218
f 198 430 214
f 218 731 733
f 144 426 125
f 144 1054 426
f 488 744 176
f 237 437 214
f 214 211 667
f 157 642 839
f 1057 839 1058
f 667 837 179
f 437 229 211
f 229 437 682
f 211 209 199
f 211 214 437
f 157 1039 142
f 157 1065 1039
f 1061 1056 837
f 209 229 604
f 1284 604 240
f 209 1283 1078
f 1078 199 209
f 1060 878 1221
f 843 878 1079
f 1282 843 1079
f 1223 1070 169
f 169 158 818
f 1222 188 838
f 685 736 853
f 1071 838 191
f 188 1222 1221
f 843 736 188
f 184 175 1074
f 163 166 175
f 166 169 175
f 184 1073 182
f 1073 184 1074
f 162 184 182
f 184 163 175
f 1073 1076 182
f 182 1076 177
f 1077 1072 217
f 1085 1087 1086
f 1087 1085 177
f 1088 1077 204
f 1250 1096 1095
f 167 1250 1249
f 1100 190 1251
f 1104 1101 1093
f 207 1104 1103
f 1111 1105 1090
f 212 1111 1110
f 1112 1244 221
f 1244 1112 1091
f 1245 1088 204
f 1088 1245 1089
f 1085 1052 177
f 187 1084 1069
f 514 747 94
f 110 788 721
f 759 448 81
f 771 110 130
f 771 642 625
f 625 871 771
f 112 1298 1301
f 1299 122 1300
f 442 139 122
f 166 148 158
f 147 166 163
f 163 184 162
f 557 711 41
f 448 593 81
f 74 785 84
f 609 63 673
f 93 101 785
f 791 101 625
f 84 68 74
f 101 791 669
f 96 910 78
f 669 78 84
f 112 142 1298
f 108 1015 90
f 1015 108 1301
f 108 90 96
f 148 139 158
f 134 147 133
f 118 134 133
f 134 119 139
f 147 148 166
f 147 134 148
f 182 1052 162
f 153 163 162
f 766 497 43
f 766 666 711
f 961 766 967
f 683 425 75
f 964 43 583
f 84 425 68
f 75 78 910
f 86 1013 998
f 86 981 75
f 119 895 122
f 895 1012 1014
f 118 119 134
f 1008 118 1025
f 1232 153 162
f 1025 133 1231
f 153 1232 1231
f 153 1231 133
f 182 177 1052
f 958 20 483
f 523 767 16
f 601 966 965
f 491 842 447
f 532 433 20
f 965 972 491
f 441 447 32
f 842 980 56
f 56 688 543
f 861 749 45
f 995 543 688
f 543 995 989
f 91 1010 1009
f 91 85 988
f 1009 1024 97
f 1024 797 97
f 97 91 1009
f 799 1233 136
f 1053 136 1233
f 1230 799 797
f 767 433 28
f 634 812 577
f 45 24 32
f 24 45 37
f 64 873 749
f 71 64 543
f 44 873 71
f 103 85 97
f 85 983 988
f 103 797 111
f 87 111 100
f 136 131 121
f 797 799 127
f 127 799 121
f 902 812 16
f 420 634 577
f 863 868 31
f 653 19 424
f 52 863 434
f 863 619 868
f 44 55 67
f 890 44 434
f 982 55 71
f 494 1274 1277
f 55 494 67
f 439 103 87
f 439 1275 983
f 885 100 111
f 885 127 121
f 117 131 1031
f 117 885 121
f 131 136 187
f 804 6 463
f 8 533 789
f 891 957 946
f 38 23 619
f 954 18 540
f 42 540 23
f 42 963 540
f 494 60 52
f 60 1277 979
f 807 968 971
f 501 80 87
f 501 1019 1003
f 131 1067 1031
f 406 10 549
f 671 406 947
f 422 33 498
f 21 592 498
f 955 914 956
f 35 422 962
f 48 970 969
f 70 484 48
f 969 976 70
f 66 992 991
f 992 66 70
f 443 990 993
f 624 1018 1017
f 98 624 876
f 1017 1030 115
f 115 146 138
f 115 138 677
f 624 1017 115
f 167 146 1066
f 146 115 1030
f 1066 1068 167
f 146 167 149
f 21 587 805
f 464 629 815
f 14 875 637
f 34 814 628
f 46 814 471
f 22 805 464
f 800 814 46
f 800 811 61
f 46 62 800
f 77 1004 89
f 811 77 89
f 98 860 443
f 98 825 624
f 107 876 123
f 149 138 146
f 855 54 39
f 26 857 627
f 92 76 89
f 76 61 811
f 1004 77 991
f 89 1278 92
f 107 104 860
f 104 107 120
f 104 796 1279
f 104 1279 1005
f 626 123 135
f 154 138 149
f 154 677 138
f 149 1247 154
f 677 154 135
f 525 54 581
f 915 923 987
f 72 581 884
f 674 884 581
f 525 858 57
f 984 923 745
f 551 82 69
f 1252 72 651
f 72 1252 1255
f 651 936 1007
f 106 1281 1029
f 796 1227 1280
f 120 906 796
f 906 1227 796
f 1034 626 135
f 154 1247 1051
f 149 1249 1247
f 795 793 639
f 88 639 793
f 714 986 985
f 639 605 99
f 109 99 686
f 881 686 1006
f 686 605 1253
f 686 881 109
f 116 1022 1021
f 1026 128 1021
f 1026 1036 128
f 1226 503 143
f 156 143 503
f 150 1229 1035
f 150 156 503
f 143 156 165
f 1035 1050 161
f 181 171 1246
f 190 181 1248
f 181 1246 1248
f 402 639 88
f 536 114 828
f 466 152 132
f 635 405 600
f 145 828 124
f 124 129 145
f 522 846 200
f 178 672 607
f 129 672 145
f 151 159 168
f 168 186 183
f 165 1293 1037
f 180 192 205
f 181 768 171
f 174 590 444
f 160 155 140
f 444 522 174
f 201 846 178
f 607 168 183
f 1292 168 159
f 493 1291 1083
f 1291 493 186
f 189 170 180
f 937 1082 1290
f 929 170 189
f 189 180 205
f 606 668 1125
f 200 419 197
f 765 668 460
f 419 495 735
f 201 724 849
f 495 213 1263
f 724 213 495
f 210 202 493
f 210 1083 1115
f 504 1239 1108
f 1239 504 203
f 1308 192 185
f 203 1241 1239
f 1307 205 192
f 1100 1099 190
f 632 1124 266
f 1269 787 1270
f 477 787 258
f 284 258 272
f 490 1118 252
f 252 246 446
f 446 880 252
f 246 1262 1261
f 241 485 246
f 446 246 485
f 241 1261 1116
f 1238 645 228
f 224 1238 1240
f 224 1240 1306
f 1306 235 224
f 235 1306 1309
f 216 1309 1098
f 1098 1101 207
f 489 294 272
f 306 288 899
f 268 489 446
f 268 288 489
f 306 899 314
f 294 489 288
f 275 268 485
f 899 275 295
f 275 267 287
f 287 1289 290
f 645 254 228
f 277 1288 254
f 254 1287 228
f 645 259 254
f 224 235 621
f 235 236 248
f 621 235 248
f 207 216 1098
f 326 580 528
f 432 644 440
f 492 908 703
f 317 326 528
f 306 314 326
f 440 580 778
f 287 295 275
f 302 322 435
f 1289 287 267
f 290 1273 1154
f 1154 309 290
f 302 287 290
f 281 905 277
f 905 1155 1272
f 277 1272 1288
f 259 621 261
f 261 248 260
f 261 260 280
f 244 236 233
f 233 236 216
f 216 207 233
f 1210 806 530
f 806 370 734
f 440 778 889
f 541 889 331
f 806 734 360
f 541 331 435
f 1205 718 341
f 311 322 309
f 900 1294 1297
f 311 1174 1173
f 1173 1189 311
f 311 500 322
f 738 1175 1155
f 280 281 261
f 1143 738 280
f 280 1144 1143
f 280 260 1144
f 233 1122 244
f 244 1122 1132
f 1132 260 244
f 1103 1122 233
f 571 760 366
f 547 1211 379
f 553 655 571
f 553 571 366
f 1204 760 1209
f 847 553 354
f 1204 366 760
f 835 325 335
f 350 548 835
f 548 1295 1190
f 335 1178 1177
f 1178 335 325
f 308 289 898
f 308 312 1176
f 1157 1179 1171
f 1142 845 289
f 293 845 271
f 271 1145 1133
f 250 271 1133
f 250 1133 1123
f 1102 230 1123
f 243 212 1110
f 381 537 445
f 681 380 618
f 388 389 560
f 537 380 445
f 888 678 368
f 329 835 335
f 678 345 342
f 1177 1184 329
f 345 329 342
f 312 1185 1176
f 898 289 845
f 312 898 305
f 250 230 243
f 212 230 1102
f 445 776 381
f 912 618 515
f 887 618 380
f 378 373 588
f 912 470 664
f 436 921 364
f 436 678 351
f 1184 342 329
f 1184 1186 333
f 1186 344 333
f 319 1185 312
f 293 663 305
f 250 622 264
f 250 264 271
f 664 387 390
f 670 479 794
f 479 670 1216
f 1302 938 479
f 676 588 373
f 470 407 387
f 373 921 676
f 909 539 1256
f 355 344 848
f 848 367 355
f 848 1202 1201
f 1202 848 340
f 320 300 1168
f 320 1188 1187
f 616 719 300
f 1148 719 282
f 1168 1167 320
f 1135 1148 282
f 1110 1136 243
f 622 1136 1135
f 1136 622 243
f 212 243 230
f 732 723 562
f 1258 723 1217
f 1257 784 1258
f 527 764 361
f 623 377 917
f 462 376 374
f 352 363 623
f 917 1207 362
f 332 755 348
f 336 1264 1267
f 1264 336 332
f 296 1169 1149
f 285 301 296
f 301 316 296
f 879 1134 1137
f 274 862 285
f 249 1137 1109
f 221 249 1109
f 579 808 758
f 831 720 829
f 829 720 372
f 764 363 353
f 361 376 527
f 764 527 363
f 352 755 353
f 856 339 478
f 353 856 764
f 353 755 338
f 339 338 324
f 338 336 323
f 323 1163 603
f 1266 916 1162
f 657 257 276
f 279 657 276
f 292 301 285
f 257 862 253
f 534 775 358
f 359 654 758
f 356 756 567
f 358 343 534
f 321 538 334
f 339 801 478
f 801 324 603
f 1163 323 1267
f 1150 307 603
f 279 438 292
f 834 1162 438
f 657 292 285
f 257 657 862
f 257 234 262
f 231 253 249
f 253 231 234
f 534 816 356
f 739 598 476
f 476 1197 347
f 330 318 589
f 526 328 762
f 1182 598 526
f 318 330 538
f 303 318 538
f 318 1159 589
f 589 486 330
f 307 321 801
f 1160 303 1146
f 554 1153 1141
f 554 1141 1146
f 834 620 278
f 278 620 1237
f 1152 1225 1140
f 278 1152 1151
f 262 263 276
f 276 620 279
f 231 1114 234
f 1114 1120 234
f 231 1243 1114
f 1243 231 221
f 524 591 299
f 310 1199 1183
f 911 496 299
f 273 911 428
f 496 524 299
f 827 544 428
f 1161 283 870
f 269 827 691
f 283 1147 270
f 255 1224 1236
f 1224 1131 1139
f 247 227 242
f 227 238 222
f 247 242 255
f 238 1235 1121
f 1113 217 226
f 743 226 217
f 1121 222 238
f 204 1242 1245
f 1242 217 1113
f 650 265 877
f 251 763 544
f 919 652 237
f 535 763 256
f 245 682 269
f 270 240 691
f 682 693 251
f 604 1284 1283
f 604 245 240
f 232 255 242
f 232 1282 1285
f 232 1131 255
f 242 206 232
f 217 204 1077
f 208 222 226
f 864 832 396
f 514 920 568
f 397 711 666
f 802 844 893
f 475 291 563
f 88 714 402
f 460 668 403
f 462 386 732
f 391 542 404
f 172 600 903
f 547 379 640
f 387 407 670
f 571 408 760
f 637 696 822
f 638 388 481
f 411 708 821
f 25 748 413
f 660 725 414
f 415 126 611
f 385 928 418
f 583 683 973
f 53 865 497
f 901 144 574
f 1253 605 1254
f 219 419 735
f 419 849 495
f 852 553 366
f 737 702 576
f 752 813 327
f 498 914 422
f 69 50 65
f 376 808 374
f 19 653 17
f 284 304 867
f 777 294 429
f 746 467 698
f 1058 426 1054
f 531 754 392
f 427 395 646
f 881 552 109
f 827 283 691
f 430 866 731
f 218 237 430
f 608 334 713
f 378 364 373
f 328 431 816
f 816 534 343
f 492 357 734
f 11 20 433
f 433 532 28
f 44 890 873
f 61 65 47
f 79 76 92
f 921 904 355
f 801 603 307
f 608 478 334
f 853 242 227
f 325 548 1190
f 210 213 202
f 1057 157 839
f 916 301 438
f 1162 834 1151
f 270 691 283
f 128 141 116
f 165 156 929
f 70 48 969
f 860 104 1005
f 439 80 1275
f 341 718 440
f 767 28 441
f 441 491 447
f 1012 895 102
f 1151 834 278
f 319 320 1187
f 312 308 898
f 156 150 170
f 444 152 466
f 904 333 344
f 209 211 229
f 94 519 759
f 281 277 259
f 817 203 504
f 375 655 537
f 558 922 1
f 533 730 922
f 880 490 252
f 1220 164 1064
f 308 1179 1157
f 994 91 988
f 102 1008 1011
f 1225 278 1237
f 1224 255 1131
f 1003 896 501
f 1226 143 1027
f 160 846 155
f 595 40 57
f 191 1075 1071
f 262 1120 1234
f 1084 187 1053
f 1135 282 622
f 1149 274 296
f 135 1051 1034
f 1241 205 1307
f 1243 221 1244
f 1242 204 217
f 167 1249 149
f 1069 1067 187
f 701 925 369
f 820 864 774
f 809 924 780
f 631 802 453
f 513 740 454
f 393 455 427
f 662 926 456
f 313 783 457
f 480 105 747
f 617 137 459
f 197 460 722
f 660 549 461
f 13 753 461
f 376 462 562
f 239 265 650
f 73 465 757
f 673 593 74
f 132 536 466
f 444 155 522
f 381 375 537
f 384 408 659
f 775 579 654
f 463 469 15
f 709 813 304
f 387 664 470
f 429 317 777
f 349 359 550
f 359 758 550
f 378 887 364
f 69 65 551
f 95 551 79
f 54 472 39
f 812 750 473
f 51 564 774
f 176 474 690
f 529 220 869
f 310 475 401
f 476 1198 1197
f 886 477 737
f 856 349 550
f 693 652 251
f 871 788 110
f 105 480 741
f 792 388 776
f 141 129 552
f 159 128 1036
f 386 831 647
f 350 835 345
f 79 106 95
f 333 904 351
f 66 62 484
f 267 485 241
f 485 268 446
f 861 45 447
f 1164 762 589
f 692 588 487
f 367 539 487
f 578 176 690
f 767 441 32
f 19 31 868
f 489 272 880
f 294 288 429
f 490 258 787
f 956 671 947
f 957 18 954
f 601 441 28
f 703 337 644
f 90 1015 1013
f 493 183 186
f 1267 323 336
f 1042 658 1040
f 630 1045 1043
f 335 1177 329
f 309 1154 1174
f 159 1036 1292
f 1281 92 1278
f 66 991 77
f 52 67 494
f 837 1081 1061
f 307 1150 1153
f 1286 267 241
f 839 130 426
f 125 130 110
f 50 47 65
f 208 215 222
f 163 153 147
f 668 606 403
f 201 849 200
f 496 273 535
f 557 53 497
f 587 498 33
f 114 639 99
f 80 501 896
f 301 292 438
f 299 1181 1165
f 120 107 123
f 281 259 261
f 170 929 156
f 318 1160 1159
f 499 660 596
f 499 948 406
f 936 651 82
f 1206 539 367
f 970 35 962
f 971 42 807
f 900 541 500
f 818 442 164
f 1220 1223 818
f 1012 1011 997
f 895 119 102
f 206 853 736
f 100 501 87
f 281 280 738
f 1169 316 1166
f 1002 825 502
f 825 443 502
f 277 254 259
f 626 120 123
f 503 1226 1229
f 228 1107 1238
f 504 1108 937
f 642 157 142
f 106 1029 1020
f 348 1203 332
f 865 68 58
f 425 683 58
f 1260 210 1115
f 635 600 729
f 1024 1230 797
f 191 743 1075
f 1234 263 262
f 226 1121 1113
f 719 1148 1168
f 1246 171 1050
f 3 943 730
f 824 786 641
f 172 643 874
f 506 392 646
f 854 14 637
f 680 935 508
f 315 510 597
f 512 313 706
f 513 454 2
f 575 750 634
f 826 697 563
f 694 920 757
f 648 30 819
f 555 918 410
f 588 515 378
f 701 756 675
f 41 564 516
f 903 590 517
f 810 903 517
f 152 518 132
f 113 721 519
f 708 687 821
f 7 521 712
f 174 907 722
f 409 372 468
f 576 702 649
f 833 772 417
f 160 145 672
f 145 140 828
f 591 790 310
f 744 1049 1045
f 525 40 472
f 565 195 403
f 787 477 266
f 526 1180 1182
f 623 363 527
f 529 636 467
f 869 474 196
f 432 530 360
f 530 1208 1210
f 792 912 531
f 392 481 531
f 20 958 960
f 966 601 532
f 3 8 949
f 872 774 564
f 775 567 468
f 376 361 808
f 805 36 464
f 673 63 465
f 535 273 763
f 535 286 496
f 536 140 466
f 536 132 795
f 241 246 1261
f 538 713 334
f 62 66 77
f 108 96 791
f 1220 818 164
f 825 1002 1018
f 17 24 27
f 18 582 540
f 1229 150 503
f 368 887 371
f 1241 203 205
f 745 72 1255
f 1216 931 1259
f 404 723 732
f 595 915 49
f 113 459 137
f 1232 162 1052
f 322 500 541
f 543 64 56
f 543 989 71
f 273 428 544
f 846 201 200
f 353 338 339
f 948 499 944
f 8 891 946
f 545 959 953
f 397 545 25
f 105 617 459
f 314 295 435
f 401 1199 310
f 401 597 1196
f 226 743 208
f 913 1059 1055
f 578 731 866
f 1178 325 1170
f 1179 308 1176
f 345 888 350
f 45 749 37
f 385 547 640
f 1211 547 1215
f 1012 102 1011
f 1013 86 90
f 354 852 548
f 1083 210 493
f 1108 1082 937
f 992 70 976
f 443 993 502
f 1201 1206 367
f 980 842 972
f 683 981 973
f 270 1138 1130
f 1038 164 442
f 1265 316 1266
f 1264 332 1193
f 1268 735 1119
f 216 236 235
f 921 436 904
f 1160 318 303
f 870 1158 1161
f 1273 290 1289
f 1184 333 342
f 319 1187 1185
f 423 36 803
f 275 899 268
f 80 896 1275
f 1274 55 982
f 499 549 660
f 549 13 461
f 1150 603 1163
f 279 292 657
f 91 97 85
f 1283 209 604
f 432 440 718
f 776 388 560
f 213 210 1260
f 606 662 225
f 656 545 953
f 349 856 478
f 52 38 863
f 320 319 300
f 65 79 551
f 135 154 1051
f 1234 1237 263
f 1236 247 255
f 685 215 208
f 215 853 227
f 471 484 46
f 285 296 274
f 124 552 129
f 1087 177 1076
f 469 463 424
f 424 868 469
f 554 1146 303
f 429 306 317
f 430 198 866
f 753 875 14
f 705 594 556
f 400 715 83
f 516 557 41
f 105 741 546
f 658 546 126
f 109 828 99
f 789 684 6
f 706 830 512
f 700 659 560
f 265 698 751
f 650 535 256
f 483 11 12
f 200 907 522
f 24 37 27
f 949 945 3
f 561 383 728
f 377 376 562
f 742 751 826
f 41 397 564
f 566 850 832
f 566 480 568
f 984 745 1255
f 786 636 223
f 857 918 472
f 567 534 356
f 747 514 568
f 689 304 421
f 925 932 409
f 569 511 383
f 710 770 641
f 408 375 659
f 371 847 888
f 481 572 638
f 431 739 356
f 321 554 303
f 573 220 733
f 113 574 721
f 575 513 2
f 886 833 632
f 313 457 649
f 17 902 661
f 653 9 577
f 789 804 891
f 913 578 866
f 579 775 372
f 445 681 776
f 580 326 778
f 116 881 1022
f 1023 95 1020
f 884 674 69
f 651 884 82
f 18 15 582
f 23 540 582
f 389 859 585
f 585 782 520
f 586 347 505
f 498 587 21
f 34 805 587
f 588 676 487
f 1159 1164 589
f 762 486 589
f 174 517 590
f 370 806 482
f 734 370 687
f 1181 299 591
f 341 1297 1205
f 273 496 911
f 633 10 592
f 306 326 317
f 407 692 909
f 593 673 81
f 593 93 785
f 707 152 590
f 819 595 49
f 595 57 923
f 668 765 1271
f 1270 266 1124
f 596 944 499
f 597 401 315
f 284 294 777
f 598 1182 1198
f 526 431 328
f 599 715 509
f 600 781 729
f 600 405 903
f 601 965 491
f 1212 1215 602
f 958 483 952
f 55 1274 494
f 323 324 338
f 89 1004 1278
f 604 229 245
f 404 1303 1217
f 842 56 861
f 328 343 486
f 35 48 471
f 402 605 639
f 272 258 490
f 258 284 867
f 606 225 403
f 606 1125 1126
f 309 302 290
f 540 963 954
f 295 314 899
f 426 1058 839
f 1059 913 179
f 199 1078 1081
f 1174 311 309
f 1175 1156 1172
f 1152 278 1225
f 1153 554 307
f 1118 490 1269
f 1262 246 252
f 1280 1227 1028
f 1186 340 344
f 183 773 607
f 607 151 168
f 1116 1286 241
f 346 608 713
f 608 349 478
f 68 865 609
f 74 68 609
f 552 124 109
f 362 1207 1200
f 1292 186 168
f 1293 934 1290
f 179 913 198
f 1001 981 86
f 6 610 463
f 9 610 420
f 269 251 544
f 94 73 514
f 413 872 25
f 450 612 370
f 614 933 1041
f 616 312 305
f 616 300 319
f 836 218 733
f 239 919 836
f 617 546 398
f 137 617 716
f 227 222 215
f 238 247 1235
f 618 378 515
f 289 308 1157
f 582 619 23
f 403 195 460
f 620 263 1237
f 968 807 60
f 862 879 253
f 118 102 119
f 1168 300 719
f 316 301 916
f 621 248 261
f 622 250 243
f 161 170 150
f 352 623 362
f 623 527 377
f 1016 1019 100
f 1016 100 117
f 624 115 876
f 108 791 112
f 1103 233 207
f 626 1034 1228
f 27 890 31
f 890 37 873
f 627 819 30
f 40 857 472
f 61 628 800
f 814 34 587
f 423 855 36
f 629 39 555
f 832 727 59
f 570 933 770
f 630 173 1045
f 399 786 844
f 631 453 697
f 920 850 568
f 266 886 632
f 633 21 22
f 4 420 798
f 924 809 635
f 405 635 594
f 925 468 369
f 451 382 932
f 399 698 636
f 14 854 507
f 452 859 638
f 790 851 291
f 512 841 783
f 769 830 908
f 408 384 379
f 223 710 641
f 130 839 642
f 315 475 563
f 714 599 986
f 643 172 810
f 172 874 781
f 644 432 357
f 644 580 440
f 645 621 259
f 94 113 519
f 646 392 754
f 647 717 386
f 383 561 647
f 648 49 412
f 145 160 140
f 1195 347 1197
f 649 298 772
f 265 239 746
f 324 323 603
f 651 1007 1252
f 73 94 759
f 966 532 960
f 497 766 711
f 652 919 256
f 652 256 763
f 1180 526 762
f 1181 591 1183
f 424 9 653
f 653 577 902
f 346 654 359
f 654 579 758
f 371 537 655
f 748 25 656
f 656 953 951
f 847 371 655
f 553 847 655
f 546 658 398
f 560 381 776
f 1208 530 718
f 1209 379 1211
f 5 461 584
f 596 660 414
f 812 902 577
f 661 24 17
f 378 618 887
f 928 385 520
f 1144 260 1132
f 1145 271 845
f 722 517 174
f 565 810 195
f 662 1126 1129
f 562 784 377
f 719 663 282
f 515 470 912
f 664 390 754
f 665 780 823
f 83 714 88
f 666 961 959
f 545 666 959
f 559 337 703
f 901 137 716
f 398 1042 1044
f 667 179 198
f 667 211 199
f 619 582 469
f 668 1271 1125
f 849 419 200
f 669 84 785
f 96 669 791
f 931 1216 670
f 671 956 914
f 402 985 1254
f 1276 896 978
f 1277 60 494
f 79 92 106
f 811 800 62
f 151 607 672
f 672 178 160
f 442 158 139
f 442 1299 1038
f 500 311 1189
f 53 609 865
f 673 465 81
f 63 609 53
f 423 674 54
f 1289 267 1286
f 983 85 439
f 71 989 982
f 713 883 346
f 486 343 883
f 1284 240 1130
f 882 586 675
f 365 701 675
f 990 860 1005
f 946 949 8
f 143 165 1037
f 128 159 141
f 761 465 63
f 761 694 757
f 1263 213 1260
f 1262 252 1118
f 1294 500 1189
f 676 367 487
f 889 541 900
f 758 361 550
f 677 135 123
f 876 115 677
f 499 406 549
f 502 977 1002
f 342 351 678
f 678 436 368
f 679 561 728
f 510 1194 597
f 380 681 445
f 682 251 269
f 682 245 229
f 683 583 58
f 683 75 981
f 684 798 6
f 533 558 684
f 574 125 721
f 319 312 616
f 838 736 685
f 523 433 767
f 11 483 20
f 593 448 93
f 686 1253 1006
f 303 538 321
f 33 422 35
f 109 124 828
f 843 1282 206
f 687 612 821
f 708 492 687
f 276 263 620
f 688 1000 999
f 421 702 689
f 689 867 304
f 784 917 377
f 690 474 573
f 755 332 336
f 955 422 914
f 331 326 314
f 169 1070 175
f 141 552 116
f 691 245 269
f 487 909 692
f 1149 1134 274
f 237 214 430
f 22 815 695
f 875 753 695
f 4 740 513
f 183 493 202
f 637 822 854
f 346 358 654
f 425 78 75
f 68 425 58
f 697 826 631
f 297 697 453
f 698 399 751
f 565 225 699
f 700 384 659
f 700 585 520
f 925 892 451
f 701 369 756
f 702 313 649
f 337 559 327
f 703 644 357
f 704 933 614
f 793 795 705
f 706 313 421
f 813 752 706
f 788 871 93
f 9 420 577
f 518 405 594
f 708 411 769
f 304 777 709
f 709 327 813
f 570 710 196
f 529 223 636
f 564 51 516
f 774 872 29
f 711 557 497
f 938 1219 613
f 7 473 750
f 608 346 359
f 714 985 402
f 83 88 400
f 715 665 823
f 526 598 431
f 940 12 458
f 518 152 707
f 249 879 1137
f 310 1183 591
f 239 256 919
f 716 1044 1048
f 404 717 391
f 717 647 561
f 521 779 615
f 28 532 601
f 658 1042 398
f 1214 482 806
f 1215 547 602
f 718 1205 1208
f 873 64 71
f 581 54 674
f 72 858 581
f 720 579 372
f 574 113 137
f 721 125 110
f 488 1055 1046
f 583 973 964
f 264 663 293
f 331 314 435
f 459 94 747
f 537 371 380
f 192 180 768
f 936 551 95
f 1010 994 996
f 995 688 999
f 460 197 219
f 852 1296 1295
f 354 553 852
f 3 533 8
f 39 629 855
f 472 918 39
f 1166 1265 1191
f 155 444 466
f 723 404 1217
f 723 1258 784
f 1298 142 1039
f 792 681 912
f 566 935 480
f 1268 1271 765
f 765 460 219
f 284 272 294
f 153 133 147
f 724 201 773
f 724 202 213
f 725 660 461
f 726 585 859
f 894 572 392
f 832 864 727
f 728 383 511
f 649 457 298
f 385 418 602
f 351 342 333
f 36 34 803
f 14 507 584
f 32 447 45
f 33 35 471
f 422 955 962
f 289 1157 1142
f 528 709 317
f 731 218 430
f 731 690 733
f 732 562 462
f 732 386 717
f 733 690 573
f 733 220 836
f 734 687 492
f 360 734 357
f 495 1119 735
f 1268 765 735
f 736 838 188
f 225 565 403
f 248 244 260
f 231 249 221
f 576 886 737
f 867 689 737
f 1155 905 738
f 739 431 598
f 476 882 739
f 794 427 390
f 511 932 382
f 740 1 454
f 740 798 684
f 139 148 134
f 571 655 375
f 741 480 935
f 826 291 742
f 877 286 650
f 398 716 617
f 817 189 203
f 743 1072 1075
f 743 191 208
f 117 1031 1016
f 363 352 353
f 159 151 141
f 315 840 510
f 517 722 195
f 833 927 632
f 798 610 6
f 355 367 676
f 32 661 767
f 176 173 474
f 746 698 265
f 1131 232 1285
f 516 51 694
f 94 459 113
f 484 70 66
f 748 656 951
f 873 37 749
f 64 861 56
f 400 665 715
f 473 7 712
f 575 634 4
f 631 399 844
f 751 742 265
f 830 706 752
f 753 14 584
f 390 646 754
f 754 531 664
f 369 567 756
f 605 686 99
f 920 694 396
f 757 514 73
f 803 34 628
f 519 448 759
f 366 1204 1296
f 379 760 408
f 608 359 349
f 1198 476 598
f 1199 401 1196
f 761 516 694
f 557 63 53
f 762 1164 1180
f 762 328 486
f 599 714 83
f 987 923 984
f 117 121 131
f 618 912 681
f 515 692 470
f 763 273 544
f 763 251 652
f 1302 479 1216
f 570 173 630
f 764 550 361
f 699 643 565
f 219 735 765
f 609 673 74
f 205 203 189
f 766 961 666
f 766 43 967
f 661 32 24
f 767 661 16
f 768 185 192
f 161 180 170
f 530 432 718
f 769 908 708
f 769 411 841
f 770 933 704
f 871 625 101
f 771 130 642
f 868 424 19
f 520 640 384
f 772 833 576
f 772 897 417
f 578 488 176
f 374 386 462
f 720 831 374
f 545 397 666
f 547 385 602
f 50 69 674
f 423 50 674
f 178 607 773
f 85 103 439
f 10 671 592
f 775 468 372
f 775 654 358
f 625 642 142
f 1300 122 895
f 1301 108 112
f 627 696 26
f 381 560 659
f 258 867 477
f 10 633 13
f 592 21 633
f 777 304 284
f 777 317 709
f 433 523 11
f 67 434 44
f 38 52 807
f 1054 144 1047
f 779 7 416
f 665 809 780
f 781 600 172
f 596 414 942
f 569 383 829
f 584 507 5
f 638 394 452
f 1 740 558
f 783 313 512
f 59 566 832
f 646 395 506
f 151 129 141
f 784 1257 917
f 784 562 723
f 669 785 101
f 785 74 593
f 492 708 908
f 270 1147 1138
f 786 223 641
f 787 1269 490
f 787 266 1270
f 629 555 815
f 519 788 448
f 788 93 448
f 789 533 684
f 6 804 789
f 437 693 682
f 435 322 541
f 322 302 309
f 790 524 851
f 360 357 432
f 76 79 65
f 702 737 689
f 791 625 112
f 669 96 78
f 792 531 481
f 792 481 388
f 594 635 809
f 528 337 327
f 652 693 237
f 793 400 88
f 794 479 393
f 427 794 393
f 795 639 114
f 795 132 705
f 645 224 621
f 161 150 1035
f 180 161 768
f 796 1280 1279
f 104 120 796
f 610 9 463
f 187 136 1053
f 376 377 527
f 797 127 111
f 797 103 97
f 719 616 663
f 152 444 590
f 84 78 425
f 398 1044 716
f 798 420 610
f 267 275 485
f 362 348 352
f 1066 146 1030
f 1067 131 187
f 227 247 238
f 799 136 121
f 217 1072 743
f 62 46 484
f 61 47 628
f 397 41 711
f 1294 900 500
f 366 1296 852
f 1158 911 1165
f 321 307 554
f 410 26 696
f 802 631 844
f 122 139 119
f 688 56 980
f 132 518 705
f 803 628 47
f 803 50 423
f 804 463 15
f 18 891 804
f 20 960 532
f 186 1292 1291
f 67 52 434
f 390 427 646
f 805 34 36
f 805 22 21
f 1001 86 998
f 806 1210 1214
f 806 360 530
f 42 38 807
f 807 52 60
f 19 27 31
f 19 17 27
f 808 579 720
f 808 361 758
f 296 316 1169
f 133 1025 118
f 1228 906 626
f 809 665 556
f 810 517 195
f 810 565 643
f 408 571 375
f 222 1121 226
f 738 1156 1175
f 171 161 1050
f 171 768 161
f 61 76 65
f 811 62 77
f 178 773 201
f 813 421 304
f 557 761 63
f 814 800 628
f 814 33 471
f 815 555 875
f 815 22 464
f 1055 488 913
f 816 343 328
f 816 431 356
f 189 817 929
f 933 570 630
f 456 699 225
f 456 225 662
f 818 158 442
f 818 1223 169
f 724 773 202
f 915 595 923
f 888 368 371
f 659 375 381
f 638 572 394
f 820 774 29
f 822 696 449
f 542 939 1218
f 824 641 193
f 825 1018 624
f 825 98 443
f 580 337 528
f 81 73 759
f 223 529 710
f 352 348 755
f 826 563 291
f 826 751 631
f 60 979 968
f 827 269 544
f 827 870 283
f 391 561 679
f 404 732 717
f 542 1303 404
f 96 90 910
f 332 1203 1193
f 638 389 388
f 640 379 384
f 828 114 99
f 347 1195 505
f 830 559 908
f 831 383 647
f 831 386 374
f 200 197 907
f 858 745 57
f 927 1128 1127
f 712 12 11
f 288 306 429
f 247 1236 1235
f 1023 936 95
f 439 87 80
f 87 103 111
f 834 279 620
f 406 671 10
f 406 948 947
f 613 455 393
f 105 546 617
f 835 329 345
f 195 722 460
f 801 339 324
f 836 220 746
f 1056 179 837
f 837 667 199
f 838 685 191
f 838 1071 1222
f 264 293 271
f 264 282 663
f 1020 95 106
f 691 240 245
f 713 538 330
f 909 487 539
f 407 470 692
f 232 206 1282
f 1010 91 994
f 840 563 297
f 769 841 512
f 842 491 972
f 287 302 295
f 181 185 768
f 473 523 16
f 473 16 812
f 582 15 469
f 15 18 804
f 705 556 793
f 368 436 364
f 843 188 878
f 843 206 736
f 40 595 819
f 525 57 40
f 893 844 786
f 882 675 739
f 756 739 675
f 845 293 898
f 846 160 178
f 846 522 155
f 100 1019 501
f 847 354 350
f 848 344 340
f 848 1201 367
f 592 914 498
f 850 396 832
f 850 566 568
f 158 169 166
f 47 50 803
f 276 257 262
f 851 742 291
f 699 194 643
f 567 369 468
f 605 402 1254
f 524 286 851
f 286 535 650
f 157 1057 1062
f 13 695 753
f 539 1206 1256
f 852 1295 548
f 744 1046 1049
f 336 338 755
f 853 215 685
f 853 206 242
f 557 516 761
f 405 518 707
f 855 464 36
f 855 423 54
f 856 353 339
f 856 550 764
f 316 1265 1166
f 916 1266 316
f 214 667 198
f 92 1281 106
f 40 819 857
f 857 26 918
f 305 663 616
f 858 72 745
f 525 581 858
f 572 894 394
f 859 389 638
f 859 452 726
f 788 519 721
f 709 528 327
f 860 990 443
f 861 447 842
f 861 64 749
f 862 274 879
f 862 657 285
f 362 1200 348
f 575 4 513
f 634 750 812
f 863 31 434
f 863 38 619
f 346 883 358
f 864 51 774
f 820 727 864
f 482 450 370
f 12 712 521
f 240 270 1130
f 865 58 583
f 865 43 497
f 591 524 790
f 76 811 89
f 578 913 488
f 379 1209 760
f 9 424 463
f 114 536 795
f 588 692 515
f 687 370 612
f 867 737 477
f 868 619 469
f 869 710 529
f 869 573 474
f 799 1230 1233
f 465 73 81
f 870 827 428
f 428 911 870
f 871 110 771
f 872 564 397
f 872 397 25
f 44 71 55
f 140 536 828
f 140 155 466
f 256 239 650
f 746 220 467
f 118 1008 102
f 963 42 971
f 874 643 194
f 410 637 875
f 875 695 815
f 876 677 123
f 876 107 98
f 471 48 484
f 773 183 202
f 925 409 468
f 396 51 864
f 877 742 851
f 877 265 742
f 878 188 1221
f 878 1080 1079
f 879 249 253
f 879 274 1134
f 219 197 419
f 880 446 489
f 272 490 880
f 881 116 552
f 881 1006 1022
f 882 347 586
f 1082 1108 1106
f 594 705 518
f 809 556 594
f 883 330 486
f 883 343 358
f 884 69 82
f 884 651 72
f 125 426 130
f 13 549 10
f 220 529 467
f 573 869 220
f 885 111 127
f 885 117 100
f 886 266 477
f 886 576 833
f 887 368 364
f 887 380 371
f 834 438 279
f 142 112 625
f 888 847 350
f 888 345 678
f 814 587 33
f 889 778 331
f 889 341 440
f 890 434 31
f 890 27 37
f 644 337 580
f 629 464 855
f 475 310 790
f 891 8 789
f 891 18 957
f 892 701 365
f 893 786 824
f 894 392 506
f 524 496 286
f 895 1014 1300
f 896 1276 1275
f 897 772 298
f 898 293 305
f 234 257 253
f 1120 262 234
f 196 710 869
f 710 570 770
f 374 808 720
f 899 288 268
f 900 341 889
f 900 1297 341
f 731 578 690
f 901 1048 1047
f 461 5 725
f 902 17 653
f 902 16 661
f 295 302 435
f 903 707 590
f 903 810 172
f 244 248 236
f 542 391 939
f 1202 340 1192
f 1203 348 1200
f 282 264 622
f 715 599 83
f 904 344 355
f 904 436 351
f 905 1272 277
f 905 281 738
f 906 1228 1227
f 906 120 626
f 693 437 237
f 98 107 860
f 631 751 399
f 845 1142 1145
f 786 399 636
f 907 174 522
f 907 197 722
f 572 481 392
f 585 700 389
f 908 559 703
f 931 1256 1259
f 909 931 407
f 254 1288 1287
f 325 1190 1170
f 230 250 1123
f 910 90 86
f 75 910 86
f 299 1165 911
f 911 1158 870
f 548 350 354
f 325 835 548
f 685 208 191
f 334 801 321
f 334 478 801
f 495 1263 1119
f 645 1238 224
f 912 664 531
f 441 601 491
f 866 198 913
f 914 592 671
f 915 412 49
f 1074 175 1070
f 916 438 1162
f 116 1021 128
f 712 523 473
f 917 1257 1207
f 917 362 623
f 179 1056 1059
f 385 640 520
f 38 42 23
f 918 26 410
f 918 555 39
f 190 185 181
f 190 1099 185
f 919 218 836
f 101 93 871
f 740 684 558
f 54 525 472
f 129 151 672
f 920 396 850
f 920 514 757
f 724 495 849
f 921 355 676
f 921 373 364
f 1104 207 1101
f 1105 212 1102
f 1000 688 980
f 1080 878 1060
f 1081 837 199
f 533 922 558
f 738 1143 1156
f 923 57 745
f 122 1299 442
f 924 635 729
f 925 701 892
f 43 964 967
f 865 583 43
f 326 331 778
f 48 35 970
f 695 13 633
f 1111 212 1105
f 1112 221 1109
f 926 662 1129
f 927 1127 632
f 927 833 417
f 943 3 945
f 928 520 782
f 192 1308 1307
f 883 713 330
f 817 934 929
f 934 165 929
f 126 415 658
f 126 741 611
f 283 1161 1147
f 1251 190 1248
f 1250 167 1068
f 637 410 696
f 930 2 416
f 930 7 750
f 931 670 407
f 931 909 1256
f 932 925 451
f 932 569 409
f 614 1041 1033
f 817 937 934
f 934 1293 165
f 935 566 508
f 935 680 741
f 936 82 551
f 936 1023 1007
f 937 1290 934
f 937 817 504
f 938 1305 1219
f 938 393 479
f 939 391 679
f 12 940 483
f 2 930 575
f 1212 602 418
f 1308 185 1099
f 1309 216 235
f 940 952 483
f 940 458 950
f 482 1214 1213
f 7 779 521
f 930 416 7
f 12 615 458
f 715 941 509
f 1107 228 1287
f 927 417 1128
f 1220 1064 1063
f 1107 1287 1117
f 1084 1097 1069
f 542 1304 1303
f 1027 143 1037
f 977 502 993
f 978 896 1003
f 340 1186 1192
f 1188 320 1167
f 658 415 1032
f 974 599 509
f 975 915 987
f 1100 1251 1092
f 1064 164 1038
f 1065 157 1062
f 1096 1250 1068
f 1097 1084 1094
f 1305 938 1302
f 1304 542 1218
f 941 715 823
