# C5 c5_1042v3 call 37 -- kept
# max displacement from rest 11.9990 mm
# interior RMSE vs target 4.5660 mm   crown 0.309429 m (target 0.312266 m)
v 0.59792328 0.02113320 0.00000000
v 0.58847582 0.11705511 0.00000000
v 0.57199083 -0.08668012 0.03172857
v 0.57135361 0.07343146 0.06330084
v 0.54842591 -0.24066152 0.00000000
v 0.54568378 -0.00039293 0.09452666
v 0.55505394 0.18363604 0.04526530
v 0.54781545 -0.07430839 0.06421524
v 0.52337329 0.05531507 0.12639069
v 0.50947996 -0.17639450 0.09277729
v 0.49820516 0.24316683 0.07637099
v 0.51987467 0.25618222 0.04232959
v 0.51665437 -0.21633394 0.07723929
v 0.51314762 -0.28826524 0.03661957
v 0.49684174 -0.02238598 0.13380446
v 0.50463555 0.16552150 0.12030557
v 0.47417468 0.10920539 0.16237911
v 0.48620017 -0.06073077 0.12510994
v 0.46896674 0.06856647 0.17057419
v 0.46421850 0.26703670 0.08343123
v 0.46196040 -0.20331885 0.13901264
v 0.46904665 -0.24265467 0.12441701
v 0.43879421 -0.03606582 0.16796920
v 0.44404610 0.13265739 0.17550596
v 0.44583828 0.37647514 0.03517778
v 0.44869799 -0.36528892 0.05741880
v 0.44116456 0.09304799 0.18601766
v 0.44665608 0.22431259 0.12806244
v 0.41597638 0.43107167 0.00000000
v 0.43242484 -0.41432756 0.00000000
v 0.43299201 0.05390692 0.19133109
v 0.44039617 0.17117747 0.16263197
v 0.41754410 -0.15724739 0.17216662
v 0.40560382 -0.23178470 0.17574760
v 0.40283581 -0.11675125 0.17357973
v 0.41292135 -0.27102380 0.16033050
v 0.41081710 0.11506711 0.19572579
v 0.41233533 -0.02084708 0.18694910
v 0.42370043 -0.33412405 0.11418520
v 0.38829329 -0.40033799 0.07837884
v 0.39565156 0.38674009 0.09164132
v 0.41309424 -0.05623053 0.17184977
v 0.38158954 0.29267418 0.13528197
v 0.36394298 0.06666173 0.21555901
v 0.41045031 0.15201035 0.18494516
v 0.36122522 -0.17080924 0.20163230
v 0.34674840 -0.26191283 0.19274691
v 0.36655589 -0.10888629 0.19230530
v 0.37842834 -0.44624765 0.02918027
v 0.34773229 -0.29400657 0.17938825
v 0.37141238 0.44216029 0.06692195
v 0.37910390 -0.00219222 0.20513382
v 0.35829001 0.35503512 0.14597405
v 0.38500963 -0.34253525 0.13388049
v 0.32741850 0.04808883 0.22187317
v 0.33400376 0.17008072 0.20084104
v 0.35124054 -0.41069910 0.08907853
v 0.33514929 0.28933846 0.17521980
v 0.31509134 0.50864238 0.00000000
v 0.34489831 -0.03319763 0.20855099
v 0.32780525 -0.23696846 0.20529116
v 0.32597985 -0.17109021 0.21284572
v 0.33919193 0.38659449 0.14604053
v 0.34843045 0.13251239 0.21016129
v 0.30888775 -0.27569312 0.19694970
v 0.30728552 -0.13694789 0.21618069
v 0.36084703 0.03080420 0.21477905
v 0.32139270 0.32024632 0.18330990
v 0.31554092 -0.31426411 0.17726581
v 0.32858747 -0.10371060 0.20836327
v 0.32787890 0.09333195 0.22116422
v 0.29896376 -0.38317500 0.12818220
v 0.28070322 0.44558778 0.14054683
v 0.29781875 0.35153904 0.18745368
v 0.29552485 0.24551959 0.19916186
v 0.28630435 -0.24024173 0.21121222
v 0.28672388 -0.17160847 0.21954014
v 0.27569095 0.28078732 0.20915969
v 0.26287243 -0.27147756 0.20326733
v 0.27064846 0.00974652 0.25396652
v 0.28104880 0.41443763 0.16650871
v 0.28663209 -0.33208578 0.16966295
v 0.26362485 -0.49961174 0.05724853
v 0.28659462 0.31640010 0.20083690
v 0.26087478 0.08415296 0.25256192
v 0.27144291 0.21412649 0.21042660
v 0.24342046 0.02062780 0.27768892
v 0.24577886 -0.48435304 0.08623424
v 0.26524775 -0.20532591 0.21877693
v 0.23719676 0.23444856 0.22168434
v 0.24922102 0.12123503 0.24614350
v 0.24286575 -0.23836363 0.21442397
v 0.23608433 0.37600892 0.20143229
v 0.24083487 0.46792435 0.13643252
v 0.23643633 -0.29995621 0.19071000
v 0.24058911 0.27341754 0.22009410
v 0.22223599 0.10136275 0.26971753
v 0.22276830 -0.11271182 0.27150180
v 0.20869508 -0.43261277 0.14751168
v 0.21029136 -0.00982286 0.28671525
v 0.22271898 0.33882652 0.21615355
v 0.20615518 0.17512985 0.25163507
v 0.23647795 0.06311113 0.27928678
v 0.21601966 -0.17682496 0.24626562
v 0.21366431 0.51847464 0.08231616
v 0.21842286 -0.26882384 0.20581853
v 0.20640032 -0.14723649 0.27432298
v 0.20701317 0.25994939 0.22591868
v 0.19103488 -0.40355993 0.17009024
v 0.17405405 0.39743989 0.19448666
v 0.21256652 0.03679414 0.29652510
v 0.17538144 0.28248372 0.22768453
v 0.19687677 0.46409171 0.14747486
v 0.19139043 -0.46280554 0.14282872
v 0.15836567 -0.07210145 0.29527036
v 0.17969371 -0.33547103 0.19227845
v 0.16526534 -0.01078142 0.29385950
v 0.18042949 0.15380400 0.27286080
v 0.17256014 0.19268086 0.26759060
v 0.18349471 -0.17756125 0.26546740
v 0.14988139 0.02388280 0.30607378
v 0.15523906 0.22758862 0.25137827
v 0.16738352 -0.14603884 0.28460544
v 0.15988711 -0.40758368 0.18468149
v 0.14597786 0.41961551 0.17721980
v 0.18244338 0.55513579 0.03361654
v 0.17842513 0.04606748 0.30131231
v 0.15150383 -0.30876900 0.20801568
v 0.13381582 -0.38671935 0.19968839
v 0.13801863 0.38333934 0.19672865
v 0.12240493 -0.00129477 0.29844111
v 0.15185676 -0.51002214 0.12390696
v 0.15175541 0.13156137 0.29010076
v 0.15043321 0.17154007 0.28882565
v 0.12768643 -0.14622871 0.28541892
v 0.11303267 0.03669160 0.30024616
v 0.16608480 0.48370714 0.12679093
v 0.12334661 -0.08769360 0.30230606
v 0.13904154 0.21163900 0.27835796
v 0.12924809 -0.46150954 0.17091762
v 0.14167632 -0.34705788 0.20544301
v 0.14181935 0.30419133 0.22274525
v 0.12022071 -0.25702913 0.23730532
v 0.11775996 0.43785896 0.15538200
v 0.13117133 -0.42602085 0.18794513
v 0.11210502 -0.05714004 0.29699370
v 0.12128518 0.15084188 0.30646332
v 0.12124292 0.18642463 0.29587515
v 0.08592320 -0.08436931 0.29592586
v 0.09305660 -0.20679257 0.27240448
v 0.10377370 -0.36347544 0.21125379
v 0.11525331 -0.52406586 0.12155470
v 0.11805816 0.11090871 0.29965468
v 0.10663462 -0.11651548 0.29364024
v 0.09123256 -0.47885763 0.16952610
v 0.08449441 -0.24150387 0.26379093
v 0.10153856 0.32308031 0.21499499
v 0.10150724 0.21378594 0.28367155
v 0.10816722 -0.32170839 0.21583195
v 0.09492782 -0.44335389 0.18879803
v 0.06906068 -0.17834444 0.28820281
v 0.08261193 0.09263560 0.30304502
v 0.08627304 0.13451972 0.30942853
v 0.08705454 0.26408052 0.24533966
v 0.07889315 -0.27032428 0.24175021
v 0.09034668 0.17631200 0.30257900
v 0.06735461 -0.05142004 0.29587068
v 0.07129386 -0.34050030 0.21679567
v 0.06547776 0.20158992 0.28472418
v 0.05544480 -0.21822812 0.28329627
v 0.06070210 -0.14351767 0.28929525
v 0.06147150 -0.58464642 0.03913753
v 0.05688540 0.52518529 0.09723807
v 0.05040078 -0.52176082 0.13108123
v 0.05734824 0.16130649 0.29641772
v 0.04401066 0.49403095 0.13124623
v 0.03671346 0.05141111 0.29683653
v 0.06128791 -0.42088600 0.19889393
v 0.04106591 0.38245530 0.19500404
v 0.02662118 -0.19492521 0.29430985
v 0.03665236 -0.11842525 0.29382793
v 0.04658978 0.08221205 0.29996818
v 0.03372431 -0.36013192 0.21289853
v 0.05153680 0.12084313 0.30142826
v 0.00227257 -0.12964640 0.29228178
v 0.04014655 -0.32530466 0.21652588
v 0.08072781 0.01103899 0.29870910
v 0.01528761 0.25342411 0.26383103
v 0.01691534 -0.22984414 0.27782960
v 0.01139076 -0.08747921 0.29388743
v 0.00283230 0.17624491 0.29515481
v -0.00446166 -0.16830419 0.28913808
v -0.00833826 0.59918350 0.00000000
v -0.00076876 -0.59992903 0.00000000
v 0.00124850 -0.54981774 0.09169097
v 0.02124675 0.54485930 0.09272942
v -0.00806181 -0.49716289 0.14089356
v 0.01137325 0.41207495 0.19503602
v -0.00580991 0.33785597 0.22025287
v 0.01624990 -0.47082541 0.16756823
v 0.02365084 -0.43429863 0.18907379
v -0.00528097 -0.37288710 0.20349267
v -0.01938434 -0.23632619 0.26435516
v -0.01987101 0.06279876 0.29568215
v -0.01119796 -0.20369793 0.28042898
v -0.05558195 0.26100408 0.26139192
v -0.04928541 -0.07494919 0.29236605
v -0.03318181 0.16687186 0.30628153
v -0.04387952 0.32820728 0.22420369
v -0.03593166 -0.34535183 0.20286249
v -0.03328619 0.36703264 0.21828026
v -0.08337643 -0.02107816 0.29348000
v -0.04335315 -0.38387996 0.18777617
v -0.02690627 0.40593727 0.20666061
v -0.05257988 0.19613598 0.30263025
v -0.05555977 -0.11838951 0.29099094
v -0.02656457 0.09746458 0.30090929
v -0.04739024 0.47097498 0.17728440
v -0.03981029 -0.48860182 0.13393783
v -0.04914245 0.52856709 0.12847461
v -0.07314317 0.03859138 0.29534059
v -0.07063201 0.16529214 0.29809766
v -0.04504106 0.57446642 0.06478493
v -0.06749366 -0.20346731 0.27205345
v -0.04486696 -0.57532846 0.04365327
v -0.05309501 0.13100971 0.30039960
v -0.08081652 0.20446844 0.28884904
v -0.08946698 -0.26248411 0.23998851
v -0.07100841 0.35568521 0.22144344
v -0.10970081 -0.04537607 0.29149715
v -0.09208143 0.07318817 0.29692854
v -0.09334834 0.26685278 0.24395244
v -0.08289770 -0.09413525 0.29209618
v -0.11060788 0.10817983 0.29449480
v -0.06987313 -0.16174734 0.28764426
v -0.08674699 -0.12964489 0.29610499
v -0.06184102 0.43636551 0.19792329
v -0.09767034 0.17542279 0.28346883
v -0.11191190 0.49735202 0.15254885
v -0.12330630 0.30877059 0.21945074
v -0.10957729 -0.32933113 0.20385390
v -0.08813833 0.23858104 0.27006746
v -0.12311612 -0.01552038 0.29466254
v -0.11585608 -0.11432311 0.28923908
v -0.10974463 0.34471095 0.21872937
v -0.10948014 -0.36907388 0.18703205
v -0.11199768 0.20832247 0.27038487
v -0.11190124 -0.15479260 0.29252209
v -0.11378102 0.04493050 0.29490524
v -0.14538749 -0.05392507 0.29356283
v -0.12356366 0.40648783 0.20187799
v -0.11341166 -0.40720501 0.16590439
v -0.13154333 0.07940606 0.30236151
v -0.12522403 -0.25223609 0.24067152
v -0.12469139 0.24046204 0.25042410
v -0.12879096 0.46527638 0.17199552
v -0.14920937 0.11462098 0.29791562
v -0.16658836 -0.46854047 0.13057915
v -0.13282568 -0.21782946 0.26619412
v -0.14621957 -0.13746050 0.28093123
v -0.14202798 -0.17883277 0.27922972
v -0.13017151 0.14157306 0.28557151
v -0.14780686 0.17205038 0.27159926
v -0.18656641 -0.04119628 0.29726470
v -0.13735850 0.52162479 0.12150485
v -0.13499493 -0.51126749 0.08544947
v -0.14960654 -0.30869520 0.21147248
v -0.18049812 -0.36990162 0.19351136
v -0.13539719 0.37098099 0.20807180
v -0.16232547 0.29922538 0.21101088
v -0.17700141 -0.08188066 0.28420045
v -0.17085106 -0.43925034 0.15446856
v -0.18415584 0.41796865 0.17334325
v -0.19238660 0.05916932 0.28157279
v -0.18545324 -0.33294969 0.20569923
v -0.16609379 0.14872987 0.28399259
v -0.15802728 -0.23365919 0.24099903
v -0.18925590 0.20782350 0.24178161
v -0.20052985 0.15331418 0.27234997
v -0.17691472 -0.16055768 0.26489927
v -0.16971017 -0.19909081 0.25899913
v -0.19905735 -0.00004381 0.28583456
v -0.18578576 0.32778843 0.19579643
v -0.20681052 -0.45574062 0.14039786
v -0.20683710 0.09319906 0.28173224
v -0.18933009 0.47226686 0.13927025
v -0.19131522 -0.29468780 0.21235955
v -0.21187754 -0.39045628 0.18287265
v -0.23172672 -0.12471579 0.24913807
v -0.20169019 -0.25914739 0.21323231
v -0.21510991 0.51745765 0.08040553
v -0.21560629 0.12558352 0.27649728
v -0.21335443 -0.06924363 0.28180634
v -0.20695274 -0.42495438 0.16375399
v -0.22670965 -0.31891392 0.20435370
v -0.23017189 0.06986836 0.26487724
v -0.21274510 0.55944854 0.00000000
v -0.24113308 -0.54817384 0.00000000
v -0.24079087 0.41923499 0.13186197
v -0.26504404 0.00522485 0.25494291
v -0.23731857 0.10682378 0.26225367
v -0.23343433 -0.28128857 0.20836725
v -0.24326137 0.29603293 0.19315907
v -0.24683096 -0.46817540 0.12092778
v -0.24688642 -0.05934706 0.27240778
v -0.25178675 -0.37873093 0.18186823
v -0.24894030 0.23292282 0.21612895
v -0.26092962 -0.11526735 0.23663261
v -0.23959334 -0.24228564 0.20929733
v -0.27149374 0.46772394 0.07855540
v -0.27153767 -0.22233574 0.20067179
v -0.27143075 -0.06794544 0.24366194
v -0.28445106 -0.51136137 0.04412783
v -0.26092875 -0.34257357 0.19034612
v -0.26695861 0.51865960 0.03483617
v -0.26438923 0.08753272 0.24298411
v -0.27075534 -0.40651957 0.16058496
v -0.26060471 0.32685839 0.17424453
v -0.28473662 -0.02430426 0.23906831
v -0.28632597 0.02092844 0.23470838
v -0.26871551 0.26623342 0.20585556
v -0.27067418 -0.26340898 0.19907987
v -0.28907004 0.16233991 0.21870757
v -0.30381882 0.19438412 0.21622500
v -0.30604062 -0.16596743 0.20225841
v -0.29331397 -0.36852347 0.16912972
v -0.31165876 -0.43421268 0.11755289
v -0.33135946 0.38237098 0.12289866
v -0.32284458 -0.10020900 0.21494410
v -0.30248238 0.33078014 0.17001550
v -0.29718944 -0.32542300 0.18004666
v -0.33341803 0.09795931 0.20507142
v -0.34004744 -0.03351113 0.21516739
v -0.31060489 0.27046536 0.19969705
v -0.30609726 -0.13002726 0.21063813
v -0.31324166 0.12992179 0.21402320
v -0.33884040 -0.40473195 0.12121268
v -0.32908171 0.16683034 0.21211826
v -0.33551744 0.20539830 0.20945528
v -0.34056894 0.03125315 0.20596258
v -0.36274162 -0.28522473 0.14317727
v -0.34459466 -0.07352254 0.21493370
v -0.35752880 0.35742354 0.13734332
v -0.35598496 0.00333150 0.20788275
v -0.36126201 -0.11314585 0.20796107
v -0.36971769 0.30451642 0.16775996
v -0.35335165 0.46552253 0.02390874
v -0.37009664 0.10306734 0.18941669
v -0.37168728 0.25028030 0.19110998
v -0.37249112 -0.15049672 0.19554194
v -0.37052790 -0.05417851 0.21058022
v -0.38746022 0.13875874 0.18767284
v -0.36901442 0.17605716 0.19954272
v -0.38054629 -0.18015335 0.18009606
v -0.39776753 0.01052322 0.19335763
v -0.38662196 0.38854613 0.09237374
v -0.39243795 -0.37774130 0.09042919
v -0.38643216 0.33081943 0.14341753
v -0.39046339 0.27377455 0.17282788
v -0.41382444 -0.35054981 0.08294558
v -0.43389006 0.22142606 0.16050950
v -0.40604160 0.10842177 0.16974081
v -0.40384182 0.16841327 0.18222235
v -0.43895353 -0.05441271 0.18747371
v -0.42976737 0.41756567 0.00000000
v -0.40011899 -0.22874613 0.14246538
v -0.41735411 0.04485281 0.17215097
v -0.42507469 -0.09005443 0.19343370
v -0.43867396 0.37152327 0.06428966
v -0.44608609 -0.37402016 0.03324461
v -0.44428340 -0.12635405 0.17665579
v -0.46251296 0.30759125 0.09801362
v -0.44737004 -0.02301356 0.17937035
v -0.48438848 0.23000775 0.11367456
v -0.47233804 -0.18555304 0.13363447
v -0.46462628 0.19919071 0.13846289
v -0.45613913 0.15494146 0.14450686
v -0.47174797 -0.04430593 0.16808440
v -0.46163140 -0.25995829 0.08784096
v -0.48289024 -0.10757213 0.15765598
v -0.50257514 -0.15952130 0.12312424
v -0.50187206 0.32775772 0.00000000
v -0.52215013 0.26391513 0.04486232
v -0.49989135 -0.22923535 0.08229193
v -0.51367487 -0.27151540 0.03342740
v -0.50973456 0.21228403 0.08854094
v -0.54185224 0.01944098 0.09210473
v -0.55094682 -0.12830696 0.07961617
v -0.55180857 -0.16451375 0.06113927
v -0.56694695 0.00240500 0.06583310
v -0.55362919 0.17987409 0.03603745
v -0.58264163 -0.05859608 0.04295313
v -0.57856652 0.05499675 0.03417219
v -0.58888495 -0.11290137 0.00000000
v -0.59994477 0.00060879 0.00000000
v 0.34116440 0.46836381 0.06520881
v 0.42329058 0.37323800 0.06813009
v 0.13975856 0.52713370 0.07496341
v -0.11375620 0.56730961 0.06336317
v 0.23492072 -0.51676915 0.06287518
v -0.28525136 0.48739790 0.05138160
v 0.25892990 -0.44864155 0.09774409
v -0.03850562 -0.55038453 0.07777223
v -0.53639863 0.14701624 0.06298483
v 0.12264382 -0.56167036 0.06760412
v 0.52431217 -0.14180408 0.07389700
v -0.51301088 0.03641560 0.11342871
v -0.46835472 -0.22283714 0.11221228
v -0.47868231 0.32218648 0.06267488
v 0.46958165 -0.33381802 0.06378540
v -0.38209277 -0.45887926 0.00000000
v 0.36474848 -0.47311336 0.00000000
v 0.44204363 0.40260705 0.00000000
v 0.57521123 -0.16078255 0.00000000
v 0.16177262 0.57491088 0.00000000
v 0.57476550 0.16225195 0.00000000
v -0.16671224 -0.57341248 0.00000000
v -0.51834917 -0.29693121 0.00000000
v -0.02632920 -0.46367879 0.15747039
v 0.54935926 0.06764525 0.09638217
v -0.26844846 -0.49175587 0.08507482
v 0.43646789 -0.12363543 0.15185532
v 0.38277521 -0.30442391 0.15993753
v 0.49411107 0.04182876 0.15125706
v 0.30754155 0.28388777 0.19311433
v 0.10940275 0.40303966 0.17736285
v -0.58383518 0.01945087 0.03516482
v -0.19061525 0.38617696 0.18035953
v -0.23718813 -0.40840857 0.16919779
v -0.02108466 0.44087045 0.19083854
v -0.34963144 0.40329210 0.09658567
v -0.38931333 -0.34175403 0.10980639
v 0.47289466 0.23100278 0.10626689
v 0.39491295 0.03959197 0.20595023
v -0.26623007 -0.30330533 0.19670507
v -0.40450176 -0.05542213 0.20158215
v -0.06191049 0.39449394 0.21332063
v -0.23136880 0.14506605 0.25310202
v 0.26932637 0.04519542 0.25361444
v -0.35907109 -0.33181585 0.13918246
v 0.42803560 0.20560578 0.15055810
v 0.11723954 0.24465819 0.25632451
v 0.25457995 -0.11186759 0.24512041
v 0.08596619 -0.50947945 0.14201670
v -0.50134559 -0.12696113 0.13616390
v -0.14440426 -0.38626236 0.18404603
v 0.40021083 0.18653553 0.17351107
v 0.24606412 0.40951584 0.18094737
v 0.45993149 -0.38081059 0.00000000
v -0.47198784 -0.36611992 0.00000000
v -0.48209521 0.35380405 0.00000000
v -0.57878697 -0.14899495 0.00000000
v -0.17589951 0.57062554 0.00000000
v 0.59327775 0.06830031 0.00000000
v -0.59646612 0.03592828 0.00000000
v -0.04460660 -0.59561139 0.00000000
v -0.27564669 -0.52972597 0.00000000
v 0.52317095 0.28791025 0.00000000
v 0.20712111 0.49210658 0.11692201
v -0.03076063 -0.52136361 0.11055462
v 0.54063305 -0.21932796 0.03989004
v -0.49153104 0.19526789 0.11154532
v 0.51675561 0.01119718 0.12690180
v 0.44300725 -0.27303338 0.13561394
v 0.31251506 0.41753801 0.14515961
v 0.12266202 -0.49487670 0.14813626
v -0.07469418 0.54508031 0.10777705
v -0.45063317 0.34254647 0.08201707
v 0.48283695 0.00477223 0.15343240
v -0.52277997 -0.00557213 0.11932741
v 0.38356311 -0.14734451 0.19034599
v 0.40463624 -0.36690186 0.10082890
v 0.53185670 0.17624921 0.08511629
v 0.02013445 0.52112634 0.11835855
v -0.25084638 0.50517844 0.06557016
v -0.34170799 0.44677042 0.05185715
v -0.16818942 -0.49787968 0.10286800
v -0.33771465 0.24213956 0.20253416
v -0.55269137 0.07698790 0.05600507
v 0.25227082 0.51868622 0.06575311
v -0.56693823 -0.09354602 0.06504420
v -0.46769444 -0.34504374 0.02649333
v 0.48676573 0.27991799 0.05600467
v 0.34600459 -0.13849543 0.20540915
v -0.14557778 -0.34912092 0.20015513
v -0.31773904 0.35798829 0.14755590
v -0.45766071 0.03035232 0.15737667
v 0.06209539 0.45684623 0.14609118
v -0.17688592 -0.40566108 0.17652739
v -0.12747673 -0.44553347 0.14323446
v 0.38722103 0.21944137 0.15769333
v -0.39558168 -0.40900307 0.06448647
v 0.00313115 -0.33590225 0.21202263
v 0.33616807 0.00617319 0.21712242
v -0.04821086 -0.42472646 0.16852738
v -0.20687521 0.43586303 0.15027149
v 0.38187954 0.33497618 0.12974513
v 0.45089462 -0.16333234 0.14833289
v 0.54743977 -0.14578143 0.04721471
v -0.30328731 -0.24321579 0.18483724
v 0.24721538 -0.01882259 0.26546263
v 0.26889061 -0.08287045 0.23930308
v 0.11655651 -0.23089255 0.25364106
v -0.02820938 -0.26307196 0.24724541
v -0.36201090 0.47536004 0.00000000
v -0.59620458 -0.03858358 0.00000000
v 0.52908826 -0.27683973 0.00000000
v 0.27970111 0.52755880 0.00000000
v 0.30030006 -0.51654845 0.00000000
v -0.29189527 0.52104092 0.00000000
v -0.52032018 0.29324374 0.00000000
v -0.32454536 -0.48993756 0.03640127
v 0.58474401 0.08338741 0.02935700
v 0.27870689 0.47305591 0.11376534
v -0.50018857 -0.02695642 0.14456950
v 0.37223332 0.41509122 0.09583661
v 0.04279962 -0.54841035 0.10061226
v 0.14147648 -0.53803760 0.09649676
v 0.22163256 0.43861498 0.16589910
v -0.53043699 -0.23488487 0.04321718
v 0.54336315 0.22103886 0.03361957
v 0.05431801 -0.49069640 0.15914586
v 0.50237734 0.20412349 0.09983308
v -0.22472561 0.45881602 0.12418358
v 0.36967440 -0.37912039 0.11050746
v -0.30964672 0.40589999 0.10370237
v -0.43411337 0.18223564 0.16340484
v -0.30506879 -0.40396898 0.14379421
v -0.04275339 0.55559288 0.09465949
v -0.41701666 -0.31690990 0.08923772
v -0.55862860 -0.05865020 0.08419085
v 0.43883825 0.25450453 0.10847515
v 0.57764875 -0.04397734 0.04112082
v -0.39351348 0.35747353 0.11797526
v -0.16859204 0.45301932 0.16322177
v 0.15877426 -0.47819920 0.14833544
v -0.47384557 -0.14699483 0.15106441
v -0.28568674 0.29997056 0.18976870
v -0.44679905 0.06060206 0.14742107
v 0.44832852 -0.06270887 0.14889021
v -0.30210088 -0.28451538 0.18374062
v -0.56267521 0.14229095 0.02974682
v 0.31167782 0.13401655 0.21689857
v -0.15875079 0.39703370 0.19313174
v 0.44897073 0.34142934 0.05357954
v 0.17901912 0.53753220 0.06323690
v -0.47924076 -0.28347866 0.05577364
v -0.34195025 -0.18387510 0.18799434
v 0.53428565 -0.18158170 0.06211348
v -0.40192948 0.23761435 0.17798198
v 0.27786085 -0.30315864 0.18774056
v 0.16950182 -0.37337779 0.18963430
v -0.40916290 -0.19426944 0.16282321
v -0.22440429 0.26392565 0.20825636
v 0.45897185 -0.31676475 0.09326606
v 0.20079601 -0.53496267 0.06654633
v 0.37240197 0.37953966 0.12046372
v 0.58752975 -0.00290013 0.03011831
v -0.34245904 -0.43474976 0.09407107
v -0.52912150 -0.16336403 0.09315862
v -0.54121618 0.22434755 0.03599220
v -0.48520442 0.16263223 0.11863355
v -0.22605070 0.53778766 0.04338264
v 0.39907838 0.41161699 0.06616637
v -0.00710587 -0.57149763 0.05996131
v 0.29157289 0.51165836 0.04257623
v -0.41936061 0.36397696 0.09271104
v 0.28189435 0.49643570 0.08093114
v -0.50359701 0.29879891 0.04459351
v 0.03964121 0.55972975 0.06792139
v -0.43867795 -0.20962104 0.13981307
v -0.58187771 -0.09389768 0.03203835
v -0.01345619 0.51881647 0.13188168
v 0.15603016 0.45328229 0.15400343
v 0.57363215 0.11245800 0.04511198
v -0.20933279 -0.53279901 0.05579911
v 0.52909889 0.09630195 0.11652942
v 0.03031435 0.46480362 0.15967513
v -0.44420967 0.28739233 0.12882214
v -0.33220686 -0.37130612 0.14431998
v 0.34279735 -0.36307347 0.13544229
v 0.46902134 -0.03193366 0.15118811
v 0.35599167 0.27182452 0.15813128
v 0.53133872 -0.25575204 0.02983942
v -0.55135642 -0.19888827 0.03706123
v -0.39430445 0.44885737 0.00000000
v 0.42911353 -0.19726400 0.16537552
v -0.47002567 -0.00560539 0.16257201
v -0.27704648 0.35541621 0.15260186
v 0.07911257 -0.53865555 0.11171811
v -0.25722329 0.44418447 0.10524381
v 0.48156230 -0.16974433 0.12138081
v 0.27266744 0.38149339 0.18733509
v 0.16328320 -0.55068726 0.06760961
v 0.36833445 -0.43017652 0.05853750
v 0.56775174 -0.14266632 0.02076792
v -0.29930702 0.50118298 0.02531238
v -0.32814126 0.42728299 0.07818462
v 0.29499580 -0.49657129 0.03279507
v 0.10276494 -0.57930898 0.03814025
v 0.41295746 0.23850657 0.13347596
v -0.49589737 -0.30189594 0.02507090
v -0.26870841 0.19861398 0.21957519
v -0.08195862 0.31786881 0.22450138
v 0.24156121 -0.42356335 0.12539426
v -0.07544032 -0.55277967 0.05739339
v 0.06633785 -0.38180827 0.21088087
v -0.35103794 0.27624499 0.18833026
v 0.33091408 0.35287716 0.16663495
v 0.54117573 0.03290981 0.10580622
v 0.20682719 0.56124371 0.00000000
v -0.44435945 -0.39978519 0.00000000
v -0.59269834 0.07418330 0.00000000
v 0.08388902 0.59174240 0.00000000
v 0.54562628 0.24589933 0.00000000
v -0.25798857 -0.02914337 0.26426355
v 0.17373400 0.51190601 0.09664876
v -0.49623820 -0.06733379 0.15086415
v 0.44865944 -0.00552084 0.17359455
v -0.17870199 0.18179144 0.26463137
v -0.10307553 -0.19300402 0.28129617
v -0.16050653 -0.01006004 0.29396612
v -0.42371643 0.14358862 0.16700398
v 0.20089088 -0.07623272 0.28075466
v 0.17926081 0.32793125 0.22057149
v 0.14599292 -0.17539342 0.27098601
v 0.44017427 -0.39055205 0.03392779
v 0.36944087 -0.23101369 0.19349017
v 0.44311462 -0.30291316 0.11880058
v 0.07887265 0.54506888 0.06389170
v -0.15337259 0.56714322 0.04408067
v -0.13950766 -0.53994911 0.05576300
v 0.49081921 -0.21032703 0.10932481
v 0.55393358 0.10618771 0.08339317
v 0.14506627 -0.57090916 0.03643250
v -0.07790278 0.56534368 0.07837392
v 0.49234289 -0.32259684 0.03619093
v -0.57169067 -0.12974498 0.04108233
v 0.22329574 -0.46479870 0.11786845
v -0.49826197 -0.25579529 0.06274643
v -0.02713353 0.58734202 0.03743079
v 0.13793018 0.34386959 0.21299920
v 0.02082004 -0.58739561 0.03509394
v -0.36431210 -0.37232487 0.11909564
v -0.09455012 -0.23144026 0.26229251
v -0.58628572 -0.01826324 0.03594714
v -0.52364809 0.23085489 0.06285555
v 0.40064421 -0.44365448 0.00000000
v -0.24689542 -0.53290700 0.03456360
v -0.15077853 0.48735010 0.14782016
v 0.27310475 -0.35847960 0.15039238
v -0.10582655 0.43993988 0.19236749
v 0.50082265 0.08294655 0.14565313
v -0.40962376 0.29993564 0.14888455
v -0.44313870 -0.17020956 0.16010096
v 0.46825577 0.34691824 0.02686417
v -0.18542638 0.12081015 0.28977828
v 0.14271824 0.55637303 0.03991440
v -0.50177820 -0.19494217 0.10421164
v 0.55587115 -0.17908978 0.03118395
v 0.47487410 0.15065995 0.14999763
v -0.08084822 -0.57889800 0.02482703
v -0.22366848 -0.03099283 0.28306005
v -0.54873973 -0.02124489 0.09430084
v 0.22422003 -0.54211177 0.03442904
v 0.42857266 0.32860823 0.08147057
v 0.00411540 0.37570684 0.20977044
v -0.06950553 -0.52404376 0.08795729
v 0.25012794 0.31029743 0.21481011
v -0.53226997 0.06002279 0.08469384
v 0.49744929 -0.13571148 0.10064644
v 0.09861134 -0.40445280 0.20234259
v 0.30714512 0.38516371 0.16855779
v 0.34964745 -0.32974595 0.15811232
v -0.40566873 0.42029336 0.03735459
v -0.43461614 0.00870112 0.17818189
v 0.14721445 -0.11396249 0.29918864
v -0.38572057 -0.08630073 0.20645522
v -0.56063014 0.20884998 0.00000000
v 0.24307497 0.54713589 0.00000000
v -0.51574183 -0.09317301 0.13069434
v -0.09852378 0.38053719 0.21423919
v 0.32647413 0.25192443 0.17983807
v 0.57092353 -0.00267030 0.06110693
v -0.02205351 0.20699467 0.29676156
v 0.22374706 -0.39451324 0.15020802
v -0.42091938 -0.40654089 0.03392260
v 0.29910795 0.16980165 0.20860345
v -0.23467263 -0.49427449 0.09672172
v 0.00831930 0.49583978 0.14636609
v -0.14842598 0.33535031 0.21029341
v -0.49260239 0.01418924 0.13955335
v -0.08939745 0.41342892 0.20625772
v 0.34399182 0.44468495 0.09505246
v 0.49478280 -0.25095041 0.09288106
v 0.46882163 -0.35789590 0.03289435
v -0.19157707 0.55755530 0.03281022
v -0.10985155 0.54700029 0.09897867
v -0.01613909 -0.58746288 0.02872718
v -0.52920977 -0.19956668 0.07141920
v -0.43615030 0.39340540 0.03685716
v -0.24421729 -0.51492318 0.06729284
v -0.36852940 -0.40715919 0.09429624
v 0.03944946 0.59611928 0.00000000
v 0.17778292 -0.52331376 0.09643077
v -0.30331179 -0.48351268 0.07060767
v 0.10679257 -0.54774241 0.09452022
v -0.39241483 -0.43690416 0.03506403
v -0.27746473 -0.43746710 0.13437003
v -0.00587268 0.56742070 0.07197157
v 0.40360493 0.35291638 0.10170863
v 0.52722129 0.21498936 0.06506532
v -0.32768016 0.30387812 0.18191985
v 0.27827499 -0.47116684 0.06720001
v 0.26280442 -0.52295483 0.03071956
v 0.13407451 0.49936424 0.10394360
v -0.53257868 0.19275431 0.06329902
v -0.38988441 -0.30255353 0.11811508
v -0.23514680 0.00648445 0.26996324
v -0.47548856 0.26920737 0.10787245
v 0.18421876 0.43190154 0.17353533
v 0.01195024 -0.52604958 0.12035736
v -0.50569526 0.13375534 0.09333527
v -0.01114756 -0.40943696 0.19049647
v 0.56218070 -0.20373854 0.00000000
v -0.56714153 -0.18738475 0.00000000
v 0.35187578 0.48367769 0.00000000
v -0.54189104 0.25288740 0.00000000
v 0.12668239 -0.58555543 0.00000000
v 0.59307426 -0.07036635 0.00000000
v -0.00808783 0.47109150 0.17022946
v -0.51338710 0.17189959 0.09012230
v -0.03115613 0.49923774 0.15400135
v -0.42054435 -0.37722944 0.06132266
v -0.06194773 -0.45824288 0.14160722
v -0.01998211 0.24452048 0.27843804
v -0.20497634 -0.50999749 0.08633179
v -0.20765247 -0.18549069 0.24116852
v -0.37268050 0.41945631 0.06751694
v 0.58525413 0.03921738 0.03987290
v 0.22002573 0.54081823 0.04369967
v -0.17691575 0.52417336 0.09897707
v -0.01023411 0.13613797 0.30106641
v 0.07480726 0.48822380 0.11491225
v 0.31125453 -0.41258141 0.09752601
v -0.09354102 0.52450476 0.12978705
v 0.24575792 0.49628469 0.10169126
v 0.46911511 0.36962032 0.00000000
v 0.38280261 0.13345755 0.20071007
v 0.55505537 0.14527711 0.06795203
v -0.14722791 0.54806619 0.08369239
v -0.31674262 -0.45739472 0.09129796
v 0.51660742 -0.25507679 0.06064406
v -0.57057043 -0.03158068 0.06560204
v -0.35138400 0.13587897 0.20323572
v -0.41041655 0.39564593 0.06571603
v 0.31329775 0.44681381 0.11970285
v -0.42543175 0.26215328 0.15596335
v 0.25397959 0.43772188 0.15870237
v -0.43011788 -0.24520903 0.11711524
v 0.34434087 0.41617476 0.12209258
v -0.29284631 0.38169417 0.12902052
v -0.14572100 0.43169136 0.18470147
v -0.40325786 0.20085925 0.18250269
v -0.06713025 -0.49284850 0.11493342
v 0.40618362 0.31074306 0.10881765
v 0.47023467 0.19301232 0.13356583
v 0.03210809 -0.15733876 0.29713426
v -0.36059541 -0.46484142 0.03535147
v 0.01645945 0.58343185 0.03908006
v 0.16578751 0.36356133 0.20914884
v -0.20754429 -0.55142776 0.02482289
v 0.02772071 -0.39734857 0.20348627
v 0.39530716 0.43734368 0.03603134
v -0.42641585 0.32831536 0.11841115
v -0.52656955 -0.12712382 0.11113959
v -0.24183573 -0.43644689 0.14875373
v -0.32431283 -0.34161063 0.16083467
v 0.56184721 0.20483784 0.00000000
v 0.20816483 -0.56083798 0.00000000
v 0.08397210 -0.59173423 0.00000000
v -0.55592757 -0.22435221 0.00000000
v -0.31076312 -0.51095587 0.00000000
v -0.47375897 0.12489326 0.12222450
v 0.26183066 0.34654703 0.20420494
v -0.07378094 0.58386525 0.04083721
v -0.13052045 -0.48019882 0.11441802
v 0.21026468 0.40496338 0.18977491
v 0.54981662 -0.03802996 0.07886453
v -0.23881022 0.48302569 0.09595782
v 0.21167505 0.30007130 0.22337285
v -0.54336944 -0.09113607 0.10041337
v 0.21310900 -0.50342848 0.09408102
v -0.56081910 0.03986547 0.06338245
v 0.18781593 -0.49186140 0.12132903
v 0.19062878 -0.20821952 0.24010408
v 0.19126689 0.07897912 0.29090892
v 0.56423914 0.03475469 0.07673872
v 0.14839273 0.06186425 0.29723693
v 0.34895536 -0.20214031 0.20493363
v -0.29601496 0.23195986 0.21298732
v -0.13596790 0.58273870 0.00000000
v 0.38000003 -0.26676465 0.17884527
v 0.52084658 -0.03114093 0.11033674
v 0.43860548 -0.23637865 0.15229253
v -0.44171344 -0.33905026 0.05875979
v 0.37992988 -0.04399886 0.19266001
v -0.45674084 0.24515150 0.13635060
v 0.18569357 -0.55837848 0.03603736
v 0.03413254 -0.57070321 0.06897004
v 0.30709503 -0.20538850 0.21461580
v 0.53177353 0.13666545 0.10319526
v -0.28639902 -0.46411936 0.10544897
v 0.39121015 -0.19175547 0.18860157
v 0.47009041 -0.28006591 0.10637268
v -0.36455404 0.37837296 0.11377536
v 0.00827721 -0.26087721 0.25738372
v 0.07658033 0.23770523 0.26635164
v 0.40678315 -0.41809993 0.04011540
v 0.38623139 0.45548278 0.00000000
v -0.41514957 -0.43175024 0.00000000
v 0.48766616 -0.34701583 0.00000000
v 0.24448305 -0.54638326 0.00000000
v -0.04987665 0.59509230 0.00000000
v 0.23728483 -0.08025907 0.26152031
v -0.18602783 0.54484117 0.06541327
v -0.17142195 0.36193608 0.19639986
v 0.16818817 -0.44061010 0.16702182
v -0.49328318 0.28612054 0.07488922
v -0.33785882 -0.46391646 0.06523198
v -0.50331049 0.25115303 0.08319747
v 0.32945670 0.49030296 0.03523044
v -0.17413789 -0.55056337 0.04072055
v -0.21559859 0.17760619 0.24659611
v -0.33662131 -0.14260446 0.20493851
v -0.07046315 0.50052415 0.15537974
v 0.03193450 0.34461501 0.21139349
v 0.01070944 0.21651496 0.28261834
v 0.10402607 0.36522714 0.19767441
v -0.25217047 0.54227424 0.00000000
v -0.34819371 -0.48669949 0.00000000
v 0.35804266 0.19815537 0.18035401
v -0.01991678 0.27504418 0.25138178
v -0.11292602 0.57966157 0.03222775
v -0.20643006 -0.10520394 0.26755240
v 0.05626362 -0.45794841 0.18166817
v -0.41132622 -0.15678171 0.18074207
v -0.37645726 0.03938691 0.19151480
v -0.01034604 -0.44143321 0.17643906
v 0.31148185 0.48958938 0.06264617
v -0.20452465 0.49442210 0.11142929
v -0.36984003 -0.21024588 0.16521309
v -0.05367293 0.23068209 0.28806233
v 0.51039135 -0.31181920 0.00000000
v 0.41455696 -0.30676921 0.13934733
v -0.37057598 0.21712283 0.19658492
v 0.42122806 -0.38551658 0.06720849
v 0.33408017 -0.39040513 0.11383884
v -0.56583760 -0.16558746 0.03028101
v 0.23594223 -0.14416012 0.24741456
v 0.37214747 0.16426638 0.19349623
v -0.17077934 0.08569695 0.29562142
v 0.42127602 0.01550043 0.19234188
v 0.36498839 0.46427548 0.03667805
v 0.35498431 0.31695152 0.15776543
v 0.01364764 0.44276831 0.17974397
v -0.20450793 -0.48307626 0.11522165
v 0.45965464 0.03016622 0.17440816
v -0.01229430 0.54205912 0.10682324
v -0.20658544 0.35727078 0.17721598
v 0.19865043 0.36808106 0.20813826
v 0.42247296 0.40690322 0.03666927
v 0.37170848 0.10219080 0.21071691
v 0.04303190 -0.59576648 0.00000000
v 0.49113486 -0.29366981 0.07162789
v 0.18541914 -0.11091508 0.28943560
v -0.17132084 0.50209147 0.12513346
v 0.01860030 0.28384891 0.24026571
v -0.15333132 0.05169973 0.29130250
v -0.14527262 -0.41870896 0.16564285
v 0.20336378 -0.36491037 0.17250550
v -0.37496770 0.44080924 0.03910604
v -0.34452736 0.33203017 0.16013466
v 0.31243681 -0.34933668 0.15402641
v 0.18539906 0.01483810 0.29970482
v -0.17194354 -0.52567055 0.07302498
v -0.46129072 -0.08344113 0.17504441
v -0.40204563 -0.12163695 0.19557896
v -0.33233313 -0.30544572 0.16371429
v 0.40382522 0.07824995 0.20380133
v 0.51810978 -0.06839638 0.09491038
v -0.45712209 0.38423386 0.00000000
v -0.08969717 0.59117037 0.00000000
v -0.59264344 -0.07474077 0.00000000
v 0.19178215 0.20890725 0.24316317
v 0.28231148 -0.02154323 0.24068254
v -0.20453438 -0.56193924 0.00000000
v -0.24187139 -0.09163857 0.26169593
v -0.22015776 -0.35554710 0.19565894
v -0.33382973 -0.26384147 0.16554533
v 0.12697316 0.46967261 0.13149447
v 0.50457436 0.12446258 0.13502651
v 0.07797482 -0.56555831 0.07502566
v -0.38088375 -0.02346768 0.20583898
v -0.18763145 -0.21582767 0.23667974
v 0.16073105 -0.20256804 0.25349458
v 0.02465113 -0.50176127 0.14569912
v -0.36836869 -0.43804748 0.06584890
v -0.47975581 0.05230084 0.13186513
v 0.26500462 0.24883413 0.21294970
v -0.22063116 0.39328420 0.15818864
v -0.52943300 -0.05181376 0.12047111
v 0.04754004 0.42334582 0.17406679
v 0.46821164 -0.12955327 0.12712932
v 0.34536257 -0.46241550 0.03374339
v -0.25462114 0.12650281 0.24039602
v -0.44156185 0.11593040 0.14670586
v 0.43858310 -0.35168809 0.08505107
v -0.08751782 0.47061054 0.17802281
v 0.31240728 0.47118155 0.09133710
v -0.41711557 -0.02189164 0.19342062
v 0.59738815 -0.02656682 0.00000000
v 0.32918528 -0.43752205 0.06818208
v 0.16753040 -0.57316428 0.00000000
v -0.46520955 0.35785151 0.04244088
v -0.08339666 -0.59179091 0.00000000
v -0.14142794 -0.56501095 0.02568567
v -0.53842467 -0.25937259 0.00000000
v 0.04665769 -0.25315611 0.26602605
v 0.57163268 0.14370716 0.03281210
v -0.49966764 0.07379560 0.10369875
v -0.49190066 0.32802655 0.02801936
v 0.06189175 0.57551167 0.03721083
v 0.03783695 -0.27876786 0.23954589
v 0.25679230 0.53102926 0.03386250
v 0.25258550 -0.33010774 0.17174496
v -0.00839379 -0.28555576 0.23473490
v -0.57285656 0.08995574 0.02788736
v -0.57406944 0.16454650 0.00000000
v 0.50134544 0.29472376 0.02916329
v 0.27274251 -0.53127831 0.00000000
v 0.58847582 -0.11705511 0.00000000
v 0.58847582 -0.11705511 0.00000000
v 0.56322896 -0.11288636 0.02635324
v 0.56322896 -0.11288636 0.02635324
v 0.51234609 -0.10341142 0.07501521
v 0.51234609 -0.10341142 0.07501521
v 0.53926277 -0.10845562 0.04946584
v 0.53926277 -0.10845562 0.04946584
v 0.49888572 0.33334476 0.00000000
v 0.49888572 0.33334476 0.00000000
v 0.47158200 0.31512281 0.03387354
v 0.47158200 0.31512281 0.03387354
v 0.45139414 -0.09188716 0.12557302
v 0.45139414 -0.09188716 0.12557302
v 0.48209921 -0.09768614 0.10059649
v 0.48209921 -0.09768614 0.10059649
v 0.44916999 0.29990831 0.05959119
v 0.44916999 0.29990831 0.05959119
v 0.42646837 0.28449175 0.08446784
v 0.42646837 0.28449175 0.08446784
v 0.41805664 -0.08562508 0.15009546
v 0.41805664 -0.08562508 0.15009546
v 0.37553370 0.24989195 0.13410352
v 0.37553370 0.24989195 0.13410352
v 0.40166181 0.26763627 0.10960796
v 0.40166181 0.26763627 0.10960796
v 0.34930420 -0.07263953 0.19365320
v 0.34930420 -0.07263953 0.19365320
v 0.38373014 -0.07914122 0.17267308
v 0.38373014 -0.07914122 0.17267308
v 0.34684095 0.23041433 0.15914837
v 0.34684095 0.23041433 0.15914837
v 0.33334476 -0.49888572 0.00000000
v 0.33334476 -0.49888572 0.00000000
v 0.30910447 -0.06507857 0.21548191
v 0.30910447 -0.06507857 0.21548191
v 0.30910447 -0.06507857 0.21548191
v 0.30910447 -0.06507857 0.21548191
v 0.31281817 0.20733176 0.18487439
v 0.31281817 0.20733176 0.18487439
v 0.29212159 0.06503782 0.22500455
v 0.29212159 0.06503782 0.22500455
v 0.28920069 -0.43587607 0.07355588
v 0.28920069 -0.43587607 0.07355588
v 0.30953640 -0.46558926 0.04047088
v 0.30953640 -0.46558926 0.04047088
v 0.28280562 0.10431235 0.22402436
v 0.28280562 0.10431235 0.22402436
v 0.26787859 -0.13830665 0.22097942
v 0.26787859 -0.13830665 0.22097942
v 0.28722978 -0.10546511 0.21927273
v 0.28722978 -0.10546511 0.21927273
v 0.27199954 0.14090239 0.22141024
v 0.27199954 0.14090239 0.22141024
v 0.26185542 0.17278443 0.21854991
v 0.26185542 0.17278443 0.21854991
v 0.26185542 0.17278443 0.21854991
v 0.26185542 0.17278443 0.21854991
v 0.28769961 0.19030121 0.20196329
v 0.28769961 0.19030121 0.20196329
v 0.25638902 -0.05524255 0.24583898
v 0.25638902 -0.05524255 0.24583898
v 0.24719223 -0.17133203 0.22160828
v 0.24719223 -0.17133203 0.22160828
v 0.23386067 -0.35480043 0.14939366
v 0.23386067 -0.35480043 0.14939366
v 0.20938723 0.13732691 0.25295132
v 0.20938723 0.13732691 0.25295132
v 0.23772183 0.15646650 0.23515160
v 0.23772183 0.15646650 0.23515160
v 0.23072481 0.19764674 0.22293524
v 0.23072481 0.19764674 0.22293524
v 0.20279977 0.21900170 0.22587331
v 0.20279977 0.21900170 0.22587331
v 0.17946132 -0.04093135 0.27369395
v 0.17946132 -0.04093135 0.27369395
v 0.21726750 -0.04798113 0.26212621
v 0.21726750 -0.04798113 0.26212621
v 0.19466677 -0.29738322 0.19165827
v 0.19466677 -0.29738322 0.19165827
v 0.21426953 -0.32609633 0.17133759
v 0.21426953 -0.32609633 0.17133759
v 0.17859456 0.11657529 0.26796058
v 0.17859456 0.11657529 0.26796058
v 0.17415600 -0.26735654 0.21100891
v 0.17415600 -0.26735654 0.21100891
v 0.17415600 -0.26735654 0.21100891
v 0.17415600 -0.26735654 0.21100891
v 0.13844995 -0.03331121 0.28234830
v 0.13844995 -0.03331121 0.28234830
v 0.11705511 0.58847582 0.00000000
v 0.11705511 0.58847582 0.00000000
v 0.10889823 -0.17224340 0.26555544
v 0.10889823 -0.17224340 0.26555544
v 0.11483874 -0.28332332 0.21654756
v 0.11483874 -0.28332332 0.21654756
v 0.11223466 0.27901456 0.22507951
v 0.11223466 0.27901456 0.22507951
v 0.11122047 0.56099516 0.02946597
v 0.11122047 0.56099516 0.02946597
v 0.10612373 0.53627408 0.05344394
v 0.10612373 0.53627408 0.05344394
v 0.10028554 0.50793988 0.08029734
v 0.10028554 0.50793988 0.08029734
v 0.08888341 0.45249325 0.12689592
v 0.08888341 0.45249325 0.12689592
v 0.09457993 0.48018870 0.10406030
v 0.09457993 0.48018870 0.10406030
v 0.08944770 -0.14397828 0.27484345
v 0.08944770 -0.14397828 0.27484345
v 0.07652583 0.04796923 0.28911063
v 0.07652583 0.04796923 0.28911063
v 0.08214827 0.41978380 0.15112376
v 0.08214827 0.41978380 0.15112376
v 0.06769414 0.34941980 0.19609252
v 0.06769414 0.34941980 0.19609252
v 0.07509685 0.38547015 0.17400806
v 0.07509685 0.38547015 0.17400806
v 0.05924906 0.30829886 0.21831481
v 0.05924906 0.30829886 0.21831481
v 0.05924906 0.30829886 0.21831481
v 0.05924906 0.30829886 0.21831481
v 0.08479892 0.29417783 0.22157677
v 0.08479892 0.29417783 0.22157677
v 0.09432865 -0.02520372 0.28723413
v 0.09432865 -0.02520372 0.28723413
v 0.05369503 -0.01778476 0.28883323
v 0.05369503 -0.01778476 0.28883323
v 0.03396152 0.18503265 0.27501392
v 0.03396152 0.18503265 0.27501392
v 0.01818895 0.10809048 0.28794089
v 0.01818895 0.10809048 0.28794089
v 0.02603714 0.14631972 0.28384486
v 0.02603714 0.14631972 0.28384486
v 0.01127403 0.07444169 0.28939939
v 0.01127403 0.07444169 0.28939939
v -0.01560295 0.29919043 0.22441114
v -0.01560295 0.29919043 0.22441114
v 0.01905397 0.30384290 0.22209346
v 0.01905397 0.30384290 0.22209346
v -0.02541005 -0.30985597 0.21249540
v -0.02541005 -0.30985597 0.21249540
v 0.03738611 0.02170912 0.28996867
v 0.03738611 0.02170912 0.28996867
v -0.00539751 -0.00689718 0.28887069
v 0.00399475 0.03899893 0.28984153
v 0.00399475 0.03899893 0.28984153
v -0.00539751 -0.00689718 0.28887069
v -0.00539751 -0.00689718 0.28887069
v -0.00539751 -0.00689718 0.28887069
v -0.00539751 -0.00689718 0.28887069
v -0.00539751 -0.00689718 0.28887069
v -0.00539751 -0.00689718 0.28887069
v -0.00539751 -0.00689718 0.28887069
v 0.02587868 -0.01266507 0.28897578
v 0.02587868 -0.01266507 0.28897578
v -0.02351216 -0.09999827 0.28330162
v -0.02351216 -0.09999827 0.28330162
v -0.01542005 -0.05804632 0.28669527
v -0.01542005 -0.05804632 0.28669527
v -0.07977096 -0.05618788 0.28387296
v -0.07977096 -0.05618788 0.28387296
v -0.04727518 -0.03466696 0.28682449
v -0.04727518 -0.03466696 0.28682449
v -0.06504017 -0.31508327 0.20779173
v -0.05853635 -0.28122762 0.22743459
v -0.05853635 -0.28122762 0.22743459
v -0.09650546 0.01251042 0.28510022
v -0.09650546 0.01251042 0.28510022
v -0.05633154 0.00391440 0.28763634
v -0.05633154 0.00391440 0.28763634
v -0.07427936 0.09918582 0.28452879
v -0.07427936 0.09918582 0.28452879
v -0.06504017 -0.31508327 0.20779173
v -0.06504017 -0.31508327 0.20779173
v -0.06504017 -0.31508327 0.20779173
v -0.08586590 -0.42444792 0.14213422
v -0.08586590 -0.42444792 0.14213422
v -0.09688760 0.13400617 0.27853915
v -0.09688760 0.13400617 0.27853915
v -0.11180378 -0.07740760 0.27914011
v -0.11180378 -0.07740760 0.27914011
v -0.10463807 -0.52348787 0.06311897
v -0.10463807 -0.52348787 0.06311897
v -0.11071783 -0.55556482 0.03321328
v -0.11071783 -0.55556482 0.03321328
v -0.11705511 -0.58847582 0.00000000
v -0.11705511 -0.58847582 0.00000000
v -0.13541389 0.27360669 0.22051904
v -0.13541389 0.27360669 0.22051904
v -0.14164908 -0.09718620 0.27284104
v -0.14164908 -0.09718620 0.27284104
v -0.17206669 0.02859430 0.27366787
v -0.17206669 0.02859430 0.27366787
v -0.13505171 0.02073493 0.28052920
v -0.13505171 0.02073493 0.28052920
v -0.17938893 0.26086593 0.21494071
v -0.17938893 0.26086593 0.21494071
v -0.17938893 0.26086593 0.21494071
v -0.17938893 0.26086593 0.21494071
v -0.20606209 -0.13979143 0.24663757
v -0.20606209 -0.13979143 0.24663757
v -0.17384247 -0.11853852 0.26203120
v -0.17384247 -0.11853852 0.26203120
v -0.20018071 0.29287609 0.19462915
v -0.20018071 0.29287609 0.19462915
v -0.21105097 0.03680719 0.26286608
v -0.21105097 0.03680719 0.26286608
v -0.22720678 0.19970039 0.22037382
v -0.22720678 0.19970039 0.22037382
v -0.20308162 0.23130098 0.21810444
v -0.20308162 0.23130098 0.21810444
v -0.21178795 -0.22383581 0.21377303
v -0.21178795 -0.22383581 0.21377303
v -0.23797490 -0.16081470 0.22778681
v -0.23797490 -0.16081470 0.22778681
v -0.23752075 0.35035113 0.15266126
v -0.23752075 0.35035113 0.15266126
v -0.21907087 0.32195038 0.17416961
v -0.21907087 0.32195038 0.17416961
v -0.25261679 0.16396831 0.22120583
v -0.25261679 0.16396831 0.22120583
v -0.25467902 0.37682933 0.12985034
v -0.25467902 0.37682933 0.12985034
v -0.28249323 0.05182253 0.22936705
v -0.28249323 0.05182253 0.22936705
v -0.24984126 0.04496212 0.24640957
v -0.24984126 0.04496212 0.24640957
v -0.26772919 -0.18041420 0.20732893
v -0.26772919 -0.18041420 0.20732893
v -0.26772919 -0.18041420 0.20732893
v -0.26772919 -0.18041420 0.20732893
v -0.23969364 -0.20249549 0.21087562
v -0.23969364 -0.20249549 0.21087562
v -0.28953433 -0.09901408 0.21536714
v -0.28953433 -0.09901408 0.21536714
v -0.27847791 -0.14256364 0.21172932
v -0.27847791 -0.14256364 0.21172932
v -0.27139866 0.40260822 0.10597790
v -0.27139866 0.40260822 0.10597790
v -0.28748956 0.42739570 0.08139905
v -0.28748956 0.42739570 0.08139905
v -0.29888567 -0.05512273 0.21699084
v -0.29888567 -0.05512273 0.21699084
v -0.30780816 -0.00187812 0.21572518
v -0.30780816 -0.00187812 0.21572518
v -0.31480426 0.05860887 0.21043049
v -0.30139762 -0.20269953 0.18564856
v -0.30139762 -0.20269953 0.18564856
v -0.31480426 0.05860887 0.21043049
v -0.31480426 0.05860887 0.21043049
v -0.31480426 0.05860887 0.21043049
v -0.33334476 0.49888572 0.00000000
v -0.33334476 0.49888572 0.00000000
v -0.31668523 0.47246897 0.03198845
v -0.31668523 0.47246897 0.03198845
v -0.30221054 0.45011234 0.05698010
v -0.30221054 0.45011234 0.05698010
v -0.38593897 0.07362247 0.16956212
v -0.38593897 0.07362247 0.16956212
v -0.35135713 0.06632444 0.19043817
v -0.35135713 0.06632444 0.19043817
v -0.38819063 -0.26017752 0.11751010
v -0.38819063 -0.26017752 0.11751010
v -0.42016077 0.08085062 0.14718984
v -0.42016077 0.08085062 0.14718984
v -0.41517809 -0.27804640 0.09166843
v -0.41517809 -0.27804640 0.09166843
v -0.44186240 -0.29571265 0.06500182
v -0.44186240 -0.29571265 0.06500182
v -0.49888572 -0.33334476 0.00000000
v -0.49888572 -0.33334476 0.00000000
v -0.46920216 -0.31380126 0.03500068
v -0.46920216 -0.31380126 0.03500068
v -0.51767302 0.10150043 0.06955557
v -0.51767302 0.10150043 0.06955557
v -0.58847582 0.11705511 0.00000000
v -0.58847582 0.11705511 0.00000000
v 0.05017767 0.26411894 0.24413139
v 0.05017767 0.26411894 0.24413139
v 0.04183414 0.22345904 0.26233873
v 0.04183414 0.22345904 0.26233873
v -0.16290924 0.23549636 0.23225233
v -0.16290924 0.23549636 0.23225233
v 0.15129252 -0.23395772 0.23404068
v 0.15129252 -0.23395772 0.23404068
v 0.12936091 -0.20200637 0.25207701
v 0.12936091 -0.20200637 0.25207701
v 0.14723188 0.09547733 0.27801105
v 0.14723188 0.09547733 0.27801105
v 0.11310738 0.07253937 0.28532237
v 0.11310738 0.07253937 0.28532237
v -0.12095267 0.17093843 0.26726121
v -0.12095267 0.17093843 0.26726121
v -0.14310533 0.20501624 0.25086018
v -0.14310533 0.20501624 0.25086018
v -0.05089436 -0.24160089 0.24717057
v -0.05089436 -0.24160089 0.24717057
v -0.04469470 -0.20956315 0.26051766
v -0.04469470 -0.20956315 0.26051766
v -0.05390479 0.06775816 0.28754905
v -0.05390479 0.06775816 0.28754905
v -0.03261882 0.03491528 0.28892836
v -0.03261882 0.03491528 0.28892836
v 0.06880937 -0.11406496 0.28095227
v 0.06880937 -0.11406496 0.28095227
v 0.04724394 -0.08285870 0.28523302
v 0.04724394 -0.08285870 0.28523302
v 0.02305381 -0.04791768 0.28775337
v 0.02305381 -0.04791768 0.28775337
v 0.25285009 -0.38259935 0.12522694
v 0.25285009 -0.38259935 0.12522694
v 0.27058932 -0.40859038 0.10072485
v 0.27058932 -0.40859038 0.10072485
v -0.45698717 0.08866553 0.12010714
v -0.45698717 0.08866553 0.12010714
v -0.48760098 0.09514164 0.09504683
v -0.48760098 0.09514164 0.09504683
v -0.07211883 -0.35219949 0.18762544
v -0.07211883 -0.35219949 0.18762544
v -0.07911734 -0.38894081 0.16551030
v -0.07911734 -0.38894081 0.16551030
v -0.29601455 0.09263597 0.21514452
v -0.29601455 0.09263597 0.21514452
v -0.27643245 0.12616682 0.21877407
v -0.27643245 0.12616682 0.21877407
v -0.09242262 -0.45908681 0.11691491
v -0.09242262 -0.45908681 0.11691491
v -0.09864695 -0.49190375 0.09012882
v -0.09864695 -0.49190375 0.09012882
v -0.18329881 -0.24391161 0.21503596
v -0.18329881 -0.24391161 0.21503596
v 0.29999116 0.02056522 0.22349592
v 0.29999116 0.02056522 0.22349592
v 0.30519721 -0.01871463 0.22064812
v 0.30519721 -0.01871463 0.22064812
v 0.22402528 -0.20385766 0.21939029
v 0.22402528 -0.20385766 0.21939029
v 0.19939350 -0.23620650 0.21579577
v 0.19939350 -0.23620650 0.21579577
v -0.05742440 0.29209468 0.22548915
v -0.05742440 0.29209468 0.22548915
v -0.09594586 0.28353983 0.22373997
v -0.09594586 0.28353983 0.22373997
v -0.11069092 -0.28986064 0.21278314
v -0.11069092 -0.28986064 0.21278314
v -0.15438260 -0.26307651 0.21503316
v -0.15438260 -0.26307651 0.21503316
v 0.01978297 -0.30282918 0.21620500
v 0.01978297 -0.30282918 0.21620500
v 0.06679513 -0.29400417 0.21768798
v 0.06679513 -0.29400417 0.21768798
v -0.33077210 -0.22215468 0.16451284
v -0.33077210 -0.22215468 0.16451284
v -0.36006826 -0.24155881 0.14167948
v -0.36006826 -0.24155881 0.14167948
v 0.14311634 0.25964552 0.22665344
v 0.14311634 0.25964552 0.22665344
v 0.17420749 0.23927803 0.22721149
v 0.17420749 0.23927803 0.22721149
v -0.54703337 0.10774694 0.04181641
v -0.54703337 0.10774694 0.04181641
v -0.56785458 0.11227905 0.02159024
v -0.56785458 0.11227905 0.02159024
v -0.03843864 -0.17732275 0.26976067
v -0.03843864 -0.17732275 0.26976067
v -0.03155136 -0.14169581 0.27741703
v -0.03155136 -0.14169581 0.27741703
f 658 1032 1040
f 480 747 568
f 546 741 126
f 566 59 508
f 611 741 680
f 459 747 105
f 51 396 694
f 757 465 761
f 872 413 29
f 545 656 25
f 952 940 950
f 523 712 11
f 521 615 12
f 750 575 930
f 798 740 4
f 420 4 634
f 730 533 3
f 944 596 942
f 753 584 461
f 695 633 22
f 875 555 410
f 696 627 449
f 30 449 627
f 648 819 49
f 627 857 819
f 412 915 975
f 599 974 986
f 793 556 400
f 665 400 556
f 405 707 903
f 699 456 194
f 662 606 1126
f 632 1127 1124
f 702 421 313
f 649 772 576
f 813 706 421
f 830 752 559
f 830 769 512
f 327 559 752
f 357 492 703
f 450 482 1213
f 520 384 700
f 585 726 782
f 389 700 560
f 792 776 681
f 455 395 427
f 794 387 670
f 794 390 387
f 393 938 613
f 561 391 717
f 932 511 569
f 383 831 829
f 569 829 409
f 372 409 829
f 775 534 567
f 739 756 356
f 365 675 586
f 882 476 347
f 840 315 563
f 1196 597 1194
f 315 401 475
f 291 475 790
f 697 297 563
f 877 851 286
f 698 467 636
f 641 770 193
f 193 770 704
f 173 570 196
f 630 1041 933
f 173 196 474
f 173 176 744
f 1041 630 1043
f 239 836 746
f 1048 901 716
f 125 574 144
f 901 574 137
f 901 1047 144
f 744 1045 173
f 744 488 1046
f 919 237 218
f 198 430 214
f 218 731 733
f 144 426 125
f 144 1054 426
f 488 744 176
f 237 437 214
f 214 211 667
f 157 642 839
f 1057 839 1058
f 667 837 179
f 437 229 211
f 229 437 682
f 211 209 199
f 211 214 437
f 157 1039 142
f 157 1065 1039
f 1061 1056 837
f 209 229 604
f 1284 604 240
f 209 1283 1078
f 1078 199 209
f 1060 878 1221
f 843 878 1079
f 1282 843 1079
f 1223 1070 169
f 169 158 818
f 1222 188 838
f 685 736 853
f 1071 838 191
f 188 1222 1221
f 843 736 188
f 184 175 1074
f 163 166 175
f 166 169 175
f 184 1073 182
f 1073 184 1074
f 162 184 182
f 184 163 175
f 1073 1076 182
f 182 1076 177
f 1077 1072 217
f 1085 1087 1086
f 1087 1085 177
f 1088 1077 204
f 1250 1096 1095
f 167 1250 1249
f 1100 190 1251
f 1104 1101 1093
f 207 1104 1103
f 1111 1105 1090
f 212 1111 1110
f 1112 1244 221
f 1244 1112 1091
f 1245 1088 204
f 1088 1245 1089
f 1085 1052 177
f 187 1084 1069
f 514 747 94
f 110 788 721
f 759 448 81
f 771 110 130
f 771 642 625
f 625 871 771
f 112 1298 1301
f 1299 122 1300
f 442 139 122
f 166 148 158
f 147 166 163
f 163 184 162
f 557 711 41
f 448 593 81
f 74 785 84
f 609 63 673
f 93 101 785
f 791 101 625
f 84 68 74
f 101 791 669
f 96 910 78
f 669 78 84
f 112 142 1298
f 108 1015 90
f 1015 108 1301
f 108 90 96
f 148 139 158
f 134 147 133
f 118 134 133
f 134 119 139
f 147 148 166
f 147 134 148
f 182 1052 162
f 153 163 162
f 766 497 43
f 766 666 711
f 961 766 967
f 683 425 75
f 964 43 583
f 84 425 68
f 75 78 910
f 86 1013 998
f 86 981 75
f 119 895 122
f 895 1012 1014
f 118 119 134
f 1008 118 1025
f 1232 153 162
f 1025 133 1231
f 153 1232 1231
f 153 1231 133
f 182 177 1052
f 958 20 483
f 523 767 16
f 601 966 965
f 491 842 447
f 532 433 20
f 965 972 491
f 441 447 32
f 842 980 56
f 56 688 543
f 861 749 45
f 995 543 688
f 543 995 989
f 91 1010 1009
f 91 85 988
f 1009 1024 97
f 1024 797 97
f 97 91 1009
f 799 1233 136
f 1053 136 1233
f 1230 799 797
f 767 433 28
f 634 812 577
f 45 24 32
f 24 45 37
f 64 873 749
f 71 64 543
f 44 873 71
f 103 85 97
f 85 983 988
f 103 797 111
f 87 111 100
f 136 131 121
f 797 799 127
f 127 799 121
f 902 812 16
f 420 634 577
f 863 868 31
f 653 19 424
f 52 863 434
f 863 619 868
f 44 55 67
f 890 44 434
f 982 55 71
f 494 1274 1277
f 55 494 67
f 439 103 87
f 439 1275 983
f 885 100 111
f 885 127 121
f 117 131 1031
f 117 885 121
f 131 136 187
f 804 6 463
f 8 533 789
f 891 957 946
f 38 23 619
f 954 18 540
f 42 540 23
f 42 963 540
f 494 60 52
f 60 1277 979
f 807 968 971
f 501 80 87
f 501 1019 1003
f 131 1067 1031
f 406 10 549
f 671 406 947
f 422 33 498
f 21 592 498
f 955 914 956
f 35 422 962
f 48 970 969
f 70 484 48
f 969 976 70
f 66 992 991
f 992 66 70
f 443 990 993
f 624 1018 1017
f 98 624 876
f 1017 1030 115
f 115 146 138
f 115 138 677
f 624 1017 115
f 167 146 1066
f 146 115 1030
f 1066 1068 167
f 146 167 149
f 21 587 805
f 464 629 815
f 14 875 637
f 34 814 628
f 46 814 471
f 22 805 464
f 800 814 46
f 800 811 61
f 46 62 800
f 77 1004 89
f 811 77 89
f 98 860 443
f 98 825 624
f 107 876 123
f 149 138 146
f 855 54 39
f 26 857 627
f 92 76 89
f 76 61 811
f 1004 77 991
f 89 1278 92
f 107 104 860
f 104 107 120
f 104 796 1279
f 104 1279 1005
f 626 123 135
f 154 138 149
f 154 677 138
f 149 1247 154
f 677 154 135
f 525 54 581
f 915 923 987
f 72 581 884
f 674 884 581
f 525 858 57
f 984 923 745
f 551 82 69
f 1252 72 651
f 72 1252 1255
f 651 936 1007
f 106 1281 1029
f 796 1227 1280
f 120 906 796
f 906 1227 796
f 1034 626 135
f 154 1247 1051
f 149 1249 1247
f 795 793 639
f 88 639 793
f 714 986 985
f 639 605 99
f 109 99 686
f 881 686 1006
f 686 605 1253
f 686 881 109
f 116 1022 1021
f 1026 128 1021
f 1026 1036 128
f 1226 503 143
f 156 143 503
f 150 1229 1035
f 150 156 503
f 143 156 165
f 1035 1050 161
f 181 171 1246
f 190 181 1248
f 181 1246 1248
f 402 639 88
f 536 114 828
f 466 152 132
f 635 405 600
f 145 828 124
f 124 129 145
f 522 846 200
f 178 672 607
f 129 672 145
f 151 159 168
f 168 186 183
f 165 1293 1037
f 180 192 205
f 181 768 171
f 174 590 444
f 160 155 140
f 444 522 174
f 201 846 178
f 607 168 183
f 1292 168 159
f 493 1291 1083
f 1291 493 186
f 189 170 180
f 937 1082 1290
f 929 170 189
f 189 180 205
f 606 668 1125
f 200 419 197
f 765 668 460
f 419 495 735
f 201 724 849
f 495 213 1263
f 724 213 495
f 210 202 493
f 210 1083 1115
f 504 1239 1108
f 1239 504 203
f 1308 192 185
f 203 1241 1239
f 1307 205 192
f 1100 1099 190
f 632 1124 266
f 1269 787 1270
f 477 787 258
f 284 258 272
f 490 1118 252
f 252 246 446
f 446 880 252
f 246 1262 1261
f 241 485 246
f 446 246 485
f 241 1261 1116
f 1238 645 228
f 224 1238 1240
f 224 1240 1306
f 1306 235 224
f 235 1306 1309
f 216 1309 1098
f 1098 1101 207
f 489 294 272
f 306 288 899
f 268 489 446
f 268 288 489
f 306 899 314
f 294 489 288
f 275 268 485
f 899 275 295
f 275 267 287
f 287 1289 290
f 645 254 228
f 277 1288 254
f 254 1287 228
f 645 259 254
f 224 235 621
f 235 236 248
f 621 235 248
f 207 216 1098
f 326 580 528
f 432 644 440
f 492 908 703
f 317 326 528
f 306 314 326
f 440 580 778
f 287 295 275
f 302 322 435
f 1289 287 267
f 290 1273 1154
f 1154 309 290
f 302 287 290
f 281 905 277
f 905 1155 1272
f 277 1272 1288
f 259 621 261
f 261 248 260
f 261 260 280
f 244 236 233
f 233 236 216
f 216 207 233
f 1210 806 530
f 806 370 734
f 440 778 889
f 541 889 331
f 806 734 360
f 541 331 435
f 1205 718 341
f 311 322 309
f 900 1294 1297
f 311 1174 1173
f 1173 1189 311
f 311 500 322
f 738 1175 1155
f 280 281 261
f 1143 738 280
f 280 1144 1143
f 280 260 1144
f 233 1122 244
f 244 1122 1132
f 1132 260 244
f 1103 1122 233
f 571 760 366
f 547 1211 379
f 553 655 571
f 553 571 366
f 1204 760 1209
f 847 553 354
f 1204 366 760
f 835 325 335
f 350 548 835
f 548 1295 1190
f 335 1178 1177
f 1178 335 325
f 308 289 898
f 308 312 1176
f 1157 1179 1171
f 1142 845 289
f 293 845 271
f 271 1145 1133
f 250 271 1133
f 250 1133 1123
f 1102 230 1123
f 243 212 1110
f 381 537 445
f 681 380 618
f 388 389 560
f 537 380 445
f 888 678 368
f 329 835 335
f 678 345 342
f 1177 1184 329
f 345 329 342
f 312 1185 1176
f 898 289 845
f 312 898 305
f 250 230 243
f 212 230 1102
f 445 776 381
f 912 618 515
f 887 618 380
f 378 373 588
f 912 470 664
f 436 921 364
f 436 678 351
f 1184 342 329
f 1184 1186 333
f 1186 344 333
f 319 1185 312
f 293 663 305
f 250 622 264
f 250 264 271
f 664 387 390
f 670 479 794
f 479 670 1216
f 1302 938 479
f 676 588 373
f 470 407 387
f 373 921 676
f 909 539 1256
f 355 344 848
f 848 367 355
f 848 1202 1201
f 1202 848 340
f 320 300 1168
f 320 1188 1187
f 616 719 300
f 1148 719 282
f 1168 1167 320
f 1135 1148 282
f 1110 1136 243
f 622 1136 1135
f 1136 622 243
f 212 243 230
f 732 723 562
f 1258 723 1217
f 1257 784 1258
f 527 764 361
f 623 377 917
f 462 376 374
f 352 363 623
f 917 1207 362
f 332 755 348
f 336 1264 1267
f 1264 336 332
f 296 1169 1149
f 285 301 296
f 301 316 296
f 879 1134 1137
f 274 862 285
f 249 1137 1109
f 221 249 1109
f 579 808 758
f 831 720 829
f 829 720 372
f 764 363 353
f 361 376 527
f 764 527 363
f 352 755 353
f 856 339 478
f 353 856 764
f 353 755 338
f 339 338 324
f 338 336 323
f 323 1163 603
f 1266 916 1162
f 657 257 276
f 279 657 276
f 292 301 285
f 257 862 253
f 534 775 358
f 359 654 758
f 356 756 567
f 358 343 534
f 321 538 334
f 339 801 478
f 801 324 603
f 1163 323 1267
f 1150 307 603
f 279 438 292
f 834 1162 438
f 657 292 285
f 257 657 862
f 257 234 262
f 231 253 249
f 253 231 234
f 534 816 356
f 739 598 476
f 476 1197 347
f 330 318 589
f 526 328 762
f 1182 598 526
f 318 330 538
f 303 318 538
f 318 1159 589
f 589 486 330
f 307 321 801
f 1160 303 1146
f 554 1153 1141
f 554 1141 1146
f 834 620 278
f 278 620 1237
f 1152 1225 1140
f 278 1152 1151
f 262 263 276
f 276 620 279
f 231 1114 234
f 1114 1120 234
f 231 1243 1114
f 1243 231 221
f 524 591 299
f 310 1199 1183
f 911 496 299
f 273 911 428
f 496 524 299
f 827 544 428
f 1161 283 870
f 269 827 691
f 283 1147 270
f 255 1224 1236
f 1224 1131 1139
f 247 227 242
f 227 238 222
f 247 242 255
f 238 1235 1121
f 1113 217 226
f 743 226 217
f 1121 222 238
f 204 1242 1245
f 1242 217 1113
f 650 265 877
f 251 763 544
f 919 652 237
f 535 763 256
f 245 682 269
f 270 240 691
f 682 693 251
f 604 1284 1283
f 604 245 240
f 232 255 242
f 232 1282 1285
f 232 1131 255
f 242 206 232
f 217 204 1077
f 208 222 226
f 864 832 396
f 514 920 568
f 397 711 666
f 802 844 893
f 475 291 563
f 88 714 402
f 460 668 403
f 462 386 732
f 391 542 404
f 172 600 903
f 547 379 640
f 387 407 670
f 571 408 760
f 637 696 822
f 638 388 481
f 411 708 821
f 25 748 413
f 660 725 414
f 415 126 611
f 385 928 418
f 583 683 973
f 53 865 497
f 901 144 574
f 1253 605 1254
f 219 419 735
f 419 849 495
f 852 553 366
f 737 702 576
f 752 813 327
f 498 914 422
f 69 50 65
f 376 808 374
f 19 653 17
f 284 304 867
f 777 294 429
f 746 467 698
f 1058 426 1054
f 531 754 392
f 427 395 646
f 881 552 109
f 827 283 691
f 430 866 731
f 218 237 430
f 608 334 713
f 378 364 373
f 328 431 816
f 816 534 343
f 492 357 734
f 11 20 433
f 433 532 28
f 44 890 873
f 61 65 47
f 79 76 92
f 921 904 355
f 801 603 307
f 608 478 334
f 853 242 227
f 325 548 1190
f 210 213 202
f 1057 157 839
f 916 301 438
f 1162 834 1151
f 270 691 283
f 128 141 116
f 165 156 929
f 70 48 969
f 860 104 1005
f 439 80 1275
f 341 718 440
f 767 28 441
f 441 491 447
f 1012 895 102
f 1151 834 278
f 319 320 1187
f 312 308 898
f 156 150 170
f 444 152 466
f 904 333 344
f 209 211 229
f 94 519 759
f 281 277 259
f 817 203 504
f 375 655 537
f 558 922 1
f 533 730 922
f 880 490 252
f 1220 164 1064
f 308 1179 1157
f 994 91 988
f 102 1008 1011
f 1225 278 1237
f 1224 255 1131
f 1003 896 501
f 1226 143 1027
f 160 846 155
f 595 40 57
f 191 1075 1071
f 262 1120 1234
f 1084 187 1053
f 1135 282 622
f 1149 274 296
f 135 1051 1034
f 1241 205 1307
f 1243 221 1244
f 1242 204 217
f 167 1249 149
f 1069 1067 187
f 701 925 369
f 820 864 774
f 809 924 780
f 631 802 453
f 513 740 454
f 393 455 427
f 662 926 456
f 313 783 457
f 480 105 747
f 617 137 459
f 197 460 722
f 660 549 461
f 13 753 461
f 376 462 562
f 239 265 650
f 73 465 757
f 673 593 74
f 132 536 466
f 444 155 522
f 381 375 537
f 384 408 659
f 775 579 654
f 463 469 15
f 709 813 304
f 387 664 470
f 429 317 777
f 349 359 550
f 359 758 550
f 378 887 364
f 69 65 551
f 95 551 79
f 54 472 39
f 812 750 473
f 51 564 774
f 176 474 690
f 529 220 869
f 310 475 401
f 476 1198 1197
f 886 477 737
f 856 349 550
f 693 652 251
f 871 788 110
f 105 480 741
f 792 388 776
f 141 129 552
f 159 128 1036
f 386 831 647
f 350 835 345
f 79 106 95
f 333 904 351
f 66 62 484
f 267 485 241
f 485 268 446
f 861 45 447
f 1164 762 589
f 692 588 487
f 367 539 487
f 578 176 690
f 767 441 32
f 19 31 868
f 489 272 880
f 294 288 429
f 490 258 787
f 956 671 947
f 957 18 954
f 601 441 28
f 703 337 644
f 90 1015 1013
f 493 183 186
f 1267 323 336
f 1042 658 1040
f 630 1045 1043
f 335 1177 329
f 309 1154 1174
f 159 1036 1292
f 1281 92 1278
f 66 991 77
f 52 67 494
f 837 1081 1061
f 307 1150 1153
f 1286 267 241
f 839 130 426
f 125 130 110
f 50 47 65
f 208 215 222
f 163 153 147
f 668 606 403
f 201 849 200
f 496 273 535
f 557 53 497
f 587 498 33
f 114 639 99
f 80 501 896
f 301 292 438
f 299 1181 1165
f 120 107 123
f 281 259 261
f 170 929 156
f 318 1160 1159
f 499 660 596
f 499 948 406
f 936 651 82
f 1206 539 367
f 970 35 962
f 971 42 807
f 900 541 500
f 818 442 164
f 1220 1223 818
f 1012 1011 997
f 895 119 102
f 206 853 736
f 100 501 87
f 281 280 738
f 1169 316 1166
f 1002 825 502
f 825 443 502
f 277 254 259
f 626 120 123
f 503 1226 1229
f 228 1107 1238
f 504 1108 937
f 642 157 142
f 106 1029 1020
f 348 1203 332
f 865 68 58
f 425 683 58
f 1260 210 1115
f 635 600 729
f 1024 1230 797
f 191 743 1075
f 1234 263 262
f 226 1121 1113
f 719 1148 1168
f 1246 171 1050
f 3 943 730
f 824 786 641
f 172 643 874
f 506 392 646
f 854 14 637
f 680 935 508
f 315 510 597
f 512 313 706
f 513 454 2
f 575 750 634
f 826 697 563
f 694 920 757
f 648 30 819
f 555 918 410
f 588 515 378
f 701 756 675
f 41 564 516
f 903 590 517
f 810 903 517
f 152 518 132
f 113 721 519
f 708 687 821
f 7 521 712
f 174 907 722
f 409 372 468
f 576 702 649
f 833 772 417
f 160 145 672
f 145 140 828
f 591 790 310
f 744 1049 1045
f 525 40 472
f 565 195 403
f 787 477 266
f 526 1180 1182
f 623 363 527
f 529 636 467
f 869 474 196
f 432 530 360
f 530 1208 1210
f 792 912 531
f 392 481 531
f 20 958 960
f 966 601 532
f 3 8 949
f 872 774 564
f 775 567 468
f 376 361 808
f 805 36 464
f 673 63 465
f 535 273 763
f 535 286 496
f 536 140 466
f 536 132 795
f 241 246 1261
f 538 713 334
f 62 66 77
f 108 96 791
f 1220 818 164
f 825 1002 1018
f 17 24 27
f 18 582 540
f 1229 150 503
f 368 887 371
f 1241 203 205
f 745 72 1255
f 1216 931 1259
f 404 723 732
f 595 915 49
f 113 459 137
f 1232 162 1052
f 322 500 541
f 543 64 56
f 543 989 71
f 273 428 544
f 846 201 200
f 353 338 339
f 948 499 944
f 8 891 946
f 545 959 953
f 397 545 25
f 105 617 459
f 314 295 435
f 401 1199 310
f 401 597 1196
f 226 743 208
f 913 1059 1055
f 578 731 866
f 1178 325 1170
f 1179 308 1176
f 345 888 350
f 45 749 37
f 385 547 640
f 1211 547 1215
f 1012 102 1011
f 1013 86 90
f 354 852 548
f 1083 210 493
f 1108 1082 937
f 992 70 976
f 443 993 502
f 1201 1206 367
f 980 842 972
f 683 981 973
f 270 1138 1130
f 1038 164 442
f 1265 316 1266
f 1264 332 1193
f 1268 735 1119
f 216 236 235
f 921 436 904
f 1160 318 303
f 870 1158 1161
f 1273 290 1289
f 1184 333 342
f 319 1187 1185
f 423 36 803
f 275 899 268
f 80 896 1275
f 1274 55 982
f 499 549 660
f 549 13 461
f 1150 603 1163
f 279 292 657
f 91 97 85
f 1283 209 604
f 432 440 718
f 776 388 560
f 213 210 1260
f 606 662 225
f 656 545 953
f 349 856 478
f 52 38 863
f 320 319 300
f 65 79 551
f 135 154 1051
f 1234 1237 263
f 1236 247 255
f 685 215 208
f 215 853 227
f 471 484 46
f 285 296 274
f 124 552 129
f 1087 177 1076
f 469 463 424
f 424 868 469
f 554 1146 303
f 429 306 317
f 430 198 866
f 753 875 14
f 705 594 556
f 400 715 83
f 516 557 41
f 105 741 546
f 658 546 126
f 109 828 99
f 789 684 6
f 706 830 512
f 700 659 560
f 265 698 751
f 650 535 256
f 483 11 12
f 200 907 522
f 24 37 27
f 949 945 3
f 561 383 728
f 377 376 562
f 742 751 826
f 41 397 564
f 566 850 832
f 566 480 568
f 984 745 1255
f 786 636 223
f 857 918 472
f 567 534 356
f 747 514 568
f 689 304 421
f 925 932 409
f 569 511 383
f 710 770 641
f 408 375 659
f 371 847 888
f 481 572 638
f 431 739 356
f 321 554 303
f 573 220 733
f 113 574 721
f 575 513 2
f 886 833 632
f 313 457 649
f 17 902 661
f 653 9 577
f 789 804 891
f 913 578 866
f 579 775 372
f 445 681 776
f 580 326 778
f 116 881 1022
f 1023 95 1020
f 884 674 69
f 651 884 82
f 18 15 582
f 23 540 582
f 389 859 585
f 585 782 520
f 586 347 505
f 498 587 21
f 34 805 587
f 588 676 487
f 1159 1164 589
f 762 486 589
f 174 517 590
f 370 806 482
f 734 370 687
f 1181 299 591
f 341 1297 1205
f 273 496 911
f 633 10 592
f 306 326 317
f 407 692 909
f 593 673 81
f 593 93 785
f 707 152 590
f 819 595 49
f 595 57 923
f 668 765 1271
f 1270 266 1124
f 596 944 499
f 597 401 315
f 284 294 777
f 598 1182 1198
f 526 431 328
f 599 715 509
f 600 781 729
f 600 405 903
f 601 965 491
f 1212 1215 602
f 958 483 952
f 55 1274 494
f 323 324 338
f 89 1004 1278
f 604 229 245
f 404 1303 1217
f 842 56 861
f 328 343 486
f 35 48 471
f 402 605 639
f 272 258 490
f 258 284 867
f 606 225 403
f 606 1125 1126
f 309 302 290
f 540 963 954
f 295 314 899
f 426 1058 839
f 1059 913 179
f 199 1078 1081
f 1174 311 309
f 1175 1156 1172
f 1152 278 1225
f 1153 554 307
f 1118 490 1269
f 1262 246 252
f 1280 1227 1028
f 1186 340 344
f 183 773 607
f 607 151 168
f 1116 1286 241
f 346 608 713
f 608 349 478
f 68 865 609
f 74 68 609
f 552 124 109
f 362 1207 1200
f 1292 186 168
f 1293 934 1290
f 179 913 198
f 1001 981 86
f 6 610 463
f 9 610 420
f 269 251 544
f 94 73 514
f 413 872 25
f 450 612 370
f 614 933 1041
f 616 312 305
f 616 300 319
f 836 218 733
f 239 919 836
f 617 546 398
f 137 617 716
f 227 222 215
f 238 247 1235
f 618 378 515
f 289 308 1157
f 582 619 23
f 403 195 460
f 620 263 1237
f 968 807 60
f 862 879 253
f 118 102 119
f 1168 300 719
f 316 301 916
f 621 248 261
f 622 250 243
f 161 170 150
f 352 623 362
f 623 527 377
f 1016 1019 100
f 1016 100 117
f 624 115 876
f 108 791 112
f 1103 233 207
f 626 1034 1228
f 27 890 31
f 890 37 873
f 627 819 30
f 40 857 472
f 61 628 800
f 814 34 587
f 423 855 36
f 629 39 555
f 832 727 59
f 570 933 770
f 630 173 1045
f 399 786 844
f 631 453 697
f 920 850 568
f 266 886 632
f 633 21 22
f 4 420 798
f 924 809 635
f 405 635 594
f 925 468 369
f 451 382 932
f 399 698 636
f 14 854 507
f 452 859 638
f 790 851 291
f 512 841 783
f 769 830 908
f 408 384 379
f 223 710 641
f 130 839 642
f 315 475 563
f 714 599 986
f 643 172 810
f 172 874 781
f 644 432 357
f 644 580 440
f 645 621 259
f 94 113 519
f 646 392 754
f 647 717 386
f 383 561 647
f 648 49 412
f 145 160 140
f 1195 347 1197
f 649 298 772
f 265 239 746
f 324 323 603
f 651 1007 1252
f 73 94 759
f 966 532 960
f 497 766 711
f 652 919 256
f 652 256 763
f 1180 526 762
f 1181 591 1183
f 424 9 653
f 653 577 902
f 346 654 359
f 654 579 758
f 371 537 655
f 748 25 656
f 656 953 951
f 847 371 655
f 553 847 655
f 546 658 398
f 560 381 776
f 1208 530 718
f 1209 379 1211
f 5 461 584
f 596 660 414
f 812 902 577
f 661 24 17
f 378 618 887
f 928 385 520
f 1144 260 1132
f 1145 271 845
f 722 517 174
f 565 810 195
f 662 1126 1129
f 562 784 377
f 719 663 282
f 515 470 912
f 664 390 754
f 665 780 823
f 83 714 88
f 666 961 959
f 545 666 959
f 559 337 703
f 901 137 716
f 398 1042 1044
f 667 179 198
f 667 211 199
f 619 582 469
f 668 1271 1125
f 849 419 200
f 669 84 785
f 96 669 791
f 931 1216 670
f 671 956 914
f 402 985 1254
f 1276 896 978
f 1277 60 494
f 79 92 106
f 811 800 62
f 151 607 672
f 672 178 160
f 442 158 139
f 442 1299 1038
f 500 311 1189
f 53 609 865
f 673 465 81
f 63 609 53
f 423 674 54
f 1289 267 1286
f 983 85 439
f 71 989 982
f 713 883 346
f 486 343 883
f 1284 240 1130
f 882 586 675
f 365 701 675
f 990 860 1005
f 946 949 8
f 143 165 1037
f 128 159 141
f 761 465 63
f 761 694 757
f 1263 213 1260
f 1262 252 1118
f 1294 500 1189
f 676 367 487
f 889 541 900
f 758 361 550
f 677 135 123
f 876 115 677
f 499 406 549
f 502 977 1002
f 342 351 678
f 678 436 368
f 679 561 728
f 510 1194 597
f 380 681 445
f 682 251 269
f 682 245 229
f 683 583 58
f 683 75 981
f 684 798 6
f 533 558 684
f 574 125 721
f 319 312 616
f 838 736 685
f 523 433 767
f 11 483 20
f 593 448 93
f 686 1253 1006
f 303 538 321
f 33 422 35
f 109 124 828
f 843 1282 206
f 687 612 821
f 708 492 687
f 276 263 620
f 688 1000 999
f 421 702 689
f 689 867 304
f 784 917 377
f 690 474 573
f 755 332 336
f 955 422 914
f 331 326 314
f 169 1070 175
f 141 552 116
f 691 245 269
f 487 909 692
f 1149 1134 274
f 237 214 430
f 22 815 695
f 875 753 695
f 4 740 513
f 183 493 202
f 637 822 854
f 346 358 654
f 425 78 75
f 68 425 58
f 697 826 631
f 297 697 453
f 698 399 751
f 565 225 699
f 700 384 659
f 700 585 520
f 925 892 451
f 701 369 756
f 702 313 649
f 337 559 327
f 703 644 357
f 704 933 614
f 793 795 705
f 706 313 421
f 813 752 706
f 788 871 93
f 9 420 577
f 518 405 594
f 708 411 769
f 304 777 709
f 709 327 813
f 570 710 196
f 529 223 636
f 564 51 516
f 774 872 29
f 711 557 497
f 938 1219 613
f 7 473 750
f 608 346 359
f 714 985 402
f 83 88 400
f 715 665 823
f 526 598 431
f 940 12 458
f 518 152 707
f 249 879 1137
f 310 1183 591
f 239 256 919
f 716 1044 1048
f 404 717 391
f 717 647 561
f 521 779 615
f 28 532 601
f 658 1042 398
f 1214 482 806
f 1215 547 602
f 718 1205 1208
f 873 64 71
f 581 54 674
f 72 858 581
f 720 579 372
f 574 113 137
f 721 125 110
f 488 1055 1046
f 583 973 964
f 264 663 293
f 331 314 435
f 459 94 747
f 537 371 380
f 192 180 768
f 936 551 95
f 1010 994 996
f 995 688 999
f 460 197 219
f 852 1296 1295
f 354 553 852
f 3 533 8
f 39 629 855
f 472 918 39
f 1166 1265 1191
f 155 444 466
f 723 404 1217
f 723 1258 784
f 1298 142 1039
f 792 681 912
f 566 935 480
f 1268 1271 765
f 765 460 219
f 284 272 294
f 153 133 147
f 724 201 773
f 724 202 213
f 725 660 461
f 726 585 859
f 894 572 392
f 832 864 727
f 728 383 511
f 649 457 298
f 385 418 602
f 351 342 333
f 36 34 803
f 14 507 584
f 32 447 45
f 33 35 471
f 422 955 962
f 289 1157 1142
f 528 709 317
f 731 218 430
f 731 690 733
f 732 562 462
f 732 386 717
f 733 690 573
f 733 220 836
f 734 687 492
f 360 734 357
f 495 1119 735
f 1268 765 735
f 736 838 188
f 225 565 403
f 248 244 260
f 231 249 221
f 576 886 737
f 867 689 737
f 1155 905 738
f 739 431 598
f 476 882 739
f 794 427 390
f 511 932 382
f 740 1 454
f 740 798 684
f 139 148 134
f 571 655 375
f 741 480 935
f 826 291 742
f 877 286 650
f 398 716 617
f 817 189 203
f 743 1072 1075
f 743 191 208
f 117 1031 1016
f 363 352 353
f 159 151 141
f 315 840 510
f 517 722 195
f 833 927 632
f 798 610 6
f 355 367 676
f 32 661 767
f 176 173 474
f 746 698 265
f 1131 232 1285
f 516 51 694
f 94 459 113
f 484 70 66
f 748 656 951
f 873 37 749
f 64 861 56
f 400 665 715
f 473 7 712
f 575 634 4
f 631 399 844
f 751 742 265
f 830 706 752
f 753 14 584
f 390 646 754
f 754 531 664
f 369 567 756
f 605 686 99
f 920 694 396
f 757 514 73
f 803 34 628
f 519 448 759
f 366 1204 1296
f 379 760 408
f 608 359 349
f 1198 476 598
f 1199 401 1196
f 761 516 694
f 557 63 53
f 762 1164 1180
f 762 328 486
f 599 714 83
f 987 923 984
f 117 121 131
f 618 912 681
f 515 692 470
f 763 273 544
f 763 251 652
f 1302 479 1216
f 570 173 630
f 764 550 361
f 699 643 565
f 219 735 765
f 609 673 74
f 205 203 189
f 766 961 666
f 766 43 967
f 661 32 24
f 767 661 16
f 768 185 192
f 161 180 170
f 530 432 718
f 769 908 708
f 769 411 841
f 770 933 704
f 871 625 101
f 771 130 642
f 868 424 19
f 520 640 384
f 772 833 576
f 772 897 417
f 578 488 176
f 374 386 462
f 720 831 374
f 545 397 666
f 547 385 602
f 50 69 674
f 423 50 674
f 178 607 773
f 85 103 439
f 10 671 592
f 775 468 372
f 775 654 358
f 625 642 142
f 1300 122 895
f 1301 108 112
f 627 696 26
f 381 560 659
f 258 867 477
f 10 633 13
f 592 21 633
f 777 304 284
f 777 317 709
f 433 523 11
f 67 434 44
f 38 52 807
f 1054 144 1047
f 779 7 416
f 665 809 780
f 781 600 172
f 596 414 942
f 569 383 829
f 584 507 5
f 638 394 452
f 1 740 558
f 783 313 512
f 59 566 832
f 646 395 506
f 151 129 141
f 784 1257 917
f 784 562 723
f 669 785 101
f 785 74 593
f 492 708 908
f 270 1147 1138
f 786 223 641
f 787 1269 490
f 787 266 1270
f 629 555 815
f 519 788 448
f 788 93 448
f 789 533 684
f 6 804 789
f 437 693 682
f 435 322 541
f 322 302 309
f 790 524 851
f 360 357 432
f 76 79 65
f 702 737 689
f 791 625 112
f 669 96 78
f 792 531 481
f 792 481 388
f 594 635 809
f 528 337 327
f 652 693 237
f 793 400 88
f 794 479 393
f 427 794 393
f 795 639 114
f 795 132 705
f 645 224 621
f 161 150 1035
f 180 161 768
f 796 1280 1279
f 104 120 796
f 610 9 463
f 187 136 1053
f 376 377 527
f 797 127 111
f 797 103 97
f 719 616 663
f 152 444 590
f 84 78 425
f 398 1044 716
f 798 420 610
f 267 275 485
f 362 348 352
f 1066 146 1030
f 1067 131 187
f 227 247 238
f 799 136 121
f 217 1072 743
f 62 46 484
f 61 47 628
f 397 41 711
f 1294 900 500
f 366 1296 852
f 1158 911 1165
f 321 307 554
f 410 26 696
f 802 631 844
f 122 139 119
f 688 56 980
f 132 518 705
f 803 628 47
f 803 50 423
f 804 463 15
f 18 891 804
f 20 960 532
f 186 1292 1291
f 67 52 434
f 390 427 646
f 805 34 36
f 805 22 21
f 1001 86 998
f 806 1210 1214
f 806 360 530
f 42 38 807
f 807 52 60
f 19 27 31
f 19 17 27
f 808 579 720
f 808 361 758
f 296 316 1169
f 133 1025 118
f 1228 906 626
f 809 665 556
f 810 517 195
f 810 565 643
f 408 571 375
f 222 1121 226
f 738 1156 1175
f 171 161 1050
f 171 768 161
f 61 76 65
f 811 62 77
f 178 773 201
f 813 421 304
f 557 761 63
f 814 800 628
f 814 33 471
f 815 555 875
f 815 22 464
f 1055 488 913
f 816 343 328
f 816 431 356
f 189 817 929
f 933 570 630
f 456 699 225
f 456 225 662
f 818 158 442
f 818 1223 169
f 724 773 202
f 915 595 923
f 888 368 371
f 659 375 381
f 638 572 394
f 820 774 29
f 822 696 449
f 542 939 1218
f 824 641 193
f 825 1018 624
f 825 98 443
f 580 337 528
f 81 73 759
f 223 529 710
f 352 348 755
f 826 563 291
f 826 751 631
f 60 979 968
f 827 269 544
f 827 870 283
f 391 561 679
f 404 732 717
f 542 1303 404
f 96 90 910
f 332 1203 1193
f 638 389 388
f 640 379 384
f 828 114 99
f 347 1195 505
f 830 559 908
f 831 383 647
f 831 386 374
f 200 197 907
f 858 745 57
f 927 1128 1127
f 712 12 11
f 288 306 429
f 247 1236 1235
f 1023 936 95
f 439 87 80
f 87 103 111
f 834 279 620
f 406 671 10
f 406 948 947
f 613 455 393
f 105 546 617
f 835 329 345
f 195 722 460
f 801 339 324
f 836 220 746
f 1056 179 837
f 837 667 199
f 838 685 191
f 838 1071 1222
f 264 293 271
f 264 282 663
f 1020 95 106
f 691 240 245
f 713 538 330
f 909 487 539
f 407 470 692
f 232 206 1282
f 1010 91 994
f 840 563 297
f 769 841 512
f 842 491 972
f 287 302 295
f 181 185 768
f 473 523 16
f 473 16 812
f 582 15 469
f 15 18 804
f 705 556 793
f 368 436 364
f 843 188 878
f 843 206 736
f 40 595 819
f 525 57 40
f 893 844 786
f 882 675 739
f 756 739 675
f 845 293 898
f 846 160 178
f 846 522 155
f 100 1019 501
f 847 354 350
f 848 344 340
f 848 1201 367
f 592 914 498
f 850 396 832
f 850 566 568
f 158 169 166
f 47 50 803
f 276 257 262
f 851 742 291
f 699 194 643
f 567 369 468
f 605 402 1254
f 524 286 851
f 286 535 650
f 157 1057 1062
f 13 695 753
f 539 1206 1256
f 852 1295 548
f 744 1046 1049
f 336 338 755
f 853 215 685
f 853 206 242
f 557 516 761
f 405 518 707
f 855 464 36
f 855 423 54
f 856 353 339
f 856 550 764
f 316 1265 1166
f 916 1266 316
f 214 667 198
f 92 1281 106
f 40 819 857
f 857 26 918
f 305 663 616
f 858 72 745
f 525 581 858
f 572 894 394
f 859 389 638
f 859 452 726
f 788 519 721
f 709 528 327
f 860 990 443
f 861 447 842
f 861 64 749
f 862 274 879
f 862 657 285
f 362 1200 348
f 575 4 513
f 634 750 812
f 863 31 434
f 863 38 619
f 346 883 358
f 864 51 774
f 820 727 864
f 482 450 370
f 12 712 521
f 240 270 1130
f 865 58 583
f 865 43 497
f 591 524 790
f 76 811 89
f 578 913 488
f 379 1209 760
f 9 424 463
f 114 536 795
f 588 692 515
f 687 370 612
f 867 737 477
f 868 619 469
f 869 710 529
f 869 573 474
f 799 1230 1233
f 465 73 81
f 870 827 428
f 428 911 870
f 871 110 771
f 872 564 397
f 872 397 25
f 44 71 55
f 140 536 828
f 140 155 466
f 256 239 650
f 746 220 467
f 118 1008 102
f 963 42 971
f 874 643 194
f 410 637 875
f 875 695 815
f 876 677 123
f 876 107 98
f 471 48 484
f 773 183 202
f 925 409 468
f 396 51 864
f 877 742 851
f 877 265 742
f 878 188 1221
f 878 1080 1079
f 879 249 253
f 879 274 1134
f 219 197 419
f 880 446 489
f 272 490 880
f 881 116 552
f 881 1006 1022
f 882 347 586
f 1082 1108 1106
f 594 705 518
f 809 556 594
f 883 330 486
f 883 343 358
f 884 69 82
f 884 651 72
f 125 426 130
f 13 549 10
f 220 529 467
f 573 869 220
f 885 111 127
f 885 117 100
f 886 266 477
f 886 576 833
f 887 368 364
f 887 380 371
f 834 438 279
f 142 112 625
f 888 847 350
f 888 345 678
f 814 587 33
f 889 778 331
f 889 341 440
f 890 434 31
f 890 27 37
f 644 337 580
f 629 464 855
f 475 310 790
f 891 8 789
f 891 18 957
f 892 701 365
f 893 786 824
f 894 392 506
f 524 496 286
f 895 1014 1300
f 896 1276 1275
f 897 772 298
f 898 293 305
f 234 257 253
f 1120 262 234
f 196 710 869
f 710 570 770
f 374 808 720
f 899 288 268
f 900 341 889
f 900 1297 341
f 731 578 690
f 901 1048 1047
f 461 5 725
f 902 17 653
f 902 16 661
f 295 302 435
f 903 707 590
f 903 810 172
f 244 248 236
f 542 391 939
f 1202 340 1192
f 1203 348 1200
f 282 264 622
f 715 599 83
f 904 344 355
f 904 436 351
f 905 1272 277
f 905 281 738
f 906 1228 1227
f 906 120 626
f 693 437 237
f 98 107 860
f 631 751 399
f 845 1142 1145
f 786 399 636
f 907 174 522
f 907 197 722
f 572 481 392
f 585 700 389
f 908 559 703
f 931 1256 1259
f 909 931 407
f 254 1288 1287
f 325 1190 1170
f 230 250 1123
f 910 90 86
f 75 910 86
f 299 1165 911
f 911 1158 870
f 548 350 354
f 325 835 548
f 685 208 191
f 334 801 321
f 334 478 801
f 495 1263 1119
f 645 1238 224
f 912 664 531
f 441 601 491
f 866 198 913
f 914 592 671
f 915 412 49
f 1074 175 1070
f 916 438 1162
f 116 1021 128
f 712 523 473
f 917 1257 1207
f 917 362 623
f 179 1056 1059
f 385 640 520
f 38 42 23
f 918 26 410
f 918 555 39
f 190 185 181
f 190 1099 185
f 919 218 836
f 101 93 871
f 740 684 558
f 54 525 472
f 129 151 672
f 920 396 850
f 920 514 757
f 724 495 849
f 921 355 676
f 921 373 364
f 1104 207 1101
f 1105 212 1102
f 1000 688 980
f 1080 878 1060
f 1081 837 199
f 533 922 558
f 738 1143 1156
f 923 57 745
f 122 1299 442
f 924 635 729
f 925 701 892
f 43 964 967
f 865 583 43
f 326 331 778
f 48 35 970
f 695 13 633
f 1111 212 1105
f 1112 221 1109
f 926 662 1129
f 927 1127 632
f 927 833 417
f 943 3 945
f 928 520 782
f 192 1308 1307
f 883 713 330
f 817 934 929
f 934 165 929
f 126 415 658
f 126 741 611
f 283 1161 1147
f 1251 190 1248
f 1250 167 1068
f 637 410 696
f 930 2 416
f 930 7 750
f 931 670 407
f 931 909 1256
f 932 925 451
f 932 569 409
f 614 1041 1033
f 817 937 934
f 934 1293 165
f 935 566 508
f 935 680 741
f 936 82 551
f 936 1023 1007
f 937 1290 934
f 937 817 504
f 938 1305 1219
f 938 393 479
f 939 391 679
f 12 940 483
f 2 930 575
f 1212 602 418
f 1308 185 1099
f 1309 216 235
f 940 952 483
f 940 458 950
f 482 1214 1213
f 7 779 521
f 930 416 7
f 12 615 458
f 715 941 509
f 1107 228 1287
f 927 417 1128
f 1220 1064 1063
f 1107 1287 1117
f 1084 1097 1069
f 542 1304 1303
f 1027 143 1037
f 977 502 993
f 978 896 1003
f 340 1186 1192
f 1188 320 1167
f 658 415 1032
f 974 599 509
f 975 915 987
f 1100 1251 1092
f 1064 164 1038
f 1065 157 1062
f 1096 1250 1068
f 1097 1084 1094
f 1305 938 1302
f 1304 542 1218
f 941 715 823
