# 2-part three regions, crease cable best fit, R0=R1: 1.0160 / 1.0016   R2: 1.0513 / 1.0053 (wale / course)
# E_wale 12500 E_course 5000 N/m nu 0.198, 1000 Pa, fixed solver
# mean vertex distance 3.380 mm, max 14.316 mm
v -0.34971742 0.29587394 0.19764213
v -0.34615948 0.22396828 0.25377392
v -0.12693112 0.20965705 0.31392038
v -0.16424863 -0.04900806 0.39184599
v -0.33032722 -0.14053299 0.33282851
v -0.09636682 -0.08816400 0.36921283
v -0.06442831 -0.48739414 0.10899952
v -0.06429450 -0.53132276 0.05112310
v -0.23044301 -0.37078740 0.23091582
v -0.33994261 -0.41357977 0.07860529
v -0.32370687 -0.38566976 0.14320488
v -0.27565340 -0.49448310 0.00000000
v -0.22116345 -0.48982734 0.06717017
v -0.20879980 -0.52514210 0.00000000
v -0.11717465 0.36057959 0.22962346
v -0.20748413 0.10477802 0.36419075
v -0.16489081 0.16210224 0.34139147
v -0.07245323 0.31221650 0.25362363
v -0.29817533 0.45105004 0.06655012
v -0.17818047 0.36972984 0.21879872
v -0.29408402 0.35239758 0.18850365
v -0.35333952 0.40782713 0.07098295
v -0.51631023 -0.17222595 0.06617151
v -0.50043828 -0.12853771 0.12672424
v -0.50694062 -0.04596463 0.14168145
v -0.48843440 -0.28809390 0.00000000
v -0.46118726 -0.03773890 0.21702187
v -0.34724038 0.06984886 0.32273109
v -0.49830323 0.22570013 0.05901452
v -0.50428450 0.26743460 0.00000000
v -0.45396690 0.25876578 0.10702572
v -0.41832942 0.31980174 0.09687051
v -0.44661148 0.09388185 0.21863841
v -0.48538466 0.08163353 0.16585051
v -0.54108877 0.06960952 0.06356538
v -0.55876270 0.11120940 0.00000000
v -0.39467386 -0.38254921 0.04665762
v -0.50729473 0.11213175 0.11735597
v -0.48429656 0.18647018 0.11625681
v -0.24114369 0.04834328 0.37544857
v -0.22248125 -0.21363211 0.35173910
v -0.15396215 -0.19754175 0.35958350
v -0.38053861 -0.22663307 0.24664124
v -0.15903538 0.32062018 0.25703883
v -0.26886530 -0.14552740 0.36450983
v -0.47497491 -0.20703581 0.12340103
v -0.48291951 -0.24892012 0.06705240
v -0.05233331 -0.38123787 0.20613289
v -0.10132224 -0.01539967 0.37464197
v -0.30045912 -0.35457678 0.20567000
v -0.30417607 -0.06750242 0.36344050
v -0.55190260 -0.13759440 0.00000000
v -0.14521069 -0.52595035 0.04357143
v -0.36620965 -0.32700425 0.16987962
v -0.23962279 0.44630739 0.11892192
v -0.56651810 -0.05534892 0.00000000
v -0.16776735 -0.26501867 0.32765551
v -0.18825396 0.47979482 0.10079715
v -0.33640376 0.15241303 0.30045952
v -0.40627843 0.16689449 0.23464232
v -0.52531723 0.15000614 0.06133431
v -0.38508060 -0.15220346 0.28202730
v -0.42576462 -0.09531093 0.25480530
v -0.39261797 -0.27218221 0.19378115
v -0.04488904 0.01877264 0.33673233
v 0.00005998 0.05582431 0.28793951
v -0.09943391 0.04773614 0.36451745
v -0.29301390 -0.45974968 0.05282017
v -0.27391693 -0.43980238 0.11057021
v -0.54294332 -0.01204714 0.06978044
v -0.05752512 0.50026732 0.09793730
v -0.33923638 -0.29593770 0.23205232
v -0.34292856 -0.19966079 0.29796820
v -0.28735300 0.49593610 0.00000000
v -0.05454412 0.09048761 0.33073590
v -0.46401348 -0.16530877 0.17104652
v -0.46973546 -0.10356550 0.19075342
v -0.12774460 -0.45718164 0.15253613
v -0.14013231 -0.49620636 0.09710414
v 0.00006969 -0.45268877 0.10754356
v -0.05761030 -0.43725245 0.16013670
v -0.35645015 -0.01212070 0.32960971
v -0.39246592 0.03247976 0.29339753
v -0.30041220 0.01831081 0.36111672
v -0.43123763 -0.22261757 0.18366096
v -0.44178713 -0.31726546 0.06336610
v -0.38707948 -0.35231589 0.10807884
v -0.23161314 0.33874152 0.23081579
v -0.46190175 0.29900095 0.05095515
v -0.10355158 0.53145174 0.05521319
v -0.21899503 0.27731001 0.27721055
v -0.18613337 -0.32772668 0.28340208
v -0.11122985 -0.35614247 0.25203112
v -0.23728080 -0.01888578 0.38732696
v -0.07459471 0.44855203 0.15614857
v -0.13600095 0.40957201 0.19228813
v -0.43728168 0.21460812 0.16748196
v -0.04632841 -0.26026398 0.27951902
v 0.00012744 -0.21328099 0.24701518
v 0.00011212 -0.27533381 0.22083125
v 0.00002579 0.52054365 0.05622767
v -0.29839360 0.40343294 0.13101561
v -0.43070723 -0.28128745 0.13008463
v -0.20301903 -0.45710397 0.13351315
v -0.52568750 -0.21598770 0.00000000
v -0.46147370 0.33737290 0.00000000
v -0.27856974 0.22059029 0.29391123
v -0.41192934 -0.02978551 0.27912525
v -0.43675175 0.03039093 0.24654693
v -0.06544416 0.23714541 0.28598487
v -0.11447318 -0.41048932 0.20345588
v -0.18540502 -0.41931216 0.19076758
v -0.16895268 0.03305165 0.38498499
v -0.26958592 -0.31815590 0.26452734
v -0.44503120 -0.34986910 0.00000000
v -0.51587371 0.03383477 0.12407474
v -0.36181891 0.35455791 0.12931220
v -0.17028431 0.51627618 0.05557896
v -0.53676180 0.19235820 0.00000000
v -0.46292716 0.14580261 0.17440053
v -0.39676395 0.09799847 0.27322823
v -0.20125394 0.21884276 0.31336176
v -0.28836816 0.28778618 0.24560464
v -0.22701728 -0.09124555 0.38728419
v -0.15427716 -0.12408308 0.38207107
v -0.23762199 0.48882180 0.05863830
v -0.39275160 0.23662595 0.20360519
v -0.12781050 0.10417277 0.35805846
v -0.53510897 -0.09123839 0.07049680
v -0.40348980 0.28717867 0.15045640
v 0.00003767 -0.51323899 0.05401572
v -0.04238327 0.54373105 0.04134641
v -0.25582383 -0.40840466 0.17203966
v -0.34697380 0.45676380 0.00000000
v -0.24144758 -0.27257454 0.31282160
v -0.28807635 -0.20877668 0.33061429
v -0.20622082 -0.15592667 0.37565241
v -0.10868277 -0.29966069 0.29294484
v -0.22512888 0.40055334 0.17902002
v -0.25198471 0.16276448 0.33291446
v -0.37197944 -0.08313645 0.31377204
v -0.07384710 0.16205512 0.31884814
v -0.21795090 0.52975730 0.00000000
v -0.04192717 -0.12193072 0.32518504
v -0.34810250 -0.44666150 0.00000000
v -0.06209550 0.38405954 0.20590036
v -0.09396206 -0.16209763 0.35164131
v -0.31301144 -0.25929871 0.28454233
v -0.04965128 -0.32226758 0.24657544
v 0.00010688 -0.33578923 0.18877264
v -0.16409750 0.44833804 0.14951647
v -0.12358775 0.49001527 0.10864488
v -0.28650732 0.09827730 0.34723435
v -0.06839787 0.56933240 0.00000000
v -0.42844132 -0.16303762 0.22599339
v -0.14596640 0.55403970 0.00000000
v -0.04285479 -0.19276543 0.30563781
v -0.56873630 0.02701634 0.00000000
v 0.00008045 0.40122932 0.15901310
v -0.04313473 -0.05118444 0.33639459
v -0.48039750 0.02209622 0.18708772
v -0.09884241 -0.23416594 0.32589684
v -0.13898153 0.26660797 0.28790747
v 0.00005160 0.45895008 0.11322690
v -0.07314713 -0.56030970 0.00000000
v 0.00009688 -0.08039683 0.28041487
v 0.00003863 0.19305813 0.26957883
v 0.00007423 -0.01336146 0.28684165
v -0.16655583 -0.37865600 0.23728851
v -0.00003375 0.33356676 0.20392135
v 0.00002572 0.26445751 0.24127775
v -0.40370300 0.40570920 0.00000000
v -0.39836950 -0.40198980 0.00000000
v -0.14563750 -0.54549380 0.00000000
v -0.41101880 0.35871919 0.06025120
v 0.34975437 0.29540114 0.19731769
v 0.34614737 0.22327096 0.25344306
v 0.12700730 0.20928334 0.31377818
v 0.16434183 -0.04963992 0.39138685
v 0.33009052 -0.14013363 0.33216420
v 0.09654969 -0.08853047 0.36889337
v 0.06453982 -0.48723229 0.10905133
v 0.06434661 -0.53124816 0.05115475
v 0.23074551 -0.36943943 0.23137789
v 0.34000081 -0.41320905 0.07868265
v 0.32382089 -0.38492263 0.14335811
v 0.27565340 -0.49448310 0.00000000
v 0.22121456 -0.48959331 0.06722300
v 0.20879980 -0.52514210 0.00000000
v 0.11729319 0.36038253 0.22957577
v 0.20752489 0.10402595 0.36387019
v 0.16495757 0.16156830 0.34117279
v 0.07252485 0.31206986 0.25358174
v 0.29829203 0.45074897 0.06662876
v 0.17831321 0.36939785 0.21874383
v 0.29431399 0.35176243 0.18842735
v 0.35348242 0.40738468 0.07110293
v 0.51623210 -0.17190484 0.06616449
v 0.50023293 -0.12793568 0.12667279
v 0.50658112 -0.04577831 0.14156118
v 0.48843440 -0.28809390 0.00000000
v 0.46068644 -0.03775282 0.21668585
v 0.34719732 0.06816106 0.32228639
v 0.49827439 0.22534385 0.05903381
v 0.50428450 0.26743460 0.00000000
v 0.45411282 0.25771290 0.10718089
v 0.41852163 0.31896054 0.09703090
v 0.44631906 0.09312670 0.21827766
v 0.48502316 0.08137138 0.16562760
v 0.54092764 0.06965101 0.06350931
v 0.55876270 0.11120940 0.00000000
v 0.39469170 -0.38233071 0.04669272
v 0.50696506 0.11226539 0.11721604
v 0.48411864 0.18598928 0.11622728
v 0.24115388 0.04737769 0.37501136
v 0.22264363 -0.21254372 0.35151028
v 0.15423717 -0.19692531 0.35936614
v 0.38066343 -0.22453982 0.24684224
v 0.15914011 0.32028917 0.25695186
v 0.26876955 -0.14576626 0.36372175
v 0.47489544 -0.20629254 0.12341552
v 0.48289645 -0.24854949 0.06707490
v 0.05254083 -0.38088650 0.20620477
v 0.10144533 -0.01580179 0.37436110
v 0.30064041 -0.35340736 0.20590914
v 0.30405561 -0.06826584 0.36262320
v 0.55190260 -0.13759440 0.00000000
v 0.14524129 -0.52584293 0.04358960
v 0.36632160 -0.32596358 0.17004195
v 0.23977581 0.44594419 0.11898642
v 0.56651810 -0.05534892 0.00000000
v 0.16807403 -0.26330116 0.32803836
v 0.18834892 0.47959827 0.10081641
v 0.33639466 0.15132071 0.30011446
v 0.40622622 0.16592660 0.23427313
v 0.52518784 0.14989166 0.06129532
v 0.38479662 -0.15115569 0.28164411
v 0.42532631 -0.09476256 0.25437756
v 0.39270589 -0.27082460 0.19393200
v 0.04502392 0.01857259 0.33659077
v 0.09953113 0.04735059 0.36428798
v 0.29305462 -0.45953194 0.05287103
v 0.27401118 -0.43931789 0.11068640
v 0.54277262 -0.01195259 0.06972736
v 0.05759810 0.50022686 0.09794033
v 0.33942196 -0.29436624 0.23228691
v 0.34287596 -0.19813665 0.29777034
v 0.28735300 0.49593610 0.00000000
v 0.05465187 0.09026681 0.33060492
v 0.46383896 -0.16424169 0.17101721
v 0.46939650 -0.10249106 0.19064140
v 0.12789510 -0.45676293 0.15265357
v 0.14022108 -0.49595180 0.09716860
v 0.05777484 -0.43699949 0.16020374
v 0.35620738 -0.01335766 0.32890559
v 0.39222936 0.03092362 0.29286199
v 0.30036637 0.01687302 0.36054975
v 0.43120409 -0.22133342 0.18372394
v 0.44179761 -0.31693205 0.06340492
v 0.38713633 -0.35172814 0.10817130
v 0.23174718 0.33827071 0.23071493
v 0.46198444 0.29855581 0.05103324
v 0.10359095 0.53140358 0.05521273
v 0.21907868 0.27681245 0.27704490
v 0.18649722 -0.32641473 0.28366472
v 0.11146736 -0.35537240 0.25219420
v 0.23728158 -0.01977563 0.38675900
v 0.07471560 0.44846771 0.15614197
v 0.13613966 0.40935970 0.19226271
v 0.43720093 0.21392015 0.16725757
v 0.04654929 -0.25961431 0.27961573
v 0.29873611 0.40261927 0.13127934
v 0.43073149 -0.28047225 0.13016700
v 0.20314721 -0.45660606 0.13364798
v 0.52568750 -0.21598770 0.00000000
v 0.46147370 0.33737290 0.00000000
v 0.27860541 0.21988699 0.29364686
v 0.41148346 -0.03022720 0.27852863
v 0.43635195 0.02963089 0.24608282
v 0.06552252 0.23695705 0.28591698
v 0.11467474 -0.40990600 0.20360852
v 0.18560881 -0.41854246 0.19099365
v 0.16901537 0.03240958 0.38462493
v 0.26979411 -0.31669455 0.26474249
v 0.44503120 -0.34986910 0.00000000
v 0.51553888 0.03397335 0.12396012
v 0.36211664 0.35351914 0.12959964
v 0.17033033 0.51618318 0.05558408
v 0.53676180 0.19235820 0.00000000
v 0.46261466 0.14546213 0.17412863
v 0.39671632 0.09629294 0.27285651
v 0.20131548 0.21829952 0.31315785
v 0.28845035 0.28720387 0.24539065
v 0.22703694 -0.09214538 0.38657448
v 0.15445739 -0.12467559 0.38153305
v 0.23768870 0.48865881 0.05866456
v 0.39261912 0.23627544 0.20316465
v 0.12788961 0.10370700 0.35783096
v 0.53496302 -0.09103597 0.07045746
v 0.40375445 0.28592643 0.15059567
v 0.04241556 0.54371844 0.04135079
v 0.25599723 -0.40757063 0.17226465
v 0.34697380 0.45676380 0.00000000
v 0.24179018 -0.27044663 0.31327474
v 0.28811832 -0.20744295 0.33034737
v 0.20633244 -0.15619731 0.37498884
v 0.10888787 -0.29869397 0.29309802
v 0.22530770 0.40011216 0.17902873
v 0.25201323 0.16197222 0.33261803
v 0.37160284 -0.08320157 0.31306940
v 0.07393857 0.16179702 0.31873089
v 0.21795090 0.52975730 0.00000000
v 0.04217432 -0.12208592 0.32502814
v 0.00000000 0.57500000 0.00000000
v 0.34810250 -0.44666150 0.00000000
v 0.06225668 0.38407200 0.20584757
v 0.09423867 -0.16232171 0.35131972
v 0.31335296 -0.25695422 0.28493435
v 0.04987787 -0.32180218 0.24664714
v 0.16422650 0.44810170 0.14952500
v 0.12367211 0.48989735 0.10864782
v 0.28650671 0.09715943 0.34684046
v 0.06839787 0.56933240 0.00000000
v 0.42826784 -0.16142530 0.22595709
v 0.14596640 0.55403970 0.00000000
v 0.04321602 -0.19290657 0.30550982
v 0.56873630 0.02701634 0.00000000
v 0.00000000 -0.56637090 0.00000000
v 0.04331431 -0.05137257 0.33623820
v 0.47994731 0.02212764 0.18682031
v 0.09900315 -0.23318651 0.32595104
v 0.13906170 0.26626339 0.28779600
v 0.07314713 -0.56030970 0.00000000
v 0.00012428 -0.14765251 0.26718032
v 0.00004971 0.12546361 0.28344494
v 0.16681505 -0.37769811 0.23753687
v 0.00009347 -0.39497219 0.15092467
v 0.40370300 0.40570920 0.00000000
v 0.39836950 -0.40198980 0.00000000
v 0.14563750 -0.54549380 0.00000000
v 0.41113842 0.35825696 0.06035944
f 1 2 123
f 79 53 8
f 102 22 117
f 46 24 23
f 153 59 28
f 137 125 124
f 61 119 36
f 54 64 103
f 29 30 119
f 67 65 75
f 103 86 87
f 27 161 25
f 98 100 99
f 42 137 41
f 126 19 55
f 10 11 87
f 23 105 47
f 47 103 46
f 112 78 111
f 55 58 126
f 81 48 111
f 117 130 1
f 10 68 69
f 107 123 2
f 60 127 97
f 73 43 148
f 72 54 50
f 52 23 129
f 130 32 31
f 69 11 10
f 54 103 87
f 36 35 61
f 45 124 51
f 41 57 42
f 31 39 97
f 112 9 133
f 26 115 86
f 50 114 72
f 34 116 161
f 139 55 102
f 47 86 103
f 69 68 13
f 146 96 15
f 82 83 108
f 3 17 142
f 148 72 114
f 96 95 151
f 90 118 152
f 13 12 14
f 33 60 120
f 140 17 122
f 129 56 52
f 25 24 77
f 37 115 173
f 118 90 156
f 144 6 147
f 46 85 76
f 29 119 61
f 46 76 24
f 23 52 105
f 61 35 38
f 89 29 31
f 146 170 159
f 123 107 91
f 95 152 151
f 163 18 44
f 72 148 43
f 141 108 63
f 113 40 94
f 104 13 79
f 65 49 160
f 5 73 136
f 152 95 71
f 69 13 104
f 87 86 37
f 155 63 77
f 32 130 117
f 38 35 116
f 162 98 157
f 150 149 48
f 84 51 94
f 122 3 163
f 82 108 141
f 2 127 60
f 21 123 88
f 164 95 159
f 116 34 38
f 33 121 60
f 90 132 154
f 90 154 156
f 30 89 106
f 24 25 129
f 155 62 63
f 129 25 70
f 126 58 118
f 35 36 158
f 328 8 165
f 64 43 85
f 71 101 132
f 107 140 122
f 44 20 88
f 15 96 20
f 94 4 113
f 109 108 83
f 142 75 335
f 65 66 75
f 7 80 81
f 157 144 147
f 139 21 88
f 27 108 109
f 1 21 117
f 9 112 169
f 120 39 38
f 130 97 127
f 109 161 27
f 11 54 87
f 133 104 112
f 63 27 77
f 118 156 143
f 120 34 33
f 145 10 37
f 87 37 10
f 77 76 155
f 56 129 70
f 30 29 89
f 131 7 8
f 24 76 77
f 54 11 50
f 165 8 53
f 115 37 86
f 46 23 47
f 26 86 47
f 5 45 51
f 153 40 16
f 122 163 91
f 138 98 162
f 140 16 17
f 20 139 88
f 151 55 139
f 334 144 157
f 142 335 167
f 108 27 63
f 116 25 161
f 137 42 125
f 2 60 59
f 43 73 62
f 139 20 96
f 78 7 81
f 114 50 9
f 79 7 78
f 8 7 79
f 121 109 83
f 71 164 101
f 128 67 75
f 152 71 90
f 85 155 76
f 116 70 25
f 43 62 155
f 68 12 13
f 11 69 133
f 124 125 4
f 162 147 42
f 98 149 100
f 144 166 160
f 140 59 153
f 157 99 334
f 114 9 92
f 121 59 60
f 54 72 64
f 93 92 169
f 5 141 62
f 63 62 141
f 28 83 82
f 58 151 152
f 120 97 39
f 109 33 161
f 25 77 27
f 104 78 112
f 155 85 43
f 328 131 8
f 50 133 9
f 70 35 158
f 31 29 39
f 126 74 19
f 10 145 68
f 104 133 69
f 142 17 128
f 35 70 116
f 46 103 85
f 129 23 24
f 84 153 28
f 4 94 124
f 110 167 171
f 44 91 163
f 45 41 137
f 149 98 138
f 93 48 149
f 149 138 93
f 21 139 102
f 9 169 92
f 33 109 121
f 164 71 95
f 102 117 21
f 17 3 122
f 49 65 67
f 53 79 13
f 53 13 14
f 81 111 78
f 81 80 337
f 50 11 133
f 104 79 78
f 118 58 152
f 64 72 43
f 61 39 29
f 161 33 34
f 31 97 130
f 4 49 113
f 84 94 40
f 57 41 135
f 147 125 42
f 93 111 48
f 139 96 151
f 82 51 84
f 97 120 60
f 168 160 166
f 95 96 146
f 45 136 41
f 113 67 128
f 1 130 127
f 135 148 114
f 28 121 83
f 142 167 110
f 74 134 19
f 73 5 62
f 98 99 157
f 143 74 126
f 126 118 143
f 89 175 106
f 38 34 120
f 68 145 12
f 85 103 64
f 55 151 58
f 334 166 144
f 88 91 44
f 124 45 137
f 114 92 135
f 135 41 136
f 138 92 93
f 128 17 16
f 6 160 49
f 3 110 163
f 160 6 144
f 162 42 57
f 91 88 123
f 40 113 16
f 5 136 45
f 121 28 59
f 169 111 93
f 146 159 95
f 169 112 111
f 113 49 67
f 163 110 18
f 92 138 57
f 51 141 5
f 147 6 125
f 28 82 84
f 57 138 162
f 51 82 141
f 15 20 44
f 128 16 113
f 59 107 2
f 168 65 160
f 92 57 135
f 148 135 136
f 18 15 44
f 140 107 59
f 3 142 110
f 84 40 153
f 4 6 49
f 16 140 153
f 162 157 147
f 107 122 91
f 71 132 90
f 51 124 94
f 154 132 314
f 136 73 148
f 128 75 142
f 123 21 1
f 18 171 170
f 4 125 6
f 22 172 175
f 146 15 18
f 314 132 101
f 75 66 335
f 2 1 127
f 89 31 32
f 48 337 150
f 48 81 337
f 18 170 146
f 80 7 131
f 149 150 100
f 61 38 39
f 66 65 168
f 70 158 56
f 171 18 110
f 26 47 105
f 102 55 19
f 173 145 37
f 53 14 174
f 22 102 19
f 22 19 134
f 175 32 117
f 174 165 53
f 89 32 175
f 22 134 172
f 175 117 22
f 175 172 106
f 176 293 177
f 253 183 228
f 272 287 197
f 221 198 199
f 322 203 234
f 306 294 295
f 236 211 289
f 229 273 239
f 204 289 205
f 241 249 240
f 273 260 259
f 202 200 330
f 271 99 100
f 217 216 306
f 296 230 194
f 185 260 186
f 198 222 275
f 222 221 273
f 282 281 252
f 230 296 233
f 254 281 223
f 287 176 300
f 185 243 242
f 277 177 293
f 235 270 297
f 247 318 218
f 246 225 229
f 227 299 198
f 300 206 207
f 243 185 186
f 229 260 273
f 211 236 210
f 220 226 294
f 216 217 232
f 206 270 214
f 282 302 184
f 201 259 285
f 225 246 284
f 209 330 286
f 308 272 230
f 222 273 259
f 243 188 242
f 316 190 269
f 255 278 256
f 178 311 192
f 318 284 246
f 269 320 268
f 263 321 288
f 188 189 187
f 208 290 235
f 309 292 192
f 299 227 231
f 200 251 199
f 212 339 285
f 288 325 263
f 313 317 181
f 221 250 258
f 204 236 289
f 221 199 250
f 198 275 227
f 236 213 210
f 262 206 204
f 316 159 170
f 293 264 277
f 268 320 321
f 332 219 193
f 246 218 318
f 310 238 278
f 283 267 215
f 274 253 188
f 240 329 224
f 180 305 247
f 321 245 268
f 243 274 188
f 260 212 259
f 324 251 238
f 207 287 300
f 213 286 210
f 331 326 271
f 150 223 319
f 257 267 226
f 292 332 178
f 255 310 278
f 177 235 297
f 196 261 293
f 164 159 268
f 286 213 209
f 208 235 291
f 263 323 301
f 263 325 323
f 205 276 262
f 199 299 200
f 324 238 237
f 299 244 200
f 296 288 233
f 210 327 211
f 328 333 183
f 239 258 218
f 245 301 101
f 277 292 309
f 219 261 195
f 190 195 269
f 267 283 179
f 279 256 278
f 311 335 249
f 240 249 66
f 182 254 80
f 326 317 313
f 308 261 196
f 202 279 278
f 176 287 196
f 184 336 282
f 290 213 214
f 300 297 270
f 279 202 330
f 186 260 229
f 302 282 274
f 238 251 202
f 288 312 325
f 290 208 209
f 315 212 185
f 260 185 212
f 251 324 250
f 231 244 299
f 205 262 204
f 131 183 182
f 199 251 250
f 229 225 186
f 333 228 183
f 285 259 212
f 221 222 198
f 201 222 259
f 180 226 220
f 322 191 215
f 292 264 332
f 307 331 271
f 309 192 191
f 195 261 308
f 320 308 230
f 334 326 313
f 311 167 335
f 278 238 202
f 286 330 200
f 306 295 217
f 177 234 235
f 218 237 247
f 308 269 195
f 252 254 182
f 284 184 225
f 253 252 182
f 183 253 182
f 291 256 279
f 245 101 164
f 298 249 241
f 321 263 245
f 258 250 324
f 286 200 244
f 218 324 237
f 242 188 187
f 186 302 243
f 294 179 295
f 331 217 317
f 271 100 319
f 313 329 166
f 309 322 234
f 326 334 99
f 284 265 184
f 291 235 234
f 229 239 246
f 266 336 265
f 180 237 310
f 238 310 237
f 203 255 256
f 233 321 320
f 290 214 270
f 279 330 208
f 200 202 251
f 274 282 252
f 324 218 258
f 328 183 131
f 225 184 302
f 244 327 210
f 206 214 204
f 296 194 248
f 185 242 315
f 274 243 302
f 311 298 192
f 210 286 244
f 221 258 273
f 299 199 198
f 257 203 322
f 179 294 267
f 280 171 167
f 219 332 264
f 220 306 216
f 319 307 271
f 266 319 223
f 319 266 307
f 196 272 308
f 184 265 336
f 208 291 279
f 164 268 245
f 272 196 287
f 192 292 178
f 224 241 240
f 228 188 253
f 228 189 188
f 254 252 281
f 254 337 80
f 225 302 186
f 274 252 253
f 288 321 233
f 239 218 246
f 236 204 214
f 330 209 208
f 206 300 270
f 179 283 224
f 257 215 267
f 232 304 216
f 317 217 295
f 266 223 281
f 308 320 269
f 255 257 226
f 270 235 290
f 168 166 329
f 268 316 269
f 220 216 305
f 283 298 241
f 176 297 300
f 304 284 318
f 203 256 291
f 311 280 167
f 248 194 303
f 247 237 180
f 271 326 99
f 312 296 248
f 296 312 288
f 262 276 341
f 213 290 209
f 242 187 315
f 258 239 273
f 230 233 320
f 334 313 166
f 261 219 264
f 294 306 220
f 284 304 265
f 304 305 216
f 307 266 265
f 298 191 192
f 181 224 329
f 178 332 280
f 329 313 181
f 331 232 217
f 264 293 261
f 215 191 283
f 180 220 305
f 291 234 203
f 336 266 281
f 316 268 159
f 336 281 282
f 283 241 224
f 332 193 280
f 265 232 307
f 226 180 310
f 317 295 181
f 203 257 255
f 232 331 307
f 226 310 255
f 190 219 195
f 298 283 191
f 234 177 277
f 168 329 240
f 265 304 232
f 318 305 304
f 193 219 190
f 309 234 277
f 178 280 311
f 257 322 215
f 179 224 181
f 191 322 309
f 331 317 326
f 277 264 292
f 245 263 301
f 226 267 294
f 323 314 301
f 305 318 247
f 298 311 249
f 293 176 196
f 193 170 171
f 179 181 295
f 197 341 338
f 316 193 190
f 314 101 301
f 249 335 66
f 177 297 176
f 262 207 206
f 223 150 337
f 223 337 254
f 193 316 170
f 80 131 182
f 319 100 150
f 236 214 213
f 66 168 240
f 244 231 327
f 171 280 193
f 201 275 222
f 272 194 230
f 339 212 315
f 228 340 189
f 197 194 272
f 197 303 194
f 341 287 207
f 340 228 333
f 262 341 207
f 197 338 303
f 341 197 287
f 341 276 338
