# 2-part anisotropic, crease cable best fit, sf_wale 1.0419, sf_course 1.0121
# E_wale 12500 E_course 5000 N/m nu 0.198, 1000 Pa, fixed solver
# mean vertex distance 3.715 mm, max 12.707 mm
v -0.35051640 0.29383728 0.19791803
v -0.34664655 0.22249148 0.25315325
v -0.12749039 0.20733850 0.31255663
v -0.16542537 -0.04759713 0.38995890
v -0.33121563 -0.13815398 0.33153148
v -0.09776616 -0.08616258 0.36803999
v -0.06522107 -0.48607611 0.10902170
v -0.06468637 -0.53050889 0.05092935
v -0.23174512 -0.36838900 0.23110935
v -0.34067257 -0.41345547 0.07879617
v -0.32470955 -0.38486361 0.14336054
v -0.27565340 -0.49448310 0.00000000
v -0.22158561 -0.48961650 0.06714039
v -0.20879980 -0.52514210 0.00000000
v -0.11770277 0.35634388 0.23037896
v -0.20811394 0.10400857 0.36219005
v -0.16548277 0.16048103 0.33962878
v -0.07296234 0.30846558 0.25337026
v -0.29871020 0.45047328 0.06711120
v -0.17884801 0.36587089 0.21977475
v -0.29506510 0.34960855 0.18937358
v -0.35400606 0.40720632 0.07159391
v -0.51700793 -0.17182522 0.06623775
v -0.50130576 -0.12753350 0.12669647
v -0.50763534 -0.04522398 0.14154235
v -0.48843440 -0.28809390 0.00000000
v -0.46173506 -0.03669389 0.21642111
v -0.34765278 0.06974139 0.32111661
v -0.49890992 0.22550455 0.05924979
v -0.50428450 0.26743460 0.00000000
v -0.45486466 0.25773932 0.10751794
v -0.41918280 0.31885454 0.09746439
v -0.44700727 0.09422291 0.21796206
v -0.48590312 0.08202496 0.16556590
v -0.54163456 0.06987444 0.06362074
v -0.55876270 0.11120940 0.00000000
v -0.39522821 -0.38254055 0.04682490
v -0.50782818 0.11266191 0.11731962
v -0.48493722 0.18621441 0.11642432
v -0.24180767 0.04841535 0.37333874
v -0.22384338 -0.21011331 0.35092907
v -0.15545478 -0.19408293 0.35884163
v -0.38188131 -0.22361093 0.24660751
v -0.15957972 0.31706198 0.25702464
v -0.26989794 -0.14295161 0.36301744
v -0.47596741 -0.20609117 0.12345796
v -0.48367739 -0.24858795 0.06715630
v -0.05353314 -0.37901373 0.20702943
v -0.10252496 -0.01444745 0.37305151
v -0.30164059 -0.35284122 0.20574366
v -0.30490179 -0.06590550 0.36159529
v -0.55190260 -0.13759440 0.00000000
v -0.14546856 -0.52566351 0.04335539
v -0.36739134 -0.32573009 0.17003810
v -0.24027597 0.44486526 0.11964680
v -0.56651810 -0.05534892 0.00000000
v -0.16926716 -0.26091501 0.32769305
v -0.18873011 0.47865958 0.10131449
v -0.33679473 0.15143121 0.29919335
v -0.40673619 0.16626706 0.23396439
v -0.52585709 0.15010021 0.06145011
v -0.38598148 -0.14978257 0.28122704
v -0.42645132 -0.09351756 0.25399802
v -0.39388153 -0.27036494 0.19386119
v -0.04584620 0.01914631 0.33572635
v 0.00000000 0.05558704 0.28793643
v -0.10041718 0.04771785 0.36280218
v -0.29345436 -0.45973141 0.05292195
v -0.27465298 -0.43934097 0.11063754
v -0.54355223 -0.01173596 0.06980556
v -0.05793682 0.49841494 0.09817423
v -0.34056277 -0.29361971 0.23209506
v -0.34407191 -0.19665895 0.29733636
v -0.28735300 0.49593610 0.00000000
v -0.05528202 0.08975645 0.32943552
v -0.46500940 -0.16369922 0.17094949
v -0.47054692 -0.10168962 0.19049790
v -0.12871557 -0.45578092 0.15233048
v -0.14072303 -0.49539671 0.09677364
v 0.00000000 -0.45183080 0.10942924
v -0.05868436 -0.43555343 0.16062829
v -0.35695714 -0.01117011 0.32794384
v -0.39287293 0.03292347 0.29203789
v -0.30095596 0.01885107 0.35913561
v -0.43239996 -0.22085990 0.18365357
v -0.44254157 -0.31706890 0.06351329
v -0.38806127 -0.35184170 0.10829104
v -0.23232384 0.33531651 0.23138140
v -0.46251066 0.29868643 0.05130861
v -0.10380258 0.53074279 0.05538044
v -0.21949103 0.27447334 0.27668949
v -0.18763567 -0.32442395 0.28355587
v -0.11266687 -0.35342991 0.25240381
v -0.23811288 -0.01787335 0.38520657
v -0.07515082 0.44564764 0.15664366
v -0.13661027 0.40630860 0.19307653
v -0.43795724 0.21379303 0.16747458
v -0.04752262 -0.25651883 0.28060738
v 0.00000000 -0.20965696 0.24910457
v 0.00000000 -0.27247657 0.22316365
v 0.00000000 0.51960043 0.05719123
v -0.29936681 0.40155048 0.13202071
v -0.43180937 -0.28038960 0.13023986
v -0.20376425 -0.45619349 0.13333369
v -0.52568750 -0.21598770 0.00000000
v -0.46147370 0.33737290 0.00000000
v -0.27899657 0.21869666 0.29292422
v -0.41241729 -0.02863468 0.27794973
v -0.43716805 0.03098825 0.24562041
v -0.06594804 0.23434699 0.28497136
v -0.11575243 -0.40848913 0.20356174
v -0.18648275 -0.41762777 0.19064436
v -0.16987849 0.03331041 0.38290098
v -0.27088216 -0.31548573 0.26442465
v -0.44503120 -0.34986910 0.00000000
v -0.51647948 0.03442774 0.12400134
v -0.36280860 0.35283489 0.13022483
v -0.17056451 0.51577052 0.05587068
v -0.53676180 0.19235820 0.00000000
v -0.46340207 0.14592151 0.17409973
v -0.39716342 0.09777134 0.27210302
v -0.20170522 0.21659465 0.31210970
v -0.28898414 0.28529783 0.24548481
v -0.22806246 -0.08930713 0.38541147
v -0.15567243 -0.12162307 0.38065389
v -0.23798612 0.48834524 0.05903560
v -0.39338490 0.23532123 0.20346164
v -0.12860383 0.10330657 0.35617833
v -0.53576918 -0.09085024 0.07052556
v -0.40449331 0.28542788 0.15103394
v 0.00000000 -0.51274148 0.05514680
v -0.04260723 0.54280548 0.04144832
v -0.25681048 -0.40713418 0.17205862
v -0.34697380 0.45676380 0.00000000
v -0.24295991 -0.26862742 0.31283365
v -0.28930731 -0.20550585 0.32981204
v -0.20750258 -0.15309411 0.37427469
v -0.11016777 -0.29596336 0.29348479
v -0.22597033 0.39768459 0.18002133
v -0.25241262 0.16134797 0.33133471
v -0.37263454 -0.08141333 0.31240129
v -0.07447110 0.16031830 0.31738332
v -0.21795090 0.52975730 0.00000000
v -0.04315261 -0.11945618 0.32506486
v -0.34810250 -0.44666150 0.00000000
v -0.06252674 0.37979187 0.20675020
v -0.09545020 -0.15903228 0.35109427
v -0.31451625 -0.25564854 0.28455869
v -0.05088528 -0.31933040 0.24767348
v 0.00000000 -0.33369108 0.19117546
v -0.16468988 0.44620160 0.15016231
v -0.12402917 0.48852004 0.10904366
v -0.28696060 0.09770567 0.34541974
v -0.06839787 0.56933240 0.00000000
v -0.42947996 -0.16054758 0.22573173
v -0.14596640 0.55403970 0.00000000
v -0.04405970 -0.18914884 0.30621204
v -0.56873630 0.02701634 0.00000000
v 0.00000000 0.39793945 0.16083609
v -0.04427237 -0.04976611 0.33574159
v -0.48090948 0.02296572 0.18666581
v -0.10029311 -0.23018282 0.32609054
v -0.13949220 0.26354022 0.28708461
v 0.00000000 0.45695017 0.11471521
v -0.07314713 -0.56030970 0.00000000
v 0.00000000 -0.07875350 0.28125737
v 0.00000000 0.19111684 0.26911786
v 0.00000000 -0.01263945 0.28723322
v -0.16789499 -0.37625551 0.23734029
v 0.00000000 0.33010866 0.20512887
v 0.00000000 0.26174721 0.24145229
v -0.40370300 0.40570920 0.00000000
v -0.39836950 -0.40198980 0.00000000
v -0.14563750 -0.54549380 0.00000000
v -0.41169120 0.35826200 0.06075001
v 0.35051640 0.29383728 0.19791803
v 0.34664655 0.22249148 0.25315325
v 0.12749039 0.20733850 0.31255663
v 0.16542537 -0.04759713 0.38995890
v 0.33121563 -0.13815398 0.33153148
v 0.09776616 -0.08616258 0.36803999
v 0.06522107 -0.48607611 0.10902170
v 0.06468637 -0.53050889 0.05092935
v 0.23174512 -0.36838900 0.23110935
v 0.34067257 -0.41345547 0.07879617
v 0.32470955 -0.38486361 0.14336054
v 0.27565340 -0.49448310 0.00000000
v 0.22158561 -0.48961650 0.06714039
v 0.20879980 -0.52514210 0.00000000
v 0.11770277 0.35634388 0.23037896
v 0.20811394 0.10400857 0.36219005
v 0.16548277 0.16048103 0.33962878
v 0.07296234 0.30846558 0.25337026
v 0.29871020 0.45047328 0.06711120
v 0.17884801 0.36587089 0.21977475
v 0.29506510 0.34960855 0.18937358
v 0.35400606 0.40720632 0.07159391
v 0.51700793 -0.17182522 0.06623775
v 0.50130576 -0.12753350 0.12669647
v 0.50763534 -0.04522398 0.14154235
v 0.48843440 -0.28809390 0.00000000
v 0.46173506 -0.03669389 0.21642111
v 0.34765278 0.06974139 0.32111661
v 0.49890992 0.22550455 0.05924979
v 0.50428450 0.26743460 0.00000000
v 0.45486466 0.25773932 0.10751794
v 0.41918280 0.31885454 0.09746439
v 0.44700727 0.09422291 0.21796206
v 0.48590312 0.08202496 0.16556590
v 0.54163456 0.06987444 0.06362074
v 0.55876270 0.11120940 0.00000000
v 0.39522821 -0.38254055 0.04682490
v 0.50782818 0.11266191 0.11731962
v 0.48493722 0.18621441 0.11642432
v 0.24180767 0.04841535 0.37333874
v 0.22384338 -0.21011331 0.35092907
v 0.15545478 -0.19408293 0.35884163
v 0.38188131 -0.22361093 0.24660751
v 0.15957972 0.31706198 0.25702464
v 0.26989794 -0.14295161 0.36301744
v 0.47596741 -0.20609117 0.12345796
v 0.48367739 -0.24858795 0.06715630
v 0.05353314 -0.37901373 0.20702943
v 0.10252496 -0.01444745 0.37305151
v 0.30164059 -0.35284122 0.20574366
v 0.30490179 -0.06590550 0.36159529
v 0.55190260 -0.13759440 0.00000000
v 0.14546856 -0.52566351 0.04335539
v 0.36739134 -0.32573009 0.17003810
v 0.24027597 0.44486526 0.11964680
v 0.56651810 -0.05534892 0.00000000
v 0.16926716 -0.26091501 0.32769305
v 0.18873011 0.47865958 0.10131449
v 0.33679473 0.15143121 0.29919335
v 0.40673619 0.16626706 0.23396439
v 0.52585709 0.15010021 0.06145011
v 0.38598148 -0.14978257 0.28122704
v 0.42645132 -0.09351756 0.25399802
v 0.39388153 -0.27036494 0.19386119
v 0.04584620 0.01914631 0.33572635
v 0.10041718 0.04771785 0.36280218
v 0.29345436 -0.45973141 0.05292195
v 0.27465298 -0.43934097 0.11063754
v 0.54355223 -0.01173596 0.06980556
v 0.05793682 0.49841494 0.09817423
v 0.34056277 -0.29361971 0.23209506
v 0.34407191 -0.19665895 0.29733636
v 0.28735300 0.49593610 0.00000000
v 0.05528202 0.08975645 0.32943552
v 0.46500940 -0.16369922 0.17094949
v 0.47054692 -0.10168962 0.19049790
v 0.12871557 -0.45578092 0.15233048
v 0.14072303 -0.49539671 0.09677364
v 0.05868436 -0.43555343 0.16062829
v 0.35695714 -0.01117011 0.32794384
v 0.39287293 0.03292347 0.29203789
v 0.30095596 0.01885107 0.35913561
v 0.43239996 -0.22085990 0.18365357
v 0.44254157 -0.31706890 0.06351329
v 0.38806127 -0.35184170 0.10829104
v 0.23232384 0.33531651 0.23138140
v 0.46251066 0.29868643 0.05130861
v 0.10380258 0.53074279 0.05538044
v 0.21949103 0.27447334 0.27668949
v 0.18763567 -0.32442395 0.28355587
v 0.11266687 -0.35342991 0.25240381
v 0.23811288 -0.01787335 0.38520657
v 0.07515082 0.44564764 0.15664366
v 0.13661027 0.40630860 0.19307653
v 0.43795724 0.21379303 0.16747458
v 0.04752262 -0.25651883 0.28060738
v 0.29936681 0.40155048 0.13202071
v 0.43180937 -0.28038960 0.13023986
v 0.20376425 -0.45619349 0.13333369
v 0.52568750 -0.21598770 0.00000000
v 0.46147370 0.33737290 0.00000000
v 0.27899657 0.21869666 0.29292422
v 0.41241729 -0.02863468 0.27794973
v 0.43716805 0.03098825 0.24562041
v 0.06594804 0.23434699 0.28497136
v 0.11575243 -0.40848913 0.20356174
v 0.18648275 -0.41762777 0.19064436
v 0.16987849 0.03331041 0.38290098
v 0.27088216 -0.31548573 0.26442465
v 0.44503120 -0.34986910 0.00000000
v 0.51647948 0.03442774 0.12400134
v 0.36280860 0.35283489 0.13022483
v 0.17056451 0.51577052 0.05587068
v 0.53676180 0.19235820 0.00000000
v 0.46340207 0.14592151 0.17409973
v 0.39716342 0.09777134 0.27210302
v 0.20170522 0.21659465 0.31210970
v 0.28898414 0.28529783 0.24548481
v 0.22806246 -0.08930713 0.38541147
v 0.15567243 -0.12162307 0.38065389
v 0.23798612 0.48834524 0.05903560
v 0.39338490 0.23532123 0.20346164
v 0.12860383 0.10330657 0.35617833
v 0.53576918 -0.09085024 0.07052556
v 0.40449331 0.28542788 0.15103394
v 0.04260723 0.54280548 0.04144832
v 0.25681048 -0.40713418 0.17205862
v 0.34697380 0.45676380 0.00000000
v 0.24295991 -0.26862742 0.31283365
v 0.28930731 -0.20550585 0.32981204
v 0.20750258 -0.15309411 0.37427469
v 0.11016777 -0.29596336 0.29348479
v 0.22597033 0.39768459 0.18002133
v 0.25241262 0.16134797 0.33133471
v 0.37263454 -0.08141333 0.31240129
v 0.07447110 0.16031830 0.31738332
v 0.21795090 0.52975730 0.00000000
v 0.04315261 -0.11945618 0.32506486
v 0.00000000 0.57500000 0.00000000
v 0.34810250 -0.44666150 0.00000000
v 0.06252674 0.37979187 0.20675020
v 0.09545020 -0.15903228 0.35109427
v 0.31451625 -0.25564854 0.28455869
v 0.05088528 -0.31933040 0.24767348
v 0.16468988 0.44620160 0.15016231
v 0.12402917 0.48852004 0.10904366
v 0.28696060 0.09770567 0.34541974
v 0.06839787 0.56933240 0.00000000
v 0.42947996 -0.16054758 0.22573173
v 0.14596640 0.55403970 0.00000000
v 0.04405970 -0.18914884 0.30621204
v 0.56873630 0.02701634 0.00000000
v 0.00000000 -0.56637090 0.00000000
v 0.04427237 -0.04976611 0.33574159
v 0.48090948 0.02296572 0.18666581
v 0.10029311 -0.23018282 0.32609054
v 0.13949220 0.26354022 0.28708461
v 0.07314713 -0.56030970 0.00000000
v 0.00000000 -0.14504148 0.26860584
v 0.00000000 0.12431999 0.28306536
v 0.16789499 -0.37625551 0.23734029
v 0.00000000 -0.39356751 0.15319484
v 0.40370300 0.40570920 0.00000000
v 0.39836950 -0.40198980 0.00000000
v 0.14563750 -0.54549380 0.00000000
v 0.41169120 0.35826200 0.06075001
f 1 2 123
f 79 53 8
f 102 22 117
f 46 24 23
f 153 59 28
f 137 125 124
f 61 119 36
f 54 64 103
f 29 30 119
f 67 65 75
f 103 86 87
f 27 161 25
f 98 100 99
f 42 137 41
f 126 19 55
f 10 11 87
f 23 105 47
f 47 103 46
f 112 78 111
f 55 58 126
f 81 48 111
f 117 130 1
f 10 68 69
f 107 123 2
f 60 127 97
f 73 43 148
f 72 54 50
f 52 23 129
f 130 32 31
f 69 11 10
f 54 103 87
f 36 35 61
f 45 124 51
f 41 57 42
f 31 39 97
f 112 9 133
f 26 115 86
f 50 114 72
f 34 116 161
f 139 55 102
f 47 86 103
f 69 68 13
f 146 96 15
f 82 83 108
f 3 17 142
f 148 72 114
f 96 95 151
f 90 118 152
f 13 12 14
f 33 60 120
f 140 17 122
f 129 56 52
f 25 24 77
f 37 115 173
f 118 90 156
f 144 6 147
f 46 85 76
f 29 119 61
f 46 76 24
f 23 52 105
f 61 35 38
f 89 29 31
f 146 170 159
f 123 107 91
f 95 152 151
f 163 18 44
f 72 148 43
f 141 108 63
f 113 40 94
f 104 13 79
f 65 49 160
f 5 73 136
f 152 95 71
f 69 13 104
f 87 86 37
f 155 63 77
f 32 130 117
f 38 35 116
f 162 98 157
f 150 149 48
f 84 51 94
f 122 3 163
f 82 108 141
f 2 127 60
f 21 123 88
f 164 95 159
f 116 34 38
f 33 121 60
f 90 132 154
f 90 154 156
f 30 89 106
f 24 25 129
f 155 62 63
f 129 25 70
f 126 58 118
f 35 36 158
f 328 8 165
f 64 43 85
f 71 101 132
f 107 140 122
f 44 20 88
f 15 96 20
f 94 4 113
f 109 108 83
f 142 75 335
f 65 66 75
f 7 80 81
f 157 144 147
f 139 21 88
f 27 108 109
f 1 21 117
f 9 112 169
f 120 39 38
f 130 97 127
f 109 161 27
f 11 54 87
f 133 104 112
f 63 27 77
f 118 156 143
f 120 34 33
f 145 10 37
f 87 37 10
f 77 76 155
f 56 129 70
f 30 29 89
f 131 7 8
f 24 76 77
f 54 11 50
f 165 8 53
f 115 37 86
f 46 23 47
f 26 86 47
f 5 45 51
f 153 40 16
f 122 163 91
f 138 98 162
f 140 16 17
f 20 139 88
f 151 55 139
f 334 144 157
f 142 335 167
f 108 27 63
f 116 25 161
f 137 42 125
f 2 60 59
f 43 73 62
f 139 20 96
f 78 7 81
f 114 50 9
f 79 7 78
f 8 7 79
f 121 109 83
f 71 164 101
f 128 67 75
f 152 71 90
f 85 155 76
f 116 70 25
f 43 62 155
f 68 12 13
f 11 69 133
f 124 125 4
f 162 147 42
f 98 149 100
f 144 166 160
f 140 59 153
f 157 99 334
f 114 9 92
f 121 59 60
f 54 72 64
f 93 92 169
f 5 141 62
f 63 62 141
f 28 83 82
f 58 151 152
f 120 97 39
f 109 33 161
f 25 77 27
f 104 78 112
f 155 85 43
f 328 131 8
f 50 133 9
f 70 35 158
f 31 29 39
f 126 74 19
f 10 145 68
f 104 133 69
f 142 17 128
f 35 70 116
f 46 103 85
f 129 23 24
f 84 153 28
f 4 94 124
f 110 167 171
f 44 91 163
f 45 41 137
f 149 98 138
f 93 48 149
f 149 138 93
f 21 139 102
f 9 169 92
f 33 109 121
f 164 71 95
f 102 117 21
f 17 3 122
f 49 65 67
f 53 79 13
f 53 13 14
f 81 111 78
f 81 80 337
f 50 11 133
f 104 79 78
f 118 58 152
f 64 72 43
f 61 39 29
f 161 33 34
f 31 97 130
f 4 49 113
f 84 94 40
f 57 41 135
f 147 125 42
f 93 111 48
f 139 96 151
f 82 51 84
f 97 120 60
f 168 160 166
f 95 96 146
f 45 136 41
f 113 67 128
f 1 130 127
f 135 148 114
f 28 121 83
f 142 167 110
f 74 134 19
f 73 5 62
f 98 99 157
f 143 74 126
f 126 118 143
f 89 175 106
f 38 34 120
f 68 145 12
f 85 103 64
f 55 151 58
f 334 166 144
f 88 91 44
f 124 45 137
f 114 92 135
f 135 41 136
f 138 92 93
f 128 17 16
f 6 160 49
f 3 110 163
f 160 6 144
f 162 42 57
f 91 88 123
f 40 113 16
f 5 136 45
f 121 28 59
f 169 111 93
f 146 159 95
f 169 112 111
f 113 49 67
f 163 110 18
f 92 138 57
f 51 141 5
f 147 6 125
f 28 82 84
f 57 138 162
f 51 82 141
f 15 20 44
f 128 16 113
f 59 107 2
f 168 65 160
f 92 57 135
f 148 135 136
f 18 15 44
f 140 107 59
f 3 142 110
f 84 40 153
f 4 6 49
f 16 140 153
f 162 157 147
f 107 122 91
f 71 132 90
f 51 124 94
f 154 132 314
f 136 73 148
f 128 75 142
f 123 21 1
f 18 171 170
f 4 125 6
f 22 172 175
f 146 15 18
f 314 132 101
f 75 66 335
f 2 1 127
f 89 31 32
f 48 337 150
f 48 81 337
f 18 170 146
f 80 7 131
f 149 150 100
f 61 38 39
f 66 65 168
f 70 158 56
f 171 18 110
f 26 47 105
f 102 55 19
f 173 145 37
f 53 14 174
f 22 102 19
f 22 19 134
f 175 32 117
f 174 165 53
f 89 32 175
f 22 134 172
f 175 117 22
f 175 172 106
f 176 293 177
f 253 183 228
f 272 287 197
f 221 198 199
f 322 203 234
f 306 294 295
f 236 211 289
f 229 273 239
f 204 289 205
f 241 249 240
f 273 260 259
f 202 200 330
f 271 99 100
f 217 216 306
f 296 230 194
f 185 260 186
f 198 222 275
f 222 221 273
f 282 281 252
f 230 296 233
f 254 281 223
f 287 176 300
f 185 243 242
f 277 177 293
f 235 270 297
f 247 318 218
f 246 225 229
f 227 299 198
f 300 206 207
f 243 185 186
f 229 260 273
f 211 236 210
f 220 226 294
f 216 217 232
f 206 270 214
f 282 302 184
f 201 259 285
f 225 246 284
f 209 330 286
f 308 272 230
f 222 273 259
f 243 188 242
f 316 190 269
f 255 278 256
f 178 311 192
f 318 284 246
f 269 320 268
f 263 321 288
f 188 189 187
f 208 290 235
f 309 292 192
f 299 227 231
f 200 251 199
f 212 339 285
f 288 325 263
f 313 317 181
f 221 250 258
f 204 236 289
f 221 199 250
f 198 275 227
f 236 213 210
f 262 206 204
f 316 159 170
f 293 264 277
f 268 320 321
f 332 219 193
f 246 218 318
f 310 238 278
f 283 267 215
f 274 253 188
f 240 329 224
f 180 305 247
f 321 245 268
f 243 274 188
f 260 212 259
f 324 251 238
f 207 287 300
f 213 286 210
f 331 326 271
f 150 223 319
f 257 267 226
f 292 332 178
f 255 310 278
f 177 235 297
f 196 261 293
f 164 159 268
f 286 213 209
f 208 235 291
f 263 323 301
f 263 325 323
f 205 276 262
f 199 299 200
f 324 238 237
f 299 244 200
f 296 288 233
f 210 327 211
f 328 333 183
f 239 258 218
f 245 301 101
f 277 292 309
f 219 261 195
f 190 195 269
f 267 283 179
f 279 256 278
f 311 335 249
f 240 249 66
f 182 254 80
f 326 317 313
f 308 261 196
f 202 279 278
f 176 287 196
f 184 336 282
f 290 213 214
f 300 297 270
f 279 202 330
f 186 260 229
f 302 282 274
f 238 251 202
f 288 312 325
f 290 208 209
f 315 212 185
f 260 185 212
f 251 324 250
f 231 244 299
f 205 262 204
f 131 183 182
f 199 251 250
f 229 225 186
f 333 228 183
f 285 259 212
f 221 222 198
f 201 222 259
f 180 226 220
f 322 191 215
f 292 264 332
f 307 331 271
f 309 192 191
f 195 261 308
f 320 308 230
f 334 326 313
f 311 167 335
f 278 238 202
f 286 330 200
f 306 295 217
f 177 234 235
f 218 237 247
f 308 269 195
f 252 254 182
f 284 184 225
f 253 252 182
f 183 253 182
f 291 256 279
f 245 101 164
f 298 249 241
f 321 263 245
f 258 250 324
f 286 200 244
f 218 324 237
f 242 188 187
f 186 302 243
f 294 179 295
f 331 217 317
f 271 100 319
f 313 329 166
f 309 322 234
f 326 334 99
f 284 265 184
f 291 235 234
f 229 239 246
f 266 336 265
f 180 237 310
f 238 310 237
f 203 255 256
f 233 321 320
f 290 214 270
f 279 330 208
f 200 202 251
f 274 282 252
f 324 218 258
f 328 183 131
f 225 184 302
f 244 327 210
f 206 214 204
f 296 194 248
f 185 242 315
f 274 243 302
f 311 298 192
f 210 286 244
f 221 258 273
f 299 199 198
f 257 203 322
f 179 294 267
f 280 171 167
f 219 332 264
f 220 306 216
f 319 307 271
f 266 319 223
f 319 266 307
f 196 272 308
f 184 265 336
f 208 291 279
f 164 268 245
f 272 196 287
f 192 292 178
f 224 241 240
f 228 188 253
f 228 189 188
f 254 252 281
f 254 337 80
f 225 302 186
f 274 252 253
f 288 321 233
f 239 218 246
f 236 204 214
f 330 209 208
f 206 300 270
f 179 283 224
f 257 215 267
f 232 304 216
f 317 217 295
f 266 223 281
f 308 320 269
f 255 257 226
f 270 235 290
f 168 166 329
f 268 316 269
f 220 216 305
f 283 298 241
f 176 297 300
f 304 284 318
f 203 256 291
f 311 280 167
f 248 194 303
f 247 237 180
f 271 326 99
f 312 296 248
f 296 312 288
f 262 276 341
f 213 290 209
f 242 187 315
f 258 239 273
f 230 233 320
f 334 313 166
f 261 219 264
f 294 306 220
f 284 304 265
f 304 305 216
f 307 266 265
f 298 191 192
f 181 224 329
f 178 332 280
f 329 313 181
f 331 232 217
f 264 293 261
f 215 191 283
f 180 220 305
f 291 234 203
f 336 266 281
f 316 268 159
f 336 281 282
f 283 241 224
f 332 193 280
f 265 232 307
f 226 180 310
f 317 295 181
f 203 257 255
f 232 331 307
f 226 310 255
f 190 219 195
f 298 283 191
f 234 177 277
f 168 329 240
f 265 304 232
f 318 305 304
f 193 219 190
f 309 234 277
f 178 280 311
f 257 322 215
f 179 224 181
f 191 322 309
f 331 317 326
f 277 264 292
f 245 263 301
f 226 267 294
f 323 314 301
f 305 318 247
f 298 311 249
f 293 176 196
f 193 170 171
f 179 181 295
f 197 341 338
f 316 193 190
f 314 101 301
f 249 335 66
f 177 297 176
f 262 207 206
f 223 150 337
f 223 337 254
f 193 316 170
f 80 131 182
f 319 100 150
f 236 214 213
f 66 168 240
f 244 231 327
f 171 280 193
f 201 275 222
f 272 194 230
f 339 212 315
f 228 340 189
f 197 194 272
f 197 303 194
f 341 287 207
f 340 228 333
f 262 341 207
f 197 338 303
f 341 197 287
f 341 276 338
