# 2-part isotropic, no cable best fit, sf 1.0372
# E_wale 12500 E_course 5000 N/m nu 0.198, 1000 Pa, fixed solver
# mean vertex distance 7.278 mm, max 38.146 mm
v -0.35060768 0.29184265 0.19306279
v -0.34847652 0.22098771 0.24804064
v -0.13381276 0.20627307 0.31605948
v -0.17762777 -0.04840058 0.39201860
v -0.33825871 -0.13827685 0.32701982
v -0.11051612 -0.08744229 0.37518509
v -0.06791447 -0.48484484 0.11006910
v -0.06533220 -0.52869874 0.05048291
v -0.23644641 -0.36721456 0.22755154
v -0.34033096 -0.41205572 0.07642634
v -0.32544974 -0.38332700 0.13967834
v -0.27565340 -0.49448310 0.00000000
v -0.22148819 -0.48751571 0.06496508
v -0.20879980 -0.52514210 0.00000000
v -0.12129952 0.35319208 0.23012662
v -0.21657532 0.10318109 0.36104292
v -0.17305790 0.15934227 0.34043122
v -0.07756911 0.30793771 0.25971549
v -0.29763475 0.44822147 0.06474597
v -0.18090017 0.36174168 0.21599246
v -0.29504842 0.34659803 0.18446565
v -0.35282888 0.40538113 0.06921068
v -0.51581815 -0.17126965 0.06395172
v -0.50065903 -0.12704184 0.12302214
v -0.50711772 -0.04507412 0.13758427
v -0.48843440 -0.28809390 0.00000000
v -0.46319009 -0.03664664 0.21146434
v -0.35278785 0.06935527 0.31617463
v -0.49770894 0.22488248 0.05727297
v -0.50428450 0.26743460 0.00000000
v -0.45369629 0.25678642 0.10435190
v -0.41793062 0.31765707 0.09448019
v -0.44821165 0.09385308 0.21301456
v -0.48582723 0.08169954 0.16130867
v -0.54037164 0.06965949 0.06149472
v -0.55876270 0.11120940 0.00000000
v -0.39470242 -0.38161891 0.04530985
v -0.50685570 0.11226574 0.11393797
v -0.48391255 0.18553285 0.11306156
v -0.25074693 0.04784422 0.37114665
v -0.23390432 -0.21074106 0.34925701
v -0.16740487 -0.19516219 0.36079030
v -0.38524512 -0.22321125 0.24163810
v -0.16321169 0.31376683 0.25498097
v -0.27929088 -0.14337827 0.36007986
v -0.47542914 -0.20539465 0.11985468
v -0.48262571 -0.24779312 0.06484462
v -0.06067850 -0.38099719 0.21432635
v -0.11480907 -0.01541773 0.37991421
v -0.30438144 -0.35166030 0.20146237
v -0.31320631 -0.06619859 0.35770042
v -0.55190260 -0.13759440 0.00000000
v -0.14545230 -0.52346253 0.04175463
v -0.36854123 -0.32464343 0.16588404
v -0.23949427 0.44097324 0.11573672
v -0.56651810 -0.05534892 0.00000000
v -0.17969431 -0.26163850 0.32797378
v -0.18819467 0.47441232 0.09785132
v -0.34053672 0.15054330 0.29414264
v -0.40813633 0.16544095 0.22888270
v -0.52462010 0.14968265 0.05940337
v -0.39043168 -0.14965920 0.27608849
v -0.42945676 -0.09339070 0.24877636
v -0.39550502 -0.26959073 0.18932491
v -0.05579041 0.01837987 0.34988154
v 0.00000000 0.05699011 0.31973153
v -0.11142566 0.04702662 0.37008507
v -0.29317587 -0.45847018 0.05123989
v -0.27497637 -0.43737126 0.10752980
v -0.54224425 -0.01171947 0.06744307
v -0.05901503 0.49593497 0.09857395
v -0.34386173 -0.29292715 0.22745268
v -0.34970924 -0.19660657 0.29257671
v -0.28735300 0.49593610 0.00000000
v -0.06351912 0.08987917 0.34327273
v -0.46551676 -0.16318892 0.16655217
v -0.47141552 -0.10137383 0.18581931
v -0.13220370 -0.45336920 0.15049338
v -0.14184005 -0.49230376 0.09425886
v 0.00000000 -0.46309117 0.12636352
v -0.06383679 -0.43616726 0.16480276
v -0.36287985 -0.01138925 0.32301018
v -0.39688094 0.03270948 0.28681159
v -0.30855911 0.01846572 0.35519959
v -0.43344842 -0.22022962 0.17911209
v -0.44174424 -0.31607483 0.06138661
v -0.38787256 -0.35057311 0.10518830
v -0.23391217 0.33176827 0.22664233
v -0.46139239 0.29800545 0.04957624
v -0.10356036 0.52727823 0.05345669
v -0.22290572 0.27173638 0.27295627
v -0.19566172 -0.32430557 0.28194256
v -0.12116957 -0.35356044 0.25434011
v -0.24827661 -0.01838904 0.38345147
v -0.07765592 0.44236307 0.15673629
v -0.13876025 0.40178467 0.19005086
v -0.43764116 0.21281846 0.16318347
v -0.05720220 -0.25926061 0.29206805
v 0.00000000 -0.21753350 0.27737519
v 0.00000000 -0.28218709 0.24998824
v 0.00000000 0.52457228 0.06450674
v -0.29842304 0.39846153 0.12798477
v -0.43166957 -0.27942397 0.12657971
v -0.20517022 -0.45358777 0.12998752
v -0.52568750 -0.21598770 0.00000000
v -0.46147370 0.33737290 0.00000000
v -0.28254994 0.21690508 0.28833832
v -0.41609651 -0.02870840 0.27267077
v -0.43940410 0.03082691 0.24046498
v -0.07070087 0.23531683 0.29628277
v -0.12195790 -0.40751744 0.20372945
v -0.19034142 -0.41569825 0.18759484
v -0.18086580 0.03261936 0.38444818
v -0.27632898 -0.31498028 0.26044642
v -0.44503120 -0.34986910 0.00000000
v -0.51562965 0.03424849 0.12044806
v -0.36169503 0.35077950 0.12637124
v -0.16992674 0.51266105 0.05365218
v -0.53676180 0.19235820 0.00000000
v -0.46339046 0.14534557 0.16970055
v -0.40007949 0.09737105 0.26686208
v -0.20701656 0.21471774 0.30997599
v -0.29059093 0.28280021 0.24043763
v -0.23899264 -0.08989549 0.38418035
v -0.16821074 -0.12264171 0.38317284
v -0.23710810 0.48576579 0.05678211
v -0.39377024 0.23400100 0.19868294
v -0.13815071 0.10267786 0.36063708
v -0.53449206 -0.09052281 0.06811655
v -0.40372478 0.28401964 0.14694486
v 0.00000000 -0.51930080 0.06382431
v -0.04285055 0.54162235 0.04175927
v -0.25885509 -0.40526959 0.16818912
v -0.34697380 0.45676380 0.00000000
v -0.25101704 -0.26881176 0.30991471
v -0.29714255 -0.20574095 0.32604148
v -0.21875857 -0.15385566 0.37374502
v -0.12048717 -0.29688998 0.29695927
v -0.22621687 0.39341127 0.17519520
v -0.25818606 0.16013244 0.32783282
v -0.37816992 -0.08147967 0.30730775
v -0.08123466 0.16067843 0.32826930
v -0.21795090 0.52975730 0.00000000
v -0.05379030 -0.12153818 0.33892584
v -0.34810250 -0.44666150 0.00000000
v -0.06647936 0.37896558 0.21142451
v -0.10795397 -0.16054613 0.35796006
v -0.32010517 -0.25548043 0.28009126
v -0.05955903 -0.32186031 0.25718134
v 0.00000000 -0.34493691 0.21605509
v -0.16515978 0.44111187 0.14601887
v -0.12429512 0.48370298 0.10603764
v -0.29342885 0.09705910 0.34145385
v -0.06839787 0.56933240 0.00000000
v -0.43173473 -0.16019854 0.22072208
v -0.14596640 0.55403970 0.00000000
v -0.05430197 -0.19174456 0.31931877
v -0.56873630 0.02701634 0.00000000
v 0.00000000 0.40813386 0.18110068
v -0.05503895 -0.05120429 0.34963187
v -0.48139646 0.02281859 0.18207150
v -0.11200806 -0.23162548 0.33160554
v -0.14448302 0.26150969 0.28797369
v 0.00000000 0.46548741 0.12938179
v -0.07314713 -0.56030970 0.00000000
v 0.00000000 -0.08227728 0.31130057
v 0.00000000 0.19744560 0.29970121
v 0.00000000 -0.01383503 0.31795077
v -0.17430962 -0.37535275 0.23569003
v 0.00000000 0.34003833 0.23023758
v 0.00000000 0.27040026 0.26979073
v -0.40370300 0.40570920 0.00000000
v -0.39836950 -0.40198980 0.00000000
v -0.14563750 -0.54549380 0.00000000
v -0.41054176 0.35712161 0.05872900
v 0.35060768 0.29184265 0.19306279
v 0.34847652 0.22098771 0.24804064
v 0.13381276 0.20627307 0.31605948
v 0.17762777 -0.04840058 0.39201860
v 0.33825871 -0.13827685 0.32701982
v 0.11051612 -0.08744229 0.37518509
v 0.06791447 -0.48484484 0.11006910
v 0.06533220 -0.52869874 0.05048291
v 0.23644641 -0.36721456 0.22755154
v 0.34033096 -0.41205572 0.07642634
v 0.32544974 -0.38332700 0.13967834
v 0.27565340 -0.49448310 0.00000000
v 0.22148819 -0.48751571 0.06496508
v 0.20879980 -0.52514210 0.00000000
v 0.12129952 0.35319208 0.23012662
v 0.21657532 0.10318109 0.36104292
v 0.17305790 0.15934227 0.34043122
v 0.07756911 0.30793771 0.25971549
v 0.29763475 0.44822147 0.06474597
v 0.18090017 0.36174168 0.21599246
v 0.29504842 0.34659803 0.18446565
v 0.35282888 0.40538113 0.06921068
v 0.51581815 -0.17126965 0.06395172
v 0.50065903 -0.12704184 0.12302214
v 0.50711772 -0.04507412 0.13758427
v 0.48843440 -0.28809390 0.00000000
v 0.46319009 -0.03664664 0.21146434
v 0.35278785 0.06935527 0.31617463
v 0.49770894 0.22488248 0.05727297
v 0.50428450 0.26743460 0.00000000
v 0.45369629 0.25678642 0.10435190
v 0.41793062 0.31765707 0.09448019
v 0.44821165 0.09385308 0.21301456
v 0.48582723 0.08169954 0.16130867
v 0.54037164 0.06965949 0.06149472
v 0.55876270 0.11120940 0.00000000
v 0.39470242 -0.38161891 0.04530985
v 0.50685570 0.11226574 0.11393797
v 0.48391255 0.18553285 0.11306156
v 0.25074693 0.04784422 0.37114665
v 0.23390432 -0.21074106 0.34925701
v 0.16740487 -0.19516219 0.36079030
v 0.38524512 -0.22321125 0.24163810
v 0.16321169 0.31376683 0.25498097
v 0.27929088 -0.14337827 0.36007986
v 0.47542914 -0.20539465 0.11985468
v 0.48262571 -0.24779312 0.06484462
v 0.06067850 -0.38099719 0.21432635
v 0.11480907 -0.01541773 0.37991421
v 0.30438144 -0.35166030 0.20146237
v 0.31320631 -0.06619859 0.35770042
v 0.55190260 -0.13759440 0.00000000
v 0.14545230 -0.52346253 0.04175463
v 0.36854123 -0.32464343 0.16588404
v 0.23949427 0.44097324 0.11573672
v 0.56651810 -0.05534892 0.00000000
v 0.17969431 -0.26163850 0.32797378
v 0.18819467 0.47441232 0.09785132
v 0.34053672 0.15054330 0.29414264
v 0.40813633 0.16544095 0.22888270
v 0.52462010 0.14968265 0.05940337
v 0.39043168 -0.14965920 0.27608849
v 0.42945676 -0.09339070 0.24877636
v 0.39550502 -0.26959073 0.18932491
v 0.05579041 0.01837987 0.34988154
v 0.11142566 0.04702662 0.37008507
v 0.29317587 -0.45847018 0.05123989
v 0.27497637 -0.43737126 0.10752980
v 0.54224425 -0.01171947 0.06744307
v 0.05901503 0.49593497 0.09857395
v 0.34386173 -0.29292715 0.22745268
v 0.34970924 -0.19660657 0.29257671
v 0.28735300 0.49593610 0.00000000
v 0.06351912 0.08987917 0.34327273
v 0.46551676 -0.16318892 0.16655217
v 0.47141552 -0.10137383 0.18581931
v 0.13220370 -0.45336920 0.15049338
v 0.14184005 -0.49230376 0.09425886
v 0.06383679 -0.43616726 0.16480276
v 0.36287985 -0.01138925 0.32301018
v 0.39688094 0.03270948 0.28681159
v 0.30855911 0.01846572 0.35519959
v 0.43344842 -0.22022962 0.17911209
v 0.44174424 -0.31607483 0.06138661
v 0.38787256 -0.35057311 0.10518830
v 0.23391217 0.33176827 0.22664233
v 0.46139239 0.29800545 0.04957624
v 0.10356036 0.52727823 0.05345669
v 0.22290572 0.27173638 0.27295627
v 0.19566172 -0.32430557 0.28194256
v 0.12116957 -0.35356044 0.25434011
v 0.24827661 -0.01838904 0.38345147
v 0.07765592 0.44236307 0.15673629
v 0.13876025 0.40178467 0.19005086
v 0.43764116 0.21281846 0.16318347
v 0.05720220 -0.25926061 0.29206805
v 0.29842304 0.39846153 0.12798477
v 0.43166957 -0.27942397 0.12657971
v 0.20517022 -0.45358777 0.12998752
v 0.52568750 -0.21598770 0.00000000
v 0.46147370 0.33737290 0.00000000
v 0.28254994 0.21690508 0.28833832
v 0.41609651 -0.02870840 0.27267077
v 0.43940410 0.03082691 0.24046498
v 0.07070087 0.23531683 0.29628277
v 0.12195790 -0.40751744 0.20372945
v 0.19034142 -0.41569825 0.18759484
v 0.18086580 0.03261936 0.38444818
v 0.27632898 -0.31498028 0.26044642
v 0.44503120 -0.34986910 0.00000000
v 0.51562965 0.03424849 0.12044806
v 0.36169503 0.35077950 0.12637124
v 0.16992674 0.51266105 0.05365218
v 0.53676180 0.19235820 0.00000000
v 0.46339046 0.14534557 0.16970055
v 0.40007949 0.09737105 0.26686208
v 0.20701656 0.21471774 0.30997599
v 0.29059093 0.28280021 0.24043763
v 0.23899264 -0.08989549 0.38418035
v 0.16821074 -0.12264171 0.38317284
v 0.23710810 0.48576579 0.05678211
v 0.39377024 0.23400100 0.19868294
v 0.13815071 0.10267786 0.36063708
v 0.53449206 -0.09052281 0.06811655
v 0.40372478 0.28401964 0.14694486
v 0.04285055 0.54162235 0.04175927
v 0.25885509 -0.40526959 0.16818912
v 0.34697380 0.45676380 0.00000000
v 0.25101704 -0.26881176 0.30991471
v 0.29714255 -0.20574095 0.32604148
v 0.21875857 -0.15385566 0.37374502
v 0.12048717 -0.29688998 0.29695927
v 0.22621687 0.39341127 0.17519520
v 0.25818606 0.16013244 0.32783282
v 0.37816992 -0.08147967 0.30730775
v 0.08123466 0.16067843 0.32826930
v 0.21795090 0.52975730 0.00000000
v 0.05379030 -0.12153818 0.33892584
v 0.00000000 0.57500000 0.00000000
v 0.34810250 -0.44666150 0.00000000
v 0.06647936 0.37896558 0.21142451
v 0.10795397 -0.16054613 0.35796006
v 0.32010517 -0.25548043 0.28009126
v 0.05955903 -0.32186031 0.25718134
v 0.16515978 0.44111187 0.14601887
v 0.12429512 0.48370298 0.10603764
v 0.29342885 0.09705910 0.34145385
v 0.06839787 0.56933240 0.00000000
v 0.43173473 -0.16019854 0.22072208
v 0.14596640 0.55403970 0.00000000
v 0.05430197 -0.19174456 0.31931877
v 0.56873630 0.02701634 0.00000000
v 0.00000000 -0.56637090 0.00000000
v 0.05503895 -0.05120429 0.34963187
v 0.48139646 0.02281859 0.18207150
v 0.11200806 -0.23162548 0.33160554
v 0.14448302 0.26150969 0.28797369
v 0.07314713 -0.56030970 0.00000000
v 0.00000000 -0.15082897 0.29792074
v 0.00000000 0.12847506 0.31536747
v 0.17430962 -0.37535275 0.23569003
v 0.00000000 -0.40575390 0.17517226
v 0.40370300 0.40570920 0.00000000
v 0.39836950 -0.40198980 0.00000000
v 0.14563750 -0.54549380 0.00000000
v 0.41054176 0.35712161 0.05872900
f 1 2 123
f 79 53 8
f 102 22 117
f 46 24 23
f 153 59 28
f 137 125 124
f 61 119 36
f 54 64 103
f 29 30 119
f 67 65 75
f 103 86 87
f 27 161 25
f 98 100 99
f 42 137 41
f 126 19 55
f 10 11 87
f 23 105 47
f 47 103 46
f 112 78 111
f 55 58 126
f 81 48 111
f 117 130 1
f 10 68 69
f 107 123 2
f 60 127 97
f 73 43 148
f 72 54 50
f 52 23 129
f 130 32 31
f 69 11 10
f 54 103 87
f 36 35 61
f 45 124 51
f 41 57 42
f 31 39 97
f 112 9 133
f 26 115 86
f 50 114 72
f 34 116 161
f 139 55 102
f 47 86 103
f 69 68 13
f 146 96 15
f 82 83 108
f 3 17 142
f 148 72 114
f 96 95 151
f 90 118 152
f 13 12 14
f 33 60 120
f 140 17 122
f 129 56 52
f 25 24 77
f 37 115 173
f 118 90 156
f 144 6 147
f 46 85 76
f 29 119 61
f 46 76 24
f 23 52 105
f 61 35 38
f 89 29 31
f 146 170 159
f 123 107 91
f 95 152 151
f 163 18 44
f 72 148 43
f 141 108 63
f 113 40 94
f 104 13 79
f 65 49 160
f 5 73 136
f 152 95 71
f 69 13 104
f 87 86 37
f 155 63 77
f 32 130 117
f 38 35 116
f 162 98 157
f 150 149 48
f 84 51 94
f 122 3 163
f 82 108 141
f 2 127 60
f 21 123 88
f 164 95 159
f 116 34 38
f 33 121 60
f 90 132 154
f 90 154 156
f 30 89 106
f 24 25 129
f 155 62 63
f 129 25 70
f 126 58 118
f 35 36 158
f 328 8 165
f 64 43 85
f 71 101 132
f 107 140 122
f 44 20 88
f 15 96 20
f 94 4 113
f 109 108 83
f 142 75 335
f 65 66 75
f 7 80 81
f 157 144 147
f 139 21 88
f 27 108 109
f 1 21 117
f 9 112 169
f 120 39 38
f 130 97 127
f 109 161 27
f 11 54 87
f 133 104 112
f 63 27 77
f 118 156 143
f 120 34 33
f 145 10 37
f 87 37 10
f 77 76 155
f 56 129 70
f 30 29 89
f 131 7 8
f 24 76 77
f 54 11 50
f 165 8 53
f 115 37 86
f 46 23 47
f 26 86 47
f 5 45 51
f 153 40 16
f 122 163 91
f 138 98 162
f 140 16 17
f 20 139 88
f 151 55 139
f 334 144 157
f 142 335 167
f 108 27 63
f 116 25 161
f 137 42 125
f 2 60 59
f 43 73 62
f 139 20 96
f 78 7 81
f 114 50 9
f 79 7 78
f 8 7 79
f 121 109 83
f 71 164 101
f 128 67 75
f 152 71 90
f 85 155 76
f 116 70 25
f 43 62 155
f 68 12 13
f 11 69 133
f 124 125 4
f 162 147 42
f 98 149 100
f 144 166 160
f 140 59 153
f 157 99 334
f 114 9 92
f 121 59 60
f 54 72 64
f 93 92 169
f 5 141 62
f 63 62 141
f 28 83 82
f 58 151 152
f 120 97 39
f 109 33 161
f 25 77 27
f 104 78 112
f 155 85 43
f 328 131 8
f 50 133 9
f 70 35 158
f 31 29 39
f 126 74 19
f 10 145 68
f 104 133 69
f 142 17 128
f 35 70 116
f 46 103 85
f 129 23 24
f 84 153 28
f 4 94 124
f 110 167 171
f 44 91 163
f 45 41 137
f 149 98 138
f 93 48 149
f 149 138 93
f 21 139 102
f 9 169 92
f 33 109 121
f 164 71 95
f 102 117 21
f 17 3 122
f 49 65 67
f 53 79 13
f 53 13 14
f 81 111 78
f 81 80 337
f 50 11 133
f 104 79 78
f 118 58 152
f 64 72 43
f 61 39 29
f 161 33 34
f 31 97 130
f 4 49 113
f 84 94 40
f 57 41 135
f 147 125 42
f 93 111 48
f 139 96 151
f 82 51 84
f 97 120 60
f 168 160 166
f 95 96 146
f 45 136 41
f 113 67 128
f 1 130 127
f 135 148 114
f 28 121 83
f 142 167 110
f 74 134 19
f 73 5 62
f 98 99 157
f 143 74 126
f 126 118 143
f 89 175 106
f 38 34 120
f 68 145 12
f 85 103 64
f 55 151 58
f 334 166 144
f 88 91 44
f 124 45 137
f 114 92 135
f 135 41 136
f 138 92 93
f 128 17 16
f 6 160 49
f 3 110 163
f 160 6 144
f 162 42 57
f 91 88 123
f 40 113 16
f 5 136 45
f 121 28 59
f 169 111 93
f 146 159 95
f 169 112 111
f 113 49 67
f 163 110 18
f 92 138 57
f 51 141 5
f 147 6 125
f 28 82 84
f 57 138 162
f 51 82 141
f 15 20 44
f 128 16 113
f 59 107 2
f 168 65 160
f 92 57 135
f 148 135 136
f 18 15 44
f 140 107 59
f 3 142 110
f 84 40 153
f 4 6 49
f 16 140 153
f 162 157 147
f 107 122 91
f 71 132 90
f 51 124 94
f 154 132 314
f 136 73 148
f 128 75 142
f 123 21 1
f 18 171 170
f 4 125 6
f 22 172 175
f 146 15 18
f 314 132 101
f 75 66 335
f 2 1 127
f 89 31 32
f 48 337 150
f 48 81 337
f 18 170 146
f 80 7 131
f 149 150 100
f 61 38 39
f 66 65 168
f 70 158 56
f 171 18 110
f 26 47 105
f 102 55 19
f 173 145 37
f 53 14 174
f 22 102 19
f 22 19 134
f 175 32 117
f 174 165 53
f 89 32 175
f 22 134 172
f 175 117 22
f 175 172 106
f 176 293 177
f 253 183 228
f 272 287 197
f 221 198 199
f 322 203 234
f 306 294 295
f 236 211 289
f 229 273 239
f 204 289 205
f 241 249 240
f 273 260 259
f 202 200 330
f 271 99 100
f 217 216 306
f 296 230 194
f 185 260 186
f 198 222 275
f 222 221 273
f 282 281 252
f 230 296 233
f 254 281 223
f 287 176 300
f 185 243 242
f 277 177 293
f 235 270 297
f 247 318 218
f 246 225 229
f 227 299 198
f 300 206 207
f 243 185 186
f 229 260 273
f 211 236 210
f 220 226 294
f 216 217 232
f 206 270 214
f 282 302 184
f 201 259 285
f 225 246 284
f 209 330 286
f 308 272 230
f 222 273 259
f 243 188 242
f 316 190 269
f 255 278 256
f 178 311 192
f 318 284 246
f 269 320 268
f 263 321 288
f 188 189 187
f 208 290 235
f 309 292 192
f 299 227 231
f 200 251 199
f 212 339 285
f 288 325 263
f 313 317 181
f 221 250 258
f 204 236 289
f 221 199 250
f 198 275 227
f 236 213 210
f 262 206 204
f 316 159 170
f 293 264 277
f 268 320 321
f 332 219 193
f 246 218 318
f 310 238 278
f 283 267 215
f 274 253 188
f 240 329 224
f 180 305 247
f 321 245 268
f 243 274 188
f 260 212 259
f 324 251 238
f 207 287 300
f 213 286 210
f 331 326 271
f 150 223 319
f 257 267 226
f 292 332 178
f 255 310 278
f 177 235 297
f 196 261 293
f 164 159 268
f 286 213 209
f 208 235 291
f 263 323 301
f 263 325 323
f 205 276 262
f 199 299 200
f 324 238 237
f 299 244 200
f 296 288 233
f 210 327 211
f 328 333 183
f 239 258 218
f 245 301 101
f 277 292 309
f 219 261 195
f 190 195 269
f 267 283 179
f 279 256 278
f 311 335 249
f 240 249 66
f 182 254 80
f 326 317 313
f 308 261 196
f 202 279 278
f 176 287 196
f 184 336 282
f 290 213 214
f 300 297 270
f 279 202 330
f 186 260 229
f 302 282 274
f 238 251 202
f 288 312 325
f 290 208 209
f 315 212 185
f 260 185 212
f 251 324 250
f 231 244 299
f 205 262 204
f 131 183 182
f 199 251 250
f 229 225 186
f 333 228 183
f 285 259 212
f 221 222 198
f 201 222 259
f 180 226 220
f 322 191 215
f 292 264 332
f 307 331 271
f 309 192 191
f 195 261 308
f 320 308 230
f 334 326 313
f 311 167 335
f 278 238 202
f 286 330 200
f 306 295 217
f 177 234 235
f 218 237 247
f 308 269 195
f 252 254 182
f 284 184 225
f 253 252 182
f 183 253 182
f 291 256 279
f 245 101 164
f 298 249 241
f 321 263 245
f 258 250 324
f 286 200 244
f 218 324 237
f 242 188 187
f 186 302 243
f 294 179 295
f 331 217 317
f 271 100 319
f 313 329 166
f 309 322 234
f 326 334 99
f 284 265 184
f 291 235 234
f 229 239 246
f 266 336 265
f 180 237 310
f 238 310 237
f 203 255 256
f 233 321 320
f 290 214 270
f 279 330 208
f 200 202 251
f 274 282 252
f 324 218 258
f 328 183 131
f 225 184 302
f 244 327 210
f 206 214 204
f 296 194 248
f 185 242 315
f 274 243 302
f 311 298 192
f 210 286 244
f 221 258 273
f 299 199 198
f 257 203 322
f 179 294 267
f 280 171 167
f 219 332 264
f 220 306 216
f 319 307 271
f 266 319 223
f 319 266 307
f 196 272 308
f 184 265 336
f 208 291 279
f 164 268 245
f 272 196 287
f 192 292 178
f 224 241 240
f 228 188 253
f 228 189 188
f 254 252 281
f 254 337 80
f 225 302 186
f 274 252 253
f 288 321 233
f 239 218 246
f 236 204 214
f 330 209 208
f 206 300 270
f 179 283 224
f 257 215 267
f 232 304 216
f 317 217 295
f 266 223 281
f 308 320 269
f 255 257 226
f 270 235 290
f 168 166 329
f 268 316 269
f 220 216 305
f 283 298 241
f 176 297 300
f 304 284 318
f 203 256 291
f 311 280 167
f 248 194 303
f 247 237 180
f 271 326 99
f 312 296 248
f 296 312 288
f 262 276 341
f 213 290 209
f 242 187 315
f 258 239 273
f 230 233 320
f 334 313 166
f 261 219 264
f 294 306 220
f 284 304 265
f 304 305 216
f 307 266 265
f 298 191 192
f 181 224 329
f 178 332 280
f 329 313 181
f 331 232 217
f 264 293 261
f 215 191 283
f 180 220 305
f 291 234 203
f 336 266 281
f 316 268 159
f 336 281 282
f 283 241 224
f 332 193 280
f 265 232 307
f 226 180 310
f 317 295 181
f 203 257 255
f 232 331 307
f 226 310 255
f 190 219 195
f 298 283 191
f 234 177 277
f 168 329 240
f 265 304 232
f 318 305 304
f 193 219 190
f 309 234 277
f 178 280 311
f 257 322 215
f 179 224 181
f 191 322 309
f 331 317 326
f 277 264 292
f 245 263 301
f 226 267 294
f 323 314 301
f 305 318 247
f 298 311 249
f 293 176 196
f 193 170 171
f 179 181 295
f 197 341 338
f 316 193 190
f 314 101 301
f 249 335 66
f 177 297 176
f 262 207 206
f 223 150 337
f 223 337 254
f 193 316 170
f 80 131 182
f 319 100 150
f 236 214 213
f 66 168 240
f 244 231 327
f 171 280 193
f 201 275 222
f 272 194 230
f 339 212 315
f 228 340 189
f 197 194 272
f 197 303 194
f 341 287 207
f 340 228 333
f 262 341 207
f 197 338 303
f 341 197 287
f 341 276 338
