# 2-part isotropic, crease cable best fit, sf 1.0266
# E_wale 12500 E_course 5000 N/m nu 0.198, 1000 Pa, fixed solver
# mean vertex distance 3.911 mm, max 11.699 mm
v -0.35121083 0.29448566 0.19728933
v -0.34748169 0.22287982 0.25238705
v -0.12804412 0.20675629 0.31045584
v -0.16651195 -0.04823311 0.38938518
v -0.33278494 -0.13914685 0.33115785
v -0.09885559 -0.08707021 0.36778137
v -0.06613317 -0.48566301 0.10786479
v -0.06519469 -0.52983198 0.04994658
v -0.23285917 -0.36986866 0.22999815
v -0.34143236 -0.41450195 0.07872779
v -0.32572695 -0.38628240 0.14304030
v -0.27565340 -0.49448310 0.00000000
v -0.22197805 -0.49022830 0.06663193
v -0.20879980 -0.52514210 0.00000000
v -0.11820772 0.35588696 0.22867594
v -0.20883930 0.10386117 0.36076017
v -0.16608867 0.16010279 0.33766820
v -0.07347508 0.30750244 0.25120182
v -0.29901911 0.45091180 0.06697500
v -0.17930403 0.36581221 0.21823261
v -0.29555512 0.35012042 0.18846739
v -0.35445668 0.40775664 0.07156119
v -0.51787214 -0.17221258 0.06627667
v -0.50265115 -0.12803220 0.12677656
v -0.50906959 -0.04552788 0.14163025
v -0.48843440 -0.28809390 0.00000000
v -0.46335249 -0.03706466 0.21641825
v -0.34883619 0.06978770 0.32050515
v -0.49968711 0.22589420 0.05933931
v -0.50428450 0.26743460 0.00000000
v -0.45581958 0.25844661 0.10755908
v -0.41986861 0.31969383 0.09741756
v -0.44848335 0.09443157 0.21782887
v -0.48734985 0.08215853 0.16559760
v -0.54251901 0.06991878 0.06372072
v -0.55876270 0.11120940 0.00000000
v -0.39586062 -0.38316454 0.04688994
v -0.50908335 0.11289886 0.11743151
v -0.48611666 0.18669893 0.11650356
v -0.24274697 0.04823467 0.37238391
v -0.22525956 -0.21155899 0.35016716
v -0.15689562 -0.19544556 0.35819998
v -0.38346052 -0.22492268 0.24636943
v -0.16007242 0.31669126 0.25513378
v -0.27130164 -0.14402716 0.36250389
v -0.47725250 -0.20691333 0.12349579
v -0.48454127 -0.24914681 0.06716478
v -0.05481286 -0.37975176 0.20664442
v -0.10339731 -0.01505571 0.37261159
v -0.30278426 -0.35441513 0.20511618
v -0.30628623 -0.06655013 0.36112541
v -0.55190260 -0.13759440 0.00000000
v -0.14573747 -0.52563846 0.04260359
v -0.36866450 -0.32718984 0.16983293
v -0.24063159 0.44519947 0.11904472
v -0.56651810 -0.05534892 0.00000000
v -0.17074151 -0.26246270 0.32677310
v -0.18904890 0.47880702 0.10067916
v -0.33768364 0.15168800 0.29834698
v -0.40795591 0.16666968 0.23362204
v -0.52670353 0.15032878 0.06154875
v -0.38763693 -0.15078321 0.28101005
v -0.42812646 -0.09418886 0.25388421
v -0.39533661 -0.27172259 0.19370121
v -0.04638747 0.01843557 0.33554463
v 0.00000000 0.05460763 0.28806137
v -0.10112520 0.04727633 0.36197375
v -0.29388978 -0.46047937 0.05277277
v -0.27534974 -0.44049270 0.11015523
v -0.54449946 -0.01186347 0.06987821
v -0.05838507 0.49727229 0.09699801
v -0.34195328 -0.29516354 0.23165596
v -0.34562778 -0.19794723 0.29695004
v -0.28735300 0.49593610 0.00000000
v -0.05578868 0.08915229 0.32848759
v -0.46653057 -0.16450312 0.17095352
v -0.47214568 -0.10225663 0.19051371
v -0.12969722 -0.45622120 0.15080037
v -0.14131264 -0.49553504 0.09542385
v 0.00000000 -0.45235527 0.11055494
v -0.05987317 -0.43576724 0.15982629
v -0.35841711 -0.01152656 0.32754814
v -0.39431480 0.03283459 0.29171203
v -0.30211918 0.01860439 0.35849899
v -0.43391915 -0.22198150 0.18358938
v -0.44339036 -0.31771504 0.06353123
v -0.38915495 -0.35299431 0.10827133
v -0.23274482 0.33541712 0.22988004
v -0.46306884 0.29925682 0.05137332
v -0.10405784 0.53037256 0.05474818
v -0.21995237 0.27436628 0.27488529
v -0.18899474 -0.32591932 0.28235540
v -0.11409396 -0.35463435 0.25141302
v -0.23922440 -0.01831992 0.38451873
v -0.07570982 0.44461206 0.15504774
v -0.13710452 0.40606000 0.19156797
v -0.43913838 0.21439550 0.16738305
v -0.04873684 -0.25773169 0.28076736
v 0.00000000 -0.21087164 0.25060499
v 0.00000000 -0.27366610 0.22472594
v 0.00000000 0.51919434 0.05733580
v -0.29982513 0.40208715 0.13153336
v -0.43309075 -0.28149760 0.13023763
v -0.20440956 -0.45708423 0.13218068
v -0.52568750 -0.21598770 0.00000000
v -0.46147370 0.33737290 0.00000000
v -0.27957040 0.21883462 0.29155528
v -0.41401306 -0.02903604 0.27776664
v -0.43871086 0.03091374 0.24549904
v -0.06644422 0.23335843 0.28270551
v -0.11705950 -0.40931417 0.20224363
v -0.18743945 -0.41873182 0.18923213
v -0.17075032 0.03299148 0.38200238
v -0.27213910 -0.31709203 0.26352250
v -0.44503120 -0.34986910 0.00000000
v -0.51780702 0.03435385 0.12411609
v -0.36340647 0.35361051 0.12993028
v -0.17077708 0.51586608 0.05548965
v -0.53676180 0.19235820 0.00000000
v -0.46477979 0.14632084 0.17405484
v -0.39847199 0.09800157 0.27172205
v -0.20219453 0.21638148 0.31017836
v -0.28952365 0.28560166 0.24425756
v -0.22930502 -0.09009950 0.38481872
v -0.15695148 -0.12264059 0.38014712
v -0.23820006 0.48864766 0.05877160
v -0.39436676 0.23590056 0.20309540
v -0.12930028 0.10293033 0.35468741
v -0.53670757 -0.09108297 0.07057934
v -0.40534638 0.28623032 0.15083280
v 0.00000000 -0.51282034 0.05577345
v -0.04291471 0.54202899 0.04082348
v -0.25768771 -0.40850430 0.17119106
v -0.34697380 0.45676380 0.00000000
v -0.24434237 -0.27023053 0.31191127
v -0.29078545 -0.20689159 0.32921606
v -0.20885950 -0.15426411 0.37367370
v -0.11168215 -0.29734259 0.29273806
v -0.22636200 0.39789808 0.17886265
v -0.25299917 0.16136269 0.32982506
v -0.37424987 -0.08209613 0.31212047
v -0.07503719 0.15956420 0.31551705
v -0.21795090 0.52975730 0.00000000
v -0.04406556 -0.12053698 0.32536644
v -0.34810250 -0.44666150 0.00000000
v -0.06304882 0.37884598 0.20499064
v -0.09673341 -0.16023031 0.35086282
v -0.31593266 -0.25718406 0.28395770
v -0.05216793 -0.32039629 0.24759579
v 0.00000000 -0.33477272 0.19271163
v -0.16509711 0.44609272 0.14904127
v -0.12441091 0.48812872 0.10807797
v -0.28780929 0.09775417 0.34440216
v -0.06839787 0.56933240 0.00000000
v -0.43114164 -0.16149282 0.22562738
v -0.14596640 0.55403970 0.00000000
v -0.04512716 -0.19035603 0.30652394
v -0.56873630 0.02701634 0.00000000
v 0.00000000 0.39704697 0.16031052
v -0.04500793 -0.05066278 0.33589076
v -0.48245968 0.02283959 0.18670019
v -0.10173695 -0.23156632 0.32568313
v -0.14002561 0.26298819 0.28490340
v 0.00000000 0.45623404 0.11461194
v -0.07314713 -0.56030970 0.00000000
v 0.00000000 -0.07986745 0.28239936
v 0.00000000 0.19000915 0.26757658
v 0.00000000 -0.01368406 0.28801585
v -0.16912697 -0.37751746 0.23601934
v 0.00000000 0.32910184 0.20407099
v 0.00000000 0.26065748 0.23995712
v -0.40370300 0.40570920 0.00000000
v -0.39836950 -0.40198980 0.00000000
v -0.14563750 -0.54549380 0.00000000
v -0.41222539 0.35887769 0.06078210
v 0.35121083 0.29448566 0.19728933
v 0.34748169 0.22287982 0.25238705
v 0.12804412 0.20675629 0.31045584
v 0.16651195 -0.04823311 0.38938518
v 0.33278494 -0.13914685 0.33115785
v 0.09885559 -0.08707021 0.36778137
v 0.06613317 -0.48566301 0.10786479
v 0.06519469 -0.52983198 0.04994658
v 0.23285917 -0.36986866 0.22999815
v 0.34143236 -0.41450195 0.07872779
v 0.32572695 -0.38628240 0.14304030
v 0.27565340 -0.49448310 0.00000000
v 0.22197805 -0.49022830 0.06663193
v 0.20879980 -0.52514210 0.00000000
v 0.11820772 0.35588696 0.22867594
v 0.20883930 0.10386117 0.36076017
v 0.16608867 0.16010279 0.33766820
v 0.07347508 0.30750244 0.25120182
v 0.29901911 0.45091180 0.06697500
v 0.17930403 0.36581221 0.21823261
v 0.29555512 0.35012042 0.18846739
v 0.35445668 0.40775664 0.07156119
v 0.51787214 -0.17221258 0.06627667
v 0.50265115 -0.12803220 0.12677656
v 0.50906959 -0.04552788 0.14163025
v 0.48843440 -0.28809390 0.00000000
v 0.46335249 -0.03706466 0.21641825
v 0.34883619 0.06978770 0.32050515
v 0.49968711 0.22589420 0.05933931
v 0.50428450 0.26743460 0.00000000
v 0.45581958 0.25844661 0.10755908
v 0.41986861 0.31969383 0.09741756
v 0.44848335 0.09443157 0.21782887
v 0.48734985 0.08215853 0.16559760
v 0.54251901 0.06991878 0.06372072
v 0.55876270 0.11120940 0.00000000
v 0.39586062 -0.38316454 0.04688994
v 0.50908335 0.11289886 0.11743151
v 0.48611666 0.18669893 0.11650356
v 0.24274697 0.04823467 0.37238391
v 0.22525956 -0.21155899 0.35016716
v 0.15689562 -0.19544556 0.35819998
v 0.38346052 -0.22492268 0.24636943
v 0.16007242 0.31669126 0.25513378
v 0.27130164 -0.14402716 0.36250389
v 0.47725250 -0.20691333 0.12349579
v 0.48454127 -0.24914681 0.06716478
v 0.05481286 -0.37975176 0.20664442
v 0.10339731 -0.01505571 0.37261159
v 0.30278426 -0.35441513 0.20511618
v 0.30628623 -0.06655013 0.36112541
v 0.55190260 -0.13759440 0.00000000
v 0.14573747 -0.52563846 0.04260359
v 0.36866450 -0.32718984 0.16983293
v 0.24063159 0.44519947 0.11904472
v 0.56651810 -0.05534892 0.00000000
v 0.17074151 -0.26246270 0.32677310
v 0.18904890 0.47880702 0.10067916
v 0.33768364 0.15168800 0.29834698
v 0.40795591 0.16666968 0.23362204
v 0.52670353 0.15032878 0.06154875
v 0.38763693 -0.15078321 0.28101005
v 0.42812646 -0.09418886 0.25388421
v 0.39533661 -0.27172259 0.19370121
v 0.04638747 0.01843557 0.33554463
v 0.10112520 0.04727633 0.36197375
v 0.29388978 -0.46047937 0.05277277
v 0.27534974 -0.44049270 0.11015523
v 0.54449946 -0.01186347 0.06987821
v 0.05838507 0.49727229 0.09699801
v 0.34195328 -0.29516354 0.23165596
v 0.34562778 -0.19794723 0.29695004
v 0.28735300 0.49593610 0.00000000
v 0.05578868 0.08915229 0.32848759
v 0.46653057 -0.16450312 0.17095352
v 0.47214568 -0.10225663 0.19051371
v 0.12969722 -0.45622120 0.15080037
v 0.14131264 -0.49553504 0.09542385
v 0.05987317 -0.43576724 0.15982629
v 0.35841711 -0.01152656 0.32754814
v 0.39431480 0.03283459 0.29171203
v 0.30211918 0.01860439 0.35849899
v 0.43391915 -0.22198150 0.18358938
v 0.44339036 -0.31771504 0.06353123
v 0.38915495 -0.35299431 0.10827133
v 0.23274482 0.33541712 0.22988004
v 0.46306884 0.29925682 0.05137332
v 0.10405784 0.53037256 0.05474818
v 0.21995237 0.27436628 0.27488529
v 0.18899474 -0.32591932 0.28235540
v 0.11409396 -0.35463435 0.25141302
v 0.23922440 -0.01831992 0.38451873
v 0.07570982 0.44461206 0.15504774
v 0.13710452 0.40606000 0.19156797
v 0.43913838 0.21439550 0.16738305
v 0.04873684 -0.25773169 0.28076736
v 0.29982513 0.40208715 0.13153336
v 0.43309075 -0.28149760 0.13023763
v 0.20440956 -0.45708423 0.13218068
v 0.52568750 -0.21598770 0.00000000
v 0.46147370 0.33737290 0.00000000
v 0.27957040 0.21883462 0.29155528
v 0.41401306 -0.02903604 0.27776664
v 0.43871086 0.03091374 0.24549904
v 0.06644422 0.23335843 0.28270551
v 0.11705950 -0.40931417 0.20224363
v 0.18743945 -0.41873182 0.18923213
v 0.17075032 0.03299148 0.38200238
v 0.27213910 -0.31709203 0.26352250
v 0.44503120 -0.34986910 0.00000000
v 0.51780702 0.03435385 0.12411609
v 0.36340647 0.35361051 0.12993028
v 0.17077708 0.51586608 0.05548965
v 0.53676180 0.19235820 0.00000000
v 0.46477979 0.14632084 0.17405484
v 0.39847199 0.09800157 0.27172205
v 0.20219453 0.21638148 0.31017836
v 0.28952365 0.28560166 0.24425756
v 0.22930502 -0.09009950 0.38481872
v 0.15695148 -0.12264059 0.38014712
v 0.23820006 0.48864766 0.05877160
v 0.39436676 0.23590056 0.20309540
v 0.12930028 0.10293033 0.35468741
v 0.53670757 -0.09108297 0.07057934
v 0.40534638 0.28623032 0.15083280
v 0.04291471 0.54202899 0.04082348
v 0.25768771 -0.40850430 0.17119106
v 0.34697380 0.45676380 0.00000000
v 0.24434237 -0.27023053 0.31191127
v 0.29078545 -0.20689159 0.32921606
v 0.20885950 -0.15426411 0.37367370
v 0.11168215 -0.29734259 0.29273806
v 0.22636200 0.39789808 0.17886265
v 0.25299917 0.16136269 0.32982506
v 0.37424987 -0.08209613 0.31212047
v 0.07503719 0.15956420 0.31551705
v 0.21795090 0.52975730 0.00000000
v 0.04406556 -0.12053698 0.32536644
v 0.00000000 0.57500000 0.00000000
v 0.34810250 -0.44666150 0.00000000
v 0.06304882 0.37884598 0.20499064
v 0.09673341 -0.16023031 0.35086282
v 0.31593266 -0.25718406 0.28395770
v 0.05216793 -0.32039629 0.24759579
v 0.16509711 0.44609272 0.14904127
v 0.12441091 0.48812872 0.10807797
v 0.28780929 0.09775417 0.34440216
v 0.06839787 0.56933240 0.00000000
v 0.43114164 -0.16149282 0.22562738
v 0.14596640 0.55403970 0.00000000
v 0.04512716 -0.19035603 0.30652394
v 0.56873630 0.02701634 0.00000000
v 0.00000000 -0.56637090 0.00000000
v 0.04500793 -0.05066278 0.33589076
v 0.48245968 0.02283959 0.18670019
v 0.10173695 -0.23156632 0.32568313
v 0.14002561 0.26298819 0.28490340
v 0.07314713 -0.56030970 0.00000000
v 0.00000000 -0.14622380 0.26996868
v 0.00000000 0.12332964 0.28222768
v 0.16912697 -0.37751746 0.23601934
v 0.00000000 -0.39443710 0.15460379
v 0.40370300 0.40570920 0.00000000
v 0.39836950 -0.40198980 0.00000000
v 0.14563750 -0.54549380 0.00000000
v 0.41222539 0.35887769 0.06078210
f 1 2 123
f 79 53 8
f 102 22 117
f 46 24 23
f 153 59 28
f 137 125 124
f 61 119 36
f 54 64 103
f 29 30 119
f 67 65 75
f 103 86 87
f 27 161 25
f 98 100 99
f 42 137 41
f 126 19 55
f 10 11 87
f 23 105 47
f 47 103 46
f 112 78 111
f 55 58 126
f 81 48 111
f 117 130 1
f 10 68 69
f 107 123 2
f 60 127 97
f 73 43 148
f 72 54 50
f 52 23 129
f 130 32 31
f 69 11 10
f 54 103 87
f 36 35 61
f 45 124 51
f 41 57 42
f 31 39 97
f 112 9 133
f 26 115 86
f 50 114 72
f 34 116 161
f 139 55 102
f 47 86 103
f 69 68 13
f 146 96 15
f 82 83 108
f 3 17 142
f 148 72 114
f 96 95 151
f 90 118 152
f 13 12 14
f 33 60 120
f 140 17 122
f 129 56 52
f 25 24 77
f 37 115 173
f 118 90 156
f 144 6 147
f 46 85 76
f 29 119 61
f 46 76 24
f 23 52 105
f 61 35 38
f 89 29 31
f 146 170 159
f 123 107 91
f 95 152 151
f 163 18 44
f 72 148 43
f 141 108 63
f 113 40 94
f 104 13 79
f 65 49 160
f 5 73 136
f 152 95 71
f 69 13 104
f 87 86 37
f 155 63 77
f 32 130 117
f 38 35 116
f 162 98 157
f 150 149 48
f 84 51 94
f 122 3 163
f 82 108 141
f 2 127 60
f 21 123 88
f 164 95 159
f 116 34 38
f 33 121 60
f 90 132 154
f 90 154 156
f 30 89 106
f 24 25 129
f 155 62 63
f 129 25 70
f 126 58 118
f 35 36 158
f 328 8 165
f 64 43 85
f 71 101 132
f 107 140 122
f 44 20 88
f 15 96 20
f 94 4 113
f 109 108 83
f 142 75 335
f 65 66 75
f 7 80 81
f 157 144 147
f 139 21 88
f 27 108 109
f 1 21 117
f 9 112 169
f 120 39 38
f 130 97 127
f 109 161 27
f 11 54 87
f 133 104 112
f 63 27 77
f 118 156 143
f 120 34 33
f 145 10 37
f 87 37 10
f 77 76 155
f 56 129 70
f 30 29 89
f 131 7 8
f 24 76 77
f 54 11 50
f 165 8 53
f 115 37 86
f 46 23 47
f 26 86 47
f 5 45 51
f 153 40 16
f 122 163 91
f 138 98 162
f 140 16 17
f 20 139 88
f 151 55 139
f 334 144 157
f 142 335 167
f 108 27 63
f 116 25 161
f 137 42 125
f 2 60 59
f 43 73 62
f 139 20 96
f 78 7 81
f 114 50 9
f 79 7 78
f 8 7 79
f 121 109 83
f 71 164 101
f 128 67 75
f 152 71 90
f 85 155 76
f 116 70 25
f 43 62 155
f 68 12 13
f 11 69 133
f 124 125 4
f 162 147 42
f 98 149 100
f 144 166 160
f 140 59 153
f 157 99 334
f 114 9 92
f 121 59 60
f 54 72 64
f 93 92 169
f 5 141 62
f 63 62 141
f 28 83 82
f 58 151 152
f 120 97 39
f 109 33 161
f 25 77 27
f 104 78 112
f 155 85 43
f 328 131 8
f 50 133 9
f 70 35 158
f 31 29 39
f 126 74 19
f 10 145 68
f 104 133 69
f 142 17 128
f 35 70 116
f 46 103 85
f 129 23 24
f 84 153 28
f 4 94 124
f 110 167 171
f 44 91 163
f 45 41 137
f 149 98 138
f 93 48 149
f 149 138 93
f 21 139 102
f 9 169 92
f 33 109 121
f 164 71 95
f 102 117 21
f 17 3 122
f 49 65 67
f 53 79 13
f 53 13 14
f 81 111 78
f 81 80 337
f 50 11 133
f 104 79 78
f 118 58 152
f 64 72 43
f 61 39 29
f 161 33 34
f 31 97 130
f 4 49 113
f 84 94 40
f 57 41 135
f 147 125 42
f 93 111 48
f 139 96 151
f 82 51 84
f 97 120 60
f 168 160 166
f 95 96 146
f 45 136 41
f 113 67 128
f 1 130 127
f 135 148 114
f 28 121 83
f 142 167 110
f 74 134 19
f 73 5 62
f 98 99 157
f 143 74 126
f 126 118 143
f 89 175 106
f 38 34 120
f 68 145 12
f 85 103 64
f 55 151 58
f 334 166 144
f 88 91 44
f 124 45 137
f 114 92 135
f 135 41 136
f 138 92 93
f 128 17 16
f 6 160 49
f 3 110 163
f 160 6 144
f 162 42 57
f 91 88 123
f 40 113 16
f 5 136 45
f 121 28 59
f 169 111 93
f 146 159 95
f 169 112 111
f 113 49 67
f 163 110 18
f 92 138 57
f 51 141 5
f 147 6 125
f 28 82 84
f 57 138 162
f 51 82 141
f 15 20 44
f 128 16 113
f 59 107 2
f 168 65 160
f 92 57 135
f 148 135 136
f 18 15 44
f 140 107 59
f 3 142 110
f 84 40 153
f 4 6 49
f 16 140 153
f 162 157 147
f 107 122 91
f 71 132 90
f 51 124 94
f 154 132 314
f 136 73 148
f 128 75 142
f 123 21 1
f 18 171 170
f 4 125 6
f 22 172 175
f 146 15 18
f 314 132 101
f 75 66 335
f 2 1 127
f 89 31 32
f 48 337 150
f 48 81 337
f 18 170 146
f 80 7 131
f 149 150 100
f 61 38 39
f 66 65 168
f 70 158 56
f 171 18 110
f 26 47 105
f 102 55 19
f 173 145 37
f 53 14 174
f 22 102 19
f 22 19 134
f 175 32 117
f 174 165 53
f 89 32 175
f 22 134 172
f 175 117 22
f 175 172 106
f 176 293 177
f 253 183 228
f 272 287 197
f 221 198 199
f 322 203 234
f 306 294 295
f 236 211 289
f 229 273 239
f 204 289 205
f 241 249 240
f 273 260 259
f 202 200 330
f 271 99 100
f 217 216 306
f 296 230 194
f 185 260 186
f 198 222 275
f 222 221 273
f 282 281 252
f 230 296 233
f 254 281 223
f 287 176 300
f 185 243 242
f 277 177 293
f 235 270 297
f 247 318 218
f 246 225 229
f 227 299 198
f 300 206 207
f 243 185 186
f 229 260 273
f 211 236 210
f 220 226 294
f 216 217 232
f 206 270 214
f 282 302 184
f 201 259 285
f 225 246 284
f 209 330 286
f 308 272 230
f 222 273 259
f 243 188 242
f 316 190 269
f 255 278 256
f 178 311 192
f 318 284 246
f 269 320 268
f 263 321 288
f 188 189 187
f 208 290 235
f 309 292 192
f 299 227 231
f 200 251 199
f 212 339 285
f 288 325 263
f 313 317 181
f 221 250 258
f 204 236 289
f 221 199 250
f 198 275 227
f 236 213 210
f 262 206 204
f 316 159 170
f 293 264 277
f 268 320 321
f 332 219 193
f 246 218 318
f 310 238 278
f 283 267 215
f 274 253 188
f 240 329 224
f 180 305 247
f 321 245 268
f 243 274 188
f 260 212 259
f 324 251 238
f 207 287 300
f 213 286 210
f 331 326 271
f 150 223 319
f 257 267 226
f 292 332 178
f 255 310 278
f 177 235 297
f 196 261 293
f 164 159 268
f 286 213 209
f 208 235 291
f 263 323 301
f 263 325 323
f 205 276 262
f 199 299 200
f 324 238 237
f 299 244 200
f 296 288 233
f 210 327 211
f 328 333 183
f 239 258 218
f 245 301 101
f 277 292 309
f 219 261 195
f 190 195 269
f 267 283 179
f 279 256 278
f 311 335 249
f 240 249 66
f 182 254 80
f 326 317 313
f 308 261 196
f 202 279 278
f 176 287 196
f 184 336 282
f 290 213 214
f 300 297 270
f 279 202 330
f 186 260 229
f 302 282 274
f 238 251 202
f 288 312 325
f 290 208 209
f 315 212 185
f 260 185 212
f 251 324 250
f 231 244 299
f 205 262 204
f 131 183 182
f 199 251 250
f 229 225 186
f 333 228 183
f 285 259 212
f 221 222 198
f 201 222 259
f 180 226 220
f 322 191 215
f 292 264 332
f 307 331 271
f 309 192 191
f 195 261 308
f 320 308 230
f 334 326 313
f 311 167 335
f 278 238 202
f 286 330 200
f 306 295 217
f 177 234 235
f 218 237 247
f 308 269 195
f 252 254 182
f 284 184 225
f 253 252 182
f 183 253 182
f 291 256 279
f 245 101 164
f 298 249 241
f 321 263 245
f 258 250 324
f 286 200 244
f 218 324 237
f 242 188 187
f 186 302 243
f 294 179 295
f 331 217 317
f 271 100 319
f 313 329 166
f 309 322 234
f 326 334 99
f 284 265 184
f 291 235 234
f 229 239 246
f 266 336 265
f 180 237 310
f 238 310 237
f 203 255 256
f 233 321 320
f 290 214 270
f 279 330 208
f 200 202 251
f 274 282 252
f 324 218 258
f 328 183 131
f 225 184 302
f 244 327 210
f 206 214 204
f 296 194 248
f 185 242 315
f 274 243 302
f 311 298 192
f 210 286 244
f 221 258 273
f 299 199 198
f 257 203 322
f 179 294 267
f 280 171 167
f 219 332 264
f 220 306 216
f 319 307 271
f 266 319 223
f 319 266 307
f 196 272 308
f 184 265 336
f 208 291 279
f 164 268 245
f 272 196 287
f 192 292 178
f 224 241 240
f 228 188 253
f 228 189 188
f 254 252 281
f 254 337 80
f 225 302 186
f 274 252 253
f 288 321 233
f 239 218 246
f 236 204 214
f 330 209 208
f 206 300 270
f 179 283 224
f 257 215 267
f 232 304 216
f 317 217 295
f 266 223 281
f 308 320 269
f 255 257 226
f 270 235 290
f 168 166 329
f 268 316 269
f 220 216 305
f 283 298 241
f 176 297 300
f 304 284 318
f 203 256 291
f 311 280 167
f 248 194 303
f 247 237 180
f 271 326 99
f 312 296 248
f 296 312 288
f 262 276 341
f 213 290 209
f 242 187 315
f 258 239 273
f 230 233 320
f 334 313 166
f 261 219 264
f 294 306 220
f 284 304 265
f 304 305 216
f 307 266 265
f 298 191 192
f 181 224 329
f 178 332 280
f 329 313 181
f 331 232 217
f 264 293 261
f 215 191 283
f 180 220 305
f 291 234 203
f 336 266 281
f 316 268 159
f 336 281 282
f 283 241 224
f 332 193 280
f 265 232 307
f 226 180 310
f 317 295 181
f 203 257 255
f 232 331 307
f 226 310 255
f 190 219 195
f 298 283 191
f 234 177 277
f 168 329 240
f 265 304 232
f 318 305 304
f 193 219 190
f 309 234 277
f 178 280 311
f 257 322 215
f 179 224 181
f 191 322 309
f 331 317 326
f 277 264 292
f 245 263 301
f 226 267 294
f 323 314 301
f 305 318 247
f 298 311 249
f 293 176 196
f 193 170 171
f 179 181 295
f 197 341 338
f 316 193 190
f 314 101 301
f 249 335 66
f 177 297 176
f 262 207 206
f 223 150 337
f 223 337 254
f 193 316 170
f 80 131 182
f 319 100 150
f 236 214 213
f 66 168 240
f 244 231 327
f 171 280 193
f 201 275 222
f 272 194 230
f 339 212 315
f 228 340 189
f 197 194 272
f 197 303 194
f 341 287 207
f 340 228 333
f 262 341 207
f 197 338 303
f 341 197 287
f 341 276 338
