# 2-part anisotropic, no cable best fit, sf_wale 1.0716, sf_course 0.9890
# E_wale 12500 E_course 5000 N/m nu 0.198, 1000 Pa, fixed solver
# mean vertex distance 4.717 mm, max 27.516 mm
v -0.35021761 0.29255149 0.19831534
v -0.34673145 0.22187781 0.25396752
v -0.12980139 0.20948576 0.31930234
v -0.16717238 -0.04588841 0.39252156
v -0.33040742 -0.13607206 0.33158737
v -0.09938270 -0.08370975 0.37103366
v -0.06399579 -0.48557394 0.11082245
v -0.06380651 -0.53048349 0.05206167
v -0.23053484 -0.36482758 0.23244243
v -0.33900945 -0.41095717 0.07830178
v -0.32282879 -0.38159639 0.14311746
v -0.27565340 -0.49448310 0.00000000
v -0.22062894 -0.48760752 0.06744210
v -0.20879980 -0.52514210 0.00000000
v -0.11928404 0.35778856 0.23509479
v -0.21030283 0.10482994 0.36596744
v -0.16789332 0.16191967 0.34512640
v -0.07495042 0.31201968 0.26155636
v -0.29808516 0.44915556 0.06672287
v -0.17991573 0.36588009 0.22263112
v -0.29516136 0.34842853 0.19030107
v -0.35307043 0.40576297 0.07099899
v -0.51530283 -0.17099023 0.06572068
v -0.49893448 -0.12647706 0.12583761
v -0.50525700 -0.04458695 0.14063829
v -0.48843440 -0.28809390 0.00000000
v -0.45960609 -0.03589765 0.21554430
v -0.34778277 0.06989296 0.32178055
v -0.49736910 0.22466406 0.05862723
v -0.50428450 0.26743460 0.00000000
v -0.45320497 0.25628893 0.10675393
v -0.41795756 0.31707730 0.09686406
v -0.44530552 0.09392064 0.21738365
v -0.48377288 0.08181049 0.16473126
v -0.53998563 0.06977599 0.06302206
v -0.55876270 0.11120940 0.00000000
v -0.39386457 -0.38109534 0.04632311
v -0.50570931 0.11220487 0.11645549
v -0.48294010 0.18524973 0.11559624
v -0.24347529 0.04917646 0.37574017
v -0.22375425 -0.20699747 0.35231892
v -0.15576993 -0.19096541 0.36085145
v -0.37988666 -0.22088885 0.24610918
v -0.16123498 0.31804907 0.26132319
v -0.26997023 -0.14065392 0.36378407
v -0.47360537 -0.20435634 0.12265971
v -0.48189969 -0.24735219 0.06665878
v -0.05237214 -0.37684039 0.20896010
v -0.10478333 -0.01250167 0.37681433
v -0.30002492 -0.34931043 0.20603195
v -0.30504800 -0.06445773 0.36216956
v -0.55190260 -0.13759440 0.00000000
v -0.14479117 -0.52462439 0.04410639
v -0.36522759 -0.32255378 0.16953642
v -0.24003373 0.44362772 0.11994784
v -0.56651810 -0.05534892 0.00000000
v -0.16890088 -0.25737708 0.32964572
v -0.18852383 0.47756638 0.10167947
v -0.33731704 0.15118069 0.30031694
v -0.40575098 0.16561046 0.23382424
v -0.52424560 0.14961950 0.06084083
v -0.38430840 -0.14771599 0.28073643
v -0.42451529 -0.09211663 0.25329425
v -0.39159785 -0.26749147 0.19324020
v -0.04816694 0.02182978 0.34113481
v 0.00000000 0.06016704 0.29793551
v -0.10297139 0.04951929 0.36782229
v -0.29244161 -0.45784291 0.05273766
v -0.27321509 -0.43639518 0.11075474
v -0.54179124 -0.01148014 0.06922794
v -0.05807908 0.50024169 0.10065914
v -0.33874023 -0.29032417 0.23200328
v -0.34275515 -0.19399798 0.29725357
v -0.28735300 0.49593610 0.00000000
v -0.05764779 0.09246796 0.33674043
v -0.46255611 -0.16202705 0.17009428
v -0.46816437 -0.10050292 0.18959947
v -0.12735274 -0.45348567 0.15444806
v -0.13961874 -0.49363254 0.09837671
v 0.00000000 -0.45163143 0.10962325
v -0.05732593 -0.43418880 0.16254871
v -0.35649455 -0.01030285 0.32808469
v -0.39201912 0.03325995 0.29191543
v -0.30168533 0.01960043 0.36021369
v -0.42996713 -0.21852141 0.18287405
v -0.44074706 -0.31558485 0.06299375
v -0.38587653 -0.34924031 0.10760537
v -0.23331265 0.33505610 0.23382657
v -0.46131159 0.29744170 0.05072799
v -0.10349125 0.53030057 0.05578683
v -0.22108347 0.27490631 0.28026845
v -0.18674808 -0.32085861 0.28549234
v -0.11162438 -0.35009144 0.25446131
v -0.23948039 -0.01667030 0.38702743
v -0.07595980 0.44774824 0.16053642
v -0.13753631 0.40655041 0.19597580
v -0.43636066 0.21263993 0.16684791
v -0.04733576 -0.25346202 0.28286551
v 0.00000000 -0.20711513 0.25219826
v 0.00000000 -0.27032462 0.22520803
v 0.00000000 0.52287781 0.06014731
v -0.29891417 0.40011296 0.13209957
v -0.42940940 -0.27799980 0.12946193
v -0.20261669 -0.45338133 0.13461186
v -0.52568750 -0.21598770 0.00000000
v -0.46147370 0.33737290 0.00000000
v -0.28028386 0.21868450 0.29533545
v -0.41099224 -0.02774137 0.27744794
v -0.43556043 0.03124458 0.24500357
v -0.06787360 0.23836907 0.29498305
v -0.11435726 -0.40566826 0.20574913
v -0.18527395 -0.41443995 0.19251369
v -0.17212640 0.03451520 0.38633353
v -0.26972393 -0.31194671 0.26536639
v -0.44503120 -0.34986910 0.00000000
v -0.51425444 0.03458413 0.12311988
v -0.36198419 0.35110028 0.12995323
v -0.17025274 0.51486878 0.05595631
v -0.53676180 0.19235820 0.00000000
v -0.46148923 0.14519829 0.17338488
v -0.39640261 0.09750446 0.27208668
v -0.20380358 0.21748944 0.31659987
v -0.28969985 0.28477014 0.24727950
v -0.22904253 -0.08747770 0.38694925
v -0.15676905 -0.11919913 0.38284676
v -0.23760645 0.48723571 0.05894224
v -0.39255573 0.23424715 0.20336279
v -0.13111791 0.10495090 0.36187983
v -0.53399183 -0.09035353 0.06997379
v -0.40335852 0.28380187 0.15060150
v 0.00000000 -0.51347925 0.05542530
v -0.04226539 0.54377229 0.04251404
v -0.25543289 -0.40373627 0.17280925
v -0.34697380 0.45676380 0.00000000
v -0.24226915 -0.26515591 0.31412288
v -0.28862692 -0.20260776 0.33039195
v -0.20804176 -0.15050711 0.37579685
v -0.10953534 -0.29245142 0.29555454
v -0.22634533 0.39684075 0.18145283
v -0.25427274 0.16171471 0.33447393
v -0.37152530 -0.07995632 0.31215004
v -0.07672319 0.16338682 0.32593237
v -0.21795090 0.52975730 0.00000000
v -0.04432399 -0.11642994 0.32836299
v -0.34810250 -0.44666150 0.00000000
v -0.06410702 0.38320536 0.21347713
v -0.09630365 -0.15602546 0.35353771
v -0.31327701 -0.25243094 0.28489493
v -0.05014369 -0.31657450 0.24970186
v 0.00000000 -0.33200215 0.19232631
v -0.16492754 0.44554948 0.15142646
v -0.12399824 0.48815426 0.11002694
v -0.28828414 0.09796078 0.34736537
v -0.06839787 0.56933240 0.00000000
v -0.42721138 -0.15859799 0.22499151
v -0.14596640 0.55403970 0.00000000
v -0.04454418 -0.18602097 0.30889091
v -0.56873630 0.02701634 0.00000000
v 0.00000000 0.40510487 0.17107422
v -0.04611556 -0.04693263 0.33986417
v -0.47871189 0.02326556 0.18577811
v -0.10035334 -0.22677802 0.32821976
v -0.14153976 0.26534064 0.29307817
v 0.00000000 0.46267657 0.12146625
v -0.07314713 -0.56030970 0.00000000
v 0.00000000 -0.07537899 0.28683546
v 0.00000000 0.19798307 0.28582891
v 0.00000000 -0.00873281 0.29448752
v -0.16675480 -0.37287920 0.23936310
v 0.00000000 0.33792221 0.21890986
v 0.00000000 0.26958517 0.25780091
v -0.40370300 0.40570920 0.00000000
v -0.39836950 -0.40198980 0.00000000
v -0.14563750 -0.54549380 0.00000000
v -0.41054263 0.35682172 0.06012636
v 0.35021761 0.29255149 0.19831534
v 0.34673145 0.22187781 0.25396752
v 0.12980139 0.20948576 0.31930234
v 0.16717238 -0.04588841 0.39252156
v 0.33040742 -0.13607206 0.33158737
v 0.09938270 -0.08370975 0.37103366
v 0.06399579 -0.48557394 0.11082245
v 0.06380651 -0.53048349 0.05206167
v 0.23053484 -0.36482758 0.23244243
v 0.33900945 -0.41095717 0.07830178
v 0.32282879 -0.38159639 0.14311746
v 0.27565340 -0.49448310 0.00000000
v 0.22062894 -0.48760752 0.06744210
v 0.20879980 -0.52514210 0.00000000
v 0.11928404 0.35778856 0.23509479
v 0.21030283 0.10482994 0.36596744
v 0.16789332 0.16191967 0.34512640
v 0.07495042 0.31201968 0.26155636
v 0.29808516 0.44915556 0.06672287
v 0.17991573 0.36588009 0.22263112
v 0.29516136 0.34842853 0.19030107
v 0.35307043 0.40576297 0.07099899
v 0.51530283 -0.17099023 0.06572068
v 0.49893448 -0.12647706 0.12583761
v 0.50525700 -0.04458695 0.14063829
v 0.48843440 -0.28809390 0.00000000
v 0.45960609 -0.03589765 0.21554430
v 0.34778277 0.06989296 0.32178055
v 0.49736910 0.22466406 0.05862723
v 0.50428450 0.26743460 0.00000000
v 0.45320497 0.25628893 0.10675393
v 0.41795756 0.31707730 0.09686406
v 0.44530552 0.09392064 0.21738365
v 0.48377288 0.08181049 0.16473126
v 0.53998563 0.06977599 0.06302206
v 0.55876270 0.11120940 0.00000000
v 0.39386457 -0.38109534 0.04632311
v 0.50570931 0.11220487 0.11645549
v 0.48294010 0.18524973 0.11559624
v 0.24347529 0.04917646 0.37574017
v 0.22375425 -0.20699747 0.35231892
v 0.15576993 -0.19096541 0.36085145
v 0.37988666 -0.22088885 0.24610918
v 0.16123498 0.31804907 0.26132319
v 0.26997023 -0.14065392 0.36378407
v 0.47360537 -0.20435634 0.12265971
v 0.48189969 -0.24735219 0.06665878
v 0.05237214 -0.37684039 0.20896010
v 0.10478333 -0.01250167 0.37681433
v 0.30002492 -0.34931043 0.20603195
v 0.30504800 -0.06445773 0.36216956
v 0.55190260 -0.13759440 0.00000000
v 0.14479117 -0.52462439 0.04410639
v 0.36522759 -0.32255378 0.16953642
v 0.24003373 0.44362772 0.11994784
v 0.56651810 -0.05534892 0.00000000
v 0.16890088 -0.25737708 0.32964572
v 0.18852383 0.47756638 0.10167947
v 0.33731704 0.15118069 0.30031694
v 0.40575098 0.16561046 0.23382424
v 0.52424560 0.14961950 0.06084083
v 0.38430840 -0.14771599 0.28073643
v 0.42451529 -0.09211663 0.25329425
v 0.39159785 -0.26749147 0.19324020
v 0.04816694 0.02182978 0.34113481
v 0.10297139 0.04951929 0.36782229
v 0.29244161 -0.45784291 0.05273766
v 0.27321509 -0.43639518 0.11075474
v 0.54179124 -0.01148014 0.06922794
v 0.05807908 0.50024169 0.10065914
v 0.33874023 -0.29032417 0.23200328
v 0.34275515 -0.19399798 0.29725357
v 0.28735300 0.49593610 0.00000000
v 0.05764779 0.09246796 0.33674043
v 0.46255611 -0.16202705 0.17009428
v 0.46816437 -0.10050292 0.18959947
v 0.12735274 -0.45348567 0.15444806
v 0.13961874 -0.49363254 0.09837671
v 0.05732593 -0.43418880 0.16254871
v 0.35649455 -0.01030285 0.32808469
v 0.39201912 0.03325995 0.29191543
v 0.30168533 0.01960043 0.36021369
v 0.42996713 -0.21852141 0.18287405
v 0.44074706 -0.31558485 0.06299375
v 0.38587653 -0.34924031 0.10760537
v 0.23331265 0.33505610 0.23382657
v 0.46131159 0.29744170 0.05072799
v 0.10349125 0.53030057 0.05578683
v 0.22108347 0.27490631 0.28026845
v 0.18674808 -0.32085861 0.28549234
v 0.11162438 -0.35009144 0.25446131
v 0.23948039 -0.01667030 0.38702743
v 0.07595980 0.44774824 0.16053642
v 0.13753631 0.40655041 0.19597580
v 0.43636066 0.21263993 0.16684791
v 0.04733576 -0.25346202 0.28286551
v 0.29891417 0.40011296 0.13209957
v 0.42940940 -0.27799980 0.12946193
v 0.20261669 -0.45338133 0.13461186
v 0.52568750 -0.21598770 0.00000000
v 0.46147370 0.33737290 0.00000000
v 0.28028386 0.21868450 0.29533545
v 0.41099224 -0.02774137 0.27744794
v 0.43556043 0.03124458 0.24500357
v 0.06787360 0.23836907 0.29498305
v 0.11435726 -0.40566826 0.20574913
v 0.18527395 -0.41443995 0.19251369
v 0.17212640 0.03451520 0.38633353
v 0.26972393 -0.31194671 0.26536639
v 0.44503120 -0.34986910 0.00000000
v 0.51425444 0.03458413 0.12311988
v 0.36198419 0.35110028 0.12995323
v 0.17025274 0.51486878 0.05595631
v 0.53676180 0.19235820 0.00000000
v 0.46148923 0.14519829 0.17338488
v 0.39640261 0.09750446 0.27208668
v 0.20380358 0.21748944 0.31659987
v 0.28969985 0.28477014 0.24727950
v 0.22904253 -0.08747770 0.38694925
v 0.15676905 -0.11919913 0.38284676
v 0.23760645 0.48723571 0.05894224
v 0.39255573 0.23424715 0.20336279
v 0.13111791 0.10495090 0.36187983
v 0.53399183 -0.09035353 0.06997379
v 0.40335852 0.28380187 0.15060150
v 0.04226539 0.54377229 0.04251404
v 0.25543289 -0.40373627 0.17280925
v 0.34697380 0.45676380 0.00000000
v 0.24226915 -0.26515591 0.31412288
v 0.28862692 -0.20260776 0.33039195
v 0.20804176 -0.15050711 0.37579685
v 0.10953534 -0.29245142 0.29555454
v 0.22634533 0.39684075 0.18145283
v 0.25427274 0.16171471 0.33447393
v 0.37152530 -0.07995632 0.31215004
v 0.07672319 0.16338682 0.32593237
v 0.21795090 0.52975730 0.00000000
v 0.04432399 -0.11642994 0.32836299
v 0.00000000 0.57500000 0.00000000
v 0.34810250 -0.44666150 0.00000000
v 0.06410702 0.38320536 0.21347713
v 0.09630365 -0.15602546 0.35353771
v 0.31327701 -0.25243094 0.28489493
v 0.05014369 -0.31657450 0.24970186
v 0.16492754 0.44554948 0.15142646
v 0.12399824 0.48815426 0.11002694
v 0.28828414 0.09796078 0.34736537
v 0.06839787 0.56933240 0.00000000
v 0.42721138 -0.15859799 0.22499151
v 0.14596640 0.55403970 0.00000000
v 0.04454418 -0.18602097 0.30889091
v 0.56873630 0.02701634 0.00000000
v 0.00000000 -0.56637090 0.00000000
v 0.04611556 -0.04693263 0.33986417
v 0.47871189 0.02326556 0.18577811
v 0.10035334 -0.22677802 0.32821976
v 0.14153976 0.26534064 0.29307817
v 0.07314713 -0.56030970 0.00000000
v 0.00000000 -0.14210729 0.27286765
v 0.00000000 0.12986814 0.29703204
v 0.16675480 -0.37287920 0.23936310
v 0.00000000 -0.39249263 0.15365521
v 0.40370300 0.40570920 0.00000000
v 0.39836950 -0.40198980 0.00000000
v 0.14563750 -0.54549380 0.00000000
v 0.41054263 0.35682172 0.06012636
f 1 2 123
f 79 53 8
f 102 22 117
f 46 24 23
f 153 59 28
f 137 125 124
f 61 119 36
f 54 64 103
f 29 30 119
f 67 65 75
f 103 86 87
f 27 161 25
f 98 100 99
f 42 137 41
f 126 19 55
f 10 11 87
f 23 105 47
f 47 103 46
f 112 78 111
f 55 58 126
f 81 48 111
f 117 130 1
f 10 68 69
f 107 123 2
f 60 127 97
f 73 43 148
f 72 54 50
f 52 23 129
f 130 32 31
f 69 11 10
f 54 103 87
f 36 35 61
f 45 124 51
f 41 57 42
f 31 39 97
f 112 9 133
f 26 115 86
f 50 114 72
f 34 116 161
f 139 55 102
f 47 86 103
f 69 68 13
f 146 96 15
f 82 83 108
f 3 17 142
f 148 72 114
f 96 95 151
f 90 118 152
f 13 12 14
f 33 60 120
f 140 17 122
f 129 56 52
f 25 24 77
f 37 115 173
f 118 90 156
f 144 6 147
f 46 85 76
f 29 119 61
f 46 76 24
f 23 52 105
f 61 35 38
f 89 29 31
f 146 170 159
f 123 107 91
f 95 152 151
f 163 18 44
f 72 148 43
f 141 108 63
f 113 40 94
f 104 13 79
f 65 49 160
f 5 73 136
f 152 95 71
f 69 13 104
f 87 86 37
f 155 63 77
f 32 130 117
f 38 35 116
f 162 98 157
f 150 149 48
f 84 51 94
f 122 3 163
f 82 108 141
f 2 127 60
f 21 123 88
f 164 95 159
f 116 34 38
f 33 121 60
f 90 132 154
f 90 154 156
f 30 89 106
f 24 25 129
f 155 62 63
f 129 25 70
f 126 58 118
f 35 36 158
f 328 8 165
f 64 43 85
f 71 101 132
f 107 140 122
f 44 20 88
f 15 96 20
f 94 4 113
f 109 108 83
f 142 75 335
f 65 66 75
f 7 80 81
f 157 144 147
f 139 21 88
f 27 108 109
f 1 21 117
f 9 112 169
f 120 39 38
f 130 97 127
f 109 161 27
f 11 54 87
f 133 104 112
f 63 27 77
f 118 156 143
f 120 34 33
f 145 10 37
f 87 37 10
f 77 76 155
f 56 129 70
f 30 29 89
f 131 7 8
f 24 76 77
f 54 11 50
f 165 8 53
f 115 37 86
f 46 23 47
f 26 86 47
f 5 45 51
f 153 40 16
f 122 163 91
f 138 98 162
f 140 16 17
f 20 139 88
f 151 55 139
f 334 144 157
f 142 335 167
f 108 27 63
f 116 25 161
f 137 42 125
f 2 60 59
f 43 73 62
f 139 20 96
f 78 7 81
f 114 50 9
f 79 7 78
f 8 7 79
f 121 109 83
f 71 164 101
f 128 67 75
f 152 71 90
f 85 155 76
f 116 70 25
f 43 62 155
f 68 12 13
f 11 69 133
f 124 125 4
f 162 147 42
f 98 149 100
f 144 166 160
f 140 59 153
f 157 99 334
f 114 9 92
f 121 59 60
f 54 72 64
f 93 92 169
f 5 141 62
f 63 62 141
f 28 83 82
f 58 151 152
f 120 97 39
f 109 33 161
f 25 77 27
f 104 78 112
f 155 85 43
f 328 131 8
f 50 133 9
f 70 35 158
f 31 29 39
f 126 74 19
f 10 145 68
f 104 133 69
f 142 17 128
f 35 70 116
f 46 103 85
f 129 23 24
f 84 153 28
f 4 94 124
f 110 167 171
f 44 91 163
f 45 41 137
f 149 98 138
f 93 48 149
f 149 138 93
f 21 139 102
f 9 169 92
f 33 109 121
f 164 71 95
f 102 117 21
f 17 3 122
f 49 65 67
f 53 79 13
f 53 13 14
f 81 111 78
f 81 80 337
f 50 11 133
f 104 79 78
f 118 58 152
f 64 72 43
f 61 39 29
f 161 33 34
f 31 97 130
f 4 49 113
f 84 94 40
f 57 41 135
f 147 125 42
f 93 111 48
f 139 96 151
f 82 51 84
f 97 120 60
f 168 160 166
f 95 96 146
f 45 136 41
f 113 67 128
f 1 130 127
f 135 148 114
f 28 121 83
f 142 167 110
f 74 134 19
f 73 5 62
f 98 99 157
f 143 74 126
f 126 118 143
f 89 175 106
f 38 34 120
f 68 145 12
f 85 103 64
f 55 151 58
f 334 166 144
f 88 91 44
f 124 45 137
f 114 92 135
f 135 41 136
f 138 92 93
f 128 17 16
f 6 160 49
f 3 110 163
f 160 6 144
f 162 42 57
f 91 88 123
f 40 113 16
f 5 136 45
f 121 28 59
f 169 111 93
f 146 159 95
f 169 112 111
f 113 49 67
f 163 110 18
f 92 138 57
f 51 141 5
f 147 6 125
f 28 82 84
f 57 138 162
f 51 82 141
f 15 20 44
f 128 16 113
f 59 107 2
f 168 65 160
f 92 57 135
f 148 135 136
f 18 15 44
f 140 107 59
f 3 142 110
f 84 40 153
f 4 6 49
f 16 140 153
f 162 157 147
f 107 122 91
f 71 132 90
f 51 124 94
f 154 132 314
f 136 73 148
f 128 75 142
f 123 21 1
f 18 171 170
f 4 125 6
f 22 172 175
f 146 15 18
f 314 132 101
f 75 66 335
f 2 1 127
f 89 31 32
f 48 337 150
f 48 81 337
f 18 170 146
f 80 7 131
f 149 150 100
f 61 38 39
f 66 65 168
f 70 158 56
f 171 18 110
f 26 47 105
f 102 55 19
f 173 145 37
f 53 14 174
f 22 102 19
f 22 19 134
f 175 32 117
f 174 165 53
f 89 32 175
f 22 134 172
f 175 117 22
f 175 172 106
f 176 293 177
f 253 183 228
f 272 287 197
f 221 198 199
f 322 203 234
f 306 294 295
f 236 211 289
f 229 273 239
f 204 289 205
f 241 249 240
f 273 260 259
f 202 200 330
f 271 99 100
f 217 216 306
f 296 230 194
f 185 260 186
f 198 222 275
f 222 221 273
f 282 281 252
f 230 296 233
f 254 281 223
f 287 176 300
f 185 243 242
f 277 177 293
f 235 270 297
f 247 318 218
f 246 225 229
f 227 299 198
f 300 206 207
f 243 185 186
f 229 260 273
f 211 236 210
f 220 226 294
f 216 217 232
f 206 270 214
f 282 302 184
f 201 259 285
f 225 246 284
f 209 330 286
f 308 272 230
f 222 273 259
f 243 188 242
f 316 190 269
f 255 278 256
f 178 311 192
f 318 284 246
f 269 320 268
f 263 321 288
f 188 189 187
f 208 290 235
f 309 292 192
f 299 227 231
f 200 251 199
f 212 339 285
f 288 325 263
f 313 317 181
f 221 250 258
f 204 236 289
f 221 199 250
f 198 275 227
f 236 213 210
f 262 206 204
f 316 159 170
f 293 264 277
f 268 320 321
f 332 219 193
f 246 218 318
f 310 238 278
f 283 267 215
f 274 253 188
f 240 329 224
f 180 305 247
f 321 245 268
f 243 274 188
f 260 212 259
f 324 251 238
f 207 287 300
f 213 286 210
f 331 326 271
f 150 223 319
f 257 267 226
f 292 332 178
f 255 310 278
f 177 235 297
f 196 261 293
f 164 159 268
f 286 213 209
f 208 235 291
f 263 323 301
f 263 325 323
f 205 276 262
f 199 299 200
f 324 238 237
f 299 244 200
f 296 288 233
f 210 327 211
f 328 333 183
f 239 258 218
f 245 301 101
f 277 292 309
f 219 261 195
f 190 195 269
f 267 283 179
f 279 256 278
f 311 335 249
f 240 249 66
f 182 254 80
f 326 317 313
f 308 261 196
f 202 279 278
f 176 287 196
f 184 336 282
f 290 213 214
f 300 297 270
f 279 202 330
f 186 260 229
f 302 282 274
f 238 251 202
f 288 312 325
f 290 208 209
f 315 212 185
f 260 185 212
f 251 324 250
f 231 244 299
f 205 262 204
f 131 183 182
f 199 251 250
f 229 225 186
f 333 228 183
f 285 259 212
f 221 222 198
f 201 222 259
f 180 226 220
f 322 191 215
f 292 264 332
f 307 331 271
f 309 192 191
f 195 261 308
f 320 308 230
f 334 326 313
f 311 167 335
f 278 238 202
f 286 330 200
f 306 295 217
f 177 234 235
f 218 237 247
f 308 269 195
f 252 254 182
f 284 184 225
f 253 252 182
f 183 253 182
f 291 256 279
f 245 101 164
f 298 249 241
f 321 263 245
f 258 250 324
f 286 200 244
f 218 324 237
f 242 188 187
f 186 302 243
f 294 179 295
f 331 217 317
f 271 100 319
f 313 329 166
f 309 322 234
f 326 334 99
f 284 265 184
f 291 235 234
f 229 239 246
f 266 336 265
f 180 237 310
f 238 310 237
f 203 255 256
f 233 321 320
f 290 214 270
f 279 330 208
f 200 202 251
f 274 282 252
f 324 218 258
f 328 183 131
f 225 184 302
f 244 327 210
f 206 214 204
f 296 194 248
f 185 242 315
f 274 243 302
f 311 298 192
f 210 286 244
f 221 258 273
f 299 199 198
f 257 203 322
f 179 294 267
f 280 171 167
f 219 332 264
f 220 306 216
f 319 307 271
f 266 319 223
f 319 266 307
f 196 272 308
f 184 265 336
f 208 291 279
f 164 268 245
f 272 196 287
f 192 292 178
f 224 241 240
f 228 188 253
f 228 189 188
f 254 252 281
f 254 337 80
f 225 302 186
f 274 252 253
f 288 321 233
f 239 218 246
f 236 204 214
f 330 209 208
f 206 300 270
f 179 283 224
f 257 215 267
f 232 304 216
f 317 217 295
f 266 223 281
f 308 320 269
f 255 257 226
f 270 235 290
f 168 166 329
f 268 316 269
f 220 216 305
f 283 298 241
f 176 297 300
f 304 284 318
f 203 256 291
f 311 280 167
f 248 194 303
f 247 237 180
f 271 326 99
f 312 296 248
f 296 312 288
f 262 276 341
f 213 290 209
f 242 187 315
f 258 239 273
f 230 233 320
f 334 313 166
f 261 219 264
f 294 306 220
f 284 304 265
f 304 305 216
f 307 266 265
f 298 191 192
f 181 224 329
f 178 332 280
f 329 313 181
f 331 232 217
f 264 293 261
f 215 191 283
f 180 220 305
f 291 234 203
f 336 266 281
f 316 268 159
f 336 281 282
f 283 241 224
f 332 193 280
f 265 232 307
f 226 180 310
f 317 295 181
f 203 257 255
f 232 331 307
f 226 310 255
f 190 219 195
f 298 283 191
f 234 177 277
f 168 329 240
f 265 304 232
f 318 305 304
f 193 219 190
f 309 234 277
f 178 280 311
f 257 322 215
f 179 224 181
f 191 322 309
f 331 317 326
f 277 264 292
f 245 263 301
f 226 267 294
f 323 314 301
f 305 318 247
f 298 311 249
f 293 176 196
f 193 170 171
f 179 181 295
f 197 341 338
f 316 193 190
f 314 101 301
f 249 335 66
f 177 297 176
f 262 207 206
f 223 150 337
f 223 337 254
f 193 316 170
f 80 131 182
f 319 100 150
f 236 214 213
f 66 168 240
f 244 231 327
f 171 280 193
f 201 275 222
f 272 194 230
f 339 212 315
f 228 340 189
f 197 194 272
f 197 303 194
f 341 287 207
f 340 228 333
f 262 341 207
f 197 338 303
f 341 197 287
f 341 276 338
