OFF
932 1720 0
0.50259542 -0.67541985 0.00000000
0.49039294 -0.64682028 0.00000000
0.47705156 -0.61803819 0.00000000
0.47837084 -0.67655082 0.01889550
0.44711907 -0.56028611 0.00000000
0.45941449 -0.65968328 0.03964566
0.45126353 -0.63450245 0.04734517
0.43466338 -0.53625399 0.00000000
0.40998782 -0.68282795 0.06918364
0.42263872 -0.59733935 0.06717838
0.40936106 -0.47587015 0.00000000
0.39117610 -0.66388420 0.09431066
0.40317076 -0.55285605 0.08581395
0.38008588 -0.38478035 0.00000000
0.37837751 -0.48893519 0.08975085
0.37547973 -0.59085447 0.13123261
0.36496608 -0.31949785 0.00000000
0.36701306 -0.44005526 0.06919642
0.35986056 -0.29113373 0.00000000
0.34707104 -0.56637673 0.17936363
0.35236641 -0.10870229 0.00000000
0.35003794 -0.20144447 0.00000000
0.32963379 -0.50702677 0.17285781
0.34934210 -0.36188003 0.04727040
0.34546779 -0.67130291 0.12983163
0.32234461 -0.30588162 0.05250043
0.32559712 -0.15625191 0.01368719
0.32910078 -0.21616053 0.02207583
0.31853683 -0.68572622 0.14207755
0.32217571 -0.46696793 0.14992925
0.30375486 -0.41636005 0.12923787
0.31808670 -0.61389325 0.19081062
0.29193231 -0.37017804 0.10862197
0.30391569 -0.17126842 0.02479720
0.30504343 -0.19912293 0.03244573
0.29642122 -0.32944842 0.08567993
0.30656234 -0.22844665 0.03966355
0.30150548 -0.28368175 0.06022401
0.28492376 -0.53920508 0.22431278
0.25232069 -0.16945119 0.03234798
0.25440448 -0.19632344 0.04510424
0.25836637 -0.68842773 0.19016607
0.26151025 -0.41876831 0.16201237
0.26265429 -0.35566723 0.11896090
0.25159882 -0.30150046 0.09633856
0.23874138 -0.65080206 0.23706489
0.20953844 -0.60026538 0.27066659
0.22437810 -0.57324458 0.26595042
0.22702009 -0.20878492 0.05456747
0.19896317 -0.19721738 0.04731942
0.22664577 -0.23355177 0.06856821
0.21000102 -0.72189685 0.19198560
0.19421074 -0.52638025 0.24735042
0.20492597 -0.47911870 0.21815189
0.20738830 -0.33312393 0.12752676
0.18909360 -0.37806791 0.15622481
0.19005212 -0.67088281 0.23589943
0.17166646 -0.21038653 0.05428192
0.16794431 -0.62337661 0.26257369
0.17446787 -0.23306106 0.07086212
0.18480504 -0.25702499 0.08669952
0.15945884 -0.57406535 0.26069231
0.17403476 -0.76389554 0.16891469
0.17193475 -0.30050453 0.11276120
0.16281862 -0.73892549 0.19868429
0.17199064 -0.54380586 0.25366591
0.15735730 -0.34369495 0.14003072
0.15824801 -0.39260005 0.16656026
0.18184229 -0.46086583 0.20724442
0.14285855 -0.22350579 0.06102891
0.15402013 -0.25098467 0.08213671
0.13386139 -0.27221971 0.09468080
0.12897129 -0.65593965 0.24281039
0.14922532 -0.32028118 0.12508855
0.15391376 -0.77865261 0.16705941
0.10953170 -0.36346416 0.14699983
0.12359126 -0.77809355 0.18552052
0.13946184 -0.55239522 0.24859959
0.13087281 -0.41558736 0.17716386
0.12026489 -0.50922580 0.22506345
0.11596746 -0.46413385 0.20090038
0.11453125 -0.75525313 0.20506500
0.11678016 -0.23450750 0.06641871
0.10422223 -0.26910640 0.09014800
0.11172497 -0.29343861 0.10601390
0.10890909 -0.67802428 0.23938549
0.12798273 -0.34153541 0.13672732
0.09212053 -0.38490210 0.15528329
0.08947918 -0.83430155 0.15156698
0.10088517 -0.41023024 0.17073080
0.11217044 -0.59662823 0.24779860
0.09969049 -0.49203169 0.21036391
0.08247741 -0.81762409 0.16901164
0.08965377 -0.24582167 0.07190300
0.07500485 -0.79633375 0.18626939
0.07894577 -0.26902551 0.08736202
0.08464390 -0.75070398 0.21163825
0.09015405 -0.70096795 0.23334348
0.07699384 -0.36081192 0.14150606
0.05083387 -0.41153461 0.15802871
0.06878007 -0.45203804 0.18085001
0.06780466 -0.50185399 0.20183208
0.05962050 -0.56810194 0.22251142
0.04751298 -0.88019804 0.13223987
0.04860426 -0.85845151 0.14867736
0.03580840 -0.29519256 0.09944689
0.03660442 -0.83812080 0.16402887
0.03327885 -0.32025775 0.11285528
0.04614792 -0.79338059 0.18956435
0.03254988 -0.39367114 0.14419811
0.02866995 -0.74116084 0.20761291
0.02575774 -0.68913913 0.21727880
0.03693175 -0.46327760 0.17628328
0.03853186 -0.63283788 0.22302167
0.03413711 -0.58318367 0.21297616
0.01393104 -0.92556525 0.10911403
-0.00018521 -0.90855287 0.12626340
0.01105848 -0.30073345 0.09974255
0.01510390 -0.88628995 0.13722363
0.02566986 -0.34592855 0.12449681
0.00540730 -0.83714512 0.16374645
0.00147912 -0.40010415 0.14270981
-0.00990526 -0.77904160 0.18182056
0.00802542 -0.44784770 0.15769007
-0.00812422 -0.52795237 0.17374356
-0.01381941 -0.96745730 0.08542122
-0.00344233 -0.67674396 0.20135247
-0.01331460 -0.55709057 0.17681229
-0.02677051 -0.33399388 0.11308411
-0.01628397 -0.92949239 0.11533194
-0.03380697 -0.86393670 0.14211060
-0.02207671 -0.81999436 0.16359455
-0.03769728 -1.00912279 0.05977529
-0.03787061 -0.48876745 0.15758144
-0.03302733 -0.76735050 0.17330522
-0.05026314 -0.53863401 0.15911179
-0.04659484 -0.71427096 0.17060265
-0.05727586 -0.59012676 0.16548260
-0.04897675 -0.64817157 0.16768035
-0.05083159 -0.99173276 0.07842310
-0.04136123 -0.28976711 0.09081737
-0.06436356 -0.96573684 0.08856297
-0.07249385 -0.90213674 0.10790947
-0.05461177 -0.37383986 0.12542878
-0.06778280 -1.03004990 0.05726217
-0.05373219 -0.43303603 0.14120834
-0.06414007 -0.79408106 0.14767217
-0.06717243 -0.48232956 0.14927341
-0.06090466 -1.01168748 0.06961900
-0.07098745 -0.61651109 0.16117585
-0.06905975 -0.56220002 0.15455978
-0.07766910 -0.66827488 0.15454139
-0.08938039 -0.94714285 0.07895317
-0.07938931 -1.09618321 0.00000000
-0.07881603 -1.05682885 0.03734587
-0.07072247 -0.29685650 0.09345366
-0.08325026 -0.84869658 0.12240242
-0.08232919 -0.32795647 0.10539829
-0.10522833 -0.76645941 0.12903382
-0.08162712 -0.39003929 0.12654056
-0.09255572 -0.71909457 0.14228094
-0.08468657 -0.42278435 0.13403818
-0.08574986 -0.97979721 0.07155982
-0.08174212 -0.64197227 0.15517353
-0.09456606 -0.58794615 0.14487650
-0.09793777 -0.51882973 0.14341527
-0.10593633 -0.93535190 0.06675557
-0.11132972 -0.87435524 0.08698867
-0.11759824 -0.81069779 0.10475252
-0.11969877 -0.73404040 0.12362784
-0.13860630 -0.30499929 0.09619984
-0.11296579 -0.68650828 0.13246496
-0.13019685 -0.35346176 0.11334981
-0.12316762 -0.59982346 0.14350356
-0.11088657 -0.40149244 0.12536728
-0.13347232 -0.47197232 0.13812446
-0.12295589 -0.53600096 0.14401564
-0.09826238 -1.03042686 0.02872403
-0.12863608 -0.97195362 0.06093391
-0.13075329 -0.92195775 0.07988561
-0.13518979 -0.87746177 0.09513798
-0.13692181 -0.83458816 0.11045261
-0.15137454 -0.63898412 0.13862526
-0.15039570 -0.58372620 0.14397287
-0.15267508 -0.52292006 0.14161403
-0.16454466 -0.46025427 0.13581072
-0.16383071 -0.39272089 0.12415947
-0.15966476 -0.36059948 0.11557690
-0.16998829 -0.30563085 0.09621890
-0.15647256 -0.95405332 0.06816829
-0.18293743 -0.93338417 0.08011989
-0.16625299 -0.87975639 0.10168184
-0.16504011 -0.83097427 0.11660275
-0.18283956 -0.77534972 0.13151253
-0.19973367 -0.71848487 0.14091609
-0.19244020 -0.66321981 0.14312576
-0.20456667 -0.60938444 0.14275531
-0.19914622 -0.55451410 0.14435432
-0.21457574 -0.37816964 0.11942238
-0.20410302 -0.91121954 0.08959971
-0.19690590 -0.88462416 0.10211884
-0.20564740 -0.93288257 0.07581721
-0.22055252 -0.81702294 0.12684813
-0.22267511 -0.74419364 0.14136130
-0.21178110 -0.69201485 0.14539073
-0.23431120 -0.64265038 0.14942127
-0.23809725 -0.52496691 0.14206654
-0.24474716 -0.49505444 0.13980828
-0.23560108 -0.41939454 0.12900425
-0.25167878 -0.33016145 0.10494876
-0.24778716 -0.85041630 0.11659485
-0.27936940 -0.85772519 0.11160811
-0.24480731 -0.76999152 0.13986835
-0.25351347 -0.89931663 0.09006503
-0.25233795 -0.66163497 0.15083910
-0.25975308 -0.60148087 0.15045195
-0.25521736 -0.57130060 0.14776135
-0.26388197 -0.51434371 0.14278481
-0.28641239 -0.45759362 0.13574955
-0.26843183 -0.37842229 0.11915506
-0.29207837 -0.81482561 0.12768898
-0.29144550 -0.73692142 0.14727825
-0.30818841 -0.83865954 0.11676553
-0.30048585 -0.67141706 0.15401333
-0.28504745 -0.61833228 0.15389757
-0.31031273 -0.53630820 0.14892067
-0.31186366 -0.47350150 0.13977744
-0.31276212 -0.44070938 0.13321372
-0.31049207 -0.40841274 0.12621240
-0.30104831 -0.76527168 0.14131117
-0.34293578 -0.70858406 0.15080597
-0.30551045 -0.34173742 0.10758735
-0.29610516 -0.79012455 0.13521619
-0.32849017 -0.65989325 0.15549011
-0.30757490 -0.63814885 0.15508540
-0.34088512 -0.82931275 0.11668859
-0.31154252 -0.56879054 0.15228447
-0.33312430 -0.32466875 0.10217727
-0.33331516 -0.85852477 0.10374469
-0.33814368 -0.51976653 0.14779669
-0.33844062 -0.45593159 0.13718459
-0.33856144 -0.42368564 0.12985658
-0.35817812 -0.37265076 0.11669230
-0.36831768 -0.70489856 0.14996457
-0.35608711 -0.65249845 0.15631392
-0.34884725 -0.80033088 0.12704075
-0.34950312 -0.59938305 0.15564732
-0.36529428 -0.85032943 0.10470232
-0.33740108 -0.55076221 0.15150957
-0.35844937 -0.34030656 0.10679085
-0.37032669 -0.50433192 0.14578369
-0.39045792 -0.44925596 0.13541582
-0.39895028 -0.26759389 0.07822241
-0.39799504 -0.69746067 0.14796698
-0.38478171 -0.64651211 0.15425448
-0.38198655 -0.75735733 0.13767683
-0.38394992 -0.59363887 0.15467000
-0.39668586 -0.84737778 0.10317165
-0.39306214 -0.52924253 0.14861667
-0.39253914 -0.47946817 0.14101346
-0.41480582 -0.42984613 0.13044806
-0.41232439 -0.37030645 0.11524828
-0.42796623 -0.68708700 0.14482732
-0.42367453 -0.71951076 0.14112982
-0.41471135 -0.57809123 0.15049115
-0.42821176 -0.25557202 0.07284941
-0.40862093 -0.77598925 0.13075619
-0.42295448 -0.51875105 0.14427275
-0.45473005 -0.80602238 0.11385212
-0.42250220 -0.48961511 0.14065048
-0.44478927 -0.41264726 0.12599326
-0.46426827 -0.64192721 0.14079158
-0.45951109 -0.67144869 0.14013083
-0.45621984 -0.27744169 0.08354554
-0.44356111 -0.56499981 0.14515573
-0.46194492 -0.36139289 0.11186222
-0.45632616 -0.73186203 0.13479987
-0.44967675 -0.50382499 0.13905115
-0.44115351 -0.77976749 0.12501434
-0.46462647 -0.45733104 0.13167672
-0.46417750 -0.85902957 0.09091194
-0.48319012 -0.25905995 0.07724745
-0.47188148 -0.55158356 0.13720125
-0.47694137 -0.68754108 0.13369268
-0.47828349 -0.48545314 0.13217867
-0.48578234 -0.74301355 0.12303605
-0.48557921 -0.80701574 0.10663853
-0.48956257 -0.45242644 0.12623267
-0.49125091 -0.83870599 0.09530850
-0.50217414 -0.31758343 0.09529550
-0.49054441 -0.62608049 0.13317999
-0.49705236 -0.54205727 0.12942534
-0.51011820 -0.39286987 0.11205316
-0.50052638 -0.69052105 0.12577617
-0.50939122 -0.21550202 0.05458753
-0.52715335 -0.49935479 0.11698550
-0.51268489 -0.26851861 0.07757056
-0.50403374 -0.34461020 0.10280636
-0.51607073 -0.44573961 0.11930482
-0.52402269 -0.70011531 0.11271414
-0.54282949 -0.39090286 0.09955610
-0.54515223 -0.27308915 0.07641370
-0.54720359 -0.70918035 0.09601519
-0.53839490 -0.61760437 0.10527187
-0.54169102 -0.55143911 0.10467797
-0.54103207 -0.87394477 0.07392268
-0.53509020 -0.76340709 0.10059361
-0.53975925 -0.44015705 0.10814861
-0.54451530 -0.90504134 0.06178284
-0.55841873 -0.33042161 0.08797237
-0.54839603 -0.48861778 0.10063517
-0.55758027 -0.19079677 0.04313399
-0.55868744 -0.24567786 0.06606471
-0.55134421 -0.36034269 0.09302626
-0.55476419 -0.85185702 0.07802060
-0.55786933 -0.42123785 0.09352721
-0.58128015 -0.27264054 0.07064134
-0.56637645 -0.30086450 0.08063369
-0.57693644 -0.35573380 0.08051586
-0.59570324 -0.87485558 0.05418537
-0.59169151 -0.24428974 0.06185513
-0.59682936 -0.29822326 0.06666006
-0.61300437 -0.15547669 0.02662942
-0.59181014 -0.94552067 0.03928082
-0.60354264 -0.21699068 0.05234165
-0.61995853 -0.24318642 0.05072146
-0.63898081 -0.16775856 0.03041202
-0.64324791 -0.19259075 0.03448176
-0.63777110 -0.13893101 0.01886296
-0.66931298 -1.01557252 0.00000000
-0.66485085 -0.14727678 0.01919023
-0.66672516 -0.11952368 0.00972189
-0.69740458 -0.09893130 0.00000000
0.40523759 -0.50922221 0.05168818
0.30939105 -0.54867879 0.20788402
0.30435413 -0.70753675 0.13085197
0.33503626 -0.62750658 0.16672908
0.37526692 -0.40273306 0.02477210
0.28844143 -0.47307577 0.18285985
0.44627934 -0.58139057 0.02556727
0.20148009 -0.69619459 0.21716944
-0.14095674 -0.41193890 0.12825515
-0.53907207 -0.58553260 0.10571247
-0.56534731 -0.87886675 0.06448190
-0.12247138 -0.56878176 0.14467930
-0.51859781 -0.66803993 0.11703901
-0.55278313 -0.45514984 0.09746859
-0.14536677 -0.90247122 0.08962589
0.02933666 -0.90373990 0.12065288
-0.48766054 -0.59943514 0.13432418
-0.10016796 -0.48369299 0.14046196
0.27586232 -0.29045578 0.07878396
-0.06922634 -0.93553568 0.09809809
-0.58673413 -0.32682038 0.07376850
-0.51373133 -0.78640572 0.10575290
0.35579739 -0.33947080 0.02601834
0.43440784 -0.65877421 0.06361604
0.06390075 -0.83776431 0.15922550
-0.02601205 -0.84246094 0.15356915
-0.43581863 -0.65668409 0.14600648
-0.02180485 -0.44264877 0.15065750
0.00954984 -0.76088925 0.19523970
-0.48120196 -0.71415776 0.12943815
-0.63211005 -0.21642459 0.04228906
-0.52695854 -0.33483732 0.09547289
-0.20315560 -0.57930722 0.14140824
-0.05558293 -0.76671858 0.15891314
0.07311031 -0.72234201 0.22246349
0.02300071 -0.42176075 0.15283190
-0.03626473 -0.97243031 0.08748065
-0.19111206 -0.74704858 0.13655824
-0.44713697 -0.53507365 0.14209430
0.20998222 -0.45429891 0.20073178
0.16586035 -0.36665396 0.15332679
-0.04606134 -1.02602669 0.04866748
0.04690678 -0.66385745 0.22899521
-0.68195301 -0.12182904 0.00911905
0.19976296 -0.50427023 0.23292484
-0.19661426 -0.45322887 0.13347959
-0.19398597 -0.82525442 0.12211205
-0.21995881 -0.86713650 0.10953562
0.13679870 -0.44156762 0.19386280
-0.46988174 -0.42829386 0.12645292
0.34348980 -0.27723526 0.01990104
0.20114251 -0.30692858 0.11350944
0.48300312 -0.65822481 0.01675888
-0.22265402 -0.66550666 0.14802033
0.27602227 -0.15573218 0.02496115
0.23968002 -0.71346618 0.17950410
0.01480053 -0.51056571 0.18042553
-0.53339889 -0.20319940 0.04889248
0.08369081 -0.58335183 0.23812098
-0.20963756 -0.35382888 0.11272943
-0.38991619 -0.56003488 0.15204042
-0.28602619 -0.58655186 0.15218429
0.09050591 -0.52066398 0.21982470
0.14133992 -0.29604944 0.11051992
-0.41709116 -0.46055686 0.13640583
-0.36620519 -0.62293373 0.15605870
-0.27943880 -0.65016317 0.15365090
-0.51665538 -0.88590602 0.07329830
-0.30981339 -0.50388084 0.14472235
-0.26405096 -0.71211741 0.14937400
-0.25827709 -0.43811245 0.13218103
-0.04969141 -0.31745724 0.10355849
-0.35424299 -0.73613133 0.14523190
-0.28011916 -0.88413841 0.09570138
-0.36586699 -0.27916472 0.08339062
-0.43273097 -0.35024073 0.10892445
-0.32594118 -0.78021977 0.13589339
-0.30245360 -0.37404129 0.11746411
-0.41810297 -0.31821142 0.09881817
0.02262837 -0.27086170 0.08319944
0.05948993 -0.30786420 0.10893087
0.32688354 -0.42385531 0.11177374
0.37154538 -0.52815787 0.13379887
0.25293775 -0.57780666 0.25270158
0.37317489 -0.62218437 0.12670662
0.45887312 -0.60985767 0.02562929
0.28175673 -0.66283925 0.19337351
-0.64241627 -0.96589342 0.01986210
0.06186994 -0.33764470 0.12417962
-0.12427438 -1.00354473 0.04227932
0.43111871 -0.55385634 0.03111512
0.29732294 -0.51956129 0.20673423
0.27938991 -0.23828063 0.05586598
0.36021347 -0.39190584 0.04689837
-0.10971702 -0.89809970 0.07937154
-0.10774328 -0.65562826 0.13714125
-0.54444820 -0.52082018 0.10321134
0.01359299 -0.48029647 0.17272082
0.28159143 -0.34256434 0.10177296
0.22944724 -0.40862932 0.16860440
0.06856774 -0.85593421 0.14302718
0.03622356 -0.55275112 0.20589383
-0.50623129 -0.72249818 0.12019981
-0.09497818 -0.55322851 0.14492808
-0.05606143 -0.87708421 0.12776542
-0.56615365 -0.38810822 0.08771433
0.15174536 -0.71238586 0.22089325
0.17587443 -0.48554066 0.22281276
-0.13632775 -0.38195169 0.12139506
0.02540564 -0.86250155 0.15068401
-0.18611465 -0.85506797 0.11252729
-0.18439913 -0.33634322 0.10790975
-0.60824897 -0.27024417 0.05880433
-0.04245856 -0.56373428 0.17067946
-0.58692778 -0.17285837 0.03475444
-0.02159728 -0.38339288 0.13189751
-0.22977270 -0.91489249 0.08369327
-0.49853061 -0.42080664 0.11977604
-0.24269792 -0.68963755 0.14879399
0.23028399 -0.69564698 0.20372490
-0.15069947 -0.33166623 0.10633036
-0.40907453 -0.74593266 0.13807380
-0.02693293 -0.98862964 0.07276556
-0.65416433 -0.16962482 0.02676980
-0.00740824 -0.64779978 0.19805628
-0.40583464 -0.66722205 0.15014705
0.10267902 -0.79770479 0.17782836
-0.41450291 -0.60721470 0.15128813
-0.01605170 -0.75091882 0.18569402
0.22650496 -0.18328421 0.03983663
-0.48154633 -0.22972292 0.06112852
-0.53155505 -0.30210570 0.08671556
-0.21737029 -0.40293919 0.12509848
-0.25870597 -0.54219977 0.14551042
0.08766030 -0.31522767 0.11596689
0.27883776 -0.18427529 0.03555503
0.39826563 -0.44857187 0.00000000
0.11018962 -0.56566784 0.24284564
0.37192372 -0.35233574 0.00000000
-0.49183473 -0.87069298 0.08270775
0.06754442 -0.63892428 0.23528276
-0.07999230 -0.35933685 0.11720326
-0.29557917 -0.70443138 0.15160647
0.32555510 -0.27910390 0.03946078
-0.37350168 -0.82063827 0.11695911
-0.32902491 -0.28930643 0.08796136
-0.09272077 -1.01081872 0.05874374
0.39537151 -0.48017564 0.04713301
0.39531652 -0.51965098 0.08260029
0.27876177 -0.61681590 0.22857949
-0.60707876 -0.89781472 0.04587844
0.02829109 -0.60820715 0.21464202
0.39164479 -0.60396332 0.10847461
0.29222152 -0.69887829 0.15091643
0.24925552 -0.39416517 0.14979454
0.35237426 -0.64030575 0.14230223
0.13357492 -0.73342461 0.21285785
0.03938239 -0.52206506 0.19644381
-0.11548495 -0.70945025 0.12880425
-0.52297003 -0.53148096 0.12060873
-0.10379237 -0.96034377 0.05715307
0.21988940 -0.26107194 0.08453252
0.32919059 -0.35559424 0.06853316
0.05604882 -0.74535266 0.21238145
0.22926691 -0.31647346 0.11230544
-0.15351421 -0.85403501 0.10744548
-0.02789250 -0.69352353 0.18474629
0.18080357 -0.71673234 0.20922840
-0.07664964 -0.53176872 0.15120123
-0.46448633 -0.61200737 0.14159701
-0.08883223 -0.87298641 0.11033598
0.05507644 -0.81713001 0.17556553
-0.24099288 -0.35765800 0.11398461
-0.27268526 -0.83115875 0.12343117
0.34202964 -0.59685220 0.17646969
0.19595807 -0.62553068 0.26320797
-0.06419930 -0.70381499 0.15739836
0.34552224 -0.30697003 0.02750686
-0.00451042 -0.86393542 0.14936077
-0.47369083 -0.51987033 0.13536053
0.07757685 -0.67115157 0.23815293
-0.23037603 -0.58849191 0.14589553
0.30476897 -0.25649045 0.04874063
0.32008123 -0.52636607 0.19112718
-0.22843207 -0.44712034 0.13399596
-0.17329012 -0.63018665 0.13673311
-0.17938906 -0.95397075 0.06616647
0.14498020 -0.52513905 0.23872670
-0.00644158 -0.35489813 0.12310647
-0.00097206 -0.94756001 0.09694125
0.16213476 -0.41978435 0.18361581
-0.23170445 -0.71662832 0.14548841
0.00318743 -0.32758935 0.11242816
-0.02948500 -0.54104701 0.17090029
-0.13941103 -0.44110334 0.13345818
0.07515009 -0.42707200 0.17208926
-0.41872508 -0.54797454 0.14795265
0.36617978 -0.37218803 0.02532191
0.10969901 -0.81532543 0.15803137
-0.52320520 -0.36568736 0.10290151
0.27629461 -0.31566953 0.09190879
0.47088363 -0.63492121 0.02305227
-0.39296414 -0.62069961 0.15420175
-0.32167252 -0.72253109 0.14947700
-0.17472127 -0.90653655 0.09206751
-0.52912288 -0.73202810 0.10646016
-0.27286523 -0.68250492 0.15217224
0.04432550 -0.71702811 0.21848144
-0.27789151 -0.48880107 0.14037427
-0.41644050 -0.40022117 0.12343835
0.18575903 -0.73905957 0.18817021
0.13346201 -0.57914404 0.25235124
-0.30798880 -0.86980099 0.10049864
0.14991189 -0.63658150 0.25017675
-0.01946849 -0.88617039 0.13626787
-0.02316101 -0.58645806 0.17651208
-0.29615085 -0.29518706 0.09074173
-0.42148465 -0.28637272 0.08651936
-0.63395322 -0.98306287 0.01823193
-0.09138520 -0.79547951 0.12531207
-0.01858217 -0.30836706 0.10161545
0.35813619 -0.49929295 0.13252035
0.26195068 -0.60220473 0.24616213
0.37164794 -0.42182185 0.04678062
0.29975246 -0.45542975 0.16139626
0.23969821 -0.54953266 0.25120020
0.40876375 -0.61667775 0.08584075
0.31210719 -0.39647205 0.10828981
-0.15086581 -0.61300438 0.14205919
0.08579241 -0.47141395 0.19483734
0.21286964 -0.36005526 0.14157232
0.23914261 -0.45114835 0.19147395
0.00193721 -0.73299476 0.19886029
-0.32189061 -0.69104264 0.15318378
0.23310767 -0.47466965 0.20997641
-0.38824598 -0.41779009 0.12845885
0.36225428 -0.57894463 0.15682631
0.02579168 -0.81470082 0.17736833
-0.16921020 -0.72171078 0.13395334
0.06580990 -0.77202312 0.20124040
-0.13242823 -0.94719988 0.07213836
-0.05771878 -0.50996309 0.15533487
-0.18631781 -0.36980590 0.11766570
-0.00367663 -0.42460762 0.14995699
0.35446270 -0.26114571 0.00000000
-0.07697684 -0.81889830 0.13376783
-0.59456397 -0.92366457 0.04940768
0.41345102 -0.53771116 0.05762396
-0.17743028 -0.54033585 0.13943240
0.30672148 -0.35137396 0.08796585
0.12710754 -0.48462211 0.21468672
-0.25443949 -0.46726455 0.13667707
-0.45382190 -0.70288752 0.13930416
0.08604256 -0.55109545 0.22927638
0.04548578 -0.36564591 0.13471546
-0.03724504 -0.90448131 0.12412475
-0.49147643 -0.36778006 0.11077180
-0.31054595 -0.31386075 0.09770354
-0.25765644 -0.63134670 0.15136743
0.42199442 -0.50695223 0.00000000
-0.21303001 -0.77125295 0.13604793
-0.22691577 -0.89186009 0.09752844
-0.36202250 -0.57030406 0.15386365
-0.24619478 -0.82282820 0.12710762
0.27754815 -0.26508024 0.06690186
-0.51734408 -0.81840962 0.09759179
-0.45129967 -0.32959235 0.10188954
0.19373721 -0.40565939 0.17376076
-0.53374638 -0.46843726 0.11473594
-0.36469522 -0.46889687 0.13995797
-0.02941193 -0.66563022 0.18347284
-0.56876610 -0.79637248 0.07697446
-0.03344389 -0.35854278 0.12246978
0.14530336 -0.75835017 0.19193989
0.24929918 -0.72679699 0.15399387
0.38294680 -0.68773228 0.08670753
-0.09621324 -0.92056534 0.08236740
-0.61556423 -0.18705470 0.04017229
-0.52982359 -0.41699486 0.11016481
-0.43471499 -0.75173354 0.13338277
0.01817191 -0.65719567 0.21390197
0.17912009 -0.64614625 0.25138005
-0.22963304 -0.30366301 0.09487822
0.26907888 -0.37988302 0.13070971
-0.07718920 -0.45538367 0.14109147
-0.45458482 -0.24339387 0.06736445
0.06122053 -0.38507696 0.14984311
-0.28567349 -0.52292742 0.14610185
-0.20843862 -0.63788883 0.14556892
0.09490009 -0.77585042 0.19626402
-0.10203226 -0.98238803 0.04839440
0.37695390 -0.55984526 0.13404134
0.25380287 -0.52523897 0.23535580
0.34059720 -0.47050397 0.13220028
0.26765058 -0.64507967 0.22088842
0.21838441 -0.38622062 0.15572546
0.44152957 -0.60526840 0.04711495
0.26114094 -0.47089164 0.19695160
-0.00188128 -0.70427282 0.20083358
0.31058371 -0.64547247 0.17968960
0.39149844 -0.49467995 0.06887921
0.34189602 -0.53554537 0.17496110
-0.44154047 -0.44290738 0.13208129
-0.02288617 -0.72261473 0.18604436
0.01260173 -0.37329594 0.13492845
-0.17149657 -0.42722461 0.13086366
0.00525733 -0.59747224 0.19976148
0.36929041 -0.67844903 0.10386322
0.41999479 -0.52420161 0.02914594
-0.48855431 -0.77415908 0.11483988
0.33742122 -0.33249336 0.04806473
-0.34102087 -0.48903737 0.14331213
0.46219909 -0.58938171 0.00000000
0.33415260 -0.40354572 0.08978315
0.23485801 -0.34347472 0.12494091
-0.18137147 -0.51153913 0.13849312
0.15006202 -0.46769965 0.20966130
-0.33343421 -0.57923206 0.15397565
0.11494718 -0.53654093 0.23487766
-0.37703322 -0.67481033 0.15336591
0.17914803 -0.32517624 0.12730246
0.24077812 -0.60232291 0.26450282
0.38812015 -0.41671655 0.00000000
-0.40611547 -0.34353337 0.10734525
-0.12080845 -0.78592767 0.11092307
-0.45968548 -0.83125390 0.10313229
0.19114829 -0.57137130 0.26700898
-0.03081748 -0.51704411 0.16283291
-0.12391293 -0.63106285 0.14061557
-0.27449521 -0.76635224 0.14177322
0.01364280 -0.54028000 0.18878629
-0.58670625 -0.85308958 0.06127292
-0.39988298 -0.50452412 0.14469724
-0.15990948 -0.92972098 0.08037033
0.08877019 -0.61598377 0.24213200
0.25340199 -0.22215232 0.05758766
-0.44085287 -0.59497933 0.14680630
0.16362051 -0.27606282 0.09859018
0.15956918 -0.66401538 0.24055290
-0.54651814 -0.82442578 0.08844027
0.12295390 -0.38860683 0.16344496
-0.09434326 -0.68946322 0.14404137
-0.20079531 -0.30527494 0.09580492
-0.57785863 -0.90112409 0.05805527
-0.51301456 -0.60049721 0.12146176
-0.09304168 -0.89595154 0.09719966
-0.11364274 -0.42654427 0.13067193
0.05624125 -0.25861433 0.07777186
-0.07022766 -0.73568644 0.15042582
-0.26199956 -0.40828174 0.12634382
-0.28344611 -0.32339570 0.10184307
0.17201356 -0.51342976 0.23738673
-0.21997005 -0.84109734 0.11950389
0.35655678 -0.60917479 0.15083920
-0.44420442 -0.30292940 0.09322583
0.31862058 -0.44373796 0.13579863
-0.28549993 -0.42643711 0.13001667
0.05749676 -0.60421963 0.22967121
0.27742026 -0.40575926 0.14195816
0.36975919 -0.65299211 0.11704886
0.39088953 -0.57179954 0.10986238
0.32793005 -0.55275637 0.19039304
0.27406223 -0.51443113 0.21922359
0.40890894 -0.49343895 0.02602963
-0.18024173 -0.60089334 0.13858073
0.25602299 -0.32876601 0.10858618
0.01719982 -0.78787926 0.18797837
0.36317577 -0.45955207 0.09075142
0.29994662 -0.60001806 0.21357640
0.42972786 -0.62699174 0.06594781
0.38606231 -0.43450543 0.02459442
-0.38863794 -0.72618153 0.14416520
-0.13269373 -0.66368076 0.13593130
0.32719891 -0.18612000 0.01804224
0.03932574 -0.49375876 0.18592656
0.01065773 -0.62758328 0.20755923
0.12143959 -0.70685174 0.22992255
-0.38565532 -0.32626351 0.10170069
-0.07967410 -0.76659406 0.13937128
-0.54297839 -0.68038605 0.10008646
0.17714557 -0.59946524 0.26729501
-0.14870911 -0.69489903 0.12919758
0.33108265 -0.24944617 0.02689594
-0.17401241 -0.80339704 0.12500924
0.18881923 -0.43203584 0.19451336
-0.34916883 -0.68170483 0.15398693
-0.13193998 -0.85814134 0.10099412
0.28013987 -0.21092750 0.04551991
-0.57312384 -0.22078402 0.05598016
-0.33173609 -0.35759334 0.11316015
-0.38815459 -0.38731594 0.12042116
0.04287001 -0.43733303 0.16816966
0.26993523 -0.55656822 0.24044588
-0.03644113 -0.61675789 0.17277997
-0.61027129 -0.94192242 0.03869963
-0.20704009 -0.53031183 0.14548472
-0.28669054 -0.39820699 0.12381528
0.32892856 -0.65794335 0.15506969
-0.36366478 -0.43660089 0.13335670
0.17125215 -0.69093214 0.22717403
-0.24092118 -0.38919730 0.12236638
0.10303101 -0.44030830 0.18486813
-0.12477940 -0.75654699 0.11790461
-0.10036202 -0.82042987 0.11256593
0.14032254 -0.68457913 0.23480039
0.33758603 -0.49041844 0.15201063
-0.05496335 -0.67922349 0.16423151
0.20887651 -0.65045945 0.24715490
-0.04776200 -0.81869233 0.15209225
0.24457986 -0.42979659 0.17866915
-0.05568472 -0.34423933 0.11438650
0.41892058 -0.56635301 0.06311485
0.37721414 -0.50934858 0.10955942
0.03736260 -0.76746438 0.20060192
0.37986932 -0.46814586 0.06880915
0.25077884 -0.67026081 0.21306392
0.39779558 -0.46365895 0.02394906
0.00807313 -0.56979717 0.19492226
-0.20480531 -0.79849340 0.12969859
0.31632427 -0.32998417 0.06855837
0.05892323 -0.69379155 0.22940091
-0.54106226 -0.79413959 0.09419890
0.09588503 -0.33859974 0.13242544
0.28030950 -0.58693035 0.23716126
-0.04618138 -0.92591431 0.11187116
0.22420051 -0.28920439 0.09851467
-0.55342653 -0.73966348 0.09036111
-0.21321023 -0.50252920 0.14263609
0.35120710 -0.23184222 0.00000000
0.22310361 -0.73836293 0.16140532
-0.49358448 -0.57379197 0.13042000
0.35124547 -0.69370122 0.10653768
-0.19181957 -0.40021322 0.12478603
0.39082870 -0.63472050 0.10253418
-0.21888103 -0.33094390 0.10529930
-0.47472350 -0.30954775 0.09433432
-0.51010420 -0.75404789 0.11229307
0.14464023 -0.60555923 0.25601303
-0.61497398 -0.96581222 0.02789889
-0.00761693 -0.47228089 0.16047505
-0.22562375 -0.55441787 0.14293843
-0.63063403 -0.94373605 0.02854845
-0.04240548 -0.74229970 0.17135730
0.11849666 -0.31709717 0.12197151
-0.18861215 -0.48219752 0.13659045
-0.46365062 -0.76053019 0.12678927
0.22827204 -0.50051578 0.22702572
-0.15053022 -0.77978598 0.12602328
0.36071396 -0.47946783 0.11161698
0.32075215 -0.57971193 0.19751014
-0.01396789 -0.61720209 0.19020598
0.07573424 -0.40355767 0.16086072
-0.52367859 -0.85163317 0.08713050
0.22045521 -0.67351400 0.22662215
-0.37798971 -0.78865055 0.12864421
-0.33403729 -0.39074803 0.12194654
0.31909843 -0.37635081 0.08930849
-0.10390585 -0.30196306 0.09524328
0.38368454 -0.45106365 0.04662060
0.29151616 -0.39274793 0.12371120
-0.02856811 -0.41365477 0.14062643
0.28174156 -0.68531667 0.17505311
-0.36466326 -0.53814162 0.15045819
-0.03451750 -0.95105369 0.10147590
0.34836120 -0.43134029 0.09085897
-0.31466258 -0.60350613 0.15470995
-0.39109029 -0.29807371 0.09114598
-0.10673796 -0.37377781 0.11863960
-0.25599511 -0.74086086 0.14530985
0.35423889 -0.41138609 0.06868943
-0.44602490 -0.47394978 0.13631614
-0.18067065 -0.69221642 0.13972809
-0.61875797 -0.92077657 0.03731068
-0.23348703 -0.79556427 0.13363600
-0.09986608 -1.01011887 0.03709738
0.25085923 -0.24907823 0.07074546
-0.10706677 -0.45168395 0.13560459
0.43246759 -0.57960922 0.04650064
0.30531654 -0.49894378 0.18845095
-0.15755347 -0.49175885 0.13937559
0.21694855 -0.42788530 0.18707275
-0.22045116 -0.47394020 0.13813129
0.02002066 -0.71631827 0.21037374
0.29838403 -0.30847068 0.07300329
-0.05491826 -0.84551986 0.14060163
-0.40246600 -0.81029957 0.11958829
0.34125882 -0.38288260 0.06872949
-0.56089423 -0.76906659 0.08380491
0.34309452 -0.45077654 0.11272687
0.08303782 -0.29008095 0.10113378
-0.23237669 -0.61692459 0.14833140
0.19866298 -0.75100368 0.16544425
-0.44124806 -0.38217239 0.11854502
-0.32368799 -0.75134982 0.14387728
-0.50749227 -0.47726151 0.12441266
0.22229345 -0.52423798 0.24427006
-0.14907119 -0.55335445 0.14385728
-0.52857606 -0.24672688 0.06819765
-0.00329489 -0.80696335 0.17504039
-0.25271418 -0.87469764 0.10487620
-0.14332209 -0.80754239 0.11925375
-0.14077553 -0.72201277 0.12518981
-0.51533983 -0.63612226 0.12061694
-0.08562274 -1.03724354 0.04726818
0.41211187 -0.64870838 0.08151480
-0.01235311 -0.49704708 0.16505930
0.06271531 -0.53508898 0.21351297
0.05518931 -0.28146359 0.09315288
-0.38332654 -0.35704154 0.11178804
0.22581830 -0.62817163 0.25901476
0.25388534 -0.62648894 0.24492940
0.20060510 -0.21996742 0.06246943
0.38774844 -0.54003790 0.10949841
-0.51864345 -0.56443503 0.11981974
-0.00967840 -0.28095440 0.08736993
-0.43915947 -0.62558048 0.14696000
0.35210711 -0.51760117 0.15467697
0.32831652 -0.70041240 0.11872414
0.31407475 -0.48148008 0.16880105
0.28013457 -0.49383665 0.20239447
-0.17883746 -0.56921923 0.13935120
0.29631652 -0.56965175 0.22120063
-0.47901485 -0.33777928 0.10379710
-0.27540388 -0.35124903 0.11129054
-0.15875754 -0.75090112 0.13034598
0.36342818 -0.54754968 0.15811236
-0.36198611 -0.40398982 0.12508520
-0.12739632 -0.50338436 0.14157394
-0.02749027 -0.63943615 0.18307780
-0.16035705 -0.66298189 0.13332505
-0.03495661 -0.79354557 0.16614933
0.09831624 -0.64741434 0.24174981
0.05837246 -0.47600677 0.18677307
0.28979054 -0.43091735 0.15203980
-0.33665658 -0.62873897 0.15648467
-0.04498188 -0.46128010 0.15072709
0.20731610 -0.54748119 0.25757606
0.24968373 -0.27499282 0.08326600
-0.49055622 -0.65959171 0.13114031
-0.26625521 -0.79834818 0.13437977
0.12067442 -0.62612814 0.24783419
0.24089514 -0.36911750 0.13787564
-0.26192367 -0.29995545 0.09305977
0.40685549 -0.58460762 0.08773689
0.25422284 -0.49647659 0.21662489
-0.56766514 -0.92463588 0.05091982
-0.08200365 -0.50301341 0.14753139
0.13978567 -0.36641732 0.15299812
0.30371707 -0.67347712 0.16552716
0.14903625 -0.49702777 0.22603004
0.29392914 -0.63175139 0.20504472
-0.32005233 -0.80904783 0.12737288
-0.47411929 -0.39492008 0.11931861
-0.46720119 -0.58190865 0.14032950
-0.46725738 -0.78578894 0.11820105
0.26987523 -0.44690363 0.17543223
-0.50091890 -0.50928830 0.12842414
-0.41360004 -0.63813197 0.15078941
-0.05433496 -0.40264283 0.13396283
0.19508058 -0.28108486 0.09936367
0.18594273 -0.35012052 0.14193859
-0.10034891 -0.62021789 0.14182724
-0.28503203 -0.55563105 0.14948529
0.10287507 -0.72875557 0.22049450
-0.20378164 -0.42611889 0.12940604
0.20190366 -0.24111637 0.07590714
-0.42673464 -0.79957569 0.12174923
-0.11286078 -0.84718176 0.09543013
-0.09391861 -0.74465987 0.13937632
-0.10316357 -0.34801615 0.11128060
-0.35265500 -0.76847984 0.13713332
-0.35847209 -0.30883713 0.09557444
-0.57719480 -0.82387900 0.06960685
0.27214767 -0.71716465 0.14649136
-0.54037782 -0.64909471 0.10298611
-0.43333112 -0.85206693 0.09737663
-0.15114296 -0.97725617 0.05522584
0.33013718 -0.12259532 0.00733077
-0.11833386 -0.32865719 0.10498260
-0.42817588 -0.82538484 0.11179420
-0.08461530 -1.07795332 0.00799644
0.34956442 -0.13632195 0.00000000
0.12464393 -0.24941601 0.07865330
0.43516715 -0.67944152 0.05144687
0.34889887 -0.17182895 0.00000000
-0.58630545 -0.20015464 0.04692071
-0.49653537 -0.28897522 0.08602927
0.16338355 -0.44245035 0.20000619
0.26642210 -0.70492016 0.16872181
-0.53968767 -0.22288076 0.05801995
-0.06824080 -1.07219164 0.01701485
0.30179252 -0.14007792 0.01661723
0.13132788 -0.79667198 0.16325783
0.45580555 -0.67795730 0.03604455
-0.09179460 -1.05295502 0.01892037
-0.50927347 -0.24129644 0.06908743
-0.05754530 -1.04957054 0.03279670
-0.65557403 -0.99033852 0.01013900
-0.65376821 -1.00121558 0.00804161
3 317 301 316
3 325 320 324
3 309 317 353
3 239 795 248
3 665 259 269
3 795 595 248
3 867 246 398
3 250 602 259
3 250 644 602
3 568 731 859
3 542 568 723
3 371 529 267
3 393 529 264
3 279 382 287
3 885 275 589
3 257 247 477
3 235 247 238
3 477 245 787
3 683 590 231
3 198 392 505
3 517 378 897
3 685 443 379
3 191 200 537
3 221 801 402
3 192 833 716
3 402 451 539
3 443 498 192
3 666 190 189
3 166 179 573
3 276 585 362
3 263 253 262
3 642 778 285
3 585 283 362
3 286 354 598
3 871 293 283
3 271 272 359
3 886 763 349
3 291 282 512
3 227 228 241
3 682 689 403
3 242 859 788
3 261 841 656
3 193 370 593
3 167 427 678
3 571 194 370
3 195 518 621
3 830 922 312
3 422 177 807
3 189 519 909
3 210 832 380
3 449 201 199
3 222 238 545
3 213 832 406
3 872 596 806
3 801 221 662
3 221 475 536
3 286 658 268
3 288 658 286
3 268 887 286
3 288 472 280
3 785 400 472
3 163 894 428
3 184 829 176
3 728 581 648
3 233 566 223
3 399 539 214
3 234 399 224
3 341 441 186
3 575 765 186
3 429 492 295
3 601 307 346
3 310 601 346
3 835 677 303
3 871 835 345
3 330 328 331
3 331 376 330
3 676 579 878
3 343 664 319
3 769 354 642
3 409 903 245
3 884 409 245
3 718 566 233
3 233 867 244
3 398 535 254
3 217 207 541
3 252 550 799
3 687 273 768
3 296 928 830
3 922 311 721
3 215 514 216
3 621 205 386
3 804 204 194
3 196 823 621
3 886 669 274
3 262 359 272
3 253 458 262
3 287 284 279
3 512 277 284
3 827 295 889
3 217 466 206
3 226 218 227
3 839 395 101
3 470 651 586
3 114 102 434
3 839 434 102
3 548 639 750
3 865 707 101
3 78 67 673
3 694 782 19
3 764 24 850
3 883 419 632
3 24 764 640
3 11 608 8
3 737 732 671
3 641 696 333
3 480 791 747
3 781 821 626
3 849 634 858
3 57 844 49
3 70 59 69
3 60 70 670
3 845 693 12
3 418 339 629
3 557 866 888
3 487 691 616
3 424 334 516
3 482 756 555
3 828 377 52
3 77 520 651
3 161 891 159
3 350 165 879
3 868 147 133
3 902 474 157
3 157 743 404
3 157 911 902
3 891 448 143
3 587 119 637
3 468 387 39
3 706 34 27
3 26 33 706
3 923 913 153
3 132 139 148
3 139 141 162
3 913 923 154
3 103 442 118
3 433 104 103
3 116 348 118
3 743 128 404
3 847 553 117
3 709 439 737
3 97 896 709
3 622 76 81
3 76 925 74
3 606 76 74
3 162 479 148
3 352 796 757
3 427 167 180
3 900 156 736
3 660 526 124
3 772 838 430
3 150 135 501
3 708 783 457
3 509 674 160
3 163 138 149
3 901 169 158
3 13 337 655
3 337 530 426
3 626 688 29
3 528 784 99
3 494 758 870
3 67 78 523
3 717 920 68
3 813 600 717
3 171 428 705
3 659 869 65
3 546 614 58
3 369 455 125
3 6 534 418
3 837 702 559
3 5 356 916
3 915 69 82
3 770 873 546
3 513 864 473
3 51 543 824
3 921 794 41
3 762 51 824
3 510 25 643
3 127 124 526
3 112 865 100
3 99 724 528
3 413 107 421
3 521 525 128
3 111 126 631
3 565 636 461
3 146 366 711
3 817 130 358
3 496 540 110
3 699 570 108
3 442 106 120
3 44 533 351
3 874 43 647
3 33 924 387
3 831 120 570
3 588 757 129
3 758 44 870
3 515 597 37
3 445 316 320
3 316 445 321
3 320 721 324
3 309 313 364
3 438 300 313
3 595 795 393
3 595 246 650
3 731 240 241
3 260 568 542
3 895 394 216
3 267 269 277
3 529 274 264
3 393 264 256
3 284 803 279
3 635 397 260
3 542 261 825
3 407 904 478
3 683 856 209
3 517 897 208
3 733 682 208
3 584 403 218
3 403 517 208
3 379 192 716
3 596 202 806
3 212 203 801
3 857 193 780
3 451 524 204
3 179 347 666
3 612 454 263
3 612 778 278
3 276 362 285
3 293 362 283
3 290 502 349
3 502 271 848
3 721 311 918
3 729 682 219
3 242 788 722
3 261 723 841
3 657 780 833
3 780 716 833
3 498 181 192
3 857 834 571
3 171 491 674
3 862 705 182
3 830 301 296
3 289 919 464
3 532 300 292
3 292 450 885
3 382 450 287
3 444 187 453
3 392 444 767
3 186 187 575
3 422 623 178
3 200 380 594
3 408 411 599
3 275 855 589
3 238 222 235
3 406 211 545
3 232 872 662
3 232 662 229
3 899 912 818
3 908 912 658
3 278 266 612
3 288 280 658
3 196 697 365
3 173 561 661
3 176 829 344
3 536 230 405
3 475 539 223
3 185 175 527
3 814 777 378
3 846 492 304
3 677 835 290
3 293 345 299
3 330 326 328
3 326 456 327
3 327 610 326
3 314 905 664
3 805 727 579
3 785 672 314
3 820 754 306
3 538 299 302
3 538 306 769
3 243 704 405
3 255 405 704
3 903 826 405
3 221 826 229
3 244 718 233
3 233 234 867
3 398 256 535
3 216 773 466
3 773 728 206
3 273 687 550
3 618 281 273
3 928 281 463
3 215 823 514
3 256 460 535
3 264 669 460
3 890 359 458
3 371 512 282
3 284 287 827
3 240 226 227
3 218 226 541
3 91 101 395
3 651 395 586
3 127 750 663
3 381 734 80
3 883 632 31
3 336 507 31
3 692 24 640
3 921 486 794
3 452 786 340
3 614 740 508
3 51 340 500
3 481 633 14
3 747 633 480
3 700 781 14
3 693 845 624
3 59 844 57
3 59 57 69
3 60 494 898
3 559 876 485
3 9 629 810
3 811 851 338
3 338 557 888
3 372 813 717
3 695 38 424
3 725 625 558
3 725 854 38
3 583 649 80
3 520 79 651
3 161 174 679
3 350 809 175
3 147 879 574
3 404 155 157
3 911 790 170
3 143 448 605
3 145 360 793
3 448 793 121
3 387 468 33
3 462 40 39
3 706 27 21
3 836 144 479
3 148 374 132
3 148 144 374
3 103 118 348
3 357 433 88
3 504 357 92
3 553 140 404
3 553 525 117
3 97 85 513
3 622 94 459
3 531 92 88
3 606 62 64
3 352 141 796
3 900 503 156
3 503 142 437
3 552 711 158
3 900 736 168
3 124 838 660
3 726 861 783
3 499 739 136
3 674 509 151
3 491 160 674
3 23 426 530
3 560 32 792
3 414 646 560
3 87 673 75
3 822 467 84
3 755 75 86
3 60 670 892
3 54 653 893
3 670 71 396
3 813 372 564
3 173 894 164
3 436 344 164
3 770 713 61
3 61 65 77
3 455 369 139
3 796 522 129
3 129 116 588
3 1 534 385
3 6 356 5
3 8 356 837
3 534 1 2
3 95 822 83
3 93 915 82
3 83 93 95
3 667 690 473
3 921 388 607
3 16 510 355
3 510 476 25
3 389 490 707
3 99 109 368
3 121 109 637
3 107 105 117
3 840 412 105
3 513 473 375
3 775 461 636
3 746 699 108
3 94 504 92
3 563 54 893
3 698 647 43
3 118 547 116
3 358 131 741
3 497 758 384
3 37 597 351
3 720 425 36
3 580 641 333
3 10 749 696
3 306 538 759
3 701 756 482
3 22 811 516
3 488 686 336
3 420 551 771
3 623 493 178
3 557 851 29
3 423 7 641
3 41 748 452
3 32 560 789
3 487 42 691
3 765 575 198
3 846 304 342
3 343 314 664
3 344 829 183
3 176 436 165
3 299 712 302
3 346 307 315
3 347 179 427
3 180 191 347
3 348 116 115
3 657 833 168
3 669 886 502
3 165 350 860
3 870 44 351
3 141 352 152
3 353 317 321
3 642 354 286
3 754 672 598
3 355 471 16
3 188 453 170
3 5 926 3
3 357 88 92
3 322 328 326
3 130 817 437
3 358 120 131
3 190 201 519
3 508 713 58
3 601 298 307
3 254 890 458
3 576 360 123
3 617 868 145
3 699 746 361
3 361 122 699
3 283 585 272
3 435 293 299
3 363 324 610
3 697 196 518
3 853 697 183
3 138 739 603
3 454 704 263
3 585 262 272
3 367 496 96
3 522 796 125
3 369 141 139
3 806 751 593
3 371 282 274
3 371 267 277
3 137 548 446
3 600 432 628
3 673 880 75
3 144 929 374
3 737 85 709
3 376 331 332
3 440 377 53
3 443 685 380
3 716 751 379
3 200 594 199
3 312 320 316
3 494 808 50
3 734 381 78
3 758 494 892
3 1 385 0
3 385 5 3
3 607 388 762
3 388 452 51
3 922 294 390
3 76 622 459
3 586 391 470
3 224 394 798
3 79 91 395
3 467 776 84
3 251 397 259
3 398 254 244
3 589 297 532
3 289 855 768
3 234 223 399
3 399 591 224
3 305 400 785
3 239 225 401
3 800 159 474
3 801 662 212
3 524 203 194
3 618 463 281
3 474 743 157
3 404 140 155
3 731 602 240
3 241 240 227
3 506 872 220
3 885 825 275
3 544 61 77
3 232 229 409
3 525 521 119
3 34 36 27
3 720 34 468
3 288 286 598
3 462 48 40
3 462 49 48
3 788 410 722
3 729 219 410
3 477 247 235
3 467 822 413
3 802 797 17
3 738 849 554
3 46 654 47
3 692 11 766
3 15 417 485
3 24 730 28
3 339 645 4
3 534 6 5
3 881 28 730
3 452 748 786
3 774 420 771
3 421 467 413
3 876 12 693
3 40 668 720
3 808 425 668
3 23 530 355
3 426 802 556
3 198 505 733
3 427 609 678
3 180 347 427
3 494 870 808
3 894 163 149
3 175 860 350
3 429 295 310
3 772 123 360
3 707 430 389
3 32 431 43
3 497 698 44
3 742 42 432
3 349 763 677
3 492 846 291
3 81 896 96
3 433 357 104
3 434 839 490
3 299 538 435
3 884 232 409
3 436 150 501
3 547 437 588
3 871 272 271
3 438 313 318
3 707 112 430
3 258 267 529
3 803 277 269
3 439 709 489
3 732 439 500
3 638 186 765
3 172 187 441
3 509 160 681
3 793 891 145
3 679 174 341
3 194 571 804
3 106 104 357
3 120 511 442
3 138 163 151
3 151 163 428
3 735 657 158
3 741 146 578
3 689 218 403
3 445 320 325
3 145 161 617
3 815 110 540
3 546 671 614
3 644 401 226
3 446 127 526
3 137 150 164
3 384 892 63
3 721 918 324
3 637 448 121
3 298 450 611
3 885 450 382
3 451 204 386
3 214 539 451
3 51 452 340
3 581 728 197
3 219 856 410
3 453 187 172
3 800 902 172
3 562 734 100
3 785 288 598
3 455 139 132
3 456 326 330
3 457 861 603
3 652 458 253
3 458 359 262
3 685 379 202
3 925 76 459
3 459 94 92
3 502 848 669
3 461 361 565
3 297 289 364
3 117 105 412
3 465 765 198
3 198 733 465
3 704 243 253
3 466 217 620
3 822 840 413
3 396 776 73
3 40 468 39
3 486 906 335
3 84 396 71
3 189 909 178
3 666 573 179
3 710 841 249
3 470 391 90
3 470 77 651
3 355 530 471
3 408 825 261
3 473 113 375
3 315 307 611
3 605 743 143
3 62 543 64
3 566 536 475
3 475 402 539
3 715 383 577
3 211 506 222
3 549 478 590
3 563 893 55
3 63 73 653
3 129 522 115
3 724 99 368
3 368 123 724
3 469 703 749
3 747 14 633
3 12 580 481
3 845 745 415
3 45 627 843
3 319 483 676
3 646 797 802
3 484 639 708
3 766 559 485
3 481 845 12
3 866 42 888
3 486 335 28
3 874 628 487
3 372 567 564
3 877 630 567
3 905 672 604
3 754 354 306
3 692 766 417
3 606 489 81
3 489 709 896
3 490 389 663
3 7 423 4
3 492 429 304
3 661 894 173
3 50 898 494
3 495 819 23
3 829 581 853
3 496 746 572
3 746 110 361
3 871 345 293
3 799 710 904
3 698 431 533
3 708 113 484
3 126 111 613
3 650 248 595
3 191 443 200
3 719 181 498
3 499 126 603
3 136 636 499
3 732 340 56
3 135 574 501
3 501 165 436
3 777 814 760
3 503 167 678
3 437 156 503
3 219 733 505
3 596 210 685
3 507 19 782
3 507 336 686
3 654 843 555
3 614 508 58
3 880 86 75
3 681 160 901
3 136 739 509
3 16 18 510
3 510 643 355
3 638 765 897
3 828 869 558
3 112 724 123
3 511 118 442
3 282 291 763
3 512 371 277
3 72 864 85
3 667 864 873
3 215 216 394
3 515 36 425
3 757 796 129
3 863 134 366
3 316 321 317
3 236 798 394
3 224 798 234
3 424 811 852
3 334 424 38
3 638 527 341
3 176 860 184
3 584 814 517
3 322 326 610
3 519 189 190
3 684 65 52
3 79 520 882
3 521 605 448
3 226 240 644
3 523 600 67
3 381 523 78
3 203 524 801
3 117 525 107
3 276 285 778
3 314 305 785
3 79 583 91
3 87 619 784
3 679 809 161
3 100 528 724
3 916 356 8
3 529 371 274
3 670 396 63
3 530 13 471
3 531 459 92
3 532 292 589
3 532 313 300
3 35 533 431
3 533 44 698
3 255 787 903
3 615 209 767
3 505 392 767
3 534 2 418
3 534 5 385
3 890 460 848
3 256 398 246
3 142 609 352
3 537 347 191
3 399 214 591
3 367 753 540
3 887 268 278
3 298 287 450
3 687 599 411
3 164 150 436
3 541 620 217
3 541 584 218
3 453 911 170
3 270 260 542
3 479 162 623
3 51 762 388
3 64 439 489
3 470 544 77
3 468 34 33
3 34 720 36
3 594 449 199
3 58 713 770
3 269 259 397
3 83 84 71
3 617 350 147
3 511 547 118
3 127 446 548
3 875 683 209
3 550 265 273
3 676 878 308
3 552 146 711
3 552 657 168
3 885 382 270
3 300 438 315
3 627 883 482
3 309 353 318
3 228 689 729
3 620 895 466
3 140 553 847
3 781 745 14
3 738 626 29
3 842 654 46
3 627 45 748
3 556 791 703
3 556 337 426
3 694 334 782
3 866 688 30
3 8 837 11
3 802 819 646
3 560 30 414
3 697 853 365
3 562 80 734
3 100 865 562
3 563 55 628
3 773 514 365
3 888 742 564
3 53 779 567
3 567 372 53
3 251 731 568
3 568 260 251
3 423 339 4
3 681 136 509
3 366 775 681
3 291 889 492
3 106 504 570
3 122 831 699
3 370 857 571
3 834 491 714
3 572 96 496
3 108 94 572
3 391 102 690
3 488 336 730
3 166 493 152
3 272 871 283
3 135 660 574
3 187 186 441
3 575 392 198
3 123 368 576
3 577 383 18
3 817 156 437
3 741 863 146
3 641 580 423
3 580 744 423
3 228 227 689
3 204 524 194
3 204 804 195
3 581 184 648
3 789 582 32
3 35 431 582
3 250 258 795
3 892 494 60
3 583 79 882
3 583 80 91
3 87 89 673
3 584 207 814
3 403 208 682
3 585 263 262
3 395 839 586
3 750 434 663
3 713 508 46
3 800 441 174
3 637 119 521
3 119 421 107
3 249 237 904
3 722 237 249
3 437 547 130
3 292 885 589
3 419 748 41
3 912 899 268
3 590 683 549
3 684 52 377
3 205 591 214
3 152 162 141
3 696 641 592
3 212 806 593
3 464 317 309
3 826 221 536
3 594 213 449
3 248 236 225
3 798 236 650
3 210 596 506
3 872 806 212
3 243 718 652
3 597 515 425
3 537 200 199
3 599 275 408
3 600 523 717
3 307 298 611
3 601 310 295
3 516 634 22
3 442 103 104
3 602 251 259
3 603 126 457
3 754 604 672
3 733 219 682
3 606 81 76
3 678 609 142
3 609 166 152
3 340 732 500
3 610 918 447
3 610 447 322
3 362 435 285
3 894 149 164
3 619 87 98
3 726 149 138
3 308 343 676
3 753 111 540
3 671 546 72
3 505 767 209
3 373 893 66
3 122 134 863
3 222 884 235
3 767 444 675
3 617 161 809
3 772 868 133
3 618 273 265
3 169 735 158
3 77 65 520
3 98 755 421
3 344 436 176
3 364 532 297
3 500 543 51
3 401 541 226
3 189 178 573
3 178 909 422
3 214 386 205
3 518 195 862
3 96 572 622
3 623 807 479
3 493 623 162
3 15 624 569
3 877 567 779
3 797 821 700
3 626 738 554
3 55 600 628
3 432 487 628
3 629 6 418
3 810 339 423
3 877 852 630
3 564 630 888
3 631 565 815
3 631 126 499
3 486 881 794
3 336 632 730
3 480 333 696
3 516 694 634
3 635 270 382
3 631 636 565
3 637 109 587
3 637 521 448
3 897 378 638
3 114 750 639
3 850 28 335
3 640 764 608
3 24 692 488
3 641 7 592
3 580 333 481
3 495 23 643
3 644 239 401
3 644 240 602
3 645 418 2
3 831 122 863
3 464 296 301
3 414 797 646
3 365 853 197
3 43 874 616
3 497 54 647
3 648 184 812
3 760 648 777
3 792 691 30
3 649 583 882
3 53 68 440
3 613 375 113
3 650 236 248
3 417 15 686
3 609 152 352
3 651 79 395
3 59 898 844
3 652 244 254
3 653 384 63
3 416 555 756
3 416 47 654
3 903 409 826
3 367 97 753
3 776 755 86
3 691 866 30
3 518 862 182
3 178 493 573
3 656 408 261
3 657 552 158
3 657 735 780
3 528 734 89
3 912 908 257
3 659 47 869
3 659 61 713
3 574 660 133
3 660 135 526
3 552 578 146
3 561 173 183
3 661 182 705
3 89 87 784
3 78 89 734
3 824 543 62
3 662 221 229
3 663 434 490
3 124 127 663
3 314 343 305
3 665 269 267
3 665 258 250
3 855 275 599
3 666 347 537
3 667 473 864
3 873 90 667
3 761 715 577
3 228 788 241
3 61 544 770
3 808 597 425
3 829 184 581
3 94 108 504
3 496 367 540
3 643 25 752
3 669 264 274
3 392 575 444
3 704 454 255
3 727 771 323
3 774 771 727
3 222 506 220
3 591 205 823
3 70 60 59
3 464 301 317
3 97 513 753
3 808 870 597
3 598 672 785
3 251 260 397
3 107 525 119
3 145 891 161
3 160 491 169
3 674 428 171
3 188 444 453
3 149 726 137
3 230 243 405
3 676 483 579
3 290 271 502
3 435 362 293
3 450 292 611
3 677 342 303
3 533 35 816
3 609 427 166
3 151 428 674
3 443 191 498
3 174 161 159
3 341 527 679
3 680 95 93
3 206 466 773
3 206 207 217
3 334 854 782
3 195 386 204
3 715 515 476
3 37 25 476
3 576 121 793
3 517 403 584
3 588 116 547
3 856 219 505
3 65 684 520
3 684 440 882
3 591 215 224
3 902 800 474
3 73 776 86
3 685 210 380
3 482 555 843
3 843 842 45
3 740 614 56
3 851 811 22
3 569 686 15
3 411 550 687
3 687 768 599
3 415 858 624
3 624 858 569
3 30 688 414
3 70 915 71
3 689 227 218
3 689 682 729
3 377 828 779
3 113 690 484
3 690 114 484
3 744 810 423
3 792 30 560
3 692 640 11
3 692 417 488
3 12 876 744
3 693 624 15
3 694 19 634
3 819 426 23
3 301 312 316
3 397 803 269
3 695 877 625
3 695 424 852
3 795 239 250
3 696 592 10
3 333 480 633
3 148 479 144
3 196 365 514
3 698 497 647
3 122 361 461
3 290 349 677
3 370 203 593
3 444 575 187
3 816 25 37
3 97 709 85
3 554 781 626
3 700 747 17
3 431 32 582
3 32 43 616
3 482 883 701
3 702 6 629
3 9 559 702
3 703 469 655
3 337 556 703
3 704 253 263
3 232 884 220
3 28 850 24
3 360 576 793
3 351 816 37
3 476 515 37
3 98 87 75
3 98 587 619
3 705 428 661
3 705 714 171
3 256 264 460
3 190 199 201
3 917 26 706
3 707 490 101
3 650 246 798
3 47 659 46
3 613 457 126
3 639 484 114
3 710 411 656
3 446 150 137
3 90 770 544
3 289 464 364
3 919 281 296
3 712 299 345
3 713 46 659
3 55 67 600
3 690 667 391
3 804 571 714
3 714 491 171
3 739 138 151
3 715 36 515
3 383 715 476
3 585 276 263
3 716 193 751
3 833 192 181
3 717 523 920
3 230 718 243
3 718 244 652
3 180 498 191
3 900 167 503
3 425 720 668
3 720 468 40
3 722 410 231
3 242 249 841
3 591 823 215
3 389 430 838
3 723 242 841
3 723 261 542
3 541 207 584
3 452 388 41
3 725 38 625
3 416 725 558
3 783 548 726
3 106 442 104
3 570 120 106
3 727 323 579
3 774 727 805
3 325 324 363
3 487 432 42
3 773 197 728
3 728 648 760
3 355 643 23
3 648 812 777
3 860 175 812
3 539 399 223
3 729 410 228
3 105 107 413
3 241 859 731
3 731 251 602
3 111 815 540
3 121 368 109
3 366 134 775
3 566 475 223
3 260 270 635
3 732 56 671
3 732 737 439
3 511 130 547
3 128 605 521
3 587 98 421
3 54 497 384
3 733 208 465
3 73 63 396
3 668 48 50
3 736 156 578
3 736 552 168
3 737 72 85
3 590 237 231
3 263 276 612
3 501 879 165
3 625 828 558
3 337 13 530
3 655 337 703
3 766 837 559
3 811 424 516
3 849 22 634
3 738 851 22
3 739 499 603
3 739 151 509
3 173 164 344
3 786 740 56
3 740 45 842
3 610 327 363
3 578 817 741
3 891 793 448
3 493 166 573
3 888 42 742
3 742 432 813
3 743 474 143
3 605 128 743
3 380 200 443
3 744 9 810
3 744 580 12
3 481 745 845
3 415 554 849
3 746 108 572
3 746 496 110
3 791 17 747
3 747 700 14
3 457 613 708
3 15 485 693
3 31 507 782
3 154 144 836
3 748 45 786
3 185 812 175
3 383 510 18
3 611 300 315
3 561 183 697
3 267 258 665
3 10 469 749
3 749 480 696
3 750 114 434
3 750 127 548
3 819 789 646
3 751 193 593
3 751 202 379
3 120 831 131
3 773 365 197
3 752 816 35
3 753 513 375
3 753 375 111
3 604 754 820
3 754 598 354
3 686 488 417
3 440 684 377
3 755 98 75
3 467 421 755
3 555 416 654
3 757 588 142
3 757 142 352
3 758 497 44
3 565 361 110
3 759 538 302
3 760 207 206
3 760 206 728
3 27 761 21
3 763 846 677
3 763 886 282
3 518 561 697
3 373 55 893
3 180 167 719
3 73 86 66
3 893 653 66
3 129 115 116
3 619 587 109
3 765 465 897
3 101 91 562
3 548 137 726
3 675 615 767
3 203 370 194
3 273 919 768
3 855 289 297
3 285 435 769
3 391 667 90
3 90 873 770
3 770 546 58
3 460 890 535
3 772 360 868
3 772 430 123
3 266 255 454
3 305 308 400
3 386 195 621
3 249 904 710
3 688 557 29
3 394 224 215
3 430 112 123
3 136 775 636
3 775 134 461
3 776 467 755
3 188 675 444
3 78 673 89
3 652 254 458
3 856 231 410
3 427 179 166
3 896 97 367
3 777 812 185
3 769 642 285
3 901 160 169
3 246 595 256
3 402 475 221
3 524 451 402
3 411 408 656
3 858 634 19
3 415 849 858
3 778 612 276
3 642 887 778
3 779 625 877
3 38 695 625
3 735 857 780
3 780 193 716
3 190 666 537
3 386 214 451
3 336 31 632
3 781 554 745
3 781 700 821
3 481 333 633
3 19 507 569
3 366 681 711
3 783 708 639
3 861 726 138
3 99 619 109
3 784 528 89
3 291 512 889
3 559 9 876
3 628 874 563
3 81 96 622
3 786 56 340
3 508 842 46
3 787 255 266
3 787 266 818
3 859 242 723
3 788 228 410
3 239 248 225
3 789 495 582
3 789 560 646
3 11 640 608
3 882 520 684
3 683 875 549
3 278 899 266
3 120 358 511
3 298 601 827
3 67 55 373
3 574 133 147
3 345 835 907
3 790 157 155
3 435 538 769
3 461 134 122
3 756 854 725
3 416 756 725
3 173 344 183
3 271 290 871
3 791 480 749
3 791 556 17
3 792 32 616
3 792 616 691
3 748 419 627
3 121 576 368
3 419 881 632
3 41 794 419
3 525 553 128
3 514 773 216
3 142 503 678
3 504 106 357
3 108 570 504
3 71 670 70
3 653 54 384
3 795 258 393
3 796 369 125
3 797 414 821
3 292 300 611
3 889 284 827
3 464 309 364
3 411 710 799
3 799 407 252
3 35 582 752
3 752 495 643
3 383 476 510
3 101 562 865
3 579 323 878
3 379 443 192
3 800 172 441
3 159 800 174
3 745 481 14
3 203 212 593
3 801 524 402
3 635 279 803
3 803 284 277
3 645 339 418
3 714 862 804
3 61 659 65
3 257 477 818
3 186 638 341
3 805 579 483
3 412 840 680
3 113 473 690
3 806 202 751
3 212 662 872
3 775 136 681
3 223 234 233
3 518 196 621
3 544 470 90
3 715 27 36
3 485 417 766
3 477 235 245
3 211 406 832
3 222 545 211
3 807 177 836
3 661 561 182
3 373 880 67
3 808 668 50
3 809 350 617
3 809 527 175
3 313 309 318
3 339 810 629
3 629 9 702
3 135 446 526
3 761 27 715
3 259 665 250
3 811 338 852
3 881 730 632
3 169 491 834
3 185 378 777
3 68 649 440
3 649 381 80
3 721 320 312
3 881 419 794
3 813 564 742
3 498 180 719
3 516 334 694
3 814 207 760
3 814 378 517
3 474 159 143
3 815 111 631
3 815 565 110
3 149 137 164
3 816 351 533
3 816 752 25
3 817 358 741
3 119 587 421
3 844 50 48
3 33 34 706
3 818 477 787
3 135 150 446
3 649 920 381
3 167 900 719
3 819 802 426
3 819 495 789
3 820 306 759
3 72 873 864
3 513 85 864
3 56 614 671
3 797 700 17
3 688 821 414
3 822 84 83
3 822 95 840
3 391 586 102
3 823 196 514
3 823 205 621
3 454 612 266
3 825 408 275
3 825 270 542
3 536 405 826
3 826 409 229
3 827 287 298
3 827 601 295
3 828 52 869
3 828 625 779
3 928 922 830
3 311 922 390
3 831 863 131
3 831 570 699
3 832 210 211
3 832 594 380
3 595 393 256
3 181 900 168
3 834 735 169
3 834 714 571
3 17 556 802
3 686 569 507
3 915 93 83
3 236 895 225
3 236 394 895
3 345 907 712
3 835 871 290
3 341 174 441
3 836 479 807
3 927 154 836
3 86 880 66
3 506 211 210
3 837 356 702
3 837 766 11
3 573 666 189
3 627 419 883
3 838 124 389
3 838 133 660
3 839 101 490
3 839 102 586
3 840 105 413
3 840 95 680
3 279 635 382
3 249 242 722
3 841 710 656
3 842 508 740
3 45 740 786
3 843 627 482
3 529 393 258
3 919 273 281
3 679 527 809
3 843 654 842
3 736 578 552
3 43 431 698
3 845 415 624
3 708 613 113
3 528 100 734
3 846 763 291
3 846 342 677
3 411 799 550
3 847 117 412
3 536 566 230
3 848 460 669
3 401 225 620
3 54 563 647
3 619 99 784
3 142 588 437
3 343 308 305
3 319 676 343
3 582 495 752
3 253 243 652
3 769 306 354
3 849 738 22
3 554 415 745
3 246 867 798
3 851 557 338
3 851 738 29
3 47 416 558
3 378 185 638
3 338 888 630
3 852 877 695
3 638 185 527
3 853 183 829
3 853 581 197
3 854 334 38
3 855 599 768
3 855 297 589
3 856 505 209
3 856 683 231
3 857 735 834
3 857 370 193
3 250 239 644
3 130 511 358
3 148 139 162
3 162 152 493
3 858 19 569
3 102 114 690
3 859 723 568
3 859 241 788
3 860 176 165
3 860 812 184
3 564 567 630
3 861 138 603
3 861 457 783
3 702 356 6
3 862 195 804
3 862 714 705
3 863 366 146
3 863 741 131
3 199 190 537
3 821 688 626
3 543 500 64
3 600 813 432
3 24 488 730
3 182 561 518
3 548 783 639
3 112 100 724
3 865 112 707
3 671 72 737
3 866 557 688
3 866 691 42
3 48 49 844
3 867 234 798
3 867 398 244
3 66 653 73
3 868 617 147
3 868 360 145
3 869 47 558
3 65 869 52
3 870 351 597
3 202 596 685
3 749 703 791
3 622 572 94
3 872 232 220
3 872 506 596
3 873 72 546
3 124 663 389
3 874 647 563
3 874 487 616
3 875 209 615
3 271 359 848
3 876 9 744
3 876 693 485
3 377 779 53
3 396 84 776
3 879 147 350
3 879 501 574
3 397 635 803
3 880 673 67
3 880 373 66
3 881 486 28
3 882 440 649
3 562 91 80
3 883 31 701
3 884 245 235
3 884 222 220
3 885 270 825
3 623 422 807
3 237 722 231
3 886 274 282
3 886 349 502
3 887 642 286
3 887 278 778
3 128 553 404
3 338 630 852
3 889 295 492
3 889 512 284
3 313 532 364
3 890 254 535
3 890 848 359
3 550 252 265
3 375 613 111
3 891 143 159
3 133 838 772
3 718 230 566
3 892 670 63
3 892 384 758
3 894 661 428
3 895 216 466
3 895 620 225
3 156 817 578
3 896 81 489
3 896 367 96
3 897 465 208
3 541 401 620
3 50 844 898
3 898 59 60
3 301 830 312
3 899 818 266
3 899 278 268
3 26 914 910
3 668 40 48
3 636 631 499
3 181 168 833
3 900 181 719
3 832 213 594
3 901 158 711
3 681 901 711
3 911 172 902
3 903 787 245
3 903 405 255
3 237 478 904
3 904 407 799
3 141 369 796
3 439 64 500
3 489 606 64
3 905 314 672
3 906 921 607
3 907 835 303
3 908 658 280
3 0 385 3
3 924 26 910
3 911 157 790
3 911 453 172
3 912 257 818
3 912 268 658
3 154 927 913
3 917 914 26
3 68 53 372
3 717 68 372
3 606 74 62
3 915 83 71
3 915 70 69
3 701 854 756
3 288 785 472
3 917 706 21
3 918 610 324
3 918 311 447
3 919 289 768
3 919 296 464
3 920 523 381
3 920 649 68
3 921 41 388
3 921 906 486
3 922 721 312
3 929 154 923
3 924 33 26
3 910 914 20
3 925 459 531
3 926 5 916
3 701 782 854
3 927 836 177
3 294 928 463
3 590 478 237
3 782 701 31
3 928 296 281
3 928 294 922
3 929 144 154
3 930 931 551
3 930 551 420
3 931 930 329
