OFF
932 1720 0
0.50259542 -0.67541985 0.00000000
0.49039294 -0.64682028 0.00000000
0.47705156 -0.61803819 0.00000000
0.47811645 -0.67625196 0.01860372
0.44711907 -0.56028611 0.00000000
0.45869729 -0.65923591 0.03991211
0.45137750 -0.63318500 0.04705024
0.43466338 -0.53625399 0.00000000
0.40896812 -0.68225894 0.06834463
0.42439414 -0.59665256 0.06888849
0.40936106 -0.47587015 0.00000000
0.39018164 -0.66297673 0.09492625
0.40448914 -0.55253158 0.08660952
0.38008588 -0.38478035 0.00000000
0.37901253 -0.48869659 0.08962792
0.37583437 -0.59203611 0.13167822
0.36496608 -0.31949785 0.00000000
0.36733089 -0.44020408 0.06953089
0.35986056 -0.29113373 0.00000000
0.34703378 -0.56656113 0.17925738
0.35236641 -0.10870229 0.00000000
0.35003794 -0.20144447 0.00000000
0.33093799 -0.50672060 0.17408508
0.34988041 -0.36198502 0.04733150
0.34579765 -0.67207753 0.13000041
0.32250479 -0.30590891 0.05346999
0.32497052 -0.15581725 0.01302283
0.32926691 -0.21586816 0.02208407
0.31895489 -0.68541422 0.14456154
0.32245304 -0.46686359 0.14975180
0.30354211 -0.41652586 0.12974910
0.31823290 -0.61441641 0.19003146
0.29204192 -0.36985943 0.10845631
0.30369300 -0.17125991 0.02365763
0.30489909 -0.19904193 0.03188004
0.29602392 -0.32970615 0.08548272
0.30702849 -0.22811958 0.03983442
0.30192547 -0.28361217 0.06115046
0.28454655 -0.53992427 0.22340119
0.25176047 -0.16887073 0.03107306
0.25367152 -0.19714262 0.04375381
0.25835317 -0.68866571 0.18920998
0.26076736 -0.41808872 0.16162807
0.26274748 -0.35578650 0.11865431
0.25101859 -0.30214334 0.09511996
0.23938722 -0.65171546 0.23739444
0.20993407 -0.60026201 0.27049447
0.22534052 -0.57335644 0.26794004
0.22686562 -0.21013793 0.05316715
0.19835421 -0.19670650 0.04578169
0.22645333 -0.23417669 0.06781680
0.20939570 -0.72393057 0.18961318
0.19436231 -0.52629066 0.24837910
0.20529249 -0.47947274 0.21822631
0.20715041 -0.33382088 0.12624544
0.18900691 -0.37799831 0.15647247
0.18968612 -0.67132762 0.23497669
0.17085470 -0.21021956 0.05282080
0.16841413 -0.62346936 0.26236159
0.17343213 -0.23341300 0.06843394
0.18481854 -0.25743443 0.08565873
0.16039888 -0.57448776 0.26032701
0.17466166 -0.76426370 0.16496920
0.17170853 -0.30122739 0.11063117
0.16298316 -0.74189795 0.19218231
0.17253422 -0.54374323 0.25456025
0.15752772 -0.34410066 0.13934963
0.15869748 -0.39249547 0.16675976
0.18295731 -0.46252994 0.20502519
0.14219420 -0.22249519 0.05891653
0.15398034 -0.25202532 0.08001523
0.13388670 -0.27375098 0.09286170
0.12867881 -0.65620808 0.24030254
0.14925798 -0.32086005 0.12357306
0.15444227 -0.77952637 0.16296504
0.10956606 -0.36401140 0.14636052
0.12420410 -0.77805395 0.18196684
0.13994474 -0.55256697 0.24881678
0.13100602 -0.41533667 0.17706162
0.12109163 -0.50945396 0.22516409
0.11671421 -0.46491125 0.19986185
0.11481400 -0.75459906 0.20044234
0.11631737 -0.23341865 0.06425044
0.10422990 -0.26897909 0.08852846
0.11122858 -0.29452853 0.10384674
0.10928286 -0.67833517 0.23617917
0.12815996 -0.34188805 0.13556523
0.09193093 -0.38494133 0.15475068
0.09196080 -0.83433057 0.14848970
0.10117806 -0.40959353 0.17054915
0.11278074 -0.59742606 0.24684743
0.10020841 -0.49220058 0.21026462
0.08250120 -0.81750577 0.16642715
0.08932479 -0.24480659 0.06978456
0.07509542 -0.79504020 0.18435888
0.07775269 -0.26781016 0.08534529
0.08549322 -0.74914723 0.20822720
0.09062645 -0.70142742 0.23363264
0.07756584 -0.36141567 0.14019623
0.05054924 -0.41061972 0.15769499
0.06934322 -0.45222615 0.18106587
0.06804979 -0.50088358 0.20311645
0.06054297 -0.56821846 0.22381046
0.04954556 -0.88113626 0.12968717
0.04909432 -0.85864939 0.14768694
0.03617102 -0.29486641 0.09892228
0.03746746 -0.83735291 0.16292463
0.03385566 -0.31969596 0.11244596
0.04699868 -0.79117484 0.18871147
0.03333328 -0.39328430 0.14434957
0.02954420 -0.74015357 0.20696917
0.02558712 -0.68831465 0.21838407
0.03660610 -0.46222771 0.17580204
0.03748157 -0.63178051 0.22152521
0.03381212 -0.58269335 0.21515639
0.01669814 -0.92556986 0.10786392
0.00085348 -0.90913572 0.12563814
0.01112787 -0.29934667 0.09937112
0.01627878 -0.88610433 0.13649827
0.02648986 -0.34588815 0.12391664
0.00560492 -0.83538477 0.16413475
0.00200807 -0.39962885 0.14229288
-0.00979387 -0.77984062 0.18266662
0.00831902 -0.44614510 0.15890574
-0.00481662 -0.52921220 0.17791956
-0.00966331 -0.96723026 0.08465565
-0.00551403 -0.67576031 0.20060613
-0.01368606 -0.55596173 0.17920327
-0.02627979 -0.33357822 0.11322596
-0.01473296 -0.93048984 0.11484466
-0.03358415 -0.86393496 0.14353991
-0.02408884 -0.82009666 0.16318218
-0.03178485 -1.00518805 0.06164844
-0.03692962 -0.48946765 0.15851046
-0.03362801 -0.76845258 0.17456149
-0.05457938 -0.53638578 0.16532426
-0.05059833 -0.71441271 0.16893679
-0.05801399 -0.58908279 0.16683253
-0.05088224 -0.64583601 0.17014135
-0.05198531 -0.99044008 0.08309276
-0.04121847 -0.28963760 0.08853396
-0.06433963 -0.96286280 0.09280017
-0.07033338 -0.90374697 0.11501759
-0.05347460 -0.37350068 0.12508064
-0.06651155 -1.03031080 0.05704161
-0.05359295 -0.43242077 0.14215264
-0.06779180 -0.79556546 0.14803734
-0.06600894 -0.48335859 0.14942976
-0.06327734 -1.00826771 0.07059904
-0.06879620 -0.61612411 0.16335175
-0.07268829 -0.56103882 0.16188314
-0.06867664 -0.67108409 0.16078720
-0.08966235 -0.94607982 0.08285881
-0.07938931 -1.09618321 0.00000000
-0.07878448 -1.05421008 0.03912986
-0.07022985 -0.29745388 0.09133524
-0.08333157 -0.84877849 0.12417237
-0.08148964 -0.32830525 0.10465645
-0.10823900 -0.77020788 0.13354502
-0.08093647 -0.39014377 0.12668211
-0.09562464 -0.72187759 0.15903104
-0.08553232 -0.42329680 0.13397386
-0.08473472 -0.97828519 0.07552950
-0.07597854 -0.64118618 0.15993948
-0.09450992 -0.58747116 0.15288596
-0.10406037 -0.51655389 0.14295604
-0.10754466 -0.92709243 0.07118659
-0.10977910 -0.87312472 0.09051714
-0.11773082 -0.80960072 0.10841404
-0.11534717 -0.74129157 0.13894502
-0.13899969 -0.30711967 0.09464674
-0.11882514 -0.67928408 0.14565780
-0.12952485 -0.35543593 0.10940059
-0.12357980 -0.60053806 0.13896543
-0.11020683 -0.40097981 0.12561403
-0.13173052 -0.47372207 0.13323285
-0.12123660 -0.53962380 0.13930558
-0.10389513 -1.02256886 0.03246209
-0.13332722 -0.97403514 0.06481869
-0.12739736 -0.92156686 0.08558442
-0.13396851 -0.88163417 0.10037878
-0.13609984 -0.83494392 0.11447572
-0.15099092 -0.64060921 0.14119565
-0.15010788 -0.58235824 0.14613306
-0.15189445 -0.52368023 0.14051782
-0.16382539 -0.46087445 0.13324067
-0.16452038 -0.39397890 0.12012523
-0.15916599 -0.36162743 0.11217478
-0.16978096 -0.30775696 0.09484736
-0.15951145 -0.95541013 0.07160482
-0.18237711 -0.93366473 0.08042194
-0.16751583 -0.88440035 0.10642458
-0.16557464 -0.83230197 0.12208495
-0.17907372 -0.77460763 0.13339152
-0.19881989 -0.71858292 0.14215022
-0.19095782 -0.66448526 0.14409255
-0.20040802 -0.60856888 0.14504479
-0.20196097 -0.55427100 0.14403004
-0.21512071 -0.37917200 0.11787916
-0.20300884 -0.91323546 0.08931944
-0.19930507 -0.88833136 0.10361837
-0.20904947 -0.93527169 0.07209740
-0.22054307 -0.81620879 0.12878166
-0.22358326 -0.74473436 0.14119400
-0.20694905 -0.69180500 0.14574985
-0.23388144 -0.64271592 0.15100282
-0.23704495 -0.52333694 0.14519482
-0.24409588 -0.49477002 0.14239907
-0.23668478 -0.41976424 0.12861189
-0.25185079 -0.33098632 0.10363225
-0.25024611 -0.85159651 0.11830660
-0.28119549 -0.85953667 0.11105319
-0.24601054 -0.76938768 0.13698142
-0.25709029 -0.90205176 0.08452590
-0.25233768 -0.66142483 0.15241854
-0.25759973 -0.60298916 0.15280290
-0.25394644 -0.57098811 0.15184103
-0.26539828 -0.51314638 0.14758570
-0.28370520 -0.45668212 0.13907204
-0.26781092 -0.37760798 0.11877449
-0.29223070 -0.81278271 0.12072825
-0.29104079 -0.73578868 0.14091966
-0.31082348 -0.83757115 0.10837078
-0.30172670 -0.66968642 0.14949552
-0.28302472 -0.61797143 0.15422269
-0.31119024 -0.53678180 0.15361310
-0.31020701 -0.47156658 0.14407821
-0.31250844 -0.44028684 0.13695160
-0.31104379 -0.40716915 0.12791405
-0.30107220 -0.76293563 0.13361306
-0.34367085 -0.70748091 0.14678492
-0.30559191 -0.34125137 0.10753203
-0.29960414 -0.78817578 0.12712542
-0.32742725 -0.66050303 0.15021770
-0.30571718 -0.63583639 0.15305256
-0.34224858 -0.83032127 0.10831011
-0.31145674 -0.56929626 0.15526727
-0.33341518 -0.32496184 0.10183765
-0.33460989 -0.86062599 0.09654976
-0.33910194 -0.51964599 0.15128334
-0.33925753 -0.45524639 0.14051079
-0.33750235 -0.42228374 0.13252159
-0.35957806 -0.37219529 0.11766819
-0.36904810 -0.70467819 0.14770233
-0.35749723 -0.65287482 0.15286751
-0.34979815 -0.79870435 0.11939911
-0.34870598 -0.60102365 0.15414505
-0.36585275 -0.85349129 0.09693676
-0.33688182 -0.55097025 0.15395263
-0.35832307 -0.33993550 0.10685077
-0.37011748 -0.50461610 0.14761524
-0.39113968 -0.44885803 0.13800098
-0.40081906 -0.26822480 0.07798775
-0.39859326 -0.69731037 0.14473455
-0.38582752 -0.64661485 0.15224353
-0.38143463 -0.75660656 0.13536375
-0.38308189 -0.59388377 0.15471218
-0.39563040 -0.85135265 0.09525297
-0.39450990 -0.52939653 0.15068278
-0.39235171 -0.47942568 0.14393831
-0.41710741 -0.42985215 0.13297555
-0.41138472 -0.37009160 0.11768045
-0.42912842 -0.68802276 0.13964151
-0.42849566 -0.71872587 0.13435451
-0.41410221 -0.57840705 0.15266427
-0.43040515 -0.25557846 0.07250034
-0.41062645 -0.77750606 0.12646986
-0.42297474 -0.51868132 0.14633542
-0.45081086 -0.80530854 0.10692126
-0.42292114 -0.48968918 0.14336437
-0.44430676 -0.41233840 0.12663579
-0.46267115 -0.64260317 0.14170608
-0.46073411 -0.67080727 0.13814135
-0.45659661 -0.27674773 0.08339849
-0.44286853 -0.56604113 0.14459826
-0.46201528 -0.36058206 0.11319019
-0.45796283 -0.73272227 0.13419228
-0.44914607 -0.50479827 0.13960161
-0.44190654 -0.77796859 0.11721590
-0.46566426 -0.45701772 0.13190769
-0.45883751 -0.85950408 0.08533752
-0.48396932 -0.25925809 0.07663999
-0.47110934 -0.55196378 0.13836436
-0.47705724 -0.68901562 0.13105109
-0.47728342 -0.48595702 0.13305353
-0.48461643 -0.74192706 0.11852744
-0.48330596 -0.80548322 0.10033212
-0.49144405 -0.45233939 0.12602451
-0.48736678 -0.84054005 0.08815131
-0.50297337 -0.31704712 0.09748699
-0.49032192 -0.62674291 0.13301631
-0.49647154 -0.54264918 0.12978697
-0.51010581 -0.39274218 0.11344732
-0.50156730 -0.69027486 0.12387338
-0.50899348 -0.21486840 0.05428900
-0.52659941 -0.49956474 0.11567214
-0.51539828 -0.26888760 0.07988653
-0.50466101 -0.34464851 0.10465790
-0.51670811 -0.44666912 0.11897731
-0.52482252 -0.69987913 0.11180020
-0.54090978 -0.39195024 0.10153126
-0.54652225 -0.27292988 0.07839281
-0.54541546 -0.70914444 0.09393500
-0.53949225 -0.61707959 0.10317243
-0.54161793 -0.55151254 0.10391460
-0.53918770 -0.87711640 0.07464023
-0.53026392 -0.76211769 0.09558462
-0.53975988 -0.44085092 0.10842899
-0.53990210 -0.90867670 0.05736627
-0.55889780 -0.33014409 0.08932873
-0.54798420 -0.48885536 0.10060895
-0.55539599 -0.18933174 0.04262306
-0.56033403 -0.24513521 0.06787534
-0.55121212 -0.36187843 0.09558401
-0.55346312 -0.85294715 0.07837855
-0.55767846 -0.42133950 0.09394231
-0.58079630 -0.27227148 0.07170016
-0.56688054 -0.30112296 0.08133538
-0.57645145 -0.35579884 0.08129023
-0.59500359 -0.87554476 0.05295152
-0.59262153 -0.24419073 0.06277474
-0.59615863 -0.29767130 0.06753108
-0.61202586 -0.15420698 0.02618867
-0.58906817 -0.94746464 0.03644231
-0.60439916 -0.21708628 0.05352885
-0.61966210 -0.24302285 0.05149855
-0.63792981 -0.16644384 0.03104733
-0.64359824 -0.19292432 0.03503937
-0.63778831 -0.13770299 0.01839385
-0.66931298 -1.01557252 0.00000000
-0.66569211 -0.14843922 0.01959350
-0.66661485 -0.11897071 0.00951872
-0.69740458 -0.09893130 0.00000000
0.40609321 -0.50917956 0.05161452
0.30918915 -0.54905316 0.20785281
0.30298053 -0.70814569 0.12836445
0.33598376 -0.62788215 0.16841741
0.37599871 -0.40289871 0.02466866
0.28818760 -0.47257958 0.18278617
0.44734702 -0.58079751 0.02569773
0.20129990 -0.69718511 0.21668377
-0.14166221 -0.41334888 0.12305083
-0.53957446 -0.58528185 0.10430646
-0.56396564 -0.88136237 0.06365153
-0.12053334 -0.57133452 0.13998349
-0.52055138 -0.66856838 0.11793103
-0.55243943 -0.45577692 0.09769226
-0.14123412 -0.90468095 0.09555529
0.03210340 -0.90379653 0.11895486
-0.48872329 -0.60046761 0.13392898
-0.09852836 -0.48267615 0.14134319
0.27569243 -0.29074661 0.07892720
-0.06658247 -0.93593264 0.10330736
-0.58578959 -0.32645532 0.07474994
-0.51321497 -0.78517804 0.09766348
0.35639092 -0.33930497 0.02581406
0.43317137 -0.65766067 0.06195719
0.06394233 -0.83735909 0.15764952
-0.02695673 -0.84147698 0.15512615
-0.43318767 -0.65780941 0.14287444
-0.02287113 -0.44145503 0.15059800
0.01027061 -0.76085223 0.19536528
-0.48084797 -0.71399152 0.12577968
-0.63219972 -0.21636138 0.04291529
-0.52886646 -0.33528822 0.09756149
-0.20680646 -0.58096053 0.14550877
-0.05689313 -0.76768324 0.16009593
0.07387390 -0.72215339 0.22153958
0.02202416 -0.42104620 0.15333393
-0.03794218 -0.97349705 0.09176753
-0.19014180 -0.74647513 0.13894134
-0.44639490 -0.53569499 0.14256727
0.21056980 -0.45589390 0.19834336
0.16643484 -0.36669135 0.15295154
-0.04183119 -1.02345195 0.04992956
0.04743564 -0.66398410 0.22844671
-0.68208892 -0.12277065 0.00947458
0.20019379 -0.50325613 0.23461550
-0.19589371 -0.45329852 0.13272875
-0.19551755 -0.82634665 0.12591190
-0.22363830 -0.86888129 0.11093496
0.13711319 -0.44166315 0.19217022
-0.47034592 -0.42846185 0.12684998
0.34409554 -0.27704701 0.02051070
0.20070734 -0.30811213 0.11147744
0.48329899 -0.65876652 0.01671815
-0.22312145 -0.66535795 0.14893149
0.27555866 -0.15551991 0.02404407
0.23903324 -0.71348474 0.17837701
0.01194275 -0.50842935 0.17975983
-0.53223583 -0.20208364 0.04845698
0.08410367 -0.58399658 0.23635123
-0.20855494 -0.35386957 0.11051163
-0.38967751 -0.56024911 0.15383326
-0.28520524 -0.58682250 0.15552847
0.09139920 -0.51964288 0.22059467
0.14162960 -0.29717995 0.10840444
-0.41895176 -0.46081344 0.13894718
-0.36708031 -0.62352010 0.15447061
-0.28065740 -0.65018097 0.15180237
-0.51309233 -0.88932272 0.06783945
-0.31095648 -0.50332348 0.14971596
-0.26481887 -0.71292206 0.14657738
-0.26082423 -0.43814287 0.13353659
-0.04898718 -0.31728156 0.10238727
-0.35646051 -0.73507983 0.14149350
-0.28257432 -0.88598182 0.08978233
-0.36791542 -0.28004058 0.08306370
-0.43254813 -0.34997244 0.11081679
-0.32785342 -0.77605997 0.12680987
-0.30205944 -0.37331923 0.11808930
-0.41836398 -0.31854501 0.09971481
0.02208095 -0.26887709 0.08020995
0.06026843 -0.30729161 0.10943231
0.32670418 -0.42377215 0.11219359
0.37155566 -0.52851352 0.13358540
0.25395256 -0.57752352 0.25224382
0.37126970 -0.62212607 0.12583440
0.45984798 -0.60991742 0.02576260
0.28068232 -0.66411842 0.19272452
-0.63823069 -0.96590595 0.02040813
0.06193162 -0.33783743 0.12306172
-0.13130512 -0.99884583 0.04378436
0.43284697 -0.55298096 0.03257919
0.29765852 -0.51963688 0.20766112
0.28048816 -0.23822248 0.05549467
0.36070726 -0.39153652 0.04705887
-0.10878169 -0.89945788 0.08136528
-0.10145638 -0.65457380 0.15250902
-0.54400813 -0.52103016 0.10291646
0.01246294 -0.47895556 0.17188210
0.28108214 -0.34280866 0.10153257
0.22928777 -0.40941839 0.16859606
0.07063919 -0.85678602 0.14002297
0.03679125 -0.55129361 0.20889780
-0.50584611 -0.72234250 0.11636576
-0.09595777 -0.55265271 0.14855588
-0.05706190 -0.87606106 0.13124641
-0.56677743 -0.38762059 0.08787595
0.15247848 -0.71538050 0.21510707
0.17637394 -0.48551783 0.22243391
-0.13534961 -0.38395977 0.11661786
0.02626521 -0.86181463 0.15095562
-0.18972779 -0.85837785 0.11632883
-0.18361444 -0.33748276 0.10559658
-0.60755380 -0.26996801 0.05972923
-0.04379134 -0.56226261 0.16974925
-0.58521157 -0.17131718 0.03423158
-0.02336283 -0.38198208 0.13264820
-0.23331436 -0.91778490 0.07893113
-0.49867732 -0.42070168 0.12067860
-0.24132312 -0.68971289 0.14892004
0.23042631 -0.69670912 0.20419534
-0.15086920 -0.33299103 0.10366440
-0.40905951 -0.74568709 0.13668275
-0.02129585 -0.98678337 0.07303925
-0.65461103 -0.17067772 0.02735924
-0.00591174 -0.64733462 0.20201332
-0.40652347 -0.66734846 0.14755584
0.10281750 -0.79743384 0.17508847
-0.41405253 -0.60725775 0.15236960
-0.01778592 -0.75108516 0.18648742
0.22623084 -0.18237872 0.03822727
-0.48263469 -0.22931087 0.06083627
-0.53198154 -0.30214509 0.08911707
-0.21767494 -0.40337864 0.12397783
-0.25939363 -0.54056207 0.15026235
0.08789307 -0.31528745 0.11375605
0.27876978 -0.18500118 0.03432572
0.39826563 -0.44857187 0.00000000
0.11081549 -0.56634872 0.24236929
0.37192372 -0.35233574 0.00000000
-0.48772853 -0.87323705 0.07682407
0.06803521 -0.63912916 0.23295111
-0.08019599 -0.35904531 0.11672408
-0.29522469 -0.70426029 0.14642329
0.32610102 -0.27901394 0.04023202
-0.37184308 -0.82215504 0.10970953
-0.32877844 -0.29026896 0.08743625
-0.08897300 -1.00536699 0.06083342
0.39598685 -0.47991796 0.04682238
0.39637297 -0.51933650 0.08341227
0.27768884 -0.61724491 0.22799429
-0.60587964 -0.89886083 0.04493028
0.02689506 -0.60723945 0.21550103
0.39050044 -0.60376788 0.10833230
0.29420789 -0.69743967 0.15283569
0.24890164 -0.39339185 0.14969411
0.34990755 -0.63868091 0.14175628
0.13396269 -0.73467534 0.20860696
0.03877392 -0.51993389 0.19837643
-0.11402574 -0.70857259 0.14192356
-0.52215741 -0.53209299 0.12001061
-0.10634767 -0.95326843 0.06109373
0.21946359 -0.26147288 0.08450798
0.32927796 -0.35525540 0.06854148
0.05718541 -0.74366997 0.21043908
0.22874315 -0.31741515 0.11047368
-0.15569238 -0.85918573 0.11332843
-0.02557773 -0.69678741 0.18740893
0.18075482 -0.71858891 0.20602035
-0.07847484 -0.53052401 0.15240791
-0.46470730 -0.61282740 0.14263434
-0.08926407 -0.87205941 0.11534826
0.05514791 -0.81574875 0.17399127
-0.23961288 -0.35822627 0.11249581
-0.27520012 -0.83118186 0.12178023
0.34259229 -0.59704170 0.17760087
0.19589840 -0.62631912 0.26395517
-0.07067383 -0.70101221 0.15642861
0.34611405 -0.30673141 0.02816393
-0.00338530 -0.86338376 0.15040183
-0.47511254 -0.51952295 0.13559169
0.07830598 -0.67115933 0.23628265
-0.23163721 -0.58933617 0.14944221
0.30508574 -0.25667137 0.04951010
0.32018449 -0.52608070 0.19157298
-0.22973215 -0.44716454 0.13388193
-0.17480928 -0.63081378 0.14052689
-0.18394275 -0.95483256 0.06384756
0.14569491 -0.52513600 0.23957786
-0.00604879 -0.35479627 0.12462745
0.00249787 -0.94745278 0.09595876
0.16294850 -0.42004515 0.18237467
-0.23305352 -0.71684982 0.14578931
0.00373301 -0.32656717 0.11372397
-0.02992855 -0.54068186 0.17156442
-0.13825570 -0.44304394 0.12853580
0.07557726 -0.42673157 0.17199711
-0.41959148 -0.54848490 0.14957886
0.36655918 -0.37220196 0.02547696
0.11168849 -0.81548739 0.15459324
-0.52414957 -0.36535973 0.10414585
0.27589932 -0.31606102 0.09108225
0.47124016 -0.63558243 0.02368599
-0.39368792 -0.62011241 0.15314149
-0.32245354 -0.72091095 0.14005557
-0.17289538 -0.90948314 0.09559444
-0.52592820 -0.73123376 0.10350142
-0.27293631 -0.68285988 0.15155271
0.04502790 -0.71612014 0.21875912
-0.27951329 -0.48828438 0.14510193
-0.41494666 -0.39965746 0.12622022
0.18497530 -0.74133559 0.18457419
0.13417318 -0.57921070 0.25181886
-0.30910845 -0.86968015 0.09476021
0.14979672 -0.63639510 0.24925433
-0.01880371 -0.88605402 0.13740160
-0.02513414 -0.58552987 0.17844767
-0.29689385 -0.29656391 0.09009257
-0.42266634 -0.28635298 0.08658991
-0.63296673 -0.98284149 0.01709342
-0.09159741 -0.79620386 0.12612404
-0.01832438 -0.30822806 0.10112391
0.35819506 -0.49852778 0.13343665
0.26133364 -0.60259640 0.24612953
0.37215463 -0.42175513 0.04647898
0.29952016 -0.45566175 0.16088131
0.23990328 -0.54959195 0.25215141
0.41010564 -0.61687144 0.08793133
0.31202593 -0.39656263 0.10846596
-0.15049159 -0.61202732 0.14502001
0.08608546 -0.47096307 0.19447896
0.21272242 -0.35991252 0.14136657
0.23890297 -0.45284661 0.18983374
0.00218733 -0.73380000 0.19958340
-0.31885972 -0.69138874 0.14567883
0.23306618 -0.47498206 0.20983314
-0.38819023 -0.41767982 0.13076755
0.36342432 -0.57947459 0.15768800
0.02658810 -0.81280483 0.17674877
-0.16478830 -0.72028141 0.13643092
0.06676328 -0.77057592 0.19919069
-0.13141664 -0.94744351 0.07899773
-0.05642445 -0.50979824 0.15652736
-0.18619192 -0.37006744 0.11484899
-0.00656245 -0.42297857 0.14845519
0.35446270 -0.26114571 0.00000000
-0.07856183 -0.82232091 0.13200703
-0.59297413 -0.92524783 0.05111308
0.41459712 -0.53708211 0.05823225
-0.17873810 -0.53995045 0.14047882
0.30653481 -0.35165772 0.08823833
0.12827956 -0.48559724 0.21383125
-0.25372196 -0.46749135 0.13880969
-0.45468955 -0.70293438 0.13874709
0.08658248 -0.55105514 0.22983935
0.04643310 -0.36602886 0.13446904
-0.03557396 -0.90514143 0.12645504
-0.49158280 -0.36727525 0.11238209
-0.31028892 -0.31315048 0.09689260
-0.25875976 -0.63230559 0.15213298
0.42199442 -0.50695223 0.00000000
-0.21232872 -0.77176452 0.13735003
-0.22905996 -0.89430388 0.09636207
-0.36024199 -0.57052835 0.15349132
-0.24573773 -0.82410107 0.12677094
0.27770123 -0.26469121 0.06729670
-0.51265604 -0.81638130 0.09022016
-0.45123656 -0.32879444 0.10359677
0.19408369 -0.40606001 0.17296012
-0.53333193 -0.46913705 0.11432014
-0.36687273 -0.46941455 0.14205422
-0.03073609 -0.66528880 0.18711425
-0.56445812 -0.79696714 0.07621628
-0.03312169 -0.35721517 0.12233574
0.14667150 -0.75925591 0.18544497
0.24617327 -0.72734813 0.15286739
0.38209132 -0.68704660 0.08554201
-0.09022936 -0.91785066 0.09575322
-0.61562527 -0.18701441 0.04166609
-0.52848871 -0.41763596 0.11119122
-0.43437114 -0.75001675 0.12621793
0.01928022 -0.65514550 0.21392416
0.17885670 -0.64738850 0.25200556
-0.22998292 -0.30578828 0.09394031
0.26901077 -0.37949273 0.13040847
-0.07706143 -0.45564746 0.14230465
-0.45681014 -0.24291420 0.06692472
0.06188647 -0.38512359 0.14886598
-0.28650448 -0.52312017 0.15144737
-0.20707889 -0.63850962 0.14698346
0.09543816 -0.77449522 0.19356138
-0.10541787 -0.97789592 0.05115519
0.37673705 -0.56065513 0.13396089
0.25411967 -0.52489522 0.23570731
0.34105439 -0.47026438 0.13221303
0.26800708 -0.64545680 0.22106670
0.21758596 -0.38602632 0.15577649
0.44246821 -0.60494738 0.04790062
0.26118871 -0.47165769 0.19676385
-0.00149001 -0.70474340 0.20344864
0.30975167 -0.64513442 0.18032516
0.39204889 -0.49421039 0.06869061
0.34187984 -0.53574577 0.17569945
-0.44302743 -0.44331998 0.13254953
-0.02411520 -0.72382604 0.18732255
0.01297444 -0.37323261 0.13397523
-0.17232102 -0.42751314 0.12808742
0.00219121 -0.59499784 0.20278057
0.36819591 -0.67490363 0.10496571
0.42097840 -0.52378642 0.02862655
-0.48859309 -0.77495416 0.10813816
0.33766699 -0.33243764 0.04849427
-0.34025276 -0.48789185 0.14677657
0.46219909 -0.58938171 0.00000000
0.33398063 -0.40360121 0.09027847
0.23437719 -0.34374205 0.12430281
-0.18168586 -0.51106033 0.13878080
0.15076260 -0.46899111 0.20767306
-0.33522688 -0.57945826 0.15478311
0.11516620 -0.53660787 0.23495070
-0.37730826 -0.67481661 0.15018871
0.17893982 -0.32600990 0.12581513
0.24041362 -0.60230800 0.26354799
0.38812015 -0.41671655 0.00000000
-0.40523269 -0.34242170 0.10820409
-0.12238864 -0.78434431 0.11401843
-0.45869228 -0.83225586 0.09576330
0.19150879 -0.57165034 0.26758371
-0.03000251 -0.51691837 0.16757506
-0.12701427 -0.63336417 0.13743971
-0.27528842 -0.76641833 0.13605295
0.01405040 -0.53974898 0.19326254
-0.58479516 -0.85204615 0.06056129
-0.40001583 -0.50412866 0.14725249
-0.15364664 -0.93024056 0.08683890
0.08925094 -0.61655941 0.24059178
0.25354364 -0.22253782 0.05690782
-0.44023331 -0.59515889 0.14510304
0.16352320 -0.27635740 0.09671182
0.15869916 -0.66421653 0.23891271
-0.54279661 -0.82363877 0.08254415
0.12333862 -0.38834839 0.16352379
-0.09575471 -0.68886731 0.15213637
-0.20091731 -0.30728137 0.09460183
-0.57548985 -0.90291457 0.05674631
-0.51371609 -0.60085103 0.12218049
-0.09602202 -0.89017756 0.10156430
-0.11675634 -0.42562406 0.12975511
0.05539322 -0.25713636 0.07520339
-0.07286168 -0.73836607 0.14988598
-0.26309439 -0.40820217 0.12678306
-0.28369999 -0.32363482 0.10093859
0.17245845 -0.51274036 0.23866160
-0.21962712 -0.84190233 0.12177033
0.35819705 -0.61002243 0.15230042
-0.44327123 -0.30185408 0.09361169
0.31865367 -0.44341125 0.13598169
-0.28763600 -0.42616864 0.13207988
0.05684324 -0.60462575 0.22809227
0.27727804 -0.40537024 0.14207940
0.36949866 -0.65247511 0.11757394
0.39129940 -0.57207339 0.11055690
0.32754488 -0.55289400 0.19075750
0.27410694 -0.51447015 0.21956183
0.40931702 -0.49318764 0.02594956
-0.17788292 -0.59397151 0.14135030
0.25493688 -0.32912349 0.10768807
0.01839955 -0.78764256 0.18761674
0.36340988 -0.45943589 0.09120652
0.29879970 -0.60056569 0.21283724
0.42955198 -0.62768403 0.06726562
0.38656107 -0.43463831 0.02410452
-0.39003409 -0.72608018 0.14199891
-0.13203788 -0.66134055 0.13478653
0.32704849 -0.18600606 0.01751900
0.03710767 -0.49125406 0.18481839
0.00664143 -0.62435336 0.20789157
0.12152877 -0.70704643 0.22734741
-0.38493579 -0.32543076 0.10168063
-0.08146211 -0.76715119 0.13908703
-0.54296219 -0.67947449 0.09758941
0.17787209 -0.59945830 0.26730561
-0.13764793 -0.69332610 0.13116842
0.33152266 -0.24929410 0.02778249
-0.17253282 -0.80320616 0.12863810
0.18901621 -0.43417572 0.19249226
-0.34818833 -0.68105608 0.15125715
-0.13045278 -0.85997273 0.10614854
0.27951257 -0.21107072 0.04494172
-0.57295958 -0.21931768 0.05744250
-0.33222125 -0.35781031 0.11346690
-0.38682715 -0.38716534 0.12246924
0.04417173 -0.43696910 0.16863915
0.26974081 -0.55735119 0.23935610
-0.03846268 -0.61603468 0.17470951
-0.60898368 -0.94457636 0.04215259
-0.20669496 -0.53068150 0.14322185
-0.28692135 -0.39737434 0.12467945
0.32619699 -0.65507217 0.15548752
-0.36434487 -0.43671011 0.13532755
0.17026246 -0.69159901 0.22531287
-0.24127489 -0.38902252 0.12148452
0.10285551 -0.43995964 0.18454473
-0.12757522 -0.75585997 0.12001766
-0.10052905 -0.82466510 0.11299312
0.14059122 -0.68574224 0.23119271
0.33785616 -0.48982372 0.15294076
-0.04695290 -0.68342412 0.17386975
0.20894544 -0.65178806 0.24810182
-0.05166722 -0.81986270 0.15065452
0.24404099 -0.43056506 0.17747521
-0.05622743 -0.34426213 0.11365159
0.41996162 -0.56656704 0.06487371
0.37759911 -0.50895917 0.11033077
0.03842310 -0.76583832 0.19970007
0.38053082 -0.46832504 0.06876917
0.25076847 -0.67072752 0.21283901
0.39825650 -0.46373274 0.02371330
0.00645815 -0.56896195 0.19884620
-0.20216021 -0.79718901 0.13222108
0.31575025 -0.33020549 0.06924141
0.05946971 -0.69422281 0.22998897
-0.53748734 -0.79339272 0.08746955
0.09594141 -0.33863993 0.13045990
0.27850100 -0.58754049 0.23505098
-0.04526414 -0.92599044 0.11502884
0.22359645 -0.28973273 0.09742244
-0.54956657 -0.73962341 0.08903611
-0.21352078 -0.50262048 0.14120267
0.35120710 -0.23184222 0.00000000
0.22244102 -0.73882568 0.15832756
-0.49325918 -0.57405301 0.13161628
0.35085654 -0.69280801 0.10489856
-0.19182029 -0.39983775 0.12278413
0.39188518 -0.63468826 0.10428136
-0.21895430 -0.33179771 0.10352268
-0.47235074 -0.30711354 0.09580746
-0.50635137 -0.75323183 0.10799752
0.14566095 -0.60550306 0.25520928
-0.61241252 -0.96620128 0.02622443
-0.01431637 -0.46884454 0.15977829
-0.22841427 -0.55381384 0.14694345
-0.62791842 -0.94479889 0.02831288
-0.04572748 -0.74296545 0.17099185
0.11900485 -0.31776988 0.12030007
-0.18803022 -0.48154795 0.13622720
-0.46386330 -0.76110924 0.12580258
0.22891748 -0.49970210 0.22876698
-0.15099430 -0.77777161 0.12747510
0.36107583 -0.47917996 0.11189382
0.32044999 -0.58025369 0.19708945
-0.01766316 -0.61607058 0.19466932
0.07608730 -0.40370881 0.16085516
-0.52046829 -0.85070591 0.08078668
0.22062778 -0.67365150 0.22646602
-0.38013937 -0.78859761 0.12490499
-0.33367273 -0.38920920 0.12303408
0.31933818 -0.37617362 0.08941196
-0.10378934 -0.30546175 0.09404917
0.38403646 -0.45097073 0.04681629
0.29153755 -0.39231240 0.12341621
-0.02916882 -0.41202292 0.14157255
0.28041332 -0.68636904 0.17030265
-0.36530878 -0.53845435 0.15138539
-0.03303487 -0.95215685 0.10416504
0.34841328 -0.43143994 0.09133827
-0.31670475 -0.60431733 0.15485127
-0.39308600 -0.29936383 0.09148443
-0.10659370 -0.37325378 0.11816669
-0.25634590 -0.74137990 0.14244718
0.35434922 -0.41138212 0.06907895
-0.44722984 -0.47507240 0.13664764
-0.17299109 -0.69235140 0.13947663
-0.61690210 -0.92196711 0.03668415
-0.23535294 -0.79509554 0.13291972
-0.10453237 -1.00336384 0.04057949
0.25120439 -0.24916745 0.07040420
-0.10805438 -0.45062126 0.13493160
0.43449169 -0.57901767 0.04730188
0.30588154 -0.49863868 0.18926523
-0.15834425 -0.49193323 0.13734512
0.21620033 -0.42901157 0.18501546
-0.21982098 -0.47337037 0.13772718
0.02003928 -0.71648614 0.21148449
0.29842917 -0.30820775 0.07299467
-0.05602575 -0.84592385 0.14064684
-0.40136975 -0.81446231 0.11376120
0.34143785 -0.38287877 0.06920038
-0.55603789 -0.76984260 0.08291776
0.34327077 -0.45033339 0.11291723
0.08268970 -0.28856764 0.10072686
-0.23059168 -0.61727566 0.14988756
0.19850592 -0.75149390 0.16192516
-0.44151340 -0.38183684 0.11970843
-0.32569945 -0.74828236 0.13392875
-0.50528743 -0.47866069 0.12439916
0.22244428 -0.52404659 0.24499500
-0.14964489 -0.55400714 0.14456885
-0.53141163 -0.24793789 0.07049531
-0.00319889 -0.80678087 0.17493305
-0.25313737 -0.87785179 0.10459887
-0.14308242 -0.80629214 0.12167593
-0.13302169 -0.72427413 0.12620916
-0.51652535 -0.63617484 0.12161532
-0.08978747 -1.02952314 0.05026120
0.41128782 -0.64944045 0.08212202
-0.01214352 -0.49834832 0.16923399
0.06332427 -0.53417316 0.21532691
0.05511535 -0.28156061 0.09246329
-0.38362986 -0.35649498 0.11271840
0.22621569 -0.62892846 0.25919575
0.25363785 -0.62676288 0.24486042
0.20011964 -0.22058703 0.06040335
0.38797933 -0.53981263 0.10982020
-0.51829685 -0.56448642 0.11954195
-0.00974934 -0.27993658 0.08481088
-0.43714898 -0.62588573 0.14452907
0.35251723 -0.51742142 0.15581909
0.32644502 -0.70033640 0.11739949
0.31435037 -0.48106228 0.16933685
0.28054016 -0.49369189 0.20314235
-0.17969990 -0.56742433 0.14136988
0.29567726 -0.57008104 0.21962461
-0.47984850 -0.33697463 0.10592013
-0.27476267 -0.35061725 0.11046057
-0.15776927 -0.74792366 0.13203132
0.36349174 -0.54724701 0.15818386
-0.36051254 -0.40378920 0.12704085
-0.12763787 -0.50422020 0.13650374
-0.02826448 -0.63959857 0.18963907
-0.15994271 -0.66391177 0.13712503
-0.03613343 -0.79476523 0.16785344
0.09868836 -0.64772618 0.23890137
0.05805851 -0.47558271 0.18666335
0.28906643 -0.43032847 0.15171471
-0.33799322 -0.63103178 0.15305901
-0.04528495 -0.46147260 0.15043250
0.20755282 -0.54738628 0.25976444
0.24953815 -0.27524258 0.08318951
-0.48963103 -0.65872209 0.13118307
-0.26652704 -0.79880751 0.12875335
0.12098019 -0.62654955 0.24652478
0.24075678 -0.36919963 0.13778244
-0.26222512 -0.30186530 0.09231775
0.40690057 -0.58547698 0.08821049
0.25467583 -0.49550285 0.21737383
-0.56345069 -0.92701253 0.04750064
-0.08263245 -0.50371503 0.14784362
0.14014770 -0.36630728 0.15269448
0.29986829 -0.67088730 0.16735345
0.14949340 -0.49696614 0.22585521
0.29322965 -0.63228779 0.20448774
-0.32218049 -0.80609510 0.11833053
-0.47439778 -0.39545742 0.12043674
-0.46762740 -0.58260463 0.14083162
-0.46717975 -0.78564148 0.11518952
0.26888634 -0.44733312 0.17407821
-0.50160906 -0.50982623 0.12759335
-0.41357288 -0.63776480 0.14936104
-0.05475318 -0.40270904 0.13394141
0.19454292 -0.28136467 0.09826283
0.18563106 -0.35031850 0.14116499
-0.09909550 -0.62139656 0.15122371
-0.28338755 -0.55504533 0.15430999
0.10328936 -0.72902795 0.21836533
-0.20596023 -0.42691774 0.12853934
0.20127930 -0.24140603 0.07487269
-0.42681243 -0.80155015 0.11731020
-0.11068672 -0.84503205 0.10004512
-0.09631669 -0.74995451 0.15211694
-0.10239664 -0.34780182 0.11013808
-0.35259428 -0.76605602 0.13282314
-0.35861913 -0.30904977 0.09519536
-0.57434724 -0.82412261 0.06868644
0.27453036 -0.71762388 0.14109846
-0.54104682 -0.64849205 0.10063898
-0.42967954 -0.85554766 0.09009659
-0.15791322 -0.97626705 0.05427804
0.33047403 -0.12233324 0.00692032
-0.11847459 -0.33023545 0.10203891
-0.42793158 -0.83045497 0.10864290
-0.08782605 -1.07080820 0.01124225
0.34956442 -0.13632195 0.00000000
0.12415237 -0.24882245 0.07793362
0.43432460 -0.67942718 0.05066009
0.34889887 -0.17182895 0.00000000
-0.58508591 -0.19769343 0.04747448
-0.49468963 -0.28823791 0.08819571
0.16347756 -0.44348847 0.19755273
0.26555361 -0.70564278 0.16307905
-0.53944603 -0.22199075 0.05898593
-0.06819659 -1.07398943 0.01562005
0.30172269 -0.13988590 0.01594637
0.13242254 -0.79735644 0.15939740
0.45538822 -0.67743605 0.03550311
-0.09607843 -1.04603379 0.02216788
-0.50995509 -0.24093455 0.06932709
-0.05451613 -1.04749882 0.03388600
-0.65154348 -0.99280558 0.01018000
-0.65571868 -1.00169629 0.00683553
3 317 301 316
3 325 320 324
3 309 317 353
3 239 795 248
3 665 259 269
3 795 595 248
3 867 246 398
3 250 602 259
3 250 644 602
3 568 731 859
3 542 568 723
3 371 529 267
3 393 529 264
3 279 382 287
3 885 275 589
3 257 247 477
3 235 247 238
3 477 245 787
3 683 590 231
3 198 392 505
3 517 378 897
3 685 443 379
3 191 200 537
3 221 801 402
3 192 833 716
3 402 451 539
3 443 498 192
3 666 190 189
3 166 179 573
3 276 585 362
3 263 253 262
3 642 778 285
3 585 283 362
3 286 354 598
3 871 293 283
3 271 272 359
3 886 763 349
3 291 282 512
3 227 228 241
3 682 689 403
3 242 859 788
3 261 841 656
3 193 370 593
3 167 427 678
3 571 194 370
3 195 518 621
3 830 922 312
3 422 177 807
3 189 519 909
3 210 832 380
3 449 201 199
3 222 238 545
3 213 832 406
3 872 596 806
3 801 221 662
3 221 475 536
3 286 658 268
3 288 658 286
3 268 887 286
3 288 472 280
3 785 400 472
3 163 894 428
3 184 829 176
3 728 581 648
3 233 566 223
3 399 539 214
3 234 399 224
3 341 441 186
3 575 765 186
3 429 492 295
3 601 307 346
3 310 601 346
3 835 677 303
3 871 835 345
3 330 328 331
3 331 376 330
3 676 579 878
3 343 664 319
3 769 354 642
3 409 903 245
3 884 409 245
3 718 566 233
3 233 867 244
3 398 535 254
3 217 207 541
3 252 550 799
3 687 273 768
3 296 928 830
3 922 311 721
3 215 514 216
3 621 205 386
3 804 204 194
3 196 823 621
3 886 669 274
3 262 359 272
3 253 458 262
3 287 284 279
3 512 277 284
3 827 295 889
3 217 466 206
3 226 218 227
3 839 395 101
3 470 651 586
3 114 102 434
3 839 434 102
3 548 639 750
3 865 707 101
3 78 67 673
3 694 782 19
3 764 24 850
3 883 419 632
3 24 764 640
3 11 608 8
3 737 732 671
3 641 696 333
3 480 791 747
3 781 821 626
3 849 634 858
3 57 844 49
3 70 59 69
3 60 70 670
3 845 693 12
3 418 339 629
3 557 866 888
3 487 691 616
3 424 334 516
3 482 756 555
3 828 377 52
3 77 520 651
3 161 891 159
3 350 165 879
3 868 147 133
3 902 474 157
3 157 743 404
3 157 911 902
3 891 448 143
3 587 119 637
3 468 387 39
3 706 34 27
3 26 33 706
3 923 913 153
3 132 139 148
3 139 141 162
3 913 923 154
3 103 442 118
3 433 104 103
3 116 348 118
3 743 128 404
3 847 553 117
3 709 439 737
3 97 896 709
3 622 76 81
3 76 925 74
3 606 76 74
3 162 479 148
3 352 796 757
3 427 167 180
3 900 156 736
3 660 526 124
3 772 838 430
3 150 135 501
3 708 783 457
3 509 674 160
3 163 138 149
3 901 169 158
3 13 337 655
3 337 530 426
3 626 688 29
3 528 784 99
3 494 758 870
3 67 78 523
3 717 920 68
3 813 600 717
3 171 428 705
3 659 869 65
3 546 614 58
3 369 455 125
3 6 534 418
3 837 702 559
3 5 356 916
3 915 69 82
3 770 873 546
3 513 864 473
3 51 543 824
3 921 794 41
3 762 51 824
3 510 25 643
3 127 124 526
3 112 865 100
3 99 724 528
3 413 107 421
3 521 525 128
3 111 126 631
3 565 636 461
3 146 366 711
3 817 130 358
3 496 540 110
3 699 570 108
3 442 106 120
3 44 533 351
3 874 43 647
3 33 924 387
3 831 120 570
3 588 757 129
3 758 44 870
3 515 597 37
3 445 316 320
3 316 445 321
3 320 721 324
3 309 313 364
3 438 300 313
3 595 795 393
3 595 246 650
3 731 240 241
3 260 568 542
3 895 394 216
3 267 269 277
3 529 274 264
3 393 264 256
3 284 803 279
3 635 397 260
3 542 261 825
3 407 904 478
3 683 856 209
3 517 897 208
3 733 682 208
3 584 403 218
3 403 517 208
3 379 192 716
3 596 202 806
3 212 203 801
3 857 193 780
3 451 524 204
3 179 347 666
3 612 454 263
3 612 778 278
3 276 362 285
3 293 362 283
3 290 502 349
3 502 271 848
3 721 311 918
3 729 682 219
3 242 788 722
3 261 723 841
3 657 780 833
3 780 716 833
3 498 181 192
3 857 834 571
3 171 491 674
3 862 705 182
3 830 301 296
3 289 919 464
3 532 300 292
3 292 450 885
3 382 450 287
3 444 187 453
3 392 444 767
3 186 187 575
3 422 623 178
3 200 380 594
3 408 411 599
3 275 855 589
3 238 222 235
3 406 211 545
3 232 872 662
3 232 662 229
3 899 912 818
3 908 912 658
3 278 266 612
3 288 280 658
3 196 697 365
3 173 561 661
3 176 829 344
3 536 230 405
3 475 539 223
3 185 175 527
3 814 777 378
3 846 492 304
3 677 835 290
3 293 345 299
3 330 326 328
3 326 456 327
3 327 610 326
3 314 905 664
3 805 727 579
3 785 672 314
3 820 754 306
3 538 299 302
3 538 306 769
3 243 704 405
3 255 405 704
3 903 826 405
3 221 826 229
3 244 718 233
3 233 234 867
3 398 256 535
3 216 773 466
3 773 728 206
3 273 687 550
3 618 281 273
3 928 281 463
3 215 823 514
3 256 460 535
3 264 669 460
3 890 359 458
3 371 512 282
3 284 287 827
3 240 226 227
3 218 226 541
3 91 101 395
3 651 395 586
3 127 750 663
3 381 734 80
3 883 632 31
3 336 507 31
3 692 24 640
3 921 486 794
3 452 786 340
3 614 740 508
3 51 340 500
3 481 633 14
3 747 633 480
3 700 781 14
3 693 845 624
3 59 844 57
3 59 57 69
3 60 494 898
3 559 876 485
3 9 629 810
3 811 851 338
3 338 557 888
3 372 813 717
3 695 38 424
3 725 625 558
3 725 854 38
3 583 649 80
3 520 79 651
3 161 174 679
3 350 809 175
3 147 879 574
3 404 155 157
3 911 790 170
3 143 448 605
3 145 360 793
3 448 793 121
3 387 468 33
3 462 40 39
3 706 27 21
3 836 144 479
3 148 374 132
3 148 144 374
3 103 118 348
3 357 433 88
3 504 357 92
3 553 140 404
3 553 525 117
3 97 85 513
3 622 94 459
3 531 92 88
3 606 62 64
3 352 141 796
3 900 503 156
3 503 142 437
3 552 711 158
3 900 736 168
3 124 838 660
3 726 861 783
3 499 739 136
3 674 509 151
3 491 160 674
3 23 426 530
3 560 32 792
3 414 646 560
3 87 673 75
3 822 467 84
3 755 75 86
3 60 670 892
3 54 653 893
3 670 71 396
3 813 372 564
3 173 894 164
3 436 344 164
3 770 713 61
3 61 65 77
3 455 369 139
3 796 522 129
3 129 116 588
3 1 534 385
3 6 356 5
3 8 356 837
3 534 1 2
3 95 822 83
3 93 915 82
3 83 93 95
3 667 690 473
3 921 388 607
3 16 510 355
3 510 476 25
3 389 490 707
3 99 109 368
3 121 109 637
3 107 105 117
3 840 412 105
3 513 473 375
3 775 461 636
3 746 699 108
3 94 504 92
3 563 54 893
3 698 647 43
3 118 547 116
3 358 131 741
3 497 758 384
3 37 597 351
3 720 425 36
3 580 641 333
3 10 749 696
3 306 538 759
3 701 756 482
3 22 811 516
3 488 686 336
3 420 551 771
3 623 493 178
3 557 851 29
3 423 7 641
3 41 748 452
3 32 560 789
3 487 42 691
3 765 575 198
3 846 304 342
3 343 314 664
3 344 829 183
3 176 436 165
3 299 712 302
3 346 307 315
3 347 179 427
3 180 191 347
3 348 116 115
3 657 833 168
3 669 886 502
3 165 350 860
3 870 44 351
3 141 352 152
3 353 317 321
3 642 354 286
3 754 672 598
3 355 471 16
3 188 453 170
3 5 926 3
3 357 88 92
3 322 328 326
3 130 817 437
3 358 120 131
3 190 201 519
3 508 713 58
3 601 298 307
3 254 890 458
3 576 360 123
3 617 868 145
3 699 746 361
3 361 122 699
3 283 585 272
3 435 293 299
3 363 324 610
3 697 196 518
3 853 697 183
3 138 739 603
3 454 704 263
3 585 262 272
3 367 496 96
3 522 796 125
3 369 141 139
3 806 751 593
3 371 282 274
3 371 267 277
3 137 548 446
3 600 432 628
3 673 880 75
3 144 929 374
3 737 85 709
3 376 331 332
3 440 377 53
3 443 685 380
3 716 751 379
3 200 594 199
3 312 320 316
3 494 808 50
3 734 381 78
3 758 494 892
3 1 385 0
3 385 5 3
3 607 388 762
3 388 452 51
3 922 294 390
3 76 622 459
3 586 391 470
3 224 394 798
3 79 91 395
3 467 776 84
3 251 397 259
3 398 254 244
3 589 297 532
3 289 855 768
3 234 223 399
3 399 591 224
3 305 400 785
3 239 225 401
3 800 159 474
3 801 662 212
3 524 203 194
3 618 463 281
3 474 743 157
3 404 140 155
3 731 602 240
3 241 240 227
3 506 872 220
3 885 825 275
3 544 61 77
3 232 229 409
3 525 521 119
3 34 36 27
3 720 34 468
3 288 286 598
3 462 48 40
3 462 49 48
3 788 410 722
3 729 219 410
3 477 247 235
3 467 822 413
3 802 797 17
3 738 849 554
3 46 654 47
3 692 11 766
3 15 417 485
3 24 730 28
3 339 645 4
3 534 6 5
3 881 28 730
3 452 748 786
3 774 420 771
3 421 467 413
3 876 12 693
3 40 668 720
3 808 425 668
3 23 530 355
3 426 802 556
3 198 505 733
3 427 609 678
3 180 347 427
3 494 870 808
3 894 163 149
3 175 860 350
3 429 295 310
3 772 123 360
3 707 430 389
3 32 431 43
3 497 698 44
3 742 42 432
3 349 763 677
3 492 846 291
3 81 896 96
3 433 357 104
3 434 839 490
3 299 538 435
3 884 232 409
3 436 150 501
3 547 437 588
3 871 272 271
3 438 313 318
3 707 112 430
3 258 267 529
3 803 277 269
3 439 709 489
3 732 439 500
3 638 186 765
3 172 187 441
3 509 160 681
3 793 891 145
3 679 174 341
3 194 571 804
3 106 104 357
3 120 511 442
3 138 163 151
3 151 163 428
3 735 657 158
3 741 146 578
3 689 218 403
3 445 320 325
3 145 161 617
3 815 110 540
3 546 671 614
3 644 401 226
3 446 127 526
3 137 150 164
3 384 892 63
3 721 918 324
3 637 448 121
3 298 450 611
3 885 450 382
3 451 204 386
3 214 539 451
3 51 452 340
3 581 728 197
3 219 856 410
3 453 187 172
3 800 902 172
3 562 734 100
3 785 288 598
3 455 139 132
3 456 326 330
3 457 861 603
3 652 458 253
3 458 359 262
3 685 379 202
3 925 76 459
3 459 94 92
3 502 848 669
3 461 361 565
3 297 289 364
3 117 105 412
3 465 765 198
3 198 733 465
3 704 243 253
3 466 217 620
3 822 840 413
3 396 776 73
3 40 468 39
3 486 906 335
3 84 396 71
3 189 909 178
3 666 573 179
3 710 841 249
3 470 391 90
3 470 77 651
3 355 530 471
3 408 825 261
3 473 113 375
3 315 307 611
3 605 743 143
3 62 543 64
3 566 536 475
3 475 402 539
3 715 383 577
3 211 506 222
3 549 478 590
3 563 893 55
3 63 73 653
3 129 522 115
3 724 99 368
3 368 123 724
3 469 703 749
3 747 14 633
3 12 580 481
3 845 745 415
3 45 627 843
3 319 483 676
3 646 797 802
3 484 639 708
3 766 559 485
3 481 845 12
3 866 42 888
3 486 335 28
3 874 628 487
3 372 567 564
3 877 630 567
3 905 672 604
3 754 354 306
3 692 766 417
3 606 489 81
3 489 709 896
3 490 389 663
3 7 423 4
3 492 429 304
3 661 894 173
3 50 898 494
3 495 819 23
3 829 581 853
3 496 746 572
3 746 110 361
3 871 345 293
3 799 710 904
3 698 431 533
3 708 113 484
3 126 111 613
3 650 248 595
3 191 443 200
3 719 181 498
3 499 126 603
3 136 636 499
3 732 340 56
3 135 574 501
3 501 165 436
3 777 814 760
3 503 167 678
3 437 156 503
3 219 733 505
3 596 210 685
3 507 19 782
3 507 336 686
3 654 843 555
3 614 508 58
3 880 86 75
3 681 160 901
3 136 739 509
3 16 18 510
3 510 643 355
3 638 765 897
3 828 869 558
3 112 724 123
3 511 118 442
3 282 291 763
3 512 371 277
3 72 864 85
3 667 864 873
3 215 216 394
3 515 36 425
3 757 796 129
3 863 134 366
3 316 321 317
3 236 798 394
3 224 798 234
3 424 811 852
3 334 424 38
3 638 527 341
3 176 860 184
3 584 814 517
3 322 326 610
3 519 189 190
3 684 65 52
3 79 520 882
3 521 605 448
3 226 240 644
3 523 600 67
3 381 523 78
3 203 524 801
3 117 525 107
3 276 285 778
3 314 305 785
3 79 583 91
3 87 619 784
3 679 809 161
3 100 528 724
3 916 356 8
3 529 371 274
3 670 396 63
3 530 13 471
3 531 459 92
3 532 292 589
3 532 313 300
3 35 533 431
3 533 44 698
3 255 787 903
3 615 209 767
3 505 392 767
3 534 2 418
3 534 5 385
3 890 460 848
3 256 398 246
3 142 609 352
3 537 347 191
3 399 214 591
3 367 753 540
3 887 268 278
3 298 287 450
3 687 599 411
3 164 150 436
3 541 620 217
3 541 584 218
3 453 911 170
3 270 260 542
3 479 162 623
3 51 762 388
3 64 439 489
3 470 544 77
3 468 34 33
3 34 720 36
3 594 449 199
3 58 713 770
3 269 259 397
3 83 84 71
3 617 350 147
3 511 547 118
3 127 446 548
3 875 683 209
3 550 265 273
3 676 878 308
3 552 146 711
3 552 657 168
3 885 382 270
3 300 438 315
3 627 883 482
3 309 353 318
3 228 689 729
3 620 895 466
3 140 553 847
3 781 745 14
3 738 626 29
3 842 654 46
3 627 45 748
3 556 791 703
3 556 337 426
3 694 334 782
3 866 688 30
3 8 837 11
3 802 819 646
3 560 30 414
3 697 853 365
3 562 80 734
3 100 865 562
3 563 55 628
3 773 514 365
3 888 742 564
3 53 779 567
3 567 372 53
3 251 731 568
3 568 260 251
3 423 339 4
3 681 136 509
3 366 775 681
3 291 889 492
3 106 504 570
3 122 831 699
3 370 857 571
3 834 491 714
3 572 96 496
3 108 94 572
3 391 102 690
3 488 336 730
3 166 493 152
3 272 871 283
3 135 660 574
3 187 186 441
3 575 392 198
3 123 368 576
3 577 383 18
3 817 156 437
3 741 863 146
3 641 580 423
3 580 744 423
3 228 227 689
3 204 524 194
3 204 804 195
3 581 184 648
3 789 582 32
3 35 431 582
3 250 258 795
3 892 494 60
3 583 79 882
3 583 80 91
3 87 89 673
3 584 207 814
3 403 208 682
3 585 263 262
3 395 839 586
3 750 434 663
3 713 508 46
3 800 441 174
3 637 119 521
3 119 421 107
3 249 237 904
3 722 237 249
3 437 547 130
3 292 885 589
3 419 748 41
3 912 899 268
3 590 683 549
3 684 52 377
3 205 591 214
3 152 162 141
3 696 641 592
3 212 806 593
3 464 317 309
3 826 221 536
3 594 213 449
3 248 236 225
3 798 236 650
3 210 596 506
3 872 806 212
3 243 718 652
3 597 515 425
3 537 200 199
3 599 275 408
3 600 523 717
3 307 298 611
3 601 310 295
3 516 634 22
3 442 103 104
3 602 251 259
3 603 126 457
3 754 604 672
3 733 219 682
3 606 81 76
3 678 609 142
3 609 166 152
3 340 732 500
3 610 918 447
3 610 447 322
3 362 435 285
3 894 149 164
3 619 87 98
3 726 149 138
3 308 343 676
3 753 111 540
3 671 546 72
3 505 767 209
3 373 893 66
3 122 134 863
3 222 884 235
3 767 444 675
3 617 161 809
3 772 868 133
3 618 273 265
3 169 735 158
3 77 65 520
3 98 755 421
3 344 436 176
3 364 532 297
3 500 543 51
3 401 541 226
3 189 178 573
3 178 909 422
3 214 386 205
3 518 195 862
3 96 572 622
3 623 807 479
3 493 623 162
3 15 624 569
3 877 567 779
3 797 821 700
3 626 738 554
3 55 600 628
3 432 487 628
3 629 6 418
3 810 339 423
3 877 852 630
3 564 630 888
3 631 565 815
3 631 126 499
3 486 881 794
3 336 632 730
3 480 333 696
3 516 694 634
3 635 270 382
3 631 636 565
3 637 109 587
3 637 521 448
3 897 378 638
3 114 750 639
3 850 28 335
3 640 764 608
3 24 692 488
3 641 7 592
3 580 333 481
3 495 23 643
3 644 239 401
3 644 240 602
3 645 418 2
3 831 122 863
3 464 296 301
3 414 797 646
3 365 853 197
3 43 874 616
3 497 54 647
3 648 184 812
3 760 648 777
3 792 691 30
3 649 583 882
3 53 68 440
3 613 375 113
3 650 236 248
3 417 15 686
3 609 152 352
3 651 79 395
3 59 898 844
3 652 244 254
3 653 384 63
3 416 555 756
3 416 47 654
3 903 409 826
3 367 97 753
3 776 755 86
3 691 866 30
3 518 862 182
3 178 493 573
3 656 408 261
3 657 552 158
3 657 735 780
3 528 734 89
3 912 908 257
3 659 47 869
3 659 61 713
3 574 660 133
3 660 135 526
3 552 578 146
3 561 173 183
3 661 182 705
3 89 87 784
3 78 89 734
3 824 543 62
3 662 221 229
3 663 434 490
3 124 127 663
3 314 343 305
3 665 269 267
3 665 258 250
3 855 275 599
3 666 347 537
3 667 473 864
3 873 90 667
3 761 715 577
3 228 788 241
3 61 544 770
3 808 597 425
3 829 184 581
3 94 108 504
3 496 367 540
3 643 25 752
3 669 264 274
3 392 575 444
3 704 454 255
3 727 771 323
3 774 771 727
3 222 506 220
3 591 205 823
3 70 60 59
3 464 301 317
3 97 513 753
3 808 870 597
3 598 672 785
3 251 260 397
3 107 525 119
3 145 891 161
3 160 491 169
3 674 428 171
3 188 444 453
3 149 726 137
3 230 243 405
3 676 483 579
3 290 271 502
3 435 362 293
3 450 292 611
3 677 342 303
3 533 35 816
3 609 427 166
3 151 428 674
3 443 191 498
3 174 161 159
3 341 527 679
3 680 95 93
3 206 466 773
3 206 207 217
3 334 854 782
3 195 386 204
3 715 515 476
3 37 25 476
3 576 121 793
3 517 403 584
3 588 116 547
3 856 219 505
3 65 684 520
3 684 440 882
3 591 215 224
3 902 800 474
3 73 776 86
3 685 210 380
3 482 555 843
3 843 842 45
3 740 614 56
3 851 811 22
3 569 686 15
3 411 550 687
3 687 768 599
3 415 858 624
3 624 858 569
3 30 688 414
3 70 915 71
3 689 227 218
3 689 682 729
3 377 828 779
3 113 690 484
3 690 114 484
3 744 810 423
3 792 30 560
3 692 640 11
3 692 417 488
3 12 876 744
3 693 624 15
3 694 19 634
3 819 426 23
3 301 312 316
3 397 803 269
3 695 877 625
3 695 424 852
3 795 239 250
3 696 592 10
3 333 480 633
3 148 479 144
3 196 365 514
3 698 497 647
3 122 361 461
3 290 349 677
3 370 203 593
3 444 575 187
3 816 25 37
3 97 709 85
3 554 781 626
3 700 747 17
3 431 32 582
3 32 43 616
3 482 883 701
3 702 6 629
3 9 559 702
3 703 469 655
3 337 556 703
3 704 253 263
3 232 884 220
3 28 850 24
3 360 576 793
3 351 816 37
3 476 515 37
3 98 87 75
3 98 587 619
3 705 428 661
3 705 714 171
3 256 264 460
3 190 199 201
3 917 26 706
3 707 490 101
3 650 246 798
3 47 659 46
3 613 457 126
3 639 484 114
3 710 411 656
3 446 150 137
3 90 770 544
3 289 464 364
3 919 281 296
3 712 299 345
3 713 46 659
3 55 67 600
3 690 667 391
3 804 571 714
3 714 491 171
3 739 138 151
3 715 36 515
3 383 715 476
3 585 276 263
3 716 193 751
3 833 192 181
3 717 523 920
3 230 718 243
3 718 244 652
3 180 498 191
3 900 167 503
3 425 720 668
3 720 468 40
3 722 410 231
3 242 249 841
3 591 823 215
3 389 430 838
3 723 242 841
3 723 261 542
3 541 207 584
3 452 388 41
3 725 38 625
3 416 725 558
3 783 548 726
3 106 442 104
3 570 120 106
3 727 323 579
3 774 727 805
3 325 324 363
3 487 432 42
3 773 197 728
3 728 648 760
3 355 643 23
3 648 812 777
3 860 175 812
3 539 399 223
3 729 410 228
3 105 107 413
3 241 859 731
3 731 251 602
3 111 815 540
3 121 368 109
3 366 134 775
3 566 475 223
3 260 270 635
3 732 56 671
3 732 737 439
3 511 130 547
3 128 605 521
3 587 98 421
3 54 497 384
3 733 208 465
3 73 63 396
3 668 48 50
3 736 156 578
3 736 552 168
3 737 72 85
3 590 237 231
3 263 276 612
3 501 879 165
3 625 828 558
3 337 13 530
3 655 337 703
3 766 837 559
3 811 424 516
3 849 22 634
3 738 851 22
3 739 499 603
3 739 151 509
3 173 164 344
3 786 740 56
3 740 45 842
3 610 327 363
3 578 817 741
3 891 793 448
3 493 166 573
3 888 42 742
3 742 432 813
3 743 474 143
3 605 128 743
3 380 200 443
3 744 9 810
3 744 580 12
3 481 745 845
3 415 554 849
3 746 108 572
3 746 496 110
3 791 17 747
3 747 700 14
3 457 613 708
3 15 485 693
3 31 507 782
3 154 144 836
3 748 45 786
3 185 812 175
3 383 510 18
3 611 300 315
3 561 183 697
3 267 258 665
3 10 469 749
3 749 480 696
3 750 114 434
3 750 127 548
3 819 789 646
3 751 193 593
3 751 202 379
3 120 831 131
3 773 365 197
3 752 816 35
3 753 513 375
3 753 375 111
3 604 754 820
3 754 598 354
3 686 488 417
3 440 684 377
3 755 98 75
3 467 421 755
3 555 416 654
3 757 588 142
3 757 142 352
3 758 497 44
3 565 361 110
3 759 538 302
3 760 207 206
3 760 206 728
3 27 761 21
3 763 846 677
3 763 886 282
3 518 561 697
3 373 55 893
3 180 167 719
3 73 86 66
3 893 653 66
3 129 115 116
3 619 587 109
3 765 465 897
3 101 91 562
3 548 137 726
3 675 615 767
3 203 370 194
3 273 919 768
3 855 289 297
3 285 435 769
3 391 667 90
3 90 873 770
3 770 546 58
3 460 890 535
3 772 360 868
3 772 430 123
3 266 255 454
3 305 308 400
3 386 195 621
3 249 904 710
3 688 557 29
3 394 224 215
3 430 112 123
3 136 775 636
3 775 134 461
3 776 467 755
3 188 675 444
3 78 673 89
3 652 254 458
3 856 231 410
3 427 179 166
3 896 97 367
3 777 812 185
3 769 642 285
3 901 160 169
3 246 595 256
3 402 475 221
3 524 451 402
3 411 408 656
3 858 634 19
3 415 849 858
3 778 612 276
3 642 887 778
3 779 625 877
3 38 695 625
3 735 857 780
3 780 193 716
3 190 666 537
3 386 214 451
3 336 31 632
3 781 554 745
3 781 700 821
3 481 333 633
3 19 507 569
3 366 681 711
3 783 708 639
3 861 726 138
3 99 619 109
3 784 528 89
3 291 512 889
3 559 9 876
3 628 874 563
3 81 96 622
3 786 56 340
3 508 842 46
3 787 255 266
3 787 266 818
3 859 242 723
3 788 228 410
3 239 248 225
3 789 495 582
3 789 560 646
3 11 640 608
3 882 520 684
3 683 875 549
3 278 899 266
3 120 358 511
3 298 601 827
3 67 55 373
3 574 133 147
3 345 835 907
3 790 157 155
3 435 538 769
3 461 134 122
3 756 854 725
3 416 756 725
3 173 344 183
3 271 290 871
3 791 480 749
3 791 556 17
3 792 32 616
3 792 616 691
3 748 419 627
3 121 576 368
3 419 881 632
3 41 794 419
3 525 553 128
3 514 773 216
3 142 503 678
3 504 106 357
3 108 570 504
3 71 670 70
3 653 54 384
3 795 258 393
3 796 369 125
3 797 414 821
3 292 300 611
3 889 284 827
3 464 309 364
3 411 710 799
3 799 407 252
3 35 582 752
3 752 495 643
3 383 476 510
3 101 562 865
3 579 323 878
3 379 443 192
3 800 172 441
3 159 800 174
3 745 481 14
3 203 212 593
3 801 524 402
3 635 279 803
3 803 284 277
3 645 339 418
3 714 862 804
3 61 659 65
3 257 477 818
3 186 638 341
3 805 579 483
3 412 840 680
3 113 473 690
3 806 202 751
3 212 662 872
3 775 136 681
3 223 234 233
3 518 196 621
3 544 470 90
3 715 27 36
3 485 417 766
3 477 235 245
3 211 406 832
3 222 545 211
3 807 177 836
3 661 561 182
3 373 880 67
3 808 668 50
3 809 350 617
3 809 527 175
3 313 309 318
3 339 810 629
3 629 9 702
3 135 446 526
3 761 27 715
3 259 665 250
3 811 338 852
3 881 730 632
3 169 491 834
3 185 378 777
3 68 649 440
3 649 381 80
3 721 320 312
3 881 419 794
3 813 564 742
3 498 180 719
3 516 334 694
3 814 207 760
3 814 378 517
3 474 159 143
3 815 111 631
3 815 565 110
3 149 137 164
3 816 351 533
3 816 752 25
3 817 358 741
3 119 587 421
3 844 50 48
3 33 34 706
3 818 477 787
3 135 150 446
3 649 920 381
3 167 900 719
3 819 802 426
3 819 495 789
3 820 306 759
3 72 873 864
3 513 85 864
3 56 614 671
3 797 700 17
3 688 821 414
3 822 84 83
3 822 95 840
3 391 586 102
3 823 196 514
3 823 205 621
3 454 612 266
3 825 408 275
3 825 270 542
3 536 405 826
3 826 409 229
3 827 287 298
3 827 601 295
3 828 52 869
3 828 625 779
3 928 922 830
3 311 922 390
3 831 863 131
3 831 570 699
3 832 210 211
3 832 594 380
3 595 393 256
3 181 900 168
3 834 735 169
3 834 714 571
3 17 556 802
3 686 569 507
3 915 93 83
3 236 895 225
3 236 394 895
3 345 907 712
3 835 871 290
3 341 174 441
3 836 479 807
3 927 154 836
3 86 880 66
3 506 211 210
3 837 356 702
3 837 766 11
3 573 666 189
3 627 419 883
3 838 124 389
3 838 133 660
3 839 101 490
3 839 102 586
3 840 105 413
3 840 95 680
3 279 635 382
3 249 242 722
3 841 710 656
3 842 508 740
3 45 740 786
3 843 627 482
3 529 393 258
3 919 273 281
3 679 527 809
3 843 654 842
3 736 578 552
3 43 431 698
3 845 415 624
3 708 613 113
3 528 100 734
3 846 763 291
3 846 342 677
3 411 799 550
3 847 117 412
3 536 566 230
3 848 460 669
3 401 225 620
3 54 563 647
3 619 99 784
3 142 588 437
3 343 308 305
3 319 676 343
3 582 495 752
3 253 243 652
3 769 306 354
3 849 738 22
3 554 415 745
3 246 867 798
3 851 557 338
3 851 738 29
3 47 416 558
3 378 185 638
3 338 888 630
3 852 877 695
3 638 185 527
3 853 183 829
3 853 581 197
3 854 334 38
3 855 599 768
3 855 297 589
3 856 505 209
3 856 683 231
3 857 735 834
3 857 370 193
3 250 239 644
3 130 511 358
3 148 139 162
3 162 152 493
3 858 19 569
3 102 114 690
3 859 723 568
3 859 241 788
3 860 176 165
3 860 812 184
3 564 567 630
3 861 138 603
3 861 457 783
3 702 356 6
3 862 195 804
3 862 714 705
3 863 366 146
3 863 741 131
3 199 190 537
3 821 688 626
3 543 500 64
3 600 813 432
3 24 488 730
3 182 561 518
3 548 783 639
3 112 100 724
3 865 112 707
3 671 72 737
3 866 557 688
3 866 691 42
3 48 49 844
3 867 234 798
3 867 398 244
3 66 653 73
3 868 617 147
3 868 360 145
3 869 47 558
3 65 869 52
3 870 351 597
3 202 596 685
3 749 703 791
3 622 572 94
3 872 232 220
3 872 506 596
3 873 72 546
3 124 663 389
3 874 647 563
3 874 487 616
3 875 209 615
3 271 359 848
3 876 9 744
3 876 693 485
3 377 779 53
3 396 84 776
3 879 147 350
3 879 501 574
3 397 635 803
3 880 673 67
3 880 373 66
3 881 486 28
3 882 440 649
3 562 91 80
3 883 31 701
3 884 245 235
3 884 222 220
3 885 270 825
3 623 422 807
3 237 722 231
3 886 274 282
3 886 349 502
3 887 642 286
3 887 278 778
3 128 553 404
3 338 630 852
3 889 295 492
3 889 512 284
3 313 532 364
3 890 254 535
3 890 848 359
3 550 252 265
3 375 613 111
3 891 143 159
3 133 838 772
3 718 230 566
3 892 670 63
3 892 384 758
3 894 661 428
3 895 216 466
3 895 620 225
3 156 817 578
3 896 81 489
3 896 367 96
3 897 465 208
3 541 401 620
3 50 844 898
3 898 59 60
3 301 830 312
3 899 818 266
3 899 278 268
3 26 914 910
3 668 40 48
3 636 631 499
3 181 168 833
3 900 181 719
3 832 213 594
3 901 158 711
3 681 901 711
3 911 172 902
3 903 787 245
3 903 405 255
3 237 478 904
3 904 407 799
3 141 369 796
3 439 64 500
3 489 606 64
3 905 314 672
3 906 921 607
3 907 835 303
3 908 658 280
3 0 385 3
3 924 26 910
3 911 157 790
3 911 453 172
3 912 257 818
3 912 268 658
3 154 927 913
3 917 914 26
3 68 53 372
3 717 68 372
3 606 74 62
3 915 83 71
3 915 70 69
3 701 854 756
3 288 785 472
3 917 706 21
3 918 610 324
3 918 311 447
3 919 289 768
3 919 296 464
3 920 523 381
3 920 649 68
3 921 41 388
3 921 906 486
3 922 721 312
3 929 154 923
3 924 33 26
3 910 914 20
3 925 459 531
3 926 5 916
3 701 782 854
3 927 836 177
3 294 928 463
3 590 478 237
3 782 701 31
3 928 296 281
3 928 294 922
3 929 144 154
3 930 931 551
3 930 551 420
3 931 930 329
