# 4part FEM knit+cable best fit (4part_d4r)
# interior RMSE  : 6.782 mm
# max deviation  : 23.455 mm
# crown          : 0.31808 m (target 0.32177 m)
# max disp/rest  : 23.455 mm (floor 5.0 mm)
# regions        : 24 (6 D4 slots), 13 parameters
v 0.000616 0.600859 0.000000
v -0.423648 0.425123 0.000000
v -0.189508 0.188543 0.181811
v -0.000104 0.000410 0.208284
v -0.000153 0.293456 0.317904
v -0.111519 0.589084 0.000000
v -0.154511 0.578763 0.000000
v -0.288752 0.525061 0.000000
v -0.218983 0.406256 0.198291
v -0.051844 0.596730 0.000000
v -0.057548 0.465427 0.241586
v -0.312221 0.312251 0.111431
v -0.237731 0.549565 0.000000
v 0.000274 0.436424 0.270370
v -0.099351 0.098761 0.203783
v -0.274084 0.422893 0.142648
v 0.001249 0.203103 0.313365
v -0.143535 0.509801 0.159571
v -0.046368 0.519318 0.186586
v -0.329212 0.500267 0.000000
v -0.111207 0.248154 0.286496
v -0.093942 0.501604 0.197436
v -0.279764 0.480459 0.092889
v -0.086570 0.346849 0.292581
v -0.272357 0.271642 0.140489
v 0.000114 0.055588 0.228789
v -0.327525 0.405177 0.098618
v -0.082164 0.555167 0.114415
v -0.000011 0.487775 0.227348
v -0.175847 0.433248 0.214710
v -0.136009 0.277777 0.283032
v -0.000002 0.386315 0.296628
v -0.251063 0.378317 0.180770
v -0.034534 0.570420 0.094677
v -0.373627 0.426740 0.048556
v -0.387411 0.389983 0.040012
v -0.133422 0.317689 0.278535
v -0.000088 0.248519 0.317076
v -0.156495 0.155726 0.192320
v -0.258149 0.333060 0.178568
v -0.128260 0.547528 0.106602
v -0.330267 0.456615 0.069269
v -0.044050 0.365989 0.300463
v -0.049326 0.180030 0.290122
v -0.001261 0.554091 0.138077
v -0.082331 0.213169 0.289952
v -0.213616 0.353762 0.216966
v -0.350352 0.351609 0.077963
v -0.225675 0.453815 0.163563
v -0.228962 0.228042 0.165282
v -0.180325 0.481701 0.170596
v -0.120555 0.452945 0.235193
v -0.091820 0.295996 0.298411
v -0.130933 0.203484 0.259497
v -0.226278 0.298285 0.204732
v -0.096680 0.162047 0.259186
v 0.001242 0.157022 0.288530
v -0.177598 0.385558 0.236591
v -0.055598 0.264104 0.309532
v -0.232160 0.505360 0.102410
v -0.127988 0.127382 0.198952
v -0.292004 0.370639 0.142298
v -0.163981 0.236998 0.248323
v -0.086506 0.404838 0.272409
v -0.050437 0.136251 0.272661
v -0.138663 0.412485 0.248386
v -0.039825 0.222267 0.306529
v -0.174420 0.332999 0.253497
v -0.000288 0.337259 0.311597
v -0.035843 0.035816 0.208168
v -0.048644 0.316782 0.310011
v -0.040120 0.412643 0.279978
v -0.126609 0.364803 0.277302
v -0.381698 0.460952 0.000000
v 0.000240 0.112725 0.272580
v -0.042945 0.090367 0.244982
v -0.069517 0.069062 0.206574
v -0.194710 0.567385 0.000000
v -0.186563 0.279663 0.239176
v -0.181297 0.532909 0.097721
v -0.599383 0.000859 0.000000
v -0.293204 -0.000724 0.315460
v -0.587609 0.112995 0.000000
v -0.577288 0.155985 0.000000
v -0.523586 0.290227 0.000000
v -0.405677 0.217218 0.196068
v -0.595255 0.053319 0.000000
v -0.459272 0.056278 0.244205
v -0.548091 0.239205 0.000000
v -0.440214 -0.002031 0.264222
v -0.421334 0.273505 0.141933
v -0.200924 -0.000383 0.302486
v -0.502897 0.141342 0.170346
v -0.522818 0.045979 0.177285
v -0.498792 0.330686 0.000000
v -0.246012 0.112565 0.279353
v -0.508376 0.095084 0.182587
v -0.479039 0.283362 0.089934
v -0.346877 0.083898 0.291761
v -0.055307 0.000464 0.228279
v -0.402332 0.326984 0.096549
v -0.554918 0.081504 0.117947
v -0.491131 -0.001755 0.219635
v -0.434763 0.175961 0.208523
v -0.276942 0.137099 0.303106
v -0.385600 -0.001364 0.294331
v -0.377765 0.249130 0.178045
v -0.570325 0.033281 0.093217
v -0.421153 0.371242 0.044856
v -0.323897 0.140544 0.274375
v -0.246410 -0.001428 0.312490
v -0.332780 0.258300 0.173095
v -0.547642 0.129016 0.111808
v -0.447428 0.323707 0.078358
v -0.365959 0.043283 0.297506
v -0.179759 0.048885 0.288384
v -0.552280 -0.001461 0.137687
v -0.212990 0.081462 0.287884
v -0.354505 0.211814 0.214171
v -0.453710 0.227569 0.162073
v -0.479981 0.180492 0.172862
v -0.461354 0.123250 0.218391
v -0.296224 0.091995 0.296311
v -0.202607 0.132260 0.253539
v -0.301445 0.218384 0.208806
v -0.162345 0.096064 0.258422
v -0.158486 -0.000273 0.284627
v -0.385816 0.175523 0.232647
v -0.263962 0.054708 0.307617
v -0.503938 0.234587 0.107214
v -0.370341 0.290653 0.140200
v -0.237545 0.164562 0.241392
v -0.405040 0.085247 0.271541
v -0.134713 0.051786 0.264678
v -0.410092 0.133393 0.248138
v -0.221421 0.039695 0.314821
v -0.335195 0.173681 0.247027
v -0.336996 -0.001349 0.309653
v -0.315203 0.044193 0.309130
v -0.409586 0.038197 0.281286
v -0.368466 0.126727 0.270025
v -0.459477 0.383172 0.000000
v -0.111530 0.000047 0.259913
v -0.090205 0.042848 0.239186
v -0.565910 0.196184 0.000000
v -0.284372 0.175174 0.248068
v -0.532944 0.182916 0.105099
v 0.424880 0.425123 0.000000
v 0.188098 0.189330 0.181901
v 0.112752 0.589084 0.000000
v 0.155743 0.578763 0.000000
v 0.289984 0.525061 0.000000
v 0.218739 0.408262 0.197966
v 0.053076 0.596730 0.000000
v 0.058241 0.461149 0.244739
v 0.311348 0.311917 0.111669
v 0.238963 0.549565 0.000000
v 0.098574 0.098905 0.203955
v 0.278305 0.425199 0.137200
v 0.141971 0.505055 0.170498
v 0.046286 0.519123 0.187323
v 0.330445 0.500267 0.000000
v 0.110770 0.249813 0.285878
v 0.095264 0.506834 0.190118
v 0.279185 0.475838 0.104282
v 0.084411 0.346716 0.294568
v 0.270616 0.271721 0.140531
v 0.327720 0.402978 0.098096
v 0.081168 0.555184 0.124932
v 0.174716 0.434127 0.214297
v 0.140680 0.276500 0.270794
v 0.250416 0.379505 0.180170
v 0.032997 0.571704 0.096550
v 0.371006 0.421984 0.044950
v 0.389536 0.388094 0.040154
v 0.131273 0.318241 0.278070
v 0.155427 0.156448 0.192539
v 0.255077 0.334443 0.180340
v 0.130421 0.554850 0.100252
v 0.321243 0.446556 0.087405
v 0.043814 0.365775 0.300923
v 0.051223 0.177969 0.293143
v 0.079199 0.216188 0.308389
v 0.224439 0.357181 0.208069
v 0.351053 0.350378 0.078460
v 0.227708 0.455824 0.162294
v 0.227178 0.228557 0.165068
v 0.180951 0.482335 0.173334
v 0.123413 0.461482 0.221930
v 0.091222 0.297099 0.298542
v 0.132526 0.203307 0.255567
v 0.219397 0.301702 0.210188
v 0.103755 0.155840 0.251541
v 0.179624 0.386958 0.234064
v 0.055828 0.265779 0.312211
v 0.234742 0.506691 0.108005
v 0.127139 0.127725 0.199113
v 0.290151 0.371410 0.140946
v 0.165051 0.237138 0.242441
v 0.086496 0.405513 0.272981
v 0.053460 0.133006 0.267203
v 0.134090 0.410365 0.249162
v 0.039601 0.223156 0.312256
v 0.172100 0.332780 0.255777
v 0.035534 0.035861 0.208169
v 0.045299 0.316215 0.311446
v 0.039804 0.410788 0.282580
v 0.126829 0.366636 0.271468
v 0.382930 0.460952 0.000000
v 0.044398 0.088353 0.241290
v 0.068937 0.069143 0.206710
v 0.195941 0.567385 0.000000
v 0.176143 0.283903 0.256106
v 0.182687 0.533852 0.109613
v 0.588842 0.112995 0.000000
v 0.578520 0.155985 0.000000
v 0.524819 0.290227 0.000000
v 0.404674 0.217109 0.197709
v 0.596487 0.053319 0.000000
v 0.460446 0.055717 0.245781
v 0.549323 0.239205 0.000000
v 0.421691 0.272942 0.142581
v 0.499885 0.139500 0.172572
v 0.517845 0.045872 0.186284
v 0.500025 0.330686 0.000000
v 0.246527 0.111658 0.286136
v 0.504640 0.093399 0.188698
v 0.477766 0.279746 0.092140
v 0.345553 0.084755 0.295276
v 0.404948 0.332225 0.091701
v 0.552868 0.081756 0.117078
v 0.432133 0.174019 0.214476
v 0.277606 0.134932 0.281653
v 0.376734 0.249814 0.180161
v 0.569701 0.034368 0.095071
v 0.425545 0.374003 0.048755
v 0.318693 0.134926 0.277521
v 0.330093 0.263750 0.171833
v 0.545687 0.128607 0.107031
v 0.450082 0.323848 0.078527
v 0.365120 0.043297 0.299116
v 0.180320 0.048963 0.288426
v 0.212700 0.081919 0.288645
v 0.352281 0.216585 0.219251
v 0.453604 0.226034 0.160577
v 0.479532 0.179186 0.171566
v 0.455574 0.120101 0.226921
v 0.295219 0.089625 0.305239
v 0.201299 0.133222 0.254338
v 0.298281 0.222065 0.212137
v 0.161311 0.096869 0.257330
v 0.381368 0.172878 0.254930
v 0.263095 0.055321 0.308394
v 0.503048 0.231915 0.101901
v 0.369477 0.291524 0.142636
v 0.235232 0.166425 0.242563
v 0.402088 0.083523 0.281709
v 0.134548 0.051805 0.264948
v 0.411375 0.135037 0.250985
v 0.220338 0.041067 0.302877
v 0.332568 0.174105 0.257213
v 0.314366 0.045132 0.310159
v 0.412275 0.038165 0.280829
v 0.368245 0.131183 0.270851
v 0.460709 0.383172 0.000000
v 0.089928 0.042700 0.239301
v 0.567143 0.196184 0.000000
v 0.280433 0.180311 0.245193
v 0.530653 0.180964 0.098749
v -0.423648 -0.423406 0.000000
v -0.187636 -0.188386 0.181032
v -0.111519 -0.587366 0.000000
v -0.154511 -0.577046 0.000000
v -0.288752 -0.523343 0.000000
v -0.216792 -0.405821 0.199724
v -0.051844 -0.595012 0.000000
v -0.057801 -0.463642 0.241001
v -0.309325 -0.310233 0.111516
v -0.237731 -0.547848 0.000000
v -0.098254 -0.098144 0.203652
v -0.272543 -0.421794 0.144762
v -0.140980 -0.504318 0.171373
v -0.045458 -0.517706 0.187854
v -0.329212 -0.498550 0.000000
v -0.111546 -0.248351 0.284593
v -0.094150 -0.505446 0.190470
v -0.280170 -0.477446 0.096498
v -0.082749 -0.344208 0.298439
v -0.269005 -0.270208 0.139909
v -0.331512 -0.402449 0.091025
v -0.082301 -0.565749 0.097104
v -0.173802 -0.432959 0.215566
v -0.137904 -0.276820 0.272192
v -0.247223 -0.376856 0.183775
v -0.032347 -0.571118 0.097064
v -0.369747 -0.420802 0.046161
v -0.387504 -0.386634 0.040288
v -0.132103 -0.316950 0.277230
v -0.155246 -0.155515 0.191738
v -0.255468 -0.331542 0.178164
v -0.129245 -0.549570 0.110534
v -0.321440 -0.446422 0.082023
v -0.043458 -0.365920 0.299753
v -0.047022 -0.182123 0.297604
v -0.083714 -0.212801 0.291200
v -0.213477 -0.353038 0.215986
v -0.348367 -0.349174 0.078372
v -0.226392 -0.454770 0.164042
v -0.226174 -0.227293 0.164169
v -0.179804 -0.481632 0.174352
v -0.120690 -0.456163 0.227389
v -0.091781 -0.295302 0.298215
v -0.132444 -0.201486 0.253899
v -0.217674 -0.299839 0.211725
v -0.092414 -0.164241 0.268207
v -0.171627 -0.382107 0.239814
v -0.054401 -0.264218 0.313996
v -0.233323 -0.504940 0.107951
v -0.126985 -0.126903 0.198522
v -0.288333 -0.369178 0.144365
v -0.173288 -0.231355 0.230607
v -0.086449 -0.405537 0.271842
v -0.051057 -0.133086 0.265574
v -0.134086 -0.410214 0.248824
v -0.042198 -0.220812 0.307930
v -0.173866 -0.332173 0.249288
v -0.035506 -0.035068 0.208053
v -0.045247 -0.314831 0.310966
v -0.041380 -0.418686 0.275216
v -0.126433 -0.365415 0.270741
v -0.381698 -0.459234 0.000000
v -0.042477 -0.088822 0.239501
v -0.068636 -0.068418 0.206475
v -0.194710 -0.565668 0.000000
v -0.179040 -0.281154 0.243865
v -0.182608 -0.535011 0.102426
v -0.587609 -0.111278 0.000000
v -0.577288 -0.154268 0.000000
v -0.523586 -0.288510 0.000000
v -0.404730 -0.217186 0.198376
v -0.595255 -0.051602 0.000000
v -0.465600 -0.058811 0.238003
v -0.548091 -0.237488 0.000000
v -0.421289 -0.273170 0.143633
v -0.503233 -0.140679 0.166969
v -0.517439 -0.047515 0.185815
v -0.498792 -0.328969 0.000000
v -0.248565 -0.111489 0.283772
v -0.504629 -0.094658 0.188060
v -0.474907 -0.276355 0.111530
v -0.345734 -0.086785 0.292594
v -0.402263 -0.324418 0.107223
v -0.555140 -0.081758 0.114736
v -0.431908 -0.173950 0.214146
v -0.276351 -0.138974 0.272202
v -0.376444 -0.249549 0.180922
v -0.567616 -0.034459 0.100897
v -0.424607 -0.374268 0.050046
v -0.316471 -0.133409 0.277552
v -0.330936 -0.255675 0.180397
v -0.547893 -0.128005 0.107796
v -0.451615 -0.327470 0.081823
v -0.364643 -0.044869 0.299821
v -0.175364 -0.053489 0.282697
v -0.213860 -0.082649 0.288497
v -0.351955 -0.213353 0.217749
v -0.454137 -0.225665 0.161034
v -0.483280 -0.181106 0.165823
v -0.455664 -0.121241 0.226144
v -0.295599 -0.092322 0.296904
v -0.201811 -0.133016 0.253439
v -0.297960 -0.220500 0.210802
v -0.159475 -0.098817 0.252538
v -0.381502 -0.172808 0.239768
v -0.263893 -0.056212 0.307968
v -0.506404 -0.232847 0.105997
v -0.368049 -0.292845 0.138936
v -0.235318 -0.165917 0.241532
v -0.404907 -0.086819 0.272051
v -0.131490 -0.054650 0.259853
v -0.409239 -0.134303 0.249841
v -0.221656 -0.041106 0.302918
v -0.331002 -0.175925 0.250113
v -0.314624 -0.046659 0.309618
v -0.411968 -0.041031 0.279213
v -0.363982 -0.126495 0.277173
v -0.459477 -0.381455 0.000000
v -0.089120 -0.042803 0.239668
v -0.565910 -0.194467 0.000000
v -0.279764 -0.180462 0.244399
v -0.530428 -0.179581 0.108695
v 0.000616 -0.599141 0.000000
v 0.424880 -0.423406 0.000000
v 0.188670 -0.187984 0.180391
v 0.000039 -0.292021 0.318077
v 0.112752 -0.587366 0.000000
v 0.155743 -0.577046 0.000000
v 0.289984 -0.523343 0.000000
v 0.217552 -0.404197 0.198630
v 0.053076 -0.595012 0.000000
v 0.057262 -0.459217 0.244952
v 0.310324 -0.309601 0.111430
v 0.238963 -0.547848 0.000000
v 0.000644 -0.437382 0.267749
v 0.098679 -0.098126 0.202980
v 0.273542 -0.420970 0.143836
v -0.000053 -0.201996 0.313801
v 0.141701 -0.503362 0.166483
v 0.047950 -0.521209 0.179972
v 0.330445 -0.498550 0.000000
v 0.111830 -0.247345 0.284947
v 0.095996 -0.510450 0.179500
v 0.281947 -0.478246 0.094378
v 0.089137 -0.347821 0.292448
v 0.270192 -0.269346 0.139820
v 0.000063 -0.054615 0.228129
v 0.327608 -0.402841 0.099367
v 0.082135 -0.554924 0.114289
v 0.000604 -0.486172 0.227355
v 0.174018 -0.431219 0.213917
v 0.136100 -0.277052 0.279637
v 0.000499 -0.385084 0.296223
v 0.249993 -0.376132 0.181265
v 0.034822 -0.569843 0.094886
v 0.374427 -0.424339 0.049660
v 0.387492 -0.387668 0.040204
v 0.132425 -0.316695 0.279490
v -0.000070 -0.246701 0.315823
v 0.155986 -0.155385 0.191019
v 0.257210 -0.330718 0.178789
v 0.129551 -0.551993 0.096082
v 0.325684 -0.450330 0.080375
v 0.044508 -0.365092 0.300032
v 0.049823 -0.178936 0.289174
v 0.001823 -0.553010 0.138469
v 0.083246 -0.211808 0.289468
v 0.212967 -0.351408 0.217080
v 0.349207 -0.349035 0.078308
v 0.226708 -0.453323 0.161417
v 0.227418 -0.226664 0.163833
v 0.180094 -0.479810 0.170451
v 0.120578 -0.455070 0.225717
v 0.092123 -0.295190 0.298291
v 0.131700 -0.202109 0.256807
v 0.226301 -0.295637 0.202807
v 0.096668 -0.161112 0.258222
v 0.000843 -0.152623 0.285125
v 0.174202 -0.381645 0.237730
v 0.054573 -0.263395 0.313979
v 0.234451 -0.503779 0.104329
v 0.127443 -0.126962 0.197808
v 0.291096 -0.368307 0.143062
v 0.166426 -0.234626 0.241725
v 0.087392 -0.404924 0.271103
v 0.052454 -0.133340 0.265081
v 0.133934 -0.408042 0.249367
v 0.041714 -0.219940 0.305534
v 0.175201 -0.330832 0.249297
v 0.000364 -0.335874 0.311688
v 0.035585 -0.035055 0.207795
v 0.045958 -0.313981 0.311679
v 0.040439 -0.411117 0.279835
v 0.128094 -0.364803 0.271175
v 0.382930 -0.459234 0.000000
v 0.000426 -0.109376 0.261022
v 0.043450 -0.088575 0.239479
v 0.068937 -0.068365 0.205993
v 0.195941 -0.565668 0.000000
v 0.180443 -0.279443 0.244427
v 0.181270 -0.527507 0.110380
v 0.600616 0.000859 0.000000
v 0.291701 -0.000115 0.316337
v 0.588842 -0.111278 0.000000
v 0.578520 -0.154268 0.000000
v 0.524819 -0.288510 0.000000
v 0.405558 -0.217504 0.200152
v 0.596487 -0.051602 0.000000
v 0.459976 -0.058561 0.245680
v 0.549323 -0.237488 0.000000
v 0.441304 -0.001688 0.265023
v 0.421511 -0.273271 0.145576
v 0.200499 0.000048 0.305842
v 0.505036 -0.141357 0.171852
v 0.521156 -0.046818 0.184315
v 0.500025 -0.328969 0.000000
v 0.248323 -0.111362 0.284176
v 0.504236 -0.094646 0.193961
v 0.478722 -0.280624 0.097537
v 0.344404 -0.084912 0.293616
v 0.055000 0.000248 0.228428
v 0.402206 -0.326433 0.099244
v 0.556542 -0.081579 0.120139
v 0.486985 -0.001289 0.227406
v 0.432881 -0.174468 0.216064
v 0.276464 -0.138201 0.271865
v 0.384757 -0.001214 0.295491
v 0.378143 -0.255575 0.175610
v 0.571200 -0.033222 0.096681
v 0.424352 -0.374358 0.036400
v 0.316422 -0.132327 0.276975
v 0.245714 0.000863 0.313551
v 0.331757 -0.255792 0.178107
v 0.550218 -0.128755 0.111395
v 0.448011 -0.321856 0.084090
v 0.364716 -0.044855 0.298716
v 0.181889 -0.047900 0.297970
v 0.553259 0.000367 0.138576
v 0.214469 -0.079644 0.299408
v 0.352300 -0.212874 0.217947
v 0.452844 -0.224772 0.169241
v 0.482387 -0.180070 0.175169
v 0.456362 -0.121748 0.228294
v 0.294943 -0.092641 0.296401
v 0.201649 -0.133702 0.253497
v 0.298893 -0.219491 0.210116
v 0.162606 -0.095303 0.264083
v 0.157134 -0.000077 0.286896
v 0.381646 -0.172587 0.240628
v 0.263339 -0.055272 0.309842
v 0.504321 -0.232051 0.113815
v 0.369308 -0.290223 0.142804
v 0.235888 -0.165477 0.241128
v 0.403711 -0.086753 0.273296
v 0.133440 -0.052090 0.265307
v 0.408804 -0.134220 0.250854
v 0.221324 -0.039799 0.310895
v 0.331444 -0.174616 0.249580
v 0.335531 -0.000717 0.310575
v 0.313880 -0.045859 0.309854
v 0.411323 -0.041030 0.279625
v 0.364623 -0.127308 0.271220
v 0.460709 -0.381455 0.000000
v 0.108965 0.000091 0.258887
v 0.090043 -0.041895 0.240091
v 0.567143 -0.194467 0.000000
v 0.280440 -0.179323 0.244120
v 0.535135 -0.181789 0.105540
f 45 34 19
f 49 51 60
f 37 79 31
f 15 65 56
f 18 52 22
f 9 49 16
f 23 20 42
f 48 12 62
f 10 6 28
f 53 59 71
f 22 11 19
f 7 80 41
f 73 24 64
f 46 44 67
f 33 62 40
f 41 22 28
f 11 52 64
f 28 34 10
f 14 29 11
f 8 20 23
f 37 31 53
f 46 59 21
f 18 51 52
f 45 19 29
f 70 26 76
f 23 16 49
f 2 35 74
f 42 35 27
f 63 21 31
f 30 52 51
f 13 8 60
f 25 50 55
f 27 62 16
f 27 35 36
f 1 10 34
f 41 80 18
f 40 47 33
f 53 71 24
f 21 54 46
f 44 57 17
f 36 48 27
f 16 33 9
f 1 34 45
f 34 28 19
f 23 42 16
f 2 36 35
f 47 55 68
f 37 24 73
f 17 67 44
f 39 56 54
f 58 9 47
f 25 40 12
f 41 6 7
f 51 18 80
f 42 74 35
f 14 11 72
f 44 56 65
f 44 65 57
f 43 64 24
f 73 66 58
f 53 21 59
f 46 54 56
f 33 47 9
f 55 47 40
f 33 16 62
f 9 30 49
f 49 60 23
f 29 19 11
f 16 42 27
f 6 41 28
f 14 72 32
f 51 49 30
f 22 52 11
f 30 58 66
f 37 53 24
f 38 5 59
f 39 54 3
f 54 21 63
f 55 79 68
f 56 44 46
f 15 56 61
f 9 58 30
f 68 37 73
f 59 67 38
f 5 69 71
f 13 60 80
f 23 60 8
f 39 61 56
f 40 62 12
f 48 62 27
f 54 63 3
f 53 31 21
f 64 43 72
f 64 52 66
f 32 43 69
f 19 28 22
f 22 41 18
f 57 65 75
f 30 66 52
f 66 73 64
f 67 17 38
f 46 67 59
f 3 63 50
f 68 79 37
f 47 68 58
f 71 69 43
f 70 76 77
f 24 71 43
f 64 72 11
f 32 72 43
f 68 73 58
f 42 20 74
f 75 65 76
f 75 76 26
f 15 76 65
f 4 26 70
f 71 59 5
f 15 77 76
f 78 80 7
f 31 79 63
f 55 40 25
f 63 79 50
f 13 80 78
f 51 80 60
f 79 55 50
f 94 108 117
f 130 121 120
f 105 146 110
f 126 134 15
f 97 122 93
f 91 120 86
f 114 95 98
f 131 12 48
f 102 83 87
f 139 129 123
f 94 88 97
f 113 147 84
f 133 99 141
f 136 116 118
f 112 131 107
f 102 97 113
f 133 122 88
f 87 108 102
f 88 103 90
f 98 95 85
f 123 105 110
f 96 129 118
f 122 121 93
f 103 94 117
f 144 100 70
f 120 91 98
f 142 109 2
f 101 109 114
f 105 96 132
f 121 122 104
f 130 85 89
f 125 50 25
f 91 131 101
f 36 109 101
f 108 87 81
f 93 147 113
f 107 119 112
f 99 139 123
f 118 124 96
f 92 127 116
f 101 48 36
f 86 107 91
f 117 108 81
f 94 102 108
f 91 114 98
f 109 36 2
f 137 125 119
f 141 99 110
f 116 136 92
f 124 126 39
f 119 86 128
f 12 112 25
f 84 83 113
f 147 93 121
f 109 142 114
f 140 88 90
f 134 126 116
f 127 134 116
f 99 133 115
f 128 135 141
f 129 96 123
f 126 124 118
f 86 119 107
f 112 119 125
f 131 91 107
f 120 104 86
f 98 130 120
f 88 94 103
f 101 114 91
f 102 113 83
f 106 140 90
f 104 120 121
f 88 122 97
f 135 128 104
f 99 123 110
f 129 82 111
f 3 124 39
f 132 96 124
f 137 146 125
f 118 116 126
f 61 126 15
f 104 128 86
f 141 110 137
f 111 136 129
f 139 138 82
f 147 130 89
f 85 130 98
f 126 61 39
f 12 131 112
f 101 131 48
f 3 132 124
f 96 105 123
f 140 115 133
f 135 122 133
f 138 115 106
f 97 102 94
f 93 113 97
f 143 134 127
f 122 135 104
f 133 141 135
f 111 92 136
f 129 136 118
f 50 132 3
f 110 146 137
f 128 137 119
f 115 138 139
f 77 144 70
f 115 139 99
f 88 140 133
f 115 140 106
f 128 141 137
f 142 95 114
f 144 134 143
f 100 144 143
f 134 144 15
f 70 100 4
f 82 129 139
f 144 77 15
f 84 147 145
f 132 146 105
f 25 112 125
f 50 146 132
f 145 147 89
f 130 147 121
f 50 125 146
f 161 173 45
f 196 188 186
f 171 213 176
f 193 201 158
f 164 189 160
f 159 186 153
f 180 162 165
f 198 156 185
f 169 150 154
f 206 195 190
f 161 155 164
f 179 214 151
f 200 166 208
f 203 182 183
f 178 198 172
f 169 164 179
f 200 189 155
f 154 173 169
f 155 29 14
f 165 162 152
f 190 171 176
f 163 195 183
f 189 188 160
f 29 161 45
f 210 26 205
f 186 159 165
f 209 174 148
f 168 174 180
f 171 163 199
f 188 189 170
f 196 152 157
f 192 187 167
f 159 198 168
f 175 174 168
f 173 154 1
f 160 214 179
f 172 184 178
f 166 206 190
f 183 191 163
f 17 57 182
f 168 185 175
f 153 172 159
f 45 173 1
f 161 169 173
f 159 180 165
f 174 175 148
f 204 192 184
f 208 166 176
f 182 203 17
f 191 193 177
f 184 153 194
f 156 178 167
f 151 150 179
f 214 160 188
f 174 209 180
f 207 155 14
f 201 193 182
f 57 201 182
f 166 200 181
f 194 202 208
f 195 163 190
f 193 191 183
f 153 184 172
f 178 184 192
f 198 159 172
f 186 170 153
f 165 196 186
f 155 161 29
f 168 180 159
f 169 179 150
f 32 207 14
f 170 186 188
f 155 189 164
f 202 194 170
f 166 190 176
f 195 5 38
f 149 191 177
f 199 163 191
f 204 213 192
f 183 182 193
f 197 193 158
f 170 194 153
f 208 176 204
f 38 203 195
f 206 69 5
f 214 196 157
f 152 196 165
f 193 197 177
f 156 198 178
f 168 198 185
f 149 199 191
f 163 171 190
f 207 181 200
f 202 189 200
f 69 181 32
f 164 169 161
f 160 179 164
f 75 201 57
f 189 202 170
f 200 208 202
f 38 17 203
f 195 203 183
f 187 199 149
f 176 213 204
f 194 204 184
f 181 69 206
f 211 210 205
f 181 206 166
f 155 207 200
f 181 207 32
f 194 208 204
f 209 162 180
f 210 201 75
f 26 210 75
f 201 210 158
f 205 26 4
f 5 195 206
f 210 211 158
f 151 214 212
f 199 213 171
f 167 178 192
f 187 213 199
f 212 214 157
f 196 214 188
f 187 192 213
f 507 235 224
f 245 246 254
f 237 268 233
f 158 258 251
f 223 247 227
f 218 245 222
f 228 225 240
f 185 156 255
f 219 215 231
f 248 253 262
f 227 220 224
f 216 269 239
f 264 229 257
f 243 242 260
f 234 255 238
f 239 227 231
f 220 247 257
f 231 235 219
f 480 493 220
f 217 225 228
f 237 233 248
f 243 253 226
f 223 246 247
f 507 224 493
f 205 490 266
f 228 222 245
f 148 236 265
f 240 236 230
f 256 226 233
f 232 247 246
f 221 217 254
f 167 187 250
f 230 255 222
f 230 236 175
f 471 219 235
f 239 269 223
f 238 244 234
f 248 262 229
f 226 249 243
f 242 517 482
f 175 185 230
f 222 234 218
f 471 235 507
f 235 231 224
f 228 240 222
f 148 175 236
f 244 250 261
f 237 229 264
f 482 260 242
f 177 251 249
f 252 218 244
f 167 238 156
f 239 215 216
f 246 223 269
f 240 265 236
f 480 220 263
f 242 251 258
f 242 258 517
f 241 257 229
f 264 259 252
f 248 226 253
f 243 249 251
f 234 244 218
f 250 244 238
f 234 222 255
f 218 232 245
f 245 254 228
f 493 224 220
f 222 240 230
f 215 239 231
f 480 263 496
f 246 245 232
f 227 247 220
f 232 252 259
f 237 248 229
f 501 472 253
f 177 249 149
f 249 226 256
f 250 268 261
f 251 242 243
f 158 251 197
f 218 252 232
f 261 237 264
f 253 260 501
f 472 528 262
f 221 254 269
f 228 254 217
f 177 197 251
f 238 255 156
f 185 255 230
f 249 256 149
f 248 233 226
f 257 241 263
f 257 247 259
f 496 241 528
f 224 231 227
f 227 239 223
f 517 258 533
f 232 259 247
f 259 264 257
f 260 482 501
f 243 260 253
f 149 256 187
f 261 268 237
f 244 261 252
f 262 528 241
f 205 266 211
f 229 262 241
f 257 263 220
f 496 263 241
f 261 264 252
f 240 225 265
f 533 258 266
f 533 266 490
f 158 266 258
f 4 490 205
f 262 253 472
f 158 211 266
f 267 269 216
f 233 268 256
f 250 238 167
f 256 268 187
f 221 269 267
f 246 269 254
f 268 250 187
f 283 295 435
f 318 310 308
f 293 335 298
f 315 323 280
f 286 311 282
f 281 308 275
f 302 284 287
f 320 278 307
f 291 272 276
f 328 317 312
f 283 277 286
f 301 336 273
f 322 288 330
f 325 304 305
f 300 320 294
f 291 286 301
f 322 311 277
f 276 295 291
f 277 419 404
f 287 284 274
f 312 293 298
f 285 317 305
f 311 310 282
f 419 283 435
f 332 416 327
f 308 281 287
f 331 296 270
f 290 296 302
f 293 285 321
f 310 311 292
f 318 274 279
f 314 309 289
f 281 320 290
f 297 296 290
f 295 276 392
f 282 336 301
f 294 306 300
f 288 328 312
f 305 313 285
f 407 447 304
f 290 307 297
f 275 294 281
f 435 295 392
f 283 291 295
f 281 302 287
f 296 297 270
f 326 314 306
f 330 288 298
f 304 325 407
f 313 315 299
f 306 275 316
f 278 300 289
f 273 272 301
f 336 282 310
f 296 331 302
f 329 277 404
f 323 315 304
f 447 323 304
f 288 322 303
f 316 324 330
f 317 285 312
f 315 313 305
f 275 306 294
f 300 306 314
f 320 281 294
f 308 292 275
f 287 318 308
f 277 283 419
f 290 302 281
f 291 301 272
f 422 329 404
f 292 308 310
f 277 311 286
f 324 316 292
f 288 312 298
f 317 395 428
f 271 313 299
f 321 285 313
f 326 335 314
f 305 304 315
f 319 315 280
f 292 316 275
f 330 298 326
f 428 325 317
f 328 459 395
f 336 318 279
f 274 318 287
f 315 319 299
f 278 320 300
f 290 320 307
f 271 321 313
f 285 293 312
f 329 303 322
f 324 311 322
f 459 303 422
f 286 291 283
f 282 301 286
f 465 323 447
f 311 324 292
f 322 330 324
f 428 407 325
f 317 325 305
f 309 321 271
f 298 335 326
f 316 326 306
f 303 459 328
f 333 332 327
f 303 328 288
f 277 329 322
f 303 329 422
f 316 330 326
f 331 284 302
f 332 323 465
f 416 332 465
f 323 332 280
f 327 416 4
f 395 317 328
f 332 333 280
f 273 336 334
f 321 335 293
f 289 300 314
f 309 335 321
f 334 336 279
f 318 336 310
f 309 314 335
f 117 357 346
f 367 368 376
f 359 390 355
f 280 380 373
f 345 369 349
f 340 367 344
f 350 347 362
f 307 278 377
f 341 337 353
f 370 375 384
f 349 342 346
f 338 391 361
f 386 351 379
f 365 364 382
f 356 377 360
f 361 349 353
f 342 369 379
f 353 357 341
f 90 103 342
f 339 347 350
f 359 355 370
f 365 375 348
f 345 368 369
f 117 346 103
f 327 100 388
f 350 344 367
f 270 358 387
f 362 358 352
f 378 348 355
f 354 369 368
f 343 339 376
f 289 309 372
f 352 377 344
f 352 358 297
f 81 341 357
f 361 391 345
f 360 366 356
f 370 384 351
f 348 371 365
f 364 127 92
f 297 307 352
f 344 356 340
f 81 357 117
f 357 353 346
f 350 362 344
f 270 297 358
f 366 372 383
f 359 351 386
f 92 382 364
f 299 373 371
f 374 340 366
f 289 360 278
f 361 337 338
f 368 345 391
f 362 387 358
f 90 342 385
f 364 373 380
f 364 380 127
f 363 379 351
f 386 381 374
f 370 348 375
f 365 371 373
f 356 366 340
f 372 366 360
f 356 344 377
f 340 354 367
f 367 376 350
f 103 346 342
f 344 362 352
f 337 361 353
f 90 385 106
f 368 367 354
f 349 369 342
f 354 374 381
f 359 370 351
f 111 82 375
f 299 371 271
f 371 348 378
f 372 390 383
f 373 364 365
f 280 373 319
f 340 374 354
f 383 359 386
f 375 382 111
f 82 138 384
f 343 376 391
f 350 376 339
f 299 319 373
f 360 377 278
f 307 377 352
f 371 378 271
f 370 355 348
f 379 363 385
f 379 369 381
f 106 363 138
f 346 353 349
f 349 361 345
f 127 380 143
f 354 381 369
f 381 386 379
f 382 92 111
f 365 382 375
f 271 378 309
f 383 390 359
f 366 383 374
f 384 138 363
f 327 388 333
f 351 384 363
f 379 385 342
f 106 385 363
f 383 386 374
f 362 347 387
f 143 380 388
f 143 388 100
f 280 388 380
f 4 100 327
f 384 375 82
f 280 333 388
f 389 391 338
f 355 390 378
f 372 360 289
f 378 390 309
f 343 391 389
f 368 391 376
f 390 372 309
f 435 424 409
f 439 441 450
f 427 469 421
f 405 455 446
f 408 442 412
f 399 439 406
f 413 410 432
f 438 402 452
f 400 396 418
f 443 449 461
f 412 401 409
f 397 470 431
f 463 414 454
f 436 434 457
f 423 452 430
f 431 412 418
f 401 442 454
f 418 424 400
f 404 419 401
f 398 410 413
f 427 421 443
f 436 449 411
f 408 441 442
f 435 409 419
f 460 416 466
f 413 406 439
f 393 425 464
f 432 425 417
f 453 411 421
f 420 442 441
f 403 398 450
f 415 440 445
f 417 452 406
f 417 425 426
f 392 400 424
f 431 470 408
f 430 437 423
f 443 461 414
f 411 444 436
f 434 447 407
f 426 438 417
f 406 423 399
f 392 424 435
f 424 418 409
f 413 432 406
f 393 426 425
f 437 445 458
f 427 414 463
f 407 457 434
f 429 446 444
f 448 399 437
f 415 430 402
f 431 396 397
f 441 408 470
f 432 464 425
f 404 401 462
f 434 446 455
f 434 455 447
f 433 454 414
f 463 456 448
f 443 411 449
f 436 444 446
f 423 437 399
f 445 437 430
f 423 406 452
f 399 420 439
f 439 450 413
f 419 409 401
f 406 432 417
f 396 431 418
f 404 462 422
f 441 439 420
f 412 442 401
f 420 448 456
f 427 443 414
f 428 395 449
f 429 444 394
f 444 411 453
f 445 469 458
f 446 434 436
f 405 446 451
f 399 448 420
f 458 427 463
f 449 457 428
f 395 459 461
f 403 450 470
f 413 450 398
f 429 451 446
f 430 452 402
f 438 452 417
f 444 453 394
f 443 421 411
f 454 433 462
f 454 442 456
f 422 433 459
f 409 418 412
f 412 431 408
f 447 455 465
f 420 456 442
f 456 463 454
f 457 407 428
f 436 457 449
f 394 453 440
f 458 469 427
f 437 458 448
f 461 459 433
f 460 466 467
f 414 461 433
f 454 462 401
f 422 462 433
f 458 463 448
f 432 410 464
f 465 455 466
f 465 466 416
f 405 466 455
f 4 416 460
f 461 449 395
f 405 467 466
f 468 470 397
f 421 469 453
f 445 430 415
f 453 469 440
f 403 470 468
f 441 470 450
f 469 445 440
f 484 498 507
f 520 511 510
f 495 536 500
f 516 524 405
f 487 512 483
f 481 510 476
f 504 485 488
f 521 402 438
f 492 473 477
f 529 519 513
f 484 478 487
f 503 537 474
f 523 489 531
f 526 506 508
f 502 521 497
f 492 487 503
f 523 512 478
f 477 498 492
f 478 493 480
f 488 485 475
f 513 495 500
f 486 519 508
f 512 511 483
f 493 484 507
f 534 490 460
f 510 481 488
f 532 499 393
f 491 499 504
f 495 486 522
f 511 512 494
f 520 475 479
f 515 440 415
f 481 521 491
f 426 499 491
f 498 477 471
f 483 537 503
f 497 509 502
f 489 529 513
f 508 514 486
f 482 517 506
f 491 438 426
f 476 497 481
f 507 498 471
f 484 492 498
f 481 504 488
f 499 426 393
f 527 515 509
f 531 489 500
f 506 526 482
f 514 516 429
f 509 476 518
f 402 502 415
f 474 473 503
f 537 483 511
f 499 532 504
f 530 478 480
f 524 516 506
f 517 524 506
f 489 523 505
f 518 525 531
f 519 486 513
f 516 514 508
f 476 509 497
f 502 509 515
f 521 481 497
f 510 494 476
f 488 520 510
f 478 484 493
f 491 504 481
f 492 503 473
f 496 530 480
f 494 510 511
f 478 512 487
f 525 518 494
f 489 513 500
f 519 472 501
f 394 514 429
f 522 486 514
f 527 536 515
f 508 506 516
f 451 516 405
f 494 518 476
f 531 500 527
f 501 526 519
f 529 528 472
f 537 520 479
f 475 520 488
f 516 451 429
f 402 521 502
f 491 521 438
f 394 522 514
f 486 495 513
f 530 505 523
f 525 512 523
f 528 505 496
f 487 492 484
f 483 503 487
f 533 524 517
f 512 525 494
f 523 531 525
f 501 482 526
f 519 526 508
f 440 522 394
f 500 536 527
f 518 527 509
f 505 528 529
f 467 534 460
f 505 529 489
f 478 530 523
f 505 530 496
f 518 531 527
f 532 485 504
f 534 524 533
f 490 534 533
f 524 534 405
f 460 490 4
f 472 519 529
f 534 467 405
f 474 537 535
f 522 536 495
f 415 502 515
f 440 536 522
f 535 537 479
f 520 537 511
f 440 515 536
