OFF
537 1000 0
0.00061616 0.60085857 0.00000000
-0.42364842 0.42512266 0.00000000
-0.18837944 0.18985472 0.17994401
0.00061616 0.00085865 0.21063361
0.00061616 0.29439196 0.32125314
-0.11151936 0.58908361 0.00000000
-0.15451091 0.57876290 0.00000000
-0.28875159 0.52506053 0.00000000
-0.22093566 0.40266316 0.20328359
-0.05184412 0.59673029 0.00000000
-0.05688491 0.45742126 0.23453492
-0.31064852 0.31212381 0.10456773
-0.23773060 0.54956524 0.00000000
0.00061616 0.43954010 0.27052889
-0.09756763 0.09904239 0.20525146
-0.27618272 0.41821099 0.14627369
0.00061616 0.20105135 0.32176628
-0.13969283 0.49675666 0.15726716
-0.04510995 0.51087442 0.18158964
-0.32921212 0.50026665 0.00000000
-0.11161820 0.24969694 0.28528724
-0.09287258 0.49812469 0.19977490
-0.27988934 0.47197540 0.09516606
-0.08712674 0.34726783 0.29071804
-0.27082100 0.27229629 0.13438411
0.00061616 0.05495694 0.23257540
-0.32997763 0.40161374 0.09863188
-0.07894273 0.54629815 0.11346047
0.00061616 0.48430241 0.22094797
-0.17619017 0.42940972 0.21880838
-0.13998726 0.27792405 0.28694023
0.00061616 0.38991028 0.29780111
-0.25377791 0.37488716 0.18397807
-0.03210250 0.56232022 0.09072442
-0.37236876 0.42310688 0.04471184
-0.38859377 0.39006906 0.03483909
-0.13492102 0.31845083 0.28066200
0.00061616 0.24795352 0.31839825
-0.15517231 0.15664760 0.19180414
-0.25930261 0.33061696 0.17800826
-0.12572860 0.53880710 0.10859665
-0.32404493 0.44522358 0.06225967
-0.04495464 0.36835089 0.30556430
-0.04882803 0.18113233 0.29089449
0.00061616 0.54438648 0.12914426
-0.08230287 0.21431422 0.29000059
-0.21649192 0.35121105 0.22064378
-0.34986720 0.35134249 0.07115556
-0.22818382 0.44944756 0.17044107
-0.22833629 0.22981158 0.16117862
-0.17960762 0.47484922 0.17455137
-0.12110820 0.45215838 0.24053596
-0.09350602 0.29700605 0.30136577
-0.13168758 0.20385050 0.25950598
-0.22126900 0.29923212 0.19841034
-0.09488730 0.16382215 0.25773342
0.00061616 0.15839734 0.28944128
-0.17572540 0.38067895 0.23536520
-0.05615621 0.26482521 0.31224768
-0.23154764 0.49712259 0.10663997
-0.12641104 0.12788632 0.19926860
-0.29433623 0.36763900 0.14306717
-0.16510396 0.23776110 0.24739347
-0.08719351 0.40423414 0.27559419
-0.05121836 0.13544047 0.27649902
-0.13585793 0.40792814 0.24625120
-0.04069092 0.22188414 0.31122896
-0.17738260 0.33169161 0.25817401
0.00061616 0.34084302 0.31529447
-0.03434329 0.03581816 0.21028825
-0.04696484 0.31717112 0.30128680
-0.04012320 0.41350752 0.28118545
-0.12967917 0.36559905 0.28430459
-0.38169788 0.46095228 0.00000000
0.00061616 0.11100726 0.27888619
-0.04228251 0.09005923 0.24804163
-0.06785136 0.06932623 0.20830718
-0.19470961 0.56738541 0.00000000
-0.18048670 0.28234886 0.23210011
-0.17920594 0.52466726 0.10118393
-0.59938328 0.00085865 0.00000000
-0.29291667 0.00085865 0.32119741
-0.58760937 0.11299464 0.00000000
-0.57728761 0.15598514 0.00000000
-0.52358629 0.29022688 0.00000000
-0.40118892 0.22241095 0.20328359
-0.59525500 0.05331899 0.00000000
-0.45594597 0.05835968 0.24324374
-0.54809100 0.23920484 0.00000000
-0.43806586 0.00085865 0.26045624
-0.41673570 0.27765801 0.14627369
-0.19957606 0.00085865 0.30841771
-0.49528243 0.14116707 0.16981173
-0.50939913 0.04658471 0.16777146
-0.49879241 0.33068636 0.00000000
-0.24822271 0.11309244 0.27542131
-0.49665046 0.09434734 0.17655568
-0.47050011 0.28136463 0.08781380
-0.34579255 0.08860150 0.29795715
-0.05348208 0.00085865 0.23188266
-0.40013845 0.33145292 0.09863188
-0.54482287 0.08041749 0.11346047
-0.48282713 0.00085865 0.20991673
-0.42793548 0.17766546 0.21076650
-0.27644876 0.14146255 0.30431603
-0.38843604 0.00085865 0.29780111
-0.37341187 0.25525214 0.18397807
-0.56084599 0.03357726 0.08724808
-0.42163160 0.37384300 0.04471184
-0.31697659 0.13639525 0.26220661
-0.24647823 0.00085865 0.30622287
-0.32914167 0.26077790 0.17262277
-0.53733286 0.12720388 0.10859665
-0.44374935 0.32551917 0.07889057
-0.36687560 0.04642940 0.30294632
-0.17965810 0.05030290 0.29089449
-0.54291225 0.00085865 0.12914426
-0.21283998 0.08377774 0.29000059
-0.34973576 0.21796616 0.22064378
-0.44797227 0.22965805 0.16551037
-0.47337393 0.18108291 0.17455137
-0.45068415 0.12258349 0.21450672
-0.29553181 0.09498078 0.30136577
-0.20237627 0.13316182 0.25207749
-0.29775789 0.22274428 0.20954836
-0.16234686 0.09636217 0.25773342
-0.15692205 0.00085865 0.28944128
-0.37920472 0.17720069 0.23419222
-0.26334993 0.05763097 0.31224768
-0.49564836 0.23302293 0.10663997
-0.36616477 0.29581152 0.14306717
-0.23628686 0.16657924 0.23971819
-0.40275885 0.08866838 0.27559419
-0.13396518 0.05269312 0.26630976
-0.40645285 0.13733321 0.25446613
-0.22040885 0.04216579 0.32176628
-0.33021738 0.17885789 0.25247149
-0.33936879 0.00085865 0.31529447
-0.31569583 0.04843971 0.31916796
-0.41203224 0.04159797 0.28783855
-0.36412376 0.13115341 0.27577599
-0.45947699 0.38317211 0.00000000
-0.10953198 0.00085865 0.26414383
-0.08858446 0.04375727 0.24154364
-0.56591012 0.19618384 0.00000000
-0.28087357 0.18196093 0.24991661
-0.52319197 0.18068018 0.10316184
0.42487975 0.42512266 0.00000000
0.18961182 0.18985472 0.17994401
0.11275174 0.58908361 0.00000000
0.15574329 0.57876290 0.00000000
0.28998397 0.52506053 0.00000000
0.22216805 0.40266316 0.20212366
0.05307640 0.59673029 0.00000000
0.05811719 0.45742126 0.24324374
0.31188090 0.31212381 0.10456773
0.23896299 0.54956524 0.00000000
0.09879991 0.09904239 0.20525146
0.27741511 0.41821099 0.13492333
0.14092522 0.49675666 0.16981173
0.04634223 0.51087442 0.18158964
0.33044451 0.50026665 0.00000000
0.11285058 0.24969694 0.28528724
0.09410486 0.49812469 0.18704421
0.28112173 0.47197540 0.10662819
0.08835902 0.34726783 0.29842445
0.27205339 0.27229629 0.13438411
0.33121001 0.40161374 0.09863188
0.08017501 0.54629815 0.12136698
0.17742256 0.42940972 0.21880838
0.14121964 0.27792405 0.26597011
0.25501029 0.37488716 0.18397807
0.03333478 0.56232022 0.09072442
0.37360009 0.42310688 0.04471184
0.38982616 0.39006906 0.03483909
0.13615340 0.31845083 0.28066200
0.15640470 0.15664760 0.19180414
0.26053500 0.33061696 0.18315557
0.12696098 0.53880710 0.09444156
0.32527732 0.44522358 0.09014293
0.04618692 0.36835089 0.30653958
0.05006042 0.18113233 0.29280437
0.08353526 0.21431422 0.31307743
0.21772431 0.35121105 0.19364242
0.35109959 0.35134249 0.07115556
0.22941515 0.44944756 0.16551037
0.22956867 0.22981158 0.16117862
0.18084001 0.47484922 0.17455137
0.12234059 0.45215838 0.21884223
0.09473830 0.29700605 0.30136577
0.13291997 0.20385050 0.25340251
0.22250138 0.29923212 0.20954836
0.09611968 0.16382215 0.24198244
0.17695778 0.38067895 0.22898687
0.05738849 0.26482521 0.31224768
0.23278003 0.49712259 0.10663997
0.12764342 0.12788632 0.19926860
0.29556862 0.36763900 0.14306717
0.16633634 0.23776110 0.23971819
0.08842590 0.40423414 0.27559419
0.05245064 0.13544047 0.26630976
0.13709031 0.40792814 0.25446613
0.04192331 0.22188414 0.32176628
0.17861499 0.33169161 0.25991239
0.03557568 0.03581816 0.21028825
0.04819712 0.31717112 0.31461876
0.04135548 0.41350752 0.28703802
0.13091156 0.36559905 0.27577599
0.38293026 0.46095228 0.00000000
0.04351479 0.09005923 0.24154364
0.06908375 0.06932623 0.20830718
0.19594094 0.56738541 0.00000000
0.18171908 0.28234886 0.25918905
0.18043833 0.52466726 0.10834039
0.58884176 0.11299464 0.00000000
0.57852000 0.15598514 0.00000000
0.52481868 0.29022688 0.00000000
0.40242131 0.22241095 0.20328359
0.59648738 0.05331899 0.00000000
0.45717836 0.05835968 0.24324374
0.54932339 0.23920484 0.00000000
0.41796809 0.27765801 0.14627369
0.49651481 0.14116707 0.17723570
0.51063152 0.04658471 0.18158964
0.50002480 0.33068636 0.00000000
0.24945404 0.11309244 0.28528724
0.49788284 0.09434734 0.18727092
0.47173250 0.28136463 0.09516606
0.34702493 0.08860150 0.29732729
0.40137084 0.33145292 0.08674230
0.54605525 0.08041749 0.11677603
0.42916787 0.17766546 0.21880838
0.27768114 0.14146255 0.28715706
0.37464426 0.25525214 0.18397807
0.56207837 0.03357726 0.09072442
0.42286398 0.37384300 0.04471184
0.31820897 0.13639525 0.27628420
0.33037405 0.26077790 0.16549081
0.53856525 0.12720388 0.10859665
0.44498173 0.32551917 0.07889057
0.36810798 0.04642940 0.30294632
0.18089048 0.05030290 0.29089449
0.21407237 0.08377774 0.29000059
0.35096815 0.21796616 0.22064378
0.44920465 0.22965805 0.16551037
0.47460631 0.18108291 0.17553413
0.45191653 0.12258349 0.22821715
0.29676420 0.09498078 0.31326734
0.20360865 0.13316182 0.25207749
0.29899027 0.22274428 0.20954836
0.16357925 0.09636217 0.25559673
0.38043605 0.17720069 0.26308442
0.26458231 0.05763097 0.31224768
0.49688074 0.23302293 0.10663997
0.36739715 0.29581152 0.14306717
0.23751819 0.16657924 0.23971819
0.40399123 0.08866838 0.28738881
0.13519757 0.05269312 0.26630976
0.40768524 0.13733321 0.24987202
0.22164124 0.04216579 0.30394547
0.33144976 0.17885789 0.26286191
0.31692822 0.04843971 0.31273821
0.41326462 0.04159797 0.28118545
0.36535615 0.13115341 0.26399640
0.46070938 0.38317211 0.00000000
0.08981675 0.04375727 0.24154364
0.56714251 0.19618384 0.00000000
0.28210596 0.18196093 0.24352597
0.52442436 0.18068018 0.10316184
-0.42364842 -0.42340552 0.00000000
-0.18837944 -0.18813758 0.17994401
-0.11151936 -0.58736647 0.00000000
-0.15451091 -0.57704576 0.00000000
-0.28875159 -0.52334339 0.00000000
-0.22093566 -0.40094602 0.20328359
-0.05184412 -0.59501210 0.00000000
-0.05688491 -0.45570412 0.23438844
-0.31064852 -0.31040562 0.10456773
-0.23773060 -0.54784810 0.00000000
-0.09756763 -0.09732515 0.20525146
-0.27618272 -0.41649280 0.14627369
-0.13969283 -0.49503952 0.16981173
-0.04510995 -0.50915728 0.18158964
-0.32921212 -0.49854951 0.00000000
-0.11161820 -0.24797980 0.28528724
-0.09287258 -0.49640756 0.18727092
-0.27988934 -0.47025826 0.09516606
-0.08712674 -0.34554964 0.30746745
-0.27082100 -0.27057915 0.13438411
-0.32997763 -0.39989660 0.08488005
-0.07894273 -0.54457996 0.08757826
-0.17619017 -0.42769258 0.21880838
-0.13998726 -0.27620586 0.27433025
-0.25377791 -0.37316897 0.18838995
-0.03210250 -0.56060308 0.09072442
-0.37236876 -0.42138869 0.04471184
-0.38859377 -0.38835192 0.03483909
-0.13492102 -0.31673369 0.28066200
-0.15517231 -0.15492941 0.19180414
-0.25930261 -0.32889982 0.17800826
-0.12572860 -0.53708996 0.10671946
-0.32404493 -0.44350645 0.08164662
-0.04495464 -0.36663375 0.30294632
-0.04882803 -0.17941520 0.30446703
-0.08230287 -0.21259708 0.29000059
-0.21649192 -0.34949391 0.21736599
-0.34986720 -0.34962430 0.07115556
-0.22818382 -0.44772937 0.16551037
-0.22833629 -0.22809339 0.16117862
-0.17960762 -0.47313103 0.17455137
-0.12110820 -0.45044125 0.22821715
-0.09350602 -0.29528891 0.30136577
-0.13168758 -0.20213337 0.25207749
-0.22126900 -0.29751499 0.21258801
-0.09488730 -0.16210396 0.27158441
-0.17572540 -0.37896181 0.24483123
-0.05615621 -0.26310808 0.32132464
-0.23154764 -0.49540545 0.10663997
-0.12641104 -0.12616813 0.19926860
-0.29433623 -0.36592187 0.14559777
-0.16510396 -0.23604396 0.22090980
-0.08719351 -0.40251700 0.27283246
-0.05121836 -0.13372333 0.26630976
-0.13585793 -0.40620995 0.25128800
-0.04069092 -0.22016700 0.30788711
-0.17738260 -0.32997447 0.25247149
-0.03434329 -0.03410081 0.21028825
-0.04696484 -0.31545398 0.31461876
-0.04012320 -0.41179039 0.26639472
-0.12967917 -0.36388191 0.27577599
-0.38169788 -0.45923409 0.00000000
-0.04228251 -0.08834198 0.24154364
-0.06785136 -0.06760888 0.20830718
-0.19470961 -0.56566827 0.00000000
-0.18048670 -0.28063067 0.24352597
-0.17920594 -0.52294907 0.09958982
-0.58760937 -0.11127751 0.00000000
-0.57728761 -0.15426800 0.00000000
-0.52358629 -0.28850974 0.00000000
-0.40118892 -0.22069381 0.20328359
-0.59525500 -0.05160164 0.00000000
-0.45594597 -0.05664243 0.23118644
-0.54809100 -0.23748770 0.00000000
-0.41673570 -0.27594087 0.14627369
-0.49528243 -0.13944993 0.16981173
-0.50939913 -0.04486736 0.18168954
-0.49879241 -0.32896922 0.00000000
-0.24822271 -0.11137530 0.28528724
-0.49665046 -0.09263010 0.18727092
-0.47050011 -0.27964644 0.11851104
-0.34579255 -0.08688426 0.29401036
-0.40013845 -0.32973578 0.10991158
-0.54482287 -0.07870025 0.11346047
-0.42793548 -0.17594727 0.21880838
-0.27644876 -0.13974541 0.27400838
-0.37341187 -0.25353500 0.18397807
-0.56084599 -0.03186001 0.09790633
-0.42163160 -0.37212586 0.04471184
-0.31697659 -0.13467812 0.28066200
-0.32914167 -0.25906076 0.18074464
-0.53733286 -0.12548675 0.10859665
-0.44374935 -0.32380203 0.07889057
-0.36687560 -0.04471216 0.30670730
-0.17965810 -0.04858555 0.27636243
-0.21283998 -0.08206039 0.29080132
-0.34973576 -0.21624902 0.22064378
-0.44797227 -0.22794091 0.16551037
-0.47337393 -0.17936472 0.16636999
-0.45068415 -0.12086635 0.22821715
-0.29553181 -0.09326354 0.30136577
-0.20237627 -0.13144468 0.25207749
-0.29775789 -0.22102715 0.20954836
-0.16234686 -0.09464482 0.24818180
-0.37920472 -0.17548355 0.24483123
-0.26334993 -0.05591373 0.31224768
-0.49564836 -0.23130579 0.10663997
-0.36616477 -0.29409333 0.13695708
-0.23628686 -0.16486211 0.23971819
-0.40275885 -0.08695103 0.27431122
-0.13396518 -0.05097588 0.25649788
-0.40645285 -0.13561502 0.25446613
-0.22040885 -0.04044844 0.30788711
-0.33021738 -0.17714075 0.25247149
-0.31569583 -0.04672236 0.31461876
-0.41203224 -0.03988072 0.28118545
-0.36412376 -0.12943627 0.28600427
-0.45947699 -0.38145498 0.00000000
-0.08858446 -0.04204003 0.24154364
-0.56591012 -0.19446671 0.00000000
-0.28087357 -0.18024380 0.24352597
-0.52319197 -0.17896304 0.11400842
0.00061616 -0.59914143 0.00000000
0.42487975 -0.42340552 0.00000000
0.18961182 -0.18813758 0.17994401
0.00061616 -0.29267377 0.32125314
0.11275174 -0.58736647 0.00000000
0.15574329 -0.57704576 0.00000000
0.28998397 -0.52334339 0.00000000
0.22216805 -0.40094602 0.20328359
0.05307640 -0.59501210 0.00000000
0.05811719 -0.45570412 0.24324374
0.31188090 -0.31040562 0.10456773
0.23896299 -0.54784810 0.00000000
0.00061616 -0.43782296 0.26548231
0.09879991 -0.09732515 0.20525146
0.27741511 -0.41649280 0.14627369
0.00061616 -0.19933421 0.32176628
0.14092522 -0.49503952 0.16922677
0.04634223 -0.50915728 0.17284906
0.33044451 -0.49854951 0.00000000
0.11285058 -0.24797980 0.28528724
0.09410486 -0.49640756 0.17388281
0.28112173 -0.47025826 0.09516606
0.08835902 -0.34554964 0.28508345
0.27205339 -0.27057915 0.13438411
0.00061616 -0.05323960 0.23188266
0.33121001 -0.39989660 0.09863188
0.08017501 -0.54457996 0.11346047
0.00061616 -0.48258528 0.22094797
0.17742256 -0.42769258 0.21880838
0.14121964 -0.27620586 0.28503634
0.00061616 -0.38819314 0.29780111
0.25501029 -0.37316897 0.18397807
0.03333478 -0.56060308 0.09072442
0.37360009 -0.42138869 0.04471184
0.38982616 -0.38835192 0.03483909
0.13615340 -0.31673369 0.28393624
0.00061616 -0.24623638 0.32176628
0.15640470 -0.15492941 0.19180414
0.26053500 -0.32889982 0.17800826
0.12696098 -0.53708996 0.09284114
0.32527732 -0.44350645 0.07889057
0.04618692 -0.36663375 0.30294632
0.05006042 -0.17941520 0.29089449
0.00061616 -0.54266935 0.12914426
0.08353526 -0.21259708 0.29000059
0.21772431 -0.34949391 0.22064378
0.35109959 -0.34962430 0.07115556
0.22941515 -0.44772937 0.16551037
0.22956867 -0.22809339 0.16117862
0.18084001 -0.47313103 0.17455137
0.12234059 -0.45044125 0.22821715
0.09473830 -0.29528891 0.30136577
0.13291997 -0.20213337 0.25715330
0.22250138 -0.29751499 0.19568059
0.09611968 -0.16210396 0.25773342
0.00061616 -0.15668020 0.28225359
0.17695778 -0.37896181 0.24061767
0.05738849 -0.26310808 0.32176628
0.23278003 -0.49540545 0.10663997
0.12764342 -0.12616813 0.19926860
0.29556862 -0.36592187 0.14306717
0.16633634 -0.23604396 0.23971819
0.08842590 -0.40251700 0.27038914
0.05245064 -0.13372333 0.26630976
0.13709031 -0.40620995 0.25446613
0.04192331 -0.22016700 0.30788711
0.17861499 -0.32997447 0.25247149
0.00061616 -0.33912589 0.31529447
0.03557568 -0.03410081 0.21028825
0.04819712 -0.31545398 0.31553390
0.04135548 -0.41179039 0.28118545
0.13091156 -0.36388191 0.27577599
0.38293026 -0.45923409 0.00000000
0.00061616 -0.10929013 0.26414383
0.04351479 -0.08834198 0.24154364
0.06908375 -0.06760888 0.20830718
0.19594094 -0.56566827 0.00000000
0.18171908 -0.28063067 0.24352597
0.18043833 -0.52294907 0.11745489
0.60061567 0.00085865 0.00000000
0.29414906 0.00085865 0.32125314
0.58884176 -0.11127751 0.00000000
0.57852000 -0.15426800 0.00000000
0.52481868 -0.28850974 0.00000000
0.40242131 -0.22069381 0.20328359
0.59648738 -0.05160164 0.00000000
0.45717836 -0.05664243 0.24324374
0.54932339 -0.23748770 0.00000000
0.43929825 0.00085865 0.25786770
0.41796809 -0.27594087 0.14627369
0.20080845 0.00085865 0.31105525
0.49651481 -0.13944993 0.16981173
0.51063152 -0.04486736 0.17612235
0.50002480 -0.32896922 0.00000000
0.24945404 -0.11137530 0.28528724
0.49788284 -0.09263010 0.19168353
0.47173250 -0.27964644 0.09516606
0.34702493 -0.08688426 0.29842445
0.05471446 0.00085865 0.23188266
0.40137084 -0.32973578 0.09863188
0.54605525 -0.07870025 0.11567897
0.48405951 0.00085865 0.22037864
0.42916787 -0.17594727 0.21880838
0.27768114 -0.13974541 0.27395591
0.38966843 0.00085865 0.29780111
0.37464426 -0.25353500 0.17066673
0.56207837 -0.03186001 0.09072442
0.42286398 -0.37212586 0.03014719
0.31820897 -0.13467812 0.28066200
0.24771061 0.00085865 0.31082065
0.33037405 -0.25906076 0.17800826
0.53856525 -0.12548675 0.10777025
0.44498173 -0.32380203 0.08311349
0.36810798 -0.04471216 0.30294632
0.18089048 -0.04858555 0.30448007
0.54414463 0.00085865 0.12914426
0.21407237 -0.08206039 0.30600930
0.35096815 -0.21624902 0.22064378
0.44920465 -0.22794091 0.17281951
0.47460631 -0.17936472 0.17455137
0.45191653 -0.12086635 0.22821715
0.29676420 -0.09326354 0.29836977
0.20360865 -0.13144468 0.25207749
0.29899027 -0.22102715 0.20954836
0.16357925 -0.09464482 0.26561543
0.15815444 0.00085865 0.28944128
0.38043605 -0.17548355 0.24483123
0.26458231 -0.05591373 0.31354736
0.49688074 -0.23130579 0.11349159
0.36739715 -0.29409333 0.14306717
0.23751819 -0.16486211 0.23971819
0.40399123 -0.08695103 0.27559419
0.13519757 -0.05097588 0.26630976
0.40768524 -0.13561502 0.25446613
0.22164124 -0.04044844 0.31751812
0.33144976 -0.17714075 0.25247149
0.34060117 0.00085865 0.31529447
0.31692822 -0.04672236 0.31461876
0.41326462 -0.03988072 0.28118545
0.36535615 -0.12943627 0.27577599
0.46070938 -0.38145498 0.00000000
0.11076436 0.00085865 0.25906329
0.08981675 -0.04204003 0.24345836
0.56714251 -0.19446671 0.00000000
0.28210596 -0.18024380 0.24404111
0.52442436 -0.17896304 0.10316184
3 44 33 18
3 48 50 59
3 36 78 30
3 14 64 55
3 17 51 21
3 8 48 15
3 22 19 41
3 47 11 61
3 9 5 27
3 52 58 70
3 21 10 18
3 6 79 40
3 72 23 63
3 45 43 66
3 32 61 39
3 40 21 27
3 10 51 63
3 27 33 9
3 13 28 10
3 7 19 22
3 36 30 52
3 45 58 20
3 17 50 51
3 44 18 28
3 69 25 75
3 22 15 48
3 1 34 73
3 41 34 26
3 62 20 30
3 29 51 50
3 12 7 59
3 24 49 54
3 26 61 15
3 26 34 35
3 0 9 33
3 40 79 17
3 39 46 32
3 52 70 23
3 20 53 45
3 43 56 16
3 35 47 26
3 15 32 8
3 0 33 44
3 33 27 18
3 22 41 15
3 1 35 34
3 46 54 67
3 36 23 72
3 16 66 43
3 38 55 53
3 57 8 46
3 24 39 11
3 40 5 6
3 50 17 79
3 41 73 34
3 13 10 71
3 43 55 64
3 43 64 56
3 42 63 23
3 72 65 57
3 52 20 58
3 45 53 55
3 32 46 8
3 54 46 39
3 32 15 61
3 8 29 48
3 48 59 22
3 28 18 10
3 15 41 26
3 5 40 27
3 13 71 31
3 50 48 29
3 21 51 10
3 29 57 65
3 36 52 23
3 37 4 58
3 38 53 2
3 53 20 62
3 54 78 67
3 55 43 45
3 14 55 60
3 8 57 29
3 67 36 72
3 58 66 37
3 4 68 70
3 12 59 79
3 22 59 7
3 38 60 55
3 39 61 11
3 47 61 26
3 53 62 2
3 52 30 20
3 63 42 71
3 63 51 65
3 31 42 68
3 18 27 21
3 21 40 17
3 56 64 74
3 29 65 51
3 65 72 63
3 66 16 37
3 45 66 58
3 2 62 49
3 67 78 36
3 46 67 57
3 70 68 42
3 69 75 76
3 23 70 42
3 63 71 10
3 31 71 42
3 67 72 57
3 41 19 73
3 74 64 75
3 74 75 25
3 14 75 64
3 3 25 69
3 70 58 4
3 14 76 75
3 77 79 6
3 30 78 62
3 54 39 24
3 62 78 49
3 12 79 77
3 50 79 59
3 78 54 49
3 93 107 116
3 129 120 119
3 104 145 109
3 125 133 14
3 96 121 92
3 90 119 85
3 113 94 97
3 130 11 47
3 101 82 86
3 138 128 122
3 93 87 96
3 112 146 83
3 132 98 140
3 135 115 117
3 111 130 106
3 101 96 112
3 132 121 87
3 86 107 101
3 87 102 89
3 97 94 84
3 122 104 109
3 95 128 117
3 121 120 92
3 102 93 116
3 143 99 69
3 119 90 97
3 141 108 1
3 100 108 113
3 104 95 131
3 120 121 103
3 129 84 88
3 124 49 24
3 90 130 100
3 35 108 100
3 107 86 80
3 92 146 112
3 106 118 111
3 98 138 122
3 117 123 95
3 91 126 115
3 100 47 35
3 85 106 90
3 116 107 80
3 93 101 107
3 90 113 97
3 108 35 1
3 136 124 118
3 140 98 109
3 115 135 91
3 123 125 38
3 118 85 127
3 11 111 24
3 83 82 112
3 146 92 120
3 108 141 113
3 139 87 89
3 133 125 115
3 126 133 115
3 98 132 114
3 127 134 140
3 128 95 122
3 125 123 117
3 85 118 106
3 111 118 124
3 130 90 106
3 119 103 85
3 97 129 119
3 87 93 102
3 100 113 90
3 101 112 82
3 105 139 89
3 103 119 120
3 87 121 96
3 134 127 103
3 98 122 109
3 128 81 110
3 2 123 38
3 131 95 123
3 136 145 124
3 117 115 125
3 60 125 14
3 103 127 85
3 140 109 136
3 110 135 128
3 138 137 81
3 146 129 88
3 84 129 97
3 125 60 38
3 11 130 111
3 100 130 47
3 2 131 123
3 95 104 122
3 139 114 132
3 134 121 132
3 137 114 105
3 96 101 93
3 92 112 96
3 142 133 126
3 121 134 103
3 132 140 134
3 110 91 135
3 128 135 117
3 49 131 2
3 109 145 136
3 127 136 118
3 114 137 138
3 76 143 69
3 114 138 98
3 87 139 132
3 114 139 105
3 127 140 136
3 141 94 113
3 143 133 142
3 99 143 142
3 133 143 14
3 69 99 3
3 81 128 138
3 143 76 14
3 83 146 144
3 131 145 104
3 24 111 124
3 49 145 131
3 144 146 88
3 129 146 120
3 49 124 145
3 160 172 44
3 195 187 185
3 170 212 175
3 192 200 157
3 163 188 159
3 158 185 152
3 179 161 164
3 197 155 184
3 168 149 153
3 205 194 189
3 160 154 163
3 178 213 150
3 199 165 207
3 202 181 182
3 177 197 171
3 168 163 178
3 199 188 154
3 153 172 168
3 154 28 13
3 164 161 151
3 189 170 175
3 162 194 182
3 188 187 159
3 28 160 44
3 209 25 204
3 185 158 164
3 208 173 147
3 167 173 179
3 170 162 198
3 187 188 169
3 195 151 156
3 191 186 166
3 158 197 167
3 174 173 167
3 172 153 0
3 159 213 178
3 171 183 177
3 165 205 189
3 182 190 162
3 16 56 181
3 167 184 174
3 152 171 158
3 44 172 0
3 160 168 172
3 158 179 164
3 173 174 147
3 203 191 183
3 207 165 175
3 181 202 16
3 190 192 176
3 183 152 193
3 155 177 166
3 150 149 178
3 213 159 187
3 173 208 179
3 206 154 13
3 200 192 181
3 56 200 181
3 165 199 180
3 193 201 207
3 194 162 189
3 192 190 182
3 152 183 171
3 177 183 191
3 197 158 171
3 185 169 152
3 164 195 185
3 154 160 28
3 167 179 158
3 168 178 149
3 31 206 13
3 169 185 187
3 154 188 163
3 201 193 169
3 165 189 175
3 194 4 37
3 148 190 176
3 198 162 190
3 203 212 191
3 182 181 192
3 196 192 157
3 169 193 152
3 207 175 203
3 37 202 194
3 205 68 4
3 213 195 156
3 151 195 164
3 192 196 176
3 155 197 177
3 167 197 184
3 148 198 190
3 162 170 189
3 206 180 199
3 201 188 199
3 68 180 31
3 163 168 160
3 159 178 163
3 74 200 56
3 188 201 169
3 199 207 201
3 37 16 202
3 194 202 182
3 186 198 148
3 175 212 203
3 193 203 183
3 180 68 205
3 210 209 204
3 180 205 165
3 154 206 199
3 180 206 31
3 193 207 203
3 208 161 179
3 209 200 74
3 25 209 74
3 200 209 157
3 204 25 3
3 4 194 205
3 209 210 157
3 150 213 211
3 198 212 170
3 166 177 191
3 186 212 198
3 211 213 156
3 195 213 187
3 186 191 212
3 506 234 223
3 244 245 253
3 236 267 232
3 157 257 250
3 222 246 226
3 217 244 221
3 227 224 239
3 184 155 254
3 218 214 230
3 247 252 261
3 226 219 223
3 215 268 238
3 263 228 256
3 242 241 259
3 233 254 237
3 238 226 230
3 219 246 256
3 230 234 218
3 479 492 219
3 216 224 227
3 236 232 247
3 242 252 225
3 222 245 246
3 506 223 492
3 204 489 265
3 227 221 244
3 147 235 264
3 239 235 229
3 255 225 232
3 231 246 245
3 220 216 253
3 166 186 249
3 229 254 221
3 229 235 174
3 470 218 234
3 238 268 222
3 237 243 233
3 247 261 228
3 225 248 242
3 241 516 481
3 174 184 229
3 221 233 217
3 470 234 506
3 234 230 223
3 227 239 221
3 147 174 235
3 243 249 260
3 236 228 263
3 481 259 241
3 176 250 248
3 251 217 243
3 166 237 155
3 238 214 215
3 245 222 268
3 239 264 235
3 479 219 262
3 241 250 257
3 241 257 516
3 240 256 228
3 263 258 251
3 247 225 252
3 242 248 250
3 233 243 217
3 249 243 237
3 233 221 254
3 217 231 244
3 244 253 227
3 492 223 219
3 221 239 229
3 214 238 230
3 479 262 495
3 245 244 231
3 226 246 219
3 231 251 258
3 236 247 228
3 500 471 252
3 176 248 148
3 248 225 255
3 249 267 260
3 250 241 242
3 157 250 196
3 217 251 231
3 260 236 263
3 252 259 500
3 471 527 261
3 220 253 268
3 227 253 216
3 176 196 250
3 237 254 155
3 184 254 229
3 248 255 148
3 247 232 225
3 256 240 262
3 256 246 258
3 495 240 527
3 223 230 226
3 226 238 222
3 516 257 532
3 231 258 246
3 258 263 256
3 259 481 500
3 242 259 252
3 148 255 186
3 260 267 236
3 243 260 251
3 261 527 240
3 204 265 210
3 228 261 240
3 256 262 219
3 495 262 240
3 260 263 251
3 239 224 264
3 532 257 265
3 532 265 489
3 157 265 257
3 3 489 204
3 261 252 471
3 157 210 265
3 266 268 215
3 232 267 255
3 249 237 166
3 255 267 186
3 220 268 266
3 245 268 253
3 267 249 186
3 282 294 434
3 317 309 307
3 292 334 297
3 314 322 279
3 285 310 281
3 280 307 274
3 301 283 286
3 319 277 306
3 290 271 275
3 327 316 311
3 282 276 285
3 300 335 272
3 321 287 329
3 324 303 304
3 299 319 293
3 290 285 300
3 321 310 276
3 275 294 290
3 276 418 403
3 286 283 273
3 311 292 297
3 284 316 304
3 310 309 281
3 418 282 434
3 331 415 326
3 307 280 286
3 330 295 269
3 289 295 301
3 292 284 320
3 309 310 291
3 317 273 278
3 313 308 288
3 280 319 289
3 296 295 289
3 294 275 391
3 281 335 300
3 293 305 299
3 287 327 311
3 304 312 284
3 406 446 303
3 289 306 296
3 274 293 280
3 434 294 391
3 282 290 294
3 280 301 286
3 295 296 269
3 325 313 305
3 329 287 297
3 303 324 406
3 312 314 298
3 305 274 315
3 277 299 288
3 272 271 300
3 335 281 309
3 295 330 301
3 328 276 403
3 322 314 303
3 446 322 303
3 287 321 302
3 315 323 329
3 316 284 311
3 314 312 304
3 274 305 293
3 299 305 313
3 319 280 293
3 307 291 274
3 286 317 307
3 276 282 418
3 289 301 280
3 290 300 271
3 421 328 403
3 291 307 309
3 276 310 285
3 323 315 291
3 287 311 297
3 316 394 427
3 270 312 298
3 320 284 312
3 325 334 313
3 304 303 314
3 318 314 279
3 291 315 274
3 329 297 325
3 427 324 316
3 327 458 394
3 335 317 278
3 273 317 286
3 314 318 298
3 277 319 299
3 289 319 306
3 270 320 312
3 284 292 311
3 328 302 321
3 323 310 321
3 458 302 421
3 285 290 282
3 281 300 285
3 464 322 446
3 310 323 291
3 321 329 323
3 427 406 324
3 316 324 304
3 308 320 270
3 297 334 325
3 315 325 305
3 302 458 327
3 332 331 326
3 302 327 287
3 276 328 321
3 302 328 421
3 315 329 325
3 330 283 301
3 331 322 464
3 415 331 464
3 322 331 279
3 326 415 3
3 394 316 327
3 331 332 279
3 272 335 333
3 320 334 292
3 288 299 313
3 308 334 320
3 333 335 278
3 317 335 309
3 308 313 334
3 116 356 345
3 366 367 375
3 358 389 354
3 279 379 372
3 344 368 348
3 339 366 343
3 349 346 361
3 306 277 376
3 340 336 352
3 369 374 383
3 348 341 345
3 337 390 360
3 385 350 378
3 364 363 381
3 355 376 359
3 360 348 352
3 341 368 378
3 352 356 340
3 89 102 341
3 338 346 349
3 358 354 369
3 364 374 347
3 344 367 368
3 116 345 102
3 326 99 387
3 349 343 366
3 269 357 386
3 361 357 351
3 377 347 354
3 353 368 367
3 342 338 375
3 288 308 371
3 351 376 343
3 351 357 296
3 80 340 356
3 360 390 344
3 359 365 355
3 369 383 350
3 347 370 364
3 363 126 91
3 296 306 351
3 343 355 339
3 80 356 116
3 356 352 345
3 349 361 343
3 269 296 357
3 365 371 382
3 358 350 385
3 91 381 363
3 298 372 370
3 373 339 365
3 288 359 277
3 360 336 337
3 367 344 390
3 361 386 357
3 89 341 384
3 363 372 379
3 363 379 126
3 362 378 350
3 385 380 373
3 369 347 374
3 364 370 372
3 355 365 339
3 371 365 359
3 355 343 376
3 339 353 366
3 366 375 349
3 102 345 341
3 343 361 351
3 336 360 352
3 89 384 105
3 367 366 353
3 348 368 341
3 353 373 380
3 358 369 350
3 110 81 374
3 298 370 270
3 370 347 377
3 371 389 382
3 372 363 364
3 279 372 318
3 339 373 353
3 382 358 385
3 374 381 110
3 81 137 383
3 342 375 390
3 349 375 338
3 298 318 372
3 359 376 277
3 306 376 351
3 370 377 270
3 369 354 347
3 378 362 384
3 378 368 380
3 105 362 137
3 345 352 348
3 348 360 344
3 126 379 142
3 353 380 368
3 380 385 378
3 381 91 110
3 364 381 374
3 270 377 308
3 382 389 358
3 365 382 373
3 383 137 362
3 326 387 332
3 350 383 362
3 378 384 341
3 105 384 362
3 382 385 373
3 361 346 386
3 142 379 387
3 142 387 99
3 279 387 379
3 3 99 326
3 383 374 81
3 279 332 387
3 388 390 337
3 354 389 377
3 371 359 288
3 377 389 308
3 342 390 388
3 367 390 375
3 389 371 308
3 434 423 408
3 438 440 449
3 426 468 420
3 404 454 445
3 407 441 411
3 398 438 405
3 412 409 431
3 437 401 451
3 399 395 417
3 442 448 460
3 411 400 408
3 396 469 430
3 462 413 453
3 435 433 456
3 422 451 429
3 430 411 417
3 400 441 453
3 417 423 399
3 403 418 400
3 397 409 412
3 426 420 442
3 435 448 410
3 407 440 441
3 434 408 418
3 459 415 465
3 412 405 438
3 392 424 463
3 431 424 416
3 452 410 420
3 419 441 440
3 402 397 449
3 414 439 444
3 416 451 405
3 416 424 425
3 391 399 423
3 430 469 407
3 429 436 422
3 442 460 413
3 410 443 435
3 433 446 406
3 425 437 416
3 405 422 398
3 391 423 434
3 423 417 408
3 412 431 405
3 392 425 424
3 436 444 457
3 426 413 462
3 406 456 433
3 428 445 443
3 447 398 436
3 414 429 401
3 430 395 396
3 440 407 469
3 431 463 424
3 403 400 461
3 433 445 454
3 433 454 446
3 432 453 413
3 462 455 447
3 442 410 448
3 435 443 445
3 422 436 398
3 444 436 429
3 422 405 451
3 398 419 438
3 438 449 412
3 418 408 400
3 405 431 416
3 395 430 417
3 403 461 421
3 440 438 419
3 411 441 400
3 419 447 455
3 426 442 413
3 427 394 448
3 428 443 393
3 443 410 452
3 444 468 457
3 445 433 435
3 404 445 450
3 398 447 419
3 457 426 462
3 448 456 427
3 394 458 460
3 402 449 469
3 412 449 397
3 428 450 445
3 429 451 401
3 437 451 416
3 443 452 393
3 442 420 410
3 453 432 461
3 453 441 455
3 421 432 458
3 408 417 411
3 411 430 407
3 446 454 464
3 419 455 441
3 455 462 453
3 456 406 427
3 435 456 448
3 393 452 439
3 457 468 426
3 436 457 447
3 460 458 432
3 459 465 466
3 413 460 432
3 453 461 400
3 421 461 432
3 457 462 447
3 431 409 463
3 464 454 465
3 464 465 415
3 404 465 454
3 3 415 459
3 460 448 394
3 404 466 465
3 467 469 396
3 420 468 452
3 444 429 414
3 452 468 439
3 402 469 467
3 440 469 449
3 468 444 439
3 483 497 506
3 519 510 509
3 494 535 499
3 515 523 404
3 486 511 482
3 480 509 475
3 503 484 487
3 520 401 437
3 491 472 476
3 528 518 512
3 483 477 486
3 502 536 473
3 522 488 530
3 525 505 507
3 501 520 496
3 491 486 502
3 522 511 477
3 476 497 491
3 477 492 479
3 487 484 474
3 512 494 499
3 485 518 507
3 511 510 482
3 492 483 506
3 533 489 459
3 509 480 487
3 531 498 392
3 490 498 503
3 494 485 521
3 510 511 493
3 519 474 478
3 514 439 414
3 480 520 490
3 425 498 490
3 497 476 470
3 482 536 502
3 496 508 501
3 488 528 512
3 507 513 485
3 481 516 505
3 490 437 425
3 475 496 480
3 506 497 470
3 483 491 497
3 480 503 487
3 498 425 392
3 526 514 508
3 530 488 499
3 505 525 481
3 513 515 428
3 508 475 517
3 401 501 414
3 473 472 502
3 536 482 510
3 498 531 503
3 529 477 479
3 523 515 505
3 516 523 505
3 488 522 504
3 517 524 530
3 518 485 512
3 515 513 507
3 475 508 496
3 501 508 514
3 520 480 496
3 509 493 475
3 487 519 509
3 477 483 492
3 490 503 480
3 491 502 472
3 495 529 479
3 493 509 510
3 477 511 486
3 524 517 493
3 488 512 499
3 518 471 500
3 393 513 428
3 521 485 513
3 526 535 514
3 507 505 515
3 450 515 404
3 493 517 475
3 530 499 526
3 500 525 518
3 528 527 471
3 536 519 478
3 474 519 487
3 515 450 428
3 401 520 501
3 490 520 437
3 393 521 513
3 485 494 512
3 529 504 522
3 524 511 522
3 527 504 495
3 486 491 483
3 482 502 486
3 532 523 516
3 511 524 493
3 522 530 524
3 500 481 525
3 518 525 507
3 439 521 393
3 499 535 526
3 517 526 508
3 504 527 528
3 466 533 459
3 504 528 488
3 477 529 522
3 504 529 495
3 517 530 526
3 531 484 503
3 533 523 532
3 489 533 532
3 523 533 404
3 459 489 3
3 471 518 528
3 533 466 404
3 473 536 534
3 521 535 494
3 414 501 514
3 439 535 521
3 534 536 478
3 519 536 510
3 439 514 535
