# pattern_smooth remeshed on the second hand-drawn cable layout
v -0.0793893100 -1.0961832100 0.0000000000
v -0.0693846400 -1.0769649800 0.0142213800
v -0.0571201700 -1.0534058200 0.0316550100
v -0.0460169800 -1.0320774700 0.0474379000
v -0.0356795300 -1.0123350300 0.0619839500
v -0.0234264100 -0.9923261600 0.0748483600
v -0.0104957800 -0.9712109400 0.0884240600
v 0.0016809500 -0.9513268600 0.1012082600
v 0.0148327600 -0.9298505300 0.1150162000
v 0.0323075400 -0.9095564500 0.1252200300
v 0.0518412900 -0.8871916700 0.1363095500
v 0.0719936600 -0.8641186300 0.1477502700
v 0.0914628000 -0.8418278100 0.1588031100
v 0.1108376200 -0.8220595000 0.1660546700
v 0.1319359600 -0.8018824500 0.1718559900
v 0.1539179200 -0.7808604200 0.1779002600
v 0.1733557000 -0.7622714400 0.1832449800
v 0.2005153400 -0.7511334800 0.1759063400
v 0.2277759700 -0.7399541500 0.1685404100
v 0.2546456000 -0.7289351700 0.1612801400
v 0.2799465100 -0.7214876600 0.1486076200
v 0.3061833000 -0.7145776900 0.1338460300
v 0.3316314200 -0.7078754200 0.1195281700
v 0.3563484000 -0.7013657000 0.1056216800
v 0.3850836800 -0.6937976400 0.0894543700
v 0.4139825900 -0.6861864900 0.0731949900
v 0.4382872900 -0.6825319100 0.0544214000
v 0.4578310600 -0.6803705000 0.0378822800
v 0.4791043200 -0.6780178000 0.0198795800
v 0.5025954200 -0.6754198500 0.0000000000
v 0.4903929400 -0.6468202800 0.0000000000
v 0.4770515600 -0.6180381900 0.0000000000
v 0.4621990900 -0.5893817100 0.0000000000
v 0.4471190700 -0.5602861100 0.0000000000
v 0.4346633800 -0.5362539900 0.0000000000
v 0.4219944200 -0.5069522300 0.0000000000
v 0.4093610600 -0.4758701500 0.0000000000
v 0.3982656300 -0.4485718700 0.0000000000
v 0.3881201500 -0.4167165500 0.0000000000
v 0.3800858800 -0.3847803500 0.0000000000
v 0.3719237200 -0.3523357400 0.0000000000
v 0.3649660800 -0.3194978500 0.0000000000
v 0.3598605600 -0.2911337300 0.0000000000
v 0.3544627000 -0.2611457100 0.0000000000
v 0.3512071000 -0.2318422200 0.0000000000
v 0.3500379400 -0.2014444700 0.0000000000
v 0.3488988700 -0.1718289500 0.0000000000
v 0.3495644200 -0.1363219500 0.0000000000
v 0.3523664100 -0.1087022900 0.0000000000
v 0.3293754100 -0.1216163700 0.0072861300
v 0.3004127300 -0.1378464600 0.0164175700
v 0.2739155500 -0.1525670800 0.0246140900
v 0.2501160500 -0.1657890200 0.0319761300
v 0.2248732000 -0.1798127900 0.0397846400
v 0.1978331700 -0.1944694500 0.0477674600
v 0.1714070700 -0.2086278900 0.0553963300
v 0.1430544200 -0.2222689100 0.0624898300
v 0.1170002000 -0.2334619300 0.0680628800
v 0.0900815100 -0.2449634700 0.0737697200
v 0.0563489700 -0.2576959600 0.0795546500
v 0.0228900600 -0.2703251700 0.0852926600
v -0.0093009500 -0.2807372100 0.0897144800
v -0.0412045000 -0.2901929600 0.0935512300
v -0.0707726300 -0.2956107400 0.0955805900
v -0.1040862000 -0.3007226000 0.0974143100
v -0.1385560100 -0.3038725200 0.0983501000
v -0.1698540600 -0.3053662900 0.0985856800
v -0.2007152900 -0.3068392000 0.0988179600
v -0.2293834600 -0.3037049400 0.0972545900
v -0.2619852700 -0.2988510900 0.0949671600
v -0.2957961800 -0.2937123500 0.0925443500
v -0.3275522200 -0.2856781300 0.0887225900
v -0.3636479100 -0.2765459700 0.0843785700
v -0.3969147700 -0.2662532400 0.0795218700
v -0.4262350200 -0.2545036900 0.0740237100
v -0.4536473500 -0.2435186800 0.0688833200
v -0.4818707900 -0.2300916400 0.0625402100
v -0.5097512400 -0.2159247200 0.0558260200
v -0.5328886500 -0.2041678900 0.0502540500
v -0.5548747600 -0.1929960500 0.0449593300
v -0.5848661500 -0.1738598100 0.0358439000
v -0.6126996400 -0.1560731000 0.0273710500
v -0.6390276100 -0.1392483900 0.0193564600
v -0.6674820300 -0.1199471600 0.0101060900
v -0.6974045800 -0.0989313000 0.0000000000
v -0.6835115200 -0.1237362600 0.0094654500
v -0.6680459100 -0.1513489700 0.0200023300
v -0.6564635000 -0.1720285300 0.0278935500
v -0.6448909400 -0.1929917100 0.0358109800
v -0.6342820400 -0.2170070800 0.0435934000
v -0.6224231400 -0.2438520200 0.0522927800
v -0.6104922700 -0.2708599900 0.0610450000
v -0.5988827300 -0.2979714900 0.0695877100
v -0.5903688600 -0.3273144900 0.0761508200
v -0.5818294100 -0.3567457400 0.0827336500
v -0.5727157000 -0.3881562000 0.0897591800
v -0.5639276400 -0.4198929500 0.0964560500
v -0.5578937900 -0.4550318300 0.1003390500
v -0.5521359100 -0.4885635600 0.1040444600
v -0.5467063000 -0.5201838700 0.1075386400
v -0.5414553800 -0.5507633200 0.1109178100
v -0.5410318800 -0.5843954300 0.1097921500
v -0.5408774900 -0.6165957100 0.1084872400
v -0.5407226600 -0.6488832900 0.1071787800
v -0.5405698000 -0.6807665600 0.1058867100
v -0.5448049900 -0.7101010100 0.1015771500
v -0.5537113800 -0.7400502400 0.0939091800
v -0.5624022300 -0.7692745900 0.0864267900
v -0.5705005100 -0.7965062200 0.0794545900
v -0.5787604700 -0.8242816700 0.0723431400
v -0.5876428700 -0.8541501700 0.0646958200
v -0.5950810000 -0.8767994800 0.0584092100
v -0.6069003800 -0.8988952900 0.0491091500
v -0.6191298200 -0.9217575900 0.0394864700
v -0.6312675900 -0.9444486500 0.0299358600
v -0.6429389300 -0.9662675900 0.0207523200
v -0.6560244200 -0.9907301900 0.0104560700
v -0.6693129800 -1.0155725200 0.0000000000
v -0.6537883200 -1.0017290400 0.0089105900
v -0.6342566200 -0.9843124600 0.0201210300
v -0.6153701600 -0.9674712200 0.0309611600
v -0.5928195100 -0.9473625400 0.0439044000
v -0.5695336400 -0.9265982800 0.0572696200
v -0.5470763900 -0.9069725100 0.0698981900
v -0.5186366100 -0.8886864100 0.0815991900
v -0.4937415000 -0.8726795100 0.0918417900
v -0.4680290200 -0.8566993700 0.1021572300
v -0.4357025700 -0.8522916400 0.1076447800
v -0.3982419600 -0.8471839200 0.1140038800
v -0.3655629400 -0.8515068900 0.1145872300
v -0.3318490200 -0.8576561000 0.1142338300
v -0.3074007000 -0.8716069300 0.1089945000
v -0.2804014700 -0.8871883900 0.1031166500
v -0.2536214100 -0.9026434300 0.0972865000
v -0.2330465200 -0.9211989400 0.0886980800
v -0.2115134100 -0.9411714300 0.0793696500
v -0.1892252500 -0.9618443600 0.0697141400
v -0.1677745400 -0.9830474700 0.0595303600
v -0.1489586300 -1.0071324100 0.0468572300
v -0.1301427300 -1.0312172700 0.0341841000
v -0.1121532300 -1.0542443900 0.0220675800
v -0.0940632300 -1.0774001800 0.0098833700
v -0.1229772642 -0.8240000000 0.1051132911
v -0.3214566817 -0.3160154882 0.0984110498
v -0.3198342531 -0.3469287767 0.1076845312
v -0.3196858124 -0.3778989181 0.1165472668
v -0.3196383372 -0.4088694902 0.1249453936
v -0.3196937580 -0.4398400559 0.1328434596
v -0.3197292496 -0.4708106519 0.1384134138
v -0.3197323315 -0.5017812729 0.1440777720
v -0.3197323709 -0.5327518942 0.1487341554
v -0.3197323710 -0.5637225154 0.1505381387
v -0.3197323614 -0.5946931367 0.1526734695
v -0.3197315299 -0.6256637579 0.1535636203
v -0.3197208237 -0.6566343768 0.1528211074
v -0.3197011028 -0.6876049913 0.1517785975
v -0.3197144370 -0.7185756079 0.1497196743
v -0.3197302708 -0.7495462246 0.1443439943
v -0.3197300796 -0.7805168455 0.1381153124
v -0.3195763605 -0.8114866826 0.1307391761
v -0.3172020982 -0.8423283735 0.1200323428
v -0.1302629446 -0.3333727669 0.1076700575
v -0.1284795776 -0.3640315834 0.1173202468
v -0.1271459357 -0.3947295322 0.1260112363
v -0.1244938610 -0.4253436611 0.1312106821
v -0.1216227669 -0.4559391122 0.1352363473
v -0.1193506260 -0.4865835634 0.1392015823
v -0.1183200500 -0.5172932963 0.1425353539
v -0.1186312193 -0.5480194256 0.1432115897
v -0.1201367627 -0.5787103474 0.1408493921
v -0.1228990240 -0.6093140156 0.1389030130
v -0.1260839435 -0.6398780544 0.1378706961
v -0.1279614358 -0.6705463110 0.1354562639
v -0.1284007958 -0.7012713969 0.1302367403
v -0.1273781918 -0.7319796873 0.1256118411
v -0.1248393463 -0.7626038167 0.1211098876
v -0.1229714719 -0.7932725469 0.1127922875
v -0.1151845273 -0.8537897038 0.0963790453
v -0.1083829714 -0.8838214342 0.0864887409
v -0.1013552165 -0.9138006137 0.0801359758
v -0.0936326567 -0.9436093920 0.0694853376
v -0.0861726174 -0.9734834146 0.0583395954
v -0.0814111777 -1.0038796113 0.0449701740
v -0.0810982338 -1.0346566251 0.0321150687
v -0.0811842013 -1.0654439890 0.0165735316
v 0.3315061366 -0.1316952428 0.0075098390
v 0.3114871012 -0.1554276640 0.0175594309
v 0.2906575349 -0.1784459983 0.0300997234
v 0.2686553502 -0.2003502207 0.0435558398
v 0.2463362328 -0.2219338394 0.0589945727
v 0.2245347500 -0.2440374062 0.0749178047
v 0.2039199548 -0.2672479807 0.0907362284
v 0.1844730726 -0.2914493396 0.1073176644
v 0.1660513570 -0.3164380588 0.1227810797
v 0.1486677748 -0.3421628813 0.1380603940
v 0.1311396774 -0.3677890531 0.1516437392
v 0.1130277482 -0.3930070806 0.1629706298
v 0.0951293413 -0.4183761432 0.1726621302
v 0.0778964381 -0.4442025810 0.1810246149
v 0.0603709414 -0.4698298334 0.1868951413
v 0.0419075131 -0.4947895405 0.1894790858
v 0.0226618849 -0.5191525201 0.1886670832
v 0.0033323546 -0.5434491025 0.1861979675
v -0.0148483118 -0.5686096066 0.1822983838
v -0.0313117280 -0.5949287762 0.1767229821
v -0.0470615669 -0.6216858024 0.1694149314
v -0.0622996423 -0.6487355975 0.1614019068
v -0.0761330826 -0.6765245453 0.1517748636
v -0.0874509342 -0.7054182481 0.1416697676
v -0.0954383510 -0.7354058547 0.1322694814
v -0.1018282150 -0.7657889610 0.1227685124
v -0.1105260706 -0.7955688441 0.1145261083
v -0.3444042254 -0.8309965123 0.1233130605
v 0.4439414275 -0.6442179595 0.0449749705
v 0.3354600930 -0.1538173134 0.0076045911
v 0.4659582500 -0.6565036373 0.0257092335
v -0.6116236132 -0.9403646293 0.0383622598
v -0.5942917157 -0.9225552761 0.0489813087
v -0.5607888879 -0.8755151441 0.0725649178
v -0.6316759410 -0.1720206121 0.0277205800
v -0.5651654114 -0.2404681686 0.0562573547
v -0.0593599709 -1.0125132264 0.0515449342
v -0.0486337180 -0.9623727317 0.0803346916
v 0.3315881061 -0.6575317237 0.1469620175
v 0.4225680968 -0.6606379913 0.0659691359
v 0.3248909519 -0.1757223867 0.0162524969
v 0.4635365142 -0.6349728556 0.0219689358
v 0.4527136626 -0.6124751563 0.0235519449
v -0.5777990254 -0.8993860727 0.0604429081
v -0.6178361490 -0.1953910820 0.0355899022
v -0.5537905443 -0.2180825028 0.0529203202
v -0.0616214559 -0.9858118920 0.0634353014
v -0.0310377934 -0.9731482004 0.0814886356
v -0.0228615104 -0.9499678724 0.0952608901
v 0.3382161279 -0.6826978880 0.1259621570
v 0.4278079853 -0.5887506206 0.0530788491
v -0.5848194867 -0.2068568920 0.0441093665
v -0.5304468349 -0.2440269804 0.0643678428
v -0.0433452147 -0.9938844394 0.0673917003
v 0.3680094310 -0.6613953206 0.1123741506
v 0.3023462735 -0.6786890502 0.1578324558
v -0.5283566878 -0.2238945961 0.0578558994
v 0.3490645508 -0.6663848405 0.1253535057
v 0.3519730345 -0.6389671686 0.1391885486
v 0.3191124057 -0.6911514893 0.1367272580
v -0.5232653293 -0.8256690953 0.0951703148
v -0.4868017199 -0.7035023342 0.1285033304
v -0.2734508356 -0.8439618929 0.1186244890
v -0.1449290608 -0.9384830563 0.0718428753
v -0.1758338844 -0.8537409582 0.1087350685
v -0.2607195835 -0.7340910816 0.1443513805
v -0.2607234022 -0.6411286707 0.1523721241
v -0.3787329538 -0.7650318993 0.1381636818
v -0.0919258567 -0.6279895297 0.1475553141
v -0.1095118326 -0.7160135553 0.1296394223
v -0.1061920266 -0.6862232917 0.1368452912
v -0.1127482104 -0.7461841158 0.1229894011
v -0.1154339634 -1.0003340526 0.0434944982
v -0.4858232894 -0.5254699573 0.1327673999
v -0.2607280119 -0.4863018340 0.1416017101
v -0.0674962803 -0.4049840736 0.1314108411
v -0.2606593891 -0.3932937582 0.1217038069
v -0.3786647605 -0.3934746501 0.1198118123
v -0.0811878764 -0.3458994363 0.1130105657
v -0.3519901333 -0.3063693740 0.0943181440
v -0.2870328643 -0.3297080351 0.1039790878
v -0.3139594871 -0.2987280607 0.0933702511
v -0.3009706543 -0.3146304467 0.0988691251
v -0.4608689576 -0.3012349890 0.0890246298
v -0.1827881729 -0.3584108461 0.1131870754
v -0.1532834663 -0.3239284711 0.1043423152
v -0.1799036099 -0.3310150312 0.1058455652
v -0.1201944583 -0.3146265385 0.1018864762
v -0.1045667911 -0.3350970402 0.1088025342
v -0.1024430733 -0.3612007385 0.1172289594
v -0.0830758471 -0.3192855261 0.1038656504
v -0.0758109524 -0.3757821350 0.1230203386
v -0.0931147779 -1.0500168733 0.0225696332
v -0.1052825007 -1.0281174058 0.0323831142
v -0.0545696707 -0.8558477824 0.1289257637
v -0.0267460102 -0.7125332730 0.1817745208
v -0.0718672930 -0.5656958185 0.1551477600
v 0.1928476793 -0.6936090179 0.2195717479
v -0.0332908082 -0.4944757184 0.1604715839
v 0.1887246827 -0.3883691128 0.1671408916
v 0.0740403205 -0.3458926512 0.1308413548
v 0.1114990240 -0.2983101495 0.1080799142
v 0.1651647550 -0.2560203342 0.0849551894
v 0.1979309083 -0.2263926658 0.0670351737
v 0.2584463038 -0.2949163715 0.0893187500
v 0.2436172025 -0.1967905045 0.0470902669
v 0.2210089300 -0.2119540771 0.0572726008
v 0.2699613892 -0.1734801154 0.0323366774
v 0.2923192189 -0.1590160469 0.0233142386
v 0.3089074399 -0.2187799261 0.0344810000
v -0.3516988600 -0.7961608229 0.1325879994
v -0.5594539188 -0.8462781101 0.0782434011
v -0.5934956886 -0.2472124499 0.0530161065
v -0.0565876491 -0.9181074115 0.0987524653
v -0.0715373252 -0.9539602801 0.0740274790
v -0.0535641006 -0.9404113889 0.0891863254
v -0.0745608737 -0.9316563027 0.0833713213
v -0.0322930504 -0.9261709387 0.1042044364
v -0.0088922464 -0.9300868205 0.1090789072
v -0.0330127654 -0.8877090097 0.1231627977
v 0.0026889440 -0.9017231489 0.1257087042
v -0.0394377804 -0.9070669355 0.1115439944
v -0.0176862496 -0.9098200882 0.1167717501
v -0.0636592138 -0.8882824783 0.1090723435
v -0.5601608504 -0.8939587504 0.0682633357
v -0.5399790613 -0.8867519707 0.0773843918
v -0.5265770735 -0.8575909987 0.0881285623
v 0.4170145011 -0.5606451992 0.0551994148
v 0.4111630392 -0.6236720200 0.0793443595
v -0.6078906081 -0.2200220350 0.0435616394
v -0.5435261593 -0.2978164332 0.0765218933
v 0.3668045289 -0.6827299951 0.1044143661
v 0.3938649965 -0.6684706097 0.0901193048
v 0.2542105808 -0.6807570396 0.1978747969
v 0.2878900620 -0.6983840704 0.1553817873
v 0.2781210843 -0.6760606436 0.1803978302
v 0.2639795586 -0.7030804665 0.1712327764
v 0.2945939112 -0.6371879701 0.1979263762
v 0.2291003416 -0.7050447768 0.1940961712
v 0.2922157402 -0.6591068172 0.1821479981
v 0.3115738595 -0.6501187140 0.1721918315
v 0.2586554756 -0.6443771271 0.2248588338
v 0.3288891750 -0.6340939672 0.1667581692
v 0.2632170677 -0.6633959568 0.2048421644
v 0.2354388019 -0.6600020104 0.2303833372
v 0.3497151428 -0.5925530236 0.1681106973
v 0.3447533802 -0.6160563885 0.1622649180
v 0.3781579008 -0.6181228627 0.1258656077
v 0.3066632799 -0.5957398227 0.2119233804
v 0.3222943922 -0.6122986575 0.1861496728
v 0.3011383350 -0.6166123285 0.2052156657
v 0.2641361596 -0.5956503874 0.2477192816
v 0.2749930323 -0.6196249837 0.2265950482
v -0.5508253389 -0.8174732037 0.0862246176
v -0.4955742602 -0.8410544391 0.0996160519
v -0.5042181094 -0.7706731741 0.1109152619
v -0.3787137295 -0.6721572548 0.1527204606
v -0.5166692680 -0.6991901776 0.1188001489
v -0.2946519847 -0.8250801819 0.1250068927
v -0.2956342301 -0.8513880884 0.1167826141
v -0.2786426061 -0.8652991431 0.1115430764
v -0.2572675544 -0.8780319783 0.1074657330
v -0.2189995219 -0.8849384457 0.1005957379
v -0.2392995306 -0.8879458572 0.1022482413
v -0.2336029407 -0.8563816326 0.1118998811
v -0.1633884454 -0.9571580009 0.0687825359
v -0.1361226672 -0.9750935368 0.0558273622
v -0.1788853259 -0.9233793683 0.0833555930
v -0.1441936911 -0.9576705666 0.0644518533
v -0.1174594949 -0.9558671039 0.0614521502
v -0.1791301421 -0.9439358118 0.0757568609
v -0.1346669062 -0.9057962625 0.0831274514
v -0.1455028092 -0.8458066030 0.1044780358
v -0.1823330494 -0.7814967084 0.1287666346
v -0.2841081884 -0.7031056268 0.1486449867
v -0.2922530324 -0.7340749600 0.1460214516
v -0.1827196742 -0.6185283780 0.1456921092
v -0.2607295870 -0.5792078079 0.1512474566
v -0.2841422786 -0.6101774918 0.1523495272
v -0.2922568533 -0.6411395715 0.1532281315
v -0.3553327830 -0.7340427103 0.1453642833
v -0.1117943546 -0.6259191368 0.1413993551
v -0.1040660851 -0.6481239861 0.1417619599
v -0.0996541262 -0.6057846805 0.1454281866
v -0.0831619418 -0.6470010521 0.1506691140
v -0.0717847349 -0.6085322142 0.1572299760
v -0.1304989524 -1.0121033270 0.0417690486
v -0.0972430814 -0.9907885858 0.0476137354
v -0.3787351454 -0.5792078442 0.1525108862
v -0.3787335692 -0.4862900909 0.1420462048
v -0.5169584629 -0.5308163029 0.1223870135
v -0.2841372088 -0.5172666288 0.1462910407
v -0.1770126271 -0.5320635459 0.1434016777
v -0.1813463486 -0.4461111681 0.1323311266
v -0.2841399035 -0.4553661181 0.1373061813
v -0.2922614652 -0.4862986960 0.1415144177
v -0.0986667629 -0.4076843447 0.1299849055
v 0.0203106746 -0.4236280163 0.1557343251
v -0.2921927927 -0.3933420961 0.1216668370
v -0.3551813164 -0.4242912197 0.1282472994
v -0.3471313569 -0.3934263122 0.1201819025
v -0.3340616797 -0.3027670967 0.0937776894
v -0.3435092540 -0.3326720974 0.1024943426
v -0.4496843159 -0.2733244919 0.0802476241
v -0.2190783781 -0.3421241962 0.1083399247
v -0.1576474451 -0.3806766963 0.1203479765
v -0.0446356653 -0.3299325293 0.1091687180
v -0.0992630284 -1.0101717712 0.0386666477
v -0.0851471709 -0.8627729437 0.1052235728
v 0.0179605433 -0.8372624479 0.1618295323
v -0.0513047190 -0.7967055746 0.1496861976
v -0.0561648012 -0.7010097408 0.1621413532
v 0.0829470695 -0.7717760856 0.1991327707
v 0.0117887236 -0.6383126373 0.2063116101
v -0.0981035411 -0.5644087992 0.1465866509
v -0.1003695720 -0.5850408735 0.1463899668
v -0.0832733006 -0.5301503383 0.1500588792
v -0.0985253748 -0.5438870079 0.1460391124
v -0.0434534798 -0.5690249919 0.1675267747
v 0.0786991217 -0.5436362797 0.2207658754
v 0.1740913930 -0.7253823740 0.2033599194
v -0.0085526815 -0.5141565262 0.1741683352
v -0.0742392478 -0.4678323085 0.1436283577
v 0.1870441692 -0.3493598792 0.1428857735
v 0.1626328038 -0.3705224754 0.1562259207
v 0.1524096773 -0.4397902416 0.1957130383
v 0.0997166378 -0.3643337304 0.1448549154
v 0.1362330419 -0.3150241941 0.1203019334
v 0.1149634376 -0.2659465947 0.0883317232
v 0.1390977199 -0.2489787974 0.0792797448
v 0.1822024665 -0.2697109029 0.0937107959
v 0.1907736764 -0.2483084854 0.0804559564
v 0.1572605129 -0.2833039224 0.1019806965
v 0.1893930052 -0.2104570485 0.0571094285
v 0.3099639961 -0.3147566284 0.0675089690
v 0.2599550155 -0.2571700447 0.0707142869
v 0.2210950499 -0.3009628458 0.1062150063
v 0.3325188758 -0.2173396484 0.0166793412
v 0.3294805084 -0.1963888608 0.0163652071
v 0.3226238344 -0.2493827865 0.0317010478
v 0.2922316053 -0.2020295122 0.0369543165
v 0.2783267734 -0.2309071392 0.0532624985
v -0.3319347713 -0.7960627237 0.1340095166
v -0.3419183226 -0.7756611371 0.1380875092
v -0.3626388176 -0.7783582730 0.1360810130
v -0.3548995640 -0.7568741644 0.1409436568
v -0.3960742395 -0.8023563619 0.1274626503
v -0.3741084529 -0.7976692175 0.1307969087
v -0.3796276374 -0.8256178593 0.1222781665
v -0.5718715658 -0.2751727940 0.0646891522
v -0.5830170026 -0.2283548597 0.0497637185
v -0.0485788411 -0.8750176415 0.1229871546
v -0.0196808069 -0.8554655954 0.1438756955
v -0.0868729682 -0.8945923508 0.0923151421
v -0.5126711405 -0.8706015431 0.0878748498
v -0.5463162378 -0.8615269738 0.0809541797
v 0.4321917463 -0.5709418479 0.0331921563
v 0.4237344576 -0.6400357571 0.0655780487
v 0.4001371182 -0.6451535245 0.0908926982
v -0.5711821851 -0.3058408277 0.0732916356
v 0.2364366115 -0.7228029042 0.1757580505
v 0.2133920771 -0.7219286540 0.1894246078
v 0.2315151885 -0.6824172361 0.2121684815
v 0.2059218462 -0.6663863056 0.2360168701
v 0.2133113932 -0.6919171268 0.2133179181
v 0.3742009547 -0.6400211237 0.1183896484
v 0.3927257271 -0.5860982068 0.1074752613
v 0.3518068201 -0.4833591461 0.1209458577
v 0.2224441715 -0.6156325558 0.2642694985
v 0.2853896753 -0.6004713137 0.2292174209
v 0.2839473650 -0.5575703327 0.2291723482
v 0.2790388276 -0.5792100907 0.2394129091
v 0.2402667400 -0.5590388542 0.2538718720
v 0.2570058079 -0.5742123499 0.2498302689
v 0.2301945478 -0.5869701102 0.2665595396
v -0.5413391021 -0.8360096383 0.0870632631
v -0.4860566640 -0.8563685104 0.0979170226
v -0.5331203772 -0.7620781061 0.1019115478
v -0.3471802828 -0.6721371755 0.1525016165
v -0.5064848658 -0.7342421142 0.1166785879
v -0.4955011881 -0.6581652101 0.1292573001
v -0.2480794671 -0.7941302842 0.1317197888
v -0.1496368281 -0.9882699803 0.0537754031
v -0.2056000899 -0.9132019699 0.0891830969
v -0.1159977938 -0.9014198270 0.0813463849
v -0.1296823091 -0.8850518761 0.0895429079
v -0.1209823909 -0.9221642133 0.0746132526
v -0.1650559231 -0.8875231313 0.0960124391
v -0.1280935075 -0.8412524756 0.1014234159
v -0.1568667834 -0.8086298846 0.1164156753
v -0.1607775700 -0.7501659147 0.1295801440
v -0.3052759229 -0.7030965131 0.1497608452
v -0.2946815799 -0.6787695400 0.1507755829
v -0.3103524674 -0.7340657066 0.1469076750
v -0.2929170194 -0.7650313695 0.1400116948
v -0.1867161203 -0.6850718201 0.1419499462
v -0.1633675235 -0.6529871738 0.1410810341
v -0.1516001920 -0.6217711775 0.1410671001
v -0.2922630406 -0.5792078176 0.1512247926
v -0.3053059951 -0.6101780600 0.1530223550
v -0.3103562896 -0.6411458283 0.1534877484
v -0.3341606507 -0.7340535346 0.1466063941
v -0.3447342709 -0.7097041217 0.1504754185
v -0.1088534847 -0.6669658157 0.1384567432
v -0.0709449300 -0.6295546708 0.1572578494
v -0.0518413438 -0.6008584260 0.1663876358
v -0.0685803541 -0.5871077611 0.1583600667
v -0.1144645141 -0.9774457663 0.0520859580
v -0.3472016918 -0.5792078345 0.1520953221
v -0.3553323720 -0.5172665383 0.1469035537
v -0.3472001159 -0.4862932289 0.1415157703
v -0.5348292975 -0.5338849755 0.1139428396
v -0.3053031447 -0.5172666019 0.1463179824
v -0.2947202077 -0.5415930407 0.1492543859
v -0.1457281087 -0.5323803701 0.1426812962
v -0.1552385818 -0.4738380255 0.1365369658
v -0.3052962921 -0.4553418734 0.1362079742
v -0.2946902513 -0.4310546054 0.1313970277
v -0.3103609027 -0.4862968949 0.1412475473
v -0.1165578641 -0.4092342349 0.1293718523
v -0.0967699353 -0.4381744706 0.1344948637
v -0.0841549937 -0.3939426232 0.1275133970
v -0.1058102382 -0.3856072241 0.1243936400
v 0.0231682639 -0.4616187439 0.1705238543
v 0.0570627346 -0.4116385037 0.1604524576
v -0.3102922017 -0.3933698410 0.1210264459
v -0.2928313270 -0.3622847774 0.1130930385
v -0.3340477539 -0.4243290375 0.1288576663
v -0.3446579024 -0.4485448861 0.1337679254
v -0.3290319479 -0.3933985673 0.1204927722
v -0.3978595629 -0.3356778364 0.1020782945
v -0.3453630586 -0.3625365633 0.1112920888
v -0.4798240413 -0.2621655517 0.0745909164
v -0.1976691029 -0.3429942333 0.1089318598
v -0.2094590072 -0.3692647092 0.1156014530
v -0.2167590993 -0.3209104243 0.1024687537
v -0.2451884458 -0.3285359427 0.1040615452
v -0.1387818275 -0.3798570982 0.1218855071
v -0.1490111864 -0.3619318016 0.1156784046
v -0.1474180863 -0.3986019929 0.1253740146
v -0.1845838108 -0.4079297891 0.1251193845
v -0.1474614628 -0.3425157769 0.1100131866
v -0.0530036938 -0.3091921127 0.1008398076
v -0.0283851545 -0.3113177089 0.1025319675
v -0.0010469258 -0.3515843074 0.1225566655
v -0.0200000352 -0.3350384745 0.1132315492
v -0.0394653912 -0.3669716092 0.1237328380
v 0.0152566258 -0.3137805007 0.1070167099
v -0.0215789290 -0.3559753122 0.1218717924
v -0.0096676922 -0.3953951207 0.1380046248
v -0.0071741963 -0.3731322005 0.1300179934
v -0.0068174750 -0.3170361123 0.1066936371
v 0.0255193064 -0.3880650431 0.1418981687
v -0.0657450037 -0.3314300098 0.1086812737
v -0.0590970034 -0.3540008790 0.1170009387
v -0.1026979145 -0.8667478183 0.0931440596
v -0.0842232819 -0.8240299640 0.1186159770
v 0.0414528920 -0.8577810490 0.1519731605
v -0.0807611657 -0.7881021856 0.1306665615
v -0.0730504738 -0.6943955128 0.1516034756
v -0.0685242483 -0.7265170649 0.1511218286
v -0.0474102173 -0.6734852506 0.1694470682
v 0.0767897152 -0.8080680580 0.1788679899
v 0.1034907991 -0.7932578479 0.1832712323
v -0.0154545609 -0.6222765749 0.1886587984
v 0.0386394950 -0.5881104153 0.2140647188
v -0.0924808989 -0.5010540115 0.1450267075
v -0.0545161938 -0.5405253651 0.1598301986
v 0.0538933911 -0.5240408987 0.2043396081
v 0.1817207608 -0.7439863986 0.1892711822
v 0.1564521972 -0.7434824578 0.1988682353
v 0.1307889465 -0.7008276145 0.2283729997
v 0.1492179649 -0.7187873692 0.2149207063
v 0.1674931857 -0.7000646179 0.2215173372
v 0.1112826542 -0.7392787283 0.2122186580
v 0.1726087111 -0.6671380111 0.2405639469
v 0.1270468841 -0.7231026008 0.2174104007
v 0.0932963009 -0.7059808929 0.2320965571
v 0.0056464033 -0.5254528327 0.1828077161
v 0.0112624218 -0.4903644027 0.1755140172
v -0.0999011727 -0.4697350187 0.1390850911
v 0.1694152104 -0.3374470875 0.1358923478
v 0.1919761986 -0.3230609271 0.1257010830
v 0.1476566980 -0.3602789383 0.1490180293
v 0.1445123441 -0.3965066140 0.1697310122
v 0.1156711360 -0.4507454420 0.1940497000
v 0.1144542213 -0.3749184627 0.1532417422
v 0.1182739610 -0.3401813801 0.1336411124
v 0.0818889022 -0.3900363528 0.1555860233
v 0.1078045159 -0.2491915520 0.0774532757
v 0.0947439565 -0.2646788494 0.0861372281
v 0.1721477019 -0.2328327693 0.0707166007
v 0.1372120905 -0.2719444508 0.0938085481
v 0.1382305033 -0.2935185925 0.1074374893
v 0.3381060405 -0.3096910818 0.0335812830
v 0.2452045461 -0.2426211663 0.0691267620
v 0.2364406854 -0.2662583262 0.0832228679
v 0.2536502693 -0.2758213603 0.0824893004
v 0.2885129640 -0.2772148139 0.0657078760
v 0.2049239526 -0.2879686406 0.1026262061
v 0.3413104317 -0.2477743265 0.0128557714
v 0.3336764815 -0.2684372437 0.0258346963
v 0.3103920785 -0.2692106908 0.0483873087
v 0.2974030422 -0.2475109924 0.0496899700
v 0.3063062436 -0.2919472689 0.0607535086
v 0.2829133452 -0.3020890521 0.0808623817
v 0.2570150004 -0.3451153848 0.1170781886
v 0.2643180309 -0.3202037013 0.0997160347
v 0.2420545498 -0.3120479162 0.1050648671
v 0.2899778216 -0.3412523530 0.0968011106
v 0.2195751382 -0.3291941776 0.1229893021
v 0.2842532207 -0.3220661722 0.0902503082
v 0.2645662519 -0.2184534285 0.0527773050
v -0.3627665393 -0.8332227238 0.1210297779
v -0.5763633153 -0.2563045848 0.0583759655
v -0.5532497352 -0.2607709416 0.0641879200
v -0.5918405636 -0.2789144943 0.0640469439
v -0.5605770911 -0.3346249175 0.0823927073
v -0.5607097493 -0.2902636548 0.0707848973
v 0.4108946641 -0.5791206870 0.0774843371
v 0.3944403976 -0.5634190471 0.0997114253
v 0.4090296627 -0.6014083965 0.0830928063
v 0.4020593853 -0.5321807177 0.0680435114
v 0.3687525534 -0.5728813025 0.1503259174
v 0.3796011945 -0.4720620777 0.0605005796
v 0.2160106197 -0.6416043894 0.2512989280
v 0.2485433965 -0.6199348460 0.2487051055
v 0.1820182230 -0.5538157379 0.2583714430
v -0.5418270610 -0.7898222535 0.0941780999
v -0.3290808491 -0.6721256504 0.1524541259
v -0.3465640741 -0.6411583449 0.1533420413
v -0.5036207811 -0.7144044330 0.1210574785
v -0.5249715542 -0.7195132597 0.1122698108
v -0.4832037734 -0.7274777517 0.1253386273
v -0.5271120416 -0.7411659228 0.1078014440
v -0.4888670758 -0.7514319769 0.1191172417
v -0.4393266767 -0.7086355196 0.1404343928
v -0.4598857848 -0.7902981510 0.1196396282
v -0.4637378019 -0.7122988520 0.1343753982
v -0.4794766543 -0.7746681415 0.1176004816
v -0.4519250833 -0.7475192945 0.1302951391
v -0.4572857990 -0.6721275403 0.1422932640
v -0.4969063868 -0.8040018631 0.1068033128
v -0.4490563010 -0.7269659450 0.1351902649
v -0.4120585191 -0.7426068811 0.1382850964
v -0.4710830067 -0.7429899427 0.1262656169
v -0.4584704409 -0.7684314016 0.1245654305
v -0.4251903839 -0.7815646609 0.1278655344
v -0.4687801349 -0.6908852007 0.1366472086
v -0.4788333050 -0.6718242252 0.1348824634
v -0.4676256060 -0.6411483584 0.1394697759
v -0.5006699588 -0.6814718668 0.1264627421
v -0.4793426363 -0.7945928993 0.1137742297
v -0.4760682158 -0.8218029168 0.1088148718
v -0.5203329029 -0.6648846972 0.1188280830
v -0.5146483307 -0.6366496392 0.1219662161
v -0.2673043174 -0.8157167240 0.1266789518
v -0.2231122838 -0.9041962869 0.0942836629
v -0.1265129782 -0.9397778805 0.0684665440
v -0.1853809006 -0.9002790363 0.0921273105
v -0.1364383203 -0.8086337354 0.1112647084
v -0.1466483043 -0.7860991923 0.1188620352
v -0.1654400794 -0.7911590166 0.1227047242
v -0.1608114861 -0.7709237623 0.1255520627
v -0.1896425373 -0.8138746112 0.1225213493
v -0.1400617528 -0.7484485023 0.1248544891
v -0.1523639005 -0.7258553567 0.1307665437
v -0.1931503782 -0.7253507441 0.1392282300
v -0.1728409798 -0.7323796477 0.1347230243
v -0.1700121954 -0.7058613127 0.1371842660
v -0.1917633286 -0.7541985483 0.1347679788
v -0.2583191764 -0.6774360034 0.1504830817
v -0.2934495206 -0.7950654542 0.1330000937
v -0.2764943936 -0.7498982943 0.1424859627
v -0.2679477292 -0.7756508243 0.1368760565
v -0.1419603210 -0.6542977099 0.1385566082
v -0.1542170335 -0.6790120359 0.1366803197
v -0.1337383638 -0.6236324657 0.1389184458
v -0.1476168816 -0.5916565089 0.1410367998
v -0.3103624783 -0.5792078232 0.1514802530
v -0.3810100586 -0.7083843369 0.1487453829
v -0.0903193212 -0.6643035090 0.1464829137
v -0.3291022541 -0.5792078289 0.1518641210
v -0.3465613679 -0.5482372048 0.1495015681
v -0.3465617456 -0.6101791676 0.1538499593
v -0.3341644584 -0.5172665652 0.1470182683
v -0.3291006784 -0.4862950300 0.1414059424
v -0.2583933880 -0.5429314873 0.1485676020
v -0.1277715537 -0.5325622194 0.1427420294
v -0.1441609303 -0.5027883216 0.1401628398
v -0.1344848282 -0.4722992330 0.1364604595
v -0.1466067498 -0.4495331428 0.1334170435
v -0.1648547553 -0.4567376296 0.1339954867
v -0.1627489149 -0.4353593156 0.1307299391
v -0.1933452463 -0.4828428786 0.1392657565
v -0.2582458270 -0.4296839952 0.1307106854
v -0.0817300601 -0.4219347568 0.1333454056
v -0.0739492232 -0.4442249212 0.1390605210
v -0.0377078548 -0.4564756337 0.1506549802
v -0.0578155964 -0.4562286034 0.1455573436
v -0.0531663020 -0.4802338273 0.1515280796
v -0.0474100468 -0.4277262134 0.1400685043
v -0.0731337134 -0.4900583355 0.1477186692
v 0.0399378246 -0.4740236804 0.1807274712
v 0.0454545705 -0.4490284930 0.1732097588
v 0.0269166498 -0.4422339626 0.1649137293
v 0.0427596507 -0.4276948827 0.1637828624
v -0.0066472851 -0.4436750315 0.1556025713
v 0.0358461521 -0.4071375012 0.1527185305
v 0.0513261959 -0.3864237987 0.1469002120
v 0.0362048422 -0.3523700718 0.1279987878
v 0.0374656110 -0.3721943717 0.1369912957
v 0.0596448122 -0.3644554446 0.1377437421
v 0.0173354321 -0.3635223530 0.1298483938
v 0.0746188876 -0.4233529913 0.1706297730
v -0.3107479439 -0.3623706522 0.1124731218
v -0.2764503641 -0.3774832105 0.1175926656
v -0.2459255966 -0.3627872182 0.1135331069
v -0.2692798262 -0.3533277945 0.1110602477
v -0.3003788194 -0.3441369527 0.1076739451
v -0.3810646736 -0.4499315727 0.1339706044
v -0.3710788373 -0.3270428333 0.0998849528
v -0.4200406718 -0.3013999348 0.0905583816
v -0.3629232347 -0.3770268107 0.1151481650
v -0.3685754652 -0.3522917127 0.1076762952
v -0.3871901178 -0.3695587030 0.1126969591
v -0.4284902109 -0.3977585132 0.1198897154
v -0.4041396368 -0.3890782238 0.1183667636
v -0.4173943660 -0.3604499478 0.1097389014
v -0.4052995092 -0.4243196041 0.1276002307
v -0.3941239754 -0.4070476387 0.1233731560
v -0.3823759309 -0.4269004657 0.1285694146
v -0.4698278013 -0.2814486167 0.0819628399
v -0.5069386831 -0.2884541720 0.0808750653
v -0.4854580732 -0.3004470395 0.0870018160
v -0.5158767824 -0.3296968987 0.0911406726
v -0.5051239590 -0.3104373510 0.0880333264
v -0.5266082111 -0.3110739352 0.0838181740
v -0.4788984906 -0.3377108121 0.0991311803
v -0.5463607132 -0.3188568978 0.0814903053
v -0.5372082026 -0.3414014836 0.0892228945
v -0.4737001187 -0.3175865055 0.0932509089
v -0.4433678022 -0.3361552970 0.1012463738
v -0.5554939854 -0.3607778197 0.0896569436
v -0.5059291576 -0.3731166669 0.1042003258
v -0.5170665816 -0.3528188883 0.0966734039
v -0.5326039038 -0.3745486928 0.0981261506
v -0.4946371986 -0.3537163000 0.1015987597
v -0.4664657921 -0.3830998503 0.1131518739
v -0.4847656860 -0.3724484201 0.1082640984
v -0.4941825800 -0.4096732524 0.1155860087
v -0.4641451909 -0.3580669399 0.1062923558
v -0.4414597173 -0.3727939464 0.1122246322
v -0.4618012096 -0.2597692038 0.0746149376
v -0.2469758882 -0.3099527770 0.0986128200
v -0.2665594815 -0.3207325019 0.1015342893
v -0.1883245424 -0.3830021162 0.1192645131
v -0.2141604332 -0.3996236480 0.1229366455
v -0.1670341399 -0.3462198531 0.1104793000
v -0.0542332503 -0.3854230010 0.1276575268
v -0.0315164110 -0.3884692386 0.1315115422
v -0.0272799844 -0.4130302521 0.1399613466
v -0.0465660992 -0.4048984882 0.1342750784
v -0.0267251772 -0.4349249511 0.1472575827
v -0.0036401060 -0.4190272076 0.1475068422
v 0.0116267031 -0.4041932221 0.1458001625
v -0.1035937256 -0.8155468357 0.1104211151
v -0.1014754316 -0.8370667841 0.1028564878
v 0.0104839087 -0.8695305067 0.1435950106
v -0.0703646113 -0.8072347305 0.1332618951
v -0.0592721113 -0.8305031545 0.1346867049
v -0.0759874522 -0.8436088664 0.1184836924
v -0.0373018386 -0.8395353508 0.1442732825
v -0.0101315763 -0.8271920797 0.1607922891
v -0.0470895606 -0.7211551198 0.1667668739
v -0.0490255874 -0.7589399186 0.1594195551
v -0.0266183710 -0.7411460264 0.1778910193
v -0.0357996254 -0.6923326860 0.1770098448
v 0.0072117436 -0.6851847475 0.2050567860
v -0.0177121490 -0.6681902958 0.1898192617
v -0.0133559508 -0.6944028950 0.1919340936
v 0.0113647245 -0.7266699255 0.2032662102
v 0.0043789709 -0.7064187909 0.2017263064
v 0.0464527082 -0.7032356527 0.2234628304
v 0.0258335477 -0.7103483591 0.2127070647
v 0.0493385578 -0.7457591776 0.2119669973
v 0.0328855738 -0.7311738545 0.2133372400
v 0.0136426192 -0.7694534449 0.1936800894
v 0.0283453800 -0.7528679850 0.2047307272
v 0.0476459580 -0.7847872755 0.1931388049
v 0.0909751870 -0.8219711668 0.1692410879
v 0.0667496456 -0.8325003740 0.1652904187
v 0.0846308160 -0.7907300723 0.1877870786
v -0.0310915455 -0.6130722639 0.1782515927
v -0.0009640885 -0.5956033582 0.1934645409
v -0.0991235751 -0.5191611474 0.1458160432
v -0.0728938760 -0.5464224857 0.1538880484
v -0.0255777967 -0.5417078012 0.1727872248
v 0.0396555033 -0.5127936251 0.1942653931
v 0.0341275319 -0.5481114448 0.2020293888
v 0.0735653166 -0.4988989238 0.2035268018
v 0.1098393345 -0.7666223207 0.1973073676
v 0.1894563399 -0.6752293691 0.2346328207
v 0.1889911234 -0.6546124912 0.2476082038
v 0.1569372870 -0.6296647744 0.2589045561
v -0.0110602836 -0.4919205906 0.1679418976
v -0.0014793402 -0.4684723480 0.1648101878
v -0.0243613337 -0.4741810196 0.1589202252
v 0.1297537367 -0.3859067820 0.1617978811
v 0.1258475349 -0.4210500919 0.1806487236
v 0.0982325950 -0.4391094319 0.1840625903
v 0.0938147209 -0.4646156835 0.1950329081
v 0.1311674161 -0.4993196769 0.2212294093
v 0.1170451092 -0.4770660629 0.2072527099
v 0.1154249017 -0.3191586480 0.1207835177
v 0.0830616960 -0.3144589228 0.1148119197
v 0.0969846690 -0.3323621420 0.1263308703
v 0.0966092288 -0.4004218525 0.1638881145
v 0.3308643969 -0.3501650078 0.0607133524
v 0.3390165999 -0.2887285849 0.0253060295
v 0.2802858782 -0.2585702537 0.0625649232
v 0.2401317019 -0.3328358077 0.1175650466
v 0.2231772091 -0.3687013997 0.1457311540
v 0.4173506453 -0.5423076730 0.0411947802
v 0.3717165431 -0.5413284334 0.1315835673
v 0.3652900789 -0.4415308704 0.0630567471
v 0.3909634779 -0.5014563405 0.0639025914
v 0.2448387037 -0.6004079132 0.2622957915
v 0.2374051121 -0.6384685092 0.2456387841
v 0.2104570767 -0.5640709731 0.2643297397
v -0.5330044282 -0.8079829505 0.0946623681
v -0.5182620022 -0.7895975386 0.1031383526
v -0.3629570794 -0.6563278109 0.1529045819
v -0.3761147351 -0.6256665350 0.1533719378
v -0.3867618467 -0.6483893304 0.1529073141
v -0.4246859846 -0.6167635678 0.1488290843
v -0.4179997911 -0.6722134489 0.1485596845
v -0.4015697882 -0.6275950134 0.1517489036
v -0.3983662296 -0.6655652788 0.1512973216
v -0.4152991974 -0.6478736414 0.1496146189
v -0.4005660359 -0.6913840256 0.1493556835
v -0.3906187923 -0.6031813626 0.1531211455
v -0.4376111906 -0.6577177657 0.1463142693
v -0.4226438026 -0.6939491527 0.1458494689
v -0.4057690841 -0.7171173255 0.1441903178
v -0.4376585542 -0.6793771603 0.1451419920
v -0.4257886592 -0.7256983069 0.1390989926
v -0.4907296401 -0.6346414123 0.1315315009
v -0.4667811036 -0.5938789063 0.1409163445
v -0.5057353963 -0.5993616982 0.1268014919
v -0.4734063012 -0.6174028123 0.1378870887
v -0.5040467102 -0.6194745443 0.1267261633
v -0.4489550389 -0.6240267242 0.1444628740
v -0.4856034206 -0.6012727519 0.1343946286
v -0.4896241224 -0.5633826979 0.1337068011
v -0.4332119725 -0.6374812690 0.1473411577
v -0.4428946164 -0.6000991802 0.1464228793
v -0.4160117483 -0.5890053310 0.1505238665
v -0.4446277052 -0.5577810063 0.1458262951
v -0.4502064753 -0.5792040532 0.1450671956
v -0.4667684482 -0.5634532476 0.1408686991
v -0.4617113816 -0.5371450935 0.1402016471
v -0.2486625265 -0.8345647874 0.1207069096
v -0.1490339941 -0.7051302236 0.1324918137
v -0.2254294173 -0.7413600210 0.1393149220
v -0.2170511856 -0.7782123062 0.1323206771
v -0.2762392975 -0.6852218260 0.1502169950
v -0.2573372133 -0.7042118232 0.1475725970
v -0.2763730659 -0.6603982404 0.1522074500
v -0.1725555073 -0.6708388346 0.1408722966
v -0.1949146607 -0.6480406220 0.1454382137
v -0.1655402523 -0.6046065323 0.1434886883
v -0.1774067027 -0.5693045150 0.1437357121
v -0.1892363311 -0.5929263445 0.1463212948
v -0.3631314069 -0.7161697968 0.1483310113
v -0.3613189494 -0.6919208586 0.1513562981
v -0.3819795467 -0.7350318218 0.1440817808
v -0.3629684235 -0.5633899199 0.1508486103
v -0.3708561676 -0.5383902562 0.1485399551
v -0.3825699479 -0.5135157441 0.1460854185
v -0.3629684137 -0.5950258929 0.1536569058
v -0.2762945193 -0.5351437521 0.1481789055
v -0.2781466533 -0.5593980264 0.1505847032
v -0.2574084624 -0.5161995891 0.1451474600
v -0.1612134046 -0.5167227547 0.1423630743
v -0.1854682181 -0.5075492029 0.1422563004
v -0.1665282812 -0.4941236917 0.1397061351
v -0.2221871125 -0.5056472911 0.1429045336
v -0.2034693012 -0.4996795589 0.1418323892
v -0.2207462011 -0.4778286107 0.1393362645
v -0.2049102127 -0.5274982392 0.1439290217
v -0.2762007757 -0.4374758161 0.1329188896
v -0.2572335808 -0.4565995465 0.1368914336
v -0.2763244239 -0.4126078904 0.1268210668
v -0.0613305322 -0.5143716467 0.1549480312
v -0.2266357194 -0.3600776792 0.1129960286
v -0.2331294146 -0.3838669286 0.1189832647
v -0.2391203142 -0.4103755872 0.1253148447
v -0.3631312524 -0.4421504476 0.1322934581
v -0.3629924170 -0.4670268686 0.1376980664
v -0.4404221512 -0.2932324147 0.0875227509
v -0.4438648201 -0.3145586722 0.0944264986
v -0.4224342405 -0.2778588758 0.0824727543
v -0.4226214389 -0.3248738152 0.0982643976
v -0.3921156931 -0.3076453893 0.0932523397
v -0.3701464949 -0.4113393362 0.1247948991
v -0.5280491605 -0.2711914115 0.0728645309
v -0.5525244733 -0.3817513640 0.0944730827
v -0.5314748830 -0.4088199390 0.1065507938
v -0.4358336238 -0.3541319382 0.1072970979
v -0.2064592287 -0.4290125863 0.1289703889
v 0.0228330308 -0.8553916342 0.1525729386
v 0.0218158580 -0.8893144059 0.1344615466
v -0.0010284463 -0.8460159727 0.1546383199
v -0.0324083459 -0.8142315018 0.1564554554
v -0.0063115389 -0.7950011065 0.1769771373
v -0.0748936133 -0.7524220547 0.1425392220
v -0.0615731280 -0.7771342831 0.1470341169
v 0.0052208261 -0.6613308157 0.2038931614
v 0.0376782937 -0.6706318722 0.2218423181
v -0.0120192915 -0.6454578514 0.1924176236
v -0.0103484704 -0.7267667863 0.1907625777
v -0.0034450928 -0.7509720552 0.1908621852
v 0.0502309993 -0.8114332395 0.1780553587
v 0.0589889616 -0.8500315129 0.1559545336
v 0.0443388747 -0.8330628938 0.1654890506
v 0.0061463486 -0.6167388192 0.2005712354
v 0.0378525153 -0.6199712062 0.2192367969
v 0.0204116439 -0.6001758732 0.2058936879
v 0.0151657862 -0.5724491485 0.1984303165
v 0.0200701796 -0.5369278959 0.1923023071
v 0.0564556848 -0.5462957376 0.2124505261
v 0.0468953514 -0.5669251739 0.2134612821
v 0.0831278703 -0.5932461995 0.2358419065
v 0.0615576273 -0.5848403086 0.2256809093
v 0.0635062993 -0.6117183477 0.2317228117
v 0.0803517811 -0.5684913847 0.2288414953
v 0.1289007418 -0.5755800063 0.2465161469
v 0.1072272506 -0.5542218912 0.2344900758
v 0.0588798264 -0.4880356355 0.1937885240
v 0.1304112174 -0.7782842064 0.1856994130
v 0.1441535863 -0.7614234899 0.1917555544
v 0.1321204457 -0.7438164468 0.2048639385
v 0.1895823533 -0.6212750205 0.2662602469
v 0.1476869316 -0.4182896628 0.1827522340
v 0.1818571117 -0.4220529353 0.1878163180
v 0.0957587482 -0.4888857017 0.2065806751
v 0.0959853125 -0.5189893734 0.2184176257
v 0.1492691571 -0.4722243123 0.2129739344
v 0.3452354155 -0.3318514830 0.0327213855
v 0.3242627337 -0.3301891533 0.0586887783
v 0.3287404595 -0.5532070275 0.1942565262
v 0.3596426373 -0.4627977174 0.0913979381
v 0.3219504424 -0.4414052346 0.1338644067
v 0.3436037741 -0.4471553078 0.1047840749
v 0.3444488453 -0.4057932000 0.0742808221
v 0.3258943136 -0.4701991477 0.1519435425
v 0.3375407092 -0.4263417463 0.0976613552
v 0.3018473114 -0.4029066384 0.1258323476
v 0.3162358122 -0.4198912830 0.1222613143
v 0.2781064476 -0.4415353206 0.1664925434
v 0.3000113745 -0.4357168378 0.1478866529
v 0.2962050247 -0.4655291572 0.1708225376
v 0.3800290048 -0.4532418666 0.0420112439
v 0.3715407975 -0.4920709686 0.0952414456
v 0.3488422678 -0.5167810006 0.1547612501
v 0.3722133223 -0.5154691492 0.1130245961
v 0.2157751132 -0.5047638998 0.2361050525
v -0.3572793887 -0.6256679508 0.1536049711
v -0.4501839970 -0.6933397730 0.1412044398
v -0.4804715792 -0.5451533688 0.1360118931
v -0.4515247892 -0.4853714250 0.1372291483
v -0.2174360632 -0.8291160310 0.1190437807
v -0.2057882556 -0.7404156418 0.1380957429
v -0.2166882462 -0.7184383078 0.1424910138
v -0.1995679119 -0.7036722166 0.1423999407
v -0.2399764894 -0.7226849356 0.1438363069
v -0.2218046368 -0.6745678154 0.1467147124
v -0.2324131573 -0.6981828258 0.1463159971
v -0.2145047475 -0.6920374557 0.1453777596
v -0.1989450410 -0.7719574524 0.1319964831
v -0.2013010432 -0.7944711230 0.1282243829
v -0.2247421334 -0.8014207341 0.1281973378
v -0.2416182259 -0.8144449097 0.1259631767
v -0.2420354410 -0.7677115774 0.1379859378
v -0.2257698882 -0.6158558561 0.1489941508
v -0.3938281245 -0.7514897798 0.1391871387
v -0.4114489637 -0.7645044801 0.1339676335
v -0.4308797287 -0.7540880836 0.1326387030
v -0.4229917196 -0.5224799933 0.1443361812
v -0.2432228224 -0.4994913942 0.1427799212
v -0.2339482199 -0.5304480656 0.1451086793
v -0.2031961366 -0.4592993010 0.1351423130
v -0.2298969148 -0.4515855577 0.1344209320
v -0.1943524332 -0.5505026295 0.1449194977
v -0.2425776335 -0.4733804986 0.1395404517
v -0.4023510697 -0.2878578152 0.0865488231
v -0.3809208917 -0.2893137576 0.0878322614
v -0.5044597319 -0.2638833959 0.0736817574
v -0.5183324126 -0.3912327576 0.1056145114
v -0.1869558735 -0.4273588646 0.1289074669
v 0.0359802729 -0.8762540852 0.1417791883
v 0.0106850536 -0.8133402022 0.1732455615
v 0.0307159043 -0.8177345038 0.1738065397
v 0.0253873214 -0.7941729928 0.1851493571
v -0.0832682270 -0.7693673813 0.1337269718
v -0.0372958833 -0.6450041084 0.1760189498
v 0.0601804877 -0.6453786245 0.2329481261
v 0.1039940519 -0.5791786513 0.2399469126
v 0.1160377180 -0.6195518591 0.2477851680
v 0.1192270247 -0.5966174950 0.2472041847
v 0.1001758150 -0.6056571271 0.2428475696
v 0.0890073511 -0.6344079418 0.2414849659
v 0.1398105786 -0.6111688309 0.2542083438
v 0.1674270396 -0.6027741772 0.2629707103
v 0.1445359533 -0.5380381039 0.2421644595
v 0.1976789007 -0.6380925883 0.2575446395
v 0.1769288776 -0.6377245930 0.2580462006
v 0.2019360527 -0.5947080435 0.2696722019
v 0.0747705926 -0.5201089472 0.2115096913
v 0.0969892717 -0.5380788208 0.2254429105
v 0.1207594126 -0.5343217454 0.2325186493
v 0.1298691345 -0.5539565386 0.2426323825
v 0.1559762755 -0.5659591479 0.2546277911
v 0.1352423364 -0.5195798353 0.2319625830
v 0.1750543790 -0.5111035054 0.2392038332
v 0.1530443468 -0.5054594486 0.2305445823
v 0.1695706415 -0.4867502409 0.2245773706
v 0.1932775611 -0.4942060754 0.2331189734
v 0.1745756140 -0.4583056011 0.2094936505
v 0.2246402696 -0.4566244299 0.2025818816
v 0.2138905767 -0.4795308324 0.2221712679
v 0.2578383730 -0.4889354900 0.2099572341
v 0.1996552835 -0.4588748339 0.2104206155
v 0.2374913439 -0.4766308315 0.2105593425
v 0.2097633458 -0.4312766210 0.1899138337
v 0.1874910405 -0.4420421255 0.2003658960
v 0.1867478503 -0.4747861332 0.2204786510
v 0.2377087228 -0.4992466637 0.2251856225
v 0.2602687307 -0.4619413505 0.1909827211
v 0.2336258498 -0.5293721499 0.2436512360
v 0.2598059246 -0.5175808890 0.2252811699
v 0.1105976766 -0.5038267104 0.2173093744
v 0.1314253258 -0.4631192234 0.2041254309
v 0.3455734674 -0.5694972585 0.1824834357
v 0.3503526271 -0.5477168108 0.1714856930
v 0.3221995001 -0.5768079764 0.2020579386
v 0.3067762069 -0.5598265573 0.2130590427
v 0.3057818420 -0.5167776140 0.1955533890
v 0.2973572357 -0.5385081654 0.2125545426
v 0.2828499030 -0.5203855698 0.2139219673
v 0.2903144756 -0.4931489662 0.1924081038
v 0.2688420689 -0.5394075701 0.2310298875
v 0.3127052935 -0.4573385831 0.1535430817
v 0.3280264545 -0.4980922103 0.1680708375
v -0.4634120987 -0.5099215209 0.1372920669
v -0.2450659198 -0.7473937461 0.1410878631
v -0.2038149072 -0.6102675079 0.1482331779
v -0.2234780715 -0.5789382172 0.1485314537
v -0.2100551425 -0.6316729684 0.1474881590
v -0.2346450609 -0.6403886667 0.1493893084
v -0.2471817868 -0.6584652307 0.1513003294
v -0.4399759942 -0.7702988823 0.1277028458
v -0.4398445133 -0.5364317712 0.1440959515
v -0.4110151277 -0.5541012974 0.1486865752
v -0.4076369843 -0.4961004175 0.1428535208
v -0.2370527157 -0.4315499798 0.1302224868
v -0.3719222711 -0.3071146092 0.0938235821
v 0.0545338695 -0.6278262669 0.2291631812
v 0.0371500757 -0.6431030992 0.2211441444
v 0.0829700646 -0.6155180707 0.2387966763
v 0.0862377356 -0.6704888901 0.2401228333
v 0.1481959746 -0.5891316381 0.2551250509
v 0.1904444850 -0.5750084155 0.2657725340
v 0.1629024479 -0.5468169383 0.2514967799
v 0.2452756924 -0.4274736361 0.1747077617
v 0.2017894058 -0.4085747955 0.1777242287
v 0.2257560598 -0.4129079112 0.1727314616
v 0.2113806561 -0.3880466433 0.1615135759
v 0.2589449424 -0.3887933136 0.1426315154
v 0.2002989304 -0.3680197711 0.1519840470
v 0.2351494352 -0.3892712909 0.1537385330
v 0.2122917716 -0.3497760590 0.1381123699
v 0.2473974171 -0.4064679817 0.1596884330
v 0.2682527420 -0.4191845040 0.1574741882
v 0.2034922193 -0.5324524224 0.2529231642
v 0.1949215363 -0.5142542255 0.2443424284
v 0.1820107251 -0.5314520810 0.2501358276
v 0.2229616321 -0.5473359680 0.2556658958
v 0.3087258785 -0.4826375634 0.1733339231
v 0.2770247130 -0.4758765728 0.1903342373
v 0.2726144245 -0.5023108466 0.2097370970
v 0.2492197555 -0.5414580886 0.2421909409
v -0.4400566138 -0.5060773897 0.1408819515
v -0.5021783952 -0.4759976357 0.1242686302
v -0.2361562967 -0.5563002903 0.1477946804
v -0.2543620773 -0.5614044902 0.1498808143
v -0.2144742389 -0.5590265360 0.1464776813
v -0.3954269222 -0.5347656392 0.1479893508
v -0.3874691105 -0.5571324970 0.1506455947
v -0.4015148165 -0.5732709541 0.1513115450
v -0.4005706896 -0.4694361769 0.1386184859
v 0.0239874126 -0.6571251166 0.2145036149
v 0.0791237696 -0.6517960402 0.2392969146
v 0.0628409565 -0.6686929262 0.2331197634
v 0.1025205487 -0.6535920041 0.2444157478
v 0.0513969825 -0.6844224498 0.2275843179
v 0.0701788652 -0.6994147936 0.2313250126
v 0.1126238641 -0.6796221126 0.2414353168
v 0.0618944432 -0.7235473890 0.2232446967
v 0.0759238020 -0.7461325997 0.2140712084
v 0.2283779444 -0.4373911208 0.1881170653
v 0.2583625673 -0.4422757563 0.1778814263
v -0.4878063126 -0.4986859405 0.1300942476
v -0.1985286550 -0.5734998133 0.1463353211
v -0.2182410818 -0.5406691146 0.1454003168
v -0.4036252513 -0.5160940694 0.1454071690
v -0.4035575072 -0.4469431272 0.1330798342
v -0.4475290558 -0.4389500903 0.1292026613
v -0.4289634178 -0.4617615713 0.1356511334
v -0.4244943931 -0.4371764306 0.1301038164
v -0.4375115809 -0.4185845028 0.1245726663
v -0.4512715785 -0.4002570420 0.1189003526
v -0.4729133581 -0.4041162483 0.1182778687
v -0.4766041762 -0.4334718537 0.1248220680
v -0.4590147349 -0.4206539826 0.1237803457
v 0.0952460957 -0.6871452256 0.2386918984
v 0.1114399281 -0.6990193455 0.2325560545
v 0.1424278140 -0.6724744655 0.2405438373
v 0.0954342955 -0.7521520682 0.2087361611
v 0.0836898318 -0.7256585935 0.2236455462
v -0.4758382058 -0.4752084445 0.1318240289
v -0.5171335283 -0.5013672867 0.1204024174
v -0.4524425207 -0.4619097965 0.1342919005
v -0.5119352482 -0.4411772224 0.1184853632
v 0.1489596954 -0.6917212113 0.2296656417
v 0.1544936557 -0.6527002461 0.2481836155
v 0.1329855351 -0.6387712906 0.2516884475
v 0.1139876693 -0.6384416674 0.2475935587
v 0.1231622485 -0.6573006400 0.2486086961
v -0.4896379909 -0.4545863808 0.1266680893
v -0.4698532367 -0.4522192442 0.1309284157
v -0.5034741133 -0.5160111141 0.1264182862
v -0.5283133046 -0.4776841607 0.1149864916
v -0.5162574083 -0.4611654792 0.1187948768
v -0.5353772122 -0.4465696795 0.1108356808
v -0.5460964573 -0.4702662788 0.1064553781
v -0.5272305477 -0.4283352608 0.1115808696
v -0.5284940063 -0.5161598497 0.1165240841
v -0.4959969548 -0.4294046921 0.1199756137
v -0.6064026725 -0.1768902453 0.0326934753
v 0.4301058718 -0.6112734116 0.0560462811
v -0.5146081656 -0.8426999749 0.0944004119
v -0.2554310252 -0.8562810576 0.1145278006
v -0.2045146564 -0.8595187932 0.1087410392
v -0.1864960775 -0.8759315002 0.1017893560
v -0.1939869400 -0.8377040483 0.1162933266
v -0.2179061941 -0.8472630698 0.1130946790
v -0.1557667476 -0.9171261997 0.0822153255
v -0.2764799605 -0.7216675301 0.1465537541
v -0.2764944170 -0.6287262295 0.1526267037
v -0.2529713086 -0.6150425877 0.1513814430
v -0.2388045542 -0.5965167182 0.1502414373
v -0.2764959737 -0.4987123533 0.1434642306
v -0.2764935052 -0.4739062077 0.1400598031
v -0.0675020876 -0.8697145652 0.1142139964
v 0.1929913368 -0.7151165569 0.2026541599
v 0.3722377116 -0.5961040668 0.1394262301
v -0.1340874347 -0.8640162587 0.0964613998
v -0.1654296415 -0.8315725295 0.1145062715
v -0.1463384427 -0.8259112288 0.1095197987
v -0.2999814004 -0.6595349363 0.1521751744
v -0.1685217343 -0.6332182848 0.1434589817
v -0.2764963100 -0.5916230557 0.1515754526
v -0.3394208443 -0.6904950566 0.1517995805
v -0.3629680781 -0.4987074863 0.1441941194
v -0.2999998427 -0.5608255754 0.1505402535
v -0.2998811891 -0.4117718928 0.1262212882
v -0.3394949609 -0.4678523672 0.1377703069
v 0.0117206505 -0.2907612494 0.0952177042
v 0.0475003007 -0.2970463611 0.1011655728
v 0.1666553559 -0.3926380345 0.1694903198
v -0.5035465086 -0.8227908256 0.1012755556
v -0.4349023233 -0.8162658758 0.1176745483
v -0.4544957344 -0.8352074353 0.1102510538
v -0.2727747257 -0.7957664563 0.1322456181
v -0.1448066186 -0.5620778937 0.1419949902
v -0.1615274579 -0.5477336694 0.1429847719
v -0.1588963774 -0.5756620354 0.1421443530
v -0.1461460997 -0.4207082860 0.1294675034
v -0.1641466203 -0.4106542868 0.1265131752
v -0.1721224135 -0.3932318164 0.1227147514
v 0.0796961755 -0.3694813362 0.1444364252
v -0.3991899258 -0.3547171760 0.1080896565
v -0.0116667095 -0.8776571985 0.1351136592
v -0.0322465239 -0.5185509963 0.1652516212
v 0.1324399387 -0.4399006319 0.1921223259
v 0.0875510729 -0.2892516601 0.1003977576
v 0.0736105535 -0.2718318851 0.0888994362
v 0.0686425105 -0.2988874797 0.1041637893
v 0.0557890497 -0.3241760118 0.1167959785
v 0.0364805281 -0.3152441915 0.1098526719
v 0.0542444225 -0.3440019185 0.1266077378
v 0.3895804189 -0.5456854094 0.1033736445
v 0.4047732861 -0.5138348145 0.0444623461
v -0.5270090334 -0.6004287051 0.1165920761
v -0.5174734128 -0.5779398741 0.1230379394
v -0.5516482117 -0.4027887313 0.0980488494
v 0.0279065739 -0.6893421155 0.2163705456
v 0.3646005877 -0.4179871084 0.0461462540
v 0.3634045120 -0.3972153392 0.0359429236
v 0.3583318767 -0.3730040601 0.0301244788
v 0.3512720520 -0.3535581226 0.0327642100
v -0.2009623256 -0.6688027067 0.1449639187
v -0.2164761210 -0.6530219483 0.1470916798
v -0.3953366476 -0.7800083628 0.1328438001
v -0.5042354253 -0.2395873905 0.0650438300
v 0.3303202334 -0.5945317313 0.1869955281
v 0.2986655016 -0.5777578640 0.2219149197
v -0.4263128752 -0.5697210351 0.1489350585
v 0.1702648357 -0.5817032141 0.2618866906
v 0.2761878735 -0.3661498194 0.1188848700
v 0.2826607544 -0.3889658515 0.1291574441
v 0.3092077000 -0.3726030929 0.0967605089
v 0.3239690126 -0.3922340992 0.0934363311
v 0.3429427994 -0.3858219042 0.0635516366
v 0.3092693595 -0.3509923027 0.0866861044
v 0.3294869012 -0.3705057849 0.0728152500
v 0.2887243910 -0.4186287943 0.1445689495
v -0.4281977103 -0.4850779270 0.1398400141
v -0.1567805708 -0.8662725368 0.1019433103
v 0.0439889690 -0.2755866784 0.0891640724
v 0.1656974253 -0.4117687164 0.1809788614
v -0.4399688326 -0.7961382326 0.1219425869
v -0.4564341922 -0.8119795002 0.1157767664
v -0.4190308059 -0.8346402028 0.1148566222
v -0.4137846780 -0.8140666880 0.1217335667
v -0.3992848313 -0.8274674619 0.1198944566
v -0.5120305820 -0.5544347522 0.1253310964
v 0.0178878581 -0.3373327646 0.1186161299
v 0.0606969816 -0.7658025301 0.2036498954
v -0.0294438054 -0.7790732658 0.1688120986
v -0.0082765574 -0.7725794405 0.1839740291
v -0.0248509794 -0.7971646356 0.1658496406
v 0.3273111206 -0.5286586087 0.1857579806
v 0.2474235806 -0.3674207912 0.1350540716
v 0.2344570397 -0.3520934499 0.1312997626
f 118 119 117
f 371 490 206
f 117 119 120
f 276 264 539
f 115 116 121
f 120 116 117
f 121 116 120
f 146 145 517
f 268 267 144
f 347 1139 346
f 442 33 34
f 222 239 232
f 123 218 122
f 218 217 122
f 234 7 8
f 218 114 217
f 310 229 123
f 224 241 245
f 229 113 218
f 112 219 111
f 1138 340 1168
f 217 121 122
f 521 68 69
f 225 214 443
f 219 112 229
f 113 229 112
f 111 297 110
f 1136 237 81
f 225 444 318
f 339 614 109
f 614 463 108
f 244 243 240
f 297 111 219
f 310 123 124
f 445 93 94
f 228 236 1137
f 463 107 108
f 341 621 465
f 426 424 226
f 232 223 300
f 640 343 637
f 7 234 233
f 253 430 431
f 105 343 640
f 434 433 432
f 109 110 339
f 441 297 219
f 47 226 424
f 274 273 162
f 318 25 26
f 243 224 235
f 184 222 183
f 345 132 346
f 131 132 161
f 434 599 433
f 239 5 6
f 213 131 161
f 213 161 160
f 345 161 132
f 80 81 237
f 138 351 137
f 619 247 617
f 177 646 143
f 468 354 351
f 349 347 134
f 231 221 238
f 143 474 178
f 317 24 25
f 317 235 24
f 136 137 356
f 356 137 351
f 181 355 182
f 147 146 515
f 469 353 645
f 658 480 159
f 487 488 366
f 130 131 213
f 476 654 656
f 663 172 171
f 152 668 153
f 624 247 619
f 360 477 361
f 155 615 156
f 156 157 477
f 161 344 160
f 429 296 428
f 958 968 969
f 648 647 649
f 177 211 176
f 173 256 489
f 661 483 482
f 175 257 255
f 174 255 256
f 367 368 254
f 173 172 661
f 652 476 651
f 255 257 210
f 161 345 344
f 475 646 647
f 657 854 852
f 140 141 279
f 433 599 296
f 505 508 164
f 641 104 640
f 672 150 149
f 264 274 275
f 601 221 600
f 389 718 269
f 100 101 497
f 210 209 255
f 80 231 79
f 91 92 298
f 984 1202 238
f 705 144 145
f 33 236 228
f 313 34 35
f 102 1192 101
f 1134 1128 1118
f 711 714 713
f 157 158 479
f 715 717 716
f 1041 1099 259
f 371 206 491
f 269 718 720
f 104 641 103
f 105 106 343
f 272 271 67
f 78 79 242
f 71 72 267
f 678 679 379
f 83 87 88
f 84 87 83
f 85 86 84
f 278 184 279
f 84 86 87
f 256 255 209
f 88 89 220
f 15 549 14
f 237 231 80
f 231 238 242
f 445 603 725
f 231 237 436
f 620 107 463
f 88 220 83
f 9 304 8
f 298 436 315
f 220 230 1136
f 324 319 448
f 277 745 540
f 230 220 89
f 65 66 273
f 266 741 268
f 315 237 230
f 222 5 239
f 150 151 498
f 671 496 495
f 362 859 1043
f 671 151 150
f 381 380 502
f 677 501 676
f 956 846 847
f 513 386 385
f 154 485 153
f 513 148 147
f 163 523 164
f 148 149 502
f 169 168 674
f 506 382 505
f 146 147 511
f 1109 1111 1108
f 382 507 508
f 270 272 519
f 391 523 524
f 527 162 271
f 163 275 274
f 499 377 498
f 636 466 635
f 389 886 888
f 387 144 72
f 265 72 73
f 144 705 268
f 72 144 267
f 89 90 230
f 739 389 76
f 113 114 218
f 269 886 389
f 76 389 75
f 228 32 33
f 181 182 300
f 387 388 144
f 527 744 524
f 268 741 71
f 271 66 67
f 428 213 160
f 114 115 217
f 267 268 71
f 27 214 225
f 226 215 187
f 701 145 146
f 227 31 32
f 162 273 66
f 521 522 390
f 271 162 66
f 1032 1203 1030
f 168 552 167
f 668 669 494
f 365 364 485
f 29 31 216
f 177 143 212
f 20 446 19
f 142 185 278
f 185 184 278
f 142 1 185
f 393 279 184
f 354 355 644
f 140 372 139
f 222 232 183
f 232 182 183
f 142 278 141
f 472 644 181
f 2 3 185
f 264 275 277
f 68 521 519
f 185 3 184
f 4 5 222
f 4 184 3
f 233 223 239
f 512 384 702
f 709 263 386
f 184 4 222
f 543 11 12
f 185 1 2
f 753 752 143
f 302 300 301
f 178 179 541
f 471 473 357
f 471 357 470
f 180 181 302
f 210 257 211
f 177 212 211
f 439 299 309
f 255 174 175
f 212 143 752
f 394 757 753
f 397 545 546
f 903 902 991
f 207 490 370
f 173 174 256
f 367 369 171
f 211 212 544
f 171 369 401
f 547 208 545
f 547 207 208
f 371 369 254
f 992 765 906
f 171 172 367
f 563 1093 1116
f 170 400 169
f 233 6 7
f 141 278 279
f 1202 242 238
f 127 462 126
f 303 301 234
f 233 234 223
f 470 180 179
f 233 239 6
f 438 280 437
f 1180 754 438
f 245 241 320
f 308 304 306
f 455 336 334
f 214 216 227
f 545 208 209
f 14 776 13
f 206 779 205
f 121 217 115
f 19 446 447
f 311 310 124
f 83 220 82
f 1152 555 18
f 303 307 299
f 555 17 18
f 477 478 156
f 548 776 549
f 600 298 602
f 231 242 79
f 245 22 23
f 22 245 320
f 317 243 235
f 372 258 468
f 317 318 240
f 211 257 176
f 487 158 157
f 235 23 24
f 82 1136 81
f 26 27 225
f 216 28 29
f 183 182 373
f 870 378 1173
f 28 216 214
f 274 264 276
f 228 227 32
f 372 279 258
f 31 227 216
f 29 30 31
f 534 536 530
f 148 502 503
f 214 27 28
f 511 512 701
f 320 322 21
f 164 508 163
f 779 780 205
f 783 204 203
f 1137 443 214
f 169 400 403
f 782 553 402
f 780 204 205
f 203 202 564
f 403 168 169
f 166 165 677
f 690 200 199
f 200 689 201
f 780 915 204
f 675 500 674
f 505 164 165
f 195 196 569
f 796 198 199
f 509 689 690
f 412 572 573
f 610 938 453
f 413 195 194
f 195 567 194
f 567 410 409
f 572 197 196
f 319 329 330
f 408 685 683
f 784 201 202
f 193 416 418
f 186 187 215
f 274 65 273
f 276 65 274
f 159 428 160
f 440 340 1138
f 528 529 63
f 1166 1217 1165
f 218 123 229
f 64 528 63
f 239 223 232
f 1184 59 60
f 802 573 800
f 194 567 568
f 289 417 191
f 90 315 230
f 575 58 59
f 784 554 925
f 55 56 419
f 57 415 577
f 605 442 313
f 292 191 190
f 436 600 221
f 287 413 579
f 479 480 361
f 320 21 22
f 168 781 552
f 209 208 256
f 581 582 421
f 44 45 586
f 358 1155 250
f 191 192 582
f 586 423 425
f 224 245 235
f 423 45 46
f 149 150 504
f 586 587 44
f 207 370 208
f 321 329 319
f 23 235 245
f 690 692 691
f 539 528 276
f 580 42 43
f 175 176 257
f 943 939 940
f 591 597 420
f 144 388 145
f 890 708 889
f 325 327 329
f 243 244 224
f 733 721 731
f 292 54 55
f 55 419 292
f 190 191 581
f 291 53 54
f 270 391 524
f 53 293 52
f 294 51 52
f 187 294 188
f 188 294 293
f 65 276 64
f 188 189 426
f 163 274 162
f 226 187 188
f 226 47 215
f 347 346 133
f 47 48 215
f 186 48 49
f 50 51 186
f 49 50 186
f 328 244 332
f 215 48 186
f 393 184 183
f 154 155 486
f 186 51 187
f 424 295 423
f 166 676 167
f 67 68 272
f 191 292 289
f 36 1190 809
f 214 227 228
f 205 204 404
f 665 152 153
f 322 324 446
f 762 281 760
f 565 407 564
f 167 566 166
f 794 410 569
f 794 795 570
f 529 531 537
f 803 572 574
f 575 576 414
f 412 573 802
f 415 57 58
f 193 192 416
f 417 289 577
f 288 416 417
f 585 192 193
f 935 41 42
f 190 189 291
f 291 189 293
f 190 291 292
f 292 291 54
f 291 293 53
f 189 188 293
f 51 294 187
f 293 294 52
f 581 427 598
f 580 805 590
f 429 159 158
f 430 433 296
f 311 312 441
f 297 461 339
f 602 92 93
f 298 600 436
f 299 301 303
f 307 309 299
f 232 300 182
f 301 300 223
f 234 301 223
f 302 301 299
f 302 299 439
f 181 300 302
f 304 234 8
f 305 437 309
f 306 9 10
f 234 304 303
f 9 306 304
f 754 987 897
f 306 898 754
f 305 307 308
f 308 307 303
f 309 307 305
f 304 308 303
f 308 306 1180
f 439 1151 394
f 180 439 179
f 311 124 125
f 219 229 310
f 125 440 311
f 219 310 311
f 126 440 125
f 461 246 339
f 36 37 812
f 605 236 442
f 333 314 607
f 318 444 451
f 90 91 315
f 298 315 91
f 94 603 445
f 718 719 720
f 318 317 25
f 243 317 240
f 26 225 318
f 225 443 444
f 319 322 321
f 321 241 325
f 321 320 241
f 320 321 322
f 325 241 326
f 328 326 224
f 322 319 324
f 20 21 322
f 328 323 326
f 336 338 323
f 448 319 330
f 19 447 18
f 326 241 224
f 325 323 327
f 328 224 244
f 323 325 326
f 335 336 328
f 1167 410 570
f 244 333 332
f 313 809 606
f 325 329 321
f 330 329 327
f 338 612 327
f 611 449 330
f 37 38 610
f 332 335 328
f 240 451 244
f 335 332 1203
f 236 605 607
f 332 333 1153
f 606 609 452
f 1182 930 795
f 1203 332 331
f 336 335 334
f 455 338 336
f 328 336 323
f 1030 609 1031
f 1029 411 1182
f 337 813 612
f 327 323 338
f 297 339 110
f 463 614 817
f 127 1170 639
f 973 1201 972
f 341 628 638
f 639 1220 638
f 615 616 464
f 670 153 668
f 341 620 463
f 635 637 247
f 344 248 642
f 160 344 658
f 346 132 133
f 344 345 248
f 347 133 134
f 248 345 346
f 643 349 134
f 349 350 347
f 469 136 353
f 1139 248 346
f 643 134 135
f 350 349 348
f 348 1140 350
f 650 1142 1155
f 138 139 468
f 1144 356 249
f 355 352 493
f 249 351 354
f 180 470 472
f 136 469 135
f 468 351 138
f 355 354 352
f 258 373 493
f 181 180 472
f 249 356 351
f 136 356 353
f 474 1154 178
f 356 1144 353
f 176 647 177
f 1154 1216 471
f 651 176 175
f 361 480 659
f 852 853 657
f 852 854 478
f 480 158 159
f 361 659 1145
f 663 664 483
f 1172 169 674
f 664 857 483
f 1149 381 377
f 1146 252 1147
f 484 364 1159
f 156 478 1157
f 365 854 1146
f 156 615 1160
f 630 862 830
f 368 367 172
f 369 367 254
f 489 172 173
f 667 208 370
f 254 490 371
f 401 282 400
f 254 368 370
f 368 489 667
f 491 206 205
f 492 401 369
f 279 372 140
f 468 258 352
f 493 182 355
f 393 373 258
f 103 641 837
f 818 464 616
f 148 513 514
f 706 885 884
f 102 1191 1192
f 1118 1128 1099
f 152 665 1162
f 377 499 867
f 377 867 869
f 859 362 857
f 523 525 164
f 877 681 879
f 981 976 875
f 877 879 503
f 504 498 381
f 381 1149 1150
f 506 165 166
f 277 507 261
f 700 199 198
f 62 63 529
f 148 503 1163
f 741 704 522
f 717 891 716
f 884 885 514
f 517 145 388
f 386 263 891
f 72 265 387
f 388 387 265
f 707 388 265
f 517 386 515
f 739 77 518
f 727 728 887
f 69 740 522
f 270 519 520
f 742 270 520
f 525 1175 164
f 531 534 530
f 531 529 392
f 373 393 183
f 258 279 393
f 541 439 394
f 542 756 755
f 13 776 777
f 546 760 397
f 756 280 758
f 909 777 548
f 546 209 210
f 763 397 760
f 927 787 926
f 555 556 17
f 928 558 562
f 1114 1121 561
f 401 400 170
f 403 400 782
f 171 401 170
f 369 371 492
f 282 404 553
f 880 402 553
f 782 400 282
f 403 402 781
f 404 783 553
f 404 492 491
f 554 784 785
f 450 449 788
f 764 766 768
f 556 927 17
f 565 202 201
f 783 407 1181
f 687 261 682
f 682 382 506
f 1232 596 1068
f 582 422 583
f 794 196 197
f 410 285 1066
f 813 454 612
f 337 455 457
f 196 195 573
f 695 538 694
f 194 193 418
f 800 801 802
f 413 194 579
f 415 288 577
f 575 415 58
f 578 415 414
f 417 416 192
f 418 416 288
f 191 417 192
f 419 577 289
f 288 415 578
f 418 579 194
f 577 419 56
f 292 419 289
f 290 593 591
f 580 935 42
f 589 584 588
f 426 189 598
f 568 193 194
f 596 594 422
f 424 423 46
f 425 423 295
f 47 424 46
f 226 188 426
f 589 295 427
f 584 806 583
f 189 190 598
f 424 426 295
f 583 806 421
f 295 426 427
f 429 428 159
f 213 428 296
f 158 487 431
f 430 429 431
f 433 430 1201
f 296 429 430
f 158 431 429
f 431 366 862
f 629 624 631
f 129 1223 1221
f 1201 430 253
f 1222 1223 432
f 129 130 434
f 599 434 130
f 435 602 445
f 719 892 316
f 231 436 221
f 315 436 237
f 438 437 305
f 1151 437 280
f 1180 306 754
f 438 759 758
f 439 180 302
f 439 309 1151
f 440 126 462
f 311 440 312
f 311 441 219
f 461 441 312
f 33 442 236
f 34 313 442
f 1137 214 228
f 443 314 444
f 314 333 444
f 451 333 244
f 603 94 95
f 604 445 316
f 322 446 20
f 447 446 324
f 450 447 324
f 447 450 1152
f 449 448 330
f 450 283 1152
f 611 330 814
f 1094 1114 1125
f 324 448 450
f 449 450 448
f 318 451 240
f 444 333 451
f 452 605 606
f 332 1153 331
f 38 949 610
f 285 410 1167
f 457 459 337
f 921 919 920
f 1033 1204 1032
f 337 338 455
f 1076 946 1025
f 813 459 460
f 1204 455 334
f 456 1038 459
f 942 453 938
f 1029 571 799
f 456 459 457
f 459 458 460
f 458 815 460
f 929 454 1004
f 441 461 297
f 1138 461 312
f 639 462 127
f 440 462 340
f 108 109 614
f 341 465 620
f 616 155 154
f 861 860 488
f 247 343 617
f 343 618 617
f 624 634 247
f 1191 102 103
f 642 248 848
f 649 656 359
f 372 468 139
f 354 468 352
f 1144 645 353
f 348 643 469
f 471 470 179
f 472 470 357
f 1154 179 178
f 250 1141 1216
f 357 249 472
f 644 472 249
f 645 473 1141
f 473 645 1144
f 1156 474 143
f 1154 474 358
f 648 650 475
f 646 1156 143
f 849 175 174
f 173 661 662
f 477 157 479
f 478 477 360
f 478 360 852
f 1157 365 486
f 480 479 158
f 477 479 361
f 159 160 658
f 659 251 1145
f 855 856 1199
f 476 652 654
f 482 856 855
f 855 655 662
f 664 171 170
f 483 857 1158
f 665 485 484
f 868 867 499
f 485 154 486
f 484 485 364
f 1157 486 155
f 485 486 365
f 488 487 157
f 431 487 366
f 1160 157 156
f 861 666 860
f 667 256 208
f 172 489 368
f 370 490 254
f 206 490 207
f 205 404 491
f 492 404 282
f 401 492 282
f 371 491 492
f 258 493 352
f 182 493 373
f 669 152 151
f 866 670 494
f 495 865 864
f 863 494 669
f 148 514 1164
f 496 885 1161
f 1224 497 101
f 1134 497 376
f 499 498 151
f 381 498 377
f 1162 151 152
f 868 673 867
f 675 168 167
f 1172 500 1173
f 501 678 680
f 870 500 675
f 502 149 504
f 503 502 380
f 503 380 877
f 1163 384 511
f 498 504 150
f 502 504 381
f 506 505 165
f 508 505 382
f 566 506 166
f 682 261 507
f 508 277 275
f 682 507 382
f 277 508 507
f 163 508 275
f 691 693 509
f 791 407 565
f 803 198 197
f 697 538 695
f 1163 511 147
f 512 511 384
f 702 384 262
f 705 512 704
f 513 147 515
f 514 513 385
f 514 385 884
f 1164 496 672
f 517 515 146
f 513 515 386
f 890 983 982
f 709 711 263
f 388 707 710
f 386 517 709
f 1202 77 78
f 238 601 892
f 68 519 272
f 520 519 390
f 881 520 390
f 978 875 680
f 522 521 69
f 519 521 390
f 741 740 70
f 704 702 703
f 524 523 163
f 525 523 391
f 527 163 162
f 272 270 744
f 1177 1176 525
f 1175 1176 679
f 742 391 270
f 526 742 743
f 744 271 272
f 163 527 524
f 276 528 64
f 529 528 392
f 532 534 392
f 537 62 529
f 536 535 751
f 62 1165 61
f 540 392 539
f 1225 537 530
f 277 261 745
f 692 694 383
f 533 537 1225
f 286 801 1186
f 392 534 531
f 746 536 532
f 535 536 746
f 685 687 683
f 532 536 534
f 751 535 750
f 530 537 531
f 537 533 1165
f 510 574 695
f 536 538 699
f 540 539 264
f 528 539 392
f 277 540 264
f 392 540 532
f 439 541 179
f 753 541 394
f 757 280 756
f 752 755 544
f 910 13 777
f 543 911 897
f 544 212 752
f 396 903 544
f 546 545 209
f 547 545 397
f 902 761 546
f 763 760 281
f 763 547 397
f 207 992 206
f 775 1226 774
f 777 911 910
f 926 15 16
f 778 549 398
f 992 547 765
f 912 780 550
f 913 551 914
f 554 785 917
f 552 880 688
f 552 688 566
f 404 204 783
f 880 686 688
f 202 203 916
f 1005 405 1006
f 1152 18 447
f 556 555 406
f 556 406 558
f 787 560 1115
f 559 558 406
f 559 283 788
f 406 1152 559
f 562 558 557
f 283 450 788
f 558 559 1121
f 560 562 563
f 398 549 787
f 449 611 1002
f 1002 789 449
f 562 557 1113
f 562 560 928
f 1123 1125 1122
f 547 763 765
f 565 564 202
f 783 564 407
f 689 565 201
f 693 792 509
f 552 566 167
f 566 408 683
f 567 195 569
f 568 567 409
f 1066 285 1064
f 568 422 585
f 569 196 794
f 567 569 410
f 795 197 198
f 1167 570 1218
f 932 200 786
f 200 201 925
f 573 572 196
f 574 572 412
f 195 413 573
f 287 800 413
f 1178 286 698
f 700 574 510
f 576 575 59
f 415 575 414
f 1184 1217 1185
f 414 576 1183
f 57 577 56
f 288 417 577
f 287 578 414
f 288 578 418
f 418 578 579
f 287 579 578
f 44 587 805
f 936 935 580
f 582 581 191
f 427 581 421
f 585 582 192
f 583 422 290
f 584 583 290
f 421 582 583
f 590 584 591
f 805 588 590
f 568 585 193
f 582 585 422
f 423 586 45
f 587 586 425
f 588 587 425
f 43 805 580
f 589 588 425
f 590 588 584
f 295 589 425
f 427 421 806
f 591 584 290
f 580 590 420
f 593 290 594
f 420 590 591
f 1231 592 1232
f 593 597 591
f 594 290 422
f 593 592 595
f 596 422 568
f 593 594 807
f 285 931 1062
f 1212 936 595
f 1068 568 409
f 593 807 592
f 593 595 597
f 420 597 595
f 581 598 190
f 426 598 427
f 130 213 599
f 296 599 213
f 602 298 92
f 601 600 435
f 601 435 604
f 238 221 601
f 445 602 93
f 600 602 435
f 726 603 729
f 732 731 726
f 604 316 892
f 435 445 604
f 606 605 313
f 607 605 452
f 313 35 809
f 609 331 1153
f 333 607 452
f 607 314 1137
f 812 37 610
f 1189 609 606
f 609 1189 810
f 1030 331 609
f 949 39 811
f 950 951 952
f 814 327 612
f 789 561 788
f 337 612 338
f 814 454 611
f 798 1010 1012
f 561 789 1003
f 339 246 816
f 463 817 341
f 616 615 155
f 1160 615 464
f 670 154 153
f 342 464 818
f 618 343 106
f 619 617 465
f 107 618 106
f 465 617 618
f 619 465 621
f 634 635 247
f 465 618 620
f 107 620 618
f 625 621 341
f 832 629 974
f 631 625 632
f 366 488 860
f 625 638 623
f 1222 633 1219
f 631 619 621
f 627 955 831
f 817 614 816
f 629 622 624
f 625 623 632
f 623 1219 1048
f 342 820 824
f 828 627 831
f 1138 1168 246
f 639 638 628
f 631 624 619
f 1048 974 626
f 366 860 862
f 832 630 830
f 625 631 621
f 629 631 626
f 633 1048 1219
f 631 632 626
f 633 1201 973
f 973 974 633
f 955 624 622
f 635 634 627
f 636 635 627
f 635 466 637
f 820 342 818
f 836 833 636
f 637 466 640
f 247 637 343
f 341 638 625
f 628 1168 639
f 462 639 340
f 127 128 1170
f 641 640 466
f 104 105 640
f 636 833 466
f 641 466 833
f 248 1139 848
f 660 658 1171
f 349 643 348
f 135 469 643
f 354 644 249
f 181 644 355
f 1141 250 1140
f 348 469 645
f 647 646 177
f 475 1155 1156
f 649 176 651
f 649 359 648
f 650 648 359
f 475 647 648
f 176 649 647
f 649 476 656
f 966 967 359
f 1143 1142 958
f 652 651 175
f 649 651 476
f 174 173 662
f 655 653 654
f 853 962 964
f 660 467 970
f 655 654 652
f 654 653 656
f 849 655 652
f 655 481 961
f 959 656 653
f 968 967 851
f 360 1145 853
f 657 853 964
f 344 642 658
f 1171 467 660
f 480 660 659
f 660 970 1042
f 658 660 480
f 851 970 467
f 661 172 663
f 662 661 482
f 855 662 482
f 662 655 849
f 664 663 171
f 661 663 483
f 170 169 1172
f 1158 857 362
f 485 665 153
f 1162 665 484
f 824 826 342
f 862 253 431
f 368 667 370
f 256 667 489
f 669 668 152
f 670 668 494
f 671 669 151
f 494 863 374
f 866 494 374
f 616 154 670
f 671 150 672
f 669 671 495
f 1164 672 149
f 671 672 496
f 1100 980 1083
f 870 871 378
f 675 674 168
f 1172 674 500
f 676 675 167
f 871 872 680
f 677 676 166
f 675 676 501
f 165 164 1175
f 678 677 679
f 680 678 379
f 501 677 678
f 677 165 1175
f 679 1176 986
f 896 379 986
f 260 1149 869
f 380 1150 878
f 896 526 743
f 683 506 566
f 683 682 506
f 684 685 686
f 682 683 687
f 284 407 791
f 535 746 747
f 686 685 408
f 685 684 687
f 688 686 408
f 686 284 793
f 684 693 749
f 748 746 745
f 566 688 408
f 880 552 402
f 690 689 200
f 565 689 509
f 692 199 700
f 692 383 691
f 693 691 383
f 509 690 691
f 199 692 690
f 692 510 694
f 535 747 750
f 684 686 793
f 695 694 510
f 694 538 751
f 1178 574 412
f 696 699 697
f 696 697 698
f 1185 1186 801
f 698 697 695
f 696 1225 699
f 1178 695 574
f 698 286 1188
f 536 699 530
f 538 697 699
f 700 198 803
f 692 700 510
f 511 701 146
f 705 701 512
f 703 702 262
f 704 512 702
f 743 520 882
f 703 881 522
f 522 704 703
f 705 704 266
f 268 705 266
f 701 705 145
f 716 263 713
f 1087 1105 1215
f 73 983 1053
f 710 709 517
f 890 516 707
f 888 75 389
f 517 388 710
f 709 710 711
f 707 516 710
f 516 1179 710
f 712 713 714
f 727 269 720
f 736 1109 735
f 263 711 713
f 714 711 1179
f 712 715 716
f 889 708 887
f 722 724 727
f 1105 1087 1103
f 844 1049 847
f 712 716 713
f 1103 717 715
f 884 717 706
f 891 717 385
f 739 718 389
f 719 718 518
f 719 984 892
f 725 726 723
f 719 723 722
f 719 722 720
f 723 726 721
f 738 895 737
f 723 719 316
f 724 722 721
f 725 723 316
f 721 722 723
f 726 731 721
f 724 728 727
f 445 725 316
f 725 603 726
f 729 603 95
f 731 732 730
f 722 727 720
f 733 735 737
f 889 714 516
f 708 886 887
f 95 96 729
f 732 893 1193
f 1129 1130 1131
f 733 737 724
f 732 726 729
f 733 731 730
f 96 893 729
f 732 729 893
f 735 733 730
f 721 733 724
f 985 732 894
f 714 895 738
f 736 735 730
f 735 734 737
f 1129 99 1118
f 100 1134 99
f 737 734 738
f 728 724 737
f 1108 738 734
f 712 714 738
f 77 739 76
f 718 739 518
f 69 70 740
f 71 741 70
f 704 741 266
f 522 740 741
f 743 742 520
f 526 1176 1177
f 520 881 882
f 882 262 883
f 524 744 270
f 271 744 527
f 747 748 687
f 540 745 532
f 532 745 746
f 745 261 748
f 687 749 747
f 750 383 751
f 687 748 261
f 746 748 747
f 684 749 687
f 750 749 693
f 749 750 747
f 693 383 750
f 694 751 383
f 751 538 536
f 753 143 178
f 752 542 755
f 753 178 541
f 542 752 753
f 897 899 754
f 306 10 898
f 542 757 756
f 396 544 755
f 758 280 438
f 396 755 756
f 753 757 542
f 757 394 1151
f 759 438 899
f 756 758 900
f 778 1226 775
f 756 900 396
f 902 546 210
f 761 760 546
f 900 759 1229
f 760 761 762
f 1227 761 903
f 770 768 767
f 766 763 281
f 766 765 763
f 768 281 907
f 764 1194 1088
f 764 904 765
f 904 399 906
f 907 281 762
f 765 766 764
f 774 771 772
f 1093 769 1095
f 281 768 766
f 770 772 769
f 1088 904 764
f 770 1194 768
f 772 770 767
f 1092 1194 769
f 907 908 767
f 1095 771 1096
f 767 908 774
f 772 771 1095
f 762 1227 1228
f 988 901 759
f 767 774 772
f 774 773 775
f 901 988 990
f 775 548 778
f 549 776 14
f 777 776 548
f 548 775 909
f 12 910 543
f 778 398 1226
f 548 549 778
f 992 779 206
f 780 779 550
f 912 550 399
f 780 914 915
f 403 781 168
f 402 552 781
f 403 782 402
f 282 553 782
f 564 783 203
f 1181 407 284
f 784 202 916
f 925 554 786
f 785 916 915
f 554 917 405
f 922 924 405
f 797 571 796
f 926 549 15
f 787 927 928
f 789 788 449
f 559 788 561
f 929 1002 454
f 1003 789 1002
f 919 994 922
f 922 917 918
f 792 791 565
f 284 791 793
f 509 792 565
f 793 693 684
f 791 792 793
f 693 793 792
f 795 794 197
f 794 570 410
f 796 795 198
f 1182 795 571
f 797 796 199
f 795 796 571
f 200 797 199
f 932 786 933
f 571 797 799
f 799 797 932
f 797 200 932
f 799 798 934
f 800 287 801
f 573 413 800
f 287 414 1183
f 60 61 1217
f 801 286 802
f 412 802 286
f 572 803 197
f 700 803 574
f 945 939 943
f 1196 1197 1211
f 44 805 43
f 805 587 588
f 584 589 806
f 427 806 589
f 594 596 807
f 1066 1068 409
f 1022 1021 931
f 938 811 940
f 36 809 35
f 809 608 1189
f 1190 952 608
f 948 1037 1075
f 39 1196 1195
f 1212 1213 804
f 950 610 453
f 809 1190 608
f 459 813 337
f 454 813 460
f 327 814 330
f 454 814 612
f 815 458 1074
f 1058 999 1000
f 816 246 1168
f 614 339 816
f 816 628 817
f 628 341 817
f 954 616 670
f 616 954 818
f 822 825 828
f 818 819 820
f 820 819 823
f 820 825 824
f 827 823 819
f 845 834 842
f 831 955 829
f 826 666 342
f 866 819 954
f 824 825 822
f 825 820 823
f 824 822 826
f 823 821 825
f 841 828 825
f 822 829 826
f 832 829 622
f 374 1086 827
f 821 823 827
f 841 821 838
f 636 627 828
f 831 829 822
f 832 830 829
f 666 826 830
f 829 830 826
f 828 831 822
f 627 634 955
f 622 629 832
f 974 629 626
f 641 833 837
f 834 836 838
f 834 838 842
f 1224 101 1192
f 837 836 839
f 834 840 839
f 838 836 636
f 839 836 834
f 836 837 833
f 837 835 1191
f 841 636 828
f 838 821 842
f 842 1205 845
f 837 839 835
f 259 1224 956
f 835 839 840
f 821 841 825
f 636 841 838
f 843 821 827
f 821 843 842
f 1085 863 864
f 834 845 846
f 864 865 1084
f 956 847 259
f 1205 842 843
f 846 845 844
f 846 844 847
f 834 846 840
f 1050 844 1205
f 1051 375 1087
f 848 350 1143
f 642 848 969
f 175 849 652
f 662 849 174
f 964 960 965
f 1042 659 660
f 359 656 966
f 966 959 851
f 853 852 360
f 1047 854 657
f 960 962 850
f 960 850 959
f 1146 854 252
f 854 365 1157
f 482 1158 856
f 655 855 481
f 362 1043 1045
f 963 1200 1047
f 1172 1173 1174
f 857 664 1174
f 876 980 378
f 1174 859 857
f 980 858 1173
f 1045 971 1046
f 488 1160 861
f 862 860 666
f 464 342 861
f 666 861 342
f 830 862 666
f 630 972 862
f 495 864 669
f 863 669 864
f 495 1161 865
f 975 1049 1050
f 975 1102 1051
f 975 1050 1084
f 374 827 866
f 819 866 827
f 499 1162 868
f 869 867 673
f 1159 868 484
f 868 363 1082
f 871 874 876
f 260 869 976
f 872 675 501
f 870 872 871
f 680 874 871
f 876 378 871
f 675 872 870
f 680 872 501
f 874 875 873
f 977 869 673
f 875 874 680
f 876 874 873
f 978 680 379
f 878 681 877
f 977 873 976
f 971 1148 1147
f 878 877 380
f 681 262 879
f 260 981 878
f 978 979 875
f 262 384 879
f 879 384 1163
f 1181 553 783
f 686 880 284
f 522 881 390
f 881 703 882
f 703 262 882
f 883 262 681
f 979 1052 878
f 743 882 883
f 717 884 385
f 706 375 885
f 1161 885 375
f 885 496 1164
f 887 886 269
f 886 708 888
f 727 887 269
f 887 728 889
f 982 888 708
f 74 75 888
f 889 728 895
f 890 889 516
f 1053 707 265
f 983 74 982
f 386 891 385
f 716 891 263
f 892 601 604
f 984 719 518
f 97 1193 96
f 732 1193 894
f 1131 97 98
f 732 985 730
f 889 895 714
f 737 895 728
f 743 883 896
f 681 1052 883
f 899 897 395
f 987 754 898
f 10 11 898
f 987 898 11
f 754 899 438
f 395 759 899
f 758 759 900
f 1229 759 901
f 988 759 395
f 1228 773 908
f 210 211 902
f 991 902 211
f 1227 903 396
f 902 903 761
f 768 1194 764
f 906 399 550
f 1092 1093 1090
f 1056 998 997
f 550 779 992
f 765 904 906
f 908 907 762
f 768 907 767
f 762 761 1227
f 908 773 774
f 990 988 989
f 911 543 910
f 13 910 12
f 911 777 909
f 989 911 909
f 911 395 897
f 913 912 399
f 915 914 551
f 1054 1055 993
f 995 999 996
f 780 912 914
f 913 914 912
f 915 551 918
f 204 915 203
f 915 916 203
f 784 916 785
f 785 918 917
f 918 920 922
f 915 918 785
f 918 551 920
f 551 921 920
f 1008 923 1009
f 921 551 913
f 922 920 919
f 913 399 1055
f 921 913 1054
f 994 924 922
f 917 922 405
f 923 994 996
f 790 1000 999
f 1009 1001 1008
f 798 799 1028
f 784 925 201
f 786 200 925
f 927 926 16
f 549 926 787
f 17 927 16
f 558 928 556
f 787 928 560
f 556 928 927
f 1004 454 460
f 815 1059 1004
f 411 931 1218
f 570 795 930
f 934 1013 1015
f 942 939 1039
f 786 1005 933
f 799 932 1028
f 1006 933 1005
f 924 1007 1006
f 1011 1012 1001
f 815 1074 1071
f 936 580 420
f 935 804 1198
f 595 936 420
f 804 935 936
f 812 950 952
f 1204 457 455
f 949 938 610
f 811 1195 943
f 1232 592 807
f 940 942 938
f 811 39 1195
f 940 939 942
f 40 1197 1196
f 1207 1209 1212
f 945 947 939
f 1036 1038 1035
f 811 943 940
f 941 1210 945
f 1207 592 1231
f 1067 808 1064
f 941 945 943
f 1214 947 945
f 1015 411 934
f 948 1039 947
f 1214 945 944
f 947 946 948
f 1025 1016 1020
f 937 1230 1035
f 39 949 38
f 938 949 811
f 950 453 951
f 812 610 950
f 1040 453 942
f 951 1230 1031
f 951 810 952
f 952 810 1189
f 1024 1026 1027
f 1022 931 411
f 866 954 670
f 818 954 819
f 624 955 634
f 829 955 622
f 1224 259 376
f 846 956 840
f 1106 1103 715
f 259 847 1041
f 848 1143 958
f 650 967 958
f 960 959 653
f 851 959 850
f 961 960 653
f 962 251 1042
f 655 961 653
f 1199 965 481
f 964 962 960
f 853 251 962
f 1199 963 965
f 1046 1200 1045
f 965 960 961
f 657 964 963
f 481 965 961
f 963 964 965
f 959 966 656
f 967 966 851
f 851 467 968
f 359 967 650
f 969 968 467
f 958 967 968
f 642 969 467
f 958 969 848
f 851 850 970
f 1042 970 850
f 971 1043 1044
f 363 1159 1147
f 973 972 630
f 253 862 972
f 974 973 630
f 633 432 1201
f 832 974 630
f 626 632 1048
f 1051 865 375
f 1049 1079 1041
f 977 976 869
f 875 976 873
f 1082 1044 1081
f 876 873 977
f 379 896 978
f 979 878 981
f 978 896 979
f 896 883 1052
f 1083 1101 1081
f 673 1081 977
f 976 981 260
f 979 981 875
f 888 982 74
f 708 890 982
f 890 707 1053
f 74 983 73
f 1202 518 77
f 238 892 984
f 894 736 985
f 736 730 985
f 679 986 379
f 526 896 986
f 11 543 987
f 897 987 543
f 989 395 911
f 909 990 989
f 990 909 775
f 395 989 988
f 775 773 990
f 901 990 773
f 211 544 991
f 903 991 544
f 547 992 207
f 550 992 906
f 1093 1057 1090
f 1089 1091 998
f 997 996 994
f 923 924 994
f 998 1056 1054
f 997 998 995
f 997 994 919
f 995 1123 999
f 1056 919 921
f 995 996 997
f 993 1089 998
f 1124 998 1091
f 1000 790 929
f 996 999 1058
f 1000 929 1004
f 613 1060 1009
f 1071 1072 1073
f 1028 1007 1010
f 454 1002 611
f 1003 1002 929
f 929 790 1003
f 1003 790 1122
f 460 815 1004
f 815 613 1059
f 786 554 1005
f 405 1005 554
f 405 924 1006
f 923 1008 924
f 1010 1007 1001
f 933 1006 1007
f 1001 1007 1008
f 924 1008 1007
f 1058 923 996
f 613 1206 1059
f 1011 1001 1060
f 1010 798 1028
f 934 1012 1013
f 1012 934 798
f 1001 1012 1010
f 1012 1011 1013
f 1014 1011 1072
f 1013 1011 1014
f 1023 1017 1019
f 1017 1014 953
f 1023 1013 1014
f 411 1015 1022
f 1017 1020 1016
f 1097 1021 1016
f 1020 1017 1024
f 1019 1017 1016
f 1018 1020 1024
f 1037 1077 1036
f 1019 1016 1021
f 1023 1019 1015
f 1024 1017 953
f 1025 1020 1018
f 1016 1098 1097
f 931 1021 1062
f 1015 1019 1022
f 1021 1022 1019
f 1013 1023 1015
f 1017 1023 1014
f 953 1026 1024
f 1027 1018 1024
f 1077 1076 1018
f 1025 946 1098
f 1026 953 1071
f 456 1035 1038
f 1026 1074 1078
f 1035 456 1033
f 932 933 1028
f 1028 933 1007
f 799 934 1029
f 411 1029 934
f 1031 609 810
f 1032 1030 937
f 951 1031 810
f 937 1030 1031
f 1033 1032 937
f 334 335 1203
f 1031 1230 937
f 1204 456 457
f 1040 951 453
f 1018 1027 1077
f 937 1035 1033
f 1036 1035 1034
f 1036 1034 1037
f 1036 1027 1038
f 1034 1040 1075
f 1037 948 1076
f 1078 1027 1026
f 1038 1078 459
f 947 1039 939
f 1075 1039 948
f 942 1039 1075
f 1230 1040 1034
f 1041 847 1049
f 1099 1041 1117
f 962 1042 850
f 659 1042 251
f 1044 1043 859
f 1045 1043 971
f 1100 859 858
f 977 1101 876
f 1147 1046 971
f 362 1045 856
f 1047 1046 252
f 963 1199 1200
f 854 1047 252
f 963 1047 657
f 623 1048 632
f 633 974 1048
f 1050 1049 844
f 1049 975 1079
f 1085 1050 1086
f 1085 864 1084
f 1087 375 706
f 1051 1215 1079
f 878 1052 681
f 896 1052 979
f 73 1053 265
f 890 1053 983
f 1055 1054 913
f 998 1054 993
f 1088 399 904
f 905 993 1055
f 919 1056 997
f 1054 1056 921
f 1057 1089 1090
f 1112 1113 1094
f 1206 1058 1000
f 1009 923 1058
f 1206 613 1009
f 1004 1059 1206
f 1060 613 1073
f 1001 1009 1060
f 1070 1065 1069
f 1021 1063 1062
f 1021 1097 1063
f 1066 1064 808
f 1063 1069 1067
f 1231 1067 1065
f 285 1062 1064
f 1063 1064 1062
f 1061 1070 1069
f 592 1207 595
f 1068 1066 808
f 1066 409 410
f 1064 1063 1067
f 1069 1063 1061
f 1068 808 1232
f 1068 596 568
f 1061 1098 1070
f 1065 1067 1069
f 1214 946 947
f 1214 1208 1070
f 953 1014 1072
f 815 1071 613
f 1073 1072 1011
f 953 1072 1071
f 1060 1073 1011
f 613 1071 1073
f 1078 1074 458
f 1071 1074 1026
f 1034 1075 1037
f 1040 942 1075
f 946 1076 948
f 1018 1076 1025
f 1036 1077 1027
f 1076 1077 1037
f 459 1078 458
f 1027 1078 1038
f 1051 1079 975
f 957 1041 1079
f 1127 1119 1104
f 1126 1080 1117
f 1082 1081 673
f 1083 1081 1044
f 868 1082 673
f 1044 1082 363
f 1100 1044 859
f 1101 980 876
f 865 1051 1102
f 1085 1084 1050
f 1050 1205 1086
f 1085 374 863
f 827 1086 843
f 374 1085 1086
f 1103 706 717
f 1087 706 1103
f 905 1055 1088
f 399 1088 1055
f 1090 1089 993
f 1091 1089 1057
f 993 905 1090
f 1092 1090 905
f 1057 1094 1091
f 1114 1094 557
f 1194 1092 905
f 1093 1092 769
f 769 772 1095
f 1093 563 1112
f 1112 1094 1057
f 557 1121 1114
f 1226 1096 771
f 1093 1095 1116
f 1115 398 787
f 1116 560 563
f 1098 1016 1025
f 1063 1097 1061
f 1070 1098 946
f 1097 1098 1061
f 1117 1041 957
f 1099 1080 1118
f 980 1100 858
f 1044 1100 1083
f 1081 1101 977
f 980 1101 1083
f 975 1084 1102
f 865 1102 1084
f 715 1107 1106
f 1106 1105 1103
f 1107 1111 1104
f 1111 1110 1104
f 1119 1105 1104
f 1215 1105 957
f 1107 715 712
f 1105 1106 1104
f 1108 1107 712
f 1104 1106 1107
f 738 1108 712
f 1109 1108 734
f 735 1109 734
f 1109 736 1110
f 1135 1110 736
f 1117 1080 1099
f 1108 1111 1107
f 1110 1111 1109
f 1093 1112 1057
f 1113 1112 563
f 562 1113 563
f 557 1094 1113
f 561 1122 1114
f 1123 1122 790
f 1116 1115 560
f 398 1115 1096
f 1095 1096 1116
f 1116 1096 1115
f 1119 957 1105
f 1119 1127 1117
f 1118 1080 1129
f 497 1134 100
f 1127 1104 1110
f 1117 957 1119
f 894 1133 736
f 98 1132 1131
f 558 1121 557
f 561 1121 559
f 1003 1122 561
f 790 999 1123
f 995 1124 1123
f 1123 1124 1125
f 998 1124 995
f 1125 1124 1091
f 1094 1125 1091
f 1122 1125 1114
f 1135 1126 1110
f 1130 1126 1120
f 1110 1126 1127
f 1117 1127 1126
f 376 259 1128
f 1099 1128 259
f 1130 1129 1080
f 98 99 1132
f 1126 1130 1080
f 1130 1120 1131
f 1120 1133 1131
f 1131 1133 97
f 99 1129 1132
f 1131 1132 1129
f 1133 1120 1135
f 97 1133 894
f 99 1134 1118
f 1128 1134 376
f 1133 1135 736
f 1126 1135 1120
f 237 1136 230
f 220 1136 82
f 607 1137 236
f 443 1137 314
f 461 1138 246
f 440 1138 312
f 347 350 1139
f 848 1139 350
f 1141 348 645
f 1140 250 1142
f 1141 473 1216
f 348 1141 1140
f 1155 1142 250
f 958 1142 650
f 350 1140 1143
f 1142 1143 1140
f 249 357 1144
f 473 1144 357
f 853 1145 251
f 360 361 1145
f 252 1046 1147
f 364 365 1146
f 971 1044 1148
f 364 1146 1147
f 1044 363 1148
f 363 1147 1148
f 869 1149 377
f 1150 1149 260
f 878 1150 260
f 380 381 1150
f 437 1151 309
f 757 1151 280
f 559 1152 283
f 555 1152 406
f 333 452 1153
f 609 1153 452
f 358 250 1216
f 179 1154 471
f 1156 1155 358
f 650 1155 475
f 1156 358 474
f 475 1156 646
f 156 1157 155
f 854 1157 478
f 856 1158 362
f 482 483 1158
f 1147 1159 364
f 868 1159 363
f 861 1160 464
f 157 1160 488
f 865 1161 375
f 495 496 1161
f 868 1162 484
f 151 1162 499
f 148 1163 147
f 879 1163 503
f 148 1164 149
f 885 1164 514
f 537 1165 62
f 1165 533 1187
f 696 1188 1187
f 801 287 1183
f 1218 570 930
f 285 1167 1218
f 639 1168 340
f 816 1168 628
f 1220 623 638
f 1170 1221 1169
f 1221 1170 128
f 1220 1170 1169
f 658 642 1171
f 467 1171 642
f 870 1173 500
f 170 1172 664
f 980 1173 378
f 1174 1173 858
f 1174 858 859
f 664 1172 1174
f 1176 1175 525
f 677 1175 679
f 1177 525 391
f 1176 526 986
f 391 742 1177
f 526 1177 742
f 286 1178 412
f 695 1178 698
f 710 1179 711
f 516 714 1179
f 438 305 1180
f 1180 305 308
f 284 880 1181
f 553 1181 880
f 1029 1182 571
f 930 1182 411
f 1184 1183 576
f 1185 1166 1186
f 59 1184 576
f 1184 60 1217
f 801 1183 1185
f 1184 1185 1183
f 1187 1186 1166
f 1188 1186 1187
f 1165 1187 1166
f 1187 533 1225
f 698 1188 696
f 286 1186 1188
f 809 1189 606
f 952 1189 608
f 952 1190 812
f 36 812 1190
f 837 1191 103
f 1192 1191 835
f 835 840 1192
f 1192 840 1224
f 96 1193 893
f 97 894 1193
f 769 1194 770
f 1088 1194 905
f 1196 39 40
f 943 1195 941
f 1197 40 41
f 941 1195 1196
f 41 1198 1197
f 1210 1211 1213
f 935 1198 41
f 1198 804 1213
f 855 1199 481
f 1200 1199 856
f 1045 1200 856
f 1200 1046 1047
f 433 1201 432
f 972 1201 253
f 1202 78 242
f 518 1202 984
f 1030 1203 331
f 334 1203 1032
f 1032 1204 334
f 456 1204 1033
f 845 1205 844
f 1086 1205 843
f 1058 1206 1009
f 1004 1206 1000
f 1065 1208 1207
f 1208 1209 1207
f 1070 1208 1065
f 1209 1208 944
f 1210 1209 944
f 1213 1212 1209
f 945 1210 944
f 1211 1210 941
f 1196 1211 941
f 1197 1198 1213
f 936 1212 804
f 1207 1212 595
f 1210 1213 1209
f 1213 1211 1197
f 1208 1214 944
f 946 1214 1070
f 1079 1215 957
f 1087 1215 1051
f 471 1216 473
f 358 1216 1154
f 1165 1217 61
f 1217 1166 1185
f 411 1218 930
f 285 1218 931
f 1220 1219 623
f 1222 1219 1169
f 1170 1220 639
f 1219 1220 1169
f 128 129 1221
f 129 434 1223
f 633 1222 432
f 1169 1221 1222
f 432 1223 434
f 1221 1223 1222
f 956 1224 840
f 1224 376 497
f 699 1225 530
f 1187 1225 696
f 1096 1226 398
f 774 1226 771
f 1229 396 900
f 901 773 1228
f 762 1228 908
f 901 1228 1227
f 901 1227 1229
f 396 1229 1227
f 1040 1230 951
f 1035 1230 1034
f 1067 1231 808
f 1207 1231 1065
f 1232 807 596
f 808 1231 1232
