OFF
1232 2320 0
-0.07938931 -1.09618321 0.00000000
-0.07105687 -1.07630632 0.01368252
-0.06040871 -1.05149338 0.03064053
-0.05027688 -1.02937513 0.04553157
-0.03997922 -1.00958680 0.05863375
-0.02810682 -0.98909917 0.07172609
-0.01451717 -0.96673766 0.08551240
-0.00209761 -0.94695238 0.09730521
0.01319633 -0.92504410 0.10968263
0.02812144 -0.90560927 0.11989154
0.04800601 -0.88017290 0.13268229
0.06887195 -0.85785565 0.14220279
0.08990909 -0.83560343 0.15119568
0.10877058 -0.81735169 0.15732236
0.12892102 -0.79826593 0.16302032
0.15310919 -0.77559243 0.16923686
0.17389338 -0.76231998 0.16959146
0.19759726 -0.74909909 0.16767844
0.22167091 -0.73680368 0.16373588
0.25102159 -0.72537786 0.15400807
0.27596066 -0.71567957 0.14532754
0.30182351 -0.70740509 0.13387962
0.33029237 -0.69888584 0.11963521
0.35272128 -0.69219371 0.10791684
0.38371758 -0.68616849 0.08821351
0.41137479 -0.68092339 0.07000179
0.43627827 -0.67817947 0.05209146
0.45746762 -0.67654266 0.03606814
0.47932149 -0.67533614 0.01894039
0.50259542 -0.67541985 0.00000000
0.49039294 -0.64682028 0.00000000
0.47705156 -0.61803819 0.00000000
0.46219909 -0.58938171 0.00000000
0.44711907 -0.56028611 0.00000000
0.43466338 -0.53625399 0.00000000
0.42199442 -0.50695223 0.00000000
0.40936106 -0.47587015 0.00000000
0.39826563 -0.44857187 0.00000000
0.38812015 -0.41671655 0.00000000
0.38008588 -0.38478035 0.00000000
0.37192372 -0.35233574 0.00000000
0.36496608 -0.31949785 0.00000000
0.35986056 -0.29113373 0.00000000
0.35446270 -0.26114571 0.00000000
0.35120710 -0.23184222 0.00000000
0.35003794 -0.20144447 0.00000000
0.34889887 -0.17182895 0.00000000
0.34956442 -0.13632195 0.00000000
0.35236641 -0.10870229 0.00000000
0.32960389 -0.12238403 0.00697701
0.30092649 -0.13923149 0.01572473
0.27434118 -0.15404073 0.02366265
0.25015242 -0.16684158 0.03062968
0.22442279 -0.18020332 0.03788670
0.19673344 -0.19436009 0.04552114
0.17013286 -0.20702100 0.05213137
0.14148618 -0.22048627 0.05908401
0.11570411 -0.23254160 0.06523979
0.08921043 -0.24435043 0.07107946
0.05599725 -0.25806145 0.07751230
0.02288331 -0.27045581 0.08302249
-0.00959757 -0.27992716 0.08682946
-0.04210921 -0.28907679 0.09039741
-0.07109628 -0.29540049 0.09269543
-0.10410317 -0.30165634 0.09487254
-0.13869309 -0.30512978 0.09599412
-0.16981215 -0.30574903 0.09605296
-0.20055752 -0.30517881 0.09562351
-0.22929444 -0.30319307 0.09459900
-0.26201868 -0.29985388 0.09294168
-0.29599122 -0.29560265 0.09085243
-0.32925903 -0.29049057 0.08836912
-0.36471206 -0.28007190 0.08362381
-0.39811676 -0.26968786 0.07886382
-0.42830026 -0.25754842 0.07336724
-0.45561431 -0.24576788 0.06801157
-0.48627603 -0.23249608 0.06194837
-0.51156312 -0.21808881 0.05539037
-0.53408128 -0.20512239 0.04946170
-0.55547904 -0.19221070 0.04351811
-0.58457014 -0.17402365 0.03508878
-0.61491016 -0.15502839 0.02625074
-0.63968113 -0.13841918 0.01850555
-0.66740856 -0.11946755 0.00963517
-0.69740458 -0.09893130 0.00000000
-0.68315078 -0.12335668 0.00901530
-0.66713581 -0.15095295 0.01910978
-0.65531619 -0.17164970 0.02652517
-0.64388979 -0.19284014 0.03381733
-0.63168101 -0.21583194 0.04154778
-0.61874164 -0.24278762 0.04995352
-0.60647683 -0.26950598 0.05791497
-0.59484076 -0.29771361 0.06561949
-0.58420808 -0.32611825 0.07277315
-0.57601229 -0.35593500 0.07886613
-0.56768832 -0.38695448 0.08492093
-0.55872581 -0.42177250 0.09130967
-0.55325677 -0.45533386 0.09536358
-0.54800488 -0.48849927 0.09911451
-0.54431406 -0.52053701 0.10148311
-0.54112123 -0.55097022 0.10342169
-0.54013480 -0.58498855 0.10358213
-0.53929652 -0.61679490 0.10351911
-0.53994798 -0.64913778 0.10207246
-0.54212256 -0.68041390 0.09949056
-0.54583290 -0.70924698 0.09584562
-0.55229008 -0.73940324 0.09031157
-0.56051537 -0.76901858 0.08357292
-0.56899493 -0.79629483 0.07667990
-0.57816285 -0.82346558 0.06923794
-0.58888351 -0.85210936 0.06059816
-0.59745245 -0.87396964 0.05365481
-0.60704843 -0.89761681 0.04587987
-0.61887410 -0.92087080 0.03716883
-0.63082053 -0.94392956 0.02835701
-0.64234883 -0.96571690 0.01984616
-0.65554544 -0.99043513 0.01008412
-0.66931298 -1.01557252 0.00000000
-0.65415996 -1.00111492 0.00826162
-0.63467059 -0.98306979 0.01873637
-0.61560633 -0.96574818 0.02882696
-0.59231547 -0.94535228 0.04072651
-0.56808179 -0.92503060 0.05262959
-0.54434038 -0.90633756 0.06368119
-0.51696401 -0.88637704 0.07573930
-0.49218876 -0.87111798 0.08543617
-0.46591676 -0.85674267 0.09479160
-0.43487782 -0.85023545 0.10130351
-0.39757942 -0.84623763 0.10717266
-0.36513121 -0.84946172 0.10896313
-0.33255849 -0.85713759 0.10834658
-0.30718454 -0.86942973 0.10476574
-0.27992390 -0.88502342 0.09952367
-0.25401212 -0.90161521 0.09345054
-0.23159272 -0.91969570 0.08602278
-0.21006679 -0.93854721 0.07784955
-0.18797540 -0.95945514 0.06830271
-0.16789647 -0.98179958 0.05763898
-0.14889775 -1.00347971 0.04711077
-0.12992055 -1.02718838 0.03527614
-0.11048354 -1.05193973 0.02271584
-0.09185822 -1.07831339 0.00920648
-0.12000007 -0.82341851 0.10518061
-0.32072493 -0.31629778 0.09898374
-0.31983231 -0.34602436 0.10971326
-0.31918222 -0.37736280 0.11929722
-0.31955542 -0.40831052 0.12716266
-0.31965626 -0.43963559 0.13373844
-0.31972536 -0.47070286 0.13931014
-0.32019861 -0.50191234 0.14379258
-0.31975239 -0.53329710 0.14753386
-0.31942385 -0.56397192 0.15022901
-0.32008938 -0.59488010 0.15197675
-0.31957640 -0.62563107 0.15301088
-0.31975750 -0.65675973 0.15312956
-0.31973082 -0.68797912 0.15190633
-0.31989584 -0.71859989 0.14917827
-0.32015539 -0.74966236 0.14467131
-0.31996384 -0.78064731 0.13812849
-0.31974842 -0.81135483 0.12884238
-0.31728710 -0.84207639 0.11658459
-0.13008639 -0.33409466 0.10600209
-0.12832172 -0.36472492 0.11525887
-0.12741586 -0.39566677 0.12297402
-0.12323958 -0.42597030 0.12920029
-0.12039830 -0.45631467 0.13418808
-0.11823606 -0.48762771 0.13795727
-0.11783048 -0.51819535 0.13992864
-0.11815701 -0.54848679 0.14086939
-0.12038966 -0.57874794 0.14037608
-0.12201951 -0.61024691 0.13938529
-0.12867492 -0.63829011 0.13671007
-0.12976898 -0.67058802 0.13317787
-0.12971600 -0.70312624 0.12905443
-0.12507697 -0.73349724 0.12430009
-0.12286065 -0.76088088 0.11918852
-0.11861657 -0.79359195 0.11242781
-0.11221245 -0.85500129 0.09562166
-0.10353059 -0.88484331 0.08607737
-0.09909461 -0.91654449 0.07539385
-0.09587097 -0.94385191 0.06502290
-0.09257263 -0.97346751 0.05319361
-0.08945709 -1.00381483 0.04051183
-0.08669767 -1.03237382 0.02828156
-0.08372232 -1.06438773 0.01430174
0.33164478 -0.13220867 0.00725863
0.31129453 -0.15580898 0.01665020
0.29083132 -0.17862409 0.03018761
0.26860462 -0.20020591 0.04427768
0.24627422 -0.22167684 0.05896309
0.22410462 -0.24403828 0.07462220
0.20401592 -0.26736801 0.09032147
0.18481943 -0.29230152 0.10665282
0.16548690 -0.31705201 0.12126844
0.14841394 -0.34268008 0.13698131
0.13184693 -0.36844852 0.15083024
0.11342932 -0.39355152 0.16235461
0.09440975 -0.41826400 0.17128154
0.07795378 -0.44465684 0.17993108
0.06222252 -0.47114556 0.18631909
0.04331169 -0.49582024 0.18815829
0.02327434 -0.51948058 0.18713191
0.00268202 -0.54294189 0.18338868
-0.01457199 -0.56808155 0.17963921
-0.02881031 -0.59576435 0.17593354
-0.04949864 -0.62139832 0.16620397
-0.06346670 -0.64798192 0.15820189
-0.07686639 -0.67617232 0.14923604
-0.08472648 -0.70526085 0.14164075
-0.09320833 -0.73359419 0.13280290
-0.10287376 -0.76628012 0.12202214
-0.10475489 -0.79543271 0.11419786
-0.34436473 -0.83077710 0.12044560
0.44842062 -0.64454242 0.04824901
0.33535920 -0.15409152 0.00700865
0.47143779 -0.65545515 0.03025168
-0.61211281 -0.94005727 0.03911288
-0.59424180 -0.92188207 0.04881296
-0.56141489 -0.87565345 0.07247399
-0.63101950 -0.16967365 0.03277451
-0.56755824 -0.23936493 0.06304810
-0.06785428 -1.01299079 0.05396234
-0.05232645 -0.96611359 0.08519872
0.33189187 -0.65737364 0.14954636
0.42465885 -0.65630226 0.06988860
0.32447193 -0.17596057 0.01543501
0.46762003 -0.63470872 0.02441534
0.45858682 -0.61073271 0.02504428
-0.57768268 -0.89729645 0.05789768
-0.61855855 -0.19206961 0.04225296
-0.55304293 -0.21686493 0.05556005
-0.06921829 -0.98883274 0.06598346
-0.03219556 -0.97524064 0.08489077
-0.02466537 -0.95093096 0.09910886
0.34109181 -0.68249873 0.13364304
0.43161687 -0.58711987 0.05532861
-0.58688671 -0.20420334 0.04834733
-0.53194131 -0.24332739 0.06712025
-0.04834681 -0.99570641 0.07046789
0.37214611 -0.66374315 0.11954330
0.30323187 -0.68078459 0.15787108
-0.52919253 -0.22353443 0.05849406
0.35403014 -0.67072306 0.13116804
0.35258460 -0.63844560 0.14027021
0.31985122 -0.69275759 0.14073361
-0.52348014 -0.82585057 0.09589040
-0.48701385 -0.70357719 0.12781889
-0.27353374 -0.84399279 0.11877054
-0.14605220 -0.94103460 0.07703921
-0.17498144 -0.85448372 0.11194787
-0.26080396 -0.73348798 0.14532672
-0.26043079 -0.64082118 0.15072200
-0.37887888 -0.76599502 0.13966406
-0.09226095 -0.62903658 0.14777686
-0.10742810 -0.71600443 0.12988014
-0.10810017 -0.68803728 0.13407115
-0.10654336 -0.74646074 0.12492105
-0.11908791 -1.00280110 0.04792554
-0.48660613 -0.52550564 0.13411385
-0.26078204 -0.48612691 0.14284035
-0.06808777 -0.40467991 0.12968263
-0.26061372 -0.39252525 0.12421055
-0.37794241 -0.39258422 0.12201983
-0.08114750 -0.34597292 0.11232061
-0.35266884 -0.30738945 0.09518720
-0.28726573 -0.32981662 0.10454326
-0.31418456 -0.30012873 0.09250279
-0.29998539 -0.31451829 0.09846398
-0.45933575 -0.29887738 0.08986347
-0.18251779 -0.35795932 0.11416264
-0.15323913 -0.32449831 0.10312344
-0.18000365 -0.33058044 0.10538806
-0.12027895 -0.31541238 0.09968447
-0.10422786 -0.33575441 0.10770111
-0.10205672 -0.36187508 0.11604155
-0.08297090 -0.31950663 0.10261705
-0.07563400 -0.37594717 0.12242189
-0.09307333 -1.04989322 0.02259954
-0.10736391 -1.02714738 0.03521389
-0.05811722 -0.85473863 0.13017934
-0.02692891 -0.71337667 0.18513620
-0.07035870 -0.56602869 0.15725606
0.19335298 -0.69439016 0.22030936
-0.03115563 -0.49429404 0.16036270
0.18863379 -0.39005606 0.16521596
0.07297337 -0.34531465 0.13092079
0.11187646 -0.29739885 0.10917878
0.16484687 -0.25489991 0.08589752
0.19793009 -0.22591324 0.06751481
0.25866026 -0.29446353 0.09018502
0.24337839 -0.19621127 0.04742751
0.22073451 -0.21147690 0.05747572
0.27031237 -0.17375279 0.03296075
0.29247632 -0.15956221 0.02281229
0.30825397 -0.21854863 0.03360074
-0.35163264 -0.79649357 0.13284323
-0.56058852 -0.84662325 0.07910035
-0.59369074 -0.24413159 0.05959230
-0.05833490 -0.92119259 0.10343892
-0.07647878 -0.95687481 0.07523600
-0.05680657 -0.94379718 0.09344522
-0.07747433 -0.93415054 0.08534249
-0.03528928 -0.92708953 0.11001725
-0.00926951 -0.93111175 0.11156512
-0.03346818 -0.88988775 0.12866652
0.00209097 -0.90222921 0.12844835
-0.04314133 -0.90648632 0.11721699
-0.01935464 -0.91233175 0.12104916
-0.06621455 -0.88960519 0.11333097
-0.55894196 -0.89334496 0.06485867
-0.53865584 -0.88592227 0.07248477
-0.52643091 -0.85751920 0.08717286
0.42117713 -0.55877943 0.05641640
0.41699403 -0.62277411 0.08447345
-0.60877984 -0.21832024 0.05038966
-0.54489902 -0.29709761 0.08297605
0.36835561 -0.68128407 0.10525995
0.39333702 -0.66522595 0.09532238
0.25488462 -0.68404466 0.19661430
0.28609953 -0.69451120 0.16032180
0.27822109 -0.67572580 0.18408383
0.26305424 -0.70382505 0.16955739
0.29697779 -0.63947017 0.20118589
0.23069349 -0.70823609 0.19300111
0.29298280 -0.66233660 0.18251080
0.30990129 -0.64961086 0.17592298
0.25884188 -0.64466627 0.22522254
0.32677143 -0.63474685 0.16912197
0.26425396 -0.66742196 0.20781040
0.23548442 -0.65989961 0.22821308
0.34910385 -0.59397209 0.16303917
0.34113137 -0.61582628 0.16382199
0.37549075 -0.61896852 0.12342410
0.30622646 -0.59575008 0.21110021
0.32639102 -0.61201847 0.18933945
0.30403695 -0.61795382 0.20689226
0.26329062 -0.59592236 0.24595937
0.27498517 -0.62042262 0.22625120
-0.55110079 -0.81778600 0.08639026
-0.49566719 -0.84085000 0.09752890
-0.50482830 -0.77094105 0.11186306
-0.37867295 -0.67214484 0.15236369
-0.51625035 -0.69817316 0.11465440
-0.29527753 -0.82488115 0.12446876
-0.29546872 -0.85064476 0.11490664
-0.27890707 -0.86468664 0.11019944
-0.25765048 -0.87733698 0.10557006
-0.21862022 -0.88669103 0.10489096
-0.23983627 -0.88857744 0.10361948
-0.23222962 -0.85710723 0.11472434
-0.16231817 -0.95879249 0.07086216
-0.13375679 -0.97363791 0.06222234
-0.18080121 -0.92454936 0.08684560
-0.14080789 -0.95771914 0.06968146
-0.11602730 -0.95822154 0.06956531
-0.17722108 -0.94431341 0.07753834
-0.13244028 -0.90695228 0.08898252
-0.14619092 -0.84569820 0.10652268
-0.18030257 -0.77863463 0.12724032
-0.28376087 -0.70274443 0.14863863
-0.29248302 -0.73432618 0.14584919
-0.18194057 -0.61748346 0.14318689
-0.26033669 -0.57909729 0.15069913
-0.28399103 -0.61003860 0.15152285
-0.29213105 -0.64116380 0.15166128
-0.35654290 -0.73426009 0.14691539
-0.10965653 -0.62734773 0.14083953
-0.10840532 -0.64837712 0.13908902
-0.10140755 -0.60494498 0.14476525
-0.08560222 -0.64774545 0.14924275
-0.07163487 -0.60739195 0.15784346
-0.13339962 -1.01210397 0.04538817
-0.09881199 -0.99335808 0.05277678
-0.37867750 -0.57904107 0.15241873
-0.37918449 -0.48667200 0.14162805
-0.51647310 -0.53174640 0.12142161
-0.28425699 -0.51725052 0.14639627
-0.17645059 -0.53143954 0.14205241
-0.18107045 -0.44567095 0.13366554
-0.28426978 -0.45540947 0.13782937
-0.29231697 -0.48615466 0.14243749
-0.09847087 -0.40829605 0.12801868
0.02195016 -0.42390524 0.15536131
-0.29201129 -0.39254952 0.12406029
-0.35540281 -0.42434404 0.12991353
-0.34942670 -0.39437521 0.12249341
-0.33470634 -0.30546929 0.09452816
-0.34383095 -0.33258155 0.10474377
-0.45056321 -0.27352575 0.07990480
-0.21891486 -0.34201643 0.10933498
-0.15751889 -0.38074793 0.12004634
-0.04423444 -0.32995340 0.10915911
-0.10405339 -1.01289242 0.04563309
-0.08772989 -0.86481433 0.10896158
0.01702619 -0.83551740 0.16159361
-0.05498921 -0.79723872 0.15152814
-0.05747480 -0.70083152 0.16453078
0.08416527 -0.76980837 0.19976330
0.01074812 -0.63845740 0.20822003
-0.09795424 -0.56476052 0.14620651
-0.09847250 -0.58546284 0.14615138
-0.08242795 -0.53089688 0.15021210
-0.09727746 -0.54441119 0.14592262
-0.04176841 -0.56985091 0.16693619
0.07744876 -0.54385593 0.22392995
0.17497207 -0.72895917 0.20334372
-0.00861229 -0.51469492 0.17191726
-0.07442036 -0.46744399 0.14606947
0.18695286 -0.34929119 0.14258766
0.16308395 -0.37104800 0.15557499
0.15351942 -0.44013547 0.19603880
0.10007110 -0.36421607 0.14528573
0.13543200 -0.31499573 0.12021904
0.11489751 -0.26509416 0.08927750
0.13851439 -0.24749238 0.07978251
0.18251926 -0.27012596 0.09402443
0.19038253 -0.24811913 0.08088808
0.15722270 -0.28235371 0.10219437
0.18874726 -0.21023908 0.05655845
0.30971281 -0.31500188 0.06850314
0.26000412 -0.25674745 0.07100288
0.22103818 -0.30107184 0.10634199
0.33218898 -0.21740299 0.01644573
0.32917272 -0.19658504 0.01572857
0.32220339 -0.24914234 0.03127693
0.29184589 -0.20165500 0.03658880
0.27830389 -0.23122619 0.05272358
-0.33194699 -0.79603700 0.13393642
-0.34210685 -0.77595359 0.13928191
-0.36239130 -0.77885899 0.13681283
-0.35537581 -0.75696377 0.14271785
-0.39560844 -0.80225602 0.12587018
-0.37366406 -0.79773354 0.13001328
-0.38006519 -0.82478791 0.11919485
-0.57222671 -0.27341368 0.07045140
-0.58052749 -0.22438871 0.05602857
-0.05048077 -0.87583710 0.12736341
-0.01945205 -0.85683926 0.14588407
-0.08689236 -0.89724504 0.09415611
-0.51191643 -0.86925912 0.08438653
-0.54651542 -0.86178452 0.08103739
0.43715006 -0.57095816 0.03449076
0.43089530 -0.63874707 0.07038171
0.40436619 -0.64645098 0.09427720
-0.57043569 -0.30344890 0.07635353
0.23533369 -0.72395964 0.16881444
0.21409779 -0.72185153 0.18842099
0.23151207 -0.68572340 0.21030348
0.20650949 -0.66778189 0.23337486
0.21334708 -0.69313199 0.21370924
0.37775862 -0.64056840 0.12302048
0.39219698 -0.58655692 0.10782257
0.35551665 -0.47982549 0.12291616
0.22257613 -0.61558100 0.26393498
0.28439394 -0.60075482 0.22519860
0.28332500 -0.55751394 0.22857031
0.27735762 -0.57983171 0.23678263
0.24030083 -0.55969319 0.25438192
0.25753061 -0.57435194 0.25008380
0.23028473 -0.58694672 0.26699166
-0.54183439 -0.83642627 0.08824340
-0.48508022 -0.85503708 0.09349880
-0.53288424 -0.76192275 0.10089042
-0.34722853 -0.67194142 0.15328536
-0.50668108 -0.73364680 0.11595797
-0.49568228 -0.65811898 0.12750482
-0.24864638 -0.79441321 0.13324549
-0.14867140 -0.98724621 0.05686819
-0.20674127 -0.91452729 0.09313813
-0.11305817 -0.90342702 0.08430857
-0.12614699 -0.88529123 0.09320831
-0.11947679 -0.92401043 0.08101163
-0.16514339 -0.89167059 0.09694984
-0.12674624 -0.84230989 0.10274477
-0.15496040 -0.80835022 0.11661403
-0.16121035 -0.75038794 0.12725413
-0.30527760 -0.70322416 0.15014652
-0.29419229 -0.67863994 0.15089300
-0.31052714 -0.73416707 0.14684028
-0.29350369 -0.76511361 0.14092226
-0.18831872 -0.68569308 0.14054599
-0.16602487 -0.65328549 0.13921649
-0.15218433 -0.62227143 0.14059242
-0.29248362 -0.57931808 0.15081531
-0.30542108 -0.61022730 0.15202488
-0.31031203 -0.64124353 0.15267607
-0.33454805 -0.73411811 0.14756800
-0.34420502 -0.70969976 0.15054718
-0.10880163 -0.66729633 0.13668656
-0.07224153 -0.62939368 0.15699003
-0.04828333 -0.60106935 0.16609284
-0.06860122 -0.58751883 0.15914929
-0.11614931 -0.98263668 0.06033802
-0.34717768 -0.57940724 0.15203725
-0.35524301 -0.51752810 0.14605086
-0.34708601 -0.48647203 0.14165283
-0.53273973 -0.53450718 0.10937407
-0.30554184 -0.51744781 0.14597628
-0.29457261 -0.54146636 0.14843720
-0.14613207 -0.53269982 0.14041769
-0.15488392 -0.47362454 0.13657974
-0.30550374 -0.45518850 0.13712104
-0.29470786 -0.43093655 0.13295123
-0.31049596 -0.48638374 0.14198481
-0.11613889 -0.40972102 0.12678961
-0.09389970 -0.43940803 0.13404547
-0.08434981 -0.39406087 0.12621078
-0.10571123 -0.38621703 0.12241296
0.02231738 -0.46177898 0.16852909
0.05638946 -0.41126548 0.15925870
-0.30980101 -0.39268020 0.12364843
-0.29281558 -0.36156552 0.11493959
-0.33415225 -0.42430000 0.13006400
-0.34540572 -0.44887638 0.13499764
-0.32975867 -0.39282520 0.12314909
-0.39830736 -0.33611471 0.10490337
-0.34432977 -0.36159783 0.11440446
-0.47940638 -0.26229402 0.07521805
-0.19742306 -0.34250535 0.10948551
-0.20928488 -0.36822808 0.11731805
-0.21646006 -0.32032761 0.10169421
-0.24469193 -0.32791293 0.10445307
-0.13860049 -0.38073194 0.11953544
-0.14869725 -0.36216503 0.11494918
-0.14799618 -0.39896453 0.12398964
-0.18455352 -0.40755920 0.12666999
-0.14729476 -0.34294766 0.10915094
-0.05258958 -0.30942516 0.09937658
-0.02847584 -0.31072115 0.10251736
-0.00106303 -0.35216525 0.12278999
-0.01720199 -0.33559004 0.11240786
-0.03715447 -0.36922600 0.12325772
0.01493131 -0.31260279 0.10839438
-0.02379097 -0.35484055 0.11970903
-0.01168574 -0.39448019 0.13813676
-0.00722167 -0.37209254 0.13048083
-0.00653642 -0.31725707 0.10520536
0.02414121 -0.38723332 0.14238595
-0.06546723 -0.33187137 0.10799086
-0.05854319 -0.35434013 0.11695405
-0.10334196 -0.86831836 0.09180134
-0.08683768 -0.82622165 0.12214568
0.04259614 -0.85678946 0.15291939
-0.08317393 -0.78485050 0.13400117
-0.07332307 -0.69410402 0.15243823
-0.06902910 -0.72681367 0.15483134
-0.04772259 -0.67290506 0.17137657
0.07562241 -0.80232300 0.17606265
0.10263168 -0.79019403 0.17833679
-0.01534719 -0.62189884 0.18905242
0.03772045 -0.58805371 0.21625013
-0.09401772 -0.50190867 0.14383656
-0.05610762 -0.54009162 0.15995685
0.05416456 -0.52449333 0.20453781
0.18207297 -0.74880130 0.18644688
0.15921910 -0.74730626 0.19470961
0.13145469 -0.70195565 0.23001845
0.15107188 -0.72280932 0.21587558
0.16868933 -0.70197315 0.22358951
0.11300939 -0.74104122 0.21422655
0.17221237 -0.66600480 0.23874049
0.12818370 -0.72468357 0.21961654
0.09368568 -0.70559397 0.22899312
0.00670096 -0.52569373 0.18127670
0.01192494 -0.49081590 0.17379178
-0.10031544 -0.46940715 0.13829628
0.16897809 -0.33845538 0.13415517
0.19126910 -0.32441045 0.12288502
0.14838336 -0.36131728 0.14804781
0.14477866 -0.39629152 0.16982182
0.11525381 -0.44901866 0.19574414
0.11487521 -0.37530147 0.15299631
0.11806249 -0.33991697 0.13396664
0.08158528 -0.38992700 0.15518545
0.10755770 -0.24867718 0.07674296
0.09487365 -0.26360018 0.08619647
0.17203012 -0.23173210 0.07094625
0.13706714 -0.27109274 0.09517226
0.13950976 -0.29365594 0.10841161
0.33848753 -0.30894326 0.03435190
0.24493303 -0.24249849 0.06918277
0.23641242 -0.26638256 0.08335978
0.25355971 -0.27576924 0.08236520
0.28831222 -0.27736847 0.06563982
0.20498787 -0.28786715 0.10277425
0.34122806 -0.24804559 0.01270457
0.33459334 -0.26783251 0.02715547
0.31046266 -0.26928156 0.04863804
0.29705594 -0.24795518 0.04904257
0.30528564 -0.29249405 0.05969024
0.28275813 -0.30205624 0.08101859
0.25621587 -0.34509997 0.11545784
0.26417587 -0.32040525 0.10030766
0.24202683 -0.31219111 0.10556154
0.28882353 -0.34216998 0.09553684
0.21831869 -0.33027048 0.12041593
0.28428991 -0.32184077 0.09096109
0.26463500 -0.21895224 0.05271251
-0.36281241 -0.83196222 0.11780626
-0.57803819 -0.25492388 0.06495583
-0.55315618 -0.25707554 0.07037800
-0.59211207 -0.27860462 0.06515001
-0.56048271 -0.33410215 0.08576701
-0.55899792 -0.28603396 0.07664000
0.41200929 -0.57683638 0.07845613
0.39612814 -0.56385679 0.10286862
0.41136233 -0.59968087 0.08535822
0.40728831 -0.52876241 0.07080235
0.36484884 -0.57194098 0.14902738
0.38506118 -0.46999009 0.06468183
0.21610686 -0.64287226 0.25160707
0.24903994 -0.62062696 0.24951623
0.18190551 -0.55394604 0.25743319
-0.54197883 -0.78998787 0.09416590
-0.32901793 -0.67227843 0.15298949
-0.34675543 -0.64096533 0.15403908
-0.50363412 -0.71368226 0.11968174
-0.52434623 -0.71894458 0.10862232
-0.48377311 -0.72780392 0.12603634
-0.52625738 -0.74102390 0.10585355
-0.48969480 -0.75146042 0.12014983
-0.43959680 -0.70884563 0.14096808
-0.45985009 -0.79067742 0.11939283
-0.46412289 -0.71246689 0.13457066
-0.48001371 -0.77496441 0.11846764
-0.45219897 -0.74813583 0.13179967
-0.45740036 -0.67218987 0.14073731
-0.49720830 -0.80420236 0.10771409
-0.44960784 -0.72717508 0.13622605
-0.41201571 -0.74316084 0.14001670
-0.47154819 -0.74324186 0.12773220
-0.45929689 -0.76881609 0.12548776
-0.42579359 -0.78209114 0.12911180
-0.46880027 -0.69095749 0.13553442
-0.47884035 -0.67196892 0.13350676
-0.46793313 -0.64110385 0.13888032
-0.49991468 -0.68130875 0.12403904
-0.47910070 -0.79482774 0.11387483
-0.47553275 -0.82155850 0.10679847
-0.51965667 -0.66455407 0.11502104
-0.51436966 -0.63621571 0.11951904
-0.26772371 -0.81625528 0.12790406
-0.22504470 -0.90427951 0.09631329
-0.12544445 -0.94201916 0.07638875
-0.18451910 -0.90187654 0.09619217
-0.13386749 -0.80869262 0.11124437
-0.14557590 -0.78794534 0.11771802
-0.16567874 -0.79086393 0.12210646
-0.15559929 -0.77011888 0.12299117
-0.19033932 -0.81344096 0.12414430
-0.13931743 -0.74772124 0.12493263
-0.15037830 -0.72481234 0.13008736
-0.19162561 -0.72464902 0.13668022
-0.16894925 -0.73114950 0.13148317
-0.17255727 -0.70517682 0.13551561
-0.19032851 -0.75278428 0.13273042
-0.25766335 -0.67617266 0.14863275
-0.29298310 -0.79535228 0.13379713
-0.27594621 -0.74996334 0.14276992
-0.26829846 -0.77559257 0.13795142
-0.14241946 -0.65367431 0.13748567
-0.15362166 -0.67807220 0.13544188
-0.13311918 -0.62263106 0.13817233
-0.14601456 -0.59165322 0.14046858
-0.31047292 -0.57935016 0.15106550
-0.38106893 -0.70864152 0.14916595
-0.09213362 -0.66426471 0.14622444
-0.32888339 -0.57929859 0.15144650
-0.34637213 -0.54826183 0.14943834
-0.34644789 -0.61050585 0.15362190
-0.33404567 -0.51763234 0.14601395
-0.32916553 -0.48628397 0.14152820
-0.25824583 -0.54314727 0.14869863
-0.12778583 -0.53285894 0.14070377
-0.14426448 -0.50293905 0.13898051
-0.13382489 -0.47243788 0.13632534
-0.14590108 -0.44956690 0.13336052
-0.16471602 -0.45658508 0.13475845
-0.16182283 -0.43532743 0.13146629
-0.19303826 -0.48317124 0.13918003
-0.25809043 -0.42923988 0.13300008
-0.08164073 -0.42191233 0.13205356
-0.07368606 -0.44400962 0.14111073
-0.03766686 -0.45696102 0.15083982
-0.05798369 -0.45573086 0.14769328
-0.05356153 -0.48023685 0.15183853
-0.04813075 -0.42698422 0.14251304
-0.07486833 -0.48920238 0.14803089
0.04044282 -0.47396421 0.18023238
0.04531265 -0.44924613 0.17363285
0.02870850 -0.44359212 0.16431908
0.04293534 -0.42775070 0.16269679
-0.00615664 -0.44357625 0.15483838
0.03571201 -0.40658590 0.15187403
0.05044794 -0.38558348 0.14621932
0.03669948 -0.35292640 0.13017280
0.03702479 -0.37261464 0.13855113
0.05925729 -0.36332838 0.13764494
0.01718692 -0.36215913 0.13148118
0.07424959 -0.42324189 0.17051471
-0.31115746 -0.36161559 0.11474789
-0.27635139 -0.37660011 0.11972363
-0.24579024 -0.36209507 0.11578468
-0.26896092 -0.35245798 0.11267976
-0.30042490 -0.34375899 0.10902795
-0.37968600 -0.44972431 0.13462584
-0.37285957 -0.32628256 0.10139823
-0.42360978 -0.30281753 0.09191162
-0.35992474 -0.37515737 0.11699396
-0.36688634 -0.35061359 0.10958713
-0.38580285 -0.36868054 0.11567745
-0.42917871 -0.39701474 0.12145363
-0.40308545 -0.38838743 0.11959774
-0.41686513 -0.36117422 0.11160939
-0.40744660 -0.42425894 0.12873106
-0.39441327 -0.40685302 0.12463324
-0.38444355 -0.42739031 0.12974437
-0.46991781 -0.28090662 0.08286182
-0.51001102 -0.28903435 0.08507386
-0.48490744 -0.29928206 0.09008301
-0.51470485 -0.32826432 0.09615612
-0.50395666 -0.30831675 0.09165471
-0.52778464 -0.31105013 0.08989393
-0.47907568 -0.33691878 0.10234856
-0.54795603 -0.31803071 0.08782553
-0.53808016 -0.34080371 0.09473949
-0.47325787 -0.31628525 0.09626473
-0.44077460 -0.33451315 0.10255162
-0.55497805 -0.36053429 0.09106471
-0.50669654 -0.37258207 0.10852101
-0.51775510 -0.35237698 0.10114149
-0.53395487 -0.37431289 0.10037880
-0.49495033 -0.35329179 0.10573304
-0.46593429 -0.38237603 0.11578893
-0.48494891 -0.37191688 0.11195570
-0.49543832 -0.40979525 0.11809938
-0.46412713 -0.35706308 0.10906553
-0.44055488 -0.37149148 0.11396800
-0.46214880 -0.26049814 0.07430129
-0.24655437 -0.31039092 0.09765898
-0.26627547 -0.32054712 0.10154747
-0.18833663 -0.38251773 0.12086512
-0.21384800 -0.39885235 0.12525304
-0.16674909 -0.34611982 0.11046141
-0.05336508 -0.38630964 0.12655867
-0.03186550 -0.38857506 0.13272591
-0.02720654 -0.41326845 0.14181717
-0.04681970 -0.40481766 0.13573228
-0.02662208 -0.43570835 0.14806142
-0.00385413 -0.41867411 0.14786155
0.01110376 -0.40407855 0.14615579
-0.10329171 -0.81416571 0.10950397
-0.10301039 -0.83812492 0.10210061
0.00970825 -0.87040902 0.14737778
-0.07552043 -0.80707260 0.13600722
-0.06079591 -0.83039554 0.13842689
-0.07929152 -0.84545225 0.12283287
-0.03778060 -0.84040797 0.14616248
-0.01020649 -0.82668403 0.16168106
-0.04838108 -0.72142024 0.17104291
-0.05289634 -0.75823795 0.16218559
-0.02766994 -0.74207065 0.18040070
-0.03719986 -0.69276163 0.17969715
0.00705936 -0.68535887 0.20632559
-0.01921326 -0.66746952 0.19194126
-0.01501391 -0.69368727 0.19409208
0.01180825 -0.72682155 0.20372726
0.00364692 -0.70649118 0.20268668
0.04744988 -0.70319608 0.22194585
0.02590281 -0.71017341 0.21325444
0.04992930 -0.74555641 0.21172981
0.03379172 -0.73087421 0.21231883
0.01390550 -0.77000051 0.19397819
0.02964211 -0.75303309 0.20347499
0.04830190 -0.78663739 0.19338746
0.09057683 -0.82022655 0.16931215
0.06788735 -0.83275165 0.16718218
0.08527313 -0.78814645 0.18654978
-0.03181301 -0.61341447 0.17691773
-0.00088735 -0.59549805 0.19363290
-0.09686762 -0.51997827 0.14452306
-0.07362804 -0.54694937 0.15657986
-0.02819678 -0.54045214 0.16899842
0.03996247 -0.51339658 0.19344092
0.03389216 -0.54786113 0.20178934
0.07417614 -0.50021612 0.20407507
0.11111433 -0.76719444 0.19601757
0.18903079 -0.67269371 0.23336449
0.18968100 -0.65561081 0.24813883
0.15831104 -0.62837491 0.25557092
-0.01044701 -0.49161086 0.16954153
-0.00231944 -0.46765518 0.16654810
-0.02333406 -0.47453039 0.15825259
0.13012051 -0.38613322 0.16140777
0.12579313 -0.42037996 0.18205373
0.09777982 -0.43799961 0.18400847
0.09373850 -0.46302991 0.19675864
0.13108706 -0.49737000 0.22315184
0.11703023 -0.47698531 0.20830677
0.11505529 -0.31892629 0.12133701
0.08353851 -0.31366959 0.11592191
0.09653371 -0.33173389 0.12672637
0.09672460 -0.40046790 0.16347275
0.33226651 -0.34869245 0.06214932
0.34045381 -0.28781002 0.02630454
0.28029834 -0.25859820 0.06269243
0.23858908 -0.33493518 0.11664729
0.22335685 -0.36851504 0.14638559
0.42152205 -0.53951692 0.04307073
0.37372052 -0.54145460 0.13342707
0.36949312 -0.43755436 0.06456848
0.39757883 -0.49565685 0.06432479
0.24493831 -0.59985802 0.26143743
0.23732218 -0.63876858 0.24580831
0.21022853 -0.56402003 0.26283839
-0.53337748 -0.80834532 0.09562726
-0.51881276 -0.78969571 0.10405260
-0.36303677 -0.65626604 0.15371322
-0.37627297 -0.62589004 0.15402004
-0.38707626 -0.64843891 0.15312939
-0.42493578 -0.61703904 0.14990107
-0.41797327 -0.67226200 0.14839567
-0.40148062 -0.62778087 0.15237711
-0.39842312 -0.66553660 0.15133116
-0.41580479 -0.64816072 0.15017783
-0.40074764 -0.69135046 0.14891116
-0.39080266 -0.60314262 0.15309710
-0.43784189 -0.65796974 0.14630691
-0.42263213 -0.69417792 0.14567676
-0.40642140 -0.71728960 0.14522764
-0.43778040 -0.67952019 0.14467150
-0.42656632 -0.72625910 0.14096214
-0.49086733 -0.63488273 0.13106897
-0.46709482 -0.59395448 0.14041599
-0.50607632 -0.59913272 0.12628262
-0.47397220 -0.61766947 0.13798741
-0.50452372 -0.61924789 0.12572027
-0.44895093 -0.62429905 0.14468626
-0.48572497 -0.60209455 0.13424838
-0.48943417 -0.56424337 0.13450345
-0.43395942 -0.63765640 0.14776891
-0.44366760 -0.60027265 0.14628509
-0.41664241 -0.58928075 0.15080763
-0.44388934 -0.55785264 0.14501730
-0.45046201 -0.57891832 0.14426612
-0.46642974 -0.56326195 0.14156309
-0.46268911 -0.53712825 0.14092627
-0.24850051 -0.83447557 0.12208304
-0.14954414 -0.70466528 0.13235784
-0.22546913 -0.74147800 0.14011027
-0.21759504 -0.77846468 0.13379586
-0.27512082 -0.68510296 0.14935252
-0.25664249 -0.70355574 0.14711759
-0.27610335 -0.65988465 0.15045821
-0.17298795 -0.67214457 0.13891031
-0.19552699 -0.64782366 0.14447143
-0.16470525 -0.60452597 0.14185546
-0.17684541 -0.56911676 0.14388923
-0.18971965 -0.59336663 0.14460615
-0.36304972 -0.71619113 0.14947821
-0.36130361 -0.69210496 0.15196878
-0.38307198 -0.73515470 0.14509602
-0.36298574 -0.56327791 0.15143751
-0.37097464 -0.53861879 0.14927780
-0.38200402 -0.51376853 0.14601269
-0.36304172 -0.59516763 0.15336927
-0.27601658 -0.53482068 0.14812682
-0.27812694 -0.55942615 0.14989883
-0.25739906 -0.51595859 0.14640242
-0.16116206 -0.51681675 0.14063463
-0.18603907 -0.50754004 0.14111541
-0.16612039 -0.49424602 0.13931620
-0.22179672 -0.50526417 0.14374014
-0.20417570 -0.49993742 0.14162513
-0.22052638 -0.47725240 0.13996002
-0.20452746 -0.52779150 0.14412386
-0.27615495 -0.43726935 0.13471931
-0.25698038 -0.45629857 0.13811985
-0.27630983 -0.41208415 0.12931679
-0.06179361 -0.51283706 0.15472761
-0.22679210 -0.35957110 0.11488666
-0.23254304 -0.38305174 0.12157113
-0.23925912 -0.40956057 0.12809756
-0.36343943 -0.44203628 0.13343685
-0.36330702 -0.46782517 0.13836602
-0.43881706 -0.29089877 0.08698585
-0.44569396 -0.31342587 0.09525288
-0.42182061 -0.27799257 0.08237204
-0.42205523 -0.32415849 0.09967246
-0.39410206 -0.30920412 0.09491821
-0.37120771 -0.41202940 0.12701725
-0.52521988 -0.26978954 0.07733661
-0.55122571 -0.38166051 0.09399872
-0.53161474 -0.40889819 0.10674542
-0.43450392 -0.35210796 0.10831317
-0.20620978 -0.42861607 0.13138133
0.02382315 -0.85625960 0.15429098
0.02253799 -0.88952977 0.13401899
-0.00034068 -0.84590545 0.15458949
-0.03332943 -0.81466148 0.15878190
-0.00508039 -0.79482875 0.17513455
-0.07873411 -0.75147130 0.14432208
-0.06345145 -0.77615707 0.15092817
0.00450166 -0.66146538 0.20562509
0.03798958 -0.67077529 0.22270122
-0.01345397 -0.64524979 0.19372467
-0.01065330 -0.72729187 0.19244282
-0.00287855 -0.75144197 0.19205280
0.05231214 -0.81186807 0.17306934
0.05905573 -0.84830483 0.15505837
0.04472543 -0.83493178 0.16724217
0.00601057 -0.61647843 0.20261645
0.03701248 -0.62007747 0.22099644
0.01903816 -0.59922318 0.20778994
0.01482318 -0.57186061 0.19783361
0.01979074 -0.53725075 0.19100221
0.05553034 -0.54632846 0.21388093
0.04571700 -0.56661006 0.21525264
0.08295474 -0.59351086 0.23747633
0.06089198 -0.58471168 0.22745910
0.06356405 -0.61204680 0.23217396
0.07924418 -0.56856422 0.23192714
0.12806082 -0.57495403 0.24982334
0.10552845 -0.55347243 0.23692314
0.05955990 -0.48888850 0.19286285
0.12990696 -0.77850816 0.17771828
0.14533521 -0.76184898 0.18701789
0.13403487 -0.74577125 0.20550589
0.18942896 -0.62134096 0.26386547
0.14796869 -0.41789959 0.18378571
0.18208866 -0.42371744 0.18628637
0.09490180 -0.48716616 0.20652786
0.09532358 -0.51681842 0.22147651
0.14981764 -0.47160145 0.21133518
0.34705260 -0.33104387 0.03311051
0.32540039 -0.32838865 0.05921469
0.32664204 -0.55346618 0.19340509
0.36320018 -0.45639585 0.09222868
0.31952248 -0.44097130 0.13257795
0.34621297 -0.44630253 0.10746339
0.34731489 -0.40318213 0.07669204
0.32583676 -0.46811538 0.14781111
0.33933754 -0.42591084 0.10010731
0.29977825 -0.40274646 0.12489482
0.31497593 -0.41809964 0.12135367
0.27592484 -0.44188436 0.16588568
0.29931249 -0.43890090 0.14842137
0.29608831 -0.46586151 0.17133923
0.38423992 -0.45025768 0.04494695
0.37722919 -0.49336473 0.10031827
0.35052040 -0.51504135 0.15571438
0.37924910 -0.51673157 0.11457372
0.21541721 -0.50705863 0.23264085
-0.35733184 -0.62563865 0.15416720
-0.45022068 -0.69335558 0.14055632
-0.48190169 -0.54540129 0.13644495
-0.45170922 -0.48551597 0.13815726
-0.22002583 -0.83117064 0.12173047
-0.20522367 -0.74034983 0.13690712
-0.21798295 -0.71962845 0.14111648
-0.20321879 -0.70558157 0.14072551
-0.24078339 -0.72328508 0.14398256
-0.22102842 -0.67480162 0.14581486
-0.23285204 -0.69899012 0.14481118
-0.21374634 -0.69114321 0.14358065
-0.19921222 -0.77175408 0.13214215
-0.20019897 -0.79407887 0.12906161
-0.22381773 -0.80195258 0.12947191
-0.24080050 -0.81402392 0.12786831
-0.24197361 -0.76760290 0.13910760
-0.22481094 -0.61468409 0.14919769
-0.39366226 -0.75250605 0.14028072
-0.41174568 -0.76512036 0.13540712
-0.43102604 -0.75484429 0.13459850
-0.42303070 -0.52260531 0.14521912
-0.24292252 -0.49919878 0.14402172
-0.23337345 -0.52938078 0.14650256
-0.20252394 -0.45914249 0.13637150
-0.22905541 -0.45085712 0.13617810
-0.19548211 -0.55025069 0.14458944
-0.24256347 -0.47313552 0.14047889
-0.40316200 -0.28966579 0.08721082
-0.38221261 -0.29071317 0.08784980
-0.50407613 -0.26293682 0.07595443
-0.51978031 -0.39072491 0.10891322
-0.18639451 -0.42694997 0.13057280
0.03315407 -0.87542966 0.14275765
0.01284538 -0.81282638 0.17075198
0.03377514 -0.81842447 0.16980704
0.02621311 -0.79567451 0.18590565
-0.08409784 -0.76790139 0.13696492
-0.03871061 -0.64402320 0.17585182
0.06070267 -0.64557427 0.23267892
0.10392434 -0.57926883 0.24205855
0.11688288 -0.61979408 0.24675111
0.11932206 -0.59698383 0.24861730
0.10056995 -0.60610704 0.24344062
0.08963423 -0.63465993 0.24099942
0.14005337 -0.61137182 0.25407141
0.16759076 -0.60285370 0.26396234
0.14384060 -0.53732696 0.24391541
0.19785321 -0.63814412 0.25672005
0.17697769 -0.63822080 0.25592303
0.20203728 -0.59502392 0.26843284
0.07402333 -0.52021314 0.21375149
0.09517448 -0.53630385 0.22821439
0.11960962 -0.53330587 0.23469987
0.12864446 -0.55301677 0.24527239
0.15586696 -0.56552877 0.25561917
0.13460001 -0.51863449 0.23255625
0.17572541 -0.51404272 0.23783042
0.15340595 -0.50622344 0.23067203
0.17050022 -0.48876391 0.22345627
0.19368017 -0.49421430 0.23282616
0.17552178 -0.46181198 0.20697086
0.22330190 -0.45818634 0.19855394
0.21349689 -0.47960420 0.22119873
0.25757969 -0.48930111 0.21022907
0.20034518 -0.46340548 0.20607288
0.23723836 -0.47650716 0.21183620
0.20900315 -0.43405484 0.18782810
0.18777372 -0.44476905 0.19752104
0.18609576 -0.47711674 0.21676068
0.23707112 -0.50031964 0.22425158
0.25862029 -0.46321592 0.19167750
0.23365086 -0.52962621 0.24339356
0.26057648 -0.51661089 0.22635794
0.11001663 -0.50223752 0.22008303
0.13096407 -0.46262363 0.20467895
0.34185913 -0.56954210 0.17855340
0.34889533 -0.54760478 0.17157764
0.32106197 -0.57637827 0.20180295
0.30287950 -0.56006330 0.21264338
0.30666736 -0.51485048 0.19764608
0.29846342 -0.53814826 0.21190546
0.28352436 -0.51983659 0.21519517
0.29122311 -0.49077476 0.19378352
0.26947201 -0.53899132 0.23254737
0.31248767 -0.46019141 0.15381507
0.32883036 -0.49704686 0.16763653
-0.46400783 -0.50997992 0.13900523
-0.24556304 -0.74758291 0.14257256
-0.20459789 -0.61002674 0.14664428
-0.22293018 -0.57852726 0.14854313
-0.21007783 -0.63187555 0.14698302
-0.23354494 -0.63877616 0.14921903
-0.24679626 -0.65738294 0.14926946
-0.44077800 -0.77062184 0.12902388
-0.44064711 -0.53620242 0.14434165
-0.41116635 -0.55415058 0.14939472
-0.40710465 -0.49629018 0.14286747
-0.23680885 -0.43084101 0.13264731
-0.37275101 -0.30682416 0.09436924
0.05454304 -0.62808652 0.22946697
0.03680394 -0.64320182 0.22218237
0.08323577 -0.61580955 0.23914307
0.08714959 -0.67047205 0.23885010
0.14782027 -0.58913253 0.25725216
0.19053873 -0.57524190 0.26584716
0.16293648 -0.54600739 0.25127682
0.24564473 -0.42713657 0.17509643
0.20171951 -0.41019607 0.17639111
0.22533895 -0.41271987 0.17241327
0.21093546 -0.38883492 0.16032805
0.25834378 -0.38827183 0.14287393
0.20014981 -0.36821689 0.15185268
0.23453130 -0.38954575 0.15383078
0.21232619 -0.34976294 0.13805336
0.24715436 -0.40680748 0.15993864
0.26812196 -0.41788747 0.15657040
0.20401916 -0.53340117 0.24923929
0.19450246 -0.51432778 0.23821311
0.18337053 -0.53287873 0.24838844
0.22301726 -0.54707365 0.25593404
0.31041916 -0.48207739 0.17328779
0.27647681 -0.47404756 0.19015782
0.27381857 -0.50113622 0.21038188
0.24953076 -0.54112925 0.24387753
-0.44037039 -0.50606595 0.14212066
-0.50138110 -0.47713706 0.12315342
-0.23578170 -0.55631298 0.14846388
-0.25431666 -0.56138765 0.14993575
-0.21323401 -0.55857872 0.14659931
-0.39559837 -0.53492864 0.14826754
-0.38784833 -0.55734332 0.15069719
-0.40170231 -0.57352046 0.15138865
-0.39994730 -0.46886649 0.13833715
0.02379926 -0.65741424 0.21595782
0.07976413 -0.65209220 0.23834579
0.06353762 -0.66895439 0.23303039
0.10317860 -0.65369230 0.24227670
0.05232332 -0.68445646 0.22641294
0.07138884 -0.69892105 0.22827151
0.11296765 -0.67926646 0.23960002
0.06257886 -0.72322130 0.22230609
0.07575234 -0.74745193 0.21371419
0.22751139 -0.43753315 0.18461170
0.25713292 -0.44347646 0.17640507
-0.48823530 -0.49922194 0.13124273
-0.19635714 -0.57384463 0.14518631
-0.21970056 -0.54146515 0.14631880
-0.40340893 -0.51593052 0.14570778
-0.40295945 -0.44683040 0.13390853
-0.44750513 -0.43925820 0.13063089
-0.42920614 -0.46185338 0.13722752
-0.42483872 -0.43719707 0.13208199
-0.43766191 -0.41835084 0.12673678
-0.45148210 -0.39963526 0.12133886
-0.47337172 -0.40389506 0.11996807
-0.47634416 -0.43363850 0.12496207
-0.45900510 -0.42037561 0.12535066
0.09568242 -0.68679953 0.23642369
0.11177748 -0.69950137 0.23203020
0.14233658 -0.67266754 0.23925860
0.09631805 -0.75219533 0.20981736
0.08380329 -0.72635859 0.22312939
-0.47677637 -0.47534296 0.13169187
-0.51772609 -0.50134778 0.11751716
-0.45298649 -0.46210789 0.13427284
-0.51243747 -0.44094638 0.11915544
0.14986070 -0.69315690 0.23127169
0.15468119 -0.65161242 0.24465384
0.13403563 -0.63768647 0.24689885
0.11457545 -0.63861606 0.24486361
0.12416316 -0.65632830 0.24319611
-0.49089939 -0.45466364 0.12454364
-0.47055217 -0.45285270 0.12961108
-0.50406407 -0.51599691 0.12687202
-0.52722035 -0.47774839 0.11458197
-0.51651392 -0.46140313 0.12038975
-0.53365874 -0.44752971 0.10905650
-0.54274280 -0.47073748 0.10335349
-0.52827199 -0.42866114 0.11027556
-0.52552668 -0.51787848 0.11371224
-0.49602586 -0.42964997 0.12082545
-0.60447718 -0.17389144 0.03498536
0.43601951 -0.61002491 0.05946655
-0.51487646 -0.84271922 0.09396937
-0.25570283 -0.85633355 0.11464792
-0.20199830 -0.85924911 0.11188876
-0.18679751 -0.87653819 0.10481931
-0.19331184 -0.83733796 0.11852504
-0.21492018 -0.84723517 0.11654493
-0.15502206 -0.91897155 0.08633025
-0.27790739 -0.72183328 0.14659198
-0.27668737 -0.62863858 0.15130203
-0.25315805 -0.61505054 0.15108972
-0.23884102 -0.59662875 0.15025298
-0.27649758 -0.49853894 0.14446549
-0.27638008 -0.47375173 0.14099058
-0.06921354 -0.87111642 0.11706730
0.19310756 -0.71893250 0.20308438
0.37080451 -0.59651514 0.13831980
-0.13244673 -0.86541152 0.09952289
-0.16442877 -0.83113901 0.11703035
-0.14430461 -0.82599327 0.11042951
-0.30011408 -0.65963339 0.15192143
-0.17112094 -0.63402298 0.14105860
-0.27640798 -0.59155526 0.15141117
-0.34021908 -0.69035886 0.15224823
-0.36355053 -0.49958647 0.14357967
-0.29964081 -0.56094188 0.14985294
-0.29960864 -0.41132880 0.12851418
-0.33897528 -0.46766799 0.13848704
0.01199051 -0.29105194 0.09361022
0.04697569 -0.29753539 0.10194158
0.16671267 -0.39351121 0.16875713
-0.50343536 -0.82292327 0.10161891
-0.43486918 -0.81575333 0.11668181
-0.45373269 -0.83416169 0.10582267
-0.27206836 -0.79599654 0.13333961
-0.14584925 -0.56191814 0.14091920
-0.16336187 -0.54835134 0.14174063
-0.15850878 -0.57613182 0.14166678
-0.14523235 -0.42060727 0.12840491
-0.16423927 -0.41089349 0.12696643
-0.17226942 -0.39301663 0.12326383
0.07954871 -0.36890191 0.14475995
-0.39849062 -0.35467349 0.11097550
-0.01175238 -0.88023652 0.13986504
-0.03498559 -0.51725052 0.16339173
0.13310204 -0.43930484 0.19390760
0.08743425 -0.28806227 0.10142740
0.07382683 -0.27097020 0.08910493
0.06859291 -0.29756869 0.10498858
0.05670593 -0.32289157 0.11796703
0.03567134 -0.31496347 0.11025570
0.05226790 -0.34200560 0.12706443
0.39405868 -0.54632868 0.10339778
0.41027594 -0.51155961 0.04678016
-0.52660472 -0.60066641 0.11416226
-0.51846714 -0.57804162 0.12138684
-0.55212762 -0.40292002 0.09447713
0.02810574 -0.68955840 0.21671381
0.36900205 -0.41408060 0.04823471
0.36539201 -0.39599194 0.03647058
0.36183019 -0.37149871 0.03127489
0.35409620 -0.35272680 0.03509934
-0.20014184 -0.66823805 0.14386276
-0.21730604 -0.65371393 0.14681852
-0.39579684 -0.78049515 0.13293246
-0.50630316 -0.24020219 0.06668793
0.33337054 -0.59399071 0.18841679
0.29615362 -0.57840386 0.21874060
-0.42627258 -0.57011241 0.14862276
0.16998739 -0.58149775 0.26349009
0.27554304 -0.36615716 0.11867988
0.28152021 -0.38970415 0.13021556
0.30850865 -0.37220295 0.09727362
0.32497956 -0.39096099 0.09450761
0.34408179 -0.38326937 0.06304021
0.30814661 -0.35109661 0.08530411
0.32959795 -0.37035986 0.07388737
0.28887314 -0.42078841 0.14510849
-0.42778993 -0.48530726 0.14092819
-0.15695787 -0.86798737 0.10284752
0.04490939 -0.27604408 0.08858907
0.16613756 -0.41210662 0.18082721
-0.43981898 -0.79641653 0.12214415
-0.45548464 -0.81207897 0.11356679
-0.41875978 -0.83352180 0.11137235
-0.41333525 -0.81417909 0.12019127
-0.39931473 -0.82670555 0.11590824
-0.51244615 -0.55512579 0.12514906
0.01746727 -0.33681914 0.11871797
0.06088965 -0.76708722 0.20228972
-0.03122487 -0.77896338 0.16977105
-0.00841771 -0.77234061 0.18319512
-0.02572868 -0.79685656 0.16729142
0.32794742 -0.52816124 0.18647880
0.24754983 -0.36666483 0.13584531
0.23441212 -0.35208852 0.13178399
3 117 118 116
3 370 489 205
3 116 118 119
3 275 263 538
3 114 115 120
3 119 115 116
3 120 115 119
3 145 144 516
3 267 266 143
3 346 1138 345
3 441 32 33
3 221 238 231
3 122 217 121
3 217 216 121
3 233 6 7
3 217 113 216
3 309 228 122
3 223 240 244
3 228 112 217
3 111 218 110
3 1137 339 1167
3 216 120 121
3 520 67 68
3 224 213 442
3 218 111 228
3 112 228 111
3 110 296 109
3 1135 236 80
3 224 443 317
3 338 613 108
3 613 462 107
3 243 242 239
3 296 110 218
3 309 122 123
3 444 92 93
3 227 235 1136
3 462 106 107
3 340 620 464
3 425 423 225
3 231 222 299
3 639 342 636
3 6 233 232
3 252 429 430
3 104 342 639
3 433 432 431
3 108 109 338
3 440 296 218
3 46 225 423
3 273 272 161
3 317 24 25
3 242 223 234
3 183 221 182
3 344 131 345
3 130 131 160
3 433 598 432
3 238 4 5
3 212 130 160
3 212 160 159
3 344 160 131
3 79 80 236
3 137 350 136
3 618 246 616
3 176 645 142
3 467 353 350
3 348 346 133
3 230 220 237
3 142 473 177
3 316 23 24
3 316 234 23
3 135 136 355
3 355 136 350
3 180 354 181
3 146 145 514
3 468 352 644
3 657 479 158
3 486 487 365
3 129 130 212
3 475 653 655
3 662 171 170
3 151 667 152
3 623 246 618
3 359 476 360
3 154 614 155
3 155 156 476
3 160 343 159
3 428 295 427
3 957 967 968
3 647 646 648
3 176 210 175
3 172 255 488
3 660 482 481
3 174 256 254
3 173 254 255
3 366 367 253
3 172 171 660
3 651 475 650
3 254 256 209
3 160 344 343
3 474 645 646
3 656 853 851
3 139 140 278
3 432 598 295
3 504 507 163
3 640 103 639
3 671 149 148
3 263 273 274
3 600 220 599
3 388 717 268
3 99 100 496
3 209 208 254
3 79 230 78
3 90 91 297
3 983 1201 237
3 704 143 144
3 32 235 227
3 312 33 34
3 101 1191 100
3 1133 1127 1117
3 710 713 712
3 156 157 478
3 714 716 715
3 1040 1098 258
3 370 205 490
3 268 717 719
3 103 640 102
3 104 105 342
3 271 270 66
3 77 78 241
3 70 71 266
3 677 678 378
3 82 86 87
3 83 86 82
3 84 85 83
3 277 183 278
3 83 85 86
3 255 254 208
3 87 88 219
3 14 548 13
3 236 230 79
3 230 237 241
3 444 602 724
3 230 236 435
3 619 106 462
3 87 219 82
3 8 303 7
3 297 435 314
3 219 229 1135
3 323 318 447
3 276 744 539
3 229 219 88
3 64 65 272
3 265 740 267
3 314 236 229
3 221 4 238
3 149 150 497
3 670 495 494
3 361 858 1042
3 670 150 149
3 380 379 501
3 676 500 675
3 955 845 846
3 512 385 384
3 153 484 152
3 512 147 146
3 162 522 163
3 147 148 501
3 168 167 673
3 505 381 504
3 145 146 510
3 1108 1110 1107
3 381 506 507
3 269 271 518
3 390 522 523
3 526 161 270
3 162 274 273
3 498 376 497
3 635 465 634
3 388 885 887
3 386 143 71
3 264 71 72
3 143 704 267
3 71 143 266
3 88 89 229
3 738 388 75
3 112 113 217
3 268 885 388
3 75 388 74
3 227 31 32
3 180 181 299
3 386 387 143
3 526 743 523
3 267 740 70
3 270 65 66
3 427 212 159
3 113 114 216
3 266 267 70
3 26 213 224
3 225 214 186
3 700 144 145
3 226 30 31
3 161 272 65
3 520 521 389
3 270 161 65
3 1031 1202 1029
3 167 551 166
3 667 668 493
3 364 363 484
3 28 30 215
3 176 142 211
3 19 445 18
3 141 184 277
3 184 183 277
3 141 0 184
3 392 278 183
3 353 354 643
3 139 371 138
3 221 231 182
3 231 181 182
3 141 277 140
3 471 643 180
3 1 2 184
3 263 274 276
3 67 520 518
3 184 2 183
3 3 4 221
3 3 183 2
3 232 222 238
3 511 383 701
3 708 262 385
3 183 3 221
3 542 10 11
3 184 0 1
3 752 751 142
3 301 299 300
3 177 178 540
3 470 472 356
3 470 356 469
3 179 180 301
3 209 256 210
3 176 211 210
3 438 298 308
3 254 173 174
3 211 142 751
3 393 756 752
3 396 544 545
3 902 901 990
3 206 489 369
3 172 173 255
3 366 368 170
3 210 211 543
3 170 368 400
3 546 207 544
3 546 206 207
3 370 368 253
3 991 764 905
3 170 171 366
3 562 1092 1115
3 169 399 168
3 232 5 6
3 140 277 278
3 1201 241 237
3 126 461 125
3 302 300 233
3 232 233 222
3 469 179 178
3 232 238 5
3 437 279 436
3 1179 753 437
3 244 240 319
3 307 303 305
3 454 335 333
3 213 215 226
3 544 207 208
3 13 775 12
3 205 778 204
3 120 216 114
3 18 445 446
3 310 309 123
3 82 219 81
3 1151 554 17
3 302 306 298
3 554 16 17
3 476 477 155
3 547 775 548
3 599 297 601
3 230 241 78
3 244 21 22
3 21 244 319
3 316 242 234
3 371 257 467
3 316 317 239
3 210 256 175
3 486 157 156
3 234 22 23
3 81 1135 80
3 25 26 224
3 215 27 28
3 182 181 372
3 869 377 1172
3 27 215 213
3 273 263 275
3 227 226 31
3 371 278 257
3 30 226 215
3 28 29 30
3 533 535 529
3 147 501 502
3 213 26 27
3 510 511 700
3 319 321 20
3 163 507 162
3 778 779 204
3 782 203 202
3 1136 442 213
3 168 399 402
3 781 552 401
3 779 203 204
3 202 201 563
3 402 167 168
3 165 164 676
3 689 199 198
3 199 688 200
3 779 914 203
3 674 499 673
3 504 163 164
3 194 195 568
3 795 197 198
3 508 688 689
3 411 571 572
3 609 937 452
3 412 194 193
3 194 566 193
3 566 409 408
3 571 196 195
3 318 328 329
3 407 684 682
3 783 200 201
3 192 415 417
3 185 186 214
3 273 64 272
3 275 64 273
3 158 427 159
3 439 339 1137
3 527 528 62
3 1165 1216 1164
3 217 122 228
3 63 527 62
3 238 222 231
3 1183 58 59
3 801 572 799
3 193 566 567
3 288 416 190
3 89 314 229
3 574 57 58
3 783 553 924
3 54 55 418
3 56 414 576
3 604 441 312
3 291 190 189
3 435 599 220
3 286 412 578
3 478 479 360
3 319 20 21
3 167 780 551
3 208 207 255
3 580 581 420
3 43 44 585
3 357 1154 249
3 190 191 581
3 585 422 424
3 223 244 234
3 422 44 45
3 148 149 503
3 585 586 43
3 206 369 207
3 320 328 318
3 22 234 244
3 689 691 690
3 538 527 275
3 579 41 42
3 174 175 256
3 942 938 939
3 590 596 419
3 143 387 144
3 889 707 888
3 324 326 328
3 242 243 223
3 732 720 730
3 291 53 54
3 54 418 291
3 189 190 580
3 290 52 53
3 269 390 523
3 52 292 51
3 293 50 51
3 186 293 187
3 187 293 292
3 64 275 63
3 187 188 425
3 162 273 161
3 225 186 187
3 225 46 214
3 346 345 132
3 46 47 214
3 185 47 48
3 49 50 185
3 48 49 185
3 327 243 331
3 214 47 185
3 392 183 182
3 153 154 485
3 185 50 186
3 423 294 422
3 165 675 166
3 66 67 271
3 190 291 288
3 35 1189 808
3 213 226 227
3 204 203 403
3 664 151 152
3 321 323 445
3 761 280 759
3 564 406 563
3 166 565 165
3 793 409 568
3 793 794 569
3 528 530 536
3 802 571 573
3 574 575 413
3 411 572 801
3 414 56 57
3 192 191 415
3 416 288 576
3 287 415 416
3 584 191 192
3 934 40 41
3 189 188 290
3 290 188 292
3 189 290 291
3 291 290 53
3 290 292 52
3 188 187 292
3 50 293 186
3 292 293 51
3 580 426 597
3 579 804 589
3 428 158 157
3 429 432 295
3 310 311 440
3 296 460 338
3 601 91 92
3 297 599 435
3 298 300 302
3 306 308 298
3 231 299 181
3 300 299 222
3 233 300 222
3 301 300 298
3 301 298 438
3 180 299 301
3 303 233 7
3 304 436 308
3 305 8 9
3 233 303 302
3 8 305 303
3 753 986 896
3 305 897 753
3 304 306 307
3 307 306 302
3 308 306 304
3 303 307 302
3 307 305 1179
3 438 1150 393
3 179 438 178
3 310 123 124
3 218 228 309
3 124 439 310
3 218 309 310
3 125 439 124
3 460 245 338
3 35 36 811
3 604 235 441
3 332 313 606
3 317 443 450
3 89 90 314
3 297 314 90
3 93 602 444
3 717 718 719
3 317 316 24
3 242 316 239
3 25 224 317
3 224 442 443
3 318 321 320
3 320 240 324
3 320 319 240
3 319 320 321
3 324 240 325
3 327 325 223
3 321 318 323
3 19 20 321
3 327 322 325
3 335 337 322
3 447 318 329
3 18 446 17
3 325 240 223
3 324 322 326
3 327 223 243
3 322 324 325
3 334 335 327
3 1166 409 569
3 243 332 331
3 312 808 605
3 324 328 320
3 329 328 326
3 337 611 326
3 610 448 329
3 36 37 609
3 331 334 327
3 239 450 243
3 334 331 1202
3 235 604 606
3 331 332 1152
3 605 608 451
3 1181 929 794
3 1202 331 330
3 335 334 333
3 454 337 335
3 327 335 322
3 1029 608 1030
3 1028 410 1181
3 336 812 611
3 326 322 337
3 296 338 109
3 462 613 816
3 126 1169 638
3 972 1200 971
3 340 627 637
3 638 1219 637
3 614 615 463
3 669 152 667
3 340 619 462
3 634 636 246
3 343 247 641
3 159 343 657
3 345 131 132
3 343 344 247
3 346 132 133
3 247 344 345
3 642 348 133
3 348 349 346
3 468 135 352
3 1138 247 345
3 642 133 134
3 349 348 347
3 347 1139 349
3 649 1141 1154
3 137 138 467
3 1143 355 248
3 354 351 492
3 248 350 353
3 179 469 471
3 135 468 134
3 467 350 137
3 354 353 351
3 257 372 492
3 180 179 471
3 248 355 350
3 135 355 352
3 473 1153 177
3 355 1143 352
3 175 646 176
3 1153 1215 470
3 650 175 174
3 360 479 658
3 851 852 656
3 851 853 477
3 479 157 158
3 360 658 1144
3 662 663 482
3 1171 168 673
3 663 856 482
3 1148 380 376
3 1145 251 1146
3 483 363 1158
3 155 477 1156
3 364 853 1145
3 155 614 1159
3 629 861 829
3 367 366 171
3 368 366 253
3 488 171 172
3 666 207 369
3 253 489 370
3 400 281 399
3 253 367 369
3 367 488 666
3 490 205 204
3 491 400 368
3 278 371 139
3 467 257 351
3 492 181 354
3 392 372 257
3 102 640 836
3 817 463 615
3 147 512 513
3 705 884 883
3 101 1190 1191
3 1117 1127 1098
3 151 664 1161
3 376 498 866
3 376 866 868
3 858 361 856
3 522 524 163
3 876 680 878
3 980 975 874
3 876 878 502
3 503 497 380
3 380 1148 1149
3 505 164 165
3 276 506 260
3 699 198 197
3 61 62 528
3 147 502 1162
3 740 703 521
3 716 890 715
3 883 884 513
3 516 144 387
3 385 262 890
3 71 264 386
3 387 386 264
3 706 387 264
3 516 385 514
3 738 76 517
3 726 727 886
3 68 739 521
3 269 518 519
3 741 269 519
3 524 1174 163
3 530 533 529
3 530 528 391
3 372 392 182
3 257 278 392
3 540 438 393
3 541 755 754
3 12 775 776
3 545 759 396
3 755 279 757
3 908 776 547
3 545 208 209
3 762 396 759
3 926 786 925
3 554 555 16
3 927 557 561
3 1113 1120 560
3 400 399 169
3 402 399 781
3 170 400 169
3 368 370 491
3 281 403 552
3 879 401 552
3 781 399 281
3 402 401 780
3 403 782 552
3 403 491 490
3 553 783 784
3 449 448 787
3 763 765 767
3 555 926 16
3 564 201 200
3 782 406 1180
3 686 260 681
3 681 381 505
3 1231 595 1067
3 581 421 582
3 793 195 196
3 409 284 1065
3 812 453 611
3 336 454 456
3 195 194 572
3 694 537 693
3 193 192 417
3 799 800 801
3 412 193 578
3 414 287 576
3 574 414 57
3 577 414 413
3 416 415 191
3 417 415 287
3 190 416 191
3 418 576 288
3 287 414 577
3 417 578 193
3 576 418 55
3 291 418 288
3 289 592 590
3 579 934 41
3 588 583 587
3 425 188 597
3 567 192 193
3 595 593 421
3 423 422 45
3 424 422 294
3 46 423 45
3 225 187 425
3 588 294 426
3 583 805 582
3 188 189 597
3 423 425 294
3 582 805 420
3 294 425 426
3 428 427 158
3 212 427 295
3 157 486 430
3 429 428 430
3 432 429 1200
3 295 428 429
3 157 430 428
3 430 365 861
3 628 623 630
3 128 1222 1220
3 1200 429 252
3 1221 1222 431
3 128 129 433
3 598 433 129
3 434 601 444
3 718 891 315
3 230 435 220
3 314 435 236
3 437 436 304
3 1150 436 279
3 1179 305 753
3 437 758 757
3 438 179 301
3 438 308 1150
3 439 125 461
3 310 439 311
3 310 440 218
3 460 440 311
3 32 441 235
3 33 312 441
3 1136 213 227
3 442 313 443
3 313 332 443
3 450 332 243
3 602 93 94
3 603 444 315
3 321 445 19
3 446 445 323
3 449 446 323
3 446 449 1151
3 448 447 329
3 449 282 1151
3 610 329 813
3 1093 1113 1124
3 323 447 449
3 448 449 447
3 317 450 239
3 443 332 450
3 451 604 605
3 331 1152 330
3 37 948 609
3 284 409 1166
3 456 458 336
3 920 918 919
3 1032 1203 1031
3 336 337 454
3 1075 945 1024
3 812 458 459
3 1203 454 333
3 455 1037 458
3 941 452 937
3 1028 570 798
3 455 458 456
3 458 457 459
3 457 814 459
3 928 453 1003
3 440 460 296
3 1137 460 311
3 638 461 126
3 439 461 339
3 107 108 613
3 340 464 619
3 615 154 153
3 860 859 487
3 246 342 616
3 342 617 616
3 623 633 246
3 1190 101 102
3 641 247 847
3 648 655 358
3 371 467 138
3 353 467 351
3 1143 644 352
3 347 642 468
3 470 469 178
3 471 469 356
3 1153 178 177
3 249 1140 1215
3 356 248 471
3 643 471 248
3 644 472 1140
3 472 644 1143
3 1155 473 142
3 1153 473 357
3 647 649 474
3 645 1155 142
3 848 174 173
3 172 660 661
3 476 156 478
3 477 476 359
3 477 359 851
3 1156 364 485
3 479 478 157
3 476 478 360
3 158 159 657
3 658 250 1144
3 854 855 1198
3 475 651 653
3 481 855 854
3 854 654 661
3 663 170 169
3 482 856 1157
3 664 484 483
3 867 866 498
3 484 153 485
3 483 484 363
3 1156 485 154
3 484 485 364
3 487 486 156
3 430 486 365
3 1159 156 155
3 860 665 859
3 666 255 207
3 171 488 367
3 369 489 253
3 205 489 206
3 204 403 490
3 491 403 281
3 400 491 281
3 370 490 491
3 257 492 351
3 181 492 372
3 668 151 150
3 865 669 493
3 494 864 863
3 862 493 668
3 147 513 1163
3 495 884 1160
3 1223 496 100
3 1133 496 375
3 498 497 150
3 380 497 376
3 1161 150 151
3 867 672 866
3 674 167 166
3 1171 499 1172
3 500 677 679
3 869 499 674
3 501 148 503
3 502 501 379
3 502 379 876
3 1162 383 510
3 497 503 149
3 501 503 380
3 505 504 164
3 507 504 381
3 565 505 165
3 681 260 506
3 507 276 274
3 681 506 381
3 276 507 506
3 162 507 274
3 690 692 508
3 790 406 564
3 802 197 196
3 696 537 694
3 1162 510 146
3 511 510 383
3 701 383 261
3 704 511 703
3 512 146 514
3 513 512 384
3 513 384 883
3 1163 495 671
3 516 514 145
3 512 514 385
3 889 982 981
3 708 710 262
3 387 706 709
3 385 516 708
3 1201 76 77
3 237 600 891
3 67 518 271
3 519 518 389
3 880 519 389
3 977 874 679
3 521 520 68
3 518 520 389
3 740 739 69
3 703 701 702
3 523 522 162
3 524 522 390
3 526 162 161
3 271 269 743
3 1176 1175 524
3 1174 1175 678
3 741 390 269
3 525 741 742
3 743 270 271
3 162 526 523
3 275 527 63
3 528 527 391
3 531 533 391
3 536 61 528
3 535 534 750
3 61 1164 60
3 539 391 538
3 1224 536 529
3 276 260 744
3 691 693 382
3 532 536 1224
3 285 800 1185
3 391 533 530
3 745 535 531
3 534 535 745
3 684 686 682
3 531 535 533
3 750 534 749
3 529 536 530
3 536 532 1164
3 509 573 694
3 535 537 698
3 539 538 263
3 527 538 391
3 276 539 263
3 391 539 531
3 438 540 178
3 752 540 393
3 756 279 755
3 751 754 543
3 909 12 776
3 542 910 896
3 543 211 751
3 395 902 543
3 545 544 208
3 546 544 396
3 901 760 545
3 762 759 280
3 762 546 396
3 206 991 205
3 774 1225 773
3 776 910 909
3 925 14 15
3 777 548 397
3 991 546 764
3 911 779 549
3 912 550 913
3 553 784 916
3 551 879 687
3 551 687 565
3 403 203 782
3 879 685 687
3 201 202 915
3 1004 404 1005
3 1151 17 446
3 555 554 405
3 555 405 557
3 786 559 1114
3 558 557 405
3 558 282 787
3 405 1151 558
3 561 557 556
3 282 449 787
3 557 558 1120
3 559 561 562
3 397 548 786
3 448 610 1001
3 1001 788 448
3 561 556 1112
3 561 559 927
3 1122 1124 1121
3 546 762 764
3 564 563 201
3 782 563 406
3 688 564 200
3 692 791 508
3 551 565 166
3 565 407 682
3 566 194 568
3 567 566 408
3 1065 284 1063
3 567 421 584
3 568 195 793
3 566 568 409
3 794 196 197
3 1166 569 1217
3 931 199 785
3 199 200 924
3 572 571 195
3 573 571 411
3 194 412 572
3 286 799 412
3 1177 285 697
3 699 573 509
3 575 574 58
3 414 574 413
3 1183 1216 1184
3 413 575 1182
3 56 576 55
3 287 416 576
3 286 577 413
3 287 577 417
3 417 577 578
3 286 578 577
3 43 586 804
3 935 934 579
3 581 580 190
3 426 580 420
3 584 581 191
3 582 421 289
3 583 582 289
3 420 581 582
3 589 583 590
3 804 587 589
3 567 584 192
3 581 584 421
3 422 585 44
3 586 585 424
3 587 586 424
3 42 804 579
3 588 587 424
3 589 587 583
3 294 588 424
3 426 420 805
3 590 583 289
3 579 589 419
3 592 289 593
3 419 589 590
3 1230 591 1231
3 592 596 590
3 593 289 421
3 592 591 594
3 595 421 567
3 592 593 806
3 284 930 1061
3 1211 935 594
3 1067 567 408
3 592 806 591
3 592 594 596
3 419 596 594
3 580 597 189
3 425 597 426
3 129 212 598
3 295 598 212
3 601 297 91
3 600 599 434
3 600 434 603
3 237 220 600
3 444 601 92
3 599 601 434
3 725 602 728
3 731 730 725
3 603 315 891
3 434 444 603
3 605 604 312
3 606 604 451
3 312 34 808
3 608 330 1152
3 332 606 451
3 606 313 1136
3 811 36 609
3 1188 608 605
3 608 1188 809
3 1029 330 608
3 948 38 810
3 949 950 951
3 813 326 611
3 788 560 787
3 336 611 337
3 813 453 610
3 797 1009 1011
3 560 788 1002
3 338 245 815
3 462 816 340
3 615 614 154
3 1159 614 463
3 669 153 152
3 341 463 817
3 617 342 105
3 618 616 464
3 106 617 105
3 464 616 617
3 618 464 620
3 633 634 246
3 464 617 619
3 106 619 617
3 624 620 340
3 831 628 973
3 630 624 631
3 365 487 859
3 624 637 622
3 1221 632 1218
3 630 618 620
3 626 954 830
3 816 613 815
3 628 621 623
3 624 622 631
3 622 1218 1047
3 341 819 823
3 827 626 830
3 1137 1167 245
3 638 637 627
3 630 623 618
3 1047 973 625
3 365 859 861
3 831 629 829
3 624 630 620
3 628 630 625
3 632 1047 1218
3 630 631 625
3 632 1200 972
3 972 973 632
3 954 623 621
3 634 633 626
3 635 634 626
3 634 465 636
3 819 341 817
3 835 832 635
3 636 465 639
3 246 636 342
3 340 637 624
3 627 1167 638
3 461 638 339
3 126 127 1169
3 640 639 465
3 103 104 639
3 635 832 465
3 640 465 832
3 247 1138 847
3 659 657 1170
3 348 642 347
3 134 468 642
3 353 643 248
3 180 643 354
3 1140 249 1139
3 347 468 644
3 646 645 176
3 474 1154 1155
3 648 175 650
3 648 358 647
3 649 647 358
3 474 646 647
3 175 648 646
3 648 475 655
3 965 966 358
3 1142 1141 957
3 651 650 174
3 648 650 475
3 173 172 661
3 654 652 653
3 852 961 963
3 659 466 969
3 654 653 651
3 653 652 655
3 848 654 651
3 654 480 960
3 958 655 652
3 967 966 850
3 359 1144 852
3 656 852 963
3 343 641 657
3 1170 466 659
3 479 659 658
3 659 969 1041
3 657 659 479
3 850 969 466
3 660 171 662
3 661 660 481
3 854 661 481
3 661 654 848
3 663 662 170
3 660 662 482
3 169 168 1171
3 1157 856 361
3 484 664 152
3 1161 664 483
3 823 825 341
3 861 252 430
3 367 666 369
3 255 666 488
3 668 667 151
3 669 667 493
3 670 668 150
3 493 862 373
3 865 493 373
3 615 153 669
3 670 149 671
3 668 670 494
3 1163 671 148
3 670 671 495
3 1099 979 1082
3 869 870 377
3 674 673 167
3 1171 673 499
3 675 674 166
3 870 871 679
3 676 675 165
3 674 675 500
3 164 163 1174
3 677 676 678
3 679 677 378
3 500 676 677
3 676 164 1174
3 678 1175 985
3 895 378 985
3 259 1148 868
3 379 1149 877
3 895 525 742
3 682 505 565
3 682 681 505
3 683 684 685
3 681 682 686
3 283 406 790
3 534 745 746
3 685 684 407
3 684 683 686
3 687 685 407
3 685 283 792
3 683 692 748
3 747 745 744
3 565 687 407
3 879 551 401
3 689 688 199
3 564 688 508
3 691 198 699
3 691 382 690
3 692 690 382
3 508 689 690
3 198 691 689
3 691 509 693
3 534 746 749
3 683 685 792
3 694 693 509
3 693 537 750
3 1177 573 411
3 695 698 696
3 695 696 697
3 1184 1185 800
3 697 696 694
3 695 1224 698
3 1177 694 573
3 697 285 1187
3 535 698 529
3 537 696 698
3 699 197 802
3 691 699 509
3 510 700 145
3 704 700 511
3 702 701 261
3 703 511 701
3 742 519 881
3 702 880 521
3 521 703 702
3 704 703 265
3 267 704 265
3 700 704 144
3 715 262 712
3 1086 1104 1214
3 72 982 1052
3 709 708 516
3 889 515 706
3 887 74 388
3 516 387 709
3 708 709 710
3 706 515 709
3 515 1178 709
3 711 712 713
3 726 268 719
3 735 1108 734
3 262 710 712
3 713 710 1178
3 711 714 715
3 888 707 886
3 721 723 726
3 1104 1086 1102
3 843 1048 846
3 711 715 712
3 1102 716 714
3 883 716 705
3 890 716 384
3 738 717 388
3 718 717 517
3 718 983 891
3 724 725 722
3 718 722 721
3 718 721 719
3 722 725 720
3 737 894 736
3 722 718 315
3 723 721 720
3 724 722 315
3 720 721 722
3 725 730 720
3 723 727 726
3 444 724 315
3 724 602 725
3 728 602 94
3 730 731 729
3 721 726 719
3 732 734 736
3 888 713 515
3 707 885 886
3 94 95 728
3 731 892 1192
3 1128 1129 1130
3 732 736 723
3 731 725 728
3 732 730 729
3 95 892 728
3 731 728 892
3 734 732 729
3 720 732 723
3 984 731 893
3 713 894 737
3 735 734 729
3 734 733 736
3 1128 98 1117
3 99 1133 98
3 736 733 737
3 727 723 736
3 1107 737 733
3 711 713 737
3 76 738 75
3 717 738 517
3 68 69 739
3 70 740 69
3 703 740 265
3 521 739 740
3 742 741 519
3 525 1175 1176
3 519 880 881
3 881 261 882
3 523 743 269
3 270 743 526
3 746 747 686
3 539 744 531
3 531 744 745
3 744 260 747
3 686 748 746
3 749 382 750
3 686 747 260
3 745 747 746
3 683 748 686
3 749 748 692
3 748 749 746
3 692 382 749
3 693 750 382
3 750 537 535
3 752 142 177
3 751 541 754
3 752 177 540
3 541 751 752
3 896 898 753
3 305 9 897
3 541 756 755
3 395 543 754
3 757 279 437
3 395 754 755
3 752 756 541
3 756 393 1150
3 758 437 898
3 755 757 899
3 777 1225 774
3 755 899 395
3 901 545 209
3 760 759 545
3 899 758 1228
3 759 760 761
3 1226 760 902
3 769 767 766
3 765 762 280
3 765 764 762
3 767 280 906
3 763 1193 1087
3 763 903 764
3 903 398 905
3 906 280 761
3 764 765 763
3 773 770 771
3 1092 768 1094
3 280 767 765
3 769 771 768
3 1087 903 763
3 769 1193 767
3 771 769 766
3 1091 1193 768
3 906 907 766
3 1094 770 1095
3 766 907 773
3 771 770 1094
3 761 1226 1227
3 987 900 758
3 766 773 771
3 773 772 774
3 900 987 989
3 774 547 777
3 548 775 13
3 776 775 547
3 547 774 908
3 11 909 542
3 777 397 1225
3 547 548 777
3 991 778 205
3 779 778 549
3 911 549 398
3 779 913 914
3 402 780 167
3 401 551 780
3 402 781 401
3 281 552 781
3 563 782 202
3 1180 406 283
3 783 201 915
3 924 553 785
3 784 915 914
3 553 916 404
3 921 923 404
3 796 570 795
3 925 548 14
3 786 926 927
3 788 787 448
3 558 787 560
3 928 1001 453
3 1002 788 1001
3 918 993 921
3 921 916 917
3 791 790 564
3 283 790 792
3 508 791 564
3 792 692 683
3 790 791 792
3 692 792 791
3 794 793 196
3 793 569 409
3 795 794 197
3 1181 794 570
3 796 795 198
3 794 795 570
3 199 796 198
3 931 785 932
3 570 796 798
3 798 796 931
3 796 199 931
3 798 797 933
3 799 286 800
3 572 412 799
3 286 413 1182
3 59 60 1216
3 800 285 801
3 411 801 285
3 571 802 196
3 699 802 573
3 944 938 942
3 1195 1196 1210
3 43 804 42
3 804 586 587
3 583 588 805
3 426 805 588
3 593 595 806
3 1065 1067 408
3 1021 1020 930
3 937 810 939
3 35 808 34
3 808 607 1188
3 1189 951 607
3 947 1036 1074
3 38 1195 1194
3 1211 1212 803
3 949 609 452
3 808 1189 607
3 458 812 336
3 453 812 459
3 326 813 329
3 453 813 611
3 814 457 1073
3 1057 998 999
3 815 245 1167
3 613 338 815
3 815 627 816
3 627 340 816
3 953 615 669
3 615 953 817
3 821 824 827
3 817 818 819
3 819 818 822
3 819 824 823
3 826 822 818
3 844 833 841
3 830 954 828
3 825 665 341
3 865 818 953
3 823 824 821
3 824 819 822
3 823 821 825
3 822 820 824
3 840 827 824
3 821 828 825
3 831 828 621
3 373 1085 826
3 820 822 826
3 840 820 837
3 635 626 827
3 830 828 821
3 831 829 828
3 665 825 829
3 828 829 825
3 827 830 821
3 626 633 954
3 621 628 831
3 973 628 625
3 640 832 836
3 833 835 837
3 833 837 841
3 1223 100 1191
3 836 835 838
3 833 839 838
3 837 835 635
3 838 835 833
3 835 836 832
3 836 834 1190
3 840 635 827
3 837 820 841
3 841 1204 844
3 836 838 834
3 258 1223 955
3 834 838 839
3 820 840 824
3 635 840 837
3 842 820 826
3 820 842 841
3 1084 862 863
3 833 844 845
3 863 864 1083
3 955 846 258
3 1204 841 842
3 845 844 843
3 845 843 846
3 833 845 839
3 1049 843 1204
3 1050 374 1086
3 847 349 1142
3 641 847 968
3 174 848 651
3 661 848 173
3 963 959 964
3 1041 658 659
3 358 655 965
3 965 958 850
3 852 851 359
3 1046 853 656
3 959 961 849
3 959 849 958
3 1145 853 251
3 853 364 1156
3 481 1157 855
3 654 854 480
3 361 1042 1044
3 962 1199 1046
3 1171 1172 1173
3 856 663 1173
3 875 979 377
3 1173 858 856
3 979 857 1172
3 1044 970 1045
3 487 1159 860
3 861 859 665
3 463 341 860
3 665 860 341
3 829 861 665
3 629 971 861
3 494 863 668
3 862 668 863
3 494 1160 864
3 974 1048 1049
3 974 1101 1050
3 974 1049 1083
3 373 826 865
3 818 865 826
3 498 1161 867
3 868 866 672
3 1158 867 483
3 867 362 1081
3 870 873 875
3 259 868 975
3 871 674 500
3 869 871 870
3 679 873 870
3 875 377 870
3 674 871 869
3 679 871 500
3 873 874 872
3 976 868 672
3 874 873 679
3 875 873 872
3 977 679 378
3 877 680 876
3 976 872 975
3 970 1147 1146
3 877 876 379
3 680 261 878
3 259 980 877
3 977 978 874
3 261 383 878
3 878 383 1162
3 1180 552 782
3 685 879 283
3 521 880 389
3 880 702 881
3 702 261 881
3 882 261 680
3 978 1051 877
3 742 881 882
3 716 883 384
3 705 374 884
3 1160 884 374
3 884 495 1163
3 886 885 268
3 885 707 887
3 726 886 268
3 886 727 888
3 981 887 707
3 73 74 887
3 888 727 894
3 889 888 515
3 1052 706 264
3 982 73 981
3 385 890 384
3 715 890 262
3 891 600 603
3 983 718 517
3 96 1192 95
3 731 1192 893
3 1130 96 97
3 731 984 729
3 888 894 713
3 736 894 727
3 742 882 895
3 680 1051 882
3 898 896 394
3 986 753 897
3 9 10 897
3 986 897 10
3 753 898 437
3 394 758 898
3 757 758 899
3 1228 758 900
3 987 758 394
3 1227 772 907
3 209 210 901
3 990 901 210
3 1226 902 395
3 901 902 760
3 767 1193 763
3 905 398 549
3 1091 1092 1089
3 1055 997 996
3 549 778 991
3 764 903 905
3 907 906 761
3 767 906 766
3 761 760 1226
3 907 772 773
3 989 987 988
3 910 542 909
3 12 909 11
3 910 776 908
3 988 910 908
3 910 394 896
3 912 911 398
3 914 913 550
3 1053 1054 992
3 994 998 995
3 779 911 913
3 912 913 911
3 914 550 917
3 203 914 202
3 914 915 202
3 783 915 784
3 784 917 916
3 917 919 921
3 914 917 784
3 917 550 919
3 550 920 919
3 1007 922 1008
3 920 550 912
3 921 919 918
3 912 398 1054
3 920 912 1053
3 993 923 921
3 916 921 404
3 922 993 995
3 789 999 998
3 1008 1000 1007
3 797 798 1027
3 783 924 200
3 785 199 924
3 926 925 15
3 548 925 786
3 16 926 15
3 557 927 555
3 786 927 559
3 555 927 926
3 1003 453 459
3 814 1058 1003
3 410 930 1217
3 569 794 929
3 933 1012 1014
3 941 938 1038
3 785 1004 932
3 798 931 1027
3 1005 932 1004
3 923 1006 1005
3 1010 1011 1000
3 814 1073 1070
3 935 579 419
3 934 803 1197
3 594 935 419
3 803 934 935
3 811 949 951
3 1203 456 454
3 948 937 609
3 810 1194 942
3 1231 591 806
3 939 941 937
3 810 38 1194
3 939 938 941
3 39 1196 1195
3 1206 1208 1211
3 944 946 938
3 1035 1037 1034
3 810 942 939
3 940 1209 944
3 1206 591 1230
3 1066 807 1063
3 940 944 942
3 1213 946 944
3 1014 410 933
3 947 1038 946
3 1213 944 943
3 946 945 947
3 1024 1015 1019
3 936 1229 1034
3 38 948 37
3 937 948 810
3 949 452 950
3 811 609 949
3 1039 452 941
3 950 1229 1030
3 950 809 951
3 951 809 1188
3 1023 1025 1026
3 1021 930 410
3 865 953 669
3 817 953 818
3 623 954 633
3 828 954 621
3 1223 258 375
3 845 955 839
3 1105 1102 714
3 258 846 1040
3 847 1142 957
3 649 966 957
3 959 958 652
3 850 958 849
3 960 959 652
3 961 250 1041
3 654 960 652
3 1198 964 480
3 963 961 959
3 852 250 961
3 1198 962 964
3 1045 1199 1044
3 964 959 960
3 656 963 962
3 480 964 960
3 962 963 964
3 958 965 655
3 966 965 850
3 850 466 967
3 358 966 649
3 968 967 466
3 957 966 967
3 641 968 466
3 957 968 847
3 850 849 969
3 1041 969 849
3 970 1042 1043
3 362 1158 1146
3 972 971 629
3 252 861 971
3 973 972 629
3 632 431 1200
3 831 973 629
3 625 631 1047
3 1050 864 374
3 1048 1078 1040
3 976 975 868
3 874 975 872
3 1081 1043 1080
3 875 872 976
3 378 895 977
3 978 877 980
3 977 895 978
3 895 882 1051
3 1082 1100 1080
3 672 1080 976
3 975 980 259
3 978 980 874
3 887 981 73
3 707 889 981
3 889 706 1052
3 73 982 72
3 1201 517 76
3 237 891 983
3 893 735 984
3 735 729 984
3 678 985 378
3 525 895 985
3 10 542 986
3 896 986 542
3 988 394 910
3 908 989 988
3 989 908 774
3 394 988 987
3 774 772 989
3 900 989 772
3 210 543 990
3 902 990 543
3 546 991 206
3 549 991 905
3 1092 1056 1089
3 1088 1090 997
3 996 995 993
3 922 923 993
3 997 1055 1053
3 996 997 994
3 996 993 918
3 994 1122 998
3 1055 918 920
3 994 995 996
3 992 1088 997
3 1123 997 1090
3 999 789 928
3 995 998 1057
3 999 928 1003
3 612 1059 1008
3 1070 1071 1072
3 1027 1006 1009
3 453 1001 610
3 1002 1001 928
3 928 789 1002
3 1002 789 1121
3 459 814 1003
3 814 612 1058
3 785 553 1004
3 404 1004 553
3 404 923 1005
3 922 1007 923
3 1009 1006 1000
3 932 1005 1006
3 1000 1006 1007
3 923 1007 1006
3 1057 922 995
3 612 1205 1058
3 1010 1000 1059
3 1009 797 1027
3 933 1011 1012
3 1011 933 797
3 1000 1011 1009
3 1011 1010 1012
3 1013 1010 1071
3 1012 1010 1013
3 1022 1016 1018
3 1016 1013 952
3 1022 1012 1013
3 410 1014 1021
3 1016 1019 1015
3 1096 1020 1015
3 1019 1016 1023
3 1018 1016 1015
3 1017 1019 1023
3 1036 1076 1035
3 1018 1015 1020
3 1022 1018 1014
3 1023 1016 952
3 1024 1019 1017
3 1015 1097 1096
3 930 1020 1061
3 1014 1018 1021
3 1020 1021 1018
3 1012 1022 1014
3 1016 1022 1013
3 952 1025 1023
3 1026 1017 1023
3 1076 1075 1017
3 1024 945 1097
3 1025 952 1070
3 455 1034 1037
3 1025 1073 1077
3 1034 455 1032
3 931 932 1027
3 1027 932 1006
3 798 933 1028
3 410 1028 933
3 1030 608 809
3 1031 1029 936
3 950 1030 809
3 936 1029 1030
3 1032 1031 936
3 333 334 1202
3 1030 1229 936
3 1203 455 456
3 1039 950 452
3 1017 1026 1076
3 936 1034 1032
3 1035 1034 1033
3 1035 1033 1036
3 1035 1026 1037
3 1033 1039 1074
3 1036 947 1075
3 1077 1026 1025
3 1037 1077 458
3 946 1038 938
3 1074 1038 947
3 941 1038 1074
3 1229 1039 1033
3 1040 846 1048
3 1098 1040 1116
3 961 1041 849
3 658 1041 250
3 1043 1042 858
3 1044 1042 970
3 1099 858 857
3 976 1100 875
3 1146 1045 970
3 361 1044 855
3 1046 1045 251
3 962 1198 1199
3 853 1046 251
3 962 1046 656
3 622 1047 631
3 632 973 1047
3 1049 1048 843
3 1048 974 1078
3 1084 1049 1085
3 1084 863 1083
3 1086 374 705
3 1050 1214 1078
3 877 1051 680
3 895 1051 978
3 72 1052 264
3 889 1052 982
3 1054 1053 912
3 997 1053 992
3 1087 398 903
3 904 992 1054
3 918 1055 996
3 1053 1055 920
3 1056 1088 1089
3 1111 1112 1093
3 1205 1057 999
3 1008 922 1057
3 1205 612 1008
3 1003 1058 1205
3 1059 612 1072
3 1000 1008 1059
3 1069 1064 1068
3 1020 1062 1061
3 1020 1096 1062
3 1065 1063 807
3 1062 1068 1066
3 1230 1066 1064
3 284 1061 1063
3 1062 1063 1061
3 1060 1069 1068
3 591 1206 594
3 1067 1065 807
3 1065 408 409
3 1063 1062 1066
3 1068 1062 1060
3 1067 807 1231
3 1067 595 567
3 1060 1097 1069
3 1064 1066 1068
3 1213 945 946
3 1213 1207 1069
3 952 1013 1071
3 814 1070 612
3 1072 1071 1010
3 952 1071 1070
3 1059 1072 1010
3 612 1070 1072
3 1077 1073 457
3 1070 1073 1025
3 1033 1074 1036
3 1039 941 1074
3 945 1075 947
3 1017 1075 1024
3 1035 1076 1026
3 1075 1076 1036
3 458 1077 457
3 1026 1077 1037
3 1050 1078 974
3 956 1040 1078
3 1126 1118 1103
3 1125 1079 1116
3 1081 1080 672
3 1082 1080 1043
3 867 1081 672
3 1043 1081 362
3 1099 1043 858
3 1100 979 875
3 864 1050 1101
3 1084 1083 1049
3 1049 1204 1085
3 1084 373 862
3 826 1085 842
3 373 1084 1085
3 1102 705 716
3 1086 705 1102
3 904 1054 1087
3 398 1087 1054
3 1089 1088 992
3 1090 1088 1056
3 992 904 1089
3 1091 1089 904
3 1056 1093 1090
3 1113 1093 556
3 1193 1091 904
3 1092 1091 768
3 768 771 1094
3 1092 562 1111
3 1111 1093 1056
3 556 1120 1113
3 1225 1095 770
3 1092 1094 1115
3 1114 397 786
3 1115 559 562
3 1097 1015 1024
3 1062 1096 1060
3 1069 1097 945
3 1096 1097 1060
3 1116 1040 956
3 1098 1079 1117
3 979 1099 857
3 1043 1099 1082
3 1080 1100 976
3 979 1100 1082
3 974 1083 1101
3 864 1101 1083
3 714 1106 1105
3 1105 1104 1102
3 1106 1110 1103
3 1110 1109 1103
3 1118 1104 1103
3 1214 1104 956
3 1106 714 711
3 1104 1105 1103
3 1107 1106 711
3 1103 1105 1106
3 737 1107 711
3 1108 1107 733
3 734 1108 733
3 1108 735 1109
3 1134 1109 735
3 1116 1079 1098
3 1107 1110 1106
3 1109 1110 1108
3 1092 1111 1056
3 1112 1111 562
3 561 1112 562
3 556 1093 1112
3 560 1121 1113
3 1122 1121 789
3 1115 1114 559
3 397 1114 1095
3 1094 1095 1115
3 1115 1095 1114
3 1118 956 1104
3 1118 1126 1116
3 1117 1079 1128
3 496 1133 99
3 1126 1103 1109
3 1116 956 1118
3 893 1132 735
3 97 1131 1130
3 557 1120 556
3 560 1120 558
3 1002 1121 560
3 789 998 1122
3 994 1123 1122
3 1122 1123 1124
3 997 1123 994
3 1124 1123 1090
3 1093 1124 1090
3 1121 1124 1113
3 1134 1125 1109
3 1129 1125 1119
3 1109 1125 1126
3 1116 1126 1125
3 375 258 1127
3 1098 1127 258
3 1129 1128 1079
3 97 98 1131
3 1125 1129 1079
3 1129 1119 1130
3 1119 1132 1130
3 1130 1132 96
3 98 1128 1131
3 1130 1131 1128
3 1132 1119 1134
3 96 1132 893
3 98 1133 1117
3 1127 1133 375
3 1132 1134 735
3 1125 1134 1119
3 236 1135 229
3 219 1135 81
3 606 1136 235
3 442 1136 313
3 460 1137 245
3 439 1137 311
3 346 349 1138
3 847 1138 349
3 1140 347 644
3 1139 249 1141
3 1140 472 1215
3 347 1140 1139
3 1154 1141 249
3 957 1141 649
3 349 1139 1142
3 1141 1142 1139
3 248 356 1143
3 472 1143 356
3 852 1144 250
3 359 360 1144
3 251 1045 1146
3 363 364 1145
3 970 1043 1147
3 363 1145 1146
3 1043 362 1147
3 362 1146 1147
3 868 1148 376
3 1149 1148 259
3 877 1149 259
3 379 380 1149
3 436 1150 308
3 756 1150 279
3 558 1151 282
3 554 1151 405
3 332 451 1152
3 608 1152 451
3 357 249 1215
3 178 1153 470
3 1155 1154 357
3 649 1154 474
3 1155 357 473
3 474 1155 645
3 155 1156 154
3 853 1156 477
3 855 1157 361
3 481 482 1157
3 1146 1158 363
3 867 1158 362
3 860 1159 463
3 156 1159 487
3 864 1160 374
3 494 495 1160
3 867 1161 483
3 150 1161 498
3 147 1162 146
3 878 1162 502
3 147 1163 148
3 884 1163 513
3 536 1164 61
3 1164 532 1186
3 695 1187 1186
3 800 286 1182
3 1217 569 929
3 284 1166 1217
3 638 1167 339
3 815 1167 627
3 1219 622 637
3 1169 1220 1168
3 1220 1169 127
3 1219 1169 1168
3 657 641 1170
3 466 1170 641
3 869 1172 499
3 169 1171 663
3 979 1172 377
3 1173 1172 857
3 1173 857 858
3 663 1171 1173
3 1175 1174 524
3 676 1174 678
3 1176 524 390
3 1175 525 985
3 390 741 1176
3 525 1176 741
3 285 1177 411
3 694 1177 697
3 709 1178 710
3 515 713 1178
3 437 304 1179
3 1179 304 307
3 283 879 1180
3 552 1180 879
3 1028 1181 570
3 929 1181 410
3 1183 1182 575
3 1184 1165 1185
3 58 1183 575
3 1183 59 1216
3 800 1182 1184
3 1183 1184 1182
3 1186 1185 1165
3 1187 1185 1186
3 1164 1186 1165
3 1186 532 1224
3 697 1187 695
3 285 1185 1187
3 808 1188 605
3 951 1188 607
3 951 1189 811
3 35 811 1189
3 836 1190 102
3 1191 1190 834
3 834 839 1191
3 1191 839 1223
3 95 1192 892
3 96 893 1192
3 768 1193 769
3 1087 1193 904
3 1195 38 39
3 942 1194 940
3 1196 39 40
3 940 1194 1195
3 40 1197 1196
3 1209 1210 1212
3 934 1197 40
3 1197 803 1212
3 854 1198 480
3 1199 1198 855
3 1044 1199 855
3 1199 1045 1046
3 432 1200 431
3 971 1200 252
3 1201 77 241
3 517 1201 983
3 1029 1202 330
3 333 1202 1031
3 1031 1203 333
3 455 1203 1032
3 844 1204 843
3 1085 1204 842
3 1057 1205 1008
3 1003 1205 999
3 1064 1207 1206
3 1207 1208 1206
3 1069 1207 1064
3 1208 1207 943
3 1209 1208 943
3 1212 1211 1208
3 944 1209 943
3 1210 1209 940
3 1195 1210 940
3 1196 1197 1212
3 935 1211 803
3 1206 1211 594
3 1209 1212 1208
3 1212 1210 1196
3 1207 1213 943
3 945 1213 1069
3 1078 1214 956
3 1086 1214 1050
3 470 1215 472
3 357 1215 1153
3 1164 1216 60
3 1216 1165 1184
3 410 1217 929
3 284 1217 930
3 1219 1218 622
3 1221 1218 1168
3 1169 1219 638
3 1218 1219 1168
3 127 128 1220
3 128 433 1222
3 632 1221 431
3 1168 1220 1221
3 431 1222 433
3 1220 1222 1221
3 955 1223 839
3 1223 375 496
3 698 1224 529
3 1186 1224 695
3 1095 1225 397
3 773 1225 770
3 1228 395 899
3 900 772 1227
3 761 1227 907
3 900 1227 1226
3 900 1226 1228
3 395 1228 1226
3 1039 1229 950
3 1034 1229 1033
3 1066 1230 807
3 1206 1230 1064
3 1231 806 595
3 807 1230 1231
