OFF
1232 2320 0
-0.0793893100 -1.0961832100 0.0000000000
-0.0693846400 -1.0769649800 0.0142213800
-0.0571201700 -1.0534058200 0.0316550100
-0.0460169800 -1.0320774700 0.0474379000
-0.0356795300 -1.0123350300 0.0619839500
-0.0234264100 -0.9923261600 0.0748483600
-0.0104957800 -0.9712109400 0.0884240600
0.0016809500 -0.9513268600 0.1012082600
0.0148327600 -0.9298505300 0.1150162000
0.0323075400 -0.9095564500 0.1252200300
0.0518412900 -0.8871916700 0.1363095500
0.0719936600 -0.8641186300 0.1477502700
0.0914628000 -0.8418278100 0.1588031100
0.1108376200 -0.8220595000 0.1660546700
0.1319359600 -0.8018824500 0.1718559900
0.1539179200 -0.7808604200 0.1779002600
0.1733557000 -0.7622714400 0.1832449800
0.2005153400 -0.7511334800 0.1759063400
0.2277759700 -0.7399541500 0.1685404100
0.2546456000 -0.7289351700 0.1612801400
0.2799465100 -0.7214876600 0.1486076200
0.3061833000 -0.7145776900 0.1338460300
0.3316314200 -0.7078754200 0.1195281700
0.3563484000 -0.7013657000 0.1056216800
0.3850836800 -0.6937976400 0.0894543700
0.4139825900 -0.6861864900 0.0731949900
0.4382872900 -0.6825319100 0.0544214000
0.4578310600 -0.6803705000 0.0378822800
0.4791043200 -0.6780178000 0.0198795800
0.5025954200 -0.6754198500 0.0000000000
0.4903929400 -0.6468202800 0.0000000000
0.4770515600 -0.6180381900 0.0000000000
0.4621990900 -0.5893817100 0.0000000000
0.4471190700 -0.5602861100 0.0000000000
0.4346633800 -0.5362539900 0.0000000000
0.4219944200 -0.5069522300 0.0000000000
0.4093610600 -0.4758701500 0.0000000000
0.3982656300 -0.4485718700 0.0000000000
0.3881201500 -0.4167165500 0.0000000000
0.3800858800 -0.3847803500 0.0000000000
0.3719237200 -0.3523357400 0.0000000000
0.3649660800 -0.3194978500 0.0000000000
0.3598605600 -0.2911337300 0.0000000000
0.3544627000 -0.2611457100 0.0000000000
0.3512071000 -0.2318422200 0.0000000000
0.3500379400 -0.2014444700 0.0000000000
0.3488988700 -0.1718289500 0.0000000000
0.3495644200 -0.1363219500 0.0000000000
0.3523664100 -0.1087022900 0.0000000000
0.3293754100 -0.1216163700 0.0072861300
0.3004127300 -0.1378464600 0.0164175700
0.2739155500 -0.1525670800 0.0246140900
0.2501160500 -0.1657890200 0.0319761300
0.2248732000 -0.1798127900 0.0397846400
0.1978331700 -0.1944694500 0.0477674600
0.1714070700 -0.2086278900 0.0553963300
0.1430544200 -0.2222689100 0.0624898300
0.1170002000 -0.2334619300 0.0680628800
0.0900815100 -0.2449634700 0.0737697200
0.0563489700 -0.2576959600 0.0795546500
0.0228900600 -0.2703251700 0.0852926600
-0.0093009500 -0.2807372100 0.0897144800
-0.0412045000 -0.2901929600 0.0935512300
-0.0707726300 -0.2956107400 0.0955805900
-0.1040862000 -0.3007226000 0.0974143100
-0.1385560100 -0.3038725200 0.0983501000
-0.1698540600 -0.3053662900 0.0985856800
-0.2007152900 -0.3068392000 0.0988179600
-0.2293834600 -0.3037049400 0.0972545900
-0.2619852700 -0.2988510900 0.0949671600
-0.2957961800 -0.2937123500 0.0925443500
-0.3275522200 -0.2856781300 0.0887225900
-0.3636479100 -0.2765459700 0.0843785700
-0.3969147700 -0.2662532400 0.0795218700
-0.4262350200 -0.2545036900 0.0740237100
-0.4536473500 -0.2435186800 0.0688833200
-0.4818707900 -0.2300916400 0.0625402100
-0.5097512400 -0.2159247200 0.0558260200
-0.5328886500 -0.2041678900 0.0502540500
-0.5548747600 -0.1929960500 0.0449593300
-0.5848661500 -0.1738598100 0.0358439000
-0.6126996400 -0.1560731000 0.0273710500
-0.6390276100 -0.1392483900 0.0193564600
-0.6674820300 -0.1199471600 0.0101060900
-0.6974045800 -0.0989313000 0.0000000000
-0.6835115200 -0.1237362600 0.0094654500
-0.6680459100 -0.1513489700 0.0200023300
-0.6564635000 -0.1720285300 0.0278935500
-0.6448909400 -0.1929917100 0.0358109800
-0.6342820400 -0.2170070800 0.0435934000
-0.6224231400 -0.2438520200 0.0522927800
-0.6104922700 -0.2708599900 0.0610450000
-0.5988827300 -0.2979714900 0.0695877100
-0.5903688600 -0.3273144900 0.0761508200
-0.5818294100 -0.3567457400 0.0827336500
-0.5727157000 -0.3881562000 0.0897591800
-0.5639276400 -0.4198929500 0.0964560500
-0.5578937900 -0.4550318300 0.1003390500
-0.5521359100 -0.4885635600 0.1040444600
-0.5467063000 -0.5201838700 0.1075386400
-0.5414553800 -0.5507633200 0.1109178100
-0.5410318800 -0.5843954300 0.1097921500
-0.5408774900 -0.6165957100 0.1084872400
-0.5407226600 -0.6488832900 0.1071787800
-0.5405698000 -0.6807665600 0.1058867100
-0.5448049900 -0.7101010100 0.1015771500
-0.5537113800 -0.7400502400 0.0939091800
-0.5624022300 -0.7692745900 0.0864267900
-0.5705005100 -0.7965062200 0.0794545900
-0.5787604700 -0.8242816700 0.0723431400
-0.5876428700 -0.8541501700 0.0646958200
-0.5950810000 -0.8767994800 0.0584092100
-0.6069003800 -0.8988952900 0.0491091500
-0.6191298200 -0.9217575900 0.0394864700
-0.6312675900 -0.9444486500 0.0299358600
-0.6429389300 -0.9662675900 0.0207523200
-0.6560244200 -0.9907301900 0.0104560700
-0.6693129800 -1.0155725200 0.0000000000
-0.6537883200 -1.0017290400 0.0089105900
-0.6342566200 -0.9843124600 0.0201210300
-0.6153701600 -0.9674712200 0.0309611600
-0.5928195100 -0.9473625400 0.0439044000
-0.5695336400 -0.9265982800 0.0572696200
-0.5470763900 -0.9069725100 0.0698981900
-0.5186366100 -0.8886864100 0.0815991900
-0.4937415000 -0.8726795100 0.0918417900
-0.4680290200 -0.8566993700 0.1021572300
-0.4357025700 -0.8522916400 0.1076447800
-0.3982419600 -0.8471839200 0.1140038800
-0.3655629400 -0.8515068900 0.1145872300
-0.3318490200 -0.8576561000 0.1142338300
-0.3074007000 -0.8716069300 0.1089945000
-0.2804014700 -0.8871883900 0.1031166500
-0.2536214100 -0.9026434300 0.0972865000
-0.2330465200 -0.9211989400 0.0886980800
-0.2115134100 -0.9411714300 0.0793696500
-0.1892252500 -0.9618443600 0.0697141400
-0.1677745400 -0.9830474700 0.0595303600
-0.1489586300 -1.0071324100 0.0468572300
-0.1301427300 -1.0312172700 0.0341841000
-0.1121532300 -1.0542443900 0.0220675800
-0.0940632300 -1.0774001800 0.0098833700
-0.1229772642 -0.8240000000 0.1051132911
-0.3214566817 -0.3160154882 0.0984110498
-0.3198342531 -0.3469287767 0.1076845312
-0.3196858124 -0.3778989181 0.1165472668
-0.3196383372 -0.4088694902 0.1249453936
-0.3196937580 -0.4398400559 0.1328434596
-0.3197292496 -0.4708106519 0.1384134138
-0.3197323315 -0.5017812729 0.1440777720
-0.3197323709 -0.5327518942 0.1487341554
-0.3197323710 -0.5637225154 0.1505381387
-0.3197323614 -0.5946931367 0.1526734695
-0.3197315299 -0.6256637579 0.1535636203
-0.3197208237 -0.6566343768 0.1528211074
-0.3197011028 -0.6876049913 0.1517785975
-0.3197144370 -0.7185756079 0.1497196743
-0.3197302708 -0.7495462246 0.1443439943
-0.3197300796 -0.7805168455 0.1381153124
-0.3195763605 -0.8114866826 0.1307391761
-0.3172020982 -0.8423283735 0.1200323428
-0.1302629446 -0.3333727669 0.1076700575
-0.1284795776 -0.3640315834 0.1173202468
-0.1271459357 -0.3947295322 0.1260112363
-0.1244938610 -0.4253436611 0.1312106821
-0.1216227669 -0.4559391122 0.1352363473
-0.1193506260 -0.4865835634 0.1392015823
-0.1183200500 -0.5172932963 0.1425353539
-0.1186312193 -0.5480194256 0.1432115897
-0.1201367627 -0.5787103474 0.1408493921
-0.1228990240 -0.6093140156 0.1389030130
-0.1260839435 -0.6398780544 0.1378706961
-0.1279614358 -0.6705463110 0.1354562639
-0.1284007958 -0.7012713969 0.1302367403
-0.1273781918 -0.7319796873 0.1256118411
-0.1248393463 -0.7626038167 0.1211098876
-0.1229714719 -0.7932725469 0.1127922875
-0.1151845273 -0.8537897038 0.0963790453
-0.1083829714 -0.8838214342 0.0864887409
-0.1013552165 -0.9138006137 0.0801359758
-0.0936326567 -0.9436093920 0.0694853376
-0.0861726174 -0.9734834146 0.0583395954
-0.0814111777 -1.0038796113 0.0449701740
-0.0810982338 -1.0346566251 0.0321150687
-0.0811842013 -1.0654439890 0.0165735316
0.3315061366 -0.1316952428 0.0075098390
0.3114871012 -0.1554276640 0.0175594309
0.2906575349 -0.1784459983 0.0300997234
0.2686553502 -0.2003502207 0.0435558398
0.2463362328 -0.2219338394 0.0589945727
0.2245347500 -0.2440374062 0.0749178047
0.2039199548 -0.2672479807 0.0907362284
0.1844730726 -0.2914493396 0.1073176644
0.1660513570 -0.3164380588 0.1227810797
0.1486677748 -0.3421628813 0.1380603940
0.1311396774 -0.3677890531 0.1516437392
0.1130277482 -0.3930070806 0.1629706298
0.0951293413 -0.4183761432 0.1726621302
0.0778964381 -0.4442025810 0.1810246149
0.0603709414 -0.4698298334 0.1868951413
0.0419075131 -0.4947895405 0.1894790858
0.0226618849 -0.5191525201 0.1886670832
0.0033323546 -0.5434491025 0.1861979675
-0.0148483118 -0.5686096066 0.1822983838
-0.0313117280 -0.5949287762 0.1767229821
-0.0470615669 -0.6216858024 0.1694149314
-0.0622996423 -0.6487355975 0.1614019068
-0.0761330826 -0.6765245453 0.1517748636
-0.0874509342 -0.7054182481 0.1416697676
-0.0954383510 -0.7354058547 0.1322694814
-0.1018282150 -0.7657889610 0.1227685124
-0.1105260706 -0.7955688441 0.1145261083
-0.3444042254 -0.8309965123 0.1233130605
0.4439414275 -0.6442179595 0.0449749705
0.3354600930 -0.1538173134 0.0076045911
0.4659582500 -0.6565036373 0.0257092335
-0.6116236132 -0.9403646293 0.0383622598
-0.5942917157 -0.9225552761 0.0489813087
-0.5607888879 -0.8755151441 0.0725649178
-0.6316759410 -0.1720206121 0.0277205800
-0.5651654114 -0.2404681686 0.0562573547
-0.0593599709 -1.0125132264 0.0515449342
-0.0486337180 -0.9623727317 0.0803346916
0.3315881061 -0.6575317237 0.1469620175
0.4225680968 -0.6606379913 0.0659691359
0.3248909519 -0.1757223867 0.0162524969
0.4635365142 -0.6349728556 0.0219689358
0.4527136626 -0.6124751563 0.0235519449
-0.5777990254 -0.8993860727 0.0604429081
-0.6178361490 -0.1953910820 0.0355899022
-0.5537905443 -0.2180825028 0.0529203202
-0.0616214559 -0.9858118920 0.0634353014
-0.0310377934 -0.9731482004 0.0814886356
-0.0228615104 -0.9499678724 0.0952608901
0.3382161279 -0.6826978880 0.1259621570
0.4278079853 -0.5887506206 0.0530788491
-0.5848194867 -0.2068568920 0.0441093665
-0.5304468349 -0.2440269804 0.0643678428
-0.0433452147 -0.9938844394 0.0673917003
0.3680094310 -0.6613953206 0.1123741506
0.3023462735 -0.6786890502 0.1578324558
-0.5283566878 -0.2238945961 0.0578558994
0.3490645508 -0.6663848405 0.1253535057
0.3519730345 -0.6389671686 0.1391885486
0.3191124057 -0.6911514893 0.1367272580
-0.5232653293 -0.8256690953 0.0951703148
-0.4868017199 -0.7035023342 0.1285033304
-0.2734508356 -0.8439618929 0.1186244890
-0.1449290608 -0.9384830563 0.0718428753
-0.1758338844 -0.8537409582 0.1087350685
-0.2607195835 -0.7340910816 0.1443513805
-0.2607234022 -0.6411286707 0.1523721241
-0.3787329538 -0.7650318993 0.1381636818
-0.0919258567 -0.6279895297 0.1475553141
-0.1095118326 -0.7160135553 0.1296394223
-0.1061920266 -0.6862232917 0.1368452912
-0.1127482104 -0.7461841158 0.1229894011
-0.1154339634 -1.0003340526 0.0434944982
-0.4858232894 -0.5254699573 0.1327673999
-0.2607280119 -0.4863018340 0.1416017101
-0.0674962803 -0.4049840736 0.1314108411
-0.2606593891 -0.3932937582 0.1217038069
-0.3786647605 -0.3934746501 0.1198118123
-0.0811878764 -0.3458994363 0.1130105657
-0.3519901333 -0.3063693740 0.0943181440
-0.2870328643 -0.3297080351 0.1039790878
-0.3139594871 -0.2987280607 0.0933702511
-0.3009706543 -0.3146304467 0.0988691251
-0.4608689576 -0.3012349890 0.0890246298
-0.1827881729 -0.3584108461 0.1131870754
-0.1532834663 -0.3239284711 0.1043423152
-0.1799036099 -0.3310150312 0.1058455652
-0.1201944583 -0.3146265385 0.1018864762
-0.1045667911 -0.3350970402 0.1088025342
-0.1024430733 -0.3612007385 0.1172289594
-0.0830758471 -0.3192855261 0.1038656504
-0.0758109524 -0.3757821350 0.1230203386
-0.0931147779 -1.0500168733 0.0225696332
-0.1052825007 -1.0281174058 0.0323831142
-0.0545696707 -0.8558477824 0.1289257637
-0.0267460102 -0.7125332730 0.1817745208
-0.0718672930 -0.5656958185 0.1551477600
0.1928476793 -0.6936090179 0.2195717479
-0.0332908082 -0.4944757184 0.1604715839
0.1887246827 -0.3883691128 0.1671408916
0.0740403205 -0.3458926512 0.1308413548
0.1114990240 -0.2983101495 0.1080799142
0.1651647550 -0.2560203342 0.0849551894
0.1979309083 -0.2263926658 0.0670351737
0.2584463038 -0.2949163715 0.0893187500
0.2436172025 -0.1967905045 0.0470902669
0.2210089300 -0.2119540771 0.0572726008
0.2699613892 -0.1734801154 0.0323366774
0.2923192189 -0.1590160469 0.0233142386
0.3089074399 -0.2187799261 0.0344810000
-0.3516988600 -0.7961608229 0.1325879994
-0.5594539188 -0.8462781101 0.0782434011
-0.5934956886 -0.2472124499 0.0530161065
-0.0565876491 -0.9181074115 0.0987524653
-0.0715373252 -0.9539602801 0.0740274790
-0.0535641006 -0.9404113889 0.0891863254
-0.0745608737 -0.9316563027 0.0833713213
-0.0322930504 -0.9261709387 0.1042044364
-0.0088922464 -0.9300868205 0.1090789072
-0.0330127654 -0.8877090097 0.1231627977
0.0026889440 -0.9017231489 0.1257087042
-0.0394377804 -0.9070669355 0.1115439944
-0.0176862496 -0.9098200882 0.1167717501
-0.0636592138 -0.8882824783 0.1090723435
-0.5601608504 -0.8939587504 0.0682633357
-0.5399790613 -0.8867519707 0.0773843918
-0.5265770735 -0.8575909987 0.0881285623
0.4170145011 -0.5606451992 0.0551994148
0.4111630392 -0.6236720200 0.0793443595
-0.6078906081 -0.2200220350 0.0435616394
-0.5435261593 -0.2978164332 0.0765218933
0.3668045289 -0.6827299951 0.1044143661
0.3938649965 -0.6684706097 0.0901193048
0.2542105808 -0.6807570396 0.1978747969
0.2878900620 -0.6983840704 0.1553817873
0.2781210843 -0.6760606436 0.1803978302
0.2639795586 -0.7030804665 0.1712327764
0.2945939112 -0.6371879701 0.1979263762
0.2291003416 -0.7050447768 0.1940961712
0.2922157402 -0.6591068172 0.1821479981
0.3115738595 -0.6501187140 0.1721918315
0.2586554756 -0.6443771271 0.2248588338
0.3288891750 -0.6340939672 0.1667581692
0.2632170677 -0.6633959568 0.2048421644
0.2354388019 -0.6600020104 0.2303833372
0.3497151428 -0.5925530236 0.1681106973
0.3447533802 -0.6160563885 0.1622649180
0.3781579008 -0.6181228627 0.1258656077
0.3066632799 -0.5957398227 0.2119233804
0.3222943922 -0.6122986575 0.1861496728
0.3011383350 -0.6166123285 0.2052156657
0.2641361596 -0.5956503874 0.2477192816
0.2749930323 -0.6196249837 0.2265950482
-0.5508253389 -0.8174732037 0.0862246176
-0.4955742602 -0.8410544391 0.0996160519
-0.5042181094 -0.7706731741 0.1109152619
-0.3787137295 -0.6721572548 0.1527204606
-0.5166692680 -0.6991901776 0.1188001489
-0.2946519847 -0.8250801819 0.1250068927
-0.2956342301 -0.8513880884 0.1167826141
-0.2786426061 -0.8652991431 0.1115430764
-0.2572675544 -0.8780319783 0.1074657330
-0.2189995219 -0.8849384457 0.1005957379
-0.2392995306 -0.8879458572 0.1022482413
-0.2336029407 -0.8563816326 0.1118998811
-0.1633884454 -0.9571580009 0.0687825359
-0.1361226672 -0.9750935368 0.0558273622
-0.1788853259 -0.9233793683 0.0833555930
-0.1441936911 -0.9576705666 0.0644518533
-0.1174594949 -0.9558671039 0.0614521502
-0.1791301421 -0.9439358118 0.0757568609
-0.1346669062 -0.9057962625 0.0831274514
-0.1455028092 -0.8458066030 0.1044780358
-0.1823330494 -0.7814967084 0.1287666346
-0.2841081884 -0.7031056268 0.1486449867
-0.2922530324 -0.7340749600 0.1460214516
-0.1827196742 -0.6185283780 0.1456921092
-0.2607295870 -0.5792078079 0.1512474566
-0.2841422786 -0.6101774918 0.1523495272
-0.2922568533 -0.6411395715 0.1532281315
-0.3553327830 -0.7340427103 0.1453642833
-0.1117943546 -0.6259191368 0.1413993551
-0.1040660851 -0.6481239861 0.1417619599
-0.0996541262 -0.6057846805 0.1454281866
-0.0831619418 -0.6470010521 0.1506691140
-0.0717847349 -0.6085322142 0.1572299760
-0.1304989524 -1.0121033270 0.0417690486
-0.0972430814 -0.9907885858 0.0476137354
-0.3787351454 -0.5792078442 0.1525108862
-0.3787335692 -0.4862900909 0.1420462048
-0.5169584629 -0.5308163029 0.1223870135
-0.2841372088 -0.5172666288 0.1462910407
-0.1770126271 -0.5320635459 0.1434016777
-0.1813463486 -0.4461111681 0.1323311266
-0.2841399035 -0.4553661181 0.1373061813
-0.2922614652 -0.4862986960 0.1415144177
-0.0986667629 -0.4076843447 0.1299849055
0.0203106746 -0.4236280163 0.1557343251
-0.2921927927 -0.3933420961 0.1216668370
-0.3551813164 -0.4242912197 0.1282472994
-0.3471313569 -0.3934263122 0.1201819025
-0.3340616797 -0.3027670967 0.0937776894
-0.3435092540 -0.3326720974 0.1024943426
-0.4496843159 -0.2733244919 0.0802476241
-0.2190783781 -0.3421241962 0.1083399247
-0.1576474451 -0.3806766963 0.1203479765
-0.0446356653 -0.3299325293 0.1091687180
-0.0992630284 -1.0101717712 0.0386666477
-0.0851471709 -0.8627729437 0.1052235728
0.0179605433 -0.8372624479 0.1618295323
-0.0513047190 -0.7967055746 0.1496861976
-0.0561648012 -0.7010097408 0.1621413532
0.0829470695 -0.7717760856 0.1991327707
0.0117887236 -0.6383126373 0.2063116101
-0.0981035411 -0.5644087992 0.1465866509
-0.1003695720 -0.5850408735 0.1463899668
-0.0832733006 -0.5301503383 0.1500588792
-0.0985253748 -0.5438870079 0.1460391124
-0.0434534798 -0.5690249919 0.1675267747
0.0786991217 -0.5436362797 0.2207658754
0.1740913930 -0.7253823740 0.2033599194
-0.0085526815 -0.5141565262 0.1741683352
-0.0742392478 -0.4678323085 0.1436283577
0.1870441692 -0.3493598792 0.1428857735
0.1626328038 -0.3705224754 0.1562259207
0.1524096773 -0.4397902416 0.1957130383
0.0997166378 -0.3643337304 0.1448549154
0.1362330419 -0.3150241941 0.1203019334
0.1149634376 -0.2659465947 0.0883317232
0.1390977199 -0.2489787974 0.0792797448
0.1822024665 -0.2697109029 0.0937107959
0.1907736764 -0.2483084854 0.0804559564
0.1572605129 -0.2833039224 0.1019806965
0.1893930052 -0.2104570485 0.0571094285
0.3099639961 -0.3147566284 0.0675089690
0.2599550155 -0.2571700447 0.0707142869
0.2210950499 -0.3009628458 0.1062150063
0.3325188758 -0.2173396484 0.0166793412
0.3294805084 -0.1963888608 0.0163652071
0.3226238344 -0.2493827865 0.0317010478
0.2922316053 -0.2020295122 0.0369543165
0.2783267734 -0.2309071392 0.0532624985
-0.3319347713 -0.7960627237 0.1340095166
-0.3419183226 -0.7756611371 0.1380875092
-0.3626388176 -0.7783582730 0.1360810130
-0.3548995640 -0.7568741644 0.1409436568
-0.3960742395 -0.8023563619 0.1274626503
-0.3741084529 -0.7976692175 0.1307969087
-0.3796276374 -0.8256178593 0.1222781665
-0.5718715658 -0.2751727940 0.0646891522
-0.5830170026 -0.2283548597 0.0497637185
-0.0485788411 -0.8750176415 0.1229871546
-0.0196808069 -0.8554655954 0.1438756955
-0.0868729682 -0.8945923508 0.0923151421
-0.5126711405 -0.8706015431 0.0878748498
-0.5463162378 -0.8615269738 0.0809541797
0.4321917463 -0.5709418479 0.0331921563
0.4237344576 -0.6400357571 0.0655780487
0.4001371182 -0.6451535245 0.0908926982
-0.5711821851 -0.3058408277 0.0732916356
0.2364366115 -0.7228029042 0.1757580505
0.2133920771 -0.7219286540 0.1894246078
0.2315151885 -0.6824172361 0.2121684815
0.2059218462 -0.6663863056 0.2360168701
0.2133113932 -0.6919171268 0.2133179181
0.3742009547 -0.6400211237 0.1183896484
0.3927257271 -0.5860982068 0.1074752613
0.3518068201 -0.4833591461 0.1209458577
0.2224441715 -0.6156325558 0.2642694985
0.2853896753 -0.6004713137 0.2292174209
0.2839473650 -0.5575703327 0.2291723482
0.2790388276 -0.5792100907 0.2394129091
0.2402667400 -0.5590388542 0.2538718720
0.2570058079 -0.5742123499 0.2498302689
0.2301945478 -0.5869701102 0.2665595396
-0.5413391021 -0.8360096383 0.0870632631
-0.4860566640 -0.8563685104 0.0979170226
-0.5331203772 -0.7620781061 0.1019115478
-0.3471802828 -0.6721371755 0.1525016165
-0.5064848658 -0.7342421142 0.1166785879
-0.4955011881 -0.6581652101 0.1292573001
-0.2480794671 -0.7941302842 0.1317197888
-0.1496368281 -0.9882699803 0.0537754031
-0.2056000899 -0.9132019699 0.0891830969
-0.1159977938 -0.9014198270 0.0813463849
-0.1296823091 -0.8850518761 0.0895429079
-0.1209823909 -0.9221642133 0.0746132526
-0.1650559231 -0.8875231313 0.0960124391
-0.1280935075 -0.8412524756 0.1014234159
-0.1568667834 -0.8086298846 0.1164156753
-0.1607775700 -0.7501659147 0.1295801440
-0.3052759229 -0.7030965131 0.1497608452
-0.2946815799 -0.6787695400 0.1507755829
-0.3103524674 -0.7340657066 0.1469076750
-0.2929170194 -0.7650313695 0.1400116948
-0.1867161203 -0.6850718201 0.1419499462
-0.1633675235 -0.6529871738 0.1410810341
-0.1516001920 -0.6217711775 0.1410671001
-0.2922630406 -0.5792078176 0.1512247926
-0.3053059951 -0.6101780600 0.1530223550
-0.3103562896 -0.6411458283 0.1534877484
-0.3341606507 -0.7340535346 0.1466063941
-0.3447342709 -0.7097041217 0.1504754185
-0.1088534847 -0.6669658157 0.1384567432
-0.0709449300 -0.6295546708 0.1572578494
-0.0518413438 -0.6008584260 0.1663876358
-0.0685803541 -0.5871077611 0.1583600667
-0.1144645141 -0.9774457663 0.0520859580
-0.3472016918 -0.5792078345 0.1520953221
-0.3553323720 -0.5172665383 0.1469035537
-0.3472001159 -0.4862932289 0.1415157703
-0.5348292975 -0.5338849755 0.1139428396
-0.3053031447 -0.5172666019 0.1463179824
-0.2947202077 -0.5415930407 0.1492543859
-0.1457281087 -0.5323803701 0.1426812962
-0.1552385818 -0.4738380255 0.1365369658
-0.3052962921 -0.4553418734 0.1362079742
-0.2946902513 -0.4310546054 0.1313970277
-0.3103609027 -0.4862968949 0.1412475473
-0.1165578641 -0.4092342349 0.1293718523
-0.0967699353 -0.4381744706 0.1344948637
-0.0841549937 -0.3939426232 0.1275133970
-0.1058102382 -0.3856072241 0.1243936400
0.0231682639 -0.4616187439 0.1705238543
0.0570627346 -0.4116385037 0.1604524576
-0.3102922017 -0.3933698410 0.1210264459
-0.2928313270 -0.3622847774 0.1130930385
-0.3340477539 -0.4243290375 0.1288576663
-0.3446579024 -0.4485448861 0.1337679254
-0.3290319479 -0.3933985673 0.1204927722
-0.3978595629 -0.3356778364 0.1020782945
-0.3453630586 -0.3625365633 0.1112920888
-0.4798240413 -0.2621655517 0.0745909164
-0.1976691029 -0.3429942333 0.1089318598
-0.2094590072 -0.3692647092 0.1156014530
-0.2167590993 -0.3209104243 0.1024687537
-0.2451884458 -0.3285359427 0.1040615452
-0.1387818275 -0.3798570982 0.1218855071
-0.1490111864 -0.3619318016 0.1156784046
-0.1474180863 -0.3986019929 0.1253740146
-0.1845838108 -0.4079297891 0.1251193845
-0.1474614628 -0.3425157769 0.1100131866
-0.0530036938 -0.3091921127 0.1008398076
-0.0283851545 -0.3113177089 0.1025319675
-0.0010469258 -0.3515843074 0.1225566655
-0.0200000352 -0.3350384745 0.1132315492
-0.0394653912 -0.3669716092 0.1237328380
0.0152566258 -0.3137805007 0.1070167099
-0.0215789290 -0.3559753122 0.1218717924
-0.0096676922 -0.3953951207 0.1380046248
-0.0071741963 -0.3731322005 0.1300179934
-0.0068174750 -0.3170361123 0.1066936371
0.0255193064 -0.3880650431 0.1418981687
-0.0657450037 -0.3314300098 0.1086812737
-0.0590970034 -0.3540008790 0.1170009387
-0.1026979145 -0.8667478183 0.0931440596
-0.0842232819 -0.8240299640 0.1186159770
0.0414528920 -0.8577810490 0.1519731605
-0.0807611657 -0.7881021856 0.1306665615
-0.0730504738 -0.6943955128 0.1516034756
-0.0685242483 -0.7265170649 0.1511218286
-0.0474102173 -0.6734852506 0.1694470682
0.0767897152 -0.8080680580 0.1788679899
0.1034907991 -0.7932578479 0.1832712323
-0.0154545609 -0.6222765749 0.1886587984
0.0386394950 -0.5881104153 0.2140647188
-0.0924808989 -0.5010540115 0.1450267075
-0.0545161938 -0.5405253651 0.1598301986
0.0538933911 -0.5240408987 0.2043396081
0.1817207608 -0.7439863986 0.1892711822
0.1564521972 -0.7434824578 0.1988682353
0.1307889465 -0.7008276145 0.2283729997
0.1492179649 -0.7187873692 0.2149207063
0.1674931857 -0.7000646179 0.2215173372
0.1112826542 -0.7392787283 0.2122186580
0.1726087111 -0.6671380111 0.2405639469
0.1270468841 -0.7231026008 0.2174104007
0.0932963009 -0.7059808929 0.2320965571
0.0056464033 -0.5254528327 0.1828077161
0.0112624218 -0.4903644027 0.1755140172
-0.0999011727 -0.4697350187 0.1390850911
0.1694152104 -0.3374470875 0.1358923478
0.1919761986 -0.3230609271 0.1257010830
0.1476566980 -0.3602789383 0.1490180293
0.1445123441 -0.3965066140 0.1697310122
0.1156711360 -0.4507454420 0.1940497000
0.1144542213 -0.3749184627 0.1532417422
0.1182739610 -0.3401813801 0.1336411124
0.0818889022 -0.3900363528 0.1555860233
0.1078045159 -0.2491915520 0.0774532757
0.0947439565 -0.2646788494 0.0861372281
0.1721477019 -0.2328327693 0.0707166007
0.1372120905 -0.2719444508 0.0938085481
0.1382305033 -0.2935185925 0.1074374893
0.3381060405 -0.3096910818 0.0335812830
0.2452045461 -0.2426211663 0.0691267620
0.2364406854 -0.2662583262 0.0832228679
0.2536502693 -0.2758213603 0.0824893004
0.2885129640 -0.2772148139 0.0657078760
0.2049239526 -0.2879686406 0.1026262061
0.3413104317 -0.2477743265 0.0128557714
0.3336764815 -0.2684372437 0.0258346963
0.3103920785 -0.2692106908 0.0483873087
0.2974030422 -0.2475109924 0.0496899700
0.3063062436 -0.2919472689 0.0607535086
0.2829133452 -0.3020890521 0.0808623817
0.2570150004 -0.3451153848 0.1170781886
0.2643180309 -0.3202037013 0.0997160347
0.2420545498 -0.3120479162 0.1050648671
0.2899778216 -0.3412523530 0.0968011106
0.2195751382 -0.3291941776 0.1229893021
0.2842532207 -0.3220661722 0.0902503082
0.2645662519 -0.2184534285 0.0527773050
-0.3627665393 -0.8332227238 0.1210297779
-0.5763633153 -0.2563045848 0.0583759655
-0.5532497352 -0.2607709416 0.0641879200
-0.5918405636 -0.2789144943 0.0640469439
-0.5605770911 -0.3346249175 0.0823927073
-0.5607097493 -0.2902636548 0.0707848973
0.4108946641 -0.5791206870 0.0774843371
0.3944403976 -0.5634190471 0.0997114253
0.4090296627 -0.6014083965 0.0830928063
0.4020593853 -0.5321807177 0.0680435114
0.3687525534 -0.5728813025 0.1503259174
0.3796011945 -0.4720620777 0.0605005796
0.2160106197 -0.6416043894 0.2512989280
0.2485433965 -0.6199348460 0.2487051055
0.1820182230 -0.5538157379 0.2583714430
-0.5418270610 -0.7898222535 0.0941780999
-0.3290808491 -0.6721256504 0.1524541259
-0.3465640741 -0.6411583449 0.1533420413
-0.5036207811 -0.7144044330 0.1210574785
-0.5249715542 -0.7195132597 0.1122698108
-0.4832037734 -0.7274777517 0.1253386273
-0.5271120416 -0.7411659228 0.1078014440
-0.4888670758 -0.7514319769 0.1191172417
-0.4393266767 -0.7086355196 0.1404343928
-0.4598857848 -0.7902981510 0.1196396282
-0.4637378019 -0.7122988520 0.1343753982
-0.4794766543 -0.7746681415 0.1176004816
-0.4519250833 -0.7475192945 0.1302951391
-0.4572857990 -0.6721275403 0.1422932640
-0.4969063868 -0.8040018631 0.1068033128
-0.4490563010 -0.7269659450 0.1351902649
-0.4120585191 -0.7426068811 0.1382850964
-0.4710830067 -0.7429899427 0.1262656169
-0.4584704409 -0.7684314016 0.1245654305
-0.4251903839 -0.7815646609 0.1278655344
-0.4687801349 -0.6908852007 0.1366472086
-0.4788333050 -0.6718242252 0.1348824634
-0.4676256060 -0.6411483584 0.1394697759
-0.5006699588 -0.6814718668 0.1264627421
-0.4793426363 -0.7945928993 0.1137742297
-0.4760682158 -0.8218029168 0.1088148718
-0.5203329029 -0.6648846972 0.1188280830
-0.5146483307 -0.6366496392 0.1219662161
-0.2673043174 -0.8157167240 0.1266789518
-0.2231122838 -0.9041962869 0.0942836629
-0.1265129782 -0.9397778805 0.0684665440
-0.1853809006 -0.9002790363 0.0921273105
-0.1364383203 -0.8086337354 0.1112647084
-0.1466483043 -0.7860991923 0.1188620352
-0.1654400794 -0.7911590166 0.1227047242
-0.1608114861 -0.7709237623 0.1255520627
-0.1896425373 -0.8138746112 0.1225213493
-0.1400617528 -0.7484485023 0.1248544891
-0.1523639005 -0.7258553567 0.1307665437
-0.1931503782 -0.7253507441 0.1392282300
-0.1728409798 -0.7323796477 0.1347230243
-0.1700121954 -0.7058613127 0.1371842660
-0.1917633286 -0.7541985483 0.1347679788
-0.2583191764 -0.6774360034 0.1504830817
-0.2934495206 -0.7950654542 0.1330000937
-0.2764943936 -0.7498982943 0.1424859627
-0.2679477292 -0.7756508243 0.1368760565
-0.1419603210 -0.6542977099 0.1385566082
-0.1542170335 -0.6790120359 0.1366803197
-0.1337383638 -0.6236324657 0.1389184458
-0.1476168816 -0.5916565089 0.1410367998
-0.3103624783 -0.5792078232 0.1514802530
-0.3810100586 -0.7083843369 0.1487453829
-0.0903193212 -0.6643035090 0.1464829137
-0.3291022541 -0.5792078289 0.1518641210
-0.3465613679 -0.5482372048 0.1495015681
-0.3465617456 -0.6101791676 0.1538499593
-0.3341644584 -0.5172665652 0.1470182683
-0.3291006784 -0.4862950300 0.1414059424
-0.2583933880 -0.5429314873 0.1485676020
-0.1277715537 -0.5325622194 0.1427420294
-0.1441609303 -0.5027883216 0.1401628398
-0.1344848282 -0.4722992330 0.1364604595
-0.1466067498 -0.4495331428 0.1334170435
-0.1648547553 -0.4567376296 0.1339954867
-0.1627489149 -0.4353593156 0.1307299391
-0.1933452463 -0.4828428786 0.1392657565
-0.2582458270 -0.4296839952 0.1307106854
-0.0817300601 -0.4219347568 0.1333454056
-0.0739492232 -0.4442249212 0.1390605210
-0.0377078548 -0.4564756337 0.1506549802
-0.0578155964 -0.4562286034 0.1455573436
-0.0531663020 -0.4802338273 0.1515280796
-0.0474100468 -0.4277262134 0.1400685043
-0.0731337134 -0.4900583355 0.1477186692
0.0399378246 -0.4740236804 0.1807274712
0.0454545705 -0.4490284930 0.1732097588
0.0269166498 -0.4422339626 0.1649137293
0.0427596507 -0.4276948827 0.1637828624
-0.0066472851 -0.4436750315 0.1556025713
0.0358461521 -0.4071375012 0.1527185305
0.0513261959 -0.3864237987 0.1469002120
0.0362048422 -0.3523700718 0.1279987878
0.0374656110 -0.3721943717 0.1369912957
0.0596448122 -0.3644554446 0.1377437421
0.0173354321 -0.3635223530 0.1298483938
0.0746188876 -0.4233529913 0.1706297730
-0.3107479439 -0.3623706522 0.1124731218
-0.2764503641 -0.3774832105 0.1175926656
-0.2459255966 -0.3627872182 0.1135331069
-0.2692798262 -0.3533277945 0.1110602477
-0.3003788194 -0.3441369527 0.1076739451
-0.3810646736 -0.4499315727 0.1339706044
-0.3710788373 -0.3270428333 0.0998849528
-0.4200406718 -0.3013999348 0.0905583816
-0.3629232347 -0.3770268107 0.1151481650
-0.3685754652 -0.3522917127 0.1076762952
-0.3871901178 -0.3695587030 0.1126969591
-0.4284902109 -0.3977585132 0.1198897154
-0.4041396368 -0.3890782238 0.1183667636
-0.4173943660 -0.3604499478 0.1097389014
-0.4052995092 -0.4243196041 0.1276002307
-0.3941239754 -0.4070476387 0.1233731560
-0.3823759309 -0.4269004657 0.1285694146
-0.4698278013 -0.2814486167 0.0819628399
-0.5069386831 -0.2884541720 0.0808750653
-0.4854580732 -0.3004470395 0.0870018160
-0.5158767824 -0.3296968987 0.0911406726
-0.5051239590 -0.3104373510 0.0880333264
-0.5266082111 -0.3110739352 0.0838181740
-0.4788984906 -0.3377108121 0.0991311803
-0.5463607132 -0.3188568978 0.0814903053
-0.5372082026 -0.3414014836 0.0892228945
-0.4737001187 -0.3175865055 0.0932509089
-0.4433678022 -0.3361552970 0.1012463738
-0.5554939854 -0.3607778197 0.0896569436
-0.5059291576 -0.3731166669 0.1042003258
-0.5170665816 -0.3528188883 0.0966734039
-0.5326039038 -0.3745486928 0.0981261506
-0.4946371986 -0.3537163000 0.1015987597
-0.4664657921 -0.3830998503 0.1131518739
-0.4847656860 -0.3724484201 0.1082640984
-0.4941825800 -0.4096732524 0.1155860087
-0.4641451909 -0.3580669399 0.1062923558
-0.4414597173 -0.3727939464 0.1122246322
-0.4618012096 -0.2597692038 0.0746149376
-0.2469758882 -0.3099527770 0.0986128200
-0.2665594815 -0.3207325019 0.1015342893
-0.1883245424 -0.3830021162 0.1192645131
-0.2141604332 -0.3996236480 0.1229366455
-0.1670341399 -0.3462198531 0.1104793000
-0.0542332503 -0.3854230010 0.1276575268
-0.0315164110 -0.3884692386 0.1315115422
-0.0272799844 -0.4130302521 0.1399613466
-0.0465660992 -0.4048984882 0.1342750784
-0.0267251772 -0.4349249511 0.1472575827
-0.0036401060 -0.4190272076 0.1475068422
0.0116267031 -0.4041932221 0.1458001625
-0.1035937256 -0.8155468357 0.1104211151
-0.1014754316 -0.8370667841 0.1028564878
0.0104839087 -0.8695305067 0.1435950106
-0.0703646113 -0.8072347305 0.1332618951
-0.0592721113 -0.8305031545 0.1346867049
-0.0759874522 -0.8436088664 0.1184836924
-0.0373018386 -0.8395353508 0.1442732825
-0.0101315763 -0.8271920797 0.1607922891
-0.0470895606 -0.7211551198 0.1667668739
-0.0490255874 -0.7589399186 0.1594195551
-0.0266183710 -0.7411460264 0.1778910193
-0.0357996254 -0.6923326860 0.1770098448
0.0072117436 -0.6851847475 0.2050567860
-0.0177121490 -0.6681902958 0.1898192617
-0.0133559508 -0.6944028950 0.1919340936
0.0113647245 -0.7266699255 0.2032662102
0.0043789709 -0.7064187909 0.2017263064
0.0464527082 -0.7032356527 0.2234628304
0.0258335477 -0.7103483591 0.2127070647
0.0493385578 -0.7457591776 0.2119669973
0.0328855738 -0.7311738545 0.2133372400
0.0136426192 -0.7694534449 0.1936800894
0.0283453800 -0.7528679850 0.2047307272
0.0476459580 -0.7847872755 0.1931388049
0.0909751870 -0.8219711668 0.1692410879
0.0667496456 -0.8325003740 0.1652904187
0.0846308160 -0.7907300723 0.1877870786
-0.0310915455 -0.6130722639 0.1782515927
-0.0009640885 -0.5956033582 0.1934645409
-0.0991235751 -0.5191611474 0.1458160432
-0.0728938760 -0.5464224857 0.1538880484
-0.0255777967 -0.5417078012 0.1727872248
0.0396555033 -0.5127936251 0.1942653931
0.0341275319 -0.5481114448 0.2020293888
0.0735653166 -0.4988989238 0.2035268018
0.1098393345 -0.7666223207 0.1973073676
0.1894563399 -0.6752293691 0.2346328207
0.1889911234 -0.6546124912 0.2476082038
0.1569372870 -0.6296647744 0.2589045561
-0.0110602836 -0.4919205906 0.1679418976
-0.0014793402 -0.4684723480 0.1648101878
-0.0243613337 -0.4741810196 0.1589202252
0.1297537367 -0.3859067820 0.1617978811
0.1258475349 -0.4210500919 0.1806487236
0.0982325950 -0.4391094319 0.1840625903
0.0938147209 -0.4646156835 0.1950329081
0.1311674161 -0.4993196769 0.2212294093
0.1170451092 -0.4770660629 0.2072527099
0.1154249017 -0.3191586480 0.1207835177
0.0830616960 -0.3144589228 0.1148119197
0.0969846690 -0.3323621420 0.1263308703
0.0966092288 -0.4004218525 0.1638881145
0.3308643969 -0.3501650078 0.0607133524
0.3390165999 -0.2887285849 0.0253060295
0.2802858782 -0.2585702537 0.0625649232
0.2401317019 -0.3328358077 0.1175650466
0.2231772091 -0.3687013997 0.1457311540
0.4173506453 -0.5423076730 0.0411947802
0.3717165431 -0.5413284334 0.1315835673
0.3652900789 -0.4415308704 0.0630567471
0.3909634779 -0.5014563405 0.0639025914
0.2448387037 -0.6004079132 0.2622957915
0.2374051121 -0.6384685092 0.2456387841
0.2104570767 -0.5640709731 0.2643297397
-0.5330044282 -0.8079829505 0.0946623681
-0.5182620022 -0.7895975386 0.1031383526
-0.3629570794 -0.6563278109 0.1529045819
-0.3761147351 -0.6256665350 0.1533719378
-0.3867618467 -0.6483893304 0.1529073141
-0.4246859846 -0.6167635678 0.1488290843
-0.4179997911 -0.6722134489 0.1485596845
-0.4015697882 -0.6275950134 0.1517489036
-0.3983662296 -0.6655652788 0.1512973216
-0.4152991974 -0.6478736414 0.1496146189
-0.4005660359 -0.6913840256 0.1493556835
-0.3906187923 -0.6031813626 0.1531211455
-0.4376111906 -0.6577177657 0.1463142693
-0.4226438026 -0.6939491527 0.1458494689
-0.4057690841 -0.7171173255 0.1441903178
-0.4376585542 -0.6793771603 0.1451419920
-0.4257886592 -0.7256983069 0.1390989926
-0.4907296401 -0.6346414123 0.1315315009
-0.4667811036 -0.5938789063 0.1409163445
-0.5057353963 -0.5993616982 0.1268014919
-0.4734063012 -0.6174028123 0.1378870887
-0.5040467102 -0.6194745443 0.1267261633
-0.4489550389 -0.6240267242 0.1444628740
-0.4856034206 -0.6012727519 0.1343946286
-0.4896241224 -0.5633826979 0.1337068011
-0.4332119725 -0.6374812690 0.1473411577
-0.4428946164 -0.6000991802 0.1464228793
-0.4160117483 -0.5890053310 0.1505238665
-0.4446277052 -0.5577810063 0.1458262951
-0.4502064753 -0.5792040532 0.1450671956
-0.4667684482 -0.5634532476 0.1408686991
-0.4617113816 -0.5371450935 0.1402016471
-0.2486625265 -0.8345647874 0.1207069096
-0.1490339941 -0.7051302236 0.1324918137
-0.2254294173 -0.7413600210 0.1393149220
-0.2170511856 -0.7782123062 0.1323206771
-0.2762392975 -0.6852218260 0.1502169950
-0.2573372133 -0.7042118232 0.1475725970
-0.2763730659 -0.6603982404 0.1522074500
-0.1725555073 -0.6708388346 0.1408722966
-0.1949146607 -0.6480406220 0.1454382137
-0.1655402523 -0.6046065323 0.1434886883
-0.1774067027 -0.5693045150 0.1437357121
-0.1892363311 -0.5929263445 0.1463212948
-0.3631314069 -0.7161697968 0.1483310113
-0.3613189494 -0.6919208586 0.1513562981
-0.3819795467 -0.7350318218 0.1440817808
-0.3629684235 -0.5633899199 0.1508486103
-0.3708561676 -0.5383902562 0.1485399551
-0.3825699479 -0.5135157441 0.1460854185
-0.3629684137 -0.5950258929 0.1536569058
-0.2762945193 -0.5351437521 0.1481789055
-0.2781466533 -0.5593980264 0.1505847032
-0.2574084624 -0.5161995891 0.1451474600
-0.1612134046 -0.5167227547 0.1423630743
-0.1854682181 -0.5075492029 0.1422563004
-0.1665282812 -0.4941236917 0.1397061351
-0.2221871125 -0.5056472911 0.1429045336
-0.2034693012 -0.4996795589 0.1418323892
-0.2207462011 -0.4778286107 0.1393362645
-0.2049102127 -0.5274982392 0.1439290217
-0.2762007757 -0.4374758161 0.1329188896
-0.2572335808 -0.4565995465 0.1368914336
-0.2763244239 -0.4126078904 0.1268210668
-0.0613305322 -0.5143716467 0.1549480312
-0.2266357194 -0.3600776792 0.1129960286
-0.2331294146 -0.3838669286 0.1189832647
-0.2391203142 -0.4103755872 0.1253148447
-0.3631312524 -0.4421504476 0.1322934581
-0.3629924170 -0.4670268686 0.1376980664
-0.4404221512 -0.2932324147 0.0875227509
-0.4438648201 -0.3145586722 0.0944264986
-0.4224342405 -0.2778588758 0.0824727543
-0.4226214389 -0.3248738152 0.0982643976
-0.3921156931 -0.3076453893 0.0932523397
-0.3701464949 -0.4113393362 0.1247948991
-0.5280491605 -0.2711914115 0.0728645309
-0.5525244733 -0.3817513640 0.0944730827
-0.5314748830 -0.4088199390 0.1065507938
-0.4358336238 -0.3541319382 0.1072970979
-0.2064592287 -0.4290125863 0.1289703889
0.0228330308 -0.8553916342 0.1525729386
0.0218158580 -0.8893144059 0.1344615466
-0.0010284463 -0.8460159727 0.1546383199
-0.0324083459 -0.8142315018 0.1564554554
-0.0063115389 -0.7950011065 0.1769771373
-0.0748936133 -0.7524220547 0.1425392220
-0.0615731280 -0.7771342831 0.1470341169
0.0052208261 -0.6613308157 0.2038931614
0.0376782937 -0.6706318722 0.2218423181
-0.0120192915 -0.6454578514 0.1924176236
-0.0103484704 -0.7267667863 0.1907625777
-0.0034450928 -0.7509720552 0.1908621852
0.0502309993 -0.8114332395 0.1780553587
0.0589889616 -0.8500315129 0.1559545336
0.0443388747 -0.8330628938 0.1654890506
0.0061463486 -0.6167388192 0.2005712354
0.0378525153 -0.6199712062 0.2192367969
0.0204116439 -0.6001758732 0.2058936879
0.0151657862 -0.5724491485 0.1984303165
0.0200701796 -0.5369278959 0.1923023071
0.0564556848 -0.5462957376 0.2124505261
0.0468953514 -0.5669251739 0.2134612821
0.0831278703 -0.5932461995 0.2358419065
0.0615576273 -0.5848403086 0.2256809093
0.0635062993 -0.6117183477 0.2317228117
0.0803517811 -0.5684913847 0.2288414953
0.1289007418 -0.5755800063 0.2465161469
0.1072272506 -0.5542218912 0.2344900758
0.0588798264 -0.4880356355 0.1937885240
0.1304112174 -0.7782842064 0.1856994130
0.1441535863 -0.7614234899 0.1917555544
0.1321204457 -0.7438164468 0.2048639385
0.1895823533 -0.6212750205 0.2662602469
0.1476869316 -0.4182896628 0.1827522340
0.1818571117 -0.4220529353 0.1878163180
0.0957587482 -0.4888857017 0.2065806751
0.0959853125 -0.5189893734 0.2184176257
0.1492691571 -0.4722243123 0.2129739344
0.3452354155 -0.3318514830 0.0327213855
0.3242627337 -0.3301891533 0.0586887783
0.3287404595 -0.5532070275 0.1942565262
0.3596426373 -0.4627977174 0.0913979381
0.3219504424 -0.4414052346 0.1338644067
0.3436037741 -0.4471553078 0.1047840749
0.3444488453 -0.4057932000 0.0742808221
0.3258943136 -0.4701991477 0.1519435425
0.3375407092 -0.4263417463 0.0976613552
0.3018473114 -0.4029066384 0.1258323476
0.3162358122 -0.4198912830 0.1222613143
0.2781064476 -0.4415353206 0.1664925434
0.3000113745 -0.4357168378 0.1478866529
0.2962050247 -0.4655291572 0.1708225376
0.3800290048 -0.4532418666 0.0420112439
0.3715407975 -0.4920709686 0.0952414456
0.3488422678 -0.5167810006 0.1547612501
0.3722133223 -0.5154691492 0.1130245961
0.2157751132 -0.5047638998 0.2361050525
-0.3572793887 -0.6256679508 0.1536049711
-0.4501839970 -0.6933397730 0.1412044398
-0.4804715792 -0.5451533688 0.1360118931
-0.4515247892 -0.4853714250 0.1372291483
-0.2174360632 -0.8291160310 0.1190437807
-0.2057882556 -0.7404156418 0.1380957429
-0.2166882462 -0.7184383078 0.1424910138
-0.1995679119 -0.7036722166 0.1423999407
-0.2399764894 -0.7226849356 0.1438363069
-0.2218046368 -0.6745678154 0.1467147124
-0.2324131573 -0.6981828258 0.1463159971
-0.2145047475 -0.6920374557 0.1453777596
-0.1989450410 -0.7719574524 0.1319964831
-0.2013010432 -0.7944711230 0.1282243829
-0.2247421334 -0.8014207341 0.1281973378
-0.2416182259 -0.8144449097 0.1259631767
-0.2420354410 -0.7677115774 0.1379859378
-0.2257698882 -0.6158558561 0.1489941508
-0.3938281245 -0.7514897798 0.1391871387
-0.4114489637 -0.7645044801 0.1339676335
-0.4308797287 -0.7540880836 0.1326387030
-0.4229917196 -0.5224799933 0.1443361812
-0.2432228224 -0.4994913942 0.1427799212
-0.2339482199 -0.5304480656 0.1451086793
-0.2031961366 -0.4592993010 0.1351423130
-0.2298969148 -0.4515855577 0.1344209320
-0.1943524332 -0.5505026295 0.1449194977
-0.2425776335 -0.4733804986 0.1395404517
-0.4023510697 -0.2878578152 0.0865488231
-0.3809208917 -0.2893137576 0.0878322614
-0.5044597319 -0.2638833959 0.0736817574
-0.5183324126 -0.3912327576 0.1056145114
-0.1869558735 -0.4273588646 0.1289074669
0.0359802729 -0.8762540852 0.1417791883
0.0106850536 -0.8133402022 0.1732455615
0.0307159043 -0.8177345038 0.1738065397
0.0253873214 -0.7941729928 0.1851493571
-0.0832682270 -0.7693673813 0.1337269718
-0.0372958833 -0.6450041084 0.1760189498
0.0601804877 -0.6453786245 0.2329481261
0.1039940519 -0.5791786513 0.2399469126
0.1160377180 -0.6195518591 0.2477851680
0.1192270247 -0.5966174950 0.2472041847
0.1001758150 -0.6056571271 0.2428475696
0.0890073511 -0.6344079418 0.2414849659
0.1398105786 -0.6111688309 0.2542083438
0.1674270396 -0.6027741772 0.2629707103
0.1445359533 -0.5380381039 0.2421644595
0.1976789007 -0.6380925883 0.2575446395
0.1769288776 -0.6377245930 0.2580462006
0.2019360527 -0.5947080435 0.2696722019
0.0747705926 -0.5201089472 0.2115096913
0.0969892717 -0.5380788208 0.2254429105
0.1207594126 -0.5343217454 0.2325186493
0.1298691345 -0.5539565386 0.2426323825
0.1559762755 -0.5659591479 0.2546277911
0.1352423364 -0.5195798353 0.2319625830
0.1750543790 -0.5111035054 0.2392038332
0.1530443468 -0.5054594486 0.2305445823
0.1695706415 -0.4867502409 0.2245773706
0.1932775611 -0.4942060754 0.2331189734
0.1745756140 -0.4583056011 0.2094936505
0.2246402696 -0.4566244299 0.2025818816
0.2138905767 -0.4795308324 0.2221712679
0.2578383730 -0.4889354900 0.2099572341
0.1996552835 -0.4588748339 0.2104206155
0.2374913439 -0.4766308315 0.2105593425
0.2097633458 -0.4312766210 0.1899138337
0.1874910405 -0.4420421255 0.2003658960
0.1867478503 -0.4747861332 0.2204786510
0.2377087228 -0.4992466637 0.2251856225
0.2602687307 -0.4619413505 0.1909827211
0.2336258498 -0.5293721499 0.2436512360
0.2598059246 -0.5175808890 0.2252811699
0.1105976766 -0.5038267104 0.2173093744
0.1314253258 -0.4631192234 0.2041254309
0.3455734674 -0.5694972585 0.1824834357
0.3503526271 -0.5477168108 0.1714856930
0.3221995001 -0.5768079764 0.2020579386
0.3067762069 -0.5598265573 0.2130590427
0.3057818420 -0.5167776140 0.1955533890
0.2973572357 -0.5385081654 0.2125545426
0.2828499030 -0.5203855698 0.2139219673
0.2903144756 -0.4931489662 0.1924081038
0.2688420689 -0.5394075701 0.2310298875
0.3127052935 -0.4573385831 0.1535430817
0.3280264545 -0.4980922103 0.1680708375
-0.4634120987 -0.5099215209 0.1372920669
-0.2450659198 -0.7473937461 0.1410878631
-0.2038149072 -0.6102675079 0.1482331779
-0.2234780715 -0.5789382172 0.1485314537
-0.2100551425 -0.6316729684 0.1474881590
-0.2346450609 -0.6403886667 0.1493893084
-0.2471817868 -0.6584652307 0.1513003294
-0.4399759942 -0.7702988823 0.1277028458
-0.4398445133 -0.5364317712 0.1440959515
-0.4110151277 -0.5541012974 0.1486865752
-0.4076369843 -0.4961004175 0.1428535208
-0.2370527157 -0.4315499798 0.1302224868
-0.3719222711 -0.3071146092 0.0938235821
0.0545338695 -0.6278262669 0.2291631812
0.0371500757 -0.6431030992 0.2211441444
0.0829700646 -0.6155180707 0.2387966763
0.0862377356 -0.6704888901 0.2401228333
0.1481959746 -0.5891316381 0.2551250509
0.1904444850 -0.5750084155 0.2657725340
0.1629024479 -0.5468169383 0.2514967799
0.2452756924 -0.4274736361 0.1747077617
0.2017894058 -0.4085747955 0.1777242287
0.2257560598 -0.4129079112 0.1727314616
0.2113806561 -0.3880466433 0.1615135759
0.2589449424 -0.3887933136 0.1426315154
0.2002989304 -0.3680197711 0.1519840470
0.2351494352 -0.3892712909 0.1537385330
0.2122917716 -0.3497760590 0.1381123699
0.2473974171 -0.4064679817 0.1596884330
0.2682527420 -0.4191845040 0.1574741882
0.2034922193 -0.5324524224 0.2529231642
0.1949215363 -0.5142542255 0.2443424284
0.1820107251 -0.5314520810 0.2501358276
0.2229616321 -0.5473359680 0.2556658958
0.3087258785 -0.4826375634 0.1733339231
0.2770247130 -0.4758765728 0.1903342373
0.2726144245 -0.5023108466 0.2097370970
0.2492197555 -0.5414580886 0.2421909409
-0.4400566138 -0.5060773897 0.1408819515
-0.5021783952 -0.4759976357 0.1242686302
-0.2361562967 -0.5563002903 0.1477946804
-0.2543620773 -0.5614044902 0.1498808143
-0.2144742389 -0.5590265360 0.1464776813
-0.3954269222 -0.5347656392 0.1479893508
-0.3874691105 -0.5571324970 0.1506455947
-0.4015148165 -0.5732709541 0.1513115450
-0.4005706896 -0.4694361769 0.1386184859
0.0239874126 -0.6571251166 0.2145036149
0.0791237696 -0.6517960402 0.2392969146
0.0628409565 -0.6686929262 0.2331197634
0.1025205487 -0.6535920041 0.2444157478
0.0513969825 -0.6844224498 0.2275843179
0.0701788652 -0.6994147936 0.2313250126
0.1126238641 -0.6796221126 0.2414353168
0.0618944432 -0.7235473890 0.2232446967
0.0759238020 -0.7461325997 0.2140712084
0.2283779444 -0.4373911208 0.1881170653
0.2583625673 -0.4422757563 0.1778814263
-0.4878063126 -0.4986859405 0.1300942476
-0.1985286550 -0.5734998133 0.1463353211
-0.2182410818 -0.5406691146 0.1454003168
-0.4036252513 -0.5160940694 0.1454071690
-0.4035575072 -0.4469431272 0.1330798342
-0.4475290558 -0.4389500903 0.1292026613
-0.4289634178 -0.4617615713 0.1356511334
-0.4244943931 -0.4371764306 0.1301038164
-0.4375115809 -0.4185845028 0.1245726663
-0.4512715785 -0.4002570420 0.1189003526
-0.4729133581 -0.4041162483 0.1182778687
-0.4766041762 -0.4334718537 0.1248220680
-0.4590147349 -0.4206539826 0.1237803457
0.0952460957 -0.6871452256 0.2386918984
0.1114399281 -0.6990193455 0.2325560545
0.1424278140 -0.6724744655 0.2405438373
0.0954342955 -0.7521520682 0.2087361611
0.0836898318 -0.7256585935 0.2236455462
-0.4758382058 -0.4752084445 0.1318240289
-0.5171335283 -0.5013672867 0.1204024174
-0.4524425207 -0.4619097965 0.1342919005
-0.5119352482 -0.4411772224 0.1184853632
0.1489596954 -0.6917212113 0.2296656417
0.1544936557 -0.6527002461 0.2481836155
0.1329855351 -0.6387712906 0.2516884475
0.1139876693 -0.6384416674 0.2475935587
0.1231622485 -0.6573006400 0.2486086961
-0.4896379909 -0.4545863808 0.1266680893
-0.4698532367 -0.4522192442 0.1309284157
-0.5034741133 -0.5160111141 0.1264182862
-0.5283133046 -0.4776841607 0.1149864916
-0.5162574083 -0.4611654792 0.1187948768
-0.5353772122 -0.4465696795 0.1108356808
-0.5460964573 -0.4702662788 0.1064553781
-0.5272305477 -0.4283352608 0.1115808696
-0.5284940063 -0.5161598497 0.1165240841
-0.4959969548 -0.4294046921 0.1199756137
-0.6064026725 -0.1768902453 0.0326934753
0.4301058718 -0.6112734116 0.0560462811
-0.5146081656 -0.8426999749 0.0944004119
-0.2554310252 -0.8562810576 0.1145278006
-0.2045146564 -0.8595187932 0.1087410392
-0.1864960775 -0.8759315002 0.1017893560
-0.1939869400 -0.8377040483 0.1162933266
-0.2179061941 -0.8472630698 0.1130946790
-0.1557667476 -0.9171261997 0.0822153255
-0.2764799605 -0.7216675301 0.1465537541
-0.2764944170 -0.6287262295 0.1526267037
-0.2529713086 -0.6150425877 0.1513814430
-0.2388045542 -0.5965167182 0.1502414373
-0.2764959737 -0.4987123533 0.1434642306
-0.2764935052 -0.4739062077 0.1400598031
-0.0675020876 -0.8697145652 0.1142139964
0.1929913368 -0.7151165569 0.2026541599
0.3722377116 -0.5961040668 0.1394262301
-0.1340874347 -0.8640162587 0.0964613998
-0.1654296415 -0.8315725295 0.1145062715
-0.1463384427 -0.8259112288 0.1095197987
-0.2999814004 -0.6595349363 0.1521751744
-0.1685217343 -0.6332182848 0.1434589817
-0.2764963100 -0.5916230557 0.1515754526
-0.3394208443 -0.6904950566 0.1517995805
-0.3629680781 -0.4987074863 0.1441941194
-0.2999998427 -0.5608255754 0.1505402535
-0.2998811891 -0.4117718928 0.1262212882
-0.3394949609 -0.4678523672 0.1377703069
0.0117206505 -0.2907612494 0.0952177042
0.0475003007 -0.2970463611 0.1011655728
0.1666553559 -0.3926380345 0.1694903198
-0.5035465086 -0.8227908256 0.1012755556
-0.4349023233 -0.8162658758 0.1176745483
-0.4544957344 -0.8352074353 0.1102510538
-0.2727747257 -0.7957664563 0.1322456181
-0.1448066186 -0.5620778937 0.1419949902
-0.1615274579 -0.5477336694 0.1429847719
-0.1588963774 -0.5756620354 0.1421443530
-0.1461460997 -0.4207082860 0.1294675034
-0.1641466203 -0.4106542868 0.1265131752
-0.1721224135 -0.3932318164 0.1227147514
0.0796961755 -0.3694813362 0.1444364252
-0.3991899258 -0.3547171760 0.1080896565
-0.0116667095 -0.8776571985 0.1351136592
-0.0322465239 -0.5185509963 0.1652516212
0.1324399387 -0.4399006319 0.1921223259
0.0875510729 -0.2892516601 0.1003977576
0.0736105535 -0.2718318851 0.0888994362
0.0686425105 -0.2988874797 0.1041637893
0.0557890497 -0.3241760118 0.1167959785
0.0364805281 -0.3152441915 0.1098526719
0.0542444225 -0.3440019185 0.1266077378
0.3895804189 -0.5456854094 0.1033736445
0.4047732861 -0.5138348145 0.0444623461
-0.5270090334 -0.6004287051 0.1165920761
-0.5174734128 -0.5779398741 0.1230379394
-0.5516482117 -0.4027887313 0.0980488494
0.0279065739 -0.6893421155 0.2163705456
0.3646005877 -0.4179871084 0.0461462540
0.3634045120 -0.3972153392 0.0359429236
0.3583318767 -0.3730040601 0.0301244788
0.3512720520 -0.3535581226 0.0327642100
-0.2009623256 -0.6688027067 0.1449639187
-0.2164761210 -0.6530219483 0.1470916798
-0.3953366476 -0.7800083628 0.1328438001
-0.5042354253 -0.2395873905 0.0650438300
0.3303202334 -0.5945317313 0.1869955281
0.2986655016 -0.5777578640 0.2219149197
-0.4263128752 -0.5697210351 0.1489350585
0.1702648357 -0.5817032141 0.2618866906
0.2761878735 -0.3661498194 0.1188848700
0.2826607544 -0.3889658515 0.1291574441
0.3092077000 -0.3726030929 0.0967605089
0.3239690126 -0.3922340992 0.0934363311
0.3429427994 -0.3858219042 0.0635516366
0.3092693595 -0.3509923027 0.0866861044
0.3294869012 -0.3705057849 0.0728152500
0.2887243910 -0.4186287943 0.1445689495
-0.4281977103 -0.4850779270 0.1398400141
-0.1567805708 -0.8662725368 0.1019433103
0.0439889690 -0.2755866784 0.0891640724
0.1656974253 -0.4117687164 0.1809788614
-0.4399688326 -0.7961382326 0.1219425869
-0.4564341922 -0.8119795002 0.1157767664
-0.4190308059 -0.8346402028 0.1148566222
-0.4137846780 -0.8140666880 0.1217335667
-0.3992848313 -0.8274674619 0.1198944566
-0.5120305820 -0.5544347522 0.1253310964
0.0178878581 -0.3373327646 0.1186161299
0.0606969816 -0.7658025301 0.2036498954
-0.0294438054 -0.7790732658 0.1688120986
-0.0082765574 -0.7725794405 0.1839740291
-0.0248509794 -0.7971646356 0.1658496406
0.3273111206 -0.5286586087 0.1857579806
0.2474235806 -0.3674207912 0.1350540716
0.2344570397 -0.3520934499 0.1312997626
3 117 118 116
3 370 489 205
3 116 118 119
3 275 263 538
3 114 115 120
3 119 115 116
3 120 115 119
3 145 144 516
3 267 266 143
3 346 1138 345
3 441 32 33
3 221 238 231
3 122 217 121
3 217 216 121
3 233 6 7
3 217 113 216
3 309 228 122
3 223 240 244
3 228 112 217
3 111 218 110
3 1137 339 1167
3 216 120 121
3 520 67 68
3 224 213 442
3 218 111 228
3 112 228 111
3 110 296 109
3 1135 236 80
3 224 443 317
3 338 613 108
3 613 462 107
3 243 242 239
3 296 110 218
3 309 122 123
3 444 92 93
3 227 235 1136
3 462 106 107
3 340 620 464
3 425 423 225
3 231 222 299
3 639 342 636
3 6 233 232
3 252 429 430
3 104 342 639
3 433 432 431
3 108 109 338
3 440 296 218
3 46 225 423
3 273 272 161
3 317 24 25
3 242 223 234
3 183 221 182
3 344 131 345
3 130 131 160
3 433 598 432
3 238 4 5
3 212 130 160
3 212 160 159
3 344 160 131
3 79 80 236
3 137 350 136
3 618 246 616
3 176 645 142
3 467 353 350
3 348 346 133
3 230 220 237
3 142 473 177
3 316 23 24
3 316 234 23
3 135 136 355
3 355 136 350
3 180 354 181
3 146 145 514
3 468 352 644
3 657 479 158
3 486 487 365
3 129 130 212
3 475 653 655
3 662 171 170
3 151 667 152
3 623 246 618
3 359 476 360
3 154 614 155
3 155 156 476
3 160 343 159
3 428 295 427
3 957 967 968
3 647 646 648
3 176 210 175
3 172 255 488
3 660 482 481
3 174 256 254
3 173 254 255
3 366 367 253
3 172 171 660
3 651 475 650
3 254 256 209
3 160 344 343
3 474 645 646
3 656 853 851
3 139 140 278
3 432 598 295
3 504 507 163
3 640 103 639
3 671 149 148
3 263 273 274
3 600 220 599
3 388 717 268
3 99 100 496
3 209 208 254
3 79 230 78
3 90 91 297
3 983 1201 237
3 704 143 144
3 32 235 227
3 312 33 34
3 101 1191 100
3 1133 1127 1117
3 710 713 712
3 156 157 478
3 714 716 715
3 1040 1098 258
3 370 205 490
3 268 717 719
3 103 640 102
3 104 105 342
3 271 270 66
3 77 78 241
3 70 71 266
3 677 678 378
3 82 86 87
3 83 86 82
3 84 85 83
3 277 183 278
3 83 85 86
3 255 254 208
3 87 88 219
3 14 548 13
3 236 230 79
3 230 237 241
3 444 602 724
3 230 236 435
3 619 106 462
3 87 219 82
3 8 303 7
3 297 435 314
3 219 229 1135
3 323 318 447
3 276 744 539
3 229 219 88
3 64 65 272
3 265 740 267
3 314 236 229
3 221 4 238
3 149 150 497
3 670 495 494
3 361 858 1042
3 670 150 149
3 380 379 501
3 676 500 675
3 955 845 846
3 512 385 384
3 153 484 152
3 512 147 146
3 162 522 163
3 147 148 501
3 168 167 673
3 505 381 504
3 145 146 510
3 1108 1110 1107
3 381 506 507
3 269 271 518
3 390 522 523
3 526 161 270
3 162 274 273
3 498 376 497
3 635 465 634
3 388 885 887
3 386 143 71
3 264 71 72
3 143 704 267
3 71 143 266
3 88 89 229
3 738 388 75
3 112 113 217
3 268 885 388
3 75 388 74
3 227 31 32
3 180 181 299
3 386 387 143
3 526 743 523
3 267 740 70
3 270 65 66
3 427 212 159
3 113 114 216
3 266 267 70
3 26 213 224
3 225 214 186
3 700 144 145
3 226 30 31
3 161 272 65
3 520 521 389
3 270 161 65
3 1031 1202 1029
3 167 551 166
3 667 668 493
3 364 363 484
3 28 30 215
3 176 142 211
3 19 445 18
3 141 184 277
3 184 183 277
3 141 0 184
3 392 278 183
3 353 354 643
3 139 371 138
3 221 231 182
3 231 181 182
3 141 277 140
3 471 643 180
3 1 2 184
3 263 274 276
3 67 520 518
3 184 2 183
3 3 4 221
3 3 183 2
3 232 222 238
3 511 383 701
3 708 262 385
3 183 3 221
3 542 10 11
3 184 0 1
3 752 751 142
3 301 299 300
3 177 178 540
3 470 472 356
3 470 356 469
3 179 180 301
3 209 256 210
3 176 211 210
3 438 298 308
3 254 173 174
3 211 142 751
3 393 756 752
3 396 544 545
3 902 901 990
3 206 489 369
3 172 173 255
3 366 368 170
3 210 211 543
3 170 368 400
3 546 207 544
3 546 206 207
3 370 368 253
3 991 764 905
3 170 171 366
3 562 1092 1115
3 169 399 168
3 232 5 6
3 140 277 278
3 1201 241 237
3 126 461 125
3 302 300 233
3 232 233 222
3 469 179 178
3 232 238 5
3 437 279 436
3 1179 753 437
3 244 240 319
3 307 303 305
3 454 335 333
3 213 215 226
3 544 207 208
3 13 775 12
3 205 778 204
3 120 216 114
3 18 445 446
3 310 309 123
3 82 219 81
3 1151 554 17
3 302 306 298
3 554 16 17
3 476 477 155
3 547 775 548
3 599 297 601
3 230 241 78
3 244 21 22
3 21 244 319
3 316 242 234
3 371 257 467
3 316 317 239
3 210 256 175
3 486 157 156
3 234 22 23
3 81 1135 80
3 25 26 224
3 215 27 28
3 182 181 372
3 869 377 1172
3 27 215 213
3 273 263 275
3 227 226 31
3 371 278 257
3 30 226 215
3 28 29 30
3 533 535 529
3 147 501 502
3 213 26 27
3 510 511 700
3 319 321 20
3 163 507 162
3 778 779 204
3 782 203 202
3 1136 442 213
3 168 399 402
3 781 552 401
3 779 203 204
3 202 201 563
3 402 167 168
3 165 164 676
3 689 199 198
3 199 688 200
3 779 914 203
3 674 499 673
3 504 163 164
3 194 195 568
3 795 197 198
3 508 688 689
3 411 571 572
3 609 937 452
3 412 194 193
3 194 566 193
3 566 409 408
3 571 196 195
3 318 328 329
3 407 684 682
3 783 200 201
3 192 415 417
3 185 186 214
3 273 64 272
3 275 64 273
3 158 427 159
3 439 339 1137
3 527 528 62
3 1165 1216 1164
3 217 122 228
3 63 527 62
3 238 222 231
3 1183 58 59
3 801 572 799
3 193 566 567
3 288 416 190
3 89 314 229
3 574 57 58
3 783 553 924
3 54 55 418
3 56 414 576
3 604 441 312
3 291 190 189
3 435 599 220
3 286 412 578
3 478 479 360
3 319 20 21
3 167 780 551
3 208 207 255
3 580 581 420
3 43 44 585
3 357 1154 249
3 190 191 581
3 585 422 424
3 223 244 234
3 422 44 45
3 148 149 503
3 585 586 43
3 206 369 207
3 320 328 318
3 22 234 244
3 689 691 690
3 538 527 275
3 579 41 42
3 174 175 256
3 942 938 939
3 590 596 419
3 143 387 144
3 889 707 888
3 324 326 328
3 242 243 223
3 732 720 730
3 291 53 54
3 54 418 291
3 189 190 580
3 290 52 53
3 269 390 523
3 52 292 51
3 293 50 51
3 186 293 187
3 187 293 292
3 64 275 63
3 187 188 425
3 162 273 161
3 225 186 187
3 225 46 214
3 346 345 132
3 46 47 214
3 185 47 48
3 49 50 185
3 48 49 185
3 327 243 331
3 214 47 185
3 392 183 182
3 153 154 485
3 185 50 186
3 423 294 422
3 165 675 166
3 66 67 271
3 190 291 288
3 35 1189 808
3 213 226 227
3 204 203 403
3 664 151 152
3 321 323 445
3 761 280 759
3 564 406 563
3 166 565 165
3 793 409 568
3 793 794 569
3 528 530 536
3 802 571 573
3 574 575 413
3 411 572 801
3 414 56 57
3 192 191 415
3 416 288 576
3 287 415 416
3 584 191 192
3 934 40 41
3 189 188 290
3 290 188 292
3 189 290 291
3 291 290 53
3 290 292 52
3 188 187 292
3 50 293 186
3 292 293 51
3 580 426 597
3 579 804 589
3 428 158 157
3 429 432 295
3 310 311 440
3 296 460 338
3 601 91 92
3 297 599 435
3 298 300 302
3 306 308 298
3 231 299 181
3 300 299 222
3 233 300 222
3 301 300 298
3 301 298 438
3 180 299 301
3 303 233 7
3 304 436 308
3 305 8 9
3 233 303 302
3 8 305 303
3 753 986 896
3 305 897 753
3 304 306 307
3 307 306 302
3 308 306 304
3 303 307 302
3 307 305 1179
3 438 1150 393
3 179 438 178
3 310 123 124
3 218 228 309
3 124 439 310
3 218 309 310
3 125 439 124
3 460 245 338
3 35 36 811
3 604 235 441
3 332 313 606
3 317 443 450
3 89 90 314
3 297 314 90
3 93 602 444
3 717 718 719
3 317 316 24
3 242 316 239
3 25 224 317
3 224 442 443
3 318 321 320
3 320 240 324
3 320 319 240
3 319 320 321
3 324 240 325
3 327 325 223
3 321 318 323
3 19 20 321
3 327 322 325
3 335 337 322
3 447 318 329
3 18 446 17
3 325 240 223
3 324 322 326
3 327 223 243
3 322 324 325
3 334 335 327
3 1166 409 569
3 243 332 331
3 312 808 605
3 324 328 320
3 329 328 326
3 337 611 326
3 610 448 329
3 36 37 609
3 331 334 327
3 239 450 243
3 334 331 1202
3 235 604 606
3 331 332 1152
3 605 608 451
3 1181 929 794
3 1202 331 330
3 335 334 333
3 454 337 335
3 327 335 322
3 1029 608 1030
3 1028 410 1181
3 336 812 611
3 326 322 337
3 296 338 109
3 462 613 816
3 126 1169 638
3 972 1200 971
3 340 627 637
3 638 1219 637
3 614 615 463
3 669 152 667
3 340 619 462
3 634 636 246
3 343 247 641
3 159 343 657
3 345 131 132
3 343 344 247
3 346 132 133
3 247 344 345
3 642 348 133
3 348 349 346
3 468 135 352
3 1138 247 345
3 642 133 134
3 349 348 347
3 347 1139 349
3 649 1141 1154
3 137 138 467
3 1143 355 248
3 354 351 492
3 248 350 353
3 179 469 471
3 135 468 134
3 467 350 137
3 354 353 351
3 257 372 492
3 180 179 471
3 248 355 350
3 135 355 352
3 473 1153 177
3 355 1143 352
3 175 646 176
3 1153 1215 470
3 650 175 174
3 360 479 658
3 851 852 656
3 851 853 477
3 479 157 158
3 360 658 1144
3 662 663 482
3 1171 168 673
3 663 856 482
3 1148 380 376
3 1145 251 1146
3 483 363 1158
3 155 477 1156
3 364 853 1145
3 155 614 1159
3 629 861 829
3 367 366 171
3 368 366 253
3 488 171 172
3 666 207 369
3 253 489 370
3 400 281 399
3 253 367 369
3 367 488 666
3 490 205 204
3 491 400 368
3 278 371 139
3 467 257 351
3 492 181 354
3 392 372 257
3 102 640 836
3 817 463 615
3 147 512 513
3 705 884 883
3 101 1190 1191
3 1117 1127 1098
3 151 664 1161
3 376 498 866
3 376 866 868
3 858 361 856
3 522 524 163
3 876 680 878
3 980 975 874
3 876 878 502
3 503 497 380
3 380 1148 1149
3 505 164 165
3 276 506 260
3 699 198 197
3 61 62 528
3 147 502 1162
3 740 703 521
3 716 890 715
3 883 884 513
3 516 144 387
3 385 262 890
3 71 264 386
3 387 386 264
3 706 387 264
3 516 385 514
3 738 76 517
3 726 727 886
3 68 739 521
3 269 518 519
3 741 269 519
3 524 1174 163
3 530 533 529
3 530 528 391
3 372 392 182
3 257 278 392
3 540 438 393
3 541 755 754
3 12 775 776
3 545 759 396
3 755 279 757
3 908 776 547
3 545 208 209
3 762 396 759
3 926 786 925
3 554 555 16
3 927 557 561
3 1113 1120 560
3 400 399 169
3 402 399 781
3 170 400 169
3 368 370 491
3 281 403 552
3 879 401 552
3 781 399 281
3 402 401 780
3 403 782 552
3 403 491 490
3 553 783 784
3 449 448 787
3 763 765 767
3 555 926 16
3 564 201 200
3 782 406 1180
3 686 260 681
3 681 381 505
3 1231 595 1067
3 581 421 582
3 793 195 196
3 409 284 1065
3 812 453 611
3 336 454 456
3 195 194 572
3 694 537 693
3 193 192 417
3 799 800 801
3 412 193 578
3 414 287 576
3 574 414 57
3 577 414 413
3 416 415 191
3 417 415 287
3 190 416 191
3 418 576 288
3 287 414 577
3 417 578 193
3 576 418 55
3 291 418 288
3 289 592 590
3 579 934 41
3 588 583 587
3 425 188 597
3 567 192 193
3 595 593 421
3 423 422 45
3 424 422 294
3 46 423 45
3 225 187 425
3 588 294 426
3 583 805 582
3 188 189 597
3 423 425 294
3 582 805 420
3 294 425 426
3 428 427 158
3 212 427 295
3 157 486 430
3 429 428 430
3 432 429 1200
3 295 428 429
3 157 430 428
3 430 365 861
3 628 623 630
3 128 1222 1220
3 1200 429 252
3 1221 1222 431
3 128 129 433
3 598 433 129
3 434 601 444
3 718 891 315
3 230 435 220
3 314 435 236
3 437 436 304
3 1150 436 279
3 1179 305 753
3 437 758 757
3 438 179 301
3 438 308 1150
3 439 125 461
3 310 439 311
3 310 440 218
3 460 440 311
3 32 441 235
3 33 312 441
3 1136 213 227
3 442 313 443
3 313 332 443
3 450 332 243
3 602 93 94
3 603 444 315
3 321 445 19
3 446 445 323
3 449 446 323
3 446 449 1151
3 448 447 329
3 449 282 1151
3 610 329 813
3 1093 1113 1124
3 323 447 449
3 448 449 447
3 317 450 239
3 443 332 450
3 451 604 605
3 331 1152 330
3 37 948 609
3 284 409 1166
3 456 458 336
3 920 918 919
3 1032 1203 1031
3 336 337 454
3 1075 945 1024
3 812 458 459
3 1203 454 333
3 455 1037 458
3 941 452 937
3 1028 570 798
3 455 458 456
3 458 457 459
3 457 814 459
3 928 453 1003
3 440 460 296
3 1137 460 311
3 638 461 126
3 439 461 339
3 107 108 613
3 340 464 619
3 615 154 153
3 860 859 487
3 246 342 616
3 342 617 616
3 623 633 246
3 1190 101 102
3 641 247 847
3 648 655 358
3 371 467 138
3 353 467 351
3 1143 644 352
3 347 642 468
3 470 469 178
3 471 469 356
3 1153 178 177
3 249 1140 1215
3 356 248 471
3 643 471 248
3 644 472 1140
3 472 644 1143
3 1155 473 142
3 1153 473 357
3 647 649 474
3 645 1155 142
3 848 174 173
3 172 660 661
3 476 156 478
3 477 476 359
3 477 359 851
3 1156 364 485
3 479 478 157
3 476 478 360
3 158 159 657
3 658 250 1144
3 854 855 1198
3 475 651 653
3 481 855 854
3 854 654 661
3 663 170 169
3 482 856 1157
3 664 484 483
3 867 866 498
3 484 153 485
3 483 484 363
3 1156 485 154
3 484 485 364
3 487 486 156
3 430 486 365
3 1159 156 155
3 860 665 859
3 666 255 207
3 171 488 367
3 369 489 253
3 205 489 206
3 204 403 490
3 491 403 281
3 400 491 281
3 370 490 491
3 257 492 351
3 181 492 372
3 668 151 150
3 865 669 493
3 494 864 863
3 862 493 668
3 147 513 1163
3 495 884 1160
3 1223 496 100
3 1133 496 375
3 498 497 150
3 380 497 376
3 1161 150 151
3 867 672 866
3 674 167 166
3 1171 499 1172
3 500 677 679
3 869 499 674
3 501 148 503
3 502 501 379
3 502 379 876
3 1162 383 510
3 497 503 149
3 501 503 380
3 505 504 164
3 507 504 381
3 565 505 165
3 681 260 506
3 507 276 274
3 681 506 381
3 276 507 506
3 162 507 274
3 690 692 508
3 790 406 564
3 802 197 196
3 696 537 694
3 1162 510 146
3 511 510 383
3 701 383 261
3 704 511 703
3 512 146 514
3 513 512 384
3 513 384 883
3 1163 495 671
3 516 514 145
3 512 514 385
3 889 982 981
3 708 710 262
3 387 706 709
3 385 516 708
3 1201 76 77
3 237 600 891
3 67 518 271
3 519 518 389
3 880 519 389
3 977 874 679
3 521 520 68
3 518 520 389
3 740 739 69
3 703 701 702
3 523 522 162
3 524 522 390
3 526 162 161
3 271 269 743
3 1176 1175 524
3 1174 1175 678
3 741 390 269
3 525 741 742
3 743 270 271
3 162 526 523
3 275 527 63
3 528 527 391
3 531 533 391
3 536 61 528
3 535 534 750
3 61 1164 60
3 539 391 538
3 1224 536 529
3 276 260 744
3 691 693 382
3 532 536 1224
3 285 800 1185
3 391 533 530
3 745 535 531
3 534 535 745
3 684 686 682
3 531 535 533
3 750 534 749
3 529 536 530
3 536 532 1164
3 509 573 694
3 535 537 698
3 539 538 263
3 527 538 391
3 276 539 263
3 391 539 531
3 438 540 178
3 752 540 393
3 756 279 755
3 751 754 543
3 909 12 776
3 542 910 896
3 543 211 751
3 395 902 543
3 545 544 208
3 546 544 396
3 901 760 545
3 762 759 280
3 762 546 396
3 206 991 205
3 774 1225 773
3 776 910 909
3 925 14 15
3 777 548 397
3 991 546 764
3 911 779 549
3 912 550 913
3 553 784 916
3 551 879 687
3 551 687 565
3 403 203 782
3 879 685 687
3 201 202 915
3 1004 404 1005
3 1151 17 446
3 555 554 405
3 555 405 557
3 786 559 1114
3 558 557 405
3 558 282 787
3 405 1151 558
3 561 557 556
3 282 449 787
3 557 558 1120
3 559 561 562
3 397 548 786
3 448 610 1001
3 1001 788 448
3 561 556 1112
3 561 559 927
3 1122 1124 1121
3 546 762 764
3 564 563 201
3 782 563 406
3 688 564 200
3 692 791 508
3 551 565 166
3 565 407 682
3 566 194 568
3 567 566 408
3 1065 284 1063
3 567 421 584
3 568 195 793
3 566 568 409
3 794 196 197
3 1166 569 1217
3 931 199 785
3 199 200 924
3 572 571 195
3 573 571 411
3 194 412 572
3 286 799 412
3 1177 285 697
3 699 573 509
3 575 574 58
3 414 574 413
3 1183 1216 1184
3 413 575 1182
3 56 576 55
3 287 416 576
3 286 577 413
3 287 577 417
3 417 577 578
3 286 578 577
3 43 586 804
3 935 934 579
3 581 580 190
3 426 580 420
3 584 581 191
3 582 421 289
3 583 582 289
3 420 581 582
3 589 583 590
3 804 587 589
3 567 584 192
3 581 584 421
3 422 585 44
3 586 585 424
3 587 586 424
3 42 804 579
3 588 587 424
3 589 587 583
3 294 588 424
3 426 420 805
3 590 583 289
3 579 589 419
3 592 289 593
3 419 589 590
3 1230 591 1231
3 592 596 590
3 593 289 421
3 592 591 594
3 595 421 567
3 592 593 806
3 284 930 1061
3 1211 935 594
3 1067 567 408
3 592 806 591
3 592 594 596
3 419 596 594
3 580 597 189
3 425 597 426
3 129 212 598
3 295 598 212
3 601 297 91
3 600 599 434
3 600 434 603
3 237 220 600
3 444 601 92
3 599 601 434
3 725 602 728
3 731 730 725
3 603 315 891
3 434 444 603
3 605 604 312
3 606 604 451
3 312 34 808
3 608 330 1152
3 332 606 451
3 606 313 1136
3 811 36 609
3 1188 608 605
3 608 1188 809
3 1029 330 608
3 948 38 810
3 949 950 951
3 813 326 611
3 788 560 787
3 336 611 337
3 813 453 610
3 797 1009 1011
3 560 788 1002
3 338 245 815
3 462 816 340
3 615 614 154
3 1159 614 463
3 669 153 152
3 341 463 817
3 617 342 105
3 618 616 464
3 106 617 105
3 464 616 617
3 618 464 620
3 633 634 246
3 464 617 619
3 106 619 617
3 624 620 340
3 831 628 973
3 630 624 631
3 365 487 859
3 624 637 622
3 1221 632 1218
3 630 618 620
3 626 954 830
3 816 613 815
3 628 621 623
3 624 622 631
3 622 1218 1047
3 341 819 823
3 827 626 830
3 1137 1167 245
3 638 637 627
3 630 623 618
3 1047 973 625
3 365 859 861
3 831 629 829
3 624 630 620
3 628 630 625
3 632 1047 1218
3 630 631 625
3 632 1200 972
3 972 973 632
3 954 623 621
3 634 633 626
3 635 634 626
3 634 465 636
3 819 341 817
3 835 832 635
3 636 465 639
3 246 636 342
3 340 637 624
3 627 1167 638
3 461 638 339
3 126 127 1169
3 640 639 465
3 103 104 639
3 635 832 465
3 640 465 832
3 247 1138 847
3 659 657 1170
3 348 642 347
3 134 468 642
3 353 643 248
3 180 643 354
3 1140 249 1139
3 347 468 644
3 646 645 176
3 474 1154 1155
3 648 175 650
3 648 358 647
3 649 647 358
3 474 646 647
3 175 648 646
3 648 475 655
3 965 966 358
3 1142 1141 957
3 651 650 174
3 648 650 475
3 173 172 661
3 654 652 653
3 852 961 963
3 659 466 969
3 654 653 651
3 653 652 655
3 848 654 651
3 654 480 960
3 958 655 652
3 967 966 850
3 359 1144 852
3 656 852 963
3 343 641 657
3 1170 466 659
3 479 659 658
3 659 969 1041
3 657 659 479
3 850 969 466
3 660 171 662
3 661 660 481
3 854 661 481
3 661 654 848
3 663 662 170
3 660 662 482
3 169 168 1171
3 1157 856 361
3 484 664 152
3 1161 664 483
3 823 825 341
3 861 252 430
3 367 666 369
3 255 666 488
3 668 667 151
3 669 667 493
3 670 668 150
3 493 862 373
3 865 493 373
3 615 153 669
3 670 149 671
3 668 670 494
3 1163 671 148
3 670 671 495
3 1099 979 1082
3 869 870 377
3 674 673 167
3 1171 673 499
3 675 674 166
3 870 871 679
3 676 675 165
3 674 675 500
3 164 163 1174
3 677 676 678
3 679 677 378
3 500 676 677
3 676 164 1174
3 678 1175 985
3 895 378 985
3 259 1148 868
3 379 1149 877
3 895 525 742
3 682 505 565
3 682 681 505
3 683 684 685
3 681 682 686
3 283 406 790
3 534 745 746
3 685 684 407
3 684 683 686
3 687 685 407
3 685 283 792
3 683 692 748
3 747 745 744
3 565 687 407
3 879 551 401
3 689 688 199
3 564 688 508
3 691 198 699
3 691 382 690
3 692 690 382
3 508 689 690
3 198 691 689
3 691 509 693
3 534 746 749
3 683 685 792
3 694 693 509
3 693 537 750
3 1177 573 411
3 695 698 696
3 695 696 697
3 1184 1185 800
3 697 696 694
3 695 1224 698
3 1177 694 573
3 697 285 1187
3 535 698 529
3 537 696 698
3 699 197 802
3 691 699 509
3 510 700 145
3 704 700 511
3 702 701 261
3 703 511 701
3 742 519 881
3 702 880 521
3 521 703 702
3 704 703 265
3 267 704 265
3 700 704 144
3 715 262 712
3 1086 1104 1214
3 72 982 1052
3 709 708 516
3 889 515 706
3 887 74 388
3 516 387 709
3 708 709 710
3 706 515 709
3 515 1178 709
3 711 712 713
3 726 268 719
3 735 1108 734
3 262 710 712
3 713 710 1178
3 711 714 715
3 888 707 886
3 721 723 726
3 1104 1086 1102
3 843 1048 846
3 711 715 712
3 1102 716 714
3 883 716 705
3 890 716 384
3 738 717 388
3 718 717 517
3 718 983 891
3 724 725 722
3 718 722 721
3 718 721 719
3 722 725 720
3 737 894 736
3 722 718 315
3 723 721 720
3 724 722 315
3 720 721 722
3 725 730 720
3 723 727 726
3 444 724 315
3 724 602 725
3 728 602 94
3 730 731 729
3 721 726 719
3 732 734 736
3 888 713 515
3 707 885 886
3 94 95 728
3 731 892 1192
3 1128 1129 1130
3 732 736 723
3 731 725 728
3 732 730 729
3 95 892 728
3 731 728 892
3 734 732 729
3 720 732 723
3 984 731 893
3 713 894 737
3 735 734 729
3 734 733 736
3 1128 98 1117
3 99 1133 98
3 736 733 737
3 727 723 736
3 1107 737 733
3 711 713 737
3 76 738 75
3 717 738 517
3 68 69 739
3 70 740 69
3 703 740 265
3 521 739 740
3 742 741 519
3 525 1175 1176
3 519 880 881
3 881 261 882
3 523 743 269
3 270 743 526
3 746 747 686
3 539 744 531
3 531 744 745
3 744 260 747
3 686 748 746
3 749 382 750
3 686 747 260
3 745 747 746
3 683 748 686
3 749 748 692
3 748 749 746
3 692 382 749
3 693 750 382
3 750 537 535
3 752 142 177
3 751 541 754
3 752 177 540
3 541 751 752
3 896 898 753
3 305 9 897
3 541 756 755
3 395 543 754
3 757 279 437
3 395 754 755
3 752 756 541
3 756 393 1150
3 758 437 898
3 755 757 899
3 777 1225 774
3 755 899 395
3 901 545 209
3 760 759 545
3 899 758 1228
3 759 760 761
3 1226 760 902
3 769 767 766
3 765 762 280
3 765 764 762
3 767 280 906
3 763 1193 1087
3 763 903 764
3 903 398 905
3 906 280 761
3 764 765 763
3 773 770 771
3 1092 768 1094
3 280 767 765
3 769 771 768
3 1087 903 763
3 769 1193 767
3 771 769 766
3 1091 1193 768
3 906 907 766
3 1094 770 1095
3 766 907 773
3 771 770 1094
3 761 1226 1227
3 987 900 758
3 766 773 771
3 773 772 774
3 900 987 989
3 774 547 777
3 548 775 13
3 776 775 547
3 547 774 908
3 11 909 542
3 777 397 1225
3 547 548 777
3 991 778 205
3 779 778 549
3 911 549 398
3 779 913 914
3 402 780 167
3 401 551 780
3 402 781 401
3 281 552 781
3 563 782 202
3 1180 406 283
3 783 201 915
3 924 553 785
3 784 915 914
3 553 916 404
3 921 923 404
3 796 570 795
3 925 548 14
3 786 926 927
3 788 787 448
3 558 787 560
3 928 1001 453
3 1002 788 1001
3 918 993 921
3 921 916 917
3 791 790 564
3 283 790 792
3 508 791 564
3 792 692 683
3 790 791 792
3 692 792 791
3 794 793 196
3 793 569 409
3 795 794 197
3 1181 794 570
3 796 795 198
3 794 795 570
3 199 796 198
3 931 785 932
3 570 796 798
3 798 796 931
3 796 199 931
3 798 797 933
3 799 286 800
3 572 412 799
3 286 413 1182
3 59 60 1216
3 800 285 801
3 411 801 285
3 571 802 196
3 699 802 573
3 944 938 942
3 1195 1196 1210
3 43 804 42
3 804 586 587
3 583 588 805
3 426 805 588
3 593 595 806
3 1065 1067 408
3 1021 1020 930
3 937 810 939
3 35 808 34
3 808 607 1188
3 1189 951 607
3 947 1036 1074
3 38 1195 1194
3 1211 1212 803
3 949 609 452
3 808 1189 607
3 458 812 336
3 453 812 459
3 326 813 329
3 453 813 611
3 814 457 1073
3 1057 998 999
3 815 245 1167
3 613 338 815
3 815 627 816
3 627 340 816
3 953 615 669
3 615 953 817
3 821 824 827
3 817 818 819
3 819 818 822
3 819 824 823
3 826 822 818
3 844 833 841
3 830 954 828
3 825 665 341
3 865 818 953
3 823 824 821
3 824 819 822
3 823 821 825
3 822 820 824
3 840 827 824
3 821 828 825
3 831 828 621
3 373 1085 826
3 820 822 826
3 840 820 837
3 635 626 827
3 830 828 821
3 831 829 828
3 665 825 829
3 828 829 825
3 827 830 821
3 626 633 954
3 621 628 831
3 973 628 625
3 640 832 836
3 833 835 837
3 833 837 841
3 1223 100 1191
3 836 835 838
3 833 839 838
3 837 835 635
3 838 835 833
3 835 836 832
3 836 834 1190
3 840 635 827
3 837 820 841
3 841 1204 844
3 836 838 834
3 258 1223 955
3 834 838 839
3 820 840 824
3 635 840 837
3 842 820 826
3 820 842 841
3 1084 862 863
3 833 844 845
3 863 864 1083
3 955 846 258
3 1204 841 842
3 845 844 843
3 845 843 846
3 833 845 839
3 1049 843 1204
3 1050 374 1086
3 847 349 1142
3 641 847 968
3 174 848 651
3 661 848 173
3 963 959 964
3 1041 658 659
3 358 655 965
3 965 958 850
3 852 851 359
3 1046 853 656
3 959 961 849
3 959 849 958
3 1145 853 251
3 853 364 1156
3 481 1157 855
3 654 854 480
3 361 1042 1044
3 962 1199 1046
3 1171 1172 1173
3 856 663 1173
3 875 979 377
3 1173 858 856
3 979 857 1172
3 1044 970 1045
3 487 1159 860
3 861 859 665
3 463 341 860
3 665 860 341
3 829 861 665
3 629 971 861
3 494 863 668
3 862 668 863
3 494 1160 864
3 974 1048 1049
3 974 1101 1050
3 974 1049 1083
3 373 826 865
3 818 865 826
3 498 1161 867
3 868 866 672
3 1158 867 483
3 867 362 1081
3 870 873 875
3 259 868 975
3 871 674 500
3 869 871 870
3 679 873 870
3 875 377 870
3 674 871 869
3 679 871 500
3 873 874 872
3 976 868 672
3 874 873 679
3 875 873 872
3 977 679 378
3 877 680 876
3 976 872 975
3 970 1147 1146
3 877 876 379
3 680 261 878
3 259 980 877
3 977 978 874
3 261 383 878
3 878 383 1162
3 1180 552 782
3 685 879 283
3 521 880 389
3 880 702 881
3 702 261 881
3 882 261 680
3 978 1051 877
3 742 881 882
3 716 883 384
3 705 374 884
3 1160 884 374
3 884 495 1163
3 886 885 268
3 885 707 887
3 726 886 268
3 886 727 888
3 981 887 707
3 73 74 887
3 888 727 894
3 889 888 515
3 1052 706 264
3 982 73 981
3 385 890 384
3 715 890 262
3 891 600 603
3 983 718 517
3 96 1192 95
3 731 1192 893
3 1130 96 97
3 731 984 729
3 888 894 713
3 736 894 727
3 742 882 895
3 680 1051 882
3 898 896 394
3 986 753 897
3 9 10 897
3 986 897 10
3 753 898 437
3 394 758 898
3 757 758 899
3 1228 758 900
3 987 758 394
3 1227 772 907
3 209 210 901
3 990 901 210
3 1226 902 395
3 901 902 760
3 767 1193 763
3 905 398 549
3 1091 1092 1089
3 1055 997 996
3 549 778 991
3 764 903 905
3 907 906 761
3 767 906 766
3 761 760 1226
3 907 772 773
3 989 987 988
3 910 542 909
3 12 909 11
3 910 776 908
3 988 910 908
3 910 394 896
3 912 911 398
3 914 913 550
3 1053 1054 992
3 994 998 995
3 779 911 913
3 912 913 911
3 914 550 917
3 203 914 202
3 914 915 202
3 783 915 784
3 784 917 916
3 917 919 921
3 914 917 784
3 917 550 919
3 550 920 919
3 1007 922 1008
3 920 550 912
3 921 919 918
3 912 398 1054
3 920 912 1053
3 993 923 921
3 916 921 404
3 922 993 995
3 789 999 998
3 1008 1000 1007
3 797 798 1027
3 783 924 200
3 785 199 924
3 926 925 15
3 548 925 786
3 16 926 15
3 557 927 555
3 786 927 559
3 555 927 926
3 1003 453 459
3 814 1058 1003
3 410 930 1217
3 569 794 929
3 933 1012 1014
3 941 938 1038
3 785 1004 932
3 798 931 1027
3 1005 932 1004
3 923 1006 1005
3 1010 1011 1000
3 814 1073 1070
3 935 579 419
3 934 803 1197
3 594 935 419
3 803 934 935
3 811 949 951
3 1203 456 454
3 948 937 609
3 810 1194 942
3 1231 591 806
3 939 941 937
3 810 38 1194
3 939 938 941
3 39 1196 1195
3 1206 1208 1211
3 944 946 938
3 1035 1037 1034
3 810 942 939
3 940 1209 944
3 1206 591 1230
3 1066 807 1063
3 940 944 942
3 1213 946 944
3 1014 410 933
3 947 1038 946
3 1213 944 943
3 946 945 947
3 1024 1015 1019
3 936 1229 1034
3 38 948 37
3 937 948 810
3 949 452 950
3 811 609 949
3 1039 452 941
3 950 1229 1030
3 950 809 951
3 951 809 1188
3 1023 1025 1026
3 1021 930 410
3 865 953 669
3 817 953 818
3 623 954 633
3 828 954 621
3 1223 258 375
3 845 955 839
3 1105 1102 714
3 258 846 1040
3 847 1142 957
3 649 966 957
3 959 958 652
3 850 958 849
3 960 959 652
3 961 250 1041
3 654 960 652
3 1198 964 480
3 963 961 959
3 852 250 961
3 1198 962 964
3 1045 1199 1044
3 964 959 960
3 656 963 962
3 480 964 960
3 962 963 964
3 958 965 655
3 966 965 850
3 850 466 967
3 358 966 649
3 968 967 466
3 957 966 967
3 641 968 466
3 957 968 847
3 850 849 969
3 1041 969 849
3 970 1042 1043
3 362 1158 1146
3 972 971 629
3 252 861 971
3 973 972 629
3 632 431 1200
3 831 973 629
3 625 631 1047
3 1050 864 374
3 1048 1078 1040
3 976 975 868
3 874 975 872
3 1081 1043 1080
3 875 872 976
3 378 895 977
3 978 877 980
3 977 895 978
3 895 882 1051
3 1082 1100 1080
3 672 1080 976
3 975 980 259
3 978 980 874
3 887 981 73
3 707 889 981
3 889 706 1052
3 73 982 72
3 1201 517 76
3 237 891 983
3 893 735 984
3 735 729 984
3 678 985 378
3 525 895 985
3 10 542 986
3 896 986 542
3 988 394 910
3 908 989 988
3 989 908 774
3 394 988 987
3 774 772 989
3 900 989 772
3 210 543 990
3 902 990 543
3 546 991 206
3 549 991 905
3 1092 1056 1089
3 1088 1090 997
3 996 995 993
3 922 923 993
3 997 1055 1053
3 996 997 994
3 996 993 918
3 994 1122 998
3 1055 918 920
3 994 995 996
3 992 1088 997
3 1123 997 1090
3 999 789 928
3 995 998 1057
3 999 928 1003
3 612 1059 1008
3 1070 1071 1072
3 1027 1006 1009
3 453 1001 610
3 1002 1001 928
3 928 789 1002
3 1002 789 1121
3 459 814 1003
3 814 612 1058
3 785 553 1004
3 404 1004 553
3 404 923 1005
3 922 1007 923
3 1009 1006 1000
3 932 1005 1006
3 1000 1006 1007
3 923 1007 1006
3 1057 922 995
3 612 1205 1058
3 1010 1000 1059
3 1009 797 1027
3 933 1011 1012
3 1011 933 797
3 1000 1011 1009
3 1011 1010 1012
3 1013 1010 1071
3 1012 1010 1013
3 1022 1016 1018
3 1016 1013 952
3 1022 1012 1013
3 410 1014 1021
3 1016 1019 1015
3 1096 1020 1015
3 1019 1016 1023
3 1018 1016 1015
3 1017 1019 1023
3 1036 1076 1035
3 1018 1015 1020
3 1022 1018 1014
3 1023 1016 952
3 1024 1019 1017
3 1015 1097 1096
3 930 1020 1061
3 1014 1018 1021
3 1020 1021 1018
3 1012 1022 1014
3 1016 1022 1013
3 952 1025 1023
3 1026 1017 1023
3 1076 1075 1017
3 1024 945 1097
3 1025 952 1070
3 455 1034 1037
3 1025 1073 1077
3 1034 455 1032
3 931 932 1027
3 1027 932 1006
3 798 933 1028
3 410 1028 933
3 1030 608 809
3 1031 1029 936
3 950 1030 809
3 936 1029 1030
3 1032 1031 936
3 333 334 1202
3 1030 1229 936
3 1203 455 456
3 1039 950 452
3 1017 1026 1076
3 936 1034 1032
3 1035 1034 1033
3 1035 1033 1036
3 1035 1026 1037
3 1033 1039 1074
3 1036 947 1075
3 1077 1026 1025
3 1037 1077 458
3 946 1038 938
3 1074 1038 947
3 941 1038 1074
3 1229 1039 1033
3 1040 846 1048
3 1098 1040 1116
3 961 1041 849
3 658 1041 250
3 1043 1042 858
3 1044 1042 970
3 1099 858 857
3 976 1100 875
3 1146 1045 970
3 361 1044 855
3 1046 1045 251
3 962 1198 1199
3 853 1046 251
3 962 1046 656
3 622 1047 631
3 632 973 1047
3 1049 1048 843
3 1048 974 1078
3 1084 1049 1085
3 1084 863 1083
3 1086 374 705
3 1050 1214 1078
3 877 1051 680
3 895 1051 978
3 72 1052 264
3 889 1052 982
3 1054 1053 912
3 997 1053 992
3 1087 398 903
3 904 992 1054
3 918 1055 996
3 1053 1055 920
3 1056 1088 1089
3 1111 1112 1093
3 1205 1057 999
3 1008 922 1057
3 1205 612 1008
3 1003 1058 1205
3 1059 612 1072
3 1000 1008 1059
3 1069 1064 1068
3 1020 1062 1061
3 1020 1096 1062
3 1065 1063 807
3 1062 1068 1066
3 1230 1066 1064
3 284 1061 1063
3 1062 1063 1061
3 1060 1069 1068
3 591 1206 594
3 1067 1065 807
3 1065 408 409
3 1063 1062 1066
3 1068 1062 1060
3 1067 807 1231
3 1067 595 567
3 1060 1097 1069
3 1064 1066 1068
3 1213 945 946
3 1213 1207 1069
3 952 1013 1071
3 814 1070 612
3 1072 1071 1010
3 952 1071 1070
3 1059 1072 1010
3 612 1070 1072
3 1077 1073 457
3 1070 1073 1025
3 1033 1074 1036
3 1039 941 1074
3 945 1075 947
3 1017 1075 1024
3 1035 1076 1026
3 1075 1076 1036
3 458 1077 457
3 1026 1077 1037
3 1050 1078 974
3 956 1040 1078
3 1126 1118 1103
3 1125 1079 1116
3 1081 1080 672
3 1082 1080 1043
3 867 1081 672
3 1043 1081 362
3 1099 1043 858
3 1100 979 875
3 864 1050 1101
3 1084 1083 1049
3 1049 1204 1085
3 1084 373 862
3 826 1085 842
3 373 1084 1085
3 1102 705 716
3 1086 705 1102
3 904 1054 1087
3 398 1087 1054
3 1089 1088 992
3 1090 1088 1056
3 992 904 1089
3 1091 1089 904
3 1056 1093 1090
3 1113 1093 556
3 1193 1091 904
3 1092 1091 768
3 768 771 1094
3 1092 562 1111
3 1111 1093 1056
3 556 1120 1113
3 1225 1095 770
3 1092 1094 1115
3 1114 397 786
3 1115 559 562
3 1097 1015 1024
3 1062 1096 1060
3 1069 1097 945
3 1096 1097 1060
3 1116 1040 956
3 1098 1079 1117
3 979 1099 857
3 1043 1099 1082
3 1080 1100 976
3 979 1100 1082
3 974 1083 1101
3 864 1101 1083
3 714 1106 1105
3 1105 1104 1102
3 1106 1110 1103
3 1110 1109 1103
3 1118 1104 1103
3 1214 1104 956
3 1106 714 711
3 1104 1105 1103
3 1107 1106 711
3 1103 1105 1106
3 737 1107 711
3 1108 1107 733
3 734 1108 733
3 1108 735 1109
3 1134 1109 735
3 1116 1079 1098
3 1107 1110 1106
3 1109 1110 1108
3 1092 1111 1056
3 1112 1111 562
3 561 1112 562
3 556 1093 1112
3 560 1121 1113
3 1122 1121 789
3 1115 1114 559
3 397 1114 1095
3 1094 1095 1115
3 1115 1095 1114
3 1118 956 1104
3 1118 1126 1116
3 1117 1079 1128
3 496 1133 99
3 1126 1103 1109
3 1116 956 1118
3 893 1132 735
3 97 1131 1130
3 557 1120 556
3 560 1120 558
3 1002 1121 560
3 789 998 1122
3 994 1123 1122
3 1122 1123 1124
3 997 1123 994
3 1124 1123 1090
3 1093 1124 1090
3 1121 1124 1113
3 1134 1125 1109
3 1129 1125 1119
3 1109 1125 1126
3 1116 1126 1125
3 375 258 1127
3 1098 1127 258
3 1129 1128 1079
3 97 98 1131
3 1125 1129 1079
3 1129 1119 1130
3 1119 1132 1130
3 1130 1132 96
3 98 1128 1131
3 1130 1131 1128
3 1132 1119 1134
3 96 1132 893
3 98 1133 1117
3 1127 1133 375
3 1132 1134 735
3 1125 1134 1119
3 236 1135 229
3 219 1135 81
3 606 1136 235
3 442 1136 313
3 460 1137 245
3 439 1137 311
3 346 349 1138
3 847 1138 349
3 1140 347 644
3 1139 249 1141
3 1140 472 1215
3 347 1140 1139
3 1154 1141 249
3 957 1141 649
3 349 1139 1142
3 1141 1142 1139
3 248 356 1143
3 472 1143 356
3 852 1144 250
3 359 360 1144
3 251 1045 1146
3 363 364 1145
3 970 1043 1147
3 363 1145 1146
3 1043 362 1147
3 362 1146 1147
3 868 1148 376
3 1149 1148 259
3 877 1149 259
3 379 380 1149
3 436 1150 308
3 756 1150 279
3 558 1151 282
3 554 1151 405
3 332 451 1152
3 608 1152 451
3 357 249 1215
3 178 1153 470
3 1155 1154 357
3 649 1154 474
3 1155 357 473
3 474 1155 645
3 155 1156 154
3 853 1156 477
3 855 1157 361
3 481 482 1157
3 1146 1158 363
3 867 1158 362
3 860 1159 463
3 156 1159 487
3 864 1160 374
3 494 495 1160
3 867 1161 483
3 150 1161 498
3 147 1162 146
3 878 1162 502
3 147 1163 148
3 884 1163 513
3 536 1164 61
3 1164 532 1186
3 695 1187 1186
3 800 286 1182
3 1217 569 929
3 284 1166 1217
3 638 1167 339
3 815 1167 627
3 1219 622 637
3 1169 1220 1168
3 1220 1169 127
3 1219 1169 1168
3 657 641 1170
3 466 1170 641
3 869 1172 499
3 169 1171 663
3 979 1172 377
3 1173 1172 857
3 1173 857 858
3 663 1171 1173
3 1175 1174 524
3 676 1174 678
3 1176 524 390
3 1175 525 985
3 390 741 1176
3 525 1176 741
3 285 1177 411
3 694 1177 697
3 709 1178 710
3 515 713 1178
3 437 304 1179
3 1179 304 307
3 283 879 1180
3 552 1180 879
3 1028 1181 570
3 929 1181 410
3 1183 1182 575
3 1184 1165 1185
3 58 1183 575
3 1183 59 1216
3 800 1182 1184
3 1183 1184 1182
3 1186 1185 1165
3 1187 1185 1186
3 1164 1186 1165
3 1186 532 1224
3 697 1187 695
3 285 1185 1187
3 808 1188 605
3 951 1188 607
3 951 1189 811
3 35 811 1189
3 836 1190 102
3 1191 1190 834
3 834 839 1191
3 1191 839 1223
3 95 1192 892
3 96 893 1192
3 768 1193 769
3 1087 1193 904
3 1195 38 39
3 942 1194 940
3 1196 39 40
3 940 1194 1195
3 40 1197 1196
3 1209 1210 1212
3 934 1197 40
3 1197 803 1212
3 854 1198 480
3 1199 1198 855
3 1044 1199 855
3 1199 1045 1046
3 432 1200 431
3 971 1200 252
3 1201 77 241
3 517 1201 983
3 1029 1202 330
3 333 1202 1031
3 1031 1203 333
3 455 1203 1032
3 844 1204 843
3 1085 1204 842
3 1057 1205 1008
3 1003 1205 999
3 1064 1207 1206
3 1207 1208 1206
3 1069 1207 1064
3 1208 1207 943
3 1209 1208 943
3 1212 1211 1208
3 944 1209 943
3 1210 1209 940
3 1195 1210 940
3 1196 1197 1212
3 935 1211 803
3 1206 1211 594
3 1209 1212 1208
3 1212 1210 1196
3 1207 1213 943
3 945 1213 1069
3 1078 1214 956
3 1086 1214 1050
3 470 1215 472
3 357 1215 1153
3 1164 1216 60
3 1216 1165 1184
3 410 1217 929
3 284 1217 930
3 1219 1218 622
3 1221 1218 1168
3 1169 1219 638
3 1218 1219 1168
3 127 128 1220
3 128 433 1222
3 632 1221 431
3 1168 1220 1221
3 431 1222 433
3 1220 1222 1221
3 955 1223 839
3 1223 375 496
3 698 1224 529
3 1186 1224 695
3 1095 1225 397
3 773 1225 770
3 1228 395 899
3 900 772 1227
3 761 1227 907
3 900 1227 1226
3 900 1226 1228
3 395 1228 1226
3 1039 1229 950
3 1034 1229 1033
3 1066 1230 807
3 1206 1230 1064
3 1231 806 595
3 807 1230 1231
