OFF
1232 2320 0
-0.07938931 -1.09618321 0.00000000
-0.06938464 -1.07696498 0.01422138
-0.05712017 -1.05340582 0.03165501
-0.04601698 -1.03207747 0.04743790
-0.03567953 -1.01233503 0.06198395
-0.02342641 -0.99232616 0.07484836
-0.01049578 -0.97121094 0.08842406
0.00168095 -0.95132686 0.10120826
0.01483276 -0.92985053 0.11501620
0.03230754 -0.90955645 0.12522003
0.05184129 -0.88719167 0.13630955
0.07199366 -0.86411863 0.14775027
0.09146280 -0.84182781 0.15880311
0.11083762 -0.82205950 0.16605467
0.13193596 -0.80188245 0.17185599
0.15391792 -0.78086042 0.17790026
0.17335570 -0.76227144 0.18324498
0.20051534 -0.75113348 0.17590634
0.22777597 -0.73995415 0.16854041
0.25464560 -0.72893517 0.16128014
0.27994651 -0.72148766 0.14860762
0.30618330 -0.71457769 0.13384603
0.33163142 -0.70787542 0.11952817
0.35634840 -0.70136570 0.10562168
0.38508368 -0.69379764 0.08945437
0.41398259 -0.68618649 0.07319499
0.43828729 -0.68253191 0.05442140
0.45783106 -0.68037050 0.03788228
0.47910432 -0.67801780 0.01987958
0.50259542 -0.67541985 0.00000000
0.49039294 -0.64682028 0.00000000
0.47705156 -0.61803819 0.00000000
0.46219909 -0.58938171 0.00000000
0.44711907 -0.56028611 0.00000000
0.43466338 -0.53625399 0.00000000
0.42199442 -0.50695223 0.00000000
0.40936106 -0.47587015 0.00000000
0.39826563 -0.44857187 0.00000000
0.38812015 -0.41671655 0.00000000
0.38008588 -0.38478035 0.00000000
0.37192372 -0.35233574 0.00000000
0.36496608 -0.31949785 0.00000000
0.35986056 -0.29113373 0.00000000
0.35446270 -0.26114571 0.00000000
0.35120710 -0.23184222 0.00000000
0.35003794 -0.20144447 0.00000000
0.34889887 -0.17182895 0.00000000
0.34956442 -0.13632195 0.00000000
0.35236641 -0.10870229 0.00000000
0.32937541 -0.12161637 0.00728613
0.30041273 -0.13784646 0.01641757
0.27391555 -0.15256708 0.02461409
0.25011605 -0.16578902 0.03197613
0.22487320 -0.17981279 0.03978464
0.19783317 -0.19446945 0.04776746
0.17140707 -0.20862789 0.05539633
0.14305442 -0.22226891 0.06248983
0.11700020 -0.23346193 0.06806288
0.09008151 -0.24496347 0.07376972
0.05634897 -0.25769596 0.07955465
0.02289006 -0.27032517 0.08529266
-0.00930095 -0.28073721 0.08971448
-0.04120450 -0.29019296 0.09355123
-0.07077263 -0.29561074 0.09558059
-0.10408620 -0.30072260 0.09741431
-0.13855601 -0.30387252 0.09835010
-0.16985406 -0.30536629 0.09858568
-0.20071529 -0.30683920 0.09881796
-0.22938346 -0.30370494 0.09725459
-0.26198527 -0.29885109 0.09496716
-0.29579618 -0.29371235 0.09254435
-0.32755222 -0.28567813 0.08872259
-0.36364791 -0.27654597 0.08437857
-0.39691477 -0.26625324 0.07952187
-0.42623502 -0.25450369 0.07402371
-0.45364735 -0.24351868 0.06888332
-0.48187079 -0.23009164 0.06254021
-0.50975124 -0.21592472 0.05582602
-0.53288865 -0.20416789 0.05025405
-0.55487476 -0.19299605 0.04495933
-0.58486615 -0.17385981 0.03584390
-0.61269964 -0.15607310 0.02737105
-0.63902761 -0.13924839 0.01935646
-0.66748203 -0.11994716 0.01010609
-0.69740458 -0.09893130 0.00000000
-0.68351152 -0.12373626 0.00946545
-0.66804591 -0.15134897 0.02000233
-0.65646350 -0.17202853 0.02789355
-0.64489094 -0.19299171 0.03581098
-0.63428204 -0.21700708 0.04359340
-0.62242314 -0.24385202 0.05229278
-0.61049227 -0.27085999 0.06104500
-0.59888273 -0.29797149 0.06958771
-0.59036886 -0.32731449 0.07615082
-0.58182941 -0.35674574 0.08273365
-0.57271570 -0.38815620 0.08975918
-0.56392764 -0.41989295 0.09645605
-0.55789379 -0.45503183 0.10033905
-0.55213591 -0.48856356 0.10404446
-0.54670630 -0.52018387 0.10753864
-0.54145538 -0.55076332 0.11091781
-0.54103188 -0.58439543 0.10979215
-0.54087749 -0.61659571 0.10848724
-0.54072266 -0.64888329 0.10717878
-0.54056980 -0.68076656 0.10588671
-0.54480499 -0.71010101 0.10157715
-0.55371138 -0.74005024 0.09390918
-0.56240223 -0.76927459 0.08642679
-0.57050051 -0.79650622 0.07945459
-0.57876047 -0.82428167 0.07234314
-0.58764287 -0.85415017 0.06469582
-0.59508100 -0.87679948 0.05840921
-0.60690038 -0.89889529 0.04910915
-0.61912982 -0.92175759 0.03948647
-0.63126759 -0.94444865 0.02993586
-0.64293893 -0.96626759 0.02075232
-0.65602442 -0.99073019 0.01045607
-0.66931298 -1.01557252 0.00000000
-0.65378832 -1.00172904 0.00891059
-0.63425662 -0.98431246 0.02012103
-0.61537016 -0.96747122 0.03096116
-0.59281951 -0.94736254 0.04390440
-0.56953364 -0.92659828 0.05726962
-0.54707639 -0.90697251 0.06989819
-0.51863661 -0.88868641 0.08159919
-0.49374150 -0.87267951 0.09184179
-0.46802902 -0.85669937 0.10215723
-0.43570257 -0.85229164 0.10764478
-0.39824196 -0.84718392 0.11400388
-0.36556294 -0.85150689 0.11458723
-0.33184902 -0.85765610 0.11423383
-0.30740070 -0.87160693 0.10899450
-0.28040147 -0.88718839 0.10311665
-0.25362141 -0.90264343 0.09728650
-0.23304652 -0.92119894 0.08869808
-0.21151341 -0.94117143 0.07936965
-0.18922525 -0.96184436 0.06971414
-0.16777454 -0.98304747 0.05953036
-0.14895863 -1.00713241 0.04685723
-0.13014273 -1.03121727 0.03418410
-0.11215323 -1.05424439 0.02206758
-0.09406323 -1.07740018 0.00988337
-0.12297726 -0.82400000 0.10511329
-0.32145668 -0.31601549 0.09841105
-0.31983425 -0.34692878 0.10768453
-0.31968581 -0.37789892 0.11654727
-0.31963834 -0.40886949 0.12494539
-0.31969376 -0.43984006 0.13284346
-0.31972925 -0.47081065 0.13841341
-0.31973233 -0.50178127 0.14407777
-0.31973237 -0.53275189 0.14873416
-0.31973237 -0.56372252 0.15053814
-0.31973236 -0.59469314 0.15267347
-0.31973153 -0.62566376 0.15356362
-0.31972082 -0.65663438 0.15282111
-0.31970110 -0.68760499 0.15177860
-0.31971444 -0.71857561 0.14971967
-0.31973027 -0.74954622 0.14434399
-0.31973008 -0.78051685 0.13811531
-0.31957636 -0.81148668 0.13073918
-0.31720210 -0.84232837 0.12003234
-0.13026294 -0.33337277 0.10767006
-0.12847958 -0.36403158 0.11732025
-0.12714594 -0.39472953 0.12601124
-0.12449386 -0.42534366 0.13121068
-0.12162277 -0.45593911 0.13523635
-0.11935063 -0.48658356 0.13920158
-0.11832005 -0.51729330 0.14253535
-0.11863122 -0.54801943 0.14321159
-0.12013676 -0.57871035 0.14084939
-0.12289902 -0.60931402 0.13890301
-0.12608394 -0.63987805 0.13787070
-0.12796144 -0.67054631 0.13545626
-0.12840080 -0.70127140 0.13023674
-0.12737819 -0.73197969 0.12561184
-0.12483935 -0.76260382 0.12110989
-0.12297147 -0.79327255 0.11279229
-0.11518453 -0.85378970 0.09637905
-0.10838297 -0.88382143 0.08648874
-0.10135522 -0.91380061 0.08013598
-0.09363266 -0.94360939 0.06948534
-0.08617262 -0.97348341 0.05833960
-0.08141118 -1.00387961 0.04497017
-0.08109823 -1.03465663 0.03211507
-0.08118420 -1.06544399 0.01657353
0.33150614 -0.13169524 0.00750984
0.31148710 -0.15542766 0.01755943
0.29065753 -0.17844600 0.03009972
0.26865535 -0.20035022 0.04355584
0.24633623 -0.22193384 0.05899457
0.22453475 -0.24403741 0.07491780
0.20391995 -0.26724798 0.09073623
0.18447307 -0.29144934 0.10731766
0.16605136 -0.31643806 0.12278108
0.14866777 -0.34216288 0.13806039
0.13113968 -0.36778905 0.15164374
0.11302775 -0.39300708 0.16297063
0.09512934 -0.41837614 0.17266213
0.07789644 -0.44420258 0.18102461
0.06037094 -0.46982983 0.18689514
0.04190751 -0.49478954 0.18947909
0.02266188 -0.51915252 0.18866708
0.00333235 -0.54344910 0.18619797
-0.01484831 -0.56860961 0.18229838
-0.03131173 -0.59492878 0.17672298
-0.04706157 -0.62168580 0.16941493
-0.06229964 -0.64873560 0.16140191
-0.07613308 -0.67652455 0.15177486
-0.08745093 -0.70541825 0.14166977
-0.09543835 -0.73540585 0.13226948
-0.10182821 -0.76578896 0.12276851
-0.11052607 -0.79556884 0.11452611
-0.34440423 -0.83099651 0.12331306
0.44394143 -0.64421796 0.04497497
0.33546009 -0.15381731 0.00760459
0.46595825 -0.65650364 0.02570923
-0.61162361 -0.94036463 0.03836226
-0.59429172 -0.92255528 0.04898131
-0.56078889 -0.87551514 0.07256492
-0.63167594 -0.17202061 0.02772058
-0.56516541 -0.24046817 0.05625735
-0.05935997 -1.01251323 0.05154493
-0.04863372 -0.96237273 0.08033469
0.33158811 -0.65753172 0.14696202
0.42256810 -0.66063799 0.06596914
0.32489095 -0.17572239 0.01625250
0.46353651 -0.63497286 0.02196894
0.45271366 -0.61247516 0.02355194
-0.57779903 -0.89938607 0.06044291
-0.61783615 -0.19539108 0.03558990
-0.55379054 -0.21808250 0.05292032
-0.06162146 -0.98581189 0.06343530
-0.03103779 -0.97314820 0.08148864
-0.02286151 -0.94996787 0.09526089
0.33821613 -0.68269789 0.12596216
0.42780799 -0.58875062 0.05307885
-0.58481949 -0.20685689 0.04410937
-0.53044683 -0.24402698 0.06436784
-0.04334521 -0.99388444 0.06739170
0.36800943 -0.66139532 0.11237415
0.30234627 -0.67868905 0.15783246
-0.52835669 -0.22389460 0.05785590
0.34906455 -0.66638484 0.12535351
0.35197303 -0.63896717 0.13918855
0.31911241 -0.69115149 0.13672726
-0.52326533 -0.82566910 0.09517031
-0.48680172 -0.70350233 0.12850333
-0.27345084 -0.84396189 0.11862449
-0.14492906 -0.93848306 0.07184288
-0.17583388 -0.85374096 0.10873507
-0.26071958 -0.73409108 0.14435138
-0.26072340 -0.64112867 0.15237212
-0.37873295 -0.76503190 0.13816368
-0.09192586 -0.62798953 0.14755531
-0.10951183 -0.71601356 0.12963942
-0.10619203 -0.68622329 0.13684529
-0.11274821 -0.74618412 0.12298940
-0.11543396 -1.00033405 0.04349450
-0.48582329 -0.52546996 0.13276740
-0.26072801 -0.48630183 0.14160171
-0.06749628 -0.40498407 0.13141084
-0.26065939 -0.39329376 0.12170381
-0.37866476 -0.39347465 0.11981181
-0.08118788 -0.34589944 0.11301057
-0.35199013 -0.30636937 0.09431814
-0.28703286 -0.32970804 0.10397909
-0.31395949 -0.29872806 0.09337025
-0.30097065 -0.31463045 0.09886913
-0.46086896 -0.30123499 0.08902463
-0.18278817 -0.35841085 0.11318708
-0.15328347 -0.32392847 0.10434232
-0.17990361 -0.33101503 0.10584557
-0.12019446 -0.31462654 0.10188648
-0.10456679 -0.33509704 0.10880253
-0.10244307 -0.36120074 0.11722896
-0.08307585 -0.31928553 0.10386565
-0.07581095 -0.37578214 0.12302034
-0.09311478 -1.05001687 0.02256963
-0.10528250 -1.02811741 0.03238311
-0.05456967 -0.85584778 0.12892576
-0.02674601 -0.71253327 0.18177452
-0.07186729 -0.56569582 0.15514776
0.19284768 -0.69360902 0.21957175
-0.03329081 -0.49447572 0.16047158
0.18872468 -0.38836911 0.16714089
0.07404032 -0.34589265 0.13084135
0.11149902 -0.29831015 0.10807991
0.16516475 -0.25602033 0.08495519
0.19793091 -0.22639267 0.06703517
0.25844630 -0.29491637 0.08931875
0.24361720 -0.19679050 0.04709027
0.22100893 -0.21195408 0.05727260
0.26996139 -0.17348012 0.03233668
0.29231922 -0.15901605 0.02331424
0.30890744 -0.21877993 0.03448100
-0.35169886 -0.79616082 0.13258800
-0.55945392 -0.84627811 0.07824340
-0.59349569 -0.24721245 0.05301611
-0.05658765 -0.91810741 0.09875247
-0.07153733 -0.95396028 0.07402748
-0.05356410 -0.94041139 0.08918633
-0.07456087 -0.93165630 0.08337132
-0.03229305 -0.92617094 0.10420444
-0.00889225 -0.93008682 0.10907891
-0.03301277 -0.88770901 0.12316280
0.00268894 -0.90172315 0.12570870
-0.03943778 -0.90706694 0.11154399
-0.01768625 -0.90982009 0.11677175
-0.06365921 -0.88828248 0.10907234
-0.56016085 -0.89395875 0.06826334
-0.53997906 -0.88675197 0.07738439
-0.52657707 -0.85759100 0.08812856
0.41701450 -0.56064520 0.05519941
0.41116304 -0.62367202 0.07934436
-0.60789061 -0.22002204 0.04356164
-0.54352616 -0.29781643 0.07652189
0.36680453 -0.68273000 0.10441437
0.39386500 -0.66847061 0.09011930
0.25421058 -0.68075704 0.19787480
0.28789006 -0.69838407 0.15538179
0.27812108 -0.67606064 0.18039783
0.26397956 -0.70308047 0.17123278
0.29459391 -0.63718797 0.19792638
0.22910034 -0.70504478 0.19409617
0.29221574 -0.65910682 0.18214800
0.31157386 -0.65011871 0.17219183
0.25865548 -0.64437713 0.22485883
0.32888917 -0.63409397 0.16675817
0.26321707 -0.66339596 0.20484216
0.23543880 -0.66000201 0.23038334
0.34971514 -0.59255302 0.16811070
0.34475338 -0.61605639 0.16226492
0.37815790 -0.61812286 0.12586561
0.30666328 -0.59573982 0.21192338
0.32229439 -0.61229866 0.18614967
0.30113833 -0.61661233 0.20521567
0.26413616 -0.59565039 0.24771928
0.27499303 -0.61962498 0.22659505
-0.55082534 -0.81747320 0.08622462
-0.49557426 -0.84105444 0.09961605
-0.50421811 -0.77067317 0.11091526
-0.37871373 -0.67215725 0.15272046
-0.51666927 -0.69919018 0.11880015
-0.29465198 -0.82508018 0.12500689
-0.29563423 -0.85138809 0.11678261
-0.27864261 -0.86529914 0.11154308
-0.25726755 -0.87803198 0.10746573
-0.21899952 -0.88493845 0.10059574
-0.23929953 -0.88794586 0.10224824
-0.23360294 -0.85638163 0.11189988
-0.16338845 -0.95715800 0.06878254
-0.13612267 -0.97509354 0.05582736
-0.17888533 -0.92337937 0.08335559
-0.14419369 -0.95767057 0.06445185
-0.11745949 -0.95586710 0.06145215
-0.17913014 -0.94393581 0.07575686
-0.13466691 -0.90579626 0.08312745
-0.14550281 -0.84580660 0.10447804
-0.18233305 -0.78149671 0.12876663
-0.28410819 -0.70310563 0.14864499
-0.29225303 -0.73407496 0.14602145
-0.18271967 -0.61852838 0.14569211
-0.26072959 -0.57920781 0.15124746
-0.28414228 -0.61017749 0.15234953
-0.29225685 -0.64113957 0.15322813
-0.35533278 -0.73404271 0.14536428
-0.11179435 -0.62591914 0.14139936
-0.10406609 -0.64812399 0.14176196
-0.09965413 -0.60578468 0.14542819
-0.08316194 -0.64700105 0.15066911
-0.07178473 -0.60853221 0.15722998
-0.13049895 -1.01210333 0.04176905
-0.09724308 -0.99078859 0.04761374
-0.37873515 -0.57920784 0.15251089
-0.37873357 -0.48629009 0.14204620
-0.51695846 -0.53081630 0.12238701
-0.28413721 -0.51726663 0.14629104
-0.17701263 -0.53206355 0.14340168
-0.18134635 -0.44611117 0.13233113
-0.28413990 -0.45536612 0.13730618
-0.29226147 -0.48629870 0.14151442
-0.09866676 -0.40768434 0.12998491
0.02031067 -0.42362802 0.15573433
-0.29219279 -0.39334210 0.12166684
-0.35518132 -0.42429122 0.12824730
-0.34713136 -0.39342631 0.12018190
-0.33406168 -0.30276710 0.09377769
-0.34350925 -0.33267210 0.10249434
-0.44968432 -0.27332449 0.08024762
-0.21907838 -0.34212420 0.10833992
-0.15764745 -0.38067670 0.12034798
-0.04463567 -0.32993253 0.10916872
-0.09926303 -1.01017177 0.03866665
-0.08514717 -0.86277294 0.10522357
0.01796054 -0.83726245 0.16182953
-0.05130472 -0.79670557 0.14968620
-0.05616480 -0.70100974 0.16214135
0.08294707 -0.77177609 0.19913277
0.01178872 -0.63831264 0.20631161
-0.09810354 -0.56440880 0.14658665
-0.10036957 -0.58504087 0.14638997
-0.08327330 -0.53015034 0.15005888
-0.09852537 -0.54388701 0.14603911
-0.04345348 -0.56902499 0.16752677
0.07869912 -0.54363628 0.22076588
0.17409139 -0.72538237 0.20335992
-0.00855268 -0.51415653 0.17416834
-0.07423925 -0.46783231 0.14362836
0.18704417 -0.34935988 0.14288577
0.16263280 -0.37052248 0.15622592
0.15240968 -0.43979024 0.19571304
0.09971664 -0.36433373 0.14485492
0.13623304 -0.31502419 0.12030193
0.11496344 -0.26594659 0.08833172
0.13909772 -0.24897880 0.07927974
0.18220247 -0.26971090 0.09371080
0.19077368 -0.24830849 0.08045596
0.15726051 -0.28330392 0.10198070
0.18939301 -0.21045705 0.05710943
0.30996400 -0.31475663 0.06750897
0.25995502 -0.25717004 0.07071429
0.22109505 -0.30096285 0.10621501
0.33251888 -0.21733965 0.01667934
0.32948051 -0.19638886 0.01636521
0.32262383 -0.24938279 0.03170105
0.29223161 -0.20202951 0.03695432
0.27832677 -0.23090714 0.05326250
-0.33193477 -0.79606272 0.13400952
-0.34191832 -0.77566114 0.13808751
-0.36263882 -0.77835827 0.13608101
-0.35489956 -0.75687416 0.14094366
-0.39607424 -0.80235636 0.12746265
-0.37410845 -0.79766922 0.13079691
-0.37962764 -0.82561786 0.12227817
-0.57187157 -0.27517279 0.06468915
-0.58301700 -0.22835486 0.04976372
-0.04857884 -0.87501764 0.12298715
-0.01968081 -0.85546560 0.14387570
-0.08687297 -0.89459235 0.09231514
-0.51267114 -0.87060154 0.08787485
-0.54631624 -0.86152697 0.08095418
0.43219175 -0.57094185 0.03319216
0.42373446 -0.64003576 0.06557805
0.40013712 -0.64515352 0.09089270
-0.57118219 -0.30584083 0.07329164
0.23643661 -0.72280290 0.17575805
0.21339208 -0.72192865 0.18942461
0.23151519 -0.68241724 0.21216848
0.20592185 -0.66638631 0.23601687
0.21331139 -0.69191713 0.21331792
0.37420095 -0.64002112 0.11838965
0.39272573 -0.58609821 0.10747526
0.35180682 -0.48335915 0.12094586
0.22244417 -0.61563256 0.26426950
0.28538968 -0.60047131 0.22921742
0.28394737 -0.55757033 0.22917235
0.27903883 -0.57921009 0.23941291
0.24026674 -0.55903885 0.25387187
0.25700581 -0.57421235 0.24983027
0.23019455 -0.58697011 0.26655954
-0.54133910 -0.83600964 0.08706326
-0.48605666 -0.85636851 0.09791702
-0.53312038 -0.76207811 0.10191155
-0.34718028 -0.67213718 0.15250162
-0.50648487 -0.73424211 0.11667859
-0.49550119 -0.65816521 0.12925730
-0.24807947 -0.79413028 0.13171979
-0.14963683 -0.98826998 0.05377540
-0.20560009 -0.91320197 0.08918310
-0.11599779 -0.90141983 0.08134638
-0.12968231 -0.88505188 0.08954291
-0.12098239 -0.92216421 0.07461325
-0.16505592 -0.88752313 0.09601244
-0.12809351 -0.84125248 0.10142342
-0.15686678 -0.80862988 0.11641568
-0.16077757 -0.75016591 0.12958014
-0.30527592 -0.70309651 0.14976085
-0.29468158 -0.67876954 0.15077558
-0.31035247 -0.73406571 0.14690767
-0.29291702 -0.76503137 0.14001169
-0.18671612 -0.68507182 0.14194995
-0.16336752 -0.65298717 0.14108103
-0.15160019 -0.62177118 0.14106710
-0.29226304 -0.57920782 0.15122479
-0.30530600 -0.61017806 0.15302235
-0.31035629 -0.64114583 0.15348775
-0.33416065 -0.73405353 0.14660639
-0.34473427 -0.70970412 0.15047542
-0.10885348 -0.66696582 0.13845674
-0.07094493 -0.62955467 0.15725785
-0.05184134 -0.60085843 0.16638764
-0.06858035 -0.58710776 0.15836007
-0.11446451 -0.97744577 0.05208596
-0.34720169 -0.57920783 0.15209532
-0.35533237 -0.51726654 0.14690355
-0.34720012 -0.48629323 0.14151577
-0.53482930 -0.53388498 0.11394284
-0.30530314 -0.51726660 0.14631798
-0.29472021 -0.54159304 0.14925439
-0.14572811 -0.53238037 0.14268130
-0.15523858 -0.47383803 0.13653697
-0.30529629 -0.45534187 0.13620797
-0.29469025 -0.43105461 0.13139703
-0.31036090 -0.48629689 0.14124755
-0.11655786 -0.40923423 0.12937185
-0.09676994 -0.43817447 0.13449486
-0.08415499 -0.39394262 0.12751340
-0.10581024 -0.38560722 0.12439364
0.02316826 -0.46161874 0.17052385
0.05706273 -0.41163850 0.16045246
-0.31029220 -0.39336984 0.12102645
-0.29283133 -0.36228478 0.11309304
-0.33404775 -0.42432904 0.12885767
-0.34465790 -0.44854489 0.13376793
-0.32903195 -0.39339857 0.12049277
-0.39785956 -0.33567784 0.10207829
-0.34536306 -0.36253656 0.11129209
-0.47982404 -0.26216555 0.07459092
-0.19766910 -0.34299423 0.10893186
-0.20945901 -0.36926471 0.11560145
-0.21675910 -0.32091042 0.10246875
-0.24518845 -0.32853594 0.10406155
-0.13878183 -0.37985710 0.12188551
-0.14901119 -0.36193180 0.11567840
-0.14741809 -0.39860199 0.12537401
-0.18458381 -0.40792979 0.12511938
-0.14746146 -0.34251578 0.11001319
-0.05300369 -0.30919211 0.10083981
-0.02838515 -0.31131771 0.10253197
-0.00104693 -0.35158431 0.12255667
-0.02000004 -0.33503847 0.11323155
-0.03946539 -0.36697161 0.12373284
0.01525663 -0.31378050 0.10701671
-0.02157893 -0.35597531 0.12187179
-0.00966769 -0.39539512 0.13800462
-0.00717420 -0.37313220 0.13001799
-0.00681747 -0.31703611 0.10669364
0.02551931 -0.38806504 0.14189817
-0.06574500 -0.33143001 0.10868127
-0.05909700 -0.35400088 0.11700094
-0.10269791 -0.86674782 0.09314406
-0.08422328 -0.82402996 0.11861598
0.04145289 -0.85778105 0.15197316
-0.08076117 -0.78810219 0.13066656
-0.07305047 -0.69439551 0.15160348
-0.06852425 -0.72651706 0.15112183
-0.04741022 -0.67348525 0.16944707
0.07678972 -0.80806806 0.17886799
0.10349080 -0.79325785 0.18327123
-0.01545456 -0.62227657 0.18865880
0.03863950 -0.58811042 0.21406472
-0.09248090 -0.50105401 0.14502671
-0.05451619 -0.54052537 0.15983020
0.05389339 -0.52404090 0.20433961
0.18172076 -0.74398640 0.18927118
0.15645220 -0.74348246 0.19886824
0.13078895 -0.70082761 0.22837300
0.14921796 -0.71878737 0.21492071
0.16749319 -0.70006462 0.22151734
0.11128265 -0.73927873 0.21221866
0.17260871 -0.66713801 0.24056395
0.12704688 -0.72310260 0.21741040
0.09329630 -0.70598089 0.23209656
0.00564640 -0.52545283 0.18280772
0.01126242 -0.49036440 0.17551402
-0.09990117 -0.46973502 0.13908509
0.16941521 -0.33744709 0.13589235
0.19197620 -0.32306093 0.12570108
0.14765670 -0.36027894 0.14901803
0.14451234 -0.39650661 0.16973101
0.11567114 -0.45074544 0.19404970
0.11445422 -0.37491846 0.15324174
0.11827396 -0.34018138 0.13364111
0.08188890 -0.39003635 0.15558602
0.10780452 -0.24919155 0.07745328
0.09474396 -0.26467885 0.08613723
0.17214770 -0.23283277 0.07071660
0.13721209 -0.27194445 0.09380855
0.13823050 -0.29351859 0.10743749
0.33810604 -0.30969108 0.03358128
0.24520455 -0.24262117 0.06912676
0.23644069 -0.26625833 0.08322287
0.25365027 -0.27582136 0.08248930
0.28851296 -0.27721481 0.06570788
0.20492395 -0.28796864 0.10262621
0.34131043 -0.24777433 0.01285577
0.33367648 -0.26843724 0.02583470
0.31039208 -0.26921069 0.04838731
0.29740304 -0.24751099 0.04968997
0.30630624 -0.29194727 0.06075351
0.28291335 -0.30208905 0.08086238
0.25701500 -0.34511538 0.11707819
0.26431803 -0.32020370 0.09971603
0.24205455 -0.31204792 0.10506487
0.28997782 -0.34125235 0.09680111
0.21957514 -0.32919418 0.12298930
0.28425322 -0.32206617 0.09025031
0.26456625 -0.21845343 0.05277730
-0.36276654 -0.83322272 0.12102978
-0.57636332 -0.25630458 0.05837597
-0.55324974 -0.26077094 0.06418792
-0.59184056 -0.27891449 0.06404694
-0.56057709 -0.33462492 0.08239271
-0.56070975 -0.29026365 0.07078490
0.41089466 -0.57912069 0.07748434
0.39444040 -0.56341905 0.09971143
0.40902966 -0.60140840 0.08309281
0.40205939 -0.53218072 0.06804351
0.36875255 -0.57288130 0.15032592
0.37960119 -0.47206208 0.06050058
0.21601062 -0.64160439 0.25129893
0.24854340 -0.61993485 0.24870511
0.18201822 -0.55381574 0.25837144
-0.54182706 -0.78982225 0.09417810
-0.32908085 -0.67212565 0.15245413
-0.34656407 -0.64115834 0.15334204
-0.50362078 -0.71440443 0.12105748
-0.52497155 -0.71951326 0.11226981
-0.48320377 -0.72747775 0.12533863
-0.52711204 -0.74116592 0.10780144
-0.48886708 -0.75143198 0.11911724
-0.43932668 -0.70863552 0.14043439
-0.45988578 -0.79029815 0.11963963
-0.46373780 -0.71229885 0.13437540
-0.47947665 -0.77466814 0.11760048
-0.45192508 -0.74751929 0.13029514
-0.45728580 -0.67212754 0.14229326
-0.49690639 -0.80400186 0.10680331
-0.44905630 -0.72696595 0.13519026
-0.41205852 -0.74260688 0.13828510
-0.47108301 -0.74298994 0.12626562
-0.45847044 -0.76843140 0.12456543
-0.42519038 -0.78156466 0.12786553
-0.46878013 -0.69088520 0.13664721
-0.47883330 -0.67182423 0.13488246
-0.46762561 -0.64114836 0.13946978
-0.50066996 -0.68147187 0.12646274
-0.47934264 -0.79459290 0.11377423
-0.47606822 -0.82180292 0.10881487
-0.52033290 -0.66488470 0.11882808
-0.51464833 -0.63664964 0.12196622
-0.26730432 -0.81571672 0.12667895
-0.22311228 -0.90419629 0.09428366
-0.12651298 -0.93977788 0.06846654
-0.18538090 -0.90027904 0.09212731
-0.13643832 -0.80863374 0.11126471
-0.14664830 -0.78609919 0.11886204
-0.16544008 -0.79115902 0.12270472
-0.16081149 -0.77092376 0.12555206
-0.18964254 -0.81387461 0.12252135
-0.14006175 -0.74844850 0.12485449
-0.15236390 -0.72585536 0.13076654
-0.19315038 -0.72535074 0.13922823
-0.17284098 -0.73237965 0.13472302
-0.17001220 -0.70586131 0.13718427
-0.19176333 -0.75419855 0.13476798
-0.25831918 -0.67743600 0.15048308
-0.29344952 -0.79506545 0.13300009
-0.27649439 -0.74989829 0.14248596
-0.26794773 -0.77565082 0.13687606
-0.14196032 -0.65429771 0.13855661
-0.15421703 -0.67901204 0.13668032
-0.13373836 -0.62363247 0.13891845
-0.14761688 -0.59165651 0.14103680
-0.31036248 -0.57920782 0.15148025
-0.38101006 -0.70838434 0.14874538
-0.09031932 -0.66430351 0.14648291
-0.32910225 -0.57920783 0.15186412
-0.34656137 -0.54823720 0.14950157
-0.34656175 -0.61017917 0.15384996
-0.33416446 -0.51726657 0.14701827
-0.32910068 -0.48629503 0.14140594
-0.25839339 -0.54293149 0.14856760
-0.12777155 -0.53256222 0.14274203
-0.14416093 -0.50278832 0.14016284
-0.13448483 -0.47229923 0.13646046
-0.14660675 -0.44953314 0.13341704
-0.16485476 -0.45673763 0.13399549
-0.16274891 -0.43535932 0.13072994
-0.19334525 -0.48284288 0.13926576
-0.25824583 -0.42968400 0.13071069
-0.08173006 -0.42193476 0.13334541
-0.07394922 -0.44422492 0.13906052
-0.03770785 -0.45647563 0.15065498
-0.05781560 -0.45622860 0.14555734
-0.05316630 -0.48023383 0.15152808
-0.04741005 -0.42772621 0.14006850
-0.07313371 -0.49005834 0.14771867
0.03993782 -0.47402368 0.18072747
0.04545457 -0.44902849 0.17320976
0.02691665 -0.44223396 0.16491373
0.04275965 -0.42769488 0.16378286
-0.00664729 -0.44367503 0.15560257
0.03584615 -0.40713750 0.15271853
0.05132620 -0.38642380 0.14690021
0.03620484 -0.35237007 0.12799879
0.03746561 -0.37219437 0.13699130
0.05964481 -0.36445544 0.13774374
0.01733543 -0.36352235 0.12984839
0.07461889 -0.42335299 0.17062977
-0.31074794 -0.36237065 0.11247312
-0.27645036 -0.37748321 0.11759267
-0.24592560 -0.36278722 0.11353311
-0.26927983 -0.35332779 0.11106025
-0.30037882 -0.34413695 0.10767395
-0.38106467 -0.44993157 0.13397060
-0.37107884 -0.32704283 0.09988495
-0.42004067 -0.30139993 0.09055838
-0.36292323 -0.37702681 0.11514816
-0.36857547 -0.35229171 0.10767630
-0.38719012 -0.36955870 0.11269696
-0.42849021 -0.39775851 0.11988972
-0.40413964 -0.38907822 0.11836676
-0.41739437 -0.36044995 0.10973890
-0.40529951 -0.42431960 0.12760023
-0.39412398 -0.40704764 0.12337316
-0.38237593 -0.42690047 0.12856941
-0.46982780 -0.28144862 0.08196284
-0.50693868 -0.28845417 0.08087507
-0.48545807 -0.30044704 0.08700182
-0.51587678 -0.32969690 0.09114067
-0.50512396 -0.31043735 0.08803333
-0.52660821 -0.31107394 0.08381817
-0.47889849 -0.33771081 0.09913118
-0.54636071 -0.31885690 0.08149031
-0.53720820 -0.34140148 0.08922289
-0.47370012 -0.31758651 0.09325091
-0.44336780 -0.33615530 0.10124637
-0.55549399 -0.36077782 0.08965694
-0.50592916 -0.37311667 0.10420033
-0.51706658 -0.35281889 0.09667340
-0.53260390 -0.37454869 0.09812615
-0.49463720 -0.35371630 0.10159876
-0.46646579 -0.38309985 0.11315187
-0.48476569 -0.37244842 0.10826410
-0.49418258 -0.40967325 0.11558601
-0.46414519 -0.35806694 0.10629236
-0.44145972 -0.37279395 0.11222463
-0.46180121 -0.25976920 0.07461494
-0.24697589 -0.30995278 0.09861282
-0.26655948 -0.32073250 0.10153429
-0.18832454 -0.38300212 0.11926451
-0.21416043 -0.39962365 0.12293665
-0.16703414 -0.34621985 0.11047930
-0.05423325 -0.38542300 0.12765753
-0.03151641 -0.38846924 0.13151154
-0.02727998 -0.41303025 0.13996135
-0.04656610 -0.40489849 0.13427508
-0.02672518 -0.43492495 0.14725758
-0.00364011 -0.41902721 0.14750684
0.01162670 -0.40419322 0.14580016
-0.10359373 -0.81554684 0.11042112
-0.10147543 -0.83706678 0.10285649
0.01048391 -0.86953051 0.14359501
-0.07036461 -0.80723473 0.13326190
-0.05927211 -0.83050315 0.13468670
-0.07598745 -0.84360887 0.11848369
-0.03730184 -0.83953535 0.14427328
-0.01013158 -0.82719208 0.16079229
-0.04708956 -0.72115512 0.16676687
-0.04902559 -0.75893992 0.15941956
-0.02661837 -0.74114603 0.17789102
-0.03579963 -0.69233269 0.17700984
0.00721174 -0.68518475 0.20505679
-0.01771215 -0.66819030 0.18981926
-0.01335595 -0.69440289 0.19193409
0.01136472 -0.72666993 0.20326621
0.00437897 -0.70641879 0.20172631
0.04645271 -0.70323565 0.22346283
0.02583355 -0.71034836 0.21270706
0.04933856 -0.74575918 0.21196700
0.03288557 -0.73117385 0.21333724
0.01364262 -0.76945344 0.19368009
0.02834538 -0.75286798 0.20473073
0.04764596 -0.78478728 0.19313880
0.09097519 -0.82197117 0.16924109
0.06674965 -0.83250037 0.16529042
0.08463082 -0.79073007 0.18778708
-0.03109155 -0.61307226 0.17825159
-0.00096409 -0.59560336 0.19346454
-0.09912358 -0.51916115 0.14581604
-0.07289388 -0.54642249 0.15388805
-0.02557780 -0.54170780 0.17278722
0.03965550 -0.51279363 0.19426539
0.03412753 -0.54811144 0.20202939
0.07356532 -0.49889892 0.20352680
0.10983933 -0.76662232 0.19730737
0.18945634 -0.67522937 0.23463282
0.18899112 -0.65461249 0.24760820
0.15693729 -0.62966477 0.25890456
-0.01106028 -0.49192059 0.16794190
-0.00147934 -0.46847235 0.16481019
-0.02436133 -0.47418102 0.15892023
0.12975374 -0.38590678 0.16179788
0.12584753 -0.42105009 0.18064872
0.09823260 -0.43910943 0.18406259
0.09381472 -0.46461568 0.19503291
0.13116742 -0.49931968 0.22122941
0.11704511 -0.47706606 0.20725271
0.11542490 -0.31915865 0.12078352
0.08306170 -0.31445892 0.11481192
0.09698467 -0.33236214 0.12633087
0.09660923 -0.40042185 0.16388811
0.33086440 -0.35016501 0.06071335
0.33901660 -0.28872858 0.02530603
0.28028588 -0.25857025 0.06256492
0.24013170 -0.33283581 0.11756505
0.22317721 -0.36870140 0.14573115
0.41735065 -0.54230767 0.04119478
0.37171654 -0.54132843 0.13158357
0.36529008 -0.44153087 0.06305675
0.39096348 -0.50145634 0.06390259
0.24483870 -0.60040791 0.26229579
0.23740511 -0.63846851 0.24563878
0.21045708 -0.56407097 0.26432974
-0.53300443 -0.80798295 0.09466237
-0.51826200 -0.78959754 0.10313835
-0.36295708 -0.65632781 0.15290458
-0.37611474 -0.62566654 0.15337194
-0.38676185 -0.64838933 0.15290731
-0.42468598 -0.61676357 0.14882908
-0.41799979 -0.67221345 0.14855968
-0.40156979 -0.62759501 0.15174890
-0.39836623 -0.66556528 0.15129732
-0.41529920 -0.64787364 0.14961462
-0.40056604 -0.69138403 0.14935568
-0.39061879 -0.60318136 0.15312115
-0.43761119 -0.65771777 0.14631427
-0.42264380 -0.69394915 0.14584947
-0.40576908 -0.71711733 0.14419032
-0.43765855 -0.67937716 0.14514199
-0.42578866 -0.72569831 0.13909899
-0.49072964 -0.63464141 0.13153150
-0.46678110 -0.59387891 0.14091634
-0.50573540 -0.59936170 0.12680149
-0.47340630 -0.61740281 0.13788709
-0.50404671 -0.61947454 0.12672616
-0.44895504 -0.62402672 0.14446287
-0.48560342 -0.60127275 0.13439463
-0.48962412 -0.56338270 0.13370680
-0.43321197 -0.63748127 0.14734116
-0.44289462 -0.60009918 0.14642288
-0.41601175 -0.58900533 0.15052387
-0.44462771 -0.55778101 0.14582630
-0.45020648 -0.57920405 0.14506720
-0.46676845 -0.56345325 0.14086870
-0.46171138 -0.53714509 0.14020165
-0.24866253 -0.83456479 0.12070691
-0.14903399 -0.70513022 0.13249181
-0.22542942 -0.74136002 0.13931492
-0.21705119 -0.77821231 0.13232068
-0.27623930 -0.68522183 0.15021699
-0.25733721 -0.70421182 0.14757260
-0.27637307 -0.66039824 0.15220745
-0.17255551 -0.67083883 0.14087230
-0.19491466 -0.64804062 0.14543821
-0.16554025 -0.60460653 0.14348869
-0.17740670 -0.56930452 0.14373571
-0.18923633 -0.59292634 0.14632129
-0.36313141 -0.71616980 0.14833101
-0.36131895 -0.69192086 0.15135630
-0.38197955 -0.73503182 0.14408178
-0.36296842 -0.56338992 0.15084861
-0.37085617 -0.53839026 0.14853996
-0.38256995 -0.51351574 0.14608542
-0.36296841 -0.59502589 0.15365691
-0.27629452 -0.53514375 0.14817891
-0.27814665 -0.55939803 0.15058470
-0.25740846 -0.51619959 0.14514746
-0.16121340 -0.51672275 0.14236307
-0.18546822 -0.50754920 0.14225630
-0.16652828 -0.49412369 0.13970614
-0.22218711 -0.50564729 0.14290453
-0.20346930 -0.49967956 0.14183239
-0.22074620 -0.47782861 0.13933626
-0.20491021 -0.52749824 0.14392902
-0.27620078 -0.43747582 0.13291889
-0.25723358 -0.45659955 0.13689143
-0.27632442 -0.41260789 0.12682107
-0.06133053 -0.51437165 0.15494803
-0.22663572 -0.36007768 0.11299603
-0.23312941 -0.38386693 0.11898326
-0.23912031 -0.41037559 0.12531484
-0.36313125 -0.44215045 0.13229346
-0.36299242 -0.46702687 0.13769807
-0.44042215 -0.29323241 0.08752275
-0.44386482 -0.31455867 0.09442650
-0.42243424 -0.27785888 0.08247275
-0.42262144 -0.32487382 0.09826440
-0.39211569 -0.30764539 0.09325234
-0.37014649 -0.41133934 0.12479490
-0.52804916 -0.27119141 0.07286453
-0.55252447 -0.38175136 0.09447308
-0.53147488 -0.40881994 0.10655079
-0.43583362 -0.35413194 0.10729710
-0.20645923 -0.42901259 0.12897039
0.02283303 -0.85539163 0.15257294
0.02181586 -0.88931441 0.13446155
-0.00102845 -0.84601597 0.15463832
-0.03240835 -0.81423150 0.15645546
-0.00631154 -0.79500111 0.17697714
-0.07489361 -0.75242205 0.14253922
-0.06157313 -0.77713428 0.14703412
0.00522083 -0.66133082 0.20389316
0.03767829 -0.67063187 0.22184232
-0.01201929 -0.64545785 0.19241762
-0.01034847 -0.72676679 0.19076258
-0.00344509 -0.75097206 0.19086219
0.05023100 -0.81143324 0.17805536
0.05898896 -0.85003151 0.15595453
0.04433887 -0.83306289 0.16548905
0.00614635 -0.61673882 0.20057124
0.03785252 -0.61997121 0.21923680
0.02041164 -0.60017587 0.20589369
0.01516579 -0.57244915 0.19843032
0.02007018 -0.53692790 0.19230231
0.05645568 -0.54629574 0.21245053
0.04689535 -0.56692517 0.21346128
0.08312787 -0.59324620 0.23584191
0.06155763 -0.58484031 0.22568091
0.06350630 -0.61171835 0.23172281
0.08035178 -0.56849138 0.22884150
0.12890074 -0.57558001 0.24651615
0.10722725 -0.55422189 0.23449008
0.05887983 -0.48803564 0.19378852
0.13041122 -0.77828421 0.18569941
0.14415359 -0.76142349 0.19175555
0.13212045 -0.74381645 0.20486394
0.18958235 -0.62127502 0.26626025
0.14768693 -0.41828966 0.18275223
0.18185711 -0.42205294 0.18781632
0.09575875 -0.48888570 0.20658068
0.09598531 -0.51898937 0.21841763
0.14926916 -0.47222431 0.21297393
0.34523542 -0.33185148 0.03272139
0.32426273 -0.33018915 0.05868878
0.32874046 -0.55320703 0.19425653
0.35964264 -0.46279772 0.09139794
0.32195044 -0.44140523 0.13386441
0.34360377 -0.44715531 0.10478407
0.34444885 -0.40579320 0.07428082
0.32589431 -0.47019915 0.15194354
0.33754071 -0.42634175 0.09766136
0.30184731 -0.40290664 0.12583235
0.31623581 -0.41989128 0.12226131
0.27810645 -0.44153532 0.16649254
0.30001137 -0.43571684 0.14788665
0.29620502 -0.46552916 0.17082254
0.38002900 -0.45324187 0.04201124
0.37154080 -0.49207097 0.09524145
0.34884227 -0.51678100 0.15476125
0.37221332 -0.51546915 0.11302460
0.21577511 -0.50476390 0.23610505
-0.35727939 -0.62566795 0.15360497
-0.45018400 -0.69333977 0.14120444
-0.48047158 -0.54515337 0.13601189
-0.45152479 -0.48537143 0.13722915
-0.21743606 -0.82911603 0.11904378
-0.20578826 -0.74041564 0.13809574
-0.21668825 -0.71843831 0.14249101
-0.19956791 -0.70367222 0.14239994
-0.23997649 -0.72268494 0.14383631
-0.22180464 -0.67456782 0.14671471
-0.23241316 -0.69818283 0.14631600
-0.21450475 -0.69203746 0.14537776
-0.19894504 -0.77195745 0.13199648
-0.20130104 -0.79447112 0.12822438
-0.22474213 -0.80142073 0.12819734
-0.24161823 -0.81444491 0.12596318
-0.24203544 -0.76771158 0.13798594
-0.22576989 -0.61585586 0.14899415
-0.39382812 -0.75148978 0.13918714
-0.41144896 -0.76450448 0.13396763
-0.43087973 -0.75408808 0.13263870
-0.42299172 -0.52247999 0.14433618
-0.24322282 -0.49949139 0.14277992
-0.23394822 -0.53044807 0.14510868
-0.20319614 -0.45929930 0.13514231
-0.22989691 -0.45158556 0.13442093
-0.19435243 -0.55050263 0.14491950
-0.24257763 -0.47338050 0.13954045
-0.40235107 -0.28785782 0.08654882
-0.38092089 -0.28931376 0.08783226
-0.50445973 -0.26388340 0.07368176
-0.51833241 -0.39123276 0.10561451
-0.18695587 -0.42735886 0.12890747
0.03598027 -0.87625409 0.14177919
0.01068505 -0.81334020 0.17324556
0.03071590 -0.81773450 0.17380654
0.02538732 -0.79417299 0.18514936
-0.08326823 -0.76936738 0.13372697
-0.03729588 -0.64500411 0.17601895
0.06018049 -0.64537862 0.23294813
0.10399405 -0.57917865 0.23994691
0.11603772 -0.61955186 0.24778517
0.11922702 -0.59661750 0.24720418
0.10017582 -0.60565713 0.24284757
0.08900735 -0.63440794 0.24148497
0.13981058 -0.61116883 0.25420834
0.16742704 -0.60277418 0.26297071
0.14453595 -0.53803810 0.24216446
0.19767890 -0.63809259 0.25754464
0.17692888 -0.63772459 0.25804620
0.20193605 -0.59470804 0.26967220
0.07477059 -0.52010895 0.21150969
0.09698927 -0.53807882 0.22544291
0.12075941 -0.53432175 0.23251865
0.12986913 -0.55395654 0.24263238
0.15597628 -0.56595915 0.25462779
0.13524234 -0.51957984 0.23196258
0.17505438 -0.51110351 0.23920383
0.15304435 -0.50545945 0.23054458
0.16957064 -0.48675024 0.22457737
0.19327756 -0.49420608 0.23311897
0.17457561 -0.45830560 0.20949365
0.22464027 -0.45662443 0.20258188
0.21389058 -0.47953083 0.22217127
0.25783837 -0.48893549 0.20995723
0.19965528 -0.45887483 0.21042062
0.23749134 -0.47663083 0.21055934
0.20976335 -0.43127662 0.18991383
0.18749104 -0.44204213 0.20036590
0.18674785 -0.47478613 0.22047865
0.23770872 -0.49924666 0.22518562
0.26026873 -0.46194135 0.19098272
0.23362585 -0.52937215 0.24365124
0.25980592 -0.51758089 0.22528117
0.11059768 -0.50382671 0.21730937
0.13142533 -0.46311922 0.20412543
0.34557347 -0.56949726 0.18248344
0.35035263 -0.54771681 0.17148569
0.32219950 -0.57680798 0.20205794
0.30677621 -0.55982656 0.21305904
0.30578184 -0.51677761 0.19555339
0.29735724 -0.53850817 0.21255454
0.28284990 -0.52038557 0.21392197
0.29031448 -0.49314897 0.19240810
0.26884207 -0.53940757 0.23102989
0.31270529 -0.45733858 0.15354308
0.32802645 -0.49809221 0.16807084
-0.46341210 -0.50992152 0.13729207
-0.24506592 -0.74739375 0.14108786
-0.20381491 -0.61026751 0.14823318
-0.22347807 -0.57893822 0.14853145
-0.21005514 -0.63167297 0.14748816
-0.23464506 -0.64038867 0.14938931
-0.24718179 -0.65846523 0.15130033
-0.43997599 -0.77029888 0.12770285
-0.43984451 -0.53643177 0.14409595
-0.41101513 -0.55410130 0.14868658
-0.40763698 -0.49610042 0.14285352
-0.23705272 -0.43154998 0.13022249
-0.37192227 -0.30711461 0.09382358
0.05453387 -0.62782627 0.22916318
0.03715008 -0.64310310 0.22114414
0.08297006 -0.61551807 0.23879668
0.08623774 -0.67048889 0.24012283
0.14819597 -0.58913164 0.25512505
0.19044448 -0.57500842 0.26577253
0.16290245 -0.54681694 0.25149678
0.24527569 -0.42747364 0.17470776
0.20178941 -0.40857480 0.17772423
0.22575606 -0.41290791 0.17273146
0.21138066 -0.38804664 0.16151358
0.25894494 -0.38879331 0.14263152
0.20029893 -0.36801977 0.15198405
0.23514944 -0.38927129 0.15373853
0.21229177 -0.34977606 0.13811237
0.24739742 -0.40646798 0.15968843
0.26825274 -0.41918450 0.15747419
0.20349222 -0.53245242 0.25292316
0.19492154 -0.51425423 0.24434243
0.18201073 -0.53145208 0.25013583
0.22296163 -0.54733597 0.25566590
0.30872588 -0.48263756 0.17333392
0.27702471 -0.47587657 0.19033424
0.27261442 -0.50231085 0.20973710
0.24921976 -0.54145809 0.24219094
-0.44005661 -0.50607739 0.14088195
-0.50217840 -0.47599764 0.12426863
-0.23615630 -0.55630029 0.14779468
-0.25436208 -0.56140449 0.14988081
-0.21447424 -0.55902654 0.14647768
-0.39542692 -0.53476564 0.14798935
-0.38746911 -0.55713250 0.15064559
-0.40151482 -0.57327095 0.15131154
-0.40057069 -0.46943618 0.13861849
0.02398741 -0.65712512 0.21450361
0.07912377 -0.65179604 0.23929691
0.06284096 -0.66869293 0.23311976
0.10252055 -0.65359200 0.24441575
0.05139698 -0.68442245 0.22758432
0.07017887 -0.69941479 0.23132501
0.11262386 -0.67962211 0.24143532
0.06189444 -0.72354739 0.22324470
0.07592380 -0.74613260 0.21407121
0.22837794 -0.43739112 0.18811707
0.25836257 -0.44227576 0.17788143
-0.48780631 -0.49868594 0.13009425
-0.19852865 -0.57349981 0.14633532
-0.21824108 -0.54066911 0.14540032
-0.40362525 -0.51609407 0.14540717
-0.40355751 -0.44694313 0.13307983
-0.44752906 -0.43895009 0.12920266
-0.42896342 -0.46176157 0.13565113
-0.42449439 -0.43717643 0.13010382
-0.43751158 -0.41858450 0.12457267
-0.45127158 -0.40025704 0.11890035
-0.47291336 -0.40411625 0.11827787
-0.47660418 -0.43347185 0.12482207
-0.45901473 -0.42065398 0.12378035
0.09524610 -0.68714523 0.23869190
0.11143993 -0.69901935 0.23255605
0.14242781 -0.67247447 0.24054384
0.09543430 -0.75215207 0.20873616
0.08368983 -0.72565859 0.22364555
-0.47583821 -0.47520844 0.13182403
-0.51713353 -0.50136729 0.12040242
-0.45244252 -0.46190980 0.13429190
-0.51193525 -0.44117722 0.11848536
0.14895970 -0.69172121 0.22966564
0.15449366 -0.65270025 0.24818362
0.13298554 -0.63877129 0.25168845
0.11398767 -0.63844167 0.24759356
0.12316225 -0.65730064 0.24860870
-0.48963799 -0.45458638 0.12666809
-0.46985324 -0.45221924 0.13092842
-0.50347411 -0.51601111 0.12641829
-0.52831330 -0.47768416 0.11498649
-0.51625741 -0.46116548 0.11879488
-0.53537721 -0.44656968 0.11083568
-0.54609646 -0.47026628 0.10645538
-0.52723055 -0.42833526 0.11158087
-0.52849401 -0.51615985 0.11652408
-0.49599695 -0.42940469 0.11997561
-0.60640267 -0.17689025 0.03269348
0.43010587 -0.61127341 0.05604628
-0.51460817 -0.84269997 0.09440041
-0.25543103 -0.85628106 0.11452780
-0.20451466 -0.85951879 0.10874104
-0.18649608 -0.87593150 0.10178936
-0.19398694 -0.83770405 0.11629333
-0.21790619 -0.84726307 0.11309468
-0.15576675 -0.91712620 0.08221533
-0.27647996 -0.72166753 0.14655375
-0.27649442 -0.62872623 0.15262670
-0.25297131 -0.61504259 0.15138144
-0.23880455 -0.59651672 0.15024144
-0.27649597 -0.49871235 0.14346423
-0.27649351 -0.47390621 0.14005980
-0.06750209 -0.86971457 0.11421400
0.19299134 -0.71511656 0.20265416
0.37223771 -0.59610407 0.13942623
-0.13408743 -0.86401626 0.09646140
-0.16542964 -0.83157253 0.11450627
-0.14633844 -0.82591123 0.10951980
-0.29998140 -0.65953494 0.15217517
-0.16852173 -0.63321828 0.14345898
-0.27649631 -0.59162306 0.15157545
-0.33942084 -0.69049506 0.15179958
-0.36296808 -0.49870749 0.14419412
-0.29999984 -0.56082558 0.15054025
-0.29988119 -0.41177189 0.12622129
-0.33949496 -0.46785237 0.13777031
0.01172065 -0.29076125 0.09521770
0.04750030 -0.29704636 0.10116557
0.16665536 -0.39263803 0.16949032
-0.50354651 -0.82279083 0.10127556
-0.43490232 -0.81626588 0.11767455
-0.45449573 -0.83520744 0.11025105
-0.27277473 -0.79576646 0.13224562
-0.14480662 -0.56207789 0.14199499
-0.16152746 -0.54773367 0.14298477
-0.15889638 -0.57566204 0.14214435
-0.14614610 -0.42070829 0.12946750
-0.16414662 -0.41065429 0.12651318
-0.17212241 -0.39323182 0.12271475
0.07969618 -0.36948134 0.14443643
-0.39918993 -0.35471718 0.10808966
-0.01166671 -0.87765720 0.13511366
-0.03224652 -0.51855100 0.16525162
0.13243994 -0.43990063 0.19212233
0.08755107 -0.28925166 0.10039776
0.07361055 -0.27183189 0.08889944
0.06864251 -0.29888748 0.10416379
0.05578905 -0.32417601 0.11679598
0.03648053 -0.31524419 0.10985267
0.05424442 -0.34400192 0.12660774
0.38958042 -0.54568541 0.10337364
0.40477329 -0.51383481 0.04446235
-0.52700903 -0.60042871 0.11659208
-0.51747341 -0.57793987 0.12303794
-0.55164821 -0.40278873 0.09804885
0.02790657 -0.68934212 0.21637055
0.36460059 -0.41798711 0.04614625
0.36340451 -0.39721534 0.03594292
0.35833188 -0.37300406 0.03012448
0.35127205 -0.35355812 0.03276421
-0.20096233 -0.66880271 0.14496392
-0.21647612 -0.65302195 0.14709168
-0.39533665 -0.78000836 0.13284380
-0.50423543 -0.23958739 0.06504383
0.33032023 -0.59453173 0.18699553
0.29866550 -0.57775786 0.22191492
-0.42631288 -0.56972104 0.14893506
0.17026484 -0.58170321 0.26188669
0.27618787 -0.36614982 0.11888487
0.28266075 -0.38896585 0.12915744
0.30920770 -0.37260309 0.09676051
0.32396901 -0.39223410 0.09343633
0.34294280 -0.38582190 0.06355164
0.30926936 -0.35099230 0.08668610
0.32948690 -0.37050578 0.07281525
0.28872439 -0.41862879 0.14456895
-0.42819771 -0.48507793 0.13984001
-0.15678057 -0.86627254 0.10194331
0.04398897 -0.27558668 0.08916407
0.16569743 -0.41176872 0.18097886
-0.43996883 -0.79613823 0.12194259
-0.45643419 -0.81197950 0.11577677
-0.41903081 -0.83464020 0.11485662
-0.41378468 -0.81406669 0.12173357
-0.39928483 -0.82746746 0.11989446
-0.51203058 -0.55443475 0.12533110
0.01788786 -0.33733276 0.11861613
0.06069698 -0.76580253 0.20364990
-0.02944381 -0.77907327 0.16881210
-0.00827656 -0.77257944 0.18397403
-0.02485098 -0.79716464 0.16584964
0.32731112 -0.52865861 0.18575798
0.24742358 -0.36742079 0.13505407
0.23445704 -0.35209345 0.13129976
3 117 118 116
3 370 489 205
3 116 118 119
3 275 263 538
3 114 115 120
3 119 115 116
3 120 115 119
3 145 144 516
3 267 266 143
3 346 1138 345
3 441 32 33
3 221 238 231
3 122 217 121
3 217 216 121
3 233 6 7
3 217 113 216
3 309 228 122
3 223 240 244
3 228 112 217
3 111 218 110
3 1137 339 1167
3 216 120 121
3 520 67 68
3 224 213 442
3 218 111 228
3 112 228 111
3 110 296 109
3 1135 236 80
3 224 443 317
3 338 613 108
3 613 462 107
3 243 242 239
3 296 110 218
3 309 122 123
3 444 92 93
3 227 235 1136
3 462 106 107
3 340 620 464
3 425 423 225
3 231 222 299
3 639 342 636
3 6 233 232
3 252 429 430
3 104 342 639
3 433 432 431
3 108 109 338
3 440 296 218
3 46 225 423
3 273 272 161
3 317 24 25
3 242 223 234
3 183 221 182
3 344 131 345
3 130 131 160
3 433 598 432
3 238 4 5
3 212 130 160
3 212 160 159
3 344 160 131
3 79 80 236
3 137 350 136
3 618 246 616
3 176 645 142
3 467 353 350
3 348 346 133
3 230 220 237
3 142 473 177
3 316 23 24
3 316 234 23
3 135 136 355
3 355 136 350
3 180 354 181
3 146 145 514
3 468 352 644
3 657 479 158
3 486 487 365
3 129 130 212
3 475 653 655
3 662 171 170
3 151 667 152
3 623 246 618
3 359 476 360
3 154 614 155
3 155 156 476
3 160 343 159
3 428 295 427
3 957 967 968
3 647 646 648
3 176 210 175
3 172 255 488
3 660 482 481
3 174 256 254
3 173 254 255
3 366 367 253
3 172 171 660
3 651 475 650
3 254 256 209
3 160 344 343
3 474 645 646
3 656 853 851
3 139 140 278
3 432 598 295
3 504 507 163
3 640 103 639
3 671 149 148
3 263 273 274
3 600 220 599
3 388 717 268
3 99 100 496
3 209 208 254
3 79 230 78
3 90 91 297
3 983 1201 237
3 704 143 144
3 32 235 227
3 312 33 34
3 101 1191 100
3 1133 1127 1117
3 710 713 712
3 156 157 478
3 714 716 715
3 1040 1098 258
3 370 205 490
3 268 717 719
3 103 640 102
3 104 105 342
3 271 270 66
3 77 78 241
3 70 71 266
3 677 678 378
3 82 86 87
3 83 86 82
3 84 85 83
3 277 183 278
3 83 85 86
3 255 254 208
3 87 88 219
3 14 548 13
3 236 230 79
3 230 237 241
3 444 602 724
3 230 236 435
3 619 106 462
3 87 219 82
3 8 303 7
3 297 435 314
3 219 229 1135
3 323 318 447
3 276 744 539
3 229 219 88
3 64 65 272
3 265 740 267
3 314 236 229
3 221 4 238
3 149 150 497
3 670 495 494
3 361 858 1042
3 670 150 149
3 380 379 501
3 676 500 675
3 955 845 846
3 512 385 384
3 153 484 152
3 512 147 146
3 162 522 163
3 147 148 501
3 168 167 673
3 505 381 504
3 145 146 510
3 1108 1110 1107
3 381 506 507
3 269 271 518
3 390 522 523
3 526 161 270
3 162 274 273
3 498 376 497
3 635 465 634
3 388 885 887
3 386 143 71
3 264 71 72
3 143 704 267
3 71 143 266
3 88 89 229
3 738 388 75
3 112 113 217
3 268 885 388
3 75 388 74
3 227 31 32
3 180 181 299
3 386 387 143
3 526 743 523
3 267 740 70
3 270 65 66
3 427 212 159
3 113 114 216
3 266 267 70
3 26 213 224
3 225 214 186
3 700 144 145
3 226 30 31
3 161 272 65
3 520 521 389
3 270 161 65
3 1031 1202 1029
3 167 551 166
3 667 668 493
3 364 363 484
3 28 30 215
3 176 142 211
3 19 445 18
3 141 184 277
3 184 183 277
3 141 0 184
3 392 278 183
3 353 354 643
3 139 371 138
3 221 231 182
3 231 181 182
3 141 277 140
3 471 643 180
3 1 2 184
3 263 274 276
3 67 520 518
3 184 2 183
3 3 4 221
3 3 183 2
3 232 222 238
3 511 383 701
3 708 262 385
3 183 3 221
3 542 10 11
3 184 0 1
3 752 751 142
3 301 299 300
3 177 178 540
3 470 472 356
3 470 356 469
3 179 180 301
3 209 256 210
3 176 211 210
3 438 298 308
3 254 173 174
3 211 142 751
3 393 756 752
3 396 544 545
3 902 901 990
3 206 489 369
3 172 173 255
3 366 368 170
3 210 211 543
3 170 368 400
3 546 207 544
3 546 206 207
3 370 368 253
3 991 764 905
3 170 171 366
3 562 1092 1115
3 169 399 168
3 232 5 6
3 140 277 278
3 1201 241 237
3 126 461 125
3 302 300 233
3 232 233 222
3 469 179 178
3 232 238 5
3 437 279 436
3 1179 753 437
3 244 240 319
3 307 303 305
3 454 335 333
3 213 215 226
3 544 207 208
3 13 775 12
3 205 778 204
3 120 216 114
3 18 445 446
3 310 309 123
3 82 219 81
3 1151 554 17
3 302 306 298
3 554 16 17
3 476 477 155
3 547 775 548
3 599 297 601
3 230 241 78
3 244 21 22
3 21 244 319
3 316 242 234
3 371 257 467
3 316 317 239
3 210 256 175
3 486 157 156
3 234 22 23
3 81 1135 80
3 25 26 224
3 215 27 28
3 182 181 372
3 869 377 1172
3 27 215 213
3 273 263 275
3 227 226 31
3 371 278 257
3 30 226 215
3 28 29 30
3 533 535 529
3 147 501 502
3 213 26 27
3 510 511 700
3 319 321 20
3 163 507 162
3 778 779 204
3 782 203 202
3 1136 442 213
3 168 399 402
3 781 552 401
3 779 203 204
3 202 201 563
3 402 167 168
3 165 164 676
3 689 199 198
3 199 688 200
3 779 914 203
3 674 499 673
3 504 163 164
3 194 195 568
3 795 197 198
3 508 688 689
3 411 571 572
3 609 937 452
3 412 194 193
3 194 566 193
3 566 409 408
3 571 196 195
3 318 328 329
3 407 684 682
3 783 200 201
3 192 415 417
3 185 186 214
3 273 64 272
3 275 64 273
3 158 427 159
3 439 339 1137
3 527 528 62
3 1165 1216 1164
3 217 122 228
3 63 527 62
3 238 222 231
3 1183 58 59
3 801 572 799
3 193 566 567
3 288 416 190
3 89 314 229
3 574 57 58
3 783 553 924
3 54 55 418
3 56 414 576
3 604 441 312
3 291 190 189
3 435 599 220
3 286 412 578
3 478 479 360
3 319 20 21
3 167 780 551
3 208 207 255
3 580 581 420
3 43 44 585
3 357 1154 249
3 190 191 581
3 585 422 424
3 223 244 234
3 422 44 45
3 148 149 503
3 585 586 43
3 206 369 207
3 320 328 318
3 22 234 244
3 689 691 690
3 538 527 275
3 579 41 42
3 174 175 256
3 942 938 939
3 590 596 419
3 143 387 144
3 889 707 888
3 324 326 328
3 242 243 223
3 732 720 730
3 291 53 54
3 54 418 291
3 189 190 580
3 290 52 53
3 269 390 523
3 52 292 51
3 293 50 51
3 186 293 187
3 187 293 292
3 64 275 63
3 187 188 425
3 162 273 161
3 225 186 187
3 225 46 214
3 346 345 132
3 46 47 214
3 185 47 48
3 49 50 185
3 48 49 185
3 327 243 331
3 214 47 185
3 392 183 182
3 153 154 485
3 185 50 186
3 423 294 422
3 165 675 166
3 66 67 271
3 190 291 288
3 35 1189 808
3 213 226 227
3 204 203 403
3 664 151 152
3 321 323 445
3 761 280 759
3 564 406 563
3 166 565 165
3 793 409 568
3 793 794 569
3 528 530 536
3 802 571 573
3 574 575 413
3 411 572 801
3 414 56 57
3 192 191 415
3 416 288 576
3 287 415 416
3 584 191 192
3 934 40 41
3 189 188 290
3 290 188 292
3 189 290 291
3 291 290 53
3 290 292 52
3 188 187 292
3 50 293 186
3 292 293 51
3 580 426 597
3 579 804 589
3 428 158 157
3 429 432 295
3 310 311 440
3 296 460 338
3 601 91 92
3 297 599 435
3 298 300 302
3 306 308 298
3 231 299 181
3 300 299 222
3 233 300 222
3 301 300 298
3 301 298 438
3 180 299 301
3 303 233 7
3 304 436 308
3 305 8 9
3 233 303 302
3 8 305 303
3 753 986 896
3 305 897 753
3 304 306 307
3 307 306 302
3 308 306 304
3 303 307 302
3 307 305 1179
3 438 1150 393
3 179 438 178
3 310 123 124
3 218 228 309
3 124 439 310
3 218 309 310
3 125 439 124
3 460 245 338
3 35 36 811
3 604 235 441
3 332 313 606
3 317 443 450
3 89 90 314
3 297 314 90
3 93 602 444
3 717 718 719
3 317 316 24
3 242 316 239
3 25 224 317
3 224 442 443
3 318 321 320
3 320 240 324
3 320 319 240
3 319 320 321
3 324 240 325
3 327 325 223
3 321 318 323
3 19 20 321
3 327 322 325
3 335 337 322
3 447 318 329
3 18 446 17
3 325 240 223
3 324 322 326
3 327 223 243
3 322 324 325
3 334 335 327
3 1166 409 569
3 243 332 331
3 312 808 605
3 324 328 320
3 329 328 326
3 337 611 326
3 610 448 329
3 36 37 609
3 331 334 327
3 239 450 243
3 334 331 1202
3 235 604 606
3 331 332 1152
3 605 608 451
3 1181 929 794
3 1202 331 330
3 335 334 333
3 454 337 335
3 327 335 322
3 1029 608 1030
3 1028 410 1181
3 336 812 611
3 326 322 337
3 296 338 109
3 462 613 816
3 126 1169 638
3 972 1200 971
3 340 627 637
3 638 1219 637
3 614 615 463
3 669 152 667
3 340 619 462
3 634 636 246
3 343 247 641
3 159 343 657
3 345 131 132
3 343 344 247
3 346 132 133
3 247 344 345
3 642 348 133
3 348 349 346
3 468 135 352
3 1138 247 345
3 642 133 134
3 349 348 347
3 347 1139 349
3 649 1141 1154
3 137 138 467
3 1143 355 248
3 354 351 492
3 248 350 353
3 179 469 471
3 135 468 134
3 467 350 137
3 354 353 351
3 257 372 492
3 180 179 471
3 248 355 350
3 135 355 352
3 473 1153 177
3 355 1143 352
3 175 646 176
3 1153 1215 470
3 650 175 174
3 360 479 658
3 851 852 656
3 851 853 477
3 479 157 158
3 360 658 1144
3 662 663 482
3 1171 168 673
3 663 856 482
3 1148 380 376
3 1145 251 1146
3 483 363 1158
3 155 477 1156
3 364 853 1145
3 155 614 1159
3 629 861 829
3 367 366 171
3 368 366 253
3 488 171 172
3 666 207 369
3 253 489 370
3 400 281 399
3 253 367 369
3 367 488 666
3 490 205 204
3 491 400 368
3 278 371 139
3 467 257 351
3 492 181 354
3 392 372 257
3 102 640 836
3 817 463 615
3 147 512 513
3 705 884 883
3 101 1190 1191
3 1117 1127 1098
3 151 664 1161
3 376 498 866
3 376 866 868
3 858 361 856
3 522 524 163
3 876 680 878
3 980 975 874
3 876 878 502
3 503 497 380
3 380 1148 1149
3 505 164 165
3 276 506 260
3 699 198 197
3 61 62 528
3 147 502 1162
3 740 703 521
3 716 890 715
3 883 884 513
3 516 144 387
3 385 262 890
3 71 264 386
3 387 386 264
3 706 387 264
3 516 385 514
3 738 76 517
3 726 727 886
3 68 739 521
3 269 518 519
3 741 269 519
3 524 1174 163
3 530 533 529
3 530 528 391
3 372 392 182
3 257 278 392
3 540 438 393
3 541 755 754
3 12 775 776
3 545 759 396
3 755 279 757
3 908 776 547
3 545 208 209
3 762 396 759
3 926 786 925
3 554 555 16
3 927 557 561
3 1113 1120 560
3 400 399 169
3 402 399 781
3 170 400 169
3 368 370 491
3 281 403 552
3 879 401 552
3 781 399 281
3 402 401 780
3 403 782 552
3 403 491 490
3 553 783 784
3 449 448 787
3 763 765 767
3 555 926 16
3 564 201 200
3 782 406 1180
3 686 260 681
3 681 381 505
3 1231 595 1067
3 581 421 582
3 793 195 196
3 409 284 1065
3 812 453 611
3 336 454 456
3 195 194 572
3 694 537 693
3 193 192 417
3 799 800 801
3 412 193 578
3 414 287 576
3 574 414 57
3 577 414 413
3 416 415 191
3 417 415 287
3 190 416 191
3 418 576 288
3 287 414 577
3 417 578 193
3 576 418 55
3 291 418 288
3 289 592 590
3 579 934 41
3 588 583 587
3 425 188 597
3 567 192 193
3 595 593 421
3 423 422 45
3 424 422 294
3 46 423 45
3 225 187 425
3 588 294 426
3 583 805 582
3 188 189 597
3 423 425 294
3 582 805 420
3 294 425 426
3 428 427 158
3 212 427 295
3 157 486 430
3 429 428 430
3 432 429 1200
3 295 428 429
3 157 430 428
3 430 365 861
3 628 623 630
3 128 1222 1220
3 1200 429 252
3 1221 1222 431
3 128 129 433
3 598 433 129
3 434 601 444
3 718 891 315
3 230 435 220
3 314 435 236
3 437 436 304
3 1150 436 279
3 1179 305 753
3 437 758 757
3 438 179 301
3 438 308 1150
3 439 125 461
3 310 439 311
3 310 440 218
3 460 440 311
3 32 441 235
3 33 312 441
3 1136 213 227
3 442 313 443
3 313 332 443
3 450 332 243
3 602 93 94
3 603 444 315
3 321 445 19
3 446 445 323
3 449 446 323
3 446 449 1151
3 448 447 329
3 449 282 1151
3 610 329 813
3 1093 1113 1124
3 323 447 449
3 448 449 447
3 317 450 239
3 443 332 450
3 451 604 605
3 331 1152 330
3 37 948 609
3 284 409 1166
3 456 458 336
3 920 918 919
3 1032 1203 1031
3 336 337 454
3 1075 945 1024
3 812 458 459
3 1203 454 333
3 455 1037 458
3 941 452 937
3 1028 570 798
3 455 458 456
3 458 457 459
3 457 814 459
3 928 453 1003
3 440 460 296
3 1137 460 311
3 638 461 126
3 439 461 339
3 107 108 613
3 340 464 619
3 615 154 153
3 860 859 487
3 246 342 616
3 342 617 616
3 623 633 246
3 1190 101 102
3 641 247 847
3 648 655 358
3 371 467 138
3 353 467 351
3 1143 644 352
3 347 642 468
3 470 469 178
3 471 469 356
3 1153 178 177
3 249 1140 1215
3 356 248 471
3 643 471 248
3 644 472 1140
3 472 644 1143
3 1155 473 142
3 1153 473 357
3 647 649 474
3 645 1155 142
3 848 174 173
3 172 660 661
3 476 156 478
3 477 476 359
3 477 359 851
3 1156 364 485
3 479 478 157
3 476 478 360
3 158 159 657
3 658 250 1144
3 854 855 1198
3 475 651 653
3 481 855 854
3 854 654 661
3 663 170 169
3 482 856 1157
3 664 484 483
3 867 866 498
3 484 153 485
3 483 484 363
3 1156 485 154
3 484 485 364
3 487 486 156
3 430 486 365
3 1159 156 155
3 860 665 859
3 666 255 207
3 171 488 367
3 369 489 253
3 205 489 206
3 204 403 490
3 491 403 281
3 400 491 281
3 370 490 491
3 257 492 351
3 181 492 372
3 668 151 150
3 865 669 493
3 494 864 863
3 862 493 668
3 147 513 1163
3 495 884 1160
3 1223 496 100
3 1133 496 375
3 498 497 150
3 380 497 376
3 1161 150 151
3 867 672 866
3 674 167 166
3 1171 499 1172
3 500 677 679
3 869 499 674
3 501 148 503
3 502 501 379
3 502 379 876
3 1162 383 510
3 497 503 149
3 501 503 380
3 505 504 164
3 507 504 381
3 565 505 165
3 681 260 506
3 507 276 274
3 681 506 381
3 276 507 506
3 162 507 274
3 690 692 508
3 790 406 564
3 802 197 196
3 696 537 694
3 1162 510 146
3 511 510 383
3 701 383 261
3 704 511 703
3 512 146 514
3 513 512 384
3 513 384 883
3 1163 495 671
3 516 514 145
3 512 514 385
3 889 982 981
3 708 710 262
3 387 706 709
3 385 516 708
3 1201 76 77
3 237 600 891
3 67 518 271
3 519 518 389
3 880 519 389
3 977 874 679
3 521 520 68
3 518 520 389
3 740 739 69
3 703 701 702
3 523 522 162
3 524 522 390
3 526 162 161
3 271 269 743
3 1176 1175 524
3 1174 1175 678
3 741 390 269
3 525 741 742
3 743 270 271
3 162 526 523
3 275 527 63
3 528 527 391
3 531 533 391
3 536 61 528
3 535 534 750
3 61 1164 60
3 539 391 538
3 1224 536 529
3 276 260 744
3 691 693 382
3 532 536 1224
3 285 800 1185
3 391 533 530
3 745 535 531
3 534 535 745
3 684 686 682
3 531 535 533
3 750 534 749
3 529 536 530
3 536 532 1164
3 509 573 694
3 535 537 698
3 539 538 263
3 527 538 391
3 276 539 263
3 391 539 531
3 438 540 178
3 752 540 393
3 756 279 755
3 751 754 543
3 909 12 776
3 542 910 896
3 543 211 751
3 395 902 543
3 545 544 208
3 546 544 396
3 901 760 545
3 762 759 280
3 762 546 396
3 206 991 205
3 774 1225 773
3 776 910 909
3 925 14 15
3 777 548 397
3 991 546 764
3 911 779 549
3 912 550 913
3 553 784 916
3 551 879 687
3 551 687 565
3 403 203 782
3 879 685 687
3 201 202 915
3 1004 404 1005
3 1151 17 446
3 555 554 405
3 555 405 557
3 786 559 1114
3 558 557 405
3 558 282 787
3 405 1151 558
3 561 557 556
3 282 449 787
3 557 558 1120
3 559 561 562
3 397 548 786
3 448 610 1001
3 1001 788 448
3 561 556 1112
3 561 559 927
3 1122 1124 1121
3 546 762 764
3 564 563 201
3 782 563 406
3 688 564 200
3 692 791 508
3 551 565 166
3 565 407 682
3 566 194 568
3 567 566 408
3 1065 284 1063
3 567 421 584
3 568 195 793
3 566 568 409
3 794 196 197
3 1166 569 1217
3 931 199 785
3 199 200 924
3 572 571 195
3 573 571 411
3 194 412 572
3 286 799 412
3 1177 285 697
3 699 573 509
3 575 574 58
3 414 574 413
3 1183 1216 1184
3 413 575 1182
3 56 576 55
3 287 416 576
3 286 577 413
3 287 577 417
3 417 577 578
3 286 578 577
3 43 586 804
3 935 934 579
3 581 580 190
3 426 580 420
3 584 581 191
3 582 421 289
3 583 582 289
3 420 581 582
3 589 583 590
3 804 587 589
3 567 584 192
3 581 584 421
3 422 585 44
3 586 585 424
3 587 586 424
3 42 804 579
3 588 587 424
3 589 587 583
3 294 588 424
3 426 420 805
3 590 583 289
3 579 589 419
3 592 289 593
3 419 589 590
3 1230 591 1231
3 592 596 590
3 593 289 421
3 592 591 594
3 595 421 567
3 592 593 806
3 284 930 1061
3 1211 935 594
3 1067 567 408
3 592 806 591
3 592 594 596
3 419 596 594
3 580 597 189
3 425 597 426
3 129 212 598
3 295 598 212
3 601 297 91
3 600 599 434
3 600 434 603
3 237 220 600
3 444 601 92
3 599 601 434
3 725 602 728
3 731 730 725
3 603 315 891
3 434 444 603
3 605 604 312
3 606 604 451
3 312 34 808
3 608 330 1152
3 332 606 451
3 606 313 1136
3 811 36 609
3 1188 608 605
3 608 1188 809
3 1029 330 608
3 948 38 810
3 949 950 951
3 813 326 611
3 788 560 787
3 336 611 337
3 813 453 610
3 797 1009 1011
3 560 788 1002
3 338 245 815
3 462 816 340
3 615 614 154
3 1159 614 463
3 669 153 152
3 341 463 817
3 617 342 105
3 618 616 464
3 106 617 105
3 464 616 617
3 618 464 620
3 633 634 246
3 464 617 619
3 106 619 617
3 624 620 340
3 831 628 973
3 630 624 631
3 365 487 859
3 624 637 622
3 1221 632 1218
3 630 618 620
3 626 954 830
3 816 613 815
3 628 621 623
3 624 622 631
3 622 1218 1047
3 341 819 823
3 827 626 830
3 1137 1167 245
3 638 637 627
3 630 623 618
3 1047 973 625
3 365 859 861
3 831 629 829
3 624 630 620
3 628 630 625
3 632 1047 1218
3 630 631 625
3 632 1200 972
3 972 973 632
3 954 623 621
3 634 633 626
3 635 634 626
3 634 465 636
3 819 341 817
3 835 832 635
3 636 465 639
3 246 636 342
3 340 637 624
3 627 1167 638
3 461 638 339
3 126 127 1169
3 640 639 465
3 103 104 639
3 635 832 465
3 640 465 832
3 247 1138 847
3 659 657 1170
3 348 642 347
3 134 468 642
3 353 643 248
3 180 643 354
3 1140 249 1139
3 347 468 644
3 646 645 176
3 474 1154 1155
3 648 175 650
3 648 358 647
3 649 647 358
3 474 646 647
3 175 648 646
3 648 475 655
3 965 966 358
3 1142 1141 957
3 651 650 174
3 648 650 475
3 173 172 661
3 654 652 653
3 852 961 963
3 659 466 969
3 654 653 651
3 653 652 655
3 848 654 651
3 654 480 960
3 958 655 652
3 967 966 850
3 359 1144 852
3 656 852 963
3 343 641 657
3 1170 466 659
3 479 659 658
3 659 969 1041
3 657 659 479
3 850 969 466
3 660 171 662
3 661 660 481
3 854 661 481
3 661 654 848
3 663 662 170
3 660 662 482
3 169 168 1171
3 1157 856 361
3 484 664 152
3 1161 664 483
3 823 825 341
3 861 252 430
3 367 666 369
3 255 666 488
3 668 667 151
3 669 667 493
3 670 668 150
3 493 862 373
3 865 493 373
3 615 153 669
3 670 149 671
3 668 670 494
3 1163 671 148
3 670 671 495
3 1099 979 1082
3 869 870 377
3 674 673 167
3 1171 673 499
3 675 674 166
3 870 871 679
3 676 675 165
3 674 675 500
3 164 163 1174
3 677 676 678
3 679 677 378
3 500 676 677
3 676 164 1174
3 678 1175 985
3 895 378 985
3 259 1148 868
3 379 1149 877
3 895 525 742
3 682 505 565
3 682 681 505
3 683 684 685
3 681 682 686
3 283 406 790
3 534 745 746
3 685 684 407
3 684 683 686
3 687 685 407
3 685 283 792
3 683 692 748
3 747 745 744
3 565 687 407
3 879 551 401
3 689 688 199
3 564 688 508
3 691 198 699
3 691 382 690
3 692 690 382
3 508 689 690
3 198 691 689
3 691 509 693
3 534 746 749
3 683 685 792
3 694 693 509
3 693 537 750
3 1177 573 411
3 695 698 696
3 695 696 697
3 1184 1185 800
3 697 696 694
3 695 1224 698
3 1177 694 573
3 697 285 1187
3 535 698 529
3 537 696 698
3 699 197 802
3 691 699 509
3 510 700 145
3 704 700 511
3 702 701 261
3 703 511 701
3 742 519 881
3 702 880 521
3 521 703 702
3 704 703 265
3 267 704 265
3 700 704 144
3 715 262 712
3 1086 1104 1214
3 72 982 1052
3 709 708 516
3 889 515 706
3 887 74 388
3 516 387 709
3 708 709 710
3 706 515 709
3 515 1178 709
3 711 712 713
3 726 268 719
3 735 1108 734
3 262 710 712
3 713 710 1178
3 711 714 715
3 888 707 886
3 721 723 726
3 1104 1086 1102
3 843 1048 846
3 711 715 712
3 1102 716 714
3 883 716 705
3 890 716 384
3 738 717 388
3 718 717 517
3 718 983 891
3 724 725 722
3 718 722 721
3 718 721 719
3 722 725 720
3 737 894 736
3 722 718 315
3 723 721 720
3 724 722 315
3 720 721 722
3 725 730 720
3 723 727 726
3 444 724 315
3 724 602 725
3 728 602 94
3 730 731 729
3 721 726 719
3 732 734 736
3 888 713 515
3 707 885 886
3 94 95 728
3 731 892 1192
3 1128 1129 1130
3 732 736 723
3 731 725 728
3 732 730 729
3 95 892 728
3 731 728 892
3 734 732 729
3 720 732 723
3 984 731 893
3 713 894 737
3 735 734 729
3 734 733 736
3 1128 98 1117
3 99 1133 98
3 736 733 737
3 727 723 736
3 1107 737 733
3 711 713 737
3 76 738 75
3 717 738 517
3 68 69 739
3 70 740 69
3 703 740 265
3 521 739 740
3 742 741 519
3 525 1175 1176
3 519 880 881
3 881 261 882
3 523 743 269
3 270 743 526
3 746 747 686
3 539 744 531
3 531 744 745
3 744 260 747
3 686 748 746
3 749 382 750
3 686 747 260
3 745 747 746
3 683 748 686
3 749 748 692
3 748 749 746
3 692 382 749
3 693 750 382
3 750 537 535
3 752 142 177
3 751 541 754
3 752 177 540
3 541 751 752
3 896 898 753
3 305 9 897
3 541 756 755
3 395 543 754
3 757 279 437
3 395 754 755
3 752 756 541
3 756 393 1150
3 758 437 898
3 755 757 899
3 777 1225 774
3 755 899 395
3 901 545 209
3 760 759 545
3 899 758 1228
3 759 760 761
3 1226 760 902
3 769 767 766
3 765 762 280
3 765 764 762
3 767 280 906
3 763 1193 1087
3 763 903 764
3 903 398 905
3 906 280 761
3 764 765 763
3 773 770 771
3 1092 768 1094
3 280 767 765
3 769 771 768
3 1087 903 763
3 769 1193 767
3 771 769 766
3 1091 1193 768
3 906 907 766
3 1094 770 1095
3 766 907 773
3 771 770 1094
3 761 1226 1227
3 987 900 758
3 766 773 771
3 773 772 774
3 900 987 989
3 774 547 777
3 548 775 13
3 776 775 547
3 547 774 908
3 11 909 542
3 777 397 1225
3 547 548 777
3 991 778 205
3 779 778 549
3 911 549 398
3 779 913 914
3 402 780 167
3 401 551 780
3 402 781 401
3 281 552 781
3 563 782 202
3 1180 406 283
3 783 201 915
3 924 553 785
3 784 915 914
3 553 916 404
3 921 923 404
3 796 570 795
3 925 548 14
3 786 926 927
3 788 787 448
3 558 787 560
3 928 1001 453
3 1002 788 1001
3 918 993 921
3 921 916 917
3 791 790 564
3 283 790 792
3 508 791 564
3 792 692 683
3 790 791 792
3 692 792 791
3 794 793 196
3 793 569 409
3 795 794 197
3 1181 794 570
3 796 795 198
3 794 795 570
3 199 796 198
3 931 785 932
3 570 796 798
3 798 796 931
3 796 199 931
3 798 797 933
3 799 286 800
3 572 412 799
3 286 413 1182
3 59 60 1216
3 800 285 801
3 411 801 285
3 571 802 196
3 699 802 573
3 944 938 942
3 1195 1196 1210
3 43 804 42
3 804 586 587
3 583 588 805
3 426 805 588
3 593 595 806
3 1065 1067 408
3 1021 1020 930
3 937 810 939
3 35 808 34
3 808 607 1188
3 1189 951 607
3 947 1036 1074
3 38 1195 1194
3 1211 1212 803
3 949 609 452
3 808 1189 607
3 458 812 336
3 453 812 459
3 326 813 329
3 453 813 611
3 814 457 1073
3 1057 998 999
3 815 245 1167
3 613 338 815
3 815 627 816
3 627 340 816
3 953 615 669
3 615 953 817
3 821 824 827
3 817 818 819
3 819 818 822
3 819 824 823
3 826 822 818
3 844 833 841
3 830 954 828
3 825 665 341
3 865 818 953
3 823 824 821
3 824 819 822
3 823 821 825
3 822 820 824
3 840 827 824
3 821 828 825
3 831 828 621
3 373 1085 826
3 820 822 826
3 840 820 837
3 635 626 827
3 830 828 821
3 831 829 828
3 665 825 829
3 828 829 825
3 827 830 821
3 626 633 954
3 621 628 831
3 973 628 625
3 640 832 836
3 833 835 837
3 833 837 841
3 1223 100 1191
3 836 835 838
3 833 839 838
3 837 835 635
3 838 835 833
3 835 836 832
3 836 834 1190
3 840 635 827
3 837 820 841
3 841 1204 844
3 836 838 834
3 258 1223 955
3 834 838 839
3 820 840 824
3 635 840 837
3 842 820 826
3 820 842 841
3 1084 862 863
3 833 844 845
3 863 864 1083
3 955 846 258
3 1204 841 842
3 845 844 843
3 845 843 846
3 833 845 839
3 1049 843 1204
3 1050 374 1086
3 847 349 1142
3 641 847 968
3 174 848 651
3 661 848 173
3 963 959 964
3 1041 658 659
3 358 655 965
3 965 958 850
3 852 851 359
3 1046 853 656
3 959 961 849
3 959 849 958
3 1145 853 251
3 853 364 1156
3 481 1157 855
3 654 854 480
3 361 1042 1044
3 962 1199 1046
3 1171 1172 1173
3 856 663 1173
3 875 979 377
3 1173 858 856
3 979 857 1172
3 1044 970 1045
3 487 1159 860
3 861 859 665
3 463 341 860
3 665 860 341
3 829 861 665
3 629 971 861
3 494 863 668
3 862 668 863
3 494 1160 864
3 974 1048 1049
3 974 1101 1050
3 974 1049 1083
3 373 826 865
3 818 865 826
3 498 1161 867
3 868 866 672
3 1158 867 483
3 867 362 1081
3 870 873 875
3 259 868 975
3 871 674 500
3 869 871 870
3 679 873 870
3 875 377 870
3 674 871 869
3 679 871 500
3 873 874 872
3 976 868 672
3 874 873 679
3 875 873 872
3 977 679 378
3 877 680 876
3 976 872 975
3 970 1147 1146
3 877 876 379
3 680 261 878
3 259 980 877
3 977 978 874
3 261 383 878
3 878 383 1162
3 1180 552 782
3 685 879 283
3 521 880 389
3 880 702 881
3 702 261 881
3 882 261 680
3 978 1051 877
3 742 881 882
3 716 883 384
3 705 374 884
3 1160 884 374
3 884 495 1163
3 886 885 268
3 885 707 887
3 726 886 268
3 886 727 888
3 981 887 707
3 73 74 887
3 888 727 894
3 889 888 515
3 1052 706 264
3 982 73 981
3 385 890 384
3 715 890 262
3 891 600 603
3 983 718 517
3 96 1192 95
3 731 1192 893
3 1130 96 97
3 731 984 729
3 888 894 713
3 736 894 727
3 742 882 895
3 680 1051 882
3 898 896 394
3 986 753 897
3 9 10 897
3 986 897 10
3 753 898 437
3 394 758 898
3 757 758 899
3 1228 758 900
3 987 758 394
3 1227 772 907
3 209 210 901
3 990 901 210
3 1226 902 395
3 901 902 760
3 767 1193 763
3 905 398 549
3 1091 1092 1089
3 1055 997 996
3 549 778 991
3 764 903 905
3 907 906 761
3 767 906 766
3 761 760 1226
3 907 772 773
3 989 987 988
3 910 542 909
3 12 909 11
3 910 776 908
3 988 910 908
3 910 394 896
3 912 911 398
3 914 913 550
3 1053 1054 992
3 994 998 995
3 779 911 913
3 912 913 911
3 914 550 917
3 203 914 202
3 914 915 202
3 783 915 784
3 784 917 916
3 917 919 921
3 914 917 784
3 917 550 919
3 550 920 919
3 1007 922 1008
3 920 550 912
3 921 919 918
3 912 398 1054
3 920 912 1053
3 993 923 921
3 916 921 404
3 922 993 995
3 789 999 998
3 1008 1000 1007
3 797 798 1027
3 783 924 200
3 785 199 924
3 926 925 15
3 548 925 786
3 16 926 15
3 557 927 555
3 786 927 559
3 555 927 926
3 1003 453 459
3 814 1058 1003
3 410 930 1217
3 569 794 929
3 933 1012 1014
3 941 938 1038
3 785 1004 932
3 798 931 1027
3 1005 932 1004
3 923 1006 1005
3 1010 1011 1000
3 814 1073 1070
3 935 579 419
3 934 803 1197
3 594 935 419
3 803 934 935
3 811 949 951
3 1203 456 454
3 948 937 609
3 810 1194 942
3 1231 591 806
3 939 941 937
3 810 38 1194
3 939 938 941
3 39 1196 1195
3 1206 1208 1211
3 944 946 938
3 1035 1037 1034
3 810 942 939
3 940 1209 944
3 1206 591 1230
3 1066 807 1063
3 940 944 942
3 1213 946 944
3 1014 410 933
3 947 1038 946
3 1213 944 943
3 946 945 947
3 1024 1015 1019
3 936 1229 1034
3 38 948 37
3 937 948 810
3 949 452 950
3 811 609 949
3 1039 452 941
3 950 1229 1030
3 950 809 951
3 951 809 1188
3 1023 1025 1026
3 1021 930 410
3 865 953 669
3 817 953 818
3 623 954 633
3 828 954 621
3 1223 258 375
3 845 955 839
3 1105 1102 714
3 258 846 1040
3 847 1142 957
3 649 966 957
3 959 958 652
3 850 958 849
3 960 959 652
3 961 250 1041
3 654 960 652
3 1198 964 480
3 963 961 959
3 852 250 961
3 1198 962 964
3 1045 1199 1044
3 964 959 960
3 656 963 962
3 480 964 960
3 962 963 964
3 958 965 655
3 966 965 850
3 850 466 967
3 358 966 649
3 968 967 466
3 957 966 967
3 641 968 466
3 957 968 847
3 850 849 969
3 1041 969 849
3 970 1042 1043
3 362 1158 1146
3 972 971 629
3 252 861 971
3 973 972 629
3 632 431 1200
3 831 973 629
3 625 631 1047
3 1050 864 374
3 1048 1078 1040
3 976 975 868
3 874 975 872
3 1081 1043 1080
3 875 872 976
3 378 895 977
3 978 877 980
3 977 895 978
3 895 882 1051
3 1082 1100 1080
3 672 1080 976
3 975 980 259
3 978 980 874
3 887 981 73
3 707 889 981
3 889 706 1052
3 73 982 72
3 1201 517 76
3 237 891 983
3 893 735 984
3 735 729 984
3 678 985 378
3 525 895 985
3 10 542 986
3 896 986 542
3 988 394 910
3 908 989 988
3 989 908 774
3 394 988 987
3 774 772 989
3 900 989 772
3 210 543 990
3 902 990 543
3 546 991 206
3 549 991 905
3 1092 1056 1089
3 1088 1090 997
3 996 995 993
3 922 923 993
3 997 1055 1053
3 996 997 994
3 996 993 918
3 994 1122 998
3 1055 918 920
3 994 995 996
3 992 1088 997
3 1123 997 1090
3 999 789 928
3 995 998 1057
3 999 928 1003
3 612 1059 1008
3 1070 1071 1072
3 1027 1006 1009
3 453 1001 610
3 1002 1001 928
3 928 789 1002
3 1002 789 1121
3 459 814 1003
3 814 612 1058
3 785 553 1004
3 404 1004 553
3 404 923 1005
3 922 1007 923
3 1009 1006 1000
3 932 1005 1006
3 1000 1006 1007
3 923 1007 1006
3 1057 922 995
3 612 1205 1058
3 1010 1000 1059
3 1009 797 1027
3 933 1011 1012
3 1011 933 797
3 1000 1011 1009
3 1011 1010 1012
3 1013 1010 1071
3 1012 1010 1013
3 1022 1016 1018
3 1016 1013 952
3 1022 1012 1013
3 410 1014 1021
3 1016 1019 1015
3 1096 1020 1015
3 1019 1016 1023
3 1018 1016 1015
3 1017 1019 1023
3 1036 1076 1035
3 1018 1015 1020
3 1022 1018 1014
3 1023 1016 952
3 1024 1019 1017
3 1015 1097 1096
3 930 1020 1061
3 1014 1018 1021
3 1020 1021 1018
3 1012 1022 1014
3 1016 1022 1013
3 952 1025 1023
3 1026 1017 1023
3 1076 1075 1017
3 1024 945 1097
3 1025 952 1070
3 455 1034 1037
3 1025 1073 1077
3 1034 455 1032
3 931 932 1027
3 1027 932 1006
3 798 933 1028
3 410 1028 933
3 1030 608 809
3 1031 1029 936
3 950 1030 809
3 936 1029 1030
3 1032 1031 936
3 333 334 1202
3 1030 1229 936
3 1203 455 456
3 1039 950 452
3 1017 1026 1076
3 936 1034 1032
3 1035 1034 1033
3 1035 1033 1036
3 1035 1026 1037
3 1033 1039 1074
3 1036 947 1075
3 1077 1026 1025
3 1037 1077 458
3 946 1038 938
3 1074 1038 947
3 941 1038 1074
3 1229 1039 1033
3 1040 846 1048
3 1098 1040 1116
3 961 1041 849
3 658 1041 250
3 1043 1042 858
3 1044 1042 970
3 1099 858 857
3 976 1100 875
3 1146 1045 970
3 361 1044 855
3 1046 1045 251
3 962 1198 1199
3 853 1046 251
3 962 1046 656
3 622 1047 631
3 632 973 1047
3 1049 1048 843
3 1048 974 1078
3 1084 1049 1085
3 1084 863 1083
3 1086 374 705
3 1050 1214 1078
3 877 1051 680
3 895 1051 978
3 72 1052 264
3 889 1052 982
3 1054 1053 912
3 997 1053 992
3 1087 398 903
3 904 992 1054
3 918 1055 996
3 1053 1055 920
3 1056 1088 1089
3 1111 1112 1093
3 1205 1057 999
3 1008 922 1057
3 1205 612 1008
3 1003 1058 1205
3 1059 612 1072
3 1000 1008 1059
3 1069 1064 1068
3 1020 1062 1061
3 1020 1096 1062
3 1065 1063 807
3 1062 1068 1066
3 1230 1066 1064
3 284 1061 1063
3 1062 1063 1061
3 1060 1069 1068
3 591 1206 594
3 1067 1065 807
3 1065 408 409
3 1063 1062 1066
3 1068 1062 1060
3 1067 807 1231
3 1067 595 567
3 1060 1097 1069
3 1064 1066 1068
3 1213 945 946
3 1213 1207 1069
3 952 1013 1071
3 814 1070 612
3 1072 1071 1010
3 952 1071 1070
3 1059 1072 1010
3 612 1070 1072
3 1077 1073 457
3 1070 1073 1025
3 1033 1074 1036
3 1039 941 1074
3 945 1075 947
3 1017 1075 1024
3 1035 1076 1026
3 1075 1076 1036
3 458 1077 457
3 1026 1077 1037
3 1050 1078 974
3 956 1040 1078
3 1126 1118 1103
3 1125 1079 1116
3 1081 1080 672
3 1082 1080 1043
3 867 1081 672
3 1043 1081 362
3 1099 1043 858
3 1100 979 875
3 864 1050 1101
3 1084 1083 1049
3 1049 1204 1085
3 1084 373 862
3 826 1085 842
3 373 1084 1085
3 1102 705 716
3 1086 705 1102
3 904 1054 1087
3 398 1087 1054
3 1089 1088 992
3 1090 1088 1056
3 992 904 1089
3 1091 1089 904
3 1056 1093 1090
3 1113 1093 556
3 1193 1091 904
3 1092 1091 768
3 768 771 1094
3 1092 562 1111
3 1111 1093 1056
3 556 1120 1113
3 1225 1095 770
3 1092 1094 1115
3 1114 397 786
3 1115 559 562
3 1097 1015 1024
3 1062 1096 1060
3 1069 1097 945
3 1096 1097 1060
3 1116 1040 956
3 1098 1079 1117
3 979 1099 857
3 1043 1099 1082
3 1080 1100 976
3 979 1100 1082
3 974 1083 1101
3 864 1101 1083
3 714 1106 1105
3 1105 1104 1102
3 1106 1110 1103
3 1110 1109 1103
3 1118 1104 1103
3 1214 1104 956
3 1106 714 711
3 1104 1105 1103
3 1107 1106 711
3 1103 1105 1106
3 737 1107 711
3 1108 1107 733
3 734 1108 733
3 1108 735 1109
3 1134 1109 735
3 1116 1079 1098
3 1107 1110 1106
3 1109 1110 1108
3 1092 1111 1056
3 1112 1111 562
3 561 1112 562
3 556 1093 1112
3 560 1121 1113
3 1122 1121 789
3 1115 1114 559
3 397 1114 1095
3 1094 1095 1115
3 1115 1095 1114
3 1118 956 1104
3 1118 1126 1116
3 1117 1079 1128
3 496 1133 99
3 1126 1103 1109
3 1116 956 1118
3 893 1132 735
3 97 1131 1130
3 557 1120 556
3 560 1120 558
3 1002 1121 560
3 789 998 1122
3 994 1123 1122
3 1122 1123 1124
3 997 1123 994
3 1124 1123 1090
3 1093 1124 1090
3 1121 1124 1113
3 1134 1125 1109
3 1129 1125 1119
3 1109 1125 1126
3 1116 1126 1125
3 375 258 1127
3 1098 1127 258
3 1129 1128 1079
3 97 98 1131
3 1125 1129 1079
3 1129 1119 1130
3 1119 1132 1130
3 1130 1132 96
3 98 1128 1131
3 1130 1131 1128
3 1132 1119 1134
3 96 1132 893
3 98 1133 1117
3 1127 1133 375
3 1132 1134 735
3 1125 1134 1119
3 236 1135 229
3 219 1135 81
3 606 1136 235
3 442 1136 313
3 460 1137 245
3 439 1137 311
3 346 349 1138
3 847 1138 349
3 1140 347 644
3 1139 249 1141
3 1140 472 1215
3 347 1140 1139
3 1154 1141 249
3 957 1141 649
3 349 1139 1142
3 1141 1142 1139
3 248 356 1143
3 472 1143 356
3 852 1144 250
3 359 360 1144
3 251 1045 1146
3 363 364 1145
3 970 1043 1147
3 363 1145 1146
3 1043 362 1147
3 362 1146 1147
3 868 1148 376
3 1149 1148 259
3 877 1149 259
3 379 380 1149
3 436 1150 308
3 756 1150 279
3 558 1151 282
3 554 1151 405
3 332 451 1152
3 608 1152 451
3 357 249 1215
3 178 1153 470
3 1155 1154 357
3 649 1154 474
3 1155 357 473
3 474 1155 645
3 155 1156 154
3 853 1156 477
3 855 1157 361
3 481 482 1157
3 1146 1158 363
3 867 1158 362
3 860 1159 463
3 156 1159 487
3 864 1160 374
3 494 495 1160
3 867 1161 483
3 150 1161 498
3 147 1162 146
3 878 1162 502
3 147 1163 148
3 884 1163 513
3 536 1164 61
3 1164 532 1186
3 695 1187 1186
3 800 286 1182
3 1217 569 929
3 284 1166 1217
3 638 1167 339
3 815 1167 627
3 1219 622 637
3 1169 1220 1168
3 1220 1169 127
3 1219 1169 1168
3 657 641 1170
3 466 1170 641
3 869 1172 499
3 169 1171 663
3 979 1172 377
3 1173 1172 857
3 1173 857 858
3 663 1171 1173
3 1175 1174 524
3 676 1174 678
3 1176 524 390
3 1175 525 985
3 390 741 1176
3 525 1176 741
3 285 1177 411
3 694 1177 697
3 709 1178 710
3 515 713 1178
3 437 304 1179
3 1179 304 307
3 283 879 1180
3 552 1180 879
3 1028 1181 570
3 929 1181 410
3 1183 1182 575
3 1184 1165 1185
3 58 1183 575
3 1183 59 1216
3 800 1182 1184
3 1183 1184 1182
3 1186 1185 1165
3 1187 1185 1186
3 1164 1186 1165
3 1186 532 1224
3 697 1187 695
3 285 1185 1187
3 808 1188 605
3 951 1188 607
3 951 1189 811
3 35 811 1189
3 836 1190 102
3 1191 1190 834
3 834 839 1191
3 1191 839 1223
3 95 1192 892
3 96 893 1192
3 768 1193 769
3 1087 1193 904
3 1195 38 39
3 942 1194 940
3 1196 39 40
3 940 1194 1195
3 40 1197 1196
3 1209 1210 1212
3 934 1197 40
3 1197 803 1212
3 854 1198 480
3 1199 1198 855
3 1044 1199 855
3 1199 1045 1046
3 432 1200 431
3 971 1200 252
3 1201 77 241
3 517 1201 983
3 1029 1202 330
3 333 1202 1031
3 1031 1203 333
3 455 1203 1032
3 844 1204 843
3 1085 1204 842
3 1057 1205 1008
3 1003 1205 999
3 1064 1207 1206
3 1207 1208 1206
3 1069 1207 1064
3 1208 1207 943
3 1209 1208 943
3 1212 1211 1208
3 944 1209 943
3 1210 1209 940
3 1195 1210 940
3 1196 1197 1212
3 935 1211 803
3 1206 1211 594
3 1209 1212 1208
3 1212 1210 1196
3 1207 1213 943
3 945 1213 1069
3 1078 1214 956
3 1086 1214 1050
3 470 1215 472
3 357 1215 1153
3 1164 1216 60
3 1216 1165 1184
3 410 1217 929
3 284 1217 930
3 1219 1218 622
3 1221 1218 1168
3 1169 1219 638
3 1218 1219 1168
3 127 128 1220
3 128 433 1222
3 632 1221 431
3 1168 1220 1221
3 431 1222 433
3 1220 1222 1221
3 955 1223 839
3 1223 375 496
3 698 1224 529
3 1186 1224 695
3 1095 1225 397
3 773 1225 770
3 1228 395 899
3 900 772 1227
3 761 1227 907
3 900 1227 1226
3 900 1226 1228
3 395 1228 1226
3 1039 1229 950
3 1034 1229 1033
3 1066 1230 807
3 1206 1230 1064
3 1231 806 595
3 807 1230 1231
