# C5 best under the 5 mm max-deviation floor -- c5_1042 call 9
# interior RMSE 2.2129 mm over 860 verts
# max deviation from rest 5.6732 mm   crown 0.310174 m (target 0.312266 m)
v 0.59792328 0.02113320 0.00000000
v 0.58847582 0.11705511 0.00000000
v 0.56992983 -0.08628357 0.02987566
v 0.56630042 0.07286149 0.06062175
v 0.54842591 -0.24066152 0.00000000
v 0.54383244 -0.00053468 0.09373041
v 0.55040337 0.18217457 0.04253513
v 0.54593320 -0.07384455 0.06260819
v 0.52023097 0.05511068 0.12483737
v 0.50784039 -0.17605386 0.09147689
v 0.49603727 0.24198725 0.07467423
v 0.51720736 0.25480097 0.04025732
v 0.51537813 -0.21561357 0.07654448
v 0.50921809 -0.28602327 0.03421466
v 0.49569693 -0.02234036 0.13339700
v 0.50142552 0.16460924 0.11857524
v 0.47382944 0.10926122 0.16358062
v 0.48432889 -0.05983919 0.12323639
v 0.46833177 0.06854386 0.17135067
v 0.46249613 0.26557445 0.08150387
v 0.46239722 -0.20306142 0.14025339
v 0.46673697 -0.24130757 0.12327835
v 0.43770487 -0.03544949 0.16689156
v 0.44338427 0.13245447 0.17595363
v 0.44360989 0.37466310 0.03334193
v 0.44473345 -0.36206217 0.05465122
v 0.44168584 0.09326362 0.18849079
v 0.44540172 0.22325854 0.12692392
v 0.41597638 0.43107167 0.00000000
v 0.43242484 -0.41432756 0.00000000
v 0.43276729 0.05402845 0.19224113
v 0.44005181 0.17132737 0.16362788
v 0.41770132 -0.15704453 0.17292487
v 0.40540959 -0.23166887 0.17668627
v 0.40191640 -0.11707796 0.17234799
v 0.41342362 -0.27124758 0.16238810
v 0.41061108 0.11489989 0.19647018
v 0.41191892 -0.02074879 0.18687541
v 0.42115834 -0.33188055 0.11258595
v 0.38687251 -0.39906732 0.07743515
v 0.39517715 0.38584873 0.09161473
v 0.41222359 -0.05565017 0.17061690
v 0.37970914 0.29238013 0.13368485
v 0.36457900 0.06678210 0.21712186
v 0.41022690 0.15207159 0.18597332
v 0.36176292 -0.17073562 0.20336557
v 0.34702917 -0.26214215 0.19469199
v 0.36590639 -0.10907149 0.19125071
v 0.37679406 -0.44424587 0.02731564
v 0.34755614 -0.29385718 0.18038069
v 0.36777180 0.43769798 0.06430236
v 0.37936754 -0.00236804 0.20601560
v 0.35889977 0.35477801 0.14752980
v 0.38345372 -0.34107716 0.13306833
v 0.32884818 0.04820785 0.22237182
v 0.33343920 0.16935725 0.19949417
v 0.34982456 -0.40848878 0.08714046
v 0.33408282 0.28919552 0.17464870
v 0.31509134 0.50864238 0.00000000
v 0.34468685 -0.03303307 0.20807306
v 0.32829872 -0.23736334 0.20767984
v 0.32624476 -0.17121392 0.21328945
v 0.33817588 0.38511725 0.14598147
v 0.34833842 0.13249663 0.21060547
v 0.30892390 -0.27565975 0.19768357
v 0.30762826 -0.13711652 0.21656290
v 0.36137493 0.03079914 0.21518360
v 0.32208073 0.32005258 0.18531227
v 0.31541518 -0.31456141 0.17864382
v 0.32824098 -0.10379677 0.20761410
v 0.32795797 0.09322807 0.22087749
v 0.29838039 -0.38122382 0.12631644
v 0.27981820 0.44429344 0.14092228
v 0.29769976 0.35119534 0.18856564
v 0.29472836 0.24551898 0.19823261
v 0.28659626 -0.24032087 0.21142486
v 0.28714794 -0.17187849 0.21999265
v 0.27616976 0.28073290 0.21099952
v 0.26285461 -0.27153958 0.20382725
v 0.27068146 0.00971818 0.25448012
v 0.28124800 0.41468250 0.16863799
v 0.28636474 -0.33097253 0.16877694
v 0.26275950 -0.49795283 0.05596161
v 0.28672391 0.31635180 0.20220374
v 0.26050911 0.08407566 0.25257605
v 0.27088442 0.21404170 0.20930865
v 0.24361800 0.02070643 0.27888394
v 0.24451826 -0.48239500 0.08469647
v 0.26613968 -0.20594346 0.21922325
v 0.23723515 0.23453462 0.22169638
v 0.24917246 0.12127648 0.24630663
v 0.24300657 -0.23831204 0.21424169
v 0.23634975 0.37675894 0.20460342
v 0.23952611 0.46546707 0.13554619
v 0.23631253 -0.29905973 0.18938905
v 0.24072078 0.27359026 0.22070551
v 0.22235258 0.10202455 0.27093663
v 0.22319961 -0.11265406 0.27333763
v 0.20773461 -0.43179541 0.14690021
v 0.21063922 -0.01043363 0.28837449
v 0.22303099 0.33945991 0.21940179
v 0.20649491 0.17522118 0.25239026
v 0.23618298 0.06364705 0.28010172
v 0.21561103 -0.17609860 0.24629326
v 0.21280702 0.51698465 0.08175631
v 0.21832199 -0.26835675 0.20490648
v 0.20569068 -0.14701448 0.27535439
v 0.20718345 0.26023935 0.22631651
v 0.19057467 -0.40307340 0.17016386
v 0.17386060 0.39778419 0.19631517
v 0.21223682 0.03664325 0.29733323
v 0.17600315 0.28369845 0.22766790
v 0.19649171 0.46448750 0.14899343
v 0.19209923 -0.46283591 0.14443156
v 0.15858024 -0.07186354 0.29678940
v 0.17882942 -0.33500151 0.19089062
v 0.16543020 -0.01130580 0.29509362
v 0.18074334 0.15377646 0.27380255
v 0.17267116 0.19272657 0.26845884
v 0.18349536 -0.17803950 0.26683828
v 0.15022029 0.02376561 0.30670677
v 0.15582202 0.22813125 0.25206050
v 0.16721106 -0.14640031 0.28642243
v 0.16043288 -0.40765645 0.18678007
v 0.14604112 0.41890115 0.17716576
v 0.18166421 0.55251346 0.03186464
v 0.17848440 0.04627115 0.30321366
v 0.15120290 -0.30848853 0.20729088
v 0.13405539 -0.38674588 0.20136412
v 0.13801560 0.38305813 0.19710085
v 0.12246648 -0.00158520 0.29971398
v 0.15098560 -0.50693285 0.12275493
v 0.15227100 0.13131368 0.29134926
v 0.15078594 0.17162822 0.29047874
v 0.12733758 -0.14686770 0.28693964
v 0.11306770 0.03687209 0.30089479
v 0.16585862 0.48272392 0.12659573
v 0.12344005 -0.08804183 0.30316861
v 0.13873383 0.21131511 0.27933194
v 0.12907380 -0.46096054 0.17206312
v 0.14179028 -0.34692921 0.20641302
v 0.14178075 0.30435729 0.22344017
v 0.12000665 -0.25678583 0.23720979
v 0.11827405 0.43620425 0.15380457
v 0.13143846 -0.42609252 0.18998981
v 0.11228386 -0.05682628 0.29788257
v 0.12138224 0.15088216 0.30732402
v 0.12136296 0.18686669 0.29818767
v 0.08585045 -0.08447102 0.29704180
v 0.09355784 -0.20688768 0.27357633
v 0.10376074 -0.36350952 0.21207679
v 0.11490579 -0.52194511 0.12135778
v 0.11822380 0.11076171 0.30066500
v 0.10620968 -0.11707878 0.29525279
v 0.09143025 -0.47958631 0.17223481
v 0.08476213 -0.24201917 0.26516867
v 0.10157161 0.32278666 0.21450680
v 0.10133283 0.21432210 0.28548844
v 0.10797752 -0.32161482 0.21519797
v 0.09525261 -0.44406478 0.19212153
v 0.06952132 -0.17830081 0.28983238
v 0.08260386 0.09257078 0.30369793
v 0.08603153 0.13481178 0.31017433
v 0.08700225 0.26406381 0.24562384
v 0.07836626 -0.26978893 0.24163207
v 0.09006016 0.17688343 0.30492834
v 0.06727031 -0.05151081 0.29596484
v 0.07136011 -0.34071589 0.21799742
v 0.06513924 0.20199471 0.28601659
v 0.05563667 -0.21793784 0.28399474
v 0.06099014 -0.14345263 0.29033129
v 0.06094527 -0.57969715 0.03648398
v 0.05630187 0.52392680 0.09598709
v 0.05025228 -0.51888206 0.13008065
v 0.05682256 0.16173344 0.29780276
v 0.04334470 0.49321048 0.13042761
v 0.03652996 0.05167919 0.29656130
v 0.06134981 -0.42127622 0.20134287
v 0.04041010 0.38202273 0.19355204
v 0.02628079 -0.19482466 0.29491979
v 0.03673150 -0.11845598 0.29434752
v 0.04637421 0.08219666 0.30145679
v 0.03390599 -0.36050700 0.21321826
v 0.05102531 0.12099712 0.30301402
v 0.00196624 -0.12970234 0.29367179
v 0.04016706 -0.32600248 0.21702790
v 0.08088175 0.01084797 0.29861578
v 0.01570865 0.25392389 0.26507312
v 0.01676033 -0.23017397 0.27927457
v 0.01112896 -0.08761989 0.29373647
v 0.00340400 0.17635981 0.29659146
v -0.00514666 -0.16840715 0.29077631
v -0.00833826 0.59918350 0.00000000
v -0.00076876 -0.59992903 0.00000000
v 0.00110715 -0.54790064 0.09092917
v 0.02119756 0.54367061 0.09216194
v -0.00834543 -0.49684937 0.14168512
v 0.01148983 0.41215684 0.19565340
v -0.00584522 0.33789731 0.22044714
v 0.01626498 -0.47040347 0.16838441
v 0.02368886 -0.43420247 0.19015271
v -0.00535492 -0.37316247 0.20418794
v -0.01962671 -0.23656700 0.26525643
v -0.02016791 0.06284093 0.29557559
v -0.01186648 -0.20401360 0.28192582
v -0.05536156 0.26156382 0.26232471
v -0.04894250 -0.07519841 0.29234652
v -0.03307666 0.16697858 0.30724518
v -0.04393662 0.32832903 0.22476055
v -0.03569191 -0.34512630 0.20214114
v -0.03331150 0.36722309 0.21885281
v -0.08341400 -0.02144508 0.29333273
v -0.04274416 -0.38322091 0.18648891
v -0.02672174 0.40630506 0.20825239
v -0.05262429 0.19605190 0.30356302
v -0.05538391 -0.11857280 0.29218205
v -0.02670747 0.09753595 0.30134639
v -0.04723257 0.47066656 0.17830561
v -0.03905340 -0.48706765 0.13276207
v -0.04885130 0.52600473 0.12764224
v -0.07335551 0.03835419 0.29526938
v -0.07110416 0.16517990 0.29969305
v -0.04460793 0.56945243 0.06231801
v -0.06719938 -0.20392152 0.27323891
v -0.04462615 -0.57263376 0.04178777
v -0.05334830 0.13090379 0.30188346
v -0.08121145 0.20452657 0.29019068
v -0.08933988 -0.26307346 0.24103537
v -0.07105056 0.35643870 0.22343797
v -0.10961946 -0.04577821 0.29295993
v -0.09199928 0.07329531 0.29758224
v -0.09312797 0.26644283 0.24392202
v -0.08308545 -0.09405222 0.29279156
v -0.11046201 0.10838124 0.29555194
v -0.06930232 -0.16233673 0.28944139
v -0.08660549 -0.13014922 0.29688027
v -0.06174221 0.43686029 0.20021863
v -0.09809289 0.17535837 0.28445789
v -0.11184029 0.49692877 0.15382061
v -0.12351175 0.30913676 0.22004327
v -0.10954090 -0.32889504 0.20309628
v -0.08825320 0.23895346 0.27124015
v -0.12312580 -0.01553985 0.29519056
v -0.11599696 -0.11431680 0.29027874
v -0.10992551 0.34534150 0.21925195
v -0.10965294 -0.36812409 0.18564981
v -0.11209209 0.20837511 0.27092136
v -0.11170037 -0.15496526 0.29346938
v -0.11391596 0.04466650 0.29615915
v -0.14537603 -0.05418594 0.29498679
v -0.12345988 0.40663201 0.20317421
v -0.11366375 -0.40604199 0.16456198
v -0.13182497 0.07925194 0.30310204
v -0.12480446 -0.25219783 0.24113127
v -0.12492216 0.24070112 0.25117592
v -0.12862182 0.46492803 0.17325220
v -0.14915459 0.11484457 0.29889496
v -0.16631350 -0.46726632 0.12998217
v -0.13292530 -0.21863207 0.26848436
v -0.14654436 -0.13728256 0.28224805
v -0.14194787 -0.17862554 0.28033973
v -0.13002051 0.14191890 0.28648793
v -0.14788025 0.17215737 0.27213984
v -0.18666291 -0.04161645 0.29809573
v -0.13661144 0.51896131 0.12072845
v -0.13486666 -0.50945557 0.08389265
v -0.14958811 -0.30844946 0.21083294
v -0.18035428 -0.36988519 0.19462700
v -0.13565293 0.37133587 0.20953239
v -0.16206533 0.29909501 0.21040217
v -0.17693604 -0.08276571 0.28594680
v -0.17053520 -0.43887277 0.15501401
v -0.18451292 0.41787123 0.17460098
v -0.19270126 0.05878664 0.28285400
v -0.18539908 -0.33288736 0.20627961
v -0.16619818 0.14922425 0.28583533
v -0.15753956 -0.23416642 0.24208631
v -0.18916120 0.20768456 0.24189930
v -0.20068634 0.15351022 0.27388356
v -0.17715113 -0.16057471 0.26584542
v -0.16979252 -0.19944534 0.26030340
v -0.19927161 0.00030845 0.28732034
v -0.18513183 0.32748293 0.19473758
v -0.20637070 -0.45532297 0.14110973
v -0.20712580 0.09285915 0.28349515
v -0.18955762 0.47191825 0.14032064
v -0.19134134 -0.29495983 0.21365979
v -0.21179955 -0.39028938 0.18413531
v -0.23216409 -0.12545611 0.25031765
v -0.20205110 -0.25978373 0.21405124
v -0.21457102 0.51571651 0.07974997
v -0.21520552 0.12497042 0.27733863
v -0.21336880 -0.06983111 0.28351276
v -0.20661723 -0.42416910 0.16410583
v -0.22687956 -0.31913152 0.20655012
v -0.23036156 0.06965322 0.26572181
v -0.21274510 0.55944854 0.00000000
v -0.24113308 -0.54817384 0.00000000
v -0.23927218 0.41816662 0.13027123
v -0.26549254 0.00536881 0.25605137
v -0.23758398 0.10659509 0.26334411
v -0.23337494 -0.28140344 0.20854781
v -0.24320850 0.29521900 0.19190094
v -0.24519549 -0.46504326 0.11918933
v -0.24611030 -0.05956265 0.27335372
v -0.25212445 -0.37926054 0.18487128
v -0.24896207 0.23287698 0.21611032
v -0.26107226 -0.11564672 0.23726659
v -0.23949096 -0.24229449 0.20938891
v -0.27025382 0.46629911 0.07709789
v -0.27097498 -0.22215665 0.19961015
v -0.27184772 -0.06870545 0.24480229
v -0.28190413 -0.50675625 0.04112193
v -0.26086727 -0.34259561 0.19191749
v -0.26558884 0.51612416 0.03292297
v -0.26445897 0.08745521 0.24337188
v -0.27099253 -0.40687265 0.16277405
v -0.26067835 0.32595575 0.17297089
v -0.28409265 -0.02449842 0.23901227
v -0.28599256 0.02078959 0.23449219
v -0.26863942 0.26650014 0.20693913
v -0.27054925 -0.26326884 0.19944707
v -0.29002126 0.16291522 0.21929722
v -0.30431928 0.19477974 0.21804278
v -0.30599598 -0.16564048 0.20113544
v -0.29259130 -0.36798852 0.16956165
v -0.31002556 -0.43194755 0.11659972
v -0.33108718 0.38172999 0.12247539
v -0.32278462 -0.10012399 0.21427561
v -0.30239009 0.33060063 0.17028840
v -0.29709838 -0.32522537 0.18115546
v -0.33293010 0.09805361 0.20414371
v -0.33976493 -0.03361301 0.21436856
v -0.31064633 0.27075623 0.20109870
v -0.30665595 -0.13025879 0.21116522
v -0.31328334 0.13003316 0.21407909
v -0.33678356 -0.40228613 0.11974600
v -0.32927305 0.16706934 0.21246288
v -0.33603946 0.20568028 0.21187537
v -0.34002521 0.03102543 0.20476280
v -0.36125814 -0.28484606 0.14177387
v -0.34452168 -0.07355365 0.21579476
v -0.35754403 0.35818180 0.13878593
v -0.35570293 0.00331532 0.20787767
v -0.36117973 -0.11296495 0.20779829
v -0.36913592 0.30421130 0.16845861
v -0.35276845 0.46464876 0.02273859
v -0.36922472 0.10330475 0.18814648
v -0.37236974 0.25080963 0.19429948
v -0.37262031 -0.15068053 0.19653669
v -0.37036260 -0.05427889 0.21104513
v -0.38706052 0.13874038 0.18774072
v -0.36907515 0.17610758 0.20054571
v -0.38031347 -0.17958822 0.17948558
v -0.39748466 0.01061404 0.19386483
v -0.38583849 0.38807026 0.09218336
v -0.39102085 -0.37622796 0.08937720
v -0.38528718 0.33013800 0.14340735
v -0.39055701 0.27400205 0.17484352
v -0.41185831 -0.34916489 0.08118297
v -0.43289405 0.22094836 0.16075732
v -0.40484733 0.10874567 0.16834518
v -0.40406751 0.16817710 0.18372973
v -0.43897478 -0.05436405 0.18913618
v -0.42976737 0.41756567 0.00000000
v -0.39969539 -0.22769050 0.14093460
v -0.41630838 0.04406657 0.17071332
v -0.42565272 -0.09022650 0.19635141
v -0.43483602 0.36832572 0.06165252
v -0.44408303 -0.37237645 0.03132266
v -0.44403186 -0.12611857 0.17754659
v -0.46040031 0.30623243 0.09733848
v -0.44747490 -0.02273605 0.18109661
v -0.48163688 0.22869861 0.11223077
v -0.47200937 -0.18562497 0.13414629
v -0.46429991 0.19879871 0.13919461
v -0.45459087 0.15497145 0.14353408
v -0.47102708 -0.04412399 0.16869764
v -0.46065986 -0.25891365 0.08602316
v -0.48324084 -0.10766489 0.15961083
v -0.49981418 -0.15853562 0.12171305
v -0.50187206 0.32775772 0.00000000
v -0.51774197 0.26165131 0.04217365
v -0.49803878 -0.22831321 0.08076242
v -0.51191354 -0.27044644 0.03165139
v -0.50814935 0.21148091 0.08786674
v -0.53985722 0.01942067 0.09104830
v -0.54685542 -0.12730401 0.07763342
v -0.54694723 -0.16301078 0.05829224
v -0.56459698 0.00256351 0.06461948
v -0.55087500 0.17906483 0.03401703
v -0.57768408 -0.05802234 0.04018496
v -0.57616601 0.05475890 0.03240585
v -0.58888495 -0.11290137 0.00000000
v -0.59994477 0.00060879 0.00000000
v 0.33795591 0.46392130 0.06300285
v 0.42173768 0.37189087 0.06696516
v 0.13960520 0.52554911 0.07381632
v -0.11289416 0.56322685 0.06183128
v 0.23404871 -0.51450230 0.06151627
v -0.28447441 0.48625899 0.05036193
v 0.25811406 -0.44772689 0.09688919
v -0.03812649 -0.54788160 0.07606732
v -0.53435109 0.14668845 0.06134473
v 0.12168443 -0.55695725 0.06550325
v 0.52317693 -0.14182077 0.07250968
v -0.51190153 0.03633738 0.11295777
v -0.46759422 -0.22244879 0.11158763
v -0.47523756 0.31990911 0.06094300
v 0.46581329 -0.33112162 0.06162004
v -0.38209277 -0.45887926 0.00000000
v 0.36474848 -0.47311336 0.00000000
v 0.44204363 0.40260705 0.00000000
v 0.57521123 -0.16078255 0.00000000
v 0.16177262 0.57491088 0.00000000
v 0.57476550 0.16225195 0.00000000
v -0.16671224 -0.57341248 0.00000000
v -0.51834917 -0.29693121 0.00000000
v -0.02599468 -0.46282608 0.15719451
v 0.54601116 0.06723031 0.09477276
v -0.26622825 -0.48777278 0.08260087
v 0.43540832 -0.12408098 0.15043882
v 0.38218656 -0.30377638 0.16043018
v 0.49282810 0.04169231 0.15124049
v 0.30716691 0.28372669 0.19341749
v 0.10983782 0.40186066 0.17607299
v -0.58101696 0.01941925 0.03341656
v -0.18979095 0.38572320 0.17980413
v -0.23704406 -0.40769113 0.16993556
v -0.02073512 0.44133406 0.19272093
v -0.34891042 0.40206374 0.09544870
v -0.38824364 -0.34088321 0.10910520
v 0.47132008 0.23006023 0.10509149
v 0.39517662 0.03963910 0.20698278
v -0.26629964 -0.30328365 0.19801691
v -0.40449212 -0.05548249 0.20300380
v -0.06185059 0.39516971 0.21585243
v -0.23140192 0.14497247 0.25412679
v 0.26976133 0.04520870 0.25439256
v -0.35825006 -0.33116813 0.13897916
v 0.42706682 0.20481324 0.14985085
v 0.11707829 0.24416825 0.25639883
v 0.25516257 -0.11171959 0.24616253
v 0.08578535 -0.50820503 0.14260062
v -0.49959886 -0.12642437 0.13599148
v -0.14423798 -0.38592433 0.18436148
v 0.39962319 0.18619060 0.17345824
v 0.24600131 0.40953131 0.18274976
v 0.45993149 -0.38081059 0.00000000
v -0.47198784 -0.36611992 0.00000000
v -0.48209521 0.35380405 0.00000000
v -0.57878697 -0.14899495 0.00000000
v -0.17589951 0.57062554 0.00000000
v 0.59327775 0.06830031 0.00000000
v -0.59646612 0.03592828 0.00000000
v -0.04460660 -0.59561139 0.00000000
v -0.27564669 -0.52972597 0.00000000
v 0.52317095 0.28791025 0.00000000
v 0.20646325 0.49129565 0.11715284
v -0.03060391 -0.51988398 0.10982508
v 0.53824345 -0.21825487 0.03838416
v -0.49028833 0.19460645 0.11118586
v 0.51524811 0.01105842 0.12654442
v 0.44154367 -0.27201020 0.13548671
v 0.31126180 0.41587474 0.14514810
v 0.12248511 -0.49368303 0.14879593
v -0.07428278 0.54260714 0.10711487
v -0.44694599 0.33969435 0.07975255
v 0.48238646 0.00453737 0.15410818
v -0.52189769 -0.00523503 0.11958541
v 0.38367125 -0.14721882 0.19104267
v 0.40230670 -0.36478785 0.09920911
v 0.52817131 0.17512614 0.08303293
v 0.02024891 0.52073062 0.11851263
v -0.24983597 0.50328144 0.06425099
v -0.34138312 0.44613438 0.05089756
v -0.16775252 -0.49619308 0.10176001
v -0.33801073 0.24251184 0.20478925
v -0.55132205 0.07669544 0.05486904
v 0.24982246 0.51396195 0.06329350
v -0.56228078 -0.09270840 0.06272965
v -0.46639920 -0.34412010 0.02510911
v 0.48522567 0.27886405 0.05449097
v 0.34613992 -0.13846309 0.20587758
v -0.14539223 -0.34906519 0.20090226
v -0.31757898 0.35713887 0.14698123
v -0.45679474 0.03001376 0.15699917
v 0.06130469 0.45632533 0.14475898
v -0.17665574 -0.40576159 0.17794532
v -0.12769663 -0.44394762 0.14177373
v 0.38625181 0.21809489 0.15595162
v -0.39330335 -0.40651070 0.06259984
v 0.00318458 -0.33673814 0.21253698
v 0.33672325 0.00614814 0.21781248
v -0.04721070 -0.42358968 0.16689631
v -0.20627818 0.43508416 0.15008406
v 0.38104659 0.33443132 0.12958886
v 0.45044007 -0.16329036 0.14822748
v 0.54650903 -0.14567644 0.04602583
v -0.30234828 -0.24302563 0.18353141
v 0.24748794 -0.01900445 0.26640859
v 0.26878761 -0.08277468 0.23927545
v 0.11690595 -0.23117674 0.25459644
v -0.02859058 -0.26355314 0.24835946
v -0.36201090 0.47536004 0.00000000
v -0.59620458 -0.03858358 0.00000000
v 0.52908826 -0.27683973 0.00000000
v 0.27970111 0.52755880 0.00000000
v 0.30030006 -0.51654845 0.00000000
v -0.29189527 0.52104092 0.00000000
v -0.52032018 0.29324374 0.00000000
v -0.32264130 -0.48708561 0.03481639
v 0.58105752 0.08296249 0.02735171
v 0.27733805 0.47084241 0.11321026
v -0.49977512 -0.02662803 0.14553608
v 0.37008071 0.41245937 0.09450620
v 0.04252075 -0.54484197 0.09895247
v 0.14045521 -0.53407603 0.09472685
v 0.22120017 0.43824208 0.16690587
v -0.52780573 -0.23370014 0.04129554
v 0.54103675 0.22018013 0.03227693
v 0.05431720 -0.49023113 0.16028461
v 0.50068536 0.20365604 0.09916618
v -0.22420969 0.45791104 0.12392867
v 0.36851028 -0.37809489 0.10997912
v -0.30953572 0.40502265 0.10264690
v -0.43411972 0.18193256 0.16459728
v -0.30432990 -0.40301488 0.14414877
v -0.04245081 0.55229018 0.09321506
v -0.41570662 -0.31623320 0.08804383
v -0.55416698 -0.05808732 0.08185865
v 0.43760486 0.25324827 0.10695708
v 0.57474157 -0.04367030 0.03903261
v -0.39179591 0.35618430 0.11718490
v -0.16859655 0.45261513 0.16426535
v 0.15873031 -0.47714032 0.14892893
v -0.47325441 -0.14679587 0.15162398
v -0.28558351 0.30002413 0.19038710
v -0.44553808 0.05969580 0.14580818
v 0.44695360 -0.06185978 0.14722669
v -0.30185905 -0.28426790 0.18414687
v -0.56070718 0.14186948 0.02803414
v 0.31152580 0.13389830 0.21676406
v -0.15902440 0.39717898 0.19469438
v 0.44789886 0.34073181 0.05267757
v 0.17837891 0.53550803 0.06193943
v -0.47857862 -0.28293607 0.05435172
v -0.34171643 -0.18301040 0.18619298
v 0.53267998 -0.18110478 0.06080108
v -0.40166874 0.23757534 0.17937077
v 0.27768497 -0.30289626 0.18791588
v 0.16935518 -0.37308111 0.19006457
v -0.40891692 -0.19395575 0.16267195
v -0.22428042 0.26350819 0.20739719
v 0.45663047 -0.31511923 0.09222386
v 0.19946778 -0.53096506 0.06439197
v 0.37185499 0.37858986 0.12073787
v 0.58531786 -0.00293930 0.02890870
v -0.34012792 -0.43180226 0.09220140
v -0.52575780 -0.16227078 0.09131480
v -0.53870294 0.22323102 0.03455203
v -0.48389608 0.16234111 0.11797260
v -0.22491591 0.53485938 0.04182386
v 0.39673879 0.40896775 0.06463351
v -0.00714666 -0.56848947 0.05826081
v 0.28889050 0.50692438 0.04008006
v -0.41688458 0.36194549 0.09119115
v 0.27921255 0.49173318 0.07870069
v -0.49940302 0.29641800 0.04215301
v 0.03949400 0.55844666 0.06703618
v -0.43804773 -0.20894290 0.13908091
v -0.57829104 -0.09331266 0.03016223
v -0.01313756 0.51835284 0.13251649
v 0.15617803 0.45196868 0.15340014
v 0.57010817 0.11178776 0.04355606
v -0.20819694 -0.53012262 0.05397737
v 0.52688665 0.09591316 0.11598358
v 0.02982142 0.46431453 0.15925845
v -0.44281747 0.28649030 0.12893269
v -0.33178283 -0.37064339 0.14493075
v 0.34215368 -0.36266675 0.13564601
v 0.46774316 -0.03148613 0.15030607
v 0.35417412 0.27170576 0.15640864
v 0.52843279 -0.25424151 0.02804324
v -0.54788031 -0.19766325 0.03485639
v -0.39430445 0.44885737 0.00000000
v 0.42931770 -0.19707758 0.16659181
v -0.47018269 -0.00515004 0.16422492
v -0.27710978 0.35418109 0.15105719
v 0.07872819 -0.53560298 0.11067310
v -0.25614379 0.44314280 0.10413644
v 0.48119624 -0.16957431 0.12130726
v 0.27288964 0.38166211 0.18962368
v 0.16176630 -0.54529158 0.06479103
v 0.36684260 -0.42831192 0.05683009
v 0.56706454 -0.14251435 0.01988956
v -0.29848362 0.49985887 0.02407813
v -0.32774759 0.42612067 0.07675350
v 0.29400072 -0.49505258 0.03126807
v 0.10205372 -0.57523492 0.03624173
v 0.41189927 0.23720158 0.13189051
v -0.49536771 -0.30141771 0.02394597
v -0.26899352 0.19879600 0.22006286
v -0.08243744 0.31942669 0.22482978
v 0.24011299 -0.42253692 0.12388740
v -0.07509673 -0.55124717 0.05617801
v 0.06640475 -0.38226768 0.21369509
v -0.35116504 0.27646944 0.19018163
v 0.33108577 0.35258036 0.16806518
v 0.53783319 0.03269808 0.10400823
v 0.20682719 0.56124371 0.00000000
v -0.44435945 -0.39978519 0.00000000
v -0.59269834 0.07418330 0.00000000
v 0.08388902 0.59174240 0.00000000
v 0.54562628 0.24589933 0.00000000
v -0.25794148 -0.02932016 0.26517077
v 0.17331146 0.50978660 0.09539971
v -0.49556928 -0.06711976 0.15172867
v 0.44865119 -0.00587127 0.17476256
v -0.17891340 0.18251653 0.26619569
v -0.10290912 -0.19358242 0.28334171
v -0.16059628 -0.00970783 0.29488058
v -0.42269122 0.14368505 0.16645068
v 0.20124064 -0.07592245 0.28225005
v 0.17939135 0.32838004 0.22139048
v 0.14585696 -0.17578928 0.27205707
v 0.43726311 -0.38805586 0.03179084
v 0.37004144 -0.23122991 0.19593747
v 0.44181069 -0.30197311 0.11878290
v 0.07856962 0.54464572 0.06319550
v -0.15192039 0.56201565 0.04151059
v -0.13923929 -0.53840835 0.05446691
v 0.49005278 -0.20973132 0.10925072
v 0.55066846 0.10558792 0.08207446
v 0.14396377 -0.56646296 0.03411969
v -0.07725761 0.56041978 0.07624776
v 0.48944454 -0.32064370 0.03464793
v -0.56762554 -0.12880855 0.03899207
v 0.22290183 -0.46386296 0.11769197
v -0.49688617 -0.25502014 0.06128018
v -0.02688638 0.58352581 0.03549119
v 0.13776950 0.34407792 0.21411052
v 0.02060608 -0.58367836 0.03304301
v -0.36367753 -0.37139141 0.11911517
v -0.09435300 -0.23227984 0.26420418
v -0.58281325 -0.01802423 0.03400016
v -0.52022529 0.22925657 0.06087209
v 0.40064421 -0.44365448 0.00000000
v -0.24525822 -0.52956398 0.03236790
v -0.15031137 0.48586847 0.14785251
v 0.27278024 -0.35680831 0.14863937
v -0.10599336 0.44052858 0.19499996
v 0.49982143 0.08275750 0.14616540
v -0.40874395 0.29941437 0.14945043
v -0.44294959 -0.17019191 0.16083281
v 0.46697508 0.34603130 0.02564567
v -0.18568453 0.12094925 0.29209894
v 0.14237946 0.55444435 0.03833677
v -0.49983259 -0.19419502 0.10313448
v 0.55358011 -0.17843482 0.02935886
v 0.47373220 0.15051780 0.15012789
v -0.08056593 -0.57716097 0.02337975
v -0.22378896 -0.03100209 0.28469563
v -0.54621098 -0.02097962 0.09324251
v 0.22333312 -0.53963562 0.03309387
v 0.42688349 0.32783314 0.08009316
v 0.00424624 0.37584395 0.21046298
v -0.06889015 -0.52231490 0.08647184
v 0.25043692 0.31054091 0.21664728
v -0.53036351 0.05952126 0.08313432
v 0.49671992 -0.13586204 0.09966437
v 0.09883072 -0.40474871 0.20480123
v 0.30699830 0.38479683 0.16988769
v 0.34913438 -0.32931824 0.15858234
v -0.40384688 0.41847874 0.03584031
v -0.43434695 0.00883240 0.17897148
v 0.14704896 -0.11419077 0.30018131
v -0.38593226 -0.08646017 0.20884230
v -0.56063014 0.20884998 0.00000000
v 0.24307497 0.54713589 0.00000000
v -0.51412986 -0.09276367 0.13074943
v -0.09872266 0.38118225 0.21663707
v 0.32539095 0.25187132 0.17867951
v 0.56823368 -0.00273831 0.05960465
v -0.02162335 0.20730954 0.29874035
v 0.22227581 -0.39369820 0.14861528
v -0.41898919 -0.40457866 0.03226816
v 0.29863672 0.16930950 0.20730102
v -0.23317472 -0.49134436 0.09502306
v 0.00886199 0.49640307 0.14782270
v -0.14857588 0.33549826 0.21089789
v -0.49206985 0.01437881 0.14003149
v -0.08955812 0.41427474 0.20950362
v 0.34121364 0.44110635 0.09330900
v 0.49206110 -0.24942192 0.09135283
v 0.46548591 -0.35528244 0.03062279
v -0.19042953 0.55402559 0.03098098
v -0.10933979 0.54448804 0.09843988
v -0.01609598 -0.58490136 0.02714929
v -0.52590256 -0.19829512 0.06929855
v -0.43323804 0.39089007 0.03476936
v -0.24215722 -0.51076494 0.06457799
v -0.36637234 -0.40469461 0.09262588
v 0.03944946 0.59611928 0.00000000
v 0.17683886 -0.52011135 0.09501140
v -0.30080671 -0.47958608 0.06832215
v 0.10622461 -0.54471879 0.09348951
v -0.38986061 -0.43394452 0.03280422
v -0.27651961 -0.43610170 0.13443956
v -0.00577698 0.56501331 0.07081855
v 0.40186552 0.35185723 0.10054732
v 0.52467996 0.21408816 0.06359791
v -0.32773727 0.30443713 0.18384901
v 0.27741258 -0.47005281 0.06611919
v 0.26149363 -0.52046949 0.02879547
v 0.13409334 0.49794357 0.10296702
v -0.53035214 0.19190663 0.06184230
v -0.38818627 -0.30196865 0.11654013
v -0.23536087 0.00665840 0.27101820
v -0.47247459 0.26760797 0.10636991
v 0.18389328 0.43226835 0.17529732
v 0.01184599 -0.52414147 0.11984308
v -0.50400663 0.13368957 0.09197820
v -0.01123318 -0.40940227 0.19123353
v 0.56218070 -0.20373854 0.00000000
v -0.56714153 -0.18738475 0.00000000
v 0.35187578 0.48367769 0.00000000
v -0.54189104 0.25288740 0.00000000
v 0.12668239 -0.58555543 0.00000000
v 0.59307426 -0.07036635 0.00000000
v -0.00760515 0.47170472 0.17214703
v -0.51082111 0.17140794 0.08830703
v -0.03082549 0.49912928 0.15519812
v -0.41882920 -0.37562194 0.05978009
v -0.06104220 -0.45697067 0.14012954
v -0.01965560 0.24511195 0.28017421
v -0.20406799 -0.50811228 0.08523854
v -0.20762777 -0.18561730 0.24165003
v -0.37167757 0.41829719 0.06639729
v 0.58078504 0.03888462 0.03734072
v 0.21873984 0.53796872 0.04220465
v -0.17603173 0.52130530 0.09779559
v -0.00994230 0.13610288 0.30259239
v 0.07410680 0.48770137 0.11390337
v 0.31062125 -0.41117564 0.09624523
v -0.09318465 0.52307720 0.13012130
v 0.24428824 0.49360707 0.10055702
v 0.46911511 0.36962032 0.00000000
v 0.38281111 0.13360248 0.20192134
v 0.55024414 0.14400105 0.06537111
v -0.14588289 0.54337795 0.08154208
v -0.31497557 -0.45485021 0.09004102
v 0.51237004 -0.25282154 0.05804400
v -0.56610371 -0.03116921 0.06314812
v -0.35134669 0.13585740 0.20364921
v -0.40817833 0.39362142 0.06414623
v 0.31238028 0.44531914 0.11985588
v -0.42524309 0.26194426 0.15734341
v 0.25342477 0.43680053 0.15939304
v -0.42945349 -0.24407875 0.11546663
v 0.34242036 0.41383086 0.12114740
v -0.29283005 0.38048776 0.12759048
v -0.14576428 0.43159089 0.18603597
v -0.40325335 0.20073473 0.18387585
v -0.06624766 -0.49124927 0.11338093
v 0.40471307 0.31027222 0.10771632
v 0.46985169 0.19333001 0.13438159
v 0.03198668 -0.15743919 0.29773788
v -0.35780735 -0.46130231 0.03281292
v 0.01639099 0.58076532 0.03755160
v 0.16565974 0.36408586 0.21119965
v -0.20664453 -0.54910822 0.02315287
v 0.02772626 -0.39761619 0.20493435
v 0.39262982 0.43422275 0.03409354
v -0.42387393 0.32634847 0.11707896
v -0.52382473 -0.12637444 0.11008904
v -0.24135887 -0.43569131 0.14936013
v -0.32422266 -0.34130833 0.16191908
v 0.56184721 0.20483784 0.00000000
v 0.20816483 -0.56083798 0.00000000
v 0.08397210 -0.59173423 0.00000000
v -0.55592757 -0.22435221 0.00000000
v -0.31076312 -0.51095587 0.00000000
v -0.47184757 0.12513489 0.12050636
v 0.26199443 0.34677705 0.20633929
v -0.07318744 0.57890420 0.03841778
v -0.13060168 -0.47837488 0.11281060
v 0.21013018 0.40488882 0.19112558
v 0.54702069 -0.03758609 0.07682744
v -0.23756860 0.48118217 0.09461386
v 0.21207878 0.30056121 0.22496610
v -0.54059116 -0.09050844 0.09941540
v 0.21268851 -0.50181848 0.09356406
v -0.55879411 0.03973181 0.06202050
v 0.18746361 -0.49020611 0.12120049
v 0.19053638 -0.20806142 0.24033137
v 0.19126994 0.07965951 0.29282774
v 0.55997517 0.03446155 0.07433718
v 0.14835941 0.06223349 0.29853407
v 0.34942990 -0.20225286 0.20669591
v -0.29612100 0.23209279 0.21355691
v -0.13596790 0.58273870 0.00000000
v 0.38042374 -0.26709026 0.18117681
v 0.51911077 -0.03092859 0.10926208
v 0.43833651 -0.23602838 0.15313081
v -0.44018673 -0.33805867 0.05727093
v 0.37924720 -0.04353128 0.19147586
v -0.45444852 0.24405512 0.13544517
v 0.18443705 -0.55420289 0.03372468
v 0.03376237 -0.56541798 0.06613028
v 0.30770528 -0.20568934 0.21641690
v 0.52855961 0.13591901 0.10173110
v -0.28466485 -0.46141671 0.10413956
v 0.39137793 -0.19165646 0.18975784
v 0.46769818 -0.27856097 0.10529697
v -0.36399738 0.37820189 0.11394937
v 0.00793239 -0.26161562 0.25904630
v 0.07635963 0.23824909 0.26759910
v 0.40456303 -0.41592345 0.03831492
v 0.38623139 0.45548278 0.00000000
v -0.41514957 -0.43175024 0.00000000
v 0.48766616 -0.34701583 0.00000000
v 0.24448305 -0.54638326 0.00000000
v -0.04987665 0.59509230 0.00000000
v 0.23754430 -0.08014513 0.26246869
v -0.18438561 0.53981158 0.06283590
v -0.17142198 0.36187346 0.19691589
v 0.16846231 -0.44046227 0.16857505
v -0.48893918 0.28370531 0.07244643
v -0.33494520 -0.45992588 0.06272559
v -0.49936831 0.24918035 0.08088656
v 0.32753897 0.48742972 0.03405192
v -0.17337730 -0.54804574 0.03878002
v -0.21514416 0.17716097 0.24668970
v -0.33676739 -0.14263361 0.20507853
v -0.07025331 0.49983716 0.15629863
v 0.03161584 0.34438620 0.21026577
v 0.01122029 0.21680771 0.28397316
v 0.10432490 0.36441522 0.19655760
v -0.25217047 0.54227424 0.00000000
v -0.34819371 -0.48669949 0.00000000
v 0.35741574 0.19727346 0.17909893
v -0.01971272 0.27468093 0.25146749
v -0.11232411 0.57675000 0.03113759
v -0.20664575 -0.10587453 0.26876551
v 0.05647563 -0.45776302 0.18305562
v -0.41136382 -0.15684138 0.18176485
v -0.37568172 0.03887539 0.19012471
v -0.01050421 -0.44132447 0.17736101
v 0.30878435 0.48539484 0.06078356
v -0.20432968 0.49329767 0.11150005
v -0.36954801 -0.20927881 0.16361767
v -0.05352316 0.23036722 0.28903785
v 0.51039135 -0.31181920 0.00000000
v 0.41327899 -0.30571848 0.13928937
v -0.37076350 0.21731947 0.19836520
v 0.41784369 -0.38251126 0.06468464
v 0.33326391 -0.38922411 0.11297125
v -0.56222791 -0.16451650 0.02813654
v 0.23669601 -0.14379382 0.24855818
v 0.37193575 0.16440768 0.19430560
v -0.17111557 0.08551028 0.29764704
v 0.42113921 0.01547626 0.19298725
v 0.36194571 0.46042344 0.03440069
v 0.35383469 0.31656189 0.15732521
v 0.01394198 0.44300401 0.18074956
v -0.20382416 -0.48197270 0.11502552
v 0.45898679 0.03007597 0.17480005
v -0.01209102 0.54094867 0.10676030
v -0.20562627 0.35681766 0.17605771
v 0.19874867 0.36817740 0.20948055
v 0.42033512 0.40472834 0.03510919
v 0.37183400 0.10220612 0.21150169
v 0.04303190 -0.59576648 0.00000000
v 0.48688969 -0.29105434 0.06921614
v 0.18563912 -0.11087694 0.29156065
v -0.17055795 0.49962689 0.12427925
v 0.01860765 0.28343489 0.23989411
v -0.15368282 0.05121603 0.29261531
v -0.14529190 -0.41777648 0.16517102
v 0.20229035 -0.36434766 0.17119039
v -0.37368619 0.43924110 0.03755815
v -0.34449442 0.33259497 0.16175553
v 0.31192237 -0.34845870 0.15360360
v 0.18558562 0.01448692 0.30157823
v -0.17130323 -0.52312539 0.07108336
v -0.46168230 -0.08337710 0.17729427
v -0.40194838 -0.12142494 0.19625886
v -0.33196544 -0.30508880 0.16402436
v 0.40446345 0.07839378 0.20651090
v 0.51631771 -0.06779886 0.09331494
v -0.45712209 0.38423386 0.00000000
v -0.08969717 0.59117037 0.00000000
v -0.59264344 -0.07474077 0.00000000
v 0.19175808 0.20872853 0.24327221
v 0.28205549 -0.02150199 0.24055611
v -0.20453438 -0.56193924 0.00000000
v -0.24220732 -0.09240454 0.26336012
v -0.22018105 -0.35580276 0.19789506
v -0.33256540 -0.26361596 0.16414441
v 0.12737680 0.46778581 0.12990706
v 0.50232414 0.12396961 0.13433440
v 0.07728096 -0.56018178 0.07243646
v -0.38058627 -0.02354061 0.20594043
v -0.18716424 -0.21577735 0.23690044
v 0.16072020 -0.20300033 0.25439407
v 0.02448691 -0.50111937 0.14642695
v -0.36505108 -0.43404135 0.06290745
v -0.47824660 0.05147142 0.13042649
v 0.26482321 0.24882614 0.21291068
v -0.21908820 0.39242027 0.15657063
v -0.52607396 -0.05140910 0.11897110
v 0.04664731 0.42275524 0.17255512
v 0.46704344 -0.12995007 0.12562573
v 0.34428184 -0.46082502 0.03209796
v -0.25427313 0.12629236 0.24053549
v -0.43986763 0.11630828 0.14499715
v 0.43519964 -0.34889325 0.08277356
v -0.08748352 0.47127896 0.18061654
v 0.31036039 0.46808478 0.09026422
v -0.41698463 -0.02180570 0.19453599
v 0.59738815 -0.02656682 0.00000000
v 0.32828492 -0.43587955 0.06662463
v 0.16753040 -0.57316428 0.00000000
v -0.46128142 0.35478009 0.03983009
v -0.08339666 -0.59179091 0.00000000
v -0.14105826 -0.56338188 0.02422908
v -0.53842467 -0.25937259 0.00000000
v 0.04664504 -0.25399625 0.26785339
v 0.56793028 0.14271569 0.03078283
v -0.49842712 0.07319372 0.10251935
v -0.48978545 0.32663678 0.02696542
v 0.06153780 0.57354381 0.03568216
v 0.03712546 -0.27955432 0.24053066
v 0.25503522 0.52761896 0.03205877
v 0.25242482 -0.32902396 0.17046173
v -0.00872436 -0.28581468 0.23534588
v -0.57134693 0.08968256 0.02651448
v -0.57406944 0.16454650 0.00000000
v 0.49961857 0.29364516 0.02747967
v 0.27274251 -0.53127831 0.00000000
v 0.58847582 -0.11705511 0.00000000
v 0.58847582 -0.11705511 0.00000000
v 0.56322896 -0.11288636 0.02635324
v 0.56322896 -0.11288636 0.02635324
v 0.51234609 -0.10341142 0.07501521
v 0.51234609 -0.10341142 0.07501521
v 0.53926277 -0.10845562 0.04946584
v 0.53926277 -0.10845562 0.04946584
v 0.49888572 0.33334476 0.00000000
v 0.49888572 0.33334476 0.00000000
v 0.47158200 0.31512281 0.03387354
v 0.47158200 0.31512281 0.03387354
v 0.45139414 -0.09188716 0.12557302
v 0.45139414 -0.09188716 0.12557302
v 0.48209921 -0.09768614 0.10059649
v 0.48209921 -0.09768614 0.10059649
v 0.44916999 0.29990831 0.05959119
v 0.44916999 0.29990831 0.05959119
v 0.42646837 0.28449175 0.08446784
v 0.42646837 0.28449175 0.08446784
v 0.41805664 -0.08562508 0.15009546
v 0.41805664 -0.08562508 0.15009546
v 0.37553370 0.24989195 0.13410352
v 0.37553370 0.24989195 0.13410352
v 0.40166181 0.26763627 0.10960796
v 0.40166181 0.26763627 0.10960796
v 0.34930420 -0.07263953 0.19365320
v 0.34930420 -0.07263953 0.19365320
v 0.38373014 -0.07914122 0.17267308
v 0.38373014 -0.07914122 0.17267308
v 0.34684095 0.23041433 0.15914837
v 0.34684095 0.23041433 0.15914837
v 0.33334476 -0.49888572 0.00000000
v 0.33334476 -0.49888572 0.00000000
v 0.30910447 -0.06507857 0.21548191
v 0.30910447 -0.06507857 0.21548191
v 0.30910447 -0.06507857 0.21548191
v 0.30910447 -0.06507857 0.21548191
v 0.31281817 0.20733176 0.18487439
v 0.31281817 0.20733176 0.18487439
v 0.29212159 0.06503782 0.22500455
v 0.29212159 0.06503782 0.22500455
v 0.28920069 -0.43587607 0.07355588
v 0.28920069 -0.43587607 0.07355588
v 0.30953640 -0.46558926 0.04047088
v 0.30953640 -0.46558926 0.04047088
v 0.28280562 0.10431235 0.22402436
v 0.28280562 0.10431235 0.22402436
v 0.26787859 -0.13830665 0.22097942
v 0.26787859 -0.13830665 0.22097942
v 0.28722978 -0.10546511 0.21927273
v 0.28722978 -0.10546511 0.21927273
v 0.27199954 0.14090239 0.22141024
v 0.27199954 0.14090239 0.22141024
v 0.26185542 0.17278443 0.21854991
v 0.26185542 0.17278443 0.21854991
v 0.26185542 0.17278443 0.21854991
v 0.26185542 0.17278443 0.21854991
v 0.28769961 0.19030121 0.20196329
v 0.28769961 0.19030121 0.20196329
v 0.25638902 -0.05524255 0.24583898
v 0.25638902 -0.05524255 0.24583898
v 0.24719223 -0.17133203 0.22160828
v 0.24719223 -0.17133203 0.22160828
v 0.23386067 -0.35480043 0.14939366
v 0.23386067 -0.35480043 0.14939366
v 0.20938723 0.13732691 0.25295132
v 0.20938723 0.13732691 0.25295132
v 0.23772183 0.15646650 0.23515160
v 0.23772183 0.15646650 0.23515160
v 0.23072481 0.19764674 0.22293524
v 0.23072481 0.19764674 0.22293524
v 0.20279977 0.21900170 0.22587331
v 0.20279977 0.21900170 0.22587331
v 0.17946132 -0.04093135 0.27369395
v 0.17946132 -0.04093135 0.27369395
v 0.21726750 -0.04798113 0.26212621
v 0.21726750 -0.04798113 0.26212621
v 0.19466677 -0.29738322 0.19165827
v 0.19466677 -0.29738322 0.19165827
v 0.21426953 -0.32609633 0.17133759
v 0.21426953 -0.32609633 0.17133759
v 0.17859456 0.11657529 0.26796058
v 0.17859456 0.11657529 0.26796058
v 0.17415600 -0.26735654 0.21100891
v 0.17415600 -0.26735654 0.21100891
v 0.17415600 -0.26735654 0.21100891
v 0.17415600 -0.26735654 0.21100891
v 0.13844995 -0.03331121 0.28234830
v 0.13844995 -0.03331121 0.28234830
v 0.11705511 0.58847582 0.00000000
v 0.11705511 0.58847582 0.00000000
v 0.10889823 -0.17224340 0.26555544
v 0.10889823 -0.17224340 0.26555544
v 0.11483874 -0.28332332 0.21654756
v 0.11483874 -0.28332332 0.21654756
v 0.11223466 0.27901456 0.22507951
v 0.11223466 0.27901456 0.22507951
v 0.11122047 0.56099516 0.02946597
v 0.11122047 0.56099516 0.02946597
v 0.10612373 0.53627408 0.05344394
v 0.10612373 0.53627408 0.05344394
v 0.10028554 0.50793988 0.08029734
v 0.10028554 0.50793988 0.08029734
v 0.08888341 0.45249325 0.12689592
v 0.08888341 0.45249325 0.12689592
v 0.09457993 0.48018870 0.10406030
v 0.09457993 0.48018870 0.10406030
v 0.08944770 -0.14397828 0.27484345
v 0.08944770 -0.14397828 0.27484345
v 0.07652583 0.04796923 0.28911063
v 0.07652583 0.04796923 0.28911063
v 0.08214827 0.41978380 0.15112376
v 0.08214827 0.41978380 0.15112376
v 0.06769414 0.34941980 0.19609252
v 0.06769414 0.34941980 0.19609252
v 0.07509685 0.38547015 0.17400806
v 0.07509685 0.38547015 0.17400806
v 0.05924906 0.30829886 0.21831481
v 0.05924906 0.30829886 0.21831481
v 0.05924906 0.30829886 0.21831481
v 0.05924906 0.30829886 0.21831481
v 0.08479892 0.29417783 0.22157677
v 0.08479892 0.29417783 0.22157677
v 0.09432865 -0.02520372 0.28723413
v 0.09432865 -0.02520372 0.28723413
v 0.05369503 -0.01778476 0.28883323
v 0.05369503 -0.01778476 0.28883323
v 0.03396152 0.18503265 0.27501392
v 0.03396152 0.18503265 0.27501392
v 0.01818895 0.10809048 0.28794089
v 0.01818895 0.10809048 0.28794089
v 0.02603714 0.14631972 0.28384486
v 0.02603714 0.14631972 0.28384486
v 0.01127403 0.07444169 0.28939939
v 0.01127403 0.07444169 0.28939939
v -0.01560295 0.29919043 0.22441114
v -0.01560295 0.29919043 0.22441114
v 0.01905397 0.30384290 0.22209346
v 0.01905397 0.30384290 0.22209346
v -0.02541005 -0.30985597 0.21249540
v -0.02541005 -0.30985597 0.21249540
v 0.03738611 0.02170912 0.28996867
v 0.03738611 0.02170912 0.28996867
v -0.00539751 -0.00689718 0.28887069
v 0.00399475 0.03899893 0.28984153
v 0.00399475 0.03899893 0.28984153
v -0.00539751 -0.00689718 0.28887069
v -0.00539751 -0.00689718 0.28887069
v -0.00539751 -0.00689718 0.28887069
v -0.00539751 -0.00689718 0.28887069
v -0.00539751 -0.00689718 0.28887069
v -0.00539751 -0.00689718 0.28887069
v -0.00539751 -0.00689718 0.28887069
v 0.02587868 -0.01266507 0.28897578
v 0.02587868 -0.01266507 0.28897578
v -0.02351216 -0.09999827 0.28330162
v -0.02351216 -0.09999827 0.28330162
v -0.01542005 -0.05804632 0.28669527
v -0.01542005 -0.05804632 0.28669527
v -0.07977096 -0.05618788 0.28387296
v -0.07977096 -0.05618788 0.28387296
v -0.04727518 -0.03466696 0.28682449
v -0.04727518 -0.03466696 0.28682449
v -0.06504017 -0.31508327 0.20779173
v -0.05853635 -0.28122762 0.22743459
v -0.05853635 -0.28122762 0.22743459
v -0.09650546 0.01251042 0.28510022
v -0.09650546 0.01251042 0.28510022
v -0.05633154 0.00391440 0.28763634
v -0.05633154 0.00391440 0.28763634
v -0.07427936 0.09918582 0.28452879
v -0.07427936 0.09918582 0.28452879
v -0.06504017 -0.31508327 0.20779173
v -0.06504017 -0.31508327 0.20779173
v -0.06504017 -0.31508327 0.20779173
v -0.08586590 -0.42444792 0.14213422
v -0.08586590 -0.42444792 0.14213422
v -0.09688760 0.13400617 0.27853915
v -0.09688760 0.13400617 0.27853915
v -0.11180378 -0.07740760 0.27914011
v -0.11180378 -0.07740760 0.27914011
v -0.10463807 -0.52348787 0.06311897
v -0.10463807 -0.52348787 0.06311897
v -0.11071783 -0.55556482 0.03321328
v -0.11071783 -0.55556482 0.03321328
v -0.11705511 -0.58847582 0.00000000
v -0.11705511 -0.58847582 0.00000000
v -0.13541389 0.27360669 0.22051904
v -0.13541389 0.27360669 0.22051904
v -0.14164908 -0.09718620 0.27284104
v -0.14164908 -0.09718620 0.27284104
v -0.17206669 0.02859430 0.27366787
v -0.17206669 0.02859430 0.27366787
v -0.13505171 0.02073493 0.28052920
v -0.13505171 0.02073493 0.28052920
v -0.17938893 0.26086593 0.21494071
v -0.17938893 0.26086593 0.21494071
v -0.17938893 0.26086593 0.21494071
v -0.17938893 0.26086593 0.21494071
v -0.20606209 -0.13979143 0.24663757
v -0.20606209 -0.13979143 0.24663757
v -0.17384247 -0.11853852 0.26203120
v -0.17384247 -0.11853852 0.26203120
v -0.20018071 0.29287609 0.19462915
v -0.20018071 0.29287609 0.19462915
v -0.21105097 0.03680719 0.26286608
v -0.21105097 0.03680719 0.26286608
v -0.22720678 0.19970039 0.22037382
v -0.22720678 0.19970039 0.22037382
v -0.20308162 0.23130098 0.21810444
v -0.20308162 0.23130098 0.21810444
v -0.21178795 -0.22383581 0.21377303
v -0.21178795 -0.22383581 0.21377303
v -0.23797490 -0.16081470 0.22778681
v -0.23797490 -0.16081470 0.22778681
v -0.23752075 0.35035113 0.15266126
v -0.23752075 0.35035113 0.15266126
v -0.21907087 0.32195038 0.17416961
v -0.21907087 0.32195038 0.17416961
v -0.25261679 0.16396831 0.22120583
v -0.25261679 0.16396831 0.22120583
v -0.25467902 0.37682933 0.12985034
v -0.25467902 0.37682933 0.12985034
v -0.28249323 0.05182253 0.22936705
v -0.28249323 0.05182253 0.22936705
v -0.24984126 0.04496212 0.24640957
v -0.24984126 0.04496212 0.24640957
v -0.26772919 -0.18041420 0.20732893
v -0.26772919 -0.18041420 0.20732893
v -0.26772919 -0.18041420 0.20732893
v -0.26772919 -0.18041420 0.20732893
v -0.23969364 -0.20249549 0.21087562
v -0.23969364 -0.20249549 0.21087562
v -0.28953433 -0.09901408 0.21536714
v -0.28953433 -0.09901408 0.21536714
v -0.27847791 -0.14256364 0.21172932
v -0.27847791 -0.14256364 0.21172932
v -0.27139866 0.40260822 0.10597790
v -0.27139866 0.40260822 0.10597790
v -0.28748956 0.42739570 0.08139905
v -0.28748956 0.42739570 0.08139905
v -0.29888567 -0.05512273 0.21699084
v -0.29888567 -0.05512273 0.21699084
v -0.30780816 -0.00187812 0.21572518
v -0.30780816 -0.00187812 0.21572518
v -0.31480426 0.05860887 0.21043049
v -0.30139762 -0.20269953 0.18564856
v -0.30139762 -0.20269953 0.18564856
v -0.31480426 0.05860887 0.21043049
v -0.31480426 0.05860887 0.21043049
v -0.31480426 0.05860887 0.21043049
v -0.33334476 0.49888572 0.00000000
v -0.33334476 0.49888572 0.00000000
v -0.31668523 0.47246897 0.03198845
v -0.31668523 0.47246897 0.03198845
v -0.30221054 0.45011234 0.05698010
v -0.30221054 0.45011234 0.05698010
v -0.38593897 0.07362247 0.16956212
v -0.38593897 0.07362247 0.16956212
v -0.35135713 0.06632444 0.19043817
v -0.35135713 0.06632444 0.19043817
v -0.38819063 -0.26017752 0.11751010
v -0.38819063 -0.26017752 0.11751010
v -0.42016077 0.08085062 0.14718984
v -0.42016077 0.08085062 0.14718984
v -0.41517809 -0.27804640 0.09166843
v -0.41517809 -0.27804640 0.09166843
v -0.44186240 -0.29571265 0.06500182
v -0.44186240 -0.29571265 0.06500182
v -0.49888572 -0.33334476 0.00000000
v -0.49888572 -0.33334476 0.00000000
v -0.46920216 -0.31380126 0.03500068
v -0.46920216 -0.31380126 0.03500068
v -0.51767302 0.10150043 0.06955557
v -0.51767302 0.10150043 0.06955557
v -0.58847582 0.11705511 0.00000000
v -0.58847582 0.11705511 0.00000000
v 0.05017767 0.26411894 0.24413139
v 0.05017767 0.26411894 0.24413139
v 0.04183414 0.22345904 0.26233873
v 0.04183414 0.22345904 0.26233873
v -0.16290924 0.23549636 0.23225233
v -0.16290924 0.23549636 0.23225233
v 0.15129252 -0.23395772 0.23404068
v 0.15129252 -0.23395772 0.23404068
v 0.12936091 -0.20200637 0.25207701
v 0.12936091 -0.20200637 0.25207701
v 0.14723188 0.09547733 0.27801105
v 0.14723188 0.09547733 0.27801105
v 0.11310738 0.07253937 0.28532237
v 0.11310738 0.07253937 0.28532237
v -0.12095267 0.17093843 0.26726121
v -0.12095267 0.17093843 0.26726121
v -0.14310533 0.20501624 0.25086018
v -0.14310533 0.20501624 0.25086018
v -0.05089436 -0.24160089 0.24717057
v -0.05089436 -0.24160089 0.24717057
v -0.04469470 -0.20956315 0.26051766
v -0.04469470 -0.20956315 0.26051766
v -0.05390479 0.06775816 0.28754905
v -0.05390479 0.06775816 0.28754905
v -0.03261882 0.03491528 0.28892836
v -0.03261882 0.03491528 0.28892836
v 0.06880937 -0.11406496 0.28095227
v 0.06880937 -0.11406496 0.28095227
v 0.04724394 -0.08285870 0.28523302
v 0.04724394 -0.08285870 0.28523302
v 0.02305381 -0.04791768 0.28775337
v 0.02305381 -0.04791768 0.28775337
v 0.25285009 -0.38259935 0.12522694
v 0.25285009 -0.38259935 0.12522694
v 0.27058932 -0.40859038 0.10072485
v 0.27058932 -0.40859038 0.10072485
v -0.45698717 0.08866553 0.12010714
v -0.45698717 0.08866553 0.12010714
v -0.48760098 0.09514164 0.09504683
v -0.48760098 0.09514164 0.09504683
v -0.07211883 -0.35219949 0.18762544
v -0.07211883 -0.35219949 0.18762544
v -0.07911734 -0.38894081 0.16551030
v -0.07911734 -0.38894081 0.16551030
v -0.29601455 0.09263597 0.21514452
v -0.29601455 0.09263597 0.21514452
v -0.27643245 0.12616682 0.21877407
v -0.27643245 0.12616682 0.21877407
v -0.09242262 -0.45908681 0.11691491
v -0.09242262 -0.45908681 0.11691491
v -0.09864695 -0.49190375 0.09012882
v -0.09864695 -0.49190375 0.09012882
v -0.18329881 -0.24391161 0.21503596
v -0.18329881 -0.24391161 0.21503596
v 0.29999116 0.02056522 0.22349592
v 0.29999116 0.02056522 0.22349592
v 0.30519721 -0.01871463 0.22064812
v 0.30519721 -0.01871463 0.22064812
v 0.22402528 -0.20385766 0.21939029
v 0.22402528 -0.20385766 0.21939029
v 0.19939350 -0.23620650 0.21579577
v 0.19939350 -0.23620650 0.21579577
v -0.05742440 0.29209468 0.22548915
v -0.05742440 0.29209468 0.22548915
v -0.09594586 0.28353983 0.22373997
v -0.09594586 0.28353983 0.22373997
v -0.11069092 -0.28986064 0.21278314
v -0.11069092 -0.28986064 0.21278314
v -0.15438260 -0.26307651 0.21503316
v -0.15438260 -0.26307651 0.21503316
v 0.01978297 -0.30282918 0.21620500
v 0.01978297 -0.30282918 0.21620500
v 0.06679513 -0.29400417 0.21768798
v 0.06679513 -0.29400417 0.21768798
v -0.33077210 -0.22215468 0.16451284
v -0.33077210 -0.22215468 0.16451284
v -0.36006826 -0.24155881 0.14167948
v -0.36006826 -0.24155881 0.14167948
v 0.14311634 0.25964552 0.22665344
v 0.14311634 0.25964552 0.22665344
v 0.17420749 0.23927803 0.22721149
v 0.17420749 0.23927803 0.22721149
v -0.54703337 0.10774694 0.04181641
v -0.54703337 0.10774694 0.04181641
v -0.56785458 0.11227905 0.02159024
v -0.56785458 0.11227905 0.02159024
v -0.03843864 -0.17732275 0.26976067
v -0.03843864 -0.17732275 0.26976067
v -0.03155136 -0.14169581 0.27741703
v -0.03155136 -0.14169581 0.27741703
f 658 1032 1040
f 480 747 568
f 546 741 126
f 566 59 508
f 611 741 680
f 459 747 105
f 51 396 694
f 757 465 761
f 872 413 29
f 545 656 25
f 952 940 950
f 523 712 11
f 521 615 12
f 750 575 930
f 798 740 4
f 420 4 634
f 730 533 3
f 944 596 942
f 753 584 461
f 695 633 22
f 875 555 410
f 696 627 449
f 30 449 627
f 648 819 49
f 627 857 819
f 412 915 975
f 599 974 986
f 793 556 400
f 665 400 556
f 405 707 903
f 699 456 194
f 662 606 1126
f 632 1127 1124
f 702 421 313
f 649 772 576
f 813 706 421
f 830 752 559
f 830 769 512
f 327 559 752
f 357 492 703
f 450 482 1213
f 520 384 700
f 585 726 782
f 389 700 560
f 792 776 681
f 455 395 427
f 794 387 670
f 794 390 387
f 393 938 613
f 561 391 717
f 932 511 569
f 383 831 829
f 569 829 409
f 372 409 829
f 775 534 567
f 739 756 356
f 365 675 586
f 882 476 347
f 840 315 563
f 1196 597 1194
f 315 401 475
f 291 475 790
f 697 297 563
f 877 851 286
f 698 467 636
f 641 770 193
f 193 770 704
f 173 570 196
f 630 1041 933
f 173 196 474
f 173 176 744
f 1041 630 1043
f 239 836 746
f 1048 901 716
f 125 574 144
f 901 574 137
f 901 1047 144
f 744 1045 173
f 744 488 1046
f 919 237 218
f 198 430 214
f 218 731 733
f 144 426 125
f 144 1054 426
f 488 744 176
f 237 437 214
f 214 211 667
f 157 642 839
f 1057 839 1058
f 667 837 179
f 437 229 211
f 229 437 682
f 211 209 199
f 211 214 437
f 157 1039 142
f 157 1065 1039
f 1061 1056 837
f 209 229 604
f 1284 604 240
f 209 1283 1078
f 1078 199 209
f 1060 878 1221
f 843 878 1079
f 1282 843 1079
f 1223 1070 169
f 169 158 818
f 1222 188 838
f 685 736 853
f 1071 838 191
f 188 1222 1221
f 843 736 188
f 184 175 1074
f 163 166 175
f 166 169 175
f 184 1073 182
f 1073 184 1074
f 162 184 182
f 184 163 175
f 1073 1076 182
f 182 1076 177
f 1077 1072 217
f 1085 1087 1086
f 1087 1085 177
f 1088 1077 204
f 1250 1096 1095
f 167 1250 1249
f 1100 190 1251
f 1104 1101 1093
f 207 1104 1103
f 1111 1105 1090
f 212 1111 1110
f 1112 1244 221
f 1244 1112 1091
f 1245 1088 204
f 1088 1245 1089
f 1085 1052 177
f 187 1084 1069
f 514 747 94
f 110 788 721
f 759 448 81
f 771 110 130
f 771 642 625
f 625 871 771
f 112 1298 1301
f 1299 122 1300
f 442 139 122
f 166 148 158
f 147 166 163
f 163 184 162
f 557 711 41
f 448 593 81
f 74 785 84
f 609 63 673
f 93 101 785
f 791 101 625
f 84 68 74
f 101 791 669
f 96 910 78
f 669 78 84
f 112 142 1298
f 108 1015 90
f 1015 108 1301
f 108 90 96
f 148 139 158
f 134 147 133
f 118 134 133
f 134 119 139
f 147 148 166
f 147 134 148
f 182 1052 162
f 153 163 162
f 766 497 43
f 766 666 711
f 961 766 967
f 683 425 75
f 964 43 583
f 84 425 68
f 75 78 910
f 86 1013 998
f 86 981 75
f 119 895 122
f 895 1012 1014
f 118 119 134
f 1008 118 1025
f 1232 153 162
f 1025 133 1231
f 153 1232 1231
f 153 1231 133
f 182 177 1052
f 958 20 483
f 523 767 16
f 601 966 965
f 491 842 447
f 532 433 20
f 965 972 491
f 441 447 32
f 842 980 56
f 56 688 543
f 861 749 45
f 995 543 688
f 543 995 989
f 91 1010 1009
f 91 85 988
f 1009 1024 97
f 1024 797 97
f 97 91 1009
f 799 1233 136
f 1053 136 1233
f 1230 799 797
f 767 433 28
f 634 812 577
f 45 24 32
f 24 45 37
f 64 873 749
f 71 64 543
f 44 873 71
f 103 85 97
f 85 983 988
f 103 797 111
f 87 111 100
f 136 131 121
f 797 799 127
f 127 799 121
f 902 812 16
f 420 634 577
f 863 868 31
f 653 19 424
f 52 863 434
f 863 619 868
f 44 55 67
f 890 44 434
f 982 55 71
f 494 1274 1277
f 55 494 67
f 439 103 87
f 439 1275 983
f 885 100 111
f 885 127 121
f 117 131 1031
f 117 885 121
f 131 136 187
f 804 6 463
f 8 533 789
f 891 957 946
f 38 23 619
f 954 18 540
f 42 540 23
f 42 963 540
f 494 60 52
f 60 1277 979
f 807 968 971
f 501 80 87
f 501 1019 1003
f 131 1067 1031
f 406 10 549
f 671 406 947
f 422 33 498
f 21 592 498
f 955 914 956
f 35 422 962
f 48 970 969
f 70 484 48
f 969 976 70
f 66 992 991
f 992 66 70
f 443 990 993
f 624 1018 1017
f 98 624 876
f 1017 1030 115
f 115 146 138
f 115 138 677
f 624 1017 115
f 167 146 1066
f 146 115 1030
f 1066 1068 167
f 146 167 149
f 21 587 805
f 464 629 815
f 14 875 637
f 34 814 628
f 46 814 471
f 22 805 464
f 800 814 46
f 800 811 61
f 46 62 800
f 77 1004 89
f 811 77 89
f 98 860 443
f 98 825 624
f 107 876 123
f 149 138 146
f 855 54 39
f 26 857 627
f 92 76 89
f 76 61 811
f 1004 77 991
f 89 1278 92
f 107 104 860
f 104 107 120
f 104 796 1279
f 104 1279 1005
f 626 123 135
f 154 138 149
f 154 677 138
f 149 1247 154
f 677 154 135
f 525 54 581
f 915 923 987
f 72 581 884
f 674 884 581
f 525 858 57
f 984 923 745
f 551 82 69
f 1252 72 651
f 72 1252 1255
f 651 936 1007
f 106 1281 1029
f 796 1227 1280
f 120 906 796
f 906 1227 796
f 1034 626 135
f 154 1247 1051
f 149 1249 1247
f 795 793 639
f 88 639 793
f 714 986 985
f 639 605 99
f 109 99 686
f 881 686 1006
f 686 605 1253
f 686 881 109
f 116 1022 1021
f 1026 128 1021
f 1026 1036 128
f 1226 503 143
f 156 143 503
f 150 1229 1035
f 150 156 503
f 143 156 165
f 1035 1050 161
f 181 171 1246
f 190 181 1248
f 181 1246 1248
f 402 639 88
f 536 114 828
f 466 152 132
f 635 405 600
f 145 828 124
f 124 129 145
f 522 846 200
f 178 672 607
f 129 672 145
f 151 159 168
f 168 186 183
f 165 1293 1037
f 180 192 205
f 181 768 171
f 174 590 444
f 160 155 140
f 444 522 174
f 201 846 178
f 607 168 183
f 1292 168 159
f 493 1291 1083
f 1291 493 186
f 189 170 180
f 937 1082 1290
f 929 170 189
f 189 180 205
f 606 668 1125
f 200 419 197
f 765 668 460
f 419 495 735
f 201 724 849
f 495 213 1263
f 724 213 495
f 210 202 493
f 210 1083 1115
f 504 1239 1108
f 1239 504 203
f 1308 192 185
f 203 1241 1239
f 1307 205 192
f 1100 1099 190
f 632 1124 266
f 1269 787 1270
f 477 787 258
f 284 258 272
f 490 1118 252
f 252 246 446
f 446 880 252
f 246 1262 1261
f 241 485 246
f 446 246 485
f 241 1261 1116
f 1238 645 228
f 224 1238 1240
f 224 1240 1306
f 1306 235 224
f 235 1306 1309
f 216 1309 1098
f 1098 1101 207
f 489 294 272
f 306 288 899
f 268 489 446
f 268 288 489
f 306 899 314
f 294 489 288
f 275 268 485
f 899 275 295
f 275 267 287
f 287 1289 290
f 645 254 228
f 277 1288 254
f 254 1287 228
f 645 259 254
f 224 235 621
f 235 236 248
f 621 235 248
f 207 216 1098
f 326 580 528
f 432 644 440
f 492 908 703
f 317 326 528
f 306 314 326
f 440 580 778
f 287 295 275
f 302 322 435
f 1289 287 267
f 290 1273 1154
f 1154 309 290
f 302 287 290
f 281 905 277
f 905 1155 1272
f 277 1272 1288
f 259 621 261
f 261 248 260
f 261 260 280
f 244 236 233
f 233 236 216
f 216 207 233
f 1210 806 530
f 806 370 734
f 440 778 889
f 541 889 331
f 806 734 360
f 541 331 435
f 1205 718 341
f 311 322 309
f 900 1294 1297
f 311 1174 1173
f 1173 1189 311
f 311 500 322
f 738 1175 1155
f 280 281 261
f 1143 738 280
f 280 1144 1143
f 280 260 1144
f 233 1122 244
f 244 1122 1132
f 1132 260 244
f 1103 1122 233
f 571 760 366
f 547 1211 379
f 553 655 571
f 553 571 366
f 1204 760 1209
f 847 553 354
f 1204 366 760
f 835 325 335
f 350 548 835
f 548 1295 1190
f 335 1178 1177
f 1178 335 325
f 308 289 898
f 308 312 1176
f 1157 1179 1171
f 1142 845 289
f 293 845 271
f 271 1145 1133
f 250 271 1133
f 250 1133 1123
f 1102 230 1123
f 243 212 1110
f 381 537 445
f 681 380 618
f 388 389 560
f 537 380 445
f 888 678 368
f 329 835 335
f 678 345 342
f 1177 1184 329
f 345 329 342
f 312 1185 1176
f 898 289 845
f 312 898 305
f 250 230 243
f 212 230 1102
f 445 776 381
f 912 618 515
f 887 618 380
f 378 373 588
f 912 470 664
f 436 921 364
f 436 678 351
f 1184 342 329
f 1184 1186 333
f 1186 344 333
f 319 1185 312
f 293 663 305
f 250 622 264
f 250 264 271
f 664 387 390
f 670 479 794
f 479 670 1216
f 1302 938 479
f 676 588 373
f 470 407 387
f 373 921 676
f 909 539 1256
f 355 344 848
f 848 367 355
f 848 1202 1201
f 1202 848 340
f 320 300 1168
f 320 1188 1187
f 616 719 300
f 1148 719 282
f 1168 1167 320
f 1135 1148 282
f 1110 1136 243
f 622 1136 1135
f 1136 622 243
f 212 243 230
f 732 723 562
f 1258 723 1217
f 1257 784 1258
f 527 764 361
f 623 377 917
f 462 376 374
f 352 363 623
f 917 1207 362
f 332 755 348
f 336 1264 1267
f 1264 336 332
f 296 1169 1149
f 285 301 296
f 301 316 296
f 879 1134 1137
f 274 862 285
f 249 1137 1109
f 221 249 1109
f 579 808 758
f 831 720 829
f 829 720 372
f 764 363 353
f 361 376 527
f 764 527 363
f 352 755 353
f 856 339 478
f 353 856 764
f 353 755 338
f 339 338 324
f 338 336 323
f 323 1163 603
f 1266 916 1162
f 657 257 276
f 279 657 276
f 292 301 285
f 257 862 253
f 534 775 358
f 359 654 758
f 356 756 567
f 358 343 534
f 321 538 334
f 339 801 478
f 801 324 603
f 1163 323 1267
f 1150 307 603
f 279 438 292
f 834 1162 438
f 657 292 285
f 257 657 862
f 257 234 262
f 231 253 249
f 253 231 234
f 534 816 356
f 739 598 476
f 476 1197 347
f 330 318 589
f 526 328 762
f 1182 598 526
f 318 330 538
f 303 318 538
f 318 1159 589
f 589 486 330
f 307 321 801
f 1160 303 1146
f 554 1153 1141
f 554 1141 1146
f 834 620 278
f 278 620 1237
f 1152 1225 1140
f 278 1152 1151
f 262 263 276
f 276 620 279
f 231 1114 234
f 1114 1120 234
f 231 1243 1114
f 1243 231 221
f 524 591 299
f 310 1199 1183
f 911 496 299
f 273 911 428
f 496 524 299
f 827 544 428
f 1161 283 870
f 269 827 691
f 283 1147 270
f 255 1224 1236
f 1224 1131 1139
f 247 227 242
f 227 238 222
f 247 242 255
f 238 1235 1121
f 1113 217 226
f 743 226 217
f 1121 222 238
f 204 1242 1245
f 1242 217 1113
f 650 265 877
f 251 763 544
f 919 652 237
f 535 763 256
f 245 682 269
f 270 240 691
f 682 693 251
f 604 1284 1283
f 604 245 240
f 232 255 242
f 232 1282 1285
f 232 1131 255
f 242 206 232
f 217 204 1077
f 208 222 226
f 864 832 396
f 514 920 568
f 397 711 666
f 802 844 893
f 475 291 563
f 88 714 402
f 460 668 403
f 462 386 732
f 391 542 404
f 172 600 903
f 547 379 640
f 387 407 670
f 571 408 760
f 637 696 822
f 638 388 481
f 411 708 821
f 25 748 413
f 660 725 414
f 415 126 611
f 385 928 418
f 583 683 973
f 53 865 497
f 901 144 574
f 1253 605 1254
f 219 419 735
f 419 849 495
f 852 553 366
f 737 702 576
f 752 813 327
f 498 914 422
f 69 50 65
f 376 808 374
f 19 653 17
f 284 304 867
f 777 294 429
f 746 467 698
f 1058 426 1054
f 531 754 392
f 427 395 646
f 881 552 109
f 827 283 691
f 430 866 731
f 218 237 430
f 608 334 713
f 378 364 373
f 328 431 816
f 816 534 343
f 492 357 734
f 11 20 433
f 433 532 28
f 44 890 873
f 61 65 47
f 79 76 92
f 921 904 355
f 801 603 307
f 608 478 334
f 853 242 227
f 325 548 1190
f 210 213 202
f 1057 157 839
f 916 301 438
f 1162 834 1151
f 270 691 283
f 128 141 116
f 165 156 929
f 70 48 969
f 860 104 1005
f 439 80 1275
f 341 718 440
f 767 28 441
f 441 491 447
f 1012 895 102
f 1151 834 278
f 319 320 1187
f 312 308 898
f 156 150 170
f 444 152 466
f 904 333 344
f 209 211 229
f 94 519 759
f 281 277 259
f 817 203 504
f 375 655 537
f 558 922 1
f 533 730 922
f 880 490 252
f 1220 164 1064
f 308 1179 1157
f 994 91 988
f 102 1008 1011
f 1225 278 1237
f 1224 255 1131
f 1003 896 501
f 1226 143 1027
f 160 846 155
f 595 40 57
f 191 1075 1071
f 262 1120 1234
f 1084 187 1053
f 1135 282 622
f 1149 274 296
f 135 1051 1034
f 1241 205 1307
f 1243 221 1244
f 1242 204 217
f 167 1249 149
f 1069 1067 187
f 701 925 369
f 820 864 774
f 809 924 780
f 631 802 453
f 513 740 454
f 393 455 427
f 662 926 456
f 313 783 457
f 480 105 747
f 617 137 459
f 197 460 722
f 660 549 461
f 13 753 461
f 376 462 562
f 239 265 650
f 73 465 757
f 673 593 74
f 132 536 466
f 444 155 522
f 381 375 537
f 384 408 659
f 775 579 654
f 463 469 15
f 709 813 304
f 387 664 470
f 429 317 777
f 349 359 550
f 359 758 550
f 378 887 364
f 69 65 551
f 95 551 79
f 54 472 39
f 812 750 473
f 51 564 774
f 176 474 690
f 529 220 869
f 310 475 401
f 476 1198 1197
f 886 477 737
f 856 349 550
f 693 652 251
f 871 788 110
f 105 480 741
f 792 388 776
f 141 129 552
f 159 128 1036
f 386 831 647
f 350 835 345
f 79 106 95
f 333 904 351
f 66 62 484
f 267 485 241
f 485 268 446
f 861 45 447
f 1164 762 589
f 692 588 487
f 367 539 487
f 578 176 690
f 767 441 32
f 19 31 868
f 489 272 880
f 294 288 429
f 490 258 787
f 956 671 947
f 957 18 954
f 601 441 28
f 703 337 644
f 90 1015 1013
f 493 183 186
f 1267 323 336
f 1042 658 1040
f 630 1045 1043
f 335 1177 329
f 309 1154 1174
f 159 1036 1292
f 1281 92 1278
f 66 991 77
f 52 67 494
f 837 1081 1061
f 307 1150 1153
f 1286 267 241
f 839 130 426
f 125 130 110
f 50 47 65
f 208 215 222
f 163 153 147
f 668 606 403
f 201 849 200
f 496 273 535
f 557 53 497
f 587 498 33
f 114 639 99
f 80 501 896
f 301 292 438
f 299 1181 1165
f 120 107 123
f 281 259 261
f 170 929 156
f 318 1160 1159
f 499 660 596
f 499 948 406
f 936 651 82
f 1206 539 367
f 970 35 962
f 971 42 807
f 900 541 500
f 818 442 164
f 1220 1223 818
f 1012 1011 997
f 895 119 102
f 206 853 736
f 100 501 87
f 281 280 738
f 1169 316 1166
f 1002 825 502
f 825 443 502
f 277 254 259
f 626 120 123
f 503 1226 1229
f 228 1107 1238
f 504 1108 937
f 642 157 142
f 106 1029 1020
f 348 1203 332
f 865 68 58
f 425 683 58
f 1260 210 1115
f 635 600 729
f 1024 1230 797
f 191 743 1075
f 1234 263 262
f 226 1121 1113
f 719 1148 1168
f 1246 171 1050
f 3 943 730
f 824 786 641
f 172 643 874
f 506 392 646
f 854 14 637
f 680 935 508
f 315 510 597
f 512 313 706
f 513 454 2
f 575 750 634
f 826 697 563
f 694 920 757
f 648 30 819
f 555 918 410
f 588 515 378
f 701 756 675
f 41 564 516
f 903 590 517
f 810 903 517
f 152 518 132
f 113 721 519
f 708 687 821
f 7 521 712
f 174 907 722
f 409 372 468
f 576 702 649
f 833 772 417
f 160 145 672
f 145 140 828
f 591 790 310
f 744 1049 1045
f 525 40 472
f 565 195 403
f 787 477 266
f 526 1180 1182
f 623 363 527
f 529 636 467
f 869 474 196
f 432 530 360
f 530 1208 1210
f 792 912 531
f 392 481 531
f 20 958 960
f 966 601 532
f 3 8 949
f 872 774 564
f 775 567 468
f 376 361 808
f 805 36 464
f 673 63 465
f 535 273 763
f 535 286 496
f 536 140 466
f 536 132 795
f 241 246 1261
f 538 713 334
f 62 66 77
f 108 96 791
f 1220 818 164
f 825 1002 1018
f 17 24 27
f 18 582 540
f 1229 150 503
f 368 887 371
f 1241 203 205
f 745 72 1255
f 1216 931 1259
f 404 723 732
f 595 915 49
f 113 459 137
f 1232 162 1052
f 322 500 541
f 543 64 56
f 543 989 71
f 273 428 544
f 846 201 200
f 353 338 339
f 948 499 944
f 8 891 946
f 545 959 953
f 397 545 25
f 105 617 459
f 314 295 435
f 401 1199 310
f 401 597 1196
f 226 743 208
f 913 1059 1055
f 578 731 866
f 1178 325 1170
f 1179 308 1176
f 345 888 350
f 45 749 37
f 385 547 640
f 1211 547 1215
f 1012 102 1011
f 1013 86 90
f 354 852 548
f 1083 210 493
f 1108 1082 937
f 992 70 976
f 443 993 502
f 1201 1206 367
f 980 842 972
f 683 981 973
f 270 1138 1130
f 1038 164 442
f 1265 316 1266
f 1264 332 1193
f 1268 735 1119
f 216 236 235
f 921 436 904
f 1160 318 303
f 870 1158 1161
f 1273 290 1289
f 1184 333 342
f 319 1187 1185
f 423 36 803
f 275 899 268
f 80 896 1275
f 1274 55 982
f 499 549 660
f 549 13 461
f 1150 603 1163
f 279 292 657
f 91 97 85
f 1283 209 604
f 432 440 718
f 776 388 560
f 213 210 1260
f 606 662 225
f 656 545 953
f 349 856 478
f 52 38 863
f 320 319 300
f 65 79 551
f 135 154 1051
f 1234 1237 263
f 1236 247 255
f 685 215 208
f 215 853 227
f 471 484 46
f 285 296 274
f 124 552 129
f 1087 177 1076
f 469 463 424
f 424 868 469
f 554 1146 303
f 429 306 317
f 430 198 866
f 753 875 14
f 705 594 556
f 400 715 83
f 516 557 41
f 105 741 546
f 658 546 126
f 109 828 99
f 789 684 6
f 706 830 512
f 700 659 560
f 265 698 751
f 650 535 256
f 483 11 12
f 200 907 522
f 24 37 27
f 949 945 3
f 561 383 728
f 377 376 562
f 742 751 826
f 41 397 564
f 566 850 832
f 566 480 568
f 984 745 1255
f 786 636 223
f 857 918 472
f 567 534 356
f 747 514 568
f 689 304 421
f 925 932 409
f 569 511 383
f 710 770 641
f 408 375 659
f 371 847 888
f 481 572 638
f 431 739 356
f 321 554 303
f 573 220 733
f 113 574 721
f 575 513 2
f 886 833 632
f 313 457 649
f 17 902 661
f 653 9 577
f 789 804 891
f 913 578 866
f 579 775 372
f 445 681 776
f 580 326 778
f 116 881 1022
f 1023 95 1020
f 884 674 69
f 651 884 82
f 18 15 582
f 23 540 582
f 389 859 585
f 585 782 520
f 586 347 505
f 498 587 21
f 34 805 587
f 588 676 487
f 1159 1164 589
f 762 486 589
f 174 517 590
f 370 806 482
f 734 370 687
f 1181 299 591
f 341 1297 1205
f 273 496 911
f 633 10 592
f 306 326 317
f 407 692 909
f 593 673 81
f 593 93 785
f 707 152 590
f 819 595 49
f 595 57 923
f 668 765 1271
f 1270 266 1124
f 596 944 499
f 597 401 315
f 284 294 777
f 598 1182 1198
f 526 431 328
f 599 715 509
f 600 781 729
f 600 405 903
f 601 965 491
f 1212 1215 602
f 958 483 952
f 55 1274 494
f 323 324 338
f 89 1004 1278
f 604 229 245
f 404 1303 1217
f 842 56 861
f 328 343 486
f 35 48 471
f 402 605 639
f 272 258 490
f 258 284 867
f 606 225 403
f 606 1125 1126
f 309 302 290
f 540 963 954
f 295 314 899
f 426 1058 839
f 1059 913 179
f 199 1078 1081
f 1174 311 309
f 1175 1156 1172
f 1152 278 1225
f 1153 554 307
f 1118 490 1269
f 1262 246 252
f 1280 1227 1028
f 1186 340 344
f 183 773 607
f 607 151 168
f 1116 1286 241
f 346 608 713
f 608 349 478
f 68 865 609
f 74 68 609
f 552 124 109
f 362 1207 1200
f 1292 186 168
f 1293 934 1290
f 179 913 198
f 1001 981 86
f 6 610 463
f 9 610 420
f 269 251 544
f 94 73 514
f 413 872 25
f 450 612 370
f 614 933 1041
f 616 312 305
f 616 300 319
f 836 218 733
f 239 919 836
f 617 546 398
f 137 617 716
f 227 222 215
f 238 247 1235
f 618 378 515
f 289 308 1157
f 582 619 23
f 403 195 460
f 620 263 1237
f 968 807 60
f 862 879 253
f 118 102 119
f 1168 300 719
f 316 301 916
f 621 248 261
f 622 250 243
f 161 170 150
f 352 623 362
f 623 527 377
f 1016 1019 100
f 1016 100 117
f 624 115 876
f 108 791 112
f 1103 233 207
f 626 1034 1228
f 27 890 31
f 890 37 873
f 627 819 30
f 40 857 472
f 61 628 800
f 814 34 587
f 423 855 36
f 629 39 555
f 832 727 59
f 570 933 770
f 630 173 1045
f 399 786 844
f 631 453 697
f 920 850 568
f 266 886 632
f 633 21 22
f 4 420 798
f 924 809 635
f 405 635 594
f 925 468 369
f 451 382 932
f 399 698 636
f 14 854 507
f 452 859 638
f 790 851 291
f 512 841 783
f 769 830 908
f 408 384 379
f 223 710 641
f 130 839 642
f 315 475 563
f 714 599 986
f 643 172 810
f 172 874 781
f 644 432 357
f 644 580 440
f 645 621 259
f 94 113 519
f 646 392 754
f 647 717 386
f 383 561 647
f 648 49 412
f 145 160 140
f 1195 347 1197
f 649 298 772
f 265 239 746
f 324 323 603
f 651 1007 1252
f 73 94 759
f 966 532 960
f 497 766 711
f 652 919 256
f 652 256 763
f 1180 526 762
f 1181 591 1183
f 424 9 653
f 653 577 902
f 346 654 359
f 654 579 758
f 371 537 655
f 748 25 656
f 656 953 951
f 847 371 655
f 553 847 655
f 546 658 398
f 560 381 776
f 1208 530 718
f 1209 379 1211
f 5 461 584
f 596 660 414
f 812 902 577
f 661 24 17
f 378 618 887
f 928 385 520
f 1144 260 1132
f 1145 271 845
f 722 517 174
f 565 810 195
f 662 1126 1129
f 562 784 377
f 719 663 282
f 515 470 912
f 664 390 754
f 665 780 823
f 83 714 88
f 666 961 959
f 545 666 959
f 559 337 703
f 901 137 716
f 398 1042 1044
f 667 179 198
f 667 211 199
f 619 582 469
f 668 1271 1125
f 849 419 200
f 669 84 785
f 96 669 791
f 931 1216 670
f 671 956 914
f 402 985 1254
f 1276 896 978
f 1277 60 494
f 79 92 106
f 811 800 62
f 151 607 672
f 672 178 160
f 442 158 139
f 442 1299 1038
f 500 311 1189
f 53 609 865
f 673 465 81
f 63 609 53
f 423 674 54
f 1289 267 1286
f 983 85 439
f 71 989 982
f 713 883 346
f 486 343 883
f 1284 240 1130
f 882 586 675
f 365 701 675
f 990 860 1005
f 946 949 8
f 143 165 1037
f 128 159 141
f 761 465 63
f 761 694 757
f 1263 213 1260
f 1262 252 1118
f 1294 500 1189
f 676 367 487
f 889 541 900
f 758 361 550
f 677 135 123
f 876 115 677
f 499 406 549
f 502 977 1002
f 342 351 678
f 678 436 368
f 679 561 728
f 510 1194 597
f 380 681 445
f 682 251 269
f 682 245 229
f 683 583 58
f 683 75 981
f 684 798 6
f 533 558 684
f 574 125 721
f 319 312 616
f 838 736 685
f 523 433 767
f 11 483 20
f 593 448 93
f 686 1253 1006
f 303 538 321
f 33 422 35
f 109 124 828
f 843 1282 206
f 687 612 821
f 708 492 687
f 276 263 620
f 688 1000 999
f 421 702 689
f 689 867 304
f 784 917 377
f 690 474 573
f 755 332 336
f 955 422 914
f 331 326 314
f 169 1070 175
f 141 552 116
f 691 245 269
f 487 909 692
f 1149 1134 274
f 237 214 430
f 22 815 695
f 875 753 695
f 4 740 513
f 183 493 202
f 637 822 854
f 346 358 654
f 425 78 75
f 68 425 58
f 697 826 631
f 297 697 453
f 698 399 751
f 565 225 699
f 700 384 659
f 700 585 520
f 925 892 451
f 701 369 756
f 702 313 649
f 337 559 327
f 703 644 357
f 704 933 614
f 793 795 705
f 706 313 421
f 813 752 706
f 788 871 93
f 9 420 577
f 518 405 594
f 708 411 769
f 304 777 709
f 709 327 813
f 570 710 196
f 529 223 636
f 564 51 516
f 774 872 29
f 711 557 497
f 938 1219 613
f 7 473 750
f 608 346 359
f 714 985 402
f 83 88 400
f 715 665 823
f 526 598 431
f 940 12 458
f 518 152 707
f 249 879 1137
f 310 1183 591
f 239 256 919
f 716 1044 1048
f 404 717 391
f 717 647 561
f 521 779 615
f 28 532 601
f 658 1042 398
f 1214 482 806
f 1215 547 602
f 718 1205 1208
f 873 64 71
f 581 54 674
f 72 858 581
f 720 579 372
f 574 113 137
f 721 125 110
f 488 1055 1046
f 583 973 964
f 264 663 293
f 331 314 435
f 459 94 747
f 537 371 380
f 192 180 768
f 936 551 95
f 1010 994 996
f 995 688 999
f 460 197 219
f 852 1296 1295
f 354 553 852
f 3 533 8
f 39 629 855
f 472 918 39
f 1166 1265 1191
f 155 444 466
f 723 404 1217
f 723 1258 784
f 1298 142 1039
f 792 681 912
f 566 935 480
f 1268 1271 765
f 765 460 219
f 284 272 294
f 153 133 147
f 724 201 773
f 724 202 213
f 725 660 461
f 726 585 859
f 894 572 392
f 832 864 727
f 728 383 511
f 649 457 298
f 385 418 602
f 351 342 333
f 36 34 803
f 14 507 584
f 32 447 45
f 33 35 471
f 422 955 962
f 289 1157 1142
f 528 709 317
f 731 218 430
f 731 690 733
f 732 562 462
f 732 386 717
f 733 690 573
f 733 220 836
f 734 687 492
f 360 734 357
f 495 1119 735
f 1268 765 735
f 736 838 188
f 225 565 403
f 248 244 260
f 231 249 221
f 576 886 737
f 867 689 737
f 1155 905 738
f 739 431 598
f 476 882 739
f 794 427 390
f 511 932 382
f 740 1 454
f 740 798 684
f 139 148 134
f 571 655 375
f 741 480 935
f 826 291 742
f 877 286 650
f 398 716 617
f 817 189 203
f 743 1072 1075
f 743 191 208
f 117 1031 1016
f 363 352 353
f 159 151 141
f 315 840 510
f 517 722 195
f 833 927 632
f 798 610 6
f 355 367 676
f 32 661 767
f 176 173 474
f 746 698 265
f 1131 232 1285
f 516 51 694
f 94 459 113
f 484 70 66
f 748 656 951
f 873 37 749
f 64 861 56
f 400 665 715
f 473 7 712
f 575 634 4
f 631 399 844
f 751 742 265
f 830 706 752
f 753 14 584
f 390 646 754
f 754 531 664
f 369 567 756
f 605 686 99
f 920 694 396
f 757 514 73
f 803 34 628
f 519 448 759
f 366 1204 1296
f 379 760 408
f 608 359 349
f 1198 476 598
f 1199 401 1196
f 761 516 694
f 557 63 53
f 762 1164 1180
f 762 328 486
f 599 714 83
f 987 923 984
f 117 121 131
f 618 912 681
f 515 692 470
f 763 273 544
f 763 251 652
f 1302 479 1216
f 570 173 630
f 764 550 361
f 699 643 565
f 219 735 765
f 609 673 74
f 205 203 189
f 766 961 666
f 766 43 967
f 661 32 24
f 767 661 16
f 768 185 192
f 161 180 170
f 530 432 718
f 769 908 708
f 769 411 841
f 770 933 704
f 871 625 101
f 771 130 642
f 868 424 19
f 520 640 384
f 772 833 576
f 772 897 417
f 578 488 176
f 374 386 462
f 720 831 374
f 545 397 666
f 547 385 602
f 50 69 674
f 423 50 674
f 178 607 773
f 85 103 439
f 10 671 592
f 775 468 372
f 775 654 358
f 625 642 142
f 1300 122 895
f 1301 108 112
f 627 696 26
f 381 560 659
f 258 867 477
f 10 633 13
f 592 21 633
f 777 304 284
f 777 317 709
f 433 523 11
f 67 434 44
f 38 52 807
f 1054 144 1047
f 779 7 416
f 665 809 780
f 781 600 172
f 596 414 942
f 569 383 829
f 584 507 5
f 638 394 452
f 1 740 558
f 783 313 512
f 59 566 832
f 646 395 506
f 151 129 141
f 784 1257 917
f 784 562 723
f 669 785 101
f 785 74 593
f 492 708 908
f 270 1147 1138
f 786 223 641
f 787 1269 490
f 787 266 1270
f 629 555 815
f 519 788 448
f 788 93 448
f 789 533 684
f 6 804 789
f 437 693 682
f 435 322 541
f 322 302 309
f 790 524 851
f 360 357 432
f 76 79 65
f 702 737 689
f 791 625 112
f 669 96 78
f 792 531 481
f 792 481 388
f 594 635 809
f 528 337 327
f 652 693 237
f 793 400 88
f 794 479 393
f 427 794 393
f 795 639 114
f 795 132 705
f 645 224 621
f 161 150 1035
f 180 161 768
f 796 1280 1279
f 104 120 796
f 610 9 463
f 187 136 1053
f 376 377 527
f 797 127 111
f 797 103 97
f 719 616 663
f 152 444 590
f 84 78 425
f 398 1044 716
f 798 420 610
f 267 275 485
f 362 348 352
f 1066 146 1030
f 1067 131 187
f 227 247 238
f 799 136 121
f 217 1072 743
f 62 46 484
f 61 47 628
f 397 41 711
f 1294 900 500
f 366 1296 852
f 1158 911 1165
f 321 307 554
f 410 26 696
f 802 631 844
f 122 139 119
f 688 56 980
f 132 518 705
f 803 628 47
f 803 50 423
f 804 463 15
f 18 891 804
f 20 960 532
f 186 1292 1291
f 67 52 434
f 390 427 646
f 805 34 36
f 805 22 21
f 1001 86 998
f 806 1210 1214
f 806 360 530
f 42 38 807
f 807 52 60
f 19 27 31
f 19 17 27
f 808 579 720
f 808 361 758
f 296 316 1169
f 133 1025 118
f 1228 906 626
f 809 665 556
f 810 517 195
f 810 565 643
f 408 571 375
f 222 1121 226
f 738 1156 1175
f 171 161 1050
f 171 768 161
f 61 76 65
f 811 62 77
f 178 773 201
f 813 421 304
f 557 761 63
f 814 800 628
f 814 33 471
f 815 555 875
f 815 22 464
f 1055 488 913
f 816 343 328
f 816 431 356
f 189 817 929
f 933 570 630
f 456 699 225
f 456 225 662
f 818 158 442
f 818 1223 169
f 724 773 202
f 915 595 923
f 888 368 371
f 659 375 381
f 638 572 394
f 820 774 29
f 822 696 449
f 542 939 1218
f 824 641 193
f 825 1018 624
f 825 98 443
f 580 337 528
f 81 73 759
f 223 529 710
f 352 348 755
f 826 563 291
f 826 751 631
f 60 979 968
f 827 269 544
f 827 870 283
f 391 561 679
f 404 732 717
f 542 1303 404
f 96 90 910
f 332 1203 1193
f 638 389 388
f 640 379 384
f 828 114 99
f 347 1195 505
f 830 559 908
f 831 383 647
f 831 386 374
f 200 197 907
f 858 745 57
f 927 1128 1127
f 712 12 11
f 288 306 429
f 247 1236 1235
f 1023 936 95
f 439 87 80
f 87 103 111
f 834 279 620
f 406 671 10
f 406 948 947
f 613 455 393
f 105 546 617
f 835 329 345
f 195 722 460
f 801 339 324
f 836 220 746
f 1056 179 837
f 837 667 199
f 838 685 191
f 838 1071 1222
f 264 293 271
f 264 282 663
f 1020 95 106
f 691 240 245
f 713 538 330
f 909 487 539
f 407 470 692
f 232 206 1282
f 1010 91 994
f 840 563 297
f 769 841 512
f 842 491 972
f 287 302 295
f 181 185 768
f 473 523 16
f 473 16 812
f 582 15 469
f 15 18 804
f 705 556 793
f 368 436 364
f 843 188 878
f 843 206 736
f 40 595 819
f 525 57 40
f 893 844 786
f 882 675 739
f 756 739 675
f 845 293 898
f 846 160 178
f 846 522 155
f 100 1019 501
f 847 354 350
f 848 344 340
f 848 1201 367
f 592 914 498
f 850 396 832
f 850 566 568
f 158 169 166
f 47 50 803
f 276 257 262
f 851 742 291
f 699 194 643
f 567 369 468
f 605 402 1254
f 524 286 851
f 286 535 650
f 157 1057 1062
f 13 695 753
f 539 1206 1256
f 852 1295 548
f 744 1046 1049
f 336 338 755
f 853 215 685
f 853 206 242
f 557 516 761
f 405 518 707
f 855 464 36
f 855 423 54
f 856 353 339
f 856 550 764
f 316 1265 1166
f 916 1266 316
f 214 667 198
f 92 1281 106
f 40 819 857
f 857 26 918
f 305 663 616
f 858 72 745
f 525 581 858
f 572 894 394
f 859 389 638
f 859 452 726
f 788 519 721
f 709 528 327
f 860 990 443
f 861 447 842
f 861 64 749
f 862 274 879
f 862 657 285
f 362 1200 348
f 575 4 513
f 634 750 812
f 863 31 434
f 863 38 619
f 346 883 358
f 864 51 774
f 820 727 864
f 482 450 370
f 12 712 521
f 240 270 1130
f 865 58 583
f 865 43 497
f 591 524 790
f 76 811 89
f 578 913 488
f 379 1209 760
f 9 424 463
f 114 536 795
f 588 692 515
f 687 370 612
f 867 737 477
f 868 619 469
f 869 710 529
f 869 573 474
f 799 1230 1233
f 465 73 81
f 870 827 428
f 428 911 870
f 871 110 771
f 872 564 397
f 872 397 25
f 44 71 55
f 140 536 828
f 140 155 466
f 256 239 650
f 746 220 467
f 118 1008 102
f 963 42 971
f 874 643 194
f 410 637 875
f 875 695 815
f 876 677 123
f 876 107 98
f 471 48 484
f 773 183 202
f 925 409 468
f 396 51 864
f 877 742 851
f 877 265 742
f 878 188 1221
f 878 1080 1079
f 879 249 253
f 879 274 1134
f 219 197 419
f 880 446 489
f 272 490 880
f 881 116 552
f 881 1006 1022
f 882 347 586
f 1082 1108 1106
f 594 705 518
f 809 556 594
f 883 330 486
f 883 343 358
f 884 69 82
f 884 651 72
f 125 426 130
f 13 549 10
f 220 529 467
f 573 869 220
f 885 111 127
f 885 117 100
f 886 266 477
f 886 576 833
f 887 368 364
f 887 380 371
f 834 438 279
f 142 112 625
f 888 847 350
f 888 345 678
f 814 587 33
f 889 778 331
f 889 341 440
f 890 434 31
f 890 27 37
f 644 337 580
f 629 464 855
f 475 310 790
f 891 8 789
f 891 18 957
f 892 701 365
f 893 786 824
f 894 392 506
f 524 496 286
f 895 1014 1300
f 896 1276 1275
f 897 772 298
f 898 293 305
f 234 257 253
f 1120 262 234
f 196 710 869
f 710 570 770
f 374 808 720
f 899 288 268
f 900 341 889
f 900 1297 341
f 731 578 690
f 901 1048 1047
f 461 5 725
f 902 17 653
f 902 16 661
f 295 302 435
f 903 707 590
f 903 810 172
f 244 248 236
f 542 391 939
f 1202 340 1192
f 1203 348 1200
f 282 264 622
f 715 599 83
f 904 344 355
f 904 436 351
f 905 1272 277
f 905 281 738
f 906 1228 1227
f 906 120 626
f 693 437 237
f 98 107 860
f 631 751 399
f 845 1142 1145
f 786 399 636
f 907 174 522
f 907 197 722
f 572 481 392
f 585 700 389
f 908 559 703
f 931 1256 1259
f 909 931 407
f 254 1288 1287
f 325 1190 1170
f 230 250 1123
f 910 90 86
f 75 910 86
f 299 1165 911
f 911 1158 870
f 548 350 354
f 325 835 548
f 685 208 191
f 334 801 321
f 334 478 801
f 495 1263 1119
f 645 1238 224
f 912 664 531
f 441 601 491
f 866 198 913
f 914 592 671
f 915 412 49
f 1074 175 1070
f 916 438 1162
f 116 1021 128
f 712 523 473
f 917 1257 1207
f 917 362 623
f 179 1056 1059
f 385 640 520
f 38 42 23
f 918 26 410
f 918 555 39
f 190 185 181
f 190 1099 185
f 919 218 836
f 101 93 871
f 740 684 558
f 54 525 472
f 129 151 672
f 920 396 850
f 920 514 757
f 724 495 849
f 921 355 676
f 921 373 364
f 1104 207 1101
f 1105 212 1102
f 1000 688 980
f 1080 878 1060
f 1081 837 199
f 533 922 558
f 738 1143 1156
f 923 57 745
f 122 1299 442
f 924 635 729
f 925 701 892
f 43 964 967
f 865 583 43
f 326 331 778
f 48 35 970
f 695 13 633
f 1111 212 1105
f 1112 221 1109
f 926 662 1129
f 927 1127 632
f 927 833 417
f 943 3 945
f 928 520 782
f 192 1308 1307
f 883 713 330
f 817 934 929
f 934 165 929
f 126 415 658
f 126 741 611
f 283 1161 1147
f 1251 190 1248
f 1250 167 1068
f 637 410 696
f 930 2 416
f 930 7 750
f 931 670 407
f 931 909 1256
f 932 925 451
f 932 569 409
f 614 1041 1033
f 817 937 934
f 934 1293 165
f 935 566 508
f 935 680 741
f 936 82 551
f 936 1023 1007
f 937 1290 934
f 937 817 504
f 938 1305 1219
f 938 393 479
f 939 391 679
f 12 940 483
f 2 930 575
f 1212 602 418
f 1308 185 1099
f 1309 216 235
f 940 952 483
f 940 458 950
f 482 1214 1213
f 7 779 521
f 930 416 7
f 12 615 458
f 715 941 509
f 1107 228 1287
f 927 417 1128
f 1220 1064 1063
f 1107 1287 1117
f 1084 1097 1069
f 542 1304 1303
f 1027 143 1037
f 977 502 993
f 978 896 1003
f 340 1186 1192
f 1188 320 1167
f 658 415 1032
f 974 599 509
f 975 915 987
f 1100 1251 1092
f 1064 164 1038
f 1065 157 1062
f 1096 1250 1068
f 1097 1084 1094
f 1305 938 1302
f 1304 542 1218
f 941 715 823
