# C5 FEM result, call 32
# interior RMSE 0.3608 mm, max deviation 0.7746 mm
# crown 0.311970 m (target 0.312266 m)
v 0.59792328 0.02113320 0.00000000
v 0.58847582 0.11705511 0.00000000
v 0.56787639 -0.08588681 0.02804237
v 0.56143723 0.07234115 0.05805690
v 0.54842591 -0.24066152 0.00000000
v 0.54144089 -0.00054259 0.09241612
v 0.54597595 0.18075060 0.03997110
v 0.54396360 -0.07330604 0.06091269
v 0.51678511 0.05493643 0.12290394
v 0.50578820 -0.17569094 0.08980438
v 0.49369109 0.24062199 0.07275192
v 0.51449128 0.25333814 0.03816176
v 0.51352157 -0.21479400 0.07536773
v 0.50553005 -0.28394758 0.03199474
v 0.49406129 -0.02212575 0.13241119
v 0.49796621 0.16351779 0.11646113
v 0.47297898 0.10925324 0.16411607
v 0.48244117 -0.05893687 0.12135200
v 0.46702426 0.06853203 0.17129509
v 0.46078338 0.26408167 0.07955807
v 0.46195700 -0.20263239 0.14047690
v 0.46401990 -0.23986080 0.12165085
v 0.43629546 -0.03471122 0.16541980
v 0.44223592 0.13205504 0.17571794
v 0.44139181 0.37290597 0.03155118
v 0.44097484 -0.35897244 0.05202926
v 0.44149799 0.09335009 0.19004498
v 0.44395445 0.22203343 0.12546234
v 0.41597638 0.43107167 0.00000000
v 0.43242484 -0.41432756 0.00000000
v 0.43180707 0.05416088 0.19228760
v 0.43914735 0.17110105 0.16370376
v 0.41721952 -0.15680811 0.17281895
v 0.40458835 -0.23125216 0.17673679
v 0.40084464 -0.11738578 0.17093064
v 0.41331307 -0.27107588 0.16353188
v 0.40983551 0.11452501 0.19644156
v 0.41093794 -0.02043221 0.18604067
v 0.41843212 -0.32944599 0.11065360
v 0.38520961 -0.39738086 0.07607344
v 0.39408211 0.38459449 0.09096476
v 0.41122519 -0.05500754 0.16923176
v 0.37791444 0.29206096 0.13214292
v 0.36418647 0.06674251 0.21778822
v 0.40946373 0.15178855 0.18604970
v 0.36153212 -0.17047936 0.20390929
v 0.34669029 -0.26180144 0.19552211
v 0.36504603 -0.10924368 0.18987750
v 0.37518608 -0.44222949 0.02548243
v 0.34688606 -0.29313450 0.18037738
v 0.36428222 0.43348630 0.06178294
v 0.37877639 -0.00230720 0.20572613
v 0.35871044 0.35410467 0.14806088
v 0.38160904 -0.33923383 0.13167464
v 0.32853548 0.04820081 0.22172756
v 0.33275514 0.16854112 0.19784611
v 0.34834008 -0.40607127 0.08499865
v 0.33277167 0.28890081 0.17368182
v 0.31509134 0.50864238 0.00000000
v 0.34406751 -0.03277885 0.20683717
v 0.32809944 -0.23730041 0.20911248
v 0.32585653 -0.17106888 0.21277359
v 0.33674611 0.38338272 0.14529275
v 0.34783857 0.13226598 0.21020835
v 0.30850014 -0.27506873 0.19749782
v 0.30732981 -0.13704208 0.21587134
v 0.36079803 0.03090007 0.21441999
v 0.32201127 0.31951361 0.18615791
v 0.31490227 -0.31416559 0.17891523
v 0.32763658 -0.10379741 0.20635789
v 0.32753327 0.09306061 0.21976992
v 0.29778860 -0.37927231 0.12443810
v 0.27873893 0.44272513 0.14079648
v 0.29704785 0.35043225 0.18877233
v 0.29374015 0.24540327 0.19699833
v 0.28631800 -0.23979130 0.21074345
v 0.28692431 -0.17173298 0.21925049
v 0.27605415 0.28034955 0.21172349
v 0.26253509 -0.27108069 0.20346010
v 0.27044193 0.00967282 0.25470311
v 0.28110667 0.41436244 0.16991540
v 0.28594749 -0.32957622 0.16746502
v 0.26172890 -0.49615992 0.05448684
v 0.28627310 0.31590436 0.20258712
v 0.26007214 0.08394134 0.25256890
v 0.27016476 0.21386115 0.20790132
v 0.24386446 0.02063253 0.28011440
v 0.24310741 -0.48032780 0.08294853
v 0.26596638 -0.20567546 0.21847994
v 0.23702596 0.23438898 0.22141696
v 0.24902765 0.12122643 0.24635285
v 0.24283248 -0.23790440 0.21326114
v 0.23622070 0.37685691 0.20675803
v 0.23817206 0.46272951 0.13425462
v 0.23611616 -0.29800034 0.18780123
v 0.24043840 0.27335370 0.22050589
v 0.22241796 0.10225865 0.27175458
v 0.22359473 -0.11269278 0.27456705
v 0.20658035 -0.43076235 0.14584699
v 0.21075580 -0.01070565 0.28951074
v 0.22291391 0.33936830 0.22157760
v 0.20664504 0.17521858 0.25284292
v 0.23642125 0.06381624 0.28138585
v 0.21507603 -0.17571838 0.24618774
v 0.21188408 0.51496067 0.08073978
v 0.21810379 -0.26772543 0.20361022
v 0.20610213 -0.14732825 0.27676156
v 0.20698050 0.26009782 0.22560463
v 0.18987623 -0.40235603 0.16964812
v 0.17359179 0.39734116 0.19701160
v 0.21251288 0.03668880 0.29915895
v 0.17589192 0.28352765 0.22756725
v 0.19599610 0.46399627 0.14949769
v 0.19225016 -0.46222807 0.14497601
v 0.15868382 -0.07164386 0.29799460
v 0.17793287 -0.33449433 0.18936043
v 0.16541178 -0.01140418 0.29585305
v 0.18086564 0.15371646 0.27444633
v 0.17272262 0.19271716 0.26916082
v 0.18364171 -0.17840477 0.26793899
v 0.15011614 0.02371916 0.30845649
v 0.15558236 0.22777387 0.25217938
v 0.16731773 -0.14659830 0.28775273
v 0.16052630 -0.40723729 0.18768972
v 0.14610009 0.41776552 0.17653459
v 0.18093150 0.54990496 0.03014735
v 0.17851352 0.04643679 0.30493669
v 0.15084654 -0.30813676 0.20627739
v 0.13396534 -0.38631493 0.20193265
v 0.13803910 0.38225865 0.19668427
v 0.12238046 -0.00179259 0.30074346
v 0.14998797 -0.50370136 0.12123553
v 0.15250865 0.13115873 0.29231006
v 0.15098559 0.17169408 0.29180645
v 0.12723766 -0.14702525 0.28782662
v 0.11290058 0.03700683 0.30199104
v 0.16561034 0.48131058 0.12591448
v 0.12335826 -0.08798082 0.30487934
v 0.13892025 0.21167129 0.28063663
v 0.12867087 -0.45998052 0.17242902
v 0.14165336 -0.34653313 0.20648926
v 0.14178583 0.30399475 0.22243239
v 0.11993223 -0.25653552 0.23712682
v 0.11872837 0.43460137 0.15227821
v 0.13138745 -0.42562932 0.19096327
v 0.11228714 -0.05661643 0.29895901
v 0.12161966 0.15085778 0.30921285
v 0.12153040 0.18719239 0.30008142
v 0.08567437 -0.08452961 0.29807777
v 0.09377527 -0.20695065 0.27441646
v 0.10354358 -0.36314400 0.21207104
v 0.11451031 -0.51963326 0.12074034
v 0.11834849 0.11061168 0.30161368
v 0.10604564 -0.11720815 0.29626418
v 0.09145908 -0.47970470 0.17399968
v 0.08503616 -0.24232845 0.26626118
v 0.10161160 0.32223934 0.21336998
v 0.10130497 0.21463359 0.28679805
v 0.10772824 -0.32136393 0.21410074
v 0.09541831 -0.44415283 0.19441426
v 0.06980973 -0.17829423 0.29109049
v 0.08264515 0.09235160 0.30486101
v 0.08595818 0.13475667 0.31196959
v 0.08691673 0.26399549 0.24579368
v 0.07819823 -0.26909919 0.24141116
v 0.08993553 0.17713168 0.30672351
v 0.06712743 -0.05143236 0.29708102
v 0.07133786 -0.34044945 0.21850864
v 0.06500891 0.20210302 0.28679952
v 0.05580877 -0.21818397 0.28552640
v 0.06119586 -0.14336519 0.29122822
v 0.06048437 -0.57512894 0.03405732
v 0.05563097 0.52246154 0.09450247
v 0.05012390 -0.51568465 0.12859415
v 0.05673582 0.16177128 0.29856925
v 0.04257807 0.49208220 0.12921287
v 0.03645431 0.05152109 0.29755133
v 0.06133399 -0.42095057 0.20257897
v 0.03973987 0.38147449 0.19189383
v 0.02621763 -0.19500906 0.29676231
v 0.03687126 -0.11832121 0.29543980
v 0.04618148 0.08211191 0.30265023
v 0.03406632 -0.36011445 0.21266528
v 0.05076052 0.12102679 0.30413603
v 0.00181045 -0.12964917 0.29469293
v 0.04025226 -0.32579832 0.21639154
v 0.08069984 0.01079586 0.29976968
v 0.01593521 0.25415821 0.26584970
v 0.01669277 -0.23040218 0.28055649
v 0.01107766 -0.08749589 0.29484878
v 0.00359029 0.17637578 0.29751932
v -0.00536018 -0.16843073 0.29182284
v -0.00833826 0.59918350 0.00000000
v -0.00076876 -0.59992903 0.00000000
v 0.00109916 -0.54547932 0.08965226
v 0.02101107 0.54200217 0.09110126
v -0.00842526 -0.49586403 0.14160559
v 0.01145742 0.41178865 0.19543664
v -0.00589122 0.33769260 0.21984001
v 0.01639677 -0.46934050 0.16829002
v 0.02380618 -0.43344152 0.19023263
v -0.00525730 -0.37266248 0.20385783
v -0.01969909 -0.23659593 0.26579601
v -0.02017903 0.06266659 0.29657233
v -0.01209772 -0.20410928 0.28292980
v -0.05533457 0.26138779 0.26284737
v -0.04885794 -0.07511604 0.29341605
v -0.03303642 0.16696599 0.30905108
v -0.04392811 0.32814205 0.22394123
v -0.03536984 -0.34453523 0.20080841
v -0.03332284 0.36691572 0.21843877
v -0.08328433 -0.02144251 0.29440278
v -0.04204889 -0.38231761 0.18487255
v -0.02657949 0.40604895 0.20877558
v -0.05280610 0.19625683 0.30560818
v -0.05521548 -0.11859754 0.29318945
v -0.02672832 0.09736889 0.30259315
v -0.04711490 0.46974641 0.17846594
v -0.03824401 -0.48533637 0.13131084
v -0.04859997 0.52306107 0.12629748
v -0.07325764 0.03823283 0.29634497
v -0.07133393 0.16514036 0.30096698
v -0.04423137 0.56457182 0.05987396
v -0.06708785 -0.20403593 0.27389016
v -0.04432745 -0.56986995 0.03988413
v -0.05353496 0.13076672 0.30306990
v -0.08139045 0.20464697 0.29147376
v -0.08928840 -0.26326043 0.24150263
v -0.07091201 0.35624254 0.22429834
v -0.10948306 -0.04595970 0.29399770
v -0.09181511 0.07333857 0.29865956
v -0.09297600 0.26590593 0.24376181
v -0.08315103 -0.09390103 0.29384292
v -0.11030507 0.10850363 0.29648266
v -0.06914962 -0.16241382 0.29050283
v -0.08656717 -0.13010226 0.29857721
v -0.06163429 0.43653778 0.20125840
v -0.09823167 0.17533479 0.28510050
v -0.11155103 0.49572641 0.15410243
v -0.12324371 0.30892216 0.21916627
v -0.10951194 -0.32835591 0.20203162
v -0.08848119 0.23920032 0.27232740
v -0.12305065 -0.01543065 0.29630460
v -0.11613645 -0.11417508 0.29129646
v -0.10958130 0.34505234 0.21858925
v -0.10984574 -0.36709943 0.18408488
v -0.11210334 0.20836346 0.27137790
v -0.11183436 -0.15502649 0.29524590
v -0.11392245 0.04446634 0.29715116
v -0.14533679 -0.05434126 0.29613137
v -0.12304831 0.40605778 0.20339321
v -0.11391541 -0.40486387 0.16314894
v -0.13176451 0.07918375 0.30482688
v -0.12453376 -0.25171988 0.24101496
v -0.12511768 0.24079447 0.25171561
v -0.12819975 0.46392340 0.17357768
v -0.14913435 0.11503899 0.30057585
v -0.16603584 -0.46565123 0.12889052
v -0.13308366 -0.21910729 0.26988412
v -0.14677712 -0.13718396 0.28327112
v -0.14216281 -0.17878418 0.28176964
v -0.12996377 0.14202148 0.28716002
v -0.14792270 0.17217248 0.27249286
v -0.18681178 -0.04165400 0.29999474
v -0.13568329 0.51586970 0.11940733
v -0.13476921 -0.50762995 0.08230105
v -0.14953530 -0.30801156 0.20963118
v -0.18012205 -0.36933847 0.19468965
v -0.13539621 0.37092746 0.20972856
v -0.16158580 0.29871420 0.20914182
v -0.17696914 -0.08299265 0.28692347
v -0.17021289 -0.43795337 0.15472786
v -0.18437891 0.41721471 0.17488058
v -0.19278628 0.05868713 0.28356426
v -0.18523072 -0.33237332 0.20595516
v -0.16626251 0.14957002 0.28721736
v -0.15735720 -0.23391037 0.24228512
v -0.18901797 0.20753538 0.24187550
v -0.20090460 0.15385371 0.27513031
v -0.17732392 -0.16056926 0.26658021
v -0.16998250 -0.19959862 0.26125418
v -0.19940349 0.00059230 0.28850649
v -0.18427833 0.32700249 0.19328287
v -0.20581723 -0.45428297 0.14093860
v -0.20732321 0.09289454 0.28468384
v -0.18929694 0.47088642 0.14041176
v -0.19113621 -0.29472135 0.21396573
v -0.21156274 -0.38960812 0.18442197
v -0.23243019 -0.12579160 0.25098465
v -0.20181592 -0.25963843 0.21306721
v -0.21370007 0.51354012 0.07862302
v -0.21566393 0.12520965 0.27886954
v -0.21361000 -0.07000466 0.28486090
v -0.20619280 -0.42291343 0.16366048
v -0.22677509 -0.31887394 0.20781376
v -0.23035984 0.06965218 0.26614391
v -0.21274510 0.55944854 0.00000000
v -0.24113308 -0.54817384 0.00000000
v -0.23778217 0.41707886 0.12867460
v -0.26586281 0.00561724 0.25688806
v -0.23783706 0.10662347 0.26425776
v -0.23294505 -0.28113747 0.20779637
v -0.24309611 0.29427457 0.19037860
v -0.24353214 -0.46176607 0.11713577
v -0.24669781 -0.05972996 0.27486132
v -0.25213327 -0.37928068 0.18682269
v -0.24877930 0.23260501 0.21530715
v -0.26091544 -0.11563598 0.23737420
v -0.23916502 -0.24212901 0.20865610
v -0.26894352 0.46483784 0.07556282
v -0.27031211 -0.22191135 0.19823395
v -0.27121980 -0.06857497 0.24475445
v -0.27956526 -0.50251046 0.03837980
v -0.26045158 -0.34219995 0.19246781
v -0.26418068 0.51360355 0.03102853
v -0.26442187 0.08741394 0.24358537
v -0.27091784 -0.40674278 0.16403591
v -0.26069454 0.32494174 0.17152253
v -0.28345350 -0.02440514 0.23877762
v -0.28570581 0.02075004 0.23424991
v -0.26832956 0.26631349 0.20699554
v -0.27009605 -0.26293649 0.19898171
v -0.28973601 0.16287602 0.21847211
v -0.30405600 0.19464867 0.21881682
v -0.30569371 -0.16515290 0.19950597
v -0.29157541 -0.36717213 0.16928641
v -0.30814374 -0.42942257 0.11512850
v -0.33062341 0.38069956 0.12156266
v -0.32252057 -0.09992138 0.21307001
v -0.30209540 0.32996396 0.16983552
v -0.29654825 -0.32471225 0.18126427
v -0.33225202 0.09811531 0.20283220
v -0.33939439 -0.03373287 0.21322661
v -0.31029498 0.27049994 0.20139872
v -0.30647386 -0.13008941 0.21041509
v -0.31289812 0.13003547 0.21328821
v -0.33448598 -0.39969233 0.11784222
v -0.32872708 0.16705372 0.21184327
v -0.33589787 0.20552512 0.21332494
v -0.33945184 0.03077251 0.20344434
v -0.35977571 -0.28446286 0.14030681
v -0.34421526 -0.07354984 0.21610947
v -0.35709466 0.35814497 0.13916525
v -0.35525883 0.00322775 0.20730109
v -0.36076989 -0.11265598 0.20700250
v -0.36819167 0.30349180 0.16838529
v -0.35208190 0.46359409 0.02146767
v -0.36819291 0.10354291 0.18662457
v -0.37243884 0.25092399 0.19644542
v -0.37228513 -0.15053538 0.19650841
v -0.36992242 -0.05439583 0.21081878
v -0.38618649 0.13870371 0.18709085
v -0.36846669 0.17596912 0.20057446
v -0.37980005 -0.17879947 0.17830621
v -0.39689846 0.01053772 0.19357732
v -0.38468343 0.38698471 0.09133798
v -0.38925114 -0.37454209 0.08788898
v -0.38378905 0.32898350 0.14264765
v -0.39015471 0.27390542 0.17602836
v -0.40971490 -0.34774014 0.07922218
v -0.43132487 0.22030247 0.16021344
v -0.40359515 0.10905358 0.16687080
v -0.40354936 0.16787329 0.18412164
v -0.43849397 -0.05435058 0.18981859
v -0.42976737 0.41756567 0.00000000
v -0.39919203 -0.22658459 0.13930791
v -0.41525485 0.04328408 0.16919298
v -0.42571233 -0.09031821 0.19823776
v -0.43109726 0.36514216 0.05903035
v -0.44203030 -0.37073952 0.02940217
v -0.44329210 -0.12568126 0.17754667
v -0.45785914 0.30457426 0.09613246
v -0.44700315 -0.02260389 0.18172361
v -0.47853808 0.22731745 0.11035635
v -0.47107650 -0.18528364 0.13373360
v -0.46321371 0.19827768 0.13900880
v -0.45274766 0.15497189 0.14216703
v -0.46987621 -0.04400054 0.16853497
v -0.45957266 -0.25773747 0.08406746
v -0.48280001 -0.10754856 0.16036042
v -0.49678170 -0.15738931 0.11981149
v -0.50187206 0.32775772 0.00000000
v -0.51356542 0.25954056 0.03965249
v -0.49592315 -0.22717030 0.07889759
v -0.50999499 -0.26926365 0.02977680
v -0.50599674 0.21058548 0.08665160
v -0.53755177 0.01928405 0.08959425
v -0.54295375 -0.12638109 0.07562864
v -0.54229754 -0.16155943 0.05554527
v -0.56193058 0.00261661 0.06309912
v -0.54809911 0.17828213 0.03201594
v -0.57299861 -0.05750987 0.03758733
v -0.57372948 0.05448231 0.03062564
v -0.58888495 -0.11290137 0.00000000
v -0.59994477 0.00060879 0.00000000
v 0.33494449 0.45977312 0.06089718
v 0.41992424 0.37043949 0.06556323
v 0.13948439 0.52384414 0.07255579
v -0.11210482 0.55949212 0.06037505
v 0.23300903 -0.51208993 0.05995650
v -0.28356784 0.48503685 0.04921580
v 0.25723196 -0.44678135 0.09592413
v -0.03765410 -0.54519654 0.07416612
v -0.53217389 0.14639334 0.05958921
v 0.12082534 -0.55270197 0.06356417
v 0.52182221 -0.14184873 0.07097084
v -0.51048706 0.03613088 0.11203687
v -0.46646037 -0.22174439 0.11040793
v -0.47208328 0.31783011 0.05931117
v 0.46232964 -0.32864923 0.05960310
v -0.38209277 -0.45887926 0.00000000
v 0.36474848 -0.47311336 0.00000000
v 0.44204363 0.40260705 0.00000000
v 0.57521123 -0.16078255 0.00000000
v 0.16177262 0.57491088 0.00000000
v 0.57476550 0.16225195 0.00000000
v -0.16671224 -0.57341248 0.00000000
v -0.51834917 -0.29693121 0.00000000
v -0.02552550 -0.46158443 0.15636009
v 0.54243604 0.06682505 0.09289052
v -0.26401098 -0.48375949 0.08000530
v 0.43423252 -0.12449877 0.14891041
v 0.38113615 -0.30266942 0.16008757
v 0.49088001 0.04163163 0.15043924
v 0.30637027 0.28336138 0.19303082
v 0.11024931 0.40062977 0.17470251
v -0.57821457 0.01934579 0.03169169
v -0.18870583 0.38495640 0.17871478
v -0.23673339 -0.40660081 0.16994981
v -0.02053524 0.44106721 0.19342948
v -0.34802898 0.40048775 0.09394386
v -0.38684734 -0.33988464 0.10795846
v 0.46951034 0.22889832 0.10355620
v 0.39452017 0.03973172 0.20698497
v -0.26596028 -0.30291345 0.19830795
v -0.40405693 -0.05557383 0.20347058
v -0.06163282 0.39508450 0.21731658
v -0.23119739 0.14484399 0.25454166
v 0.26950206 0.04515257 0.25467429
v -0.35704403 -0.33035138 0.13815320
v 0.42584883 0.20380754 0.14869705
v 0.11683080 0.24373885 0.25646018
v 0.25506334 -0.11163072 0.24636559
v 0.08552118 -0.50637374 0.14239951
v -0.49744517 -0.12573054 0.13510631
v -0.14409258 -0.38519759 0.18391084
v 0.39872801 0.18556377 0.17277616
v 0.24562578 0.40889096 0.18357240
v 0.45993149 -0.38081059 0.00000000
v -0.47198784 -0.36611992 0.00000000
v -0.48209521 0.35380405 0.00000000
v -0.57878697 -0.14899495 0.00000000
v -0.17589951 0.57062554 0.00000000
v 0.59327775 0.06830031 0.00000000
v -0.59646612 0.03592828 0.00000000
v -0.04460660 -0.59561139 0.00000000
v -0.27564669 -0.52972597 0.00000000
v 0.52317095 0.28791025 0.00000000
v 0.20571146 0.48979736 0.11667971
v -0.03032134 -0.51806215 0.10867220
v 0.53575165 -0.21720212 0.03684971
v -0.48848524 0.19387574 0.11020737
v 0.51313542 0.01105554 0.12551162
v 0.43963031 -0.27076554 0.13473008
v 0.30972086 0.41392811 0.14457113
v 0.12210871 -0.49201152 0.14870613
v -0.07384333 0.53965396 0.10592005
v -0.44323010 0.33676091 0.07734418
v 0.48116292 0.00450096 0.15384116
v -0.52041372 -0.00505489 0.11905316
v 0.38318463 -0.14704194 0.19086598
v 0.39977634 -0.36237700 0.09721743
v 0.52430187 0.17385063 0.08072801
v 0.02019204 0.51974233 0.11798777
v -0.24860817 0.50116663 0.06268140
v -0.34096780 0.44526697 0.04977331
v -0.16732420 -0.49422959 0.10030427
v -0.33773570 0.24238667 0.20590729
v -0.54986043 0.07632881 0.05361493
v 0.24752025 0.50940670 0.06090525
v -0.55775530 -0.09193114 0.06042288
v -0.46506834 -0.34319025 0.02370598
v 0.48362860 0.27770568 0.05288177
v 0.34571086 -0.13832114 0.20546688
v -0.14520445 -0.34861984 0.20074402
v -0.31723645 0.35594864 0.14591658
v -0.45568905 0.02956734 0.15614292
v 0.06049310 0.45570210 0.14332781
v -0.17637738 -0.40524567 0.17827046
v -0.12792021 -0.44234928 0.14023364
v 0.38529217 0.21678345 0.15423450
v -0.39083434 -0.40395467 0.06053655
v 0.00334878 -0.33642571 0.21174109
v 0.33627975 0.00627602 0.21681923
v -0.04621899 -0.42234933 0.16516670
v -0.20539387 0.43395428 0.14933396
v 0.37984436 0.33370758 0.12894522
v 0.44944962 -0.16320188 0.14747450
v 0.54535201 -0.14557738 0.04470288
v -0.30133101 -0.24280571 0.18202249
v 0.24760387 -0.01917097 0.26710895
v 0.26847687 -0.08272690 0.23896702
v 0.11718050 -0.23131096 0.25528659
v -0.02876270 -0.26372040 0.24894508
v -0.36201090 0.47536004 0.00000000
v -0.59620458 -0.03858358 0.00000000
v 0.52908826 -0.27683973 0.00000000
v 0.27970111 0.52755880 0.00000000
v 0.30030006 -0.51654845 0.00000000
v -0.29189527 0.52104092 0.00000000
v -0.52032018 0.29324374 0.00000000
v -0.32085397 -0.48442862 0.03336313
v 0.57764583 0.08257721 0.02552638
v 0.27578299 0.46821175 0.11212980
v -0.49870484 -0.02640794 0.14553144
v 0.36764640 0.40966934 0.09283061
v 0.04229646 -0.54097893 0.09692981
v 0.13936248 -0.53001315 0.09271970
v 0.22061278 0.43720989 0.16705154
v -0.52508862 -0.23243478 0.03932315
v 0.53871747 0.21927076 0.03095429
v 0.05430412 -0.48914580 0.16054820
v 0.49854700 0.20285594 0.09794147
v -0.22338430 0.45665941 0.12314980
v 0.36706964 -0.37658556 0.10885837
v -0.30936779 0.40401149 0.10145987
v -0.43336677 0.18153938 0.16475715
v -0.30324564 -0.40172071 0.14375175
v -0.04219610 0.54864444 0.09139571
v -0.41433483 -0.31556533 0.08676955
v -0.54959842 -0.05757528 0.07932972
v 0.43637338 0.25197365 0.10541037
v 0.57175388 -0.04331511 0.03692350
v -0.38979888 0.35445635 0.11580328
v -0.16820490 0.45158698 0.16436115
v 0.15835596 -0.47562259 0.14872594
v -0.47209487 -0.14632256 0.15125048
v -0.28527021 0.29960423 0.19013671
v -0.44435385 0.05885394 0.14427176
v 0.44556162 -0.06101597 0.14557232
v -0.30125280 -0.28384925 0.18377727
v -0.55873085 0.14145588 0.02632678
v 0.31115915 0.13370645 0.21608391
v -0.15880789 0.39666381 0.19510312
v 0.44667611 0.34000921 0.05164419
v 0.17774387 0.53320284 0.06042140
v -0.47774439 -0.28219595 0.05275870
v -0.34132399 -0.18201795 0.18413152
v 0.53068773 -0.18059946 0.05920222
v -0.40080238 0.23726758 0.17984688
v 0.27727515 -0.30216392 0.18733666
v 0.16893798 -0.37253523 0.18975861
v -0.40833789 -0.19333725 0.16185425
v -0.22407143 0.26297305 0.20618929
v 0.45395986 -0.31325400 0.09078244
v 0.19807664 -0.52701273 0.06218650
v 0.37072454 0.37729170 0.12029130
v 0.58308853 -0.00294079 0.02772180
v -0.33756939 -0.42867657 0.08998358
v -0.52218364 -0.16106511 0.08915163
v -0.53617173 0.22215493 0.03312901
v -0.48221633 0.16203629 0.11687609
v -0.22372582 0.53195735 0.04026276
v 0.39426273 0.40631492 0.06296427
v -0.00710549 -0.56534855 0.05643107
v 0.28646449 0.50259796 0.03781836
v -0.41418389 0.35958077 0.08927429
v 0.27667262 0.48718013 0.07646914
v -0.49552769 0.29425028 0.03992063
v 0.03921402 0.55676384 0.06579288
v -0.43709588 -0.20798182 0.13778577
v -0.57493706 -0.09277836 0.02842916
v -0.01296853 0.51715297 0.13228332
v 0.15628513 0.45033348 0.15238284
v 0.56671393 0.11113448 0.04205431
v -0.20707601 -0.52733068 0.05205928
v 0.52446768 0.09545422 0.11509039
v 0.02921284 0.46346146 0.15831429
v -0.44116688 0.28538982 0.12853053
v -0.33085113 -0.36963074 0.14465167
v 0.34122488 -0.36170895 0.13511507
v 0.46611015 -0.03090552 0.14898333
v 0.35246867 0.27154601 0.15478532
v 0.52561716 -0.25280773 0.02634019
v -0.54451666 -0.19645712 0.03274066
v -0.39430445 0.44885737 0.00000000
v 0.42875194 -0.19671651 0.16678573
v -0.46968803 -0.00490026 0.16477988
v -0.27711960 0.35291908 0.14947137
v 0.07833269 -0.53220981 0.10917833
v -0.25501072 0.44205454 0.10293626
v 0.48025812 -0.16935838 0.12062021
v 0.27260753 0.38120430 0.19082372
v 0.16029645 -0.54021408 0.06210612
v 0.36527268 -0.42624519 0.05495933
v 0.56617619 -0.14234214 0.01890734
v -0.29762436 0.49851596 0.02283034
v -0.32729471 0.42478922 0.07519034
v 0.29297605 -0.49352929 0.02973341
v 0.10141208 -0.57153739 0.03454847
v 0.41085450 0.23592039 0.13032131
v -0.49464873 -0.30081164 0.02268509
v -0.26879645 0.19863808 0.21935318
v -0.08233463 0.31931618 0.22421931
v 0.23870545 -0.42153220 0.12237931
v -0.07467882 -0.54963138 0.05486788
v 0.06629464 -0.38207739 0.21549700
v -0.35081128 0.27619446 0.19101625
v 0.33061124 0.35187075 0.16851291
v 0.53417452 0.03255272 0.10187087
v 0.20682719 0.56124371 0.00000000
v -0.44435945 -0.39978519 0.00000000
v -0.59269834 0.07418330 0.00000000
v 0.08388902 0.59174240 0.00000000
v 0.54562628 0.24589933 0.00000000
v -0.25819015 -0.02925844 0.26610503
v 0.17289138 0.50737449 0.09386147
v -0.49431552 -0.06688233 0.15167044
v 0.44783926 -0.00594436 0.17484123
v -0.17900850 0.18304446 0.26725973
v -0.10288670 -0.19386122 0.28484954
v -0.16062820 -0.00947394 0.29612828
v -0.42132235 0.14375822 0.16540853
v 0.20146340 -0.07573563 0.28323690
v 0.17930576 0.32795674 0.22127740
v 0.14583453 -0.17587487 0.27263309
v 0.43451768 -0.38567507 0.02980092
v 0.37000165 -0.23102077 0.19744419
v 0.44016586 -0.30081500 0.11824768
v 0.07814728 0.54395163 0.06225202
v -0.15056161 0.55733868 0.03917767
v -0.13900760 -0.53678773 0.05309319
v 0.48858831 -0.20901207 0.10846948
v 0.54742801 0.10498369 0.08064120
v 0.14296225 -0.56246266 0.03206341
v -0.07665479 0.55556521 0.07404362
v 0.48673531 -0.31882481 0.03323757
v -0.56380944 -0.12793752 0.03704422
v 0.22223047 -0.46264642 0.11700967
v -0.49527030 -0.25402511 0.05955149
v -0.02668782 0.57988916 0.03365549
v 0.13762696 0.34367082 0.21407795
v 0.02043626 -0.58011957 0.03110683
v -0.36252088 -0.37015785 0.11838584
v -0.09425761 -0.23265983 0.26529626
v -0.57944975 -0.01783128 0.03213240
v -0.51669863 0.22769086 0.05878791
v 0.40064421 -0.44365448 0.00000000
v -0.24371974 -0.52637933 0.03031207
v -0.14958358 0.48384961 0.14714263
v 0.27243619 -0.35516280 0.14690964
v -0.10604383 0.44041087 0.19664139
v 0.49809783 0.08251064 0.14582376
v -0.40738040 0.29846887 0.14917277
v -0.44221311 -0.16979586 0.16058202
v 0.46567473 0.34515259 0.02442941
v -0.18597685 0.12120710 0.29399004
v 0.14206359 0.55248463 0.03675015
v -0.49749004 -0.19317772 0.10151137
v 0.55116407 -0.17777862 0.02749910
v 0.47209698 0.15013209 0.14954397
v -0.08025929 -0.57538203 0.02191238
v -0.22410430 -0.03093162 0.28620862
v -0.54328674 -0.02081440 0.09170050
v 0.22241372 -0.53721110 0.03179097
v 0.42513230 0.32705560 0.07864469
v 0.00428550 0.37557694 0.21026248
v -0.06824393 -0.52056653 0.08494224
v 0.25019426 0.31024885 0.21745763
v -0.52839260 0.05896085 0.08145674
v 0.49577843 -0.13601663 0.09849913
v 0.09880573 -0.40442663 0.20606864
v 0.30635294 0.38394352 0.17031227
v 0.34823888 -0.32832699 0.15818247
v -0.40200587 0.41656952 0.03430098
v -0.43366163 0.00876869 0.17888450
v 0.14707385 -0.11431687 0.30196250
v -0.38571816 -0.08655988 0.21028609
v -0.56063014 0.20884998 0.00000000
v 0.24307497 0.54713589 0.00000000
v -0.51228751 -0.09230278 0.13026191
v -0.09856773 0.38093204 0.21764112
v 0.32424099 0.25176422 0.17742171
v 0.56530914 -0.00273164 0.05792693
v -0.02151153 0.20751770 0.30034689
v 0.22090492 -0.39291139 0.14708624
v -0.41702926 -0.40265272 0.03064037
v 0.29809630 0.16879605 0.20586409
v -0.23163159 -0.48815660 0.09298458
v 0.00915695 0.49615435 0.14824690
v -0.14823651 0.33510585 0.21038961
v -0.49105193 0.01440297 0.13975474
v -0.08949823 0.41420068 0.21128947
v 0.33838103 0.43752681 0.09138201
v 0.48893137 -0.24779126 0.08943176
v 0.46243652 -0.35287902 0.02857162
v -0.18931908 0.55070504 0.02926975
v -0.10871248 0.54145094 0.09736498
v -0.01601857 -0.58238810 0.02562309
v -0.52246663 -0.19691422 0.06700223
v -0.43046503 0.38844800 0.03278619
v -0.24014747 -0.50663654 0.06185590
v -0.36392080 -0.40205476 0.09056268
v 0.03944946 0.59611928 0.00000000
v 0.17571324 -0.51667740 0.09323115
v -0.29845663 -0.47597888 0.06616095
v 0.10559594 -0.54138951 0.09207871
v -0.38739475 -0.43114178 0.03067347
v -0.27542745 -0.43454120 0.13398826
v -0.00578121 0.56224429 0.06934403
v 0.39985263 0.35067244 0.09907676
v 0.52191732 0.21299616 0.06190747
v -0.32738818 0.30434723 0.18461283
v 0.27646043 -0.46890137 0.06494348
v 0.26017811 -0.51804773 0.02693090
v 0.13412025 0.49644989 0.10189594
v -0.52785371 0.19104908 0.06016083
v -0.38648177 -0.30139503 0.11491852
v -0.23552367 0.00683693 0.27183089
v -0.46917818 0.26588311 0.10448448
v 0.18349122 0.43181388 0.17597309
v 0.01184947 -0.52176271 0.11873617
v -0.50227045 0.13364217 0.09055995
v -0.01112473 -0.40873772 0.19103197
v 0.56218070 -0.20373854 0.00000000
v -0.56714153 -0.18738475 0.00000000
v 0.35187578 0.48367769 0.00000000
v -0.54189104 0.25288740 0.00000000
v 0.12668239 -0.58555543 0.00000000
v 0.59307426 -0.07036635 0.00000000
v -0.00733479 0.47151002 0.17290216
v -0.50802679 0.17092270 0.08626027
v -0.03059955 0.49823824 0.15539378
v -0.41688555 -0.37392995 0.05802512
v -0.06016836 -0.45569384 0.13865633
v -0.01951918 0.24550747 0.28149846
v -0.20312309 -0.50586319 0.08374651
v -0.20768983 -0.18560504 0.24198720
v -0.37050605 0.41679780 0.06497438
v 0.57653055 0.03858687 0.03497578
v 0.21752715 0.53512407 0.04072224
v -0.17490245 0.51804731 0.09615166
v -0.00972387 0.13601909 0.30380685
v 0.07337367 0.48706396 0.11277092
v 0.30998838 -0.40971585 0.09490587
v -0.09274899 0.52126315 0.12989021
v 0.24274242 0.49054536 0.09901010
v 0.46911511 0.36962032 0.00000000
v 0.38225981 0.13343061 0.20212425
v 0.54556872 0.14271319 0.06284690
v -0.14448660 0.53866527 0.07925284
v -0.31299165 -0.45205622 0.08838529
v 0.50815011 -0.25063297 0.05546612
v -0.56162209 -0.03081820 0.06062558
v -0.35076595 0.13578121 0.20316670
v -0.40582340 0.39134860 0.06235418
v 0.31105364 0.44329939 0.11931298
v -0.42433251 0.26135145 0.15768929
v 0.25267353 0.43537771 0.15937868
v -0.42869283 -0.24285743 0.11369054
v 0.34019830 0.41125023 0.11973189
v -0.29276536 0.37922783 0.12610241
v -0.14548080 0.43084870 0.18639013
v -0.40254534 0.20042780 0.18420987
v -0.06538059 -0.48966548 0.11182880
v 0.40322610 0.30978347 0.10656288
v 0.46883255 0.19318879 0.13427388
v 0.03203595 -0.15740154 0.29931027
v -0.35519829 -0.45803894 0.03048395
v 0.01627029 0.57806035 0.03600459
v 0.16545868 0.36376180 0.21196511
v -0.20578989 -0.54685326 0.02156529
v 0.02776110 -0.39714395 0.20530562
v 0.39011275 0.43133286 0.03230267
v -0.42110501 0.32410994 0.11530362
v -0.52076324 -0.12552485 0.10854322
v -0.24070816 -0.43446515 0.14918410
v -0.32359046 -0.34068239 0.16200369
v 0.56184721 0.20483784 0.00000000
v 0.20816483 -0.56083798 0.00000000
v 0.08397210 -0.59173423 0.00000000
v -0.55592757 -0.22435221 0.00000000
v -0.31076312 -0.51095587 0.00000000
v -0.46996704 0.12536234 0.11880559
v 0.26163185 0.34644234 0.20740958
v -0.07267606 0.57437612 0.03622101
v -0.13069787 -0.47656336 0.11117619
v 0.20980090 0.40416163 0.19157970
v 0.54402099 -0.03704135 0.07460895
v -0.23611809 0.47912158 0.09296517
v 0.21198226 0.30028318 0.22586189
v -0.53744686 -0.08985813 0.09791848
v 0.21194849 -0.49982798 0.09252466
v -0.55653811 0.03949444 0.06042089
v 0.18679429 -0.48816583 0.12042933
v 0.19039413 -0.20801522 0.24050323
v 0.19128652 0.08003422 0.29415701
v 0.55561894 0.03421949 0.07184053
v 0.14826753 0.06242055 0.29951944
v 0.34913308 -0.20204107 0.20735774
v -0.29581208 0.23176534 0.21316516
v -0.13596790 0.58273870 0.00000000
v 0.38012773 -0.26685400 0.18228771
v 0.51700194 -0.03057428 0.10778188
v 0.43738927 -0.23543544 0.15308936
v -0.43853999 -0.33705927 0.05567473
v 0.37829757 -0.04294346 0.18987794
v -0.45181059 0.24283871 0.13402527
v 0.18325447 -0.55034120 0.03160415
v 0.03344967 -0.56026335 0.06332989
v 0.30750993 -0.20548370 0.21729815
v 0.52509064 0.13503370 0.09993023
v -0.28276425 -0.45844876 0.10239227
v 0.39084996 -0.19135096 0.18994375
v 0.46490667 -0.27688480 0.10376237
v -0.36311132 0.37744264 0.11340318
v 0.00785032 -0.26181499 0.25986357
v 0.07618097 0.23854169 0.26845631
v 0.40238282 -0.41372307 0.03654718
v 0.38623139 0.45548278 0.00000000
v -0.41514957 -0.43175024 0.00000000
v 0.48766616 -0.34701583 0.00000000
v 0.24448305 -0.54638326 0.00000000
v -0.04987665 0.59509230 0.00000000
v 0.23765058 -0.08009573 0.26297627
v -0.18274518 0.53494754 0.06029908
v -0.17097735 0.36135640 0.19653052
v 0.16830310 -0.43978741 0.16908401
v -0.48465339 0.28136044 0.06997130
v -0.33210735 -0.45611418 0.06027313
v -0.49529449 0.24721175 0.07841077
v 0.32577118 0.48477677 0.03297688
v -0.17263766 -0.54546696 0.03681721
v -0.21464927 0.17677563 0.24657540
v -0.33645054 -0.14239598 0.20438090
v -0.07000150 0.49847052 0.15633847
v 0.03128279 0.34400074 0.20879200
v 0.01139716 0.21690220 0.28479494
v 0.10464049 0.36342862 0.19511988
v -0.25217047 0.54227424 0.00000000
v -0.34819371 -0.48669949 0.00000000
v 0.35673535 0.19634426 0.17771218
v -0.01966178 0.27407308 0.25134571
v -0.11177708 0.57410256 0.03016273
v -0.20680622 -0.10602826 0.26933715
v 0.05665995 -0.45696999 0.18352850
v -0.41090419 -0.15656363 0.18177858
v -0.37488035 0.03833643 0.18861588
v -0.01045073 -0.44059254 0.17734321
v 0.30626323 0.48145885 0.05898989
v -0.20371172 0.49160215 0.11084979
v -0.36916679 -0.20824994 0.16190552
v -0.05364320 0.23080684 0.29075177
v 0.51039135 -0.31181920 0.00000000
v 0.41159803 -0.30433062 0.13857451
v -0.37031447 0.21719333 0.19915298
v 0.41447805 -0.37945666 0.06212872
v 0.33231688 -0.38774128 0.11173439
v -0.55884401 -0.16350582 0.02613955
v 0.23615668 -0.14344776 0.24848877
v 0.37134157 0.16421737 0.19425017
v -0.17128868 0.08543663 0.29928189
v 0.42022056 0.01561153 0.19266306
v 0.35916613 0.45693216 0.03233883
v 0.35239912 0.31600096 0.15644164
v 0.01401095 0.44267661 0.18082623
v -0.20306758 -0.48035434 0.11417868
v 0.45761151 0.03011647 0.17432309
v -0.01201759 0.53916503 0.10600450
v -0.20459280 0.35626329 0.17474927
v 0.19862033 0.36758487 0.20991928
v 0.41822660 0.40264483 0.03360719
v 0.37130004 0.10199732 0.21139673
v 0.04303190 -0.59576648 0.00000000
v 0.48267831 -0.28850879 0.06678701
v 0.18593542 -0.11089514 0.29322458
v -0.16954105 0.49676420 0.12286986
v 0.01855351 0.28296155 0.23948136
v -0.15371448 0.05110210 0.29339729
v -0.14532410 -0.41655801 0.16418253
v 0.20123638 -0.36377134 0.16982749
v -0.37232421 0.43749832 0.03591641
v -0.34404412 0.33247971 0.16230648
v 0.31122248 -0.34719440 0.15262610
v 0.18567495 0.01434690 0.30320628
v -0.17069020 -0.52043673 0.06899663
v -0.46157576 -0.08322904 0.17864329
v -0.40145456 -0.12106290 0.19617052
v -0.33119991 -0.30456910 0.16361064
v 0.40426118 0.07839435 0.20820975
v 0.51447434 -0.06714937 0.09165922
v -0.45712209 0.38423386 0.00000000
v -0.08969717 0.59117037 0.00000000
v -0.59264344 -0.07474077 0.00000000
v 0.19149757 0.20839566 0.24315415
v 0.28171575 -0.02145272 0.24032227
v -0.20453438 -0.56193924 0.00000000
v -0.24259011 -0.09270788 0.26449884
v -0.21994743 -0.35549533 0.19893401
v -0.33128806 -0.26337497 0.16265848
v 0.12773829 0.46594411 0.12834786
v 0.49964393 0.12332977 0.13305847
v 0.07664318 -0.55500093 0.06988076
v -0.38001810 -0.02369061 0.20532195
v -0.18692912 -0.21547732 0.23688636
v 0.16070869 -0.20323901 0.25499375
v 0.02442288 -0.49981393 0.14628327
v -0.36175193 -0.43015259 0.05999799
v -0.47672444 0.05064563 0.12889665
v 0.26431845 0.24858512 0.21229353
v -0.21756509 0.39149573 0.15491550
v -0.52253701 -0.05105695 0.11707726
v 0.04577286 0.42207680 0.17094188
v 0.46574279 -0.13033280 0.12400655
v 0.34319826 -0.45919073 0.03043671
v -0.25386989 0.12609209 0.24047168
v -0.43821931 0.11665095 0.14333446
v 0.43173722 -0.34599344 0.08034063
v -0.08732261 0.47123305 0.18223167
v 0.30838376 0.46506222 0.08902918
v -0.41641291 -0.02184875 0.19466579
v 0.59738815 -0.02656682 0.00000000
v 0.32738337 -0.43414778 0.06499830
v 0.16753040 -0.57316428 0.00000000
v -0.45768126 0.35192557 0.03744447
v -0.08339666 -0.59179091 0.00000000
v -0.14069336 -0.56172514 0.02275886
v -0.53842467 -0.25937259 0.00000000
v 0.04674202 -0.25445736 0.26909226
v 0.56447389 0.14177251 0.02891716
v -0.49721000 0.07259093 0.10132552
v -0.48781200 0.32533978 0.02600190
v 0.06112423 0.57143249 0.03406147
v 0.03701413 -0.27889639 0.24035995
v 0.25341045 0.52440498 0.03038006
v 0.25221881 -0.32786176 0.16906864
v -0.00876970 -0.28557070 0.23536791
v -0.56982604 0.08939916 0.02513526
v -0.57406944 0.16454650 0.00000000
v 0.49787819 0.29253973 0.02578826
v 0.27274251 -0.53127831 0.00000000
v 0.58847582 -0.11705511 0.00000000
v 0.58847582 -0.11705511 0.00000000
v 0.56322896 -0.11288636 0.02635324
v 0.56322896 -0.11288636 0.02635324
v 0.51234609 -0.10341142 0.07501521
v 0.51234609 -0.10341142 0.07501521
v 0.53926277 -0.10845562 0.04946584
v 0.53926277 -0.10845562 0.04946584
v 0.49888572 0.33334476 0.00000000
v 0.49888572 0.33334476 0.00000000
v 0.47158200 0.31512281 0.03387354
v 0.47158200 0.31512281 0.03387354
v 0.45139414 -0.09188716 0.12557302
v 0.45139414 -0.09188716 0.12557302
v 0.48209921 -0.09768614 0.10059649
v 0.48209921 -0.09768614 0.10059649
v 0.44916999 0.29990831 0.05959119
v 0.44916999 0.29990831 0.05959119
v 0.42646837 0.28449175 0.08446784
v 0.42646837 0.28449175 0.08446784
v 0.41805664 -0.08562508 0.15009546
v 0.41805664 -0.08562508 0.15009546
v 0.37553370 0.24989195 0.13410352
v 0.37553370 0.24989195 0.13410352
v 0.40166181 0.26763627 0.10960796
v 0.40166181 0.26763627 0.10960796
v 0.34930420 -0.07263953 0.19365320
v 0.34930420 -0.07263953 0.19365320
v 0.38373014 -0.07914122 0.17267308
v 0.38373014 -0.07914122 0.17267308
v 0.34684095 0.23041433 0.15914837
v 0.34684095 0.23041433 0.15914837
v 0.33334476 -0.49888572 0.00000000
v 0.33334476 -0.49888572 0.00000000
v 0.30910447 -0.06507857 0.21548191
v 0.30910447 -0.06507857 0.21548191
v 0.30910447 -0.06507857 0.21548191
v 0.30910447 -0.06507857 0.21548191
v 0.31281817 0.20733176 0.18487439
v 0.31281817 0.20733176 0.18487439
v 0.29212159 0.06503782 0.22500455
v 0.29212159 0.06503782 0.22500455
v 0.28920069 -0.43587607 0.07355588
v 0.28920069 -0.43587607 0.07355588
v 0.30953640 -0.46558926 0.04047088
v 0.30953640 -0.46558926 0.04047088
v 0.28280562 0.10431235 0.22402436
v 0.28280562 0.10431235 0.22402436
v 0.26787859 -0.13830665 0.22097942
v 0.26787859 -0.13830665 0.22097942
v 0.28722978 -0.10546511 0.21927273
v 0.28722978 -0.10546511 0.21927273
v 0.27199954 0.14090239 0.22141024
v 0.27199954 0.14090239 0.22141024
v 0.26185542 0.17278443 0.21854991
v 0.26185542 0.17278443 0.21854991
v 0.26185542 0.17278443 0.21854991
v 0.26185542 0.17278443 0.21854991
v 0.28769961 0.19030121 0.20196329
v 0.28769961 0.19030121 0.20196329
v 0.25638902 -0.05524255 0.24583898
v 0.25638902 -0.05524255 0.24583898
v 0.24719223 -0.17133203 0.22160828
v 0.24719223 -0.17133203 0.22160828
v 0.23386067 -0.35480043 0.14939366
v 0.23386067 -0.35480043 0.14939366
v 0.20938723 0.13732691 0.25295132
v 0.20938723 0.13732691 0.25295132
v 0.23772183 0.15646650 0.23515160
v 0.23772183 0.15646650 0.23515160
v 0.23072481 0.19764674 0.22293524
v 0.23072481 0.19764674 0.22293524
v 0.20279977 0.21900170 0.22587331
v 0.20279977 0.21900170 0.22587331
v 0.17946132 -0.04093135 0.27369395
v 0.17946132 -0.04093135 0.27369395
v 0.21726750 -0.04798113 0.26212621
v 0.21726750 -0.04798113 0.26212621
v 0.19466677 -0.29738322 0.19165827
v 0.19466677 -0.29738322 0.19165827
v 0.21426953 -0.32609633 0.17133759
v 0.21426953 -0.32609633 0.17133759
v 0.17859456 0.11657529 0.26796058
v 0.17859456 0.11657529 0.26796058
v 0.17415600 -0.26735654 0.21100891
v 0.17415600 -0.26735654 0.21100891
v 0.17415600 -0.26735654 0.21100891
v 0.17415600 -0.26735654 0.21100891
v 0.13844995 -0.03331121 0.28234830
v 0.13844995 -0.03331121 0.28234830
v 0.11705511 0.58847582 0.00000000
v 0.11705511 0.58847582 0.00000000
v 0.10889823 -0.17224340 0.26555544
v 0.10889823 -0.17224340 0.26555544
v 0.11483874 -0.28332332 0.21654756
v 0.11483874 -0.28332332 0.21654756
v 0.11223466 0.27901456 0.22507951
v 0.11223466 0.27901456 0.22507951
v 0.11122047 0.56099516 0.02946597
v 0.11122047 0.56099516 0.02946597
v 0.10612373 0.53627408 0.05344394
v 0.10612373 0.53627408 0.05344394
v 0.10028554 0.50793988 0.08029734
v 0.10028554 0.50793988 0.08029734
v 0.08888341 0.45249325 0.12689592
v 0.08888341 0.45249325 0.12689592
v 0.09457993 0.48018870 0.10406030
v 0.09457993 0.48018870 0.10406030
v 0.08944770 -0.14397828 0.27484345
v 0.08944770 -0.14397828 0.27484345
v 0.07652583 0.04796923 0.28911063
v 0.07652583 0.04796923 0.28911063
v 0.08214827 0.41978380 0.15112376
v 0.08214827 0.41978380 0.15112376
v 0.06769414 0.34941980 0.19609252
v 0.06769414 0.34941980 0.19609252
v 0.07509685 0.38547015 0.17400806
v 0.07509685 0.38547015 0.17400806
v 0.05924906 0.30829886 0.21831481
v 0.05924906 0.30829886 0.21831481
v 0.05924906 0.30829886 0.21831481
v 0.05924906 0.30829886 0.21831481
v 0.08479892 0.29417783 0.22157677
v 0.08479892 0.29417783 0.22157677
v 0.09432865 -0.02520372 0.28723413
v 0.09432865 -0.02520372 0.28723413
v 0.05369503 -0.01778476 0.28883323
v 0.05369503 -0.01778476 0.28883323
v 0.03396152 0.18503265 0.27501392
v 0.03396152 0.18503265 0.27501392
v 0.01818895 0.10809048 0.28794089
v 0.01818895 0.10809048 0.28794089
v 0.02603714 0.14631972 0.28384486
v 0.02603714 0.14631972 0.28384486
v 0.01127403 0.07444169 0.28939939
v 0.01127403 0.07444169 0.28939939
v -0.01560295 0.29919043 0.22441114
v -0.01560295 0.29919043 0.22441114
v 0.01905397 0.30384290 0.22209346
v 0.01905397 0.30384290 0.22209346
v -0.02541005 -0.30985597 0.21249540
v -0.02541005 -0.30985597 0.21249540
v 0.03738611 0.02170912 0.28996867
v 0.03738611 0.02170912 0.28996867
v -0.00539751 -0.00689718 0.28887069
v 0.00399475 0.03899893 0.28984153
v 0.00399475 0.03899893 0.28984153
v -0.00539751 -0.00689718 0.28887069
v -0.00539751 -0.00689718 0.28887069
v -0.00539751 -0.00689718 0.28887069
v -0.00539751 -0.00689718 0.28887069
v -0.00539751 -0.00689718 0.28887069
v -0.00539751 -0.00689718 0.28887069
v -0.00539751 -0.00689718 0.28887069
v 0.02587868 -0.01266507 0.28897578
v 0.02587868 -0.01266507 0.28897578
v -0.02351216 -0.09999827 0.28330162
v -0.02351216 -0.09999827 0.28330162
v -0.01542005 -0.05804632 0.28669527
v -0.01542005 -0.05804632 0.28669527
v -0.07977096 -0.05618788 0.28387296
v -0.07977096 -0.05618788 0.28387296
v -0.04727518 -0.03466696 0.28682449
v -0.04727518 -0.03466696 0.28682449
v -0.06504017 -0.31508327 0.20779173
v -0.05853635 -0.28122762 0.22743459
v -0.05853635 -0.28122762 0.22743459
v -0.09650546 0.01251042 0.28510022
v -0.09650546 0.01251042 0.28510022
v -0.05633154 0.00391440 0.28763634
v -0.05633154 0.00391440 0.28763634
v -0.07427936 0.09918582 0.28452879
v -0.07427936 0.09918582 0.28452879
v -0.06504017 -0.31508327 0.20779173
v -0.06504017 -0.31508327 0.20779173
v -0.06504017 -0.31508327 0.20779173
v -0.08586590 -0.42444792 0.14213422
v -0.08586590 -0.42444792 0.14213422
v -0.09688760 0.13400617 0.27853915
v -0.09688760 0.13400617 0.27853915
v -0.11180378 -0.07740760 0.27914011
v -0.11180378 -0.07740760 0.27914011
v -0.10463807 -0.52348787 0.06311897
v -0.10463807 -0.52348787 0.06311897
v -0.11071783 -0.55556482 0.03321328
v -0.11071783 -0.55556482 0.03321328
v -0.11705511 -0.58847582 0.00000000
v -0.11705511 -0.58847582 0.00000000
v -0.13541389 0.27360669 0.22051904
v -0.13541389 0.27360669 0.22051904
v -0.14164908 -0.09718620 0.27284104
v -0.14164908 -0.09718620 0.27284104
v -0.17206669 0.02859430 0.27366787
v -0.17206669 0.02859430 0.27366787
v -0.13505171 0.02073493 0.28052920
v -0.13505171 0.02073493 0.28052920
v -0.17938893 0.26086593 0.21494071
v -0.17938893 0.26086593 0.21494071
v -0.17938893 0.26086593 0.21494071
v -0.17938893 0.26086593 0.21494071
v -0.20606209 -0.13979143 0.24663757
v -0.20606209 -0.13979143 0.24663757
v -0.17384247 -0.11853852 0.26203120
v -0.17384247 -0.11853852 0.26203120
v -0.20018071 0.29287609 0.19462915
v -0.20018071 0.29287609 0.19462915
v -0.21105097 0.03680719 0.26286608
v -0.21105097 0.03680719 0.26286608
v -0.22720678 0.19970039 0.22037382
v -0.22720678 0.19970039 0.22037382
v -0.20308162 0.23130098 0.21810444
v -0.20308162 0.23130098 0.21810444
v -0.21178795 -0.22383581 0.21377303
v -0.21178795 -0.22383581 0.21377303
v -0.23797490 -0.16081470 0.22778681
v -0.23797490 -0.16081470 0.22778681
v -0.23752075 0.35035113 0.15266126
v -0.23752075 0.35035113 0.15266126
v -0.21907087 0.32195038 0.17416961
v -0.21907087 0.32195038 0.17416961
v -0.25261679 0.16396831 0.22120583
v -0.25261679 0.16396831 0.22120583
v -0.25467902 0.37682933 0.12985034
v -0.25467902 0.37682933 0.12985034
v -0.28249323 0.05182253 0.22936705
v -0.28249323 0.05182253 0.22936705
v -0.24984126 0.04496212 0.24640957
v -0.24984126 0.04496212 0.24640957
v -0.26772919 -0.18041420 0.20732893
v -0.26772919 -0.18041420 0.20732893
v -0.26772919 -0.18041420 0.20732893
v -0.26772919 -0.18041420 0.20732893
v -0.23969364 -0.20249549 0.21087562
v -0.23969364 -0.20249549 0.21087562
v -0.28953433 -0.09901408 0.21536714
v -0.28953433 -0.09901408 0.21536714
v -0.27847791 -0.14256364 0.21172932
v -0.27847791 -0.14256364 0.21172932
v -0.27139866 0.40260822 0.10597790
v -0.27139866 0.40260822 0.10597790
v -0.28748956 0.42739570 0.08139905
v -0.28748956 0.42739570 0.08139905
v -0.29888567 -0.05512273 0.21699084
v -0.29888567 -0.05512273 0.21699084
v -0.30780816 -0.00187812 0.21572518
v -0.30780816 -0.00187812 0.21572518
v -0.31480426 0.05860887 0.21043049
v -0.30139762 -0.20269953 0.18564856
v -0.30139762 -0.20269953 0.18564856
v -0.31480426 0.05860887 0.21043049
v -0.31480426 0.05860887 0.21043049
v -0.31480426 0.05860887 0.21043049
v -0.33334476 0.49888572 0.00000000
v -0.33334476 0.49888572 0.00000000
v -0.31668523 0.47246897 0.03198845
v -0.31668523 0.47246897 0.03198845
v -0.30221054 0.45011234 0.05698010
v -0.30221054 0.45011234 0.05698010
v -0.38593897 0.07362247 0.16956212
v -0.38593897 0.07362247 0.16956212
v -0.35135713 0.06632444 0.19043817
v -0.35135713 0.06632444 0.19043817
v -0.38819063 -0.26017752 0.11751010
v -0.38819063 -0.26017752 0.11751010
v -0.42016077 0.08085062 0.14718984
v -0.42016077 0.08085062 0.14718984
v -0.41517809 -0.27804640 0.09166843
v -0.41517809 -0.27804640 0.09166843
v -0.44186240 -0.29571265 0.06500182
v -0.44186240 -0.29571265 0.06500182
v -0.49888572 -0.33334476 0.00000000
v -0.49888572 -0.33334476 0.00000000
v -0.46920216 -0.31380126 0.03500068
v -0.46920216 -0.31380126 0.03500068
v -0.51767302 0.10150043 0.06955557
v -0.51767302 0.10150043 0.06955557
v -0.58847582 0.11705511 0.00000000
v -0.58847582 0.11705511 0.00000000
v 0.05017767 0.26411894 0.24413139
v 0.05017767 0.26411894 0.24413139
v 0.04183414 0.22345904 0.26233873
v 0.04183414 0.22345904 0.26233873
v -0.16290924 0.23549636 0.23225233
v -0.16290924 0.23549636 0.23225233
v 0.15129252 -0.23395772 0.23404068
v 0.15129252 -0.23395772 0.23404068
v 0.12936091 -0.20200637 0.25207701
v 0.12936091 -0.20200637 0.25207701
v 0.14723188 0.09547733 0.27801105
v 0.14723188 0.09547733 0.27801105
v 0.11310738 0.07253937 0.28532237
v 0.11310738 0.07253937 0.28532237
v -0.12095267 0.17093843 0.26726121
v -0.12095267 0.17093843 0.26726121
v -0.14310533 0.20501624 0.25086018
v -0.14310533 0.20501624 0.25086018
v -0.05089436 -0.24160089 0.24717057
v -0.05089436 -0.24160089 0.24717057
v -0.04469470 -0.20956315 0.26051766
v -0.04469470 -0.20956315 0.26051766
v -0.05390479 0.06775816 0.28754905
v -0.05390479 0.06775816 0.28754905
v -0.03261882 0.03491528 0.28892836
v -0.03261882 0.03491528 0.28892836
v 0.06880937 -0.11406496 0.28095227
v 0.06880937 -0.11406496 0.28095227
v 0.04724394 -0.08285870 0.28523302
v 0.04724394 -0.08285870 0.28523302
v 0.02305381 -0.04791768 0.28775337
v 0.02305381 -0.04791768 0.28775337
v 0.25285009 -0.38259935 0.12522694
v 0.25285009 -0.38259935 0.12522694
v 0.27058932 -0.40859038 0.10072485
v 0.27058932 -0.40859038 0.10072485
v -0.45698717 0.08866553 0.12010714
v -0.45698717 0.08866553 0.12010714
v -0.48760098 0.09514164 0.09504683
v -0.48760098 0.09514164 0.09504683
v -0.07211883 -0.35219949 0.18762544
v -0.07211883 -0.35219949 0.18762544
v -0.07911734 -0.38894081 0.16551030
v -0.07911734 -0.38894081 0.16551030
v -0.29601455 0.09263597 0.21514452
v -0.29601455 0.09263597 0.21514452
v -0.27643245 0.12616682 0.21877407
v -0.27643245 0.12616682 0.21877407
v -0.09242262 -0.45908681 0.11691491
v -0.09242262 -0.45908681 0.11691491
v -0.09864695 -0.49190375 0.09012882
v -0.09864695 -0.49190375 0.09012882
v -0.18329881 -0.24391161 0.21503596
v -0.18329881 -0.24391161 0.21503596
v 0.29999116 0.02056522 0.22349592
v 0.29999116 0.02056522 0.22349592
v 0.30519721 -0.01871463 0.22064812
v 0.30519721 -0.01871463 0.22064812
v 0.22402528 -0.20385766 0.21939029
v 0.22402528 -0.20385766 0.21939029
v 0.19939350 -0.23620650 0.21579577
v 0.19939350 -0.23620650 0.21579577
v -0.05742440 0.29209468 0.22548915
v -0.05742440 0.29209468 0.22548915
v -0.09594586 0.28353983 0.22373997
v -0.09594586 0.28353983 0.22373997
v -0.11069092 -0.28986064 0.21278314
v -0.11069092 -0.28986064 0.21278314
v -0.15438260 -0.26307651 0.21503316
v -0.15438260 -0.26307651 0.21503316
v 0.01978297 -0.30282918 0.21620500
v 0.01978297 -0.30282918 0.21620500
v 0.06679513 -0.29400417 0.21768798
v 0.06679513 -0.29400417 0.21768798
v -0.33077210 -0.22215468 0.16451284
v -0.33077210 -0.22215468 0.16451284
v -0.36006826 -0.24155881 0.14167948
v -0.36006826 -0.24155881 0.14167948
v 0.14311634 0.25964552 0.22665344
v 0.14311634 0.25964552 0.22665344
v 0.17420749 0.23927803 0.22721149
v 0.17420749 0.23927803 0.22721149
v -0.54703337 0.10774694 0.04181641
v -0.54703337 0.10774694 0.04181641
v -0.56785458 0.11227905 0.02159024
v -0.56785458 0.11227905 0.02159024
v -0.03843864 -0.17732275 0.26976067
v -0.03843864 -0.17732275 0.26976067
v -0.03155136 -0.14169581 0.27741703
v -0.03155136 -0.14169581 0.27741703
f 658 1032 1040
f 480 747 568
f 546 741 126
f 566 59 508
f 611 741 680
f 459 747 105
f 51 396 694
f 757 465 761
f 872 413 29
f 545 656 25
f 952 940 950
f 523 712 11
f 521 615 12
f 750 575 930
f 798 740 4
f 420 4 634
f 730 533 3
f 944 596 942
f 753 584 461
f 695 633 22
f 875 555 410
f 696 627 449
f 30 449 627
f 648 819 49
f 627 857 819
f 412 915 975
f 599 974 986
f 793 556 400
f 665 400 556
f 405 707 903
f 699 456 194
f 662 606 1126
f 632 1127 1124
f 702 421 313
f 649 772 576
f 813 706 421
f 830 752 559
f 830 769 512
f 327 559 752
f 357 492 703
f 450 482 1213
f 520 384 700
f 585 726 782
f 389 700 560
f 792 776 681
f 455 395 427
f 794 387 670
f 794 390 387
f 393 938 613
f 561 391 717
f 932 511 569
f 383 831 829
f 569 829 409
f 372 409 829
f 775 534 567
f 739 756 356
f 365 675 586
f 882 476 347
f 840 315 563
f 1196 597 1194
f 315 401 475
f 291 475 790
f 697 297 563
f 877 851 286
f 698 467 636
f 641 770 193
f 193 770 704
f 173 570 196
f 630 1041 933
f 173 196 474
f 173 176 744
f 1041 630 1043
f 239 836 746
f 1048 901 716
f 125 574 144
f 901 574 137
f 901 1047 144
f 744 1045 173
f 744 488 1046
f 919 237 218
f 198 430 214
f 218 731 733
f 144 426 125
f 144 1054 426
f 488 744 176
f 237 437 214
f 214 211 667
f 157 642 839
f 1057 839 1058
f 667 837 179
f 437 229 211
f 229 437 682
f 211 209 199
f 211 214 437
f 157 1039 142
f 157 1065 1039
f 1061 1056 837
f 209 229 604
f 1284 604 240
f 209 1283 1078
f 1078 199 209
f 1060 878 1221
f 843 878 1079
f 1282 843 1079
f 1223 1070 169
f 169 158 818
f 1222 188 838
f 685 736 853
f 1071 838 191
f 188 1222 1221
f 843 736 188
f 184 175 1074
f 163 166 175
f 166 169 175
f 184 1073 182
f 1073 184 1074
f 162 184 182
f 184 163 175
f 1073 1076 182
f 182 1076 177
f 1077 1072 217
f 1085 1087 1086
f 1087 1085 177
f 1088 1077 204
f 1250 1096 1095
f 167 1250 1249
f 1100 190 1251
f 1104 1101 1093
f 207 1104 1103
f 1111 1105 1090
f 212 1111 1110
f 1112 1244 221
f 1244 1112 1091
f 1245 1088 204
f 1088 1245 1089
f 1085 1052 177
f 187 1084 1069
f 514 747 94
f 110 788 721
f 759 448 81
f 771 110 130
f 771 642 625
f 625 871 771
f 112 1298 1301
f 1299 122 1300
f 442 139 122
f 166 148 158
f 147 166 163
f 163 184 162
f 557 711 41
f 448 593 81
f 74 785 84
f 609 63 673
f 93 101 785
f 791 101 625
f 84 68 74
f 101 791 669
f 96 910 78
f 669 78 84
f 112 142 1298
f 108 1015 90
f 1015 108 1301
f 108 90 96
f 148 139 158
f 134 147 133
f 118 134 133
f 134 119 139
f 147 148 166
f 147 134 148
f 182 1052 162
f 153 163 162
f 766 497 43
f 766 666 711
f 961 766 967
f 683 425 75
f 964 43 583
f 84 425 68
f 75 78 910
f 86 1013 998
f 86 981 75
f 119 895 122
f 895 1012 1014
f 118 119 134
f 1008 118 1025
f 1232 153 162
f 1025 133 1231
f 153 1232 1231
f 153 1231 133
f 182 177 1052
f 958 20 483
f 523 767 16
f 601 966 965
f 491 842 447
f 532 433 20
f 965 972 491
f 441 447 32
f 842 980 56
f 56 688 543
f 861 749 45
f 995 543 688
f 543 995 989
f 91 1010 1009
f 91 85 988
f 1009 1024 97
f 1024 797 97
f 97 91 1009
f 799 1233 136
f 1053 136 1233
f 1230 799 797
f 767 433 28
f 634 812 577
f 45 24 32
f 24 45 37
f 64 873 749
f 71 64 543
f 44 873 71
f 103 85 97
f 85 983 988
f 103 797 111
f 87 111 100
f 136 131 121
f 797 799 127
f 127 799 121
f 902 812 16
f 420 634 577
f 863 868 31
f 653 19 424
f 52 863 434
f 863 619 868
f 44 55 67
f 890 44 434
f 982 55 71
f 494 1274 1277
f 55 494 67
f 439 103 87
f 439 1275 983
f 885 100 111
f 885 127 121
f 117 131 1031
f 117 885 121
f 131 136 187
f 804 6 463
f 8 533 789
f 891 957 946
f 38 23 619
f 954 18 540
f 42 540 23
f 42 963 540
f 494 60 52
f 60 1277 979
f 807 968 971
f 501 80 87
f 501 1019 1003
f 131 1067 1031
f 406 10 549
f 671 406 947
f 422 33 498
f 21 592 498
f 955 914 956
f 35 422 962
f 48 970 969
f 70 484 48
f 969 976 70
f 66 992 991
f 992 66 70
f 443 990 993
f 624 1018 1017
f 98 624 876
f 1017 1030 115
f 115 146 138
f 115 138 677
f 624 1017 115
f 167 146 1066
f 146 115 1030
f 1066 1068 167
f 146 167 149
f 21 587 805
f 464 629 815
f 14 875 637
f 34 814 628
f 46 814 471
f 22 805 464
f 800 814 46
f 800 811 61
f 46 62 800
f 77 1004 89
f 811 77 89
f 98 860 443
f 98 825 624
f 107 876 123
f 149 138 146
f 855 54 39
f 26 857 627
f 92 76 89
f 76 61 811
f 1004 77 991
f 89 1278 92
f 107 104 860
f 104 107 120
f 104 796 1279
f 104 1279 1005
f 626 123 135
f 154 138 149
f 154 677 138
f 149 1247 154
f 677 154 135
f 525 54 581
f 915 923 987
f 72 581 884
f 674 884 581
f 525 858 57
f 984 923 745
f 551 82 69
f 1252 72 651
f 72 1252 1255
f 651 936 1007
f 106 1281 1029
f 796 1227 1280
f 120 906 796
f 906 1227 796
f 1034 626 135
f 154 1247 1051
f 149 1249 1247
f 795 793 639
f 88 639 793
f 714 986 985
f 639 605 99
f 109 99 686
f 881 686 1006
f 686 605 1253
f 686 881 109
f 116 1022 1021
f 1026 128 1021
f 1026 1036 128
f 1226 503 143
f 156 143 503
f 150 1229 1035
f 150 156 503
f 143 156 165
f 1035 1050 161
f 181 171 1246
f 190 181 1248
f 181 1246 1248
f 402 639 88
f 536 114 828
f 466 152 132
f 635 405 600
f 145 828 124
f 124 129 145
f 522 846 200
f 178 672 607
f 129 672 145
f 151 159 168
f 168 186 183
f 165 1293 1037
f 180 192 205
f 181 768 171
f 174 590 444
f 160 155 140
f 444 522 174
f 201 846 178
f 607 168 183
f 1292 168 159
f 493 1291 1083
f 1291 493 186
f 189 170 180
f 937 1082 1290
f 929 170 189
f 189 180 205
f 606 668 1125
f 200 419 197
f 765 668 460
f 419 495 735
f 201 724 849
f 495 213 1263
f 724 213 495
f 210 202 493
f 210 1083 1115
f 504 1239 1108
f 1239 504 203
f 1308 192 185
f 203 1241 1239
f 1307 205 192
f 1100 1099 190
f 632 1124 266
f 1269 787 1270
f 477 787 258
f 284 258 272
f 490 1118 252
f 252 246 446
f 446 880 252
f 246 1262 1261
f 241 485 246
f 446 246 485
f 241 1261 1116
f 1238 645 228
f 224 1238 1240
f 224 1240 1306
f 1306 235 224
f 235 1306 1309
f 216 1309 1098
f 1098 1101 207
f 489 294 272
f 306 288 899
f 268 489 446
f 268 288 489
f 306 899 314
f 294 489 288
f 275 268 485
f 899 275 295
f 275 267 287
f 287 1289 290
f 645 254 228
f 277 1288 254
f 254 1287 228
f 645 259 254
f 224 235 621
f 235 236 248
f 621 235 248
f 207 216 1098
f 326 580 528
f 432 644 440
f 492 908 703
f 317 326 528
f 306 314 326
f 440 580 778
f 287 295 275
f 302 322 435
f 1289 287 267
f 290 1273 1154
f 1154 309 290
f 302 287 290
f 281 905 277
f 905 1155 1272
f 277 1272 1288
f 259 621 261
f 261 248 260
f 261 260 280
f 244 236 233
f 233 236 216
f 216 207 233
f 1210 806 530
f 806 370 734
f 440 778 889
f 541 889 331
f 806 734 360
f 541 331 435
f 1205 718 341
f 311 322 309
f 900 1294 1297
f 311 1174 1173
f 1173 1189 311
f 311 500 322
f 738 1175 1155
f 280 281 261
f 1143 738 280
f 280 1144 1143
f 280 260 1144
f 233 1122 244
f 244 1122 1132
f 1132 260 244
f 1103 1122 233
f 571 760 366
f 547 1211 379
f 553 655 571
f 553 571 366
f 1204 760 1209
f 847 553 354
f 1204 366 760
f 835 325 335
f 350 548 835
f 548 1295 1190
f 335 1178 1177
f 1178 335 325
f 308 289 898
f 308 312 1176
f 1157 1179 1171
f 1142 845 289
f 293 845 271
f 271 1145 1133
f 250 271 1133
f 250 1133 1123
f 1102 230 1123
f 243 212 1110
f 381 537 445
f 681 380 618
f 388 389 560
f 537 380 445
f 888 678 368
f 329 835 335
f 678 345 342
f 1177 1184 329
f 345 329 342
f 312 1185 1176
f 898 289 845
f 312 898 305
f 250 230 243
f 212 230 1102
f 445 776 381
f 912 618 515
f 887 618 380
f 378 373 588
f 912 470 664
f 436 921 364
f 436 678 351
f 1184 342 329
f 1184 1186 333
f 1186 344 333
f 319 1185 312
f 293 663 305
f 250 622 264
f 250 264 271
f 664 387 390
f 670 479 794
f 479 670 1216
f 1302 938 479
f 676 588 373
f 470 407 387
f 373 921 676
f 909 539 1256
f 355 344 848
f 848 367 355
f 848 1202 1201
f 1202 848 340
f 320 300 1168
f 320 1188 1187
f 616 719 300
f 1148 719 282
f 1168 1167 320
f 1135 1148 282
f 1110 1136 243
f 622 1136 1135
f 1136 622 243
f 212 243 230
f 732 723 562
f 1258 723 1217
f 1257 784 1258
f 527 764 361
f 623 377 917
f 462 376 374
f 352 363 623
f 917 1207 362
f 332 755 348
f 336 1264 1267
f 1264 336 332
f 296 1169 1149
f 285 301 296
f 301 316 296
f 879 1134 1137
f 274 862 285
f 249 1137 1109
f 221 249 1109
f 579 808 758
f 831 720 829
f 829 720 372
f 764 363 353
f 361 376 527
f 764 527 363
f 352 755 353
f 856 339 478
f 353 856 764
f 353 755 338
f 339 338 324
f 338 336 323
f 323 1163 603
f 1266 916 1162
f 657 257 276
f 279 657 276
f 292 301 285
f 257 862 253
f 534 775 358
f 359 654 758
f 356 756 567
f 358 343 534
f 321 538 334
f 339 801 478
f 801 324 603
f 1163 323 1267
f 1150 307 603
f 279 438 292
f 834 1162 438
f 657 292 285
f 257 657 862
f 257 234 262
f 231 253 249
f 253 231 234
f 534 816 356
f 739 598 476
f 476 1197 347
f 330 318 589
f 526 328 762
f 1182 598 526
f 318 330 538
f 303 318 538
f 318 1159 589
f 589 486 330
f 307 321 801
f 1160 303 1146
f 554 1153 1141
f 554 1141 1146
f 834 620 278
f 278 620 1237
f 1152 1225 1140
f 278 1152 1151
f 262 263 276
f 276 620 279
f 231 1114 234
f 1114 1120 234
f 231 1243 1114
f 1243 231 221
f 524 591 299
f 310 1199 1183
f 911 496 299
f 273 911 428
f 496 524 299
f 827 544 428
f 1161 283 870
f 269 827 691
f 283 1147 270
f 255 1224 1236
f 1224 1131 1139
f 247 227 242
f 227 238 222
f 247 242 255
f 238 1235 1121
f 1113 217 226
f 743 226 217
f 1121 222 238
f 204 1242 1245
f 1242 217 1113
f 650 265 877
f 251 763 544
f 919 652 237
f 535 763 256
f 245 682 269
f 270 240 691
f 682 693 251
f 604 1284 1283
f 604 245 240
f 232 255 242
f 232 1282 1285
f 232 1131 255
f 242 206 232
f 217 204 1077
f 208 222 226
f 864 832 396
f 514 920 568
f 397 711 666
f 802 844 893
f 475 291 563
f 88 714 402
f 460 668 403
f 462 386 732
f 391 542 404
f 172 600 903
f 547 379 640
f 387 407 670
f 571 408 760
f 637 696 822
f 638 388 481
f 411 708 821
f 25 748 413
f 660 725 414
f 415 126 611
f 385 928 418
f 583 683 973
f 53 865 497
f 901 144 574
f 1253 605 1254
f 219 419 735
f 419 849 495
f 852 553 366
f 737 702 576
f 752 813 327
f 498 914 422
f 69 50 65
f 376 808 374
f 19 653 17
f 284 304 867
f 777 294 429
f 746 467 698
f 1058 426 1054
f 531 754 392
f 427 395 646
f 881 552 109
f 827 283 691
f 430 866 731
f 218 237 430
f 608 334 713
f 378 364 373
f 328 431 816
f 816 534 343
f 492 357 734
f 11 20 433
f 433 532 28
f 44 890 873
f 61 65 47
f 79 76 92
f 921 904 355
f 801 603 307
f 608 478 334
f 853 242 227
f 325 548 1190
f 210 213 202
f 1057 157 839
f 916 301 438
f 1162 834 1151
f 270 691 283
f 128 141 116
f 165 156 929
f 70 48 969
f 860 104 1005
f 439 80 1275
f 341 718 440
f 767 28 441
f 441 491 447
f 1012 895 102
f 1151 834 278
f 319 320 1187
f 312 308 898
f 156 150 170
f 444 152 466
f 904 333 344
f 209 211 229
f 94 519 759
f 281 277 259
f 817 203 504
f 375 655 537
f 558 922 1
f 533 730 922
f 880 490 252
f 1220 164 1064
f 308 1179 1157
f 994 91 988
f 102 1008 1011
f 1225 278 1237
f 1224 255 1131
f 1003 896 501
f 1226 143 1027
f 160 846 155
f 595 40 57
f 191 1075 1071
f 262 1120 1234
f 1084 187 1053
f 1135 282 622
f 1149 274 296
f 135 1051 1034
f 1241 205 1307
f 1243 221 1244
f 1242 204 217
f 167 1249 149
f 1069 1067 187
f 701 925 369
f 820 864 774
f 809 924 780
f 631 802 453
f 513 740 454
f 393 455 427
f 662 926 456
f 313 783 457
f 480 105 747
f 617 137 459
f 197 460 722
f 660 549 461
f 13 753 461
f 376 462 562
f 239 265 650
f 73 465 757
f 673 593 74
f 132 536 466
f 444 155 522
f 381 375 537
f 384 408 659
f 775 579 654
f 463 469 15
f 709 813 304
f 387 664 470
f 429 317 777
f 349 359 550
f 359 758 550
f 378 887 364
f 69 65 551
f 95 551 79
f 54 472 39
f 812 750 473
f 51 564 774
f 176 474 690
f 529 220 869
f 310 475 401
f 476 1198 1197
f 886 477 737
f 856 349 550
f 693 652 251
f 871 788 110
f 105 480 741
f 792 388 776
f 141 129 552
f 159 128 1036
f 386 831 647
f 350 835 345
f 79 106 95
f 333 904 351
f 66 62 484
f 267 485 241
f 485 268 446
f 861 45 447
f 1164 762 589
f 692 588 487
f 367 539 487
f 578 176 690
f 767 441 32
f 19 31 868
f 489 272 880
f 294 288 429
f 490 258 787
f 956 671 947
f 957 18 954
f 601 441 28
f 703 337 644
f 90 1015 1013
f 493 183 186
f 1267 323 336
f 1042 658 1040
f 630 1045 1043
f 335 1177 329
f 309 1154 1174
f 159 1036 1292
f 1281 92 1278
f 66 991 77
f 52 67 494
f 837 1081 1061
f 307 1150 1153
f 1286 267 241
f 839 130 426
f 125 130 110
f 50 47 65
f 208 215 222
f 163 153 147
f 668 606 403
f 201 849 200
f 496 273 535
f 557 53 497
f 587 498 33
f 114 639 99
f 80 501 896
f 301 292 438
f 299 1181 1165
f 120 107 123
f 281 259 261
f 170 929 156
f 318 1160 1159
f 499 660 596
f 499 948 406
f 936 651 82
f 1206 539 367
f 970 35 962
f 971 42 807
f 900 541 500
f 818 442 164
f 1220 1223 818
f 1012 1011 997
f 895 119 102
f 206 853 736
f 100 501 87
f 281 280 738
f 1169 316 1166
f 1002 825 502
f 825 443 502
f 277 254 259
f 626 120 123
f 503 1226 1229
f 228 1107 1238
f 504 1108 937
f 642 157 142
f 106 1029 1020
f 348 1203 332
f 865 68 58
f 425 683 58
f 1260 210 1115
f 635 600 729
f 1024 1230 797
f 191 743 1075
f 1234 263 262
f 226 1121 1113
f 719 1148 1168
f 1246 171 1050
f 3 943 730
f 824 786 641
f 172 643 874
f 506 392 646
f 854 14 637
f 680 935 508
f 315 510 597
f 512 313 706
f 513 454 2
f 575 750 634
f 826 697 563
f 694 920 757
f 648 30 819
f 555 918 410
f 588 515 378
f 701 756 675
f 41 564 516
f 903 590 517
f 810 903 517
f 152 518 132
f 113 721 519
f 708 687 821
f 7 521 712
f 174 907 722
f 409 372 468
f 576 702 649
f 833 772 417
f 160 145 672
f 145 140 828
f 591 790 310
f 744 1049 1045
f 525 40 472
f 565 195 403
f 787 477 266
f 526 1180 1182
f 623 363 527
f 529 636 467
f 869 474 196
f 432 530 360
f 530 1208 1210
f 792 912 531
f 392 481 531
f 20 958 960
f 966 601 532
f 3 8 949
f 872 774 564
f 775 567 468
f 376 361 808
f 805 36 464
f 673 63 465
f 535 273 763
f 535 286 496
f 536 140 466
f 536 132 795
f 241 246 1261
f 538 713 334
f 62 66 77
f 108 96 791
f 1220 818 164
f 825 1002 1018
f 17 24 27
f 18 582 540
f 1229 150 503
f 368 887 371
f 1241 203 205
f 745 72 1255
f 1216 931 1259
f 404 723 732
f 595 915 49
f 113 459 137
f 1232 162 1052
f 322 500 541
f 543 64 56
f 543 989 71
f 273 428 544
f 846 201 200
f 353 338 339
f 948 499 944
f 8 891 946
f 545 959 953
f 397 545 25
f 105 617 459
f 314 295 435
f 401 1199 310
f 401 597 1196
f 226 743 208
f 913 1059 1055
f 578 731 866
f 1178 325 1170
f 1179 308 1176
f 345 888 350
f 45 749 37
f 385 547 640
f 1211 547 1215
f 1012 102 1011
f 1013 86 90
f 354 852 548
f 1083 210 493
f 1108 1082 937
f 992 70 976
f 443 993 502
f 1201 1206 367
f 980 842 972
f 683 981 973
f 270 1138 1130
f 1038 164 442
f 1265 316 1266
f 1264 332 1193
f 1268 735 1119
f 216 236 235
f 921 436 904
f 1160 318 303
f 870 1158 1161
f 1273 290 1289
f 1184 333 342
f 319 1187 1185
f 423 36 803
f 275 899 268
f 80 896 1275
f 1274 55 982
f 499 549 660
f 549 13 461
f 1150 603 1163
f 279 292 657
f 91 97 85
f 1283 209 604
f 432 440 718
f 776 388 560
f 213 210 1260
f 606 662 225
f 656 545 953
f 349 856 478
f 52 38 863
f 320 319 300
f 65 79 551
f 135 154 1051
f 1234 1237 263
f 1236 247 255
f 685 215 208
f 215 853 227
f 471 484 46
f 285 296 274
f 124 552 129
f 1087 177 1076
f 469 463 424
f 424 868 469
f 554 1146 303
f 429 306 317
f 430 198 866
f 753 875 14
f 705 594 556
f 400 715 83
f 516 557 41
f 105 741 546
f 658 546 126
f 109 828 99
f 789 684 6
f 706 830 512
f 700 659 560
f 265 698 751
f 650 535 256
f 483 11 12
f 200 907 522
f 24 37 27
f 949 945 3
f 561 383 728
f 377 376 562
f 742 751 826
f 41 397 564
f 566 850 832
f 566 480 568
f 984 745 1255
f 786 636 223
f 857 918 472
f 567 534 356
f 747 514 568
f 689 304 421
f 925 932 409
f 569 511 383
f 710 770 641
f 408 375 659
f 371 847 888
f 481 572 638
f 431 739 356
f 321 554 303
f 573 220 733
f 113 574 721
f 575 513 2
f 886 833 632
f 313 457 649
f 17 902 661
f 653 9 577
f 789 804 891
f 913 578 866
f 579 775 372
f 445 681 776
f 580 326 778
f 116 881 1022
f 1023 95 1020
f 884 674 69
f 651 884 82
f 18 15 582
f 23 540 582
f 389 859 585
f 585 782 520
f 586 347 505
f 498 587 21
f 34 805 587
f 588 676 487
f 1159 1164 589
f 762 486 589
f 174 517 590
f 370 806 482
f 734 370 687
f 1181 299 591
f 341 1297 1205
f 273 496 911
f 633 10 592
f 306 326 317
f 407 692 909
f 593 673 81
f 593 93 785
f 707 152 590
f 819 595 49
f 595 57 923
f 668 765 1271
f 1270 266 1124
f 596 944 499
f 597 401 315
f 284 294 777
f 598 1182 1198
f 526 431 328
f 599 715 509
f 600 781 729
f 600 405 903
f 601 965 491
f 1212 1215 602
f 958 483 952
f 55 1274 494
f 323 324 338
f 89 1004 1278
f 604 229 245
f 404 1303 1217
f 842 56 861
f 328 343 486
f 35 48 471
f 402 605 639
f 272 258 490
f 258 284 867
f 606 225 403
f 606 1125 1126
f 309 302 290
f 540 963 954
f 295 314 899
f 426 1058 839
f 1059 913 179
f 199 1078 1081
f 1174 311 309
f 1175 1156 1172
f 1152 278 1225
f 1153 554 307
f 1118 490 1269
f 1262 246 252
f 1280 1227 1028
f 1186 340 344
f 183 773 607
f 607 151 168
f 1116 1286 241
f 346 608 713
f 608 349 478
f 68 865 609
f 74 68 609
f 552 124 109
f 362 1207 1200
f 1292 186 168
f 1293 934 1290
f 179 913 198
f 1001 981 86
f 6 610 463
f 9 610 420
f 269 251 544
f 94 73 514
f 413 872 25
f 450 612 370
f 614 933 1041
f 616 312 305
f 616 300 319
f 836 218 733
f 239 919 836
f 617 546 398
f 137 617 716
f 227 222 215
f 238 247 1235
f 618 378 515
f 289 308 1157
f 582 619 23
f 403 195 460
f 620 263 1237
f 968 807 60
f 862 879 253
f 118 102 119
f 1168 300 719
f 316 301 916
f 621 248 261
f 622 250 243
f 161 170 150
f 352 623 362
f 623 527 377
f 1016 1019 100
f 1016 100 117
f 624 115 876
f 108 791 112
f 1103 233 207
f 626 1034 1228
f 27 890 31
f 890 37 873
f 627 819 30
f 40 857 472
f 61 628 800
f 814 34 587
f 423 855 36
f 629 39 555
f 832 727 59
f 570 933 770
f 630 173 1045
f 399 786 844
f 631 453 697
f 920 850 568
f 266 886 632
f 633 21 22
f 4 420 798
f 924 809 635
f 405 635 594
f 925 468 369
f 451 382 932
f 399 698 636
f 14 854 507
f 452 859 638
f 790 851 291
f 512 841 783
f 769 830 908
f 408 384 379
f 223 710 641
f 130 839 642
f 315 475 563
f 714 599 986
f 643 172 810
f 172 874 781
f 644 432 357
f 644 580 440
f 645 621 259
f 94 113 519
f 646 392 754
f 647 717 386
f 383 561 647
f 648 49 412
f 145 160 140
f 1195 347 1197
f 649 298 772
f 265 239 746
f 324 323 603
f 651 1007 1252
f 73 94 759
f 966 532 960
f 497 766 711
f 652 919 256
f 652 256 763
f 1180 526 762
f 1181 591 1183
f 424 9 653
f 653 577 902
f 346 654 359
f 654 579 758
f 371 537 655
f 748 25 656
f 656 953 951
f 847 371 655
f 553 847 655
f 546 658 398
f 560 381 776
f 1208 530 718
f 1209 379 1211
f 5 461 584
f 596 660 414
f 812 902 577
f 661 24 17
f 378 618 887
f 928 385 520
f 1144 260 1132
f 1145 271 845
f 722 517 174
f 565 810 195
f 662 1126 1129
f 562 784 377
f 719 663 282
f 515 470 912
f 664 390 754
f 665 780 823
f 83 714 88
f 666 961 959
f 545 666 959
f 559 337 703
f 901 137 716
f 398 1042 1044
f 667 179 198
f 667 211 199
f 619 582 469
f 668 1271 1125
f 849 419 200
f 669 84 785
f 96 669 791
f 931 1216 670
f 671 956 914
f 402 985 1254
f 1276 896 978
f 1277 60 494
f 79 92 106
f 811 800 62
f 151 607 672
f 672 178 160
f 442 158 139
f 442 1299 1038
f 500 311 1189
f 53 609 865
f 673 465 81
f 63 609 53
f 423 674 54
f 1289 267 1286
f 983 85 439
f 71 989 982
f 713 883 346
f 486 343 883
f 1284 240 1130
f 882 586 675
f 365 701 675
f 990 860 1005
f 946 949 8
f 143 165 1037
f 128 159 141
f 761 465 63
f 761 694 757
f 1263 213 1260
f 1262 252 1118
f 1294 500 1189
f 676 367 487
f 889 541 900
f 758 361 550
f 677 135 123
f 876 115 677
f 499 406 549
f 502 977 1002
f 342 351 678
f 678 436 368
f 679 561 728
f 510 1194 597
f 380 681 445
f 682 251 269
f 682 245 229
f 683 583 58
f 683 75 981
f 684 798 6
f 533 558 684
f 574 125 721
f 319 312 616
f 838 736 685
f 523 433 767
f 11 483 20
f 593 448 93
f 686 1253 1006
f 303 538 321
f 33 422 35
f 109 124 828
f 843 1282 206
f 687 612 821
f 708 492 687
f 276 263 620
f 688 1000 999
f 421 702 689
f 689 867 304
f 784 917 377
f 690 474 573
f 755 332 336
f 955 422 914
f 331 326 314
f 169 1070 175
f 141 552 116
f 691 245 269
f 487 909 692
f 1149 1134 274
f 237 214 430
f 22 815 695
f 875 753 695
f 4 740 513
f 183 493 202
f 637 822 854
f 346 358 654
f 425 78 75
f 68 425 58
f 697 826 631
f 297 697 453
f 698 399 751
f 565 225 699
f 700 384 659
f 700 585 520
f 925 892 451
f 701 369 756
f 702 313 649
f 337 559 327
f 703 644 357
f 704 933 614
f 793 795 705
f 706 313 421
f 813 752 706
f 788 871 93
f 9 420 577
f 518 405 594
f 708 411 769
f 304 777 709
f 709 327 813
f 570 710 196
f 529 223 636
f 564 51 516
f 774 872 29
f 711 557 497
f 938 1219 613
f 7 473 750
f 608 346 359
f 714 985 402
f 83 88 400
f 715 665 823
f 526 598 431
f 940 12 458
f 518 152 707
f 249 879 1137
f 310 1183 591
f 239 256 919
f 716 1044 1048
f 404 717 391
f 717 647 561
f 521 779 615
f 28 532 601
f 658 1042 398
f 1214 482 806
f 1215 547 602
f 718 1205 1208
f 873 64 71
f 581 54 674
f 72 858 581
f 720 579 372
f 574 113 137
f 721 125 110
f 488 1055 1046
f 583 973 964
f 264 663 293
f 331 314 435
f 459 94 747
f 537 371 380
f 192 180 768
f 936 551 95
f 1010 994 996
f 995 688 999
f 460 197 219
f 852 1296 1295
f 354 553 852
f 3 533 8
f 39 629 855
f 472 918 39
f 1166 1265 1191
f 155 444 466
f 723 404 1217
f 723 1258 784
f 1298 142 1039
f 792 681 912
f 566 935 480
f 1268 1271 765
f 765 460 219
f 284 272 294
f 153 133 147
f 724 201 773
f 724 202 213
f 725 660 461
f 726 585 859
f 894 572 392
f 832 864 727
f 728 383 511
f 649 457 298
f 385 418 602
f 351 342 333
f 36 34 803
f 14 507 584
f 32 447 45
f 33 35 471
f 422 955 962
f 289 1157 1142
f 528 709 317
f 731 218 430
f 731 690 733
f 732 562 462
f 732 386 717
f 733 690 573
f 733 220 836
f 734 687 492
f 360 734 357
f 495 1119 735
f 1268 765 735
f 736 838 188
f 225 565 403
f 248 244 260
f 231 249 221
f 576 886 737
f 867 689 737
f 1155 905 738
f 739 431 598
f 476 882 739
f 794 427 390
f 511 932 382
f 740 1 454
f 740 798 684
f 139 148 134
f 571 655 375
f 741 480 935
f 826 291 742
f 877 286 650
f 398 716 617
f 817 189 203
f 743 1072 1075
f 743 191 208
f 117 1031 1016
f 363 352 353
f 159 151 141
f 315 840 510
f 517 722 195
f 833 927 632
f 798 610 6
f 355 367 676
f 32 661 767
f 176 173 474
f 746 698 265
f 1131 232 1285
f 516 51 694
f 94 459 113
f 484 70 66
f 748 656 951
f 873 37 749
f 64 861 56
f 400 665 715
f 473 7 712
f 575 634 4
f 631 399 844
f 751 742 265
f 830 706 752
f 753 14 584
f 390 646 754
f 754 531 664
f 369 567 756
f 605 686 99
f 920 694 396
f 757 514 73
f 803 34 628
f 519 448 759
f 366 1204 1296
f 379 760 408
f 608 359 349
f 1198 476 598
f 1199 401 1196
f 761 516 694
f 557 63 53
f 762 1164 1180
f 762 328 486
f 599 714 83
f 987 923 984
f 117 121 131
f 618 912 681
f 515 692 470
f 763 273 544
f 763 251 652
f 1302 479 1216
f 570 173 630
f 764 550 361
f 699 643 565
f 219 735 765
f 609 673 74
f 205 203 189
f 766 961 666
f 766 43 967
f 661 32 24
f 767 661 16
f 768 185 192
f 161 180 170
f 530 432 718
f 769 908 708
f 769 411 841
f 770 933 704
f 871 625 101
f 771 130 642
f 868 424 19
f 520 640 384
f 772 833 576
f 772 897 417
f 578 488 176
f 374 386 462
f 720 831 374
f 545 397 666
f 547 385 602
f 50 69 674
f 423 50 674
f 178 607 773
f 85 103 439
f 10 671 592
f 775 468 372
f 775 654 358
f 625 642 142
f 1300 122 895
f 1301 108 112
f 627 696 26
f 381 560 659
f 258 867 477
f 10 633 13
f 592 21 633
f 777 304 284
f 777 317 709
f 433 523 11
f 67 434 44
f 38 52 807
f 1054 144 1047
f 779 7 416
f 665 809 780
f 781 600 172
f 596 414 942
f 569 383 829
f 584 507 5
f 638 394 452
f 1 740 558
f 783 313 512
f 59 566 832
f 646 395 506
f 151 129 141
f 784 1257 917
f 784 562 723
f 669 785 101
f 785 74 593
f 492 708 908
f 270 1147 1138
f 786 223 641
f 787 1269 490
f 787 266 1270
f 629 555 815
f 519 788 448
f 788 93 448
f 789 533 684
f 6 804 789
f 437 693 682
f 435 322 541
f 322 302 309
f 790 524 851
f 360 357 432
f 76 79 65
f 702 737 689
f 791 625 112
f 669 96 78
f 792 531 481
f 792 481 388
f 594 635 809
f 528 337 327
f 652 693 237
f 793 400 88
f 794 479 393
f 427 794 393
f 795 639 114
f 795 132 705
f 645 224 621
f 161 150 1035
f 180 161 768
f 796 1280 1279
f 104 120 796
f 610 9 463
f 187 136 1053
f 376 377 527
f 797 127 111
f 797 103 97
f 719 616 663
f 152 444 590
f 84 78 425
f 398 1044 716
f 798 420 610
f 267 275 485
f 362 348 352
f 1066 146 1030
f 1067 131 187
f 227 247 238
f 799 136 121
f 217 1072 743
f 62 46 484
f 61 47 628
f 397 41 711
f 1294 900 500
f 366 1296 852
f 1158 911 1165
f 321 307 554
f 410 26 696
f 802 631 844
f 122 139 119
f 688 56 980
f 132 518 705
f 803 628 47
f 803 50 423
f 804 463 15
f 18 891 804
f 20 960 532
f 186 1292 1291
f 67 52 434
f 390 427 646
f 805 34 36
f 805 22 21
f 1001 86 998
f 806 1210 1214
f 806 360 530
f 42 38 807
f 807 52 60
f 19 27 31
f 19 17 27
f 808 579 720
f 808 361 758
f 296 316 1169
f 133 1025 118
f 1228 906 626
f 809 665 556
f 810 517 195
f 810 565 643
f 408 571 375
f 222 1121 226
f 738 1156 1175
f 171 161 1050
f 171 768 161
f 61 76 65
f 811 62 77
f 178 773 201
f 813 421 304
f 557 761 63
f 814 800 628
f 814 33 471
f 815 555 875
f 815 22 464
f 1055 488 913
f 816 343 328
f 816 431 356
f 189 817 929
f 933 570 630
f 456 699 225
f 456 225 662
f 818 158 442
f 818 1223 169
f 724 773 202
f 915 595 923
f 888 368 371
f 659 375 381
f 638 572 394
f 820 774 29
f 822 696 449
f 542 939 1218
f 824 641 193
f 825 1018 624
f 825 98 443
f 580 337 528
f 81 73 759
f 223 529 710
f 352 348 755
f 826 563 291
f 826 751 631
f 60 979 968
f 827 269 544
f 827 870 283
f 391 561 679
f 404 732 717
f 542 1303 404
f 96 90 910
f 332 1203 1193
f 638 389 388
f 640 379 384
f 828 114 99
f 347 1195 505
f 830 559 908
f 831 383 647
f 831 386 374
f 200 197 907
f 858 745 57
f 927 1128 1127
f 712 12 11
f 288 306 429
f 247 1236 1235
f 1023 936 95
f 439 87 80
f 87 103 111
f 834 279 620
f 406 671 10
f 406 948 947
f 613 455 393
f 105 546 617
f 835 329 345
f 195 722 460
f 801 339 324
f 836 220 746
f 1056 179 837
f 837 667 199
f 838 685 191
f 838 1071 1222
f 264 293 271
f 264 282 663
f 1020 95 106
f 691 240 245
f 713 538 330
f 909 487 539
f 407 470 692
f 232 206 1282
f 1010 91 994
f 840 563 297
f 769 841 512
f 842 491 972
f 287 302 295
f 181 185 768
f 473 523 16
f 473 16 812
f 582 15 469
f 15 18 804
f 705 556 793
f 368 436 364
f 843 188 878
f 843 206 736
f 40 595 819
f 525 57 40
f 893 844 786
f 882 675 739
f 756 739 675
f 845 293 898
f 846 160 178
f 846 522 155
f 100 1019 501
f 847 354 350
f 848 344 340
f 848 1201 367
f 592 914 498
f 850 396 832
f 850 566 568
f 158 169 166
f 47 50 803
f 276 257 262
f 851 742 291
f 699 194 643
f 567 369 468
f 605 402 1254
f 524 286 851
f 286 535 650
f 157 1057 1062
f 13 695 753
f 539 1206 1256
f 852 1295 548
f 744 1046 1049
f 336 338 755
f 853 215 685
f 853 206 242
f 557 516 761
f 405 518 707
f 855 464 36
f 855 423 54
f 856 353 339
f 856 550 764
f 316 1265 1166
f 916 1266 316
f 214 667 198
f 92 1281 106
f 40 819 857
f 857 26 918
f 305 663 616
f 858 72 745
f 525 581 858
f 572 894 394
f 859 389 638
f 859 452 726
f 788 519 721
f 709 528 327
f 860 990 443
f 861 447 842
f 861 64 749
f 862 274 879
f 862 657 285
f 362 1200 348
f 575 4 513
f 634 750 812
f 863 31 434
f 863 38 619
f 346 883 358
f 864 51 774
f 820 727 864
f 482 450 370
f 12 712 521
f 240 270 1130
f 865 58 583
f 865 43 497
f 591 524 790
f 76 811 89
f 578 913 488
f 379 1209 760
f 9 424 463
f 114 536 795
f 588 692 515
f 687 370 612
f 867 737 477
f 868 619 469
f 869 710 529
f 869 573 474
f 799 1230 1233
f 465 73 81
f 870 827 428
f 428 911 870
f 871 110 771
f 872 564 397
f 872 397 25
f 44 71 55
f 140 536 828
f 140 155 466
f 256 239 650
f 746 220 467
f 118 1008 102
f 963 42 971
f 874 643 194
f 410 637 875
f 875 695 815
f 876 677 123
f 876 107 98
f 471 48 484
f 773 183 202
f 925 409 468
f 396 51 864
f 877 742 851
f 877 265 742
f 878 188 1221
f 878 1080 1079
f 879 249 253
f 879 274 1134
f 219 197 419
f 880 446 489
f 272 490 880
f 881 116 552
f 881 1006 1022
f 882 347 586
f 1082 1108 1106
f 594 705 518
f 809 556 594
f 883 330 486
f 883 343 358
f 884 69 82
f 884 651 72
f 125 426 130
f 13 549 10
f 220 529 467
f 573 869 220
f 885 111 127
f 885 117 100
f 886 266 477
f 886 576 833
f 887 368 364
f 887 380 371
f 834 438 279
f 142 112 625
f 888 847 350
f 888 345 678
f 814 587 33
f 889 778 331
f 889 341 440
f 890 434 31
f 890 27 37
f 644 337 580
f 629 464 855
f 475 310 790
f 891 8 789
f 891 18 957
f 892 701 365
f 893 786 824
f 894 392 506
f 524 496 286
f 895 1014 1300
f 896 1276 1275
f 897 772 298
f 898 293 305
f 234 257 253
f 1120 262 234
f 196 710 869
f 710 570 770
f 374 808 720
f 899 288 268
f 900 341 889
f 900 1297 341
f 731 578 690
f 901 1048 1047
f 461 5 725
f 902 17 653
f 902 16 661
f 295 302 435
f 903 707 590
f 903 810 172
f 244 248 236
f 542 391 939
f 1202 340 1192
f 1203 348 1200
f 282 264 622
f 715 599 83
f 904 344 355
f 904 436 351
f 905 1272 277
f 905 281 738
f 906 1228 1227
f 906 120 626
f 693 437 237
f 98 107 860
f 631 751 399
f 845 1142 1145
f 786 399 636
f 907 174 522
f 907 197 722
f 572 481 392
f 585 700 389
f 908 559 703
f 931 1256 1259
f 909 931 407
f 254 1288 1287
f 325 1190 1170
f 230 250 1123
f 910 90 86
f 75 910 86
f 299 1165 911
f 911 1158 870
f 548 350 354
f 325 835 548
f 685 208 191
f 334 801 321
f 334 478 801
f 495 1263 1119
f 645 1238 224
f 912 664 531
f 441 601 491
f 866 198 913
f 914 592 671
f 915 412 49
f 1074 175 1070
f 916 438 1162
f 116 1021 128
f 712 523 473
f 917 1257 1207
f 917 362 623
f 179 1056 1059
f 385 640 520
f 38 42 23
f 918 26 410
f 918 555 39
f 190 185 181
f 190 1099 185
f 919 218 836
f 101 93 871
f 740 684 558
f 54 525 472
f 129 151 672
f 920 396 850
f 920 514 757
f 724 495 849
f 921 355 676
f 921 373 364
f 1104 207 1101
f 1105 212 1102
f 1000 688 980
f 1080 878 1060
f 1081 837 199
f 533 922 558
f 738 1143 1156
f 923 57 745
f 122 1299 442
f 924 635 729
f 925 701 892
f 43 964 967
f 865 583 43
f 326 331 778
f 48 35 970
f 695 13 633
f 1111 212 1105
f 1112 221 1109
f 926 662 1129
f 927 1127 632
f 927 833 417
f 943 3 945
f 928 520 782
f 192 1308 1307
f 883 713 330
f 817 934 929
f 934 165 929
f 126 415 658
f 126 741 611
f 283 1161 1147
f 1251 190 1248
f 1250 167 1068
f 637 410 696
f 930 2 416
f 930 7 750
f 931 670 407
f 931 909 1256
f 932 925 451
f 932 569 409
f 614 1041 1033
f 817 937 934
f 934 1293 165
f 935 566 508
f 935 680 741
f 936 82 551
f 936 1023 1007
f 937 1290 934
f 937 817 504
f 938 1305 1219
f 938 393 479
f 939 391 679
f 12 940 483
f 2 930 575
f 1212 602 418
f 1308 185 1099
f 1309 216 235
f 940 952 483
f 940 458 950
f 482 1214 1213
f 7 779 521
f 930 416 7
f 12 615 458
f 715 941 509
f 1107 228 1287
f 927 417 1128
f 1220 1064 1063
f 1107 1287 1117
f 1084 1097 1069
f 542 1304 1303
f 1027 143 1037
f 977 502 993
f 978 896 1003
f 340 1186 1192
f 1188 320 1167
f 658 415 1032
f 974 599 509
f 975 915 987
f 1100 1251 1092
f 1064 164 1038
f 1065 157 1062
f 1096 1250 1068
f 1097 1084 1094
f 1305 938 1302
f 1304 542 1218
f 941 715 823
