OFF
341 634 0
-0.3475662 0.292512 0.1959457 
-0.344922 0.2218309 0.252944 
-0.1275331 0.203417 0.3090603 
-0.1654498 -0.05068085 0.3985413 
-0.3320014 -0.1417803 0.3362827 
-0.09722918 -0.0899129 0.3767539 
-0.06454505 -0.4858247 0.1077532 
-0.06465194 -0.5296486 0.04957345 
-0.2306247 -0.372665 0.2321979 
-0.3388041 -0.4133108 0.07811991 
-0.3224983 -0.3857988 0.1428019 
-0.2756534 -0.4944831 0 
-0.2199648 -0.4887462 0.06556837 
-0.2087998 -0.5251421 0 
-0.1153553 0.3548457 0.228808 
-0.2078373 0.1023042 0.3649657 
-0.1652587 0.1571155 0.3377208 
-0.07163694 0.3042504 0.2491375 
-0.2963171 0.4484671 0.06514926 
-0.1765306 0.3647696 0.217676 
-0.2917235 0.3475315 0.1861439 
-0.3513378 0.4053054 0.06975108 
-0.5146197 -0.1717144 0.0655937 
-0.4988711 -0.128054 0.1264485 
-0.5049145 -0.04594975 0.1412057 
-0.4884344 -0.2880939 0 
-0.4603918 -0.03800017 0.2174694 
-0.3477363 0.0687397 0.3243138 
-0.4968809 0.2247956 0.05850142 
-0.5042845 0.2674346 0 
-0.4519751 0.2566478 0.1062896 
-0.4162547 0.3175905 0.09590439 
-0.4450576 0.09326502 0.2182494 
-0.4834488 0.08113311 0.1653077 
-0.5390235 0.06933731 0.06282328 
-0.5587627 0.1112094 0 
-0.3934184 -0.3817562 0.04615407 
-0.5047784 0.1118007 0.1164732 
-0.482307 0.185363 0.1156148 
-0.2421785 0.04700779 0.3791432 
-0.2243498 -0.2157706 0.3572429 
-0.1555862 -0.1998026 0.3664451 
-0.3807883 -0.2261759 0.2481662 
-0.1577645 0.3146661 0.2536282 
-0.2708806 -0.1473847 0.3696759 
-0.4739029 -0.2066815 0.1233437 
-0.4814129 -0.2483008 0.06651677 
-0.05266546 -0.3807118 0.2079714 
-0.1013176 -0.01706195 0.3825188 
-0.3000146 -0.3556497 0.2061847 
-0.3057392 -0.06879994 0.3671347 
-0.5519026 -0.1375944 0 
-0.1448811 -0.5252557 0.04199618 
-0.3649676 -0.3267985 0.1697751 
-0.2376624 0.4430559 0.1171319 
-0.5665181 -0.05534892 0 
-0.1692315 -0.2672925 0.3336246 
-0.1869125 0.4777866 0.09971148 
-0.3356939 0.1506194 0.3002415 
-0.4047928 0.1654243 0.2339801 
-0.5234055 0.1494152 0.06062882 
-0.3861826 -0.1527005 0.2843477 
-0.4260169 -0.09548768 0.2561163 
-0.3923546 -0.2722746 0.1945467 
-0.04376421 0.01652129 0.3441942 
0 0.05162292 0.2921327 
-0.09890178 0.04591308 0.3711332 
-0.2918827 -0.459058 0.05199792 
-0.2726024 -0.4396147 0.1094998 
-0.5407651 -0.01209124 0.06898864 
-0.05657095 0.4958378 0.09576648 
-0.3391473 -0.2964292 0.2331018 
-0.3445121 -0.2006046 0.3011105 
-0.287353 0.4959361 0 
-0.05385277 0.08726493 0.3353589 
-0.4633639 -0.1648899 0.1714507 
-0.4688318 -0.1028887 0.1911225 
-0.1276264 -0.4578877 0.151497 
-0.1397254 -0.4957329 0.09496784 
0 -0.4479813 0.1070477 
-0.05757889 -0.4363932 0.160367 
-0.3574088 -0.01305876 0.3318522 
-0.3930586 0.03171938 0.2950064 
-0.3016423 0.01719826 0.3644083 
-0.4307244 -0.2223265 0.1842091 
-0.4405318 -0.3166181 0.06290391 
-0.3856041 -0.3517529 0.1076051 
-0.2297986 0.3336331 0.2283779 
-0.4606022 0.2979512 0.05046926 
-0.1030755 0.5299124 0.0542138 
-0.2176317 0.2722871 0.2735836 
-0.1871795 -0.3299856 0.2865719 
-0.111731 -0.358623 0.2554885 
-0.2387618 -0.02025265 0.392259 
-0.07286959 0.4426235 0.1535256 
-0.1341554 0.405182 0.1911814 
-0.4355034 0.2129514 0.1667834 
-0.0476385 -0.259701 0.2847061 
0 -0.2107059 0.2538831 
0 -0.2723502 0.2262068 
0 0.5148416 0.05304425 
-0.2961102 0.3993286 0.1291615 
-0.4292173 -0.2806771 0.1297988 
-0.2020953 -0.4574796 0.1319896 
-0.5256875 -0.2159877 0 
-0.4614737 0.3373729 0 
-0.2774372 0.2175397 0.2921948 
-0.4121253 -0.03035148 0.280398 
-0.4362213 0.02983175 0.2470993 
-0.066695 0.2290429 0.279976 
-0.1146882 -0.4123198 0.2045448 
-0.1851747 -0.4211313 0.1906503 
-0.1696858 0.03140682 0.3896479 
-0.2701175 -0.3199589 0.2664231 
-0.4450312 -0.3498691 0 
-0.5135615 0.03364675 0.1233904 
-0.3589974 0.3505465 0.1274484 
-0.169445 0.5149061 0.05466053 
-0.5367618 0.1923582 0 
-0.4609931 0.1450607 0.1736977 
-0.3962178 0.09689921 0.273561 
-0.2006271 0.2142121 0.3099421 
-0.2864812 0.2837824 0.2431206 
-0.2287905 -0.09299599 0.3929695 
-0.1558085 -0.1261245 0.3891792 
-0.2363704 0.4871094 0.05758037 
-0.391288 0.2346583 0.2029475 
-0.1283217 0.1007399 0.3588454 
-0.5331425 -0.09094566 0.06980367 
-0.4014261 0.2841816 0.1494443 
0 -0.5096235 0.05306424 
-0.04239451 0.5414192 0.04021456 
-0.2548928 -0.4091658 0.1714689 
-0.3469738 0.4567638 0 
-0.2429981 -0.2742149 0.3170275 
-0.2898449 -0.2102936 0.334644 
-0.2081567 -0.1582097 0.3824114 
-0.1096256 -0.3015372 0.2982237 
-0.2229976 0.3956367 0.1766998 
-0.2515403 0.1600261 0.3320267 
-0.3732503 -0.08399318 0.3162978 
-0.07547215 0.1559212 0.3157881 
-0.2179509 0.5297573 0 
-0.04330779 -0.1228691 0.3318541 
-0.3481025 -0.4466615 0 
-0.05981535 0.3760491 0.2032348 
-0.0953409 -0.1636587 0.3585868 
-0.3140721 -0.2597231 0.287204 
-0.05053953 -0.3219154 0.250148 
0 -0.3321752 0.1921611 
-0.1624187 0.4449856 0.1480426 
-0.1223718 0.4874046 0.107369 
-0.2867827 0.09667394 0.3486018 
-0.06839787 0.5693324 0 
-0.4286088 -0.1625306 0.2272356 
-0.1459664 0.5540397 0 
-0.04441975 -0.1925907 0.31179 
-0.5687363 0.02701634 0 
0 0.3886684 0.1521456 
-0.04343495 -0.0529125 0.343691 
-0.478699 0.02193211 0.1868326 
-0.1000516 -0.2355085 0.3324152 
-0.1387169 0.259929 0.2826263 
0 0.4489181 0.1072651 
-0.07314713 -0.5603097 0 
0 -0.08141134 0.2875521 
0 0.1862386 0.2707994 
0 -0.01590131 0.2929839 
-0.1670055 -0.3816953 0.2395657 
0 0.3211499 0.1970964 
0 0.2543586 0.2368525 
-0.403703 0.4057092 0 
-0.3983695 -0.4019898 0 
-0.1456375 -0.5454938 0 
-0.4091074 0.3567476 0.05926479 
0.3475662 0.292512 0.1959457 
0.344922 0.2218309 0.252944 
0.1275331 0.203417 0.3090603 
0.1654498 -0.05068085 0.3985413 
0.3320014 -0.1417803 0.3362827 
0.09722918 -0.0899129 0.3767539 
0.06454505 -0.4858247 0.1077532 
0.06465194 -0.5296486 0.04957345 
0.2306247 -0.372665 0.2321979 
0.3388041 -0.4133108 0.07811991 
0.3224983 -0.3857988 0.1428019 
0.2756534 -0.4944831 0 
0.2199648 -0.4887462 0.06556837 
0.2087998 -0.5251421 0 
0.1153553 0.3548457 0.228808 
0.2078373 0.1023042 0.3649657 
0.1652587 0.1571155 0.3377208 
0.07163694 0.3042504 0.2491375 
0.2963171 0.4484671 0.06514926 
0.1765306 0.3647696 0.217676 
0.2917235 0.3475315 0.1861439 
0.3513378 0.4053054 0.06975108 
0.5146197 -0.1717144 0.0655937 
0.4988711 -0.128054 0.1264485 
0.5049145 -0.04594975 0.1412057 
0.4884344 -0.2880939 0 
0.4603918 -0.03800017 0.2174694 
0.3477363 0.0687397 0.3243138 
0.4968809 0.2247956 0.05850142 
0.5042845 0.2674346 0 
0.4519751 0.2566478 0.1062896 
0.4162547 0.3175905 0.09590439 
0.4450576 0.09326502 0.2182494 
0.4834488 0.08113311 0.1653077 
0.5390235 0.06933731 0.06282328 
0.5587627 0.1112094 0 
0.3934184 -0.3817562 0.04615407 
0.5047784 0.1118007 0.1164732 
0.482307 0.185363 0.1156148 
0.2421785 0.04700779 0.3791432 
0.2243498 -0.2157706 0.3572429 
0.1555862 -0.1998026 0.3664451 
0.3807883 -0.2261759 0.2481662 
0.1577645 0.3146661 0.2536282 
0.2708806 -0.1473847 0.3696759 
0.4739029 -0.2066815 0.1233437 
0.4814129 -0.2483008 0.06651677 
0.05266546 -0.3807118 0.2079714 
0.1013176 -0.01706195 0.3825188 
0.3000146 -0.3556497 0.2061847 
0.3057392 -0.06879994 0.3671347 
0.5519026 -0.1375944 0 
0.1448811 -0.5252557 0.04199618 
0.3649676 -0.3267985 0.1697751 
0.2376624 0.4430559 0.1171319 
0.5665181 -0.05534892 0 
0.1692315 -0.2672925 0.3336246 
0.1869125 0.4777866 0.09971148 
0.3356939 0.1506194 0.3002415 
0.4047928 0.1654243 0.2339801 
0.5234055 0.1494152 0.06062882 
0.3861826 -0.1527005 0.2843477 
0.4260169 -0.09548768 0.2561163 
0.3923546 -0.2722746 0.1945467 
0.04376421 0.01652129 0.3441942 
0.09890178 0.04591308 0.3711332 
0.2918827 -0.459058 0.05199792 
0.2726024 -0.4396147 0.1094998 
0.5407651 -0.01209124 0.06898864 
0.05657095 0.4958378 0.09576648 
0.3391473 -0.2964292 0.2331018 
0.3445121 -0.2006046 0.3011105 
0.287353 0.4959361 0 
0.05385277 0.08726493 0.3353589 
0.4633639 -0.1648899 0.1714507 
0.4688318 -0.1028887 0.1911225 
0.1276264 -0.4578877 0.151497 
0.1397254 -0.4957329 0.09496784 
0.05757889 -0.4363932 0.160367 
0.3574088 -0.01305876 0.3318522 
0.3930586 0.03171938 0.2950064 
0.3016423 0.01719826 0.3644083 
0.4307244 -0.2223265 0.1842091 
0.4405318 -0.3166181 0.06290391 
0.3856041 -0.3517529 0.1076051 
0.2297986 0.3336331 0.2283779 
0.4606022 0.2979512 0.05046926 
0.1030755 0.5299124 0.0542138 
0.2176317 0.2722871 0.2735836 
0.1871795 -0.3299856 0.2865719 
0.111731 -0.358623 0.2554885 
0.2387618 -0.02025265 0.392259 
0.07286959 0.4426235 0.1535256 
0.1341554 0.405182 0.1911814 
0.4355034 0.2129514 0.1667834 
0.0476385 -0.259701 0.2847061 
0.2961102 0.3993286 0.1291615 
0.4292173 -0.2806771 0.1297988 
0.2020953 -0.4574796 0.1319896 
0.5256875 -0.2159877 0 
0.4614737 0.3373729 0 
0.2774372 0.2175397 0.2921948 
0.4121253 -0.03035148 0.280398 
0.4362213 0.02983175 0.2470993 
0.066695 0.2290429 0.279976 
0.1146882 -0.4123198 0.2045448 
0.1851747 -0.4211313 0.1906503 
0.1696858 0.03140682 0.3896479 
0.2701175 -0.3199589 0.2664231 
0.4450312 -0.3498691 0 
0.5135615 0.03364675 0.1233904 
0.3589974 0.3505465 0.1274484 
0.169445 0.5149061 0.05466053 
0.5367618 0.1923582 0 
0.4609931 0.1450607 0.1736977 
0.3962178 0.09689921 0.273561 
0.2006271 0.2142121 0.3099421 
0.2864812 0.2837824 0.2431206 
0.2287905 -0.09299599 0.3929695 
0.1558085 -0.1261245 0.3891792 
0.2363704 0.4871094 0.05758037 
0.391288 0.2346583 0.2029475 
0.1283217 0.1007399 0.3588454 
0.5331425 -0.09094566 0.06980367 
0.4014261 0.2841816 0.1494443 
0.04239451 0.5414192 0.04021456 
0.2548928 -0.4091658 0.1714689 
0.3469738 0.4567638 0 
0.2429981 -0.2742149 0.3170275 
0.2898449 -0.2102936 0.334644 
0.2081567 -0.1582097 0.3824114 
0.1096256 -0.3015372 0.2982237 
0.2229976 0.3956367 0.1766998 
0.2515403 0.1600261 0.3320267 
0.3732503 -0.08399318 0.3162978 
0.07547215 0.1559212 0.3157881 
0.2179509 0.5297573 0 
0.04330779 -0.1228691 0.3318541 
0 0.575 0 
0.3481025 -0.4466615 0 
0.05981535 0.3760491 0.2032348 
0.0953409 -0.1636587 0.3585868 
0.3140721 -0.2597231 0.287204 
0.05053953 -0.3219154 0.250148 
0.1624187 0.4449856 0.1480426 
0.1223718 0.4874046 0.107369 
0.2867827 0.09667394 0.3486018 
0.06839787 0.5693324 0 
0.4286088 -0.1625306 0.2272356 
0.1459664 0.5540397 0 
0.04441975 -0.1925907 0.31179 
0.5687363 0.02701634 0 
0 -0.5663709 0 
0.04343495 -0.0529125 0.343691 
0.478699 0.02193211 0.1868326 
0.1000516 -0.2355085 0.3324152 
0.1387169 0.259929 0.2826263 
0.07314713 -0.5603097 0 
0 -0.1470118 0.2745413 
0 0.1197156 0.2856506 
0.1670055 -0.3816953 0.2395657 
0 -0.3906327 0.1521495 
0.403703 0.4057092 0 
0.3983695 -0.4019898 0 
0.1456375 -0.5454938 0 
0.4091074 0.3567476 0.05926479 
3 0 1 122 
3 78 52 7 
3 101 21 116 
3 45 23 22 
3 152 58 27 
3 136 124 123 
3 60 118 35 
3 53 63 102 
3 28 29 118 
3 66 64 74 
3 102 85 86 
3 26 160 24 
3 97 99 98 
3 41 136 40 
3 125 18 54 
3 9 10 86 
3 22 104 46 
3 46 102 45 
3 111 77 110 
3 54 57 125 
3 80 47 110 
3 116 129 0 
3 9 67 68 
3 106 122 1 
3 59 126 96 
3 72 42 147 
3 71 53 49 
3 51 22 128 
3 129 31 30 
3 68 10 9 
3 53 102 86 
3 35 34 60 
3 44 123 50 
3 40 56 41 
3 30 38 96 
3 111 8 132 
3 25 114 85 
3 49 113 71 
3 33 115 160 
3 138 54 101 
3 46 85 102 
3 68 67 12 
3 145 95 14 
3 81 82 107 
3 2 16 141 
3 147 71 113 
3 95 94 150 
3 89 117 151 
3 12 11 13 
3 32 59 119 
3 139 16 121 
3 128 55 51 
3 24 23 76 
3 36 114 172 
3 117 89 155 
3 143 5 146 
3 45 84 75 
3 28 118 60 
3 45 75 23 
3 22 51 104 
3 60 34 37 
3 88 28 30 
3 145 169 158 
3 122 106 90 
3 94 151 150 
3 162 17 43 
3 71 147 42 
3 140 107 62 
3 112 39 93 
3 103 12 78 
3 64 48 159 
3 4 72 135 
3 151 94 70 
3 68 12 103 
3 86 85 36 
3 154 62 76 
3 31 129 116 
3 37 34 115 
3 161 97 156 
3 149 148 47 
3 83 50 93 
3 121 2 162 
3 81 107 140 
3 1 126 59 
3 20 122 87 
3 163 94 158 
3 115 33 37 
3 32 120 59 
3 89 131 153 
3 89 153 155 
3 29 88 105 
3 23 24 128 
3 154 61 62 
3 128 24 69 
3 125 57 117 
3 34 35 157 
3 327 7 164 
3 63 42 84 
3 70 100 131 
3 106 139 121 
3 43 19 87 
3 14 95 19 
3 93 3 112 
3 108 107 82 
3 141 74 334 
3 64 65 74 
3 6 79 80 
3 156 143 146 
3 138 20 87 
3 26 107 108 
3 0 20 116 
3 8 111 168 
3 119 38 37 
3 129 96 126 
3 108 160 26 
3 10 53 86 
3 132 103 111 
3 62 26 76 
3 117 155 142 
3 119 33 32 
3 144 9 36 
3 86 36 9 
3 76 75 154 
3 55 128 69 
3 29 28 88 
3 130 6 7 
3 23 75 76 
3 53 10 49 
3 164 7 52 
3 114 36 85 
3 45 22 46 
3 25 85 46 
3 4 44 50 
3 152 39 15 
3 121 162 90 
3 137 97 161 
3 139 15 16 
3 19 138 87 
3 150 54 138 
3 333 143 156 
3 141 334 166 
3 107 26 62 
3 115 24 160 
3 136 41 124 
3 1 59 58 
3 42 72 61 
3 138 19 95 
3 77 6 80 
3 113 49 8 
3 78 6 77 
3 7 6 78 
3 120 108 82 
3 70 163 100 
3 127 66 74 
3 151 70 89 
3 84 154 75 
3 115 69 24 
3 42 61 154 
3 67 11 12 
3 10 68 132 
3 123 124 3 
3 161 146 41 
3 97 148 99 
3 143 165 159 
3 139 58 152 
3 156 98 333 
3 113 8 91 
3 120 58 59 
3 53 71 63 
3 92 91 168 
3 4 140 61 
3 62 61 140 
3 27 82 81 
3 57 150 151 
3 119 96 38 
3 108 32 160 
3 24 76 26 
3 103 77 111 
3 154 84 42 
3 327 130 7 
3 49 132 8 
3 69 34 157 
3 30 28 38 
3 125 73 18 
3 9 144 67 
3 103 132 68 
3 141 16 127 
3 34 69 115 
3 45 102 84 
3 128 22 23 
3 83 152 27 
3 3 93 123 
3 109 166 170 
3 43 90 162 
3 44 40 136 
3 148 97 137 
3 92 47 148 
3 148 137 92 
3 20 138 101 
3 8 168 91 
3 32 108 120 
3 163 70 94 
3 101 116 20 
3 16 2 121 
3 48 64 66 
3 52 78 12 
3 52 12 13 
3 80 110 77 
3 80 79 336 
3 49 10 132 
3 103 78 77 
3 117 57 151 
3 63 71 42 
3 60 38 28 
3 160 32 33 
3 30 96 129 
3 3 48 112 
3 83 93 39 
3 56 40 134 
3 146 124 41 
3 92 110 47 
3 138 95 150 
3 81 50 83 
3 96 119 59 
3 167 159 165 
3 94 95 145 
3 44 135 40 
3 112 66 127 
3 0 129 126 
3 134 147 113 
3 27 120 82 
3 141 166 109 
3 73 133 18 
3 72 4 61 
3 97 98 156 
3 142 73 125 
3 125 117 142 
3 88 174 105 
3 37 33 119 
3 67 144 11 
3 84 102 63 
3 54 150 57 
3 333 165 143 
3 87 90 43 
3 123 44 136 
3 113 91 134 
3 134 40 135 
3 137 91 92 
3 127 16 15 
3 5 159 48 
3 2 109 162 
3 159 5 143 
3 161 41 56 
3 90 87 122 
3 39 112 15 
3 4 135 44 
3 120 27 58 
3 168 110 92 
3 145 158 94 
3 168 111 110 
3 112 48 66 
3 162 109 17 
3 91 137 56 
3 50 140 4 
3 146 5 124 
3 27 81 83 
3 56 137 161 
3 50 81 140 
3 14 19 43 
3 127 15 112 
3 58 106 1 
3 167 64 159 
3 91 56 134 
3 147 134 135 
3 17 14 43 
3 139 106 58 
3 2 141 109 
3 83 39 152 
3 3 5 48 
3 15 139 152 
3 161 156 146 
3 106 121 90 
3 70 131 89 
3 50 123 93 
3 153 131 313 
3 135 72 147 
3 127 74 141 
3 122 20 0 
3 17 170 169 
3 3 124 5 
3 21 171 174 
3 145 14 17 
3 313 131 100 
3 74 65 334 
3 1 0 126 
3 88 30 31 
3 47 336 149 
3 47 80 336 
3 17 169 145 
3 79 6 130 
3 148 149 99 
3 60 37 38 
3 65 64 167 
3 69 157 55 
3 170 17 109 
3 25 46 104 
3 101 54 18 
3 172 144 36 
3 52 13 173 
3 21 101 18 
3 21 18 133 
3 174 31 116 
3 173 164 52 
3 88 31 174 
3 21 133 171 
3 174 116 21 
3 174 171 105 
3 175 292 176 
3 252 182 227 
3 271 286 196 
3 220 197 198 
3 321 202 233 
3 305 293 294 
3 235 210 288 
3 228 272 238 
3 203 288 204 
3 240 248 239 
3 272 259 258 
3 201 199 329 
3 270 98 99 
3 216 215 305 
3 295 229 193 
3 184 259 185 
3 197 221 274 
3 221 220 272 
3 281 280 251 
3 229 295 232 
3 253 280 222 
3 286 175 299 
3 184 242 241 
3 276 176 292 
3 234 269 296 
3 246 317 217 
3 245 224 228 
3 226 298 197 
3 299 205 206 
3 242 184 185 
3 228 259 272 
3 210 235 209 
3 219 225 293 
3 215 216 231 
3 205 269 213 
3 281 301 183 
3 200 258 284 
3 224 245 283 
3 208 329 285 
3 307 271 229 
3 221 272 258 
3 242 187 241 
3 315 189 268 
3 254 277 255 
3 177 310 191 
3 317 283 245 
3 268 319 267 
3 262 320 287 
3 187 188 186 
3 207 289 234 
3 308 291 191 
3 298 226 230 
3 199 250 198 
3 211 338 284 
3 287 324 262 
3 312 316 180 
3 220 249 257 
3 203 235 288 
3 220 198 249 
3 197 274 226 
3 235 212 209 
3 261 205 203 
3 315 158 169 
3 292 263 276 
3 267 319 320 
3 331 218 192 
3 245 217 317 
3 309 237 277 
3 282 266 214 
3 273 252 187 
3 239 328 223 
3 179 304 246 
3 320 244 267 
3 242 273 187 
3 259 211 258 
3 323 250 237 
3 206 286 299 
3 212 285 209 
3 330 325 270 
3 149 222 318 
3 256 266 225 
3 291 331 177 
3 254 309 277 
3 176 234 296 
3 195 260 292 
3 163 158 267 
3 285 212 208 
3 207 234 290 
3 262 322 300 
3 262 324 322 
3 204 275 261 
3 198 298 199 
3 323 237 236 
3 298 243 199 
3 295 287 232 
3 209 326 210 
3 327 332 182 
3 238 257 217 
3 244 300 100 
3 276 291 308 
3 218 260 194 
3 189 194 268 
3 266 282 178 
3 278 255 277 
3 310 334 248 
3 239 248 65 
3 181 253 79 
3 325 316 312 
3 307 260 195 
3 201 278 277 
3 175 286 195 
3 183 335 281 
3 289 212 213 
3 299 296 269 
3 278 201 329 
3 185 259 228 
3 301 281 273 
3 237 250 201 
3 287 311 324 
3 289 207 208 
3 314 211 184 
3 259 184 211 
3 250 323 249 
3 230 243 298 
3 204 261 203 
3 130 182 181 
3 198 250 249 
3 228 224 185 
3 332 227 182 
3 284 258 211 
3 220 221 197 
3 200 221 258 
3 179 225 219 
3 321 190 214 
3 291 263 331 
3 306 330 270 
3 308 191 190 
3 194 260 307 
3 319 307 229 
3 333 325 312 
3 310 166 334 
3 277 237 201 
3 285 329 199 
3 305 294 216 
3 176 233 234 
3 217 236 246 
3 307 268 194 
3 251 253 181 
3 283 183 224 
3 252 251 181 
3 182 252 181 
3 290 255 278 
3 244 100 163 
3 297 248 240 
3 320 262 244 
3 257 249 323 
3 285 199 243 
3 217 323 236 
3 241 187 186 
3 185 301 242 
3 293 178 294 
3 330 216 316 
3 270 99 318 
3 312 328 165 
3 308 321 233 
3 325 333 98 
3 283 264 183 
3 290 234 233 
3 228 238 245 
3 265 335 264 
3 179 236 309 
3 237 309 236 
3 202 254 255 
3 232 320 319 
3 289 213 269 
3 278 329 207 
3 199 201 250 
3 273 281 251 
3 323 217 257 
3 327 182 130 
3 224 183 301 
3 243 326 209 
3 205 213 203 
3 295 193 247 
3 184 241 314 
3 273 242 301 
3 310 297 191 
3 209 285 243 
3 220 257 272 
3 298 198 197 
3 256 202 321 
3 178 293 266 
3 279 170 166 
3 218 331 263 
3 219 305 215 
3 318 306 270 
3 265 318 222 
3 318 265 306 
3 195 271 307 
3 183 264 335 
3 207 290 278 
3 163 267 244 
3 271 195 286 
3 191 291 177 
3 223 240 239 
3 227 187 252 
3 227 188 187 
3 253 251 280 
3 253 336 79 
3 224 301 185 
3 273 251 252 
3 287 320 232 
3 238 217 245 
3 235 203 213 
3 329 208 207 
3 205 299 269 
3 178 282 223 
3 256 214 266 
3 231 303 215 
3 316 216 294 
3 265 222 280 
3 307 319 268 
3 254 256 225 
3 269 234 289 
3 167 165 328 
3 267 315 268 
3 219 215 304 
3 282 297 240 
3 175 296 299 
3 303 283 317 
3 202 255 290 
3 310 279 166 
3 247 193 302 
3 246 236 179 
3 270 325 98 
3 311 295 247 
3 295 311 287 
3 261 275 340 
3 212 289 208 
3 241 186 314 
3 257 238 272 
3 229 232 319 
3 333 312 165 
3 260 218 263 
3 293 305 219 
3 283 303 264 
3 303 304 215 
3 306 265 264 
3 297 190 191 
3 180 223 328 
3 177 331 279 
3 328 312 180 
3 330 231 216 
3 263 292 260 
3 214 190 282 
3 179 219 304 
3 290 233 202 
3 335 265 280 
3 315 267 158 
3 335 280 281 
3 282 240 223 
3 331 192 279 
3 264 231 306 
3 225 179 309 
3 316 294 180 
3 202 256 254 
3 231 330 306 
3 225 309 254 
3 189 218 194 
3 297 282 190 
3 233 176 276 
3 167 328 239 
3 264 303 231 
3 317 304 303 
3 192 218 189 
3 308 233 276 
3 177 279 310 
3 256 321 214 
3 178 223 180 
3 190 321 308 
3 330 316 325 
3 276 263 291 
3 244 262 300 
3 225 266 293 
3 322 313 300 
3 304 317 246 
3 297 310 248 
3 292 175 195 
3 192 169 170 
3 178 180 294 
3 196 340 337 
3 315 192 189 
3 313 100 300 
3 248 334 65 
3 176 296 175 
3 261 206 205 
3 222 149 336 
3 222 336 253 
3 192 315 169 
3 79 130 181 
3 318 99 149 
3 235 213 212 
3 65 167 239 
3 243 230 326 
3 170 279 192 
3 200 274 221 
3 271 193 229 
3 338 211 314 
3 227 339 188 
3 196 193 271 
3 196 302 193 
3 340 286 206 
3 339 227 332 
3 261 340 206 
3 196 337 302 
3 340 196 286 
3 340 275 337 
