OFF
341 634 0
-0.258351411894806 0.216760513899798 0.139738222500351
-0.255812942406963 0.164075354730508 0.18022940485764
-0.0960745304516149 0.152977240352914 0.225316651362192
-0.124881773496255 -0.0354008825077725 0.283290928649126
-0.245840950464168 -0.102311286326324 0.23896362972854
-0.0752962360760373 -0.0640825883270812 0.267949474229206
-0.0497815147148419 -0.360935742868667 0.077375260162598
-0.0486826191112323 -0.395074871532705 0.0353770221691725
-0.172318334048524 -0.272658618592121 0.165171339923922
-0.252258675688018 -0.306557795651867 0.0548556510121427
-0.239876701131441 -0.284615422841226 0.101130651944886
-0.20674005 -0.370862325 0
-0.164640129660398 -0.363812474909725 0.0466094233774398
-0.15659985 -0.393856575 0
-0.0885225593726298 0.263122531636687 0.164635246809029
-0.155527635311519 0.076785439371534 0.261421892253635
-0.124117035700753 0.118329736172599 0.244749838571677
-0.0557891807601349 0.228327318116514 0.183176687817798
-0.22153596967262 0.334430644224003 0.0462006638988679
-0.132982038455508 0.269772655676308 0.155774653769501
-0.217709991351249 0.257873066378715 0.133364279005833
-0.262227849569757 0.302035662388471 0.0492877967326844
-0.382288364949934 -0.127227821427365 0.0454558805020222
-0.369212523690544 -0.0940985042911874 0.08862879179224
-0.373636733079091 -0.0333817012884472 0.0992385699141524
-0.3663258 -0.216070425 0
-0.340173077187603 -0.0271152027506952 0.153852412677337
-0.257371439513099 0.0515456763520503 0.230721076559364
-0.369460948922361 0.167243843916537 0.0404884222980414
-0.378213375 0.20057595 0
-0.335533186879725 0.190561858862759 0.0746817715554386
-0.309592700232843 0.236074269841744 0.0675455430329083
-0.329340284610562 0.0695044346117852 0.154779470195309
-0.357743339038995 0.060470306739103 0.116619378201775
-0.400632503301598 0.0517356812286921 0.0435331481389878
-0.419072025 0.08340705 0
-0.293580913494553 -0.284434375102567 0.0322620900680201
-0.374164628604773 0.083160690084603 0.0817252670880022
-0.357411360972999 0.137523928309904 0.0810423341042845
-0.180415101229694 0.0357723622135762 0.269870320854027
-0.167560679366054 -0.15592823641706 0.253913889731463
-0.117650003930587 -0.14413005748429 0.260371469732323
-0.282094299848376 -0.165282378185311 0.176274361293611
-0.119165046443539 0.233680415052479 0.183302723308589
-0.201262836750679 -0.106019546262363 0.262604265973942
-0.350705074285802 -0.152180740086225 0.0863936215127275
-0.357694162523052 -0.184102954512748 0.0461786011783643
-0.04208029279542 -0.281558279572273 0.150164934831706
-0.0786133071258191 -0.0108794967420845 0.271660101973247
-0.223141663443254 -0.260923072265882 0.146482928885032
-0.22674648138013 -0.0488514009817461 0.261190653024434
-0.41392695 -0.1031958 0
-0.108541999856335 -0.391618013907612 0.0298077839153765
-0.271100122024767 -0.240691967869715 0.120401725846465
-0.177766267274797 0.328954923420614 0.0832906500513064
-0.424888575 -0.04151169 0
-0.127584862807 -0.19362436768649 0.23707438158393
-0.140004328378194 0.354454080506421 0.0703516335856401
-0.248984667148321 0.111777749953888 0.214229787093204
-0.299830246682062 0.122645243941459 0.166350935381151
-0.389158708767546 0.111237252457294 0.0420100739278155
-0.285411867997497 -0.110772718576803 0.201696798882112
-0.314717924586999 -0.0691021921774571 0.181520877798017
-0.290536703760717 -0.199711848852218 0.137679224164194
-0.0365981797369202 0.0140287824103132 0.2454000074503
2.15821184476775e-16 0.041712301683772 0.214544693822436
-0.0768454863707991 0.0352279477066017 0.264057930522695
-0.218147575913095 -0.342064890590389 0.0366993248941674
-0.20333307067479 -0.325442984671915 0.0775783763139912
-0.401640768962048 -0.00871770177716876 0.0478450194984481
-0.0438252185388864 0.36993781390828 0.0693730188586582
-0.251781890636344 -0.21709180675392 0.165718748502842
-0.254938410501659 -0.145578844612695 0.213717013214203
-0.21551475 0.371952075 0
-0.0432483245765977 0.0664702333482522 0.240615000496691
-0.342506656325752 -0.120809131684568 0.120799227600819
-0.346549788227237 -0.075025375937458 0.134966630235345
-0.0966781103257306 -0.337587099192733 0.107854620771074
-0.105020112325056 -0.367443071375268 0.0675140171285182
9.83214682217911e-17 -0.339873106200185 0.0831812951936299
-0.0455722796576584 -0.323457822164221 0.115672665844533
-0.264455617698708 -0.0083086979881544 0.235987732830419
-0.290337914495857 0.0243122872663982 0.209352867772843
-0.223645103467356 0.0139033093097461 0.25916590251525
-0.318658378996552 -0.163066371743411 0.130123035849276
-0.327627688380686 -0.235020597423246 0.0437614976589383
-0.286585000829153 -0.26023915795968 0.075790034112764
-0.171988144523092 0.247115915480209 0.163922435723508
-0.343108632018467 0.221965157177017 0.035038376219857
-0.0774226903771021 0.394646630052686 0.0381079408407041
-0.162903938731958 0.202195840826429 0.197264060730258
-0.140654558634306 -0.240432230707267 0.20411544719386
-0.0858101403363644 -0.262010321029945 0.181976434660496
-0.177972726310573 -0.0133098135880238 0.278986685259211
-0.0570650509637247 0.329806067655183 0.111387490936519
-0.102119119071841 0.299926849325335 0.136714940726289
-0.322542672828052 0.157737912883864 0.117859995480982
-0.0380100651464743 -0.190609287386122 0.20457291933465
2.11365694084098e-16 -0.157157484021595 0.185433731891795
1.87277661259658e-16 -0.204325474502862 0.166368598522457
2.91200772754684e-17 0.390129372934277 0.0435135905359156
-0.221047988293089 0.296678975129718 0.0920980997136648
-0.318306551480091 -0.207093586828252 0.0914121290796098
-0.151280674328779 -0.337804372211741 0.0937850331349122
-0.394265625 -0.161990775 0
-0.346105275 0.253029675 0
-0.206500384151421 0.161227474242153 0.209324684854789
-0.304598870638373 -0.0212019389978458 0.199070588336759
-0.322360177895428 0.0228507220555289 0.175183483887586
-0.0504836703843844 0.173681116750227 0.207342083119481
-0.0877201725395056 -0.302666208342405 0.145776422306
-0.139018754318942 -0.309138812642585 0.135556763710614
-0.127920044201344 0.0245616339979418 0.277713794655474
-0.201155438683912 -0.2335674736454 0.189606014387101
-0.3337734 -0.262401825 0
-0.380374116992002 0.0253414961836717 0.0865608461897396
-0.267568368820961 0.260704807230696 0.0908119425383344
-0.1269028531942 0.383568302591222 0.0384269569267724
-0.40257135 0.14426865 0
-0.341216273975737 0.107635326679411 0.122728041453036
-0.293164674614498 0.072206981919811 0.1944909284589
-0.150213793278619 0.159612152364232 0.223696183968456
-0.213463259733146 0.210293259956823 0.174304967052791
-0.170754063594449 -0.0662798786281606 0.279403604172753
-0.117828020173248 -0.0903518159061676 0.276567686095311
-0.176814053229519 0.363015626001637 0.0406027155616219
-0.28986674948295 0.173588018697015 0.143978446421069
-0.0973874467264956 0.0762986093365774 0.258166511386397
-0.395856361458828 -0.0672093446575117 0.048386149107512
-0.298032492308197 0.210770148267166 0.105884708828122
6.25907180643827e-17 -0.385369873906193 0.0423308366583212
-0.0320575767736133 0.404960767779902 0.0290782780871893
-0.190194995042274 -0.301182713620969 0.121906699043688
-0.26023035 0.34257285 0
-0.181223874672295 -0.199147611723362 0.2255045624021
-0.215219897733234 -0.152317318398797 0.237897490458621
-0.155739115982624 -0.113670251599066 0.271412028499248
-0.0842556589603495 -0.219537692902525 0.212416137538722
-0.167165983244206 0.293343616932534 0.126562504790407
-0.187447340162901 0.119031788495689 0.237931393940673
-0.275902917714243 -0.0602537441693483 0.224618129764393
-0.0571685700393631 0.118648326127826 0.230859765532613
-0.163463175 0.397317975 0
-0.0348812397971688 -0.0888584485229366 0.237481565328431
-0.261076875 -0.334996125 0
-0.0480466742879935 0.281494748336824 0.149198803497944
-0.0736712984946718 -0.118124442002073 0.255372163042692
-0.233200903892093 -0.18926789606422 0.204352333897106
-0.0403396489444747 -0.237231451465734 0.180204717654566
1.59650706480858e-16 -0.250421730807971 0.142953488291045
-0.122358185855476 0.329495962131607 0.105244760609979
-0.0924300989569559 0.361551849764716 0.0760039804655903
-0.213013581764661 0.0721898796806489 0.248652234651537
-0.0512984025 0.4269993 0
-0.316754070775049 -0.118570543492063 0.160837168779035
-0.1094748 0.415529775 0
-0.0355232958682922 -0.140607108424233 0.22356350427852
-0.426552225 0.020262255 0
1.0732360119534e-16 0.298961624000332 0.121346388005622
-0.035659147935361 -0.0371251967140752 0.245331428717382
-0.354060535967904 0.0168787260422341 0.132023371302476
-0.0771779332832829 -0.170863235246535 0.236754962879492
-0.104671972527756 0.194311166397024 0.205909932012871
4.98346122863553e-17 0.343274936055296 0.0869365953460279
-0.0548603475 -0.420232275 0
2.34522825579635e-16 -0.0590270118011205 0.209131750694768
1.98734684329763e-16 0.143506001591955 0.20177198324056
2.33683036849786e-16 -0.00948145862865538 0.213626387101757
-0.125900979416262 -0.278704524252941 0.170144906905576
1.3278994012196e-16 0.247892738007081 0.154243227187789
1.62580710416671e-16 0.196601788962375 0.181270299001757
-0.30277725 0.3042819 0
-0.298777125 -0.30149235 0
-0.109228125 -0.40912035 0
-0.305172625361859 0.265997940379131 0.0416675374037557
0.258351411894807 0.216760513899798 0.139738222500351
0.255812942406964 0.164075354730508 0.180229404857641
0.0960745304516153 0.152977240352914 0.225316651362192
0.124881773496256 -0.0354008825077725 0.283290928649126
0.245840950464168 -0.102311286326324 0.238963629728541
0.0752962360760378 -0.0640825883270812 0.267949474229206
0.0497815147148421 -0.360935742868667 0.077375260162598
0.0486826191112324 -0.395074871532705 0.0353770221691725
0.172318334048525 -0.272658618592121 0.165171339923922
0.252258675688018 -0.306557795651867 0.0548556510121428
0.239876701131442 -0.284615422841226 0.101130651944886
0.20674005 -0.370862325 0
0.164640129660398 -0.363812474909725 0.0466094233774398
0.15659985 -0.393856575 0
0.0885225593726301 0.263122531636687 0.16463524680903
0.155527635311519 0.076785439371534 0.261421892253635
0.124117035700754 0.118329736172599 0.244749838571677
0.0557891807601352 0.228327318116514 0.183176687817798
0.22153596967262 0.334430644224003 0.0462006638988679
0.132982038455509 0.269772655676308 0.155774653769501
0.217709991351249 0.257873066378715 0.133364279005833
0.262227849569757 0.302035662388471 0.0492877967326845
0.382288364949934 -0.127227821427365 0.0454558805020223
0.369212523690544 -0.0940985042911875 0.0886287917922401
0.373636733079091 -0.0333817012884472 0.0992385699141525
0.3663258 -0.216070425 0
0.340173077187603 -0.0271152027506952 0.153852412677337
0.257371439513099 0.0515456763520503 0.230721076559364
0.369460948922361 0.167243843916537 0.0404884222980415
0.378213375 0.20057595 0
0.335533186879725 0.190561858862759 0.0746817715554386
0.309592700232843 0.236074269841744 0.0675455430329084
0.329340284610563 0.0695044346117853 0.154779470195309
0.357743339038995 0.0604703067391031 0.116619378201775
0.400632503301598 0.0517356812286921 0.0435331481389878
0.419072025 0.08340705 0
0.293580913494553 -0.284434375102567 0.0322620900680201
0.374164628604773 0.083160690084603 0.0817252670880023
0.357411360973 0.137523928309904 0.0810423341042846
0.180415101229694 0.0357723622135762 0.269870320854027
0.167560679366055 -0.15592823641706 0.253913889731464
0.117650003930587 -0.14413005748429 0.260371469732323
0.282094299848376 -0.165282378185311 0.176274361293612
0.11916504644354 0.233680415052479 0.183302723308589
0.201262836750679 -0.106019546262363 0.262604265973942
0.350705074285802 -0.152180740086225 0.0863936215127276
0.357694162523052 -0.184102954512748 0.0461786011783644
0.0420802927954204 -0.281558279572273 0.150164934831706
0.0786133071258196 -0.0108794967420845 0.271660101973247
0.223141663443254 -0.260923072265882 0.146482928885033
0.226746481380131 -0.0488514009817462 0.261190653024435
0.41392695 -0.1031958 0
0.108541999856335 -0.391618013907612 0.0298077839153764
0.271100122024767 -0.240691967869715 0.120401725846466
0.177766267274797 0.328954923420614 0.0832906500513065
0.424888575 -0.04151169 0
0.127584862807001 -0.19362436768649 0.237074381583931
0.140004328378194 0.354454080506421 0.0703516335856403
0.248984667148321 0.111777749953888 0.214229787093205
0.299830246682062 0.122645243941459 0.166350935381151
0.389158708767546 0.111237252457294 0.0420100739278155
0.285411867997497 -0.110772718576803 0.201696798882112
0.314717924586999 -0.0691021921774571 0.181520877798017
0.290536703760717 -0.199711848852218 0.137679224164194
0.0365981797369207 0.0140287824103132 0.2454000074503
0.0768454863707997 0.0352279477066017 0.264057930522695
0.218147575913095 -0.342064890590389 0.0366993248941675
0.20333307067479 -0.325442984671915 0.0775783763139913
0.401640768962048 -0.00871770177716877 0.0478450194984482
0.0438252185388865 0.36993781390828 0.0693730188586582
0.251781890636344 -0.21709180675392 0.165718748502842
0.254938410501659 -0.145578844612695 0.213717013214204
0.21551475 0.371952075 0
0.0432483245765981 0.0664702333482522 0.240615000496691
0.342506656325752 -0.120809131684568 0.120799227600819
0.346549788227237 -0.075025375937458 0.134966630235346
0.0966781103257308 -0.337587099192733 0.107854620771074
0.105020112325057 -0.367443071375268 0.0675140171285183
0.0455722796576587 -0.323457822164221 0.115672665844533
0.264455617698709 -0.00830869798815442 0.23598773283042
0.290337914495858 0.0243122872663982 0.209352867772843
0.223645103467356 0.0139033093097461 0.25916590251525
0.318658378996552 -0.163066371743411 0.130123035849276
0.327627688380687 -0.235020597423246 0.0437614976589384
0.286585000829153 -0.26023915795968 0.0757900341127642
0.171988144523093 0.247115915480209 0.163922435723509
0.343108632018467 0.221965157177017 0.035038376219857
0.0774226903771022 0.394646630052687 0.0381079408407041
0.162903938731958 0.202195840826429 0.197264060730259
0.140654558634306 -0.240432230707267 0.20411544719386
0.0858101403363649 -0.262010321029945 0.181976434660496
0.177972726310574 -0.0133098135880238 0.278986685259212
0.0570650509637249 0.329806067655183 0.111387490936519
0.102119119071841 0.299926849325335 0.136714940726289
0.322542672828052 0.157737912883864 0.117859995480982
0.0380100651464748 -0.190609287386122 0.20457291933465
0.221047988293089 0.296678975129718 0.0920980997136649
0.318306551480091 -0.207093586828252 0.0914121290796099
0.151280674328779 -0.337804372211741 0.0937850331349123
0.394265625 -0.161990775 0
0.346105275 0.253029675 0
0.206500384151421 0.161227474242153 0.20932468485479
0.304598870638373 -0.0212019389978458 0.19907058833676
0.322360177895428 0.0228507220555289 0.175183483887587
0.0504836703843847 0.173681116750227 0.207342083119481
0.087720172539506 -0.302666208342405 0.145776422306
0.139018754318943 -0.309138812642586 0.135556763710614
0.127920044201344 0.0245616339979418 0.277713794655474
0.201155438683912 -0.233567473645401 0.189606014387101
0.3337734 -0.262401825 0
0.380374116992002 0.0253414961836717 0.0865608461897397
0.267568368820962 0.260704807230696 0.0908119425383346
0.126902853194201 0.383568302591222 0.0384269569267725
0.40257135 0.14426865 0
0.341216273975737 0.107635326679411 0.122728041453036
0.293164674614499 0.072206981919811 0.1944909284589
0.15021379327862 0.159612152364232 0.223696183968456
0.213463259733147 0.210293259956823 0.174304967052791
0.17075406359445 -0.0662798786281606 0.279403604172753
0.117828020173249 -0.0903518159061676 0.276567686095311
0.176814053229519 0.363015626001637 0.0406027155616219
0.28986674948295 0.173588018697015 0.143978446421069
0.097387446726496 0.0762986093365774 0.258166511386397
0.395856361458828 -0.0672093446575118 0.0483861491075121
0.298032492308198 0.210770148267166 0.105884708828122
0.0320575767736134 0.404960767779902 0.0290782780871893
0.190194995042274 -0.30118271362097 0.121906699043688
0.26023035 0.34257285 0
0.181223874672296 -0.199147611723363 0.2255045624021
0.215219897733235 -0.152317318398797 0.237897490458621
0.155739115982624 -0.113670251599066 0.271412028499249
0.08425565896035 -0.219537692902525 0.212416137538722
0.167165983244206 0.293343616932534 0.126562504790408
0.187447340162901 0.119031788495689 0.237931393940673
0.275902917714243 -0.0602537441693483 0.224618129764393
0.0571685700393635 0.118648326127826 0.230859765532614
0.163463175 0.397317975 0
0.0348812397971694 -0.0888584485229367 0.237481565328432
0 0.43125 0
0.261076875 -0.334996125 0
0.0480466742879938 0.281494748336825 0.149198803497944
0.0736712984946723 -0.118124442002073 0.255372163042692
0.233200903892093 -0.18926789606422 0.204352333897106
0.0403396489444751 -0.237231451465734 0.180204717654566
0.122358185855476 0.329495962131607 0.105244760609979
0.092430098956956 0.361551849764716 0.0760039804655904
0.213013581764662 0.0721898796806489 0.248652234651538
0.0512984025 0.4269993 0
0.31675407077505 -0.118570543492063 0.160837168779035
0.1094748 0.415529775 0
0.0355232958682926 -0.140607108424233 0.22356350427852
0.426552225 0.020262255 0
0 -0.424778175 0
0.0356591479353615 -0.0371251967140752 0.245331428717382
0.354060535967904 0.0168787260422341 0.132023371302477
0.0771779332832833 -0.170863235246535 0.236754962879493
0.104671972527756 0.194311166397024 0.205909932012871
0.0548603475 -0.420232275 0
2.35077223327028e-16 -0.108705951731046 0.199798653319696
2.19412770239913e-16 0.0933477725619945 0.211686881729014
0.125900979416263 -0.278704524252941 0.170144906905576
1.01076651348121e-16 -0.295718297742288 0.11525790970721
0.30277725 0.3042819 0
0.298777125 -0.30149235 0
0.109228125 -0.40912035 0
0.305172625361859 0.265997940379131 0.0416675374037558
3 0 1 122
3 78 52 7
3 101 21 116
3 45 23 22
3 152 58 27
3 136 124 123
3 60 118 35
3 53 63 102
3 28 29 118
3 66 64 74
3 102 85 86
3 26 160 24
3 97 99 98
3 41 136 40
3 125 18 54
3 9 10 86
3 22 104 46
3 46 102 45
3 111 77 110
3 54 57 125
3 80 47 110
3 116 129 0
3 9 67 68
3 106 122 1
3 59 126 96
3 72 42 147
3 71 53 49
3 51 22 128
3 129 31 30
3 68 10 9
3 53 102 86
3 35 34 60
3 44 123 50
3 40 56 41
3 30 38 96
3 111 8 132
3 25 114 85
3 49 113 71
3 33 115 160
3 138 54 101
3 46 85 102
3 68 67 12
3 145 95 14
3 81 82 107
3 2 16 141
3 147 71 113
3 95 94 150
3 89 117 151
3 12 11 13
3 32 59 119
3 139 16 121
3 128 55 51
3 24 23 76
3 36 114 172
3 117 89 155
3 143 5 146
3 45 84 75
3 28 118 60
3 45 75 23
3 22 51 104
3 60 34 37
3 88 28 30
3 145 169 158
3 122 106 90
3 94 151 150
3 162 17 43
3 71 147 42
3 140 107 62
3 112 39 93
3 103 12 78
3 64 48 159
3 4 72 135
3 151 94 70
3 68 12 103
3 86 85 36
3 154 62 76
3 31 129 116
3 37 34 115
3 161 97 156
3 149 148 47
3 83 50 93
3 121 2 162
3 81 107 140
3 1 126 59
3 20 122 87
3 163 94 158
3 115 33 37
3 32 120 59
3 89 131 153
3 89 153 155
3 29 88 105
3 23 24 128
3 154 61 62
3 128 24 69
3 125 57 117
3 34 35 157
3 327 7 164
3 63 42 84
3 70 100 131
3 106 139 121
3 43 19 87
3 14 95 19
3 93 3 112
3 108 107 82
3 141 74 334
3 64 65 74
3 6 79 80
3 156 143 146
3 138 20 87
3 26 107 108
3 0 20 116
3 8 111 168
3 119 38 37
3 129 96 126
3 108 160 26
3 10 53 86
3 132 103 111
3 62 26 76
3 117 155 142
3 119 33 32
3 144 9 36
3 86 36 9
3 76 75 154
3 55 128 69
3 29 28 88
3 130 6 7
3 23 75 76
3 53 10 49
3 164 7 52
3 114 36 85
3 45 22 46
3 25 85 46
3 4 44 50
3 152 39 15
3 121 162 90
3 137 97 161
3 139 15 16
3 19 138 87
3 150 54 138
3 333 143 156
3 141 334 166
3 107 26 62
3 115 24 160
3 136 41 124
3 1 59 58
3 42 72 61
3 138 19 95
3 77 6 80
3 113 49 8
3 78 6 77
3 7 6 78
3 120 108 82
3 70 163 100
3 127 66 74
3 151 70 89
3 84 154 75
3 115 69 24
3 42 61 154
3 67 11 12
3 10 68 132
3 123 124 3
3 161 146 41
3 97 148 99
3 143 165 159
3 139 58 152
3 156 98 333
3 113 8 91
3 120 58 59
3 53 71 63
3 92 91 168
3 4 140 61
3 62 61 140
3 27 82 81
3 57 150 151
3 119 96 38
3 108 32 160
3 24 76 26
3 103 77 111
3 154 84 42
3 327 130 7
3 49 132 8
3 69 34 157
3 30 28 38
3 125 73 18
3 9 144 67
3 103 132 68
3 141 16 127
3 34 69 115
3 45 102 84
3 128 22 23
3 83 152 27
3 3 93 123
3 109 166 170
3 43 90 162
3 44 40 136
3 148 97 137
3 92 47 148
3 148 137 92
3 20 138 101
3 8 168 91
3 32 108 120
3 163 70 94
3 101 116 20
3 16 2 121
3 48 64 66
3 52 78 12
3 52 12 13
3 80 110 77
3 80 79 336
3 49 10 132
3 103 78 77
3 117 57 151
3 63 71 42
3 60 38 28
3 160 32 33
3 30 96 129
3 3 48 112
3 83 93 39
3 56 40 134
3 146 124 41
3 92 110 47
3 138 95 150
3 81 50 83
3 96 119 59
3 167 159 165
3 94 95 145
3 44 135 40
3 112 66 127
3 0 129 126
3 134 147 113
3 27 120 82
3 141 166 109
3 73 133 18
3 72 4 61
3 97 98 156
3 142 73 125
3 125 117 142
3 88 174 105
3 37 33 119
3 67 144 11
3 84 102 63
3 54 150 57
3 333 165 143
3 87 90 43
3 123 44 136
3 113 91 134
3 134 40 135
3 137 91 92
3 127 16 15
3 5 159 48
3 2 109 162
3 159 5 143
3 161 41 56
3 90 87 122
3 39 112 15
3 4 135 44
3 120 27 58
3 168 110 92
3 145 158 94
3 168 111 110
3 112 48 66
3 162 109 17
3 91 137 56
3 50 140 4
3 146 5 124
3 27 81 83
3 56 137 161
3 50 81 140
3 14 19 43
3 127 15 112
3 58 106 1
3 167 64 159
3 91 56 134
3 147 134 135
3 17 14 43
3 139 106 58
3 2 141 109
3 83 39 152
3 3 5 48
3 15 139 152
3 161 156 146
3 106 121 90
3 70 131 89
3 50 123 93
3 153 131 313
3 135 72 147
3 127 74 141
3 122 20 0
3 17 170 169
3 3 124 5
3 21 171 174
3 145 14 17
3 313 131 100
3 74 65 334
3 1 0 126
3 88 30 31
3 47 336 149
3 47 80 336
3 17 169 145
3 79 6 130
3 148 149 99
3 60 37 38
3 65 64 167
3 69 157 55
3 170 17 109
3 25 46 104
3 101 54 18
3 172 144 36
3 52 13 173
3 21 101 18
3 21 18 133
3 174 31 116
3 173 164 52
3 88 31 174
3 21 133 171
3 174 116 21
3 174 171 105
3 175 292 176
3 252 182 227
3 271 286 196
3 220 197 198
3 321 202 233
3 305 293 294
3 235 210 288
3 228 272 238
3 203 288 204
3 240 248 239
3 272 259 258
3 201 199 329
3 270 98 99
3 216 215 305
3 295 229 193
3 184 259 185
3 197 221 274
3 221 220 272
3 281 280 251
3 229 295 232
3 253 280 222
3 286 175 299
3 184 242 241
3 276 176 292
3 234 269 296
3 246 317 217
3 245 224 228
3 226 298 197
3 299 205 206
3 242 184 185
3 228 259 272
3 210 235 209
3 219 225 293
3 215 216 231
3 205 269 213
3 281 301 183
3 200 258 284
3 224 245 283
3 208 329 285
3 307 271 229
3 221 272 258
3 242 187 241
3 315 189 268
3 254 277 255
3 177 310 191
3 317 283 245
3 268 319 267
3 262 320 287
3 187 188 186
3 207 289 234
3 308 291 191
3 298 226 230
3 199 250 198
3 211 338 284
3 287 324 262
3 312 316 180
3 220 249 257
3 203 235 288
3 220 198 249
3 197 274 226
3 235 212 209
3 261 205 203
3 315 158 169
3 292 263 276
3 267 319 320
3 331 218 192
3 245 217 317
3 309 237 277
3 282 266 214
3 273 252 187
3 239 328 223
3 179 304 246
3 320 244 267
3 242 273 187
3 259 211 258
3 323 250 237
3 206 286 299
3 212 285 209
3 330 325 270
3 149 222 318
3 256 266 225
3 291 331 177
3 254 309 277
3 176 234 296
3 195 260 292
3 163 158 267
3 285 212 208
3 207 234 290
3 262 322 300
3 262 324 322
3 204 275 261
3 198 298 199
3 323 237 236
3 298 243 199
3 295 287 232
3 209 326 210
3 327 332 182
3 238 257 217
3 244 300 100
3 276 291 308
3 218 260 194
3 189 194 268
3 266 282 178
3 278 255 277
3 310 334 248
3 239 248 65
3 181 253 79
3 325 316 312
3 307 260 195
3 201 278 277
3 175 286 195
3 183 335 281
3 289 212 213
3 299 296 269
3 278 201 329
3 185 259 228
3 301 281 273
3 237 250 201
3 287 311 324
3 289 207 208
3 314 211 184
3 259 184 211
3 250 323 249
3 230 243 298
3 204 261 203
3 130 182 181
3 198 250 249
3 228 224 185
3 332 227 182
3 284 258 211
3 220 221 197
3 200 221 258
3 179 225 219
3 321 190 214
3 291 263 331
3 306 330 270
3 308 191 190
3 194 260 307
3 319 307 229
3 333 325 312
3 310 166 334
3 277 237 201
3 285 329 199
3 305 294 216
3 176 233 234
3 217 236 246
3 307 268 194
3 251 253 181
3 283 183 224
3 252 251 181
3 182 252 181
3 290 255 278
3 244 100 163
3 297 248 240
3 320 262 244
3 257 249 323
3 285 199 243
3 217 323 236
3 241 187 186
3 185 301 242
3 293 178 294
3 330 216 316
3 270 99 318
3 312 328 165
3 308 321 233
3 325 333 98
3 283 264 183
3 290 234 233
3 228 238 245
3 265 335 264
3 179 236 309
3 237 309 236
3 202 254 255
3 232 320 319
3 289 213 269
3 278 329 207
3 199 201 250
3 273 281 251
3 323 217 257
3 327 182 130
3 224 183 301
3 243 326 209
3 205 213 203
3 295 193 247
3 184 241 314
3 273 242 301
3 310 297 191
3 209 285 243
3 220 257 272
3 298 198 197
3 256 202 321
3 178 293 266
3 279 170 166
3 218 331 263
3 219 305 215
3 318 306 270
3 265 318 222
3 318 265 306
3 195 271 307
3 183 264 335
3 207 290 278
3 163 267 244
3 271 195 286
3 191 291 177
3 223 240 239
3 227 187 252
3 227 188 187
3 253 251 280
3 253 336 79
3 224 301 185
3 273 251 252
3 287 320 232
3 238 217 245
3 235 203 213
3 329 208 207
3 205 299 269
3 178 282 223
3 256 214 266
3 231 303 215
3 316 216 294
3 265 222 280
3 307 319 268
3 254 256 225
3 269 234 289
3 167 165 328
3 267 315 268
3 219 215 304
3 282 297 240
3 175 296 299
3 303 283 317
3 202 255 290
3 310 279 166
3 247 193 302
3 246 236 179
3 270 325 98
3 311 295 247
3 295 311 287
3 261 275 340
3 212 289 208
3 241 186 314
3 257 238 272
3 229 232 319
3 333 312 165
3 260 218 263
3 293 305 219
3 283 303 264
3 303 304 215
3 306 265 264
3 297 190 191
3 180 223 328
3 177 331 279
3 328 312 180
3 330 231 216
3 263 292 260
3 214 190 282
3 179 219 304
3 290 233 202
3 335 265 280
3 315 267 158
3 335 280 281
3 282 240 223
3 331 192 279
3 264 231 306
3 225 179 309
3 316 294 180
3 202 256 254
3 231 330 306
3 225 309 254
3 189 218 194
3 297 282 190
3 233 176 276
3 167 328 239
3 264 303 231
3 317 304 303
3 192 218 189
3 308 233 276
3 177 279 310
3 256 321 214
3 178 223 180
3 190 321 308
3 330 316 325
3 276 263 291
3 244 262 300
3 225 266 293
3 322 313 300
3 304 317 246
3 297 310 248
3 292 175 195
3 192 169 170
3 178 180 294
3 196 340 337
3 315 192 189
3 313 100 300
3 248 334 65
3 176 296 175
3 261 206 205
3 222 149 336
3 222 336 253
3 192 315 169
3 79 130 181
3 318 99 149
3 235 213 212
3 65 167 239
3 243 230 326
3 170 279 192
3 200 274 221
3 271 193 229
3 338 211 314
3 227 339 188
3 196 193 271
3 196 302 193
3 340 286 206
3 339 227 332
3 261 340 206
3 196 337 302
3 340 196 286
3 340 275 337
