OFF
341 634 0
-0.262556096610823 0.220372951093668 0.148136184190022
-0.259738755471566 0.166860394021047 0.189707097629755
-0.0956336743731196 0.155299328426883 0.234029704236299
-0.123936444895984 -0.0361023855881764 0.293502702011722
-0.248508321006326 -0.104212557043423 0.249308467377001
-0.0731273859857171 -0.065105943718842 0.276865584865779
-0.0489557298005336 -0.364765804526482 0.0816299524028549
-0.0485935177760619 -0.397951899377909 0.0380570304962895
-0.173697793530963 -0.277106159023344 0.173385591596129
-0.255304259193796 -0.310213787225664 0.0590109527296866
-0.243290882112707 -0.288975722472544 0.107430627536773
-0.20674005 -0.370862325 0
-0.16606260069292 -0.367356133865482 0.0501724113795638
-0.15659985 -0.393856575 0
-0.0881909419394086 0.267400021800244 0.172639276805718
-0.155996668763615 0.0779081313836204 0.271935079880445
-0.124054523616401 0.120185454676037 0.254542569049872
-0.0546789086703954 0.231275690990283 0.189783083487264
-0.22384705762669 0.337808024549512 0.0501541562208253
-0.134010846608405 0.274517994666918 0.164510237743366
-0.220998906102841 0.262203376014651 0.141627659808926
-0.265275542256646 0.305340372870644 0.0535227671928124
-0.387496318121965 -0.128901174871269 0.049609185920044
-0.375664993911183 -0.0957609251167182 0.0949767720511232
-0.38039159880624 -0.0340424690484742 0.106104623199185
-0.3663258 -0.216070425 0
-0.346110834047984 -0.0277276141281586 0.162422757358086
-0.260712578789556 0.0522080359674578 0.241187955708286
-0.373958206966441 0.169078775630508 0.0443475243219461
-0.378213375 0.20057595 0
-0.340814440695834 0.193255479598622 0.0804758054994719
-0.31406305844579 0.239115802449185 0.0729062117441772
-0.3350147983754 0.0705712788012843 0.163471773336783
-0.364114406171226 0.0614120542345743 0.12411008790353
-0.405961934683848 0.052342818386342 0.0476381907088185
-0.419072025 0.08340705 0
-0.296279966272508 -0.286932165772319 0.0350767331313719
-0.380528913568737 0.0844101183263943 0.0878851395202487
-0.363368468223554 0.139589424537431 0.0871853825070869
-0.181330732274245 0.036174029300577 0.28068108056666
-0.167885844505278 -0.158515183116816 0.264003088467189
-0.11650470961481 -0.146433739371661 0.269977245368343
-0.286307027752678 -0.168221727765346 0.185178832960094
-0.119602417996408 0.237783984129867 0.192363506142389
-0.202496997706302 -0.107921534762116 0.273165467621041
-0.356681220462937 -0.154710845501023 0.0925499177407549
-0.362519292393369 -0.186476075251561 0.050298280543387
-0.040095145106986 -0.284658570177313 0.155289108606957
-0.0766213961093325 -0.0111280586085534 0.280735276136571
-0.226046880165304 -0.265227020831096 0.154321277868119
-0.228764814647325 -0.0498704802979845 0.271980100235036
-0.41392695 -0.1031958 0
-0.10908173843786 -0.394354932117557 0.0323202877500187
-0.275300915290176 -0.244660561737479 0.127513875463829
-0.180012730176219 0.333665499656941 0.0894427703988193
-0.424888575 -0.04151169 0
-0.12689369065358 -0.196696276600731 0.24639280695483
-0.141436524547618 0.359082424487242 0.0757768174532615
-0.252431006361649 0.113550244073765 0.224443066207135
-0.304806494815266 0.12465428214617 0.175413242937956
-0.3941485316352 0.112517016745459 0.0460051479024796
-0.289497905145419 -0.11283006999524 0.211316797285208
-0.319773254924667 -0.0704656808558153 0.190756960699399
-0.295207441012138 -0.203167906437226 0.14545672110969
-0.0341780128752244 0.0141042472917191 0.252301018878769
2.91219900653408e-16 0.0413732782101817 0.215990376666107
-0.0750649986366868 0.0356389161715982 0.272855732364712
-0.219952451554279 -0.344890058157309 0.0395986754725946
-0.2057847832499 -0.329771864416223 0.0828141522094469
-0.407376490701227 -0.00886346858191654 0.0522717242808031
-0.0434520607125459 0.373846571292392 0.0735800923668653
-0.255277707529285 -0.220806597400769 0.174204275236743
-0.258087002118698 -0.14816199383214 0.223480424212478
-0.21551475 0.371952075 0
-0.0413849047742675 0.0670987101894591 0.247310600993841
-0.348511227544515 -0.122997216729545 0.128240451667123
-0.352682389226517 -0.0764780614326916 0.142933609961809
-0.0965063513283786 -0.342357000867344 0.114036651968975
-0.105509756216877 -0.371846227583249 0.0722909890750481
1.13402379460468e-16 -0.33868151833254 0.0820247015393004
-0.0439894945278377 -0.32699569471211 0.12041584730116
-0.267778728293099 -0.00864913475172958 0.246483783951676
-0.294631103662636 0.0245310244175216 0.219346314273324
-0.225758984664924 0.0139295331735407 0.270015372334993
-0.324078839765862 -0.165951694724884 0.137789682924513
-0.331706756205377 -0.237831485888698 0.0475733030826741
-0.29080027988596 -0.264035269209272 0.0811505346335697
-0.174040533425647 0.251507593419147 0.173094882089058
-0.346676643653102 0.223998345273783 0.0383876451297908
-0.0778549843566733 0.39813286222948 0.0414368794906352
-0.164456178988813 0.205793135138165 0.207060738884938
-0.140671962014787 -0.244288984464343 0.212953909920602
-0.08442319935475 -0.265902000523117 0.189491476067346
-0.1785874817066 -0.0137181931647123 0.28982810266946
-0.056306495603448 0.334363419648993 0.117425486149805
-0.102373276368787 0.30495304363582 0.144644941429068
-0.328135067664965 0.16029267178388 0.125449509282345
-0.0356353141114792 -0.192853647240448 0.210658143543468
2.29704733413996e-16 -0.157359221635368 0.186995011353502
2.09872525655039e-16 -0.204377549398578 0.167436661425274
5.79537351659608e-17 0.389518423324015 0.0429143835931553
-0.224244195187885 0.301123817835409 0.0986893991431879
-0.323575989136653 -0.210472511196886 0.0976363261471195
-0.152678037551859 -0.342580474005201 0.0997532959927128
-0.394265625 -0.161990775 0
-0.346105275 0.253029675 0
-0.20904388726896 0.163996213586166 0.219470596281666
-0.309286098303857 -0.0217410149694371 0.208781273366294
-0.327731235667093 0.0230848406292859 0.184363081084797
-0.0495397596035107 0.175500046389959 0.213323248703528
-0.0867718340569523 -0.307059723785789 0.152638640623438
-0.139756835976558 -0.313933271109683 0.14285921487287
-0.1272829494891 0.0248055993857223 0.287968828886088
-0.203077252603974 -0.237451090392707 0.19853731983367
-0.3337734 -0.262401825 0
-0.38701456386814 0.0257094636786369 0.0929202138317803
-0.271753955634903 0.264578051851655 0.0973737216722107
-0.127864774183126 0.386884099783857 0.0417706198769991
-0.40257135 0.14426865 0
-0.347237902170548 0.10936542368146 0.13047344060416
-0.297735172039632 0.0732583004069367 0.204208427557356
-0.151161475133667 0.162335967662565 0.233728991574865
-0.216479082668045 0.213965632035735 0.1837409998622
-0.171048901983063 -0.0675300582390643 0.290075872679557
-0.116632424056293 -0.0918705798585421 0.286490983017936
-0.178366258157966 0.366260563956649 0.044113322328006
-0.294733701901384 0.176469346935587 0.152421141820015
-0.0963584869101133 0.0773359292265022 0.267408535234464
-0.401543585537768 -0.0681773413159551 0.0528168009546104
-0.303006391562913 0.214040254643581 0.113039672091861
8.93111743776941e-17 -0.384441887088147 0.041404440219511
-0.0320071896087436 0.407072618152178 0.0310418013564992
-0.192414846246617 -0.305886902017131 0.128917579300756
-0.26023035 0.34257285 0
-0.182205420940002 -0.20243433040214 0.2351319404055
-0.217032846560553 -0.15494586849545 0.248010718334493
-0.155609502451814 -0.115609526610488 0.281732696146789
-0.0825550951099527 -0.222818713507705 0.220473463071119
-0.169275640774404 0.298321320184088 0.134627436989645
-0.189161353482708 0.120955010675782 0.248465570809642
-0.279552576340682 -0.0614716491807415 0.234820867757803
-0.0559421502225874 0.119966084403736 0.237799113028121
-0.163463175 0.397317975 0
-0.032344484672206 -0.0899965860566193 0.24419163141467
-0.261076875 -0.334996125 0
-0.0467575404835581 0.284933953929332 0.15503982216556
-0.0714691083259326 -0.119915733256198 0.263993050416803
-0.235850386289068 -0.192501465383602 0.21377986988631
-0.0381216135583524 -0.239950070739697 0.185863513845574
1.78845583699949e-16 -0.250184462480962 0.143344056742591
-0.123418326691772 0.334809620061283 0.112397473414308
-0.0929793985366106 0.366528821370281 0.0816442917638337
-0.215146747812071 0.0732158301466172 0.25939438537942
-0.0512984025 0.4269993 0
-0.321978829083824 -0.120765163395057 0.169465480920084
-0.1094748 0.415529775 0
-0.0330551350491801 -0.142307746616109 0.229959034091666
-0.426552225 0.020262255 0
1.27216887484261e-16 0.297972443309302 0.120338534930702
-0.033083285094729 -0.0376652490900642 0.25229702021137
-0.36040340325845 0.0170761309786629 0.139998828414316
-0.075131958074459 -0.17341195913765 0.245102504765824
-0.104601189910401 0.197509344417624 0.214819461796635
7.75612705468051e-17 0.342345168133742 0.0859064182252721
-0.0548603475 -0.420232275 0
2.63039045085545e-16 -0.0593139967677266 0.211172844161133
2.28024519933361e-16 0.143011938920002 0.201867136910705
2.80931402515682e-16 -0.00976620154070985 0.215575813221793
-0.125847142176981 -0.283087235494061 0.17810807072048
1.60196341513702e-16 0.247100172419714 0.153481168850337
2.00623376336774e-16 0.195897021216195 0.180857156000889
-0.30277725 0.3042819 0
-0.298777125 -0.30149235 0
-0.109228125 -0.40912035 0
-0.308543487756429 0.268654793704712 0.045429778729909
0.262556096610823 0.220372951093668 0.148136184190022
0.259738755471566 0.166860394021048 0.189707097629755
0.0956336743731201 0.155299328426883 0.2340297042363
0.123936444895984 -0.0361023855881764 0.293502702011722
0.248508321006327 -0.104212557043423 0.249308467377001
0.0731273859857177 -0.065105943718842 0.276865584865779
0.0489557298005338 -0.364765804526482 0.081629952402855
0.048593517776062 -0.397951899377909 0.0380570304962895
0.173697793530963 -0.277106159023344 0.173385591596129
0.255304259193797 -0.310213787225664 0.0590109527296867
0.243290882112707 -0.288975722472544 0.107430627536773
0.20674005 -0.370862325 0
0.16606260069292 -0.367356133865482 0.0501724113795639
0.15659985 -0.393856575 0
0.088190941939409 0.267400021800244 0.172639276805718
0.155996668763616 0.0779081313836205 0.271935079880445
0.124054523616402 0.120185454676037 0.254542569049872
0.0546789086703957 0.231275690990284 0.189783083487264
0.22384705762669 0.337808024549512 0.0501541562208254
0.134010846608405 0.274517994666918 0.164510237743366
0.220998906102841 0.262203376014651 0.141627659808926
0.265275542256647 0.305340372870644 0.0535227671928124
0.387496318121965 -0.128901174871269 0.049609185920044
0.375664993911184 -0.0957609251167182 0.0949767720511232
0.38039159880624 -0.0340424690484742 0.106104623199185
0.3663258 -0.216070425 0
0.346110834047984 -0.0277276141281586 0.162422757358087
0.260712578789556 0.0522080359674578 0.241187955708286
0.373958206966441 0.169078775630508 0.0443475243219461
0.378213375 0.20057595 0
0.340814440695834 0.193255479598622 0.0804758054994719
0.314063058445791 0.239115802449185 0.0729062117441773
0.335014798375401 0.0705712788012844 0.163471773336783
0.364114406171226 0.0614120542345743 0.124110087903531
0.405961934683848 0.052342818386342 0.0476381907088186
0.419072025 0.08340705 0
0.296279966272508 -0.28693216577232 0.035076733131372
0.380528913568737 0.0844101183263943 0.0878851395202488
0.363368468223554 0.139589424537431 0.0871853825070869
0.181330732274245 0.0361740293005771 0.28068108056666
0.167885844505279 -0.158515183116816 0.264003088467189
0.116504709614811 -0.146433739371661 0.269977245368343
0.286307027752679 -0.168221727765346 0.185178832960095
0.119602417996408 0.237783984129867 0.192363506142389
0.202496997706302 -0.107921534762116 0.273165467621041
0.356681220462938 -0.154710845501023 0.092549917740755
0.362519292393369 -0.186476075251561 0.0502982805433871
0.0400951451069863 -0.284658570177313 0.155289108606957
0.076621396109333 -0.0111280586085534 0.280735276136571
0.226046880165305 -0.265227020831096 0.15432127786812
0.228764814647326 -0.0498704802979845 0.271980100235037
0.41392695 -0.1031958 0
0.10908173843786 -0.394354932117557 0.0323202877500187
0.275300915290176 -0.244660561737479 0.127513875463829
0.180012730176219 0.333665499656941 0.0894427703988192
0.424888575 -0.04151169 0
0.126893690653581 -0.196696276600731 0.246392806954831
0.141436524547618 0.359082424487242 0.0757768174532615
0.252431006361649 0.113550244073765 0.224443066207135
0.304806494815266 0.12465428214617 0.175413242937956
0.3941485316352 0.112517016745459 0.0460051479024796
0.289497905145419 -0.11283006999524 0.211316797285208
0.319773254924668 -0.0704656808558153 0.190756960699399
0.295207441012138 -0.203167906437226 0.14545672110969
0.034178012875225 0.0141042472917191 0.252301018878769
0.0750649986366874 0.0356389161715982 0.272855732364712
0.219952451554279 -0.344890058157309 0.0395986754725947
0.2057847832499 -0.329771864416223 0.082814152209447
0.407376490701227 -0.00886346858191654 0.0522717242808031
0.043452060712546 0.373846571292392 0.0735800923668653
0.255277707529286 -0.220806597400769 0.174204275236743
0.258087002118698 -0.14816199383214 0.223480424212478
0.21551475 0.371952075 0
0.0413849047742681 0.0670987101894591 0.247310600993841
0.348511227544515 -0.122997216729545 0.128240451667124
0.352682389226518 -0.0764780614326917 0.142933609961809
0.0965063513283787 -0.342357000867344 0.114036651968975
0.105509756216878 -0.371846227583249 0.0722909890750482
0.043989494527838 -0.32699569471211 0.12041584730116
0.2677787282931 -0.0086491347517296 0.246483783951676
0.294631103662636 0.0245310244175216 0.219346314273324
0.225758984664925 0.0139295331735407 0.270015372334993
0.324078839765863 -0.165951694724885 0.137789682924513
0.331706756205377 -0.237831485888698 0.0475733030826741
0.29080027988596 -0.264035269209272 0.0811505346335697
0.174040533425648 0.251507593419148 0.173094882089058
0.346676643653102 0.223998345273783 0.0383876451297908
0.0778549843566734 0.398132862229481 0.0414368794906352
0.164456178988813 0.205793135138166 0.207060738884938
0.140671962014788 -0.244288984464343 0.212953909920602
0.0844231993547504 -0.265902000523117 0.189491476067346
0.178587481706601 -0.0137181931647123 0.28982810266946
0.0563064956034482 0.334363419648993 0.117425486149805
0.102373276368787 0.30495304363582 0.144644941429068
0.328135067664965 0.16029267178388 0.125449509282345
0.0356353141114797 -0.192853647240448 0.210658143543468
0.224244195187885 0.301123817835409 0.0986893991431879
0.323575989136653 -0.210472511196886 0.0976363261471195
0.152678037551859 -0.342580474005201 0.0997532959927128
0.394265625 -0.161990775 0
0.346105275 0.253029675 0
0.20904388726896 0.163996213586166 0.219470596281667
0.309286098303858 -0.0217410149694371 0.208781273366295
0.327731235667094 0.0230848406292859 0.184363081084797
0.0495397596035111 0.175500046389959 0.213323248703528
0.0867718340569526 -0.307059723785789 0.152638640623438
0.139756835976558 -0.313933271109683 0.142859214872871
0.127282949489101 0.0248055993857223 0.287968828886089
0.203077252603974 -0.237451090392707 0.19853731983367
0.3337734 -0.262401825 0
0.38701456386814 0.0257094636786369 0.0929202138317804
0.271753955634903 0.264578051851656 0.0973737216722108
0.127864774183126 0.386884099783857 0.0417706198769991
0.40257135 0.14426865 0
0.347237902170549 0.10936542368146 0.13047344060416
0.297735172039633 0.0732583004069367 0.204208427557356
0.151161475133667 0.162335967662565 0.233728991574865
0.216479082668045 0.213965632035735 0.1837409998622
0.171048901983064 -0.0675300582390644 0.290075872679557
0.116632424056293 -0.0918705798585422 0.286490983017936
0.178366258157966 0.366260563956649 0.044113322328006
0.294733701901384 0.176469346935587 0.152421141820015
0.0963584869101139 0.0773359292265023 0.267408535234464
0.401543585537768 -0.0681773413159551 0.0528168009546105
0.303006391562914 0.214040254643581 0.113039672091861
0.0320071896087437 0.407072618152178 0.0310418013564993
0.192414846246617 -0.305886902017131 0.128917579300756
0.26023035 0.34257285 0
0.182205420940002 -0.20243433040214 0.2351319404055
0.217032846560554 -0.15494586849545 0.248010718334493
0.155609502451814 -0.115609526610488 0.281732696146789
0.082555095109953 -0.222818713507705 0.22047346307112
0.169275640774405 0.298321320184088 0.134627436989645
0.189161353482709 0.120955010675782 0.248465570809642
0.279552576340682 -0.0614716491807416 0.234820867757803
0.0559421502225879 0.119966084403736 0.237799113028121
0.163463175 0.397317975 0
0.0323444846722065 -0.0899965860566194 0.244191631414671
0 0.43125 0
0.261076875 -0.334996125 0
0.0467575404835584 0.284933953929332 0.15503982216556
0.071469108325933 -0.119915733256198 0.263993050416803
0.235850386289068 -0.192501465383602 0.213779869886311
0.0381216135583528 -0.239950070739697 0.185863513845574
0.123418326691772 0.334809620061283 0.112397473414308
0.0929793985366107 0.366528821370281 0.0816442917638337
0.215146747812072 0.0732158301466173 0.25939438537942
0.0512984025 0.4269993 0
0.321978829083825 -0.120765163395058 0.169465480920084
0.1094748 0.415529775 0
0.0330551350491806 -0.142307746616109 0.229959034091666
0.426552225 0.020262255 0
0 -0.424778175 0
0.0330832850947296 -0.0376652490900642 0.252297020211371
0.360403403258451 0.0170761309786629 0.139998828414317
0.0751319580744595 -0.17341195913765 0.245102504765824
0.104601189910402 0.197509344417624 0.214819461796635
0.0548603475 -0.420232275 0
2.51848298589345e-16 -0.108976143128074 0.201686933182241
2.50655172799473e-16 0.0929088532921869 0.212328641935722
0.125847142176981 -0.283087235494061 0.17810807072048
1.34434335355531e-16 -0.295004526657122 0.114804732876752
0.30277725 0.3042819 0
0.298777125 -0.30149235 0
0.109228125 -0.40912035 0
0.308543487756429 0.268654793704712 0.045429778729909
3 0 1 122
3 78 52 7
3 101 21 116
3 45 23 22
3 152 58 27
3 136 124 123
3 60 118 35
3 53 63 102
3 28 29 118
3 66 64 74
3 102 85 86
3 26 160 24
3 97 99 98
3 41 136 40
3 125 18 54
3 9 10 86
3 22 104 46
3 46 102 45
3 111 77 110
3 54 57 125
3 80 47 110
3 116 129 0
3 9 67 68
3 106 122 1
3 59 126 96
3 72 42 147
3 71 53 49
3 51 22 128
3 129 31 30
3 68 10 9
3 53 102 86
3 35 34 60
3 44 123 50
3 40 56 41
3 30 38 96
3 111 8 132
3 25 114 85
3 49 113 71
3 33 115 160
3 138 54 101
3 46 85 102
3 68 67 12
3 145 95 14
3 81 82 107
3 2 16 141
3 147 71 113
3 95 94 150
3 89 117 151
3 12 11 13
3 32 59 119
3 139 16 121
3 128 55 51
3 24 23 76
3 36 114 172
3 117 89 155
3 143 5 146
3 45 84 75
3 28 118 60
3 45 75 23
3 22 51 104
3 60 34 37
3 88 28 30
3 145 169 158
3 122 106 90
3 94 151 150
3 162 17 43
3 71 147 42
3 140 107 62
3 112 39 93
3 103 12 78
3 64 48 159
3 4 72 135
3 151 94 70
3 68 12 103
3 86 85 36
3 154 62 76
3 31 129 116
3 37 34 115
3 161 97 156
3 149 148 47
3 83 50 93
3 121 2 162
3 81 107 140
3 1 126 59
3 20 122 87
3 163 94 158
3 115 33 37
3 32 120 59
3 89 131 153
3 89 153 155
3 29 88 105
3 23 24 128
3 154 61 62
3 128 24 69
3 125 57 117
3 34 35 157
3 327 7 164
3 63 42 84
3 70 100 131
3 106 139 121
3 43 19 87
3 14 95 19
3 93 3 112
3 108 107 82
3 141 74 334
3 64 65 74
3 6 79 80
3 156 143 146
3 138 20 87
3 26 107 108
3 0 20 116
3 8 111 168
3 119 38 37
3 129 96 126
3 108 160 26
3 10 53 86
3 132 103 111
3 62 26 76
3 117 155 142
3 119 33 32
3 144 9 36
3 86 36 9
3 76 75 154
3 55 128 69
3 29 28 88
3 130 6 7
3 23 75 76
3 53 10 49
3 164 7 52
3 114 36 85
3 45 22 46
3 25 85 46
3 4 44 50
3 152 39 15
3 121 162 90
3 137 97 161
3 139 15 16
3 19 138 87
3 150 54 138
3 333 143 156
3 141 334 166
3 107 26 62
3 115 24 160
3 136 41 124
3 1 59 58
3 42 72 61
3 138 19 95
3 77 6 80
3 113 49 8
3 78 6 77
3 7 6 78
3 120 108 82
3 70 163 100
3 127 66 74
3 151 70 89
3 84 154 75
3 115 69 24
3 42 61 154
3 67 11 12
3 10 68 132
3 123 124 3
3 161 146 41
3 97 148 99
3 143 165 159
3 139 58 152
3 156 98 333
3 113 8 91
3 120 58 59
3 53 71 63
3 92 91 168
3 4 140 61
3 62 61 140
3 27 82 81
3 57 150 151
3 119 96 38
3 108 32 160
3 24 76 26
3 103 77 111
3 154 84 42
3 327 130 7
3 49 132 8
3 69 34 157
3 30 28 38
3 125 73 18
3 9 144 67
3 103 132 68
3 141 16 127
3 34 69 115
3 45 102 84
3 128 22 23
3 83 152 27
3 3 93 123
3 109 166 170
3 43 90 162
3 44 40 136
3 148 97 137
3 92 47 148
3 148 137 92
3 20 138 101
3 8 168 91
3 32 108 120
3 163 70 94
3 101 116 20
3 16 2 121
3 48 64 66
3 52 78 12
3 52 12 13
3 80 110 77
3 80 79 336
3 49 10 132
3 103 78 77
3 117 57 151
3 63 71 42
3 60 38 28
3 160 32 33
3 30 96 129
3 3 48 112
3 83 93 39
3 56 40 134
3 146 124 41
3 92 110 47
3 138 95 150
3 81 50 83
3 96 119 59
3 167 159 165
3 94 95 145
3 44 135 40
3 112 66 127
3 0 129 126
3 134 147 113
3 27 120 82
3 141 166 109
3 73 133 18
3 72 4 61
3 97 98 156
3 142 73 125
3 125 117 142
3 88 174 105
3 37 33 119
3 67 144 11
3 84 102 63
3 54 150 57
3 333 165 143
3 87 90 43
3 123 44 136
3 113 91 134
3 134 40 135
3 137 91 92
3 127 16 15
3 5 159 48
3 2 109 162
3 159 5 143
3 161 41 56
3 90 87 122
3 39 112 15
3 4 135 44
3 120 27 58
3 168 110 92
3 145 158 94
3 168 111 110
3 112 48 66
3 162 109 17
3 91 137 56
3 50 140 4
3 146 5 124
3 27 81 83
3 56 137 161
3 50 81 140
3 14 19 43
3 127 15 112
3 58 106 1
3 167 64 159
3 91 56 134
3 147 134 135
3 17 14 43
3 139 106 58
3 2 141 109
3 83 39 152
3 3 5 48
3 15 139 152
3 161 156 146
3 106 121 90
3 70 131 89
3 50 123 93
3 153 131 313
3 135 72 147
3 127 74 141
3 122 20 0
3 17 170 169
3 3 124 5
3 21 171 174
3 145 14 17
3 313 131 100
3 74 65 334
3 1 0 126
3 88 30 31
3 47 336 149
3 47 80 336
3 17 169 145
3 79 6 130
3 148 149 99
3 60 37 38
3 65 64 167
3 69 157 55
3 170 17 109
3 25 46 104
3 101 54 18
3 172 144 36
3 52 13 173
3 21 101 18
3 21 18 133
3 174 31 116
3 173 164 52
3 88 31 174
3 21 133 171
3 174 116 21
3 174 171 105
3 175 292 176
3 252 182 227
3 271 286 196
3 220 197 198
3 321 202 233
3 305 293 294
3 235 210 288
3 228 272 238
3 203 288 204
3 240 248 239
3 272 259 258
3 201 199 329
3 270 98 99
3 216 215 305
3 295 229 193
3 184 259 185
3 197 221 274
3 221 220 272
3 281 280 251
3 229 295 232
3 253 280 222
3 286 175 299
3 184 242 241
3 276 176 292
3 234 269 296
3 246 317 217
3 245 224 228
3 226 298 197
3 299 205 206
3 242 184 185
3 228 259 272
3 210 235 209
3 219 225 293
3 215 216 231
3 205 269 213
3 281 301 183
3 200 258 284
3 224 245 283
3 208 329 285
3 307 271 229
3 221 272 258
3 242 187 241
3 315 189 268
3 254 277 255
3 177 310 191
3 317 283 245
3 268 319 267
3 262 320 287
3 187 188 186
3 207 289 234
3 308 291 191
3 298 226 230
3 199 250 198
3 211 338 284
3 287 324 262
3 312 316 180
3 220 249 257
3 203 235 288
3 220 198 249
3 197 274 226
3 235 212 209
3 261 205 203
3 315 158 169
3 292 263 276
3 267 319 320
3 331 218 192
3 245 217 317
3 309 237 277
3 282 266 214
3 273 252 187
3 239 328 223
3 179 304 246
3 320 244 267
3 242 273 187
3 259 211 258
3 323 250 237
3 206 286 299
3 212 285 209
3 330 325 270
3 149 222 318
3 256 266 225
3 291 331 177
3 254 309 277
3 176 234 296
3 195 260 292
3 163 158 267
3 285 212 208
3 207 234 290
3 262 322 300
3 262 324 322
3 204 275 261
3 198 298 199
3 323 237 236
3 298 243 199
3 295 287 232
3 209 326 210
3 327 332 182
3 238 257 217
3 244 300 100
3 276 291 308
3 218 260 194
3 189 194 268
3 266 282 178
3 278 255 277
3 310 334 248
3 239 248 65
3 181 253 79
3 325 316 312
3 307 260 195
3 201 278 277
3 175 286 195
3 183 335 281
3 289 212 213
3 299 296 269
3 278 201 329
3 185 259 228
3 301 281 273
3 237 250 201
3 287 311 324
3 289 207 208
3 314 211 184
3 259 184 211
3 250 323 249
3 230 243 298
3 204 261 203
3 130 182 181
3 198 250 249
3 228 224 185
3 332 227 182
3 284 258 211
3 220 221 197
3 200 221 258
3 179 225 219
3 321 190 214
3 291 263 331
3 306 330 270
3 308 191 190
3 194 260 307
3 319 307 229
3 333 325 312
3 310 166 334
3 277 237 201
3 285 329 199
3 305 294 216
3 176 233 234
3 217 236 246
3 307 268 194
3 251 253 181
3 283 183 224
3 252 251 181
3 182 252 181
3 290 255 278
3 244 100 163
3 297 248 240
3 320 262 244
3 257 249 323
3 285 199 243
3 217 323 236
3 241 187 186
3 185 301 242
3 293 178 294
3 330 216 316
3 270 99 318
3 312 328 165
3 308 321 233
3 325 333 98
3 283 264 183
3 290 234 233
3 228 238 245
3 265 335 264
3 179 236 309
3 237 309 236
3 202 254 255
3 232 320 319
3 289 213 269
3 278 329 207
3 199 201 250
3 273 281 251
3 323 217 257
3 327 182 130
3 224 183 301
3 243 326 209
3 205 213 203
3 295 193 247
3 184 241 314
3 273 242 301
3 310 297 191
3 209 285 243
3 220 257 272
3 298 198 197
3 256 202 321
3 178 293 266
3 279 170 166
3 218 331 263
3 219 305 215
3 318 306 270
3 265 318 222
3 318 265 306
3 195 271 307
3 183 264 335
3 207 290 278
3 163 267 244
3 271 195 286
3 191 291 177
3 223 240 239
3 227 187 252
3 227 188 187
3 253 251 280
3 253 336 79
3 224 301 185
3 273 251 252
3 287 320 232
3 238 217 245
3 235 203 213
3 329 208 207
3 205 299 269
3 178 282 223
3 256 214 266
3 231 303 215
3 316 216 294
3 265 222 280
3 307 319 268
3 254 256 225
3 269 234 289
3 167 165 328
3 267 315 268
3 219 215 304
3 282 297 240
3 175 296 299
3 303 283 317
3 202 255 290
3 310 279 166
3 247 193 302
3 246 236 179
3 270 325 98
3 311 295 247
3 295 311 287
3 261 275 340
3 212 289 208
3 241 186 314
3 257 238 272
3 229 232 319
3 333 312 165
3 260 218 263
3 293 305 219
3 283 303 264
3 303 304 215
3 306 265 264
3 297 190 191
3 180 223 328
3 177 331 279
3 328 312 180
3 330 231 216
3 263 292 260
3 214 190 282
3 179 219 304
3 290 233 202
3 335 265 280
3 315 267 158
3 335 280 281
3 282 240 223
3 331 192 279
3 264 231 306
3 225 179 309
3 316 294 180
3 202 256 254
3 231 330 306
3 225 309 254
3 189 218 194
3 297 282 190
3 233 176 276
3 167 328 239
3 264 303 231
3 317 304 303
3 192 218 189
3 308 233 276
3 177 279 310
3 256 321 214
3 178 223 180
3 190 321 308
3 330 316 325
3 276 263 291
3 244 262 300
3 225 266 293
3 322 313 300
3 304 317 246
3 297 310 248
3 292 175 195
3 192 169 170
3 178 180 294
3 196 340 337
3 315 192 189
3 313 100 300
3 248 334 65
3 176 296 175
3 261 206 205
3 222 149 336
3 222 336 253
3 192 315 169
3 79 130 181
3 318 99 149
3 235 213 212
3 65 167 239
3 243 230 326
3 170 279 192
3 200 274 221
3 271 193 229
3 338 211 314
3 227 339 188
3 196 193 271
3 196 302 193
3 340 286 206
3 339 227 332
3 261 340 206
3 196 337 302
3 340 196 286
3 340 275 337
