OFF
341 634 0
-0.346851767606665 0.290757111660718 0.18979371758836
-0.343265252846882 0.220026188539339 0.243865103465168
-0.12812023050361 0.204852702257867 0.303429968404874
-0.166876485283977 -0.0472956555175522 0.380143972714162
-0.329437489450146 -0.136867916007894 0.321603766473919
-0.100374380046867 -0.0857310634234939 0.359778031654993
-0.0664084893021352 -0.482418041196024 0.104624322484136
-0.0650310737697228 -0.527606527004605 0.0480576180024129
-0.230973434111616 -0.364938717721244 0.222843234898292
-0.338311776374548 -0.410696014887292 0.0750696216396111
-0.322045494086712 -0.381543444412411 0.137412130453757
-0.2756534 -0.4944831 0
-0.220482358580168 -0.486706789345915 0.0636862199238802
-0.2087998 -0.5251421 0
-0.118182541515701 0.352154250583929 0.222169527797826
-0.207983762997969 0.102846662150736 0.351597274894161
-0.16579063278813 0.158520522195837 0.329500736535582
-0.0741569394073243 0.305258227666434 0.246253627456401
-0.296756765463556 0.447633840732009 0.0635370280185065
-0.178045814055346 0.361414260710291 0.210919093393114
-0.292168918189795 0.345799390180087 0.181253049101139
-0.351462990666682 0.40449716034789 0.0678340293617732
-0.512828456462076 -0.170542530309922 0.062677210703688
-0.496073623131915 -0.126270967660726 0.12102560158109
-0.502120995330977 -0.0447757792762251 0.135364716123481
-0.4884344 -0.2880939 0
-0.456912262409481 -0.0363152787146164 0.208447760146747
-0.344996126224117 0.0691153984753005 0.310932655191538
-0.495302715170158 0.224074347983049 0.0559745308537211
-0.5042845 0.2674346 0
-0.450505576379422 0.255640653730029 0.10235266724439
-0.415429679917401 0.316510367329272 0.0926475956789361
-0.442341614297746 0.0933084561947678 0.209793997543835
-0.480671046017532 0.0812081148199235 0.158713616661473
-0.537350588858298 0.0693566984208263 0.0601458678952857
-0.5587627 0.1112094 0
-0.393138955682174 -0.38062363662927 0.0444170407617223
-0.502634121679185 0.111639469085937 0.111859377417483
-0.480069715961443 0.184571478559974 0.110955488720902
-0.241367170289735 0.0479185142790897 0.362682791330571
-0.224249014549634 -0.208425191671438 0.341076387008076
-0.157290351228814 -0.192652386244291 0.349597078163103
-0.37865999086203 -0.221504879717225 0.238151783128795
-0.159343749792275 0.313045931889625 0.247686463401434
-0.269418698390902 -0.141716753996341 0.352827343561117
-0.471152807544352 -0.204205837138247 0.117939913442316
-0.47984073350146 -0.246773944005993 0.0635985898461681
-0.0559612639172735 -0.376657019893558 0.202328515913583
-0.104846172973776 -0.0145761174154283 0.364483410807498
-0.299455168624556 -0.349588622766579 0.198106510834639
-0.3036452980702 -0.0652835111638947 0.351193841309974
-0.5519026 -0.1375944 0
-0.145112058228503 -0.523181645125808 0.0407333559006033
-0.364099391210855 -0.322773572169986 0.163367190249939
-0.238352119387207 0.440688202985278 0.113751550706753
-0.5665181 -0.05534892 0
-0.170675301453932 -0.258836781539294 0.318532417726537
-0.187555520398745 0.474492733337773 0.0960975666798839
-0.333880350574888 0.14985352248382 0.289133057884778
-0.402568306044218 0.16455040287477 0.225306377929958
-0.52185515230954 0.149082303131587 0.0580696106993196
-0.382898300093208 -0.148350037629055 0.272083942048416
-0.422462640366174 -0.0925779003002755 0.245293433523181
-0.390217465585508 -0.267821070887739 0.186568816314344
-0.0482818517619326 0.0186505418771907 0.329598422428912
2.41706391788878e-16 0.0552724875698423 0.286905818563909
-0.102427306005382 0.0470583878655884 0.354274716368378
-0.292041294767962 -0.4575609499509 0.0502754210744331
-0.272737836683478 -0.43594250710741 0.105621386286643
-0.538933951322049 -0.0116755635893492 0.0660246143912173
-0.0584940111174758 0.494346132326127 0.0938422906302004
-0.337932603644394 -0.290899185774549 0.223931348043547
-0.341832262121565 -0.194873452310701 0.287959999761141
-0.287353 0.4959361 0
-0.0572039238257629 0.0888211273310393 0.322970325388445
-0.460171856262415 -0.162078909179881 0.164118151805147
-0.465584234502663 -0.100625365561536 0.183146114242043
-0.129339834336299 -0.451581929118762 0.145863746965891
-0.140555487784447 -0.491433409304782 0.0917468985088382
5.62838240820294e-17 -0.45302811364419 0.110917910008951
-0.060686795350957 -0.432486644635045 0.155981571422837
-0.354473307965454 -0.0110437549613391 0.317850252862606
-0.389449623164307 0.032654024213585 0.282466471147525
-0.299478951544691 0.0186812764425849 0.348584215584598
-0.42808252716296 -0.218741108421229 0.176542738621774
-0.439355803701426 -0.314902771396551 0.0602186598677362
-0.384767508986367 -0.348968250718358 0.103457626246399
-0.23053263189083 0.331232380241219 0.222079318712563
-0.459605312301018 0.297170148155032 0.0484528659977623
-0.103544599359945 0.527419031190666 0.0521117414480505
-0.218182548403574 0.271022428409447 0.266624851267473
-0.18829034647593 -0.321547345713307 0.274656691050352
-0.114674656592266 -0.350446846084622 0.244985012844605
-0.238065248209094 -0.0177381164737873 0.37466619617448
-0.0760740570529924 0.441003863752855 0.150409518725839
-0.136561324290194 0.40153664910279 0.185043399245441
-0.433293669353014 0.211706577963316 0.160447349373248
-0.050283707223789 -0.255230474712861 0.275461198238402
2.1162287876208e-16 -0.210235186720495 0.248867806301729
1.82365925853084e-16 -0.273171145284015 0.223368339544972
5.01018490623982e-17 0.519810254922373 0.0576730947950604
-0.296605329946109 0.397706700295299 0.125763194508346
-0.427616272311556 -0.277858563002834 0.124602777609144
-0.202772633700873 -0.452215430657972 0.127254064402603
-0.5256875 -0.2159877 0
-0.4614737 0.3373729 0
-0.276791017864294 0.216122870972277 0.282689616033782
-0.408712231053086 -0.0283401213035864 0.268735035964855
-0.432799598627128 0.030714974593334 0.236966616437938
-0.0670158313682584 0.232127810729268 0.278342425108563
-0.117267878950424 -0.40482898174248 0.196560223645649
-0.186241852447131 -0.413686049750353 0.18312205207039
-0.170901427619339 0.0328830022390139 0.372851489364477
-0.269663126331701 -0.312624331418991 0.255568275530596
-0.4450312 -0.3498691 0
-0.511058901217115 0.0340478876288627 0.118347340895363
-0.359209106283311 0.349649201429594 0.124106658928337
-0.169790512825234 0.512812825328982 0.0527075509387925
-0.5367618 0.1923582 0
-0.458431061904726 0.1444992298879 0.166944185385129
-0.393405679955928 0.0968710957630498 0.262770937866695
-0.200984559202687 0.213906183953331 0.30175178838352
-0.286328028182173 0.281966130963048 0.236027872332237
-0.228404397074498 -0.0885531546635484 0.375095869917547
-0.157473842621409 -0.120753362173567 0.37117854557741
-0.236673815893006 0.485555825702225 0.0557850617168631
-0.389237015346586 0.23288781472476 0.195421243497702
-0.129886651616164 0.102098743162929 0.346826481079094
-0.531193438200297 -0.0901108777341981 0.0667280618384621
-0.40026331614022 0.282793696080018 0.144380371546571
5.34655605950383e-17 -0.513453404834128 0.0561558344720066
-0.0428228102275253 0.540525007021832 0.0393889902496849
-0.255151237205806 -0.403424810623668 0.165105308192621
-0.3469738 0.4567638 0
-0.242708193480432 -0.266340582695061 0.303311011509909
-0.288307682042245 -0.203732173515889 0.319992942073222
-0.208318957746212 -0.151887788969505 0.364310712406471
-0.112535400135949 -0.293660355104316 0.28572277149035
-0.22414253384373 0.393142956710403 0.17199029920855
-0.251009104922386 0.159512928438015 0.32065957928727
-0.369930556069224 -0.0806165519417356 0.302655519129409
-0.075850506690546 0.158667331707751 0.31009754557497
-0.2179509 0.5297573 0
-0.0459040812121413 -0.119081660650308 0.319455809041777
-0.3481025 -0.4466615 0
-0.063871389112382 0.37615619358461 0.200541619244954
-0.0981857287349088 -0.158048458326507 0.343158978904994
-0.312683422460647 -0.253369432389113 0.275386934723688
-0.0535377564198659 -0.31752102070043 0.242726722137316
1.71731234982419e-16 -0.334559258259904 0.19189156599429
-0.163876607188386 0.441245488263119 0.143071249011203
-0.123704096657265 0.48379286057249 0.103483976968311
-0.285291914701695 0.096734626554148 0.334775481902166
-0.06839787 0.5693324 0
-0.425360132547824 -0.158967274062104 0.217638191487064
-0.1459664 0.5540397 0
-0.0468282279420043 -0.188347145753655 0.300899240812807
-0.5687363 0.02701634 0
9.99254298707473e-17 0.398102334346394 0.161127083929226
-0.0469637261679599 -0.0498174999779407 0.329782810335613
-0.4757176496777 0.0227070759280368 0.179321010992468
-0.102959176173892 -0.228588166392204 0.318296047871822
-0.139757449257838 0.260274056855522 0.277746787002988
7.85704674867099e-17 0.457172179360655 0.11530051931529
-0.07314713 -0.5603097 0
2.42811423479633e-16 -0.0791902544343241 0.280393511718102
2.23091587862295e-16 0.190826657825957 0.268028705573482
2.39720807628731e-16 -0.013037167901749 0.286218226215653
-0.168541363053857 -0.372773268655474 0.229229661986475
1.37450794914544e-16 0.330063236087221 0.204928894648801
1.48471795667175e-16 0.261603067754766 0.240732048195715
-0.403703 0.4057092 0
-0.3983695 -0.4019898 0
-0.1456375 -0.5454938 0
-0.408921639816986 0.356191511674377 0.0574786174177691
0.346851767606665 0.290757111660718 0.18979371758836
0.343265252846882 0.22002618853934 0.243865103465168
0.128120230503611 0.204852702257867 0.303429968404874
0.166876485283978 -0.0472956555175523 0.380143972714163
0.329437489450147 -0.136867916007894 0.321603766473919
0.100374380046867 -0.0857310634234939 0.359778031654994
0.0664084893021354 -0.482418041196024 0.104624322484136
0.0650310737697228 -0.527606527004605 0.0480576180024129
0.230973434111617 -0.364938717721244 0.222843234898292
0.338311776374548 -0.410696014887292 0.0750696216396113
0.322045494086713 -0.381543444412411 0.137412130453758
0.2756534 -0.4944831 0
0.220482358580168 -0.486706789345915 0.0636862199238803
0.2087998 -0.5251421 0
0.118182541515701 0.352154250583928 0.222169527797826
0.20798376299797 0.102846662150735 0.351597274894161
0.16579063278813 0.158520522195836 0.329500736535582
0.0741569394073248 0.305258227666434 0.246253627456401
0.296756765463556 0.447633840732009 0.0635370280185066
0.178045814055346 0.361414260710291 0.210919093393114
0.292168918189796 0.345799390180087 0.18125304910114
0.351462990666683 0.40449716034789 0.0678340293617732
0.512828456462076 -0.170542530309922 0.062677210703688
0.496073623131915 -0.126270967660726 0.12102560158109
0.502120995330977 -0.0447757792762252 0.135364716123481
0.4884344 -0.2880939 0
0.456912262409481 -0.0363152787146164 0.208447760146748
0.344996126224118 0.0691153984753006 0.310932655191538
0.495302715170158 0.224074347983049 0.0559745308537211
0.5042845 0.2674346 0
0.450505576379422 0.255640653730029 0.10235266724439
0.415429679917401 0.316510367329272 0.0926475956789361
0.442341614297746 0.0933084561947678 0.209793997543836
0.480671046017533 0.0812081148199236 0.158713616661473
0.537350588858298 0.0693566984208262 0.0601458678952858
0.5587627 0.1112094 0
0.393138955682175 -0.38062363662927 0.0444170407617224
0.502634121679186 0.111639469085937 0.111859377417483
0.480069715961443 0.184571478559974 0.110955488720902
0.241367170289735 0.0479185142790897 0.362682791330571
0.224249014549634 -0.208425191671439 0.341076387008077
0.157290351228814 -0.192652386244291 0.349597078163103
0.37865999086203 -0.221504879717225 0.238151783128795
0.159343749792276 0.313045931889625 0.247686463401434
0.269418698390902 -0.141716753996341 0.352827343561118
0.471152807544352 -0.204205837138247 0.117939913442316
0.47984073350146 -0.246773944005993 0.0635985898461681
0.0559612639172739 -0.376657019893559 0.202328515913583
0.104846172973777 -0.0145761174154283 0.364483410807498
0.299455168624557 -0.349588622766579 0.19810651083464
0.303645298070201 -0.0652835111638948 0.351193841309975
0.5519026 -0.1375944 0
0.145112058228503 -0.523181645125808 0.0407333559006034
0.364099391210855 -0.322773572169987 0.163367190249939
0.238352119387207 0.440688202985278 0.113751550706753
0.5665181 -0.05534892 0
0.170675301453933 -0.258836781539294 0.318532417726538
0.187555520398745 0.474492733337773 0.096097566679884
0.333880350574889 0.14985352248382 0.289133057884779
0.402568306044218 0.16455040287477 0.225306377929959
0.52185515230954 0.149082303131587 0.0580696106993196
0.382898300093208 -0.148350037629055 0.272083942048416
0.422462640366175 -0.0925779003002756 0.245293433523181
0.390217465585508 -0.267821070887739 0.186568816314344
0.0482818517619331 0.0186505418771907 0.329598422428912
0.102427306005382 0.0470583878655884 0.354274716368379
0.292041294767962 -0.4575609499509 0.0502754210744332
0.272737836683479 -0.43594250710741 0.105621386286644
0.538933951322049 -0.0116755635893492 0.0660246143912173
0.0584940111174759 0.494346132326127 0.0938422906302005
0.337932603644394 -0.290899185774549 0.223931348043547
0.341832262121566 -0.194873452310701 0.287959999761141
0.287353 0.4959361 0
0.0572039238257634 0.0888211273310393 0.322970325388445
0.460171856262415 -0.162078909179881 0.164118151805147
0.465584234502664 -0.100625365561536 0.183146114242043
0.1293398343363 -0.451581929118762 0.145863746965892
0.140555487784447 -0.491433409304782 0.0917468985088383
0.0606867953509572 -0.432486644635045 0.155981571422837
0.354473307965455 -0.0110437549613391 0.317850252862606
0.389449623164308 0.032654024213585 0.282466471147525
0.299478951544692 0.0186812764425849 0.348584215584598
0.42808252716296 -0.218741108421229 0.176542738621774
0.439355803701426 -0.314902771396551 0.0602186598677362
0.384767508986368 -0.348968250718358 0.1034576262464
0.230532631890831 0.331232380241219 0.222079318712563
0.459605312301018 0.297170148155032 0.0484528659977623
0.103544599359946 0.527419031190666 0.0521117414480505
0.218182548403574 0.271022428409447 0.266624851267473
0.188290346475931 -0.321547345713307 0.274656691050353
0.114674656592267 -0.350446846084622 0.244985012844605
0.238065248209095 -0.0177381164737873 0.374666196174481
0.0760740570529927 0.441003863752855 0.150409518725839
0.136561324290194 0.40153664910279 0.185043399245441
0.433293669353014 0.211706577963316 0.160447349373249
0.0502837072237894 -0.255230474712861 0.275461198238403
0.29660532994611 0.397706700295299 0.125763194508347
0.427616272311556 -0.277858563002834 0.124602777609144
0.202772633700873 -0.452215430657972 0.127254064402604
0.5256875 -0.2159877 0
0.4614737 0.3373729 0
0.276791017864294 0.216122870972277 0.282689616033782
0.408712231053087 -0.0283401213035864 0.268735035964855
0.432799598627129 0.030714974593334 0.236966616437938
0.0670158313682588 0.232127810729268 0.278342425108563
0.117267878950424 -0.40482898174248 0.19656022364565
0.186241852447131 -0.413686049750353 0.18312205207039
0.17090142761934 0.0328830022390139 0.372851489364477
0.269663126331702 -0.312624331418992 0.255568275530597
0.4450312 -0.3498691 0
0.511058901217115 0.0340478876288626 0.118347340895363
0.359209106283311 0.349649201429594 0.124106658928337
0.169790512825234 0.512812825328982 0.0527075509387926
0.5367618 0.1923582 0
0.458431061904726 0.1444992298879 0.166944185385129
0.393405679955929 0.0968710957630498 0.262770937866696
0.200984559202688 0.213906183953331 0.301751788383521
0.286328028182173 0.281966130963048 0.236027872332237
0.228404397074499 -0.0885531546635484 0.375095869917548
0.15747384262141 -0.120753362173567 0.37117854557741
0.236673815893006 0.485555825702225 0.0557850617168631
0.389237015346587 0.23288781472476 0.195421243497702
0.129886651616164 0.102098743162929 0.346826481079094
0.531193438200297 -0.0901108777341981 0.0667280618384621
0.400263316140221 0.282793696080019 0.144380371546572
0.0428228102275254 0.540525007021832 0.0393889902496849
0.255151237205806 -0.403424810623668 0.165105308192621
0.3469738 0.4567638 0
0.242708193480432 -0.266340582695061 0.30331101150991
0.288307682042246 -0.203732173515889 0.319992942073222
0.208318957746213 -0.151887788969505 0.364310712406471
0.112535400135949 -0.293660355104317 0.28572277149035
0.22414253384373 0.393142956710403 0.17199029920855
0.251009104922386 0.159512928438015 0.32065957928727
0.369930556069225 -0.0806165519417356 0.30265551912941
0.0758505066905465 0.158667331707751 0.31009754557497
0.2179509 0.5297573 0
0.045904081212142 -0.119081660650308 0.319455809041778
0 0.575 0
0.3481025 -0.4466615 0
0.0638713891123824 0.376156193584611 0.200541619244954
0.0981857287349092 -0.158048458326507 0.343158978904994
0.312683422460648 -0.253369432389114 0.275386934723688
0.0535377564198663 -0.31752102070043 0.242726722137316
0.163876607188386 0.441245488263119 0.143071249011203
0.123704096657265 0.48379286057249 0.103483976968311
0.285291914701695 0.096734626554148 0.334775481902166
0.06839787 0.5693324 0
0.425360132547825 -0.158967274062104 0.217638191487064
0.1459664 0.5540397 0
0.0468282279420048 -0.188347145753655 0.300899240812808
0.5687363 0.02701634 0
0 -0.5663709 0
0.0469637261679604 -0.0498174999779407 0.329782810335613
0.475717649677701 0.0227070759280368 0.179321010992468
0.102959176173892 -0.228588166392204 0.318296047871822
0.139757449257839 0.260274056855522 0.277746787002988
0.07314713 -0.5603097 0
2.48602544448011e-16 -0.145536328272642 0.268009533773066
2.25612346787468e-16 0.124077879404993 0.282026278537241
0.168541363053858 -0.372773268655475 0.229229661986475
1.21715023349103e-16 -0.394666763600648 0.154430843164693
0.403703 0.4057092 0
0.3983695 -0.4019898 0
0.1456375 -0.5454938 0
0.408921639816986 0.356191511674377 0.0574786174177691
3 0 1 122
3 78 52 7
3 101 21 116
3 45 23 22
3 152 58 27
3 136 124 123
3 60 118 35
3 53 63 102
3 28 29 118
3 66 64 74
3 102 85 86
3 26 160 24
3 97 99 98
3 41 136 40
3 125 18 54
3 9 10 86
3 22 104 46
3 46 102 45
3 111 77 110
3 54 57 125
3 80 47 110
3 116 129 0
3 9 67 68
3 106 122 1
3 59 126 96
3 72 42 147
3 71 53 49
3 51 22 128
3 129 31 30
3 68 10 9
3 53 102 86
3 35 34 60
3 44 123 50
3 40 56 41
3 30 38 96
3 111 8 132
3 25 114 85
3 49 113 71
3 33 115 160
3 138 54 101
3 46 85 102
3 68 67 12
3 145 95 14
3 81 82 107
3 2 16 141
3 147 71 113
3 95 94 150
3 89 117 151
3 12 11 13
3 32 59 119
3 139 16 121
3 128 55 51
3 24 23 76
3 36 114 172
3 117 89 155
3 143 5 146
3 45 84 75
3 28 118 60
3 45 75 23
3 22 51 104
3 60 34 37
3 88 28 30
3 145 169 158
3 122 106 90
3 94 151 150
3 162 17 43
3 71 147 42
3 140 107 62
3 112 39 93
3 103 12 78
3 64 48 159
3 4 72 135
3 151 94 70
3 68 12 103
3 86 85 36
3 154 62 76
3 31 129 116
3 37 34 115
3 161 97 156
3 149 148 47
3 83 50 93
3 121 2 162
3 81 107 140
3 1 126 59
3 20 122 87
3 163 94 158
3 115 33 37
3 32 120 59
3 89 131 153
3 89 153 155
3 29 88 105
3 23 24 128
3 154 61 62
3 128 24 69
3 125 57 117
3 34 35 157
3 327 7 164
3 63 42 84
3 70 100 131
3 106 139 121
3 43 19 87
3 14 95 19
3 93 3 112
3 108 107 82
3 141 74 334
3 64 65 74
3 6 79 80
3 156 143 146
3 138 20 87
3 26 107 108
3 0 20 116
3 8 111 168
3 119 38 37
3 129 96 126
3 108 160 26
3 10 53 86
3 132 103 111
3 62 26 76
3 117 155 142
3 119 33 32
3 144 9 36
3 86 36 9
3 76 75 154
3 55 128 69
3 29 28 88
3 130 6 7
3 23 75 76
3 53 10 49
3 164 7 52
3 114 36 85
3 45 22 46
3 25 85 46
3 4 44 50
3 152 39 15
3 121 162 90
3 137 97 161
3 139 15 16
3 19 138 87
3 150 54 138
3 333 143 156
3 141 334 166
3 107 26 62
3 115 24 160
3 136 41 124
3 1 59 58
3 42 72 61
3 138 19 95
3 77 6 80
3 113 49 8
3 78 6 77
3 7 6 78
3 120 108 82
3 70 163 100
3 127 66 74
3 151 70 89
3 84 154 75
3 115 69 24
3 42 61 154
3 67 11 12
3 10 68 132
3 123 124 3
3 161 146 41
3 97 148 99
3 143 165 159
3 139 58 152
3 156 98 333
3 113 8 91
3 120 58 59
3 53 71 63
3 92 91 168
3 4 140 61
3 62 61 140
3 27 82 81
3 57 150 151
3 119 96 38
3 108 32 160
3 24 76 26
3 103 77 111
3 154 84 42
3 327 130 7
3 49 132 8
3 69 34 157
3 30 28 38
3 125 73 18
3 9 144 67
3 103 132 68
3 141 16 127
3 34 69 115
3 45 102 84
3 128 22 23
3 83 152 27
3 3 93 123
3 109 166 170
3 43 90 162
3 44 40 136
3 148 97 137
3 92 47 148
3 148 137 92
3 20 138 101
3 8 168 91
3 32 108 120
3 163 70 94
3 101 116 20
3 16 2 121
3 48 64 66
3 52 78 12
3 52 12 13
3 80 110 77
3 80 79 336
3 49 10 132
3 103 78 77
3 117 57 151
3 63 71 42
3 60 38 28
3 160 32 33
3 30 96 129
3 3 48 112
3 83 93 39
3 56 40 134
3 146 124 41
3 92 110 47
3 138 95 150
3 81 50 83
3 96 119 59
3 167 159 165
3 94 95 145
3 44 135 40
3 112 66 127
3 0 129 126
3 134 147 113
3 27 120 82
3 141 166 109
3 73 133 18
3 72 4 61
3 97 98 156
3 142 73 125
3 125 117 142
3 88 174 105
3 37 33 119
3 67 144 11
3 84 102 63
3 54 150 57
3 333 165 143
3 87 90 43
3 123 44 136
3 113 91 134
3 134 40 135
3 137 91 92
3 127 16 15
3 5 159 48
3 2 109 162
3 159 5 143
3 161 41 56
3 90 87 122
3 39 112 15
3 4 135 44
3 120 27 58
3 168 110 92
3 145 158 94
3 168 111 110
3 112 48 66
3 162 109 17
3 91 137 56
3 50 140 4
3 146 5 124
3 27 81 83
3 56 137 161
3 50 81 140
3 14 19 43
3 127 15 112
3 58 106 1
3 167 64 159
3 91 56 134
3 147 134 135
3 17 14 43
3 139 106 58
3 2 141 109
3 83 39 152
3 3 5 48
3 15 139 152
3 161 156 146
3 106 121 90
3 70 131 89
3 50 123 93
3 153 131 313
3 135 72 147
3 127 74 141
3 122 20 0
3 17 170 169
3 3 124 5
3 21 171 174
3 145 14 17
3 313 131 100
3 74 65 334
3 1 0 126
3 88 30 31
3 47 336 149
3 47 80 336
3 17 169 145
3 79 6 130
3 148 149 99
3 60 37 38
3 65 64 167
3 69 157 55
3 170 17 109
3 25 46 104
3 101 54 18
3 172 144 36
3 52 13 173
3 21 101 18
3 21 18 133
3 174 31 116
3 173 164 52
3 88 31 174
3 21 133 171
3 174 116 21
3 174 171 105
3 175 292 176
3 252 182 227
3 271 286 196
3 220 197 198
3 321 202 233
3 305 293 294
3 235 210 288
3 228 272 238
3 203 288 204
3 240 248 239
3 272 259 258
3 201 199 329
3 270 98 99
3 216 215 305
3 295 229 193
3 184 259 185
3 197 221 274
3 221 220 272
3 281 280 251
3 229 295 232
3 253 280 222
3 286 175 299
3 184 242 241
3 276 176 292
3 234 269 296
3 246 317 217
3 245 224 228
3 226 298 197
3 299 205 206
3 242 184 185
3 228 259 272
3 210 235 209
3 219 225 293
3 215 216 231
3 205 269 213
3 281 301 183
3 200 258 284
3 224 245 283
3 208 329 285
3 307 271 229
3 221 272 258
3 242 187 241
3 315 189 268
3 254 277 255
3 177 310 191
3 317 283 245
3 268 319 267
3 262 320 287
3 187 188 186
3 207 289 234
3 308 291 191
3 298 226 230
3 199 250 198
3 211 338 284
3 287 324 262
3 312 316 180
3 220 249 257
3 203 235 288
3 220 198 249
3 197 274 226
3 235 212 209
3 261 205 203
3 315 158 169
3 292 263 276
3 267 319 320
3 331 218 192
3 245 217 317
3 309 237 277
3 282 266 214
3 273 252 187
3 239 328 223
3 179 304 246
3 320 244 267
3 242 273 187
3 259 211 258
3 323 250 237
3 206 286 299
3 212 285 209
3 330 325 270
3 149 222 318
3 256 266 225
3 291 331 177
3 254 309 277
3 176 234 296
3 195 260 292
3 163 158 267
3 285 212 208
3 207 234 290
3 262 322 300
3 262 324 322
3 204 275 261
3 198 298 199
3 323 237 236
3 298 243 199
3 295 287 232
3 209 326 210
3 327 332 182
3 238 257 217
3 244 300 100
3 276 291 308
3 218 260 194
3 189 194 268
3 266 282 178
3 278 255 277
3 310 334 248
3 239 248 65
3 181 253 79
3 325 316 312
3 307 260 195
3 201 278 277
3 175 286 195
3 183 335 281
3 289 212 213
3 299 296 269
3 278 201 329
3 185 259 228
3 301 281 273
3 237 250 201
3 287 311 324
3 289 207 208
3 314 211 184
3 259 184 211
3 250 323 249
3 230 243 298
3 204 261 203
3 130 182 181
3 198 250 249
3 228 224 185
3 332 227 182
3 284 258 211
3 220 221 197
3 200 221 258
3 179 225 219
3 321 190 214
3 291 263 331
3 306 330 270
3 308 191 190
3 194 260 307
3 319 307 229
3 333 325 312
3 310 166 334
3 277 237 201
3 285 329 199
3 305 294 216
3 176 233 234
3 217 236 246
3 307 268 194
3 251 253 181
3 283 183 224
3 252 251 181
3 182 252 181
3 290 255 278
3 244 100 163
3 297 248 240
3 320 262 244
3 257 249 323
3 285 199 243
3 217 323 236
3 241 187 186
3 185 301 242
3 293 178 294
3 330 216 316
3 270 99 318
3 312 328 165
3 308 321 233
3 325 333 98
3 283 264 183
3 290 234 233
3 228 238 245
3 265 335 264
3 179 236 309
3 237 309 236
3 202 254 255
3 232 320 319
3 289 213 269
3 278 329 207
3 199 201 250
3 273 281 251
3 323 217 257
3 327 182 130
3 224 183 301
3 243 326 209
3 205 213 203
3 295 193 247
3 184 241 314
3 273 242 301
3 310 297 191
3 209 285 243
3 220 257 272
3 298 198 197
3 256 202 321
3 178 293 266
3 279 170 166
3 218 331 263
3 219 305 215
3 318 306 270
3 265 318 222
3 318 265 306
3 195 271 307
3 183 264 335
3 207 290 278
3 163 267 244
3 271 195 286
3 191 291 177
3 223 240 239
3 227 187 252
3 227 188 187
3 253 251 280
3 253 336 79
3 224 301 185
3 273 251 252
3 287 320 232
3 238 217 245
3 235 203 213
3 329 208 207
3 205 299 269
3 178 282 223
3 256 214 266
3 231 303 215
3 316 216 294
3 265 222 280
3 307 319 268
3 254 256 225
3 269 234 289
3 167 165 328
3 267 315 268
3 219 215 304
3 282 297 240
3 175 296 299
3 303 283 317
3 202 255 290
3 310 279 166
3 247 193 302
3 246 236 179
3 270 325 98
3 311 295 247
3 295 311 287
3 261 275 340
3 212 289 208
3 241 186 314
3 257 238 272
3 229 232 319
3 333 312 165
3 260 218 263
3 293 305 219
3 283 303 264
3 303 304 215
3 306 265 264
3 297 190 191
3 180 223 328
3 177 331 279
3 328 312 180
3 330 231 216
3 263 292 260
3 214 190 282
3 179 219 304
3 290 233 202
3 335 265 280
3 315 267 158
3 335 280 281
3 282 240 223
3 331 192 279
3 264 231 306
3 225 179 309
3 316 294 180
3 202 256 254
3 231 330 306
3 225 309 254
3 189 218 194
3 297 282 190
3 233 176 276
3 167 328 239
3 264 303 231
3 317 304 303
3 192 218 189
3 308 233 276
3 177 279 310
3 256 321 214
3 178 223 180
3 190 321 308
3 330 316 325
3 276 263 291
3 244 262 300
3 225 266 293
3 322 313 300
3 304 317 246
3 297 310 248
3 292 175 195
3 192 169 170
3 178 180 294
3 196 340 337
3 315 192 189
3 313 100 300
3 248 334 65
3 176 296 175
3 261 206 205
3 222 149 336
3 222 336 253
3 192 315 169
3 79 130 181
3 318 99 149
3 235 213 212
3 65 167 239
3 243 230 326
3 170 279 192
3 200 274 221
3 271 193 229
3 338 211 314
3 227 339 188
3 196 193 271
3 196 302 193
3 340 286 206
3 339 227 332
3 261 340 206
3 196 337 302
3 340 196 286
3 340 275 337
