OFF
341 634 0
-0.436390320571504 0.365520374087044 0.241281492869463
-0.431753839050756 0.276595626284582 0.309103394842673
-0.160244790999358 0.257224848162006 0.382886995271804
-0.208942891111566 -0.0591536042991223 0.478057021247925
-0.413743686835564 -0.171616320230206 0.405614723726795
-0.125343094301494 -0.107365237008313 0.452482425272214
-0.0830220896157725 -0.604337527634343 0.132378223721211
-0.0814093514376928 -0.66047210796544 0.0610542729592875
-0.290077507213303 -0.45783207787989 0.281658106145554
-0.424966193618759 -0.515418035304632 0.0958403251344701
-0.405002655424895 -0.479213118978167 0.174633110078243
-0.34456675 -0.618103875 0
-0.276626685502483 -0.610117012449217 0.081244465718484
-0.26099975 -0.656427625 0
-0.147956578045852 0.44185190043506 0.280875034936048
-0.260743248395353 0.129198103138044 0.443211967044782
-0.207647243324172 0.199135942803869 0.415703783689583
-0.0924922664760729 0.382671951337827 0.310264683449773
-0.372435099736641 0.561405005779487 0.0814510871406033
-0.223462360592737 0.453859148918541 0.26743488228234
-0.36743903931676 0.434575223610614 0.230534955899158
-0.441299172233746 0.507535496063015 0.0869949127032131
-0.644300354044042 -0.214115324007694 0.0803983938393341
-0.624317031329494 -0.158723326324551 0.154370699746866
-0.632106729536106 -0.0562604372203314 0.172556760817875
-0.610543 -0.360117375 0
-0.575123012271736 -0.0455725475731486 0.264436750074141
-0.433517010251632 0.0869064699917491 0.392715475110196
-0.62195401870892 0.281226676435404 0.0719361808087663
-0.630355625 0.33429325 0
-0.566586310709253 0.321266474648912 0.130901544929304
-0.522189564976043 0.397549209047311 0.11855694413906
-0.556770619299374 0.117408531725969 0.266253733081453
-0.605092935848155 0.102190091246168 0.202024594425929
-0.675025315078393 0.087092863149472 0.0772564482819591
-0.698453375 0.13901175 0
-0.49319989616851 -0.477213017106328 0.0569156857684091
-0.632454422806903 0.140392719389392 0.142921772450452
-0.603996444924818 0.232051675974514 0.141802593794299
-0.302699087547712 0.0602312375680363 0.456877992254275
-0.281198074685031 -0.261125544278819 0.42936383702582
-0.196972191184999 -0.241311156579851 0.439805145229577
-0.476292725784678 -0.278204299438873 0.301372212748805
-0.199776423585307 0.393131589327787 0.313501171202412
-0.337982995446363 -0.17755044562455 0.444280701359817
-0.592867113818939 -0.256677604989375 0.150390028206643
-0.602850273766826 -0.3098142085628 0.0815138401303401
-0.0697504510911512 -0.472023403133776 0.254985242978843
-0.13099656426603 -0.0181737313097534 0.458237556561176
-0.376515063297218 -0.438945094559653 0.250890440248371
-0.381113875304352 -0.0817575867133047 0.442565467536073
-0.68987825 -0.171993 0
-0.181806029223765 -0.655091044314551 0.05197362134123
-0.458094865490483 -0.405557172350618 0.207417035928855
-0.299440043556375 0.553214245579618 0.145176405438691
-0.708147625 -0.06918615 0
-0.213873408431754 -0.324307826367522 0.401025428033206
-0.23542686573696 0.595237053617115 0.122645038589389
-0.419710580719416 0.188358514077487 0.365675408783685
-0.506587959428616 0.206941205155613 0.285791554689841
-0.655444866270045 0.187155090576192 0.0746144531160499
-0.481426529370708 -0.186212219910761 0.343890275188534
-0.531484178089908 -0.116239424241848 0.310507852235066
-0.49102966271788 -0.336542229311956 0.236656940603508
-0.0598171673529473 0.0234243336767483 0.414444776470167
3.06197074463474e-16 0.068976687436642 0.359403943652301
-0.127937649319002 0.0590760562245398 0.445488804613634
-0.366293701840954 -0.57350080570341 0.06423167135603
-0.342689584954691 -0.547134144102499 0.134418962233147
-0.677266456159949 -0.0146422238164451 0.0847489527463424
-0.073158888582881 0.619211678482886 0.118841062263568
-0.424979265520259 -0.365307800125552 0.283404502379641
-0.42954694849914 -0.244506913762791 0.363562331710722
-0.35919125 0.619920125 0
-0.0710251721034154 0.111405561966032 0.406087834538985
-0.579236101931893 -0.20373491633846 0.208602306076218
-0.586091556967578 -0.126459471254015 0.232601369333678
-0.162129161568382 -0.566192948054729 0.18469428913494
-0.176265632775885 -0.616001154300457 0.116612261518821
1.08169311129744e-16 -0.566194962645197 0.138656711147604
-0.0757374326829584 -0.54187643976709 0.196808041717985
-0.445366189275092 -0.0137376826507587 0.401214191483345
-0.489677132755782 0.0411332665566742 0.357127489489754
-0.375917866345732 0.023566413199816 0.439453569306775
-0.53879645572533 -0.274936223172942 0.224158930377955
-0.551821299961582 -0.395222390264374 0.0771354040095383
-0.483840641551565 -0.438349610469692 0.131893864707931
-0.289649655657665 0.416169783579691 0.281758287575543
-0.57674701700034 0.372738527037472 0.0622868732554556
-0.129760735503244 0.660632411225503 0.0665483174623925
-0.273955530686729 0.340555171659005 0.337599989383625
-0.236144993930135 -0.403092438793558 0.346306366208845
-0.14353177155736 -0.43928938956155 0.308878843987062
-0.298470668506424 -0.0221119281241545 0.471611042989516
-0.0950841101689399 0.552756445194813 0.190199072591909
-0.171196260006512 0.503900579191533 0.234527605278267
-0.545370747647144 0.266247947760761 0.204298462919805
-0.0624240714963683 -0.319982802280096 0.346864047735633
3.038285970437e-16 -0.263283635459262 0.31235918761083
2.82558199118947e-16 -0.342004804387234 0.280389827904306
1.20474034361511e-17 0.649519046422988 0.0718613407323788
-0.372881537104734 0.499551849349472 0.16049712972336
-0.538071943629372 -0.349227649390992 0.1587163793862
-0.25463397998045 -0.567321526503535 0.161568018695588
-0.657109375 -0.269984625 0
-0.576842125 0.421716125 0
-0.347808027354235 0.271611574851812 0.357719054033546
-0.514025570373034 -0.0354935008608688 0.339904250197881
-0.544605543242915 0.0387093968144281 0.300241918650165
-0.0834874449500682 0.290977616299981 0.350252619661452
-0.146859616360717 -0.507512823955922 0.248210891049718
-0.233771480222315 -0.518891300045323 0.2317008700395
-0.213999720779813 0.0413520086233962 0.469182410410345
-0.338736777032826 -0.392210765174232 0.322757543998286
-0.556289 -0.437336375 0
-0.643169050154359 0.0428556422684547 0.151097707865151
-0.451777179675961 0.439359701068095 0.158463348478735
-0.212872220855008 0.642532742283014 0.0674501501498503
-0.67095225 0.24044775 0
-0.577087387747412 0.181777843581841 0.21244186574674
-0.494840395593561 0.121839135767987 0.332624232158039
-0.252132802275826 0.268769006506528 0.381402382584978
-0.360000323923837 0.354392521661736 0.299351090677356
-0.286303796972096 -0.110862747183218 0.471949410934334
-0.197155077930657 -0.15119821655816 0.466777620709419
-0.296840283134718 0.608607317793385 0.0714681807757565
-0.489817195642621 0.292830473341241 0.248300873274159
-0.16240827989139 0.128189368705711 0.436709501766258
-0.667558264886807 -0.113154509047911 0.0856129990234559
-0.50363582430389 0.355512791837235 0.184056392205695
6.69526007474917e-17 -0.641558367666494 0.0699989142614856
-0.0535987556477969 0.676352617453218 0.0499589190786245
-0.320678054103508 -0.506398043742723 0.209330735962816
-0.43371725 0.57095475 0
-0.304575923250979 -0.333886645369684 0.382306250782947
-0.36192825153302 -0.255421821282205 0.403357806588973
-0.261083733312435 -0.190207082990238 0.458285283808473
-0.14076534564051 -0.368078575235448 0.359918568871007
-0.281656159078371 0.493814532180184 0.218723860009299
-0.315119161975391 0.200432612926011 0.405002390345622
-0.464900064972035 -0.101092541461767 0.3821560166268
-0.0944400038030456 0.199035914277391 0.390322067411832
-0.272438625 0.662196625 0
-0.056760207138351 -0.149296556761545 0.401997181887095
-0.435128125 -0.558326875 0
-0.0796639057079855 0.47128334774601 0.25264357694666
-0.122581016986101 -0.19804853320889 0.431793130790762
-0.392880156639995 -0.31791222596625 0.347722696351877
-0.0666254500361328 -0.398008097792617 0.305748559802327
1.98878756197473e-16 -0.418686775803182 0.240809936339236
-0.20569072187955 0.553795012610908 0.181962869741478
-0.155138471518763 0.606702230665499 0.131742503066124
-0.358199619399843 0.121559071922104 0.422452666676171
-0.0854973375 0.7116655 0
-0.535262639869802 -0.199729019118025 0.275787800542481
-0.182458 0.692549625 0
-0.0579787089642581 -0.236148483433692 0.37876629425351
-0.710920375 0.033770425 0
6.08642168958527e-17 0.497379557050366 0.201064130946484
-0.0581054714979626 -0.0624302755533313 0.41484420059852
-0.598903352526761 0.0286320263659381 0.227923743596774
-0.128643801264748 -0.286490305394837 0.400688907330507
-0.174994866338139 0.326848505351092 0.350989708542792
2.39583907096667e-17 0.571170032849802 0.143769249898746
-0.0914339125 -0.700387125 0
3.26751001067057e-16 -0.0992641147407128 0.351782739282804
2.14399926954204e-16 0.238304882830345 0.334418405616356
3.23328323408663e-16 -0.0164716526264746 0.358964555040423
-0.211379197057576 -0.467377381138926 0.28935548130472
7.26896447776183e-17 0.412392486813314 0.255790973362241
1.28782807512118e-16 0.326770661459307 0.300370473876409
-0.50462875 0.5071365 0
-0.497961875 -0.50248725 0
-0.182046875 -0.68186725 0
-0.513311779898628 0.446859363553412 0.0738010175880943
0.436390320571504 0.365520374087044 0.241281492869463
0.431753839050756 0.276595626284582 0.309103394842674
0.160244790999359 0.257224848162006 0.382886995271804
0.208942891111567 -0.0591536042991223 0.478057021247926
0.413743686835564 -0.171616320230206 0.405614723726796
0.125343094301495 -0.107365237008313 0.452482425272215
0.0830220896157727 -0.604337527634343 0.13237822372121
0.0814093514376929 -0.66047210796544 0.0610542729592875
0.290077507213304 -0.45783207787989 0.281658106145554
0.42496619361876 -0.515418035304632 0.0958403251344703
0.405002655424895 -0.479213118978167 0.174633110078243
0.34456675 -0.618103875 0
0.276626685502483 -0.610117012449217 0.0812444657184841
0.26099975 -0.656427625 0
0.147956578045852 0.441851900435061 0.280875034936048
0.260743248395354 0.129198103138044 0.443211967044782
0.207647243324172 0.199135942803869 0.415703783689583
0.0924922664760731 0.382671951337827 0.310264683449773
0.372435099736641 0.561405005779487 0.0814510871406034
0.223462360592738 0.453859148918541 0.26743488228234
0.36743903931676 0.434575223610615 0.230534955899158
0.441299172233746 0.507535496063015 0.0869949127032131
0.644300354044043 -0.214115324007694 0.0803983938393342
0.624317031329495 -0.158723326324551 0.154370699746866
0.632106729536107 -0.0562604372203314 0.172556760817875
0.610543 -0.360117375 0
0.575123012271736 -0.0455725475731486 0.264436750074141
0.433517010251633 0.0869064699917491 0.392715475110197
0.621954018708921 0.281226676435404 0.0719361808087662
0.630355625 0.33429325 0
0.566586310709253 0.321266474648912 0.130901544929305
0.522189564976044 0.397549209047311 0.11855694413906
0.556770619299375 0.117408531725969 0.266253733081454
0.605092935848156 0.102190091246168 0.202024594425929
0.675025315078393 0.087092863149472 0.0772564482819594
0.698453375 0.13901175 0
0.49319989616851 -0.477213017106328 0.0569156857684092
0.632454422806903 0.140392719389392 0.142921772450452
0.603996444924818 0.232051675974514 0.141802593794299
0.302699087547713 0.0602312375680363 0.456877992254276
0.281198074685032 -0.261125544278819 0.429363837025821
0.196972191185 -0.241311156579851 0.439805145229578
0.476292725784679 -0.278204299438873 0.301372212748806
0.199776423585307 0.393131589327787 0.313501171202412
0.337982995446364 -0.17755044562455 0.444280701359818
0.59286711381894 -0.256677604989376 0.150390028206643
0.602850273766826 -0.3098142085628 0.0815138401303402
0.0697504510911517 -0.472023403133776 0.254985242978843
0.130996564266031 -0.0181737313097534 0.458237556561176
0.376515063297219 -0.438945094559654 0.250890440248371
0.381113875304353 -0.0817575867133047 0.442565467536074
0.68987825 -0.171993 0
0.181806029223765 -0.655091044314551 0.05197362134123
0.458094865490484 -0.405557172350618 0.207417035928855
0.299440043556375 0.553214245579618 0.145176405438691
0.708147625 -0.06918615 0
0.213873408431755 -0.324307826367522 0.401025428033206
0.23542686573696 0.595237053617115 0.122645038589389
0.419710580719417 0.188358514077487 0.365675408783686
0.506587959428616 0.206941205155614 0.285791554689842
0.655444866270045 0.187155090576192 0.0746144531160499
0.481426529370709 -0.186212219910761 0.343890275188534
0.531484178089909 -0.116239424241848 0.310507852235067
0.491029662717881 -0.336542229311956 0.236656940603509
0.059817167352948 0.0234243336767483 0.414444776470167
0.127937649319003 0.0590760562245398 0.445488804613635
0.366293701840954 -0.573500805703409 0.0642316713560301
0.342689584954691 -0.547134144102499 0.134418962233147
0.677266456159949 -0.0146422238164451 0.0847489527463425
0.0731588885828811 0.619211678482887 0.118841062263568
0.424979265520259 -0.365307800125552 0.283404502379641
0.42954694849914 -0.244506913762791 0.363562331710723
0.35919125 0.619920125 0
0.0710251721034161 0.111405561966032 0.406087834538985
0.579236101931894 -0.20373491633846 0.208602306076218
0.586091556967579 -0.126459471254015 0.232601369333678
0.162129161568383 -0.566192948054729 0.18469428913494
0.176265632775885 -0.616001154300457 0.116612261518821
0.0757374326829588 -0.54187643976709 0.196808041717985
0.445366189275093 -0.0137376826507587 0.401214191483345
0.489677132755783 0.0411332665566742 0.357127489489754
0.375917866345733 0.023566413199816 0.439453569306776
0.538796455725331 -0.274936223172942 0.224158930377955
0.551821299961582 -0.395222390264374 0.0771354040095384
0.483840641551565 -0.438349610469692 0.131893864707932
0.289649655657665 0.416169783579691 0.281758287575543
0.57674701700034 0.372738527037472 0.0622868732554556
0.129760735503244 0.660632411225503 0.0665483174623926
0.273955530686729 0.340555171659005 0.337599989383625
0.236144993930136 -0.403092438793559 0.346306366208845
0.143531771557361 -0.43928938956155 0.308878843987062
0.298470668506425 -0.0221119281241545 0.471611042989517
0.0950841101689401 0.552756445194813 0.190199072591909
0.171196260006512 0.503900579191533 0.234527605278267
0.545370747647145 0.266247947760761 0.204298462919806
0.0624240714963689 -0.319982802280096 0.346864047735634
0.372881537104734 0.499551849349472 0.16049712972336
0.538071943629372 -0.349227649390992 0.1587163793862
0.25463397998045 -0.567321526503535 0.161568018695588
0.657109375 -0.269984625 0
0.576842125 0.421716125 0
0.347808027354235 0.271611574851812 0.357719054033546
0.514025570373035 -0.0354935008608688 0.339904250197881
0.544605543242916 0.0387093968144282 0.300241918650165
0.0834874449500686 0.290977616299981 0.350252619661452
0.146859616360717 -0.507512823955922 0.248210891049718
0.233771480222316 -0.518891300045322 0.2317008700395
0.213999720779814 0.0413520086233962 0.469182410410346
0.338736777032826 -0.392210765174232 0.322757543998286
0.556289 -0.437336375 0
0.643169050154359 0.0428556422684547 0.151097707865151
0.451777179675961 0.439359701068095 0.158463348478735
0.212872220855009 0.642532742283014 0.0674501501498503
0.67095225 0.24044775 0
0.577087387747413 0.181777843581842 0.21244186574674
0.494840395593561 0.121839135767987 0.332624232158039
0.252132802275826 0.268769006506529 0.381402382584979
0.360000323923837 0.354392521661736 0.299351090677356
0.286303796972096 -0.110862747183218 0.471949410934335
0.197155077930657 -0.15119821655816 0.466777620709419
0.296840283134718 0.608607317793385 0.0714681807757564
0.489817195642622 0.292830473341241 0.248300873274159
0.162408279891391 0.128189368705711 0.436709501766259
0.667558264886807 -0.113154509047911 0.085612999023456
0.50363582430389 0.355512791837235 0.184056392205695
0.0535987556477969 0.676352617453218 0.0499589190786244
0.320678054103509 -0.506398043742723 0.209330735962816
0.43371725 0.57095475 0
0.30457592325098 -0.333886645369684 0.382306250782947
0.361928251533021 -0.255421821282205 0.403357806588974
0.261083733312436 -0.190207082990238 0.458285283808474
0.14076534564051 -0.368078575235448 0.359918568871007
0.281656159078371 0.493814532180184 0.218723860009299
0.315119161975392 0.200432612926011 0.405002390345622
0.464900064972036 -0.101092541461767 0.3821560166268
0.0944400038030461 0.199035914277391 0.390322067411832
0.272438625 0.662196625 0
0.0567602071383517 -0.149296556761545 0.401997181887096
0 0.71875 0
0.435128125 -0.558326875 0
0.0796639057079858 0.47128334774601 0.252643576946659
0.122581016986102 -0.19804853320889 0.431793130790763
0.392880156639996 -0.31791222596625 0.347722696351878
0.0666254500361334 -0.398008097792617 0.305748559802327
0.20569072187955 0.553795012610908 0.181962869741478
0.155138471518763 0.606702230665499 0.131742503066124
0.358199619399843 0.121559071922104 0.422452666676171
0.0854973375 0.7116655 0
0.535262639869803 -0.199729019118025 0.275787800542481
0.182458 0.692549625 0
0.0579787089642588 -0.236148483433692 0.37876629425351
0.710920375 0.033770425 0
0 -0.707963625 0
0.0581054714979634 -0.0624302755533313 0.41484420059852
0.598903352526762 0.0286320263659382 0.227923743596774
0.128643801264748 -0.286490305394837 0.400688907330507
0.174994866338139 0.326848505351092 0.350989708542792
0.0914339125 -0.700387125 0
3.35766317398541e-16 -0.182309759694173 0.336310964442486
2.77810695480701e-16 0.15495521436925 0.352472235891104
0.211379197057576 -0.467377381138926 0.28935548130472
1.10855883101437e-16 -0.493601941810404 0.193563237428149
0.50462875 0.5071365 0
0.497961875 -0.50248725 0
0.182046875 -0.68186725 0
0.513311779898628 0.446859363553412 0.0738010175880943
3 0 1 122
3 78 52 7
3 101 21 116
3 45 23 22
3 152 58 27
3 136 124 123
3 60 118 35
3 53 63 102
3 28 29 118
3 66 64 74
3 102 85 86
3 26 160 24
3 97 99 98
3 41 136 40
3 125 18 54
3 9 10 86
3 22 104 46
3 46 102 45
3 111 77 110
3 54 57 125
3 80 47 110
3 116 129 0
3 9 67 68
3 106 122 1
3 59 126 96
3 72 42 147
3 71 53 49
3 51 22 128
3 129 31 30
3 68 10 9
3 53 102 86
3 35 34 60
3 44 123 50
3 40 56 41
3 30 38 96
3 111 8 132
3 25 114 85
3 49 113 71
3 33 115 160
3 138 54 101
3 46 85 102
3 68 67 12
3 145 95 14
3 81 82 107
3 2 16 141
3 147 71 113
3 95 94 150
3 89 117 151
3 12 11 13
3 32 59 119
3 139 16 121
3 128 55 51
3 24 23 76
3 36 114 172
3 117 89 155
3 143 5 146
3 45 84 75
3 28 118 60
3 45 75 23
3 22 51 104
3 60 34 37
3 88 28 30
3 145 169 158
3 122 106 90
3 94 151 150
3 162 17 43
3 71 147 42
3 140 107 62
3 112 39 93
3 103 12 78
3 64 48 159
3 4 72 135
3 151 94 70
3 68 12 103
3 86 85 36
3 154 62 76
3 31 129 116
3 37 34 115
3 161 97 156
3 149 148 47
3 83 50 93
3 121 2 162
3 81 107 140
3 1 126 59
3 20 122 87
3 163 94 158
3 115 33 37
3 32 120 59
3 89 131 153
3 89 153 155
3 29 88 105
3 23 24 128
3 154 61 62
3 128 24 69
3 125 57 117
3 34 35 157
3 327 7 164
3 63 42 84
3 70 100 131
3 106 139 121
3 43 19 87
3 14 95 19
3 93 3 112
3 108 107 82
3 141 74 334
3 64 65 74
3 6 79 80
3 156 143 146
3 138 20 87
3 26 107 108
3 0 20 116
3 8 111 168
3 119 38 37
3 129 96 126
3 108 160 26
3 10 53 86
3 132 103 111
3 62 26 76
3 117 155 142
3 119 33 32
3 144 9 36
3 86 36 9
3 76 75 154
3 55 128 69
3 29 28 88
3 130 6 7
3 23 75 76
3 53 10 49
3 164 7 52
3 114 36 85
3 45 22 46
3 25 85 46
3 4 44 50
3 152 39 15
3 121 162 90
3 137 97 161
3 139 15 16
3 19 138 87
3 150 54 138
3 333 143 156
3 141 334 166
3 107 26 62
3 115 24 160
3 136 41 124
3 1 59 58
3 42 72 61
3 138 19 95
3 77 6 80
3 113 49 8
3 78 6 77
3 7 6 78
3 120 108 82
3 70 163 100
3 127 66 74
3 151 70 89
3 84 154 75
3 115 69 24
3 42 61 154
3 67 11 12
3 10 68 132
3 123 124 3
3 161 146 41
3 97 148 99
3 143 165 159
3 139 58 152
3 156 98 333
3 113 8 91
3 120 58 59
3 53 71 63
3 92 91 168
3 4 140 61
3 62 61 140
3 27 82 81
3 57 150 151
3 119 96 38
3 108 32 160
3 24 76 26
3 103 77 111
3 154 84 42
3 327 130 7
3 49 132 8
3 69 34 157
3 30 28 38
3 125 73 18
3 9 144 67
3 103 132 68
3 141 16 127
3 34 69 115
3 45 102 84
3 128 22 23
3 83 152 27
3 3 93 123
3 109 166 170
3 43 90 162
3 44 40 136
3 148 97 137
3 92 47 148
3 148 137 92
3 20 138 101
3 8 168 91
3 32 108 120
3 163 70 94
3 101 116 20
3 16 2 121
3 48 64 66
3 52 78 12
3 52 12 13
3 80 110 77
3 80 79 336
3 49 10 132
3 103 78 77
3 117 57 151
3 63 71 42
3 60 38 28
3 160 32 33
3 30 96 129
3 3 48 112
3 83 93 39
3 56 40 134
3 146 124 41
3 92 110 47
3 138 95 150
3 81 50 83
3 96 119 59
3 167 159 165
3 94 95 145
3 44 135 40
3 112 66 127
3 0 129 126
3 134 147 113
3 27 120 82
3 141 166 109
3 73 133 18
3 72 4 61
3 97 98 156
3 142 73 125
3 125 117 142
3 88 174 105
3 37 33 119
3 67 144 11
3 84 102 63
3 54 150 57
3 333 165 143
3 87 90 43
3 123 44 136
3 113 91 134
3 134 40 135
3 137 91 92
3 127 16 15
3 5 159 48
3 2 109 162
3 159 5 143
3 161 41 56
3 90 87 122
3 39 112 15
3 4 135 44
3 120 27 58
3 168 110 92
3 145 158 94
3 168 111 110
3 112 48 66
3 162 109 17
3 91 137 56
3 50 140 4
3 146 5 124
3 27 81 83
3 56 137 161
3 50 81 140
3 14 19 43
3 127 15 112
3 58 106 1
3 167 64 159
3 91 56 134
3 147 134 135
3 17 14 43
3 139 106 58
3 2 141 109
3 83 39 152
3 3 5 48
3 15 139 152
3 161 156 146
3 106 121 90
3 70 131 89
3 50 123 93
3 153 131 313
3 135 72 147
3 127 74 141
3 122 20 0
3 17 170 169
3 3 124 5
3 21 171 174
3 145 14 17
3 313 131 100
3 74 65 334
3 1 0 126
3 88 30 31
3 47 336 149
3 47 80 336
3 17 169 145
3 79 6 130
3 148 149 99
3 60 37 38
3 65 64 167
3 69 157 55
3 170 17 109
3 25 46 104
3 101 54 18
3 172 144 36
3 52 13 173
3 21 101 18
3 21 18 133
3 174 31 116
3 173 164 52
3 88 31 174
3 21 133 171
3 174 116 21
3 174 171 105
3 175 292 176
3 252 182 227
3 271 286 196
3 220 197 198
3 321 202 233
3 305 293 294
3 235 210 288
3 228 272 238
3 203 288 204
3 240 248 239
3 272 259 258
3 201 199 329
3 270 98 99
3 216 215 305
3 295 229 193
3 184 259 185
3 197 221 274
3 221 220 272
3 281 280 251
3 229 295 232
3 253 280 222
3 286 175 299
3 184 242 241
3 276 176 292
3 234 269 296
3 246 317 217
3 245 224 228
3 226 298 197
3 299 205 206
3 242 184 185
3 228 259 272
3 210 235 209
3 219 225 293
3 215 216 231
3 205 269 213
3 281 301 183
3 200 258 284
3 224 245 283
3 208 329 285
3 307 271 229
3 221 272 258
3 242 187 241
3 315 189 268
3 254 277 255
3 177 310 191
3 317 283 245
3 268 319 267
3 262 320 287
3 187 188 186
3 207 289 234
3 308 291 191
3 298 226 230
3 199 250 198
3 211 338 284
3 287 324 262
3 312 316 180
3 220 249 257
3 203 235 288
3 220 198 249
3 197 274 226
3 235 212 209
3 261 205 203
3 315 158 169
3 292 263 276
3 267 319 320
3 331 218 192
3 245 217 317
3 309 237 277
3 282 266 214
3 273 252 187
3 239 328 223
3 179 304 246
3 320 244 267
3 242 273 187
3 259 211 258
3 323 250 237
3 206 286 299
3 212 285 209
3 330 325 270
3 149 222 318
3 256 266 225
3 291 331 177
3 254 309 277
3 176 234 296
3 195 260 292
3 163 158 267
3 285 212 208
3 207 234 290
3 262 322 300
3 262 324 322
3 204 275 261
3 198 298 199
3 323 237 236
3 298 243 199
3 295 287 232
3 209 326 210
3 327 332 182
3 238 257 217
3 244 300 100
3 276 291 308
3 218 260 194
3 189 194 268
3 266 282 178
3 278 255 277
3 310 334 248
3 239 248 65
3 181 253 79
3 325 316 312
3 307 260 195
3 201 278 277
3 175 286 195
3 183 335 281
3 289 212 213
3 299 296 269
3 278 201 329
3 185 259 228
3 301 281 273
3 237 250 201
3 287 311 324
3 289 207 208
3 314 211 184
3 259 184 211
3 250 323 249
3 230 243 298
3 204 261 203
3 130 182 181
3 198 250 249
3 228 224 185
3 332 227 182
3 284 258 211
3 220 221 197
3 200 221 258
3 179 225 219
3 321 190 214
3 291 263 331
3 306 330 270
3 308 191 190
3 194 260 307
3 319 307 229
3 333 325 312
3 310 166 334
3 277 237 201
3 285 329 199
3 305 294 216
3 176 233 234
3 217 236 246
3 307 268 194
3 251 253 181
3 283 183 224
3 252 251 181
3 182 252 181
3 290 255 278
3 244 100 163
3 297 248 240
3 320 262 244
3 257 249 323
3 285 199 243
3 217 323 236
3 241 187 186
3 185 301 242
3 293 178 294
3 330 216 316
3 270 99 318
3 312 328 165
3 308 321 233
3 325 333 98
3 283 264 183
3 290 234 233
3 228 238 245
3 265 335 264
3 179 236 309
3 237 309 236
3 202 254 255
3 232 320 319
3 289 213 269
3 278 329 207
3 199 201 250
3 273 281 251
3 323 217 257
3 327 182 130
3 224 183 301
3 243 326 209
3 205 213 203
3 295 193 247
3 184 241 314
3 273 242 301
3 310 297 191
3 209 285 243
3 220 257 272
3 298 198 197
3 256 202 321
3 178 293 266
3 279 170 166
3 218 331 263
3 219 305 215
3 318 306 270
3 265 318 222
3 318 265 306
3 195 271 307
3 183 264 335
3 207 290 278
3 163 267 244
3 271 195 286
3 191 291 177
3 223 240 239
3 227 187 252
3 227 188 187
3 253 251 280
3 253 336 79
3 224 301 185
3 273 251 252
3 287 320 232
3 238 217 245
3 235 203 213
3 329 208 207
3 205 299 269
3 178 282 223
3 256 214 266
3 231 303 215
3 316 216 294
3 265 222 280
3 307 319 268
3 254 256 225
3 269 234 289
3 167 165 328
3 267 315 268
3 219 215 304
3 282 297 240
3 175 296 299
3 303 283 317
3 202 255 290
3 310 279 166
3 247 193 302
3 246 236 179
3 270 325 98
3 311 295 247
3 295 311 287
3 261 275 340
3 212 289 208
3 241 186 314
3 257 238 272
3 229 232 319
3 333 312 165
3 260 218 263
3 293 305 219
3 283 303 264
3 303 304 215
3 306 265 264
3 297 190 191
3 180 223 328
3 177 331 279
3 328 312 180
3 330 231 216
3 263 292 260
3 214 190 282
3 179 219 304
3 290 233 202
3 335 265 280
3 315 267 158
3 335 280 281
3 282 240 223
3 331 192 279
3 264 231 306
3 225 179 309
3 316 294 180
3 202 256 254
3 231 330 306
3 225 309 254
3 189 218 194
3 297 282 190
3 233 176 276
3 167 328 239
3 264 303 231
3 317 304 303
3 192 218 189
3 308 233 276
3 177 279 310
3 256 321 214
3 178 223 180
3 190 321 308
3 330 316 325
3 276 263 291
3 244 262 300
3 225 266 293
3 322 313 300
3 304 317 246
3 297 310 248
3 292 175 195
3 192 169 170
3 178 180 294
3 196 340 337
3 315 192 189
3 313 100 300
3 248 334 65
3 176 296 175
3 261 206 205
3 222 149 336
3 222 336 253
3 192 315 169
3 79 130 181
3 318 99 149
3 235 213 212
3 65 167 239
3 243 230 326
3 170 279 192
3 200 274 221
3 271 193 229
3 338 211 314
3 227 339 188
3 196 193 271
3 196 302 193
3 340 286 206
3 339 227 332
3 261 340 206
3 196 337 302
3 340 196 286
3 340 275 337
