OFF
341 634 0
-0.438635554522196 0.367271729002661 0.247881309358826
-0.433684135824253 0.278105300528688 0.316729714619566
-0.159325841476404 0.259380296513866 0.391212114041105
-0.20699912734134 -0.058898519428425 0.485962138522859
-0.41388253812466 -0.171781674517306 0.413473726612277
-0.122531614563378 -0.106994958920347 0.458900998479477
-0.0814451865062458 -0.607257479075926 0.136494079257814
-0.0807256368545165 -0.663001187672974 0.0638672452964048
-0.289853243326701 -0.459247901446939 0.288884948687745
-0.426139366361519 -0.516618170524083 0.0986408787160157
-0.406247582409543 -0.480559611834497 0.179369561996322
-0.34456675 -0.618103875 0
-0.277167266114818 -0.611778232788145 0.0842155339285744
-0.26099975 -0.656427625 0
-0.147192769287715 0.445191781792887 0.288239261480392
-0.260270515292351 0.13011163590557 0.452318142034476
-0.206930112170104 0.200775495833614 0.42475823062453
-0.0912164812033687 0.385613046776189 0.317037200647146
-0.373653982822259 0.563143533943016 0.0841627513614759
-0.223699542903814 0.457131562038797 0.275237384988004
-0.369256550054063 0.436970943395716 0.237339556557786
-0.442839738624377 0.509084091197568 0.0897539196972124
-0.646636232600291 -0.214724679886723 0.082907491997191
-0.627102215003421 -0.159244809039249 0.15846325078954
-0.635046001957251 -0.0563403909551295 0.177033285933094
-0.610543 -0.360117375 0
-0.57747334041005 -0.0455547165869498 0.270419537292413
-0.434624104793419 0.0873122084873725 0.400939314677687
-0.623970981812544 0.281947730980234 0.0742035773120071
-0.630355625 0.33429325 0
-0.569079109495523 0.322229743428281 0.134655212855621
-0.524459719970739 0.398581127884714 0.122128998324112
-0.559133693847108 0.117914788813459 0.272503502900896
-0.607855308965959 0.102686766380337 0.207089375428004
-0.677427948748431 0.0874356792761234 0.0796463563127289
-0.698453375 0.13901175 0
-0.494242370935083 -0.478125842556231 0.058600949388778
-0.635294779033056 0.140950376259283 0.146824277756919
-0.606672370509885 0.232864332850365 0.145748441505818
-0.3023033919701 0.0607082118828322 0.465718339817174
-0.279818583005573 -0.261224986594593 0.437514628330746
-0.194476378013945 -0.241292723566684 0.447371110137365
-0.477511677519406 -0.278720163073467 0.307972864631673
-0.199549894949659 0.396279516854839 0.321876009336713
-0.337275316706947 -0.177611710060135 0.452464377332285
-0.595401113229581 -0.257388297907625 0.154413381143843
-0.604944753136833 -0.310670884734982 0.0840581632978333
-0.0669895983562984 -0.473166953296378 0.25881549257336
-0.128560435047745 -0.0176424115803375 0.465027613636385
-0.377329867406892 -0.440129086178684 0.257212995042737
-0.380997443466094 -0.081713550037013 0.4508555420514
-0.68987825 -0.171993 0
-0.1818587504272 -0.656894284796905 0.0544987680553705
-0.459602609030058 -0.406591187522822 0.212606833583381
-0.300611882035089 0.556034249608057 0.150019027521566
-0.708147625 -0.06918615 0
-0.211687655993534 -0.324625778878186 0.408784822761877
-0.236056998364324 0.598185511551107 0.126988067933104
-0.421249316103614 0.18929953496605 0.373974267288604
-0.508802292324352 0.207890047193064 0.292599579825685
-0.657680779301894 0.187707135667255 0.076941777882621
-0.482474018783449 -0.186475967632834 0.350998324460635
-0.533180577517633 -0.116399654405652 0.317170105780398
-0.492663373078883 -0.337344209769648 0.242279346388612
-0.0575790148575063 0.0242727056643687 0.419064548324186
3.4858915944146e-16 0.0698705689055068 0.3599504403177
-0.125861890015222 0.0598468737888884 0.45251649797834
-0.367024112103635 -0.574510622913765 0.0663030917964694
-0.34362109503201 -0.548748637356963 0.138572231691923
-0.679857704100793 -0.0145756270178447 0.0873861190102907
-0.0723911880371671 0.622956017405389 0.12278758376793
-0.425922506543817 -0.366107341115406 0.289968405257666
-0.430054046509195 -0.24480279967377 0.371011860260252
-0.35919125 0.619920125 0
-0.0691872590777958 0.112464359796725 0.41153873495999
-0.581639706817571 -0.20428103855702 0.213684715928574
-0.588537883471645 -0.126791227633342 0.238077570952869
-0.16092100454394 -0.568923826840092 0.190786185659714
-0.175938528319271 -0.618763263224097 0.121430288723774
1.70866250476124e-16 -0.565062525807878 0.136833578746919
-0.0733660303121083 -0.543936199971703 0.200904530185665
-0.446117242910464 -0.0135557472904731 0.409201453141971
-0.491152855282616 0.0413930148712433 0.364643897167133
-0.376143135689084 0.0238700588692235 0.447984926343104
-0.540839965923929 -0.275599883712472 0.229535976057869
-0.55346793136072 -0.396280128242024 0.0794940417622708
-0.485441041806079 -0.439551667695313 0.135487197064359
-0.290671382553246 0.419062150077022 0.289903248622882
-0.578447731272504 0.373371044834486 0.064281952260681
-0.12973471662431 0.663310948085792 0.0693835142867833
-0.274574388409148 0.343111902405542 0.346531859563636
-0.2346354194321 -0.404058643638169 0.354102438585244
-0.140940967081441 -0.440561408618642 0.31533360581688
-0.297645964133839 -0.0218777751051002 0.480168208174699
-0.0939641681474723 0.556840380110973 0.195897241824968
-0.170830916078705 0.507538826660408 0.241647412853461
-0.547953732970754 0.267305985627565 0.209612959781593
-0.0594475010855657 -0.319965893849085 0.350548503383641
3.04784874177893e-16 -0.261945631267067 0.311281927723376
2.64500984302399e-16 -0.340603546726377 0.278977495347995
2.26741152034489e-17 0.649761443887613 0.0714040721585284
-0.374607146901178 0.501963283667485 0.165527851526755
-0.540180469009191 -0.350197858516146 0.162891363768674
-0.254917287192108 -0.569557996296688 0.167084609144748
-0.657109375 -0.269984625 0
-0.576842125 0.421716125 0
-0.349041652898218 0.273365854415889 0.366517121745751
-0.515582510930763 -0.0353938482577306 0.347023489781113
-0.546699385639337 0.0389667892042386 0.306865294288974
-0.0823106961046209 0.293211323444684 0.356722728488978
-0.144736412249658 -0.509572366253554 0.254584121971088
-0.233257126908936 -0.520951643276209 0.238570184483607
-0.212539299892047 0.0418801723411352 0.477494535151236
-0.338736712564916 -0.393072707842515 0.330267161197125
-0.556289 -0.437336375 0
-0.646112800505965 0.0432015716433197 0.155143015178676
-0.454023616532558 0.441079830573655 0.16323333597996
-0.213282588661153 0.644626898676829 0.0700550127301713
-0.67095225 0.24044775 0
-0.579732484101175 0.182506377471353 0.217815544027285
-0.496680451834671 0.122308103831011 0.339997196040344
-0.252286622878395 0.27082940728143 0.390641663939898
-0.361599593990895 0.356587480119483 0.307437431679618
-0.285089569352293 -0.110803119244371 0.48027257768478
-0.194803759405263 -0.151049352468616 0.474385903036559
-0.297657113867443 0.610418804838527 0.0740521413859295
-0.492197956183882 0.294167162848683 0.254633771606258
-0.16088657028337 0.129291315470607 0.444840009809353
-0.670121789901399 -0.113498871984251 0.0882792844175704
-0.506159125298607 0.35680437166809 0.189168442532241
1.02442923892516e-16 -0.64110071001875 0.068849645861158
-0.0531703518713469 0.67854287093625 0.0518610978801194
-0.321302623031711 -0.50808395819594 0.215315734170333
-0.43371725 0.57095475 0
-0.303735020163587 -0.334312913239929 0.390351673622863
-0.361565663059234 -0.255631837544974 0.411339095788671
-0.259428398544368 -0.190175169631259 0.466370596510538
-0.137824433407558 -0.368695993921813 0.366426809963789
-0.282728209252651 0.496980361505914 0.225636647161166
-0.315729908355858 0.201717713083853 0.41423885510497
-0.465691728499601 -0.101142188387344 0.389781452984194
-0.0929616084893216 0.200706502141738 0.39703700707137
-0.272438625 0.662196625 0
-0.05401414852984 -0.148745473009461 0.40586167445172
-0.435128125 -0.558326875 0
-0.0782853488290748 0.474565423564416 0.258476535688189
-0.119529073267745 -0.197839872687259 0.437958677267058
-0.393206130731546 -0.318381570466794 0.355209533342572
-0.0636850845778037 -0.398490440866542 0.309504164939949
2.48122489333692e-16 -0.417259988492784 0.239096649349099
-0.20596987810721 0.55749960442686 0.188083207720542
-0.15506758078187 0.610435648340615 0.136540720597317
-0.358816834456733 0.122201320216062 0.431332161113575
-0.0854973375 0.7116655 0
-0.537059100436688 -0.200141386382174 0.281967171105164
-0.182458 0.692549625 0
-0.0551048751668776 -0.235790530671288 0.382423787450885
-0.710920375 0.033770425 0
1.00635723641479e-16 0.49804722407684 0.201312377868875
-0.055535047688733 -0.0617363101463249 0.419082010485604
-0.601565088415572 0.02892877966648 0.23337525609755
-0.125523633774287 -0.286577813008888 0.406921507497868
-0.174360810707478 0.329544448040024 0.359528690199377
9.50807429869949e-17 0.571677171590099 0.143466293758671
-0.0914339125 -0.700387125 0
3.40607547351687e-16 -0.0981325534535743 0.351397346550383
2.64878177660794e-16 0.239287693296222 0.33633290372119
3.67719633898322e-16 -0.0154433248715722 0.358964494890991
-0.209978576929934 -0.46898588471826 0.296629117380265
1.43580015836863e-16 0.413239975678327 0.256787437463083
1.97753409994512e-16 0.327688895658266 0.302039670293745
-0.50462875 0.5071365 0
-0.497961875 -0.50248725 0
-0.182046875 -0.68186725 0
-0.51494609176803 0.44787383510929 0.0761405797326092
0.438635554522196 0.367271729002662 0.247881309358826
0.433684135824254 0.278105300528688 0.316729714619566
0.159325841476405 0.259380296513866 0.391212114041105
0.206999127341341 -0.058898519428425 0.485962138522859
0.41388253812466 -0.171781674517306 0.413473726612278
0.122531614563379 -0.106994958920347 0.458900998479477
0.081445186506246 -0.607257479075926 0.136494079257814
0.0807256368545166 -0.663001187672974 0.0638672452964049
0.289853243326701 -0.459247901446939 0.288884948687746
0.426139366361519 -0.516618170524083 0.0986408787160158
0.406247582409544 -0.480559611834497 0.179369561996322
0.34456675 -0.618103875 0
0.277167266114818 -0.611778232788145 0.0842155339285746
0.26099975 -0.656427625 0
0.147192769287715 0.445191781792888 0.288239261480392
0.260270515292352 0.13011163590557 0.452318142034476
0.206930112170105 0.200775495833614 0.42475823062453
0.0912164812033691 0.38561304677619 0.317037200647146
0.373653982822259 0.563143533943016 0.084162751361476
0.223699542903814 0.457131562038797 0.275237384988004
0.369256550054063 0.436970943395716 0.237339556557786
0.442839738624377 0.509084091197568 0.0897539196972126
0.646636232600291 -0.214724679886723 0.082907491997191
0.627102215003421 -0.159244809039249 0.15846325078954
0.635046001957251 -0.0563403909551296 0.177033285933094
0.610543 -0.360117375 0
0.577473340410051 -0.0455547165869498 0.270419537292414
0.43462410479342 0.0873122084873725 0.400939314677688
0.623970981812544 0.281947730980234 0.0742035773120073
0.630355625 0.33429325 0
0.569079109495523 0.322229743428281 0.134655212855621
0.524459719970739 0.398581127884714 0.122128998324112
0.559133693847108 0.117914788813459 0.272503502900896
0.607855308965959 0.102686766380337 0.207089375428004
0.677427948748431 0.0874356792761235 0.0796463563127292
0.698453375 0.13901175 0
0.494242370935083 -0.478125842556231 0.0586009493887782
0.635294779033056 0.140950376259283 0.146824277756919
0.606672370509886 0.232864332850365 0.145748441505818
0.302303391970101 0.0607082118828323 0.465718339817174
0.279818583005574 -0.261224986594593 0.437514628330746
0.194476378013946 -0.241292723566684 0.447371110137366
0.477511677519407 -0.278720163073467 0.307972864631673
0.19954989494966 0.39627951685484 0.321876009336713
0.337275316706948 -0.177611710060135 0.452464377332286
0.595401113229582 -0.257388297907625 0.154413381143843
0.604944753136834 -0.310670884734982 0.0840581632978334
0.0669895983562988 -0.473166953296378 0.25881549257336
0.128560435047745 -0.0176424115803375 0.465027613636385
0.377329867406893 -0.440129086178684 0.257212995042737
0.380997443466095 -0.0817135500370131 0.4508555420514
0.68987825 -0.171993 0
0.1818587504272 -0.656894284796905 0.0544987680553705
0.459602609030058 -0.406591187522822 0.212606833583381
0.30061188203509 0.556034249608057 0.150019027521566
0.708147625 -0.06918615 0
0.211687655993535 -0.324625778878186 0.408784822761878
0.236056998364324 0.598185511551107 0.126988067933104
0.421249316103615 0.18929953496605 0.373974267288605
0.508802292324352 0.207890047193064 0.292599579825686
0.657680779301894 0.187707135667255 0.0769417778826211
0.482474018783449 -0.186475967632834 0.350998324460636
0.533180577517633 -0.116399654405652 0.317170105780398
0.492663373078883 -0.337344209769649 0.242279346388612
0.0575790148575071 0.0242727056643687 0.419064548324186
0.125861890015223 0.0598468737888885 0.45251649797834
0.367024112103636 -0.574510622913765 0.0663030917964696
0.34362109503201 -0.548748637356963 0.138572231691924
0.679857704100793 -0.0145756270178447 0.0873861190102907
0.0723911880371672 0.622956017405389 0.12278758376793
0.425922506543818 -0.366107341115406 0.289968405257666
0.430054046509195 -0.24480279967377 0.371011860260253
0.35919125 0.619920125 0
0.0691872590777965 0.112464359796725 0.41153873495999
0.581639706817571 -0.20428103855702 0.213684715928574
0.588537883471646 -0.126791227633342 0.238077570952869
0.160921004543941 -0.568923826840092 0.190786185659714
0.175938528319271 -0.618763263224097 0.121430288723774
0.0733660303121086 -0.543936199971704 0.200904530185665
0.446117242910464 -0.0135557472904732 0.409201453141972
0.491152855282617 0.0413930148712433 0.364643897167134
0.376143135689085 0.0238700588692235 0.447984926343105
0.54083996592393 -0.275599883712472 0.229535976057869
0.553467931360721 -0.396280128242024 0.0794940417622708
0.485441041806079 -0.439551667695313 0.135487197064359
0.290671382553246 0.419062150077022 0.289903248622882
0.578447731272504 0.373371044834486 0.0642819522606811
0.12973471662431 0.663310948085792 0.0693835142867833
0.274574388409149 0.343111902405542 0.346531859563636
0.2346354194321 -0.404058643638169 0.354102438585244
0.140940967081441 -0.440561408618642 0.31533360581688
0.29764596413384 -0.0218777751051002 0.480168208174699
0.0939641681474725 0.556840380110973 0.195897241824968
0.170830916078705 0.507538826660408 0.241647412853461
0.547953732970755 0.267305985627565 0.209612959781593
0.0594475010855663 -0.319965893849085 0.350548503383641
0.374607146901178 0.501963283667485 0.165527851526755
0.540180469009191 -0.350197858516147 0.162891363768674
0.254917287192108 -0.569557996296688 0.167084609144748
0.657109375 -0.269984625 0
0.576842125 0.421716125 0
0.349041652898219 0.273365854415889 0.366517121745751
0.515582510930764 -0.0353938482577307 0.347023489781114
0.546699385639338 0.0389667892042386 0.306865294288974
0.0823106961046215 0.293211323444684 0.356722728488978
0.144736412249658 -0.509572366253554 0.254584121971088
0.233257126908937 -0.520951643276209 0.238570184483608
0.212539299892048 0.0418801723411352 0.477494535151236
0.338736712564916 -0.393072707842515 0.330267161197125
0.556289 -0.437336375 0
0.646112800505966 0.0432015716433198 0.155143015178677
0.454023616532558 0.441079830573656 0.16323333597996
0.213282588661154 0.644626898676829 0.0700550127301713
0.67095225 0.24044775 0
0.579732484101176 0.182506377471353 0.217815544027286
0.496680451834672 0.122308103831012 0.339997196040344
0.252286622878395 0.27082940728143 0.390641663939898
0.361599593990896 0.356587480119483 0.307437431679618
0.285089569352294 -0.110803119244371 0.48027257768478
0.194803759405263 -0.151049352468616 0.474385903036559
0.297657113867443 0.610418804838527 0.0740521413859295
0.492197956183882 0.294167162848683 0.254633771606258
0.160886570283371 0.129291315470607 0.444840009809353
0.670121789901399 -0.113498871984251 0.0882792844175704
0.506159125298607 0.35680437166809 0.189168442532241
0.053170351871347 0.67854287093625 0.0518610978801194
0.321302623031711 -0.50808395819594 0.215315734170333
0.43371725 0.57095475 0
0.303735020163588 -0.334312913239929 0.390351673622863
0.361565663059235 -0.255631837544974 0.411339095788671
0.259428398544369 -0.190175169631259 0.466370596510539
0.137824433407558 -0.368695993921813 0.366426809963789
0.282728209252651 0.496980361505915 0.225636647161166
0.315729908355859 0.201717713083853 0.41423885510497
0.465691728499602 -0.101142188387344 0.389781452984195
0.0929616084893222 0.200706502141738 0.39703700707137
0.272438625 0.662196625 0
0.0540141485298407 -0.148745473009461 0.40586167445172
0 0.71875 0
0.435128125 -0.558326875 0
0.0782853488290752 0.474565423564416 0.258476535688189
0.119529073267745 -0.197839872687259 0.437958677267058
0.393206130731547 -0.318381570466794 0.355209533342572
0.0636850845778042 -0.398490440866542 0.309504164939949
0.20596987810721 0.55749960442686 0.188083207720543
0.15506758078187 0.610435648340615 0.136540720597317
0.358816834456733 0.122201320216062 0.431332161113576
0.0854973375 0.7116655 0
0.537059100436688 -0.200141386382174 0.281967171105164
0.182458 0.692549625 0
0.0551048751668783 -0.235790530671288 0.382423787450885
0.710920375 0.033770425 0
0 -0.707963625 0
0.0555350476887338 -0.0617363101463248 0.419082010485605
0.601565088415572 0.02892877966648 0.23337525609755
0.125523633774287 -0.286577813008888 0.406921507497868
0.174360810707478 0.329544448040024 0.359528690199377
0.0914339125 -0.700387125 0
3.40636473155091e-16 -0.181066161152574 0.335577200116889
3.1697501859517e-16 0.155798593982031 0.353806661551672
0.209978576929934 -0.468985884718261 0.296629117380265
2.23799386906535e-16 -0.492214970329881 0.191645103757611
0.50462875 0.5071365 0
0.497961875 -0.50248725 0
0.182046875 -0.68186725 0
0.51494609176803 0.44787383510929 0.0761405797326092
3 0 1 122
3 78 52 7
3 101 21 116
3 45 23 22
3 152 58 27
3 136 124 123
3 60 118 35
3 53 63 102
3 28 29 118
3 66 64 74
3 102 85 86
3 26 160 24
3 97 99 98
3 41 136 40
3 125 18 54
3 9 10 86
3 22 104 46
3 46 102 45
3 111 77 110
3 54 57 125
3 80 47 110
3 116 129 0
3 9 67 68
3 106 122 1
3 59 126 96
3 72 42 147
3 71 53 49
3 51 22 128
3 129 31 30
3 68 10 9
3 53 102 86
3 35 34 60
3 44 123 50
3 40 56 41
3 30 38 96
3 111 8 132
3 25 114 85
3 49 113 71
3 33 115 160
3 138 54 101
3 46 85 102
3 68 67 12
3 145 95 14
3 81 82 107
3 2 16 141
3 147 71 113
3 95 94 150
3 89 117 151
3 12 11 13
3 32 59 119
3 139 16 121
3 128 55 51
3 24 23 76
3 36 114 172
3 117 89 155
3 143 5 146
3 45 84 75
3 28 118 60
3 45 75 23
3 22 51 104
3 60 34 37
3 88 28 30
3 145 169 158
3 122 106 90
3 94 151 150
3 162 17 43
3 71 147 42
3 140 107 62
3 112 39 93
3 103 12 78
3 64 48 159
3 4 72 135
3 151 94 70
3 68 12 103
3 86 85 36
3 154 62 76
3 31 129 116
3 37 34 115
3 161 97 156
3 149 148 47
3 83 50 93
3 121 2 162
3 81 107 140
3 1 126 59
3 20 122 87
3 163 94 158
3 115 33 37
3 32 120 59
3 89 131 153
3 89 153 155
3 29 88 105
3 23 24 128
3 154 61 62
3 128 24 69
3 125 57 117
3 34 35 157
3 327 7 164
3 63 42 84
3 70 100 131
3 106 139 121
3 43 19 87
3 14 95 19
3 93 3 112
3 108 107 82
3 141 74 334
3 64 65 74
3 6 79 80
3 156 143 146
3 138 20 87
3 26 107 108
3 0 20 116
3 8 111 168
3 119 38 37
3 129 96 126
3 108 160 26
3 10 53 86
3 132 103 111
3 62 26 76
3 117 155 142
3 119 33 32
3 144 9 36
3 86 36 9
3 76 75 154
3 55 128 69
3 29 28 88
3 130 6 7
3 23 75 76
3 53 10 49
3 164 7 52
3 114 36 85
3 45 22 46
3 25 85 46
3 4 44 50
3 152 39 15
3 121 162 90
3 137 97 161
3 139 15 16
3 19 138 87
3 150 54 138
3 333 143 156
3 141 334 166
3 107 26 62
3 115 24 160
3 136 41 124
3 1 59 58
3 42 72 61
3 138 19 95
3 77 6 80
3 113 49 8
3 78 6 77
3 7 6 78
3 120 108 82
3 70 163 100
3 127 66 74
3 151 70 89
3 84 154 75
3 115 69 24
3 42 61 154
3 67 11 12
3 10 68 132
3 123 124 3
3 161 146 41
3 97 148 99
3 143 165 159
3 139 58 152
3 156 98 333
3 113 8 91
3 120 58 59
3 53 71 63
3 92 91 168
3 4 140 61
3 62 61 140
3 27 82 81
3 57 150 151
3 119 96 38
3 108 32 160
3 24 76 26
3 103 77 111
3 154 84 42
3 327 130 7
3 49 132 8
3 69 34 157
3 30 28 38
3 125 73 18
3 9 144 67
3 103 132 68
3 141 16 127
3 34 69 115
3 45 102 84
3 128 22 23
3 83 152 27
3 3 93 123
3 109 166 170
3 43 90 162
3 44 40 136
3 148 97 137
3 92 47 148
3 148 137 92
3 20 138 101
3 8 168 91
3 32 108 120
3 163 70 94
3 101 116 20
3 16 2 121
3 48 64 66
3 52 78 12
3 52 12 13
3 80 110 77
3 80 79 336
3 49 10 132
3 103 78 77
3 117 57 151
3 63 71 42
3 60 38 28
3 160 32 33
3 30 96 129
3 3 48 112
3 83 93 39
3 56 40 134
3 146 124 41
3 92 110 47
3 138 95 150
3 81 50 83
3 96 119 59
3 167 159 165
3 94 95 145
3 44 135 40
3 112 66 127
3 0 129 126
3 134 147 113
3 27 120 82
3 141 166 109
3 73 133 18
3 72 4 61
3 97 98 156
3 142 73 125
3 125 117 142
3 88 174 105
3 37 33 119
3 67 144 11
3 84 102 63
3 54 150 57
3 333 165 143
3 87 90 43
3 123 44 136
3 113 91 134
3 134 40 135
3 137 91 92
3 127 16 15
3 5 159 48
3 2 109 162
3 159 5 143
3 161 41 56
3 90 87 122
3 39 112 15
3 4 135 44
3 120 27 58
3 168 110 92
3 145 158 94
3 168 111 110
3 112 48 66
3 162 109 17
3 91 137 56
3 50 140 4
3 146 5 124
3 27 81 83
3 56 137 161
3 50 81 140
3 14 19 43
3 127 15 112
3 58 106 1
3 167 64 159
3 91 56 134
3 147 134 135
3 17 14 43
3 139 106 58
3 2 141 109
3 83 39 152
3 3 5 48
3 15 139 152
3 161 156 146
3 106 121 90
3 70 131 89
3 50 123 93
3 153 131 313
3 135 72 147
3 127 74 141
3 122 20 0
3 17 170 169
3 3 124 5
3 21 171 174
3 145 14 17
3 313 131 100
3 74 65 334
3 1 0 126
3 88 30 31
3 47 336 149
3 47 80 336
3 17 169 145
3 79 6 130
3 148 149 99
3 60 37 38
3 65 64 167
3 69 157 55
3 170 17 109
3 25 46 104
3 101 54 18
3 172 144 36
3 52 13 173
3 21 101 18
3 21 18 133
3 174 31 116
3 173 164 52
3 88 31 174
3 21 133 171
3 174 116 21
3 174 171 105
3 175 292 176
3 252 182 227
3 271 286 196
3 220 197 198
3 321 202 233
3 305 293 294
3 235 210 288
3 228 272 238
3 203 288 204
3 240 248 239
3 272 259 258
3 201 199 329
3 270 98 99
3 216 215 305
3 295 229 193
3 184 259 185
3 197 221 274
3 221 220 272
3 281 280 251
3 229 295 232
3 253 280 222
3 286 175 299
3 184 242 241
3 276 176 292
3 234 269 296
3 246 317 217
3 245 224 228
3 226 298 197
3 299 205 206
3 242 184 185
3 228 259 272
3 210 235 209
3 219 225 293
3 215 216 231
3 205 269 213
3 281 301 183
3 200 258 284
3 224 245 283
3 208 329 285
3 307 271 229
3 221 272 258
3 242 187 241
3 315 189 268
3 254 277 255
3 177 310 191
3 317 283 245
3 268 319 267
3 262 320 287
3 187 188 186
3 207 289 234
3 308 291 191
3 298 226 230
3 199 250 198
3 211 338 284
3 287 324 262
3 312 316 180
3 220 249 257
3 203 235 288
3 220 198 249
3 197 274 226
3 235 212 209
3 261 205 203
3 315 158 169
3 292 263 276
3 267 319 320
3 331 218 192
3 245 217 317
3 309 237 277
3 282 266 214
3 273 252 187
3 239 328 223
3 179 304 246
3 320 244 267
3 242 273 187
3 259 211 258
3 323 250 237
3 206 286 299
3 212 285 209
3 330 325 270
3 149 222 318
3 256 266 225
3 291 331 177
3 254 309 277
3 176 234 296
3 195 260 292
3 163 158 267
3 285 212 208
3 207 234 290
3 262 322 300
3 262 324 322
3 204 275 261
3 198 298 199
3 323 237 236
3 298 243 199
3 295 287 232
3 209 326 210
3 327 332 182
3 238 257 217
3 244 300 100
3 276 291 308
3 218 260 194
3 189 194 268
3 266 282 178
3 278 255 277
3 310 334 248
3 239 248 65
3 181 253 79
3 325 316 312
3 307 260 195
3 201 278 277
3 175 286 195
3 183 335 281
3 289 212 213
3 299 296 269
3 278 201 329
3 185 259 228
3 301 281 273
3 237 250 201
3 287 311 324
3 289 207 208
3 314 211 184
3 259 184 211
3 250 323 249
3 230 243 298
3 204 261 203
3 130 182 181
3 198 250 249
3 228 224 185
3 332 227 182
3 284 258 211
3 220 221 197
3 200 221 258
3 179 225 219
3 321 190 214
3 291 263 331
3 306 330 270
3 308 191 190
3 194 260 307
3 319 307 229
3 333 325 312
3 310 166 334
3 277 237 201
3 285 329 199
3 305 294 216
3 176 233 234
3 217 236 246
3 307 268 194
3 251 253 181
3 283 183 224
3 252 251 181
3 182 252 181
3 290 255 278
3 244 100 163
3 297 248 240
3 320 262 244
3 257 249 323
3 285 199 243
3 217 323 236
3 241 187 186
3 185 301 242
3 293 178 294
3 330 216 316
3 270 99 318
3 312 328 165
3 308 321 233
3 325 333 98
3 283 264 183
3 290 234 233
3 228 238 245
3 265 335 264
3 179 236 309
3 237 309 236
3 202 254 255
3 232 320 319
3 289 213 269
3 278 329 207
3 199 201 250
3 273 281 251
3 323 217 257
3 327 182 130
3 224 183 301
3 243 326 209
3 205 213 203
3 295 193 247
3 184 241 314
3 273 242 301
3 310 297 191
3 209 285 243
3 220 257 272
3 298 198 197
3 256 202 321
3 178 293 266
3 279 170 166
3 218 331 263
3 219 305 215
3 318 306 270
3 265 318 222
3 318 265 306
3 195 271 307
3 183 264 335
3 207 290 278
3 163 267 244
3 271 195 286
3 191 291 177
3 223 240 239
3 227 187 252
3 227 188 187
3 253 251 280
3 253 336 79
3 224 301 185
3 273 251 252
3 287 320 232
3 238 217 245
3 235 203 213
3 329 208 207
3 205 299 269
3 178 282 223
3 256 214 266
3 231 303 215
3 316 216 294
3 265 222 280
3 307 319 268
3 254 256 225
3 269 234 289
3 167 165 328
3 267 315 268
3 219 215 304
3 282 297 240
3 175 296 299
3 303 283 317
3 202 255 290
3 310 279 166
3 247 193 302
3 246 236 179
3 270 325 98
3 311 295 247
3 295 311 287
3 261 275 340
3 212 289 208
3 241 186 314
3 257 238 272
3 229 232 319
3 333 312 165
3 260 218 263
3 293 305 219
3 283 303 264
3 303 304 215
3 306 265 264
3 297 190 191
3 180 223 328
3 177 331 279
3 328 312 180
3 330 231 216
3 263 292 260
3 214 190 282
3 179 219 304
3 290 233 202
3 335 265 280
3 315 267 158
3 335 280 281
3 282 240 223
3 331 192 279
3 264 231 306
3 225 179 309
3 316 294 180
3 202 256 254
3 231 330 306
3 225 309 254
3 189 218 194
3 297 282 190
3 233 176 276
3 167 328 239
3 264 303 231
3 317 304 303
3 192 218 189
3 308 233 276
3 177 279 310
3 256 321 214
3 178 223 180
3 190 321 308
3 330 316 325
3 276 263 291
3 244 262 300
3 225 266 293
3 322 313 300
3 304 317 246
3 297 310 248
3 292 175 195
3 192 169 170
3 178 180 294
3 196 340 337
3 315 192 189
3 313 100 300
3 248 334 65
3 176 296 175
3 261 206 205
3 222 149 336
3 222 336 253
3 192 315 169
3 79 130 181
3 318 99 149
3 235 213 212
3 65 167 239
3 243 230 326
3 170 279 192
3 200 274 221
3 271 193 229
3 338 211 314
3 227 339 188
3 196 193 271
3 196 302 193
3 340 286 206
3 339 227 332
3 261 340 206
3 196 337 302
3 340 196 286
3 340 275 337
