OFF
341 634 0
-0.710489119990775 0.593845164709462 0.403235658763107
-0.70285453378109 0.449630233649916 0.51355117553374
-0.257030923947326 0.416817089287765 0.62853238926656
-0.335670576820722 -0.0946810393369828 0.778374080578537
-0.670861400930365 -0.277123991304515 0.665788907993386
-0.199751487175123 -0.172358771061505 0.735876026513967
-0.132709530394095 -0.972316475382363 0.218223207927422
-0.130647219782923 -1.06072834861673 0.101580606437707
-0.469835446821097 -0.740009988704035 0.464526935066285
-0.687952904431756 -0.832530598688304 0.160855693270392
-0.657943218369929 -0.776102457992147 0.291147903336511
-0.5513068 -0.9889662 0
-0.446561220628475 -0.982942196365 0.136287026862692
-0.4175996 -1.0502842 0
-0.237763546776183 0.714315992209062 0.463105544558104
-0.420784448448612 0.20976441804749 0.726426745311594
-0.334235869633712 0.323140674231061 0.682420595225684
-0.147245358359633 0.617323556090845 0.507270172044627
-0.601780826704676 0.905590339881349 0.137959307485915
-0.361461354134506 0.735321470313878 0.444126726060671
-0.59747322119923 0.705337283071799 0.385605299925419
-0.713857657039141 0.819569252071925 0.147401161517616
-1.043363758659 -0.346119051026737 0.13581487248153
-1.01610197224062 -0.257520353858285 0.259018088661703
-1.02978572968064 -0.0911963620712815 0.289381072143397
-0.9768688 -0.5761878 0
-0.937694488929971 -0.0736963698449267 0.439855825007527
-0.704246108774637 0.141473174597656 0.647166081260002
-1.00599266908091 0.454296649888229 0.121975173607074
-1.008569 0.5348692 0
-0.920502984210897 0.520929236988366 0.220775459379354
-0.847188375996375 0.64373490448399 0.200172302510888
-0.907765565468947 0.1912695300231 0.44335309363707
-0.986181137411513 0.166388738220033 0.338131962748184
-1.09285394502498 0.140874110839447 0.130816034431022
-1.1175254 0.2224188 0
-0.795869278048088 -0.768956048442229 0.095979931648557
-1.02882488232452 0.22804007002573 0.240570980613194
-0.982275363613354 0.376692038770431 0.238849733097943
-0.48897703266003 0.0980248175496049 0.747746457582653
-0.45368713042696 -0.420665836365126 0.70116992260652
-0.31636954000523 -0.388313442181009 0.716526083434419
-0.775077604298565 -0.451019400728247 0.498511084539549
-0.322325700472797 0.637068158714197 0.518495722793301
-0.546209137299193 -0.286051864829619 0.726187461099954
-0.964463944773577 -0.416378585797191 0.252153230385896
-0.97618544585516 -0.500774060578359 0.137521398295673
-0.110574171272699 -0.759685581332225 0.415863856505582
-0.209067761217768 -0.0285726488469908 0.745120589222832
-0.611696379204951 -0.710825932805187 0.415584259976159
-0.616967545632224 -0.131563737293613 0.724933507781776
-1.1038052 -0.2751888 0
-0.292483235655093 -1.05253601314695 0.0872208811063668
-0.745299752616326 -0.657639303315151 0.345252269562961
-0.48523317605166 0.894844376015869 0.244251689114523
-1.1330362 -0.11069784 0
-0.344166896935876 -0.522456714257084 0.654816359140079
-0.380614424615939 0.96104757653911 0.206243450974945
-0.68244479695689 0.306214192560532 0.604559341161549
-0.825615347740876 0.336716664966702 0.475513571531731
-1.06071296815676 0.302511834392845 0.1264318768814
-0.782915707663597 -0.301507664192138 0.56740776818227
-0.865634582500732 -0.188321883370933 0.514161741334916
-0.799474978761394 -0.546013129462658 0.393301380109656
-0.0937020965773155 0.0383930777628754 0.672738745925628
4.37094918543109e-16 0.110717343897495 0.577958094829829
-0.204140780836618 0.0960068850136667 0.724988372613628
-0.590839575585662 -0.923540378091163 0.107926888597218
-0.555323530810266 -0.884271458635438 0.224635395336845
-1.09747571258773 -0.0235891710943121 0.143368813100469
-0.117045732568202 0.996059900852432 0.196435892271651
-0.691012939581479 -0.59191980757763 0.468815060952128
-0.697414773188482 -0.395479855253665 0.598269059710289
-0.574706 0.9918722 0
-0.111833425296038 0.180233847638846 0.659767044503103
-0.943759817660425 -0.330755220909747 0.34804927564277
-0.955425822447506 -0.205237796384883 0.387635970536405
-0.261087309556317 -0.913235037847998 0.305493909179965
-0.284226772901383 -0.992628101904412 0.194395555200975
1.32462707255961e-16 -0.905782128716749 0.221982924897861
-0.120481269481606 -0.872003947759257 0.322136872762534
-0.723160170565587 -0.0216753453292336 0.660109128696276
-0.79670177747758 0.0672824851929329 0.58992827267436
-0.608844133889925 0.038745336148529 0.720725346395243
-0.877745617688653 -0.446307956873538 0.373273526162295
-0.8928877838927 -0.638354556186418 0.130002200672955
-0.785577698854402 -0.709819258488333 0.220984492310374
-0.469961547028639 0.675257632277696 0.468820502360146
-0.931425662256271 0.601265207732524 0.105698293865138
-0.208831769588341 1.06245491569499 0.111922588186049
-0.443875609658943 0.552834123293377 0.559219609111118
-0.380972089198748 -0.65035399133369 0.567764330001904
-0.230062618212717 -0.708159837816828 0.505620743540104
-0.481639244767297 -0.0350478253077899 0.770197210021382
-0.152003525623751 0.890804938848959 0.313487752190211
-0.275979304834685 0.814829147792889 0.388928615443625
-0.888552287648093 0.432851602864156 0.342291845364648
-0.0981330479095604 -0.515096400808265 0.564201485167479
3.56707384248565e-16 -0.422415619966477 0.503480119655979
2.60255425935836e-16 -0.548580357085182 0.451911213853124
7.39074189155814e-17 1.03879657229197 0.114601207257823
-0.605389064078233 0.809287778013197 0.270045910406915
-0.875295307698889 -0.566439230867451 0.265642616336079
-0.41208216652439 -0.916260228390891 0.268895665201467
-1.051375 -0.4319754 0
-0.9229474 0.6747458 0
-0.564828577915674 0.441250742374763 0.592013661056052
-0.836739734003565 -0.057110758468847 0.561920289254839
-0.887545632149234 0.0633586379344852 0.498253748960206
-0.132556099559774 0.469495945342057 0.570892134153498
-0.235823653077407 -0.818406480570439 0.407918947988094
-0.377948608069742 -0.838091946126187 0.382947494274179
-0.344047435704419 0.0674709138715174 0.765370252914211
-0.5491418118495 -0.634101042060843 0.53138329005795
-0.8900624 -0.6997382 0
-1.04679234181742 0.0697835193782046 0.254005035853826
-0.734257796969979 0.712430292828305 0.266811055291474
-0.343063089363865 1.03407545668902 0.11389789361095
-1.0735236 0.3847164 0
-0.940639981569691 0.295767472979228 0.355496141344704
-0.805806690897815 0.198383986944444 0.550974635405522
-0.40760867316481 0.436307702258207 0.629111015652967
-0.585317088242326 0.575660763721111 0.497904134082552
-0.461610183672912 -0.178187113019138 0.769731884561072
-0.316526331467328 -0.242992300019939 0.759744470039787
-0.478872449269311 0.980340831769644 0.120923486807864
-0.798006161680411 0.476058608435455 0.414504465498377
-0.260149533411472 0.20789382841752 0.713335602387341
-1.08179471922314 -0.182997358869324 0.144712399073579
-0.819693446091659 0.577271961057404 0.309034919589547
9.3235679301748e-17 -1.02592546135387 0.111586733408414
-0.0859346400150563 1.08514153964036 0.0829091199097804
-0.520241000474922 -0.819246504990021 0.347494110858037
-0.6939476 0.9135276 0
-0.492454484517759 -0.538784302350781 0.626411102601127
-0.585971169508036 -0.4122835192159 0.661067494790732
-0.420604478063027 -0.305998651523341 0.746963674325327
-0.22522871976279 -0.593131737700746 0.587731096349823
-0.456918008336596 0.800331446195574 0.365633186834512
-0.510519725993031 0.325528660745969 0.667185869097822
-0.755274209097641 -0.163277281441193 0.629179979480169
-0.149742449518059 0.321821397129212 0.63640083560502
-0.4359018 1.0595146 0
-0.0885174532244868 -0.240042360055123 0.652981041197979
-0.696205 -0.893323 0
-0.126769605027552 0.759008784109443 0.412951260555585
-0.195224230084747 -0.318641841962567 0.702773130371379
-0.637549014307766 -0.5141952957897 0.572269269397118
-0.105261891372556 -0.640685624834876 0.497847215843517
2.51481820035398e-16 -0.671163054966334 0.387818434606841
-0.332554523266562 0.895513749766385 0.304018664216723
-0.250165177784312 0.978783190617496 0.220364293483668
-0.58056326005637 0.197539338772081 0.694539949011487
-0.13679574 1.1386648 0
-0.872015560580672 -0.324056165882775 0.457566929411903
-0.2919328 1.1080794 0
-0.0906518223791666 -0.380026762406204 0.615565727317814
-1.1374726 0.05403268 0
2.1784386057628e-16 0.795751659336948 0.321642232906543
-0.0907438181493731 -0.0999974099659333 0.673598436276605
-0.976550290165486 0.0468867271550037 0.380497814428405
-0.205252708160498 -0.461353832587274 0.652951588676014
-0.281456242910575 0.529659575259558 0.578217818898346
1.49815638932466e-16 0.913561258980195 0.229669410276128
-0.14629426 -1.1206194 0
4.17436032893522e-16 -0.159157102430897 0.566930993022553
3.89182943336828e-16 0.38146743929135 0.534605073300404
4.45252879899671e-16 -0.0262754945460667 0.578294797542254
-0.340958303271239 -0.754260806624407 0.475625693081102
2.37612075255064e-16 0.660047061523643 0.409335535548873
2.96551704203239e-16 0.522995167026803 0.480349572234063
-0.807406 0.8114184 0
-0.796739 -0.8039796 0
-0.291275 -1.0909876 0
-0.829729179447808 0.721252260395844 0.125147309373032
0.710489119990775 0.593845164709462 0.403235658763107
0.702854533781091 0.449630233649916 0.51355117553374
0.257030923947327 0.416817089287765 0.62853238926656
0.335670576820723 -0.0946810393369829 0.778374080578538
0.670861400930366 -0.277123991304515 0.665788907993387
0.199751487175124 -0.172358771061505 0.735876026513968
0.132709530394095 -0.972316475382362 0.218223207927422
0.130647219782923 -1.06072834861673 0.101580606437707
0.469835446821098 -0.740009988704036 0.464526935066286
0.687952904431757 -0.832530598688304 0.160855693270392
0.65794321836993 -0.776102457992147 0.291147903336511
0.5513068 -0.9889662 0
0.446561220628475 -0.982942196365 0.136287026862692
0.4175996 -1.0502842 0
0.237763546776184 0.714315992209062 0.463105544558104
0.420784448448613 0.20976441804749 0.726426745311595
0.334235869633713 0.323140674231061 0.682420595225685
0.147245358359634 0.617323556090845 0.507270172044627
0.601780826704676 0.905590339881349 0.137959307485916
0.361461354134506 0.735321470313878 0.444126726060672
0.597473221199231 0.705337283071799 0.385605299925419
0.713857657039141 0.819569252071925 0.147401161517616
1.043363758659 -0.346119051026738 0.13581487248153
1.01610197224062 -0.257520353858285 0.259018088661703
1.02978572968064 -0.0911963620712816 0.289381072143397
0.9768688 -0.5761878 0
0.937694488929972 -0.0736963698449268 0.439855825007527
0.704246108774638 0.141473174597656 0.647166081260002
1.00599266908091 0.454296649888229 0.121975173607074
1.008569 0.5348692 0
0.920502984210897 0.520929236988366 0.220775459379354
0.847188375996375 0.64373490448399 0.200172302510888
0.907765565468948 0.1912695300231 0.44335309363707
0.986181137411513 0.166388738220033 0.338131962748184
1.09285394502498 0.140874110839447 0.130816034431022
1.1175254 0.2224188 0
0.795869278048088 -0.768956048442229 0.0959799316485572
1.02882488232452 0.22804007002573 0.240570980613195
0.982275363613355 0.376692038770431 0.238849733097943
0.488977032660031 0.0980248175496048 0.747746457582654
0.453687130426961 -0.420665836365127 0.70116992260652
0.316369540005231 -0.388313442181009 0.716526083434419
0.775077604298566 -0.451019400728247 0.49851108453955
0.322325700472798 0.637068158714198 0.518495722793301
0.546209137299194 -0.28605186482962 0.726187461099955
0.964463944773577 -0.416378585797191 0.252153230385896
0.97618544585516 -0.500774060578359 0.137521398295673
0.1105741712727 -0.759685581332225 0.415863856505582
0.209067761217769 -0.0285726488469909 0.745120589222833
0.611696379204951 -0.710825932805188 0.415584259976159
0.616967545632225 -0.131563737293613 0.724933507781777
1.1038052 -0.2751888 0
0.292483235655093 -1.05253601314695 0.087220881106367
0.745299752616326 -0.657639303315151 0.345252269562962
0.48523317605166 0.894844376015869 0.244251689114524
1.1330362 -0.11069784 0
0.344166896935877 -0.522456714257085 0.65481635914008
0.38061442461594 0.96104757653911 0.206243450974945
0.682444796956891 0.306214192560532 0.60455934116155
0.825615347740876 0.336716664966702 0.475513571531732
1.06071296815676 0.302511834392845 0.1264318768814
0.782915707663598 -0.301507664192139 0.56740776818227
0.865634582500733 -0.188321883370933 0.514161741334916
0.799474978761395 -0.546013129462658 0.393301380109657
0.0937020965773165 0.0383930777628753 0.672738745925629
0.204140780836619 0.0960068850136666 0.724988372613628
0.590839575585662 -0.923540378091164 0.107926888597218
0.555323530810267 -0.884271458635438 0.224635395336845
1.09747571258773 -0.0235891710943122 0.143368813100469
0.117045732568202 0.996059900852432 0.196435892271651
0.691012939581479 -0.59191980757763 0.468815060952129
0.697414773188483 -0.395479855253665 0.59826905971029
0.574706 0.9918722 0
0.111833425296039 0.180233847638846 0.659767044503104
0.943759817660426 -0.330755220909747 0.34804927564277
0.955425822447506 -0.205237796384883 0.387635970536405
0.261087309556317 -0.913235037847998 0.305493909179966
0.284226772901383 -0.992628101904412 0.194395555200975
0.120481269481607 -0.872003947759257 0.322136872762534
0.723160170565589 -0.0216753453292337 0.660109128696276
0.796701777477582 0.0672824851929328 0.58992827267436
0.608844133889926 0.0387453361485289 0.720725346395244
0.877745617688654 -0.446307956873538 0.373273526162296
0.8928877838927 -0.638354556186418 0.130002200672955
0.785577698854403 -0.709819258488333 0.220984492310374
0.469961547028639 0.675257632277696 0.468820502360146
0.931425662256271 0.601265207732524 0.105698293865138
0.208831769588341 1.06245491569499 0.111922588186049
0.443875609658944 0.552834123293377 0.559219609111118
0.380972089198748 -0.65035399133369 0.567764330001905
0.230062618212718 -0.708159837816828 0.505620743540104
0.481639244767299 -0.0350478253077901 0.770197210021384
0.152003525623752 0.89080493884896 0.313487752190211
0.275979304834685 0.814829147792889 0.388928615443625
0.888552287648093 0.432851602864156 0.342291845364648
0.0981330479095612 -0.515096400808265 0.564201485167479
0.605389064078233 0.809287778013197 0.270045910406915
0.87529530769889 -0.566439230867452 0.265642616336079
0.41208216652439 -0.916260228390891 0.268895665201468
1.051375 -0.4319754 0
0.9229474 0.6747458 0
0.564828577915675 0.441250742374763 0.592013661056052
0.836739734003566 -0.0571107584688472 0.561920289254839
0.887545632149235 0.0633586379344852 0.498253748960206
0.132556099559775 0.469495945342057 0.570892134153498
0.235823653077408 -0.818406480570439 0.407918947988094
0.377948608069742 -0.838091946126188 0.38294749427418
0.34404743570442 0.0674709138715174 0.765370252914212
0.549141811849501 -0.634101042060844 0.531383290057951
0.8900624 -0.6997382 0
1.04679234181742 0.0697835193782045 0.254005035853826
0.73425779696998 0.712430292828305 0.266811055291474
0.343063089363865 1.03407545668902 0.11389789361095
1.0735236 0.3847164 0
0.940639981569692 0.295767472979228 0.355496141344705
0.805806690897816 0.198383986944444 0.550974635405523
0.407608673164811 0.436307702258207 0.629111015652967
0.585317088242327 0.575660763721111 0.497904134082553
0.461610183672913 -0.178187113019138 0.769731884561072
0.316526331467329 -0.24299230001994 0.759744470039787
0.478872449269311 0.980340831769644 0.120923486807864
0.798006161680411 0.476058608435455 0.414504465498377
0.260149533411473 0.20789382841752 0.713335602387342
1.08179471922314 -0.182997358869324 0.144712399073579
0.81969344609166 0.577271961057404 0.309034919589547
0.0859346400150564 1.08514153964036 0.0829091199097803
0.520241000474922 -0.819246504990021 0.347494110858038
0.6939476 0.9135276 0
0.49245448451776 -0.538784302350781 0.626411102601128
0.585971169508037 -0.4122835192159 0.661067494790732
0.420604478063028 -0.305998651523341 0.746963674325327
0.225228719762791 -0.593131737700747 0.587731096349824
0.456918008336596 0.800331446195574 0.365633186834512
0.510519725993032 0.325528660745969 0.667185869097822
0.755274209097642 -0.163277281441194 0.62917997948017
0.149742449518059 0.321821397129211 0.636400835605021
0.4359018 1.0595146 0
0.088517453224488 -0.240042360055123 0.65298104119798
0 1.15 0
0.696205 -0.893323 0
0.126769605027553 0.759008784109443 0.412951260555585
0.195224230084748 -0.318641841962567 0.702773130371379
0.637549014307767 -0.5141952957897 0.572269269397119
0.105261891372557 -0.640685624834876 0.497847215843517
0.332554523266563 0.895513749766385 0.304018664216723
0.250165177784312 0.978783190617496 0.220364293483668
0.580563260056372 0.197539338772081 0.694539949011488
0.13679574 1.1386648 0
0.872015560580673 -0.324056165882775 0.457566929411903
0.2919328 1.1080794 0
0.0906518223791675 -0.380026762406204 0.615565727317815
1.1374726 0.05403268 0
0 -1.1327418 0
0.0907438181493742 -0.0999974099659334 0.673598436276606
0.976550290165487 0.0468867271550037 0.380497814428405
0.205252708160499 -0.461353832587274 0.652951588676014
0.281456242910576 0.529659575259558 0.578217818898347
0.14629426 -1.1206194 0
4.16671159030049e-16 -0.292473891502341 0.54203276759402
4.19584630014047e-16 0.248263736600504 0.564797307542216
0.34095830327124 -0.754260806624407 0.475625693081103
1.49453913832593e-16 -0.790482519014524 0.31107668260395
0.807406 0.8114184 0
0.796739 -0.8039796 0
0.291275 -1.0909876 0
0.829729179447808 0.721252260395844 0.125147309373032
3 0 1 122
3 78 52 7
3 101 21 116
3 45 23 22
3 152 58 27
3 136 124 123
3 60 118 35
3 53 63 102
3 28 29 118
3 66 64 74
3 102 85 86
3 26 160 24
3 97 99 98
3 41 136 40
3 125 18 54
3 9 10 86
3 22 104 46
3 46 102 45
3 111 77 110
3 54 57 125
3 80 47 110
3 116 129 0
3 9 67 68
3 106 122 1
3 59 126 96
3 72 42 147
3 71 53 49
3 51 22 128
3 129 31 30
3 68 10 9
3 53 102 86
3 35 34 60
3 44 123 50
3 40 56 41
3 30 38 96
3 111 8 132
3 25 114 85
3 49 113 71
3 33 115 160
3 138 54 101
3 46 85 102
3 68 67 12
3 145 95 14
3 81 82 107
3 2 16 141
3 147 71 113
3 95 94 150
3 89 117 151
3 12 11 13
3 32 59 119
3 139 16 121
3 128 55 51
3 24 23 76
3 36 114 172
3 117 89 155
3 143 5 146
3 45 84 75
3 28 118 60
3 45 75 23
3 22 51 104
3 60 34 37
3 88 28 30
3 145 169 158
3 122 106 90
3 94 151 150
3 162 17 43
3 71 147 42
3 140 107 62
3 112 39 93
3 103 12 78
3 64 48 159
3 4 72 135
3 151 94 70
3 68 12 103
3 86 85 36
3 154 62 76
3 31 129 116
3 37 34 115
3 161 97 156
3 149 148 47
3 83 50 93
3 121 2 162
3 81 107 140
3 1 126 59
3 20 122 87
3 163 94 158
3 115 33 37
3 32 120 59
3 89 131 153
3 89 153 155
3 29 88 105
3 23 24 128
3 154 61 62
3 128 24 69
3 125 57 117
3 34 35 157
3 327 7 164
3 63 42 84
3 70 100 131
3 106 139 121
3 43 19 87
3 14 95 19
3 93 3 112
3 108 107 82
3 141 74 334
3 64 65 74
3 6 79 80
3 156 143 146
3 138 20 87
3 26 107 108
3 0 20 116
3 8 111 168
3 119 38 37
3 129 96 126
3 108 160 26
3 10 53 86
3 132 103 111
3 62 26 76
3 117 155 142
3 119 33 32
3 144 9 36
3 86 36 9
3 76 75 154
3 55 128 69
3 29 28 88
3 130 6 7
3 23 75 76
3 53 10 49
3 164 7 52
3 114 36 85
3 45 22 46
3 25 85 46
3 4 44 50
3 152 39 15
3 121 162 90
3 137 97 161
3 139 15 16
3 19 138 87
3 150 54 138
3 333 143 156
3 141 334 166
3 107 26 62
3 115 24 160
3 136 41 124
3 1 59 58
3 42 72 61
3 138 19 95
3 77 6 80
3 113 49 8
3 78 6 77
3 7 6 78
3 120 108 82
3 70 163 100
3 127 66 74
3 151 70 89
3 84 154 75
3 115 69 24
3 42 61 154
3 67 11 12
3 10 68 132
3 123 124 3
3 161 146 41
3 97 148 99
3 143 165 159
3 139 58 152
3 156 98 333
3 113 8 91
3 120 58 59
3 53 71 63
3 92 91 168
3 4 140 61
3 62 61 140
3 27 82 81
3 57 150 151
3 119 96 38
3 108 32 160
3 24 76 26
3 103 77 111
3 154 84 42
3 327 130 7
3 49 132 8
3 69 34 157
3 30 28 38
3 125 73 18
3 9 144 67
3 103 132 68
3 141 16 127
3 34 69 115
3 45 102 84
3 128 22 23
3 83 152 27
3 3 93 123
3 109 166 170
3 43 90 162
3 44 40 136
3 148 97 137
3 92 47 148
3 148 137 92
3 20 138 101
3 8 168 91
3 32 108 120
3 163 70 94
3 101 116 20
3 16 2 121
3 48 64 66
3 52 78 12
3 52 12 13
3 80 110 77
3 80 79 336
3 49 10 132
3 103 78 77
3 117 57 151
3 63 71 42
3 60 38 28
3 160 32 33
3 30 96 129
3 3 48 112
3 83 93 39
3 56 40 134
3 146 124 41
3 92 110 47
3 138 95 150
3 81 50 83
3 96 119 59
3 167 159 165
3 94 95 145
3 44 135 40
3 112 66 127
3 0 129 126
3 134 147 113
3 27 120 82
3 141 166 109
3 73 133 18
3 72 4 61
3 97 98 156
3 142 73 125
3 125 117 142
3 88 174 105
3 37 33 119
3 67 144 11
3 84 102 63
3 54 150 57
3 333 165 143
3 87 90 43
3 123 44 136
3 113 91 134
3 134 40 135
3 137 91 92
3 127 16 15
3 5 159 48
3 2 109 162
3 159 5 143
3 161 41 56
3 90 87 122
3 39 112 15
3 4 135 44
3 120 27 58
3 168 110 92
3 145 158 94
3 168 111 110
3 112 48 66
3 162 109 17
3 91 137 56
3 50 140 4
3 146 5 124
3 27 81 83
3 56 137 161
3 50 81 140
3 14 19 43
3 127 15 112
3 58 106 1
3 167 64 159
3 91 56 134
3 147 134 135
3 17 14 43
3 139 106 58
3 2 141 109
3 83 39 152
3 3 5 48
3 15 139 152
3 161 156 146
3 106 121 90
3 70 131 89
3 50 123 93
3 153 131 313
3 135 72 147
3 127 74 141
3 122 20 0
3 17 170 169
3 3 124 5
3 21 171 174
3 145 14 17
3 313 131 100
3 74 65 334
3 1 0 126
3 88 30 31
3 47 336 149
3 47 80 336
3 17 169 145
3 79 6 130
3 148 149 99
3 60 37 38
3 65 64 167
3 69 157 55
3 170 17 109
3 25 46 104
3 101 54 18
3 172 144 36
3 52 13 173
3 21 101 18
3 21 18 133
3 174 31 116
3 173 164 52
3 88 31 174
3 21 133 171
3 174 116 21
3 174 171 105
3 175 292 176
3 252 182 227
3 271 286 196
3 220 197 198
3 321 202 233
3 305 293 294
3 235 210 288
3 228 272 238
3 203 288 204
3 240 248 239
3 272 259 258
3 201 199 329
3 270 98 99
3 216 215 305
3 295 229 193
3 184 259 185
3 197 221 274
3 221 220 272
3 281 280 251
3 229 295 232
3 253 280 222
3 286 175 299
3 184 242 241
3 276 176 292
3 234 269 296
3 246 317 217
3 245 224 228
3 226 298 197
3 299 205 206
3 242 184 185
3 228 259 272
3 210 235 209
3 219 225 293
3 215 216 231
3 205 269 213
3 281 301 183
3 200 258 284
3 224 245 283
3 208 329 285
3 307 271 229
3 221 272 258
3 242 187 241
3 315 189 268
3 254 277 255
3 177 310 191
3 317 283 245
3 268 319 267
3 262 320 287
3 187 188 186
3 207 289 234
3 308 291 191
3 298 226 230
3 199 250 198
3 211 338 284
3 287 324 262
3 312 316 180
3 220 249 257
3 203 235 288
3 220 198 249
3 197 274 226
3 235 212 209
3 261 205 203
3 315 158 169
3 292 263 276
3 267 319 320
3 331 218 192
3 245 217 317
3 309 237 277
3 282 266 214
3 273 252 187
3 239 328 223
3 179 304 246
3 320 244 267
3 242 273 187
3 259 211 258
3 323 250 237
3 206 286 299
3 212 285 209
3 330 325 270
3 149 222 318
3 256 266 225
3 291 331 177
3 254 309 277
3 176 234 296
3 195 260 292
3 163 158 267
3 285 212 208
3 207 234 290
3 262 322 300
3 262 324 322
3 204 275 261
3 198 298 199
3 323 237 236
3 298 243 199
3 295 287 232
3 209 326 210
3 327 332 182
3 238 257 217
3 244 300 100
3 276 291 308
3 218 260 194
3 189 194 268
3 266 282 178
3 278 255 277
3 310 334 248
3 239 248 65
3 181 253 79
3 325 316 312
3 307 260 195
3 201 278 277
3 175 286 195
3 183 335 281
3 289 212 213
3 299 296 269
3 278 201 329
3 185 259 228
3 301 281 273
3 237 250 201
3 287 311 324
3 289 207 208
3 314 211 184
3 259 184 211
3 250 323 249
3 230 243 298
3 204 261 203
3 130 182 181
3 198 250 249
3 228 224 185
3 332 227 182
3 284 258 211
3 220 221 197
3 200 221 258
3 179 225 219
3 321 190 214
3 291 263 331
3 306 330 270
3 308 191 190
3 194 260 307
3 319 307 229
3 333 325 312
3 310 166 334
3 277 237 201
3 285 329 199
3 305 294 216
3 176 233 234
3 217 236 246
3 307 268 194
3 251 253 181
3 283 183 224
3 252 251 181
3 182 252 181
3 290 255 278
3 244 100 163
3 297 248 240
3 320 262 244
3 257 249 323
3 285 199 243
3 217 323 236
3 241 187 186
3 185 301 242
3 293 178 294
3 330 216 316
3 270 99 318
3 312 328 165
3 308 321 233
3 325 333 98
3 283 264 183
3 290 234 233
3 228 238 245
3 265 335 264
3 179 236 309
3 237 309 236
3 202 254 255
3 232 320 319
3 289 213 269
3 278 329 207
3 199 201 250
3 273 281 251
3 323 217 257
3 327 182 130
3 224 183 301
3 243 326 209
3 205 213 203
3 295 193 247
3 184 241 314
3 273 242 301
3 310 297 191
3 209 285 243
3 220 257 272
3 298 198 197
3 256 202 321
3 178 293 266
3 279 170 166
3 218 331 263
3 219 305 215
3 318 306 270
3 265 318 222
3 318 265 306
3 195 271 307
3 183 264 335
3 207 290 278
3 163 267 244
3 271 195 286
3 191 291 177
3 223 240 239
3 227 187 252
3 227 188 187
3 253 251 280
3 253 336 79
3 224 301 185
3 273 251 252
3 287 320 232
3 238 217 245
3 235 203 213
3 329 208 207
3 205 299 269
3 178 282 223
3 256 214 266
3 231 303 215
3 316 216 294
3 265 222 280
3 307 319 268
3 254 256 225
3 269 234 289
3 167 165 328
3 267 315 268
3 219 215 304
3 282 297 240
3 175 296 299
3 303 283 317
3 202 255 290
3 310 279 166
3 247 193 302
3 246 236 179
3 270 325 98
3 311 295 247
3 295 311 287
3 261 275 340
3 212 289 208
3 241 186 314
3 257 238 272
3 229 232 319
3 333 312 165
3 260 218 263
3 293 305 219
3 283 303 264
3 303 304 215
3 306 265 264
3 297 190 191
3 180 223 328
3 177 331 279
3 328 312 180
3 330 231 216
3 263 292 260
3 214 190 282
3 179 219 304
3 290 233 202
3 335 265 280
3 315 267 158
3 335 280 281
3 282 240 223
3 331 192 279
3 264 231 306
3 225 179 309
3 316 294 180
3 202 256 254
3 231 330 306
3 225 309 254
3 189 218 194
3 297 282 190
3 233 176 276
3 167 328 239
3 264 303 231
3 317 304 303
3 192 218 189
3 308 233 276
3 177 279 310
3 256 321 214
3 178 223 180
3 190 321 308
3 330 316 325
3 276 263 291
3 244 262 300
3 225 266 293
3 322 313 300
3 304 317 246
3 297 310 248
3 292 175 195
3 192 169 170
3 178 180 294
3 196 340 337
3 315 192 189
3 313 100 300
3 248 334 65
3 176 296 175
3 261 206 205
3 222 149 336
3 222 336 253
3 192 315 169
3 79 130 181
3 318 99 149
3 235 213 212
3 65 167 239
3 243 230 326
3 170 279 192
3 200 274 221
3 271 193 229
3 338 211 314
3 227 339 188
3 196 193 271
3 196 302 193
3 340 286 206
3 339 227 332
3 261 340 206
3 196 337 302
3 340 196 286
3 340 275 337
