OFF
341 634 0
-0.703701291120734 0.587342551619728 0.398528251673976
-0.695366668783865 0.444769552438286 0.507948803162507
-0.254739185610694 0.415333306453469 0.627492413745501
-0.332197881200169 -0.0918785875785017 0.771650656101315
-0.661685944315012 -0.271128098998869 0.657856691999664
-0.19757652631444 -0.168429552659755 0.72989827148933
-0.129940871121589 -0.970070171031355 0.21917943248007
-0.128587687132896 -1.06006403625029 0.102901774782536
-0.464491835267807 -0.729717211407328 0.462408098145706
-0.682998707153116 -0.825687062976584 0.158431821105891
-0.651423828955997 -0.766669283424441 0.287740995559773
-0.5513068 -0.9889662 0
-0.444196232803513 -0.977736094709139 0.135915585824787
-0.4175996 -1.0502842 0
-0.23549252548865 0.711189708107955 0.462297497767556
-0.416925141967928 0.20833251949907 0.721860895167989
-0.331367887881427 0.321489618182703 0.680057222076058
-0.145799432033478 0.616730119336891 0.508253747361568
-0.598849859135984 0.901137633184817 0.135723292149378
-0.358256088447026 0.730362870830055 0.442450358819955
-0.59237353437413 0.698751073153051 0.382173529531026
-0.709809445193586 0.814731771526115 0.144608124429966
-1.03600463476838 -0.343280860484013 0.133070148580284
-1.00516067988749 -0.254067549268772 0.253940243279565
-1.01799913707191 -0.0893778508819366 0.283705991813259
-0.9768688 -0.5761878 0
-0.925198316829537 -0.0716389113051241 0.432375744405971
-0.695662727545008 0.140159633515834 0.639787595144739
-0.999631232753276 0.451332063575113 0.119265375872486
-1.008569 0.5348692 0
-0.912459273422466 0.515686356514268 0.216454646118305
-0.841004365288186 0.637654554126604 0.196569007383247
-0.896113662781098 0.189147473251388 0.436308486077719
-0.974434319229655 0.164878428922 0.331921500897785
-1.085314572569 0.140246927692134 0.127880227969532
-1.1175254 0.2224188 0
-0.791578131152423 -0.764742929643911 0.0940428801349559
-1.01842310960294 0.225962662902487 0.235609973344008
-0.972613335608711 0.372893896312941 0.23406108130012
-0.483880337263386 0.0977876054994845 0.741350258934909
-0.447883946533366 -0.412167422399058 0.695505285785459
-0.311999395573905 -0.380770748179434 0.711222025148347
-0.764657007163619 -0.442666390349464 0.491724755993879
-0.319366788049951 0.633491411825447 0.517137377677886
-0.539312636637462 -0.279775302233138 0.71871653717623
-0.954344860210923 -0.410849471408547 0.247464793325922
-0.969207646983751 -0.496746921321911 0.134935192124909
-0.107519358800093 -0.754610570423431 0.414323660375488
-0.207356407592156 -0.026664311639841 0.73932757607118
-0.604856862694913 -0.700360815225235 0.411803366533237
-0.609074700821606 -0.128036324316193 0.716787596315044
-1.1038052 -0.2751888 0
-0.291050255109094 -1.05015151944951 0.0884016516328483
-0.736797146008366 -0.648123706667875 0.34049396775163
-0.481927012088535 0.889329676272236 0.241878885315941
-1.1330362 -0.11069784 0
-0.339264261686537 -0.513266642703654 0.650964593723682
-0.37816469557112 0.956472395388365 0.204619808931444
-0.675002077040257 0.302759393316043 0.59831658212263
-0.815613953942325 0.332749706913253 0.468820951512496
-1.05364322806198 0.300618098285791 0.123592596936202
-0.771987683647075 -0.295291953598584 0.55960171781867
-0.853597811350782 -0.184227017710121 0.506322469492103
-0.789502730623928 -0.537194919077207 0.387567061623457
-0.0931777011468716 0.0399634599795405 0.668656631810429
5.74546673914634e-16 0.112912361902318 0.576414127215903
-0.202661766839933 0.0964176383645058 0.720541588549852
-0.588054804939348 -0.918517740611567 0.106700469559155
-0.551001635980384 -0.87613569487267 0.222871674109604
-1.08931290840395 -0.0229396829347103 0.140299513364787
-0.115595090053552 0.996364527134693 0.196602047536457
-0.682352788465821 -0.58195215696255 0.463459868784979
-0.687986459676909 -0.387499729149047 0.591106853399932
-0.574706 0.9918722 0
-0.111016780708767 0.180697591177369 0.657627270639711
-0.932114747596111 -0.325429141275406 0.341979154446689
-0.94307030276771 -0.201561092150716 0.38085245533269
-0.257530223499458 -0.90689180568883 0.306841684037679
-0.281597114700799 -0.987870594022591 0.196155703950893
2.37576843569411e-16 -0.90525467559169 0.219073971013145
-0.11738760910306 -0.868170445764109 0.321946512081935
-0.713498111933235 -0.0200758255001814 0.651916008293837
-0.786160591922763 0.0671456906165861 0.581985394213853
-0.601644294454834 0.0393690013631485 0.713093801189789
-0.866695310297423 -0.438981782853717 0.36724074640579
-0.886641150848522 -0.633751714738117 0.127600258788715
-0.778121432336858 -0.702174114720969 0.217312252261225
-0.465951866746805 0.669858991670592 0.466429241549365
-0.926722170269273 0.59738096935328 0.103412514377574
-0.207445279095974 1.06077437164406 0.111632040851181
-0.439993827805056 0.548656402778048 0.556834803612701
-0.375862697967174 -0.640486757380817 0.565394452215213
-0.225978028398458 -0.699998514897669 0.504145905059542
-0.476298214572092 -0.0331766954522941 0.762880371658568
-0.150204912759191 0.889920064404112 0.313751766465085
-0.273348893379305 0.810567700470404 0.387971961011594
-0.878729163485055 0.427851559244291 0.33649243222879
-0.0955825056295619 -0.509251641572857 0.560295058493325
4.97865194388939e-16 -0.418911270317898 0.49841086955792
4.16418824906342e-16 -0.54525415860919 0.44704581575364
3.34893096933225e-17 1.0406736416013 0.113690039040793
-0.600848791480537 0.803062311656523 0.266811891135732
-0.865909194805076 -0.559059382755681 0.261040826686942
-0.408699572840439 -0.908367048180773 0.269098677784173
-1.051375 -0.4319754 0
-0.9229474 0.6747458 0
-0.559559889365039 0.437085714389126 0.587748601116118
-0.825230048527946 -0.0550358529216458 0.553746683921076
-0.875719091323476 0.0632394787585839 0.490489150968218
-0.131199612266662 0.469717787416689 0.572214209347676
-0.231739930576094 -0.811074920826046 0.408049345035356
-0.37382897806593 -0.829056072434158 0.382964165579279
-0.340869076608551 0.0678593532432434 0.759511266705933
-0.542555098972564 -0.623612115250054 0.52751202984394
-0.8900624 -0.6997382 0
-1.03573901008935 0.0697738499099352 0.24879704146617
-0.728393657122547 0.705689902012239 0.262931599819484
-0.341509588202186 1.0310258807314 0.112984806507557
-1.0735236 0.3847164 0
-0.929467760347615 0.292357638269006 0.349321846829786
-0.795627466402188 0.195986975158393 0.543595808724304
-0.404173123336536 0.433239887675047 0.626668853476988
-0.579908944010381 0.570122727688766 0.494123702087571
-0.456270538791641 -0.173917956284126 0.762391113210532
-0.312743887250153 -0.237739441367252 0.753357615018025
-0.476896550971299 0.97655232892458 0.119518153497659
-0.789365782517423 0.470605752318936 0.408684780876507
-0.257945896513625 0.207207115526103 0.710134135458508
-1.07370412250887 -0.181316633540557 0.141706045568636
-0.811966665154616 0.570816257683252 0.304159393601382
1.24757997770003e-16 -1.02654861931262 0.109782506804787
-0.084680499231771 1.08570601896043 0.0830405504675309
-0.51524584541078 -0.809428789675725 0.345597737742605
-0.6939476 0.9135276 0
-0.486196759791818 -0.528863475538045 0.621924821502662
-0.578277232324067 -0.40387130617122 0.654495007625776
-0.415429200372011 -0.299444258879019 0.740373743291513
-0.221119731744271 -0.584864631343514 0.584838713898656
-0.453243650059376 0.794446368887849 0.363443308459253
-0.505954442836234 0.322582320939427 0.66286968115501
-0.744738514147273 -0.15930024067043 0.620897889566503
-0.148307991167294 0.321875123416759 0.636082600585855
-0.4359018 1.0595146 0
-0.0870738647398439 -0.235837220660523 0.647870473935498
-0.696205 -0.893323 0
-0.125433560000002 0.758447960573612 0.413686921865055
-0.192416361722382 -0.312765124164234 0.697306854323437
-0.629393838354428 -0.504533715700363 0.566476050210604
-0.102380717171702 -0.634886791545775 0.495045497985213
3.75320255026574e-16 -0.668384719955136 0.38341961025459
-0.329798045436462 0.890883027762246 0.302545077255292
-0.248092009401615 0.975765933880932 0.2194488101869
-0.574556725264909 0.195640676963958 0.688345223595166
-0.13679574 1.1386648 0
-0.860145713916559 -0.317998461862988 0.45049372134425
-0.2919328 1.1080794 0
-0.088652972026237 -0.374775044498503 0.61083933459326
-1.1374726 0.05403268 0
1.39559166330904e-16 0.799016272093283 0.322471956045563
-0.0898405451131426 -0.0970867288297768 0.668601557525736
-0.964193493602241 0.047152104204931 0.373653896608611
-0.201708145011094 -0.45392430565083 0.648567823508896
-0.278831719951965 0.527243773958946 0.577433160259107
1.89477161805067e-16 0.916465624805995 0.229339693865696
-0.14629426 -1.1206194 0
5.8450335935551e-16 -0.156124795020837 0.562371600088911
4.9163646426592e-16 0.384009387497147 0.537771488265146
5.93347700519759e-16 -0.0236679562838614 0.574730214420104
-0.336439889051551 -0.745005126912013 0.474711034673385
2.74617980527442e-16 0.663151252126246 0.411620203608378
3.74936598511521e-16 0.525864859565228 0.483626662182329
-0.807406 0.8114184 0
-0.796739 -0.8039796 0
-0.291275 -1.0909876 0
-0.825198798960477 0.71669804426542 0.122604061931649
0.703701291120734 0.587342551619728 0.398528251673977
0.695366668783866 0.444769552438286 0.507948803162507
0.254739185610695 0.415333306453469 0.627492413745501
0.332197881200171 -0.0918785875785017 0.771650656101316
0.661685944315013 -0.271128098998869 0.657856691999665
0.197576526314441 -0.168429552659755 0.729898271489331
0.12994087112159 -0.970070171031355 0.21917943248007
0.128587687132897 -1.06006403625029 0.102901774782536
0.464491835267808 -0.729717211407328 0.462408098145706
0.682998707153117 -0.825687062976584 0.158431821105892
0.651423828955998 -0.766669283424441 0.287740995559774
0.5513068 -0.9889662 0
0.444196232803513 -0.977736094709139 0.135915585824787
0.4175996 -1.0502842 0
0.235492525488651 0.711189708107955 0.462297497767556
0.41692514196793 0.20833251949907 0.72186089516799
0.331367887881428 0.321489618182703 0.680057222076058
0.145799432033479 0.616730119336892 0.508253747361568
0.598849859135984 0.901137633184817 0.135723292149378
0.358256088447026 0.730362870830055 0.442450358819955
0.592373534374131 0.698751073153051 0.382173529531027
0.709809445193586 0.814731771526115 0.144608124429966
1.03600463476838 -0.343280860484013 0.133070148580284
1.00516067988749 -0.254067549268772 0.253940243279566
1.01799913707192 -0.0893778508819367 0.283705991813259
0.9768688 -0.5761878 0
0.925198316829538 -0.0716389113051241 0.432375744405972
0.695662727545009 0.140159633515834 0.63978759514474
0.999631232753276 0.451332063575113 0.119265375872486
1.008569 0.5348692 0
0.912459273422466 0.515686356514268 0.216454646118305
0.841004365288186 0.637654554126605 0.196569007383247
0.896113662781098 0.189147473251388 0.43630848607772
0.974434319229655 0.164878428922 0.331921500897786
1.085314572569 0.140246927692134 0.127880227969533
1.1175254 0.2224188 0
0.791578131152423 -0.764742929643911 0.0940428801349561
1.01842310960294 0.225962662902487 0.235609973344009
0.97261333560871 0.372893896312941 0.23406108130012
0.483880337263388 0.0977876054994845 0.74135025893491
0.447883946533367 -0.412167422399057 0.69550528578546
0.311999395573906 -0.380770748179434 0.711222025148348
0.76465700716362 -0.442666390349464 0.49172475599388
0.319366788049952 0.633491411825447 0.517137377677886
0.539312636637463 -0.279775302233138 0.718716537176231
0.954344860210923 -0.410849471408547 0.247464793325922
0.969207646983752 -0.496746921321911 0.134935192124909
0.107519358800094 -0.754610570423431 0.414323660375487
0.207356407592157 -0.026664311639841 0.73932757607118
0.604856862694914 -0.700360815225235 0.411803366533237
0.609074700821607 -0.128036324316193 0.716787596315045
1.1038052 -0.2751888 0
0.291050255109094 -1.05015151944951 0.0884016516328485
0.736797146008367 -0.648123706667874 0.34049396775163
0.481927012088535 0.889329676272236 0.241878885315941
1.1330362 -0.11069784 0
0.339264261686538 -0.513266642703654 0.650964593723683
0.37816469557112 0.956472395388365 0.204619808931445
0.675002077040257 0.302759393316043 0.598316582122631
0.815613953942325 0.332749706913254 0.468820951512497
1.05364322806198 0.300618098285791 0.123592596936203
0.771987683647076 -0.295291953598584 0.55960171781867
0.853597811350782 -0.184227017710121 0.506322469492103
0.789502730623929 -0.537194919077207 0.387567061623458
0.0931777011468728 0.0399634599795404 0.66865663181043
0.202661766839935 0.0964176383645058 0.720541588549852
0.588054804939348 -0.918517740611567 0.106700469559155
0.551001635980384 -0.87613569487267 0.222871674109604
1.08931290840395 -0.0229396829347103 0.140299513364787
0.115595090053552 0.996364527134693 0.196602047536457
0.682352788465822 -0.58195215696255 0.46345986878498
0.68798645967691 -0.387499729149047 0.591106853399933
0.574706 0.9918722 0
0.111016780708768 0.180697591177369 0.657627270639711
0.932114747596112 -0.325429141275406 0.341979154446689
0.943070302767711 -0.201561092150716 0.38085245533269
0.257530223499458 -0.90689180568883 0.30684168403768
0.281597114700799 -0.987870594022591 0.196155703950893
0.117387609103061 -0.868170445764109 0.321946512081935
0.713498111933235 -0.0200758255001814 0.651916008293838
0.786160591922764 0.0671456906165862 0.581985394213854
0.601644294454835 0.0393690013631485 0.71309380118979
0.866695310297424 -0.438981782853717 0.367240746405791
0.886641150848522 -0.633751714738117 0.127600258788715
0.778121432336859 -0.702174114720969 0.217312252261225
0.465951866746805 0.669858991670592 0.466429241549365
0.926722170269274 0.59738096935328 0.103412514377574
0.207445279095975 1.06077437164406 0.111632040851181
0.439993827805056 0.548656402778049 0.556834803612701
0.375862697967175 -0.640486757380816 0.565394452215213
0.225978028398459 -0.699998514897669 0.504145905059542
0.476298214572093 -0.0331766954522941 0.762880371658569
0.150204912759192 0.889920064404112 0.313751766465085
0.273348893379305 0.810567700470404 0.387971961011594
0.878729163485055 0.427851559244291 0.33649243222879
0.0955825056295629 -0.509251641572857 0.560295058493325
0.600848791480537 0.803062311656523 0.266811891135732
0.865909194805076 -0.559059382755682 0.261040826686942
0.40869957284044 -0.908367048180773 0.269098677784173
1.051375 -0.4319754 0
0.9229474 0.6747458 0
0.559559889365039 0.437085714389126 0.587748601116119
0.825230048527947 -0.0550358529216458 0.553746683921077
0.875719091323477 0.0632394787585839 0.490489150968219
0.131199612266663 0.46971778741669 0.572214209347676
0.231739930576095 -0.811074920826046 0.408049345035357
0.37382897806593 -0.829056072434158 0.382964165579279
0.340869076608553 0.0678593532432434 0.759511266705935
0.542555098972565 -0.623612115250054 0.52751202984394
0.8900624 -0.6997382 0
1.03573901008935 0.0697738499099352 0.24879704146617
0.728393657122547 0.705689902012239 0.262931599819484
0.341509588202186 1.0310258807314 0.112984806507557
1.0735236 0.3847164 0
0.929467760347616 0.292357638269006 0.349321846829787
0.795627466402188 0.195986975158393 0.543595808724304
0.404173123336536 0.433239887675048 0.626668853476989
0.579908944010381 0.570122727688766 0.494123702087571
0.456270538791643 -0.173917956284126 0.762391113210533
0.312743887250154 -0.237739441367252 0.753357615018025
0.476896550971299 0.97655232892458 0.119518153497659
0.789365782517423 0.470605752318936 0.408684780876507
0.257945896513626 0.207207115526104 0.710134135458509
1.07370412250887 -0.181316633540557 0.141706045568637
0.811966665154616 0.570816257683252 0.304159393601382
0.0846804992317712 1.08570601896043 0.0830405504675309
0.51524584541078 -0.809428789675725 0.345597737742605
0.6939476 0.9135276 0
0.48619675979182 -0.528863475538045 0.621924821502663
0.578277232324068 -0.40387130617122 0.654495007625777
0.415429200372012 -0.299444258879018 0.740373743291514
0.221119731744272 -0.584864631343514 0.584838713898656
0.453243650059377 0.794446368887849 0.363443308459254
0.505954442836235 0.322582320939427 0.662869681155011
0.744738514147273 -0.15930024067043 0.620897889566504
0.148307991167294 0.321875123416759 0.636082600585855
0.4359018 1.0595146 0
0.0870738647398452 -0.235837220660523 0.647870473935499
0 1.15 0
0.696205 -0.893323 0
0.125433560000002 0.758447960573612 0.413686921865055
0.192416361722383 -0.312765124164234 0.697306854323437
0.629393838354429 -0.504533715700363 0.566476050210605
0.102380717171702 -0.634886791545775 0.495045497985213
0.329798045436463 0.890883027762246 0.302545077255292
0.248092009401615 0.975765933880932 0.2194488101869
0.57455672526491 0.195640676963958 0.688345223595167
0.13679574 1.1386648 0
0.86014571391656 -0.317998461862988 0.450493721344251
0.2919328 1.1080794 0
0.0886529720262381 -0.374775044498503 0.61083933459326
1.1374726 0.05403268 0
0 -1.1327418 0
0.0898405451131439 -0.0970867288297768 0.668601557525736
0.964193493602241 0.047152104204931 0.373653896608611
0.201708145011095 -0.45392430565083 0.648567823508896
0.278831719951966 0.527243773958946 0.577433160259107
0.14629426 -1.1206194 0
5.66495621072491e-16 -0.289090264573641 0.537044293913067
5.77975931721319e-16 0.250427410872459 0.566066876174053
0.336439889051552 -0.745005126912013 0.474711034673385
2.64186811639046e-16 -0.788665368806603 0.307339367027047
0.807406 0.8114184 0
0.796739 -0.8039796 0
0.291275 -1.0909876 0
0.825198798960477 0.71669804426542 0.122604061931649
3 0 1 122
3 78 52 7
3 101 21 116
3 45 23 22
3 152 58 27
3 136 124 123
3 60 118 35
3 53 63 102
3 28 29 118
3 66 64 74
3 102 85 86
3 26 160 24
3 97 99 98
3 41 136 40
3 125 18 54
3 9 10 86
3 22 104 46
3 46 102 45
3 111 77 110
3 54 57 125
3 80 47 110
3 116 129 0
3 9 67 68
3 106 122 1
3 59 126 96
3 72 42 147
3 71 53 49
3 51 22 128
3 129 31 30
3 68 10 9
3 53 102 86
3 35 34 60
3 44 123 50
3 40 56 41
3 30 38 96
3 111 8 132
3 25 114 85
3 49 113 71
3 33 115 160
3 138 54 101
3 46 85 102
3 68 67 12
3 145 95 14
3 81 82 107
3 2 16 141
3 147 71 113
3 95 94 150
3 89 117 151
3 12 11 13
3 32 59 119
3 139 16 121
3 128 55 51
3 24 23 76
3 36 114 172
3 117 89 155
3 143 5 146
3 45 84 75
3 28 118 60
3 45 75 23
3 22 51 104
3 60 34 37
3 88 28 30
3 145 169 158
3 122 106 90
3 94 151 150
3 162 17 43
3 71 147 42
3 140 107 62
3 112 39 93
3 103 12 78
3 64 48 159
3 4 72 135
3 151 94 70
3 68 12 103
3 86 85 36
3 154 62 76
3 31 129 116
3 37 34 115
3 161 97 156
3 149 148 47
3 83 50 93
3 121 2 162
3 81 107 140
3 1 126 59
3 20 122 87
3 163 94 158
3 115 33 37
3 32 120 59
3 89 131 153
3 89 153 155
3 29 88 105
3 23 24 128
3 154 61 62
3 128 24 69
3 125 57 117
3 34 35 157
3 327 7 164
3 63 42 84
3 70 100 131
3 106 139 121
3 43 19 87
3 14 95 19
3 93 3 112
3 108 107 82
3 141 74 334
3 64 65 74
3 6 79 80
3 156 143 146
3 138 20 87
3 26 107 108
3 0 20 116
3 8 111 168
3 119 38 37
3 129 96 126
3 108 160 26
3 10 53 86
3 132 103 111
3 62 26 76
3 117 155 142
3 119 33 32
3 144 9 36
3 86 36 9
3 76 75 154
3 55 128 69
3 29 28 88
3 130 6 7
3 23 75 76
3 53 10 49
3 164 7 52
3 114 36 85
3 45 22 46
3 25 85 46
3 4 44 50
3 152 39 15
3 121 162 90
3 137 97 161
3 139 15 16
3 19 138 87
3 150 54 138
3 333 143 156
3 141 334 166
3 107 26 62
3 115 24 160
3 136 41 124
3 1 59 58
3 42 72 61
3 138 19 95
3 77 6 80
3 113 49 8
3 78 6 77
3 7 6 78
3 120 108 82
3 70 163 100
3 127 66 74
3 151 70 89
3 84 154 75
3 115 69 24
3 42 61 154
3 67 11 12
3 10 68 132
3 123 124 3
3 161 146 41
3 97 148 99
3 143 165 159
3 139 58 152
3 156 98 333
3 113 8 91
3 120 58 59
3 53 71 63
3 92 91 168
3 4 140 61
3 62 61 140
3 27 82 81
3 57 150 151
3 119 96 38
3 108 32 160
3 24 76 26
3 103 77 111
3 154 84 42
3 327 130 7
3 49 132 8
3 69 34 157
3 30 28 38
3 125 73 18
3 9 144 67
3 103 132 68
3 141 16 127
3 34 69 115
3 45 102 84
3 128 22 23
3 83 152 27
3 3 93 123
3 109 166 170
3 43 90 162
3 44 40 136
3 148 97 137
3 92 47 148
3 148 137 92
3 20 138 101
3 8 168 91
3 32 108 120
3 163 70 94
3 101 116 20
3 16 2 121
3 48 64 66
3 52 78 12
3 52 12 13
3 80 110 77
3 80 79 336
3 49 10 132
3 103 78 77
3 117 57 151
3 63 71 42
3 60 38 28
3 160 32 33
3 30 96 129
3 3 48 112
3 83 93 39
3 56 40 134
3 146 124 41
3 92 110 47
3 138 95 150
3 81 50 83
3 96 119 59
3 167 159 165
3 94 95 145
3 44 135 40
3 112 66 127
3 0 129 126
3 134 147 113
3 27 120 82
3 141 166 109
3 73 133 18
3 72 4 61
3 97 98 156
3 142 73 125
3 125 117 142
3 88 174 105
3 37 33 119
3 67 144 11
3 84 102 63
3 54 150 57
3 333 165 143
3 87 90 43
3 123 44 136
3 113 91 134
3 134 40 135
3 137 91 92
3 127 16 15
3 5 159 48
3 2 109 162
3 159 5 143
3 161 41 56
3 90 87 122
3 39 112 15
3 4 135 44
3 120 27 58
3 168 110 92
3 145 158 94
3 168 111 110
3 112 48 66
3 162 109 17
3 91 137 56
3 50 140 4
3 146 5 124
3 27 81 83
3 56 137 161
3 50 81 140
3 14 19 43
3 127 15 112
3 58 106 1
3 167 64 159
3 91 56 134
3 147 134 135
3 17 14 43
3 139 106 58
3 2 141 109
3 83 39 152
3 3 5 48
3 15 139 152
3 161 156 146
3 106 121 90
3 70 131 89
3 50 123 93
3 153 131 313
3 135 72 147
3 127 74 141
3 122 20 0
3 17 170 169
3 3 124 5
3 21 171 174
3 145 14 17
3 313 131 100
3 74 65 334
3 1 0 126
3 88 30 31
3 47 336 149
3 47 80 336
3 17 169 145
3 79 6 130
3 148 149 99
3 60 37 38
3 65 64 167
3 69 157 55
3 170 17 109
3 25 46 104
3 101 54 18
3 172 144 36
3 52 13 173
3 21 101 18
3 21 18 133
3 174 31 116
3 173 164 52
3 88 31 174
3 21 133 171
3 174 116 21
3 174 171 105
3 175 292 176
3 252 182 227
3 271 286 196
3 220 197 198
3 321 202 233
3 305 293 294
3 235 210 288
3 228 272 238
3 203 288 204
3 240 248 239
3 272 259 258
3 201 199 329
3 270 98 99
3 216 215 305
3 295 229 193
3 184 259 185
3 197 221 274
3 221 220 272
3 281 280 251
3 229 295 232
3 253 280 222
3 286 175 299
3 184 242 241
3 276 176 292
3 234 269 296
3 246 317 217
3 245 224 228
3 226 298 197
3 299 205 206
3 242 184 185
3 228 259 272
3 210 235 209
3 219 225 293
3 215 216 231
3 205 269 213
3 281 301 183
3 200 258 284
3 224 245 283
3 208 329 285
3 307 271 229
3 221 272 258
3 242 187 241
3 315 189 268
3 254 277 255
3 177 310 191
3 317 283 245
3 268 319 267
3 262 320 287
3 187 188 186
3 207 289 234
3 308 291 191
3 298 226 230
3 199 250 198
3 211 338 284
3 287 324 262
3 312 316 180
3 220 249 257
3 203 235 288
3 220 198 249
3 197 274 226
3 235 212 209
3 261 205 203
3 315 158 169
3 292 263 276
3 267 319 320
3 331 218 192
3 245 217 317
3 309 237 277
3 282 266 214
3 273 252 187
3 239 328 223
3 179 304 246
3 320 244 267
3 242 273 187
3 259 211 258
3 323 250 237
3 206 286 299
3 212 285 209
3 330 325 270
3 149 222 318
3 256 266 225
3 291 331 177
3 254 309 277
3 176 234 296
3 195 260 292
3 163 158 267
3 285 212 208
3 207 234 290
3 262 322 300
3 262 324 322
3 204 275 261
3 198 298 199
3 323 237 236
3 298 243 199
3 295 287 232
3 209 326 210
3 327 332 182
3 238 257 217
3 244 300 100
3 276 291 308
3 218 260 194
3 189 194 268
3 266 282 178
3 278 255 277
3 310 334 248
3 239 248 65
3 181 253 79
3 325 316 312
3 307 260 195
3 201 278 277
3 175 286 195
3 183 335 281
3 289 212 213
3 299 296 269
3 278 201 329
3 185 259 228
3 301 281 273
3 237 250 201
3 287 311 324
3 289 207 208
3 314 211 184
3 259 184 211
3 250 323 249
3 230 243 298
3 204 261 203
3 130 182 181
3 198 250 249
3 228 224 185
3 332 227 182
3 284 258 211
3 220 221 197
3 200 221 258
3 179 225 219
3 321 190 214
3 291 263 331
3 306 330 270
3 308 191 190
3 194 260 307
3 319 307 229
3 333 325 312
3 310 166 334
3 277 237 201
3 285 329 199
3 305 294 216
3 176 233 234
3 217 236 246
3 307 268 194
3 251 253 181
3 283 183 224
3 252 251 181
3 182 252 181
3 290 255 278
3 244 100 163
3 297 248 240
3 320 262 244
3 257 249 323
3 285 199 243
3 217 323 236
3 241 187 186
3 185 301 242
3 293 178 294
3 330 216 316
3 270 99 318
3 312 328 165
3 308 321 233
3 325 333 98
3 283 264 183
3 290 234 233
3 228 238 245
3 265 335 264
3 179 236 309
3 237 309 236
3 202 254 255
3 232 320 319
3 289 213 269
3 278 329 207
3 199 201 250
3 273 281 251
3 323 217 257
3 327 182 130
3 224 183 301
3 243 326 209
3 205 213 203
3 295 193 247
3 184 241 314
3 273 242 301
3 310 297 191
3 209 285 243
3 220 257 272
3 298 198 197
3 256 202 321
3 178 293 266
3 279 170 166
3 218 331 263
3 219 305 215
3 318 306 270
3 265 318 222
3 318 265 306
3 195 271 307
3 183 264 335
3 207 290 278
3 163 267 244
3 271 195 286
3 191 291 177
3 223 240 239
3 227 187 252
3 227 188 187
3 253 251 280
3 253 336 79
3 224 301 185
3 273 251 252
3 287 320 232
3 238 217 245
3 235 203 213
3 329 208 207
3 205 299 269
3 178 282 223
3 256 214 266
3 231 303 215
3 316 216 294
3 265 222 280
3 307 319 268
3 254 256 225
3 269 234 289
3 167 165 328
3 267 315 268
3 219 215 304
3 282 297 240
3 175 296 299
3 303 283 317
3 202 255 290
3 310 279 166
3 247 193 302
3 246 236 179
3 270 325 98
3 311 295 247
3 295 311 287
3 261 275 340
3 212 289 208
3 241 186 314
3 257 238 272
3 229 232 319
3 333 312 165
3 260 218 263
3 293 305 219
3 283 303 264
3 303 304 215
3 306 265 264
3 297 190 191
3 180 223 328
3 177 331 279
3 328 312 180
3 330 231 216
3 263 292 260
3 214 190 282
3 179 219 304
3 290 233 202
3 335 265 280
3 315 267 158
3 335 280 281
3 282 240 223
3 331 192 279
3 264 231 306
3 225 179 309
3 316 294 180
3 202 256 254
3 231 330 306
3 225 309 254
3 189 218 194
3 297 282 190
3 233 176 276
3 167 328 239
3 264 303 231
3 317 304 303
3 192 218 189
3 308 233 276
3 177 279 310
3 256 321 214
3 178 223 180
3 190 321 308
3 330 316 325
3 276 263 291
3 244 262 300
3 225 266 293
3 322 313 300
3 304 317 246
3 297 310 248
3 292 175 195
3 192 169 170
3 178 180 294
3 196 340 337
3 315 192 189
3 313 100 300
3 248 334 65
3 176 296 175
3 261 206 205
3 222 149 336
3 222 336 253
3 192 315 169
3 79 130 181
3 318 99 149
3 235 213 212
3 65 167 239
3 243 230 326
3 170 279 192
3 200 274 221
3 271 193 229
3 338 211 314
3 227 339 188
3 196 193 271
3 196 302 193
3 340 286 206
3 339 227 332
3 261 340 206
3 196 337 302
3 340 196 286
3 340 275 337
