OFF
341 634 0
-0.880901947626202 0.733905302363716 0.499485012405767
-0.870215746558844 0.555745002872884 0.635777138861022
-0.318297920782029 0.519128158223007 0.785164751581889
-0.416006162295095 -0.113271962326129 0.96061730004982
-0.826789211296847 -0.336368856064678 0.819904990159441
-0.248155145981837 -0.20870786382242 0.909559148530732
-0.162156108252858 -1.21145920202283 0.274457250329661
-0.160330711124143 -1.32449209536317 0.129049550919204
-0.581145910240445 -0.908664199281047 0.578266381358777
-0.854566831519099 -1.03148533967415 0.198489136433639
-0.815276613669012 -0.956798496638404 0.360264721482197
-0.6891335 -1.23620775 0
-0.555752568802204 -1.22137895340971 0.17070539662291
-0.5219995 -1.31285525 0
-0.29422060428117 0.88817108968538 0.5786772343628
-0.52149293472479 0.260381740070028 0.900989872506985
-0.414400898381042 0.401795466671781 0.85015037625107
-0.182048015008805 0.770576367382674 0.635870496123829
-0.749238574627034 1.12647805451733 0.17037761070248
-0.447946942177445 0.912159423078217 0.554489770240236
-0.741487988068804 0.873074432860677 0.479366648780269
-0.88812282880996 1.01852700804744 0.181438355045947
-1.29592086768935 -0.42890161701459 0.16662945644548
-1.25767474073177 -0.317094771363121 0.317750000150038
-1.27381411088345 -0.111212421800338 0.354997275635654
-1.221086 -0.72023475 0
-1.1574018334763 -0.0887209402950903 0.540398630016086
-0.86979457729982 0.175458942507114 0.798665195457737
-1.25041327654283 0.564298022910552 0.149449017233826
-1.26071125 0.6685865 0
-1.14190169002067 0.644659990166257 0.271264045740766
-1.05253650478011 0.796985569434268 0.246507883519027
-1.12120871875452 0.236729306169148 0.545690713892886
-1.21934060066019 0.206467563171652 0.415361935912488
-1.35759514355999 0.175535107331948 0.160151546605885
-1.39690675 0.2780235 0
-0.990013602796618 -0.955746660927229 0.117764140359641
-1.27435870937863 0.282731769251476 0.295007698349259
-1.21709748351968 0.466303735035684 0.293185625707655
-0.605003612929114 0.122615190824471 0.924136421436189
-0.560048617010712 -0.511235370957153 0.866373355513719
-0.390697528047159 -0.472351491624815 0.885997257261128
-0.956297182545004 -0.551087129689389 0.6140870369362
-0.399167482966413 0.79131944770388 0.647767818571761
-0.673964657723243 -0.346703871486437 0.894893537857943
-1.19409875080006 -0.512896418802022 0.309665076609666
-1.21237434727103 -0.620697767999653 0.168985259191911
-0.134659599501406 -0.941586247715009 0.518097714610345
-0.260360643386046 -0.0323316785468699 0.921205474202488
-0.756873521641882 -0.872804883114706 0.515045196508407
-0.761007469584457 -0.158210236473814 0.892913560932206
-1.3797565 -0.343986 0
-0.363868831004249 -1.31203980282936 0.111308656484693
-0.922000447321951 -0.808488844546579 0.425935382949818
-0.60301427498059 1.11141295840932 0.30363448858171
-1.41629525 -0.1383723 0
-0.424560996642677 -0.637400104155885 0.811722418608021
-0.472988325822729 1.19517076199135 0.256806315776979
-0.844440377358055 0.378277932881567 0.747906160938878
-1.02059670567428 0.415974517993775 0.586559605942242
-1.31796735541071 0.375952876674965 0.154820098697142
-0.965066203574586 -0.367032664138488 0.698298442234095
-1.06741271451534 -0.228932478654985 0.632277672560129
-0.987763276225458 -0.669747422390518 0.484521989567745
-0.117215666452457 0.0505818561602047 0.834824515298843
5.7678629207152e-16 0.141665615188436 0.721089430045942
-0.254179719736716 0.120889810590154 0.898556809403279
-0.735637268695926 -1.14765930589014 0.13381473070199
-0.689592946682886 -1.09387129375751 0.279428595640342
-1.36265936080435 -0.0284205096518806 0.175702103632865
-0.144279200909624 1.24517079313785 0.245788057441541
-0.853572687084617 -0.724815326390606 0.579111108652779
-0.859968270273205 -0.48151648164453 0.737307630083598
-0.7183825 1.23984025 0
-0.139012451439592 0.226202106774646 0.821549443498135
-1.16619443116261 -0.405827080981343 0.427632625707725
-1.17984219753759 -0.251078238023454 0.476130798715803
-0.3219347526134 -1.13124408675055 0.384666240274154
-0.35205084052005 -1.2332898478817 0.246466059017921
1.75796841730411e-16 -1.13242824896216 0.273924904999474
-0.146722573505117 -1.08373317441061 0.402772111197393
-0.891720054013749 -0.0240239977576107 0.813104738031236
-0.982984235208971 0.0845220766009074 0.726642714586321
-0.751955587934177 0.0499717161620087 0.88893272690344
-1.08433043769062 -0.547383214770843 0.459154879607636
-1.10903934984626 -0.791976091281779 0.159799794588847
-0.973631285820835 -0.87695139302439 0.272060302435608
-0.58295569088748 0.836754235758231 0.584751142247083
-1.15923502518003 0.746705957774866 0.129647052867798
-0.259194654335318 1.32561219813935 0.139966067511932
-0.550376992695558 0.6854005982237 0.697521365273622
-0.470189713745441 -0.796486479656719 0.706057128943222
-0.282833150255338 -0.871680468495629 0.630052882192382
-0.595451933032455 -0.0402553109673528 0.949958959547565
-0.187536303395886 1.11167167768183 0.392411916529842
-0.341576671279549 1.01218094393763 0.485969142178509
-1.09980581015733 0.534890085251964 0.421421614198328
-0.119985387278852 -0.634768567605075 0.700099765120238
6.02018902228536e-16 -0.523707795076298 0.623728233263909
5.26876939225126e-16 -0.681948171872762 0.559629240169836
9.61314833072315e-17 1.30158499457757 0.141623889479201
-0.752038144941866 1.00372339916301 0.334860330742139
-1.08350427006736 -0.697958610972581 0.326652590937086
-0.511447409758671 -1.13340976842808 0.337630071975262
-1.31421875 -0.53996925 0
-1.15368425 0.84343225 0
-0.700157344004637 0.546003901662175 0.735525250739955
-1.0318110065258 -0.0677344448316556 0.691324850682162
-1.09539426303791 0.0796265736002225 0.612908573839995
-0.163669257770046 0.587280609888165 0.715988508930204
-0.289784057621346 -1.01093350362116 0.510629561472202
-0.467719454355262 -1.03324391646896 0.479659950559913
-0.426668502794458 0.0853351547243707 0.946398603287631
-0.678627383905683 -0.77586441177921 0.65887957687356
-1.112578 -0.87467275 0
-1.29600380315741 0.0876443219771193 0.311417476988277
-0.911813589632684 0.882033064321621 0.329862983435132
-0.427045780151683 1.288538362203 0.141868977956671
-1.3419045 0.4808955 0
-1.16316001623289 0.365653171892237 0.43727310823965
-0.995222631350552 0.245136409690771 0.679334422883549
-0.505522543709441 0.541263711611493 0.784257498855756
-0.725757598710384 0.712239816193246 0.619132717716645
-0.570478043606258 -0.2151025707251 0.948876750941252
-0.391772965882673 -0.294499475905243 0.937895292750926
-0.596548452864294 1.22060658337115 0.150116363672569
-0.987991467407354 0.588164994290734 0.511774752516178
-0.322809564614331 0.259083430427956 0.886546113557207
-1.34312458473202 -0.226452210904342 0.177448606319432
-1.0164075534643 0.713425286022216 0.381235174253138
1.50214288617967e-16 -1.28379194544318 0.136952397775664
-0.105569024591595 1.35711352946386 0.103772036877045
-0.644871111332023 -1.00936062813693 0.432831988849022
-0.8674345 1.1419095 0
-0.607954010508686 -0.656930582378349 0.775706087815595
-0.722736567244491 -0.501309505407775 0.815721545522743
-0.519607608668961 -0.371005379094034 0.921575024824552
-0.276909510647826 -0.727650424426041 0.730186231213834
-0.567077884164921 0.992493274077805 0.455972913146551
-0.632949120572634 0.402950963056192 0.828547254611272
-0.930729052774984 -0.197418787279286 0.774391885562075
-0.185152207268525 0.402593792678711 0.795461767654371
-0.54487725 1.32439325 0
-0.109529488880173 -0.293420764802334 0.80900310659093
-0.87025625 -1.11665375 0
-0.156739399802773 0.94744000257717 0.517219023333774
-0.241514064324621 -0.388410696145492 0.869400542891033
-0.786959978888243 -0.627313352320977 0.706940458740511
-0.128414391007026 -0.791789707462717 0.618787076657801
4.4222100299369e-16 -0.836148419682485 0.480073119584635
-0.412331753459924 1.11283535729613 0.379356111009045
-0.310037265822286 1.21907698855568 0.27502639810856
-0.718502768364161 0.244538221214585 0.859225940500266
-0.170994675 1.423331 0
-1.075816970968 -0.395991234259767 0.562812842801307
-0.364916 1.38509925 0
-0.111390319249657 -0.466839258257286 0.7630082755711
-1.42184075 0.06754085 0
1.91659184672883e-16 1.00008215764119 0.403004057826973
-0.113127123982413 -0.120325049396601 0.834671264366156
-1.20642813355676 0.0595064895965875 0.467331885872641
-0.252891214283445 -0.564289275126731 0.809119374519399
-0.348386352299935 0.658788721128754 0.723035053012757
1.5212652614617e-16 1.14673784546909 0.286294471968337
-0.182867825 -1.40077425 0
6.1331250803357e-16 -0.194772707924868 0.703578661583674
3.95092310875028e-16 0.480589493536735 0.671957093114619
6.36242139516688e-16 -0.0291037713234009 0.719102104736184
-0.420902561372014 -0.927601789566941 0.593603350316084
2.50528732745783e-16 0.83007900331958 0.514684165045012
3.00911836141957e-16 0.658187012960151 0.604543726644421
-1.0092575 1.014273 0
-0.99592375 -1.0049745 0
-0.36409375 -1.3637345 0
-1.03238235170499 0.895924894836983 0.153783238604879
0.880901947626203 0.733905302363716 0.499485012405767
0.870215746558845 0.555745002872885 0.635777138861023
0.31829792078203 0.519128158223007 0.785164751581889
0.416006162295096 -0.113271962326129 0.960617300049821
0.826789211296848 -0.336368856064678 0.819904990159442
0.248155145981839 -0.20870786382242 0.909559148530733
0.162156108252859 -1.21145920202283 0.274457250329661
0.160330711124143 -1.32449209536317 0.129049550919204
0.581145910240446 -0.908664199281047 0.578266381358778
0.8545668315191 -1.03148533967415 0.198489136433639
0.815276613669013 -0.956798496638404 0.360264721482197
0.6891335 -1.23620775 0
0.555752568802204 -1.22137895340971 0.17070539662291
0.5219995 -1.31285525 0
0.294220604281171 0.888171089685381 0.5786772343628
0.521492934724791 0.260381740070029 0.900989872506986
0.414400898381043 0.401795466671781 0.850150376251071
0.182048015008806 0.770576367382674 0.635870496123829
0.749238574627034 1.12647805451733 0.17037761070248
0.447946942177445 0.912159423078218 0.554489770240236
0.741487988068805 0.873074432860678 0.479366648780269
0.88812282880996 1.01852700804744 0.181438355045947
1.29592086768936 -0.42890161701459 0.16662945644548
1.25767474073177 -0.317094771363121 0.317750000150038
1.27381411088345 -0.111212421800338 0.354997275635655
1.221086 -0.72023475 0
1.1574018334763 -0.0887209402950903 0.540398630016087
0.869794577299821 0.175458942507114 0.798665195457738
1.25041327654283 0.564298022910552 0.149449017233827
1.26071125 0.6685865 0
1.14190169002067 0.644659990166257 0.271264045740767
1.05253650478011 0.796985569434268 0.246507883519027
1.12120871875452 0.236729306169148 0.545690713892887
1.21934060066019 0.206467563171652 0.415361935912489
1.35759514355999 0.175535107331948 0.160151546605885
1.39690675 0.2780235 0
0.990013602796619 -0.955746660927229 0.117764140359641
1.27435870937863 0.282731769251476 0.295007698349259
1.21709748351968 0.466303735035685 0.293185625707655
0.605003612929115 0.122615190824471 0.924136421436191
0.560048617010714 -0.511235370957153 0.86637335551372
0.39069752804716 -0.472351491624815 0.885997257261128
0.956297182545005 -0.55108712968939 0.6140870369362
0.399167482966414 0.791319447703881 0.647767818571761
0.673964657723245 -0.346703871486437 0.894893537857944
1.19409875080006 -0.512896418802022 0.309665076609666
1.21237434727103 -0.620697767999653 0.168985259191911
0.134659599501407 -0.94158624771501 0.518097714610345
0.260360643386047 -0.0323316785468699 0.921205474202489
0.756873521641883 -0.872804883114707 0.515045196508407
0.761007469584459 -0.158210236473814 0.892913560932207
1.3797565 -0.343986 0
0.363868831004249 -1.31203980282936 0.111308656484693
0.922000447321952 -0.808488844546579 0.425935382949818
0.60301427498059 1.11141295840932 0.30363448858171
1.41629525 -0.1383723 0
0.424560996642679 -0.637400104155885 0.811722418608021
0.472988325822729 1.19517076199135 0.256806315776979
0.844440377358056 0.378277932881567 0.747906160938879
1.02059670567428 0.415974517993775 0.586559605942243
1.31796735541071 0.375952876674965 0.154820098697142
0.965066203574587 -0.367032664138488 0.698298442234095
1.06741271451534 -0.228932478654985 0.63227767256013
0.987763276225459 -0.669747422390518 0.484521989567745
0.117215666452459 0.0505818561602047 0.834824515298843
0.254179719736718 0.120889810590154 0.89855680940328
0.735637268695926 -1.14765930589014 0.13381473070199
0.689592946682887 -1.09387129375751 0.279428595640342
1.36265936080435 -0.0284205096518806 0.175702103632865
0.144279200909624 1.24517079313785 0.245788057441541
0.853572687084618 -0.724815326390606 0.579111108652779
0.859968270273206 -0.48151648164453 0.737307630083599
0.7183825 1.23984025 0
0.139012451439594 0.226202106774646 0.821549443498136
1.16619443116261 -0.405827080981343 0.427632625707725
1.17984219753759 -0.251078238023454 0.476130798715804
0.3219347526134 -1.13124408675055 0.384666240274155
0.35205084052005 -1.2332898478817 0.246466059017921
0.146722573505118 -1.08373317441061 0.402772111197393
0.89172005401375 -0.0240239977576106 0.813104738031237
0.982984235208972 0.0845220766009076 0.726642714586322
0.751955587934178 0.0499717161620089 0.888932726903441
1.08433043769062 -0.547383214770844 0.459154879607636
1.10903934984626 -0.791976091281778 0.159799794588847
0.973631285820836 -0.87695139302439 0.272060302435608
0.582955690887481 0.836754235758231 0.584751142247084
1.15923502518003 0.746705957774866 0.129647052867799
0.259194654335318 1.32561219813934 0.139966067511932
0.550376992695559 0.6854005982237 0.697521365273622
0.470189713745442 -0.796486479656719 0.706057128943222
0.282833150255339 -0.871680468495629 0.630052882192382
0.595451933032456 -0.0402553109673528 0.949958959547567
0.187536303395887 1.11167167768183 0.392411916529842
0.34157667127955 1.01218094393763 0.485969142178509
1.09980581015733 0.534890085251964 0.421421614198328
0.119985387278853 -0.634768567605076 0.700099765120238
0.752038144941866 1.00372339916301 0.334860330742139
1.08350427006736 -0.697958610972582 0.326652590937087
0.511447409758671 -1.13340976842808 0.337630071975262
1.31421875 -0.53996925 0
1.15368425 0.84343225 0
0.700157344004637 0.546003901662175 0.735525250739956
1.0318110065258 -0.0677344448316555 0.691324850682163
1.09539426303791 0.0796265736002226 0.612908573839996
0.163669257770048 0.587280609888165 0.715988508930204
0.289784057621347 -1.01093350362116 0.510629561472202
0.467719454355262 -1.03324391646896 0.479659950559913
0.42666850279446 0.0853351547243708 0.946398603287632
0.678627383905684 -0.77586441177921 0.65887957687356
1.112578 -0.87467275 0
1.29600380315741 0.0876443219771194 0.311417476988277
0.911813589632685 0.882033064321621 0.329862983435132
0.427045780151683 1.288538362203 0.141868977956671
1.3419045 0.4808955 0
1.16316001623289 0.365653171892237 0.437273108239651
0.995222631350553 0.245136409690771 0.67933442288355
0.505522543709442 0.541263711611493 0.784257498855756
0.725757598710385 0.712239816193246 0.619132717716645
0.570478043606259 -0.2151025707251 0.948876750941254
0.391772965882674 -0.294499475905243 0.937895292750927
0.596548452864294 1.22060658337115 0.150116363672569
0.987991467407355 0.588164994290734 0.511774752516179
0.322809564614333 0.259083430427957 0.886546113557208
1.34312458473203 -0.226452210904342 0.177448606319432
1.0164075534643 0.713425286022216 0.381235174253139
0.105569024591595 1.35711352946386 0.103772036877045
0.644871111332024 -1.00936062813693 0.432831988849023
0.8674345 1.1419095 0
0.607954010508688 -0.656930582378349 0.775706087815596
0.722736567244493 -0.501309505407775 0.815721545522744
0.519607608668963 -0.371005379094034 0.921575024824553
0.276909510647827 -0.727650424426042 0.730186231213834
0.567077884164922 0.992493274077805 0.455972913146551
0.632949120572636 0.402950963056193 0.828547254611273
0.930729052774985 -0.197418787279286 0.774391885562076
0.185152207268526 0.402593792678711 0.795461767654371
0.54487725 1.32439325 0
0.109529488880174 -0.293420764802335 0.809003106590931
0 1.4375 0
0.87025625 -1.11665375 0
0.156739399802774 0.947440002577171 0.517219023333774
0.241514064324623 -0.388410696145493 0.869400542891034
0.786959978888244 -0.627313352320977 0.706940458740512
0.128414391007027 -0.791789707462717 0.618787076657801
0.412331753459924 1.11283535729613 0.379356111009045
0.310037265822287 1.21907698855568 0.27502639810856
0.718502768364162 0.244538221214586 0.859225940500267
0.170994675 1.423331 0
1.075816970968 -0.395991234259767 0.562812842801308
0.364916 1.38509925 0
0.111390319249658 -0.466839258257286 0.763008275571101
1.42184075 0.06754085 0
0 -1.41592725 0
0.113127123982414 -0.120325049396601 0.834671264366157
1.20642813355676 0.0595064895965876 0.467331885872641
0.252891214283446 -0.564289275126731 0.809119374519399
0.348386352299936 0.658788721128754 0.723035053012757
0.182867825 -1.40077425 0
6.22771643160412e-16 -0.361159631853368 0.671917124572022
4.99451838885491e-16 0.31358502901184 0.707650085704709
0.420902561372015 -0.927601789566941 0.593603350316084
2.64931805401322e-16 -0.986692925114158 0.384719351528371
1.0092575 1.014273 0
0.99592375 -1.0049745 0
0.36409375 -1.3637345 0
1.03238235170499 0.895924894836983 0.15378323860488
3 0 1 122
3 78 52 7
3 101 21 116
3 45 23 22
3 152 58 27
3 136 124 123
3 60 118 35
3 53 63 102
3 28 29 118
3 66 64 74
3 102 85 86
3 26 160 24
3 97 99 98
3 41 136 40
3 125 18 54
3 9 10 86
3 22 104 46
3 46 102 45
3 111 77 110
3 54 57 125
3 80 47 110
3 116 129 0
3 9 67 68
3 106 122 1
3 59 126 96
3 72 42 147
3 71 53 49
3 51 22 128
3 129 31 30
3 68 10 9
3 53 102 86
3 35 34 60
3 44 123 50
3 40 56 41
3 30 38 96
3 111 8 132
3 25 114 85
3 49 113 71
3 33 115 160
3 138 54 101
3 46 85 102
3 68 67 12
3 145 95 14
3 81 82 107
3 2 16 141
3 147 71 113
3 95 94 150
3 89 117 151
3 12 11 13
3 32 59 119
3 139 16 121
3 128 55 51
3 24 23 76
3 36 114 172
3 117 89 155
3 143 5 146
3 45 84 75
3 28 118 60
3 45 75 23
3 22 51 104
3 60 34 37
3 88 28 30
3 145 169 158
3 122 106 90
3 94 151 150
3 162 17 43
3 71 147 42
3 140 107 62
3 112 39 93
3 103 12 78
3 64 48 159
3 4 72 135
3 151 94 70
3 68 12 103
3 86 85 36
3 154 62 76
3 31 129 116
3 37 34 115
3 161 97 156
3 149 148 47
3 83 50 93
3 121 2 162
3 81 107 140
3 1 126 59
3 20 122 87
3 163 94 158
3 115 33 37
3 32 120 59
3 89 131 153
3 89 153 155
3 29 88 105
3 23 24 128
3 154 61 62
3 128 24 69
3 125 57 117
3 34 35 157
3 327 7 164
3 63 42 84
3 70 100 131
3 106 139 121
3 43 19 87
3 14 95 19
3 93 3 112
3 108 107 82
3 141 74 334
3 64 65 74
3 6 79 80
3 156 143 146
3 138 20 87
3 26 107 108
3 0 20 116
3 8 111 168
3 119 38 37
3 129 96 126
3 108 160 26
3 10 53 86
3 132 103 111
3 62 26 76
3 117 155 142
3 119 33 32
3 144 9 36
3 86 36 9
3 76 75 154
3 55 128 69
3 29 28 88
3 130 6 7
3 23 75 76
3 53 10 49
3 164 7 52
3 114 36 85
3 45 22 46
3 25 85 46
3 4 44 50
3 152 39 15
3 121 162 90
3 137 97 161
3 139 15 16
3 19 138 87
3 150 54 138
3 333 143 156
3 141 334 166
3 107 26 62
3 115 24 160
3 136 41 124
3 1 59 58
3 42 72 61
3 138 19 95
3 77 6 80
3 113 49 8
3 78 6 77
3 7 6 78
3 120 108 82
3 70 163 100
3 127 66 74
3 151 70 89
3 84 154 75
3 115 69 24
3 42 61 154
3 67 11 12
3 10 68 132
3 123 124 3
3 161 146 41
3 97 148 99
3 143 165 159
3 139 58 152
3 156 98 333
3 113 8 91
3 120 58 59
3 53 71 63
3 92 91 168
3 4 140 61
3 62 61 140
3 27 82 81
3 57 150 151
3 119 96 38
3 108 32 160
3 24 76 26
3 103 77 111
3 154 84 42
3 327 130 7
3 49 132 8
3 69 34 157
3 30 28 38
3 125 73 18
3 9 144 67
3 103 132 68
3 141 16 127
3 34 69 115
3 45 102 84
3 128 22 23
3 83 152 27
3 3 93 123
3 109 166 170
3 43 90 162
3 44 40 136
3 148 97 137
3 92 47 148
3 148 137 92
3 20 138 101
3 8 168 91
3 32 108 120
3 163 70 94
3 101 116 20
3 16 2 121
3 48 64 66
3 52 78 12
3 52 12 13
3 80 110 77
3 80 79 336
3 49 10 132
3 103 78 77
3 117 57 151
3 63 71 42
3 60 38 28
3 160 32 33
3 30 96 129
3 3 48 112
3 83 93 39
3 56 40 134
3 146 124 41
3 92 110 47
3 138 95 150
3 81 50 83
3 96 119 59
3 167 159 165
3 94 95 145
3 44 135 40
3 112 66 127
3 0 129 126
3 134 147 113
3 27 120 82
3 141 166 109
3 73 133 18
3 72 4 61
3 97 98 156
3 142 73 125
3 125 117 142
3 88 174 105
3 37 33 119
3 67 144 11
3 84 102 63
3 54 150 57
3 333 165 143
3 87 90 43
3 123 44 136
3 113 91 134
3 134 40 135
3 137 91 92
3 127 16 15
3 5 159 48
3 2 109 162
3 159 5 143
3 161 41 56
3 90 87 122
3 39 112 15
3 4 135 44
3 120 27 58
3 168 110 92
3 145 158 94
3 168 111 110
3 112 48 66
3 162 109 17
3 91 137 56
3 50 140 4
3 146 5 124
3 27 81 83
3 56 137 161
3 50 81 140
3 14 19 43
3 127 15 112
3 58 106 1
3 167 64 159
3 91 56 134
3 147 134 135
3 17 14 43
3 139 106 58
3 2 141 109
3 83 39 152
3 3 5 48
3 15 139 152
3 161 156 146
3 106 121 90
3 70 131 89
3 50 123 93
3 153 131 313
3 135 72 147
3 127 74 141
3 122 20 0
3 17 170 169
3 3 124 5
3 21 171 174
3 145 14 17
3 313 131 100
3 74 65 334
3 1 0 126
3 88 30 31
3 47 336 149
3 47 80 336
3 17 169 145
3 79 6 130
3 148 149 99
3 60 37 38
3 65 64 167
3 69 157 55
3 170 17 109
3 25 46 104
3 101 54 18
3 172 144 36
3 52 13 173
3 21 101 18
3 21 18 133
3 174 31 116
3 173 164 52
3 88 31 174
3 21 133 171
3 174 116 21
3 174 171 105
3 175 292 176
3 252 182 227
3 271 286 196
3 220 197 198
3 321 202 233
3 305 293 294
3 235 210 288
3 228 272 238
3 203 288 204
3 240 248 239
3 272 259 258
3 201 199 329
3 270 98 99
3 216 215 305
3 295 229 193
3 184 259 185
3 197 221 274
3 221 220 272
3 281 280 251
3 229 295 232
3 253 280 222
3 286 175 299
3 184 242 241
3 276 176 292
3 234 269 296
3 246 317 217
3 245 224 228
3 226 298 197
3 299 205 206
3 242 184 185
3 228 259 272
3 210 235 209
3 219 225 293
3 215 216 231
3 205 269 213
3 281 301 183
3 200 258 284
3 224 245 283
3 208 329 285
3 307 271 229
3 221 272 258
3 242 187 241
3 315 189 268
3 254 277 255
3 177 310 191
3 317 283 245
3 268 319 267
3 262 320 287
3 187 188 186
3 207 289 234
3 308 291 191
3 298 226 230
3 199 250 198
3 211 338 284
3 287 324 262
3 312 316 180
3 220 249 257
3 203 235 288
3 220 198 249
3 197 274 226
3 235 212 209
3 261 205 203
3 315 158 169
3 292 263 276
3 267 319 320
3 331 218 192
3 245 217 317
3 309 237 277
3 282 266 214
3 273 252 187
3 239 328 223
3 179 304 246
3 320 244 267
3 242 273 187
3 259 211 258
3 323 250 237
3 206 286 299
3 212 285 209
3 330 325 270
3 149 222 318
3 256 266 225
3 291 331 177
3 254 309 277
3 176 234 296
3 195 260 292
3 163 158 267
3 285 212 208
3 207 234 290
3 262 322 300
3 262 324 322
3 204 275 261
3 198 298 199
3 323 237 236
3 298 243 199
3 295 287 232
3 209 326 210
3 327 332 182
3 238 257 217
3 244 300 100
3 276 291 308
3 218 260 194
3 189 194 268
3 266 282 178
3 278 255 277
3 310 334 248
3 239 248 65
3 181 253 79
3 325 316 312
3 307 260 195
3 201 278 277
3 175 286 195
3 183 335 281
3 289 212 213
3 299 296 269
3 278 201 329
3 185 259 228
3 301 281 273
3 237 250 201
3 287 311 324
3 289 207 208
3 314 211 184
3 259 184 211
3 250 323 249
3 230 243 298
3 204 261 203
3 130 182 181
3 198 250 249
3 228 224 185
3 332 227 182
3 284 258 211
3 220 221 197
3 200 221 258
3 179 225 219
3 321 190 214
3 291 263 331
3 306 330 270
3 308 191 190
3 194 260 307
3 319 307 229
3 333 325 312
3 310 166 334
3 277 237 201
3 285 329 199
3 305 294 216
3 176 233 234
3 217 236 246
3 307 268 194
3 251 253 181
3 283 183 224
3 252 251 181
3 182 252 181
3 290 255 278
3 244 100 163
3 297 248 240
3 320 262 244
3 257 249 323
3 285 199 243
3 217 323 236
3 241 187 186
3 185 301 242
3 293 178 294
3 330 216 316
3 270 99 318
3 312 328 165
3 308 321 233
3 325 333 98
3 283 264 183
3 290 234 233
3 228 238 245
3 265 335 264
3 179 236 309
3 237 309 236
3 202 254 255
3 232 320 319
3 289 213 269
3 278 329 207
3 199 201 250
3 273 281 251
3 323 217 257
3 327 182 130
3 224 183 301
3 243 326 209
3 205 213 203
3 295 193 247
3 184 241 314
3 273 242 301
3 310 297 191
3 209 285 243
3 220 257 272
3 298 198 197
3 256 202 321
3 178 293 266
3 279 170 166
3 218 331 263
3 219 305 215
3 318 306 270
3 265 318 222
3 318 265 306
3 195 271 307
3 183 264 335
3 207 290 278
3 163 267 244
3 271 195 286
3 191 291 177
3 223 240 239
3 227 187 252
3 227 188 187
3 253 251 280
3 253 336 79
3 224 301 185
3 273 251 252
3 287 320 232
3 238 217 245
3 235 203 213
3 329 208 207
3 205 299 269
3 178 282 223
3 256 214 266
3 231 303 215
3 316 216 294
3 265 222 280
3 307 319 268
3 254 256 225
3 269 234 289
3 167 165 328
3 267 315 268
3 219 215 304
3 282 297 240
3 175 296 299
3 303 283 317
3 202 255 290
3 310 279 166
3 247 193 302
3 246 236 179
3 270 325 98
3 311 295 247
3 295 311 287
3 261 275 340
3 212 289 208
3 241 186 314
3 257 238 272
3 229 232 319
3 333 312 165
3 260 218 263
3 293 305 219
3 283 303 264
3 303 304 215
3 306 265 264
3 297 190 191
3 180 223 328
3 177 331 279
3 328 312 180
3 330 231 216
3 263 292 260
3 214 190 282
3 179 219 304
3 290 233 202
3 335 265 280
3 315 267 158
3 335 280 281
3 282 240 223
3 331 192 279
3 264 231 306
3 225 179 309
3 316 294 180
3 202 256 254
3 231 330 306
3 225 309 254
3 189 218 194
3 297 282 190
3 233 176 276
3 167 328 239
3 264 303 231
3 317 304 303
3 192 218 189
3 308 233 276
3 177 279 310
3 256 321 214
3 178 223 180
3 190 321 308
3 330 316 325
3 276 263 291
3 244 262 300
3 225 266 293
3 322 313 300
3 304 317 246
3 297 310 248
3 292 175 195
3 192 169 170
3 178 180 294
3 196 340 337
3 315 192 189
3 313 100 300
3 248 334 65
3 176 296 175
3 261 206 205
3 222 149 336
3 222 336 253
3 192 315 169
3 79 130 181
3 318 99 149
3 235 213 212
3 65 167 239
3 243 230 326
3 170 279 192
3 200 274 221
3 271 193 229
3 338 211 314
3 227 339 188
3 196 193 271
3 196 302 193
3 340 286 206
3 339 227 332
3 261 340 206
3 196 337 302
3 340 196 286
3 340 275 337
