OFF
341 634 0
-1.23622545129869 1.02678795705145 0.702299199222968
-1.2206679212284 0.777430116858955 0.892013083604646
-0.445418812249965 0.726307975008962 1.10063472363097
-0.584333910085023 -0.155070525695581 1.33591768463326
-1.15692153358737 -0.465203456031816 1.14253833554461
-0.350442418166118 -0.28813629346639 1.26711398429278
-0.22642689264904 -1.69337851353992 0.385223299384695
-0.22356760817779 -1.85284340904688 0.18151262883223
-0.814905712591405 -1.26423480002372 0.81025922658116
-1.19832642143192 -1.44272045350626 0.278968514147071
-1.14374654493757 -1.33608669880667 0.505831652419491
-0.9647869 -1.73069085 0
-0.779251979969376 -1.70812874457656 0.240832741440633
-0.7307993 -1.83799735 0
-0.411458990260505 1.24151574320636 0.812023288382541
-0.730933883930487 0.364230946076812 1.25812959124029
-0.580685386187761 0.562001732007276 1.18998419510439
-0.254331785778721 1.07782303631222 0.891330825311127
-1.05050778687639 1.57721896813671 0.240181267550087
-0.627332691777356 1.27512605491324 0.779514676622867
-1.04041124411541 1.22139840829252 0.674833895301336
-1.24538630644872 1.42621268100906 0.255559737045524
-1.8163842554039 -0.600028162942097 0.233950678882052
-1.76361789837368 -0.44287172785566 0.445680053642094
-1.78643721596456 -0.154596423535886 0.49792257386979
-1.7095204 -1.00832865 0
-1.62261223688875 -0.122411602477388 0.756621138118647
-1.21832197312436 0.24612794211101 1.11580247419535
-1.75263284422212 0.790321919882047 0.210054731722101
-1.76499575 0.9360211 0
-1.60178152247146 0.90265428543395 0.381364689086562
-1.47654139239173 1.11562277130882 0.346925650852531
-1.57229304213166 0.332033813036137 0.764812312816605
-1.71017776016032 0.28984746457685 0.5826589100019
-1.90282881729767 0.246238583018249 0.224887630974028
-1.95566945 0.3892329 0
-1.38729201557726 -1.33766143225849 0.165386790217716
-1.78722430163098 0.396428439903984 0.414175170956094
-1.70707522473531 0.653238282891008 0.411873660787035
-0.847450878080201 0.172400480250394 1.28795076095171
-0.784683204801819 -0.706722513159221 1.20609823021735
-0.548849401356043 -0.653115491229309 1.23349869314938
-1.34004934025328 -0.766509344120026 0.858664502550333
-0.558672464430948 1.10637702782442 0.909743714151081
-0.943284238255934 -0.478572528290242 1.24494324345285
-1.67448686123525 -0.716609156960153 0.434391817537525
-1.69932086293671 -0.868464381101051 0.23731632510802
-0.189225410682129 -1.31443833485288 0.725805793083126
-0.367318760278415 -0.0431179875264596 1.28327508063778
-1.06154712732658 -1.21596732363189 0.721877820452382
-1.06474838098997 -0.217387093542569 1.24315607149119
-1.9316591 -0.4815804 0
-0.509577601626594 -1.83532482315995 0.157609421916161
-1.29319808525667 -1.12818221015076 0.597201471101403
-0.8455923354476 1.55541853149611 0.428052546939348
-1.98281335 -0.19372122 0
-0.595704830495142 -0.882879235979765 1.13192979263422
-0.662808824590234 1.67232875260716 0.361953184821095
-1.18384274213398 0.529055386278134 1.04709298077498
-1.43143730701103 0.582382593086785 0.822507582053979
-1.84728082812334 0.526729896902573 0.21748725575324
-1.35146247747184 -0.509208556194626 0.975147698192122
-1.49552924433191 -0.317530999142612 0.884038346209117
-1.38502377417611 -0.93377356525008 0.678680281382099
-0.165970168848399 0.0720058379960515 1.16683053549366
9.06693242310701e-16 0.199176112603792 1.01134339078741
-0.357883674172658 0.169927360972987 1.25343353999672
-1.03123026517825 -1.60565055993383 0.188367006004794
-0.967408595235361 -1.52850309851617 0.393172282901483
-1.91005923730972 -0.0392407973400089 0.246720103388459
-0.201442899610157 1.74252715448204 0.344128281760021
-1.19655914024569 -1.00884605126434 0.810459341208357
-1.20407560135019 -0.667706234180113 1.02886058300845
-1.0057355 1.73577635 0
-0.195324305094953 0.317144975637659 1.14916257002012
-1.63521382874832 -0.566062367070234 0.599224487825864
-1.65423552019337 -0.349605784091185 0.666931406863145
-0.450784858555874 -1.57827903667548 0.541021325143471
-0.49301875088137 -1.72299341829897 0.34787322842412
3.11232488722452e-16 -1.58753167053416 0.383750008894178
-0.205422212256097 -1.51384219014224 0.564612925639309
-1.24821076933593 -0.0312898958591506 1.1344488710673
-1.37700734564572 0.119587995229125 1.01560165736053
-1.05261040460291 0.0715889492467454 1.2390254700314
-1.52040395801133 -0.763381164148752 0.643256927942197
-1.55438065139337 -1.1083064733144 0.224431425335067
-1.36540245979221 -1.22605470059772 0.381942057617576
-0.81725624552619 1.16999095250151 0.822437652243576
-1.62488142094079 1.04537309013915 0.182364869300537
-0.362605229779989 1.85506130396326 0.196942853912179
-0.771361139325942 0.958314949919764 0.979611384462685
-0.659233638663513 -1.10569924489204 0.986950633411085
-0.396928955703136 -1.21284109993038 0.88183972207414
-0.833935027096776 -0.0536728923291026 1.32164693520441
-0.261912001936295 1.55465037577722 0.549928498914791
-0.477846361713937 1.41472557902902 0.682754533579797
-1.54304311393518 0.748999403866785 0.59189384471571
-0.169527145993921 -0.884685053076293 0.97967610441221
8.89346598448767e-16 -0.733760835549454 0.87574512476531
7.94970670827215e-16 -0.955977616280543 0.786036872769035
1.07292491056634e-16 1.82394769340087 0.197067977876934
-1.05510156508989 1.40496077830352 0.471873646453757
-1.51955018203221 -0.975249080363848 0.458236303524847
-0.717368149566703 -1.58208853816254 0.475558692186709
-1.83990625 -0.75595695 0
-1.61515795 1.18080515 0
-0.981828267034841 0.763369183151907 1.03147443948709
-1.44535956465587 -0.0925097338690055 0.966160426365433
-1.53544272251431 0.11271350593304 0.857827256821691
-0.228468853273853 0.82213533897698 1.00367784431823
-0.406012374919911 -1.40866982595033 0.716176360373778
-0.655848593149684 -1.43953471124249 0.673741028662922
-0.598798052073813 0.120506194756672 1.31817196379492
-0.951172129113089 -1.07793610835519 0.921384859198665
-1.5576092 -1.22454185 0
-1.81752210032569 0.123622943007704 0.436999507910779
-1.27960353578028 1.23466458394538 0.464534591027916
-0.598225951484604 1.8034440464632 0.200111642605411
-1.8786663 0.6732537 0
-1.6315980368519 0.512350994090061 0.613689829293145
-1.39503203776738 0.34345981490674 0.950854411022453
-0.708432742981336 0.756773594575613 1.09968004905457
-1.01803703079775 0.996023546360028 0.870042474041824
-0.799133939275983 -0.295968615840413 1.31903857133918
-0.550669452194035 -0.406266757149878 1.30439452944677
-0.836156115463901 1.70869220947365 0.211818031417265
-1.38622997757149 0.823174742238806 0.718640752085714
-0.452925400319975 0.362635053985371 1.23850033362263
-1.88265077543104 -0.316613958700642 0.249145321996799
-1.42636583749859 0.998576128546124 0.53611267649698
2.10164474531786e-16 -1.79880073596676 0.191131962487674
-0.14716088714438 1.89984538032239 0.145131463020156
-0.904740098150365 -1.4076142384153 0.607957995673938
-1.2144083 1.5986733 0
-0.851748704449741 -0.910289815806569 1.08217860695553
-1.01171322305221 -0.693851663987673 1.13666041170046
-0.728379153055131 -0.511950510349669 1.28138127829284
-0.389091400437319 -1.01093537774241 1.02033206064671
-0.795052132400436 1.38814402035373 0.642157921016155
-0.887288205795241 0.563240398267315 1.15962543380314
-1.3027557249392 -0.272594006929808 1.08044883758067
-0.258868512655864 0.563818886376836 1.11417164594997
-0.76282815 1.85415055 0
-0.155409832991771 -0.407827709219829 1.13096145431066
-1.21835875 -1.56331525 0
-0.219123892423983 1.32497344869109 0.72443008241799
-0.340801305835281 -0.538053251352923 1.21212010636805
-1.10235728486877 -0.870667654761241 0.987247326887937
-0.181019882527255 -1.10443429160482 0.866349816421446
6.13466843341552e-16 -1.17244619810523 0.674342896225075
-0.577387843164287 1.55624009995768 0.533879102900902
-0.433814449950777 1.70529717811072 0.386748787866597
-1.00665165803593 0.342164122554667 1.2001029491726
-0.239392545 1.9926634 0
-1.50777436010878 -0.55106274806192 0.787493126749697
-0.5108824 1.93913895 0
-0.157751158136811 -0.650001036384124 1.06719492539305
-1.99057705 0.09455719 0
3.75537633445833e-16 1.4029439235035 0.56366457745978
-0.16062566733702 -0.166309168583825 1.1663950513723
-1.69186106145802 0.0845282642436365 0.655021721278442
-0.356139042543427 -0.782964265584027 1.12918411599387
-0.487398832827485 0.921349092417118 1.01469067123865
2.00893228059679e-16 1.6080116588142 0.399720782887835
-0.256014955 -1.96108395 0
9.48217226497512e-16 -0.272205141822964 0.987407835680153
6.70369903079108e-16 0.673886377457542 0.940309722409169
9.06735120616161e-16 -0.0400251030516645 1.00913405214447
-0.590164135129923 -1.29035230654128 0.831608576326847
4.25354764544251e-16 1.16448336900709 0.720563052206468
5.92079121424902e-16 0.92317746154356 0.846216341638752
-1.4129605 1.4199822 0
-1.39429325 -1.4069643 0
-0.50973125 -1.9092283 0
-1.4474110093279 1.25444410739662 0.216493559775082
1.2362254512987 1.02678795705145 0.702299199222968
1.22066792122841 0.777430116858955 0.892013083604647
0.445418812249966 0.726307975008963 1.10063472363097
0.584333910085025 -0.155070525695581 1.33591768463326
1.15692153358737 -0.465203456031817 1.14253833554462
0.35044241816612 -0.28813629346639 1.26711398429278
0.226426892649041 -1.69337851353992 0.385223299384695
0.22356760817779 -1.85284340904688 0.18151262883223
0.814905712591407 -1.26423480002372 0.810259226581162
1.19832642143192 -1.44272045350626 0.278968514147071
1.14374654493758 -1.33608669880667 0.505831652419492
0.9647869 -1.73069085 0
0.779251979969377 -1.70812874457656 0.240832741440633
0.7307993 -1.83799735 0
0.411458990260506 1.24151574320636 0.812023288382541
0.730933883930489 0.364230946076811 1.2581295912403
0.580685386187763 0.562001732007276 1.18998419510439
0.254331785778722 1.07782303631222 0.891330825311127
1.05050778687639 1.57721896813671 0.240181267550087
0.627332691777357 1.27512605491324 0.779514676622867
1.04041124411541 1.22139840829252 0.674833895301336
1.24538630644872 1.42621268100906 0.255559737045524
1.8163842554039 -0.600028162942098 0.233950678882052
1.76361789837369 -0.44287172785566 0.445680053642094
1.78643721596456 -0.154596423535886 0.49792257386979
1.7095204 -1.00832865 0
1.62261223688876 -0.122411602477389 0.756621138118647
1.21832197312437 0.24612794211101 1.11580247419535
1.75263284422212 0.790321919882047 0.210054731722101
1.76499575 0.9360211 0
1.60178152247146 0.90265428543395 0.381364689086562
1.47654139239173 1.11562277130882 0.346925650852532
1.57229304213166 0.332033813036137 0.764812312816606
1.71017776016033 0.28984746457685 0.582658910001901
1.90282881729767 0.246238583018249 0.224887630974028
1.95566945 0.3892329 0
1.38729201557726 -1.33766143225849 0.165386790217717
1.78722430163098 0.396428439903984 0.414175170956094
1.70707522473531 0.653238282891008 0.411873660787035
0.847450878080204 0.172400480250394 1.28795076095171
0.784683204801821 -0.706722513159222 1.20609823021735
0.548849401356045 -0.65311549122931 1.23349869314938
1.34004934025328 -0.766509344120027 0.858664502550334
0.558672464430949 1.10637702782442 0.909743714151081
0.943284238255937 -0.478572528290242 1.24494324345285
1.67448686123525 -0.716609156960153 0.434391817537526
1.69932086293671 -0.868464381101052 0.23731632510802
0.189225410682131 -1.31443833485288 0.725805793083126
0.367318760278417 -0.0431179875264596 1.28327508063778
1.06154712732658 -1.21596732363189 0.721877820452383
1.06474838098998 -0.217387093542569 1.24315607149119
1.9316591 -0.4815804 0
0.509577601626594 -1.83532482315995 0.157609421916161
1.29319808525667 -1.12818221015076 0.597201471101404
0.845592335447601 1.55541853149611 0.428052546939348
1.98281335 -0.19372122 0
0.595704830495144 -0.882879235979765 1.13192979263422
0.662808824590235 1.67232875260716 0.361953184821096
1.18384274213399 0.529055386278134 1.04709298077499
1.43143730701104 0.582382593086785 0.82250758205398
1.84728082812334 0.526729896902574 0.21748725575324
1.35146247747184 -0.509208556194626 0.975147698192124
1.49552924433191 -0.317530999142612 0.884038346209118
1.38502377417611 -0.933773565250081 0.6786802813821
0.165970168848402 0.0720058379960514 1.16683053549366
0.35788367417266 0.169927360972987 1.25343353999672
1.03123026517825 -1.60565055993383 0.188367006004794
0.967408595235361 -1.52850309851617 0.393172282901484
1.91005923730972 -0.039240797340009 0.246720103388459
0.201442899610158 1.74252715448204 0.344128281760021
1.19655914024569 -1.00884605126434 0.810459341208358
1.20407560135019 -0.667706234180113 1.02886058300845
1.0057355 1.73577635 0
0.195324305094954 0.317144975637658 1.14916257002013
1.63521382874832 -0.566062367070234 0.599224487825864
1.65423552019337 -0.349605784091185 0.666931406863146
0.450784858555874 -1.57827903667548 0.541021325143472
0.493018750881371 -1.72299341829897 0.347873228424121
0.205422212256098 -1.51384219014224 0.564612925639309
1.24821076933594 -0.0312898958591506 1.1344488710673
1.37700734564572 0.119587995229125 1.01560165736053
1.05261040460291 0.0715889492467453 1.2390254700314
1.52040395801134 -0.763381164148752 0.643256927942198
1.55438065139337 -1.1083064733144 0.224431425335068
1.36540245979221 -1.22605470059772 0.381942057617576
0.817256245526191 1.16999095250151 0.822437652243576
1.62488142094079 1.04537309013915 0.182364869300538
0.362605229779989 1.85506130396326 0.196942853912178
0.771361139325944 0.958314949919765 0.979611384462685
0.659233638663515 -1.10569924489204 0.986950633411086
0.396928955703137 -1.21284109993037 0.88183972207414
0.833935027096778 -0.0536728923291027 1.32164693520441
0.261912001936296 1.55465037577722 0.549928498914791
0.477846361713938 1.41472557902902 0.682754533579797
1.54304311393518 0.748999403866785 0.591893844715711
0.169527145993923 -0.884685053076293 0.97967610441221
1.05510156508989 1.40496077830352 0.471873646453757
1.51955018203221 -0.975249080363848 0.458236303524848
0.717368149566704 -1.58208853816254 0.47555869218671
1.83990625 -0.75595695 0
1.61515795 1.18080515 0
0.981828267034842 0.763369183151907 1.03147443948709
1.44535956465587 -0.0925097338690057 0.966160426365434
1.53544272251431 0.11271350593304 0.857827256821692
0.228468853273854 0.82213533897698 1.00367784431823
0.406012374919912 -1.40866982595033 0.716176360373778
0.655848593149685 -1.43953471124249 0.673741028662923
0.598798052073816 0.120506194756672 1.31817196379493
0.951172129113091 -1.07793610835519 0.921384859198666
1.5576092 -1.22454185 0
1.81752210032569 0.123622943007704 0.436999507910779
1.27960353578028 1.23466458394538 0.464534591027916
0.598225951484604 1.8034440464632 0.200111642605411
1.8786663 0.6732537 0
1.6315980368519 0.512350994090061 0.613689829293146
1.39503203776738 0.34345981490674 0.950854411022454
0.708432742981338 0.756773594575613 1.09968004905457
1.01803703079775 0.996023546360028 0.870042474041825
0.799133939275985 -0.295968615840413 1.31903857133919
0.550669452194037 -0.406266757149878 1.30439452944678
0.836156115463901 1.70869220947365 0.211818031417265
1.3862299775715 0.823174742238805 0.718640752085714
0.452925400319977 0.362635053985371 1.23850033362263
1.88265077543104 -0.316613958700642 0.249145321996799
1.42636583749859 0.998576128546124 0.53611267649698
0.14716088714438 1.89984538032239 0.145131463020156
0.904740098150366 -1.4076142384153 0.607957995673939
1.2144083 1.5986733 0
0.851748704449744 -0.910289815806569 1.08217860695553
1.01171322305221 -0.693851663987673 1.13666041170046
0.728379153055133 -0.511950510349669 1.28138127829284
0.389091400437321 -1.01093537774241 1.02033206064671
0.795052132400437 1.38814402035373 0.642157921016155
0.887288205795243 0.563240398267315 1.15962543380314
1.30275572493921 -0.272594006929809 1.08044883758067
0.258868512655866 0.563818886376836 1.11417164594997
0.76282815 1.85415055 0
0.155409832991773 -0.407827709219829 1.13096145431066
0 2.0125 0
1.21835875 -1.56331525 0
0.219123892423985 1.32497344869109 0.72443008241799
0.340801305835284 -0.538053251352923 1.21212010636805
1.10235728486877 -0.870667654761242 0.987247326887939
0.181019882527257 -1.10443429160482 0.866349816421446
0.577387843164287 1.55624009995768 0.533879102900902
0.433814449950777 1.70529717811072 0.386748787866598
1.00665165803593 0.342164122554667 1.20010294917261
0.239392545 1.9926634 0
1.50777436010878 -0.55106274806192 0.787493126749698
0.5108824 1.93913895 0
0.157751158136813 -0.650001036384124 1.06719492539305
1.99057705 0.09455719 0
0 -1.98229815 0
0.160625667337022 -0.166309168583825 1.1663950513723
1.69186106145802 0.0845282642436363 0.655021721278443
0.356139042543429 -0.782964265584027 1.12918411599387
0.487398832827486 0.921349092417118 1.01469067123865
0.256014955 -1.96108395 0
9.44432397047406e-16 -0.505574284672749 0.943093004607382
8.48466208512317e-16 0.43995852771262 0.991158553576473
0.590164135129924 -1.29035230654128 0.831608576326848
4.98504201961145e-16 -1.38356749887902 0.540035064971103
1.4129605 1.4199822 0
1.39429325 -1.4069643 0
0.50973125 -1.9092283 0
1.4474110093279 1.25444410739662 0.216493559775082
3 0 1 122
3 78 52 7
3 101 21 116
3 45 23 22
3 152 58 27
3 136 124 123
3 60 118 35
3 53 63 102
3 28 29 118
3 66 64 74
3 102 85 86
3 26 160 24
3 97 99 98
3 41 136 40
3 125 18 54
3 9 10 86
3 22 104 46
3 46 102 45
3 111 77 110
3 54 57 125
3 80 47 110
3 116 129 0
3 9 67 68
3 106 122 1
3 59 126 96
3 72 42 147
3 71 53 49
3 51 22 128
3 129 31 30
3 68 10 9
3 53 102 86
3 35 34 60
3 44 123 50
3 40 56 41
3 30 38 96
3 111 8 132
3 25 114 85
3 49 113 71
3 33 115 160
3 138 54 101
3 46 85 102
3 68 67 12
3 145 95 14
3 81 82 107
3 2 16 141
3 147 71 113
3 95 94 150
3 89 117 151
3 12 11 13
3 32 59 119
3 139 16 121
3 128 55 51
3 24 23 76
3 36 114 172
3 117 89 155
3 143 5 146
3 45 84 75
3 28 118 60
3 45 75 23
3 22 51 104
3 60 34 37
3 88 28 30
3 145 169 158
3 122 106 90
3 94 151 150
3 162 17 43
3 71 147 42
3 140 107 62
3 112 39 93
3 103 12 78
3 64 48 159
3 4 72 135
3 151 94 70
3 68 12 103
3 86 85 36
3 154 62 76
3 31 129 116
3 37 34 115
3 161 97 156
3 149 148 47
3 83 50 93
3 121 2 162
3 81 107 140
3 1 126 59
3 20 122 87
3 163 94 158
3 115 33 37
3 32 120 59
3 89 131 153
3 89 153 155
3 29 88 105
3 23 24 128
3 154 61 62
3 128 24 69
3 125 57 117
3 34 35 157
3 327 7 164
3 63 42 84
3 70 100 131
3 106 139 121
3 43 19 87
3 14 95 19
3 93 3 112
3 108 107 82
3 141 74 334
3 64 65 74
3 6 79 80
3 156 143 146
3 138 20 87
3 26 107 108
3 0 20 116
3 8 111 168
3 119 38 37
3 129 96 126
3 108 160 26
3 10 53 86
3 132 103 111
3 62 26 76
3 117 155 142
3 119 33 32
3 144 9 36
3 86 36 9
3 76 75 154
3 55 128 69
3 29 28 88
3 130 6 7
3 23 75 76
3 53 10 49
3 164 7 52
3 114 36 85
3 45 22 46
3 25 85 46
3 4 44 50
3 152 39 15
3 121 162 90
3 137 97 161
3 139 15 16
3 19 138 87
3 150 54 138
3 333 143 156
3 141 334 166
3 107 26 62
3 115 24 160
3 136 41 124
3 1 59 58
3 42 72 61
3 138 19 95
3 77 6 80
3 113 49 8
3 78 6 77
3 7 6 78
3 120 108 82
3 70 163 100
3 127 66 74
3 151 70 89
3 84 154 75
3 115 69 24
3 42 61 154
3 67 11 12
3 10 68 132
3 123 124 3
3 161 146 41
3 97 148 99
3 143 165 159
3 139 58 152
3 156 98 333
3 113 8 91
3 120 58 59
3 53 71 63
3 92 91 168
3 4 140 61
3 62 61 140
3 27 82 81
3 57 150 151
3 119 96 38
3 108 32 160
3 24 76 26
3 103 77 111
3 154 84 42
3 327 130 7
3 49 132 8
3 69 34 157
3 30 28 38
3 125 73 18
3 9 144 67
3 103 132 68
3 141 16 127
3 34 69 115
3 45 102 84
3 128 22 23
3 83 152 27
3 3 93 123
3 109 166 170
3 43 90 162
3 44 40 136
3 148 97 137
3 92 47 148
3 148 137 92
3 20 138 101
3 8 168 91
3 32 108 120
3 163 70 94
3 101 116 20
3 16 2 121
3 48 64 66
3 52 78 12
3 52 12 13
3 80 110 77
3 80 79 336
3 49 10 132
3 103 78 77
3 117 57 151
3 63 71 42
3 60 38 28
3 160 32 33
3 30 96 129
3 3 48 112
3 83 93 39
3 56 40 134
3 146 124 41
3 92 110 47
3 138 95 150
3 81 50 83
3 96 119 59
3 167 159 165
3 94 95 145
3 44 135 40
3 112 66 127
3 0 129 126
3 134 147 113
3 27 120 82
3 141 166 109
3 73 133 18
3 72 4 61
3 97 98 156
3 142 73 125
3 125 117 142
3 88 174 105
3 37 33 119
3 67 144 11
3 84 102 63
3 54 150 57
3 333 165 143
3 87 90 43
3 123 44 136
3 113 91 134
3 134 40 135
3 137 91 92
3 127 16 15
3 5 159 48
3 2 109 162
3 159 5 143
3 161 41 56
3 90 87 122
3 39 112 15
3 4 135 44
3 120 27 58
3 168 110 92
3 145 158 94
3 168 111 110
3 112 48 66
3 162 109 17
3 91 137 56
3 50 140 4
3 146 5 124
3 27 81 83
3 56 137 161
3 50 81 140
3 14 19 43
3 127 15 112
3 58 106 1
3 167 64 159
3 91 56 134
3 147 134 135
3 17 14 43
3 139 106 58
3 2 141 109
3 83 39 152
3 3 5 48
3 15 139 152
3 161 156 146
3 106 121 90
3 70 131 89
3 50 123 93
3 153 131 313
3 135 72 147
3 127 74 141
3 122 20 0
3 17 170 169
3 3 124 5
3 21 171 174
3 145 14 17
3 313 131 100
3 74 65 334
3 1 0 126
3 88 30 31
3 47 336 149
3 47 80 336
3 17 169 145
3 79 6 130
3 148 149 99
3 60 37 38
3 65 64 167
3 69 157 55
3 170 17 109
3 25 46 104
3 101 54 18
3 172 144 36
3 52 13 173
3 21 101 18
3 21 18 133
3 174 31 116
3 173 164 52
3 88 31 174
3 21 133 171
3 174 116 21
3 174 171 105
3 175 292 176
3 252 182 227
3 271 286 196
3 220 197 198
3 321 202 233
3 305 293 294
3 235 210 288
3 228 272 238
3 203 288 204
3 240 248 239
3 272 259 258
3 201 199 329
3 270 98 99
3 216 215 305
3 295 229 193
3 184 259 185
3 197 221 274
3 221 220 272
3 281 280 251
3 229 295 232
3 253 280 222
3 286 175 299
3 184 242 241
3 276 176 292
3 234 269 296
3 246 317 217
3 245 224 228
3 226 298 197
3 299 205 206
3 242 184 185
3 228 259 272
3 210 235 209
3 219 225 293
3 215 216 231
3 205 269 213
3 281 301 183
3 200 258 284
3 224 245 283
3 208 329 285
3 307 271 229
3 221 272 258
3 242 187 241
3 315 189 268
3 254 277 255
3 177 310 191
3 317 283 245
3 268 319 267
3 262 320 287
3 187 188 186
3 207 289 234
3 308 291 191
3 298 226 230
3 199 250 198
3 211 338 284
3 287 324 262
3 312 316 180
3 220 249 257
3 203 235 288
3 220 198 249
3 197 274 226
3 235 212 209
3 261 205 203
3 315 158 169
3 292 263 276
3 267 319 320
3 331 218 192
3 245 217 317
3 309 237 277
3 282 266 214
3 273 252 187
3 239 328 223
3 179 304 246
3 320 244 267
3 242 273 187
3 259 211 258
3 323 250 237
3 206 286 299
3 212 285 209
3 330 325 270
3 149 222 318
3 256 266 225
3 291 331 177
3 254 309 277
3 176 234 296
3 195 260 292
3 163 158 267
3 285 212 208
3 207 234 290
3 262 322 300
3 262 324 322
3 204 275 261
3 198 298 199
3 323 237 236
3 298 243 199
3 295 287 232
3 209 326 210
3 327 332 182
3 238 257 217
3 244 300 100
3 276 291 308
3 218 260 194
3 189 194 268
3 266 282 178
3 278 255 277
3 310 334 248
3 239 248 65
3 181 253 79
3 325 316 312
3 307 260 195
3 201 278 277
3 175 286 195
3 183 335 281
3 289 212 213
3 299 296 269
3 278 201 329
3 185 259 228
3 301 281 273
3 237 250 201
3 287 311 324
3 289 207 208
3 314 211 184
3 259 184 211
3 250 323 249
3 230 243 298
3 204 261 203
3 130 182 181
3 198 250 249
3 228 224 185
3 332 227 182
3 284 258 211
3 220 221 197
3 200 221 258
3 179 225 219
3 321 190 214
3 291 263 331
3 306 330 270
3 308 191 190
3 194 260 307
3 319 307 229
3 333 325 312
3 310 166 334
3 277 237 201
3 285 329 199
3 305 294 216
3 176 233 234
3 217 236 246
3 307 268 194
3 251 253 181
3 283 183 224
3 252 251 181
3 182 252 181
3 290 255 278
3 244 100 163
3 297 248 240
3 320 262 244
3 257 249 323
3 285 199 243
3 217 323 236
3 241 187 186
3 185 301 242
3 293 178 294
3 330 216 316
3 270 99 318
3 312 328 165
3 308 321 233
3 325 333 98
3 283 264 183
3 290 234 233
3 228 238 245
3 265 335 264
3 179 236 309
3 237 309 236
3 202 254 255
3 232 320 319
3 289 213 269
3 278 329 207
3 199 201 250
3 273 281 251
3 323 217 257
3 327 182 130
3 224 183 301
3 243 326 209
3 205 213 203
3 295 193 247
3 184 241 314
3 273 242 301
3 310 297 191
3 209 285 243
3 220 257 272
3 298 198 197
3 256 202 321
3 178 293 266
3 279 170 166
3 218 331 263
3 219 305 215
3 318 306 270
3 265 318 222
3 318 265 306
3 195 271 307
3 183 264 335
3 207 290 278
3 163 267 244
3 271 195 286
3 191 291 177
3 223 240 239
3 227 187 252
3 227 188 187
3 253 251 280
3 253 336 79
3 224 301 185
3 273 251 252
3 287 320 232
3 238 217 245
3 235 203 213
3 329 208 207
3 205 299 269
3 178 282 223
3 256 214 266
3 231 303 215
3 316 216 294
3 265 222 280
3 307 319 268
3 254 256 225
3 269 234 289
3 167 165 328
3 267 315 268
3 219 215 304
3 282 297 240
3 175 296 299
3 303 283 317
3 202 255 290
3 310 279 166
3 247 193 302
3 246 236 179
3 270 325 98
3 311 295 247
3 295 311 287
3 261 275 340
3 212 289 208
3 241 186 314
3 257 238 272
3 229 232 319
3 333 312 165
3 260 218 263
3 293 305 219
3 283 303 264
3 303 304 215
3 306 265 264
3 297 190 191
3 180 223 328
3 177 331 279
3 328 312 180
3 330 231 216
3 263 292 260
3 214 190 282
3 179 219 304
3 290 233 202
3 335 265 280
3 315 267 158
3 335 280 281
3 282 240 223
3 331 192 279
3 264 231 306
3 225 179 309
3 316 294 180
3 202 256 254
3 231 330 306
3 225 309 254
3 189 218 194
3 297 282 190
3 233 176 276
3 167 328 239
3 264 303 231
3 317 304 303
3 192 218 189
3 308 233 276
3 177 279 310
3 256 321 214
3 178 223 180
3 190 321 308
3 330 316 325
3 276 263 291
3 244 262 300
3 225 266 293
3 322 313 300
3 304 317 246
3 297 310 248
3 292 175 195
3 192 169 170
3 178 180 294
3 196 340 337
3 315 192 189
3 313 100 300
3 248 334 65
3 176 296 175
3 261 206 205
3 222 149 336
3 222 336 253
3 192 315 169
3 79 130 181
3 318 99 149
3 235 213 212
3 65 167 239
3 243 230 326
3 170 279 192
3 200 274 221
3 271 193 229
3 338 211 314
3 227 339 188
3 196 193 271
3 196 302 193
3 340 286 206
3 339 227 332
3 261 340 206
3 196 337 302
3 340 196 286
3 340 275 337
