OFF
341 634 0
-1.77095929221024 1.46573241112183 1.0079951956749
-1.74782786320062 1.10942666073178 1.27725220214062
-0.636404171129208 1.03621563720803 1.57396184148884
-0.838351273827133 -0.21616657527879 1.89421289719757
-1.65220405454641 -0.65578373732379 1.623923016761
-0.506200022543741 -0.405433018228922 1.800376933113
-0.322671000215364 -2.41478921502765 0.551770640726312
-0.318106721802217 -2.64450586338789 0.260490470749647
-1.16641961509964 -1.793676337122 1.15857274204928
-1.71511119484012 -2.0590649083562 0.400319292641802
-1.63785732534069 -1.90351021082086 0.725075778953711
-1.378267 -2.4724155 0
-1.11520960217305 -2.43737757220167 0.346936719507091
-1.043999 -2.6257105 0
-0.587127507965148 1.77043848047362 1.16314485744508
-1.04587304387216 0.51943027013806 1.7916425424173
-0.830778722608623 0.801432560501869 1.69889089802282
-0.362577260879167 1.5378748485086 1.27510074382206
-1.50334053433002 2.25348468253586 0.34576007090239
-0.896585900235108 1.81847196541905 1.11864794526334
-1.49013334453601 1.74335596251506 0.969815735170765
-1.78248164453005 2.0379634971877 0.367544303880996
-2.5982438854588 -0.85658306470132 0.335215750863647
-2.52427395304827 -0.631162110726866 0.638077884457013
-2.55727798625136 -0.219287169810211 0.712865393450772
-2.442172 -1.4404695 0
-2.32206209002111 -0.172269810424276 1.08128577209924
-1.74176545445108 0.35215158636789 1.59031696605098
-2.50719816699348 1.12954062019755 0.301311076595421
-2.5214225 1.337173 0
-2.2934714506991 1.28981257407832 0.547290513395478
-2.11427602898898 1.59367446156576 0.498429739262159
-2.25072099055935 0.475181197940625 1.09407698527292
-2.44843855260923 0.415208292705866 0.834283776569821
-2.72193419484221 0.352473794320779 0.322257478580594
-2.7938135 0.556047 0
-1.98397578806312 -1.91042699701964 0.237134072595109
-2.55842097638669 0.567225477296346 0.593509255928386
-2.44397075119824 0.933862806155487 0.590598382572416
-1.21169944230881 0.247176267911688 1.83042555849077
-1.12237428571826 -0.995543920653342 1.71201802008657
-0.787697219248091 -0.920240169512061 1.75100401586249
-1.9166757684432 -1.08741477289635 1.22530621801847
-0.797975295694619 1.57783532737374 1.30387909267188
-1.3474930850991 -0.673102365011877 1.76593451741813
-2.39672957391457 -1.02167620107728 0.622014565253352
-2.43087878217251 -1.23995744796851 0.340147715504647
-0.271717929664925 -1.87191035811356 1.03775937618685
-0.529734751753102 -0.058459610725227 1.82350279787195
-1.51974939351604 -1.72790447776212 1.03268369145389
-1.5203553574994 -0.304280242925199 1.76495507388927
-2.759513 -0.687972 0
-0.728319591441659 -2.61940282985413 0.22782985599328
-1.85148182413035 -1.60613784166515 0.85477673457891
-1.21026187480899 2.22117444364572 0.616268203364501
-2.8325905 -0.2767446 0
-0.853632897828783 -1.24639024081056 1.60972435851022
-0.947927960703106 2.38767480029994 0.521073675754486
-1.69401499431171 0.754680199471725 1.49572657291351
-2.0494410315227 0.831881076983651 1.17718390869525
-2.6425005353541 0.753074282827878 0.311786401766469
-1.93169024589868 -0.72041613756588 1.38951432737397
-2.13879309909331 -0.449200331605724 1.26146027481176
-1.98235170665352 -1.32816608947762 0.97037169863161
-0.240586967668885 0.104343220001789 1.66455918531743
9.61085074795588e-16 0.285376045205231 1.4490669495235
-0.514925374386875 0.243527732564593 1.78378753448839
-1.47539342585011 -2.29221642636393 0.270744668453411
-1.38527909954966 -2.17911818804189 0.564845655003386
-2.73247357700869 -0.0552899570792147 0.353535245301234
-0.286887009074797 2.48804273711058 0.491797268365916
-1.71211531760296 -1.43217168078213 1.15754625620003
-1.72066768405722 -0.944016568263105 1.46470795525486
-1.436765 2.4796805 0
-0.280660077376743 0.453335769478926 1.64041332972943
-2.34042887332096 -0.805614593123637 0.857109527369771
-2.36752282810451 -0.496663398865646 0.953569457735834
-0.644253394075592 -2.24597346410414 0.776639174052249
-0.704662272942437 -2.45560679502702 0.501220656203537
1.393166364247e-16 -2.27156519203004 0.549007534674892
-0.293647262411523 -2.15730725133382 0.807783129956505
-1.78325897537665 -0.0412504588708627 1.61461974999465
-1.96892696098575 0.172616640781639 1.44838903390639
-1.50384659608633 0.104587767442673 1.76127905255149
-2.17608843872559 -1.08619734792569 0.919903544013283
-2.22342385787722 -1.58265752156843 0.321739853895294
-1.95447032879938 -1.74906874909149 0.547434203737491
-1.16936543955418 1.66883329111317 1.18064323310445
-2.3244884481637 1.49349336024143 0.261822232685931
-0.517617370576532 2.6488300615311 0.283037908234705
-1.10339820810207 1.36656362118906 1.40378325474125
-0.943652693597938 -1.56477240497104 1.40730011846704
-0.568960745629371 -1.7208171507699 1.25933123243946
-1.192202641585 -0.0726475639721717 1.87476155325347
-0.373073571667186 2.21816794940917 0.786779927283809
-0.682090865682369 2.01737500001032 0.979366326887272
-2.20998895442192 1.07024665120708 0.848614177788001
-0.245427599699241 -1.25774835767207 1.39913924792738
7.28148670422476e-16 -1.0499462842353 1.25700662566525
6.19970274401976e-16 -1.36842877440321 1.1284718083973
8.60880301237444e-17 2.60835834597179 0.279742097727372
-1.51100437455771 2.00671619257961 0.678964279253151
-2.17523288169513 -1.39048186862119 0.656226606402848
-1.02703005606903 -2.25275015631657 0.683828371487044
-2.6284375 -1.0799385 0
-2.3073685 1.6868645 0
-1.40530979115739 1.08846971113661 1.4758600301355
-2.06659886710633 -0.128753774280014 1.37787705149286
-2.19697192993612 0.16278150909016 1.22534601305869
-0.325669581502184 1.1738669539375 1.43563023169893
-0.580768007857662 -2.00188718740915 1.02503703572567
-0.938729911130977 -2.04543147986238 0.965877671184189
-0.858206546272395 0.173524788555402 1.87224076205403
-1.36079087795992 -1.52699692441765 1.31461206941045
-2.225156 -1.7493455 0
-2.6016874128038 0.177913292158195 0.625910513619175
-1.83305453681618 1.76362124967023 0.6678939666491
-0.855235870534489 2.5756187560272 0.288348092503622
-2.683809 0.961791 0
-2.3363185397166 0.732573116994163 0.879151513480566
-1.99603802157332 0.490930193486663 1.35814543683419
-1.01337570226835 1.07894350933309 1.57298166754608
-1.45761604155922 1.42085873487618 1.24779195904332
-1.14276894856332 -0.414797331949911 1.86929818761285
-0.790775106560021 -0.571001500116842 1.84955241307299
-1.1961520063373 2.44082503347093 0.305261459860648
-1.98549025366685 1.17550694213757 1.03006799314552
-0.649106746803988 0.517475719095426 1.76482567813642
-2.6932112063458 -0.451718247288933 0.356979162816279
-2.04332170676015 1.42628358778424 0.769627173098293
1.19100233716757e-16 -2.57217451402756 0.272341110326746
-0.209300091640909 2.71375245374668 0.207101723151672
-1.29566703908763 -2.00233967944228 0.871700960267078
-1.734869 2.283819 0
-1.21808665167313 -1.28569386925081 1.53980174133919
-1.4454589473163 -0.978823581462955 1.61534630998396
-1.04249971581108 -0.71975353001827 1.81645402223271
-0.55871160273534 -1.43197121705156 1.45443311472707
-1.13767364018049 1.98085563152228 0.923333619832365
-1.26956560908368 0.802752873713715 1.65547774022871
-1.86111243029004 -0.383693697126647 1.53792204759904
-0.369816691790925 0.805155530295406 1.59225820632726
-1.0897545 2.6487865 0
-0.226309983593048 -0.57824760514507 1.61360468221776
-1.7405125 -2.2333075 0
-0.312418690422354 1.89048332760923 1.03576236082836
-0.492022416343677 -0.759763001157456 1.72357965208068
-1.57604997879687 -1.23210020335934 1.40656529196628
-0.261078868773997 -1.57150347877927 1.23796255476679
6.66510336070431e-16 -1.67847287057587 0.96791896906064
-0.82507756749945 2.22047597674433 0.767294238858055
-0.619369389400568 2.43390966075323 0.555455159837079
-1.43948275775465 0.488193297169081 1.70966183248296
-0.34198935 2.846662 0
-2.15700328462474 -0.782289146735991 1.12461893626628
-0.729832 2.7701985 0
-0.229210668174351 -0.923198018004517 1.52341380982982
-2.8436815 0.1350817 0
2.96863810832437e-16 2.00848639378109 0.804376084114184
-0.233835625261898 -0.234558156357022 1.66353020702606
-2.42191785491117 0.12249166836082 0.937122236240683
-0.512913686912819 -1.10750795933986 1.60734852638959
-0.696012938761196 1.31415418883723 1.45286144663242
2.57585612035297e-16 2.30113291833509 0.569394213310682
-0.36573565 -2.8015485 0
9.66360004147457e-16 -0.388812949568812 1.41656189763565
7.99575942741944e-16 0.964105822154881 1.34349358108961
9.24571148307448e-16 -0.0566451075491789 1.44728931630456
-0.844783190371169 -1.83030015474002 1.18880034397009
5.36910235232046e-16 1.66707432594739 1.02942850779324
6.6848201618048e-16 1.32132873109198 1.20901705555691
-2.018515 2.028546 0
-1.9918475 -2.009949 0
-0.7281875 -2.727469 0
-2.07118368681281 1.79241938567502 0.311137229584763
1.77095929221024 1.46573241112183 1.0079951956749
1.74782786320062 1.10942666073178 1.27725220214062
0.63640417112921 1.03621563720803 1.57396184148884
0.838351273827136 -0.21616657527879 1.89421289719758
1.65220405454641 -0.65578373732379 1.623923016761
0.506200022543743 -0.405433018228922 1.800376933113
0.322671000215364 -2.41478921502765 0.551770640726313
0.318106721802217 -2.64450586338789 0.260490470749648
1.16641961509964 -1.793676337122 1.15857274204928
1.71511119484012 -2.0590649083562 0.400319292641802
1.63785732534069 -1.90351021082086 0.725075778953712
1.378267 -2.4724155 0
1.11520960217305 -2.43737757220167 0.346936719507092
1.043999 -2.6257105 0
0.587127507965149 1.77043848047362 1.16314485744508
1.04587304387216 0.51943027013806 1.7916425424173
0.830778722608625 0.801432560501869 1.69889089802282
0.362577260879169 1.5378748485086 1.27510074382206
1.50334053433002 2.25348468253586 0.34576007090239
0.896585900235109 1.81847196541905 1.11864794526334
1.49013334453601 1.74335596251506 0.969815735170765
1.78248164453005 2.0379634971877 0.367544303880996
2.5982438854588 -0.85658306470132 0.335215750863647
2.52427395304827 -0.631162110726866 0.638077884457013
2.55727798625136 -0.219287169810211 0.712865393450773
2.442172 -1.4404695 0
2.32206209002111 -0.172269810424276 1.08128577209924
1.74176545445108 0.35215158636789 1.59031696605098
2.50719816699348 1.12954062019755 0.301311076595421
2.5214225 1.337173 0
2.2934714506991 1.28981257407832 0.547290513395478
2.11427602898898 1.59367446156576 0.498429739262159
2.25072099055935 0.475181197940626 1.09407698527292
2.44843855260923 0.415208292705866 0.834283776569822
2.72193419484221 0.352473794320779 0.322257478580594
2.7938135 0.556047 0
1.98397578806312 -1.91042699701964 0.237134072595109
2.55842097638669 0.567225477296347 0.593509255928387
2.44397075119824 0.933862806155487 0.590598382572416
1.21169944230881 0.247176267911688 1.83042555849077
1.12237428571826 -0.995543920653342 1.71201802008657
0.787697219248093 -0.920240169512061 1.7510040158625
1.9166757684432 -1.08741477289635 1.22530621801847
0.797975295694621 1.57783532737374 1.30387909267188
1.34749308509911 -0.673102365011877 1.76593451741813
2.39672957391457 -1.02167620107728 0.622014565253352
2.43087878217251 -1.23995744796851 0.340147715504647
0.271717929664926 -1.87191035811356 1.03775937618685
0.529734751753105 -0.0584596107252272 1.82350279787195
1.51974939351604 -1.72790447776212 1.03268369145389
1.5203553574994 -0.304280242925199 1.76495507388928
2.759513 -0.687972 0
0.728319591441659 -2.61940282985413 0.22782985599328
1.85148182413035 -1.60613784166515 0.85477673457891
1.21026187480899 2.22117444364572 0.616268203364501
2.8325905 -0.2767446 0
0.853632897828784 -1.24639024081056 1.60972435851022
0.947927960703106 2.38767480029994 0.521073675754486
1.69401499431172 0.754680199471725 1.49572657291351
2.0494410315227 0.831881076983651 1.17718390869526
2.6425005353541 0.753074282827878 0.311786401766469
1.93169024589868 -0.72041613756588 1.38951432737397
2.13879309909332 -0.449200331605724 1.26146027481177
1.98235170665352 -1.32816608947762 0.970371698631611
0.240586967668888 0.104343220001789 1.66455918531743
0.514925374386877 0.243527732564593 1.7837875344884
1.47539342585011 -2.29221642636393 0.270744668453411
1.38527909954966 -2.17911818804189 0.564845655003386
2.73247357700869 -0.0552899570792148 0.353535245301235
0.286887009074797 2.48804273711058 0.491797268365916
1.71211531760296 -1.43217168078213 1.15754625620004
1.72066768405722 -0.944016568263105 1.46470795525486
1.436765 2.4796805 0
0.280660077376745 0.453335769478926 1.64041332972943
2.34042887332096 -0.805614593123637 0.857109527369772
2.36752282810451 -0.496663398865646 0.953569457735835
0.644253394075592 -2.24597346410414 0.77663917405225
0.704662272942438 -2.45560679502702 0.501220656203538
0.293647262411523 -2.15730725133382 0.807783129956505
1.78325897537665 -0.0412504588708627 1.61461974999465
1.96892696098575 0.172616640781639 1.44838903390639
1.50384659608633 0.104587767442673 1.7612790525515
2.17608843872559 -1.08619734792569 0.919903544013284
2.22342385787722 -1.58265752156843 0.321739853895295
1.95447032879938 -1.74906874909149 0.547434203737491
1.16936543955418 1.66883329111317 1.18064323310445
2.3244884481637 1.49349336024143 0.261822232685931
0.517617370576532 2.6488300615311 0.283037908234705
1.10339820810207 1.36656362118906 1.40378325474126
0.943652693597939 -1.56477240497104 1.40730011846705
0.568960745629373 -1.7208171507699 1.25933123243946
1.192202641585 -0.0726475639721719 1.87476155325347
0.373073571667187 2.21816794940917 0.786779927283809
0.68209086568237 2.01737500001032 0.979366326887272
2.20998895442192 1.07024665120708 0.848614177788001
0.245427599699242 -1.25774835767207 1.39913924792738
1.51100437455771 2.00671619257961 0.678964279253152
2.17523288169513 -1.39048186862119 0.656226606402849
1.02703005606903 -2.25275015631657 0.683828371487045
2.6284375 -1.0799385 0
2.3073685 1.6868645 0
1.40530979115739 1.08846971113661 1.4758600301355
2.06659886710633 -0.128753774280014 1.37787705149286
2.19697192993612 0.16278150909016 1.22534601305869
0.325669581502185 1.1738669539375 1.43563023169893
0.580768007857663 -2.00188718740915 1.02503703572567
0.938729911130977 -2.04543147986238 0.96587767118419
0.858206546272398 0.173524788555401 1.87224076205403
1.36079087795992 -1.52699692441765 1.31461206941045
2.225156 -1.7493455 0
2.6016874128038 0.177913292158195 0.625910513619175
1.83305453681618 1.76362124967023 0.6678939666491
0.855235870534489 2.5756187560272 0.288348092503622
2.683809 0.961791 0
2.3363185397166 0.732573116994163 0.879151513480567
1.99603802157333 0.490930193486663 1.35814543683419
1.01337570226835 1.07894350933309 1.57298166754609
1.45761604155923 1.42085873487618 1.24779195904332
1.14276894856333 -0.414797331949911 1.86929818761286
0.790775106560023 -0.571001500116842 1.84955241307299
1.1961520063373 2.44082503347093 0.305261459860648
1.98549025366685 1.17550694213757 1.03006799314552
0.64910674680399 0.517475719095425 1.76482567813643
2.6932112063458 -0.451718247288933 0.356979162816279
2.04332170676015 1.42628358778424 0.769627173098293
0.209300091640909 2.71375245374668 0.207101723151672
1.29566703908763 -2.00233967944228 0.871700960267079
1.734869 2.283819 0
1.21808665167313 -1.28569386925081 1.53980174133919
1.4454589473163 -0.978823581462955 1.61534630998396
1.04249971581108 -0.71975353001827 1.81645402223271
0.558711602735342 -1.43197121705156 1.45443311472707
1.13767364018049 1.98085563152228 0.923333619832365
1.26956560908368 0.802752873713715 1.65547774022871
1.86111243029004 -0.383693697126647 1.53792204759904
0.369816691790927 0.805155530295406 1.59225820632726
1.0897545 2.6487865 0
0.22630998359305 -0.578247605145071 1.61360468221776
0 2.875 0
1.7405125 -2.2333075 0
0.312418690422355 1.89048332760923 1.03576236082836
0.492022416343679 -0.759763001157456 1.72357965208068
1.57604997879687 -1.23210020335934 1.40656529196628
0.261078868773999 -1.57150347877927 1.23796255476679
0.825077567499451 2.22047597674433 0.767294238858055
0.619369389400568 2.43390966075323 0.555455159837079
1.43948275775466 0.488193297169081 1.70966183248296
0.34198935 2.846662 0
2.15700328462474 -0.782289146735991 1.12461893626628
0.729832 2.7701985 0
0.229210668174353 -0.923198018004517 1.52341380982982
2.8436815 0.1350817 0
0 -2.8318545 0
0.2338356252619 -0.234558156357022 1.66353020702606
2.42191785491117 0.12249166836082 0.937122236240684
0.512913686912821 -1.10750795933986 1.60734852638959
0.696012938761197 1.31415418883723 1.45286144663242
0.36573565 -2.8015485 0
8.44614408618969e-16 -0.722955773189881 1.35328394292599
9.01160129902114e-16 0.629611314022432 1.41775028470047
0.84478319037117 -1.83030015474002 1.18880034397009
4.65550045662636e-16 -1.98046622366088 0.774349303246201
2.018515 2.028546 0
1.9918475 -2.009949 0
0.7281875 -2.727469 0
2.07118368681281 1.79241938567502 0.311137229584763
3 0 1 122
3 78 52 7
3 101 21 116
3 45 23 22
3 152 58 27
3 136 124 123
3 60 118 35
3 53 63 102
3 28 29 118
3 66 64 74
3 102 85 86
3 26 160 24
3 97 99 98
3 41 136 40
3 125 18 54
3 9 10 86
3 22 104 46
3 46 102 45
3 111 77 110
3 54 57 125
3 80 47 110
3 116 129 0
3 9 67 68
3 106 122 1
3 59 126 96
3 72 42 147
3 71 53 49
3 51 22 128
3 129 31 30
3 68 10 9
3 53 102 86
3 35 34 60
3 44 123 50
3 40 56 41
3 30 38 96
3 111 8 132
3 25 114 85
3 49 113 71
3 33 115 160
3 138 54 101
3 46 85 102
3 68 67 12
3 145 95 14
3 81 82 107
3 2 16 141
3 147 71 113
3 95 94 150
3 89 117 151
3 12 11 13
3 32 59 119
3 139 16 121
3 128 55 51
3 24 23 76
3 36 114 172
3 117 89 155
3 143 5 146
3 45 84 75
3 28 118 60
3 45 75 23
3 22 51 104
3 60 34 37
3 88 28 30
3 145 169 158
3 122 106 90
3 94 151 150
3 162 17 43
3 71 147 42
3 140 107 62
3 112 39 93
3 103 12 78
3 64 48 159
3 4 72 135
3 151 94 70
3 68 12 103
3 86 85 36
3 154 62 76
3 31 129 116
3 37 34 115
3 161 97 156
3 149 148 47
3 83 50 93
3 121 2 162
3 81 107 140
3 1 126 59
3 20 122 87
3 163 94 158
3 115 33 37
3 32 120 59
3 89 131 153
3 89 153 155
3 29 88 105
3 23 24 128
3 154 61 62
3 128 24 69
3 125 57 117
3 34 35 157
3 327 7 164
3 63 42 84
3 70 100 131
3 106 139 121
3 43 19 87
3 14 95 19
3 93 3 112
3 108 107 82
3 141 74 334
3 64 65 74
3 6 79 80
3 156 143 146
3 138 20 87
3 26 107 108
3 0 20 116
3 8 111 168
3 119 38 37
3 129 96 126
3 108 160 26
3 10 53 86
3 132 103 111
3 62 26 76
3 117 155 142
3 119 33 32
3 144 9 36
3 86 36 9
3 76 75 154
3 55 128 69
3 29 28 88
3 130 6 7
3 23 75 76
3 53 10 49
3 164 7 52
3 114 36 85
3 45 22 46
3 25 85 46
3 4 44 50
3 152 39 15
3 121 162 90
3 137 97 161
3 139 15 16
3 19 138 87
3 150 54 138
3 333 143 156
3 141 334 166
3 107 26 62
3 115 24 160
3 136 41 124
3 1 59 58
3 42 72 61
3 138 19 95
3 77 6 80
3 113 49 8
3 78 6 77
3 7 6 78
3 120 108 82
3 70 163 100
3 127 66 74
3 151 70 89
3 84 154 75
3 115 69 24
3 42 61 154
3 67 11 12
3 10 68 132
3 123 124 3
3 161 146 41
3 97 148 99
3 143 165 159
3 139 58 152
3 156 98 333
3 113 8 91
3 120 58 59
3 53 71 63
3 92 91 168
3 4 140 61
3 62 61 140
3 27 82 81
3 57 150 151
3 119 96 38
3 108 32 160
3 24 76 26
3 103 77 111
3 154 84 42
3 327 130 7
3 49 132 8
3 69 34 157
3 30 28 38
3 125 73 18
3 9 144 67
3 103 132 68
3 141 16 127
3 34 69 115
3 45 102 84
3 128 22 23
3 83 152 27
3 3 93 123
3 109 166 170
3 43 90 162
3 44 40 136
3 148 97 137
3 92 47 148
3 148 137 92
3 20 138 101
3 8 168 91
3 32 108 120
3 163 70 94
3 101 116 20
3 16 2 121
3 48 64 66
3 52 78 12
3 52 12 13
3 80 110 77
3 80 79 336
3 49 10 132
3 103 78 77
3 117 57 151
3 63 71 42
3 60 38 28
3 160 32 33
3 30 96 129
3 3 48 112
3 83 93 39
3 56 40 134
3 146 124 41
3 92 110 47
3 138 95 150
3 81 50 83
3 96 119 59
3 167 159 165
3 94 95 145
3 44 135 40
3 112 66 127
3 0 129 126
3 134 147 113
3 27 120 82
3 141 166 109
3 73 133 18
3 72 4 61
3 97 98 156
3 142 73 125
3 125 117 142
3 88 174 105
3 37 33 119
3 67 144 11
3 84 102 63
3 54 150 57
3 333 165 143
3 87 90 43
3 123 44 136
3 113 91 134
3 134 40 135
3 137 91 92
3 127 16 15
3 5 159 48
3 2 109 162
3 159 5 143
3 161 41 56
3 90 87 122
3 39 112 15
3 4 135 44
3 120 27 58
3 168 110 92
3 145 158 94
3 168 111 110
3 112 48 66
3 162 109 17
3 91 137 56
3 50 140 4
3 146 5 124
3 27 81 83
3 56 137 161
3 50 81 140
3 14 19 43
3 127 15 112
3 58 106 1
3 167 64 159
3 91 56 134
3 147 134 135
3 17 14 43
3 139 106 58
3 2 141 109
3 83 39 152
3 3 5 48
3 15 139 152
3 161 156 146
3 106 121 90
3 70 131 89
3 50 123 93
3 153 131 313
3 135 72 147
3 127 74 141
3 122 20 0
3 17 170 169
3 3 124 5
3 21 171 174
3 145 14 17
3 313 131 100
3 74 65 334
3 1 0 126
3 88 30 31
3 47 336 149
3 47 80 336
3 17 169 145
3 79 6 130
3 148 149 99
3 60 37 38
3 65 64 167
3 69 157 55
3 170 17 109
3 25 46 104
3 101 54 18
3 172 144 36
3 52 13 173
3 21 101 18
3 21 18 133
3 174 31 116
3 173 164 52
3 88 31 174
3 21 133 171
3 174 116 21
3 174 171 105
3 175 292 176
3 252 182 227
3 271 286 196
3 220 197 198
3 321 202 233
3 305 293 294
3 235 210 288
3 228 272 238
3 203 288 204
3 240 248 239
3 272 259 258
3 201 199 329
3 270 98 99
3 216 215 305
3 295 229 193
3 184 259 185
3 197 221 274
3 221 220 272
3 281 280 251
3 229 295 232
3 253 280 222
3 286 175 299
3 184 242 241
3 276 176 292
3 234 269 296
3 246 317 217
3 245 224 228
3 226 298 197
3 299 205 206
3 242 184 185
3 228 259 272
3 210 235 209
3 219 225 293
3 215 216 231
3 205 269 213
3 281 301 183
3 200 258 284
3 224 245 283
3 208 329 285
3 307 271 229
3 221 272 258
3 242 187 241
3 315 189 268
3 254 277 255
3 177 310 191
3 317 283 245
3 268 319 267
3 262 320 287
3 187 188 186
3 207 289 234
3 308 291 191
3 298 226 230
3 199 250 198
3 211 338 284
3 287 324 262
3 312 316 180
3 220 249 257
3 203 235 288
3 220 198 249
3 197 274 226
3 235 212 209
3 261 205 203
3 315 158 169
3 292 263 276
3 267 319 320
3 331 218 192
3 245 217 317
3 309 237 277
3 282 266 214
3 273 252 187
3 239 328 223
3 179 304 246
3 320 244 267
3 242 273 187
3 259 211 258
3 323 250 237
3 206 286 299
3 212 285 209
3 330 325 270
3 149 222 318
3 256 266 225
3 291 331 177
3 254 309 277
3 176 234 296
3 195 260 292
3 163 158 267
3 285 212 208
3 207 234 290
3 262 322 300
3 262 324 322
3 204 275 261
3 198 298 199
3 323 237 236
3 298 243 199
3 295 287 232
3 209 326 210
3 327 332 182
3 238 257 217
3 244 300 100
3 276 291 308
3 218 260 194
3 189 194 268
3 266 282 178
3 278 255 277
3 310 334 248
3 239 248 65
3 181 253 79
3 325 316 312
3 307 260 195
3 201 278 277
3 175 286 195
3 183 335 281
3 289 212 213
3 299 296 269
3 278 201 329
3 185 259 228
3 301 281 273
3 237 250 201
3 287 311 324
3 289 207 208
3 314 211 184
3 259 184 211
3 250 323 249
3 230 243 298
3 204 261 203
3 130 182 181
3 198 250 249
3 228 224 185
3 332 227 182
3 284 258 211
3 220 221 197
3 200 221 258
3 179 225 219
3 321 190 214
3 291 263 331
3 306 330 270
3 308 191 190
3 194 260 307
3 319 307 229
3 333 325 312
3 310 166 334
3 277 237 201
3 285 329 199
3 305 294 216
3 176 233 234
3 217 236 246
3 307 268 194
3 251 253 181
3 283 183 224
3 252 251 181
3 182 252 181
3 290 255 278
3 244 100 163
3 297 248 240
3 320 262 244
3 257 249 323
3 285 199 243
3 217 323 236
3 241 187 186
3 185 301 242
3 293 178 294
3 330 216 316
3 270 99 318
3 312 328 165
3 308 321 233
3 325 333 98
3 283 264 183
3 290 234 233
3 228 238 245
3 265 335 264
3 179 236 309
3 237 309 236
3 202 254 255
3 232 320 319
3 289 213 269
3 278 329 207
3 199 201 250
3 273 281 251
3 323 217 257
3 327 182 130
3 224 183 301
3 243 326 209
3 205 213 203
3 295 193 247
3 184 241 314
3 273 242 301
3 310 297 191
3 209 285 243
3 220 257 272
3 298 198 197
3 256 202 321
3 178 293 266
3 279 170 166
3 218 331 263
3 219 305 215
3 318 306 270
3 265 318 222
3 318 265 306
3 195 271 307
3 183 264 335
3 207 290 278
3 163 267 244
3 271 195 286
3 191 291 177
3 223 240 239
3 227 187 252
3 227 188 187
3 253 251 280
3 253 336 79
3 224 301 185
3 273 251 252
3 287 320 232
3 238 217 245
3 235 203 213
3 329 208 207
3 205 299 269
3 178 282 223
3 256 214 266
3 231 303 215
3 316 216 294
3 265 222 280
3 307 319 268
3 254 256 225
3 269 234 289
3 167 165 328
3 267 315 268
3 219 215 304
3 282 297 240
3 175 296 299
3 303 283 317
3 202 255 290
3 310 279 166
3 247 193 302
3 246 236 179
3 270 325 98
3 311 295 247
3 295 311 287
3 261 275 340
3 212 289 208
3 241 186 314
3 257 238 272
3 229 232 319
3 333 312 165
3 260 218 263
3 293 305 219
3 283 303 264
3 303 304 215
3 306 265 264
3 297 190 191
3 180 223 328
3 177 331 279
3 328 312 180
3 330 231 216
3 263 292 260
3 214 190 282
3 179 219 304
3 290 233 202
3 335 265 280
3 315 267 158
3 335 280 281
3 282 240 223
3 331 192 279
3 264 231 306
3 225 179 309
3 316 294 180
3 202 256 254
3 231 330 306
3 225 309 254
3 189 218 194
3 297 282 190
3 233 176 276
3 167 328 239
3 264 303 231
3 317 304 303
3 192 218 189
3 308 233 276
3 177 279 310
3 256 321 214
3 178 223 180
3 190 321 308
3 330 316 325
3 276 263 291
3 244 262 300
3 225 266 293
3 322 313 300
3 304 317 246
3 297 310 248
3 292 175 195
3 192 169 170
3 178 180 294
3 196 340 337
3 315 192 189
3 313 100 300
3 248 334 65
3 176 296 175
3 261 206 205
3 222 149 336
3 222 336 253
3 192 315 169
3 79 130 181
3 318 99 149
3 235 213 212
3 65 167 239
3 243 230 326
3 170 279 192
3 200 274 221
3 271 193 229
3 338 211 314
3 227 339 188
3 196 193 271
3 196 302 193
3 340 286 206
3 339 227 332
3 261 340 206
3 196 337 302
3 340 196 286
3 340 275 337
