OFF
341 634 0
-1.87134102622445 1.55588880836048 1.13553245286502
-1.8553061527843 1.18263481842129 1.43559323898315
-0.647097285579972 1.08326182009702 1.70065090244509
-0.849592782091176 -0.239405161822171 2.07725930046494
-1.75606301244009 -0.719753169408265 1.81839593531731
-0.490699098449832 -0.436973896964809 1.94586097503647
-0.327598746655743 -2.47008028245002 0.590180604749367
-0.327563984911347 -2.68036297730958 0.279326132575004
-1.21765620928984 -1.91594851120564 1.27675181308236
-1.77398040444517 -2.13544166474784 0.448147767292038
-1.71677405970788 -2.01125498287142 0.811245159778139
-1.378267 -2.4724155 0
-1.14265841166629 -2.50462820820214 0.38117900533262
-1.043999 -2.6257105 0
-0.599409697369371 1.84334911754098 1.2628332678913
-1.08273385538653 0.549940513083184 1.97185590180829
-0.851565500370086 0.844186309481411 1.85297826211538
-0.36065897901719 1.58315019491998 1.35440613719407
-1.54496672823854 2.31545599090715 0.391191853435149
-0.931026842543447 1.91011754043568 1.23296035183711
-1.56608400281557 1.84171891918762 1.0870104527368
-1.8385154047218 2.10128594334938 0.417205228523584
-2.6915767019914 -0.888787572190249 0.376641101806388
-2.66462139455314 -0.670045656890015 0.723464398934017
-2.71026229232014 -0.23716982273419 0.809830339190784
-2.442172 -1.4404695 0
-2.48455375251474 -0.191687270611997 1.22736204089663
-1.85398994717278 0.374036904384838 1.78383832548091
-2.58791728713346 1.16464018298309 0.340339014272992
-2.5214225 1.337173 0
-2.40130842701299 1.35179018552152 0.621477000257327
-2.20115370481416 1.6640217332468 0.56466883694854
-2.40526696296835 0.505154089603083 1.24044572835646
-2.60283522231632 0.437579128517722 0.948128128126489
-2.81790564318525 0.362282247179692 0.363382806893318
-2.7938135 0.556047 0
-2.03405638994969 -1.95822233736578 0.266208070758878
-2.69385116666124 0.594422651513639 0.674360438633596
-2.57022774587935 0.980599668462408 0.671014804642217
-1.26430502296329 0.258845743532981 2.02693770028906
-1.1661162522503 -1.08392816710749 1.88934424904878
-0.798415954896952 -0.995130387356667 1.91292301134491
-2.04364613510928 -1.17917258464463 1.3796003516287
-0.824295720166235 1.65611740738019 1.42723422631025
-1.41473572188833 -0.738348052298463 1.96344141762173
-2.52521253551502 -1.08241779950239 0.703527307622786
-2.51778228097993 -1.28559039611317 0.381425252511082
-0.265513619489944 -1.93164101982893 1.09748522790707
-0.515892472884591 -0.067958174319111 1.97304471781036
-1.60023478179513 -1.84804556003983 1.15101897462449
-1.60807512948921 -0.339085455222596 1.97109064400759
-2.759513 -0.687972 0
-0.741118455661187 -2.66198907835842 0.243862733895573
-1.95569741071919 -1.7125464571328 0.961124561903889
-1.25609432883049 2.30902541341986 0.691512997447212
-2.8325905 -0.2767446 0
-0.873843676022687 -1.34318932299813 1.7592454504985
-0.977635612582443 2.46593726419519 0.582194678049677
-1.7988498395136 0.806681086431996 1.67653619699122
-2.18649965399106 0.887488695301087 1.33120718730696
-2.73215902128844 0.776606994212286 0.351818652186336
-2.06472760949975 -0.787492212786636 1.56528548195869
-2.29103221391961 -0.492377700694957 1.42679178232289
-2.10530314179254 -1.42601833302315 1.09376814539881
-0.219838432544877 0.103556530846093 1.75876990407516
9.08357172709679e-16 0.282916224242484 1.47156376746755
-0.504038274984724 0.252338931112331 1.92359605211973
-1.50888711593635 -2.34936363955998 0.300861458703676
-1.43722395237963 -2.27572364648993 0.627076844941025
-2.83671062232565 -0.060081924454342 0.398308185086745
-0.289140353759133 2.52832374676507 0.533912056574844
-1.81524672211412 -1.54366554479653 1.29668202917545
-1.83056092259931 -1.0301773816872 1.64172833382039
-1.436765 2.4796805 0
-0.266430941058016 0.466183660327843 1.73254774542727
-2.48869685867749 -0.864481878595992 0.971235230621122
-2.52636743054771 -0.536904524474312 1.08213683852323
-0.66144049080247 -2.34057363867737 0.838438981972296
-0.723875394074989 -2.5336055182717 0.540257103778174
3.26860747167697e-16 -2.26652352589929 0.558633415265755
-0.292588484265343 -2.21697291075293 0.85780346559877
-1.90205879426612 -0.0535366156676478 1.81321730992795
-2.10586557335723 0.179644885007548 1.63298740305478
-1.5891603791188 0.104590852168143 1.96559227847417
-2.31476116504065 -1.1668797023832 1.04023060075158
-2.29816302251515 -1.63564269971244 0.360531710352141
-2.04417452907959 -1.83512811093984 0.616193426018463
-1.22403764859654 1.76300667173521 1.31022692734431
-2.38654326249361 1.53581866654745 0.295747896882472
-0.528458139472335 2.69413869347769 0.313969780343069
-1.15260423695224 1.4461638428781 1.55006738290536
-0.975087119939748 -1.677656647995 1.54052659470458
-0.573776575760923 -1.81587336807594 1.35813676309856
-1.24133808174195 -0.0868443140929862 2.07714212873608
-0.375404835740122 2.2747837925146 0.85006430735167
-0.701985422972748 2.10344802440033 1.07373239007932
-2.34309400840707 1.13461101804013 0.963407966780038
-0.231133955221786 -1.30932947807501 1.47820872324353
8.13090260244254e-16 -1.06136377225255 1.28236544871563
7.58623658014941e-16 -1.37830143420519 1.14960583566911
-1.48018707645884e-17 2.59785703154039 0.287639625818895
-1.57706595395315 2.09787716425073 0.765062169729212
-2.2918608240253 -1.47247799393823 0.741000947439351
-1.06204691606136 -2.35628309782756 0.747863793775176
-2.6284375 -1.0799385 0
-2.3073685 1.6868645 0
-1.48044925777123 1.15875750475828 1.64269840744848
-2.21382867788813 -0.147315177772536 1.55670223443691
-2.35242509978069 0.169160751769563 1.38816019064505
-0.322942809545776 1.20508807070268 1.51350953599409
-0.591595414211156 -2.09851112778013 1.10498414444965
-0.971700851822171 -2.16086578163643 1.05430617583433
-0.873606647775236 0.179196292940497 2.05240861095661
-1.4303779196415 -1.64589618335657 1.45765568321058
-2.225156 -1.7493455 0
-2.74541196095999 0.182970935849428 0.711146739995614
-1.91911857675719 1.85114408283875 0.755237460295321
-0.873485456516339 2.62751515573315 0.321973209208355
-2.683809 0.961791 0
-2.48462830357954 0.777083911918987 0.998456822838805
-2.13298053598486 0.524411262719332 1.53251128581834
-1.05235753034373 1.14162349063269 1.72843154383401
-1.53685678192375 1.50931646011337 1.39330701711823
-1.18574064247278 -0.456840756982422 2.06840983187921
-0.798376836711867 -0.620755985205793 2.02391216903211
-1.22368773119393 2.49699568673612 0.34271118940618
-2.10761565034377 1.25007112676118 1.16492304260027
-0.65217113775396 0.54246945371776 1.91225449800593
-2.7963487253471 -0.470597937487801 0.401762359711966
-2.15318239526282 1.50698817733615 0.872067070819441
1.98131892546977e-16 -2.56451919450683 0.279083326892713
-0.214278468043374 2.73456689679714 0.226819120109933
-1.35277912076771 -2.12034958586891 0.96454459389167
-1.734869 2.283819 0
-1.27360208533125 -1.39350417752565 1.70125213379373
-1.52511185565575 -1.06859045052592 1.79822579569319
-1.07599683823849 -0.785697939021991 2.00277641871079
-0.55896405176354 -1.51988253592698 1.56976695856358
-1.18750013321748 2.08004036477103 1.02823489789842
-1.32963402432923 0.85446808066503 1.83361373968013
-1.98880024238138 -0.424577554135813 1.72999409183951
-0.364062100623396 0.830891503446169 1.68896252823131
-1.0897545 2.6487865 0
-0.205273706960849 -0.607339901099215 1.70563967379895
-1.7405125 -2.2333075 0
-0.30931385093121 1.93666355024938 1.10074920108248
-0.478575387308673 -0.812479626960169 1.85959116525944
-1.66869722152616 -1.33788749562249 1.56986013698669
-0.250620031024816 -1.62933985394647 1.30822254489321
6.32591054523781e-16 -1.68470315093602 0.984420826373846
-0.853658822711463 2.31006363394013 0.851154956550417
-0.636044835434376 2.50552324629473 0.615501793878093
-1.51685949537529 0.519883728727753 1.90343088796519
-0.34198935 2.846662 0
-2.30557429549251 -0.848516753149245 1.27173310227558
-0.729832 2.7701985 0
-0.211194880690528 -0.964580357381778 1.6091334136126
-2.8436815 0.1350817 0
1.77153471803833e-16 1.99449623799449 0.813684407204129
-0.211232260674136 -0.249817908866338 1.75991400150487
-2.58369253288039 0.124911212840983 1.06508587407497
-0.505354197756396 -1.17960192653859 1.73348414994533
-0.713530974915535 1.37659735224034 1.57705239993652
4.78073286943529e-17 2.28713353040019 0.579140116498973
-0.36573565 -2.8015485 0
9.17897432308433e-16 -0.397373369567355 1.44605988313095
7.22655415017387e-16 0.961125819975219 1.35288922008495
9.05892902768185e-16 -0.0619873329573573 1.47512845510658
-0.870485366539211 -1.94332425158342 1.29544669661153
3.44622780557443e-16 1.65712918539542 1.03678329881738
5.38030032069978e-16 1.31478376740875 1.21629027704692
-2.018515 2.028546 0
-1.9918475 -2.009949 0
-0.7281875 -2.727469 0
-2.13197386525003 1.84598200621129 0.352232280551285
1.87134102622445 1.55588880836048 1.13553245286503
1.8553061527843 1.18263481842129 1.43559323898316
0.647097285579974 1.08326182009702 1.70065090244509
0.849592782091179 -0.239405161822171 2.07725930046495
1.7560630124401 -0.719753169408265 1.81839593531731
0.490699098449834 -0.43697389696481 1.94586097503647
0.327598746655743 -2.47008028245002 0.590180604749366
0.327563984911347 -2.68036297730958 0.279326132575004
1.21765620928984 -1.91594851120564 1.27675181308236
1.77398040444517 -2.13544166474784 0.448147767292038
1.71677405970788 -2.01125498287142 0.811245159778139
1.378267 -2.4724155 0
1.14265841166629 -2.50462820820214 0.38117900533262
1.043999 -2.6257105 0
0.599409697369372 1.84334911754098 1.2628332678913
1.08273385538653 0.549940513083184 1.97185590180829
0.851565500370089 0.844186309481412 1.85297826211538
0.360658979017191 1.58315019491998 1.35440613719407
1.54496672823854 2.31545599090715 0.391191853435149
0.931026842543448 1.91011754043569 1.23296035183711
1.56608400281557 1.84171891918762 1.0870104527368
1.8385154047218 2.10128594334938 0.417205228523584
2.6915767019914 -0.888787572190249 0.376641101806387
2.66462139455314 -0.670045656890015 0.723464398934017
2.71026229232015 -0.23716982273419 0.809830339190785
2.442172 -1.4404695 0
2.48455375251474 -0.191687270611997 1.22736204089664
1.85398994717278 0.374036904384837 1.78383832548091
2.58791728713346 1.16464018298309 0.340339014272992
2.5214225 1.337173 0
2.40130842701299 1.35179018552152 0.621477000257327
2.20115370481416 1.6640217332468 0.56466883694854
2.40526696296835 0.505154089603083 1.24044572835646
2.60283522231633 0.437579128517722 0.94812812812649
2.81790564318525 0.362282247179693 0.363382806893319
2.7938135 0.556047 0
2.03405638994969 -1.95822233736578 0.266208070758878
2.69385116666124 0.594422651513639 0.674360438633596
2.57022774587935 0.980599668462408 0.671014804642217
1.26430502296329 0.258845743532981 2.02693770028907
1.1661162522503 -1.08392816710749 1.88934424904878
0.798415954896954 -0.995130387356667 1.91292301134492
2.04364613510928 -1.17917258464463 1.37960035162871
0.824295720166236 1.65611740738019 1.42723422631025
1.41473572188833 -0.738348052298464 1.96344141762173
2.52521253551502 -1.08241779950239 0.703527307622785
2.51778228097993 -1.28559039611317 0.381425252511082
0.265513619489945 -1.93164101982893 1.09748522790707
0.515892472884594 -0.067958174319111 1.97304471781036
1.60023478179513 -1.84804556003983 1.15101897462449
1.60807512948921 -0.339085455222596 1.97109064400759
2.759513 -0.687972 0
0.741118455661187 -2.66198907835842 0.243862733895573
1.95569741071919 -1.7125464571328 0.961124561903889
1.25609432883049 2.30902541341986 0.691512997447211
2.8325905 -0.2767446 0
0.873843676022689 -1.34318932299813 1.7592454504985
0.977635612582444 2.46593726419519 0.582194678049677
1.7988498395136 0.806681086431996 1.67653619699123
2.18649965399106 0.887488695301087 1.33120718730697
2.73215902128844 0.776606994212286 0.351818652186336
2.06472760949975 -0.787492212786636 1.5652854819587
2.29103221391961 -0.492377700694957 1.42679178232289
2.10530314179254 -1.42601833302315 1.09376814539881
0.219838432544879 0.103556530846093 1.75876990407517
0.504038274984727 0.252338931112332 1.92359605211973
1.50888711593635 -2.34936363955998 0.300861458703677
1.43722395237963 -2.27572364648993 0.627076844941025
2.83671062232565 -0.0600819244543419 0.398308185086745
0.289140353759133 2.52832374676507 0.533912056574844
1.81524672211412 -1.54366554479653 1.29668202917545
1.83056092259931 -1.0301773816872 1.64172833382039
1.436765 2.4796805 0
0.266430941058018 0.466183660327843 1.73254774542727
2.48869685867749 -0.864481878595992 0.971235230621122
2.52636743054772 -0.536904524474312 1.08213683852323
0.661440490802471 -2.34057363867737 0.838438981972296
0.723875394074989 -2.5336055182717 0.540257103778175
0.292588484265344 -2.21697291075293 0.85780346559877
1.90205879426612 -0.0535366156676478 1.81321730992796
2.10586557335723 0.179644885007548 1.63298740305479
1.5891603791188 0.104590852168143 1.96559227847418
2.31476116504065 -1.1668797023832 1.04023060075158
2.29816302251516 -1.63564269971244 0.360531710352141
2.04417452907959 -1.83512811093984 0.616193426018463
1.22403764859654 1.76300667173521 1.31022692734431
2.38654326249361 1.53581866654745 0.295747896882472
0.528458139472334 2.69413869347769 0.313969780343069
1.15260423695224 1.4461638428781 1.55006738290536
0.97508711993975 -1.677656647995 1.54052659470458
0.573776575760924 -1.81587336807594 1.35813676309857
1.24133808174195 -0.0868443140929864 2.07714212873608
0.375404835740123 2.2747837925146 0.85006430735167
0.701985422972749 2.10344802440034 1.07373239007932
2.34309400840707 1.13461101804013 0.963407966780039
0.231133955221788 -1.30932947807501 1.47820872324353
1.57706595395315 2.09787716425073 0.765062169729211
2.29186082402531 -1.47247799393823 0.741000947439351
1.06204691606136 -2.35628309782756 0.747863793775177
2.6284375 -1.0799385 0
2.3073685 1.6868645 0
1.48044925777123 1.15875750475828 1.64269840744848
2.21382867788813 -0.147315177772536 1.55670223443691
2.35242509978069 0.169160751769563 1.38816019064505
0.322942809545777 1.20508807070268 1.51350953599409
0.591595414211157 -2.09851112778013 1.10498414444965
0.971700851822173 -2.16086578163643 1.05430617583434
0.87360664777524 0.179196292940497 2.05240861095661
1.4303779196415 -1.64589618335657 1.45765568321058
2.225156 -1.7493455 0
2.74541196095999 0.182970935849428 0.711146739995615
1.91911857675719 1.85114408283875 0.755237460295321
0.87348545651634 2.62751515573315 0.321973209208354
2.683809 0.961791 0
2.48462830357954 0.777083911918987 0.998456822838806
2.13298053598486 0.524411262719332 1.53251128581835
1.05235753034373 1.14162349063269 1.72843154383401
1.53685678192376 1.50931646011337 1.39330701711823
1.18574064247278 -0.456840756982422 2.06840983187921
0.798376836711869 -0.620755985205793 2.02391216903211
1.22368773119393 2.49699568673612 0.342711189406179
2.10761565034377 1.25007112676118 1.16492304260027
0.652171137753962 0.54246945371776 1.91225449800594
2.7963487253471 -0.470597937487801 0.401762359711966
2.15318239526282 1.50698817733615 0.872067070819442
0.214278468043374 2.73456689679714 0.226819120109933
1.35277912076771 -2.12034958586891 0.96454459389167
1.734869 2.283819 0
1.27360208533126 -1.39350417752565 1.70125213379373
1.52511185565575 -1.06859045052592 1.79822579569319
1.07599683823849 -0.785697939021992 2.00277641871079
0.558964051763542 -1.51988253592698 1.56976695856358
1.18750013321748 2.08004036477103 1.02823489789842
1.32963402432923 0.85446808066503 1.83361373968013
1.98880024238138 -0.424577554135813 1.72999409183951
0.364062100623398 0.830891503446169 1.68896252823131
1.0897545 2.6487865 0
0.205273706960852 -0.607339901099215 1.70563967379895
0 2.875 0
1.7405125 -2.2333075 0
0.309313850931211 1.93666355024939 1.10074920108248
0.478575387308675 -0.812479626960169 1.85959116525944
1.66869722152616 -1.33788749562249 1.56986013698669
0.250620031024817 -1.62933985394647 1.30822254489321
0.853658822711463 2.31006363394013 0.851154956550416
0.636044835434376 2.50552324629473 0.615501793878092
1.51685949537529 0.519883728727753 1.90343088796519
0.34198935 2.846662 0
2.30557429549252 -0.848516753149245 1.27173310227558
0.729832 2.7701985 0
0.21119488069053 -0.964580357381778 1.6091334136126
2.8436815 0.1350817 0
0 -2.8318545 0
0.211232260674139 -0.249817908866338 1.75991400150487
2.58369253288039 0.124911212840983 1.06508587407498
0.505354197756398 -1.17960192653859 1.73348414994533
0.713530974915536 1.37659735224034 1.57705239993652
0.36573565 -2.8015485 0
8.9225076475915e-16 -0.733879460758194 1.38166135439535
8.69148261486736e-16 0.627720985133897 1.43269254240017
0.870485366539212 -1.94332425158342 1.29544669661153
4.27335023880849e-16 -1.98119987228067 0.786850498335891
2.018515 2.028546 0
1.9918475 -2.009949 0
0.7281875 -2.727469 0
2.13197386525003 1.84598200621129 0.352232280551285
3 0 1 122
3 78 52 7
3 101 21 116
3 45 23 22
3 152 58 27
3 136 124 123
3 60 118 35
3 53 63 102
3 28 29 118
3 66 64 74
3 102 85 86
3 26 160 24
3 97 99 98
3 41 136 40
3 125 18 54
3 9 10 86
3 22 104 46
3 46 102 45
3 111 77 110
3 54 57 125
3 80 47 110
3 116 129 0
3 9 67 68
3 106 122 1
3 59 126 96
3 72 42 147
3 71 53 49
3 51 22 128
3 129 31 30
3 68 10 9
3 53 102 86
3 35 34 60
3 44 123 50
3 40 56 41
3 30 38 96
3 111 8 132
3 25 114 85
3 49 113 71
3 33 115 160
3 138 54 101
3 46 85 102
3 68 67 12
3 145 95 14
3 81 82 107
3 2 16 141
3 147 71 113
3 95 94 150
3 89 117 151
3 12 11 13
3 32 59 119
3 139 16 121
3 128 55 51
3 24 23 76
3 36 114 172
3 117 89 155
3 143 5 146
3 45 84 75
3 28 118 60
3 45 75 23
3 22 51 104
3 60 34 37
3 88 28 30
3 145 169 158
3 122 106 90
3 94 151 150
3 162 17 43
3 71 147 42
3 140 107 62
3 112 39 93
3 103 12 78
3 64 48 159
3 4 72 135
3 151 94 70
3 68 12 103
3 86 85 36
3 154 62 76
3 31 129 116
3 37 34 115
3 161 97 156
3 149 148 47
3 83 50 93
3 121 2 162
3 81 107 140
3 1 126 59
3 20 122 87
3 163 94 158
3 115 33 37
3 32 120 59
3 89 131 153
3 89 153 155
3 29 88 105
3 23 24 128
3 154 61 62
3 128 24 69
3 125 57 117
3 34 35 157
3 327 7 164
3 63 42 84
3 70 100 131
3 106 139 121
3 43 19 87
3 14 95 19
3 93 3 112
3 108 107 82
3 141 74 334
3 64 65 74
3 6 79 80
3 156 143 146
3 138 20 87
3 26 107 108
3 0 20 116
3 8 111 168
3 119 38 37
3 129 96 126
3 108 160 26
3 10 53 86
3 132 103 111
3 62 26 76
3 117 155 142
3 119 33 32
3 144 9 36
3 86 36 9
3 76 75 154
3 55 128 69
3 29 28 88
3 130 6 7
3 23 75 76
3 53 10 49
3 164 7 52
3 114 36 85
3 45 22 46
3 25 85 46
3 4 44 50
3 152 39 15
3 121 162 90
3 137 97 161
3 139 15 16
3 19 138 87
3 150 54 138
3 333 143 156
3 141 334 166
3 107 26 62
3 115 24 160
3 136 41 124
3 1 59 58
3 42 72 61
3 138 19 95
3 77 6 80
3 113 49 8
3 78 6 77
3 7 6 78
3 120 108 82
3 70 163 100
3 127 66 74
3 151 70 89
3 84 154 75
3 115 69 24
3 42 61 154
3 67 11 12
3 10 68 132
3 123 124 3
3 161 146 41
3 97 148 99
3 143 165 159
3 139 58 152
3 156 98 333
3 113 8 91
3 120 58 59
3 53 71 63
3 92 91 168
3 4 140 61
3 62 61 140
3 27 82 81
3 57 150 151
3 119 96 38
3 108 32 160
3 24 76 26
3 103 77 111
3 154 84 42
3 327 130 7
3 49 132 8
3 69 34 157
3 30 28 38
3 125 73 18
3 9 144 67
3 103 132 68
3 141 16 127
3 34 69 115
3 45 102 84
3 128 22 23
3 83 152 27
3 3 93 123
3 109 166 170
3 43 90 162
3 44 40 136
3 148 97 137
3 92 47 148
3 148 137 92
3 20 138 101
3 8 168 91
3 32 108 120
3 163 70 94
3 101 116 20
3 16 2 121
3 48 64 66
3 52 78 12
3 52 12 13
3 80 110 77
3 80 79 336
3 49 10 132
3 103 78 77
3 117 57 151
3 63 71 42
3 60 38 28
3 160 32 33
3 30 96 129
3 3 48 112
3 83 93 39
3 56 40 134
3 146 124 41
3 92 110 47
3 138 95 150
3 81 50 83
3 96 119 59
3 167 159 165
3 94 95 145
3 44 135 40
3 112 66 127
3 0 129 126
3 134 147 113
3 27 120 82
3 141 166 109
3 73 133 18
3 72 4 61
3 97 98 156
3 142 73 125
3 125 117 142
3 88 174 105
3 37 33 119
3 67 144 11
3 84 102 63
3 54 150 57
3 333 165 143
3 87 90 43
3 123 44 136
3 113 91 134
3 134 40 135
3 137 91 92
3 127 16 15
3 5 159 48
3 2 109 162
3 159 5 143
3 161 41 56
3 90 87 122
3 39 112 15
3 4 135 44
3 120 27 58
3 168 110 92
3 145 158 94
3 168 111 110
3 112 48 66
3 162 109 17
3 91 137 56
3 50 140 4
3 146 5 124
3 27 81 83
3 56 137 161
3 50 81 140
3 14 19 43
3 127 15 112
3 58 106 1
3 167 64 159
3 91 56 134
3 147 134 135
3 17 14 43
3 139 106 58
3 2 141 109
3 83 39 152
3 3 5 48
3 15 139 152
3 161 156 146
3 106 121 90
3 70 131 89
3 50 123 93
3 153 131 313
3 135 72 147
3 127 74 141
3 122 20 0
3 17 170 169
3 3 124 5
3 21 171 174
3 145 14 17
3 313 131 100
3 74 65 334
3 1 0 126
3 88 30 31
3 47 336 149
3 47 80 336
3 17 169 145
3 79 6 130
3 148 149 99
3 60 37 38
3 65 64 167
3 69 157 55
3 170 17 109
3 25 46 104
3 101 54 18
3 172 144 36
3 52 13 173
3 21 101 18
3 21 18 133
3 174 31 116
3 173 164 52
3 88 31 174
3 21 133 171
3 174 116 21
3 174 171 105
3 175 292 176
3 252 182 227
3 271 286 196
3 220 197 198
3 321 202 233
3 305 293 294
3 235 210 288
3 228 272 238
3 203 288 204
3 240 248 239
3 272 259 258
3 201 199 329
3 270 98 99
3 216 215 305
3 295 229 193
3 184 259 185
3 197 221 274
3 221 220 272
3 281 280 251
3 229 295 232
3 253 280 222
3 286 175 299
3 184 242 241
3 276 176 292
3 234 269 296
3 246 317 217
3 245 224 228
3 226 298 197
3 299 205 206
3 242 184 185
3 228 259 272
3 210 235 209
3 219 225 293
3 215 216 231
3 205 269 213
3 281 301 183
3 200 258 284
3 224 245 283
3 208 329 285
3 307 271 229
3 221 272 258
3 242 187 241
3 315 189 268
3 254 277 255
3 177 310 191
3 317 283 245
3 268 319 267
3 262 320 287
3 187 188 186
3 207 289 234
3 308 291 191
3 298 226 230
3 199 250 198
3 211 338 284
3 287 324 262
3 312 316 180
3 220 249 257
3 203 235 288
3 220 198 249
3 197 274 226
3 235 212 209
3 261 205 203
3 315 158 169
3 292 263 276
3 267 319 320
3 331 218 192
3 245 217 317
3 309 237 277
3 282 266 214
3 273 252 187
3 239 328 223
3 179 304 246
3 320 244 267
3 242 273 187
3 259 211 258
3 323 250 237
3 206 286 299
3 212 285 209
3 330 325 270
3 149 222 318
3 256 266 225
3 291 331 177
3 254 309 277
3 176 234 296
3 195 260 292
3 163 158 267
3 285 212 208
3 207 234 290
3 262 322 300
3 262 324 322
3 204 275 261
3 198 298 199
3 323 237 236
3 298 243 199
3 295 287 232
3 209 326 210
3 327 332 182
3 238 257 217
3 244 300 100
3 276 291 308
3 218 260 194
3 189 194 268
3 266 282 178
3 278 255 277
3 310 334 248
3 239 248 65
3 181 253 79
3 325 316 312
3 307 260 195
3 201 278 277
3 175 286 195
3 183 335 281
3 289 212 213
3 299 296 269
3 278 201 329
3 185 259 228
3 301 281 273
3 237 250 201
3 287 311 324
3 289 207 208
3 314 211 184
3 259 184 211
3 250 323 249
3 230 243 298
3 204 261 203
3 130 182 181
3 198 250 249
3 228 224 185
3 332 227 182
3 284 258 211
3 220 221 197
3 200 221 258
3 179 225 219
3 321 190 214
3 291 263 331
3 306 330 270
3 308 191 190
3 194 260 307
3 319 307 229
3 333 325 312
3 310 166 334
3 277 237 201
3 285 329 199
3 305 294 216
3 176 233 234
3 217 236 246
3 307 268 194
3 251 253 181
3 283 183 224
3 252 251 181
3 182 252 181
3 290 255 278
3 244 100 163
3 297 248 240
3 320 262 244
3 257 249 323
3 285 199 243
3 217 323 236
3 241 187 186
3 185 301 242
3 293 178 294
3 330 216 316
3 270 99 318
3 312 328 165
3 308 321 233
3 325 333 98
3 283 264 183
3 290 234 233
3 228 238 245
3 265 335 264
3 179 236 309
3 237 309 236
3 202 254 255
3 232 320 319
3 289 213 269
3 278 329 207
3 199 201 250
3 273 281 251
3 323 217 257
3 327 182 130
3 224 183 301
3 243 326 209
3 205 213 203
3 295 193 247
3 184 241 314
3 273 242 301
3 310 297 191
3 209 285 243
3 220 257 272
3 298 198 197
3 256 202 321
3 178 293 266
3 279 170 166
3 218 331 263
3 219 305 215
3 318 306 270
3 265 318 222
3 318 265 306
3 195 271 307
3 183 264 335
3 207 290 278
3 163 267 244
3 271 195 286
3 191 291 177
3 223 240 239
3 227 187 252
3 227 188 187
3 253 251 280
3 253 336 79
3 224 301 185
3 273 251 252
3 287 320 232
3 238 217 245
3 235 203 213
3 329 208 207
3 205 299 269
3 178 282 223
3 256 214 266
3 231 303 215
3 316 216 294
3 265 222 280
3 307 319 268
3 254 256 225
3 269 234 289
3 167 165 328
3 267 315 268
3 219 215 304
3 282 297 240
3 175 296 299
3 303 283 317
3 202 255 290
3 310 279 166
3 247 193 302
3 246 236 179
3 270 325 98
3 311 295 247
3 295 311 287
3 261 275 340
3 212 289 208
3 241 186 314
3 257 238 272
3 229 232 319
3 333 312 165
3 260 218 263
3 293 305 219
3 283 303 264
3 303 304 215
3 306 265 264
3 297 190 191
3 180 223 328
3 177 331 279
3 328 312 180
3 330 231 216
3 263 292 260
3 214 190 282
3 179 219 304
3 290 233 202
3 335 265 280
3 315 267 158
3 335 280 281
3 282 240 223
3 331 192 279
3 264 231 306
3 225 179 309
3 316 294 180
3 202 256 254
3 231 330 306
3 225 309 254
3 189 218 194
3 297 282 190
3 233 176 276
3 167 328 239
3 264 303 231
3 317 304 303
3 192 218 189
3 308 233 276
3 177 279 310
3 256 321 214
3 178 223 180
3 190 321 308
3 330 316 325
3 276 263 291
3 244 262 300
3 225 266 293
3 322 313 300
3 304 317 246
3 297 310 248
3 292 175 195
3 192 169 170
3 178 180 294
3 196 340 337
3 315 192 189
3 313 100 300
3 248 334 65
3 176 296 175
3 261 206 205
3 222 149 336
3 222 336 253
3 192 315 169
3 79 130 181
3 318 99 149
3 235 213 212
3 65 167 239
3 243 230 326
3 170 279 192
3 200 274 221
3 271 193 229
3 338 211 314
3 227 339 188
3 196 193 271
3 196 302 193
3 340 286 206
3 339 227 332
3 261 340 206
3 196 337 302
3 340 196 286
3 340 275 337
