OFF
341 634 0
-0.174584036176426 0.147176452087594 0.0986371047944298
-0.172923028899968 0.111354348277569 0.126895778453134
-0.0635581175888903 0.103718350472525 0.156522020729483
-0.0820923932017902 -0.0249655837376528 0.197650300695204
-0.165596917247935 -0.0707267340796021 0.167570372987638
-0.0480641194408439 -0.0445974428863146 0.186056191068699
-0.0323088645866794 -0.244177126449772 0.0536355949307075
-0.0322734307327887 -0.265725420022578 0.0249272968697503
-0.115262832156883 -0.186107647084078 0.115820832114128
-0.169690730924726 -0.20684884497318 0.0387700734199134
-0.161601396147773 -0.193143648500998 0.0712821985150259
-0.1378267 -0.24724155 0
-0.110186063665574 -0.24523797548802 0.0327670893788017
-0.1043999 -0.26257105 0
-0.0585173335790282 0.179058547409732 0.115328636505727
-0.103733736358045 0.051929471697441 0.182696436300414
-0.0824553461238532 0.0802151922198426 0.170555593922471
-0.0361879764445148 0.154692231306767 0.126775547685233
-0.148808102931839 0.225322918279724 0.0326918175382687
-0.0891064604622435 0.183751886198305 0.109662720190848
-0.146883962978322 0.175207935825232 0.0941142136037785
-0.176291522560911 0.203632009052374 0.0349562120153082
-0.257568606131928 -0.0859039532118729 0.032772869541325
-0.249725842406976 -0.0641143741077464 0.063065612319286
-0.252958795166247 -0.0230437432189511 0.0704648335271745
-0.2442172 -0.14404695 0
-0.230539266439216 -0.0190152310522995 0.108470667230903
-0.173796027700294 0.0346421552582288 0.162029526838449
-0.248758638174118 0.112338204730326 0.0291574527474542
-0.25214225 0.1337173 0
-0.22664917275068 0.128557216046736 0.053206640731554
-0.208705175690155 0.159464717709976 0.0480342567399036
-0.223147037504971 0.0465677551506657 0.109189392937575
-0.242329317823026 0.040260382389815 0.0826062552234141
-0.269939917274921 0.0344150075461944 0.0314178166011018
-0.27938135 0.0556047 0
-0.197079015600399 -0.191102347147604 0.0230600885519286
-0.253064648772794 0.0555276822794958 0.0583491798975148
-0.241635172233008 0.0928209799918006 0.0576930151973715
-0.120693195168417 0.0238555927770674 0.1889247764354
-0.111500028008681 -0.107667263892465 0.17736920761212
-0.0770544823316645 -0.099608034172567 0.181342280882522
-0.190487049611593 -0.113448206201708 0.123783115360516
-0.0795074406251028 0.159084029574463 0.128439654710128
-0.134795830815046 -0.0734078474262812 0.183824258990242
-0.237110072975725 -0.103267318807598 0.0614507960085154
-0.240983194971643 -0.124167561782337 0.0332157989722001
-0.0261450950222152 -0.190766859148082 0.103245045783896
-0.0503846740789695 -0.00811027510749716 0.188908157540512
-0.150197166414672 -0.177747956479727 0.103008187163232
-0.15244788997248 -0.0341813720162756 0.183050311623167
-0.2759513 -0.0687972 0
-0.0725142274858342 -0.263118842063837 0.0211453572021082
-0.183041369811582 -0.16354373172611 0.0849416728053288
-0.11964263223285 0.222776247026892 0.0590232779481464
-0.28325905 -0.02767446 0
-0.0839946866519228 -0.133403584513269 0.165131581543161
-0.0939927999480092 0.23985588515763 0.0498809314363905
-0.168159176395779 0.0757717019824804 0.150493679747635
-0.202970794413703 0.0829511677833847 0.117298515168161
-0.262111688918609 0.0747969957358278 0.0302331405644352
-0.192899608006825 -0.076340738098293 0.141689798787244
-0.21308316783834 -0.0477833606784493 0.127737365705287
-0.196408202080204 -0.135850966045551 0.0971789754175778
-0.0222110384975232 0.00889999559265199 0.169264212071699
2.50719474469455e-05 0.0271733744989703 0.14410199402802
-0.0494301004199882 0.0234885215788157 0.183536921093886
-0.146112640195731 -0.230091552195495 0.0258472146290962
-0.136481285573598 -0.220443488481172 0.054519990461285
-0.270782104924517 -0.00613871443093331 0.0345159082488318
-0.0289191046491635 0.249975603182434 0.0485722539163776
-0.169842282991661 -0.147964069607588 0.116614744782062
-0.171861117984498 -0.100259205243543 0.149896074970662
-0.1436765 0.24796805 0
-0.0272016984803668 0.0445833581366392 0.165786094576744
-0.231843888058587 -0.0824779774978806 0.085407206948736
-0.234748379916525 -0.0517223303548174 0.0952325935238319
-0.0637948281555664 -0.229613700360919 0.0752699624506354
-0.0698910516727264 -0.248733765487688 0.0473731112829119
4.44176514575928e-05 -0.226567006068907 0.0535883366836029
-0.0287762224948068 -0.219118790798369 0.0796602387422349
-0.178549495650952 -0.006380934677308 0.165698388564451
-0.196439050747308 0.0159725178872282 0.147227133608106
-0.150470711503669 0.00883184584561532 0.18172263653998
-0.215653029381053 -0.111072984247354 0.0918339333349068
-0.220539307659622 -0.158342829958372 0.0313727671081196
-0.193367662077044 -0.176031052872441 0.053638916197482
-0.115751920763509 0.16822489392863 0.115361670747319
-0.230620647147998 0.149215957647612 0.0250658611774143
-0.0518269564574018 0.265834558997218 0.0270505309259621
-0.109410216423573 0.137603209748705 0.138323434793903
-0.0931718533429376 -0.164490098970512 0.142648294493169
-0.0555419232660421 -0.178636050134875 0.126688284204838
-0.11882259994541 -0.00983156573240233 0.195221350274433
-0.0373572721370456 0.223755795262862 0.0781209308257712
-0.068010834861392 0.204224015416039 0.0963544255398678
-0.218295185847979 0.106678770942225 0.0834964998743257
-0.0233713269749243 -0.130361119286488 0.140338815966148
-4.44825966193768e-05 -0.10651693698977 0.124222167857919
-1.82364720631659e-05 -0.13747593832233 0.111088288332012
-1.36956830237084e-05 0.26023083769214 0.0279411539976648
-0.148997462914699 0.200977074432657 0.0652188323818242
-0.215225975491057 -0.140294886952118 0.0647730071580604
-0.101111108019184 -0.229452388329688 0.0656993654412815
-0.26284375 -0.10799385 0
-0.23073685 0.16868645 0
-0.139162567520626 0.109578585305652 0.146926609213301
-0.206184658724053 -0.0151439764901715 0.140031424469697
-0.218387376986888 0.0149401644826518 0.123410073137698
-0.0328815742132126 0.117188972875214 0.142447657345333
-0.0572384508418076 -0.206154502180515 0.101553180531661
-0.0925732716450821 -0.210708199199653 0.0949394096704263
-0.0844163489601246 0.0161711952801156 0.193832923502332
-0.13499319306131 -0.159526223056512 0.133059864067098
-0.2225156 -0.17493455 0
-0.257320504391137 0.016633854096899 0.0616710323683754
-0.180510392808711 0.176571294274603 0.0643496301206668
-0.0849647813197622 0.258295418746337 0.0271461453169381
-0.2683809 0.0961791 0
-0.231119686384377 0.0724097097740554 0.0869124633664741
-0.198399596112261 0.0486860102162945 0.136860691321193
-0.100573176341506 0.108500597280347 0.156412472550744
-0.144012997435933 0.143014168111226 0.122636812400098
-0.113716456630345 -0.0461720487813882 0.195353924221527
-0.0771490480428215 -0.0627003288321976 0.192752682522832
-0.118593688133845 0.244405686327299 0.0286779502293006
-0.196127320960554 0.117658608157989 0.10168973297715
-0.0638520012677218 0.0515169924612405 0.179537680889794
-0.266885544433405 -0.045536813740153 0.0348905793569519
-0.201418803393266 0.142765300639976 0.0750212169861281
4.24754338968909e-05 -0.256801170409754 0.0269520042284716
-0.0213867166381647 0.271801941988951 0.0202157506348691
-0.127653611820506 -0.204934709920478 0.0856296836523131
-0.1734869 0.2283819 0
-0.12102765325584 -0.137035377533329 0.157535030760628
-0.144422639283654 -0.105040533473786 0.166540469320437
-0.103306617735307 -0.0787362958475776 0.189611633242988
-0.0543924725340519 -0.150489624328235 0.147344390714326
-0.11252217512434 0.199454204321257 0.0893893585884069
-0.125925639730432 0.0808060813814494 0.166630939594044
-0.186381941346371 -0.041889419025452 0.157751390969538
-0.0371195301273729 0.0799703689524523 0.159065822399927
-0.10897545 0.26487865 0
-0.021125195590268 -0.061315097122559 0.16340056492086
-0.17405125 -0.22333075 0
-0.0308563538916109 0.19072490516023 0.103499704583847
-0.0469963498176218 -0.0816442719862714 0.177070949670897
-0.156827612708424 -0.130080936172065 0.143104424545871
-0.0249740890070874 -0.161300082941738 0.123741623216402
-4.56204050483552e-05 -0.167496425824264 0.0949155293505351
-0.0820197377239416 0.223908746819283 0.074538247646243
-0.0617853801047395 0.245075557224402 0.0538118837580137
-0.143324825462623 0.0487990802453909 0.174302455123733
-0.034198935 0.2846662 0
-0.21442942674043 -0.0813576484021244 0.113167625254853
-0.0729832 0.27701985 0
-0.0216371243915068 -0.0966625805099445 0.153518378149738
-0.28436815 0.01350817 0
9.84826759507161e-06 0.198666154303262 0.0796288601974561
-0.021535916782667 -0.0260141442799591 0.169105972919064
-0.239932697729181 0.0108478381558699 0.0932537424836563
-0.0494548703176447 -0.117744133790021 0.164037958158996
-0.0695397358577324 0.132062349884607 0.143492656772353
-2.60702711816206e-06 0.228392341172162 0.0566901616977818
-0.036573565 -0.28015485 0
1.71792514601725e-05 -0.0404527539503162 0.140819546386212
2.45859800918063e-05 0.0952336015154744 0.134776877182043
2.25857204965721e-05 -0.0071669091867623 0.143836626831161
-0.0832822619470099 -0.190284259710395 0.118983955811837
1.74429263293294e-05 0.164650041992298 0.101829125179108
2.21891972857476e-05 0.130500922710183 0.120373405981665
-0.2018515 0.2028546 0
-0.19918475 -0.2009949 0
-0.07281875 -0.2727469 0
-0.205119260110873 0.17912656748472 0.0296477602071309
0.174633370354156 0.14698070486885 0.0985964596227148
0.172985725470691 0.11108692988456 0.126825691830012
0.0636112238089421 0.103632725872114 0.156484350305056
0.0821554760961289 -0.0250210163966729 0.197558252682845
0.165653529367898 -0.0708663210889747 0.16728710069542
0.0481230274504883 -0.0446053311012367 0.186010255650872
0.0324543580909699 -0.244210106847645 0.0536200073432198
0.0323503753538849 -0.265708808372152 0.0249246103893542
0.11549755176061 -0.18604978250508 0.115681068849495
0.169671921230614 -0.206703025793656 0.0389014940983852
0.161739038540936 -0.192986372519226 0.0711443360608245
0.1378267 -0.24724155 0
0.110387937485718 -0.245041443073815 0.0329006774256687
0.1043999 -0.26257105 0
0.0585526938974646 0.178988560925625 0.115329878028927
0.103793947990342 0.0518006552122244 0.182603515790835
0.0825132642552406 0.0801065974025498 0.170495228634695
0.0362285789812872 0.154642937439157 0.126768119018186
0.14882810249807 0.225273029610754 0.0326942578913619
0.0891436410264849 0.183659948610077 0.109660685463458
0.146928349719124 0.175069297978186 0.0940950299392159
0.176324352388018 0.203550092417165 0.034958953891438
0.257489063100846 -0.0859279633236859 0.0327745000917946
0.249580251623916 -0.0641348806876477 0.0630685393628427
0.252776108268411 -0.0231522672533319 0.0705165703311773
0.2442172 -0.14404695 0
0.23039136126815 -0.0191206585043268 0.108333374350932
0.17386601125733 0.0343888177892912 0.161829898811792
0.248632275913201 0.11254635211425 0.0291182929395513
0.25214225 0.1337173 0
0.226652881963644 0.128469872514788 0.0531358646155412
0.208752076999981 0.159361166983982 0.0479638514996924
0.223095221016448 0.0462100107209111 0.109097655751472
0.242168796376826 0.0401293363843243 0.0826551444819427
0.269892633871617 0.0343197567004231 0.0314314902380205
0.27938135 0.0556047 0
0.197029422030768 -0.191071292178857 0.0230936386877657
0.252984496114557 0.0553307795348013 0.058386009820343
0.241568355731279 0.092650121947491 0.0577538185407755
0.1207535863478 0.0237201657788026 0.188797725776653
0.111615528302952 -0.107699803545757 0.177218558753926
0.0771606357408318 -0.0995893512565667 0.181281759683419
0.190583916176417 -0.113135995185557 0.123615749129635
0.0795500271430577 0.158990617897409 0.128424083179711
0.134870076378755 -0.0735063392336762 0.18362193548781
0.236949136692162 -0.103315092842008 0.0614355688853643
0.240884160636832 -0.124204397063177 0.0332202716421178
0.0262815801426933 -0.190889521907017 0.103267947393052
0.0504405731138838 -0.00814821009902557 0.188853012414685
0.150400367459698 -0.177653165332204 0.102766350966515
0.152503693605009 -0.0343141558001419 0.18283682293605
0.2759513 -0.0687972 0
0.072587336278278 -0.263073113398645 0.0211672200364995
0.183061979102301 -0.163478379503798 0.08473501329505
0.119673153125052 0.222702190570044 0.0590382184903682
0.28325905 -0.02767446 0
0.084197441291835 -0.13336016628689 0.165085954119387
0.0940308284033605 0.239786982097625 0.0499196325281769
0.168236211359635 0.075472090112149 0.150371972364341
0.203060527121133 0.0824884171507742 0.117205769013459
0.262117643106403 0.0746035421351631 0.0302279148636705
0.192909980904899 -0.0766011162434281 0.141298363636196
0.213028509035661 -0.0480756731717452 0.127405028776069
0.196316431618171 -0.135964267673773 0.0969010775714497
0.0222630967727406 0.00887819848163609 0.169236342151738
0.0494849138899316 0.0234377143531976 0.183484962379121
0.146283120240341 -0.229858630452258 0.0260108889890695
0.136781916891011 -0.220152118428259 0.0545691784958968
0.270709983700575 -0.00619864823263118 0.0345352066656654
0.0288949093560193 0.249865979406813 0.0487063650402456
0.169962037054579 -0.147881687313218 0.116347825664208
0.171972909520099 -0.100251138880847 0.149588762669004
0.1436765 0.24796805 0
0.0272554182209753 0.0445496276976614 0.165756134704749
0.231664821314955 -0.0824843862200238 0.0853674026599944
0.234550319168963 -0.0516209668636307 0.095235668471275
0.0640111986615754 -0.229635880417251 0.0752195468086235
0.070054272489926 -0.248680245438327 0.0473715285859732
0.0290284641933311 -0.219353151526601 0.0796167310657265
0.178595398834077 -0.00654475573184208 0.165446553434553
0.196498626028664 0.0158265998444883 0.146929989481928
0.150529253408479 0.00866749200424324 0.181542834383544
0.215450480085566 -0.111141016680992 0.0917564745137339
0.220440580431438 -0.158357405716914 0.03139050391099
0.193213223415514 -0.176000675296863 0.0537025158966759
0.11579535361379 0.168102248883412 0.115342616760781
0.230598505988196 0.149143189240829 0.02511020490446
0.0518209853318314 0.265905428316316 0.0269456728172824
0.109460339465093 0.137467287574898 0.138284873315151
0.0934471078423484 -0.164458337325077 0.142570161673395
0.0557748119104919 -0.178699343446254 0.126683610357279
0.118883676263474 -0.00993933306908789 0.195080985545279
0.037372552311926 0.223691399704947 0.0781730645069696
0.0680410774822017 0.204149145526304 0.0963741846314847
0.218304119504537 0.10640552812443 0.0834765181057225
0.0233739280619115 -0.130466784668183 0.140310761494482
0.149032110209759 0.200878299267509 0.0652156483067551
0.214961694944048 -0.14042428358962 0.0647904197696561
0.101382590396893 -0.229359443650931 0.065617492081442
0.26284375 -0.10799385 0
0.23073685 0.16868645 0
0.139221805377028 0.109380116691022 0.146856271661936
0.206198409412337 -0.0152491215139906 0.139715323575358
0.21834088996918 0.0147779549166077 0.123172782383067
0.0329308856763739 0.117142685957791 0.142430248040451
0.0574578123091054 -0.206228480456476 0.101517090892037
0.0928153863877115 -0.210679016721169 0.0948470017268007
0.0844752729452532 0.0160866370193535 0.193744550302519
0.135170630438691 -0.159454753122341 0.132880718343272
0.2225156 -0.17493455 0
0.257195310608092 0.0165140345997222 0.0617055033131096
0.180559298542258 0.176429403763525 0.0643306708312261
0.0850368269458092 0.258282169495338 0.0271197748922691
0.2683809 0.0961791 0
0.231063430224806 0.0719470398822781 0.0869954880500471
0.198525853302828 0.0481352597509814 0.136661662690544
0.100628194746606 0.108367642772923 0.156357627922474
0.144064789363884 0.142837946192625 0.122594390355885
0.113786025474038 -0.0462476874648683 0.19521090727647
0.0772243916423194 -0.0627196861913784 0.192672198209222
0.118620206236843 0.244370573603484 0.0286824518487464
0.196175603081781 0.117382574088673 0.101635196300991
0.0639090360801002 0.051440901570503 0.179479099849927
0.266804808584413 -0.0455722677674788 0.0349030819958738
0.201454381457817 0.142586513789301 0.0749764893395227
0.0213246915996262 0.271887977412066 0.0201092066762403
0.127924954906084 -0.204818792279573 0.0854644906049641
0.1734869 0.2283819 0
0.121188947765238 -0.136991624791206 0.157377754177413
0.144486814851011 -0.105213313833895 0.16625033309678
0.103394542364033 -0.0787776018097024 0.189484205158521
0.0545154521195364 -0.150628107923694 0.147271388016915
0.112558140020544 0.199355737609182 0.089394893818095
0.125987540565452 0.0806293562733204 0.166541378670759
0.186404084039997 -0.0420714531134044 0.157454597488916
0.0371740622411063 0.0799198567446452 0.159035864858809
0.10897545 0.26487865 0
0.021168414122598 -0.0612875256968336 0.163393417299951
0 0.2875 0
0.17405125 -0.22333075 0
0.0308854540477225 0.190681851419577 0.103510383050499
0.0470633419444776 -0.0815991771321435 0.177055869885508
0.156906231798848 -0.129977535887787 0.142933167034824
0.0249770253761883 -0.161241522270498 0.123787272417687
0.0820495738934443 0.223822038692747 0.0745851620955941
0.0618149837209127 0.244936925080681 0.0539642545490809
0.143389165570925 0.0486059733098316 0.174166734584412
0.034198935 0.2846662 0
0.214256568664044 -0.0813609334966759 0.113065971253229
0.0729832 0.27701985 0
0.0216671985282598 -0.0965301380276435 0.153572821683176
0.28436815 0.01350817 0
0 -0.28318545 0
0.0215856230723426 -0.0260209385623117 0.169082014612164
0.239729163817737 0.0107202119610593 0.0932916771775611
0.0495440962553822 -0.11762478668278 0.164087085115567
0.0695881636932862 0.131972310797753 0.143465457198589
0.036573565 -0.28015485 0
2.61444222927522e-06 -0.0738568361635934 0.134290994613439
2.59803872366111e-05 0.0617227049115778 0.141711979799517
0.0835227672472558 -0.190287385527192 0.118912901677891
-6.80571359849517e-05 -0.197317109176298 0.0755919143759328
0.2018515 0.2028546 0
0.19918475 -0.2009949 0
0.07281875 -0.2727469 0
0.205215186333177 0.178930076999561 0.0296852655101124
3 0 1 122
3 78 52 7
3 101 21 116
3 45 23 22
3 152 58 27
3 136 124 123
3 60 118 35
3 53 63 102
3 28 29 118
3 66 64 74
3 102 85 86
3 26 160 24
3 97 99 98
3 41 136 40
3 125 18 54
3 9 10 86
3 22 104 46
3 46 102 45
3 111 77 110
3 54 57 125
3 80 47 110
3 116 129 0
3 9 67 68
3 106 122 1
3 59 126 96
3 72 42 147
3 71 53 49
3 51 22 128
3 129 31 30
3 68 10 9
3 53 102 86
3 35 34 60
3 44 123 50
3 40 56 41
3 30 38 96
3 111 8 132
3 25 114 85
3 49 113 71
3 33 115 160
3 138 54 101
3 46 85 102
3 68 67 12
3 145 95 14
3 81 82 107
3 2 16 141
3 147 71 113
3 95 94 150
3 89 117 151
3 12 11 13
3 32 59 119
3 139 16 121
3 128 55 51
3 24 23 76
3 36 114 172
3 117 89 155
3 143 5 146
3 45 84 75
3 28 118 60
3 45 75 23
3 22 51 104
3 60 34 37
3 88 28 30
3 145 169 158
3 122 106 90
3 94 151 150
3 162 17 43
3 71 147 42
3 140 107 62
3 112 39 93
3 103 12 78
3 64 48 159
3 4 72 135
3 151 94 70
3 68 12 103
3 86 85 36
3 154 62 76
3 31 129 116
3 37 34 115
3 161 97 156
3 149 148 47
3 83 50 93
3 121 2 162
3 81 107 140
3 1 126 59
3 20 122 87
3 163 94 158
3 115 33 37
3 32 120 59
3 89 131 153
3 89 153 155
3 29 88 105
3 23 24 128
3 154 61 62
3 128 24 69
3 125 57 117
3 34 35 157
3 327 7 164
3 63 42 84
3 70 100 131
3 106 139 121
3 43 19 87
3 14 95 19
3 93 3 112
3 108 107 82
3 141 74 334
3 64 65 74
3 6 79 80
3 156 143 146
3 138 20 87
3 26 107 108
3 0 20 116
3 8 111 168
3 119 38 37
3 129 96 126
3 108 160 26
3 10 53 86
3 132 103 111
3 62 26 76
3 117 155 142
3 119 33 32
3 144 9 36
3 86 36 9
3 76 75 154
3 55 128 69
3 29 28 88
3 130 6 7
3 23 75 76
3 53 10 49
3 164 7 52
3 114 36 85
3 45 22 46
3 25 85 46
3 4 44 50
3 152 39 15
3 121 162 90
3 137 97 161
3 139 15 16
3 19 138 87
3 150 54 138
3 333 143 156
3 141 334 166
3 107 26 62
3 115 24 160
3 136 41 124
3 1 59 58
3 42 72 61
3 138 19 95
3 77 6 80
3 113 49 8
3 78 6 77
3 7 6 78
3 120 108 82
3 70 163 100
3 127 66 74
3 151 70 89
3 84 154 75
3 115 69 24
3 42 61 154
3 67 11 12
3 10 68 132
3 123 124 3
3 161 146 41
3 97 148 99
3 143 165 159
3 139 58 152
3 156 98 333
3 113 8 91
3 120 58 59
3 53 71 63
3 92 91 168
3 4 140 61
3 62 61 140
3 27 82 81
3 57 150 151
3 119 96 38
3 108 32 160
3 24 76 26
3 103 77 111
3 154 84 42
3 327 130 7
3 49 132 8
3 69 34 157
3 30 28 38
3 125 73 18
3 9 144 67
3 103 132 68
3 141 16 127
3 34 69 115
3 45 102 84
3 128 22 23
3 83 152 27
3 3 93 123
3 109 166 170
3 43 90 162
3 44 40 136
3 148 97 137
3 92 47 148
3 148 137 92
3 20 138 101
3 8 168 91
3 32 108 120
3 163 70 94
3 101 116 20
3 16 2 121
3 48 64 66
3 52 78 12
3 52 12 13
3 80 110 77
3 80 79 336
3 49 10 132
3 103 78 77
3 117 57 151
3 63 71 42
3 60 38 28
3 160 32 33
3 30 96 129
3 3 48 112
3 83 93 39
3 56 40 134
3 146 124 41
3 92 110 47
3 138 95 150
3 81 50 83
3 96 119 59
3 167 159 165
3 94 95 145
3 44 135 40
3 112 66 127
3 0 129 126
3 134 147 113
3 27 120 82
3 141 166 109
3 73 133 18
3 72 4 61
3 97 98 156
3 142 73 125
3 125 117 142
3 88 174 105
3 37 33 119
3 67 144 11
3 84 102 63
3 54 150 57
3 333 165 143
3 87 90 43
3 123 44 136
3 113 91 134
3 134 40 135
3 137 91 92
3 127 16 15
3 5 159 48
3 2 109 162
3 159 5 143
3 161 41 56
3 90 87 122
3 39 112 15
3 4 135 44
3 120 27 58
3 168 110 92
3 145 158 94
3 168 111 110
3 112 48 66
3 162 109 17
3 91 137 56
3 50 140 4
3 146 5 124
3 27 81 83
3 56 137 161
3 50 81 140
3 14 19 43
3 127 15 112
3 58 106 1
3 167 64 159
3 91 56 134
3 147 134 135
3 17 14 43
3 139 106 58
3 2 141 109
3 83 39 152
3 3 5 48
3 15 139 152
3 161 156 146
3 106 121 90
3 70 131 89
3 50 123 93
3 153 131 313
3 135 72 147
3 127 74 141
3 122 20 0
3 17 170 169
3 3 124 5
3 21 171 174
3 145 14 17
3 313 131 100
3 74 65 334
3 1 0 126
3 88 30 31
3 47 336 149
3 47 80 336
3 17 169 145
3 79 6 130
3 148 149 99
3 60 37 38
3 65 64 167
3 69 157 55
3 170 17 109
3 25 46 104
3 101 54 18
3 172 144 36
3 52 13 173
3 21 101 18
3 21 18 133
3 174 31 116
3 173 164 52
3 88 31 174
3 21 133 171
3 174 116 21
3 174 171 105
3 175 292 176
3 252 182 227
3 271 286 196
3 220 197 198
3 321 202 233
3 305 293 294
3 235 210 288
3 228 272 238
3 203 288 204
3 240 248 239
3 272 259 258
3 201 199 329
3 270 98 99
3 216 215 305
3 295 229 193
3 184 259 185
3 197 221 274
3 221 220 272
3 281 280 251
3 229 295 232
3 253 280 222
3 286 175 299
3 184 242 241
3 276 176 292
3 234 269 296
3 246 317 217
3 245 224 228
3 226 298 197
3 299 205 206
3 242 184 185
3 228 259 272
3 210 235 209
3 219 225 293
3 215 216 231
3 205 269 213
3 281 301 183
3 200 258 284
3 224 245 283
3 208 329 285
3 307 271 229
3 221 272 258
3 242 187 241
3 315 189 268
3 254 277 255
3 177 310 191
3 317 283 245
3 268 319 267
3 262 320 287
3 187 188 186
3 207 289 234
3 308 291 191
3 298 226 230
3 199 250 198
3 211 338 284
3 287 324 262
3 312 316 180
3 220 249 257
3 203 235 288
3 220 198 249
3 197 274 226
3 235 212 209
3 261 205 203
3 315 158 169
3 292 263 276
3 267 319 320
3 331 218 192
3 245 217 317
3 309 237 277
3 282 266 214
3 273 252 187
3 239 328 223
3 179 304 246
3 320 244 267
3 242 273 187
3 259 211 258
3 323 250 237
3 206 286 299
3 212 285 209
3 330 325 270
3 149 222 318
3 256 266 225
3 291 331 177
3 254 309 277
3 176 234 296
3 195 260 292
3 163 158 267
3 285 212 208
3 207 234 290
3 262 322 300
3 262 324 322
3 204 275 261
3 198 298 199
3 323 237 236
3 298 243 199
3 295 287 232
3 209 326 210
3 327 332 182
3 238 257 217
3 244 300 100
3 276 291 308
3 218 260 194
3 189 194 268
3 266 282 178
3 278 255 277
3 310 334 248
3 239 248 65
3 181 253 79
3 325 316 312
3 307 260 195
3 201 278 277
3 175 286 195
3 183 335 281
3 289 212 213
3 299 296 269
3 278 201 329
3 185 259 228
3 301 281 273
3 237 250 201
3 287 311 324
3 289 207 208
3 314 211 184
3 259 184 211
3 250 323 249
3 230 243 298
3 204 261 203
3 130 182 181
3 198 250 249
3 228 224 185
3 332 227 182
3 284 258 211
3 220 221 197
3 200 221 258
3 179 225 219
3 321 190 214
3 291 263 331
3 306 330 270
3 308 191 190
3 194 260 307
3 319 307 229
3 333 325 312
3 310 166 334
3 277 237 201
3 285 329 199
3 305 294 216
3 176 233 234
3 217 236 246
3 307 268 194
3 251 253 181
3 283 183 224
3 252 251 181
3 182 252 181
3 290 255 278
3 244 100 163
3 297 248 240
3 320 262 244
3 257 249 323
3 285 199 243
3 217 323 236
3 241 187 186
3 185 301 242
3 293 178 294
3 330 216 316
3 270 99 318
3 312 328 165
3 308 321 233
3 325 333 98
3 283 264 183
3 290 234 233
3 228 238 245
3 265 335 264
3 179 236 309
3 237 309 236
3 202 254 255
3 232 320 319
3 289 213 269
3 278 329 207
3 199 201 250
3 273 281 251
3 323 217 257
3 327 182 130
3 224 183 301
3 243 326 209
3 205 213 203
3 295 193 247
3 184 241 314
3 273 242 301
3 310 297 191
3 209 285 243
3 220 257 272
3 298 198 197
3 256 202 321
3 178 293 266
3 279 170 166
3 218 331 263
3 219 305 215
3 318 306 270
3 265 318 222
3 318 265 306
3 195 271 307
3 183 264 335
3 207 290 278
3 163 267 244
3 271 195 286
3 191 291 177
3 223 240 239
3 227 187 252
3 227 188 187
3 253 251 280
3 253 336 79
3 224 301 185
3 273 251 252
3 287 320 232
3 238 217 245
3 235 203 213
3 329 208 207
3 205 299 269
3 178 282 223
3 256 214 266
3 231 303 215
3 316 216 294
3 265 222 280
3 307 319 268
3 254 256 225
3 269 234 289
3 167 165 328
3 267 315 268
3 219 215 304
3 282 297 240
3 175 296 299
3 303 283 317
3 202 255 290
3 310 279 166
3 247 193 302
3 246 236 179
3 270 325 98
3 311 295 247
3 295 311 287
3 261 275 340
3 212 289 208
3 241 186 314
3 257 238 272
3 229 232 319
3 333 312 165
3 260 218 263
3 293 305 219
3 283 303 264
3 303 304 215
3 306 265 264
3 297 190 191
3 180 223 328
3 177 331 279
3 328 312 180
3 330 231 216
3 263 292 260
3 214 190 282
3 179 219 304
3 290 233 202
3 335 265 280
3 315 267 158
3 335 280 281
3 282 240 223
3 331 192 279
3 264 231 306
3 225 179 309
3 316 294 180
3 202 256 254
3 231 330 306
3 225 309 254
3 189 218 194
3 297 282 190
3 233 176 276
3 167 328 239
3 264 303 231
3 317 304 303
3 192 218 189
3 308 233 276
3 177 279 310
3 256 321 214
3 178 223 180
3 190 321 308
3 330 316 325
3 276 263 291
3 244 262 300
3 225 266 293
3 322 313 300
3 304 317 246
3 297 310 248
3 292 175 195
3 192 169 170
3 178 180 294
3 196 340 337
3 315 192 189
3 313 100 300
3 248 334 65
3 176 296 175
3 261 206 205
3 222 149 336
3 222 336 253
3 192 315 169
3 79 130 181
3 318 99 149
3 235 213 212
3 65 167 239
3 243 230 326
3 170 279 192
3 200 274 221
3 271 193 229
3 338 211 314
3 227 339 188
3 196 193 271
3 196 302 193
3 340 286 206
3 339 227 332
3 261 340 206
3 196 337 302
3 340 196 286
3 340 275 337
