OFF
341 634 0
-0.172833530351546 0.145224938273599 0.0956625299849346
-0.171117543489097 0.110080235373126 0.123230079924377
-0.0638880927476704 0.103310572958983 0.153952782157655
-0.0821117823292171 -0.0234499191815465 0.192617561716796
-0.163645617933117 -0.0684994607190579 0.162854804516665
-0.048648912537289 -0.0424165518056352 0.181420298934907
-0.032444766678658 -0.241763936830058 0.053051853988281
-0.0322186585032695 -0.264370749757797 0.0246038576653085
-0.114277172895462 -0.182567443335885 0.112922356912307
-0.168093971109648 -0.204520659805096 0.0374646839568671
-0.159829850884806 -0.190143542133386 0.0691267918629126
-0.1378267 -0.24724155 0
-0.109663629823081 -0.243009478883549 0.0320559950568337
-0.1043999 -0.26257105 0
-0.0588857546006072 0.177462694010836 0.113287302074086
-0.103442197122236 0.0517993116627021 0.178414110902982
-0.0825350136378935 0.0798865214445767 0.167184459925298
-0.0368707108184739 0.154196245840666 0.125674889576553
-0.147854382234361 0.223377851630116 0.0316464920417322
-0.0888539851956219 0.181624528618969 0.107181410329067
-0.145660492895037 0.172940643911167 0.0914790435087761
-0.174985833758427 0.201645654876175 0.0336787618324542
-0.255293639845245 -0.0849694381612294 0.0312245777055031
-0.24675728442412 -0.0629285155930472 0.0607037383795809
-0.249786411753103 -0.0223289686182874 0.0679436830668858
-0.2442172 -0.14404695 0
-0.227360804243452 -0.0181479214606358 0.105083990377538
-0.171874783717222 0.0345779485235046 0.15743382658711
-0.246542457180089 0.111565929199255 0.027694281565569
-0.25214225 0.1337173 0
-0.224105470449802 0.127217936471142 0.0510636809180698
-0.206743857138276 0.157555096504054 0.0461881760830083
-0.220139965700572 0.0464948114424973 0.10572205796066
-0.239153921525511 0.0404337579393933 0.0797476158002363
-0.267530908890396 0.0345409575640552 0.0298706297549461
-0.27938135 0.0556047 0
-0.195704145277287 -0.189711662758864 0.022024371043626
-0.250044067493463 0.0555503635084657 0.0559431855827152
-0.238785949230371 0.0918494988229747 0.0554463508259997
-0.119997652521006 0.0241751347884971 0.18405850268363
-0.110679347651882 -0.1043076312989 0.172889602359328
-0.0769024811422725 -0.0962566647152513 0.176850247563903
-0.188086686971842 -0.110543231301879 0.120264285683016
-0.0795279052970216 0.157558650704272 0.1258633497154
-0.133541294423103 -0.0709541261517267 0.178855126271416
-0.234282504648526 -0.101681699837871 0.0591535063956859
-0.238770966483825 -0.122909316284929 0.031686182405361
-0.0265493586201713 -0.187790724937891 0.100976750787228
-0.0510551094526152 -0.00679140412107702 0.184357574273188
-0.148533635252101 -0.174514220185144 0.100090341471451
-0.150878325719765 -0.0326798451384792 0.177956532534719
-0.2759513 -0.0687972 0
-0.0722827468190071 -0.261756363353911 0.0207489395245177
-0.180743882197679 -0.16082205404717 0.0822347664020302
-0.118818784409112 0.220424090160101 0.0573228584206156
-0.28325905 -0.02767446 0
-0.0836279506391068 -0.129482262983738 0.161270985005316
-0.0935281453720077 0.237567227498745 0.0485924701330969
-0.166449570842084 0.0750084710228631 0.146317092077869
-0.2004652097351 0.0821419862460044 0.113636295858237
-0.259787236038177 0.0742306169266108 0.0287867606771222
-0.190361669139461 -0.0741395829829638 0.137571852843868
-0.21017100516303 -0.0462521125335287 0.123888479735036
-0.193811546074212 -0.133499820512242 0.0940200499776376
-0.0233898380635869 0.0101436306668877 0.165542664297283
1.98481164920629e-16 0.0288611363630433 0.143132645398638
-0.0501517044364039 0.0241700042834767 0.179499275634844
-0.145357157797411 -0.228183179610498 0.0251078038022781
-0.135433119859165 -0.217417506335207 0.0531458110105927
-0.268281314667492 -0.00581687960885683 0.0328651661086525
-0.0290706525531063 0.248525594520627 0.0481994195557732
-0.167700978765209 -0.145181211896835 0.113107948512149
-0.169790150814736 -0.0974277575229584 0.145734460752533
-0.1436765 0.24796805 0
-0.0281614560451272 0.0451967914834519 0.162877336952346
-0.228837325469957 -0.0807906759601558 0.0826006194585059
-0.231598906782579 -0.0502098332901574 0.0922490345348655
-0.0636595779572204 -0.226271024283531 0.0741363961970604
-0.069694233998511 -0.246127868918409 0.0467546407469696
1.16268992981806e-16 -0.225212548402156 0.0536399526853438
-0.0291090846254852 -0.21624700792721 0.0783245251538307
-0.176413823671991 -0.00553090955170257 0.160909870276306
-0.19394935076827 0.0162895123725241 0.142855760973632
-0.149039360723817 0.00940868451163117 0.176707720179897
-0.21276117704382 -0.109013430798118 0.0889173641473411
-0.218539316395661 -0.156847759809993 0.0299606683682697
-0.191092163343861 -0.173732439779948 0.0517837613018073
-0.115078478973497 0.166207981546892 0.112582217011036
-0.228874585874986 0.147970120727295 0.0239151023160252
-0.0516493325971182 0.264269423472103 0.0265829693390582
-0.108918491953597 0.136158510388145 0.135223083041977
-0.0926281090519757 -0.160954278584403 0.139171122684284
-0.0556389670261691 -0.175243048697154 0.123620577508976
-0.118097761305192 -0.00877110006852117 0.190066187960026
-0.037754823522273 0.222207886106874 0.0771632589514009
-0.0680783945279883 0.202000672064244 0.094359991261027
-0.215608150068017 0.10548482836006 0.0805736205232744
-0.0238793032396675 -0.126618547455132 0.137109152036317
1.87479168870199e-16 -0.10335606368261 0.122112823832396
1.7243557693182e-16 -0.134675857334745 0.109069705246601
1.25456992121383e-17 0.260593849788117 0.0294165574325537
-0.14775909484389 0.198641653711478 0.0631877121450277
-0.212458355849778 -0.138330054295952 0.0625093827903238
-0.100580829301299 -0.226132586573119 0.0645173123727638
-0.26284375 -0.10799385 0
-0.23073685 0.16868645 0
-0.138103184607332 0.108404548477469 0.143203646959933
-0.203433758991634 -0.0141855863657049 0.135823370414287
-0.215439142772287 0.0152854986531576 0.119589262302093
-0.0334368466739068 0.117341663410737 0.141528155458213
-0.0571886783238211 -0.202678696203042 0.0994635304174421
-0.0920305609784458 -0.207114259088681 0.092955293038006
-0.0844896331417148 0.016782071116764 0.189106086986821
-0.133590128669629 -0.156323830719678 0.129440960282435
-0.2225156 -0.17493455 0
-0.254254472215459 0.0169535908918996 0.0592752998272927
-0.178824090556314 0.174306818510979 0.0621780255889798
-0.0847099996880248 0.256545149760433 0.0266061603705626
-0.2683809 0.0961791 0
-0.228095440049338 0.0719683483130561 0.0839042626816436
-0.195933307788152 0.0483436125981236 0.132764793781476
-0.100289192210636 0.107577783350277 0.153086665057801
-0.142844099910217 0.14125525507608 0.119420813058961
-0.113009912873919 -0.0442866424519983 0.190201270729739
-0.0771383987049908 -0.0602445592282795 0.187841713277859
-0.118021339597124 0.242586533664265 0.0279461081062665
-0.193861635308886 0.116247494243358 0.0984421635846578
-0.0642746300429666 0.0516803756229039 0.175939778563424
-0.26442420285041 -0.0449121851574061 0.0332486761885492
-0.199221709617803 0.140899927512718 0.0724243173708186
5.5478674828618e-17 -0.256536798372153 0.0276242620973117
-0.0212937348691034 0.270896967528252 0.0202295303819282
-0.126531731329944 -0.20150379695113 0.0834847670975528
-0.1734869 0.2283819 0
-0.119982285130721 -0.133272809704591 0.153732211105501
-0.14292879493621 -0.101937109914445 0.16212417960803
-0.102720793065891 -0.075995997404752 0.184686457867776
-0.0544558392189442 -0.146636825144179 0.143966711439364
-0.111825326705273 0.197046163262555 0.087096700288784
-0.125172817692552 0.0801048892023112 0.162606906769837
-0.184008700005932 -0.0403393376342902 0.153159284540992
-0.0377541545397929 0.0802442565758289 0.157014446503177
-0.10897545 0.26487865 0
-0.0220382899809855 -0.0585852935018142 0.159397486147144
-0.17405125 -0.22333075 0
-0.0315705201495962 0.189835654276203 0.102694691855682
-0.0474489358212377 -0.0785606099645624 0.172657704573405
-0.155133437437783 -0.126635055486117 0.139385853206021
-0.0253536411081787 -0.157918589308604 0.120884621117063
1.42576932236796e-16 -0.165306609963942 0.0931936203209948
-0.0817355950230803 0.221473961256211 0.0727174362655856
-0.0616660623084589 0.242804751908292 0.0527291275894169
-0.142154729795191 0.0485288002574709 0.169717728496037
-0.034198935 0.2846662 0
-0.211482910325484 -0.0793202834291282 0.10982132491448
-0.0729832 0.27701985 0
-0.0223611078047393 -0.0931471527601888 0.149850892325381
-0.28436815 0.01350817 0
6.79595042881343e-17 0.199900521194635 0.0815629883797904
-0.0226196817095284 -0.0240474548966665 0.165053757820928
-0.236685945947367 0.0112983036543555 0.0902331624635225
-0.0497045813826248 -0.113903742207243 0.160135912965641
-0.0697466860432928 0.131133917684048 0.141067770509517
3.51249310282671e-17 0.229400675235363 0.0584337936876876
-0.036573565 -0.28015485 0
1.97595752470551e-16 -0.0381682654107328 0.138629612135145
1.63392595745666e-16 0.0968912150715518 0.136616678192099
2.04610021138839e-16 -0.00520848811143092 0.14199499654107
-0.082868647390133 -0.186695843370288 0.116228104953123
1.03550991412884e-16 0.166074715877116 0.103950639842872
1.24778711160489e-16 0.132147387185705 0.122641853992762
-0.2018515 0.2028546 0
-0.19918475 -0.2009949 0
-0.07281875 -0.2727469 0
-0.203578364976268 0.17741649989385 0.0284335093693125
0.172833530351546 0.145224938273599 0.0956625299849347
0.171117543489097 0.110080235373126 0.123230079924377
0.0638880927476708 0.103310572958983 0.153952782157655
0.0821117823292175 -0.0234499191815465 0.192617561716796
0.163645617933118 -0.068499460719058 0.162854804516665
0.0486489125372895 -0.0424165518056352 0.181420298934907
0.0324447666786581 -0.241763936830059 0.053051853988281
0.0322186585032696 -0.264370749757797 0.0246038576653085
0.114277172895462 -0.182567443335885 0.112922356912307
0.168093971109648 -0.204520659805096 0.0374646839568672
0.159829850884806 -0.190143542133386 0.0691267918629127
0.1378267 -0.24724155 0
0.109663629823081 -0.243009478883548 0.0320559950568338
0.1043999 -0.26257105 0
0.0588857546006074 0.177462694010836 0.113287302074086
0.103442197122237 0.0517993116627021 0.178414110902983
0.0825350136378939 0.0798865214445767 0.167184459925298
0.0368707108184742 0.154196245840666 0.125674889576553
0.147854382234361 0.223377851630116 0.0316464920417322
0.0888539851956221 0.181624528618969 0.107181410329067
0.145660492895037 0.172940643911167 0.0914790435087762
0.174985833758427 0.201645654876175 0.0336787618324541
0.255293639845246 -0.0849694381612294 0.0312245777055032
0.24675728442412 -0.0629285155930472 0.060703738379581
0.249786411753103 -0.0223289686182874 0.0679436830668859
0.2442172 -0.14404695 0
0.227360804243452 -0.0181479214606358 0.105083990377538
0.171874783717222 0.0345779485235046 0.15743382658711
0.246542457180089 0.111565929199255 0.027694281565569
0.25214225 0.1337173 0
0.224105470449802 0.127217936471142 0.0510636809180698
0.206743857138276 0.157555096504054 0.0461881760830084
0.220139965700572 0.0464948114424974 0.10572205796066
0.239153921525511 0.0404337579393933 0.0797476158002364
0.267530908890396 0.0345409575640552 0.0298706297549461
0.27938135 0.0556047 0
0.195704145277287 -0.189711662758864 0.0220243710436261
0.250044067493463 0.0555503635084658 0.0559431855827153
0.238785949230371 0.0918494988229748 0.0554463508259998
0.119997652521006 0.0241751347884971 0.184058502683631
0.110679347651882 -0.1043076312989 0.172889602359329
0.0769024811422728 -0.0962566647152514 0.176850247563903
0.188086686971843 -0.110543231301879 0.120264285683016
0.0795279052970218 0.157558650704272 0.1258633497154
0.133541294423103 -0.0709541261517267 0.178855126271417
0.234282504648526 -0.101681699837871 0.059153506395686
0.238770966483825 -0.122909316284929 0.0316861824053611
0.0265493586201716 -0.187790724937891 0.100976750787228
0.0510551094526156 -0.00679140412107701 0.184357574273188
0.148533635252102 -0.174514220185144 0.100090341471451
0.150878325719766 -0.0326798451384792 0.177956532534719
0.2759513 -0.0687972 0
0.0722827468190071 -0.261756363353911 0.0207489395245177
0.180743882197679 -0.16082205404717 0.0822347664020303
0.118818784409112 0.220424090160101 0.0573228584206157
0.28325905 -0.02767446 0
0.0836279506391072 -0.129482262983738 0.161270985005316
0.0935281453720077 0.237567227498745 0.048592470133097
0.166449570842084 0.0750084710228631 0.146317092077869
0.200465209735101 0.0821419862460045 0.113636295858237
0.259787236038177 0.0742306169266109 0.0287867606771222
0.190361669139461 -0.0741395829829638 0.137571852843868
0.21017100516303 -0.0462521125335287 0.123888479735036
0.193811546074213 -0.133499820512242 0.0940200499776377
0.0233898380635873 0.0101436306668877 0.165542664297283
0.0501517044364043 0.0241700042834767 0.179499275634844
0.145357157797411 -0.228183179610498 0.0251078038022781
0.135433119859165 -0.217417506335207 0.0531458110105927
0.268281314667492 -0.00581687960885683 0.0328651661086526
0.0290706525531064 0.248525594520627 0.0481994195557732
0.167700978765209 -0.145181211896835 0.113107948512149
0.169790150814736 -0.0974277575229585 0.145734460752533
0.1436765 0.24796805 0
0.0281614560451275 0.0451967914834519 0.162877336952346
0.228837325469957 -0.0807906759601559 0.082600619458506
0.231598906782579 -0.0502098332901574 0.0922490345348656
0.0636595779572206 -0.226271024283531 0.0741363961970605
0.0696942339985111 -0.246127868918409 0.0467546407469697
0.0291090846254854 -0.21624700792721 0.0783245251538309
0.176413823671991 -0.00553090955170258 0.160909870276306
0.193949350768271 0.0162895123725241 0.142855760973633
0.149039360723817 0.00940868451163116 0.176707720179897
0.212761177043821 -0.109013430798118 0.0889173641473412
0.218539316395661 -0.156847759809993 0.0299606683682697
0.191092163343861 -0.173732439779948 0.0517837613018074
0.115078478973498 0.166207981546892 0.112582217011036
0.228874585874986 0.147970120727295 0.0239151023160252
0.0516493325971182 0.264269423472103 0.0265829693390583
0.108918491953598 0.136158510388145 0.135223083041977
0.0926281090519761 -0.160954278584403 0.139171122684284
0.0556389670261695 -0.175243048697154 0.123620577508976
0.118097761305193 -0.00877110006852118 0.190066187960026
0.0377548235222731 0.222207886106874 0.077163258951401
0.0680783945279885 0.202000672064244 0.0943599912610271
0.215608150068017 0.10548482836006 0.0805736205232745
0.0238793032396678 -0.126618547455132 0.137109152036317
0.14775909484389 0.198641653711478 0.0631877121450278
0.212458355849779 -0.138330054295952 0.0625093827903239
0.100580829301299 -0.226132586573119 0.0645173123727639
0.26284375 -0.10799385 0
0.23073685 0.16868645 0
0.138103184607332 0.108404548477469 0.143203646959934
0.203433758991635 -0.0141855863657049 0.135823370414287
0.215439142772288 0.0152854986531576 0.119589262302093
0.0334368466739072 0.117341663410737 0.141528155458214
0.0571886783238214 -0.202678696203042 0.0994635304174422
0.092030560978446 -0.207114259088681 0.0929552930380062
0.0844896331417153 0.016782071116764 0.189106086986821
0.133590128669629 -0.156323830719678 0.129440960282436
0.2225156 -0.17493455 0
0.254254472215459 0.0169535908918997 0.0592752998272927
0.178824090556314 0.17430681851098 0.0621780255889799
0.0847099996880248 0.256545149760433 0.0266061603705626
0.2683809 0.0961791 0
0.228095440049338 0.0719683483130562 0.0839042626816437
0.195933307788153 0.0483436125981237 0.132764793781476
0.100289192210636 0.107577783350278 0.153086665057801
0.142844099910218 0.14125525507608 0.119420813058961
0.113009912873919 -0.0442866424519983 0.190201270729739
0.0771383987049912 -0.0602445592282795 0.18784171327786
0.118021339597124 0.242586533664265 0.0279461081062665
0.193861635308887 0.116247494243358 0.0984421635846579
0.064274630042967 0.0516803756229039 0.175939778563424
0.26442420285041 -0.0449121851574061 0.0332486761885493
0.199221709617803 0.140899927512718 0.0724243173708187
0.0212937348691034 0.270896967528252 0.0202295303819282
0.126531731329945 -0.20150379695113 0.083484767097553
0.1734869 0.2283819 0
0.119982285130722 -0.133272809704591 0.153732211105501
0.14292879493621 -0.101937109914446 0.16212417960803
0.102720793065891 -0.075995997404752 0.184686457867776
0.0544558392189445 -0.14663682514418 0.143966711439364
0.111825326705273 0.197046163262555 0.0870967002887841
0.125172817692552 0.0801048892023112 0.162606906769837
0.184008700005932 -0.0403393376342902 0.153159284540993
0.0377541545397933 0.0802442565758289 0.157014446503177
0.10897545 0.26487865 0
0.0220382899809859 -0.0585852935018142 0.159397486147144
0 0.2875 0
0.17405125 -0.22333075 0
0.0315705201495965 0.189835654276203 0.102694691855682
0.0474489358212381 -0.0785606099645625 0.172657704573405
0.155133437437783 -0.126635055486117 0.139385853206021
0.025353641108179 -0.157918589308604 0.120884621117063
0.0817355950230804 0.221473961256211 0.0727174362655857
0.061666062308459 0.242804751908292 0.052729127589417
0.142154729795191 0.0485288002574709 0.169717728496037
0.034198935 0.2846662 0
0.211482910325484 -0.0793202834291283 0.10982132491448
0.0729832 0.27701985 0
0.0223611078047396 -0.0931471527601888 0.149850892325381
0.28436815 0.01350817 0
0 -0.28318545 0
0.0226196817095288 -0.0240474548966665 0.165053757820928
0.236685945947367 0.0112983036543556 0.0902331624635226
0.0497045813826252 -0.113903742207243 0.160135912965642
0.0697466860432931 0.131133917684048 0.141067770509517
0.036573565 -0.28015485 0
1.97427723750251e-16 -0.0711820711448622 0.132048298493202
1.82940536167901e-16 0.0632830442379252 0.142216846981266
0.0828686473901333 -0.186695843370288 0.116228104953123
1.35768198337332e-16 -0.195483925105179 0.0746260317613688
0.2018515 0.2028546 0
0.19918475 -0.2009949 0
0.07281875 -0.2727469 0
0.203578364976268 0.17741649989385 0.0284335093693125
3 0 1 122
3 78 52 7
3 101 21 116
3 45 23 22
3 152 58 27
3 136 124 123
3 60 118 35
3 53 63 102
3 28 29 118
3 66 64 74
3 102 85 86
3 26 160 24
3 97 99 98
3 41 136 40
3 125 18 54
3 9 10 86
3 22 104 46
3 46 102 45
3 111 77 110
3 54 57 125
3 80 47 110
3 116 129 0
3 9 67 68
3 106 122 1
3 59 126 96
3 72 42 147
3 71 53 49
3 51 22 128
3 129 31 30
3 68 10 9
3 53 102 86
3 35 34 60
3 44 123 50
3 40 56 41
3 30 38 96
3 111 8 132
3 25 114 85
3 49 113 71
3 33 115 160
3 138 54 101
3 46 85 102
3 68 67 12
3 145 95 14
3 81 82 107
3 2 16 141
3 147 71 113
3 95 94 150
3 89 117 151
3 12 11 13
3 32 59 119
3 139 16 121
3 128 55 51
3 24 23 76
3 36 114 172
3 117 89 155
3 143 5 146
3 45 84 75
3 28 118 60
3 45 75 23
3 22 51 104
3 60 34 37
3 88 28 30
3 145 169 158
3 122 106 90
3 94 151 150
3 162 17 43
3 71 147 42
3 140 107 62
3 112 39 93
3 103 12 78
3 64 48 159
3 4 72 135
3 151 94 70
3 68 12 103
3 86 85 36
3 154 62 76
3 31 129 116
3 37 34 115
3 161 97 156
3 149 148 47
3 83 50 93
3 121 2 162
3 81 107 140
3 1 126 59
3 20 122 87
3 163 94 158
3 115 33 37
3 32 120 59
3 89 131 153
3 89 153 155
3 29 88 105
3 23 24 128
3 154 61 62
3 128 24 69
3 125 57 117
3 34 35 157
3 327 7 164
3 63 42 84
3 70 100 131
3 106 139 121
3 43 19 87
3 14 95 19
3 93 3 112
3 108 107 82
3 141 74 334
3 64 65 74
3 6 79 80
3 156 143 146
3 138 20 87
3 26 107 108
3 0 20 116
3 8 111 168
3 119 38 37
3 129 96 126
3 108 160 26
3 10 53 86
3 132 103 111
3 62 26 76
3 117 155 142
3 119 33 32
3 144 9 36
3 86 36 9
3 76 75 154
3 55 128 69
3 29 28 88
3 130 6 7
3 23 75 76
3 53 10 49
3 164 7 52
3 114 36 85
3 45 22 46
3 25 85 46
3 4 44 50
3 152 39 15
3 121 162 90
3 137 97 161
3 139 15 16
3 19 138 87
3 150 54 138
3 333 143 156
3 141 334 166
3 107 26 62
3 115 24 160
3 136 41 124
3 1 59 58
3 42 72 61
3 138 19 95
3 77 6 80
3 113 49 8
3 78 6 77
3 7 6 78
3 120 108 82
3 70 163 100
3 127 66 74
3 151 70 89
3 84 154 75
3 115 69 24
3 42 61 154
3 67 11 12
3 10 68 132
3 123 124 3
3 161 146 41
3 97 148 99
3 143 165 159
3 139 58 152
3 156 98 333
3 113 8 91
3 120 58 59
3 53 71 63
3 92 91 168
3 4 140 61
3 62 61 140
3 27 82 81
3 57 150 151
3 119 96 38
3 108 32 160
3 24 76 26
3 103 77 111
3 154 84 42
3 327 130 7
3 49 132 8
3 69 34 157
3 30 28 38
3 125 73 18
3 9 144 67
3 103 132 68
3 141 16 127
3 34 69 115
3 45 102 84
3 128 22 23
3 83 152 27
3 3 93 123
3 109 166 170
3 43 90 162
3 44 40 136
3 148 97 137
3 92 47 148
3 148 137 92
3 20 138 101
3 8 168 91
3 32 108 120
3 163 70 94
3 101 116 20
3 16 2 121
3 48 64 66
3 52 78 12
3 52 12 13
3 80 110 77
3 80 79 336
3 49 10 132
3 103 78 77
3 117 57 151
3 63 71 42
3 60 38 28
3 160 32 33
3 30 96 129
3 3 48 112
3 83 93 39
3 56 40 134
3 146 124 41
3 92 110 47
3 138 95 150
3 81 50 83
3 96 119 59
3 167 159 165
3 94 95 145
3 44 135 40
3 112 66 127
3 0 129 126
3 134 147 113
3 27 120 82
3 141 166 109
3 73 133 18
3 72 4 61
3 97 98 156
3 142 73 125
3 125 117 142
3 88 174 105
3 37 33 119
3 67 144 11
3 84 102 63
3 54 150 57
3 333 165 143
3 87 90 43
3 123 44 136
3 113 91 134
3 134 40 135
3 137 91 92
3 127 16 15
3 5 159 48
3 2 109 162
3 159 5 143
3 161 41 56
3 90 87 122
3 39 112 15
3 4 135 44
3 120 27 58
3 168 110 92
3 145 158 94
3 168 111 110
3 112 48 66
3 162 109 17
3 91 137 56
3 50 140 4
3 146 5 124
3 27 81 83
3 56 137 161
3 50 81 140
3 14 19 43
3 127 15 112
3 58 106 1
3 167 64 159
3 91 56 134
3 147 134 135
3 17 14 43
3 139 106 58
3 2 141 109
3 83 39 152
3 3 5 48
3 15 139 152
3 161 156 146
3 106 121 90
3 70 131 89
3 50 123 93
3 153 131 313
3 135 72 147
3 127 74 141
3 122 20 0
3 17 170 169
3 3 124 5
3 21 171 174
3 145 14 17
3 313 131 100
3 74 65 334
3 1 0 126
3 88 30 31
3 47 336 149
3 47 80 336
3 17 169 145
3 79 6 130
3 148 149 99
3 60 37 38
3 65 64 167
3 69 157 55
3 170 17 109
3 25 46 104
3 101 54 18
3 172 144 36
3 52 13 173
3 21 101 18
3 21 18 133
3 174 31 116
3 173 164 52
3 88 31 174
3 21 133 171
3 174 116 21
3 174 171 105
3 175 292 176
3 252 182 227
3 271 286 196
3 220 197 198
3 321 202 233
3 305 293 294
3 235 210 288
3 228 272 238
3 203 288 204
3 240 248 239
3 272 259 258
3 201 199 329
3 270 98 99
3 216 215 305
3 295 229 193
3 184 259 185
3 197 221 274
3 221 220 272
3 281 280 251
3 229 295 232
3 253 280 222
3 286 175 299
3 184 242 241
3 276 176 292
3 234 269 296
3 246 317 217
3 245 224 228
3 226 298 197
3 299 205 206
3 242 184 185
3 228 259 272
3 210 235 209
3 219 225 293
3 215 216 231
3 205 269 213
3 281 301 183
3 200 258 284
3 224 245 283
3 208 329 285
3 307 271 229
3 221 272 258
3 242 187 241
3 315 189 268
3 254 277 255
3 177 310 191
3 317 283 245
3 268 319 267
3 262 320 287
3 187 188 186
3 207 289 234
3 308 291 191
3 298 226 230
3 199 250 198
3 211 338 284
3 287 324 262
3 312 316 180
3 220 249 257
3 203 235 288
3 220 198 249
3 197 274 226
3 235 212 209
3 261 205 203
3 315 158 169
3 292 263 276
3 267 319 320
3 331 218 192
3 245 217 317
3 309 237 277
3 282 266 214
3 273 252 187
3 239 328 223
3 179 304 246
3 320 244 267
3 242 273 187
3 259 211 258
3 323 250 237
3 206 286 299
3 212 285 209
3 330 325 270
3 149 222 318
3 256 266 225
3 291 331 177
3 254 309 277
3 176 234 296
3 195 260 292
3 163 158 267
3 285 212 208
3 207 234 290
3 262 322 300
3 262 324 322
3 204 275 261
3 198 298 199
3 323 237 236
3 298 243 199
3 295 287 232
3 209 326 210
3 327 332 182
3 238 257 217
3 244 300 100
3 276 291 308
3 218 260 194
3 189 194 268
3 266 282 178
3 278 255 277
3 310 334 248
3 239 248 65
3 181 253 79
3 325 316 312
3 307 260 195
3 201 278 277
3 175 286 195
3 183 335 281
3 289 212 213
3 299 296 269
3 278 201 329
3 185 259 228
3 301 281 273
3 237 250 201
3 287 311 324
3 289 207 208
3 314 211 184
3 259 184 211
3 250 323 249
3 230 243 298
3 204 261 203
3 130 182 181
3 198 250 249
3 228 224 185
3 332 227 182
3 284 258 211
3 220 221 197
3 200 221 258
3 179 225 219
3 321 190 214
3 291 263 331
3 306 330 270
3 308 191 190
3 194 260 307
3 319 307 229
3 333 325 312
3 310 166 334
3 277 237 201
3 285 329 199
3 305 294 216
3 176 233 234
3 217 236 246
3 307 268 194
3 251 253 181
3 283 183 224
3 252 251 181
3 182 252 181
3 290 255 278
3 244 100 163
3 297 248 240
3 320 262 244
3 257 249 323
3 285 199 243
3 217 323 236
3 241 187 186
3 185 301 242
3 293 178 294
3 330 216 316
3 270 99 318
3 312 328 165
3 308 321 233
3 325 333 98
3 283 264 183
3 290 234 233
3 228 238 245
3 265 335 264
3 179 236 309
3 237 309 236
3 202 254 255
3 232 320 319
3 289 213 269
3 278 329 207
3 199 201 250
3 273 281 251
3 323 217 257
3 327 182 130
3 224 183 301
3 243 326 209
3 205 213 203
3 295 193 247
3 184 241 314
3 273 242 301
3 310 297 191
3 209 285 243
3 220 257 272
3 298 198 197
3 256 202 321
3 178 293 266
3 279 170 166
3 218 331 263
3 219 305 215
3 318 306 270
3 265 318 222
3 318 265 306
3 195 271 307
3 183 264 335
3 207 290 278
3 163 267 244
3 271 195 286
3 191 291 177
3 223 240 239
3 227 187 252
3 227 188 187
3 253 251 280
3 253 336 79
3 224 301 185
3 273 251 252
3 287 320 232
3 238 217 245
3 235 203 213
3 329 208 207
3 205 299 269
3 178 282 223
3 256 214 266
3 231 303 215
3 316 216 294
3 265 222 280
3 307 319 268
3 254 256 225
3 269 234 289
3 167 165 328
3 267 315 268
3 219 215 304
3 282 297 240
3 175 296 299
3 303 283 317
3 202 255 290
3 310 279 166
3 247 193 302
3 246 236 179
3 270 325 98
3 311 295 247
3 295 311 287
3 261 275 340
3 212 289 208
3 241 186 314
3 257 238 272
3 229 232 319
3 333 312 165
3 260 218 263
3 293 305 219
3 283 303 264
3 303 304 215
3 306 265 264
3 297 190 191
3 180 223 328
3 177 331 279
3 328 312 180
3 330 231 216
3 263 292 260
3 214 190 282
3 179 219 304
3 290 233 202
3 335 265 280
3 315 267 158
3 335 280 281
3 282 240 223
3 331 192 279
3 264 231 306
3 225 179 309
3 316 294 180
3 202 256 254
3 231 330 306
3 225 309 254
3 189 218 194
3 297 282 190
3 233 176 276
3 167 328 239
3 264 303 231
3 317 304 303
3 192 218 189
3 308 233 276
3 177 279 310
3 256 321 214
3 178 223 180
3 190 321 308
3 330 316 325
3 276 263 291
3 244 262 300
3 225 266 293
3 322 313 300
3 304 317 246
3 297 310 248
3 292 175 195
3 192 169 170
3 178 180 294
3 196 340 337
3 315 192 189
3 313 100 300
3 248 334 65
3 176 296 175
3 261 206 205
3 222 149 336
3 222 336 253
3 192 315 169
3 79 130 181
3 318 99 149
3 235 213 212
3 65 167 239
3 243 230 326
3 170 279 192
3 200 274 221
3 271 193 229
3 338 211 314
3 227 339 188
3 196 193 271
3 196 302 193
3 340 286 206
3 339 227 332
3 261 340 206
3 196 337 302
3 340 196 286
3 340 275 337
