OFF
341 634 0
-0.261100761215882 0.219107292451644 0.146043087104972
-0.258326217468431 0.165951218533753 0.187379594049008
-0.0956481537966959 0.155034550427356 0.232573880029671
-0.123740942745872 -0.0355683712404909 0.29080788068829
-0.247069051137723 -0.103243680081165 0.246527072712927
-0.073272267272865 -0.0643298323719936 0.274345875648373
-0.0488475704522143 -0.363737476809421 0.0808253562378213
-0.0484390846642169 -0.397273180126136 0.0376176117097524
-0.172777966765596 -0.275181448373106 0.171463438388343
-0.254033585650169 -0.308652753936974 0.0578302052457091
-0.24182220748513 -0.287091437332416 0.105749466465881
-0.20674005 -0.370862325 0
-0.165448196822138 -0.366019738824357 0.0493429450280885
-0.15659985 -0.393856575 0
-0.0882214448062241 0.266532476875351 0.171234763812658
-0.155623976355133 0.0777346046987436 0.269604191348812
-0.123914593543985 0.11993592382893 0.252681901622164
-0.0549215192122041 0.231058427588161 0.189061464217545
-0.223019336365759 0.336602291390854 0.0490668826566624
-0.133649484703131 0.273301742950174 0.162766239697867
-0.219908937925634 0.260802055021382 0.139694714047193
-0.264152592633716 0.304098066802665 0.0523042342522045
-0.385606103387463 -0.12824703732842 0.0484477557401187
-0.373246469902475 -0.0950737801084177 0.093184744374597
-0.377865219525408 -0.0337275920559785 0.104168338103716
-0.3663258 -0.216070425 0
-0.343754236175714 -0.0273950368178793 0.160036407564634
-0.259302005454922 0.0520359310474816 0.238505707670761
-0.372264769792116 0.168352298866485 0.0432122057603619
-0.378213375 0.20057595 0
-0.338851103974081 0.192165293183638 0.0788123959491434
-0.312435384952865 0.237860485642751 0.0713876847231561
-0.332801195098755 0.070194822044833 0.161098833280723
-0.361697827415914 0.0610908539765445 0.122011701032507
-0.404027684714816 0.0521408703755494 0.0464640661540917
-0.419072025 0.08340705 0
-0.295170870232589 -0.285892450945832 0.0342357026195041
-0.378165625138496 0.083948052766854 0.0861237111617456
-0.361137426218407 0.138783745389194 0.0854257788956607
-0.180713283724138 0.0361932338847082 0.278040636860176
-0.167140773162045 -0.157136867674533 0.261394280196048
-0.116169779349938 -0.145137097637193 0.267415728924519
-0.284412983076298 -0.166831838544559 0.182756736859137
-0.119409573604444 0.236907000730327 0.190705524840048
-0.201520689141646 -0.106905178157529 0.27035707518314
-0.354403337243573 -0.153633922810336 0.0908151870800836
-0.360720917333258 -0.185534286384568 0.0491439181934221
-0.0400855715864258 -0.283329598832706 0.15384079902002
-0.0768354291354485 -0.010699273871495 0.278297463861991
-0.224680407613058 -0.263315823562993 0.152329367296278
-0.227604326609825 -0.0492877759654022 0.269118734109184
-0.41392695 -0.1031958 0
-0.108804495352092 -0.393519731433681 0.0318901307029154
-0.273510567283187 -0.242891366438613 0.125569378579822
-0.179256283497031 0.332193143193469 0.0879656805310292
-0.424888575 -0.04151169 0
-0.126404982824361 -0.19510812311698 0.244025836025953
-0.140940561813504 0.357710989436002 0.0745220783707863
-0.251132503663171 0.112987902158133 0.221941747606853
-0.302910748528401 0.123939681804389 0.173019214369477
-0.392307990840622 0.112034552666162 0.0448479239429513
-0.287625735700906 -0.111822414856941 0.208692940244494
-0.317634964101932 -0.069793958092168 0.188216457533187
-0.293223273530479 -0.201602683672327 0.143319144247194
-0.0346955413797834 0.0145318284048578 0.250357965702506
2.06485256935433e-16 0.0421107957980777 0.215501744877423
-0.0753217517631193 0.03582161896772 0.270706924704507
-0.219195389011178 -0.343700642733051 0.0388101108206822
-0.204728480031389 -0.327990688392883 0.0814933035919178
-0.405311313599593 -0.00877149172201952 0.05102573017202
-0.0434986433780417 0.373217266880186 0.0729150730028118
-0.253648872504324 -0.219088767901517 0.171964194589368
-0.256505495895017 -0.146881461196213 0.22086667374522
-0.21551475 0.371952075 0
-0.0417908318460119 0.0673249023584461 0.245824022921195
-0.346148731826456 -0.122034807955502 0.126161557552452
-0.350267191014584 -0.0758257889605737 0.140708794696614
-0.0961264658670543 -0.340737787784488 0.112851516689451
-0.105113815394922 -0.37046165301771 0.0714488560088274
6.80531588465235e-17 -0.338583335759278 0.0816365516764739
-0.043935945943381 -0.325782200461371 0.119295379761264
-0.266236647331347 -0.00838314658699777 0.243693285906613
-0.29283018433383 0.0245268935302384 0.216680268497509
-0.224692412796968 0.0140610073289852 0.267223857686159
-0.321869097599728 -0.164654783436057 0.13566056773695
-0.330110447140254 -0.236704711098511 0.0464828861797115
-0.289063428466945 -0.262414919162889 0.0796222472626756
-0.173383177097565 0.25030936384056 0.17119418044609
-0.345327636796082 0.223123339594237 0.0373870741090654
-0.0776694939533434 0.397256410216695 0.040751883793185
-0.163935234415047 0.204924764659955 0.205130605428133
-0.140030011657198 -0.242508173398298 0.210858611562189
-0.0841641177412503 -0.26418192136053 0.187637214510698
-0.177953684417152 -0.013369531419436 0.287042627097593
-0.0564387174414859 0.333627380433679 0.116520427419301
-0.102228022402461 0.303737823558377 0.143121834928353
-0.326042330578277 0.159317538106677 0.123354429842512
-0.0357665101200403 -0.191550775595145 0.208670728092778
1.77370125045923e-16 -0.156563720839913 0.185635871856347
1.55275886511118e-16 -0.203623481417226 0.166159795513218
9.9867055805955e-18 0.390001121420923 0.0432249187669654
-0.223151187568934 0.299631609274301 0.0970295414957776
-0.321480994259453 -0.20901881910708 0.0958779842316893
-0.151967542165035 -0.340794753916044 0.0984978438420859
-0.394265625 -0.161990775 0
-0.346105275 0.253029675 0
-0.208163455609161 0.163227892120685 0.217228519605187
-0.307297476608591 -0.0214102633399771 0.206136419013794
-0.325576384355519 0.0230620219495657 0.181849360798538
-0.0497198863440188 0.175607204909248 0.21280265684625
-0.086456124537911 -0.305367623948175 0.15113700783115
-0.139098080521254 -0.312053708178918 0.141314689557106
-0.127129970665306 0.0249476734555027 0.285446465559959
-0.201943446712012 -0.235649606248467 0.196336648531575
-0.3337734 -0.262401825 0
-0.384556797192888 0.0256313380980449 0.0911126186904311
-0.270287536602777 0.263135176642608 0.0956290199582786
-0.127522498171637 0.385885813898853 0.0409885488213813
-0.40257135 0.14426865 0
-0.344949036637969 0.108712186686952 0.128325487444779
-0.295918924684249 0.0728913058779057 0.201646316868384
-0.150795307847485 0.16176620111068 0.231791240038725
-0.215474528645867 0.212864973068177 0.181633160086765
-0.170420030299435 -0.0668017236645157 0.287269480336064
-0.116398639698084 -0.0909427089379798 0.283809114848615
-0.177825522547785 0.365174144144943 0.0432199499905974
-0.292959337419691 0.175430009499444 0.150206007542656
-0.0964313304947625 0.077316822112913 0.265473930055027
-0.399496655610344 -0.0677986541952538 0.0515783082036749
-0.301213721489686 0.212771309925024 0.111098842210892
4.83038943456726e-17 -0.384624728676869 0.0413794428002217
-0.0319461018867369 0.406694456911273 0.030696263914069
-0.191356627899733 -0.303932666893906 0.127250911234209
-0.26023035 0.34257285 0
-0.181283500720313 -0.20079731728171 0.232725273284921
-0.215850980445419 -0.153601127215628 0.245360342681352
-0.155030318743103 -0.114522538336046 0.278995464837251
-0.0823455912331841 -0.221197538444944 0.218348579111589
-0.168592279591821 0.296878501484258 0.132871233533358
-0.18850611998199 0.120483500942357 0.246172326106061
-0.277835983987854 -0.0608294420443993 0.232061246966529
-0.0561611855197972 0.120072647157009 0.236733200281117
-0.163463175 0.397317975 0
-0.0326854082031773 -0.0890642219436251 0.242001226853831
-0.261076875 -0.334996125 0
-0.0470483231323791 0.28455848683538 0.154353777719867
-0.0715221762535106 -0.118793982548835 0.261506764397394
-0.234453799839692 -0.190928052413963 0.21133359270155
-0.0381703333278167 -0.238579877097601 0.18410724140177
1.49988899084959e-16 -0.249545547935825 0.142251421973031
-0.123039055906426 0.333390085854346 0.110878725610769
-0.0927497499942627 0.365285786140917 0.0804746943579609
-0.214234691715926 0.0729603206901943 0.256812313158526
-0.0512984025 0.4269993 0
-0.319783249655215 -0.119744169207119 0.167087212458804
-0.1094748 0.415529775 0
-0.0332912660572101 -0.141160080246367 0.227827202033242
-0.426552225 0.020262255 0
7.50634174386435e-17 0.298797535306385 0.12109388168747
-0.0335333225130074 -0.036984195453285 0.250141299498157
-0.357958845283656 0.0170754324562944 0.137766888964547
-0.0750583657326696 -0.171994829669352 0.242749339223457
-0.104534723110877 0.196987338504651 0.213353184940697
4.33472495823345e-17 0.343059156103533 0.0864770233208983
-0.0548603475 -0.420232275 0
2.23285860987402e-16 -0.058547864239304 0.209925618826151
1.66439123604294e-16 0.143884002271739 0.202808331363355
2.23547878274714e-16 -0.00902615637839144 0.214571536780457
-0.125287940414614 -0.281243327481301 0.17631156357316
1.06980615840807e-16 0.247962009390306 0.154430961003294
1.34568373277643e-16 0.196812921182824 0.181941661457603
-0.30277725 0.3042819 0
-0.298777125 -0.30149235 0
-0.109228125 -0.40912035 0
-0.307270063318333 0.267570276830606 0.0443161361889963
0.261100761215883 0.219107292451644 0.146043087104972
0.258326217468431 0.165951218533753 0.187379594049008
0.0956481537966963 0.155034550427356 0.232573880029671
0.123740942745872 -0.0355683712404909 0.290807880688291
0.247069051137723 -0.103243680081165 0.246527072712927
0.0732722672728654 -0.0643298323719936 0.274345875648374
0.0488475704522144 -0.363737476809421 0.0808253562378213
0.048439084664217 -0.397273180126136 0.0376176117097524
0.172777966765596 -0.275181448373106 0.171463438388343
0.254033585650169 -0.308652753936974 0.0578302052457092
0.24182220748513 -0.287091437332416 0.105749466465881
0.20674005 -0.370862325 0
0.165448196822138 -0.366019738824357 0.0493429450280885
0.15659985 -0.393856575 0
0.0882214448062243 0.266532476875352 0.171234763812658
0.155623976355134 0.0777346046987436 0.269604191348813
0.123914593543986 0.11993592382893 0.252681901622164
0.0549215192122044 0.231058427588161 0.189061464217545
0.223019336365759 0.336602291390854 0.0490668826566625
0.133649484703131 0.273301742950174 0.162766239697868
0.219908937925635 0.260802055021382 0.139694714047193
0.264152592633716 0.304098066802665 0.0523042342522045
0.385606103387463 -0.12824703732842 0.0484477557401187
0.373246469902475 -0.0950737801084177 0.093184744374597
0.377865219525408 -0.0337275920559786 0.104168338103716
0.3663258 -0.216070425 0
0.343754236175714 -0.0273950368178793 0.160036407564635
0.259302005454922 0.0520359310474816 0.238505707670762
0.372264769792116 0.168352298866485 0.043212205760362
0.378213375 0.20057595 0
0.338851103974081 0.192165293183638 0.0788123959491435
0.312435384952865 0.237860485642751 0.0713876847231562
0.332801195098755 0.070194822044833 0.161098833280723
0.361697827415914 0.0610908539765445 0.122011701032508
0.404027684714816 0.0521408703755495 0.0464640661540918
0.419072025 0.08340705 0
0.295170870232589 -0.285892450945832 0.0342357026195042
0.378165625138496 0.0839480527668541 0.0861237111617457
0.361137426218407 0.138783745389194 0.0854257788956608
0.180713283724138 0.0361932338847081 0.278040636860176
0.167140773162046 -0.157136867674533 0.261394280196048
0.116169779349938 -0.145137097637193 0.26741572892452
0.284412983076298 -0.166831838544559 0.182756736859137
0.119409573604444 0.236907000730327 0.190705524840049
0.201520689141647 -0.10690517815753 0.270357075183141
0.354403337243573 -0.153633922810336 0.0908151870800837
0.360720917333258 -0.185534286384568 0.0491439181934222
0.0400855715864262 -0.283329598832706 0.15384079902002
0.076835429135449 -0.010699273871495 0.278297463861991
0.224680407613059 -0.263315823562993 0.152329367296279
0.227604326609825 -0.0492877759654023 0.269118734109185
0.41392695 -0.1031958 0
0.108804495352092 -0.393519731433681 0.0318901307029155
0.273510567283187 -0.242891366438613 0.125569378579822
0.179256283497031 0.332193143193469 0.0879656805310293
0.424888575 -0.04151169 0
0.126404982824362 -0.195108123116981 0.244025836025953
0.140940561813504 0.357710989436002 0.0745220783707863
0.251132503663171 0.112987902158133 0.221941747606853
0.302910748528401 0.123939681804389 0.173019214369478
0.392307990840622 0.112034552666162 0.0448479239429514
0.287625735700907 -0.111822414856941 0.208692940244494
0.317634964101933 -0.069793958092168 0.188216457533187
0.293223273530479 -0.201602683672328 0.143319144247194
0.0346955413797838 0.0145318284048577 0.250357965702506
0.0753217517631198 0.03582161896772 0.270706924704507
0.219195389011178 -0.343700642733051 0.0388101108206823
0.204728480031389 -0.327990688392883 0.0814933035919179
0.405311313599593 -0.00877149172201949 0.0510257301720201
0.0434986433780418 0.373217266880186 0.0729150730028118
0.253648872504324 -0.219088767901517 0.171964194589369
0.256505495895017 -0.146881461196213 0.220866673745221
0.21551475 0.371952075 0
0.0417908318460123 0.0673249023584461 0.245824022921195
0.346148731826456 -0.122034807955502 0.126161557552452
0.350267191014585 -0.0758257889605738 0.140708794696614
0.0961264658670544 -0.340737787784488 0.112851516689451
0.105113815394922 -0.37046165301771 0.0714488560088274
0.0439359459433812 -0.325782200461371 0.119295379761264
0.266236647331347 -0.00838314658699783 0.243693285906614
0.292830184333831 0.0245268935302384 0.216680268497509
0.224692412796969 0.0140610073289851 0.267223857686159
0.321869097599728 -0.164654783436057 0.13566056773695
0.330110447140254 -0.236704711098511 0.0464828861797115
0.289063428466945 -0.262414919162889 0.0796222472626758
0.173383177097565 0.25030936384056 0.17119418044609
0.345327636796082 0.223123339594237 0.0373870741090654
0.0776694939533434 0.397256410216695 0.040751883793185
0.163935234415048 0.204924764659955 0.205130605428133
0.140030011657198 -0.242508173398298 0.210858611562189
0.0841641177412507 -0.26418192136053 0.187637214510698
0.177953684417152 -0.0133695314194361 0.287042627097594
0.0564387174414861 0.333627380433679 0.116520427419301
0.102228022402461 0.303737823558377 0.143121834928353
0.326042330578277 0.159317538106677 0.123354429842512
0.0357665101200407 -0.191550775595145 0.208670728092778
0.223151187568934 0.299631609274302 0.0970295414957777
0.321480994259453 -0.20901881910708 0.0958779842316894
0.151967542165035 -0.340794753916044 0.0984978438420861
0.394265625 -0.161990775 0
0.346105275 0.253029675 0
0.208163455609161 0.163227892120685 0.217228519605187
0.307297476608591 -0.0214102633399771 0.206136419013794
0.325576384355519 0.0230620219495657 0.181849360798538
0.0497198863440191 0.175607204909248 0.21280265684625
0.0864561245379113 -0.305367623948175 0.15113700783115
0.139098080521254 -0.312053708178918 0.141314689557106
0.127129970665306 0.0249476734555027 0.28544646555996
0.201943446712012 -0.235649606248468 0.196336648531576
0.3337734 -0.262401825 0
0.384556797192888 0.0256313380980449 0.0911126186904312
0.270287536602777 0.263135176642609 0.0956290199582787
0.127522498171637 0.385885813898853 0.0409885488213813
0.40257135 0.14426865 0
0.344949036637969 0.108712186686952 0.128325487444779
0.295918924684249 0.0728913058779057 0.201646316868385
0.150795307847485 0.16176620111068 0.231791240038725
0.215474528645868 0.212864973068177 0.181633160086766
0.170420030299435 -0.0668017236645158 0.287269480336065
0.116398639698085 -0.0909427089379798 0.283809114848615
0.177825522547785 0.365174144144943 0.0432199499905974
0.292959337419691 0.175430009499444 0.150206007542657
0.096431330494763 0.077316822112913 0.265473930055027
0.399496655610344 -0.0677986541952538 0.0515783082036749
0.301213721489686 0.212771309925024 0.111098842210892
0.0319461018867369 0.406694456911273 0.030696263914069
0.191356627899733 -0.303932666893906 0.12725091123421
0.26023035 0.34257285 0
0.181283500720313 -0.20079731728171 0.232725273284921
0.21585098044542 -0.153601127215628 0.245360342681352
0.155030318743104 -0.114522538336046 0.278995464837251
0.0823455912331845 -0.221197538444944 0.218348579111589
0.168592279591822 0.296878501484258 0.132871233533358
0.188506119981991 0.120483500942357 0.246172326106061
0.277835983987854 -0.0608294420443994 0.232061246966529
0.0561611855197976 0.120072647157009 0.236733200281117
0.163463175 0.397317975 0
0.0326854082031778 -0.0890642219436251 0.242001226853832
0 0.43125 0
0.261076875 -0.334996125 0
0.0470483231323794 0.28455848683538 0.154353777719867
0.071522176253511 -0.118793982548835 0.261506764397395
0.234453799839693 -0.190928052413964 0.21133359270155
0.0381703333278171 -0.238579877097601 0.18410724140177
0.123039055906426 0.333390085854346 0.110878725610769
0.0927497499942627 0.365285786140917 0.080474694357961
0.214234691715927 0.0729603206901943 0.256812313158526
0.0512984025 0.4269993 0
0.319783249655216 -0.119744169207119 0.167087212458804
0.1094748 0.415529775 0
0.0332912660572105 -0.141160080246367 0.227827202033243
0.426552225 0.020262255 0
0 -0.424778175 0
0.0335333225130079 -0.036984195453285 0.250141299498157
0.357958845283657 0.0170754324562944 0.137766888964547
0.07505836573267 -0.171994829669352 0.242749339223457
0.104534723110877 0.196987338504652 0.213353184940697
0.0548603475 -0.420232275 0
2.04602750549008e-16 -0.108183224161928 0.20033595862181
2.02502243338706e-16 0.0936901070553263 0.212637768840489
0.125287940414615 -0.281243327481302 0.176311563573161
9.29163060991426e-17 -0.294583701516511 0.114009637319315
0.30277725 0.3042819 0
0.298777125 -0.30149235 0
0.109228125 -0.40912035 0
0.307270063318333 0.267570276830606 0.0443161361889963
3 0 1 122
3 78 52 7
3 101 21 116
3 45 23 22
3 152 58 27
3 136 124 123
3 60 118 35
3 53 63 102
3 28 29 118
3 66 64 74
3 102 85 86
3 26 160 24
3 97 99 98
3 41 136 40
3 125 18 54
3 9 10 86
3 22 104 46
3 46 102 45
3 111 77 110
3 54 57 125
3 80 47 110
3 116 129 0
3 9 67 68
3 106 122 1
3 59 126 96
3 72 42 147
3 71 53 49
3 51 22 128
3 129 31 30
3 68 10 9
3 53 102 86
3 35 34 60
3 44 123 50
3 40 56 41
3 30 38 96
3 111 8 132
3 25 114 85
3 49 113 71
3 33 115 160
3 138 54 101
3 46 85 102
3 68 67 12
3 145 95 14
3 81 82 107
3 2 16 141
3 147 71 113
3 95 94 150
3 89 117 151
3 12 11 13
3 32 59 119
3 139 16 121
3 128 55 51
3 24 23 76
3 36 114 172
3 117 89 155
3 143 5 146
3 45 84 75
3 28 118 60
3 45 75 23
3 22 51 104
3 60 34 37
3 88 28 30
3 145 169 158
3 122 106 90
3 94 151 150
3 162 17 43
3 71 147 42
3 140 107 62
3 112 39 93
3 103 12 78
3 64 48 159
3 4 72 135
3 151 94 70
3 68 12 103
3 86 85 36
3 154 62 76
3 31 129 116
3 37 34 115
3 161 97 156
3 149 148 47
3 83 50 93
3 121 2 162
3 81 107 140
3 1 126 59
3 20 122 87
3 163 94 158
3 115 33 37
3 32 120 59
3 89 131 153
3 89 153 155
3 29 88 105
3 23 24 128
3 154 61 62
3 128 24 69
3 125 57 117
3 34 35 157
3 327 7 164
3 63 42 84
3 70 100 131
3 106 139 121
3 43 19 87
3 14 95 19
3 93 3 112
3 108 107 82
3 141 74 334
3 64 65 74
3 6 79 80
3 156 143 146
3 138 20 87
3 26 107 108
3 0 20 116
3 8 111 168
3 119 38 37
3 129 96 126
3 108 160 26
3 10 53 86
3 132 103 111
3 62 26 76
3 117 155 142
3 119 33 32
3 144 9 36
3 86 36 9
3 76 75 154
3 55 128 69
3 29 28 88
3 130 6 7
3 23 75 76
3 53 10 49
3 164 7 52
3 114 36 85
3 45 22 46
3 25 85 46
3 4 44 50
3 152 39 15
3 121 162 90
3 137 97 161
3 139 15 16
3 19 138 87
3 150 54 138
3 333 143 156
3 141 334 166
3 107 26 62
3 115 24 160
3 136 41 124
3 1 59 58
3 42 72 61
3 138 19 95
3 77 6 80
3 113 49 8
3 78 6 77
3 7 6 78
3 120 108 82
3 70 163 100
3 127 66 74
3 151 70 89
3 84 154 75
3 115 69 24
3 42 61 154
3 67 11 12
3 10 68 132
3 123 124 3
3 161 146 41
3 97 148 99
3 143 165 159
3 139 58 152
3 156 98 333
3 113 8 91
3 120 58 59
3 53 71 63
3 92 91 168
3 4 140 61
3 62 61 140
3 27 82 81
3 57 150 151
3 119 96 38
3 108 32 160
3 24 76 26
3 103 77 111
3 154 84 42
3 327 130 7
3 49 132 8
3 69 34 157
3 30 28 38
3 125 73 18
3 9 144 67
3 103 132 68
3 141 16 127
3 34 69 115
3 45 102 84
3 128 22 23
3 83 152 27
3 3 93 123
3 109 166 170
3 43 90 162
3 44 40 136
3 148 97 137
3 92 47 148
3 148 137 92
3 20 138 101
3 8 168 91
3 32 108 120
3 163 70 94
3 101 116 20
3 16 2 121
3 48 64 66
3 52 78 12
3 52 12 13
3 80 110 77
3 80 79 336
3 49 10 132
3 103 78 77
3 117 57 151
3 63 71 42
3 60 38 28
3 160 32 33
3 30 96 129
3 3 48 112
3 83 93 39
3 56 40 134
3 146 124 41
3 92 110 47
3 138 95 150
3 81 50 83
3 96 119 59
3 167 159 165
3 94 95 145
3 44 135 40
3 112 66 127
3 0 129 126
3 134 147 113
3 27 120 82
3 141 166 109
3 73 133 18
3 72 4 61
3 97 98 156
3 142 73 125
3 125 117 142
3 88 174 105
3 37 33 119
3 67 144 11
3 84 102 63
3 54 150 57
3 333 165 143
3 87 90 43
3 123 44 136
3 113 91 134
3 134 40 135
3 137 91 92
3 127 16 15
3 5 159 48
3 2 109 162
3 159 5 143
3 161 41 56
3 90 87 122
3 39 112 15
3 4 135 44
3 120 27 58
3 168 110 92
3 145 158 94
3 168 111 110
3 112 48 66
3 162 109 17
3 91 137 56
3 50 140 4
3 146 5 124
3 27 81 83
3 56 137 161
3 50 81 140
3 14 19 43
3 127 15 112
3 58 106 1
3 167 64 159
3 91 56 134
3 147 134 135
3 17 14 43
3 139 106 58
3 2 141 109
3 83 39 152
3 3 5 48
3 15 139 152
3 161 156 146
3 106 121 90
3 70 131 89
3 50 123 93
3 153 131 313
3 135 72 147
3 127 74 141
3 122 20 0
3 17 170 169
3 3 124 5
3 21 171 174
3 145 14 17
3 313 131 100
3 74 65 334
3 1 0 126
3 88 30 31
3 47 336 149
3 47 80 336
3 17 169 145
3 79 6 130
3 148 149 99
3 60 37 38
3 65 64 167
3 69 157 55
3 170 17 109
3 25 46 104
3 101 54 18
3 172 144 36
3 52 13 173
3 21 101 18
3 21 18 133
3 174 31 116
3 173 164 52
3 88 31 174
3 21 133 171
3 174 116 21
3 174 171 105
3 175 292 176
3 252 182 227
3 271 286 196
3 220 197 198
3 321 202 233
3 305 293 294
3 235 210 288
3 228 272 238
3 203 288 204
3 240 248 239
3 272 259 258
3 201 199 329
3 270 98 99
3 216 215 305
3 295 229 193
3 184 259 185
3 197 221 274
3 221 220 272
3 281 280 251
3 229 295 232
3 253 280 222
3 286 175 299
3 184 242 241
3 276 176 292
3 234 269 296
3 246 317 217
3 245 224 228
3 226 298 197
3 299 205 206
3 242 184 185
3 228 259 272
3 210 235 209
3 219 225 293
3 215 216 231
3 205 269 213
3 281 301 183
3 200 258 284
3 224 245 283
3 208 329 285
3 307 271 229
3 221 272 258
3 242 187 241
3 315 189 268
3 254 277 255
3 177 310 191
3 317 283 245
3 268 319 267
3 262 320 287
3 187 188 186
3 207 289 234
3 308 291 191
3 298 226 230
3 199 250 198
3 211 338 284
3 287 324 262
3 312 316 180
3 220 249 257
3 203 235 288
3 220 198 249
3 197 274 226
3 235 212 209
3 261 205 203
3 315 158 169
3 292 263 276
3 267 319 320
3 331 218 192
3 245 217 317
3 309 237 277
3 282 266 214
3 273 252 187
3 239 328 223
3 179 304 246
3 320 244 267
3 242 273 187
3 259 211 258
3 323 250 237
3 206 286 299
3 212 285 209
3 330 325 270
3 149 222 318
3 256 266 225
3 291 331 177
3 254 309 277
3 176 234 296
3 195 260 292
3 163 158 267
3 285 212 208
3 207 234 290
3 262 322 300
3 262 324 322
3 204 275 261
3 198 298 199
3 323 237 236
3 298 243 199
3 295 287 232
3 209 326 210
3 327 332 182
3 238 257 217
3 244 300 100
3 276 291 308
3 218 260 194
3 189 194 268
3 266 282 178
3 278 255 277
3 310 334 248
3 239 248 65
3 181 253 79
3 325 316 312
3 307 260 195
3 201 278 277
3 175 286 195
3 183 335 281
3 289 212 213
3 299 296 269
3 278 201 329
3 185 259 228
3 301 281 273
3 237 250 201
3 287 311 324
3 289 207 208
3 314 211 184
3 259 184 211
3 250 323 249
3 230 243 298
3 204 261 203
3 130 182 181
3 198 250 249
3 228 224 185
3 332 227 182
3 284 258 211
3 220 221 197
3 200 221 258
3 179 225 219
3 321 190 214
3 291 263 331
3 306 330 270
3 308 191 190
3 194 260 307
3 319 307 229
3 333 325 312
3 310 166 334
3 277 237 201
3 285 329 199
3 305 294 216
3 176 233 234
3 217 236 246
3 307 268 194
3 251 253 181
3 283 183 224
3 252 251 181
3 182 252 181
3 290 255 278
3 244 100 163
3 297 248 240
3 320 262 244
3 257 249 323
3 285 199 243
3 217 323 236
3 241 187 186
3 185 301 242
3 293 178 294
3 330 216 316
3 270 99 318
3 312 328 165
3 308 321 233
3 325 333 98
3 283 264 183
3 290 234 233
3 228 238 245
3 265 335 264
3 179 236 309
3 237 309 236
3 202 254 255
3 232 320 319
3 289 213 269
3 278 329 207
3 199 201 250
3 273 281 251
3 323 217 257
3 327 182 130
3 224 183 301
3 243 326 209
3 205 213 203
3 295 193 247
3 184 241 314
3 273 242 301
3 310 297 191
3 209 285 243
3 220 257 272
3 298 198 197
3 256 202 321
3 178 293 266
3 279 170 166
3 218 331 263
3 219 305 215
3 318 306 270
3 265 318 222
3 318 265 306
3 195 271 307
3 183 264 335
3 207 290 278
3 163 267 244
3 271 195 286
3 191 291 177
3 223 240 239
3 227 187 252
3 227 188 187
3 253 251 280
3 253 336 79
3 224 301 185
3 273 251 252
3 287 320 232
3 238 217 245
3 235 203 213
3 329 208 207
3 205 299 269
3 178 282 223
3 256 214 266
3 231 303 215
3 316 216 294
3 265 222 280
3 307 319 268
3 254 256 225
3 269 234 289
3 167 165 328
3 267 315 268
3 219 215 304
3 282 297 240
3 175 296 299
3 303 283 317
3 202 255 290
3 310 279 166
3 247 193 302
3 246 236 179
3 270 325 98
3 311 295 247
3 295 311 287
3 261 275 340
3 212 289 208
3 241 186 314
3 257 238 272
3 229 232 319
3 333 312 165
3 260 218 263
3 293 305 219
3 283 303 264
3 303 304 215
3 306 265 264
3 297 190 191
3 180 223 328
3 177 331 279
3 328 312 180
3 330 231 216
3 263 292 260
3 214 190 282
3 179 219 304
3 290 233 202
3 335 265 280
3 315 267 158
3 335 280 281
3 282 240 223
3 331 192 279
3 264 231 306
3 225 179 309
3 316 294 180
3 202 256 254
3 231 330 306
3 225 309 254
3 189 218 194
3 297 282 190
3 233 176 276
3 167 328 239
3 264 303 231
3 317 304 303
3 192 218 189
3 308 233 276
3 177 279 310
3 256 321 214
3 178 223 180
3 190 321 308
3 330 316 325
3 276 263 291
3 244 262 300
3 225 266 293
3 322 313 300
3 304 317 246
3 297 310 248
3 292 175 195
3 192 169 170
3 178 180 294
3 196 340 337
3 315 192 189
3 313 100 300
3 248 334 65
3 176 296 175
3 261 206 205
3 222 149 336
3 222 336 253
3 192 315 169
3 79 130 181
3 318 99 149
3 235 213 212
3 65 167 239
3 243 230 326
3 170 279 192
3 200 274 221
3 271 193 229
3 338 211 314
3 227 339 188
3 196 193 271
3 196 302 193
3 340 286 206
3 339 227 332
3 261 340 206
3 196 337 302
3 340 196 286
3 340 275 337
