OFF
341 634 0
-0.26210581419569 0.220621093461035 0.14818922308938
-0.259343160568724 0.166666212966279 0.19019127638621
-0.0952646856058284 0.15545581135173 0.235013735090405
-0.123243764958453 -0.0371638171933018 0.294261169488749
-0.247669442779296 -0.105567238683136 0.249859309149991
-0.0724393236345532 -0.0663892865023611 0.277249764170214
-0.0485157271262479 -0.365561075673826 0.0815585693453948
-0.0483844469274633 -0.398458978047721 0.0381556870749118
-0.172799409824725 -0.278352066697083 0.173052767180329
-0.254834828140132 -0.310122158997006 0.0588904646468527
-0.242654916956741 -0.289154243516362 0.107345743764463
-0.20674005 -0.370862325 0
-0.16579282025453 -0.367402691474301 0.0501467330364404
-0.15659985 -0.393856575 0
-0.0879010777551129 0.269557291994567 0.172240125437213
-0.155510297418928 0.0765475807009065 0.273262109904025
-0.123616572309302 0.119638260919994 0.255744661053655
-0.0544271767474863 0.233022905901096 0.190016875839889
-0.22342482642608 0.338171809485423 0.0496641640966163
-0.133580841440938 0.276688954181876 0.16376979789338
-0.220430673656697 0.26329722331673 0.141182945448598
-0.264730463829977 0.305699894179066 0.0530417438226579
-0.386958110036632 -0.128973804113309 0.0495744369823816
-0.374923588504142 -0.096071260650169 0.0950186301203535
-0.379642976344621 -0.03447517964892 0.106201603044832
-0.3663258 -0.216070425 0
-0.345330046574782 -0.0285045052675929 0.162728162343152
-0.260196336735366 0.0509611703156837 0.242097061121006
-0.373514631250087 0.168851705565214 0.0442794067420279
-0.378213375 0.20057595 0
-0.340299715244579 0.192966928872234 0.0804390101510519
-0.31360126265252 0.239001985011781 0.0727714181336235
-0.33438752563928 0.069761633178651 0.163862215992824
-0.3634396693629 0.0608270210646908 0.124300527310953
-0.405452470141836 0.0521236376774106 0.047611263276541
-0.419072025 0.08340705 0
-0.29591525324161 -0.286816967013189 0.034974476419393
-0.379897607954638 0.0839842040046886 0.0879380296195182
-0.36278278046397 0.139201481962798 0.0872129458863883
-0.180796039882298 0.034864306559778 0.281817522364487
-0.167060987376781 -0.159637704677025 0.264608981939163
-0.115682717551168 -0.147897606902937 0.270330400028442
-0.285473022648701 -0.168850816359373 0.185437121544184
-0.119293536181184 0.239381683284058 0.192401048205354
-0.201658234140015 -0.109633048896826 0.273761525090983
-0.355951680915821 -0.154890344324278 0.0925622282185191
-0.361986327479713 -0.186471403815835 0.0502471039686606
-0.0394322852266482 -0.285879033097162 0.154709593096587
-0.0760214730706088 -0.0123264277766113 0.281341418655937
-0.225301670024995 -0.265794479307631 0.154316731122616
-0.228023930741118 -0.0517517964662794 0.272773732471436
-0.41392695 -0.1031958 0
-0.108932395906178 -0.394505679199201 0.0324134680777995
-0.274568602802347 -0.244911124805708 0.127510587977605
-0.179512772637743 0.334624451097314 0.0887184419141906
-0.424888575 -0.04151169 0
-0.126066551044929 -0.198093232201424 0.246589440785854
-0.141102842326454 0.359847029134336 0.0752378535020581
-0.252003587437572 0.112865359705285 0.225256427345714
-0.304412178136328 0.123597338832032 0.175988638788928
-0.393670190901165 0.112277368012645 0.0459641820308628
-0.288644752985818 -0.113816243705498 0.211714826152494
-0.318948427345154 -0.0713945998487335 0.191130519852009
-0.29441501958722 -0.203521148417964 0.145557392288116
-0.033811471917514 0.013048094092464 0.252711935734609
-0.000111500437575204 0.0406723395229034 0.216116183042276
-0.074545113040268 0.0344249405665105 0.27368777875374
-0.219664871058166 -0.344810305670942 0.0395162009091066
-0.205310077112791 -0.329877650627373 0.0827335360209652
-0.406820499431358 -0.00905325509466872 0.0522533582701339
-0.0432280829311768 0.375079384177172 0.0732710021233987
-0.254508161694634 -0.221305996910138 0.174397439541285
-0.257247142872716 -0.149105121419611 0.223907083046369
-0.21551475 0.371952075 0
-0.0410355519479533 0.0661142205994317 0.24806593809639
-0.347706508447719 -0.123411034266676 0.128357304574905
-0.3518707688196 -0.0770737191982483 0.143124292400149
-0.0959397217702589 -0.343118401513522 0.114060363164449
-0.105166736555749 -0.372286376111797 0.0724169719378085
1.0666147937395e-05 -0.339288700090198 0.0808476292585909
-0.0433913200397075 -0.32799143030305 0.120046290870526
-0.267099576920701 -0.00996272283427637 0.24727288552712
-0.294011543820365 0.0231448764782296 0.2200523286443
-0.225180568569042 0.0125797697385198 0.271016852139023
-0.323267703616466 -0.166317117190225 0.137902348777947
-0.331205128590089 -0.237763788842114 0.0474925350552547
-0.290173966864905 -0.264033422974229 0.0810517583837564
-0.173619707880675 0.252981914665824 0.172791401405864
-0.346309186246948 0.223821985834766 0.0382803185460469
-0.0777090983213597 0.39861281094882 0.0412380319668835
-0.164122652812164 0.20668105437138 0.20742341405549
-0.139855258564763 -0.245506204309445 0.213019516725962
-0.0836012704742674 -0.267138472036498 0.18927275987103
-0.177948338478536 -0.0148641711628741 0.290784692688931
-0.0560158040144546 0.336298156747079 0.116855516276678
-0.102015526625287 0.307313669853618 0.143640334614192
-0.327579445802306 0.159914318333922 0.12560386683479
-0.0349974636913704 -0.194405614122688 0.210138650698751
-4.17434846319048e-05 -0.15910627149681 0.185902574045067
4.3822509486763e-06 -0.206085346016809 0.166065557493376
-6.99451868332377e-07 0.390185274886978 0.0422177698902369
-0.223444810614073 0.302366420417703 0.0977721578929033
-0.322851875847098 -0.210584567852777 0.0976103504593714
-0.152209090632905 -0.342997521663594 0.0997734623288157
-0.394265625 -0.161990775 0
-0.346105275 0.253029675 0
-0.20867577405801 0.164062027775492 0.220130701755782
-0.308541785415617 -0.022868554280073 0.209316429600834
-0.327040331563267 0.0221366188414803 0.184826502266644
-0.0492627259314759 0.17619996434826 0.214113013896647
-0.0860255220138893 -0.308110255489482 0.152475218460697
-0.139076499298154 -0.314783630245493 0.142788736415994
-0.126691840602663 0.0235296760247974 0.28895969336995
-0.202398154855922 -0.238021737431452 0.198926848988011
-0.3337734 -0.262401825 0
-0.386330486590209 0.0253062167831347 0.0929903706746268
-0.271188148473127 0.264958250448657 0.0970534258448199
-0.12767557398941 0.387222009626711 0.0414742268676418
-0.40257135 0.14426865 0
-0.346633300309737 0.108739472370408 0.130700068938182
-0.297164818888715 0.0723538113198904 0.204846579964788
-0.150809864452911 0.162574274438093 0.234567376299062
-0.21607450239749 0.214627349543576 0.183890347095464
-0.170283297241511 -0.0691874704212043 0.290849242547573
-0.115851738112314 -0.0932626081695212 0.287042994497962
-0.178092227571247 0.366570611916323 0.0437330349982922
-0.29416201304342 0.17648053515887 0.152587954574254
-0.095831380066203 0.0759113612112433 0.268675645133794
-0.400977226557193 -0.0683269538380922 0.0527946813654688
-0.302558618711435 0.213811332801642 0.113090993621501
7.23738615829477e-06 -0.384778061145676 0.0407019153935101
-0.0318898682200754 0.407688890826072 0.0309116046109952
-0.19177238759111 -0.306409432189103 0.128829407261545
-0.26023035 0.34257285 0
-0.181448111139515 -0.203229102827892 0.235684036429277
-0.216203466190359 -0.156036917583631 0.248538882327415
-0.154777736481237 -0.11703556051727 0.282369984704647
-0.0817158303104105 -0.224174536176345 0.220349536464179
-0.168630429200144 0.300271773967341 0.13355281706621
-0.188754524070316 0.120485483692281 0.249479354534659
-0.278742438777201 -0.0629257532948807 0.235393879472683
-0.0555287992011427 0.119232888976182 0.238928012100572
-0.163463175 0.397317975 0
-0.0318344662789375 -0.0914102369165265 0.244111027353097
-0.261076875 -0.334996125 0
-0.0466084417721968 0.287605495193753 0.154343448024124
-0.0707148710424657 -0.121330593739755 0.264150333518885
-0.235067971465574 -0.19323262436603 0.214184452463047
-0.0374495400665943 -0.241380743518219 0.185246794700241
1.18433885263226e-05 -0.251547911915902 0.14187639288365
-0.123023621951677 0.336276211402044 0.111666560753482
-0.0927116473831027 0.367537404624133 0.0811960763430694
-0.21467095347026 0.0722576995737221 0.260452895801772
-0.0512984025 0.4269993 0
-0.321134027486461 -0.121408982104307 0.169710103454905
-0.1094748 0.415529775 0
-0.0324827987706363 -0.143862816134776 0.229626348784397
-0.426552225 0.020262255 0
-6.08787388810934e-05 0.30015902764404 0.119058213408987
-0.0326408653145919 -0.0388671293708741 0.252471943512741
-0.35967159189336 0.0164298864597865 0.140238898575626
-0.0743252023470464 -0.174847996480765 0.245081163902267
-0.104298609237932 0.198522726213218 0.215413929757586
-8.12595587894534e-06 0.343761181947098 0.0847936909879499
-0.0548603475 -0.420232275 0
-0.000134061647808488 -0.0605726394894222 0.210755867142092
-4.06461981478139e-05 0.143193533706156 0.202367743151729
-0.000140390345303163 -0.0107215121630588 0.215435300217807
-0.125007902845441 -0.284354947051904 0.177854560000954
-6.57129232081373e-05 0.248712267283083 0.152928502417454
-5.42257372200934e-05 0.196860175669325 0.180945300915912
-0.30277725 0.3042819 0
-0.298777125 -0.30149235 0
-0.109228125 -0.40912035 0
-0.30812707388429 0.268642278540169 0.0452031732892542
0.261780733385827 0.221595074895424 0.147877272063534
0.259190532861637 0.167474374005604 0.190054951339487
0.095179331286785 0.156250313105906 0.234875006175492
0.123021782261387 -0.0373739069146788 0.29461105384855
0.247670888670776 -0.10617937196259 0.249996354376277
0.0721542954408285 -0.0666955466557842 0.277536954497926
0.0485424904619855 -0.365642404470194 0.0815382230835808
0.0483952957240542 -0.39848719238902 0.0381417842377382
0.172948027612114 -0.278624034929429 0.173263453737683
0.254821494998577 -0.310285728355192 0.0588632158373708
0.242634608461394 -0.289493516700777 0.107292688393859
0.20674005 -0.370862325 0
0.165804893446654 -0.367507642864892 0.0501428658277395
0.15659985 -0.393856575 0
0.0877974094987038 0.269790310303094 0.172206478469838
0.155387256031492 0.0779799931792958 0.273101536203469
0.12352335302736 0.12072968945532 0.255586145367758
0.0543120315214781 0.233258917517365 0.189987616648929
0.223463778446844 0.338181779638856 0.0497058340386159
0.133490970497374 0.277007585641935 0.16370410944652
0.220229213557832 0.263885587401199 0.140981230662327
0.264796543717 0.305674815265769 0.0531071446085956
0.386956700935056 -0.129107814563012 0.0495711744745806
0.374936716718177 -0.0963057466912952 0.0950348229589002
0.37967970519005 -0.0346015596958683 0.106253266265147
0.3663258 -0.216070425 0
0.345387661036045 -0.0286167853978519 0.162839417171325
0.260161943115073 0.0518200516776035 0.242156267479234
0.37347127844443 0.169060600884307 0.0442421531327492
0.378213375 0.20057595 0
0.340151630912995 0.193498812085853 0.0803112940766064
0.313408664873789 0.239524761501294 0.0725961086686055
0.334462766134127 0.0697628450411416 0.163965550494135
0.363504366058537 0.0607081868131407 0.124384332771355
0.405465667308789 0.0521535229935401 0.047626736274857
0.419072025 0.08340705 0
0.295904211549353 -0.286914816797993 0.0349559865043335
0.379912592757559 0.0841088523332251 0.0879628779826088
0.362733350725255 0.139548972952624 0.0871789827381535
0.180675115347898 0.035724082131958 0.281928911558131
0.166877434569826 -0.161210151230438 0.264331805035325
0.115495524843748 -0.148975186253054 0.270330939385963
0.285360948097612 -0.169844320148618 0.185286963603975
0.11918308843811 0.239791383686032 0.192324126339088
0.20161737217481 -0.110015465274375 0.27397388391865
0.355933221476974 -0.15520713939289 0.0925390143505931
0.361969892668744 -0.186634444181922 0.0502262330915111
0.0394759847144762 -0.286207015977327 0.154636786780882
0.0757292487515658 -0.0121644346373306 0.281677401652729
0.22527278260701 -0.266362436828931 0.154218522320877
0.228045390047893 -0.0512991224820329 0.2730552978346
0.41392695 -0.1031958 0
0.108940701728115 -0.394557831156494 0.0324148183474423
0.274500965196466 -0.245437593667988 0.127397024049689
0.17953282976037 0.334710945426654 0.0887316845755807
0.424888575 -0.04151169 0
0.125921612635977 -0.199654380453816 0.246220596219056
0.14110989068179 0.35994041031425 0.0752137781960684
0.251907750098735 0.113755810849144 0.225189050625942
0.30428019499648 0.124502549216955 0.175886205625785
0.393664028140067 0.112397202072744 0.0459604699437315
0.288566754259823 -0.114860368770789 0.211709259165632
0.318983577360859 -0.0717798975810696 0.191248625270787
0.294327924882904 -0.204203743260392 0.145427774409993
0.0335053907219218 0.013300502859237 0.252913305789758
0.0743086441187607 0.0351271110046647 0.273894085778449
0.219665507944305 -0.3449039197594 0.039505402817043
0.205318402272856 -0.330085612451835 0.0827180702204371
0.406838530807829 -0.00908910313551031 0.0522744345809147
0.043233872347497 0.375155569653238 0.0732214874000926
0.254369755179957 -0.222257701666541 0.17415170077005
0.257066659339324 -0.150512165574994 0.223722421066567
0.21551475 0.371952075 0
0.0408495091980888 0.0668397375783839 0.248141505989609
0.347701176721747 -0.12382571760306 0.128355575260219
0.351901134650515 -0.0773923498351744 0.143178667777753
0.0959807630272494 -0.343341052004454 0.11404006925371
0.105187906796518 -0.372409673825332 0.0724106298680628
0.043431702960169 -0.3281590480453 0.120010616427272
0.267159063030082 -0.00967358512282165 0.247470186621612
0.294054054260433 0.0236323864403912 0.220192343495595
0.225145632432169 0.0131647041171175 0.271196792791899
0.323218656565186 -0.166886526399501 0.137839673143086
0.331184896022857 -0.237914700786193 0.0474655589346911
0.290140043764851 -0.26430667618502 0.0809988815775036
0.173493305370507 0.253465248185872 0.172673627538303
0.346227988921509 0.224064329286984 0.0382104577395997
0.0777117025184251 0.398655661008276 0.0412139236482435
0.163996936223687 0.207308490628518 0.207299655789075
0.139802621783158 -0.246572241739523 0.212744711844818
0.0836616076571196 -0.267905359088998 0.189083001135931
0.177832726558883 -0.0147700266278412 0.291084387749422
0.0560585772962646 0.336596347966559 0.116677420419124
0.10195588189805 0.307532368004417 0.143593653567734
0.327433385940648 0.160602482020701 0.125497561299505
0.0350541240333187 -0.195491387844475 0.209965541643564
0.223562057954636 0.302296584392455 0.0979246020000384
0.322804246050211 -0.210965309098124 0.0975457161250624
0.152241239882447 -0.343219556136002 0.0997695017074851
0.394265625 -0.161990775 0
0.346105275 0.253029675 0
0.208546683184752 0.164865742190697 0.220002342808996
0.30860943887678 -0.0226535953299933 0.209498492637506
0.327109162954419 0.022139781460869 0.184966892134582
0.0491716306900683 0.17664880647761 0.214040235587871
0.0860862798815644 -0.308510494842593 0.152406115635851
0.139147397979419 -0.315125586725446 0.14279724186109
0.126508520546291 0.0242093011873535 0.28921108968207
0.202179239509895 -0.239362266004333 0.198443894555737
0.3337734 -0.262401825 0
0.386364994999602 0.0252745968061539 0.0930377935323005
0.27099974764113 0.265481758597744 0.0968507448041432
0.127679989267887 0.387270366153009 0.0414561880216358
0.40257135 0.14426865 0
0.346609801313049 0.109125390058077 0.130712940324963
0.297197958086425 0.0727537599964315 0.204940181498842
0.150702616987344 0.16337996285199 0.234432098223983
0.215896422973607 0.215339457265332 0.183716581995905
0.17017950913608 -0.0691490206395432 0.291157568866492
0.115628361734939 -0.0937729952224187 0.287289948601845
0.178104142629929 0.366611131366157 0.0437358507196242
0.294082138015108 0.177023539946807 0.152518977058288
0.0957148979520223 0.0773575338415426 0.268540136906291
0.400990334030633 -0.0684154660446257 0.0528085066012653
0.302145985309886 0.214966558242317 0.112721872549761
0.0318918302475475 0.40770628091921 0.0308921271276656
0.191809095721142 -0.306736027746327 0.128838014066671
0.26023035 0.34257285 0
0.181148580889934 -0.205287939974338 0.234935600555519
0.21599529140699 -0.157664342749044 0.248250357040829
0.154639942471932 -0.117816959727948 0.282476960858368
0.0818171645173112 -0.225686302245677 0.219903341989013
0.168578546965058 0.300524523467514 0.133501167883817
0.188646347639213 0.12147245863446 0.249359290000982
0.278825289942933 -0.0629240553224079 0.235609119151038
0.0554802231351414 0.12032887973055 0.238758195608245
0.163463175 0.397317975 0
0.0315698587672571 -0.0917357225379716 0.244254826345553
0 0.43125 0
0.261076875 -0.334996125 0
0.0464536282089907 0.287599715797826 0.154404747863171
0.0704980645605313 -0.122062592458053 0.264291706408865
0.234796625096545 -0.194862197356944 0.213729966387982
0.0374938140519485 -0.242004932758181 0.185107897913037
0.123016765533927 0.33645017596112 0.11160607313944
0.0927196556431765 0.367655298033086 0.0811341667408173
0.214584893922343 0.0731939191614886 0.260454010543225
0.0512984025 0.4269993 0
0.321114825181652 -0.122034996032424 0.169709823966147
0.1094748 0.415529775 0
0.0323284698099666 -0.144435596671005 0.229674851372246
0.426552225 0.020262255 0
0 -0.424778175 0
0.032319833054506 -0.0389342957886603 0.252671818168108
0.359726798383202 0.0163658239177328 0.1403279660678
0.0742440187543727 -0.176060097534352 0.244971910454886
0.104193993145371 0.199074312553287 0.215311765323371
0.0548603475 -0.420232275 0
-8.29662034838036e-05 -0.110702513294398 0.200919142337106
-5.0590577452761e-05 0.0923444049866582 0.212752266423397
0.125111379292932 -0.284953673956754 0.17776856625062
1.22937587852257e-05 -0.295972081546541 0.113394826446159
0.30277725 0.3042819 0
0.298777125 -0.30149235 0
0.109228125 -0.40912035 0
0.308053599321347 0.268846551409655 0.0451343200537711
3 0 1 122
3 78 52 7
3 101 21 116
3 45 23 22
3 152 58 27
3 136 124 123
3 60 118 35
3 53 63 102
3 28 29 118
3 66 64 74
3 102 85 86
3 26 160 24
3 97 99 98
3 41 136 40
3 125 18 54
3 9 10 86
3 22 104 46
3 46 102 45
3 111 77 110
3 54 57 125
3 80 47 110
3 116 129 0
3 9 67 68
3 106 122 1
3 59 126 96
3 72 42 147
3 71 53 49
3 51 22 128
3 129 31 30
3 68 10 9
3 53 102 86
3 35 34 60
3 44 123 50
3 40 56 41
3 30 38 96
3 111 8 132
3 25 114 85
3 49 113 71
3 33 115 160
3 138 54 101
3 46 85 102
3 68 67 12
3 145 95 14
3 81 82 107
3 2 16 141
3 147 71 113
3 95 94 150
3 89 117 151
3 12 11 13
3 32 59 119
3 139 16 121
3 128 55 51
3 24 23 76
3 36 114 172
3 117 89 155
3 143 5 146
3 45 84 75
3 28 118 60
3 45 75 23
3 22 51 104
3 60 34 37
3 88 28 30
3 145 169 158
3 122 106 90
3 94 151 150
3 162 17 43
3 71 147 42
3 140 107 62
3 112 39 93
3 103 12 78
3 64 48 159
3 4 72 135
3 151 94 70
3 68 12 103
3 86 85 36
3 154 62 76
3 31 129 116
3 37 34 115
3 161 97 156
3 149 148 47
3 83 50 93
3 121 2 162
3 81 107 140
3 1 126 59
3 20 122 87
3 163 94 158
3 115 33 37
3 32 120 59
3 89 131 153
3 89 153 155
3 29 88 105
3 23 24 128
3 154 61 62
3 128 24 69
3 125 57 117
3 34 35 157
3 327 7 164
3 63 42 84
3 70 100 131
3 106 139 121
3 43 19 87
3 14 95 19
3 93 3 112
3 108 107 82
3 141 74 334
3 64 65 74
3 6 79 80
3 156 143 146
3 138 20 87
3 26 107 108
3 0 20 116
3 8 111 168
3 119 38 37
3 129 96 126
3 108 160 26
3 10 53 86
3 132 103 111
3 62 26 76
3 117 155 142
3 119 33 32
3 144 9 36
3 86 36 9
3 76 75 154
3 55 128 69
3 29 28 88
3 130 6 7
3 23 75 76
3 53 10 49
3 164 7 52
3 114 36 85
3 45 22 46
3 25 85 46
3 4 44 50
3 152 39 15
3 121 162 90
3 137 97 161
3 139 15 16
3 19 138 87
3 150 54 138
3 333 143 156
3 141 334 166
3 107 26 62
3 115 24 160
3 136 41 124
3 1 59 58
3 42 72 61
3 138 19 95
3 77 6 80
3 113 49 8
3 78 6 77
3 7 6 78
3 120 108 82
3 70 163 100
3 127 66 74
3 151 70 89
3 84 154 75
3 115 69 24
3 42 61 154
3 67 11 12
3 10 68 132
3 123 124 3
3 161 146 41
3 97 148 99
3 143 165 159
3 139 58 152
3 156 98 333
3 113 8 91
3 120 58 59
3 53 71 63
3 92 91 168
3 4 140 61
3 62 61 140
3 27 82 81
3 57 150 151
3 119 96 38
3 108 32 160
3 24 76 26
3 103 77 111
3 154 84 42
3 327 130 7
3 49 132 8
3 69 34 157
3 30 28 38
3 125 73 18
3 9 144 67
3 103 132 68
3 141 16 127
3 34 69 115
3 45 102 84
3 128 22 23
3 83 152 27
3 3 93 123
3 109 166 170
3 43 90 162
3 44 40 136
3 148 97 137
3 92 47 148
3 148 137 92
3 20 138 101
3 8 168 91
3 32 108 120
3 163 70 94
3 101 116 20
3 16 2 121
3 48 64 66
3 52 78 12
3 52 12 13
3 80 110 77
3 80 79 336
3 49 10 132
3 103 78 77
3 117 57 151
3 63 71 42
3 60 38 28
3 160 32 33
3 30 96 129
3 3 48 112
3 83 93 39
3 56 40 134
3 146 124 41
3 92 110 47
3 138 95 150
3 81 50 83
3 96 119 59
3 167 159 165
3 94 95 145
3 44 135 40
3 112 66 127
3 0 129 126
3 134 147 113
3 27 120 82
3 141 166 109
3 73 133 18
3 72 4 61
3 97 98 156
3 142 73 125
3 125 117 142
3 88 174 105
3 37 33 119
3 67 144 11
3 84 102 63
3 54 150 57
3 333 165 143
3 87 90 43
3 123 44 136
3 113 91 134
3 134 40 135
3 137 91 92
3 127 16 15
3 5 159 48
3 2 109 162
3 159 5 143
3 161 41 56
3 90 87 122
3 39 112 15
3 4 135 44
3 120 27 58
3 168 110 92
3 145 158 94
3 168 111 110
3 112 48 66
3 162 109 17
3 91 137 56
3 50 140 4
3 146 5 124
3 27 81 83
3 56 137 161
3 50 81 140
3 14 19 43
3 127 15 112
3 58 106 1
3 167 64 159
3 91 56 134
3 147 134 135
3 17 14 43
3 139 106 58
3 2 141 109
3 83 39 152
3 3 5 48
3 15 139 152
3 161 156 146
3 106 121 90
3 70 131 89
3 50 123 93
3 153 131 313
3 135 72 147
3 127 74 141
3 122 20 0
3 17 170 169
3 3 124 5
3 21 171 174
3 145 14 17
3 313 131 100
3 74 65 334
3 1 0 126
3 88 30 31
3 47 336 149
3 47 80 336
3 17 169 145
3 79 6 130
3 148 149 99
3 60 37 38
3 65 64 167
3 69 157 55
3 170 17 109
3 25 46 104
3 101 54 18
3 172 144 36
3 52 13 173
3 21 101 18
3 21 18 133
3 174 31 116
3 173 164 52
3 88 31 174
3 21 133 171
3 174 116 21
3 174 171 105
3 175 292 176
3 252 182 227
3 271 286 196
3 220 197 198
3 321 202 233
3 305 293 294
3 235 210 288
3 228 272 238
3 203 288 204
3 240 248 239
3 272 259 258
3 201 199 329
3 270 98 99
3 216 215 305
3 295 229 193
3 184 259 185
3 197 221 274
3 221 220 272
3 281 280 251
3 229 295 232
3 253 280 222
3 286 175 299
3 184 242 241
3 276 176 292
3 234 269 296
3 246 317 217
3 245 224 228
3 226 298 197
3 299 205 206
3 242 184 185
3 228 259 272
3 210 235 209
3 219 225 293
3 215 216 231
3 205 269 213
3 281 301 183
3 200 258 284
3 224 245 283
3 208 329 285
3 307 271 229
3 221 272 258
3 242 187 241
3 315 189 268
3 254 277 255
3 177 310 191
3 317 283 245
3 268 319 267
3 262 320 287
3 187 188 186
3 207 289 234
3 308 291 191
3 298 226 230
3 199 250 198
3 211 338 284
3 287 324 262
3 312 316 180
3 220 249 257
3 203 235 288
3 220 198 249
3 197 274 226
3 235 212 209
3 261 205 203
3 315 158 169
3 292 263 276
3 267 319 320
3 331 218 192
3 245 217 317
3 309 237 277
3 282 266 214
3 273 252 187
3 239 328 223
3 179 304 246
3 320 244 267
3 242 273 187
3 259 211 258
3 323 250 237
3 206 286 299
3 212 285 209
3 330 325 270
3 149 222 318
3 256 266 225
3 291 331 177
3 254 309 277
3 176 234 296
3 195 260 292
3 163 158 267
3 285 212 208
3 207 234 290
3 262 322 300
3 262 324 322
3 204 275 261
3 198 298 199
3 323 237 236
3 298 243 199
3 295 287 232
3 209 326 210
3 327 332 182
3 238 257 217
3 244 300 100
3 276 291 308
3 218 260 194
3 189 194 268
3 266 282 178
3 278 255 277
3 310 334 248
3 239 248 65
3 181 253 79
3 325 316 312
3 307 260 195
3 201 278 277
3 175 286 195
3 183 335 281
3 289 212 213
3 299 296 269
3 278 201 329
3 185 259 228
3 301 281 273
3 237 250 201
3 287 311 324
3 289 207 208
3 314 211 184
3 259 184 211
3 250 323 249
3 230 243 298
3 204 261 203
3 130 182 181
3 198 250 249
3 228 224 185
3 332 227 182
3 284 258 211
3 220 221 197
3 200 221 258
3 179 225 219
3 321 190 214
3 291 263 331
3 306 330 270
3 308 191 190
3 194 260 307
3 319 307 229
3 333 325 312
3 310 166 334
3 277 237 201
3 285 329 199
3 305 294 216
3 176 233 234
3 217 236 246
3 307 268 194
3 251 253 181
3 283 183 224
3 252 251 181
3 182 252 181
3 290 255 278
3 244 100 163
3 297 248 240
3 320 262 244
3 257 249 323
3 285 199 243
3 217 323 236
3 241 187 186
3 185 301 242
3 293 178 294
3 330 216 316
3 270 99 318
3 312 328 165
3 308 321 233
3 325 333 98
3 283 264 183
3 290 234 233
3 228 238 245
3 265 335 264
3 179 236 309
3 237 309 236
3 202 254 255
3 232 320 319
3 289 213 269
3 278 329 207
3 199 201 250
3 273 281 251
3 323 217 257
3 327 182 130
3 224 183 301
3 243 326 209
3 205 213 203
3 295 193 247
3 184 241 314
3 273 242 301
3 310 297 191
3 209 285 243
3 220 257 272
3 298 198 197
3 256 202 321
3 178 293 266
3 279 170 166
3 218 331 263
3 219 305 215
3 318 306 270
3 265 318 222
3 318 265 306
3 195 271 307
3 183 264 335
3 207 290 278
3 163 267 244
3 271 195 286
3 191 291 177
3 223 240 239
3 227 187 252
3 227 188 187
3 253 251 280
3 253 336 79
3 224 301 185
3 273 251 252
3 287 320 232
3 238 217 245
3 235 203 213
3 329 208 207
3 205 299 269
3 178 282 223
3 256 214 266
3 231 303 215
3 316 216 294
3 265 222 280
3 307 319 268
3 254 256 225
3 269 234 289
3 167 165 328
3 267 315 268
3 219 215 304
3 282 297 240
3 175 296 299
3 303 283 317
3 202 255 290
3 310 279 166
3 247 193 302
3 246 236 179
3 270 325 98
3 311 295 247
3 295 311 287
3 261 275 340
3 212 289 208
3 241 186 314
3 257 238 272
3 229 232 319
3 333 312 165
3 260 218 263
3 293 305 219
3 283 303 264
3 303 304 215
3 306 265 264
3 297 190 191
3 180 223 328
3 177 331 279
3 328 312 180
3 330 231 216
3 263 292 260
3 214 190 282
3 179 219 304
3 290 233 202
3 335 265 280
3 315 267 158
3 335 280 281
3 282 240 223
3 331 192 279
3 264 231 306
3 225 179 309
3 316 294 180
3 202 256 254
3 231 330 306
3 225 309 254
3 189 218 194
3 297 282 190
3 233 176 276
3 167 328 239
3 264 303 231
3 317 304 303
3 192 218 189
3 308 233 276
3 177 279 310
3 256 321 214
3 178 223 180
3 190 321 308
3 330 316 325
3 276 263 291
3 244 262 300
3 225 266 293
3 322 313 300
3 304 317 246
3 297 310 248
3 292 175 195
3 192 169 170
3 178 180 294
3 196 340 337
3 315 192 189
3 313 100 300
3 248 334 65
3 176 296 175
3 261 206 205
3 222 149 336
3 222 336 253
3 192 315 169
3 79 130 181
3 318 99 149
3 235 213 212
3 65 167 239
3 243 230 326
3 170 279 192
3 200 274 221
3 271 193 229
3 338 211 314
3 227 339 188
3 196 193 271
3 196 302 193
3 340 286 206
3 339 227 332
3 261 340 206
3 196 337 302
3 340 196 286
3 340 275 337
