OFF
341 634 0
-0.440975592542868 0.369329677825882 0.251155366481353
-0.43601399388869 0.279649784937176 0.320468624157169
-0.159415052230831 0.260129307326919 0.393812569452181
-0.20720508922919 -0.0595797516239519 0.49013586689608
-0.416103632721799 -0.173255563376862 0.417883522147587
-0.122177074615933 -0.107966180666741 0.462554592642266
-0.0815653406384286 -0.608782194635181 0.137641647173899
-0.0809523846166889 -0.664043758504894 0.0645080145534783
-0.291164792061971 -0.462188796388245 0.291840459687723
-0.427909712410105 -0.518828987487972 0.100267794001875
-0.4083887948266 -0.483366563444851 0.181854642095305
-0.34456675 -0.618103875 0
-0.278022332589016 -0.613710120432472 0.0853731685417775
-0.26099975 -0.656427625 0
-0.147293604208758 0.446790470225108 0.290608860947537
-0.260923285631022 0.130576384604033 0.456167907988695
-0.207242406773767 0.201448281587938 0.427965931673776
-0.0909756989041959 0.386337994369661 0.318549123284206
-0.374855340280165 0.564900428685444 0.0856786925707855
-0.224391205146049 0.459215957025187 0.278068132614209
-0.371032648087871 0.439254554198688 0.240371906252141
-0.444456600987827 0.510881141142295 0.0914392124664268
-0.649329824604901 -0.215654739603196 0.0844726242145129
-0.630739382218823 -0.160267297690896 0.161084446880324
-0.638901096003042 -0.0568077224078032 0.179907548143878
-0.610543 -0.360117375 0
-0.581202120643066 -0.0460474022382953 0.274142075630635
-0.436926624349925 0.0876737002296598 0.405263334133723
-0.62635478169696 0.282972571509219 0.0757065753650786
-0.630355625 0.33429325 0
-0.571985550739547 0.323856399314461 0.137030461745281
-0.526852183548365 0.40044580533928 0.124281627989748
-0.56265644611551 0.118549537911196 0.276211154983881
-0.611606210524786 0.103203899317755 0.210265943147747
-0.680188947286105 0.0877221844028077 0.0812200519845797
-0.698453375 0.13901175 0
-0.495780109993119 -0.479576636131275 0.0597142530393182
-0.638837442573854 0.141648949442535 0.149370376150448
-0.610003459996421 0.23407512300835 0.148283697842883
-0.303304559224182 0.0608107095652147 0.469985092640609
-0.280828217496274 -0.263287182635554 0.441558078362506
-0.194801313266779 -0.243150725514208 0.451206348640458
-0.480439411829933 -0.280867085296104 0.311761443724815
-0.19999767479742 0.397913190333825 0.324690171593827
-0.338711907067807 -0.179131591763028 0.45688568880053
-0.598791237282624 -0.258986622671306 0.156935956474072
-0.607485442352154 -0.312001032902701 0.0856097161448677
-0.0668973728803931 -0.47490582851383 0.260632230737567
-0.1281586994175 -0.0180869193473394 0.468679115992092
-0.379356628912933 -0.44304911927968 0.260268481276588
-0.382800185371187 -0.0825610992672822 0.455418226113957
-0.68987825 -0.171993 0
-0.18225120090463 -0.658128556900661 0.0550963158650389
-0.462275882103745 -0.409264152097918 0.215535928012807
-0.301794781367123 0.558315744980241 0.152224003129426
-0.708147625 -0.06918615 0
-0.212251879501855 -0.326962093880856 0.412344697226593
-0.236834839795427 0.600294393367426 0.128844072624924
-0.423410072397995 0.190307049548302 0.378036335837195
-0.511859505484719 0.209082727861534 0.296381532293005
-0.660290375044963 0.188390243268346 0.078482378813158
-0.485408702225776 -0.188028031561272 0.355147769299697
-0.536569893476733 -0.117425581327872 0.321178847735468
-0.495682427260207 -0.339734961360282 0.245548861195212
-0.0568821521729801 0.0239201856165979 0.421675530834446
4.28072016802958e-16 0.0692252145108467 0.360518322611484
-0.125466664582895 0.0598051856441805 0.455827126541853
-0.368069586800985 -0.576194122931129 0.0673749111438118
-0.345124211580216 -0.551367358752829 0.14048092430107
-0.682822883639076 -0.0147078234494123 0.0890718864481535
-0.0723643834408008 0.624039426549943 0.12390402696899
-0.428389724596534 -0.368749834955769 0.293443907396442
-0.432487706506982 -0.246776368172198 0.375136853979746
-0.35919125 0.619920125 0
-0.0686663847091538 0.112421232090141 0.41373594658556
-0.585272380064876 -0.20574480419752 0.216838425300264
-0.592307090459204 -0.127784180741216 0.241500200181437
-0.161417788237897 -0.571371985326911 0.192538717384074
-0.176494938766221 -0.620862908374596 0.12266256353724
1.5605581231002e-16 -0.565046147355335 0.137164016630278
-0.0733628387544142 -0.545610748876115 0.202386824468448
-0.4485850994472 -0.0139114964845731 0.413668185642288
-0.494060607225678 0.0414620763994878 0.368905708302675
-0.377852673381511 0.0237544804775649 0.452470274016759
-0.544228446251642 -0.27758056686879 0.232784573752483
-0.555698945610226 -0.397857865761078 0.0809511629989569
-0.487947263109527 -0.441909601965709 0.137668270888437
-0.291832168592911 0.421126453093958 0.293010677976814
-0.580329375081311 0.374604676903593 0.0655972165766286
-0.130023082468447 0.664645837444806 0.0703909556158534
-0.275539515835384 0.344714712247759 0.349787827472072
-0.235467279029855 -0.406745222036727 0.357302277405105
-0.14116931087484 -0.443026513964279 0.317963234315826
-0.298611027451035 -0.0223153817221577 0.484609249956195
-0.0938611639686223 0.558187074842818 0.197459959735712
-0.171175825398734 0.509597165654444 0.244097540656634
-0.551204462824898 0.268840265033599 0.212787383940513
-0.0591671998240301 -0.321580555328535 0.352998217100903
3.30749521233961e-16 -0.262706393623874 0.312627808355414
3.14039058516328e-16 -0.34130503663577 0.280191532563338
9.80374856283146e-17 0.649282685486314 0.0712286508266228
-0.376301020585467 0.504277236723132 0.168010735582342
-0.543280689120388 -0.352354719671493 0.165459662569657
-0.255923658674382 -0.572253708402679 0.168947726065097
-0.657109375 -0.269984625 0
-0.576842125 0.421716125 0
-0.350563463200283 0.274754934854332 0.370222454045664
-0.518766806201426 -0.0358714569657086 0.351230157336059
-0.550148395211229 0.0390478921408659 0.310833805606345
-0.0821221528163108 0.293482676789141 0.357996893280774
-0.145087549351031 -0.512060253620323 0.256752364960827
-0.234167059149938 -0.523816685973926 0.240910926406506
-0.212764997976816 0.0418285158969401 0.481508123222563
-0.340400496751422 -0.395844349591214 0.333697749208962
-0.556289 -0.437336375 0
-0.649821745462185 0.0433263347922379 0.157779728242805
-0.45625917732737 0.443294972576747 0.165812051797618
-0.213796914961513 0.646114270076578 0.071169642754404
-0.67095225 0.24044775 0
-0.583303306665423 0.183545725389385 0.221085580433919
-0.499625374632423 0.122959734282449 0.344087203826419
-0.252996062181323 0.271984428968073 0.393955833754027
-0.363303381028509 0.358475806628271 0.310865988500819
-0.285980417050216 -0.111842590424975 0.484690457917456
-0.1950045030333 -0.152335845320605 0.478450007325197
-0.298450618208028 0.61201471123515 0.0753050321842567
-0.495029999410502 0.295854768059217 0.258087868865881
-0.160814838632133 0.129587427924244 0.448042404279034
-0.673058808916297 -0.114040098583185 0.0899578548366597
-0.50891925577681 0.358776909565548 0.192078029963216
9.84099849214268e-17 -0.640866907323411 0.0689155636370056
-0.0532694302643913 0.67917501118728 0.0524336241148216
-0.322835930252545 -0.511047486578058 0.217833994861011
-0.43371725 0.57095475 0
-0.305037137946942 -0.336804124600415 0.394094666724255
-0.36332270684292 -0.257684613205114 0.415507577323501
-0.260183658905977 -0.191760614219011 0.470601360253515
-0.137955491995762 -0.370982499362287 0.369431390763811
-0.283879138867618 0.499342413480943 0.22839750758931
-0.316879417753628 0.202650901855541 0.418058072624186
-0.468408302754555 -0.102108783565613 0.394177243106869
-0.0927020462370698 0.200906468968268 0.398947852341294
-0.272438625 0.662196625 0
-0.0534820624268671 -0.149817968743919 0.408636575854964
-0.435128125 -0.558326875 0
-0.0779792376234563 0.475464656553629 0.259837753382375
-0.119283753808437 -0.19932492612739 0.441469838567741
-0.395316017739357 -0.32081021777002 0.359052886177687
-0.063507054431139 -0.400231334439758 0.311672329176589
2.52840099400391e-16 -0.417815832159675 0.240083584924495
-0.206626422802706 0.559781776823333 0.190428657224896
-0.15545987332313 0.612391087011625 0.138319075781827
-0.360336833111513 0.122735590531274 0.435541394350102
-0.0854973375 0.7116655 0
-0.540491504944562 -0.2017142888118 0.28567595024864
-0.182458 0.692549625 0
-0.0546989100900311 -0.2371695780274 0.385070482932574
-0.710920375 0.033770425 0
1.7554427673787e-16 0.497230762152212 0.200733690266343
-0.0548812587976449 -0.0624539284500896 0.421889099038795
-0.60539546947683 0.0289545486013406 0.236802900321746
-0.125452715478221 -0.288517281101226 0.410216322686061
-0.174599340957915 0.330688873287885 0.362147186130838
1.52956830986422e-16 0.570966680253084 0.143070640674673
-0.0914339125 -0.700387125 0
3.79545067215152e-16 -0.0988542474286326 0.352711917764682
3.61686377920808e-16 0.23853107819531 0.335590478233085
4.00348951669419e-16 -0.0161157212535989 0.36005023435529
-0.21069846094355 -0.471759216947499 0.299331228368461
2.34122590836667e-16 0.412429076040657 0.256010771002932
3.04969058152947e-16 0.326867874323082 0.301157820955131
-0.50462875 0.5071365 0
-0.497961875 -0.50248725 0
-0.182046875 -0.68186725 0
-0.516747624296536 0.449419239593869 0.077639248294479
0.440975592542868 0.369329677825882 0.251155366481353
0.436013993888691 0.279649784937176 0.320468624157169
0.159415052230831 0.260129307326919 0.393812569452181
0.207205089229191 -0.059579751623952 0.49013586689608
0.4161036327218 -0.173255563376862 0.417883522147588
0.122177074615934 -0.107966180666741 0.462554592642266
0.0815653406384289 -0.60878219463518 0.137641647173899
0.080952384616689 -0.664043758504894 0.0645080145534784
0.291164792061971 -0.462188796388245 0.291840459687723
0.427909712410105 -0.518828987487972 0.100267794001875
0.4083887948266 -0.483366563444851 0.181854642095305
0.34456675 -0.618103875 0
0.278022332589016 -0.613710120432472 0.0853731685417776
0.26099975 -0.656427625 0
0.147293604208758 0.446790470225108 0.290608860947537
0.260923285631024 0.130576384604033 0.456167907988696
0.207242406773768 0.201448281587938 0.427965931673777
0.0909756989041965 0.386337994369661 0.318549123284206
0.374855340280165 0.564900428685444 0.0856786925707855
0.22439120514605 0.459215957025187 0.278068132614209
0.371032648087871 0.439254554198688 0.240371906252141
0.444456600987827 0.510881141142295 0.0914392124664269
0.649329824604902 -0.215654739603196 0.0844726242145128
0.630739382218824 -0.160267297690896 0.161084446880324
0.638901096003043 -0.0568077224078033 0.179907548143878
0.610543 -0.360117375 0
0.581202120643066 -0.0460474022382954 0.274142075630635
0.436926624349926 0.0876737002296597 0.405263334133724
0.62635478169696 0.282972571509219 0.0757065753650786
0.630355625 0.33429325 0
0.571985550739547 0.323856399314461 0.137030461745282
0.526852183548365 0.40044580533928 0.124281627989748
0.562656446115511 0.118549537911196 0.276211154983881
0.611606210524786 0.103203899317755 0.210265943147747
0.680188947286105 0.0877221844028076 0.0812200519845798
0.698453375 0.13901175 0
0.495780109993119 -0.479576636131275 0.0597142530393183
0.638837442573854 0.141648949442535 0.149370376150448
0.610003459996422 0.23407512300835 0.148283697842883
0.303304559224183 0.0608107095652147 0.46998509264061
0.280828217496275 -0.263287182635554 0.441558078362507
0.19480131326678 -0.243150725514208 0.451206348640458
0.480439411829934 -0.280867085296104 0.311761443724815
0.199997674797421 0.397913190333825 0.324690171593827
0.338711907067808 -0.179131591763028 0.456885688800531
0.598791237282624 -0.258986622671306 0.156935956474072
0.607485442352154 -0.312001032902701 0.0856097161448678
0.0668973728803937 -0.47490582851383 0.260632230737567
0.128158699417501 -0.0180869193473394 0.468679115992093
0.379356628912934 -0.44304911927968 0.260268481276588
0.382800185371188 -0.0825610992672823 0.455418226113957
0.68987825 -0.171993 0
0.18225120090463 -0.658128556900661 0.055096315865039
0.462275882103746 -0.409264152097918 0.215535928012807
0.301794781367124 0.558315744980241 0.152224003129426
0.708147625 -0.06918615 0
0.212251879501856 -0.326962093880856 0.412344697226593
0.236834839795427 0.600294393367426 0.128844072624924
0.423410072397996 0.190307049548302 0.378036335837195
0.511859505484719 0.209082727861534 0.296381532293006
0.660290375044963 0.188390243268346 0.0784823788131581
0.485408702225777 -0.188028031561272 0.355147769299697
0.536569893476733 -0.117425581327872 0.321178847735468
0.495682427260207 -0.339734961360282 0.245548861195212
0.056882152172981 0.0239201856165979 0.421675530834446
0.125466664582896 0.0598051856441804 0.455827126541853
0.368069586800985 -0.576194122931129 0.0673749111438119
0.345124211580216 -0.551367358752829 0.14048092430107
0.682822883639076 -0.0147078234494123 0.0890718864481537
0.072364383440801 0.624039426549943 0.12390402696899
0.428389724596535 -0.368749834955769 0.293443907396442
0.432487706506983 -0.246776368172198 0.375136853979747
0.35919125 0.619920125 0
0.0686663847091546 0.112421232090141 0.41373594658556
0.585272380064877 -0.20574480419752 0.216838425300264
0.592307090459204 -0.127784180741216 0.241500200181437
0.161417788237897 -0.571371985326911 0.192538717384075
0.176494938766222 -0.620862908374596 0.12266256353724
0.0733628387544146 -0.545610748876115 0.202386824468447
0.448585099447201 -0.0139114964845732 0.413668185642288
0.494060607225679 0.0414620763994878 0.368905708302676
0.377852673381512 0.0237544804775648 0.45247027401676
0.544228446251643 -0.27758056686879 0.232784573752483
0.555698945610227 -0.397857865761078 0.080951162998957
0.487947263109527 -0.441909601965709 0.137668270888437
0.291832168592912 0.421126453093958 0.293010677976814
0.580329375081311 0.374604676903593 0.0655972165766287
0.130023082468447 0.664645837444806 0.0703909556158534
0.275539515835385 0.344714712247759 0.349787827472072
0.235467279029856 -0.406745222036727 0.357302277405106
0.141169310874841 -0.443026513964279 0.317963234315827
0.298611027451036 -0.0223153817221578 0.484609249956195
0.0938611639686227 0.558187074842818 0.197459959735712
0.171175825398735 0.509597165654444 0.244097540656635
0.551204462824899 0.268840265033599 0.212787383940513
0.0591671998240307 -0.321580555328535 0.352998217100903
0.376301020585467 0.504277236723132 0.168010735582343
0.543280689120388 -0.352354719671494 0.165459662569657
0.255923658674383 -0.572253708402679 0.168947726065097
0.657109375 -0.269984625 0
0.576842125 0.421716125 0
0.350563463200283 0.274754934854332 0.370222454045664
0.518766806201427 -0.0358714569657088 0.351230157336059
0.55014839521123 0.0390478921408659 0.310833805606345
0.0821221528163115 0.293482676789141 0.357996893280774
0.145087549351031 -0.512060253620324 0.256752364960827
0.234167059149939 -0.523816685973926 0.240910926406506
0.212764997976817 0.04182851589694 0.481508123222564
0.340400496751423 -0.395844349591214 0.333697749208963
0.556289 -0.437336375 0
0.649821745462185 0.0433263347922379 0.157779728242805
0.456259177327371 0.443294972576747 0.165812051797618
0.213796914961513 0.646114270076578 0.0711696427544042
0.67095225 0.24044775 0
0.583303306665423 0.183545725389385 0.221085580433919
0.499625374632424 0.122959734282449 0.344087203826419
0.252996062181324 0.271984428968073 0.393955833754027
0.363303381028509 0.358475806628271 0.310865988500819
0.285980417050217 -0.111842590424975 0.484690457917457
0.195004503033301 -0.152335845320605 0.478450007325197
0.298450618208028 0.61201471123515 0.0753050321842567
0.495029999410503 0.295854768059217 0.258087868865881
0.160814838632134 0.129587427924244 0.448042404279034
0.673058808916298 -0.114040098583185 0.0899578548366598
0.50891925577681 0.358776909565548 0.192078029963216
0.0532694302643914 0.67917501118728 0.0524336241148216
0.322835930252545 -0.511047486578059 0.217833994861012
0.43371725 0.57095475 0
0.305037137946943 -0.336804124600415 0.394094666724255
0.363322706842921 -0.257684613205114 0.415507577323502
0.260183658905978 -0.191760614219011 0.470601360253515
0.137955491995763 -0.370982499362287 0.369431390763811
0.283879138867619 0.499342413480943 0.22839750758931
0.316879417753629 0.202650901855541 0.418058072624187
0.468408302754556 -0.102108783565613 0.394177243106869
0.0927020462370705 0.200906468968268 0.398947852341294
0.272438625 0.662196625 0
0.053482062426868 -0.149817968743919 0.408636575854965
0 0.71875 0
0.435128125 -0.558326875 0
0.0779792376234569 0.47546465655363 0.259837753382375
0.119283753808438 -0.19932492612739 0.441469838567742
0.395316017739358 -0.32081021777002 0.359052886177688
0.0635070544311395 -0.400231334439758 0.311672329176589
0.206626422802706 0.559781776823333 0.190428657224896
0.15545987332313 0.612391087011625 0.138319075781827
0.360336833111514 0.122735590531274 0.435541394350102
0.0854973375 0.7116655 0
0.540491504944562 -0.2017142888118 0.285675950248641
0.182458 0.692549625 0
0.0546989100900317 -0.2371695780274 0.385070482932574
0.710920375 0.033770425 0
0 -0.707963625 0
0.0548812587976458 -0.0624539284500896 0.421889099038796
0.605395469476831 0.0289545486013405 0.236802900321746
0.125452715478222 -0.288517281101226 0.410216322686062
0.174599340957915 0.330688873287885 0.362147186130838
0.0914339125 -0.700387125 0
3.61966779722226e-16 -0.181827379418096 0.336960644689819
4.12265922573256e-16 0.155118252928456 0.353615473928881
0.21069846094355 -0.471759216947499 0.299331228368462
2.17671199260935e-16 -0.492519937330096 0.19232317684086
0.50462875 0.5071365 0
0.497961875 -0.50248725 0
0.182046875 -0.68186725 0
0.516747624296536 0.449419239593869 0.0776392482944792
3 0 1 122
3 78 52 7
3 101 21 116
3 45 23 22
3 152 58 27
3 136 124 123
3 60 118 35
3 53 63 102
3 28 29 118
3 66 64 74
3 102 85 86
3 26 160 24
3 97 99 98
3 41 136 40
3 125 18 54
3 9 10 86
3 22 104 46
3 46 102 45
3 111 77 110
3 54 57 125
3 80 47 110
3 116 129 0
3 9 67 68
3 106 122 1
3 59 126 96
3 72 42 147
3 71 53 49
3 51 22 128
3 129 31 30
3 68 10 9
3 53 102 86
3 35 34 60
3 44 123 50
3 40 56 41
3 30 38 96
3 111 8 132
3 25 114 85
3 49 113 71
3 33 115 160
3 138 54 101
3 46 85 102
3 68 67 12
3 145 95 14
3 81 82 107
3 2 16 141
3 147 71 113
3 95 94 150
3 89 117 151
3 12 11 13
3 32 59 119
3 139 16 121
3 128 55 51
3 24 23 76
3 36 114 172
3 117 89 155
3 143 5 146
3 45 84 75
3 28 118 60
3 45 75 23
3 22 51 104
3 60 34 37
3 88 28 30
3 145 169 158
3 122 106 90
3 94 151 150
3 162 17 43
3 71 147 42
3 140 107 62
3 112 39 93
3 103 12 78
3 64 48 159
3 4 72 135
3 151 94 70
3 68 12 103
3 86 85 36
3 154 62 76
3 31 129 116
3 37 34 115
3 161 97 156
3 149 148 47
3 83 50 93
3 121 2 162
3 81 107 140
3 1 126 59
3 20 122 87
3 163 94 158
3 115 33 37
3 32 120 59
3 89 131 153
3 89 153 155
3 29 88 105
3 23 24 128
3 154 61 62
3 128 24 69
3 125 57 117
3 34 35 157
3 327 7 164
3 63 42 84
3 70 100 131
3 106 139 121
3 43 19 87
3 14 95 19
3 93 3 112
3 108 107 82
3 141 74 334
3 64 65 74
3 6 79 80
3 156 143 146
3 138 20 87
3 26 107 108
3 0 20 116
3 8 111 168
3 119 38 37
3 129 96 126
3 108 160 26
3 10 53 86
3 132 103 111
3 62 26 76
3 117 155 142
3 119 33 32
3 144 9 36
3 86 36 9
3 76 75 154
3 55 128 69
3 29 28 88
3 130 6 7
3 23 75 76
3 53 10 49
3 164 7 52
3 114 36 85
3 45 22 46
3 25 85 46
3 4 44 50
3 152 39 15
3 121 162 90
3 137 97 161
3 139 15 16
3 19 138 87
3 150 54 138
3 333 143 156
3 141 334 166
3 107 26 62
3 115 24 160
3 136 41 124
3 1 59 58
3 42 72 61
3 138 19 95
3 77 6 80
3 113 49 8
3 78 6 77
3 7 6 78
3 120 108 82
3 70 163 100
3 127 66 74
3 151 70 89
3 84 154 75
3 115 69 24
3 42 61 154
3 67 11 12
3 10 68 132
3 123 124 3
3 161 146 41
3 97 148 99
3 143 165 159
3 139 58 152
3 156 98 333
3 113 8 91
3 120 58 59
3 53 71 63
3 92 91 168
3 4 140 61
3 62 61 140
3 27 82 81
3 57 150 151
3 119 96 38
3 108 32 160
3 24 76 26
3 103 77 111
3 154 84 42
3 327 130 7
3 49 132 8
3 69 34 157
3 30 28 38
3 125 73 18
3 9 144 67
3 103 132 68
3 141 16 127
3 34 69 115
3 45 102 84
3 128 22 23
3 83 152 27
3 3 93 123
3 109 166 170
3 43 90 162
3 44 40 136
3 148 97 137
3 92 47 148
3 148 137 92
3 20 138 101
3 8 168 91
3 32 108 120
3 163 70 94
3 101 116 20
3 16 2 121
3 48 64 66
3 52 78 12
3 52 12 13
3 80 110 77
3 80 79 336
3 49 10 132
3 103 78 77
3 117 57 151
3 63 71 42
3 60 38 28
3 160 32 33
3 30 96 129
3 3 48 112
3 83 93 39
3 56 40 134
3 146 124 41
3 92 110 47
3 138 95 150
3 81 50 83
3 96 119 59
3 167 159 165
3 94 95 145
3 44 135 40
3 112 66 127
3 0 129 126
3 134 147 113
3 27 120 82
3 141 166 109
3 73 133 18
3 72 4 61
3 97 98 156
3 142 73 125
3 125 117 142
3 88 174 105
3 37 33 119
3 67 144 11
3 84 102 63
3 54 150 57
3 333 165 143
3 87 90 43
3 123 44 136
3 113 91 134
3 134 40 135
3 137 91 92
3 127 16 15
3 5 159 48
3 2 109 162
3 159 5 143
3 161 41 56
3 90 87 122
3 39 112 15
3 4 135 44
3 120 27 58
3 168 110 92
3 145 158 94
3 168 111 110
3 112 48 66
3 162 109 17
3 91 137 56
3 50 140 4
3 146 5 124
3 27 81 83
3 56 137 161
3 50 81 140
3 14 19 43
3 127 15 112
3 58 106 1
3 167 64 159
3 91 56 134
3 147 134 135
3 17 14 43
3 139 106 58
3 2 141 109
3 83 39 152
3 3 5 48
3 15 139 152
3 161 156 146
3 106 121 90
3 70 131 89
3 50 123 93
3 153 131 313
3 135 72 147
3 127 74 141
3 122 20 0
3 17 170 169
3 3 124 5
3 21 171 174
3 145 14 17
3 313 131 100
3 74 65 334
3 1 0 126
3 88 30 31
3 47 336 149
3 47 80 336
3 17 169 145
3 79 6 130
3 148 149 99
3 60 37 38
3 65 64 167
3 69 157 55
3 170 17 109
3 25 46 104
3 101 54 18
3 172 144 36
3 52 13 173
3 21 101 18
3 21 18 133
3 174 31 116
3 173 164 52
3 88 31 174
3 21 133 171
3 174 116 21
3 174 171 105
3 175 292 176
3 252 182 227
3 271 286 196
3 220 197 198
3 321 202 233
3 305 293 294
3 235 210 288
3 228 272 238
3 203 288 204
3 240 248 239
3 272 259 258
3 201 199 329
3 270 98 99
3 216 215 305
3 295 229 193
3 184 259 185
3 197 221 274
3 221 220 272
3 281 280 251
3 229 295 232
3 253 280 222
3 286 175 299
3 184 242 241
3 276 176 292
3 234 269 296
3 246 317 217
3 245 224 228
3 226 298 197
3 299 205 206
3 242 184 185
3 228 259 272
3 210 235 209
3 219 225 293
3 215 216 231
3 205 269 213
3 281 301 183
3 200 258 284
3 224 245 283
3 208 329 285
3 307 271 229
3 221 272 258
3 242 187 241
3 315 189 268
3 254 277 255
3 177 310 191
3 317 283 245
3 268 319 267
3 262 320 287
3 187 188 186
3 207 289 234
3 308 291 191
3 298 226 230
3 199 250 198
3 211 338 284
3 287 324 262
3 312 316 180
3 220 249 257
3 203 235 288
3 220 198 249
3 197 274 226
3 235 212 209
3 261 205 203
3 315 158 169
3 292 263 276
3 267 319 320
3 331 218 192
3 245 217 317
3 309 237 277
3 282 266 214
3 273 252 187
3 239 328 223
3 179 304 246
3 320 244 267
3 242 273 187
3 259 211 258
3 323 250 237
3 206 286 299
3 212 285 209
3 330 325 270
3 149 222 318
3 256 266 225
3 291 331 177
3 254 309 277
3 176 234 296
3 195 260 292
3 163 158 267
3 285 212 208
3 207 234 290
3 262 322 300
3 262 324 322
3 204 275 261
3 198 298 199
3 323 237 236
3 298 243 199
3 295 287 232
3 209 326 210
3 327 332 182
3 238 257 217
3 244 300 100
3 276 291 308
3 218 260 194
3 189 194 268
3 266 282 178
3 278 255 277
3 310 334 248
3 239 248 65
3 181 253 79
3 325 316 312
3 307 260 195
3 201 278 277
3 175 286 195
3 183 335 281
3 289 212 213
3 299 296 269
3 278 201 329
3 185 259 228
3 301 281 273
3 237 250 201
3 287 311 324
3 289 207 208
3 314 211 184
3 259 184 211
3 250 323 249
3 230 243 298
3 204 261 203
3 130 182 181
3 198 250 249
3 228 224 185
3 332 227 182
3 284 258 211
3 220 221 197
3 200 221 258
3 179 225 219
3 321 190 214
3 291 263 331
3 306 330 270
3 308 191 190
3 194 260 307
3 319 307 229
3 333 325 312
3 310 166 334
3 277 237 201
3 285 329 199
3 305 294 216
3 176 233 234
3 217 236 246
3 307 268 194
3 251 253 181
3 283 183 224
3 252 251 181
3 182 252 181
3 290 255 278
3 244 100 163
3 297 248 240
3 320 262 244
3 257 249 323
3 285 199 243
3 217 323 236
3 241 187 186
3 185 301 242
3 293 178 294
3 330 216 316
3 270 99 318
3 312 328 165
3 308 321 233
3 325 333 98
3 283 264 183
3 290 234 233
3 228 238 245
3 265 335 264
3 179 236 309
3 237 309 236
3 202 254 255
3 232 320 319
3 289 213 269
3 278 329 207
3 199 201 250
3 273 281 251
3 323 217 257
3 327 182 130
3 224 183 301
3 243 326 209
3 205 213 203
3 295 193 247
3 184 241 314
3 273 242 301
3 310 297 191
3 209 285 243
3 220 257 272
3 298 198 197
3 256 202 321
3 178 293 266
3 279 170 166
3 218 331 263
3 219 305 215
3 318 306 270
3 265 318 222
3 318 265 306
3 195 271 307
3 183 264 335
3 207 290 278
3 163 267 244
3 271 195 286
3 191 291 177
3 223 240 239
3 227 187 252
3 227 188 187
3 253 251 280
3 253 336 79
3 224 301 185
3 273 251 252
3 287 320 232
3 238 217 245
3 235 203 213
3 329 208 207
3 205 299 269
3 178 282 223
3 256 214 266
3 231 303 215
3 316 216 294
3 265 222 280
3 307 319 268
3 254 256 225
3 269 234 289
3 167 165 328
3 267 315 268
3 219 215 304
3 282 297 240
3 175 296 299
3 303 283 317
3 202 255 290
3 310 279 166
3 247 193 302
3 246 236 179
3 270 325 98
3 311 295 247
3 295 311 287
3 261 275 340
3 212 289 208
3 241 186 314
3 257 238 272
3 229 232 319
3 333 312 165
3 260 218 263
3 293 305 219
3 283 303 264
3 303 304 215
3 306 265 264
3 297 190 191
3 180 223 328
3 177 331 279
3 328 312 180
3 330 231 216
3 263 292 260
3 214 190 282
3 179 219 304
3 290 233 202
3 335 265 280
3 315 267 158
3 335 280 281
3 282 240 223
3 331 192 279
3 264 231 306
3 225 179 309
3 316 294 180
3 202 256 254
3 231 330 306
3 225 309 254
3 189 218 194
3 297 282 190
3 233 176 276
3 167 328 239
3 264 303 231
3 317 304 303
3 192 218 189
3 308 233 276
3 177 279 310
3 256 321 214
3 178 223 180
3 190 321 308
3 330 316 325
3 276 263 291
3 244 262 300
3 225 266 293
3 322 313 300
3 304 317 246
3 297 310 248
3 292 175 195
3 192 169 170
3 178 180 294
3 196 340 337
3 315 192 189
3 313 100 300
3 248 334 65
3 176 296 175
3 261 206 205
3 222 149 336
3 222 336 253
3 192 315 169
3 79 130 181
3 318 99 149
3 235 213 212
3 65 167 239
3 243 230 326
3 170 279 192
3 200 274 221
3 271 193 229
3 338 211 314
3 227 339 188
3 196 193 271
3 196 302 193
3 340 286 206
3 339 227 332
3 261 340 206
3 196 337 302
3 340 196 286
3 340 275 337
