OFF
341 634 0
-0.3505165780244 0.293837430953613 0.197917870107032
-0.346646757529754 0.222491565011902 0.253153046296798
-0.127490535432096 0.207338332551989 0.312556079078487
-0.16542566045788 -0.0475972965521131 0.389958735429715
-0.331216031522761 -0.138154229638273 0.331531369153058
-0.0977664522603302 -0.0861628213541651 0.368039914844787
-0.0652213268874583 -0.486076017344595 0.109021429799593
-0.0646865113690072 -0.530508735975658 0.0509291248690236
-0.231745420281702 -0.36838937476606 0.231109077806965
-0.340672766570263 -0.413455734485543 0.0787961570680509
-0.324709816503206 -0.38486396708701 0.143360455819634
-0.2756534 -0.4944831 0
-0.2215857164592 -0.489616664571366 0.0671402741985949
-0.2087998 -0.5251421 0
-0.117702897143578 0.356343735597103 0.230378509320601
-0.208114123096826 0.104008516652522 0.362189674048042
-0.165482929954244 0.16048092367801 0.339628268300285
-0.072962469972773 0.30846529540984 0.253369676256858
-0.298710282038477 0.450473395939874 0.0671111754015973
-0.178848125393783 0.36587085300741 0.21977435921646
-0.295065229680884 0.349608668403111 0.189373348332162
-0.35400618032739 0.407206464908201 0.0715939044083974
-0.517008141698095 -0.171825309684261 0.0662377521537769
-0.501306091146216 -0.127533620632802 0.126696478899239
-0.507635695616557 -0.0452240569735018 0.141542362873771
-0.4884344 -0.2880939 0
-0.461735463074148 -0.0366939801979201 0.216421091349011
-0.347653082364298 0.0697413973435318 0.32111643962676
-0.498910116478963 0.225504647010071 0.0592498129069433
-0.5042845 0.2674346 0
-0.454864893384604 0.257739492548264 0.107517950123861
-0.419182974408228 0.318854744975512 0.0974643748571969
-0.447007637924011 0.0942229611371576 0.217962009650659
-0.485903473805208 0.0820249892931866 0.165565900798208
-0.54163477371956 0.0698744474535383 0.0636207547347583
-0.5587627 0.1112094 0
-0.395228367424719 -0.382540707342614 0.0468249103739629
-0.507828483888287 0.11266196327124 0.11731963874029
-0.484937510711225 0.186214526910935 0.116424337355449
-0.241807916991323 0.0484152928431063 0.373338479049351
-0.223843756596357 -0.210113672839559 0.350928871682469
-0.155455169442257 -0.194083272924612 0.358841461749708
-0.381881710342226 -0.223611258690449 0.246607435691956
-0.159579845795539 0.317061871055487 0.257024153997462
-0.269898314101027 -0.14295187554733 0.363017298515654
-0.475967728747809 -0.206091371639363 0.123457960662272
-0.48367759936356 -0.248588087098296 0.0671563003754625
-0.0535334997393277 -0.379013927481715 0.207029353343727
-0.102525196940698 -0.0144476128113594 0.373051381088788
-0.301640889025653 -0.352841608149287 0.205743497197994
-0.304902148156745 -0.0659056666468247 0.361595157338289
-0.5519026 -0.1375944 0
-0.145468636039493 -0.52566353579295 0.0433552230765178
-0.367391665236054 -0.325730456942452 0.170038046546467
-0.240276061531152 0.444865347252276 0.119646657967128
-0.5665181 -0.05534892 0
-0.16926755812473 -0.260915405297598 0.327692820750055
-0.1887301986558 0.478659618507999 0.101314339964132
-0.336794955731649 0.151431269159522 0.299193125435203
-0.406736490867119 0.166267156448494 0.233964290812745
-0.525857300177849 0.15010026659875 0.0614501301034681
-0.385981898790453 -0.14978281650289 0.281226972507216
-0.426451745546887 -0.093517726060814 0.253997979115853
-0.393881902884671 -0.270365274291821 0.193861145518843
-0.0458463506555578 0.0191461144094568 0.335726281871146
3.45119750175885e-16 0.0555867655429923 0.287936453426618
-0.100417366735768 0.0477177234767235 0.362801948918959
-0.293454474664345 -0.459731598915788 0.0529219156584861
-0.274653170076852 -0.439341263544697 0.110637425713074
-0.543552457171921 -0.0117359910191662 0.0698055761637837
-0.0579369383358354 0.498414630611771 0.0981739362866249
-0.34056312711363 -0.293620089794817 0.232094945178884
-0.344072308746283 -0.196659268824721 0.297336247132019
-0.287353 0.4959361 0
-0.0552821540786044 0.0897562775998951 0.329435250933609
-0.465009779496076 -0.163699417636093 0.170949480641124
-0.470547322147206 -0.101689762977337 0.190497887993684
-0.128715841301753 -0.455781051464338 0.152330115909366
-0.140723198248454 -0.495396766100321 0.0967733271817565
1.73862027809429e-16 -0.45183096580684 0.109429589891721
-0.0586846933595182 -0.435553492711343 0.160628104647892
-0.35695750925359 -0.0111702004221167 0.327943723489383
-0.392873289337596 0.0329234402201986 0.29203779125016
-0.300956259687533 0.0188509988448972 0.359135435512342
-0.43240034295411 -0.220860174690186 0.183653547739204
-0.442541779986468 -0.317069060298658 0.0635132882248376
-0.388061550437636 -0.351841984338821 0.108291033022497
-0.232323951027695 0.335316522425159 0.231381014332349
-0.462510805435333 0.298686569679448 0.0513086278542523
-0.103802653414766 0.530742715587364 0.0553803024538898
-0.219491146142423 0.274473297851593 0.276689032666108
-0.187636038703096 -0.324424334408914 0.283555574550918
-0.112667264807081 -0.353430218291289 0.25240357132824
-0.238113170883696 -0.0178734704212117 0.385206383114522
-0.0751509655093062 0.445647351472043 0.156643250690123
-0.136610396044002 0.406308518492799 0.193076140799065
-0.43795752784579 0.21379317491469 0.167474548558074
-0.0475229596540488 -0.256519148902491 0.280607424444327
3.32194964159836e-16 -0.209657296020676 0.249104971425672
2.94638457939301e-16 -0.272476896312563 0.223164082228174
2.93576644376207e-17 0.51960032833807 0.0571912857574398
-0.299366931375384 0.401550612039566 0.132020589571094
-0.431809695835162 -0.280389870558258 0.13023985563485
-0.203764429544663 -0.456193726775462 0.13333340634216
-0.5256875 -0.2159877 0
-0.4614737 0.3373729 0
-0.278996714387478 0.218696679585793 0.29292387005637
-0.41241769383922 -0.0286347780747331 0.277949670318974
-0.437168436256355 0.030988228910655 0.245620364948238
-0.0659481724729905 0.23434670875328 0.28497075756858
-0.115752793526101 -0.40848935412452 0.203561426930649
-0.186483019506135 -0.417628050495825 0.190644014225134
-0.169878718505039 0.0333103213549747 0.382900736627771
-0.270882496979855 -0.315486127917498 0.264424417127855
-0.4450312 -0.3498691 0
-0.516479805053461 0.0344277217933176 0.124001358910326
-0.362808755089959 0.35283507646628 0.130224756815852
-0.170564567136249 0.515770556937645 0.0558706007663865
-0.5367618 0.1923582 0
-0.463402404982668 0.145921609352809 0.1740997127426
-0.397163751020667 0.0977713887524986 0.272102906069982
-0.201705348662534 0.21659458623748 0.312109197632762
-0.288984278976268 0.28529789161094 0.245484497550022
-0.228062788177062 -0.0893073368851635 0.385411310489558
-0.155672776753884 -0.121623331593553 0.380653754855781
-0.2379861742943 0.488345321553588 0.0590355377488992
-0.393385148915005 0.235321372524361 0.20346154477172
-0.128604012688622 0.103306461859661 0.356177936285336
-0.535769406406843 -0.0908502959610126 0.0705255703459649
-0.404493527194437 0.285428075449882 0.151033881177711
7.98395227682013e-17 -0.512741523186209 0.0551470014709576
-0.0426073146142563 0.542805280438301 0.0414481646071504
-0.256810714442984 -0.407134528559645 0.172058407525537
-0.3469738 0.4567638 0
-0.242960278930594 -0.268627817976188 0.312833411654961
-0.289307703877195 -0.205506193383019 0.329811879965638
-0.207502943330742 -0.153094405092742 0.374274533219308
-0.110168186977253 -0.295963719873124 0.293484613728327
-0.225970433683728 0.397684634358596 0.180021043859461
-0.25241277185228 0.161347958980227 0.33133431711102
-0.372634947117862 -0.0814135036108874 0.31240120150389
-0.0744712514804697 0.160318086301832 0.317382821835871
-0.2179509 0.5297573 0
-0.0431528609356571 -0.119456472423004 0.32506492628411
-0.3481025 -0.4466615 0
-0.0625268822823948 0.379791589972372 0.206749724575565
-0.0954505447499574 -0.159032589162899 0.351094210814034
-0.314516625023869 -0.255648918392164 0.284558528856964
-0.0508856405058206 -0.319330681073758 0.247673475122658
2.47081399835198e-16 -0.333691383968484 0.19117589587185
-0.164689985521 0.446201567538945 0.150162042162516
-0.124029277363057 0.488519953393492 0.109043440460761
-0.286960816626354 0.0977056732413087 0.345419472632495
-0.06839787 0.5693324 0
-0.42948038366006 -0.160547816536534 0.225731692881832
-0.1459664 0.5540397 0
-0.0440599952275916 -0.189149156832576 0.30621211819386
-0.5687363 0.02701634 0
1.65093350179801e-16 0.397939204450973 0.160835952175741
-0.0442725756794355 -0.0497663587262962 0.335741618106302
-0.480909865713168 0.0229656867046336 0.18666580481507
-0.100293507939807 -0.230183180437175 0.326090441227859
-0.139492337789637 0.263540058221263 0.287084039482879
1.09154769792296e-16 0.456949981598829 0.114715192790222
-0.07314713 -0.5603097 0
3.35087919501149e-16 -0.078753806272693 0.281257663451417
2.93409097349518e-16 0.191116523452088 0.269117431340168
3.2472213957828e-16 -0.0126397455245256 0.287233419326039
-0.167895328585141 -0.376255837124881 0.237339966472251
2.11160198239227e-16 0.330108373330498 0.205128582827056
2.34782880890496e-16 0.261746905100054 0.241451874805617
-0.403703 0.4057092 0
-0.3983695 -0.4019898 0
-0.1456375 -0.5454938 0
-0.4116913373128 0.358262157153702 0.0607500173217858
0.3505165780244 0.293837430953613 0.197917870107032
0.346646757529755 0.222491565011902 0.253153046296798
0.127490535432096 0.207338332551989 0.312556079078487
0.16542566045788 -0.0475972965521132 0.389958735429716
0.331216031522762 -0.138154229638273 0.331531369153058
0.0977664522603309 -0.0861628213541651 0.368039914844787
0.0652213268874585 -0.486076017344595 0.109021429799593
0.0646865113690073 -0.530508735975658 0.0509291248690236
0.231745420281702 -0.36838937476606 0.231109077806965
0.340672766570263 -0.413455734485543 0.0787961570680509
0.324709816503206 -0.38486396708701 0.143360455819634
0.2756534 -0.4944831 0
0.2215857164592 -0.489616664571366 0.0671402741985951
0.2087998 -0.5251421 0
0.117702897143579 0.356343735597104 0.230378509320602
0.208114123096827 0.104008516652522 0.362189674048042
0.165482929954244 0.160480923678009 0.339628268300286
0.0729624699727734 0.30846529540984 0.253369676256859
0.298710282038477 0.450473395939874 0.0671111754015973
0.178848125393784 0.36587085300741 0.219774359216461
0.295065229680885 0.349608668403111 0.189373348332162
0.35400618032739 0.407206464908202 0.0715939044083973
0.517008141698095 -0.171825309684261 0.066237752153777
0.501306091146217 -0.127533620632802 0.126696478899239
0.507635695616557 -0.0452240569735018 0.141542362873771
0.4884344 -0.2880939 0
0.461735463074149 -0.0366939801979201 0.216421091349011
0.347653082364299 0.0697413973435318 0.32111643962676
0.498910116478963 0.225504647010071 0.0592498129069434
0.5042845 0.2674346 0
0.454864893384605 0.257739492548264 0.107517950123861
0.419182974408228 0.318854744975512 0.0974643748571969
0.447007637924012 0.0942229611371577 0.217962009650659
0.485903473805208 0.0820249892931867 0.165565900798208
0.54163477371956 0.0698744474535383 0.0636207547347584
0.5587627 0.1112094 0
0.395228367424719 -0.382540707342614 0.046824910373963
0.507828483888287 0.11266196327124 0.117319638740291
0.484937510711225 0.186214526910935 0.116424337355449
0.241807916991324 0.0484152928431064 0.373338479049351
0.223843756596358 -0.210113672839559 0.350928871682469
0.155455169442258 -0.194083272924612 0.358841461749708
0.381881710342226 -0.223611258690449 0.246607435691956
0.15957984579554 0.317061871055487 0.257024153997463
0.269898314101028 -0.14295187554733 0.363017298515654
0.475967728747809 -0.206091371639363 0.123457960662272
0.483677599363561 -0.248588087098296 0.0671563003754626
0.0535334997393282 -0.379013927481715 0.207029353343727
0.102525196940699 -0.0144476128113594 0.373051381088788
0.301640889025654 -0.352841608149287 0.205743497197994
0.304902148156746 -0.0659056666468248 0.36159515733829
0.5519026 -0.1375944 0
0.145468636039493 -0.52566353579295 0.0433552230765178
0.367391665236054 -0.325730456942452 0.170038046546467
0.240276061531153 0.444865347252277 0.119646657967128
0.5665181 -0.05534892 0
0.169267558124731 -0.260915405297598 0.327692820750055
0.1887301986558 0.478659618507999 0.101314339964132
0.33679495573165 0.151431269159522 0.299193125435203
0.406736490867119 0.166267156448494 0.233964290812746
0.525857300177849 0.15010026659875 0.0614501301034681
0.385981898790454 -0.14978281650289 0.281226972507216
0.426451745546888 -0.0935177260608141 0.253997979115854
0.393881902884671 -0.270365274291821 0.193861145518844
0.0458463506555585 0.0191461144094568 0.335726281871147
0.100417366735769 0.0477177234767235 0.36280194891896
0.293454474664345 -0.459731598915788 0.0529219156584861
0.274653170076853 -0.439341263544697 0.110637425713074
0.543552457171921 -0.0117359910191662 0.0698055761637837
0.0579369383358355 0.498414630611771 0.098173936286625
0.34056312711363 -0.293620089794817 0.232094945178885
0.344072308746283 -0.196659268824721 0.297336247132019
0.287353 0.4959361 0
0.0552821540786051 0.0897562775998951 0.329435250933609
0.465009779496077 -0.163699417636093 0.170949480641125
0.470547322147206 -0.101689762977337 0.190497887993684
0.128715841301754 -0.455781051464338 0.152330115909367
0.140723198248454 -0.495396766100321 0.0967733271817565
0.0586846933595185 -0.435553492711343 0.160628104647892
0.356957509253591 -0.0111702004221167 0.327943723489383
0.392873289337597 0.0329234402201986 0.29203779125016
0.300956259687534 0.0188509988448972 0.359135435512343
0.432400342954111 -0.220860174690186 0.183653547739204
0.442541779986468 -0.317069060298658 0.0635132882248377
0.388061550437636 -0.351841984338821 0.108291033022497
0.232323951027695 0.335316522425159 0.231381014332349
0.462510805435333 0.298686569679448 0.0513086278542523
0.103802653414766 0.530742715587364 0.0553803024538899
0.219491146142423 0.274473297851593 0.276689032666108
0.187636038703097 -0.324424334408914 0.283555574550918
0.112667264807082 -0.35343021829129 0.25240357132824
0.238113170883697 -0.0178734704212117 0.385206383114522
0.0751509655093065 0.445647351472043 0.156643250690123
0.136610396044003 0.406308518492799 0.193076140799065
0.43795752784579 0.21379317491469 0.167474548558074
0.0475229596540494 -0.256519148902491 0.280607424444327
0.299366931375384 0.401550612039567 0.132020589571095
0.431809695835162 -0.280389870558258 0.13023985563485
0.203764429544663 -0.456193726775462 0.13333340634216
0.5256875 -0.2159877 0
0.4614737 0.3373729 0
0.278996714387479 0.218696679585793 0.29292387005637
0.412417693839221 -0.0286347780747331 0.277949670318975
0.437168436256356 0.030988228910655 0.245620364948239
0.065948172472991 0.23434670875328 0.28497075756858
0.115752793526102 -0.40848935412452 0.203561426930649
0.186483019506136 -0.417628050495825 0.190644014225134
0.16987871850504 0.0333103213549747 0.382900736627772
0.270882496979855 -0.315486127917499 0.264424417127855
0.4450312 -0.3498691 0
0.516479805053461 0.0344277217933176 0.124001358910326
0.362808755089959 0.35283507646628 0.130224756815852
0.170564567136249 0.515770556937645 0.0558706007663866
0.5367618 0.1923582 0
0.463402404982669 0.145921609352809 0.174099712742601
0.397163751020667 0.0977713887524986 0.272102906069982
0.201705348662535 0.216594586237481 0.312109197632762
0.288984278976269 0.28529789161094 0.245484497550022
0.228062788177063 -0.0893073368851636 0.385411310489559
0.155672776753884 -0.121623331593553 0.380653754855781
0.237986174294301 0.488345321553588 0.0590355377488992
0.393385148915006 0.235321372524361 0.20346154477172
0.128604012688623 0.103306461859661 0.356177936285336
0.535769406406844 -0.0908502959610126 0.0705255703459649
0.404493527194437 0.285428075449882 0.151033881177711
0.0426073146142564 0.542805280438302 0.0414481646071504
0.256810714442985 -0.407134528559645 0.172058407525537
0.3469738 0.4567638 0
0.242960278930595 -0.268627817976188 0.312833411654961
0.289307703877195 -0.20550619338302 0.329811879965638
0.207502943330742 -0.153094405092742 0.374274533219308
0.110168186977253 -0.295963719873124 0.293484613728327
0.225970433683728 0.397684634358597 0.180021043859461
0.25241277185228 0.161347958980227 0.331334317111021
0.372634947117863 -0.0814135036108874 0.31240120150389
0.0744712514804704 0.160318086301832 0.317382821835871
0.2179509 0.5297573 0
0.0431528609356579 -0.119456472423004 0.325064926284111
0 0.575 0
0.3481025 -0.4466615 0
0.0625268822823953 0.379791589972373 0.206749724575566
0.0954505447499581 -0.159032589162899 0.351094210814034
0.31451662502387 -0.255648918392164 0.284558528856965
0.0508856405058212 -0.319330681073758 0.247673475122658
0.164689985521 0.446201567538945 0.150162042162516
0.124029277363058 0.488519953393492 0.109043440460761
0.286960816626355 0.0977056732413087 0.345419472632496
0.06839787 0.5693324 0
0.429480383660061 -0.160547816536534 0.225731692881833
0.1459664 0.5540397 0
0.0440599952275923 -0.189149156832576 0.30621211819386
0.5687363 0.02701634 0
0 -0.5663709 0
0.0442725756794362 -0.0497663587262962 0.335741618106303
0.480909865713168 0.0229656867046337 0.186665804815071
0.100293507939808 -0.230183180437175 0.32609044122786
0.139492337789638 0.263540058221263 0.287084039482879
0.07314713 -0.5603097 0
3.32315430925979e-16 -0.145041799501155 0.268606199113133
3.22686442407987e-16 0.124319708140348 0.28306511804185
0.167895328585142 -0.376255837124881 0.237339966472252
2.27091430688628e-16 -0.393567762075712 0.153195257230708
0.403703 0.4057092 0
0.3983695 -0.4019898 0
0.1456375 -0.5454938 0
0.4116913373128 0.358262157153702 0.0607500173217858
3 0 1 122
3 78 52 7
3 101 21 116
3 45 23 22
3 152 58 27
3 136 124 123
3 60 118 35
3 53 63 102
3 28 29 118
3 66 64 74
3 102 85 86
3 26 160 24
3 97 99 98
3 41 136 40
3 125 18 54
3 9 10 86
3 22 104 46
3 46 102 45
3 111 77 110
3 54 57 125
3 80 47 110
3 116 129 0
3 9 67 68
3 106 122 1
3 59 126 96
3 72 42 147
3 71 53 49
3 51 22 128
3 129 31 30
3 68 10 9
3 53 102 86
3 35 34 60
3 44 123 50
3 40 56 41
3 30 38 96
3 111 8 132
3 25 114 85
3 49 113 71
3 33 115 160
3 138 54 101
3 46 85 102
3 68 67 12
3 145 95 14
3 81 82 107
3 2 16 141
3 147 71 113
3 95 94 150
3 89 117 151
3 12 11 13
3 32 59 119
3 139 16 121
3 128 55 51
3 24 23 76
3 36 114 172
3 117 89 155
3 143 5 146
3 45 84 75
3 28 118 60
3 45 75 23
3 22 51 104
3 60 34 37
3 88 28 30
3 145 169 158
3 122 106 90
3 94 151 150
3 162 17 43
3 71 147 42
3 140 107 62
3 112 39 93
3 103 12 78
3 64 48 159
3 4 72 135
3 151 94 70
3 68 12 103
3 86 85 36
3 154 62 76
3 31 129 116
3 37 34 115
3 161 97 156
3 149 148 47
3 83 50 93
3 121 2 162
3 81 107 140
3 1 126 59
3 20 122 87
3 163 94 158
3 115 33 37
3 32 120 59
3 89 131 153
3 89 153 155
3 29 88 105
3 23 24 128
3 154 61 62
3 128 24 69
3 125 57 117
3 34 35 157
3 327 7 164
3 63 42 84
3 70 100 131
3 106 139 121
3 43 19 87
3 14 95 19
3 93 3 112
3 108 107 82
3 141 74 334
3 64 65 74
3 6 79 80
3 156 143 146
3 138 20 87
3 26 107 108
3 0 20 116
3 8 111 168
3 119 38 37
3 129 96 126
3 108 160 26
3 10 53 86
3 132 103 111
3 62 26 76
3 117 155 142
3 119 33 32
3 144 9 36
3 86 36 9
3 76 75 154
3 55 128 69
3 29 28 88
3 130 6 7
3 23 75 76
3 53 10 49
3 164 7 52
3 114 36 85
3 45 22 46
3 25 85 46
3 4 44 50
3 152 39 15
3 121 162 90
3 137 97 161
3 139 15 16
3 19 138 87
3 150 54 138
3 333 143 156
3 141 334 166
3 107 26 62
3 115 24 160
3 136 41 124
3 1 59 58
3 42 72 61
3 138 19 95
3 77 6 80
3 113 49 8
3 78 6 77
3 7 6 78
3 120 108 82
3 70 163 100
3 127 66 74
3 151 70 89
3 84 154 75
3 115 69 24
3 42 61 154
3 67 11 12
3 10 68 132
3 123 124 3
3 161 146 41
3 97 148 99
3 143 165 159
3 139 58 152
3 156 98 333
3 113 8 91
3 120 58 59
3 53 71 63
3 92 91 168
3 4 140 61
3 62 61 140
3 27 82 81
3 57 150 151
3 119 96 38
3 108 32 160
3 24 76 26
3 103 77 111
3 154 84 42
3 327 130 7
3 49 132 8
3 69 34 157
3 30 28 38
3 125 73 18
3 9 144 67
3 103 132 68
3 141 16 127
3 34 69 115
3 45 102 84
3 128 22 23
3 83 152 27
3 3 93 123
3 109 166 170
3 43 90 162
3 44 40 136
3 148 97 137
3 92 47 148
3 148 137 92
3 20 138 101
3 8 168 91
3 32 108 120
3 163 70 94
3 101 116 20
3 16 2 121
3 48 64 66
3 52 78 12
3 52 12 13
3 80 110 77
3 80 79 336
3 49 10 132
3 103 78 77
3 117 57 151
3 63 71 42
3 60 38 28
3 160 32 33
3 30 96 129
3 3 48 112
3 83 93 39
3 56 40 134
3 146 124 41
3 92 110 47
3 138 95 150
3 81 50 83
3 96 119 59
3 167 159 165
3 94 95 145
3 44 135 40
3 112 66 127
3 0 129 126
3 134 147 113
3 27 120 82
3 141 166 109
3 73 133 18
3 72 4 61
3 97 98 156
3 142 73 125
3 125 117 142
3 88 174 105
3 37 33 119
3 67 144 11
3 84 102 63
3 54 150 57
3 333 165 143
3 87 90 43
3 123 44 136
3 113 91 134
3 134 40 135
3 137 91 92
3 127 16 15
3 5 159 48
3 2 109 162
3 159 5 143
3 161 41 56
3 90 87 122
3 39 112 15
3 4 135 44
3 120 27 58
3 168 110 92
3 145 158 94
3 168 111 110
3 112 48 66
3 162 109 17
3 91 137 56
3 50 140 4
3 146 5 124
3 27 81 83
3 56 137 161
3 50 81 140
3 14 19 43
3 127 15 112
3 58 106 1
3 167 64 159
3 91 56 134
3 147 134 135
3 17 14 43
3 139 106 58
3 2 141 109
3 83 39 152
3 3 5 48
3 15 139 152
3 161 156 146
3 106 121 90
3 70 131 89
3 50 123 93
3 153 131 313
3 135 72 147
3 127 74 141
3 122 20 0
3 17 170 169
3 3 124 5
3 21 171 174
3 145 14 17
3 313 131 100
3 74 65 334
3 1 0 126
3 88 30 31
3 47 336 149
3 47 80 336
3 17 169 145
3 79 6 130
3 148 149 99
3 60 37 38
3 65 64 167
3 69 157 55
3 170 17 109
3 25 46 104
3 101 54 18
3 172 144 36
3 52 13 173
3 21 101 18
3 21 18 133
3 174 31 116
3 173 164 52
3 88 31 174
3 21 133 171
3 174 116 21
3 174 171 105
3 175 292 176
3 252 182 227
3 271 286 196
3 220 197 198
3 321 202 233
3 305 293 294
3 235 210 288
3 228 272 238
3 203 288 204
3 240 248 239
3 272 259 258
3 201 199 329
3 270 98 99
3 216 215 305
3 295 229 193
3 184 259 185
3 197 221 274
3 221 220 272
3 281 280 251
3 229 295 232
3 253 280 222
3 286 175 299
3 184 242 241
3 276 176 292
3 234 269 296
3 246 317 217
3 245 224 228
3 226 298 197
3 299 205 206
3 242 184 185
3 228 259 272
3 210 235 209
3 219 225 293
3 215 216 231
3 205 269 213
3 281 301 183
3 200 258 284
3 224 245 283
3 208 329 285
3 307 271 229
3 221 272 258
3 242 187 241
3 315 189 268
3 254 277 255
3 177 310 191
3 317 283 245
3 268 319 267
3 262 320 287
3 187 188 186
3 207 289 234
3 308 291 191
3 298 226 230
3 199 250 198
3 211 338 284
3 287 324 262
3 312 316 180
3 220 249 257
3 203 235 288
3 220 198 249
3 197 274 226
3 235 212 209
3 261 205 203
3 315 158 169
3 292 263 276
3 267 319 320
3 331 218 192
3 245 217 317
3 309 237 277
3 282 266 214
3 273 252 187
3 239 328 223
3 179 304 246
3 320 244 267
3 242 273 187
3 259 211 258
3 323 250 237
3 206 286 299
3 212 285 209
3 330 325 270
3 149 222 318
3 256 266 225
3 291 331 177
3 254 309 277
3 176 234 296
3 195 260 292
3 163 158 267
3 285 212 208
3 207 234 290
3 262 322 300
3 262 324 322
3 204 275 261
3 198 298 199
3 323 237 236
3 298 243 199
3 295 287 232
3 209 326 210
3 327 332 182
3 238 257 217
3 244 300 100
3 276 291 308
3 218 260 194
3 189 194 268
3 266 282 178
3 278 255 277
3 310 334 248
3 239 248 65
3 181 253 79
3 325 316 312
3 307 260 195
3 201 278 277
3 175 286 195
3 183 335 281
3 289 212 213
3 299 296 269
3 278 201 329
3 185 259 228
3 301 281 273
3 237 250 201
3 287 311 324
3 289 207 208
3 314 211 184
3 259 184 211
3 250 323 249
3 230 243 298
3 204 261 203
3 130 182 181
3 198 250 249
3 228 224 185
3 332 227 182
3 284 258 211
3 220 221 197
3 200 221 258
3 179 225 219
3 321 190 214
3 291 263 331
3 306 330 270
3 308 191 190
3 194 260 307
3 319 307 229
3 333 325 312
3 310 166 334
3 277 237 201
3 285 329 199
3 305 294 216
3 176 233 234
3 217 236 246
3 307 268 194
3 251 253 181
3 283 183 224
3 252 251 181
3 182 252 181
3 290 255 278
3 244 100 163
3 297 248 240
3 320 262 244
3 257 249 323
3 285 199 243
3 217 323 236
3 241 187 186
3 185 301 242
3 293 178 294
3 330 216 316
3 270 99 318
3 312 328 165
3 308 321 233
3 325 333 98
3 283 264 183
3 290 234 233
3 228 238 245
3 265 335 264
3 179 236 309
3 237 309 236
3 202 254 255
3 232 320 319
3 289 213 269
3 278 329 207
3 199 201 250
3 273 281 251
3 323 217 257
3 327 182 130
3 224 183 301
3 243 326 209
3 205 213 203
3 295 193 247
3 184 241 314
3 273 242 301
3 310 297 191
3 209 285 243
3 220 257 272
3 298 198 197
3 256 202 321
3 178 293 266
3 279 170 166
3 218 331 263
3 219 305 215
3 318 306 270
3 265 318 222
3 318 265 306
3 195 271 307
3 183 264 335
3 207 290 278
3 163 267 244
3 271 195 286
3 191 291 177
3 223 240 239
3 227 187 252
3 227 188 187
3 253 251 280
3 253 336 79
3 224 301 185
3 273 251 252
3 287 320 232
3 238 217 245
3 235 203 213
3 329 208 207
3 205 299 269
3 178 282 223
3 256 214 266
3 231 303 215
3 316 216 294
3 265 222 280
3 307 319 268
3 254 256 225
3 269 234 289
3 167 165 328
3 267 315 268
3 219 215 304
3 282 297 240
3 175 296 299
3 303 283 317
3 202 255 290
3 310 279 166
3 247 193 302
3 246 236 179
3 270 325 98
3 311 295 247
3 295 311 287
3 261 275 340
3 212 289 208
3 241 186 314
3 257 238 272
3 229 232 319
3 333 312 165
3 260 218 263
3 293 305 219
3 283 303 264
3 303 304 215
3 306 265 264
3 297 190 191
3 180 223 328
3 177 331 279
3 328 312 180
3 330 231 216
3 263 292 260
3 214 190 282
3 179 219 304
3 290 233 202
3 335 265 280
3 315 267 158
3 335 280 281
3 282 240 223
3 331 192 279
3 264 231 306
3 225 179 309
3 316 294 180
3 202 256 254
3 231 330 306
3 225 309 254
3 189 218 194
3 297 282 190
3 233 176 276
3 167 328 239
3 264 303 231
3 317 304 303
3 192 218 189
3 308 233 276
3 177 279 310
3 256 321 214
3 178 223 180
3 190 321 308
3 330 316 325
3 276 263 291
3 244 262 300
3 225 266 293
3 322 313 300
3 304 317 246
3 297 310 248
3 292 175 195
3 192 169 170
3 178 180 294
3 196 340 337
3 315 192 189
3 313 100 300
3 248 334 65
3 176 296 175
3 261 206 205
3 222 149 336
3 222 336 253
3 192 315 169
3 79 130 181
3 318 99 149
3 235 213 212
3 65 167 239
3 243 230 326
3 170 279 192
3 200 274 221
3 271 193 229
3 338 211 314
3 227 339 188
3 196 193 271
3 196 302 193
3 340 286 206
3 339 227 332
3 261 340 206
3 196 337 302
3 340 196 286
3 340 275 337
