OFF
341 634 0
-0.43744889672479 0.370433938025326 0.247362224471928
-0.432993774527092 0.2803673273107 0.31759817652561
-0.158474388522811 0.262733537406209 0.393029720590289
-0.205263772620787 -0.0611503882922548 0.488851614505672
-0.41264548784128 -0.175534705937353 0.415442743328642
-0.120442712161436 -0.110170810445878 0.460719209094596
-0.0803162023766154 -0.609178514619702 0.136325845799681
-0.0801564588948754 -0.664111957771588 0.0640320117892559
-0.287949328940273 -0.463030851542927 0.28848293473712
-0.425103549426702 -0.516912149932719 0.0983465782922612
-0.404803530256847 -0.481912134677653 0.17909583467717
-0.34456675 -0.618103875 0
-0.276565142990676 -0.612150519403446 0.0842203281240785
-0.26099975 -0.656427625 0
-0.146401270318923 0.451563668264895 0.28680093843871
-0.259334617081666 0.131199877268363 0.455260378752667
-0.206034062468688 0.203107126273566 0.427239152621468
-0.0904642362653725 0.391128886820655 0.317091087910732
-0.372854310509713 0.564067707656965 0.083268097490168
-0.222679145586968 0.462985877817082 0.273494091311659
-0.367757850684071 0.44127802884285 0.235860073851479
-0.441854078976354 0.510093736379595 0.088794031027073
-0.645650746748641 -0.215386041345513 0.0828132855386056
-0.625877352224749 -0.160849024256958 0.158496510486933
-0.634098045132322 -0.0575202158854793 0.177233949413138
-0.610543 -0.360117375 0
-0.576755834483284 -0.0472140693773176 0.271312941367004
-0.434080231941484 0.0874448418699759 0.403375674056535
-0.623130236239973 0.282291608693296 0.0738539682652402
-0.630355625 0.33429325 0
-0.567791161633148 0.323879717302869 0.133882346872252
-0.523214833261014 0.400113278016744 0.121193586294725
-0.558648635819931 0.117374347795733 0.273514669487451
-0.607183596730418 0.102073220189651 0.207509788930731
-0.676689641995495 0.0870272247932076 0.0795755479268742
-0.698453375 0.13901175 0
-0.493464150126714 -0.478212084292959 0.0583574287307554
-0.634598280466503 0.140133725720924 0.146879505777458
-0.605806051934007 0.233294022643032 0.145482985862582
-0.301343098571317 0.0605295036386795 0.468895110785047
-0.277844108083728 -0.266753169614601 0.438712312309091
-0.192296173379015 -0.246722325423513 0.448486884974253
-0.475564609376338 -0.28350171315152 0.307968756097323
-0.198721054460271 0.401605179588157 0.321623954533036
-0.335807351518784 -0.181667930016132 0.454738989641553
-0.593979353497009 -0.258920956087121 0.154315769482249
-0.603866805072542 -0.311242517273586 0.0839049607373856
-0.0652605459095179 -0.476617408601368 0.257426399754125
-0.126752638357007 -0.0192141132847586 0.467459057510115
-0.375614246993363 -0.442910679541216 0.257032370590131
-0.37999484078161 -0.0842423073742044 0.453674768165594
-0.68987825 -0.171993 0
-0.181486846580177 -0.657311683476197 0.0547643491131751
-0.457892473116445 -0.408668439344276 0.212328200444823
-0.299620821954079 0.558256237954541 0.148806269561824
-0.708147625 -0.06918615 0
-0.20950493510413 -0.33105519362964 0.408654942154161
-0.235342896295286 0.59991625859334 0.126097237777776
-0.420712664621499 0.19078316309734 0.375843795585482
-0.508196317653649 0.208858043597937 0.293599037079459
-0.656950778752341 0.187582756162068 0.0767782517383677
-0.481215601869283 -0.190300760993328 0.352190416730703
-0.53225006914934 -0.119237266490461 0.318376877255144
-0.490831322622532 -0.340256763775278 0.242115814235994
-0.0560983609499729 0.0235340076634937 0.420599753320261
0.000176418385389846 0.0699721647324801 0.35995954701744
-0.124373309056398 0.0597408023064868 0.455078650464925
-0.366401771894241 -0.57461222693269 0.0661403346176411
-0.342565837953742 -0.549549164126848 0.138428793160378
-0.679023301311337 -0.0150718840669268 0.0873586794247213
-0.0718030342371764 0.625606044712983 0.122202538231591
-0.423993583493331 -0.369797016865686 0.28984148389902
-0.428418513178559 -0.249538648238026 0.371935376006771
-0.35919125 0.619920125 0
-0.0680420963066726 0.113383850609771 0.413427413103225
-0.580220873554913 -0.206843722887387 0.213806019184099
-0.587410012954843 -0.12975709964025 0.238436619733785
-0.159516544809049 -0.571050969084298 0.1909657940572
-0.175081433202439 -0.619964926550835 0.121814065776522
0.000125111499480392 -0.566491366402844 0.134111323887163
-0.0718329730098973 -0.546525196110989 0.200083102069953
-0.445452836588376 -0.0150747200289081 0.411738519215086
-0.490638571993254 0.0406736725718736 0.366702238865135
-0.375396563100347 0.0229823858750719 0.450995662551716
-0.539164290474196 -0.278409374596375 0.22951276201405
-0.552397551127294 -0.396655475341444 0.0792769992195458
-0.484035479513621 -0.440387195325993 0.135156391160607
-0.289578209206782 0.424276032987326 0.288820558665582
-0.577580682101873 0.373913706288764 0.0637458619742629
-0.129367429434019 0.664338228716597 0.0690322534979119
-0.273817766841506 0.347369413612657 0.34710682138424
-0.232439353350967 -0.409232354832803 0.353760388169132
-0.138856441064206 -0.44479336643083 0.314689752686429
-0.296448412262552 -0.0235054903903757 0.483397600154721
-0.0931552663249259 0.561104030913651 0.194860912332813
-0.169910670369752 0.512445500535414 0.240199919262823
-0.547016187591147 0.26859786708633 0.209594677337817
-0.0576907623834537 -0.325810769650495 0.348905648155907
0.000257055648541027 -0.267596096162071 0.308217569910517
0.000222338028461308 -0.34507622499976 0.275565872288251
4.84864436030373e-05 0.651217655105889 0.0699310191861135
-0.373124858682065 0.504894023816419 0.163887194835098
-0.538592274033777 -0.351678328912564 0.162639637049188
-0.253836548901579 -0.570992980732056 0.167262137588278
-0.657109375 -0.269984625 0
-0.576842125 0.421716125 0
-0.348412971009935 0.276218713160076 0.367889241994535
-0.514954605775589 -0.037222048219342 0.348801970796521
-0.546180131600385 0.038013806534345 0.308261126257271
-0.081548734680612 0.297222459974857 0.357950011145135
-0.142887570488301 -0.512663414410348 0.254314196730459
-0.231688109685794 -0.523582619607393 0.238639085185714
-0.211162800005085 0.0413921687840832 0.480635495995201
-0.336852810141173 -0.397289551472136 0.33033574219596
-0.556289 -0.437336375 0
-0.645303572986446 0.0422664919389952 0.155250925807918
-0.452542358389202 0.443794201409602 0.161759216087746
-0.212868101652938 0.645400994177576 0.0695520475374562
-0.67095225 0.24044775 0
-0.579123864136319 0.182329696123693 0.218256684461104
-0.496169731177207 0.122644321933226 0.341688150646069
-0.251601569657262 0.274153186158457 0.392340014011862
-0.36067243352588 0.360386848779116 0.307469286565866
-0.283582961813344 -0.113863164072892 0.48313691812491
-0.192753490752166 -0.154926011502008 0.476564957051373
-0.297112820190556 0.611170345546759 0.0734007318504061
-0.491299695490967 0.296199445012455 0.254796536013292
-0.159687922995357 0.130471604202017 0.44756469003196
-0.669203229735159 -0.11412654840072 0.0882439189962216
-0.504682199869507 0.359567198443092 0.188225750598501
6.63393331953142e-05 -0.641936405518514 0.0672106146142088
-0.0528456005170976 0.679827340040847 0.0515749576782491
-0.319870391503702 -0.510124319178483 0.215207408993285
-0.43371725 0.57095475 0
-0.301525555395859 -0.340513454083487 0.390245171300101
-0.359795705399791 -0.260781759340675 0.412524930769765
-0.257570029050192 -0.194630870206841 0.468472154025724
-0.135666550858373 -0.374472787644887 0.365539589681264
-0.281432677335627 0.501364433408288 0.223917599592222
-0.315099057147868 0.203816013553058 0.416519996249948
-0.464811590202874 -0.103868682724511 0.39186407880846
-0.0920056326699415 0.203123605142981 0.399039856934058
-0.272438625 0.662196625 0
-0.0521570901732287 -0.152647593330786 0.406096777724992
-0.435128125 -0.558326875 0
-0.0776690977907198 0.480933947432215 0.256872702935853
-0.117325441351265 -0.202656228381729 0.438814875120368
-0.391002250433472 -0.324135572005522 0.355108718763834
-0.061888916848751 -0.403068109980868 0.307833330290304
0.000202736171356069 -0.420579593368007 0.235591909452403
-0.20507282142392 0.560716649402854 0.186920407409871
-0.154413063081105 0.612647637152263 0.135777099084861
-0.358177465331617 0.123030291130952 0.434040659533988
-0.0854973375 0.7116655 0
-0.535584035400107 -0.204080783443452 0.282323940034675
-0.182458 0.692549625 0
-0.0533035350880753 -0.241447520199267 0.381587412002275
-0.710920375 0.033770425 0
0.000151017520375105 0.503018469996929 0.198417699579362
-0.0537931599326449 -0.0640405376192831 0.420117928264449
-0.600905923719371 0.0275530009764507 0.234001536136526
-0.123403019590754 -0.292812949668542 0.406606256844153
-0.173585379250705 0.334061978995485 0.360488378864164
9.79032083121321e-05 0.5747149224955 0.141148377099504
-0.0914339125 -0.700387125 0
0.00022789419374996 -0.100766812361497 0.350202299370141
0.00012612855547371 0.241926514531776 0.336868427252045
0.000197732746718087 -0.0167375876169293 0.358421562403601
-0.208029381852528 -0.47273824406899 0.296440587942255
-7.77548857166588e-06 0.418390346291872 0.254809534543542
9.39051340771265e-05 0.331585452237212 0.30161869548976
-0.50462875 0.5071365 0
-0.497961875 -0.50248725 0
-0.182046875 -0.68186725 0
-0.513969542857751 0.448640969774955 0.0753705691803877
0.437590649521818 0.36940105407207 0.246927756573858
0.433068197621873 0.278819199454099 0.317172344068368
0.158715727783851 0.261813411718439 0.392847900961995
0.205573404437653 -0.0622565383451303 0.487925911525843
0.412247863917715 -0.174348307097336 0.414334386791464
0.12091221075891 -0.110503496220833 0.460120330830704
0.0805152446129488 -0.608897737214974 0.136407085369683
0.0802488989540577 -0.663982655678098 0.0640825713251562
0.288453574444251 -0.460731831678842 0.289196313968784
0.425201872271664 -0.516274745664024 0.0984674482247249
0.404995126105825 -0.480628000691507 0.179333639485163
0.34456675 -0.618103875 0
0.276652629448119 -0.611744381330421 0.0843005044763819
0.26099975 -0.656427625 0
0.146659665531562 0.45112856389704 0.286751443905065
0.259536456262339 0.128811528590955 0.454959765998621
0.206271170440309 0.201710217477725 0.426973001134529
0.0906686078423104 0.390779710027661 0.317041286773183
0.373056988060482 0.563548421441512 0.0834046086950428
0.222955730336467 0.462310377074487 0.273441551143712
0.368189344555617 0.440078275072867 0.235792303984767
0.442101834191734 0.509336397726566 0.0890025931041255
0.645520234252379 -0.214825242894493 0.0828013341203628
0.625533348475538 -0.159789596990151 0.158410634436834
0.63349304633895 -0.0571173533453059 0.177040300438294
0.610543 -0.360117375 0
0.575911485966511 -0.0470485254778728 0.270758775079009
0.433950993559954 0.0845586715575658 0.402633062771537
0.623089616902948 0.281667715079308 0.0739025263211635
0.630355625 0.33429325 0
0.568050007390718 0.322075765109238 0.13417104641073
0.52355631033512 0.398660694489006 0.121489059618219
0.558053424314593 0.116462066933668 0.272929884435886
0.606553438048796 0.101717827871848 0.207164057213352
0.676417005820243 0.087094372624635 0.079492995978002
0.698453375 0.13901175 0
0.49349373461674 -0.4778364477007 0.0584121913336535
0.634049368393561 0.140307203351829 0.14667493763465
0.605525697416221 0.232414569293332 0.145470481019225
0.301430752517556 0.0580443931618024 0.468203668017678
0.278138806078616 -0.264413316459289 0.43833204701046
0.192831025300581 -0.245106795661834 0.448128883388865
0.475753634569124 -0.279940755617189 0.308267892845537
0.198968310224305 0.40088387412667 0.321524031041772
0.335642521480682 -0.181340130055321 0.453419840263759
0.593846561052204 -0.257638214648705 0.154334688046846
0.603828111172176 -0.310603749660413 0.0839394850613061
0.0656413887199358 -0.475998988394534 0.257536906826279
0.12713500725257 -0.0198559527594302 0.46691145548263
0.375916877601815 -0.440897920436778 0.257400685347169
0.379733998247929 -0.0844909525481315 0.452257307981204
0.68987825 -0.171993 0
0.18154054259725 -0.657123332134453 0.0547896721444029
0.458078407009213 -0.406882654735337 0.212579446429692
0.299893695149682 0.557611512660075 0.148924714131588
0.708147625 -0.06918615 0
0.210056635138772 -0.327949251255214 0.409234532412838
0.235517249953816 0.599560052733494 0.12613656372909
0.420747788880546 0.188540988613781 0.375372119010003
0.508251104045139 0.206603891729524 0.293150405802317
0.656737074300124 0.187364930831215 0.0767288215978937
0.480746433942409 -0.188294231247003 0.351551284136221
0.531517586944058 -0.118103861287984 0.317666861100333
0.490972762622551 -0.337934085162478 0.242345300753022
0.0564902095069809 0.0231837187976797 0.420332457086299
0.124718760730814 0.0590048788886714 0.454648089020068
0.366470812258983 -0.574236687209358 0.0662194337500292
0.342725447482684 -0.548714261282812 0.138608456054513
0.678734356041039 -0.0148872734073264 0.0872766814517564
0.0719419466489037 0.625526929123149 0.122210020985313
0.424295411488333 -0.367097812065856 0.290199364624065
0.428330336717641 -0.246741956897762 0.371591142095197
0.35919125 0.619920125 0
0.0683857302560977 0.112903617661169 0.413197165754522
0.579926967560423 -0.205001694647724 0.213750068715004
0.58683988916928 -0.127889890010318 0.238246457672968
0.159781659685754 -0.570324647399932 0.191146119583261
0.175237206758704 -0.619522052840647 0.121911130086552
0.0721293567599146 -0.546085104021154 0.200188002049487
0.44497017387836 -0.0167897033402254 0.410520986389831
0.490188258404858 0.0383389572714053 0.365781292203991
0.375160348319996 0.020586654337156 0.449987970225016
0.539104352188611 -0.276209568010037 0.229603083973255
0.552414636438575 -0.396082696771624 0.0793373442601269
0.484130840884532 -0.439378168907677 0.135300467790657
0.289863694389472 0.423315621191805 0.288711575614828
0.577729033040403 0.37314652277101 0.0638903945992746
0.12944173781715 0.66424861152138 0.0690329273586373
0.274037847014125 0.346268815183759 0.346908513832778
0.233059613575613 -0.406915592008307 0.35415763200905
0.139284123389221 -0.44343158114522 0.314937107785646
0.296526738323627 -0.023966020884313 0.48218395868165
0.0933876696890614 0.560932086819342 0.19485965051455
0.170185498232381 0.512015368334654 0.240181591027445
0.546946207038929 0.267220219347742 0.209310416920986
0.0581407215957882 -0.32464606215244 0.349044717912404
0.373705224667667 0.503506619826052 0.164332553630482
0.538632658895823 -0.350279969868982 0.162766759982411
0.254056849432358 -0.570132689233612 0.167469116480514
0.657109375 -0.269984625 0
0.576842125 0.421716125 0
0.348555591385372 0.274650685004553 0.367561625243277
0.514183395902029 -0.0376810764751585 0.347801844804833
0.545474715628647 0.0369997404247546 0.307484224420206
0.0817915019819589 0.29676588648271 0.357857771996955
0.143245324294766 -0.511646768682892 0.254549412401121
0.232038183578575 -0.522254803091479 0.238986880432332
0.21151383434149 0.0403001574079666 0.479893602936778
0.337202292320754 -0.394731657965766 0.330660777315066
0.556289 -0.437336375 0
0.644734737950893 0.0425354446316145 0.155074852351328
0.453058955874196 0.442011679249512 0.162261988809202
0.21295332220955 0.645232537792037 0.0695635663143903
0.67095225 0.24044775 0
0.578611624596123 0.181644450298883 0.217859836383553
0.49603293676205 0.120095523170487 0.34099893010129
0.251801925907814 0.272856851522437 0.392095923631647
0.360885908942439 0.359149514346931 0.30720679363338
0.283558707273385 -0.114896494132881 0.481807330985096
0.193240944312738 -0.154917993760533 0.475687381837991
0.297232581202339 0.610882318073717 0.0734491489994806
0.491185453757011 0.295248213333893 0.254195555265505
0.159988887649912 0.129345369662569 0.447201950916531
0.668958495561011 -0.113755824872112 0.0881815266257382
0.505159138207379 0.357369770948305 0.18851208084636
0.052906566999682 0.679802443766058 0.0515834095556277
0.320162922032126 -0.508690968189158 0.215555000150296
0.43371725 0.57095475 0
0.302094353985793 -0.336781673546952 0.390935098209191
0.3598685738241 -0.258186875729467 0.412066644394053
0.257787011400073 -0.193892747845359 0.467469757724306
0.136059842044082 -0.37272172674352 0.365765781692722
0.281768785874824 0.500538877370982 0.22396299386277
0.315239197107086 0.201843443371712 0.416182809787782
0.464165597631182 -0.103536812116433 0.390686262896042
0.0923006963467203 0.202487480858991 0.39886256874558
0.272438625 0.662196625 0
0.0527065572998188 -0.152739441680348 0.405812078715437
0 0.71875 0
0.435128125 -0.558326875 0
0.0779903537990991 0.480888009067347 0.256800867543263
0.117905454373566 -0.20258839227018 0.438270649636331
0.39154703417233 -0.32011619887071 0.355701179289444
0.0623209443214911 -0.402235502849138 0.307938750150697
0.205315319500908 0.560273728819197 0.186948128149433
0.154572040699604 0.612427041143136 0.135787618841189
0.35823053526327 0.120076977128671 0.433609894962466
0.0854973375 0.7116655 0
0.535286222741339 -0.201311691457248 0.282248456368754
0.182458 0.692549625 0
0.054004943646074 -0.241488088216994 0.381365684537151
0.710920375 0.033770425 0
0 -0.707963625 0
0.0542522887796615 -0.0642777386039029 0.419821127622285
0.600131062917661 0.0277442584633515 0.233571461382914
0.123756356256145 -0.290938356591032 0.40666841461863
0.173812387907765 0.333257335680647 0.360355454854977
0.0914339125 -0.700387125 0
0.000261647582807931 -0.185147880859404 0.33351923987449
0.000155241480443467 0.157231271890193 0.354303863385254
0.208477066636894 -0.471071715243922 0.296819402313639
0.000171500254381695 -0.494481890311659 0.188349586727997
0.50462875 0.5071365 0
0.497961875 -0.50248725 0
0.182046875 -0.68186725 0
0.514180958750239 0.447847155004244 0.075564012458452
3 0 1 122
3 78 52 7
3 101 21 116
3 45 23 22
3 152 58 27
3 136 124 123
3 60 118 35
3 53 63 102
3 28 29 118
3 66 64 74
3 102 85 86
3 26 160 24
3 97 99 98
3 41 136 40
3 125 18 54
3 9 10 86
3 22 104 46
3 46 102 45
3 111 77 110
3 54 57 125
3 80 47 110
3 116 129 0
3 9 67 68
3 106 122 1
3 59 126 96
3 72 42 147
3 71 53 49
3 51 22 128
3 129 31 30
3 68 10 9
3 53 102 86
3 35 34 60
3 44 123 50
3 40 56 41
3 30 38 96
3 111 8 132
3 25 114 85
3 49 113 71
3 33 115 160
3 138 54 101
3 46 85 102
3 68 67 12
3 145 95 14
3 81 82 107
3 2 16 141
3 147 71 113
3 95 94 150
3 89 117 151
3 12 11 13
3 32 59 119
3 139 16 121
3 128 55 51
3 24 23 76
3 36 114 172
3 117 89 155
3 143 5 146
3 45 84 75
3 28 118 60
3 45 75 23
3 22 51 104
3 60 34 37
3 88 28 30
3 145 169 158
3 122 106 90
3 94 151 150
3 162 17 43
3 71 147 42
3 140 107 62
3 112 39 93
3 103 12 78
3 64 48 159
3 4 72 135
3 151 94 70
3 68 12 103
3 86 85 36
3 154 62 76
3 31 129 116
3 37 34 115
3 161 97 156
3 149 148 47
3 83 50 93
3 121 2 162
3 81 107 140
3 1 126 59
3 20 122 87
3 163 94 158
3 115 33 37
3 32 120 59
3 89 131 153
3 89 153 155
3 29 88 105
3 23 24 128
3 154 61 62
3 128 24 69
3 125 57 117
3 34 35 157
3 327 7 164
3 63 42 84
3 70 100 131
3 106 139 121
3 43 19 87
3 14 95 19
3 93 3 112
3 108 107 82
3 141 74 334
3 64 65 74
3 6 79 80
3 156 143 146
3 138 20 87
3 26 107 108
3 0 20 116
3 8 111 168
3 119 38 37
3 129 96 126
3 108 160 26
3 10 53 86
3 132 103 111
3 62 26 76
3 117 155 142
3 119 33 32
3 144 9 36
3 86 36 9
3 76 75 154
3 55 128 69
3 29 28 88
3 130 6 7
3 23 75 76
3 53 10 49
3 164 7 52
3 114 36 85
3 45 22 46
3 25 85 46
3 4 44 50
3 152 39 15
3 121 162 90
3 137 97 161
3 139 15 16
3 19 138 87
3 150 54 138
3 333 143 156
3 141 334 166
3 107 26 62
3 115 24 160
3 136 41 124
3 1 59 58
3 42 72 61
3 138 19 95
3 77 6 80
3 113 49 8
3 78 6 77
3 7 6 78
3 120 108 82
3 70 163 100
3 127 66 74
3 151 70 89
3 84 154 75
3 115 69 24
3 42 61 154
3 67 11 12
3 10 68 132
3 123 124 3
3 161 146 41
3 97 148 99
3 143 165 159
3 139 58 152
3 156 98 333
3 113 8 91
3 120 58 59
3 53 71 63
3 92 91 168
3 4 140 61
3 62 61 140
3 27 82 81
3 57 150 151
3 119 96 38
3 108 32 160
3 24 76 26
3 103 77 111
3 154 84 42
3 327 130 7
3 49 132 8
3 69 34 157
3 30 28 38
3 125 73 18
3 9 144 67
3 103 132 68
3 141 16 127
3 34 69 115
3 45 102 84
3 128 22 23
3 83 152 27
3 3 93 123
3 109 166 170
3 43 90 162
3 44 40 136
3 148 97 137
3 92 47 148
3 148 137 92
3 20 138 101
3 8 168 91
3 32 108 120
3 163 70 94
3 101 116 20
3 16 2 121
3 48 64 66
3 52 78 12
3 52 12 13
3 80 110 77
3 80 79 336
3 49 10 132
3 103 78 77
3 117 57 151
3 63 71 42
3 60 38 28
3 160 32 33
3 30 96 129
3 3 48 112
3 83 93 39
3 56 40 134
3 146 124 41
3 92 110 47
3 138 95 150
3 81 50 83
3 96 119 59
3 167 159 165
3 94 95 145
3 44 135 40
3 112 66 127
3 0 129 126
3 134 147 113
3 27 120 82
3 141 166 109
3 73 133 18
3 72 4 61
3 97 98 156
3 142 73 125
3 125 117 142
3 88 174 105
3 37 33 119
3 67 144 11
3 84 102 63
3 54 150 57
3 333 165 143
3 87 90 43
3 123 44 136
3 113 91 134
3 134 40 135
3 137 91 92
3 127 16 15
3 5 159 48
3 2 109 162
3 159 5 143
3 161 41 56
3 90 87 122
3 39 112 15
3 4 135 44
3 120 27 58
3 168 110 92
3 145 158 94
3 168 111 110
3 112 48 66
3 162 109 17
3 91 137 56
3 50 140 4
3 146 5 124
3 27 81 83
3 56 137 161
3 50 81 140
3 14 19 43
3 127 15 112
3 58 106 1
3 167 64 159
3 91 56 134
3 147 134 135
3 17 14 43
3 139 106 58
3 2 141 109
3 83 39 152
3 3 5 48
3 15 139 152
3 161 156 146
3 106 121 90
3 70 131 89
3 50 123 93
3 153 131 313
3 135 72 147
3 127 74 141
3 122 20 0
3 17 170 169
3 3 124 5
3 21 171 174
3 145 14 17
3 313 131 100
3 74 65 334
3 1 0 126
3 88 30 31
3 47 336 149
3 47 80 336
3 17 169 145
3 79 6 130
3 148 149 99
3 60 37 38
3 65 64 167
3 69 157 55
3 170 17 109
3 25 46 104
3 101 54 18
3 172 144 36
3 52 13 173
3 21 101 18
3 21 18 133
3 174 31 116
3 173 164 52
3 88 31 174
3 21 133 171
3 174 116 21
3 174 171 105
3 175 292 176
3 252 182 227
3 271 286 196
3 220 197 198
3 321 202 233
3 305 293 294
3 235 210 288
3 228 272 238
3 203 288 204
3 240 248 239
3 272 259 258
3 201 199 329
3 270 98 99
3 216 215 305
3 295 229 193
3 184 259 185
3 197 221 274
3 221 220 272
3 281 280 251
3 229 295 232
3 253 280 222
3 286 175 299
3 184 242 241
3 276 176 292
3 234 269 296
3 246 317 217
3 245 224 228
3 226 298 197
3 299 205 206
3 242 184 185
3 228 259 272
3 210 235 209
3 219 225 293
3 215 216 231
3 205 269 213
3 281 301 183
3 200 258 284
3 224 245 283
3 208 329 285
3 307 271 229
3 221 272 258
3 242 187 241
3 315 189 268
3 254 277 255
3 177 310 191
3 317 283 245
3 268 319 267
3 262 320 287
3 187 188 186
3 207 289 234
3 308 291 191
3 298 226 230
3 199 250 198
3 211 338 284
3 287 324 262
3 312 316 180
3 220 249 257
3 203 235 288
3 220 198 249
3 197 274 226
3 235 212 209
3 261 205 203
3 315 158 169
3 292 263 276
3 267 319 320
3 331 218 192
3 245 217 317
3 309 237 277
3 282 266 214
3 273 252 187
3 239 328 223
3 179 304 246
3 320 244 267
3 242 273 187
3 259 211 258
3 323 250 237
3 206 286 299
3 212 285 209
3 330 325 270
3 149 222 318
3 256 266 225
3 291 331 177
3 254 309 277
3 176 234 296
3 195 260 292
3 163 158 267
3 285 212 208
3 207 234 290
3 262 322 300
3 262 324 322
3 204 275 261
3 198 298 199
3 323 237 236
3 298 243 199
3 295 287 232
3 209 326 210
3 327 332 182
3 238 257 217
3 244 300 100
3 276 291 308
3 218 260 194
3 189 194 268
3 266 282 178
3 278 255 277
3 310 334 248
3 239 248 65
3 181 253 79
3 325 316 312
3 307 260 195
3 201 278 277
3 175 286 195
3 183 335 281
3 289 212 213
3 299 296 269
3 278 201 329
3 185 259 228
3 301 281 273
3 237 250 201
3 287 311 324
3 289 207 208
3 314 211 184
3 259 184 211
3 250 323 249
3 230 243 298
3 204 261 203
3 130 182 181
3 198 250 249
3 228 224 185
3 332 227 182
3 284 258 211
3 220 221 197
3 200 221 258
3 179 225 219
3 321 190 214
3 291 263 331
3 306 330 270
3 308 191 190
3 194 260 307
3 319 307 229
3 333 325 312
3 310 166 334
3 277 237 201
3 285 329 199
3 305 294 216
3 176 233 234
3 217 236 246
3 307 268 194
3 251 253 181
3 283 183 224
3 252 251 181
3 182 252 181
3 290 255 278
3 244 100 163
3 297 248 240
3 320 262 244
3 257 249 323
3 285 199 243
3 217 323 236
3 241 187 186
3 185 301 242
3 293 178 294
3 330 216 316
3 270 99 318
3 312 328 165
3 308 321 233
3 325 333 98
3 283 264 183
3 290 234 233
3 228 238 245
3 265 335 264
3 179 236 309
3 237 309 236
3 202 254 255
3 232 320 319
3 289 213 269
3 278 329 207
3 199 201 250
3 273 281 251
3 323 217 257
3 327 182 130
3 224 183 301
3 243 326 209
3 205 213 203
3 295 193 247
3 184 241 314
3 273 242 301
3 310 297 191
3 209 285 243
3 220 257 272
3 298 198 197
3 256 202 321
3 178 293 266
3 279 170 166
3 218 331 263
3 219 305 215
3 318 306 270
3 265 318 222
3 318 265 306
3 195 271 307
3 183 264 335
3 207 290 278
3 163 267 244
3 271 195 286
3 191 291 177
3 223 240 239
3 227 187 252
3 227 188 187
3 253 251 280
3 253 336 79
3 224 301 185
3 273 251 252
3 287 320 232
3 238 217 245
3 235 203 213
3 329 208 207
3 205 299 269
3 178 282 223
3 256 214 266
3 231 303 215
3 316 216 294
3 265 222 280
3 307 319 268
3 254 256 225
3 269 234 289
3 167 165 328
3 267 315 268
3 219 215 304
3 282 297 240
3 175 296 299
3 303 283 317
3 202 255 290
3 310 279 166
3 247 193 302
3 246 236 179
3 270 325 98
3 311 295 247
3 295 311 287
3 261 275 340
3 212 289 208
3 241 186 314
3 257 238 272
3 229 232 319
3 333 312 165
3 260 218 263
3 293 305 219
3 283 303 264
3 303 304 215
3 306 265 264
3 297 190 191
3 180 223 328
3 177 331 279
3 328 312 180
3 330 231 216
3 263 292 260
3 214 190 282
3 179 219 304
3 290 233 202
3 335 265 280
3 315 267 158
3 335 280 281
3 282 240 223
3 331 192 279
3 264 231 306
3 225 179 309
3 316 294 180
3 202 256 254
3 231 330 306
3 225 309 254
3 189 218 194
3 297 282 190
3 233 176 276
3 167 328 239
3 264 303 231
3 317 304 303
3 192 218 189
3 308 233 276
3 177 279 310
3 256 321 214
3 178 223 180
3 190 321 308
3 330 316 325
3 276 263 291
3 244 262 300
3 225 266 293
3 322 313 300
3 304 317 246
3 297 310 248
3 292 175 195
3 192 169 170
3 178 180 294
3 196 340 337
3 315 192 189
3 313 100 300
3 248 334 65
3 176 296 175
3 261 206 205
3 222 149 336
3 222 336 253
3 192 315 169
3 79 130 181
3 318 99 149
3 235 213 212
3 65 167 239
3 243 230 326
3 170 279 192
3 200 274 221
3 271 193 229
3 338 211 314
3 227 339 188
3 196 193 271
3 196 302 193
3 340 286 206
3 339 227 332
3 261 340 206
3 196 337 302
3 340 196 286
3 340 275 337
