OFF
341 634 0
-0.349709245746937 0.295947327598323 0.197597868879866
-0.346167799130296 0.224008267287566 0.253751511743292
-0.126924794547799 0.20963236047793 0.313873944696348
-0.164254979962463 -0.0490762027219626 0.391867386932406
-0.330362354991363 -0.140642800195401 0.332839072241189
-0.09636772552354 -0.0882451953519114 0.369226579913991
-0.0644508123622395 -0.48739188962495 0.108964049459888
-0.0643061170287858 -0.53130851972291 0.0510958321518516
-0.230454246922617 -0.370898155926113 0.230855306623559
-0.339949116347815 -0.413617508949637 0.0785918332979901
-0.32371589414956 -0.385738400788236 0.143178359111905
-0.2756534 -0.4944831 0
-0.221168624918914 -0.489850612020897 0.0671501604360084
-0.2087998 -0.5251421 0
-0.117174988551972 0.360636139494037 0.229527690171735
-0.207485491215164 0.104763075009703 0.364182579274474
-0.164886264068603 0.162082653765896 0.341359007048935
-0.0724517195667135 0.312210607528969 0.253549293947628
-0.29816799458802 0.451078017282725 0.0665249990736057
-0.178172048313858 0.369806011612011 0.218698834465525
-0.294063125173129 0.35248559593905 0.188429684306281
-0.353332226904389 0.407862508623975 0.0709592028294873
-0.516315486667155 -0.172252391040051 0.0661651682463224
-0.500454846292909 -0.128589147291295 0.126718815514991
-0.506965057616139 -0.0460025201173996 0.141679942786309
-0.4884344 -0.2880939 0
-0.461225033051825 -0.0377906664127194 0.21702846570769
-0.347267650161097 0.0698416469738266 0.322742951980356
-0.498308643894875 0.225718549190492 0.0590070280643102
-0.5042845 0.2674346 0
-0.453966486356712 0.258821831345736 0.107005471824574
-0.418321388309375 0.319859367098135 0.0968443130464475
-0.446647751649903 0.0938688574735194 0.218643045752132
-0.485415187434837 0.0816186757589078 0.165851453217437
-0.541099014310919 0.0695997178437295 0.0635631127746287
-0.5587627 0.1112094 0
-0.394679336673628 -0.382569782971632 0.0466514952481939
-0.507317941923978 0.11211691635679 0.117354776243475
-0.484313225328953 0.186491187517997 0.116248232871404
-0.241155066789726 0.0483152900389183 0.375461465119455
-0.222502591016798 -0.21378373052795 0.351721751708061
-0.153981959242516 -0.197679202873144 0.359573060699768
-0.380554723467793 -0.226777636035602 0.24661687229803
-0.159031641945641 0.320661349833206 0.256959351483057
-0.268892408168163 -0.14564182940804 0.364522159260509
-0.47498668590335 -0.2070955248689 0.123391041217767
-0.482924198217534 -0.248949529273549 0.0670436007297645
-0.0523603999410113 -0.38128460970488 0.206110423851627
-0.101316102463932 -0.0154638323570163 0.374657018673538
-0.300469736965705 -0.354677287033215 0.205630708185119
-0.304207879373428 -0.0675786209370996 0.36346469656392
-0.5519026 -0.1375944 0
-0.145216589142364 -0.525956286204256 0.0435515949445951
-0.36622074909599 -0.32709164247183 0.16985478698002
-0.239612519368912 0.446347831936417 0.118871621790174
-0.5665181 -0.05534892 0
-0.167791130191005 -0.265182240058006 0.327609314851786
-0.188250122386829 0.479818516752066 0.100755423945075
-0.336417859470132 0.152433395124395 0.300452585814762
-0.406302544760605 0.166915976760437 0.234638293746309
-0.525326824499106 0.150008608568895 0.0613305968199021
-0.385114828279572 -0.15231815929465 0.282028451181288
-0.425803193704535 -0.095396356466236 0.254811981240398
-0.39263171600331 -0.272286349025408 0.19375874504372
-0.0448733077661797 0.0186985417114136 0.336737161637874
0.000100387373378382 0.0557146642166158 0.287950972532046
-0.0994240457433315 0.0476816730512273 0.364521070481982
-0.293017809917435 -0.459773805804909 0.0528086259616951
-0.273923658743591 -0.439850149694046 0.11054380838794
-0.542953345026845 -0.0120637978569072 0.0697771253317095
-0.0575319325781707 0.500245790099039 0.0978855709915198
-0.339249330042336 -0.296060929492933 0.232018884046384
-0.342954076292845 -0.199801396494808 0.297956632592475
-0.287353 0.4959361 0
-0.0545284954756254 0.0904149067484911 0.330724895249463
-0.464033955194935 -0.165391031586762 0.171037708463727
-0.469763877414063 -0.103650463315571 0.190749998052748
-0.127764998734499 -0.457215577779704 0.152485408509602
-0.140144246788544 -0.496222353178208 0.0970636668185458
7.79456764667335e-05 -0.452714013134302 0.107580663055147
-0.0576386723723525 -0.437274414403302 0.160107101527011
-0.356488173380526 -0.0121714806609988 0.329631363719992
-0.392503559101587 0.0324537669916805 0.293413220205259
-0.300437192211431 0.0182730345449378 0.361138486973572
-0.431254572457014 -0.222714301338328 0.183645539263165
-0.441793165785078 -0.317292759558003 0.0633570031505641
-0.387089063995172 -0.352368321602876 0.108063525134995
-0.23159978567911 0.338818455033565 0.230728804574292
-0.461899798640859 0.299030875481527 0.0509438542764242
-0.103554267765348 0.53145053836875 0.0551881681115619
-0.218989413824923 0.277349966641229 0.277147081483986
-0.186152725663772 -0.327861126503747 0.283341849949948
-0.111257176392531 -0.356231964004308 0.251985188339784
-0.237297088653276 -0.0189422959500589 0.38735090539948
-0.0746004974289593 0.448551916679847 0.156071062769694
-0.135998901670011 0.409618119994986 0.19219998706934
-0.437296552281681 0.214648020715721 0.167469364670934
-0.0463459323948644 -0.260361354119119 0.279504867964139
0.000154870160587252 -0.213343557476436 0.247040272837322
0.000133408484738388 -0.275380874017469 0.220861980632454
3.08574809512528e-05 0.520546262791395 0.0562279009784488
-0.298373982391401 0.40349926931671 0.130957458268814
-0.430717749581753 -0.281353656672088 0.130069630474469
-0.2030275028682 -0.457149069838246 0.133469900121753
-0.5256875 -0.2159877 0
-0.4614737 0.3373729 0
-0.27857006223822 0.22062172654832 0.293876974099071
-0.411971082285814 -0.0298430064420238 0.279140799154976
-0.436791196389511 0.0303613944635022 0.246558482148772
-0.0654350964500809 0.237092714513729 0.285931127902186
-0.114500155500448 -0.410547818917126 0.203406037230335
-0.185419354776414 -0.419381932950916 0.190711536263342
-0.168953431057832 0.0330089100933902 0.384998156238297
-0.26960058581003 -0.318285198735847 0.264481833848132
-0.4450312 -0.3498691 0
-0.515896791016095 0.0338076450580292 0.124073868523511
-0.361801769804784 0.35463370571119 0.129264176286573
-0.170283540224607 0.516286826819866 0.0555564100616823
-0.5367618 0.1923582 0
-0.462956602382539 0.145804481590384 0.174398921871861
-0.396794486143677 0.0980033435594112 0.273235016144827
-0.201249782589322 0.218853584935282 0.31331564038564
-0.288361010094145 0.287848168046822 0.245548961563917
-0.227036197683732 -0.0913310210440886 0.387305499849731
-0.154289203119919 -0.124183120620562 0.382084076045021
-0.237617531554575 0.488840139830815 0.0586147079161407
-0.392760117121989 0.236675717453816 0.203584686600441
-0.12780396770313 0.104133665393611 0.358044046949525
-0.535117259021449 -0.0912598751228881 0.0704921583694927
-0.403480498663864 0.287257938360216 0.150421327667604
4.17412461843454e-05 -0.513249700570858 0.0540399881351318
-0.0423884591029643 0.543711995169364 0.041320606436101
-0.255832243824056 -0.408479673778053 0.171996365941043
-0.3469738 0.4567638 0
-0.241461980028657 -0.272746526945019 0.312769925881939
-0.288100286233474 -0.208925037194988 0.330600556171879
-0.206240714754185 -0.156046915494398 0.375659714553195
-0.108710488901156 -0.299787093789882 0.292900779453718
-0.225111842655874 0.400623867705554 0.178935242839118
-0.251985684274344 0.162774680865886 0.332892151567191
-0.37202023475764 -0.0832191721093061 0.313788810873079
-0.0738358178438345 0.161987559379472 0.318814020717248
-0.2179509 0.5297573 0
-0.0419238145015758 -0.122004405149946 0.325194302394061
-0.3481025 -0.4466615 0
-0.0621023657949577 0.384088748060619 0.205808247968116
-0.0939724769646796 -0.162205317075269 0.351643350519509
-0.313021090861955 -0.259466682234236 0.284500947834519
-0.0496741819270957 -0.322338708663584 0.246557120690139
0.000123442608647611 -0.335829251797746 0.18880793223724
-0.164093064593661 0.448371069494008 0.149450678953872
-0.123589189897813 0.490023349846223 0.108597152423402
-0.286519389972671 0.0982763263291318 0.347236392268485
-0.06839787 0.5693324 0
-0.428467415958811 -0.163154977636378 0.225983172129983
-0.1459664 0.5540397 0
-0.0428618296104127 -0.192862036962011 0.305637101981396
-0.5687363 0.02701634 0
9.70622709458365e-05 0.401242730674731 0.158975317360808
-0.0431246781309269 -0.0512540887762591 0.3364045470913
-0.480432499582502 0.0220562590776293 0.187091806413653
-0.0988653295148231 -0.234303086211567 0.325873936603618
-0.138977961414104 0.266613680346281 0.28784284554962
6.21432333392937e-05 0.458954662175989 0.113211566733364
-0.07314713 -0.5603097 0
0.000134551906939286 -0.0804432501719447 0.280440820121863
7.01639575434424e-05 0.192928901512375 0.269560729952779
0.000114233598540875 -0.0134394411556382 0.286862278693704
-0.166575999840038 -0.378749114343784 0.237231276566651
-1.59773714562333e-05 0.333546272138074 0.203884028412193
5.09242772733356e-05 0.264375090711411 0.241252402311783
-0.403703 0.4057092 0
-0.3983695 -0.4019898 0
-0.1456375 -0.5454938 0
-0.411014163815825 0.358754169772127 0.060233790044882
0.349783040995438 0.295259177718323 0.197310353193991
0.346196022889091 0.222979612039409 0.253470146177583
0.127058519063866 0.209022838345038 0.31375576129837
0.164426954277544 -0.0498099556495281 0.39126417381696
0.330081588839375 -0.139852749429311 0.332109274987108
0.0966425903126504 -0.088465704413086 0.368840522541754
0.0645737397929386 -0.487207052650177 0.109018493900427
0.0643634409629274 -0.531224053467131 0.0511297884601222
0.230773388557 -0.369370495570063 0.231326248637812
0.340010505747143 -0.413194604796704 0.0786705248062113
0.323835514819097 -0.384885903058268 0.143333541299908
0.2756534 -0.4944831 0
0.221222784328126 -0.489581913104607 0.0672028238170536
0.2087998 -0.5251421 0
0.117329120996617 0.360347165132505 0.229495385455127
0.207591459311377 0.103179485367321 0.363991862731331
0.165015784216815 0.161156979891368 0.34118697621747
0.0725662408565507 0.311979461033328 0.253517144094954
0.298297350764873 0.450733602918562 0.0666143888219627
0.178339123942874 0.369357672523316 0.218665111834916
0.294330241044732 0.351688461287211 0.188386345459687
0.353490983268737 0.407359954781309 0.0710950109397619
0.516229331283996 -0.171881067603313 0.0661541918766573
0.500227131671867 -0.127887439848937 0.126655434254301
0.506565232285132 -0.0457357833229337 0.141542312694761
0.4884344 -0.2880939 0
0.460661410064268 -0.0376804645461779 0.216653118383852
0.347162009306298 0.0679278972765526 0.322258957436045
0.498279492054089 0.225304547711994 0.0590347995937526
0.5042845 0.2674346 0
0.454131643410704 0.257625098320762 0.107188287540178
0.418540384662103 0.318895196388074 0.097034297226103
0.44624223871203 0.093263336493899 0.218250580212085
0.484992631741245 0.0813822478542728 0.16561330940749
0.540918128277888 0.0696438675896867 0.0635036175756981
0.5587627 0.1112094 0
0.394697380286746 -0.382320728337067 0.0466868738357387
0.506951858983368 0.11223060118901 0.117210279392243
0.484123484056159 0.18590694906866 0.11622965983886
0.241187177079085 0.0466664845665122 0.375013966590678
0.222672537648512 -0.212227262644617 0.351477909356007
0.154300850233358 -0.196606364518643 0.359346698452323
0.38067342347373 -0.224415012853398 0.246809804526236
0.159175753675408 0.320182781974179 0.256894379622121
0.268761512014126 -0.145422240989635 0.363658435557057
0.474897504805016 -0.206245642791218 0.123398920370614
0.482898101557221 -0.248526521317771 0.0670642773611571
0.052593967524937 -0.380874439069315 0.206183243361306
0.10153439298845 -0.0158892094310517 0.3743038747639
0.300659240062815 -0.353339935161091 0.205871948207946
0.304010878935832 -0.0677423913256411 0.362535340455733
0.5519026 -0.1375944 0
0.145249594188316 -0.525832443384701 0.0435686865961076
0.3663366209138 -0.325906408117747 0.170018027387597
0.239785358700187 0.445920485160347 0.118949637324734
0.5665181 -0.05534892 0
0.168125507474772 -0.263118441278356 0.327999102840057
0.188359805746315 0.479582903872607 0.100781826566624
0.336419371522838 0.150945722120696 0.300143567837075
0.406319182055725 0.16542084175683 0.23434317216691
0.525184221216342 0.14986382822261 0.0612931560421305
0.384793702445041 -0.150984944830751 0.281603317719761
0.425310785539866 -0.0946436813680965 0.254337826802732
0.392719006282368 -0.27074537009517 0.193906517889807
0.0450976205630932 0.0184667270063549 0.336565378386941
0.0996189296940251 0.0471942457833965 0.36424387160478
0.293060783548314 -0.459524812823841 0.0528603135934399
0.274023204578049 -0.439296253225194 0.110661392989405
0.542762331549735 -0.0119416894502423 0.0697178407657484
0.0576190960740239 0.50019419896442 0.0978913717155015
0.339438995390281 -0.294268259720022 0.232252557842919
0.342882261737107 -0.197942405144587 0.297728227696882
0.287353 0.4959361 0
0.0547231864892556 0.090097113158958 0.330575999871058
0.463837812310583 -0.164170344153932 0.170993746085885
0.469385624336466 -0.102413267857958 0.190613861408973
0.127929287180161 -0.45673430904444 0.152604853991184
0.140240767889646 -0.495929957929716 0.0971283136937067
0.057821225721056 -0.436983081340385 0.160176624013855
0.356150682062808 -0.0133080745206111 0.328833882211713
0.392188956015572 0.0309063101771461 0.292808344666353
0.300261111544379 0.0166838329660988 0.360480125419134
0.431211227111686 -0.221255859544957 0.183699955162128
0.441803150931338 -0.316913247790857 0.0633954201947185
0.387148006776477 -0.351698974686541 0.108156685494035
0.231770636113403 0.338180589039895 0.230657725963979
0.461994621736645 0.298521747704534 0.051036317688175
0.103600903261858 0.531391968411203 0.0551892738559297
0.219113704153863 0.276619424269079 0.277017098919082
0.186540074393146 -0.326319688461501 0.283604664003189
0.111520204324637 -0.355327067220231 0.252148957528287
0.237319425262163 -0.0192477294145047 0.386556442065911
0.074745786185734 0.448437714281653 0.15607019855337
0.136167730267705 0.409332832607481 0.192188689557675
0.437235610313299 0.21373238471557 0.167276587331041
0.0466139503992841 -0.259589921899645 0.27959786905922
0.298747333987018 0.402578704702517 0.131249949479867
0.430741017384928 -0.280426621241274 0.130150377277124
0.203164802166635 -0.456578447368803 0.133606180138197
0.5256875 -0.2159877 0
0.4614737 0.3373729 0
0.278642212827565 0.219580760658315 0.293661799436256
0.411448741646404 -0.0301463646086208 0.278478899833826
0.43631209919556 0.0296893375533994 0.24604083595213
0.0655706399037434 0.236790613691356 0.285871076651415
0.114721296317387 -0.409872756725225 0.203561393161525
0.185638081119795 -0.41849984626646 0.190940838346026
0.169151345306654 0.0322847251658908 0.384515935923228
0.269817885220277 -0.316583543380982 0.264694264866758
0.4450312 -0.3498691 0
0.515519592414319 0.033985196843252 0.123947573723189
0.362135044333882 0.353450411143233 0.129590490807316
0.170337115629478 0.516175745449013 0.055564349061824
0.5367618 0.1923582 0
0.462607721537416 0.145348511621848 0.174128623686702
0.396683881082629 0.0963135696223059 0.272783450507685
0.201358239394797 0.217993857112662 0.313156352547245
0.28848197012288 0.287025820977433 0.245375996437751
0.2269951997592 -0.0920161953587549 0.386436890691715
0.154575787611621 -0.124177340817637 0.381514272794986
0.237693292370611 0.488649447004669 0.0586465577594178
0.392664637276343 0.236041657888191 0.20318561488964
0.127971810788817 0.103387768678906 0.357810499529978
0.534955874234183 -0.0910144333195551 0.07044661184519
0.403784282004808 0.285799251665555 0.150603932810667
0.042426890052594 0.543696240065495 0.0413267422354967
0.256015576600457 -0.407527571699412 0.17222466836938
0.3469738 0.4567638 0
0.241819255196969 -0.270264626796383 0.313228412212953
0.288130130730715 -0.207198929610726 0.330301414202746
0.206356029621578 -0.15555498106383 0.375005457584127
0.108947446722448 -0.298623973478295 0.293052774011969
0.225321210375559 0.400076181265063 0.178965860404619
0.252054136775034 0.161466086252504 0.332672685433859
0.371577807458 -0.0829972667106166 0.313012613635565
0.0740015910883689 0.161566793994264 0.318699107428532
0.2179509 0.5297573 0
0.0422518762449814 -0.12206506669683 0.32501094766779
0 0.575 0
0.3481025 -0.4466615 0
0.0622989441187758 0.384058840207207 0.205761295394506
0.0943221355654494 -0.16216018674299 0.351293229934326
0.313369013609912 -0.256796838045565 0.28489267350791
0.0499362707580567 -0.321786732615101 0.246627239941095
0.164244517999983 0.448077877398325 0.149469932082533
0.123688782948321 0.489877947497836 0.108604999006557
0.286532162679976 0.0963174891966257 0.346958670280283
0.06839787 0.5693324 0
0.428267185771397 -0.161318868142832 0.225925262631962
0.1459664 0.5540397 0
0.0432910858039357 -0.192888880802149 0.305492902940775
0.5687363 0.02701634 0
0 -0.5663709 0
0.0433924691046473 -0.0514110456059459 0.336213853510132
0.479915320719522 0.0221825176814815 0.186797502088845
0.099069867169187 -0.23305902002396 0.32592194826814
0.139105194468324 0.266080274812782 0.28775608527771
0.07314713 -0.5603097 0
0.00015771106680627 -0.147690143328302 0.267208889320559
8.75629585146418e-05 0.125330700415453 0.283440680620115
0.16685506734232 -0.377641186683836 0.237481526852607
0.000105827612099805 -0.395006044824421 0.150963322771075
0.403703 0.4057092 0
0.3983695 -0.4019898 0
0.1456375 -0.5454938 0
0.41114962064526 0.358227199839557 0.0603589041724652
3 0 1 122
3 78 52 7
3 101 21 116
3 45 23 22
3 152 58 27
3 136 124 123
3 60 118 35
3 53 63 102
3 28 29 118
3 66 64 74
3 102 85 86
3 26 160 24
3 97 99 98
3 41 136 40
3 125 18 54
3 9 10 86
3 22 104 46
3 46 102 45
3 111 77 110
3 54 57 125
3 80 47 110
3 116 129 0
3 9 67 68
3 106 122 1
3 59 126 96
3 72 42 147
3 71 53 49
3 51 22 128
3 129 31 30
3 68 10 9
3 53 102 86
3 35 34 60
3 44 123 50
3 40 56 41
3 30 38 96
3 111 8 132
3 25 114 85
3 49 113 71
3 33 115 160
3 138 54 101
3 46 85 102
3 68 67 12
3 145 95 14
3 81 82 107
3 2 16 141
3 147 71 113
3 95 94 150
3 89 117 151
3 12 11 13
3 32 59 119
3 139 16 121
3 128 55 51
3 24 23 76
3 36 114 172
3 117 89 155
3 143 5 146
3 45 84 75
3 28 118 60
3 45 75 23
3 22 51 104
3 60 34 37
3 88 28 30
3 145 169 158
3 122 106 90
3 94 151 150
3 162 17 43
3 71 147 42
3 140 107 62
3 112 39 93
3 103 12 78
3 64 48 159
3 4 72 135
3 151 94 70
3 68 12 103
3 86 85 36
3 154 62 76
3 31 129 116
3 37 34 115
3 161 97 156
3 149 148 47
3 83 50 93
3 121 2 162
3 81 107 140
3 1 126 59
3 20 122 87
3 163 94 158
3 115 33 37
3 32 120 59
3 89 131 153
3 89 153 155
3 29 88 105
3 23 24 128
3 154 61 62
3 128 24 69
3 125 57 117
3 34 35 157
3 327 7 164
3 63 42 84
3 70 100 131
3 106 139 121
3 43 19 87
3 14 95 19
3 93 3 112
3 108 107 82
3 141 74 334
3 64 65 74
3 6 79 80
3 156 143 146
3 138 20 87
3 26 107 108
3 0 20 116
3 8 111 168
3 119 38 37
3 129 96 126
3 108 160 26
3 10 53 86
3 132 103 111
3 62 26 76
3 117 155 142
3 119 33 32
3 144 9 36
3 86 36 9
3 76 75 154
3 55 128 69
3 29 28 88
3 130 6 7
3 23 75 76
3 53 10 49
3 164 7 52
3 114 36 85
3 45 22 46
3 25 85 46
3 4 44 50
3 152 39 15
3 121 162 90
3 137 97 161
3 139 15 16
3 19 138 87
3 150 54 138
3 333 143 156
3 141 334 166
3 107 26 62
3 115 24 160
3 136 41 124
3 1 59 58
3 42 72 61
3 138 19 95
3 77 6 80
3 113 49 8
3 78 6 77
3 7 6 78
3 120 108 82
3 70 163 100
3 127 66 74
3 151 70 89
3 84 154 75
3 115 69 24
3 42 61 154
3 67 11 12
3 10 68 132
3 123 124 3
3 161 146 41
3 97 148 99
3 143 165 159
3 139 58 152
3 156 98 333
3 113 8 91
3 120 58 59
3 53 71 63
3 92 91 168
3 4 140 61
3 62 61 140
3 27 82 81
3 57 150 151
3 119 96 38
3 108 32 160
3 24 76 26
3 103 77 111
3 154 84 42
3 327 130 7
3 49 132 8
3 69 34 157
3 30 28 38
3 125 73 18
3 9 144 67
3 103 132 68
3 141 16 127
3 34 69 115
3 45 102 84
3 128 22 23
3 83 152 27
3 3 93 123
3 109 166 170
3 43 90 162
3 44 40 136
3 148 97 137
3 92 47 148
3 148 137 92
3 20 138 101
3 8 168 91
3 32 108 120
3 163 70 94
3 101 116 20
3 16 2 121
3 48 64 66
3 52 78 12
3 52 12 13
3 80 110 77
3 80 79 336
3 49 10 132
3 103 78 77
3 117 57 151
3 63 71 42
3 60 38 28
3 160 32 33
3 30 96 129
3 3 48 112
3 83 93 39
3 56 40 134
3 146 124 41
3 92 110 47
3 138 95 150
3 81 50 83
3 96 119 59
3 167 159 165
3 94 95 145
3 44 135 40
3 112 66 127
3 0 129 126
3 134 147 113
3 27 120 82
3 141 166 109
3 73 133 18
3 72 4 61
3 97 98 156
3 142 73 125
3 125 117 142
3 88 174 105
3 37 33 119
3 67 144 11
3 84 102 63
3 54 150 57
3 333 165 143
3 87 90 43
3 123 44 136
3 113 91 134
3 134 40 135
3 137 91 92
3 127 16 15
3 5 159 48
3 2 109 162
3 159 5 143
3 161 41 56
3 90 87 122
3 39 112 15
3 4 135 44
3 120 27 58
3 168 110 92
3 145 158 94
3 168 111 110
3 112 48 66
3 162 109 17
3 91 137 56
3 50 140 4
3 146 5 124
3 27 81 83
3 56 137 161
3 50 81 140
3 14 19 43
3 127 15 112
3 58 106 1
3 167 64 159
3 91 56 134
3 147 134 135
3 17 14 43
3 139 106 58
3 2 141 109
3 83 39 152
3 3 5 48
3 15 139 152
3 161 156 146
3 106 121 90
3 70 131 89
3 50 123 93
3 153 131 313
3 135 72 147
3 127 74 141
3 122 20 0
3 17 170 169
3 3 124 5
3 21 171 174
3 145 14 17
3 313 131 100
3 74 65 334
3 1 0 126
3 88 30 31
3 47 336 149
3 47 80 336
3 17 169 145
3 79 6 130
3 148 149 99
3 60 37 38
3 65 64 167
3 69 157 55
3 170 17 109
3 25 46 104
3 101 54 18
3 172 144 36
3 52 13 173
3 21 101 18
3 21 18 133
3 174 31 116
3 173 164 52
3 88 31 174
3 21 133 171
3 174 116 21
3 174 171 105
3 175 292 176
3 252 182 227
3 271 286 196
3 220 197 198
3 321 202 233
3 305 293 294
3 235 210 288
3 228 272 238
3 203 288 204
3 240 248 239
3 272 259 258
3 201 199 329
3 270 98 99
3 216 215 305
3 295 229 193
3 184 259 185
3 197 221 274
3 221 220 272
3 281 280 251
3 229 295 232
3 253 280 222
3 286 175 299
3 184 242 241
3 276 176 292
3 234 269 296
3 246 317 217
3 245 224 228
3 226 298 197
3 299 205 206
3 242 184 185
3 228 259 272
3 210 235 209
3 219 225 293
3 215 216 231
3 205 269 213
3 281 301 183
3 200 258 284
3 224 245 283
3 208 329 285
3 307 271 229
3 221 272 258
3 242 187 241
3 315 189 268
3 254 277 255
3 177 310 191
3 317 283 245
3 268 319 267
3 262 320 287
3 187 188 186
3 207 289 234
3 308 291 191
3 298 226 230
3 199 250 198
3 211 338 284
3 287 324 262
3 312 316 180
3 220 249 257
3 203 235 288
3 220 198 249
3 197 274 226
3 235 212 209
3 261 205 203
3 315 158 169
3 292 263 276
3 267 319 320
3 331 218 192
3 245 217 317
3 309 237 277
3 282 266 214
3 273 252 187
3 239 328 223
3 179 304 246
3 320 244 267
3 242 273 187
3 259 211 258
3 323 250 237
3 206 286 299
3 212 285 209
3 330 325 270
3 149 222 318
3 256 266 225
3 291 331 177
3 254 309 277
3 176 234 296
3 195 260 292
3 163 158 267
3 285 212 208
3 207 234 290
3 262 322 300
3 262 324 322
3 204 275 261
3 198 298 199
3 323 237 236
3 298 243 199
3 295 287 232
3 209 326 210
3 327 332 182
3 238 257 217
3 244 300 100
3 276 291 308
3 218 260 194
3 189 194 268
3 266 282 178
3 278 255 277
3 310 334 248
3 239 248 65
3 181 253 79
3 325 316 312
3 307 260 195
3 201 278 277
3 175 286 195
3 183 335 281
3 289 212 213
3 299 296 269
3 278 201 329
3 185 259 228
3 301 281 273
3 237 250 201
3 287 311 324
3 289 207 208
3 314 211 184
3 259 184 211
3 250 323 249
3 230 243 298
3 204 261 203
3 130 182 181
3 198 250 249
3 228 224 185
3 332 227 182
3 284 258 211
3 220 221 197
3 200 221 258
3 179 225 219
3 321 190 214
3 291 263 331
3 306 330 270
3 308 191 190
3 194 260 307
3 319 307 229
3 333 325 312
3 310 166 334
3 277 237 201
3 285 329 199
3 305 294 216
3 176 233 234
3 217 236 246
3 307 268 194
3 251 253 181
3 283 183 224
3 252 251 181
3 182 252 181
3 290 255 278
3 244 100 163
3 297 248 240
3 320 262 244
3 257 249 323
3 285 199 243
3 217 323 236
3 241 187 186
3 185 301 242
3 293 178 294
3 330 216 316
3 270 99 318
3 312 328 165
3 308 321 233
3 325 333 98
3 283 264 183
3 290 234 233
3 228 238 245
3 265 335 264
3 179 236 309
3 237 309 236
3 202 254 255
3 232 320 319
3 289 213 269
3 278 329 207
3 199 201 250
3 273 281 251
3 323 217 257
3 327 182 130
3 224 183 301
3 243 326 209
3 205 213 203
3 295 193 247
3 184 241 314
3 273 242 301
3 310 297 191
3 209 285 243
3 220 257 272
3 298 198 197
3 256 202 321
3 178 293 266
3 279 170 166
3 218 331 263
3 219 305 215
3 318 306 270
3 265 318 222
3 318 265 306
3 195 271 307
3 183 264 335
3 207 290 278
3 163 267 244
3 271 195 286
3 191 291 177
3 223 240 239
3 227 187 252
3 227 188 187
3 253 251 280
3 253 336 79
3 224 301 185
3 273 251 252
3 287 320 232
3 238 217 245
3 235 203 213
3 329 208 207
3 205 299 269
3 178 282 223
3 256 214 266
3 231 303 215
3 316 216 294
3 265 222 280
3 307 319 268
3 254 256 225
3 269 234 289
3 167 165 328
3 267 315 268
3 219 215 304
3 282 297 240
3 175 296 299
3 303 283 317
3 202 255 290
3 310 279 166
3 247 193 302
3 246 236 179
3 270 325 98
3 311 295 247
3 295 311 287
3 261 275 340
3 212 289 208
3 241 186 314
3 257 238 272
3 229 232 319
3 333 312 165
3 260 218 263
3 293 305 219
3 283 303 264
3 303 304 215
3 306 265 264
3 297 190 191
3 180 223 328
3 177 331 279
3 328 312 180
3 330 231 216
3 263 292 260
3 214 190 282
3 179 219 304
3 290 233 202
3 335 265 280
3 315 267 158
3 335 280 281
3 282 240 223
3 331 192 279
3 264 231 306
3 225 179 309
3 316 294 180
3 202 256 254
3 231 330 306
3 225 309 254
3 189 218 194
3 297 282 190
3 233 176 276
3 167 328 239
3 264 303 231
3 317 304 303
3 192 218 189
3 308 233 276
3 177 279 310
3 256 321 214
3 178 223 180
3 190 321 308
3 330 316 325
3 276 263 291
3 244 262 300
3 225 266 293
3 322 313 300
3 304 317 246
3 297 310 248
3 292 175 195
3 192 169 170
3 178 180 294
3 196 340 337
3 315 192 189
3 313 100 300
3 248 334 65
3 176 296 175
3 261 206 205
3 222 149 336
3 222 336 253
3 192 315 169
3 79 130 181
3 318 99 149
3 235 213 212
3 65 167 239
3 243 230 326
3 170 279 192
3 200 274 221
3 271 193 229
3 338 211 314
3 227 339 188
3 196 193 271
3 196 302 193
3 340 286 206
3 339 227 332
3 261 340 206
3 196 337 302
3 340 196 286
3 340 275 337
