OFF
341 634 0
-0.525455678565302 0.444237544479738 0.29765779898858
-0.520025614549747 0.336122275193243 0.382001290452238
-0.190005031013737 0.315839816645012 0.472851858958332
-0.246211207419485 -0.0729942006193531 0.585899875947971
-0.494752200974505 -0.210019647281802 0.498082226776268
-0.144486345335047 -0.131823789944429 0.55225014296912
-0.0959472936349438 -0.731319339438025 0.163343066870294
-0.0958433557082698 -0.797056387785959 0.0768376867973786
-0.344910917150814 -0.555726782436373 0.345392282216558
-0.510054222239206 -0.620028859710472 0.117904549707359
-0.485644108588822 -0.577982076878705 0.214713859699571
-0.4134801 -0.74172465 0
-0.331833802942163 -0.73433577756426 0.101187447022308
-0.3131997 -0.78771315 0
-0.17549922628763 0.541821001902999 0.345033384421301
-0.311201500212665 0.157589232650078 0.546824353331452
-0.24720022602772 0.244115807023356 0.513760898227757
-0.108413334172394 0.469992097792328 0.38123031010243
-0.447293811038655 0.677300445127715 0.0996508492014084
-0.267157223432722 0.556100847621029 0.328837617432704
-0.441752644951881 0.529396576694243 0.283992373256432
-0.530037893172033 0.61277839224787 0.106060519412472
-0.774769956538687 -0.25839842119166 0.0993544844456846
-0.751085282999672 -0.19296397344133 0.19010795838188
-0.76106324954933 -0.0689624671634024 0.212593360295716
-0.7326516 -0.43214085 0
-0.692210088308887 -0.0565371064798667 0.325439968619377
-0.520889689454925 0.10486224087187 0.484297641555879
-0.747975879843148 0.33844528982186 0.0885389793585603
-0.75642675 0.4011519 0
-0.681732686537331 0.388369770387946 0.160736456439586
-0.627951175674085 0.480588388275695 0.145182309683139
-0.670712638284105 0.14030627459707 0.328421183482509
-0.729051350774694 0.121275943904307 0.249116112774966
-0.812109002039409 0.104208408605339 0.0955089985331776
-0.83814405 0.1668141 0
-0.592077950385519 -0.573720039975757 0.0699330951114834
-0.761869360181574 0.167356657598944 0.176345170583144
-0.727586465624862 0.278689116966187 0.17481203947384
-0.361497676375931 0.0727377310615616 0.562635536044277
-0.33298424552176 -0.319243973913234 0.525736149155613
-0.23041946302184 -0.295422289799658 0.537378092397023
-0.570678032611766 -0.339368534837982 0.36930993974176
-0.238398058834633 0.482189751235987 0.387122977149397
-0.402546748357557 -0.217296114254841 0.544973252038273
-0.712753200961608 -0.310501460267769 0.185092546050258
-0.724586354242719 -0.373378146705087 0.10065688712745
-0.0779417204271011 -0.572639163499591 0.308115030222195
-0.152206223450426 -0.0226944918194889 0.560375380179821
-0.450535221950972 -0.531225117449376 0.307993975465609
-0.455629589733556 -0.100683939820357 0.543966092913242
-0.8278539 -0.2063916 0
-0.217661239846884 -0.78861112308448 0.0659842071891269
-0.549303518125861 -0.490142144867611 0.254506510755619
-0.359350421189755 0.670656540178806 0.178314322728894
-0.84977715 -0.08302338 0
-0.250958701307875 -0.396552156293005 0.48972370428635
-0.282264566812361 0.72033008376116 0.151120284712999
-0.505138216898918 0.228733501467744 0.451710294543809
-0.610236217288919 0.250132926842782 0.352870118215621
-0.788508604448772 0.22465787077637 0.0921613578872157
-0.577209211510426 -0.227823986066123 0.422329193449921
-0.638580293530093 -0.14284111054553 0.38186856546691
-0.588856261094775 -0.40795567557118 0.290285466155595
-0.0673819844666434 0.0287771021481892 0.504640640635783
-1.25583827557376e-05 0.0848809268062686 0.432011909315928
-0.149347343298237 0.0720452644421136 0.545884334619145
-0.439659491619628 -0.689312661679804 0.0793456101778621
-0.411002678823508 -0.659125979132208 0.166097891108512
-0.814877716187556 -0.0181082445421388 0.104840492579892
-0.0859952211632406 0.751490163210541 0.146158712688628
-0.50834544643271 -0.443758712559266 0.347274227182756
-0.513759029386992 -0.298710790744058 0.44595383401799
-0.4310295 0.74390415 0
-0.0815861771425154 0.136741006832099 0.496430296021304
-0.696238902886179 -0.248031541626268 0.256409604487279
-0.704934453140132 -0.1557150846062 0.285910959885675
-0.190948366965811 -0.685069771199065 0.229206020836323
-0.209812779099554 -0.74372170750167 0.146497361064536
0.000118367586380844 -0.681148296190511 0.159737267017819
-0.0857724618388621 -0.656337630360322 0.239509874323203
-0.534299675596451 -0.0179329015950621 0.493981020544036
-0.58872286458947 0.0487745659124968 0.440125888951392
-0.45028969478533 0.0276936658668544 0.541074604611653
-0.646934095456943 -0.333710352165765 0.275242031711474
-0.662772943745045 -0.475866854198356 0.0950680827335244
-0.580725571831215 -0.528230021640519 0.162024764537681
-0.347777226044478 0.508972039439315 0.347918339106289
-0.69320662440761 0.448617399351802 0.0764117919337064
-0.155099060202974 0.797360941557315 0.082706873176704
-0.328767848661444 0.41696252939071 0.417933544610879
-0.278412533817855 -0.489998013281601 0.424470968970346
-0.166094793466326 -0.533582010497244 0.377067862083411
-0.355509228203255 -0.0279307377846296 0.579581751579288
-0.111656563851646 0.674428085924133 0.233230015852455
-0.20377072714904 0.616587420912013 0.287412459140539
-0.656958196521129 0.321614045242318 0.251957231879416
-0.0689313734316611 -0.391756145552925 0.417905735872126
-6.68277868118709e-05 -0.32250606645745 0.368797685558106
6.72645379812336e-05 -0.416205856832132 0.329376818247875
4.06794266644931e-05 0.78247289871422 0.0831351705741552
-0.447392551039179 0.60712029591247 0.196198544580908
-0.646232661155207 -0.421768194990156 0.195024721490014
-0.304410510181713 -0.684823798224801 0.200875906363119
-0.78853125 -0.32398155 0
-0.69221055 0.50605935 0
-0.418430663832194 0.331388363163555 0.442615688061793
-0.617837739047329 -0.0445317799171899 0.418477954975772
-0.655531810356306 0.0455329597372264 0.369955550735257
-0.0976331725751751 0.357509352589725 0.430504078153326
-0.1708753622836 -0.615130497931185 0.304801478736764
-0.277563944347539 -0.628005012735534 0.286187765932726
-0.25334949385878 0.04989104091849 0.576508229034107
-0.404070134042213 -0.475536854811614 0.396478765413816
-0.6675468 -0.52480365 0
-0.774511784000494 0.0505994982705703 0.186351533429907
-0.543322399246257 0.532758593912894 0.194302621767155
-0.25535594178746 0.774617861106464 0.0833713494087621
-0.8051427 0.2885373 0
-0.695438062536658 0.217888255819185 0.262201596900065
-0.595590699510667 0.146920122407025 0.410361061623098
-0.302039479360973 0.329231733677463 0.472137671504818
-0.433212769469706 0.43232117368678 0.37016236724397
-0.340001699592546 -0.136111644929845 0.578997908355856
-0.231101989076043 -0.185362117530914 0.571038269431853
-0.356460965484462 0.733630033050635 0.0879554024931493
-0.590088050357496 0.354906554808949 0.306430833294748
-0.191568558589044 0.156946800306537 0.537520173650602
-0.8030678010893 -0.136931576372977 0.105881271839341
-0.606269715430844 0.430718345592882 0.226521874414825
6.84092190385124e-05 -0.771157669038951 0.0797891748910198
-0.0632263852761071 0.816194231192293 0.0616271704852903
-0.383614827142567 -0.611834834282171 0.258059310663586
-0.5204607 0.6851457 0
-0.361404003550993 -0.407723062515668 0.467837142155929
-0.431294031750044 -0.312124683272767 0.494513845830237
-0.308733055694867 -0.232827283533282 0.561275907915881
-0.162341995325285 -0.449173296264695 0.437984247038281
-0.337378476281873 0.603075231179458 0.268374121871646
-0.378329174263471 0.244621989122359 0.500782344949648
-0.557447900227559 -0.124270051083442 0.469979728870609
-0.11015452387896 0.244532833946015 0.479746442295567
-0.32692635 0.79463595 0
-0.0623899312119713 -0.18311208203002 0.487008541546568
-0.52215375 -0.66999225 0
-0.0932678390227968 0.578428491599596 0.30795280438492
-0.140570710504148 -0.242912855125988 0.525949895821359
-0.468763978257814 -0.388307184334144 0.4258257035931
-0.0739496324935154 -0.48447329555157 0.368552676147473
0.000127060032047675 -0.506731665145625 0.281367587065674
-0.245862152455475 0.673722178313251 0.223937748826472
-0.185108159361216 0.735640141437356 0.162640413932643
-0.42988812221221 0.147613317667413 0.5212721132928
-0.102596805 0.8539986 0
-0.642616597174283 -0.244635203732867 0.338505353272865
-0.2189496 0.83105955 0
-0.0636896342607454 -0.29017595995686 0.457362750327099
-0.85310445 0.04052451 0
-0.000127674045314045 0.605951952679641 0.237231834865684
-0.0645000261502232 -0.0764850181264538 0.503935123809765
-0.721335727227768 0.0331642021300175 0.280683402780806
-0.14773740077225 -0.351265947669659 0.487196349737967
-0.20817115659401 0.401353210706229 0.433895373519245
5.19350452856224e-05 0.691534471650639 0.168335545056005
-0.109720695 -0.84046455 0
-2.20152592192354e-05 -0.120755385886602 0.419846576886023
-3.08151533486247e-06 0.291467107343653 0.404307803804002
-1.7440913122043e-05 -0.0195033447710177 0.42996200513029
-0.248881021355953 -0.567282190168484 0.354958001629658
-3.25134138627094e-05 0.503089171930125 0.306064078155064
-2.80897727234752e-06 0.399100019667952 0.362171575849508
-0.6055545 0.6085638 0
-0.59755425 -0.6029847 0
-0.21845625 -0.8182407 0
-0.616789510454431 0.538527803241653 0.0903060419150353
0.525457502418424 0.444136045349629 0.296931802853263
0.51998957517203 0.335778090304782 0.381388654633511
0.190011423820022 0.315671860354909 0.472664679540909
0.246172984245074 -0.0730381293350158 0.585575494712553
0.494585247625845 -0.21035642898294 0.497208059490031
0.144469937588128 -0.131730549711768 0.552082201435102
0.0961618116541297 -0.731176908070363 0.163399108974825
0.095944165311075 -0.796974793516529 0.0768717532177501
0.345746023131238 -0.553786727884194 0.346471395744347
0.510149200595875 -0.619601421053129 0.118015141104581
0.485838310921617 -0.577125914411975 0.214950765955629
0.4134801 -0.74172465 0
0.331946181716033 -0.734076196221393 0.101271350361892
0.3131997 -0.78771315 0
0.175578292483451 0.541536597225239 0.345048031472896
0.311150853334243 0.157363829466701 0.546446348496
0.247185731546127 0.243922498198137 0.513483745552911
0.108421380205607 0.469793343328683 0.381220441642733
0.447625655238918 0.676737906970857 0.0998487766037134
0.267327692590381 0.555801722381785 0.328754112179212
0.441987812139778 0.529075021978857 0.283538020046241
0.530495970587656 0.611739499366417 0.106548366500362
0.774639188462549 -0.258043190091074 0.0993350722503911
0.750773400679732 -0.192272358910731 0.190042975371891
0.760506267810669 -0.0688644392401042 0.212492355513496
0.7326516 -0.43214085 0
0.691586492633603 -0.0568878837586887 0.324949479841899
0.520743143014545 0.10434939108482 0.483624055372058
0.747743497616651 0.338274325838656 0.0886147619383319
0.75642675 0.4011519 0
0.681792757620474 0.387247118386777 0.160855248519871
0.628312218640558 0.4791845543028 0.145550908664188
0.670336068652036 0.139975333091626 0.327765184448435
0.728498404683593 0.121642480704509 0.248677843246329
0.811838928972261 0.104540111780766 0.0954004500128054
0.83814405 0.1668141 0
0.59210019149981 -0.573471832507915 0.0699749970163988
0.761216144200668 0.168498514193272 0.176039724074395
0.726896376738733 0.279397455051527 0.17454503534788
0.361417262216706 0.0724884542254021 0.562170819101579
0.33308055903722 -0.319157860315583 0.525259658801476
0.230507493143865 -0.295169099393533 0.537177947279452
0.570647114376853 -0.337746959529792 0.36929357483972
0.238484975497885 0.481930667374962 0.38699884404496
0.402486408646268 -0.217474895834245 0.544318177687436
0.712605285642405 -0.309704225636016 0.185072692872166
0.724528523211042 -0.372975360046975 0.100664609214759
0.0782531511418026 -0.572581613820062 0.308102970937486
0.152172388823795 -0.0227180668375581 0.560172315746512
0.450800420405627 -0.529912931224864 0.308406363911617
0.45549878750088 -0.100973259334144 0.543275737738103
0.8278539 -0.2063916 0
0.217726568690605 -0.78850044272145 0.0660159762252481
0.549468205172544 -0.48899331379609 0.254702946127498
0.359732332748841 0.670115972651214 0.178412172090957
0.84977715 -0.08302338 0
0.251288713934346 -0.396175444496147 0.489596808741142
0.282489841020236 0.72011740097182 0.151084442550494
0.505049760473983 0.228277388252529 0.451117014498784
0.610175384926094 0.249464452573649 0.35218007444496
0.788187653722811 0.224988735881686 0.0920561127879994
0.576870016962729 -0.228381589640199 0.421282998063633
0.638254614545986 -0.142811171434478 0.38096920569226
0.588925337537383 -0.406600071104014 0.290370911093217
0.067353637355171 0.0287583770707299 0.504537526323436
0.149312340818931 0.0719727215611434 0.545685653596897
0.439738224694875 -0.68906057271692 0.079422635425332
0.411195726196474 -0.658566118301952 0.16628717750082
0.814621341638559 -0.0179421029943335 0.104766023262445
0.0861448165427085 0.751584947340976 0.146057145131261
0.508757979974748 -0.441944727035762 0.347564325665776
0.513650411535001 -0.298845844293146 0.444983553066716
0.4310295 0.74390415 0
0.0815644169776705 0.136687691371697 0.496314697243201
0.695976838887254 -0.24683372314228 0.256337811022766
0.704471605991045 -0.154261484977511 0.285811548574832
0.19127326784833 -0.684702279301231 0.229352876457856
0.209999132306359 -0.743467435701183 0.14659179688535
0.0860703424078807 -0.656188162505478 0.239560637183869
0.534119413381491 -0.0184285110840596 0.493190208784533
0.588524542564974 0.0480224220930759 0.439317960783674
0.450166732648095 0.027344968029269 0.540463119332305
0.646823571129058 -0.332438659086025 0.275220754079579
0.662769535854395 -0.475498814406736 0.095102277164138
0.580798258547177 -0.527572359077001 0.162135063525323
0.347937553733056 0.508653569992741 0.347672104721924
0.693273039300871 0.448052209491032 0.076531656185759
0.155184844187375 0.797355335360204 0.0826481292493753
0.328827950366295 0.416691344389755 0.417639667519298
0.27913919389446 -0.489664521711676 0.424194373484684
0.166456134133314 -0.533529680776336 0.37693379035524
0.355430129735769 -0.0281237837788683 0.579099360601853
0.112031283637444 0.674931830326295 0.232808705913521
0.203965044473096 0.616419454256925 0.287391766500091
0.656715293833939 0.321727875091167 0.251130389877776
0.0691034273461934 -0.392283537077739 0.41772474876903
0.448356064665492 0.605578479574851 0.196747869710586
0.646224215465233 -0.420904588469239 0.195079709687032
0.304701215178885 -0.684285377352958 0.201091278871709
0.78853125 -0.32398155 0
0.69221055 0.50605935 0
0.418422292609337 0.331068760789981 0.442158261331049
0.617628995725249 -0.0452154462369978 0.417461026410854
0.655312185296201 0.0441468815763833 0.36913371782902
0.0976419484021627 0.357398846978137 0.430425042635283
0.171313957178304 -0.614797930079392 0.304896639457468
0.278086315385223 -0.627211102816887 0.286538214941804
0.2533002444696 0.0497570447693105 0.576180878948063
0.404114701862501 -0.475288792792448 0.39591210749673
0.6675468 -0.52480365 0
0.774038237728545 0.0509431405303648 0.186138741315732
0.543720076261501 0.531646402820006 0.194420853703892
0.255464477659057 0.77452621288744 0.0833296884717096
0.8051427 0.2885373 0
0.694844282696388 0.218624790475865 0.261497334453037
0.595406494838603 0.146238080068133 0.409653536564926
0.302045378238354 0.328986356766175 0.471831666230019
0.43328179418599 0.432040643849451 0.369694384012106
0.339952136050045 -0.136207811285231 0.578518923033772
0.231104711842782 -0.185269954865686 0.570760028785579
0.356631583348576 0.733387610343796 0.0879896550187844
0.589985119924919 0.35467855975193 0.305714275032989
0.191541030019481 0.15681821217378 0.53728298458499
0.802840751102389 -0.136709400990128 0.105834893729615
0.606162090366642 0.430625389227601 0.225841648037342
0.063288716556457 0.816213068552956 0.0615962167483238
0.384003967583094 -0.610835179616069 0.258475821992877
0.5204607 0.6851457 0
0.361738284601204 -0.407249497806438 0.467439617207226
0.431192442240697 -0.312614413650709 0.493557010232435
0.308746766085402 -0.232795207357203 0.560855435326378
0.162762328095363 -0.449738772517778 0.437543141476814
0.33771825484916 0.602590721183237 0.268331267568824
0.378284979006559 0.244321290898174 0.500351666214037
0.557203445931606 -0.124654899651367 0.469074644635456
0.11015018401584 0.244439989180755 0.479618798666817
0.32692635 0.79463595 0
0.0623669426140293 -0.182928710875943 0.486974160501595
0 0.8625 0
0.52215375 -0.66999225 0
0.0932126932333901 0.577912491782225 0.308242314130749
0.140586137586432 -0.242597721082729 0.525883249202466
0.469164127377706 -0.386952760805214 0.425600575501136
0.0742157167921588 -0.48464869510649 0.368439338848245
0.246144606519601 0.673558854215706 0.223831181428569
0.185310728218363 0.735647995719866 0.162499322554358
0.42979595114956 0.147263165271646 0.52074103421178
0.102596805 0.8539986 0
0.642394572057324 -0.242885940381932 0.338394000980161
0.2189496 0.83105955 0
0.0636490667254314 -0.28953568526595 0.457503949947232
0.85310445 0.04052451 0
0 -0.84955635 0
0.0644737027361263 -0.0764457843516712 0.503848277887618
0.720691357548679 0.0331204008138733 0.280394001672932
0.147809138825994 -0.350633081585432 0.487342448637379
0.208202381002802 0.401147907863975 0.433734840880067
0.109720695 -0.84046455 0
-3.28201363366132e-05 -0.22255166827885 0.399556257254307
-6.81329583905139e-06 0.189805100174677 0.425251275602971
0.249722102505878 -0.566675399269082 0.355087939956457
0.00014060916952385 -0.59513696835171 0.224712983568942
0.6055545 0.6085638 0
0.59755425 -0.6029847 0
0.21845625 -0.8182407 0
0.616991159700567 0.537825185117559 0.0904783609390809
3 0 1 122
3 78 52 7
3 101 21 116
3 45 23 22
3 152 58 27
3 136 124 123
3 60 118 35
3 53 63 102
3 28 29 118
3 66 64 74
3 102 85 86
3 26 160 24
3 97 99 98
3 41 136 40
3 125 18 54
3 9 10 86
3 22 104 46
3 46 102 45
3 111 77 110
3 54 57 125
3 80 47 110
3 116 129 0
3 9 67 68
3 106 122 1
3 59 126 96
3 72 42 147
3 71 53 49
3 51 22 128
3 129 31 30
3 68 10 9
3 53 102 86
3 35 34 60
3 44 123 50
3 40 56 41
3 30 38 96
3 111 8 132
3 25 114 85
3 49 113 71
3 33 115 160
3 138 54 101
3 46 85 102
3 68 67 12
3 145 95 14
3 81 82 107
3 2 16 141
3 147 71 113
3 95 94 150
3 89 117 151
3 12 11 13
3 32 59 119
3 139 16 121
3 128 55 51
3 24 23 76
3 36 114 172
3 117 89 155
3 143 5 146
3 45 84 75
3 28 118 60
3 45 75 23
3 22 51 104
3 60 34 37
3 88 28 30
3 145 169 158
3 122 106 90
3 94 151 150
3 162 17 43
3 71 147 42
3 140 107 62
3 112 39 93
3 103 12 78
3 64 48 159
3 4 72 135
3 151 94 70
3 68 12 103
3 86 85 36
3 154 62 76
3 31 129 116
3 37 34 115
3 161 97 156
3 149 148 47
3 83 50 93
3 121 2 162
3 81 107 140
3 1 126 59
3 20 122 87
3 163 94 158
3 115 33 37
3 32 120 59
3 89 131 153
3 89 153 155
3 29 88 105
3 23 24 128
3 154 61 62
3 128 24 69
3 125 57 117
3 34 35 157
3 327 7 164
3 63 42 84
3 70 100 131
3 106 139 121
3 43 19 87
3 14 95 19
3 93 3 112
3 108 107 82
3 141 74 334
3 64 65 74
3 6 79 80
3 156 143 146
3 138 20 87
3 26 107 108
3 0 20 116
3 8 111 168
3 119 38 37
3 129 96 126
3 108 160 26
3 10 53 86
3 132 103 111
3 62 26 76
3 117 155 142
3 119 33 32
3 144 9 36
3 86 36 9
3 76 75 154
3 55 128 69
3 29 28 88
3 130 6 7
3 23 75 76
3 53 10 49
3 164 7 52
3 114 36 85
3 45 22 46
3 25 85 46
3 4 44 50
3 152 39 15
3 121 162 90
3 137 97 161
3 139 15 16
3 19 138 87
3 150 54 138
3 333 143 156
3 141 334 166
3 107 26 62
3 115 24 160
3 136 41 124
3 1 59 58
3 42 72 61
3 138 19 95
3 77 6 80
3 113 49 8
3 78 6 77
3 7 6 78
3 120 108 82
3 70 163 100
3 127 66 74
3 151 70 89
3 84 154 75
3 115 69 24
3 42 61 154
3 67 11 12
3 10 68 132
3 123 124 3
3 161 146 41
3 97 148 99
3 143 165 159
3 139 58 152
3 156 98 333
3 113 8 91
3 120 58 59
3 53 71 63
3 92 91 168
3 4 140 61
3 62 61 140
3 27 82 81
3 57 150 151
3 119 96 38
3 108 32 160
3 24 76 26
3 103 77 111
3 154 84 42
3 327 130 7
3 49 132 8
3 69 34 157
3 30 28 38
3 125 73 18
3 9 144 67
3 103 132 68
3 141 16 127
3 34 69 115
3 45 102 84
3 128 22 23
3 83 152 27
3 3 93 123
3 109 166 170
3 43 90 162
3 44 40 136
3 148 97 137
3 92 47 148
3 148 137 92
3 20 138 101
3 8 168 91
3 32 108 120
3 163 70 94
3 101 116 20
3 16 2 121
3 48 64 66
3 52 78 12
3 52 12 13
3 80 110 77
3 80 79 336
3 49 10 132
3 103 78 77
3 117 57 151
3 63 71 42
3 60 38 28
3 160 32 33
3 30 96 129
3 3 48 112
3 83 93 39
3 56 40 134
3 146 124 41
3 92 110 47
3 138 95 150
3 81 50 83
3 96 119 59
3 167 159 165
3 94 95 145
3 44 135 40
3 112 66 127
3 0 129 126
3 134 147 113
3 27 120 82
3 141 166 109
3 73 133 18
3 72 4 61
3 97 98 156
3 142 73 125
3 125 117 142
3 88 174 105
3 37 33 119
3 67 144 11
3 84 102 63
3 54 150 57
3 333 165 143
3 87 90 43
3 123 44 136
3 113 91 134
3 134 40 135
3 137 91 92
3 127 16 15
3 5 159 48
3 2 109 162
3 159 5 143
3 161 41 56
3 90 87 122
3 39 112 15
3 4 135 44
3 120 27 58
3 168 110 92
3 145 158 94
3 168 111 110
3 112 48 66
3 162 109 17
3 91 137 56
3 50 140 4
3 146 5 124
3 27 81 83
3 56 137 161
3 50 81 140
3 14 19 43
3 127 15 112
3 58 106 1
3 167 64 159
3 91 56 134
3 147 134 135
3 17 14 43
3 139 106 58
3 2 141 109
3 83 39 152
3 3 5 48
3 15 139 152
3 161 156 146
3 106 121 90
3 70 131 89
3 50 123 93
3 153 131 313
3 135 72 147
3 127 74 141
3 122 20 0
3 17 170 169
3 3 124 5
3 21 171 174
3 145 14 17
3 313 131 100
3 74 65 334
3 1 0 126
3 88 30 31
3 47 336 149
3 47 80 336
3 17 169 145
3 79 6 130
3 148 149 99
3 60 37 38
3 65 64 167
3 69 157 55
3 170 17 109
3 25 46 104
3 101 54 18
3 172 144 36
3 52 13 173
3 21 101 18
3 21 18 133
3 174 31 116
3 173 164 52
3 88 31 174
3 21 133 171
3 174 116 21
3 174 171 105
3 175 292 176
3 252 182 227
3 271 286 196
3 220 197 198
3 321 202 233
3 305 293 294
3 235 210 288
3 228 272 238
3 203 288 204
3 240 248 239
3 272 259 258
3 201 199 329
3 270 98 99
3 216 215 305
3 295 229 193
3 184 259 185
3 197 221 274
3 221 220 272
3 281 280 251
3 229 295 232
3 253 280 222
3 286 175 299
3 184 242 241
3 276 176 292
3 234 269 296
3 246 317 217
3 245 224 228
3 226 298 197
3 299 205 206
3 242 184 185
3 228 259 272
3 210 235 209
3 219 225 293
3 215 216 231
3 205 269 213
3 281 301 183
3 200 258 284
3 224 245 283
3 208 329 285
3 307 271 229
3 221 272 258
3 242 187 241
3 315 189 268
3 254 277 255
3 177 310 191
3 317 283 245
3 268 319 267
3 262 320 287
3 187 188 186
3 207 289 234
3 308 291 191
3 298 226 230
3 199 250 198
3 211 338 284
3 287 324 262
3 312 316 180
3 220 249 257
3 203 235 288
3 220 198 249
3 197 274 226
3 235 212 209
3 261 205 203
3 315 158 169
3 292 263 276
3 267 319 320
3 331 218 192
3 245 217 317
3 309 237 277
3 282 266 214
3 273 252 187
3 239 328 223
3 179 304 246
3 320 244 267
3 242 273 187
3 259 211 258
3 323 250 237
3 206 286 299
3 212 285 209
3 330 325 270
3 149 222 318
3 256 266 225
3 291 331 177
3 254 309 277
3 176 234 296
3 195 260 292
3 163 158 267
3 285 212 208
3 207 234 290
3 262 322 300
3 262 324 322
3 204 275 261
3 198 298 199
3 323 237 236
3 298 243 199
3 295 287 232
3 209 326 210
3 327 332 182
3 238 257 217
3 244 300 100
3 276 291 308
3 218 260 194
3 189 194 268
3 266 282 178
3 278 255 277
3 310 334 248
3 239 248 65
3 181 253 79
3 325 316 312
3 307 260 195
3 201 278 277
3 175 286 195
3 183 335 281
3 289 212 213
3 299 296 269
3 278 201 329
3 185 259 228
3 301 281 273
3 237 250 201
3 287 311 324
3 289 207 208
3 314 211 184
3 259 184 211
3 250 323 249
3 230 243 298
3 204 261 203
3 130 182 181
3 198 250 249
3 228 224 185
3 332 227 182
3 284 258 211
3 220 221 197
3 200 221 258
3 179 225 219
3 321 190 214
3 291 263 331
3 306 330 270
3 308 191 190
3 194 260 307
3 319 307 229
3 333 325 312
3 310 166 334
3 277 237 201
3 285 329 199
3 305 294 216
3 176 233 234
3 217 236 246
3 307 268 194
3 251 253 181
3 283 183 224
3 252 251 181
3 182 252 181
3 290 255 278
3 244 100 163
3 297 248 240
3 320 262 244
3 257 249 323
3 285 199 243
3 217 323 236
3 241 187 186
3 185 301 242
3 293 178 294
3 330 216 316
3 270 99 318
3 312 328 165
3 308 321 233
3 325 333 98
3 283 264 183
3 290 234 233
3 228 238 245
3 265 335 264
3 179 236 309
3 237 309 236
3 202 254 255
3 232 320 319
3 289 213 269
3 278 329 207
3 199 201 250
3 273 281 251
3 323 217 257
3 327 182 130
3 224 183 301
3 243 326 209
3 205 213 203
3 295 193 247
3 184 241 314
3 273 242 301
3 310 297 191
3 209 285 243
3 220 257 272
3 298 198 197
3 256 202 321
3 178 293 266
3 279 170 166
3 218 331 263
3 219 305 215
3 318 306 270
3 265 318 222
3 318 265 306
3 195 271 307
3 183 264 335
3 207 290 278
3 163 267 244
3 271 195 286
3 191 291 177
3 223 240 239
3 227 187 252
3 227 188 187
3 253 251 280
3 253 336 79
3 224 301 185
3 273 251 252
3 287 320 232
3 238 217 245
3 235 203 213
3 329 208 207
3 205 299 269
3 178 282 223
3 256 214 266
3 231 303 215
3 316 216 294
3 265 222 280
3 307 319 268
3 254 256 225
3 269 234 289
3 167 165 328
3 267 315 268
3 219 215 304
3 282 297 240
3 175 296 299
3 303 283 317
3 202 255 290
3 310 279 166
3 247 193 302
3 246 236 179
3 270 325 98
3 311 295 247
3 295 311 287
3 261 275 340
3 212 289 208
3 241 186 314
3 257 238 272
3 229 232 319
3 333 312 165
3 260 218 263
3 293 305 219
3 283 303 264
3 303 304 215
3 306 265 264
3 297 190 191
3 180 223 328
3 177 331 279
3 328 312 180
3 330 231 216
3 263 292 260
3 214 190 282
3 179 219 304
3 290 233 202
3 335 265 280
3 315 267 158
3 335 280 281
3 282 240 223
3 331 192 279
3 264 231 306
3 225 179 309
3 316 294 180
3 202 256 254
3 231 330 306
3 225 309 254
3 189 218 194
3 297 282 190
3 233 176 276
3 167 328 239
3 264 303 231
3 317 304 303
3 192 218 189
3 308 233 276
3 177 279 310
3 256 321 214
3 178 223 180
3 190 321 308
3 330 316 325
3 276 263 291
3 244 262 300
3 225 266 293
3 322 313 300
3 304 317 246
3 297 310 248
3 292 175 195
3 192 169 170
3 178 180 294
3 196 340 337
3 315 192 189
3 313 100 300
3 248 334 65
3 176 296 175
3 261 206 205
3 222 149 336
3 222 336 253
3 192 315 169
3 79 130 181
3 318 99 149
3 235 213 212
3 65 167 239
3 243 230 326
3 170 279 192
3 200 274 221
3 271 193 229
3 338 211 314
3 227 339 188
3 196 193 271
3 196 302 193
3 340 286 206
3 339 227 332
3 261 340 206
3 196 337 302
3 340 196 286
3 340 275 337
