OFF
341 634 0
-0.70136859430908 0.592673653011264 0.397864543187959
-0.694011056476364 0.448043102642972 0.510324463372021
-0.252922080082215 0.421977891796315 0.631616959924682
-0.328267404489032 -0.0975446171992343 0.778215576771852
-0.658546764549196 -0.279926995891484 0.6619399958903
-0.192962901301964 -0.176306516627122 0.733926024566618
-0.127343614692105 -0.974599246956178 0.218050734600641
-0.127193673877813 -1.06243524382 0.102787737226268
-0.460092646771087 -0.73731440582383 0.461817328723204
-0.680535794798968 -0.826101568480933 0.157640795612886
-0.647939126113812 -0.769324682093747 0.28689459718136
-0.5513068 -0.9889662 0
-0.44276907205475 -0.978393302951719 0.135777039520358
-0.4175996 -1.0502842 0
-0.233646084313874 0.723762862164885 0.459781995500731
-0.414825248230414 0.20985376646824 0.72868031132949
-0.329415767098002 0.325811584948033 0.685768001316915
-0.144255538085766 0.628220347829078 0.508327556575362
-0.596638233590494 0.903581859847991 0.132986394719691
-0.355924645855969 0.742851112161431 0.438606927792939
-0.589400393647273 0.706802484122786 0.379490603773006
-0.707030774479459 0.817680918852171 0.141497760507782
-1.03354840045051 -0.344502693857441 0.132846415922963
-1.00193584260238 -0.257204619299671 0.253918778055798
-1.01520735020389 -0.0923696281369024 0.284097410777251
-0.9768688 -0.5761878 0
-0.92312858316045 -0.0751907663175167 0.433833127827336
-0.694328585534746 0.13918098109314 0.645286364633222
-0.997856592258789 0.451212088825087 0.118547383411112
-1.008569 0.5348692 0
-0.910231544836138 0.517109528432819 0.214987933066398
-0.83808949712666 0.640940521125822 0.194039710795933
-0.895089905531254 0.184656891885516 0.438592912219169
-0.972828108547759 0.160545974501163 0.332866415544851
-1.08345299446571 0.138802633032086 0.127755422187438
-1.1175254 0.2224188 0
-0.789731498029718 -0.764800274528072 0.0934336828564039
-1.0167132970109 0.222583945637889 0.235746945959867
-0.970813924643531 0.372164896092511 0.233524302769539
-0.481656864583009 0.0965210788280894 0.7486475796536
-0.443287652755153 -0.424294649497158 0.698166358348679
-0.306973525463442 -0.393345617629257 0.713473031329774
-0.760704457312258 -0.450494613802242 0.492113734266979
-0.317552280948622 0.644141869447242 0.516950638047977
-0.535778800251281 -0.289165439125385 0.723664699826035
-0.950825419176913 -0.413557216571019 0.247174321210526
-0.966592201908368 -0.497702996419079 0.134572616912739
-0.103643623886219 -0.763237393525145 0.410336079612087
-0.203391792043502 -0.0307605093983331 0.744874140760904
-0.600643394258399 -0.706372199279656 0.410990310055728
-0.606581073099564 -0.134299595365038 0.723006337987581
-1.1038052 -0.2751888 0
-0.290147524276953 -1.0509406376453 0.0888545496102632
-0.732647699110483 -0.652304092164805 0.339575382455241
-0.479215067341247 0.894968578579509 0.23803911247573
-1.1330362 -0.11069784 0
-0.334027780026851 -0.527477654172877 0.650478374771392
-0.376301606359031 0.960794878812844 0.201695608144007
-0.673859488562441 0.304513311423452 0.602773675468615
-0.814371332886528 0.332751140092339 0.471290459792363
-1.05196104642302 0.299559613910933 0.123266799372692
-0.768702485793855 -0.304223280713781 0.561691046260615
-0.850996673984203 -0.191154884649709 0.508426962082565
-0.785237389563079 -0.542658745714336 0.387081952584003
-0.0900936441057777 0.0379579141468416 0.672155548800582
-0.000194783397065278 0.113224590558257 0.576334525353173
-0.19944056745244 0.0956759736497736 0.726380346604544
-0.586588796445478 -0.918587810349658 0.106246787589363
-0.548494702847559 -0.877624910076308 0.222391783447085
-1.08712475585233 -0.0242875443991306 0.140265214651833
-0.114306497094915 1.00275465990428 0.194072651243127
-0.677520150017646 -0.590280673244957 0.462552528389401
-0.683913749726591 -0.398243603416903 0.592687811770481
-0.574706 0.9918722 0
-0.10867317331506 0.182481284226903 0.661862636628389
-0.928521383752104 -0.330114948088805 0.342130058001242
-0.940006630558166 -0.207161543272011 0.38145739571438
-0.254207708373027 -0.911607240409666 0.30685582729248
-0.279538164940532 -0.990384845361416 0.196737667270366
8.86058104259111e-05 -0.90993488133682 0.211928968103559
-0.113930086227218 -0.874610313878604 0.319256654814314
-0.711728055904596 -0.0243612311473502 0.657437853530672
-0.784778661481582 0.0642912911739795 0.586364017398893
-0.59982522828477 0.0364769461158859 0.719896794487055
-0.862728583825033 -0.443905099941505 0.367149809502331
-0.884071256993091 -0.63434984346124 0.127067467488646
-0.774730101448216 -0.703669512887633 0.216409346587478
-0.463788577404182 0.679693898963718 0.464846424228549
-0.924907169339848 0.598011332527449 0.102193529029169
-0.206558351246027 1.06321052719534 0.110237444611154
-0.438429820039385 0.556757250385847 0.558606896029839
-0.3704185911807 -0.652518365320681 0.563865986228945
-0.221055781388158 -0.709680702645755 0.502207161169333
-0.473497657403522 -0.0375097700674717 0.770213392084135
-0.148482853802397 0.900282838283962 0.309961803218839
-0.271265550703015 0.823333086790032 0.382634829481396
-0.876910895495738 0.428520895124293 0.336736199179644
-0.0916798622180483 -0.522505846933179 0.556209795046631
-0.000286932614524345 -0.432439858390003 0.490789501994677
-3.15187095812029e-05 -0.557425333291341 0.438169604566961
4.2325308039009e-05 1.04490636034011 0.109551558640431
-0.596649125904334 0.810755293940924 0.261761653106472
-0.862089666597661 -0.561696150738952 0.2603607027848
-0.406143155797789 -0.911286882730705 0.269333935992479
-1.051375 -0.4319754 0
-0.9229474 0.6747458 0
-0.558287913471336 0.441995401134795 0.591265243125725
-0.823425711533577 -0.0598823210926779 0.557290030487125
-0.874368577063099 0.0596613251027007 0.493080934291541
-0.12969421168292 0.478069632757839 0.574788899492077
-0.227396195625377 -0.818141802666314 0.406968666539471
-0.370126312676008 -0.834623333707479 0.382988034180148
-0.337769623785806 0.0660844880964204 0.766715810111737
-0.537648243029999 -0.634162330570244 0.526331997996732
-0.8900624 -0.6997382 0
-1.03339476294373 0.0670478455111873 0.249088347882381
-0.72506416000402 0.711064033776139 0.259601738205762
-0.340450319006217 1.03293296386271 0.111324029670797
-1.0735236 0.3847164 0
-0.928164909236991 0.289610954180602 0.350406927105862
-0.79443736925562 0.194897271009108 0.547363787340536
-0.402725411585547 0.439505265128044 0.630783263546684
-0.578074152487743 0.576973116928894 0.494783043779621
-0.452756899646091 -0.181280316031845 0.768813186598382
-0.308074538258 -0.24701048031862 0.758183004940255
-0.475432165522642 0.978447413852968 0.117484124487441
-0.787653279088995 0.473031368884147 0.409475150492276
-0.255330505995895 0.2092080318445 0.71633057097016
-1.07131821904884 -0.182699917283504 0.141622582797071
-0.80933010033066 0.574381452605032 0.302804427711605
5.25317281370729e-05 -1.02937328467422 0.105407875859265
-0.0839097566324665 1.08870831700892 0.0817063559582114
-0.511848717614267 -0.813571591610614 0.345235903331131
-0.6939476 0.9135276 0
-0.481566650074712 -0.540392520772992 0.622759010307344
-0.573910881681425 -0.41579754614374 0.656717732518074
-0.411110732134059 -0.309716063019851 0.745008943952578
-0.215970251720327 -0.597211213990949 0.58284590658382
-0.449683966880858 0.805501172607638 0.358029024101816
-0.504607787255588 0.326071378418844 0.668305904150765
-0.742363856462161 -0.165989154487037 0.625204379632842
-0.146347004166126 0.32683097206273 0.640470491301832
-0.4359018 1.0595146 0
-0.083196727414919 -0.245813833073465 0.648086114788043
-0.696205 -0.893323 0
-0.124333341357405 0.773193972342094 0.409301585020217
-0.187524580837023 -0.324577634664004 0.698855624600543
-0.624901752497625 -0.514787264638244 0.567056195281313
-0.0983640496127396 -0.64592832260159 0.490582611697323
7.12916826454644e-05 -0.677974885047039 0.374208086463021
-0.327508970137331 0.898941799439191 0.298568247374227
-0.246494942698725 0.981160571433304 0.216694611152881
-0.573107898534443 0.196357332724959 0.694628526736335
-0.13679574 1.1386648 0
-0.856556958818165 -0.325219908792573 0.451191500866409
-0.2919328 1.1080794 0
-0.0849419327679632 -0.389461332541781 0.608089358178993
-1.1374726 0.05403268 0
-0.000250230105555483 0.811700335544686 0.314737850205053
-0.0861666538709966 -0.102907239393957 0.670907901213481
-0.962100314727425 0.0436516453778862 0.374885221270863
-0.196904894938573 -0.46917512122279 0.646989259801059
-0.277164665743438 0.53627816173773 0.579725891818569
3.82715876370624e-05 0.924867972366551 0.22280408177394
-0.14629426 -1.1206194 0
-0.000292088105689607 -0.162845006099279 0.559369494149607
-0.000139710887001544 0.390021264635303 0.538768192498989
-0.000233189726882496 -0.0268085733269886 0.573340375725692
-0.331796166601183 -0.753297476796765 0.474007503463261
-0.000147970926505093 0.673923864158357 0.40748680666123
-0.000123357261830688 0.534433420064108 0.482635509158566
-0.807406 0.8114184 0
-0.796739 -0.8039796 0
-0.291275 -1.0909876 0
-0.822894996131174 0.718282519373814 0.120645560936132
0.701053161757159 0.593255787455572 0.396796016097664
0.693635389028455 0.448398798906017 0.509513589677642
0.252666360723976 0.421962923065891 0.631440702935211
0.327924189323581 -0.0973536179548298 0.778078617231669
0.658283210124868 -0.280069256914004 0.661257728929183
0.192558268144832 -0.175893017852415 0.734012118913918
0.127509576086447 -0.974594274708114 0.218026699008572
0.127272030327531 -1.06241014036022 0.102779066224577
0.460731082989692 -0.736525264302483 0.462068470461744
0.680630375267338 -0.825761352378096 0.157692800807623
0.648166354770079 -0.768625873841448 0.287038505753382
0.5513068 -0.9889662 0
0.442861066274735 -0.978240067064679 0.135773364196565
0.4175996 -1.0502842 0
0.233582694841784 0.723473797964184 0.459851727907381
0.41449029283068 0.209866451593126 0.728350476832182
0.329120895132487 0.325823049586024 0.685510785564121
0.144049509038317 0.628029364651819 0.508358019868905
0.597136638139399 0.902791907290727 0.133345681225135
0.356009594165124 0.742611497157523 0.438534905432972
0.589528922207177 0.706740787369378 0.378845592464006
0.707746655367318 0.816183203210474 0.142302289442839
1.03341367678044 -0.344188438344677 0.132802803097654
1.00163128165255 -0.256590193338382 0.253805309267884
1.01472695172006 -0.0921006393040133 0.283857868775618
0.9768688 -0.5761878 0
0.922318499650103 -0.0763037240351916 0.433534566129678
0.693949495648384 0.138945100269104 0.644684183339559
0.997558060159228 0.451285461964471 0.118486209914117
1.008569 0.5348692 0
0.909827900651551 0.516812370644204 0.214994512688368
0.83845744615313 0.639364888728267 0.194542838255606
0.894546805871001 0.184945551092115 0.437909465749652
0.972196088306801 0.161578757660637 0.332274420046961
1.08315119093707 0.139416007297616 0.127589122918614
1.1175254 0.2224188 0
0.789753237235286 -0.764588932418265 0.0934568308583576
1.01588022409595 0.224670926053873 0.235299410014581
0.970049230744724 0.372867897949089 0.233308998943487
0.481308139356756 0.0965066704955731 0.74827011940666
0.443218662726644 -0.424430564418907 0.697824682565464
0.306847147264364 -0.392802206204758 0.713688550577352
0.760386406986858 -0.449820816758424 0.491883496067897
0.317473395068186 0.643988499008341 0.516827106352309
0.535565662479541 -0.289236222185689 0.723211378406591
0.950654157000516 -0.412906623725106 0.247120197165727
0.966520985641357 -0.49736077508656 0.134562838409139
0.103872439344665 -0.763535323177717 0.410228568875492
0.202992192183991 -0.0305890728864619 0.744820116170577
0.60109290172826 -0.705153513001576 0.411367888545917
0.606266991402915 -0.134414109275363 0.722470142534666
1.1038052 -0.2751888 0
0.290199032441248 -1.05088669694816 0.0888469490639247
0.732856693040611 -0.651224303243289 0.339785586851439
0.47974451311689 0.894255933714273 0.23825350002456
1.1330362 -0.11069784 0
0.334425567635353 -0.52718043774262 0.650718748644423
0.37659770511441 0.960552169454727 0.201667009412011
0.673467702998949 0.304585870258497 0.602133258393581
0.813822594546958 0.33337807513865 0.470403170372914
1.05156970204084 0.300131689318573 0.123108327867753
0.768301381881567 -0.304597776712377 0.560827479131388
0.850619607487873 -0.190660250592522 0.507715901343537
0.785245408680265 -0.541534593563731 0.38715638082203
0.0896700148132183 0.0380400411436143 0.672136847234686
0.199062033958969 0.0957524304909096 0.726275110181011
0.586658075424532 -0.918408674738437 0.106265068538836
0.548672438096494 -0.877250580434802 0.222439287851119
1.08687771384448 -0.023980467083494 0.140132421924147
0.114483420240118 1.00293700665895 0.193904821684815
0.678064219750358 -0.58819169609857 0.463130609807324
0.68383415100838 -0.398042308134085 0.591972102786378
0.574706 0.9918722 0
0.108307079471307 0.18251521053416 0.661800713076167
0.928234799410588 -0.329144168905429 0.342024630846433
0.939534264233109 -0.205959535227235 0.381333868995636
0.254469681265112 -0.9115817304036 0.306782353117321
0.279687767799132 -0.990296907262956 0.196715501584433
0.114156155615181 -0.874702305975564 0.31919706921101
0.711368715958398 -0.0247286724685403 0.656765439921116
0.78439001066792 0.0636014949527809 0.585683316717559
0.599472046840084 0.0363495107203351 0.719389277601062
0.86254098068976 -0.442968764538806 0.367072201014984
0.88405963846283 -0.634032971203201 0.127084966792162
0.774808800564123 -0.703099906732363 0.216485647272978
0.463823526257547 0.679547319186619 0.464537149917583
0.924877644779243 0.597567550206263 0.102299522423726
0.206663785787042 1.06322963935776 0.110147269779852
0.438279625154557 0.556731405759806 0.558255042861378
0.371590695686124 -0.6511824203711 0.564719793274216
0.221401627567987 -0.71023793795293 0.501977877213246
0.47316442394895 -0.0374929050861494 0.769869864335974
0.148975743652954 0.901178883453882 0.30925270086367
0.271420596091595 0.823220066505471 0.382633619689652
0.876311578476715 0.429695212894559 0.335553171151383
0.0917596571731439 -0.524369038874335 0.555810975649506
0.598089212457516 0.808505259519317 0.262759532653485
0.862055204638629 -0.560968842051712 0.260390154103705
0.406386543566077 -0.911049094085543 0.269318065222817
1.051375 -0.4319754 0
0.9229474 0.6747458 0
0.55800960744191 0.442080525102493 0.590719705857126
0.823101329539847 -0.0607005089114501 0.556372817917346
0.873941794267573 0.0579043079155675 0.492527535896263
0.129448293353706 0.478028243321814 0.574727355374944
0.227758664378977 -0.818377860079471 0.406759624445009
0.370551383205082 -0.834473263301286 0.382865684541804
0.337416927271175 0.0661544614260128 0.76649740067231
0.538325709853709 -0.63208114854442 0.527295685343143
0.8900624 -0.6997382 0
1.03292090626359 0.0677498836765738 0.248765301053866
0.725542855135086 0.709756158679364 0.259807902762469
0.340591680437496 1.03283483631579 0.111270833823694
1.0735236 0.3847164 0
0.927296266415316 0.29178658893828 0.349290045229036
0.794014646116584 0.194626483338139 0.54671404687164
0.402477950709834 0.43950371869358 0.630454606153969
0.577912398526675 0.577099331196762 0.494150133251342
0.452473628629773 -0.18118352774484 0.768532692684862
0.307788940401695 -0.246622058417216 0.758196289615103
0.475672227677495 0.978132587189064 0.117565800426805
0.787164226148863 0.473723066771112 0.408459071678008
0.254993634720671 0.209244492787002 0.716153239072972
1.07110608521197 -0.182444714436164 0.141531744092821
0.808819016011875 0.575164812894693 0.301735983918953
0.0839817587973919 1.08874796311955 0.0816550281660545
0.512208327859674 -0.812985408407838 0.34534454098121
0.6939476 0.9135276 0
0.481429291069232 -0.541790189431508 0.621470627380017
0.573768349514876 -0.416106859918616 0.656032772142918
0.41091240172457 -0.309551522197036 0.744837591734202
0.216582836909254 -0.599319871858697 0.581922727002721
0.450068488791473 0.804970804403667 0.35802566634939
0.504286331447614 0.326089154694827 0.66786249214959
0.741992971653939 -0.166204315289107 0.624443460193773
0.146045335754569 0.326839836134314 0.640374734243016
0.4359018 1.0595146 0
0.0826459430297578 -0.245210320631526 0.648318202054314
0 1.15 0
0.696205 -0.893323 0
0.124060394571521 0.772427751307577 0.409790865951452
0.187160243599971 -0.323645116455339 0.699262170412129
0.624715115151666 -0.515019519894604 0.566298228583047
0.0985605564092519 -0.646763471145605 0.490343843953543
0.32785415551301 0.898815594395438 0.298425685841281
0.246750454600868 0.981243496242478 0.216474850240996
0.572749228672884 0.196310783969375 0.694139137543676
0.13679574 1.1386648 0
0.856283376634122 -0.323782330332919 0.451056934178079
0.2919328 1.1080794 0
0.0843482948432284 -0.387473603763726 0.608914809065131
1.1374726 0.05403268 0
0 -1.1327418 0
0.0856838388785513 -0.102693642083696 0.670961011656017
0.961539691947375 0.0435489618016024 0.374434535226418
0.196689211838784 -0.467476743861611 0.648037375296974
0.276970230982552 0.536211753724002 0.579564037635938
0.14629426 -1.1206194 0
-0.000407151999027165 -0.300322778600603 0.531723031504512
-0.000164458623788611 0.253865334720216 0.567054454591529
0.332495636126786 -0.753874578921917 0.473285329401715
9.96690459443166e-05 -0.795607034792464 0.298671198561026
0.807406 0.8114184 0
0.796739 -0.8039796 0
0.291275 -1.0909876 0
0.823131258634446 0.717453834872414 0.120897432271432
3 0 1 122
3 78 52 7
3 101 21 116
3 45 23 22
3 152 58 27
3 136 124 123
3 60 118 35
3 53 63 102
3 28 29 118
3 66 64 74
3 102 85 86
3 26 160 24
3 97 99 98
3 41 136 40
3 125 18 54
3 9 10 86
3 22 104 46
3 46 102 45
3 111 77 110
3 54 57 125
3 80 47 110
3 116 129 0
3 9 67 68
3 106 122 1
3 59 126 96
3 72 42 147
3 71 53 49
3 51 22 128
3 129 31 30
3 68 10 9
3 53 102 86
3 35 34 60
3 44 123 50
3 40 56 41
3 30 38 96
3 111 8 132
3 25 114 85
3 49 113 71
3 33 115 160
3 138 54 101
3 46 85 102
3 68 67 12
3 145 95 14
3 81 82 107
3 2 16 141
3 147 71 113
3 95 94 150
3 89 117 151
3 12 11 13
3 32 59 119
3 139 16 121
3 128 55 51
3 24 23 76
3 36 114 172
3 117 89 155
3 143 5 146
3 45 84 75
3 28 118 60
3 45 75 23
3 22 51 104
3 60 34 37
3 88 28 30
3 145 169 158
3 122 106 90
3 94 151 150
3 162 17 43
3 71 147 42
3 140 107 62
3 112 39 93
3 103 12 78
3 64 48 159
3 4 72 135
3 151 94 70
3 68 12 103
3 86 85 36
3 154 62 76
3 31 129 116
3 37 34 115
3 161 97 156
3 149 148 47
3 83 50 93
3 121 2 162
3 81 107 140
3 1 126 59
3 20 122 87
3 163 94 158
3 115 33 37
3 32 120 59
3 89 131 153
3 89 153 155
3 29 88 105
3 23 24 128
3 154 61 62
3 128 24 69
3 125 57 117
3 34 35 157
3 327 7 164
3 63 42 84
3 70 100 131
3 106 139 121
3 43 19 87
3 14 95 19
3 93 3 112
3 108 107 82
3 141 74 334
3 64 65 74
3 6 79 80
3 156 143 146
3 138 20 87
3 26 107 108
3 0 20 116
3 8 111 168
3 119 38 37
3 129 96 126
3 108 160 26
3 10 53 86
3 132 103 111
3 62 26 76
3 117 155 142
3 119 33 32
3 144 9 36
3 86 36 9
3 76 75 154
3 55 128 69
3 29 28 88
3 130 6 7
3 23 75 76
3 53 10 49
3 164 7 52
3 114 36 85
3 45 22 46
3 25 85 46
3 4 44 50
3 152 39 15
3 121 162 90
3 137 97 161
3 139 15 16
3 19 138 87
3 150 54 138
3 333 143 156
3 141 334 166
3 107 26 62
3 115 24 160
3 136 41 124
3 1 59 58
3 42 72 61
3 138 19 95
3 77 6 80
3 113 49 8
3 78 6 77
3 7 6 78
3 120 108 82
3 70 163 100
3 127 66 74
3 151 70 89
3 84 154 75
3 115 69 24
3 42 61 154
3 67 11 12
3 10 68 132
3 123 124 3
3 161 146 41
3 97 148 99
3 143 165 159
3 139 58 152
3 156 98 333
3 113 8 91
3 120 58 59
3 53 71 63
3 92 91 168
3 4 140 61
3 62 61 140
3 27 82 81
3 57 150 151
3 119 96 38
3 108 32 160
3 24 76 26
3 103 77 111
3 154 84 42
3 327 130 7
3 49 132 8
3 69 34 157
3 30 28 38
3 125 73 18
3 9 144 67
3 103 132 68
3 141 16 127
3 34 69 115
3 45 102 84
3 128 22 23
3 83 152 27
3 3 93 123
3 109 166 170
3 43 90 162
3 44 40 136
3 148 97 137
3 92 47 148
3 148 137 92
3 20 138 101
3 8 168 91
3 32 108 120
3 163 70 94
3 101 116 20
3 16 2 121
3 48 64 66
3 52 78 12
3 52 12 13
3 80 110 77
3 80 79 336
3 49 10 132
3 103 78 77
3 117 57 151
3 63 71 42
3 60 38 28
3 160 32 33
3 30 96 129
3 3 48 112
3 83 93 39
3 56 40 134
3 146 124 41
3 92 110 47
3 138 95 150
3 81 50 83
3 96 119 59
3 167 159 165
3 94 95 145
3 44 135 40
3 112 66 127
3 0 129 126
3 134 147 113
3 27 120 82
3 141 166 109
3 73 133 18
3 72 4 61
3 97 98 156
3 142 73 125
3 125 117 142
3 88 174 105
3 37 33 119
3 67 144 11
3 84 102 63
3 54 150 57
3 333 165 143
3 87 90 43
3 123 44 136
3 113 91 134
3 134 40 135
3 137 91 92
3 127 16 15
3 5 159 48
3 2 109 162
3 159 5 143
3 161 41 56
3 90 87 122
3 39 112 15
3 4 135 44
3 120 27 58
3 168 110 92
3 145 158 94
3 168 111 110
3 112 48 66
3 162 109 17
3 91 137 56
3 50 140 4
3 146 5 124
3 27 81 83
3 56 137 161
3 50 81 140
3 14 19 43
3 127 15 112
3 58 106 1
3 167 64 159
3 91 56 134
3 147 134 135
3 17 14 43
3 139 106 58
3 2 141 109
3 83 39 152
3 3 5 48
3 15 139 152
3 161 156 146
3 106 121 90
3 70 131 89
3 50 123 93
3 153 131 313
3 135 72 147
3 127 74 141
3 122 20 0
3 17 170 169
3 3 124 5
3 21 171 174
3 145 14 17
3 313 131 100
3 74 65 334
3 1 0 126
3 88 30 31
3 47 336 149
3 47 80 336
3 17 169 145
3 79 6 130
3 148 149 99
3 60 37 38
3 65 64 167
3 69 157 55
3 170 17 109
3 25 46 104
3 101 54 18
3 172 144 36
3 52 13 173
3 21 101 18
3 21 18 133
3 174 31 116
3 173 164 52
3 88 31 174
3 21 133 171
3 174 116 21
3 174 171 105
3 175 292 176
3 252 182 227
3 271 286 196
3 220 197 198
3 321 202 233
3 305 293 294
3 235 210 288
3 228 272 238
3 203 288 204
3 240 248 239
3 272 259 258
3 201 199 329
3 270 98 99
3 216 215 305
3 295 229 193
3 184 259 185
3 197 221 274
3 221 220 272
3 281 280 251
3 229 295 232
3 253 280 222
3 286 175 299
3 184 242 241
3 276 176 292
3 234 269 296
3 246 317 217
3 245 224 228
3 226 298 197
3 299 205 206
3 242 184 185
3 228 259 272
3 210 235 209
3 219 225 293
3 215 216 231
3 205 269 213
3 281 301 183
3 200 258 284
3 224 245 283
3 208 329 285
3 307 271 229
3 221 272 258
3 242 187 241
3 315 189 268
3 254 277 255
3 177 310 191
3 317 283 245
3 268 319 267
3 262 320 287
3 187 188 186
3 207 289 234
3 308 291 191
3 298 226 230
3 199 250 198
3 211 338 284
3 287 324 262
3 312 316 180
3 220 249 257
3 203 235 288
3 220 198 249
3 197 274 226
3 235 212 209
3 261 205 203
3 315 158 169
3 292 263 276
3 267 319 320
3 331 218 192
3 245 217 317
3 309 237 277
3 282 266 214
3 273 252 187
3 239 328 223
3 179 304 246
3 320 244 267
3 242 273 187
3 259 211 258
3 323 250 237
3 206 286 299
3 212 285 209
3 330 325 270
3 149 222 318
3 256 266 225
3 291 331 177
3 254 309 277
3 176 234 296
3 195 260 292
3 163 158 267
3 285 212 208
3 207 234 290
3 262 322 300
3 262 324 322
3 204 275 261
3 198 298 199
3 323 237 236
3 298 243 199
3 295 287 232
3 209 326 210
3 327 332 182
3 238 257 217
3 244 300 100
3 276 291 308
3 218 260 194
3 189 194 268
3 266 282 178
3 278 255 277
3 310 334 248
3 239 248 65
3 181 253 79
3 325 316 312
3 307 260 195
3 201 278 277
3 175 286 195
3 183 335 281
3 289 212 213
3 299 296 269
3 278 201 329
3 185 259 228
3 301 281 273
3 237 250 201
3 287 311 324
3 289 207 208
3 314 211 184
3 259 184 211
3 250 323 249
3 230 243 298
3 204 261 203
3 130 182 181
3 198 250 249
3 228 224 185
3 332 227 182
3 284 258 211
3 220 221 197
3 200 221 258
3 179 225 219
3 321 190 214
3 291 263 331
3 306 330 270
3 308 191 190
3 194 260 307
3 319 307 229
3 333 325 312
3 310 166 334
3 277 237 201
3 285 329 199
3 305 294 216
3 176 233 234
3 217 236 246
3 307 268 194
3 251 253 181
3 283 183 224
3 252 251 181
3 182 252 181
3 290 255 278
3 244 100 163
3 297 248 240
3 320 262 244
3 257 249 323
3 285 199 243
3 217 323 236
3 241 187 186
3 185 301 242
3 293 178 294
3 330 216 316
3 270 99 318
3 312 328 165
3 308 321 233
3 325 333 98
3 283 264 183
3 290 234 233
3 228 238 245
3 265 335 264
3 179 236 309
3 237 309 236
3 202 254 255
3 232 320 319
3 289 213 269
3 278 329 207
3 199 201 250
3 273 281 251
3 323 217 257
3 327 182 130
3 224 183 301
3 243 326 209
3 205 213 203
3 295 193 247
3 184 241 314
3 273 242 301
3 310 297 191
3 209 285 243
3 220 257 272
3 298 198 197
3 256 202 321
3 178 293 266
3 279 170 166
3 218 331 263
3 219 305 215
3 318 306 270
3 265 318 222
3 318 265 306
3 195 271 307
3 183 264 335
3 207 290 278
3 163 267 244
3 271 195 286
3 191 291 177
3 223 240 239
3 227 187 252
3 227 188 187
3 253 251 280
3 253 336 79
3 224 301 185
3 273 251 252
3 287 320 232
3 238 217 245
3 235 203 213
3 329 208 207
3 205 299 269
3 178 282 223
3 256 214 266
3 231 303 215
3 316 216 294
3 265 222 280
3 307 319 268
3 254 256 225
3 269 234 289
3 167 165 328
3 267 315 268
3 219 215 304
3 282 297 240
3 175 296 299
3 303 283 317
3 202 255 290
3 310 279 166
3 247 193 302
3 246 236 179
3 270 325 98
3 311 295 247
3 295 311 287
3 261 275 340
3 212 289 208
3 241 186 314
3 257 238 272
3 229 232 319
3 333 312 165
3 260 218 263
3 293 305 219
3 283 303 264
3 303 304 215
3 306 265 264
3 297 190 191
3 180 223 328
3 177 331 279
3 328 312 180
3 330 231 216
3 263 292 260
3 214 190 282
3 179 219 304
3 290 233 202
3 335 265 280
3 315 267 158
3 335 280 281
3 282 240 223
3 331 192 279
3 264 231 306
3 225 179 309
3 316 294 180
3 202 256 254
3 231 330 306
3 225 309 254
3 189 218 194
3 297 282 190
3 233 176 276
3 167 328 239
3 264 303 231
3 317 304 303
3 192 218 189
3 308 233 276
3 177 279 310
3 256 321 214
3 178 223 180
3 190 321 308
3 330 316 325
3 276 263 291
3 244 262 300
3 225 266 293
3 322 313 300
3 304 317 246
3 297 310 248
3 292 175 195
3 192 169 170
3 178 180 294
3 196 340 337
3 315 192 189
3 313 100 300
3 248 334 65
3 176 296 175
3 261 206 205
3 222 149 336
3 222 336 253
3 192 315 169
3 79 130 181
3 318 99 149
3 235 213 212
3 65 167 239
3 243 230 326
3 170 279 192
3 200 274 221
3 271 193 229
3 338 211 314
3 227 339 188
3 196 193 271
3 196 302 193
3 340 286 206
3 339 227 332
3 261 340 206
3 196 337 302
3 340 196 286
3 340 275 337
