OFF
341 634 0
-0.906526340653246 0.756522127980928 0.534637883468513
-0.896566654201927 0.573507891003522 0.677581476483132
-0.319904098313847 0.529918558282417 0.817163662020411
-0.417581600640209 -0.119412765339151 1.00717385358001
-0.851189009711449 -0.351983110329176 0.86958161840908
-0.243214947799758 -0.217207927873248 0.947807587987446
-0.162698332145985 -1.22718779089288 0.286329703966538
-0.16237763581493 -1.33540161562789 0.135615077743094
-0.594172368653744 -0.93961757664843 0.610641852128886
-0.871324797074521 -1.05267983677299 0.213525350432357
-0.836612977831977 -0.985194281570682 0.385395601754054
-0.6891335 -1.23620775 0
-0.563757128753443 -1.24024674579889 0.181739503705502
-0.5219995 -1.31285525 0
-0.296168417919447 0.906871059844558 0.605765777725397
-0.529334346126907 0.267079576737834 0.946253374599648
-0.418455967644897 0.411435367520265 0.888915735797494
-0.180277661551937 0.781306478739173 0.655925077956169
-0.761074337804906 1.14382660810306 0.184510682357948
-0.456078924401586 0.935674748334165 0.585981721690179
-0.760989528729874 0.898124715164974 0.512000292810807
-0.903985350938029 1.03617771863547 0.196965863647469
-1.32197756645408 -0.437828633890355 0.180309870510243
-1.29486732037135 -0.327377353319544 0.343185108504418
-1.31383937130181 -0.11587904712718 0.383392869399691
-1.221086 -0.72023475 0
-1.19795565379662 -0.093682802988989 0.580085825430519
-0.896165950788987 0.1802645452693 0.847983397154166
-1.2732802280943 0.574123782921984 0.162409191472012
-1.26071125 0.6685865 0
-1.17122981024187 0.661107245108621 0.293824621731188
-1.07653268128417 0.815736716959344 0.266857040960398
-1.15973493629553 0.243970494764195 0.585411263389901
-1.25907118527374 0.212119132951751 0.447730777927295
-1.38437669745708 0.178320272591789 0.17378272045248
-1.39690675 0.2780235 0
-1.00441957096655 -0.969384469250816 0.127399268913956
-1.31049220280467 0.289907208733533 0.319367430993632
-1.25096456631321 0.478647905901071 0.317442311125115
-0.616558438343932 0.124884379048458 0.973449963101609
-0.569983073239817 -0.532824186478854 0.911779271188084
-0.392543237866317 -0.491046053923211 0.927890691721656
-0.987776894071071 -0.573847761443951 0.655316388794782
-0.40486173483961 0.810837142950676 0.680524871291109
-0.689319319037833 -0.362623937531534 0.944893085324668
-1.22842841304647 -0.528923063256027 0.334068852925026
-1.23676372540926 -0.633399768614847 0.182597671869048
-0.132365835787024 -0.957822090225604 0.535222403584275
-0.255582217448157 -0.0353536538798355 0.960277742150716
-0.777690009055738 -0.903340422673027 0.547780740395944
-0.781103938598124 -0.166849112563889 0.94486571023894
-1.3797565 -0.343986 0
-0.367513949270163 -1.32435335512177 0.117080552170071
-0.949377560396398 -0.835952312116963 0.456127859961604
-0.615360786166948 1.13518996417478 0.325892710249341
-1.41629525 -0.1383723 0
-0.428968553227661 -0.66145375586723 0.850845629957833
-0.480996300624433 1.21688093717023 0.275292788829415
-0.869387224853974 0.39039996596686 0.794364648810168
-1.05450725571603 0.429489622438461 0.627814518103169
-1.34314612497991 0.382533642972817 0.168116246261977
-0.997265771114556 -0.383523757744814 0.74423491776111
-1.10467332564178 -0.239686935807981 0.676094679084814
-1.01934956955111 -0.694621848946757 0.518819586564335
-0.11051632848472 0.0493113744086721 0.860261537462353
6.81040070708755e-16 0.138953932038118 0.726286893740768
-0.250057467872773 0.12230863616241 0.934840384545301
-0.745401884135199 -1.16373263315078 0.143581485455614
-0.704137382916789 -1.11996798635221 0.298304879920154
-1.3915741851159 -0.0296703322914582 0.190457972256765
-0.14403949568936 1.25724707100647 0.258185436099486
-0.879561026843067 -0.752704490535769 0.616759690460003
-0.886411812866475 -0.502566254496012 0.783292232983192
-0.7183825 1.23984025 0
-0.134125536828155 0.22825431076317 0.845358654089725
-1.20437612777405 -0.420930599109766 0.459949849735032
-1.22012704358814 -0.261355371601957 0.511847397212488
-0.326131743481711 -1.15661780550999 0.40324905933984
-0.357183088551514 -1.25487716517698 0.259157430853268
2.43824154120874e-16 -1.1312272141247 0.275945955954571
-0.145623651649144 -1.10017012775866 0.417447350247248
-0.919581471290239 -0.0272889324787352 0.863701467404028
-1.01575191019933 0.0858896077347626 0.774395385321176
-0.771464908993618 0.0495522958936059 0.940348565805962
-1.1199421897492 -0.567937038799343 0.49287759851616
-1.13019834714388 -0.806916645041587 0.172571289566804
-0.998232633484876 -0.900185834236271 0.292927257374983
-0.596346865217393 0.860368241258801 0.619792670595317
-1.17714323774048 0.758491610917982 0.140955547548037
-0.262001420161199 1.33913090645289 0.14984445835673
-0.561916819410962 0.704710580450682 0.735678911196845
-0.477697241076735 -0.824691477706727 0.741542612799854
-0.283529075667452 -0.896369254182578 0.657438241444446
-0.60614011111763 -0.0440920375054507 1.00074443182662
-0.186920895744077 1.12726363782834 0.410288141389114
-0.345838523607981 1.0349740199794 0.512721035117224
-1.13427481450137 0.551263395110949 0.453974155809507
-0.115768134845756 -0.648823820744201 0.722319031957903
5.68311924907223e-16 -0.52796083254979 0.63208356538393
4.99998636169499e-16 -0.685680883125402 0.566712918870465
1.6579433228063e-16 1.2982787568773 0.141953331482301
-0.769767544630738 1.02795169927306 0.360013913171319
-1.11474794360171 -0.719613041069971 0.351796438527933
-0.521094973623931 -1.16105556459082 0.356972000865232
-1.31421875 -0.53996925 0
-1.15368425 0.84343225 0
-0.718013929961565 0.562713155514236 0.778533471204835
-1.06733160495942 -0.0724671270051652 0.737982563175284
-1.13354811722688 0.0809607506594814 0.656186123086863
-0.162054871785213 0.593771295302563 0.734594771464505
-0.292057563924457 -1.03634863814911 0.533496821696974
-0.476288308441661 -1.06317801894805 0.504957358641748
-0.429167387879266 0.0861437817906066 0.992042898387964
-0.695843662522185 -0.805337741915605 0.696972468103881
-1.112578 -0.87467275 0
-1.33406830637529 0.0890332297960059 0.336880172342353
-0.935006868251938 0.905041319706287 0.355583032290977
-0.432136648827906 1.30337947289737 0.152485015388675
-1.3419045 0.4808955 0
-1.20120416745131 0.376865953819548 0.470941468298945
-1.02835875012218 0.252908988783578 0.724898595653812
-0.514264717358735 0.555987312163627 0.823897749758736
-0.745236902041134 0.733964957038838 0.657853339090011
-0.579789094397025 -0.225571093035112 0.998990989406721
-0.392650219830561 -0.307080542596226 0.982571378129114
-0.604386772155933 1.23642750494049 0.161884617667783
-1.01891893493945 0.606748574810045 0.548712426247113
-0.322331835651886 0.264388783899029 0.923940377947138
-1.37173566606918 -0.231666871641224 0.192183694948207
-1.04540221402609 0.734188062080408 0.410741785838003
1.40124544347917e-16 -1.28160749991801 0.137858099507136
-0.106454171580387 1.36401654960441 0.109966664820281
-0.660132301970901 -1.04001803469725 0.459407133119882
-0.8674345 1.1419095 0
-0.621134779385152 -0.683332434853436 0.817703884152962
-0.741474524086018 -0.523133489768443 0.862650949417335
-0.526829823737889 -0.387254739740211 0.968945278845698
-0.276384115293843 -0.750250034467298 0.761421634947252
-0.579798922057964 1.0183280233122 0.485641706178262
-0.646712335240882 0.414825436134294 0.873595518395515
-0.961006684678144 -0.2075101091569 0.823746791785892
-0.182702813385407 0.407772230993988 0.819402578353992
-0.54487725 1.32439325 0
-0.103354558075757 -0.301834144904233 0.834480178690899
-0.87025625 -1.11665375 0
-0.154442100236733 0.95921091865875 0.534345889578339
-0.237306917721846 -0.402191460259089 0.905495951237623
-0.809494332768907 -0.653236651130972 0.749742313306856
-0.125143428755139 -0.807463713052006 0.638695727325673
4.09861500846884e-16 -0.838725966615196 0.485474447124952
-0.41948758164736 1.1372118098892 0.403894010262075
-0.314131611247121 1.23949671653156 0.29319203586005
-0.73627355244161 0.25157566347893 0.908071087871673
-0.170994675 1.423331 0
-1.11285547338827 -0.412554110569953 0.602616459373574
-0.364916 1.38509925 0
-0.106161237803245 -0.478339073553138 0.786954360481154
-1.42184075 0.06754085 0
3.39906997468585e-16 0.995005660855874 0.40203279891589
-0.106231298852274 -0.125240076893994 0.861082519901648
-1.24748884053618 0.060056130027182 0.502973124976352
-0.250292659269201 -0.582898838079445 0.84291309166343
-0.351737666549077 0.673708764630847 0.754967682681835
2.89551440568945e-16 1.14208167438562 0.286028468942845
-0.182867825 -1.40077425 0
6.48017135920195e-16 -0.198580889521003 0.712615408104091
6.18336624934322e-16 0.477419347764005 0.670684034319956
6.62562553746048e-16 -0.0322939553263959 0.727040272356314
-0.427200748173379 -0.956494883708246 0.623025570376849
4.38821109809214e-16 0.825653085117056 0.512775690006592
4.8829582550802e-16 0.654244698959095 0.60239493526222
-1.0092575 1.014273 0
-0.99592375 -1.0049745 0
-0.36409375 -1.3637345 0
-1.04976915379568 0.910864909846618 0.16709595820765
0.906526340653246 0.756522127980928 0.534637883468513
0.896566654201928 0.573507891003523 0.677581476483133
0.319904098313848 0.529918558282417 0.817163662020411
0.417581600640211 -0.119412765339151 1.00717385358001
0.85118900971145 -0.351983110329176 0.869581618409081
0.24321494779976 -0.217207927873249 0.947807587987446
0.162698332145986 -1.22718779089288 0.286329703966537
0.16237763581493 -1.33540161562789 0.135615077743094
0.594172368653745 -0.93961757664843 0.610641852128886
0.871324797074521 -1.05267983677299 0.213525350432358
0.836612977831977 -0.985194281570682 0.385395601754054
0.6891335 -1.23620775 0
0.563757128753443 -1.24024674579889 0.181739503705502
0.5219995 -1.31285525 0
0.296168417919448 0.906871059844558 0.605765777725397
0.529334346126909 0.267079576737834 0.946253374599649
0.418455967644898 0.411435367520265 0.888915735797494
0.180277661551939 0.781306478739173 0.655925077956169
0.761074337804906 1.14382660810306 0.184510682357948
0.456078924401587 0.935674748334166 0.585981721690179
0.760989528729875 0.898124715164974 0.512000292810807
0.903985350938029 1.03617771863547 0.196965863647469
1.32197756645408 -0.437828633890355 0.180309870510243
1.29486732037135 -0.327377353319544 0.343185108504418
1.31383937130181 -0.11587904712718 0.383392869399691
1.221086 -0.72023475 0
1.19795565379662 -0.0936828029889892 0.580085825430519
0.896165950788989 0.1802645452693 0.847983397154167
1.2732802280943 0.574123782921984 0.162409191472012
1.26071125 0.6685865 0
1.17122981024187 0.661107245108621 0.293824621731188
1.07653268128417 0.815736716959344 0.266857040960398
1.15973493629553 0.243970494764194 0.585411263389902
1.25907118527374 0.212119132951751 0.447730777927295
1.38437669745708 0.178320272591789 0.17378272045248
1.39690675 0.2780235 0
1.00441957096655 -0.969384469250816 0.127399268913957
1.31049220280467 0.289907208733533 0.319367430993632
1.25096456631321 0.478647905901071 0.317442311125116
0.616558438343934 0.124884379048458 0.97344996310161
0.569983073239819 -0.532824186478853 0.911779271188085
0.392543237866319 -0.491046053923211 0.927890691721657
0.987776894071073 -0.573847761443951 0.655316388794783
0.404861734839611 0.810837142950676 0.680524871291109
0.689319319037835 -0.362623937531535 0.944893085324669
1.22842841304647 -0.528923063256027 0.334068852925026
1.23676372540926 -0.633399768614847 0.182597671869048
0.132365835787025 -0.957822090225604 0.535222403584275
0.255582217448159 -0.0353536538798357 0.960277742150717
0.777690009055739 -0.903340422673027 0.547780740395944
0.781103938598126 -0.166849112563889 0.944865710238941
1.3797565 -0.343986 0
0.367513949270163 -1.32435335512177 0.117080552170071
0.949377560396399 -0.835952312116963 0.456127859961604
0.615360786166948 1.13518996417478 0.325892710249341
1.41629525 -0.1383723 0
0.428968553227663 -0.66145375586723 0.850845629957833
0.480996300624434 1.21688093717023 0.275292788829415
0.869387224853976 0.39039996596686 0.794364648810168
1.05450725571603 0.429489622438461 0.62781451810317
1.34314612497991 0.382533642972817 0.168116246261977
0.997265771114558 -0.383523757744815 0.744234917761111
1.10467332564178 -0.239686935807982 0.676094679084814
1.01934956955111 -0.694621848946757 0.518819586564335
0.110516328484721 0.0493113744086721 0.860261537462353
0.250057467872775 0.12230863616241 0.934840384545301
0.745401884135199 -1.16373263315078 0.143581485455614
0.704137382916789 -1.11996798635221 0.298304879920154
1.3915741851159 -0.0296703322914582 0.190457972256765
0.14403949568936 1.25724707100647 0.258185436099486
0.879561026843069 -0.75270449053577 0.616759690460003
0.886411812866476 -0.502566254496012 0.783292232983193
0.7183825 1.23984025 0
0.134125536828156 0.22825431076317 0.845358654089725
1.20437612777405 -0.420930599109766 0.459949849735033
1.22012704358814 -0.261355371601957 0.511847397212488
0.326131743481712 -1.15661780550999 0.40324905933984
0.357183088551514 -1.25487716517698 0.259157430853268
0.145623651649145 -1.10017012775866 0.417447350247248
0.919581471290241 -0.0272889324787353 0.863701467404029
1.01575191019933 0.0858896077347625 0.774395385321176
0.77146490899362 0.0495522958936058 0.940348565805963
1.1199421897492 -0.567937038799344 0.492877598516161
1.13019834714388 -0.806916645041588 0.172571289566804
0.998232633484876 -0.900185834236271 0.292927257374983
0.596346865217394 0.860368241258801 0.619792670595317
1.17714323774048 0.758491610917983 0.140955547548037
0.262001420161199 1.33913090645289 0.14984445835673
0.561916819410963 0.704710580450682 0.735678911196845
0.477697241076737 -0.824691477706727 0.741542612799855
0.283529075667454 -0.896369254182578 0.657438241444446
0.606140111117632 -0.0440920375054508 1.00074443182662
0.186920895744077 1.12726363782834 0.410288141389114
0.345838523607982 1.0349740199794 0.512721035117224
1.13427481450137 0.551263395110949 0.453974155809508
0.115768134845757 -0.648823820744201 0.722319031957903
0.769767544630739 1.02795169927306 0.360013913171319
1.11474794360171 -0.719613041069971 0.351796438527933
0.521094973623932 -1.16105556459082 0.356972000865232
1.31421875 -0.53996925 0
1.15368425 0.84343225 0
0.718013929961566 0.562713155514236 0.778533471204835
1.06733160495942 -0.0724671270051653 0.737982563175285
1.13354811722688 0.0809607506594814 0.656186123086864
0.162054871785214 0.593771295302563 0.734594771464505
0.292057563924458 -1.03634863814911 0.533496821696974
0.476288308441662 -1.06317801894805 0.504957358641748
0.429167387879268 0.0861437817906064 0.992042898387965
0.695843662522187 -0.805337741915605 0.696972468103881
1.112578 -0.87467275 0
1.33406830637529 0.0890332297960059 0.336880172342353
0.935006868251938 0.905041319706287 0.355583032290977
0.432136648827907 1.30337947289737 0.152485015388675
1.3419045 0.4808955 0
1.20120416745131 0.376865953819548 0.470941468298945
1.02835875012218 0.252908988783578 0.724898595653813
0.514264717358736 0.555987312163627 0.823897749758736
0.745236902041135 0.733964957038839 0.657853339090011
0.579789094397027 -0.225571093035112 0.998990989406722
0.392650219830562 -0.307080542596226 0.982571378129115
0.604386772155933 1.23642750494049 0.161884617667783
1.01891893493945 0.606748574810046 0.548712426247113
0.322331835651887 0.264388783899028 0.923940377947138
1.37173566606918 -0.231666871641224 0.192183694948207
1.04540221402609 0.734188062080408 0.410741785838003
0.106454171580387 1.36401654960441 0.109966664820281
0.660132301970902 -1.04001803469725 0.459407133119882
0.8674345 1.1419095 0
0.621134779385154 -0.683332434853436 0.817703884152963
0.74147452408602 -0.523133489768443 0.862650949417336
0.526829823737891 -0.387254739740212 0.968945278845698
0.276384115293844 -0.750250034467298 0.761421634947253
0.579798922057965 1.0183280233122 0.485641706178262
0.646712335240884 0.414825436134294 0.873595518395516
0.961006684678146 -0.2075101091569 0.823746791785892
0.182702813385408 0.407772230993988 0.819402578353992
0.54487725 1.32439325 0
0.103354558075759 -0.301834144904233 0.834480178690899
0 1.4375 0
0.87025625 -1.11665375 0
0.154442100236734 0.95921091865875 0.53434588957834
0.237306917721847 -0.402191460259089 0.905495951237624
0.809494332768909 -0.653236651130972 0.749742313306856
0.12514342875514 -0.807463713052007 0.638695727325673
0.419487581647361 1.1372118098892 0.403894010262075
0.314131611247122 1.23949671653156 0.29319203586005
0.736273552441612 0.25157566347893 0.908071087871674
0.170994675 1.423331 0
1.11285547338827 -0.412554110569953 0.602616459373574
0.364916 1.38509925 0
0.106161237803246 -0.478339073553139 0.786954360481155
1.42184075 0.06754085 0
0 -1.41592725 0
0.106231298852275 -0.125240076893994 0.861082519901648
1.24748884053618 0.0600561300271819 0.502973124976352
0.250292659269202 -0.582898838079445 0.842913091663431
0.351737666549078 0.673708764630848 0.754967682681835
0.182867825 -1.40077425 0
6.03019989040477e-16 -0.365407213457809 0.680978325799013
6.65640175875286e-16 0.310794753463872 0.709042321757096
0.42720074817338 -0.956494883708246 0.623025570376849
3.16385091258362e-16 -0.987475505531379 0.388320159404183
1.0092575 1.014273 0
0.99592375 -1.0049745 0
0.36409375 -1.3637345 0
1.04976915379568 0.910864909846618 0.16709595820765
3 0 1 122
3 78 52 7
3 101 21 116
3 45 23 22
3 152 58 27
3 136 124 123
3 60 118 35
3 53 63 102
3 28 29 118
3 66 64 74
3 102 85 86
3 26 160 24
3 97 99 98
3 41 136 40
3 125 18 54
3 9 10 86
3 22 104 46
3 46 102 45
3 111 77 110
3 54 57 125
3 80 47 110
3 116 129 0
3 9 67 68
3 106 122 1
3 59 126 96
3 72 42 147
3 71 53 49
3 51 22 128
3 129 31 30
3 68 10 9
3 53 102 86
3 35 34 60
3 44 123 50
3 40 56 41
3 30 38 96
3 111 8 132
3 25 114 85
3 49 113 71
3 33 115 160
3 138 54 101
3 46 85 102
3 68 67 12
3 145 95 14
3 81 82 107
3 2 16 141
3 147 71 113
3 95 94 150
3 89 117 151
3 12 11 13
3 32 59 119
3 139 16 121
3 128 55 51
3 24 23 76
3 36 114 172
3 117 89 155
3 143 5 146
3 45 84 75
3 28 118 60
3 45 75 23
3 22 51 104
3 60 34 37
3 88 28 30
3 145 169 158
3 122 106 90
3 94 151 150
3 162 17 43
3 71 147 42
3 140 107 62
3 112 39 93
3 103 12 78
3 64 48 159
3 4 72 135
3 151 94 70
3 68 12 103
3 86 85 36
3 154 62 76
3 31 129 116
3 37 34 115
3 161 97 156
3 149 148 47
3 83 50 93
3 121 2 162
3 81 107 140
3 1 126 59
3 20 122 87
3 163 94 158
3 115 33 37
3 32 120 59
3 89 131 153
3 89 153 155
3 29 88 105
3 23 24 128
3 154 61 62
3 128 24 69
3 125 57 117
3 34 35 157
3 327 7 164
3 63 42 84
3 70 100 131
3 106 139 121
3 43 19 87
3 14 95 19
3 93 3 112
3 108 107 82
3 141 74 334
3 64 65 74
3 6 79 80
3 156 143 146
3 138 20 87
3 26 107 108
3 0 20 116
3 8 111 168
3 119 38 37
3 129 96 126
3 108 160 26
3 10 53 86
3 132 103 111
3 62 26 76
3 117 155 142
3 119 33 32
3 144 9 36
3 86 36 9
3 76 75 154
3 55 128 69
3 29 28 88
3 130 6 7
3 23 75 76
3 53 10 49
3 164 7 52
3 114 36 85
3 45 22 46
3 25 85 46
3 4 44 50
3 152 39 15
3 121 162 90
3 137 97 161
3 139 15 16
3 19 138 87
3 150 54 138
3 333 143 156
3 141 334 166
3 107 26 62
3 115 24 160
3 136 41 124
3 1 59 58
3 42 72 61
3 138 19 95
3 77 6 80
3 113 49 8
3 78 6 77
3 7 6 78
3 120 108 82
3 70 163 100
3 127 66 74
3 151 70 89
3 84 154 75
3 115 69 24
3 42 61 154
3 67 11 12
3 10 68 132
3 123 124 3
3 161 146 41
3 97 148 99
3 143 165 159
3 139 58 152
3 156 98 333
3 113 8 91
3 120 58 59
3 53 71 63
3 92 91 168
3 4 140 61
3 62 61 140
3 27 82 81
3 57 150 151
3 119 96 38
3 108 32 160
3 24 76 26
3 103 77 111
3 154 84 42
3 327 130 7
3 49 132 8
3 69 34 157
3 30 28 38
3 125 73 18
3 9 144 67
3 103 132 68
3 141 16 127
3 34 69 115
3 45 102 84
3 128 22 23
3 83 152 27
3 3 93 123
3 109 166 170
3 43 90 162
3 44 40 136
3 148 97 137
3 92 47 148
3 148 137 92
3 20 138 101
3 8 168 91
3 32 108 120
3 163 70 94
3 101 116 20
3 16 2 121
3 48 64 66
3 52 78 12
3 52 12 13
3 80 110 77
3 80 79 336
3 49 10 132
3 103 78 77
3 117 57 151
3 63 71 42
3 60 38 28
3 160 32 33
3 30 96 129
3 3 48 112
3 83 93 39
3 56 40 134
3 146 124 41
3 92 110 47
3 138 95 150
3 81 50 83
3 96 119 59
3 167 159 165
3 94 95 145
3 44 135 40
3 112 66 127
3 0 129 126
3 134 147 113
3 27 120 82
3 141 166 109
3 73 133 18
3 72 4 61
3 97 98 156
3 142 73 125
3 125 117 142
3 88 174 105
3 37 33 119
3 67 144 11
3 84 102 63
3 54 150 57
3 333 165 143
3 87 90 43
3 123 44 136
3 113 91 134
3 134 40 135
3 137 91 92
3 127 16 15
3 5 159 48
3 2 109 162
3 159 5 143
3 161 41 56
3 90 87 122
3 39 112 15
3 4 135 44
3 120 27 58
3 168 110 92
3 145 158 94
3 168 111 110
3 112 48 66
3 162 109 17
3 91 137 56
3 50 140 4
3 146 5 124
3 27 81 83
3 56 137 161
3 50 81 140
3 14 19 43
3 127 15 112
3 58 106 1
3 167 64 159
3 91 56 134
3 147 134 135
3 17 14 43
3 139 106 58
3 2 141 109
3 83 39 152
3 3 5 48
3 15 139 152
3 161 156 146
3 106 121 90
3 70 131 89
3 50 123 93
3 153 131 313
3 135 72 147
3 127 74 141
3 122 20 0
3 17 170 169
3 3 124 5
3 21 171 174
3 145 14 17
3 313 131 100
3 74 65 334
3 1 0 126
3 88 30 31
3 47 336 149
3 47 80 336
3 17 169 145
3 79 6 130
3 148 149 99
3 60 37 38
3 65 64 167
3 69 157 55
3 170 17 109
3 25 46 104
3 101 54 18
3 172 144 36
3 52 13 173
3 21 101 18
3 21 18 133
3 174 31 116
3 173 164 52
3 88 31 174
3 21 133 171
3 174 116 21
3 174 171 105
3 175 292 176
3 252 182 227
3 271 286 196
3 220 197 198
3 321 202 233
3 305 293 294
3 235 210 288
3 228 272 238
3 203 288 204
3 240 248 239
3 272 259 258
3 201 199 329
3 270 98 99
3 216 215 305
3 295 229 193
3 184 259 185
3 197 221 274
3 221 220 272
3 281 280 251
3 229 295 232
3 253 280 222
3 286 175 299
3 184 242 241
3 276 176 292
3 234 269 296
3 246 317 217
3 245 224 228
3 226 298 197
3 299 205 206
3 242 184 185
3 228 259 272
3 210 235 209
3 219 225 293
3 215 216 231
3 205 269 213
3 281 301 183
3 200 258 284
3 224 245 283
3 208 329 285
3 307 271 229
3 221 272 258
3 242 187 241
3 315 189 268
3 254 277 255
3 177 310 191
3 317 283 245
3 268 319 267
3 262 320 287
3 187 188 186
3 207 289 234
3 308 291 191
3 298 226 230
3 199 250 198
3 211 338 284
3 287 324 262
3 312 316 180
3 220 249 257
3 203 235 288
3 220 198 249
3 197 274 226
3 235 212 209
3 261 205 203
3 315 158 169
3 292 263 276
3 267 319 320
3 331 218 192
3 245 217 317
3 309 237 277
3 282 266 214
3 273 252 187
3 239 328 223
3 179 304 246
3 320 244 267
3 242 273 187
3 259 211 258
3 323 250 237
3 206 286 299
3 212 285 209
3 330 325 270
3 149 222 318
3 256 266 225
3 291 331 177
3 254 309 277
3 176 234 296
3 195 260 292
3 163 158 267
3 285 212 208
3 207 234 290
3 262 322 300
3 262 324 322
3 204 275 261
3 198 298 199
3 323 237 236
3 298 243 199
3 295 287 232
3 209 326 210
3 327 332 182
3 238 257 217
3 244 300 100
3 276 291 308
3 218 260 194
3 189 194 268
3 266 282 178
3 278 255 277
3 310 334 248
3 239 248 65
3 181 253 79
3 325 316 312
3 307 260 195
3 201 278 277
3 175 286 195
3 183 335 281
3 289 212 213
3 299 296 269
3 278 201 329
3 185 259 228
3 301 281 273
3 237 250 201
3 287 311 324
3 289 207 208
3 314 211 184
3 259 184 211
3 250 323 249
3 230 243 298
3 204 261 203
3 130 182 181
3 198 250 249
3 228 224 185
3 332 227 182
3 284 258 211
3 220 221 197
3 200 221 258
3 179 225 219
3 321 190 214
3 291 263 331
3 306 330 270
3 308 191 190
3 194 260 307
3 319 307 229
3 333 325 312
3 310 166 334
3 277 237 201
3 285 329 199
3 305 294 216
3 176 233 234
3 217 236 246
3 307 268 194
3 251 253 181
3 283 183 224
3 252 251 181
3 182 252 181
3 290 255 278
3 244 100 163
3 297 248 240
3 320 262 244
3 257 249 323
3 285 199 243
3 217 323 236
3 241 187 186
3 185 301 242
3 293 178 294
3 330 216 316
3 270 99 318
3 312 328 165
3 308 321 233
3 325 333 98
3 283 264 183
3 290 234 233
3 228 238 245
3 265 335 264
3 179 236 309
3 237 309 236
3 202 254 255
3 232 320 319
3 289 213 269
3 278 329 207
3 199 201 250
3 273 281 251
3 323 217 257
3 327 182 130
3 224 183 301
3 243 326 209
3 205 213 203
3 295 193 247
3 184 241 314
3 273 242 301
3 310 297 191
3 209 285 243
3 220 257 272
3 298 198 197
3 256 202 321
3 178 293 266
3 279 170 166
3 218 331 263
3 219 305 215
3 318 306 270
3 265 318 222
3 318 265 306
3 195 271 307
3 183 264 335
3 207 290 278
3 163 267 244
3 271 195 286
3 191 291 177
3 223 240 239
3 227 187 252
3 227 188 187
3 253 251 280
3 253 336 79
3 224 301 185
3 273 251 252
3 287 320 232
3 238 217 245
3 235 203 213
3 329 208 207
3 205 299 269
3 178 282 223
3 256 214 266
3 231 303 215
3 316 216 294
3 265 222 280
3 307 319 268
3 254 256 225
3 269 234 289
3 167 165 328
3 267 315 268
3 219 215 304
3 282 297 240
3 175 296 299
3 303 283 317
3 202 255 290
3 310 279 166
3 247 193 302
3 246 236 179
3 270 325 98
3 311 295 247
3 295 311 287
3 261 275 340
3 212 289 208
3 241 186 314
3 257 238 272
3 229 232 319
3 333 312 165
3 260 218 263
3 293 305 219
3 283 303 264
3 303 304 215
3 306 265 264
3 297 190 191
3 180 223 328
3 177 331 279
3 328 312 180
3 330 231 216
3 263 292 260
3 214 190 282
3 179 219 304
3 290 233 202
3 335 265 280
3 315 267 158
3 335 280 281
3 282 240 223
3 331 192 279
3 264 231 306
3 225 179 309
3 316 294 180
3 202 256 254
3 231 330 306
3 225 309 254
3 189 218 194
3 297 282 190
3 233 176 276
3 167 328 239
3 264 303 231
3 317 304 303
3 192 218 189
3 308 233 276
3 177 279 310
3 256 321 214
3 178 223 180
3 190 321 308
3 330 316 325
3 276 263 291
3 244 262 300
3 225 266 293
3 322 313 300
3 304 317 246
3 297 310 248
3 292 175 195
3 192 169 170
3 178 180 294
3 196 340 337
3 315 192 189
3 313 100 300
3 248 334 65
3 176 296 175
3 261 206 205
3 222 149 336
3 222 336 253
3 192 315 169
3 79 130 181
3 318 99 149
3 235 213 212
3 65 167 239
3 243 230 326
3 170 279 192
3 200 274 221
3 271 193 229
3 338 211 314
3 227 339 188
3 196 193 271
3 196 302 193
3 340 286 206
3 339 227 332
3 261 340 206
3 196 337 302
3 340 196 286
3 340 275 337
