OFF
341 634 0
-1.29245610792636 1.07639163450042 0.778715536908428
-1.27921466703824 0.81707458655928 0.984615053142129
-0.448849812858397 0.751557854649436 1.174028892901
-0.587393825769354 -0.167679595629463 1.44032370651101
-1.2110676568442 -0.499080846215284 1.25370505696881
-0.3387707972993 -0.305384922889536 1.35117356107973
-0.226732310877081 -1.72701471659676 0.410937841623079
-0.22745462752099 -1.8761762743129 0.19554376677669
-0.842573778658802 -1.33110162422192 0.882076905707231
-1.23320936360079 -1.48687337755364 0.309599066273294
-1.18907388937831 -1.39645314020016 0.559217769724072
-0.9647869 -1.73069085 0
-0.795779535293277 -1.74768669791791 0.263805527850075
-0.7307993 -1.83799735 0
-0.415707518798397 1.28293698668451 0.872257585747907
-0.748582783188963 0.380023139067476 1.36112960497372
-0.589678157374391 0.584621472778943 1.27872110907437
-0.25051212676637 1.10285504516726 0.93779365568949
-1.07545487582956 1.61381542476047 0.269038331982222
-0.645035817385474 1.3268895105848 0.84904711542075
-1.08308692635803 1.27626161698815 0.745905799530638
-1.2788208460114 1.4633802399616 0.287037841891386
-1.87094703772039 -0.618589803067794 0.26076576336793
-1.84321155780949 -0.464636643229278 0.498142471989015
-1.87258837107858 -0.164396743610503 0.556965651135288
-1.7095204 -1.00832865 0
-1.71156751443925 -0.132876803656975 0.842385338510702
-1.27747569735882 0.257347367402522 1.226423137851
-1.80038024106374 0.810802878924667 0.235347445338873
-1.76499575 0.9360211 0
-1.66428325540321 0.937623027797544 0.42757625162556
-1.52760062635514 1.15537076358344 0.388594402555938
-1.65696512357258 0.348173883163378 0.850913973350569
-1.79637433335153 0.302277217331393 0.651060821913526
-1.95894542015022 0.25211719213075 0.25144075003397
-1.95566945 0.3892329 0
-1.41707981701881 -1.36583006864585 0.184290480479803
-1.86447531135941 0.411821842512061 0.464086946231237
-1.77941542583262 0.679598828760704 0.46165446549807
-0.873437397552459 0.178202250286288 1.39964172003175
-0.805982723881512 -0.75339183166229 1.30828643808611
-0.551710765582427 -0.692981773088862 1.32712128189202
-1.40900865435521 -0.815772954191631 0.949069061984154
-0.571135732722683 1.15007095311625 0.983282983424554
-0.977207497971968 -0.513012604895874 1.35745437080367
-1.74771901579361 -0.750496214933019 0.484740177330213
-1.75027369528062 -0.894851021609944 0.264124567871818
-0.183019844704255 -1.3482746465195 0.762418375063285
-0.356493880393296 -0.0485955840671858 1.36953295421077
-1.10636690825038 -1.28173083796411 0.793418945422242
-1.10965636833509 -0.235867931320735 1.36009694754163
-1.9316591 -0.4815804 0
-0.516955777766136 -1.86129580719116 0.169788536935626
-1.35197716536145 -1.18689379145719 0.661754291822096
-0.872001113801565 1.60652595699759 0.475193878446445
-1.98281335 -0.19372122 0
-0.604125845318209 -0.934559143938402 1.21955193391478
-0.679712093119994 1.71870217296121 0.400868744749983
-1.23981391787809 0.556511985682209 1.15123505172118
-1.50635166598022 0.612413503343736 0.912780219780772
-1.8999485007024 0.54048934591686 0.243384992957225
-1.42259484181997 -0.544949697756612 1.07671074505196
-1.57772122702441 -0.340679287190358 0.980073747197429
-1.45338362832893 -0.987193342401011 0.752518371861031
-0.151584074894202 0.0708136139818289 1.22158944050213
7.23237760789327e-16 0.195931357608345 1.02276228592775
-0.348786006836858 0.174158487289642 1.3341279009572
-1.05143636597833 -1.63904692815821 0.208175299565751
-0.99793486130054 -1.58366150522391 0.43299123165965
-1.97077370265812 -0.0417692714851839 0.275612593153395
-0.200591196540394 1.7688159337063 0.370996948659964
-1.25307486171975 -1.06912775641854 0.893012904129082
-1.2624181303665 -0.713428516362357 1.13114424880857
-1.0057355 1.73577635 0
-0.184754937018026 0.323179336080587 1.20222296659577
-1.71785178467429 -0.598356504328724 0.667764539722111
-1.74198250334231 -0.371598962212805 0.743302358869225
-0.458792836588872 -1.63264141432209 0.58182133663679
-0.503332713858831 -1.76903234132836 0.375338017376468
2.98797588696307e-16 -1.58458410634312 0.387550514999653
-0.20196912361355 -1.54858878586215 0.596285980813797
-1.31048195268888 -0.0379281176381457 1.24769581755501
-1.45002009572961 0.123101288179268 1.12165397429989
-1.09645645853386 0.0713307998880005 1.35498488719648
-1.59753416370617 -0.807445002084623 0.715336949033725
-1.59837245911663 -1.13927737820449 0.249640729830146
-1.41729916317332 -1.2749571254468 0.424981957520958
-0.846769681553797 1.22235774442761 0.900275521648222
-1.66220327167692 1.06984963603324 0.204459019072926
-0.368249226194437 1.88364653414999 0.217483191295901
-0.79702487967947 1.00183122822293 1.06572645333754
-0.674549693100221 -1.16665623698224 1.06646796322993
-0.396918042428272 -1.26535984932241 0.942108427422694
-0.85778126094793 -0.0614150471986024 1.43636492240982
-0.260414394023231 1.58895174264801 0.589282853867175
-0.486932981185769 1.46444058126642 0.74125902612366
-1.61787672667827 0.784569408315606 0.661029961544963
-0.159087496525655 -0.913229297157195 1.02660434543686
5.68195972615721e-16 -0.740580937602661 0.890496761006226
4.69091863328986e-16 -0.961814233170381 0.798219134453789
1.01963320814437e-16 1.81794803662998 0.19898636389935
-1.09326569100111 1.45717874456419 0.52519472587223
-1.58611463652329 -1.02110548708169 0.510525792481194
-0.737441515161257 -1.64109634547006 0.517459046143157
-1.83990625 -0.75595695 0
-1.61515795 1.18080515 0
-1.02186318198987 0.801142455221561 1.1283909323834
-1.52419311350914 -0.102443380333588 1.06920829818161
-1.61973584902565 0.116038284946785 0.952488338756603
-0.224736041138592 0.838456839616393 1.04803354440473
-0.40957849290443 -1.46299755523079 0.766552266385097
-0.673514855329616 -1.50392638046079 0.729633590159284
-0.604268239355963 0.123169109274854 1.42101440260499
-0.988457428497851 -1.14187778259065 1.00625303931396
-1.5576092 -1.22454185 0
-1.89908078792787 0.126766350477317 0.489362608750091
-1.32953261373481 1.28408957955123 0.518604837748125
-0.608819699081236 1.83476558063858 0.222011486838288
-1.8786663 0.6732537 0
-1.71433129137278 0.53682167057376 0.685261732188514
-1.46874141649532 0.361022696003447 1.0516738253804
-0.727992878644823 0.790460520814302 1.18997777793044
-1.06126007179569 1.04440576120491 0.956164137323576
-0.819604714172881 -0.318322490184021 1.43206375120433
-0.55173682201163 -0.43285689913528 1.40428726599745
-0.85262849502921 1.74207501640314 0.235967866612939
-1.45411604390037 0.864010547526583 0.79872604289584
-0.451778391575041 0.37552706733493 1.32326168034627
-1.94271048533872 -0.327459329573085 0.278052270606595
-1.48911444982917 1.04339849135954 0.598541569940223
1.90373080845575e-16 -1.79440789525789 0.193229974127659
-0.148732320245824 1.91476187145445 0.1583370446462
-0.93714580826294 -1.47334031017939 0.665767852884424
-1.2144083 1.5986733 0
-0.880173689042994 -0.967568279314316 1.17650687212431
-1.05293533649398 -0.741263202928914 1.24193158803107
-0.74376304085485 -0.546844668377941 1.38790973415034
-0.386306746994622 -1.05882171400982 1.08912593438748
-0.822676863603043 1.44457005321955 0.706750997841128
-0.918367530401267 0.590488366903142 1.26201662806532
-1.37010248562882 -0.29432666346663 1.19040543270134
-0.253252046941389 0.577002495658059 1.16951832262378
-0.76282815 1.85415055 0
-0.141229283341817 -0.424168932310998 1.18478594013511
-1.21835875 -1.56331525 0
-0.214359182365132 1.35162857136662 0.76332166949505
-0.330326417409516 -0.566620976366328 1.29118712483309
-1.15178450523434 -0.92698593355692 1.08253972065558
-0.17260114020237 -1.13669158374899 0.908608540639921
3.83558424853772e-16 -1.17613469293618 0.683450987009231
-0.592578085622151 1.60891713707579 0.586630154179812
-0.442227069918388 1.74900196381234 0.425276787854081
-1.04676065484985 0.358498290233705 1.31063457771453
-0.239392545 1.9926634 0
-1.58886043728888 -0.586783741719246 0.87396392053469
-0.5108824 1.93913895 0
-0.145319761472649 -0.67294016147002 1.11762875842217
-1.99057705 0.09455719 0
3.49926965966381e-16 1.39434777996762 0.565016374969959
-0.145344165664679 -0.175241673300228 1.22257499397217
-1.7813781700616 0.0860202133551355 0.731071004267699
-0.348923322451664 -0.822001432157007 1.20328054082873
-0.494676013069019 0.955478619995794 1.08753668738915
2.00901576713847e-16 1.59984384952533 0.401578561709402
-0.256014955 -1.96108395 0
7.16219957647174e-16 -0.277979063447321 1.00422296268398
6.43847081004972e-16 0.670070680184405 0.942254417359335
7.43332827905206e-16 -0.0444040665351326 1.02452604376181
-0.602713611105821 -1.3525619321195 0.897049417778333
4.99268840591829e-16 1.15761628927984 0.720842743551298
6.13171553866939e-16 0.917640945992016 0.846588579982686
-1.4129605 1.4199822 0
-1.39429325 -1.4069643 0
-0.50973125 -1.9092283 0
-1.4838484950148 1.2856671116485 0.242972826564529
1.29245610792636 1.07639163450042 0.778715536908429
1.27921466703824 0.81707458655928 0.98461505314213
0.448849812858399 0.751557854649436 1.174028892901
0.587393825769355 -0.167679595629463 1.44032370651101
1.21106765684421 -0.499080846215285 1.25370505696881
0.338770797299302 -0.305384922889536 1.35117356107973
0.226732310877081 -1.72701471659676 0.410937841623079
0.22745462752099 -1.8761762743129 0.19554376677669
0.842573778658803 -1.33110162422192 0.882076905707232
1.23320936360079 -1.48687337755364 0.309599066273294
1.18907388937831 -1.39645314020016 0.559217769724073
0.9647869 -1.73069085 0
0.795779535293277 -1.74768669791791 0.263805527850076
0.7307993 -1.83799735 0
0.415707518798398 1.28293698668451 0.872257585747907
0.748582783188965 0.380023139067476 1.36112960497372
0.589678157374393 0.584621472778943 1.27872110907437
0.250512126766371 1.10285504516726 0.93779365568949
1.07545487582956 1.61381542476047 0.269038331982222
0.645035817385475 1.3268895105848 0.849047115420751
1.08308692635803 1.27626161698815 0.745905799530638
1.2788208460114 1.4633802399616 0.287037841891386
1.87094703772039 -0.618589803067794 0.26076576336793
1.84321155780949 -0.464636643229277 0.498142471989015
1.87258837107858 -0.164396743610503 0.556965651135288
1.7095204 -1.00832865 0
1.71156751443925 -0.132876803656975 0.842385338510703
1.27747569735882 0.257347367402522 1.226423137851
1.80038024106374 0.810802878924667 0.235347445338873
1.76499575 0.9360211 0
1.66428325540321 0.937623027797544 0.42757625162556
1.52760062635514 1.15537076358344 0.388594402555938
1.65696512357258 0.348173883163378 0.850913973350569
1.79637433335153 0.302277217331393 0.651060821913527
1.95894542015022 0.25211719213075 0.25144075003397
1.95566945 0.3892329 0
1.41707981701881 -1.36583006864585 0.184290480479803
1.86447531135942 0.411821842512061 0.464086946231238
1.77941542583262 0.679598828760705 0.46165446549807
0.873437397552461 0.178202250286287 1.39964172003175
0.805982723881513 -0.753391831662291 1.30828643808611
0.551710765582428 -0.692981773088861 1.32712128189202
1.40900865435521 -0.815772954191631 0.949069061984156
0.571135732722685 1.15007095311625 0.983282983424554
0.977207497971969 -0.513012604895875 1.35745437080367
1.74771901579362 -0.750496214933018 0.484740177330214
1.75027369528062 -0.894851021609944 0.264124567871818
0.183019844704256 -1.3482746465195 0.762418375063285
0.356493880393298 -0.0485955840671858 1.36953295421077
1.10636690825038 -1.28173083796411 0.793418945422242
1.10965636833509 -0.235867931320735 1.36009694754163
1.9316591 -0.4815804 0
0.516955777766137 -1.86129580719116 0.169788536935627
1.35197716536145 -1.18689379145719 0.661754291822096
0.872001113801565 1.60652595699759 0.475193878446445
1.98281335 -0.19372122 0
0.60412584531821 -0.934559143938402 1.21955193391478
0.679712093119994 1.71870217296121 0.400868744749984
1.2398139178781 0.556511985682209 1.15123505172118
1.50635166598022 0.612413503343736 0.912780219780773
1.8999485007024 0.54048934591686 0.243384992957225
1.42259484181997 -0.544949697756613 1.07671074505197
1.57772122702441 -0.340679287190358 0.980073747197431
1.45338362832893 -0.987193342401011 0.752518371861031
0.151584074894204 0.0708136139818289 1.22158944050213
0.34878600683686 0.174158487289642 1.33412790095721
1.05143636597833 -1.63904692815821 0.208175299565751
0.99793486130054 -1.58366150522391 0.432991231659651
1.97077370265812 -0.0417692714851838 0.275612593153395
0.200591196540395 1.7688159337063 0.370996948659964
1.25307486171975 -1.06912775641854 0.893012904129083
1.2624181303665 -0.713428516362358 1.13114424880857
1.0057355 1.73577635 0
0.184754937018028 0.323179336080587 1.20222296659578
1.71785178467429 -0.598356504328724 0.667764539722112
1.74198250334231 -0.371598962212805 0.743302358869226
0.458792836588872 -1.63264141432209 0.58182133663679
0.503332713858831 -1.76903234132836 0.375338017376469
0.201969123613551 -1.54858878586215 0.596285980813797
1.31048195268888 -0.037928117638146 1.24769581755501
1.45002009572961 0.123101288179268 1.12165397429989
1.09645645853386 0.0713307998880002 1.35498488719648
1.59753416370617 -0.807445002084623 0.715336949033725
1.59837245911663 -1.13927737820449 0.249640729830146
1.41729916317332 -1.2749571254468 0.424981957520958
0.846769681553799 1.22235774442761 0.900275521648222
1.66220327167692 1.06984963603324 0.204459019072926
0.368249226194437 1.88364653414998 0.2174831912959
0.797024879679472 1.00183122822293 1.06572645333754
0.674549693100222 -1.16665623698224 1.06646796322993
0.396918042428273 -1.26535984932241 0.942108427422694
0.857781260947932 -0.0614150471986025 1.43636492240982
0.260414394023231 1.58895174264801 0.589282853867175
0.48693298118577 1.46444058126642 0.74125902612366
1.61787672667828 0.784569408315606 0.661029961544963
0.159087496525656 -0.913229297157194 1.02660434543686
1.09326569100112 1.45717874456419 0.52519472587223
1.58611463652329 -1.02110548708169 0.510525792481195
0.737441515161258 -1.64109634547006 0.517459046143157
1.83990625 -0.75595695 0
1.61515795 1.18080515 0
1.02186318198988 0.801142455221561 1.1283909323834
1.52419311350915 -0.102443380333588 1.06920829818161
1.61973584902566 0.116038284946785 0.952488338756604
0.224736041138593 0.838456839616393 1.04803354440473
0.409578492904431 -1.46299755523079 0.766552266385097
0.673514855329617 -1.50392638046079 0.729633590159285
0.604268239355966 0.123169109274854 1.42101440260499
0.988457428497852 -1.14187778259065 1.00625303931396
1.5576092 -1.22454185 0
1.89908078792787 0.126766350477317 0.489362608750092
1.32953261373481 1.28408957955124 0.518604837748125
0.608819699081236 1.83476558063858 0.222011486838288
1.8786663 0.6732537 0
1.71433129137278 0.53682167057376 0.685261732188515
1.46874141649532 0.361022696003447 1.0516738253804
0.727992878644825 0.790460520814302 1.18997777793045
1.06126007179569 1.04440576120491 0.956164137323576
0.819604714172883 -0.318322490184021 1.43206375120433
0.551736822011632 -0.43285689913528 1.40428726599745
0.85262849502921 1.74207501640314 0.23596786661294
1.45411604390037 0.864010547526583 0.79872604289584
0.451778391575044 0.37552706733493 1.32326168034627
1.94271048533872 -0.327459329573085 0.278052270606594
1.48911444982917 1.04339849135954 0.598541569940223
0.148732320245824 1.91476187145445 0.1583370446462
0.937145808262941 -1.47334031017939 0.665767852884425
1.2144083 1.5986733 0
0.880173689042995 -0.967568279314317 1.17650687212431
1.05293533649398 -0.741263202928914 1.24193158803107
0.743763040854852 -0.546844668377941 1.38790973415034
0.386306746994623 -1.05882171400982 1.08912593438748
0.822676863603044 1.44457005321955 0.706750997841128
0.918367530401269 0.590488366903142 1.26201662806532
1.37010248562882 -0.294326663466631 1.19040543270134
0.25325204694139 0.577002495658059 1.16951832262378
0.76282815 1.85415055 0
0.141229283341819 -0.424168932310998 1.18478594013511
0 2.0125 0
1.21835875 -1.56331525 0
0.214359182365134 1.35162857136662 0.76332166949505
0.330326417409517 -0.566620976366328 1.29118712483309
1.15178450523434 -0.926985933556921 1.08253972065558
0.172601140202371 -1.13669158374899 0.908608540639921
0.592578085622152 1.60891713707579 0.586630154179812
0.442227069918388 1.74900196381234 0.425276787854081
1.04676065484985 0.358498290233705 1.31063457771453
0.239392545 1.9926634 0
1.58886043728888 -0.586783741719247 0.873963920534691
0.5108824 1.93913895 0
0.14531976147265 -0.67294016147002 1.11762875842217
1.99057705 0.09455719 0
0 -1.98229815 0
0.145344165664681 -0.175241673300228 1.22257499397217
1.7813781700616 0.0860202133551355 0.7310710042677
0.348923322451665 -0.822001432157007 1.20328054082873
0.494676013069021 0.955478619995793 1.08753668738915
0.256014955 -1.96108395 0
6.7013901527621e-16 -0.512331252549796 0.95950858596171
7.01298569563751e-16 0.436728220990811 0.997066679690055
0.602713611105822 -1.3525619321195 0.897049417778334
3.4553051852816e-16 -1.38402105062886 0.546177926908946
1.4129605 1.4199822 0
1.39429325 -1.4069643 0
0.50973125 -1.9092283 0
1.4838484950148 1.2856671116485 0.242972826564529
3 0 1 122
3 78 52 7
3 101 21 116
3 45 23 22
3 152 58 27
3 136 124 123
3 60 118 35
3 53 63 102
3 28 29 118
3 66 64 74
3 102 85 86
3 26 160 24
3 97 99 98
3 41 136 40
3 125 18 54
3 9 10 86
3 22 104 46
3 46 102 45
3 111 77 110
3 54 57 125
3 80 47 110
3 116 129 0
3 9 67 68
3 106 122 1
3 59 126 96
3 72 42 147
3 71 53 49
3 51 22 128
3 129 31 30
3 68 10 9
3 53 102 86
3 35 34 60
3 44 123 50
3 40 56 41
3 30 38 96
3 111 8 132
3 25 114 85
3 49 113 71
3 33 115 160
3 138 54 101
3 46 85 102
3 68 67 12
3 145 95 14
3 81 82 107
3 2 16 141
3 147 71 113
3 95 94 150
3 89 117 151
3 12 11 13
3 32 59 119
3 139 16 121
3 128 55 51
3 24 23 76
3 36 114 172
3 117 89 155
3 143 5 146
3 45 84 75
3 28 118 60
3 45 75 23
3 22 51 104
3 60 34 37
3 88 28 30
3 145 169 158
3 122 106 90
3 94 151 150
3 162 17 43
3 71 147 42
3 140 107 62
3 112 39 93
3 103 12 78
3 64 48 159
3 4 72 135
3 151 94 70
3 68 12 103
3 86 85 36
3 154 62 76
3 31 129 116
3 37 34 115
3 161 97 156
3 149 148 47
3 83 50 93
3 121 2 162
3 81 107 140
3 1 126 59
3 20 122 87
3 163 94 158
3 115 33 37
3 32 120 59
3 89 131 153
3 89 153 155
3 29 88 105
3 23 24 128
3 154 61 62
3 128 24 69
3 125 57 117
3 34 35 157
3 327 7 164
3 63 42 84
3 70 100 131
3 106 139 121
3 43 19 87
3 14 95 19
3 93 3 112
3 108 107 82
3 141 74 334
3 64 65 74
3 6 79 80
3 156 143 146
3 138 20 87
3 26 107 108
3 0 20 116
3 8 111 168
3 119 38 37
3 129 96 126
3 108 160 26
3 10 53 86
3 132 103 111
3 62 26 76
3 117 155 142
3 119 33 32
3 144 9 36
3 86 36 9
3 76 75 154
3 55 128 69
3 29 28 88
3 130 6 7
3 23 75 76
3 53 10 49
3 164 7 52
3 114 36 85
3 45 22 46
3 25 85 46
3 4 44 50
3 152 39 15
3 121 162 90
3 137 97 161
3 139 15 16
3 19 138 87
3 150 54 138
3 333 143 156
3 141 334 166
3 107 26 62
3 115 24 160
3 136 41 124
3 1 59 58
3 42 72 61
3 138 19 95
3 77 6 80
3 113 49 8
3 78 6 77
3 7 6 78
3 120 108 82
3 70 163 100
3 127 66 74
3 151 70 89
3 84 154 75
3 115 69 24
3 42 61 154
3 67 11 12
3 10 68 132
3 123 124 3
3 161 146 41
3 97 148 99
3 143 165 159
3 139 58 152
3 156 98 333
3 113 8 91
3 120 58 59
3 53 71 63
3 92 91 168
3 4 140 61
3 62 61 140
3 27 82 81
3 57 150 151
3 119 96 38
3 108 32 160
3 24 76 26
3 103 77 111
3 154 84 42
3 327 130 7
3 49 132 8
3 69 34 157
3 30 28 38
3 125 73 18
3 9 144 67
3 103 132 68
3 141 16 127
3 34 69 115
3 45 102 84
3 128 22 23
3 83 152 27
3 3 93 123
3 109 166 170
3 43 90 162
3 44 40 136
3 148 97 137
3 92 47 148
3 148 137 92
3 20 138 101
3 8 168 91
3 32 108 120
3 163 70 94
3 101 116 20
3 16 2 121
3 48 64 66
3 52 78 12
3 52 12 13
3 80 110 77
3 80 79 336
3 49 10 132
3 103 78 77
3 117 57 151
3 63 71 42
3 60 38 28
3 160 32 33
3 30 96 129
3 3 48 112
3 83 93 39
3 56 40 134
3 146 124 41
3 92 110 47
3 138 95 150
3 81 50 83
3 96 119 59
3 167 159 165
3 94 95 145
3 44 135 40
3 112 66 127
3 0 129 126
3 134 147 113
3 27 120 82
3 141 166 109
3 73 133 18
3 72 4 61
3 97 98 156
3 142 73 125
3 125 117 142
3 88 174 105
3 37 33 119
3 67 144 11
3 84 102 63
3 54 150 57
3 333 165 143
3 87 90 43
3 123 44 136
3 113 91 134
3 134 40 135
3 137 91 92
3 127 16 15
3 5 159 48
3 2 109 162
3 159 5 143
3 161 41 56
3 90 87 122
3 39 112 15
3 4 135 44
3 120 27 58
3 168 110 92
3 145 158 94
3 168 111 110
3 112 48 66
3 162 109 17
3 91 137 56
3 50 140 4
3 146 5 124
3 27 81 83
3 56 137 161
3 50 81 140
3 14 19 43
3 127 15 112
3 58 106 1
3 167 64 159
3 91 56 134
3 147 134 135
3 17 14 43
3 139 106 58
3 2 141 109
3 83 39 152
3 3 5 48
3 15 139 152
3 161 156 146
3 106 121 90
3 70 131 89
3 50 123 93
3 153 131 313
3 135 72 147
3 127 74 141
3 122 20 0
3 17 170 169
3 3 124 5
3 21 171 174
3 145 14 17
3 313 131 100
3 74 65 334
3 1 0 126
3 88 30 31
3 47 336 149
3 47 80 336
3 17 169 145
3 79 6 130
3 148 149 99
3 60 37 38
3 65 64 167
3 69 157 55
3 170 17 109
3 25 46 104
3 101 54 18
3 172 144 36
3 52 13 173
3 21 101 18
3 21 18 133
3 174 31 116
3 173 164 52
3 88 31 174
3 21 133 171
3 174 116 21
3 174 171 105
3 175 292 176
3 252 182 227
3 271 286 196
3 220 197 198
3 321 202 233
3 305 293 294
3 235 210 288
3 228 272 238
3 203 288 204
3 240 248 239
3 272 259 258
3 201 199 329
3 270 98 99
3 216 215 305
3 295 229 193
3 184 259 185
3 197 221 274
3 221 220 272
3 281 280 251
3 229 295 232
3 253 280 222
3 286 175 299
3 184 242 241
3 276 176 292
3 234 269 296
3 246 317 217
3 245 224 228
3 226 298 197
3 299 205 206
3 242 184 185
3 228 259 272
3 210 235 209
3 219 225 293
3 215 216 231
3 205 269 213
3 281 301 183
3 200 258 284
3 224 245 283
3 208 329 285
3 307 271 229
3 221 272 258
3 242 187 241
3 315 189 268
3 254 277 255
3 177 310 191
3 317 283 245
3 268 319 267
3 262 320 287
3 187 188 186
3 207 289 234
3 308 291 191
3 298 226 230
3 199 250 198
3 211 338 284
3 287 324 262
3 312 316 180
3 220 249 257
3 203 235 288
3 220 198 249
3 197 274 226
3 235 212 209
3 261 205 203
3 315 158 169
3 292 263 276
3 267 319 320
3 331 218 192
3 245 217 317
3 309 237 277
3 282 266 214
3 273 252 187
3 239 328 223
3 179 304 246
3 320 244 267
3 242 273 187
3 259 211 258
3 323 250 237
3 206 286 299
3 212 285 209
3 330 325 270
3 149 222 318
3 256 266 225
3 291 331 177
3 254 309 277
3 176 234 296
3 195 260 292
3 163 158 267
3 285 212 208
3 207 234 290
3 262 322 300
3 262 324 322
3 204 275 261
3 198 298 199
3 323 237 236
3 298 243 199
3 295 287 232
3 209 326 210
3 327 332 182
3 238 257 217
3 244 300 100
3 276 291 308
3 218 260 194
3 189 194 268
3 266 282 178
3 278 255 277
3 310 334 248
3 239 248 65
3 181 253 79
3 325 316 312
3 307 260 195
3 201 278 277
3 175 286 195
3 183 335 281
3 289 212 213
3 299 296 269
3 278 201 329
3 185 259 228
3 301 281 273
3 237 250 201
3 287 311 324
3 289 207 208
3 314 211 184
3 259 184 211
3 250 323 249
3 230 243 298
3 204 261 203
3 130 182 181
3 198 250 249
3 228 224 185
3 332 227 182
3 284 258 211
3 220 221 197
3 200 221 258
3 179 225 219
3 321 190 214
3 291 263 331
3 306 330 270
3 308 191 190
3 194 260 307
3 319 307 229
3 333 325 312
3 310 166 334
3 277 237 201
3 285 329 199
3 305 294 216
3 176 233 234
3 217 236 246
3 307 268 194
3 251 253 181
3 283 183 224
3 252 251 181
3 182 252 181
3 290 255 278
3 244 100 163
3 297 248 240
3 320 262 244
3 257 249 323
3 285 199 243
3 217 323 236
3 241 187 186
3 185 301 242
3 293 178 294
3 330 216 316
3 270 99 318
3 312 328 165
3 308 321 233
3 325 333 98
3 283 264 183
3 290 234 233
3 228 238 245
3 265 335 264
3 179 236 309
3 237 309 236
3 202 254 255
3 232 320 319
3 289 213 269
3 278 329 207
3 199 201 250
3 273 281 251
3 323 217 257
3 327 182 130
3 224 183 301
3 243 326 209
3 205 213 203
3 295 193 247
3 184 241 314
3 273 242 301
3 310 297 191
3 209 285 243
3 220 257 272
3 298 198 197
3 256 202 321
3 178 293 266
3 279 170 166
3 218 331 263
3 219 305 215
3 318 306 270
3 265 318 222
3 318 265 306
3 195 271 307
3 183 264 335
3 207 290 278
3 163 267 244
3 271 195 286
3 191 291 177
3 223 240 239
3 227 187 252
3 227 188 187
3 253 251 280
3 253 336 79
3 224 301 185
3 273 251 252
3 287 320 232
3 238 217 245
3 235 203 213
3 329 208 207
3 205 299 269
3 178 282 223
3 256 214 266
3 231 303 215
3 316 216 294
3 265 222 280
3 307 319 268
3 254 256 225
3 269 234 289
3 167 165 328
3 267 315 268
3 219 215 304
3 282 297 240
3 175 296 299
3 303 283 317
3 202 255 290
3 310 279 166
3 247 193 302
3 246 236 179
3 270 325 98
3 311 295 247
3 295 311 287
3 261 275 340
3 212 289 208
3 241 186 314
3 257 238 272
3 229 232 319
3 333 312 165
3 260 218 263
3 293 305 219
3 283 303 264
3 303 304 215
3 306 265 264
3 297 190 191
3 180 223 328
3 177 331 279
3 328 312 180
3 330 231 216
3 263 292 260
3 214 190 282
3 179 219 304
3 290 233 202
3 335 265 280
3 315 267 158
3 335 280 281
3 282 240 223
3 331 192 279
3 264 231 306
3 225 179 309
3 316 294 180
3 202 256 254
3 231 330 306
3 225 309 254
3 189 218 194
3 297 282 190
3 233 176 276
3 167 328 239
3 264 303 231
3 317 304 303
3 192 218 189
3 308 233 276
3 177 279 310
3 256 321 214
3 178 223 180
3 190 321 308
3 330 316 325
3 276 263 291
3 244 262 300
3 225 266 293
3 322 313 300
3 304 317 246
3 297 310 248
3 292 175 195
3 192 169 170
3 178 180 294
3 196 340 337
3 315 192 189
3 313 100 300
3 248 334 65
3 176 296 175
3 261 206 205
3 222 149 336
3 222 336 253
3 192 315 169
3 79 130 181
3 318 99 149
3 235 213 212
3 65 167 239
3 243 230 326
3 170 279 192
3 200 274 221
3 271 193 229
3 338 211 314
3 227 339 188
3 196 193 271
3 196 302 193
3 340 286 206
3 339 227 332
3 261 340 206
3 196 337 302
3 340 196 286
3 340 275 337
