OFF
341 634 0
-1.22955004795628 1.04373235084089 0.698839942753105
-1.21655873772422 0.789408067896569 0.89626771612286
-0.439917125689171 0.743549674786569 1.10770239008621
-0.574495523600156 -0.167691019680045 1.35175227403472
-1.14964821583185 -0.485676242256406 1.15320633346976
-0.338705329109307 -0.306179098816356 1.27713622934822
-0.220291267679512 -1.70296613541245 0.382147254245432
-0.220061422035195 -1.85754233648919 0.180697005023975
-0.805060502540007 -1.28209699054523 0.809932623310803
-1.19334261505186 -1.44489607993682 0.277700802841465
-1.13630319427208 -1.34352469172912 0.504636406779201
-0.9647869 -1.73069085 0
-0.776306779587788 -1.71024496324252 0.240806665874281
-0.7307993 -1.83799735 0
-0.406350737211175 1.27532603068832 0.800350362131179
-0.725107846595467 0.369431195416482 1.27333457621099
-0.574956057391253 0.573757968706021 1.20163076734328
-0.249885045569757 1.10686122715478 0.887037699087003
-1.04612556137383 1.58248902914363 0.234779279173196
-0.620782958233864 1.30617958373402 0.767191307819085
-1.03164806863043 1.24455041903978 0.665589410310472
-1.2401582197393 1.43208371921707 0.250008682007856
-1.81194600187792 -0.604038381127955 0.23395814636845
-1.75772881509703 -0.451750563267401 0.446163166786137
-1.7820498761542 -0.160404936974603 0.499307404251513
-1.7095204 -1.00832865 0
-1.61883147882883 -0.130699428208656 0.761431475956102
-1.21484538396499 0.246551070091664 1.12895229151744
-1.74894073351994 0.792596065882985 0.208562105905355
-1.76499575 0.9360211 0
-1.59544137412508 0.911968217178779 0.377216512582106
-1.47031524920813 1.12411237356279 0.341811688161088
-1.56974243464844 0.329107818210596 0.770317579658769
-1.70702038510796 0.286736363391573 0.585100711857698
-1.8998818389895 0.24427941625866 0.225025326395838
-1.95566945 0.3892329 0
-1.38365225177149 -1.33881730005203 0.1644267890909
-1.78433563705097 0.392158723102309 0.414816634055017
-1.70320010596101 0.655849703073554 0.41064822002008
-0.841598860592231 0.170981010361035 1.30494569674935
-0.773587517238983 -0.736612112080099 1.21252586610249
-0.536673485223334 -0.682788442351623 1.2395323501216
-1.32895949790351 -0.793293773790629 0.85829074808043
-0.553127786482442 1.13436658583597 0.905278497427936
-0.934899392203171 -0.500557400544119 1.25734818519241
-1.66724404757434 -0.72578558164756 0.434088794236798
-1.69423599044762 -0.872230290132839 0.237007964341817
-0.180152838502028 -1.33416367503176 0.716852532788282
-0.357092468527704 -0.0523554374663193 1.2963345021286
-1.05222314938138 -1.23070123431752 0.721091241406655
-1.0587764451272 -0.231149183275455 1.25854816645172
-1.9316591 -0.4815804 0
-0.507559206152915 -1.83721331459869 0.158707809689962
-1.28401709916141 -1.13979907726322 0.595779113478665
-0.83975762902488 1.56744690073517 0.420189903556791
-1.98281335 -0.19372122 0
-0.58352485877908 -0.917898232628835 1.13081894880922
-0.658560262514973 1.68160590761262 0.355671329700632
-1.18048997356468 0.536667766624033 1.05695813005733
-1.42803391661702 0.587533311902957 0.827833071475634
-1.84432680928251 0.526366108617932 0.217085439916842
-1.34405732569339 -0.530379066628226 0.981457964070348
-1.49018380764573 -0.332717071395485 0.890538685530276
-1.3748951513866 -0.950253553347864 0.677669557349068
-0.157513492060439 0.066972592445291 1.17454602668285
0.00126148922971885 0.198643041168877 1.01056650148622
-0.349323364316408 0.168577718574169 1.26654140018586
-1.02831655969837 -1.60657093085737 0.187703625526731
-0.962171048382508 -1.53287998310029 0.392661078805742
-1.90662326546329 -0.0417035261572362 0.247153107043218
-0.198206227396807 1.75592104577303 0.337058495989524
-1.18568346454458 -1.0293277915558 0.809467185241213
-1.19462608039908 -0.693687320063382 1.03363063762623
-1.0057355 1.73577635 0
-0.188579706969604 0.321282685332793 1.15788644682249
-1.62739426499887 -0.582189206383304 0.599430779432211
-1.64878631170061 -0.363277271235368 0.669026847866403
-0.443011401834138 -1.58881112437843 0.541285849893831
-0.488217412428482 -1.72858066752473 0.349359930239234
0.000671226307697956 -1.59886521327756 0.368383295381332
-0.19740017315404 -1.52808164383914 0.558384817369907
-1.24403423600548 -0.0395403863652103 1.14824712931959
-1.37377067716327 0.115654935505665 1.02671113575515
-1.04799253317133 0.066550869304787 1.2553272789887
-1.51110055992732 -0.77975786100047 0.64300138810301
-1.54924880925227 -1.11112779039495 0.223748181868207
-1.35828468457851 -1.23123358710597 0.380509646184799
-0.810343947063255 1.19768495586243 0.814580977696077
-1.62087872757509 1.04860616245102 0.179711438132498
-0.360450891357304 1.86026848716895 0.193406196938988
-0.766299959772663 0.980604120735554 0.980841894050607
-0.647154027358962 -1.13403593745425 0.98420949780371
-0.38555430015169 -1.2359859297642 0.877602694500276
-0.826907808632504 -0.0627370997725234 1.33919845321858
-0.257254472440016 1.57674850700254 0.53976265414551
-0.47196149220051 1.44047662011106 0.671657280265835
-1.53827070630204 0.756136092972938 0.591750446003217
-0.159891150127516 -0.91833737149415 0.969646807123691
0.00159591121684231 -0.767923155804359 0.857875465351986
0.0013621410045579 -0.983858792452674 0.766381980458369
0.000262200301106589 1.83398229599576 0.187347043930157
-1.04661923636126 1.42098483723392 0.461896372537603
-1.51127698231465 -0.984023639149005 0.457117968311527
-0.71172860817153 -1.58911874812561 0.476636686324261
-1.83990625 -0.75595695 0
-1.61515795 1.18080515 0
-0.977768097041681 0.778238798686995 1.03803831819462
-1.4415574395535 -0.102209837377675 0.975740020242509
-1.53246644453758 0.107721113848529 0.865337275102677
-0.223860985364987 0.843059434889148 1.00635718811647
-0.395908304580832 -1.42488879468577 0.71400531965569
-0.647458810943714 -1.4524985023982 0.67445844920627
-0.590740604602325 0.117327805375376 1.33487513195293
-0.940009130801645 -1.10188746101936 0.920660548860697
-1.5576092 -1.22454185 0
-1.81398798433264 0.118901691895353 0.437917196300083
-1.27159814645395 1.24952197543471 0.455902945392912
-0.595828751324061 1.8076556096762 0.19643121025133
-1.8786663 0.6732537 0
-1.62868893036624 0.511430416467056 0.616196278274399
-1.39197255288258 0.345102016929515 0.959972177698043
-0.703833985913808 0.77391527727359 1.10713223884172
-1.01233458010401 1.01614288844767 0.869149688136355
-0.790567462519431 -0.312695334004378 1.33476191399733
-0.53918539137419 -0.427652613594186 1.31647724065481
-0.833097216223425 1.71287305878973 0.207647163913914
-1.38131850717256 0.834127797052646 0.719207404046096
-0.445714216714512 0.368218173022368 1.25186933101937
-1.87872379447954 -0.320073042309175 0.249532674698592
-1.41855762819466 1.01371592644042 0.530635850290464
0.000340179992741452 -1.80601736749068 0.181383843593533
-0.14517713031523 1.90603522286109 0.14128805413442
-0.89732494794118 -1.41783381109467 0.607933752591299
-1.2144083 1.5986733 0
-0.839290104186296 -0.944130263295943 1.08115117900397
-1.00159579697454 -0.721832535245862 1.14295368303399
-0.717947603113206 -0.53614738066611 1.29292265307762
-0.377173318769437 -1.04294937167277 1.01469676374806
-0.787118094150847 1.41153469886406 0.630887099457937
-0.883196794834717 0.57389690405318 1.17120879474262
-1.29742022452853 -0.287370373503338 1.09174952816797
-0.253018285546639 0.576116466987419 1.12224532002003
-0.76282815 1.85415055 0
-0.144884062869858 -0.430639610994364 1.13196293193238
-1.21835875 -1.56331525 0
-0.21568110058957 1.35900104296974 0.710866113613016
-0.328463546544625 -0.565101589532209 1.21674264408686
-1.08979885291697 -0.902368949771891 0.98624030384781
-0.171407248955914 -1.13083489675213 0.856040945775418
0.00117863712600941 -1.19410405879163 0.654376840028106
-0.571774808258649 1.5731694262822 0.525201417568884
-0.429834927019351 1.7167925270855 0.380109691013264
-1.00262222705004 0.346122911909074 1.21452404461518
-0.239392545 1.9926634 0
-1.49904669755655 -0.574250394055647 0.789303046300475
-0.5108824 1.93913895 0
-0.147669076359332 -0.682665090971861 1.06192920593781
-1.99057705 0.09455719 0
0.000788801366150113 1.43251983253414 0.544590289416652
-0.150691844745053 -0.18010380730893 1.17181890193519
-1.68863007221682 0.0774096375387043 0.658487885937214
-0.344327084126077 -0.817689636219319 1.12696698962809
-0.482211093412816 0.944792294231362 1.01670227412627
0.000532034837701201 1.62712111731382 0.384484649394963
-0.256014955 -1.96108395 0
0.00152487248834989 -0.288700773014229 0.980307543096682
0.000901484230318071 0.688253240342749 0.940477036043048
0.00138973299024144 -0.048678044356666 1.00556280284435
-0.579620663399901 -1.30977865233729 0.830626251939855
0.000156214874856487 1.19446633458241 0.706725628057352
0.000676243642652559 0.945328756489795 0.841035207455156
-1.4129605 1.4199822 0
-1.39429325 -1.4069643 0
-0.50973125 -1.9092283 0
-1.44254922452631 1.25898268787591 0.212350554992223
1.23045681016716 1.04044744854739 0.696183501676052
1.21701000069958 0.784525566696497 0.893659640914223
0.441624274740106 0.739674948147319 1.10674050850884
0.576730847040261 -0.173333426684732 1.34710664262986
1.14907410203538 -0.479915125068151 1.14832934203588
0.341843588882983 -0.308069484977565 1.27396293832183
0.221400579762886 -1.70171509311792 0.382440075356443
0.220573337889108 -1.85695047880949 0.180877439881283
0.807376238180376 -1.27355462456837 0.811791099914184
1.19395208548879 -1.44209022627965 0.278263135598989
1.13749773457441 -1.33789856318746 0.505728496416343
0.9647869 -1.73069085 0
0.776799959190631 -1.70849520632603 0.241119346921141
0.7307993 -1.83799735 0
0.408023149937285 1.2736195407615 0.800005696097674
0.726622013746761 0.358330627847269 1.27183701224393
0.576648238542849 0.567672616059149 1.2002500673455
0.251331401338225 1.10547908538487 0.886718004872252
1.04734696696305 1.57998962262312 0.235574787996078
0.622520775116479 1.30338681999574 0.766822306898041
1.03425905594744 1.23944289053376 0.665067328214314
1.24162889315829 1.42842158505981 0.251203252026763
1.81136938363123 -0.601554892556262 0.234002948838791
1.75614697257868 -0.447453289469633 0.4459246577556
1.77940762542504 -0.159363571747878 0.498525584672123
1.7095204 -1.00832865 0
1.61576556366303 -0.130756959038542 0.75858735875664
1.21403731291754 0.237497443723768 1.12533390057158
1.74880000817508 0.789868153401123 0.20889033598898
1.76499575 0.9360211 0
1.59695467839901 0.903471801106512 0.378876947800346
1.4722363034824 1.11727695565068 0.343445569332568
1.56789089678974 0.325286383715666 0.767316020560949
1.70444841322806 0.285855529412942 0.583476540668521
1.89865942336515 0.244945585866066 0.224703163413144
1.95566945 0.3892329 0
1.383883782111 -1.33712580976286 0.164712248564551
1.78177933673034 0.394209826995623 0.413911243884542
1.70187995691434 0.652546260943957 0.41074720460526
0.84250331048454 0.159571245814129 1.30162404765297
0.77514244044724 -0.726978433320588 1.21049914547303
0.539981001400035 -0.675359280081704 1.23770523505903
1.33055531146275 -0.77687825974567 0.860078869228856
0.554759338459206 1.13148421280462 0.904656261712407
0.933836532659676 -0.501351585072552 1.25109142840507
1.66686359678559 -0.719728701997822 0.434442197038087
1.69415750668103 -0.869260414173764 0.237278459143873
0.182311079536175 -1.33130031619469 0.717429662248244
0.359793335823847 -0.0554401137384765 1.29346276875206
1.05413024259292 -1.22185320770601 0.722830253086566
1.05824586514099 -0.229985097544989 1.2524738640292
1.9316591 -0.4815804 0
0.507866273513163 -1.83637941968366 0.15878332312516
1.28533919348499 -1.13169249470649 0.59713029416383
0.841391711939897 1.56442055621187 0.420879651329713
1.98281335 -0.19372122 0
0.58681089059284 -0.902699782612402 1.13411545502638
0.659608460030151 1.67995709525208 0.355899687594454
1.18075120423734 0.52889829389934 1.05438935746884
1.42807695818152 0.581503440100737 0.824711289602698
1.84332412661138 0.525774145798821 0.216913173463775
1.34230217486438 -0.523690938259448 0.978334947566966
1.48688270346802 -0.334631498055473 0.886586454193639
1.3761101763968 -0.939509792221029 0.67905294731175
0.160278136812895 0.0653203848412682 1.17315340312773
0.351821799541696 0.165234142982356 1.26428920858943
1.02871916652261 -1.60494432565999 0.188041952623899
0.963081530924619 -1.52930521077909 0.393393545457345
1.90535818426751 -0.0408872616045663 0.246853133884081
0.199012736428116 1.7555419181143 0.337063405987383
1.18776702427474 -1.01689650283993 0.811538555366678
1.19463786404484 -0.68393199611219 1.03128612118451
1.0057355 1.73577635 0
0.191025966238727 0.319103307946718 1.15672470130489
1.62654896631256 -0.572557474713164 0.59986444156936
1.64590014580009 -0.358452767992537 0.668098521267663
0.444461536460383 -1.58569632256609 0.541955151701095
0.489076656262723 -1.72665621275312 0.349697974270412
0.199060917160276 -1.52612146803423 0.558824008190742
1.24173895136513 -0.0485370677407072 1.14344153942108
1.37202330317013 0.109105299721545 1.02249147472148
1.04708614758297 0.0562597088725647 1.25088353774545
1.51136427827301 -0.769372997174365 0.643764878042117
1.54945294880435 -1.10849263349299 0.224105918399298
1.35898146406103 -1.22667498071259 0.381267338260224
0.812134497794605 1.19380957833325 0.813879132857936
1.62171788033187 1.04501878045774 0.180512591440097
0.360889903524651 1.8598426386077 0.193400596612519
0.767763172908328 0.976322003716306 0.979678942906278
0.650565922014932 -1.122789183034 0.986918554383143
0.387950335645831 -1.22961625788067 0.878982503700244
0.82793139831915 -0.0636877593551426 1.3334369845046
0.258625381041373 1.57603411131585 0.539729767250845
0.473652709696876 1.43867675044963 0.671484803613917
1.53803089711779 0.751451447397189 0.590023406503943
0.162634322694338 -0.912360156700041 0.970584309956888
1.05003291034441 1.41416395024227 0.464433177161137
1.51179281343848 -0.977532851654585 0.457909905204399
0.712916963161017 -1.58549321309847 0.477393533603682
1.83990625 -0.75595695 0
1.61515795 1.18080515 0
0.978741742292132 0.772422923444538 1.03618094007984
1.43903232244221 -0.105160323113841 0.971117421307953
1.53043967236581 0.103983489883064 0.861226673157676
0.22557338120819 0.84114197935224 1.0058684399732
0.397876217017204 -1.42042943850608 0.71502134023145
0.649277500426424 -1.44704092479051 0.675662118420859
0.593275661759814 0.112570096278201 1.33113401755888
0.942728014160353 -1.08922394670951 0.923262768197914
1.5576092 -1.22454185 0
1.81150304524256 0.120653613520876 0.43723645320322
1.27453365669097 1.2409468798118 0.45873844075207
0.596342206526764 1.80687150703648 0.196505540877546
1.8786663 0.6732537 0
1.62644896458364 0.51009564054371 0.614125373257103
1.3914343869725 0.337187081865748 0.956441155864604
0.705241316035234 0.768667078449829 1.10581089986156
1.01368191394734 1.01158467526319 0.867533290433577
0.790784572198721 -0.318416623937062 1.32831384816233
0.542344998166295 -0.428159232821021 1.31198588040414
0.833823094374757 1.71151875529529 0.207942025235175
1.3807173230248 0.832433225293141 0.715568392750542
0.447887404653882 0.363131450771161 1.24999039294737
1.87761052196668 -0.31862017444513 0.249322414583495
1.42126262637349 1.00364022795431 0.532171537461945
0.145525334512305 1.90589556327203 0.141308619286597
0.898897246150832 -1.41189744221191 0.609188988220799
1.2144083 1.5986733 0
0.842385513486429 -0.92692201709204 1.08487274381228
1.0010360815223 -0.71584661239408 1.13922452416342
0.719330484676607 -0.533702214988651 1.28795263807647
0.379447902175814 -1.03439255725049 1.01612709754301
0.789144013515471 1.407876053033 0.631091829278094
0.884232517845923 0.565785728491238 1.16947345718978
1.29441490188352 -0.291382201802337 1.08650115279825
0.255103676467249 0.57331183943416 1.12134664284484
0.76282815 1.85415055 0
0.148433906782022 -0.431314652833008 1.13045680604091
0 2.0125 0
1.21835875 -1.56331525 0
0.217684973257107 1.35906477518723 0.710395300833926
0.33208155653396 -0.565338517603268 1.21382325432942
1.09295356205558 -0.884225279144517 0.989340244474734
0.173927038688587 -1.1267738233064 0.856709183140382
0.573235945049239 1.57117683616324 0.525324750383973
0.430781545936915 1.71578085505215 0.38014865212746
1.00312065121724 0.333392901256991 1.21249307196265
0.239392545 1.9926634 0
1.49846874839214 -0.561440528853868 0.789088503062503
0.5108824 1.93913895 0
0.151962733203488 -0.683274327435472 1.06079141350602
1.99057705 0.09455719 0
0 -1.98229815 0
0.153819819424654 -0.181334733289854 1.17024571063901
1.68557908438096 0.0788790638159198 0.656446349651011
0.346541219145614 -0.808338149131061 1.12745130996684
0.483787018239201 0.941539035584653 1.01594423842437
0.256014955 -1.96108395 0
0.00164893406062315 -0.530568319431961 0.931167968425298
0.00110451282694864 0.447259328675697 0.992198316791612
0.581991362249146 -1.30257619708425 0.832229203451765
0.000952014227365846 -1.3995321312866 0.521458920981235
1.4129605 1.4199822 0
1.39429325 -1.4069643 0
0.50973125 -1.9092283 0
1.4437697639374 1.25520109102254 0.213433003834249
3 0 1 122
3 78 52 7
3 101 21 116
3 45 23 22
3 152 58 27
3 136 124 123
3 60 118 35
3 53 63 102
3 28 29 118
3 66 64 74
3 102 85 86
3 26 160 24
3 97 99 98
3 41 136 40
3 125 18 54
3 9 10 86
3 22 104 46
3 46 102 45
3 111 77 110
3 54 57 125
3 80 47 110
3 116 129 0
3 9 67 68
3 106 122 1
3 59 126 96
3 72 42 147
3 71 53 49
3 51 22 128
3 129 31 30
3 68 10 9
3 53 102 86
3 35 34 60
3 44 123 50
3 40 56 41
3 30 38 96
3 111 8 132
3 25 114 85
3 49 113 71
3 33 115 160
3 138 54 101
3 46 85 102
3 68 67 12
3 145 95 14
3 81 82 107
3 2 16 141
3 147 71 113
3 95 94 150
3 89 117 151
3 12 11 13
3 32 59 119
3 139 16 121
3 128 55 51
3 24 23 76
3 36 114 172
3 117 89 155
3 143 5 146
3 45 84 75
3 28 118 60
3 45 75 23
3 22 51 104
3 60 34 37
3 88 28 30
3 145 169 158
3 122 106 90
3 94 151 150
3 162 17 43
3 71 147 42
3 140 107 62
3 112 39 93
3 103 12 78
3 64 48 159
3 4 72 135
3 151 94 70
3 68 12 103
3 86 85 36
3 154 62 76
3 31 129 116
3 37 34 115
3 161 97 156
3 149 148 47
3 83 50 93
3 121 2 162
3 81 107 140
3 1 126 59
3 20 122 87
3 163 94 158
3 115 33 37
3 32 120 59
3 89 131 153
3 89 153 155
3 29 88 105
3 23 24 128
3 154 61 62
3 128 24 69
3 125 57 117
3 34 35 157
3 327 7 164
3 63 42 84
3 70 100 131
3 106 139 121
3 43 19 87
3 14 95 19
3 93 3 112
3 108 107 82
3 141 74 334
3 64 65 74
3 6 79 80
3 156 143 146
3 138 20 87
3 26 107 108
3 0 20 116
3 8 111 168
3 119 38 37
3 129 96 126
3 108 160 26
3 10 53 86
3 132 103 111
3 62 26 76
3 117 155 142
3 119 33 32
3 144 9 36
3 86 36 9
3 76 75 154
3 55 128 69
3 29 28 88
3 130 6 7
3 23 75 76
3 53 10 49
3 164 7 52
3 114 36 85
3 45 22 46
3 25 85 46
3 4 44 50
3 152 39 15
3 121 162 90
3 137 97 161
3 139 15 16
3 19 138 87
3 150 54 138
3 333 143 156
3 141 334 166
3 107 26 62
3 115 24 160
3 136 41 124
3 1 59 58
3 42 72 61
3 138 19 95
3 77 6 80
3 113 49 8
3 78 6 77
3 7 6 78
3 120 108 82
3 70 163 100
3 127 66 74
3 151 70 89
3 84 154 75
3 115 69 24
3 42 61 154
3 67 11 12
3 10 68 132
3 123 124 3
3 161 146 41
3 97 148 99
3 143 165 159
3 139 58 152
3 156 98 333
3 113 8 91
3 120 58 59
3 53 71 63
3 92 91 168
3 4 140 61
3 62 61 140
3 27 82 81
3 57 150 151
3 119 96 38
3 108 32 160
3 24 76 26
3 103 77 111
3 154 84 42
3 327 130 7
3 49 132 8
3 69 34 157
3 30 28 38
3 125 73 18
3 9 144 67
3 103 132 68
3 141 16 127
3 34 69 115
3 45 102 84
3 128 22 23
3 83 152 27
3 3 93 123
3 109 166 170
3 43 90 162
3 44 40 136
3 148 97 137
3 92 47 148
3 148 137 92
3 20 138 101
3 8 168 91
3 32 108 120
3 163 70 94
3 101 116 20
3 16 2 121
3 48 64 66
3 52 78 12
3 52 12 13
3 80 110 77
3 80 79 336
3 49 10 132
3 103 78 77
3 117 57 151
3 63 71 42
3 60 38 28
3 160 32 33
3 30 96 129
3 3 48 112
3 83 93 39
3 56 40 134
3 146 124 41
3 92 110 47
3 138 95 150
3 81 50 83
3 96 119 59
3 167 159 165
3 94 95 145
3 44 135 40
3 112 66 127
3 0 129 126
3 134 147 113
3 27 120 82
3 141 166 109
3 73 133 18
3 72 4 61
3 97 98 156
3 142 73 125
3 125 117 142
3 88 174 105
3 37 33 119
3 67 144 11
3 84 102 63
3 54 150 57
3 333 165 143
3 87 90 43
3 123 44 136
3 113 91 134
3 134 40 135
3 137 91 92
3 127 16 15
3 5 159 48
3 2 109 162
3 159 5 143
3 161 41 56
3 90 87 122
3 39 112 15
3 4 135 44
3 120 27 58
3 168 110 92
3 145 158 94
3 168 111 110
3 112 48 66
3 162 109 17
3 91 137 56
3 50 140 4
3 146 5 124
3 27 81 83
3 56 137 161
3 50 81 140
3 14 19 43
3 127 15 112
3 58 106 1
3 167 64 159
3 91 56 134
3 147 134 135
3 17 14 43
3 139 106 58
3 2 141 109
3 83 39 152
3 3 5 48
3 15 139 152
3 161 156 146
3 106 121 90
3 70 131 89
3 50 123 93
3 153 131 313
3 135 72 147
3 127 74 141
3 122 20 0
3 17 170 169
3 3 124 5
3 21 171 174
3 145 14 17
3 313 131 100
3 74 65 334
3 1 0 126
3 88 30 31
3 47 336 149
3 47 80 336
3 17 169 145
3 79 6 130
3 148 149 99
3 60 37 38
3 65 64 167
3 69 157 55
3 170 17 109
3 25 46 104
3 101 54 18
3 172 144 36
3 52 13 173
3 21 101 18
3 21 18 133
3 174 31 116
3 173 164 52
3 88 31 174
3 21 133 171
3 174 116 21
3 174 171 105
3 175 292 176
3 252 182 227
3 271 286 196
3 220 197 198
3 321 202 233
3 305 293 294
3 235 210 288
3 228 272 238
3 203 288 204
3 240 248 239
3 272 259 258
3 201 199 329
3 270 98 99
3 216 215 305
3 295 229 193
3 184 259 185
3 197 221 274
3 221 220 272
3 281 280 251
3 229 295 232
3 253 280 222
3 286 175 299
3 184 242 241
3 276 176 292
3 234 269 296
3 246 317 217
3 245 224 228
3 226 298 197
3 299 205 206
3 242 184 185
3 228 259 272
3 210 235 209
3 219 225 293
3 215 216 231
3 205 269 213
3 281 301 183
3 200 258 284
3 224 245 283
3 208 329 285
3 307 271 229
3 221 272 258
3 242 187 241
3 315 189 268
3 254 277 255
3 177 310 191
3 317 283 245
3 268 319 267
3 262 320 287
3 187 188 186
3 207 289 234
3 308 291 191
3 298 226 230
3 199 250 198
3 211 338 284
3 287 324 262
3 312 316 180
3 220 249 257
3 203 235 288
3 220 198 249
3 197 274 226
3 235 212 209
3 261 205 203
3 315 158 169
3 292 263 276
3 267 319 320
3 331 218 192
3 245 217 317
3 309 237 277
3 282 266 214
3 273 252 187
3 239 328 223
3 179 304 246
3 320 244 267
3 242 273 187
3 259 211 258
3 323 250 237
3 206 286 299
3 212 285 209
3 330 325 270
3 149 222 318
3 256 266 225
3 291 331 177
3 254 309 277
3 176 234 296
3 195 260 292
3 163 158 267
3 285 212 208
3 207 234 290
3 262 322 300
3 262 324 322
3 204 275 261
3 198 298 199
3 323 237 236
3 298 243 199
3 295 287 232
3 209 326 210
3 327 332 182
3 238 257 217
3 244 300 100
3 276 291 308
3 218 260 194
3 189 194 268
3 266 282 178
3 278 255 277
3 310 334 248
3 239 248 65
3 181 253 79
3 325 316 312
3 307 260 195
3 201 278 277
3 175 286 195
3 183 335 281
3 289 212 213
3 299 296 269
3 278 201 329
3 185 259 228
3 301 281 273
3 237 250 201
3 287 311 324
3 289 207 208
3 314 211 184
3 259 184 211
3 250 323 249
3 230 243 298
3 204 261 203
3 130 182 181
3 198 250 249
3 228 224 185
3 332 227 182
3 284 258 211
3 220 221 197
3 200 221 258
3 179 225 219
3 321 190 214
3 291 263 331
3 306 330 270
3 308 191 190
3 194 260 307
3 319 307 229
3 333 325 312
3 310 166 334
3 277 237 201
3 285 329 199
3 305 294 216
3 176 233 234
3 217 236 246
3 307 268 194
3 251 253 181
3 283 183 224
3 252 251 181
3 182 252 181
3 290 255 278
3 244 100 163
3 297 248 240
3 320 262 244
3 257 249 323
3 285 199 243
3 217 323 236
3 241 187 186
3 185 301 242
3 293 178 294
3 330 216 316
3 270 99 318
3 312 328 165
3 308 321 233
3 325 333 98
3 283 264 183
3 290 234 233
3 228 238 245
3 265 335 264
3 179 236 309
3 237 309 236
3 202 254 255
3 232 320 319
3 289 213 269
3 278 329 207
3 199 201 250
3 273 281 251
3 323 217 257
3 327 182 130
3 224 183 301
3 243 326 209
3 205 213 203
3 295 193 247
3 184 241 314
3 273 242 301
3 310 297 191
3 209 285 243
3 220 257 272
3 298 198 197
3 256 202 321
3 178 293 266
3 279 170 166
3 218 331 263
3 219 305 215
3 318 306 270
3 265 318 222
3 318 265 306
3 195 271 307
3 183 264 335
3 207 290 278
3 163 267 244
3 271 195 286
3 191 291 177
3 223 240 239
3 227 187 252
3 227 188 187
3 253 251 280
3 253 336 79
3 224 301 185
3 273 251 252
3 287 320 232
3 238 217 245
3 235 203 213
3 329 208 207
3 205 299 269
3 178 282 223
3 256 214 266
3 231 303 215
3 316 216 294
3 265 222 280
3 307 319 268
3 254 256 225
3 269 234 289
3 167 165 328
3 267 315 268
3 219 215 304
3 282 297 240
3 175 296 299
3 303 283 317
3 202 255 290
3 310 279 166
3 247 193 302
3 246 236 179
3 270 325 98
3 311 295 247
3 295 311 287
3 261 275 340
3 212 289 208
3 241 186 314
3 257 238 272
3 229 232 319
3 333 312 165
3 260 218 263
3 293 305 219
3 283 303 264
3 303 304 215
3 306 265 264
3 297 190 191
3 180 223 328
3 177 331 279
3 328 312 180
3 330 231 216
3 263 292 260
3 214 190 282
3 179 219 304
3 290 233 202
3 335 265 280
3 315 267 158
3 335 280 281
3 282 240 223
3 331 192 279
3 264 231 306
3 225 179 309
3 316 294 180
3 202 256 254
3 231 330 306
3 225 309 254
3 189 218 194
3 297 282 190
3 233 176 276
3 167 328 239
3 264 303 231
3 317 304 303
3 192 218 189
3 308 233 276
3 177 279 310
3 256 321 214
3 178 223 180
3 190 321 308
3 330 316 325
3 276 263 291
3 244 262 300
3 225 266 293
3 322 313 300
3 304 317 246
3 297 310 248
3 292 175 195
3 192 169 170
3 178 180 294
3 196 340 337
3 315 192 189
3 313 100 300
3 248 334 65
3 176 296 175
3 261 206 205
3 222 149 336
3 222 336 253
3 192 315 169
3 79 130 181
3 318 99 149
3 235 213 212
3 65 167 239
3 243 230 326
3 170 279 192
3 200 274 221
3 271 193 229
3 338 211 314
3 227 339 188
3 196 193 271
3 196 302 193
3 340 286 206
3 339 227 332
3 261 340 206
3 196 337 302
3 340 196 286
3 340 275 337
