OFF
341 634 0
-1.75539837488763 1.48652425066865 1.00137113521427
-1.73493626378561 1.12071938549237 1.28399945980236
-0.62530417347393 1.04352348394524 1.58494229931615
-0.818757704158555 -0.25378305097464 1.91725747518673
-1.63337741172648 -0.70938118458478 1.63910886807524
-0.488259031608805 -0.43953300708187 1.81261659785399
-0.315360010255768 -2.4448845639794 0.525620885244102
-0.313727892648687 -2.65734017950986 0.247881980186594
-1.15033906596644 -1.82868954122901 1.15136983642025
-1.70326917458979 -2.06722221246461 0.391724296103797
-1.62045235624114 -1.9250474398144 0.713187754324195
-1.378267 -2.4724155 0
-1.10780943054347 -2.4468299344952 0.335634813527345
-1.043999 -2.6257105 0
-0.581066829415734 1.78827868742581 1.16260605375884
-1.03077651208084 0.512702539721755 1.81507826777442
-0.816428173301956 0.796847288808873 1.71797474613788
-0.356188709263539 1.53810461920311 1.28580514921494
-1.49788946989298 2.25737370189696 0.336639949711266
-0.889155856841107 1.84083283685357 1.11278489667005
-1.47112612708951 1.77761613701837 0.95119760253902
-1.77423736893639 2.04147626406505 0.359668322132116
-2.58700933169831 -0.861532421385312 0.334811175469077
-2.50866218962769 -0.642013484025052 0.63959863123948
-2.54208208288471 -0.228496435450554 0.71622554647516
-2.442172 -1.4404695 0
-2.30781309548318 -0.189766419086045 1.09005638113012
-1.72931135207444 0.346846535304509 1.61232711835577
-2.49774894628407 1.12957780212759 0.299617121210171
-2.5214225 1.337173 0
-2.28043066017663 1.2933571903206 0.543973477185056
-2.10207539361087 1.59893613591889 0.492623982084058
-2.23835528636885 0.470022691453468 1.10238098671256
-2.43446312705413 0.411110360205358 0.838577129253438
-2.71193949916231 0.350601934813697 0.322584165120868
-2.7938135 0.556047 0
-1.97579356285429 -1.91365024196853 0.232826656381586
-2.54499933844738 0.56511468339858 0.594751763025395
-2.43061411522991 0.934747163986767 0.589940091012225
-1.19643983119936 0.231532352225297 1.85797813892807
-1.1020221939721 -1.04265353671795 1.72439868996967
-0.766323873523851 -0.960458523718139 1.76285442851712
-1.89463666436412 -1.12908067163067 1.22746996456337
-0.788667859213447 1.58814596239363 1.31099578448611
-1.32770763931177 -0.725481137603431 1.78425195657856
-2.38038260352216 -1.03400225026366 0.621330974016824
-2.41904534345263 -1.24564056269791 0.338230248732309
-0.259050704951246 -1.90461195989287 1.01970526725622
-0.512739865784256 -0.0920100726756747 1.83971082405157
-1.50217422694745 -1.75694545509217 1.02640320748672
-1.50502458445851 -0.339273639385591 1.79078975037341
-2.759513 -0.687972 0
-0.724596869367308 -2.62593554882284 0.221379602179092
-1.82832726974895 -1.63694658624186 0.844839617108867
-1.20361373980125 2.2365283046564 0.600035981981686
-2.8325905 -0.2767446 0
-0.834002269994989 -1.29181765261372 1.61361157587362
-0.935061369340787 2.41882175831786 0.486023052566043
-1.68126267093222 0.759624891661569 1.51190027888106
-2.03748395921269 0.833769377403476 1.1852173003765
-2.63282228524611 0.752123328057089 0.311281693768034
-1.9140096516636 -0.759048154327459 1.40088985620772
-2.1241049307373 -0.475800087297991 1.27275443287719
-1.95982101073886 -1.36142845171715 0.96562415716653
-0.230564644561677 0.0696855433717499 1.67303983727529
-0.00302621414701694 0.244659339264862 1.45072280330254
-0.499707879482702 0.214609191429395 1.80128203832235
-1.46801627842423 -2.29762519652337 0.263206829520612
-1.37201801795038 -2.19621232022567 0.550164851086215
-2.72159986797091 -0.0583600307384805 0.354260499567507
-0.286899588907655 2.52748211131105 0.453705285224807
-1.68763440941143 -1.47437261419191 1.15261433462801
-1.70140546886739 -0.984766831577622 1.47564045490077
-1.436765 2.4796805 0
-0.27090059356945 0.427714011409591 1.65261013660076
-2.32369412777474 -0.822306890657966 0.85966981573576
-2.35157807857778 -0.513874800496904 0.959130008927167
-0.631570265381385 -2.29210807613854 0.738853693568201
-0.696026955492798 -2.47665818324812 0.482941772812271
-0.000526049656284299 -2.30977463330108 0.511323114384941
-0.28512700722859 -2.20148672710244 0.775102984276356
-1.77070206533441 -0.0637442117793568 1.63826114458145
-1.95691678179704 0.161000202764321 1.46728575972213
-1.49025737721459 0.0852192238071139 1.78895130646806
-2.15761383089679 -1.10938075137294 0.919674119486057
-2.21192294993879 -1.5881526825008 0.318076425771796
-1.93808883707726 -1.76247894307782 0.539574774891131
-1.15715972877447 1.69633682969599 1.17294019615375
-2.31614246162366 1.49412151079044 0.258979932779168
-0.514517349166078 2.66499595782579 0.262459386039865
-1.09188516382514 1.38157538000775 1.41036021283732
-0.924983214783192 -1.61097829870791 1.40125248802975
-0.550876345076768 -1.74958494823929 1.25588209009151
-1.17544436824516 -0.101232092435963 1.90335893069821
-0.371806727152259 2.25211586347639 0.764619680598841
-0.676874172075892 2.04646638256923 0.964938079530892
-2.19527016720094 1.07811035462021 0.847601458644703
-0.232427147212926 -1.2938040322504 1.38900627619934
-0.00202647837296619 -1.08799367998668 1.23742393127108
-0.00181812513848153 -1.40840610618468 1.10247319585334
-0.000464403529535164 2.64432810492765 0.243811608775685
-1.50189261662835 2.01801009898376 0.668119594905303
-2.15686503329479 -1.40741900748974 0.651608696139066
-1.0133017215591 -2.28210815537589 0.659697527671784
-2.6284375 -1.0799385 0
-2.3073685 1.6868645 0
-1.39275039613483 1.09932915530994 1.48747224171812
-2.0537915078288 -0.150766443725205 1.39441719411819
-2.18472993020192 0.150902393450445 1.23789298360655
-0.317791392498301 1.16401783580962 1.4495402269367
-0.567031193483872 -2.04356727791505 1.0036238054246
-0.921536049384865 -2.08737601950241 0.942124980833672
-0.840707665235083 0.149309804482714 1.89743598917594
-1.34014855096512 -1.57011303401346 1.31071028227093
-2.225156 -1.7493455 0
-2.58769745513304 0.173488563313086 0.628384705450222
-1.81827930312796 1.77831769169912 0.656167132186451
-0.848407270524799 2.59043423367834 0.267377226973503
-2.683809 0.961791 0
-2.32257720887104 0.732143014589791 0.882448803611523
-1.98344921216122 0.490809027949937 1.37284026687996
-1.00089452838289 1.08852240790364 1.58561472312779
-1.44393246410599 1.44258684269839 1.24683006630322
-1.12375634332104 -0.450844357404684 1.89464630782445
-0.769286862318064 -0.60102038386887 1.86900110899291
-1.18350187300948 2.45840532574312 0.281719950758534
-1.96815532351847 1.19612218146634 1.02714927159753
-0.634188219592676 0.508376723824517 1.78249623668503
-2.68191423535759 -0.456064150844656 0.357465611797985
-2.02846358964938 1.43745462759141 0.764141691825223
-0.000258624624331287 -2.595225600938 0.24742445151728
-0.207960966873818 2.73104381170643 0.187433203724246
-1.27596980932051 -2.03830876732423 0.85034983012496
-1.734869 2.283819 0
-1.19994756619976 -1.32299855651625 1.54935734541423
-1.42381510796416 -1.03234800733457 1.62475237456799
-1.02168147502975 -0.761649157421835 1.83557989999272
-0.542901325603224 -1.48158488547748 1.44445495281298
-1.13144487318863 1.99842926988512 0.91442964153845
-1.25619741204161 0.806723342132881 1.67419668512899
-1.84677042892095 -0.416850546795219 1.55703420299776
-0.359432372210229 0.790400697848321 1.60666093322951
-1.0897545 2.6487865 0
-0.21452542911861 -0.613662322583832 1.61344374415556
-1.7405125 -2.2333075 0
-0.309895478959622 1.91257907604405 1.0302049445928
-0.472749579511667 -0.792831474831564 1.73134226772778
-1.55437154604142 -1.27550491801885 1.41114183047794
-0.249398182159019 -1.60914323242306 1.22230852784392
-0.00120443309170183 -1.72114735186684 0.935107369055855
-0.818278792930269 2.2496598953363 0.743945050081202
-0.612187202783274 2.47185616691749 0.515262226672166
-1.42597958155021 0.485189709091473 1.73321559667395
-0.34198935 2.846662 0
-2.14174170137521 -0.802655073710762 1.13145970772593
-0.729832 2.7701985 0
-0.216739421975964 -0.957048458337216 1.51876732713764
-2.8436815 0.1350817 0
-0.000261724674430136 2.02730881567083 0.793219893881
-0.222776308368736 -0.270946150723109 1.66797298785951
-2.40772770991723 0.114217719425935 0.943653024334755
-0.492034487187473 -1.13427513816955 1.61310712267485
-0.685100898972009 1.3174506289678 1.46527675219103
-0.000501144046424693 2.32730080723555 0.547955847662299
-0.36573565 -2.8015485 0
-0.00246212531119889 -0.428684407542951 1.40791113126233
-0.00070057494604382 0.945368878780511 1.35232766962137
-0.00280887275243651 -0.0984901477311007 1.44369624847714
-0.827392881802727 -1.8645708592337 1.18275566043127
-1.86133689022234e-05 1.67333281574829 1.02889156040714
-4.00321380360201e-05 1.31617664612822 1.21480828468157
-2.018515 2.028546 0
-1.9918475 -2.009949 0
-0.7281875 -2.727469 0
-2.0620679751388 1.79489094706553 0.305540431909999
1.75466032732696 1.49163991034755 1.00007485668976
1.73574714562824 1.12258496852682 1.28502691946874
0.626106673487238 1.0397296678669 1.58992622314765
0.816775867805737 -0.262988479001254 1.92126684645397
1.63591773128007 -0.691334838454108 1.64694156690765
0.485139584837618 -0.449220994573069 1.81558423295336
0.314559035945877 -2.44235784141846 0.529314000943335
0.313452684257401 -2.65644290756186 0.249578506052711
1.14032856053649 -1.85372580089622 1.13238724072861
1.70285512889656 -2.06818556201401 0.391247693371843
1.61898649671318 -1.92887839504549 0.710544434161016
1.378267 -2.4724155 0
1.10777903161979 -2.44638224980935 0.337313740412748
1.043999 -2.6257105 0
0.582019798717272 1.79730822266456 1.15819452396769
1.03068357725676 0.510979937372708 1.81962203241656
0.817650786451522 0.799825388476512 1.72073632825627
0.357676004796351 1.55407169875341 1.27911776087673
1.49758242278673 2.25868535489306 0.336012186321015
0.889938140391572 1.84791249281734 1.10939284148125
1.4743458837175 1.77566535174334 0.95344788145287
1.77381163586129 2.04297062220271 0.359123079632315
2.58692114345346 -0.86238238026676 0.33490351250647
2.50848755978536 -0.643949508712055 0.639955672041994
2.54222149868258 -0.229575977968241 0.717021298689211
2.442172 -1.4404695 0
2.30797693502637 -0.190379185163936 1.09160690990398
1.72959428818896 0.347657094696997 1.61530391530891
2.49808234022008 1.12934344482718 0.299994929287929
2.5214225 1.337173 0
2.28130005619399 1.29251474567016 0.544837454769031
2.10260380157173 1.59911755264726 0.493116875443756
2.2388514927328 0.470150318330343 1.10387552873617
2.43487832551294 0.410897344920727 0.839656618447742
2.71212678915996 0.350388368902512 0.322957896210291
2.7938135 0.556047 0
1.9757435783997 -1.91405262476545 0.232606198108838
2.54537180158074 0.564838431639565 0.595488573535155
2.43117282294094 0.934332219809142 0.590700749211408
1.19602232604807 0.229602903047895 1.86247331640358
1.09924936700163 -1.04181033587524 1.72869411587616
0.762458360320521 -0.954508329667785 1.76837060500214
1.89519302124009 -1.13195831589406 1.22720975942011
0.791074017848104 1.60042609720738 1.3054561063038
1.32827418908296 -0.711234728556232 1.79216506531612
2.38004157846382 -1.03581439441912 0.621391115927613
2.41899104680834 -1.24625861952998 0.33817489994795
0.259452239980857 -1.92217783108305 1.00837676339562
0.509113237061786 -0.115611371995479 1.84462508244092
1.49380622859569 -1.77726616703332 1.01288509936698
1.50497156104939 -0.334763262864274 1.79542340139676
2.759513 -0.687972 0
0.72456647551438 -2.62544239661968 0.22277096412101
1.83043087555544 -1.63638767321188 0.844564059215995
1.20292806141415 2.23937540127843 0.598536853650582
2.8325905 -0.2767446 0
0.829566385357627 -1.29524705314768 1.61467434449787
0.934695385081879 2.41980339639839 0.486229013927313
1.68198018315526 0.760540617142523 1.51416910733725
2.03822957516474 0.834241712731137 1.1866637102077
2.63307019194646 0.751933350265329 0.311652619970852
1.91527754337951 -0.75563253517284 1.40391799923477
2.12419718384218 -0.476502801715744 1.27468796400808
1.96125131764237 -1.36068670955808 0.966226617622155
0.224999069286308 0.0491800071159932 1.67670206337187
0.496883267587227 0.207705193765974 1.80673770868331
1.46782379800125 -2.29782674616781 0.263519905036515
1.37155528218382 -2.19685538100094 0.550661481363044
2.72174216823116 -0.058766207519359 0.354630228160905
0.285367958868323 2.52315980239702 0.459314167913984
1.68877878511423 -1.47809446702745 1.15046935396118
1.70136537294896 -0.987911615632274 1.47722812321336
1.436765 2.4796805 0
0.267891820900248 0.426644071014182 1.65626021552413
2.32294295396359 -0.826293487845581 0.85980664494856
2.35136587366188 -0.516988593171211 0.959936002428583
0.630803178721151 -2.28273406929855 0.75179643268113
0.695803789482122 -2.47426402870002 0.487507114044881
0.283398580942469 -2.19952335037607 0.777540330093671
1.77083761261497 -0.0616241900773055 1.64163019130646
1.95717116665023 0.162002170979519 1.46983917956656
1.490163198566 0.0856378475514689 1.79293081637767
2.15682710772472 -1.11235136053929 0.919936534486656
2.21195361633682 -1.58859653384189 0.317885048213865
1.9381990799192 -1.76348475608036 0.538934369197666
1.15994732435121 1.69651063950038 1.17439712768206
2.31640925285373 1.49414575582684 0.259254539335107
0.514180969462861 2.66963716245382 0.256027978846831
1.09397681205618 1.3863810044106 1.40989286652234
0.920151506537474 -1.62055603872094 1.39740282131544
0.548181284520737 -1.76790989120966 1.24381337685434
1.17459081460605 -0.104059579398583 1.90780953340893
0.37122820165778 2.25299140208716 0.764994458784333
0.676699304918928 2.05190050084046 0.962020607987864
2.19627537519934 1.07739049358852 0.848777204701422
0.227988503410543 -1.29382903083915 1.38999034803461
1.5016356452225 2.02077088190664 0.666901397625128
2.15708692926921 -1.40810067685806 0.65146610053968
1.0131851179956 -2.27997952091103 0.664465045366273
2.6284375 -1.0799385 0
2.3073685 1.6868645 0
1.39406121884945 1.10121133556632 1.48902251309784
2.05399444413409 -0.149590921668847 1.39690217851723
2.18503483897032 0.151237336522994 1.23979386353043
0.318914618069127 1.17611856133928 1.44704749865041
0.565665933816293 -2.06136976323157 0.988158458324682
0.918601543340536 -2.09902777876023 0.931247916877393
0.839353446167489 0.143768915852023 1.90282115242243
1.33548505345928 -1.58272624676615 1.30526006779323
2.225156 -1.7493455 0
2.58796340531651 0.173069660301589 0.62915626214626
1.81670273148031 1.78240432786031 0.654981846481651
0.848286546915083 2.59128504054395 0.267103380979074
2.683809 0.961791 0
2.32318801417285 0.731968524162003 0.883564187003508
1.98391898322278 0.491419817206498 1.37494535906648
1.00271904324339 1.08946713402692 1.58838792740127
1.44541618525062 1.44446169930779 1.24743445153222
1.12251651236846 -0.456021155057581 1.89836523264879
0.767555595353229 -0.610036885619675 1.87126794933632
1.18323887018707 2.45937078460822 0.281339820508429
1.96906098352505 1.19672523741869 1.02806814118121
0.633261493437877 0.501271851674967 1.78898622581656
2.6819518807008 -0.456782542132612 0.35773351131653
2.03113900888221 1.43367747006354 0.766376678062581
0.209262870818287 2.73613553862862 0.18074090091767
1.27579641229545 -2.04011275775975 0.850072797405028
1.734869 2.283819 0
1.19389295336642 -1.34035154102004 1.54329821864582
1.42476272173153 -1.02580536105989 1.63116747649549
1.01993320288387 -0.752916834052436 1.84198805563419
0.537923728883356 -1.48102385234523 1.44659930973622
1.12962980861044 2.0071307064853 0.908608945096241
1.25708467175509 0.807524783486813 1.67710800651583
1.84728273715098 -0.412021449208345 1.56080585803532
0.35924983775269 0.795060797572618 1.60893885117202
1.0897545 2.6487865 0
0.21039218783257 -0.61768204821925 1.61504101678034
0 2.875 0
1.7405125 -2.2333075 0
0.310106606340682 1.91781423301119 1.02789759887615
0.469652768104047 -0.795645594848598 1.73393205364609
1.55300690259553 -1.28358658133868 1.40963942288554
0.244301409839873 -1.60880614128764 1.22267269503263
0.81761372817023 2.25229514970163 0.742933708411756
0.612016377506245 2.46938071044491 0.519429854664097
1.42622391721526 0.485088117528032 1.73680851112933
0.34198935 2.846662 0
2.13971284235382 -0.812769469397539 1.13086633370151
0.729832 2.7701985 0
0.212571058691679 -0.958228785677173 1.52005872281023
2.8436815 0.1350817 0
0 -2.8318545 0
0.218325530681958 -0.280745585725617 1.67015850839282
2.40803461963606 0.113905226578653 0.944924914718816
0.487783075368281 -1.13441041816846 1.61544265631434
0.687932349649054 1.32943190047337 1.46196181155767
0.36573565 -2.8015485 0
-0.00220068653383254 -0.760847739993239 1.33948489432098
-0.00219235100093823 0.607331273698375 1.4232810275613
0.823523144849527 -1.8864582902264 1.16502087241903
-0.000606274712396915 -2.02485366670591 0.735454859298006
2.018515 2.028546 0
1.9918475 -2.009949 0
0.7281875 -2.727469 0
2.06188605298197 1.79588675739632 0.305402884237924
3 0 1 122
3 78 52 7
3 101 21 116
3 45 23 22
3 152 58 27
3 136 124 123
3 60 118 35
3 53 63 102
3 28 29 118
3 66 64 74
3 102 85 86
3 26 160 24
3 97 99 98
3 41 136 40
3 125 18 54
3 9 10 86
3 22 104 46
3 46 102 45
3 111 77 110
3 54 57 125
3 80 47 110
3 116 129 0
3 9 67 68
3 106 122 1
3 59 126 96
3 72 42 147
3 71 53 49
3 51 22 128
3 129 31 30
3 68 10 9
3 53 102 86
3 35 34 60
3 44 123 50
3 40 56 41
3 30 38 96
3 111 8 132
3 25 114 85
3 49 113 71
3 33 115 160
3 138 54 101
3 46 85 102
3 68 67 12
3 145 95 14
3 81 82 107
3 2 16 141
3 147 71 113
3 95 94 150
3 89 117 151
3 12 11 13
3 32 59 119
3 139 16 121
3 128 55 51
3 24 23 76
3 36 114 172
3 117 89 155
3 143 5 146
3 45 84 75
3 28 118 60
3 45 75 23
3 22 51 104
3 60 34 37
3 88 28 30
3 145 169 158
3 122 106 90
3 94 151 150
3 162 17 43
3 71 147 42
3 140 107 62
3 112 39 93
3 103 12 78
3 64 48 159
3 4 72 135
3 151 94 70
3 68 12 103
3 86 85 36
3 154 62 76
3 31 129 116
3 37 34 115
3 161 97 156
3 149 148 47
3 83 50 93
3 121 2 162
3 81 107 140
3 1 126 59
3 20 122 87
3 163 94 158
3 115 33 37
3 32 120 59
3 89 131 153
3 89 153 155
3 29 88 105
3 23 24 128
3 154 61 62
3 128 24 69
3 125 57 117
3 34 35 157
3 327 7 164
3 63 42 84
3 70 100 131
3 106 139 121
3 43 19 87
3 14 95 19
3 93 3 112
3 108 107 82
3 141 74 334
3 64 65 74
3 6 79 80
3 156 143 146
3 138 20 87
3 26 107 108
3 0 20 116
3 8 111 168
3 119 38 37
3 129 96 126
3 108 160 26
3 10 53 86
3 132 103 111
3 62 26 76
3 117 155 142
3 119 33 32
3 144 9 36
3 86 36 9
3 76 75 154
3 55 128 69
3 29 28 88
3 130 6 7
3 23 75 76
3 53 10 49
3 164 7 52
3 114 36 85
3 45 22 46
3 25 85 46
3 4 44 50
3 152 39 15
3 121 162 90
3 137 97 161
3 139 15 16
3 19 138 87
3 150 54 138
3 333 143 156
3 141 334 166
3 107 26 62
3 115 24 160
3 136 41 124
3 1 59 58
3 42 72 61
3 138 19 95
3 77 6 80
3 113 49 8
3 78 6 77
3 7 6 78
3 120 108 82
3 70 163 100
3 127 66 74
3 151 70 89
3 84 154 75
3 115 69 24
3 42 61 154
3 67 11 12
3 10 68 132
3 123 124 3
3 161 146 41
3 97 148 99
3 143 165 159
3 139 58 152
3 156 98 333
3 113 8 91
3 120 58 59
3 53 71 63
3 92 91 168
3 4 140 61
3 62 61 140
3 27 82 81
3 57 150 151
3 119 96 38
3 108 32 160
3 24 76 26
3 103 77 111
3 154 84 42
3 327 130 7
3 49 132 8
3 69 34 157
3 30 28 38
3 125 73 18
3 9 144 67
3 103 132 68
3 141 16 127
3 34 69 115
3 45 102 84
3 128 22 23
3 83 152 27
3 3 93 123
3 109 166 170
3 43 90 162
3 44 40 136
3 148 97 137
3 92 47 148
3 148 137 92
3 20 138 101
3 8 168 91
3 32 108 120
3 163 70 94
3 101 116 20
3 16 2 121
3 48 64 66
3 52 78 12
3 52 12 13
3 80 110 77
3 80 79 336
3 49 10 132
3 103 78 77
3 117 57 151
3 63 71 42
3 60 38 28
3 160 32 33
3 30 96 129
3 3 48 112
3 83 93 39
3 56 40 134
3 146 124 41
3 92 110 47
3 138 95 150
3 81 50 83
3 96 119 59
3 167 159 165
3 94 95 145
3 44 135 40
3 112 66 127
3 0 129 126
3 134 147 113
3 27 120 82
3 141 166 109
3 73 133 18
3 72 4 61
3 97 98 156
3 142 73 125
3 125 117 142
3 88 174 105
3 37 33 119
3 67 144 11
3 84 102 63
3 54 150 57
3 333 165 143
3 87 90 43
3 123 44 136
3 113 91 134
3 134 40 135
3 137 91 92
3 127 16 15
3 5 159 48
3 2 109 162
3 159 5 143
3 161 41 56
3 90 87 122
3 39 112 15
3 4 135 44
3 120 27 58
3 168 110 92
3 145 158 94
3 168 111 110
3 112 48 66
3 162 109 17
3 91 137 56
3 50 140 4
3 146 5 124
3 27 81 83
3 56 137 161
3 50 81 140
3 14 19 43
3 127 15 112
3 58 106 1
3 167 64 159
3 91 56 134
3 147 134 135
3 17 14 43
3 139 106 58
3 2 141 109
3 83 39 152
3 3 5 48
3 15 139 152
3 161 156 146
3 106 121 90
3 70 131 89
3 50 123 93
3 153 131 313
3 135 72 147
3 127 74 141
3 122 20 0
3 17 170 169
3 3 124 5
3 21 171 174
3 145 14 17
3 313 131 100
3 74 65 334
3 1 0 126
3 88 30 31
3 47 336 149
3 47 80 336
3 17 169 145
3 79 6 130
3 148 149 99
3 60 37 38
3 65 64 167
3 69 157 55
3 170 17 109
3 25 46 104
3 101 54 18
3 172 144 36
3 52 13 173
3 21 101 18
3 21 18 133
3 174 31 116
3 173 164 52
3 88 31 174
3 21 133 171
3 174 116 21
3 174 171 105
3 175 292 176
3 252 182 227
3 271 286 196
3 220 197 198
3 321 202 233
3 305 293 294
3 235 210 288
3 228 272 238
3 203 288 204
3 240 248 239
3 272 259 258
3 201 199 329
3 270 98 99
3 216 215 305
3 295 229 193
3 184 259 185
3 197 221 274
3 221 220 272
3 281 280 251
3 229 295 232
3 253 280 222
3 286 175 299
3 184 242 241
3 276 176 292
3 234 269 296
3 246 317 217
3 245 224 228
3 226 298 197
3 299 205 206
3 242 184 185
3 228 259 272
3 210 235 209
3 219 225 293
3 215 216 231
3 205 269 213
3 281 301 183
3 200 258 284
3 224 245 283
3 208 329 285
3 307 271 229
3 221 272 258
3 242 187 241
3 315 189 268
3 254 277 255
3 177 310 191
3 317 283 245
3 268 319 267
3 262 320 287
3 187 188 186
3 207 289 234
3 308 291 191
3 298 226 230
3 199 250 198
3 211 338 284
3 287 324 262
3 312 316 180
3 220 249 257
3 203 235 288
3 220 198 249
3 197 274 226
3 235 212 209
3 261 205 203
3 315 158 169
3 292 263 276
3 267 319 320
3 331 218 192
3 245 217 317
3 309 237 277
3 282 266 214
3 273 252 187
3 239 328 223
3 179 304 246
3 320 244 267
3 242 273 187
3 259 211 258
3 323 250 237
3 206 286 299
3 212 285 209
3 330 325 270
3 149 222 318
3 256 266 225
3 291 331 177
3 254 309 277
3 176 234 296
3 195 260 292
3 163 158 267
3 285 212 208
3 207 234 290
3 262 322 300
3 262 324 322
3 204 275 261
3 198 298 199
3 323 237 236
3 298 243 199
3 295 287 232
3 209 326 210
3 327 332 182
3 238 257 217
3 244 300 100
3 276 291 308
3 218 260 194
3 189 194 268
3 266 282 178
3 278 255 277
3 310 334 248
3 239 248 65
3 181 253 79
3 325 316 312
3 307 260 195
3 201 278 277
3 175 286 195
3 183 335 281
3 289 212 213
3 299 296 269
3 278 201 329
3 185 259 228
3 301 281 273
3 237 250 201
3 287 311 324
3 289 207 208
3 314 211 184
3 259 184 211
3 250 323 249
3 230 243 298
3 204 261 203
3 130 182 181
3 198 250 249
3 228 224 185
3 332 227 182
3 284 258 211
3 220 221 197
3 200 221 258
3 179 225 219
3 321 190 214
3 291 263 331
3 306 330 270
3 308 191 190
3 194 260 307
3 319 307 229
3 333 325 312
3 310 166 334
3 277 237 201
3 285 329 199
3 305 294 216
3 176 233 234
3 217 236 246
3 307 268 194
3 251 253 181
3 283 183 224
3 252 251 181
3 182 252 181
3 290 255 278
3 244 100 163
3 297 248 240
3 320 262 244
3 257 249 323
3 285 199 243
3 217 323 236
3 241 187 186
3 185 301 242
3 293 178 294
3 330 216 316
3 270 99 318
3 312 328 165
3 308 321 233
3 325 333 98
3 283 264 183
3 290 234 233
3 228 238 245
3 265 335 264
3 179 236 309
3 237 309 236
3 202 254 255
3 232 320 319
3 289 213 269
3 278 329 207
3 199 201 250
3 273 281 251
3 323 217 257
3 327 182 130
3 224 183 301
3 243 326 209
3 205 213 203
3 295 193 247
3 184 241 314
3 273 242 301
3 310 297 191
3 209 285 243
3 220 257 272
3 298 198 197
3 256 202 321
3 178 293 266
3 279 170 166
3 218 331 263
3 219 305 215
3 318 306 270
3 265 318 222
3 318 265 306
3 195 271 307
3 183 264 335
3 207 290 278
3 163 267 244
3 271 195 286
3 191 291 177
3 223 240 239
3 227 187 252
3 227 188 187
3 253 251 280
3 253 336 79
3 224 301 185
3 273 251 252
3 287 320 232
3 238 217 245
3 235 203 213
3 329 208 207
3 205 299 269
3 178 282 223
3 256 214 266
3 231 303 215
3 316 216 294
3 265 222 280
3 307 319 268
3 254 256 225
3 269 234 289
3 167 165 328
3 267 315 268
3 219 215 304
3 282 297 240
3 175 296 299
3 303 283 317
3 202 255 290
3 310 279 166
3 247 193 302
3 246 236 179
3 270 325 98
3 311 295 247
3 295 311 287
3 261 275 340
3 212 289 208
3 241 186 314
3 257 238 272
3 229 232 319
3 333 312 165
3 260 218 263
3 293 305 219
3 283 303 264
3 303 304 215
3 306 265 264
3 297 190 191
3 180 223 328
3 177 331 279
3 328 312 180
3 330 231 216
3 263 292 260
3 214 190 282
3 179 219 304
3 290 233 202
3 335 265 280
3 315 267 158
3 335 280 281
3 282 240 223
3 331 192 279
3 264 231 306
3 225 179 309
3 316 294 180
3 202 256 254
3 231 330 306
3 225 309 254
3 189 218 194
3 297 282 190
3 233 176 276
3 167 328 239
3 264 303 231
3 317 304 303
3 192 218 189
3 308 233 276
3 177 279 310
3 256 321 214
3 178 223 180
3 190 321 308
3 330 316 325
3 276 263 291
3 244 262 300
3 225 266 293
3 322 313 300
3 304 317 246
3 297 310 248
3 292 175 195
3 192 169 170
3 178 180 294
3 196 340 337
3 315 192 189
3 313 100 300
3 248 334 65
3 176 296 175
3 261 206 205
3 222 149 336
3 222 336 253
3 192 315 169
3 79 130 181
3 318 99 149
3 235 213 212
3 65 167 239
3 243 230 326
3 170 279 192
3 200 274 221
3 271 193 229
3 338 211 314
3 227 339 188
3 196 193 271
3 196 302 193
3 340 286 206
3 339 227 332
3 261 340 206
3 196 337 302
3 340 196 286
3 340 275 337
