OFF
581 1100 0
0.00000000 0.07998762 0.14838959
0.00000000 -0.31034769 0.06793334
0.00000000 -0.47086713 0.03034693
0.00000000 -0.41913965 0.04247820
0.00000000 0.60000000 0.00000000
0.00000000 -0.25199026 0.08154778
0.00000000 -0.19544592 0.09470584
0.00000000 -0.06234473 0.12550857
-0.04052460 -0.16982047 0.11283493
-0.02492475 -0.34002933 0.06947043
-0.04784460 -0.04872742 0.14035475
-0.04519270 -0.10792886 0.12753691
-0.06022562 0.00101466 0.15463101
-0.03431194 -0.22802376 0.09790785
-0.04759594 -0.56759009 0.01354011
-0.02958619 -0.28762756 0.08298337
-0.06003999 -0.52153296 0.03433123
-0.05027867 -0.41589459 0.06860237
-0.08049716 -0.29589697 0.11153825
-0.07391589 -0.47463757 0.05546691
-0.09407250 -0.24623631 0.13014038
-0.08612995 -0.42868097 0.07621833
-0.11390080 -0.13942238 0.16325314
-0.10597799 -0.19277319 0.14818864
-0.11959246 -0.09080959 0.17580360
-0.10045399 -0.37187735 0.10188936
-0.14515314 -0.58217743 0.00000000
-0.15787689 -0.49483722 0.04519238
-0.16502419 -0.44021490 0.07413014
-0.17065070 -0.38861108 0.10198817
-0.17621544 -0.33730676 0.12971272
-0.17939609 -0.28473883 0.15878581
-0.38567258 0.45962668 0.00000000
-0.41451456 0.29173880 0.11287710
-0.44560086 0.21354820 0.12383765
-0.57245959 -0.03397506 0.03334417
-0.11398215 -0.32178549 0.12450201
-0.02887685 0.13070985 0.15722670
-0.33230676 -0.22659787 0.19152570
-0.12239700 -0.54702661 0.01848112
0.00000000 0.30229150 0.14624275
-0.42687741 0.07306136 0.18944286
-0.39416034 -0.26630789 0.14478148
0.00000000 0.20243959 0.15504192
-0.37738113 -0.42123563 0.03820022
-0.13276120 0.05656954 0.19802866
-0.17302260 -0.54298407 0.01810770
-0.52097137 -0.20254375 0.05336746
0.00000000 -0.13091785 0.10967329
0.00000000 -0.36820416 0.05440696
-0.03751934 0.23026039 0.15840428
-0.09904625 0.10296280 0.18336139
-0.51657025 0.05179163 0.09987572
-0.53565570 -0.03569807 0.07945874
-0.16973019 0.14343417 0.20992227
-0.48276828 0.13122777 0.11901955
-0.46458737 -0.03292599 0.16122897
-0.35586942 -0.13006966 0.21722160
-0.42505655 -0.14127635 0.17443179
-0.37751395 0.35685455 0.10196685
-0.37948083 -0.38123050 0.07149030
-0.38306390 -0.34433060 0.10106974
-0.45518576 -0.24762987 0.10446661
-0.26774628 -0.20783270 0.20881111
0.00000000 -0.54108820 0.01385465
-0.28765405 -0.06594659 0.24692683
-0.37842984 -0.01185171 0.22665945
-0.32709744 0.19858524 0.22029723
-0.32476404 -0.27102686 0.17384288
-0.27739026 -0.10682726 0.23886531
-0.40124744 -0.22431802 0.15952402
-0.56248602 -0.10832542 0.03398642
-0.38686044 0.16737164 0.19852223
-0.55317157 0.18736525 0.01814628
-0.31740152 -0.33699048 0.13726410
-0.31660107 0.03921377 0.24915248
0.00000000 -0.60000000 0.00000000
0.00000000 0.56624933 0.03545697
0.00000000 0.33864987 0.14054297
0.00000000 0.25441464 0.15377728
0.00000000 0.59083264 0.01174607
-0.04185389 0.59853845 0.00000000
0.00000000 0.41142392 0.11982121
0.00000000 0.47447195 0.09365246
0.00000000 0.15028326 0.15632129
0.00000000 0.52735327 0.06401170
0.00000000 -0.00483420 0.13871756
-0.01742837 -0.50227942 0.02953174
-0.00777020 -0.55643262 0.01316632
-0.02168228 -0.54236884 0.02584430
-0.02727930 -0.44704541 0.04622379
-0.03774168 -0.38838303 0.06395192
-0.04097904 -0.49107834 0.04884518
-0.03920724 0.34775238 0.13897569
-0.03878804 0.41929572 0.11615831
-0.04850578 -0.32802887 0.08219131
-0.04000246 0.48269254 0.08769276
-0.04088697 0.53456714 0.05666796
-0.04147501 0.57336414 0.02623955
-0.08350386 0.59416083 0.00000000
-0.04164040 0.26902386 0.15491736
-0.04763965 0.18224628 0.16365543
-0.05951613 -0.26629404 0.10084795
-0.03192193 0.04610753 0.15346992
-0.06061715 0.09189999 0.16673109
-0.05455260 0.13411998 0.16529379
-0.05936942 -0.44219699 0.07076569
-0.06993909 -0.20785263 0.11850928
-0.07312160 -0.59552771 0.00000000
-0.07987663 -0.15213306 0.13534807
-0.08190282 0.44333188 0.10225103
-0.08294976 0.37416391 0.13040413
-0.08225240 0.50436642 0.06968608
-0.08284756 0.55499573 0.03480046
-0.12474702 0.58688855 0.00000000
-0.08714714 0.30255447 0.15207489
-0.07821730 -0.39209961 0.09323151
-0.08969720 -0.09706930 0.15198868
-0.08923019 -0.50455536 0.04130455
-0.08101587 -0.55094525 0.02024195
-0.09612155 0.23145192 0.16818517
-0.09790260 -0.45557840 0.06354177
-0.09680202 -0.34270172 0.11538367
-0.09940260 -0.04265126 0.16843413
-0.10936940 0.01323245 0.18532253
-0.08449743 0.05336633 0.17583772
-0.10735238 -0.40221124 0.08777229
-0.11091263 0.16792732 0.18116058
-0.11648949 -0.35060995 0.11120103
-0.12464508 0.47777014 0.07809135
-0.12425673 0.53644556 0.04015879
-0.12647503 0.41250131 0.11238170
-0.12586763 -0.29764740 0.13524785
-0.13140590 0.34568591 0.14128084
-0.13663934 -0.23681468 0.16286798
-0.11600099 -0.29167114 0.13826797
-0.14111418 0.28342062 0.16449644
-0.14358237 0.10878165 0.20346909
-0.14144211 -0.17822484 0.17693472
-0.14623909 -0.11970537 0.19098456
-0.15101851 -0.06140003 0.20498299
-0.12940187 -0.02266443 0.19477885
-0.15599088 0.23222469 0.18367136
-0.16538242 0.57675702 0.00000000
-0.16594574 0.51880182 0.04376685
-0.16854335 0.45686444 0.08418964
-0.17391212 0.39349451 0.12041656
-0.17482430 -0.23804343 0.18007068
-0.17845195 0.05597624 0.22652052
-0.16625586 0.00379425 0.21694557
-0.18189304 0.18751982 0.20740448
-0.18342422 0.33484296 0.15102379
-0.19170482 -0.09729526 0.22362613
-0.18386011 -0.16270367 0.20338506
-0.19845470 0.28785077 0.17578174
-0.20521208 0.56381555 0.00000000
-0.20784053 0.50266016 0.04650830
-0.21236255 0.14630492 0.23102783
-0.19391203 0.09715773 0.22857544
-0.21356467 0.44183334 0.08920945
-0.21502077 -0.56014825 0.00000000
-0.21624898 -0.51743024 0.02686105
-0.21759085 0.01588971 0.24572514
-0.20518962 -0.03833380 0.23513817
-0.21765372 -0.46857199 0.05758307
-0.21887924 0.25364668 0.19786101
-0.24744739 0.21712045 0.22111635
-0.21905968 -0.41967145 0.08833167
-0.22046600 -0.37075867 0.11908798
-0.22289137 0.38425809 0.12721759
-0.22342053 -0.26799722 0.18370427
-0.22188583 -0.32137576 0.15013989
-0.22865273 -0.21931827 0.20161847
-0.23657025 0.33845367 0.15676443
-0.23799718 -0.13237976 0.23361247
-0.23342630 -0.17490613 0.21796246
-0.24404199 0.54812726 0.00000000
-0.24961464 0.48692065 0.04921874
-0.24992447 0.10936112 0.24868098
-0.25522557 0.30627045 0.17958105
-0.28182697 0.27369275 0.20017474
-0.25916898 0.42795340 0.09526346
-0.26158392 -0.01567610 0.25678201
-0.24882652 -0.07879780 0.24425026
-0.27158548 0.38341669 0.12849242
-0.28168292 -0.52976855 0.00000000
-0.28168295 0.52976855 0.00000000
-0.28204221 -0.48953653 0.03080577
-0.28245917 -0.44284460 0.06655789
-0.28286047 -0.39790247 0.10097020
-0.28324362 -0.35499817 0.13382213
-0.28365900 -0.30848148 0.16944006
-0.28487885 0.18254678 0.23520857
-0.26853952 0.14833635 0.24150621
-0.28905298 0.35112668 0.15254350
-0.29258441 0.45721820 0.06294223
-0.29519376 -0.20874319 0.21077573
-0.29023706 -0.25160254 0.19301305
-0.29572311 0.07802434 0.25567128
-0.28048669 0.03620556 0.25616699
-0.30042404 -0.16351834 0.22951878
-0.30251221 0.42236362 0.09232340
-0.31753271 0.38881088 0.11921140
-0.31371149 0.32070624 0.17018694
-0.31795157 0.50882886 0.00000000
-0.30860608 0.48981503 0.02318846
-0.31920990 0.24109196 0.20869994
-0.32717780 -0.04208804 0.25104738
-0.31597989 -0.09291319 0.24203650
-0.32834631 0.46000879 0.04584137
-0.33342590 0.15503734 0.23297458
-0.36956305 0.20901814 0.19728088
-0.34025031 0.42343243 0.07933589
-0.34050705 0.35864084 0.13516736
-0.34414587 -0.49149124 0.00000000
-0.34918185 -0.41038739 0.06725677
-0.34642413 -0.45480032 0.03042657
-0.35185059 0.28766553 0.17245973
-0.35199988 -0.36500391 0.10489183
-0.35267114 0.48541019 0.00000000
-0.35613449 0.45147888 0.03976596
-0.35494666 -0.31754684 0.14424641
-0.35634775 0.04949613 0.24185603
-0.34024530 -0.00106037 0.24692986
-0.36046371 0.39106781 0.09709212
-0.36544229 -0.24961462 0.17125754
-0.37520346 -0.18643623 0.19637845
-0.33782230 -0.17497990 0.21294482
-0.37795743 0.32502734 0.13187854
-0.39822202 0.12518985 0.20488277
-0.37571075 0.08449751 0.22475929
-0.40147836 -0.44588690 0.00000000
-0.43852542 0.36707907 0.03643274
-0.40002087 0.37891171 0.06635346
-0.39413342 -0.11785085 0.20364787
-0.40650543 -0.07302563 0.20839896
-0.40765753 0.25550258 0.14634122
-0.41120322 -0.34797504 0.07817109
-0.40637286 -0.39660812 0.03934328
-0.41544211 -0.30529730 0.11224422
-0.52477185 0.29088577 0.00000000
-0.48302267 0.27827231 0.05216803
-0.44696976 0.26737979 0.09721825
-0.43881223 0.40919901 0.00000000
-0.40387161 0.40111316 0.04329958
-0.43893771 -0.19165411 0.14922520
-0.42952078 -0.23720174 0.13440341
-0.40410684 0.03384320 0.21033281
-0.44721368 0.01971505 0.18188031
-0.42726755 -0.02572577 0.19487384
-0.42237961 0.15122939 0.17512480
-0.44746899 0.17827328 0.14421904
-0.41235645 0.19213013 0.16813423
-0.48541019 0.35267114 0.00000000
-0.45199908 0.34407565 0.04100600
-0.41927512 0.33565692 0.08116866
-0.45282574 -0.39363541 0.00000000
-0.47162918 -0.28041583 0.07294233
-0.46074756 -0.34593646 0.03073032
-0.49349326 0.19793217 0.08323507
-0.46084741 -0.12832494 0.14762689
-0.47642676 -0.08329331 0.14649037
-0.44092023 -0.07807932 0.17792796
-0.51296564 0.23372682 0.04267067
-0.46595401 0.24344795 0.08895125
-0.49742255 -0.33551575 0.00000000
-0.49937677 0.09437740 0.11857120
-0.47477750 0.05916781 0.14842677
-0.45144543 0.10897762 0.15946921
-0.50099335 -0.17628247 0.09132252
-0.48752759 -0.22403571 0.08289377
-0.46531778 -0.18511957 0.12461057
-0.53400476 0.16321684 0.04973470
-0.49588599 0.16984917 0.09135480
-0.51725549 -0.24644810 0.03785974
-0.50615723 -0.29628928 0.01667389
-0.52729187 0.11558530 0.07728931
-0.52662476 0.00801230 0.09799965
-0.49005139 0.01340209 0.13663150
-0.50204816 -0.03669028 0.12174036
-0.54758710 0.08884676 0.05826194
-0.53460394 -0.27239429 0.00000000
-0.52220667 -0.12722349 0.08002322
-0.54351044 -0.07795535 0.06867574
-0.50752539 -0.08081874 0.11041711
-0.56220709 0.04778607 0.04636718
-0.59416083 0.08350386 0.00000000
-0.54989600 -0.15510457 0.03794507
-0.56381555 -0.20521208 0.00000000
-0.55007428 -0.21475629 0.01203392
-0.58462201 -0.13497063 0.00000000
-0.55631030 0.22476396 0.00000000
-0.52712323 0.21229694 0.03867405
-0.57955548 0.15529143 0.00000000
-0.55458942 0.13632401 0.03692072
-0.59671313 -0.06271708 0.00000000
-0.57189209 -0.06982632 0.03203985
-0.59990863 0.01047144 0.00000000
-0.56381354 0.00926022 0.04826849
-0.48477069 0.30018802 0.03593170
-0.44400693 0.30966757 0.07254844
-0.41202063 0.31710599 0.10128068
0.04052460 -0.16982047 0.11283493
0.02492475 -0.34002933 0.06947043
0.04784460 -0.04872742 0.14035475
0.04519270 -0.10792886 0.12753691
0.06022562 0.00101466 0.15463101
0.03431194 -0.22802376 0.09790785
0.04759594 -0.56759009 0.01354011
0.02958619 -0.28762756 0.08298337
0.06003999 -0.52153296 0.03433123
0.05027867 -0.41589459 0.06860237
0.08049716 -0.29589697 0.11153825
0.07391589 -0.47463757 0.05546691
0.09407250 -0.24623631 0.13014038
0.08612995 -0.42868097 0.07621833
0.11390080 -0.13942238 0.16325314
0.10597799 -0.19277319 0.14818864
0.11959246 -0.09080959 0.17580360
0.10045399 -0.37187735 0.10188936
0.14515314 -0.58217743 0.00000000
0.15787689 -0.49483722 0.04519238
0.16502419 -0.44021490 0.07413014
0.17065070 -0.38861108 0.10198817
0.17621544 -0.33730676 0.12971272
0.17939609 -0.28473883 0.15878581
0.38567258 0.45962668 0.00000000
0.41451456 0.29173880 0.11287710
0.44560086 0.21354820 0.12383765
0.57245959 -0.03397506 0.03334417
0.11398215 -0.32178549 0.12450201
0.02887685 0.13070985 0.15722670
0.33230676 -0.22659787 0.19152570
0.12239700 -0.54702661 0.01848112
0.42687741 0.07306136 0.18944286
0.39416034 -0.26630789 0.14478148
0.37738113 -0.42123563 0.03820022
0.13276120 0.05656954 0.19802866
0.17302260 -0.54298407 0.01810770
0.52097137 -0.20254375 0.05336746
0.03751934 0.23026039 0.15840428
0.09904625 0.10296280 0.18336139
0.51657025 0.05179163 0.09987572
0.53565570 -0.03569807 0.07945874
0.16973019 0.14343417 0.20992227
0.48276828 0.13122777 0.11901955
0.46458737 -0.03292599 0.16122897
0.35586942 -0.13006966 0.21722160
0.42505655 -0.14127635 0.17443179
0.37751395 0.35685455 0.10196685
0.37948083 -0.38123050 0.07149030
0.38306390 -0.34433060 0.10106974
0.45518576 -0.24762987 0.10446661
0.26774628 -0.20783270 0.20881111
0.28765405 -0.06594659 0.24692683
0.37842984 -0.01185171 0.22665945
0.32709744 0.19858524 0.22029723
0.32476404 -0.27102686 0.17384288
0.27739026 -0.10682726 0.23886531
0.40124744 -0.22431802 0.15952402
0.56248602 -0.10832542 0.03398642
0.38686044 0.16737164 0.19852223
0.55317157 0.18736525 0.01814628
0.31740152 -0.33699048 0.13726410
0.31660107 0.03921377 0.24915248
0.04185389 0.59853845 0.00000000
0.01742837 -0.50227942 0.02953174
0.00777020 -0.55643262 0.01316632
0.02168228 -0.54236884 0.02584430
0.02727930 -0.44704541 0.04622379
0.03774168 -0.38838303 0.06395192
0.04097904 -0.49107834 0.04884518
0.03878804 0.41929572 0.11615831
0.03920724 0.34775238 0.13897569
0.04850578 -0.32802887 0.08219131
0.04000246 0.48269254 0.08769276
0.04088697 0.53456714 0.05666796
0.04147501 0.57336414 0.02623955
0.08350386 0.59416083 0.00000000
0.04164040 0.26902386 0.15491736
0.04763965 0.18224628 0.16365543
0.05951613 -0.26629404 0.10084795
0.03192193 0.04610753 0.15346992
0.06061715 0.09189999 0.16673109
0.05455260 0.13411998 0.16529379
0.05936942 -0.44219699 0.07076569
0.06993909 -0.20785263 0.11850928
0.07312160 -0.59552771 0.00000000
0.07987663 -0.15213306 0.13534807
0.08225240 0.50436642 0.06968608
0.08190282 0.44333188 0.10225103
0.08284756 0.55499573 0.03480046
0.12474702 0.58688855 0.00000000
0.08294976 0.37416391 0.13040413
0.07821730 -0.39209961 0.09323151
0.08714714 0.30255447 0.15207489
0.08969720 -0.09706930 0.15198868
0.08923019 -0.50455536 0.04130455
0.08101587 -0.55094525 0.02024195
0.09612155 0.23145192 0.16818517
0.09790260 -0.45557840 0.06354177
0.09680202 -0.34270172 0.11538367
0.09940260 -0.04265126 0.16843413
0.10936940 0.01323245 0.18532253
0.08449743 0.05336633 0.17583772
0.10735238 -0.40221124 0.08777229
0.11091263 0.16792732 0.18116058
0.11648949 -0.35060995 0.11120103
0.12425673 0.53644556 0.04015879
0.12464508 0.47777014 0.07809135
0.12647503 0.41250131 0.11238170
0.12586763 -0.29764740 0.13524785
0.13140590 0.34568591 0.14128084
0.13663934 -0.23681468 0.16286798
0.11600099 -0.29167114 0.13826797
0.14111418 0.28342062 0.16449644
0.14358237 0.10878165 0.20346909
0.14144211 -0.17822484 0.17693472
0.14623909 -0.11970537 0.19098456
0.15101851 -0.06140003 0.20498299
0.12940187 -0.02266443 0.19477885
0.15599088 0.23222469 0.18367136
0.16538242 0.57675702 0.00000000
0.16594574 0.51880182 0.04376685
0.16854335 0.45686444 0.08418964
0.17391212 0.39349451 0.12041656
0.17482430 -0.23804343 0.18007068
0.17845195 0.05597624 0.22652052
0.16625586 0.00379425 0.21694557
0.18189304 0.18751982 0.20740448
0.18342422 0.33484296 0.15102379
0.19170482 -0.09729526 0.22362613
0.18386011 -0.16270367 0.20338506
0.19845470 0.28785077 0.17578174
0.20521208 0.56381555 0.00000000
0.20784053 0.50266016 0.04650830
0.21236255 0.14630492 0.23102783
0.19391203 0.09715773 0.22857544
0.21356467 0.44183334 0.08920945
0.21502077 -0.56014825 0.00000000
0.21624898 -0.51743024 0.02686105
0.24992447 0.10936112 0.24868098
0.21759085 0.01588971 0.24572514
0.20518962 -0.03833380 0.23513817
0.21765372 -0.46857199 0.05758307
0.21887924 0.25364668 0.19786101
0.21905968 -0.41967145 0.08833167
0.22046600 -0.37075867 0.11908798
0.22289137 0.38425809 0.12721759
0.22342053 -0.26799722 0.18370427
0.22188583 -0.32137576 0.15013989
0.22865273 -0.21931827 0.20161847
0.23657025 0.33845367 0.15676443
0.23799718 -0.13237976 0.23361247
0.23342630 -0.17490613 0.21796246
0.24404199 0.54812726 0.00000000
0.24744739 0.21712045 0.22111635
0.24961464 0.48692065 0.04921874
0.25522557 0.30627045 0.17958105
0.25916898 0.42795340 0.09526346
0.26158392 -0.01567610 0.25678201
0.24882652 -0.07879780 0.24425026
0.27158548 0.38341669 0.12849242
0.28905298 0.35112668 0.15254350
0.28168292 -0.52976855 0.00000000
0.28168295 0.52976855 0.00000000
0.28182697 0.27369275 0.20017474
0.28204221 -0.48953653 0.03080577
0.28245917 -0.44284460 0.06655789
0.28286047 -0.39790247 0.10097020
0.28324362 -0.35499817 0.13382213
0.28365900 -0.30848148 0.16944006
0.28487885 0.18254678 0.23520857
0.26853952 0.14833635 0.24150621
0.31371149 0.32070624 0.17018694
0.29258441 0.45721820 0.06294223
0.29519376 -0.20874319 0.21077573
0.29023706 -0.25160254 0.19301305
0.29572311 0.07802434 0.25567128
0.28048669 0.03620556 0.25616699
0.30042404 -0.16351834 0.22951878
0.30251221 0.42236362 0.09232340
0.31753271 0.38881088 0.11921140
0.31795157 0.50882886 0.00000000
0.30860608 0.48981503 0.02318846
0.35185059 0.28766553 0.17245973
0.31920990 0.24109196 0.20869994
0.32717780 -0.04208804 0.25104738
0.31597989 -0.09291319 0.24203650
0.32834631 0.46000879 0.04584137
0.34025031 0.42343243 0.07933589
0.33342590 0.15503734 0.23297458
0.36956305 0.20901814 0.19728088
0.34050705 0.35864084 0.13516736
0.34414587 -0.49149124 0.00000000
0.34918185 -0.41038739 0.06725677
0.34642413 -0.45480032 0.03042657
0.35199988 -0.36500391 0.10489183
0.35267114 0.48541019 0.00000000
0.35613449 0.45147888 0.03976596
0.35494666 -0.31754684 0.14424641
0.35634775 0.04949613 0.24185603
0.34024530 -0.00106037 0.24692986
0.36046371 0.39106781 0.09709212
0.40765753 0.25550258 0.14634122
0.36544229 -0.24961462 0.17125754
0.37520346 -0.18643623 0.19637845
0.33782230 -0.17497990 0.21294482
0.37795743 0.32502734 0.13187854
0.39822202 0.12518985 0.20488277
0.37571075 0.08449751 0.22475929
0.40147836 -0.44588690 0.00000000
0.48541019 0.35267114 0.00000000
0.43852542 0.36707907 0.03643274
0.40002087 0.37891171 0.06635346
0.40650543 -0.07302563 0.20839896
0.39413342 -0.11785085 0.20364787
0.41120322 -0.34797504 0.07817109
0.40637286 -0.39660812 0.03934328
0.41544211 -0.30529730 0.11224422
0.48302267 0.27827231 0.05216803
0.44696976 0.26737979 0.09721825
0.43881223 0.40919901 0.00000000
0.40387161 0.40111316 0.04329958
0.43893771 -0.19165411 0.14922520
0.42952078 -0.23720174 0.13440341
0.40410684 0.03384320 0.21033281
0.44721368 0.01971505 0.18188031
0.42726755 -0.02572577 0.19487384
0.42237961 0.15122939 0.17512480
0.44746899 0.17827328 0.14421904
0.41235645 0.19213013 0.16813423
0.45199908 0.34407565 0.04100600
0.41927512 0.33565692 0.08116866
0.45282574 -0.39363541 0.00000000
0.47162918 -0.28041583 0.07294233
0.46074756 -0.34593646 0.03073032
0.49349326 0.19793217 0.08323507
0.46084741 -0.12832494 0.14762689
0.47642676 -0.08329331 0.14649037
0.44092023 -0.07807932 0.17792796
0.55631030 0.22476396 0.00000000
0.51296564 0.23372682 0.04267067
0.46595401 0.24344795 0.08895125
0.49742255 -0.33551575 0.00000000
0.49937677 0.09437740 0.11857120
0.47477750 0.05916781 0.14842677
0.45144543 0.10897762 0.15946921
0.50099335 -0.17628247 0.09132252
0.48752759 -0.22403571 0.08289377
0.46531778 -0.18511957 0.12461057
0.57955548 0.15529143 0.00000000
0.53400476 0.16321684 0.04973470
0.49588599 0.16984917 0.09135480
0.51725549 -0.24644810 0.03785974
0.50615723 -0.29628928 0.01667389
0.52477185 0.29088577 0.00000000
0.52729187 0.11558530 0.07728931
0.52662476 0.00801230 0.09799965
0.49005139 0.01340209 0.13663150
0.50204816 -0.03669028 0.12174036
0.54758710 0.08884676 0.05826194
0.59416083 0.08350386 0.00000000
0.53460394 -0.27239429 0.00000000
0.52220667 -0.12722349 0.08002322
0.54351044 -0.07795535 0.06867574
0.50752539 -0.08081874 0.11041711
0.56220709 0.04778607 0.04636718
0.54989600 -0.15510457 0.03794507
0.58462201 -0.13497063 0.00000000
0.56381555 -0.20521208 0.00000000
0.55007428 -0.21475629 0.01203392
0.52712323 0.21229694 0.03867405
0.55458942 0.13632401 0.03692072
0.59671313 -0.06271708 0.00000000
0.57189209 -0.06982632 0.03203985
0.59990863 0.01047144 0.00000000
0.56381354 0.00926022 0.04826849
0.48477069 0.30018802 0.03593170
0.44400693 0.30966757 0.07254844
0.41202063 0.31710599 0.10128068
3 113 99 114
3 113 98 99
3 112 113 130
3 112 97 113
3 131 145 146
3 146 145 159
3 144 155 156
3 129 144 145
3 195 212 201
3 212 209 220
3 209 204 219
3 209 205 204
3 184 201 202
3 181 195 201
3 261 56 279
3 277 278 52
3 52 267 266
3 286 280 294
3 266 276 280
3 41 267 248
3 272 294 276
3 94 110 111
3 110 96 112
3 110 112 129
3 274 47 289
3 287 47 269
3 281 275 274
3 165 179 180
3 192 166 206
3 180 179 203
3 206 180 217
3 136 133 151
3 111 131 133
3 115 133 136
3 150 165 166
3 154 173 179
3 142 154 165
3 142 136 154
3 120 136 142
3 127 54 137
3 215 44 216
3 60 215 218
3 239 62 257
3 238 258 256
3 177 176 186
3 181 177 195
3 173 169 184
3 151 169 173
3 179 173 194
3 130 143 144
3 144 143 155
3 202 212 224
3 213 59 228
3 255 233 232
3 232 253 254
3 244 243 232
3 158 162 148
3 198 230 222
3 210 72 229
3 111 110 131
3 194 202 213
3 203 213 228
3 98 81 99
3 156 176 177
3 169 159 181
3 22 109 117
3 20 107 23
3 20 18 102
3 23 134 20
3 135 18 20
3 22 117 24
3 91 95 116
3 90 17 106
3 89 88 87
3 90 91 17
3 87 92 89
3 92 87 90
3 22 139 138
3 24 139 22
3 23 138 134
3 24 140 139
3 116 17 91
3 17 116 106
3 122 18 135
3 148 45 137
3 51 137 45
3 33 242 236
3 300 241 242
3 236 217 228
3 236 228 33
3 242 241 264
3 241 263 264
3 254 299 300
3 255 254 300
3 299 254 253
3 198 199 178
3 281 289 288
3 156 155 176
3 89 16 14
3 19 118 16
3 119 14 16
3 76 89 14
3 89 92 16
3 92 19 16
3 21 106 116
3 19 92 106
3 122 36 128
3 126 25 128
3 132 36 135
3 121 21 126
3 119 108 14
3 19 21 121
3 14 108 76
3 116 25 126
3 185 161 187
3 188 167 189
3 168 190 189
3 187 164 188
3 167 168 189
3 164 167 188
3 185 187 214
3 216 188 215
3 187 216 214
3 215 189 218
3 188 189 215
3 34 259 251
3 264 263 259
3 292 259 263
3 120 50 100
3 134 138 147
3 139 140 152
3 132 134 31
3 128 132 30
3 121 126 28
3 108 39 26
3 118 121 27
3 126 128 29
3 31 147 170
3 30 31 171
3 28 29 167
3 27 28 164
3 29 30 168
3 167 29 168
3 27 46 39
3 161 27 164
3 30 171 168
3 170 147 172
3 261 284 260
3 279 284 261
3 101 120 127
3 225 68 38
3 38 226 225
3 170 197 191
3 197 172 63
3 130 114 143
3 163 182 183
3 182 163 162
3 259 273 251
3 272 73 293
3 151 146 169
3 149 162 163
3 149 148 162
3 35 295 296
3 35 296 283
3 220 219 32
3 32 244 220
3 40 93 100
3 78 82 93
3 80 4 81
3 98 80 81
3 10 117 11
3 10 123 117
3 11 109 8
3 12 124 123
3 102 15 13
3 15 102 95
3 12 125 124
3 103 104 125
3 86 12 10
3 9 95 91
3 90 3 91
3 87 64 2
3 2 3 90
3 49 1 9
3 87 2 90
3 13 6 8
3 48 8 6
3 7 86 10
3 7 10 11
3 48 7 11
3 13 5 6
3 1 5 15
3 43 50 101
3 83 85 96
3 85 77 97
3 84 37 0
3 86 0 103
3 82 83 94
3 97 98 113
3 130 113 114
3 96 97 112
3 133 131 146
3 145 156 159
3 145 144 156
3 131 129 145
3 202 201 212
3 209 219 220
3 212 195 209
3 194 184 202
3 184 181 201
3 57 235 234
3 41 230 229
3 268 251 55
3 93 111 115
3 93 94 111
3 94 96 110
3 112 130 129
3 47 270 269
3 281 274 289
3 166 165 180
3 166 180 206
3 179 194 203
3 180 203 217
3 133 146 151
3 115 111 133
3 120 115 136
3 165 154 179
3 150 142 165
3 136 151 154
3 127 120 142
3 127 142 150
3 221 42 239
3 226 70 225
3 44 238 231
3 238 60 237
3 237 257 258
3 186 195 177
3 169 181 184
3 154 151 173
3 173 184 194
3 129 130 144
3 282 71 287
3 213 202 224
3 212 220 244
3 158 137 54
3 230 210 229
3 110 129 131
3 203 194 213
3 217 203 228
3 159 156 177
3 159 177 181
3 23 107 109
3 20 102 107
3 109 22 23
3 95 102 18
3 122 95 18
3 106 92 90
3 122 116 95
3 45 149 124
3 137 51 127
3 162 199 182
3 126 21 116
3 21 19 106
3 25 116 122
3 128 25 122
3 118 19 121
3 160 161 185
3 191 171 170
3 161 164 187
3 218 74 221
3 100 115 120
3 153 139 152
3 31 134 147
3 30 132 31
3 28 126 29
3 27 39 118
3 27 121 28
3 29 128 30
3 164 28 167
3 26 46 160
3 172 153 175
3 269 260 282
3 197 196 38
3 38 196 227
3 146 159 169
3 140 163 152
3 82 94 93
3 77 80 98
3 12 123 10
3 107 8 109
3 107 13 8
3 11 8 48
3 49 91 3
3 9 15 95
3 13 15 5
3 11 117 109
3 13 107 102
3 15 9 1
3 12 86 103
3 50 79 100
3 96 85 97
3 97 77 98
3 94 83 96
3 285 52 280
3 276 55 273
3 284 53 283
3 298 35 53
3 59 213 224
3 255 232 254
3 222 66 223
3 36 132 128
3 132 135 134
3 37 104 0
3 37 84 101
3 152 183 174
3 123 24 117
3 264 259 34
3 191 68 221
3 171 191 190
3 171 31 170
3 39 119 118
3 46 27 161
3 216 231 214
3 216 187 188
3 295 290 71
3 270 274 257
3 252 34 251
3 244 32 243
3 174 153 152
3 45 148 149
3 258 265 256
3 258 238 237
3 40 100 79
3 58 260 245
3 268 267 41
3 103 0 104
3 255 301 228
3 119 39 108
3 119 16 118
3 190 218 189
3 190 168 171
3 42 246 239
3 282 287 269
3 282 284 283
3 294 280 276
3 293 286 294
3 232 243 253
3 135 36 122
3 135 20 134
3 43 101 84
3 153 172 147
3 153 138 139
3 258 257 275
3 44 215 60
3 44 231 216
3 200 69 208
3 197 170 172
3 289 290 288
3 137 158 148
3 285 298 277
3 297 285 286
3 244 233 224
3 208 235 57
3 292 272 259
3 56 248 278
3 51 125 104
3 197 38 68
3 197 63 196
3 46 26 39
3 46 161 160
3 285 280 286
3 47 274 270
3 47 287 289
3 299 241 300
3 299 253 240
3 157 54 150
3 49 9 91
3 225 42 221
3 271 246 245
3 268 250 251
3 23 22 138
3 238 256 231
3 182 223 207
3 50 43 79
3 50 120 101
3 217 211 206
3 57 200 208
3 149 163 140
3 279 278 277
3 66 222 247
3 247 41 248
3 266 268 55
3 273 259 272
3 240 263 241
3 299 240 241
3 103 125 12
3 125 45 124
3 244 224 212
3 298 297 35
3 35 297 295
3 71 282 283
3 267 278 248
3 267 268 266
3 223 75 222
3 51 45 125
3 127 105 101
3 60 238 44
3 52 266 280
3 52 285 277
3 183 152 163
3 245 226 58
3 41 247 230
3 53 35 283
3 53 279 277
3 54 127 150
3 239 61 221
3 52 278 267
3 66 235 207
3 284 279 53
3 250 252 251
3 276 273 272
3 55 276 266
3 262 234 235
3 208 65 207
3 246 70 245
3 285 297 298
3 55 251 273
3 249 262 235
3 56 278 279
3 268 41 229
3 192 67 210
3 62 271 270
3 205 209 195
3 204 205 186
3 298 53 277
3 24 123 140
3 255 59 233
3 233 244 232
3 211 67 206
3 200 63 175
3 105 127 51
3 292 263 291
3 58 226 234
3 58 262 260
3 59 224 233
3 59 255 228
3 192 193 166
3 236 252 211
3 70 42 225
3 200 196 63
3 218 61 60
3 61 237 60
3 250 268 229
3 123 141 140
3 260 271 245
3 157 193 178
3 166 157 150
3 178 199 162
3 240 291 263
3 57 227 200
3 242 33 300
3 61 218 221
3 61 239 237
3 262 58 234
3 261 260 262
3 294 272 293
3 182 65 183
3 62 239 246
3 62 270 257
3 56 249 248
3 249 247 248
3 183 69 174
3 262 56 261
3 210 193 192
3 198 75 199
3 200 175 174
3 249 56 262
3 235 66 249
3 178 158 157
3 260 284 282
3 260 269 271
3 223 182 199
3 235 208 207
3 271 62 246
3 269 270 271
3 38 227 226
3 226 57 234
3 236 211 217
3 175 63 172
3 175 153 174
3 178 193 198
3 198 210 230
3 162 158 178
3 158 54 157
3 252 72 211
3 250 229 72
3 236 264 34
3 252 236 34
3 258 275 265
3 37 105 104
3 295 71 296
3 198 193 210
3 149 141 124
3 227 196 200
3 227 57 226
3 291 73 292
3 65 182 207
3 65 208 69
3 33 301 300
3 64 88 76
3 191 74 190
3 66 247 249
3 66 207 223
3 186 205 195
3 230 247 222
3 239 257 237
3 67 211 210
3 67 192 206
3 287 290 289
3 68 225 221
3 68 191 197
3 69 200 174
3 69 183 65
3 147 138 153
3 93 40 78
3 115 100 93
3 242 264 236
3 166 193 157
3 275 281 265
3 275 257 274
3 70 246 42
3 70 226 245
3 105 37 101
3 105 51 104
3 71 290 287
3 71 283 296
3 72 210 211
3 72 252 250
3 141 123 124
3 141 149 140
3 88 89 76
3 88 64 87
3 73 272 292
3 73 291 293
3 301 33 228
3 301 255 300
3 74 191 221
3 74 218 190
3 75 198 222
3 75 223 199
3 391 392 378
3 391 378 377
3 389 408 391
3 389 391 376
3 410 425 424
3 425 438 424
3 423 435 434
3 409 424 423
3 475 481 490
3 490 499 489
3 489 498 483
3 489 483 484
3 462 482 481
3 459 481 475
3 539 560 346
3 558 342 559
3 342 545 546
3 562 573 561
3 545 561 557
3 334 527 546
3 552 557 573
3 372 393 390
3 390 389 375
3 390 409 389
3 554 571 339
3 568 548 339
3 563 554 555
3 445 466 458
3 472 486 456
3 466 474 458
3 486 485 466
3 415 430 412
3 393 412 410
3 395 415 412
3 429 456 445
3 433 458 452
3 421 445 433
3 421 433 415
3 399 421 415
3 406 416 344
3 495 496 336
3 350 497 495
3 519 535 352
3 518 534 536
3 457 465 455
3 459 475 457
3 452 462 448
3 430 452 448
3 458 463 452
3 408 423 422
3 423 434 422
3 482 503 490
3 493 508 349
3 533 513 514
3 513 532 512
3 523 513 522
3 437 427 442
3 478 501 510
3 491 509 361
3 393 410 390
3 463 493 482
3 474 508 493
3 377 378 365
3 435 457 455
3 448 459 438
3 316 396 388
3 314 317 386
3 314 381 312
3 317 314 413
3 414 314 312
3 316 318 396
3 370 394 374
3 369 385 311
3 368 366 367
3 369 311 370
3 366 368 371
3 371 369 366
3 316 417 418
3 318 316 418
3 317 413 417
3 318 418 419
3 394 370 311
3 311 385 394
3 401 414 312
3 427 416 337
3 341 337 416
3 327 504 521
3 579 521 520
3 504 508 485
3 504 327 508
3 521 543 520
3 520 543 542
3 532 579 578
3 533 579 532
3 578 512 532
3 478 441 479
3 563 570 571
3 435 455 434
3 368 308 310
3 313 310 397
3 398 310 308
3 76 308 368
3 368 310 371
3 371 310 313
3 315 394 385
3 313 385 371
3 401 407 330
3 405 407 319
3 411 414 330
3 400 405 315
3 398 308 387
3 313 400 315
3 308 76 387
3 394 405 319
3 464 467 440
3 468 469 446
3 447 469 470
3 467 468 444
3 446 469 447
3 444 468 446
3 464 494 467
3 496 495 468
3 467 494 496
3 495 497 469
3 468 495 469
3 328 530 537
3 543 537 542
3 572 542 537
3 399 379 340
3 413 426 417
3 418 431 419
3 411 325 413
3 407 324 411
3 400 322 405
3 387 320 333
3 397 321 400
3 405 323 407
3 325 449 426
3 324 450 325
3 322 446 323
3 321 444 322
3 323 447 324
3 446 447 323
3 321 333 338
3 440 444 321
3 324 447 450
3 449 451 426
3 539 538 566
3 560 539 566
3 380 406 399
3 505 332 357
3 332 505 506
3 449 471 477
3 477 353 451
3 408 422 392
3 443 461 460
3 460 442 443
3 537 530 553
3 552 551 362
3 430 448 425
3 428 443 442
3 428 442 427
3 329 575 574
3 329 565 575
3 499 326 498
3 326 499 523
3 40 379 373
3 78 373 82
3 80 365 4
3 377 365 80
3 304 305 396
3 304 396 402
3 305 302 388
3 306 402 403
3 381 307 309
3 309 374 381
3 306 403 404
3 382 404 383
3 86 304 306
3 303 370 374
3 369 370 3
3 366 2 64
3 2 369 3
3 49 303 1
3 366 369 2
3 307 302 6
3 48 6 302
3 7 304 86
3 7 305 304
3 48 305 7
3 307 6 5
3 1 309 5
3 43 380 340
3 83 375 85
3 85 376 77
3 84 0 331
3 86 382 0
3 82 372 83
3 376 391 377
3 408 392 391
3 375 389 376
3 412 425 410
3 424 438 435
3 424 435 423
3 410 424 409
3 482 490 481
3 489 499 498
3 490 489 475
3 463 482 462
3 462 481 459
3 347 516 515
3 334 509 510
3 547 345 530
3 373 395 393
3 373 393 372
3 372 390 375
3 389 409 408
3 339 548 549
3 563 571 554
3 456 466 445
3 456 486 466
3 458 474 463
3 466 485 474
3 412 430 425
3 395 412 393
3 399 415 395
3 445 458 433
3 429 445 421
3 415 433 430
3 406 421 399
3 406 429 421
3 500 519 335
3 506 505 359
3 336 511 518
3 518 517 350
3 517 536 535
3 465 457 475
3 448 462 459
3 433 452 430
3 452 463 462
3 409 423 408
3 564 568 360
3 493 503 482
3 490 523 499
3 437 344 416
3 510 509 491
3 390 410 409
3 474 493 463
3 485 508 474
3 438 457 435
3 438 459 457
3 317 388 386
3 314 386 381
3 388 317 316
3 374 312 381
3 401 312 374
3 385 369 371
3 401 374 394
3 337 403 428
3 416 406 341
3 442 460 479
3 405 394 315
3 315 385 313
3 319 401 394
3 407 401 319
3 397 400 313
3 439 464 440
3 471 449 450
3 440 467 444
3 497 500 363
3 379 399 395
3 432 431 418
3 325 426 413
3 324 325 411
3 322 323 405
3 321 397 333
3 321 322 400
3 323 324 407
3 444 446 322
3 320 439 338
3 451 454 432
3 548 564 538
3 477 332 476
3 332 507 476
3 425 448 438
3 419 431 443
3 82 373 372
3 77 377 80
3 306 304 402
3 386 388 302
3 386 302 307
3 305 48 302
3 49 3 370
3 303 374 309
3 307 5 309
3 305 388 396
3 307 381 386
3 309 1 303
3 306 382 86
3 340 379 79
3 375 376 85
3 376 377 77
3 372 375 83
3 567 561 342
3 557 553 345
3 566 565 343
3 577 343 329
3 349 503 493
3 533 532 513
3 501 502 355
3 330 407 411
3 411 413 414
3 331 0 383
3 331 380 84
3 431 453 461
3 402 396 318
3 543 328 537
3 471 500 357
3 450 470 471
3 450 449 325
3 333 397 398
3 338 440 321
3 496 494 511
3 496 468 467
3 574 360 569
3 549 535 554
3 531 530 328
3 523 522 326
3 453 431 432
3 337 428 427
3 536 534 544
3 536 517 518
3 40 79 379
3 348 524 538
3 547 334 546
3 382 383 0
3 533 508 580
3 398 387 333
3 398 397 310
3 470 469 497
3 470 450 447
3 335 519 525
3 564 548 568
3 564 565 566
3 573 557 561
3 551 573 562
3 513 512 522
3 414 401 330
3 414 413 314
3 43 84 380
3 432 426 451
3 432 418 417
3 536 555 535
3 336 350 495
3 336 496 511
3 480 488 358
3 477 451 449
3 571 570 569
3 416 427 437
3 567 558 577
3 576 562 567
3 523 503 514
3 488 347 515
3 572 537 552
3 346 559 527
3 341 383 404
3 477 357 332
3 477 476 353
3 338 333 320
3 338 439 440
3 567 562 561
3 339 549 554
3 339 571 568
3 578 579 520
3 578 556 512
3 436 429 344
3 49 370 303
3 505 500 335
3 550 524 525
3 547 530 529
3 317 417 316
3 518 511 534
3 460 487 502
3 340 79 43
3 340 380 399
3 485 486 492
3 347 488 480
3 428 419 443
3 560 558 559
3 355 526 501
3 526 527 334
3 545 345 547
3 553 552 537
3 556 520 542
3 578 520 556
3 382 306 404
3 404 403 337
3 523 490 503
3 577 329 576
3 329 574 576
3 360 565 564
3 546 527 559
3 546 545 547
3 502 501 364
3 341 404 337
3 406 380 384
3 350 336 518
3 342 561 545
3 342 558 567
3 461 443 431
3 524 348 506
3 334 510 526
3 343 565 329
3 343 558 560
3 344 429 406
3 519 500 351
3 342 546 559
3 355 487 515
3 566 343 560
3 529 530 531
3 557 552 553
3 345 545 557
3 540 515 516
3 488 487 354
3 525 524 359
3 567 577 576
3 345 553 530
3 528 515 540
3 346 560 559
3 547 509 334
3 472 491 356
3 352 549 550
3 484 475 489
3 483 465 484
3 577 558 343
3 318 419 402
3 533 514 349
3 514 513 523
3 492 486 356
3 480 454 353
3 384 341 406
3 572 541 542
3 348 516 506
3 348 538 540
3 349 514 503
3 349 508 533
3 472 456 473
3 504 492 531
3 359 505 335
3 480 353 476
3 497 350 351
3 351 350 517
3 529 509 547
3 402 419 420
3 538 524 550
3 436 441 473
3 456 429 436
3 441 442 479
3 556 542 541
3 347 480 507
3 521 579 327
3 351 500 497
3 351 517 519
3 540 516 348
3 539 540 538
3 573 551 552
3 460 461 354
3 352 525 519
3 352 535 549
3 346 527 528
3 528 527 526
3 461 453 358
3 540 539 346
3 491 472 473
3 478 479 364
3 480 453 454
3 528 540 346
3 515 528 355
3 441 436 437
3 538 564 566
3 538 550 548
3 502 479 460
3 515 487 488
3 550 525 352
3 548 550 549
3 332 506 507
3 506 516 347
3 504 485 492
3 454 451 353
3 454 453 432
3 441 478 473
3 478 510 491
3 442 441 437
3 437 436 344
3 531 492 361
3 529 361 509
3 504 328 543
3 531 328 504
3 536 544 555
3 331 383 384
3 574 575 360
3 478 491 473
3 428 403 420
3 507 480 476
3 507 506 347
3 541 572 362
3 354 487 460
3 354 358 488
3 327 579 580
3 64 76 367
3 471 470 363
3 355 528 526
3 355 502 487
3 465 475 484
3 510 501 526
3 519 517 535
3 356 491 492
3 356 486 472
3 568 571 569
3 357 500 505
3 357 477 471
3 358 453 480
3 358 354 461
3 426 432 417
3 373 78 40
3 395 373 379
3 521 504 543
3 456 436 473
3 555 544 563
3 555 554 535
3 359 335 525
3 359 524 506
3 384 380 331
3 384 383 341
3 360 568 569
3 360 575 565
3 361 492 491
3 361 529 531
3 420 403 402
3 420 419 428
3 367 76 368
3 367 366 64
3 362 572 552
3 362 551 541
3 580 508 327
3 580 579 533
3 363 500 471
3 363 470 497
3 364 501 478
3 364 479 502
