OFF
341 634 0
-0.351646248446091 0.289999523910003 0.201525527223959
-0.345694307910764 0.217819784889982 0.253001525145789
-0.12816865991802 0.201631485209471 0.310624905540137
-0.169743835620002 -0.0471790286134866 0.378839928968874
-0.33099157920114 -0.133000499217005 0.324977240779639
-0.102999773067668 -0.0844113211446132 0.361881555295329
-0.0627707478173472 -0.485568592450142 0.114564658101319
-0.061637772119595 -0.533297038734522 0.0566816116153664
-0.234440157217877 -0.361026156033083 0.235070170517906
-0.34494035972703 -0.41519685133986 0.082858144593893
-0.329502485229881 -0.383974879218395 0.148744901036087
-0.2756534 -0.4944831 0
-0.224512756676782 -0.493926837933957 0.0736186445324415
-0.2087998 -0.5251421 0
-0.117005903813584 0.351703476178299 0.231840218829988
-0.209376823154368 0.097941630773456 0.354052746419178
-0.166681371038444 0.154151761320836 0.334910409910467
-0.0732001033338949 0.303558157613826 0.25302752933388
-0.301727271964986 0.453836582591441 0.0717969749255847
-0.178654456801113 0.362109000420421 0.223825277824517
-0.29658253938882 0.346941434048632 0.194728760736844
-0.356950550476731 0.409026924980835 0.0755152660899134
-0.520966306436808 -0.172130262241299 0.0680364833390197
-0.506413951253105 -0.127388137827297 0.128827923040009
-0.512126749004564 -0.0445246739472358 0.143469674273499
-0.4884344 -0.2880939 0
-0.464498130653947 -0.0356910136510483 0.216719321536493
-0.346017411533945 0.066192245799303 0.315109345625916
-0.500268656847104 0.225256867576772 0.0607319815632458
-0.5042845 0.2674346 0
-0.457231928766428 0.25612192074363 0.11031524715977
-0.422381274481933 0.316770556213575 0.101228488178121
-0.447636017969983 0.0927913199264966 0.21855545837163
-0.488129547103177 0.0818920641583089 0.167189601043538
-0.543801623953653 0.0704400522784757 0.0648034931971736
-0.5587627 0.1112094 0
-0.397870370382482 -0.383990072462986 0.0486312483929634
-0.510359850092454 0.112589541747971 0.119087942782576
-0.486937370610966 0.185428165183379 0.118662140161697
-0.242561285156551 0.0444918609041587 0.362820814614976
-0.225972308770909 -0.199924264820394 0.343465448014093
-0.159233437239008 -0.185478496308498 0.35148830725732
-0.384734374396155 -0.218687679496443 0.247053197121558
-0.159262182312235 0.312085208024055 0.258362678543947
-0.270768556473238 -0.136521407330918 0.353170463743522
-0.481513661856802 -0.205391004463467 0.126159074149072
-0.487731809491711 -0.249209613243611 0.0694314917810592
-0.0545019634770477 -0.374260199285426 0.210233178969763
-0.107919581846299 -0.0158505745516906 0.366116056332995
-0.305438222808858 -0.347824740102373 0.209983676514341
-0.304357935154037 -0.0635699259577609 0.351728761108437
-0.5519026 -0.1375944 0
-0.145817029316137 -0.530719560450245 0.0497246470119094
-0.372324193253062 -0.323315058805016 0.174091971735557
-0.242136559870639 0.447971883260504 0.126438501790882
-0.5665181 -0.05534892 0
-0.172291370234662 -0.249945447907528 0.323762692138504
-0.189271419308291 0.482665265951836 0.107867418509648
-0.335401376564984 0.145917442575391 0.295443214075672
-0.40616356190489 0.163257661522737 0.234268521816758
-0.527412701259209 0.150231713996467 0.0626916610071385
-0.387150147110067 -0.145517729218013 0.27888745976877
-0.428203849571623 -0.0913144010440327 0.253032124388024
-0.398393345548611 -0.267216753157263 0.196697019378551
-0.0488183822665505 0.0167307512479161 0.335014282016819
2.74703273657219e-16 0.0523311064240379 0.290056153503919
-0.10492421655773 0.0438356871360563 0.35713011779105
-0.296622484446025 -0.461933903342559 0.0567621261884047
-0.278936266206294 -0.440681840032945 0.117351804294145
-0.546636346891337 -0.0110840485423581 0.0713551961290018
-0.0549130732505727 0.500423438498023 0.100504322054634
-0.343824701626484 -0.287875998529521 0.234216266976291
-0.345154410348245 -0.189949830225301 0.294184919853421
-0.287353 0.4959361 0
-0.0575629635763458 0.0857130594506235 0.328722440523482
-0.469816147264336 -0.162373068459188 0.173113745705949
-0.474590521044429 -0.10068369495326 0.191902926428423
-0.1283989204673 -0.453533973865402 0.160159917562823
-0.140529317047543 -0.498079256496082 0.10596908584674
8.59358955200041e-17 -0.450127367553199 0.111910359756508
-0.0579285813559191 -0.431965843803022 0.164778411927186
-0.355527998937736 -0.011004886329558 0.321382674490111
-0.391883312194207 0.0315930493324971 0.288249478909912
-0.300195982750485 0.017052906406171 0.349384845277217
-0.437194990285394 -0.218529087049805 0.186203482187023
-0.445981275742946 -0.318401503648562 0.0658787519459667
-0.392798440078364 -0.352462037495412 0.112074970520663
-0.232628860414267 0.330925283953282 0.235005492621779
-0.464653249855852 0.297458964748158 0.0531562302800989
-0.102210441760067 0.534868173532829 0.0596366594802814
-0.219259631678697 0.268343111698381 0.276913044257501
-0.190055019437055 -0.314085131667299 0.283808378841432
-0.114779374607975 -0.345614224699537 0.254658982287981
-0.239477193559066 -0.0184257177634303 0.373092384334851
-0.0725560623254384 0.444524633101428 0.158493344736161
-0.135244039910676 0.403529005486658 0.197279696379279
-0.439260216117297 0.211768852855405 0.169951451725133
-0.0499194010020462 -0.252408672233645 0.282116157143406
2.39157382029641e-16 -0.209087660817301 0.252260076720283
2.06744288555916e-16 -0.271435417362513 0.22737135632654
3.9935445657795e-17 0.518211122205975 0.0543714714289516
-0.301957796550445 0.402783968362193 0.138197600670026
-0.437286983863137 -0.279779625174154 0.133620604134114
-0.206419171278155 -0.456283031340245 0.142121416750046
-0.5256875 -0.2159877 0
-0.4614737 0.3373729 0
-0.278258099368329 0.212217196135986 0.290710290837945
-0.412620075107356 -0.0276123560227313 0.275228163179948
-0.437902647264872 0.0304897295535841 0.244603125473242
-0.066491760601922 0.229598917569309 0.284762360625305
-0.116259289937834 -0.402559638385496 0.208602384445022
-0.188516968707323 -0.412709971247374 0.197636844856175
-0.17343838092738 0.0297608739793048 0.372983351231502
-0.273253861107397 -0.306498802071378 0.265499880512675
-0.4450312 -0.3498691 0
-0.519909276453569 0.0353721254329423 0.125679543803847
-0.365923131048951 0.351599005748239 0.135485540473854
-0.171127664690409 0.520396371062725 0.0609661193117815
-0.5367618 0.1923582 0
-0.464705164251655 0.144576545402978 0.176073338175579
-0.396229703186233 0.0945157090060703 0.269923644648951
-0.201963764908211 0.209689716292956 0.309391014592846
-0.288833281001806 0.280010516262971 0.247388855018321
-0.230184982768903 -0.0859527343997199 0.373221009706192
-0.160069759058785 -0.116960311026318 0.37067085191177
-0.240230941392163 0.492570765000123 0.0642347504331873
-0.393793043558301 0.232079813972156 0.205395400030765
-0.131516702467135 0.0978418687551321 0.350715047781398
-0.53945701641851 -0.0909577457844865 0.072248350964195
-0.406790629535776 0.282618238198227 0.154818997218465
5.65871915822678e-17 -0.512157231844862 0.0549479381016026
-0.0397626937447363 0.545724089420157 0.0435747283044821
-0.260564808623702 -0.404201160382462 0.178679617198963
-0.3469738 0.4567638 0
-0.244871701178373 -0.257618628459537 0.309815818715506
-0.290104650873438 -0.196723019009596 0.324096154948392
-0.210208742440301 -0.145842310545711 0.363741622126952
-0.113168655849038 -0.287517703504349 0.293223255807029
-0.226839284424864 0.396745900462024 0.186424841525376
-0.252298489876741 0.154302892902965 0.325765347340379
-0.372079294841058 -0.0787296695147745 0.307418194008933
-0.0757419819809703 0.155796826180811 0.31641518481603
-0.2179509 0.5297573 0
-0.0458748277972973 -0.11829613493509 0.324984349915862
-0.3481025 -0.4466615 0
-0.0618638001256773 0.375381982121094 0.206549241994587
-0.099992672702664 -0.154285282561807 0.346617894057441
-0.316379169859884 -0.247174070983437 0.283232956252392
-0.0529054129979599 -0.314536475468135 0.25004069550617
1.61678382603426e-16 -0.332247180367315 0.195931681838355
-0.163788835061161 0.447619901233106 0.156280890799212
-0.122168307596078 0.491959205572647 0.11433148573593
-0.286396137386077 0.0921560333193703 0.337574647728132
-0.06839787 0.5693324 0
-0.432636705772932 -0.157773043530322 0.226604322511305
-0.1459664 0.5540397 0
-0.0465952751216952 -0.186342665251329 0.306882862442541
-0.5687363 0.02701634 0
1.12823617551175e-16 0.395661420062448 0.159686595727145
-0.047283654302288 -0.0503662708995161 0.335132306395801
-0.483647107936026 0.0235999531697754 0.187797173704443
-0.104088768514933 -0.222950929888252 0.323529197436605
-0.139445770795255 0.257634318657219 0.286762334784628
9.58687614999896e-17 0.454914056699615 0.112119334145362
-0.07314713 -0.5603097 0
2.62413057179832e-16 -0.0798019888537444 0.282753926327149
2.18657751467407e-16 0.187627219114172 0.271385485879862
2.68224236718968e-16 -0.0147646983951174 0.288773705135376
-0.169928844677731 -0.368267848788189 0.240995711190535
1.28543966486103e-16 0.327654736630401 0.206031651003137
1.56503251876124e-16 0.258806215665943 0.243490378909125
-0.403703 0.4057092 0
-0.3983695 -0.4019898 0
-0.1456375 -0.5454938 0
-0.414358664468284 0.358182571338234 0.0637379893221074
0.351646248446092 0.289999523910003 0.201525527223959
0.345694307910765 0.217819784889982 0.253001525145789
0.128168659918021 0.201631485209471 0.310624905540137
0.169743835620002 -0.0471790286134867 0.378839928968875
0.33099157920114 -0.133000499217005 0.324977240779639
0.102999773067669 -0.0844113211446132 0.361881555295329
0.0627707478173474 -0.485568592450142 0.114564658101319
0.061637772119595 -0.533297038734522 0.0566816116153664
0.234440157217878 -0.361026156033083 0.235070170517906
0.34494035972703 -0.41519685133986 0.082858144593893
0.329502485229881 -0.383974879218395 0.148744901036087
0.2756534 -0.4944831 0
0.224512756676782 -0.493926837933957 0.0736186445324415
0.2087998 -0.5251421 0
0.117005903813584 0.351703476178299 0.231840218829988
0.209376823154369 0.097941630773456 0.354052746419179
0.166681371038444 0.154151761320836 0.334910409910467
0.0732001033338953 0.303558157613826 0.25302752933388
0.301727271964986 0.453836582591441 0.0717969749255847
0.178654456801113 0.362109000420421 0.223825277824517
0.29658253938882 0.346941434048632 0.194728760736844
0.356950550476731 0.409026924980835 0.0755152660899135
0.520966306436808 -0.172130262241299 0.0680364833390196
0.506413951253105 -0.127388137827298 0.128827923040009
0.512126749004564 -0.0445246739472359 0.1434696742735
0.4884344 -0.2880939 0
0.464498130653947 -0.0356910136510484 0.216719321536493
0.346017411533946 0.0661922457993031 0.315109345625916
0.500268656847104 0.225256867576772 0.0607319815632459
0.5042845 0.2674346 0
0.457231928766428 0.25612192074363 0.11031524715977
0.422381274481933 0.316770556213575 0.10122848817812
0.447636017969983 0.0927913199264966 0.218555458371631
0.488129547103178 0.0818920641583089 0.167189601043538
0.543801623953653 0.0704400522784757 0.0648034931971737
0.5587627 0.1112094 0
0.397870370382482 -0.383990072462986 0.0486312483929634
0.510359850092454 0.112589541747971 0.119087942782577
0.486937370610967 0.185428165183379 0.118662140161697
0.242561285156551 0.0444918609041586 0.362820814614976
0.22597230877091 -0.199924264820394 0.343465448014093
0.159233437239009 -0.185478496308498 0.351488307257321
0.384734374396155 -0.218687679496443 0.247053197121558
0.159262182312235 0.312085208024055 0.258362678543947
0.270768556473239 -0.136521407330918 0.353170463743523
0.481513661856802 -0.205391004463467 0.126159074149072
0.487731809491711 -0.249209613243611 0.0694314917810592
0.0545019634770481 -0.374260199285426 0.210233178969763
0.1079195818463 -0.0158505745516906 0.366116056332995
0.305438222808858 -0.347824740102373 0.209983676514341
0.304357935154038 -0.063569925957761 0.351728761108438
0.5519026 -0.1375944 0
0.145817029316137 -0.530719560450245 0.0497246470119095
0.372324193253062 -0.323315058805016 0.174091971735557
0.24213655987064 0.447971883260504 0.126438501790882
0.5665181 -0.05534892 0
0.172291370234663 -0.249945447907528 0.323762692138504
0.189271419308291 0.482665265951836 0.107867418509648
0.335401376564984 0.145917442575391 0.295443214075673
0.40616356190489 0.163257661522737 0.234268521816758
0.527412701259209 0.150231713996467 0.0626916610071386
0.387150147110068 -0.145517729218014 0.278887459768771
0.428203849571624 -0.0913144010440327 0.253032124388025
0.398393345548612 -0.267216753157263 0.196697019378551
0.048818382266551 0.0167307512479161 0.335014282016819
0.104924216557731 0.0438356871360563 0.35713011779105
0.296622484446025 -0.461933903342558 0.0567621261884047
0.278936266206294 -0.440681840032945 0.117351804294145
0.546636346891337 -0.0110840485423581 0.0713551961290018
0.0549130732505728 0.500423438498023 0.100504322054634
0.343824701626485 -0.287875998529521 0.234216266976291
0.345154410348245 -0.189949830225301 0.294184919853421
0.287353 0.4959361 0
0.0575629635763463 0.0857130594506235 0.328722440523482
0.469816147264336 -0.162373068459188 0.173113745705949
0.47459052104443 -0.10068369495326 0.191902926428423
0.1283989204673 -0.453533973865402 0.160159917562823
0.140529317047544 -0.498079256496082 0.10596908584674
0.0579285813559194 -0.431965843803022 0.164778411927186
0.355527998937736 -0.011004886329558 0.321382674490112
0.391883312194207 0.0315930493324971 0.288249478909912
0.300195982750486 0.0170529064061709 0.349384845277217
0.437194990285394 -0.218529087049805 0.186203482187023
0.445981275742946 -0.318401503648562 0.0658787519459668
0.392798440078365 -0.352462037495412 0.112074970520663
0.232628860414267 0.330925283953282 0.23500549262178
0.464653249855852 0.297458964748158 0.0531562302800989
0.102210441760067 0.534868173532829 0.0596366594802814
0.219259631678697 0.268343111698381 0.276913044257501
0.190055019437056 -0.314085131667299 0.283808378841433
0.114779374607976 -0.345614224699538 0.254658982287981
0.239477193559067 -0.0184257177634303 0.373092384334851
0.0725560623254387 0.444524633101428 0.158493344736161
0.135244039910677 0.403529005486658 0.197279696379279
0.439260216117297 0.211768852855405 0.169951451725133
0.0499194010020467 -0.252408672233645 0.282116157143406
0.301957796550445 0.402783968362193 0.138197600670026
0.437286983863137 -0.279779625174154 0.133620604134114
0.206419171278155 -0.456283031340245 0.142121416750046
0.5256875 -0.2159877 0
0.4614737 0.3373729 0
0.278258099368329 0.212217196135986 0.290710290837946
0.412620075107356 -0.0276123560227313 0.275228163179948
0.437902647264873 0.0304897295535841 0.244603125473242
0.0664917606019224 0.229598917569309 0.284762360625305
0.116259289937834 -0.402559638385496 0.208602384445022
0.188516968707323 -0.412709971247374 0.197636844856175
0.173438380927381 0.0297608739793047 0.372983351231502
0.273253861107397 -0.306498802071378 0.265499880512675
0.4450312 -0.3498691 0
0.519909276453569 0.0353721254329423 0.125679543803847
0.365923131048951 0.351599005748239 0.135485540473854
0.171127664690409 0.520396371062725 0.0609661193117816
0.5367618 0.1923582 0
0.464705164251656 0.144576545402978 0.176073338175579
0.396229703186233 0.0945157090060703 0.269923644648951
0.201963764908211 0.209689716292956 0.309391014592846
0.288833281001806 0.280010516262971 0.247388855018321
0.230184982768904 -0.08595273439972 0.373221009706192
0.160069759058786 -0.116960311026318 0.37067085191177
0.240230941392163 0.492570765000123 0.0642347504331872
0.393793043558301 0.232079813972156 0.205395400030765
0.131516702467135 0.0978418687551321 0.350715047781398
0.53945701641851 -0.0909577457844865 0.0722483509641951
0.406790629535777 0.282618238198227 0.154818997218465
0.0397626937447363 0.545724089420157 0.0435747283044822
0.260564808623702 -0.404201160382462 0.178679617198963
0.3469738 0.4567638 0
0.244871701178373 -0.257618628459537 0.309815818715507
0.290104650873439 -0.196723019009596 0.324096154948392
0.210208742440302 -0.145842310545711 0.363741622126952
0.113168655849038 -0.28751770350435 0.293223255807029
0.226839284424865 0.396745900462024 0.186424841525377
0.252298489876741 0.154302892902965 0.325765347340379
0.372079294841058 -0.0787296695147745 0.307418194008933
0.0757419819809708 0.155796826180811 0.31641518481603
0.2179509 0.5297573 0
0.0458748277972979 -0.11829613493509 0.324984349915862
0 0.575 0
0.3481025 -0.4466615 0
0.0618638001256777 0.375381982121094 0.206549241994587
0.0999926727026645 -0.154285282561807 0.346617894057441
0.316379169859885 -0.247174070983437 0.283232956252393
0.0529054129979604 -0.314536475468135 0.25004069550617
0.163788835061161 0.447619901233106 0.156280890799212
0.122168307596078 0.491959205572647 0.11433148573593
0.286396137386078 0.0921560333193703 0.337574647728132
0.06839787 0.5693324 0
0.432636705772932 -0.157773043530322 0.226604322511305
0.1459664 0.5540397 0
0.0465952751216958 -0.186342665251329 0.306882862442541
0.5687363 0.02701634 0
0 -0.5663709 0
0.0472836543022885 -0.0503662708995161 0.335132306395801
0.483647107936026 0.0235999531697754 0.187797173704443
0.104088768514934 -0.222950929888252 0.323529197436605
0.139445770795256 0.257634318657219 0.286762334784628
0.07314713 -0.5603097 0
2.50377153212887e-16 -0.145130318270694 0.270722701798753
2.4676296171599e-16 0.120545211507359 0.285566562477804
0.169928844677732 -0.368267848788189 0.240995711190535
1.30757634391908e-16 -0.39179471376619 0.157477389117127
0.403703 0.4057092 0
0.3983695 -0.4019898 0
0.1456375 -0.5454938 0
0.414358664468284 0.358182571338234 0.0637379893221074
3 0 1 122
3 78 52 7
3 101 21 116
3 45 23 22
3 152 58 27
3 136 124 123
3 60 118 35
3 53 63 102
3 28 29 118
3 66 64 74
3 102 85 86
3 26 160 24
3 97 99 98
3 41 136 40
3 125 18 54
3 9 10 86
3 22 104 46
3 46 102 45
3 111 77 110
3 54 57 125
3 80 47 110
3 116 129 0
3 9 67 68
3 106 122 1
3 59 126 96
3 72 42 147
3 71 53 49
3 51 22 128
3 129 31 30
3 68 10 9
3 53 102 86
3 35 34 60
3 44 123 50
3 40 56 41
3 30 38 96
3 111 8 132
3 25 114 85
3 49 113 71
3 33 115 160
3 138 54 101
3 46 85 102
3 68 67 12
3 145 95 14
3 81 82 107
3 2 16 141
3 147 71 113
3 95 94 150
3 89 117 151
3 12 11 13
3 32 59 119
3 139 16 121
3 128 55 51
3 24 23 76
3 36 114 172
3 117 89 155
3 143 5 146
3 45 84 75
3 28 118 60
3 45 75 23
3 22 51 104
3 60 34 37
3 88 28 30
3 145 169 158
3 122 106 90
3 94 151 150
3 162 17 43
3 71 147 42
3 140 107 62
3 112 39 93
3 103 12 78
3 64 48 159
3 4 72 135
3 151 94 70
3 68 12 103
3 86 85 36
3 154 62 76
3 31 129 116
3 37 34 115
3 161 97 156
3 149 148 47
3 83 50 93
3 121 2 162
3 81 107 140
3 1 126 59
3 20 122 87
3 163 94 158
3 115 33 37
3 32 120 59
3 89 131 153
3 89 153 155
3 29 88 105
3 23 24 128
3 154 61 62
3 128 24 69
3 125 57 117
3 34 35 157
3 327 7 164
3 63 42 84
3 70 100 131
3 106 139 121
3 43 19 87
3 14 95 19
3 93 3 112
3 108 107 82
3 141 74 334
3 64 65 74
3 6 79 80
3 156 143 146
3 138 20 87
3 26 107 108
3 0 20 116
3 8 111 168
3 119 38 37
3 129 96 126
3 108 160 26
3 10 53 86
3 132 103 111
3 62 26 76
3 117 155 142
3 119 33 32
3 144 9 36
3 86 36 9
3 76 75 154
3 55 128 69
3 29 28 88
3 130 6 7
3 23 75 76
3 53 10 49
3 164 7 52
3 114 36 85
3 45 22 46
3 25 85 46
3 4 44 50
3 152 39 15
3 121 162 90
3 137 97 161
3 139 15 16
3 19 138 87
3 150 54 138
3 333 143 156
3 141 334 166
3 107 26 62
3 115 24 160
3 136 41 124
3 1 59 58
3 42 72 61
3 138 19 95
3 77 6 80
3 113 49 8
3 78 6 77
3 7 6 78
3 120 108 82
3 70 163 100
3 127 66 74
3 151 70 89
3 84 154 75
3 115 69 24
3 42 61 154
3 67 11 12
3 10 68 132
3 123 124 3
3 161 146 41
3 97 148 99
3 143 165 159
3 139 58 152
3 156 98 333
3 113 8 91
3 120 58 59
3 53 71 63
3 92 91 168
3 4 140 61
3 62 61 140
3 27 82 81
3 57 150 151
3 119 96 38
3 108 32 160
3 24 76 26
3 103 77 111
3 154 84 42
3 327 130 7
3 49 132 8
3 69 34 157
3 30 28 38
3 125 73 18
3 9 144 67
3 103 132 68
3 141 16 127
3 34 69 115
3 45 102 84
3 128 22 23
3 83 152 27
3 3 93 123
3 109 166 170
3 43 90 162
3 44 40 136
3 148 97 137
3 92 47 148
3 148 137 92
3 20 138 101
3 8 168 91
3 32 108 120
3 163 70 94
3 101 116 20
3 16 2 121
3 48 64 66
3 52 78 12
3 52 12 13
3 80 110 77
3 80 79 336
3 49 10 132
3 103 78 77
3 117 57 151
3 63 71 42
3 60 38 28
3 160 32 33
3 30 96 129
3 3 48 112
3 83 93 39
3 56 40 134
3 146 124 41
3 92 110 47
3 138 95 150
3 81 50 83
3 96 119 59
3 167 159 165
3 94 95 145
3 44 135 40
3 112 66 127
3 0 129 126
3 134 147 113
3 27 120 82
3 141 166 109
3 73 133 18
3 72 4 61
3 97 98 156
3 142 73 125
3 125 117 142
3 88 174 105
3 37 33 119
3 67 144 11
3 84 102 63
3 54 150 57
3 333 165 143
3 87 90 43
3 123 44 136
3 113 91 134
3 134 40 135
3 137 91 92
3 127 16 15
3 5 159 48
3 2 109 162
3 159 5 143
3 161 41 56
3 90 87 122
3 39 112 15
3 4 135 44
3 120 27 58
3 168 110 92
3 145 158 94
3 168 111 110
3 112 48 66
3 162 109 17
3 91 137 56
3 50 140 4
3 146 5 124
3 27 81 83
3 56 137 161
3 50 81 140
3 14 19 43
3 127 15 112
3 58 106 1
3 167 64 159
3 91 56 134
3 147 134 135
3 17 14 43
3 139 106 58
3 2 141 109
3 83 39 152
3 3 5 48
3 15 139 152
3 161 156 146
3 106 121 90
3 70 131 89
3 50 123 93
3 153 131 313
3 135 72 147
3 127 74 141
3 122 20 0
3 17 170 169
3 3 124 5
3 21 171 174
3 145 14 17
3 313 131 100
3 74 65 334
3 1 0 126
3 88 30 31
3 47 336 149
3 47 80 336
3 17 169 145
3 79 6 130
3 148 149 99
3 60 37 38
3 65 64 167
3 69 157 55
3 170 17 109
3 25 46 104
3 101 54 18
3 172 144 36
3 52 13 173
3 21 101 18
3 21 18 133
3 174 31 116
3 173 164 52
3 88 31 174
3 21 133 171
3 174 116 21
3 174 171 105
3 175 292 176
3 252 182 227
3 271 286 196
3 220 197 198
3 321 202 233
3 305 293 294
3 235 210 288
3 228 272 238
3 203 288 204
3 240 248 239
3 272 259 258
3 201 199 329
3 270 98 99
3 216 215 305
3 295 229 193
3 184 259 185
3 197 221 274
3 221 220 272
3 281 280 251
3 229 295 232
3 253 280 222
3 286 175 299
3 184 242 241
3 276 176 292
3 234 269 296
3 246 317 217
3 245 224 228
3 226 298 197
3 299 205 206
3 242 184 185
3 228 259 272
3 210 235 209
3 219 225 293
3 215 216 231
3 205 269 213
3 281 301 183
3 200 258 284
3 224 245 283
3 208 329 285
3 307 271 229
3 221 272 258
3 242 187 241
3 315 189 268
3 254 277 255
3 177 310 191
3 317 283 245
3 268 319 267
3 262 320 287
3 187 188 186
3 207 289 234
3 308 291 191
3 298 226 230
3 199 250 198
3 211 338 284
3 287 324 262
3 312 316 180
3 220 249 257
3 203 235 288
3 220 198 249
3 197 274 226
3 235 212 209
3 261 205 203
3 315 158 169
3 292 263 276
3 267 319 320
3 331 218 192
3 245 217 317
3 309 237 277
3 282 266 214
3 273 252 187
3 239 328 223
3 179 304 246
3 320 244 267
3 242 273 187
3 259 211 258
3 323 250 237
3 206 286 299
3 212 285 209
3 330 325 270
3 149 222 318
3 256 266 225
3 291 331 177
3 254 309 277
3 176 234 296
3 195 260 292
3 163 158 267
3 285 212 208
3 207 234 290
3 262 322 300
3 262 324 322
3 204 275 261
3 198 298 199
3 323 237 236
3 298 243 199
3 295 287 232
3 209 326 210
3 327 332 182
3 238 257 217
3 244 300 100
3 276 291 308
3 218 260 194
3 189 194 268
3 266 282 178
3 278 255 277
3 310 334 248
3 239 248 65
3 181 253 79
3 325 316 312
3 307 260 195
3 201 278 277
3 175 286 195
3 183 335 281
3 289 212 213
3 299 296 269
3 278 201 329
3 185 259 228
3 301 281 273
3 237 250 201
3 287 311 324
3 289 207 208
3 314 211 184
3 259 184 211
3 250 323 249
3 230 243 298
3 204 261 203
3 130 182 181
3 198 250 249
3 228 224 185
3 332 227 182
3 284 258 211
3 220 221 197
3 200 221 258
3 179 225 219
3 321 190 214
3 291 263 331
3 306 330 270
3 308 191 190
3 194 260 307
3 319 307 229
3 333 325 312
3 310 166 334
3 277 237 201
3 285 329 199
3 305 294 216
3 176 233 234
3 217 236 246
3 307 268 194
3 251 253 181
3 283 183 224
3 252 251 181
3 182 252 181
3 290 255 278
3 244 100 163
3 297 248 240
3 320 262 244
3 257 249 323
3 285 199 243
3 217 323 236
3 241 187 186
3 185 301 242
3 293 178 294
3 330 216 316
3 270 99 318
3 312 328 165
3 308 321 233
3 325 333 98
3 283 264 183
3 290 234 233
3 228 238 245
3 265 335 264
3 179 236 309
3 237 309 236
3 202 254 255
3 232 320 319
3 289 213 269
3 278 329 207
3 199 201 250
3 273 281 251
3 323 217 257
3 327 182 130
3 224 183 301
3 243 326 209
3 205 213 203
3 295 193 247
3 184 241 314
3 273 242 301
3 310 297 191
3 209 285 243
3 220 257 272
3 298 198 197
3 256 202 321
3 178 293 266
3 279 170 166
3 218 331 263
3 219 305 215
3 318 306 270
3 265 318 222
3 318 265 306
3 195 271 307
3 183 264 335
3 207 290 278
3 163 267 244
3 271 195 286
3 191 291 177
3 223 240 239
3 227 187 252
3 227 188 187
3 253 251 280
3 253 336 79
3 224 301 185
3 273 251 252
3 287 320 232
3 238 217 245
3 235 203 213
3 329 208 207
3 205 299 269
3 178 282 223
3 256 214 266
3 231 303 215
3 316 216 294
3 265 222 280
3 307 319 268
3 254 256 225
3 269 234 289
3 167 165 328
3 267 315 268
3 219 215 304
3 282 297 240
3 175 296 299
3 303 283 317
3 202 255 290
3 310 279 166
3 247 193 302
3 246 236 179
3 270 325 98
3 311 295 247
3 295 311 287
3 261 275 340
3 212 289 208
3 241 186 314
3 257 238 272
3 229 232 319
3 333 312 165
3 260 218 263
3 293 305 219
3 283 303 264
3 303 304 215
3 306 265 264
3 297 190 191
3 180 223 328
3 177 331 279
3 328 312 180
3 330 231 216
3 263 292 260
3 214 190 282
3 179 219 304
3 290 233 202
3 335 265 280
3 315 267 158
3 335 280 281
3 282 240 223
3 331 192 279
3 264 231 306
3 225 179 309
3 316 294 180
3 202 256 254
3 231 330 306
3 225 309 254
3 189 218 194
3 297 282 190
3 233 176 276
3 167 328 239
3 264 303 231
3 317 304 303
3 192 218 189
3 308 233 276
3 177 279 310
3 256 321 214
3 178 223 180
3 190 321 308
3 330 316 325
3 276 263 291
3 244 262 300
3 225 266 293
3 322 313 300
3 304 317 246
3 297 310 248
3 292 175 195
3 192 169 170
3 178 180 294
3 196 340 337
3 315 192 189
3 313 100 300
3 248 334 65
3 176 296 175
3 261 206 205
3 222 149 336
3 222 336 253
3 192 315 169
3 79 130 181
3 318 99 149
3 235 213 212
3 65 167 239
3 243 230 326
3 170 279 192
3 200 274 221
3 271 193 229
3 338 211 314
3 227 339 188
3 196 193 271
3 196 302 193
3 340 286 206
3 339 227 332
3 261 340 206
3 196 337 302
3 340 196 286
3 340 275 337
