OFF
341 634 0
-0.353876900634829 0.299206267527188 0.19485568842859
-0.350008535545199 0.225820739276629 0.247173213869535
-0.130562617577673 0.20589817136422 0.299495027961354
-0.174370114071195 -0.0500883505978173 0.37476217407696
-0.340896797130225 -0.142118579655984 0.323799721369622
-0.107308699111796 -0.0893797455303261 0.357767279546065
-0.0676245628337575 -0.487243338245648 0.105500178406201
-0.0653801734183873 -0.530796106604582 0.0486700144196175
-0.237983264564016 -0.375946252762784 0.223856665782654
-0.346099075988103 -0.422405972169551 0.0794728832793783
-0.331964830788541 -0.39589454283789 0.14301155930102
-0.2756534 -0.4944831 0
-0.223016917903817 -0.496078372086104 0.065741642042546
-0.2087998 -0.5251421 0
-0.120304299373681 0.356418140595626 0.220626724234929
-0.212741241135641 0.102596222789535 0.346161179510577
-0.169128871585937 0.158776503916819 0.324079374789847
-0.0759076103393686 0.307005496188733 0.24287552450406
-0.300621979770353 0.456059988540215 0.0671933873354084
-0.180939360889879 0.36817001488354 0.211441650769756
-0.29739654737599 0.354965959258169 0.185240789993735
-0.356542914336963 0.412702228224052 0.0719828137565736
-0.526726431875748 -0.175522086694435 0.0682753511049805
-0.515961304034552 -0.131786350270919 0.130039926126213
-0.52263568001289 -0.0467401455260619 0.145068731877783
-0.4884344 -0.2880939 0
-0.476514349969484 -0.0381272099055538 0.218563193032995
-0.353925326293482 0.0703726053890069 0.312708512698673
-0.504067790854582 0.228867855403607 0.060525850112429
-0.5042845 0.2674346 0
-0.46115631050369 0.263279324208912 0.108941603143642
-0.42358549942008 0.324767887032878 0.0982877592463007
-0.457879053323828 0.0971468661900534 0.218553011543024
-0.498168048038224 0.084668161810992 0.168046783888265
-0.549560792442719 0.0711954908220965 0.0654332954258418
-0.5587627 0.1112094 0
-0.40004779995386 -0.388423461554361 0.0477456715970088
-0.518472235295631 0.115768214347655 0.119896623760345
-0.49358551512333 0.190855620812042 0.118492763867618
-0.247585135479034 0.0471084393669401 0.358130571443092
-0.232596046350164 -0.213710196283767 0.337295715664895
-0.165466515741366 -0.19729191919077 0.345108682142758
-0.394316519035379 -0.231693498480189 0.245594461151913
-0.161978449036234 0.317432908491014 0.246030349842365
-0.278367693715688 -0.146164647133427 0.350374863201824
-0.489774860447996 -0.213062119799596 0.126459149505915
-0.492850161244829 -0.254087685663883 0.0690272660419122
-0.0595138172677886 -0.382641618492744 0.204143111266319
-0.111251594564635 -0.0171217891465046 0.361727371948641
-0.309283245896555 -0.362912856710541 0.202596087904784
-0.312981139445864 -0.0680871049227768 0.350440345219905
-0.5519026 -0.1375944 0
-0.145623673125674 -0.528202825365945 0.0412170850577027
-0.377724012582849 -0.336725445120292 0.170568986137988
-0.241883466473626 0.450828033940096 0.117452828593375
-0.5665181 -0.05534892 0
-0.178588340014722 -0.264685731286476 0.314906010932997
-0.18959764311713 0.483289522049071 0.0986312781548169
-0.340659148456447 0.153130573375639 0.290464042582774
-0.413719538571242 0.170260777176001 0.23194170502723
-0.532402404801551 0.152612368154293 0.0630042325567128
-0.39831939503172 -0.155045754767273 0.278878236959038
-0.440392760661644 -0.0971023578169523 0.254214595590357
-0.406302232307659 -0.280256098840773 0.194724802494169
-0.0512986297316623 0.0163422876489511 0.331592113801765
1.73909812355032e-16 0.0522838149338268 0.290348974787941
-0.107582084757931 0.0453974097792402 0.3512322393069
-0.29604701389849 -0.466155959465326 0.0528738799134513
-0.278698798268696 -0.448831334868933 0.10937409422813
-0.553166608505887 -0.011923675061036 0.0719491419950747
-0.0589192338236429 0.497143765774767 0.0935277895561265
-0.350571980578321 -0.303114118983857 0.229652966761042
-0.354546260264375 -0.202708828654046 0.292122466310766
-0.287353 0.4959361 0
-0.059739013221509 0.0876969809322547 0.322497764930772
-0.480417144364231 -0.169958586326751 0.173951814796336
-0.486356049926108 -0.105617844942026 0.193488157354401
-0.132195771778512 -0.460042286644123 0.146033858095235
-0.142006175976434 -0.499516225534835 0.0923837017430568
5.33093628540609e-17 -0.454226322770129 0.114360419807692
-0.0631368420802138 -0.437808315457896 0.157106525792473
-0.365660539692465 -0.0121459348176701 0.320875797971388
-0.402138082259151 0.0333837993845373 0.287994826298266
-0.307453238906461 0.0179408290506086 0.347147873935309
-0.44677845464541 -0.22936526269726 0.185879932891064
-0.450166097852656 -0.323570106378098 0.0649884412217692
-0.397027948592935 -0.361866767679992 0.109791271809933
-0.234129477546604 0.338081149077322 0.222991532469815
-0.466033847444859 0.302420700187678 0.0522136308810149
-0.103931277575833 0.531976301945582 0.0529461092839097
-0.22129283390319 0.275192838394033 0.265000701080586
-0.195471930178833 -0.329372649121801 0.272600153448389
-0.120555785302452 -0.357723793340698 0.244191333698679
-0.245328165346733 -0.0197208240173059 0.369929173780729
-0.077101934409857 0.444394463351887 0.148977947539913
-0.138575486179443 0.4077187694298 0.184896334867414
-0.445539325500628 0.219295187337136 0.168236336342111
-0.0547196514013027 -0.261693699841325 0.278640139279417
1.02766081964476e-16 -0.215631357350296 0.256496294668343
8.26014409789096e-17 -0.278512279425463 0.230962319040091
2.28199396610598e-17 0.518426338821245 0.0572367866985614
-0.301856033941154 0.408172726145574 0.130611229755929
-0.444119459250315 -0.289856344571976 0.132655136836231
-0.206506354430488 -0.463845954066923 0.129100964274768
-0.5256875 -0.2159877 0
-0.4614737 0.3373729 0
-0.280907784371819 0.219796638058526 0.281714919968182
-0.424290953817199 -0.029882879017547 0.27620778449828
-0.449116468481766 0.0318766360747482 0.245582828254819
-0.0685014399329136 0.232553752132129 0.274853218604742
-0.121689960383216 -0.412558541667821 0.196175931417633
-0.191038070258131 -0.424295421236701 0.183613007173893
-0.177158490452045 0.0312914690863811 0.36765078133808
-0.278434952479578 -0.322885290639682 0.256958650242064
-0.4450312 -0.3498691 0
-0.529270740078475 0.0354908603225829 0.127062349741197
-0.366342138682732 0.359494817803909 0.129855371448907
-0.170939874469657 0.519376542593058 0.0545778093358364
-0.5367618 0.1923582 0
-0.473450213523636 0.150230585620045 0.175684650657367
-0.405106448864894 0.100029241421579 0.268556443202777
-0.203986369120219 0.215967963804228 0.29798209577169
-0.290875514496341 0.288298502033425 0.237658455084986
-0.236351440552498 -0.091699841168146 0.36999330127983
-0.165510552597484 -0.124431699334144 0.36601793144916
-0.239056352688503 0.493270533143283 0.0585646813855503
-0.39862816684543 0.24040342170607 0.201613180885847
-0.134221239804581 0.101311190190938 0.342180273704835
-0.546001740750697 -0.0928007859763991 0.0727432834838789
-0.40954390834979 0.291632231592101 0.150979300552202
2.92592136419656e-17 -0.513298025911465 0.0576283288285619
-0.0429651120707639 0.542101979814402 0.0396274557654135
-0.261912216022339 -0.416656717458978 0.168285114932344
-0.3469738 0.4567638 0
-0.25112530925412 -0.273769927641675 0.301790235058086
-0.298129668339286 -0.210354104381636 0.31998058585402
-0.216529628540058 -0.15590751214607 0.359162186871238
-0.119463949337255 -0.300259098811536 0.284446965491981
-0.227731638075618 0.40232424775136 0.17470619082257
-0.255013317827137 0.160970399903094 0.316892394924538
-0.383336234318263 -0.0842319058617371 0.307579737425381
-0.0779163185128937 0.158440874740601 0.307093412892465
-0.2179509 0.5297573 0
-0.0498170701971851 -0.123946346376303 0.322963865833514
-0.3481025 -0.4466615 0
-0.0652690980332928 0.37810277134212 0.197648071132764
-0.105246893566666 -0.162858273480623 0.341866654411308
-0.323731017122517 -0.262765672980324 0.278365632168215
-0.0578148389765445 -0.323995779400806 0.245255065610114
6.30989595541482e-17 -0.339174871782919 0.198785605219595
-0.165860938962767 0.449320136936954 0.144437189285233
-0.124717293148749 0.490414755313041 0.104468173502053
-0.291233046541497 0.0975562027776541 0.332372285770234
-0.06839787 0.5693324 0
-0.444201243992468 -0.166838637376031 0.227079208435912
-0.1459664 0.5540397 0
-0.05098823548073 -0.194233752511225 0.304512292661626
-0.5687363 0.02701634 0
5.82876572412758e-17 0.396662806126113 0.159228072528423
-0.050592925447964 -0.0534232092059133 0.332773438388574
-0.494984391548708 0.0237704538571669 0.189376915089758
-0.110108885585901 -0.234381172241258 0.31713509849043
-0.142142626374606 0.262704611686746 0.274625209319975
4.77230502839016e-17 0.455521548122143 0.113979493442037
-0.07314713 -0.5603097 0
1.60982735100118e-16 -0.0835737353370052 0.286974802280248
1.59370512487843e-16 0.188926492297703 0.265594647007862
1.75197872647242e-16 -0.0167424123884849 0.291761037764729
-0.174415042867419 -0.381612961187675 0.228330949760315
8.32394050454832e-17 0.328947374603481 0.202588286052399
1.25719363332514e-16 0.26028000683361 0.237944085182874
-0.403703 0.4057092 0
-0.3983695 -0.4019898 0
-0.1456375 -0.5454938 0
-0.4147973479855 0.362972162978225 0.0615020563452287
0.353876900634829 0.299206267527188 0.19485568842859
0.3500085355452 0.225820739276629 0.247173213869535
0.130562617577674 0.20589817136422 0.299495027961354
0.174370114071195 -0.0500883505978173 0.37476217407696
0.340896797130226 -0.142118579655984 0.323799721369623
0.107308699111796 -0.0893797455303261 0.357767279546065
0.0676245628337576 -0.487243338245648 0.105500178406201
0.0653801734183873 -0.530796106604582 0.0486700144196175
0.237983264564016 -0.375946252762784 0.223856665782655
0.346099075988104 -0.422405972169551 0.0794728832793783
0.331964830788541 -0.39589454283789 0.14301155930102
0.2756534 -0.4944831 0
0.223016917903817 -0.496078372086104 0.0657416420425461
0.2087998 -0.5251421 0
0.120304299373681 0.356418140595626 0.220626724234929
0.212741241135641 0.102596222789535 0.346161179510577
0.169128871585937 0.158776503916819 0.324079374789847
0.0759076103393689 0.307005496188733 0.24287552450406
0.300621979770353 0.456059988540215 0.0671933873354084
0.18093936088988 0.36817001488354 0.211441650769756
0.29739654737599 0.354965959258169 0.185240789993735
0.356542914336963 0.412702228224052 0.0719828137565736
0.526726431875748 -0.175522086694435 0.0682753511049806
0.515961304034552 -0.13178635027092 0.130039926126213
0.52263568001289 -0.0467401455260619 0.145068731877783
0.4884344 -0.2880939 0
0.476514349969484 -0.0381272099055538 0.218563193032995
0.353925326293483 0.0703726053890069 0.312708512698673
0.504067790854582 0.228867855403607 0.0605258501124291
0.5042845 0.2674346 0
0.46115631050369 0.263279324208912 0.108941603143642
0.42358549942008 0.324767887032878 0.0982877592463007
0.457879053323828 0.0971468661900534 0.218553011543024
0.498168048038224 0.084668161810992 0.168046783888265
0.549560792442719 0.0711954908220965 0.0654332954258419
0.5587627 0.1112094 0
0.40004779995386 -0.388423461554361 0.0477456715970088
0.518472235295631 0.115768214347655 0.119896623760345
0.49358551512333 0.190855620812043 0.118492763867618
0.247585135479034 0.0471084393669401 0.358130571443092
0.232596046350165 -0.213710196283767 0.337295715664895
0.165466515741366 -0.19729191919077 0.345108682142758
0.39431651903538 -0.231693498480189 0.245594461151914
0.161978449036235 0.317432908491014 0.246030349842365
0.278367693715688 -0.146164647133427 0.350374863201824
0.489774860447996 -0.213062119799596 0.126459149505915
0.492850161244829 -0.254087685663883 0.0690272660419122
0.059513817267789 -0.382641618492744 0.204143111266319
0.111251594564636 -0.0171217891465046 0.361727371948642
0.309283245896555 -0.362912856710541 0.202596087904784
0.312981139445865 -0.0680871049227769 0.350440345219905
0.5519026 -0.1375944 0
0.145623673125674 -0.528202825365945 0.0412170850577028
0.377724012582849 -0.336725445120292 0.170568986137988
0.241883466473626 0.450828033940096 0.117452828593375
0.5665181 -0.05534892 0
0.178588340014722 -0.264685731286476 0.314906010932998
0.18959764311713 0.483289522049071 0.0986312781548169
0.340659148456448 0.153130573375639 0.290464042582774
0.413719538571243 0.170260777176002 0.231941705027231
0.532402404801551 0.152612368154294 0.0630042325567129
0.39831939503172 -0.155045754767273 0.278878236959038
0.440392760661644 -0.0971023578169524 0.254214595590358
0.406302232307659 -0.280256098840773 0.19472480249417
0.0512986297316626 0.0163422876489511 0.331592113801765
0.107582084757931 0.0453974097792402 0.351232239306901
0.29604701389849 -0.466155959465326 0.0528738799134513
0.278698798268696 -0.448831334868933 0.10937409422813
0.553166608505887 -0.011923675061036 0.0719491419950748
0.058919233823643 0.497143765774767 0.0935277895561265
0.350571980578322 -0.303114118983857 0.229652966761042
0.354546260264375 -0.202708828654046 0.292122466310767
0.287353 0.4959361 0
0.0597390132215094 0.0876969809322547 0.322497764930772
0.480417144364231 -0.169958586326751 0.173951814796336
0.486356049926108 -0.105617844942026 0.193488157354401
0.132195771778512 -0.460042286644123 0.146033858095235
0.142006175976434 -0.499516225534835 0.0923837017430568
0.0631368420802141 -0.437808315457896 0.157106525792473
0.365660539692465 -0.0121459348176701 0.320875797971388
0.402138082259152 0.0333837993845373 0.287994826298266
0.307453238906461 0.0179408290506086 0.347147873935309
0.44677845464541 -0.22936526269726 0.185879932891064
0.450166097852656 -0.323570106378098 0.0649884412217693
0.397027948592935 -0.361866767679993 0.109791271809933
0.234129477546604 0.338081149077322 0.222991532469815
0.466033847444859 0.302420700187678 0.052213630881015
0.103931277575833 0.531976301945582 0.0529461092839097
0.221292833903191 0.275192838394033 0.265000701080586
0.195471930178834 -0.329372649121801 0.272600153448389
0.120555785302453 -0.357723793340698 0.244191333698679
0.245328165346734 -0.0197208240173059 0.369929173780729
0.0771019344098572 0.444394463351887 0.148977947539913
0.138575486179443 0.4077187694298 0.184896334867414
0.445539325500628 0.219295187337136 0.168236336342111
0.054719651401303 -0.261693699841325 0.278640139279417
0.301856033941154 0.408172726145574 0.130611229755929
0.444119459250315 -0.289856344571976 0.132655136836231
0.206506354430488 -0.463845954066923 0.129100964274768
0.5256875 -0.2159877 0
0.4614737 0.3373729 0
0.280907784371819 0.219796638058526 0.281714919968182
0.4242909538172 -0.029882879017547 0.27620778449828
0.449116468481766 0.0318766360747482 0.245582828254819
0.0685014399329139 0.232553752132129 0.274853218604742
0.121689960383216 -0.412558541667821 0.196175931417633
0.191038070258131 -0.424295421236701 0.183613007173893
0.177158490452046 0.0312914690863811 0.367650781338081
0.278434952479579 -0.322885290639682 0.256958650242064
0.4450312 -0.3498691 0
0.529270740078475 0.0354908603225829 0.127062349741197
0.366342138682732 0.359494817803909 0.129855371448907
0.170939874469657 0.519376542593058 0.0545778093358364
0.5367618 0.1923582 0
0.473450213523636 0.150230585620045 0.175684650657367
0.405106448864894 0.10002924142158 0.268556443202777
0.203986369120219 0.215967963804228 0.29798209577169
0.290875514496342 0.288298502033425 0.237658455084986
0.236351440552498 -0.091699841168146 0.36999330127983
0.165510552597485 -0.124431699334144 0.36601793144916
0.239056352688503 0.493270533143283 0.0585646813855503
0.39862816684543 0.24040342170607 0.201613180885847
0.134221239804582 0.101311190190938 0.342180273704835
0.546001740750698 -0.0928007859763991 0.072743283483879
0.40954390834979 0.291632231592102 0.150979300552202
0.0429651120707639 0.542101979814402 0.0396274557654135
0.261912216022339 -0.416656717458978 0.168285114932344
0.3469738 0.4567638 0
0.251125309254121 -0.273769927641675 0.301790235058087
0.298129668339286 -0.210354104381636 0.31998058585402
0.216529628540058 -0.15590751214607 0.359162186871238
0.119463949337256 -0.300259098811536 0.284446965491981
0.227731638075618 0.40232424775136 0.174706190822571
0.255013317827137 0.160970399903094 0.316892394924539
0.383336234318263 -0.0842319058617372 0.307579737425382
0.0779163185128941 0.158440874740601 0.307093412892465
0.2179509 0.5297573 0
0.0498170701971855 -0.123946346376303 0.322963865833514
0 0.575 0
0.3481025 -0.4466615 0
0.0652690980332931 0.37810277134212 0.197648071132764
0.105246893566667 -0.162858273480623 0.341866654411309
0.323731017122517 -0.262765672980324 0.278365632168215
0.0578148389765447 -0.323995779400806 0.245255065610114
0.165860938962767 0.449320136936954 0.144437189285233
0.12471729314875 0.490414755313041 0.104468173502053
0.291233046541497 0.0975562027776541 0.332372285770234
0.06839787 0.5693324 0
0.444201243992468 -0.166838637376031 0.227079208435913
0.1459664 0.5540397 0
0.0509882354807304 -0.194233752511225 0.304512292661626
0.5687363 0.02701634 0
0 -0.5663709 0
0.0505929254479644 -0.0534232092059133 0.332773438388574
0.494984391548708 0.0237704538571669 0.189376915089759
0.110108885585901 -0.234381172241258 0.31713509849043
0.142142626374606 0.262704611686746 0.274625209319975
0.07314713 -0.5603097 0
1.28560803526539e-16 -0.15053270559349 0.275246388834293
1.68669581140807e-16 0.121672085033661 0.2821259121356
0.17441504286742 -0.381612961187675 0.228330949760315
7.06378763971381e-17 -0.397796820451419 0.159865552905595
0.403703 0.4057092 0
0.3983695 -0.4019898 0
0.1456375 -0.5454938 0
0.4147973479855 0.362972162978225 0.0615020563452288
3 0 1 122
3 78 52 7
3 101 21 116
3 45 23 22
3 152 58 27
3 136 124 123
3 60 118 35
3 53 63 102
3 28 29 118
3 66 64 74
3 102 85 86
3 26 160 24
3 97 99 98
3 41 136 40
3 125 18 54
3 9 10 86
3 22 104 46
3 46 102 45
3 111 77 110
3 54 57 125
3 80 47 110
3 116 129 0
3 9 67 68
3 106 122 1
3 59 126 96
3 72 42 147
3 71 53 49
3 51 22 128
3 129 31 30
3 68 10 9
3 53 102 86
3 35 34 60
3 44 123 50
3 40 56 41
3 30 38 96
3 111 8 132
3 25 114 85
3 49 113 71
3 33 115 160
3 138 54 101
3 46 85 102
3 68 67 12
3 145 95 14
3 81 82 107
3 2 16 141
3 147 71 113
3 95 94 150
3 89 117 151
3 12 11 13
3 32 59 119
3 139 16 121
3 128 55 51
3 24 23 76
3 36 114 172
3 117 89 155
3 143 5 146
3 45 84 75
3 28 118 60
3 45 75 23
3 22 51 104
3 60 34 37
3 88 28 30
3 145 169 158
3 122 106 90
3 94 151 150
3 162 17 43
3 71 147 42
3 140 107 62
3 112 39 93
3 103 12 78
3 64 48 159
3 4 72 135
3 151 94 70
3 68 12 103
3 86 85 36
3 154 62 76
3 31 129 116
3 37 34 115
3 161 97 156
3 149 148 47
3 83 50 93
3 121 2 162
3 81 107 140
3 1 126 59
3 20 122 87
3 163 94 158
3 115 33 37
3 32 120 59
3 89 131 153
3 89 153 155
3 29 88 105
3 23 24 128
3 154 61 62
3 128 24 69
3 125 57 117
3 34 35 157
3 327 7 164
3 63 42 84
3 70 100 131
3 106 139 121
3 43 19 87
3 14 95 19
3 93 3 112
3 108 107 82
3 141 74 334
3 64 65 74
3 6 79 80
3 156 143 146
3 138 20 87
3 26 107 108
3 0 20 116
3 8 111 168
3 119 38 37
3 129 96 126
3 108 160 26
3 10 53 86
3 132 103 111
3 62 26 76
3 117 155 142
3 119 33 32
3 144 9 36
3 86 36 9
3 76 75 154
3 55 128 69
3 29 28 88
3 130 6 7
3 23 75 76
3 53 10 49
3 164 7 52
3 114 36 85
3 45 22 46
3 25 85 46
3 4 44 50
3 152 39 15
3 121 162 90
3 137 97 161
3 139 15 16
3 19 138 87
3 150 54 138
3 333 143 156
3 141 334 166
3 107 26 62
3 115 24 160
3 136 41 124
3 1 59 58
3 42 72 61
3 138 19 95
3 77 6 80
3 113 49 8
3 78 6 77
3 7 6 78
3 120 108 82
3 70 163 100
3 127 66 74
3 151 70 89
3 84 154 75
3 115 69 24
3 42 61 154
3 67 11 12
3 10 68 132
3 123 124 3
3 161 146 41
3 97 148 99
3 143 165 159
3 139 58 152
3 156 98 333
3 113 8 91
3 120 58 59
3 53 71 63
3 92 91 168
3 4 140 61
3 62 61 140
3 27 82 81
3 57 150 151
3 119 96 38
3 108 32 160
3 24 76 26
3 103 77 111
3 154 84 42
3 327 130 7
3 49 132 8
3 69 34 157
3 30 28 38
3 125 73 18
3 9 144 67
3 103 132 68
3 141 16 127
3 34 69 115
3 45 102 84
3 128 22 23
3 83 152 27
3 3 93 123
3 109 166 170
3 43 90 162
3 44 40 136
3 148 97 137
3 92 47 148
3 148 137 92
3 20 138 101
3 8 168 91
3 32 108 120
3 163 70 94
3 101 116 20
3 16 2 121
3 48 64 66
3 52 78 12
3 52 12 13
3 80 110 77
3 80 79 336
3 49 10 132
3 103 78 77
3 117 57 151
3 63 71 42
3 60 38 28
3 160 32 33
3 30 96 129
3 3 48 112
3 83 93 39
3 56 40 134
3 146 124 41
3 92 110 47
3 138 95 150
3 81 50 83
3 96 119 59
3 167 159 165
3 94 95 145
3 44 135 40
3 112 66 127
3 0 129 126
3 134 147 113
3 27 120 82
3 141 166 109
3 73 133 18
3 72 4 61
3 97 98 156
3 142 73 125
3 125 117 142
3 88 174 105
3 37 33 119
3 67 144 11
3 84 102 63
3 54 150 57
3 333 165 143
3 87 90 43
3 123 44 136
3 113 91 134
3 134 40 135
3 137 91 92
3 127 16 15
3 5 159 48
3 2 109 162
3 159 5 143
3 161 41 56
3 90 87 122
3 39 112 15
3 4 135 44
3 120 27 58
3 168 110 92
3 145 158 94
3 168 111 110
3 112 48 66
3 162 109 17
3 91 137 56
3 50 140 4
3 146 5 124
3 27 81 83
3 56 137 161
3 50 81 140
3 14 19 43
3 127 15 112
3 58 106 1
3 167 64 159
3 91 56 134
3 147 134 135
3 17 14 43
3 139 106 58
3 2 141 109
3 83 39 152
3 3 5 48
3 15 139 152
3 161 156 146
3 106 121 90
3 70 131 89
3 50 123 93
3 153 131 313
3 135 72 147
3 127 74 141
3 122 20 0
3 17 170 169
3 3 124 5
3 21 171 174
3 145 14 17
3 313 131 100
3 74 65 334
3 1 0 126
3 88 30 31
3 47 336 149
3 47 80 336
3 17 169 145
3 79 6 130
3 148 149 99
3 60 37 38
3 65 64 167
3 69 157 55
3 170 17 109
3 25 46 104
3 101 54 18
3 172 144 36
3 52 13 173
3 21 101 18
3 21 18 133
3 174 31 116
3 173 164 52
3 88 31 174
3 21 133 171
3 174 116 21
3 174 171 105
3 175 292 176
3 252 182 227
3 271 286 196
3 220 197 198
3 321 202 233
3 305 293 294
3 235 210 288
3 228 272 238
3 203 288 204
3 240 248 239
3 272 259 258
3 201 199 329
3 270 98 99
3 216 215 305
3 295 229 193
3 184 259 185
3 197 221 274
3 221 220 272
3 281 280 251
3 229 295 232
3 253 280 222
3 286 175 299
3 184 242 241
3 276 176 292
3 234 269 296
3 246 317 217
3 245 224 228
3 226 298 197
3 299 205 206
3 242 184 185
3 228 259 272
3 210 235 209
3 219 225 293
3 215 216 231
3 205 269 213
3 281 301 183
3 200 258 284
3 224 245 283
3 208 329 285
3 307 271 229
3 221 272 258
3 242 187 241
3 315 189 268
3 254 277 255
3 177 310 191
3 317 283 245
3 268 319 267
3 262 320 287
3 187 188 186
3 207 289 234
3 308 291 191
3 298 226 230
3 199 250 198
3 211 338 284
3 287 324 262
3 312 316 180
3 220 249 257
3 203 235 288
3 220 198 249
3 197 274 226
3 235 212 209
3 261 205 203
3 315 158 169
3 292 263 276
3 267 319 320
3 331 218 192
3 245 217 317
3 309 237 277
3 282 266 214
3 273 252 187
3 239 328 223
3 179 304 246
3 320 244 267
3 242 273 187
3 259 211 258
3 323 250 237
3 206 286 299
3 212 285 209
3 330 325 270
3 149 222 318
3 256 266 225
3 291 331 177
3 254 309 277
3 176 234 296
3 195 260 292
3 163 158 267
3 285 212 208
3 207 234 290
3 262 322 300
3 262 324 322
3 204 275 261
3 198 298 199
3 323 237 236
3 298 243 199
3 295 287 232
3 209 326 210
3 327 332 182
3 238 257 217
3 244 300 100
3 276 291 308
3 218 260 194
3 189 194 268
3 266 282 178
3 278 255 277
3 310 334 248
3 239 248 65
3 181 253 79
3 325 316 312
3 307 260 195
3 201 278 277
3 175 286 195
3 183 335 281
3 289 212 213
3 299 296 269
3 278 201 329
3 185 259 228
3 301 281 273
3 237 250 201
3 287 311 324
3 289 207 208
3 314 211 184
3 259 184 211
3 250 323 249
3 230 243 298
3 204 261 203
3 130 182 181
3 198 250 249
3 228 224 185
3 332 227 182
3 284 258 211
3 220 221 197
3 200 221 258
3 179 225 219
3 321 190 214
3 291 263 331
3 306 330 270
3 308 191 190
3 194 260 307
3 319 307 229
3 333 325 312
3 310 166 334
3 277 237 201
3 285 329 199
3 305 294 216
3 176 233 234
3 217 236 246
3 307 268 194
3 251 253 181
3 283 183 224
3 252 251 181
3 182 252 181
3 290 255 278
3 244 100 163
3 297 248 240
3 320 262 244
3 257 249 323
3 285 199 243
3 217 323 236
3 241 187 186
3 185 301 242
3 293 178 294
3 330 216 316
3 270 99 318
3 312 328 165
3 308 321 233
3 325 333 98
3 283 264 183
3 290 234 233
3 228 238 245
3 265 335 264
3 179 236 309
3 237 309 236
3 202 254 255
3 232 320 319
3 289 213 269
3 278 329 207
3 199 201 250
3 273 281 251
3 323 217 257
3 327 182 130
3 224 183 301
3 243 326 209
3 205 213 203
3 295 193 247
3 184 241 314
3 273 242 301
3 310 297 191
3 209 285 243
3 220 257 272
3 298 198 197
3 256 202 321
3 178 293 266
3 279 170 166
3 218 331 263
3 219 305 215
3 318 306 270
3 265 318 222
3 318 265 306
3 195 271 307
3 183 264 335
3 207 290 278
3 163 267 244
3 271 195 286
3 191 291 177
3 223 240 239
3 227 187 252
3 227 188 187
3 253 251 280
3 253 336 79
3 224 301 185
3 273 251 252
3 287 320 232
3 238 217 245
3 235 203 213
3 329 208 207
3 205 299 269
3 178 282 223
3 256 214 266
3 231 303 215
3 316 216 294
3 265 222 280
3 307 319 268
3 254 256 225
3 269 234 289
3 167 165 328
3 267 315 268
3 219 215 304
3 282 297 240
3 175 296 299
3 303 283 317
3 202 255 290
3 310 279 166
3 247 193 302
3 246 236 179
3 270 325 98
3 311 295 247
3 295 311 287
3 261 275 340
3 212 289 208
3 241 186 314
3 257 238 272
3 229 232 319
3 333 312 165
3 260 218 263
3 293 305 219
3 283 303 264
3 303 304 215
3 306 265 264
3 297 190 191
3 180 223 328
3 177 331 279
3 328 312 180
3 330 231 216
3 263 292 260
3 214 190 282
3 179 219 304
3 290 233 202
3 335 265 280
3 315 267 158
3 335 280 281
3 282 240 223
3 331 192 279
3 264 231 306
3 225 179 309
3 316 294 180
3 202 256 254
3 231 330 306
3 225 309 254
3 189 218 194
3 297 282 190
3 233 176 276
3 167 328 239
3 264 303 231
3 317 304 303
3 192 218 189
3 308 233 276
3 177 279 310
3 256 321 214
3 178 223 180
3 190 321 308
3 330 316 325
3 276 263 291
3 244 262 300
3 225 266 293
3 322 313 300
3 304 317 246
3 297 310 248
3 292 175 195
3 192 169 170
3 178 180 294
3 196 340 337
3 315 192 189
3 313 100 300
3 248 334 65
3 176 296 175
3 261 206 205
3 222 149 336
3 222 336 253
3 192 315 169
3 79 130 181
3 318 99 149
3 235 213 212
3 65 167 239
3 243 230 326
3 170 279 192
3 200 274 221
3 271 193 229
3 338 211 314
3 227 339 188
3 196 193 271
3 196 302 193
3 340 286 206
3 339 227 332
3 261 340 206
3 196 337 302
3 340 196 286
3 340 275 337
