OFF
341 634 0
-0.359547684037523 0.304839401640467 0.20359436794057
-0.355828833316502 0.230310677257205 0.257503788984145
-0.131328536423292 0.208656897375958 0.307266191990792
-0.174555494830336 -0.0510851356651181 0.384955575883045
-0.3456001434617 -0.145253265430703 0.335220613185781
-0.106240305823117 -0.0906955394818812 0.365265135114528
-0.0675591159403214 -0.491558209208031 0.108670034168996
-0.0655120217447225 -0.534459554045794 0.0510854303106416
-0.240641040704204 -0.382954810130764 0.232030817264268
-0.349515208859414 -0.427394000359202 0.0826175746711833
-0.336334560339029 -0.402491814396774 0.148736284720984
-0.2756534 -0.4944831 0
-0.225194034979036 -0.50209534643593 0.0689921790726127
-0.2087998 -0.5251421 0
-0.12093153708638 0.361257865282638 0.227773109917582
-0.214635402640438 0.104303426374805 0.357023976899112
-0.170382244987397 0.161187218253143 0.333408303370065
-0.0759209879559075 0.310142493451996 0.248237796719242
-0.303523443961913 0.461139185696741 0.0708396976527325
-0.182881872345504 0.374246627369113 0.219912016935109
-0.301909768600587 0.361494490800377 0.193786862466946
-0.36001660658837 0.417270840226546 0.0756114263323669
-0.530628662912754 -0.177044582577522 0.0706921787098389
-0.522052805341371 -0.133669999500287 0.134925959284108
-0.529319780875891 -0.0475138965865607 0.150654925699993
-0.4884344 -0.2880939 0
-0.483933950186529 -0.0389792603853848 0.227058733700075
-0.359455689307481 0.0716533488484001 0.324472657231374
-0.50777097503563 0.230720361814293 0.0630217316061574
-0.5042845 0.2674346 0
-0.46659719697672 0.26675604698268 0.113722093131725
-0.428365903243078 0.328908481652135 0.10279649980872
-0.465267567931957 0.098875136650455 0.227434070431706
-0.505275840637639 0.0859772609237191 0.174845399113701
-0.553555841062719 0.0717447050556368 0.0679054669932534
-0.5587627 0.1112094 0
-0.402579300610396 -0.391339607826871 0.0494635715729948
-0.524551974355693 0.11725018683134 0.124732389663956
-0.499532335399315 0.193409031823657 0.123474954971361
-0.250072429484682 0.0478395114537815 0.369825241073068
-0.234357961940222 -0.217903970219791 0.347823845589684
-0.165515620940839 -0.200676731774599 0.354290496511421
-0.400280163874849 -0.236399744181134 0.254778153630078
-0.163474111858374 0.322388698720988 0.254514448954221
-0.281290368386193 -0.149274813611906 0.361896226340667
-0.4954924523482 -0.21604929589089 0.131166418223389
-0.496613719863005 -0.256364005416564 0.0714572867478328
-0.0589256829872144 -0.386166402333009 0.207485955706115
-0.110316603696231 -0.0174517427856057 0.369648430692507
-0.313544904268254 -0.369815788921356 0.210398968676665
-0.316937980986647 -0.0697043550950532 0.362477850977514
-0.5519026 -0.1375944 0
-0.146613073828096 -0.532960359991625 0.0437316133749166
-0.382985357597346 -0.342663897592759 0.177167066676359
-0.244921262784437 0.457797286623893 0.123676740622837
-0.5665181 -0.05534892 0
-0.179158159688054 -0.269301874990466 0.323902771073528
-0.191618476713014 0.490000671840533 0.104133731212712
-0.34617066365332 0.156166574521793 0.30184245079841
-0.420662212519976 0.173546455715607 0.241617094257908
-0.536276487421112 0.153825285304233 0.0654796626027135
-0.404441549393463 -0.158379111215463 0.289188571329638
-0.447368956152635 -0.0991952968390784 0.26385876438268
-0.412182828151546 -0.285437008270674 0.202137139304115
-0.0501853355403705 0.0164424986041041 0.336111063158554
1.38370015483215e-16 0.0524247736268089 0.290745452015972
-0.106921476407359 0.0459323999376221 0.358873021945709
-0.298389358218 -0.470549896721715 0.0551173296918461
-0.282023733306144 -0.455603289202155 0.114061234599947
-0.557445859437258 -0.0120582544976223 0.0746057558423671
-0.0588711420616163 0.501077400856692 0.0970445668804485
-0.355641963342776 -0.309111737110554 0.238293502557131
-0.359645732694916 -0.207017583681372 0.302662440219625
-0.287353 0.4959361 0
-0.0590730216709766 0.0884590933691613 0.327299847613859
-0.487092042956206 -0.172881849518448 0.180553652171043
-0.493502072285449 -0.107582199292619 0.200913107041497
-0.132937280120549 -0.46641839451137 0.151398546642816
-0.143139041837568 -0.505976209159695 0.096788717074135
2.82232517746748e-17 -0.455178514192171 0.113733657513928
-0.0627964555829455 -0.441802576776047 0.160363823256592
-0.371214822589364 -0.0126155561141533 0.3326457502764
-0.408687167642758 0.0338888021056744 0.299050422908682
-0.311501199831286 0.0180969160719834 0.359295237840332
-0.453182797872375 -0.23348495375736 0.192935367529372
-0.453556606995558 -0.326443513228857 0.0672817703924715
-0.401532599279677 -0.366836493944872 0.113990740888163
-0.237320375860232 0.344209383792548 0.232313457156371
-0.469197580694415 0.304705663555345 0.0544774608846362
-0.104533672100081 0.536819724706998 0.0564769772250245
-0.224140289541691 0.280106393534975 0.274874613152898
-0.196771732687032 -0.335243528450193 0.281229375866967
-0.12043741769594 -0.362746191511046 0.250490170428062
-0.247455315119582 -0.0202916266834343 0.38167578552578
-0.0770823136112062 0.448925071658164 0.153871857164604
-0.139578208050285 0.413654910201091 0.19218303578271
-0.45225079300295 0.223033689619608 0.175521805238844
-0.0537517754963004 -0.264138419329228 0.282319427553878
1.07729313058897e-16 -0.216386830552755 0.256266811167206
9.74982019849568e-17 -0.279426096490699 0.230545257188676
2.71437075311955e-17 0.519071824330923 0.0572498143933158
-0.305989802291337 0.414786395982021 0.137173667052003
-0.449569254004828 -0.294168938558504 0.137644938385092
-0.208801446973349 -0.471248439556201 0.13470066401684
-0.5256875 -0.2159877 0
-0.4614737 0.3373729 0
-0.285121160487861 0.224050803230155 0.292609774844512
-0.431144747302942 -0.030680626003588 0.286728989643314
-0.456445807610012 0.0323504170055971 0.255252753831381
-0.068583034001679 0.234671783302379 0.279668418883132
-0.121924182350216 -0.418229672903315 0.201934246564193
-0.192826857696729 -0.431441343055395 0.190481345865059
-0.177705795683106 0.0316979408337567 0.377984957829112
-0.281874183459796 -0.329266899926767 0.266187329729226
-0.4450312 -0.3498691 0
-0.535559727583271 0.0359120304962082 0.132039968096348
-0.3713779356193 0.36518299830887 0.136071745630809
-0.172380789354008 0.524797945075502 0.0581383874507412
-0.5367618 0.1923582 0
-0.480555083957842 0.152745645792953 0.183020196037119
-0.411875626863905 0.101932802529241 0.279238728098815
-0.206281601013016 0.219658673093226 0.307964328074496
-0.295402598802935 0.293867852511439 0.247656851617753
-0.238078223127669 -0.0936331817718278 0.381404600308921
-0.165445332931115 -0.126637751903235 0.375647728529734
-0.241223719319195 0.498543157483858 0.0620254649675459
-0.405105101983729 0.244913640404997 0.210374778995759
-0.134387363909434 0.102696599615725 0.350676394062385
-0.550235828424634 -0.0936608857371058 0.075368417861682
-0.415489571343393 0.296455420778362 0.157803562122847
2.47155435773091e-17 -0.513925677300961 0.05720057124816
-0.0429550195601696 0.544606543107269 0.0416136077351215
-0.265252277957367 -0.424081505736642 0.175053166378485
-0.3469738 0.4567638 0
-0.253615964430562 -0.279174307004317 0.311822685025212
-0.301722382779412 -0.214764623387482 0.330925318950948
-0.217741661901481 -0.158948120474513 0.369876344323527
-0.11904654792171 -0.304509410596146 0.291190577556593
-0.230739743546428 0.409315635072156 0.182858676271894
-0.258336813068822 0.163938308324142 0.328080410118375
-0.389193180605899 -0.0861893048992057 0.318847553480067
-0.077834071233317 0.159985928148834 0.312549853103027
-0.2179509 0.5297573 0
-0.04863611438727 -0.125136866991032 0.326980867650103
-0.3481025 -0.4466615 0
-0.0650731123492827 0.38171688062109 0.202403844502876
-0.104221516313753 -0.165125070172207 0.348908706216902
-0.32814945028769 -0.268191901972879 0.288384957382775
-0.057018289407587 -0.327029006488362 0.248802563299278
8.69245700334072e-17 -0.340191338392921 0.198220779393216
-0.167509692020582 0.456078960952062 0.151322357697517
-0.125616683505431 0.496520770749655 0.109859395109951
-0.295204863547599 0.0993553630501276 0.344242924650681
-0.06839787 0.5693324 0
-0.451002714046487 -0.170147966540475 0.235676842080411
-0.1459664 0.5540397 0
-0.0498922276585447 -0.196044185764807 0.308293320791514
-0.5687363 0.02701634 0
7.35777763595951e-17 0.397666523153406 0.159598696083651
-0.0493658142546874 -0.0539841359094665 0.337120126254771
-0.502368076574397 0.0240670362185295 0.196887478088122
-0.109308033765644 -0.237630450306372 0.323974557699392
-0.143226993378493 0.266473463419666 0.282682563995808
5.44325450753337e-17 0.456495393855073 0.114161729273106
-0.07314713 -0.5603097 0
1.2109780520329e-16 -0.0839041054027432 0.287145624101541
1.37225461583913e-16 0.189484372048152 0.266157699819118
1.31391280188749e-16 -0.0168290338216585 0.292082323435249
-0.175541185124486 -0.38797682769111 0.235780520900068
9.51056657490901e-17 0.329872865365961 0.20310275637766
1.01166712542136e-16 0.2610255186709 0.238536633223376
-0.403703 0.4057092 0
-0.3983695 -0.4019898 0
-0.1456375 -0.5454938 0
-0.418191574149545 0.366306182509668 0.0643519423010773
0.359547684037523 0.304839401640467 0.20359436794057
0.355828833316502 0.230310677257205 0.257503788984145
0.131328536423293 0.208656897375958 0.307266191990792
0.174555494830337 -0.0510851356651181 0.384955575883045
0.3456001434617 -0.145253265430703 0.335220613185782
0.106240305823117 -0.0906955394818812 0.365265135114528
0.0675591159403215 -0.491558209208031 0.108670034168996
0.0655120217447225 -0.534459554045794 0.0510854303106416
0.240641040704204 -0.382954810130764 0.232030817264268
0.349515208859414 -0.427394000359202 0.0826175746711834
0.336334560339029 -0.402491814396774 0.148736284720984
0.2756534 -0.4944831 0
0.225194034979036 -0.50209534643593 0.0689921790726128
0.2087998 -0.5251421 0
0.12093153708638 0.361257865282638 0.227773109917582
0.214635402640438 0.104303426374804 0.357023976899113
0.170382244987397 0.161187218253143 0.333408303370065
0.0759209879559078 0.310142493451996 0.248237796719242
0.303523443961913 0.46113918569674 0.0708396976527325
0.182881872345505 0.374246627369113 0.219912016935109
0.301909768600588 0.361494490800377 0.193786862466946
0.36001660658837 0.417270840226546 0.0756114263323668
0.530628662912754 -0.177044582577522 0.0706921787098389
0.522052805341371 -0.133669999500287 0.134925959284108
0.529319780875891 -0.0475138965865608 0.150654925699993
0.4884344 -0.2880939 0
0.483933950186529 -0.0389792603853848 0.227058733700075
0.359455689307481 0.0716533488484001 0.324472657231374
0.50777097503563 0.230720361814293 0.0630217316061575
0.5042845 0.2674346 0
0.46659719697672 0.26675604698268 0.113722093131725
0.428365903243079 0.328908481652135 0.10279649980872
0.465267567931957 0.098875136650455 0.227434070431706
0.505275840637639 0.0859772609237191 0.174845399113701
0.553555841062719 0.0717447050556367 0.0679054669932535
0.5587627 0.1112094 0
0.402579300610396 -0.391339607826871 0.0494635715729949
0.524551974355693 0.11725018683134 0.124732389663957
0.499532335399315 0.193409031823657 0.123474954971361
0.250072429484682 0.0478395114537814 0.369825241073068
0.234357961940223 -0.217903970219791 0.347823845589684
0.16551562094084 -0.200676731774599 0.354290496511421
0.40028016387485 -0.236399744181134 0.254778153630078
0.163474111858374 0.322388698720987 0.254514448954221
0.281290368386194 -0.149274813611906 0.361896226340668
0.4954924523482 -0.21604929589089 0.131166418223389
0.496613719863006 -0.256364005416564 0.0714572867478328
0.0589256829872148 -0.386166402333009 0.207485955706115
0.110316603696232 -0.0174517427856057 0.369648430692507
0.313544904268254 -0.369815788921356 0.210398968676666
0.316937980986648 -0.0697043550950533 0.362477850977514
0.5519026 -0.1375944 0
0.146613073828096 -0.532960359991625 0.0437316133749166
0.382985357597346 -0.342663897592759 0.177167066676359
0.244921262784437 0.457797286623893 0.123676740622837
0.5665181 -0.05534892 0
0.179158159688054 -0.269301874990466 0.323902771073528
0.191618476713014 0.490000671840533 0.104133731212712
0.34617066365332 0.156166574521793 0.30184245079841
0.420662212519977 0.173546455715607 0.241617094257908
0.536276487421112 0.153825285304233 0.0654796626027135
0.404441549393464 -0.158379111215463 0.289188571329639
0.447368956152635 -0.0991952968390785 0.26385876438268
0.412182828151547 -0.285437008270674 0.202137139304115
0.0501853355403709 0.0164424986041041 0.336111063158554
0.10692147640736 0.0459323999376221 0.35887302194571
0.298389358218 -0.470549896721715 0.0551173296918461
0.282023733306144 -0.455603289202155 0.114061234599947
0.557445859437258 -0.0120582544976224 0.0746057558423671
0.0588711420616164 0.501077400856692 0.0970445668804485
0.355641963342776 -0.309111737110554 0.238293502557131
0.359645732694916 -0.207017583681373 0.302662440219625
0.287353 0.4959361 0
0.0590730216709769 0.0884590933691612 0.32729984761386
0.487092042956206 -0.172881849518449 0.180553652171043
0.493502072285449 -0.107582199292619 0.200913107041497
0.132937280120549 -0.46641839451137 0.151398546642816
0.143139041837568 -0.505976209159695 0.0967887170741351
0.0627964555829457 -0.441802576776047 0.160363823256592
0.371214822589365 -0.0126155561141533 0.3326457502764
0.408687167642759 0.0338888021056744 0.299050422908682
0.311501199831286 0.0180969160719834 0.359295237840333
0.453182797872375 -0.23348495375736 0.192935367529372
0.453556606995558 -0.326443513228857 0.0672817703924714
0.401532599279677 -0.366836493944872 0.113990740888164
0.237320375860232 0.344209383792547 0.232313457156371
0.469197580694415 0.304705663555345 0.0544774608846362
0.104533672100081 0.536819724706997 0.0564769772250245
0.224140289541692 0.280106393534975 0.274874613152898
0.196771732687032 -0.335243528450193 0.281229375866967
0.12043741769594 -0.362746191511046 0.250490170428063
0.247455315119582 -0.0202916266834343 0.381675785525781
0.0770823136112065 0.448925071658164 0.153871857164604
0.139578208050285 0.413654910201091 0.19218303578271
0.45225079300295 0.223033689619608 0.175521805238844
0.0537517754963007 -0.264138419329228 0.282319427553878
0.305989802291337 0.414786395982021 0.137173667052003
0.449569254004828 -0.294168938558504 0.137644938385092
0.208801446973349 -0.471248439556201 0.13470066401684
0.5256875 -0.2159877 0
0.4614737 0.3373729 0
0.285121160487861 0.224050803230155 0.292609774844512
0.431144747302942 -0.030680626003588 0.286728989643314
0.456445807610013 0.0323504170055972 0.255252753831381
0.0685830340016793 0.234671783302379 0.279668418883132
0.121924182350216 -0.418229672903315 0.201934246564193
0.19282685769673 -0.431441343055395 0.190481345865059
0.177705795683106 0.0316979408337566 0.377984957829113
0.281874183459797 -0.329266899926767 0.266187329729226
0.4450312 -0.3498691 0
0.535559727583271 0.0359120304962081 0.132039968096348
0.3713779356193 0.36518299830887 0.136071745630809
0.172380789354008 0.524797945075502 0.0581383874507412
0.5367618 0.1923582 0
0.480555083957842 0.152745645792953 0.183020196037119
0.411875626863905 0.101932802529241 0.279238728098815
0.206281601013016 0.219658673093226 0.307964328074496
0.295402598802936 0.293867852511439 0.247656851617753
0.23807822312767 -0.0936331817718278 0.381404600308921
0.165445332931116 -0.126637751903235 0.375647728529735
0.241223719319195 0.498543157483858 0.0620254649675459
0.405105101983729 0.244913640404997 0.210374778995759
0.134387363909434 0.102696599615725 0.350676394062385
0.550235828424634 -0.0936608857371058 0.0753684178616819
0.415489571343394 0.296455420778362 0.157803562122847
0.0429550195601697 0.544606543107269 0.0416136077351215
0.265252277957367 -0.424081505736642 0.175053166378486
0.3469738 0.4567638 0
0.253615964430562 -0.279174307004317 0.311822685025212
0.301722382779412 -0.214764623387482 0.330925318950948
0.217741661901481 -0.158948120474513 0.369876344323528
0.11904654792171 -0.304509410596146 0.291190577556593
0.230739743546428 0.409315635072156 0.182858676271894
0.258336813068823 0.163938308324142 0.328080410118375
0.3891931806059 -0.0861893048992058 0.318847553480068
0.0778340712333174 0.159985928148834 0.312549853103027
0.2179509 0.5297573 0
0.0486361143872704 -0.125136866991032 0.326980867650104
0 0.575 0
0.3481025 -0.4466615 0
0.065073112349283 0.38171688062109 0.202403844502876
0.104221516313754 -0.165125070172207 0.348908706216902
0.32814945028769 -0.268191901972879 0.288384957382775
0.0570182894075873 -0.327029006488362 0.248802563299278
0.167509692020582 0.456078960952062 0.151322357697517
0.125616683505431 0.496520770749654 0.109859395109951
0.2952048635476 0.0993553630501275 0.344242924650681
0.06839787 0.5693324 0
0.451002714046487 -0.170147966540476 0.235676842080411
0.1459664 0.5540397 0
0.049892227658545 -0.196044185764807 0.308293320791514
0.5687363 0.02701634 0
0 -0.5663709 0
0.0493658142546878 -0.0539841359094665 0.337120126254772
0.502368076574397 0.0240670362185295 0.196887478088122
0.109308033765644 -0.237630450306372 0.323974557699392
0.143226993378493 0.266473463419666 0.282682563995808
0.07314713 -0.5603097 0
1.16033627213952e-16 -0.151092798286672 0.27522063396057
1.40656645027428e-16 0.12201125201422 0.282586863692516
0.175541185124486 -0.38797682769111 0.235780520900068
6.26532846129998e-17 -0.398837740334026 0.159218872161212
0.403703 0.4057092 0
0.3983695 -0.4019898 0
0.1456375 -0.5454938 0
0.418191574149545 0.366306182509668 0.0643519423010772
3 0 1 122
3 78 52 7
3 101 21 116
3 45 23 22
3 152 58 27
3 136 124 123
3 60 118 35
3 53 63 102
3 28 29 118
3 66 64 74
3 102 85 86
3 26 160 24
3 97 99 98
3 41 136 40
3 125 18 54
3 9 10 86
3 22 104 46
3 46 102 45
3 111 77 110
3 54 57 125
3 80 47 110
3 116 129 0
3 9 67 68
3 106 122 1
3 59 126 96
3 72 42 147
3 71 53 49
3 51 22 128
3 129 31 30
3 68 10 9
3 53 102 86
3 35 34 60
3 44 123 50
3 40 56 41
3 30 38 96
3 111 8 132
3 25 114 85
3 49 113 71
3 33 115 160
3 138 54 101
3 46 85 102
3 68 67 12
3 145 95 14
3 81 82 107
3 2 16 141
3 147 71 113
3 95 94 150
3 89 117 151
3 12 11 13
3 32 59 119
3 139 16 121
3 128 55 51
3 24 23 76
3 36 114 172
3 117 89 155
3 143 5 146
3 45 84 75
3 28 118 60
3 45 75 23
3 22 51 104
3 60 34 37
3 88 28 30
3 145 169 158
3 122 106 90
3 94 151 150
3 162 17 43
3 71 147 42
3 140 107 62
3 112 39 93
3 103 12 78
3 64 48 159
3 4 72 135
3 151 94 70
3 68 12 103
3 86 85 36
3 154 62 76
3 31 129 116
3 37 34 115
3 161 97 156
3 149 148 47
3 83 50 93
3 121 2 162
3 81 107 140
3 1 126 59
3 20 122 87
3 163 94 158
3 115 33 37
3 32 120 59
3 89 131 153
3 89 153 155
3 29 88 105
3 23 24 128
3 154 61 62
3 128 24 69
3 125 57 117
3 34 35 157
3 327 7 164
3 63 42 84
3 70 100 131
3 106 139 121
3 43 19 87
3 14 95 19
3 93 3 112
3 108 107 82
3 141 74 334
3 64 65 74
3 6 79 80
3 156 143 146
3 138 20 87
3 26 107 108
3 0 20 116
3 8 111 168
3 119 38 37
3 129 96 126
3 108 160 26
3 10 53 86
3 132 103 111
3 62 26 76
3 117 155 142
3 119 33 32
3 144 9 36
3 86 36 9
3 76 75 154
3 55 128 69
3 29 28 88
3 130 6 7
3 23 75 76
3 53 10 49
3 164 7 52
3 114 36 85
3 45 22 46
3 25 85 46
3 4 44 50
3 152 39 15
3 121 162 90
3 137 97 161
3 139 15 16
3 19 138 87
3 150 54 138
3 333 143 156
3 141 334 166
3 107 26 62
3 115 24 160
3 136 41 124
3 1 59 58
3 42 72 61
3 138 19 95
3 77 6 80
3 113 49 8
3 78 6 77
3 7 6 78
3 120 108 82
3 70 163 100
3 127 66 74
3 151 70 89
3 84 154 75
3 115 69 24
3 42 61 154
3 67 11 12
3 10 68 132
3 123 124 3
3 161 146 41
3 97 148 99
3 143 165 159
3 139 58 152
3 156 98 333
3 113 8 91
3 120 58 59
3 53 71 63
3 92 91 168
3 4 140 61
3 62 61 140
3 27 82 81
3 57 150 151
3 119 96 38
3 108 32 160
3 24 76 26
3 103 77 111
3 154 84 42
3 327 130 7
3 49 132 8
3 69 34 157
3 30 28 38
3 125 73 18
3 9 144 67
3 103 132 68
3 141 16 127
3 34 69 115
3 45 102 84
3 128 22 23
3 83 152 27
3 3 93 123
3 109 166 170
3 43 90 162
3 44 40 136
3 148 97 137
3 92 47 148
3 148 137 92
3 20 138 101
3 8 168 91
3 32 108 120
3 163 70 94
3 101 116 20
3 16 2 121
3 48 64 66
3 52 78 12
3 52 12 13
3 80 110 77
3 80 79 336
3 49 10 132
3 103 78 77
3 117 57 151
3 63 71 42
3 60 38 28
3 160 32 33
3 30 96 129
3 3 48 112
3 83 93 39
3 56 40 134
3 146 124 41
3 92 110 47
3 138 95 150
3 81 50 83
3 96 119 59
3 167 159 165
3 94 95 145
3 44 135 40
3 112 66 127
3 0 129 126
3 134 147 113
3 27 120 82
3 141 166 109
3 73 133 18
3 72 4 61
3 97 98 156
3 142 73 125
3 125 117 142
3 88 174 105
3 37 33 119
3 67 144 11
3 84 102 63
3 54 150 57
3 333 165 143
3 87 90 43
3 123 44 136
3 113 91 134
3 134 40 135
3 137 91 92
3 127 16 15
3 5 159 48
3 2 109 162
3 159 5 143
3 161 41 56
3 90 87 122
3 39 112 15
3 4 135 44
3 120 27 58
3 168 110 92
3 145 158 94
3 168 111 110
3 112 48 66
3 162 109 17
3 91 137 56
3 50 140 4
3 146 5 124
3 27 81 83
3 56 137 161
3 50 81 140
3 14 19 43
3 127 15 112
3 58 106 1
3 167 64 159
3 91 56 134
3 147 134 135
3 17 14 43
3 139 106 58
3 2 141 109
3 83 39 152
3 3 5 48
3 15 139 152
3 161 156 146
3 106 121 90
3 70 131 89
3 50 123 93
3 153 131 313
3 135 72 147
3 127 74 141
3 122 20 0
3 17 170 169
3 3 124 5
3 21 171 174
3 145 14 17
3 313 131 100
3 74 65 334
3 1 0 126
3 88 30 31
3 47 336 149
3 47 80 336
3 17 169 145
3 79 6 130
3 148 149 99
3 60 37 38
3 65 64 167
3 69 157 55
3 170 17 109
3 25 46 104
3 101 54 18
3 172 144 36
3 52 13 173
3 21 101 18
3 21 18 133
3 174 31 116
3 173 164 52
3 88 31 174
3 21 133 171
3 174 116 21
3 174 171 105
3 175 292 176
3 252 182 227
3 271 286 196
3 220 197 198
3 321 202 233
3 305 293 294
3 235 210 288
3 228 272 238
3 203 288 204
3 240 248 239
3 272 259 258
3 201 199 329
3 270 98 99
3 216 215 305
3 295 229 193
3 184 259 185
3 197 221 274
3 221 220 272
3 281 280 251
3 229 295 232
3 253 280 222
3 286 175 299
3 184 242 241
3 276 176 292
3 234 269 296
3 246 317 217
3 245 224 228
3 226 298 197
3 299 205 206
3 242 184 185
3 228 259 272
3 210 235 209
3 219 225 293
3 215 216 231
3 205 269 213
3 281 301 183
3 200 258 284
3 224 245 283
3 208 329 285
3 307 271 229
3 221 272 258
3 242 187 241
3 315 189 268
3 254 277 255
3 177 310 191
3 317 283 245
3 268 319 267
3 262 320 287
3 187 188 186
3 207 289 234
3 308 291 191
3 298 226 230
3 199 250 198
3 211 338 284
3 287 324 262
3 312 316 180
3 220 249 257
3 203 235 288
3 220 198 249
3 197 274 226
3 235 212 209
3 261 205 203
3 315 158 169
3 292 263 276
3 267 319 320
3 331 218 192
3 245 217 317
3 309 237 277
3 282 266 214
3 273 252 187
3 239 328 223
3 179 304 246
3 320 244 267
3 242 273 187
3 259 211 258
3 323 250 237
3 206 286 299
3 212 285 209
3 330 325 270
3 149 222 318
3 256 266 225
3 291 331 177
3 254 309 277
3 176 234 296
3 195 260 292
3 163 158 267
3 285 212 208
3 207 234 290
3 262 322 300
3 262 324 322
3 204 275 261
3 198 298 199
3 323 237 236
3 298 243 199
3 295 287 232
3 209 326 210
3 327 332 182
3 238 257 217
3 244 300 100
3 276 291 308
3 218 260 194
3 189 194 268
3 266 282 178
3 278 255 277
3 310 334 248
3 239 248 65
3 181 253 79
3 325 316 312
3 307 260 195
3 201 278 277
3 175 286 195
3 183 335 281
3 289 212 213
3 299 296 269
3 278 201 329
3 185 259 228
3 301 281 273
3 237 250 201
3 287 311 324
3 289 207 208
3 314 211 184
3 259 184 211
3 250 323 249
3 230 243 298
3 204 261 203
3 130 182 181
3 198 250 249
3 228 224 185
3 332 227 182
3 284 258 211
3 220 221 197
3 200 221 258
3 179 225 219
3 321 190 214
3 291 263 331
3 306 330 270
3 308 191 190
3 194 260 307
3 319 307 229
3 333 325 312
3 310 166 334
3 277 237 201
3 285 329 199
3 305 294 216
3 176 233 234
3 217 236 246
3 307 268 194
3 251 253 181
3 283 183 224
3 252 251 181
3 182 252 181
3 290 255 278
3 244 100 163
3 297 248 240
3 320 262 244
3 257 249 323
3 285 199 243
3 217 323 236
3 241 187 186
3 185 301 242
3 293 178 294
3 330 216 316
3 270 99 318
3 312 328 165
3 308 321 233
3 325 333 98
3 283 264 183
3 290 234 233
3 228 238 245
3 265 335 264
3 179 236 309
3 237 309 236
3 202 254 255
3 232 320 319
3 289 213 269
3 278 329 207
3 199 201 250
3 273 281 251
3 323 217 257
3 327 182 130
3 224 183 301
3 243 326 209
3 205 213 203
3 295 193 247
3 184 241 314
3 273 242 301
3 310 297 191
3 209 285 243
3 220 257 272
3 298 198 197
3 256 202 321
3 178 293 266
3 279 170 166
3 218 331 263
3 219 305 215
3 318 306 270
3 265 318 222
3 318 265 306
3 195 271 307
3 183 264 335
3 207 290 278
3 163 267 244
3 271 195 286
3 191 291 177
3 223 240 239
3 227 187 252
3 227 188 187
3 253 251 280
3 253 336 79
3 224 301 185
3 273 251 252
3 287 320 232
3 238 217 245
3 235 203 213
3 329 208 207
3 205 299 269
3 178 282 223
3 256 214 266
3 231 303 215
3 316 216 294
3 265 222 280
3 307 319 268
3 254 256 225
3 269 234 289
3 167 165 328
3 267 315 268
3 219 215 304
3 282 297 240
3 175 296 299
3 303 283 317
3 202 255 290
3 310 279 166
3 247 193 302
3 246 236 179
3 270 325 98
3 311 295 247
3 295 311 287
3 261 275 340
3 212 289 208
3 241 186 314
3 257 238 272
3 229 232 319
3 333 312 165
3 260 218 263
3 293 305 219
3 283 303 264
3 303 304 215
3 306 265 264
3 297 190 191
3 180 223 328
3 177 331 279
3 328 312 180
3 330 231 216
3 263 292 260
3 214 190 282
3 179 219 304
3 290 233 202
3 335 265 280
3 315 267 158
3 335 280 281
3 282 240 223
3 331 192 279
3 264 231 306
3 225 179 309
3 316 294 180
3 202 256 254
3 231 330 306
3 225 309 254
3 189 218 194
3 297 282 190
3 233 176 276
3 167 328 239
3 264 303 231
3 317 304 303
3 192 218 189
3 308 233 276
3 177 279 310
3 256 321 214
3 178 223 180
3 190 321 308
3 330 316 325
3 276 263 291
3 244 262 300
3 225 266 293
3 322 313 300
3 304 317 246
3 297 310 248
3 292 175 195
3 192 169 170
3 178 180 294
3 196 340 337
3 315 192 189
3 313 100 300
3 248 334 65
3 176 296 175
3 261 206 205
3 222 149 336
3 222 336 253
3 192 315 169
3 79 130 181
3 318 99 149
3 235 213 212
3 65 167 239
3 243 230 326
3 170 279 192
3 200 274 221
3 271 193 229
3 338 211 314
3 227 339 188
3 196 193 271
3 196 302 193
3 340 286 206
3 339 227 332
3 261 340 206
3 196 337 302
3 340 196 286
3 340 275 337
