OFF
341 634 0
-0.344225531454138 0.291267493599195 0.185607132562722
-0.341416579091094 0.219813269278388 0.237752825783666
-0.133594816975131 0.208841460446194 0.323316693905707
-0.18820834366111 -0.052205107423363 0.389823042633925
-0.341825828126256 -0.139912197543941 0.315108202265131
-0.123156398754571 -0.0943785112305646 0.392801250960757
-0.0685502729754213 -0.49373743711824 0.116742531211197
-0.0654171896525119 -0.532918676918834 0.0525802353043586
-0.238025236960826 -0.371403695684333 0.221881615630036
-0.340515411146028 -0.415505522683186 0.0752387276085482
-0.325872560884119 -0.387676904763881 0.136630977822616
-0.2756534 -0.4944831 0
-0.219910271179414 -0.489894328151889 0.0630969208164288
-0.2087998 -0.5251421 0
-0.121245530297702 0.359570550950538 0.233865218787162
-0.217717728048724 0.101277473028141 0.3534452352349
-0.173199790051864 0.159101543829813 0.340204585445999
-0.078042680294042 0.315914930023914 0.271500777441849
-0.295785170443033 0.449288858315334 0.0627003844463149
-0.179266355841817 0.365466192843181 0.213987240125239
-0.290007582296094 0.346760172898242 0.177947451688862
-0.350329084263525 0.405918934477196 0.0669539775392794
-0.520990473916872 -0.173375982799871 0.0644824073759484
-0.507458439213202 -0.129204080989472 0.122830665757555
-0.513026169618315 -0.0456053125012701 0.136854696978795
-0.4884344 -0.2880939 0
-0.467108792899352 -0.0370620941645457 0.207249424442448
-0.350021438782748 0.0684524673325349 0.302954211100523
-0.497250578072692 0.22588294698069 0.0564711639320462
-0.5042845 0.2674346 0
-0.451139484040624 0.257720785221827 0.101807737587235
-0.414703844456655 0.318200542600964 0.0917430232123459
-0.446999422244849 0.0946383939497493 0.206967579634284
-0.487036148607381 0.0827804940435779 0.158351422950102
-0.54294579474063 0.07043964764469 0.0614675630526703
-0.5587627 0.1112094 0
-0.395801698946323 -0.384172325058761 0.0450998989626737
-0.50830420999621 0.113576737312369 0.112572602118207
-0.483064570847426 0.186872837465286 0.110988112889877
-0.253037676592654 0.0456316675341847 0.35935745163598
-0.241251759366728 -0.213579489771398 0.339882067500784
-0.178697808152436 -0.200991060011836 0.361303306099263
-0.389172707495051 -0.22656215139047 0.235358547619707
-0.161842149242158 0.317476617834885 0.255046768428604
-0.284887293687484 -0.145296943272453 0.347342901733973
-0.481799826701223 -0.209037897649394 0.119584327018648
-0.487175316693445 -0.250881243571289 0.0652375323443763
-0.0640399734991546 -0.398487073356264 0.236411641080632
-0.125980264686969 -0.0196899783670543 0.394631330608308
-0.305297506229881 -0.355681323702257 0.195892700346805
-0.316413040081242 -0.0676435730178242 0.343824116505977
-0.5519026 -0.1375944 0
-0.144554041703486 -0.525551745920477 0.0406541248512693
-0.370944400879295 -0.329316284309948 0.162635088138109
-0.237164601892873 0.443147193817136 0.112328307746946
-0.5665181 -0.05534892 0
-0.188485328244338 -0.267248824807374 0.32605533208608
-0.186834357424572 0.477619285788772 0.0956086202130604
-0.334697528506897 0.149216400607391 0.281520962157611
-0.403047280322381 0.165477957499547 0.22043531916502
-0.525578858436276 0.150749980172504 0.0589941377476707
-0.394206817655008 -0.151709099538472 0.267829161820867
-0.433377373661711 -0.0947547054406571 0.242461455617342
-0.399391966462257 -0.273963748071345 0.185640514307977
-0.0617309300786607 0.0151255279558408 0.390358445098469
1.83637031880199e-16 0.0559082509861371 0.381540702297805
-0.119312508894763 0.0448048883155681 0.385358717459466
-0.292311290663999 -0.460488262788664 0.0500861847800659
-0.273856261448013 -0.44085749735798 0.104832718154307
-0.546517636663442 -0.0116470182935363 0.0677437594811326
-0.0593553992581548 0.501997542987689 0.101478948836541
-0.346290546375388 -0.296734049610145 0.221129368139729
-0.353189614021144 -0.198923069304965 0.28283325757849
-0.287353 0.4959361 0
-0.0671564555855224 0.0907219329600739 0.375253267768526
-0.471835437936747 -0.166188054883703 0.164808977258659
-0.477265089207738 -0.103084105848175 0.183303647530282
-0.132969411364803 -0.460775350219012 0.151791930076402
-0.141066558999028 -0.497058198139435 0.0933752804736397
9.05498487357642e-17 -0.475860517323018 0.14664551327392
-0.065651491000727 -0.449675113738966 0.178500637630255
-0.363336835650901 -0.0121887891869054 0.310471639525678
-0.395746085695265 0.0324525339831907 0.276208970477037
-0.309253278747173 0.016970261538595 0.341000856114035
-0.4388653767053 -0.224200570412023 0.176541460472285
-0.444780713076977 -0.319439926294286 0.0614378497783559
-0.390139927707282 -0.355045741484194 0.104026802303966
-0.230104961946783 0.332816366338362 0.220765729288845
-0.460088865428926 0.298685816352084 0.0485569964238889
-0.103347829724846 0.530548501212756 0.052998921394176
-0.219019453560256 0.27213541138834 0.267141407637092
-0.200948701128201 -0.329416338042155 0.277892185261329
-0.127089467083053 -0.364736355140438 0.262914887035759
-0.253548201229084 -0.0207445762247079 0.37135427629337
-0.0781678894932622 0.450248244781272 0.16086842328511
-0.138375918899141 0.407551876853287 0.190377560137893
-0.433836452304184 0.213534304490203 0.158315617542343
-0.0635988292903844 -0.278821054112696 0.329239043002282
1.23351388522204e-16 -0.242524388310514 0.345636401717906
8.34086160886086e-17 -0.309053999560893 0.309080156340293
2.32240765548212e-17 0.528065106949041 0.0696322861900026
-0.294794991937309 0.39942445346957 0.12368419869443
-0.436374126511277 -0.284070290489514 0.125637610202672
-0.204084264514982 -0.457954089467103 0.127090609260169
-0.5256875 -0.2159877 0
-0.4614737 0.3373729 0
-0.276643087165523 0.215420528418491 0.27775684214568
-0.41768106223221 -0.0291687116922257 0.264085797586012
-0.439849673312133 0.0311243344232012 0.233493878437045
-0.0709279532004006 0.241474796759818 0.314196276620882
-0.125125380627977 -0.417382618190121 0.20897112980989
-0.191137856666713 -0.421154682783986 0.184753639743725
-0.188023993211621 0.0298577158190997 0.381820183725638
-0.278552673236352 -0.318121360590213 0.252310201733511
-0.4450312 -0.3498691 0
-0.519488110369006 0.0349586012333219 0.119590540736818
-0.357206604392168 0.351005218212013 0.121980600910682
-0.169100918273877 0.514968379599482 0.0522578026722946
-0.5367618 0.1923582 0
-0.461714080339238 0.146449304680443 0.16546076310817
-0.396660149104707 0.0973128365654964 0.256768634658547
-0.204206845164 0.214636083030425 0.305289873073927
-0.284424705752661 0.281929891030815 0.231594533626078
-0.246566412193736 -0.0924534119181342 0.372895654135201
-0.180227344381048 -0.127551796584343 0.3832357948285
-0.235808062833181 0.487350982142893 0.0550531167716968
-0.387718670355791 0.233718175921151 0.191204034147665
-0.142420287609821 0.101734205001512 0.367858574858017
-0.539705071765439 -0.0915325824759424 0.0686189722136098
-0.398784946828256 0.284184590817469 0.141994152157524
7.52202454504138e-17 -0.524585433537304 0.072358795355835
-0.0430380690835776 0.544572161157282 0.0431160682246521
-0.258469035539193 -0.409402516589968 0.163778246556594
-0.3469738 0.4567638 0
-0.255840087578631 -0.271646902096858 0.300749596343104
-0.301497583335678 -0.207800783831983 0.314581008000895
-0.227808818862733 -0.15699947634639 0.365201352421145
-0.129172328928281 -0.308311470699019 0.308247771734282
-0.223429542683902 0.395659474621446 0.170748849749234
-0.254574821847145 0.158400738050816 0.316992156542503
-0.380601105578937 -0.0826059208922904 0.29654826254992
-0.0825679485096986 0.16388929518399 0.349517536525605
-0.2179509 0.5297573 0
-0.0615354898745253 -0.134667342232673 0.384282585529704
-0.3481025 -0.4466615 0
-0.0671159040564463 0.387886042443001 0.220311939372021
-0.120233383246714 -0.170364744264293 0.376982601536173
-0.323030599027631 -0.258164825322779 0.270770937789523
-0.0645929610319815 -0.341398791528322 0.287104410995837
1.20594623021567e-16 -0.37019242812373 0.263126169205401
-0.164047242694127 0.445593158960895 0.144025932924193
-0.123896732939785 0.488727380121935 0.105465765812336
-0.291085457363765 0.0952976290529153 0.327990032388762
-0.06839787 0.5693324 0
-0.43688056783992 -0.162930608782183 0.216243789181046
-0.1459664 0.5540397 0
-0.0615165489445582 -0.209117092422319 0.362434259655203
-0.5687363 0.02701634 0
5.57326020090586e-17 0.417744369540839 0.197354734175723
-0.0626255271142328 -0.059264313783772 0.393514976235131
-0.484380884965537 0.0233690673382819 0.178910131668678
-0.122894737353886 -0.243099823824184 0.347881717610531
-0.143498845496034 0.265008767376856 0.291889199384199
4.44629506472521e-17 0.473011075950712 0.140445918754765
-0.07314713 -0.5603097 0
1.55013452378154e-16 -0.0962384718502035 0.386663241087458
1.37870339567977e-16 0.203529392439657 0.334206897921028
1.85572648139221e-16 -0.0211105952677205 0.389779626087222
-0.177775331394723 -0.381854181638971 0.234441900739478
1.15507581220153e-16 0.350248736986739 0.251880716980262
9.94385189156338e-17 0.279143387235548 0.296673804555509
-0.403703 0.4057092 0
-0.3983695 -0.4019898 0
-0.1456375 -0.5454938 0
-0.408453820955724 0.357641994133779 0.0571277825726888
0.344225531454138 0.291267493599195 0.185607132562722
0.341416579091094 0.219813269278388 0.237752825783666
0.133594816975131 0.208841460446194 0.323316693905707
0.188208343661111 -0.052205107423363 0.389823042633926
0.341825828126256 -0.139912197543941 0.315108202265132
0.123156398754572 -0.0943785112305646 0.392801250960757
0.0685502729754215 -0.49373743711824 0.116742531211197
0.065417189652512 -0.532918676918834 0.0525802353043586
0.238025236960826 -0.371403695684333 0.221881615630036
0.340515411146028 -0.415505522683186 0.0752387276085482
0.325872560884119 -0.387676904763881 0.136630977822616
0.2756534 -0.4944831 0
0.219910271179414 -0.489894328151889 0.063096920816429
0.2087998 -0.5251421 0
0.121245530297702 0.359570550950538 0.233865218787162
0.217717728048725 0.101277473028141 0.353445235234901
0.173199790051864 0.159101543829813 0.340204585445999
0.0780426802940423 0.315914930023914 0.271500777441849
0.295785170443033 0.449288858315334 0.062700384446315
0.179266355841817 0.365466192843181 0.213987240125239
0.290007582296095 0.346760172898242 0.177947451688862
0.350329084263525 0.405918934477196 0.0669539775392795
0.520990473916873 -0.173375982799871 0.0644824073759484
0.507458439213202 -0.129204080989472 0.122830665757555
0.513026169618315 -0.0456053125012701 0.136854696978796
0.4884344 -0.2880939 0
0.467108792899352 -0.0370620941645457 0.207249424442448
0.350021438782748 0.0684524673325349 0.302954211100523
0.497250578072692 0.22588294698069 0.0564711639320463
0.5042845 0.2674346 0
0.451139484040624 0.257720785221827 0.101807737587236
0.414703844456655 0.318200542600964 0.091743023212346
0.446999422244849 0.0946383939497494 0.206967579634284
0.487036148607381 0.0827804940435779 0.158351422950102
0.542945794740631 0.07043964764469 0.0614675630526704
0.5587627 0.1112094 0
0.395801698946323 -0.384172325058761 0.0450998989626737
0.50830420999621 0.113576737312369 0.112572602118208
0.483064570847426 0.186872837465286 0.110988112889877
0.253037676592654 0.0456316675341847 0.35935745163598
0.241251759366729 -0.213579489771398 0.339882067500784
0.178697808152436 -0.200991060011836 0.361303306099263
0.389172707495052 -0.22656215139047 0.235358547619707
0.161842149242158 0.317476617834885 0.255046768428604
0.284887293687484 -0.145296943272453 0.347342901733974
0.481799826701223 -0.209037897649394 0.119584327018648
0.487175316693445 -0.250881243571289 0.0652375323443763
0.0640399734991551 -0.398487073356264 0.236411641080632
0.12598026468697 -0.0196899783670543 0.394631330608308
0.305297506229882 -0.355681323702257 0.195892700346805
0.316413040081243 -0.0676435730178242 0.343824116505977
0.5519026 -0.1375944 0
0.144554041703486 -0.525551745920476 0.0406541248512694
0.370944400879295 -0.329316284309948 0.162635088138109
0.237164601892873 0.443147193817136 0.112328307746946
0.5665181 -0.05534892 0
0.188485328244338 -0.267248824807374 0.326055332086081
0.186834357424572 0.477619285788772 0.0956086202130604
0.334697528506897 0.149216400607391 0.281520962157611
0.403047280322381 0.165477957499547 0.22043531916502
0.525578858436276 0.150749980172504 0.0589941377476707
0.394206817655008 -0.151709099538472 0.267829161820867
0.433377373661711 -0.094754705440657 0.242461455617343
0.399391966462258 -0.273963748071345 0.185640514307977
0.0617309300786611 0.0151255279558408 0.390358445098469
0.119312508894763 0.0448048883155681 0.385358717459466
0.292311290663999 -0.460488262788664 0.0500861847800659
0.273856261448013 -0.44085749735798 0.104832718154307
0.546517636663442 -0.0116470182935363 0.0677437594811326
0.0593553992581549 0.501997542987689 0.101478948836541
0.346290546375389 -0.296734049610145 0.221129368139729
0.353189614021144 -0.198923069304965 0.28283325757849
0.287353 0.4959361 0
0.0671564555855227 0.0907219329600739 0.375253267768526
0.471835437936747 -0.166188054883703 0.164808977258659
0.477265089207739 -0.103084105848175 0.183303647530282
0.132969411364803 -0.460775350219012 0.151791930076402
0.141066558999028 -0.497058198139435 0.0933752804736398
0.0656514910007273 -0.449675113738966 0.178500637630255
0.363336835650902 -0.0121887891869054 0.310471639525679
0.395746085695265 0.0324525339831908 0.276208970477037
0.309253278747174 0.016970261538595 0.341000856114035
0.438865376705301 -0.224200570412023 0.176541460472285
0.444780713076977 -0.319439926294286 0.0614378497783559
0.390139927707282 -0.355045741484194 0.104026802303966
0.230104961946783 0.332816366338362 0.220765729288845
0.460088865428926 0.298685816352084 0.0485569964238889
0.103347829724846 0.530548501212756 0.052998921394176
0.219019453560257 0.27213541138834 0.267141407637092
0.200948701128201 -0.329416338042155 0.277892185261329
0.127089467083054 -0.364736355140438 0.262914887035759
0.253548201229085 -0.0207445762247078 0.37135427629337
0.0781678894932623 0.450248244781272 0.16086842328511
0.138375918899142 0.407551876853287 0.190377560137893
0.433836452304184 0.213534304490204 0.158315617542343
0.0635988292903848 -0.278821054112696 0.329239043002282
0.294794991937309 0.39942445346957 0.12368419869443
0.436374126511278 -0.284070290489514 0.125637610202672
0.204084264514982 -0.457954089467102 0.127090609260169
0.5256875 -0.2159877 0
0.4614737 0.3373729 0
0.276643087165523 0.215420528418491 0.27775684214568
0.41768106223221 -0.0291687116922257 0.264085797586012
0.439849673312133 0.0311243344232013 0.233493878437045
0.0709279532004009 0.241474796759818 0.314196276620882
0.125125380627977 -0.417382618190121 0.20897112980989
0.191137856666714 -0.421154682783986 0.184753639743725
0.188023993211622 0.0298577158190997 0.381820183725639
0.278552673236352 -0.318121360590213 0.252310201733511
0.4450312 -0.3498691 0
0.519488110369006 0.0349586012333219 0.119590540736818
0.357206604392168 0.351005218212013 0.121980600910682
0.169100918273877 0.514968379599482 0.0522578026722946
0.5367618 0.1923582 0
0.461714080339237 0.146449304680443 0.16546076310817
0.396660149104708 0.0973128365654964 0.256768634658547
0.204206845164 0.214636083030425 0.305289873073927
0.284424705752661 0.281929891030815 0.231594533626078
0.246566412193736 -0.0924534119181342 0.372895654135202
0.180227344381048 -0.127551796584343 0.3832357948285
0.235808062833181 0.487350982142893 0.0550531167716969
0.387718670355791 0.233718175921151 0.191204034147665
0.142420287609821 0.101734205001512 0.367858574858017
0.539705071765439 -0.0915325824759424 0.0686189722136098
0.398784946828256 0.284184590817469 0.141994152157524
0.0430380690835776 0.544572161157282 0.0431160682246521
0.258469035539193 -0.409402516589968 0.163778246556594
0.3469738 0.4567638 0
0.255840087578631 -0.271646902096858 0.300749596343104
0.301497583335679 -0.207800783831983 0.314581008000895
0.227808818862734 -0.15699947634639 0.365201352421146
0.129172328928281 -0.30831147069902 0.308247771734282
0.223429542683902 0.395659474621446 0.170748849749234
0.254574821847145 0.158400738050816 0.316992156542503
0.380601105578938 -0.0826059208922904 0.29654826254992
0.082567948509699 0.16388929518399 0.349517536525605
0.2179509 0.5297573 0
0.0615354898745259 -0.134667342232673 0.384282585529704
0 0.575 0
0.3481025 -0.4466615 0
0.0671159040564467 0.387886042443001 0.220311939372021
0.120233383246714 -0.170364744264293 0.376982601536173
0.323030599027632 -0.258164825322779 0.270770937789523
0.0645929610319819 -0.341398791528322 0.287104410995837
0.164047242694128 0.445593158960895 0.144025932924193
0.123896732939785 0.488727380121935 0.105465765812336
0.291085457363765 0.0952976290529153 0.327990032388762
0.06839787 0.5693324 0
0.43688056783992 -0.162930608782183 0.216243789181046
0.1459664 0.5540397 0
0.0615165489445586 -0.209117092422319 0.362434259655203
0.5687363 0.02701634 0
0 -0.5663709 0
0.0626255271142332 -0.059264313783772 0.393514976235131
0.484380884965537 0.0233690673382819 0.178910131668678
0.122894737353886 -0.243099823824184 0.347881717610531
0.143498845496034 0.265008767376856 0.291889199384199
0.07314713 -0.5603097 0
1.55590429797057e-16 -0.171147110417023 0.371823101037169
1.64729620599518e-16 0.131768049681424 0.362100893804517
0.177775331394723 -0.381854181638971 0.234441900739478
1.59829124369765e-16 -0.425853752151443 0.208592408926779
0.403703 0.4057092 0
0.3983695 -0.4019898 0
0.1456375 -0.5454938 0
0.408453820955724 0.357641994133779 0.0571277825726888
3 0 1 122
3 78 52 7
3 101 21 116
3 45 23 22
3 152 58 27
3 136 124 123
3 60 118 35
3 53 63 102
3 28 29 118
3 66 64 74
3 102 85 86
3 26 160 24
3 97 99 98
3 41 136 40
3 125 18 54
3 9 10 86
3 22 104 46
3 46 102 45
3 111 77 110
3 54 57 125
3 80 47 110
3 116 129 0
3 9 67 68
3 106 122 1
3 59 126 96
3 72 42 147
3 71 53 49
3 51 22 128
3 129 31 30
3 68 10 9
3 53 102 86
3 35 34 60
3 44 123 50
3 40 56 41
3 30 38 96
3 111 8 132
3 25 114 85
3 49 113 71
3 33 115 160
3 138 54 101
3 46 85 102
3 68 67 12
3 145 95 14
3 81 82 107
3 2 16 141
3 147 71 113
3 95 94 150
3 89 117 151
3 12 11 13
3 32 59 119
3 139 16 121
3 128 55 51
3 24 23 76
3 36 114 172
3 117 89 155
3 143 5 146
3 45 84 75
3 28 118 60
3 45 75 23
3 22 51 104
3 60 34 37
3 88 28 30
3 145 169 158
3 122 106 90
3 94 151 150
3 162 17 43
3 71 147 42
3 140 107 62
3 112 39 93
3 103 12 78
3 64 48 159
3 4 72 135
3 151 94 70
3 68 12 103
3 86 85 36
3 154 62 76
3 31 129 116
3 37 34 115
3 161 97 156
3 149 148 47
3 83 50 93
3 121 2 162
3 81 107 140
3 1 126 59
3 20 122 87
3 163 94 158
3 115 33 37
3 32 120 59
3 89 131 153
3 89 153 155
3 29 88 105
3 23 24 128
3 154 61 62
3 128 24 69
3 125 57 117
3 34 35 157
3 327 7 164
3 63 42 84
3 70 100 131
3 106 139 121
3 43 19 87
3 14 95 19
3 93 3 112
3 108 107 82
3 141 74 334
3 64 65 74
3 6 79 80
3 156 143 146
3 138 20 87
3 26 107 108
3 0 20 116
3 8 111 168
3 119 38 37
3 129 96 126
3 108 160 26
3 10 53 86
3 132 103 111
3 62 26 76
3 117 155 142
3 119 33 32
3 144 9 36
3 86 36 9
3 76 75 154
3 55 128 69
3 29 28 88
3 130 6 7
3 23 75 76
3 53 10 49
3 164 7 52
3 114 36 85
3 45 22 46
3 25 85 46
3 4 44 50
3 152 39 15
3 121 162 90
3 137 97 161
3 139 15 16
3 19 138 87
3 150 54 138
3 333 143 156
3 141 334 166
3 107 26 62
3 115 24 160
3 136 41 124
3 1 59 58
3 42 72 61
3 138 19 95
3 77 6 80
3 113 49 8
3 78 6 77
3 7 6 78
3 120 108 82
3 70 163 100
3 127 66 74
3 151 70 89
3 84 154 75
3 115 69 24
3 42 61 154
3 67 11 12
3 10 68 132
3 123 124 3
3 161 146 41
3 97 148 99
3 143 165 159
3 139 58 152
3 156 98 333
3 113 8 91
3 120 58 59
3 53 71 63
3 92 91 168
3 4 140 61
3 62 61 140
3 27 82 81
3 57 150 151
3 119 96 38
3 108 32 160
3 24 76 26
3 103 77 111
3 154 84 42
3 327 130 7
3 49 132 8
3 69 34 157
3 30 28 38
3 125 73 18
3 9 144 67
3 103 132 68
3 141 16 127
3 34 69 115
3 45 102 84
3 128 22 23
3 83 152 27
3 3 93 123
3 109 166 170
3 43 90 162
3 44 40 136
3 148 97 137
3 92 47 148
3 148 137 92
3 20 138 101
3 8 168 91
3 32 108 120
3 163 70 94
3 101 116 20
3 16 2 121
3 48 64 66
3 52 78 12
3 52 12 13
3 80 110 77
3 80 79 336
3 49 10 132
3 103 78 77
3 117 57 151
3 63 71 42
3 60 38 28
3 160 32 33
3 30 96 129
3 3 48 112
3 83 93 39
3 56 40 134
3 146 124 41
3 92 110 47
3 138 95 150
3 81 50 83
3 96 119 59
3 167 159 165
3 94 95 145
3 44 135 40
3 112 66 127
3 0 129 126
3 134 147 113
3 27 120 82
3 141 166 109
3 73 133 18
3 72 4 61
3 97 98 156
3 142 73 125
3 125 117 142
3 88 174 105
3 37 33 119
3 67 144 11
3 84 102 63
3 54 150 57
3 333 165 143
3 87 90 43
3 123 44 136
3 113 91 134
3 134 40 135
3 137 91 92
3 127 16 15
3 5 159 48
3 2 109 162
3 159 5 143
3 161 41 56
3 90 87 122
3 39 112 15
3 4 135 44
3 120 27 58
3 168 110 92
3 145 158 94
3 168 111 110
3 112 48 66
3 162 109 17
3 91 137 56
3 50 140 4
3 146 5 124
3 27 81 83
3 56 137 161
3 50 81 140
3 14 19 43
3 127 15 112
3 58 106 1
3 167 64 159
3 91 56 134
3 147 134 135
3 17 14 43
3 139 106 58
3 2 141 109
3 83 39 152
3 3 5 48
3 15 139 152
3 161 156 146
3 106 121 90
3 70 131 89
3 50 123 93
3 153 131 313
3 135 72 147
3 127 74 141
3 122 20 0
3 17 170 169
3 3 124 5
3 21 171 174
3 145 14 17
3 313 131 100
3 74 65 334
3 1 0 126
3 88 30 31
3 47 336 149
3 47 80 336
3 17 169 145
3 79 6 130
3 148 149 99
3 60 37 38
3 65 64 167
3 69 157 55
3 170 17 109
3 25 46 104
3 101 54 18
3 172 144 36
3 52 13 173
3 21 101 18
3 21 18 133
3 174 31 116
3 173 164 52
3 88 31 174
3 21 133 171
3 174 116 21
3 174 171 105
3 175 292 176
3 252 182 227
3 271 286 196
3 220 197 198
3 321 202 233
3 305 293 294
3 235 210 288
3 228 272 238
3 203 288 204
3 240 248 239
3 272 259 258
3 201 199 329
3 270 98 99
3 216 215 305
3 295 229 193
3 184 259 185
3 197 221 274
3 221 220 272
3 281 280 251
3 229 295 232
3 253 280 222
3 286 175 299
3 184 242 241
3 276 176 292
3 234 269 296
3 246 317 217
3 245 224 228
3 226 298 197
3 299 205 206
3 242 184 185
3 228 259 272
3 210 235 209
3 219 225 293
3 215 216 231
3 205 269 213
3 281 301 183
3 200 258 284
3 224 245 283
3 208 329 285
3 307 271 229
3 221 272 258
3 242 187 241
3 315 189 268
3 254 277 255
3 177 310 191
3 317 283 245
3 268 319 267
3 262 320 287
3 187 188 186
3 207 289 234
3 308 291 191
3 298 226 230
3 199 250 198
3 211 338 284
3 287 324 262
3 312 316 180
3 220 249 257
3 203 235 288
3 220 198 249
3 197 274 226
3 235 212 209
3 261 205 203
3 315 158 169
3 292 263 276
3 267 319 320
3 331 218 192
3 245 217 317
3 309 237 277
3 282 266 214
3 273 252 187
3 239 328 223
3 179 304 246
3 320 244 267
3 242 273 187
3 259 211 258
3 323 250 237
3 206 286 299
3 212 285 209
3 330 325 270
3 149 222 318
3 256 266 225
3 291 331 177
3 254 309 277
3 176 234 296
3 195 260 292
3 163 158 267
3 285 212 208
3 207 234 290
3 262 322 300
3 262 324 322
3 204 275 261
3 198 298 199
3 323 237 236
3 298 243 199
3 295 287 232
3 209 326 210
3 327 332 182
3 238 257 217
3 244 300 100
3 276 291 308
3 218 260 194
3 189 194 268
3 266 282 178
3 278 255 277
3 310 334 248
3 239 248 65
3 181 253 79
3 325 316 312
3 307 260 195
3 201 278 277
3 175 286 195
3 183 335 281
3 289 212 213
3 299 296 269
3 278 201 329
3 185 259 228
3 301 281 273
3 237 250 201
3 287 311 324
3 289 207 208
3 314 211 184
3 259 184 211
3 250 323 249
3 230 243 298
3 204 261 203
3 130 182 181
3 198 250 249
3 228 224 185
3 332 227 182
3 284 258 211
3 220 221 197
3 200 221 258
3 179 225 219
3 321 190 214
3 291 263 331
3 306 330 270
3 308 191 190
3 194 260 307
3 319 307 229
3 333 325 312
3 310 166 334
3 277 237 201
3 285 329 199
3 305 294 216
3 176 233 234
3 217 236 246
3 307 268 194
3 251 253 181
3 283 183 224
3 252 251 181
3 182 252 181
3 290 255 278
3 244 100 163
3 297 248 240
3 320 262 244
3 257 249 323
3 285 199 243
3 217 323 236
3 241 187 186
3 185 301 242
3 293 178 294
3 330 216 316
3 270 99 318
3 312 328 165
3 308 321 233
3 325 333 98
3 283 264 183
3 290 234 233
3 228 238 245
3 265 335 264
3 179 236 309
3 237 309 236
3 202 254 255
3 232 320 319
3 289 213 269
3 278 329 207
3 199 201 250
3 273 281 251
3 323 217 257
3 327 182 130
3 224 183 301
3 243 326 209
3 205 213 203
3 295 193 247
3 184 241 314
3 273 242 301
3 310 297 191
3 209 285 243
3 220 257 272
3 298 198 197
3 256 202 321
3 178 293 266
3 279 170 166
3 218 331 263
3 219 305 215
3 318 306 270
3 265 318 222
3 318 265 306
3 195 271 307
3 183 264 335
3 207 290 278
3 163 267 244
3 271 195 286
3 191 291 177
3 223 240 239
3 227 187 252
3 227 188 187
3 253 251 280
3 253 336 79
3 224 301 185
3 273 251 252
3 287 320 232
3 238 217 245
3 235 203 213
3 329 208 207
3 205 299 269
3 178 282 223
3 256 214 266
3 231 303 215
3 316 216 294
3 265 222 280
3 307 319 268
3 254 256 225
3 269 234 289
3 167 165 328
3 267 315 268
3 219 215 304
3 282 297 240
3 175 296 299
3 303 283 317
3 202 255 290
3 310 279 166
3 247 193 302
3 246 236 179
3 270 325 98
3 311 295 247
3 295 311 287
3 261 275 340
3 212 289 208
3 241 186 314
3 257 238 272
3 229 232 319
3 333 312 165
3 260 218 263
3 293 305 219
3 283 303 264
3 303 304 215
3 306 265 264
3 297 190 191
3 180 223 328
3 177 331 279
3 328 312 180
3 330 231 216
3 263 292 260
3 214 190 282
3 179 219 304
3 290 233 202
3 335 265 280
3 315 267 158
3 335 280 281
3 282 240 223
3 331 192 279
3 264 231 306
3 225 179 309
3 316 294 180
3 202 256 254
3 231 330 306
3 225 309 254
3 189 218 194
3 297 282 190
3 233 176 276
3 167 328 239
3 264 303 231
3 317 304 303
3 192 218 189
3 308 233 276
3 177 279 310
3 256 321 214
3 178 223 180
3 190 321 308
3 330 316 325
3 276 263 291
3 244 262 300
3 225 266 293
3 322 313 300
3 304 317 246
3 297 310 248
3 292 175 195
3 192 169 170
3 178 180 294
3 196 340 337
3 315 192 189
3 313 100 300
3 248 334 65
3 176 296 175
3 261 206 205
3 222 149 336
3 222 336 253
3 192 315 169
3 79 130 181
3 318 99 149
3 235 213 212
3 65 167 239
3 243 230 326
3 170 279 192
3 200 274 221
3 271 193 229
3 338 211 314
3 227 339 188
3 196 193 271
3 196 302 193
3 340 286 206
3 339 227 332
3 261 340 206
3 196 337 302
3 340 196 286
3 340 275 337
