OFF
341 634 0
-0.349774940693141 0.295435971538017 0.199693222853547
-0.344700108216957 0.221947683289873 0.254709588773302
-0.126501280752525 0.20972529976357 0.31592378650283
-0.166157563720554 -0.0500820213562988 0.386774794921329
-0.328059381672216 -0.137933968623088 0.329341874615371
-0.0981362105497535 -0.0890271259024723 0.36736938726101
-0.0595999873286301 -0.490288983470054 0.111528401697546
-0.0599773152234219 -0.535478789107191 0.0551256534933095
-0.229358263249559 -0.367968265424435 0.232934602264509
-0.341861791749258 -0.414253257093237 0.0810536140558556
-0.325347803956177 -0.385309685818176 0.146568409908321
-0.2756534 -0.4944831 0
-0.222581176257123 -0.49257107394847 0.0721425135003812
-0.2087998 -0.5251421 0
-0.114452410975358 0.365905995131949 0.228180594847843
-0.207989583800113 0.100776399703891 0.362283084613372
-0.165272918004162 0.159791284162833 0.342180905684709
-0.0711167480003669 0.316477684591339 0.252586314223159
-0.299348592426858 0.454079861679572 0.0686675040770363
-0.176024182868682 0.374562130961197 0.219979706065645
-0.293563876159468 0.354961160746715 0.191237228387395
-0.354471573065215 0.409627116968939 0.0722394470910128
-0.518790834607406 -0.173126467289447 0.0665060531235944
-0.504174840097547 -0.130388869458956 0.125679084628722
-0.51078839310704 -0.0450150216059537 0.14056817742503
-0.4884344 -0.2880939 0
-0.462924873058181 -0.0371841265064636 0.216504852093671
-0.345031315076159 0.0670789260527657 0.320470036733187
-0.498669370750777 0.225624022117562 0.0587402470522699
-0.5042845 0.2674346 0
-0.455268277704444 0.258633787176265 0.106402826594467
-0.420349088489683 0.318492655598802 0.0976474230887278
-0.446826239270399 0.0925060389909594 0.218613044425875
-0.486730942553523 0.0818439726884452 0.165777128634577
-0.54240819654419 0.0699656030053663 0.0632867766965273
-0.5587627 0.1112094 0
-0.395675579210237 -0.383386743412066 0.0474042884052776
-0.509183356788344 0.112156962607544 0.116471297530771
-0.485789426181838 0.186160116021554 0.115343641811829
-0.240970772166966 0.0449860563735695 0.371123535007129
-0.221248222524384 -0.208208183613106 0.347340873368571
-0.153724932568058 -0.194013528087995 0.355294505709775
-0.380691614952291 -0.225036602915349 0.246316992320638
-0.157078925456488 0.323714750484772 0.258240850976258
-0.267513837042772 -0.142132837431523 0.358906535421607
-0.478270310425692 -0.207906804244018 0.123601733016957
-0.48505561170368 -0.2499174517696 0.0680306753349186
-0.0502195095417252 -0.383126403531438 0.204815732425166
-0.104042958245227 -0.0174093002934553 0.373126152065008
-0.300583975497442 -0.352615017962059 0.20790242427145
-0.302157804181049 -0.0666901693990504 0.358338185177065
-0.5519026 -0.1375944 0
-0.144653009062416 -0.529698221379297 0.0488003567372326
-0.367482051587615 -0.326836412683232 0.171457452610867
-0.239362149514109 0.451331571951814 0.122497439946774
-0.5665181 -0.05534892 0
-0.166395221935467 -0.260081294214721 0.324939630087532
-0.187036412458919 0.485046376303029 0.104330640629691
-0.33479877097796 0.148842390958926 0.29972965367749
-0.405099702669088 0.165129769810057 0.235268065206205
-0.526017376238091 0.150135287851448 0.0609999782355241
-0.384272137666404 -0.150243214594446 0.280728018675737
-0.426018962277947 -0.0943528256279436 0.254237447297412
-0.393604939776967 -0.273468803425641 0.193363633043493
-0.0450321920876415 0.0172539299990799 0.339730297953312
0.000277790749112096 0.0552710995227368 0.289350906333331
-0.101890964775758 0.045075431909238 0.364528232937981
-0.294693783545192 -0.460615975463629 0.0554951842551554
-0.275819699963748 -0.440454205075192 0.115616821512915
-0.545034822605906 -0.011565234285796 0.0698098570090982
-0.0527947499090634 0.50683214997818 0.0965156353565753
-0.337994415275191 -0.295897036716951 0.2318004526982
-0.341499459146578 -0.196470059588474 0.296033226039358
-0.287353 0.4959361 0
-0.0548654844647187 0.0895985526983644 0.334378813430898
-0.466927019856109 -0.16713507097141 0.17016159824779
-0.472465659061169 -0.103336299467023 0.190492380099244
-0.12449384460692 -0.457647245606772 0.15879416696374
-0.138115478651273 -0.499534131269252 0.105140048230592
0.000131900225072765 -0.456842683075146 0.102720836389327
-0.0539778288889074 -0.438748299430038 0.160269304672578
-0.353916755747664 -0.0125155288996288 0.32674386333901
-0.390680681326925 0.031285769502366 0.291914359754154
-0.298852025086838 0.0163861999180091 0.356560546060861
-0.43355698581852 -0.223829337633026 0.182950129597075
-0.443073664708043 -0.318581015510798 0.064519498195876
-0.388815066793011 -0.353079038781726 0.109904100668035
-0.230157062070539 0.34151188958009 0.233105912901523
-0.463008800333302 0.297669608268474 0.0509826043271292
-0.10100055086579 0.535876365806813 0.0568253968542992
-0.21789584350314 0.277177711490029 0.279196061285517
-0.184056900241558 -0.324210757917067 0.282365244131267
-0.109100242335328 -0.35454292561507 0.25195920675912
-0.237209570533074 -0.0202729420077931 0.381373146076532
-0.0696906758280649 0.454506575186286 0.153897826545778
-0.132302906696845 0.414203667415831 0.193247619156502
-0.437779076659853 0.213886401971113 0.167955074791111
-0.0449981331931195 -0.264743353779262 0.277588796644035
-0.00068992814176229 -0.21972662114206 0.243874678902903
-0.000658241337073362 -0.28344772153065 0.217060709850099
0.000102037177810889 0.523503907500005 0.0483665911906467
-0.298501054031691 0.407629126134094 0.133521268287347
-0.433153310026293 -0.282108313709897 0.131040879324017
-0.203397202484842 -0.457792077755684 0.141109327214045
-0.5256875 -0.2159877 0
-0.4614737 0.3373729 0
-0.277588796479146 0.217829765919064 0.294595615513346
-0.411036440889146 -0.0294127364120761 0.277896114035341
-0.436755259955809 0.0299716022479057 0.245854160042689
-0.0648009593172531 0.239780534166804 0.287797145938046
-0.111264893612381 -0.409138421409717 0.206322550548873
-0.184215955088639 -0.417229813582204 0.196483218444658
-0.17089713546193 0.0299051179138957 0.381644227651537
-0.268315788809862 -0.314684086128169 0.264133755400948
-0.4450312 -0.3498691 0
-0.518733244095883 0.0335964525545698 0.123041886035631
-0.363691511701663 0.355683987939755 0.130556072855291
-0.1697492438872 0.520574028438418 0.058403606479066
-0.5367618 0.1923582 0
-0.463757164175442 0.144478624589379 0.174660517011505
-0.39526222829442 0.095646770056194 0.272687364779139
-0.201087244297257 0.216868452054061 0.314594109090279
-0.287240414231851 0.287262319191727 0.247887150764345
-0.227060847036213 -0.0900876495433983 0.380673129313518
-0.155361431028069 -0.122695494099451 0.37693683425807
-0.238444778985937 0.49244770418358 0.0616031095136827
-0.392444676421872 0.235511504288484 0.204524041869956
-0.12928456991032 0.101421126409517 0.358601336327135
-0.537630874675593 -0.0917266315606194 0.0706553826933679
-0.404724145972822 0.287138327604859 0.150838354031184
8.44819004757774e-05 -0.517146820033603 0.0485182666920433
-0.038682680878079 0.548783573506505 0.0410437327911841
-0.256556239448817 -0.406998728503774 0.177026911182272
-0.3469738 0.4567638 0
-0.239465953128514 -0.267714080933076 0.310453196719949
-0.28599200360145 -0.204243651716356 0.327282131535102
-0.205957899856768 -0.152320159734161 0.369623716771251
-0.10647166473359 -0.298874253923803 0.290729899693328
-0.223499314229173 0.405409306922867 0.182165144247363
-0.251799925254306 0.158694287491498 0.332151181802917
-0.369855749675028 -0.0819015828004745 0.311481983370136
-0.0737337022473029 0.162700471323674 0.322151003840978
-0.2179509 0.5297573 0
-0.0408419577503776 -0.124684541624448 0.326386004607103
-0.3481025 -0.4466615 0
-0.0595232159203178 0.390221416861908 0.201115312666487
-0.0943951383750637 -0.162277116279395 0.349631418996958
-0.311508100686551 -0.256075801207693 0.283068598219362
-0.04831353734438 -0.325432687696521 0.244619374794214
-0.000129185701896919 -0.342858318931997 0.185222049724955
-0.160973276681642 0.453949913737351 0.152267748831601
-0.119919881944568 0.495983271664701 0.110381944008295
-0.285684260018223 0.0941859175187346 0.344442883257949
-0.06839787 0.5693324 0
-0.429622216257765 -0.162294114733013 0.225992142527532
-0.1459664 0.5540397 0
-0.04149605795205 -0.197008120527044 0.30512296556682
-0.5687363 0.02701634 0
0.000184318212092212 0.408574412865977 0.150139887690426
-0.0426599532611577 -0.053160732815539 0.338622257664453
-0.482489534661037 0.0232934516150184 0.186343342053973
-0.0980039702065621 -0.234233436554591 0.323311494235316
-0.137675176908649 0.267841989210274 0.289735792069837
0.000194624833988888 0.46362310202386 0.103699841212058
-0.07314713 -0.5603097 0
6.45709188771718e-05 -0.0831826947464595 0.278736227975501
0.00036445109343492 0.196205188510673 0.272731122880005
0.000191240747767246 -0.0149954914675483 0.286374512071911
-0.164626965467933 -0.375532355656547 0.239406660860222
7.5940642611445e-05 0.341264562054656 0.199462711433003
0.000325707372919073 0.269961213957421 0.241802057864635
-0.403703 0.4057092 0
-0.3983695 -0.4019898 0
-0.1456375 -0.5454938 0
-0.412250765733735 0.358494221304116 0.0610004885427351
0.351144015607697 0.295363977565699 0.197580996406067
0.345702801014507 0.222077629170458 0.252817772479712
0.127330126190803 0.20970710916962 0.315382144415098
0.166785089440539 -0.0497598625175503 0.386324581397942
0.328986778735472 -0.137516109031865 0.328177218071991
0.0986313886196979 -0.0886051787948107 0.367279236808907
0.0598679542557048 -0.490370741463723 0.111512479805782
0.0601120946570857 -0.535460238721557 0.055136963226241
0.230663756693888 -0.366793046015269 0.233478514629156
0.342211512404755 -0.413789879025345 0.0811257109854717
0.326026565085627 -0.384414405494789 0.146670215510308
0.2756534 -0.4944831 0
0.22280269086482 -0.492396168511797 0.0721488694616577
0.2087998 -0.5251421 0
0.115472452803955 0.365755871599446 0.227901271330778
0.208737821299397 0.100880130214832 0.361401306064983
0.166073166487174 0.159818361409745 0.34145851934824
0.0719297631970271 0.316461096738981 0.252378885980722
0.299913864718318 0.453288049793722 0.0689311431619284
0.177127233241957 0.374082449076888 0.219544280864525
0.295632800150722 0.353756742804477 0.190094880485499
0.355002824924579 0.408463912942811 0.0727203203373885
0.518666201246502 -0.172279513143808 0.0668695397127716
0.503636689382007 -0.128413381762604 0.126648791699237
0.50976479496236 -0.0450176094585867 0.141240928445218
0.4884344 -0.2880939 0
0.463773007186409 -0.0359292186606515 0.214204053367326
0.345894472405687 0.0672265046785517 0.318853959913539
0.498473245280739 0.224852705416385 0.0592343336136305
0.5042845 0.2674346 0
0.45539434239569 0.256025618719255 0.107670945742101
0.420779504340121 0.316423368749921 0.0985177338882487
0.447703638534251 0.0916795188900534 0.216550612299777
0.486542650257956 0.0816344563365522 0.164876295574412
0.541909383155432 0.0703428014616679 0.0635792962386002
0.5587627 0.1112094 0
0.395862146858068 -0.38305880375999 0.0474708955971094
0.508263175799878 0.112412114494538 0.116924560624313
0.48494279671261 0.185394314108722 0.116250055203229
0.24169961417427 0.0451662473192285 0.370159077459582
0.2222495372114 -0.207774321896887 0.347045181942353
0.154547270466693 -0.193328621597256 0.355478566585284
0.382055326946806 -0.224439986072489 0.244532145265171
0.158110078595513 0.323475615819975 0.257720449344111
0.268383720938159 -0.141712970530016 0.358180258715165
0.478310319971804 -0.206128888743186 0.124119722171039
0.485151370246425 -0.249100549553471 0.0682725237972137
0.0504711649074335 -0.384210440765372 0.204398912432443
0.104597492048101 -0.0172025911192876 0.372816086980478
0.301614309506091 -0.351477564462916 0.207918818379636
0.302968176635023 -0.0663486409936773 0.357244914874938
0.5519026 -0.1375944 0
0.14475728210132 -0.529641243189494 0.0488023872531968
0.368396049370924 -0.325184204759378 0.171665351536871
0.240188841314805 0.450420361629946 0.122667531243051
0.5665181 -0.05534892 0
0.167655037466039 -0.259692578111218 0.325182734065285
0.18756673272094 0.484558574656661 0.104389402631856
0.335696865460759 0.148933824238381 0.29807469604478
0.406066090765788 0.165369333620306 0.232947620914512
0.525584429432947 0.149979591766234 0.061355068645184
0.385226491074978 -0.149844135590363 0.279122911881281
0.426815003532813 -0.0938607296049914 0.252383946043219
0.394646457021248 -0.270363295438832 0.194156645090771
0.0455684008114225 0.0173409225334761 0.339559199927912
0.102509433940071 0.0451821299613725 0.364138788745959
0.294904202363215 -0.460397585993111 0.0555223724289664
0.276286164528877 -0.439994948290484 0.115668087651644
0.544558173616375 -0.0111218956491386 0.0701582262932593
0.0531426889113622 0.506693375965562 0.0965138663486975
0.339726105720875 -0.293780288688735 0.231570686181713
0.342583537477237 -0.195960936693803 0.294800003560887
0.287353 0.4959361 0
0.0555130275848194 0.0896401791874272 0.33413565352828
0.466971608610845 -0.164504767438747 0.170567381450698
0.472905453269055 -0.102830449309861 0.188843329286046
0.124982856004703 -0.457747300503485 0.158686279855047
0.13840594187086 -0.499457758222803 0.105118388382739
0.0543070457219642 -0.439120466824685 0.160139850660155
0.354777682304012 -0.0122327696680172 0.325180169082116
0.391637769208318 0.0314457250881506 0.289950103661866
0.299631043871993 0.0166104108207397 0.355333899521635
0.433857651995126 -0.221077025527406 0.183690083443871
0.443284797631676 -0.317962579412668 0.0646679195654906
0.389292455612472 -0.352145682697455 0.110073650843972
0.231445336602883 0.340956542991397 0.232328603229688
0.463160183756362 0.296601610829996 0.0515076703980182
0.101194637561349 0.535715625500022 0.0568303519657508
0.218956438384421 0.276961911427601 0.278286147000243
0.186288733888906 -0.32456810567641 0.28194349155305
0.110184223320149 -0.357102934526316 0.250579648522492
0.23792229561493 -0.0200033754398775 0.380544859533227
0.0703394750495305 0.454362753735366 0.153868745680169
0.133302124250514 0.413834928689171 0.193044674920633
0.438148405118966 0.213267560551324 0.166714037796442
0.0449828939999296 -0.26412039452002 0.278788878501745
0.300045787992974 0.405370844011819 0.134285061577799
0.43360525487411 -0.280443531222681 0.131446709263354
0.20391516917367 -0.457524419099463 0.141099121132545
0.5256875 -0.2159877 0
0.4614737 0.3373729 0
0.278568052072439 0.21777049071204 0.293273190549432
0.411939573463824 -0.0289878476394961 0.275904424007419
0.437990588199328 0.0299370561561168 0.243211619569127
0.0655880671916422 0.239768479460373 0.287532549105796
0.111955268147905 -0.409863700957222 0.205909897202982
0.185057297119714 -0.417060489662015 0.196435940724855
0.171562192266884 0.0300809594410197 0.381012077158953
0.269131673152886 -0.314491878595833 0.263612335180801
0.4450312 -0.3498691 0
0.517645217264654 0.0353213573572044 0.123648130720369
0.364335736407794 0.353022169258835 0.131899472248827
0.170003135289604 0.52034164927093 0.0584449265408952
0.5367618 0.1923582 0
0.46362393597383 0.145015786579238 0.17329599911635
0.396222634429097 0.0956161671620347 0.270646799043374
0.201985141490615 0.216807310469226 0.31371294070175
0.288519961390886 0.286938890126009 0.246512752881207
0.227795176000012 -0.0896989885547581 0.380063442033852
0.156017683645376 -0.122178117437208 0.376771700388187
0.238810765614429 0.492043025974333 0.0617067922923914
0.39312517849156 0.236442509898847 0.202057672772003
0.1299915600285 0.101496324970788 0.358059109408991
0.537251285595536 -0.091178912611531 0.0710471302245671
0.405521090193313 0.284206464399841 0.15149466429159
0.0388342563168864 0.548696333119028 0.0410513180955901
0.257366963111833 -0.406304130365401 0.177130943081168
0.3469738 0.4567638 0
0.2407162378738 -0.267445769220875 0.310035122514667
0.287040157937204 -0.203797899808375 0.32650934114845
0.20676391843784 -0.151837119174368 0.369297446402589
0.108130785309466 -0.298837913959426 0.29168432320982
0.224718310495869 0.404448328348987 0.181902767081803
0.252636753384796 0.158726615027832 0.331013317594094
0.37072305093386 -0.0815092414858199 0.309940261022908
0.0744850733188574 0.162718696527087 0.321823012650067
0.2179509 0.5297573 0
0.0410734727961836 -0.124187619876125 0.326565562976133
0 0.575 0
0.3481025 -0.4466615 0
0.0607651168608131 0.390464315754805 0.201047954122477
0.0949025307109007 -0.161427342968552 0.350005093880295
0.312710020578428 -0.255388023876422 0.282234157221698
0.0481727540590756 -0.327789117857683 0.243724789955741
0.161747947003787 0.453377535965069 0.152204037642238
0.120374357643958 0.495653546833 0.110367933035124
0.286475513040793 0.0943123940227973 0.343180468566688
0.06839787 0.5693324 0
0.430427849693806 -0.162331219964665 0.223981227641682
0.1459664 0.5540397 0
0.0415563431624001 -0.195535003288237 0.306114563792731
0.5687363 0.02701634 0
0 -0.5663709 0
0.0430674078569947 -0.0529609770162255 0.338549351191666
0.482166665564598 0.0233314794602515 0.185556915499602
0.0987845748435453 -0.232692246543299 0.32454017605078
0.138581806277756 0.267755560901733 0.289192546611207
0.07314713 -0.5603097 0
-0.000165563522975146 -0.151911598811051 0.264665176291262
0.000340309008938653 0.12650237161394 0.28669273814069
0.165860830028111 -0.375958426419057 0.239049983800403
9.1875538941752e-05 -0.400319651276772 0.14709279445588
0.403703 0.4057092 0
0.3983695 -0.4019898 0
0.1456375 -0.5454938 0
0.412578173767626 0.357350002673678 0.0615416694290032
3 0 1 122
3 78 52 7
3 101 21 116
3 45 23 22
3 152 58 27
3 136 124 123
3 60 118 35
3 53 63 102
3 28 29 118
3 66 64 74
3 102 85 86
3 26 160 24
3 97 99 98
3 41 136 40
3 125 18 54
3 9 10 86
3 22 104 46
3 46 102 45
3 111 77 110
3 54 57 125
3 80 47 110
3 116 129 0
3 9 67 68
3 106 122 1
3 59 126 96
3 72 42 147
3 71 53 49
3 51 22 128
3 129 31 30
3 68 10 9
3 53 102 86
3 35 34 60
3 44 123 50
3 40 56 41
3 30 38 96
3 111 8 132
3 25 114 85
3 49 113 71
3 33 115 160
3 138 54 101
3 46 85 102
3 68 67 12
3 145 95 14
3 81 82 107
3 2 16 141
3 147 71 113
3 95 94 150
3 89 117 151
3 12 11 13
3 32 59 119
3 139 16 121
3 128 55 51
3 24 23 76
3 36 114 172
3 117 89 155
3 143 5 146
3 45 84 75
3 28 118 60
3 45 75 23
3 22 51 104
3 60 34 37
3 88 28 30
3 145 169 158
3 122 106 90
3 94 151 150
3 162 17 43
3 71 147 42
3 140 107 62
3 112 39 93
3 103 12 78
3 64 48 159
3 4 72 135
3 151 94 70
3 68 12 103
3 86 85 36
3 154 62 76
3 31 129 116
3 37 34 115
3 161 97 156
3 149 148 47
3 83 50 93
3 121 2 162
3 81 107 140
3 1 126 59
3 20 122 87
3 163 94 158
3 115 33 37
3 32 120 59
3 89 131 153
3 89 153 155
3 29 88 105
3 23 24 128
3 154 61 62
3 128 24 69
3 125 57 117
3 34 35 157
3 327 7 164
3 63 42 84
3 70 100 131
3 106 139 121
3 43 19 87
3 14 95 19
3 93 3 112
3 108 107 82
3 141 74 334
3 64 65 74
3 6 79 80
3 156 143 146
3 138 20 87
3 26 107 108
3 0 20 116
3 8 111 168
3 119 38 37
3 129 96 126
3 108 160 26
3 10 53 86
3 132 103 111
3 62 26 76
3 117 155 142
3 119 33 32
3 144 9 36
3 86 36 9
3 76 75 154
3 55 128 69
3 29 28 88
3 130 6 7
3 23 75 76
3 53 10 49
3 164 7 52
3 114 36 85
3 45 22 46
3 25 85 46
3 4 44 50
3 152 39 15
3 121 162 90
3 137 97 161
3 139 15 16
3 19 138 87
3 150 54 138
3 333 143 156
3 141 334 166
3 107 26 62
3 115 24 160
3 136 41 124
3 1 59 58
3 42 72 61
3 138 19 95
3 77 6 80
3 113 49 8
3 78 6 77
3 7 6 78
3 120 108 82
3 70 163 100
3 127 66 74
3 151 70 89
3 84 154 75
3 115 69 24
3 42 61 154
3 67 11 12
3 10 68 132
3 123 124 3
3 161 146 41
3 97 148 99
3 143 165 159
3 139 58 152
3 156 98 333
3 113 8 91
3 120 58 59
3 53 71 63
3 92 91 168
3 4 140 61
3 62 61 140
3 27 82 81
3 57 150 151
3 119 96 38
3 108 32 160
3 24 76 26
3 103 77 111
3 154 84 42
3 327 130 7
3 49 132 8
3 69 34 157
3 30 28 38
3 125 73 18
3 9 144 67
3 103 132 68
3 141 16 127
3 34 69 115
3 45 102 84
3 128 22 23
3 83 152 27
3 3 93 123
3 109 166 170
3 43 90 162
3 44 40 136
3 148 97 137
3 92 47 148
3 148 137 92
3 20 138 101
3 8 168 91
3 32 108 120
3 163 70 94
3 101 116 20
3 16 2 121
3 48 64 66
3 52 78 12
3 52 12 13
3 80 110 77
3 80 79 336
3 49 10 132
3 103 78 77
3 117 57 151
3 63 71 42
3 60 38 28
3 160 32 33
3 30 96 129
3 3 48 112
3 83 93 39
3 56 40 134
3 146 124 41
3 92 110 47
3 138 95 150
3 81 50 83
3 96 119 59
3 167 159 165
3 94 95 145
3 44 135 40
3 112 66 127
3 0 129 126
3 134 147 113
3 27 120 82
3 141 166 109
3 73 133 18
3 72 4 61
3 97 98 156
3 142 73 125
3 125 117 142
3 88 174 105
3 37 33 119
3 67 144 11
3 84 102 63
3 54 150 57
3 333 165 143
3 87 90 43
3 123 44 136
3 113 91 134
3 134 40 135
3 137 91 92
3 127 16 15
3 5 159 48
3 2 109 162
3 159 5 143
3 161 41 56
3 90 87 122
3 39 112 15
3 4 135 44
3 120 27 58
3 168 110 92
3 145 158 94
3 168 111 110
3 112 48 66
3 162 109 17
3 91 137 56
3 50 140 4
3 146 5 124
3 27 81 83
3 56 137 161
3 50 81 140
3 14 19 43
3 127 15 112
3 58 106 1
3 167 64 159
3 91 56 134
3 147 134 135
3 17 14 43
3 139 106 58
3 2 141 109
3 83 39 152
3 3 5 48
3 15 139 152
3 161 156 146
3 106 121 90
3 70 131 89
3 50 123 93
3 153 131 313
3 135 72 147
3 127 74 141
3 122 20 0
3 17 170 169
3 3 124 5
3 21 171 174
3 145 14 17
3 313 131 100
3 74 65 334
3 1 0 126
3 88 30 31
3 47 336 149
3 47 80 336
3 17 169 145
3 79 6 130
3 148 149 99
3 60 37 38
3 65 64 167
3 69 157 55
3 170 17 109
3 25 46 104
3 101 54 18
3 172 144 36
3 52 13 173
3 21 101 18
3 21 18 133
3 174 31 116
3 173 164 52
3 88 31 174
3 21 133 171
3 174 116 21
3 174 171 105
3 175 292 176
3 252 182 227
3 271 286 196
3 220 197 198
3 321 202 233
3 305 293 294
3 235 210 288
3 228 272 238
3 203 288 204
3 240 248 239
3 272 259 258
3 201 199 329
3 270 98 99
3 216 215 305
3 295 229 193
3 184 259 185
3 197 221 274
3 221 220 272
3 281 280 251
3 229 295 232
3 253 280 222
3 286 175 299
3 184 242 241
3 276 176 292
3 234 269 296
3 246 317 217
3 245 224 228
3 226 298 197
3 299 205 206
3 242 184 185
3 228 259 272
3 210 235 209
3 219 225 293
3 215 216 231
3 205 269 213
3 281 301 183
3 200 258 284
3 224 245 283
3 208 329 285
3 307 271 229
3 221 272 258
3 242 187 241
3 315 189 268
3 254 277 255
3 177 310 191
3 317 283 245
3 268 319 267
3 262 320 287
3 187 188 186
3 207 289 234
3 308 291 191
3 298 226 230
3 199 250 198
3 211 338 284
3 287 324 262
3 312 316 180
3 220 249 257
3 203 235 288
3 220 198 249
3 197 274 226
3 235 212 209
3 261 205 203
3 315 158 169
3 292 263 276
3 267 319 320
3 331 218 192
3 245 217 317
3 309 237 277
3 282 266 214
3 273 252 187
3 239 328 223
3 179 304 246
3 320 244 267
3 242 273 187
3 259 211 258
3 323 250 237
3 206 286 299
3 212 285 209
3 330 325 270
3 149 222 318
3 256 266 225
3 291 331 177
3 254 309 277
3 176 234 296
3 195 260 292
3 163 158 267
3 285 212 208
3 207 234 290
3 262 322 300
3 262 324 322
3 204 275 261
3 198 298 199
3 323 237 236
3 298 243 199
3 295 287 232
3 209 326 210
3 327 332 182
3 238 257 217
3 244 300 100
3 276 291 308
3 218 260 194
3 189 194 268
3 266 282 178
3 278 255 277
3 310 334 248
3 239 248 65
3 181 253 79
3 325 316 312
3 307 260 195
3 201 278 277
3 175 286 195
3 183 335 281
3 289 212 213
3 299 296 269
3 278 201 329
3 185 259 228
3 301 281 273
3 237 250 201
3 287 311 324
3 289 207 208
3 314 211 184
3 259 184 211
3 250 323 249
3 230 243 298
3 204 261 203
3 130 182 181
3 198 250 249
3 228 224 185
3 332 227 182
3 284 258 211
3 220 221 197
3 200 221 258
3 179 225 219
3 321 190 214
3 291 263 331
3 306 330 270
3 308 191 190
3 194 260 307
3 319 307 229
3 333 325 312
3 310 166 334
3 277 237 201
3 285 329 199
3 305 294 216
3 176 233 234
3 217 236 246
3 307 268 194
3 251 253 181
3 283 183 224
3 252 251 181
3 182 252 181
3 290 255 278
3 244 100 163
3 297 248 240
3 320 262 244
3 257 249 323
3 285 199 243
3 217 323 236
3 241 187 186
3 185 301 242
3 293 178 294
3 330 216 316
3 270 99 318
3 312 328 165
3 308 321 233
3 325 333 98
3 283 264 183
3 290 234 233
3 228 238 245
3 265 335 264
3 179 236 309
3 237 309 236
3 202 254 255
3 232 320 319
3 289 213 269
3 278 329 207
3 199 201 250
3 273 281 251
3 323 217 257
3 327 182 130
3 224 183 301
3 243 326 209
3 205 213 203
3 295 193 247
3 184 241 314
3 273 242 301
3 310 297 191
3 209 285 243
3 220 257 272
3 298 198 197
3 256 202 321
3 178 293 266
3 279 170 166
3 218 331 263
3 219 305 215
3 318 306 270
3 265 318 222
3 318 265 306
3 195 271 307
3 183 264 335
3 207 290 278
3 163 267 244
3 271 195 286
3 191 291 177
3 223 240 239
3 227 187 252
3 227 188 187
3 253 251 280
3 253 336 79
3 224 301 185
3 273 251 252
3 287 320 232
3 238 217 245
3 235 203 213
3 329 208 207
3 205 299 269
3 178 282 223
3 256 214 266
3 231 303 215
3 316 216 294
3 265 222 280
3 307 319 268
3 254 256 225
3 269 234 289
3 167 165 328
3 267 315 268
3 219 215 304
3 282 297 240
3 175 296 299
3 303 283 317
3 202 255 290
3 310 279 166
3 247 193 302
3 246 236 179
3 270 325 98
3 311 295 247
3 295 311 287
3 261 275 340
3 212 289 208
3 241 186 314
3 257 238 272
3 229 232 319
3 333 312 165
3 260 218 263
3 293 305 219
3 283 303 264
3 303 304 215
3 306 265 264
3 297 190 191
3 180 223 328
3 177 331 279
3 328 312 180
3 330 231 216
3 263 292 260
3 214 190 282
3 179 219 304
3 290 233 202
3 335 265 280
3 315 267 158
3 335 280 281
3 282 240 223
3 331 192 279
3 264 231 306
3 225 179 309
3 316 294 180
3 202 256 254
3 231 330 306
3 225 309 254
3 189 218 194
3 297 282 190
3 233 176 276
3 167 328 239
3 264 303 231
3 317 304 303
3 192 218 189
3 308 233 276
3 177 279 310
3 256 321 214
3 178 223 180
3 190 321 308
3 330 316 325
3 276 263 291
3 244 262 300
3 225 266 293
3 322 313 300
3 304 317 246
3 297 310 248
3 292 175 195
3 192 169 170
3 178 180 294
3 196 340 337
3 315 192 189
3 313 100 300
3 248 334 65
3 176 296 175
3 261 206 205
3 222 149 336
3 222 336 253
3 192 315 169
3 79 130 181
3 318 99 149
3 235 213 212
3 65 167 239
3 243 230 326
3 170 279 192
3 200 274 221
3 271 193 229
3 338 211 314
3 227 339 188
3 196 193 271
3 196 302 193
3 340 286 206
3 339 227 332
3 261 340 206
3 196 337 302
3 340 196 286
3 340 275 337
