OFF
341 634 0
-0.345376807375002 0.291352739200369 0.180955120075914
-0.341173695467776 0.219538456231081 0.230904888354259
-0.129049515525123 0.202158512532395 0.287056885416372
-0.173838491867935 -0.0486094844426965 0.358754891940768
-0.333678144837555 -0.137589125410571 0.305962554966484
-0.10875082053941 -0.0875082060549167 0.345896772287484
-0.0673990588083982 -0.481930064574171 0.100417132836689
-0.065059591356298 -0.527083154941394 0.04545403977068
-0.233745774370035 -0.36607862202435 0.210738785825699
-0.341091836732672 -0.415451404299022 0.0740255175421017
-0.32543381688389 -0.38661641335893 0.133590547478758
-0.2756534 -0.4944831 0
-0.219988733169727 -0.488440131896893 0.0602911123152751
-0.2087998 -0.5251421 0
-0.118890874536321 0.349805221894481 0.209015592115566
-0.209566051974512 0.100275784136357 0.329106749906632
-0.166896244950192 0.15548517975097 0.3092987227754
-0.0755097908624035 0.302799204438873 0.233907907607283
-0.296551735309219 0.449379593840532 0.0611326467715098
-0.177638983122453 0.359808267602021 0.197894488281868
-0.29055886014413 0.345931501073815 0.171612594578011
-0.351600866184826 0.406537028008312 0.0659166341039705
-0.52100800873516 -0.173330455969813 0.0642204131659143
-0.5069892984946 -0.129064510247578 0.12213208865237
-0.512781902030697 -0.045596185290802 0.136093861145967
-0.4884344 -0.2880939 0
-0.465465691983629 -0.0368543500881235 0.20516338078412
-0.345457235191677 0.0686286688900642 0.294338102946939
-0.498703952693372 0.226281498222828 0.0563263544560471
-0.5042845 0.2674346 0
-0.453225045712128 0.258430185829755 0.101115017363852
-0.416655048146061 0.319041368704023 0.0908624957035754
-0.446865729322339 0.0947454964955055 0.204535886733318
-0.487665547321309 0.0828519719124215 0.157198544097382
-0.543721167418709 0.0704335507916013 0.0613090410381398
-0.5587627 0.1112094 0
-0.39637000681598 -0.384340347709504 0.0446785961450681
-0.509549065250881 0.113696917841181 0.112049232725766
-0.48487765917641 0.18727849837437 0.110387931494354
-0.243556504144053 0.0461594539775462 0.339842466063823
-0.22969891271185 -0.207726920167897 0.320754309640595
-0.165152489593962 -0.192499218194402 0.330616156947622
-0.385324603442376 -0.224940183641672 0.231088510249404
-0.159306366646102 0.310592970425377 0.232423962255274
-0.273758202472951 -0.141682814153546 0.332376554323503
-0.481342448635954 -0.208771132097726 0.118790581181865
-0.487323453799599 -0.250823311154621 0.0649110433164249
-0.0601290751379547 -0.378011371149971 0.198430540022025
-0.112444885635019 -0.0165943000880797 0.349182855130437
-0.302777695041175 -0.353139040726344 0.190047537321874
-0.306834945637078 -0.0657072510699316 0.331676110228992
-0.5519026 -0.1375944 0
-0.144364278352245 -0.52308406632942 0.037440236651465
-0.369847880950667 -0.328277861433141 0.15987741975292
-0.237397241370253 0.441566838833441 0.107459934909089
-0.5665181 -0.05534892 0
-0.177452576670171 -0.258161758416248 0.300629176492108
-0.186603833713897 0.474718757742768 0.0899335998702262
-0.332215256236566 0.14889762049822 0.272646849654621
-0.403310689201112 0.165657618273147 0.216685253920778
-0.526757924024343 0.150912646335467 0.0588585457906577
-0.389069693675399 -0.15023332049348 0.262717829513419
-0.429935062513418 -0.0940550705842712 0.239077573660739
-0.397497641025286 -0.272845769897908 0.182857572641223
-0.0528571921477882 0.016269146046053 0.324364616236907
1.62251380705757e-16 0.0522169271483114 0.289800445506219
-0.108320774967118 0.0447371456036111 0.339100140024696
-0.292734626452735 -0.460297490240923 0.0488969929115779
-0.273799114378733 -0.439572649049404 0.101548714721864
-0.546899002738487 -0.0117100085610623 0.0675356727727861
-0.058659899644342 0.492341436581504 0.0879175275512392
-0.342875139425359 -0.294556142572619 0.215897639040484
-0.346765805556366 -0.196518484630225 0.275586007561861
-0.287353 0.4959361 0
-0.0605587093509074 0.0867652788390247 0.314747677466098
-0.470525981177075 -0.165747262599839 0.163403291125313
-0.475752704005951 -0.102766174452422 0.181709193988532
-0.130779041829045 -0.451571434403561 0.137366750949698
-0.140248054196527 -0.491526544143268 0.0854928238611847
7.83532821947561e-17 -0.453447449197103 0.114642502780779
-0.0633140145481658 -0.432612657197726 0.151549066911128
-0.357177747537753 -0.0113985239115069 0.302519432332295
-0.39223190703247 0.0327376070297823 0.270711728337023
-0.301143775869247 0.0178030278533879 0.32820025767218
-0.437246021215843 -0.223452684224935 0.174602103819306
-0.445175559335955 -0.31946808338912 0.0610356722403655
-0.390369510466876 -0.354824871862089 0.102763254371444
-0.229051513896298 0.3295865232633 0.208172077619252
-0.461490347575683 0.299260533690477 0.0483681709310545
-0.103023067555229 0.526741516167763 0.0479555780541938
-0.2166725509431 0.268373671341242 0.249370183053695
-0.193207958131489 -0.321084575902655 0.258807845471962
-0.120400653850609 -0.350770365398511 0.233923399423764
-0.241863667521257 -0.018826515173244 0.35157801326713
-0.0767021680287567 0.438387623834792 0.140824840883944
-0.136636392099507 0.399648971634028 0.173142298546741
-0.43562078061642 0.214057002864922 0.15658010150276
-0.0560589868926231 -0.258502950418999 0.272630279385274
1.26489833398199e-16 -0.215079944748358 0.257036672334121
9.19597857649043e-17 -0.277861481372813 0.231638558238815
1.11175200759634e-17 0.51766525119938 0.0564249310433392
-0.29576780594005 0.399168736766765 0.120012146865794
-0.436047776998301 -0.283688912671197 0.124483759777814
-0.202998026490202 -0.453917768430841 0.120002727797714
-0.5256875 -0.2159877 0
-0.4614737 0.3373729 0
-0.274325541383634 0.213869252229568 0.264596122608899
-0.41397142186561 -0.0286757288973889 0.259745627277236
-0.43814520387851 0.0312658976470609 0.23039563301862
-0.0681070919770044 0.229791920334455 0.266839251677736
-0.120972125324842 -0.404796925509994 0.186739888190459
-0.188087438673405 -0.41442970914103 0.172500567932598
-0.176033321962508 0.0308048976253803 0.35140787321912
-0.273057364259731 -0.313815447632988 0.242285150794112
-0.4450312 -0.3498691 0
-0.520022720635647 0.0349270564099106 0.119017768972978
-0.358964102026757 0.351646892482923 0.119768418881873
-0.168995100679817 0.51303002290293 0.0490762316274651
-0.5367618 0.1923582 0
-0.462938323677564 0.146707980179038 0.163988097293849
-0.394893408714034 0.0973899735417615 0.251814301920475
-0.200176637724987 0.210869765916396 0.282222200684069
-0.283891247740519 0.280537978768771 0.22185560344374
-0.233509795983338 -0.0888866999380198 0.352158613373892
-0.165380692897631 -0.121274884405927 0.350876644355258
-0.236084098676374 0.48664109935785 0.0529077757228047
-0.38896136282827 0.23408918120057 0.187706478626735
-0.133656975687919 0.0994697127323674 0.328705973360569
-0.539795616130192 -0.0915514827542533 0.068374753938374
-0.400786101833545 0.284908991805536 0.139992186336398
4.94777056038575e-17 -0.512714827033363 0.0576206291138547
-0.0428244758030223 0.539605350682883 0.0369871481978801
-0.256795740737174 -0.40631357767806 0.157291000422741
-0.3469738 0.4567638 0
-0.24713199780086 -0.266076073870584 0.285946826868266
-0.292533911642809 -0.204033353069801 0.302822266914366
-0.214463947235926 -0.151551487633754 0.342371552785445
-0.119820787934791 -0.294352274433466 0.273560195592129
-0.223026059533339 0.392756744164873 0.161687205420558
-0.249717594456467 0.156861069454493 0.299344567199817
-0.374440016004727 -0.0813704386023515 0.289988739668895
-0.0777944566136137 0.156436966407541 0.298205219950001
-0.2179509 0.5297573 0
-0.0515514861016058 -0.122375428919827 0.316581980528553
-0.3481025 -0.4466615 0
-0.0651446655248397 0.373265413898253 0.189546198775243
-0.10662645867854 -0.159699730000088 0.330687864675676
-0.316937017691862 -0.255007705622644 0.262564443744472
-0.0588232351781175 -0.320014799617824 0.239322800292168
7.97642129075752e-17 -0.338446177143067 0.199466626173806
-0.163140514050533 0.440320502092348 0.13345890416938
-0.123152385683032 0.482743477158038 0.0960831257415325
-0.285008502857062 0.0950870149497087 0.313820875352239
-0.06839787 0.5693324 0
-0.434037279499154 -0.162067173266057 0.213504314040719
-0.1459664 0.5540397 0
-0.0525709672036074 -0.191877655495734 0.298455033114668
-0.5687363 0.02701634 0
4.0559162047839e-17 0.395630812765786 0.157642218102832
-0.0523815765767219 -0.0526462630687928 0.325856413152951
-0.484040649435165 0.0233994725903844 0.177462750349181
-0.111108010958008 -0.229873412140159 0.306199881922474
-0.140110531155376 0.257540160822868 0.261698960690024
3.33960109460995e-17 0.454458058129852 0.112652868732994
-0.07314713 -0.5603097 0
1.63956431374043e-16 -0.0832926462896358 0.286976462823881
1.38764078162318e-16 0.188481546686934 0.264251424969462
1.7550162192362e-16 -0.0166417574368048 0.29146641482322
-0.172391239252751 -0.372726141533563 0.21630850097101
8.41968554659237e-17 0.328054882870698 0.200901616428885
1.18691595505096e-16 0.25962619891676 0.236312505424342
-0.403703 0.4057092 0
-0.3983695 -0.4019898 0
-0.1456375 -0.5454938 0
-0.409937806019673 0.358401569478678 0.0566780537999612
0.345376807375002 0.291352739200369 0.180955120075914
0.341173695467776 0.219538456231081 0.230904888354259
0.129049515525123 0.202158512532395 0.287056885416372
0.173838491867935 -0.0486094844426965 0.358754891940769
0.333678144837556 -0.137589125410571 0.305962554966484
0.108750820539411 -0.0875082060549167 0.345896772287484
0.0673990588083984 -0.481930064574171 0.100417132836689
0.0650595913562981 -0.527083154941394 0.04545403977068
0.233745774370036 -0.366078622024351 0.210738785825699
0.341091836732672 -0.415451404299022 0.0740255175421018
0.32543381688389 -0.38661641335893 0.133590547478758
0.2756534 -0.4944831 0
0.219988733169727 -0.488440131896893 0.0602911123152751
0.2087998 -0.5251421 0
0.118890874536321 0.349805221894481 0.209015592115566
0.209566051974513 0.100275784136357 0.329106749906632
0.166896244950192 0.15548517975097 0.3092987227754
0.0755097908624038 0.302799204438873 0.233907907607283
0.296551735309219 0.449379593840532 0.0611326467715098
0.177638983122453 0.359808267602021 0.197894488281869
0.29055886014413 0.345931501073815 0.171612594578011
0.351600866184826 0.406537028008312 0.0659166341039705
0.52100800873516 -0.173330455969813 0.0642204131659145
0.5069892984946 -0.129064510247578 0.122132088652371
0.512781902030697 -0.045596185290802 0.136093861145967
0.4884344 -0.2880939 0
0.46546569198363 -0.0368543500881235 0.20516338078412
0.345457235191677 0.0686286688900642 0.294338102946939
0.498703952693372 0.226281498222828 0.0563263544560471
0.5042845 0.2674346 0
0.453225045712128 0.258430185829755 0.101115017363852
0.416655048146061 0.319041368704023 0.0908624957035755
0.446865729322339 0.0947454964955054 0.204535886733318
0.487665547321309 0.0828519719124215 0.157198544097383
0.543721167418709 0.0704335507916012 0.0613090410381399
0.5587627 0.1112094 0
0.39637000681598 -0.384340347709504 0.0446785961450681
0.509549065250881 0.113696917841181 0.112049232725766
0.484877659176411 0.18727849837437 0.110387931494354
0.243556504144053 0.0461594539775462 0.339842466063823
0.22969891271185 -0.207726920167897 0.320754309640596
0.165152489593962 -0.192499218194402 0.330616156947622
0.385324603442376 -0.224940183641672 0.231088510249404
0.159306366646102 0.310592970425377 0.232423962255274
0.273758202472951 -0.141682814153546 0.332376554323503
0.481342448635954 -0.208771132097726 0.118790581181866
0.487323453799599 -0.250823311154621 0.0649110433164249
0.0601290751379551 -0.378011371149971 0.198430540022025
0.11244488563502 -0.0165943000880798 0.349182855130437
0.302777695041176 -0.353139040726345 0.190047537321874
0.306834945637079 -0.0657072510699317 0.331676110228992
0.5519026 -0.1375944 0
0.144364278352245 -0.52308406632942 0.0374402366514649
0.369847880950667 -0.328277861433141 0.159877419752921
0.237397241370253 0.441566838833441 0.107459934909089
0.5665181 -0.05534892 0
0.177452576670171 -0.258161758416248 0.300629176492108
0.186603833713897 0.474718757742768 0.0899335998702262
0.332215256236567 0.14889762049822 0.272646849654622
0.403310689201113 0.165657618273148 0.216685253920779
0.526757924024343 0.150912646335467 0.0588585457906577
0.389069693675399 -0.15023332049348 0.26271782951342
0.429935062513418 -0.0940550705842712 0.239077573660739
0.397497641025286 -0.272845769897908 0.182857572641223
0.0528571921477885 0.016269146046053 0.324364616236907
0.108320774967118 0.0447371456036111 0.339100140024697
0.292734626452735 -0.460297490240923 0.0488969929115779
0.273799114378733 -0.439572649049404 0.101548714721864
0.546899002738488 -0.0117100085610623 0.0675356727727862
0.0586598996443421 0.492341436581504 0.0879175275512393
0.34287513942536 -0.294556142572619 0.215897639040484
0.346765805556367 -0.196518484630225 0.275586007561861
0.287353 0.4959361 0
0.0605587093509077 0.0867652788390247 0.314747677466099
0.470525981177075 -0.165747262599839 0.163403291125313
0.475752704005952 -0.102766174452422 0.181709193988533
0.130779041829045 -0.451571434403561 0.137366750949698
0.140248054196527 -0.491526544143268 0.0854928238611847
0.063314014548166 -0.432612657197726 0.151549066911128
0.357177747537753 -0.0113985239115069 0.302519432332295
0.392231907032471 0.0327376070297823 0.270711728337023
0.301143775869248 0.0178030278533878 0.32820025767218
0.437246021215843 -0.223452684224935 0.174602103819306
0.445175559335955 -0.31946808338912 0.0610356722403656
0.390369510466876 -0.354824871862089 0.102763254371444
0.229051513896298 0.3295865232633 0.208172077619252
0.461490347575683 0.299260533690477 0.0483681709310545
0.103023067555229 0.526741516167763 0.0479555780541937
0.2166725509431 0.268373671341242 0.249370183053695
0.193207958131489 -0.321084575902655 0.258807845471962
0.12040065385061 -0.350770365398512 0.233923399423764
0.241863667521258 -0.018826515173244 0.35157801326713
0.0767021680287568 0.438387623834792 0.140824840883944
0.136636392099507 0.399648971634028 0.173142298546741
0.43562078061642 0.214057002864922 0.15658010150276
0.0560589868926233 -0.258502950418999 0.272630279385274
0.29576780594005 0.399168736766765 0.120012146865794
0.436047776998301 -0.283688912671198 0.124483759777814
0.202998026490202 -0.453917768430841 0.120002727797714
0.5256875 -0.2159877 0
0.4614737 0.3373729 0
0.274325541383634 0.213869252229568 0.264596122608899
0.41397142186561 -0.0286757288973889 0.259745627277237
0.438145203878511 0.0312658976470609 0.230395633018621
0.0681070919770047 0.229791920334455 0.266839251677736
0.120972125324843 -0.404796925509994 0.186739888190459
0.188087438673405 -0.41442970914103 0.172500567932599
0.176033321962508 0.0308048976253803 0.351407873219121
0.273057364259732 -0.313815447632988 0.242285150794112
0.4450312 -0.3498691 0
0.520022720635647 0.0349270564099106 0.119017768972979
0.358964102026757 0.351646892482923 0.119768418881873
0.168995100679817 0.51303002290293 0.049076231627465
0.5367618 0.1923582 0
0.462938323677564 0.146707980179038 0.163988097293849
0.394893408714034 0.0973899735417616 0.251814301920476
0.200176637724987 0.210869765916396 0.282222200684069
0.28389124774052 0.280537978768771 0.22185560344374
0.233509795983338 -0.0888866999380198 0.352158613373892
0.165380692897632 -0.121274884405927 0.350876644355258
0.236084098676374 0.48664109935785 0.0529077757228047
0.38896136282827 0.23408918120057 0.187706478626735
0.133656975687919 0.0994697127323674 0.32870597336057
0.539795616130192 -0.0915514827542533 0.0683747539383741
0.400786101833545 0.284908991805536 0.139992186336398
0.0428244758030223 0.539605350682883 0.03698714819788
0.256795740737174 -0.40631357767806 0.157291000422741
0.3469738 0.4567638 0
0.247131997800861 -0.266076073870584 0.285946826868266
0.292533911642809 -0.204033353069801 0.302822266914367
0.214463947235927 -0.151551487633754 0.342371552785445
0.119820787934792 -0.294352274433466 0.273560195592129
0.223026059533339 0.392756744164873 0.161687205420558
0.249717594456467 0.156861069454492 0.299344567199817
0.374440016004728 -0.0813704386023515 0.289988739668896
0.0777944566136139 0.156436966407541 0.298205219950001
0.2179509 0.5297573 0
0.0515514861016062 -0.122375428919827 0.316581980528553
0 0.575 0
0.3481025 -0.4466615 0
0.06514466552484 0.373265413898253 0.189546198775243
0.106626458678541 -0.159699730000088 0.330687864675676
0.316937017691862 -0.255007705622644 0.262564443744473
0.0588232351781178 -0.320014799617824 0.239322800292168
0.163140514050534 0.440320502092348 0.13345890416938
0.123152385683032 0.482743477158038 0.0960831257415325
0.285008502857063 0.0950870149497087 0.313820875352239
0.06839787 0.5693324 0
0.434037279499155 -0.162067173266057 0.21350431404072
0.1459664 0.5540397 0
0.0525709672036077 -0.191877655495734 0.298455033114668
0.5687363 0.02701634 0
0 -0.5663709 0
0.0523815765767223 -0.0526462630687928 0.325856413152951
0.484040649435165 0.0233994725903844 0.177462750349181
0.111108010958008 -0.229873412140159 0.306199881922474
0.140110531155376 0.257540160822868 0.261698960690025
0.07314713 -0.5603097 0
1.35639859903748e-16 -0.15009891869646 0.275549110201379
1.59373891220793e-16 0.121456537541013 0.281233840172165
0.172391239252752 -0.372726141533563 0.21630850097101
9.88343816111945e-17 -0.39701770433049 0.160407486704669
0.403703 0.4057092 0
0.3983695 -0.4019898 0
0.1456375 -0.5454938 0
0.409937806019674 0.358401569478678 0.0566780537999612
3 0 1 122
3 78 52 7
3 101 21 116
3 45 23 22
3 152 58 27
3 136 124 123
3 60 118 35
3 53 63 102
3 28 29 118
3 66 64 74
3 102 85 86
3 26 160 24
3 97 99 98
3 41 136 40
3 125 18 54
3 9 10 86
3 22 104 46
3 46 102 45
3 111 77 110
3 54 57 125
3 80 47 110
3 116 129 0
3 9 67 68
3 106 122 1
3 59 126 96
3 72 42 147
3 71 53 49
3 51 22 128
3 129 31 30
3 68 10 9
3 53 102 86
3 35 34 60
3 44 123 50
3 40 56 41
3 30 38 96
3 111 8 132
3 25 114 85
3 49 113 71
3 33 115 160
3 138 54 101
3 46 85 102
3 68 67 12
3 145 95 14
3 81 82 107
3 2 16 141
3 147 71 113
3 95 94 150
3 89 117 151
3 12 11 13
3 32 59 119
3 139 16 121
3 128 55 51
3 24 23 76
3 36 114 172
3 117 89 155
3 143 5 146
3 45 84 75
3 28 118 60
3 45 75 23
3 22 51 104
3 60 34 37
3 88 28 30
3 145 169 158
3 122 106 90
3 94 151 150
3 162 17 43
3 71 147 42
3 140 107 62
3 112 39 93
3 103 12 78
3 64 48 159
3 4 72 135
3 151 94 70
3 68 12 103
3 86 85 36
3 154 62 76
3 31 129 116
3 37 34 115
3 161 97 156
3 149 148 47
3 83 50 93
3 121 2 162
3 81 107 140
3 1 126 59
3 20 122 87
3 163 94 158
3 115 33 37
3 32 120 59
3 89 131 153
3 89 153 155
3 29 88 105
3 23 24 128
3 154 61 62
3 128 24 69
3 125 57 117
3 34 35 157
3 327 7 164
3 63 42 84
3 70 100 131
3 106 139 121
3 43 19 87
3 14 95 19
3 93 3 112
3 108 107 82
3 141 74 334
3 64 65 74
3 6 79 80
3 156 143 146
3 138 20 87
3 26 107 108
3 0 20 116
3 8 111 168
3 119 38 37
3 129 96 126
3 108 160 26
3 10 53 86
3 132 103 111
3 62 26 76
3 117 155 142
3 119 33 32
3 144 9 36
3 86 36 9
3 76 75 154
3 55 128 69
3 29 28 88
3 130 6 7
3 23 75 76
3 53 10 49
3 164 7 52
3 114 36 85
3 45 22 46
3 25 85 46
3 4 44 50
3 152 39 15
3 121 162 90
3 137 97 161
3 139 15 16
3 19 138 87
3 150 54 138
3 333 143 156
3 141 334 166
3 107 26 62
3 115 24 160
3 136 41 124
3 1 59 58
3 42 72 61
3 138 19 95
3 77 6 80
3 113 49 8
3 78 6 77
3 7 6 78
3 120 108 82
3 70 163 100
3 127 66 74
3 151 70 89
3 84 154 75
3 115 69 24
3 42 61 154
3 67 11 12
3 10 68 132
3 123 124 3
3 161 146 41
3 97 148 99
3 143 165 159
3 139 58 152
3 156 98 333
3 113 8 91
3 120 58 59
3 53 71 63
3 92 91 168
3 4 140 61
3 62 61 140
3 27 82 81
3 57 150 151
3 119 96 38
3 108 32 160
3 24 76 26
3 103 77 111
3 154 84 42
3 327 130 7
3 49 132 8
3 69 34 157
3 30 28 38
3 125 73 18
3 9 144 67
3 103 132 68
3 141 16 127
3 34 69 115
3 45 102 84
3 128 22 23
3 83 152 27
3 3 93 123
3 109 166 170
3 43 90 162
3 44 40 136
3 148 97 137
3 92 47 148
3 148 137 92
3 20 138 101
3 8 168 91
3 32 108 120
3 163 70 94
3 101 116 20
3 16 2 121
3 48 64 66
3 52 78 12
3 52 12 13
3 80 110 77
3 80 79 336
3 49 10 132
3 103 78 77
3 117 57 151
3 63 71 42
3 60 38 28
3 160 32 33
3 30 96 129
3 3 48 112
3 83 93 39
3 56 40 134
3 146 124 41
3 92 110 47
3 138 95 150
3 81 50 83
3 96 119 59
3 167 159 165
3 94 95 145
3 44 135 40
3 112 66 127
3 0 129 126
3 134 147 113
3 27 120 82
3 141 166 109
3 73 133 18
3 72 4 61
3 97 98 156
3 142 73 125
3 125 117 142
3 88 174 105
3 37 33 119
3 67 144 11
3 84 102 63
3 54 150 57
3 333 165 143
3 87 90 43
3 123 44 136
3 113 91 134
3 134 40 135
3 137 91 92
3 127 16 15
3 5 159 48
3 2 109 162
3 159 5 143
3 161 41 56
3 90 87 122
3 39 112 15
3 4 135 44
3 120 27 58
3 168 110 92
3 145 158 94
3 168 111 110
3 112 48 66
3 162 109 17
3 91 137 56
3 50 140 4
3 146 5 124
3 27 81 83
3 56 137 161
3 50 81 140
3 14 19 43
3 127 15 112
3 58 106 1
3 167 64 159
3 91 56 134
3 147 134 135
3 17 14 43
3 139 106 58
3 2 141 109
3 83 39 152
3 3 5 48
3 15 139 152
3 161 156 146
3 106 121 90
3 70 131 89
3 50 123 93
3 153 131 313
3 135 72 147
3 127 74 141
3 122 20 0
3 17 170 169
3 3 124 5
3 21 171 174
3 145 14 17
3 313 131 100
3 74 65 334
3 1 0 126
3 88 30 31
3 47 336 149
3 47 80 336
3 17 169 145
3 79 6 130
3 148 149 99
3 60 37 38
3 65 64 167
3 69 157 55
3 170 17 109
3 25 46 104
3 101 54 18
3 172 144 36
3 52 13 173
3 21 101 18
3 21 18 133
3 174 31 116
3 173 164 52
3 88 31 174
3 21 133 171
3 174 116 21
3 174 171 105
3 175 292 176
3 252 182 227
3 271 286 196
3 220 197 198
3 321 202 233
3 305 293 294
3 235 210 288
3 228 272 238
3 203 288 204
3 240 248 239
3 272 259 258
3 201 199 329
3 270 98 99
3 216 215 305
3 295 229 193
3 184 259 185
3 197 221 274
3 221 220 272
3 281 280 251
3 229 295 232
3 253 280 222
3 286 175 299
3 184 242 241
3 276 176 292
3 234 269 296
3 246 317 217
3 245 224 228
3 226 298 197
3 299 205 206
3 242 184 185
3 228 259 272
3 210 235 209
3 219 225 293
3 215 216 231
3 205 269 213
3 281 301 183
3 200 258 284
3 224 245 283
3 208 329 285
3 307 271 229
3 221 272 258
3 242 187 241
3 315 189 268
3 254 277 255
3 177 310 191
3 317 283 245
3 268 319 267
3 262 320 287
3 187 188 186
3 207 289 234
3 308 291 191
3 298 226 230
3 199 250 198
3 211 338 284
3 287 324 262
3 312 316 180
3 220 249 257
3 203 235 288
3 220 198 249
3 197 274 226
3 235 212 209
3 261 205 203
3 315 158 169
3 292 263 276
3 267 319 320
3 331 218 192
3 245 217 317
3 309 237 277
3 282 266 214
3 273 252 187
3 239 328 223
3 179 304 246
3 320 244 267
3 242 273 187
3 259 211 258
3 323 250 237
3 206 286 299
3 212 285 209
3 330 325 270
3 149 222 318
3 256 266 225
3 291 331 177
3 254 309 277
3 176 234 296
3 195 260 292
3 163 158 267
3 285 212 208
3 207 234 290
3 262 322 300
3 262 324 322
3 204 275 261
3 198 298 199
3 323 237 236
3 298 243 199
3 295 287 232
3 209 326 210
3 327 332 182
3 238 257 217
3 244 300 100
3 276 291 308
3 218 260 194
3 189 194 268
3 266 282 178
3 278 255 277
3 310 334 248
3 239 248 65
3 181 253 79
3 325 316 312
3 307 260 195
3 201 278 277
3 175 286 195
3 183 335 281
3 289 212 213
3 299 296 269
3 278 201 329
3 185 259 228
3 301 281 273
3 237 250 201
3 287 311 324
3 289 207 208
3 314 211 184
3 259 184 211
3 250 323 249
3 230 243 298
3 204 261 203
3 130 182 181
3 198 250 249
3 228 224 185
3 332 227 182
3 284 258 211
3 220 221 197
3 200 221 258
3 179 225 219
3 321 190 214
3 291 263 331
3 306 330 270
3 308 191 190
3 194 260 307
3 319 307 229
3 333 325 312
3 310 166 334
3 277 237 201
3 285 329 199
3 305 294 216
3 176 233 234
3 217 236 246
3 307 268 194
3 251 253 181
3 283 183 224
3 252 251 181
3 182 252 181
3 290 255 278
3 244 100 163
3 297 248 240
3 320 262 244
3 257 249 323
3 285 199 243
3 217 323 236
3 241 187 186
3 185 301 242
3 293 178 294
3 330 216 316
3 270 99 318
3 312 328 165
3 308 321 233
3 325 333 98
3 283 264 183
3 290 234 233
3 228 238 245
3 265 335 264
3 179 236 309
3 237 309 236
3 202 254 255
3 232 320 319
3 289 213 269
3 278 329 207
3 199 201 250
3 273 281 251
3 323 217 257
3 327 182 130
3 224 183 301
3 243 326 209
3 205 213 203
3 295 193 247
3 184 241 314
3 273 242 301
3 310 297 191
3 209 285 243
3 220 257 272
3 298 198 197
3 256 202 321
3 178 293 266
3 279 170 166
3 218 331 263
3 219 305 215
3 318 306 270
3 265 318 222
3 318 265 306
3 195 271 307
3 183 264 335
3 207 290 278
3 163 267 244
3 271 195 286
3 191 291 177
3 223 240 239
3 227 187 252
3 227 188 187
3 253 251 280
3 253 336 79
3 224 301 185
3 273 251 252
3 287 320 232
3 238 217 245
3 235 203 213
3 329 208 207
3 205 299 269
3 178 282 223
3 256 214 266
3 231 303 215
3 316 216 294
3 265 222 280
3 307 319 268
3 254 256 225
3 269 234 289
3 167 165 328
3 267 315 268
3 219 215 304
3 282 297 240
3 175 296 299
3 303 283 317
3 202 255 290
3 310 279 166
3 247 193 302
3 246 236 179
3 270 325 98
3 311 295 247
3 295 311 287
3 261 275 340
3 212 289 208
3 241 186 314
3 257 238 272
3 229 232 319
3 333 312 165
3 260 218 263
3 293 305 219
3 283 303 264
3 303 304 215
3 306 265 264
3 297 190 191
3 180 223 328
3 177 331 279
3 328 312 180
3 330 231 216
3 263 292 260
3 214 190 282
3 179 219 304
3 290 233 202
3 335 265 280
3 315 267 158
3 335 280 281
3 282 240 223
3 331 192 279
3 264 231 306
3 225 179 309
3 316 294 180
3 202 256 254
3 231 330 306
3 225 309 254
3 189 218 194
3 297 282 190
3 233 176 276
3 167 328 239
3 264 303 231
3 317 304 303
3 192 218 189
3 308 233 276
3 177 279 310
3 256 321 214
3 178 223 180
3 190 321 308
3 330 316 325
3 276 263 291
3 244 262 300
3 225 266 293
3 322 313 300
3 304 317 246
3 297 310 248
3 292 175 195
3 192 169 170
3 178 180 294
3 196 340 337
3 315 192 189
3 313 100 300
3 248 334 65
3 176 296 175
3 261 206 205
3 222 149 336
3 222 336 253
3 192 315 169
3 79 130 181
3 318 99 149
3 235 213 212
3 65 167 239
3 243 230 326
3 170 279 192
3 200 274 221
3 271 193 229
3 338 211 314
3 227 339 188
3 196 193 271
3 196 302 193
3 340 286 206
3 339 227 332
3 261 340 206
3 196 337 302
3 340 196 286
3 340 275 337
