OFF
341 634 0
-0.354734572461359 0.28966403214967 0.204906333672685
-0.351268643749984 0.217931609434557 0.258180428799069
-0.137500944855965 0.20526053193653 0.340261480331393
-0.191633368047973 -0.0501725406483641 0.404927622142452
-0.346564327836584 -0.135200465130227 0.333261867154047
-0.124914004021747 -0.089990298552106 0.400089657844846
-0.0665728121400671 -0.4903599296575 0.125323091742725
-0.0628836797448307 -0.532953006246572 0.0592075595665416
-0.244714852718607 -0.365034917458861 0.243352656078762
-0.347105865402622 -0.415843971380707 0.0836733277895882
-0.334311205004805 -0.385450924368921 0.150905230673314
-0.2756534 -0.4944831 0
-0.225771838561777 -0.493726592488765 0.0745594124775036
-0.2087998 -0.5251421 0
-0.122600388743962 0.356397473242026 0.251475083052428
-0.224214301837893 0.0982781415083879 0.373281024312864
-0.178875656728529 0.155774190052115 0.35904682494096
-0.0788601035716004 0.311989730871382 0.285664832672731
-0.301756129191637 0.452665355175269 0.0722929567218992
-0.183388818677342 0.363394199085187 0.234933572618298
-0.299314447316473 0.346322486042693 0.198769539989551
-0.357059371378676 0.408157840945994 0.0760315445387832
-0.523671933448687 -0.172574012614934 0.0683838663742755
-0.511242748703574 -0.127892186062689 0.129664471487753
-0.51707613000773 -0.0446263483488466 0.144423362840082
-0.4884344 -0.2880939 0
-0.472134421706889 -0.0358981703317366 0.21888728914412
-0.357405162104022 0.0662517959412281 0.322331237431465
-0.501098218827526 0.225328868590094 0.0610755686488704
-0.5042845 0.2674346 0
-0.45862910428977 0.256075701325648 0.11118065576314
-0.423235383269298 0.316414542040829 0.10207026104376
-0.453731846760144 0.0930891641786345 0.221006057336633
-0.492685495803078 0.0821866958049137 0.168583498339173
-0.545615387316528 0.0706336828237326 0.0651287824532447
-0.5587627 0.1112094 0
-0.39928951493515 -0.384512984072369 0.0490144251286489
-0.513266622722612 0.112889954800592 0.119893124922264
-0.489126214016525 0.185640919428291 0.119538358704656
-0.259152292081343 0.0440654478220611 0.3789100642442
-0.245407960326946 -0.204954078389622 0.359922744676346
-0.180683400541682 -0.192176452530645 0.377065802913917
-0.395154616852728 -0.220726072915002 0.250975144485007
-0.165548000740972 0.314722820036261 0.275323834944587
-0.289639002496098 -0.139719704442702 0.366410303199486
-0.486313872880737 -0.206285651657647 0.127052511250694
-0.490400411064803 -0.249892754650887 0.0698341820897703
-0.0633086518289316 -0.388062481085634 0.241576160303396
-0.128612365686969 -0.0187861573826659 0.403484423978924
-0.313650746349173 -0.350410673912636 0.214445308035049
-0.321415077822661 -0.0651559299884932 0.362471897149073
-0.5519026 -0.1375944 0
-0.146461491798591 -0.530046953639477 0.0504715851239704
-0.378683541694971 -0.325103583057336 0.176422017798076
-0.243281796813273 0.446680676941581 0.128517264942014
-0.5665181 -0.05534892 0
-0.191109515730389 -0.25702735195967 0.344769463544707
-0.190416530231385 0.481426022966949 0.109984528433668
-0.344068942465017 0.146210225390328 0.302340839818611
-0.411731882220139 0.163507100824488 0.237565460101047
-0.528717522811639 0.150429031227517 0.0630274455191679
-0.399178071685503 -0.147137175823737 0.283647542685547
-0.438149867416741 -0.0921157936810714 0.256317752247382
-0.406069807057718 -0.26902535516381 0.199240382700677
-0.0636626125539633 0.0145967024664321 0.389803304560816
1.91358215773333e-16 0.053567458588777 0.375248661343594
-0.122611426958558 0.0430957811712064 0.395295573560255
-0.297784103581259 -0.462108682354644 0.0573472203796636
-0.282030225084382 -0.441463336932205 0.119124582881828
-0.549054036556051 -0.0110209881792956 0.0717009586696986
-0.0575294053059195 0.502719687945073 0.108031071519418
-0.353599563511147 -0.290448928896918 0.238666517108779
-0.358775602012621 -0.192460549027801 0.300744486519519
-0.287353 0.4959361 0
-0.0693117799971082 0.0875403643055549 0.380403948713152
-0.476432158523002 -0.163284901630768 0.17460925745324
-0.48172101936821 -0.101248017582824 0.193608795058201
-0.134320192515337 -0.457269243414191 0.169198018932919
-0.143184984633081 -0.498399869902848 0.109219225884878
7.52453437843599e-17 -0.46964887548598 0.144257303083484
-0.064192468663908 -0.442203776793758 0.18602692936442
-0.368793804450395 -0.0115334205095322 0.328452945069407
-0.402171479418012 0.0315671786990981 0.293201188320734
-0.315488430824012 0.0165304312700358 0.360255863341975
-0.444418330506498 -0.219911840376237 0.188124623955116
-0.448284830749713 -0.319158589725049 0.0663282456625715
-0.396450568035329 -0.353604445446937 0.113170579870631
-0.23722548012242 0.331214634802821 0.243429202884385
-0.46501923919867 0.297305785923531 0.0534574431012458
-0.102906544539086 0.533826520072646 0.0608877710162455
-0.226032944306691 0.269417718156769 0.289727923912821
-0.204938504600896 -0.320373739007428 0.298990218800659
-0.127981974438978 -0.354820735254475 0.277358491586237
-0.258615065705814 -0.0199128351357482 0.389990524846308
-0.0767254863416781 0.449087583099097 0.172196566142842
-0.139718394601664 0.405651431366934 0.208908628433749
-0.442297165296771 0.211876394768389 0.171707502606328
-0.0638117633648783 -0.266989311296107 0.328530363454829
2.18580171799791e-16 -0.232218473416839 0.332044784462656
1.43511976933989e-16 -0.297868933552313 0.299068723740303
2.75917305844399e-17 0.527954785452065 0.0688925863818979
-0.303098642545293 0.40168369418951 0.140136277999791
-0.442173516074395 -0.281039320083309 0.134786231912896
-0.210599465379117 -0.457492203354402 0.145780433850101
-0.5256875 -0.2159877 0
-0.4614737 0.3373729 0
-0.285895051972033 0.212663072967588 0.300266599655988
-0.423046468177474 -0.0279844792229244 0.279317833911646
-0.445955493603101 0.0305851460988433 0.247626412446936
-0.0724767571534478 0.237652721810985 0.327039060406371
-0.125720409708212 -0.409860731555365 0.22507048744932
-0.196398882477035 -0.416382917287353 0.205802794176886
-0.192580161748859 0.0287891771194667 0.398119329458431
-0.285575558648708 -0.310423050960858 0.273634725770536
-0.4450312 -0.3498691 0
-0.523683380486922 0.0355734341599539 0.126490466434789
-0.367061272993795 0.350875033974266 0.137002083240461
-0.171397729624205 0.519012841881288 0.0616501122569696
-0.5367618 0.1923582 0
-0.468738276423102 0.144878815867786 0.177733607483213
-0.404444512370225 0.0947715093942305 0.274280286586889
-0.211198463913428 0.211174905173357 0.326762595436635
-0.293745114018767 0.28002443391048 0.254143743231029
-0.250958058532076 -0.0889059047764487 0.391162142484647
-0.182679160492368 -0.122038675026361 0.397772253501532
-0.24029093189627 0.491219536224477 0.064743324462974
-0.397550458761235 0.232057532414106 0.208300451288881
-0.146708828311802 0.0987304224528902 0.382515406206507
-0.542204842875474 -0.0911396348853707 0.0726002985006621
-0.408771876591893 0.282349223654491 0.156543774568243
1.72085137268969e-17 -0.522590315838696 0.0703640450012383
-0.0406505098307023 0.545589190524885 0.045808767408779
-0.266799967997613 -0.406324766350173 0.182883558794482
-0.3469738 0.4567638 0
-0.261161119348115 -0.262516716605389 0.322330910779691
-0.306701888079463 -0.200282770294749 0.334514938945202
-0.231411763662785 -0.150407029138343 0.383374373440789
-0.129852952179031 -0.297314207487222 0.321025681854767
-0.229685155309181 0.396184904001633 0.191630822965849
-0.263211659294693 0.15490061569694 0.339017043363155
-0.385344396660753 -0.0798605242461703 0.313436844920606
-0.085001675252964 0.160375057591897 0.36042935136882
-0.2179509 0.5297573 0
-0.062616818488626 -0.127876121308243 0.379632918299573
-0.3481025 -0.4466615 0
-0.0666894638092567 0.384520913369354 0.232684128695245
-0.121297867308397 -0.162370223360642 0.384124074595751
-0.329634699076044 -0.250411631189633 0.290387889891927
-0.0644463752008239 -0.329520639007639 0.289506481775809
1.45217698317751e-16 -0.359481682139157 0.256672813897063
-0.16651538979251 0.447365738585505 0.161639635508291
-0.124208212131772 0.491633194344119 0.118302167211206
-0.299193972635303 0.0922998557535084 0.348814241091561
-0.06839787 0.5693324 0
-0.441692467833399 -0.15899950147957 0.229305399294445
-0.1459664 0.5540397 0
-0.0621813839419591 -0.199067833454067 0.358839378757485
-0.5687363 0.02701634 0
9.41481362192178e-17 0.416350157381108 0.200675346396798
-0.064126691235569 -0.0562580491796492 0.390068126323622
-0.48953508121571 0.023742986686093 0.189429646467798
-0.123552256514709 -0.232587032786223 0.357257155856623
-0.147054848708124 0.261309452048043 0.310845452999392
7.29542210769491e-17 0.472004512893625 0.141150645133337
-0.07314713 -0.5603097 0
1.86744318575383e-16 -0.0917547675375178 0.37017673869967
1.96323627026458e-16 0.200573458880438 0.341132497292368
1.84529692059804e-16 -0.0203205440493783 0.376367147605042
-0.181422620885506 -0.374263290221388 0.254603451277308
1.44765525680773e-16 0.348498639924667 0.258466111563973
1.6989705815119e-16 0.276764153980817 0.304907895375966
-0.403703 0.4057092 0
-0.3983695 -0.4019898 0
-0.1456375 -0.5454938 0
-0.414545411826684 0.35771164488545 0.0641254374855214
0.354734572461359 0.28966403214967 0.204906333672685
0.351268643749984 0.217931609434557 0.258180428799069
0.137500944855965 0.20526053193653 0.340261480331393
0.191633368047974 -0.0501725406483642 0.404927622142453
0.346564327836584 -0.135200465130227 0.333261867154048
0.124914004021747 -0.089990298552106 0.400089657844846
0.0665728121400671 -0.4903599296575 0.125323091742725
0.0628836797448307 -0.532953006246572 0.0592075595665416
0.244714852718607 -0.365034917458861 0.243352656078763
0.347105865402622 -0.415843971380707 0.0836733277895883
0.334311205004805 -0.385450924368921 0.150905230673314
0.2756534 -0.4944831 0
0.225771838561777 -0.493726592488765 0.0745594124775037
0.2087998 -0.5251421 0
0.122600388743963 0.356397473242026 0.251475083052428
0.224214301837894 0.0982781415083878 0.373281024312864
0.178875656728529 0.155774190052115 0.359046824940961
0.0788601035716007 0.311989730871382 0.285664832672731
0.301756129191637 0.452665355175268 0.0722929567218992
0.183388818677342 0.363394199085188 0.234933572618298
0.299314447316474 0.346322486042693 0.198769539989551
0.357059371378676 0.408157840945994 0.0760315445387832
0.523671933448687 -0.172574012614935 0.0683838663742754
0.511242748703574 -0.127892186062689 0.129664471487753
0.51707613000773 -0.0446263483488466 0.144423362840082
0.4884344 -0.2880939 0
0.472134421706889 -0.0358981703317366 0.21888728914412
0.357405162104022 0.066251795941228 0.322331237431465
0.501098218827526 0.225328868590094 0.0610755686488705
0.5042845 0.2674346 0
0.458629104289771 0.256075701325648 0.11118065576314
0.423235383269298 0.316414542040829 0.10207026104376
0.453731846760145 0.0930891641786345 0.221006057336633
0.492685495803078 0.0821866958049136 0.168583498339173
0.545615387316528 0.0706336828237326 0.0651287824532448
0.5587627 0.1112094 0
0.39928951493515 -0.384512984072369 0.049014425128649
0.513266622722612 0.112889954800592 0.119893124922264
0.489126214016526 0.185640919428291 0.119538358704656
0.259152292081344 0.0440654478220611 0.378910064244201
0.245407960326947 -0.204954078389623 0.359922744676346
0.180683400541683 -0.192176452530645 0.377065802913917
0.395154616852729 -0.220726072915002 0.250975144485008
0.165548000740973 0.314722820036261 0.275323834944587
0.289639002496099 -0.139719704442702 0.366410303199486
0.486313872880737 -0.206285651657647 0.127052511250694
0.490400411064803 -0.249892754650887 0.0698341820897703
0.0633086518289319 -0.388062481085634 0.241576160303396
0.12861236568697 -0.0187861573826659 0.403484423978924
0.313650746349173 -0.350410673912637 0.21444530803505
0.321415077822662 -0.0651559299884932 0.362471897149074
0.5519026 -0.1375944 0
0.146461491798591 -0.530046953639477 0.0504715851239705
0.378683541694972 -0.325103583057336 0.176422017798076
0.243281796813273 0.446680676941581 0.128517264942014
0.5665181 -0.05534892 0
0.191109515730389 -0.25702735195967 0.344769463544707
0.190416530231385 0.481426022966949 0.109984528433668
0.344068942465017 0.146210225390328 0.302340839818611
0.411731882220139 0.163507100824488 0.237565460101047
0.528717522811639 0.150429031227517 0.0630274455191679
0.399178071685504 -0.147137175823737 0.283647542685547
0.438149867416741 -0.0921157936810715 0.256317752247382
0.406069807057718 -0.269025355163811 0.199240382700677
0.0636626125539638 0.0145967024664321 0.389803304560816
0.122611426958558 0.0430957811712064 0.395295573560255
0.297784103581259 -0.462108682354644 0.0573472203796636
0.282030225084382 -0.441463336932205 0.119124582881828
0.549054036556052 -0.0110209881792956 0.0717009586696986
0.0575294053059195 0.502719687945073 0.108031071519418
0.353599563511148 -0.290448928896918 0.238666517108779
0.358775602012621 -0.192460549027801 0.30074448651952
0.287353 0.4959361 0
0.0693117799971086 0.0875403643055548 0.380403948713152
0.476432158523003 -0.163284901630768 0.17460925745324
0.481721019368211 -0.101248017582824 0.193608795058201
0.134320192515337 -0.457269243414191 0.16919801893292
0.143184984633081 -0.498399869902848 0.109219225884878
0.0641924686639082 -0.442203776793758 0.18602692936442
0.368793804450395 -0.0115334205095322 0.328452945069407
0.402171479418012 0.031567178699098 0.293201188320734
0.315488430824012 0.0165304312700358 0.360255863341975
0.444418330506498 -0.219911840376237 0.188124623955116
0.448284830749713 -0.319158589725049 0.0663282456625715
0.396450568035329 -0.353604445446937 0.113170579870631
0.237225480122421 0.331214634802821 0.243429202884385
0.46501923919867 0.297305785923531 0.0534574431012459
0.102906544539086 0.533826520072646 0.0608877710162456
0.226032944306691 0.269417718156769 0.289727923912821
0.204938504600897 -0.320373739007429 0.298990218800659
0.127981974438978 -0.354820735254475 0.277358491586237
0.258615065705814 -0.0199128351357482 0.389990524846308
0.0767254863416783 0.449087583099097 0.172196566142842
0.139718394601664 0.405651431366934 0.208908628433749
0.442297165296771 0.211876394768389 0.171707502606328
0.0638117633648787 -0.266989311296107 0.328530363454829
0.303098642545293 0.40168369418951 0.140136277999791
0.442173516074396 -0.281039320083309 0.134786231912896
0.210599465379117 -0.457492203354402 0.145780433850102
0.5256875 -0.2159877 0
0.4614737 0.3373729 0
0.285895051972033 0.212663072967588 0.300266599655988
0.423046468177475 -0.0279844792229245 0.279317833911646
0.445955493603101 0.0305851460988433 0.247626412446936
0.0724767571534483 0.237652721810985 0.327039060406371
0.125720409708212 -0.409860731555366 0.225070487449321
0.196398882477035 -0.416382917287353 0.205802794176887
0.19258016174886 0.0287891771194667 0.398119329458431
0.285575558648708 -0.310423050960858 0.273634725770536
0.4450312 -0.3498691 0
0.523683380486922 0.0355734341599539 0.126490466434789
0.367061272993795 0.350875033974266 0.137002083240461
0.171397729624205 0.519012841881288 0.0616501122569696
0.5367618 0.1923582 0
0.468738276423102 0.144878815867786 0.177733607483213
0.404444512370226 0.0947715093942305 0.274280286586889
0.211198463913428 0.211174905173357 0.326762595436635
0.293745114018768 0.28002443391048 0.254143743231029
0.250958058532077 -0.0889059047764487 0.391162142484647
0.182679160492368 -0.122038675026361 0.397772253501532
0.24029093189627 0.491219536224477 0.064743324462974
0.397550458761236 0.232057532414106 0.208300451288882
0.146708828311802 0.0987304224528902 0.382515406206507
0.542204842875475 -0.0911396348853708 0.0726002985006621
0.408771876591893 0.282349223654491 0.156543774568243
0.0406505098307023 0.545589190524885 0.045808767408779
0.266799967997613 -0.406324766350173 0.182883558794482
0.3469738 0.4567638 0
0.261161119348115 -0.262516716605389 0.322330910779691
0.306701888079464 -0.20028277029475 0.334514938945203
0.231411763662786 -0.150407029138343 0.383374373440789
0.129852952179032 -0.297314207487222 0.321025681854767
0.229685155309181 0.396184904001633 0.191630822965849
0.263211659294693 0.15490061569694 0.339017043363155
0.385344396660754 -0.0798605242461704 0.313436844920607
0.0850016752529645 0.160375057591897 0.36042935136882
0.2179509 0.5297573 0
0.0626168184886266 -0.127876121308243 0.379632918299573
0 0.575 0
0.3481025 -0.4466615 0
0.0666894638092571 0.384520913369354 0.232684128695245
0.121297867308398 -0.162370223360642 0.384124074595751
0.329634699076045 -0.250411631189633 0.290387889891927
0.0644463752008243 -0.329520639007639 0.289506481775809
0.16651538979251 0.447365738585505 0.161639635508291
0.124208212131772 0.491633194344119 0.118302167211206
0.299193972635303 0.0922998557535083 0.348814241091561
0.06839787 0.5693324 0
0.4416924678334 -0.15899950147957 0.229305399294445
0.1459664 0.5540397 0
0.0621813839419596 -0.199067833454067 0.358839378757485
0.5687363 0.02701634 0
0 -0.5663709 0
0.0641266912355695 -0.0562580491796492 0.390068126323622
0.48953508121571 0.023742986686093 0.189429646467798
0.123552256514709 -0.232587032786223 0.357257155856624
0.147054848708124 0.261309452048043 0.310845452999392
0.07314713 -0.5603097 0
2.14164465076676e-16 -0.163172493063236 0.355660819786252
1.97990838789058e-16 0.128353039054265 0.364089495324278
0.181422620885506 -0.374263290221388 0.254603451277308
1.3148942161872e-16 -0.416788213060662 0.204821140697073
0.403703 0.4057092 0
0.3983695 -0.4019898 0
0.1456375 -0.5454938 0
0.414545411826684 0.35771164488545 0.0641254374855215
3 0 1 122
3 78 52 7
3 101 21 116
3 45 23 22
3 152 58 27
3 136 124 123
3 60 118 35
3 53 63 102
3 28 29 118
3 66 64 74
3 102 85 86
3 26 160 24
3 97 99 98
3 41 136 40
3 125 18 54
3 9 10 86
3 22 104 46
3 46 102 45
3 111 77 110
3 54 57 125
3 80 47 110
3 116 129 0
3 9 67 68
3 106 122 1
3 59 126 96
3 72 42 147
3 71 53 49
3 51 22 128
3 129 31 30
3 68 10 9
3 53 102 86
3 35 34 60
3 44 123 50
3 40 56 41
3 30 38 96
3 111 8 132
3 25 114 85
3 49 113 71
3 33 115 160
3 138 54 101
3 46 85 102
3 68 67 12
3 145 95 14
3 81 82 107
3 2 16 141
3 147 71 113
3 95 94 150
3 89 117 151
3 12 11 13
3 32 59 119
3 139 16 121
3 128 55 51
3 24 23 76
3 36 114 172
3 117 89 155
3 143 5 146
3 45 84 75
3 28 118 60
3 45 75 23
3 22 51 104
3 60 34 37
3 88 28 30
3 145 169 158
3 122 106 90
3 94 151 150
3 162 17 43
3 71 147 42
3 140 107 62
3 112 39 93
3 103 12 78
3 64 48 159
3 4 72 135
3 151 94 70
3 68 12 103
3 86 85 36
3 154 62 76
3 31 129 116
3 37 34 115
3 161 97 156
3 149 148 47
3 83 50 93
3 121 2 162
3 81 107 140
3 1 126 59
3 20 122 87
3 163 94 158
3 115 33 37
3 32 120 59
3 89 131 153
3 89 153 155
3 29 88 105
3 23 24 128
3 154 61 62
3 128 24 69
3 125 57 117
3 34 35 157
3 327 7 164
3 63 42 84
3 70 100 131
3 106 139 121
3 43 19 87
3 14 95 19
3 93 3 112
3 108 107 82
3 141 74 334
3 64 65 74
3 6 79 80
3 156 143 146
3 138 20 87
3 26 107 108
3 0 20 116
3 8 111 168
3 119 38 37
3 129 96 126
3 108 160 26
3 10 53 86
3 132 103 111
3 62 26 76
3 117 155 142
3 119 33 32
3 144 9 36
3 86 36 9
3 76 75 154
3 55 128 69
3 29 28 88
3 130 6 7
3 23 75 76
3 53 10 49
3 164 7 52
3 114 36 85
3 45 22 46
3 25 85 46
3 4 44 50
3 152 39 15
3 121 162 90
3 137 97 161
3 139 15 16
3 19 138 87
3 150 54 138
3 333 143 156
3 141 334 166
3 107 26 62
3 115 24 160
3 136 41 124
3 1 59 58
3 42 72 61
3 138 19 95
3 77 6 80
3 113 49 8
3 78 6 77
3 7 6 78
3 120 108 82
3 70 163 100
3 127 66 74
3 151 70 89
3 84 154 75
3 115 69 24
3 42 61 154
3 67 11 12
3 10 68 132
3 123 124 3
3 161 146 41
3 97 148 99
3 143 165 159
3 139 58 152
3 156 98 333
3 113 8 91
3 120 58 59
3 53 71 63
3 92 91 168
3 4 140 61
3 62 61 140
3 27 82 81
3 57 150 151
3 119 96 38
3 108 32 160
3 24 76 26
3 103 77 111
3 154 84 42
3 327 130 7
3 49 132 8
3 69 34 157
3 30 28 38
3 125 73 18
3 9 144 67
3 103 132 68
3 141 16 127
3 34 69 115
3 45 102 84
3 128 22 23
3 83 152 27
3 3 93 123
3 109 166 170
3 43 90 162
3 44 40 136
3 148 97 137
3 92 47 148
3 148 137 92
3 20 138 101
3 8 168 91
3 32 108 120
3 163 70 94
3 101 116 20
3 16 2 121
3 48 64 66
3 52 78 12
3 52 12 13
3 80 110 77
3 80 79 336
3 49 10 132
3 103 78 77
3 117 57 151
3 63 71 42
3 60 38 28
3 160 32 33
3 30 96 129
3 3 48 112
3 83 93 39
3 56 40 134
3 146 124 41
3 92 110 47
3 138 95 150
3 81 50 83
3 96 119 59
3 167 159 165
3 94 95 145
3 44 135 40
3 112 66 127
3 0 129 126
3 134 147 113
3 27 120 82
3 141 166 109
3 73 133 18
3 72 4 61
3 97 98 156
3 142 73 125
3 125 117 142
3 88 174 105
3 37 33 119
3 67 144 11
3 84 102 63
3 54 150 57
3 333 165 143
3 87 90 43
3 123 44 136
3 113 91 134
3 134 40 135
3 137 91 92
3 127 16 15
3 5 159 48
3 2 109 162
3 159 5 143
3 161 41 56
3 90 87 122
3 39 112 15
3 4 135 44
3 120 27 58
3 168 110 92
3 145 158 94
3 168 111 110
3 112 48 66
3 162 109 17
3 91 137 56
3 50 140 4
3 146 5 124
3 27 81 83
3 56 137 161
3 50 81 140
3 14 19 43
3 127 15 112
3 58 106 1
3 167 64 159
3 91 56 134
3 147 134 135
3 17 14 43
3 139 106 58
3 2 141 109
3 83 39 152
3 3 5 48
3 15 139 152
3 161 156 146
3 106 121 90
3 70 131 89
3 50 123 93
3 153 131 313
3 135 72 147
3 127 74 141
3 122 20 0
3 17 170 169
3 3 124 5
3 21 171 174
3 145 14 17
3 313 131 100
3 74 65 334
3 1 0 126
3 88 30 31
3 47 336 149
3 47 80 336
3 17 169 145
3 79 6 130
3 148 149 99
3 60 37 38
3 65 64 167
3 69 157 55
3 170 17 109
3 25 46 104
3 101 54 18
3 172 144 36
3 52 13 173
3 21 101 18
3 21 18 133
3 174 31 116
3 173 164 52
3 88 31 174
3 21 133 171
3 174 116 21
3 174 171 105
3 175 292 176
3 252 182 227
3 271 286 196
3 220 197 198
3 321 202 233
3 305 293 294
3 235 210 288
3 228 272 238
3 203 288 204
3 240 248 239
3 272 259 258
3 201 199 329
3 270 98 99
3 216 215 305
3 295 229 193
3 184 259 185
3 197 221 274
3 221 220 272
3 281 280 251
3 229 295 232
3 253 280 222
3 286 175 299
3 184 242 241
3 276 176 292
3 234 269 296
3 246 317 217
3 245 224 228
3 226 298 197
3 299 205 206
3 242 184 185
3 228 259 272
3 210 235 209
3 219 225 293
3 215 216 231
3 205 269 213
3 281 301 183
3 200 258 284
3 224 245 283
3 208 329 285
3 307 271 229
3 221 272 258
3 242 187 241
3 315 189 268
3 254 277 255
3 177 310 191
3 317 283 245
3 268 319 267
3 262 320 287
3 187 188 186
3 207 289 234
3 308 291 191
3 298 226 230
3 199 250 198
3 211 338 284
3 287 324 262
3 312 316 180
3 220 249 257
3 203 235 288
3 220 198 249
3 197 274 226
3 235 212 209
3 261 205 203
3 315 158 169
3 292 263 276
3 267 319 320
3 331 218 192
3 245 217 317
3 309 237 277
3 282 266 214
3 273 252 187
3 239 328 223
3 179 304 246
3 320 244 267
3 242 273 187
3 259 211 258
3 323 250 237
3 206 286 299
3 212 285 209
3 330 325 270
3 149 222 318
3 256 266 225
3 291 331 177
3 254 309 277
3 176 234 296
3 195 260 292
3 163 158 267
3 285 212 208
3 207 234 290
3 262 322 300
3 262 324 322
3 204 275 261
3 198 298 199
3 323 237 236
3 298 243 199
3 295 287 232
3 209 326 210
3 327 332 182
3 238 257 217
3 244 300 100
3 276 291 308
3 218 260 194
3 189 194 268
3 266 282 178
3 278 255 277
3 310 334 248
3 239 248 65
3 181 253 79
3 325 316 312
3 307 260 195
3 201 278 277
3 175 286 195
3 183 335 281
3 289 212 213
3 299 296 269
3 278 201 329
3 185 259 228
3 301 281 273
3 237 250 201
3 287 311 324
3 289 207 208
3 314 211 184
3 259 184 211
3 250 323 249
3 230 243 298
3 204 261 203
3 130 182 181
3 198 250 249
3 228 224 185
3 332 227 182
3 284 258 211
3 220 221 197
3 200 221 258
3 179 225 219
3 321 190 214
3 291 263 331
3 306 330 270
3 308 191 190
3 194 260 307
3 319 307 229
3 333 325 312
3 310 166 334
3 277 237 201
3 285 329 199
3 305 294 216
3 176 233 234
3 217 236 246
3 307 268 194
3 251 253 181
3 283 183 224
3 252 251 181
3 182 252 181
3 290 255 278
3 244 100 163
3 297 248 240
3 320 262 244
3 257 249 323
3 285 199 243
3 217 323 236
3 241 187 186
3 185 301 242
3 293 178 294
3 330 216 316
3 270 99 318
3 312 328 165
3 308 321 233
3 325 333 98
3 283 264 183
3 290 234 233
3 228 238 245
3 265 335 264
3 179 236 309
3 237 309 236
3 202 254 255
3 232 320 319
3 289 213 269
3 278 329 207
3 199 201 250
3 273 281 251
3 323 217 257
3 327 182 130
3 224 183 301
3 243 326 209
3 205 213 203
3 295 193 247
3 184 241 314
3 273 242 301
3 310 297 191
3 209 285 243
3 220 257 272
3 298 198 197
3 256 202 321
3 178 293 266
3 279 170 166
3 218 331 263
3 219 305 215
3 318 306 270
3 265 318 222
3 318 265 306
3 195 271 307
3 183 264 335
3 207 290 278
3 163 267 244
3 271 195 286
3 191 291 177
3 223 240 239
3 227 187 252
3 227 188 187
3 253 251 280
3 253 336 79
3 224 301 185
3 273 251 252
3 287 320 232
3 238 217 245
3 235 203 213
3 329 208 207
3 205 299 269
3 178 282 223
3 256 214 266
3 231 303 215
3 316 216 294
3 265 222 280
3 307 319 268
3 254 256 225
3 269 234 289
3 167 165 328
3 267 315 268
3 219 215 304
3 282 297 240
3 175 296 299
3 303 283 317
3 202 255 290
3 310 279 166
3 247 193 302
3 246 236 179
3 270 325 98
3 311 295 247
3 295 311 287
3 261 275 340
3 212 289 208
3 241 186 314
3 257 238 272
3 229 232 319
3 333 312 165
3 260 218 263
3 293 305 219
3 283 303 264
3 303 304 215
3 306 265 264
3 297 190 191
3 180 223 328
3 177 331 279
3 328 312 180
3 330 231 216
3 263 292 260
3 214 190 282
3 179 219 304
3 290 233 202
3 335 265 280
3 315 267 158
3 335 280 281
3 282 240 223
3 331 192 279
3 264 231 306
3 225 179 309
3 316 294 180
3 202 256 254
3 231 330 306
3 225 309 254
3 189 218 194
3 297 282 190
3 233 176 276
3 167 328 239
3 264 303 231
3 317 304 303
3 192 218 189
3 308 233 276
3 177 279 310
3 256 321 214
3 178 223 180
3 190 321 308
3 330 316 325
3 276 263 291
3 244 262 300
3 225 266 293
3 322 313 300
3 304 317 246
3 297 310 248
3 292 175 195
3 192 169 170
3 178 180 294
3 196 340 337
3 315 192 189
3 313 100 300
3 248 334 65
3 176 296 175
3 261 206 205
3 222 149 336
3 222 336 253
3 192 315 169
3 79 130 181
3 318 99 149
3 235 213 212
3 65 167 239
3 243 230 326
3 170 279 192
3 200 274 221
3 271 193 229
3 338 211 314
3 227 339 188
3 196 193 271
3 196 302 193
3 340 286 206
3 339 227 332
3 261 340 206
3 196 337 302
3 340 196 286
3 340 275 337
