OFF
341 634 0
-0.351646557685681 0.289999743270378 0.201526426153728
-0.345694572409457 0.217819964514422 0.253002563059091
-0.128168569839501 0.201631695946654 0.310625985714665
-0.169743613392295 -0.0471790206165359 0.378841010363243
-0.330991589681863 -0.13300050750458 0.324978283350197
-0.102999434884347 -0.0844112895283567 0.361882436057806
-0.0627704993566854 -0.48556890127235 0.114565050196745
-0.0616376319273454 -0.53329734750037 0.0566818911358745
-0.23444014350768 -0.36102631757236 0.235071152971968
-0.344940556044285 -0.41519704189681 0.0828585152149181
-0.329502685100368 -0.383975073049898 0.148745549368969
-0.2756534 -0.4944831 0
-0.224512894098023 -0.493927133081841 0.0736190447319433
-0.2087998 -0.5251421 0
-0.117005767012663 0.351703838427027 0.231841103273774
-0.209376795498351 0.0979416930106305 0.35405398262416
-0.166681315069595 0.154151911402431 0.334911619138234
-0.073199940451666 0.303558442341988 0.253028306138845
-0.301727482168104 0.453836868798179 0.0717973397346539
-0.178654454370638 0.362109391906202 0.223826280402554
-0.296582788889827 0.346941750199042 0.194729685923529
-0.356950798943281 0.409027167520896 0.0755156363226353
-0.52096645706843 -0.172130298786036 0.0680367249911141
-0.506414156360112 -0.12738817248834 0.128828361731638
-0.512126971330685 -0.0445246699289125 0.143470162322122
-0.4884344 -0.2880939 0
-0.464498344291575 -0.0356910059281561 0.216720045681273
-0.346017558921871 0.0661922637394381 0.315110451668868
-0.500268837300271 0.225256931742642 0.0607322272732631
-0.5042845 0.2674346 0
-0.45723221852879 0.256122019418516 0.110315710799234
-0.422381581903294 0.316770673820509 0.101228953342946
-0.44763626948177 0.0927913633567224 0.218556251068336
-0.48812980068174 0.0818921123089712 0.167190201688487
-0.54380177910436 0.0704400844477621 0.0648037236239967
-0.5587627 0.1112094 0
-0.397870492624105 -0.383990184932517 0.0486314418716265
-0.510360088897962 0.112589590367189 0.11908837656166
-0.48693763231314 0.185428241007682 0.118662603518467
-0.242561259793879 0.0444918799972674 0.362822015486549
-0.225972145402397 -0.199924245242662 0.343466553779703
-0.159233135509925 -0.185478471301398 0.351489334731626
-0.384734506482333 -0.218687712828001 0.247054055953396
-0.159262137201728 0.312085563589714 0.258363744574622
-0.270768476222886 -0.136521402735746 0.353171565375837
-0.481513869238596 -0.205391045724647 0.126159521692715
-0.487731965035899 -0.249209676227534 0.0694317528953612
-0.0545016322215147 -0.374260306007141 0.210233603569361
-0.107919295633764 -0.0158505417131769 0.366116990151322
-0.305438351257602 -0.347824882898746 0.209984542681292
-0.304357924768389 -0.0635699275776253 0.351729870112208
-0.5519026 -0.1375944 0
-0.14581706269697 -0.530719829033804 0.0497249388523966
-0.372324391707601 -0.323315176542724 0.174092658649651
-0.24213671619251 0.447972286864173 0.126439135114564
-0.5665181 -0.05534892 0
-0.172291103093504 -0.249945449316168 0.32376374165337
-0.189271476852428 0.482665663681282 0.107867949980452
-0.335401592463032 0.145917529072541 0.295444343009737
-0.406163837222812 0.163257763713825 0.234269425907051
-0.527412865462695 0.15023175827897 0.0626918967885186
-0.387150250247617 -0.14551774141422 0.278888378797757
-0.428204008779454 -0.0913144082349392 0.253032960629283
-0.398393529421399 -0.26721682429756 0.196697743316538
-0.0488181043775993 0.0167308180847529 0.335014923462815
2.21637139760168e-16 0.0523311786239094 0.290056257832635
-0.104923980442914 0.0438357345207379 0.357131078663496
-0.29662263491016 -0.461934084917844 0.0567624050252241
-0.278936451265695 -0.440682108158714 0.117352385782781
-0.546636505651325 -0.0110840315835594 0.0713554478916934
-0.0549128426931518 0.500423910743184 0.100504679649023
-0.343824825300424 -0.287876074463188 0.234217148459349
-0.345154464817647 -0.189949838023476 0.294185906083103
-0.287353 0.4959361 0
-0.0575627480851962 0.0857131376638728 0.32872318417022
-0.469816350690289 -0.16237310230967 0.173114340092965
-0.474590727005336 -0.100683717373531 0.191903570274039
-0.128398748362976 -0.453534293612807 0.160160665476391
-0.140529275109879 -0.498079634898949 0.105969689712291
8.20505127761436e-17 -0.450127301397941 0.111910035056375
-0.0579282757931255 -0.431966045998733 0.164778818500925
-0.355528086404905 -0.0110048769010545 0.321383733684477
-0.391883481572738 0.0315930621826276 0.288250464808222
-0.300196024665822 0.0170529173016677 0.349385995550987
-0.437195186676256 -0.218529132196799 0.186204141788103
-0.445981422396865 -0.318401609216857 0.0658790097743548
-0.392798641621709 -0.352462188447711 0.112075425925599
-0.232628985183641 0.330925638160884 0.235006574468694
-0.464653452979546 0.297459024473102 0.0531564650013496
-0.102210385847303 0.534868457130187 0.0596369094201736
-0.219259719871667 0.26834340225431 0.276914229916327
-0.190054833993708 -0.314085215597607 0.283809426810094
-0.11477905125441 -0.345614346669068 0.254659809175123
-0.239477109862834 -0.0184257138352691 0.373093543902872
-0.0725558084665739 0.444525098196757 0.158493927249787
-0.135243923361958 0.403529432712587 0.197280564750236
-0.439260522991554 0.211768969805507 0.169952136254602
-0.0499190365284936 -0.252408657550395 0.282116638986553
2.13610307395897e-16 -0.209087515285427 0.252259948893105
1.66353877792162e-16 -0.271435268207379 0.227371176800777
3.13161728280238e-17 0.518211165476894 0.0543711716323973
-0.301958047276548 0.402784318229815 0.138198280777582
-0.437287195537285 -0.27977971088625 0.133621104945786
-0.206419242471835 -0.456283354899996 0.142122167002101
-0.5256875 -0.2159877 0
-0.4614737 0.3373729 0
-0.278258281805397 0.212217389782526 0.290711486597748
-0.412620234385731 -0.0276123456925858 0.275229075674779
-0.437902864028971 0.0304897485665293 0.244603963703514
-0.066491637001067 0.22959912452746 0.284763149230026
-0.116259012906271 -0.402559853396334 0.208603169654864
-0.18851691138748 -0.412710219629594 0.197637759134661
-0.173438224680973 0.0297608974479423 0.372984488376518
-0.273253872676302 -0.306498880331388 0.265500903952675
-0.4450312 -0.3498691 0
-0.519909501222297 0.0353721681382395 0.125679980546497
-0.365923455853587 0.351599239577924 0.13548618890108
-0.171127714042779 0.520396652324412 0.0609664155254543
-0.5367618 0.1923582 0
-0.464705442888395 0.144576615808332 0.176074007067839
-0.396229927627545 0.0945157387353854 0.269924620686821
-0.201963810609347 0.209689927828169 0.309392246034839
-0.288833501221475 0.280010783836095 0.247389952646233
-0.230184847056191 -0.0859527345046819 0.373222135555009
-0.160069480780975 -0.116960294274836 0.370671889905349
-0.240231082638789 0.492571054369105 0.0642350856698723
-0.393793353960357 0.232079973112175 0.20539624819606
-0.131516542464496 0.0978419497221467 0.350716145099942
-0.539457171953306 -0.0909577653631544 0.0722486043543162
-0.406790966409765 0.282618391376426 0.154819678514192
2.35784574185541e-17 -0.512157250925062 0.0549476504016944
-0.0397625566395467 0.545724413230093 0.0435748919114103
-0.260564925911702 -0.404201392925145 0.178680444364955
-0.3469738 0.4567638 0
-0.24487160309643 -0.257618642309705 0.309816912379756
-0.29010460819629 -0.196723015130874 0.324097229550126
-0.210208548662415 -0.14584229369911 0.363742719289992
-0.113168292787203 -0.287517746626586 0.293224114326709
-0.226839404136814 0.396746316272017 0.186425752832067
-0.2522985994952 0.154303007914914 0.325766601527923
-0.372079374125926 -0.0787296722481185 0.307419190829328
-0.0757418254937083 0.155796976746302 0.31641606287059
-0.2179509 0.5297573 0
-0.0458744784623925 -0.118296077739168 0.324984887109541
-0.3481025 -0.4466615 0
-0.0618635857123821 0.375382307615147 0.206549847315396
-0.0999923001634152 -0.154285251437632 0.346618735363519
-0.316379213704808 -0.247174094174916 0.28323396393695
-0.0529050603205474 -0.314536513724634 0.250041156427719
1.40786772642978e-16 -0.332247038173582 0.195931449844449
-0.163788805186896 0.447620371295615 0.156281637664274
-0.122168211332494 0.491959654548382 0.114331997619682
-0.286396241021622 0.0921560696907867 0.337575854731218
-0.06839787 0.5693324 0
-0.43263687107711 -0.157773067054822 0.226605090240578
-0.1459664 0.5540397 0
-0.0465949149837136 -0.186342619490669 0.306883360776862
-0.5687363 0.02701634 0
8.54980379466206e-17 0.395661457333506 0.159686438454516
-0.0472833280539936 -0.0503662089497105 0.335132897657834
-0.48364734531072 0.0235999877875806 0.18779782022629
-0.104088385344767 -0.222950918390793 0.323530036929452
-0.139445698154452 0.257634597526215 0.286763421954072
6.86651294917886e-17 0.454914096469075 0.11211905129538
-0.07314713 -0.5603097 0
2.24384452737204e-16 -0.0798018732907062 0.282753898442385
1.98702237181726e-16 0.187627298403895 0.271385748068441
2.28475127282859e-16 -0.0147646015256236 0.288773731392226
-0.169928669262612 -0.368268018850317 0.240996669294385
1.34288499187896e-16 0.327654791821787 0.20603167773447
1.68477082541701e-16 0.258806283882154 0.243490563157836
-0.403703 0.4057092 0
-0.3983695 -0.4019898 0
-0.1456375 -0.5454938 0
-0.4143589027461 0.358182710471549 0.0637382924713049
0.351646557685681 0.289999743270378 0.201526426153729
0.345694572409458 0.217819964514422 0.253002563059092
0.128168569839502 0.201631695946654 0.310625985714665
0.169743613392296 -0.0471790206165359 0.378841010363244
0.330991589681864 -0.13300050750458 0.324978283350198
0.102999434884347 -0.0844112895283567 0.361882436057806
0.0627704993566855 -0.48556890127235 0.114565050196745
0.0616376319273455 -0.53329734750037 0.0566818911358744
0.23444014350768 -0.36102631757236 0.235071152971968
0.344940556044285 -0.41519704189681 0.082858515214918
0.329502685100368 -0.383975073049898 0.148745549368969
0.2756534 -0.4944831 0
0.224512894098023 -0.493927133081841 0.0736190447319434
0.2087998 -0.5251421 0
0.117005767012663 0.351703838427027 0.231841103273774
0.209376795498351 0.0979416930106304 0.354053982624161
0.166681315069595 0.154151911402431 0.334911619138235
0.0731999404516663 0.303558442341988 0.253028306138845
0.301727482168104 0.453836868798179 0.0717973397346539
0.178654454370638 0.362109391906202 0.223826280402554
0.296582788889827 0.346941750199042 0.194729685923529
0.356950798943281 0.409027167520896 0.0755156363226352
0.52096645706843 -0.172130298786036 0.0680367249911141
0.506414156360112 -0.12738817248834 0.128828361731638
0.512126971330686 -0.0445246699289125 0.143470162322122
0.4884344 -0.2880939 0
0.464498344291576 -0.0356910059281561 0.216720045681273
0.346017558921871 0.066192263739438 0.315110451668868
0.500268837300271 0.225256931742642 0.0607322272732631
0.5042845 0.2674346 0
0.45723221852879 0.256122019418516 0.110315710799234
0.422381581903295 0.316770673820509 0.101228953342946
0.44763626948177 0.0927913633567224 0.218556251068336
0.48812980068174 0.0818921123089711 0.167190201688487
0.54380177910436 0.0704400844477621 0.0648037236239968
0.5587627 0.1112094 0
0.397870492624105 -0.383990184932517 0.0486314418716266
0.510360088897962 0.112589590367189 0.11908837656166
0.486937632313141 0.185428241007682 0.118662603518467
0.24256125979388 0.0444918799972673 0.36282201548655
0.225972145402398 -0.199924245242662 0.343466553779703
0.159233135509925 -0.185478471301398 0.351489334731626
0.384734506482333 -0.218687712828001 0.247054055953396
0.159262137201728 0.312085563589715 0.258363744574622
0.270768476222887 -0.136521402735746 0.353171565375837
0.481513869238596 -0.205391045724647 0.126159521692715
0.487731965035899 -0.249209676227534 0.0694317528953612
0.054501632221515 -0.374260306007141 0.210233603569361
0.107919295633764 -0.0158505417131769 0.366116990151322
0.305438351257602 -0.347824882898747 0.209984542681292
0.30435792476839 -0.0635699275776254 0.351729870112208
0.5519026 -0.1375944 0
0.14581706269697 -0.530719829033804 0.0497249388523966
0.372324391707601 -0.323315176542724 0.174092658649651
0.242136716192511 0.447972286864173 0.126439135114564
0.5665181 -0.05534892 0
0.172291103093504 -0.249945449316168 0.323763741653371
0.189271476852428 0.482665663681282 0.107867949980452
0.335401592463033 0.145917529072541 0.295444343009737
0.406163837222812 0.163257763713825 0.234269425907052
0.527412865462695 0.15023175827897 0.0626918967885186
0.387150250247617 -0.14551774141422 0.278888378797757
0.428204008779454 -0.0913144082349392 0.253032960629283
0.398393529421399 -0.26721682429756 0.196697743316538
0.0488181043775998 0.0167308180847529 0.335014923462815
0.104923980442915 0.0438357345207379 0.357131078663496
0.29662263491016 -0.461934084917844 0.0567624050252241
0.278936451265695 -0.440682108158714 0.117352385782781
0.546636505651325 -0.0110840315835594 0.0713554478916934
0.0549128426931519 0.500423910743184 0.100504679649023
0.343824825300424 -0.287876074463188 0.234217148459349
0.345154464817647 -0.189949838023476 0.294185906083104
0.287353 0.4959361 0
0.0575627480851967 0.0857131376638728 0.32872318417022
0.469816350690289 -0.16237310230967 0.173114340092966
0.474590727005336 -0.100683717373532 0.191903570274039
0.128398748362976 -0.453534293612807 0.160160665476391
0.140529275109879 -0.498079634898949 0.105969689712291
0.0579282757931257 -0.431966045998733 0.164778818500925
0.355528086404905 -0.0110048769010546 0.321383733684478
0.391883481572738 0.0315930621826275 0.288250464808223
0.300196024665823 0.0170529173016676 0.349385995550987
0.437195186676256 -0.218529132196799 0.186204141788103
0.445981422396865 -0.318401609216857 0.0658790097743548
0.39279864162171 -0.352462188447711 0.112075425925599
0.232628985183641 0.330925638160885 0.235006574468694
0.464653452979546 0.297459024473102 0.0531564650013496
0.102210385847303 0.534868457130187 0.0596369094201738
0.219259719871668 0.26834340225431 0.276914229916327
0.190054833993709 -0.314085215597608 0.283809426810094
0.11477905125441 -0.345614346669068 0.254659809175123
0.239477109862835 -0.0184257138352692 0.373093543902872
0.0725558084665741 0.444525098196757 0.158493927249787
0.135243923361958 0.403529432712587 0.197280564750236
0.439260522991554 0.211768969805507 0.169952136254602
0.049919036528494 -0.252408657550395 0.282116638986553
0.301958047276548 0.402784318229815 0.138198280777583
0.437287195537285 -0.27977971088625 0.133621104945786
0.206419242471835 -0.456283354899996 0.142122167002101
0.5256875 -0.2159877 0
0.4614737 0.3373729 0
0.278258281805397 0.212217389782526 0.290711486597748
0.412620234385731 -0.0276123456925859 0.275229075674779
0.437902864028971 0.0304897485665292 0.244603963703514
0.0664916370010674 0.22959912452746 0.284763149230026
0.116259012906271 -0.402559853396334 0.208603169654864
0.18851691138748 -0.412710219629594 0.197637759134661
0.173438224680974 0.0297608974479422 0.372984488376519
0.273253872676302 -0.306498880331388 0.265500903952675
0.4450312 -0.3498691 0
0.519909501222297 0.0353721681382395 0.125679980546497
0.365923455853588 0.351599239577924 0.135486188901081
0.171127714042779 0.520396652324412 0.0609664155254543
0.5367618 0.1923582 0
0.464705442888396 0.144576615808332 0.176074007067839
0.396229927627546 0.0945157387353854 0.269924620686821
0.201963810609347 0.209689927828169 0.309392246034839
0.288833501221475 0.280010783836095 0.247389952646233
0.230184847056192 -0.085952734504682 0.373222135555009
0.160069480780976 -0.116960294274836 0.370671889905349
0.240231082638789 0.492571054369105 0.0642350856698723
0.393793353960357 0.232079973112175 0.20539624819606
0.131516542464496 0.0978419497221466 0.350716145099942
0.539457171953306 -0.0909577653631544 0.0722486043543162
0.406790966409765 0.282618391376425 0.154819678514192
0.0397625566395468 0.545724413230093 0.0435748919114103
0.260564925911702 -0.404201392925145 0.178680444364955
0.3469738 0.4567638 0
0.24487160309643 -0.257618642309705 0.309816912379756
0.290104608196291 -0.196723015130874 0.324097229550127
0.210208548662416 -0.14584229369911 0.363742719289992
0.113168292787204 -0.287517746626586 0.293224114326709
0.226839404136814 0.396746316272017 0.186425752832067
0.252298599495201 0.154303007914914 0.325766601527923
0.372079374125927 -0.0787296722481186 0.307419190829328
0.0757418254937087 0.155796976746302 0.31641606287059
0.2179509 0.5297573 0
0.0458744784623931 -0.118296077739168 0.324984887109542
0 0.575 0
0.3481025 -0.4466615 0
0.0618635857123824 0.375382307615147 0.206549847315396
0.0999923001634158 -0.154285251437632 0.346618735363519
0.316379213704808 -0.247174094174916 0.283233963936951
0.0529050603205478 -0.314536513724635 0.250041156427719
0.163788805186897 0.447620371295615 0.156281637664274
0.122168211332494 0.491959654548382 0.114331997619682
0.286396241021622 0.0921560696907866 0.337575854731219
0.06839787 0.5693324 0
0.432636871077111 -0.157773067054822 0.226605090240578
0.1459664 0.5540397 0
0.0465949149837141 -0.186342619490669 0.306883360776862
0.5687363 0.02701634 0
0 -0.5663709 0
0.047283328053994 -0.0503662089497105 0.335132897657834
0.483647345310721 0.0235999877875806 0.18779782022629
0.104088385344767 -0.222950918390793 0.323530036929452
0.139445698154452 0.257634597526215 0.286763421954072
0.07314713 -0.5603097 0
2.21140508572334e-16 -0.145130184851883 0.27072262452315
2.12039225232569e-16 0.12054527454294 0.285566772013508
0.169928669262613 -0.368268018850317 0.240996669294385
1.05996985813783e-16 -0.391794594413362 0.157477103852668
0.403703 0.4057092 0
0.3983695 -0.4019898 0
0.1456375 -0.5454938 0
0.4143589027461 0.358182710471549 0.063738292471305
3 0 1 122
3 78 52 7
3 101 21 116
3 45 23 22
3 152 58 27
3 136 124 123
3 60 118 35
3 53 63 102
3 28 29 118
3 66 64 74
3 102 85 86
3 26 160 24
3 97 99 98
3 41 136 40
3 125 18 54
3 9 10 86
3 22 104 46
3 46 102 45
3 111 77 110
3 54 57 125
3 80 47 110
3 116 129 0
3 9 67 68
3 106 122 1
3 59 126 96
3 72 42 147
3 71 53 49
3 51 22 128
3 129 31 30
3 68 10 9
3 53 102 86
3 35 34 60
3 44 123 50
3 40 56 41
3 30 38 96
3 111 8 132
3 25 114 85
3 49 113 71
3 33 115 160
3 138 54 101
3 46 85 102
3 68 67 12
3 145 95 14
3 81 82 107
3 2 16 141
3 147 71 113
3 95 94 150
3 89 117 151
3 12 11 13
3 32 59 119
3 139 16 121
3 128 55 51
3 24 23 76
3 36 114 172
3 117 89 155
3 143 5 146
3 45 84 75
3 28 118 60
3 45 75 23
3 22 51 104
3 60 34 37
3 88 28 30
3 145 169 158
3 122 106 90
3 94 151 150
3 162 17 43
3 71 147 42
3 140 107 62
3 112 39 93
3 103 12 78
3 64 48 159
3 4 72 135
3 151 94 70
3 68 12 103
3 86 85 36
3 154 62 76
3 31 129 116
3 37 34 115
3 161 97 156
3 149 148 47
3 83 50 93
3 121 2 162
3 81 107 140
3 1 126 59
3 20 122 87
3 163 94 158
3 115 33 37
3 32 120 59
3 89 131 153
3 89 153 155
3 29 88 105
3 23 24 128
3 154 61 62
3 128 24 69
3 125 57 117
3 34 35 157
3 327 7 164
3 63 42 84
3 70 100 131
3 106 139 121
3 43 19 87
3 14 95 19
3 93 3 112
3 108 107 82
3 141 74 334
3 64 65 74
3 6 79 80
3 156 143 146
3 138 20 87
3 26 107 108
3 0 20 116
3 8 111 168
3 119 38 37
3 129 96 126
3 108 160 26
3 10 53 86
3 132 103 111
3 62 26 76
3 117 155 142
3 119 33 32
3 144 9 36
3 86 36 9
3 76 75 154
3 55 128 69
3 29 28 88
3 130 6 7
3 23 75 76
3 53 10 49
3 164 7 52
3 114 36 85
3 45 22 46
3 25 85 46
3 4 44 50
3 152 39 15
3 121 162 90
3 137 97 161
3 139 15 16
3 19 138 87
3 150 54 138
3 333 143 156
3 141 334 166
3 107 26 62
3 115 24 160
3 136 41 124
3 1 59 58
3 42 72 61
3 138 19 95
3 77 6 80
3 113 49 8
3 78 6 77
3 7 6 78
3 120 108 82
3 70 163 100
3 127 66 74
3 151 70 89
3 84 154 75
3 115 69 24
3 42 61 154
3 67 11 12
3 10 68 132
3 123 124 3
3 161 146 41
3 97 148 99
3 143 165 159
3 139 58 152
3 156 98 333
3 113 8 91
3 120 58 59
3 53 71 63
3 92 91 168
3 4 140 61
3 62 61 140
3 27 82 81
3 57 150 151
3 119 96 38
3 108 32 160
3 24 76 26
3 103 77 111
3 154 84 42
3 327 130 7
3 49 132 8
3 69 34 157
3 30 28 38
3 125 73 18
3 9 144 67
3 103 132 68
3 141 16 127
3 34 69 115
3 45 102 84
3 128 22 23
3 83 152 27
3 3 93 123
3 109 166 170
3 43 90 162
3 44 40 136
3 148 97 137
3 92 47 148
3 148 137 92
3 20 138 101
3 8 168 91
3 32 108 120
3 163 70 94
3 101 116 20
3 16 2 121
3 48 64 66
3 52 78 12
3 52 12 13
3 80 110 77
3 80 79 336
3 49 10 132
3 103 78 77
3 117 57 151
3 63 71 42
3 60 38 28
3 160 32 33
3 30 96 129
3 3 48 112
3 83 93 39
3 56 40 134
3 146 124 41
3 92 110 47
3 138 95 150
3 81 50 83
3 96 119 59
3 167 159 165
3 94 95 145
3 44 135 40
3 112 66 127
3 0 129 126
3 134 147 113
3 27 120 82
3 141 166 109
3 73 133 18
3 72 4 61
3 97 98 156
3 142 73 125
3 125 117 142
3 88 174 105
3 37 33 119
3 67 144 11
3 84 102 63
3 54 150 57
3 333 165 143
3 87 90 43
3 123 44 136
3 113 91 134
3 134 40 135
3 137 91 92
3 127 16 15
3 5 159 48
3 2 109 162
3 159 5 143
3 161 41 56
3 90 87 122
3 39 112 15
3 4 135 44
3 120 27 58
3 168 110 92
3 145 158 94
3 168 111 110
3 112 48 66
3 162 109 17
3 91 137 56
3 50 140 4
3 146 5 124
3 27 81 83
3 56 137 161
3 50 81 140
3 14 19 43
3 127 15 112
3 58 106 1
3 167 64 159
3 91 56 134
3 147 134 135
3 17 14 43
3 139 106 58
3 2 141 109
3 83 39 152
3 3 5 48
3 15 139 152
3 161 156 146
3 106 121 90
3 70 131 89
3 50 123 93
3 153 131 313
3 135 72 147
3 127 74 141
3 122 20 0
3 17 170 169
3 3 124 5
3 21 171 174
3 145 14 17
3 313 131 100
3 74 65 334
3 1 0 126
3 88 30 31
3 47 336 149
3 47 80 336
3 17 169 145
3 79 6 130
3 148 149 99
3 60 37 38
3 65 64 167
3 69 157 55
3 170 17 109
3 25 46 104
3 101 54 18
3 172 144 36
3 52 13 173
3 21 101 18
3 21 18 133
3 174 31 116
3 173 164 52
3 88 31 174
3 21 133 171
3 174 116 21
3 174 171 105
3 175 292 176
3 252 182 227
3 271 286 196
3 220 197 198
3 321 202 233
3 305 293 294
3 235 210 288
3 228 272 238
3 203 288 204
3 240 248 239
3 272 259 258
3 201 199 329
3 270 98 99
3 216 215 305
3 295 229 193
3 184 259 185
3 197 221 274
3 221 220 272
3 281 280 251
3 229 295 232
3 253 280 222
3 286 175 299
3 184 242 241
3 276 176 292
3 234 269 296
3 246 317 217
3 245 224 228
3 226 298 197
3 299 205 206
3 242 184 185
3 228 259 272
3 210 235 209
3 219 225 293
3 215 216 231
3 205 269 213
3 281 301 183
3 200 258 284
3 224 245 283
3 208 329 285
3 307 271 229
3 221 272 258
3 242 187 241
3 315 189 268
3 254 277 255
3 177 310 191
3 317 283 245
3 268 319 267
3 262 320 287
3 187 188 186
3 207 289 234
3 308 291 191
3 298 226 230
3 199 250 198
3 211 338 284
3 287 324 262
3 312 316 180
3 220 249 257
3 203 235 288
3 220 198 249
3 197 274 226
3 235 212 209
3 261 205 203
3 315 158 169
3 292 263 276
3 267 319 320
3 331 218 192
3 245 217 317
3 309 237 277
3 282 266 214
3 273 252 187
3 239 328 223
3 179 304 246
3 320 244 267
3 242 273 187
3 259 211 258
3 323 250 237
3 206 286 299
3 212 285 209
3 330 325 270
3 149 222 318
3 256 266 225
3 291 331 177
3 254 309 277
3 176 234 296
3 195 260 292
3 163 158 267
3 285 212 208
3 207 234 290
3 262 322 300
3 262 324 322
3 204 275 261
3 198 298 199
3 323 237 236
3 298 243 199
3 295 287 232
3 209 326 210
3 327 332 182
3 238 257 217
3 244 300 100
3 276 291 308
3 218 260 194
3 189 194 268
3 266 282 178
3 278 255 277
3 310 334 248
3 239 248 65
3 181 253 79
3 325 316 312
3 307 260 195
3 201 278 277
3 175 286 195
3 183 335 281
3 289 212 213
3 299 296 269
3 278 201 329
3 185 259 228
3 301 281 273
3 237 250 201
3 287 311 324
3 289 207 208
3 314 211 184
3 259 184 211
3 250 323 249
3 230 243 298
3 204 261 203
3 130 182 181
3 198 250 249
3 228 224 185
3 332 227 182
3 284 258 211
3 220 221 197
3 200 221 258
3 179 225 219
3 321 190 214
3 291 263 331
3 306 330 270
3 308 191 190
3 194 260 307
3 319 307 229
3 333 325 312
3 310 166 334
3 277 237 201
3 285 329 199
3 305 294 216
3 176 233 234
3 217 236 246
3 307 268 194
3 251 253 181
3 283 183 224
3 252 251 181
3 182 252 181
3 290 255 278
3 244 100 163
3 297 248 240
3 320 262 244
3 257 249 323
3 285 199 243
3 217 323 236
3 241 187 186
3 185 301 242
3 293 178 294
3 330 216 316
3 270 99 318
3 312 328 165
3 308 321 233
3 325 333 98
3 283 264 183
3 290 234 233
3 228 238 245
3 265 335 264
3 179 236 309
3 237 309 236
3 202 254 255
3 232 320 319
3 289 213 269
3 278 329 207
3 199 201 250
3 273 281 251
3 323 217 257
3 327 182 130
3 224 183 301
3 243 326 209
3 205 213 203
3 295 193 247
3 184 241 314
3 273 242 301
3 310 297 191
3 209 285 243
3 220 257 272
3 298 198 197
3 256 202 321
3 178 293 266
3 279 170 166
3 218 331 263
3 219 305 215
3 318 306 270
3 265 318 222
3 318 265 306
3 195 271 307
3 183 264 335
3 207 290 278
3 163 267 244
3 271 195 286
3 191 291 177
3 223 240 239
3 227 187 252
3 227 188 187
3 253 251 280
3 253 336 79
3 224 301 185
3 273 251 252
3 287 320 232
3 238 217 245
3 235 203 213
3 329 208 207
3 205 299 269
3 178 282 223
3 256 214 266
3 231 303 215
3 316 216 294
3 265 222 280
3 307 319 268
3 254 256 225
3 269 234 289
3 167 165 328
3 267 315 268
3 219 215 304
3 282 297 240
3 175 296 299
3 303 283 317
3 202 255 290
3 310 279 166
3 247 193 302
3 246 236 179
3 270 325 98
3 311 295 247
3 295 311 287
3 261 275 340
3 212 289 208
3 241 186 314
3 257 238 272
3 229 232 319
3 333 312 165
3 260 218 263
3 293 305 219
3 283 303 264
3 303 304 215
3 306 265 264
3 297 190 191
3 180 223 328
3 177 331 279
3 328 312 180
3 330 231 216
3 263 292 260
3 214 190 282
3 179 219 304
3 290 233 202
3 335 265 280
3 315 267 158
3 335 280 281
3 282 240 223
3 331 192 279
3 264 231 306
3 225 179 309
3 316 294 180
3 202 256 254
3 231 330 306
3 225 309 254
3 189 218 194
3 297 282 190
3 233 176 276
3 167 328 239
3 264 303 231
3 317 304 303
3 192 218 189
3 308 233 276
3 177 279 310
3 256 321 214
3 178 223 180
3 190 321 308
3 330 316 325
3 276 263 291
3 244 262 300
3 225 266 293
3 322 313 300
3 304 317 246
3 297 310 248
3 292 175 195
3 192 169 170
3 178 180 294
3 196 340 337
3 315 192 189
3 313 100 300
3 248 334 65
3 176 296 175
3 261 206 205
3 222 149 336
3 222 336 253
3 192 315 169
3 79 130 181
3 318 99 149
3 235 213 212
3 65 167 239
3 243 230 326
3 170 279 192
3 200 274 221
3 271 193 229
3 338 211 314
3 227 339 188
3 196 193 271
3 196 302 193
3 340 286 206
3 339 227 332
3 261 340 206
3 196 337 302
3 340 196 286
3 340 275 337
