# converted from 2part_F_3region_adaptive_cable.off
v -0.34977494069314102 0.29543597153801698 0.19969322285354699
v -0.34470010821695701 0.22194768328987299 0.25470958877330202
v -0.12650128075252501 0.20972529976356999 0.31592378650282998
v -0.16615756372055401 -0.0500820213562988 0.38677479492132899
v -0.32805938167221599 -0.13793396862308799 0.32934187461537101
v -0.098136210549753494 -0.089027125902472304 0.36736938726100998
v -0.059599987328630102 -0.49028898347005401 0.11152840169754601
v -0.059977315223421902 -0.53547878910719104 0.055125653493309501
v -0.22935826324955899 -0.367968265424435 0.23293460226450899
v -0.34186179174925801 -0.41425325709323702 0.081053614055855594
v -0.32534780395617702 -0.38530968581817598 0.14656840990832101
v -0.27565339999999999 -0.49448310000000001 0
v -0.22258117625712301 -0.49257107394847 0.0721425135003812
v -0.20879980000000001 -0.52514209999999995 0
v -0.11445241097535799 0.36590599513194899 0.228180594847843
v -0.20798958380011301 0.100776399703891 0.362283084613372
v -0.16527291800416199 0.159791284162833 0.34218090568470899
v -0.071116748000366894 0.31647768459133901 0.25258631422315903
v -0.29934859242685802 0.45407986167957198 0.068667504077036298
v -0.17602418286868199 0.374562130961197 0.21997970606564499
v -0.293563876159468 0.35496116074671502 0.19123722838739499
v -0.35447157306521498 0.409627116968939 0.072239447091012807
v -0.51879083460740605 -0.173126467289447 0.066506053123594394
v -0.50417484009754698 -0.130388869458956 0.12567908462872199
v -0.51078839310704005 -0.045015021605953699 0.14056817742503
v -0.48843439999999999 -0.28809390000000001 0
v -0.46292487305818097 -0.037184126506463598 0.21650485209367101
v -0.34503131507615897 0.067078926052765706 0.32047003673318702
v -0.498669370750777 0.225624022117562 0.058740247052269899
v -0.50428450000000002 0.26743460000000002 0
v -0.455268277704444 0.25863378717626501 0.106402826594467
v -0.420349088489683 0.31849265559880202 0.0976474230887278
v -0.44682623927039899 0.092506038990959397 0.21861304442587501
v -0.486730942553523 0.081843972688445205 0.165777128634577
v -0.54240819654419004 0.069965603005366306 0.063286776696527297
v -0.55876269999999995 0.1112094 0
v -0.39567557921023699 -0.38338674341206602 0.047404288405277599
v -0.50918335678834403 0.112156962607544 0.116471297530771
v -0.48578942618183801 0.186160116021554 0.115343641811829
v -0.240970772166966 0.044986056373569498 0.37112353500712902
v -0.221248222524384 -0.208208183613106 0.347340873368571
v -0.153724932568058 -0.19401352808799499 0.355294505709775
v -0.38069161495229098 -0.22503660291534899 0.246316992320638
v -0.15707892545648799 0.323714750484772 0.25824085097625799
v -0.26751383704277198 -0.142132837431523 0.358906535421607
v -0.47827031042569201 -0.207906804244018 0.123601733016957
v -0.48505561170368 -0.24991745176960001 0.068030675334918606
v -0.050219509541725202 -0.38312640353143801 0.20481573242516601
v -0.104042958245227 -0.017409300293455301 0.37312615206500799
v -0.30058397549744198 -0.35261501796205902 0.20790242427145
v -0.30215780418104898 -0.066690169399050397 0.35833818517706501
v -0.55190260000000002 -0.13759440000000001 0
v -0.14465300906241599 -0.52969822137929701 0.048800356737232597
v -0.36748205158761499 -0.32683641268323199 0.17145745261086701
v -0.239362149514109 0.451331571951814 0.12249743994677401
v -0.56651810000000002 -0.055348920000000003 0
v -0.16639522193546699 -0.26008129421472098 0.32493963008753202
v -0.187036412458919 0.48504637630302899 0.104330640629691
v -0.33479877097796001 0.14884239095892601 0.29972965367748999
v -0.40509970266908801 0.165129769810057 0.235268065206205
v -0.52601737623809097 0.150135287851448 0.060999978235524097
v -0.384272137666404 -0.15024321459444601 0.28072801867573699
v -0.426018962277947 -0.094352825627943601 0.25423744729741199
v -0.39360493977696698 -0.273468803425641 0.19336363304349299
v -0.045032192087641497 0.0172539299990799 0.339730297953312
v 0.00027779074911209601 0.055271099522736802 0.28935090633333099
v -0.101890964775758 0.045075431909237997 0.36452823293798098
v -0.29469378354519199 -0.46061597546362898 0.0554951842551554
v -0.275819699963748 -0.44045420507519201 0.115616821512915
v -0.54503482260590597 -0.011565234285796 0.069809857009098197
v -0.052794749909063403 0.50683214997818005 0.096515635356575299
v -0.33799441527519097 -0.295897036716951 0.23180045269819999
v -0.34149945914657798 -0.19647005958847399 0.296033226039358
v -0.28735300000000003 0.49593609999999999 0
v -0.0548654844647187 0.089598552698364406 0.33437881343089798
v -0.46692701985610902 -0.16713507097141 0.17016159824779001
v -0.472465659061169 -0.103336299467023 0.19049238009924399
v -0.12449384460692001 -0.457647245606772 0.15879416696373999
v -0.13811547865127299 -0.499534131269252 0.105140048230592
v 0.00013190022507276501 -0.45684268307514603 0.102720836389327
v -0.053977828888907398 -0.43874829943003801 0.16026930467257799
v -0.35391675574766401 -0.0125155288996288 0.32674386333901001
v -0.39068068132692502 0.031285769502366001 0.29191435975415397
v -0.298852025086838 0.0163861999180091 0.35656054606086102
v -0.43355698581851998 -0.22382933763302601 0.18295012959707499
v -0.44307366470804299 -0.31858101551079798 0.064519498195876004
v -0.38881506679301098 -0.35307903878172597 0.10990410066803501
v -0.23015706207053899 0.34151188958008999 0.23310591290152299
v -0.463008800333302 0.297669608268474 0.0509826043271292
v -0.10100055086579 0.53587636580681297 0.056825396854299201
v -0.21789584350314001 0.27717771149002901 0.27919606128551699
v -0.18405690024155799 -0.32421075791706699 0.28236524413126701
v -0.109100242335328 -0.35454292561507 0.25195920675911998
v -0.23720957053307401 -0.020272942007793102 0.381373146076532
v -0.069690675828064902 0.45450657518628601 0.15389782654577799
v -0.132302906696845 0.41420366741583098 0.19324761915650199
v -0.43777907665985299 0.213886401971113 0.16795507479111099
v -0.044998133193119502 -0.264743353779262 0.27758879664403502
v -0.00068992814176228998 -0.21972662114206001 0.24387467890290301
v -0.00065824133707336201 -0.28344772153065001 0.21706070985009901
v 0.000102037177810889 0.52350390750000497 0.0483665911906467
v -0.29850105403169103 0.40762912613409402 0.13352126828734701
v -0.43315331002629298 -0.28210831370989697 0.13104087932401701
v -0.203397202484842 -0.45779207775568398 0.14110932721404501
v -0.52568749999999997 -0.2159877 0
v -0.46147369999999999 0.33737289999999998 0
v -0.27758879647914603 0.217829765919064 0.29459561551334601
v -0.41103644088914598 -0.029412736412076101 0.27789611403534098
v -0.43675525995580899 0.029971602247905699 0.24585416004268901
v -0.064800959317253104 0.239780534166804 0.28779714593804601
v -0.111264893612381 -0.40913842140971701 0.206322550548873
v -0.184215955088639 -0.41722981358220401 0.19648321844465799
v -0.17089713546193 0.029905117913895701 0.38164422765153699
v -0.26831578880986201 -0.314684086128169 0.26413375540094802
v -0.44503120000000002 -0.34986909999999999 0
v -0.51873324409588295 0.033596452554569799 0.123041886035631
v -0.36369151170166297 0.35568398793975498 0.130556072855291
v -0.1697492438872 0.52057402843841805 0.058403606479065999
v -0.53676179999999996 0.19235820000000001 0
v -0.46375716417544199 0.14447862458937899 0.17466051701150501
v -0.39526222829441998 0.095646770056194 0.27268736477913902
v -0.201087244297257 0.216868452054061 0.31459410909027902
v -0.28724041423185098 0.28726231919172701 0.247887150764345
v -0.22706084703621299 -0.090087649543398304 0.38067312931351799
v -0.15536143102806901 -0.12269549409945101 0.37693683425807001
v -0.23844477898593699 0.49244770418358003 0.061603109513682697
v -0.39244467642187197 0.235511504288484 0.20452404186995601
v -0.12928456991032 0.101421126409517 0.35860133632713498
v -0.53763087467559301 -0.091726631560619401 0.070655382693367894
v -0.40472414597282202 0.28713832760485902 0.15083835403118401
v 8.4481900475777405e-05 -0.51714682003360302 0.048518266692043302
v -0.038682680878079002 0.54878357350650497 0.041043732791184097
v -0.256556239448817 -0.406998728503774 0.17702691118227201
v -0.3469738 0.4567638 0
v -0.23946595312851399 -0.26771408093307603 0.31045319671994898
v -0.28599200360145 -0.204243651716356 0.32728213153510199
v -0.20595789985676799 -0.15232015973416099 0.369623716771251
v -0.10647166473359 -0.29887425392380301 0.29072989969332802
v -0.22349931422917299 0.40540930692286697 0.18216514424736299
v -0.251799925254306 0.158694287491498 0.33215118180291697
v -0.36985574967502799 -0.081901582800474507 0.311481983370136
v -0.073733702247302899 0.16270047132367399 0.322151003840978
v -0.2179509 0.52975729999999999 0
v -0.040841957750377599 -0.124684541624448 0.32638600460710299
v -0.34810249999999998 -0.44666149999999999 0
v -0.059523215920317799 0.39022141686190798 0.201115312666487
v -0.094395138375063706 -0.16227711627939501 0.34963141899695799
v -0.31150810068655099 -0.25607580120769302 0.28306859821936198
v -0.04831353734438 -0.32543268769652101 0.244619374794214
v -0.00012918570189691901 -0.34285831893199697 0.18522204972495501
v -0.16097327668164199 0.453949913737351 0.15226774883160099
v -0.119919881944568 0.49598327166470102 0.110381944008295
v -0.285684260018223 0.094185917518734605 0.34444288325794897
v -0.06839787 0.56933239999999996 0
v -0.42962221625776498 -0.162294114733013 0.225992142527532
v -0.1459664 0.55403970000000002 0
v -0.041496057952049997 -0.197008120527044 0.30512296556682
v -0.56873629999999997 0.02701634 0
v 0.000184318212092212 0.40857441286597701 0.15013988769042599
v -0.0426599532611577 -0.053160732815539 0.33862225766445297
v -0.482489534661037 0.023293451615018401 0.18634334205397299
v -0.098003970206562097 -0.234233436554591 0.32331149423531602
v -0.137675176908649 0.26784198921027402 0.28973579206983702
v 0.000194624833988888 0.46362310202385998 0.103699841212058
v -0.073147130000000005 -0.56030970000000002 0
v 6.4570918877171794e-05 -0.083182694746459507 0.27873622797550102
v 0.00036445109343492002 0.19620518851067301 0.27273112288000501
v 0.00019124074776724601 -0.0149954914675483 0.286374512071911
v -0.16462696546793301 -0.37553235565654702 0.239406660860222
v 7.5940642611444995e-05 0.341264562054656 0.19946271143300301
v 0.00032570737291907301 0.26996121395742101 0.24180205786463499
v -0.40370299999999998 0.40570919999999999 0
v -0.39836949999999999 -0.40198980000000001 0
v -0.1456375 -0.54549380000000003 0
v -0.41225076573373498 0.35849422130411601 0.061000488542735098
v 0.35114401560769698 0.29536397756569899 0.19758099640606699
v 0.34570280101450701 0.22207762917045801 0.25281777247971199
v 0.127330126190803 0.20970710916961999 0.31538214441509799
v 0.16678508944053899 -0.049759862517550303 0.38632458139794201
v 0.328986778735472 -0.13751610903186501 0.32817721807199102
v 0.098631388619697904 -0.088605178794810696 0.36727923680890701
v 0.059867954255704799 -0.490370741463723 0.11151247980578199
v 0.060112094657085703 -0.53546023872155701 0.055136963226241002
v 0.230663756693888 -0.36679304601526902 0.233478514629156
v 0.342211512404755 -0.41378987902534498 0.081125710985471694
v 0.326026565085627 -0.384414405494789 0.14667021551030801
v 0.27565339999999999 -0.49448310000000001 0
v 0.22280269086481999 -0.49239616851179702 0.072148869461657703
v 0.20879980000000001 -0.52514209999999995 0
v 0.115472452803955 0.365755871599446 0.227901271330778
v 0.208737821299397 0.100880130214832 0.361401306064983
v 0.16607316648717399 0.15981836140974501 0.34145851934824001
v 0.071929763197027097 0.31646109673898098 0.252378885980722
v 0.29991386471831799 0.453288049793722 0.068931143161928402
v 0.17712723324195701 0.37408244907688798 0.21954428086452499
v 0.29563280015072202 0.353756742804477 0.190094880485499
v 0.35500282492457902 0.40846391294281098 0.072720320337388497
v 0.51866620124650198 -0.17227951314380799 0.066869539712771597
v 0.50363668938200701 -0.128413381762604 0.12664879169923701
v 0.50976479496236005 -0.045017609458586703 0.14124092844521799
v 0.48843439999999999 -0.28809390000000001 0
v 0.46377300718640901 -0.035929218660651498 0.21420405336732601
v 0.34589447240568699 0.067226504678551693 0.31885395991353899
v 0.498473245280739 0.224852705416385 0.059234333613630501
v 0.50428450000000002 0.26743460000000002 0
v 0.45539434239568999 0.256025618719255 0.107670945742101
v 0.42077950434012101 0.316423368749921 0.098517733888248707
v 0.44770363853425099 0.091679518890053394 0.21655061229977701
v 0.48654265025795601 0.081634456336552197 0.164876295574412
v 0.54190938315543202 0.070342801461667895 0.063579296238600203
v 0.55876269999999995 0.1112094 0
v 0.39586214685806798 -0.38305880375999002 0.047470895597109403
v 0.50826317579987801 0.112412114494538 0.116924560624313
v 0.48494279671260998 0.18539431410872201 0.11625005520322899
v 0.24169961417426999 0.045166247319228497 0.37015907745958199
v 0.22224953721140001 -0.20777432189688699 0.34704518194235301
v 0.154547270466693 -0.193328621597256 0.35547856658528398
v 0.382055326946806 -0.224439986072489 0.244532145265171
v 0.15811007859551299 0.32347561581997503 0.25772044934411098
v 0.26838372093815899 -0.141712970530016 0.35818025871516501
v 0.47831031997180401 -0.206128888743186 0.124119722171039
v 0.48515137024642502 -0.249100549553471 0.068272523797213699
v 0.050471164907433502 -0.38421044076537197 0.20439891243244299
v 0.104597492048101 -0.0172025911192876 0.37281608698047802
v 0.30161430950609103 -0.351477564462916 0.20791881837963599
v 0.30296817663502301 -0.066348640993677294 0.35724491487493798
v 0.55190260000000002 -0.13759440000000001 0
v 0.14475728210132 -0.52964124318949402 0.048802387253196799
v 0.36839604937092402 -0.32518420475937798 0.17166535153687101
v 0.240188841314805 0.45042036162994598 0.12266753124305101
v 0.56651810000000002 -0.055348920000000003 0
v 0.16765503746603899 -0.25969257811121799 0.32518273406528497
v 0.18756673272093999 0.48455857465666102 0.104389402631856
v 0.335696865460759 0.148933824238381 0.29807469604477999
v 0.40606609076578798 0.16536933362030601 0.23294762091451199
v 0.52558442943294703 0.14997959176623399 0.061355068645184002
v 0.38522649107497797 -0.149844135590363 0.27912291188128102
v 0.42681500353281299 -0.093860729604991394 0.25238394604321901
v 0.39464645702124801 -0.27036329543883197 0.19415664509077099
v 0.045568400811422501 0.017340922533476098 0.339559199927912
v 0.102509433940071 0.045182129961372497 0.36413878874595901
v 0.29490420236321502 -0.46039758599311098 0.055522372428966398
v 0.276286164528877 -0.43999494829048402 0.11566808765164401
v 0.54455817361637504 -0.0111218956491386 0.070158226293259296
v 0.053142688911362201 0.50669337596556197 0.096513866348697505
v 0.33972610572087503 -0.29378028868873501 0.231570686181713
v 0.34258353747723702 -0.19596093669380299 0.29480000356088698
v 0.28735300000000003 0.49593609999999999 0
v 0.055513027584819401 0.089640179187427199 0.33413565352828001
v 0.46697160861084502 -0.16450476743874701 0.170567381450698
v 0.47290545326905498 -0.102830449309861 0.188843329286046
v 0.12498285600470301 -0.457747300503485 0.15868627985504699
v 0.13840594187086 -0.49945775822280303 0.105118388382739
v 0.054307045721964202 -0.43912046682468497 0.16013985066015499
v 0.35477768230401202 -0.0122327696680172 0.325180169082116
v 0.391637769208318 0.031445725088150599 0.28995010366186602
v 0.29963104387199302 0.016610410820739701 0.35533389952163502
v 0.43385765199512599 -0.22107702552740599 0.183690083443871
v 0.443284797631676 -0.31796257941266798 0.064667919565490603
v 0.389292455612472 -0.352145682697455 0.110073650843972
v 0.231445336602883 0.34095654299139699 0.23232860322968801
v 0.46316018375636198 0.29660161082999598 0.0515076703980182
v 0.101194637561349 0.53571562550002205 0.0568303519657508
v 0.218956438384421 0.27696191142760102 0.27828614700024301
v 0.18628873388890599 -0.32456810567640998 0.28194349155304999
v 0.110184223320149 -0.35710293452631597 0.25057964852249198
v 0.23792229561493 -0.020003375439877499 0.38054485953322698
v 0.070339475049530503 0.454362753735366 0.15386874568016901
v 0.13330212425051399 0.41383492868917099 0.19304467492063301
v 0.43814840511896602 0.21326756055132401 0.16671403779644201
v 0.0449828939999296 -0.26412039452002001 0.278788878501745
v 0.30004578799297399 0.405370844011819 0.13428506157779899
v 0.43360525487411 -0.28044353122268101 0.131446709263354
v 0.20391516917367 -0.45752441909946301 0.141099121132545
v 0.52568749999999997 -0.2159877 0
v 0.46147369999999999 0.33737289999999998 0
v 0.27856805207243901 0.21777049071203999 0.29327319054943202
v 0.41193957346382398 -0.028987847639496099 0.27590442400741899
v 0.43799058819932801 0.0299370561561168 0.24321161956912701
v 0.065588067191642202 0.239768479460373 0.28753254910579601
v 0.111955268147905 -0.40986370095722202 0.205909897202982
v 0.185057297119714 -0.41706048966201498 0.19643594072485501
v 0.17156219226688399 0.030080959441019701 0.38101207715895302
v 0.269131673152886 -0.314491878595833 0.26361233518080102
v 0.44503120000000002 -0.34986909999999999 0
v 0.51764521726465396 0.035321357357204403 0.123648130720369
v 0.36433573640779399 0.35302216925883501 0.131899472248827
v 0.17000313528960401 0.52034164927092996 0.058444926540895198
v 0.53676179999999996 0.19235820000000001 0
v 0.46362393597383 0.145015786579238 0.17329599911634999
v 0.396222634429097 0.095616167162034693 0.27064679904337402
v 0.201985141490615 0.21680731046922599 0.31371294070174999
v 0.28851996139088598 0.28693889012600898 0.246512752881207
v 0.22779517600001201 -0.089698988554758094 0.38006344203385201
v 0.15601768364537599 -0.12217811743720799 0.37677170038818703
v 0.23881076561442899 0.49204302597433303 0.061706792292391399
v 0.39312517849155998 0.23644250989884699 0.20205767277200301
v 0.12999156002849999 0.101496324970788 0.35805910940899099
v 0.53725128559553603 -0.091178912611530993 0.071047130224567101
v 0.40552109019331301 0.28420646439984099 0.15149466429159
v 0.038834256316886397 0.54869633311902799 0.041051318095590102
v 0.25736696311183299 -0.40630413036540097 0.177130943081168
v 0.3469738 0.4567638 0
v 0.2407162378738 -0.26744576922087498 0.31003512251466703
v 0.287040157937204 -0.20379789980837501 0.32650934114844998
v 0.20676391843784001 -0.15183711917436801 0.36929744640258899
v 0.108130785309466 -0.29883791395942599 0.29168432320982002
v 0.22471831049586899 0.40444832834898697 0.181902767081803
v 0.25263675338479602 0.158726615027832 0.33101331759409403
v 0.37072305093385999 -0.081509241485819894 0.309940261022908
v 0.074485073318857398 0.16271869652708701 0.32182301265006702
v 0.2179509 0.52975729999999999 0
v 0.041073472796183598 -0.124187619876125 0.32656556297613298
v 0 0.57499999999999996 0
v 0.34810249999999998 -0.44666149999999999 0
v 0.060765116860813102 0.390464315754805 0.201047954122477
v 0.094902530710900698 -0.16142734296855199 0.35000509388029499
v 0.31271002057842801 -0.25538802387642201 0.28223415722169798
v 0.048172754059075597 -0.327789117857683 0.24372478995574101
v 0.161747947003787 0.45337753596506902 0.152204037642238
v 0.120374357643958 0.495653546833 0.110367933035124
v 0.286475513040793 0.0943123940227973 0.34318046856668799
v 0.06839787 0.56933239999999996 0
v 0.43042784969380599 -0.16233121996466501 0.22398122764168199
v 0.1459664 0.55403970000000002 0
v 0.041556343162400103 -0.195535003288237 0.306114563792731
v 0.56873629999999997 0.02701634 0
v 0 -0.56637090000000001 0
v 0.043067407856994699 -0.052960977016225499 0.33854935119166601
v 0.48216666556459797 0.023331479460251499 0.18555691549960199
v 0.098784574843545303 -0.23269224654329901 0.32454017605078
v 0.13858180627775599 0.26775556090173303 0.28919254661120702
v 0.073147130000000005 -0.56030970000000002 0
v -0.00016556352297514599 -0.15191159881105101 0.26466517629126202
v 0.000340309008938653 0.12650237161394001 0.28669273814069002
v 0.165860830028111 -0.37595842641905702 0.23904998380040299
v 9.1875538941751995e-05 -0.40031965127677199 0.14709279445588
v 0.40370299999999998 0.40570919999999999 0
v 0.39836949999999999 -0.40198980000000001 0
v 0.1456375 -0.54549380000000003 0
v 0.41257817376762601 0.357350002673678 0.061541669429003201
f 1 2 123
f 79 53 8
f 102 22 117
f 46 24 23
f 153 59 28
f 137 125 124
f 61 119 36
f 54 64 103
f 29 30 119
f 67 65 75
f 103 86 87
f 27 161 25
f 98 100 99
f 42 137 41
f 126 19 55
f 10 11 87
f 23 105 47
f 47 103 46
f 112 78 111
f 55 58 126
f 81 48 111
f 117 130 1
f 10 68 69
f 107 123 2
f 60 127 97
f 73 43 148
f 72 54 50
f 52 23 129
f 130 32 31
f 69 11 10
f 54 103 87
f 36 35 61
f 45 124 51
f 41 57 42
f 31 39 97
f 112 9 133
f 26 115 86
f 50 114 72
f 34 116 161
f 139 55 102
f 47 86 103
f 69 68 13
f 146 96 15
f 82 83 108
f 3 17 142
f 148 72 114
f 96 95 151
f 90 118 152
f 13 12 14
f 33 60 120
f 140 17 122
f 129 56 52
f 25 24 77
f 37 115 173
f 118 90 156
f 144 6 147
f 46 85 76
f 29 119 61
f 46 76 24
f 23 52 105
f 61 35 38
f 89 29 31
f 146 170 159
f 123 107 91
f 95 152 151
f 163 18 44
f 72 148 43
f 141 108 63
f 113 40 94
f 104 13 79
f 65 49 160
f 5 73 136
f 152 95 71
f 69 13 104
f 87 86 37
f 155 63 77
f 32 130 117
f 38 35 116
f 162 98 157
f 150 149 48
f 84 51 94
f 122 3 163
f 82 108 141
f 2 127 60
f 21 123 88
f 164 95 159
f 116 34 38
f 33 121 60
f 90 132 154
f 90 154 156
f 30 89 106
f 24 25 129
f 155 62 63
f 129 25 70
f 126 58 118
f 35 36 158
f 328 8 165
f 64 43 85
f 71 101 132
f 107 140 122
f 44 20 88
f 15 96 20
f 94 4 113
f 109 108 83
f 142 75 335
f 65 66 75
f 7 80 81
f 157 144 147
f 139 21 88
f 27 108 109
f 1 21 117
f 9 112 169
f 120 39 38
f 130 97 127
f 109 161 27
f 11 54 87
f 133 104 112
f 63 27 77
f 118 156 143
f 120 34 33
f 145 10 37
f 87 37 10
f 77 76 155
f 56 129 70
f 30 29 89
f 131 7 8
f 24 76 77
f 54 11 50
f 165 8 53
f 115 37 86
f 46 23 47
f 26 86 47
f 5 45 51
f 153 40 16
f 122 163 91
f 138 98 162
f 140 16 17
f 20 139 88
f 151 55 139
f 334 144 157
f 142 335 167
f 108 27 63
f 116 25 161
f 137 42 125
f 2 60 59
f 43 73 62
f 139 20 96
f 78 7 81
f 114 50 9
f 79 7 78
f 8 7 79
f 121 109 83
f 71 164 101
f 128 67 75
f 152 71 90
f 85 155 76
f 116 70 25
f 43 62 155
f 68 12 13
f 11 69 133
f 124 125 4
f 162 147 42
f 98 149 100
f 144 166 160
f 140 59 153
f 157 99 334
f 114 9 92
f 121 59 60
f 54 72 64
f 93 92 169
f 5 141 62
f 63 62 141
f 28 83 82
f 58 151 152
f 120 97 39
f 109 33 161
f 25 77 27
f 104 78 112
f 155 85 43
f 328 131 8
f 50 133 9
f 70 35 158
f 31 29 39
f 126 74 19
f 10 145 68
f 104 133 69
f 142 17 128
f 35 70 116
f 46 103 85
f 129 23 24
f 84 153 28
f 4 94 124
f 110 167 171
f 44 91 163
f 45 41 137
f 149 98 138
f 93 48 149
f 149 138 93
f 21 139 102
f 9 169 92
f 33 109 121
f 164 71 95
f 102 117 21
f 17 3 122
f 49 65 67
f 53 79 13
f 53 13 14
f 81 111 78
f 81 80 337
f 50 11 133
f 104 79 78
f 118 58 152
f 64 72 43
f 61 39 29
f 161 33 34
f 31 97 130
f 4 49 113
f 84 94 40
f 57 41 135
f 147 125 42
f 93 111 48
f 139 96 151
f 82 51 84
f 97 120 60
f 168 160 166
f 95 96 146
f 45 136 41
f 113 67 128
f 1 130 127
f 135 148 114
f 28 121 83
f 142 167 110
f 74 134 19
f 73 5 62
f 98 99 157
f 143 74 126
f 126 118 143
f 89 175 106
f 38 34 120
f 68 145 12
f 85 103 64
f 55 151 58
f 334 166 144
f 88 91 44
f 124 45 137
f 114 92 135
f 135 41 136
f 138 92 93
f 128 17 16
f 6 160 49
f 3 110 163
f 160 6 144
f 162 42 57
f 91 88 123
f 40 113 16
f 5 136 45
f 121 28 59
f 169 111 93
f 146 159 95
f 169 112 111
f 113 49 67
f 163 110 18
f 92 138 57
f 51 141 5
f 147 6 125
f 28 82 84
f 57 138 162
f 51 82 141
f 15 20 44
f 128 16 113
f 59 107 2
f 168 65 160
f 92 57 135
f 148 135 136
f 18 15 44
f 140 107 59
f 3 142 110
f 84 40 153
f 4 6 49
f 16 140 153
f 162 157 147
f 107 122 91
f 71 132 90
f 51 124 94
f 154 132 314
f 136 73 148
f 128 75 142
f 123 21 1
f 18 171 170
f 4 125 6
f 22 172 175
f 146 15 18
f 314 132 101
f 75 66 335
f 2 1 127
f 89 31 32
f 48 337 150
f 48 81 337
f 18 170 146
f 80 7 131
f 149 150 100
f 61 38 39
f 66 65 168
f 70 158 56
f 171 18 110
f 26 47 105
f 102 55 19
f 173 145 37
f 53 14 174
f 22 102 19
f 22 19 134
f 175 32 117
f 174 165 53
f 89 32 175
f 22 134 172
f 175 117 22
f 175 172 106
f 176 293 177
f 253 183 228
f 272 287 197
f 221 198 199
f 322 203 234
f 306 294 295
f 236 211 289
f 229 273 239
f 204 289 205
f 241 249 240
f 273 260 259
f 202 200 330
f 271 99 100
f 217 216 306
f 296 230 194
f 185 260 186
f 198 222 275
f 222 221 273
f 282 281 252
f 230 296 233
f 254 281 223
f 287 176 300
f 185 243 242
f 277 177 293
f 235 270 297
f 247 318 218
f 246 225 229
f 227 299 198
f 300 206 207
f 243 185 186
f 229 260 273
f 211 236 210
f 220 226 294
f 216 217 232
f 206 270 214
f 282 302 184
f 201 259 285
f 225 246 284
f 209 330 286
f 308 272 230
f 222 273 259
f 243 188 242
f 316 190 269
f 255 278 256
f 178 311 192
f 318 284 246
f 269 320 268
f 263 321 288
f 188 189 187
f 208 290 235
f 309 292 192
f 299 227 231
f 200 251 199
f 212 339 285
f 288 325 263
f 313 317 181
f 221 250 258
f 204 236 289
f 221 199 250
f 198 275 227
f 236 213 210
f 262 206 204
f 316 159 170
f 293 264 277
f 268 320 321
f 332 219 193
f 246 218 318
f 310 238 278
f 283 267 215
f 274 253 188
f 240 329 224
f 180 305 247
f 321 245 268
f 243 274 188
f 260 212 259
f 324 251 238
f 207 287 300
f 213 286 210
f 331 326 271
f 150 223 319
f 257 267 226
f 292 332 178
f 255 310 278
f 177 235 297
f 196 261 293
f 164 159 268
f 286 213 209
f 208 235 291
f 263 323 301
f 263 325 323
f 205 276 262
f 199 299 200
f 324 238 237
f 299 244 200
f 296 288 233
f 210 327 211
f 328 333 183
f 239 258 218
f 245 301 101
f 277 292 309
f 219 261 195
f 190 195 269
f 267 283 179
f 279 256 278
f 311 335 249
f 240 249 66
f 182 254 80
f 326 317 313
f 308 261 196
f 202 279 278
f 176 287 196
f 184 336 282
f 290 213 214
f 300 297 270
f 279 202 330
f 186 260 229
f 302 282 274
f 238 251 202
f 288 312 325
f 290 208 209
f 315 212 185
f 260 185 212
f 251 324 250
f 231 244 299
f 205 262 204
f 131 183 182
f 199 251 250
f 229 225 186
f 333 228 183
f 285 259 212
f 221 222 198
f 201 222 259
f 180 226 220
f 322 191 215
f 292 264 332
f 307 331 271
f 309 192 191
f 195 261 308
f 320 308 230
f 334 326 313
f 311 167 335
f 278 238 202
f 286 330 200
f 306 295 217
f 177 234 235
f 218 237 247
f 308 269 195
f 252 254 182
f 284 184 225
f 253 252 182
f 183 253 182
f 291 256 279
f 245 101 164
f 298 249 241
f 321 263 245
f 258 250 324
f 286 200 244
f 218 324 237
f 242 188 187
f 186 302 243
f 294 179 295
f 331 217 317
f 271 100 319
f 313 329 166
f 309 322 234
f 326 334 99
f 284 265 184
f 291 235 234
f 229 239 246
f 266 336 265
f 180 237 310
f 238 310 237
f 203 255 256
f 233 321 320
f 290 214 270
f 279 330 208
f 200 202 251
f 274 282 252
f 324 218 258
f 328 183 131
f 225 184 302
f 244 327 210
f 206 214 204
f 296 194 248
f 185 242 315
f 274 243 302
f 311 298 192
f 210 286 244
f 221 258 273
f 299 199 198
f 257 203 322
f 179 294 267
f 280 171 167
f 219 332 264
f 220 306 216
f 319 307 271
f 266 319 223
f 319 266 307
f 196 272 308
f 184 265 336
f 208 291 279
f 164 268 245
f 272 196 287
f 192 292 178
f 224 241 240
f 228 188 253
f 228 189 188
f 254 252 281
f 254 337 80
f 225 302 186
f 274 252 253
f 288 321 233
f 239 218 246
f 236 204 214
f 330 209 208
f 206 300 270
f 179 283 224
f 257 215 267
f 232 304 216
f 317 217 295
f 266 223 281
f 308 320 269
f 255 257 226
f 270 235 290
f 168 166 329
f 268 316 269
f 220 216 305
f 283 298 241
f 176 297 300
f 304 284 318
f 203 256 291
f 311 280 167
f 248 194 303
f 247 237 180
f 271 326 99
f 312 296 248
f 296 312 288
f 262 276 341
f 213 290 209
f 242 187 315
f 258 239 273
f 230 233 320
f 334 313 166
f 261 219 264
f 294 306 220
f 284 304 265
f 304 305 216
f 307 266 265
f 298 191 192
f 181 224 329
f 178 332 280
f 329 313 181
f 331 232 217
f 264 293 261
f 215 191 283
f 180 220 305
f 291 234 203
f 336 266 281
f 316 268 159
f 336 281 282
f 283 241 224
f 332 193 280
f 265 232 307
f 226 180 310
f 317 295 181
f 203 257 255
f 232 331 307
f 226 310 255
f 190 219 195
f 298 283 191
f 234 177 277
f 168 329 240
f 265 304 232
f 318 305 304
f 193 219 190
f 309 234 277
f 178 280 311
f 257 322 215
f 179 224 181
f 191 322 309
f 331 317 326
f 277 264 292
f 245 263 301
f 226 267 294
f 323 314 301
f 305 318 247
f 298 311 249
f 293 176 196
f 193 170 171
f 179 181 295
f 197 341 338
f 316 193 190
f 314 101 301
f 249 335 66
f 177 297 176
f 262 207 206
f 223 150 337
f 223 337 254
f 193 316 170
f 80 131 182
f 319 100 150
f 236 214 213
f 66 168 240
f 244 231 327
f 171 280 193
f 201 275 222
f 272 194 230
f 339 212 315
f 228 340 189
f 197 194 272
f 197 303 194
f 341 287 207
f 340 228 333
f 262 341 207
f 197 338 303
f 341 197 287
f 341 276 338
