# two-pattern disc, prestrain sf_wale=sf_course=1.2, p=1000 Pa
# left  half (x<0): E1=10300, E2=13400 N/m, nu=0.58
# right half (x>=0): E1=7700, E2=7600 N/m, nu=0.65
# per-face knit field FDM/data/2part/circle_face_directional_field.txt
# rest mesh data/circular_flat.off, metres, crown height 48.44 mm
v -0.086821 -0.591712 -0.000000
v 0.049477 -0.597957 -0.000000
v 0.103330 -0.588853 -0.000000
v 0.319076 -0.506639 -0.000000
v 0.425297 -0.421536 -0.000000
v 0.534698 -0.272062 -0.000000
v 0.589925 -0.100706 -0.000000
v 0.589305 0.105327 -0.000000
v 0.552765 0.231368 -0.000000
v 0.464920 0.376886 -0.000000
v 0.381713 0.462387 -0.000000
v 0.266057 0.535760 -0.000000
v 0.077015 0.593385 -0.000000
v 0.020637 0.598317 -0.000000
v -0.113865 0.588034 -0.000000
v -0.398768 0.445829 -0.000000
v -0.520207 0.296007 -0.000000
v -0.581631 0.142695 -0.000000
v -0.597972 0.037805 -0.000000
v -0.591869 -0.091000 -0.000000
v -0.538164 -0.264416 -0.000000
v -0.475555 -0.364413 -0.000000
v -0.407116 -0.439551 -0.000000
v -0.307968 -0.512708 -0.000000
v -0.263830 -0.537502 -0.000000
v -0.139526 -0.582548 -0.000000
v -0.031447 0.012071 0.048166
v -0.004198 -0.339260 0.032649
v -0.296029 0.011439 0.035968
v -0.245396 -0.263970 0.030173
v 0.353483 -0.003631 0.032398
v 0.315807 -0.282331 0.024663
v -0.032864 0.330428 0.033967
v 0.293452 0.257135 0.028866
v -0.311357 0.303940 0.022681
v -0.152475 0.089054 0.043823
v 0.118898 -0.153097 0.043616
v -0.429101 -0.216484 0.016784
v 0.216362 0.441891 0.016374
v -0.484373 0.350503 -0.000000
v 0.266488 -0.535854 -0.000000
v -0.567673 0.187891 -0.000000
v -0.443498 -0.401011 -0.000000
v 0.498867 0.330759 -0.000000
v 0.462133 -0.379879 -0.000000
v 0.597210 0.042420 -0.000000
v -0.173958 0.572538 -0.000000
v -0.597290 -0.025667 -0.000000
v -0.350551 0.484708 -0.000000
v 0.199271 0.151176 0.040926
v 0.367914 -0.135620 0.028355
v -0.212240 0.342142 0.026463
v 0.136336 -0.431909 0.020855
v -0.428361 0.115194 0.021523
v -0.203269 -0.421539 0.018405
v 0.214097 0.497741 0.009161
v -0.580740 -0.143234 -0.000000
v -0.047975 0.595913 -0.000000
v -0.590699 0.093560 -0.000000
v 0.425150 0.420560 -0.000000
v -0.013386 -0.597809 -0.000000
v 0.373168 -0.467076 -0.000000
v 0.501943 -0.324979 -0.000000
v 0.597050 -0.030994 -0.000000
v 0.573604 0.168579 -0.000000
v -0.361916 -0.476224 -0.000000
v -0.157040 -0.154125 0.041226
v 0.317686 0.144397 0.032947
v -0.080332 0.436048 0.022129
v -0.277721 0.145454 0.034750
v 0.133755 -0.214991 0.040018
v 0.465426 -0.109446 0.018067
v 0.319592 0.427883 0.010397
v -0.182259 -0.471558 0.013551
v 0.157523 0.514779 0.009680
v -0.509507 -0.208877 0.007236
v 0.558942 -0.212499 -0.000000
v 0.528969 0.278843 -0.000000
v -0.544816 0.247483 -0.000000
v 0.209558 -0.560046 -0.000000
v -0.422490 -0.324618 0.009826
v 0.377440 0.062062 0.029569
v -0.490150 -0.029906 0.015546
v 0.048109 0.433871 0.023397
v -0.282850 -0.232899 0.029625
v 0.013404 0.128043 0.046510
v -0.397649 0.209863 0.020846
v 0.183220 -0.393845 0.023175
v -0.287017 0.402263 0.015350
v 0.399863 0.287212 0.016357
v 0.236254 -0.133063 0.039143
v -0.168755 0.482398 0.013185
v -0.534784 0.063170 0.009101
v 0.498028 -0.070562 0.014644
v -0.250294 -0.470348 0.009824
v -0.472627 -0.295333 0.006291
v -0.201763 -0.562765 -0.000000
v 0.110847 0.415981 0.024192
v 0.400897 0.014033 0.027444
v -0.053187 -0.160341 0.044191
v -0.284990 -0.080893 0.035900
v -0.062518 0.222511 0.041413
v 0.211108 -0.298143 0.030767
v 0.414144 -0.255227 0.016902
v 0.089739 -0.471373 0.017367
v 0.233223 0.211341 0.036128
v -0.455320 0.204177 0.014573
v -0.316075 -0.381442 0.014885
v -0.365699 0.324754 0.015953
v -0.078872 0.535879 0.008913
v 0.459075 0.268326 0.010709
v -0.105203 -0.538592 0.007530
v -0.513221 -0.150477 0.009579
v 0.146097 0.579745 -0.000000
v 0.327987 0.499928 -0.000000
v -0.508200 -0.314887 -0.000000
v -0.147140 -0.003705 0.044993
v 0.146051 0.034667 0.046010
v -0.160284 -0.376687 0.025276
v 0.119412 0.251529 0.038855
v -0.190358 0.293298 0.031828
v 0.459054 0.205684 0.014819
v 0.071907 -0.193354 0.042733
v -0.454960 -0.127298 0.017887
v 0.292109 -0.379260 0.017786
v 0.166294 -0.335942 0.029699
v 0.536208 0.068690 0.009289
v -0.048761 0.487172 0.016324
v -0.457021 0.296300 0.008201
v 0.428216 -0.151543 0.021137
v 0.060381 0.491997 0.015710
v 0.335921 0.364807 0.015879
v 0.000616 -0.544505 0.008315
v -0.199158 0.438143 0.017145
v 0.545178 -0.053224 0.008106
v 0.213306 0.559754 -0.000000
v -0.562375 -0.203751 -0.000000
v -0.306587 -0.442719 0.008977
v -0.228030 -0.218549 0.034249
v 0.237001 0.337539 0.026365
v 0.397182 -0.039376 0.027666
v 0.051155 0.078816 0.047615
v -0.075890 -0.099318 0.045877
v -0.092149 0.337258 0.032120
v 0.194411 -0.237666 0.036083
v -0.431783 0.057997 0.022428
v 0.017094 -0.397074 0.026932
v -0.224938 0.245084 0.033291
v 0.407629 0.227782 0.019733
v 0.376438 -0.300062 0.017527
v 0.204853 -0.503846 0.008556
v -0.412449 -0.166678 0.021217
v -0.360177 0.261805 0.021456
v -0.261618 -0.407421 0.016337
v -0.424380 -0.266319 0.014162
v 0.525520 0.125408 0.009333
v -0.017735 0.539754 0.009236
v 0.524324 -0.108463 0.009992
v 0.264765 0.422324 0.015453
v 0.098180 0.531556 0.009293
v -0.485937 0.248247 0.008067
v -0.360249 -0.409540 0.008016
v -0.122064 0.049017 0.045722
v 0.204712 0.037607 0.043356
v -0.228482 -0.068138 0.040076
v -0.088160 -0.280908 0.036213
v 0.036635 0.185953 0.044118
v 0.058926 -0.356297 0.030777
v 0.281350 -0.171907 0.034311
v 0.006172 0.379930 0.029517
v 0.168687 0.402838 0.023494
v -0.539714 -0.055442 0.008456
v -0.334430 0.145758 0.030062
v 0.300507 0.199561 0.031863
v -0.347201 -0.014472 0.031546
v -0.273496 -0.347916 0.021442
v -0.061936 -0.507171 0.012929
v 0.245833 -0.415178 0.017235
v 0.055133 -0.131939 0.045713
v 0.450126 -0.057559 0.021223
v 0.504260 -0.213696 0.008170
v 0.149175 -0.276351 0.035357
v 0.424898 0.107348 0.023271
v 0.434827 -0.314357 0.009774
v -0.368859 -0.350858 0.013076
v -0.404655 0.295390 0.014304
v 0.100486 -0.525472 0.009791
v -0.475146 -0.241360 0.009811
v 0.542959 0.006422 0.008879
v -0.107880 0.485148 0.015208
v 0.040773 0.541426 0.008897
v -0.378218 -0.220788 0.022048
v -0.482116 0.090089 0.015693
v -0.249268 0.436711 0.014199
v 0.284766 0.094290 0.037213
v -0.211324 -0.167192 0.037918
v -0.239392 0.038060 0.039968
v 0.238973 -0.018555 0.041430
v -0.068220 -0.225539 0.040461
v -0.087453 0.161887 0.043845
v 0.125035 0.358586 0.029835
v 0.065083 -0.030110 0.047953
v -0.042921 -0.388229 0.027501
v -0.003193 0.222989 0.042096
v -0.383432 0.153950 0.025024
v -0.251813 0.294853 0.027965
v 0.229094 -0.356934 0.024456
v -0.140407 0.436412 0.020145
v 0.355810 -0.240946 0.024018
v 0.351516 0.244029 0.024595
v 0.496996 -0.022337 0.015470
v -0.019503 0.434907 0.023287
v -0.486097 0.030273 0.016105
v -0.326280 0.363426 0.016078
v 0.398228 -0.360030 0.009713
v 0.511161 0.183992 0.008894
v -0.120511 -0.484022 0.014501
v 0.281541 0.377355 0.019247
v -0.444330 -0.066642 0.020741
v -0.325864 -0.320337 0.019731
v 0.406248 -0.095078 0.025609
v 0.111429 0.086472 0.046358
v 0.305940 -0.438716 0.009955
v -0.542561 -0.107131 0.006894
v 0.121034 -0.374904 0.027593
v 0.450257 -0.208130 0.015641
v 0.481377 0.089562 0.016629
v 0.042567 -0.508290 0.013251
v -0.218346 -0.366149 0.023337
v -0.135604 0.529646 0.008096
v -0.419242 0.341925 0.008763
v -0.111520 -0.187568 0.041407
v 0.273007 -0.074494 0.038364
v -0.337460 0.046241 0.032233
v -0.250367 -0.124017 0.037183
v 0.259223 0.151611 0.037247
v -0.139493 -0.430316 0.020372
v -0.164030 0.245162 0.036572
v 0.028311 0.317879 0.035356
v 0.103718 -0.087513 0.046256
v -0.088124 0.003582 0.047034
v -0.219264 0.146147 0.038704
v 0.027060 -0.235380 0.040721
v 0.040057 -0.296475 0.036260
v -0.016915 -0.484571 0.016499
v -0.232575 -0.311764 0.027363
v 0.162009 0.458559 0.017146
v 0.335804 -0.341292 0.017824
v -0.495794 -0.090389 0.013813
v -0.379717 0.383312 0.009005
v 0.197424 -0.450170 0.015973
v -0.115181 0.387629 0.026501
v 0.224411 0.388395 0.022060
v -0.231793 0.391115 0.020448
v 0.491275 0.032875 0.016220
v 0.392415 -0.195947 0.023019
v 0.500196 0.234736 0.007439
v -0.009130 0.070262 0.047855
v -0.292697 0.244641 0.028567
v 0.239062 -0.200103 0.035815
v -0.475046 0.148167 0.014754
v 0.008765 0.487505 0.016747
v 0.469760 0.146467 0.016322
v -0.375695 -0.289716 0.017594
v 0.354727 -0.399350 0.010087
v -0.400400 -0.105457 0.024761
v 0.471788 -0.263932 0.009242
v -0.508248 0.192967 0.008355
v -0.054569 -0.553970 0.006339
v 0.360559 0.186171 0.027106
v 0.257944 -0.471916 0.009501
v -0.171687 -0.056531 0.043398
v 0.168360 -0.116730 0.043220
v 0.261905 0.038024 0.039837
v 0.051642 0.251596 0.040266
v -0.146216 -0.275120 0.034700
v 0.121633 -0.023001 0.046796
v 0.162622 0.201361 0.040326
v -0.254704 0.097305 0.037912
v -0.100376 -0.384705 0.026643
v -0.066103 0.060474 0.047179
v -0.438376 -0.004214 0.022064
v -0.130418 0.292697 0.034593
v 0.096882 0.196585 0.042722
v 0.335121 -0.182341 0.029389
v 0.103584 -0.315947 0.033602
v 0.291014 0.320165 0.024040
v -0.344799 0.204205 0.026436
v 0.341954 -0.071181 0.032785
v -0.374623 0.091405 0.027960
v 0.009144 -0.170170 0.044323
v -0.324029 -0.195871 0.028440
v 0.076474 -0.414908 0.024398
v 0.106575 0.473379 0.017250
v 0.446174 -0.003656 0.022204
v 0.395921 0.351939 0.011039
v 0.415423 0.167185 0.022129
v -0.054559 0.384764 0.028381
v -0.466009 -0.183307 0.014205
v 0.154219 -0.536824 0.006374
v 0.273340 -0.320210 0.024893
v -0.270626 0.348081 0.022047
v -0.026165 -0.276356 0.037745
v -0.331012 -0.257977 0.024073
v 0.268087 0.471011 0.009113
v -0.158454 -0.522536 0.007909
v 0.196791 0.304173 0.031628
v -0.205632 -0.011234 0.042101
v -0.287236 0.058509 0.036246
v -0.051733 -0.046875 0.047476
v -0.168441 -0.214020 0.037770
v 0.180534 -0.016969 0.044611
v 0.074953 0.137225 0.045718
v -0.154206 0.143961 0.042213
v 0.298212 -0.017134 0.037219
v 0.229503 0.094814 0.041007
v -0.012712 -0.104444 0.046770
v 0.297269 -0.224974 0.030199
v -0.122266 -0.329642 0.031196
v 0.087740 0.307630 0.035459
v 0.032347 -0.453683 0.020397
v -0.361285 -0.150924 0.027153
v 0.439825 0.322911 0.008529
v -0.345310 -0.082835 0.030826
v -0.014696 0.272586 0.038819
v -0.174716 0.389221 0.023868
v -0.249908 0.196291 0.034495
v -0.268794 -0.178348 0.033676
v 0.087466 -0.255566 0.038653
v 0.182012 -0.175370 0.040231
v -0.213305 -0.508766 0.007039
v 0.372929 0.127156 0.028356
v -0.023290 -0.213330 0.041860
v 0.346739 0.304928 0.020447
v -0.074310 -0.444462 0.020708
v 0.147948 -0.486430 0.013625
v 0.436760 0.052150 0.023025
v -0.426089 0.252607 0.015079
v -0.428036 0.166040 0.019634
v -0.046731 0.118035 0.046293
v 0.171282 0.092279 0.044114
v -0.313379 0.098687 0.033374
v 0.239320 0.277158 0.031318
v -0.111789 -0.049590 0.045916
v -0.193980 -0.111455 0.040985
v -0.104067 0.106093 0.045249
v 0.305793 -0.125531 0.034376
v 0.027977 0.020422 0.048438
v 0.318202 0.042438 0.035404
v -0.071631 0.284001 0.037055
v 0.211239 -0.072969 0.042305
v 0.066538 0.369667 0.030158
v 0.368905 0.404228 0.008306
v -0.197908 -0.266667 0.032861
v 0.254800 -0.261214 0.030908
v -0.063013 -0.332597 0.032542
v -0.020000 -0.434317 0.022625
v -0.233148 0.486201 0.009174
v -0.189521 0.195267 0.038214
v -0.411265 -0.378616 0.006030
v 0.486281 -0.159262 0.013460
v -0.180157 0.041616 0.043313
v -0.200859 0.093772 0.041369
v -0.127575 0.200534 0.040727
v 0.003956 -0.038331 0.048172
v 0.181811 0.350466 0.028287
v -0.137107 -0.099849 0.043936
v 0.136473 0.144833 0.043882
v -0.152469 0.340646 0.029652
v -0.387760 0.024100 0.027572
v -0.299988 0.189661 0.031048
v 0.156075 -0.064865 0.045010
v 0.334756 0.093436 0.033001
v -0.178990 -0.322059 0.029486
v -0.284126 -0.290484 0.025513
v -0.307834 -0.135107 0.032506
v -0.538620 0.004856 0.009057
v 0.579140 -0.150185 -0.000000
v -0.117532 -0.236114 0.038406
v -0.105631 -0.139728 0.043687
v 0.161040 -0.577060 -0.000000
v 0.182659 0.254260 0.036176
v -0.109916 0.248044 0.038487
v 0.087156 0.028223 0.047712
v -0.308541 -0.039792 0.034684
v -0.528773 0.129011 0.008330
v 0.042444 -0.079678 0.047338
v -0.026377 0.173443 0.044505
v -0.339488 0.420599 0.008872
v 0.146211 0.303508 0.034033
v -0.439814 0.406674 -0.000000
v -0.191889 0.520534 0.006789
v -0.291356 0.456980 0.008723
v -0.293499 0.523074 -0.000000
v -0.259377 -0.024084 0.038620
v -0.237069 0.548894 -0.000000
v -0.393458 -0.042089 0.026772
v 0.058606 -0.557900 0.005904
v 0.539105 -0.154415 0.006127
g left_E10300_E13400_nu058
f 283 350 144
f 344 117 272
f 21 188 76
f 76 137 21
f 57 113 224
f 360 23 162
f 331 306 74
f 112 269 177
f 95 331 74
f 192 155 264
f 24 138 66
f 59 93 386
f 17 129 40
f 35 214 109
f 29 309 234
f 393 394 49
f 208 190 92
f 194 89 254
f 20 172 48
f 15 110 58
f 272 308 165
f 374 229 119
f 54 290 205
f 281 346 163
f 395 101 165
f 96 116 22
f 350 33 144
f 109 186 153
f 81 360 185
f 55 237 119
f 213 83 282
f 194 254 134
f 24 95 138
f 230 392 92
f 70 327 371
f 121 206 148
f 268 261 107
f 95 55 154
f 166 303 199
f 85 304 375
f 213 193 93
f 128 212 262
f 214 89 389
f 232 379 199
f 376 324 322
f 144 298 252
f 279 309 197
f 288 205 173
f 306 26 112
f 217 306 112
f 299 113 76
f 81 155 96
f 92 134 208
f 338 107 87
f 360 22 43
f 324 376 101
f 57 224 20
f 269 61 133
f 335 177 245
f 38 192 152
f 139 328 85
f 258 340 281
f 388 102 200
f 205 339 54
f 254 302 52
f 393 89 194
f 369 326 52
f 234 370 175
f 154 138 95
f 96 22 81
f 188 21 96
f 97 331 25
f 143 317 310
f 175 385 29
f 124 266 219
f 359 364 238
f 325 350 102
f 58 157 14
f 161 338 129
f 138 154 108
f 391 250 16
f 87 153 338
f 47 230 15
f 110 128 157
f 48 377 19
f 83 377 172
f 112 26 1
f 217 237 74
f 113 57 137
f 95 74 55
f 116 96 21
f 362 363 197
f 345 367 272
f 28 356 203
f 30 354 139
f 148 238 121
f 291 317 100
f 299 152 124
f 249 124 219
f 54 261 193
f 18 386 42
f 110 190 128
f 262 157 128
f 231 391 40
f 108 220 185
f 304 192 264
f 245 177 133
f 134 92 358
f 23 360 43
f 137 76 113
f 162 138 108
f 79 161 17
f 16 250 389
f 311 196 139
f 119 229 55
f 281 241 27
f 232 380 67
f 33 170 298
f 369 121 283
f 193 213 146
f 370 290 146
f 148 359 238
f 259 327 148
f 192 322 152
f 38 299 188
f 186 338 153
f 153 35 109
f 176 108 154
f 264 81 185
f 38 188 155
f 194 134 358
f 157 58 110
f 18 59 386
f 79 42 268
f 386 261 268
f 23 66 162
f 163 362 117
f 29 197 309
f 345 235 196
f 379 166 199
f 280 319 119
f 212 298 170
f 113 249 224
f 288 371 259
f 327 70 242
f 302 206 52
f 254 52 326
f 175 29 234
f 219 282 83
f 154 229 176
f 375 246 30
f 1 61 269
f 269 112 1
f 317 143 100
f 172 249 83
f 220 304 264
f 185 162 108
f 109 231 186
f 186 129 338
f 188 96 155
f 69 128 190
f 110 230 190
f 192 38 155
f 304 292 192
f 193 146 54
f 386 93 193
f 358 392 396
f 24 25 95
f 139 85 30
f 367 345 67
f 362 308 117
f 314 363 36
f 100 199 333
f 346 36 163
f 356 28 303
f 203 335 357
f 339 87 107
f 290 173 205
f 35 259 206
f 302 254 89
f 326 134 254
f 208 69 190
f 212 69 298
f 377 83 213
f 35 302 214
f 214 389 250
f 217 112 177
f 219 83 249
f 220 108 176
f 220 264 185
f 161 268 107
f 224 172 20
f 93 59 19
f 229 154 55
f 30 246 354
f 230 92 190
f 109 250 231
f 231 129 186
f 113 299 124
f 67 311 232
f 380 100 143
f 173 342 70
f 282 370 146
f 235 328 196
f 235 165 101
f 237 55 74
f 217 335 237
f 102 364 200
f 238 283 121
f 241 310 27
f 241 163 117
f 363 314 242
f 70 279 242
f 203 357 147
f 276 319 166
f 249 113 124
f 249 172 224
f 250 109 214
f 326 369 252
f 252 69 208
f 128 69 212
f 134 326 208
f 241 281 163
f 259 35 153
f 259 148 206
f 261 339 107
f 386 193 261
f 264 155 81
f 377 213 93
f 266 324 397
f 266 124 152
f 161 107 338
f 268 161 79
f 162 66 138
f 269 133 177
f 230 47 392
f 110 15 230
f 129 17 161
f 129 231 40
f 235 345 165
f 117 344 241
f 311 354 276
f 374 119 319
f 363 242 279
f 279 70 342
f 335 203 280
f 280 119 237
f 340 388 200
f 281 27 258
f 282 146 213
f 219 397 282
f 144 369 283
f 350 383 102
f 288 259 153
f 288 87 205
f 194 358 393
f 342 173 290
f 290 54 146
f 291 100 333
f 292 85 328
f 322 192 292
f 298 69 252
f 298 144 33
f 299 38 152
f 299 76 188
f 302 35 206
f 302 89 214
f 303 166 356
f 303 333 199
f 85 375 30
f 304 85 292
f 306 97 26
f 306 217 74
f 308 272 117
f 395 197 29
f 309 342 234
f 310 365 27
f 310 344 143
f 311 67 196
f 276 379 311
f 314 359 242
f 314 200 364
f 229 374 246
f 280 356 319
f 101 376 235
f 322 266 152
f 324 266 322
f 175 397 324
f 325 102 204
f 326 252 208
f 70 371 173
f 327 242 359
f 328 376 292
f 328 139 196
f 331 95 25
f 331 97 306
f 199 100 232
f 335 280 237
f 335 217 177
f 176 375 220
f 229 246 176
f 153 87 288
f 339 261 54
f 339 205 87
f 340 200 346
f 342 309 279
f 342 290 234
f 344 367 143
f 344 310 241
f 345 196 67
f 345 272 165
f 346 281 340
f 346 314 36
f 350 325 33
f 350 283 383
f 354 311 139
f 354 374 276
f 356 280 203
f 356 166 319
f 357 335 245
f 394 393 358
f 359 314 364
f 359 148 327
f 360 81 22
f 360 162 185
f 362 163 36
f 362 197 308
f 52 206 121
f 363 362 36
f 363 279 197
f 364 383 238
f 200 314 346
f 365 310 317
f 367 380 143
f 367 344 272
f 369 52 121
f 369 144 252
f 370 282 397
f 370 234 290
f 371 288 173
f 371 327 259
f 374 354 246
f 374 319 276
f 375 176 246
f 375 304 220
f 376 328 235
f 376 322 292
f 377 93 19
f 377 48 172
f 379 232 311
f 379 276 166
f 380 367 67
f 380 232 100
f 383 364 102
f 383 283 238
f 385 175 324
f 386 268 42
f 101 395 385
f 340 86 388
f 388 204 102
f 389 49 16
f 391 231 250
f 392 358 92
f 393 49 389
f 389 89 393
f 197 395 308
f 394 358 396
f 395 165 308
f 395 29 385
f 396 392 47
f 397 219 266
f 397 175 370
f 324 101 385
g right_E7700_E7600_nu065
f 287 343 34
f 277 372 312
f 321 228 105
f 265 223 62
f 7 399 378
f 88 126 225
f 215 184 150
f 226 267 181
f 72 94 180
f 5 265 62
f 180 221 72
f 136 75 56
f 11 115 73
f 218 253 140
f 191 14 157
f 39 247 171
f 332 297 270
f 11 353 60
f 296 353 132
f 122 216 257
f 46 189 64
f 187 300 336
f 384 222 142
f 41 151 80
f 240 277 202
f 71 330 37
f 130 361 72
f 223 271 4
f 111 323 90
f 248 215 150
f 127 255 189
f 212 170 84
f 160 191 131
f 275 284 120
f 198 274 164
f 91 347 233
f 104 256 209
f 271 251 151
f 330 71 145
f 106 382 278
f 60 296 10
f 293 168 147
f 178 207 88
f 63 267 184
f 135 7 64
f 65 9 216
f 263 122 297
f 50 316 236
f 289 347 51
f 168 244 28
f 31 289 141
f 158 135 94
f 305 73 115
f 160 114 13
f 181 77 399
f 78 111 257
f 105 53 293
f 8 127 46
f 68 373 332
f 84 294 131
f 207 126 88
f 297 183 263
f 10 323 44
f 91 351 273
f 71 182 145
f 211 94 135
f 352 170 239
f 247 39 56
f 82 349 31
f 244 303 28
f 260 318 169
f 103 182 126
f 209 150 104
f 267 6 181
f 321 357 245
f 98 201 171
f 236 174 106
f 131 191 262
f 149 111 90
f 51 256 130
f 114 75 136
f 240 37 273
f 278 50 106
f 239 275 320
f 156 227 127
f 123 329 71
f 45 215 5
f 251 178 88
f 32 355 301
f 127 8 156
f 295 337 99
f 130 72 221
f 256 226 130
f 114 160 75
f 131 262 84
f 73 218 132
f 141 295 99
f 64 189 135
f 120 278 382
f 141 99 31
f 289 221 141
f 348 365 202
f 167 313 284
f 71 37 123
f 355 145 103
f 293 321 105
f 28 147 168
f 210 270 149
f 111 122 257
f 32 248 150
f 251 271 178
f 80 151 300
f 156 65 216
f 183 227 263
f 14 191 13
f 158 7 135
f 159 39 253
f 305 115 12
f 75 294 247
f 160 13 191
f 258 27 348
f 164 118 312
f 174 236 68
f 278 284 368
f 313 142 222
f 225 293 53
f 147 28 203
f 91 260 169
f 209 318 32
f 170 33 239
f 171 253 39
f 247 56 75
f 68 270 174
f 271 151 41
f 178 125 207
f 179 123 37
f 94 72 158
f 361 226 181
f 181 6 77
f 329 182 71
f 182 103 145
f 297 332 183
f 216 263 156
f 45 63 184
f 184 104 150
f 210 334 34
f 353 11 73
f 3 398 2
f 189 46 127
f 189 211 135
f 191 157 262
f 82 31 99
f 316 195 236
f 273 330 91
f 315 274 198
f 303 244 243
f 98 352 201
f 171 366 253
f 118 384 277
f 240 387 179
f 167 388 86
f 167 275 204
f 336 53 105
f 300 187 3
f 125 248 301
f 207 103 126
f 209 32 150
f 347 285 51
f 210 34 174
f 210 149 90
f 211 189 255
f 215 45 184
f 248 265 215
f 257 9 78
f 65 156 8
f 140 287 218
f 218 73 159
f 221 180 141
f 221 51 130
f 341 118 164
f 142 313 86
f 223 125 178
f 223 4 62
f 286 329 244
f 225 53 88
f 56 12 136
f 39 305 56
f 226 104 267
f 227 183 337
f 133 2 398
f 105 228 187
f 349 315 31
f 347 91 169
f 236 195 68
f 236 106 50
f 120 390 320
f 240 202 387
f 164 312 198
f 123 291 243
f 291 333 243
f 329 243 244
f 286 168 225
f 245 133 228
f 294 75 160
f 98 247 294
f 125 301 207
f 248 125 265
f 251 88 53
f 251 336 151
f 253 218 159
f 366 171 201
f 255 127 227
f 255 295 211
f 256 104 226
f 256 285 209
f 122 111 149
f 334 132 287
f 90 296 334
f 142 86 258
f 260 91 330
f 145 355 260
f 262 212 84
f 263 227 156
f 265 5 215
f 265 125 223
f 126 286 225
f 267 63 6
f 267 104 184
f 361 130 226
f 270 210 174
f 270 297 149
f 271 41 4
f 271 223 178
f 295 141 180
f 94 211 180
f 37 240 179
f 351 91 233
f 274 349 195
f 274 316 164
f 275 325 204
f 277 240 372
f 348 384 142
f 307 343 140
f 278 120 284
f 278 368 50
f 285 256 51
f 285 169 318
f 286 126 182
f 286 244 168
f 287 140 343
f 287 132 218
f 289 315 233
f 289 51 221
f 291 123 179
f 247 98 171
f 160 131 294
f 295 180 211
f 296 132 334
f 323 10 296
f 332 270 68
f 297 122 149
f 82 183 332
f 255 227 337
f 187 336 105
f 300 381 80
f 301 248 32
f 301 103 207
f 305 12 56
f 305 39 159
f 9 257 216
f 140 366 307
f 390 201 320
f 312 351 198
f 312 118 277
f 313 368 284
f 315 289 31
f 315 198 233
f 316 274 195
f 316 341 164
f 317 387 365
f 317 291 179
f 318 260 355
f 318 209 285
f 320 275 120
f 320 352 239
f 321 245 228
f 321 293 147
f 111 44 323
f 323 296 90
f 325 239 33
f 294 84 98
f 329 123 243
f 329 286 182
f 330 273 37
f 330 145 260
f 216 122 263
f 373 68 195
f 183 82 337
f 333 303 243
f 293 225 168
f 334 287 34
f 334 210 90
f 336 300 151
f 336 251 53
f 337 82 99
f 337 295 255
f 340 258 86
f 73 305 159
f 341 222 118
f 341 316 50
f 343 106 34
f 307 382 343
f 347 289 233
f 347 169 285
f 384 202 277
f 348 142 258
f 349 274 315
f 82 373 349
f 351 372 273
f 351 233 198
f 352 84 170
f 352 320 201
f 353 73 132
f 355 32 318
f 355 103 301
f 167 86 313
f 357 321 147
f 239 325 275
f 365 348 27
f 366 140 253
f 366 201 390
f 368 341 50
f 368 222 341
f 111 78 44
f 372 240 273
f 372 351 312
f 373 82 332
f 373 195 349
f 228 398 187
f 106 343 382
f 106 174 34
f 84 352 98
f 381 300 3
f 307 390 382
f 384 118 222
f 384 348 202
f 368 313 222
f 387 202 365
f 387 317 179
f 284 275 167
f 390 120 382
f 390 307 366
f 388 167 204
f 399 7 158
f 361 158 72
f 181 399 361
f 398 3 187
f 398 228 133
f 399 158 361
f 399 77 378
f 296 60 353
f 133 61 2
