# two-pattern disc, prestrain sf_wale=sf_course=1.2, p=1200 Pa
# left  half (x<0): E1=10300, E2=13400 N/m, nu=0.58
# right half (x>=0): E1=7700, E2=7600 N/m, nu=0.65
# per-face knit field FDM/data/2part/circle_face_directional_field.txt
# rest mesh data/circular_flat.off, metres, crown height 57.68 mm
v -0.086821 -0.591712 -0.000000
v 0.049477 -0.597957 -0.000000
v 0.103330 -0.588853 -0.000000
v 0.319076 -0.506639 -0.000000
v 0.425297 -0.421536 -0.000000
v 0.534698 -0.272062 -0.000000
v 0.589925 -0.100706 -0.000000
v 0.589305 0.105327 -0.000000
v 0.552765 0.231368 -0.000000
v 0.464920 0.376886 -0.000000
v 0.381713 0.462387 -0.000000
v 0.266057 0.535760 -0.000000
v 0.077015 0.593385 -0.000000
v 0.020637 0.598317 -0.000000
v -0.113865 0.588034 -0.000000
v -0.398768 0.445829 -0.000000
v -0.520207 0.296007 -0.000000
v -0.581631 0.142695 -0.000000
v -0.597972 0.037805 -0.000000
v -0.591869 -0.091000 -0.000000
v -0.538164 -0.264416 -0.000000
v -0.475555 -0.364413 -0.000000
v -0.407116 -0.439551 -0.000000
v -0.307968 -0.512708 -0.000000
v -0.263830 -0.537502 -0.000000
v -0.139526 -0.582548 -0.000000
v -0.031574 0.012129 0.057359
v -0.004253 -0.339666 0.038892
v -0.296459 0.011471 0.042836
v -0.245700 -0.264258 0.035941
v 0.353914 -0.003624 0.038588
v 0.316095 -0.282597 0.029381
v -0.032946 0.330896 0.040452
v 0.293773 0.257444 0.034382
v -0.311639 0.304213 0.027013
v -0.152772 0.089231 0.052186
v 0.119051 -0.153332 0.051949
v -0.429381 -0.216616 0.019996
v 0.216497 0.442192 0.019505
v -0.484373 0.350503 -0.000000
v 0.266488 -0.535854 -0.000000
v -0.567673 0.187891 -0.000000
v -0.443498 -0.401011 -0.000000
v 0.498867 0.330759 -0.000000
v 0.462133 -0.379879 -0.000000
v 0.597210 0.042420 -0.000000
v -0.173958 0.572538 -0.000000
v -0.597290 -0.025667 -0.000000
v -0.350551 0.484708 -0.000000
v 0.199560 0.151441 0.048742
v 0.368307 -0.135762 0.033775
v -0.212472 0.342504 0.031516
v 0.136426 -0.432249 0.024847
v -0.428724 0.115296 0.025635
v -0.203426 -0.421825 0.021929
v 0.214173 0.497931 0.010913
v -0.580740 -0.143234 -0.000000
v -0.047975 0.595913 -0.000000
v -0.590699 0.093560 -0.000000
v 0.425150 0.420560 -0.000000
v -0.013386 -0.597809 -0.000000
v 0.373168 -0.467076 -0.000000
v 0.501943 -0.324979 -0.000000
v 0.597050 -0.030994 -0.000000
v 0.573604 0.168579 -0.000000
v -0.361916 -0.476224 -0.000000
v -0.157328 -0.154344 0.049099
v 0.318081 0.144599 0.039242
v -0.080419 0.436442 0.026355
v -0.278113 0.145664 0.041383
v 0.133919 -0.215303 0.047667
v 0.465751 -0.109519 0.021522
v 0.319721 0.428069 0.012385
v -0.182363 -0.471794 0.016147
v 0.157580 0.514989 0.011531
v -0.509649 -0.208932 0.008621
v 0.558942 -0.212499 -0.000000
v 0.528969 0.278843 -0.000000
v -0.544816 0.247483 -0.000000
v 0.209558 -0.560046 -0.000000
v -0.422652 -0.324736 0.011708
v 0.377865 0.062146 0.035219
v -0.490447 -0.029920 0.018519
v 0.048135 0.434295 0.027868
v -0.283188 -0.233147 0.035289
v 0.013369 0.128310 0.055387
v -0.397977 0.210037 0.024829
v 0.183365 -0.394191 0.027609
v -0.287194 0.402506 0.018283
v 0.400118 0.287407 0.019483
v 0.236583 -0.133249 0.046622
v -0.168849 0.482653 0.015704
v -0.534973 0.063195 0.010842
v 0.498311 -0.070599 0.017444
v -0.250394 -0.470519 0.011707
v -0.472743 -0.295403 0.007496
v -0.201763 -0.562765 -0.000000
v 0.110937 0.416400 0.028815
v 0.401317 0.014058 0.032689
v -0.053336 -0.160584 0.052631
v -0.285404 -0.080987 0.042757
v -0.062661 0.222898 0.049317
v 0.211334 -0.298487 0.036650
v 0.414409 -0.255393 0.020135
v 0.089781 -0.471683 0.020693
v 0.233533 0.211662 0.043029
v -0.455580 0.204294 0.017358
v -0.316261 -0.381653 0.017735
v -0.365929 0.324958 0.019001
v -0.078905 0.536074 0.010616
v 0.459270 0.268447 0.012756
v -0.105240 -0.538742 0.008974
v -0.513412 -0.150531 0.011412
v 0.146097 0.579745 -0.000000
v 0.327987 0.499928 -0.000000
v -0.508200 -0.314887 -0.000000
v -0.147438 -0.003684 0.053580
v 0.146269 0.034754 0.054795
v -0.160462 -0.377038 0.030112
v 0.119562 0.251938 0.046274
v -0.190613 0.293674 0.037903
v 0.459319 0.205811 0.017653
v 0.071972 -0.193647 0.050899
v -0.455278 -0.127379 0.021308
v 0.292300 -0.379519 0.021190
v 0.166458 -0.336316 0.035379
v 0.536403 0.068719 0.011065
v -0.048806 0.487500 0.019443
v -0.457167 0.296395 0.009769
v 0.428562 -0.151663 0.025179
v 0.060408 0.492320 0.018713
v 0.336128 0.365047 0.018914
v 0.000603 -0.544676 0.009908
v -0.199299 0.438443 0.020421
v 0.545351 -0.053239 0.009656
v 0.213306 0.559754 -0.000000
v -0.562375 -0.203751 -0.000000
v -0.306697 -0.442867 0.010698
v -0.228355 -0.218816 0.040794
v 0.237234 0.337908 0.031403
v 0.397601 -0.039409 0.032954
v 0.051194 0.078993 0.056704
v -0.076080 -0.099463 0.054636
v -0.092292 0.337701 0.038251
v 0.194650 -0.237982 0.042981
v -0.432164 0.058053 0.026713
v 0.017074 -0.397471 0.032086
v -0.225247 0.245413 0.039646
v 0.407941 0.227970 0.023505
v 0.376687 -0.300265 0.020880
v 0.204915 -0.504013 0.010195
v -0.412791 -0.166805 0.025275
v -0.360484 0.262028 0.025555
v -0.261790 -0.407666 0.019465
v -0.424614 -0.266458 0.016874
v 0.525714 0.125458 0.011118
v -0.017751 0.539964 0.011000
v 0.524529 -0.108503 0.011904
v 0.264922 0.422595 0.018408
v 0.098212 0.531764 0.011070
v -0.486090 0.248325 0.009610
v -0.360361 -0.409662 0.009552
v -0.122326 0.049133 0.054447
v 0.205024 0.037692 0.051636
v -0.228863 -0.068221 0.047728
v -0.088327 -0.281276 0.043135
v 0.036650 0.186304 0.052540
v 0.058957 -0.356704 0.036664
v 0.281701 -0.172123 0.040869
v 0.006147 0.380399 0.035154
v 0.168831 0.403232 0.027984
v -0.539892 -0.055458 0.010073
v -0.334832 0.145938 0.035802
v 0.300868 0.199828 0.037951
v -0.347637 -0.014476 0.037572
v -0.273732 -0.348190 0.025546
v -0.061981 -0.507416 0.015406
v 0.245986 -0.415453 0.020534
v 0.055171 -0.132144 0.054444
v 0.450494 -0.057601 0.025281
v 0.504420 -0.213762 0.009734
v 0.149343 -0.276712 0.042117
v 0.425280 0.107456 0.027718
v 0.434990 -0.314477 0.011645
v -0.369048 -0.351028 0.015581
v -0.404883 0.295555 0.017037
v 0.100516 -0.525669 0.011666
v -0.475326 -0.241448 0.011689
v 0.543148 0.006426 0.010577
v -0.107954 0.485448 0.018114
v 0.040782 0.541628 0.010598
v -0.378546 -0.220966 0.026266
v -0.482412 0.090147 0.018693
v -0.249411 0.436956 0.016911
v 0.285158 0.094444 0.044321
v -0.211661 -0.167414 0.045162
v -0.239788 0.038139 0.047597
v 0.239328 -0.018566 0.049344
v -0.068379 -0.225864 0.048192
v -0.087647 0.162192 0.052211
v 0.125162 0.359031 0.035534
v 0.065145 -0.030136 0.057109
v -0.043005 -0.388623 0.032762
v -0.003249 0.223388 0.050131
v -0.383812 0.154106 0.029804
v -0.252099 0.295182 0.033304
v 0.229293 -0.357266 0.029135
v -0.140530 0.436767 0.023992
v 0.356129 -0.241166 0.028611
v 0.351848 0.244279 0.029295
v 0.497296 -0.022347 0.018428
v -0.019546 0.435329 0.027735
v -0.486403 0.030296 0.019185
v -0.326488 0.363656 0.019150
v 0.398375 -0.360166 0.011572
v 0.511340 0.184060 0.010594
v -0.120592 -0.484281 0.017279
v 0.281749 0.377657 0.022926
v -0.444690 -0.066688 0.024706
v -0.326118 -0.320570 0.023508
v 0.406644 -0.095166 0.030505
v 0.111584 0.086656 0.055209
v 0.306054 -0.438885 0.011861
v -0.542705 -0.107158 0.008214
v 0.121134 -0.375291 0.032873
v 0.450527 -0.208254 0.018633
v 0.481688 0.089626 0.019808
v 0.042574 -0.508543 0.015789
v -0.218557 -0.366462 0.027802
v -0.135652 0.529819 0.009644
v -0.419387 0.342041 0.010438
v -0.111743 -0.187839 0.049317
v 0.273388 -0.074590 0.045694
v -0.337894 0.046312 0.038388
v -0.250750 -0.124174 0.044285
v 0.259579 0.151851 0.044362
v -0.139621 -0.430640 0.024271
v -0.164289 0.245528 0.043551
v 0.028316 0.318348 0.042106
v 0.103852 -0.087644 0.055090
v -0.088339 0.003620 0.056010
v -0.219619 0.146385 0.046091
v 0.027047 -0.235723 0.048503
v 0.040065 -0.296868 0.043192
v -0.016949 -0.484871 0.019659
v -0.232837 -0.312075 0.032597
v 0.162111 0.458887 0.020424
v 0.336027 -0.341526 0.021234
v -0.496060 -0.090433 0.016455
v -0.379851 0.383447 0.010726
v 0.197534 -0.450445 0.019031
v -0.115320 0.388046 0.031561
v 0.224597 0.388751 0.026276
v -0.231986 0.391432 0.024353
v 0.491585 0.032901 0.019321
v 0.392757 -0.196118 0.027420
v 0.500341 0.234810 0.008862
v -0.009213 0.070428 0.056988
v -0.293034 0.244921 0.034022
v 0.239366 -0.200368 0.042661
v -0.475320 0.148255 0.017574
v 0.008754 0.487846 0.019947
v 0.470059 0.146568 0.019443
v -0.375954 -0.289904 0.020961
v 0.354861 -0.399507 0.012017
v -0.400789 -0.105548 0.029494
v 0.471954 -0.264028 0.011010
v -0.508415 0.193030 0.009952
v -0.054589 -0.554101 0.007554
v 0.360934 0.186383 0.032285
v 0.258033 -0.472089 0.011321
v -0.172012 -0.056599 0.051683
v 0.168601 -0.116904 0.051477
v 0.262286 0.038101 0.047446
v 0.051684 0.252022 0.047954
v -0.146445 -0.275466 0.041333
v 0.121805 -0.023017 0.055732
v 0.162848 0.201703 0.048027
v -0.255100 0.097466 0.045149
v -0.100508 -0.385083 0.031740
v -0.066280 0.060618 0.056182
v -0.438756 -0.004211 0.026281
v -0.130620 0.293110 0.041195
v 0.097005 0.196941 0.050879
v 0.335487 -0.182541 0.035007
v 0.103681 -0.316340 0.040028
v 0.291281 0.320484 0.028635
v -0.345162 0.204421 0.031485
v 0.342374 -0.071261 0.039050
v -0.375039 0.091513 0.033301
v 0.009092 -0.170430 0.052789
v -0.324396 -0.196071 0.033877
v 0.076518 -0.415287 0.029068
v 0.106639 0.473721 0.020548
v 0.446556 -0.003653 0.026449
v 0.396094 0.352102 0.013150
v 0.415779 0.167340 0.026359
v -0.054646 0.385215 0.033800
v -0.466266 -0.183402 0.016924
v 0.154252 -0.536955 0.007596
v 0.273587 -0.320513 0.029655
v -0.270866 0.348385 0.026258
v -0.026261 -0.276734 0.044960
v -0.331328 -0.258203 0.028678
v 0.268183 0.471190 0.010855
v -0.158509 -0.522689 0.009425
v 0.197017 0.304573 0.037670
v -0.205998 -0.011228 0.050138
v -0.287657 0.058607 0.043167
v -0.051889 -0.046928 0.056538
v -0.168720 -0.214308 0.044986
v 0.180808 -0.016976 0.053130
v 0.075039 0.137499 0.054445
v -0.154494 0.144221 0.050268
v 0.298622 -0.017144 0.044329
v 0.229841 0.094986 0.048839
v -0.012806 -0.104599 0.055700
v 0.297597 -0.225228 0.035972
v -0.122445 -0.330018 0.037162
v 0.087832 0.308085 0.042230
v 0.032347 -0.454029 0.024302
v -0.361672 -0.151069 0.032344
v 0.439972 0.323025 0.010160
v -0.345734 -0.082920 0.036716
v -0.014764 0.273029 0.046228
v -0.174892 0.389594 0.028426
v -0.250261 0.196567 0.041079
v -0.269162 -0.178561 0.040111
v 0.087551 -0.255926 0.046041
v 0.182259 -0.175624 0.047919
v -0.213367 -0.508899 0.008388
v 0.373333 0.127309 0.033774
v -0.023392 -0.213645 0.049857
v 0.347014 0.305188 0.024355
v -0.074394 -0.444804 0.024672
v 0.148014 -0.486682 0.016235
v 0.437148 0.052205 0.027426
v -0.426342 0.252757 0.017961
v -0.428367 0.166170 0.023385
v -0.046873 0.118282 0.055127
v 0.171540 0.092462 0.052537
v -0.313799 0.098828 0.039746
v 0.239598 0.277519 0.037301
v -0.112036 -0.049648 0.054681
v -0.194320 -0.111607 0.048811
v -0.104296 0.106309 0.053883
v 0.306181 -0.125687 0.040946
v 0.027968 0.020493 0.057684
v 0.318623 0.042512 0.042167
v -0.071771 0.284436 0.044127
v 0.211551 -0.073070 0.050387
v 0.066591 0.370132 0.035919
v 0.369026 0.404366 0.009894
v -0.198184 -0.266984 0.039143
v 0.255082 -0.261517 0.036818
v -0.063134 -0.332993 0.038764
v -0.020051 -0.434682 0.026956
v -0.233235 0.486378 0.010927
v -0.189828 0.195575 0.045507
v -0.411361 -0.378701 0.007185
v 0.486534 -0.159343 0.016034
v -0.180494 0.041711 0.051580
v -0.201211 0.093944 0.049264
v -0.127812 0.200874 0.048499
v 0.003893 -0.038369 0.057368
v 0.181998 0.350878 0.033691
v -0.137383 -0.099991 0.052325
v 0.136669 0.145107 0.052260
v -0.152665 0.341054 0.035313
v -0.388182 0.024136 0.032839
v -0.300362 0.189899 0.036976
v 0.156303 -0.064954 0.053606
v 0.335172 0.093571 0.039306
v -0.179218 -0.322405 0.035125
v -0.284418 -0.290755 0.030394
v -0.308235 -0.135260 0.038717
v -0.538810 0.004859 0.010789
v 0.579140 -0.150185 -0.000000
v -0.117747 -0.236438 0.045744
v -0.105857 -0.139935 0.052030
v 0.161040 -0.577060 -0.000000
v 0.182894 0.254643 0.043086
v -0.110113 0.248437 0.045832
v 0.087265 0.028304 0.056821
v -0.308970 -0.039829 0.041308
v -0.528945 0.129054 0.009923
v 0.042459 -0.079793 0.056377
v -0.026478 0.173777 0.052998
v -0.339608 0.420745 0.010568
v 0.146383 0.303937 0.040534
v -0.439814 0.406674 -0.000000
v -0.191944 0.520675 0.008087
v -0.291459 0.457136 0.010390
v -0.293499 0.523074 -0.000000
v -0.259787 -0.024100 0.045994
v -0.237069 0.548894 -0.000000
v -0.393873 -0.042122 0.031888
v 0.058615 -0.558023 0.007035
v 0.539235 -0.154450 0.007299
g left_E10300_E13400_nu058
f 283 350 144
f 344 117 272
f 21 188 76
f 76 137 21
f 57 113 224
f 360 23 162
f 331 306 74
f 112 269 177
f 95 331 74
f 192 155 264
f 24 138 66
f 59 93 386
f 17 129 40
f 35 214 109
f 29 309 234
f 393 394 49
f 208 190 92
f 194 89 254
f 20 172 48
f 15 110 58
f 272 308 165
f 374 229 119
f 54 290 205
f 281 346 163
f 395 101 165
f 96 116 22
f 350 33 144
f 109 186 153
f 81 360 185
f 55 237 119
f 213 83 282
f 194 254 134
f 24 95 138
f 230 392 92
f 70 327 371
f 121 206 148
f 268 261 107
f 95 55 154
f 166 303 199
f 85 304 375
f 213 193 93
f 128 212 262
f 214 89 389
f 232 379 199
f 376 324 322
f 144 298 252
f 279 309 197
f 288 205 173
f 306 26 112
f 217 306 112
f 299 113 76
f 81 155 96
f 92 134 208
f 338 107 87
f 360 22 43
f 324 376 101
f 57 224 20
f 269 61 133
f 335 177 245
f 38 192 152
f 139 328 85
f 258 340 281
f 388 102 200
f 205 339 54
f 254 302 52
f 393 89 194
f 369 326 52
f 234 370 175
f 154 138 95
f 96 22 81
f 188 21 96
f 97 331 25
f 143 317 310
f 175 385 29
f 124 266 219
f 359 364 238
f 325 350 102
f 58 157 14
f 161 338 129
f 138 154 108
f 391 250 16
f 87 153 338
f 47 230 15
f 110 128 157
f 48 377 19
f 83 377 172
f 112 26 1
f 217 237 74
f 113 57 137
f 95 74 55
f 116 96 21
f 362 363 197
f 345 367 272
f 28 356 203
f 30 354 139
f 148 238 121
f 291 317 100
f 299 152 124
f 249 124 219
f 54 261 193
f 18 386 42
f 110 190 128
f 262 157 128
f 231 391 40
f 108 220 185
f 304 192 264
f 245 177 133
f 134 92 358
f 23 360 43
f 137 76 113
f 162 138 108
f 79 161 17
f 16 250 389
f 311 196 139
f 119 229 55
f 281 241 27
f 232 380 67
f 33 170 298
f 369 121 283
f 193 213 146
f 370 290 146
f 148 359 238
f 259 327 148
f 192 322 152
f 38 299 188
f 186 338 153
f 153 35 109
f 176 108 154
f 264 81 185
f 38 188 155
f 194 134 358
f 157 58 110
f 18 59 386
f 79 42 268
f 386 261 268
f 23 66 162
f 163 362 117
f 29 197 309
f 345 235 196
f 379 166 199
f 280 319 119
f 212 298 170
f 113 249 224
f 288 371 259
f 327 70 242
f 302 206 52
f 254 52 326
f 175 29 234
f 219 282 83
f 154 229 176
f 375 246 30
f 1 61 269
f 269 112 1
f 317 143 100
f 172 249 83
f 220 304 264
f 185 162 108
f 109 231 186
f 186 129 338
f 188 96 155
f 69 128 190
f 110 230 190
f 192 38 155
f 304 292 192
f 193 146 54
f 386 93 193
f 358 392 396
f 24 25 95
f 139 85 30
f 367 345 67
f 362 308 117
f 314 363 36
f 100 199 333
f 346 36 163
f 356 28 303
f 203 335 357
f 339 87 107
f 290 173 205
f 35 259 206
f 302 254 89
f 326 134 254
f 208 69 190
f 212 69 298
f 377 83 213
f 35 302 214
f 214 389 250
f 217 112 177
f 219 83 249
f 220 108 176
f 220 264 185
f 161 268 107
f 224 172 20
f 93 59 19
f 229 154 55
f 30 246 354
f 230 92 190
f 109 250 231
f 231 129 186
f 113 299 124
f 67 311 232
f 380 100 143
f 173 342 70
f 282 370 146
f 235 328 196
f 235 165 101
f 237 55 74
f 217 335 237
f 102 364 200
f 238 283 121
f 241 310 27
f 241 163 117
f 363 314 242
f 70 279 242
f 203 357 147
f 276 319 166
f 249 113 124
f 249 172 224
f 250 109 214
f 326 369 252
f 252 69 208
f 128 69 212
f 134 326 208
f 241 281 163
f 259 35 153
f 259 148 206
f 261 339 107
f 386 193 261
f 264 155 81
f 377 213 93
f 266 324 397
f 266 124 152
f 161 107 338
f 268 161 79
f 162 66 138
f 269 133 177
f 230 47 392
f 110 15 230
f 129 17 161
f 129 231 40
f 235 345 165
f 117 344 241
f 311 354 276
f 374 119 319
f 363 242 279
f 279 70 342
f 335 203 280
f 280 119 237
f 340 388 200
f 281 27 258
f 282 146 213
f 219 397 282
f 144 369 283
f 350 383 102
f 288 259 153
f 288 87 205
f 194 358 393
f 342 173 290
f 290 54 146
f 291 100 333
f 292 85 328
f 322 192 292
f 298 69 252
f 298 144 33
f 299 38 152
f 299 76 188
f 302 35 206
f 302 89 214
f 303 166 356
f 303 333 199
f 85 375 30
f 304 85 292
f 306 97 26
f 306 217 74
f 308 272 117
f 395 197 29
f 309 342 234
f 310 365 27
f 310 344 143
f 311 67 196
f 276 379 311
f 314 359 242
f 314 200 364
f 229 374 246
f 280 356 319
f 101 376 235
f 322 266 152
f 324 266 322
f 175 397 324
f 325 102 204
f 326 252 208
f 70 371 173
f 327 242 359
f 328 376 292
f 328 139 196
f 331 95 25
f 331 97 306
f 199 100 232
f 335 280 237
f 335 217 177
f 176 375 220
f 229 246 176
f 153 87 288
f 339 261 54
f 339 205 87
f 340 200 346
f 342 309 279
f 342 290 234
f 344 367 143
f 344 310 241
f 345 196 67
f 345 272 165
f 346 281 340
f 346 314 36
f 350 325 33
f 350 283 383
f 354 311 139
f 354 374 276
f 356 280 203
f 356 166 319
f 357 335 245
f 394 393 358
f 359 314 364
f 359 148 327
f 360 81 22
f 360 162 185
f 362 163 36
f 362 197 308
f 52 206 121
f 363 362 36
f 363 279 197
f 364 383 238
f 200 314 346
f 365 310 317
f 367 380 143
f 367 344 272
f 369 52 121
f 369 144 252
f 370 282 397
f 370 234 290
f 371 288 173
f 371 327 259
f 374 354 246
f 374 319 276
f 375 176 246
f 375 304 220
f 376 328 235
f 376 322 292
f 377 93 19
f 377 48 172
f 379 232 311
f 379 276 166
f 380 367 67
f 380 232 100
f 383 364 102
f 383 283 238
f 385 175 324
f 386 268 42
f 101 395 385
f 340 86 388
f 388 204 102
f 389 49 16
f 391 231 250
f 392 358 92
f 393 49 389
f 389 89 393
f 197 395 308
f 394 358 396
f 395 165 308
f 395 29 385
f 396 392 47
f 397 219 266
f 397 175 370
f 324 101 385
g right_E7700_E7600_nu065
f 287 343 34
f 277 372 312
f 321 228 105
f 265 223 62
f 7 399 378
f 88 126 225
f 215 184 150
f 226 267 181
f 72 94 180
f 5 265 62
f 180 221 72
f 136 75 56
f 11 115 73
f 218 253 140
f 191 14 157
f 39 247 171
f 332 297 270
f 11 353 60
f 296 353 132
f 122 216 257
f 46 189 64
f 187 300 336
f 384 222 142
f 41 151 80
f 240 277 202
f 71 330 37
f 130 361 72
f 223 271 4
f 111 323 90
f 248 215 150
f 127 255 189
f 212 170 84
f 160 191 131
f 275 284 120
f 198 274 164
f 91 347 233
f 104 256 209
f 271 251 151
f 330 71 145
f 106 382 278
f 60 296 10
f 293 168 147
f 178 207 88
f 63 267 184
f 135 7 64
f 65 9 216
f 263 122 297
f 50 316 236
f 289 347 51
f 168 244 28
f 31 289 141
f 158 135 94
f 305 73 115
f 160 114 13
f 181 77 399
f 78 111 257
f 105 53 293
f 8 127 46
f 68 373 332
f 84 294 131
f 207 126 88
f 297 183 263
f 10 323 44
f 91 351 273
f 71 182 145
f 211 94 135
f 352 170 239
f 247 39 56
f 82 349 31
f 244 303 28
f 260 318 169
f 103 182 126
f 209 150 104
f 267 6 181
f 321 357 245
f 98 201 171
f 236 174 106
f 131 191 262
f 149 111 90
f 51 256 130
f 114 75 136
f 240 37 273
f 278 50 106
f 239 275 320
f 156 227 127
f 123 329 71
f 45 215 5
f 251 178 88
f 32 355 301
f 127 8 156
f 295 337 99
f 130 72 221
f 256 226 130
f 114 160 75
f 131 262 84
f 73 218 132
f 141 295 99
f 64 189 135
f 120 278 382
f 141 99 31
f 289 221 141
f 348 365 202
f 167 313 284
f 71 37 123
f 355 145 103
f 293 321 105
f 28 147 168
f 210 270 149
f 111 122 257
f 32 248 150
f 251 271 178
f 80 151 300
f 156 65 216
f 183 227 263
f 14 191 13
f 158 7 135
f 159 39 253
f 305 115 12
f 75 294 247
f 160 13 191
f 258 27 348
f 164 118 312
f 174 236 68
f 278 284 368
f 313 142 222
f 225 293 53
f 147 28 203
f 91 260 169
f 209 318 32
f 170 33 239
f 171 253 39
f 247 56 75
f 68 270 174
f 271 151 41
f 178 125 207
f 179 123 37
f 94 72 158
f 361 226 181
f 181 6 77
f 329 182 71
f 182 103 145
f 297 332 183
f 216 263 156
f 45 63 184
f 184 104 150
f 210 334 34
f 353 11 73
f 3 398 2
f 189 46 127
f 189 211 135
f 191 157 262
f 82 31 99
f 316 195 236
f 273 330 91
f 315 274 198
f 303 244 243
f 98 352 201
f 171 366 253
f 118 384 277
f 240 387 179
f 167 388 86
f 167 275 204
f 336 53 105
f 300 187 3
f 125 248 301
f 207 103 126
f 209 32 150
f 347 285 51
f 210 34 174
f 210 149 90
f 211 189 255
f 215 45 184
f 248 265 215
f 257 9 78
f 65 156 8
f 140 287 218
f 218 73 159
f 221 180 141
f 221 51 130
f 341 118 164
f 142 313 86
f 223 125 178
f 223 4 62
f 286 329 244
f 225 53 88
f 56 12 136
f 39 305 56
f 226 104 267
f 227 183 337
f 133 2 398
f 105 228 187
f 349 315 31
f 347 91 169
f 236 195 68
f 236 106 50
f 120 390 320
f 240 202 387
f 164 312 198
f 123 291 243
f 291 333 243
f 329 243 244
f 286 168 225
f 245 133 228
f 294 75 160
f 98 247 294
f 125 301 207
f 248 125 265
f 251 88 53
f 251 336 151
f 253 218 159
f 366 171 201
f 255 127 227
f 255 295 211
f 256 104 226
f 256 285 209
f 122 111 149
f 334 132 287
f 90 296 334
f 142 86 258
f 260 91 330
f 145 355 260
f 262 212 84
f 263 227 156
f 265 5 215
f 265 125 223
f 126 286 225
f 267 63 6
f 267 104 184
f 361 130 226
f 270 210 174
f 270 297 149
f 271 41 4
f 271 223 178
f 295 141 180
f 94 211 180
f 37 240 179
f 351 91 233
f 274 349 195
f 274 316 164
f 275 325 204
f 277 240 372
f 348 384 142
f 307 343 140
f 278 120 284
f 278 368 50
f 285 256 51
f 285 169 318
f 286 126 182
f 286 244 168
f 287 140 343
f 287 132 218
f 289 315 233
f 289 51 221
f 291 123 179
f 247 98 171
f 160 131 294
f 295 180 211
f 296 132 334
f 323 10 296
f 332 270 68
f 297 122 149
f 82 183 332
f 255 227 337
f 187 336 105
f 300 381 80
f 301 248 32
f 301 103 207
f 305 12 56
f 305 39 159
f 9 257 216
f 140 366 307
f 390 201 320
f 312 351 198
f 312 118 277
f 313 368 284
f 315 289 31
f 315 198 233
f 316 274 195
f 316 341 164
f 317 387 365
f 317 291 179
f 318 260 355
f 318 209 285
f 320 275 120
f 320 352 239
f 321 245 228
f 321 293 147
f 111 44 323
f 323 296 90
f 325 239 33
f 294 84 98
f 329 123 243
f 329 286 182
f 330 273 37
f 330 145 260
f 216 122 263
f 373 68 195
f 183 82 337
f 333 303 243
f 293 225 168
f 334 287 34
f 334 210 90
f 336 300 151
f 336 251 53
f 337 82 99
f 337 295 255
f 340 258 86
f 73 305 159
f 341 222 118
f 341 316 50
f 343 106 34
f 307 382 343
f 347 289 233
f 347 169 285
f 384 202 277
f 348 142 258
f 349 274 315
f 82 373 349
f 351 372 273
f 351 233 198
f 352 84 170
f 352 320 201
f 353 73 132
f 355 32 318
f 355 103 301
f 167 86 313
f 357 321 147
f 239 325 275
f 365 348 27
f 366 140 253
f 366 201 390
f 368 341 50
f 368 222 341
f 111 78 44
f 372 240 273
f 372 351 312
f 373 82 332
f 373 195 349
f 228 398 187
f 106 343 382
f 106 174 34
f 84 352 98
f 381 300 3
f 307 390 382
f 384 118 222
f 384 348 202
f 368 313 222
f 387 202 365
f 387 317 179
f 284 275 167
f 390 120 382
f 390 307 366
f 388 167 204
f 399 7 158
f 361 158 72
f 181 399 361
f 398 3 187
f 398 228 133
f 399 158 361
f 399 77 378
f 296 60 353
f 133 61 2
