# left nu=0.58, right nu=0.65, p=1000 Pa
# left  half (x<0): E1=10300, E2=13400 N/m
# right half (x>=0): E1=7700, E2=7600 N/m
# prestrain sf_wale=sf_course=1.0, per-face knit field from FDM/data/2part/circle_face_directional_field.txt
# rest mesh data/circular_flat.off, units metres, crown height 192.09 mm
v -0.086821 -0.591712 -0.000000
v 0.049477 -0.597957 -0.000000
v 0.103330 -0.588853 -0.000000
v 0.319076 -0.506639 -0.000000
v 0.425297 -0.421536 -0.000000
v 0.534698 -0.272062 -0.000000
v 0.589925 -0.100706 -0.000000
v 0.589305 0.105327 -0.000000
v 0.552765 0.231368 -0.000000
v 0.464920 0.376886 -0.000000
v 0.381713 0.462387 -0.000000
v 0.266057 0.535760 -0.000000
v 0.077015 0.593385 -0.000000
v 0.020637 0.598317 -0.000000
v -0.113865 0.588034 -0.000000
v -0.398768 0.445829 -0.000000
v -0.520207 0.296007 -0.000000
v -0.581631 0.142695 -0.000000
v -0.597972 0.037805 -0.000000
v -0.591869 -0.091000 -0.000000
v -0.538164 -0.264416 -0.000000
v -0.475555 -0.364413 -0.000000
v -0.407116 -0.439551 -0.000000
v -0.307968 -0.512708 -0.000000
v -0.263830 -0.537502 -0.000000
v -0.139526 -0.582548 -0.000000
v -0.023846 0.010415 0.192071
v 0.004381 -0.355532 0.132715
v -0.305689 0.010429 0.148343
v -0.250873 -0.276278 0.125736
v 0.372243 -0.003884 0.128511
v 0.329628 -0.292153 0.098802
v -0.027315 0.343909 0.138759
v 0.308259 0.267282 0.115432
v -0.318940 0.313305 0.095283
v -0.154273 0.092138 0.177333
v 0.132994 -0.162603 0.172806
v -0.438001 -0.222641 0.071974
v 0.223713 0.452590 0.066839
v -0.484373 0.350503 -0.000000
v 0.266488 -0.535854 -0.000000
v -0.567673 0.187891 -0.000000
v -0.443498 -0.401011 -0.000000
v 0.498867 0.330759 -0.000000
v 0.462133 -0.379879 -0.000000
v 0.597210 0.042420 -0.000000
v -0.173958 0.572538 -0.000000
v -0.597290 -0.025667 -0.000000
v -0.350551 0.484708 -0.000000
v 0.215208 0.158705 0.162051
v 0.385168 -0.140962 0.112919
v -0.216499 0.354186 0.110216
v 0.144621 -0.445059 0.084883
v -0.439487 0.118033 0.091150
v -0.205366 -0.433693 0.078362
v 0.218315 0.504770 0.037749
v -0.580740 -0.143234 -0.000000
v -0.047975 0.595913 -0.000000
v -0.590699 0.093560 -0.000000
v 0.425150 0.420560 -0.000000
v -0.013386 -0.597809 -0.000000
v 0.373168 -0.467076 -0.000000
v 0.501943 -0.324979 -0.000000
v 0.597050 -0.030994 -0.000000
v 0.573604 0.168579 -0.000000
v -0.361916 -0.476224 -0.000000
v -0.158395 -0.164296 0.167666
v 0.335268 0.150696 0.130881
v -0.078452 0.449152 0.092460
v -0.286357 0.150942 0.143352
v 0.147603 -0.226959 0.159102
v 0.479023 -0.112252 0.072527
v 0.325621 0.434700 0.042475
v -0.183287 -0.481673 0.058198
v 0.161325 0.522547 0.040053
v -0.514630 -0.211504 0.031555
v 0.558942 -0.212499 -0.000000
v 0.528969 0.278843 -0.000000
v -0.544816 0.247483 -0.000000
v 0.209558 -0.560046 -0.000000
v -0.427891 -0.330038 0.042784
v 0.395535 0.064531 0.117594
v -0.500136 -0.031221 0.066655
v 0.054471 0.447753 0.096451
v -0.290205 -0.243765 0.123747
v 0.022754 0.133367 0.185326
v -0.407503 0.215658 0.088138
v 0.193225 -0.406965 0.093689
v -0.291801 0.411123 0.065223
v 0.410801 0.294084 0.066027
v 0.253618 -0.140261 0.154846
v -0.169991 0.491688 0.056088
v -0.541568 0.063805 0.039407
v 0.509768 -0.072018 0.058927
v -0.252558 -0.477926 0.042742
v -0.476757 -0.298605 0.027540
v -0.201763 -0.562765 -0.000000
v 0.118726 0.429981 0.098793
v 0.418602 0.014530 0.109281
v -0.047225 -0.171449 0.177523
v -0.293880 -0.086378 0.148137
v -0.058719 0.232776 0.167327
v 0.224639 -0.310917 0.123077
v 0.425814 -0.261484 0.068074
v 0.096229 -0.483626 0.071290
v 0.248849 0.221212 0.143664
v -0.463891 0.208238 0.062322
v -0.321037 -0.390679 0.064121
v -0.372766 0.332144 0.067802
v -0.077838 0.542978 0.038185
v 0.467261 0.272690 0.043408
v -0.104431 -0.545030 0.032607
v -0.520070 -0.153149 0.041595
v 0.146097 0.579745 -0.000000
v 0.327987 0.499928 -0.000000
v -0.508200 -0.314887 -0.000000
v -0.148335 -0.005980 0.181717
v 0.161357 0.035784 0.181506
v -0.160902 -0.391198 0.105819
v 0.131338 0.263548 0.155232
v -0.194155 0.305150 0.131331
v 0.470137 0.210164 0.059772
v 0.084118 -0.205209 0.170072
v -0.465234 -0.131426 0.076461
v 0.301913 -0.389058 0.071853
v 0.178201 -0.349958 0.119312
v 0.544268 0.069695 0.037630
v -0.046160 0.498325 0.068854
v -0.462100 0.299925 0.035325
v 0.442960 -0.156070 0.084690
v 0.065224 0.503309 0.065373
v 0.345282 0.373328 0.064352
v 0.004465 -0.551903 0.034989
v -0.201685 0.448838 0.072523
v 0.552358 -0.053820 0.032798
v 0.213306 0.559754 -0.000000
v -0.562375 -0.203751 -0.000000
v -0.309595 -0.449341 0.039096
v -0.233172 -0.230175 0.141546
v 0.248919 0.349868 0.106138
v 0.414939 -0.040899 0.110149
v 0.062418 0.081811 0.188753
v -0.071631 -0.107243 0.184178
v -0.090460 0.350886 0.131971
v 0.209255 -0.249481 0.143588
v -0.443451 0.059011 0.094902
v 0.025222 -0.412674 0.110182
v -0.230731 0.255179 0.137252
v 0.420861 0.234249 0.079309
v 0.387761 -0.307665 0.070586
v 0.208963 -0.510462 0.035031
v -0.422830 -0.172724 0.090173
v -0.369123 0.269435 0.090459
v -0.265377 -0.418037 0.070053
v -0.431963 -0.272700 0.061093
v 0.533499 0.127224 0.037769
v -0.015056 0.546928 0.039489
v 0.532860 -0.110018 0.040381
v 0.272551 0.431995 0.062891
v 0.101370 0.539284 0.038732
v -0.491332 0.251149 0.034863
v -0.363727 -0.415102 0.035079
v -0.121659 0.049752 0.184174
v 0.221881 0.039135 0.171004
v -0.234630 -0.073526 0.163841
v -0.084553 -0.296030 0.147767
v 0.046282 0.194697 0.176116
v 0.068545 -0.371957 0.124633
v 0.298524 -0.180008 0.136190
v 0.012937 0.393999 0.121127
v 0.177711 0.416182 0.095454
v -0.546153 -0.056466 0.036707
v -0.344817 0.150688 0.125173
v 0.316929 0.208062 0.126878
v -0.358470 -0.016466 0.131279
v -0.278683 -0.359654 0.091023
v -0.059053 -0.517370 0.054816
v 0.254524 -0.425643 0.069840
v 0.067091 -0.141033 0.181474
v 0.465460 -0.059266 0.084945
v 0.511070 -0.216230 0.033135
v 0.162302 -0.289908 0.141242
v 0.440805 0.110873 0.093066
v 0.442049 -0.318943 0.039577
v -0.374579 -0.358475 0.056553
v -0.411959 0.301432 0.060985
v 0.104497 -0.533439 0.040426
v -0.481417 -0.245474 0.042684
v 0.550787 0.006522 0.035928
v -0.107393 0.495716 0.064415
v 0.043461 0.548865 0.037542
v -0.387672 -0.228841 0.093612
v -0.491964 0.091659 0.067217
v -0.252729 0.445692 0.060400
v 0.302986 0.098697 0.147280
v -0.215952 -0.177298 0.155548
v -0.246416 0.038317 0.163407
v 0.257091 -0.019966 0.163462
v -0.063126 -0.239285 0.163679
v -0.084970 0.169018 0.176782
v 0.134851 0.372860 0.120695
v 0.077462 -0.033422 0.189702
v -0.036947 -0.404101 0.113273
v 0.004666 0.233050 0.169214
v -0.394300 0.158567 0.105183
v -0.258122 0.305635 0.116330
v 0.240632 -0.369346 0.098428
v -0.141090 0.448639 0.084626
v 0.370349 -0.249108 0.096152
v 0.366020 0.252434 0.098553
v 0.509348 -0.022803 0.062231
v -0.014522 0.448236 0.096851
v -0.496312 0.030391 0.068933
v -0.332322 0.371777 0.068270
v 0.404948 -0.365222 0.039415
v 0.518613 0.186443 0.036055
v -0.119578 -0.494971 0.061832
v 0.291489 0.387875 0.077939
v -0.455639 -0.069502 0.088137
v -0.332587 -0.330492 0.084139
v 0.423135 -0.098476 0.102156
v 0.125116 0.090396 0.183266
v 0.311771 -0.445256 0.040507
v -0.547823 -0.108595 0.030025
v 0.131191 -0.389641 0.111545
v 0.461826 -0.212839 0.063019
v 0.494229 0.091767 0.066879
v 0.047524 -0.518621 0.055073
v -0.221555 -0.379355 0.098457
v -0.135811 0.536104 0.034798
v -0.424145 0.346377 0.037678
v -0.109656 -0.199564 0.167852
v 0.291461 -0.078535 0.151644
v -0.348476 0.046925 0.133882
v -0.257378 -0.131827 0.152947
v 0.276353 0.158808 0.147643
v -0.139076 -0.443789 0.085961
v -0.166681 0.255936 0.149650
v 0.036161 0.331603 0.143232
v 0.117618 -0.093773 0.182855
v -0.085019 0.001575 0.188675
v -0.225175 0.152107 0.158327
v 0.037211 -0.249262 0.163128
v 0.050033 -0.311788 0.145998
v -0.011267 -0.496968 0.068829
v -0.236969 -0.324891 0.114607
v 0.168673 0.470163 0.070286
v 0.346477 -0.350101 0.071861
v -0.504886 -0.092839 0.059442
v -0.384096 0.388489 0.038707
v 0.204773 -0.460824 0.065009
v -0.114864 0.401226 0.110019
v 0.234251 0.400600 0.089363
v -0.235943 0.402226 0.086049
v 0.504065 0.033681 0.065226
v 0.407378 -0.202318 0.092144
v 0.506256 0.237430 0.030210
v -0.000459 0.072184 0.190598
v -0.301007 0.253619 0.118914
v 0.255356 -0.209951 0.142211
v -0.484168 0.151017 0.063207
v 0.013529 0.498843 0.070322
v 0.482146 0.149968 0.065696
v -0.383369 -0.298098 0.075382
v 0.361159 -0.405390 0.040951
v -0.411776 -0.110251 0.104473
v 0.478997 -0.267606 0.037511
v -0.514142 0.195211 0.036097
v -0.052980 -0.559486 0.027195
v 0.376702 0.193124 0.108218
v 0.262985 -0.478689 0.038791
v -0.174393 -0.061671 0.175977
v 0.184276 -0.123902 0.170785
v 0.280316 0.039672 0.157317
v 0.061210 0.263472 0.161491
v -0.146374 -0.289481 0.142633
v 0.136220 -0.025414 0.184671
v 0.176751 0.211298 0.160225
v -0.262492 0.100634 0.155543
v -0.097809 -0.400141 0.110643
v -0.061621 0.061731 0.188944
v -0.450107 -0.005218 0.093469
v -0.131024 0.305217 0.141773
v 0.108830 0.206285 0.170030
v 0.351858 -0.189765 0.117043
v 0.114889 -0.330838 0.135013
v 0.303486 0.330990 0.096729
v -0.354692 0.211035 0.110624
v 0.360572 -0.074444 0.130041
v -0.386159 0.093870 0.117040
v 0.019507 -0.181689 0.176957
v -0.333166 -0.204901 0.119166
v 0.084881 -0.429652 0.099443
v 0.112383 0.485374 0.071165
v 0.462035 -0.003753 0.088799
v 0.403453 0.357840 0.044852
v 0.430336 0.172422 0.088655
v -0.051078 0.398783 0.117157
v -0.474605 -0.187853 0.061187
v 0.157038 -0.542171 0.026358
v 0.286165 -0.331478 0.099893
v -0.276523 0.358601 0.092624
v -0.018111 -0.291756 0.152673
v -0.339227 -0.267932 0.101756
v 0.272869 0.477605 0.037297
v -0.158750 -0.529203 0.034360
v 0.209409 0.316972 0.126832
v -0.210629 -0.013745 0.171331
v -0.296503 0.059804 0.149318
v -0.045851 -0.051920 0.189787
v -0.170248 -0.226452 0.154646
v 0.197142 -0.018624 0.175892
v 0.086742 0.143770 0.181436
v -0.156256 0.150066 0.171256
v 0.317126 -0.018206 0.147161
v 0.246859 0.099435 0.162022
v -0.003535 -0.112790 0.186498
v 0.313190 -0.234380 0.120343
v -0.120911 -0.345042 0.128777
v 0.097673 0.321340 0.142789
v 0.039072 -0.467487 0.084050
v -0.371793 -0.157898 0.114071
v 0.446110 0.327071 0.034652
v -0.356239 -0.087707 0.128532
v -0.007832 0.284674 0.157020
v -0.177034 0.401828 0.099727
v -0.257147 0.204314 0.142127
v -0.276231 -0.187989 0.139520
v 0.099364 -0.269435 0.154483
v 0.197678 -0.185120 0.159415
v -0.214372 -0.514617 0.030674
v 0.390162 0.132071 0.112963
v -0.014821 -0.226798 0.168229
v 0.358895 0.313897 0.082360
v -0.070815 -0.458520 0.086673
v 0.153718 -0.496400 0.055878
v 0.452863 0.053843 0.092051
v -0.434272 0.257968 0.064331
v -0.438280 0.170193 0.083310
v -0.040921 0.122486 0.185450
v 0.187071 0.096766 0.174216
v -0.323517 0.101812 0.138207
v 0.253300 0.288795 0.125271
v -0.110352 -0.054618 0.184789
v -0.197893 -0.119271 0.167075
v -0.102516 0.110126 0.182222
v 0.323870 -0.131477 0.136302
v 0.038422 0.019763 0.192095
v 0.337036 0.044274 0.140177
v -0.068614 0.296562 0.150843
v 0.228580 -0.077469 0.166962
v 0.074816 0.384184 0.122710
v 0.374313 0.409261 0.033885
v -0.201089 -0.280029 0.135967
v 0.269707 -0.272410 0.123319
v -0.058042 -0.348610 0.133251
v -0.013423 -0.449214 0.093520
v -0.235194 0.492927 0.039402
v -0.193728 0.203815 0.156190
v -0.414532 -0.382551 0.026452
v 0.496938 -0.162357 0.054302
v -0.183688 0.042012 0.175678
v -0.205742 0.097062 0.168429
v -0.128007 0.209641 0.165340
v 0.013949 -0.042791 0.191455
v 0.192816 0.363975 0.114077
v -0.137320 -0.107506 0.177671
v 0.150536 0.152077 0.173799
v -0.154100 0.353738 0.122617
v -0.399684 0.023889 0.115581
v -0.309076 0.196748 0.128836
v 0.171843 -0.069386 0.177614
v 0.353031 0.097478 0.130956
v -0.180805 -0.336457 0.122633
v -0.290639 -0.302101 0.107436
v -0.317205 -0.142535 0.135074
v -0.545456 0.004565 0.039256
v 0.579140 -0.150185 -0.000000
v -0.115930 -0.249790 0.156522
v -0.103495 -0.149579 0.176363
v 0.161040 -0.577060 -0.000000
v 0.196290 0.266047 0.144348
v -0.109303 0.259260 0.156612
v 0.100182 0.028557 0.188551
v -0.318552 -0.043172 0.143452
v -0.534942 0.130443 0.036176
v 0.053941 -0.086117 0.187724
v -0.019616 0.181116 0.178517
v -0.343222 0.426202 0.038069
v 0.157839 0.316893 0.136603
v -0.439814 0.406674 -0.000000
v -0.192901 0.525899 0.029165
v -0.294310 0.462913 0.037497
v -0.293499 0.523074 -0.000000
v -0.267310 -0.027019 0.158419
v -0.237069 0.548894 -0.000000
v -0.405328 -0.044818 0.112465
v 0.061185 -0.563073 0.024719
v 0.544532 -0.155819 0.024883
g left_E10300_E13400_nu058
f 283 350 144
f 344 117 272
f 21 188 76
f 76 137 21
f 57 113 224
f 360 23 162
f 331 306 74
f 112 269 177
f 95 331 74
f 192 155 264
f 24 138 66
f 59 93 386
f 17 129 40
f 35 214 109
f 29 309 234
f 393 394 49
f 208 190 92
f 194 89 254
f 20 172 48
f 15 110 58
f 272 308 165
f 374 229 119
f 54 290 205
f 281 346 163
f 395 101 165
f 96 116 22
f 350 33 144
f 109 186 153
f 81 360 185
f 55 237 119
f 213 83 282
f 194 254 134
f 24 95 138
f 230 392 92
f 70 327 371
f 121 206 148
f 268 261 107
f 95 55 154
f 166 303 199
f 85 304 375
f 213 193 93
f 128 212 262
f 214 89 389
f 232 379 199
f 376 324 322
f 144 298 252
f 279 309 197
f 288 205 173
f 306 26 112
f 217 306 112
f 299 113 76
f 81 155 96
f 92 134 208
f 338 107 87
f 360 22 43
f 324 376 101
f 57 224 20
f 269 61 133
f 335 177 245
f 38 192 152
f 139 328 85
f 258 340 281
f 388 102 200
f 205 339 54
f 254 302 52
f 393 89 194
f 369 326 52
f 234 370 175
f 154 138 95
f 96 22 81
f 188 21 96
f 97 331 25
f 143 317 310
f 175 385 29
f 124 266 219
f 359 364 238
f 325 350 102
f 58 157 14
f 161 338 129
f 138 154 108
f 391 250 16
f 87 153 338
f 47 230 15
f 110 128 157
f 48 377 19
f 83 377 172
f 112 26 1
f 217 237 74
f 113 57 137
f 95 74 55
f 116 96 21
f 362 363 197
f 345 367 272
f 28 356 203
f 30 354 139
f 148 238 121
f 291 317 100
f 299 152 124
f 249 124 219
f 54 261 193
f 18 386 42
f 110 190 128
f 262 157 128
f 231 391 40
f 108 220 185
f 304 192 264
f 245 177 133
f 134 92 358
f 23 360 43
f 137 76 113
f 162 138 108
f 79 161 17
f 16 250 389
f 311 196 139
f 119 229 55
f 281 241 27
f 232 380 67
f 33 170 298
f 369 121 283
f 193 213 146
f 370 290 146
f 148 359 238
f 259 327 148
f 192 322 152
f 38 299 188
f 186 338 153
f 153 35 109
f 176 108 154
f 264 81 185
f 38 188 155
f 194 134 358
f 157 58 110
f 18 59 386
f 79 42 268
f 386 261 268
f 23 66 162
f 163 362 117
f 29 197 309
f 345 235 196
f 379 166 199
f 280 319 119
f 212 298 170
f 113 249 224
f 288 371 259
f 327 70 242
f 302 206 52
f 254 52 326
f 175 29 234
f 219 282 83
f 154 229 176
f 375 246 30
f 1 61 269
f 269 112 1
f 317 143 100
f 172 249 83
f 220 304 264
f 185 162 108
f 109 231 186
f 186 129 338
f 188 96 155
f 69 128 190
f 110 230 190
f 192 38 155
f 304 292 192
f 193 146 54
f 386 93 193
f 358 392 396
f 24 25 95
f 139 85 30
f 367 345 67
f 362 308 117
f 314 363 36
f 100 199 333
f 346 36 163
f 356 28 303
f 203 335 357
f 339 87 107
f 290 173 205
f 35 259 206
f 302 254 89
f 326 134 254
f 208 69 190
f 212 69 298
f 377 83 213
f 35 302 214
f 214 389 250
f 217 112 177
f 219 83 249
f 220 108 176
f 220 264 185
f 161 268 107
f 224 172 20
f 93 59 19
f 229 154 55
f 30 246 354
f 230 92 190
f 109 250 231
f 231 129 186
f 113 299 124
f 67 311 232
f 380 100 143
f 173 342 70
f 282 370 146
f 235 328 196
f 235 165 101
f 237 55 74
f 217 335 237
f 102 364 200
f 238 283 121
f 241 310 27
f 241 163 117
f 363 314 242
f 70 279 242
f 203 357 147
f 276 319 166
f 249 113 124
f 249 172 224
f 250 109 214
f 326 369 252
f 252 69 208
f 128 69 212
f 134 326 208
f 241 281 163
f 259 35 153
f 259 148 206
f 261 339 107
f 386 193 261
f 264 155 81
f 377 213 93
f 266 324 397
f 266 124 152
f 161 107 338
f 268 161 79
f 162 66 138
f 269 133 177
f 230 47 392
f 110 15 230
f 129 17 161
f 129 231 40
f 235 345 165
f 117 344 241
f 311 354 276
f 374 119 319
f 363 242 279
f 279 70 342
f 335 203 280
f 280 119 237
f 340 388 200
f 281 27 258
f 282 146 213
f 219 397 282
f 144 369 283
f 350 383 102
f 288 259 153
f 288 87 205
f 194 358 393
f 342 173 290
f 290 54 146
f 291 100 333
f 292 85 328
f 322 192 292
f 298 69 252
f 298 144 33
f 299 38 152
f 299 76 188
f 302 35 206
f 302 89 214
f 303 166 356
f 303 333 199
f 85 375 30
f 304 85 292
f 306 97 26
f 306 217 74
f 308 272 117
f 395 197 29
f 309 342 234
f 310 365 27
f 310 344 143
f 311 67 196
f 276 379 311
f 314 359 242
f 314 200 364
f 229 374 246
f 280 356 319
f 101 376 235
f 322 266 152
f 324 266 322
f 175 397 324
f 325 102 204
f 326 252 208
f 70 371 173
f 327 242 359
f 328 376 292
f 328 139 196
f 331 95 25
f 331 97 306
f 199 100 232
f 335 280 237
f 335 217 177
f 176 375 220
f 229 246 176
f 153 87 288
f 339 261 54
f 339 205 87
f 340 200 346
f 342 309 279
f 342 290 234
f 344 367 143
f 344 310 241
f 345 196 67
f 345 272 165
f 346 281 340
f 346 314 36
f 350 325 33
f 350 283 383
f 354 311 139
f 354 374 276
f 356 280 203
f 356 166 319
f 357 335 245
f 394 393 358
f 359 314 364
f 359 148 327
f 360 81 22
f 360 162 185
f 362 163 36
f 362 197 308
f 52 206 121
f 363 362 36
f 363 279 197
f 364 383 238
f 200 314 346
f 365 310 317
f 367 380 143
f 367 344 272
f 369 52 121
f 369 144 252
f 370 282 397
f 370 234 290
f 371 288 173
f 371 327 259
f 374 354 246
f 374 319 276
f 375 176 246
f 375 304 220
f 376 328 235
f 376 322 292
f 377 93 19
f 377 48 172
f 379 232 311
f 379 276 166
f 380 367 67
f 380 232 100
f 383 364 102
f 383 283 238
f 385 175 324
f 386 268 42
f 101 395 385
f 340 86 388
f 388 204 102
f 389 49 16
f 391 231 250
f 392 358 92
f 393 49 389
f 389 89 393
f 197 395 308
f 394 358 396
f 395 165 308
f 395 29 385
f 396 392 47
f 397 219 266
f 397 175 370
f 324 101 385
g right_E7700_E7600_nu065
f 287 343 34
f 277 372 312
f 321 228 105
f 265 223 62
f 7 399 378
f 88 126 225
f 215 184 150
f 226 267 181
f 72 94 180
f 5 265 62
f 180 221 72
f 136 75 56
f 11 115 73
f 218 253 140
f 191 14 157
f 39 247 171
f 332 297 270
f 11 353 60
f 296 353 132
f 122 216 257
f 46 189 64
f 187 300 336
f 384 222 142
f 41 151 80
f 240 277 202
f 71 330 37
f 130 361 72
f 223 271 4
f 111 323 90
f 248 215 150
f 127 255 189
f 212 170 84
f 160 191 131
f 275 284 120
f 198 274 164
f 91 347 233
f 104 256 209
f 271 251 151
f 330 71 145
f 106 382 278
f 60 296 10
f 293 168 147
f 178 207 88
f 63 267 184
f 135 7 64
f 65 9 216
f 263 122 297
f 50 316 236
f 289 347 51
f 168 244 28
f 31 289 141
f 158 135 94
f 305 73 115
f 160 114 13
f 181 77 399
f 78 111 257
f 105 53 293
f 8 127 46
f 68 373 332
f 84 294 131
f 207 126 88
f 297 183 263
f 10 323 44
f 91 351 273
f 71 182 145
f 211 94 135
f 352 170 239
f 247 39 56
f 82 349 31
f 244 303 28
f 260 318 169
f 103 182 126
f 209 150 104
f 267 6 181
f 321 357 245
f 98 201 171
f 236 174 106
f 131 191 262
f 149 111 90
f 51 256 130
f 114 75 136
f 240 37 273
f 278 50 106
f 239 275 320
f 156 227 127
f 123 329 71
f 45 215 5
f 251 178 88
f 32 355 301
f 127 8 156
f 295 337 99
f 130 72 221
f 256 226 130
f 114 160 75
f 131 262 84
f 73 218 132
f 141 295 99
f 64 189 135
f 120 278 382
f 141 99 31
f 289 221 141
f 348 365 202
f 167 313 284
f 71 37 123
f 355 145 103
f 293 321 105
f 28 147 168
f 210 270 149
f 111 122 257
f 32 248 150
f 251 271 178
f 80 151 300
f 156 65 216
f 183 227 263
f 14 191 13
f 158 7 135
f 159 39 253
f 305 115 12
f 75 294 247
f 160 13 191
f 258 27 348
f 164 118 312
f 174 236 68
f 278 284 368
f 313 142 222
f 225 293 53
f 147 28 203
f 91 260 169
f 209 318 32
f 170 33 239
f 171 253 39
f 247 56 75
f 68 270 174
f 271 151 41
f 178 125 207
f 179 123 37
f 94 72 158
f 361 226 181
f 181 6 77
f 329 182 71
f 182 103 145
f 297 332 183
f 216 263 156
f 45 63 184
f 184 104 150
f 210 334 34
f 353 11 73
f 3 398 2
f 189 46 127
f 189 211 135
f 191 157 262
f 82 31 99
f 316 195 236
f 273 330 91
f 315 274 198
f 303 244 243
f 98 352 201
f 171 366 253
f 118 384 277
f 240 387 179
f 167 388 86
f 167 275 204
f 336 53 105
f 300 187 3
f 125 248 301
f 207 103 126
f 209 32 150
f 347 285 51
f 210 34 174
f 210 149 90
f 211 189 255
f 215 45 184
f 248 265 215
f 257 9 78
f 65 156 8
f 140 287 218
f 218 73 159
f 221 180 141
f 221 51 130
f 341 118 164
f 142 313 86
f 223 125 178
f 223 4 62
f 286 329 244
f 225 53 88
f 56 12 136
f 39 305 56
f 226 104 267
f 227 183 337
f 133 2 398
f 105 228 187
f 349 315 31
f 347 91 169
f 236 195 68
f 236 106 50
f 120 390 320
f 240 202 387
f 164 312 198
f 123 291 243
f 291 333 243
f 329 243 244
f 286 168 225
f 245 133 228
f 294 75 160
f 98 247 294
f 125 301 207
f 248 125 265
f 251 88 53
f 251 336 151
f 253 218 159
f 366 171 201
f 255 127 227
f 255 295 211
f 256 104 226
f 256 285 209
f 122 111 149
f 334 132 287
f 90 296 334
f 142 86 258
f 260 91 330
f 145 355 260
f 262 212 84
f 263 227 156
f 265 5 215
f 265 125 223
f 126 286 225
f 267 63 6
f 267 104 184
f 361 130 226
f 270 210 174
f 270 297 149
f 271 41 4
f 271 223 178
f 295 141 180
f 94 211 180
f 37 240 179
f 351 91 233
f 274 349 195
f 274 316 164
f 275 325 204
f 277 240 372
f 348 384 142
f 307 343 140
f 278 120 284
f 278 368 50
f 285 256 51
f 285 169 318
f 286 126 182
f 286 244 168
f 287 140 343
f 287 132 218
f 289 315 233
f 289 51 221
f 291 123 179
f 247 98 171
f 160 131 294
f 295 180 211
f 296 132 334
f 323 10 296
f 332 270 68
f 297 122 149
f 82 183 332
f 255 227 337
f 187 336 105
f 300 381 80
f 301 248 32
f 301 103 207
f 305 12 56
f 305 39 159
f 9 257 216
f 140 366 307
f 390 201 320
f 312 351 198
f 312 118 277
f 313 368 284
f 315 289 31
f 315 198 233
f 316 274 195
f 316 341 164
f 317 387 365
f 317 291 179
f 318 260 355
f 318 209 285
f 320 275 120
f 320 352 239
f 321 245 228
f 321 293 147
f 111 44 323
f 323 296 90
f 325 239 33
f 294 84 98
f 329 123 243
f 329 286 182
f 330 273 37
f 330 145 260
f 216 122 263
f 373 68 195
f 183 82 337
f 333 303 243
f 293 225 168
f 334 287 34
f 334 210 90
f 336 300 151
f 336 251 53
f 337 82 99
f 337 295 255
f 340 258 86
f 73 305 159
f 341 222 118
f 341 316 50
f 343 106 34
f 307 382 343
f 347 289 233
f 347 169 285
f 384 202 277
f 348 142 258
f 349 274 315
f 82 373 349
f 351 372 273
f 351 233 198
f 352 84 170
f 352 320 201
f 353 73 132
f 355 32 318
f 355 103 301
f 167 86 313
f 357 321 147
f 239 325 275
f 365 348 27
f 366 140 253
f 366 201 390
f 368 341 50
f 368 222 341
f 111 78 44
f 372 240 273
f 372 351 312
f 373 82 332
f 373 195 349
f 228 398 187
f 106 343 382
f 106 174 34
f 84 352 98
f 381 300 3
f 307 390 382
f 384 118 222
f 384 348 202
f 368 313 222
f 387 202 365
f 387 317 179
f 284 275 167
f 390 120 382
f 390 307 366
f 388 167 204
f 399 7 158
f 361 158 72
f 181 399 361
f 398 3 187
f 398 228 133
f 399 158 361
f 399 77 378
f 296 60 353
f 133 61 2
