# knit (wale) direction, one segment per face, centred on the face centroid
# source FDM/data/2part/circle_face_directional_field.txt, 735 faces, metres
# surface: inflated two-pattern disc at 1000 Pa (disc_two_pattern_nu065_p1000.obj)
v 0.282880 0.288325 0.116462
v 0.293816 0.303053 0.108493
v -0.102661 0.309727 0.143311
v -0.090737 0.325383 0.139747
v -0.147818 -0.050101 0.179986
v -0.140901 -0.031411 0.181669
v 0.164777 -0.047126 0.179557
v 0.172027 -0.028490 0.179227
v -0.512346 -0.249792 0.021266
v -0.510462 -0.231137 0.028226
v -0.539557 -0.235870 0.007067
v -0.537223 -0.217245 0.013970
v -0.551226 -0.144397 0.020917
v -0.547863 -0.125589 0.026830
v -0.394906 -0.421279 0.015913
v -0.395344 -0.403523 0.025107
v -0.185183 -0.517024 0.035860
v -0.185757 -0.499971 0.046295
v -0.072053 -0.548948 0.032659
v -0.072257 -0.532308 0.043753
v -0.216430 -0.500031 0.038822
v -0.217048 -0.482780 0.048921
v -0.402112 -0.275945 0.073466
v -0.399890 -0.257148 0.079926
v -0.326085 -0.487963 0.007844
v -0.326902 -0.470885 0.018220
v 0.060849 -0.498654 0.065285
v 0.061035 -0.481168 0.074990
v -0.559476 0.086804 0.023573
v -0.551997 0.105068 0.026815
v -0.494362 0.307106 0.011798
v -0.483425 0.323851 0.011752
v -0.347400 0.331148 0.077796
v -0.335285 0.347003 0.076441
v -0.321021 0.029993 0.142920
v -0.312758 0.048112 0.144776
v -0.319686 0.483157 0.014030
v -0.305886 0.497306 0.010968
v -0.146098 0.471689 0.071108
v -0.132884 0.485673 0.065644
v -0.266512 0.412146 0.072251
v -0.253803 0.427214 0.068864
v -0.580833 -0.067118 0.009836
v -0.576042 -0.048304 0.014636
v 0.347655 -0.448060 0.022556
v 0.349744 -0.430422 0.031750
v 0.568529 -0.145197 0.008720
v 0.573869 -0.125942 0.007868
v 0.166728 -0.391480 0.104577
v 0.168350 -0.372896 0.111787
v 0.410087 -0.340033 0.046865
v 0.413085 -0.321187 0.052853
v 0.481952 -0.241898 0.043013
v 0.485976 -0.222552 0.046096
v 0.481896 -0.090734 0.072868
v 0.487605 -0.071623 0.071398
v 0.385538 -0.440193 0.009122
v 0.387545 -0.422475 0.018179
v 0.452898 -0.099532 0.087039
v 0.458847 -0.080464 0.086047
v 0.191464 0.523474 0.031497
v 0.203833 0.534574 0.020371
v 0.339824 0.459763 0.020255
v 0.350390 0.471581 0.008061
v 0.252704 0.372437 0.095666
v 0.263735 0.386459 0.086627
v 0.009205 0.559166 0.029958
v 0.023489 0.570240 0.021396
v 0.184155 0.439689 0.082175
v 0.195909 0.452934 0.072878
v -0.087110 0.569860 0.016533
v -0.072675 0.581424 0.008923
v 0.393186 0.158719 0.107053
v 0.404948 0.173026 0.099505
v 0.388730 0.424626 0.017437
v 0.398720 0.436846 0.005154
v 0.369288 0.373495 0.053190
v 0.379411 0.386791 0.042203
v 0.492897 0.204699 0.047135
v 0.503774 0.217992 0.036889
v 0.578338 -0.003082 0.014554
v 0.585027 0.015048 0.009398
v 0.138059 -0.532473 0.035583
v 0.138777 -0.515534 0.046192
v 0.091149 0.058166 0.187704
v 0.100662 0.075677 0.186010
v -0.209667 -0.059091 0.169329
v -0.203434 -0.040204 0.171437
v -0.188331 -0.378304 0.105340
v -0.187177 -0.359703 0.112599
v 0.227819 -0.543696 0.006038
v 0.228853 -0.527212 0.017316
v -0.411778 0.114975 0.103372
v -0.401519 0.132005 0.105544
v -0.099917 0.065018 0.185230
v -0.090613 0.082721 0.184997
v 0.107107 -0.060299 0.185562
v 0.113759 -0.041441 0.185923
v 0.157123 -0.201190 0.162372
v 0.161727 -0.181931 0.165178
v -0.268334 -0.071733 0.155458
v -0.262212 -0.052883 0.158140
v -0.487055 -0.335099 0.005108
v -0.486619 -0.316838 0.013253
v -0.068037 0.322650 0.142581
v -0.056222 0.338255 0.138468
v -0.390509 0.292925 0.073219
v -0.378723 0.309082 0.072944
v 0.470364 -0.153211 0.070288
v 0.475584 -0.133909 0.070725
v 0.297128 -0.485492 0.021448
v 0.298760 -0.468230 0.031418
v -0.405997 -0.366123 0.037801
v -0.405338 -0.347920 0.046059
v 0.436547 0.290934 0.053258
v 0.446234 0.304963 0.042800
v 0.378184 -0.350369 0.057497
v 0.381273 -0.331623 0.063744
v -0.168560 -0.431991 0.085898
v -0.168336 -0.413795 0.094197
v 0.529299 0.027788 0.049050
v 0.536781 0.045477 0.043472
v 0.011231 0.423014 0.108024
v 0.024026 0.436977 0.101596
v -0.485362 -0.011338 0.074620
v -0.479008 0.007306 0.078085
v -0.236606 0.424871 0.074848
v -0.223633 0.439633 0.071133
v 0.063350 0.524525 0.051689
v 0.076686 0.536446 0.042742
v -0.289629 -0.488527 0.022086
v -0.290453 -0.471456 0.032473
v 0.094278 0.236898 0.164485
v 0.106640 0.251972 0.160017
v 0.248826 0.010640 0.165034
v 0.257367 0.028588 0.162821
v 0.286815 -0.126341 0.147247
v 0.292485 -0.107174 0.147948
v 0.399161 -0.247285 0.083775
v 0.403199 -0.227988 0.087138
v -0.173293 0.511351 0.042722
v -0.159175 0.524443 0.037311
v -0.290636 0.176367 0.137642
v -0.277751 0.191635 0.138568
v 0.225038 -0.492022 0.041370
v 0.226109 -0.474628 0.051184
v 0.182740 -0.230146 0.152332
v 0.186950 -0.210893 0.155738
v -0.233649 0.280692 0.129213
v -0.221689 0.296618 0.127396
v -0.492295 0.176151 0.052954
v -0.482505 0.193493 0.054797
v -0.241063 -0.452115 0.059153
v -0.241138 -0.434322 0.068285
v -0.056620 -0.285263 0.152151
v -0.053906 -0.266118 0.157262
v -0.307845 -0.280739 0.107993
v -0.305536 -0.261793 0.113967
v 0.201267 0.225395 0.152247
v 0.213326 0.240309 0.146577
v -0.513650 0.052796 0.056943
v -0.506246 0.071106 0.060095
v -0.022209 0.475031 0.082144
v -0.009226 0.488571 0.075207
v 0.426475 0.378639 0.020971
v 0.435873 0.391551 0.008931
v 0.058916 -0.413978 0.107592
v 0.060183 -0.395544 0.115247
v 0.228535 -0.409832 0.083465
v 0.230386 -0.391470 0.091173
v 0.472507 -0.313295 0.022989
v 0.476153 -0.294390 0.028403
v 0.576846 -0.071278 0.012456
v 0.582709 -0.052401 0.009410
v 0.543127 0.188870 0.017448
v 0.553528 0.202057 0.006589
v -0.328793 0.395395 0.058370
v -0.316104 0.410673 0.056005
v -0.097834 -0.239168 0.160477
v -0.094640 -0.219925 0.164892
v -0.350840 -0.138858 0.123825
v -0.345985 -0.119902 0.127959
v 0.455245 0.170533 0.075795
v 0.466500 0.184503 0.066953
v 0.240593 0.130989 0.159546
v 0.251687 0.146977 0.154932
v -0.091578 0.376073 0.122064
v -0.079356 0.391191 0.117367
v -0.273045 0.057382 0.155456
v -0.263896 0.075121 0.156723
v -0.370955 0.165773 0.112651
v -0.358250 0.181087 0.114669
v 0.353710 -0.125218 0.126261
v 0.359363 -0.106037 0.126580
v 0.040101 -0.355857 0.131244
v 0.041872 -0.336995 0.137653
v 0.379103 -0.049067 0.123864
v 0.386066 -0.030417 0.121937
v 0.528627 -0.088081 0.045150
v 0.534697 -0.069155 0.042920
v 0.303436 0.464844 0.032602
v 0.314215 0.476645 0.020579
v -0.133995 -0.560444 0.016581
v -0.134477 -0.544076 0.028064
v -0.127397 -0.531542 0.037627
v -0.127777 -0.514594 0.048239
v 0.101493 0.565482 0.018127
v 0.114828 0.576127 0.007694
v -0.504724 -0.193530 0.041659
v -0.501480 -0.174808 0.047900
v -0.446205 -0.309722 0.040125
v -0.444869 -0.291174 0.047486
v -0.177585 0.456002 0.073498
v -0.164258 0.470108 0.068660
v 0.535727 -0.204515 0.018594
v 0.540635 -0.185184 0.020084
v 0.496260 0.256052 0.030109
v 0.505398 0.269923 0.018970
v -0.440775 0.218996 0.070961
v -0.429669 0.235580 0.072233
v 0.108306 -0.461742 0.080779
v 0.108849 -0.443816 0.089632
v -0.444433 -0.391576 0.004295
v -0.444623 -0.373740 0.013340
v 0.573120 0.064008 0.016246
v 0.580735 0.080954 0.008840
v 0.354175 0.118805 0.127880
v 0.364800 0.134692 0.121986
v -0.324951 -0.115058 0.135484
v -0.319931 -0.096022 0.139011
v -0.575434 -0.123631 0.007065
v -0.571521 -0.104921 0.012951
v 0.071006 0.472262 0.081753
v 0.083713 0.485362 0.073573
v -0.020601 -0.577742 0.014740
v -0.020666 -0.561724 0.026716
v -0.046945 -0.499706 0.065272
v -0.047145 -0.482199 0.074939
v -0.417670 -0.217543 0.082429
v -0.414665 -0.198595 0.088077
v -0.268232 -0.230172 0.132423
v -0.264840 -0.211114 0.137452
v -0.038997 0.076632 0.188774
v -0.029670 0.094302 0.187887
v -0.061125 0.186923 0.175090
v -0.047745 0.201683 0.173328
v -0.429168 0.140411 0.092245
v -0.418877 0.157450 0.094185
v 0.203001 -0.384752 0.100355
v 0.205038 -0.366094 0.107265
v -0.249179 0.363948 0.097722
v -0.236798 0.379394 0.094870
v -0.286139 0.432513 0.056021
v -0.273087 0.447305 0.052726
v 0.446118 0.136618 0.086259
v 0.456073 0.152224 0.078686
v 0.465400 0.338254 0.017460
v 0.474531 0.351556 0.005641
v 0.219316 -0.123453 0.163706
v 0.225000 -0.104303 0.164690
v 0.171255 -0.265065 0.145903
v 0.174851 -0.245833 0.150051
v -0.188722 0.362245 0.112577
v -0.176367 0.377590 0.109129
v -0.372742 0.008980 0.125654
v -0.365012 0.027252 0.128174
v 0.520832 -0.058995 0.052651
v 0.526818 -0.040099 0.049986
v -0.275771 -0.457294 0.045993
v -0.275916 -0.439575 0.055268
v -0.460417 -0.340126 0.019327
v -0.459718 -0.321911 0.027556
v -0.499556 -0.278772 0.019749
v -0.498002 -0.260224 0.027067
v -0.226269 -0.546483 0.004498
v -0.227042 -0.530106 0.015952
v 0.035228 0.362537 0.131929
v 0.047381 0.377320 0.126117
v 0.197649 0.469606 0.063400
v 0.209484 0.482076 0.053182
v 0.364164 0.026041 0.130586
v 0.372379 0.043907 0.126936
v -0.043266 -0.100170 0.185917
v -0.037412 -0.081131 0.187724
v 0.011034 -0.329189 0.140853
v 0.013168 -0.310195 0.146738
v -0.330944 -0.025739 0.139816
v -0.324197 -0.007067 0.142234
v -0.446733 -0.113132 0.087410
v -0.441700 -0.094321 0.091971
v -0.169023 0.215324 0.157698
v -0.156588 0.230937 0.156422
v -0.051043 0.263500 0.160043
v -0.039066 0.279175 0.156751
v 0.286856 -0.217769 0.131474
v 0.291190 -0.198458 0.134356
v 0.186984 -0.326440 0.125127
v 0.189778 -0.307415 0.130627
v 0.392877 -0.282353 0.076101
v 0.396406 -0.263151 0.080440
v 0.506122 -0.261589 0.021858
v 0.510388 -0.242344 0.025239
v 0.004696 -0.480106 0.077540
v 0.004892 -0.462340 0.086725
v 0.137815 0.399329 0.108911
v 0.149711 0.413353 0.101050
v 0.274375 0.188950 0.142521
v 0.287046 0.203104 0.136268
v -0.021622 0.575083 0.017133
v -0.006640 0.585689 0.009193
v 0.033862 0.510995 0.061820
v 0.047613 0.523016 0.053671
v -0.467997 0.261287 0.044539
v -0.457140 0.278073 0.045140
v -0.298563 -0.428329 0.053352
v -0.298777 -0.410375 0.062161
v -0.413865 0.405958 0.013820
v -0.401253 0.421371 0.011985
v -0.409573 0.239654 0.080536
v -0.397693 0.255719 0.081416
v -0.148548 0.559521 0.014717
v -0.133875 0.571596 0.008482
v -0.053236 0.523126 0.052464
v -0.039467 0.535694 0.045221
v 0.427959 0.259821 0.067732
v 0.437989 0.274194 0.058098
v 0.409260 -0.176095 0.095998
v 0.414410 -0.156805 0.097170
v -0.583118 -0.003743 0.010843
v -0.577361 0.014878 0.015327
v -0.533436 -0.037052 0.045413
v -0.527726 -0.018363 0.049666
v -0.110083 -0.581116 0.004897
v -0.110435 -0.565077 0.016841
v -0.147234 -0.482298 0.063952
v -0.147394 -0.464658 0.073375
v -0.555901 -0.176086 0.010727
v -0.552890 -0.157337 0.017003
v -0.213560 -0.473261 0.055077
v -0.213915 -0.455601 0.064458
v 0.167089 0.548736 0.018833
v 0.180062 0.559295 0.007869
v -0.508167 -0.301809 0.005224
v -0.507246 -0.283464 0.013137
v -0.216554 0.050265 0.168718
v -0.207344 0.067995 0.169624
v -0.172708 -0.105648 0.172269
v -0.167029 -0.086650 0.174879
v 0.142166 -0.136330 0.174717
v 0.147759 -0.117189 0.176248
v -0.030943 -0.378752 0.122911
v -0.029463 -0.360077 0.129915
v -0.229611 -0.271703 0.131691
v -0.227144 -0.252619 0.137142
v 0.207105 0.189944 0.157954
v 0.220100 0.204199 0.152673
v 0.059072 0.297838 0.151701
v 0.070958 0.313106 0.146641
v -0.203235 0.264173 0.140300
v -0.191143 0.280004 0.138523
v 0.519639 0.088037 0.051154
v 0.528358 0.104420 0.043698
v 0.108616 -0.243520 0.159270
v 0.112107 -0.224216 0.163168
v -0.012813 -0.164916 0.178920
v -0.008023 -0.145703 0.181732
v -0.455936 -0.173494 0.073302
v -0.452511 -0.154509 0.078579
v -0.477668 -0.107353 0.072394
v -0.472839 -0.088491 0.076966
v 0.429575 -0.398024 0.009279
v 0.432010 -0.379735 0.016998
v 0.216873 -0.440199 0.071983
v 0.218143 -0.422089 0.080376
v 0.293670 -0.308242 0.104822
v 0.296664 -0.289118 0.109854
v 0.551599 0.092586 0.029212
v 0.559782 0.108911 0.021054
v 0.440490 0.012624 0.098813
v 0.448510 0.030456 0.094607
v -0.476310 0.111344 0.072744
v -0.467436 0.129128 0.074973
v -0.565525 0.144608 0.011121
v -0.557306 0.162744 0.012997
v -0.083902 0.505797 0.060518
v -0.070359 0.518883 0.053785
v -0.022563 0.508286 0.063352
v -0.009228 0.521111 0.055758
v -0.455353 0.359790 0.012848
v -0.443534 0.375913 0.012271
v 0.445641 -0.131885 0.086548
v 0.451105 -0.112647 0.086368
v 0.434947 -0.200065 0.079049
v 0.439829 -0.180754 0.080853
v 0.129900 0.541641 0.031618
v 0.142627 0.552743 0.020905
v 0.037992 0.476715 0.081314
v 0.050824 0.489888 0.073450
v -0.343101 -0.369089 0.064386
v -0.342368 -0.350675 0.072157
v -0.371142 -0.274393 0.087110
v -0.369037 -0.255522 0.093390
v 0.315431 0.392008 0.066813
v 0.326163 0.405261 0.056365
v -0.021931 -0.530565 0.047586
v -0.021972 -0.513595 0.058169
v -0.208941 0.470737 0.058374
v -0.195639 0.484900 0.053635
v 0.428149 -0.019190 0.104331
v 0.435568 -0.000891 0.101155
v 0.563643 -0.035392 0.024926
v 0.569821 -0.016802 0.020891
v -0.421574 -0.416542 0.004141
v -0.421857 -0.398866 0.013494
v -0.533748 -0.198842 0.021188
v -0.530970 -0.180095 0.027579
v -0.331317 -0.427328 0.041647
v -0.331590 -0.409420 0.050550
v -0.523949 0.256335 0.011060
v -0.513621 0.273424 0.012182
v -0.381729 0.412536 0.026659
v -0.368995 0.427810 0.024525
v -0.208222 -0.220886 0.148310
v -0.204693 -0.201731 0.152851
v -0.196243 -0.410572 0.090204
v -0.195639 -0.392259 0.098221
v 0.162249 0.239342 0.155980
v 0.174004 0.254587 0.150557
v 0.398153 -0.019226 0.117454
v 0.405703 -0.000942 0.114507
v 0.396305 -0.080714 0.114709
v 0.402792 -0.061832 0.113522
v 0.039576 -0.028106 0.190991
v 0.046978 -0.009527 0.191177
v 0.074040 0.174227 0.177473
v 0.087196 0.188941 0.174248
v -0.061080 0.015523 0.189814
v -0.052577 0.033625 0.189980
v -0.125975 -0.180760 0.168880
v -0.121722 -0.161532 0.172374
v -0.027929 0.371429 0.128306
v -0.015709 0.386365 0.123056
v -0.165757 0.313506 0.133397
v -0.153762 0.329230 0.130417
v 0.119499 -0.207909 0.165733
v 0.123645 -0.188605 0.168921
v 0.232909 -0.287203 0.127718
v 0.236159 -0.268001 0.132271
v -0.481183 0.051283 0.075535
v -0.473302 0.069424 0.078499
v -0.414101 0.050006 0.107882
v -0.405428 0.067841 0.110467
v 0.073127 -0.469188 0.080442
v 0.073662 -0.451322 0.089414
v 0.032150 -0.389379 0.118942
v 0.033282 -0.370729 0.126078
v -0.203251 0.230487 0.148258
v -0.190843 0.246133 0.147137
v -0.269144 0.229846 0.132959
v -0.256780 0.245562 0.132571
v 0.382366 0.219331 0.099476
v 0.393356 0.233873 0.091245
v 0.476207 0.233061 0.049505
v 0.486229 0.247128 0.039421
v 0.353042 -0.326134 0.077703
v 0.356202 -0.307145 0.083130
v 0.240134 -0.463907 0.053277
v 0.241387 -0.446196 0.062483
v 0.191329 -0.545792 0.014810
v 0.192377 -0.529327 0.026116
v -0.395836 -0.195992 0.096705
v -0.392361 -0.176984 0.101866
v -0.466054 -0.228043 0.055455
v -0.463295 -0.209269 0.061775
v -0.411016 0.268204 0.071747
v -0.399220 0.284352 0.072102
v -0.359593 0.296957 0.084879
v -0.347627 0.312966 0.084151
v -0.288568 -0.398612 0.071048
v -0.288163 -0.380302 0.079084
v -0.395911 -0.338104 0.054451
v -0.394649 -0.319638 0.062028
v -0.451645 -0.256318 0.055324
v -0.449275 -0.237559 0.061843
v 0.536801 0.153862 0.029758
v 0.547010 0.167635 0.019458
v 0.467876 0.109333 0.078723
v 0.476910 0.125739 0.071705
v -0.236584 0.455368 0.059502
v -0.223155 0.469604 0.055382
v -0.054177 0.556202 0.029757
v -0.039736 0.567677 0.022026
v 0.039770 0.575056 0.017078
v 0.054306 0.585322 0.007950
v 0.555558 -0.097729 0.025326
v 0.561204 -0.078633 0.023460
v 0.237786 0.421806 0.077918
v 0.249224 0.434984 0.068143
v 0.283403 0.498790 0.018530
v 0.294539 0.510072 0.006335
v -0.572958 0.113154 0.010439
v -0.565223 0.131311 0.013679
v -0.546928 0.201431 0.011067
v -0.537492 0.218959 0.012998
v -0.515557 0.150000 0.044180
v -0.506611 0.167781 0.046140
v 0.141188 0.486568 0.065309
v 0.153733 0.498822 0.055693
v 0.067056 0.555123 0.030268
v 0.080841 0.565899 0.020581
v -0.377285 -0.452304 0.006733
v -0.377887 -0.434948 0.016653
v 0.000368 0.025113 0.191799
v 0.009043 0.043129 0.191377
v -0.155452 0.019539 0.180139
v -0.147002 0.037650 0.180907
v 0.189141 0.009785 0.176976
v 0.197779 0.027745 0.175292
v 0.303330 0.165310 0.138250
v 0.315704 0.179734 0.132017
v -0.287029 0.027129 0.152847
v -0.278710 0.045238 0.154532
v -0.226056 -0.152366 0.156762
v -0.221426 -0.133231 0.160285
v -0.089225 -0.271290 0.153496
v -0.086514 -0.252113 0.158483
v -0.126960 -0.388102 0.111450
v -0.126121 -0.369485 0.118709
v 0.138742 0.182702 0.170119
v 0.152002 0.197072 0.165917
v 0.086197 0.096878 0.185627
v 0.096653 0.113774 0.183343
v 0.119708 -0.430582 0.094580
v 0.120755 -0.412320 0.102667
v -0.002943 -0.400054 0.115043
v -0.001954 -0.381484 0.122404
v 0.266821 -0.186402 0.143338
v 0.271511 -0.167079 0.145493
v 0.335800 -0.268166 0.103157
v 0.339645 -0.248927 0.107041
v 0.001246 0.348968 0.137025
v 0.013277 0.364039 0.131720
v -0.023750 0.406403 0.114672
v -0.011359 0.420942 0.108751
v 0.206169 0.416360 0.088522
v 0.217614 0.429888 0.079248
v 0.176658 0.493107 0.054461
v 0.188884 0.505213 0.044264
v -0.526336 -0.127624 0.041086
v -0.522184 -0.108764 0.046289
v -0.327726 0.212575 0.119181
v -0.315458 0.228360 0.119736
v -0.262690 0.161501 0.147542
v -0.249763 0.176741 0.148329
v 0.336933 0.176787 0.125476
v 0.349000 0.191134 0.118509
v -0.256451 0.331613 0.107558
v -0.244311 0.347334 0.105221
v -0.216004 0.378410 0.100393
v -0.203647 0.393750 0.096935
v -0.341283 0.004423 0.136705
v -0.333807 0.022836 0.138964
v -0.471636 -0.044656 0.080841
v -0.465618 -0.025971 0.084666
v -0.255444 -0.394869 0.082568
v -0.254966 -0.376495 0.090454
v -0.260470 -0.310538 0.112797
v -0.258517 -0.291643 0.119056
v -0.050971 -0.590905 0.002937
v -0.051153 -0.575101 0.015193
v -0.081266 -0.573466 0.014012
v -0.081556 -0.557353 0.025856
v 0.245518 -0.516758 0.019255
v 0.246772 -0.499911 0.029960
v 0.264788 -0.403908 0.076289
v 0.266591 -0.385457 0.083792
v -0.043437 -0.140056 0.181467
v -0.038157 -0.120932 0.183999
v 0.092442 -0.179258 0.173461
v 0.097027 -0.159972 0.176108
v 0.504279 -0.107635 0.057883
v 0.510156 -0.088556 0.056674
v 0.487492 -0.206799 0.049301
v 0.492397 -0.187485 0.051003
v 0.532875 -0.243293 0.009674
v 0.536932 -0.223901 0.012416
v 0.134843 -0.271718 0.149369
v 0.138003 -0.252484 0.153849
v 0.197086 -0.293001 0.133565
v 0.200378 -0.273869 0.138373
v 0.415289 0.130632 0.101737
v 0.425579 0.146279 0.094719
v 0.505985 0.147590 0.051207
v 0.516854 0.161500 0.041806
v 0.467092 -0.350611 0.010016
v 0.470325 -0.331924 0.016369
v 0.416831 -0.305552 0.056878
v 0.420251 -0.286509 0.061946
v -0.519613 -0.069585 0.052046
v -0.514503 -0.050766 0.056490
v 0.339063 0.270538 0.103006
v 0.349720 0.285203 0.094558
v 0.355402 0.429291 0.031419
v 0.365696 0.441607 0.019488
v -0.352585 -0.308226 0.083749
v -0.350870 -0.289455 0.090435
v -0.353163 -0.397165 0.047728
v -0.353067 -0.379006 0.056108
v -0.408893 0.318609 0.055774
v -0.397020 0.334693 0.055203
v -0.441750 0.278184 0.053451
v -0.430471 0.294699 0.053642
v 0.071150 -0.591299 0.002249
v 0.071512 -0.575289 0.014230
v -0.464244 -0.281555 0.040188
v -0.462514 -0.262964 0.047356
v 0.560551 0.030699 0.027556
v 0.567626 0.048392 0.021482
v 0.534250 -0.032648 0.045471
v 0.540745 -0.014085 0.041833
v -0.083879 0.474174 0.078357
v -0.070791 0.487954 0.072128
v -0.114005 0.518519 0.048959
v -0.100023 0.531347 0.042640
v 0.007110 0.525483 0.053129
v 0.020846 0.537607 0.045107
v -0.420411 -0.250815 0.072429
v -0.418012 -0.231973 0.078690
v -0.354726 -0.243396 0.102053
v -0.351984 -0.224387 0.107636
v -0.462455 0.080554 0.083203
v -0.454146 0.098582 0.085643
v -0.526706 0.086195 0.046189
v -0.518944 0.104410 0.049011
v -0.228840 0.515989 0.025297
v -0.214603 0.529158 0.020414
v -0.274362 -0.517831 0.008920
v -0.275209 -0.500926 0.019575
v 0.391368 0.016125 0.120315
v 0.399552 0.033994 0.116610
v 0.269865 0.110990 0.154664
v 0.280934 0.126971 0.149966
v -0.259545 -0.259588 0.127636
v -0.256622 -0.240558 0.133050
v -0.167134 -0.139891 0.169267
v -0.161937 -0.120824 0.172341
v -0.184717 -0.001787 0.175627
v -0.177051 0.016645 0.176857
v -0.177192 0.104488 0.172359
v -0.166988 0.121689 0.172319
v 0.209294 -0.159388 0.160811
v 0.214420 -0.140135 0.162554
v 0.280938 -0.008647 0.157016
v 0.288751 0.009647 0.154944
v 0.021768 -0.293850 0.151368
v 0.024320 -0.274688 0.156498
v -0.043633 -0.222132 0.167862
v -0.039815 -0.202890 0.171759
v -0.130796 0.075151 0.181311
v -0.121503 0.092860 0.181175
v 0.103370 0.388616 0.117677
v 0.115559 0.402734 0.110455
v 0.195922 0.386527 0.103876
v 0.207263 0.400644 0.095386
v 0.128594 0.003821 0.185410
v 0.136579 0.022130 0.184410
v 0.076757 -0.116546 0.183257
v 0.082343 -0.097403 0.184778
v -0.024864 -0.341433 0.136467
v -0.022984 -0.322498 0.142626
v -0.040641 -0.446352 0.093627
v -0.040149 -0.428204 0.102017
v 0.009855 0.162317 0.181122
v 0.023092 0.177137 0.178851
v 0.031099 0.222825 0.170669
v 0.043673 0.237988 0.167212
v 0.131128 -0.483850 0.065991
v 0.131918 -0.466207 0.075377
v 0.121340 -0.562904 0.016381
v 0.121903 -0.546738 0.028142
v -0.441964 0.189652 0.077163
v -0.431152 0.206408 0.078684
v -0.380611 0.126095 0.114807
v -0.369574 0.142655 0.116790
v -0.298669 0.282859 0.110761
v -0.286710 0.298847 0.109590
v -0.274290 0.382941 0.082755
v -0.261888 0.398359 0.079842
v 0.310361 -0.366252 0.077915
v 0.312675 -0.347506 0.084489
v 0.213196 -0.352822 0.110495
v 0.215786 -0.333992 0.116716
v -0.211232 0.410157 0.088073
v -0.198543 0.425105 0.084126
v -0.115591 0.457536 0.083280
v -0.102364 0.471469 0.077720
v 0.360764 -0.292534 0.086206
v 0.364395 -0.273416 0.090821
v 0.351054 -0.163710 0.121474
v 0.356210 -0.144426 0.122702
v 0.324736 0.235284 0.117426
v 0.336069 0.249901 0.109815
v 0.394004 0.253013 0.085800
v 0.404450 0.267497 0.076793
v 0.517934 -0.003309 0.056701
v 0.524866 0.014909 0.052222
v -0.054363 0.424885 0.105036
v -0.041671 0.439229 0.099276
v -0.517149 -0.008040 0.056365
v -0.510787 0.010530 0.060198
v -0.315342 0.340009 0.086307
v -0.303181 0.355781 0.084478
v -0.359415 0.387717 0.049411
v -0.347012 0.403262 0.047286
v 0.434892 -0.363956 0.022900
v 0.437862 -0.345406 0.029761
v 0.369583 -0.382838 0.047209
v 0.372139 -0.364304 0.054276
v 0.524617 0.242432 0.015708
v 0.534044 0.255996 0.004432
v 0.561000 0.126136 0.017351
v 0.569938 0.141284 0.007829
v -0.094181 -0.527638 0.044510
v -0.094527 -0.510609 0.054993
v 0.275871 0.349144 0.098089
v 0.286725 0.363345 0.089115
v 0.291184 0.411559 0.066317
v 0.301923 0.424822 0.055887
v -0.489477 -0.073943 0.069289
v -0.484297 -0.055098 0.073534
v -0.311172 -0.369508 0.075943
v -0.310366 -0.351041 0.083579
v -0.364086 -0.338302 0.068343
v -0.362938 -0.319742 0.075707
v 0.431372 -0.075674 0.099892
v 0.437651 -0.056754 0.098275
v 0.414253 -0.141425 0.099773
v 0.419923 -0.122248 0.100071
v -0.494891 0.209632 0.043667
v -0.484686 0.226766 0.045188
v 0.185394 0.048491 0.176795
v 0.194811 0.065966 0.174356
v 0.052068 0.111199 0.186255
v 0.062541 0.128100 0.184089
v 0.288552 -0.429018 0.056528
v 0.290253 -0.410953 0.064939
v 0.333888 -0.481663 0.008586
v 0.335456 -0.464318 0.018419
v -0.564143 -0.094764 0.019668
v -0.559754 -0.075944 0.024820
v 0.086758 -0.313552 0.142451
v 0.089433 -0.294489 0.147878
v 0.155824 -0.423056 0.092746
v 0.156868 -0.404720 0.100665
v 0.226584 0.527959 0.018447
v 0.238534 0.538897 0.006719
v 0.232542 0.472152 0.052662
v 0.244055 0.484491 0.041928
v 0.453467 -0.256937 0.054473
v 0.457625 -0.237682 0.057929
v 0.458076 0.077172 0.087156
v 0.467188 0.093818 0.080841
v 0.038242 -0.579088 0.014054
v 0.038510 -0.562867 0.025750
v 0.082536 -0.520467 0.050450
v 0.082964 -0.503324 0.060743
v -0.580130 0.055786 0.011519
v -0.573363 0.074327 0.014752
v -0.231024 -0.419468 0.078166
v -0.230508 -0.401256 0.086415
v -0.230661 -0.303212 0.122418
v -0.228626 -0.284254 0.128456
v -0.144575 0.501152 0.054678
v -0.130887 0.514521 0.048856
v -0.399748 0.347745 0.048553
v -0.387590 0.363595 0.047572
v -0.438511 0.307749 0.044716
v -0.426958 0.324074 0.044609
v -0.488503 -0.166915 0.057024
v -0.484770 -0.148037 0.062472
v -0.147927 -0.206394 0.161373
v -0.144272 -0.187148 0.165402
v -0.076507 -0.152362 0.177927
v -0.071727 -0.133152 0.180782
v 0.338298 -0.001743 0.139950
v 0.345972 0.016533 0.137283
v 0.289417 -0.160216 0.141733
v 0.294591 -0.140949 0.143159
v -0.323815 0.126212 0.134920
v -0.312646 0.142750 0.136235
v -0.434840 0.016746 0.099840
v -0.427321 0.035042 0.102794
v -0.251869 -0.175292 0.147332
v -0.247838 -0.156118 0.151345
v -0.264754 -0.106721 0.153427
v -0.259171 -0.087767 0.156524
v 0.299437 0.128104 0.144594
v 0.310302 0.144031 0.139275
v 0.240476 0.172319 0.153824
v 0.253131 0.186831 0.148415
v -0.175796 -0.461973 0.069657
v -0.176023 -0.444130 0.078690
v -0.109776 -0.474642 0.073560
v -0.109870 -0.456878 0.082750
v -0.097247 0.196411 0.170584
v -0.083883 0.211212 0.169048
v -0.169927 0.280843 0.142145
v -0.157979 0.296693 0.139691
v 0.123122 0.293005 0.147780
v 0.134778 0.308182 0.141969
v 0.079678 -0.080525 0.186347
v 0.086335 -0.061683 0.187174
v 0.221416 -0.008969 0.170901
v 0.229327 0.009333 0.169337
v -0.055054 -0.022677 0.189825
v -0.048090 -0.003942 0.190530
v -0.122204 0.005900 0.184509
v -0.114470 0.024332 0.185201
v -0.201379 0.124831 0.165940
v -0.190070 0.141326 0.166067
v -0.263634 0.126301 0.152050
v -0.252382 0.142821 0.152765
v 0.045021 -0.221697 0.168237
v 0.048870 -0.202410 0.171868
v 0.012078 -0.228880 0.167515
v 0.015853 -0.209620 0.171361
v 0.060721 -0.286412 0.152096
v 0.063684 -0.267245 0.156977
v 0.103930 -0.373513 0.120362
v 0.105821 -0.354777 0.127099
v 0.013551 -0.531020 0.047733
v 0.013597 -0.513974 0.058194
v -0.008719 -0.431130 0.101600
v -0.008047 -0.412863 0.109716
v -0.118373 -0.319664 0.136736
v -0.116185 -0.300704 0.142715
v 0.118521 0.509814 0.054739
v 0.131531 0.521656 0.045227
v 0.127064 0.455300 0.084421
v 0.139458 0.468379 0.075742
v 0.275046 -0.372621 0.086653
v 0.277427 -0.353967 0.093464
v 0.335194 -0.390730 0.057899
v 0.337839 -0.372303 0.065211
v -0.498756 -0.135248 0.056574
v -0.494704 -0.116361 0.061758
v -0.535224 -0.095385 0.039580
v -0.530684 -0.076548 0.044537
v -0.369155 0.356244 0.059014
v -0.356968 0.372030 0.057505
v 0.180226 -0.446631 0.076915
v 0.181521 -0.428601 0.085472
v 0.188710 -0.497897 0.047006
v 0.189592 -0.480561 0.056940
v -0.154815 0.377981 0.112832
v -0.142517 0.393214 0.108744
v -0.117877 0.425761 0.098239
v -0.105060 0.440251 0.093163
v 0.260527 0.400096 0.081601
v 0.271667 0.413551 0.071861
v 0.162640 0.377220 0.114007
v 0.174279 0.391457 0.106144
v -0.052926 0.458376 0.089224
v -0.039830 0.472099 0.082886
v -0.179725 0.425787 0.087819
v -0.166814 0.440417 0.083432
v 0.510171 0.056444 0.059716
v 0.518203 0.073652 0.053440
v 0.488205 -0.006728 0.074108
v 0.495427 0.011479 0.070063
v 0.429483 -0.235203 0.073008
v 0.433862 -0.215891 0.075817
v 0.374375 -0.223401 0.100425
v 0.378681 -0.204059 0.103134
v 0.447550 0.231979 0.065641
v 0.457956 0.246090 0.056018
v 0.330625 0.332351 0.085896
v 0.341151 0.346458 0.076398
v 0.386031 0.314903 0.069442
v 0.396068 0.328977 0.059384
v -0.093684 0.028635 0.187162
v -0.085182 0.046737 0.187367
v 0.023010 0.087297 0.188992
v 0.033466 0.104277 0.187460
v -0.335628 0.270745 0.101810
v -0.323752 0.286828 0.101294
v -0.269322 0.263523 0.124700
v -0.257251 0.279433 0.123630
v 0.233180 -0.188089 0.150990
v 0.237922 -0.168800 0.153325
v 0.242866 -0.253575 0.134456
v 0.246679 -0.234320 0.138289
v -0.467147 0.167890 0.068708
v -0.457078 0.185075 0.070519
v -0.508029 0.115452 0.054264
v -0.499354 0.133294 0.056802
v 0.011300 0.458244 0.091413
v 0.024353 0.471644 0.084336
v 0.498504 0.115201 0.060838
v 0.508079 0.130772 0.052724
v -0.415057 -0.309586 0.056154
v -0.413759 -0.290972 0.063352
v 0.395845 -0.406447 0.022766
v 0.398424 -0.388319 0.030811
v 0.323918 -0.422318 0.047051
v 0.325977 -0.404151 0.055157
v 0.140486 -0.366219 0.118696
v 0.142368 -0.347406 0.125217
v -0.531214 0.023701 0.047409
v -0.524343 0.042139 0.050989
v -0.393896 -0.090343 0.113266
v -0.388333 -0.071508 0.117047
v -0.435339 -0.147633 0.088019
v -0.431222 -0.128634 0.092719
v 0.503264 -0.297696 0.009989
v 0.507161 -0.278735 0.015019
v 0.447119 -0.292232 0.046074
v 0.450788 -0.273123 0.050700
v -0.468581 0.230731 0.053268
v -0.457749 0.247505 0.054409
v -0.521723 0.222632 0.022881
v -0.511803 0.239929 0.024426
v 0.464886 -0.186783 0.066644
v 0.469596 -0.167395 0.068030
v -0.344778 -0.455567 0.019764
v -0.345381 -0.438211 0.029685
v -0.035755 -0.551257 0.033479
v -0.035957 -0.534582 0.044521
v -0.174682 0.538481 0.024271
v -0.160431 0.551213 0.018370
v -0.116514 0.549763 0.027608
v -0.101828 0.561648 0.021047
v 0.347543 0.210556 0.114993
v 0.358891 0.225191 0.107440
v 0.403358 0.193062 0.096245
v 0.415241 0.206801 0.087877
v -0.496628 0.273959 0.023076
v -0.485798 0.290761 0.023716
v -0.462635 0.324097 0.024465
v -0.451110 0.340440 0.024203
v 0.282239 -0.515506 0.007611
v 0.283460 -0.498615 0.018250
v 0.275648 -0.458766 0.045227
v 0.277205 -0.440959 0.054199
v 0.444052 -0.043945 0.095923
v 0.450904 -0.025334 0.093339
v 0.491761 -0.060797 0.069877
v 0.497957 -0.041927 0.067525
v -0.232527 -0.117752 0.159756
v -0.227406 -0.098664 0.162820
v -0.118053 -0.029030 0.184492
v -0.111084 -0.010318 0.185628
v 0.103087 -0.142019 0.178098
v 0.108715 -0.122921 0.179992
v 0.254854 -0.108282 0.157632
v 0.260919 -0.089228 0.158003
v 0.302212 0.052179 0.150103
v 0.311347 0.069584 0.146414
v 0.245039 0.050695 0.164989
v 0.254332 0.068134 0.161907
v 0.013228 0.252717 0.164457
v 0.025469 0.268080 0.160694
v -0.173858 -0.274881 0.141780
v -0.171283 -0.255760 0.147050
v -0.154826 -0.366915 0.115583
v -0.153586 -0.348216 0.122570
v 0.138572 -0.072289 0.181556
v 0.145216 -0.053427 0.181870
v 0.062648 0.034393 0.190330
v 0.071367 0.052361 0.189269
v 0.231633 0.311177 0.123237
v 0.242786 0.325913 0.115591
v 0.132814 0.219525 0.164185
v 0.145131 0.234562 0.159473
v -0.236219 0.107992 0.160556
v -0.226053 0.125210 0.160977
v -0.295833 0.109175 0.145214
v -0.285744 0.126417 0.146187
v -0.068743 -0.430052 0.099460
v -0.068304 -0.411789 0.107599
v -0.132750 -0.420871 0.096802
v -0.132441 -0.402548 0.104813
v -0.055034 0.150000 0.180944
v -0.041971 0.165080 0.179555
v -0.032959 0.039092 0.190723
v -0.024325 0.057128 0.190353
v -0.466800 0.018819 0.084266
v -0.459780 0.037304 0.087270
v -0.440090 -0.049189 0.096203
v -0.433960 -0.030503 0.099844
v -0.131216 0.328832 0.133908
v -0.119174 0.344395 0.130332
v -0.084888 0.255002 0.159691
v -0.072869 0.270730 0.156831
v 0.174376 0.166716 0.167568
v 0.187287 0.181337 0.163150
v 0.379056 -0.187347 0.106490
v 0.383880 -0.168017 0.108247
v 0.319067 -0.211070 0.123226
v 0.323315 -0.191700 0.125825
v 0.150588 -0.333059 0.128947
v 0.153007 -0.314077 0.134764
v 0.076719 -0.347647 0.132145
v 0.078926 -0.328741 0.138284
v 0.263097 0.315879 0.113406
v 0.274040 0.330557 0.105353
v 0.308160 0.357023 0.084445
v 0.318678 0.371106 0.074902
v -0.347776 0.236828 0.106477
v -0.335438 0.252564 0.106854
v -0.391743 0.187336 0.100351
v -0.379253 0.202837 0.102280
v 0.319783 -0.066500 0.143414
v 0.326323 -0.047623 0.142483
v 0.386656 -0.114175 0.115208
v 0.392594 -0.095079 0.114869
v -0.267429 0.459991 0.047684
v -0.254059 0.474363 0.043849
v -0.356486 0.106825 0.126026
v -0.346510 0.124089 0.127587
v -0.427512 0.081439 0.099873
v -0.418553 0.099170 0.102188
v 0.054596 -0.185593 0.174685
v 0.059215 -0.166361 0.177651
v -0.016159 -0.202954 0.172472
v -0.012200 -0.183670 0.176000
v -0.301570 -0.221752 0.124984
v -0.298165 -0.202685 0.129971
v -0.365825 -0.206746 0.106397
v -0.362595 -0.187681 0.111502
v 0.149008 0.432087 0.092528
v 0.161065 0.445464 0.083827
v 0.086553 0.503189 0.062997
v 0.099432 0.515455 0.053849
v 0.475628 -0.037923 0.080143
v 0.482267 -0.019292 0.077174
v 0.364148 0.341375 0.068920
v 0.374272 0.355335 0.058790
v 0.433543 0.347272 0.032359
v 0.442779 0.360593 0.020644
v 0.361337 0.151453 0.120818
v 0.373418 0.165808 0.113890
v 0.434695 0.198772 0.080402
v 0.446194 0.212451 0.071422
v 0.404130 0.094162 0.110786
v 0.413538 0.110822 0.104963
v 0.479517 0.051153 0.077583
v 0.487921 0.068374 0.071854
v -0.087722 0.409042 0.109172
v -0.075207 0.423732 0.103918
v -0.062301 0.356900 0.131671
v -0.050267 0.372152 0.126920
v -0.446866 -0.203831 0.071578
v -0.443425 -0.184982 0.077312
v -0.491597 -0.224326 0.041969
v -0.488838 -0.205561 0.048315
v 0.117933 -0.513085 0.050761
v 0.118363 -0.495892 0.060969
v 0.175470 -0.567892 0.002983
v 0.176287 -0.551625 0.014589
v 0.319326 -0.334034 0.087264
v 0.322187 -0.315121 0.093107
v 0.249206 -0.346705 0.104145
v 0.251751 -0.327789 0.110120
v -0.290538 0.317905 0.102311
v -0.278518 0.333789 0.100514
v -0.306412 0.372745 0.076575
v -0.294018 0.388256 0.074170
v -0.054695 -0.321623 0.141622
v -0.052442 -0.302641 0.147505
v -0.033431 -0.262234 0.159193
v -0.030608 -0.242992 0.163861
v -0.278406 -0.283529 0.116016
v -0.276072 -0.264567 0.121931
v -0.322244 -0.248373 0.112112
v -0.319489 -0.229359 0.117667
v 0.246666 0.500355 0.030896
v 0.258161 0.511735 0.019134
v 0.250784 0.447708 0.060998
v 0.261971 0.460418 0.050353
v -0.166391 -0.566287 0.005617
v -0.166968 -0.550057 0.017290
v -0.153645 -0.510558 0.046381
v -0.154099 -0.493340 0.056546
v 0.520673 0.211819 0.027512
v 0.531083 0.225008 0.016664
v 0.211422 0.336300 0.119553
v 0.222675 0.350909 0.111811
v 0.124243 0.329621 0.136608
v 0.135999 0.344441 0.130117
v -0.181249 -0.036478 0.175527
v -0.174322 -0.017786 0.177156
v -0.276922 -0.001969 0.155805
v -0.269355 0.016453 0.157641
v -0.327368 0.060643 0.139613
v -0.318296 0.078384 0.141325
v -0.022066 -0.037466 0.190757
v -0.015100 -0.018731 0.191451
v -0.079127 -0.080701 0.185385
v -0.072762 -0.061820 0.187118
v -0.183596 -0.198917 0.157242
v -0.179468 -0.179780 0.161332
v -0.145503 -0.264829 0.148751
v -0.142865 -0.245653 0.153783
v 0.224005 -0.048009 0.169128
v 0.231204 -0.029363 0.168415
v 0.160915 -0.011906 0.181197
v 0.168898 0.006404 0.180183
v 0.108812 0.160030 0.176827
v 0.121926 0.174724 0.173349
v -0.198216 0.161060 0.161895
v -0.185223 0.176265 0.161953
v -0.129594 0.168667 0.171530
v -0.116561 0.183816 0.170722
v 0.346463 -0.041496 0.136127
v 0.353498 -0.022859 0.134349
v 0.284995 -0.048227 0.154672
v 0.292125 -0.029577 0.153506
v 0.272139 0.070565 0.157346
v 0.281301 0.087972 0.153734
v 0.213948 0.069725 0.170589
v 0.223259 0.087166 0.167572
v 0.018456 -0.090084 0.187893
v 0.024447 -0.071049 0.189225
v 0.025124 -0.154759 0.180420
v 0.030251 -0.135582 0.182866
v 0.277545 -0.248573 0.126837
v 0.281290 -0.229255 0.130411
v 0.342930 -0.234055 0.109669
v 0.347334 -0.214781 0.112690
v -0.213676 -0.356262 0.108427
v -0.212544 -0.337541 0.115371
v -0.092930 -0.373941 0.120726
v -0.091578 -0.355254 0.127722
v 0.090804 0.275159 0.155737
v 0.102677 0.290414 0.150605
v 0.063571 0.338253 0.139186
v 0.075530 0.353165 0.133302
v 0.025019 -0.503076 0.064418
v 0.025200 -0.485641 0.074216
v 0.049389 -0.445674 0.093693
v 0.050062 -0.427535 0.102090
v -0.291983 -0.129760 0.143578
v -0.286992 -0.110734 0.147195
v -0.404226 -0.156451 0.100558
v -0.400041 -0.137465 0.105253
v 0.466191 0.303295 0.031672
v 0.475301 0.317052 0.020368
v 0.415285 0.319341 0.053778
v 0.424958 0.333322 0.043243
v -0.382359 -0.128096 0.113615
v -0.377513 -0.109142 0.117769
v -0.376328 -0.059077 0.122513
v -0.370363 -0.040250 0.125671
v -0.026611 0.242317 0.166132
v -0.014645 0.258015 0.162909
v -0.005686 0.312408 0.148599
v 0.006363 0.327716 0.144075
v -0.150637 0.409818 0.100417
v -0.138022 0.424645 0.095831
v 0.088852 0.447773 0.092836
v 0.101536 0.460966 0.084769
v -0.319822 0.158485 0.131698
v -0.307011 0.173768 0.133210
v -0.231833 0.179132 0.152121
v -0.218868 0.194359 0.152308
v -0.310811 -0.188016 0.128972
v -0.306924 -0.168935 0.133535
v -0.243559 -0.208074 0.143313
v -0.240012 -0.188901 0.147763
v 0.071828 -0.250930 0.160487
v 0.075301 -0.231675 0.164635
v 0.124178 -0.306292 0.140986
v 0.126858 -0.287163 0.146173
v 0.169056 -0.166808 0.166610
v 0.174243 -0.147609 0.168728
v 0.218681 -0.224503 0.146827
v 0.222844 -0.205198 0.149982
v -0.243134 -0.518426 0.019083
v -0.244040 -0.501603 0.029861
v -0.191269 -0.543747 0.015993
v -0.191988 -0.527309 0.027364
v 0.484885 0.175243 0.058574
v 0.495713 0.189140 0.049107
v 0.325527 0.107285 0.138912
v 0.335330 0.123962 0.133833
v 0.425413 0.067804 0.103578
v 0.434056 0.085028 0.098229
v -0.000010 -0.265562 0.159034
v 0.002862 -0.246316 0.163653
v -0.075244 -0.213056 0.167745
v -0.071427 -0.193810 0.171624
v 0.094232 -0.406337 0.108137
v 0.095513 -0.387830 0.115610
v 0.318222 0.296737 0.102426
v 0.328871 0.311375 0.093921
v 0.373418 0.279526 0.086837
v 0.383726 0.294083 0.077790
v -0.102750 -0.443220 0.090219
v -0.102383 -0.425079 0.098632
v -0.083046 -0.499017 0.062898
v -0.083251 -0.481556 0.072649
v 0.172881 -0.524838 0.033823
v 0.173598 -0.507851 0.044355
v 0.167311 -0.476284 0.063962
v 0.168098 -0.458572 0.073218
v -0.301327 -0.340091 0.090699
v -0.299945 -0.321407 0.097700
v -0.246261 -0.363956 0.097783
v -0.245210 -0.345311 0.104942
v 0.418361 0.035389 0.108494
v 0.426307 0.053214 0.104123
v 0.469106 0.019008 0.084359
v 0.476869 0.036839 0.079691
v -0.383209 0.224138 0.095879
v -0.371003 0.239947 0.096935
v -0.458722 0.137666 0.078240
v -0.449234 0.155163 0.080205
v -0.418903 0.173193 0.091359
v -0.407818 0.189753 0.093062
v -0.011412 0.100835 0.187831
v -0.001005 0.117856 0.186418
v -0.081818 0.125664 0.181999
v -0.070453 0.142089 0.180970
v 0.284861 0.441787 0.053036
v 0.295833 0.454413 0.042073
v 0.153132 0.065577 0.180852
v 0.162563 0.083053 0.178474
v 0.211288 0.109908 0.168000
v 0.221470 0.126696 0.164193
v -0.299193 0.078798 0.146985
v -0.289148 0.096035 0.148394
v -0.357248 0.071997 0.128838
v -0.348187 0.089741 0.130581
v 0.264493 0.251606 0.131594
v 0.275779 0.266586 0.124650
v 0.213997 0.283103 0.135553
v 0.225336 0.298107 0.128748
v -0.109318 -0.099302 0.181126
v -0.103550 -0.080276 0.183299
v -0.083889 -0.044343 0.187159
v -0.076925 -0.025632 0.188341
v -0.193057 -0.163187 0.161648
v -0.188436 -0.144057 0.165211
v -0.205150 -0.094324 0.167688
v -0.199460 -0.075321 0.170241
v -0.073445 0.089515 0.185885
v -0.063260 0.106713 0.185193
v -0.142799 0.108854 0.177138
v -0.132564 0.126032 0.176736
v 0.322297 -0.104356 0.139379
v 0.328306 -0.085281 0.139279
v 0.322128 -0.176700 0.129037
v 0.327374 -0.157467 0.130652
v 0.100609 -0.019250 0.187869
v 0.108634 -0.000936 0.187414
v 0.028701 0.049139 0.190985
v 0.038220 0.066700 0.189979
v 0.307288 0.012951 0.149626
v 0.315698 0.030877 0.146811
v 0.357402 0.060083 0.131755
v 0.366333 0.077439 0.127396
v -0.040490 0.300570 0.150908
v -0.028684 0.316193 0.146840
v -0.108934 0.279121 0.151249
v -0.097027 0.294905 0.148236
v 0.191860 -0.099775 0.171509
v 0.197940 -0.080730 0.172065
v 0.255741 -0.068092 0.160930
v 0.262347 -0.049221 0.160449
v 0.041162 0.401560 0.116714
v 0.053654 0.415730 0.110144
v 0.096568 0.352046 0.131964
v 0.108326 0.366876 0.125498
v 0.343225 0.399215 0.052408
v 0.353586 0.412311 0.041400
v -0.203015 -0.255101 0.141497
v -0.199991 -0.236003 0.146609
v -0.177146 -0.311465 0.130731
v -0.175033 -0.292512 0.136757
v 0.302429 -0.275919 0.111989
v 0.305922 -0.256709 0.116321
v 0.258640 -0.314455 0.112781
v 0.261701 -0.295414 0.118079
v -0.064754 -0.393591 0.115430
v -0.063778 -0.374977 0.122681
v -0.088738 -0.339352 0.133480
v -0.086933 -0.320435 0.139717
v 0.045287 0.149906 0.182214
v 0.058566 0.164650 0.179704
v 0.016635 -0.452163 0.091650
v 0.017278 -0.434087 0.100185
v -0.031924 -0.477109 0.078401
v -0.031746 -0.459358 0.087613
v -0.281274 0.486032 0.027555
v -0.267395 0.499911 0.023712
v -0.165984 0.180380 0.164521
v -0.152677 0.195301 0.164002
v -0.233407 0.213265 0.145471
v -0.220998 0.228940 0.144908
v -0.439417 -0.368080 0.018889
v -0.439235 -0.349921 0.027268
v -0.384388 -0.394408 0.035070
v -0.384171 -0.376344 0.043652
v -0.157838 0.052441 0.178850
v -0.148575 0.070161 0.179273
v -0.217768 0.013140 0.169469
v -0.209387 0.031250 0.170808
v -0.228935 0.313751 0.120466
v -0.216915 0.329563 0.118118
v 0.023832 0.285578 0.156145
v 0.035861 0.300921 0.151684
v -0.185868 0.068211 0.173615
v -0.176600 0.085930 0.174011
v -0.242830 0.069809 0.162041
v -0.233603 0.087533 0.162878
v -0.140878 0.233832 0.158128
v -0.128450 0.249392 0.156274
v -0.120259 0.134848 0.177155
v -0.108902 0.151291 0.176352
v 0.005456 -0.013346 0.191780
v 0.013561 0.004937 0.191966
v -0.015050 -0.078604 0.188563
v -0.008575 -0.059730 0.189930
v 0.219656 0.364404 0.107403
v 0.231002 0.378558 0.098982
v 0.156081 0.343884 0.127361
v 0.167590 0.358601 0.120222
v -0.106780 -0.131000 0.178090
v -0.101517 -0.111885 0.180718
v -0.143577 -0.084117 0.178453
v -0.137799 -0.065080 0.180505
v 0.178623 0.127823 0.171938
v 0.189920 0.143875 0.168106
v 0.149071 0.104656 0.178618
v 0.159410 0.121503 0.175570
v -0.194306 0.329871 0.122867
v -0.182197 0.345511 0.119908
v -0.125956 0.360999 0.123576
v -0.113660 0.376235 0.119496
v 0.493832 0.287218 0.020137
v 0.502900 0.300976 0.008802
v -0.421954 -0.017908 0.105532
v -0.414793 0.000476 0.108812
v -0.382369 0.045922 0.121017
v -0.373844 0.063867 0.123318
v -0.342596 0.178513 0.120776
v -0.329794 0.193802 0.122313
v -0.295714 0.210753 0.129661
v -0.282439 0.225701 0.130258
v 0.154840 -0.105193 0.176621
v 0.160984 -0.086182 0.177548
v 0.195866 -0.064592 0.173561
v 0.202511 -0.045728 0.173417
v 0.374764 0.089692 0.123220
v 0.384388 0.106362 0.117789
v 0.326526 0.071471 0.141593
v 0.335510 0.088828 0.137349
v -0.207303 -0.323231 0.121260
v -0.205272 -0.304353 0.127545
v -0.150227 -0.333119 0.128219
v -0.148500 -0.314201 0.134476
v 0.070935 -0.546742 0.034594
v 0.071202 -0.530013 0.045551
v -0.269491 -0.338251 0.100937
v -0.268036 -0.319513 0.107775
v -0.321704 -0.309577 0.094488
v -0.319931 -0.290773 0.101066
v -0.285861 -0.163647 0.140492
v -0.281349 -0.144587 0.144535
v -0.342670 -0.177987 0.120502
v -0.338773 -0.158902 0.125038
v -0.564856 0.026103 0.024341
v -0.558474 0.044680 0.028101
v -0.565616 -0.035228 0.023054
v -0.560317 -0.016484 0.027589
v 0.227078 0.251169 0.141022
v 0.238547 0.266200 0.134500
v 0.285514 0.224826 0.132098
v 0.297177 0.239544 0.125217
v -0.133541 -0.234888 0.157454
v -0.130348 -0.215649 0.161893
v -0.116935 -0.287979 0.146301
v -0.114302 -0.268888 0.151647
v 0.076576 0.413589 0.109610
v 0.088766 0.427690 0.102359
v -0.135432 -0.150054 0.172357
v -0.130708 -0.130867 0.175442
v -0.088923 -0.183149 0.172196
v -0.084661 -0.163912 0.175629
v 0.140059 -0.577429 0.002892
v 0.140880 -0.561293 0.014680
v 0.182139 0.292451 0.139227
v 0.193552 0.307491 0.132629
v -0.104902 0.226135 0.164127
v -0.092450 0.241649 0.162059
v -0.141710 0.265594 0.150558
v -0.129629 0.281348 0.148133
v 0.124135 0.042823 0.185324
v 0.133635 0.060334 0.183558
v 0.068008 -0.004191 0.190324
v 0.076035 0.014123 0.189908
v -0.347447 -0.058529 0.132936
v -0.341394 -0.039700 0.135906
v 0.115065 0.120691 0.180991
v 0.126531 0.136804 0.178009
v -0.543216 0.162206 0.023104
v -0.534622 0.180157 0.025078
v -0.296317 -0.061616 0.148688
v -0.290178 -0.042764 0.151318
v 0.045126 -0.063534 0.189242
v 0.051774 -0.044687 0.190012
v 0.036381 -0.122871 0.184288
v 0.041950 -0.103755 0.186176
v 0.065848 0.213918 0.171100
v 0.078366 0.229052 0.167325
v -0.018348 0.137528 0.184004
v -0.006840 0.153785 0.182191
v -0.031219 0.208291 0.172905
v -0.017893 0.223003 0.170467
v -0.370716 0.444789 0.013983
v -0.357645 0.459704 0.011397
v 0.156005 0.274589 0.148362
v 0.167639 0.289736 0.142427
v 0.180989 0.325216 0.129415
v 0.192387 0.340010 0.122260
v -0.422138 0.372624 0.026010
v -0.409898 0.388403 0.024913
v -0.206244 0.496714 0.044106
v -0.192480 0.510295 0.038997
v -0.335934 0.450562 0.026723
v -0.322788 0.465319 0.023654
v -0.316292 0.425956 0.048333
v -0.303263 0.440869 0.045526
v 0.003727 0.195662 0.175920
v 0.017162 0.210247 0.173311
v -0.245242 -0.010027 0.163491
v -0.237662 0.008395 0.165280
v -0.262380 0.515014 0.015463
v -0.248128 0.528250 0.010806
v 0.553159 -0.131823 0.022205
v 0.558386 -0.112539 0.021304
v -0.240942 -0.047430 0.163433
v -0.234104 -0.028764 0.165628
v -0.300569 -0.029256 0.148893
v -0.293798 -0.010585 0.151250
v -0.208421 0.542659 0.012515
v -0.194198 0.555562 0.006928
v 0.500240 -0.137835 0.055941
v 0.505641 -0.118583 0.055533
v 0.515150 -0.187832 0.036814
v 0.519877 -0.168439 0.038066
v -0.427121 -0.084221 0.099680
v -0.421375 -0.065492 0.103703
v -0.391306 -0.021721 0.118285
v -0.384349 -0.003208 0.121265
v -0.325886 -0.081825 0.138443
v -0.319895 -0.063013 0.141639
v 0.089389 -0.569871 0.015834
v 0.089952 -0.553705 0.027596
v 0.037596 -0.552851 0.032712
v 0.037853 -0.536213 0.043808
v 0.522206 -0.152395 0.039817
v 0.527348 -0.133067 0.039893
v 0.558485 -0.182528 0.007721
v 0.563258 -0.163140 0.008868
v 0.396233 0.389435 0.032238
v 0.405711 0.402339 0.020253
v 0.013537 -0.590512 0.005605
v 0.013501 -0.574600 0.017721
g knit_direction
l 1 2
l 3 4
l 5 6
l 7 8
l 9 10
l 11 12
l 13 14
l 15 16
l 17 18
l 19 20
l 21 22
l 23 24
l 25 26
l 27 28
l 29 30
l 31 32
l 33 34
l 35 36
l 37 38
l 39 40
l 41 42
l 43 44
l 45 46
l 47 48
l 49 50
l 51 52
l 53 54
l 55 56
l 57 58
l 59 60
l 61 62
l 63 64
l 65 66
l 67 68
l 69 70
l 71 72
l 73 74
l 75 76
l 77 78
l 79 80
l 81 82
l 83 84
l 85 86
l 87 88
l 89 90
l 91 92
l 93 94
l 95 96
l 97 98
l 99 100
l 101 102
l 103 104
l 105 106
l 107 108
l 109 110
l 111 112
l 113 114
l 115 116
l 117 118
l 119 120
l 121 122
l 123 124
l 125 126
l 127 128
l 129 130
l 131 132
l 133 134
l 135 136
l 137 138
l 139 140
l 141 142
l 143 144
l 145 146
l 147 148
l 149 150
l 151 152
l 153 154
l 155 156
l 157 158
l 159 160
l 161 162
l 163 164
l 165 166
l 167 168
l 169 170
l 171 172
l 173 174
l 175 176
l 177 178
l 179 180
l 181 182
l 183 184
l 185 186
l 187 188
l 189 190
l 191 192
l 193 194
l 195 196
l 197 198
l 199 200
l 201 202
l 203 204
l 205 206
l 207 208
l 209 210
l 211 212
l 213 214
l 215 216
l 217 218
l 219 220
l 221 222
l 223 224
l 225 226
l 227 228
l 229 230
l 231 232
l 233 234
l 235 236
l 237 238
l 239 240
l 241 242
l 243 244
l 245 246
l 247 248
l 249 250
l 251 252
l 253 254
l 255 256
l 257 258
l 259 260
l 261 262
l 263 264
l 265 266
l 267 268
l 269 270
l 271 272
l 273 274
l 275 276
l 277 278
l 279 280
l 281 282
l 283 284
l 285 286
l 287 288
l 289 290
l 291 292
l 293 294
l 295 296
l 297 298
l 299 300
l 301 302
l 303 304
l 305 306
l 307 308
l 309 310
l 311 312
l 313 314
l 315 316
l 317 318
l 319 320
l 321 322
l 323 324
l 325 326
l 327 328
l 329 330
l 331 332
l 333 334
l 335 336
l 337 338
l 339 340
l 341 342
l 343 344
l 345 346
l 347 348
l 349 350
l 351 352
l 353 354
l 355 356
l 357 358
l 359 360
l 361 362
l 363 364
l 365 366
l 367 368
l 369 370
l 371 372
l 373 374
l 375 376
l 377 378
l 379 380
l 381 382
l 383 384
l 385 386
l 387 388
l 389 390
l 391 392
l 393 394
l 395 396
l 397 398
l 399 400
l 401 402
l 403 404
l 405 406
l 407 408
l 409 410
l 411 412
l 413 414
l 415 416
l 417 418
l 419 420
l 421 422
l 423 424
l 425 426
l 427 428
l 429 430
l 431 432
l 433 434
l 435 436
l 437 438
l 439 440
l 441 442
l 443 444
l 445 446
l 447 448
l 449 450
l 451 452
l 453 454
l 455 456
l 457 458
l 459 460
l 461 462
l 463 464
l 465 466
l 467 468
l 469 470
l 471 472
l 473 474
l 475 476
l 477 478
l 479 480
l 481 482
l 483 484
l 485 486
l 487 488
l 489 490
l 491 492
l 493 494
l 495 496
l 497 498
l 499 500
l 501 502
l 503 504
l 505 506
l 507 508
l 509 510
l 511 512
l 513 514
l 515 516
l 517 518
l 519 520
l 521 522
l 523 524
l 525 526
l 527 528
l 529 530
l 531 532
l 533 534
l 535 536
l 537 538
l 539 540
l 541 542
l 543 544
l 545 546
l 547 548
l 549 550
l 551 552
l 553 554
l 555 556
l 557 558
l 559 560
l 561 562
l 563 564
l 565 566
l 567 568
l 569 570
l 571 572
l 573 574
l 575 576
l 577 578
l 579 580
l 581 582
l 583 584
l 585 586
l 587 588
l 589 590
l 591 592
l 593 594
l 595 596
l 597 598
l 599 600
l 601 602
l 603 604
l 605 606
l 607 608
l 609 610
l 611 612
l 613 614
l 615 616
l 617 618
l 619 620
l 621 622
l 623 624
l 625 626
l 627 628
l 629 630
l 631 632
l 633 634
l 635 636
l 637 638
l 639 640
l 641 642
l 643 644
l 645 646
l 647 648
l 649 650
l 651 652
l 653 654
l 655 656
l 657 658
l 659 660
l 661 662
l 663 664
l 665 666
l 667 668
l 669 670
l 671 672
l 673 674
l 675 676
l 677 678
l 679 680
l 681 682
l 683 684
l 685 686
l 687 688
l 689 690
l 691 692
l 693 694
l 695 696
l 697 698
l 699 700
l 701 702
l 703 704
l 705 706
l 707 708
l 709 710
l 711 712
l 713 714
l 715 716
l 717 718
l 719 720
l 721 722
l 723 724
l 725 726
l 727 728
l 729 730
l 731 732
l 733 734
l 735 736
l 737 738
l 739 740
l 741 742
l 743 744
l 745 746
l 747 748
l 749 750
l 751 752
l 753 754
l 755 756
l 757 758
l 759 760
l 761 762
l 763 764
l 765 766
l 767 768
l 769 770
l 771 772
l 773 774
l 775 776
l 777 778
l 779 780
l 781 782
l 783 784
l 785 786
l 787 788
l 789 790
l 791 792
l 793 794
l 795 796
l 797 798
l 799 800
l 801 802
l 803 804
l 805 806
l 807 808
l 809 810
l 811 812
l 813 814
l 815 816
l 817 818
l 819 820
l 821 822
l 823 824
l 825 826
l 827 828
l 829 830
l 831 832
l 833 834
l 835 836
l 837 838
l 839 840
l 841 842
l 843 844
l 845 846
l 847 848
l 849 850
l 851 852
l 853 854
l 855 856
l 857 858
l 859 860
l 861 862
l 863 864
l 865 866
l 867 868
l 869 870
l 871 872
l 873 874
l 875 876
l 877 878
l 879 880
l 881 882
l 883 884
l 885 886
l 887 888
l 889 890
l 891 892
l 893 894
l 895 896
l 897 898
l 899 900
l 901 902
l 903 904
l 905 906
l 907 908
l 909 910
l 911 912
l 913 914
l 915 916
l 917 918
l 919 920
l 921 922
l 923 924
l 925 926
l 927 928
l 929 930
l 931 932
l 933 934
l 935 936
l 937 938
l 939 940
l 941 942
l 943 944
l 945 946
l 947 948
l 949 950
l 951 952
l 953 954
l 955 956
l 957 958
l 959 960
l 961 962
l 963 964
l 965 966
l 967 968
l 969 970
l 971 972
l 973 974
l 975 976
l 977 978
l 979 980
l 981 982
l 983 984
l 985 986
l 987 988
l 989 990
l 991 992
l 993 994
l 995 996
l 997 998
l 999 1000
l 1001 1002
l 1003 1004
l 1005 1006
l 1007 1008
l 1009 1010
l 1011 1012
l 1013 1014
l 1015 1016
l 1017 1018
l 1019 1020
l 1021 1022
l 1023 1024
l 1025 1026
l 1027 1028
l 1029 1030
l 1031 1032
l 1033 1034
l 1035 1036
l 1037 1038
l 1039 1040
l 1041 1042
l 1043 1044
l 1045 1046
l 1047 1048
l 1049 1050
l 1051 1052
l 1053 1054
l 1055 1056
l 1057 1058
l 1059 1060
l 1061 1062
l 1063 1064
l 1065 1066
l 1067 1068
l 1069 1070
l 1071 1072
l 1073 1074
l 1075 1076
l 1077 1078
l 1079 1080
l 1081 1082
l 1083 1084
l 1085 1086
l 1087 1088
l 1089 1090
l 1091 1092
l 1093 1094
l 1095 1096
l 1097 1098
l 1099 1100
l 1101 1102
l 1103 1104
l 1105 1106
l 1107 1108
l 1109 1110
l 1111 1112
l 1113 1114
l 1115 1116
l 1117 1118
l 1119 1120
l 1121 1122
l 1123 1124
l 1125 1126
l 1127 1128
l 1129 1130
l 1131 1132
l 1133 1134
l 1135 1136
l 1137 1138
l 1139 1140
l 1141 1142
l 1143 1144
l 1145 1146
l 1147 1148
l 1149 1150
l 1151 1152
l 1153 1154
l 1155 1156
l 1157 1158
l 1159 1160
l 1161 1162
l 1163 1164
l 1165 1166
l 1167 1168
l 1169 1170
l 1171 1172
l 1173 1174
l 1175 1176
l 1177 1178
l 1179 1180
l 1181 1182
l 1183 1184
l 1185 1186
l 1187 1188
l 1189 1190
l 1191 1192
l 1193 1194
l 1195 1196
l 1197 1198
l 1199 1200
l 1201 1202
l 1203 1204
l 1205 1206
l 1207 1208
l 1209 1210
l 1211 1212
l 1213 1214
l 1215 1216
l 1217 1218
l 1219 1220
l 1221 1222
l 1223 1224
l 1225 1226
l 1227 1228
l 1229 1230
l 1231 1232
l 1233 1234
l 1235 1236
l 1237 1238
l 1239 1240
l 1241 1242
l 1243 1244
l 1245 1246
l 1247 1248
l 1249 1250
l 1251 1252
l 1253 1254
l 1255 1256
l 1257 1258
l 1259 1260
l 1261 1262
l 1263 1264
l 1265 1266
l 1267 1268
l 1269 1270
l 1271 1272
l 1273 1274
l 1275 1276
l 1277 1278
l 1279 1280
l 1281 1282
l 1283 1284
l 1285 1286
l 1287 1288
l 1289 1290
l 1291 1292
l 1293 1294
l 1295 1296
l 1297 1298
l 1299 1300
l 1301 1302
l 1303 1304
l 1305 1306
l 1307 1308
l 1309 1310
l 1311 1312
l 1313 1314
l 1315 1316
l 1317 1318
l 1319 1320
l 1321 1322
l 1323 1324
l 1325 1326
l 1327 1328
l 1329 1330
l 1331 1332
l 1333 1334
l 1335 1336
l 1337 1338
l 1339 1340
l 1341 1342
l 1343 1344
l 1345 1346
l 1347 1348
l 1349 1350
l 1351 1352
l 1353 1354
l 1355 1356
l 1357 1358
l 1359 1360
l 1361 1362
l 1363 1364
l 1365 1366
l 1367 1368
l 1369 1370
l 1371 1372
l 1373 1374
l 1375 1376
l 1377 1378
l 1379 1380
l 1381 1382
l 1383 1384
l 1385 1386
l 1387 1388
l 1389 1390
l 1391 1392
l 1393 1394
l 1395 1396
l 1397 1398
l 1399 1400
l 1401 1402
l 1403 1404
l 1405 1406
l 1407 1408
l 1409 1410
l 1411 1412
l 1413 1414
l 1415 1416
l 1417 1418
l 1419 1420
l 1421 1422
l 1423 1424
l 1425 1426
l 1427 1428
l 1429 1430
l 1431 1432
l 1433 1434
l 1435 1436
l 1437 1438
l 1439 1440
l 1441 1442
l 1443 1444
l 1445 1446
l 1447 1448
l 1449 1450
l 1451 1452
l 1453 1454
l 1455 1456
l 1457 1458
l 1459 1460
l 1461 1462
l 1463 1464
l 1465 1466
l 1467 1468
l 1469 1470
