# left nu=0.58, right nu=0.65, p=1100 Pa
# left  half (x<0): E1=10300, E2=13400 N/m
# right half (x>=0): E1=7700, E2=7600 N/m
# prestrain sf_wale=sf_course=1.0, per-face knit field from FDM/data/2part/circle_face_directional_field.txt
# rest mesh data/circular_flat.off, units metres, crown height 198.54 mm
v -0.086821 -0.591712 -0.000000
v 0.049477 -0.597957 -0.000000
v 0.103330 -0.588853 -0.000000
v 0.319076 -0.506639 -0.000000
v 0.425297 -0.421536 -0.000000
v 0.534698 -0.272062 -0.000000
v 0.589925 -0.100706 -0.000000
v 0.589305 0.105327 -0.000000
v 0.552765 0.231368 -0.000000
v 0.464920 0.376886 -0.000000
v 0.381713 0.462387 -0.000000
v 0.266057 0.535760 -0.000000
v 0.077015 0.593385 -0.000000
v 0.020637 0.598317 -0.000000
v -0.113865 0.588034 -0.000000
v -0.398768 0.445829 -0.000000
v -0.520207 0.296007 -0.000000
v -0.581631 0.142695 -0.000000
v -0.597972 0.037805 -0.000000
v -0.591869 -0.091000 -0.000000
v -0.538164 -0.264416 -0.000000
v -0.475555 -0.364413 -0.000000
v -0.407116 -0.439551 -0.000000
v -0.307968 -0.512708 -0.000000
v -0.263830 -0.537502 -0.000000
v -0.139526 -0.582548 -0.000000
v -0.024336 0.010621 0.198486
v 0.004093 -0.356599 0.137154
v -0.306936 0.010545 0.153180
v -0.251807 -0.277072 0.129847
v 0.373295 -0.003872 0.132842
v 0.330339 -0.292862 0.102124
v -0.027630 0.345206 0.143295
v 0.309060 0.268090 0.119288
v -0.319783 0.314095 0.098330
v -0.155163 0.092643 0.183178
v 0.133235 -0.163176 0.178650
v -0.438876 -0.223035 0.074273
v 0.224069 0.453428 0.069029
v -0.484373 0.350503 -0.000000
v 0.266488 -0.535854 -0.000000
v -0.567673 0.187891 -0.000000
v -0.443498 -0.401011 -0.000000
v 0.498867 0.330759 -0.000000
v 0.462133 -0.379879 -0.000000
v 0.597210 0.042420 -0.000000
v -0.173958 0.572538 -0.000000
v -0.597290 -0.025667 -0.000000
v -0.350551 0.484708 -0.000000
v 0.215850 0.159378 0.167506
v 0.386141 -0.141340 0.116721
v -0.217200 0.355215 0.113763
v 0.144802 -0.445994 0.087725
v -0.440577 0.118336 0.094056
v -0.205888 -0.434548 0.080901
v 0.218525 0.505315 0.038973
v -0.580740 -0.143234 -0.000000
v -0.047975 0.595913 -0.000000
v -0.590699 0.093560 -0.000000
v 0.425150 0.420560 -0.000000
v -0.013386 -0.597809 -0.000000
v 0.373168 -0.467076 -0.000000
v 0.501943 -0.324979 -0.000000
v 0.597050 -0.030994 -0.000000
v 0.573604 0.168579 -0.000000
v -0.361916 -0.476224 -0.000000
v -0.159283 -0.164838 0.173213
v 0.336231 0.151212 0.135279
v -0.078753 0.450294 0.095424
v -0.287494 0.151539 0.148010
v 0.147891 -0.227741 0.164482
v 0.479875 -0.112457 0.074947
v 0.325977 0.435225 0.043864
v -0.183648 -0.482400 0.060076
v 0.161478 0.523152 0.041348
v -0.515090 -0.211674 0.032546
v 0.558942 -0.212499 -0.000000
v 0.528969 0.278843 -0.000000
v -0.544816 0.247483 -0.000000
v 0.209558 -0.560046 -0.000000
v -0.428419 -0.330409 0.044139
v 0.396594 0.064741 0.121546
v -0.501052 -0.031257 0.068767
v 0.054491 0.448948 0.099592
v -0.291233 -0.244451 0.127781
v 0.022522 0.134095 0.191513
v -0.408485 0.216171 0.090944
v 0.193549 -0.407902 0.096834
v -0.292348 0.411848 0.067286
v 0.411482 0.294613 0.068211
v 0.254349 -0.140731 0.160088
v -0.170297 0.492455 0.057856
v -0.542165 0.063882 0.040638
v 0.510523 -0.072125 0.060885
v -0.252900 -0.478470 0.044108
v -0.477138 -0.298826 0.028404
v -0.201763 -0.562765 -0.000000
v 0.118928 0.431137 0.102037
v 0.419658 0.014586 0.112951
v -0.047772 -0.172031 0.183453
v -0.295092 -0.086607 0.152980
v -0.059201 0.233826 0.172843
v 0.225145 -0.311818 0.127229
v 0.426509 -0.261945 0.070347
v 0.096288 -0.484496 0.073665
v 0.249577 0.222035 0.148484
v -0.464691 0.208594 0.064286
v -0.321642 -0.391321 0.066178
v -0.373470 0.332751 0.069947
v -0.077960 0.543580 0.039380
v 0.467794 0.273023 0.044836
v -0.104571 -0.545508 0.033657
v -0.520682 -0.153313 0.042903
v 0.146097 0.579745 -0.000000
v 0.327987 0.499928 -0.000000
v -0.508200 -0.314887 -0.000000
v -0.149238 -0.005879 0.187727
v 0.161775 0.036017 0.187635
v -0.161492 -0.392192 0.109283
v 0.131638 0.264616 0.160416
v -0.194916 0.306200 0.135590
v 0.470851 0.210508 0.061750
v 0.084127 -0.205929 0.175812
v -0.466212 -0.131662 0.078899
v 0.302394 -0.389771 0.074256
v 0.178542 -0.350945 0.123332
v 0.544805 0.069770 0.038871
v -0.046330 0.499300 0.071042
v -0.462559 0.300220 0.036426
v 0.443852 -0.156401 0.087526
v 0.065269 0.504244 0.067483
v 0.345837 0.373987 0.066474
v 0.004387 -0.552414 0.036136
v -0.202131 0.449725 0.074825
v 0.552834 -0.053865 0.033879
v 0.213306 0.559754 -0.000000
v -0.562375 -0.203751 -0.000000
v -0.309961 -0.449811 0.040340
v -0.234158 -0.230888 0.146191
v 0.249504 0.350853 0.109664
v 0.415987 -0.040995 0.113851
v 0.062369 0.082296 0.195089
v -0.072279 -0.107565 0.190317
v -0.090928 0.352120 0.136263
v 0.209765 -0.250291 0.148443
v -0.444591 0.059184 0.097935
v 0.025054 -0.413752 0.113859
v -0.231640 0.256098 0.141708
v 0.421682 0.234749 0.081945
v 0.388405 -0.308223 0.072945
v 0.209117 -0.510939 0.036191
v -0.423876 -0.173088 0.093068
v -0.370040 0.270083 0.093345
v -0.265943 -0.418782 0.072310
v -0.432709 -0.273123 0.063038
v 0.534030 0.127360 0.039013
v -0.015129 0.547573 0.040725
v 0.533418 -0.110134 0.041716
v 0.272971 0.432747 0.064955
v 0.101453 0.539893 0.039975
v -0.491815 0.251391 0.035949
v -0.364102 -0.415493 0.036191
v -0.122465 0.050101 0.190270
v 0.222554 0.039354 0.176783
v -0.235750 -0.073713 0.169226
v -0.085135 -0.296993 0.152673
v 0.046200 0.195636 0.181989
v 0.068511 -0.373033 0.128817
v 0.299345 -0.180568 0.140793
v 0.012787 0.395310 0.125078
v 0.178067 0.417256 0.098601
v -0.546717 -0.056512 0.037856
v -0.345991 0.151208 0.129213
v 0.317814 0.208749 0.131132
v -0.359744 -0.016457 0.135537
v -0.279434 -0.360456 0.093971
v -0.059238 -0.518107 0.056601
v 0.254901 -0.426400 0.072175
v 0.067021 -0.141515 0.187594
v 0.466412 -0.059386 0.087786
v 0.511509 -0.216420 0.034230
v 0.162626 -0.290837 0.146012
v 0.441789 0.111151 0.096177
v 0.442488 -0.319283 0.040888
v -0.375192 -0.358999 0.058357
v -0.412655 0.301929 0.062908
v 0.104549 -0.534009 0.041762
v -0.481999 -0.245745 0.044031
v 0.551308 0.006529 0.037112
v -0.107645 0.496610 0.066456
v 0.043474 0.549472 0.038737
v -0.388679 -0.229354 0.096627
v -0.492873 0.091837 0.069341
v -0.253178 0.446426 0.062307
v 0.303912 0.099087 0.152245
v -0.216967 -0.177867 0.160668
v -0.247566 0.038562 0.168761
v 0.257882 -0.019993 0.168992
v -0.063698 -0.240102 0.169134
v -0.085594 0.169856 0.182619
v 0.135129 0.374057 0.124689
v 0.077458 -0.033453 0.196094
v -0.037293 -0.405182 0.117029
v 0.004398 0.234132 0.174820
v -0.395427 0.159024 0.108553
v -0.258971 0.306567 0.120079
v 0.241099 -0.370235 0.101737
v -0.141487 0.449674 0.087327
v 0.371151 -0.249700 0.099383
v 0.366872 0.253093 0.101839
v 0.510146 -0.022836 0.064300
v -0.014704 0.449451 0.099971
v -0.497251 0.030464 0.071116
v -0.332960 0.372460 0.070431
v 0.405342 -0.365605 0.040722
v 0.519108 0.186629 0.037241
v -0.119870 -0.495760 0.063839
v 0.292034 0.388697 0.080513
v -0.456731 -0.069628 0.090956
v -0.333391 -0.331179 0.086851
v 0.424138 -0.098716 0.105587
v 0.125375 0.090877 0.189437
v 0.312069 -0.445734 0.041851
v -0.548285 -0.108678 0.030964
v 0.131367 -0.390676 0.115295
v 0.462540 -0.213186 0.065119
v 0.495058 0.091937 0.069101
v 0.047491 -0.519355 0.056896
v -0.222237 -0.380262 0.101662
v -0.135974 0.536638 0.035885
v -0.424597 0.346735 0.038855
v -0.110385 -0.200241 0.173426
v 0.292338 -0.078779 0.156774
v -0.349739 0.047143 0.138222
v -0.258508 -0.132225 0.157965
v 0.277189 0.159419 0.152611
v -0.139518 -0.444736 0.088765
v -0.167456 0.256945 0.154535
v 0.036084 0.332877 0.147956
v 0.117802 -0.094076 0.189034
v -0.085717 0.001726 0.194946
v -0.226207 0.152773 0.163501
v 0.037020 -0.250119 0.168616
v 0.049916 -0.312799 0.150906
v -0.011443 -0.497830 0.071098
v -0.237794 -0.325767 0.118349
v 0.168937 0.471083 0.072584
v 0.347048 -0.350744 0.074264
v -0.505716 -0.092968 0.061323
v -0.384517 0.388904 0.039917
v 0.205034 -0.461590 0.067179
v -0.115311 0.402412 0.113567
v 0.234726 0.401567 0.092314
v -0.236538 0.403152 0.088794
v 0.504891 0.033745 0.067394
v 0.408246 -0.202781 0.095236
v 0.506658 0.237634 0.031202
v -0.000828 0.072659 0.196965
v -0.301997 0.254413 0.122748
v 0.256040 -0.210628 0.147021
v -0.485013 0.151285 0.065199
v 0.013453 0.499853 0.072572
v 0.482944 0.150237 0.067876
v -0.384187 -0.298659 0.077799
v 0.361515 -0.405834 0.042310
v -0.412945 -0.110499 0.107838
v 0.479451 -0.267879 0.038754
v -0.514666 0.195407 0.037220
v -0.053067 -0.559897 0.028072
v 0.377649 0.193674 0.111839
v 0.263214 -0.479181 0.040079
v -0.175368 -0.061809 0.181791
v 0.184753 -0.124329 0.176567
v 0.281189 0.039865 0.162631
v 0.061215 0.264604 0.166861
v -0.147111 -0.290400 0.147341
v 0.136507 -0.025432 0.190910
v 0.177238 0.212178 0.165601
v -0.263639 0.101096 0.160621
v -0.098279 -0.401196 0.114287
v -0.062220 0.062157 0.195225
v -0.451246 -0.005198 0.096459
v -0.131647 0.306356 0.146394
v 0.109035 0.207213 0.175721
v 0.352752 -0.190293 0.120989
v 0.115028 -0.331860 0.139563
v 0.304170 0.331843 0.099943
v -0.355761 0.211658 0.114177
v 0.361590 -0.074656 0.134429
v -0.387380 0.094192 0.120808
v 0.019194 -0.182309 0.182906
v -0.334272 -0.205453 0.123037
v 0.084912 -0.430686 0.102772
v 0.112535 0.486344 0.073481
v 0.463021 -0.003751 0.091769
v 0.403928 0.358292 0.046323
v 0.431258 0.172830 0.091612
v -0.051389 0.400055 0.120953
v -0.475412 -0.188137 0.063131
v 0.157115 -0.542554 0.027230
v 0.286763 -0.332289 0.103253
v -0.277249 0.359481 0.095584
v -0.018522 -0.292719 0.157779
v -0.340201 -0.268581 0.105048
v 0.273134 0.478112 0.038510
v -0.158946 -0.529692 0.035462
v 0.209947 0.318024 0.131059
v -0.211704 -0.013692 0.176970
v -0.297723 0.060099 0.154185
v -0.046411 -0.052000 0.196123
v -0.171116 -0.227197 0.159752
v 0.197704 -0.018632 0.181841
v 0.086830 0.144491 0.187520
v -0.157115 0.150787 0.176885
v 0.318089 -0.018236 0.152133
v 0.247622 0.099871 0.167489
v -0.003954 -0.113131 0.192753
v 0.313978 -0.235048 0.124403
v -0.121514 -0.346065 0.133026
v 0.097836 0.322552 0.147528
v 0.038990 -0.468457 0.086846
v -0.372955 -0.158299 0.117763
v 0.446516 0.327389 0.035787
v -0.357485 -0.087924 0.132705
v -0.008119 0.285884 0.162196
v -0.177582 0.402899 0.102927
v -0.258174 0.205087 0.146746
v -0.277331 -0.188554 0.144084
v 0.099447 -0.270346 0.159695
v 0.198184 -0.185757 0.164811
v -0.214586 -0.515042 0.031653
v 0.391175 0.132466 0.116751
v -0.015256 -0.227573 0.173864
v 0.359615 0.314594 0.085091
v -0.071136 -0.459505 0.089518
v 0.153864 -0.497115 0.057738
v 0.453863 0.053981 0.095130
v -0.435046 0.258419 0.066360
v -0.439277 0.170582 0.085957
v -0.041426 0.123179 0.191608
v 0.187607 0.097233 0.180091
v -0.324737 0.102223 0.142691
v 0.253977 0.289739 0.129456
v -0.111133 -0.054719 0.190926
v -0.198909 -0.119637 0.172586
v -0.103236 0.110732 0.188248
v 0.324789 -0.131882 0.140907
v 0.038241 0.019987 0.198544
v 0.338044 0.044456 0.144905
v -0.069077 0.297754 0.155786
v 0.229251 -0.077716 0.172614
v 0.074889 0.385452 0.126750
v 0.374648 0.409648 0.034993
v -0.201948 -0.280885 0.140433
v 0.270365 -0.273202 0.127482
v -0.058496 -0.349667 0.137675
v -0.013667 -0.450230 0.096620
v -0.235474 0.493472 0.040635
v -0.194632 0.204665 0.161294
v -0.414855 -0.382824 0.027285
v 0.497617 -0.162587 0.056107
v -0.184684 0.042301 0.181465
v -0.206771 0.097553 0.173956
v -0.128729 0.210573 0.170769
v 0.013610 -0.042832 0.197880
v 0.193266 0.365075 0.117862
v -0.138176 -0.107832 0.183560
v 0.150918 0.152782 0.179643
v -0.154705 0.354884 0.126585
v -0.400928 0.024005 0.119306
v -0.310169 0.197426 0.133002
v 0.172283 -0.069597 0.183623
v 0.354046 0.097819 0.135363
v -0.181535 -0.337417 0.126657
v -0.291543 -0.302870 0.110927
v -0.318393 -0.142938 0.139477
v -0.546056 0.004576 0.040484
v 0.579140 -0.150185 -0.000000
v -0.116638 -0.250624 0.161711
v -0.104231 -0.150073 0.182226
v 0.161040 -0.577060 -0.000000
v 0.196826 0.267043 0.149177
v -0.109918 0.260336 0.161745
v 0.100310 0.028789 0.194904
v -0.319805 -0.043248 0.148128
v -0.535487 0.130577 0.037304
v 0.053809 -0.086365 0.194046
v -0.020004 0.182027 0.184439
v -0.343598 0.426650 0.039259
v 0.158220 0.318026 0.141152
v -0.439814 0.406674 -0.000000
v -0.193081 0.526334 0.030072
v -0.294636 0.463391 0.038669
v -0.293499 0.523074 -0.000000
v -0.268503 -0.027031 0.163608
v -0.237069 0.548894 -0.000000
v -0.406558 -0.044897 0.116091
v 0.061186 -0.563440 0.025533
v 0.544891 -0.155924 0.025702
g left_E10300_E13400_nu058
f 283 350 144
f 344 117 272
f 21 188 76
f 76 137 21
f 57 113 224
f 360 23 162
f 331 306 74
f 112 269 177
f 95 331 74
f 192 155 264
f 24 138 66
f 59 93 386
f 17 129 40
f 35 214 109
f 29 309 234
f 393 394 49
f 208 190 92
f 194 89 254
f 20 172 48
f 15 110 58
f 272 308 165
f 374 229 119
f 54 290 205
f 281 346 163
f 395 101 165
f 96 116 22
f 350 33 144
f 109 186 153
f 81 360 185
f 55 237 119
f 213 83 282
f 194 254 134
f 24 95 138
f 230 392 92
f 70 327 371
f 121 206 148
f 268 261 107
f 95 55 154
f 166 303 199
f 85 304 375
f 213 193 93
f 128 212 262
f 214 89 389
f 232 379 199
f 376 324 322
f 144 298 252
f 279 309 197
f 288 205 173
f 306 26 112
f 217 306 112
f 299 113 76
f 81 155 96
f 92 134 208
f 338 107 87
f 360 22 43
f 324 376 101
f 57 224 20
f 269 61 133
f 335 177 245
f 38 192 152
f 139 328 85
f 258 340 281
f 388 102 200
f 205 339 54
f 254 302 52
f 393 89 194
f 369 326 52
f 234 370 175
f 154 138 95
f 96 22 81
f 188 21 96
f 97 331 25
f 143 317 310
f 175 385 29
f 124 266 219
f 359 364 238
f 325 350 102
f 58 157 14
f 161 338 129
f 138 154 108
f 391 250 16
f 87 153 338
f 47 230 15
f 110 128 157
f 48 377 19
f 83 377 172
f 112 26 1
f 217 237 74
f 113 57 137
f 95 74 55
f 116 96 21
f 362 363 197
f 345 367 272
f 28 356 203
f 30 354 139
f 148 238 121
f 291 317 100
f 299 152 124
f 249 124 219
f 54 261 193
f 18 386 42
f 110 190 128
f 262 157 128
f 231 391 40
f 108 220 185
f 304 192 264
f 245 177 133
f 134 92 358
f 23 360 43
f 137 76 113
f 162 138 108
f 79 161 17
f 16 250 389
f 311 196 139
f 119 229 55
f 281 241 27
f 232 380 67
f 33 170 298
f 369 121 283
f 193 213 146
f 370 290 146
f 148 359 238
f 259 327 148
f 192 322 152
f 38 299 188
f 186 338 153
f 153 35 109
f 176 108 154
f 264 81 185
f 38 188 155
f 194 134 358
f 157 58 110
f 18 59 386
f 79 42 268
f 386 261 268
f 23 66 162
f 163 362 117
f 29 197 309
f 345 235 196
f 379 166 199
f 280 319 119
f 212 298 170
f 113 249 224
f 288 371 259
f 327 70 242
f 302 206 52
f 254 52 326
f 175 29 234
f 219 282 83
f 154 229 176
f 375 246 30
f 1 61 269
f 269 112 1
f 317 143 100
f 172 249 83
f 220 304 264
f 185 162 108
f 109 231 186
f 186 129 338
f 188 96 155
f 69 128 190
f 110 230 190
f 192 38 155
f 304 292 192
f 193 146 54
f 386 93 193
f 358 392 396
f 24 25 95
f 139 85 30
f 367 345 67
f 362 308 117
f 314 363 36
f 100 199 333
f 346 36 163
f 356 28 303
f 203 335 357
f 339 87 107
f 290 173 205
f 35 259 206
f 302 254 89
f 326 134 254
f 208 69 190
f 212 69 298
f 377 83 213
f 35 302 214
f 214 389 250
f 217 112 177
f 219 83 249
f 220 108 176
f 220 264 185
f 161 268 107
f 224 172 20
f 93 59 19
f 229 154 55
f 30 246 354
f 230 92 190
f 109 250 231
f 231 129 186
f 113 299 124
f 67 311 232
f 380 100 143
f 173 342 70
f 282 370 146
f 235 328 196
f 235 165 101
f 237 55 74
f 217 335 237
f 102 364 200
f 238 283 121
f 241 310 27
f 241 163 117
f 363 314 242
f 70 279 242
f 203 357 147
f 276 319 166
f 249 113 124
f 249 172 224
f 250 109 214
f 326 369 252
f 252 69 208
f 128 69 212
f 134 326 208
f 241 281 163
f 259 35 153
f 259 148 206
f 261 339 107
f 386 193 261
f 264 155 81
f 377 213 93
f 266 324 397
f 266 124 152
f 161 107 338
f 268 161 79
f 162 66 138
f 269 133 177
f 230 47 392
f 110 15 230
f 129 17 161
f 129 231 40
f 235 345 165
f 117 344 241
f 311 354 276
f 374 119 319
f 363 242 279
f 279 70 342
f 335 203 280
f 280 119 237
f 340 388 200
f 281 27 258
f 282 146 213
f 219 397 282
f 144 369 283
f 350 383 102
f 288 259 153
f 288 87 205
f 194 358 393
f 342 173 290
f 290 54 146
f 291 100 333
f 292 85 328
f 322 192 292
f 298 69 252
f 298 144 33
f 299 38 152
f 299 76 188
f 302 35 206
f 302 89 214
f 303 166 356
f 303 333 199
f 85 375 30
f 304 85 292
f 306 97 26
f 306 217 74
f 308 272 117
f 395 197 29
f 309 342 234
f 310 365 27
f 310 344 143
f 311 67 196
f 276 379 311
f 314 359 242
f 314 200 364
f 229 374 246
f 280 356 319
f 101 376 235
f 322 266 152
f 324 266 322
f 175 397 324
f 325 102 204
f 326 252 208
f 70 371 173
f 327 242 359
f 328 376 292
f 328 139 196
f 331 95 25
f 331 97 306
f 199 100 232
f 335 280 237
f 335 217 177
f 176 375 220
f 229 246 176
f 153 87 288
f 339 261 54
f 339 205 87
f 340 200 346
f 342 309 279
f 342 290 234
f 344 367 143
f 344 310 241
f 345 196 67
f 345 272 165
f 346 281 340
f 346 314 36
f 350 325 33
f 350 283 383
f 354 311 139
f 354 374 276
f 356 280 203
f 356 166 319
f 357 335 245
f 394 393 358
f 359 314 364
f 359 148 327
f 360 81 22
f 360 162 185
f 362 163 36
f 362 197 308
f 52 206 121
f 363 362 36
f 363 279 197
f 364 383 238
f 200 314 346
f 365 310 317
f 367 380 143
f 367 344 272
f 369 52 121
f 369 144 252
f 370 282 397
f 370 234 290
f 371 288 173
f 371 327 259
f 374 354 246
f 374 319 276
f 375 176 246
f 375 304 220
f 376 328 235
f 376 322 292
f 377 93 19
f 377 48 172
f 379 232 311
f 379 276 166
f 380 367 67
f 380 232 100
f 383 364 102
f 383 283 238
f 385 175 324
f 386 268 42
f 101 395 385
f 340 86 388
f 388 204 102
f 389 49 16
f 391 231 250
f 392 358 92
f 393 49 389
f 389 89 393
f 197 395 308
f 394 358 396
f 395 165 308
f 395 29 385
f 396 392 47
f 397 219 266
f 397 175 370
f 324 101 385
g right_E7700_E7600_nu065
f 287 343 34
f 277 372 312
f 321 228 105
f 265 223 62
f 7 399 378
f 88 126 225
f 215 184 150
f 226 267 181
f 72 94 180
f 5 265 62
f 180 221 72
f 136 75 56
f 11 115 73
f 218 253 140
f 191 14 157
f 39 247 171
f 332 297 270
f 11 353 60
f 296 353 132
f 122 216 257
f 46 189 64
f 187 300 336
f 384 222 142
f 41 151 80
f 240 277 202
f 71 330 37
f 130 361 72
f 223 271 4
f 111 323 90
f 248 215 150
f 127 255 189
f 212 170 84
f 160 191 131
f 275 284 120
f 198 274 164
f 91 347 233
f 104 256 209
f 271 251 151
f 330 71 145
f 106 382 278
f 60 296 10
f 293 168 147
f 178 207 88
f 63 267 184
f 135 7 64
f 65 9 216
f 263 122 297
f 50 316 236
f 289 347 51
f 168 244 28
f 31 289 141
f 158 135 94
f 305 73 115
f 160 114 13
f 181 77 399
f 78 111 257
f 105 53 293
f 8 127 46
f 68 373 332
f 84 294 131
f 207 126 88
f 297 183 263
f 10 323 44
f 91 351 273
f 71 182 145
f 211 94 135
f 352 170 239
f 247 39 56
f 82 349 31
f 244 303 28
f 260 318 169
f 103 182 126
f 209 150 104
f 267 6 181
f 321 357 245
f 98 201 171
f 236 174 106
f 131 191 262
f 149 111 90
f 51 256 130
f 114 75 136
f 240 37 273
f 278 50 106
f 239 275 320
f 156 227 127
f 123 329 71
f 45 215 5
f 251 178 88
f 32 355 301
f 127 8 156
f 295 337 99
f 130 72 221
f 256 226 130
f 114 160 75
f 131 262 84
f 73 218 132
f 141 295 99
f 64 189 135
f 120 278 382
f 141 99 31
f 289 221 141
f 348 365 202
f 167 313 284
f 71 37 123
f 355 145 103
f 293 321 105
f 28 147 168
f 210 270 149
f 111 122 257
f 32 248 150
f 251 271 178
f 80 151 300
f 156 65 216
f 183 227 263
f 14 191 13
f 158 7 135
f 159 39 253
f 305 115 12
f 75 294 247
f 160 13 191
f 258 27 348
f 164 118 312
f 174 236 68
f 278 284 368
f 313 142 222
f 225 293 53
f 147 28 203
f 91 260 169
f 209 318 32
f 170 33 239
f 171 253 39
f 247 56 75
f 68 270 174
f 271 151 41
f 178 125 207
f 179 123 37
f 94 72 158
f 361 226 181
f 181 6 77
f 329 182 71
f 182 103 145
f 297 332 183
f 216 263 156
f 45 63 184
f 184 104 150
f 210 334 34
f 353 11 73
f 3 398 2
f 189 46 127
f 189 211 135
f 191 157 262
f 82 31 99
f 316 195 236
f 273 330 91
f 315 274 198
f 303 244 243
f 98 352 201
f 171 366 253
f 118 384 277
f 240 387 179
f 167 388 86
f 167 275 204
f 336 53 105
f 300 187 3
f 125 248 301
f 207 103 126
f 209 32 150
f 347 285 51
f 210 34 174
f 210 149 90
f 211 189 255
f 215 45 184
f 248 265 215
f 257 9 78
f 65 156 8
f 140 287 218
f 218 73 159
f 221 180 141
f 221 51 130
f 341 118 164
f 142 313 86
f 223 125 178
f 223 4 62
f 286 329 244
f 225 53 88
f 56 12 136
f 39 305 56
f 226 104 267
f 227 183 337
f 133 2 398
f 105 228 187
f 349 315 31
f 347 91 169
f 236 195 68
f 236 106 50
f 120 390 320
f 240 202 387
f 164 312 198
f 123 291 243
f 291 333 243
f 329 243 244
f 286 168 225
f 245 133 228
f 294 75 160
f 98 247 294
f 125 301 207
f 248 125 265
f 251 88 53
f 251 336 151
f 253 218 159
f 366 171 201
f 255 127 227
f 255 295 211
f 256 104 226
f 256 285 209
f 122 111 149
f 334 132 287
f 90 296 334
f 142 86 258
f 260 91 330
f 145 355 260
f 262 212 84
f 263 227 156
f 265 5 215
f 265 125 223
f 126 286 225
f 267 63 6
f 267 104 184
f 361 130 226
f 270 210 174
f 270 297 149
f 271 41 4
f 271 223 178
f 295 141 180
f 94 211 180
f 37 240 179
f 351 91 233
f 274 349 195
f 274 316 164
f 275 325 204
f 277 240 372
f 348 384 142
f 307 343 140
f 278 120 284
f 278 368 50
f 285 256 51
f 285 169 318
f 286 126 182
f 286 244 168
f 287 140 343
f 287 132 218
f 289 315 233
f 289 51 221
f 291 123 179
f 247 98 171
f 160 131 294
f 295 180 211
f 296 132 334
f 323 10 296
f 332 270 68
f 297 122 149
f 82 183 332
f 255 227 337
f 187 336 105
f 300 381 80
f 301 248 32
f 301 103 207
f 305 12 56
f 305 39 159
f 9 257 216
f 140 366 307
f 390 201 320
f 312 351 198
f 312 118 277
f 313 368 284
f 315 289 31
f 315 198 233
f 316 274 195
f 316 341 164
f 317 387 365
f 317 291 179
f 318 260 355
f 318 209 285
f 320 275 120
f 320 352 239
f 321 245 228
f 321 293 147
f 111 44 323
f 323 296 90
f 325 239 33
f 294 84 98
f 329 123 243
f 329 286 182
f 330 273 37
f 330 145 260
f 216 122 263
f 373 68 195
f 183 82 337
f 333 303 243
f 293 225 168
f 334 287 34
f 334 210 90
f 336 300 151
f 336 251 53
f 337 82 99
f 337 295 255
f 340 258 86
f 73 305 159
f 341 222 118
f 341 316 50
f 343 106 34
f 307 382 343
f 347 289 233
f 347 169 285
f 384 202 277
f 348 142 258
f 349 274 315
f 82 373 349
f 351 372 273
f 351 233 198
f 352 84 170
f 352 320 201
f 353 73 132
f 355 32 318
f 355 103 301
f 167 86 313
f 357 321 147
f 239 325 275
f 365 348 27
f 366 140 253
f 366 201 390
f 368 341 50
f 368 222 341
f 111 78 44
f 372 240 273
f 372 351 312
f 373 82 332
f 373 195 349
f 228 398 187
f 106 343 382
f 106 174 34
f 84 352 98
f 381 300 3
f 307 390 382
f 384 118 222
f 384 348 202
f 368 313 222
f 387 202 365
f 387 317 179
f 284 275 167
f 390 120 382
f 390 307 366
f 388 167 204
f 399 7 158
f 361 158 72
f 181 399 361
f 398 3 187
f 398 228 133
f 399 158 361
f 399 77 378
f 296 60 353
f 133 61 2
