OFF
1237 2330 0
-0.0793893100 -1.0961832100 0.0000000000
-0.0693846400 -1.0769649800 0.0142213800
-0.0571201700 -1.0534058200 0.0316550100
-0.0460169800 -1.0320774700 0.0474379000
-0.0356795300 -1.0123350300 0.0619839500
-0.0234264100 -0.9923261600 0.0748483600
-0.0104957800 -0.9712109400 0.0884240600
0.0016809500 -0.9513268600 0.1012082600
0.0148327600 -0.9298505300 0.1150162000
0.0323075400 -0.9095564500 0.1252200300
0.0518412900 -0.8871916700 0.1363095500
0.0719936600 -0.8641186300 0.1477502700
0.0914628000 -0.8418278100 0.1588031100
0.1108376200 -0.8220595000 0.1660546700
0.1319359600 -0.8018824500 0.1718559900
0.1539179200 -0.7808604200 0.1779002600
0.1733557000 -0.7622714400 0.1832449800
0.2005153400 -0.7511334800 0.1759063400
0.2277759700 -0.7399541500 0.1685404100
0.2546456000 -0.7289351700 0.1612801400
0.2799465100 -0.7214876600 0.1486076200
0.3061833000 -0.7145776900 0.1338460300
0.3316314200 -0.7078754200 0.1195281700
0.3563484000 -0.7013657000 0.1056216800
0.3850836800 -0.6937976400 0.0894543700
0.4139825900 -0.6861864900 0.0731949900
0.4382872900 -0.6825319100 0.0544214000
0.4578310600 -0.6803705000 0.0378822800
0.4791043200 -0.6780178000 0.0198795800
0.5025954200 -0.6754198500 0.0000000000
0.4903929400 -0.6468202800 0.0000000000
0.4770515600 -0.6180381900 0.0000000000
0.4621990900 -0.5893817100 0.0000000000
0.4471190700 -0.5602861100 0.0000000000
0.4346633800 -0.5362539900 0.0000000000
0.4219944200 -0.5069522300 0.0000000000
0.4093610600 -0.4758701500 0.0000000000
0.3982656300 -0.4485718700 0.0000000000
0.3881201500 -0.4167165500 0.0000000000
0.3800858800 -0.3847803500 0.0000000000
0.3719237200 -0.3523357400 0.0000000000
0.3649660800 -0.3194978500 0.0000000000
0.3598605600 -0.2911337300 0.0000000000
0.3544627000 -0.2611457100 0.0000000000
0.3512071000 -0.2318422200 0.0000000000
0.3500379400 -0.2014444700 0.0000000000
0.3488988700 -0.1718289500 0.0000000000
0.3495644200 -0.1363219500 0.0000000000
0.3523664100 -0.1087022900 0.0000000000
0.3293754100 -0.1216163700 0.0072861300
0.3004127300 -0.1378464600 0.0164175700
0.2739155500 -0.1525670800 0.0246140900
0.2501160500 -0.1657890200 0.0319761300
0.2248732000 -0.1798127900 0.0397846400
0.1978331700 -0.1944694500 0.0477674600
0.1714070700 -0.2086278900 0.0553963300
0.1430544200 -0.2222689100 0.0624898300
0.1170002000 -0.2334619300 0.0680628800
0.0900815100 -0.2449634700 0.0737697200
0.0563489700 -0.2576959600 0.0795546500
0.0228900600 -0.2703251700 0.0852926600
-0.0093009500 -0.2807372100 0.0897144800
-0.0412045000 -0.2901929600 0.0935512300
-0.0707726300 -0.2956107400 0.0955805900
-0.1040862000 -0.3007226000 0.0974143100
-0.1385560100 -0.3038725200 0.0983501000
-0.1698540600 -0.3053662900 0.0985856800
-0.2007152900 -0.3068392000 0.0988179600
-0.2293834600 -0.3037049400 0.0972545900
-0.2619852700 -0.2988510900 0.0949671600
-0.2957961800 -0.2937123500 0.0925443500
-0.3275522200 -0.2856781300 0.0887225900
-0.3636479100 -0.2765459700 0.0843785700
-0.3969147700 -0.2662532400 0.0795218700
-0.4262350200 -0.2545036900 0.0740237100
-0.4536473500 -0.2435186800 0.0688833200
-0.4818707900 -0.2300916400 0.0625402100
-0.5097512400 -0.2159247200 0.0558260200
-0.5328886500 -0.2041678900 0.0502540500
-0.5548747600 -0.1929960500 0.0449593300
-0.5848661500 -0.1738598100 0.0358439000
-0.6126996400 -0.1560731000 0.0273710500
-0.6390276100 -0.1392483900 0.0193564600
-0.6674820300 -0.1199471600 0.0101060900
-0.6974045800 -0.0989313000 0.0000000000
-0.6835115200 -0.1237362600 0.0094654500
-0.6680459100 -0.1513489700 0.0200023300
-0.6564635000 -0.1720285300 0.0278935500
-0.6448909400 -0.1929917100 0.0358109800
-0.6342820400 -0.2170070800 0.0435934000
-0.6224231400 -0.2438520200 0.0522927800
-0.6104922700 -0.2708599900 0.0610450000
-0.5988827300 -0.2979714900 0.0695877100
-0.5903688600 -0.3273144900 0.0761508200
-0.5818294100 -0.3567457400 0.0827336500
-0.5727157000 -0.3881562000 0.0897591800
-0.5639276400 -0.4198929500 0.0964560500
-0.5578937900 -0.4550318300 0.1003390500
-0.5521359100 -0.4885635600 0.1040444600
-0.5467063000 -0.5201838700 0.1075386400
-0.5414553800 -0.5507633200 0.1109178100
-0.5410318800 -0.5843954300 0.1097921500
-0.5408774900 -0.6165957100 0.1084872400
-0.5407226600 -0.6488832900 0.1071787800
-0.5405698000 -0.6807665600 0.1058867100
-0.5448049900 -0.7101010100 0.1015771500
-0.5537113800 -0.7400502400 0.0939091800
-0.5624022300 -0.7692745900 0.0864267900
-0.5705005100 -0.7965062200 0.0794545900
-0.5787604700 -0.8242816700 0.0723431400
-0.5876428700 -0.8541501700 0.0646958200
-0.5950810000 -0.8767994800 0.0584092100
-0.6069003800 -0.8988952900 0.0491091500
-0.6191298200 -0.9217575900 0.0394864700
-0.6312675900 -0.9444486500 0.0299358600
-0.6429389300 -0.9662675900 0.0207523200
-0.6560244200 -0.9907301900 0.0104560700
-0.6693129800 -1.0155725200 0.0000000000
-0.6537883200 -1.0017290400 0.0089105900
-0.6342566200 -0.9843124600 0.0201210300
-0.6153701600 -0.9674712200 0.0309611600
-0.5928195100 -0.9473625400 0.0439044000
-0.5695336400 -0.9265982800 0.0572696200
-0.5470763900 -0.9069725100 0.0698981900
-0.5186366100 -0.8886864100 0.0815991900
-0.4937415000 -0.8726795100 0.0918417900
-0.4680290200 -0.8566993700 0.1021572300
-0.4357025700 -0.8522916400 0.1076447800
-0.3982419600 -0.8471839200 0.1140038800
-0.3655629400 -0.8515068900 0.1145872300
-0.3318490200 -0.8576561000 0.1142338300
-0.3074007000 -0.8716069300 0.1089945000
-0.2804014700 -0.8871883900 0.1031166500
-0.2536214100 -0.9026434300 0.0972865000
-0.2330465200 -0.9211989400 0.0886980800
-0.2115134100 -0.9411714300 0.0793696500
-0.1892252500 -0.9618443600 0.0697141400
-0.1677745400 -0.9830474700 0.0595303600
-0.1489586300 -1.0071324100 0.0468572300
-0.1301427300 -1.0312172700 0.0341841000
-0.1121532300 -1.0542443900 0.0220675800
-0.0940632300 -1.0774001800 0.0098833700
-0.6760065342 -0.1211380988 0.0095039789
-0.6530036318 -0.1416781004 0.0185898584
-0.6292580248 -0.1613623844 0.0258942961
-0.6054726943 -0.1809989218 0.0336892689
-0.5819582091 -0.2009584160 0.0430330746
-0.5589868679 -0.2215390877 0.0529076902
-0.5367849318 -0.2429476443 0.0633821583
-0.5152056614 -0.2649845783 0.0733919709
-0.4941772567 -0.2875479782 0.0822689001
-0.4735766610 -0.3105031924 0.0910501236
-0.4530965435 -0.3335662528 0.0998125112
-0.4325841301 -0.3566005752 0.1082085106
-0.4123745919 -0.3799003155 0.1156629651
-0.3927847748 -0.4037229353 0.1224679348
-0.3737815291 -0.4280167138 0.1289091710
-0.3551768360 -0.4526172824 0.1345969758
-0.3369361763 -0.4774890602 0.1397029641
-0.3188811666 -0.5024961946 0.1441978386
-0.3007044141 -0.5274148463 0.1477892907
-0.2825021289 -0.5523145216 0.1500975451
-0.2654338594 -0.5779957437 0.1512349133
-0.2511520061 -0.6053057784 0.1510367477
-0.2406876950 -0.6343009263 0.1501395077
-0.2311809852 -0.6636376463 0.1485056990
-0.2184847019 -0.6917140599 0.1458159153
-0.2023797655 -0.7180046522 0.1415549948
-0.1851206812 -0.7435670602 0.1354052092
-0.1692304975 -0.7699909196 0.1279621146
-0.1556892017 -0.7976923981 0.1184468503
-0.1445351716 -0.8264375785 0.1088072873
-0.1357461034 -0.8559954979 0.0991641441
-0.1285170143 -0.8859786798 0.0889588829
-0.1214188017 -0.9159939024 0.0768614023
-0.1135038649 -0.9458043781 0.0646495258
-0.1058104134 -0.9756721472 0.0539181697
-0.0989648699 -1.0057461643 0.0403425090
-0.0924224207 -1.0358881011 0.0290797429
-0.0859056520 -1.0660356094 0.0155517505
-0.1192349637 -0.3269756132 0.1058967065
-0.1203735663 -0.3577171366 0.1155774708
-0.1183837799 -0.3884796589 0.1248791070
-0.1153380823 -0.4191567330 0.1308278567
-0.1118976706 -0.4497931700 0.1350914908
-0.1090100667 -0.4804859136 0.1396180090
-0.1064404034 -0.5112077017 0.1436303594
-0.1038864498 -0.5419305918 0.1454089699
-0.1023033657 -0.5727159219 0.1459034658
-0.1018209182 -0.6035408076 0.1448566104
-0.1011689740 -0.6343624975 0.1434745392
-0.1001042723 -0.6651731552 0.1414811374
-0.0990407155 -0.6959838614 0.1373114928
-0.0981236924 -0.7267992690 0.1322375800
-0.0965663061 -0.7575874968 0.1273801990
-0.0942655023 -0.7883303933 0.1220989496
-0.0918680789 -0.8190660905 0.1149710933
-0.0896899075 -0.8498181003 0.1066299202
-0.0875279004 -0.8805712847 0.0974300830
-0.0853299228 -0.9113219231 0.0865332260
-0.0834560917 -0.9420933225 0.0736057439
-0.0823868221 -0.9729032787 0.0595054421
-0.0816333273 -1.0037231579 0.0449323896
-0.0808868170 -1.0345432115 0.0322267583
-0.0801380862 -1.0653632113 0.0167809398
0.3265624927 -0.1265216693 0.0086396400
0.3024369670 -0.1465492434 0.0181645433
0.2795841672 -0.1680295098 0.0289461370
0.2569667139 -0.1897595319 0.0420561999
0.2337548910 -0.2108516887 0.0551281684
0.2101815060 -0.2315411410 0.0692255469
0.1871863256 -0.2528667077 0.0833502073
0.1653669340 -0.2753926662 0.0972932981
0.1445538473 -0.2988547093 0.1111581710
0.1245665365 -0.3230238231 0.1240857966
0.1055286817 -0.3479477410 0.1364066799
0.0871469523 -0.3733614642 0.1478612251
0.0690078592 -0.3989491308 0.1574235573
0.0515571352 -0.4250078196 0.1650124443
0.0358988363 -0.4521745604 0.1712520223
0.0224910233 -0.4805222489 0.1767814542
0.0106309362 -0.5095565258 0.1808009810
-0.0004800199 -0.5388871235 0.1834350576
-0.0109398920 -0.5684552743 0.1843021353
-0.0202390661 -0.5984066218 0.1834198957
-0.0279591671 -0.6288023753 0.1810244609
-0.0341982753 -0.6595377754 0.1787790339
-0.0391622413 -0.6905055305 0.1746952079
-0.0431868976 -0.7216104608 0.1693725162
-0.0464821645 -0.7528012795 0.1622480559
-0.0492538070 -0.7840434761 0.1540144946
-0.0519009455 -0.8152965973 0.1443547319
-0.0546781980 -0.8465383397 0.1330641714
-0.0575865096 -0.8777682305 0.1173069145
-0.0602323876 -0.9090211260 0.1012979574
-0.0622967457 -0.9403177775 0.0858159296
-0.0646821065 -0.9715902808 0.0689568481
-0.0681028656 -1.0027674795 0.0523412773
-0.0718499876 -1.0339078643 0.0353620464
-0.0756195004 -1.0650455551 0.0177761878
0.4439414275 -0.6442179595 0.0449749705
0.4659582500 -0.6565036373 0.0257092335
-0.6116236132 -0.9403646293 0.0383622598
-0.5942917157 -0.9225552761 0.0489813087
-0.5607888879 -0.8755151441 0.0725649178
-0.5285086071 -0.2241935728 0.0579610222
-0.5137040891 -0.2419301679 0.0654612153
-0.6220597876 -0.1972568937 0.0363894682
-0.0376048627 -0.9691266300 0.0813716802
-0.0232205270 -0.9213123779 0.1095463747
0.3315881061 -0.6575317237 0.1469620175
0.3286316265 -0.1535589577 0.0113363194
0.4225680968 -0.6606379913 0.0659691359
0.4635365142 -0.6349728556 0.0219689358
0.4527136626 -0.6124751563 0.0235519449
-0.5777990254 -0.8993860727 0.0604429081
-0.4907244529 -0.2550029752 0.0713953617
-0.6062801417 -0.2206789245 0.0437211334
-0.0056502322 -0.9320721855 0.1088961582
0.0013350325 -0.9009398890 0.1259021984
-0.0265017126 -0.9463960753 0.0960522074
0.3382161279 -0.6826978880 0.1259621570
0.4278079853 -0.5887506206 0.0530788491
-0.0423960942 -0.9315604856 0.0981914474
-0.0457122646 -0.9510893787 0.0869959882
0.3680094310 -0.6613953206 0.1123741506
0.3023462735 -0.6786890502 0.1578324558
0.3490645508 -0.6663848405 0.1253535057
0.3519730345 -0.6389671686 0.1391885486
0.3191124057 -0.6911514893 0.1367272580
-0.5232653293 -0.8256690953 0.0951703148
-0.4868017199 -0.7035023342 0.1285033304
-0.4858232894 -0.5254699573 0.1327673999
-0.1693925364 -0.9181108036 0.0837228840
-0.2930468416 -0.8180545085 0.1269492945
-0.1369149057 -0.9783312158 0.0547846150
-0.1239466338 -1.0069844361 0.0425382807
-0.1109770537 -0.8658866361 0.0907455002
-0.1062692931 -0.8965643102 0.0853313583
-0.1016846328 -0.9267102910 0.0741479523
-0.1906805871 -0.5998675742 0.1467016382
-0.2441663785 -0.5051871292 0.1433553572
-0.1415849615 -0.7353763021 0.1268123339
-0.1236389570 -0.8017925462 0.1108590900
-0.1603454758 -0.6741775045 0.1382166733
-0.1165970786 -0.8342158443 0.1025255985
-0.2048752318 -0.8333147645 0.1179028431
-0.0968149466 -0.9574303228 0.0632027916
-0.5341954245 -0.3269703014 0.0862735052
-0.5690061935 -0.2691364838 0.0634832450
-0.3176121241 -0.4048728077 0.1238877086
-0.4080264853 -0.3140811514 0.0950562626
-0.4867235069 -0.3841620423 0.1108232994
-0.0552517587 -0.4279205509 0.1387491159
-0.1779849987 -0.3768891816 0.1182569513
-0.0824352913 -0.3307129621 0.1078179037
-0.1551597915 -0.3410368791 0.1092704567
-0.4604082123 -0.2779641325 0.0814698264
-0.0491965131 -0.4909512882 0.1547462618
-0.1100925633 -1.0239424856 0.0344596656
-0.0735848840 -0.8332242330 0.1233792099
-0.0733015749 -0.8021565300 0.1325141035
-0.0719404002 -0.7105987426 0.1504084221
-0.0728848966 -0.7409560974 0.1461108105
-0.0731779963 -0.7712946561 0.1401047180
-0.0739619226 -0.8641649820 0.1122340728
-0.0713238893 -0.8923436686 0.1025352055
0.0179605433 -0.8372624479 0.1618295323
0.1028774304 -0.7494931426 0.2085536680
-0.0683230760 -0.6486511903 0.1581427043
-0.0618779683 -0.5874994328 0.1612308842
0.1174527128 -0.2717725995 0.0922122496
0.1927646895 -0.2167501476 0.0610324423
0.2126490440 -0.2095566553 0.0562872992
0.2970082075 -0.2526962767 0.0515983796
-0.5594539188 -0.8462781101 0.0782434011
-0.0494438633 -0.9890384814 0.0674215456
0.3085925436 -0.1759947959 0.0234156177
-0.5601608504 -0.8939587504 0.0682633357
-0.5399790613 -0.8867519707 0.0773843918
-0.5265770735 -0.8575909987 0.0881285623
-0.5827024420 -0.2248992920 0.0489385915
-0.5678249058 -0.2445319068 0.0567568059
-0.5943935469 -0.2492121594 0.0536878673
-0.6021493783 -0.2009147646 0.0391126347
0.0232964261 -0.8819730697 0.1382523446
0.4170145011 -0.5606451992 0.0551994148
0.4111630392 -0.6236720200 0.0793443595
0.3668045289 -0.6827299951 0.1044143661
0.3938649965 -0.6684706097 0.0901193048
0.2542105808 -0.6807570396 0.1978747969
0.2878900620 -0.6983840704 0.1553817873
0.2781210843 -0.6760606436 0.1803978302
0.2639795586 -0.7030804665 0.1712327764
0.2945939112 -0.6371879701 0.1979263762
0.2291003416 -0.7050447768 0.1940961712
0.2922157402 -0.6591068172 0.1821479981
0.3115738595 -0.6501187140 0.1721918315
0.2586554756 -0.6443771271 0.2248588338
0.3288891750 -0.6340939672 0.1667581692
0.2632170677 -0.6633959568 0.2048421644
0.2354388019 -0.6600020104 0.2303833372
0.3497151428 -0.5925530236 0.1681106973
0.3447533802 -0.6160563885 0.1622649180
0.3781579008 -0.6181228627 0.1258656077
0.3066632799 -0.5957398227 0.2119233804
0.3222943922 -0.6122986575 0.1861496728
0.3011383350 -0.6166123285 0.2052156657
0.2641361596 -0.5956503874 0.2477192816
0.2749930323 -0.6196249837 0.2265950482
-0.5508253389 -0.8174732037 0.0862246176
-0.4955742602 -0.8410544391 0.0996160519
-0.5042181094 -0.7706731741 0.1109152619
-0.5166692680 -0.6991901776 0.1188001489
-0.2918243398 -0.6670807182 0.1516829449
-0.4113462411 -0.4757611885 0.1393043312
-0.5169584629 -0.5308163029 0.1223870135
-0.1866054904 -0.9366686507 0.0793731285
-0.1585940807 -0.9523076499 0.0697497595
-0.2019207186 -0.9052016355 0.0916853846
-0.2016598958 -0.9245352159 0.0847858849
-0.1458962113 -0.9059355646 0.0853073710
-0.2774716399 -0.8509290591 0.1165204263
-0.2424497023 -0.7636664993 0.1385835015
-0.3072512015 -0.8429471304 0.1199533252
-0.1224708284 -0.9640388606 0.0588004222
-0.1365172267 -0.9458093915 0.0675522796
-0.1204118883 -0.9881233416 0.0485445713
-0.2202026668 -0.6105220543 0.1489098887
-0.1470035106 -0.6199142553 0.1405069862
-0.1545784450 -0.5599707117 0.1424859685
-0.2695185583 -0.5237202064 0.1466404880
-0.1689272573 -0.4706407763 0.1363416910
-0.2802670560 -0.4555956503 0.1372920077
-0.1174618302 -0.7432109692 0.1229212226
-0.1383077281 -0.7663408093 0.1213929023
-0.1235944615 -0.7121358948 0.1279261050
-0.1682288527 -0.7135544792 0.1361467032
-0.1618325374 -0.7475523319 0.1302075255
-0.1407770857 -0.8084426768 0.1119818467
-0.1045822457 -0.8045964620 0.1130831797
-0.1950649583 -0.6642146786 0.1445862042
-0.1723220624 -0.8507857076 0.1092128929
-0.1925575299 -0.7985542884 0.1261470307
-0.5255592033 -0.2957143832 0.0799327470
-0.5622333505 -0.3351054797 0.0822012357
-0.5894218415 -0.2778787622 0.0638079490
-0.5677083495 -0.3003765530 0.0721277158
-0.5419135206 -0.2695537452 0.0692482632
-0.3571947114 -0.3544906544 0.1084743774
-0.3550374919 -0.3937753111 0.1201206252
-0.3426597614 -0.4238156058 0.1285004163
-0.4273384718 -0.3312787682 0.1002292226
-0.4012972773 -0.3498777027 0.1065485773
-0.4373610262 -0.3005820230 0.0901515417
-0.4632705793 -0.3632768547 0.1078395476
-0.0864449548 -0.4314234857 0.1346111311
-0.1466634258 -0.3748632346 0.1197893739
-0.2201423289 -0.3518558469 0.1109664640
-0.0999958145 -0.3205800217 0.1041028339
-0.1032387591 -0.3429599270 0.1113912876
-0.0936383346 -0.3714334570 0.1207634573
-0.0506992920 -0.3217686388 0.1056078394
-0.1341408205 -0.3418153784 0.1102324513
-0.1840451428 -0.3320741138 0.1060906445
-0.4749492004 -0.2910135868 0.0847095670
-0.4455450371 -0.2629952089 0.0765255839
-0.4271300377 -0.2786699814 0.0826409015
-0.0804766114 -0.4935676503 0.1466429150
-0.0531239829 -0.7045118651 0.1640884715
-0.0657618662 -0.6779524053 0.1579566754
-0.0548683874 -0.7361458071 0.1593804610
0.0553107609 -0.8298998021 0.1672263337
0.0973349347 -0.7868209049 0.1882796357
0.1397933955 -0.7466337903 0.2013200314
-0.0881520580 -0.6493364062 0.1483796885
-0.0789562065 -0.6281975936 0.1534107491
-0.0534509149 -0.6279289587 0.1662464132
-0.0489514666 -0.6468560973 0.1689950523
-0.0663987127 -0.6095347506 0.1595409599
-0.0426857063 -0.6065971393 0.1712475958
-0.0849257386 -0.5878601589 0.1514895962
-0.0738721059 -0.5576340850 0.1542091693
0.1405425095 -0.2523418634 0.0815231595
0.1093081807 -0.2527107928 0.0797104435
0.0903239566 -0.2720930353 0.0903149101
0.3268442329 -0.2493815124 0.0281397478
0.3083762409 -0.3150424231 0.0692602838
0.3301377215 -0.1873802054 0.0145169708
0.3021584394 -0.2142485838 0.0367387579
0.3273321884 -0.2124609222 0.0205978953
0.3117034802 -0.1961860273 0.0269940293
0.2893424579 -0.1892959991 0.0331967275
0.3159823367 -0.2307744382 0.0324376584
-0.5126711405 -0.8706015431 0.0878748498
-0.5463162378 -0.8615269738 0.0809541797
-0.0118355314 -0.8634920996 0.1424194253
0.4321917463 -0.5709418479 0.0331921563
0.4237344576 -0.6400357571 0.0655780487
0.4001371182 -0.6451535245 0.0908926982
0.2043201589 -0.7215844888 0.1939184886
0.2364366115 -0.7228029042 0.1757580505
0.2315151885 -0.6824172361 0.2121684815
0.1907732793 -0.6637346651 0.2418512639
0.2030086398 -0.6908176007 0.2190661455
0.2135958592 -0.6677295828 0.2327006050
0.2097953706 -0.6222523490 0.2649264845
0.2057278529 -0.6454896860 0.2504042207
0.1634916743 -0.6261219043 0.2615084627
0.1820682213 -0.6413482488 0.2572825131
0.1437719198 -0.6691256453 0.2420552329
0.1665651668 -0.6602623894 0.2453327433
0.1674341069 -0.6962368299 0.2241885084
0.1763707258 -0.6780232568 0.2341489228
0.3742009547 -0.6400211237 0.1183896484
0.3927257271 -0.5860982068 0.1074752613
0.3518068201 -0.4833591461 0.1209458577
0.2853896753 -0.6004713137 0.2292174209
0.2839473650 -0.5575703327 0.2291723482
0.2790388276 -0.5792100907 0.2394129091
0.2402667400 -0.5590388542 0.2538718720
0.2570058079 -0.5742123499 0.2498302689
0.2263058084 -0.5912600823 0.2676137225
0.2460474465 -0.6182874039 0.2515603499
-0.5413391021 -0.8360096383 0.0870632631
-0.4860566640 -0.8563685104 0.0979170226
-0.5331203772 -0.7620781061 0.1019115478
-0.5064848658 -0.7342421142 0.1166785879
-0.4955011881 -0.6581652101 0.1292573001
-0.2619544805 -0.6574012420 0.1524439763
-0.3033517761 -0.6152143998 0.1530683666
-0.3862986038 -0.4568183904 0.1355565034
-0.4468378153 -0.4282059733 0.1264823191
-0.3752452304 -0.5241693556 0.1471756212
-0.5348292975 -0.5338849755 0.1139428396
-0.1713701069 -0.9652328686 0.0665851296
-0.2272863785 -0.8941271536 0.0985282274
-0.2875335178 -0.8683640719 0.1103209765
-0.2641187056 -0.8702560379 0.1101840219
-0.2415879752 -0.8404134095 0.1183432919
-0.2577902044 -0.8516074665 0.1159923521
-0.2371577676 -0.8690072967 0.1083303237
-0.2649864052 -0.8238691704 0.1243490164
-0.2164227459 -0.7460937638 0.1378186262
-0.2895732124 -0.8365356438 0.1215585330
-0.3424015980 -0.8063904302 0.1305510655
-0.1396311587 -0.9255018802 0.0762820387
-0.2371476247 -0.6166374675 0.1496958424
-0.2304853541 -0.5771087158 0.1488909430
-0.1216398937 -0.6193777610 0.1387369638
-0.1300239773 -0.5885660020 0.1403508802
-0.1336379311 -0.6519723655 0.1375838409
-0.1199274893 -0.6385136294 0.1386259431
-0.1265356094 -0.5585286558 0.1420497516
-0.2840700947 -0.5343577433 0.1482679241
-0.2882319604 -0.4992281097 0.1436866056
-0.1427833101 -0.4987791712 0.1396509657
-0.1376767313 -0.4677006958 0.1358299677
-0.1524938018 -0.7789699622 0.1217579915
-0.1148267353 -0.7744116551 0.1185667558
-0.1841899769 -0.7243310222 0.1378486954
-0.1869686574 -0.7030072501 0.1405783623
-0.1458921609 -0.7134586147 0.1306469730
-0.1362376378 -0.6876067021 0.1336400926
-0.1571386579 -0.6952971421 0.1354152908
-0.2132590328 -0.6724421227 0.1459665639
-0.2128851044 -0.6490382189 0.1469423064
-0.1835764801 -0.6326745410 0.1453824714
-0.1528378139 -0.8449920526 0.1070717893
-0.1688878272 -0.8266752463 0.1162491616
-0.1562720492 -0.8691025139 0.1008599070
-0.1856656553 -0.8365852661 0.1158108668
-0.2001407902 -0.8635564214 0.1070570635
-0.1743216837 -0.7896400715 0.1253535550
-0.1931249112 -0.7742839173 0.1311628747
-0.2216873534 -0.7870934541 0.1312297081
-0.5033876170 -0.3165349484 0.0904682763
-0.5120757262 -0.2831481913 0.0789409569
-0.5511190015 -0.3648625456 0.0914947633
-0.5840990145 -0.3095886451 0.0730589202
-0.5526366525 -0.3157965359 0.0793211149
-0.5556891066 -0.2842302295 0.0701912220
-0.3814502622 -0.3744364794 0.1141881722
-0.3717721731 -0.4068656279 0.1235928446
-0.3570364978 -0.4346883125 0.1307453648
-0.3241443712 -0.4489830777 0.1345252095
-0.4150919576 -0.3618428197 0.1101945960
-0.4533743564 -0.3131881966 0.0934154030
-0.4498091676 -0.3512892635 0.1053703472
-0.4423661895 -0.3854997201 0.1157155985
-0.1043490930 -0.4334340853 0.1333931924
-0.1286856025 -0.3737003901 0.1203438618
-0.2173547447 -0.3263586199 0.1040129706
-0.2498233878 -0.3290785516 0.1041233231
-0.2026981829 -0.3408620012 0.1082687962
-0.1995506602 -0.3651926394 0.1147169789
-0.1796893722 -0.3543023793 0.1122324197
-0.2352546974 -0.3977538624 0.1223254987
-0.2029946966 -0.3972718937 0.1225436669
-0.2216755339 -0.3767879792 0.1173049705
-0.2518298048 -0.3624204295 0.1134787581
-0.0540376047 -0.3035494306 0.0986666315
-0.0699039681 -0.3153879136 0.1027193739
-0.0345813905 -0.3093999052 0.1014964265
-0.0190764077 -0.3462908237 0.1181566006
-0.1658915388 -0.3245958540 0.1042962578
-0.0984306294 -0.4950693787 0.1428286977
-0.0785334042 -0.5243554280 0.1506271237
-0.0835481608 -0.4626082261 0.1406261822
-0.0473125501 -0.6733173533 0.1695196551
-0.0861150770 -0.6801139709 0.1458574409
0.0708705943 -0.8434899964 0.1589609980
0.0791967939 -0.8182545090 0.1727119225
0.0469845613 -0.8551352895 0.1535546157
0.1114766728 -0.8016083590 0.1767430584
0.1220330439 -0.7773571111 0.1884257164
0.1535266626 -0.7609941385 0.1894346458
0.1650795299 -0.7361987977 0.2002449364
-0.0925407268 -0.5567805257 0.1479592328
0.1405386444 -0.2757715916 0.0963903822
0.1640156823 -0.2391611294 0.0743959492
0.1042166553 -0.2997291259 0.1082119177
0.3372558250 -0.3098441199 0.0346838066
0.3153178984 -0.2815672175 0.0483624344
0.0021020113 -0.8796301696 0.1368198380
0.0149662530 -0.8602935043 0.1489436183
-0.0254160534 -0.8893084025 0.1253368906
0.1872585689 -0.7069003862 0.2113922349
0.4108946641 -0.5791206870 0.0774843371
0.3944403976 -0.5634190471 0.0997114253
0.4090296627 -0.6014083965 0.0830928063
0.4020593853 -0.5321807177 0.0680435114
0.3687525534 -0.5728813025 0.1503259174
0.3796011945 -0.4720620777 0.0605005796
0.2446234695 -0.5986038939 0.2622456039
-0.5418270610 -0.7898222535 0.0941780999
-0.5036207811 -0.7144044330 0.1210574785
-0.5249715542 -0.7195132597 0.1122698108
-0.4832037734 -0.7274777517 0.1253386273
-0.5271120416 -0.7411659228 0.1078014440
-0.4888670758 -0.7514319769 0.1191172417
-0.4393266767 -0.7086355196 0.1404343928
-0.4598857848 -0.7902981510 0.1196396282
-0.4637378019 -0.7122988520 0.1343753982
-0.4794766543 -0.7746681415 0.1176004816
-0.4519250833 -0.7475192945 0.1302951391
-0.4572857990 -0.6721275403 0.1422932640
-0.4969063868 -0.8040018631 0.1068033128
-0.4490563010 -0.7269659450 0.1351902649
-0.4113340756 -0.7427079970 0.1383957823
-0.4269130138 -0.7269719909 0.1386658687
-0.4710830067 -0.7429899427 0.1262656169
-0.4584704409 -0.7684314016 0.1245654305
-0.4205523812 -0.7818648596 0.1285916706
-0.4356005643 -0.7641091473 0.1297534752
-0.4687801349 -0.6908852007 0.1366472086
-0.4788333050 -0.6718242252 0.1348824634
-0.4676256060 -0.6411483584 0.1394697759
-0.5006699588 -0.6814718668 0.1264627421
-0.4793426363 -0.7945928993 0.1137742297
-0.4760682158 -0.8218029168 0.1088148718
-0.3891445498 -0.7051602325 0.1486430398
-0.5203329029 -0.6648846972 0.1188280830
-0.4051665280 -0.7210222883 0.1435652373
-0.5146483307 -0.6366496392 0.1219662161
-0.3669364040 -0.7436150667 0.1430138383
-0.4150590832 -0.6950072114 0.1468801790
-0.3830867227 -0.7273019194 0.1455557511
-0.3439330448 -0.7046901826 0.1510511439
-0.3664771149 -0.7108580993 0.1491742988
-0.3669557070 -0.6648249609 0.1528256139
-0.3727571217 -0.6879043334 0.1516767589
-0.3976135823 -0.6693873846 0.1512214200
-0.2448099056 -0.6518454574 0.1509206563
-0.2701255669 -0.6285391638 0.1524850025
-0.2525881005 -0.6902269078 0.1488219422
-0.2989593275 -0.5817648879 0.1514268035
-0.3719218673 -0.4459456837 0.1331102777
-0.4039421258 -0.4320298284 0.1294751300
-0.3672449160 -0.4805924938 0.1405186268
-0.3384119388 -0.5358315768 0.1487032970
-0.2499925488 -0.8835723847 0.1050966176
-0.2719659761 -0.7869367757 0.1342999534
-0.2014839041 -0.7360074397 0.1385541838
-0.3312084685 -0.8308053366 0.1238325368
-0.1573168058 -0.9331009645 0.0762565679
-0.2477418176 -0.5861330281 0.1507645120
-0.2483023062 -0.5640500241 0.1495798544
-0.2146627583 -0.5368369146 0.1449492129
-0.2278902131 -0.5548841229 0.1469473905
-0.1996922915 -0.5694405751 0.1462427301
-0.2407553281 -0.5315837672 0.1458476160
-0.1117954237 -0.5882807026 0.1426635523
-0.1309776327 -0.5287150478 0.1424934839
-0.1398911378 -0.5721988528 0.1415526982
-0.1647152368 -0.5870806694 0.1432750504
-0.2661360179 -0.5017406285 0.1436378188
-0.2501541496 -0.4716103073 0.1395902206
-0.2747574556 -0.4791446104 0.1408030254
-0.3045743437 -0.4737016749 0.1391908627
-0.1218890412 -0.4970315113 0.1399785449
-0.1197396871 -0.4660131608 0.1366542241
-0.1396194874 -0.4373948814 0.1319689978
-0.1152347949 -0.6811191563 0.1348873535
-0.1418269333 -0.6692869352 0.1367410087
-0.1563427681 -0.6518278098 0.1403380418
-0.1678888582 -0.8922529163 0.0943254333
-0.1827613289 -0.9043607223 0.0904957109
-0.1881505624 -0.8825528165 0.0991978507
-0.2093928698 -0.8826784093 0.1003261721
-0.1479198263 -0.8866276576 0.0928594214
-0.2204510315 -0.8512446382 0.1118246680
-0.2384800593 -0.8111996429 0.1266422063
-0.5215371670 -0.3136467812 0.0856574877
-0.5152066498 -0.3323360728 0.0919692154
-0.5307938540 -0.3512148816 0.0930861366
-0.4857903263 -0.3420182926 0.0994511686
-0.5223077374 -0.3858117730 0.1033240763
-0.3953723601 -0.3858848992 0.1175112470
-0.3386293357 -0.4596061747 0.1361160556
-0.3205865626 -0.4269711381 0.1297182591
-0.3005794512 -0.4414984003 0.1337751189
-0.2691125378 -0.4178409173 0.1280599351
-0.2809335796 -0.4348735777 0.1323729915
-0.2550040843 -0.4444113135 0.1340481233
-0.2938748613 -0.4132736809 0.1268059180
-0.2759156036 -0.3853143679 0.1197847948
-0.4645631026 -0.3854361952 0.1139578546
-0.4774272180 -0.4158254107 0.1203723923
-0.4535231737 -0.4059187413 0.1202072588
-0.4235130805 -0.4090631037 0.1231213447
-0.1605550509 -0.3603722572 0.1146108486
-0.0635239184 -0.5079528736 0.1536802731
-0.0481730154 -0.5370686672 0.1619817549
-0.0393314439 -0.5138023965 0.1620861057
-0.0241325751 -0.5328913283 0.1715814530
-0.0161714441 -0.4902489931 0.1657295099
-0.0324636785 -0.5562107367 0.1713868344
-0.0661535153 -0.4765145464 0.1471499004
-0.0356321376 -0.4578419572 0.1516390505
-0.0609421747 -0.4521638099 0.1437044738
0.0450680856 -0.7785713738 0.1960055747
0.0375102741 -0.8380180248 0.1626733989
0.0343006940 -0.8074062109 0.1799255497
0.0397545920 -0.8726267737 0.1438654037
0.1046012973 -0.7688244668 0.1972006874
0.0729045014 -0.7619084973 0.2061515969
0.1867285145 -0.7343387903 0.1925792812
0.1414340760 -0.7147552467 0.2189374500
0.1588727300 -0.2574939011 0.0857737532
0.1828775919 -0.2337121229 0.0713764551
0.1244566124 -0.3025838344 0.1117485504
0.0556733732 -0.3068219128 0.1074478686
0.0999736853 -0.3239717346 0.1219269305
0.0806494909 -0.3080969820 0.1108328338
0.0720349725 -0.3430763710 0.1290462667
0.0692703667 -0.2857375811 0.0967211665
0.0673490771 -0.3233718952 0.1177158400
0.0299815071 -0.3373405321 0.1199953315
0.0439791560 -0.2843540518 0.0938631995
0.0159035142 -0.3036934518 0.1021242751
0.0359822794 -0.3027935891 0.1031542451
0.3298113097 -0.3513060842 0.0625943446
0.3132171099 -0.2626581276 0.0436764943
0.2949196589 -0.2742622064 0.0609654720
0.3336153494 -0.2699631386 0.0262873646
0.2548782289 -0.2595003040 0.0741790713
0.2768360785 -0.2616268080 0.0653461497
0.2749752342 -0.2301760721 0.0540641852
0.2618059064 -0.3023959151 0.0913296834
0.2746709293 -0.2839836998 0.0764232887
0.2859479275 -0.3055638343 0.0809730491
0.2678416477 -0.3499733445 0.1143523295
0.2878868790 -0.3322501944 0.0939532846
0.3205977498 -0.3001194237 0.0505677743
-0.0357157932 -0.8674101515 0.1323074501
-0.0277649155 -0.8411368971 0.1480226393
0.4173506453 -0.5423076730 0.0411947802
0.3717165431 -0.5413284334 0.1315835673
0.3652900789 -0.4415308704 0.0630567471
0.3909634779 -0.5014563405 0.0639025914
-0.5330044282 -0.8079829505 0.0946623681
-0.5182620022 -0.7895975386 0.1031383526
-0.4907296401 -0.6346414123 0.1315315009
-0.4667811036 -0.5938789063 0.1409163445
-0.5057353963 -0.5993616982 0.1268014919
-0.4734063012 -0.6174028123 0.1378870887
-0.5040467102 -0.6194745443 0.1267261633
-0.4252778163 -0.6182626620 0.1487232535
-0.4856034206 -0.6012727519 0.1343946286
-0.4896241224 -0.5633826979 0.1337068011
-0.4492292248 -0.6115170640 0.1446716587
-0.4431479043 -0.6358188885 0.1455343617
-0.4244023405 -0.5692595332 0.1490751419
-0.4155444634 -0.6460429164 0.1496072607
-0.4423610383 -0.5871303841 0.1467612134
-0.4177659274 -0.5938874823 0.1501961552
-0.4560321660 -0.5554331402 0.1431130406
-0.3813320702 -0.6184606764 0.1533571962
-0.3783992691 -0.5700713563 0.1516979189
-0.4587452302 -0.5754001175 0.1431495904
-0.4032749193 -0.6116983777 0.1517363641
-0.4015179046 -0.5763010597 0.1515429633
-0.3978286405 -0.6330079632 0.1520322195
-0.3752493737 -0.6419856009 0.1531897979
-0.3843515427 -0.5939941346 0.1537587742
-0.3973627899 -0.5457089652 0.1489220858
-0.3349522471 -0.6402780092 0.1534554096
-0.3410560659 -0.5920646798 0.1530741268
-0.3558093856 -0.6244102764 0.1536509944
-0.3548311010 -0.6474966260 0.1530578957
-0.3360395102 -0.6735510201 0.1524570816
-0.3629900064 -0.5866072529 0.1529234614
-0.3325516894 -0.6154810609 0.1536311323
-0.3651109352 -0.6065936049 0.1537421970
-0.3456371750 -0.5636705562 0.1508416740
-0.4367968575 -0.6847197986 0.1448913482
-0.4357803998 -0.6601009431 0.1464910545
-0.4187385750 -0.6731349735 0.1484022814
-0.3974617193 -0.6882403551 0.1498910563
-0.2785880852 -0.6022641635 0.1519920388
-0.2816977237 -0.6474030236 0.1530297869
-0.3086133875 -0.6459961217 0.1531422728
-0.2351603112 -0.6823459814 0.1479138609
-0.2360834267 -0.7035148832 0.1459546085
-0.2696509638 -0.7283142951 0.1454777956
-0.2561215047 -0.7115096802 0.1464626554
-0.2825495787 -0.6961873465 0.1493129510
-0.2429831508 -0.7359360357 0.1424044814
-0.2831648914 -0.5712675801 0.1509751581
-0.3012774223 -0.5611460925 0.1505411733
-0.3227973334 -0.5740052015 0.1513938399
-0.3217619829 -0.5513013750 0.1498594884
-0.4082768670 -0.4537883894 0.1346824711
-0.4261738931 -0.4389118791 0.1304394448
-0.4567435513 -0.4726205621 0.1351390294
-0.4459167639 -0.4517233213 0.1322888639
-0.4697678346 -0.4408807326 0.1281165598
-0.4338402939 -0.4712333790 0.1371563138
-0.5149487854 -0.4409941044 0.1177050348
-0.4427491523 -0.5139096905 0.1414328813
-0.4923754834 -0.4340934717 0.1218433858
-0.4441151330 -0.4913564999 0.1389388480
-0.5050085620 -0.4085062483 0.1130422173
-0.4934790028 -0.4708547779 0.1265300868
-0.4737344041 -0.4976966357 0.1340736148
-0.4193471533 -0.5011743380 0.1424435765
-0.4856367609 -0.4526929742 0.1275530782
-0.3893635255 -0.4787970769 0.1408802856
-0.3800150114 -0.5007708440 0.1445993070
-0.3495926205 -0.5067546620 0.1454089385
-0.3997302172 -0.4961829780 0.1433518049
-0.4038089538 -0.5211975258 0.1458911642
-0.4259931860 -0.5401350118 0.1458823991
-0.3213902853 -0.5234152396 0.1475128681
-0.2760907180 -0.8068419843 0.1294407045
-0.2981646785 -0.7918878681 0.1341133079
-0.3170954513 -0.8095619322 0.1311729774
-0.3263295944 -0.7806957466 0.1383164564
-0.3565298446 -0.8276408166 0.1234442994
-0.3469423440 -0.8449121095 0.1180882687
-0.3818938297 -0.7954559067 0.1308134130
-0.3639390830 -0.8073930585 0.1287500180
-0.3543743862 -0.7810276066 0.1358729490
-0.3868252120 -0.8223447314 0.1226049572
-0.2596865267 -0.5442933943 0.1487284277
-0.1412648279 -0.5454854889 0.1426021218
-0.1595912615 -0.5227034619 0.1427868869
-0.1766158171 -0.5671807534 0.1435649050
-0.1722075052 -0.5433712342 0.1434942345
-0.1900760445 -0.5182791706 0.1431432089
-0.1692140990 -0.6107015259 0.1439383606
-0.3217395070 -0.4671853345 0.1376807872
-0.3045364999 -0.4916719763 0.1422898047
-0.1547686735 -0.4535811983 0.1338353261
-0.1735280357 -0.4208414207 0.1279052476
-0.1805357879 -0.4466010433 0.1324062861
-0.2250616685 -0.8273993643 0.1202761623
-0.2462098516 -0.7879128517 0.1332733488
-0.2567425210 -0.8043353597 0.1293743176
-0.4844264857 -0.3631306983 0.1056575973
-0.5060108647 -0.3539247737 0.0994805322
-0.5199691751 -0.3668989511 0.0994576614
-0.4675222718 -0.3452236255 0.1022171510
-0.4864333572 -0.3236448354 0.0941635271
-0.2440243113 -0.4215503512 0.1282039420
-0.2178488307 -0.4481892272 0.1332532535
-0.2357445868 -0.4395941674 0.1319992294
-0.2158699682 -0.4211411536 0.1274605646
-0.4096697500 -0.3976419291 0.1207887542
0.0597340274 -0.8004756492 0.1840990768
-0.0023252526 -0.7773017167 0.1850173966
0.3448616631 -0.3326090671 0.0335700964
0.3233209411 -0.3306756204 0.0599199445
0.3063104718 -0.3473633052 0.0880573372
0.3105494198 -0.3941066332 0.1115587447
0.3145638514 -0.3701787121 0.0904065153
0.2883047224 -0.3667773275 0.1122107043
0.3450700656 -0.3875975110 0.0613020263
0.3344987291 -0.3706887461 0.0666672920
0.3566778748 -0.3685813496 0.0304759249
0.3394901787 -0.2895335120 0.0250048861
0.2810226087 -0.2093367072 0.0437540968
0.2575078481 -0.2138100858 0.0528084430
0.2426985423 -0.2358785432 0.0665081454
0.2646821951 -0.3262025911 0.1028890201
0.2178894536 -0.3197789308 0.1181132573
0.2421287709 -0.3168503711 0.1076530033
0.2338131906 -0.2849095440 0.0935037690
0.2338183667 -0.3498433662 0.1301610636
-0.0047024869 -0.8415564815 0.1556733733
0.0009800588 -0.8095953610 0.1730579477
0.3287404595 -0.5532070275 0.1942565262
0.3596426373 -0.4627977174 0.0913979381
0.3219504424 -0.4414052346 0.1338644067
0.3336627476 -0.4646707645 0.1346269047
0.3436097832 -0.4450823775 0.1031458372
0.3500562347 -0.4164851551 0.0729737356
0.2834829469 -0.4753513574 0.1858714305
0.3151295964 -0.5008161267 0.1798588444
0.3071712836 -0.4634262033 0.1617818057
0.3305136665 -0.4858801260 0.1558636036
0.3448840608 -0.5160724128 0.1596809425
0.3800290048 -0.4532418666 0.0420112439
0.3715407975 -0.4920709686 0.0952414456
0.3716186814 -0.5166997367 0.1150269071
-0.3742703541 -0.5472957029 0.1495111049
-0.3584254935 -0.5350440517 0.1483780191
-0.3248494007 -0.6572624099 0.1529329378
-0.3128850338 -0.6774698590 0.1517544912
-0.2944176243 -0.6325820934 0.1531517835
-0.3178308924 -0.6285799937 0.1535867760
-0.2706664660 -0.6776362153 0.1508001107
-0.2235658746 -0.7249676930 0.1418455676
-0.3181193773 -0.5969903222 0.1527889330
-0.5042826341 -0.3900123951 0.1087273086
-0.5346665158 -0.4131729262 0.1063115732
-0.4647004255 -0.5181464763 0.1377702698
-0.4693439932 -0.5388769087 0.1386816557
-0.4754246488 -0.4782570703 0.1321652129
-0.5055063748 -0.5003848832 0.1246978585
-0.3355053647 -0.4954773970 0.1431119792
-0.4473597811 -0.5353210768 0.1431903572
-0.4371592109 -0.5553506330 0.1463716808
-0.2912248353 -0.7568192895 0.1416190630
-0.3406508648 -0.7556044105 0.1421751328
-0.3785702679 -0.7683366179 0.1374481293
-0.4068863276 -0.8047689262 0.1253004197
-0.3806934829 -0.8402063502 0.1174228807
-0.1697992098 -0.4976655553 0.1403120022
-0.1933444622 -0.5395149699 0.1442433669
-0.2164395502 -0.5089168369 0.1430286881
-0.1982314892 -0.4699687929 0.1370492526
-0.1996806490 -0.4359220039 0.1302885364
0.0800386804 -0.7977903729 0.1842657711
0.0653425924 -0.7808585450 0.1955554135
0.0211535478 -0.7860690781 0.1884116054
0.0221873675 -0.7474789962 0.2053112030
0.0150485331 -0.7665966373 0.1952740237
-0.0092346524 -0.7466372072 0.1883754795
0.2506701781 -0.3917453877 0.1490676135
0.3455734674 -0.5694972585 0.1824834357
0.3503526271 -0.5477168108 0.1714856930
0.3221995001 -0.5768079764 0.2020579386
0.3067762069 -0.5598265573 0.2130590427
0.3098150734 -0.5301602735 0.1994061990
0.3690548524 -0.4220851928 0.0400664887
0.3650573604 -0.4006197793 0.0348555570
0.3304756898 -0.4049907244 0.0937357710
0.3097058058 -0.4193333531 0.1306628436
0.2801054449 -0.4057160132 0.1410277370
0.3026478927 -0.4839309021 0.1782292754
0.2789004072 -0.5112828671 0.2113276629
-0.5473257222 -0.3909831311 0.0978747797
-0.5451134530 -0.4347497734 0.1059577224
-0.5180366511 -0.4222846983 0.1130149650
-0.4888948867 -0.5076153605 0.1304721410
-0.2876476123 -0.7757481628 0.1374274490
-0.2668083569 -0.7631242355 0.1396251205
-0.3080652577 -0.7698042848 0.1396585241
-0.3156036397 -0.7426148641 0.1455012911
-0.3449959447 -0.7303216090 0.1466108403
-0.3980762391 -0.7797093956 0.1325674083
-0.3973343374 -0.7585676847 0.1372420179
-0.4358381596 -0.8065144085 0.1200388692
-0.2273178105 -0.4848602038 0.1405214787
-0.1964816460 -0.4945169592 0.1409204793
-0.1937738642 -0.4159483913 0.1265258048
-0.1790107720 -0.3991952978 0.1236920298
-0.1504615336 -0.4034814959 0.1261733255
0.2656597421 -0.3734918243 0.1293525602
0.2432657326 -0.3703835745 0.1390133348
0.1994104686 -0.3781118450 0.1581514856
0.2239456228 -0.3890444969 0.1580028348
0.3309559811 -0.5320938089 0.1843639321
0.2808245928 -0.4405807137 0.1641559822
0.3014404857 -0.4383510060 0.1486234343
0.2990389991 -0.5130552866 0.1983954637
0.2871828610 -0.5324715424 0.2176941601
0.2561547716 -0.5323870264 0.2342126462
-0.2600104647 -0.7450480794 0.1427170341
-0.2934916529 -0.7326871202 0.1462534292
-0.3155883249 -0.7130601745 0.1498078397
-0.4400578854 -0.7868333410 0.1240783439
-0.4568655249 -0.8117579461 0.1157113902
-0.4565768688 -0.8356868722 0.1098586043
-0.4199325190 -0.8293561134 0.1163116085
-0.2177050185 -0.4677843641 0.1373948076
-0.1615759002 -0.3874452732 0.1218253159
-0.1536856251 -0.4232020157 0.1294494828
-0.1301406321 -0.4051366383 0.1279496169
0.2190765246 -0.3669744392 0.1462131829
0.2092488373 -0.3436089442 0.1352476103
0.1784683590 -0.3189666081 0.1244996174
0.1980410343 -0.3260635399 0.1266489269
0.1987082319 -0.2936851994 0.1080648427
0.1778011613 -0.3513449486 0.1444024092
0.2893015830 -0.4574195568 0.1698108054
0.2645848872 -0.4593092465 0.1869015276
0.2470558349 -0.4277045477 0.1740764532
0.2548284631 -0.4899548691 0.2120853557
0.2615897071 -0.4403070195 0.1749945164
0.2370635652 -0.4539100608 0.1958894925
-0.3266876133 -0.7278317717 0.1481409921
-0.2951485053 -0.7123004011 0.1482293148
-0.3254893144 -0.6944103138 0.1515807577
-0.4393905485 -0.8259468224 0.1146767804
0.2354901743 -0.4083808316 0.1658437421
0.1959510707 -0.4188727872 0.1852016851
0.2202338723 -0.4306350638 0.1866999510
0.2142185865 -0.4079663625 0.1731438615
0.2575728177 -0.5111058953 0.2228398909
0.2159053774 -0.5057587097 0.2366806011
0.2352156073 -0.5203039563 0.2380555290
0.2359355959 -0.4992573737 0.2259613740
0.2365082310 -0.4765839324 0.2109311134
0.2019816490 -0.5443345414 0.2586053094
0.1981832674 -0.4643015314 0.2145941491
0.2148926492 -0.5271939326 0.2486827353
0.1806510455 -0.5148346193 0.2421480140
0.2230206038 -0.5467490852 0.2553986585
0.2096815109 -0.5701103315 0.2656648857
0.2191493153 -0.4648150370 0.2101994887
0.2081767464 -0.4845460320 0.2270792337
0.1794831042 -0.4861215017 0.2262538173
0.2000086804 -0.4414426245 0.1991048071
0.1549816058 -0.4378879431 0.1950581195
0.1765943826 -0.4510751985 0.2055718119
0.1755294024 -0.4285162411 0.1915122510
0.1496448846 -0.4709387383 0.2124219237
0.1728439453 -0.3963844046 0.1719417451
0.1567255825 -0.5718916046 0.2563777958
0.1982472575 -0.5962064329 0.2692618077
0.1528323993 -0.5015858644 0.2286296271
0.1829697987 -0.5640518123 0.2614914059
0.1860590641 -0.6171934070 0.2661000807
0.1713104600 -0.5945955133 0.2637807876
0.1611543452 -0.4852309991 0.2220181440
0.0928521602 -0.4923349024 0.2070765273
0.1531109082 -0.5368311046 0.2446304124
0.1855483918 -0.5825333190 0.2657931388
0.1345076320 -0.6022008856 0.2522611263
0.1240562397 -0.4890894606 0.2146786343
0.1654573601 -0.5532747909 0.2540881475
0.1615359908 -0.5191408089 0.2395259629
0.1391230121 -0.5193179169 0.2330199784
0.1127522194 -0.5547231445 0.2366348323
0.1305836761 -0.5404810449 0.2382071949
0.1082169156 -0.5191516646 0.2224508873
0.1345658563 -0.5637505915 0.2462191562
0.1138478092 -0.5829444098 0.2434461871
0.1400751450 -0.5829841253 0.2513081272
0.1419666246 -0.4872266558 0.2186111170
0.1237297464 -0.5081212893 0.2229902169
0.0578668740 -0.5301898670 0.2082749762
0.0874918053 -0.6319321087 0.2410179027
0.0813075085 -0.5167594755 0.2127186317
0.0728166313 -0.5704054000 0.2264837244
0.1070982310 -0.6108968329 0.2449815010
0.0570154560 -0.4903367962 0.1939329452
0.0928751767 -0.5391825722 0.2243362590
0.0920568106 -0.5607113677 0.2310201177
0.0887482885 -0.5916748230 0.2374090658
0.1205488046 -0.6430887117 0.2487167505
0.0745279882 -0.4986143650 0.2037220298
0.0759606396 -0.4729192820 0.1934059344
0.1056876460 -0.4641124838 0.1981327066
0.0534133319 -0.4674065556 0.1832635502
0.0707394579 -0.4454080262 0.1796905031
0.0416485018 -0.6103530274 0.2201498177
0.1065433588 -0.6300346052 0.2458486718
0.0991152081 -0.6520442054 0.2438421655
0.1267615698 -0.6223830701 0.2508674480
0.1436523086 -0.6387360634 0.2541993450
0.0549875302 -0.6641321452 0.2301338843
0.1184936972 -0.6682968834 0.2459768630
0.0754651260 -0.6522975091 0.2383458705
0.1303917379 -0.6913147991 0.2331583199
0.0605232958 -0.6297398444 0.2322836096
0.0850192538 -0.6924627354 0.2358884442
0.1497028729 -0.6878307812 0.2316482102
0.1076198013 -0.6885016652 0.2380715897
0.0874881574 -0.6706565194 0.2402898950
0.1012629104 -0.7186874968 0.2248525671
0.1207098294 -0.7101968964 0.2256055675
0.1191734534 -0.7331939389 0.2137829694
0.1075468260 -0.4819880171 0.2068121767
0.1277247946 -0.4671487149 0.2053046705
0.1211107559 -0.4336622138 0.1863102870
0.0522974111 -0.4435304142 0.1735366460
0.0872708038 -0.4565217248 0.1893444074
0.0935465634 -0.4293348618 0.1779771498
0.0626604802 -0.5946142065 0.2285755595
0.0309927649 -0.5670940990 0.2050507700
0.0777703421 -0.6114804379 0.2365389822
0.0409867274 -0.5875741896 0.2152736686
0.0107367645 -0.5896572026 0.1987471874
0.0283314407 -0.6421999286 0.2162469907
0.0628028180 -0.7243666825 0.2231936589
0.1052469947 -0.4447582434 0.1886486580
0.1124589202 -0.3988200113 0.1658976271
0.0100555542 -0.5686716945 0.1950228085
-0.0069914761 -0.5861004215 0.1888756835
-0.0016000400 -0.6051878841 0.1943500587
0.0198137631 -0.6095327350 0.2072069835
0.0043062757 -0.6310202240 0.2013592787
0.0417733678 -0.6291130147 0.2229012445
0.0840276382 -0.7350359265 0.2192834654
0.0808055751 -0.7132157477 0.2300838778
0.0589041743 -0.6979646234 0.2292415044
0.1094375272 -0.4180655588 0.1756339492
0.1337646417 -0.4120247755 0.1771857306
0.0907523712 -0.4052722019 0.1652287369
0.1417536551 -0.3753439632 0.1574213949
0.1312635370 -0.3922696372 0.1655954528
0.1515179562 -0.3997412166 0.1725254876
0.1163364514 -0.3713045991 0.1514527831
0.0017775771 -0.6678592631 0.2022108255
0.0686909345 -0.6796887054 0.2349985383
0.0309220610 -0.7155854598 0.2145084066
0.0101226226 -0.6499257754 0.2061204817
-0.0129794788 -0.6466857193 0.1918532328
0.0286240535 -0.6694434605 0.2169849716
0.0137455632 -0.6933126765 0.2082070252
0.0449583793 -0.6824361237 0.2247317279
-0.0126159236 -0.6901673001 0.1927217124
0.0022207749 -0.7199599963 0.1991171671
0.0324177743 -0.6966724400 0.2176213831
-0.0178913766 -0.6709660174 0.1897656316
0.0067272400 -0.7376932475 0.1992121961
-0.0202901822 -0.7260917305 0.1846507911
-0.0288169295 -0.7439272079 0.1759307400
-0.0269559897 -0.7696514510 0.1727432829
-0.0256875123 -0.7061568291 0.1830684555
-0.0246116453 -0.7977527975 0.1657873793
-0.0193439202 -0.8199423133 0.1611794685
0.2384627710 -0.1927143580 0.0453984549
-0.3871866505 -0.2937180763 0.0890101334
-0.4067856749 -0.2852048226 0.0855434787
-0.3760182928 -0.3259933341 0.0994332400
-0.4189277984 -0.2991479009 0.0898404425
-0.3892133565 -0.3124893351 0.0948193056
-0.3682993207 -0.3052523539 0.0933765769
-0.3447678053 -0.3258166910 0.1004264228
-0.3487809919 -0.2936849518 0.0904313829
-0.0022391179 -0.4120967845 0.1453439540
-0.4693809065 -0.2583167675 0.0736733054
0.4301058718 -0.6112734116 0.0560462811
-0.5146081656 -0.8426999749 0.0944004119
-0.3377810799 -0.4042352132 0.1233203464
-0.3266430748 -0.3712279000 0.1143617056
-0.0907994963 -0.4015193450 0.1288950053
-0.0725928779 -0.4141372751 0.1327131215
-0.0381277663 -0.3885760761 0.1306607959
-0.0519456761 -0.4059607693 0.1336425250
-0.0285348846 -0.4207140629 0.1421369747
-0.0660552123 -0.3805622543 0.1253973105
-0.0204964126 -0.4008139707 0.1374268449
0.0085104888 -0.3742893638 0.1330515933
-0.0164309141 -0.3761368836 0.1296103399
-0.0381718134 -0.4381141891 0.1455687305
-0.0068258372 -0.4441061886 0.1557108381
-0.0450481537 -0.3600237764 0.1206228645
-0.0729697154 -0.3552184771 0.1165768977
-0.0634095837 -0.3374448923 0.1109655023
-0.0392213582 -0.3396180601 0.1132731603
0.3722377116 -0.5961040668 0.1394262301
0.2269626629 -0.6115039236 0.2648438176
0.2294916916 -0.6346272047 0.2533101308
-0.2111273975 -0.5894403363 0.1481934290
-0.1521628154 -0.4812792274 0.1376062323
-0.1812570941 -0.6815740388 0.1413951651
-0.2209254256 -0.6306125713 0.1481606171
-0.2004065489 -0.6191463140 0.1474695237
-0.1998598019 -0.7561276289 0.1349799187
-0.2176315832 -0.7667763906 0.1345183008
-0.5689112799 -0.3700249553 0.0878837008
-0.5440797174 -0.2990383434 0.0767398635
-0.3611440904 -0.3744090823 0.1143982647
-0.3792656380 -0.3523719833 0.1075676973
-0.2470423600 -0.3103992478 0.0987415896
-0.2832505138 -0.3249674344 0.1027453575
-0.2395569309 -0.3464276662 0.1090782150
0.1220161576 -0.7568522908 0.2000070955
-0.0454458318 -0.8945345114 0.1149245576
-0.5035465086 -0.8227908256 0.1012755556
-0.1478558534 -0.5991800490 0.1409795985
-0.1631171817 -0.6325220211 0.1426591354
-0.1773754801 -0.6527956567 0.1430172013
-0.2577105588 -0.3984814253 0.1229886456
-0.0671266977 -0.5397234849 0.1554929610
-0.0122392389 -0.5130474392 0.1724004640
0.0043317275 -0.4900439126 0.1728615295
0.0032867576 -0.4659738575 0.1655124457
0.0146691322 -0.4474380408 0.1630340447
-0.0176767504 -0.4691062703 0.1599507785
-0.0528377269 -0.5665276674 0.1633143516
-0.0381656551 -0.5841311406 0.1723349637
0.1618872604 -0.7159603575 0.2127589327
0.0875083173 -0.3542682312 0.1372720670
0.0690690007 -0.3634692786 0.1391427488
0.0496411531 -0.3502315251 0.1288650643
0.0284259884 -0.3611494533 0.1306594738
0.0065378089 -0.3477641490 0.1218511705
0.0357724488 -0.3939465273 0.1466031601
0.0107334854 -0.3256252679 0.1122831473
-0.0090170802 -0.3093941510 0.1029099306
-0.0217955591 -0.3257298885 0.1089947946
0.0098613430 -0.2850128096 0.0923060782
0.2947881161 -0.2328300919 0.0463868378
0.3895804189 -0.5456854094 0.1033736445
0.4047732861 -0.5138348145 0.0444623461
-0.5270090334 -0.6004287051 0.1165920761
-0.5174734128 -0.5779398741 0.1230379394
-0.4987852440 -0.5433173849 0.1299692258
-0.3523417717 -0.6859885800 0.1518775879
-0.5300479881 -0.4675105260 0.1138400797
-0.5322701328 -0.4486880057 0.1121411558
-0.5281076039 -0.4916596496 0.1157600085
-0.5125936772 -0.4782605874 0.1208405150
-0.2131341391 -0.8081037088 0.1252261664
0.2541488220 -0.2803320043 0.0843906204
0.2232435419 -0.2576735243 0.0825130841
0.2059170503 -0.2500033527 0.0803227356
0.1996032857 -0.2713971509 0.0938362075
0.2385518687 -0.2674016522 0.0832110807
0.0182664624 -0.8180303208 0.1725737472
0.0482335732 -0.7522768188 0.2091640808
0.0380118333 -0.7346699930 0.2135317666
0.3303202334 -0.5945317313 0.1869955281
0.2986655016 -0.5777578640 0.2219149197
0.2906327341 -0.3876001339 0.1236717581
0.2626226754 -0.5531767414 0.2401061758
-0.2351791433 -0.4590993967 0.1363639763
0.1677192093 -0.2984419859 0.1119417557
0.1518358918 -0.3252258795 0.1278916507
0.1362598729 -0.3481656192 0.1405844568
0.1681731869 -0.3349505072 0.1343706018
0.1568090756 -0.3526486506 0.1451129705
0.1686173780 -0.3731266792 0.1578400299
0.2187065697 -0.2990814568 0.1059376388
0.1962505689 -0.3585566750 0.1467969779
0.2596548604 -0.4108096834 0.1568713272
0.2741316368 -0.4924167072 0.2026415819
0.1936242076 -0.3981480340 0.1732525658
0.1547313697 -0.6072165270 0.2588024031
0.1808647360 -0.5371418605 0.2523830300
0.0284770296 -0.5330867593 0.1951393608
0.0167172426 -0.5495596446 0.1939136708
0.0448803009 -0.5489700290 0.2074741595
0.0410994792 -0.5106124542 0.1941908126
0.0601891974 -0.5112318143 0.2027221321
0.0379540095 -0.4917586377 0.1867441648
0.0719963134 -0.5478238613 0.2195309256
0.1365190913 -0.4480152901 0.1973269915
0.0732243670 -0.4206452581 0.1689704408
-0.3603354236 -0.3360997045 0.1028665412
-0.3177347320 -0.3136500852 0.0978501834
-0.3363310987 -0.3084464752 0.0954543466
-0.3209457338 -0.3426313337 0.1063734212
-0.2983888324 -0.3128984627 0.0984301735
-0.3023105229 -0.3333461189 0.1044493576
-0.2998096498 -0.3617081389 0.1126989970
-0.3403073554 -0.3447795972 0.1061687780
-0.3070092335 -0.3839922890 0.1186355705
-0.2918937884 -0.3947986039 0.1220669207
-0.2654008816 -0.3177857157 0.1006511961
-0.2687077363 -0.3446734557 0.1086100103
-0.2879918440 -0.3463748127 0.1087179778
-0.2767007292 -0.3642154904 0.1140005495
0.0546875985 -0.3811844743 0.1452370179
0.0134776456 -0.3961335552 0.1427146105
0.0233482229 -0.4215704008 0.1558652329
0.0058327445 -0.4295867490 0.1539081589
0.0509892282 -0.4057550511 0.1560659074
-0.5187494671 -0.5548962009 0.1227615943
-0.5272108955 -0.5125699119 0.1170063578
3 117 118 116
3 184 641 185
3 116 118 119
3 303 229 411
3 114 115 120
3 119 115 116
3 278 174 279
3 243 242 121
3 120 115 119
3 526 392 153
3 532 67 68
3 268 267 265
3 243 121 122
3 318 122 123
3 255 122 318
3 252 439 329
3 447 449 443
3 113 242 243
3 263 260 249
3 255 112 243
3 111 244 110
3 254 262 1107
3 112 255 111
3 315 244 435
3 172 510 650
3 242 120 121
3 151 152 527
3 240 241 253
3 236 264 235
3 315 109 110
3 575 108 350
3 1108 351 1145
3 264 263 235
3 575 466 107
3 254 31 32
3 149 150 256
3 107 466 106
3 328 261 23
3 315 110 244
3 405 1106 150
3 588 583 591
3 352 580 467
3 106 466 579
3 236 248 264
3 8 9 259
3 353 598 602
3 102 103 604
3 244 111 255
3 353 602 104
3 9 10 325
3 564 566 259
3 103 602 604
3 100 474 99
3 1189 901 903
3 108 109 350
3 353 104 105
3 409 302 228
3 263 249 1144
3 277 173 278
3 326 33 34
3 358 475 275
3 360 135 357
3 477 131 132
3 126 465 125
3 359 476 134
3 259 258 8
3 260 258 249
3 362 477 478
3 135 360 134
3 267 250 261
3 276 275 138
3 493 188 187
3 276 139 299
3 285 172 277
3 525 391 524
3 367 176 365
3 173 277 172
3 135 136 357
3 174 278 173
3 361 625 486
3 138 275 137
3 175 279 174
3 140 178 299
3 357 136 475
3 263 234 235
3 508 172 171
3 164 613 165
3 940 884 918
3 165 166 505
3 769 162 161
3 626 627 162
3 614 761 469
3 626 368 488
3 271 595 596
3 616 470 760
3 626 162 163
3 633 493 187
3 799 129 800
3 375 498 283
3 511 509 383
3 499 195 194
3 514 383 513
3 484 482 274
3 282 375 374
3 167 500 501
3 624 130 364
3 500 167 168
3 378 377 500
3 615 763 469
3 501 166 167
3 285 196 380
3 382 508 509
3 170 513 509
3 635 1146 634
3 175 287 200
3 231 300 232
3 306 305 198
3 881 619 790
3 484 364 362
3 628 890 810
3 93 94 385
3 151 150 516
3 89 257 247
3 660 391 525
3 91 92 386
3 513 170 169
3 538 927 928
3 289 322 323
3 289 386 387
3 74 75 406
3 385 518 655
3 285 277 197
3 777 787 775
3 775 776 777
3 376 193 192
3 388 148 322
3 148 245 147
3 147 146 321
3 252 240 438
3 77 78 245
3 246 245 148
3 146 324 321
3 76 77 246
3 821 875 820
3 196 197 300
3 79 147 78
3 86 87 143
3 396 548 680
3 143 87 144
3 143 83 142
3 84 85 142
3 232 305 233
3 142 83 84
3 142 85 86
3 143 142 86
3 168 169 378
3 143 82 83
3 556 15 16
3 247 144 88
3 88 89 247
3 145 146 80
3 79 146 147
3 247 257 324
3 80 146 79
3 82 144 81
3 82 143 144
3 328 23 24
3 81 144 145
3 145 80 81
3 130 131 364
3 72 73 1097
3 144 87 88
3 181 401 400
3 63 541 62
3 339 268 343
3 165 763 166
3 1178 1236 880
3 618 773 471
3 159 495 813
3 156 157 524
3 152 153 392
3 823 152 824
3 156 523 155
3 153 152 528
3 773 774 778
3 154 155 658
3 523 391 390
3 529 670 829
3 397 929 950
3 160 494 495
3 185 548 184
3 160 161 494
3 186 185 640
3 530 1111 183
3 180 403 181
3 64 180 399
3 180 400 399
3 533 1142 532
3 531 182 181
3 401 1123 400
3 186 546 185
3 160 495 159
3 821 820 656
3 403 65 296
3 150 151 405
3 150 149 517
3 406 407 74
3 297 407 406
3 317 206 207
3 256 1106 76
3 246 148 149
3 527 392 394
3 406 1106 297
3 437 32 33
3 89 90 257
3 76 246 256
3 26 240 252
3 1219 1217 1103
3 240 253 254
3 545 65 66
3 404 296 545
3 113 114 242
3 112 113 243
3 72 1097 1102
3 319 318 123
3 243 122 255
3 393 291 392
3 347 349 334
3 65 180 64
3 1104 1102 1218
3 536 404 534
3 91 323 90
3 547 408 546
3 617 157 156
3 158 157 619
3 253 30 31
3 187 188 558
3 1157 223 677
3 179 178 140
3 141 0 179
3 178 179 203
3 178 177 299
3 200 287 201
3 201 177 202
3 202 203 238
3 202 177 178
3 178 203 202
3 201 202 237
3 179 204 203
3 140 141 179
3 0 204 179
3 1 239 0
3 239 1 2
3 239 204 0
3 551 11 12
3 239 238 203
3 236 201 237
3 3 237 238
3 316 236 237
3 248 236 316
3 238 239 2
3 202 238 237
3 304 230 229
3 204 239 203
3 716 850 1095
3 201 236 200
3 198 197 277
3 195 380 196
3 300 197 305
3 301 196 300
3 193 302 192
3 643 192 191
3 194 304 303
3 197 196 285
3 194 193 374
3 194 195 304
3 197 198 305
3 375 499 374
3 199 200 235
3 278 199 198
3 235 234 199
3 263 264 260
3 200 236 235
3 234 233 306
3 300 231 301
3 566 1144 249
3 230 304 301
3 325 564 259
3 249 259 566
3 300 305 232
3 716 232 715
3 306 199 234
3 199 279 200
3 303 304 229
3 3 238 2
3 376 282 374
3 216 215 1159
3 278 279 199
3 248 5 6
3 316 4 5
3 7 8 258
3 260 7 258
3 258 259 249
3 174 173 361
3 269 266 331
3 9 325 259
3 1132 506 1133
3 4 237 3
3 551 553 11
3 157 617 619
3 850 851 1095
3 250 266 269
3 138 139 276
3 13 14 554
3 412 683 682
3 32 262 254
3 555 413 554
3 246 149 256
3 334 337 339
3 556 555 15
3 434 351 1108
3 682 565 553
3 671 397 403
3 1091 1092 899
3 260 6 7
3 144 247 145
3 18 441 440
3 19 441 18
3 227 410 409
3 899 831 898
3 331 21 269
3 46 47 251
3 331 333 20
3 269 21 22
3 145 324 146
3 18 440 17
3 267 261 328
3 177 176 367
3 328 329 265
3 490 1146 489
3 519 385 520
3 22 23 261
3 241 27 28
3 171 172 285
3 27 241 240
3 322 148 147
3 1232 1231 1105
3 27 240 26
3 250 269 261
3 26 252 25
3 140 299 139
3 30 28 29
3 302 193 303
3 303 411 302
3 418 225 417
3 550 302 410
3 190 191 415
3 190 189 489
3 549 418 309
3 309 417 416
3 188 189 421
3 163 164 487
3 420 310 419
3 444 567 440
3 416 190 415
3 677 222 675
3 1036 1031 1015
3 189 632 489
3 298 408 672
3 331 20 21
3 298 676 1155
3 445 447 443
3 341 442 330
3 674 675 1151
3 530 183 184
3 330 332 340
3 62 543 61
3 991 1003 1009
3 992 462 981
3 542 402 541
3 441 333 335
3 679 1120 680
3 457 459 348
3 1167 1165 1166
3 399 542 64
3 693 215 214
3 541 543 62
3 28 30 241
3 77 245 246
3 1163 698 1165
3 260 248 6
3 694 425 696
3 424 425 311
3 147 245 78
3 691 561 214
3 329 24 25
3 212 689 559
3 845 849 712
3 560 423 689
3 562 832 41
3 937 938 905
3 57 423 56
3 248 260 264
3 423 57 424
3 568 437 326
3 313 210 209
3 560 55 56
3 624 799 800
3 210 312 690
3 691 311 561
3 951 931 849
3 277 278 198
3 1043 1067 308
3 422 558 421
3 516 150 517
3 41 42 562
3 832 40 41
3 529 153 528
3 1173 100 101
3 428 430 45
3 190 489 492
3 710 704 707
3 44 426 43
3 358 275 366
3 1136 385 94
3 841 562 42
3 404 66 67
3 717 35 1171
3 195 196 301
3 240 1107 438
3 268 250 267
3 276 299 177
3 201 287 176
3 996 995 992
3 170 171 379
3 266 336 332
3 457 347 345
3 669 668 472
3 379 285 283
3 22 261 269
3 840 702 839
3 301 304 195
3 313 53 54
3 706 708 844
3 706 707 708
3 313 1096 53
3 298 674 676
3 1096 52 53
3 51 207 206
3 207 51 52
3 208 207 52
3 230 301 231
3 426 433 314
3 209 1096 313
3 205 50 206
3 206 50 51
3 176 175 365
3 317 251 206
3 251 317 428
3 205 251 47
3 205 49 50
3 205 47 48
3 48 49 205
3 760 614 163
3 206 251 205
3 305 306 233
3 200 279 175
3 193 194 303
3 433 44 430
3 175 176 287
3 199 306 198
3 31 254 253
3 241 30 253
3 120 242 114
3 192 550 191
3 201 176 177
3 189 190 416
3 1089 1188 1079
3 57 58 424
3 58 59 425
3 54 55 312
3 55 560 690
3 54 312 313
3 210 313 312
3 314 707 704
3 705 426 703
3 319 320 435
3 315 464 350
3 4 316 237
3 5 248 316
3 432 429 431
3 46 428 45
3 319 123 124
3 244 255 318
3 124 434 319
3 244 318 319
3 125 434 124
3 464 270 350
3 257 90 323
3 322 321 323
3 322 289 388
3 147 321 322
3 323 321 257
3 323 91 386
3 247 324 145
3 321 324 257
3 684 11 553
3 565 436 564
3 35 36 720
3 568 262 437
3 344 327 570
3 329 439 454
3 329 328 24
3 267 328 265
3 25 252 329
3 252 438 439
3 332 330 333
3 443 453 444
3 332 331 266
3 331 332 333
3 336 266 337
3 339 337 250
3 333 330 335
3 19 20 333
3 833 427 834
3 338 340 336
3 341 330 340
3 555 1143 685
3 337 266 250
3 336 334 338
3 339 250 268
3 334 336 337
3 347 339 346
3 995 1205 448
3 268 344 343
3 326 717 569
3 336 340 332
3 341 340 338
3 463 338 349
3 449 451 443
3 36 37 573
3 343 346 339
3 265 454 268
3 346 343 1189
3 262 568 570
3 343 344 1126
3 572 455 569
3 974 971 960
3 1189 343 342
3 347 346 345
3 457 349 347
3 339 347 334
3 901 572 902
3 939 971 973
3 463 349 348
3 338 334 349
3 315 350 109
3 466 575 722
3 944 945 966
3 588 590 581
3 352 587 599
3 599 600 944
3 352 579 466
3 596 598 271
3 614 469 613
3 271 576 578
3 618 471 617
3 739 752 755
3 101 1172 1173
3 916 272 877
3 136 137 475
3 360 357 647
3 275 365 366
3 357 358 625
3 646 361 650
3 134 476 133
3 647 357 273
3 134 360 359
3 172 508 510
3 625 366 486
3 132 133 621
3 480 362 478
3 168 167 623
3 166 763 764
3 364 131 477
3 624 364 797
3 365 175 366
3 367 365 275
3 174 486 175
3 361 486 174
3 275 276 367
3 177 367 276
3 165 505 506
3 368 280 1129
3 280 368 1133
3 491 492 369
3 497 496 640
3 629 628 631
3 805 162 627
3 636 495 371
3 642 497 641
3 539 538 535
3 372 814 816
3 536 535 294
3 376 374 193
3 378 375 282
3 170 498 169
3 380 499 283
3 491 644 643
3 1131 504 284
3 376 502 282
3 1148 1131 284
3 375 378 169
3 377 378 282
3 285 379 171
3 498 379 283
3 499 380 195
3 285 380 283
3 645 284 644
3 165 506 164
3 651 512 286
3 273 361 646
3 514 169 168
3 514 515 383
3 148 388 149
3 1137 388 521
3 385 1136 518
3 387 1137 521
3 386 92 519
3 323 386 289
3 93 519 92
3 520 385 288
3 521 388 289
3 517 388 384
3 1110 389 1138
3 1097 1101 1102
3 390 1109 1110
3 522 390 1138
3 157 158 659
3 391 660 1109
3 526 153 154
3 392 291 1100
3 393 526 522
3 393 1139 1099
3 1098 291 1097
3 405 527 297
3 824 151 516
3 667 529 395
3 546 548 185
3 1112 1111 396
3 531 403 397
3 948 928 929
3 1140 532 68
3 661 373 663
3 400 180 181
3 399 295 542
3 401 181 182
3 295 399 400
3 182 183 1111
3 1111 1112 1116
3 401 1116 1123
3 1115 1105 1117
3 65 403 180
3 403 296 671
3 534 67 532
3 535 536 534
3 405 151 527
3 405 297 1106
3 1106 406 75
3 407 297 394
3 394 392 1100
3 73 74 407
3 547 186 187
3 678 548 408
3 228 227 409
3 227 549 410
3 309 415 550
3 302 409 410
3 229 228 411
3 302 411 228
3 13 554 552
3 683 412 830
3 1187 895 686
3 552 412 551
3 687 17 440
3 444 335 442
3 415 191 550
3 416 415 309
3 309 418 417
3 189 416 419
3 420 225 224
3 419 417 420
3 549 309 410
3 225 418 226
3 419 310 421
3 416 417 419
3 225 420 417
3 420 224 1157
3 419 421 189
3 422 421 310
3 223 222 677
3 672 408 547
3 559 423 311
3 689 211 560
3 425 424 58
3 423 424 311
3 699 696 59
3 311 425 561
3 428 431 430
3 426 314 703
3 563 704 711
3 711 704 710
3 251 428 46
3 317 431 428
3 317 432 431
3 844 843 209
3 433 430 429
3 44 45 430
3 432 317 207
3 430 431 429
3 207 208 432
3 842 708 1169
3 433 429 1169
3 44 433 426
3 434 125 465
3 319 434 320
3 319 435 244
3 464 435 320
3 232 716 231
3 715 233 1144
3 32 437 262
3 33 326 437
3 1107 240 254
3 438 327 439
3 327 344 439
3 454 344 268
3 442 335 330
3 567 1158 687
3 333 441 19
3 440 441 335
3 445 442 341
3 445 444 442
3 1128 338 463
3 1010 1018 1001
3 451 453 443
3 440 335 444
3 341 1128 447
3 444 445 443
3 348 459 461
3 978 1206 976
3 341 447 445
3 446 995 449
3 462 574 461
3 1205 1032 1033
3 446 449 447
3 448 1033 451
3 1018 1030 1032
3 1045 688 1044
3 448 451 449
3 453 451 1040
3 414 557 688
3 557 414 556
3 1040 451 450
3 453 452 567
3 329 454 265
3 439 344 454
3 455 568 569
3 343 1126 342
3 573 37 863
3 839 702 836
3 904 1190 903
3 348 349 457
3 907 906 38
3 900 931 933
3 1190 457 345
3 1192 461 459
3 719 856 853
3 975 983 974
3 1192 459 458
3 462 461 460
3 980 973 978
3 463 1127 1128
3 348 574 463
3 463 574 1127
3 435 464 315
3 1108 464 320
3 600 465 126
3 434 465 351
3 107 108 575
3 352 467 579
3 271 353 576
3 353 577 576
3 731 724 726
3 604 727 102
3 614 164 163
3 767 872 354
3 794 790 620
3 271 583 595
3 618 156 155
3 619 471 788
3 529 154 153
3 783 292 875
3 782 778 775
3 597 468 596
3 1235 474 100
3 1236 474 356
3 275 475 137
3 357 475 358
3 359 647 648
3 478 481 480
3 478 477 132
3 364 477 362
3 481 621 476
3 481 649 651
3 652 817 1180
3 480 482 362
3 478 621 481
3 480 479 482
3 382 511 512
3 479 480 481
3 1180 383 515
3 819 818 622
3 873 166 764
3 1134 1135 514
3 482 484 362
3 274 364 484
3 795 274 482
3 732 597 757
3 625 361 273
3 175 486 366
3 1132 487 164
3 368 163 487
3 629 630 628
3 627 629 631
3 632 189 188
3 645 369 1147
3 490 632 493
3 635 634 370
3 284 504 503
3 492 191 190
3 369 492 489
3 191 492 491
3 633 187 186
3 493 806 634
3 805 494 161
3 495 494 371
3 636 371 281
3 639 813 638
3 891 628 810
3 370 634 806
3 642 184 183
3 497 814 1130
3 498 170 379
3 375 169 498
3 374 499 194
3 283 499 375
3 378 500 168
3 501 500 377
3 501 377 504
3 505 166 1131
3 502 376 503
3 377 282 502
3 643 376 192
3 645 644 491
3 377 502 504
3 503 504 502
3 1131 166 501
3 506 505 381
3 506 381 507
3 487 1132 368
3 1148 284 645
3 811 369 1146
3 509 508 171
3 510 508 382
3 170 509 171
3 511 383 286
3 648 382 512
3 361 173 650
3 512 511 286
3 382 509 511
3 476 649 481
3 649 359 648
3 514 513 169
3 509 513 383
3 623 1134 168
3 1135 363 515
3 515 818 652
3 479 652 482
3 384 653 516
3 653 654 516
3 388 517 149
3 516 517 384
3 96 876 913
3 288 655 654
3 385 519 93
3 386 519 387
3 288 653 1137
3 519 520 387
3 289 387 521
3 387 520 1137
3 658 523 522
3 522 1138 1139
3 523 156 524
3 522 523 390
3 524 157 659
3 523 524 391
3 812 158 813
3 660 290 1109
3 526 154 658
3 392 526 393
3 392 527 152
3 527 394 297
3 823 528 152
3 529 528 395
3 395 820 667
3 472 670 669
3 548 530 184
3 1111 530 396
3 403 531 181
3 950 531 397
3 532 1140 533
3 534 532 398
3 70 1220 1226
3 539 540 537
3 534 398 535
3 67 534 404
3 540 539 398
3 538 294 535
3 294 948 671
3 296 404 536
3 638 637 373
3 535 398 539
3 1149 825 537
3 814 497 642
3 540 398 1142
3 538 539 537
3 533 1140 1226
3 1225 662 666
3 542 541 63
3 543 541 402
3 542 63 64
3 542 295 1124
3 402 1125 1167
3 1160 1230 216
3 400 1123 295
3 1230 1161 1162
3 65 545 296
3 66 404 545
3 547 546 186
3 548 546 408
3 558 547 187
3 672 547 1150
3 678 408 298
3 530 548 396
3 227 226 549
3 418 549 226
3 302 550 192
3 550 410 309
3 552 551 12
3 553 551 412
3 13 552 12
3 894 413 895
3 682 553 412
3 10 684 325
3 555 554 14
3 554 413 894
3 15 555 14
3 555 556 1143
3 557 556 16
3 556 414 1143
3 16 17 687
3 688 557 1158
3 421 558 188
3 558 422 1150
3 691 559 311
3 212 559 213
3 560 211 690
3 56 423 560
3 214 561 693
3 696 692 694
3 705 841 43
3 833 832 562
3 563 703 704
3 562 714 427
3 565 564 325
3 566 564 436
3 565 325 684
3 565 307 850
3 715 566 436
3 234 1144 233
3 453 567 444
3 567 452 1158
3 569 568 326
3 570 568 455
3 326 34 717
3 572 342 1126
3 344 570 455
3 570 327 1107
3 720 36 573
3 1170 572 569
3 572 1170 718
3 901 342 572
3 38 906 863
3 1170 865 718
3 461 574 348
3 1127 574 462
3 350 270 721
3 466 722 352
3 577 353 105
3 578 576 467
3 106 577 105
3 467 576 577
3 467 580 578
3 603 590 589
3 467 577 579
3 106 579 577
3 599 582 584
3 580 352 584
3 271 578 583
3 584 592 591
3 946 804 887
3 803 886 801
3 591 578 580
3 756 595 581
3 722 575 721
3 588 581 583
3 584 582 592
3 585 592 594
3 590 606 581
3 1173 1235 100
3 1108 1145 270
3 600 599 587
3 591 583 578
3 585 594 590
3 943 592 582
3 607 601 603
3 585 590 588
3 887 922 593
3 584 591 580
3 588 591 585
3 594 592 943
3 591 592 585
3 593 924 887
3 802 804 799
3 923 594 593
3 590 594 589
3 581 595 583
3 596 595 586
3 597 596 586
3 596 468 598
3 606 601 759
3 102 1172 101
3 598 468 602
3 271 598 353
3 352 599 584
3 587 1145 600
3 465 600 351
3 945 944 600
3 751 868 750
3 603 606 590
3 604 602 468
3 103 104 602
3 923 607 589
3 603 601 606
3 597 723 468
3 604 468 723
3 624 797 485
3 601 607 609
3 609 611 601
3 595 756 586
3 589 607 603
3 605 921 609
3 609 921 608
3 748 754 753
3 605 609 607
3 1175 611 609
3 866 473 746
3 612 759 611
3 1175 609 608
3 611 610 612
3 736 728 741
3 757 758 734
3 614 613 164
3 763 613 469
3 760 163 162
3 469 761 354
3 766 767 765
3 764 766 768
3 160 770 161
3 794 160 159
3 618 617 156
3 619 617 471
3 155 154 829
3 773 355 788
3 471 773 788
3 789 790 619
3 742 733 736
3 770 616 769
3 132 621 478
3 476 621 133
3 766 765 768
3 795 796 274
3 873 623 167
3 1134 623 483
3 797 364 274
3 624 485 799
3 357 625 273
3 366 625 358
3 368 626 163
3 627 626 488
3 627 488 629
3 627 631 805
3 488 630 629
3 806 807 809
3 488 1129 630
3 891 631 628
3 808 280 635
3 370 809 808
3 281 371 631
3 631 371 805
3 493 632 188
3 489 632 490
3 640 633 186
3 807 806 633
3 370 808 635
3 490 493 634
3 811 635 280
3 1146 369 489
3 637 636 281
3 639 638 373
3 891 281 631
3 663 664 662
3 495 636 638
3 637 638 636
3 661 639 373
3 812 525 659
3 640 185 641
3 633 640 496
3 642 641 184
3 640 641 497
3 182 950 183
3 1130 814 372
3 491 643 191
3 376 643 503
3 284 503 644
3 643 644 503
3 369 645 491
3 645 1147 1148
3 510 382 648
3 360 647 359
3 273 646 647
3 648 647 646
3 648 646 510
3 648 512 649
3 649 512 651
3 359 649 476
3 172 650 173
3 646 650 510
3 817 651 286
3 481 651 479
3 817 652 479
3 515 363 818
3 653 384 1137
3 654 653 288
3 288 385 655
3 292 667 820
3 822 518 657
3 875 821 822
3 656 820 823
3 654 656 824
3 518 1136 913
3 96 914 876
3 523 658 155
3 526 658 522
3 812 659 158
3 524 659 525
3 525 661 660
3 660 661 665
3 661 525 812
3 373 664 663
3 1149 540 666
3 663 665 661
3 664 373 637
3 665 663 662
3 893 892 816
3 662 664 825
3 662 1149 666
3 665 290 660
3 533 1226 1227
3 1225 1224 290
3 668 667 292
3 472 774 670
3 779 781 915
3 777 781 787
3 529 667 669
3 668 669 667
3 829 618 155
3 529 669 670
3 296 536 671
3 294 671 536
3 672 1150 673
3 672 673 674
3 422 310 1156
3 672 674 298
3 673 675 674
3 222 1151 675
3 675 673 677
3 1151 222 221
3 221 220 1152
3 220 1154 1153
3 673 1150 1156
3 1156 1157 677
3 679 678 298
3 396 680 293
3 1153 1155 1152
3 1115 1121 1105
3 548 678 680
3 679 680 678
3 413 685 686
3 1094 851 831
3 552 830 412
3 565 682 307
3 683 681 896
3 682 683 1186
3 11 684 10
3 565 684 553
3 685 308 686
3 413 555 685
3 1023 1035 450
3 1086 1090 1089
3 567 687 440
3 16 687 557
3 1040 452 453
3 1031 1035 1023
3 559 689 423
3 211 689 212
3 210 690 211
3 55 690 312
3 214 213 691
3 691 213 559
3 1168 701 699
3 695 1159 693
3 561 694 693
3 697 693 694
3 425 694 561
3 694 692 697
3 697 692 698
3 1159 1160 216
3 425 59 696
3 699 59 60
3 692 699 701
3 693 697 695
3 1119 1113 1117
3 697 698 1161
3 60 61 1168
3 692 696 699
3 1166 61 543
3 701 698 692
3 1168 699 60
3 701 700 1165
3 427 711 713
3 853 456 573
3 704 703 314
3 705 703 563
3 314 708 707
3 1200 847 848
3 714 841 563
3 43 426 705
3 1184 1182 1183
3 955 953 954
3 708 314 1169
3 1181 710 707
3 429 432 842
3 708 843 844
3 212 213 1194
3 1072 216 217
3 1181 707 706
3 711 710 709
3 713 711 845
3 427 714 711
3 845 712 713
3 905 904 852
3 845 711 709
3 833 834 702
3 714 562 841
3 711 714 563
3 716 715 436
3 232 233 715
3 436 850 716
3 851 1186 896
3 35 717 34
3 717 571 1170
3 1171 865 571
3 860 911 861
3 906 907 857
3 702 834 836
3 864 573 456
3 717 1171 571
3 721 270 1145
3 575 350 721
3 721 587 722
3 587 352 722
3 604 723 727
3 723 597 726
3 732 728 731
3 730 724 740
3 727 726 729
3 724 730 729
3 597 732 731
3 729 726 724
3 726 727 723
3 727 725 1172
3 741 743 738
3 724 731 735
3 740 724 735
3 727 729 725
3 356 1174 272
3 725 729 730
3 597 731 726
3 728 736 735
3 586 757 597
3 758 757 756
3 733 735 736
3 778 782 786
3 612 744 743
3 728 732 734
3 728 735 731
3 740 735 883
3 728 743 741
3 746 742 739
3 793 746 792
3 730 737 878
3 750 749 744
3 739 745 752
3 741 738 745
3 771 770 772
3 883 735 733
3 730 740 737
3 743 728 734
3 745 742 736
3 745 736 741
3 739 866 746
3 734 612 743
3 744 612 610
3 744 610 750
3 738 743 744
3 744 749 738
3 739 742 745
3 778 786 355
3 733 742 746
3 610 751 750
3 747 868 762
3 738 749 754
3 771 874 616
3 753 749 747
3 748 752 754
3 611 1175 610
3 749 750 747
3 608 921 963
3 869 762 868
3 745 738 754
3 755 752 748
3 871 747 762
3 874 753 470
3 754 749 753
3 745 754 752
3 770 771 616
3 867 866 755
3 581 606 756
3 759 758 606
3 732 757 734
3 586 756 757
3 606 758 756
3 734 758 612
3 611 759 601
3 758 759 612
3 760 162 769
3 870 760 470
3 870 614 760
3 470 753 871
3 354 761 762
3 870 762 761
3 763 165 613
3 764 763 615
3 764 615 766
3 768 483 873
3 615 767 766
3 803 885 605
3 615 872 767
3 940 768 765
3 354 762 869
3 920 941 942
3 363 483 768
3 623 873 483
3 770 769 161
3 760 769 616
3 772 160 794
3 772 755 771
3 755 748 771
3 748 753 874
3 160 772 770
3 755 772 620
3 618 774 773
3 774 776 778
3 670 774 618
3 774 472 776
3 472 777 776
3 882 877 878
3 777 472 668
3 778 776 775
3 668 781 777
3 356 272 916
3 782 785 877
3 773 778 355
3 783 915 781
3 1176 97 98
3 882 883 793
3 792 473 789
3 783 781 668
3 779 784 787
3 782 775 785
3 782 780 786
3 292 783 668
3 783 657 876
3 779 1177 1176
3 916 877 785
3 775 879 785
3 784 916 879
3 733 746 793
3 473 790 789
3 779 787 781
3 787 784 879
3 786 791 355
3 792 789 791
3 619 788 789
3 791 789 788
3 790 473 867
3 881 159 158
3 355 791 788
3 791 786 792
3 793 786 780
3 473 792 746
3 786 793 792
3 882 793 780
3 794 159 881
3 772 794 620
3 819 482 652
3 796 795 622
3 918 917 622
3 485 797 798
3 274 796 797
3 798 797 796
3 796 622 917
3 802 803 801
3 802 799 485
3 799 804 888
3 129 130 800
3 624 800 130
3 803 802 485
3 887 804 801
3 803 485 798
3 804 802 801
3 885 803 798
3 886 803 605
3 801 922 887
3 804 128 888
3 494 805 371
3 162 805 161
3 493 633 806
3 807 633 496
3 496 1130 889
3 808 809 890
3 370 806 809
3 280 808 630
3 810 809 807
3 890 630 808
3 496 889 807
3 892 926 372
3 1133 811 280
3 1147 811 507
3 813 158 159
3 661 812 639
3 638 813 495
3 812 813 639
3 949 814 642
3 949 816 814
3 397 948 929
3 825 827 828
3 828 893 927
3 927 893 815
3 651 817 479
3 1180 286 383
3 918 818 363
3 819 622 795
3 482 819 795
3 652 818 819
3 823 820 395
3 656 654 821
3 654 655 821
3 822 821 655
3 518 822 655
3 822 657 875
3 528 823 395
3 824 152 151
3 654 824 516
3 823 824 656
3 825 664 827
3 537 825 828
3 826 1193 947
3 891 925 281
3 1193 664 637
3 828 827 826
3 828 826 893
3 828 538 537
3 529 829 154
3 618 829 670
3 894 830 552
3 681 683 830
3 896 898 831
3 831 899 1092
3 833 562 427
3 832 702 840
3 834 427 713
3 702 832 833
3 712 837 713
3 837 836 834
3 930 837 712
3 853 856 855
3 834 713 837
3 839 835 838
3 931 930 712
3 836 837 1191
3 854 857 908
3 39 40 840
3 835 839 836
3 840 839 838
3 840 838 907
3 840 40 832
3 43 841 42
3 841 705 563
3 432 208 842
3 843 208 209
3 708 842 843
3 208 843 842
3 209 210 844
3 1182 844 210
3 709 848 847
3 845 709 847
3 954 956 1201
3 847 849 845
3 710 1181 709
3 847 846 849
3 844 1182 1185
3 1184 212 955
3 951 952 1201
3 912 971 939
3 565 850 436
3 850 307 1186
3 851 850 1186
3 1094 831 1092
3 862 456 861
3 1190 459 457
3 863 853 573
3 854 856 857
3 930 910 1191
3 456 853 855
3 860 855 854
3 861 456 855
3 857 856 719
3 854 855 856
3 906 857 719
3 857 838 908
3 936 854 909
3 993 984 997
3 905 859 937
3 902 862 934
3 854 908 909
3 911 860 858
3 860 861 855
3 862 861 859
3 859 905 934
3 865 720 864
3 38 863 37
3 853 863 719
3 862 864 456
3 720 573 864
3 864 862 865
3 862 718 865
3 739 755 866
3 867 755 620
3 790 867 620
3 473 866 867
3 750 868 747
3 868 751 869
3 751 1175 965
3 767 354 869
3 614 870 761
3 871 870 470
3 747 871 753
3 870 871 762
3 615 469 872
3 354 872 469
3 166 873 167
3 764 768 873
3 616 874 470
3 748 874 771
3 292 820 875
3 657 783 875
3 913 876 657
3 96 97 914
3 878 877 272
3 782 877 780
3 878 272 1174
3 878 737 882
3 787 879 775
3 916 784 880
3 784 779 1179
3 99 474 1236
3 619 881 158
3 794 881 790
3 882 780 877
3 883 882 737
3 740 883 737
3 733 793 883
3 941 920 884
3 917 919 796
3 919 885 798
3 885 919 920
3 923 605 607
3 923 593 922
3 924 593 943
3 887 924 946
3 128 129 888
3 799 888 129
3 372 816 892
3 810 807 889
3 630 890 628
3 809 810 890
3 889 372 926
3 925 637 281
3 1193 925 947
3 926 891 810
3 892 893 826
3 815 893 816
3 554 894 552
3 895 413 686
3 681 830 895
3 894 895 830
3 681 1187 898
3 851 896 831
3 1187 681 895
3 1041 1037 1035
3 681 898 896
3 898 897 1089
3 1086 1089 1079
3 1091 1090 228
3 931 951 933
3 910 935 936
3 902 572 718
3 903 901 852
3 862 902 718
3 852 901 902
3 904 903 852
3 345 346 1189
3 852 934 905
3 1190 458 459
3 1203 937 911
3 904 905 938
3 863 906 719
3 907 38 39
3 840 907 39
3 838 857 907
3 838 835 908
3 908 835 909
3 910 835 1191
3 835 910 909
3 858 860 957
3 854 936 860
3 858 1203 911
3 861 911 859
3 460 461 1192
3 939 1192 938
3 518 913 657
3 96 913 95
3 1177 97 1176
3 914 1177 915
3 783 876 915
3 914 915 876
3 879 916 785
3 356 916 880
3 622 818 918
3 919 917 884
3 363 768 940
3 884 917 918
3 919 884 920
3 796 919 798
3 884 765 941
3 963 921 885
3 605 885 921
3 963 885 920
3 801 886 922
3 923 922 886
3 923 886 605
3 923 589 594
3 944 924 582
3 924 966 946
3 926 925 891
3 826 947 892
3 889 926 810
3 926 892 947
3 928 927 815
3 828 927 538
3 928 815 929
3 538 928 294
3 815 949 929
3 950 949 642
3 931 712 849
3 910 930 900
3 849 952 951
3 900 930 931
3 216 1060 1076
3 1051 1070 1072
3 982 975 962
3 935 1202 961
3 902 934 852
3 859 934 862
3 900 1202 910
3 935 961 958
3 910 936 909
3 936 935 957
3 911 937 859
3 938 937 912
3 938 912 939
3 904 938 458
3 958 960 858
3 858 957 958
3 884 940 765
3 363 940 918
3 767 964 765
3 965 964 869
3 964 942 941
3 965 942 964
3 594 943 593
3 582 924 943
3 599 944 582
3 600 126 945
3 126 127 945
3 127 946 966
3 127 128 946
3 804 946 128
3 826 827 1193
3 926 947 925
3 671 948 397
3 928 948 294
3 949 815 816
3 950 642 183
3 950 182 531
3 949 950 929
3 952 849 846
3 932 933 951
3 846 954 952
3 1199 1201 956
3 846 1200 955
3 1195 213 214
3 955 954 846
3 954 953 1197
3 848 1182 1184
3 1194 955 212
3 1195 953 1194
3 215 1076 1196
3 936 957 860
3 958 957 935
3 1206 978 979
3 971 1203 960
3 933 967 900
3 970 967 933
3 962 958 961
3 975 958 962
3 1202 935 910
3 962 961 959
3 959 1202 967
3 969 959 967
3 920 942 963
3 608 963 942
3 765 964 941
3 869 964 767
3 751 965 869
3 608 942 965
3 944 966 924
3 127 966 945
3 1204 970 933
3 970 969 967
3 988 968 990
3 1027 219 220
3 969 968 985
3 962 959 969
3 1204 933 932
3 969 970 968
3 1203 971 912
3 974 973 971
3 975 982 983
3 981 460 980
3 978 973 972
3 939 973 980
3 975 974 960
3 972 973 974
3 958 975 960
3 985 982 969
3 979 972 983
3 460 981 462
3 984 977 987
3 997 1012 993
3 979 978 972
3 980 978 976
3 983 984 979
3 1003 991 994
3 980 976 981
3 980 460 939
3 994 981 976
3 992 446 1127
3 969 982 962
3 983 982 977
3 983 977 984
3 983 972 974
3 985 987 977
3 989 997 987
3 988 987 985
3 982 985 977
3 1201 1199 932
3 1049 1028 218
3 988 985 968
3 987 986 989
3 990 968 1204
3 986 987 988
3 1028 1051 1215
3 1027 220 1212
3 1074 1060 1071
3 990 1075 988
3 979 984 993
3 1038 1015 1054
3 981 994 1000
3 1000 996 992
3 1046 1025 998
3 979 993 1004
3 999 1206 1004
3 991 996 1000
3 449 995 448
3 446 992 995
3 996 991 1011
3 995 996 1205
3 987 997 984
3 1012 997 989
3 1210 1207 1014
3 1008 998 1016
3 1012 1013 993
3 1005 1007 999
3 981 1000 992
3 991 1000 994
3 1009 999 1007
3 1001 1011 1010
3 1047 1026 1046
3 1005 999 1004
3 1206 994 976
3 1009 1003 999
3 1005 1004 993
3 1206 999 1003
3 1008 1013 998
3 1008 1007 1005
3 221 222 1207
3 1056 1064 1055
3 1005 1013 1008
3 1007 1006 1009
3 1024 1211 1016
3 1006 1007 1008
3 1010 1009 1006
3 1011 1001 1205
3 1006 1008 1020
3 1085 1088 227
3 991 1009 1011
3 1010 1011 1009
3 1047 1012 989
3 1012 1002 1013
3 1013 1005 993
3 1013 1002 1046
3 1056 1055 1053
3 1016 1020 1008
3 1021 1010 1006
3 1080 1057 1065
3 1024 1016 998
3 1213 1020 1016
3 1209 1207 1208
3 1010 1022 1018
3 1010 1021 1022
3 1030 1018 1015
3 1024 1025 1019
3 221 1210 1212
3 1213 1016 1014
3 1021 1020 1213
3 1021 1017 1022
3 1006 1020 1021
3 1052 1022 1017
3 1018 1022 1054
3 1030 1031 1023
3 1033 448 1205
3 1025 1024 998
3 1019 1210 1211
3 1046 1026 1025
3 1049 1027 1028
3 1002 1012 1047
3 1214 1059 1047
3 1019 1025 1027
3 1027 1025 1028
3 1025 1050 1028
3 1050 1026 1059
3 1052 1055 1029
3 1063 1056 1062
3 1031 1030 1015
3 1032 1030 1023
3 1034 1036 1038
3 1043 1044 1041
3 1032 1023 1033
3 1018 1032 1001
3 1023 450 1033
3 451 1033 450
3 1066 1034 1038
3 308 1067 686
3 1036 1042 1031
3 688 1158 1040
3 1038 1036 1015
3 1042 1036 1078
3 450 1035 1037
3 1042 1041 1035
3 1015 1018 1054
3 1038 1029 1066
3 1058 1068 1069
3 688 1037 1044
3 450 1037 1040
3 688 1040 1037
3 1042 1035 1031
3 1041 1039 1043
3 1078 1036 1034
3 1041 1042 1039
3 1043 1039 1068
3 1045 1044 1043
3 1041 1044 1037
3 1043 308 1045
3 1143 1045 308
3 688 1045 414
3 1013 1046 998
3 1047 1046 1002
3 986 1214 989
3 1059 1214 1048
3 1060 1070 1071
3 1050 1051 1028
3 218 219 1049
3 1027 1049 219
3 1025 1026 1050
3 1026 1047 1059
3 1059 1070 1051
3 218 1215 217
3 1017 1053 1055
3 1038 1052 1029
3 1207 1209 1014
3 223 1061 222
3 1022 1052 1054
3 1038 1054 1052
3 1017 1055 1052
3 1053 1061 1056
3 1062 1056 1061
3 224 225 1063
3 1064 1056 1063
3 1077 1080 1081
3 1069 1039 1078
3 1187 897 898
3 1070 1059 1048
3 1050 1059 1051
3 1071 1048 986
3 1199 990 932
3 1209 1208 1053
3 1062 1061 223
3 223 224 1062
3 1063 1062 224
3 1057 1064 1065
3 1064 1029 1055
3 1065 1064 1063
3 1066 1064 1057
3 1063 225 1065
3 1065 1081 1080
3 1064 1066 1029
3 1034 1066 1057
3 1068 1067 1043
3 686 1067 1058
3 1069 1068 1039
3 1067 1068 1058
3 1080 1082 1057
3 1058 1069 1079
3 1071 1070 1048
3 1072 1070 1060
3 1075 986 988
3 1075 1073 1074
3 216 1072 1060
3 1072 217 1215
3 1198 1197 1195
3 1074 1073 1076
3 1075 1074 1071
3 1073 1196 1076
3 1075 1071 986
3 1075 990 1199
3 216 1076 215
3 1060 1074 1076
3 1079 1083 1086
3 1034 1057 1082
3 1042 1078 1039
3 1084 1078 1034
3 1069 1078 1084
3 1069 1084 1087
3 1065 225 1081
3 1080 1077 1082
3 225 226 1081
3 1081 226 1088
3 1083 1082 1077
3 1079 1087 1083
3 1077 1085 1083
3 228 229 1091
3 1034 1082 1084
3 1087 1082 1083
3 1088 1085 1077
3 1093 228 1090
3 1083 1085 1086
3 1085 227 1093
3 1069 1087 1079
3 1082 1087 1084
3 1081 1088 1077
3 227 1088 226
3 898 1089 899
3 1089 897 1188
3 1089 1090 899
3 1093 1086 1085
3 1091 229 1092
3 899 1090 1091
3 229 230 1092
3 1092 230 1094
3 228 1093 227
3 1086 1093 1090
3 230 231 1094
3 1095 231 716
3 851 1094 1095
3 231 1095 1094
3 209 208 1096
3 52 1096 208
3 1098 1097 73
3 1101 1097 291
3 73 407 1098
3 407 394 1100
3 1099 1101 393
3 1102 1099 1216
3 291 1098 1100
3 407 1100 1098
3 393 1101 291
3 1102 1101 1099
3 1102 1216 1103
3 71 72 1104
3 1110 1219 1223
3 1218 71 1104
3 72 1102 1104
3 1218 1102 1103
3 1164 1234 1230
3 293 1114 1112
3 76 1106 75
3 1106 256 150
3 570 1107 262
3 438 1107 327
3 464 1108 270
3 434 1108 320
3 1109 290 1110
3 390 391 1109
3 1222 1110 1224
3 1228 1221 1222
3 1112 396 293
3 182 1111 401
3 1114 1115 1117
3 1114 1116 1112
3 1231 1119 1117
3 1122 1116 1113
3 1114 293 1115
3 1114 1113 1116
3 293 1120 1115
3 1115 1120 1121
3 1122 1113 1119
3 1111 1116 401
3 1105 1231 1117
3 1114 1117 1113
3 1164 1231 1232
3 1118 1162 1163
3 1163 1119 1118
3 1122 1119 544
3 680 1120 293
3 1121 1120 679
3 298 1155 679
3 1154 1121 1153
3 544 1125 1122
3 402 542 1124
3 1116 1122 1123
3 1122 1125 1124
3 295 1123 1124
3 1122 1124 1123
3 1125 544 1167
3 1124 1125 402
3 344 455 1126
3 572 1126 455
3 992 1127 462
3 1128 1127 446
3 447 1128 446
3 338 1128 341
3 630 1129 280
3 488 368 1129
3 889 1130 372
3 496 497 1130
3 505 1131 381
3 504 1131 501
3 164 506 1132
3 1133 506 507
3 1132 1133 368
3 811 1133 507
3 1135 1134 483
3 514 168 1134
3 363 1135 483
3 514 1135 515
3 94 95 1136
3 913 1136 95
3 1137 520 288
3 388 1137 384
3 1110 1138 390
3 1139 1138 389
3 1139 389 1216
3 393 522 1139
3 68 69 1140
3 1226 1140 69
3 1217 70 71
3 1142 1227 540
3 532 1142 398
3 1227 1142 533
3 1045 1143 414
3 685 1143 308
3 1144 234 263
3 715 1144 566
3 600 1145 351
3 721 1145 587
3 634 1146 490
3 811 1146 635
3 811 1147 369
3 1148 1147 507
3 507 381 1148
3 1148 381 1131
3 825 1149 662
3 540 1149 537
3 558 1150 547
3 1156 1150 422
3 1152 1151 221
3 674 1151 676
3 1153 1152 220
3 1151 1152 676
3 1154 220 219
3 1121 679 1155
3 1232 219 218
3 1154 1232 1233
3 1152 1155 676
3 1121 1155 1153
3 310 420 1157
3 673 1156 677
3 1157 224 223
3 310 1157 1156
3 1158 557 687
3 1040 1158 452
3 693 1159 215
3 1160 1159 695
3 695 1161 1160
3 1162 1164 1230
3 697 1161 695
3 1162 1161 698
3 1163 1162 698
3 1162 1118 1164
3 698 701 1165
3 1163 544 1119
3 1231 1164 1118
3 218 217 1234
3 1166 1165 700
3 1163 1165 1167
3 1166 700 1168
3 1167 1166 543
3 1167 543 402
3 1167 544 1163
3 1166 1168 61
3 701 1168 700
3 433 1169 314
3 842 1169 429
3 717 1170 569
3 865 1170 571
3 865 1171 720
3 35 720 1171
3 727 1172 102
3 1173 1172 725
3 725 730 1173
3 1174 1235 730
3 474 1235 356
3 878 1174 730
3 965 1175 608
3 610 1175 751
3 1178 1176 98
3 779 1176 1179
3 915 1177 779
3 97 1177 914
3 1179 880 784
3 1236 98 99
3 1176 1178 1179
3 880 1179 1178
3 652 1180 515
3 286 1180 817
3 1185 1181 706
3 709 1181 848
3 1183 1182 210
3 1185 1182 848
3 210 211 1183
3 1184 1183 211
3 212 1184 211
3 955 1200 1184
3 1181 1185 848
3 844 1185 706
3 682 1186 307
3 896 1186 683
3 686 1058 1187
3 1188 1058 1079
3 897 1187 1188
3 1058 1188 1187
3 901 1189 342
3 345 1189 903
3 903 1190 345
3 458 1190 904
3 836 1191 835
3 930 1191 837
3 938 1192 458
3 460 1192 939
3 664 1193 827
3 925 1193 637
3 1195 1194 213
3 955 1194 953
3 1196 1195 214
3 954 1197 956
3 215 1196 214
3 1197 1198 956
3 953 1195 1197
3 1198 1195 1196
3 1196 1073 1198
3 1073 1075 1199
3 956 1198 1199
3 1073 1199 1198
3 847 1200 846
3 1184 1200 848
3 951 1201 932
3 954 1201 952
3 967 1202 900
3 961 1202 959
3 1203 912 937
3 858 960 1203
3 970 1204 968
3 932 990 1204
3 1011 1205 996
3 1032 1205 1001
3 1004 1206 979
3 994 1206 1003
3 1207 222 1208
3 1014 1211 1210
3 222 1061 1208
3 1053 1208 1061
3 1053 1017 1209
3 1213 1209 1017
3 1212 1210 1019
3 221 1207 1210
3 1016 1211 1014
3 1019 1211 1024
3 1027 1212 1019
3 221 1212 220
3 1209 1213 1014
3 1021 1213 1017
3 989 1214 1047
3 986 1048 1214
3 1028 1215 218
3 1072 1215 1051
3 1139 1216 1099
3 1223 1216 389
3 1103 1223 1219
3 1220 1141 1226
3 1103 1217 1218
3 71 1218 1217
3 1219 1222 1221
3 1217 1221 1220
3 70 1217 1220
3 1221 1217 1219
3 1219 1110 1222
3 1141 1220 1221
3 1224 1110 290
3 1229 540 1227
3 1216 1223 1103
3 1110 1223 389
3 1225 290 665
3 666 1222 1224
3 662 1225 665
3 666 1224 1225
3 1226 69 70
3 1227 1226 1141
3 1228 1141 1221
3 1228 1222 1229
3 1229 1222 666
3 1141 1228 1227
3 540 1229 666
3 1227 1228 1229
3 216 1230 217
3 1230 1160 1161
3 1231 1118 1119
3 1233 1232 1105
3 219 1232 1154
3 1232 218 1234
3 1105 1121 1233
3 1154 1233 1121
3 1230 1234 217
3 1232 1234 1164
3 730 1235 1173
3 356 1235 1174
3 880 1236 356
3 98 1236 1178
