OFF
1237 2330 0
-0.07938931 -1.09618321 0.00000000
-0.06980244 -1.07510219 0.01451271
-0.05939887 -1.05272926 0.02982265
-0.04825684 -1.02996443 0.04517246
-0.03754273 -1.00949740 0.05865940
-0.02577312 -0.98911409 0.07172621
-0.01266711 -0.96778888 0.08491211
0.00001392 -0.94801761 0.09664560
0.01491846 -0.92540272 0.10960773
0.03054608 -0.90514544 0.12030523
0.04827545 -0.88273223 0.13149218
0.06878690 -0.85725465 0.14363845
0.08935673 -0.83628363 0.15197719
0.10875920 -0.81688197 0.15902885
0.13048725 -0.79532882 0.16639828
0.15293111 -0.77809238 0.16963660
0.17323886 -0.76319015 0.17166837
0.19755911 -0.75046560 0.16844562
0.22158453 -0.73796738 0.16475814
0.25087068 -0.72637406 0.15529626
0.27680199 -0.71612672 0.14640059
0.30248471 -0.70758750 0.13528968
0.33084352 -0.69899910 0.12109857
0.35355708 -0.69214150 0.10920680
0.38451467 -0.68653016 0.08923621
0.41153524 -0.68181042 0.07107080
0.43686682 -0.67792603 0.05296786
0.45850567 -0.67623590 0.03623246
0.47974308 -0.67515166 0.01913554
0.50259542 -0.67541985 0.00000000
0.49039294 -0.64682028 0.00000000
0.47705156 -0.61803819 0.00000000
0.46219909 -0.58938171 0.00000000
0.44711907 -0.56028611 0.00000000
0.43466338 -0.53625399 0.00000000
0.42199442 -0.50695223 0.00000000
0.40936106 -0.47587015 0.00000000
0.39826563 -0.44857187 0.00000000
0.38812015 -0.41671655 0.00000000
0.38008588 -0.38478035 0.00000000
0.37192372 -0.35233574 0.00000000
0.36496608 -0.31949785 0.00000000
0.35986056 -0.29113373 0.00000000
0.35446270 -0.26114571 0.00000000
0.35120710 -0.23184222 0.00000000
0.35003794 -0.20144447 0.00000000
0.34889887 -0.17182895 0.00000000
0.34956442 -0.13632195 0.00000000
0.35236641 -0.10870229 0.00000000
0.32634566 -0.12512742 0.00831539
0.30207050 -0.13896200 0.01578120
0.27525299 -0.15409052 0.02396460
0.25105145 -0.16734471 0.03118046
0.22530592 -0.18130098 0.03874330
0.19809620 -0.19538451 0.04631876
0.17099706 -0.20915947 0.05366345
0.14269816 -0.22270114 0.06069273
0.11738421 -0.23465206 0.06681028
0.08982123 -0.24535252 0.07177024
0.05627449 -0.25826817 0.07767834
0.02286643 -0.27078471 0.08323842
-0.00900231 -0.28100074 0.08750256
-0.04118877 -0.29007964 0.09110302
-0.07071708 -0.29573837 0.09323344
-0.10366986 -0.30174322 0.09544732
-0.13837012 -0.30467138 0.09642338
-0.16911729 -0.30676380 0.09701895
-0.20027464 -0.30573740 0.09641052
-0.22922862 -0.30342855 0.09525689
-0.26207081 -0.29996470 0.09356589
-0.29566821 -0.29447459 0.09099108
-0.32755489 -0.28723632 0.08765142
-0.36425268 -0.27840205 0.08353861
-0.39732936 -0.26765148 0.07860114
-0.42649900 -0.25591198 0.07322393
-0.45432269 -0.24441760 0.06793209
-0.48257341 -0.23108813 0.06178282
-0.50995663 -0.21644851 0.05500818
-0.53247510 -0.20432623 0.04937357
-0.55385440 -0.19180495 0.04353897
-0.58579961 -0.17303536 0.03474803
-0.61271763 -0.15576669 0.02666528
-0.63835665 -0.13895141 0.01878106
-0.66729302 -0.11989888 0.00983015
-0.69740458 -0.09893130 0.00000000
-0.68294239 -0.12342260 0.00913620
-0.66710464 -0.15063283 0.01918406
-0.65547048 -0.17160995 0.02671858
-0.64392907 -0.19285692 0.03414565
-0.63284412 -0.21685890 0.04178703
-0.62075936 -0.24353854 0.05001522
-0.60863880 -0.27081692 0.05811793
-0.59686492 -0.29809001 0.06589292
-0.58516928 -0.32684941 0.07363875
-0.57615201 -0.35632007 0.08002794
-0.56735721 -0.38747817 0.08623778
-0.55957639 -0.42038920 0.09175919
-0.55174992 -0.45567445 0.09707634
-0.54802523 -0.48846456 0.09983283
-0.54441675 -0.52147579 0.10224722
-0.54122101 -0.55130091 0.10424966
-0.53983149 -0.58467895 0.10468176
-0.53849572 -0.61829101 0.10492703
-0.54028581 -0.64875877 0.10287415
-0.54272576 -0.67989332 0.10017320
-0.54628126 -0.70926265 0.09658237
-0.55202956 -0.74002364 0.09140316
-0.55960074 -0.76976391 0.08497227
-0.56758466 -0.79709616 0.07831514
-0.57647073 -0.82510987 0.07094919
-0.58788032 -0.85310397 0.06207843
-0.59746788 -0.87447895 0.05471503
-0.60810843 -0.89723347 0.04654701
-0.61970731 -0.92078899 0.03769672
-0.63146154 -0.94391370 0.02875292
-0.64289200 -0.96569357 0.02009487
-0.65597490 -0.99044358 0.01015381
-0.66931298 -1.01557252 0.00000000
-0.65410886 -1.00129384 0.00852684
-0.63471830 -0.98315867 0.01934494
-0.61589473 -0.96573911 0.02970477
-0.59311065 -0.94523132 0.04187636
-0.56894818 -0.92500560 0.05409475
-0.54503812 -0.90667568 0.06529720
-0.51764759 -0.88729371 0.07722742
-0.49288852 -0.87133340 0.08713701
-0.46636764 -0.85681697 0.09646600
-0.43504969 -0.84915713 0.10335741
-0.39745112 -0.84679013 0.10837476
-0.36515382 -0.84877279 0.11055994
-0.33250672 -0.85696669 0.10964575
-0.30717823 -0.86944791 0.10574646
-0.27970933 -0.88487873 0.10033236
-0.25406230 -0.90197820 0.09356718
-0.23152823 -0.91876144 0.08645291
-0.21007261 -0.93817796 0.07769356
-0.18774348 -0.95925031 0.06797267
-0.16509636 -0.98090058 0.05783407
-0.14673657 -1.00444636 0.04631342
-0.12714094 -1.02976106 0.03375591
-0.10973889 -1.05370519 0.02168180
-0.09208967 -1.07837972 0.00910403
-0.67557366 -0.11910521 0.00926523
-0.65188406 -0.13964243 0.01884029
-0.63042920 -0.16074314 0.02847288
-0.60847430 -0.18069634 0.03757358
-0.58069798 -0.19852534 0.04605409
-0.55849674 -0.21969916 0.05557854
-0.53723624 -0.24287188 0.06549370
-0.51573393 -0.26455539 0.07465732
-0.49372299 -0.28613399 0.08347846
-0.47382828 -0.30976151 0.09247643
-0.45347401 -0.33326909 0.10103349
-0.43200912 -0.35549800 0.10870045
-0.41326163 -0.38045809 0.11643559
-0.39268774 -0.40289349 0.12308199
-0.37347567 -0.42780905 0.12953481
-0.35516682 -0.45244429 0.13506208
-0.33709458 -0.47786883 0.13990754
-0.31842787 -0.50311781 0.14374683
-0.30099396 -0.52803076 0.14638989
-0.28231612 -0.55263050 0.14780402
-0.26564271 -0.57828894 0.14825871
-0.25022696 -0.60534114 0.14785521
-0.24058846 -0.63432021 0.14661729
-0.23127403 -0.66305950 0.14432819
-0.21732082 -0.69084574 0.14089982
-0.20261701 -0.71719212 0.13602242
-0.18602765 -0.74294187 0.13015746
-0.16822557 -0.77142132 0.12227777
-0.15381615 -0.79671731 0.11452321
-0.14649611 -0.82587575 0.10596516
-0.13883430 -0.85586478 0.09662501
-0.13102160 -0.88564697 0.08657966
-0.12271190 -0.91418869 0.07623782
-0.11327672 -0.94711492 0.06391422
-0.10822341 -0.97700046 0.05222201
-0.10122934 -1.00611998 0.03987757
-0.09411942 -1.03493440 0.02735803
-0.08578747 -1.06702995 0.01306860
-0.11877785 -0.32733991 0.10493917
-0.12060489 -0.35732847 0.11454465
-0.11864208 -0.38861072 0.12320177
-0.11540548 -0.41929499 0.13019631
-0.11196647 -0.44964619 0.13537137
-0.10863503 -0.48051408 0.13979000
-0.10683126 -0.51174511 0.14268244
-0.10440324 -0.54226214 0.14408241
-0.09973545 -0.57298585 0.14496914
-0.10243527 -0.60403034 0.14360273
-0.10218834 -0.63397435 0.14166046
-0.10211106 -0.66588450 0.13906881
-0.09635678 -0.69617343 0.13603061
-0.09546100 -0.72700852 0.13027966
-0.09365079 -0.75737562 0.12381715
-0.09212395 -0.78716707 0.11648081
-0.09070988 -0.81774026 0.10831257
-0.08881094 -0.84809850 0.09947879
-0.08727817 -0.87860854 0.08988238
-0.08647338 -0.90812625 0.07963859
-0.08629728 -0.93903348 0.06767681
-0.08485809 -0.97117610 0.05443962
-0.08360228 -1.00187769 0.04140169
-0.08228404 -1.03298279 0.02804743
-0.08510855 -1.06216772 0.01524528
0.33062695 -0.12270165 0.00700142
0.30546306 -0.14611272 0.01797263
0.28109146 -0.16813414 0.03051794
0.25711619 -0.18998530 0.04277319
0.23420260 -0.21094684 0.05621937
0.21034925 -0.23136583 0.06974437
0.18730880 -0.25257974 0.08334723
0.16545892 -0.27514411 0.09738958
0.14430377 -0.29833551 0.11096787
0.12423390 -0.32262929 0.12407991
0.10570366 -0.34788185 0.13624004
0.08775488 -0.37374172 0.14741281
0.06934969 -0.39923928 0.15636250
0.05201737 -0.42550461 0.16387800
0.03581430 -0.45217126 0.16974892
0.02203030 -0.48007934 0.17525418
0.01089326 -0.50961000 0.18008833
0.00076879 -0.53926200 0.18319896
-0.01081219 -0.56857939 0.18307712
-0.02020995 -0.59711615 0.18211233
-0.02726312 -0.62859897 0.18185663
-0.03423458 -0.65941162 0.17916581
-0.04024259 -0.69044223 0.17501846
-0.04357346 -0.72147576 0.17003330
-0.04755129 -0.75219615 0.16244566
-0.04969293 -0.78332779 0.15397061
-0.05191978 -0.81427514 0.14346470
-0.05420638 -0.84534497 0.13072596
-0.05853459 -0.87717565 0.11587087
-0.06223592 -0.90976886 0.10068797
-0.06566853 -0.94028680 0.08477632
-0.06845477 -0.97186297 0.06918214
-0.07079266 -1.00502838 0.05214443
-0.07546497 -1.03353516 0.03452775
-0.08051250 -1.06416953 0.01459988
0.44919975 -0.64450597 0.04877863
0.47180295 -0.65499497 0.03043168
-0.61213123 -0.93971114 0.03892030
-0.59506855 -0.92209118 0.05023814
-0.56148523 -0.87562779 0.07311258
-0.52934072 -0.22420593 0.05844309
-0.51343642 -0.24116593 0.06626527
-0.62177543 -0.19662985 0.04139630
-0.03978689 -0.97117532 0.08527713
-0.02399069 -0.92215805 0.11283676
0.33321466 -0.65710316 0.14959952
0.32895480 -0.15241741 0.01057235
0.42541684 -0.65526468 0.07118828
0.46729973 -0.63341840 0.02453682
0.45829513 -0.60962898 0.02506047
-0.57889969 -0.89880647 0.06138696
-0.49080036 -0.25465986 0.07241931
-0.60627865 -0.21795607 0.05032377
-0.00446736 -0.93279386 0.10866234
0.00067550 -0.90140466 0.12784359
-0.02793196 -0.94742012 0.09941711
0.34129428 -0.68158402 0.13406858
0.43296937 -0.58691203 0.05567406
-0.04382807 -0.93359268 0.10011872
-0.04840778 -0.95231317 0.09001077
0.37229795 -0.66409203 0.11950085
0.30329524 -0.68097103 0.15926913
0.35472757 -0.67055764 0.13043501
0.35380091 -0.63892476 0.13959451
0.32070387 -0.69131723 0.14183906
-0.52326509 -0.82608392 0.09580197
-0.48700608 -0.70376219 0.12861838
-0.48658588 -0.52521655 0.13552084
-0.16937545 -0.91907195 0.08693843
-0.29365934 -0.81849282 0.12851719
-0.13537452 -0.97972961 0.06041394
-0.12416974 -1.00820629 0.04599746
-0.11284442 -0.86675994 0.09352744
-0.10871295 -0.89526522 0.08373047
-0.10562499 -0.92472990 0.07285001
-0.19082144 -0.59961083 0.14699532
-0.24512490 -0.50525816 0.14428431
-0.14185008 -0.73493079 0.12789867
-0.12229871 -0.80138749 0.11292878
-0.15992809 -0.67403236 0.13970485
-0.11730675 -0.83440789 0.10372502
-0.20533783 -0.83271160 0.11852073
-0.09712555 -0.95857887 0.06384507
-0.53512667 -0.32538350 0.09149763
-0.57019569 -0.26667104 0.07065818
-0.31789167 -0.40446921 0.12661352
-0.40782408 -0.31330089 0.09692803
-0.48716501 -0.38375775 0.11376568
-0.05542776 -0.42788786 0.13932265
-0.17827496 -0.37655728 0.11989621
-0.08220405 -0.33077990 0.10697779
-0.15527239 -0.34205158 0.10970065
-0.46024457 -0.27767887 0.08201256
-0.04981908 -0.48998973 0.15358291
-0.10893597 -1.02425250 0.03677419
-0.07276034 -0.83296180 0.12154473
-0.07340640 -0.80225135 0.13142152
-0.07263122 -0.71159809 0.15187029
-0.07249456 -0.74222777 0.14645449
-0.07401088 -0.77158301 0.13952218
-0.07387031 -0.86313351 0.10897968
-0.07164416 -0.89184405 0.09976672
0.01829347 -0.83771518 0.16237430
0.10310628 -0.75115255 0.20967053
-0.06650620 -0.65039203 0.15749981
-0.06154724 -0.58794547 0.16201956
0.11728190 -0.27137564 0.09340452
0.19276339 -0.21659314 0.06053646
0.21286270 -0.20956669 0.05632201
0.29677547 -0.25269649 0.05143255
-0.55968750 -0.84621748 0.07864946
-0.05227059 -0.98974527 0.07077092
0.30922401 -0.17614876 0.02314013
-0.55995470 -0.89440715 0.06835084
-0.53957302 -0.88616405 0.07557464
-0.52658403 -0.85773990 0.08785822
-0.58228637 -0.22182902 0.05505159
-0.56830598 -0.24133453 0.06309184
-0.59663264 -0.24772422 0.05981526
-0.59958362 -0.19702952 0.04441213
0.02295484 -0.88238681 0.13812538
0.42067814 -0.55839746 0.05588277
0.41781644 -0.62185375 0.08441168
0.36909467 -0.68123673 0.10610368
0.39441330 -0.66453251 0.09599282
0.25481761 -0.68512986 0.19543878
0.28630383 -0.69485664 0.16173712
0.27771481 -0.67552791 0.18485467
0.26354073 -0.70426872 0.17050577
0.29718117 -0.63995819 0.20182474
0.22890572 -0.70708846 0.19474149
0.29364005 -0.66197684 0.18211611
0.31075691 -0.64925711 0.17509348
0.25897130 -0.64507609 0.22616395
0.32705274 -0.63510281 0.16819238
0.26336398 -0.66817824 0.20803109
0.23497411 -0.65986393 0.22887042
0.34927928 -0.59386182 0.16295725
0.34186023 -0.61725695 0.16148334
0.37646446 -0.61927997 0.12243848
0.30689938 -0.59584605 0.21141330
0.32495182 -0.61150206 0.18873754
0.30390219 -0.61815074 0.20741268
0.26400468 -0.59581318 0.24706875
0.27599907 -0.62079424 0.22704320
-0.55034957 -0.81726505 0.08599211
-0.49545553 -0.84093217 0.09868972
-0.50486659 -0.77066001 0.11244580
-0.51631752 -0.69850891 0.11580964
-0.29196545 -0.66734161 0.15192031
-0.41160783 -0.47620680 0.13823563
-0.51531651 -0.53018430 0.12070477
-0.18696942 -0.93746898 0.07914161
-0.15808102 -0.95342820 0.07243605
-0.20326962 -0.90634232 0.09331173
-0.19694172 -0.92348002 0.08555956
-0.14571336 -0.90645437 0.08740603
-0.27793310 -0.85145513 0.11743226
-0.24293713 -0.76321851 0.13771535
-0.30718309 -0.84321202 0.11881443
-0.12039575 -0.96445828 0.06060002
-0.13512536 -0.94723099 0.07077959
-0.12025733 -0.99025015 0.05305841
-0.22011135 -0.61054063 0.14828807
-0.14567272 -0.61919362 0.14206950
-0.15487140 -0.56024406 0.14374101
-0.26968669 -0.52403101 0.14588148
-0.16926991 -0.47042655 0.13736297
-0.28013815 -0.45549361 0.13736087
-0.11668769 -0.74391220 0.12664782
-0.14094423 -0.76284077 0.12227127
-0.12195338 -0.71316626 0.13229719
-0.16706545 -0.71364367 0.13551725
-0.16370183 -0.74751625 0.12920429
-0.14035059 -0.80951004 0.11385159
-0.10443277 -0.80446940 0.11250237
-0.19536300 -0.66435871 0.14435165
-0.17217225 -0.85077917 0.11048440
-0.19297243 -0.79839118 0.12557292
-0.52693830 -0.29474213 0.08412201
-0.56186510 -0.33492372 0.08536866
-0.59006275 -0.27744494 0.06680230
-0.56963216 -0.29858983 0.07742867
-0.54387572 -0.26899475 0.07431163
-0.35783563 -0.35349868 0.11181372
-0.35533669 -0.39376659 0.12293622
-0.34256017 -0.42393592 0.13037466
-0.42695985 -0.33039279 0.10179963
-0.40170569 -0.34974460 0.10895915
-0.43733528 -0.29981439 0.09131447
-0.46358155 -0.36284729 0.11018283
-0.08580921 -0.43128659 0.13530211
-0.14627807 -0.37512329 0.11950527
-0.22007432 -0.35088446 0.11262643
-0.09960331 -0.32144350 0.10322310
-0.10278551 -0.34372591 0.11088851
-0.09337206 -0.37214659 0.12031945
-0.05027140 -0.32213396 0.10511367
-0.13468307 -0.34029637 0.10920680
-0.18425505 -0.33185100 0.10661624
-0.47490650 -0.29018935 0.08602870
-0.44524760 -0.26296221 0.07632989
-0.42685802 -0.27819022 0.08308773
-0.07923994 -0.49453620 0.14653885
-0.05440884 -0.70377888 0.16551405
-0.06663065 -0.67906564 0.15859845
-0.05584222 -0.73465364 0.15991921
0.05642362 -0.83018152 0.16678561
0.09773093 -0.78521003 0.18744331
0.14134336 -0.74803770 0.20199465
-0.08850096 -0.64948129 0.14736077
-0.07835947 -0.62967453 0.15392844
-0.05374868 -0.62754144 0.16487892
-0.04914505 -0.64571470 0.17000422
-0.06829212 -0.60913156 0.15928377
-0.04215808 -0.60805533 0.17053251
-0.08590349 -0.58776459 0.15236488
-0.07388250 -0.55765482 0.15571282
0.14041281 -0.25150470 0.08223241
0.10915836 -0.25298711 0.07915457
0.08970949 -0.27156415 0.08974919
0.32621927 -0.24971094 0.02783816
0.30716435 -0.31637361 0.06846779
0.32961675 -0.18725106 0.01375088
0.30146476 -0.21449348 0.03582380
0.32644776 -0.21258616 0.01960418
0.31131631 -0.19648760 0.02609572
0.28970401 -0.18886395 0.03354738
0.31553626 -0.23096252 0.03156542
-0.51225931 -0.86984767 0.08607918
-0.54663624 -0.86176861 0.08136728
-0.01194921 -0.86357062 0.14454360
0.43743592 -0.56920748 0.03498412
0.43104762 -0.63757197 0.07120151
0.40504035 -0.64484930 0.09527783
0.20485173 -0.72386359 0.19286822
0.23676216 -0.72263220 0.17128066
0.23107448 -0.68426403 0.21153470
0.19001471 -0.66268335 0.23889906
0.20297864 -0.69165580 0.21952759
0.21344351 -0.66641628 0.23159197
0.20956049 -0.62211125 0.26400522
0.20600713 -0.64738211 0.25151282
0.16414787 -0.62566611 0.25869346
0.18263747 -0.64068142 0.25625088
0.14447510 -0.66920304 0.24190702
0.16663949 -0.65859559 0.24239638
0.16794766 -0.69745674 0.22598893
0.17603694 -0.67790929 0.23385213
0.37707654 -0.64060693 0.12323106
0.39136761 -0.58558282 0.10780138
0.35451871 -0.47798593 0.12099407
0.28444469 -0.60042049 0.22704682
0.28451806 -0.55788713 0.23009149
0.27616759 -0.57939854 0.23567045
0.24031202 -0.55924674 0.25375764
0.25687506 -0.57426242 0.24985335
0.22618953 -0.59085217 0.26610780
0.24667778 -0.61899597 0.25239578
-0.54147500 -0.83614887 0.08778834
-0.48514233 -0.85537801 0.09497700
-0.53277506 -0.76170468 0.10170459
-0.50695391 -0.73399701 0.11739800
-0.49573655 -0.65791825 0.12895433
-0.26214620 -0.65716159 0.14929916
-0.30367648 -0.61561687 0.15310415
-0.38624429 -0.45716598 0.13532170
-0.44758455 -0.42816122 0.12740249
-0.37430862 -0.52417877 0.14644326
-0.53175223 -0.53566776 0.11152568
-0.17181771 -0.96530073 0.06571999
-0.22776061 -0.89434589 0.10006566
-0.28768910 -0.86793852 0.10895250
-0.26403290 -0.86988937 0.11031890
-0.24192319 -0.84121127 0.12059955
-0.25811792 -0.85231006 0.11789610
-0.23747194 -0.86981958 0.11080530
-0.26489159 -0.82472782 0.12674725
-0.21662977 -0.74570543 0.13626534
-0.28972055 -0.83661957 0.12254933
-0.34239410 -0.80659183 0.13068378
-0.13949901 -0.92679815 0.07923083
-0.23703306 -0.61697061 0.14799687
-0.23060435 -0.57719977 0.14848767
-0.12281421 -0.61985957 0.14142044
-0.12989398 -0.58861915 0.14236252
-0.13543375 -0.65185823 0.13949319
-0.11954040 -0.63803256 0.14054809
-0.12654940 -0.55871771 0.14260082
-0.28441884 -0.53469932 0.14670419
-0.28827113 -0.49926550 0.14344812
-0.14248101 -0.49878708 0.13969656
-0.13778034 -0.46798746 0.13678037
-0.14791212 -0.77906866 0.11877842
-0.11580913 -0.77375808 0.12008387
-0.18402865 -0.72386051 0.13419549
-0.18573939 -0.70323535 0.13812153
-0.14220659 -0.71388428 0.13164737
-0.13881965 -0.68759571 0.13546792
-0.15719361 -0.69578066 0.13678036
-0.21439867 -0.67175949 0.14344153
-0.21234105 -0.64873577 0.14585365
-0.18386709 -0.63307338 0.14583416
-0.15350353 -0.84477837 0.10643977
-0.16908080 -0.82623242 0.11662084
-0.15743608 -0.86963125 0.10154230
-0.18580045 -0.83648174 0.11627440
-0.19851249 -0.86374358 0.10886233
-0.17375221 -0.78995260 0.12363883
-0.19266471 -0.77378023 0.12909539
-0.22152041 -0.78679681 0.13072731
-0.50257070 -0.31422268 0.09269934
-0.51226935 -0.28209379 0.08138270
-0.55150204 -0.36441271 0.09470666
-0.58427844 -0.30960357 0.07276384
-0.55561161 -0.31501451 0.08386102
-0.55757948 -0.28284239 0.07744971
-0.38065398 -0.37330249 0.11659727
-0.37253288 -0.40679364 0.12508625
-0.35701071 -0.43442739 0.13164965
-0.32334039 -0.44884595 0.13584116
-0.41571781 -0.36213126 0.11149324
-0.45313017 -0.31269033 0.09475551
-0.44992382 -0.35098588 0.10687978
-0.44184976 -0.38484569 0.11721494
-0.10390634 -0.43346875 0.13357965
-0.12856061 -0.37344688 0.11885625
-0.21682233 -0.32557653 0.10410622
-0.24950091 -0.32899184 0.10511434
-0.20296146 -0.34036302 0.10927908
-0.19963830 -0.36441462 0.11659831
-0.17967256 -0.35422075 0.11357054
-0.23526011 -0.39756279 0.12508823
-0.20301136 -0.39672714 0.12492820
-0.22144655 -0.37628131 0.11999892
-0.25176089 -0.36201335 0.11579093
-0.05411511 -0.30389232 0.09687204
-0.06937460 -0.31584413 0.10154681
-0.03470664 -0.30916110 0.10043104
-0.01872759 -0.34645048 0.11827051
-0.16609878 -0.32510666 0.10384001
-0.09785330 -0.49561943 0.14289005
-0.07780439 -0.52488046 0.14950188
-0.08454034 -0.46271979 0.14109437
-0.04832627 -0.67255444 0.17103556
-0.08608172 -0.67918797 0.14418523
0.07171035 -0.84325232 0.15923462
0.07985499 -0.81747256 0.17023527
0.04691994 -0.85606462 0.15480348
0.11041579 -0.80033579 0.17167184
0.12216077 -0.77687999 0.18652563
0.15474049 -0.76101963 0.18499171
0.16692524 -0.74003571 0.19775361
-0.09195999 -0.55673801 0.14694601
0.14055082 -0.27484736 0.09734551
0.16421402 -0.23919725 0.07539224
0.10371045 -0.29889896 0.10959320
0.33875706 -0.30919500 0.03576992
0.31505688 -0.28195063 0.04838865
0.00214230 -0.88073827 0.13940424
0.01478790 -0.86023390 0.15116979
-0.02690962 -0.88927871 0.12899082
0.18729866 -0.70934946 0.21278709
0.41223311 -0.57730499 0.07758020
0.39551791 -0.56379854 0.10218714
0.41138164 -0.59885221 0.08558984
0.40740978 -0.52934186 0.07033377
0.36550736 -0.57211432 0.14856420
0.38588002 -0.46949581 0.06375645
0.24413155 -0.59853899 0.26147733
-0.54159906 -0.78963738 0.09466052
-0.50409689 -0.71395050 0.12055223
-0.52488542 -0.71884687 0.10964650
-0.48370836 -0.72773668 0.12695025
-0.52669105 -0.74075103 0.10699631
-0.48964793 -0.75180757 0.12116585
-0.43953609 -0.70900340 0.14098236
-0.45984457 -0.79074932 0.12017762
-0.46398652 -0.71242471 0.13551586
-0.48020968 -0.77538940 0.11909422
-0.45215970 -0.74788904 0.13180159
-0.45719328 -0.67203454 0.14129769
-0.49736520 -0.80405170 0.10822442
-0.44963516 -0.72715833 0.13613008
-0.41164268 -0.74354144 0.13974706
-0.42707455 -0.72720472 0.14035113
-0.47157373 -0.74336624 0.12801797
-0.45915113 -0.76872303 0.12579912
-0.42148381 -0.78163005 0.13013232
-0.43626127 -0.76437310 0.13141814
-0.46886092 -0.69090110 0.13631059
-0.47885781 -0.67186983 0.13403578
-0.46779729 -0.64134295 0.13936157
-0.50036545 -0.68129629 0.12486268
-0.47942911 -0.79510959 0.11481754
-0.47578219 -0.82208704 0.10827001
-0.38936466 -0.70511199 0.14766278
-0.52055524 -0.66490732 0.11643575
-0.40500594 -0.72163120 0.14404564
-0.51442904 -0.63696477 0.12162158
-0.36667346 -0.74411255 0.14398565
-0.41531701 -0.69501523 0.14660046
-0.38283476 -0.72752054 0.14551149
-0.34384092 -0.70444347 0.15077503
-0.36659864 -0.71070090 0.14864554
-0.36743437 -0.66439995 0.15221609
-0.37278526 -0.68777601 0.15037203
-0.39767696 -0.66947803 0.15102995
-0.24522047 -0.65169071 0.14700248
-0.27029606 -0.62854142 0.15067614
-0.25239569 -0.69007991 0.14708260
-0.29860013 -0.58200152 0.15188863
-0.37225125 -0.44597499 0.13342371
-0.40406950 -0.43227568 0.12962490
-0.36685732 -0.48053192 0.14010272
-0.33894737 -0.53621545 0.14838654
-0.25058552 -0.88375444 0.10436711
-0.27215664 -0.78785674 0.13622017
-0.20215378 -0.73573122 0.13448065
-0.33130157 -0.83057111 0.12209601
-0.15675903 -0.93377665 0.07981645
-0.24843812 -0.58613768 0.14811425
-0.24869823 -0.56405567 0.14787893
-0.21349190 -0.53741867 0.14584288
-0.22814798 -0.55483809 0.14755527
-0.19946939 -0.56936402 0.14721334
-0.23980818 -0.53154224 0.14657742
-0.11121371 -0.58799349 0.14348720
-0.13167874 -0.52905889 0.14169678
-0.14071249 -0.57233372 0.14284943
-0.16658310 -0.58723224 0.14428073
-0.26672757 -0.50183780 0.14392246
-0.25004626 -0.47192087 0.13970579
-0.27500939 -0.47907319 0.14092406
-0.30477316 -0.47340083 0.14082322
-0.12157640 -0.49692962 0.14012117
-0.11999108 -0.46586367 0.13701024
-0.13932084 -0.43761685 0.13247433
-0.11554520 -0.68293569 0.13703942
-0.13944318 -0.66970346 0.13774786
-0.15647580 -0.65177770 0.14112523
-0.16757823 -0.89314860 0.09658517
-0.18234303 -0.90424243 0.09344240
-0.18880525 -0.88337068 0.10167395
-0.20998461 -0.88367478 0.10266191
-0.14751148 -0.88615570 0.09356152
-0.21978493 -0.85215218 0.11437872
-0.23851623 -0.81118426 0.12775571
-0.52121207 -0.31237906 0.08992307
-0.51355063 -0.33044188 0.09582385
-0.52980696 -0.34899658 0.09771738
-0.48595524 -0.34173326 0.10245696
-0.52513255 -0.38583463 0.10421568
-0.39494847 -0.38459112 0.11856726
-0.33868187 -0.45936307 0.13697769
-0.32018041 -0.42656478 0.13158175
-0.30038162 -0.44148880 0.13498892
-0.26909741 -0.41740407 0.12978739
-0.28070227 -0.43446614 0.13343558
-0.25491266 -0.44420680 0.13506830
-0.29395323 -0.41245270 0.12869341
-0.27579408 -0.38503425 0.12181647
-0.46470227 -0.38488420 0.11610716
-0.47707228 -0.41571868 0.12205742
-0.45317728 -0.40530974 0.12199072
-0.42359516 -0.40944071 0.12401669
-0.16056252 -0.36035322 0.11532070
-0.06195236 -0.50864729 0.15277386
-0.04882498 -0.53709002 0.16368051
-0.03990262 -0.51369594 0.16323998
-0.02276383 -0.53351634 0.17086936
-0.01687676 -0.49020106 0.16559068
-0.03209066 -0.55622765 0.17059766
-0.06800127 -0.47561911 0.14641796
-0.03582300 -0.45826318 0.15079739
-0.06061894 -0.45215099 0.14370761
0.04533019 -0.78116125 0.19416316
0.03838983 -0.83833954 0.16325441
0.03606194 -0.80956348 0.18034364
0.03910185 -0.87140928 0.14259130
0.10567186 -0.76933891 0.19788711
0.07341168 -0.76111795 0.20587251
0.18720525 -0.73666758 0.19086863
0.14247988 -0.71699878 0.22076595
0.15894957 -0.25666064 0.08679741
0.18269717 -0.23300492 0.07144880
0.12447728 -0.30173635 0.11258812
0.05530774 -0.30625067 0.10698025
0.09985191 -0.32327792 0.12383685
0.08083839 -0.30803738 0.11246766
0.07220296 -0.34233876 0.13037495
0.07080843 -0.28673214 0.09730823
0.06642278 -0.32238666 0.11879267
0.02882607 -0.33540633 0.11899228
0.04435941 -0.28373885 0.09403288
0.01537078 -0.30334242 0.10290405
0.03559665 -0.30163947 0.10435960
0.33088961 -0.35189920 0.06340925
0.31309749 -0.26275253 0.04350941
0.29467143 -0.27437820 0.06047835
0.33460895 -0.26924854 0.02704311
0.25515664 -0.25987132 0.07415938
0.27704578 -0.26168601 0.06550892
0.27515574 -0.23004219 0.05436367
0.26169949 -0.30230649 0.09106454
0.27452997 -0.28386700 0.07636084
0.28506972 -0.30605430 0.07977565
0.26839135 -0.34930349 0.11684073
0.28667861 -0.33393863 0.09437067
0.32096737 -0.30048889 0.05057599
-0.03617381 -0.86868818 0.13305037
-0.02706341 -0.84274174 0.14751427
0.42045653 -0.53830103 0.04263252
0.37385106 -0.54072256 0.13371928
0.36956495 -0.43726225 0.06393388
0.39631433 -0.49643042 0.06491678
-0.53286225 -0.80801301 0.09521875
-0.51857461 -0.78964638 0.10421301
-0.49150103 -0.63427854 0.13214136
-0.46720022 -0.59425622 0.14084793
-0.50647478 -0.59884435 0.12615058
-0.47381976 -0.61758930 0.13870487
-0.50507687 -0.61904726 0.12671163
-0.42554328 -0.61866717 0.14953236
-0.48639080 -0.60128188 0.13514755
-0.49053413 -0.56332601 0.13269203
-0.44890144 -0.61163947 0.14495273
-0.44359590 -0.63593944 0.14596656
-0.42457285 -0.56956541 0.14836476
-0.41561420 -0.64609841 0.15000137
-0.44293576 -0.58702690 0.14600319
-0.41785871 -0.59408268 0.15037321
-0.45661029 -0.55571058 0.14221846
-0.38152808 -0.61849364 0.15259055
-0.37869598 -0.56985783 0.15083459
-0.45886497 -0.57568218 0.14255810
-0.40361504 -0.61149387 0.15199234
-0.40159811 -0.57665182 0.15091827
-0.39777287 -0.63322754 0.15191313
-0.37506860 -0.64198163 0.15276250
-0.38379352 -0.59423502 0.15197797
-0.39738551 -0.54600852 0.14889938
-0.33421185 -0.63983117 0.15378060
-0.34061015 -0.59179162 0.15281606
-0.35607425 -0.62480574 0.15392695
-0.35397499 -0.64808695 0.15349767
-0.33609593 -0.67414176 0.15306995
-0.36376682 -0.58664680 0.15253482
-0.33285694 -0.61509771 0.15361800
-0.36437062 -0.60667862 0.15337227
-0.34604090 -0.56419892 0.15103510
-0.43672824 -0.68483873 0.14441864
-0.43591947 -0.65997182 0.14649992
-0.41894654 -0.67306872 0.14823876
-0.39770352 -0.68828208 0.14909330
-0.27814989 -0.60234488 0.15106210
-0.28151163 -0.64745183 0.15149030
-0.30796263 -0.64630111 0.15328434
-0.23519194 -0.68203425 0.14453252
-0.23584432 -0.70325244 0.14362099
-0.27003790 -0.72819253 0.14573419
-0.25596684 -0.71146596 0.14616349
-0.28207371 -0.69615985 0.14976112
-0.24274572 -0.73571776 0.14164907
-0.28328126 -0.57135630 0.14959302
-0.30164932 -0.56151974 0.15028864
-0.32253313 -0.57396967 0.15189444
-0.32203848 -0.55122256 0.14993957
-0.40836306 -0.45420401 0.13419957
-0.42617838 -0.43911623 0.13068337
-0.45711598 -0.47253084 0.13496545
-0.44542342 -0.45154489 0.13216438
-0.47042495 -0.44199144 0.12730944
-0.43446205 -0.47161506 0.13621000
-0.51565981 -0.44099414 0.11781482
-0.44290849 -0.51409896 0.14119099
-0.49191149 -0.43402125 0.12180424
-0.44406107 -0.49166725 0.13831919
-0.50516292 -0.40738027 0.11418129
-0.49382012 -0.47120393 0.12559385
-0.47379319 -0.49782567 0.13539532
-0.41960910 -0.50153653 0.14191786
-0.48737681 -0.45327362 0.12540913
-0.38940513 -0.47930567 0.13941161
-0.38020784 -0.50105297 0.14316218
-0.34971834 -0.50687167 0.14444837
-0.39988288 -0.49645668 0.14218339
-0.40385618 -0.52151547 0.14573798
-0.42577637 -0.54060112 0.14588548
-0.32219543 -0.52366243 0.14679891
-0.27608688 -0.80791246 0.13166311
-0.29785668 -0.79246650 0.13597163
-0.31746277 -0.80960810 0.13079879
-0.32646765 -0.78079956 0.13892889
-0.35664690 -0.82708399 0.12164548
-0.34673655 -0.84354958 0.11522205
-0.38161139 -0.79534673 0.13036319
-0.36416277 -0.80743706 0.12842833
-0.35475252 -0.78153729 0.13727879
-0.38685108 -0.82187832 0.12045814
-0.25988306 -0.54435265 0.14718152
-0.14216266 -0.54574918 0.14250832
-0.15960443 -0.52245898 0.14214754
-0.17535695 -0.56699174 0.14459297
-0.17240428 -0.54332843 0.14380387
-0.19166817 -0.51801084 0.14287824
-0.16881766 -0.61117158 0.14435775
-0.32240173 -0.46712061 0.13881709
-0.30497947 -0.49150029 0.14252847
-0.15444813 -0.45374187 0.13489701
-0.17345890 -0.42051108 0.12974880
-0.18041551 -0.44643102 0.13422621
-0.22690057 -0.82867719 0.12188268
-0.24544881 -0.78780206 0.13365437
-0.25696642 -0.80452769 0.13132248
-0.48520396 -0.36293489 0.10827184
-0.50764173 -0.35384142 0.10237838
-0.52216975 -0.36742463 0.10220315
-0.46749026 -0.34487608 0.10462033
-0.48630530 -0.32367593 0.09680990
-0.24398991 -0.42119166 0.13027528
-0.21772803 -0.44794340 0.13498770
-0.23571031 -0.43926074 0.13373233
-0.21576889 -0.42064943 0.12998280
-0.40952330 -0.39791798 0.12117218
0.06103265 -0.80192158 0.18410910
-0.00191168 -0.77776210 0.18456433
0.34656553 -0.33177968 0.03443430
0.32380341 -0.33045856 0.06003567
0.30562501 -0.34543775 0.08582143
0.30887016 -0.39494428 0.11068574
0.31423206 -0.36814412 0.09094220
0.28796336 -0.36643672 0.11176801
0.34777584 -0.38508510 0.06088692
0.33544261 -0.37225450 0.06993529
0.35940016 -0.36758766 0.03222644
0.34033894 -0.28878985 0.02579001
0.28079382 -0.20895913 0.04381785
0.25766937 -0.21389622 0.05323930
0.24320966 -0.23587059 0.06725533
0.26468021 -0.32601749 0.10322968
0.21779902 -0.32003091 0.11759610
0.24207904 -0.31650078 0.10752142
0.23391060 -0.28480224 0.09373224
0.23403870 -0.34894584 0.13162319
-0.00549432 -0.83938078 0.15715321
0.00055271 -0.81140460 0.17398575
0.32741592 -0.55367070 0.19291642
0.36458991 -0.45736453 0.09272538
0.32096447 -0.44083602 0.13267501
0.33459838 -0.46365424 0.13476064
0.34688039 -0.44515616 0.10664318
0.35179561 -0.41535301 0.07595162
0.28485612 -0.47397803 0.18717062
0.31589199 -0.50107216 0.18093877
0.30695295 -0.46381493 0.16176171
0.33050766 -0.48456080 0.15658471
0.34531424 -0.51422946 0.15960633
0.38431431 -0.44920877 0.04407471
0.37538661 -0.49285624 0.10073476
0.37767731 -0.51776432 0.11582645
-0.37457436 -0.54722479 0.14897156
-0.35803315 -0.53547043 0.14803739
-0.32555551 -0.65737491 0.15344976
-0.31304244 -0.67733492 0.15250616
-0.29420822 -0.63255291 0.15263010
-0.31824667 -0.62903013 0.15369936
-0.27042053 -0.67754857 0.15001865
-0.22329760 -0.72443442 0.13970707
-0.31770427 -0.59692121 0.15301636
-0.50559476 -0.38920124 0.11062466
-0.53308794 -0.41364174 0.10464238
-0.46457153 -0.51843314 0.13826603
-0.46983898 -0.53901810 0.13819227
-0.47639893 -0.47848326 0.13237732
-0.50566855 -0.50050732 0.12383409
-0.33508539 -0.49555942 0.14277389
-0.44734903 -0.53569849 0.14252027
-0.43771154 -0.55532980 0.14541749
-0.29086755 -0.75671620 0.14333347
-0.34049102 -0.75599082 0.14383657
-0.37936416 -0.76864661 0.13782796
-0.40643277 -0.80517131 0.12485898
-0.38068351 -0.83899930 0.11362872
-0.16973337 -0.49786681 0.14048778
-0.19155875 -0.53915790 0.14440915
-0.21759284 -0.50908508 0.14356824
-0.19870736 -0.47006576 0.13792426
-0.19923780 -0.43545806 0.13263051
0.08032287 -0.79642267 0.18449024
0.06518377 -0.78010746 0.19498169
0.02102145 -0.78639586 0.18857086
0.02315489 -0.74648983 0.20308779
0.01548545 -0.76648244 0.19471560
-0.00972393 -0.74713880 0.18960155
0.25051796 -0.39173974 0.14930899
0.34231399 -0.56974604 0.17742295
0.34728925 -0.54729263 0.17074053
0.32089851 -0.57638284 0.20116745
0.30619023 -0.55965278 0.21303991
0.31021370 -0.52996571 0.20089892
0.37284422 -0.41840891 0.04184188
0.36763121 -0.39851719 0.03532402
0.33047235 -0.40389520 0.09447799
0.30706991 -0.42038577 0.13159666
0.28001365 -0.40537348 0.14152832
0.30367102 -0.48392494 0.18006984
0.27904166 -0.51106877 0.21207388
-0.54773955 -0.39173452 0.09961316
-0.54115025 -0.43561956 0.10233265
-0.51660944 -0.42263334 0.11332743
-0.48974388 -0.50744151 0.13260113
-0.28707312 -0.77537288 0.13956184
-0.26661530 -0.76328061 0.14068960
-0.30772184 -0.77043463 0.14149624
-0.31537863 -0.74294686 0.14680043
-0.34527426 -0.73042356 0.14778953
-0.39960515 -0.78007079 0.13326128
-0.39679207 -0.75918928 0.13852036
-0.43533530 -0.80654583 0.11993002
-0.22730323 -0.48496601 0.14096580
-0.19678884 -0.49469338 0.14084327
-0.19374085 -0.41550371 0.12894360
-0.17886345 -0.39885749 0.12534052
-0.15083137 -0.40341695 0.12612353
0.26497492 -0.37474759 0.12907842
0.24257494 -0.37067602 0.13747290
0.19955978 -0.37985668 0.15626513
0.22405675 -0.38986337 0.15755180
0.33064917 -0.53190760 0.18437134
0.28028342 -0.44090565 0.16428288
0.30118952 -0.43939399 0.14864898
0.29956273 -0.51238279 0.19995435
0.28789983 -0.53221231 0.21950014
0.25616590 -0.53172350 0.23507342
-0.26001371 -0.74447324 0.14261252
-0.29403800 -0.73270181 0.14697115
-0.31622132 -0.71343725 0.15018124
-0.44029683 -0.78713708 0.12484107
-0.45664217 -0.81177306 0.11476280
-0.45579912 -0.83510771 0.10669777
-0.41942216 -0.82917436 0.11465374
-0.21785156 -0.46795771 0.13814108
-0.16159226 -0.38709001 0.12242777
-0.15340219 -0.42323996 0.13001875
-0.13076980 -0.40529354 0.12660418
0.21844745 -0.36853313 0.14465056
0.20912899 -0.34435931 0.13454566
0.17863649 -0.31980655 0.12400766
0.19797794 -0.32696428 0.12586594
0.19854113 -0.29462608 0.10738859
0.17788190 -0.35253171 0.14331599
0.28978617 -0.45693945 0.16925520
0.26516683 -0.45925144 0.18566498
0.24588036 -0.43119841 0.17541724
0.25383415 -0.48845965 0.21076082
0.26175938 -0.43820977 0.17278371
0.23903552 -0.45484270 0.19697305
-0.32698524 -0.72834828 0.14881458
-0.29536117 -0.71196446 0.14927376
-0.32512983 -0.69436418 0.15182842
-0.43936497 -0.82495526 0.11282938
0.23558073 -0.40946757 0.16599323
0.19561994 -0.42058281 0.18290412
0.21977213 -0.43198373 0.18511216
0.21387774 -0.40902710 0.17199326
0.25695963 -0.51046947 0.22234505
0.21530378 -0.50675135 0.23342088
0.23489437 -0.52095157 0.23678625
0.23525909 -0.50008849 0.22327602
0.23390331 -0.47730120 0.20842770
0.20226223 -0.54530677 0.25636040
0.19866207 -0.46668110 0.21202194
0.21395380 -0.52791793 0.24534419
0.18105750 -0.51496137 0.24039511
0.22319392 -0.54626417 0.25472596
0.20942520 -0.56991517 0.26463123
0.21782764 -0.46223902 0.20723703
0.20701348 -0.48715848 0.21907934
0.17969236 -0.49004326 0.22213298
0.19849373 -0.44210659 0.19637340
0.15545425 -0.43802695 0.19554874
0.17737761 -0.45309618 0.20467270
0.17494183 -0.42900962 0.19041241
0.14921441 -0.47031229 0.21204575
0.17266679 -0.39718294 0.16963031
0.15630904 -0.57155572 0.25810622
0.19848121 -0.59604699 0.26833532
0.15381693 -0.50314138 0.22713047
0.18277807 -0.56363192 0.26247142
0.18596856 -0.61728871 0.26678247
0.17138313 -0.59487387 0.26475833
0.16140223 -0.48621471 0.22061354
0.09262288 -0.49217945 0.20900204
0.15234402 -0.53656449 0.24563659
0.18553347 -0.58243351 0.26605632
0.13458546 -0.60258669 0.25289557
0.12371220 -0.48803444 0.21658092
0.16541385 -0.55279002 0.25504387
0.16253675 -0.52042454 0.24022034
0.14000039 -0.51938516 0.23340145
0.11178177 -0.55439430 0.23922678
0.12917928 -0.53944413 0.23953064
0.10832796 -0.51825217 0.22398639
0.13392716 -0.56316623 0.24910104
0.11314997 -0.58278121 0.24630962
0.13958489 -0.58316341 0.25406976
0.14216093 -0.48698809 0.21879578
0.12401145 -0.50742392 0.22371669
0.05730315 -0.53001995 0.20833504
0.08764884 -0.63220630 0.24155902
0.08087035 -0.51656427 0.21398396
0.07192914 -0.57032618 0.22814871
0.10748200 -0.61079329 0.24504324
0.05705455 -0.49050827 0.19395720
0.09283208 -0.53832137 0.22647686
0.09076577 -0.56000975 0.23288933
0.08821479 -0.59197469 0.23846099
0.12129789 -0.64305367 0.24732560
0.07399258 -0.49820969 0.20431729
0.07542273 -0.47247724 0.19371794
0.10468640 -0.46276847 0.20089710
0.05305434 -0.46716666 0.18380242
0.07057063 -0.44495886 0.18040046
0.04122240 -0.61067511 0.22149276
0.10678872 -0.63031394 0.24573827
0.09949967 -0.65233227 0.24389548
0.12753840 -0.62231419 0.24824239
0.14435163 -0.63772389 0.24744094
0.05467218 -0.66407152 0.23163731
0.11898693 -0.66795842 0.24340222
0.07617276 -0.65271802 0.23749332
0.13057644 -0.69243308 0.23398963
0.06095605 -0.63004417 0.23228625
0.08548329 -0.69188003 0.23332106
0.14976765 -0.68907232 0.23361612
0.10798773 -0.68799969 0.23551072
0.08832585 -0.67043410 0.23784413
0.10153591 -0.71707244 0.22481014
0.12145619 -0.71154886 0.22615262
0.11921482 -0.73477741 0.21577481
0.10673477 -0.48100001 0.20863452
0.12665039 -0.46649627 0.20656265
0.12093952 -0.43321763 0.18700971
0.05206399 -0.44350877 0.17340221
0.08737009 -0.45648942 0.19032394
0.09348397 -0.42876678 0.17931836
0.06249974 -0.59460867 0.22925249
0.03088250 -0.56722952 0.20586789
0.07762913 -0.61193287 0.23723731
0.04025074 -0.58792392 0.21676820
0.01080909 -0.58965895 0.19966826
0.02719607 -0.64223696 0.21758735
0.06313582 -0.72428489 0.22100304
0.10555696 -0.44454248 0.18967904
0.11223611 -0.39788299 0.16721606
0.00966296 -0.56852527 0.19410591
-0.00636128 -0.58650228 0.18852703
-0.00158010 -0.60510501 0.19512782
0.01898469 -0.60969750 0.20904597
0.00369725 -0.63090631 0.20261402
0.04165278 -0.62983815 0.22380967
0.08460904 -0.73534618 0.21989589
0.08093764 -0.71278915 0.22533206
0.05992669 -0.69754969 0.22610298
0.10954965 -0.41739720 0.17696294
0.13428963 -0.41216286 0.17727336
0.09056072 -0.40512317 0.16644267
0.14212047 -0.37547802 0.15801355
0.13135436 -0.39220073 0.16648620
0.15196099 -0.40059216 0.17192447
0.11658999 -0.37057094 0.15253564
0.00123342 -0.66825126 0.20349122
0.06917296 -0.67953330 0.23309097
0.03119936 -0.71609716 0.21481435
0.00896998 -0.65022410 0.20742659
-0.01350205 -0.64710608 0.19353783
0.02819344 -0.66981572 0.21883429
0.01326417 -0.69357175 0.20981117
0.04540308 -0.68270523 0.22468831
-0.01333450 -0.69046522 0.19396168
0.00138489 -0.72056876 0.20032970
0.03245236 -0.69718740 0.21787752
-0.01907249 -0.67105856 0.19110941
0.00700962 -0.73777128 0.19949842
-0.02131843 -0.72649615 0.18600793
-0.02996603 -0.74451979 0.17740926
-0.02726772 -0.77013328 0.17373330
-0.02615444 -0.70646706 0.18426499
-0.02501773 -0.79904450 0.16774628
-0.02134411 -0.82031547 0.16261113
0.23877869 -0.19290608 0.04556695
-0.38725124 -0.29360191 0.08983517
-0.40680994 -0.28544189 0.08640809
-0.37582812 -0.32520119 0.10220823
-0.41916783 -0.29872572 0.09128013
-0.38897277 -0.31192561 0.09703912
-0.36842953 -0.30516507 0.09468546
-0.34458550 -0.32444553 0.10213217
-0.34900428 -0.29424314 0.09037927
-0.00290658 -0.41178295 0.14685254
-0.46906331 -0.25808424 0.07389726
0.43641163 -0.61004966 0.05918860
-0.51463729 -0.84280606 0.09479304
-0.33806252 -0.40417363 0.12607273
-0.32702319 -0.37024226 0.11741862
-0.09055482 -0.40192988 0.12824374
-0.07235968 -0.41413657 0.13315632
-0.03759668 -0.38868300 0.13096261
-0.05178388 -0.40555918 0.13395926
-0.02916301 -0.42058213 0.14223398
-0.06598583 -0.38049619 0.12470499
-0.02183245 -0.40069302 0.13740907
0.00918356 -0.37387374 0.13511773
-0.01499978 -0.37630006 0.13001212
-0.03747986 -0.43818667 0.14531290
-0.00692484 -0.44397757 0.15512461
-0.04524260 -0.36009049 0.12020485
-0.07372610 -0.35489127 0.11598288
-0.06288511 -0.33781544 0.11056042
-0.03844119 -0.33977913 0.11306308
0.36900976 -0.59718259 0.13661217
0.22648906 -0.61101227 0.26313830
0.22912399 -0.63453407 0.25360046
-0.21124663 -0.58939152 0.14891005
-0.15240726 -0.48143095 0.13823527
-0.18248719 -0.68169347 0.14119135
-0.22101451 -0.63054049 0.14724596
-0.20015013 -0.61887901 0.14726358
-0.20058272 -0.75608772 0.13244610
-0.21814257 -0.76643910 0.13366399
-0.56658342 -0.37051279 0.08615608
-0.54564105 -0.29820056 0.08246580
-0.36082651 -0.37391155 0.11758453
-0.37951049 -0.35138962 0.11067876
-0.24667035 -0.31039499 0.09815378
-0.28306321 -0.32487776 0.10325948
-0.23959795 -0.34643551 0.11109796
0.12331375 -0.75719859 0.20141077
-0.04710128 -0.89584585 0.11668619
-0.50371584 -0.82275520 0.10211450
-0.14975707 -0.59969824 0.14300885
-0.16324293 -0.63235869 0.14298619
-0.17725866 -0.65301628 0.14374071
-0.25768853 -0.39765877 0.12503294
-0.06724602 -0.53957885 0.15619687
-0.01220695 -0.51314956 0.17114211
0.00395640 -0.49052435 0.17177933
0.00401813 -0.46606812 0.16528908
0.01427350 -0.44761864 0.16247818
-0.01726919 -0.46909825 0.15958444
-0.05261683 -0.56689329 0.16446517
-0.03744683 -0.58461746 0.17122429
0.16297504 -0.71958384 0.21396226
0.08765657 -0.35427319 0.13778593
0.06870779 -0.36304404 0.13956032
0.04923925 -0.34868273 0.13084484
0.02813011 -0.35996450 0.13221245
0.00776901 -0.34942394 0.12252773
0.03638555 -0.39401194 0.14767283
0.01034830 -0.32525335 0.11378774
-0.00917844 -0.30948682 0.10192626
-0.02168296 -0.32576292 0.10859093
0.01046753 -0.28578055 0.09117466
0.29459289 -0.23292660 0.04566627
0.39335818 -0.54588830 0.10294371
0.40914895 -0.51102762 0.04653111
-0.52777320 -0.59956234 0.11278564
-0.51975407 -0.57764345 0.11835254
-0.49994497 -0.54306461 0.13162787
-0.35283677 -0.68602114 0.15186109
-0.52961248 -0.46809971 0.11397396
-0.53024730 -0.44958033 0.11124384
-0.52870676 -0.49202873 0.11547150
-0.51356013 -0.47843555 0.12258154
-0.21474620 -0.80846725 0.12537908
0.25393516 -0.28051359 0.08419335
0.22279516 -0.25822740 0.08222536
0.20590084 -0.25016179 0.08036305
0.19956913 -0.27180970 0.09369098
0.23841504 -0.26699943 0.08285048
0.01859720 -0.81729463 0.17451785
0.04811612 -0.75343940 0.20713221
0.03885521 -0.73477189 0.21222581
0.33228604 -0.59400471 0.18690439
0.29792318 -0.57793200 0.22040855
0.28927695 -0.38759464 0.12165215
0.26295027 -0.55280694 0.23990265
-0.23517108 -0.45870876 0.13715931
0.16771121 -0.29843878 0.11234331
0.15182242 -0.32512432 0.12794338
0.13663041 -0.34783343 0.14093913
0.16810324 -0.33514669 0.13449148
0.15688692 -0.35307045 0.14482304
0.16876134 -0.37377886 0.15691313
0.21863729 -0.29902208 0.10571422
0.19623976 -0.35981646 0.14503466
0.25845750 -0.41089488 0.15736570
0.27420535 -0.49188173 0.20406298
0.19313936 -0.40030500 0.17007824
0.15477253 -0.60762548 0.25944027
0.18149301 -0.53798546 0.25113987
0.02829503 -0.53297761 0.19500905
0.01825815 -0.55046707 0.19448108
0.04513639 -0.54933268 0.20842846
0.04067338 -0.51038426 0.19398007
0.06008687 -0.51139817 0.20327665
0.03770448 -0.49162148 0.18666284
0.07174475 -0.54721072 0.22130583
0.13714054 -0.44761561 0.19853621
0.07306468 -0.42034524 0.16932937
-0.35975487 -0.33505531 0.10581205
-0.31745811 -0.31361159 0.09862353
-0.33559334 -0.30768161 0.09599759
-0.32087375 -0.34196320 0.10868107
-0.29825428 -0.31293586 0.09856722
-0.30240292 -0.33312090 0.10593554
-0.29977902 -0.36110205 0.11500030
-0.33981743 -0.34346096 0.10878131
-0.30762147 -0.38385868 0.12139528
-0.29190034 -0.39370581 0.12405836
-0.26493954 -0.31759324 0.10077574
-0.26855287 -0.34396824 0.11004615
-0.28781196 -0.34572271 0.11032368
-0.27671858 -0.36355071 0.11588535
0.05429029 -0.38054364 0.14526413
0.01276791 -0.39558058 0.14476199
0.02225769 -0.42008604 0.15448693
0.00709568 -0.43101389 0.15453846
0.05115364 -0.40579317 0.15554119
-0.51766388 -0.55497713 0.11995534
-0.52899505 -0.51292065 0.11493082
3 117 118 116
3 184 641 185
3 116 118 119
3 303 229 411
3 114 115 120
3 119 115 116
3 278 174 279
3 243 242 121
3 120 115 119
3 526 392 153
3 532 67 68
3 268 267 265
3 243 121 122
3 318 122 123
3 255 122 318
3 252 439 329
3 447 449 443
3 113 242 243
3 263 260 249
3 255 112 243
3 111 244 110
3 254 262 1107
3 112 255 111
3 315 244 435
3 172 510 650
3 242 120 121
3 151 152 527
3 240 241 253
3 236 264 235
3 315 109 110
3 575 108 350
3 1108 351 1145
3 264 263 235
3 575 466 107
3 254 31 32
3 149 150 256
3 107 466 106
3 328 261 23
3 315 110 244
3 405 1106 150
3 588 583 591
3 352 580 467
3 106 466 579
3 236 248 264
3 8 9 259
3 353 598 602
3 102 103 604
3 244 111 255
3 353 602 104
3 9 10 325
3 564 566 259
3 103 602 604
3 100 474 99
3 1189 901 903
3 108 109 350
3 353 104 105
3 409 302 228
3 263 249 1144
3 277 173 278
3 326 33 34
3 358 475 275
3 360 135 357
3 477 131 132
3 126 465 125
3 359 476 134
3 259 258 8
3 260 258 249
3 362 477 478
3 135 360 134
3 267 250 261
3 276 275 138
3 493 188 187
3 276 139 299
3 285 172 277
3 525 391 524
3 367 176 365
3 173 277 172
3 135 136 357
3 174 278 173
3 361 625 486
3 138 275 137
3 175 279 174
3 140 178 299
3 357 136 475
3 263 234 235
3 508 172 171
3 164 613 165
3 940 884 918
3 165 166 505
3 769 162 161
3 626 627 162
3 614 761 469
3 626 368 488
3 271 595 596
3 616 470 760
3 626 162 163
3 633 493 187
3 799 129 800
3 375 498 283
3 511 509 383
3 499 195 194
3 514 383 513
3 484 482 274
3 282 375 374
3 167 500 501
3 624 130 364
3 500 167 168
3 378 377 500
3 615 763 469
3 501 166 167
3 285 196 380
3 382 508 509
3 170 513 509
3 635 1146 634
3 175 287 200
3 231 300 232
3 306 305 198
3 881 619 790
3 484 364 362
3 628 890 810
3 93 94 385
3 151 150 516
3 89 257 247
3 660 391 525
3 91 92 386
3 513 170 169
3 538 927 928
3 289 322 323
3 289 386 387
3 74 75 406
3 385 518 655
3 285 277 197
3 777 787 775
3 775 776 777
3 376 193 192
3 388 148 322
3 148 245 147
3 147 146 321
3 252 240 438
3 77 78 245
3 246 245 148
3 146 324 321
3 76 77 246
3 821 875 820
3 196 197 300
3 79 147 78
3 86 87 143
3 396 548 680
3 143 87 144
3 143 83 142
3 84 85 142
3 232 305 233
3 142 83 84
3 142 85 86
3 143 142 86
3 168 169 378
3 143 82 83
3 556 15 16
3 247 144 88
3 88 89 247
3 145 146 80
3 79 146 147
3 247 257 324
3 80 146 79
3 82 144 81
3 82 143 144
3 328 23 24
3 81 144 145
3 145 80 81
3 130 131 364
3 72 73 1097
3 144 87 88
3 181 401 400
3 63 541 62
3 339 268 343
3 165 763 166
3 1178 1236 880
3 618 773 471
3 159 495 813
3 156 157 524
3 152 153 392
3 823 152 824
3 156 523 155
3 153 152 528
3 773 774 778
3 154 155 658
3 523 391 390
3 529 670 829
3 397 929 950
3 160 494 495
3 185 548 184
3 160 161 494
3 186 185 640
3 530 1111 183
3 180 403 181
3 64 180 399
3 180 400 399
3 533 1142 532
3 531 182 181
3 401 1123 400
3 186 546 185
3 160 495 159
3 821 820 656
3 403 65 296
3 150 151 405
3 150 149 517
3 406 407 74
3 297 407 406
3 317 206 207
3 256 1106 76
3 246 148 149
3 527 392 394
3 406 1106 297
3 437 32 33
3 89 90 257
3 76 246 256
3 26 240 252
3 1219 1217 1103
3 240 253 254
3 545 65 66
3 404 296 545
3 113 114 242
3 112 113 243
3 72 1097 1102
3 319 318 123
3 243 122 255
3 393 291 392
3 347 349 334
3 65 180 64
3 1104 1102 1218
3 536 404 534
3 91 323 90
3 547 408 546
3 617 157 156
3 158 157 619
3 253 30 31
3 187 188 558
3 1157 223 677
3 179 178 140
3 141 0 179
3 178 179 203
3 178 177 299
3 200 287 201
3 201 177 202
3 202 203 238
3 202 177 178
3 178 203 202
3 201 202 237
3 179 204 203
3 140 141 179
3 0 204 179
3 1 239 0
3 239 1 2
3 239 204 0
3 551 11 12
3 239 238 203
3 236 201 237
3 3 237 238
3 316 236 237
3 248 236 316
3 238 239 2
3 202 238 237
3 304 230 229
3 204 239 203
3 716 850 1095
3 201 236 200
3 198 197 277
3 195 380 196
3 300 197 305
3 301 196 300
3 193 302 192
3 643 192 191
3 194 304 303
3 197 196 285
3 194 193 374
3 194 195 304
3 197 198 305
3 375 499 374
3 199 200 235
3 278 199 198
3 235 234 199
3 263 264 260
3 200 236 235
3 234 233 306
3 300 231 301
3 566 1144 249
3 230 304 301
3 325 564 259
3 249 259 566
3 300 305 232
3 716 232 715
3 306 199 234
3 199 279 200
3 303 304 229
3 3 238 2
3 376 282 374
3 216 215 1159
3 278 279 199
3 248 5 6
3 316 4 5
3 7 8 258
3 260 7 258
3 258 259 249
3 174 173 361
3 269 266 331
3 9 325 259
3 1132 506 1133
3 4 237 3
3 551 553 11
3 157 617 619
3 850 851 1095
3 250 266 269
3 138 139 276
3 13 14 554
3 412 683 682
3 32 262 254
3 555 413 554
3 246 149 256
3 334 337 339
3 556 555 15
3 434 351 1108
3 682 565 553
3 671 397 403
3 1091 1092 899
3 260 6 7
3 144 247 145
3 18 441 440
3 19 441 18
3 227 410 409
3 899 831 898
3 331 21 269
3 46 47 251
3 331 333 20
3 269 21 22
3 145 324 146
3 18 440 17
3 267 261 328
3 177 176 367
3 328 329 265
3 490 1146 489
3 519 385 520
3 22 23 261
3 241 27 28
3 171 172 285
3 27 241 240
3 322 148 147
3 1232 1231 1105
3 27 240 26
3 250 269 261
3 26 252 25
3 140 299 139
3 30 28 29
3 302 193 303
3 303 411 302
3 418 225 417
3 550 302 410
3 190 191 415
3 190 189 489
3 549 418 309
3 309 417 416
3 188 189 421
3 163 164 487
3 420 310 419
3 444 567 440
3 416 190 415
3 677 222 675
3 1036 1031 1015
3 189 632 489
3 298 408 672
3 331 20 21
3 298 676 1155
3 445 447 443
3 341 442 330
3 674 675 1151
3 530 183 184
3 330 332 340
3 62 543 61
3 991 1003 1009
3 992 462 981
3 542 402 541
3 441 333 335
3 679 1120 680
3 457 459 348
3 1167 1165 1166
3 399 542 64
3 693 215 214
3 541 543 62
3 28 30 241
3 77 245 246
3 1163 698 1165
3 260 248 6
3 694 425 696
3 424 425 311
3 147 245 78
3 691 561 214
3 329 24 25
3 212 689 559
3 845 849 712
3 560 423 689
3 562 832 41
3 937 938 905
3 57 423 56
3 248 260 264
3 423 57 424
3 568 437 326
3 313 210 209
3 560 55 56
3 624 799 800
3 210 312 690
3 691 311 561
3 951 931 849
3 277 278 198
3 1043 1067 308
3 422 558 421
3 516 150 517
3 41 42 562
3 832 40 41
3 529 153 528
3 1173 100 101
3 428 430 45
3 190 489 492
3 710 704 707
3 44 426 43
3 358 275 366
3 1136 385 94
3 841 562 42
3 404 66 67
3 717 35 1171
3 195 196 301
3 240 1107 438
3 268 250 267
3 276 299 177
3 201 287 176
3 996 995 992
3 170 171 379
3 266 336 332
3 457 347 345
3 669 668 472
3 379 285 283
3 22 261 269
3 840 702 839
3 301 304 195
3 313 53 54
3 706 708 844
3 706 707 708
3 313 1096 53
3 298 674 676
3 1096 52 53
3 51 207 206
3 207 51 52
3 208 207 52
3 230 301 231
3 426 433 314
3 209 1096 313
3 205 50 206
3 206 50 51
3 176 175 365
3 317 251 206
3 251 317 428
3 205 251 47
3 205 49 50
3 205 47 48
3 48 49 205
3 760 614 163
3 206 251 205
3 305 306 233
3 200 279 175
3 193 194 303
3 433 44 430
3 175 176 287
3 199 306 198
3 31 254 253
3 241 30 253
3 120 242 114
3 192 550 191
3 201 176 177
3 189 190 416
3 1089 1188 1079
3 57 58 424
3 58 59 425
3 54 55 312
3 55 560 690
3 54 312 313
3 210 313 312
3 314 707 704
3 705 426 703
3 319 320 435
3 315 464 350
3 4 316 237
3 5 248 316
3 432 429 431
3 46 428 45
3 319 123 124
3 244 255 318
3 124 434 319
3 244 318 319
3 125 434 124
3 464 270 350
3 257 90 323
3 322 321 323
3 322 289 388
3 147 321 322
3 323 321 257
3 323 91 386
3 247 324 145
3 321 324 257
3 684 11 553
3 565 436 564
3 35 36 720
3 568 262 437
3 344 327 570
3 329 439 454
3 329 328 24
3 267 328 265
3 25 252 329
3 252 438 439
3 332 330 333
3 443 453 444
3 332 331 266
3 331 332 333
3 336 266 337
3 339 337 250
3 333 330 335
3 19 20 333
3 833 427 834
3 338 340 336
3 341 330 340
3 555 1143 685
3 337 266 250
3 336 334 338
3 339 250 268
3 334 336 337
3 347 339 346
3 995 1205 448
3 268 344 343
3 326 717 569
3 336 340 332
3 341 340 338
3 463 338 349
3 449 451 443
3 36 37 573
3 343 346 339
3 265 454 268
3 346 343 1189
3 262 568 570
3 343 344 1126
3 572 455 569
3 974 971 960
3 1189 343 342
3 347 346 345
3 457 349 347
3 339 347 334
3 901 572 902
3 939 971 973
3 463 349 348
3 338 334 349
3 315 350 109
3 466 575 722
3 944 945 966
3 588 590 581
3 352 587 599
3 599 600 944
3 352 579 466
3 596 598 271
3 614 469 613
3 271 576 578
3 618 471 617
3 739 752 755
3 101 1172 1173
3 916 272 877
3 136 137 475
3 360 357 647
3 275 365 366
3 357 358 625
3 646 361 650
3 134 476 133
3 647 357 273
3 134 360 359
3 172 508 510
3 625 366 486
3 132 133 621
3 480 362 478
3 168 167 623
3 166 763 764
3 364 131 477
3 624 364 797
3 365 175 366
3 367 365 275
3 174 486 175
3 361 486 174
3 275 276 367
3 177 367 276
3 165 505 506
3 368 280 1129
3 280 368 1133
3 491 492 369
3 497 496 640
3 629 628 631
3 805 162 627
3 636 495 371
3 642 497 641
3 539 538 535
3 372 814 816
3 536 535 294
3 376 374 193
3 378 375 282
3 170 498 169
3 380 499 283
3 491 644 643
3 1131 504 284
3 376 502 282
3 1148 1131 284
3 375 378 169
3 377 378 282
3 285 379 171
3 498 379 283
3 499 380 195
3 285 380 283
3 645 284 644
3 165 506 164
3 651 512 286
3 273 361 646
3 514 169 168
3 514 515 383
3 148 388 149
3 1137 388 521
3 385 1136 518
3 387 1137 521
3 386 92 519
3 323 386 289
3 93 519 92
3 520 385 288
3 521 388 289
3 517 388 384
3 1110 389 1138
3 1097 1101 1102
3 390 1109 1110
3 522 390 1138
3 157 158 659
3 391 660 1109
3 526 153 154
3 392 291 1100
3 393 526 522
3 393 1139 1099
3 1098 291 1097
3 405 527 297
3 824 151 516
3 667 529 395
3 546 548 185
3 1112 1111 396
3 531 403 397
3 948 928 929
3 1140 532 68
3 661 373 663
3 400 180 181
3 399 295 542
3 401 181 182
3 295 399 400
3 182 183 1111
3 1111 1112 1116
3 401 1116 1123
3 1115 1105 1117
3 65 403 180
3 403 296 671
3 534 67 532
3 535 536 534
3 405 151 527
3 405 297 1106
3 1106 406 75
3 407 297 394
3 394 392 1100
3 73 74 407
3 547 186 187
3 678 548 408
3 228 227 409
3 227 549 410
3 309 415 550
3 302 409 410
3 229 228 411
3 302 411 228
3 13 554 552
3 683 412 830
3 1187 895 686
3 552 412 551
3 687 17 440
3 444 335 442
3 415 191 550
3 416 415 309
3 309 418 417
3 189 416 419
3 420 225 224
3 419 417 420
3 549 309 410
3 225 418 226
3 419 310 421
3 416 417 419
3 225 420 417
3 420 224 1157
3 419 421 189
3 422 421 310
3 223 222 677
3 672 408 547
3 559 423 311
3 689 211 560
3 425 424 58
3 423 424 311
3 699 696 59
3 311 425 561
3 428 431 430
3 426 314 703
3 563 704 711
3 711 704 710
3 251 428 46
3 317 431 428
3 317 432 431
3 844 843 209
3 433 430 429
3 44 45 430
3 432 317 207
3 430 431 429
3 207 208 432
3 842 708 1169
3 433 429 1169
3 44 433 426
3 434 125 465
3 319 434 320
3 319 435 244
3 464 435 320
3 232 716 231
3 715 233 1144
3 32 437 262
3 33 326 437
3 1107 240 254
3 438 327 439
3 327 344 439
3 454 344 268
3 442 335 330
3 567 1158 687
3 333 441 19
3 440 441 335
3 445 442 341
3 445 444 442
3 1128 338 463
3 1010 1018 1001
3 451 453 443
3 440 335 444
3 341 1128 447
3 444 445 443
3 348 459 461
3 978 1206 976
3 341 447 445
3 446 995 449
3 462 574 461
3 1205 1032 1033
3 446 449 447
3 448 1033 451
3 1018 1030 1032
3 1045 688 1044
3 448 451 449
3 453 451 1040
3 414 557 688
3 557 414 556
3 1040 451 450
3 453 452 567
3 329 454 265
3 439 344 454
3 455 568 569
3 343 1126 342
3 573 37 863
3 839 702 836
3 904 1190 903
3 348 349 457
3 907 906 38
3 900 931 933
3 1190 457 345
3 1192 461 459
3 719 856 853
3 975 983 974
3 1192 459 458
3 462 461 460
3 980 973 978
3 463 1127 1128
3 348 574 463
3 463 574 1127
3 435 464 315
3 1108 464 320
3 600 465 126
3 434 465 351
3 107 108 575
3 352 467 579
3 271 353 576
3 353 577 576
3 731 724 726
3 604 727 102
3 614 164 163
3 767 872 354
3 794 790 620
3 271 583 595
3 618 156 155
3 619 471 788
3 529 154 153
3 783 292 875
3 782 778 775
3 597 468 596
3 1235 474 100
3 1236 474 356
3 275 475 137
3 357 475 358
3 359 647 648
3 478 481 480
3 478 477 132
3 364 477 362
3 481 621 476
3 481 649 651
3 652 817 1180
3 480 482 362
3 478 621 481
3 480 479 482
3 382 511 512
3 479 480 481
3 1180 383 515
3 819 818 622
3 873 166 764
3 1134 1135 514
3 482 484 362
3 274 364 484
3 795 274 482
3 732 597 757
3 625 361 273
3 175 486 366
3 1132 487 164
3 368 163 487
3 629 630 628
3 627 629 631
3 632 189 188
3 645 369 1147
3 490 632 493
3 635 634 370
3 284 504 503
3 492 191 190
3 369 492 489
3 191 492 491
3 633 187 186
3 493 806 634
3 805 494 161
3 495 494 371
3 636 371 281
3 639 813 638
3 891 628 810
3 370 634 806
3 642 184 183
3 497 814 1130
3 498 170 379
3 375 169 498
3 374 499 194
3 283 499 375
3 378 500 168
3 501 500 377
3 501 377 504
3 505 166 1131
3 502 376 503
3 377 282 502
3 643 376 192
3 645 644 491
3 377 502 504
3 503 504 502
3 1131 166 501
3 506 505 381
3 506 381 507
3 487 1132 368
3 1148 284 645
3 811 369 1146
3 509 508 171
3 510 508 382
3 170 509 171
3 511 383 286
3 648 382 512
3 361 173 650
3 512 511 286
3 382 509 511
3 476 649 481
3 649 359 648
3 514 513 169
3 509 513 383
3 623 1134 168
3 1135 363 515
3 515 818 652
3 479 652 482
3 384 653 516
3 653 654 516
3 388 517 149
3 516 517 384
3 96 876 913
3 288 655 654
3 385 519 93
3 386 519 387
3 288 653 1137
3 519 520 387
3 289 387 521
3 387 520 1137
3 658 523 522
3 522 1138 1139
3 523 156 524
3 522 523 390
3 524 157 659
3 523 524 391
3 812 158 813
3 660 290 1109
3 526 154 658
3 392 526 393
3 392 527 152
3 527 394 297
3 823 528 152
3 529 528 395
3 395 820 667
3 472 670 669
3 548 530 184
3 1111 530 396
3 403 531 181
3 950 531 397
3 532 1140 533
3 534 532 398
3 70 1220 1226
3 539 540 537
3 534 398 535
3 67 534 404
3 540 539 398
3 538 294 535
3 294 948 671
3 296 404 536
3 638 637 373
3 535 398 539
3 1149 825 537
3 814 497 642
3 540 398 1142
3 538 539 537
3 533 1140 1226
3 1225 662 666
3 542 541 63
3 543 541 402
3 542 63 64
3 542 295 1124
3 402 1125 1167
3 1160 1230 216
3 400 1123 295
3 1230 1161 1162
3 65 545 296
3 66 404 545
3 547 546 186
3 548 546 408
3 558 547 187
3 672 547 1150
3 678 408 298
3 530 548 396
3 227 226 549
3 418 549 226
3 302 550 192
3 550 410 309
3 552 551 12
3 553 551 412
3 13 552 12
3 894 413 895
3 682 553 412
3 10 684 325
3 555 554 14
3 554 413 894
3 15 555 14
3 555 556 1143
3 557 556 16
3 556 414 1143
3 16 17 687
3 688 557 1158
3 421 558 188
3 558 422 1150
3 691 559 311
3 212 559 213
3 560 211 690
3 56 423 560
3 214 561 693
3 696 692 694
3 705 841 43
3 833 832 562
3 563 703 704
3 562 714 427
3 565 564 325
3 566 564 436
3 565 325 684
3 565 307 850
3 715 566 436
3 234 1144 233
3 453 567 444
3 567 452 1158
3 569 568 326
3 570 568 455
3 326 34 717
3 572 342 1126
3 344 570 455
3 570 327 1107
3 720 36 573
3 1170 572 569
3 572 1170 718
3 901 342 572
3 38 906 863
3 1170 865 718
3 461 574 348
3 1127 574 462
3 350 270 721
3 466 722 352
3 577 353 105
3 578 576 467
3 106 577 105
3 467 576 577
3 467 580 578
3 603 590 589
3 467 577 579
3 106 579 577
3 599 582 584
3 580 352 584
3 271 578 583
3 584 592 591
3 946 804 887
3 803 886 801
3 591 578 580
3 756 595 581
3 722 575 721
3 588 581 583
3 584 582 592
3 585 592 594
3 590 606 581
3 1173 1235 100
3 1108 1145 270
3 600 599 587
3 591 583 578
3 585 594 590
3 943 592 582
3 607 601 603
3 585 590 588
3 887 922 593
3 584 591 580
3 588 591 585
3 594 592 943
3 591 592 585
3 593 924 887
3 802 804 799
3 923 594 593
3 590 594 589
3 581 595 583
3 596 595 586
3 597 596 586
3 596 468 598
3 606 601 759
3 102 1172 101
3 598 468 602
3 271 598 353
3 352 599 584
3 587 1145 600
3 465 600 351
3 945 944 600
3 751 868 750
3 603 606 590
3 604 602 468
3 103 104 602
3 923 607 589
3 603 601 606
3 597 723 468
3 604 468 723
3 624 797 485
3 601 607 609
3 609 611 601
3 595 756 586
3 589 607 603
3 605 921 609
3 609 921 608
3 748 754 753
3 605 609 607
3 1175 611 609
3 866 473 746
3 612 759 611
3 1175 609 608
3 611 610 612
3 736 728 741
3 757 758 734
3 614 613 164
3 763 613 469
3 760 163 162
3 469 761 354
3 766 767 765
3 764 766 768
3 160 770 161
3 794 160 159
3 618 617 156
3 619 617 471
3 155 154 829
3 773 355 788
3 471 773 788
3 789 790 619
3 742 733 736
3 770 616 769
3 132 621 478
3 476 621 133
3 766 765 768
3 795 796 274
3 873 623 167
3 1134 623 483
3 797 364 274
3 624 485 799
3 357 625 273
3 366 625 358
3 368 626 163
3 627 626 488
3 627 488 629
3 627 631 805
3 488 630 629
3 806 807 809
3 488 1129 630
3 891 631 628
3 808 280 635
3 370 809 808
3 281 371 631
3 631 371 805
3 493 632 188
3 489 632 490
3 640 633 186
3 807 806 633
3 370 808 635
3 490 493 634
3 811 635 280
3 1146 369 489
3 637 636 281
3 639 638 373
3 891 281 631
3 663 664 662
3 495 636 638
3 637 638 636
3 661 639 373
3 812 525 659
3 640 185 641
3 633 640 496
3 642 641 184
3 640 641 497
3 182 950 183
3 1130 814 372
3 491 643 191
3 376 643 503
3 284 503 644
3 643 644 503
3 369 645 491
3 645 1147 1148
3 510 382 648
3 360 647 359
3 273 646 647
3 648 647 646
3 648 646 510
3 648 512 649
3 649 512 651
3 359 649 476
3 172 650 173
3 646 650 510
3 817 651 286
3 481 651 479
3 817 652 479
3 515 363 818
3 653 384 1137
3 654 653 288
3 288 385 655
3 292 667 820
3 822 518 657
3 875 821 822
3 656 820 823
3 654 656 824
3 518 1136 913
3 96 914 876
3 523 658 155
3 526 658 522
3 812 659 158
3 524 659 525
3 525 661 660
3 660 661 665
3 661 525 812
3 373 664 663
3 1149 540 666
3 663 665 661
3 664 373 637
3 665 663 662
3 893 892 816
3 662 664 825
3 662 1149 666
3 665 290 660
3 533 1226 1227
3 1225 1224 290
3 668 667 292
3 472 774 670
3 779 781 915
3 777 781 787
3 529 667 669
3 668 669 667
3 829 618 155
3 529 669 670
3 296 536 671
3 294 671 536
3 672 1150 673
3 672 673 674
3 422 310 1156
3 672 674 298
3 673 675 674
3 222 1151 675
3 675 673 677
3 1151 222 221
3 221 220 1152
3 220 1154 1153
3 673 1150 1156
3 1156 1157 677
3 679 678 298
3 396 680 293
3 1153 1155 1152
3 1115 1121 1105
3 548 678 680
3 679 680 678
3 413 685 686
3 1094 851 831
3 552 830 412
3 565 682 307
3 683 681 896
3 682 683 1186
3 11 684 10
3 565 684 553
3 685 308 686
3 413 555 685
3 1023 1035 450
3 1086 1090 1089
3 567 687 440
3 16 687 557
3 1040 452 453
3 1031 1035 1023
3 559 689 423
3 211 689 212
3 210 690 211
3 55 690 312
3 214 213 691
3 691 213 559
3 1168 701 699
3 695 1159 693
3 561 694 693
3 697 693 694
3 425 694 561
3 694 692 697
3 697 692 698
3 1159 1160 216
3 425 59 696
3 699 59 60
3 692 699 701
3 693 697 695
3 1119 1113 1117
3 697 698 1161
3 60 61 1168
3 692 696 699
3 1166 61 543
3 701 698 692
3 1168 699 60
3 701 700 1165
3 427 711 713
3 853 456 573
3 704 703 314
3 705 703 563
3 314 708 707
3 1200 847 848
3 714 841 563
3 43 426 705
3 1184 1182 1183
3 955 953 954
3 708 314 1169
3 1181 710 707
3 429 432 842
3 708 843 844
3 212 213 1194
3 1072 216 217
3 1181 707 706
3 711 710 709
3 713 711 845
3 427 714 711
3 845 712 713
3 905 904 852
3 845 711 709
3 833 834 702
3 714 562 841
3 711 714 563
3 716 715 436
3 232 233 715
3 436 850 716
3 851 1186 896
3 35 717 34
3 717 571 1170
3 1171 865 571
3 860 911 861
3 906 907 857
3 702 834 836
3 864 573 456
3 717 1171 571
3 721 270 1145
3 575 350 721
3 721 587 722
3 587 352 722
3 604 723 727
3 723 597 726
3 732 728 731
3 730 724 740
3 727 726 729
3 724 730 729
3 597 732 731
3 729 726 724
3 726 727 723
3 727 725 1172
3 741 743 738
3 724 731 735
3 740 724 735
3 727 729 725
3 356 1174 272
3 725 729 730
3 597 731 726
3 728 736 735
3 586 757 597
3 758 757 756
3 733 735 736
3 778 782 786
3 612 744 743
3 728 732 734
3 728 735 731
3 740 735 883
3 728 743 741
3 746 742 739
3 793 746 792
3 730 737 878
3 750 749 744
3 739 745 752
3 741 738 745
3 771 770 772
3 883 735 733
3 730 740 737
3 743 728 734
3 745 742 736
3 745 736 741
3 739 866 746
3 734 612 743
3 744 612 610
3 744 610 750
3 738 743 744
3 744 749 738
3 739 742 745
3 778 786 355
3 733 742 746
3 610 751 750
3 747 868 762
3 738 749 754
3 771 874 616
3 753 749 747
3 748 752 754
3 611 1175 610
3 749 750 747
3 608 921 963
3 869 762 868
3 745 738 754
3 755 752 748
3 871 747 762
3 874 753 470
3 754 749 753
3 745 754 752
3 770 771 616
3 867 866 755
3 581 606 756
3 759 758 606
3 732 757 734
3 586 756 757
3 606 758 756
3 734 758 612
3 611 759 601
3 758 759 612
3 760 162 769
3 870 760 470
3 870 614 760
3 470 753 871
3 354 761 762
3 870 762 761
3 763 165 613
3 764 763 615
3 764 615 766
3 768 483 873
3 615 767 766
3 803 885 605
3 615 872 767
3 940 768 765
3 354 762 869
3 920 941 942
3 363 483 768
3 623 873 483
3 770 769 161
3 760 769 616
3 772 160 794
3 772 755 771
3 755 748 771
3 748 753 874
3 160 772 770
3 755 772 620
3 618 774 773
3 774 776 778
3 670 774 618
3 774 472 776
3 472 777 776
3 882 877 878
3 777 472 668
3 778 776 775
3 668 781 777
3 356 272 916
3 782 785 877
3 773 778 355
3 783 915 781
3 1176 97 98
3 882 883 793
3 792 473 789
3 783 781 668
3 779 784 787
3 782 775 785
3 782 780 786
3 292 783 668
3 783 657 876
3 779 1177 1176
3 916 877 785
3 775 879 785
3 784 916 879
3 733 746 793
3 473 790 789
3 779 787 781
3 787 784 879
3 786 791 355
3 792 789 791
3 619 788 789
3 791 789 788
3 790 473 867
3 881 159 158
3 355 791 788
3 791 786 792
3 793 786 780
3 473 792 746
3 786 793 792
3 882 793 780
3 794 159 881
3 772 794 620
3 819 482 652
3 796 795 622
3 918 917 622
3 485 797 798
3 274 796 797
3 798 797 796
3 796 622 917
3 802 803 801
3 802 799 485
3 799 804 888
3 129 130 800
3 624 800 130
3 803 802 485
3 887 804 801
3 803 485 798
3 804 802 801
3 885 803 798
3 886 803 605
3 801 922 887
3 804 128 888
3 494 805 371
3 162 805 161
3 493 633 806
3 807 633 496
3 496 1130 889
3 808 809 890
3 370 806 809
3 280 808 630
3 810 809 807
3 890 630 808
3 496 889 807
3 892 926 372
3 1133 811 280
3 1147 811 507
3 813 158 159
3 661 812 639
3 638 813 495
3 812 813 639
3 949 814 642
3 949 816 814
3 397 948 929
3 825 827 828
3 828 893 927
3 927 893 815
3 651 817 479
3 1180 286 383
3 918 818 363
3 819 622 795
3 482 819 795
3 652 818 819
3 823 820 395
3 656 654 821
3 654 655 821
3 822 821 655
3 518 822 655
3 822 657 875
3 528 823 395
3 824 152 151
3 654 824 516
3 823 824 656
3 825 664 827
3 537 825 828
3 826 1193 947
3 891 925 281
3 1193 664 637
3 828 827 826
3 828 826 893
3 828 538 537
3 529 829 154
3 618 829 670
3 894 830 552
3 681 683 830
3 896 898 831
3 831 899 1092
3 833 562 427
3 832 702 840
3 834 427 713
3 702 832 833
3 712 837 713
3 837 836 834
3 930 837 712
3 853 856 855
3 834 713 837
3 839 835 838
3 931 930 712
3 836 837 1191
3 854 857 908
3 39 40 840
3 835 839 836
3 840 839 838
3 840 838 907
3 840 40 832
3 43 841 42
3 841 705 563
3 432 208 842
3 843 208 209
3 708 842 843
3 208 843 842
3 209 210 844
3 1182 844 210
3 709 848 847
3 845 709 847
3 954 956 1201
3 847 849 845
3 710 1181 709
3 847 846 849
3 844 1182 1185
3 1184 212 955
3 951 952 1201
3 912 971 939
3 565 850 436
3 850 307 1186
3 851 850 1186
3 1094 831 1092
3 862 456 861
3 1190 459 457
3 863 853 573
3 854 856 857
3 930 910 1191
3 456 853 855
3 860 855 854
3 861 456 855
3 857 856 719
3 854 855 856
3 906 857 719
3 857 838 908
3 936 854 909
3 993 984 997
3 905 859 937
3 902 862 934
3 854 908 909
3 911 860 858
3 860 861 855
3 862 861 859
3 859 905 934
3 865 720 864
3 38 863 37
3 853 863 719
3 862 864 456
3 720 573 864
3 864 862 865
3 862 718 865
3 739 755 866
3 867 755 620
3 790 867 620
3 473 866 867
3 750 868 747
3 868 751 869
3 751 1175 965
3 767 354 869
3 614 870 761
3 871 870 470
3 747 871 753
3 870 871 762
3 615 469 872
3 354 872 469
3 166 873 167
3 764 768 873
3 616 874 470
3 748 874 771
3 292 820 875
3 657 783 875
3 913 876 657
3 96 97 914
3 878 877 272
3 782 877 780
3 878 272 1174
3 878 737 882
3 787 879 775
3 916 784 880
3 784 779 1179
3 99 474 1236
3 619 881 158
3 794 881 790
3 882 780 877
3 883 882 737
3 740 883 737
3 733 793 883
3 941 920 884
3 917 919 796
3 919 885 798
3 885 919 920
3 923 605 607
3 923 593 922
3 924 593 943
3 887 924 946
3 128 129 888
3 799 888 129
3 372 816 892
3 810 807 889
3 630 890 628
3 809 810 890
3 889 372 926
3 925 637 281
3 1193 925 947
3 926 891 810
3 892 893 826
3 815 893 816
3 554 894 552
3 895 413 686
3 681 830 895
3 894 895 830
3 681 1187 898
3 851 896 831
3 1187 681 895
3 1041 1037 1035
3 681 898 896
3 898 897 1089
3 1086 1089 1079
3 1091 1090 228
3 931 951 933
3 910 935 936
3 902 572 718
3 903 901 852
3 862 902 718
3 852 901 902
3 904 903 852
3 345 346 1189
3 852 934 905
3 1190 458 459
3 1203 937 911
3 904 905 938
3 863 906 719
3 907 38 39
3 840 907 39
3 838 857 907
3 838 835 908
3 908 835 909
3 910 835 1191
3 835 910 909
3 858 860 957
3 854 936 860
3 858 1203 911
3 861 911 859
3 460 461 1192
3 939 1192 938
3 518 913 657
3 96 913 95
3 1177 97 1176
3 914 1177 915
3 783 876 915
3 914 915 876
3 879 916 785
3 356 916 880
3 622 818 918
3 919 917 884
3 363 768 940
3 884 917 918
3 919 884 920
3 796 919 798
3 884 765 941
3 963 921 885
3 605 885 921
3 963 885 920
3 801 886 922
3 923 922 886
3 923 886 605
3 923 589 594
3 944 924 582
3 924 966 946
3 926 925 891
3 826 947 892
3 889 926 810
3 926 892 947
3 928 927 815
3 828 927 538
3 928 815 929
3 538 928 294
3 815 949 929
3 950 949 642
3 931 712 849
3 910 930 900
3 849 952 951
3 900 930 931
3 216 1060 1076
3 1051 1070 1072
3 982 975 962
3 935 1202 961
3 902 934 852
3 859 934 862
3 900 1202 910
3 935 961 958
3 910 936 909
3 936 935 957
3 911 937 859
3 938 937 912
3 938 912 939
3 904 938 458
3 958 960 858
3 858 957 958
3 884 940 765
3 363 940 918
3 767 964 765
3 965 964 869
3 964 942 941
3 965 942 964
3 594 943 593
3 582 924 943
3 599 944 582
3 600 126 945
3 126 127 945
3 127 946 966
3 127 128 946
3 804 946 128
3 826 827 1193
3 926 947 925
3 671 948 397
3 928 948 294
3 949 815 816
3 950 642 183
3 950 182 531
3 949 950 929
3 952 849 846
3 932 933 951
3 846 954 952
3 1199 1201 956
3 846 1200 955
3 1195 213 214
3 955 954 846
3 954 953 1197
3 848 1182 1184
3 1194 955 212
3 1195 953 1194
3 215 1076 1196
3 936 957 860
3 958 957 935
3 1206 978 979
3 971 1203 960
3 933 967 900
3 970 967 933
3 962 958 961
3 975 958 962
3 1202 935 910
3 962 961 959
3 959 1202 967
3 969 959 967
3 920 942 963
3 608 963 942
3 765 964 941
3 869 964 767
3 751 965 869
3 608 942 965
3 944 966 924
3 127 966 945
3 1204 970 933
3 970 969 967
3 988 968 990
3 1027 219 220
3 969 968 985
3 962 959 969
3 1204 933 932
3 969 970 968
3 1203 971 912
3 974 973 971
3 975 982 983
3 981 460 980
3 978 973 972
3 939 973 980
3 975 974 960
3 972 973 974
3 958 975 960
3 985 982 969
3 979 972 983
3 460 981 462
3 984 977 987
3 997 1012 993
3 979 978 972
3 980 978 976
3 983 984 979
3 1003 991 994
3 980 976 981
3 980 460 939
3 994 981 976
3 992 446 1127
3 969 982 962
3 983 982 977
3 983 977 984
3 983 972 974
3 985 987 977
3 989 997 987
3 988 987 985
3 982 985 977
3 1201 1199 932
3 1049 1028 218
3 988 985 968
3 987 986 989
3 990 968 1204
3 986 987 988
3 1028 1051 1215
3 1027 220 1212
3 1074 1060 1071
3 990 1075 988
3 979 984 993
3 1038 1015 1054
3 981 994 1000
3 1000 996 992
3 1046 1025 998
3 979 993 1004
3 999 1206 1004
3 991 996 1000
3 449 995 448
3 446 992 995
3 996 991 1011
3 995 996 1205
3 987 997 984
3 1012 997 989
3 1210 1207 1014
3 1008 998 1016
3 1012 1013 993
3 1005 1007 999
3 981 1000 992
3 991 1000 994
3 1009 999 1007
3 1001 1011 1010
3 1047 1026 1046
3 1005 999 1004
3 1206 994 976
3 1009 1003 999
3 1005 1004 993
3 1206 999 1003
3 1008 1013 998
3 1008 1007 1005
3 221 222 1207
3 1056 1064 1055
3 1005 1013 1008
3 1007 1006 1009
3 1024 1211 1016
3 1006 1007 1008
3 1010 1009 1006
3 1011 1001 1205
3 1006 1008 1020
3 1085 1088 227
3 991 1009 1011
3 1010 1011 1009
3 1047 1012 989
3 1012 1002 1013
3 1013 1005 993
3 1013 1002 1046
3 1056 1055 1053
3 1016 1020 1008
3 1021 1010 1006
3 1080 1057 1065
3 1024 1016 998
3 1213 1020 1016
3 1209 1207 1208
3 1010 1022 1018
3 1010 1021 1022
3 1030 1018 1015
3 1024 1025 1019
3 221 1210 1212
3 1213 1016 1014
3 1021 1020 1213
3 1021 1017 1022
3 1006 1020 1021
3 1052 1022 1017
3 1018 1022 1054
3 1030 1031 1023
3 1033 448 1205
3 1025 1024 998
3 1019 1210 1211
3 1046 1026 1025
3 1049 1027 1028
3 1002 1012 1047
3 1214 1059 1047
3 1019 1025 1027
3 1027 1025 1028
3 1025 1050 1028
3 1050 1026 1059
3 1052 1055 1029
3 1063 1056 1062
3 1031 1030 1015
3 1032 1030 1023
3 1034 1036 1038
3 1043 1044 1041
3 1032 1023 1033
3 1018 1032 1001
3 1023 450 1033
3 451 1033 450
3 1066 1034 1038
3 308 1067 686
3 1036 1042 1031
3 688 1158 1040
3 1038 1036 1015
3 1042 1036 1078
3 450 1035 1037
3 1042 1041 1035
3 1015 1018 1054
3 1038 1029 1066
3 1058 1068 1069
3 688 1037 1044
3 450 1037 1040
3 688 1040 1037
3 1042 1035 1031
3 1041 1039 1043
3 1078 1036 1034
3 1041 1042 1039
3 1043 1039 1068
3 1045 1044 1043
3 1041 1044 1037
3 1043 308 1045
3 1143 1045 308
3 688 1045 414
3 1013 1046 998
3 1047 1046 1002
3 986 1214 989
3 1059 1214 1048
3 1060 1070 1071
3 1050 1051 1028
3 218 219 1049
3 1027 1049 219
3 1025 1026 1050
3 1026 1047 1059
3 1059 1070 1051
3 218 1215 217
3 1017 1053 1055
3 1038 1052 1029
3 1207 1209 1014
3 223 1061 222
3 1022 1052 1054
3 1038 1054 1052
3 1017 1055 1052
3 1053 1061 1056
3 1062 1056 1061
3 224 225 1063
3 1064 1056 1063
3 1077 1080 1081
3 1069 1039 1078
3 1187 897 898
3 1070 1059 1048
3 1050 1059 1051
3 1071 1048 986
3 1199 990 932
3 1209 1208 1053
3 1062 1061 223
3 223 224 1062
3 1063 1062 224
3 1057 1064 1065
3 1064 1029 1055
3 1065 1064 1063
3 1066 1064 1057
3 1063 225 1065
3 1065 1081 1080
3 1064 1066 1029
3 1034 1066 1057
3 1068 1067 1043
3 686 1067 1058
3 1069 1068 1039
3 1067 1068 1058
3 1080 1082 1057
3 1058 1069 1079
3 1071 1070 1048
3 1072 1070 1060
3 1075 986 988
3 1075 1073 1074
3 216 1072 1060
3 1072 217 1215
3 1198 1197 1195
3 1074 1073 1076
3 1075 1074 1071
3 1073 1196 1076
3 1075 1071 986
3 1075 990 1199
3 216 1076 215
3 1060 1074 1076
3 1079 1083 1086
3 1034 1057 1082
3 1042 1078 1039
3 1084 1078 1034
3 1069 1078 1084
3 1069 1084 1087
3 1065 225 1081
3 1080 1077 1082
3 225 226 1081
3 1081 226 1088
3 1083 1082 1077
3 1079 1087 1083
3 1077 1085 1083
3 228 229 1091
3 1034 1082 1084
3 1087 1082 1083
3 1088 1085 1077
3 1093 228 1090
3 1083 1085 1086
3 1085 227 1093
3 1069 1087 1079
3 1082 1087 1084
3 1081 1088 1077
3 227 1088 226
3 898 1089 899
3 1089 897 1188
3 1089 1090 899
3 1093 1086 1085
3 1091 229 1092
3 899 1090 1091
3 229 230 1092
3 1092 230 1094
3 228 1093 227
3 1086 1093 1090
3 230 231 1094
3 1095 231 716
3 851 1094 1095
3 231 1095 1094
3 209 208 1096
3 52 1096 208
3 1098 1097 73
3 1101 1097 291
3 73 407 1098
3 407 394 1100
3 1099 1101 393
3 1102 1099 1216
3 291 1098 1100
3 407 1100 1098
3 393 1101 291
3 1102 1101 1099
3 1102 1216 1103
3 71 72 1104
3 1110 1219 1223
3 1218 71 1104
3 72 1102 1104
3 1218 1102 1103
3 1164 1234 1230
3 293 1114 1112
3 76 1106 75
3 1106 256 150
3 570 1107 262
3 438 1107 327
3 464 1108 270
3 434 1108 320
3 1109 290 1110
3 390 391 1109
3 1222 1110 1224
3 1228 1221 1222
3 1112 396 293
3 182 1111 401
3 1114 1115 1117
3 1114 1116 1112
3 1231 1119 1117
3 1122 1116 1113
3 1114 293 1115
3 1114 1113 1116
3 293 1120 1115
3 1115 1120 1121
3 1122 1113 1119
3 1111 1116 401
3 1105 1231 1117
3 1114 1117 1113
3 1164 1231 1232
3 1118 1162 1163
3 1163 1119 1118
3 1122 1119 544
3 680 1120 293
3 1121 1120 679
3 298 1155 679
3 1154 1121 1153
3 544 1125 1122
3 402 542 1124
3 1116 1122 1123
3 1122 1125 1124
3 295 1123 1124
3 1122 1124 1123
3 1125 544 1167
3 1124 1125 402
3 344 455 1126
3 572 1126 455
3 992 1127 462
3 1128 1127 446
3 447 1128 446
3 338 1128 341
3 630 1129 280
3 488 368 1129
3 889 1130 372
3 496 497 1130
3 505 1131 381
3 504 1131 501
3 164 506 1132
3 1133 506 507
3 1132 1133 368
3 811 1133 507
3 1135 1134 483
3 514 168 1134
3 363 1135 483
3 514 1135 515
3 94 95 1136
3 913 1136 95
3 1137 520 288
3 388 1137 384
3 1110 1138 390
3 1139 1138 389
3 1139 389 1216
3 393 522 1139
3 68 69 1140
3 1226 1140 69
3 1217 70 71
3 1142 1227 540
3 532 1142 398
3 1227 1142 533
3 1045 1143 414
3 685 1143 308
3 1144 234 263
3 715 1144 566
3 600 1145 351
3 721 1145 587
3 634 1146 490
3 811 1146 635
3 811 1147 369
3 1148 1147 507
3 507 381 1148
3 1148 381 1131
3 825 1149 662
3 540 1149 537
3 558 1150 547
3 1156 1150 422
3 1152 1151 221
3 674 1151 676
3 1153 1152 220
3 1151 1152 676
3 1154 220 219
3 1121 679 1155
3 1232 219 218
3 1154 1232 1233
3 1152 1155 676
3 1121 1155 1153
3 310 420 1157
3 673 1156 677
3 1157 224 223
3 310 1157 1156
3 1158 557 687
3 1040 1158 452
3 693 1159 215
3 1160 1159 695
3 695 1161 1160
3 1162 1164 1230
3 697 1161 695
3 1162 1161 698
3 1163 1162 698
3 1162 1118 1164
3 698 701 1165
3 1163 544 1119
3 1231 1164 1118
3 218 217 1234
3 1166 1165 700
3 1163 1165 1167
3 1166 700 1168
3 1167 1166 543
3 1167 543 402
3 1167 544 1163
3 1166 1168 61
3 701 1168 700
3 433 1169 314
3 842 1169 429
3 717 1170 569
3 865 1170 571
3 865 1171 720
3 35 720 1171
3 727 1172 102
3 1173 1172 725
3 725 730 1173
3 1174 1235 730
3 474 1235 356
3 878 1174 730
3 965 1175 608
3 610 1175 751
3 1178 1176 98
3 779 1176 1179
3 915 1177 779
3 97 1177 914
3 1179 880 784
3 1236 98 99
3 1176 1178 1179
3 880 1179 1178
3 652 1180 515
3 286 1180 817
3 1185 1181 706
3 709 1181 848
3 1183 1182 210
3 1185 1182 848
3 210 211 1183
3 1184 1183 211
3 212 1184 211
3 955 1200 1184
3 1181 1185 848
3 844 1185 706
3 682 1186 307
3 896 1186 683
3 686 1058 1187
3 1188 1058 1079
3 897 1187 1188
3 1058 1188 1187
3 901 1189 342
3 345 1189 903
3 903 1190 345
3 458 1190 904
3 836 1191 835
3 930 1191 837
3 938 1192 458
3 460 1192 939
3 664 1193 827
3 925 1193 637
3 1195 1194 213
3 955 1194 953
3 1196 1195 214
3 954 1197 956
3 215 1196 214
3 1197 1198 956
3 953 1195 1197
3 1198 1195 1196
3 1196 1073 1198
3 1073 1075 1199
3 956 1198 1199
3 1073 1199 1198
3 847 1200 846
3 1184 1200 848
3 951 1201 932
3 954 1201 952
3 967 1202 900
3 961 1202 959
3 1203 912 937
3 858 960 1203
3 970 1204 968
3 932 990 1204
3 1011 1205 996
3 1032 1205 1001
3 1004 1206 979
3 994 1206 1003
3 1207 222 1208
3 1014 1211 1210
3 222 1061 1208
3 1053 1208 1061
3 1053 1017 1209
3 1213 1209 1017
3 1212 1210 1019
3 221 1207 1210
3 1016 1211 1014
3 1019 1211 1024
3 1027 1212 1019
3 221 1212 220
3 1209 1213 1014
3 1021 1213 1017
3 989 1214 1047
3 986 1048 1214
3 1028 1215 218
3 1072 1215 1051
3 1139 1216 1099
3 1223 1216 389
3 1103 1223 1219
3 1220 1141 1226
3 1103 1217 1218
3 71 1218 1217
3 1219 1222 1221
3 1217 1221 1220
3 70 1217 1220
3 1221 1217 1219
3 1219 1110 1222
3 1141 1220 1221
3 1224 1110 290
3 1229 540 1227
3 1216 1223 1103
3 1110 1223 389
3 1225 290 665
3 666 1222 1224
3 662 1225 665
3 666 1224 1225
3 1226 69 70
3 1227 1226 1141
3 1228 1141 1221
3 1228 1222 1229
3 1229 1222 666
3 1141 1228 1227
3 540 1229 666
3 1227 1228 1229
3 216 1230 217
3 1230 1160 1161
3 1231 1118 1119
3 1233 1232 1105
3 219 1232 1154
3 1232 218 1234
3 1105 1121 1233
3 1154 1233 1121
3 1230 1234 217
3 1232 1234 1164
3 730 1235 1173
3 356 1235 1174
3 880 1236 356
3 98 1236 1178
