# pattern_smooth remeshed on the hand-drawn cables (remesh_pattern_smooth_sketch.py)
v -0.0793893100 -1.0961832100 0.0000000000
v -0.0693846400 -1.0769649800 0.0142213800
v -0.0571201700 -1.0534058200 0.0316550100
v -0.0460169800 -1.0320774700 0.0474379000
v -0.0356795300 -1.0123350300 0.0619839500
v -0.0234264100 -0.9923261600 0.0748483600
v -0.0104957800 -0.9712109400 0.0884240600
v 0.0016809500 -0.9513268600 0.1012082600
v 0.0148327600 -0.9298505300 0.1150162000
v 0.0323075400 -0.9095564500 0.1252200300
v 0.0518412900 -0.8871916700 0.1363095500
v 0.0719936600 -0.8641186300 0.1477502700
v 0.0914628000 -0.8418278100 0.1588031100
v 0.1108376200 -0.8220595000 0.1660546700
v 0.1319359600 -0.8018824500 0.1718559900
v 0.1539179200 -0.7808604200 0.1779002600
v 0.1733557000 -0.7622714400 0.1832449800
v 0.2005153400 -0.7511334800 0.1759063400
v 0.2277759700 -0.7399541500 0.1685404100
v 0.2546456000 -0.7289351700 0.1612801400
v 0.2799465100 -0.7214876600 0.1486076200
v 0.3061833000 -0.7145776900 0.1338460300
v 0.3316314200 -0.7078754200 0.1195281700
v 0.3563484000 -0.7013657000 0.1056216800
v 0.3850836800 -0.6937976400 0.0894543700
v 0.4139825900 -0.6861864900 0.0731949900
v 0.4382872900 -0.6825319100 0.0544214000
v 0.4578310600 -0.6803705000 0.0378822800
v 0.4791043200 -0.6780178000 0.0198795800
v 0.5025954200 -0.6754198500 0.0000000000
v 0.4903929400 -0.6468202800 0.0000000000
v 0.4770515600 -0.6180381900 0.0000000000
v 0.4621990900 -0.5893817100 0.0000000000
v 0.4471190700 -0.5602861100 0.0000000000
v 0.4346633800 -0.5362539900 0.0000000000
v 0.4219944200 -0.5069522300 0.0000000000
v 0.4093610600 -0.4758701500 0.0000000000
v 0.3982656300 -0.4485718700 0.0000000000
v 0.3881201500 -0.4167165500 0.0000000000
v 0.3800858800 -0.3847803500 0.0000000000
v 0.3719237200 -0.3523357400 0.0000000000
v 0.3649660800 -0.3194978500 0.0000000000
v 0.3598605600 -0.2911337300 0.0000000000
v 0.3544627000 -0.2611457100 0.0000000000
v 0.3512071000 -0.2318422200 0.0000000000
v 0.3500379400 -0.2014444700 0.0000000000
v 0.3488988700 -0.1718289500 0.0000000000
v 0.3495644200 -0.1363219500 0.0000000000
v 0.3523664100 -0.1087022900 0.0000000000
v 0.3293754100 -0.1216163700 0.0072861300
v 0.3004127300 -0.1378464600 0.0164175700
v 0.2739155500 -0.1525670800 0.0246140900
v 0.2501160500 -0.1657890200 0.0319761300
v 0.2248732000 -0.1798127900 0.0397846400
v 0.1978331700 -0.1944694500 0.0477674600
v 0.1714070700 -0.2086278900 0.0553963300
v 0.1430544200 -0.2222689100 0.0624898300
v 0.1170002000 -0.2334619300 0.0680628800
v 0.0900815100 -0.2449634700 0.0737697200
v 0.0563489700 -0.2576959600 0.0795546500
v 0.0228900600 -0.2703251700 0.0852926600
v -0.0093009500 -0.2807372100 0.0897144800
v -0.0412045000 -0.2901929600 0.0935512300
v -0.0707726300 -0.2956107400 0.0955805900
v -0.1040862000 -0.3007226000 0.0974143100
v -0.1385560100 -0.3038725200 0.0983501000
v -0.1698540600 -0.3053662900 0.0985856800
v -0.2007152900 -0.3068392000 0.0988179600
v -0.2293834600 -0.3037049400 0.0972545900
v -0.2619852700 -0.2988510900 0.0949671600
v -0.2957961800 -0.2937123500 0.0925443500
v -0.3275522200 -0.2856781300 0.0887225900
v -0.3636479100 -0.2765459700 0.0843785700
v -0.3969147700 -0.2662532400 0.0795218700
v -0.4262350200 -0.2545036900 0.0740237100
v -0.4536473500 -0.2435186800 0.0688833200
v -0.4818707900 -0.2300916400 0.0625402100
v -0.5097512400 -0.2159247200 0.0558260200
v -0.5328886500 -0.2041678900 0.0502540500
v -0.5548747600 -0.1929960500 0.0449593300
v -0.5848661500 -0.1738598100 0.0358439000
v -0.6126996400 -0.1560731000 0.0273710500
v -0.6390276100 -0.1392483900 0.0193564600
v -0.6674820300 -0.1199471600 0.0101060900
v -0.6974045800 -0.0989313000 0.0000000000
v -0.6835115200 -0.1237362600 0.0094654500
v -0.6680459100 -0.1513489700 0.0200023300
v -0.6564635000 -0.1720285300 0.0278935500
v -0.6448909400 -0.1929917100 0.0358109800
v -0.6342820400 -0.2170070800 0.0435934000
v -0.6224231400 -0.2438520200 0.0522927800
v -0.6104922700 -0.2708599900 0.0610450000
v -0.5988827300 -0.2979714900 0.0695877100
v -0.5903688600 -0.3273144900 0.0761508200
v -0.5818294100 -0.3567457400 0.0827336500
v -0.5727157000 -0.3881562000 0.0897591800
v -0.5639276400 -0.4198929500 0.0964560500
v -0.5578937900 -0.4550318300 0.1003390500
v -0.5521359100 -0.4885635600 0.1040444600
v -0.5467063000 -0.5201838700 0.1075386400
v -0.5414553800 -0.5507633200 0.1109178100
v -0.5410318800 -0.5843954300 0.1097921500
v -0.5408774900 -0.6165957100 0.1084872400
v -0.5407226600 -0.6488832900 0.1071787800
v -0.5405698000 -0.6807665600 0.1058867100
v -0.5448049900 -0.7101010100 0.1015771500
v -0.5537113800 -0.7400502400 0.0939091800
v -0.5624022300 -0.7692745900 0.0864267900
v -0.5705005100 -0.7965062200 0.0794545900
v -0.5787604700 -0.8242816700 0.0723431400
v -0.5876428700 -0.8541501700 0.0646958200
v -0.5950810000 -0.8767994800 0.0584092100
v -0.6069003800 -0.8988952900 0.0491091500
v -0.6191298200 -0.9217575900 0.0394864700
v -0.6312675900 -0.9444486500 0.0299358600
v -0.6429389300 -0.9662675900 0.0207523200
v -0.6560244200 -0.9907301900 0.0104560700
v -0.6693129800 -1.0155725200 0.0000000000
v -0.6537883200 -1.0017290400 0.0089105900
v -0.6342566200 -0.9843124600 0.0201210300
v -0.6153701600 -0.9674712200 0.0309611600
v -0.5928195100 -0.9473625400 0.0439044000
v -0.5695336400 -0.9265982800 0.0572696200
v -0.5470763900 -0.9069725100 0.0698981900
v -0.5186366100 -0.8886864100 0.0815991900
v -0.4937415000 -0.8726795100 0.0918417900
v -0.4680290200 -0.8566993700 0.1021572300
v -0.4357025700 -0.8522916400 0.1076447800
v -0.3982419600 -0.8471839200 0.1140038800
v -0.3655629400 -0.8515068900 0.1145872300
v -0.3318490200 -0.8576561000 0.1142338300
v -0.3074007000 -0.8716069300 0.1089945000
v -0.2804014700 -0.8871883900 0.1031166500
v -0.2536214100 -0.9026434300 0.0972865000
v -0.2330465200 -0.9211989400 0.0886980800
v -0.2115134100 -0.9411714300 0.0793696500
v -0.1892252500 -0.9618443600 0.0697141400
v -0.1677745400 -0.9830474700 0.0595303600
v -0.1489586300 -1.0071324100 0.0468572300
v -0.1301427300 -1.0312172700 0.0341841000
v -0.1121532300 -1.0542443900 0.0220675800
v -0.0940632300 -1.0774001800 0.0098833700
v -0.6760065342 -0.1211380988 0.0095039789
v -0.6530036318 -0.1416781004 0.0185898584
v -0.6292580248 -0.1613623844 0.0258942961
v -0.6054726943 -0.1809989218 0.0336892689
v -0.5819582091 -0.2009584160 0.0430330746
v -0.5589868679 -0.2215390877 0.0529076902
v -0.5367849318 -0.2429476443 0.0633821583
v -0.5152056614 -0.2649845783 0.0733919709
v -0.4941772567 -0.2875479782 0.0822689001
v -0.4735766610 -0.3105031924 0.0910501236
v -0.4530965435 -0.3335662528 0.0998125112
v -0.4325841301 -0.3566005752 0.1082085106
v -0.4123745919 -0.3799003155 0.1156629651
v -0.3927847748 -0.4037229353 0.1224679348
v -0.3737815291 -0.4280167138 0.1289091710
v -0.3551768360 -0.4526172824 0.1345969758
v -0.3369361763 -0.4774890602 0.1397029641
v -0.3188811666 -0.5024961946 0.1441978386
v -0.3007044141 -0.5274148463 0.1477892907
v -0.2825021289 -0.5523145216 0.1500975451
v -0.2654338594 -0.5779957437 0.1512349133
v -0.2511520061 -0.6053057784 0.1510367477
v -0.2406876950 -0.6343009263 0.1501395077
v -0.2311809852 -0.6636376463 0.1485056990
v -0.2184847019 -0.6917140599 0.1458159153
v -0.2023797655 -0.7180046522 0.1415549948
v -0.1851206812 -0.7435670602 0.1354052092
v -0.1692304975 -0.7699909196 0.1279621146
v -0.1556892017 -0.7976923981 0.1184468503
v -0.1445351716 -0.8264375785 0.1088072873
v -0.1357461034 -0.8559954979 0.0991641441
v -0.1285170143 -0.8859786798 0.0889588829
v -0.1214188017 -0.9159939024 0.0768614023
v -0.1135038649 -0.9458043781 0.0646495258
v -0.1058104134 -0.9756721472 0.0539181697
v -0.0989648699 -1.0057461643 0.0403425090
v -0.0924224207 -1.0358881011 0.0290797429
v -0.0859056520 -1.0660356094 0.0155517505
v -0.1192349637 -0.3269756132 0.1058967065
v -0.1203735663 -0.3577171366 0.1155774708
v -0.1183837799 -0.3884796589 0.1248791070
v -0.1153380823 -0.4191567330 0.1308278567
v -0.1118976706 -0.4497931700 0.1350914908
v -0.1090100667 -0.4804859136 0.1396180090
v -0.1064404034 -0.5112077017 0.1436303594
v -0.1038864498 -0.5419305918 0.1454089699
v -0.1023033657 -0.5727159219 0.1459034658
v -0.1018209182 -0.6035408076 0.1448566104
v -0.1011689740 -0.6343624975 0.1434745392
v -0.1001042723 -0.6651731552 0.1414811374
v -0.0990407155 -0.6959838614 0.1373114928
v -0.0981236924 -0.7267992690 0.1322375800
v -0.0965663061 -0.7575874968 0.1273801990
v -0.0942655023 -0.7883303933 0.1220989496
v -0.0918680789 -0.8190660905 0.1149710933
v -0.0896899075 -0.8498181003 0.1066299202
v -0.0875279004 -0.8805712847 0.0974300830
v -0.0853299228 -0.9113219231 0.0865332260
v -0.0834560917 -0.9420933225 0.0736057439
v -0.0823868221 -0.9729032787 0.0595054421
v -0.0816333273 -1.0037231579 0.0449323896
v -0.0808868170 -1.0345432115 0.0322267583
v -0.0801380862 -1.0653632113 0.0167809398
v 0.3265624927 -0.1265216693 0.0086396400
v 0.3024369670 -0.1465492434 0.0181645433
v 0.2795841672 -0.1680295098 0.0289461370
v 0.2569667139 -0.1897595319 0.0420561999
v 0.2337548910 -0.2108516887 0.0551281684
v 0.2101815060 -0.2315411410 0.0692255469
v 0.1871863256 -0.2528667077 0.0833502073
v 0.1653669340 -0.2753926662 0.0972932981
v 0.1445538473 -0.2988547093 0.1111581710
v 0.1245665365 -0.3230238231 0.1240857966
v 0.1055286817 -0.3479477410 0.1364066799
v 0.0871469523 -0.3733614642 0.1478612251
v 0.0690078592 -0.3989491308 0.1574235573
v 0.0515571352 -0.4250078196 0.1650124443
v 0.0358988363 -0.4521745604 0.1712520223
v 0.0224910233 -0.4805222489 0.1767814542
v 0.0106309362 -0.5095565258 0.1808009810
v -0.0004800199 -0.5388871235 0.1834350576
v -0.0109398920 -0.5684552743 0.1843021353
v -0.0202390661 -0.5984066218 0.1834198957
v -0.0279591671 -0.6288023753 0.1810244609
v -0.0341982753 -0.6595377754 0.1787790339
v -0.0391622413 -0.6905055305 0.1746952079
v -0.0431868976 -0.7216104608 0.1693725162
v -0.0464821645 -0.7528012795 0.1622480559
v -0.0492538070 -0.7840434761 0.1540144946
v -0.0519009455 -0.8152965973 0.1443547319
v -0.0546781980 -0.8465383397 0.1330641714
v -0.0575865096 -0.8777682305 0.1173069145
v -0.0602323876 -0.9090211260 0.1012979574
v -0.0622967457 -0.9403177775 0.0858159296
v -0.0646821065 -0.9715902808 0.0689568481
v -0.0681028656 -1.0027674795 0.0523412773
v -0.0718499876 -1.0339078643 0.0353620464
v -0.0756195004 -1.0650455551 0.0177761878
v 0.4439414275 -0.6442179595 0.0449749705
v 0.4659582500 -0.6565036373 0.0257092335
v -0.6116236132 -0.9403646293 0.0383622598
v -0.5942917157 -0.9225552761 0.0489813087
v -0.5607888879 -0.8755151441 0.0725649178
v -0.5285086071 -0.2241935728 0.0579610222
v -0.5137040891 -0.2419301679 0.0654612153
v -0.6220597876 -0.1972568937 0.0363894682
v -0.0376048627 -0.9691266300 0.0813716802
v -0.0232205270 -0.9213123779 0.1095463747
v 0.3315881061 -0.6575317237 0.1469620175
v 0.3286316265 -0.1535589577 0.0113363194
v 0.4225680968 -0.6606379913 0.0659691359
v 0.4635365142 -0.6349728556 0.0219689358
v 0.4527136626 -0.6124751563 0.0235519449
v -0.5777990254 -0.8993860727 0.0604429081
v -0.4907244529 -0.2550029752 0.0713953617
v -0.6062801417 -0.2206789245 0.0437211334
v -0.0056502322 -0.9320721855 0.1088961582
v 0.0013350325 -0.9009398890 0.1259021984
v -0.0265017126 -0.9463960753 0.0960522074
v 0.3382161279 -0.6826978880 0.1259621570
v 0.4278079853 -0.5887506206 0.0530788491
v -0.0423960942 -0.9315604856 0.0981914474
v -0.0457122646 -0.9510893787 0.0869959882
v 0.3680094310 -0.6613953206 0.1123741506
v 0.3023462735 -0.6786890502 0.1578324558
v 0.3490645508 -0.6663848405 0.1253535057
v 0.3519730345 -0.6389671686 0.1391885486
v 0.3191124057 -0.6911514893 0.1367272580
v -0.5232653293 -0.8256690953 0.0951703148
v -0.4868017199 -0.7035023342 0.1285033304
v -0.4858232894 -0.5254699573 0.1327673999
v -0.1693925364 -0.9181108036 0.0837228840
v -0.2930468416 -0.8180545085 0.1269492945
v -0.1369149057 -0.9783312158 0.0547846150
v -0.1239466338 -1.0069844361 0.0425382807
v -0.1109770537 -0.8658866361 0.0907455002
v -0.1062692931 -0.8965643102 0.0853313583
v -0.1016846328 -0.9267102910 0.0741479523
v -0.1906805871 -0.5998675742 0.1467016382
v -0.2441663785 -0.5051871292 0.1433553572
v -0.1415849615 -0.7353763021 0.1268123339
v -0.1236389570 -0.8017925462 0.1108590900
v -0.1603454758 -0.6741775045 0.1382166733
v -0.1165970786 -0.8342158443 0.1025255985
v -0.2048752318 -0.8333147645 0.1179028431
v -0.0968149466 -0.9574303228 0.0632027916
v -0.5341954245 -0.3269703014 0.0862735052
v -0.5690061935 -0.2691364838 0.0634832450
v -0.3176121241 -0.4048728077 0.1238877086
v -0.4080264853 -0.3140811514 0.0950562626
v -0.4867235069 -0.3841620423 0.1108232994
v -0.0552517587 -0.4279205509 0.1387491159
v -0.1779849987 -0.3768891816 0.1182569513
v -0.0824352913 -0.3307129621 0.1078179037
v -0.1551597915 -0.3410368791 0.1092704567
v -0.4604082123 -0.2779641325 0.0814698264
v -0.0491965131 -0.4909512882 0.1547462618
v -0.1100925633 -1.0239424856 0.0344596656
v -0.0735848840 -0.8332242330 0.1233792099
v -0.0733015749 -0.8021565300 0.1325141035
v -0.0719404002 -0.7105987426 0.1504084221
v -0.0728848966 -0.7409560974 0.1461108105
v -0.0731779963 -0.7712946561 0.1401047180
v -0.0739619226 -0.8641649820 0.1122340728
v -0.0713238893 -0.8923436686 0.1025352055
v 0.0179605433 -0.8372624479 0.1618295323
v 0.1028774304 -0.7494931426 0.2085536680
v -0.0683230760 -0.6486511903 0.1581427043
v -0.0618779683 -0.5874994328 0.1612308842
v 0.1174527128 -0.2717725995 0.0922122496
v 0.1927646895 -0.2167501476 0.0610324423
v 0.2126490440 -0.2095566553 0.0562872992
v 0.2970082075 -0.2526962767 0.0515983796
v -0.5594539188 -0.8462781101 0.0782434011
v -0.0494438633 -0.9890384814 0.0674215456
v 0.3085925436 -0.1759947959 0.0234156177
v -0.5601608504 -0.8939587504 0.0682633357
v -0.5399790613 -0.8867519707 0.0773843918
v -0.5265770735 -0.8575909987 0.0881285623
v -0.5827024420 -0.2248992920 0.0489385915
v -0.5678249058 -0.2445319068 0.0567568059
v -0.5943935469 -0.2492121594 0.0536878673
v -0.6021493783 -0.2009147646 0.0391126347
v 0.0232964261 -0.8819730697 0.1382523446
v 0.4170145011 -0.5606451992 0.0551994148
v 0.4111630392 -0.6236720200 0.0793443595
v 0.3668045289 -0.6827299951 0.1044143661
v 0.3938649965 -0.6684706097 0.0901193048
v 0.2542105808 -0.6807570396 0.1978747969
v 0.2878900620 -0.6983840704 0.1553817873
v 0.2781210843 -0.6760606436 0.1803978302
v 0.2639795586 -0.7030804665 0.1712327764
v 0.2945939112 -0.6371879701 0.1979263762
v 0.2291003416 -0.7050447768 0.1940961712
v 0.2922157402 -0.6591068172 0.1821479981
v 0.3115738595 -0.6501187140 0.1721918315
v 0.2586554756 -0.6443771271 0.2248588338
v 0.3288891750 -0.6340939672 0.1667581692
v 0.2632170677 -0.6633959568 0.2048421644
v 0.2354388019 -0.6600020104 0.2303833372
v 0.3497151428 -0.5925530236 0.1681106973
v 0.3447533802 -0.6160563885 0.1622649180
v 0.3781579008 -0.6181228627 0.1258656077
v 0.3066632799 -0.5957398227 0.2119233804
v 0.3222943922 -0.6122986575 0.1861496728
v 0.3011383350 -0.6166123285 0.2052156657
v 0.2641361596 -0.5956503874 0.2477192816
v 0.2749930323 -0.6196249837 0.2265950482
v -0.5508253389 -0.8174732037 0.0862246176
v -0.4955742602 -0.8410544391 0.0996160519
v -0.5042181094 -0.7706731741 0.1109152619
v -0.5166692680 -0.6991901776 0.1188001489
v -0.2918243398 -0.6670807182 0.1516829449
v -0.4113462411 -0.4757611885 0.1393043312
v -0.5169584629 -0.5308163029 0.1223870135
v -0.1866054904 -0.9366686507 0.0793731285
v -0.1585940807 -0.9523076499 0.0697497595
v -0.2019207186 -0.9052016355 0.0916853846
v -0.2016598958 -0.9245352159 0.0847858849
v -0.1458962113 -0.9059355646 0.0853073710
v -0.2774716399 -0.8509290591 0.1165204263
v -0.2424497023 -0.7636664993 0.1385835015
v -0.3072512015 -0.8429471304 0.1199533252
v -0.1224708284 -0.9640388606 0.0588004222
v -0.1365172267 -0.9458093915 0.0675522796
v -0.1204118883 -0.9881233416 0.0485445713
v -0.2202026668 -0.6105220543 0.1489098887
v -0.1470035106 -0.6199142553 0.1405069862
v -0.1545784450 -0.5599707117 0.1424859685
v -0.2695185583 -0.5237202064 0.1466404880
v -0.1689272573 -0.4706407763 0.1363416910
v -0.2802670560 -0.4555956503 0.1372920077
v -0.1174618302 -0.7432109692 0.1229212226
v -0.1383077281 -0.7663408093 0.1213929023
v -0.1235944615 -0.7121358948 0.1279261050
v -0.1682288527 -0.7135544792 0.1361467032
v -0.1618325374 -0.7475523319 0.1302075255
v -0.1407770857 -0.8084426768 0.1119818467
v -0.1045822457 -0.8045964620 0.1130831797
v -0.1950649583 -0.6642146786 0.1445862042
v -0.1723220624 -0.8507857076 0.1092128929
v -0.1925575299 -0.7985542884 0.1261470307
v -0.5255592033 -0.2957143832 0.0799327470
v -0.5622333505 -0.3351054797 0.0822012357
v -0.5894218415 -0.2778787622 0.0638079490
v -0.5677083495 -0.3003765530 0.0721277158
v -0.5419135206 -0.2695537452 0.0692482632
v -0.3571947114 -0.3544906544 0.1084743774
v -0.3550374919 -0.3937753111 0.1201206252
v -0.3426597614 -0.4238156058 0.1285004163
v -0.4273384718 -0.3312787682 0.1002292226
v -0.4012972773 -0.3498777027 0.1065485773
v -0.4373610262 -0.3005820230 0.0901515417
v -0.4632705793 -0.3632768547 0.1078395476
v -0.0864449548 -0.4314234857 0.1346111311
v -0.1466634258 -0.3748632346 0.1197893739
v -0.2201423289 -0.3518558469 0.1109664640
v -0.0999958145 -0.3205800217 0.1041028339
v -0.1032387591 -0.3429599270 0.1113912876
v -0.0936383346 -0.3714334570 0.1207634573
v -0.0506992920 -0.3217686388 0.1056078394
v -0.1341408205 -0.3418153784 0.1102324513
v -0.1840451428 -0.3320741138 0.1060906445
v -0.4749492004 -0.2910135868 0.0847095670
v -0.4455450371 -0.2629952089 0.0765255839
v -0.4271300377 -0.2786699814 0.0826409015
v -0.0804766114 -0.4935676503 0.1466429150
v -0.0531239829 -0.7045118651 0.1640884715
v -0.0657618662 -0.6779524053 0.1579566754
v -0.0548683874 -0.7361458071 0.1593804610
v 0.0553107609 -0.8298998021 0.1672263337
v 0.0973349347 -0.7868209049 0.1882796357
v 0.1397933955 -0.7466337903 0.2013200314
v -0.0881520580 -0.6493364062 0.1483796885
v -0.0789562065 -0.6281975936 0.1534107491
v -0.0534509149 -0.6279289587 0.1662464132
v -0.0489514666 -0.6468560973 0.1689950523
v -0.0663987127 -0.6095347506 0.1595409599
v -0.0426857063 -0.6065971393 0.1712475958
v -0.0849257386 -0.5878601589 0.1514895962
v -0.0738721059 -0.5576340850 0.1542091693
v 0.1405425095 -0.2523418634 0.0815231595
v 0.1093081807 -0.2527107928 0.0797104435
v 0.0903239566 -0.2720930353 0.0903149101
v 0.3268442329 -0.2493815124 0.0281397478
v 0.3083762409 -0.3150424231 0.0692602838
v 0.3301377215 -0.1873802054 0.0145169708
v 0.3021584394 -0.2142485838 0.0367387579
v 0.3273321884 -0.2124609222 0.0205978953
v 0.3117034802 -0.1961860273 0.0269940293
v 0.2893424579 -0.1892959991 0.0331967275
v 0.3159823367 -0.2307744382 0.0324376584
v -0.5126711405 -0.8706015431 0.0878748498
v -0.5463162378 -0.8615269738 0.0809541797
v -0.0118355314 -0.8634920996 0.1424194253
v 0.4321917463 -0.5709418479 0.0331921563
v 0.4237344576 -0.6400357571 0.0655780487
v 0.4001371182 -0.6451535245 0.0908926982
v 0.2043201589 -0.7215844888 0.1939184886
v 0.2364366115 -0.7228029042 0.1757580505
v 0.2315151885 -0.6824172361 0.2121684815
v 0.1907732793 -0.6637346651 0.2418512639
v 0.2030086398 -0.6908176007 0.2190661455
v 0.2135958592 -0.6677295828 0.2327006050
v 0.2097953706 -0.6222523490 0.2649264845
v 0.2057278529 -0.6454896860 0.2504042207
v 0.1634916743 -0.6261219043 0.2615084627
v 0.1820682213 -0.6413482488 0.2572825131
v 0.1437719198 -0.6691256453 0.2420552329
v 0.1665651668 -0.6602623894 0.2453327433
v 0.1674341069 -0.6962368299 0.2241885084
v 0.1763707258 -0.6780232568 0.2341489228
v 0.3742009547 -0.6400211237 0.1183896484
v 0.3927257271 -0.5860982068 0.1074752613
v 0.3518068201 -0.4833591461 0.1209458577
v 0.2853896753 -0.6004713137 0.2292174209
v 0.2839473650 -0.5575703327 0.2291723482
v 0.2790388276 -0.5792100907 0.2394129091
v 0.2402667400 -0.5590388542 0.2538718720
v 0.2570058079 -0.5742123499 0.2498302689
v 0.2263058084 -0.5912600823 0.2676137225
v 0.2460474465 -0.6182874039 0.2515603499
v -0.5413391021 -0.8360096383 0.0870632631
v -0.4860566640 -0.8563685104 0.0979170226
v -0.5331203772 -0.7620781061 0.1019115478
v -0.5064848658 -0.7342421142 0.1166785879
v -0.4955011881 -0.6581652101 0.1292573001
v -0.2619544805 -0.6574012420 0.1524439763
v -0.3033517761 -0.6152143998 0.1530683666
v -0.3862986038 -0.4568183904 0.1355565034
v -0.4468378153 -0.4282059733 0.1264823191
v -0.3752452304 -0.5241693556 0.1471756212
v -0.5348292975 -0.5338849755 0.1139428396
v -0.1713701069 -0.9652328686 0.0665851296
v -0.2272863785 -0.8941271536 0.0985282274
v -0.2875335178 -0.8683640719 0.1103209765
v -0.2641187056 -0.8702560379 0.1101840219
v -0.2415879752 -0.8404134095 0.1183432919
v -0.2577902044 -0.8516074665 0.1159923521
v -0.2371577676 -0.8690072967 0.1083303237
v -0.2649864052 -0.8238691704 0.1243490164
v -0.2164227459 -0.7460937638 0.1378186262
v -0.2895732124 -0.8365356438 0.1215585330
v -0.3424015980 -0.8063904302 0.1305510655
v -0.1396311587 -0.9255018802 0.0762820387
v -0.2371476247 -0.6166374675 0.1496958424
v -0.2304853541 -0.5771087158 0.1488909430
v -0.1216398937 -0.6193777610 0.1387369638
v -0.1300239773 -0.5885660020 0.1403508802
v -0.1336379311 -0.6519723655 0.1375838409
v -0.1199274893 -0.6385136294 0.1386259431
v -0.1265356094 -0.5585286558 0.1420497516
v -0.2840700947 -0.5343577433 0.1482679241
v -0.2882319604 -0.4992281097 0.1436866056
v -0.1427833101 -0.4987791712 0.1396509657
v -0.1376767313 -0.4677006958 0.1358299677
v -0.1524938018 -0.7789699622 0.1217579915
v -0.1148267353 -0.7744116551 0.1185667558
v -0.1841899769 -0.7243310222 0.1378486954
v -0.1869686574 -0.7030072501 0.1405783623
v -0.1458921609 -0.7134586147 0.1306469730
v -0.1362376378 -0.6876067021 0.1336400926
v -0.1571386579 -0.6952971421 0.1354152908
v -0.2132590328 -0.6724421227 0.1459665639
v -0.2128851044 -0.6490382189 0.1469423064
v -0.1835764801 -0.6326745410 0.1453824714
v -0.1528378139 -0.8449920526 0.1070717893
v -0.1688878272 -0.8266752463 0.1162491616
v -0.1562720492 -0.8691025139 0.1008599070
v -0.1856656553 -0.8365852661 0.1158108668
v -0.2001407902 -0.8635564214 0.1070570635
v -0.1743216837 -0.7896400715 0.1253535550
v -0.1931249112 -0.7742839173 0.1311628747
v -0.2216873534 -0.7870934541 0.1312297081
v -0.5033876170 -0.3165349484 0.0904682763
v -0.5120757262 -0.2831481913 0.0789409569
v -0.5511190015 -0.3648625456 0.0914947633
v -0.5840990145 -0.3095886451 0.0730589202
v -0.5526366525 -0.3157965359 0.0793211149
v -0.5556891066 -0.2842302295 0.0701912220
v -0.3814502622 -0.3744364794 0.1141881722
v -0.3717721731 -0.4068656279 0.1235928446
v -0.3570364978 -0.4346883125 0.1307453648
v -0.3241443712 -0.4489830777 0.1345252095
v -0.4150919576 -0.3618428197 0.1101945960
v -0.4533743564 -0.3131881966 0.0934154030
v -0.4498091676 -0.3512892635 0.1053703472
v -0.4423661895 -0.3854997201 0.1157155985
v -0.1043490930 -0.4334340853 0.1333931924
v -0.1286856025 -0.3737003901 0.1203438618
v -0.2173547447 -0.3263586199 0.1040129706
v -0.2498233878 -0.3290785516 0.1041233231
v -0.2026981829 -0.3408620012 0.1082687962
v -0.1995506602 -0.3651926394 0.1147169789
v -0.1796893722 -0.3543023793 0.1122324197
v -0.2352546974 -0.3977538624 0.1223254987
v -0.2029946966 -0.3972718937 0.1225436669
v -0.2216755339 -0.3767879792 0.1173049705
v -0.2518298048 -0.3624204295 0.1134787581
v -0.0540376047 -0.3035494306 0.0986666315
v -0.0699039681 -0.3153879136 0.1027193739
v -0.0345813905 -0.3093999052 0.1014964265
v -0.0190764077 -0.3462908237 0.1181566006
v -0.1658915388 -0.3245958540 0.1042962578
v -0.0984306294 -0.4950693787 0.1428286977
v -0.0785334042 -0.5243554280 0.1506271237
v -0.0835481608 -0.4626082261 0.1406261822
v -0.0473125501 -0.6733173533 0.1695196551
v -0.0861150770 -0.6801139709 0.1458574409
v 0.0708705943 -0.8434899964 0.1589609980
v 0.0791967939 -0.8182545090 0.1727119225
v 0.0469845613 -0.8551352895 0.1535546157
v 0.1114766728 -0.8016083590 0.1767430584
v 0.1220330439 -0.7773571111 0.1884257164
v 0.1535266626 -0.7609941385 0.1894346458
v 0.1650795299 -0.7361987977 0.2002449364
v -0.0925407268 -0.5567805257 0.1479592328
v 0.1405386444 -0.2757715916 0.0963903822
v 0.1640156823 -0.2391611294 0.0743959492
v 0.1042166553 -0.2997291259 0.1082119177
v 0.3372558250 -0.3098441199 0.0346838066
v 0.3153178984 -0.2815672175 0.0483624344
v 0.0021020113 -0.8796301696 0.1368198380
v 0.0149662530 -0.8602935043 0.1489436183
v -0.0254160534 -0.8893084025 0.1253368906
v 0.1872585689 -0.7069003862 0.2113922349
v 0.4108946641 -0.5791206870 0.0774843371
v 0.3944403976 -0.5634190471 0.0997114253
v 0.4090296627 -0.6014083965 0.0830928063
v 0.4020593853 -0.5321807177 0.0680435114
v 0.3687525534 -0.5728813025 0.1503259174
v 0.3796011945 -0.4720620777 0.0605005796
v 0.2446234695 -0.5986038939 0.2622456039
v -0.5418270610 -0.7898222535 0.0941780999
v -0.5036207811 -0.7144044330 0.1210574785
v -0.5249715542 -0.7195132597 0.1122698108
v -0.4832037734 -0.7274777517 0.1253386273
v -0.5271120416 -0.7411659228 0.1078014440
v -0.4888670758 -0.7514319769 0.1191172417
v -0.4393266767 -0.7086355196 0.1404343928
v -0.4598857848 -0.7902981510 0.1196396282
v -0.4637378019 -0.7122988520 0.1343753982
v -0.4794766543 -0.7746681415 0.1176004816
v -0.4519250833 -0.7475192945 0.1302951391
v -0.4572857990 -0.6721275403 0.1422932640
v -0.4969063868 -0.8040018631 0.1068033128
v -0.4490563010 -0.7269659450 0.1351902649
v -0.4113340756 -0.7427079970 0.1383957823
v -0.4269130138 -0.7269719909 0.1386658687
v -0.4710830067 -0.7429899427 0.1262656169
v -0.4584704409 -0.7684314016 0.1245654305
v -0.4205523812 -0.7818648596 0.1285916706
v -0.4356005643 -0.7641091473 0.1297534752
v -0.4687801349 -0.6908852007 0.1366472086
v -0.4788333050 -0.6718242252 0.1348824634
v -0.4676256060 -0.6411483584 0.1394697759
v -0.5006699588 -0.6814718668 0.1264627421
v -0.4793426363 -0.7945928993 0.1137742297
v -0.4760682158 -0.8218029168 0.1088148718
v -0.3891445498 -0.7051602325 0.1486430398
v -0.5203329029 -0.6648846972 0.1188280830
v -0.4051665280 -0.7210222883 0.1435652373
v -0.5146483307 -0.6366496392 0.1219662161
v -0.3669364040 -0.7436150667 0.1430138383
v -0.4150590832 -0.6950072114 0.1468801790
v -0.3830867227 -0.7273019194 0.1455557511
v -0.3439330448 -0.7046901826 0.1510511439
v -0.3664771149 -0.7108580993 0.1491742988
v -0.3669557070 -0.6648249609 0.1528256139
v -0.3727571217 -0.6879043334 0.1516767589
v -0.3976135823 -0.6693873846 0.1512214200
v -0.2448099056 -0.6518454574 0.1509206563
v -0.2701255669 -0.6285391638 0.1524850025
v -0.2525881005 -0.6902269078 0.1488219422
v -0.2989593275 -0.5817648879 0.1514268035
v -0.3719218673 -0.4459456837 0.1331102777
v -0.4039421258 -0.4320298284 0.1294751300
v -0.3672449160 -0.4805924938 0.1405186268
v -0.3384119388 -0.5358315768 0.1487032970
v -0.2499925488 -0.8835723847 0.1050966176
v -0.2719659761 -0.7869367757 0.1342999534
v -0.2014839041 -0.7360074397 0.1385541838
v -0.3312084685 -0.8308053366 0.1238325368
v -0.1573168058 -0.9331009645 0.0762565679
v -0.2477418176 -0.5861330281 0.1507645120
v -0.2483023062 -0.5640500241 0.1495798544
v -0.2146627583 -0.5368369146 0.1449492129
v -0.2278902131 -0.5548841229 0.1469473905
v -0.1996922915 -0.5694405751 0.1462427301
v -0.2407553281 -0.5315837672 0.1458476160
v -0.1117954237 -0.5882807026 0.1426635523
v -0.1309776327 -0.5287150478 0.1424934839
v -0.1398911378 -0.5721988528 0.1415526982
v -0.1647152368 -0.5870806694 0.1432750504
v -0.2661360179 -0.5017406285 0.1436378188
v -0.2501541496 -0.4716103073 0.1395902206
v -0.2747574556 -0.4791446104 0.1408030254
v -0.3045743437 -0.4737016749 0.1391908627
v -0.1218890412 -0.4970315113 0.1399785449
v -0.1197396871 -0.4660131608 0.1366542241
v -0.1396194874 -0.4373948814 0.1319689978
v -0.1152347949 -0.6811191563 0.1348873535
v -0.1418269333 -0.6692869352 0.1367410087
v -0.1563427681 -0.6518278098 0.1403380418
v -0.1678888582 -0.8922529163 0.0943254333
v -0.1827613289 -0.9043607223 0.0904957109
v -0.1881505624 -0.8825528165 0.0991978507
v -0.2093928698 -0.8826784093 0.1003261721
v -0.1479198263 -0.8866276576 0.0928594214
v -0.2204510315 -0.8512446382 0.1118246680
v -0.2384800593 -0.8111996429 0.1266422063
v -0.5215371670 -0.3136467812 0.0856574877
v -0.5152066498 -0.3323360728 0.0919692154
v -0.5307938540 -0.3512148816 0.0930861366
v -0.4857903263 -0.3420182926 0.0994511686
v -0.5223077374 -0.3858117730 0.1033240763
v -0.3953723601 -0.3858848992 0.1175112470
v -0.3386293357 -0.4596061747 0.1361160556
v -0.3205865626 -0.4269711381 0.1297182591
v -0.3005794512 -0.4414984003 0.1337751189
v -0.2691125378 -0.4178409173 0.1280599351
v -0.2809335796 -0.4348735777 0.1323729915
v -0.2550040843 -0.4444113135 0.1340481233
v -0.2938748613 -0.4132736809 0.1268059180
v -0.2759156036 -0.3853143679 0.1197847948
v -0.4645631026 -0.3854361952 0.1139578546
v -0.4774272180 -0.4158254107 0.1203723923
v -0.4535231737 -0.4059187413 0.1202072588
v -0.4235130805 -0.4090631037 0.1231213447
v -0.1605550509 -0.3603722572 0.1146108486
v -0.0635239184 -0.5079528736 0.1536802731
v -0.0481730154 -0.5370686672 0.1619817549
v -0.0393314439 -0.5138023965 0.1620861057
v -0.0241325751 -0.5328913283 0.1715814530
v -0.0161714441 -0.4902489931 0.1657295099
v -0.0324636785 -0.5562107367 0.1713868344
v -0.0661535153 -0.4765145464 0.1471499004
v -0.0356321376 -0.4578419572 0.1516390505
v -0.0609421747 -0.4521638099 0.1437044738
v 0.0450680856 -0.7785713738 0.1960055747
v 0.0375102741 -0.8380180248 0.1626733989
v 0.0343006940 -0.8074062109 0.1799255497
v 0.0397545920 -0.8726267737 0.1438654037
v 0.1046012973 -0.7688244668 0.1972006874
v 0.0729045014 -0.7619084973 0.2061515969
v 0.1867285145 -0.7343387903 0.1925792812
v 0.1414340760 -0.7147552467 0.2189374500
v 0.1588727300 -0.2574939011 0.0857737532
v 0.1828775919 -0.2337121229 0.0713764551
v 0.1244566124 -0.3025838344 0.1117485504
v 0.0556733732 -0.3068219128 0.1074478686
v 0.0999736853 -0.3239717346 0.1219269305
v 0.0806494909 -0.3080969820 0.1108328338
v 0.0720349725 -0.3430763710 0.1290462667
v 0.0692703667 -0.2857375811 0.0967211665
v 0.0673490771 -0.3233718952 0.1177158400
v 0.0299815071 -0.3373405321 0.1199953315
v 0.0439791560 -0.2843540518 0.0938631995
v 0.0159035142 -0.3036934518 0.1021242751
v 0.0359822794 -0.3027935891 0.1031542451
v 0.3298113097 -0.3513060842 0.0625943446
v 0.3132171099 -0.2626581276 0.0436764943
v 0.2949196589 -0.2742622064 0.0609654720
v 0.3336153494 -0.2699631386 0.0262873646
v 0.2548782289 -0.2595003040 0.0741790713
v 0.2768360785 -0.2616268080 0.0653461497
v 0.2749752342 -0.2301760721 0.0540641852
v 0.2618059064 -0.3023959151 0.0913296834
v 0.2746709293 -0.2839836998 0.0764232887
v 0.2859479275 -0.3055638343 0.0809730491
v 0.2678416477 -0.3499733445 0.1143523295
v 0.2878868790 -0.3322501944 0.0939532846
v 0.3205977498 -0.3001194237 0.0505677743
v -0.0357157932 -0.8674101515 0.1323074501
v -0.0277649155 -0.8411368971 0.1480226393
v 0.4173506453 -0.5423076730 0.0411947802
v 0.3717165431 -0.5413284334 0.1315835673
v 0.3652900789 -0.4415308704 0.0630567471
v 0.3909634779 -0.5014563405 0.0639025914
v -0.5330044282 -0.8079829505 0.0946623681
v -0.5182620022 -0.7895975386 0.1031383526
v -0.4907296401 -0.6346414123 0.1315315009
v -0.4667811036 -0.5938789063 0.1409163445
v -0.5057353963 -0.5993616982 0.1268014919
v -0.4734063012 -0.6174028123 0.1378870887
v -0.5040467102 -0.6194745443 0.1267261633
v -0.4252778163 -0.6182626620 0.1487232535
v -0.4856034206 -0.6012727519 0.1343946286
v -0.4896241224 -0.5633826979 0.1337068011
v -0.4492292248 -0.6115170640 0.1446716587
v -0.4431479043 -0.6358188885 0.1455343617
v -0.4244023405 -0.5692595332 0.1490751419
v -0.4155444634 -0.6460429164 0.1496072607
v -0.4423610383 -0.5871303841 0.1467612134
v -0.4177659274 -0.5938874823 0.1501961552
v -0.4560321660 -0.5554331402 0.1431130406
v -0.3813320702 -0.6184606764 0.1533571962
v -0.3783992691 -0.5700713563 0.1516979189
v -0.4587452302 -0.5754001175 0.1431495904
v -0.4032749193 -0.6116983777 0.1517363641
v -0.4015179046 -0.5763010597 0.1515429633
v -0.3978286405 -0.6330079632 0.1520322195
v -0.3752493737 -0.6419856009 0.1531897979
v -0.3843515427 -0.5939941346 0.1537587742
v -0.3973627899 -0.5457089652 0.1489220858
v -0.3349522471 -0.6402780092 0.1534554096
v -0.3410560659 -0.5920646798 0.1530741268
v -0.3558093856 -0.6244102764 0.1536509944
v -0.3548311010 -0.6474966260 0.1530578957
v -0.3360395102 -0.6735510201 0.1524570816
v -0.3629900064 -0.5866072529 0.1529234614
v -0.3325516894 -0.6154810609 0.1536311323
v -0.3651109352 -0.6065936049 0.1537421970
v -0.3456371750 -0.5636705562 0.1508416740
v -0.4367968575 -0.6847197986 0.1448913482
v -0.4357803998 -0.6601009431 0.1464910545
v -0.4187385750 -0.6731349735 0.1484022814
v -0.3974617193 -0.6882403551 0.1498910563
v -0.2785880852 -0.6022641635 0.1519920388
v -0.2816977237 -0.6474030236 0.1530297869
v -0.3086133875 -0.6459961217 0.1531422728
v -0.2351603112 -0.6823459814 0.1479138609
v -0.2360834267 -0.7035148832 0.1459546085
v -0.2696509638 -0.7283142951 0.1454777956
v -0.2561215047 -0.7115096802 0.1464626554
v -0.2825495787 -0.6961873465 0.1493129510
v -0.2429831508 -0.7359360357 0.1424044814
v -0.2831648914 -0.5712675801 0.1509751581
v -0.3012774223 -0.5611460925 0.1505411733
v -0.3227973334 -0.5740052015 0.1513938399
v -0.3217619829 -0.5513013750 0.1498594884
v -0.4082768670 -0.4537883894 0.1346824711
v -0.4261738931 -0.4389118791 0.1304394448
v -0.4567435513 -0.4726205621 0.1351390294
v -0.4459167639 -0.4517233213 0.1322888639
v -0.4697678346 -0.4408807326 0.1281165598
v -0.4338402939 -0.4712333790 0.1371563138
v -0.5149487854 -0.4409941044 0.1177050348
v -0.4427491523 -0.5139096905 0.1414328813
v -0.4923754834 -0.4340934717 0.1218433858
v -0.4441151330 -0.4913564999 0.1389388480
v -0.5050085620 -0.4085062483 0.1130422173
v -0.4934790028 -0.4708547779 0.1265300868
v -0.4737344041 -0.4976966357 0.1340736148
v -0.4193471533 -0.5011743380 0.1424435765
v -0.4856367609 -0.4526929742 0.1275530782
v -0.3893635255 -0.4787970769 0.1408802856
v -0.3800150114 -0.5007708440 0.1445993070
v -0.3495926205 -0.5067546620 0.1454089385
v -0.3997302172 -0.4961829780 0.1433518049
v -0.4038089538 -0.5211975258 0.1458911642
v -0.4259931860 -0.5401350118 0.1458823991
v -0.3213902853 -0.5234152396 0.1475128681
v -0.2760907180 -0.8068419843 0.1294407045
v -0.2981646785 -0.7918878681 0.1341133079
v -0.3170954513 -0.8095619322 0.1311729774
v -0.3263295944 -0.7806957466 0.1383164564
v -0.3565298446 -0.8276408166 0.1234442994
v -0.3469423440 -0.8449121095 0.1180882687
v -0.3818938297 -0.7954559067 0.1308134130
v -0.3639390830 -0.8073930585 0.1287500180
v -0.3543743862 -0.7810276066 0.1358729490
v -0.3868252120 -0.8223447314 0.1226049572
v -0.2596865267 -0.5442933943 0.1487284277
v -0.1412648279 -0.5454854889 0.1426021218
v -0.1595912615 -0.5227034619 0.1427868869
v -0.1766158171 -0.5671807534 0.1435649050
v -0.1722075052 -0.5433712342 0.1434942345
v -0.1900760445 -0.5182791706 0.1431432089
v -0.1692140990 -0.6107015259 0.1439383606
v -0.3217395070 -0.4671853345 0.1376807872
v -0.3045364999 -0.4916719763 0.1422898047
v -0.1547686735 -0.4535811983 0.1338353261
v -0.1735280357 -0.4208414207 0.1279052476
v -0.1805357879 -0.4466010433 0.1324062861
v -0.2250616685 -0.8273993643 0.1202761623
v -0.2462098516 -0.7879128517 0.1332733488
v -0.2567425210 -0.8043353597 0.1293743176
v -0.4844264857 -0.3631306983 0.1056575973
v -0.5060108647 -0.3539247737 0.0994805322
v -0.5199691751 -0.3668989511 0.0994576614
v -0.4675222718 -0.3452236255 0.1022171510
v -0.4864333572 -0.3236448354 0.0941635271
v -0.2440243113 -0.4215503512 0.1282039420
v -0.2178488307 -0.4481892272 0.1332532535
v -0.2357445868 -0.4395941674 0.1319992294
v -0.2158699682 -0.4211411536 0.1274605646
v -0.4096697500 -0.3976419291 0.1207887542
v 0.0597340274 -0.8004756492 0.1840990768
v -0.0023252526 -0.7773017167 0.1850173966
v 0.3448616631 -0.3326090671 0.0335700964
v 0.3233209411 -0.3306756204 0.0599199445
v 0.3063104718 -0.3473633052 0.0880573372
v 0.3105494198 -0.3941066332 0.1115587447
v 0.3145638514 -0.3701787121 0.0904065153
v 0.2883047224 -0.3667773275 0.1122107043
v 0.3450700656 -0.3875975110 0.0613020263
v 0.3344987291 -0.3706887461 0.0666672920
v 0.3566778748 -0.3685813496 0.0304759249
v 0.3394901787 -0.2895335120 0.0250048861
v 0.2810226087 -0.2093367072 0.0437540968
v 0.2575078481 -0.2138100858 0.0528084430
v 0.2426985423 -0.2358785432 0.0665081454
v 0.2646821951 -0.3262025911 0.1028890201
v 0.2178894536 -0.3197789308 0.1181132573
v 0.2421287709 -0.3168503711 0.1076530033
v 0.2338131906 -0.2849095440 0.0935037690
v 0.2338183667 -0.3498433662 0.1301610636
v -0.0047024869 -0.8415564815 0.1556733733
v 0.0009800588 -0.8095953610 0.1730579477
v 0.3287404595 -0.5532070275 0.1942565262
v 0.3596426373 -0.4627977174 0.0913979381
v 0.3219504424 -0.4414052346 0.1338644067
v 0.3336627476 -0.4646707645 0.1346269047
v 0.3436097832 -0.4450823775 0.1031458372
v 0.3500562347 -0.4164851551 0.0729737356
v 0.2834829469 -0.4753513574 0.1858714305
v 0.3151295964 -0.5008161267 0.1798588444
v 0.3071712836 -0.4634262033 0.1617818057
v 0.3305136665 -0.4858801260 0.1558636036
v 0.3448840608 -0.5160724128 0.1596809425
v 0.3800290048 -0.4532418666 0.0420112439
v 0.3715407975 -0.4920709686 0.0952414456
v 0.3716186814 -0.5166997367 0.1150269071
v -0.3742703541 -0.5472957029 0.1495111049
v -0.3584254935 -0.5350440517 0.1483780191
v -0.3248494007 -0.6572624099 0.1529329378
v -0.3128850338 -0.6774698590 0.1517544912
v -0.2944176243 -0.6325820934 0.1531517835
v -0.3178308924 -0.6285799937 0.1535867760
v -0.2706664660 -0.6776362153 0.1508001107
v -0.2235658746 -0.7249676930 0.1418455676
v -0.3181193773 -0.5969903222 0.1527889330
v -0.5042826341 -0.3900123951 0.1087273086
v -0.5346665158 -0.4131729262 0.1063115732
v -0.4647004255 -0.5181464763 0.1377702698
v -0.4693439932 -0.5388769087 0.1386816557
v -0.4754246488 -0.4782570703 0.1321652129
v -0.5055063748 -0.5003848832 0.1246978585
v -0.3355053647 -0.4954773970 0.1431119792
v -0.4473597811 -0.5353210768 0.1431903572
v -0.4371592109 -0.5553506330 0.1463716808
v -0.2912248353 -0.7568192895 0.1416190630
v -0.3406508648 -0.7556044105 0.1421751328
v -0.3785702679 -0.7683366179 0.1374481293
v -0.4068863276 -0.8047689262 0.1253004197
v -0.3806934829 -0.8402063502 0.1174228807
v -0.1697992098 -0.4976655553 0.1403120022
v -0.1933444622 -0.5395149699 0.1442433669
v -0.2164395502 -0.5089168369 0.1430286881
v -0.1982314892 -0.4699687929 0.1370492526
v -0.1996806490 -0.4359220039 0.1302885364
v 0.0800386804 -0.7977903729 0.1842657711
v 0.0653425924 -0.7808585450 0.1955554135
v 0.0211535478 -0.7860690781 0.1884116054
v 0.0221873675 -0.7474789962 0.2053112030
v 0.0150485331 -0.7665966373 0.1952740237
v -0.0092346524 -0.7466372072 0.1883754795
v 0.2506701781 -0.3917453877 0.1490676135
v 0.3455734674 -0.5694972585 0.1824834357
v 0.3503526271 -0.5477168108 0.1714856930
v 0.3221995001 -0.5768079764 0.2020579386
v 0.3067762069 -0.5598265573 0.2130590427
v 0.3098150734 -0.5301602735 0.1994061990
v 0.3690548524 -0.4220851928 0.0400664887
v 0.3650573604 -0.4006197793 0.0348555570
v 0.3304756898 -0.4049907244 0.0937357710
v 0.3097058058 -0.4193333531 0.1306628436
v 0.2801054449 -0.4057160132 0.1410277370
v 0.3026478927 -0.4839309021 0.1782292754
v 0.2789004072 -0.5112828671 0.2113276629
v -0.5473257222 -0.3909831311 0.0978747797
v -0.5451134530 -0.4347497734 0.1059577224
v -0.5180366511 -0.4222846983 0.1130149650
v -0.4888948867 -0.5076153605 0.1304721410
v -0.2876476123 -0.7757481628 0.1374274490
v -0.2668083569 -0.7631242355 0.1396251205
v -0.3080652577 -0.7698042848 0.1396585241
v -0.3156036397 -0.7426148641 0.1455012911
v -0.3449959447 -0.7303216090 0.1466108403
v -0.3980762391 -0.7797093956 0.1325674083
v -0.3973343374 -0.7585676847 0.1372420179
v -0.4358381596 -0.8065144085 0.1200388692
v -0.2273178105 -0.4848602038 0.1405214787
v -0.1964816460 -0.4945169592 0.1409204793
v -0.1937738642 -0.4159483913 0.1265258048
v -0.1790107720 -0.3991952978 0.1236920298
v -0.1504615336 -0.4034814959 0.1261733255
v 0.2656597421 -0.3734918243 0.1293525602
v 0.2432657326 -0.3703835745 0.1390133348
v 0.1994104686 -0.3781118450 0.1581514856
v 0.2239456228 -0.3890444969 0.1580028348
v 0.3309559811 -0.5320938089 0.1843639321
v 0.2808245928 -0.4405807137 0.1641559822
v 0.3014404857 -0.4383510060 0.1486234343
v 0.2990389991 -0.5130552866 0.1983954637
v 0.2871828610 -0.5324715424 0.2176941601
v 0.2561547716 -0.5323870264 0.2342126462
v -0.2600104647 -0.7450480794 0.1427170341
v -0.2934916529 -0.7326871202 0.1462534292
v -0.3155883249 -0.7130601745 0.1498078397
v -0.4400578854 -0.7868333410 0.1240783439
v -0.4568655249 -0.8117579461 0.1157113902
v -0.4565768688 -0.8356868722 0.1098586043
v -0.4199325190 -0.8293561134 0.1163116085
v -0.2177050185 -0.4677843641 0.1373948076
v -0.1615759002 -0.3874452732 0.1218253159
v -0.1536856251 -0.4232020157 0.1294494828
v -0.1301406321 -0.4051366383 0.1279496169
v 0.2190765246 -0.3669744392 0.1462131829
v 0.2092488373 -0.3436089442 0.1352476103
v 0.1784683590 -0.3189666081 0.1244996174
v 0.1980410343 -0.3260635399 0.1266489269
v 0.1987082319 -0.2936851994 0.1080648427
v 0.1778011613 -0.3513449486 0.1444024092
v 0.2893015830 -0.4574195568 0.1698108054
v 0.2645848872 -0.4593092465 0.1869015276
v 0.2470558349 -0.4277045477 0.1740764532
v 0.2548284631 -0.4899548691 0.2120853557
v 0.2615897071 -0.4403070195 0.1749945164
v 0.2370635652 -0.4539100608 0.1958894925
v -0.3266876133 -0.7278317717 0.1481409921
v -0.2951485053 -0.7123004011 0.1482293148
v -0.3254893144 -0.6944103138 0.1515807577
v -0.4393905485 -0.8259468224 0.1146767804
v 0.2354901743 -0.4083808316 0.1658437421
v 0.1959510707 -0.4188727872 0.1852016851
v 0.2202338723 -0.4306350638 0.1866999510
v 0.2142185865 -0.4079663625 0.1731438615
v 0.2575728177 -0.5111058953 0.2228398909
v 0.2159053774 -0.5057587097 0.2366806011
v 0.2352156073 -0.5203039563 0.2380555290
v 0.2359355959 -0.4992573737 0.2259613740
v 0.2365082310 -0.4765839324 0.2109311134
v 0.2019816490 -0.5443345414 0.2586053094
v 0.1981832674 -0.4643015314 0.2145941491
v 0.2148926492 -0.5271939326 0.2486827353
v 0.1806510455 -0.5148346193 0.2421480140
v 0.2230206038 -0.5467490852 0.2553986585
v 0.2096815109 -0.5701103315 0.2656648857
v 0.2191493153 -0.4648150370 0.2101994887
v 0.2081767464 -0.4845460320 0.2270792337
v 0.1794831042 -0.4861215017 0.2262538173
v 0.2000086804 -0.4414426245 0.1991048071
v 0.1549816058 -0.4378879431 0.1950581195
v 0.1765943826 -0.4510751985 0.2055718119
v 0.1755294024 -0.4285162411 0.1915122510
v 0.1496448846 -0.4709387383 0.2124219237
v 0.1728439453 -0.3963844046 0.1719417451
v 0.1567255825 -0.5718916046 0.2563777958
v 0.1982472575 -0.5962064329 0.2692618077
v 0.1528323993 -0.5015858644 0.2286296271
v 0.1829697987 -0.5640518123 0.2614914059
v 0.1860590641 -0.6171934070 0.2661000807
v 0.1713104600 -0.5945955133 0.2637807876
v 0.1611543452 -0.4852309991 0.2220181440
v 0.0928521602 -0.4923349024 0.2070765273
v 0.1531109082 -0.5368311046 0.2446304124
v 0.1855483918 -0.5825333190 0.2657931388
v 0.1345076320 -0.6022008856 0.2522611263
v 0.1240562397 -0.4890894606 0.2146786343
v 0.1654573601 -0.5532747909 0.2540881475
v 0.1615359908 -0.5191408089 0.2395259629
v 0.1391230121 -0.5193179169 0.2330199784
v 0.1127522194 -0.5547231445 0.2366348323
v 0.1305836761 -0.5404810449 0.2382071949
v 0.1082169156 -0.5191516646 0.2224508873
v 0.1345658563 -0.5637505915 0.2462191562
v 0.1138478092 -0.5829444098 0.2434461871
v 0.1400751450 -0.5829841253 0.2513081272
v 0.1419666246 -0.4872266558 0.2186111170
v 0.1237297464 -0.5081212893 0.2229902169
v 0.0578668740 -0.5301898670 0.2082749762
v 0.0874918053 -0.6319321087 0.2410179027
v 0.0813075085 -0.5167594755 0.2127186317
v 0.0728166313 -0.5704054000 0.2264837244
v 0.1070982310 -0.6108968329 0.2449815010
v 0.0570154560 -0.4903367962 0.1939329452
v 0.0928751767 -0.5391825722 0.2243362590
v 0.0920568106 -0.5607113677 0.2310201177
v 0.0887482885 -0.5916748230 0.2374090658
v 0.1205488046 -0.6430887117 0.2487167505
v 0.0745279882 -0.4986143650 0.2037220298
v 0.0759606396 -0.4729192820 0.1934059344
v 0.1056876460 -0.4641124838 0.1981327066
v 0.0534133319 -0.4674065556 0.1832635502
v 0.0707394579 -0.4454080262 0.1796905031
v 0.0416485018 -0.6103530274 0.2201498177
v 0.1065433588 -0.6300346052 0.2458486718
v 0.0991152081 -0.6520442054 0.2438421655
v 0.1267615698 -0.6223830701 0.2508674480
v 0.1436523086 -0.6387360634 0.2541993450
v 0.0549875302 -0.6641321452 0.2301338843
v 0.1184936972 -0.6682968834 0.2459768630
v 0.0754651260 -0.6522975091 0.2383458705
v 0.1303917379 -0.6913147991 0.2331583199
v 0.0605232958 -0.6297398444 0.2322836096
v 0.0850192538 -0.6924627354 0.2358884442
v 0.1497028729 -0.6878307812 0.2316482102
v 0.1076198013 -0.6885016652 0.2380715897
v 0.0874881574 -0.6706565194 0.2402898950
v 0.1012629104 -0.7186874968 0.2248525671
v 0.1207098294 -0.7101968964 0.2256055675
v 0.1191734534 -0.7331939389 0.2137829694
v 0.1075468260 -0.4819880171 0.2068121767
v 0.1277247946 -0.4671487149 0.2053046705
v 0.1211107559 -0.4336622138 0.1863102870
v 0.0522974111 -0.4435304142 0.1735366460
v 0.0872708038 -0.4565217248 0.1893444074
v 0.0935465634 -0.4293348618 0.1779771498
v 0.0626604802 -0.5946142065 0.2285755595
v 0.0309927649 -0.5670940990 0.2050507700
v 0.0777703421 -0.6114804379 0.2365389822
v 0.0409867274 -0.5875741896 0.2152736686
v 0.0107367645 -0.5896572026 0.1987471874
v 0.0283314407 -0.6421999286 0.2162469907
v 0.0628028180 -0.7243666825 0.2231936589
v 0.1052469947 -0.4447582434 0.1886486580
v 0.1124589202 -0.3988200113 0.1658976271
v 0.0100555542 -0.5686716945 0.1950228085
v -0.0069914761 -0.5861004215 0.1888756835
v -0.0016000400 -0.6051878841 0.1943500587
v 0.0198137631 -0.6095327350 0.2072069835
v 0.0043062757 -0.6310202240 0.2013592787
v 0.0417733678 -0.6291130147 0.2229012445
v 0.0840276382 -0.7350359265 0.2192834654
v 0.0808055751 -0.7132157477 0.2300838778
v 0.0589041743 -0.6979646234 0.2292415044
v 0.1094375272 -0.4180655588 0.1756339492
v 0.1337646417 -0.4120247755 0.1771857306
v 0.0907523712 -0.4052722019 0.1652287369
v 0.1417536551 -0.3753439632 0.1574213949
v 0.1312635370 -0.3922696372 0.1655954528
v 0.1515179562 -0.3997412166 0.1725254876
v 0.1163364514 -0.3713045991 0.1514527831
v 0.0017775771 -0.6678592631 0.2022108255
v 0.0686909345 -0.6796887054 0.2349985383
v 0.0309220610 -0.7155854598 0.2145084066
v 0.0101226226 -0.6499257754 0.2061204817
v -0.0129794788 -0.6466857193 0.1918532328
v 0.0286240535 -0.6694434605 0.2169849716
v 0.0137455632 -0.6933126765 0.2082070252
v 0.0449583793 -0.6824361237 0.2247317279
v -0.0126159236 -0.6901673001 0.1927217124
v 0.0022207749 -0.7199599963 0.1991171671
v 0.0324177743 -0.6966724400 0.2176213831
v -0.0178913766 -0.6709660174 0.1897656316
v 0.0067272400 -0.7376932475 0.1992121961
v -0.0202901822 -0.7260917305 0.1846507911
v -0.0288169295 -0.7439272079 0.1759307400
v -0.0269559897 -0.7696514510 0.1727432829
v -0.0256875123 -0.7061568291 0.1830684555
v -0.0246116453 -0.7977527975 0.1657873793
v -0.0193439202 -0.8199423133 0.1611794685
v 0.2384627710 -0.1927143580 0.0453984549
v -0.3871866505 -0.2937180763 0.0890101334
v -0.4067856749 -0.2852048226 0.0855434787
v -0.3760182928 -0.3259933341 0.0994332400
v -0.4189277984 -0.2991479009 0.0898404425
v -0.3892133565 -0.3124893351 0.0948193056
v -0.3682993207 -0.3052523539 0.0933765769
v -0.3447678053 -0.3258166910 0.1004264228
v -0.3487809919 -0.2936849518 0.0904313829
v -0.0022391179 -0.4120967845 0.1453439540
v -0.4693809065 -0.2583167675 0.0736733054
v 0.4301058718 -0.6112734116 0.0560462811
v -0.5146081656 -0.8426999749 0.0944004119
v -0.3377810799 -0.4042352132 0.1233203464
v -0.3266430748 -0.3712279000 0.1143617056
v -0.0907994963 -0.4015193450 0.1288950053
v -0.0725928779 -0.4141372751 0.1327131215
v -0.0381277663 -0.3885760761 0.1306607959
v -0.0519456761 -0.4059607693 0.1336425250
v -0.0285348846 -0.4207140629 0.1421369747
v -0.0660552123 -0.3805622543 0.1253973105
v -0.0204964126 -0.4008139707 0.1374268449
v 0.0085104888 -0.3742893638 0.1330515933
v -0.0164309141 -0.3761368836 0.1296103399
v -0.0381718134 -0.4381141891 0.1455687305
v -0.0068258372 -0.4441061886 0.1557108381
v -0.0450481537 -0.3600237764 0.1206228645
v -0.0729697154 -0.3552184771 0.1165768977
v -0.0634095837 -0.3374448923 0.1109655023
v -0.0392213582 -0.3396180601 0.1132731603
v 0.3722377116 -0.5961040668 0.1394262301
v 0.2269626629 -0.6115039236 0.2648438176
v 0.2294916916 -0.6346272047 0.2533101308
v -0.2111273975 -0.5894403363 0.1481934290
v -0.1521628154 -0.4812792274 0.1376062323
v -0.1812570941 -0.6815740388 0.1413951651
v -0.2209254256 -0.6306125713 0.1481606171
v -0.2004065489 -0.6191463140 0.1474695237
v -0.1998598019 -0.7561276289 0.1349799187
v -0.2176315832 -0.7667763906 0.1345183008
v -0.5689112799 -0.3700249553 0.0878837008
v -0.5440797174 -0.2990383434 0.0767398635
v -0.3611440904 -0.3744090823 0.1143982647
v -0.3792656380 -0.3523719833 0.1075676973
v -0.2470423600 -0.3103992478 0.0987415896
v -0.2832505138 -0.3249674344 0.1027453575
v -0.2395569309 -0.3464276662 0.1090782150
v 0.1220161576 -0.7568522908 0.2000070955
v -0.0454458318 -0.8945345114 0.1149245576
v -0.5035465086 -0.8227908256 0.1012755556
v -0.1478558534 -0.5991800490 0.1409795985
v -0.1631171817 -0.6325220211 0.1426591354
v -0.1773754801 -0.6527956567 0.1430172013
v -0.2577105588 -0.3984814253 0.1229886456
v -0.0671266977 -0.5397234849 0.1554929610
v -0.0122392389 -0.5130474392 0.1724004640
v 0.0043317275 -0.4900439126 0.1728615295
v 0.0032867576 -0.4659738575 0.1655124457
v 0.0146691322 -0.4474380408 0.1630340447
v -0.0176767504 -0.4691062703 0.1599507785
v -0.0528377269 -0.5665276674 0.1633143516
v -0.0381656551 -0.5841311406 0.1723349637
v 0.1618872604 -0.7159603575 0.2127589327
v 0.0875083173 -0.3542682312 0.1372720670
v 0.0690690007 -0.3634692786 0.1391427488
v 0.0496411531 -0.3502315251 0.1288650643
v 0.0284259884 -0.3611494533 0.1306594738
v 0.0065378089 -0.3477641490 0.1218511705
v 0.0357724488 -0.3939465273 0.1466031601
v 0.0107334854 -0.3256252679 0.1122831473
v -0.0090170802 -0.3093941510 0.1029099306
v -0.0217955591 -0.3257298885 0.1089947946
v 0.0098613430 -0.2850128096 0.0923060782
v 0.2947881161 -0.2328300919 0.0463868378
v 0.3895804189 -0.5456854094 0.1033736445
v 0.4047732861 -0.5138348145 0.0444623461
v -0.5270090334 -0.6004287051 0.1165920761
v -0.5174734128 -0.5779398741 0.1230379394
v -0.4987852440 -0.5433173849 0.1299692258
v -0.3523417717 -0.6859885800 0.1518775879
v -0.5300479881 -0.4675105260 0.1138400797
v -0.5322701328 -0.4486880057 0.1121411558
v -0.5281076039 -0.4916596496 0.1157600085
v -0.5125936772 -0.4782605874 0.1208405150
v -0.2131341391 -0.8081037088 0.1252261664
v 0.2541488220 -0.2803320043 0.0843906204
v 0.2232435419 -0.2576735243 0.0825130841
v 0.2059170503 -0.2500033527 0.0803227356
v 0.1996032857 -0.2713971509 0.0938362075
v 0.2385518687 -0.2674016522 0.0832110807
v 0.0182664624 -0.8180303208 0.1725737472
v 0.0482335732 -0.7522768188 0.2091640808
v 0.0380118333 -0.7346699930 0.2135317666
v 0.3303202334 -0.5945317313 0.1869955281
v 0.2986655016 -0.5777578640 0.2219149197
v 0.2906327341 -0.3876001339 0.1236717581
v 0.2626226754 -0.5531767414 0.2401061758
v -0.2351791433 -0.4590993967 0.1363639763
v 0.1677192093 -0.2984419859 0.1119417557
v 0.1518358918 -0.3252258795 0.1278916507
v 0.1362598729 -0.3481656192 0.1405844568
v 0.1681731869 -0.3349505072 0.1343706018
v 0.1568090756 -0.3526486506 0.1451129705
v 0.1686173780 -0.3731266792 0.1578400299
v 0.2187065697 -0.2990814568 0.1059376388
v 0.1962505689 -0.3585566750 0.1467969779
v 0.2596548604 -0.4108096834 0.1568713272
v 0.2741316368 -0.4924167072 0.2026415819
v 0.1936242076 -0.3981480340 0.1732525658
v 0.1547313697 -0.6072165270 0.2588024031
v 0.1808647360 -0.5371418605 0.2523830300
v 0.0284770296 -0.5330867593 0.1951393608
v 0.0167172426 -0.5495596446 0.1939136708
v 0.0448803009 -0.5489700290 0.2074741595
v 0.0410994792 -0.5106124542 0.1941908126
v 0.0601891974 -0.5112318143 0.2027221321
v 0.0379540095 -0.4917586377 0.1867441648
v 0.0719963134 -0.5478238613 0.2195309256
v 0.1365190913 -0.4480152901 0.1973269915
v 0.0732243670 -0.4206452581 0.1689704408
v -0.3603354236 -0.3360997045 0.1028665412
v -0.3177347320 -0.3136500852 0.0978501834
v -0.3363310987 -0.3084464752 0.0954543466
v -0.3209457338 -0.3426313337 0.1063734212
v -0.2983888324 -0.3128984627 0.0984301735
v -0.3023105229 -0.3333461189 0.1044493576
v -0.2998096498 -0.3617081389 0.1126989970
v -0.3403073554 -0.3447795972 0.1061687780
v -0.3070092335 -0.3839922890 0.1186355705
v -0.2918937884 -0.3947986039 0.1220669207
v -0.2654008816 -0.3177857157 0.1006511961
v -0.2687077363 -0.3446734557 0.1086100103
v -0.2879918440 -0.3463748127 0.1087179778
v -0.2767007292 -0.3642154904 0.1140005495
v 0.0546875985 -0.3811844743 0.1452370179
v 0.0134776456 -0.3961335552 0.1427146105
v 0.0233482229 -0.4215704008 0.1558652329
v 0.0058327445 -0.4295867490 0.1539081589
v 0.0509892282 -0.4057550511 0.1560659074
v -0.5187494671 -0.5548962009 0.1227615943
v -0.5272108955 -0.5125699119 0.1170063578
f 118 119 117
f 185 642 186
f 117 119 120
f 304 230 412
f 115 116 121
f 120 116 117
f 279 175 280
f 244 243 122
f 121 116 120
f 527 393 154
f 533 68 69
f 269 268 266
f 244 122 123
f 319 123 124
f 256 123 319
f 253 440 330
f 448 450 444
f 114 243 244
f 264 261 250
f 256 113 244
f 112 245 111
f 255 263 1108
f 113 256 112
f 316 245 436
f 173 511 651
f 243 121 122
f 152 153 528
f 241 242 254
f 237 265 236
f 316 110 111
f 576 109 351
f 1109 352 1146
f 265 264 236
f 576 467 108
f 255 32 33
f 150 151 257
f 108 467 107
f 329 262 24
f 316 111 245
f 406 1107 151
f 589 584 592
f 353 581 468
f 107 467 580
f 237 249 265
f 9 10 260
f 354 599 603
f 103 104 605
f 245 112 256
f 354 603 105
f 10 11 326
f 565 567 260
f 104 603 605
f 101 475 100
f 1190 902 904
f 109 110 351
f 354 105 106
f 410 303 229
f 264 250 1145
f 278 174 279
f 327 34 35
f 359 476 276
f 361 136 358
f 478 132 133
f 127 466 126
f 360 477 135
f 260 259 9
f 261 259 250
f 363 478 479
f 136 361 135
f 268 251 262
f 277 276 139
f 494 189 188
f 277 140 300
f 286 173 278
f 526 392 525
f 368 177 366
f 174 278 173
f 136 137 358
f 175 279 174
f 362 626 487
f 139 276 138
f 176 280 175
f 141 179 300
f 358 137 476
f 264 235 236
f 509 173 172
f 165 614 166
f 941 885 919
f 166 167 506
f 770 163 162
f 627 628 163
f 615 762 470
f 627 369 489
f 272 596 597
f 617 471 761
f 627 163 164
f 634 494 188
f 800 130 801
f 376 499 284
f 512 510 384
f 500 196 195
f 515 384 514
f 485 483 275
f 283 376 375
f 168 501 502
f 625 131 365
f 501 168 169
f 379 378 501
f 616 764 470
f 502 167 168
f 286 197 381
f 383 509 510
f 171 514 510
f 636 1147 635
f 176 288 201
f 232 301 233
f 307 306 199
f 882 620 791
f 485 365 363
f 629 891 811
f 94 95 386
f 152 151 517
f 90 258 248
f 661 392 526
f 92 93 387
f 514 171 170
f 539 928 929
f 290 323 324
f 290 387 388
f 75 76 407
f 386 519 656
f 286 278 198
f 778 788 776
f 776 777 778
f 377 194 193
f 389 149 323
f 149 246 148
f 148 147 322
f 253 241 439
f 78 79 246
f 247 246 149
f 147 325 322
f 77 78 247
f 822 876 821
f 197 198 301
f 80 148 79
f 87 88 144
f 397 549 681
f 144 88 145
f 144 84 143
f 85 86 143
f 233 306 234
f 143 84 85
f 143 86 87
f 144 143 87
f 169 170 379
f 144 83 84
f 557 16 17
f 248 145 89
f 89 90 248
f 146 147 81
f 80 147 148
f 248 258 325
f 81 147 80
f 83 145 82
f 83 144 145
f 329 24 25
f 82 145 146
f 146 81 82
f 131 132 365
f 73 74 1098
f 145 88 89
f 182 402 401
f 64 542 63
f 340 269 344
f 166 764 167
f 1179 1237 881
f 619 774 472
f 160 496 814
f 157 158 525
f 153 154 393
f 824 153 825
f 157 524 156
f 154 153 529
f 774 775 779
f 155 156 659
f 524 392 391
f 530 671 830
f 398 930 951
f 161 495 496
f 186 549 185
f 161 162 495
f 187 186 641
f 531 1112 184
f 181 404 182
f 65 181 400
f 181 401 400
f 534 1143 533
f 532 183 182
f 402 1124 401
f 187 547 186
f 161 496 160
f 822 821 657
f 404 66 297
f 151 152 406
f 151 150 518
f 407 408 75
f 298 408 407
f 318 207 208
f 257 1107 77
f 247 149 150
f 528 393 395
f 407 1107 298
f 438 33 34
f 90 91 258
f 77 247 257
f 27 241 253
f 1220 1218 1104
f 241 254 255
f 546 66 67
f 405 297 546
f 114 115 243
f 113 114 244
f 73 1098 1103
f 320 319 124
f 244 123 256
f 394 292 393
f 348 350 335
f 66 181 65
f 1105 1103 1219
f 537 405 535
f 92 324 91
f 548 409 547
f 618 158 157
f 159 158 620
f 254 31 32
f 188 189 559
f 1158 224 678
f 180 179 141
f 142 1 180
f 179 180 204
f 179 178 300
f 201 288 202
f 202 178 203
f 203 204 239
f 203 178 179
f 179 204 203
f 202 203 238
f 180 205 204
f 141 142 180
f 1 205 180
f 2 240 1
f 240 2 3
f 240 205 1
f 552 12 13
f 240 239 204
f 237 202 238
f 4 238 239
f 317 237 238
f 249 237 317
f 239 240 3
f 203 239 238
f 305 231 230
f 205 240 204
f 717 851 1096
f 202 237 201
f 199 198 278
f 196 381 197
f 301 198 306
f 302 197 301
f 194 303 193
f 644 193 192
f 195 305 304
f 198 197 286
f 195 194 375
f 195 196 305
f 198 199 306
f 376 500 375
f 200 201 236
f 279 200 199
f 236 235 200
f 264 265 261
f 201 237 236
f 235 234 307
f 301 232 302
f 567 1145 250
f 231 305 302
f 326 565 260
f 250 260 567
f 301 306 233
f 717 233 716
f 307 200 235
f 200 280 201
f 304 305 230
f 4 239 3
f 377 283 375
f 217 216 1160
f 279 280 200
f 249 6 7
f 317 5 6
f 8 9 259
f 261 8 259
f 259 260 250
f 175 174 362
f 270 267 332
f 10 326 260
f 1133 507 1134
f 5 238 4
f 552 554 12
f 158 618 620
f 851 852 1096
f 251 267 270
f 139 140 277
f 14 15 555
f 413 684 683
f 33 263 255
f 556 414 555
f 247 150 257
f 335 338 340
f 557 556 16
f 435 352 1109
f 683 566 554
f 672 398 404
f 1092 1093 900
f 261 7 8
f 145 248 146
f 19 442 441
f 20 442 19
f 228 411 410
f 900 832 899
f 332 22 270
f 47 48 252
f 332 334 21
f 270 22 23
f 146 325 147
f 19 441 18
f 268 262 329
f 178 177 368
f 329 330 266
f 491 1147 490
f 520 386 521
f 23 24 262
f 242 28 29
f 172 173 286
f 28 242 241
f 323 149 148
f 1233 1232 1106
f 28 241 27
f 251 270 262
f 27 253 26
f 141 300 140
f 31 29 30
f 303 194 304
f 304 412 303
f 419 226 418
f 551 303 411
f 191 192 416
f 191 190 490
f 550 419 310
f 310 418 417
f 189 190 422
f 164 165 488
f 421 311 420
f 445 568 441
f 417 191 416
f 678 223 676
f 1037 1032 1016
f 190 633 490
f 299 409 673
f 332 21 22
f 299 677 1156
f 446 448 444
f 342 443 331
f 675 676 1152
f 531 184 185
f 331 333 341
f 63 544 62
f 992 1004 1010
f 993 463 982
f 543 403 542
f 442 334 336
f 680 1121 681
f 458 460 349
f 1168 1166 1167
f 400 543 65
f 694 216 215
f 542 544 63
f 29 31 242
f 78 246 247
f 1164 699 1166
f 261 249 7
f 695 426 697
f 425 426 312
f 148 246 79
f 692 562 215
f 330 25 26
f 213 690 560
f 846 850 713
f 561 424 690
f 563 833 42
f 938 939 906
f 58 424 57
f 249 261 265
f 424 58 425
f 569 438 327
f 314 211 210
f 561 56 57
f 625 800 801
f 211 313 691
f 692 312 562
f 952 932 850
f 278 279 199
f 1044 1068 309
f 423 559 422
f 517 151 518
f 42 43 563
f 833 41 42
f 530 154 529
f 1174 101 102
f 429 431 46
f 191 490 493
f 711 705 708
f 45 427 44
f 359 276 367
f 1137 386 95
f 842 563 43
f 405 67 68
f 718 36 1172
f 196 197 302
f 241 1108 439
f 269 251 268
f 277 300 178
f 202 288 177
f 997 996 993
f 171 172 380
f 267 337 333
f 458 348 346
f 670 669 473
f 380 286 284
f 23 262 270
f 841 703 840
f 302 305 196
f 314 54 55
f 707 709 845
f 707 708 709
f 314 1097 54
f 299 675 677
f 1097 53 54
f 52 208 207
f 208 52 53
f 209 208 53
f 231 302 232
f 427 434 315
f 210 1097 314
f 206 51 207
f 207 51 52
f 177 176 366
f 318 252 207
f 252 318 429
f 206 252 48
f 206 50 51
f 206 48 49
f 49 50 206
f 761 615 164
f 207 252 206
f 306 307 234
f 201 280 176
f 194 195 304
f 434 45 431
f 176 177 288
f 200 307 199
f 32 255 254
f 242 31 254
f 121 243 115
f 193 551 192
f 202 177 178
f 190 191 417
f 1090 1189 1080
f 58 59 425
f 59 60 426
f 55 56 313
f 56 561 691
f 55 313 314
f 211 314 313
f 315 708 705
f 706 427 704
f 320 321 436
f 316 465 351
f 5 317 238
f 6 249 317
f 433 430 432
f 47 429 46
f 320 124 125
f 245 256 319
f 125 435 320
f 245 319 320
f 126 435 125
f 465 271 351
f 258 91 324
f 323 322 324
f 323 290 389
f 148 322 323
f 324 322 258
f 324 92 387
f 248 325 146
f 322 325 258
f 685 12 554
f 566 437 565
f 36 37 721
f 569 263 438
f 345 328 571
f 330 440 455
f 330 329 25
f 268 329 266
f 26 253 330
f 253 439 440
f 333 331 334
f 444 454 445
f 333 332 267
f 332 333 334
f 337 267 338
f 340 338 251
f 334 331 336
f 20 21 334
f 834 428 835
f 339 341 337
f 342 331 341
f 556 1144 686
f 338 267 251
f 337 335 339
f 340 251 269
f 335 337 338
f 348 340 347
f 996 1206 449
f 269 345 344
f 327 718 570
f 337 341 333
f 342 341 339
f 464 339 350
f 450 452 444
f 37 38 574
f 344 347 340
f 266 455 269
f 347 344 1190
f 263 569 571
f 344 345 1127
f 573 456 570
f 975 972 961
f 1190 344 343
f 348 347 346
f 458 350 348
f 340 348 335
f 902 573 903
f 940 972 974
f 464 350 349
f 339 335 350
f 316 351 110
f 467 576 723
f 945 946 967
f 589 591 582
f 353 588 600
f 600 601 945
f 353 580 467
f 597 599 272
f 615 470 614
f 272 577 579
f 619 472 618
f 740 753 756
f 102 1173 1174
f 917 273 878
f 137 138 476
f 361 358 648
f 276 366 367
f 358 359 626
f 647 362 651
f 135 477 134
f 648 358 274
f 135 361 360
f 173 509 511
f 626 367 487
f 133 134 622
f 481 363 479
f 169 168 624
f 167 764 765
f 365 132 478
f 625 365 798
f 366 176 367
f 368 366 276
f 175 487 176
f 362 487 175
f 276 277 368
f 178 368 277
f 166 506 507
f 369 281 1130
f 281 369 1134
f 492 493 370
f 498 497 641
f 630 629 632
f 806 163 628
f 637 496 372
f 643 498 642
f 540 539 536
f 373 815 817
f 537 536 295
f 377 375 194
f 379 376 283
f 171 499 170
f 381 500 284
f 492 645 644
f 1132 505 285
f 377 503 283
f 1149 1132 285
f 376 379 170
f 378 379 283
f 286 380 172
f 499 380 284
f 500 381 196
f 286 381 284
f 646 285 645
f 166 507 165
f 652 513 287
f 274 362 647
f 515 170 169
f 515 516 384
f 149 389 150
f 1138 389 522
f 386 1137 519
f 388 1138 522
f 387 93 520
f 324 387 290
f 94 520 93
f 521 386 289
f 522 389 290
f 518 389 385
f 1111 390 1139
f 1098 1102 1103
f 391 1110 1111
f 523 391 1139
f 158 159 660
f 392 661 1110
f 527 154 155
f 393 292 1101
f 394 527 523
f 394 1140 1100
f 1099 292 1098
f 406 528 298
f 825 152 517
f 668 530 396
f 547 549 186
f 1113 1112 397
f 532 404 398
f 949 929 930
f 1141 533 69
f 662 374 664
f 401 181 182
f 400 296 543
f 402 182 183
f 296 400 401
f 183 184 1112
f 1112 1113 1117
f 402 1117 1124
f 1116 1106 1118
f 66 404 181
f 404 297 672
f 535 68 533
f 536 537 535
f 406 152 528
f 406 298 1107
f 1107 407 76
f 408 298 395
f 395 393 1101
f 74 75 408
f 548 187 188
f 679 549 409
f 229 228 410
f 228 550 411
f 310 416 551
f 303 410 411
f 230 229 412
f 303 412 229
f 14 555 553
f 684 413 831
f 1188 896 687
f 553 413 552
f 688 18 441
f 445 336 443
f 416 192 551
f 417 416 310
f 310 419 418
f 190 417 420
f 421 226 225
f 420 418 421
f 550 310 411
f 226 419 227
f 420 311 422
f 417 418 420
f 226 421 418
f 421 225 1158
f 420 422 190
f 423 422 311
f 224 223 678
f 673 409 548
f 560 424 312
f 690 212 561
f 426 425 59
f 424 425 312
f 700 697 60
f 312 426 562
f 429 432 431
f 427 315 704
f 564 705 712
f 712 705 711
f 252 429 47
f 318 432 429
f 318 433 432
f 845 844 210
f 434 431 430
f 45 46 431
f 433 318 208
f 431 432 430
f 208 209 433
f 843 709 1170
f 434 430 1170
f 45 434 427
f 435 126 466
f 320 435 321
f 320 436 245
f 465 436 321
f 233 717 232
f 716 234 1145
f 33 438 263
f 34 327 438
f 1108 241 255
f 439 328 440
f 328 345 440
f 455 345 269
f 443 336 331
f 568 1159 688
f 334 442 20
f 441 442 336
f 446 443 342
f 446 445 443
f 1129 339 464
f 1011 1019 1002
f 452 454 444
f 441 336 445
f 342 1129 448
f 445 446 444
f 349 460 462
f 979 1207 977
f 342 448 446
f 447 996 450
f 463 575 462
f 1206 1033 1034
f 447 450 448
f 449 1034 452
f 1019 1031 1033
f 1046 689 1045
f 449 452 450
f 454 452 1041
f 415 558 689
f 558 415 557
f 1041 452 451
f 454 453 568
f 330 455 266
f 440 345 455
f 456 569 570
f 344 1127 343
f 574 38 864
f 840 703 837
f 905 1191 904
f 349 350 458
f 908 907 39
f 901 932 934
f 1191 458 346
f 1193 462 460
f 720 857 854
f 976 984 975
f 1193 460 459
f 463 462 461
f 981 974 979
f 464 1128 1129
f 349 575 464
f 464 575 1128
f 436 465 316
f 1109 465 321
f 601 466 127
f 435 466 352
f 108 109 576
f 353 468 580
f 272 354 577
f 354 578 577
f 732 725 727
f 605 728 103
f 615 165 164
f 768 873 355
f 795 791 621
f 272 584 596
f 619 157 156
f 620 472 789
f 530 155 154
f 784 293 876
f 783 779 776
f 598 469 597
f 1236 475 101
f 1237 475 357
f 276 476 138
f 358 476 359
f 360 648 649
f 479 482 481
f 479 478 133
f 365 478 363
f 482 622 477
f 482 650 652
f 653 818 1181
f 481 483 363
f 479 622 482
f 481 480 483
f 383 512 513
f 480 481 482
f 1181 384 516
f 820 819 623
f 874 167 765
f 1135 1136 515
f 483 485 363
f 275 365 485
f 796 275 483
f 733 598 758
f 626 362 274
f 176 487 367
f 1133 488 165
f 369 164 488
f 630 631 629
f 628 630 632
f 633 190 189
f 646 370 1148
f 491 633 494
f 636 635 371
f 285 505 504
f 493 192 191
f 370 493 490
f 192 493 492
f 634 188 187
f 494 807 635
f 806 495 162
f 496 495 372
f 637 372 282
f 640 814 639
f 892 629 811
f 371 635 807
f 643 185 184
f 498 815 1131
f 499 171 380
f 376 170 499
f 375 500 195
f 284 500 376
f 379 501 169
f 502 501 378
f 502 378 505
f 506 167 1132
f 503 377 504
f 378 283 503
f 644 377 193
f 646 645 492
f 378 503 505
f 504 505 503
f 1132 167 502
f 507 506 382
f 507 382 508
f 488 1133 369
f 1149 285 646
f 812 370 1147
f 510 509 172
f 511 509 383
f 171 510 172
f 512 384 287
f 649 383 513
f 362 174 651
f 513 512 287
f 383 510 512
f 477 650 482
f 650 360 649
f 515 514 170
f 510 514 384
f 624 1135 169
f 1136 364 516
f 516 819 653
f 480 653 483
f 385 654 517
f 654 655 517
f 389 518 150
f 517 518 385
f 97 877 914
f 289 656 655
f 386 520 94
f 387 520 388
f 289 654 1138
f 520 521 388
f 290 388 522
f 388 521 1138
f 659 524 523
f 523 1139 1140
f 524 157 525
f 523 524 391
f 525 158 660
f 524 525 392
f 813 159 814
f 661 291 1110
f 527 155 659
f 393 527 394
f 393 528 153
f 528 395 298
f 824 529 153
f 530 529 396
f 396 821 668
f 473 671 670
f 549 531 185
f 1112 531 397
f 404 532 182
f 951 532 398
f 533 1141 534
f 535 533 399
f 71 1221 1227
f 540 541 538
f 535 399 536
f 68 535 405
f 541 540 399
f 539 295 536
f 295 949 672
f 297 405 537
f 639 638 374
f 536 399 540
f 1150 826 538
f 815 498 643
f 541 399 1143
f 539 540 538
f 534 1141 1227
f 1226 663 667
f 543 542 64
f 544 542 403
f 543 64 65
f 543 296 1125
f 403 1126 1168
f 1161 1231 217
f 401 1124 296
f 1231 1162 1163
f 66 546 297
f 67 405 546
f 548 547 187
f 549 547 409
f 559 548 188
f 673 548 1151
f 679 409 299
f 531 549 397
f 228 227 550
f 419 550 227
f 303 551 193
f 551 411 310
f 553 552 13
f 554 552 413
f 14 553 13
f 895 414 896
f 683 554 413
f 11 685 326
f 556 555 15
f 555 414 895
f 16 556 15
f 556 557 1144
f 558 557 17
f 557 415 1144
f 17 18 688
f 689 558 1159
f 422 559 189
f 559 423 1151
f 692 560 312
f 213 560 214
f 561 212 691
f 57 424 561
f 215 562 694
f 697 693 695
f 706 842 44
f 834 833 563
f 564 704 705
f 563 715 428
f 566 565 326
f 567 565 437
f 566 326 685
f 566 308 851
f 716 567 437
f 235 1145 234
f 454 568 445
f 568 453 1159
f 570 569 327
f 571 569 456
f 327 35 718
f 573 343 1127
f 345 571 456
f 571 328 1108
f 721 37 574
f 1171 573 570
f 573 1171 719
f 902 343 573
f 39 907 864
f 1171 866 719
f 462 575 349
f 1128 575 463
f 351 271 722
f 467 723 353
f 578 354 106
f 579 577 468
f 107 578 106
f 468 577 578
f 468 581 579
f 604 591 590
f 468 578 580
f 107 580 578
f 600 583 585
f 581 353 585
f 272 579 584
f 585 593 592
f 947 805 888
f 804 887 802
f 592 579 581
f 757 596 582
f 723 576 722
f 589 582 584
f 585 583 593
f 586 593 595
f 591 607 582
f 1174 1236 101
f 1109 1146 271
f 601 600 588
f 592 584 579
f 586 595 591
f 944 593 583
f 608 602 604
f 586 591 589
f 888 923 594
f 585 592 581
f 589 592 586
f 595 593 944
f 592 593 586
f 594 925 888
f 803 805 800
f 924 595 594
f 591 595 590
f 582 596 584
f 597 596 587
f 598 597 587
f 597 469 599
f 607 602 760
f 103 1173 102
f 599 469 603
f 272 599 354
f 353 600 585
f 588 1146 601
f 466 601 352
f 946 945 601
f 752 869 751
f 604 607 591
f 605 603 469
f 104 105 603
f 924 608 590
f 604 602 607
f 598 724 469
f 605 469 724
f 625 798 486
f 602 608 610
f 610 612 602
f 596 757 587
f 590 608 604
f 606 922 610
f 610 922 609
f 749 755 754
f 606 610 608
f 1176 612 610
f 867 474 747
f 613 760 612
f 1176 610 609
f 612 611 613
f 737 729 742
f 758 759 735
f 615 614 165
f 764 614 470
f 761 164 163
f 470 762 355
f 767 768 766
f 765 767 769
f 161 771 162
f 795 161 160
f 619 618 157
f 620 618 472
f 156 155 830
f 774 356 789
f 472 774 789
f 790 791 620
f 743 734 737
f 771 617 770
f 133 622 479
f 477 622 134
f 767 766 769
f 796 797 275
f 874 624 168
f 1135 624 484
f 798 365 275
f 625 486 800
f 358 626 274
f 367 626 359
f 369 627 164
f 628 627 489
f 628 489 630
f 628 632 806
f 489 631 630
f 807 808 810
f 489 1130 631
f 892 632 629
f 809 281 636
f 371 810 809
f 282 372 632
f 632 372 806
f 494 633 189
f 490 633 491
f 641 634 187
f 808 807 634
f 371 809 636
f 491 494 635
f 812 636 281
f 1147 370 490
f 638 637 282
f 640 639 374
f 892 282 632
f 664 665 663
f 496 637 639
f 638 639 637
f 662 640 374
f 813 526 660
f 641 186 642
f 634 641 497
f 643 642 185
f 641 642 498
f 183 951 184
f 1131 815 373
f 492 644 192
f 377 644 504
f 285 504 645
f 644 645 504
f 370 646 492
f 646 1148 1149
f 511 383 649
f 361 648 360
f 274 647 648
f 649 648 647
f 649 647 511
f 649 513 650
f 650 513 652
f 360 650 477
f 173 651 174
f 647 651 511
f 818 652 287
f 482 652 480
f 818 653 480
f 516 364 819
f 654 385 1138
f 655 654 289
f 289 386 656
f 293 668 821
f 823 519 658
f 876 822 823
f 657 821 824
f 655 657 825
f 519 1137 914
f 97 915 877
f 524 659 156
f 527 659 523
f 813 660 159
f 525 660 526
f 526 662 661
f 661 662 666
f 662 526 813
f 374 665 664
f 1150 541 667
f 664 666 662
f 665 374 638
f 666 664 663
f 894 893 817
f 663 665 826
f 663 1150 667
f 666 291 661
f 534 1227 1228
f 1226 1225 291
f 669 668 293
f 473 775 671
f 780 782 916
f 778 782 788
f 530 668 670
f 669 670 668
f 830 619 156
f 530 670 671
f 297 537 672
f 295 672 537
f 673 1151 674
f 673 674 675
f 423 311 1157
f 673 675 299
f 674 676 675
f 223 1152 676
f 676 674 678
f 1152 223 222
f 222 221 1153
f 221 1155 1154
f 674 1151 1157
f 1157 1158 678
f 680 679 299
f 397 681 294
f 1154 1156 1153
f 1116 1122 1106
f 549 679 681
f 680 681 679
f 414 686 687
f 1095 852 832
f 553 831 413
f 566 683 308
f 684 682 897
f 683 684 1187
f 12 685 11
f 566 685 554
f 686 309 687
f 414 556 686
f 1024 1036 451
f 1087 1091 1090
f 568 688 441
f 17 688 558
f 1041 453 454
f 1032 1036 1024
f 560 690 424
f 212 690 213
f 211 691 212
f 56 691 313
f 215 214 692
f 692 214 560
f 1169 702 700
f 696 1160 694
f 562 695 694
f 698 694 695
f 426 695 562
f 695 693 698
f 698 693 699
f 1160 1161 217
f 426 60 697
f 700 60 61
f 693 700 702
f 694 698 696
f 1120 1114 1118
f 698 699 1162
f 61 62 1169
f 693 697 700
f 1167 62 544
f 702 699 693
f 1169 700 61
f 702 701 1166
f 428 712 714
f 854 457 574
f 705 704 315
f 706 704 564
f 315 709 708
f 1201 848 849
f 715 842 564
f 44 427 706
f 1185 1183 1184
f 956 954 955
f 709 315 1170
f 1182 711 708
f 430 433 843
f 709 844 845
f 213 214 1195
f 1073 217 218
f 1182 708 707
f 712 711 710
f 714 712 846
f 428 715 712
f 846 713 714
f 906 905 853
f 846 712 710
f 834 835 703
f 715 563 842
f 712 715 564
f 717 716 437
f 233 234 716
f 437 851 717
f 852 1187 897
f 36 718 35
f 718 572 1171
f 1172 866 572
f 861 912 862
f 907 908 858
f 703 835 837
f 865 574 457
f 718 1172 572
f 722 271 1146
f 576 351 722
f 722 588 723
f 588 353 723
f 605 724 728
f 724 598 727
f 733 729 732
f 731 725 741
f 728 727 730
f 725 731 730
f 598 733 732
f 730 727 725
f 727 728 724
f 728 726 1173
f 742 744 739
f 725 732 736
f 741 725 736
f 728 730 726
f 357 1175 273
f 726 730 731
f 598 732 727
f 729 737 736
f 587 758 598
f 759 758 757
f 734 736 737
f 779 783 787
f 613 745 744
f 729 733 735
f 729 736 732
f 741 736 884
f 729 744 742
f 747 743 740
f 794 747 793
f 731 738 879
f 751 750 745
f 740 746 753
f 742 739 746
f 772 771 773
f 884 736 734
f 731 741 738
f 744 729 735
f 746 743 737
f 746 737 742
f 740 867 747
f 735 613 744
f 745 613 611
f 745 611 751
f 739 744 745
f 745 750 739
f 740 743 746
f 779 787 356
f 734 743 747
f 611 752 751
f 748 869 763
f 739 750 755
f 772 875 617
f 754 750 748
f 749 753 755
f 612 1176 611
f 750 751 748
f 609 922 964
f 870 763 869
f 746 739 755
f 756 753 749
f 872 748 763
f 875 754 471
f 755 750 754
f 746 755 753
f 771 772 617
f 868 867 756
f 582 607 757
f 760 759 607
f 733 758 735
f 587 757 758
f 607 759 757
f 735 759 613
f 612 760 602
f 759 760 613
f 761 163 770
f 871 761 471
f 871 615 761
f 471 754 872
f 355 762 763
f 871 763 762
f 764 166 614
f 765 764 616
f 765 616 767
f 769 484 874
f 616 768 767
f 804 886 606
f 616 873 768
f 941 769 766
f 355 763 870
f 921 942 943
f 364 484 769
f 624 874 484
f 771 770 162
f 761 770 617
f 773 161 795
f 773 756 772
f 756 749 772
f 749 754 875
f 161 773 771
f 756 773 621
f 619 775 774
f 775 777 779
f 671 775 619
f 775 473 777
f 473 778 777
f 883 878 879
f 778 473 669
f 779 777 776
f 669 782 778
f 357 273 917
f 783 786 878
f 774 779 356
f 784 916 782
f 1177 98 99
f 883 884 794
f 793 474 790
f 784 782 669
f 780 785 788
f 783 776 786
f 783 781 787
f 293 784 669
f 784 658 877
f 780 1178 1177
f 917 878 786
f 776 880 786
f 785 917 880
f 734 747 794
f 474 791 790
f 780 788 782
f 788 785 880
f 787 792 356
f 793 790 792
f 620 789 790
f 792 790 789
f 791 474 868
f 882 160 159
f 356 792 789
f 792 787 793
f 794 787 781
f 474 793 747
f 787 794 793
f 883 794 781
f 795 160 882
f 773 795 621
f 820 483 653
f 797 796 623
f 919 918 623
f 486 798 799
f 275 797 798
f 799 798 797
f 797 623 918
f 803 804 802
f 803 800 486
f 800 805 889
f 130 131 801
f 625 801 131
f 804 803 486
f 888 805 802
f 804 486 799
f 805 803 802
f 886 804 799
f 887 804 606
f 802 923 888
f 805 129 889
f 495 806 372
f 163 806 162
f 494 634 807
f 808 634 497
f 497 1131 890
f 809 810 891
f 371 807 810
f 281 809 631
f 811 810 808
f 891 631 809
f 497 890 808
f 893 927 373
f 1134 812 281
f 1148 812 508
f 814 159 160
f 662 813 640
f 639 814 496
f 813 814 640
f 950 815 643
f 950 817 815
f 398 949 930
f 826 828 829
f 829 894 928
f 928 894 816
f 652 818 480
f 1181 287 384
f 919 819 364
f 820 623 796
f 483 820 796
f 653 819 820
f 824 821 396
f 657 655 822
f 655 656 822
f 823 822 656
f 519 823 656
f 823 658 876
f 529 824 396
f 825 153 152
f 655 825 517
f 824 825 657
f 826 665 828
f 538 826 829
f 827 1194 948
f 892 926 282
f 1194 665 638
f 829 828 827
f 829 827 894
f 829 539 538
f 530 830 155
f 619 830 671
f 895 831 553
f 682 684 831
f 897 899 832
f 832 900 1093
f 834 563 428
f 833 703 841
f 835 428 714
f 703 833 834
f 713 838 714
f 838 837 835
f 931 838 713
f 854 857 856
f 835 714 838
f 840 836 839
f 932 931 713
f 837 838 1192
f 855 858 909
f 40 41 841
f 836 840 837
f 841 840 839
f 841 839 908
f 841 41 833
f 44 842 43
f 842 706 564
f 433 209 843
f 844 209 210
f 709 843 844
f 209 844 843
f 210 211 845
f 1183 845 211
f 710 849 848
f 846 710 848
f 955 957 1202
f 848 850 846
f 711 1182 710
f 848 847 850
f 845 1183 1186
f 1185 213 956
f 952 953 1202
f 913 972 940
f 566 851 437
f 851 308 1187
f 852 851 1187
f 1095 832 1093
f 863 457 862
f 1191 460 458
f 864 854 574
f 855 857 858
f 931 911 1192
f 457 854 856
f 861 856 855
f 862 457 856
f 858 857 720
f 855 856 857
f 907 858 720
f 858 839 909
f 937 855 910
f 994 985 998
f 906 860 938
f 903 863 935
f 855 909 910
f 912 861 859
f 861 862 856
f 863 862 860
f 860 906 935
f 866 721 865
f 39 864 38
f 854 864 720
f 863 865 457
f 721 574 865
f 865 863 866
f 863 719 866
f 740 756 867
f 868 756 621
f 791 868 621
f 474 867 868
f 751 869 748
f 869 752 870
f 752 1176 966
f 768 355 870
f 615 871 762
f 872 871 471
f 748 872 754
f 871 872 763
f 616 470 873
f 355 873 470
f 167 874 168
f 765 769 874
f 617 875 471
f 749 875 772
f 293 821 876
f 658 784 876
f 914 877 658
f 97 98 915
f 879 878 273
f 783 878 781
f 879 273 1175
f 879 738 883
f 788 880 776
f 917 785 881
f 785 780 1180
f 100 475 1237
f 620 882 159
f 795 882 791
f 883 781 878
f 884 883 738
f 741 884 738
f 734 794 884
f 942 921 885
f 918 920 797
f 920 886 799
f 886 920 921
f 924 606 608
f 924 594 923
f 925 594 944
f 888 925 947
f 129 130 889
f 800 889 130
f 373 817 893
f 811 808 890
f 631 891 629
f 810 811 891
f 890 373 927
f 926 638 282
f 1194 926 948
f 927 892 811
f 893 894 827
f 816 894 817
f 555 895 553
f 896 414 687
f 682 831 896
f 895 896 831
f 682 1188 899
f 852 897 832
f 1188 682 896
f 1042 1038 1036
f 682 899 897
f 899 898 1090
f 1087 1090 1080
f 1092 1091 229
f 932 952 934
f 911 936 937
f 903 573 719
f 904 902 853
f 863 903 719
f 853 902 903
f 905 904 853
f 346 347 1190
f 853 935 906
f 1191 459 460
f 1204 938 912
f 905 906 939
f 864 907 720
f 908 39 40
f 841 908 40
f 839 858 908
f 839 836 909
f 909 836 910
f 911 836 1192
f 836 911 910
f 859 861 958
f 855 937 861
f 859 1204 912
f 862 912 860
f 461 462 1193
f 940 1193 939
f 519 914 658
f 97 914 96
f 1178 98 1177
f 915 1178 916
f 784 877 916
f 915 916 877
f 880 917 786
f 357 917 881
f 623 819 919
f 920 918 885
f 364 769 941
f 885 918 919
f 920 885 921
f 797 920 799
f 885 766 942
f 964 922 886
f 606 886 922
f 964 886 921
f 802 887 923
f 924 923 887
f 924 887 606
f 924 590 595
f 945 925 583
f 925 967 947
f 927 926 892
f 827 948 893
f 890 927 811
f 927 893 948
f 929 928 816
f 829 928 539
f 929 816 930
f 539 929 295
f 816 950 930
f 951 950 643
f 932 713 850
f 911 931 901
f 850 953 952
f 901 931 932
f 217 1061 1077
f 1052 1071 1073
f 983 976 963
f 936 1203 962
f 903 935 853
f 860 935 863
f 901 1203 911
f 936 962 959
f 911 937 910
f 937 936 958
f 912 938 860
f 939 938 913
f 939 913 940
f 905 939 459
f 959 961 859
f 859 958 959
f 885 941 766
f 364 941 919
f 768 965 766
f 966 965 870
f 965 943 942
f 966 943 965
f 595 944 594
f 583 925 944
f 600 945 583
f 601 127 946
f 127 128 946
f 128 947 967
f 128 129 947
f 805 947 129
f 827 828 1194
f 927 948 926
f 672 949 398
f 929 949 295
f 950 816 817
f 951 643 184
f 951 183 532
f 950 951 930
f 953 850 847
f 933 934 952
f 847 955 953
f 1200 1202 957
f 847 1201 956
f 1196 214 215
f 956 955 847
f 955 954 1198
f 849 1183 1185
f 1195 956 213
f 1196 954 1195
f 216 1077 1197
f 937 958 861
f 959 958 936
f 1207 979 980
f 972 1204 961
f 934 968 901
f 971 968 934
f 963 959 962
f 976 959 963
f 1203 936 911
f 963 962 960
f 960 1203 968
f 970 960 968
f 921 943 964
f 609 964 943
f 766 965 942
f 870 965 768
f 752 966 870
f 609 943 966
f 945 967 925
f 128 967 946
f 1205 971 934
f 971 970 968
f 989 969 991
f 1028 220 221
f 970 969 986
f 963 960 970
f 1205 934 933
f 970 971 969
f 1204 972 913
f 975 974 972
f 976 983 984
f 982 461 981
f 979 974 973
f 940 974 981
f 976 975 961
f 973 974 975
f 959 976 961
f 986 983 970
f 980 973 984
f 461 982 463
f 985 978 988
f 998 1013 994
f 980 979 973
f 981 979 977
f 984 985 980
f 1004 992 995
f 981 977 982
f 981 461 940
f 995 982 977
f 993 447 1128
f 970 983 963
f 984 983 978
f 984 978 985
f 984 973 975
f 986 988 978
f 990 998 988
f 989 988 986
f 983 986 978
f 1202 1200 933
f 1050 1029 219
f 989 986 969
f 988 987 990
f 991 969 1205
f 987 988 989
f 1029 1052 1216
f 1028 221 1213
f 1075 1061 1072
f 991 1076 989
f 980 985 994
f 1039 1016 1055
f 982 995 1001
f 1001 997 993
f 1047 1026 999
f 980 994 1005
f 1000 1207 1005
f 992 997 1001
f 450 996 449
f 447 993 996
f 997 992 1012
f 996 997 1206
f 988 998 985
f 1013 998 990
f 1211 1208 1015
f 1009 999 1017
f 1013 1014 994
f 1006 1008 1000
f 982 1001 993
f 992 1001 995
f 1010 1000 1008
f 1002 1012 1011
f 1048 1027 1047
f 1006 1000 1005
f 1207 995 977
f 1010 1004 1000
f 1006 1005 994
f 1207 1000 1004
f 1009 1014 999
f 1009 1008 1006
f 222 223 1208
f 1057 1065 1056
f 1006 1014 1009
f 1008 1007 1010
f 1025 1212 1017
f 1007 1008 1009
f 1011 1010 1007
f 1012 1002 1206
f 1007 1009 1021
f 1086 1089 228
f 992 1010 1012
f 1011 1012 1010
f 1048 1013 990
f 1013 1003 1014
f 1014 1006 994
f 1014 1003 1047
f 1057 1056 1054
f 1017 1021 1009
f 1022 1011 1007
f 1081 1058 1066
f 1025 1017 999
f 1214 1021 1017
f 1210 1208 1209
f 1011 1023 1019
f 1011 1022 1023
f 1031 1019 1016
f 1025 1026 1020
f 222 1211 1213
f 1214 1017 1015
f 1022 1021 1214
f 1022 1018 1023
f 1007 1021 1022
f 1053 1023 1018
f 1019 1023 1055
f 1031 1032 1024
f 1034 449 1206
f 1026 1025 999
f 1020 1211 1212
f 1047 1027 1026
f 1050 1028 1029
f 1003 1013 1048
f 1215 1060 1048
f 1020 1026 1028
f 1028 1026 1029
f 1026 1051 1029
f 1051 1027 1060
f 1053 1056 1030
f 1064 1057 1063
f 1032 1031 1016
f 1033 1031 1024
f 1035 1037 1039
f 1044 1045 1042
f 1033 1024 1034
f 1019 1033 1002
f 1024 451 1034
f 452 1034 451
f 1067 1035 1039
f 309 1068 687
f 1037 1043 1032
f 689 1159 1041
f 1039 1037 1016
f 1043 1037 1079
f 451 1036 1038
f 1043 1042 1036
f 1016 1019 1055
f 1039 1030 1067
f 1059 1069 1070
f 689 1038 1045
f 451 1038 1041
f 689 1041 1038
f 1043 1036 1032
f 1042 1040 1044
f 1079 1037 1035
f 1042 1043 1040
f 1044 1040 1069
f 1046 1045 1044
f 1042 1045 1038
f 1044 309 1046
f 1144 1046 309
f 689 1046 415
f 1014 1047 999
f 1048 1047 1003
f 987 1215 990
f 1060 1215 1049
f 1061 1071 1072
f 1051 1052 1029
f 219 220 1050
f 1028 1050 220
f 1026 1027 1051
f 1027 1048 1060
f 1060 1071 1052
f 219 1216 218
f 1018 1054 1056
f 1039 1053 1030
f 1208 1210 1015
f 224 1062 223
f 1023 1053 1055
f 1039 1055 1053
f 1018 1056 1053
f 1054 1062 1057
f 1063 1057 1062
f 225 226 1064
f 1065 1057 1064
f 1078 1081 1082
f 1070 1040 1079
f 1188 898 899
f 1071 1060 1049
f 1051 1060 1052
f 1072 1049 987
f 1200 991 933
f 1210 1209 1054
f 1063 1062 224
f 224 225 1063
f 1064 1063 225
f 1058 1065 1066
f 1065 1030 1056
f 1066 1065 1064
f 1067 1065 1058
f 1064 226 1066
f 1066 1082 1081
f 1065 1067 1030
f 1035 1067 1058
f 1069 1068 1044
f 687 1068 1059
f 1070 1069 1040
f 1068 1069 1059
f 1081 1083 1058
f 1059 1070 1080
f 1072 1071 1049
f 1073 1071 1061
f 1076 987 989
f 1076 1074 1075
f 217 1073 1061
f 1073 218 1216
f 1199 1198 1196
f 1075 1074 1077
f 1076 1075 1072
f 1074 1197 1077
f 1076 1072 987
f 1076 991 1200
f 217 1077 216
f 1061 1075 1077
f 1080 1084 1087
f 1035 1058 1083
f 1043 1079 1040
f 1085 1079 1035
f 1070 1079 1085
f 1070 1085 1088
f 1066 226 1082
f 1081 1078 1083
f 226 227 1082
f 1082 227 1089
f 1084 1083 1078
f 1080 1088 1084
f 1078 1086 1084
f 229 230 1092
f 1035 1083 1085
f 1088 1083 1084
f 1089 1086 1078
f 1094 229 1091
f 1084 1086 1087
f 1086 228 1094
f 1070 1088 1080
f 1083 1088 1085
f 1082 1089 1078
f 228 1089 227
f 899 1090 900
f 1090 898 1189
f 1090 1091 900
f 1094 1087 1086
f 1092 230 1093
f 900 1091 1092
f 230 231 1093
f 1093 231 1095
f 229 1094 228
f 1087 1094 1091
f 231 232 1095
f 1096 232 717
f 852 1095 1096
f 232 1096 1095
f 210 209 1097
f 53 1097 209
f 1099 1098 74
f 1102 1098 292
f 74 408 1099
f 408 395 1101
f 1100 1102 394
f 1103 1100 1217
f 292 1099 1101
f 408 1101 1099
f 394 1102 292
f 1103 1102 1100
f 1103 1217 1104
f 72 73 1105
f 1111 1220 1224
f 1219 72 1105
f 73 1103 1105
f 1219 1103 1104
f 1165 1235 1231
f 294 1115 1113
f 77 1107 76
f 1107 257 151
f 571 1108 263
f 439 1108 328
f 465 1109 271
f 435 1109 321
f 1110 291 1111
f 391 392 1110
f 1223 1111 1225
f 1229 1222 1223
f 1113 397 294
f 183 1112 402
f 1115 1116 1118
f 1115 1117 1113
f 1232 1120 1118
f 1123 1117 1114
f 1115 294 1116
f 1115 1114 1117
f 294 1121 1116
f 1116 1121 1122
f 1123 1114 1120
f 1112 1117 402
f 1106 1232 1118
f 1115 1118 1114
f 1165 1232 1233
f 1119 1163 1164
f 1164 1120 1119
f 1123 1120 545
f 681 1121 294
f 1122 1121 680
f 299 1156 680
f 1155 1122 1154
f 545 1126 1123
f 403 543 1125
f 1117 1123 1124
f 1123 1126 1125
f 296 1124 1125
f 1123 1125 1124
f 1126 545 1168
f 1125 1126 403
f 345 456 1127
f 573 1127 456
f 993 1128 463
f 1129 1128 447
f 448 1129 447
f 339 1129 342
f 631 1130 281
f 489 369 1130
f 890 1131 373
f 497 498 1131
f 506 1132 382
f 505 1132 502
f 165 507 1133
f 1134 507 508
f 1133 1134 369
f 812 1134 508
f 1136 1135 484
f 515 169 1135
f 364 1136 484
f 515 1136 516
f 95 96 1137
f 914 1137 96
f 1138 521 289
f 389 1138 385
f 1111 1139 391
f 1140 1139 390
f 1140 390 1217
f 394 523 1140
f 69 70 1141
f 1227 1141 70
f 1218 71 72
f 1143 1228 541
f 533 1143 399
f 1228 1143 534
f 1046 1144 415
f 686 1144 309
f 1145 235 264
f 716 1145 567
f 601 1146 352
f 722 1146 588
f 635 1147 491
f 812 1147 636
f 812 1148 370
f 1149 1148 508
f 508 382 1149
f 1149 382 1132
f 826 1150 663
f 541 1150 538
f 559 1151 548
f 1157 1151 423
f 1153 1152 222
f 675 1152 677
f 1154 1153 221
f 1152 1153 677
f 1155 221 220
f 1122 680 1156
f 1233 220 219
f 1155 1233 1234
f 1153 1156 677
f 1122 1156 1154
f 311 421 1158
f 674 1157 678
f 1158 225 224
f 311 1158 1157
f 1159 558 688
f 1041 1159 453
f 694 1160 216
f 1161 1160 696
f 696 1162 1161
f 1163 1165 1231
f 698 1162 696
f 1163 1162 699
f 1164 1163 699
f 1163 1119 1165
f 699 702 1166
f 1164 545 1120
f 1232 1165 1119
f 219 218 1235
f 1167 1166 701
f 1164 1166 1168
f 1167 701 1169
f 1168 1167 544
f 1168 544 403
f 1168 545 1164
f 1167 1169 62
f 702 1169 701
f 434 1170 315
f 843 1170 430
f 718 1171 570
f 866 1171 572
f 866 1172 721
f 36 721 1172
f 728 1173 103
f 1174 1173 726
f 726 731 1174
f 1175 1236 731
f 475 1236 357
f 879 1175 731
f 966 1176 609
f 611 1176 752
f 1179 1177 99
f 780 1177 1180
f 916 1178 780
f 98 1178 915
f 1180 881 785
f 1237 99 100
f 1177 1179 1180
f 881 1180 1179
f 653 1181 516
f 287 1181 818
f 1186 1182 707
f 710 1182 849
f 1184 1183 211
f 1186 1183 849
f 211 212 1184
f 1185 1184 212
f 213 1185 212
f 956 1201 1185
f 1182 1186 849
f 845 1186 707
f 683 1187 308
f 897 1187 684
f 687 1059 1188
f 1189 1059 1080
f 898 1188 1189
f 1059 1189 1188
f 902 1190 343
f 346 1190 904
f 904 1191 346
f 459 1191 905
f 837 1192 836
f 931 1192 838
f 939 1193 459
f 461 1193 940
f 665 1194 828
f 926 1194 638
f 1196 1195 214
f 956 1195 954
f 1197 1196 215
f 955 1198 957
f 216 1197 215
f 1198 1199 957
f 954 1196 1198
f 1199 1196 1197
f 1197 1074 1199
f 1074 1076 1200
f 957 1199 1200
f 1074 1200 1199
f 848 1201 847
f 1185 1201 849
f 952 1202 933
f 955 1202 953
f 968 1203 901
f 962 1203 960
f 1204 913 938
f 859 961 1204
f 971 1205 969
f 933 991 1205
f 1012 1206 997
f 1033 1206 1002
f 1005 1207 980
f 995 1207 1004
f 1208 223 1209
f 1015 1212 1211
f 223 1062 1209
f 1054 1209 1062
f 1054 1018 1210
f 1214 1210 1018
f 1213 1211 1020
f 222 1208 1211
f 1017 1212 1015
f 1020 1212 1025
f 1028 1213 1020
f 222 1213 221
f 1210 1214 1015
f 1022 1214 1018
f 990 1215 1048
f 987 1049 1215
f 1029 1216 219
f 1073 1216 1052
f 1140 1217 1100
f 1224 1217 390
f 1104 1224 1220
f 1221 1142 1227
f 1104 1218 1219
f 72 1219 1218
f 1220 1223 1222
f 1218 1222 1221
f 71 1218 1221
f 1222 1218 1220
f 1220 1111 1223
f 1142 1221 1222
f 1225 1111 291
f 1230 541 1228
f 1217 1224 1104
f 1111 1224 390
f 1226 291 666
f 667 1223 1225
f 663 1226 666
f 667 1225 1226
f 1227 70 71
f 1228 1227 1142
f 1229 1142 1222
f 1229 1223 1230
f 1230 1223 667
f 1142 1229 1228
f 541 1230 667
f 1228 1229 1230
f 217 1231 218
f 1231 1161 1162
f 1232 1119 1120
f 1234 1233 1106
f 220 1233 1155
f 1233 219 1235
f 1106 1122 1234
f 1155 1234 1122
f 1231 1235 218
f 1233 1235 1165
f 731 1236 1174
f 357 1236 1175
f 881 1237 357
f 99 1237 1179
